0
SECTION
2
HEADER
9
$ACADVER
1
AC1009
9
$EXTMIN
10
0
20
0
9
$EXTMAX
10
314
20
314
0
ENDSEC
0
SECTION
2
TABLES
0
TABLE
2
LAYER
70
2
0
LAYER
2
CUT
70
0
62
1
6
CONTINUOUS
0
LAYER
2
RASTER
70
0
62
7
6
CONTINUOUS
0
ENDTAB
0
ENDSEC
0
SECTION
2
ENTITIES
0
POLYLINE
8
RASTER
66
1
70
1
0
VERTEX
8
RASTER
10
6.825
20
207.175
30
0
0
VERTEX
8
RASTER
10
27.175
20
207.175
30
0
0
VERTEX
8
RASTER
10
27.175
20
206.825
30
0
0
VERTEX
8
RASTER
10
6.825
20
206.825
30
0
0
SEQEND
8
RASTER
0
POLYLINE
8
RASTER
66
1
70
1
0
VERTEX
8
RASTER
10
6.825
20
187.175
30
0
0
VERTEX
8
RASTER
10
27.175
20
187.175
30
0
0
VERTEX
8
RASTER
10
27.175
20
186.825
30
0
0
VERTEX
8
RASTER
10
6.825
20
186.825
30
0
0
SEQEND
8
RASTER
0
POLYLINE
8
RASTER
66
1
70
1
0
VERTEX
8
RASTER
10
6.825
20
167.175
30
0
0
VERTEX
8
RASTER
10
27.175
20
167.175
30
0
0
VERTEX
8
RASTER
10
27.175
20
166.825
30
0
0
VERTEX
8
RASTER
10
6.825
20
166.825
30
0
0
SEQEND
8
RASTER
0
POLYLINE
8
RASTER
66
1
70
1
0
VERTEX
8
RASTER
10
6.825
20
147.175
30
0
0
VERTEX
8
RASTER
10
27.175
20
147.175
30
0
0
VERTEX
8
RASTER
10
27.175
20
146.825
30
0
0
VERTEX
8
RASTER
10
6.825
20
146.825
30
0
0
SEQEND
8
RASTER
0
POLYLINE
8
RASTER
66
1
70
1
0
VERTEX
8
RASTER
10
6.825
20
127.175
30
0
0
VERTEX
8
RASTER
10
27.175
20
127.175
30
0
0
VERTEX
8
RASTER
10
27.175
20
126.825
30
0
0
VERTEX
8
RASTER
10
6.825
20
126.825
30
0
0
SEQEND
8
RASTER
0
POLYLINE
8
RASTER
66
1
70
1
0
VERTEX
8
RASTER
10
6.825
20
107.175
30
0
0
VERTEX
8
RASTER
10
27.175
20
107.175
30
0
0
VERTEX
8
RASTER
10
27.175
20
106.825
30
0
0
VERTEX
8
RASTER
10
6.825
20
106.825
30
0
0
SEQEND
8
RASTER
0
POLYLINE
8
RASTER
66
1
70
1
0
VERTEX
8
RASTER
10
26.825
20
247.175
30
0
0
VERTEX
8
RASTER
10
47.175
20
247.175
30
0
0
VERTEX
8
RASTER
10
47.175
20
246.825
30
0
0
VERTEX
8
RASTER
10
26.825
20
246.825
30
0
0
SEQEND
8
RASTER
0
POLYLINE
8
RASTER
66
1
70
1
0
VERTEX
8
RASTER
10
26.825
20
227.175
30
0
0
VERTEX
8
RASTER
10
47.175
20
227.175
30
0
0
VERTEX
8
RASTER
10
47.175
20
226.825
30
0
0
VERTEX
8
RASTER
10
26.825
20
226.825
30
0
0
SEQEND
8
RASTER
0
POLYLINE
8
RASTER
66
1
70
1
0
VERTEX
8
RASTER
10
26.825
20
207.175
30
0
0
VERTEX
8
RASTER
10
47.175
20
207.175
30
0
0
VERTEX
8
RASTER
10
47.175
20
206.825
30
0
0
VERTEX
8
RASTER
10
26.825
20
206.825
30
0
0
SEQEND
8
RASTER
0
POLYLINE
8
RASTER
66
1
70
1
0
VERTEX
8
RASTER
10
26.825
20
187.175
30
0
0
VERTEX
8
RASTER
10
47.175
20
187.175
30
0
0
VERTEX
8
RASTER
10
47.175
20
186.825
30
0
0
VERTEX
8
RASTER
10
26.825
20
186.825
30
0
0
SEQEND
8
RASTER
0
POLYLINE
8
RASTER
66
1
70
1
0
VERTEX
8
RASTER
10
26.825
20
167.175
30
0
0
VERTEX
8
RASTER
10
47.175
20
167.175
30
0
0
VERTEX
8
RASTER
10
47.175
20
166.825
30
0
0
VERTEX
8
RASTER
10
26.825
20
166.825
30
0
0
SEQEND
8
RASTER
0
POLYLINE
8
RASTER
66
1
70
1
0
VERTEX
8
RASTER
10
26.825
20
147.175
30
0
0
VERTEX
8
RASTER
10
47.175
20
147.175
30
0
0
VERTEX
8
RASTER
10
47.175
20
146.825
30
0
0
VERTEX
8
RASTER
10
26.825
20
146.825
30
0
0
SEQEND
8
RASTER
0
POLYLINE
8
RASTER
66
1
70
1
0
VERTEX
8
RASTER
10
26.825
20
127.175
30
0
0
VERTEX
8
RASTER
10
47.175
20
127.175
30
0
0
VERTEX
8
RASTER
10
47.175
20
126.825
30
0
0
VERTEX
8
RASTER
10
26.825
20
126.825
30
0
0
SEQEND
8
RASTER
0
POLYLINE
8
RASTER
66
1
70
1
0
VERTEX
8
RASTER
10
26.825
20
107.175
30
0
0
VERTEX
8
RASTER
10
47.175
20
107.175
30
0
0
VERTEX
8
RASTER
10
47.175
20
106.825
30
0
0
VERTEX
8
RASTER
10
26.825
20
106.825
30
0
0
SEQEND
8
RASTER
0
POLYLINE
8
RASTER
66
1
70
1
0
VERTEX
8
RASTER
10
26.825
20
87.175
30
0
0
VERTEX
8
RASTER
10
47.175
20
87.175
30
0
0
VERTEX
8
RASTER
10
47.175
20
86.825
30
0
0
VERTEX
8
RASTER
10
26.825
20
86.825
30
0
0
SEQEND
8
RASTER
0
POLYLINE
8
RASTER
66
1
70
1
0
VERTEX
8
RASTER
10
26.825
20
67.175
30
0
0
VERTEX
8
RASTER
10
47.175
20
67.175
30
0
0
VERTEX
8
RASTER
10
47.175
20
66.825
30
0
0
VERTEX
8
RASTER
10
26.825
20
66.825
30
0
0
SEQEND
8
RASTER
0
POLYLINE
8
RASTER
66
1
70
1
0
VERTEX
8
RASTER
10
46.825
20
267.175
30
0
0
VERTEX
8
RASTER
10
67.175
20
267.175
30
0
0
VERTEX
8
RASTER
10
67.175
20
266.825
30
0
0
VERTEX
8
RASTER
10
46.825
20
266.825
30
0
0
SEQEND
8
RASTER
0
POLYLINE
8
RASTER
66
1
70
1
0
VERTEX
8
RASTER
10
46.825
20
247.175
30
0
0
VERTEX
8
RASTER
10
67.175
20
247.175
30
0
0
VERTEX
8
RASTER
10
67.175
20
246.825
30
0
0
VERTEX
8
RASTER
10
46.825
20
246.825
30
0
0
SEQEND
8
RASTER
0
POLYLINE
8
RASTER
66
1
70
1
0
VERTEX
8
RASTER
10
46.825
20
227.175
30
0
0
VERTEX
8
RASTER
10
67.175
20
227.175
30
0
0
VERTEX
8
RASTER
10
67.175
20
226.825
30
0
0
VERTEX
8
RASTER
10
46.825
20
226.825
30
0
0
SEQEND
8
RASTER
0
POLYLINE
8
RASTER
66
1
70
1
0
VERTEX
8
RASTER
10
46.825
20
207.175
30
0
0
VERTEX
8
RASTER
10
67.175
20
207.175
30
0
0
VERTEX
8
RASTER
10
67.175
20
206.825
30
0
0
VERTEX
8
RASTER
10
46.825
20
206.825
30
0
0
SEQEND
8
RASTER
0
POLYLINE
8
RASTER
66
1
70
1
0
VERTEX
8
RASTER
10
46.825
20
187.175
30
0
0
VERTEX
8
RASTER
10
67.175
20
187.175
30
0
0
VERTEX
8
RASTER
10
67.175
20
186.825
30
0
0
VERTEX
8
RASTER
10
46.825
20
186.825
30
0
0
SEQEND
8
RASTER
0
POLYLINE
8
RASTER
66
1
70
1
0
VERTEX
8
RASTER
10
46.825
20
167.175
30
0
0
VERTEX
8
RASTER
10
67.175
20
167.175
30
0
0
VERTEX
8
RASTER
10
67.175
20
166.825
30
0
0
VERTEX
8
RASTER
10
46.825
20
166.825
30
0
0
SEQEND
8
RASTER
0
POLYLINE
8
RASTER
66
1
70
1
0
VERTEX
8
RASTER
10
46.825
20
147.175
30
0
0
VERTEX
8
RASTER
10
67.175
20
147.175
30
0
0
VERTEX
8
RASTER
10
67.175
20
146.825
30
0
0
VERTEX
8
RASTER
10
46.825
20
146.825
30
0
0
SEQEND
8
RASTER
0
POLYLINE
8
RASTER
66
1
70
1
0
VERTEX
8
RASTER
10
46.825
20
127.175
30
0
0
VERTEX
8
RASTER
10
67.175
20
127.175
30
0
0
VERTEX
8
RASTER
10
67.175
20
126.825
30
0
0
VERTEX
8
RASTER
10
46.825
20
126.825
30
0
0
SEQEND
8
RASTER
0
POLYLINE
8
RASTER
66
1
70
1
0
VERTEX
8
RASTER
10
46.825
20
107.175
30
0
0
VERTEX
8
RASTER
10
67.175
20
107.175
30
0
0
VERTEX
8
RASTER
10
67.175
20
106.825
30
0
0
VERTEX
8
RASTER
10
46.825
20
106.825
30
0
0
SEQEND
8
RASTER
0
POLYLINE
8
RASTER
66
1
70
1
0
VERTEX
8
RASTER
10
46.825
20
87.175
30
0
0
VERTEX
8
RASTER
10
67.175
20
87.175
30
0
0
VERTEX
8
RASTER
10
67.175
20
86.825
30
0
0
VERTEX
8
RASTER
10
46.825
20
86.825
30
0
0
SEQEND
8
RASTER
0
POLYLINE
8
RASTER
66
1
70
1
0
VERTEX
8
RASTER
10
46.825
20
67.175
30
0
0
VERTEX
8
RASTER
10
67.175
20
67.175
30
0
0
VERTEX
8
RASTER
10
67.175
20
66.825
30
0
0
VERTEX
8
RASTER
10
46.825
20
66.825
30
0
0
SEQEND
8
RASTER
0
POLYLINE
8
RASTER
66
1
70
1
0
VERTEX
8
RASTER
10
46.825
20
47.175
30
0
0
VERTEX
8
RASTER
10
67.175
20
47.175
30
0
0
VERTEX
8
RASTER
10
67.175
20
46.825
30
0
0
VERTEX
8
RASTER
10
46.825
20
46.825
30
0
0
SEQEND
8
RASTER
0
POLYLINE
8
RASTER
66
1
70
1
0
VERTEX
8
RASTER
10
66.825
20
287.175
30
0
0
VERTEX
8
RASTER
10
87.175
20
287.175
30
0
0
VERTEX
8
RASTER
10
87.175
20
286.825
30
0
0
VERTEX
8
RASTER
10
66.825
20
286.825
30
0
0
SEQEND
8
RASTER
0
POLYLINE
8
RASTER
66
1
70
1
0
VERTEX
8
RASTER
10
66.825
20
267.175
30
0
0
VERTEX
8
RASTER
10
87.175
20
267.175
30
0
0
VERTEX
8
RASTER
10
87.175
20
266.825
30
0
0
VERTEX
8
RASTER
10
66.825
20
266.825
30
0
0
SEQEND
8
RASTER
0
POLYLINE
8
RASTER
66
1
70
1
0
VERTEX
8
RASTER
10
66.825
20
247.175
30
0
0
VERTEX
8
RASTER
10
87.175
20
247.175
30
0
0
VERTEX
8
RASTER
10
87.175
20
246.825
30
0
0
VERTEX
8
RASTER
10
66.825
20
246.825
30
0
0
SEQEND
8
RASTER
0
POLYLINE
8
RASTER
66
1
70
1
0
VERTEX
8
RASTER
10
66.825
20
227.175
30
0
0
VERTEX
8
RASTER
10
87.175
20
227.175
30
0
0
VERTEX
8
RASTER
10
87.175
20
226.825
30
0
0
VERTEX
8
RASTER
10
66.825
20
226.825
30
0
0
SEQEND
8
RASTER
0
POLYLINE
8
RASTER
66
1
70
1
0
VERTEX
8
RASTER
10
66.825
20
207.175
30
0
0
VERTEX
8
RASTER
10
87.175
20
207.175
30
0
0
VERTEX
8
RASTER
10
87.175
20
206.825
30
0
0
VERTEX
8
RASTER
10
66.825
20
206.825
30
0
0
SEQEND
8
RASTER
0
POLYLINE
8
RASTER
66
1
70
1
0
VERTEX
8
RASTER
10
66.825
20
187.175
30
0
0
VERTEX
8
RASTER
10
87.175
20
187.175
30
0
0
VERTEX
8
RASTER
10
87.175
20
186.825
30
0
0
VERTEX
8
RASTER
10
66.825
20
186.825
30
0
0
SEQEND
8
RASTER
0
POLYLINE
8
RASTER
66
1
70
1
0
VERTEX
8
RASTER
10
66.825
20
167.175
30
0
0
VERTEX
8
RASTER
10
87.175
20
167.175
30
0
0
VERTEX
8
RASTER
10
87.175
20
166.825
30
0
0
VERTEX
8
RASTER
10
66.825
20
166.825
30
0
0
SEQEND
8
RASTER
0
POLYLINE
8
RASTER
66
1
70
1
0
VERTEX
8
RASTER
10
66.825
20
147.175
30
0
0
VERTEX
8
RASTER
10
87.175
20
147.175
30
0
0
VERTEX
8
RASTER
10
87.175
20
146.825
30
0
0
VERTEX
8
RASTER
10
66.825
20
146.825
30
0
0
SEQEND
8
RASTER
0
POLYLINE
8
RASTER
66
1
70
1
0
VERTEX
8
RASTER
10
66.825
20
127.175
30
0
0
VERTEX
8
RASTER
10
87.175
20
127.175
30
0
0
VERTEX
8
RASTER
10
87.175
20
126.825
30
0
0
VERTEX
8
RASTER
10
66.825
20
126.825
30
0
0
SEQEND
8
RASTER
0
POLYLINE
8
RASTER
66
1
70
1
0
VERTEX
8
RASTER
10
66.825
20
107.175
30
0
0
VERTEX
8
RASTER
10
87.175
20
107.175
30
0
0
VERTEX
8
RASTER
10
87.175
20
106.825
30
0
0
VERTEX
8
RASTER
10
66.825
20
106.825
30
0
0
SEQEND
8
RASTER
0
POLYLINE
8
RASTER
66
1
70
1
0
VERTEX
8
RASTER
10
66.825
20
87.175
30
0
0
VERTEX
8
RASTER
10
87.175
20
87.175
30
0
0
VERTEX
8
RASTER
10
87.175
20
86.825
30
0
0
VERTEX
8
RASTER
10
66.825
20
86.825
30
0
0
SEQEND
8
RASTER
0
POLYLINE
8
RASTER
66
1
70
1
0
VERTEX
8
RASTER
10
66.825
20
67.175
30
0
0
VERTEX
8
RASTER
10
87.175
20
67.175
30
0
0
VERTEX
8
RASTER
10
87.175
20
66.825
30
0
0
VERTEX
8
RASTER
10
66.825
20
66.825
30
0
0
SEQEND
8
RASTER
0
POLYLINE
8
RASTER
66
1
70
1
0
VERTEX
8
RASTER
10
66.825
20
47.175
30
0
0
VERTEX
8
RASTER
10
87.175
20
47.175
30
0
0
VERTEX
8
RASTER
10
87.175
20
46.825
30
0
0
VERTEX
8
RASTER
10
66.825
20
46.825
30
0
0
SEQEND
8
RASTER
0
POLYLINE
8
RASTER
66
1
70
1
0
VERTEX
8
RASTER
10
66.825
20
27.175
30
0
0
VERTEX
8
RASTER
10
87.175
20
27.175
30
0
0
VERTEX
8
RASTER
10
87.175
20
26.825
30
0
0
VERTEX
8
RASTER
10
66.825
20
26.825
30
0
0
SEQEND
8
RASTER
0
POLYLINE
8
RASTER
66
1
70
1
0
VERTEX
8
RASTER
10
86.825
20
287.175
30
0
0
VERTEX
8
RASTER
10
107.175
20
287.175
30
0
0
VERTEX
8
RASTER
10
107.175
20
286.825
30
0
0
VERTEX
8
RASTER
10
86.825
20
286.825
30
0
0
SEQEND
8
RASTER
0
POLYLINE
8
RASTER
66
1
70
1
0
VERTEX
8
RASTER
10
86.825
20
267.175
30
0
0
VERTEX
8
RASTER
10
107.175
20
267.175
30
0
0
VERTEX
8
RASTER
10
107.175
20
266.825
30
0
0
VERTEX
8
RASTER
10
86.825
20
266.825
30
0
0
SEQEND
8
RASTER
0
POLYLINE
8
RASTER
66
1
70
1
0
VERTEX
8
RASTER
10
86.825
20
247.175
30
0
0
VERTEX
8
RASTER
10
107.175
20
247.175
30
0
0
VERTEX
8
RASTER
10
107.175
20
246.825
30
0
0
VERTEX
8
RASTER
10
86.825
20
246.825
30
0
0
SEQEND
8
RASTER
0
POLYLINE
8
RASTER
66
1
70
1
0
VERTEX
8
RASTER
10
86.825
20
227.175
30
0
0
VERTEX
8
RASTER
10
107.175
20
227.175
30
0
0
VERTEX
8
RASTER
10
107.175
20
226.825
30
0
0
VERTEX
8
RASTER
10
86.825
20
226.825
30
0
0
SEQEND
8
RASTER
0
POLYLINE
8
RASTER
66
1
70
1
0
VERTEX
8
RASTER
10
86.825
20
207.175
30
0
0
VERTEX
8
RASTER
10
107.175
20
207.175
30
0
0
VERTEX
8
RASTER
10
107.175
20
206.825
30
0
0
VERTEX
8
RASTER
10
86.825
20
206.825
30
0
0
SEQEND
8
RASTER
0
POLYLINE
8
RASTER
66
1
70
1
0
VERTEX
8
RASTER
10
86.825
20
187.175
30
0
0
VERTEX
8
RASTER
10
107.175
20
187.175
30
0
0
VERTEX
8
RASTER
10
107.175
20
186.825
30
0
0
VERTEX
8
RASTER
10
86.825
20
186.825
30
0
0
SEQEND
8
RASTER
0
POLYLINE
8
RASTER
66
1
70
1
0
VERTEX
8
RASTER
10
86.825
20
167.175
30
0
0
VERTEX
8
RASTER
10
107.175
20
167.175
30
0
0
VERTEX
8
RASTER
10
107.175
20
166.825
30
0
0
VERTEX
8
RASTER
10
86.825
20
166.825
30
0
0
SEQEND
8
RASTER
0
POLYLINE
8
RASTER
66
1
70
1
0
VERTEX
8
RASTER
10
86.825
20
147.175
30
0
0
VERTEX
8
RASTER
10
107.175
20
147.175
30
0
0
VERTEX
8
RASTER
10
107.175
20
146.825
30
0
0
VERTEX
8
RASTER
10
86.825
20
146.825
30
0
0
SEQEND
8
RASTER
0
POLYLINE
8
RASTER
66
1
70
1
0
VERTEX
8
RASTER
10
86.825
20
127.175
30
0
0
VERTEX
8
RASTER
10
107.175
20
127.175
30
0
0
VERTEX
8
RASTER
10
107.175
20
126.825
30
0
0
VERTEX
8
RASTER
10
86.825
20
126.825
30
0
0
SEQEND
8
RASTER
0
POLYLINE
8
RASTER
66
1
70
1
0
VERTEX
8
RASTER
10
86.825
20
107.175
30
0
0
VERTEX
8
RASTER
10
107.175
20
107.175
30
0
0
VERTEX
8
RASTER
10
107.175
20
106.825
30
0
0
VERTEX
8
RASTER
10
86.825
20
106.825
30
0
0
SEQEND
8
RASTER
0
POLYLINE
8
RASTER
66
1
70
1
0
VERTEX
8
RASTER
10
86.825
20
87.175
30
0
0
VERTEX
8
RASTER
10
107.175
20
87.175
30
0
0
VERTEX
8
RASTER
10
107.175
20
86.825
30
0
0
VERTEX
8
RASTER
10
86.825
20
86.825
30
0
0
SEQEND
8
RASTER
0
POLYLINE
8
RASTER
66
1
70
1
0
VERTEX
8
RASTER
10
86.825
20
67.175
30
0
0
VERTEX
8
RASTER
10
107.175
20
67.175
30
0
0
VERTEX
8
RASTER
10
107.175
20
66.825
30
0
0
VERTEX
8
RASTER
10
86.825
20
66.825
30
0
0
SEQEND
8
RASTER
0
POLYLINE
8
RASTER
66
1
70
1
0
VERTEX
8
RASTER
10
86.825
20
47.175
30
0
0
VERTEX
8
RASTER
10
107.175
20
47.175
30
0
0
VERTEX
8
RASTER
10
107.175
20
46.825
30
0
0
VERTEX
8
RASTER
10
86.825
20
46.825
30
0
0
SEQEND
8
RASTER
0
POLYLINE
8
RASTER
66
1
70
1
0
VERTEX
8
RASTER
10
86.825
20
27.175
30
0
0
VERTEX
8
RASTER
10
107.175
20
27.175
30
0
0
VERTEX
8
RASTER
10
107.175
20
26.825
30
0
0
VERTEX
8
RASTER
10
86.825
20
26.825
30
0
0
SEQEND
8
RASTER
0
POLYLINE
8
RASTER
66
1
70
1
0
VERTEX
8
RASTER
10
106.825
20
307.175
30
0
0
VERTEX
8
RASTER
10
127.175
20
307.175
30
0
0
VERTEX
8
RASTER
10
127.175
20
306.825
30
0
0
VERTEX
8
RASTER
10
106.825
20
306.825
30
0
0
SEQEND
8
RASTER
0
POLYLINE
8
RASTER
66
1
70
1
0
VERTEX
8
RASTER
10
106.825
20
287.175
30
0
0
VERTEX
8
RASTER
10
127.175
20
287.175
30
0
0
VERTEX
8
RASTER
10
127.175
20
286.825
30
0
0
VERTEX
8
RASTER
10
106.825
20
286.825
30
0
0
SEQEND
8
RASTER
0
POLYLINE
8
RASTER
66
1
70
1
0
VERTEX
8
RASTER
10
106.825
20
267.175
30
0
0
VERTEX
8
RASTER
10
127.175
20
267.175
30
0
0
VERTEX
8
RASTER
10
127.175
20
266.825
30
0
0
VERTEX
8
RASTER
10
106.825
20
266.825
30
0
0
SEQEND
8
RASTER
0
POLYLINE
8
RASTER
66
1
70
1
0
VERTEX
8
RASTER
10
106.825
20
247.175
30
0
0
VERTEX
8
RASTER
10
127.175
20
247.175
30
0
0
VERTEX
8
RASTER
10
127.175
20
246.825
30
0
0
VERTEX
8
RASTER
10
106.825
20
246.825
30
0
0
SEQEND
8
RASTER
0
POLYLINE
8
RASTER
66
1
70
1
0
VERTEX
8
RASTER
10
106.825
20
227.175
30
0
0
VERTEX
8
RASTER
10
127.175
20
227.175
30
0
0
VERTEX
8
RASTER
10
127.175
20
226.825
30
0
0
VERTEX
8
RASTER
10
106.825
20
226.825
30
0
0
SEQEND
8
RASTER
0
POLYLINE
8
RASTER
66
1
70
1
0
VERTEX
8
RASTER
10
106.825
20
207.175
30
0
0
VERTEX
8
RASTER
10
127.175
20
207.175
30
0
0
VERTEX
8
RASTER
10
127.175
20
206.825
30
0
0
VERTEX
8
RASTER
10
106.825
20
206.825
30
0
0
SEQEND
8
RASTER
0
POLYLINE
8
RASTER
66
1
70
1
0
VERTEX
8
RASTER
10
106.825
20
187.175
30
0
0
VERTEX
8
RASTER
10
127.175
20
187.175
30
0
0
VERTEX
8
RASTER
10
127.175
20
186.825
30
0
0
VERTEX
8
RASTER
10
106.825
20
186.825
30
0
0
SEQEND
8
RASTER
0
POLYLINE
8
RASTER
66
1
70
1
0
VERTEX
8
RASTER
10
106.825
20
167.175
30
0
0
VERTEX
8
RASTER
10
127.175
20
167.175
30
0
0
VERTEX
8
RASTER
10
127.175
20
166.825
30
0
0
VERTEX
8
RASTER
10
106.825
20
166.825
30
0
0
SEQEND
8
RASTER
0
POLYLINE
8
RASTER
66
1
70
1
0
VERTEX
8
RASTER
10
106.825
20
147.175
30
0
0
VERTEX
8
RASTER
10
127.175
20
147.175
30
0
0
VERTEX
8
RASTER
10
127.175
20
146.825
30
0
0
VERTEX
8
RASTER
10
106.825
20
146.825
30
0
0
SEQEND
8
RASTER
0
POLYLINE
8
RASTER
66
1
70
1
0
VERTEX
8
RASTER
10
106.825
20
127.175
30
0
0
VERTEX
8
RASTER
10
127.175
20
127.175
30
0
0
VERTEX
8
RASTER
10
127.175
20
126.825
30
0
0
VERTEX
8
RASTER
10
106.825
20
126.825
30
0
0
SEQEND
8
RASTER
0
POLYLINE
8
RASTER
66
1
70
1
0
VERTEX
8
RASTER
10
106.825
20
107.175
30
0
0
VERTEX
8
RASTER
10
127.175
20
107.175
30
0
0
VERTEX
8
RASTER
10
127.175
20
106.825
30
0
0
VERTEX
8
RASTER
10
106.825
20
106.825
30
0
0
SEQEND
8
RASTER
0
POLYLINE
8
RASTER
66
1
70
1
0
VERTEX
8
RASTER
10
106.825
20
87.175
30
0
0
VERTEX
8
RASTER
10
127.175
20
87.175
30
0
0
VERTEX
8
RASTER
10
127.175
20
86.825
30
0
0
VERTEX
8
RASTER
10
106.825
20
86.825
30
0
0
SEQEND
8
RASTER
0
POLYLINE
8
RASTER
66
1
70
1
0
VERTEX
8
RASTER
10
106.825
20
67.175
30
0
0
VERTEX
8
RASTER
10
127.175
20
67.175
30
0
0
VERTEX
8
RASTER
10
127.175
20
66.825
30
0
0
VERTEX
8
RASTER
10
106.825
20
66.825
30
0
0
SEQEND
8
RASTER
0
POLYLINE
8
RASTER
66
1
70
1
0
VERTEX
8
RASTER
10
106.825
20
47.175
30
0
0
VERTEX
8
RASTER
10
127.175
20
47.175
30
0
0
VERTEX
8
RASTER
10
127.175
20
46.825
30
0
0
VERTEX
8
RASTER
10
106.825
20
46.825
30
0
0
SEQEND
8
RASTER
0
POLYLINE
8
RASTER
66
1
70
1
0
VERTEX
8
RASTER
10
106.825
20
27.175
30
0
0
VERTEX
8
RASTER
10
127.175
20
27.175
30
0
0
VERTEX
8
RASTER
10
127.175
20
26.825
30
0
0
VERTEX
8
RASTER
10
106.825
20
26.825
30
0
0
SEQEND
8
RASTER
0
POLYLINE
8
RASTER
66
1
70
1
0
VERTEX
8
RASTER
10
106.825
20
7.175
30
0
0
VERTEX
8
RASTER
10
127.175
20
7.175
30
0
0
VERTEX
8
RASTER
10
127.175
20
6.825
30
0
0
VERTEX
8
RASTER
10
106.825
20
6.825
30
0
0
SEQEND
8
RASTER
0
POLYLINE
8
RASTER
66
1
70
1
0
VERTEX
8
RASTER
10
126.825
20
307.175
30
0
0
VERTEX
8
RASTER
10
147.175
20
307.175
30
0
0
VERTEX
8
RASTER
10
147.175
20
306.825
30
0
0
VERTEX
8
RASTER
10
126.825
20
306.825
30
0
0
SEQEND
8
RASTER
0
POLYLINE
8
RASTER
66
1
70
1
0
VERTEX
8
RASTER
10
126.825
20
287.175
30
0
0
VERTEX
8
RASTER
10
147.175
20
287.175
30
0
0
VERTEX
8
RASTER
10
147.175
20
286.825
30
0
0
VERTEX
8
RASTER
10
126.825
20
286.825
30
0
0
SEQEND
8
RASTER
0
POLYLINE
8
RASTER
66
1
70
1
0
VERTEX
8
RASTER
10
126.825
20
267.175
30
0
0
VERTEX
8
RASTER
10
147.175
20
267.175
30
0
0
VERTEX
8
RASTER
10
147.175
20
266.825
30
0
0
VERTEX
8
RASTER
10
126.825
20
266.825
30
0
0
SEQEND
8
RASTER
0
POLYLINE
8
RASTER
66
1
70
1
0
VERTEX
8
RASTER
10
126.825
20
247.175
30
0
0
VERTEX
8
RASTER
10
147.175
20
247.175
30
0
0
VERTEX
8
RASTER
10
147.175
20
246.825
30
0
0
VERTEX
8
RASTER
10
126.825
20
246.825
30
0
0
SEQEND
8
RASTER
0
POLYLINE
8
RASTER
66
1
70
1
0
VERTEX
8
RASTER
10
126.825
20
227.175
30
0
0
VERTEX
8
RASTER
10
147.175
20
227.175
30
0
0
VERTEX
8
RASTER
10
147.175
20
226.825
30
0
0
VERTEX
8
RASTER
10
126.825
20
226.825
30
0
0
SEQEND
8
RASTER
0
POLYLINE
8
RASTER
66
1
70
1
0
VERTEX
8
RASTER
10
126.825
20
207.175
30
0
0
VERTEX
8
RASTER
10
147.175
20
207.175
30
0
0
VERTEX
8
RASTER
10
147.175
20
206.825
30
0
0
VERTEX
8
RASTER
10
126.825
20
206.825
30
0
0
SEQEND
8
RASTER
0
POLYLINE
8
RASTER
66
1
70
1
0
VERTEX
8
RASTER
10
126.825
20
187.175
30
0
0
VERTEX
8
RASTER
10
147.175
20
187.175
30
0
0
VERTEX
8
RASTER
10
147.175
20
186.825
30
0
0
VERTEX
8
RASTER
10
126.825
20
186.825
30
0
0
SEQEND
8
RASTER
0
POLYLINE
8
RASTER
66
1
70
1
0
VERTEX
8
RASTER
10
126.825
20
167.175
30
0
0
VERTEX
8
RASTER
10
147.175
20
167.175
30
0
0
VERTEX
8
RASTER
10
147.175
20
166.825
30
0
0
VERTEX
8
RASTER
10
126.825
20
166.825
30
0
0
SEQEND
8
RASTER
0
POLYLINE
8
RASTER
66
1
70
1
0
VERTEX
8
RASTER
10
126.825
20
147.175
30
0
0
VERTEX
8
RASTER
10
147.175
20
147.175
30
0
0
VERTEX
8
RASTER
10
147.175
20
146.825
30
0
0
VERTEX
8
RASTER
10
126.825
20
146.825
30
0
0
SEQEND
8
RASTER
0
POLYLINE
8
RASTER
66
1
70
1
0
VERTEX
8
RASTER
10
126.825
20
127.175
30
0
0
VERTEX
8
RASTER
10
147.175
20
127.175
30
0
0
VERTEX
8
RASTER
10
147.175
20
126.825
30
0
0
VERTEX
8
RASTER
10
126.825
20
126.825
30
0
0
SEQEND
8
RASTER
0
POLYLINE
8
RASTER
66
1
70
1
0
VERTEX
8
RASTER
10
126.825
20
107.175
30
0
0
VERTEX
8
RASTER
10
147.175
20
107.175
30
0
0
VERTEX
8
RASTER
10
147.175
20
106.825
30
0
0
VERTEX
8
RASTER
10
126.825
20
106.825
30
0
0
SEQEND
8
RASTER
0
POLYLINE
8
RASTER
66
1
70
1
0
VERTEX
8
RASTER
10
126.825
20
87.175
30
0
0
VERTEX
8
RASTER
10
147.175
20
87.175
30
0
0
VERTEX
8
RASTER
10
147.175
20
86.825
30
0
0
VERTEX
8
RASTER
10
126.825
20
86.825
30
0
0
SEQEND
8
RASTER
0
POLYLINE
8
RASTER
66
1
70
1
0
VERTEX
8
RASTER
10
126.825
20
67.175
30
0
0
VERTEX
8
RASTER
10
147.175
20
67.175
30
0
0
VERTEX
8
RASTER
10
147.175
20
66.825
30
0
0
VERTEX
8
RASTER
10
126.825
20
66.825
30
0
0
SEQEND
8
RASTER
0
POLYLINE
8
RASTER
66
1
70
1
0
VERTEX
8
RASTER
10
126.825
20
47.175
30
0
0
VERTEX
8
RASTER
10
147.175
20
47.175
30
0
0
VERTEX
8
RASTER
10
147.175
20
46.825
30
0
0
VERTEX
8
RASTER
10
126.825
20
46.825
30
0
0
SEQEND
8
RASTER
0
POLYLINE
8
RASTER
66
1
70
1
0
VERTEX
8
RASTER
10
126.825
20
27.175
30
0
0
VERTEX
8
RASTER
10
147.175
20
27.175
30
0
0
VERTEX
8
RASTER
10
147.175
20
26.825
30
0
0
VERTEX
8
RASTER
10
126.825
20
26.825
30
0
0
SEQEND
8
RASTER
0
POLYLINE
8
RASTER
66
1
70
1
0
VERTEX
8
RASTER
10
126.825
20
7.175
30
0
0
VERTEX
8
RASTER
10
147.175
20
7.175
30
0
0
VERTEX
8
RASTER
10
147.175
20
6.825
30
0
0
VERTEX
8
RASTER
10
126.825
20
6.825
30
0
0
SEQEND
8
RASTER
0
POLYLINE
8
RASTER
66
1
70
1
0
VERTEX
8
RASTER
10
146.825
20
307.175
30
0
0
VERTEX
8
RASTER
10
167.175
20
307.175
30
0
0
VERTEX
8
RASTER
10
167.175
20
306.825
30
0
0
VERTEX
8
RASTER
10
146.825
20
306.825
30
0
0
SEQEND
8
RASTER
0
POLYLINE
8
RASTER
66
1
70
1
0
VERTEX
8
RASTER
10
146.825
20
287.175
30
0
0
VERTEX
8
RASTER
10
167.175
20
287.175
30
0
0
VERTEX
8
RASTER
10
167.175
20
286.825
30
0
0
VERTEX
8
RASTER
10
146.825
20
286.825
30
0
0
SEQEND
8
RASTER
0
POLYLINE
8
RASTER
66
1
70
1
0
VERTEX
8
RASTER
10
146.825
20
267.175
30
0
0
VERTEX
8
RASTER
10
167.175
20
267.175
30
0
0
VERTEX
8
RASTER
10
167.175
20
266.825
30
0
0
VERTEX
8
RASTER
10
146.825
20
266.825
30
0
0
SEQEND
8
RASTER
0
POLYLINE
8
RASTER
66
1
70
1
0
VERTEX
8
RASTER
10
146.825
20
247.175
30
0
0
VERTEX
8
RASTER
10
167.175
20
247.175
30
0
0
VERTEX
8
RASTER
10
167.175
20
246.825
30
0
0
VERTEX
8
RASTER
10
146.825
20
246.825
30
0
0
SEQEND
8
RASTER
0
POLYLINE
8
RASTER
66
1
70
1
0
VERTEX
8
RASTER
10
146.825
20
227.175
30
0
0
VERTEX
8
RASTER
10
167.175
20
227.175
30
0
0
VERTEX
8
RASTER
10
167.175
20
226.825
30
0
0
VERTEX
8
RASTER
10
146.825
20
226.825
30
0
0
SEQEND
8
RASTER
0
POLYLINE
8
RASTER
66
1
70
1
0
VERTEX
8
RASTER
10
146.825
20
207.175
30
0
0
VERTEX
8
RASTER
10
167.175
20
207.175
30
0
0
VERTEX
8
RASTER
10
167.175
20
206.825
30
0
0
VERTEX
8
RASTER
10
146.825
20
206.825
30
0
0
SEQEND
8
RASTER
0
POLYLINE
8
RASTER
66
1
70
1
0
VERTEX
8
RASTER
10
146.825
20
187.175
30
0
0
VERTEX
8
RASTER
10
167.175
20
187.175
30
0
0
VERTEX
8
RASTER
10
167.175
20
186.825
30
0
0
VERTEX
8
RASTER
10
146.825
20
186.825
30
0
0
SEQEND
8
RASTER
0
POLYLINE
8
RASTER
66
1
70
1
0
VERTEX
8
RASTER
10
146.825
20
167.175
30
0
0
VERTEX
8
RASTER
10
167.175
20
167.175
30
0
0
VERTEX
8
RASTER
10
167.175
20
166.825
30
0
0
VERTEX
8
RASTER
10
146.825
20
166.825
30
0
0
SEQEND
8
RASTER
0
POLYLINE
8
RASTER
66
1
70
1
0
VERTEX
8
RASTER
10
146.825
20
147.175
30
0
0
VERTEX
8
RASTER
10
167.175
20
147.175
30
0
0
VERTEX
8
RASTER
10
167.175
20
146.825
30
0
0
VERTEX
8
RASTER
10
146.825
20
146.825
30
0
0
SEQEND
8
RASTER
0
POLYLINE
8
RASTER
66
1
70
1
0
VERTEX
8
RASTER
10
146.825
20
127.175
30
0
0
VERTEX
8
RASTER
10
167.175
20
127.175
30
0
0
VERTEX
8
RASTER
10
167.175
20
126.825
30
0
0
VERTEX
8
RASTER
10
146.825
20
126.825
30
0
0
SEQEND
8
RASTER
0
POLYLINE
8
RASTER
66
1
70
1
0
VERTEX
8
RASTER
10
146.825
20
107.175
30
0
0
VERTEX
8
RASTER
10
167.175
20
107.175
30
0
0
VERTEX
8
RASTER
10
167.175
20
106.825
30
0
0
VERTEX
8
RASTER
10
146.825
20
106.825
30
0
0
SEQEND
8
RASTER
0
POLYLINE
8
RASTER
66
1
70
1
0
VERTEX
8
RASTER
10
146.825
20
87.175
30
0
0
VERTEX
8
RASTER
10
167.175
20
87.175
30
0
0
VERTEX
8
RASTER
10
167.175
20
86.825
30
0
0
VERTEX
8
RASTER
10
146.825
20
86.825
30
0
0
SEQEND
8
RASTER
0
POLYLINE
8
RASTER
66
1
70
1
0
VERTEX
8
RASTER
10
146.825
20
67.175
30
0
0
VERTEX
8
RASTER
10
167.175
20
67.175
30
0
0
VERTEX
8
RASTER
10
167.175
20
66.825
30
0
0
VERTEX
8
RASTER
10
146.825
20
66.825
30
0
0
SEQEND
8
RASTER
0
POLYLINE
8
RASTER
66
1
70
1
0
VERTEX
8
RASTER
10
146.825
20
47.175
30
0
0
VERTEX
8
RASTER
10
167.175
20
47.175
30
0
0
VERTEX
8
RASTER
10
167.175
20
46.825
30
0
0
VERTEX
8
RASTER
10
146.825
20
46.825
30
0
0
SEQEND
8
RASTER
0
POLYLINE
8
RASTER
66
1
70
1
0
VERTEX
8
RASTER
10
146.825
20
27.175
30
0
0
VERTEX
8
RASTER
10
167.175
20
27.175
30
0
0
VERTEX
8
RASTER
10
167.175
20
26.825
30
0
0
VERTEX
8
RASTER
10
146.825
20
26.825
30
0
0
SEQEND
8
RASTER
0
POLYLINE
8
RASTER
66
1
70
1
0
VERTEX
8
RASTER
10
146.825
20
7.175
30
0
0
VERTEX
8
RASTER
10
167.175
20
7.175
30
0
0
VERTEX
8
RASTER
10
167.175
20
6.825
30
0
0
VERTEX
8
RASTER
10
146.825
20
6.825
30
0
0
SEQEND
8
RASTER
0
POLYLINE
8
RASTER
66
1
70
1
0
VERTEX
8
RASTER
10
166.825
20
307.175
30
0
0
VERTEX
8
RASTER
10
187.175
20
307.175
30
0
0
VERTEX
8
RASTER
10
187.175
20
306.825
30
0
0
VERTEX
8
RASTER
10
166.825
20
306.825
30
0
0
SEQEND
8
RASTER
0
POLYLINE
8
RASTER
66
1
70
1
0
VERTEX
8
RASTER
10
166.825
20
287.175
30
0
0
VERTEX
8
RASTER
10
187.175
20
287.175
30
0
0
VERTEX
8
RASTER
10
187.175
20
286.825
30
0
0
VERTEX
8
RASTER
10
166.825
20
286.825
30
0
0
SEQEND
8
RASTER
0
POLYLINE
8
RASTER
66
1
70
1
0
VERTEX
8
RASTER
10
166.825
20
267.175
30
0
0
VERTEX
8
RASTER
10
187.175
20
267.175
30
0
0
VERTEX
8
RASTER
10
187.175
20
266.825
30
0
0
VERTEX
8
RASTER
10
166.825
20
266.825
30
0
0
SEQEND
8
RASTER
0
POLYLINE
8
RASTER
66
1
70
1
0
VERTEX
8
RASTER
10
166.825
20
247.175
30
0
0
VERTEX
8
RASTER
10
187.175
20
247.175
30
0
0
VERTEX
8
RASTER
10
187.175
20
246.825
30
0
0
VERTEX
8
RASTER
10
166.825
20
246.825
30
0
0
SEQEND
8
RASTER
0
POLYLINE
8
RASTER
66
1
70
1
0
VERTEX
8
RASTER
10
166.825
20
227.175
30
0
0
VERTEX
8
RASTER
10
187.175
20
227.175
30
0
0
VERTEX
8
RASTER
10
187.175
20
226.825
30
0
0
VERTEX
8
RASTER
10
166.825
20
226.825
30
0
0
SEQEND
8
RASTER
0
POLYLINE
8
RASTER
66
1
70
1
0
VERTEX
8
RASTER
10
166.825
20
207.175
30
0
0
VERTEX
8
RASTER
10
187.175
20
207.175
30
0
0
VERTEX
8
RASTER
10
187.175
20
206.825
30
0
0
VERTEX
8
RASTER
10
166.825
20
206.825
30
0
0
SEQEND
8
RASTER
0
POLYLINE
8
RASTER
66
1
70
1
0
VERTEX
8
RASTER
10
166.825
20
187.175
30
0
0
VERTEX
8
RASTER
10
187.175
20
187.175
30
0
0
VERTEX
8
RASTER
10
187.175
20
186.825
30
0
0
VERTEX
8
RASTER
10
166.825
20
186.825
30
0
0
SEQEND
8
RASTER
0
POLYLINE
8
RASTER
66
1
70
1
0
VERTEX
8
RASTER
10
166.825
20
167.175
30
0
0
VERTEX
8
RASTER
10
187.175
20
167.175
30
0
0
VERTEX
8
RASTER
10
187.175
20
166.825
30
0
0
VERTEX
8
RASTER
10
166.825
20
166.825
30
0
0
SEQEND
8
RASTER
0
POLYLINE
8
RASTER
66
1
70
1
0
VERTEX
8
RASTER
10
166.825
20
147.175
30
0
0
VERTEX
8
RASTER
10
187.175
20
147.175
30
0
0
VERTEX
8
RASTER
10
187.175
20
146.825
30
0
0
VERTEX
8
RASTER
10
166.825
20
146.825
30
0
0
SEQEND
8
RASTER
0
POLYLINE
8
RASTER
66
1
70
1
0
VERTEX
8
RASTER
10
166.825
20
127.175
30
0
0
VERTEX
8
RASTER
10
187.175
20
127.175
30
0
0
VERTEX
8
RASTER
10
187.175
20
126.825
30
0
0
VERTEX
8
RASTER
10
166.825
20
126.825
30
0
0
SEQEND
8
RASTER
0
POLYLINE
8
RASTER
66
1
70
1
0
VERTEX
8
RASTER
10
166.825
20
107.175
30
0
0
VERTEX
8
RASTER
10
187.175
20
107.175
30
0
0
VERTEX
8
RASTER
10
187.175
20
106.825
30
0
0
VERTEX
8
RASTER
10
166.825
20
106.825
30
0
0
SEQEND
8
RASTER
0
POLYLINE
8
RASTER
66
1
70
1
0
VERTEX
8
RASTER
10
166.825
20
87.175
30
0
0
VERTEX
8
RASTER
10
187.175
20
87.175
30
0
0
VERTEX
8
RASTER
10
187.175
20
86.825
30
0
0
VERTEX
8
RASTER
10
166.825
20
86.825
30
0
0
SEQEND
8
RASTER
0
POLYLINE
8
RASTER
66
1
70
1
0
VERTEX
8
RASTER
10
166.825
20
67.175
30
0
0
VERTEX
8
RASTER
10
187.175
20
67.175
30
0
0
VERTEX
8
RASTER
10
187.175
20
66.825
30
0
0
VERTEX
8
RASTER
10
166.825
20
66.825
30
0
0
SEQEND
8
RASTER
0
POLYLINE
8
RASTER
66
1
70
1
0
VERTEX
8
RASTER
10
166.825
20
47.175
30
0
0
VERTEX
8
RASTER
10
187.175
20
47.175
30
0
0
VERTEX
8
RASTER
10
187.175
20
46.825
30
0
0
VERTEX
8
RASTER
10
166.825
20
46.825
30
0
0
SEQEND
8
RASTER
0
POLYLINE
8
RASTER
66
1
70
1
0
VERTEX
8
RASTER
10
166.825
20
27.175
30
0
0
VERTEX
8
RASTER
10
187.175
20
27.175
30
0
0
VERTEX
8
RASTER
10
187.175
20
26.825
30
0
0
VERTEX
8
RASTER
10
166.825
20
26.825
30
0
0
SEQEND
8
RASTER
0
POLYLINE
8
RASTER
66
1
70
1
0
VERTEX
8
RASTER
10
166.825
20
7.175
30
0
0
VERTEX
8
RASTER
10
187.175
20
7.175
30
0
0
VERTEX
8
RASTER
10
187.175
20
6.825
30
0
0
VERTEX
8
RASTER
10
166.825
20
6.825
30
0
0
SEQEND
8
RASTER
0
POLYLINE
8
RASTER
66
1
70
1
0
VERTEX
8
RASTER
10
186.825
20
307.175
30
0
0
VERTEX
8
RASTER
10
207.175
20
307.175
30
0
0
VERTEX
8
RASTER
10
207.175
20
306.825
30
0
0
VERTEX
8
RASTER
10
186.825
20
306.825
30
0
0
SEQEND
8
RASTER
0
POLYLINE
8
RASTER
66
1
70
1
0
VERTEX
8
RASTER
10
186.825
20
287.175
30
0
0
VERTEX
8
RASTER
10
207.175
20
287.175
30
0
0
VERTEX
8
RASTER
10
207.175
20
286.825
30
0
0
VERTEX
8
RASTER
10
186.825
20
286.825
30
0
0
SEQEND
8
RASTER
0
POLYLINE
8
RASTER
66
1
70
1
0
VERTEX
8
RASTER
10
186.825
20
267.175
30
0
0
VERTEX
8
RASTER
10
207.175
20
267.175
30
0
0
VERTEX
8
RASTER
10
207.175
20
266.825
30
0
0
VERTEX
8
RASTER
10
186.825
20
266.825
30
0
0
SEQEND
8
RASTER
0
POLYLINE
8
RASTER
66
1
70
1
0
VERTEX
8
RASTER
10
186.825
20
247.175
30
0
0
VERTEX
8
RASTER
10
207.175
20
247.175
30
0
0
VERTEX
8
RASTER
10
207.175
20
246.825
30
0
0
VERTEX
8
RASTER
10
186.825
20
246.825
30
0
0
SEQEND
8
RASTER
0
POLYLINE
8
RASTER
66
1
70
1
0
VERTEX
8
RASTER
10
186.825
20
227.175
30
0
0
VERTEX
8
RASTER
10
207.175
20
227.175
30
0
0
VERTEX
8
RASTER
10
207.175
20
226.825
30
0
0
VERTEX
8
RASTER
10
186.825
20
226.825
30
0
0
SEQEND
8
RASTER
0
POLYLINE
8
RASTER
66
1
70
1
0
VERTEX
8
RASTER
10
186.825
20
207.175
30
0
0
VERTEX
8
RASTER
10
207.175
20
207.175
30
0
0
VERTEX
8
RASTER
10
207.175
20
206.825
30
0
0
VERTEX
8
RASTER
10
186.825
20
206.825
30
0
0
SEQEND
8
RASTER
0
POLYLINE
8
RASTER
66
1
70
1
0
VERTEX
8
RASTER
10
186.825
20
187.175
30
0
0
VERTEX
8
RASTER
10
207.175
20
187.175
30
0
0
VERTEX
8
RASTER
10
207.175
20
186.825
30
0
0
VERTEX
8
RASTER
10
186.825
20
186.825
30
0
0
SEQEND
8
RASTER
0
POLYLINE
8
RASTER
66
1
70
1
0
VERTEX
8
RASTER
10
186.825
20
167.175
30
0
0
VERTEX
8
RASTER
10
207.175
20
167.175
30
0
0
VERTEX
8
RASTER
10
207.175
20
166.825
30
0
0
VERTEX
8
RASTER
10
186.825
20
166.825
30
0
0
SEQEND
8
RASTER
0
POLYLINE
8
RASTER
66
1
70
1
0
VERTEX
8
RASTER
10
186.825
20
147.175
30
0
0
VERTEX
8
RASTER
10
207.175
20
147.175
30
0
0
VERTEX
8
RASTER
10
207.175
20
146.825
30
0
0
VERTEX
8
RASTER
10
186.825
20
146.825
30
0
0
SEQEND
8
RASTER
0
POLYLINE
8
RASTER
66
1
70
1
0
VERTEX
8
RASTER
10
186.825
20
127.175
30
0
0
VERTEX
8
RASTER
10
207.175
20
127.175
30
0
0
VERTEX
8
RASTER
10
207.175
20
126.825
30
0
0
VERTEX
8
RASTER
10
186.825
20
126.825
30
0
0
SEQEND
8
RASTER
0
POLYLINE
8
RASTER
66
1
70
1
0
VERTEX
8
RASTER
10
186.825
20
107.175
30
0
0
VERTEX
8
RASTER
10
207.175
20
107.175
30
0
0
VERTEX
8
RASTER
10
207.175
20
106.825
30
0
0
VERTEX
8
RASTER
10
186.825
20
106.825
30
0
0
SEQEND
8
RASTER
0
POLYLINE
8
RASTER
66
1
70
1
0
VERTEX
8
RASTER
10
186.825
20
87.175
30
0
0
VERTEX
8
RASTER
10
207.175
20
87.175
30
0
0
VERTEX
8
RASTER
10
207.175
20
86.825
30
0
0
VERTEX
8
RASTER
10
186.825
20
86.825
30
0
0
SEQEND
8
RASTER
0
POLYLINE
8
RASTER
66
1
70
1
0
VERTEX
8
RASTER
10
186.825
20
67.175
30
0
0
VERTEX
8
RASTER
10
207.175
20
67.175
30
0
0
VERTEX
8
RASTER
10
207.175
20
66.825
30
0
0
VERTEX
8
RASTER
10
186.825
20
66.825
30
0
0
SEQEND
8
RASTER
0
POLYLINE
8
RASTER
66
1
70
1
0
VERTEX
8
RASTER
10
186.825
20
47.175
30
0
0
VERTEX
8
RASTER
10
207.175
20
47.175
30
0
0
VERTEX
8
RASTER
10
207.175
20
46.825
30
0
0
VERTEX
8
RASTER
10
186.825
20
46.825
30
0
0
SEQEND
8
RASTER
0
POLYLINE
8
RASTER
66
1
70
1
0
VERTEX
8
RASTER
10
186.825
20
27.175
30
0
0
VERTEX
8
RASTER
10
207.175
20
27.175
30
0
0
VERTEX
8
RASTER
10
207.175
20
26.825
30
0
0
VERTEX
8
RASTER
10
186.825
20
26.825
30
0
0
SEQEND
8
RASTER
0
POLYLINE
8
RASTER
66
1
70
1
0
VERTEX
8
RASTER
10
186.825
20
7.175
30
0
0
VERTEX
8
RASTER
10
207.175
20
7.175
30
0
0
VERTEX
8
RASTER
10
207.175
20
6.825
30
0
0
VERTEX
8
RASTER
10
186.825
20
6.825
30
0
0
SEQEND
8
RASTER
0
POLYLINE
8
RASTER
66
1
70
1
0
VERTEX
8
RASTER
10
206.825
20
287.175
30
0
0
VERTEX
8
RASTER
10
227.175
20
287.175
30
0
0
VERTEX
8
RASTER
10
227.175
20
286.825
30
0
0
VERTEX
8
RASTER
10
206.825
20
286.825
30
0
0
SEQEND
8
RASTER
0
POLYLINE
8
RASTER
66
1
70
1
0
VERTEX
8
RASTER
10
206.825
20
267.175
30
0
0
VERTEX
8
RASTER
10
227.175
20
267.175
30
0
0
VERTEX
8
RASTER
10
227.175
20
266.825
30
0
0
VERTEX
8
RASTER
10
206.825
20
266.825
30
0
0
SEQEND
8
RASTER
0
POLYLINE
8
RASTER
66
1
70
1
0
VERTEX
8
RASTER
10
206.825
20
247.175
30
0
0
VERTEX
8
RASTER
10
227.175
20
247.175
30
0
0
VERTEX
8
RASTER
10
227.175
20
246.825
30
0
0
VERTEX
8
RASTER
10
206.825
20
246.825
30
0
0
SEQEND
8
RASTER
0
POLYLINE
8
RASTER
66
1
70
1
0
VERTEX
8
RASTER
10
206.825
20
227.175
30
0
0
VERTEX
8
RASTER
10
227.175
20
227.175
30
0
0
VERTEX
8
RASTER
10
227.175
20
226.825
30
0
0
VERTEX
8
RASTER
10
206.825
20
226.825
30
0
0
SEQEND
8
RASTER
0
POLYLINE
8
RASTER
66
1
70
1
0
VERTEX
8
RASTER
10
206.825
20
207.175
30
0
0
VERTEX
8
RASTER
10
227.175
20
207.175
30
0
0
VERTEX
8
RASTER
10
227.175
20
206.825
30
0
0
VERTEX
8
RASTER
10
206.825
20
206.825
30
0
0
SEQEND
8
RASTER
0
POLYLINE
8
RASTER
66
1
70
1
0
VERTEX
8
RASTER
10
206.825
20
187.175
30
0
0
VERTEX
8
RASTER
10
227.175
20
187.175
30
0
0
VERTEX
8
RASTER
10
227.175
20
186.825
30
0
0
VERTEX
8
RASTER
10
206.825
20
186.825
30
0
0
SEQEND
8
RASTER
0
POLYLINE
8
RASTER
66
1
70
1
0
VERTEX
8
RASTER
10
206.825
20
167.175
30
0
0
VERTEX
8
RASTER
10
227.175
20
167.175
30
0
0
VERTEX
8
RASTER
10
227.175
20
166.825
30
0
0
VERTEX
8
RASTER
10
206.825
20
166.825
30
0
0
SEQEND
8
RASTER
0
POLYLINE
8
RASTER
66
1
70
1
0
VERTEX
8
RASTER
10
206.825
20
147.175
30
0
0
VERTEX
8
RASTER
10
227.175
20
147.175
30
0
0
VERTEX
8
RASTER
10
227.175
20
146.825
30
0
0
VERTEX
8
RASTER
10
206.825
20
146.825
30
0
0
SEQEND
8
RASTER
0
POLYLINE
8
RASTER
66
1
70
1
0
VERTEX
8
RASTER
10
206.825
20
127.175
30
0
0
VERTEX
8
RASTER
10
227.175
20
127.175
30
0
0
VERTEX
8
RASTER
10
227.175
20
126.825
30
0
0
VERTEX
8
RASTER
10
206.825
20
126.825
30
0
0
SEQEND
8
RASTER
0
POLYLINE
8
RASTER
66
1
70
1
0
VERTEX
8
RASTER
10
206.825
20
107.175
30
0
0
VERTEX
8
RASTER
10
227.175
20
107.175
30
0
0
VERTEX
8
RASTER
10
227.175
20
106.825
30
0
0
VERTEX
8
RASTER
10
206.825
20
106.825
30
0
0
SEQEND
8
RASTER
0
POLYLINE
8
RASTER
66
1
70
1
0
VERTEX
8
RASTER
10
206.825
20
87.175
30
0
0
VERTEX
8
RASTER
10
227.175
20
87.175
30
0
0
VERTEX
8
RASTER
10
227.175
20
86.825
30
0
0
VERTEX
8
RASTER
10
206.825
20
86.825
30
0
0
SEQEND
8
RASTER
0
POLYLINE
8
RASTER
66
1
70
1
0
VERTEX
8
RASTER
10
206.825
20
67.175
30
0
0
VERTEX
8
RASTER
10
227.175
20
67.175
30
0
0
VERTEX
8
RASTER
10
227.175
20
66.825
30
0
0
VERTEX
8
RASTER
10
206.825
20
66.825
30
0
0
SEQEND
8
RASTER
0
POLYLINE
8
RASTER
66
1
70
1
0
VERTEX
8
RASTER
10
206.825
20
47.175
30
0
0
VERTEX
8
RASTER
10
227.175
20
47.175
30
0
0
VERTEX
8
RASTER
10
227.175
20
46.825
30
0
0
VERTEX
8
RASTER
10
206.825
20
46.825
30
0
0
SEQEND
8
RASTER
0
POLYLINE
8
RASTER
66
1
70
1
0
VERTEX
8
RASTER
10
206.825
20
27.175
30
0
0
VERTEX
8
RASTER
10
227.175
20
27.175
30
0
0
VERTEX
8
RASTER
10
227.175
20
26.825
30
0
0
VERTEX
8
RASTER
10
206.825
20
26.825
30
0
0
SEQEND
8
RASTER
0
POLYLINE
8
RASTER
66
1
70
1
0
VERTEX
8
RASTER
10
226.825
20
287.175
30
0
0
VERTEX
8
RASTER
10
247.175
20
287.175
30
0
0
VERTEX
8
RASTER
10
247.175
20
286.825
30
0
0
VERTEX
8
RASTER
10
226.825
20
286.825
30
0
0
SEQEND
8
RASTER
0
POLYLINE
8
RASTER
66
1
70
1
0
VERTEX
8
RASTER
10
226.825
20
267.175
30
0
0
VERTEX
8
RASTER
10
247.175
20
267.175
30
0
0
VERTEX
8
RASTER
10
247.175
20
266.825
30
0
0
VERTEX
8
RASTER
10
226.825
20
266.825
30
0
0
SEQEND
8
RASTER
0
POLYLINE
8
RASTER
66
1
70
1
0
VERTEX
8
RASTER
10
226.825
20
247.175
30
0
0
VERTEX
8
RASTER
10
247.175
20
247.175
30
0
0
VERTEX
8
RASTER
10
247.175
20
246.825
30
0
0
VERTEX
8
RASTER
10
226.825
20
246.825
30
0
0
SEQEND
8
RASTER
0
POLYLINE
8
RASTER
66
1
70
1
0
VERTEX
8
RASTER
10
226.825
20
227.175
30
0
0
VERTEX
8
RASTER
10
247.175
20
227.175
30
0
0
VERTEX
8
RASTER
10
247.175
20
226.825
30
0
0
VERTEX
8
RASTER
10
226.825
20
226.825
30
0
0
SEQEND
8
RASTER
0
POLYLINE
8
RASTER
66
1
70
1
0
VERTEX
8
RASTER
10
226.825
20
207.175
30
0
0
VERTEX
8
RASTER
10
247.175
20
207.175
30
0
0
VERTEX
8
RASTER
10
247.175
20
206.825
30
0
0
VERTEX
8
RASTER
10
226.825
20
206.825
30
0
0
SEQEND
8
RASTER
0
POLYLINE
8
RASTER
66
1
70
1
0
VERTEX
8
RASTER
10
226.825
20
187.175
30
0
0
VERTEX
8
RASTER
10
247.175
20
187.175
30
0
0
VERTEX
8
RASTER
10
247.175
20
186.825
30
0
0
VERTEX
8
RASTER
10
226.825
20
186.825
30
0
0
SEQEND
8
RASTER
0
POLYLINE
8
RASTER
66
1
70
1
0
VERTEX
8
RASTER
10
226.825
20
167.175
30
0
0
VERTEX
8
RASTER
10
247.175
20
167.175
30
0
0
VERTEX
8
RASTER
10
247.175
20
166.825
30
0
0
VERTEX
8
RASTER
10
226.825
20
166.825
30
0
0
SEQEND
8
RASTER
0
POLYLINE
8
RASTER
66
1
70
1
0
VERTEX
8
RASTER
10
226.825
20
147.175
30
0
0
VERTEX
8
RASTER
10
247.175
20
147.175
30
0
0
VERTEX
8
RASTER
10
247.175
20
146.825
30
0
0
VERTEX
8
RASTER
10
226.825
20
146.825
30
0
0
SEQEND
8
RASTER
0
POLYLINE
8
RASTER
66
1
70
1
0
VERTEX
8
RASTER
10
226.825
20
127.175
30
0
0
VERTEX
8
RASTER
10
247.175
20
127.175
30
0
0
VERTEX
8
RASTER
10
247.175
20
126.825
30
0
0
VERTEX
8
RASTER
10
226.825
20
126.825
30
0
0
SEQEND
8
RASTER
0
POLYLINE
8
RASTER
66
1
70
1
0
VERTEX
8
RASTER
10
226.825
20
107.175
30
0
0
VERTEX
8
RASTER
10
247.175
20
107.175
30
0
0
VERTEX
8
RASTER
10
247.175
20
106.825
30
0
0
VERTEX
8
RASTER
10
226.825
20
106.825
30
0
0
SEQEND
8
RASTER
0
POLYLINE
8
RASTER
66
1
70
1
0
VERTEX
8
RASTER
10
226.825
20
87.175
30
0
0
VERTEX
8
RASTER
10
247.175
20
87.175
30
0
0
VERTEX
8
RASTER
10
247.175
20
86.825
30
0
0
VERTEX
8
RASTER
10
226.825
20
86.825
30
0
0
SEQEND
8
RASTER
0
POLYLINE
8
RASTER
66
1
70
1
0
VERTEX
8
RASTER
10
226.825
20
67.175
30
0
0
VERTEX
8
RASTER
10
247.175
20
67.175
30
0
0
VERTEX
8
RASTER
10
247.175
20
66.825
30
0
0
VERTEX
8
RASTER
10
226.825
20
66.825
30
0
0
SEQEND
8
RASTER
0
POLYLINE
8
RASTER
66
1
70
1
0
VERTEX
8
RASTER
10
226.825
20
47.175
30
0
0
VERTEX
8
RASTER
10
247.175
20
47.175
30
0
0
VERTEX
8
RASTER
10
247.175
20
46.825
30
0
0
VERTEX
8
RASTER
10
226.825
20
46.825
30
0
0
SEQEND
8
RASTER
0
POLYLINE
8
RASTER
66
1
70
1
0
VERTEX
8
RASTER
10
226.825
20
27.175
30
0
0
VERTEX
8
RASTER
10
247.175
20
27.175
30
0
0
VERTEX
8
RASTER
10
247.175
20
26.825
30
0
0
VERTEX
8
RASTER
10
226.825
20
26.825
30
0
0
SEQEND
8
RASTER
0
POLYLINE
8
RASTER
66
1
70
1
0
VERTEX
8
RASTER
10
246.825
20
267.175
30
0
0
VERTEX
8
RASTER
10
267.175
20
267.175
30
0
0
VERTEX
8
RASTER
10
267.175
20
266.825
30
0
0
VERTEX
8
RASTER
10
246.825
20
266.825
30
0
0
SEQEND
8
RASTER
0
POLYLINE
8
RASTER
66
1
70
1
0
VERTEX
8
RASTER
10
246.825
20
247.175
30
0
0
VERTEX
8
RASTER
10
267.175
20
247.175
30
0
0
VERTEX
8
RASTER
10
267.175
20
246.825
30
0
0
VERTEX
8
RASTER
10
246.825
20
246.825
30
0
0
SEQEND
8
RASTER
0
POLYLINE
8
RASTER
66
1
70
1
0
VERTEX
8
RASTER
10
246.825
20
227.175
30
0
0
VERTEX
8
RASTER
10
267.175
20
227.175
30
0
0
VERTEX
8
RASTER
10
267.175
20
226.825
30
0
0
VERTEX
8
RASTER
10
246.825
20
226.825
30
0
0
SEQEND
8
RASTER
0
POLYLINE
8
RASTER
66
1
70
1
0
VERTEX
8
RASTER
10
246.825
20
207.175
30
0
0
VERTEX
8
RASTER
10
267.175
20
207.175
30
0
0
VERTEX
8
RASTER
10
267.175
20
206.825
30
0
0
VERTEX
8
RASTER
10
246.825
20
206.825
30
0
0
SEQEND
8
RASTER
0
POLYLINE
8
RASTER
66
1
70
1
0
VERTEX
8
RASTER
10
246.825
20
187.175
30
0
0
VERTEX
8
RASTER
10
267.175
20
187.175
30
0
0
VERTEX
8
RASTER
10
267.175
20
186.825
30
0
0
VERTEX
8
RASTER
10
246.825
20
186.825
30
0
0
SEQEND
8
RASTER
0
POLYLINE
8
RASTER
66
1
70
1
0
VERTEX
8
RASTER
10
246.825
20
167.175
30
0
0
VERTEX
8
RASTER
10
267.175
20
167.175
30
0
0
VERTEX
8
RASTER
10
267.175
20
166.825
30
0
0
VERTEX
8
RASTER
10
246.825
20
166.825
30
0
0
SEQEND
8
RASTER
0
POLYLINE
8
RASTER
66
1
70
1
0
VERTEX
8
RASTER
10
246.825
20
147.175
30
0
0
VERTEX
8
RASTER
10
267.175
20
147.175
30
0
0
VERTEX
8
RASTER
10
267.175
20
146.825
30
0
0
VERTEX
8
RASTER
10
246.825
20
146.825
30
0
0
SEQEND
8
RASTER
0
POLYLINE
8
RASTER
66
1
70
1
0
VERTEX
8
RASTER
10
246.825
20
127.175
30
0
0
VERTEX
8
RASTER
10
267.175
20
127.175
30
0
0
VERTEX
8
RASTER
10
267.175
20
126.825
30
0
0
VERTEX
8
RASTER
10
246.825
20
126.825
30
0
0
SEQEND
8
RASTER
0
POLYLINE
8
RASTER
66
1
70
1
0
VERTEX
8
RASTER
10
246.825
20
107.175
30
0
0
VERTEX
8
RASTER
10
267.175
20
107.175
30
0
0
VERTEX
8
RASTER
10
267.175
20
106.825
30
0
0
VERTEX
8
RASTER
10
246.825
20
106.825
30
0
0
SEQEND
8
RASTER
0
POLYLINE
8
RASTER
66
1
70
1
0
VERTEX
8
RASTER
10
246.825
20
87.175
30
0
0
VERTEX
8
RASTER
10
267.175
20
87.175
30
0
0
VERTEX
8
RASTER
10
267.175
20
86.825
30
0
0
VERTEX
8
RASTER
10
246.825
20
86.825
30
0
0
SEQEND
8
RASTER
0
POLYLINE
8
RASTER
66
1
70
1
0
VERTEX
8
RASTER
10
246.825
20
67.175
30
0
0
VERTEX
8
RASTER
10
267.175
20
67.175
30
0
0
VERTEX
8
RASTER
10
267.175
20
66.825
30
0
0
VERTEX
8
RASTER
10
246.825
20
66.825
30
0
0
SEQEND
8
RASTER
0
POLYLINE
8
RASTER
66
1
70
1
0
VERTEX
8
RASTER
10
246.825
20
47.175
30
0
0
VERTEX
8
RASTER
10
267.175
20
47.175
30
0
0
VERTEX
8
RASTER
10
267.175
20
46.825
30
0
0
VERTEX
8
RASTER
10
246.825
20
46.825
30
0
0
SEQEND
8
RASTER
0
POLYLINE
8
RASTER
66
1
70
1
0
VERTEX
8
RASTER
10
266.825
20
247.175
30
0
0
VERTEX
8
RASTER
10
287.175
20
247.175
30
0
0
VERTEX
8
RASTER
10
287.175
20
246.825
30
0
0
VERTEX
8
RASTER
10
266.825
20
246.825
30
0
0
SEQEND
8
RASTER
0
POLYLINE
8
RASTER
66
1
70
1
0
VERTEX
8
RASTER
10
266.825
20
227.175
30
0
0
VERTEX
8
RASTER
10
287.175
20
227.175
30
0
0
VERTEX
8
RASTER
10
287.175
20
226.825
30
0
0
VERTEX
8
RASTER
10
266.825
20
226.825
30
0
0
SEQEND
8
RASTER
0
POLYLINE
8
RASTER
66
1
70
1
0
VERTEX
8
RASTER
10
266.825
20
207.175
30
0
0
VERTEX
8
RASTER
10
287.175
20
207.175
30
0
0
VERTEX
8
RASTER
10
287.175
20
206.825
30
0
0
VERTEX
8
RASTER
10
266.825
20
206.825
30
0
0
SEQEND
8
RASTER
0
POLYLINE
8
RASTER
66
1
70
1
0
VERTEX
8
RASTER
10
266.825
20
187.175
30
0
0
VERTEX
8
RASTER
10
287.175
20
187.175
30
0
0
VERTEX
8
RASTER
10
287.175
20
186.825
30
0
0
VERTEX
8
RASTER
10
266.825
20
186.825
30
0
0
SEQEND
8
RASTER
0
POLYLINE
8
RASTER
66
1
70
1
0
VERTEX
8
RASTER
10
266.825
20
167.175
30
0
0
VERTEX
8
RASTER
10
287.175
20
167.175
30
0
0
VERTEX
8
RASTER
10
287.175
20
166.825
30
0
0
VERTEX
8
RASTER
10
266.825
20
166.825
30
0
0
SEQEND
8
RASTER
0
POLYLINE
8
RASTER
66
1
70
1
0
VERTEX
8
RASTER
10
266.825
20
147.175
30
0
0
VERTEX
8
RASTER
10
287.175
20
147.175
30
0
0
VERTEX
8
RASTER
10
287.175
20
146.825
30
0
0
VERTEX
8
RASTER
10
266.825
20
146.825
30
0
0
SEQEND
8
RASTER
0
POLYLINE
8
RASTER
66
1
70
1
0
VERTEX
8
RASTER
10
266.825
20
127.175
30
0
0
VERTEX
8
RASTER
10
287.175
20
127.175
30
0
0
VERTEX
8
RASTER
10
287.175
20
126.825
30
0
0
VERTEX
8
RASTER
10
266.825
20
126.825
30
0
0
SEQEND
8
RASTER
0
POLYLINE
8
RASTER
66
1
70
1
0
VERTEX
8
RASTER
10
266.825
20
107.175
30
0
0
VERTEX
8
RASTER
10
287.175
20
107.175
30
0
0
VERTEX
8
RASTER
10
287.175
20
106.825
30
0
0
VERTEX
8
RASTER
10
266.825
20
106.825
30
0
0
SEQEND
8
RASTER
0
POLYLINE
8
RASTER
66
1
70
1
0
VERTEX
8
RASTER
10
266.825
20
87.175
30
0
0
VERTEX
8
RASTER
10
287.175
20
87.175
30
0
0
VERTEX
8
RASTER
10
287.175
20
86.825
30
0
0
VERTEX
8
RASTER
10
266.825
20
86.825
30
0
0
SEQEND
8
RASTER
0
POLYLINE
8
RASTER
66
1
70
1
0
VERTEX
8
RASTER
10
266.825
20
67.175
30
0
0
VERTEX
8
RASTER
10
287.175
20
67.175
30
0
0
VERTEX
8
RASTER
10
287.175
20
66.825
30
0
0
VERTEX
8
RASTER
10
266.825
20
66.825
30
0
0
SEQEND
8
RASTER
0
POLYLINE
8
RASTER
66
1
70
1
0
VERTEX
8
RASTER
10
286.825
20
207.175
30
0
0
VERTEX
8
RASTER
10
307.175
20
207.175
30
0
0
VERTEX
8
RASTER
10
307.175
20
206.825
30
0
0
VERTEX
8
RASTER
10
286.825
20
206.825
30
0
0
SEQEND
8
RASTER
0
POLYLINE
8
RASTER
66
1
70
1
0
VERTEX
8
RASTER
10
286.825
20
187.175
30
0
0
VERTEX
8
RASTER
10
307.175
20
187.175
30
0
0
VERTEX
8
RASTER
10
307.175
20
186.825
30
0
0
VERTEX
8
RASTER
10
286.825
20
186.825
30
0
0
SEQEND
8
RASTER
0
POLYLINE
8
RASTER
66
1
70
1
0
VERTEX
8
RASTER
10
286.825
20
167.175
30
0
0
VERTEX
8
RASTER
10
307.175
20
167.175
30
0
0
VERTEX
8
RASTER
10
307.175
20
166.825
30
0
0
VERTEX
8
RASTER
10
286.825
20
166.825
30
0
0
SEQEND
8
RASTER
0
POLYLINE
8
RASTER
66
1
70
1
0
VERTEX
8
RASTER
10
286.825
20
147.175
30
0
0
VERTEX
8
RASTER
10
307.175
20
147.175
30
0
0
VERTEX
8
RASTER
10
307.175
20
146.825
30
0
0
VERTEX
8
RASTER
10
286.825
20
146.825
30
0
0
SEQEND
8
RASTER
0
POLYLINE
8
RASTER
66
1
70
1
0
VERTEX
8
RASTER
10
286.825
20
127.175
30
0
0
VERTEX
8
RASTER
10
307.175
20
127.175
30
0
0
VERTEX
8
RASTER
10
307.175
20
126.825
30
0
0
VERTEX
8
RASTER
10
286.825
20
126.825
30
0
0
SEQEND
8
RASTER
0
POLYLINE
8
RASTER
66
1
70
1
0
VERTEX
8
RASTER
10
286.825
20
107.175
30
0
0
VERTEX
8
RASTER
10
307.175
20
107.175
30
0
0
VERTEX
8
RASTER
10
307.175
20
106.825
30
0
0
VERTEX
8
RASTER
10
286.825
20
106.825
30
0
0
SEQEND
8
RASTER
0
POLYLINE
8
RASTER
66
1
70
1
0
VERTEX
8
RASTER
10
6.825
20
206.825
30
0
0
VERTEX
8
RASTER
10
7.175
20
206.825
30
0
0
VERTEX
8
RASTER
10
7.175
20
187.175
30
0
0
VERTEX
8
RASTER
10
6.825
20
187.175
30
0
0
SEQEND
8
RASTER
0
POLYLINE
8
RASTER
66
1
70
1
0
VERTEX
8
RASTER
10
26.825
20
206.825
30
0
0
VERTEX
8
RASTER
10
27.175
20
206.825
30
0
0
VERTEX
8
RASTER
10
27.175
20
187.175
30
0
0
VERTEX
8
RASTER
10
26.825
20
187.175
30
0
0
SEQEND
8
RASTER
0
POLYLINE
8
RASTER
66
1
70
1
0
VERTEX
8
RASTER
10
6.825
20
186.825
30
0
0
VERTEX
8
RASTER
10
7.175
20
186.825
30
0
0
VERTEX
8
RASTER
10
7.175
20
167.175
30
0
0
VERTEX
8
RASTER
10
6.825
20
167.175
30
0
0
SEQEND
8
RASTER
0
POLYLINE
8
RASTER
66
1
70
1
0
VERTEX
8
RASTER
10
26.825
20
186.825
30
0
0
VERTEX
8
RASTER
10
27.175
20
186.825
30
0
0
VERTEX
8
RASTER
10
27.175
20
167.175
30
0
0
VERTEX
8
RASTER
10
26.825
20
167.175
30
0
0
SEQEND
8
RASTER
0
POLYLINE
8
RASTER
66
1
70
1
0
VERTEX
8
RASTER
10
6.825
20
166.825
30
0
0
VERTEX
8
RASTER
10
7.175
20
166.825
30
0
0
VERTEX
8
RASTER
10
7.175
20
147.175
30
0
0
VERTEX
8
RASTER
10
6.825
20
147.175
30
0
0
SEQEND
8
RASTER
0
POLYLINE
8
RASTER
66
1
70
1
0
VERTEX
8
RASTER
10
26.825
20
166.825
30
0
0
VERTEX
8
RASTER
10
27.175
20
166.825
30
0
0
VERTEX
8
RASTER
10
27.175
20
147.175
30
0
0
VERTEX
8
RASTER
10
26.825
20
147.175
30
0
0
SEQEND
8
RASTER
0
POLYLINE
8
RASTER
66
1
70
1
0
VERTEX
8
RASTER
10
6.825
20
146.825
30
0
0
VERTEX
8
RASTER
10
7.175
20
146.825
30
0
0
VERTEX
8
RASTER
10
7.175
20
127.175
30
0
0
VERTEX
8
RASTER
10
6.825
20
127.175
30
0
0
SEQEND
8
RASTER
0
POLYLINE
8
RASTER
66
1
70
1
0
VERTEX
8
RASTER
10
26.825
20
146.825
30
0
0
VERTEX
8
RASTER
10
27.175
20
146.825
30
0
0
VERTEX
8
RASTER
10
27.175
20
127.175
30
0
0
VERTEX
8
RASTER
10
26.825
20
127.175
30
0
0
SEQEND
8
RASTER
0
POLYLINE
8
RASTER
66
1
70
1
0
VERTEX
8
RASTER
10
6.825
20
126.825
30
0
0
VERTEX
8
RASTER
10
7.175
20
126.825
30
0
0
VERTEX
8
RASTER
10
7.175
20
107.175
30
0
0
VERTEX
8
RASTER
10
6.825
20
107.175
30
0
0
SEQEND
8
RASTER
0
POLYLINE
8
RASTER
66
1
70
1
0
VERTEX
8
RASTER
10
26.825
20
126.825
30
0
0
VERTEX
8
RASTER
10
27.175
20
126.825
30
0
0
VERTEX
8
RASTER
10
27.175
20
107.175
30
0
0
VERTEX
8
RASTER
10
26.825
20
107.175
30
0
0
SEQEND
8
RASTER
0
POLYLINE
8
RASTER
66
1
70
1
0
VERTEX
8
RASTER
10
26.825
20
246.825
30
0
0
VERTEX
8
RASTER
10
27.175
20
246.825
30
0
0
VERTEX
8
RASTER
10
27.175
20
227.175
30
0
0
VERTEX
8
RASTER
10
26.825
20
227.175
30
0
0
SEQEND
8
RASTER
0
POLYLINE
8
RASTER
66
1
70
1
0
VERTEX
8
RASTER
10
46.825
20
246.825
30
0
0
VERTEX
8
RASTER
10
47.175
20
246.825
30
0
0
VERTEX
8
RASTER
10
47.175
20
227.175
30
0
0
VERTEX
8
RASTER
10
46.825
20
227.175
30
0
0
SEQEND
8
RASTER
0
POLYLINE
8
RASTER
66
1
70
1
0
VERTEX
8
RASTER
10
26.825
20
226.825
30
0
0
VERTEX
8
RASTER
10
27.175
20
226.825
30
0
0
VERTEX
8
RASTER
10
27.175
20
207.175
30
0
0
VERTEX
8
RASTER
10
26.825
20
207.175
30
0
0
SEQEND
8
RASTER
0
POLYLINE
8
RASTER
66
1
70
1
0
VERTEX
8
RASTER
10
46.825
20
226.825
30
0
0
VERTEX
8
RASTER
10
47.175
20
226.825
30
0
0
VERTEX
8
RASTER
10
47.175
20
207.175
30
0
0
VERTEX
8
RASTER
10
46.825
20
207.175
30
0
0
SEQEND
8
RASTER
0
POLYLINE
8
RASTER
66
1
70
1
0
VERTEX
8
RASTER
10
46.825
20
206.825
30
0
0
VERTEX
8
RASTER
10
47.175
20
206.825
30
0
0
VERTEX
8
RASTER
10
47.175
20
187.175
30
0
0
VERTEX
8
RASTER
10
46.825
20
187.175
30
0
0
SEQEND
8
RASTER
0
POLYLINE
8
RASTER
66
1
70
1
0
VERTEX
8
RASTER
10
46.825
20
186.825
30
0
0
VERTEX
8
RASTER
10
47.175
20
186.825
30
0
0
VERTEX
8
RASTER
10
47.175
20
167.175
30
0
0
VERTEX
8
RASTER
10
46.825
20
167.175
30
0
0
SEQEND
8
RASTER
0
POLYLINE
8
RASTER
66
1
70
1
0
VERTEX
8
RASTER
10
46.825
20
166.825
30
0
0
VERTEX
8
RASTER
10
47.175
20
166.825
30
0
0
VERTEX
8
RASTER
10
47.175
20
147.175
30
0
0
VERTEX
8
RASTER
10
46.825
20
147.175
30
0
0
SEQEND
8
RASTER
0
POLYLINE
8
RASTER
66
1
70
1
0
VERTEX
8
RASTER
10
46.825
20
146.825
30
0
0
VERTEX
8
RASTER
10
47.175
20
146.825
30
0
0
VERTEX
8
RASTER
10
47.175
20
127.175
30
0
0
VERTEX
8
RASTER
10
46.825
20
127.175
30
0
0
SEQEND
8
RASTER
0
POLYLINE
8
RASTER
66
1
70
1
0
VERTEX
8
RASTER
10
46.825
20
126.825
30
0
0
VERTEX
8
RASTER
10
47.175
20
126.825
30
0
0
VERTEX
8
RASTER
10
47.175
20
107.175
30
0
0
VERTEX
8
RASTER
10
46.825
20
107.175
30
0
0
SEQEND
8
RASTER
0
POLYLINE
8
RASTER
66
1
70
1
0
VERTEX
8
RASTER
10
26.825
20
106.825
30
0
0
VERTEX
8
RASTER
10
27.175
20
106.825
30
0
0
VERTEX
8
RASTER
10
27.175
20
87.175
30
0
0
VERTEX
8
RASTER
10
26.825
20
87.175
30
0
0
SEQEND
8
RASTER
0
POLYLINE
8
RASTER
66
1
70
1
0
VERTEX
8
RASTER
10
46.825
20
106.825
30
0
0
VERTEX
8
RASTER
10
47.175
20
106.825
30
0
0
VERTEX
8
RASTER
10
47.175
20
87.175
30
0
0
VERTEX
8
RASTER
10
46.825
20
87.175
30
0
0
SEQEND
8
RASTER
0
POLYLINE
8
RASTER
66
1
70
1
0
VERTEX
8
RASTER
10
26.825
20
86.825
30
0
0
VERTEX
8
RASTER
10
27.175
20
86.825
30
0
0
VERTEX
8
RASTER
10
27.175
20
67.175
30
0
0
VERTEX
8
RASTER
10
26.825
20
67.175
30
0
0
SEQEND
8
RASTER
0
POLYLINE
8
RASTER
66
1
70
1
0
VERTEX
8
RASTER
10
46.825
20
86.825
30
0
0
VERTEX
8
RASTER
10
47.175
20
86.825
30
0
0
VERTEX
8
RASTER
10
47.175
20
67.175
30
0
0
VERTEX
8
RASTER
10
46.825
20
67.175
30
0
0
SEQEND
8
RASTER
0
POLYLINE
8
RASTER
66
1
70
1
0
VERTEX
8
RASTER
10
46.825
20
266.825
30
0
0
VERTEX
8
RASTER
10
47.175
20
266.825
30
0
0
VERTEX
8
RASTER
10
47.175
20
247.175
30
0
0
VERTEX
8
RASTER
10
46.825
20
247.175
30
0
0
SEQEND
8
RASTER
0
POLYLINE
8
RASTER
66
1
70
1
0
VERTEX
8
RASTER
10
66.825
20
266.825
30
0
0
VERTEX
8
RASTER
10
67.175
20
266.825
30
0
0
VERTEX
8
RASTER
10
67.175
20
247.175
30
0
0
VERTEX
8
RASTER
10
66.825
20
247.175
30
0
0
SEQEND
8
RASTER
0
POLYLINE
8
RASTER
66
1
70
1
0
VERTEX
8
RASTER
10
66.825
20
246.825
30
0
0
VERTEX
8
RASTER
10
67.175
20
246.825
30
0
0
VERTEX
8
RASTER
10
67.175
20
227.175
30
0
0
VERTEX
8
RASTER
10
66.825
20
227.175
30
0
0
SEQEND
8
RASTER
0
POLYLINE
8
RASTER
66
1
70
1
0
VERTEX
8
RASTER
10
66.825
20
226.825
30
0
0
VERTEX
8
RASTER
10
67.175
20
226.825
30
0
0
VERTEX
8
RASTER
10
67.175
20
207.175
30
0
0
VERTEX
8
RASTER
10
66.825
20
207.175
30
0
0
SEQEND
8
RASTER
0
POLYLINE
8
RASTER
66
1
70
1
0
VERTEX
8
RASTER
10
66.825
20
206.825
30
0
0
VERTEX
8
RASTER
10
67.175
20
206.825
30
0
0
VERTEX
8
RASTER
10
67.175
20
187.175
30
0
0
VERTEX
8
RASTER
10
66.825
20
187.175
30
0
0
SEQEND
8
RASTER
0
POLYLINE
8
RASTER
66
1
70
1
0
VERTEX
8
RASTER
10
66.825
20
186.825
30
0
0
VERTEX
8
RASTER
10
67.175
20
186.825
30
0
0
VERTEX
8
RASTER
10
67.175
20
167.175
30
0
0
VERTEX
8
RASTER
10
66.825
20
167.175
30
0
0
SEQEND
8
RASTER
0
POLYLINE
8
RASTER
66
1
70
1
0
VERTEX
8
RASTER
10
66.825
20
166.825
30
0
0
VERTEX
8
RASTER
10
67.175
20
166.825
30
0
0
VERTEX
8
RASTER
10
67.175
20
147.175
30
0
0
VERTEX
8
RASTER
10
66.825
20
147.175
30
0
0
SEQEND
8
RASTER
0
POLYLINE
8
RASTER
66
1
70
1
0
VERTEX
8
RASTER
10
66.825
20
146.825
30
0
0
VERTEX
8
RASTER
10
67.175
20
146.825
30
0
0
VERTEX
8
RASTER
10
67.175
20
127.175
30
0
0
VERTEX
8
RASTER
10
66.825
20
127.175
30
0
0
SEQEND
8
RASTER
0
POLYLINE
8
RASTER
66
1
70
1
0
VERTEX
8
RASTER
10
66.825
20
126.825
30
0
0
VERTEX
8
RASTER
10
67.175
20
126.825
30
0
0
VERTEX
8
RASTER
10
67.175
20
107.175
30
0
0
VERTEX
8
RASTER
10
66.825
20
107.175
30
0
0
SEQEND
8
RASTER
0
POLYLINE
8
RASTER
66
1
70
1
0
VERTEX
8
RASTER
10
66.825
20
106.825
30
0
0
VERTEX
8
RASTER
10
67.175
20
106.825
30
0
0
VERTEX
8
RASTER
10
67.175
20
87.175
30
0
0
VERTEX
8
RASTER
10
66.825
20
87.175
30
0
0
SEQEND
8
RASTER
0
POLYLINE
8
RASTER
66
1
70
1
0
VERTEX
8
RASTER
10
66.825
20
86.825
30
0
0
VERTEX
8
RASTER
10
67.175
20
86.825
30
0
0
VERTEX
8
RASTER
10
67.175
20
67.175
30
0
0
VERTEX
8
RASTER
10
66.825
20
67.175
30
0
0
SEQEND
8
RASTER
0
POLYLINE
8
RASTER
66
1
70
1
0
VERTEX
8
RASTER
10
46.825
20
66.825
30
0
0
VERTEX
8
RASTER
10
47.175
20
66.825
30
0
0
VERTEX
8
RASTER
10
47.175
20
47.175
30
0
0
VERTEX
8
RASTER
10
46.825
20
47.175
30
0
0
SEQEND
8
RASTER
0
POLYLINE
8
RASTER
66
1
70
1
0
VERTEX
8
RASTER
10
66.825
20
66.825
30
0
0
VERTEX
8
RASTER
10
67.175
20
66.825
30
0
0
VERTEX
8
RASTER
10
67.175
20
47.175
30
0
0
VERTEX
8
RASTER
10
66.825
20
47.175
30
0
0
SEQEND
8
RASTER
0
POLYLINE
8
RASTER
66
1
70
1
0
VERTEX
8
RASTER
10
66.825
20
286.825
30
0
0
VERTEX
8
RASTER
10
67.175
20
286.825
30
0
0
VERTEX
8
RASTER
10
67.175
20
267.175
30
0
0
VERTEX
8
RASTER
10
66.825
20
267.175
30
0
0
SEQEND
8
RASTER
0
POLYLINE
8
RASTER
66
1
70
1
0
VERTEX
8
RASTER
10
86.825
20
286.825
30
0
0
VERTEX
8
RASTER
10
87.175
20
286.825
30
0
0
VERTEX
8
RASTER
10
87.175
20
267.175
30
0
0
VERTEX
8
RASTER
10
86.825
20
267.175
30
0
0
SEQEND
8
RASTER
0
POLYLINE
8
RASTER
66
1
70
1
0
VERTEX
8
RASTER
10
86.825
20
266.825
30
0
0
VERTEX
8
RASTER
10
87.175
20
266.825
30
0
0
VERTEX
8
RASTER
10
87.175
20
247.175
30
0
0
VERTEX
8
RASTER
10
86.825
20
247.175
30
0
0
SEQEND
8
RASTER
0
POLYLINE
8
RASTER
66
1
70
1
0
VERTEX
8
RASTER
10
86.825
20
246.825
30
0
0
VERTEX
8
RASTER
10
87.175
20
246.825
30
0
0
VERTEX
8
RASTER
10
87.175
20
227.175
30
0
0
VERTEX
8
RASTER
10
86.825
20
227.175
30
0
0
SEQEND
8
RASTER
0
POLYLINE
8
RASTER
66
1
70
1
0
VERTEX
8
RASTER
10
86.825
20
226.825
30
0
0
VERTEX
8
RASTER
10
87.175
20
226.825
30
0
0
VERTEX
8
RASTER
10
87.175
20
207.175
30
0
0
VERTEX
8
RASTER
10
86.825
20
207.175
30
0
0
SEQEND
8
RASTER
0
POLYLINE
8
RASTER
66
1
70
1
0
VERTEX
8
RASTER
10
86.825
20
206.825
30
0
0
VERTEX
8
RASTER
10
87.175
20
206.825
30
0
0
VERTEX
8
RASTER
10
87.175
20
187.175
30
0
0
VERTEX
8
RASTER
10
86.825
20
187.175
30
0
0
SEQEND
8
RASTER
0
POLYLINE
8
RASTER
66
1
70
1
0
VERTEX
8
RASTER
10
86.825
20
186.825
30
0
0
VERTEX
8
RASTER
10
87.175
20
186.825
30
0
0
VERTEX
8
RASTER
10
87.175
20
167.175
30
0
0
VERTEX
8
RASTER
10
86.825
20
167.175
30
0
0
SEQEND
8
RASTER
0
POLYLINE
8
RASTER
66
1
70
1
0
VERTEX
8
RASTER
10
86.825
20
166.825
30
0
0
VERTEX
8
RASTER
10
87.175
20
166.825
30
0
0
VERTEX
8
RASTER
10
87.175
20
147.175
30
0
0
VERTEX
8
RASTER
10
86.825
20
147.175
30
0
0
SEQEND
8
RASTER
0
POLYLINE
8
RASTER
66
1
70
1
0
VERTEX
8
RASTER
10
86.825
20
146.825
30
0
0
VERTEX
8
RASTER
10
87.175
20
146.825
30
0
0
VERTEX
8
RASTER
10
87.175
20
127.175
30
0
0
VERTEX
8
RASTER
10
86.825
20
127.175
30
0
0
SEQEND
8
RASTER
0
POLYLINE
8
RASTER
66
1
70
1
0
VERTEX
8
RASTER
10
86.825
20
126.825
30
0
0
VERTEX
8
RASTER
10
87.175
20
126.825
30
0
0
VERTEX
8
RASTER
10
87.175
20
107.175
30
0
0
VERTEX
8
RASTER
10
86.825
20
107.175
30
0
0
SEQEND
8
RASTER
0
POLYLINE
8
RASTER
66
1
70
1
0
VERTEX
8
RASTER
10
86.825
20
106.825
30
0
0
VERTEX
8
RASTER
10
87.175
20
106.825
30
0
0
VERTEX
8
RASTER
10
87.175
20
87.175
30
0
0
VERTEX
8
RASTER
10
86.825
20
87.175
30
0
0
SEQEND
8
RASTER
0
POLYLINE
8
RASTER
66
1
70
1
0
VERTEX
8
RASTER
10
86.825
20
86.825
30
0
0
VERTEX
8
RASTER
10
87.175
20
86.825
30
0
0
VERTEX
8
RASTER
10
87.175
20
67.175
30
0
0
VERTEX
8
RASTER
10
86.825
20
67.175
30
0
0
SEQEND
8
RASTER
0
POLYLINE
8
RASTER
66
1
70
1
0
VERTEX
8
RASTER
10
86.825
20
66.825
30
0
0
VERTEX
8
RASTER
10
87.175
20
66.825
30
0
0
VERTEX
8
RASTER
10
87.175
20
47.175
30
0
0
VERTEX
8
RASTER
10
86.825
20
47.175
30
0
0
SEQEND
8
RASTER
0
POLYLINE
8
RASTER
66
1
70
1
0
VERTEX
8
RASTER
10
66.825
20
46.825
30
0
0
VERTEX
8
RASTER
10
67.175
20
46.825
30
0
0
VERTEX
8
RASTER
10
67.175
20
27.175
30
0
0
VERTEX
8
RASTER
10
66.825
20
27.175
30
0
0
SEQEND
8
RASTER
0
POLYLINE
8
RASTER
66
1
70
1
0
VERTEX
8
RASTER
10
86.825
20
46.825
30
0
0
VERTEX
8
RASTER
10
87.175
20
46.825
30
0
0
VERTEX
8
RASTER
10
87.175
20
27.175
30
0
0
VERTEX
8
RASTER
10
86.825
20
27.175
30
0
0
SEQEND
8
RASTER
0
POLYLINE
8
RASTER
66
1
70
1
0
VERTEX
8
RASTER
10
106.825
20
286.825
30
0
0
VERTEX
8
RASTER
10
107.175
20
286.825
30
0
0
VERTEX
8
RASTER
10
107.175
20
267.175
30
0
0
VERTEX
8
RASTER
10
106.825
20
267.175
30
0
0
SEQEND
8
RASTER
0
POLYLINE
8
RASTER
66
1
70
1
0
VERTEX
8
RASTER
10
106.825
20
266.825
30
0
0
VERTEX
8
RASTER
10
107.175
20
266.825
30
0
0
VERTEX
8
RASTER
10
107.175
20
247.175
30
0
0
VERTEX
8
RASTER
10
106.825
20
247.175
30
0
0
SEQEND
8
RASTER
0
POLYLINE
8
RASTER
66
1
70
1
0
VERTEX
8
RASTER
10
106.825
20
246.825
30
0
0
VERTEX
8
RASTER
10
107.175
20
246.825
30
0
0
VERTEX
8
RASTER
10
107.175
20
227.175
30
0
0
VERTEX
8
RASTER
10
106.825
20
227.175
30
0
0
SEQEND
8
RASTER
0
POLYLINE
8
RASTER
66
1
70
1
0
VERTEX
8
RASTER
10
106.825
20
226.825
30
0
0
VERTEX
8
RASTER
10
107.175
20
226.825
30
0
0
VERTEX
8
RASTER
10
107.175
20
207.175
30
0
0
VERTEX
8
RASTER
10
106.825
20
207.175
30
0
0
SEQEND
8
RASTER
0
POLYLINE
8
RASTER
66
1
70
1
0
VERTEX
8
RASTER
10
106.825
20
206.825
30
0
0
VERTEX
8
RASTER
10
107.175
20
206.825
30
0
0
VERTEX
8
RASTER
10
107.175
20
187.175
30
0
0
VERTEX
8
RASTER
10
106.825
20
187.175
30
0
0
SEQEND
8
RASTER
0
POLYLINE
8
RASTER
66
1
70
1
0
VERTEX
8
RASTER
10
106.825
20
186.825
30
0
0
VERTEX
8
RASTER
10
107.175
20
186.825
30
0
0
VERTEX
8
RASTER
10
107.175
20
167.175
30
0
0
VERTEX
8
RASTER
10
106.825
20
167.175
30
0
0
SEQEND
8
RASTER
0
POLYLINE
8
RASTER
66
1
70
1
0
VERTEX
8
RASTER
10
106.825
20
166.825
30
0
0
VERTEX
8
RASTER
10
107.175
20
166.825
30
0
0
VERTEX
8
RASTER
10
107.175
20
147.175
30
0
0
VERTEX
8
RASTER
10
106.825
20
147.175
30
0
0
SEQEND
8
RASTER
0
POLYLINE
8
RASTER
66
1
70
1
0
VERTEX
8
RASTER
10
106.825
20
146.825
30
0
0
VERTEX
8
RASTER
10
107.175
20
146.825
30
0
0
VERTEX
8
RASTER
10
107.175
20
127.175
30
0
0
VERTEX
8
RASTER
10
106.825
20
127.175
30
0
0
SEQEND
8
RASTER
0
POLYLINE
8
RASTER
66
1
70
1
0
VERTEX
8
RASTER
10
106.825
20
126.825
30
0
0
VERTEX
8
RASTER
10
107.175
20
126.825
30
0
0
VERTEX
8
RASTER
10
107.175
20
107.175
30
0
0
VERTEX
8
RASTER
10
106.825
20
107.175
30
0
0
SEQEND
8
RASTER
0
POLYLINE
8
RASTER
66
1
70
1
0
VERTEX
8
RASTER
10
106.825
20
106.825
30
0
0
VERTEX
8
RASTER
10
107.175
20
106.825
30
0
0
VERTEX
8
RASTER
10
107.175
20
87.175
30
0
0
VERTEX
8
RASTER
10
106.825
20
87.175
30
0
0
SEQEND
8
RASTER
0
POLYLINE
8
RASTER
66
1
70
1
0
VERTEX
8
RASTER
10
106.825
20
86.825
30
0
0
VERTEX
8
RASTER
10
107.175
20
86.825
30
0
0
VERTEX
8
RASTER
10
107.175
20
67.175
30
0
0
VERTEX
8
RASTER
10
106.825
20
67.175
30
0
0
SEQEND
8
RASTER
0
POLYLINE
8
RASTER
66
1
70
1
0
VERTEX
8
RASTER
10
106.825
20
66.825
30
0
0
VERTEX
8
RASTER
10
107.175
20
66.825
30
0
0
VERTEX
8
RASTER
10
107.175
20
47.175
30
0
0
VERTEX
8
RASTER
10
106.825
20
47.175
30
0
0
SEQEND
8
RASTER
0
POLYLINE
8
RASTER
66
1
70
1
0
VERTEX
8
RASTER
10
106.825
20
46.825
30
0
0
VERTEX
8
RASTER
10
107.175
20
46.825
30
0
0
VERTEX
8
RASTER
10
107.175
20
27.175
30
0
0
VERTEX
8
RASTER
10
106.825
20
27.175
30
0
0
SEQEND
8
RASTER
0
POLYLINE
8
RASTER
66
1
70
1
0
VERTEX
8
RASTER
10
106.825
20
306.825
30
0
0
VERTEX
8
RASTER
10
107.175
20
306.825
30
0
0
VERTEX
8
RASTER
10
107.175
20
287.175
30
0
0
VERTEX
8
RASTER
10
106.825
20
287.175
30
0
0
SEQEND
8
RASTER
0
POLYLINE
8
RASTER
66
1
70
1
0
VERTEX
8
RASTER
10
126.825
20
306.825
30
0
0
VERTEX
8
RASTER
10
127.175
20
306.825
30
0
0
VERTEX
8
RASTER
10
127.175
20
287.175
30
0
0
VERTEX
8
RASTER
10
126.825
20
287.175
30
0
0
SEQEND
8
RASTER
0
POLYLINE
8
RASTER
66
1
70
1
0
VERTEX
8
RASTER
10
126.825
20
286.825
30
0
0
VERTEX
8
RASTER
10
127.175
20
286.825
30
0
0
VERTEX
8
RASTER
10
127.175
20
267.175
30
0
0
VERTEX
8
RASTER
10
126.825
20
267.175
30
0
0
SEQEND
8
RASTER
0
POLYLINE
8
RASTER
66
1
70
1
0
VERTEX
8
RASTER
10
126.825
20
266.825
30
0
0
VERTEX
8
RASTER
10
127.175
20
266.825
30
0
0
VERTEX
8
RASTER
10
127.175
20
247.175
30
0
0
VERTEX
8
RASTER
10
126.825
20
247.175
30
0
0
SEQEND
8
RASTER
0
POLYLINE
8
RASTER
66
1
70
1
0
VERTEX
8
RASTER
10
126.825
20
246.825
30
0
0
VERTEX
8
RASTER
10
127.175
20
246.825
30
0
0
VERTEX
8
RASTER
10
127.175
20
227.175
30
0
0
VERTEX
8
RASTER
10
126.825
20
227.175
30
0
0
SEQEND
8
RASTER
0
POLYLINE
8
RASTER
66
1
70
1
0
VERTEX
8
RASTER
10
126.825
20
226.825
30
0
0
VERTEX
8
RASTER
10
127.175
20
226.825
30
0
0
VERTEX
8
RASTER
10
127.175
20
207.175
30
0
0
VERTEX
8
RASTER
10
126.825
20
207.175
30
0
0
SEQEND
8
RASTER
0
POLYLINE
8
RASTER
66
1
70
1
0
VERTEX
8
RASTER
10
126.825
20
206.825
30
0
0
VERTEX
8
RASTER
10
127.175
20
206.825
30
0
0
VERTEX
8
RASTER
10
127.175
20
187.175
30
0
0
VERTEX
8
RASTER
10
126.825
20
187.175
30
0
0
SEQEND
8
RASTER
0
POLYLINE
8
RASTER
66
1
70
1
0
VERTEX
8
RASTER
10
126.825
20
186.825
30
0
0
VERTEX
8
RASTER
10
127.175
20
186.825
30
0
0
VERTEX
8
RASTER
10
127.175
20
167.175
30
0
0
VERTEX
8
RASTER
10
126.825
20
167.175
30
0
0
SEQEND
8
RASTER
0
POLYLINE
8
RASTER
66
1
70
1
0
VERTEX
8
RASTER
10
126.825
20
166.825
30
0
0
VERTEX
8
RASTER
10
127.175
20
166.825
30
0
0
VERTEX
8
RASTER
10
127.175
20
147.175
30
0
0
VERTEX
8
RASTER
10
126.825
20
147.175
30
0
0
SEQEND
8
RASTER
0
POLYLINE
8
RASTER
66
1
70
1
0
VERTEX
8
RASTER
10
126.825
20
146.825
30
0
0
VERTEX
8
RASTER
10
127.175
20
146.825
30
0
0
VERTEX
8
RASTER
10
127.175
20
127.175
30
0
0
VERTEX
8
RASTER
10
126.825
20
127.175
30
0
0
SEQEND
8
RASTER
0
POLYLINE
8
RASTER
66
1
70
1
0
VERTEX
8
RASTER
10
126.825
20
126.825
30
0
0
VERTEX
8
RASTER
10
127.175
20
126.825
30
0
0
VERTEX
8
RASTER
10
127.175
20
107.175
30
0
0
VERTEX
8
RASTER
10
126.825
20
107.175
30
0
0
SEQEND
8
RASTER
0
POLYLINE
8
RASTER
66
1
70
1
0
VERTEX
8
RASTER
10
126.825
20
106.825
30
0
0
VERTEX
8
RASTER
10
127.175
20
106.825
30
0
0
VERTEX
8
RASTER
10
127.175
20
87.175
30
0
0
VERTEX
8
RASTER
10
126.825
20
87.175
30
0
0
SEQEND
8
RASTER
0
POLYLINE
8
RASTER
66
1
70
1
0
VERTEX
8
RASTER
10
126.825
20
86.825
30
0
0
VERTEX
8
RASTER
10
127.175
20
86.825
30
0
0
VERTEX
8
RASTER
10
127.175
20
67.175
30
0
0
VERTEX
8
RASTER
10
126.825
20
67.175
30
0
0
SEQEND
8
RASTER
0
POLYLINE
8
RASTER
66
1
70
1
0
VERTEX
8
RASTER
10
126.825
20
66.825
30
0
0
VERTEX
8
RASTER
10
127.175
20
66.825
30
0
0
VERTEX
8
RASTER
10
127.175
20
47.175
30
0
0
VERTEX
8
RASTER
10
126.825
20
47.175
30
0
0
SEQEND
8
RASTER
0
POLYLINE
8
RASTER
66
1
70
1
0
VERTEX
8
RASTER
10
126.825
20
46.825
30
0
0
VERTEX
8
RASTER
10
127.175
20
46.825
30
0
0
VERTEX
8
RASTER
10
127.175
20
27.175
30
0
0
VERTEX
8
RASTER
10
126.825
20
27.175
30
0
0
SEQEND
8
RASTER
0
POLYLINE
8
RASTER
66
1
70
1
0
VERTEX
8
RASTER
10
106.825
20
26.825
30
0
0
VERTEX
8
RASTER
10
107.175
20
26.825
30
0
0
VERTEX
8
RASTER
10
107.175
20
7.175
30
0
0
VERTEX
8
RASTER
10
106.825
20
7.175
30
0
0
SEQEND
8
RASTER
0
POLYLINE
8
RASTER
66
1
70
1
0
VERTEX
8
RASTER
10
126.825
20
26.825
30
0
0
VERTEX
8
RASTER
10
127.175
20
26.825
30
0
0
VERTEX
8
RASTER
10
127.175
20
7.175
30
0
0
VERTEX
8
RASTER
10
126.825
20
7.175
30
0
0
SEQEND
8
RASTER
0
POLYLINE
8
RASTER
66
1
70
1
0
VERTEX
8
RASTER
10
146.825
20
306.825
30
0
0
VERTEX
8
RASTER
10
147.175
20
306.825
30
0
0
VERTEX
8
RASTER
10
147.175
20
287.175
30
0
0
VERTEX
8
RASTER
10
146.825
20
287.175
30
0
0
SEQEND
8
RASTER
0
POLYLINE
8
RASTER
66
1
70
1
0
VERTEX
8
RASTER
10
146.825
20
286.825
30
0
0
VERTEX
8
RASTER
10
147.175
20
286.825
30
0
0
VERTEX
8
RASTER
10
147.175
20
267.175
30
0
0
VERTEX
8
RASTER
10
146.825
20
267.175
30
0
0
SEQEND
8
RASTER
0
POLYLINE
8
RASTER
66
1
70
1
0
VERTEX
8
RASTER
10
146.825
20
266.825
30
0
0
VERTEX
8
RASTER
10
147.175
20
266.825
30
0
0
VERTEX
8
RASTER
10
147.175
20
247.175
30
0
0
VERTEX
8
RASTER
10
146.825
20
247.175
30
0
0
SEQEND
8
RASTER
0
POLYLINE
8
RASTER
66
1
70
1
0
VERTEX
8
RASTER
10
146.825
20
246.825
30
0
0
VERTEX
8
RASTER
10
147.175
20
246.825
30
0
0
VERTEX
8
RASTER
10
147.175
20
227.175
30
0
0
VERTEX
8
RASTER
10
146.825
20
227.175
30
0
0
SEQEND
8
RASTER
0
POLYLINE
8
RASTER
66
1
70
1
0
VERTEX
8
RASTER
10
146.825
20
226.825
30
0
0
VERTEX
8
RASTER
10
147.175
20
226.825
30
0
0
VERTEX
8
RASTER
10
147.175
20
207.175
30
0
0
VERTEX
8
RASTER
10
146.825
20
207.175
30
0
0
SEQEND
8
RASTER
0
POLYLINE
8
RASTER
66
1
70
1
0
VERTEX
8
RASTER
10
146.825
20
206.825
30
0
0
VERTEX
8
RASTER
10
147.175
20
206.825
30
0
0
VERTEX
8
RASTER
10
147.175
20
187.175
30
0
0
VERTEX
8
RASTER
10
146.825
20
187.175
30
0
0
SEQEND
8
RASTER
0
POLYLINE
8
RASTER
66
1
70
1
0
VERTEX
8
RASTER
10
146.825
20
186.825
30
0
0
VERTEX
8
RASTER
10
147.175
20
186.825
30
0
0
VERTEX
8
RASTER
10
147.175
20
167.175
30
0
0
VERTEX
8
RASTER
10
146.825
20
167.175
30
0
0
SEQEND
8
RASTER
0
POLYLINE
8
RASTER
66
1
70
1
0
VERTEX
8
RASTER
10
146.825
20
166.825
30
0
0
VERTEX
8
RASTER
10
147.175
20
166.825
30
0
0
VERTEX
8
RASTER
10
147.175
20
147.175
30
0
0
VERTEX
8
RASTER
10
146.825
20
147.175
30
0
0
SEQEND
8
RASTER
0
POLYLINE
8
RASTER
66
1
70
1
0
VERTEX
8
RASTER
10
146.825
20
146.825
30
0
0
VERTEX
8
RASTER
10
147.175
20
146.825
30
0
0
VERTEX
8
RASTER
10
147.175
20
127.175
30
0
0
VERTEX
8
RASTER
10
146.825
20
127.175
30
0
0
SEQEND
8
RASTER
0
POLYLINE
8
RASTER
66
1
70
1
0
VERTEX
8
RASTER
10
146.825
20
126.825
30
0
0
VERTEX
8
RASTER
10
147.175
20
126.825
30
0
0
VERTEX
8
RASTER
10
147.175
20
107.175
30
0
0
VERTEX
8
RASTER
10
146.825
20
107.175
30
0
0
SEQEND
8
RASTER
0
POLYLINE
8
RASTER
66
1
70
1
0
VERTEX
8
RASTER
10
146.825
20
106.825
30
0
0
VERTEX
8
RASTER
10
147.175
20
106.825
30
0
0
VERTEX
8
RASTER
10
147.175
20
87.175
30
0
0
VERTEX
8
RASTER
10
146.825
20
87.175
30
0
0
SEQEND
8
RASTER
0
POLYLINE
8
RASTER
66
1
70
1
0
VERTEX
8
RASTER
10
146.825
20
86.825
30
0
0
VERTEX
8
RASTER
10
147.175
20
86.825
30
0
0
VERTEX
8
RASTER
10
147.175
20
67.175
30
0
0
VERTEX
8
RASTER
10
146.825
20
67.175
30
0
0
SEQEND
8
RASTER
0
POLYLINE
8
RASTER
66
1
70
1
0
VERTEX
8
RASTER
10
146.825
20
66.825
30
0
0
VERTEX
8
RASTER
10
147.175
20
66.825
30
0
0
VERTEX
8
RASTER
10
147.175
20
47.175
30
0
0
VERTEX
8
RASTER
10
146.825
20
47.175
30
0
0
SEQEND
8
RASTER
0
POLYLINE
8
RASTER
66
1
70
1
0
VERTEX
8
RASTER
10
146.825
20
46.825
30
0
0
VERTEX
8
RASTER
10
147.175
20
46.825
30
0
0
VERTEX
8
RASTER
10
147.175
20
27.175
30
0
0
VERTEX
8
RASTER
10
146.825
20
27.175
30
0
0
SEQEND
8
RASTER
0
POLYLINE
8
RASTER
66
1
70
1
0
VERTEX
8
RASTER
10
146.825
20
26.825
30
0
0
VERTEX
8
RASTER
10
147.175
20
26.825
30
0
0
VERTEX
8
RASTER
10
147.175
20
7.175
30
0
0
VERTEX
8
RASTER
10
146.825
20
7.175
30
0
0
SEQEND
8
RASTER
0
POLYLINE
8
RASTER
66
1
70
1
0
VERTEX
8
RASTER
10
166.825
20
306.825
30
0
0
VERTEX
8
RASTER
10
167.175
20
306.825
30
0
0
VERTEX
8
RASTER
10
167.175
20
287.175
30
0
0
VERTEX
8
RASTER
10
166.825
20
287.175
30
0
0
SEQEND
8
RASTER
0
POLYLINE
8
RASTER
66
1
70
1
0
VERTEX
8
RASTER
10
166.825
20
286.825
30
0
0
VERTEX
8
RASTER
10
167.175
20
286.825
30
0
0
VERTEX
8
RASTER
10
167.175
20
267.175
30
0
0
VERTEX
8
RASTER
10
166.825
20
267.175
30
0
0
SEQEND
8
RASTER
0
POLYLINE
8
RASTER
66
1
70
1
0
VERTEX
8
RASTER
10
166.825
20
266.825
30
0
0
VERTEX
8
RASTER
10
167.175
20
266.825
30
0
0
VERTEX
8
RASTER
10
167.175
20
247.175
30
0
0
VERTEX
8
RASTER
10
166.825
20
247.175
30
0
0
SEQEND
8
RASTER
0
POLYLINE
8
RASTER
66
1
70
1
0
VERTEX
8
RASTER
10
166.825
20
246.825
30
0
0
VERTEX
8
RASTER
10
167.175
20
246.825
30
0
0
VERTEX
8
RASTER
10
167.175
20
227.175
30
0
0
VERTEX
8
RASTER
10
166.825
20
227.175
30
0
0
SEQEND
8
RASTER
0
POLYLINE
8
RASTER
66
1
70
1
0
VERTEX
8
RASTER
10
166.825
20
226.825
30
0
0
VERTEX
8
RASTER
10
167.175
20
226.825
30
0
0
VERTEX
8
RASTER
10
167.175
20
207.175
30
0
0
VERTEX
8
RASTER
10
166.825
20
207.175
30
0
0
SEQEND
8
RASTER
0
POLYLINE
8
RASTER
66
1
70
1
0
VERTEX
8
RASTER
10
166.825
20
206.825
30
0
0
VERTEX
8
RASTER
10
167.175
20
206.825
30
0
0
VERTEX
8
RASTER
10
167.175
20
187.175
30
0
0
VERTEX
8
RASTER
10
166.825
20
187.175
30
0
0
SEQEND
8
RASTER
0
POLYLINE
8
RASTER
66
1
70
1
0
VERTEX
8
RASTER
10
166.825
20
186.825
30
0
0
VERTEX
8
RASTER
10
167.175
20
186.825
30
0
0
VERTEX
8
RASTER
10
167.175
20
167.175
30
0
0
VERTEX
8
RASTER
10
166.825
20
167.175
30
0
0
SEQEND
8
RASTER
0
POLYLINE
8
RASTER
66
1
70
1
0
VERTEX
8
RASTER
10
166.825
20
166.825
30
0
0
VERTEX
8
RASTER
10
167.175
20
166.825
30
0
0
VERTEX
8
RASTER
10
167.175
20
147.175
30
0
0
VERTEX
8
RASTER
10
166.825
20
147.175
30
0
0
SEQEND
8
RASTER
0
POLYLINE
8
RASTER
66
1
70
1
0
VERTEX
8
RASTER
10
166.825
20
146.825
30
0
0
VERTEX
8
RASTER
10
167.175
20
146.825
30
0
0
VERTEX
8
RASTER
10
167.175
20
127.175
30
0
0
VERTEX
8
RASTER
10
166.825
20
127.175
30
0
0
SEQEND
8
RASTER
0
POLYLINE
8
RASTER
66
1
70
1
0
VERTEX
8
RASTER
10
166.825
20
126.825
30
0
0
VERTEX
8
RASTER
10
167.175
20
126.825
30
0
0
VERTEX
8
RASTER
10
167.175
20
107.175
30
0
0
VERTEX
8
RASTER
10
166.825
20
107.175
30
0
0
SEQEND
8
RASTER
0
POLYLINE
8
RASTER
66
1
70
1
0
VERTEX
8
RASTER
10
166.825
20
106.825
30
0
0
VERTEX
8
RASTER
10
167.175
20
106.825
30
0
0
VERTEX
8
RASTER
10
167.175
20
87.175
30
0
0
VERTEX
8
RASTER
10
166.825
20
87.175
30
0
0
SEQEND
8
RASTER
0
POLYLINE
8
RASTER
66
1
70
1
0
VERTEX
8
RASTER
10
166.825
20
86.825
30
0
0
VERTEX
8
RASTER
10
167.175
20
86.825
30
0
0
VERTEX
8
RASTER
10
167.175
20
67.175
30
0
0
VERTEX
8
RASTER
10
166.825
20
67.175
30
0
0
SEQEND
8
RASTER
0
POLYLINE
8
RASTER
66
1
70
1
0
VERTEX
8
RASTER
10
166.825
20
66.825
30
0
0
VERTEX
8
RASTER
10
167.175
20
66.825
30
0
0
VERTEX
8
RASTER
10
167.175
20
47.175
30
0
0
VERTEX
8
RASTER
10
166.825
20
47.175
30
0
0
SEQEND
8
RASTER
0
POLYLINE
8
RASTER
66
1
70
1
0
VERTEX
8
RASTER
10
166.825
20
46.825
30
0
0
VERTEX
8
RASTER
10
167.175
20
46.825
30
0
0
VERTEX
8
RASTER
10
167.175
20
27.175
30
0
0
VERTEX
8
RASTER
10
166.825
20
27.175
30
0
0
SEQEND
8
RASTER
0
POLYLINE
8
RASTER
66
1
70
1
0
VERTEX
8
RASTER
10
166.825
20
26.825
30
0
0
VERTEX
8
RASTER
10
167.175
20
26.825
30
0
0
VERTEX
8
RASTER
10
167.175
20
7.175
30
0
0
VERTEX
8
RASTER
10
166.825
20
7.175
30
0
0
SEQEND
8
RASTER
0
POLYLINE
8
RASTER
66
1
70
1
0
VERTEX
8
RASTER
10
186.825
20
306.825
30
0
0
VERTEX
8
RASTER
10
187.175
20
306.825
30
0
0
VERTEX
8
RASTER
10
187.175
20
287.175
30
0
0
VERTEX
8
RASTER
10
186.825
20
287.175
30
0
0
SEQEND
8
RASTER
0
POLYLINE
8
RASTER
66
1
70
1
0
VERTEX
8
RASTER
10
186.825
20
286.825
30
0
0
VERTEX
8
RASTER
10
187.175
20
286.825
30
0
0
VERTEX
8
RASTER
10
187.175
20
267.175
30
0
0
VERTEX
8
RASTER
10
186.825
20
267.175
30
0
0
SEQEND
8
RASTER
0
POLYLINE
8
RASTER
66
1
70
1
0
VERTEX
8
RASTER
10
186.825
20
266.825
30
0
0
VERTEX
8
RASTER
10
187.175
20
266.825
30
0
0
VERTEX
8
RASTER
10
187.175
20
247.175
30
0
0
VERTEX
8
RASTER
10
186.825
20
247.175
30
0
0
SEQEND
8
RASTER
0
POLYLINE
8
RASTER
66
1
70
1
0
VERTEX
8
RASTER
10
186.825
20
246.825
30
0
0
VERTEX
8
RASTER
10
187.175
20
246.825
30
0
0
VERTEX
8
RASTER
10
187.175
20
227.175
30
0
0
VERTEX
8
RASTER
10
186.825
20
227.175
30
0
0
SEQEND
8
RASTER
0
POLYLINE
8
RASTER
66
1
70
1
0
VERTEX
8
RASTER
10
186.825
20
226.825
30
0
0
VERTEX
8
RASTER
10
187.175
20
226.825
30
0
0
VERTEX
8
RASTER
10
187.175
20
207.175
30
0
0
VERTEX
8
RASTER
10
186.825
20
207.175
30
0
0
SEQEND
8
RASTER
0
POLYLINE
8
RASTER
66
1
70
1
0
VERTEX
8
RASTER
10
186.825
20
206.825
30
0
0
VERTEX
8
RASTER
10
187.175
20
206.825
30
0
0
VERTEX
8
RASTER
10
187.175
20
187.175
30
0
0
VERTEX
8
RASTER
10
186.825
20
187.175
30
0
0
SEQEND
8
RASTER
0
POLYLINE
8
RASTER
66
1
70
1
0
VERTEX
8
RASTER
10
186.825
20
186.825
30
0
0
VERTEX
8
RASTER
10
187.175
20
186.825
30
0
0
VERTEX
8
RASTER
10
187.175
20
167.175
30
0
0
VERTEX
8
RASTER
10
186.825
20
167.175
30
0
0
SEQEND
8
RASTER
0
POLYLINE
8
RASTER
66
1
70
1
0
VERTEX
8
RASTER
10
186.825
20
166.825
30
0
0
VERTEX
8
RASTER
10
187.175
20
166.825
30
0
0
VERTEX
8
RASTER
10
187.175
20
147.175
30
0
0
VERTEX
8
RASTER
10
186.825
20
147.175
30
0
0
SEQEND
8
RASTER
0
POLYLINE
8
RASTER
66
1
70
1
0
VERTEX
8
RASTER
10
186.825
20
146.825
30
0
0
VERTEX
8
RASTER
10
187.175
20
146.825
30
0
0
VERTEX
8
RASTER
10
187.175
20
127.175
30
0
0
VERTEX
8
RASTER
10
186.825
20
127.175
30
0
0
SEQEND
8
RASTER
0
POLYLINE
8
RASTER
66
1
70
1
0
VERTEX
8
RASTER
10
186.825
20
126.825
30
0
0
VERTEX
8
RASTER
10
187.175
20
126.825
30
0
0
VERTEX
8
RASTER
10
187.175
20
107.175
30
0
0
VERTEX
8
RASTER
10
186.825
20
107.175
30
0
0
SEQEND
8
RASTER
0
POLYLINE
8
RASTER
66
1
70
1
0
VERTEX
8
RASTER
10
186.825
20
106.825
30
0
0
VERTEX
8
RASTER
10
187.175
20
106.825
30
0
0
VERTEX
8
RASTER
10
187.175
20
87.175
30
0
0
VERTEX
8
RASTER
10
186.825
20
87.175
30
0
0
SEQEND
8
RASTER
0
POLYLINE
8
RASTER
66
1
70
1
0
VERTEX
8
RASTER
10
186.825
20
86.825
30
0
0
VERTEX
8
RASTER
10
187.175
20
86.825
30
0
0
VERTEX
8
RASTER
10
187.175
20
67.175
30
0
0
VERTEX
8
RASTER
10
186.825
20
67.175
30
0
0
SEQEND
8
RASTER
0
POLYLINE
8
RASTER
66
1
70
1
0
VERTEX
8
RASTER
10
186.825
20
66.825
30
0
0
VERTEX
8
RASTER
10
187.175
20
66.825
30
0
0
VERTEX
8
RASTER
10
187.175
20
47.175
30
0
0
VERTEX
8
RASTER
10
186.825
20
47.175
30
0
0
SEQEND
8
RASTER
0
POLYLINE
8
RASTER
66
1
70
1
0
VERTEX
8
RASTER
10
186.825
20
46.825
30
0
0
VERTEX
8
RASTER
10
187.175
20
46.825
30
0
0
VERTEX
8
RASTER
10
187.175
20
27.175
30
0
0
VERTEX
8
RASTER
10
186.825
20
27.175
30
0
0
SEQEND
8
RASTER
0
POLYLINE
8
RASTER
66
1
70
1
0
VERTEX
8
RASTER
10
186.825
20
26.825
30
0
0
VERTEX
8
RASTER
10
187.175
20
26.825
30
0
0
VERTEX
8
RASTER
10
187.175
20
7.175
30
0
0
VERTEX
8
RASTER
10
186.825
20
7.175
30
0
0
SEQEND
8
RASTER
0
POLYLINE
8
RASTER
66
1
70
1
0
VERTEX
8
RASTER
10
206.825
20
306.825
30
0
0
VERTEX
8
RASTER
10
207.175
20
306.825
30
0
0
VERTEX
8
RASTER
10
207.175
20
287.175
30
0
0
VERTEX
8
RASTER
10
206.825
20
287.175
30
0
0
SEQEND
8
RASTER
0
POLYLINE
8
RASTER
66
1
70
1
0
VERTEX
8
RASTER
10
206.825
20
286.825
30
0
0
VERTEX
8
RASTER
10
207.175
20
286.825
30
0
0
VERTEX
8
RASTER
10
207.175
20
267.175
30
0
0
VERTEX
8
RASTER
10
206.825
20
267.175
30
0
0
SEQEND
8
RASTER
0
POLYLINE
8
RASTER
66
1
70
1
0
VERTEX
8
RASTER
10
206.825
20
266.825
30
0
0
VERTEX
8
RASTER
10
207.175
20
266.825
30
0
0
VERTEX
8
RASTER
10
207.175
20
247.175
30
0
0
VERTEX
8
RASTER
10
206.825
20
247.175
30
0
0
SEQEND
8
RASTER
0
POLYLINE
8
RASTER
66
1
70
1
0
VERTEX
8
RASTER
10
206.825
20
246.825
30
0
0
VERTEX
8
RASTER
10
207.175
20
246.825
30
0
0
VERTEX
8
RASTER
10
207.175
20
227.175
30
0
0
VERTEX
8
RASTER
10
206.825
20
227.175
30
0
0
SEQEND
8
RASTER
0
POLYLINE
8
RASTER
66
1
70
1
0
VERTEX
8
RASTER
10
206.825
20
226.825
30
0
0
VERTEX
8
RASTER
10
207.175
20
226.825
30
0
0
VERTEX
8
RASTER
10
207.175
20
207.175
30
0
0
VERTEX
8
RASTER
10
206.825
20
207.175
30
0
0
SEQEND
8
RASTER
0
POLYLINE
8
RASTER
66
1
70
1
0
VERTEX
8
RASTER
10
206.825
20
206.825
30
0
0
VERTEX
8
RASTER
10
207.175
20
206.825
30
0
0
VERTEX
8
RASTER
10
207.175
20
187.175
30
0
0
VERTEX
8
RASTER
10
206.825
20
187.175
30
0
0
SEQEND
8
RASTER
0
POLYLINE
8
RASTER
66
1
70
1
0
VERTEX
8
RASTER
10
206.825
20
186.825
30
0
0
VERTEX
8
RASTER
10
207.175
20
186.825
30
0
0
VERTEX
8
RASTER
10
207.175
20
167.175
30
0
0
VERTEX
8
RASTER
10
206.825
20
167.175
30
0
0
SEQEND
8
RASTER
0
POLYLINE
8
RASTER
66
1
70
1
0
VERTEX
8
RASTER
10
206.825
20
166.825
30
0
0
VERTEX
8
RASTER
10
207.175
20
166.825
30
0
0
VERTEX
8
RASTER
10
207.175
20
147.175
30
0
0
VERTEX
8
RASTER
10
206.825
20
147.175
30
0
0
SEQEND
8
RASTER
0
POLYLINE
8
RASTER
66
1
70
1
0
VERTEX
8
RASTER
10
206.825
20
146.825
30
0
0
VERTEX
8
RASTER
10
207.175
20
146.825
30
0
0
VERTEX
8
RASTER
10
207.175
20
127.175
30
0
0
VERTEX
8
RASTER
10
206.825
20
127.175
30
0
0
SEQEND
8
RASTER
0
POLYLINE
8
RASTER
66
1
70
1
0
VERTEX
8
RASTER
10
206.825
20
126.825
30
0
0
VERTEX
8
RASTER
10
207.175
20
126.825
30
0
0
VERTEX
8
RASTER
10
207.175
20
107.175
30
0
0
VERTEX
8
RASTER
10
206.825
20
107.175
30
0
0
SEQEND
8
RASTER
0
POLYLINE
8
RASTER
66
1
70
1
0
VERTEX
8
RASTER
10
206.825
20
106.825
30
0
0
VERTEX
8
RASTER
10
207.175
20
106.825
30
0
0
VERTEX
8
RASTER
10
207.175
20
87.175
30
0
0
VERTEX
8
RASTER
10
206.825
20
87.175
30
0
0
SEQEND
8
RASTER
0
POLYLINE
8
RASTER
66
1
70
1
0
VERTEX
8
RASTER
10
206.825
20
86.825
30
0
0
VERTEX
8
RASTER
10
207.175
20
86.825
30
0
0
VERTEX
8
RASTER
10
207.175
20
67.175
30
0
0
VERTEX
8
RASTER
10
206.825
20
67.175
30
0
0
SEQEND
8
RASTER
0
POLYLINE
8
RASTER
66
1
70
1
0
VERTEX
8
RASTER
10
206.825
20
66.825
30
0
0
VERTEX
8
RASTER
10
207.175
20
66.825
30
0
0
VERTEX
8
RASTER
10
207.175
20
47.175
30
0
0
VERTEX
8
RASTER
10
206.825
20
47.175
30
0
0
SEQEND
8
RASTER
0
POLYLINE
8
RASTER
66
1
70
1
0
VERTEX
8
RASTER
10
206.825
20
46.825
30
0
0
VERTEX
8
RASTER
10
207.175
20
46.825
30
0
0
VERTEX
8
RASTER
10
207.175
20
27.175
30
0
0
VERTEX
8
RASTER
10
206.825
20
27.175
30
0
0
SEQEND
8
RASTER
0
POLYLINE
8
RASTER
66
1
70
1
0
VERTEX
8
RASTER
10
206.825
20
26.825
30
0
0
VERTEX
8
RASTER
10
207.175
20
26.825
30
0
0
VERTEX
8
RASTER
10
207.175
20
7.175
30
0
0
VERTEX
8
RASTER
10
206.825
20
7.175
30
0
0
SEQEND
8
RASTER
0
POLYLINE
8
RASTER
66
1
70
1
0
VERTEX
8
RASTER
10
226.825
20
286.825
30
0
0
VERTEX
8
RASTER
10
227.175
20
286.825
30
0
0
VERTEX
8
RASTER
10
227.175
20
267.175
30
0
0
VERTEX
8
RASTER
10
226.825
20
267.175
30
0
0
SEQEND
8
RASTER
0
POLYLINE
8
RASTER
66
1
70
1
0
VERTEX
8
RASTER
10
226.825
20
266.825
30
0
0
VERTEX
8
RASTER
10
227.175
20
266.825
30
0
0
VERTEX
8
RASTER
10
227.175
20
247.175
30
0
0
VERTEX
8
RASTER
10
226.825
20
247.175
30
0
0
SEQEND
8
RASTER
0
POLYLINE
8
RASTER
66
1
70
1
0
VERTEX
8
RASTER
10
226.825
20
246.825
30
0
0
VERTEX
8
RASTER
10
227.175
20
246.825
30
0
0
VERTEX
8
RASTER
10
227.175
20
227.175
30
0
0
VERTEX
8
RASTER
10
226.825
20
227.175
30
0
0
SEQEND
8
RASTER
0
POLYLINE
8
RASTER
66
1
70
1
0
VERTEX
8
RASTER
10
226.825
20
226.825
30
0
0
VERTEX
8
RASTER
10
227.175
20
226.825
30
0
0
VERTEX
8
RASTER
10
227.175
20
207.175
30
0
0
VERTEX
8
RASTER
10
226.825
20
207.175
30
0
0
SEQEND
8
RASTER
0
POLYLINE
8
RASTER
66
1
70
1
0
VERTEX
8
RASTER
10
226.825
20
206.825
30
0
0
VERTEX
8
RASTER
10
227.175
20
206.825
30
0
0
VERTEX
8
RASTER
10
227.175
20
187.175
30
0
0
VERTEX
8
RASTER
10
226.825
20
187.175
30
0
0
SEQEND
8
RASTER
0
POLYLINE
8
RASTER
66
1
70
1
0
VERTEX
8
RASTER
10
226.825
20
186.825
30
0
0
VERTEX
8
RASTER
10
227.175
20
186.825
30
0
0
VERTEX
8
RASTER
10
227.175
20
167.175
30
0
0
VERTEX
8
RASTER
10
226.825
20
167.175
30
0
0
SEQEND
8
RASTER
0
POLYLINE
8
RASTER
66
1
70
1
0
VERTEX
8
RASTER
10
226.825
20
166.825
30
0
0
VERTEX
8
RASTER
10
227.175
20
166.825
30
0
0
VERTEX
8
RASTER
10
227.175
20
147.175
30
0
0
VERTEX
8
RASTER
10
226.825
20
147.175
30
0
0
SEQEND
8
RASTER
0
POLYLINE
8
RASTER
66
1
70
1
0
VERTEX
8
RASTER
10
226.825
20
146.825
30
0
0
VERTEX
8
RASTER
10
227.175
20
146.825
30
0
0
VERTEX
8
RASTER
10
227.175
20
127.175
30
0
0
VERTEX
8
RASTER
10
226.825
20
127.175
30
0
0
SEQEND
8
RASTER
0
POLYLINE
8
RASTER
66
1
70
1
0
VERTEX
8
RASTER
10
226.825
20
126.825
30
0
0
VERTEX
8
RASTER
10
227.175
20
126.825
30
0
0
VERTEX
8
RASTER
10
227.175
20
107.175
30
0
0
VERTEX
8
RASTER
10
226.825
20
107.175
30
0
0
SEQEND
8
RASTER
0
POLYLINE
8
RASTER
66
1
70
1
0
VERTEX
8
RASTER
10
226.825
20
106.825
30
0
0
VERTEX
8
RASTER
10
227.175
20
106.825
30
0
0
VERTEX
8
RASTER
10
227.175
20
87.175
30
0
0
VERTEX
8
RASTER
10
226.825
20
87.175
30
0
0
SEQEND
8
RASTER
0
POLYLINE
8
RASTER
66
1
70
1
0
VERTEX
8
RASTER
10
226.825
20
86.825
30
0
0
VERTEX
8
RASTER
10
227.175
20
86.825
30
0
0
VERTEX
8
RASTER
10
227.175
20
67.175
30
0
0
VERTEX
8
RASTER
10
226.825
20
67.175
30
0
0
SEQEND
8
RASTER
0
POLYLINE
8
RASTER
66
1
70
1
0
VERTEX
8
RASTER
10
226.825
20
66.825
30
0
0
VERTEX
8
RASTER
10
227.175
20
66.825
30
0
0
VERTEX
8
RASTER
10
227.175
20
47.175
30
0
0
VERTEX
8
RASTER
10
226.825
20
47.175
30
0
0
SEQEND
8
RASTER
0
POLYLINE
8
RASTER
66
1
70
1
0
VERTEX
8
RASTER
10
226.825
20
46.825
30
0
0
VERTEX
8
RASTER
10
227.175
20
46.825
30
0
0
VERTEX
8
RASTER
10
227.175
20
27.175
30
0
0
VERTEX
8
RASTER
10
226.825
20
27.175
30
0
0
SEQEND
8
RASTER
0
POLYLINE
8
RASTER
66
1
70
1
0
VERTEX
8
RASTER
10
246.825
20
286.825
30
0
0
VERTEX
8
RASTER
10
247.175
20
286.825
30
0
0
VERTEX
8
RASTER
10
247.175
20
267.175
30
0
0
VERTEX
8
RASTER
10
246.825
20
267.175
30
0
0
SEQEND
8
RASTER
0
POLYLINE
8
RASTER
66
1
70
1
0
VERTEX
8
RASTER
10
246.825
20
266.825
30
0
0
VERTEX
8
RASTER
10
247.175
20
266.825
30
0
0
VERTEX
8
RASTER
10
247.175
20
247.175
30
0
0
VERTEX
8
RASTER
10
246.825
20
247.175
30
0
0
SEQEND
8
RASTER
0
POLYLINE
8
RASTER
66
1
70
1
0
VERTEX
8
RASTER
10
246.825
20
246.825
30
0
0
VERTEX
8
RASTER
10
247.175
20
246.825
30
0
0
VERTEX
8
RASTER
10
247.175
20
227.175
30
0
0
VERTEX
8
RASTER
10
246.825
20
227.175
30
0
0
SEQEND
8
RASTER
0
POLYLINE
8
RASTER
66
1
70
1
0
VERTEX
8
RASTER
10
246.825
20
226.825
30
0
0
VERTEX
8
RASTER
10
247.175
20
226.825
30
0
0
VERTEX
8
RASTER
10
247.175
20
207.175
30
0
0
VERTEX
8
RASTER
10
246.825
20
207.175
30
0
0
SEQEND
8
RASTER
0
POLYLINE
8
RASTER
66
1
70
1
0
VERTEX
8
RASTER
10
246.825
20
206.825
30
0
0
VERTEX
8
RASTER
10
247.175
20
206.825
30
0
0
VERTEX
8
RASTER
10
247.175
20
187.175
30
0
0
VERTEX
8
RASTER
10
246.825
20
187.175
30
0
0
SEQEND
8
RASTER
0
POLYLINE
8
RASTER
66
1
70
1
0
VERTEX
8
RASTER
10
246.825
20
186.825
30
0
0
VERTEX
8
RASTER
10
247.175
20
186.825
30
0
0
VERTEX
8
RASTER
10
247.175
20
167.175
30
0
0
VERTEX
8
RASTER
10
246.825
20
167.175
30
0
0
SEQEND
8
RASTER
0
POLYLINE
8
RASTER
66
1
70
1
0
VERTEX
8
RASTER
10
246.825
20
166.825
30
0
0
VERTEX
8
RASTER
10
247.175
20
166.825
30
0
0
VERTEX
8
RASTER
10
247.175
20
147.175
30
0
0
VERTEX
8
RASTER
10
246.825
20
147.175
30
0
0
SEQEND
8
RASTER
0
POLYLINE
8
RASTER
66
1
70
1
0
VERTEX
8
RASTER
10
246.825
20
146.825
30
0
0
VERTEX
8
RASTER
10
247.175
20
146.825
30
0
0
VERTEX
8
RASTER
10
247.175
20
127.175
30
0
0
VERTEX
8
RASTER
10
246.825
20
127.175
30
0
0
SEQEND
8
RASTER
0
POLYLINE
8
RASTER
66
1
70
1
0
VERTEX
8
RASTER
10
246.825
20
126.825
30
0
0
VERTEX
8
RASTER
10
247.175
20
126.825
30
0
0
VERTEX
8
RASTER
10
247.175
20
107.175
30
0
0
VERTEX
8
RASTER
10
246.825
20
107.175
30
0
0
SEQEND
8
RASTER
0
POLYLINE
8
RASTER
66
1
70
1
0
VERTEX
8
RASTER
10
246.825
20
106.825
30
0
0
VERTEX
8
RASTER
10
247.175
20
106.825
30
0
0
VERTEX
8
RASTER
10
247.175
20
87.175
30
0
0
VERTEX
8
RASTER
10
246.825
20
87.175
30
0
0
SEQEND
8
RASTER
0
POLYLINE
8
RASTER
66
1
70
1
0
VERTEX
8
RASTER
10
246.825
20
86.825
30
0
0
VERTEX
8
RASTER
10
247.175
20
86.825
30
0
0
VERTEX
8
RASTER
10
247.175
20
67.175
30
0
0
VERTEX
8
RASTER
10
246.825
20
67.175
30
0
0
SEQEND
8
RASTER
0
POLYLINE
8
RASTER
66
1
70
1
0
VERTEX
8
RASTER
10
246.825
20
66.825
30
0
0
VERTEX
8
RASTER
10
247.175
20
66.825
30
0
0
VERTEX
8
RASTER
10
247.175
20
47.175
30
0
0
VERTEX
8
RASTER
10
246.825
20
47.175
30
0
0
SEQEND
8
RASTER
0
POLYLINE
8
RASTER
66
1
70
1
0
VERTEX
8
RASTER
10
246.825
20
46.825
30
0
0
VERTEX
8
RASTER
10
247.175
20
46.825
30
0
0
VERTEX
8
RASTER
10
247.175
20
27.175
30
0
0
VERTEX
8
RASTER
10
246.825
20
27.175
30
0
0
SEQEND
8
RASTER
0
POLYLINE
8
RASTER
66
1
70
1
0
VERTEX
8
RASTER
10
266.825
20
266.825
30
0
0
VERTEX
8
RASTER
10
267.175
20
266.825
30
0
0
VERTEX
8
RASTER
10
267.175
20
247.175
30
0
0
VERTEX
8
RASTER
10
266.825
20
247.175
30
0
0
SEQEND
8
RASTER
0
POLYLINE
8
RASTER
66
1
70
1
0
VERTEX
8
RASTER
10
266.825
20
246.825
30
0
0
VERTEX
8
RASTER
10
267.175
20
246.825
30
0
0
VERTEX
8
RASTER
10
267.175
20
227.175
30
0
0
VERTEX
8
RASTER
10
266.825
20
227.175
30
0
0
SEQEND
8
RASTER
0
POLYLINE
8
RASTER
66
1
70
1
0
VERTEX
8
RASTER
10
266.825
20
226.825
30
0
0
VERTEX
8
RASTER
10
267.175
20
226.825
30
0
0
VERTEX
8
RASTER
10
267.175
20
207.175
30
0
0
VERTEX
8
RASTER
10
266.825
20
207.175
30
0
0
SEQEND
8
RASTER
0
POLYLINE
8
RASTER
66
1
70
1
0
VERTEX
8
RASTER
10
266.825
20
206.825
30
0
0
VERTEX
8
RASTER
10
267.175
20
206.825
30
0
0
VERTEX
8
RASTER
10
267.175
20
187.175
30
0
0
VERTEX
8
RASTER
10
266.825
20
187.175
30
0
0
SEQEND
8
RASTER
0
POLYLINE
8
RASTER
66
1
70
1
0
VERTEX
8
RASTER
10
266.825
20
186.825
30
0
0
VERTEX
8
RASTER
10
267.175
20
186.825
30
0
0
VERTEX
8
RASTER
10
267.175
20
167.175
30
0
0
VERTEX
8
RASTER
10
266.825
20
167.175
30
0
0
SEQEND
8
RASTER
0
POLYLINE
8
RASTER
66
1
70
1
0
VERTEX
8
RASTER
10
266.825
20
166.825
30
0
0
VERTEX
8
RASTER
10
267.175
20
166.825
30
0
0
VERTEX
8
RASTER
10
267.175
20
147.175
30
0
0
VERTEX
8
RASTER
10
266.825
20
147.175
30
0
0
SEQEND
8
RASTER
0
POLYLINE
8
RASTER
66
1
70
1
0
VERTEX
8
RASTER
10
266.825
20
146.825
30
0
0
VERTEX
8
RASTER
10
267.175
20
146.825
30
0
0
VERTEX
8
RASTER
10
267.175
20
127.175
30
0
0
VERTEX
8
RASTER
10
266.825
20
127.175
30
0
0
SEQEND
8
RASTER
0
POLYLINE
8
RASTER
66
1
70
1
0
VERTEX
8
RASTER
10
266.825
20
126.825
30
0
0
VERTEX
8
RASTER
10
267.175
20
126.825
30
0
0
VERTEX
8
RASTER
10
267.175
20
107.175
30
0
0
VERTEX
8
RASTER
10
266.825
20
107.175
30
0
0
SEQEND
8
RASTER
0
POLYLINE
8
RASTER
66
1
70
1
0
VERTEX
8
RASTER
10
266.825
20
106.825
30
0
0
VERTEX
8
RASTER
10
267.175
20
106.825
30
0
0
VERTEX
8
RASTER
10
267.175
20
87.175
30
0
0
VERTEX
8
RASTER
10
266.825
20
87.175
30
0
0
SEQEND
8
RASTER
0
POLYLINE
8
RASTER
66
1
70
1
0
VERTEX
8
RASTER
10
266.825
20
86.825
30
0
0
VERTEX
8
RASTER
10
267.175
20
86.825
30
0
0
VERTEX
8
RASTER
10
267.175
20
67.175
30
0
0
VERTEX
8
RASTER
10
266.825
20
67.175
30
0
0
SEQEND
8
RASTER
0
POLYLINE
8
RASTER
66
1
70
1
0
VERTEX
8
RASTER
10
266.825
20
66.825
30
0
0
VERTEX
8
RASTER
10
267.175
20
66.825
30
0
0
VERTEX
8
RASTER
10
267.175
20
47.175
30
0
0
VERTEX
8
RASTER
10
266.825
20
47.175
30
0
0
SEQEND
8
RASTER
0
POLYLINE
8
RASTER
66
1
70
1
0
VERTEX
8
RASTER
10
286.825
20
246.825
30
0
0
VERTEX
8
RASTER
10
287.175
20
246.825
30
0
0
VERTEX
8
RASTER
10
287.175
20
227.175
30
0
0
VERTEX
8
RASTER
10
286.825
20
227.175
30
0
0
SEQEND
8
RASTER
0
POLYLINE
8
RASTER
66
1
70
1
0
VERTEX
8
RASTER
10
286.825
20
226.825
30
0
0
VERTEX
8
RASTER
10
287.175
20
226.825
30
0
0
VERTEX
8
RASTER
10
287.175
20
207.175
30
0
0
VERTEX
8
RASTER
10
286.825
20
207.175
30
0
0
SEQEND
8
RASTER
0
POLYLINE
8
RASTER
66
1
70
1
0
VERTEX
8
RASTER
10
286.825
20
206.825
30
0
0
VERTEX
8
RASTER
10
287.175
20
206.825
30
0
0
VERTEX
8
RASTER
10
287.175
20
187.175
30
0
0
VERTEX
8
RASTER
10
286.825
20
187.175
30
0
0
SEQEND
8
RASTER
0
POLYLINE
8
RASTER
66
1
70
1
0
VERTEX
8
RASTER
10
286.825
20
186.825
30
0
0
VERTEX
8
RASTER
10
287.175
20
186.825
30
0
0
VERTEX
8
RASTER
10
287.175
20
167.175
30
0
0
VERTEX
8
RASTER
10
286.825
20
167.175
30
0
0
SEQEND
8
RASTER
0
POLYLINE
8
RASTER
66
1
70
1
0
VERTEX
8
RASTER
10
286.825
20
166.825
30
0
0
VERTEX
8
RASTER
10
287.175
20
166.825
30
0
0
VERTEX
8
RASTER
10
287.175
20
147.175
30
0
0
VERTEX
8
RASTER
10
286.825
20
147.175
30
0
0
SEQEND
8
RASTER
0
POLYLINE
8
RASTER
66
1
70
1
0
VERTEX
8
RASTER
10
286.825
20
146.825
30
0
0
VERTEX
8
RASTER
10
287.175
20
146.825
30
0
0
VERTEX
8
RASTER
10
287.175
20
127.175
30
0
0
VERTEX
8
RASTER
10
286.825
20
127.175
30
0
0
SEQEND
8
RASTER
0
POLYLINE
8
RASTER
66
1
70
1
0
VERTEX
8
RASTER
10
286.825
20
126.825
30
0
0
VERTEX
8
RASTER
10
287.175
20
126.825
30
0
0
VERTEX
8
RASTER
10
287.175
20
107.175
30
0
0
VERTEX
8
RASTER
10
286.825
20
107.175
30
0
0
SEQEND
8
RASTER
0
POLYLINE
8
RASTER
66
1
70
1
0
VERTEX
8
RASTER
10
286.825
20
106.825
30
0
0
VERTEX
8
RASTER
10
287.175
20
106.825
30
0
0
VERTEX
8
RASTER
10
287.175
20
87.175
30
0
0
VERTEX
8
RASTER
10
286.825
20
87.175
30
0
0
SEQEND
8
RASTER
0
POLYLINE
8
RASTER
66
1
70
1
0
VERTEX
8
RASTER
10
286.825
20
86.825
30
0
0
VERTEX
8
RASTER
10
287.175
20
86.825
30
0
0
VERTEX
8
RASTER
10
287.175
20
67.175
30
0
0
VERTEX
8
RASTER
10
286.825
20
67.175
30
0
0
SEQEND
8
RASTER
0
POLYLINE
8
RASTER
66
1
70
1
0
VERTEX
8
RASTER
10
306.825
20
206.825
30
0
0
VERTEX
8
RASTER
10
307.175
20
206.825
30
0
0
VERTEX
8
RASTER
10
307.175
20
187.175
30
0
0
VERTEX
8
RASTER
10
306.825
20
187.175
30
0
0
SEQEND
8
RASTER
0
POLYLINE
8
RASTER
66
1
70
1
0
VERTEX
8
RASTER
10
306.825
20
186.825
30
0
0
VERTEX
8
RASTER
10
307.175
20
186.825
30
0
0
VERTEX
8
RASTER
10
307.175
20
167.175
30
0
0
VERTEX
8
RASTER
10
306.825
20
167.175
30
0
0
SEQEND
8
RASTER
0
POLYLINE
8
RASTER
66
1
70
1
0
VERTEX
8
RASTER
10
306.825
20
166.825
30
0
0
VERTEX
8
RASTER
10
307.175
20
166.825
30
0
0
VERTEX
8
RASTER
10
307.175
20
147.175
30
0
0
VERTEX
8
RASTER
10
306.825
20
147.175
30
0
0
SEQEND
8
RASTER
0
POLYLINE
8
RASTER
66
1
70
1
0
VERTEX
8
RASTER
10
306.825
20
146.825
30
0
0
VERTEX
8
RASTER
10
307.175
20
146.825
30
0
0
VERTEX
8
RASTER
10
307.175
20
127.175
30
0
0
VERTEX
8
RASTER
10
306.825
20
127.175
30
0
0
SEQEND
8
RASTER
0
POLYLINE
8
RASTER
66
1
70
1
0
VERTEX
8
RASTER
10
306.825
20
126.825
30
0
0
VERTEX
8
RASTER
10
307.175
20
126.825
30
0
0
VERTEX
8
RASTER
10
307.175
20
107.175
30
0
0
VERTEX
8
RASTER
10
306.825
20
107.175
30
0
0
SEQEND
8
RASTER
0
POLYLINE
8
RASTER
66
1
70
1
0
VERTEX
8
RASTER
10
11.506
20
192.33
30
0
0
VERTEX
8
RASTER
10
12.11
20
194.445
30
0
0
VERTEX
8
RASTER
10
17.055
20
197.192
30
0
0
VERTEX
8
RASTER
10
19.802
20
192.247
30
0
0
VERTEX
8
RASTER
10
19.198
20
190.132
30
0
0
VERTEX
8
RASTER
10
16.451
20
195.077
30
0
0
SEQEND
8
RASTER
0
POLYLINE
8
RASTER
66
1
70
1
0
VERTEX
8
RASTER
10
12.934
20
197.33
30
0
0
VERTEX
8
RASTER
10
13.539
20
199.445
30
0
0
VERTEX
8
RASTER
10
18.483
20
202.192
30
0
0
VERTEX
8
RASTER
10
21.231
20
197.247
30
0
0
VERTEX
8
RASTER
10
20.626
20
195.132
30
0
0
VERTEX
8
RASTER
10
17.879
20
200.077
30
0
0
SEQEND
8
RASTER
0
POLYLINE
8
RASTER
66
1
70
1
0
VERTEX
8
RASTER
10
12.192
20
171.626
30
0
0
VERTEX
8
RASTER
10
12.503
20
173.804
30
0
0
VERTEX
8
RASTER
10
17.028
20
177.198
30
0
0
VERTEX
8
RASTER
10
20.422
20
172.673
30
0
0
VERTEX
8
RASTER
10
20.111
20
170.495
30
0
0
VERTEX
8
RASTER
10
16.717
20
175.02
30
0
0
SEQEND
8
RASTER
0
POLYLINE
8
RASTER
66
1
70
1
0
VERTEX
8
RASTER
10
12.927
20
176.774
30
0
0
VERTEX
8
RASTER
10
13.238
20
178.952
30
0
0
VERTEX
8
RASTER
10
17.764
20
182.346
30
0
0
VERTEX
8
RASTER
10
21.158
20
177.82
30
0
0
VERTEX
8
RASTER
10
20.847
20
175.642
30
0
0
VERTEX
8
RASTER
10
17.453
20
180.168
30
0
0
SEQEND
8
RASTER
0
POLYLINE
8
RASTER
66
1
70
1
0
VERTEX
8
RASTER
10
13
20
151
30
0
0
VERTEX
8
RASTER
10
13
20
153.2
30
0
0
VERTEX
8
RASTER
10
17
20
157.2
30
0
0
VERTEX
8
RASTER
10
21
20
153.2
30
0
0
VERTEX
8
RASTER
10
21
20
151
30
0
0
VERTEX
8
RASTER
10
17
20
155
30
0
0
SEQEND
8
RASTER
0
POLYLINE
8
RASTER
66
1
70
1
0
VERTEX
8
RASTER
10
13
20
156.2
30
0
0
VERTEX
8
RASTER
10
13
20
158.4
30
0
0
VERTEX
8
RASTER
10
17
20
162.4
30
0
0
VERTEX
8
RASTER
10
21
20
158.4
30
0
0
VERTEX
8
RASTER
10
21
20
156.2
30
0
0
VERTEX
8
RASTER
10
17
20
160.2
30
0
0
SEQEND
8
RASTER
0
POLYLINE
8
RASTER
66
1
70
1
0
VERTEX
8
RASTER
10
13.889
20
130.495
30
0
0
VERTEX
8
RASTER
10
13.578
20
132.673
30
0
0
VERTEX
8
RASTER
10
16.972
20
137.198
30
0
0
VERTEX
8
RASTER
10
21.497
20
133.804
30
0
0
VERTEX
8
RASTER
10
21.808
20
131.626
30
0
0
VERTEX
8
RASTER
10
17.283
20
135.02
30
0
0
SEQEND
8
RASTER
0
POLYLINE
8
RASTER
66
1
70
1
0
VERTEX
8
RASTER
10
13.153
20
135.642
30
0
0
VERTEX
8
RASTER
10
12.842
20
137.82
30
0
0
VERTEX
8
RASTER
10
16.236
20
142.346
30
0
0
VERTEX
8
RASTER
10
20.762
20
138.952
30
0
0
VERTEX
8
RASTER
10
21.073
20
136.774
30
0
0
VERTEX
8
RASTER
10
16.547
20
140.168
30
0
0
SEQEND
8
RASTER
0
POLYLINE
8
RASTER
66
1
70
1
0
VERTEX
8
RASTER
10
14.802
20
110.132
30
0
0
VERTEX
8
RASTER
10
14.198
20
112.247
30
0
0
VERTEX
8
RASTER
10
16.945
20
117.192
30
0
0
VERTEX
8
RASTER
10
21.89
20
114.445
30
0
0
VERTEX
8
RASTER
10
22.494
20
112.33
30
0
0
VERTEX
8
RASTER
10
17.549
20
115.077
30
0
0
SEQEND
8
RASTER
0
POLYLINE
8
RASTER
66
1
70
1
0
VERTEX
8
RASTER
10
13.374
20
115.132
30
0
0
VERTEX
8
RASTER
10
12.769
20
117.247
30
0
0
VERTEX
8
RASTER
10
15.517
20
122.192
30
0
0
VERTEX
8
RASTER
10
20.461
20
119.445
30
0
0
VERTEX
8
RASTER
10
21.066
20
117.33
30
0
0
VERTEX
8
RASTER
10
16.121
20
120.077
30
0
0
SEQEND
8
RASTER
0
POLYLINE
8
RASTER
66
1
70
1
0
VERTEX
8
RASTER
10
30.344
20
234.226
30
0
0
VERTEX
8
RASTER
10
31.564
20
236.057
30
0
0
VERTEX
8
RASTER
10
37.111
20
237.166
30
0
0
VERTEX
8
RASTER
10
38.22
20
231.619
30
0
0
VERTEX
8
RASTER
10
37
20
229.789
30
0
0
VERTEX
8
RASTER
10
35.891
20
235.336
30
0
0
SEQEND
8
RASTER
0
POLYLINE
8
RASTER
66
1
70
1
0
VERTEX
8
RASTER
10
33.228
20
238.553
30
0
0
VERTEX
8
RASTER
10
34.448
20
240.384
30
0
0
VERTEX
8
RASTER
10
39.995
20
241.493
30
0
0
VERTEX
8
RASTER
10
41.105
20
235.946
30
0
0
VERTEX
8
RASTER
10
39.884
20
234.116
30
0
0
VERTEX
8
RASTER
10
38.775
20
239.663
30
0
0
SEQEND
8
RASTER
0
POLYLINE
8
RASTER
66
1
70
1
0
VERTEX
8
RASTER
10
30.739
20
213.422
30
0
0
VERTEX
8
RASTER
10
31.723
20
215.39
30
0
0
VERTEX
8
RASTER
10
37.089
20
217.179
30
0
0
VERTEX
8
RASTER
10
38.878
20
211.812
30
0
0
VERTEX
8
RASTER
10
37.894
20
209.845
30
0
0
VERTEX
8
RASTER
10
36.106
20
215.211
30
0
0
SEQEND
8
RASTER
0
POLYLINE
8
RASTER
66
1
70
1
0
VERTEX
8
RASTER
10
33.065
20
218.073
30
0
0
VERTEX
8
RASTER
10
34.048
20
220.041
30
0
0
VERTEX
8
RASTER
10
39.415
20
221.83
30
0
0
VERTEX
8
RASTER
10
41.204
20
216.463
30
0
0
VERTEX
8
RASTER
10
40.22
20
214.496
30
0
0
VERTEX
8
RASTER
10
38.431
20
219.862
30
0
0
SEQEND
8
RASTER
0
POLYLINE
8
RASTER
66
1
70
1
0
VERTEX
8
RASTER
10
36.106
20
89.845
30
0
0
VERTEX
8
RASTER
10
35.122
20
91.812
30
0
0
VERTEX
8
RASTER
10
36.911
20
97.179
30
0
0
VERTEX
8
RASTER
10
42.277
20
95.39
30
0
0
VERTEX
8
RASTER
10
43.261
20
93.422
30
0
0
VERTEX
8
RASTER
10
37.894
20
95.211
30
0
0
SEQEND
8
RASTER
0
POLYLINE
8
RASTER
66
1
70
1
0
VERTEX
8
RASTER
10
33.78
20
94.496
30
0
0
VERTEX
8
RASTER
10
32.796
20
96.463
30
0
0
VERTEX
8
RASTER
10
34.585
20
101.83
30
0
0
VERTEX
8
RASTER
10
39.952
20
100.041
30
0
0
VERTEX
8
RASTER
10
40.935
20
98.073
30
0
0
VERTEX
8
RASTER
10
35.569
20
99.862
30
0
0
SEQEND
8
RASTER
0
POLYLINE
8
RASTER
66
1
70
1
0
VERTEX
8
RASTER
10
37
20
69.789
30
0
0
VERTEX
8
RASTER
10
35.78
20
71.619
30
0
0
VERTEX
8
RASTER
10
36.889
20
77.166
30
0
0
VERTEX
8
RASTER
10
42.436
20
76.057
30
0
0
VERTEX
8
RASTER
10
43.656
20
74.226
30
0
0
VERTEX
8
RASTER
10
38.109
20
75.336
30
0
0
SEQEND
8
RASTER
0
POLYLINE
8
RASTER
66
1
70
1
0
VERTEX
8
RASTER
10
34.116
20
74.116
30
0
0
VERTEX
8
RASTER
10
32.895
20
75.946
30
0
0
VERTEX
8
RASTER
10
34.005
20
81.493
30
0
0
VERTEX
8
RASTER
10
39.552
20
80.384
30
0
0
VERTEX
8
RASTER
10
40.772
20
78.553
30
0
0
VERTEX
8
RASTER
10
35.225
20
79.663
30
0
0
SEQEND
8
RASTER
0
POLYLINE
8
RASTER
66
1
70
1
0
VERTEX
8
RASTER
10
49.929
20
255.586
30
0
0
VERTEX
8
RASTER
10
51.485
20
257.141
30
0
0
VERTEX
8
RASTER
10
57.141
20
257.141
30
0
0
VERTEX
8
RASTER
10
57.141
20
251.485
30
0
0
VERTEX
8
RASTER
10
55.586
20
249.929
30
0
0
VERTEX
8
RASTER
10
55.586
20
255.586
30
0
0
SEQEND
8
RASTER
0
POLYLINE
8
RASTER
66
1
70
1
0
VERTEX
8
RASTER
10
53.606
20
259.263
30
0
0
VERTEX
8
RASTER
10
55.162
20
260.818
30
0
0
VERTEX
8
RASTER
10
60.818
20
260.818
30
0
0
VERTEX
8
RASTER
10
60.818
20
255.162
30
0
0
VERTEX
8
RASTER
10
59.263
20
253.606
30
0
0
VERTEX
8
RASTER
10
59.263
20
259.263
30
0
0
SEQEND
8
RASTER
0
POLYLINE
8
RASTER
66
1
70
1
0
VERTEX
8
RASTER
10
58.414
20
49.929
30
0
0
VERTEX
8
RASTER
10
56.859
20
51.485
30
0
0
VERTEX
8
RASTER
10
56.859
20
57.141
30
0
0
VERTEX
8
RASTER
10
62.515
20
57.141
30
0
0
VERTEX
8
RASTER
10
64.071
20
55.586
30
0
0
VERTEX
8
RASTER
10
58.414
20
55.586
30
0
0
SEQEND
8
RASTER
0
POLYLINE
8
RASTER
66
1
70
1
0
VERTEX
8
RASTER
10
54.737
20
53.606
30
0
0
VERTEX
8
RASTER
10
53.182
20
55.162
30
0
0
VERTEX
8
RASTER
10
53.182
20
60.818
30
0
0
VERTEX
8
RASTER
10
58.838
20
60.818
30
0
0
VERTEX
8
RASTER
10
60.394
20
59.263
30
0
0
VERTEX
8
RASTER
10
54.737
20
59.263
30
0
0
SEQEND
8
RASTER
0
POLYLINE
8
RASTER
66
1
70
1
0
VERTEX
8
RASTER
10
69.789
20
277
30
0
0
VERTEX
8
RASTER
10
71.619
20
278.22
30
0
0
VERTEX
8
RASTER
10
77.166
20
277.111
30
0
0
VERTEX
8
RASTER
10
76.057
20
271.564
30
0
0
VERTEX
8
RASTER
10
74.226
20
270.344
30
0
0
VERTEX
8
RASTER
10
75.336
20
275.891
30
0
0
SEQEND
8
RASTER
0
POLYLINE
8
RASTER
66
1
70
1
0
VERTEX
8
RASTER
10
74.116
20
279.884
30
0
0
VERTEX
8
RASTER
10
75.946
20
281.105
30
0
0
VERTEX
8
RASTER
10
81.493
20
279.995
30
0
0
VERTEX
8
RASTER
10
80.384
20
274.448
30
0
0
VERTEX
8
RASTER
10
78.553
20
273.228
30
0
0
VERTEX
8
RASTER
10
79.663
20
278.775
30
0
0
SEQEND
8
RASTER
0
POLYLINE
8
RASTER
66
1
70
1
0
VERTEX
8
RASTER
10
79.774
20
30.344
30
0
0
VERTEX
8
RASTER
10
77.943
20
31.564
30
0
0
VERTEX
8
RASTER
10
76.834
20
37.111
30
0
0
VERTEX
8
RASTER
10
82.381
20
38.22
30
0
0
VERTEX
8
RASTER
10
84.211
20
37
30
0
0
VERTEX
8
RASTER
10
78.664
20
35.891
30
0
0
SEQEND
8
RASTER
0
POLYLINE
8
RASTER
66
1
70
1
0
VERTEX
8
RASTER
10
75.447
20
33.228
30
0
0
VERTEX
8
RASTER
10
73.616
20
34.448
30
0
0
VERTEX
8
RASTER
10
72.507
20
39.995
30
0
0
VERTEX
8
RASTER
10
78.054
20
41.105
30
0
0
VERTEX
8
RASTER
10
79.884
20
39.884
30
0
0
VERTEX
8
RASTER
10
74.337
20
38.775
30
0
0
SEQEND
8
RASTER
0
POLYLINE
8
RASTER
66
1
70
1
0
VERTEX
8
RASTER
10
89.845
20
277.894
30
0
0
VERTEX
8
RASTER
10
91.812
20
278.878
30
0
0
VERTEX
8
RASTER
10
97.179
20
277.089
30
0
0
VERTEX
8
RASTER
10
95.39
20
271.723
30
0
0
VERTEX
8
RASTER
10
93.422
20
270.739
30
0
0
VERTEX
8
RASTER
10
95.211
20
276.106
30
0
0
SEQEND
8
RASTER
0
POLYLINE
8
RASTER
66
1
70
1
0
VERTEX
8
RASTER
10
94.496
20
280.22
30
0
0
VERTEX
8
RASTER
10
96.463
20
281.204
30
0
0
VERTEX
8
RASTER
10
101.83
20
279.415
30
0
0
VERTEX
8
RASTER
10
100.041
20
274.048
30
0
0
VERTEX
8
RASTER
10
98.073
20
273.065
30
0
0
VERTEX
8
RASTER
10
99.862
20
278.431
30
0
0
SEQEND
8
RASTER
0
POLYLINE
8
RASTER
66
1
70
1
0
VERTEX
8
RASTER
10
100.578
20
30.739
30
0
0
VERTEX
8
RASTER
10
98.61
20
31.723
30
0
0
VERTEX
8
RASTER
10
96.821
20
37.089
30
0
0
VERTEX
8
RASTER
10
102.188
20
38.878
30
0
0
VERTEX
8
RASTER
10
104.155
20
37.894
30
0
0
VERTEX
8
RASTER
10
98.789
20
36.106
30
0
0
SEQEND
8
RASTER
0
POLYLINE
8
RASTER
66
1
70
1
0
VERTEX
8
RASTER
10
95.927
20
33.065
30
0
0
VERTEX
8
RASTER
10
93.959
20
34.048
30
0
0
VERTEX
8
RASTER
10
92.17
20
39.415
30
0
0
VERTEX
8
RASTER
10
97.537
20
41.204
30
0
0
VERTEX
8
RASTER
10
99.504
20
40.22
30
0
0
VERTEX
8
RASTER
10
94.138
20
38.431
30
0
0
SEQEND
8
RASTER
0
POLYLINE
8
RASTER
66
1
70
1
0
VERTEX
8
RASTER
10
110.132
20
299.198
30
0
0
VERTEX
8
RASTER
10
112.247
20
299.802
30
0
0
VERTEX
8
RASTER
10
117.192
20
297.055
30
0
0
VERTEX
8
RASTER
10
114.445
20
292.11
30
0
0
VERTEX
8
RASTER
10
112.33
20
291.506
30
0
0
VERTEX
8
RASTER
10
115.077
20
296.451
30
0
0
SEQEND
8
RASTER
0
POLYLINE
8
RASTER
66
1
70
1
0
VERTEX
8
RASTER
10
115.132
20
300.626
30
0
0
VERTEX
8
RASTER
10
117.247
20
301.231
30
0
0
VERTEX
8
RASTER
10
122.192
20
298.483
30
0
0
VERTEX
8
RASTER
10
119.445
20
293.539
30
0
0
VERTEX
8
RASTER
10
117.33
20
292.934
30
0
0
VERTEX
8
RASTER
10
120.077
20
297.879
30
0
0
SEQEND
8
RASTER
0
POLYLINE
8
RASTER
66
1
70
1
0
VERTEX
8
RASTER
10
121.67
20
11.506
30
0
0
VERTEX
8
RASTER
10
119.555
20
12.11
30
0
0
VERTEX
8
RASTER
10
116.808
20
17.055
30
0
0
VERTEX
8
RASTER
10
121.753
20
19.802
30
0
0
VERTEX
8
RASTER
10
123.868
20
19.198
30
0
0
VERTEX
8
RASTER
10
118.923
20
16.451
30
0
0
SEQEND
8
RASTER
0
POLYLINE
8
RASTER
66
1
70
1
0
VERTEX
8
RASTER
10
116.67
20
12.934
30
0
0
VERTEX
8
RASTER
10
114.555
20
13.539
30
0
0
VERTEX
8
RASTER
10
111.808
20
18.483
30
0
0
VERTEX
8
RASTER
10
116.753
20
21.231
30
0
0
VERTEX
8
RASTER
10
118.868
20
20.626
30
0
0
VERTEX
8
RASTER
10
113.923
20
17.879
30
0
0
SEQEND
8
RASTER
0
POLYLINE
8
RASTER
66
1
70
1
0
VERTEX
8
RASTER
10
130.495
20
300.111
30
0
0
VERTEX
8
RASTER
10
132.673
20
300.422
30
0
0
VERTEX
8
RASTER
10
137.198
20
297.028
30
0
0
VERTEX
8
RASTER
10
133.804
20
292.503
30
0
0
VERTEX
8
RASTER
10
131.626
20
292.192
30
0
0
VERTEX
8
RASTER
10
135.02
20
296.717
30
0
0
SEQEND
8
RASTER
0
POLYLINE
8
RASTER
66
1
70
1
0
VERTEX
8
RASTER
10
135.642
20
300.847
30
0
0
VERTEX
8
RASTER
10
137.82
20
301.158
30
0
0
VERTEX
8
RASTER
10
142.346
20
297.764
30
0
0
VERTEX
8
RASTER
10
138.952
20
293.238
30
0
0
VERTEX
8
RASTER
10
136.774
20
292.927
30
0
0
VERTEX
8
RASTER
10
140.168
20
297.453
30
0
0
SEQEND
8
RASTER
0
POLYLINE
8
RASTER
66
1
70
1
0
VERTEX
8
RASTER
10
142.374
20
12.192
30
0
0
VERTEX
8
RASTER
10
140.196
20
12.503
30
0
0
VERTEX
8
RASTER
10
136.802
20
17.028
30
0
0
VERTEX
8
RASTER
10
141.327
20
20.422
30
0
0
VERTEX
8
RASTER
10
143.505
20
20.111
30
0
0
VERTEX
8
RASTER
10
138.98
20
16.717
30
0
0
SEQEND
8
RASTER
0
POLYLINE
8
RASTER
66
1
70
1
0
VERTEX
8
RASTER
10
137.226
20
12.927
30
0
0
VERTEX
8
RASTER
10
135.048
20
13.238
30
0
0
VERTEX
8
RASTER
10
131.654
20
17.764
30
0
0
VERTEX
8
RASTER
10
136.18
20
21.158
30
0
0
VERTEX
8
RASTER
10
138.358
20
20.847
30
0
0
VERTEX
8
RASTER
10
133.832
20
17.453
30
0
0
SEQEND
8
RASTER
0
POLYLINE
8
RASTER
66
1
70
1
0
VERTEX
8
RASTER
10
151
20
301
30
0
0
VERTEX
8
RASTER
10
153.2
20
301
30
0
0
VERTEX
8
RASTER
10
157.2
20
297
30
0
0
VERTEX
8
RASTER
10
153.2
20
293
30
0
0
VERTEX
8
RASTER
10
151
20
293
30
0
0
VERTEX
8
RASTER
10
155
20
297
30
0
0
SEQEND
8
RASTER
0
POLYLINE
8
RASTER
66
1
70
1
0
VERTEX
8
RASTER
10
156.2
20
301
30
0
0
VERTEX
8
RASTER
10
158.4
20
301
30
0
0
VERTEX
8
RASTER
10
162.4
20
297
30
0
0
VERTEX
8
RASTER
10
158.4
20
293
30
0
0
VERTEX
8
RASTER
10
156.2
20
293
30
0
0
VERTEX
8
RASTER
10
160.2
20
297
30
0
0
SEQEND
8
RASTER
0
POLYLINE
8
RASTER
66
1
70
1
0
VERTEX
8
RASTER
10
163
20
13
30
0
0
VERTEX
8
RASTER
10
160.8
20
13
30
0
0
VERTEX
8
RASTER
10
156.8
20
17
30
0
0
VERTEX
8
RASTER
10
160.8
20
21
30
0
0
VERTEX
8
RASTER
10
163
20
21
30
0
0
VERTEX
8
RASTER
10
159
20
17
30
0
0
SEQEND
8
RASTER
0
POLYLINE
8
RASTER
66
1
70
1
0
VERTEX
8
RASTER
10
157.8
20
13
30
0
0
VERTEX
8
RASTER
10
155.6
20
13
30
0
0
VERTEX
8
RASTER
10
151.6
20
17
30
0
0
VERTEX
8
RASTER
10
155.6
20
21
30
0
0
VERTEX
8
RASTER
10
157.8
20
21
30
0
0
VERTEX
8
RASTER
10
153.8
20
17
30
0
0
SEQEND
8
RASTER
0
POLYLINE
8
RASTER
66
1
70
1
0
VERTEX
8
RASTER
10
171.626
20
301.808
30
0
0
VERTEX
8
RASTER
10
173.804
20
301.497
30
0
0
VERTEX
8
RASTER
10
177.198
20
296.972
30
0
0
VERTEX
8
RASTER
10
172.673
20
293.578
30
0
0
VERTEX
8
RASTER
10
170.495
20
293.889
30
0
0
VERTEX
8
RASTER
10
175.02
20
297.283
30
0
0
SEQEND
8
RASTER
0
POLYLINE
8
RASTER
66
1
70
1
0
VERTEX
8
RASTER
10
176.774
20
301.073
30
0
0
VERTEX
8
RASTER
10
178.952
20
300.762
30
0
0
VERTEX
8
RASTER
10
182.346
20
296.236
30
0
0
VERTEX
8
RASTER
10
177.82
20
292.842
30
0
0
VERTEX
8
RASTER
10
175.642
20
293.153
30
0
0
VERTEX
8
RASTER
10
180.168
20
296.547
30
0
0
SEQEND
8
RASTER
0
POLYLINE
8
RASTER
66
1
70
1
0
VERTEX
8
RASTER
10
183.505
20
13.889
30
0
0
VERTEX
8
RASTER
10
181.327
20
13.578
30
0
0
VERTEX
8
RASTER
10
176.802
20
16.972
30
0
0
VERTEX
8
RASTER
10
180.196
20
21.497
30
0
0
VERTEX
8
RASTER
10
182.374
20
21.808
30
0
0
VERTEX
8
RASTER
10
178.98
20
17.283
30
0
0
SEQEND
8
RASTER
0
POLYLINE
8
RASTER
66
1
70
1
0
VERTEX
8
RASTER
10
178.358
20
13.153
30
0
0
VERTEX
8
RASTER
10
176.18
20
12.842
30
0
0
VERTEX
8
RASTER
10
171.654
20
16.236
30
0
0
VERTEX
8
RASTER
10
175.048
20
20.762
30
0
0
VERTEX
8
RASTER
10
177.226
20
21.073
30
0
0
VERTEX
8
RASTER
10
173.832
20
16.547
30
0
0
SEQEND
8
RASTER
0
POLYLINE
8
RASTER
66
1
70
1
0
VERTEX
8
RASTER
10
192.33
20
302.494
30
0
0
VERTEX
8
RASTER
10
194.445
20
301.89
30
0
0
VERTEX
8
RASTER
10
197.192
20
296.945
30
0
0
VERTEX
8
RASTER
10
192.247
20
294.198
30
0
0
VERTEX
8
RASTER
10
190.132
20
294.802
30
0
0
VERTEX
8
RASTER
10
195.077
20
297.549
30
0
0
SEQEND
8
RASTER
0
POLYLINE
8
RASTER
66
1
70
1
0
VERTEX
8
RASTER
10
197.33
20
301.066
30
0
0
VERTEX
8
RASTER
10
199.445
20
300.461
30
0
0
VERTEX
8
RASTER
10
202.192
20
295.517
30
0
0
VERTEX
8
RASTER
10
197.247
20
292.769
30
0
0
VERTEX
8
RASTER
10
195.132
20
293.374
30
0
0
VERTEX
8
RASTER
10
200.077
20
296.121
30
0
0
SEQEND
8
RASTER
0
POLYLINE
8
RASTER
66
1
70
1
0
VERTEX
8
RASTER
10
203.868
20
14.802
30
0
0
VERTEX
8
RASTER
10
201.753
20
14.198
30
0
0
VERTEX
8
RASTER
10
196.808
20
16.945
30
0
0
VERTEX
8
RASTER
10
199.555
20
21.89
30
0
0
VERTEX
8
RASTER
10
201.67
20
22.494
30
0
0
VERTEX
8
RASTER
10
198.923
20
17.549
30
0
0
SEQEND
8
RASTER
0
POLYLINE
8
RASTER
66
1
70
1
0
VERTEX
8
RASTER
10
198.868
20
13.374
30
0
0
VERTEX
8
RASTER
10
196.753
20
12.769
30
0
0
VERTEX
8
RASTER
10
191.808
20
15.517
30
0
0
VERTEX
8
RASTER
10
194.555
20
20.461
30
0
0
VERTEX
8
RASTER
10
196.67
20
21.066
30
0
0
VERTEX
8
RASTER
10
193.923
20
16.121
30
0
0
SEQEND
8
RASTER
0
POLYLINE
8
RASTER
66
1
70
1
0
VERTEX
8
RASTER
10
213.422
20
283.261
30
0
0
VERTEX
8
RASTER
10
215.39
20
282.277
30
0
0
VERTEX
8
RASTER
10
217.179
20
276.911
30
0
0
VERTEX
8
RASTER
10
211.812
20
275.122
30
0
0
VERTEX
8
RASTER
10
209.845
20
276.106
30
0
0
VERTEX
8
RASTER
10
215.211
20
277.894
30
0
0
SEQEND
8
RASTER
0
POLYLINE
8
RASTER
66
1
70
1
0
VERTEX
8
RASTER
10
218.073
20
280.935
30
0
0
VERTEX
8
RASTER
10
220.041
20
279.952
30
0
0
VERTEX
8
RASTER
10
221.83
20
274.585
30
0
0
VERTEX
8
RASTER
10
216.463
20
272.796
30
0
0
VERTEX
8
RASTER
10
214.496
20
273.78
30
0
0
VERTEX
8
RASTER
10
219.862
20
275.569
30
0
0
SEQEND
8
RASTER
0
POLYLINE
8
RASTER
66
1
70
1
0
VERTEX
8
RASTER
10
224.155
20
36.106
30
0
0
VERTEX
8
RASTER
10
222.188
20
35.122
30
0
0
VERTEX
8
RASTER
10
216.821
20
36.911
30
0
0
VERTEX
8
RASTER
10
218.61
20
42.277
30
0
0
VERTEX
8
RASTER
10
220.578
20
43.261
30
0
0
VERTEX
8
RASTER
10
218.789
20
37.894
30
0
0
SEQEND
8
RASTER
0
POLYLINE
8
RASTER
66
1
70
1
0
VERTEX
8
RASTER
10
219.504
20
33.78
30
0
0
VERTEX
8
RASTER
10
217.537
20
32.796
30
0
0
VERTEX
8
RASTER
10
212.17
20
34.585
30
0
0
VERTEX
8
RASTER
10
213.959
20
39.952
30
0
0
VERTEX
8
RASTER
10
215.927
20
40.935
30
0
0
VERTEX
8
RASTER
10
214.138
20
35.569
30
0
0
SEQEND
8
RASTER
0
POLYLINE
8
RASTER
66
1
70
1
0
VERTEX
8
RASTER
10
234.226
20
283.656
30
0
0
VERTEX
8
RASTER
10
236.057
20
282.436
30
0
0
VERTEX
8
RASTER
10
237.166
20
276.889
30
0
0
VERTEX
8
RASTER
10
231.619
20
275.78
30
0
0
VERTEX
8
RASTER
10
229.789
20
277
30
0
0
VERTEX
8
RASTER
10
235.336
20
278.109
30
0
0
SEQEND
8
RASTER
0
POLYLINE
8
RASTER
66
1
70
1
0
VERTEX
8
RASTER
10
238.553
20
280.772
30
0
0
VERTEX
8
RASTER
10
240.384
20
279.552
30
0
0
VERTEX
8
RASTER
10
241.493
20
274.005
30
0
0
VERTEX
8
RASTER
10
235.946
20
272.895
30
0
0
VERTEX
8
RASTER
10
234.116
20
274.116
30
0
0
VERTEX
8
RASTER
10
239.663
20
275.225
30
0
0
SEQEND
8
RASTER
0
POLYLINE
8
RASTER
66
1
70
1
0
VERTEX
8
RASTER
10
244.211
20
37
30
0
0
VERTEX
8
RASTER
10
242.381
20
35.78
30
0
0
VERTEX
8
RASTER
10
236.834
20
36.889
30
0
0
VERTEX
8
RASTER
10
237.943
20
42.436
30
0
0
VERTEX
8
RASTER
10
239.774
20
43.656
30
0
0
VERTEX
8
RASTER
10
238.664
20
38.109
30
0
0
SEQEND
8
RASTER
0
POLYLINE
8
RASTER
66
1
70
1
0
VERTEX
8
RASTER
10
239.884
20
34.116
30
0
0
VERTEX
8
RASTER
10
238.054
20
32.895
30
0
0
VERTEX
8
RASTER
10
232.507
20
34.005
30
0
0
VERTEX
8
RASTER
10
233.616
20
39.552
30
0
0
VERTEX
8
RASTER
10
235.447
20
40.772
30
0
0
VERTEX
8
RASTER
10
234.337
20
35.225
30
0
0
SEQEND
8
RASTER
0
POLYLINE
8
RASTER
66
1
70
1
0
VERTEX
8
RASTER
10
255.586
20
264.071
30
0
0
VERTEX
8
RASTER
10
257.141
20
262.515
30
0
0
VERTEX
8
RASTER
10
257.141
20
256.859
30
0
0
VERTEX
8
RASTER
10
251.485
20
256.859
30
0
0
VERTEX
8
RASTER
10
249.929
20
258.414
30
0
0
VERTEX
8
RASTER
10
255.586
20
258.414
30
0
0
SEQEND
8
RASTER
0
POLYLINE
8
RASTER
66
1
70
1
0
VERTEX
8
RASTER
10
259.263
20
260.394
30
0
0
VERTEX
8
RASTER
10
260.818
20
258.838
30
0
0
VERTEX
8
RASTER
10
260.818
20
253.182
30
0
0
VERTEX
8
RASTER
10
255.162
20
253.182
30
0
0
VERTEX
8
RASTER
10
253.606
20
254.737
30
0
0
VERTEX
8
RASTER
10
259.263
20
254.737
30
0
0
SEQEND
8
RASTER
0
POLYLINE
8
RASTER
66
1
70
1
0
VERTEX
8
RASTER
10
264.071
20
58.414
30
0
0
VERTEX
8
RASTER
10
262.515
20
56.859
30
0
0
VERTEX
8
RASTER
10
256.859
20
56.859
30
0
0
VERTEX
8
RASTER
10
256.859
20
62.515
30
0
0
VERTEX
8
RASTER
10
258.414
20
64.071
30
0
0
VERTEX
8
RASTER
10
258.414
20
58.414
30
0
0
SEQEND
8
RASTER
0
POLYLINE
8
RASTER
66
1
70
1
0
VERTEX
8
RASTER
10
260.394
20
54.737
30
0
0
VERTEX
8
RASTER
10
258.838
20
53.182
30
0
0
VERTEX
8
RASTER
10
253.182
20
53.182
30
0
0
VERTEX
8
RASTER
10
253.182
20
58.838
30
0
0
VERTEX
8
RASTER
10
254.737
20
60.394
30
0
0
VERTEX
8
RASTER
10
254.737
20
54.737
30
0
0
SEQEND
8
RASTER
0
POLYLINE
8
RASTER
66
1
70
1
0
VERTEX
8
RASTER
10
277
20
244.211
30
0
0
VERTEX
8
RASTER
10
278.22
20
242.381
30
0
0
VERTEX
8
RASTER
10
277.111
20
236.834
30
0
0
VERTEX
8
RASTER
10
271.564
20
237.943
30
0
0
VERTEX
8
RASTER
10
270.344
20
239.774
30
0
0
VERTEX
8
RASTER
10
275.891
20
238.664
30
0
0
SEQEND
8
RASTER
0
POLYLINE
8
RASTER
66
1
70
1
0
VERTEX
8
RASTER
10
279.884
20
239.884
30
0
0
VERTEX
8
RASTER
10
281.105
20
238.054
30
0
0
VERTEX
8
RASTER
10
279.995
20
232.507
30
0
0
VERTEX
8
RASTER
10
274.448
20
233.616
30
0
0
VERTEX
8
RASTER
10
273.228
20
235.447
30
0
0
VERTEX
8
RASTER
10
278.775
20
234.337
30
0
0
SEQEND
8
RASTER
0
POLYLINE
8
RASTER
66
1
70
1
0
VERTEX
8
RASTER
10
277.894
20
224.155
30
0
0
VERTEX
8
RASTER
10
278.878
20
222.188
30
0
0
VERTEX
8
RASTER
10
277.089
20
216.821
30
0
0
VERTEX
8
RASTER
10
271.723
20
218.61
30
0
0
VERTEX
8
RASTER
10
270.739
20
220.578
30
0
0
VERTEX
8
RASTER
10
276.106
20
218.789
30
0
0
SEQEND
8
RASTER
0
POLYLINE
8
RASTER
66
1
70
1
0
VERTEX
8
RASTER
10
280.22
20
219.504
30
0
0
VERTEX
8
RASTER
10
281.204
20
217.537
30
0
0
VERTEX
8
RASTER
10
279.415
20
212.17
30
0
0
VERTEX
8
RASTER
10
274.048
20
213.959
30
0
0
VERTEX
8
RASTER
10
273.065
20
215.927
30
0
0
VERTEX
8
RASTER
10
278.431
20
214.138
30
0
0
SEQEND
8
RASTER
0
POLYLINE
8
RASTER
66
1
70
1
0
VERTEX
8
RASTER
10
283.261
20
100.578
30
0
0
VERTEX
8
RASTER
10
282.277
20
98.61
30
0
0
VERTEX
8
RASTER
10
276.911
20
96.821
30
0
0
VERTEX
8
RASTER
10
275.122
20
102.188
30
0
0
VERTEX
8
RASTER
10
276.106
20
104.155
30
0
0
VERTEX
8
RASTER
10
277.894
20
98.789
30
0
0
SEQEND
8
RASTER
0
POLYLINE
8
RASTER
66
1
70
1
0
VERTEX
8
RASTER
10
280.935
20
95.927
30
0
0
VERTEX
8
RASTER
10
279.952
20
93.959
30
0
0
VERTEX
8
RASTER
10
274.585
20
92.17
30
0
0
VERTEX
8
RASTER
10
272.796
20
97.537
30
0
0
VERTEX
8
RASTER
10
273.78
20
99.504
30
0
0
VERTEX
8
RASTER
10
275.569
20
94.138
30
0
0
SEQEND
8
RASTER
0
POLYLINE
8
RASTER
66
1
70
1
0
VERTEX
8
RASTER
10
283.656
20
79.774
30
0
0
VERTEX
8
RASTER
10
282.436
20
77.943
30
0
0
VERTEX
8
RASTER
10
276.889
20
76.834
30
0
0
VERTEX
8
RASTER
10
275.78
20
82.381
30
0
0
VERTEX
8
RASTER
10
277
20
84.211
30
0
0
VERTEX
8
RASTER
10
278.109
20
78.664
30
0
0
SEQEND
8
RASTER
0
POLYLINE
8
RASTER
66
1
70
1
0
VERTEX
8
RASTER
10
280.772
20
75.447
30
0
0
VERTEX
8
RASTER
10
279.552
20
73.616
30
0
0
VERTEX
8
RASTER
10
274.005
20
72.507
30
0
0
VERTEX
8
RASTER
10
272.895
20
78.054
30
0
0
VERTEX
8
RASTER
10
274.116
20
79.884
30
0
0
VERTEX
8
RASTER
10
275.225
20
74.337
30
0
0
SEQEND
8
RASTER
0
POLYLINE
8
RASTER
66
1
70
1
0
VERTEX
8
RASTER
10
299.198
20
203.868
30
0
0
VERTEX
8
RASTER
10
299.802
20
201.753
30
0
0
VERTEX
8
RASTER
10
297.055
20
196.808
30
0
0
VERTEX
8
RASTER
10
292.11
20
199.555
30
0
0
VERTEX
8
RASTER
10
291.506
20
201.67
30
0
0
VERTEX
8
RASTER
10
296.451
20
198.923
30
0
0
SEQEND
8
RASTER
0
POLYLINE
8
RASTER
66
1
70
1
0
VERTEX
8
RASTER
10
300.626
20
198.868
30
0
0
VERTEX
8
RASTER
10
301.231
20
196.753
30
0
0
VERTEX
8
RASTER
10
298.483
20
191.808
30
0
0
VERTEX
8
RASTER
10
293.539
20
194.555
30
0
0
VERTEX
8
RASTER
10
292.934
20
196.67
30
0
0
VERTEX
8
RASTER
10
297.879
20
193.923
30
0
0
SEQEND
8
RASTER
0
POLYLINE
8
RASTER
66
1
70
1
0
VERTEX
8
RASTER
10
300.111
20
183.505
30
0
0
VERTEX
8
RASTER
10
300.422
20
181.327
30
0
0
VERTEX
8
RASTER
10
297.028
20
176.802
30
0
0
VERTEX
8
RASTER
10
292.503
20
180.196
30
0
0
VERTEX
8
RASTER
10
292.192
20
182.374
30
0
0
VERTEX
8
RASTER
10
296.717
20
178.98
30
0
0
SEQEND
8
RASTER
0
POLYLINE
8
RASTER
66
1
70
1
0
VERTEX
8
RASTER
10
300.847
20
178.358
30
0
0
VERTEX
8
RASTER
10
301.158
20
176.18
30
0
0
VERTEX
8
RASTER
10
297.764
20
171.654
30
0
0
VERTEX
8
RASTER
10
293.238
20
175.048
30
0
0
VERTEX
8
RASTER
10
292.927
20
177.226
30
0
0
VERTEX
8
RASTER
10
297.453
20
173.832
30
0
0
SEQEND
8
RASTER
0
POLYLINE
8
RASTER
66
1
70
1
0
VERTEX
8
RASTER
10
301
20
163
30
0
0
VERTEX
8
RASTER
10
301
20
160.8
30
0
0
VERTEX
8
RASTER
10
297
20
156.8
30
0
0
VERTEX
8
RASTER
10
293
20
160.8
30
0
0
VERTEX
8
RASTER
10
293
20
163
30
0
0
VERTEX
8
RASTER
10
297
20
159
30
0
0
SEQEND
8
RASTER
0
POLYLINE
8
RASTER
66
1
70
1
0
VERTEX
8
RASTER
10
301
20
157.8
30
0
0
VERTEX
8
RASTER
10
301
20
155.6
30
0
0
VERTEX
8
RASTER
10
297
20
151.6
30
0
0
VERTEX
8
RASTER
10
293
20
155.6
30
0
0
VERTEX
8
RASTER
10
293
20
157.8
30
0
0
VERTEX
8
RASTER
10
297
20
153.8
30
0
0
SEQEND
8
RASTER
0
POLYLINE
8
RASTER
66
1
70
1
0
VERTEX
8
RASTER
10
301.808
20
142.374
30
0
0
VERTEX
8
RASTER
10
301.497
20
140.196
30
0
0
VERTEX
8
RASTER
10
296.972
20
136.802
30
0
0
VERTEX
8
RASTER
10
293.578
20
141.327
30
0
0
VERTEX
8
RASTER
10
293.889
20
143.505
30
0
0
VERTEX
8
RASTER
10
297.283
20
138.98
30
0
0
SEQEND
8
RASTER
0
POLYLINE
8
RASTER
66
1
70
1
0
VERTEX
8
RASTER
10
301.073
20
137.226
30
0
0
VERTEX
8
RASTER
10
300.762
20
135.048
30
0
0
VERTEX
8
RASTER
10
296.236
20
131.654
30
0
0
VERTEX
8
RASTER
10
292.842
20
136.18
30
0
0
VERTEX
8
RASTER
10
293.153
20
138.358
30
0
0
VERTEX
8
RASTER
10
296.547
20
133.832
30
0
0
SEQEND
8
RASTER
0
POLYLINE
8
RASTER
66
1
70
1
0
VERTEX
8
RASTER
10
302.494
20
121.67
30
0
0
VERTEX
8
RASTER
10
301.89
20
119.555
30
0
0
VERTEX
8
RASTER
10
296.945
20
116.808
30
0
0
VERTEX
8
RASTER
10
294.198
20
121.753
30
0
0
VERTEX
8
RASTER
10
294.802
20
123.868
30
0
0
VERTEX
8
RASTER
10
297.549
20
118.923
30
0
0
SEQEND
8
RASTER
0
POLYLINE
8
RASTER
66
1
70
1
0
VERTEX
8
RASTER
10
301.066
20
116.67
30
0
0
VERTEX
8
RASTER
10
300.461
20
114.555
30
0
0
VERTEX
8
RASTER
10
295.517
20
111.808
30
0
0
VERTEX
8
RASTER
10
292.769
20
116.753
30
0
0
VERTEX
8
RASTER
10
293.374
20
118.868
30
0
0
VERTEX
8
RASTER
10
296.121
20
113.923
30
0
0
SEQEND
8
RASTER
0
POLYLINE
8
RASTER
66
1
70
1
0
VERTEX
8
RASTER
10
148.5
20
160.5
30
0
0
VERTEX
8
RASTER
10
148.578
20
161.672
30
0
0
VERTEX
8
RASTER
10
148.813
20
162.688
30
0
0
VERTEX
8
RASTER
10
149.203
20
163.547
30
0
0
VERTEX
8
RASTER
10
149.75
20
164.25
30
0
0
VERTEX
8
RASTER
10
150.453
20
164.797
30
0
0
VERTEX
8
RASTER
10
151.313
20
165.188
30
0
0
VERTEX
8
RASTER
10
152.328
20
165.422
30
0
0
VERTEX
8
RASTER
10
153.5
20
165.5
30
0
0
VERTEX
8
RASTER
10
160.5
20
165.5
30
0
0
VERTEX
8
RASTER
10
161.672
20
165.422
30
0
0
VERTEX
8
RASTER
10
162.688
20
165.188
30
0
0
VERTEX
8
RASTER
10
163.547
20
164.797
30
0
0
VERTEX
8
RASTER
10
164.25
20
164.25
30
0
0
VERTEX
8
RASTER
10
164.797
20
163.547
30
0
0
VERTEX
8
RASTER
10
165.188
20
162.688
30
0
0
VERTEX
8
RASTER
10
165.422
20
161.672
30
0
0
VERTEX
8
RASTER
10
165.5
20
160.5
30
0
0
VERTEX
8
RASTER
10
165.5
20
153.5
30
0
0
VERTEX
8
RASTER
10
165.422
20
152.328
30
0
0
VERTEX
8
RASTER
10
165.188
20
151.313
30
0
0
VERTEX
8
RASTER
10
164.797
20
150.453
30
0
0
VERTEX
8
RASTER
10
164.25
20
149.75
30
0
0
VERTEX
8
RASTER
10
163.547
20
149.203
30
0
0
VERTEX
8
RASTER
10
162.688
20
148.813
30
0
0
VERTEX
8
RASTER
10
161.672
20
148.578
30
0
0
VERTEX
8
RASTER
10
160.5
20
148.5
30
0
0
VERTEX
8
RASTER
10
153.5
20
148.5
30
0
0
VERTEX
8
RASTER
10
152.328
20
148.578
30
0
0
VERTEX
8
RASTER
10
151.313
20
148.813
30
0
0
VERTEX
8
RASTER
10
150.453
20
149.203
30
0
0
VERTEX
8
RASTER
10
149.75
20
149.75
30
0
0
VERTEX
8
RASTER
10
149.203
20
150.453
30
0
0
VERTEX
8
RASTER
10
148.813
20
151.313
30
0
0
VERTEX
8
RASTER
10
148.578
20
152.328
30
0
0
VERTEX
8
RASTER
10
148.5
20
153.5
30
0
0
SEQEND
8
RASTER
0
POLYLINE
8
RASTER
66
1
70
1
0
VERTEX
8
RASTER
10
149.2
20
160.5
30
0
0
VERTEX
8
RASTER
10
149.2
20
153.5
30
0
0
VERTEX
8
RASTER
10
149.267
20
152.492
30
0
0
VERTEX
8
RASTER
10
149.469
20
151.619
30
0
0
VERTEX
8
RASTER
10
149.805
20
150.88
30
0
0
VERTEX
8
RASTER
10
150.275
20
150.275
30
0
0
VERTEX
8
RASTER
10
150.88
20
149.805
30
0
0
VERTEX
8
RASTER
10
151.619
20
149.469
30
0
0
VERTEX
8
RASTER
10
152.492
20
149.267
30
0
0
VERTEX
8
RASTER
10
153.5
20
149.2
30
0
0
VERTEX
8
RASTER
10
160.5
20
149.2
30
0
0
VERTEX
8
RASTER
10
161.508
20
149.267
30
0
0
VERTEX
8
RASTER
10
162.381
20
149.469
30
0
0
VERTEX
8
RASTER
10
163.12
20
149.805
30
0
0
VERTEX
8
RASTER
10
163.725
20
150.275
30
0
0
VERTEX
8
RASTER
10
164.195
20
150.88
30
0
0
VERTEX
8
RASTER
10
164.531
20
151.619
30
0
0
VERTEX
8
RASTER
10
164.733
20
152.492
30
0
0
VERTEX
8
RASTER
10
164.8
20
153.5
30
0
0
VERTEX
8
RASTER
10
164.8
20
160.5
30
0
0
VERTEX
8
RASTER
10
164.733
20
161.508
30
0
0
VERTEX
8
RASTER
10
164.531
20
162.381
30
0
0
VERTEX
8
RASTER
10
164.195
20
163.12
30
0
0
VERTEX
8
RASTER
10
163.725
20
163.725
30
0
0
VERTEX
8
RASTER
10
163.12
20
164.195
30
0
0
VERTEX
8
RASTER
10
162.381
20
164.531
30
0
0
VERTEX
8
RASTER
10
161.508
20
164.733
30
0
0
VERTEX
8
RASTER
10
160.5
20
164.8
30
0
0
VERTEX
8
RASTER
10
153.5
20
164.8
30
0
0
VERTEX
8
RASTER
10
152.492
20
164.733
30
0
0
VERTEX
8
RASTER
10
151.619
20
164.531
30
0
0
VERTEX
8
RASTER
10
150.88
20
164.195
30
0
0
VERTEX
8
RASTER
10
150.275
20
163.725
30
0
0
VERTEX
8
RASTER
10
149.805
20
163.12
30
0
0
VERTEX
8
RASTER
10
149.469
20
162.381
30
0
0
VERTEX
8
RASTER
10
149.267
20
161.508
30
0
0
VERTEX
8
RASTER
10
149.2
20
160.5
30
0
0
SEQEND
8
RASTER
0
CIRCLE
8
RASTER
10
157
20
162.568
30
0
40
0.792
0
CIRCLE
8
RASTER
10
157
20
162.568
30
0
40
0.44
0
POLYLINE
8
RASTER
66
1
70
1
0
VERTEX
8
RASTER
10
156.648
20
161.512
30
0
0
VERTEX
8
RASTER
10
157.352
20
161.512
30
0
0
VERTEX
8
RASTER
10
157.352
20
160.632
30
0
0
VERTEX
8
RASTER
10
158.936
20
160.632
30
0
0
VERTEX
8
RASTER
10
158.936
20
160.104
30
0
0
VERTEX
8
RASTER
10
157.352
20
160.104
30
0
0
VERTEX
8
RASTER
10
157.352
20
157.64
30
0
0
VERTEX
8
RASTER
10
157.557
20
157.598
30
0
0
VERTEX
8
RASTER
10
157.773
20
157.604
30
0
0
VERTEX
8
RASTER
10
157.992
20
157.655
30
0
0
VERTEX
8
RASTER
10
158.21
20
157.75
30
0
0
VERTEX
8
RASTER
10
158.419
20
157.886
30
0
0
VERTEX
8
RASTER
10
158.614
20
158.061
30
0
0
VERTEX
8
RASTER
10
158.789
20
158.273
30
0
0
VERTEX
8
RASTER
10
158.936
20
158.52
30
0
0
VERTEX
8
RASTER
10
159.816
20
157.816
30
0
0
VERTEX
8
RASTER
10
159.644
20
157.306
30
0
0
VERTEX
8
RASTER
10
159.401
20
156.837
30
0
0
VERTEX
8
RASTER
10
159.095
20
156.418
30
0
0
VERTEX
8
RASTER
10
158.738
20
156.056
30
0
0
VERTEX
8
RASTER
10
158.34
20
155.76
30
0
0
VERTEX
8
RASTER
10
157.91
20
155.539
30
0
0
VERTEX
8
RASTER
10
157.46
20
155.4
30
0
0
VERTEX
8
RASTER
10
157
20
155.352
30
0
0
VERTEX
8
RASTER
10
156.54
20
155.4
30
0
0
VERTEX
8
RASTER
10
156.09
20
155.539
30
0
0
VERTEX
8
RASTER
10
155.66
20
155.76
30
0
0
VERTEX
8
RASTER
10
155.262
20
156.056
30
0
0
VERTEX
8
RASTER
10
154.905
20
156.418
30
0
0
VERTEX
8
RASTER
10
154.599
20
156.837
30
0
0
VERTEX
8
RASTER
10
154.356
20
157.306
30
0
0
VERTEX
8
RASTER
10
154.184
20
157.816
30
0
0
VERTEX
8
RASTER
10
155.064
20
158.52
30
0
0
VERTEX
8
RASTER
10
155.211
20
158.273
30
0
0
VERTEX
8
RASTER
10
155.386
20
158.061
30
0
0
VERTEX
8
RASTER
10
155.581
20
157.886
30
0
0
VERTEX
8
RASTER
10
155.79
20
157.75
30
0
0
VERTEX
8
RASTER
10
156.008
20
157.655
30
0
0
VERTEX
8
RASTER
10
156.227
20
157.604
30
0
0
VERTEX
8
RASTER
10
156.443
20
157.598
30
0
0
VERTEX
8
RASTER
10
156.648
20
157.64
30
0
0
VERTEX
8
RASTER
10
156.648
20
160.104
30
0
0
VERTEX
8
RASTER
10
155.064
20
160.104
30
0
0
VERTEX
8
RASTER
10
155.064
20
160.632
30
0
0
VERTEX
8
RASTER
10
156.648
20
160.632
30
0
0
SEQEND
8
RASTER
0
POLYLINE
8
RASTER
66
1
70
1
0
VERTEX
8
RASTER
10
149.21
20
154.8
30
0
0
VERTEX
8
RASTER
10
151.11
20
154.8
30
0
0
VERTEX
8
RASTER
10
151.11
20
154.42
30
0
0
VERTEX
8
RASTER
10
149.21
20
154.42
30
0
0
SEQEND
8
RASTER
0
POLYLINE
8
RASTER
66
1
70
1
0
VERTEX
8
RASTER
10
149.97
20
154.42
30
0
0
VERTEX
8
RASTER
10
150.35
20
154.42
30
0
0
VERTEX
8
RASTER
10
150.35
20
154.04
30
0
0
VERTEX
8
RASTER
10
149.97
20
154.04
30
0
0
SEQEND
8
RASTER
0
POLYLINE
8
RASTER
66
1
70
1
0
VERTEX
8
RASTER
10
149.97
20
154.04
30
0
0
VERTEX
8
RASTER
10
150.35
20
154.04
30
0
0
VERTEX
8
RASTER
10
150.35
20
153.66
30
0
0
VERTEX
8
RASTER
10
149.97
20
153.66
30
0
0
SEQEND
8
RASTER
0
POLYLINE
8
RASTER
66
1
70
1
0
VERTEX
8
RASTER
10
149.97
20
153.66
30
0
0
VERTEX
8
RASTER
10
150.35
20
153.66
30
0
0
VERTEX
8
RASTER
10
150.35
20
153.28
30
0
0
VERTEX
8
RASTER
10
149.97
20
153.28
30
0
0
SEQEND
8
RASTER
0
POLYLINE
8
RASTER
66
1
70
1
0
VERTEX
8
RASTER
10
149.97
20
153.28
30
0
0
VERTEX
8
RASTER
10
150.35
20
153.28
30
0
0
VERTEX
8
RASTER
10
150.35
20
152.9
30
0
0
VERTEX
8
RASTER
10
149.97
20
152.9
30
0
0
SEQEND
8
RASTER
0
POLYLINE
8
RASTER
66
1
70
1
0
VERTEX
8
RASTER
10
149.97
20
152.9
30
0
0
VERTEX
8
RASTER
10
150.35
20
152.9
30
0
0
VERTEX
8
RASTER
10
150.35
20
152.52
30
0
0
VERTEX
8
RASTER
10
149.97
20
152.52
30
0
0
SEQEND
8
RASTER
0
POLYLINE
8
RASTER
66
1
70
1
0
VERTEX
8
RASTER
10
149.97
20
152.52
30
0
0
VERTEX
8
RASTER
10
150.35
20
152.52
30
0
0
VERTEX
8
RASTER
10
150.35
20
152.14
30
0
0
VERTEX
8
RASTER
10
149.97
20
152.14
30
0
0
SEQEND
8
RASTER
0
POLYLINE
8
RASTER
66
1
70
1
0
VERTEX
8
RASTER
10
151.87
20
154.8
30
0
0
VERTEX
8
RASTER
10
153.01
20
154.8
30
0
0
VERTEX
8
RASTER
10
153.01
20
154.42
30
0
0
VERTEX
8
RASTER
10
151.87
20
154.42
30
0
0
SEQEND
8
RASTER
0
POLYLINE
8
RASTER
66
1
70
1
0
VERTEX
8
RASTER
10
151.49
20
154.42
30
0
0
VERTEX
8
RASTER
10
151.87
20
154.42
30
0
0
VERTEX
8
RASTER
10
151.87
20
154.04
30
0
0
VERTEX
8
RASTER
10
151.49
20
154.04
30
0
0
SEQEND
8
RASTER
0
POLYLINE
8
RASTER
66
1
70
1
0
VERTEX
8
RASTER
10
153.01
20
154.42
30
0
0
VERTEX
8
RASTER
10
153.39
20
154.42
30
0
0
VERTEX
8
RASTER
10
153.39
20
154.04
30
0
0
VERTEX
8
RASTER
10
153.01
20
154.04
30
0
0
SEQEND
8
RASTER
0
POLYLINE
8
RASTER
66
1
70
1
0
VERTEX
8
RASTER
10
151.49
20
154.04
30
0
0
VERTEX
8
RASTER
10
151.87
20
154.04
30
0
0
VERTEX
8
RASTER
10
151.87
20
153.66
30
0
0
VERTEX
8
RASTER
10
151.49
20
153.66
30
0
0
SEQEND
8
RASTER
0
POLYLINE
8
RASTER
66
1
70
1
0
VERTEX
8
RASTER
10
153.01
20
154.04
30
0
0
VERTEX
8
RASTER
10
153.39
20
154.04
30
0
0
VERTEX
8
RASTER
10
153.39
20
153.66
30
0
0
VERTEX
8
RASTER
10
153.01
20
153.66
30
0
0
SEQEND
8
RASTER
0
POLYLINE
8
RASTER
66
1
70
1
0
VERTEX
8
RASTER
10
151.49
20
153.66
30
0
0
VERTEX
8
RASTER
10
151.87
20
153.66
30
0
0
VERTEX
8
RASTER
10
151.87
20
153.28
30
0
0
VERTEX
8
RASTER
10
151.49
20
153.28
30
0
0
SEQEND
8
RASTER
0
POLYLINE
8
RASTER
66
1
70
1
0
VERTEX
8
RASTER
10
153.01
20
153.66
30
0
0
VERTEX
8
RASTER
10
153.39
20
153.66
30
0
0
VERTEX
8
RASTER
10
153.39
20
153.28
30
0
0
VERTEX
8
RASTER
10
153.01
20
153.28
30
0
0
SEQEND
8
RASTER
0
POLYLINE
8
RASTER
66
1
70
1
0
VERTEX
8
RASTER
10
151.49
20
153.28
30
0
0
VERTEX
8
RASTER
10
151.87
20
153.28
30
0
0
VERTEX
8
RASTER
10
151.87
20
152.9
30
0
0
VERTEX
8
RASTER
10
151.49
20
152.9
30
0
0
SEQEND
8
RASTER
0
POLYLINE
8
RASTER
66
1
70
1
0
VERTEX
8
RASTER
10
153.01
20
153.28
30
0
0
VERTEX
8
RASTER
10
153.39
20
153.28
30
0
0
VERTEX
8
RASTER
10
153.39
20
152.9
30
0
0
VERTEX
8
RASTER
10
153.01
20
152.9
30
0
0
SEQEND
8
RASTER
0
POLYLINE
8
RASTER
66
1
70
1
0
VERTEX
8
RASTER
10
151.49
20
152.9
30
0
0
VERTEX
8
RASTER
10
151.87
20
152.9
30
0
0
VERTEX
8
RASTER
10
151.87
20
152.52
30
0
0
VERTEX
8
RASTER
10
151.49
20
152.52
30
0
0
SEQEND
8
RASTER
0
POLYLINE
8
RASTER
66
1
70
1
0
VERTEX
8
RASTER
10
153.01
20
152.9
30
0
0
VERTEX
8
RASTER
10
153.39
20
152.9
30
0
0
VERTEX
8
RASTER
10
153.39
20
152.52
30
0
0
VERTEX
8
RASTER
10
153.01
20
152.52
30
0
0
SEQEND
8
RASTER
0
POLYLINE
8
RASTER
66
1
70
1
0
VERTEX
8
RASTER
10
151.87
20
152.52
30
0
0
VERTEX
8
RASTER
10
153.01
20
152.52
30
0
0
VERTEX
8
RASTER
10
153.01
20
152.14
30
0
0
VERTEX
8
RASTER
10
151.87
20
152.14
30
0
0
SEQEND
8
RASTER
0
POLYLINE
8
RASTER
66
1
70
1
0
VERTEX
8
RASTER
10
153.77
20
154.8
30
0
0
VERTEX
8
RASTER
10
155.29
20
154.8
30
0
0
VERTEX
8
RASTER
10
155.29
20
154.42
30
0
0
VERTEX
8
RASTER
10
153.77
20
154.42
30
0
0
SEQEND
8
RASTER
0
POLYLINE
8
RASTER
66
1
70
1
0
VERTEX
8
RASTER
10
153.77
20
154.42
30
0
0
VERTEX
8
RASTER
10
154.15
20
154.42
30
0
0
VERTEX
8
RASTER
10
154.15
20
154.04
30
0
0
VERTEX
8
RASTER
10
153.77
20
154.04
30
0
0
SEQEND
8
RASTER
0
POLYLINE
8
RASTER
66
1
70
1
0
VERTEX
8
RASTER
10
155.29
20
154.42
30
0
0
VERTEX
8
RASTER
10
155.67
20
154.42
30
0
0
VERTEX
8
RASTER
10
155.67
20
154.04
30
0
0
VERTEX
8
RASTER
10
155.29
20
154.04
30
0
0
SEQEND
8
RASTER
0
POLYLINE
8
RASTER
66
1
70
1
0
VERTEX
8
RASTER
10
153.77
20
154.04
30
0
0
VERTEX
8
RASTER
10
154.15
20
154.04
30
0
0
VERTEX
8
RASTER
10
154.15
20
153.66
30
0
0
VERTEX
8
RASTER
10
153.77
20
153.66
30
0
0
SEQEND
8
RASTER
0
POLYLINE
8
RASTER
66
1
70
1
0
VERTEX
8
RASTER
10
155.29
20
154.04
30
0
0
VERTEX
8
RASTER
10
155.67
20
154.04
30
0
0
VERTEX
8
RASTER
10
155.67
20
153.66
30
0
0
VERTEX
8
RASTER
10
155.29
20
153.66
30
0
0
SEQEND
8
RASTER
0
POLYLINE
8
RASTER
66
1
70
1
0
VERTEX
8
RASTER
10
153.77
20
153.66
30
0
0
VERTEX
8
RASTER
10
155.29
20
153.66
30
0
0
VERTEX
8
RASTER
10
155.29
20
153.28
30
0
0
VERTEX
8
RASTER
10
153.77
20
153.28
30
0
0
SEQEND
8
RASTER
0
POLYLINE
8
RASTER
66
1
70
1
0
VERTEX
8
RASTER
10
153.77
20
153.28
30
0
0
VERTEX
8
RASTER
10
154.15
20
153.28
30
0
0
VERTEX
8
RASTER
10
154.15
20
152.9
30
0
0
VERTEX
8
RASTER
10
153.77
20
152.9
30
0
0
SEQEND
8
RASTER
0
POLYLINE
8
RASTER
66
1
70
1
0
VERTEX
8
RASTER
10
154.53
20
153.28
30
0
0
VERTEX
8
RASTER
10
154.91
20
153.28
30
0
0
VERTEX
8
RASTER
10
154.91
20
152.9
30
0
0
VERTEX
8
RASTER
10
154.53
20
152.9
30
0
0
SEQEND
8
RASTER
0
POLYLINE
8
RASTER
66
1
70
1
0
VERTEX
8
RASTER
10
153.77
20
152.9
30
0
0
VERTEX
8
RASTER
10
154.15
20
152.9
30
0
0
VERTEX
8
RASTER
10
154.15
20
152.52
30
0
0
VERTEX
8
RASTER
10
153.77
20
152.52
30
0
0
SEQEND
8
RASTER
0
POLYLINE
8
RASTER
66
1
70
1
0
VERTEX
8
RASTER
10
154.91
20
152.9
30
0
0
VERTEX
8
RASTER
10
155.29
20
152.9
30
0
0
VERTEX
8
RASTER
10
155.29
20
152.52
30
0
0
VERTEX
8
RASTER
10
154.91
20
152.52
30
0
0
SEQEND
8
RASTER
0
POLYLINE
8
RASTER
66
1
70
1
0
VERTEX
8
RASTER
10
153.77
20
152.52
30
0
0
VERTEX
8
RASTER
10
154.15
20
152.52
30
0
0
VERTEX
8
RASTER
10
154.15
20
152.14
30
0
0
VERTEX
8
RASTER
10
153.77
20
152.14
30
0
0
SEQEND
8
RASTER
0
POLYLINE
8
RASTER
66
1
70
1
0
VERTEX
8
RASTER
10
155.29
20
152.52
30
0
0
VERTEX
8
RASTER
10
155.67
20
152.52
30
0
0
VERTEX
8
RASTER
10
155.67
20
152.14
30
0
0
VERTEX
8
RASTER
10
155.29
20
152.14
30
0
0
SEQEND
8
RASTER
0
POLYLINE
8
RASTER
66
1
70
1
0
VERTEX
8
RASTER
10
156.05
20
154.8
30
0
0
VERTEX
8
RASTER
10
157.95
20
154.8
30
0
0
VERTEX
8
RASTER
10
157.95
20
154.42
30
0
0
VERTEX
8
RASTER
10
156.05
20
154.42
30
0
0
SEQEND
8
RASTER
0
POLYLINE
8
RASTER
66
1
70
1
0
VERTEX
8
RASTER
10
156.81
20
154.42
30
0
0
VERTEX
8
RASTER
10
157.19
20
154.42
30
0
0
VERTEX
8
RASTER
10
157.19
20
154.04
30
0
0
VERTEX
8
RASTER
10
156.81
20
154.04
30
0
0
SEQEND
8
RASTER
0
POLYLINE
8
RASTER
66
1
70
1
0
VERTEX
8
RASTER
10
156.81
20
154.04
30
0
0
VERTEX
8
RASTER
10
157.19
20
154.04
30
0
0
VERTEX
8
RASTER
10
157.19
20
153.66
30
0
0
VERTEX
8
RASTER
10
156.81
20
153.66
30
0
0
SEQEND
8
RASTER
0
POLYLINE
8
RASTER
66
1
70
1
0
VERTEX
8
RASTER
10
156.81
20
153.66
30
0
0
VERTEX
8
RASTER
10
157.19
20
153.66
30
0
0
VERTEX
8
RASTER
10
157.19
20
153.28
30
0
0
VERTEX
8
RASTER
10
156.81
20
153.28
30
0
0
SEQEND
8
RASTER
0
POLYLINE
8
RASTER
66
1
70
1
0
VERTEX
8
RASTER
10
156.81
20
153.28
30
0
0
VERTEX
8
RASTER
10
157.19
20
153.28
30
0
0
VERTEX
8
RASTER
10
157.19
20
152.9
30
0
0
VERTEX
8
RASTER
10
156.81
20
152.9
30
0
0
SEQEND
8
RASTER
0
POLYLINE
8
RASTER
66
1
70
1
0
VERTEX
8
RASTER
10
156.81
20
152.9
30
0
0
VERTEX
8
RASTER
10
157.19
20
152.9
30
0
0
VERTEX
8
RASTER
10
157.19
20
152.52
30
0
0
VERTEX
8
RASTER
10
156.81
20
152.52
30
0
0
SEQEND
8
RASTER
0
POLYLINE
8
RASTER
66
1
70
1
0
VERTEX
8
RASTER
10
156.81
20
152.52
30
0
0
VERTEX
8
RASTER
10
157.19
20
152.52
30
0
0
VERTEX
8
RASTER
10
157.19
20
152.14
30
0
0
VERTEX
8
RASTER
10
156.81
20
152.14
30
0
0
SEQEND
8
RASTER
0
POLYLINE
8
RASTER
66
1
70
1
0
VERTEX
8
RASTER
10
158.33
20
154.8
30
0
0
VERTEX
8
RASTER
10
158.71
20
154.8
30
0
0
VERTEX
8
RASTER
10
158.71
20
154.42
30
0
0
VERTEX
8
RASTER
10
158.33
20
154.42
30
0
0
SEQEND
8
RASTER
0
POLYLINE
8
RASTER
66
1
70
1
0
VERTEX
8
RASTER
10
159.85
20
154.8
30
0
0
VERTEX
8
RASTER
10
160.23
20
154.8
30
0
0
VERTEX
8
RASTER
10
160.23
20
154.42
30
0
0
VERTEX
8
RASTER
10
159.85
20
154.42
30
0
0
SEQEND
8
RASTER
0
POLYLINE
8
RASTER
66
1
70
1
0
VERTEX
8
RASTER
10
158.33
20
154.42
30
0
0
VERTEX
8
RASTER
10
158.71
20
154.42
30
0
0
VERTEX
8
RASTER
10
158.71
20
154.04
30
0
0
VERTEX
8
RASTER
10
158.33
20
154.04
30
0
0
SEQEND
8
RASTER
0
POLYLINE
8
RASTER
66
1
70
1
0
VERTEX
8
RASTER
10
159.85
20
154.42
30
0
0
VERTEX
8
RASTER
10
160.23
20
154.42
30
0
0
VERTEX
8
RASTER
10
160.23
20
154.04
30
0
0
VERTEX
8
RASTER
10
159.85
20
154.04
30
0
0
SEQEND
8
RASTER
0
POLYLINE
8
RASTER
66
1
70
1
0
VERTEX
8
RASTER
10
158.33
20
154.04
30
0
0
VERTEX
8
RASTER
10
158.71
20
154.04
30
0
0
VERTEX
8
RASTER
10
158.71
20
153.66
30
0
0
VERTEX
8
RASTER
10
158.33
20
153.66
30
0
0
SEQEND
8
RASTER
0
POLYLINE
8
RASTER
66
1
70
1
0
VERTEX
8
RASTER
10
159.85
20
154.04
30
0
0
VERTEX
8
RASTER
10
160.23
20
154.04
30
0
0
VERTEX
8
RASTER
10
160.23
20
153.66
30
0
0
VERTEX
8
RASTER
10
159.85
20
153.66
30
0
0
SEQEND
8
RASTER
0
POLYLINE
8
RASTER
66
1
70
1
0
VERTEX
8
RASTER
10
158.33
20
153.66
30
0
0
VERTEX
8
RASTER
10
158.71
20
153.66
30
0
0
VERTEX
8
RASTER
10
158.71
20
153.28
30
0
0
VERTEX
8
RASTER
10
158.33
20
153.28
30
0
0
SEQEND
8
RASTER
0
POLYLINE
8
RASTER
66
1
70
1
0
VERTEX
8
RASTER
10
159.85
20
153.66
30
0
0
VERTEX
8
RASTER
10
160.23
20
153.66
30
0
0
VERTEX
8
RASTER
10
160.23
20
153.28
30
0
0
VERTEX
8
RASTER
10
159.85
20
153.28
30
0
0
SEQEND
8
RASTER
0
POLYLINE
8
RASTER
66
1
70
1
0
VERTEX
8
RASTER
10
158.33
20
153.28
30
0
0
VERTEX
8
RASTER
10
158.71
20
153.28
30
0
0
VERTEX
8
RASTER
10
158.71
20
152.9
30
0
0
VERTEX
8
RASTER
10
158.33
20
152.9
30
0
0
SEQEND
8
RASTER
0
POLYLINE
8
RASTER
66
1
70
1
0
VERTEX
8
RASTER
10
159.85
20
153.28
30
0
0
VERTEX
8
RASTER
10
160.23
20
153.28
30
0
0
VERTEX
8
RASTER
10
160.23
20
152.9
30
0
0
VERTEX
8
RASTER
10
159.85
20
152.9
30
0
0
SEQEND
8
RASTER
0
POLYLINE
8
RASTER
66
1
70
1
0
VERTEX
8
RASTER
10
158.33
20
152.9
30
0
0
VERTEX
8
RASTER
10
158.71
20
152.9
30
0
0
VERTEX
8
RASTER
10
158.71
20
152.52
30
0
0
VERTEX
8
RASTER
10
158.33
20
152.52
30
0
0
SEQEND
8
RASTER
0
POLYLINE
8
RASTER
66
1
70
1
0
VERTEX
8
RASTER
10
159.85
20
152.9
30
0
0
VERTEX
8
RASTER
10
160.23
20
152.9
30
0
0
VERTEX
8
RASTER
10
160.23
20
152.52
30
0
0
VERTEX
8
RASTER
10
159.85
20
152.52
30
0
0
SEQEND
8
RASTER
0
POLYLINE
8
RASTER
66
1
70
1
0
VERTEX
8
RASTER
10
158.71
20
152.52
30
0
0
VERTEX
8
RASTER
10
159.85
20
152.52
30
0
0
VERTEX
8
RASTER
10
159.85
20
152.14
30
0
0
VERTEX
8
RASTER
10
158.71
20
152.14
30
0
0
SEQEND
8
RASTER
0
POLYLINE
8
RASTER
66
1
70
1
0
VERTEX
8
RASTER
10
160.99
20
154.8
30
0
0
VERTEX
8
RASTER
10
162.51
20
154.8
30
0
0
VERTEX
8
RASTER
10
162.51
20
154.42
30
0
0
VERTEX
8
RASTER
10
160.99
20
154.42
30
0
0
SEQEND
8
RASTER
0
POLYLINE
8
RASTER
66
1
70
1
0
VERTEX
8
RASTER
10
160.61
20
154.42
30
0
0
VERTEX
8
RASTER
10
160.99
20
154.42
30
0
0
VERTEX
8
RASTER
10
160.99
20
154.04
30
0
0
VERTEX
8
RASTER
10
160.61
20
154.04
30
0
0
SEQEND
8
RASTER
0
POLYLINE
8
RASTER
66
1
70
1
0
VERTEX
8
RASTER
10
160.61
20
154.04
30
0
0
VERTEX
8
RASTER
10
160.99
20
154.04
30
0
0
VERTEX
8
RASTER
10
160.99
20
153.66
30
0
0
VERTEX
8
RASTER
10
160.61
20
153.66
30
0
0
SEQEND
8
RASTER
0
POLYLINE
8
RASTER
66
1
70
1
0
VERTEX
8
RASTER
10
160.61
20
153.66
30
0
0
VERTEX
8
RASTER
10
160.99
20
153.66
30
0
0
VERTEX
8
RASTER
10
160.99
20
153.28
30
0
0
VERTEX
8
RASTER
10
160.61
20
153.28
30
0
0
SEQEND
8
RASTER
0
POLYLINE
8
RASTER
66
1
70
1
0
VERTEX
8
RASTER
10
161.37
20
153.66
30
0
0
VERTEX
8
RASTER
10
162.51
20
153.66
30
0
0
VERTEX
8
RASTER
10
162.51
20
153.28
30
0
0
VERTEX
8
RASTER
10
161.37
20
153.28
30
0
0
SEQEND
8
RASTER
0
POLYLINE
8
RASTER
66
1
70
1
0
VERTEX
8
RASTER
10
160.61
20
153.28
30
0
0
VERTEX
8
RASTER
10
160.99
20
153.28
30
0
0
VERTEX
8
RASTER
10
160.99
20
152.9
30
0
0
VERTEX
8
RASTER
10
160.61
20
152.9
30
0
0
SEQEND
8
RASTER
0
POLYLINE
8
RASTER
66
1
70
1
0
VERTEX
8
RASTER
10
162.13
20
153.28
30
0
0
VERTEX
8
RASTER
10
162.51
20
153.28
30
0
0
VERTEX
8
RASTER
10
162.51
20
152.9
30
0
0
VERTEX
8
RASTER
10
162.13
20
152.9
30
0
0
SEQEND
8
RASTER
0
POLYLINE
8
RASTER
66
1
70
1
0
VERTEX
8
RASTER
10
160.61
20
152.9
30
0
0
VERTEX
8
RASTER
10
160.99
20
152.9
30
0
0
VERTEX
8
RASTER
10
160.99
20
152.52
30
0
0
VERTEX
8
RASTER
10
160.61
20
152.52
30
0
0
SEQEND
8
RASTER
0
POLYLINE
8
RASTER
66
1
70
1
0
VERTEX
8
RASTER
10
162.13
20
152.9
30
0
0
VERTEX
8
RASTER
10
162.51
20
152.9
30
0
0
VERTEX
8
RASTER
10
162.51
20
152.52
30
0
0
VERTEX
8
RASTER
10
162.13
20
152.52
30
0
0
SEQEND
8
RASTER
0
POLYLINE
8
RASTER
66
1
70
1
0
VERTEX
8
RASTER
10
160.99
20
152.52
30
0
0
VERTEX
8
RASTER
10
162.51
20
152.52
30
0
0
VERTEX
8
RASTER
10
162.51
20
152.14
30
0
0
VERTEX
8
RASTER
10
160.99
20
152.14
30
0
0
SEQEND
8
RASTER
0
POLYLINE
8
RASTER
66
1
70
1
0
VERTEX
8
RASTER
10
163.27
20
154.8
30
0
0
VERTEX
8
RASTER
10
164.41
20
154.8
30
0
0
VERTEX
8
RASTER
10
164.41
20
154.42
30
0
0
VERTEX
8
RASTER
10
163.27
20
154.42
30
0
0
SEQEND
8
RASTER
0
POLYLINE
8
RASTER
66
1
70
1
0
VERTEX
8
RASTER
10
162.89
20
154.42
30
0
0
VERTEX
8
RASTER
10
163.27
20
154.42
30
0
0
VERTEX
8
RASTER
10
163.27
20
154.04
30
0
0
VERTEX
8
RASTER
10
162.89
20
154.04
30
0
0
SEQEND
8
RASTER
0
POLYLINE
8
RASTER
66
1
70
1
0
VERTEX
8
RASTER
10
164.41
20
154.42
30
0
0
VERTEX
8
RASTER
10
164.79
20
154.42
30
0
0
VERTEX
8
RASTER
10
164.79
20
154.04
30
0
0
VERTEX
8
RASTER
10
164.41
20
154.04
30
0
0
SEQEND
8
RASTER
0
POLYLINE
8
RASTER
66
1
70
1
0
VERTEX
8
RASTER
10
162.89
20
154.04
30
0
0
VERTEX
8
RASTER
10
163.27
20
154.04
30
0
0
VERTEX
8
RASTER
10
163.27
20
153.66
30
0
0
VERTEX
8
RASTER
10
162.89
20
153.66
30
0
0
SEQEND
8
RASTER
0
POLYLINE
8
RASTER
66
1
70
1
0
VERTEX
8
RASTER
10
164.41
20
154.04
30
0
0
VERTEX
8
RASTER
10
164.79
20
154.04
30
0
0
VERTEX
8
RASTER
10
164.79
20
153.66
30
0
0
VERTEX
8
RASTER
10
164.41
20
153.66
30
0
0
SEQEND
8
RASTER
0
POLYLINE
8
RASTER
66
1
70
1
0
VERTEX
8
RASTER
10
162.89
20
153.66
30
0
0
VERTEX
8
RASTER
10
164.79
20
153.66
30
0
0
VERTEX
8
RASTER
10
164.79
20
153.28
30
0
0
VERTEX
8
RASTER
10
162.89
20
153.28
30
0
0
SEQEND
8
RASTER
0
POLYLINE
8
RASTER
66
1
70
1
0
VERTEX
8
RASTER
10
162.89
20
153.28
30
0
0
VERTEX
8
RASTER
10
163.27
20
153.28
30
0
0
VERTEX
8
RASTER
10
163.27
20
152.9
30
0
0
VERTEX
8
RASTER
10
162.89
20
152.9
30
0
0
SEQEND
8
RASTER
0
POLYLINE
8
RASTER
66
1
70
1
0
VERTEX
8
RASTER
10
164.41
20
153.28
30
0
0
VERTEX
8
RASTER
10
164.79
20
153.28
30
0
0
VERTEX
8
RASTER
10
164.79
20
152.9
30
0
0
VERTEX
8
RASTER
10
164.41
20
152.9
30
0
0
SEQEND
8
RASTER
0
POLYLINE
8
RASTER
66
1
70
1
0
VERTEX
8
RASTER
10
162.89
20
152.9
30
0
0
VERTEX
8
RASTER
10
163.27
20
152.9
30
0
0
VERTEX
8
RASTER
10
163.27
20
152.52
30
0
0
VERTEX
8
RASTER
10
162.89
20
152.52
30
0
0
SEQEND
8
RASTER
0
POLYLINE
8
RASTER
66
1
70
1
0
VERTEX
8
RASTER
10
164.41
20
152.9
30
0
0
VERTEX
8
RASTER
10
164.79
20
152.9
30
0
0
VERTEX
8
RASTER
10
164.79
20
152.52
30
0
0
VERTEX
8
RASTER
10
164.41
20
152.52
30
0
0
SEQEND
8
RASTER
0
POLYLINE
8
RASTER
66
1
70
1
0
VERTEX
8
RASTER
10
162.89
20
152.52
30
0
0
VERTEX
8
RASTER
10
163.27
20
152.52
30
0
0
VERTEX
8
RASTER
10
163.27
20
152.14
30
0
0
VERTEX
8
RASTER
10
162.89
20
152.14
30
0
0
SEQEND
8
RASTER
0
POLYLINE
8
RASTER
66
1
70
1
0
VERTEX
8
RASTER
10
164.41
20
152.52
30
0
0
VERTEX
8
RASTER
10
164.79
20
152.52
30
0
0
VERTEX
8
RASTER
10
164.79
20
152.14
30
0
0
VERTEX
8
RASTER
10
164.41
20
152.14
30
0
0
SEQEND
8
RASTER
0
POLYLINE
8
RASTER
66
1
70
1
0
VERTEX
8
RASTER
10
159.788
20
180.28
30
0
0
VERTEX
8
RASTER
10
159.903
20
180.272
30
0
0
VERTEX
8
RASTER
10
160.003
20
180.249
30
0
0
VERTEX
8
RASTER
10
160.088
20
180.211
30
0
0
VERTEX
8
RASTER
10
160.157
20
180.157
30
0
0
VERTEX
8
RASTER
10
160.211
20
180.088
30
0
0
VERTEX
8
RASTER
10
160.249
20
180.003
30
0
0
VERTEX
8
RASTER
10
160.272
20
179.903
30
0
0
VERTEX
8
RASTER
10
160.28
20
179.788
30
0
0
VERTEX
8
RASTER
10
160.28
20
169.62
30
0
0
VERTEX
8
RASTER
10
160.272
20
169.505
30
0
0
VERTEX
8
RASTER
10
160.249
20
169.405
30
0
0
VERTEX
8
RASTER
10
160.211
20
169.32
30
0
0
VERTEX
8
RASTER
10
160.157
20
169.251
30
0
0
VERTEX
8
RASTER
10
160.088
20
169.197
30
0
0
VERTEX
8
RASTER
10
160.003
20
169.159
30
0
0
VERTEX
8
RASTER
10
159.903
20
169.136
30
0
0
VERTEX
8
RASTER
10
159.788
20
169.128
30
0
0
VERTEX
8
RASTER
10
154.212
20
169.128
30
0
0
VERTEX
8
RASTER
10
154.097
20
169.136
30
0
0
VERTEX
8
RASTER
10
153.997
20
169.159
30
0
0
VERTEX
8
RASTER
10
153.912
20
169.197
30
0
0
VERTEX
8
RASTER
10
153.843
20
169.251
30
0
0
VERTEX
8
RASTER
10
153.789
20
169.32
30
0
0
VERTEX
8
RASTER
10
153.751
20
169.405
30
0
0
VERTEX
8
RASTER
10
153.728
20
169.505
30
0
0
VERTEX
8
RASTER
10
153.72
20
169.62
30
0
0
VERTEX
8
RASTER
10
153.72
20
179.788
30
0
0
VERTEX
8
RASTER
10
153.728
20
179.903
30
0
0
VERTEX
8
RASTER
10
153.751
20
180.003
30
0
0
VERTEX
8
RASTER
10
153.789
20
180.088
30
0
0
VERTEX
8
RASTER
10
153.843
20
180.157
30
0
0
VERTEX
8
RASTER
10
153.912
20
180.211
30
0
0
VERTEX
8
RASTER
10
153.997
20
180.249
30
0
0
VERTEX
8
RASTER
10
154.097
20
180.272
30
0
0
VERTEX
8
RASTER
10
154.212
20
180.28
30
0
0
SEQEND
8
RASTER
0
POLYLINE
8
RASTER
66
1
70
1
0
VERTEX
8
RASTER
10
159.788
20
178.181
30
0
0
VERTEX
8
RASTER
10
154.212
20
178.181
30
0
0
VERTEX
8
RASTER
10
154.212
20
177.787
30
0
0
VERTEX
8
RASTER
10
159.788
20
177.787
30
0
0
VERTEX
8
RASTER
10
159.788
20
178.181
30
0
0
SEQEND
8
RASTER
0
POLYLINE
8
RASTER
66
1
70
1
0
VERTEX
8
RASTER
10
159.788
20
176.213
30
0
0
VERTEX
8
RASTER
10
154.212
20
176.213
30
0
0
VERTEX
8
RASTER
10
154.212
20
175.819
30
0
0
VERTEX
8
RASTER
10
159.788
20
175.819
30
0
0
VERTEX
8
RASTER
10
159.788
20
176.213
30
0
0
SEQEND
8
RASTER
0
POLYLINE
8
RASTER
66
1
70
1
0
VERTEX
8
RASTER
10
159.788
20
174.245
30
0
0
VERTEX
8
RASTER
10
154.212
20
174.245
30
0
0
VERTEX
8
RASTER
10
154.212
20
173.851
30
0
0
VERTEX
8
RASTER
10
159.788
20
173.851
30
0
0
VERTEX
8
RASTER
10
159.788
20
174.245
30
0
0
SEQEND
8
RASTER
0
POLYLINE
8
RASTER
66
1
70
1
0
VERTEX
8
RASTER
10
159.788
20
172.277
30
0
0
VERTEX
8
RASTER
10
154.212
20
172.277
30
0
0
VERTEX
8
RASTER
10
154.212
20
171.883
30
0
0
VERTEX
8
RASTER
10
159.788
20
171.883
30
0
0
VERTEX
8
RASTER
10
159.788
20
172.277
30
0
0
SEQEND
8
RASTER
0
POLYLINE
8
RASTER
66
1
70
1
0
VERTEX
8
RASTER
10
159.788
20
170.309
30
0
0
VERTEX
8
RASTER
10
154.212
20
170.309
30
0
0
VERTEX
8
RASTER
10
154.212
20
169.915
30
0
0
VERTEX
8
RASTER
10
159.788
20
169.915
30
0
0
VERTEX
8
RASTER
10
159.788
20
170.309
30
0
0
SEQEND
8
RASTER
0
CIRCLE
8
RASTER
10
161.592
20
181.264
30
0
40
0.82
0
CIRCLE
8
RASTER
10
152.408
20
181.264
30
0
40
0.82
0
POLYLINE
8
RASTER
66
1
70
1
0
VERTEX
8
RASTER
10
154.212
20
133.72
30
0
0
VERTEX
8
RASTER
10
154.097
20
133.728
30
0
0
VERTEX
8
RASTER
10
153.997
20
133.751
30
0
0
VERTEX
8
RASTER
10
153.912
20
133.789
30
0
0
VERTEX
8
RASTER
10
153.843
20
133.843
30
0
0
VERTEX
8
RASTER
10
153.789
20
133.912
30
0
0
VERTEX
8
RASTER
10
153.751
20
133.997
30
0
0
VERTEX
8
RASTER
10
153.728
20
134.097
30
0
0
VERTEX
8
RASTER
10
153.72
20
134.212
30
0
0
VERTEX
8
RASTER
10
153.72
20
144.38
30
0
0
VERTEX
8
RASTER
10
153.728
20
144.495
30
0
0
VERTEX
8
RASTER
10
153.751
20
144.595
30
0
0
VERTEX
8
RASTER
10
153.789
20
144.68
30
0
0
VERTEX
8
RASTER
10
153.843
20
144.749
30
0
0
VERTEX
8
RASTER
10
153.912
20
144.803
30
0
0
VERTEX
8
RASTER
10
153.997
20
144.841
30
0
0
VERTEX
8
RASTER
10
154.097
20
144.864
30
0
0
VERTEX
8
RASTER
10
154.212
20
144.872
30
0
0
VERTEX
8
RASTER
10
159.788
20
144.872
30
0
0
VERTEX
8
RASTER
10
159.903
20
144.864
30
0
0
VERTEX
8
RASTER
10
160.003
20
144.841
30
0
0
VERTEX
8
RASTER
10
160.088
20
144.803
30
0
0
VERTEX
8
RASTER
10
160.157
20
144.749
30
0
0
VERTEX
8
RASTER
10
160.211
20
144.68
30
0
0
VERTEX
8
RASTER
10
160.249
20
144.595
30
0
0
VERTEX
8
RASTER
10
160.272
20
144.495
30
0
0
VERTEX
8
RASTER
10
160.28
20
144.38
30
0
0
VERTEX
8
RASTER
10
160.28
20
134.212
30
0
0
VERTEX
8
RASTER
10
160.272
20
134.097
30
0
0
VERTEX
8
RASTER
10
160.249
20
133.997
30
0
0
VERTEX
8
RASTER
10
160.211
20
133.912
30
0
0
VERTEX
8
RASTER
10
160.157
20
133.843
30
0
0
VERTEX
8
RASTER
10
160.088
20
133.789
30
0
0
VERTEX
8
RASTER
10
160.003
20
133.751
30
0
0
VERTEX
8
RASTER
10
159.903
20
133.728
30
0
0
VERTEX
8
RASTER
10
159.788
20
133.72
30
0
0
SEQEND
8
RASTER
0
POLYLINE
8
RASTER
66
1
70
1
0
VERTEX
8
RASTER
10
154.212
20
135.819
30
0
0
VERTEX
8
RASTER
10
159.788
20
135.819
30
0
0
VERTEX
8
RASTER
10
159.788
20
136.213
30
0
0
VERTEX
8
RASTER
10
154.212
20
136.213
30
0
0
VERTEX
8
RASTER
10
154.212
20
135.819
30
0
0
SEQEND
8
RASTER
0
POLYLINE
8
RASTER
66
1
70
1
0
VERTEX
8
RASTER
10
154.212
20
137.787
30
0
0
VERTEX
8
RASTER
10
159.788
20
137.787
30
0
0
VERTEX
8
RASTER
10
159.788
20
138.181
30
0
0
VERTEX
8
RASTER
10
154.212
20
138.181
30
0
0
VERTEX
8
RASTER
10
154.212
20
137.787
30
0
0
SEQEND
8
RASTER
0
POLYLINE
8
RASTER
66
1
70
1
0
VERTEX
8
RASTER
10
154.212
20
139.755
30
0
0
VERTEX
8
RASTER
10
159.788
20
139.755
30
0
0
VERTEX
8
RASTER
10
159.788
20
140.149
30
0
0
VERTEX
8
RASTER
10
154.212
20
140.149
30
0
0
VERTEX
8
RASTER
10
154.212
20
139.755
30
0
0
SEQEND
8
RASTER
0
POLYLINE
8
RASTER
66
1
70
1
0
VERTEX
8
RASTER
10
154.212
20
141.723
30
0
0
VERTEX
8
RASTER
10
159.788
20
141.723
30
0
0
VERTEX
8
RASTER
10
159.788
20
142.117
30
0
0
VERTEX
8
RASTER
10
154.212
20
142.117
30
0
0
VERTEX
8
RASTER
10
154.212
20
141.723
30
0
0
SEQEND
8
RASTER
0
POLYLINE
8
RASTER
66
1
70
1
0
VERTEX
8
RASTER
10
154.212
20
143.691
30
0
0
VERTEX
8
RASTER
10
159.788
20
143.691
30
0
0
VERTEX
8
RASTER
10
159.788
20
144.085
30
0
0
VERTEX
8
RASTER
10
154.212
20
144.085
30
0
0
VERTEX
8
RASTER
10
154.212
20
143.691
30
0
0
SEQEND
8
RASTER
0
CIRCLE
8
RASTER
10
152.408
20
132.736
30
0
40
0.82
0
CIRCLE
8
RASTER
10
161.592
20
132.736
30
0
40
0.82
0
POLYLINE
8
RASTER
66
1
70
1
0
VERTEX
8
RASTER
10
180.28
20
154.212
30
0
0
VERTEX
8
RASTER
10
180.272
20
154.097
30
0
0
VERTEX
8
RASTER
10
180.249
20
153.997
30
0
0
VERTEX
8
RASTER
10
180.211
20
153.912
30
0
0
VERTEX
8
RASTER
10
180.157
20
153.843
30
0
0
VERTEX
8
RASTER
10
180.088
20
153.789
30
0
0
VERTEX
8
RASTER
10
180.003
20
153.751
30
0
0
VERTEX
8
RASTER
10
179.903
20
153.728
30
0
0
VERTEX
8
RASTER
10
179.788
20
153.72
30
0
0
VERTEX
8
RASTER
10
169.62
20
153.72
30
0
0
VERTEX
8
RASTER
10
169.505
20
153.728
30
0
0
VERTEX
8
RASTER
10
169.405
20
153.751
30
0
0
VERTEX
8
RASTER
10
169.32
20
153.789
30
0
0
VERTEX
8
RASTER
10
169.251
20
153.843
30
0
0
VERTEX
8
RASTER
10
169.197
20
153.912
30
0
0
VERTEX
8
RASTER
10
169.159
20
153.997
30
0
0
VERTEX
8
RASTER
10
169.136
20
154.097
30
0
0
VERTEX
8
RASTER
10
169.128
20
154.212
30
0
0
VERTEX
8
RASTER
10
169.128
20
159.788
30
0
0
VERTEX
8
RASTER
10
169.136
20
159.903
30
0
0
VERTEX
8
RASTER
10
169.159
20
160.003
30
0
0
VERTEX
8
RASTER
10
169.197
20
160.088
30
0
0
VERTEX
8
RASTER
10
169.251
20
160.157
30
0
0
VERTEX
8
RASTER
10
169.32
20
160.211
30
0
0
VERTEX
8
RASTER
10
169.405
20
160.249
30
0
0
VERTEX
8
RASTER
10
169.505
20
160.272
30
0
0
VERTEX
8
RASTER
10
169.62
20
160.28
30
0
0
VERTEX
8
RASTER
10
179.788
20
160.28
30
0
0
VERTEX
8
RASTER
10
179.903
20
160.272
30
0
0
VERTEX
8
RASTER
10
180.003
20
160.249
30
0
0
VERTEX
8
RASTER
10
180.088
20
160.211
30
0
0
VERTEX
8
RASTER
10
180.157
20
160.157
30
0
0
VERTEX
8
RASTER
10
180.211
20
160.088
30
0
0
VERTEX
8
RASTER
10
180.249
20
160.003
30
0
0
VERTEX
8
RASTER
10
180.272
20
159.903
30
0
0
VERTEX
8
RASTER
10
180.28
20
159.788
30
0
0
SEQEND
8
RASTER
0
POLYLINE
8
RASTER
66
1
70
1
0
VERTEX
8
RASTER
10
178.181
20
154.212
30
0
0
VERTEX
8
RASTER
10
178.181
20
159.788
30
0
0
VERTEX
8
RASTER
10
177.787
20
159.788
30
0
0
VERTEX
8
RASTER
10
177.787
20
154.212
30
0
0
VERTEX
8
RASTER
10
178.181
20
154.212
30
0
0
SEQEND
8
RASTER
0
POLYLINE
8
RASTER
66
1
70
1
0
VERTEX
8
RASTER
10
176.213
20
154.212
30
0
0
VERTEX
8
RASTER
10
176.213
20
159.788
30
0
0
VERTEX
8
RASTER
10
175.819
20
159.788
30
0
0
VERTEX
8
RASTER
10
175.819
20
154.212
30
0
0
VERTEX
8
RASTER
10
176.213
20
154.212
30
0
0
SEQEND
8
RASTER
0
POLYLINE
8
RASTER
66
1
70
1
0
VERTEX
8
RASTER
10
174.245
20
154.212
30
0
0
VERTEX
8
RASTER
10
174.245
20
159.788
30
0
0
VERTEX
8
RASTER
10
173.851
20
159.788
30
0
0
VERTEX
8
RASTER
10
173.851
20
154.212
30
0
0
VERTEX
8
RASTER
10
174.245
20
154.212
30
0
0
SEQEND
8
RASTER
0
POLYLINE
8
RASTER
66
1
70
1
0
VERTEX
8
RASTER
10
172.277
20
154.212
30
0
0
VERTEX
8
RASTER
10
172.277
20
159.788
30
0
0
VERTEX
8
RASTER
10
171.883
20
159.788
30
0
0
VERTEX
8
RASTER
10
171.883
20
154.212
30
0
0
VERTEX
8
RASTER
10
172.277
20
154.212
30
0
0
SEQEND
8
RASTER
0
POLYLINE
8
RASTER
66
1
70
1
0
VERTEX
8
RASTER
10
170.309
20
154.212
30
0
0
VERTEX
8
RASTER
10
170.309
20
159.788
30
0
0
VERTEX
8
RASTER
10
169.915
20
159.788
30
0
0
VERTEX
8
RASTER
10
169.915
20
154.212
30
0
0
VERTEX
8
RASTER
10
170.309
20
154.212
30
0
0
SEQEND
8
RASTER
0
CIRCLE
8
RASTER
10
181.264
20
152.408
30
0
40
0.82
0
CIRCLE
8
RASTER
10
181.264
20
161.592
30
0
40
0.82
0
POLYLINE
8
RASTER
66
1
70
1
0
VERTEX
8
RASTER
10
133.72
20
159.788
30
0
0
VERTEX
8
RASTER
10
133.728
20
159.903
30
0
0
VERTEX
8
RASTER
10
133.751
20
160.003
30
0
0
VERTEX
8
RASTER
10
133.789
20
160.088
30
0
0
VERTEX
8
RASTER
10
133.843
20
160.157
30
0
0
VERTEX
8
RASTER
10
133.912
20
160.211
30
0
0
VERTEX
8
RASTER
10
133.997
20
160.249
30
0
0
VERTEX
8
RASTER
10
134.097
20
160.272
30
0
0
VERTEX
8
RASTER
10
134.212
20
160.28
30
0
0
VERTEX
8
RASTER
10
144.38
20
160.28
30
0
0
VERTEX
8
RASTER
10
144.495
20
160.272
30
0
0
VERTEX
8
RASTER
10
144.595
20
160.249
30
0
0
VERTEX
8
RASTER
10
144.68
20
160.211
30
0
0
VERTEX
8
RASTER
10
144.749
20
160.157
30
0
0
VERTEX
8
RASTER
10
144.803
20
160.088
30
0
0
VERTEX
8
RASTER
10
144.841
20
160.003
30
0
0
VERTEX
8
RASTER
10
144.864
20
159.903
30
0
0
VERTEX
8
RASTER
10
144.872
20
159.788
30
0
0
VERTEX
8
RASTER
10
144.872
20
154.212
30
0
0
VERTEX
8
RASTER
10
144.864
20
154.097
30
0
0
VERTEX
8
RASTER
10
144.841
20
153.997
30
0
0
VERTEX
8
RASTER
10
144.803
20
153.912
30
0
0
VERTEX
8
RASTER
10
144.749
20
153.843
30
0
0
VERTEX
8
RASTER
10
144.68
20
153.789
30
0
0
VERTEX
8
RASTER
10
144.595
20
153.751
30
0
0
VERTEX
8
RASTER
10
144.495
20
153.728
30
0
0
VERTEX
8
RASTER
10
144.38
20
153.72
30
0
0
VERTEX
8
RASTER
10
134.212
20
153.72
30
0
0
VERTEX
8
RASTER
10
134.097
20
153.728
30
0
0
VERTEX
8
RASTER
10
133.997
20
153.751
30
0
0
VERTEX
8
RASTER
10
133.912
20
153.789
30
0
0
VERTEX
8
RASTER
10
133.843
20
153.843
30
0
0
VERTEX
8
RASTER
10
133.789
20
153.912
30
0
0
VERTEX
8
RASTER
10
133.751
20
153.997
30
0
0
VERTEX
8
RASTER
10
133.728
20
154.097
30
0
0
VERTEX
8
RASTER
10
133.72
20
154.212
30
0
0
SEQEND
8
RASTER
0
POLYLINE
8
RASTER
66
1
70
1
0
VERTEX
8
RASTER
10
135.819
20
159.788
30
0
0
VERTEX
8
RASTER
10
135.819
20
154.212
30
0
0
VERTEX
8
RASTER
10
136.213
20
154.212
30
0
0
VERTEX
8
RASTER
10
136.213
20
159.788
30
0
0
VERTEX
8
RASTER
10
135.819
20
159.788
30
0
0
SEQEND
8
RASTER
0
POLYLINE
8
RASTER
66
1
70
1
0
VERTEX
8
RASTER
10
137.787
20
159.788
30
0
0
VERTEX
8
RASTER
10
137.787
20
154.212
30
0
0
VERTEX
8
RASTER
10
138.181
20
154.212
30
0
0
VERTEX
8
RASTER
10
138.181
20
159.788
30
0
0
VERTEX
8
RASTER
10
137.787
20
159.788
30
0
0
SEQEND
8
RASTER
0
POLYLINE
8
RASTER
66
1
70
1
0
VERTEX
8
RASTER
10
139.755
20
159.788
30
0
0
VERTEX
8
RASTER
10
139.755
20
154.212
30
0
0
VERTEX
8
RASTER
10
140.149
20
154.212
30
0
0
VERTEX
8
RASTER
10
140.149
20
159.788
30
0
0
VERTEX
8
RASTER
10
139.755
20
159.788
30
0
0
SEQEND
8
RASTER
0
POLYLINE
8
RASTER
66
1
70
1
0
VERTEX
8
RASTER
10
141.723
20
159.788
30
0
0
VERTEX
8
RASTER
10
141.723
20
154.212
30
0
0
VERTEX
8
RASTER
10
142.117
20
154.212
30
0
0
VERTEX
8
RASTER
10
142.117
20
159.788
30
0
0
VERTEX
8
RASTER
10
141.723
20
159.788
30
0
0
SEQEND
8
RASTER
0
POLYLINE
8
RASTER
66
1
70
1
0
VERTEX
8
RASTER
10
143.691
20
159.788
30
0
0
VERTEX
8
RASTER
10
143.691
20
154.212
30
0
0
VERTEX
8
RASTER
10
144.085
20
154.212
30
0
0
VERTEX
8
RASTER
10
144.085
20
159.788
30
0
0
VERTEX
8
RASTER
10
143.691
20
159.788
30
0
0
SEQEND
8
RASTER
0
CIRCLE
8
RASTER
10
132.736
20
161.592
30
0
40
0.82
0
CIRCLE
8
RASTER
10
132.736
20
152.408
30
0
40
0.82
0
POLYLINE
8
CUT
66
1
70
1
0
VERTEX
8
CUT
10
0
20
210
30
0
0
VERTEX
8
CUT
10
0.063
20
210.938
30
0
0
VERTEX
8
CUT
10
0.25
20
211.75
30
0
0
VERTEX
8
CUT
10
0.563
20
212.438
30
0
0
VERTEX
8
CUT
10
1
20
213
30
0
0
VERTEX
8
CUT
10
1.563
20
213.438
30
0
0
VERTEX
8
CUT
10
2.25
20
213.75
30
0
0
VERTEX
8
CUT
10
3.063
20
213.938
30
0
0
VERTEX
8
CUT
10
4
20
214
30
0
0
VERTEX
8
CUT
10
16
20
214
30
0
0
VERTEX
8
CUT
10
16.938
20
214.063
30
0
0
VERTEX
8
CUT
10
17.75
20
214.25
30
0
0
VERTEX
8
CUT
10
18.438
20
214.563
30
0
0
VERTEX
8
CUT
10
19
20
215
30
0
0
VERTEX
8
CUT
10
19.438
20
215.563
30
0
0
VERTEX
8
CUT
10
19.75
20
216.25
30
0
0
VERTEX
8
CUT
10
19.938
20
217.063
30
0
0
VERTEX
8
CUT
10
20
20
218
30
0
0
VERTEX
8
CUT
10
20
20
250
30
0
0
VERTEX
8
CUT
10
20.063
20
250.938
30
0
0
VERTEX
8
CUT
10
20.25
20
251.75
30
0
0
VERTEX
8
CUT
10
20.563
20
252.438
30
0
0
VERTEX
8
CUT
10
21
20
253
30
0
0
VERTEX
8
CUT
10
21.563
20
253.438
30
0
0
VERTEX
8
CUT
10
22.25
20
253.75
30
0
0
VERTEX
8
CUT
10
23.063
20
253.938
30
0
0
VERTEX
8
CUT
10
24
20
254
30
0
0
VERTEX
8
CUT
10
36
20
254
30
0
0
VERTEX
8
CUT
10
36.938
20
254.063
30
0
0
VERTEX
8
CUT
10
37.75
20
254.25
30
0
0
VERTEX
8
CUT
10
38.438
20
254.563
30
0
0
VERTEX
8
CUT
10
39
20
255
30
0
0
VERTEX
8
CUT
10
39.438
20
255.563
30
0
0
VERTEX
8
CUT
10
39.75
20
256.25
30
0
0
VERTEX
8
CUT
10
39.938
20
257.063
30
0
0
VERTEX
8
CUT
10
40
20
258
30
0
0
VERTEX
8
CUT
10
40
20
270
30
0
0
VERTEX
8
CUT
10
40.063
20
270.938
30
0
0
VERTEX
8
CUT
10
40.25
20
271.75
30
0
0
VERTEX
8
CUT
10
40.563
20
272.438
30
0
0
VERTEX
8
CUT
10
41
20
273
30
0
0
VERTEX
8
CUT
10
41.563
20
273.438
30
0
0
VERTEX
8
CUT
10
42.25
20
273.75
30
0
0
VERTEX
8
CUT
10
43.063
20
273.938
30
0
0
VERTEX
8
CUT
10
44
20
274
30
0
0
VERTEX
8
CUT
10
56
20
274
30
0
0
VERTEX
8
CUT
10
56.938
20
274.063
30
0
0
VERTEX
8
CUT
10
57.75
20
274.25
30
0
0
VERTEX
8
CUT
10
58.438
20
274.563
30
0
0
VERTEX
8
CUT
10
59
20
275
30
0
0
VERTEX
8
CUT
10
59.438
20
275.563
30
0
0
VERTEX
8
CUT
10
59.75
20
276.25
30
0
0
VERTEX
8
CUT
10
59.938
20
277.063
30
0
0
VERTEX
8
CUT
10
60
20
278
30
0
0
VERTEX
8
CUT
10
60
20
290
30
0
0
VERTEX
8
CUT
10
60.063
20
290.938
30
0
0
VERTEX
8
CUT
10
60.25
20
291.75
30
0
0
VERTEX
8
CUT
10
60.563
20
292.438
30
0
0
VERTEX
8
CUT
10
61
20
293
30
0
0
VERTEX
8
CUT
10
61.563
20
293.438
30
0
0
VERTEX
8
CUT
10
62.25
20
293.75
30
0
0
VERTEX
8
CUT
10
63.063
20
293.938
30
0
0
VERTEX
8
CUT
10
64
20
294
30
0
0
VERTEX
8
CUT
10
96
20
294
30
0
0
VERTEX
8
CUT
10
96.938
20
294.063
30
0
0
VERTEX
8
CUT
10
97.75
20
294.25
30
0
0
VERTEX
8
CUT
10
98.438
20
294.563
30
0
0
VERTEX
8
CUT
10
99
20
295
30
0
0
VERTEX
8
CUT
10
99.438
20
295.563
30
0
0
VERTEX
8
CUT
10
99.75
20
296.25
30
0
0
VERTEX
8
CUT
10
99.938
20
297.063
30
0
0
VERTEX
8
CUT
10
100
20
298
30
0
0
VERTEX
8
CUT
10
100
20
310
30
0
0
VERTEX
8
CUT
10
100.063
20
310.938
30
0
0
VERTEX
8
CUT
10
100.25
20
311.75
30
0
0
VERTEX
8
CUT
10
100.563
20
312.438
30
0
0
VERTEX
8
CUT
10
101
20
313
30
0
0
VERTEX
8
CUT
10
101.563
20
313.438
30
0
0
VERTEX
8
CUT
10
102.25
20
313.75
30
0
0
VERTEX
8
CUT
10
103.063
20
313.938
30
0
0
VERTEX
8
CUT
10
104
20
314
30
0
0
VERTEX
8
CUT
10
210
20
314
30
0
0
VERTEX
8
CUT
10
210.938
20
313.938
30
0
0
VERTEX
8
CUT
10
211.75
20
313.75
30
0
0
VERTEX
8
CUT
10
212.438
20
313.438
30
0
0
VERTEX
8
CUT
10
213
20
313
30
0
0
VERTEX
8
CUT
10
213.438
20
312.438
30
0
0
VERTEX
8
CUT
10
213.75
20
311.75
30
0
0
VERTEX
8
CUT
10
213.938
20
310.938
30
0
0
VERTEX
8
CUT
10
214
20
310
30
0
0
VERTEX
8
CUT
10
214
20
298
30
0
0
VERTEX
8
CUT
10
214.063
20
297.063
30
0
0
VERTEX
8
CUT
10
214.25
20
296.25
30
0
0
VERTEX
8
CUT
10
214.563
20
295.563
30
0
0
VERTEX
8
CUT
10
215
20
295
30
0
0
VERTEX
8
CUT
10
215.563
20
294.563
30
0
0
VERTEX
8
CUT
10
216.25
20
294.25
30
0
0
VERTEX
8
CUT
10
217.063
20
294.063
30
0
0
VERTEX
8
CUT
10
218
20
294
30
0
0
VERTEX
8
CUT
10
250
20
294
30
0
0
VERTEX
8
CUT
10
250.938
20
293.938
30
0
0
VERTEX
8
CUT
10
251.75
20
293.75
30
0
0
VERTEX
8
CUT
10
252.438
20
293.438
30
0
0
VERTEX
8
CUT
10
253
20
293
30
0
0
VERTEX
8
CUT
10
253.438
20
292.438
30
0
0
VERTEX
8
CUT
10
253.75
20
291.75
30
0
0
VERTEX
8
CUT
10
253.938
20
290.938
30
0
0
VERTEX
8
CUT
10
254
20
290
30
0
0
VERTEX
8
CUT
10
254
20
278
30
0
0
VERTEX
8
CUT
10
254.063
20
277.063
30
0
0
VERTEX
8
CUT
10
254.25
20
276.25
30
0
0
VERTEX
8
CUT
10
254.563
20
275.563
30
0
0
VERTEX
8
CUT
10
255
20
275
30
0
0
VERTEX
8
CUT
10
255.563
20
274.563
30
0
0
VERTEX
8
CUT
10
256.25
20
274.25
30
0
0
VERTEX
8
CUT
10
257.063
20
274.063
30
0
0
VERTEX
8
CUT
10
258
20
274
30
0
0
VERTEX
8
CUT
10
270
20
274
30
0
0
VERTEX
8
CUT
10
270.938
20
273.938
30
0
0
VERTEX
8
CUT
10
271.75
20
273.75
30
0
0
VERTEX
8
CUT
10
272.438
20
273.438
30
0
0
VERTEX
8
CUT
10
273
20
273
30
0
0
VERTEX
8
CUT
10
273.438
20
272.438
30
0
0
VERTEX
8
CUT
10
273.75
20
271.75
30
0
0
VERTEX
8
CUT
10
273.938
20
270.938
30
0
0
VERTEX
8
CUT
10
274
20
270
30
0
0
VERTEX
8
CUT
10
274
20
258
30
0
0
VERTEX
8
CUT
10
274.063
20
257.063
30
0
0
VERTEX
8
CUT
10
274.25
20
256.25
30
0
0
VERTEX
8
CUT
10
274.563
20
255.563
30
0
0
VERTEX
8
CUT
10
275
20
255
30
0
0
VERTEX
8
CUT
10
275.563
20
254.563
30
0
0
VERTEX
8
CUT
10
276.25
20
254.25
30
0
0
VERTEX
8
CUT
10
277.063
20
254.063
30
0
0
VERTEX
8
CUT
10
278
20
254
30
0
0
VERTEX
8
CUT
10
290
20
254
30
0
0
VERTEX
8
CUT
10
290.938
20
253.938
30
0
0
VERTEX
8
CUT
10
291.75
20
253.75
30
0
0
VERTEX
8
CUT
10
292.438
20
253.438
30
0
0
VERTEX
8
CUT
10
293
20
253
30
0
0
VERTEX
8
CUT
10
293.438
20
252.438
30
0
0
VERTEX
8
CUT
10
293.75
20
251.75
30
0
0
VERTEX
8
CUT
10
293.938
20
250.938
30
0
0
VERTEX
8
CUT
10
294
20
250
30
0
0
VERTEX
8
CUT
10
294
20
218
30
0
0
VERTEX
8
CUT
10
294.063
20
217.063
30
0
0
VERTEX
8
CUT
10
294.25
20
216.25
30
0
0
VERTEX
8
CUT
10
294.563
20
215.563
30
0
0
VERTEX
8
CUT
10
295
20
215
30
0
0
VERTEX
8
CUT
10
295.563
20
214.563
30
0
0
VERTEX
8
CUT
10
296.25
20
214.25
30
0
0
VERTEX
8
CUT
10
297.063
20
214.063
30
0
0
VERTEX
8
CUT
10
298
20
214
30
0
0
VERTEX
8
CUT
10
310
20
214
30
0
0
VERTEX
8
CUT
10
310.938
20
213.938
30
0
0
VERTEX
8
CUT
10
311.75
20
213.75
30
0
0
VERTEX
8
CUT
10
312.438
20
213.438
30
0
0
VERTEX
8
CUT
10
313
20
213
30
0
0
VERTEX
8
CUT
10
313.438
20
212.438
30
0
0
VERTEX
8
CUT
10
313.75
20
211.75
30
0
0
VERTEX
8
CUT
10
313.938
20
210.938
30
0
0
VERTEX
8
CUT
10
314
20
210
30
0
0
VERTEX
8
CUT
10
314
20
104
30
0
0
VERTEX
8
CUT
10
313.938
20
103.063
30
0
0
VERTEX
8
CUT
10
313.75
20
102.25
30
0
0
VERTEX
8
CUT
10
313.438
20
101.563
30
0
0
VERTEX
8
CUT
10
313
20
101
30
0
0
VERTEX
8
CUT
10
312.438
20
100.563
30
0
0
VERTEX
8
CUT
10
311.75
20
100.25
30
0
0
VERTEX
8
CUT
10
310.938
20
100.063
30
0
0
VERTEX
8
CUT
10
310
20
100
30
0
0
VERTEX
8
CUT
10
298
20
100
30
0
0
VERTEX
8
CUT
10
297.063
20
99.938
30
0
0
VERTEX
8
CUT
10
296.25
20
99.75
30
0
0
VERTEX
8
CUT
10
295.563
20
99.438
30
0
0
VERTEX
8
CUT
10
295
20
99
30
0
0
VERTEX
8
CUT
10
294.563
20
98.438
30
0
0
VERTEX
8
CUT
10
294.25
20
97.75
30
0
0
VERTEX
8
CUT
10
294.063
20
96.938
30
0
0
VERTEX
8
CUT
10
294
20
96
30
0
0
VERTEX
8
CUT
10
294
20
64
30
0
0
VERTEX
8
CUT
10
293.938
20
63.063
30
0
0
VERTEX
8
CUT
10
293.75
20
62.25
30
0
0
VERTEX
8
CUT
10
293.438
20
61.563
30
0
0
VERTEX
8
CUT
10
293
20
61
30
0
0
VERTEX
8
CUT
10
292.438
20
60.563
30
0
0
VERTEX
8
CUT
10
291.75
20
60.25
30
0
0
VERTEX
8
CUT
10
290.938
20
60.063
30
0
0
VERTEX
8
CUT
10
290
20
60
30
0
0
VERTEX
8
CUT
10
278
20
60
30
0
0
VERTEX
8
CUT
10
277.063
20
59.938
30
0
0
VERTEX
8
CUT
10
276.25
20
59.75
30
0
0
VERTEX
8
CUT
10
275.563
20
59.438
30
0
0
VERTEX
8
CUT
10
275
20
59
30
0
0
VERTEX
8
CUT
10
274.563
20
58.438
30
0
0
VERTEX
8
CUT
10
274.25
20
57.75
30
0
0
VERTEX
8
CUT
10
274.063
20
56.938
30
0
0
VERTEX
8
CUT
10
274
20
56
30
0
0
VERTEX
8
CUT
10
274
20
44
30
0
0
VERTEX
8
CUT
10
273.938
20
43.063
30
0
0
VERTEX
8
CUT
10
273.75
20
42.25
30
0
0
VERTEX
8
CUT
10
273.438
20
41.563
30
0
0
VERTEX
8
CUT
10
273
20
41
30
0
0
VERTEX
8
CUT
10
272.438
20
40.563
30
0
0
VERTEX
8
CUT
10
271.75
20
40.25
30
0
0
VERTEX
8
CUT
10
270.938
20
40.063
30
0
0
VERTEX
8
CUT
10
270
20
40
30
0
0
VERTEX
8
CUT
10
258
20
40
30
0
0
VERTEX
8
CUT
10
257.063
20
39.938
30
0
0
VERTEX
8
CUT
10
256.25
20
39.75
30
0
0
VERTEX
8
CUT
10
255.563
20
39.438
30
0
0
VERTEX
8
CUT
10
255
20
39
30
0
0
VERTEX
8
CUT
10
254.563
20
38.438
30
0
0
VERTEX
8
CUT
10
254.25
20
37.75
30
0
0
VERTEX
8
CUT
10
254.063
20
36.938
30
0
0
VERTEX
8
CUT
10
254
20
36
30
0
0
VERTEX
8
CUT
10
254
20
24
30
0
0
VERTEX
8
CUT
10
253.938
20
23.063
30
0
0
VERTEX
8
CUT
10
253.75
20
22.25
30
0
0
VERTEX
8
CUT
10
253.438
20
21.563
30
0
0
VERTEX
8
CUT
10
253
20
21
30
0
0
VERTEX
8
CUT
10
252.438
20
20.563
30
0
0
VERTEX
8
CUT
10
251.75
20
20.25
30
0
0
VERTEX
8
CUT
10
250.938
20
20.063
30
0
0
VERTEX
8
CUT
10
250
20
20
30
0
0
VERTEX
8
CUT
10
218
20
20
30
0
0
VERTEX
8
CUT
10
217.063
20
19.938
30
0
0
VERTEX
8
CUT
10
216.25
20
19.75
30
0
0
VERTEX
8
CUT
10
215.563
20
19.438
30
0
0
VERTEX
8
CUT
10
215
20
19
30
0
0
VERTEX
8
CUT
10
214.563
20
18.438
30
0
0
VERTEX
8
CUT
10
214.25
20
17.75
30
0
0
VERTEX
8
CUT
10
214.063
20
16.938
30
0
0
VERTEX
8
CUT
10
214
20
16
30
0
0
VERTEX
8
CUT
10
214
20
4
30
0
0
VERTEX
8
CUT
10
213.938
20
3.063
30
0
0
VERTEX
8
CUT
10
213.75
20
2.25
30
0
0
VERTEX
8
CUT
10
213.438
20
1.563
30
0
0
VERTEX
8
CUT
10
213
20
1
30
0
0
VERTEX
8
CUT
10
212.438
20
0.563
30
0
0
VERTEX
8
CUT
10
211.75
20
0.25
30
0
0
VERTEX
8
CUT
10
210.938
20
0.063
30
0
0
VERTEX
8
CUT
10
210
20
0
30
0
0
VERTEX
8
CUT
10
104
20
0
30
0
0
VERTEX
8
CUT
10
103.063
20
0.063
30
0
0
VERTEX
8
CUT
10
102.25
20
0.25
30
0
0
VERTEX
8
CUT
10
101.563
20
0.563
30
0
0
VERTEX
8
CUT
10
101
20
1
30
0
0
VERTEX
8
CUT
10
100.563
20
1.563
30
0
0
VERTEX
8
CUT
10
100.25
20
2.25
30
0
0
VERTEX
8
CUT
10
100.063
20
3.063
30
0
0
VERTEX
8
CUT
10
100
20
4
30
0
0
VERTEX
8
CUT
10
100
20
16
30
0
0
VERTEX
8
CUT
10
99.938
20
16.938
30
0
0
VERTEX
8
CUT
10
99.75
20
17.75
30
0
0
VERTEX
8
CUT
10
99.438
20
18.438
30
0
0
VERTEX
8
CUT
10
99
20
19
30
0
0
VERTEX
8
CUT
10
98.438
20
19.438
30
0
0
VERTEX
8
CUT
10
97.75
20
19.75
30
0
0
VERTEX
8
CUT
10
96.938
20
19.938
30
0
0
VERTEX
8
CUT
10
96
20
20
30
0
0
VERTEX
8
CUT
10
64
20
20
30
0
0
VERTEX
8
CUT
10
63.063
20
20.063
30
0
0
VERTEX
8
CUT
10
62.25
20
20.25
30
0
0
VERTEX
8
CUT
10
61.563
20
20.563
30
0
0
VERTEX
8
CUT
10
61
20
21
30
0
0
VERTEX
8
CUT
10
60.563
20
21.563
30
0
0
VERTEX
8
CUT
10
60.25
20
22.25
30
0
0
VERTEX
8
CUT
10
60.063
20
23.063
30
0
0
VERTEX
8
CUT
10
60
20
24
30
0
0
VERTEX
8
CUT
10
60
20
36
30
0
0
VERTEX
8
CUT
10
59.938
20
36.938
30
0
0
VERTEX
8
CUT
10
59.75
20
37.75
30
0
0
VERTEX
8
CUT
10
59.438
20
38.438
30
0
0
VERTEX
8
CUT
10
59
20
39
30
0
0
VERTEX
8
CUT
10
58.438
20
39.438
30
0
0
VERTEX
8
CUT
10
57.75
20
39.75
30
0
0
VERTEX
8
CUT
10
56.938
20
39.938
30
0
0
VERTEX
8
CUT
10
56
20
40
30
0
0
VERTEX
8
CUT
10
44
20
40
30
0
0
VERTEX
8
CUT
10
43.063
20
40.063
30
0
0
VERTEX
8
CUT
10
42.25
20
40.25
30
0
0
VERTEX
8
CUT
10
41.563
20
40.563
30
0
0
VERTEX
8
CUT
10
41
20
41
30
0
0
VERTEX
8
CUT
10
40.563
20
41.563
30
0
0
VERTEX
8
CUT
10
40.25
20
42.25
30
0
0
VERTEX
8
CUT
10
40.063
20
43.063
30
0
0
VERTEX
8
CUT
10
40
20
44
30
0
0
VERTEX
8
CUT
10
40
20
56
30
0
0
VERTEX
8
CUT
10
39.938
20
56.938
30
0
0
VERTEX
8
CUT
10
39.75
20
57.75
30
0
0
VERTEX
8
CUT
10
39.438
20
58.438
30
0
0
VERTEX
8
CUT
10
39
20
59
30
0
0
VERTEX
8
CUT
10
38.438
20
59.438
30
0
0
VERTEX
8
CUT
10
37.75
20
59.75
30
0
0
VERTEX
8
CUT
10
36.938
20
59.938
30
0
0
VERTEX
8
CUT
10
36
20
60
30
0
0
VERTEX
8
CUT
10
24
20
60
30
0
0
VERTEX
8
CUT
10
23.063
20
60.063
30
0
0
VERTEX
8
CUT
10
22.25
20
60.25
30
0
0
VERTEX
8
CUT
10
21.563
20
60.563
30
0
0
VERTEX
8
CUT
10
21
20
61
30
0
0
VERTEX
8
CUT
10
20.563
20
61.563
30
0
0
VERTEX
8
CUT
10
20.25
20
62.25
30
0
0
VERTEX
8
CUT
10
20.063
20
63.063
30
0
0
VERTEX
8
CUT
10
20
20
64
30
0
0
VERTEX
8
CUT
10
20
20
96
30
0
0
VERTEX
8
CUT
10
19.938
20
96.938
30
0
0
VERTEX
8
CUT
10
19.75
20
97.75
30
0
0
VERTEX
8
CUT
10
19.438
20
98.438
30
0
0
VERTEX
8
CUT
10
19
20
99
30
0
0
VERTEX
8
CUT
10
18.438
20
99.438
30
0
0
VERTEX
8
CUT
10
17.75
20
99.75
30
0
0
VERTEX
8
CUT
10
16.938
20
99.938
30
0
0
VERTEX
8
CUT
10
16
20
100
30
0
0
VERTEX
8
CUT
10
4
20
100
30
0
0
VERTEX
8
CUT
10
3.063
20
100.063
30
0
0
VERTEX
8
CUT
10
2.25
20
100.25
30
0
0
VERTEX
8
CUT
10
1.563
20
100.563
30
0
0
VERTEX
8
CUT
10
1
20
101
30
0
0
VERTEX
8
CUT
10
0.563
20
101.563
30
0
0
VERTEX
8
CUT
10
0.25
20
102.25
30
0
0
VERTEX
8
CUT
10
0.063
20
103.063
30
0
0
VERTEX
8
CUT
10
0
20
104
30
0
0
SEQEND
8
CUT
0
POLYLINE
8
RASTER
66
1
70
1
0
VERTEX
8
RASTER
10
2
20
209
30
0
0
VERTEX
8
RASTER
10
2.047
20
209.703
30
0
0
VERTEX
8
RASTER
10
2.188
20
210.313
30
0
0
VERTEX
8
RASTER
10
2.422
20
210.828
30
0
0
VERTEX
8
RASTER
10
2.75
20
211.25
30
0
0
VERTEX
8
RASTER
10
3.172
20
211.578
30
0
0
VERTEX
8
RASTER
10
3.688
20
211.813
30
0
0
VERTEX
8
RASTER
10
4.297
20
211.953
30
0
0
VERTEX
8
RASTER
10
5
20
212
30
0
0
VERTEX
8
RASTER
10
19
20
212
30
0
0
VERTEX
8
RASTER
10
19.703
20
212.047
30
0
0
VERTEX
8
RASTER
10
20.313
20
212.188
30
0
0
VERTEX
8
RASTER
10
20.828
20
212.422
30
0
0
VERTEX
8
RASTER
10
21.25
20
212.75
30
0
0
VERTEX
8
RASTER
10
21.578
20
213.172
30
0
0
VERTEX
8
RASTER
10
21.813
20
213.688
30
0
0
VERTEX
8
RASTER
10
21.953
20
214.297
30
0
0
VERTEX
8
RASTER
10
22
20
215
30
0
0
VERTEX
8
RASTER
10
22
20
249
30
0
0
VERTEX
8
RASTER
10
22.047
20
249.703
30
0
0
VERTEX
8
RASTER
10
22.188
20
250.313
30
0
0
VERTEX
8
RASTER
10
22.422
20
250.828
30
0
0
VERTEX
8
RASTER
10
22.75
20
251.25
30
0
0
VERTEX
8
RASTER
10
23.172
20
251.578
30
0
0
VERTEX
8
RASTER
10
23.688
20
251.813
30
0
0
VERTEX
8
RASTER
10
24.297
20
251.953
30
0
0
VERTEX
8
RASTER
10
25
20
252
30
0
0
VERTEX
8
RASTER
10
39
20
252
30
0
0
VERTEX
8
RASTER
10
39.703
20
252.047
30
0
0
VERTEX
8
RASTER
10
40.313
20
252.188
30
0
0
VERTEX
8
RASTER
10
40.828
20
252.422
30
0
0
VERTEX
8
RASTER
10
41.25
20
252.75
30
0
0
VERTEX
8
RASTER
10
41.578
20
253.172
30
0
0
VERTEX
8
RASTER
10
41.813
20
253.688
30
0
0
VERTEX
8
RASTER
10
41.953
20
254.297
30
0
0
VERTEX
8
RASTER
10
42
20
255
30
0
0
VERTEX
8
RASTER
10
42
20
269
30
0
0
VERTEX
8
RASTER
10
42.047
20
269.703
30
0
0
VERTEX
8
RASTER
10
42.188
20
270.313
30
0
0
VERTEX
8
RASTER
10
42.422
20
270.828
30
0
0
VERTEX
8
RASTER
10
42.75
20
271.25
30
0
0
VERTEX
8
RASTER
10
43.172
20
271.578
30
0
0
VERTEX
8
RASTER
10
43.688
20
271.813
30
0
0
VERTEX
8
RASTER
10
44.297
20
271.953
30
0
0
VERTEX
8
RASTER
10
45
20
272
30
0
0
VERTEX
8
RASTER
10
59
20
272
30
0
0
VERTEX
8
RASTER
10
59.703
20
272.047
30
0
0
VERTEX
8
RASTER
10
60.313
20
272.188
30
0
0
VERTEX
8
RASTER
10
60.828
20
272.422
30
0
0
VERTEX
8
RASTER
10
61.25
20
272.75
30
0
0
VERTEX
8
RASTER
10
61.578
20
273.172
30
0
0
VERTEX
8
RASTER
10
61.813
20
273.688
30
0
0
VERTEX
8
RASTER
10
61.953
20
274.297
30
0
0
VERTEX
8
RASTER
10
62
20
275
30
0
0
VERTEX
8
RASTER
10
62
20
289
30
0
0
VERTEX
8
RASTER
10
62.047
20
289.703
30
0
0
VERTEX
8
RASTER
10
62.188
20
290.313
30
0
0
VERTEX
8
RASTER
10
62.422
20
290.828
30
0
0
VERTEX
8
RASTER
10
62.75
20
291.25
30
0
0
VERTEX
8
RASTER
10
63.172
20
291.578
30
0
0
VERTEX
8
RASTER
10
63.688
20
291.813
30
0
0
VERTEX
8
RASTER
10
64.297
20
291.953
30
0
0
VERTEX
8
RASTER
10
65
20
292
30
0
0
VERTEX
8
RASTER
10
99
20
292
30
0
0
VERTEX
8
RASTER
10
99.703
20
292.047
30
0
0
VERTEX
8
RASTER
10
100.313
20
292.188
30
0
0
VERTEX
8
RASTER
10
100.828
20
292.422
30
0
0
VERTEX
8
RASTER
10
101.25
20
292.75
30
0
0
VERTEX
8
RASTER
10
101.578
20
293.172
30
0
0
VERTEX
8
RASTER
10
101.813
20
293.688
30
0
0
VERTEX
8
RASTER
10
101.953
20
294.297
30
0
0
VERTEX
8
RASTER
10
102
20
295
30
0
0
VERTEX
8
RASTER
10
102
20
309
30
0
0
VERTEX
8
RASTER
10
102.047
20
309.703
30
0
0
VERTEX
8
RASTER
10
102.188
20
310.313
30
0
0
VERTEX
8
RASTER
10
102.422
20
310.828
30
0
0
VERTEX
8
RASTER
10
102.75
20
311.25
30
0
0
VERTEX
8
RASTER
10
103.172
20
311.578
30
0
0
VERTEX
8
RASTER
10
103.688
20
311.813
30
0
0
VERTEX
8
RASTER
10
104.297
20
311.953
30
0
0
VERTEX
8
RASTER
10
105
20
312
30
0
0
VERTEX
8
RASTER
10
209
20
312
30
0
0
VERTEX
8
RASTER
10
209.703
20
311.953
30
0
0
VERTEX
8
RASTER
10
210.313
20
311.813
30
0
0
VERTEX
8
RASTER
10
210.828
20
311.578
30
0
0
VERTEX
8
RASTER
10
211.25
20
311.25
30
0
0
VERTEX
8
RASTER
10
211.578
20
310.828
30
0
0
VERTEX
8
RASTER
10
211.813
20
310.313
30
0
0
VERTEX
8
RASTER
10
211.953
20
309.703
30
0
0
VERTEX
8
RASTER
10
212
20
309
30
0
0
VERTEX
8
RASTER
10
212
20
295
30
0
0
VERTEX
8
RASTER
10
212.047
20
294.297
30
0
0
VERTEX
8
RASTER
10
212.188
20
293.688
30
0
0
VERTEX
8
RASTER
10
212.422
20
293.172
30
0
0
VERTEX
8
RASTER
10
212.75
20
292.75
30
0
0
VERTEX
8
RASTER
10
213.172
20
292.422
30
0
0
VERTEX
8
RASTER
10
213.688
20
292.188
30
0
0
VERTEX
8
RASTER
10
214.297
20
292.047
30
0
0
VERTEX
8
RASTER
10
215
20
292
30
0
0
VERTEX
8
RASTER
10
249
20
292
30
0
0
VERTEX
8
RASTER
10
249.703
20
291.953
30
0
0
VERTEX
8
RASTER
10
250.313
20
291.813
30
0
0
VERTEX
8
RASTER
10
250.828
20
291.578
30
0
0
VERTEX
8
RASTER
10
251.25
20
291.25
30
0
0
VERTEX
8
RASTER
10
251.578
20
290.828
30
0
0
VERTEX
8
RASTER
10
251.813
20
290.313
30
0
0
VERTEX
8
RASTER
10
251.953
20
289.703
30
0
0
VERTEX
8
RASTER
10
252
20
289
30
0
0
VERTEX
8
RASTER
10
252
20
275
30
0
0
VERTEX
8
RASTER
10
252.047
20
274.297
30
0
0
VERTEX
8
RASTER
10
252.188
20
273.688
30
0
0
VERTEX
8
RASTER
10
252.422
20
273.172
30
0
0
VERTEX
8
RASTER
10
252.75
20
272.75
30
0
0
VERTEX
8
RASTER
10
253.172
20
272.422
30
0
0
VERTEX
8
RASTER
10
253.688
20
272.188
30
0
0
VERTEX
8
RASTER
10
254.297
20
272.047
30
0
0
VERTEX
8
RASTER
10
255
20
272
30
0
0
VERTEX
8
RASTER
10
269
20
272
30
0
0
VERTEX
8
RASTER
10
269.703
20
271.953
30
0
0
VERTEX
8
RASTER
10
270.313
20
271.813
30
0
0
VERTEX
8
RASTER
10
270.828
20
271.578
30
0
0
VERTEX
8
RASTER
10
271.25
20
271.25
30
0
0
VERTEX
8
RASTER
10
271.578
20
270.828
30
0
0
VERTEX
8
RASTER
10
271.813
20
270.313
30
0
0
VERTEX
8
RASTER
10
271.953
20
269.703
30
0
0
VERTEX
8
RASTER
10
272
20
269
30
0
0
VERTEX
8
RASTER
10
272
20
255
30
0
0
VERTEX
8
RASTER
10
272.047
20
254.297
30
0
0
VERTEX
8
RASTER
10
272.188
20
253.688
30
0
0
VERTEX
8
RASTER
10
272.422
20
253.172
30
0
0
VERTEX
8
RASTER
10
272.75
20
252.75
30
0
0
VERTEX
8
RASTER
10
273.172
20
252.422
30
0
0
VERTEX
8
RASTER
10
273.688
20
252.188
30
0
0
VERTEX
8
RASTER
10
274.297
20
252.047
30
0
0
VERTEX
8
RASTER
10
275
20
252
30
0
0
VERTEX
8
RASTER
10
289
20
252
30
0
0
VERTEX
8
RASTER
10
289.703
20
251.953
30
0
0
VERTEX
8
RASTER
10
290.313
20
251.813
30
0
0
VERTEX
8
RASTER
10
290.828
20
251.578
30
0
0
VERTEX
8
RASTER
10
291.25
20
251.25
30
0
0
VERTEX
8
RASTER
10
291.578
20
250.828
30
0
0
VERTEX
8
RASTER
10
291.813
20
250.313
30
0
0
VERTEX
8
RASTER
10
291.953
20
249.703
30
0
0
VERTEX
8
RASTER
10
292
20
249
30
0
0
VERTEX
8
RASTER
10
292
20
215
30
0
0
VERTEX
8
RASTER
10
292.047
20
214.297
30
0
0
VERTEX
8
RASTER
10
292.188
20
213.688
30
0
0
VERTEX
8
RASTER
10
292.422
20
213.172
30
0
0
VERTEX
8
RASTER
10
292.75
20
212.75
30
0
0
VERTEX
8
RASTER
10
293.172
20
212.422
30
0
0
VERTEX
8
RASTER
10
293.688
20
212.188
30
0
0
VERTEX
8
RASTER
10
294.297
20
212.047
30
0
0
VERTEX
8
RASTER
10
295
20
212
30
0
0
VERTEX
8
RASTER
10
309
20
212
30
0
0
VERTEX
8
RASTER
10
309.703
20
211.953
30
0
0
VERTEX
8
RASTER
10
310.313
20
211.813
30
0
0
VERTEX
8
RASTER
10
310.828
20
211.578
30
0
0
VERTEX
8
RASTER
10
311.25
20
211.25
30
0
0
VERTEX
8
RASTER
10
311.578
20
210.828
30
0
0
VERTEX
8
RASTER
10
311.813
20
210.313
30
0
0
VERTEX
8
RASTER
10
311.953
20
209.703
30
0
0
VERTEX
8
RASTER
10
312
20
209
30
0
0
VERTEX
8
RASTER
10
312
20
105
30
0
0
VERTEX
8
RASTER
10
311.953
20
104.297
30
0
0
VERTEX
8
RASTER
10
311.813
20
103.688
30
0
0
VERTEX
8
RASTER
10
311.578
20
103.172
30
0
0
VERTEX
8
RASTER
10
311.25
20
102.75
30
0
0
VERTEX
8
RASTER
10
310.828
20
102.422
30
0
0
VERTEX
8
RASTER
10
310.313
20
102.188
30
0
0
VERTEX
8
RASTER
10
309.703
20
102.047
30
0
0
VERTEX
8
RASTER
10
309
20
102
30
0
0
VERTEX
8
RASTER
10
295
20
102
30
0
0
VERTEX
8
RASTER
10
294.297
20
101.953
30
0
0
VERTEX
8
RASTER
10
293.688
20
101.813
30
0
0
VERTEX
8
RASTER
10
293.172
20
101.578
30
0
0
VERTEX
8
RASTER
10
292.75
20
101.25
30
0
0
VERTEX
8
RASTER
10
292.422
20
100.828
30
0
0
VERTEX
8
RASTER
10
292.188
20
100.313
30
0
0
VERTEX
8
RASTER
10
292.047
20
99.703
30
0
0
VERTEX
8
RASTER
10
292
20
99
30
0
0
VERTEX
8
RASTER
10
292
20
65
30
0
0
VERTEX
8
RASTER
10
291.953
20
64.297
30
0
0
VERTEX
8
RASTER
10
291.813
20
63.688
30
0
0
VERTEX
8
RASTER
10
291.578
20
63.172
30
0
0
VERTEX
8
RASTER
10
291.25
20
62.75
30
0
0
VERTEX
8
RASTER
10
290.828
20
62.422
30
0
0
VERTEX
8
RASTER
10
290.313
20
62.188
30
0
0
VERTEX
8
RASTER
10
289.703
20
62.047
30
0
0
VERTEX
8
RASTER
10
289
20
62
30
0
0
VERTEX
8
RASTER
10
275
20
62
30
0
0
VERTEX
8
RASTER
10
274.297
20
61.953
30
0
0
VERTEX
8
RASTER
10
273.688
20
61.813
30
0
0
VERTEX
8
RASTER
10
273.172
20
61.578
30
0
0
VERTEX
8
RASTER
10
272.75
20
61.25
30
0
0
VERTEX
8
RASTER
10
272.422
20
60.828
30
0
0
VERTEX
8
RASTER
10
272.188
20
60.313
30
0
0
VERTEX
8
RASTER
10
272.047
20
59.703
30
0
0
VERTEX
8
RASTER
10
272
20
59
30
0
0
VERTEX
8
RASTER
10
272
20
45
30
0
0
VERTEX
8
RASTER
10
271.953
20
44.297
30
0
0
VERTEX
8
RASTER
10
271.813
20
43.688
30
0
0
VERTEX
8
RASTER
10
271.578
20
43.172
30
0
0
VERTEX
8
RASTER
10
271.25
20
42.75
30
0
0
VERTEX
8
RASTER
10
270.828
20
42.422
30
0
0
VERTEX
8
RASTER
10
270.313
20
42.188
30
0
0
VERTEX
8
RASTER
10
269.703
20
42.047
30
0
0
VERTEX
8
RASTER
10
269
20
42
30
0
0
VERTEX
8
RASTER
10
255
20
42
30
0
0
VERTEX
8
RASTER
10
254.297
20
41.953
30
0
0
VERTEX
8
RASTER
10
253.688
20
41.813
30
0
0
VERTEX
8
RASTER
10
253.172
20
41.578
30
0
0
VERTEX
8
RASTER
10
252.75
20
41.25
30
0
0
VERTEX
8
RASTER
10
252.422
20
40.828
30
0
0
VERTEX
8
RASTER
10
252.188
20
40.313
30
0
0
VERTEX
8
RASTER
10
252.047
20
39.703
30
0
0
VERTEX
8
RASTER
10
252
20
39
30
0
0
VERTEX
8
RASTER
10
252
20
25
30
0
0
VERTEX
8
RASTER
10
251.953
20
24.297
30
0
0
VERTEX
8
RASTER
10
251.813
20
23.688
30
0
0
VERTEX
8
RASTER
10
251.578
20
23.172
30
0
0
VERTEX
8
RASTER
10
251.25
20
22.75
30
0
0
VERTEX
8
RASTER
10
250.828
20
22.422
30
0
0
VERTEX
8
RASTER
10
250.313
20
22.188
30
0
0
VERTEX
8
RASTER
10
249.703
20
22.047
30
0
0
VERTEX
8
RASTER
10
249
20
22
30
0
0
VERTEX
8
RASTER
10
215
20
22
30
0
0
VERTEX
8
RASTER
10
214.297
20
21.953
30
0
0
VERTEX
8
RASTER
10
213.688
20
21.813
30
0
0
VERTEX
8
RASTER
10
213.172
20
21.578
30
0
0
VERTEX
8
RASTER
10
212.75
20
21.25
30
0
0
VERTEX
8
RASTER
10
212.422
20
20.828
30
0
0
VERTEX
8
RASTER
10
212.188
20
20.313
30
0
0
VERTEX
8
RASTER
10
212.047
20
19.703
30
0
0
VERTEX
8
RASTER
10
212
20
19
30
0
0
VERTEX
8
RASTER
10
212
20
5
30
0
0
VERTEX
8
RASTER
10
211.953
20
4.297
30
0
0
VERTEX
8
RASTER
10
211.813
20
3.688
30
0
0
VERTEX
8
RASTER
10
211.578
20
3.172
30
0
0
VERTEX
8
RASTER
10
211.25
20
2.75
30
0
0
VERTEX
8
RASTER
10
210.828
20
2.422
30
0
0
VERTEX
8
RASTER
10
210.313
20
2.188
30
0
0
VERTEX
8
RASTER
10
209.703
20
2.047
30
0
0
VERTEX
8
RASTER
10
209
20
2
30
0
0
VERTEX
8
RASTER
10
105
20
2
30
0
0
VERTEX
8
RASTER
10
104.297
20
2.047
30
0
0
VERTEX
8
RASTER
10
103.688
20
2.188
30
0
0
VERTEX
8
RASTER
10
103.172
20
2.422
30
0
0
VERTEX
8
RASTER
10
102.75
20
2.75
30
0
0
VERTEX
8
RASTER
10
102.422
20
3.172
30
0
0
VERTEX
8
RASTER
10
102.188
20
3.688
30
0
0
VERTEX
8
RASTER
10
102.047
20
4.297
30
0
0
VERTEX
8
RASTER
10
102
20
5
30
0
0
VERTEX
8
RASTER
10
102
20
19
30
0
0
VERTEX
8
RASTER
10
101.953
20
19.703
30
0
0
VERTEX
8
RASTER
10
101.813
20
20.313
30
0
0
VERTEX
8
RASTER
10
101.578
20
20.828
30
0
0
VERTEX
8
RASTER
10
101.25
20
21.25
30
0
0
VERTEX
8
RASTER
10
100.828
20
21.578
30
0
0
VERTEX
8
RASTER
10
100.313
20
21.813
30
0
0
VERTEX
8
RASTER
10
99.703
20
21.953
30
0
0
VERTEX
8
RASTER
10
99
20
22
30
0
0
VERTEX
8
RASTER
10
65
20
22
30
0
0
VERTEX
8
RASTER
10
64.297
20
22.047
30
0
0
VERTEX
8
RASTER
10
63.688
20
22.188
30
0
0
VERTEX
8
RASTER
10
63.172
20
22.422
30
0
0
VERTEX
8
RASTER
10
62.75
20
22.75
30
0
0
VERTEX
8
RASTER
10
62.422
20
23.172
30
0
0
VERTEX
8
RASTER
10
62.188
20
23.688
30
0
0
VERTEX
8
RASTER
10
62.047
20
24.297
30
0
0
VERTEX
8
RASTER
10
62
20
25
30
0
0
VERTEX
8
RASTER
10
62
20
39
30
0
0
VERTEX
8
RASTER
10
61.953
20
39.703
30
0
0
VERTEX
8
RASTER
10
61.813
20
40.313
30
0
0
VERTEX
8
RASTER
10
61.578
20
40.828
30
0
0
VERTEX
8
RASTER
10
61.25
20
41.25
30
0
0
VERTEX
8
RASTER
10
60.828
20
41.578
30
0
0
VERTEX
8
RASTER
10
60.313
20
41.813
30
0
0
VERTEX
8
RASTER
10
59.703
20
41.953
30
0
0
VERTEX
8
RASTER
10
59
20
42
30
0
0
VERTEX
8
RASTER
10
45
20
42
30
0
0
VERTEX
8
RASTER
10
44.297
20
42.047
30
0
0
VERTEX
8
RASTER
10
43.688
20
42.188
30
0
0
VERTEX
8
RASTER
10
43.172
20
42.422
30
0
0
VERTEX
8
RASTER
10
42.75
20
42.75
30
0
0
VERTEX
8
RASTER
10
42.422
20
43.172
30
0
0
VERTEX
8
RASTER
10
42.188
20
43.688
30
0
0
VERTEX
8
RASTER
10
42.047
20
44.297
30
0
0
VERTEX
8
RASTER
10
42
20
45
30
0
0
VERTEX
8
RASTER
10
42
20
59
30
0
0
VERTEX
8
RASTER
10
41.953
20
59.703
30
0
0
VERTEX
8
RASTER
10
41.813
20
60.313
30
0
0
VERTEX
8
RASTER
10
41.578
20
60.828
30
0
0
VERTEX
8
RASTER
10
41.25
20
61.25
30
0
0
VERTEX
8
RASTER
10
40.828
20
61.578
30
0
0
VERTEX
8
RASTER
10
40.313
20
61.813
30
0
0
VERTEX
8
RASTER
10
39.703
20
61.953
30
0
0
VERTEX
8
RASTER
10
39
20
62
30
0
0
VERTEX
8
RASTER
10
25
20
62
30
0
0
VERTEX
8
RASTER
10
24.297
20
62.047
30
0
0
VERTEX
8
RASTER
10
23.688
20
62.188
30
0
0
VERTEX
8
RASTER
10
23.172
20
62.422
30
0
0
VERTEX
8
RASTER
10
22.75
20
62.75
30
0
0
VERTEX
8
RASTER
10
22.422
20
63.172
30
0
0
VERTEX
8
RASTER
10
22.188
20
63.688
30
0
0
VERTEX
8
RASTER
10
22.047
20
64.297
30
0
0
VERTEX
8
RASTER
10
22
20
65
30
0
0
VERTEX
8
RASTER
10
22
20
99
30
0
0
VERTEX
8
RASTER
10
21.953
20
99.703
30
0
0
VERTEX
8
RASTER
10
21.813
20
100.313
30
0
0
VERTEX
8
RASTER
10
21.578
20
100.828
30
0
0
VERTEX
8
RASTER
10
21.25
20
101.25
30
0
0
VERTEX
8
RASTER
10
20.828
20
101.578
30
0
0
VERTEX
8
RASTER
10
20.313
20
101.813
30
0
0
VERTEX
8
RASTER
10
19.703
20
101.953
30
0
0
VERTEX
8
RASTER
10
19
20
102
30
0
0
VERTEX
8
RASTER
10
5
20
102
30
0
0
VERTEX
8
RASTER
10
4.297
20
102.047
30
0
0
VERTEX
8
RASTER
10
3.688
20
102.188
30
0
0
VERTEX
8
RASTER
10
3.172
20
102.422
30
0
0
VERTEX
8
RASTER
10
2.75
20
102.75
30
0
0
VERTEX
8
RASTER
10
2.422
20
103.172
30
0
0
VERTEX
8
RASTER
10
2.188
20
103.688
30
0
0
VERTEX
8
RASTER
10
2.047
20
104.297
30
0
0
VERTEX
8
RASTER
10
2
20
105
30
0
0
SEQEND
8
RASTER
0
POLYLINE
8
RASTER
66
1
70
1
0
VERTEX
8
RASTER
10
2.8
20
208.7
30
0
0
VERTEX
8
RASTER
10
2.8
20
105.3
30
0
0
VERTEX
8
RASTER
10
2.839
20
104.714
30
0
0
VERTEX
8
RASTER
10
2.956
20
104.206
30
0
0
VERTEX
8
RASTER
10
3.152
20
103.777
30
0
0
VERTEX
8
RASTER
10
3.425
20
103.425
30
0
0
VERTEX
8
RASTER
10
3.777
20
103.152
30
0
0
VERTEX
8
RASTER
10
4.206
20
102.956
30
0
0
VERTEX
8
RASTER
10
4.714
20
102.839
30
0
0
VERTEX
8
RASTER
10
5.3
20
102.8
30
0
0
VERTEX
8
RASTER
10
20.3
20
102.8
30
0
0
VERTEX
8
RASTER
10
20.886
20
102.761
30
0
0
VERTEX
8
RASTER
10
21.394
20
102.644
30
0
0
VERTEX
8
RASTER
10
21.823
20
102.448
30
0
0
VERTEX
8
RASTER
10
22.175
20
102.175
30
0
0
VERTEX
8
RASTER
10
22.448
20
101.823
30
0
0
VERTEX
8
RASTER
10
22.644
20
101.394
30
0
0
VERTEX
8
RASTER
10
22.761
20
100.886
30
0
0
VERTEX
8
RASTER
10
22.8
20
100.3
30
0
0
VERTEX
8
RASTER
10
22.8
20
65.3
30
0
0
VERTEX
8
RASTER
10
22.839
20
64.714
30
0
0
VERTEX
8
RASTER
10
22.956
20
64.206
30
0
0
VERTEX
8
RASTER
10
23.152
20
63.777
30
0
0
VERTEX
8
RASTER
10
23.425
20
63.425
30
0
0
VERTEX
8
RASTER
10
23.777
20
63.152
30
0
0
VERTEX
8
RASTER
10
24.206
20
62.956
30
0
0
VERTEX
8
RASTER
10
24.714
20
62.839
30
0
0
VERTEX
8
RASTER
10
25.3
20
62.8
30
0
0
VERTEX
8
RASTER
10
40.3
20
62.8
30
0
0
VERTEX
8
RASTER
10
40.886
20
62.761
30
0
0
VERTEX
8
RASTER
10
41.394
20
62.644
30
0
0
VERTEX
8
RASTER
10
41.823
20
62.448
30
0
0
VERTEX
8
RASTER
10
42.175
20
62.175
30
0
0
VERTEX
8
RASTER
10
42.448
20
61.823
30
0
0
VERTEX
8
RASTER
10
42.644
20
61.394
30
0
0
VERTEX
8
RASTER
10
42.761
20
60.886
30
0
0
VERTEX
8
RASTER
10
42.8
20
60.3
30
0
0
VERTEX
8
RASTER
10
42.8
20
45.3
30
0
0
VERTEX
8
RASTER
10
42.839
20
44.714
30
0
0
VERTEX
8
RASTER
10
42.956
20
44.206
30
0
0
VERTEX
8
RASTER
10
43.152
20
43.777
30
0
0
VERTEX
8
RASTER
10
43.425
20
43.425
30
0
0
VERTEX
8
RASTER
10
43.777
20
43.152
30
0
0
VERTEX
8
RASTER
10
44.206
20
42.956
30
0
0
VERTEX
8
RASTER
10
44.714
20
42.839
30
0
0
VERTEX
8
RASTER
10
45.3
20
42.8
30
0
0
VERTEX
8
RASTER
10
60.3
20
42.8
30
0
0
VERTEX
8
RASTER
10
60.886
20
42.761
30
0
0
VERTEX
8
RASTER
10
61.394
20
42.644
30
0
0
VERTEX
8
RASTER
10
61.823
20
42.448
30
0
0
VERTEX
8
RASTER
10
62.175
20
42.175
30
0
0
VERTEX
8
RASTER
10
62.448
20
41.823
30
0
0
VERTEX
8
RASTER
10
62.644
20
41.394
30
0
0
VERTEX
8
RASTER
10
62.761
20
40.886
30
0
0
VERTEX
8
RASTER
10
62.8
20
40.3
30
0
0
VERTEX
8
RASTER
10
62.8
20
25.3
30
0
0
VERTEX
8
RASTER
10
62.839
20
24.714
30
0
0
VERTEX
8
RASTER
10
62.956
20
24.206
30
0
0
VERTEX
8
RASTER
10
63.152
20
23.777
30
0
0
VERTEX
8
RASTER
10
63.425
20
23.425
30
0
0
VERTEX
8
RASTER
10
63.777
20
23.152
30
0
0
VERTEX
8
RASTER
10
64.206
20
22.956
30
0
0
VERTEX
8
RASTER
10
64.714
20
22.839
30
0
0
VERTEX
8
RASTER
10
65.3
20
22.8
30
0
0
VERTEX
8
RASTER
10
100.3
20
22.8
30
0
0
VERTEX
8
RASTER
10
100.886
20
22.761
30
0
0
VERTEX
8
RASTER
10
101.394
20
22.644
30
0
0
VERTEX
8
RASTER
10
101.823
20
22.448
30
0
0
VERTEX
8
RASTER
10
102.175
20
22.175
30
0
0
VERTEX
8
RASTER
10
102.448
20
21.823
30
0
0
VERTEX
8
RASTER
10
102.644
20
21.394
30
0
0
VERTEX
8
RASTER
10
102.761
20
20.886
30
0
0
VERTEX
8
RASTER
10
102.8
20
20.3
30
0
0
VERTEX
8
RASTER
10
102.8
20
5.3
30
0
0
VERTEX
8
RASTER
10
102.839
20
4.714
30
0
0
VERTEX
8
RASTER
10
102.956
20
4.206
30
0
0
VERTEX
8
RASTER
10
103.152
20
3.777
30
0
0
VERTEX
8
RASTER
10
103.425
20
3.425
30
0
0
VERTEX
8
RASTER
10
103.777
20
3.152
30
0
0
VERTEX
8
RASTER
10
104.206
20
2.956
30
0
0
VERTEX
8
RASTER
10
104.714
20
2.839
30
0
0
VERTEX
8
RASTER
10
105.3
20
2.8
30
0
0
VERTEX
8
RASTER
10
208.7
20
2.8
30
0
0
VERTEX
8
RASTER
10
209.286
20
2.839
30
0
0
VERTEX
8
RASTER
10
209.794
20
2.956
30
0
0
VERTEX
8
RASTER
10
210.223
20
3.152
30
0
0
VERTEX
8
RASTER
10
210.575
20
3.425
30
0
0
VERTEX
8
RASTER
10
210.848
20
3.777
30
0
0
VERTEX
8
RASTER
10
211.044
20
4.206
30
0
0
VERTEX
8
RASTER
10
211.161
20
4.714
30
0
0
VERTEX
8
RASTER
10
211.2
20
5.3
30
0
0
VERTEX
8
RASTER
10
211.2
20
20.3
30
0
0
VERTEX
8
RASTER
10
211.239
20
20.886
30
0
0
VERTEX
8
RASTER
10
211.356
20
21.394
30
0
0
VERTEX
8
RASTER
10
211.552
20
21.823
30
0
0
VERTEX
8
RASTER
10
211.825
20
22.175
30
0
0
VERTEX
8
RASTER
10
212.177
20
22.448
30
0
0
VERTEX
8
RASTER
10
212.606
20
22.644
30
0
0
VERTEX
8
RASTER
10
213.114
20
22.761
30
0
0
VERTEX
8
RASTER
10
213.7
20
22.8
30
0
0
VERTEX
8
RASTER
10
248.7
20
22.8
30
0
0
VERTEX
8
RASTER
10
249.286
20
22.839
30
0
0
VERTEX
8
RASTER
10
249.794
20
22.956
30
0
0
VERTEX
8
RASTER
10
250.223
20
23.152
30
0
0
VERTEX
8
RASTER
10
250.575
20
23.425
30
0
0
VERTEX
8
RASTER
10
250.848
20
23.777
30
0
0
VERTEX
8
RASTER
10
251.044
20
24.206
30
0
0
VERTEX
8
RASTER
10
251.161
20
24.714
30
0
0
VERTEX
8
RASTER
10
251.2
20
25.3
30
0
0
VERTEX
8
RASTER
10
251.2
20
40.3
30
0
0
VERTEX
8
RASTER
10
251.239
20
40.886
30
0
0
VERTEX
8
RASTER
10
251.356
20
41.394
30
0
0
VERTEX
8
RASTER
10
251.552
20
41.823
30
0
0
VERTEX
8
RASTER
10
251.825
20
42.175
30
0
0
VERTEX
8
RASTER
10
252.177
20
42.448
30
0
0
VERTEX
8
RASTER
10
252.606
20
42.644
30
0
0
VERTEX
8
RASTER
10
253.114
20
42.761
30
0
0
VERTEX
8
RASTER
10
253.7
20
42.8
30
0
0
VERTEX
8
RASTER
10
268.7
20
42.8
30
0
0
VERTEX
8
RASTER
10
269.286
20
42.839
30
0
0
VERTEX
8
RASTER
10
269.794
20
42.956
30
0
0
VERTEX
8
RASTER
10
270.223
20
43.152
30
0
0
VERTEX
8
RASTER
10
270.575
20
43.425
30
0
0
VERTEX
8
RASTER
10
270.848
20
43.777
30
0
0
VERTEX
8
RASTER
10
271.044
20
44.206
30
0
0
VERTEX
8
RASTER
10
271.161
20
44.714
30
0
0
VERTEX
8
RASTER
10
271.2
20
45.3
30
0
0
VERTEX
8
RASTER
10
271.2
20
60.3
30
0
0
VERTEX
8
RASTER
10
271.239
20
60.886
30
0
0
VERTEX
8
RASTER
10
271.356
20
61.394
30
0
0
VERTEX
8
RASTER
10
271.552
20
61.823
30
0
0
VERTEX
8
RASTER
10
271.825
20
62.175
30
0
0
VERTEX
8
RASTER
10
272.177
20
62.448
30
0
0
VERTEX
8
RASTER
10
272.606
20
62.644
30
0
0
VERTEX
8
RASTER
10
273.114
20
62.761
30
0
0
VERTEX
8
RASTER
10
273.7
20
62.8
30
0
0
VERTEX
8
RASTER
10
288.7
20
62.8
30
0
0
VERTEX
8
RASTER
10
289.286
20
62.839
30
0
0
VERTEX
8
RASTER
10
289.794
20
62.956
30
0
0
VERTEX
8
RASTER
10
290.223
20
63.152
30
0
0
VERTEX
8
RASTER
10
290.575
20
63.425
30
0
0
VERTEX
8
RASTER
10
290.848
20
63.777
30
0
0
VERTEX
8
RASTER
10
291.044
20
64.206
30
0
0
VERTEX
8
RASTER
10
291.161
20
64.714
30
0
0
VERTEX
8
RASTER
10
291.2
20
65.3
30
0
0
VERTEX
8
RASTER
10
291.2
20
100.3
30
0
0
VERTEX
8
RASTER
10
291.239
20
100.886
30
0
0
VERTEX
8
RASTER
10
291.356
20
101.394
30
0
0
VERTEX
8
RASTER
10
291.552
20
101.823
30
0
0
VERTEX
8
RASTER
10
291.825
20
102.175
30
0
0
VERTEX
8
RASTER
10
292.177
20
102.448
30
0
0
VERTEX
8
RASTER
10
292.606
20
102.644
30
0
0
VERTEX
8
RASTER
10
293.114
20
102.761
30
0
0
VERTEX
8
RASTER
10
293.7
20
102.8
30
0
0
VERTEX
8
RASTER
10
308.7
20
102.8
30
0
0
VERTEX
8
RASTER
10
309.286
20
102.839
30
0
0
VERTEX
8
RASTER
10
309.794
20
102.956
30
0
0
VERTEX
8
RASTER
10
310.223
20
103.152
30
0
0
VERTEX
8
RASTER
10
310.575
20
103.425
30
0
0
VERTEX
8
RASTER
10
310.848
20
103.777
30
0
0
VERTEX
8
RASTER
10
311.044
20
104.206
30
0
0
VERTEX
8
RASTER
10
311.161
20
104.714
30
0
0
VERTEX
8
RASTER
10
311.2
20
105.3
30
0
0
VERTEX
8
RASTER
10
311.2
20
208.7
30
0
0
VERTEX
8
RASTER
10
311.161
20
209.286
30
0
0
VERTEX
8
RASTER
10
311.044
20
209.794
30
0
0
VERTEX
8
RASTER
10
310.848
20
210.223
30
0
0
VERTEX
8
RASTER
10
310.575
20
210.575
30
0
0
VERTEX
8
RASTER
10
310.223
20
210.848
30
0
0
VERTEX
8
RASTER
10
309.794
20
211.044
30
0
0
VERTEX
8
RASTER
10
309.286
20
211.161
30
0
0
VERTEX
8
RASTER
10
308.7
20
211.2
30
0
0
VERTEX
8
RASTER
10
293.7
20
211.2
30
0
0
VERTEX
8
RASTER
10
293.114
20
211.239
30
0
0
VERTEX
8
RASTER
10
292.606
20
211.356
30
0
0
VERTEX
8
RASTER
10
292.177
20
211.552
30
0
0
VERTEX
8
RASTER
10
291.825
20
211.825
30
0
0
VERTEX
8
RASTER
10
291.552
20
212.177
30
0
0
VERTEX
8
RASTER
10
291.356
20
212.606
30
0
0
VERTEX
8
RASTER
10
291.239
20
213.114
30
0
0
VERTEX
8
RASTER
10
291.2
20
213.7
30
0
0
VERTEX
8
RASTER
10
291.2
20
248.7
30
0
0
VERTEX
8
RASTER
10
291.161
20
249.286
30
0
0
VERTEX
8
RASTER
10
291.044
20
249.794
30
0
0
VERTEX
8
RASTER
10
290.848
20
250.223
30
0
0
VERTEX
8
RASTER
10
290.575
20
250.575
30
0
0
VERTEX
8
RASTER
10
290.223
20
250.848
30
0
0
VERTEX
8
RASTER
10
289.794
20
251.044
30
0
0
VERTEX
8
RASTER
10
289.286
20
251.161
30
0
0
VERTEX
8
RASTER
10
288.7
20
251.2
30
0
0
VERTEX
8
RASTER
10
273.7
20
251.2
30
0
0
VERTEX
8
RASTER
10
273.114
20
251.239
30
0
0
VERTEX
8
RASTER
10
272.606
20
251.356
30
0
0
VERTEX
8
RASTER
10
272.177
20
251.552
30
0
0
VERTEX
8
RASTER
10
271.825
20
251.825
30
0
0
VERTEX
8
RASTER
10
271.552
20
252.177
30
0
0
VERTEX
8
RASTER
10
271.356
20
252.606
30
0
0
VERTEX
8
RASTER
10
271.239
20
253.114
30
0
0
VERTEX
8
RASTER
10
271.2
20
253.7
30
0
0
VERTEX
8
RASTER
10
271.2
20
268.7
30
0
0
VERTEX
8
RASTER
10
271.161
20
269.286
30
0
0
VERTEX
8
RASTER
10
271.044
20
269.794
30
0
0
VERTEX
8
RASTER
10
270.848
20
270.223
30
0
0
VERTEX
8
RASTER
10
270.575
20
270.575
30
0
0
VERTEX
8
RASTER
10
270.223
20
270.848
30
0
0
VERTEX
8
RASTER
10
269.794
20
271.044
30
0
0
VERTEX
8
RASTER
10
269.286
20
271.161
30
0
0
VERTEX
8
RASTER
10
268.7
20
271.2
30
0
0
VERTEX
8
RASTER
10
253.7
20
271.2
30
0
0
VERTEX
8
RASTER
10
253.114
20
271.239
30
0
0
VERTEX
8
RASTER
10
252.606
20
271.356
30
0
0
VERTEX
8
RASTER
10
252.177
20
271.552
30
0
0
VERTEX
8
RASTER
10
251.825
20
271.825
30
0
0
VERTEX
8
RASTER
10
251.552
20
272.177
30
0
0
VERTEX
8
RASTER
10
251.356
20
272.606
30
0
0
VERTEX
8
RASTER
10
251.239
20
273.114
30
0
0
VERTEX
8
RASTER
10
251.2
20
273.7
30
0
0
VERTEX
8
RASTER
10
251.2
20
288.7
30
0
0
VERTEX
8
RASTER
10
251.161
20
289.286
30
0
0
VERTEX
8
RASTER
10
251.044
20
289.794
30
0
0
VERTEX
8
RASTER
10
250.848
20
290.223
30
0
0
VERTEX
8
RASTER
10
250.575
20
290.575
30
0
0
VERTEX
8
RASTER
10
250.223
20
290.848
30
0
0
VERTEX
8
RASTER
10
249.794
20
291.044
30
0
0
VERTEX
8
RASTER
10
249.286
20
291.161
30
0
0
VERTEX
8
RASTER
10
248.7
20
291.2
30
0
0
VERTEX
8
RASTER
10
213.7
20
291.2
30
0
0
VERTEX
8
RASTER
10
213.114
20
291.239
30
0
0
VERTEX
8
RASTER
10
212.606
20
291.356
30
0
0
VERTEX
8
RASTER
10
212.177
20
291.552
30
0
0
VERTEX
8
RASTER
10
211.825
20
291.825
30
0
0
VERTEX
8
RASTER
10
211.552
20
292.177
30
0
0
VERTEX
8
RASTER
10
211.356
20
292.606
30
0
0
VERTEX
8
RASTER
10
211.239
20
293.114
30
0
0
VERTEX
8
RASTER
10
211.2
20
293.7
30
0
0
VERTEX
8
RASTER
10
211.2
20
308.7
30
0
0
VERTEX
8
RASTER
10
211.161
20
309.286
30
0
0
VERTEX
8
RASTER
10
211.044
20
309.794
30
0
0
VERTEX
8
RASTER
10
210.848
20
310.223
30
0
0
VERTEX
8
RASTER
10
210.575
20
310.575
30
0
0
VERTEX
8
RASTER
10
210.223
20
310.848
30
0
0
VERTEX
8
RASTER
10
209.794
20
311.044
30
0
0
VERTEX
8
RASTER
10
209.286
20
311.161
30
0
0
VERTEX
8
RASTER
10
208.7
20
311.2
30
0
0
VERTEX
8
RASTER
10
105.3
20
311.2
30
0
0
VERTEX
8
RASTER
10
104.714
20
311.161
30
0
0
VERTEX
8
RASTER
10
104.206
20
311.044
30
0
0
VERTEX
8
RASTER
10
103.777
20
310.848
30
0
0
VERTEX
8
RASTER
10
103.425
20
310.575
30
0
0
VERTEX
8
RASTER
10
103.152
20
310.223
30
0
0
VERTEX
8
RASTER
10
102.956
20
309.794
30
0
0
VERTEX
8
RASTER
10
102.839
20
309.286
30
0
0
VERTEX
8
RASTER
10
102.8
20
308.7
30
0
0
VERTEX
8
RASTER
10
102.8
20
293.7
30
0
0
VERTEX
8
RASTER
10
102.761
20
293.114
30
0
0
VERTEX
8
RASTER
10
102.644
20
292.606
30
0
0
VERTEX
8
RASTER
10
102.448
20
292.177
30
0
0
VERTEX
8
RASTER
10
102.175
20
291.825
30
0
0
VERTEX
8
RASTER
10
101.823
20
291.552
30
0
0
VERTEX
8
RASTER
10
101.394
20
291.356
30
0
0
VERTEX
8
RASTER
10
100.886
20
291.239
30
0
0
VERTEX
8
RASTER
10
100.3
20
291.2
30
0
0
VERTEX
8
RASTER
10
65.3
20
291.2
30
0
0
VERTEX
8
RASTER
10
64.714
20
291.161
30
0
0
VERTEX
8
RASTER
10
64.206
20
291.044
30
0
0
VERTEX
8
RASTER
10
63.777
20
290.848
30
0
0
VERTEX
8
RASTER
10
63.425
20
290.575
30
0
0
VERTEX
8
RASTER
10
63.152
20
290.223
30
0
0
VERTEX
8
RASTER
10
62.956
20
289.794
30
0
0
VERTEX
8
RASTER
10
62.839
20
289.286
30
0
0
VERTEX
8
RASTER
10
62.8
20
288.7
30
0
0
VERTEX
8
RASTER
10
62.8
20
273.7
30
0
0
VERTEX
8
RASTER
10
62.761
20
273.114
30
0
0
VERTEX
8
RASTER
10
62.644
20
272.606
30
0
0
VERTEX
8
RASTER
10
62.448
20
272.177
30
0
0
VERTEX
8
RASTER
10
62.175
20
271.825
30
0
0
VERTEX
8
RASTER
10
61.823
20
271.552
30
0
0
VERTEX
8
RASTER
10
61.394
20
271.356
30
0
0
VERTEX
8
RASTER
10
60.886
20
271.239
30
0
0
VERTEX
8
RASTER
10
60.3
20
271.2
30
0
0
VERTEX
8
RASTER
10
45.3
20
271.2
30
0
0
VERTEX
8
RASTER
10
44.714
20
271.161
30
0
0
VERTEX
8
RASTER
10
44.206
20
271.044
30
0
0
VERTEX
8
RASTER
10
43.777
20
270.848
30
0
0
VERTEX
8
RASTER
10
43.425
20
270.575
30
0
0
VERTEX
8
RASTER
10
43.152
20
270.223
30
0
0
VERTEX
8
RASTER
10
42.956
20
269.794
30
0
0
VERTEX
8
RASTER
10
42.839
20
269.286
30
0
0
VERTEX
8
RASTER
10
42.8
20
268.7
30
0
0
VERTEX
8
RASTER
10
42.8
20
253.7
30
0
0
VERTEX
8
RASTER
10
42.761
20
253.114
30
0
0
VERTEX
8
RASTER
10
42.644
20
252.606
30
0
0
VERTEX
8
RASTER
10
42.448
20
252.177
30
0
0
VERTEX
8
RASTER
10
42.175
20
251.825
30
0
0
VERTEX
8
RASTER
10
41.823
20
251.552
30
0
0
VERTEX
8
RASTER
10
41.394
20
251.356
30
0
0
VERTEX
8
RASTER
10
40.886
20
251.239
30
0
0
VERTEX
8
RASTER
10
40.3
20
251.2
30
0
0
VERTEX
8
RASTER
10
25.3
20
251.2
30
0
0
VERTEX
8
RASTER
10
24.714
20
251.161
30
0
0
VERTEX
8
RASTER
10
24.206
20
251.044
30
0
0
VERTEX
8
RASTER
10
23.777
20
250.848
30
0
0
VERTEX
8
RASTER
10
23.425
20
250.575
30
0
0
VERTEX
8
RASTER
10
23.152
20
250.223
30
0
0
VERTEX
8
RASTER
10
22.956
20
249.794
30
0
0
VERTEX
8
RASTER
10
22.839
20
249.286
30
0
0
VERTEX
8
RASTER
10
22.8
20
248.7
30
0
0
VERTEX
8
RASTER
10
22.8
20
213.7
30
0
0
VERTEX
8
RASTER
10
22.761
20
213.114
30
0
0
VERTEX
8
RASTER
10
22.644
20
212.606
30
0
0
VERTEX
8
RASTER
10
22.448
20
212.177
30
0
0
VERTEX
8
RASTER
10
22.175
20
211.825
30
0
0
VERTEX
8
RASTER
10
21.823
20
211.552
30
0
0
VERTEX
8
RASTER
10
21.394
20
211.356
30
0
0
VERTEX
8
RASTER
10
20.886
20
211.239
30
0
0
VERTEX
8
RASTER
10
20.3
20
211.2
30
0
0
VERTEX
8
RASTER
10
5.3
20
211.2
30
0
0
VERTEX
8
RASTER
10
4.714
20
211.161
30
0
0
VERTEX
8
RASTER
10
4.206
20
211.044
30
0
0
VERTEX
8
RASTER
10
3.777
20
210.848
30
0
0
VERTEX
8
RASTER
10
3.425
20
210.575
30
0
0
VERTEX
8
RASTER
10
3.152
20
210.223
30
0
0
VERTEX
8
RASTER
10
2.956
20
209.794
30
0
0
VERTEX
8
RASTER
10
2.839
20
209.286
30
0
0
VERTEX
8
RASTER
10
2.8
20
208.7
30
0
0
SEQEND
8
RASTER
0
ENDSEC
0
EOF
