0
SECTION
2
HEADER
9
$ACADVER
1
AC1009
9
$EXTMIN
10
0
20
0
9
$EXTMAX
10
292
20
36
0
ENDSEC
0
SECTION
2
TABLES
0
TABLE
2
LAYER
70
2
0
LAYER
2
CUT
70
0
62
1
6
CONTINUOUS
0
LAYER
2
RASTER
70
0
62
7
6
CONTINUOUS
0
ENDTAB
0
ENDSEC
0
SECTION
2
ENTITIES
0
CIRCLE
8
CUT
10
10
20
26
30
0
40
6
0
CIRCLE
8
RASTER
10
10
20
26
30
0
40
5.2
0
POLYLINE
8
RASTER
66
1
70
1
0
VERTEX
8
RASTER
10
9.897
20
24.147
30
0
0
VERTEX
8
RASTER
10
9.828
20
22.705
30
0
0
VERTEX
8
RASTER
10
10.172
20
22.705
30
0
0
VERTEX
8
RASTER
10
10.103
20
24.147
30
0
0
VERTEX
8
RASTER
10
9.897
20
24.147
30
0
0
SEQEND
8
RASTER
0
POLYLINE
8
RASTER
66
1
70
1
0
VERTEX
8
RASTER
10
10.343
20
28.677
30
0
0
VERTEX
8
RASTER
10
10.336
20
28.795
30
0
0
VERTEX
8
RASTER
10
10.316
20
28.904
30
0
0
VERTEX
8
RASTER
10
10.285
20
29.003
30
0
0
VERTEX
8
RASTER
10
10.243
20
29.09
30
0
0
VERTEX
8
RASTER
10
10.192
20
29.161
30
0
0
VERTEX
8
RASTER
10
10.134
20
29.215
30
0
0
VERTEX
8
RASTER
10
10.069
20
29.249
30
0
0
VERTEX
8
RASTER
10
10
20
29.26
30
0
0
VERTEX
8
RASTER
10
9.931
20
29.249
30
0
0
VERTEX
8
RASTER
10
9.866
20
29.215
30
0
0
VERTEX
8
RASTER
10
9.808
20
29.161
30
0
0
VERTEX
8
RASTER
10
9.757
20
29.09
30
0
0
VERTEX
8
RASTER
10
9.715
20
29.003
30
0
0
VERTEX
8
RASTER
10
9.684
20
28.904
30
0
0
VERTEX
8
RASTER
10
9.664
20
28.795
30
0
0
VERTEX
8
RASTER
10
9.657
20
28.677
30
0
0
VERTEX
8
RASTER
10
9.664
20
28.559
30
0
0
VERTEX
8
RASTER
10
9.684
20
28.45
30
0
0
VERTEX
8
RASTER
10
9.715
20
28.351
30
0
0
VERTEX
8
RASTER
10
9.757
20
28.264
30
0
0
VERTEX
8
RASTER
10
9.808
20
28.193
30
0
0
VERTEX
8
RASTER
10
9.866
20
28.139
30
0
0
VERTEX
8
RASTER
10
9.931
20
28.105
30
0
0
VERTEX
8
RASTER
10
10
20
28.094
30
0
0
VERTEX
8
RASTER
10
10.069
20
28.105
30
0
0
VERTEX
8
RASTER
10
10.134
20
28.139
30
0
0
VERTEX
8
RASTER
10
10.192
20
28.193
30
0
0
VERTEX
8
RASTER
10
10.243
20
28.264
30
0
0
VERTEX
8
RASTER
10
10.285
20
28.351
30
0
0
VERTEX
8
RASTER
10
10.316
20
28.45
30
0
0
VERTEX
8
RASTER
10
10.336
20
28.559
30
0
0
VERTEX
8
RASTER
10
10.343
20
28.677
30
0
0
SEQEND
8
RASTER
0
POLYLINE
8
RASTER
66
1
70
1
0
VERTEX
8
RASTER
10
9.778
20
27.699
30
0
0
VERTEX
8
RASTER
10
9.705
20
27.809
30
0
0
VERTEX
8
RASTER
10
9.625
20
27.904
30
0
0
VERTEX
8
RASTER
10
9.54
20
27.982
30
0
0
VERTEX
8
RASTER
10
9.452
20
28.043
30
0
0
VERTEX
8
RASTER
10
9.363
20
28.084
30
0
0
VERTEX
8
RASTER
10
9.278
20
28.104
30
0
0
VERTEX
8
RASTER
10
9.197
20
28.101
30
0
0
VERTEX
8
RASTER
10
9.125
20
28.075
30
0
0
VERTEX
8
RASTER
10
9.066
20
28.025
30
0
0
VERTEX
8
RASTER
10
9.023
20
27.957
30
0
0
VERTEX
8
RASTER
10
8.998
20
27.873
30
0
0
VERTEX
8
RASTER
10
8.989
20
27.776
30
0
0
VERTEX
8
RASTER
10
8.997
20
27.669
30
0
0
VERTEX
8
RASTER
10
9.023
20
27.556
30
0
0
VERTEX
8
RASTER
10
9.065
20
27.439
30
0
0
VERTEX
8
RASTER
10
9.124
20
27.321
30
0
0
VERTEX
8
RASTER
10
9.196
20
27.211
30
0
0
VERTEX
8
RASTER
10
9.277
20
27.116
30
0
0
VERTEX
8
RASTER
10
9.362
20
27.038
30
0
0
VERTEX
8
RASTER
10
9.45
20
26.977
30
0
0
VERTEX
8
RASTER
10
9.538
20
26.936
30
0
0
VERTEX
8
RASTER
10
9.624
20
26.916
30
0
0
VERTEX
8
RASTER
10
9.704
20
26.919
30
0
0
VERTEX
8
RASTER
10
9.777
20
26.945
30
0
0
VERTEX
8
RASTER
10
9.836
20
26.995
30
0
0
VERTEX
8
RASTER
10
9.879
20
27.063
30
0
0
VERTEX
8
RASTER
10
9.904
20
27.147
30
0
0
VERTEX
8
RASTER
10
9.913
20
27.244
30
0
0
VERTEX
8
RASTER
10
9.904
20
27.351
30
0
0
VERTEX
8
RASTER
10
9.879
20
27.464
30
0
0
VERTEX
8
RASTER
10
9.837
20
27.581
30
0
0
VERTEX
8
RASTER
10
9.778
20
27.699
30
0
0
SEQEND
8
RASTER
0
POLYLINE
8
RASTER
66
1
70
1
0
VERTEX
8
RASTER
10
10.876
20
27.321
30
0
0
VERTEX
8
RASTER
10
10.935
20
27.439
30
0
0
VERTEX
8
RASTER
10
10.977
20
27.556
30
0
0
VERTEX
8
RASTER
10
11.003
20
27.669
30
0
0
VERTEX
8
RASTER
10
11.011
20
27.776
30
0
0
VERTEX
8
RASTER
10
11.002
20
27.873
30
0
0
VERTEX
8
RASTER
10
10.977
20
27.957
30
0
0
VERTEX
8
RASTER
10
10.934
20
28.025
30
0
0
VERTEX
8
RASTER
10
10.875
20
28.075
30
0
0
VERTEX
8
RASTER
10
10.803
20
28.101
30
0
0
VERTEX
8
RASTER
10
10.722
20
28.104
30
0
0
VERTEX
8
RASTER
10
10.637
20
28.084
30
0
0
VERTEX
8
RASTER
10
10.548
20
28.043
30
0
0
VERTEX
8
RASTER
10
10.46
20
27.982
30
0
0
VERTEX
8
RASTER
10
10.375
20
27.904
30
0
0
VERTEX
8
RASTER
10
10.295
20
27.809
30
0
0
VERTEX
8
RASTER
10
10.222
20
27.699
30
0
0
VERTEX
8
RASTER
10
10.163
20
27.581
30
0
0
VERTEX
8
RASTER
10
10.121
20
27.464
30
0
0
VERTEX
8
RASTER
10
10.096
20
27.351
30
0
0
VERTEX
8
RASTER
10
10.087
20
27.244
30
0
0
VERTEX
8
RASTER
10
10.096
20
27.147
30
0
0
VERTEX
8
RASTER
10
10.121
20
27.063
30
0
0
VERTEX
8
RASTER
10
10.164
20
26.995
30
0
0
VERTEX
8
RASTER
10
10.223
20
26.945
30
0
0
VERTEX
8
RASTER
10
10.296
20
26.919
30
0
0
VERTEX
8
RASTER
10
10.376
20
26.916
30
0
0
VERTEX
8
RASTER
10
10.462
20
26.936
30
0
0
VERTEX
8
RASTER
10
10.55
20
26.977
30
0
0
VERTEX
8
RASTER
10
10.638
20
27.038
30
0
0
VERTEX
8
RASTER
10
10.723
20
27.116
30
0
0
VERTEX
8
RASTER
10
10.804
20
27.211
30
0
0
VERTEX
8
RASTER
10
10.876
20
27.321
30
0
0
SEQEND
8
RASTER
0
POLYLINE
8
RASTER
66
1
70
1
0
VERTEX
8
RASTER
10
9.778
20
26.395
30
0
0
VERTEX
8
RASTER
10
9.705
20
26.505
30
0
0
VERTEX
8
RASTER
10
9.625
20
26.6
30
0
0
VERTEX
8
RASTER
10
9.54
20
26.678
30
0
0
VERTEX
8
RASTER
10
9.452
20
26.739
30
0
0
VERTEX
8
RASTER
10
9.363
20
26.78
30
0
0
VERTEX
8
RASTER
10
9.278
20
26.8
30
0
0
VERTEX
8
RASTER
10
9.197
20
26.797
30
0
0
VERTEX
8
RASTER
10
9.125
20
26.771
30
0
0
VERTEX
8
RASTER
10
9.066
20
26.721
30
0
0
VERTEX
8
RASTER
10
9.023
20
26.653
30
0
0
VERTEX
8
RASTER
10
8.998
20
26.569
30
0
0
VERTEX
8
RASTER
10
8.989
20
26.472
30
0
0
VERTEX
8
RASTER
10
8.997
20
26.365
30
0
0
VERTEX
8
RASTER
10
9.023
20
26.252
30
0
0
VERTEX
8
RASTER
10
9.065
20
26.135
30
0
0
VERTEX
8
RASTER
10
9.124
20
26.017
30
0
0
VERTEX
8
RASTER
10
9.196
20
25.907
30
0
0
VERTEX
8
RASTER
10
9.277
20
25.812
30
0
0
VERTEX
8
RASTER
10
9.362
20
25.734
30
0
0
VERTEX
8
RASTER
10
9.45
20
25.673
30
0
0
VERTEX
8
RASTER
10
9.538
20
25.632
30
0
0
VERTEX
8
RASTER
10
9.624
20
25.612
30
0
0
VERTEX
8
RASTER
10
9.704
20
25.615
30
0
0
VERTEX
8
RASTER
10
9.777
20
25.641
30
0
0
VERTEX
8
RASTER
10
9.836
20
25.691
30
0
0
VERTEX
8
RASTER
10
9.879
20
25.759
30
0
0
VERTEX
8
RASTER
10
9.904
20
25.843
30
0
0
VERTEX
8
RASTER
10
9.913
20
25.94
30
0
0
VERTEX
8
RASTER
10
9.904
20
26.047
30
0
0
VERTEX
8
RASTER
10
9.879
20
26.16
30
0
0
VERTEX
8
RASTER
10
9.837
20
26.277
30
0
0
VERTEX
8
RASTER
10
9.778
20
26.395
30
0
0
SEQEND
8
RASTER
0
POLYLINE
8
RASTER
66
1
70
1
0
VERTEX
8
RASTER
10
10.876
20
26.017
30
0
0
VERTEX
8
RASTER
10
10.935
20
26.135
30
0
0
VERTEX
8
RASTER
10
10.977
20
26.252
30
0
0
VERTEX
8
RASTER
10
11.003
20
26.365
30
0
0
VERTEX
8
RASTER
10
11.011
20
26.472
30
0
0
VERTEX
8
RASTER
10
11.002
20
26.569
30
0
0
VERTEX
8
RASTER
10
10.977
20
26.653
30
0
0
VERTEX
8
RASTER
10
10.934
20
26.721
30
0
0
VERTEX
8
RASTER
10
10.875
20
26.771
30
0
0
VERTEX
8
RASTER
10
10.803
20
26.797
30
0
0
VERTEX
8
RASTER
10
10.722
20
26.8
30
0
0
VERTEX
8
RASTER
10
10.637
20
26.78
30
0
0
VERTEX
8
RASTER
10
10.548
20
26.739
30
0
0
VERTEX
8
RASTER
10
10.46
20
26.678
30
0
0
VERTEX
8
RASTER
10
10.375
20
26.6
30
0
0
VERTEX
8
RASTER
10
10.295
20
26.505
30
0
0
VERTEX
8
RASTER
10
10.222
20
26.395
30
0
0
VERTEX
8
RASTER
10
10.163
20
26.277
30
0
0
VERTEX
8
RASTER
10
10.121
20
26.16
30
0
0
VERTEX
8
RASTER
10
10.096
20
26.047
30
0
0
VERTEX
8
RASTER
10
10.087
20
25.94
30
0
0
VERTEX
8
RASTER
10
10.096
20
25.843
30
0
0
VERTEX
8
RASTER
10
10.121
20
25.759
30
0
0
VERTEX
8
RASTER
10
10.164
20
25.691
30
0
0
VERTEX
8
RASTER
10
10.223
20
25.641
30
0
0
VERTEX
8
RASTER
10
10.296
20
25.615
30
0
0
VERTEX
8
RASTER
10
10.376
20
25.612
30
0
0
VERTEX
8
RASTER
10
10.462
20
25.632
30
0
0
VERTEX
8
RASTER
10
10.55
20
25.673
30
0
0
VERTEX
8
RASTER
10
10.638
20
25.734
30
0
0
VERTEX
8
RASTER
10
10.723
20
25.812
30
0
0
VERTEX
8
RASTER
10
10.804
20
25.907
30
0
0
VERTEX
8
RASTER
10
10.876
20
26.017
30
0
0
SEQEND
8
RASTER
0
POLYLINE
8
RASTER
66
1
70
1
0
VERTEX
8
RASTER
10
9.778
20
25.091
30
0
0
VERTEX
8
RASTER
10
9.705
20
25.2
30
0
0
VERTEX
8
RASTER
10
9.625
20
25.295
30
0
0
VERTEX
8
RASTER
10
9.54
20
25.374
30
0
0
VERTEX
8
RASTER
10
9.452
20
25.435
30
0
0
VERTEX
8
RASTER
10
9.363
20
25.476
30
0
0
VERTEX
8
RASTER
10
9.278
20
25.496
30
0
0
VERTEX
8
RASTER
10
9.197
20
25.493
30
0
0
VERTEX
8
RASTER
10
9.125
20
25.466
30
0
0
VERTEX
8
RASTER
10
9.066
20
25.417
30
0
0
VERTEX
8
RASTER
10
9.023
20
25.349
30
0
0
VERTEX
8
RASTER
10
8.998
20
25.264
30
0
0
VERTEX
8
RASTER
10
8.989
20
25.168
30
0
0
VERTEX
8
RASTER
10
8.997
20
25.061
30
0
0
VERTEX
8
RASTER
10
9.023
20
24.948
30
0
0
VERTEX
8
RASTER
10
9.065
20
24.831
30
0
0
VERTEX
8
RASTER
10
9.124
20
24.713
30
0
0
VERTEX
8
RASTER
10
9.196
20
24.603
30
0
0
VERTEX
8
RASTER
10
9.277
20
24.508
30
0
0
VERTEX
8
RASTER
10
9.362
20
24.429
30
0
0
VERTEX
8
RASTER
10
9.45
20
24.369
30
0
0
VERTEX
8
RASTER
10
9.538
20
24.328
30
0
0
VERTEX
8
RASTER
10
9.624
20
24.308
30
0
0
VERTEX
8
RASTER
10
9.704
20
24.31
30
0
0
VERTEX
8
RASTER
10
9.777
20
24.337
30
0
0
VERTEX
8
RASTER
10
9.836
20
24.387
30
0
0
VERTEX
8
RASTER
10
9.879
20
24.455
30
0
0
VERTEX
8
RASTER
10
9.904
20
24.539
30
0
0
VERTEX
8
RASTER
10
9.913
20
24.636
30
0
0
VERTEX
8
RASTER
10
9.904
20
24.743
30
0
0
VERTEX
8
RASTER
10
9.879
20
24.856
30
0
0
VERTEX
8
RASTER
10
9.837
20
24.973
30
0
0
VERTEX
8
RASTER
10
9.778
20
25.091
30
0
0
SEQEND
8
RASTER
0
POLYLINE
8
RASTER
66
1
70
1
0
VERTEX
8
RASTER
10
10.876
20
24.713
30
0
0
VERTEX
8
RASTER
10
10.935
20
24.831
30
0
0
VERTEX
8
RASTER
10
10.977
20
24.948
30
0
0
VERTEX
8
RASTER
10
11.003
20
25.061
30
0
0
VERTEX
8
RASTER
10
11.011
20
25.168
30
0
0
VERTEX
8
RASTER
10
11.002
20
25.264
30
0
0
VERTEX
8
RASTER
10
10.977
20
25.349
30
0
0
VERTEX
8
RASTER
10
10.934
20
25.417
30
0
0
VERTEX
8
RASTER
10
10.875
20
25.466
30
0
0
VERTEX
8
RASTER
10
10.803
20
25.493
30
0
0
VERTEX
8
RASTER
10
10.722
20
25.496
30
0
0
VERTEX
8
RASTER
10
10.637
20
25.476
30
0
0
VERTEX
8
RASTER
10
10.548
20
25.435
30
0
0
VERTEX
8
RASTER
10
10.46
20
25.374
30
0
0
VERTEX
8
RASTER
10
10.375
20
25.295
30
0
0
VERTEX
8
RASTER
10
10.295
20
25.2
30
0
0
VERTEX
8
RASTER
10
10.222
20
25.091
30
0
0
VERTEX
8
RASTER
10
10.163
20
24.973
30
0
0
VERTEX
8
RASTER
10
10.121
20
24.856
30
0
0
VERTEX
8
RASTER
10
10.096
20
24.743
30
0
0
VERTEX
8
RASTER
10
10.087
20
24.636
30
0
0
VERTEX
8
RASTER
10
10.096
20
24.539
30
0
0
VERTEX
8
RASTER
10
10.121
20
24.455
30
0
0
VERTEX
8
RASTER
10
10.164
20
24.387
30
0
0
VERTEX
8
RASTER
10
10.223
20
24.337
30
0
0
VERTEX
8
RASTER
10
10.296
20
24.31
30
0
0
VERTEX
8
RASTER
10
10.376
20
24.308
30
0
0
VERTEX
8
RASTER
10
10.462
20
24.328
30
0
0
VERTEX
8
RASTER
10
10.55
20
24.369
30
0
0
VERTEX
8
RASTER
10
10.638
20
24.429
30
0
0
VERTEX
8
RASTER
10
10.723
20
24.508
30
0
0
VERTEX
8
RASTER
10
10.804
20
24.603
30
0
0
VERTEX
8
RASTER
10
10.876
20
24.713
30
0
0
SEQEND
8
RASTER
0
CIRCLE
8
CUT
10
26
20
26
30
0
40
6
0
CIRCLE
8
RASTER
10
26
20
26
30
0
40
5.2
0
POLYLINE
8
RASTER
66
1
70
1
0
VERTEX
8
RASTER
10
25.897
20
24.147
30
0
0
VERTEX
8
RASTER
10
25.828
20
22.705
30
0
0
VERTEX
8
RASTER
10
26.172
20
22.705
30
0
0
VERTEX
8
RASTER
10
26.103
20
24.147
30
0
0
VERTEX
8
RASTER
10
25.897
20
24.147
30
0
0
SEQEND
8
RASTER
0
POLYLINE
8
RASTER
66
1
70
1
0
VERTEX
8
RASTER
10
26.343
20
28.677
30
0
0
VERTEX
8
RASTER
10
26.336
20
28.795
30
0
0
VERTEX
8
RASTER
10
26.316
20
28.904
30
0
0
VERTEX
8
RASTER
10
26.285
20
29.003
30
0
0
VERTEX
8
RASTER
10
26.243
20
29.09
30
0
0
VERTEX
8
RASTER
10
26.192
20
29.161
30
0
0
VERTEX
8
RASTER
10
26.134
20
29.215
30
0
0
VERTEX
8
RASTER
10
26.069
20
29.249
30
0
0
VERTEX
8
RASTER
10
26
20
29.26
30
0
0
VERTEX
8
RASTER
10
25.931
20
29.249
30
0
0
VERTEX
8
RASTER
10
25.866
20
29.215
30
0
0
VERTEX
8
RASTER
10
25.808
20
29.161
30
0
0
VERTEX
8
RASTER
10
25.757
20
29.09
30
0
0
VERTEX
8
RASTER
10
25.715
20
29.003
30
0
0
VERTEX
8
RASTER
10
25.684
20
28.904
30
0
0
VERTEX
8
RASTER
10
25.664
20
28.795
30
0
0
VERTEX
8
RASTER
10
25.657
20
28.677
30
0
0
VERTEX
8
RASTER
10
25.664
20
28.559
30
0
0
VERTEX
8
RASTER
10
25.684
20
28.45
30
0
0
VERTEX
8
RASTER
10
25.715
20
28.351
30
0
0
VERTEX
8
RASTER
10
25.757
20
28.264
30
0
0
VERTEX
8
RASTER
10
25.808
20
28.193
30
0
0
VERTEX
8
RASTER
10
25.866
20
28.139
30
0
0
VERTEX
8
RASTER
10
25.931
20
28.105
30
0
0
VERTEX
8
RASTER
10
26
20
28.094
30
0
0
VERTEX
8
RASTER
10
26.069
20
28.105
30
0
0
VERTEX
8
RASTER
10
26.134
20
28.139
30
0
0
VERTEX
8
RASTER
10
26.192
20
28.193
30
0
0
VERTEX
8
RASTER
10
26.243
20
28.264
30
0
0
VERTEX
8
RASTER
10
26.285
20
28.351
30
0
0
VERTEX
8
RASTER
10
26.316
20
28.45
30
0
0
VERTEX
8
RASTER
10
26.336
20
28.559
30
0
0
VERTEX
8
RASTER
10
26.343
20
28.677
30
0
0
SEQEND
8
RASTER
0
POLYLINE
8
RASTER
66
1
70
1
0
VERTEX
8
RASTER
10
25.778
20
27.699
30
0
0
VERTEX
8
RASTER
10
25.705
20
27.809
30
0
0
VERTEX
8
RASTER
10
25.625
20
27.904
30
0
0
VERTEX
8
RASTER
10
25.54
20
27.982
30
0
0
VERTEX
8
RASTER
10
25.452
20
28.043
30
0
0
VERTEX
8
RASTER
10
25.363
20
28.084
30
0
0
VERTEX
8
RASTER
10
25.278
20
28.104
30
0
0
VERTEX
8
RASTER
10
25.197
20
28.101
30
0
0
VERTEX
8
RASTER
10
25.125
20
28.075
30
0
0
VERTEX
8
RASTER
10
25.066
20
28.025
30
0
0
VERTEX
8
RASTER
10
25.023
20
27.957
30
0
0
VERTEX
8
RASTER
10
24.998
20
27.873
30
0
0
VERTEX
8
RASTER
10
24.989
20
27.776
30
0
0
VERTEX
8
RASTER
10
24.997
20
27.669
30
0
0
VERTEX
8
RASTER
10
25.023
20
27.556
30
0
0
VERTEX
8
RASTER
10
25.065
20
27.439
30
0
0
VERTEX
8
RASTER
10
25.124
20
27.321
30
0
0
VERTEX
8
RASTER
10
25.196
20
27.211
30
0
0
VERTEX
8
RASTER
10
25.277
20
27.116
30
0
0
VERTEX
8
RASTER
10
25.362
20
27.038
30
0
0
VERTEX
8
RASTER
10
25.45
20
26.977
30
0
0
VERTEX
8
RASTER
10
25.538
20
26.936
30
0
0
VERTEX
8
RASTER
10
25.624
20
26.916
30
0
0
VERTEX
8
RASTER
10
25.704
20
26.919
30
0
0
VERTEX
8
RASTER
10
25.777
20
26.945
30
0
0
VERTEX
8
RASTER
10
25.836
20
26.995
30
0
0
VERTEX
8
RASTER
10
25.879
20
27.063
30
0
0
VERTEX
8
RASTER
10
25.904
20
27.147
30
0
0
VERTEX
8
RASTER
10
25.913
20
27.244
30
0
0
VERTEX
8
RASTER
10
25.904
20
27.351
30
0
0
VERTEX
8
RASTER
10
25.879
20
27.464
30
0
0
VERTEX
8
RASTER
10
25.837
20
27.581
30
0
0
VERTEX
8
RASTER
10
25.778
20
27.699
30
0
0
SEQEND
8
RASTER
0
POLYLINE
8
RASTER
66
1
70
1
0
VERTEX
8
RASTER
10
26.876
20
27.321
30
0
0
VERTEX
8
RASTER
10
26.935
20
27.439
30
0
0
VERTEX
8
RASTER
10
26.977
20
27.556
30
0
0
VERTEX
8
RASTER
10
27.003
20
27.669
30
0
0
VERTEX
8
RASTER
10
27.011
20
27.776
30
0
0
VERTEX
8
RASTER
10
27.002
20
27.873
30
0
0
VERTEX
8
RASTER
10
26.977
20
27.957
30
0
0
VERTEX
8
RASTER
10
26.934
20
28.025
30
0
0
VERTEX
8
RASTER
10
26.875
20
28.075
30
0
0
VERTEX
8
RASTER
10
26.803
20
28.101
30
0
0
VERTEX
8
RASTER
10
26.722
20
28.104
30
0
0
VERTEX
8
RASTER
10
26.637
20
28.084
30
0
0
VERTEX
8
RASTER
10
26.548
20
28.043
30
0
0
VERTEX
8
RASTER
10
26.46
20
27.982
30
0
0
VERTEX
8
RASTER
10
26.375
20
27.904
30
0
0
VERTEX
8
RASTER
10
26.295
20
27.809
30
0
0
VERTEX
8
RASTER
10
26.222
20
27.699
30
0
0
VERTEX
8
RASTER
10
26.163
20
27.581
30
0
0
VERTEX
8
RASTER
10
26.121
20
27.464
30
0
0
VERTEX
8
RASTER
10
26.096
20
27.351
30
0
0
VERTEX
8
RASTER
10
26.087
20
27.244
30
0
0
VERTEX
8
RASTER
10
26.096
20
27.147
30
0
0
VERTEX
8
RASTER
10
26.121
20
27.063
30
0
0
VERTEX
8
RASTER
10
26.164
20
26.995
30
0
0
VERTEX
8
RASTER
10
26.223
20
26.945
30
0
0
VERTEX
8
RASTER
10
26.296
20
26.919
30
0
0
VERTEX
8
RASTER
10
26.376
20
26.916
30
0
0
VERTEX
8
RASTER
10
26.462
20
26.936
30
0
0
VERTEX
8
RASTER
10
26.55
20
26.977
30
0
0
VERTEX
8
RASTER
10
26.638
20
27.038
30
0
0
VERTEX
8
RASTER
10
26.723
20
27.116
30
0
0
VERTEX
8
RASTER
10
26.804
20
27.211
30
0
0
VERTEX
8
RASTER
10
26.876
20
27.321
30
0
0
SEQEND
8
RASTER
0
POLYLINE
8
RASTER
66
1
70
1
0
VERTEX
8
RASTER
10
25.778
20
26.395
30
0
0
VERTEX
8
RASTER
10
25.705
20
26.505
30
0
0
VERTEX
8
RASTER
10
25.625
20
26.6
30
0
0
VERTEX
8
RASTER
10
25.54
20
26.678
30
0
0
VERTEX
8
RASTER
10
25.452
20
26.739
30
0
0
VERTEX
8
RASTER
10
25.363
20
26.78
30
0
0
VERTEX
8
RASTER
10
25.278
20
26.8
30
0
0
VERTEX
8
RASTER
10
25.197
20
26.797
30
0
0
VERTEX
8
RASTER
10
25.125
20
26.771
30
0
0
VERTEX
8
RASTER
10
25.066
20
26.721
30
0
0
VERTEX
8
RASTER
10
25.023
20
26.653
30
0
0
VERTEX
8
RASTER
10
24.998
20
26.569
30
0
0
VERTEX
8
RASTER
10
24.989
20
26.472
30
0
0
VERTEX
8
RASTER
10
24.997
20
26.365
30
0
0
VERTEX
8
RASTER
10
25.023
20
26.252
30
0
0
VERTEX
8
RASTER
10
25.065
20
26.135
30
0
0
VERTEX
8
RASTER
10
25.124
20
26.017
30
0
0
VERTEX
8
RASTER
10
25.196
20
25.907
30
0
0
VERTEX
8
RASTER
10
25.277
20
25.812
30
0
0
VERTEX
8
RASTER
10
25.362
20
25.734
30
0
0
VERTEX
8
RASTER
10
25.45
20
25.673
30
0
0
VERTEX
8
RASTER
10
25.538
20
25.632
30
0
0
VERTEX
8
RASTER
10
25.624
20
25.612
30
0
0
VERTEX
8
RASTER
10
25.704
20
25.615
30
0
0
VERTEX
8
RASTER
10
25.777
20
25.641
30
0
0
VERTEX
8
RASTER
10
25.836
20
25.691
30
0
0
VERTEX
8
RASTER
10
25.879
20
25.759
30
0
0
VERTEX
8
RASTER
10
25.904
20
25.843
30
0
0
VERTEX
8
RASTER
10
25.913
20
25.94
30
0
0
VERTEX
8
RASTER
10
25.904
20
26.047
30
0
0
VERTEX
8
RASTER
10
25.879
20
26.16
30
0
0
VERTEX
8
RASTER
10
25.837
20
26.277
30
0
0
VERTEX
8
RASTER
10
25.778
20
26.395
30
0
0
SEQEND
8
RASTER
0
POLYLINE
8
RASTER
66
1
70
1
0
VERTEX
8
RASTER
10
26.876
20
26.017
30
0
0
VERTEX
8
RASTER
10
26.935
20
26.135
30
0
0
VERTEX
8
RASTER
10
26.977
20
26.252
30
0
0
VERTEX
8
RASTER
10
27.003
20
26.365
30
0
0
VERTEX
8
RASTER
10
27.011
20
26.472
30
0
0
VERTEX
8
RASTER
10
27.002
20
26.569
30
0
0
VERTEX
8
RASTER
10
26.977
20
26.653
30
0
0
VERTEX
8
RASTER
10
26.934
20
26.721
30
0
0
VERTEX
8
RASTER
10
26.875
20
26.771
30
0
0
VERTEX
8
RASTER
10
26.803
20
26.797
30
0
0
VERTEX
8
RASTER
10
26.722
20
26.8
30
0
0
VERTEX
8
RASTER
10
26.637
20
26.78
30
0
0
VERTEX
8
RASTER
10
26.548
20
26.739
30
0
0
VERTEX
8
RASTER
10
26.46
20
26.678
30
0
0
VERTEX
8
RASTER
10
26.375
20
26.6
30
0
0
VERTEX
8
RASTER
10
26.295
20
26.505
30
0
0
VERTEX
8
RASTER
10
26.222
20
26.395
30
0
0
VERTEX
8
RASTER
10
26.163
20
26.277
30
0
0
VERTEX
8
RASTER
10
26.121
20
26.16
30
0
0
VERTEX
8
RASTER
10
26.096
20
26.047
30
0
0
VERTEX
8
RASTER
10
26.087
20
25.94
30
0
0
VERTEX
8
RASTER
10
26.096
20
25.843
30
0
0
VERTEX
8
RASTER
10
26.121
20
25.759
30
0
0
VERTEX
8
RASTER
10
26.164
20
25.691
30
0
0
VERTEX
8
RASTER
10
26.223
20
25.641
30
0
0
VERTEX
8
RASTER
10
26.296
20
25.615
30
0
0
VERTEX
8
RASTER
10
26.376
20
25.612
30
0
0
VERTEX
8
RASTER
10
26.462
20
25.632
30
0
0
VERTEX
8
RASTER
10
26.55
20
25.673
30
0
0
VERTEX
8
RASTER
10
26.638
20
25.734
30
0
0
VERTEX
8
RASTER
10
26.723
20
25.812
30
0
0
VERTEX
8
RASTER
10
26.804
20
25.907
30
0
0
VERTEX
8
RASTER
10
26.876
20
26.017
30
0
0
SEQEND
8
RASTER
0
POLYLINE
8
RASTER
66
1
70
1
0
VERTEX
8
RASTER
10
25.778
20
25.091
30
0
0
VERTEX
8
RASTER
10
25.705
20
25.2
30
0
0
VERTEX
8
RASTER
10
25.625
20
25.295
30
0
0
VERTEX
8
RASTER
10
25.54
20
25.374
30
0
0
VERTEX
8
RASTER
10
25.452
20
25.435
30
0
0
VERTEX
8
RASTER
10
25.363
20
25.476
30
0
0
VERTEX
8
RASTER
10
25.278
20
25.496
30
0
0
VERTEX
8
RASTER
10
25.197
20
25.493
30
0
0
VERTEX
8
RASTER
10
25.125
20
25.466
30
0
0
VERTEX
8
RASTER
10
25.066
20
25.417
30
0
0
VERTEX
8
RASTER
10
25.023
20
25.349
30
0
0
VERTEX
8
RASTER
10
24.998
20
25.264
30
0
0
VERTEX
8
RASTER
10
24.989
20
25.168
30
0
0
VERTEX
8
RASTER
10
24.997
20
25.061
30
0
0
VERTEX
8
RASTER
10
25.023
20
24.948
30
0
0
VERTEX
8
RASTER
10
25.065
20
24.831
30
0
0
VERTEX
8
RASTER
10
25.124
20
24.713
30
0
0
VERTEX
8
RASTER
10
25.196
20
24.603
30
0
0
VERTEX
8
RASTER
10
25.277
20
24.508
30
0
0
VERTEX
8
RASTER
10
25.362
20
24.429
30
0
0
VERTEX
8
RASTER
10
25.45
20
24.369
30
0
0
VERTEX
8
RASTER
10
25.538
20
24.328
30
0
0
VERTEX
8
RASTER
10
25.624
20
24.308
30
0
0
VERTEX
8
RASTER
10
25.704
20
24.31
30
0
0
VERTEX
8
RASTER
10
25.777
20
24.337
30
0
0
VERTEX
8
RASTER
10
25.836
20
24.387
30
0
0
VERTEX
8
RASTER
10
25.879
20
24.455
30
0
0
VERTEX
8
RASTER
10
25.904
20
24.539
30
0
0
VERTEX
8
RASTER
10
25.913
20
24.636
30
0
0
VERTEX
8
RASTER
10
25.904
20
24.743
30
0
0
VERTEX
8
RASTER
10
25.879
20
24.856
30
0
0
VERTEX
8
RASTER
10
25.837
20
24.973
30
0
0
VERTEX
8
RASTER
10
25.778
20
25.091
30
0
0
SEQEND
8
RASTER
0
POLYLINE
8
RASTER
66
1
70
1
0
VERTEX
8
RASTER
10
26.876
20
24.713
30
0
0
VERTEX
8
RASTER
10
26.935
20
24.831
30
0
0
VERTEX
8
RASTER
10
26.977
20
24.948
30
0
0
VERTEX
8
RASTER
10
27.003
20
25.061
30
0
0
VERTEX
8
RASTER
10
27.011
20
25.168
30
0
0
VERTEX
8
RASTER
10
27.002
20
25.264
30
0
0
VERTEX
8
RASTER
10
26.977
20
25.349
30
0
0
VERTEX
8
RASTER
10
26.934
20
25.417
30
0
0
VERTEX
8
RASTER
10
26.875
20
25.466
30
0
0
VERTEX
8
RASTER
10
26.803
20
25.493
30
0
0
VERTEX
8
RASTER
10
26.722
20
25.496
30
0
0
VERTEX
8
RASTER
10
26.637
20
25.476
30
0
0
VERTEX
8
RASTER
10
26.548
20
25.435
30
0
0
VERTEX
8
RASTER
10
26.46
20
25.374
30
0
0
VERTEX
8
RASTER
10
26.375
20
25.295
30
0
0
VERTEX
8
RASTER
10
26.295
20
25.2
30
0
0
VERTEX
8
RASTER
10
26.222
20
25.091
30
0
0
VERTEX
8
RASTER
10
26.163
20
24.973
30
0
0
VERTEX
8
RASTER
10
26.121
20
24.856
30
0
0
VERTEX
8
RASTER
10
26.096
20
24.743
30
0
0
VERTEX
8
RASTER
10
26.087
20
24.636
30
0
0
VERTEX
8
RASTER
10
26.096
20
24.539
30
0
0
VERTEX
8
RASTER
10
26.121
20
24.455
30
0
0
VERTEX
8
RASTER
10
26.164
20
24.387
30
0
0
VERTEX
8
RASTER
10
26.223
20
24.337
30
0
0
VERTEX
8
RASTER
10
26.296
20
24.31
30
0
0
VERTEX
8
RASTER
10
26.376
20
24.308
30
0
0
VERTEX
8
RASTER
10
26.462
20
24.328
30
0
0
VERTEX
8
RASTER
10
26.55
20
24.369
30
0
0
VERTEX
8
RASTER
10
26.638
20
24.429
30
0
0
VERTEX
8
RASTER
10
26.723
20
24.508
30
0
0
VERTEX
8
RASTER
10
26.804
20
24.603
30
0
0
VERTEX
8
RASTER
10
26.876
20
24.713
30
0
0
SEQEND
8
RASTER
0
CIRCLE
8
CUT
10
42
20
26
30
0
40
6
0
CIRCLE
8
RASTER
10
42
20
26
30
0
40
5.2
0
POLYLINE
8
RASTER
66
1
70
1
0
VERTEX
8
RASTER
10
41.897
20
24.147
30
0
0
VERTEX
8
RASTER
10
41.828
20
22.705
30
0
0
VERTEX
8
RASTER
10
42.172
20
22.705
30
0
0
VERTEX
8
RASTER
10
42.103
20
24.147
30
0
0
VERTEX
8
RASTER
10
41.897
20
24.147
30
0
0
SEQEND
8
RASTER
0
POLYLINE
8
RASTER
66
1
70
1
0
VERTEX
8
RASTER
10
42.343
20
28.677
30
0
0
VERTEX
8
RASTER
10
42.336
20
28.795
30
0
0
VERTEX
8
RASTER
10
42.316
20
28.904
30
0
0
VERTEX
8
RASTER
10
42.285
20
29.003
30
0
0
VERTEX
8
RASTER
10
42.243
20
29.09
30
0
0
VERTEX
8
RASTER
10
42.192
20
29.161
30
0
0
VERTEX
8
RASTER
10
42.134
20
29.215
30
0
0
VERTEX
8
RASTER
10
42.069
20
29.249
30
0
0
VERTEX
8
RASTER
10
42
20
29.26
30
0
0
VERTEX
8
RASTER
10
41.931
20
29.249
30
0
0
VERTEX
8
RASTER
10
41.866
20
29.215
30
0
0
VERTEX
8
RASTER
10
41.808
20
29.161
30
0
0
VERTEX
8
RASTER
10
41.757
20
29.09
30
0
0
VERTEX
8
RASTER
10
41.715
20
29.003
30
0
0
VERTEX
8
RASTER
10
41.684
20
28.904
30
0
0
VERTEX
8
RASTER
10
41.664
20
28.795
30
0
0
VERTEX
8
RASTER
10
41.657
20
28.677
30
0
0
VERTEX
8
RASTER
10
41.664
20
28.559
30
0
0
VERTEX
8
RASTER
10
41.684
20
28.45
30
0
0
VERTEX
8
RASTER
10
41.715
20
28.351
30
0
0
VERTEX
8
RASTER
10
41.757
20
28.264
30
0
0
VERTEX
8
RASTER
10
41.808
20
28.193
30
0
0
VERTEX
8
RASTER
10
41.866
20
28.139
30
0
0
VERTEX
8
RASTER
10
41.931
20
28.105
30
0
0
VERTEX
8
RASTER
10
42
20
28.094
30
0
0
VERTEX
8
RASTER
10
42.069
20
28.105
30
0
0
VERTEX
8
RASTER
10
42.134
20
28.139
30
0
0
VERTEX
8
RASTER
10
42.192
20
28.193
30
0
0
VERTEX
8
RASTER
10
42.243
20
28.264
30
0
0
VERTEX
8
RASTER
10
42.285
20
28.351
30
0
0
VERTEX
8
RASTER
10
42.316
20
28.45
30
0
0
VERTEX
8
RASTER
10
42.336
20
28.559
30
0
0
VERTEX
8
RASTER
10
42.343
20
28.677
30
0
0
SEQEND
8
RASTER
0
POLYLINE
8
RASTER
66
1
70
1
0
VERTEX
8
RASTER
10
41.778
20
27.699
30
0
0
VERTEX
8
RASTER
10
41.705
20
27.809
30
0
0
VERTEX
8
RASTER
10
41.625
20
27.904
30
0
0
VERTEX
8
RASTER
10
41.54
20
27.982
30
0
0
VERTEX
8
RASTER
10
41.452
20
28.043
30
0
0
VERTEX
8
RASTER
10
41.363
20
28.084
30
0
0
VERTEX
8
RASTER
10
41.278
20
28.104
30
0
0
VERTEX
8
RASTER
10
41.197
20
28.101
30
0
0
VERTEX
8
RASTER
10
41.125
20
28.075
30
0
0
VERTEX
8
RASTER
10
41.066
20
28.025
30
0
0
VERTEX
8
RASTER
10
41.023
20
27.957
30
0
0
VERTEX
8
RASTER
10
40.998
20
27.873
30
0
0
VERTEX
8
RASTER
10
40.989
20
27.776
30
0
0
VERTEX
8
RASTER
10
40.997
20
27.669
30
0
0
VERTEX
8
RASTER
10
41.023
20
27.556
30
0
0
VERTEX
8
RASTER
10
41.065
20
27.439
30
0
0
VERTEX
8
RASTER
10
41.124
20
27.321
30
0
0
VERTEX
8
RASTER
10
41.196
20
27.211
30
0
0
VERTEX
8
RASTER
10
41.277
20
27.116
30
0
0
VERTEX
8
RASTER
10
41.362
20
27.038
30
0
0
VERTEX
8
RASTER
10
41.45
20
26.977
30
0
0
VERTEX
8
RASTER
10
41.538
20
26.936
30
0
0
VERTEX
8
RASTER
10
41.624
20
26.916
30
0
0
VERTEX
8
RASTER
10
41.704
20
26.919
30
0
0
VERTEX
8
RASTER
10
41.777
20
26.945
30
0
0
VERTEX
8
RASTER
10
41.836
20
26.995
30
0
0
VERTEX
8
RASTER
10
41.879
20
27.063
30
0
0
VERTEX
8
RASTER
10
41.904
20
27.147
30
0
0
VERTEX
8
RASTER
10
41.913
20
27.244
30
0
0
VERTEX
8
RASTER
10
41.904
20
27.351
30
0
0
VERTEX
8
RASTER
10
41.879
20
27.464
30
0
0
VERTEX
8
RASTER
10
41.837
20
27.581
30
0
0
VERTEX
8
RASTER
10
41.778
20
27.699
30
0
0
SEQEND
8
RASTER
0
POLYLINE
8
RASTER
66
1
70
1
0
VERTEX
8
RASTER
10
42.876
20
27.321
30
0
0
VERTEX
8
RASTER
10
42.935
20
27.439
30
0
0
VERTEX
8
RASTER
10
42.977
20
27.556
30
0
0
VERTEX
8
RASTER
10
43.003
20
27.669
30
0
0
VERTEX
8
RASTER
10
43.011
20
27.776
30
0
0
VERTEX
8
RASTER
10
43.002
20
27.873
30
0
0
VERTEX
8
RASTER
10
42.977
20
27.957
30
0
0
VERTEX
8
RASTER
10
42.934
20
28.025
30
0
0
VERTEX
8
RASTER
10
42.875
20
28.075
30
0
0
VERTEX
8
RASTER
10
42.803
20
28.101
30
0
0
VERTEX
8
RASTER
10
42.722
20
28.104
30
0
0
VERTEX
8
RASTER
10
42.637
20
28.084
30
0
0
VERTEX
8
RASTER
10
42.548
20
28.043
30
0
0
VERTEX
8
RASTER
10
42.46
20
27.982
30
0
0
VERTEX
8
RASTER
10
42.375
20
27.904
30
0
0
VERTEX
8
RASTER
10
42.295
20
27.809
30
0
0
VERTEX
8
RASTER
10
42.222
20
27.699
30
0
0
VERTEX
8
RASTER
10
42.163
20
27.581
30
0
0
VERTEX
8
RASTER
10
42.121
20
27.464
30
0
0
VERTEX
8
RASTER
10
42.096
20
27.351
30
0
0
VERTEX
8
RASTER
10
42.087
20
27.244
30
0
0
VERTEX
8
RASTER
10
42.096
20
27.147
30
0
0
VERTEX
8
RASTER
10
42.121
20
27.063
30
0
0
VERTEX
8
RASTER
10
42.164
20
26.995
30
0
0
VERTEX
8
RASTER
10
42.223
20
26.945
30
0
0
VERTEX
8
RASTER
10
42.296
20
26.919
30
0
0
VERTEX
8
RASTER
10
42.376
20
26.916
30
0
0
VERTEX
8
RASTER
10
42.462
20
26.936
30
0
0
VERTEX
8
RASTER
10
42.55
20
26.977
30
0
0
VERTEX
8
RASTER
10
42.638
20
27.038
30
0
0
VERTEX
8
RASTER
10
42.723
20
27.116
30
0
0
VERTEX
8
RASTER
10
42.804
20
27.211
30
0
0
VERTEX
8
RASTER
10
42.876
20
27.321
30
0
0
SEQEND
8
RASTER
0
POLYLINE
8
RASTER
66
1
70
1
0
VERTEX
8
RASTER
10
41.778
20
26.395
30
0
0
VERTEX
8
RASTER
10
41.705
20
26.505
30
0
0
VERTEX
8
RASTER
10
41.625
20
26.6
30
0
0
VERTEX
8
RASTER
10
41.54
20
26.678
30
0
0
VERTEX
8
RASTER
10
41.452
20
26.739
30
0
0
VERTEX
8
RASTER
10
41.363
20
26.78
30
0
0
VERTEX
8
RASTER
10
41.278
20
26.8
30
0
0
VERTEX
8
RASTER
10
41.197
20
26.797
30
0
0
VERTEX
8
RASTER
10
41.125
20
26.771
30
0
0
VERTEX
8
RASTER
10
41.066
20
26.721
30
0
0
VERTEX
8
RASTER
10
41.023
20
26.653
30
0
0
VERTEX
8
RASTER
10
40.998
20
26.569
30
0
0
VERTEX
8
RASTER
10
40.989
20
26.472
30
0
0
VERTEX
8
RASTER
10
40.997
20
26.365
30
0
0
VERTEX
8
RASTER
10
41.023
20
26.252
30
0
0
VERTEX
8
RASTER
10
41.065
20
26.135
30
0
0
VERTEX
8
RASTER
10
41.124
20
26.017
30
0
0
VERTEX
8
RASTER
10
41.196
20
25.907
30
0
0
VERTEX
8
RASTER
10
41.277
20
25.812
30
0
0
VERTEX
8
RASTER
10
41.362
20
25.734
30
0
0
VERTEX
8
RASTER
10
41.45
20
25.673
30
0
0
VERTEX
8
RASTER
10
41.538
20
25.632
30
0
0
VERTEX
8
RASTER
10
41.624
20
25.612
30
0
0
VERTEX
8
RASTER
10
41.704
20
25.615
30
0
0
VERTEX
8
RASTER
10
41.777
20
25.641
30
0
0
VERTEX
8
RASTER
10
41.836
20
25.691
30
0
0
VERTEX
8
RASTER
10
41.879
20
25.759
30
0
0
VERTEX
8
RASTER
10
41.904
20
25.843
30
0
0
VERTEX
8
RASTER
10
41.913
20
25.94
30
0
0
VERTEX
8
RASTER
10
41.904
20
26.047
30
0
0
VERTEX
8
RASTER
10
41.879
20
26.16
30
0
0
VERTEX
8
RASTER
10
41.837
20
26.277
30
0
0
VERTEX
8
RASTER
10
41.778
20
26.395
30
0
0
SEQEND
8
RASTER
0
POLYLINE
8
RASTER
66
1
70
1
0
VERTEX
8
RASTER
10
42.876
20
26.017
30
0
0
VERTEX
8
RASTER
10
42.935
20
26.135
30
0
0
VERTEX
8
RASTER
10
42.977
20
26.252
30
0
0
VERTEX
8
RASTER
10
43.003
20
26.365
30
0
0
VERTEX
8
RASTER
10
43.011
20
26.472
30
0
0
VERTEX
8
RASTER
10
43.002
20
26.569
30
0
0
VERTEX
8
RASTER
10
42.977
20
26.653
30
0
0
VERTEX
8
RASTER
10
42.934
20
26.721
30
0
0
VERTEX
8
RASTER
10
42.875
20
26.771
30
0
0
VERTEX
8
RASTER
10
42.803
20
26.797
30
0
0
VERTEX
8
RASTER
10
42.722
20
26.8
30
0
0
VERTEX
8
RASTER
10
42.637
20
26.78
30
0
0
VERTEX
8
RASTER
10
42.548
20
26.739
30
0
0
VERTEX
8
RASTER
10
42.46
20
26.678
30
0
0
VERTEX
8
RASTER
10
42.375
20
26.6
30
0
0
VERTEX
8
RASTER
10
42.295
20
26.505
30
0
0
VERTEX
8
RASTER
10
42.222
20
26.395
30
0
0
VERTEX
8
RASTER
10
42.163
20
26.277
30
0
0
VERTEX
8
RASTER
10
42.121
20
26.16
30
0
0
VERTEX
8
RASTER
10
42.096
20
26.047
30
0
0
VERTEX
8
RASTER
10
42.087
20
25.94
30
0
0
VERTEX
8
RASTER
10
42.096
20
25.843
30
0
0
VERTEX
8
RASTER
10
42.121
20
25.759
30
0
0
VERTEX
8
RASTER
10
42.164
20
25.691
30
0
0
VERTEX
8
RASTER
10
42.223
20
25.641
30
0
0
VERTEX
8
RASTER
10
42.296
20
25.615
30
0
0
VERTEX
8
RASTER
10
42.376
20
25.612
30
0
0
VERTEX
8
RASTER
10
42.462
20
25.632
30
0
0
VERTEX
8
RASTER
10
42.55
20
25.673
30
0
0
VERTEX
8
RASTER
10
42.638
20
25.734
30
0
0
VERTEX
8
RASTER
10
42.723
20
25.812
30
0
0
VERTEX
8
RASTER
10
42.804
20
25.907
30
0
0
VERTEX
8
RASTER
10
42.876
20
26.017
30
0
0
SEQEND
8
RASTER
0
POLYLINE
8
RASTER
66
1
70
1
0
VERTEX
8
RASTER
10
41.778
20
25.091
30
0
0
VERTEX
8
RASTER
10
41.705
20
25.2
30
0
0
VERTEX
8
RASTER
10
41.625
20
25.295
30
0
0
VERTEX
8
RASTER
10
41.54
20
25.374
30
0
0
VERTEX
8
RASTER
10
41.452
20
25.435
30
0
0
VERTEX
8
RASTER
10
41.363
20
25.476
30
0
0
VERTEX
8
RASTER
10
41.278
20
25.496
30
0
0
VERTEX
8
RASTER
10
41.197
20
25.493
30
0
0
VERTEX
8
RASTER
10
41.125
20
25.466
30
0
0
VERTEX
8
RASTER
10
41.066
20
25.417
30
0
0
VERTEX
8
RASTER
10
41.023
20
25.349
30
0
0
VERTEX
8
RASTER
10
40.998
20
25.264
30
0
0
VERTEX
8
RASTER
10
40.989
20
25.168
30
0
0
VERTEX
8
RASTER
10
40.997
20
25.061
30
0
0
VERTEX
8
RASTER
10
41.023
20
24.948
30
0
0
VERTEX
8
RASTER
10
41.065
20
24.831
30
0
0
VERTEX
8
RASTER
10
41.124
20
24.713
30
0
0
VERTEX
8
RASTER
10
41.196
20
24.603
30
0
0
VERTEX
8
RASTER
10
41.277
20
24.508
30
0
0
VERTEX
8
RASTER
10
41.362
20
24.429
30
0
0
VERTEX
8
RASTER
10
41.45
20
24.369
30
0
0
VERTEX
8
RASTER
10
41.538
20
24.328
30
0
0
VERTEX
8
RASTER
10
41.624
20
24.308
30
0
0
VERTEX
8
RASTER
10
41.704
20
24.31
30
0
0
VERTEX
8
RASTER
10
41.777
20
24.337
30
0
0
VERTEX
8
RASTER
10
41.836
20
24.387
30
0
0
VERTEX
8
RASTER
10
41.879
20
24.455
30
0
0
VERTEX
8
RASTER
10
41.904
20
24.539
30
0
0
VERTEX
8
RASTER
10
41.913
20
24.636
30
0
0
VERTEX
8
RASTER
10
41.904
20
24.743
30
0
0
VERTEX
8
RASTER
10
41.879
20
24.856
30
0
0
VERTEX
8
RASTER
10
41.837
20
24.973
30
0
0
VERTEX
8
RASTER
10
41.778
20
25.091
30
0
0
SEQEND
8
RASTER
0
POLYLINE
8
RASTER
66
1
70
1
0
VERTEX
8
RASTER
10
42.876
20
24.713
30
0
0
VERTEX
8
RASTER
10
42.935
20
24.831
30
0
0
VERTEX
8
RASTER
10
42.977
20
24.948
30
0
0
VERTEX
8
RASTER
10
43.003
20
25.061
30
0
0
VERTEX
8
RASTER
10
43.011
20
25.168
30
0
0
VERTEX
8
RASTER
10
43.002
20
25.264
30
0
0
VERTEX
8
RASTER
10
42.977
20
25.349
30
0
0
VERTEX
8
RASTER
10
42.934
20
25.417
30
0
0
VERTEX
8
RASTER
10
42.875
20
25.466
30
0
0
VERTEX
8
RASTER
10
42.803
20
25.493
30
0
0
VERTEX
8
RASTER
10
42.722
20
25.496
30
0
0
VERTEX
8
RASTER
10
42.637
20
25.476
30
0
0
VERTEX
8
RASTER
10
42.548
20
25.435
30
0
0
VERTEX
8
RASTER
10
42.46
20
25.374
30
0
0
VERTEX
8
RASTER
10
42.375
20
25.295
30
0
0
VERTEX
8
RASTER
10
42.295
20
25.2
30
0
0
VERTEX
8
RASTER
10
42.222
20
25.091
30
0
0
VERTEX
8
RASTER
10
42.163
20
24.973
30
0
0
VERTEX
8
RASTER
10
42.121
20
24.856
30
0
0
VERTEX
8
RASTER
10
42.096
20
24.743
30
0
0
VERTEX
8
RASTER
10
42.087
20
24.636
30
0
0
VERTEX
8
RASTER
10
42.096
20
24.539
30
0
0
VERTEX
8
RASTER
10
42.121
20
24.455
30
0
0
VERTEX
8
RASTER
10
42.164
20
24.387
30
0
0
VERTEX
8
RASTER
10
42.223
20
24.337
30
0
0
VERTEX
8
RASTER
10
42.296
20
24.31
30
0
0
VERTEX
8
RASTER
10
42.376
20
24.308
30
0
0
VERTEX
8
RASTER
10
42.462
20
24.328
30
0
0
VERTEX
8
RASTER
10
42.55
20
24.369
30
0
0
VERTEX
8
RASTER
10
42.638
20
24.429
30
0
0
VERTEX
8
RASTER
10
42.723
20
24.508
30
0
0
VERTEX
8
RASTER
10
42.804
20
24.603
30
0
0
VERTEX
8
RASTER
10
42.876
20
24.713
30
0
0
SEQEND
8
RASTER
0
CIRCLE
8
CUT
10
58
20
26
30
0
40
6
0
CIRCLE
8
RASTER
10
58
20
26
30
0
40
5.2
0
POLYLINE
8
RASTER
66
1
70
1
0
VERTEX
8
RASTER
10
57.897
20
24.147
30
0
0
VERTEX
8
RASTER
10
57.828
20
22.705
30
0
0
VERTEX
8
RASTER
10
58.172
20
22.705
30
0
0
VERTEX
8
RASTER
10
58.103
20
24.147
30
0
0
VERTEX
8
RASTER
10
57.897
20
24.147
30
0
0
SEQEND
8
RASTER
0
POLYLINE
8
RASTER
66
1
70
1
0
VERTEX
8
RASTER
10
58.343
20
28.677
30
0
0
VERTEX
8
RASTER
10
58.336
20
28.795
30
0
0
VERTEX
8
RASTER
10
58.316
20
28.904
30
0
0
VERTEX
8
RASTER
10
58.285
20
29.003
30
0
0
VERTEX
8
RASTER
10
58.243
20
29.09
30
0
0
VERTEX
8
RASTER
10
58.192
20
29.161
30
0
0
VERTEX
8
RASTER
10
58.134
20
29.215
30
0
0
VERTEX
8
RASTER
10
58.069
20
29.249
30
0
0
VERTEX
8
RASTER
10
58
20
29.26
30
0
0
VERTEX
8
RASTER
10
57.931
20
29.249
30
0
0
VERTEX
8
RASTER
10
57.866
20
29.215
30
0
0
VERTEX
8
RASTER
10
57.808
20
29.161
30
0
0
VERTEX
8
RASTER
10
57.757
20
29.09
30
0
0
VERTEX
8
RASTER
10
57.715
20
29.003
30
0
0
VERTEX
8
RASTER
10
57.684
20
28.904
30
0
0
VERTEX
8
RASTER
10
57.664
20
28.795
30
0
0
VERTEX
8
RASTER
10
57.657
20
28.677
30
0
0
VERTEX
8
RASTER
10
57.664
20
28.559
30
0
0
VERTEX
8
RASTER
10
57.684
20
28.45
30
0
0
VERTEX
8
RASTER
10
57.715
20
28.351
30
0
0
VERTEX
8
RASTER
10
57.757
20
28.264
30
0
0
VERTEX
8
RASTER
10
57.808
20
28.193
30
0
0
VERTEX
8
RASTER
10
57.866
20
28.139
30
0
0
VERTEX
8
RASTER
10
57.931
20
28.105
30
0
0
VERTEX
8
RASTER
10
58
20
28.094
30
0
0
VERTEX
8
RASTER
10
58.069
20
28.105
30
0
0
VERTEX
8
RASTER
10
58.134
20
28.139
30
0
0
VERTEX
8
RASTER
10
58.192
20
28.193
30
0
0
VERTEX
8
RASTER
10
58.243
20
28.264
30
0
0
VERTEX
8
RASTER
10
58.285
20
28.351
30
0
0
VERTEX
8
RASTER
10
58.316
20
28.45
30
0
0
VERTEX
8
RASTER
10
58.336
20
28.559
30
0
0
VERTEX
8
RASTER
10
58.343
20
28.677
30
0
0
SEQEND
8
RASTER
0
POLYLINE
8
RASTER
66
1
70
1
0
VERTEX
8
RASTER
10
57.778
20
27.699
30
0
0
VERTEX
8
RASTER
10
57.705
20
27.809
30
0
0
VERTEX
8
RASTER
10
57.625
20
27.904
30
0
0
VERTEX
8
RASTER
10
57.54
20
27.982
30
0
0
VERTEX
8
RASTER
10
57.452
20
28.043
30
0
0
VERTEX
8
RASTER
10
57.363
20
28.084
30
0
0
VERTEX
8
RASTER
10
57.278
20
28.104
30
0
0
VERTEX
8
RASTER
10
57.197
20
28.101
30
0
0
VERTEX
8
RASTER
10
57.125
20
28.075
30
0
0
VERTEX
8
RASTER
10
57.066
20
28.025
30
0
0
VERTEX
8
RASTER
10
57.023
20
27.957
30
0
0
VERTEX
8
RASTER
10
56.998
20
27.873
30
0
0
VERTEX
8
RASTER
10
56.989
20
27.776
30
0
0
VERTEX
8
RASTER
10
56.997
20
27.669
30
0
0
VERTEX
8
RASTER
10
57.023
20
27.556
30
0
0
VERTEX
8
RASTER
10
57.065
20
27.439
30
0
0
VERTEX
8
RASTER
10
57.124
20
27.321
30
0
0
VERTEX
8
RASTER
10
57.196
20
27.211
30
0
0
VERTEX
8
RASTER
10
57.277
20
27.116
30
0
0
VERTEX
8
RASTER
10
57.362
20
27.038
30
0
0
VERTEX
8
RASTER
10
57.45
20
26.977
30
0
0
VERTEX
8
RASTER
10
57.538
20
26.936
30
0
0
VERTEX
8
RASTER
10
57.624
20
26.916
30
0
0
VERTEX
8
RASTER
10
57.704
20
26.919
30
0
0
VERTEX
8
RASTER
10
57.777
20
26.945
30
0
0
VERTEX
8
RASTER
10
57.836
20
26.995
30
0
0
VERTEX
8
RASTER
10
57.879
20
27.063
30
0
0
VERTEX
8
RASTER
10
57.904
20
27.147
30
0
0
VERTEX
8
RASTER
10
57.913
20
27.244
30
0
0
VERTEX
8
RASTER
10
57.904
20
27.351
30
0
0
VERTEX
8
RASTER
10
57.879
20
27.464
30
0
0
VERTEX
8
RASTER
10
57.837
20
27.581
30
0
0
VERTEX
8
RASTER
10
57.778
20
27.699
30
0
0
SEQEND
8
RASTER
0
POLYLINE
8
RASTER
66
1
70
1
0
VERTEX
8
RASTER
10
58.876
20
27.321
30
0
0
VERTEX
8
RASTER
10
58.935
20
27.439
30
0
0
VERTEX
8
RASTER
10
58.977
20
27.556
30
0
0
VERTEX
8
RASTER
10
59.003
20
27.669
30
0
0
VERTEX
8
RASTER
10
59.011
20
27.776
30
0
0
VERTEX
8
RASTER
10
59.002
20
27.873
30
0
0
VERTEX
8
RASTER
10
58.977
20
27.957
30
0
0
VERTEX
8
RASTER
10
58.934
20
28.025
30
0
0
VERTEX
8
RASTER
10
58.875
20
28.075
30
0
0
VERTEX
8
RASTER
10
58.803
20
28.101
30
0
0
VERTEX
8
RASTER
10
58.722
20
28.104
30
0
0
VERTEX
8
RASTER
10
58.637
20
28.084
30
0
0
VERTEX
8
RASTER
10
58.548
20
28.043
30
0
0
VERTEX
8
RASTER
10
58.46
20
27.982
30
0
0
VERTEX
8
RASTER
10
58.375
20
27.904
30
0
0
VERTEX
8
RASTER
10
58.295
20
27.809
30
0
0
VERTEX
8
RASTER
10
58.222
20
27.699
30
0
0
VERTEX
8
RASTER
10
58.163
20
27.581
30
0
0
VERTEX
8
RASTER
10
58.121
20
27.464
30
0
0
VERTEX
8
RASTER
10
58.096
20
27.351
30
0
0
VERTEX
8
RASTER
10
58.087
20
27.244
30
0
0
VERTEX
8
RASTER
10
58.096
20
27.147
30
0
0
VERTEX
8
RASTER
10
58.121
20
27.063
30
0
0
VERTEX
8
RASTER
10
58.164
20
26.995
30
0
0
VERTEX
8
RASTER
10
58.223
20
26.945
30
0
0
VERTEX
8
RASTER
10
58.296
20
26.919
30
0
0
VERTEX
8
RASTER
10
58.376
20
26.916
30
0
0
VERTEX
8
RASTER
10
58.462
20
26.936
30
0
0
VERTEX
8
RASTER
10
58.55
20
26.977
30
0
0
VERTEX
8
RASTER
10
58.638
20
27.038
30
0
0
VERTEX
8
RASTER
10
58.723
20
27.116
30
0
0
VERTEX
8
RASTER
10
58.804
20
27.211
30
0
0
VERTEX
8
RASTER
10
58.876
20
27.321
30
0
0
SEQEND
8
RASTER
0
POLYLINE
8
RASTER
66
1
70
1
0
VERTEX
8
RASTER
10
57.778
20
26.395
30
0
0
VERTEX
8
RASTER
10
57.705
20
26.505
30
0
0
VERTEX
8
RASTER
10
57.625
20
26.6
30
0
0
VERTEX
8
RASTER
10
57.54
20
26.678
30
0
0
VERTEX
8
RASTER
10
57.452
20
26.739
30
0
0
VERTEX
8
RASTER
10
57.363
20
26.78
30
0
0
VERTEX
8
RASTER
10
57.278
20
26.8
30
0
0
VERTEX
8
RASTER
10
57.197
20
26.797
30
0
0
VERTEX
8
RASTER
10
57.125
20
26.771
30
0
0
VERTEX
8
RASTER
10
57.066
20
26.721
30
0
0
VERTEX
8
RASTER
10
57.023
20
26.653
30
0
0
VERTEX
8
RASTER
10
56.998
20
26.569
30
0
0
VERTEX
8
RASTER
10
56.989
20
26.472
30
0
0
VERTEX
8
RASTER
10
56.997
20
26.365
30
0
0
VERTEX
8
RASTER
10
57.023
20
26.252
30
0
0
VERTEX
8
RASTER
10
57.065
20
26.135
30
0
0
VERTEX
8
RASTER
10
57.124
20
26.017
30
0
0
VERTEX
8
RASTER
10
57.196
20
25.907
30
0
0
VERTEX
8
RASTER
10
57.277
20
25.812
30
0
0
VERTEX
8
RASTER
10
57.362
20
25.734
30
0
0
VERTEX
8
RASTER
10
57.45
20
25.673
30
0
0
VERTEX
8
RASTER
10
57.538
20
25.632
30
0
0
VERTEX
8
RASTER
10
57.624
20
25.612
30
0
0
VERTEX
8
RASTER
10
57.704
20
25.615
30
0
0
VERTEX
8
RASTER
10
57.777
20
25.641
30
0
0
VERTEX
8
RASTER
10
57.836
20
25.691
30
0
0
VERTEX
8
RASTER
10
57.879
20
25.759
30
0
0
VERTEX
8
RASTER
10
57.904
20
25.843
30
0
0
VERTEX
8
RASTER
10
57.913
20
25.94
30
0
0
VERTEX
8
RASTER
10
57.904
20
26.047
30
0
0
VERTEX
8
RASTER
10
57.879
20
26.16
30
0
0
VERTEX
8
RASTER
10
57.837
20
26.277
30
0
0
VERTEX
8
RASTER
10
57.778
20
26.395
30
0
0
SEQEND
8
RASTER
0
POLYLINE
8
RASTER
66
1
70
1
0
VERTEX
8
RASTER
10
58.876
20
26.017
30
0
0
VERTEX
8
RASTER
10
58.935
20
26.135
30
0
0
VERTEX
8
RASTER
10
58.977
20
26.252
30
0
0
VERTEX
8
RASTER
10
59.003
20
26.365
30
0
0
VERTEX
8
RASTER
10
59.011
20
26.472
30
0
0
VERTEX
8
RASTER
10
59.002
20
26.569
30
0
0
VERTEX
8
RASTER
10
58.977
20
26.653
30
0
0
VERTEX
8
RASTER
10
58.934
20
26.721
30
0
0
VERTEX
8
RASTER
10
58.875
20
26.771
30
0
0
VERTEX
8
RASTER
10
58.803
20
26.797
30
0
0
VERTEX
8
RASTER
10
58.722
20
26.8
30
0
0
VERTEX
8
RASTER
10
58.637
20
26.78
30
0
0
VERTEX
8
RASTER
10
58.548
20
26.739
30
0
0
VERTEX
8
RASTER
10
58.46
20
26.678
30
0
0
VERTEX
8
RASTER
10
58.375
20
26.6
30
0
0
VERTEX
8
RASTER
10
58.295
20
26.505
30
0
0
VERTEX
8
RASTER
10
58.222
20
26.395
30
0
0
VERTEX
8
RASTER
10
58.163
20
26.277
30
0
0
VERTEX
8
RASTER
10
58.121
20
26.16
30
0
0
VERTEX
8
RASTER
10
58.096
20
26.047
30
0
0
VERTEX
8
RASTER
10
58.087
20
25.94
30
0
0
VERTEX
8
RASTER
10
58.096
20
25.843
30
0
0
VERTEX
8
RASTER
10
58.121
20
25.759
30
0
0
VERTEX
8
RASTER
10
58.164
20
25.691
30
0
0
VERTEX
8
RASTER
10
58.223
20
25.641
30
0
0
VERTEX
8
RASTER
10
58.296
20
25.615
30
0
0
VERTEX
8
RASTER
10
58.376
20
25.612
30
0
0
VERTEX
8
RASTER
10
58.462
20
25.632
30
0
0
VERTEX
8
RASTER
10
58.55
20
25.673
30
0
0
VERTEX
8
RASTER
10
58.638
20
25.734
30
0
0
VERTEX
8
RASTER
10
58.723
20
25.812
30
0
0
VERTEX
8
RASTER
10
58.804
20
25.907
30
0
0
VERTEX
8
RASTER
10
58.876
20
26.017
30
0
0
SEQEND
8
RASTER
0
POLYLINE
8
RASTER
66
1
70
1
0
VERTEX
8
RASTER
10
57.778
20
25.091
30
0
0
VERTEX
8
RASTER
10
57.705
20
25.2
30
0
0
VERTEX
8
RASTER
10
57.625
20
25.295
30
0
0
VERTEX
8
RASTER
10
57.54
20
25.374
30
0
0
VERTEX
8
RASTER
10
57.452
20
25.435
30
0
0
VERTEX
8
RASTER
10
57.363
20
25.476
30
0
0
VERTEX
8
RASTER
10
57.278
20
25.496
30
0
0
VERTEX
8
RASTER
10
57.197
20
25.493
30
0
0
VERTEX
8
RASTER
10
57.125
20
25.466
30
0
0
VERTEX
8
RASTER
10
57.066
20
25.417
30
0
0
VERTEX
8
RASTER
10
57.023
20
25.349
30
0
0
VERTEX
8
RASTER
10
56.998
20
25.264
30
0
0
VERTEX
8
RASTER
10
56.989
20
25.168
30
0
0
VERTEX
8
RASTER
10
56.997
20
25.061
30
0
0
VERTEX
8
RASTER
10
57.023
20
24.948
30
0
0
VERTEX
8
RASTER
10
57.065
20
24.831
30
0
0
VERTEX
8
RASTER
10
57.124
20
24.713
30
0
0
VERTEX
8
RASTER
10
57.196
20
24.603
30
0
0
VERTEX
8
RASTER
10
57.277
20
24.508
30
0
0
VERTEX
8
RASTER
10
57.362
20
24.429
30
0
0
VERTEX
8
RASTER
10
57.45
20
24.369
30
0
0
VERTEX
8
RASTER
10
57.538
20
24.328
30
0
0
VERTEX
8
RASTER
10
57.624
20
24.308
30
0
0
VERTEX
8
RASTER
10
57.704
20
24.31
30
0
0
VERTEX
8
RASTER
10
57.777
20
24.337
30
0
0
VERTEX
8
RASTER
10
57.836
20
24.387
30
0
0
VERTEX
8
RASTER
10
57.879
20
24.455
30
0
0
VERTEX
8
RASTER
10
57.904
20
24.539
30
0
0
VERTEX
8
RASTER
10
57.913
20
24.636
30
0
0
VERTEX
8
RASTER
10
57.904
20
24.743
30
0
0
VERTEX
8
RASTER
10
57.879
20
24.856
30
0
0
VERTEX
8
RASTER
10
57.837
20
24.973
30
0
0
VERTEX
8
RASTER
10
57.778
20
25.091
30
0
0
SEQEND
8
RASTER
0
POLYLINE
8
RASTER
66
1
70
1
0
VERTEX
8
RASTER
10
58.876
20
24.713
30
0
0
VERTEX
8
RASTER
10
58.935
20
24.831
30
0
0
VERTEX
8
RASTER
10
58.977
20
24.948
30
0
0
VERTEX
8
RASTER
10
59.003
20
25.061
30
0
0
VERTEX
8
RASTER
10
59.011
20
25.168
30
0
0
VERTEX
8
RASTER
10
59.002
20
25.264
30
0
0
VERTEX
8
RASTER
10
58.977
20
25.349
30
0
0
VERTEX
8
RASTER
10
58.934
20
25.417
30
0
0
VERTEX
8
RASTER
10
58.875
20
25.466
30
0
0
VERTEX
8
RASTER
10
58.803
20
25.493
30
0
0
VERTEX
8
RASTER
10
58.722
20
25.496
30
0
0
VERTEX
8
RASTER
10
58.637
20
25.476
30
0
0
VERTEX
8
RASTER
10
58.548
20
25.435
30
0
0
VERTEX
8
RASTER
10
58.46
20
25.374
30
0
0
VERTEX
8
RASTER
10
58.375
20
25.295
30
0
0
VERTEX
8
RASTER
10
58.295
20
25.2
30
0
0
VERTEX
8
RASTER
10
58.222
20
25.091
30
0
0
VERTEX
8
RASTER
10
58.163
20
24.973
30
0
0
VERTEX
8
RASTER
10
58.121
20
24.856
30
0
0
VERTEX
8
RASTER
10
58.096
20
24.743
30
0
0
VERTEX
8
RASTER
10
58.087
20
24.636
30
0
0
VERTEX
8
RASTER
10
58.096
20
24.539
30
0
0
VERTEX
8
RASTER
10
58.121
20
24.455
30
0
0
VERTEX
8
RASTER
10
58.164
20
24.387
30
0
0
VERTEX
8
RASTER
10
58.223
20
24.337
30
0
0
VERTEX
8
RASTER
10
58.296
20
24.31
30
0
0
VERTEX
8
RASTER
10
58.376
20
24.308
30
0
0
VERTEX
8
RASTER
10
58.462
20
24.328
30
0
0
VERTEX
8
RASTER
10
58.55
20
24.369
30
0
0
VERTEX
8
RASTER
10
58.638
20
24.429
30
0
0
VERTEX
8
RASTER
10
58.723
20
24.508
30
0
0
VERTEX
8
RASTER
10
58.804
20
24.603
30
0
0
VERTEX
8
RASTER
10
58.876
20
24.713
30
0
0
SEQEND
8
RASTER
0
CIRCLE
8
CUT
10
74
20
26
30
0
40
6
0
CIRCLE
8
RASTER
10
74
20
26
30
0
40
5.2
0
POLYLINE
8
RASTER
66
1
70
1
0
VERTEX
8
RASTER
10
73.176
20
27.373
30
0
0
VERTEX
8
RASTER
10
73.144
20
27.23
30
0
0
VERTEX
8
RASTER
10
73.058
20
27.103
30
0
0
VERTEX
8
RASTER
10
72.937
20
26.982
30
0
0
VERTEX
8
RASTER
10
72.799
20
26.858
30
0
0
VERTEX
8
RASTER
10
72.66
20
26.721
30
0
0
VERTEX
8
RASTER
10
72.539
20
26.562
30
0
0
VERTEX
8
RASTER
10
72.454
20
26.371
30
0
0
VERTEX
8
RASTER
10
72.421
20
26.137
30
0
0
VERTEX
8
RASTER
10
72.421
20
23.529
30
0
0
VERTEX
8
RASTER
10
72.444
20
23.342
30
0
0
VERTEX
8
RASTER
10
72.514
20
23.19
30
0
0
VERTEX
8
RASTER
10
72.631
20
23.07
30
0
0
VERTEX
8
RASTER
10
72.799
20
22.98
30
0
0
VERTEX
8
RASTER
10
73.018
20
22.915
30
0
0
VERTEX
8
RASTER
10
73.29
20
22.873
30
0
0
VERTEX
8
RASTER
10
73.617
20
22.85
30
0
0
VERTEX
8
RASTER
10
74
20
22.843
30
0
0
VERTEX
8
RASTER
10
74.383
20
22.85
30
0
0
VERTEX
8
RASTER
10
74.71
20
22.873
30
0
0
VERTEX
8
RASTER
10
74.982
20
22.915
30
0
0
VERTEX
8
RASTER
10
75.201
20
22.98
30
0
0
VERTEX
8
RASTER
10
75.369
20
23.07
30
0
0
VERTEX
8
RASTER
10
75.486
20
23.19
30
0
0
VERTEX
8
RASTER
10
75.556
20
23.342
30
0
0
VERTEX
8
RASTER
10
75.579
20
23.529
30
0
0
VERTEX
8
RASTER
10
75.579
20
26.137
30
0
0
VERTEX
8
RASTER
10
75.546
20
26.371
30
0
0
VERTEX
8
RASTER
10
75.461
20
26.562
30
0
0
VERTEX
8
RASTER
10
75.34
20
26.721
30
0
0
VERTEX
8
RASTER
10
75.201
20
26.858
30
0
0
VERTEX
8
RASTER
10
75.063
20
26.982
30
0
0
VERTEX
8
RASTER
10
74.942
20
27.103
30
0
0
VERTEX
8
RASTER
10
74.856
20
27.23
30
0
0
VERTEX
8
RASTER
10
74.824
20
27.373
30
0
0
VERTEX
8
RASTER
10
73.176
20
27.373
30
0
0
SEQEND
8
RASTER
0
POLYLINE
8
RASTER
66
1
70
1
0
VERTEX
8
RASTER
10
72.696
20
25.588
30
0
0
VERTEX
8
RASTER
10
75.304
20
25.588
30
0
0
VERTEX
8
RASTER
10
75.304
20
24.627
30
0
0
VERTEX
8
RASTER
10
72.696
20
24.627
30
0
0
VERTEX
8
RASTER
10
72.696
20
25.588
30
0
0
SEQEND
8
RASTER
0
POLYLINE
8
RASTER
66
1
70
1
0
VERTEX
8
RASTER
10
73.039
20
28.471
30
0
0
VERTEX
8
RASTER
10
73.039
20
28.196
30
0
0
VERTEX
8
RASTER
10
73.041
20
28.164
30
0
0
VERTEX
8
RASTER
10
73.048
20
28.136
30
0
0
VERTEX
8
RASTER
10
73.058
20
28.113
30
0
0
VERTEX
8
RASTER
10
73.073
20
28.094
30
0
0
VERTEX
8
RASTER
10
73.093
20
28.079
30
0
0
VERTEX
8
RASTER
10
73.116
20
28.068
30
0
0
VERTEX
8
RASTER
10
73.144
20
28.061
30
0
0
VERTEX
8
RASTER
10
73.176
20
28.059
30
0
0
VERTEX
8
RASTER
10
74.824
20
28.059
30
0
0
VERTEX
8
RASTER
10
74.856
20
28.061
30
0
0
VERTEX
8
RASTER
10
74.884
20
28.068
30
0
0
VERTEX
8
RASTER
10
74.907
20
28.079
30
0
0
VERTEX
8
RASTER
10
74.927
20
28.094
30
0
0
VERTEX
8
RASTER
10
74.942
20
28.113
30
0
0
VERTEX
8
RASTER
10
74.952
20
28.136
30
0
0
VERTEX
8
RASTER
10
74.959
20
28.164
30
0
0
VERTEX
8
RASTER
10
74.961
20
28.196
30
0
0
VERTEX
8
RASTER
10
74.961
20
28.471
30
0
0
VERTEX
8
RASTER
10
74.959
20
28.503
30
0
0
VERTEX
8
RASTER
10
74.952
20
28.531
30
0
0
VERTEX
8
RASTER
10
74.942
20
28.555
30
0
0
VERTEX
8
RASTER
10
74.927
20
28.574
30
0
0
VERTEX
8
RASTER
10
74.907
20
28.589
30
0
0
VERTEX
8
RASTER
10
74.884
20
28.6
30
0
0
VERTEX
8
RASTER
10
74.856
20
28.606
30
0
0
VERTEX
8
RASTER
10
74.824
20
28.608
30
0
0
VERTEX
8
RASTER
10
73.176
20
28.608
30
0
0
VERTEX
8
RASTER
10
73.144
20
28.606
30
0
0
VERTEX
8
RASTER
10
73.116
20
28.6
30
0
0
VERTEX
8
RASTER
10
73.093
20
28.589
30
0
0
VERTEX
8
RASTER
10
73.073
20
28.574
30
0
0
VERTEX
8
RASTER
10
73.058
20
28.555
30
0
0
VERTEX
8
RASTER
10
73.048
20
28.531
30
0
0
VERTEX
8
RASTER
10
73.041
20
28.503
30
0
0
VERTEX
8
RASTER
10
73.039
20
28.471
30
0
0
SEQEND
8
RASTER
0
POLYLINE
8
RASTER
66
1
70
1
0
VERTEX
8
RASTER
10
73.176
20
27.991
30
0
0
VERTEX
8
RASTER
10
73.176
20
27.51
30
0
0
VERTEX
8
RASTER
10
74.824
20
27.51
30
0
0
VERTEX
8
RASTER
10
74.824
20
27.991
30
0
0
VERTEX
8
RASTER
10
73.176
20
27.991
30
0
0
SEQEND
8
RASTER
0
CIRCLE
8
CUT
10
90
20
26
30
0
40
6
0
CIRCLE
8
RASTER
10
90
20
26
30
0
40
5.2
0
POLYLINE
8
RASTER
66
1
70
1
0
VERTEX
8
RASTER
10
89.176
20
27.373
30
0
0
VERTEX
8
RASTER
10
89.144
20
27.23
30
0
0
VERTEX
8
RASTER
10
89.058
20
27.103
30
0
0
VERTEX
8
RASTER
10
88.937
20
26.982
30
0
0
VERTEX
8
RASTER
10
88.799
20
26.858
30
0
0
VERTEX
8
RASTER
10
88.66
20
26.721
30
0
0
VERTEX
8
RASTER
10
88.539
20
26.562
30
0
0
VERTEX
8
RASTER
10
88.454
20
26.371
30
0
0
VERTEX
8
RASTER
10
88.421
20
26.137
30
0
0
VERTEX
8
RASTER
10
88.421
20
23.529
30
0
0
VERTEX
8
RASTER
10
88.444
20
23.342
30
0
0
VERTEX
8
RASTER
10
88.514
20
23.19
30
0
0
VERTEX
8
RASTER
10
88.631
20
23.07
30
0
0
VERTEX
8
RASTER
10
88.799
20
22.98
30
0
0
VERTEX
8
RASTER
10
89.018
20
22.915
30
0
0
VERTEX
8
RASTER
10
89.29
20
22.873
30
0
0
VERTEX
8
RASTER
10
89.617
20
22.85
30
0
0
VERTEX
8
RASTER
10
90
20
22.843
30
0
0
VERTEX
8
RASTER
10
90.383
20
22.85
30
0
0
VERTEX
8
RASTER
10
90.71
20
22.873
30
0
0
VERTEX
8
RASTER
10
90.982
20
22.915
30
0
0
VERTEX
8
RASTER
10
91.201
20
22.98
30
0
0
VERTEX
8
RASTER
10
91.369
20
23.07
30
0
0
VERTEX
8
RASTER
10
91.486
20
23.19
30
0
0
VERTEX
8
RASTER
10
91.556
20
23.342
30
0
0
VERTEX
8
RASTER
10
91.579
20
23.529
30
0
0
VERTEX
8
RASTER
10
91.579
20
26.137
30
0
0
VERTEX
8
RASTER
10
91.546
20
26.371
30
0
0
VERTEX
8
RASTER
10
91.461
20
26.562
30
0
0
VERTEX
8
RASTER
10
91.34
20
26.721
30
0
0
VERTEX
8
RASTER
10
91.201
20
26.858
30
0
0
VERTEX
8
RASTER
10
91.063
20
26.982
30
0
0
VERTEX
8
RASTER
10
90.942
20
27.103
30
0
0
VERTEX
8
RASTER
10
90.856
20
27.23
30
0
0
VERTEX
8
RASTER
10
90.824
20
27.373
30
0
0
VERTEX
8
RASTER
10
89.176
20
27.373
30
0
0
SEQEND
8
RASTER
0
POLYLINE
8
RASTER
66
1
70
1
0
VERTEX
8
RASTER
10
88.696
20
25.588
30
0
0
VERTEX
8
RASTER
10
91.304
20
25.588
30
0
0
VERTEX
8
RASTER
10
91.304
20
24.627
30
0
0
VERTEX
8
RASTER
10
88.696
20
24.627
30
0
0
VERTEX
8
RASTER
10
88.696
20
25.588
30
0
0
SEQEND
8
RASTER
0
POLYLINE
8
RASTER
66
1
70
1
0
VERTEX
8
RASTER
10
89.039
20
28.471
30
0
0
VERTEX
8
RASTER
10
89.039
20
28.196
30
0
0
VERTEX
8
RASTER
10
89.041
20
28.164
30
0
0
VERTEX
8
RASTER
10
89.048
20
28.136
30
0
0
VERTEX
8
RASTER
10
89.058
20
28.113
30
0
0
VERTEX
8
RASTER
10
89.073
20
28.094
30
0
0
VERTEX
8
RASTER
10
89.093
20
28.079
30
0
0
VERTEX
8
RASTER
10
89.116
20
28.068
30
0
0
VERTEX
8
RASTER
10
89.144
20
28.061
30
0
0
VERTEX
8
RASTER
10
89.176
20
28.059
30
0
0
VERTEX
8
RASTER
10
90.824
20
28.059
30
0
0
VERTEX
8
RASTER
10
90.856
20
28.061
30
0
0
VERTEX
8
RASTER
10
90.884
20
28.068
30
0
0
VERTEX
8
RASTER
10
90.907
20
28.079
30
0
0
VERTEX
8
RASTER
10
90.927
20
28.094
30
0
0
VERTEX
8
RASTER
10
90.942
20
28.113
30
0
0
VERTEX
8
RASTER
10
90.952
20
28.136
30
0
0
VERTEX
8
RASTER
10
90.959
20
28.164
30
0
0
VERTEX
8
RASTER
10
90.961
20
28.196
30
0
0
VERTEX
8
RASTER
10
90.961
20
28.471
30
0
0
VERTEX
8
RASTER
10
90.959
20
28.503
30
0
0
VERTEX
8
RASTER
10
90.952
20
28.531
30
0
0
VERTEX
8
RASTER
10
90.942
20
28.555
30
0
0
VERTEX
8
RASTER
10
90.927
20
28.574
30
0
0
VERTEX
8
RASTER
10
90.907
20
28.589
30
0
0
VERTEX
8
RASTER
10
90.884
20
28.6
30
0
0
VERTEX
8
RASTER
10
90.856
20
28.606
30
0
0
VERTEX
8
RASTER
10
90.824
20
28.608
30
0
0
VERTEX
8
RASTER
10
89.176
20
28.608
30
0
0
VERTEX
8
RASTER
10
89.144
20
28.606
30
0
0
VERTEX
8
RASTER
10
89.116
20
28.6
30
0
0
VERTEX
8
RASTER
10
89.093
20
28.589
30
0
0
VERTEX
8
RASTER
10
89.073
20
28.574
30
0
0
VERTEX
8
RASTER
10
89.058
20
28.555
30
0
0
VERTEX
8
RASTER
10
89.048
20
28.531
30
0
0
VERTEX
8
RASTER
10
89.041
20
28.503
30
0
0
VERTEX
8
RASTER
10
89.039
20
28.471
30
0
0
SEQEND
8
RASTER
0
POLYLINE
8
RASTER
66
1
70
1
0
VERTEX
8
RASTER
10
89.176
20
27.991
30
0
0
VERTEX
8
RASTER
10
89.176
20
27.51
30
0
0
VERTEX
8
RASTER
10
90.824
20
27.51
30
0
0
VERTEX
8
RASTER
10
90.824
20
27.991
30
0
0
VERTEX
8
RASTER
10
89.176
20
27.991
30
0
0
SEQEND
8
RASTER
0
CIRCLE
8
CUT
10
106
20
26
30
0
40
6
0
CIRCLE
8
RASTER
10
106
20
26
30
0
40
5.2
0
POLYLINE
8
RASTER
66
1
70
1
0
VERTEX
8
RASTER
10
105.176
20
27.373
30
0
0
VERTEX
8
RASTER
10
105.144
20
27.23
30
0
0
VERTEX
8
RASTER
10
105.058
20
27.103
30
0
0
VERTEX
8
RASTER
10
104.937
20
26.982
30
0
0
VERTEX
8
RASTER
10
104.799
20
26.858
30
0
0
VERTEX
8
RASTER
10
104.66
20
26.721
30
0
0
VERTEX
8
RASTER
10
104.539
20
26.562
30
0
0
VERTEX
8
RASTER
10
104.454
20
26.371
30
0
0
VERTEX
8
RASTER
10
104.421
20
26.137
30
0
0
VERTEX
8
RASTER
10
104.421
20
23.529
30
0
0
VERTEX
8
RASTER
10
104.444
20
23.342
30
0
0
VERTEX
8
RASTER
10
104.514
20
23.19
30
0
0
VERTEX
8
RASTER
10
104.631
20
23.07
30
0
0
VERTEX
8
RASTER
10
104.799
20
22.98
30
0
0
VERTEX
8
RASTER
10
105.018
20
22.915
30
0
0
VERTEX
8
RASTER
10
105.29
20
22.873
30
0
0
VERTEX
8
RASTER
10
105.617
20
22.85
30
0
0
VERTEX
8
RASTER
10
106
20
22.843
30
0
0
VERTEX
8
RASTER
10
106.383
20
22.85
30
0
0
VERTEX
8
RASTER
10
106.71
20
22.873
30
0
0
VERTEX
8
RASTER
10
106.982
20
22.915
30
0
0
VERTEX
8
RASTER
10
107.201
20
22.98
30
0
0
VERTEX
8
RASTER
10
107.369
20
23.07
30
0
0
VERTEX
8
RASTER
10
107.486
20
23.19
30
0
0
VERTEX
8
RASTER
10
107.556
20
23.342
30
0
0
VERTEX
8
RASTER
10
107.579
20
23.529
30
0
0
VERTEX
8
RASTER
10
107.579
20
26.137
30
0
0
VERTEX
8
RASTER
10
107.546
20
26.371
30
0
0
VERTEX
8
RASTER
10
107.461
20
26.562
30
0
0
VERTEX
8
RASTER
10
107.34
20
26.721
30
0
0
VERTEX
8
RASTER
10
107.201
20
26.858
30
0
0
VERTEX
8
RASTER
10
107.063
20
26.982
30
0
0
VERTEX
8
RASTER
10
106.942
20
27.103
30
0
0
VERTEX
8
RASTER
10
106.856
20
27.23
30
0
0
VERTEX
8
RASTER
10
106.824
20
27.373
30
0
0
VERTEX
8
RASTER
10
105.176
20
27.373
30
0
0
SEQEND
8
RASTER
0
POLYLINE
8
RASTER
66
1
70
1
0
VERTEX
8
RASTER
10
104.696
20
25.588
30
0
0
VERTEX
8
RASTER
10
107.304
20
25.588
30
0
0
VERTEX
8
RASTER
10
107.304
20
24.627
30
0
0
VERTEX
8
RASTER
10
104.696
20
24.627
30
0
0
VERTEX
8
RASTER
10
104.696
20
25.588
30
0
0
SEQEND
8
RASTER
0
POLYLINE
8
RASTER
66
1
70
1
0
VERTEX
8
RASTER
10
105.039
20
28.471
30
0
0
VERTEX
8
RASTER
10
105.039
20
28.196
30
0
0
VERTEX
8
RASTER
10
105.041
20
28.164
30
0
0
VERTEX
8
RASTER
10
105.048
20
28.136
30
0
0
VERTEX
8
RASTER
10
105.058
20
28.113
30
0
0
VERTEX
8
RASTER
10
105.073
20
28.094
30
0
0
VERTEX
8
RASTER
10
105.093
20
28.079
30
0
0
VERTEX
8
RASTER
10
105.116
20
28.068
30
0
0
VERTEX
8
RASTER
10
105.144
20
28.061
30
0
0
VERTEX
8
RASTER
10
105.176
20
28.059
30
0
0
VERTEX
8
RASTER
10
106.824
20
28.059
30
0
0
VERTEX
8
RASTER
10
106.856
20
28.061
30
0
0
VERTEX
8
RASTER
10
106.884
20
28.068
30
0
0
VERTEX
8
RASTER
10
106.907
20
28.079
30
0
0
VERTEX
8
RASTER
10
106.927
20
28.094
30
0
0
VERTEX
8
RASTER
10
106.942
20
28.113
30
0
0
VERTEX
8
RASTER
10
106.952
20
28.136
30
0
0
VERTEX
8
RASTER
10
106.959
20
28.164
30
0
0
VERTEX
8
RASTER
10
106.961
20
28.196
30
0
0
VERTEX
8
RASTER
10
106.961
20
28.471
30
0
0
VERTEX
8
RASTER
10
106.959
20
28.503
30
0
0
VERTEX
8
RASTER
10
106.952
20
28.531
30
0
0
VERTEX
8
RASTER
10
106.942
20
28.555
30
0
0
VERTEX
8
RASTER
10
106.927
20
28.574
30
0
0
VERTEX
8
RASTER
10
106.907
20
28.589
30
0
0
VERTEX
8
RASTER
10
106.884
20
28.6
30
0
0
VERTEX
8
RASTER
10
106.856
20
28.606
30
0
0
VERTEX
8
RASTER
10
106.824
20
28.608
30
0
0
VERTEX
8
RASTER
10
105.176
20
28.608
30
0
0
VERTEX
8
RASTER
10
105.144
20
28.606
30
0
0
VERTEX
8
RASTER
10
105.116
20
28.6
30
0
0
VERTEX
8
RASTER
10
105.093
20
28.589
30
0
0
VERTEX
8
RASTER
10
105.073
20
28.574
30
0
0
VERTEX
8
RASTER
10
105.058
20
28.555
30
0
0
VERTEX
8
RASTER
10
105.048
20
28.531
30
0
0
VERTEX
8
RASTER
10
105.041
20
28.503
30
0
0
VERTEX
8
RASTER
10
105.039
20
28.471
30
0
0
SEQEND
8
RASTER
0
POLYLINE
8
RASTER
66
1
70
1
0
VERTEX
8
RASTER
10
105.176
20
27.991
30
0
0
VERTEX
8
RASTER
10
105.176
20
27.51
30
0
0
VERTEX
8
RASTER
10
106.824
20
27.51
30
0
0
VERTEX
8
RASTER
10
106.824
20
27.991
30
0
0
VERTEX
8
RASTER
10
105.176
20
27.991
30
0
0
SEQEND
8
RASTER
0
CIRCLE
8
CUT
10
122
20
26
30
0
40
6
0
CIRCLE
8
RASTER
10
122
20
26
30
0
40
5.2
0
POLYLINE
8
RASTER
66
1
70
1
0
VERTEX
8
RASTER
10
121.176
20
27.373
30
0
0
VERTEX
8
RASTER
10
121.144
20
27.23
30
0
0
VERTEX
8
RASTER
10
121.058
20
27.103
30
0
0
VERTEX
8
RASTER
10
120.937
20
26.982
30
0
0
VERTEX
8
RASTER
10
120.799
20
26.858
30
0
0
VERTEX
8
RASTER
10
120.66
20
26.721
30
0
0
VERTEX
8
RASTER
10
120.539
20
26.562
30
0
0
VERTEX
8
RASTER
10
120.454
20
26.371
30
0
0
VERTEX
8
RASTER
10
120.421
20
26.137
30
0
0
VERTEX
8
RASTER
10
120.421
20
23.529
30
0
0
VERTEX
8
RASTER
10
120.444
20
23.342
30
0
0
VERTEX
8
RASTER
10
120.514
20
23.19
30
0
0
VERTEX
8
RASTER
10
120.631
20
23.07
30
0
0
VERTEX
8
RASTER
10
120.799
20
22.98
30
0
0
VERTEX
8
RASTER
10
121.018
20
22.915
30
0
0
VERTEX
8
RASTER
10
121.29
20
22.873
30
0
0
VERTEX
8
RASTER
10
121.617
20
22.85
30
0
0
VERTEX
8
RASTER
10
122
20
22.843
30
0
0
VERTEX
8
RASTER
10
122.383
20
22.85
30
0
0
VERTEX
8
RASTER
10
122.71
20
22.873
30
0
0
VERTEX
8
RASTER
10
122.982
20
22.915
30
0
0
VERTEX
8
RASTER
10
123.201
20
22.98
30
0
0
VERTEX
8
RASTER
10
123.369
20
23.07
30
0
0
VERTEX
8
RASTER
10
123.486
20
23.19
30
0
0
VERTEX
8
RASTER
10
123.556
20
23.342
30
0
0
VERTEX
8
RASTER
10
123.579
20
23.529
30
0
0
VERTEX
8
RASTER
10
123.579
20
26.137
30
0
0
VERTEX
8
RASTER
10
123.546
20
26.371
30
0
0
VERTEX
8
RASTER
10
123.461
20
26.562
30
0
0
VERTEX
8
RASTER
10
123.34
20
26.721
30
0
0
VERTEX
8
RASTER
10
123.201
20
26.858
30
0
0
VERTEX
8
RASTER
10
123.063
20
26.982
30
0
0
VERTEX
8
RASTER
10
122.942
20
27.103
30
0
0
VERTEX
8
RASTER
10
122.856
20
27.23
30
0
0
VERTEX
8
RASTER
10
122.824
20
27.373
30
0
0
VERTEX
8
RASTER
10
121.176
20
27.373
30
0
0
SEQEND
8
RASTER
0
POLYLINE
8
RASTER
66
1
70
1
0
VERTEX
8
RASTER
10
120.696
20
25.588
30
0
0
VERTEX
8
RASTER
10
123.304
20
25.588
30
0
0
VERTEX
8
RASTER
10
123.304
20
24.627
30
0
0
VERTEX
8
RASTER
10
120.696
20
24.627
30
0
0
VERTEX
8
RASTER
10
120.696
20
25.588
30
0
0
SEQEND
8
RASTER
0
POLYLINE
8
RASTER
66
1
70
1
0
VERTEX
8
RASTER
10
121.039
20
28.471
30
0
0
VERTEX
8
RASTER
10
121.039
20
28.196
30
0
0
VERTEX
8
RASTER
10
121.041
20
28.164
30
0
0
VERTEX
8
RASTER
10
121.048
20
28.136
30
0
0
VERTEX
8
RASTER
10
121.058
20
28.113
30
0
0
VERTEX
8
RASTER
10
121.073
20
28.094
30
0
0
VERTEX
8
RASTER
10
121.093
20
28.079
30
0
0
VERTEX
8
RASTER
10
121.116
20
28.068
30
0
0
VERTEX
8
RASTER
10
121.144
20
28.061
30
0
0
VERTEX
8
RASTER
10
121.176
20
28.059
30
0
0
VERTEX
8
RASTER
10
122.824
20
28.059
30
0
0
VERTEX
8
RASTER
10
122.856
20
28.061
30
0
0
VERTEX
8
RASTER
10
122.884
20
28.068
30
0
0
VERTEX
8
RASTER
10
122.907
20
28.079
30
0
0
VERTEX
8
RASTER
10
122.927
20
28.094
30
0
0
VERTEX
8
RASTER
10
122.942
20
28.113
30
0
0
VERTEX
8
RASTER
10
122.952
20
28.136
30
0
0
VERTEX
8
RASTER
10
122.959
20
28.164
30
0
0
VERTEX
8
RASTER
10
122.961
20
28.196
30
0
0
VERTEX
8
RASTER
10
122.961
20
28.471
30
0
0
VERTEX
8
RASTER
10
122.959
20
28.503
30
0
0
VERTEX
8
RASTER
10
122.952
20
28.531
30
0
0
VERTEX
8
RASTER
10
122.942
20
28.555
30
0
0
VERTEX
8
RASTER
10
122.927
20
28.574
30
0
0
VERTEX
8
RASTER
10
122.907
20
28.589
30
0
0
VERTEX
8
RASTER
10
122.884
20
28.6
30
0
0
VERTEX
8
RASTER
10
122.856
20
28.606
30
0
0
VERTEX
8
RASTER
10
122.824
20
28.608
30
0
0
VERTEX
8
RASTER
10
121.176
20
28.608
30
0
0
VERTEX
8
RASTER
10
121.144
20
28.606
30
0
0
VERTEX
8
RASTER
10
121.116
20
28.6
30
0
0
VERTEX
8
RASTER
10
121.093
20
28.589
30
0
0
VERTEX
8
RASTER
10
121.073
20
28.574
30
0
0
VERTEX
8
RASTER
10
121.058
20
28.555
30
0
0
VERTEX
8
RASTER
10
121.048
20
28.531
30
0
0
VERTEX
8
RASTER
10
121.041
20
28.503
30
0
0
VERTEX
8
RASTER
10
121.039
20
28.471
30
0
0
SEQEND
8
RASTER
0
POLYLINE
8
RASTER
66
1
70
1
0
VERTEX
8
RASTER
10
121.176
20
27.991
30
0
0
VERTEX
8
RASTER
10
121.176
20
27.51
30
0
0
VERTEX
8
RASTER
10
122.824
20
27.51
30
0
0
VERTEX
8
RASTER
10
122.824
20
27.991
30
0
0
VERTEX
8
RASTER
10
121.176
20
27.991
30
0
0
SEQEND
8
RASTER
0
CIRCLE
8
CUT
10
138
20
26
30
0
40
6
0
CIRCLE
8
RASTER
10
138
20
26
30
0
40
5.2
0
POLYLINE
8
RASTER
66
1
70
1
0
VERTEX
8
RASTER
10
137.039
20
27.881
30
0
0
VERTEX
8
RASTER
10
135.845
20
27.194
30
0
0
VERTEX
8
RASTER
10
137.039
20
26.508
30
0
0
VERTEX
8
RASTER
10
138.233
20
27.194
30
0
0
VERTEX
8
RASTER
10
137.039
20
27.881
30
0
0
SEQEND
8
RASTER
0
POLYLINE
8
RASTER
66
1
70
1
0
VERTEX
8
RASTER
10
135.761
20
27.05
30
0
0
VERTEX
8
RASTER
10
135.761
20
25.677
30
0
0
VERTEX
8
RASTER
10
136.955
20
24.991
30
0
0
VERTEX
8
RASTER
10
136.955
20
26.364
30
0
0
VERTEX
8
RASTER
10
135.761
20
27.05
30
0
0
SEQEND
8
RASTER
0
POLYLINE
8
RASTER
66
1
70
1
0
VERTEX
8
RASTER
10
137.123
20
26.364
30
0
0
VERTEX
8
RASTER
10
137.123
20
24.991
30
0
0
VERTEX
8
RASTER
10
138.317
20
25.677
30
0
0
VERTEX
8
RASTER
10
138.317
20
27.05
30
0
0
VERTEX
8
RASTER
10
137.123
20
26.364
30
0
0
SEQEND
8
RASTER
0
POLYLINE
8
RASTER
66
1
70
1
0
VERTEX
8
RASTER
10
139.098
20
26.165
30
0
0
VERTEX
8
RASTER
10
138.202
20
25.65
30
0
0
VERTEX
8
RASTER
10
139.098
20
25.135
30
0
0
VERTEX
8
RASTER
10
139.994
20
25.65
30
0
0
VERTEX
8
RASTER
10
139.098
20
26.165
30
0
0
SEQEND
8
RASTER
0
POLYLINE
8
RASTER
66
1
70
1
0
VERTEX
8
RASTER
10
138.119
20
25.506
30
0
0
VERTEX
8
RASTER
10
138.119
20
24.476
30
0
0
VERTEX
8
RASTER
10
139.015
20
23.961
30
0
0
VERTEX
8
RASTER
10
139.015
20
24.991
30
0
0
VERTEX
8
RASTER
10
138.119
20
25.506
30
0
0
SEQEND
8
RASTER
0
POLYLINE
8
RASTER
66
1
70
1
0
VERTEX
8
RASTER
10
139.182
20
24.991
30
0
0
VERTEX
8
RASTER
10
139.182
20
23.961
30
0
0
VERTEX
8
RASTER
10
140.078
20
24.476
30
0
0
VERTEX
8
RASTER
10
140.078
20
25.506
30
0
0
VERTEX
8
RASTER
10
139.182
20
24.991
30
0
0
SEQEND
8
RASTER
0
CIRCLE
8
CUT
10
154
20
26
30
0
40
6
0
CIRCLE
8
RASTER
10
154
20
26
30
0
40
5.2
0
POLYLINE
8
RASTER
66
1
70
1
0
VERTEX
8
RASTER
10
153.039
20
27.881
30
0
0
VERTEX
8
RASTER
10
151.845
20
27.194
30
0
0
VERTEX
8
RASTER
10
153.039
20
26.508
30
0
0
VERTEX
8
RASTER
10
154.233
20
27.194
30
0
0
VERTEX
8
RASTER
10
153.039
20
27.881
30
0
0
SEQEND
8
RASTER
0
POLYLINE
8
RASTER
66
1
70
1
0
VERTEX
8
RASTER
10
151.761
20
27.05
30
0
0
VERTEX
8
RASTER
10
151.761
20
25.677
30
0
0
VERTEX
8
RASTER
10
152.955
20
24.991
30
0
0
VERTEX
8
RASTER
10
152.955
20
26.364
30
0
0
VERTEX
8
RASTER
10
151.761
20
27.05
30
0
0
SEQEND
8
RASTER
0
POLYLINE
8
RASTER
66
1
70
1
0
VERTEX
8
RASTER
10
153.123
20
26.364
30
0
0
VERTEX
8
RASTER
10
153.123
20
24.991
30
0
0
VERTEX
8
RASTER
10
154.317
20
25.677
30
0
0
VERTEX
8
RASTER
10
154.317
20
27.05
30
0
0
VERTEX
8
RASTER
10
153.123
20
26.364
30
0
0
SEQEND
8
RASTER
0
POLYLINE
8
RASTER
66
1
70
1
0
VERTEX
8
RASTER
10
155.098
20
26.165
30
0
0
VERTEX
8
RASTER
10
154.202
20
25.65
30
0
0
VERTEX
8
RASTER
10
155.098
20
25.135
30
0
0
VERTEX
8
RASTER
10
155.994
20
25.65
30
0
0
VERTEX
8
RASTER
10
155.098
20
26.165
30
0
0
SEQEND
8
RASTER
0
POLYLINE
8
RASTER
66
1
70
1
0
VERTEX
8
RASTER
10
154.119
20
25.506
30
0
0
VERTEX
8
RASTER
10
154.119
20
24.476
30
0
0
VERTEX
8
RASTER
10
155.015
20
23.961
30
0
0
VERTEX
8
RASTER
10
155.015
20
24.991
30
0
0
VERTEX
8
RASTER
10
154.119
20
25.506
30
0
0
SEQEND
8
RASTER
0
POLYLINE
8
RASTER
66
1
70
1
0
VERTEX
8
RASTER
10
155.182
20
24.991
30
0
0
VERTEX
8
RASTER
10
155.182
20
23.961
30
0
0
VERTEX
8
RASTER
10
156.078
20
24.476
30
0
0
VERTEX
8
RASTER
10
156.078
20
25.506
30
0
0
VERTEX
8
RASTER
10
155.182
20
24.991
30
0
0
SEQEND
8
RASTER
0
CIRCLE
8
CUT
10
170
20
26
30
0
40
6
0
CIRCLE
8
RASTER
10
170
20
26
30
0
40
5.2
0
POLYLINE
8
RASTER
66
1
70
1
0
VERTEX
8
RASTER
10
169.039
20
27.881
30
0
0
VERTEX
8
RASTER
10
167.845
20
27.194
30
0
0
VERTEX
8
RASTER
10
169.039
20
26.508
30
0
0
VERTEX
8
RASTER
10
170.233
20
27.194
30
0
0
VERTEX
8
RASTER
10
169.039
20
27.881
30
0
0
SEQEND
8
RASTER
0
POLYLINE
8
RASTER
66
1
70
1
0
VERTEX
8
RASTER
10
167.761
20
27.05
30
0
0
VERTEX
8
RASTER
10
167.761
20
25.677
30
0
0
VERTEX
8
RASTER
10
168.955
20
24.991
30
0
0
VERTEX
8
RASTER
10
168.955
20
26.364
30
0
0
VERTEX
8
RASTER
10
167.761
20
27.05
30
0
0
SEQEND
8
RASTER
0
POLYLINE
8
RASTER
66
1
70
1
0
VERTEX
8
RASTER
10
169.123
20
26.364
30
0
0
VERTEX
8
RASTER
10
169.123
20
24.991
30
0
0
VERTEX
8
RASTER
10
170.317
20
25.677
30
0
0
VERTEX
8
RASTER
10
170.317
20
27.05
30
0
0
VERTEX
8
RASTER
10
169.123
20
26.364
30
0
0
SEQEND
8
RASTER
0
POLYLINE
8
RASTER
66
1
70
1
0
VERTEX
8
RASTER
10
171.098
20
26.165
30
0
0
VERTEX
8
RASTER
10
170.202
20
25.65
30
0
0
VERTEX
8
RASTER
10
171.098
20
25.135
30
0
0
VERTEX
8
RASTER
10
171.994
20
25.65
30
0
0
VERTEX
8
RASTER
10
171.098
20
26.165
30
0
0
SEQEND
8
RASTER
0
POLYLINE
8
RASTER
66
1
70
1
0
VERTEX
8
RASTER
10
170.119
20
25.506
30
0
0
VERTEX
8
RASTER
10
170.119
20
24.476
30
0
0
VERTEX
8
RASTER
10
171.015
20
23.961
30
0
0
VERTEX
8
RASTER
10
171.015
20
24.991
30
0
0
VERTEX
8
RASTER
10
170.119
20
25.506
30
0
0
SEQEND
8
RASTER
0
POLYLINE
8
RASTER
66
1
70
1
0
VERTEX
8
RASTER
10
171.182
20
24.991
30
0
0
VERTEX
8
RASTER
10
171.182
20
23.961
30
0
0
VERTEX
8
RASTER
10
172.078
20
24.476
30
0
0
VERTEX
8
RASTER
10
172.078
20
25.506
30
0
0
VERTEX
8
RASTER
10
171.182
20
24.991
30
0
0
SEQEND
8
RASTER
0
CIRCLE
8
CUT
10
186
20
26
30
0
40
6
0
CIRCLE
8
RASTER
10
186
20
26
30
0
40
5.2
0
POLYLINE
8
RASTER
66
1
70
1
0
VERTEX
8
RASTER
10
185.039
20
27.881
30
0
0
VERTEX
8
RASTER
10
183.845
20
27.194
30
0
0
VERTEX
8
RASTER
10
185.039
20
26.508
30
0
0
VERTEX
8
RASTER
10
186.233
20
27.194
30
0
0
VERTEX
8
RASTER
10
185.039
20
27.881
30
0
0
SEQEND
8
RASTER
0
POLYLINE
8
RASTER
66
1
70
1
0
VERTEX
8
RASTER
10
183.761
20
27.05
30
0
0
VERTEX
8
RASTER
10
183.761
20
25.677
30
0
0
VERTEX
8
RASTER
10
184.955
20
24.991
30
0
0
VERTEX
8
RASTER
10
184.955
20
26.364
30
0
0
VERTEX
8
RASTER
10
183.761
20
27.05
30
0
0
SEQEND
8
RASTER
0
POLYLINE
8
RASTER
66
1
70
1
0
VERTEX
8
RASTER
10
185.123
20
26.364
30
0
0
VERTEX
8
RASTER
10
185.123
20
24.991
30
0
0
VERTEX
8
RASTER
10
186.317
20
25.677
30
0
0
VERTEX
8
RASTER
10
186.317
20
27.05
30
0
0
VERTEX
8
RASTER
10
185.123
20
26.364
30
0
0
SEQEND
8
RASTER
0
POLYLINE
8
RASTER
66
1
70
1
0
VERTEX
8
RASTER
10
187.098
20
26.165
30
0
0
VERTEX
8
RASTER
10
186.202
20
25.65
30
0
0
VERTEX
8
RASTER
10
187.098
20
25.135
30
0
0
VERTEX
8
RASTER
10
187.994
20
25.65
30
0
0
VERTEX
8
RASTER
10
187.098
20
26.165
30
0
0
SEQEND
8
RASTER
0
POLYLINE
8
RASTER
66
1
70
1
0
VERTEX
8
RASTER
10
186.119
20
25.506
30
0
0
VERTEX
8
RASTER
10
186.119
20
24.476
30
0
0
VERTEX
8
RASTER
10
187.015
20
23.961
30
0
0
VERTEX
8
RASTER
10
187.015
20
24.991
30
0
0
VERTEX
8
RASTER
10
186.119
20
25.506
30
0
0
SEQEND
8
RASTER
0
POLYLINE
8
RASTER
66
1
70
1
0
VERTEX
8
RASTER
10
187.182
20
24.991
30
0
0
VERTEX
8
RASTER
10
187.182
20
23.961
30
0
0
VERTEX
8
RASTER
10
188.078
20
24.476
30
0
0
VERTEX
8
RASTER
10
188.078
20
25.506
30
0
0
VERTEX
8
RASTER
10
187.182
20
24.991
30
0
0
SEQEND
8
RASTER
0
CIRCLE
8
CUT
10
202
20
26
30
0
40
6
0
CIRCLE
8
RASTER
10
202
20
26
30
0
40
5.2
0
POLYLINE
8
RASTER
66
1
70
1
0
VERTEX
8
RASTER
10
202
20
29.02
30
0
0
VERTEX
8
RASTER
10
201.551
20
28.928
30
0
0
VERTEX
8
RASTER
10
201.136
20
28.673
30
0
0
VERTEX
8
RASTER
10
200.762
20
28.282
30
0
0
VERTEX
8
RASTER
10
200.438
20
27.785
30
0
0
VERTEX
8
RASTER
10
200.173
20
27.21
30
0
0
VERTEX
8
RASTER
10
199.973
20
26.588
30
0
0
VERTEX
8
RASTER
10
199.847
20
25.946
30
0
0
VERTEX
8
RASTER
10
199.804
20
25.314
30
0
0
VERTEX
8
RASTER
10
199.847
20
24.816
30
0
0
VERTEX
8
RASTER
10
199.973
20
24.359
30
0
0
VERTEX
8
RASTER
10
200.173
20
23.95
30
0
0
VERTEX
8
RASTER
10
200.438
20
23.598
30
0
0
VERTEX
8
RASTER
10
200.762
20
23.309
30
0
0
VERTEX
8
RASTER
10
201.136
20
23.094
30
0
0
VERTEX
8
RASTER
10
201.551
20
22.958
30
0
0
VERTEX
8
RASTER
10
202
20
22.911
30
0
0
VERTEX
8
RASTER
10
202.449
20
22.958
30
0
0
VERTEX
8
RASTER
10
202.864
20
23.094
30
0
0
VERTEX
8
RASTER
10
203.238
20
23.309
30
0
0
VERTEX
8
RASTER
10
203.562
20
23.598
30
0
0
VERTEX
8
RASTER
10
203.827
20
23.95
30
0
0
VERTEX
8
RASTER
10
204.027
20
24.359
30
0
0
VERTEX
8
RASTER
10
204.153
20
24.816
30
0
0
VERTEX
8
RASTER
10
204.196
20
25.314
30
0
0
VERTEX
8
RASTER
10
204.153
20
25.946
30
0
0
VERTEX
8
RASTER
10
204.027
20
26.588
30
0
0
VERTEX
8
RASTER
10
203.827
20
27.21
30
0
0
VERTEX
8
RASTER
10
203.562
20
27.785
30
0
0
VERTEX
8
RASTER
10
203.238
20
28.282
30
0
0
VERTEX
8
RASTER
10
202.864
20
28.673
30
0
0
VERTEX
8
RASTER
10
202.449
20
28.928
30
0
0
VERTEX
8
RASTER
10
202
20
29.02
30
0
0
SEQEND
8
RASTER
0
CIRCLE
8
RASTER
10
201.314
20
27.236
30
0
40
0.22
0
CIRCLE
8
RASTER
10
202.549
20
26.412
30
0
40
0.275
0
CIRCLE
8
RASTER
10
201.039
20
25.314
30
0
40
0.24
0
CIRCLE
8
RASTER
10
202.686
20
24.49
30
0
40
0.206
0
CIRCLE
8
RASTER
10
201.725
20
23.804
30
0
40
0.172
0
CIRCLE
8
RASTER
10
202.961
20
27.785
30
0
40
0.151
0
CIRCLE
8
CUT
10
218
20
26
30
0
40
6
0
CIRCLE
8
RASTER
10
218
20
26
30
0
40
5.2
0
POLYLINE
8
RASTER
66
1
70
1
0
VERTEX
8
RASTER
10
218
20
29.02
30
0
0
VERTEX
8
RASTER
10
217.551
20
28.928
30
0
0
VERTEX
8
RASTER
10
217.136
20
28.673
30
0
0
VERTEX
8
RASTER
10
216.762
20
28.282
30
0
0
VERTEX
8
RASTER
10
216.438
20
27.785
30
0
0
VERTEX
8
RASTER
10
216.173
20
27.21
30
0
0
VERTEX
8
RASTER
10
215.973
20
26.588
30
0
0
VERTEX
8
RASTER
10
215.847
20
25.946
30
0
0
VERTEX
8
RASTER
10
215.804
20
25.314
30
0
0
VERTEX
8
RASTER
10
215.847
20
24.816
30
0
0
VERTEX
8
RASTER
10
215.973
20
24.359
30
0
0
VERTEX
8
RASTER
10
216.173
20
23.95
30
0
0
VERTEX
8
RASTER
10
216.438
20
23.598
30
0
0
VERTEX
8
RASTER
10
216.762
20
23.309
30
0
0
VERTEX
8
RASTER
10
217.136
20
23.094
30
0
0
VERTEX
8
RASTER
10
217.551
20
22.958
30
0
0
VERTEX
8
RASTER
10
218
20
22.911
30
0
0
VERTEX
8
RASTER
10
218.449
20
22.958
30
0
0
VERTEX
8
RASTER
10
218.864
20
23.094
30
0
0
VERTEX
8
RASTER
10
219.238
20
23.309
30
0
0
VERTEX
8
RASTER
10
219.562
20
23.598
30
0
0
VERTEX
8
RASTER
10
219.827
20
23.95
30
0
0
VERTEX
8
RASTER
10
220.027
20
24.359
30
0
0
VERTEX
8
RASTER
10
220.153
20
24.816
30
0
0
VERTEX
8
RASTER
10
220.196
20
25.314
30
0
0
VERTEX
8
RASTER
10
220.153
20
25.946
30
0
0
VERTEX
8
RASTER
10
220.027
20
26.588
30
0
0
VERTEX
8
RASTER
10
219.827
20
27.21
30
0
0
VERTEX
8
RASTER
10
219.562
20
27.785
30
0
0
VERTEX
8
RASTER
10
219.238
20
28.282
30
0
0
VERTEX
8
RASTER
10
218.864
20
28.673
30
0
0
VERTEX
8
RASTER
10
218.449
20
28.928
30
0
0
VERTEX
8
RASTER
10
218
20
29.02
30
0
0
SEQEND
8
RASTER
0
CIRCLE
8
RASTER
10
217.314
20
27.236
30
0
40
0.22
0
CIRCLE
8
RASTER
10
218.549
20
26.412
30
0
40
0.275
0
CIRCLE
8
RASTER
10
217.039
20
25.314
30
0
40
0.24
0
CIRCLE
8
RASTER
10
218.686
20
24.49
30
0
40
0.206
0
CIRCLE
8
RASTER
10
217.725
20
23.804
30
0
40
0.172
0
CIRCLE
8
RASTER
10
218.961
20
27.785
30
0
40
0.151
0
CIRCLE
8
CUT
10
234
20
26
30
0
40
6
0
CIRCLE
8
RASTER
10
234
20
26
30
0
40
5.2
0
POLYLINE
8
RASTER
66
1
70
1
0
VERTEX
8
RASTER
10
234
20
29.02
30
0
0
VERTEX
8
RASTER
10
233.551
20
28.928
30
0
0
VERTEX
8
RASTER
10
233.136
20
28.673
30
0
0
VERTEX
8
RASTER
10
232.762
20
28.282
30
0
0
VERTEX
8
RASTER
10
232.438
20
27.785
30
0
0
VERTEX
8
RASTER
10
232.173
20
27.21
30
0
0
VERTEX
8
RASTER
10
231.973
20
26.588
30
0
0
VERTEX
8
RASTER
10
231.847
20
25.946
30
0
0
VERTEX
8
RASTER
10
231.804
20
25.314
30
0
0
VERTEX
8
RASTER
10
231.847
20
24.816
30
0
0
VERTEX
8
RASTER
10
231.973
20
24.359
30
0
0
VERTEX
8
RASTER
10
232.173
20
23.95
30
0
0
VERTEX
8
RASTER
10
232.438
20
23.598
30
0
0
VERTEX
8
RASTER
10
232.762
20
23.309
30
0
0
VERTEX
8
RASTER
10
233.136
20
23.094
30
0
0
VERTEX
8
RASTER
10
233.551
20
22.958
30
0
0
VERTEX
8
RASTER
10
234
20
22.911
30
0
0
VERTEX
8
RASTER
10
234.449
20
22.958
30
0
0
VERTEX
8
RASTER
10
234.864
20
23.094
30
0
0
VERTEX
8
RASTER
10
235.238
20
23.309
30
0
0
VERTEX
8
RASTER
10
235.562
20
23.598
30
0
0
VERTEX
8
RASTER
10
235.827
20
23.95
30
0
0
VERTEX
8
RASTER
10
236.027
20
24.359
30
0
0
VERTEX
8
RASTER
10
236.153
20
24.816
30
0
0
VERTEX
8
RASTER
10
236.196
20
25.314
30
0
0
VERTEX
8
RASTER
10
236.153
20
25.946
30
0
0
VERTEX
8
RASTER
10
236.027
20
26.588
30
0
0
VERTEX
8
RASTER
10
235.827
20
27.21
30
0
0
VERTEX
8
RASTER
10
235.562
20
27.785
30
0
0
VERTEX
8
RASTER
10
235.238
20
28.282
30
0
0
VERTEX
8
RASTER
10
234.864
20
28.673
30
0
0
VERTEX
8
RASTER
10
234.449
20
28.928
30
0
0
VERTEX
8
RASTER
10
234
20
29.02
30
0
0
SEQEND
8
RASTER
0
CIRCLE
8
RASTER
10
233.314
20
27.236
30
0
40
0.22
0
CIRCLE
8
RASTER
10
234.549
20
26.412
30
0
40
0.275
0
CIRCLE
8
RASTER
10
233.039
20
25.314
30
0
40
0.24
0
CIRCLE
8
RASTER
10
234.686
20
24.49
30
0
40
0.206
0
CIRCLE
8
RASTER
10
233.725
20
23.804
30
0
40
0.172
0
CIRCLE
8
RASTER
10
234.961
20
27.785
30
0
40
0.151
0
CIRCLE
8
CUT
10
250
20
26
30
0
40
6
0
CIRCLE
8
RASTER
10
250
20
26
30
0
40
5.2
0
POLYLINE
8
RASTER
66
1
70
1
0
VERTEX
8
RASTER
10
250
20
29.02
30
0
0
VERTEX
8
RASTER
10
249.551
20
28.928
30
0
0
VERTEX
8
RASTER
10
249.136
20
28.673
30
0
0
VERTEX
8
RASTER
10
248.762
20
28.282
30
0
0
VERTEX
8
RASTER
10
248.438
20
27.785
30
0
0
VERTEX
8
RASTER
10
248.173
20
27.21
30
0
0
VERTEX
8
RASTER
10
247.973
20
26.588
30
0
0
VERTEX
8
RASTER
10
247.847
20
25.946
30
0
0
VERTEX
8
RASTER
10
247.804
20
25.314
30
0
0
VERTEX
8
RASTER
10
247.847
20
24.816
30
0
0
VERTEX
8
RASTER
10
247.973
20
24.359
30
0
0
VERTEX
8
RASTER
10
248.173
20
23.95
30
0
0
VERTEX
8
RASTER
10
248.438
20
23.598
30
0
0
VERTEX
8
RASTER
10
248.762
20
23.309
30
0
0
VERTEX
8
RASTER
10
249.136
20
23.094
30
0
0
VERTEX
8
RASTER
10
249.551
20
22.958
30
0
0
VERTEX
8
RASTER
10
250
20
22.911
30
0
0
VERTEX
8
RASTER
10
250.449
20
22.958
30
0
0
VERTEX
8
RASTER
10
250.864
20
23.094
30
0
0
VERTEX
8
RASTER
10
251.238
20
23.309
30
0
0
VERTEX
8
RASTER
10
251.562
20
23.598
30
0
0
VERTEX
8
RASTER
10
251.827
20
23.95
30
0
0
VERTEX
8
RASTER
10
252.027
20
24.359
30
0
0
VERTEX
8
RASTER
10
252.153
20
24.816
30
0
0
VERTEX
8
RASTER
10
252.196
20
25.314
30
0
0
VERTEX
8
RASTER
10
252.153
20
25.946
30
0
0
VERTEX
8
RASTER
10
252.027
20
26.588
30
0
0
VERTEX
8
RASTER
10
251.827
20
27.21
30
0
0
VERTEX
8
RASTER
10
251.562
20
27.785
30
0
0
VERTEX
8
RASTER
10
251.238
20
28.282
30
0
0
VERTEX
8
RASTER
10
250.864
20
28.673
30
0
0
VERTEX
8
RASTER
10
250.449
20
28.928
30
0
0
VERTEX
8
RASTER
10
250
20
29.02
30
0
0
SEQEND
8
RASTER
0
CIRCLE
8
RASTER
10
249.314
20
27.236
30
0
40
0.22
0
CIRCLE
8
RASTER
10
250.549
20
26.412
30
0
40
0.275
0
CIRCLE
8
RASTER
10
249.039
20
25.314
30
0
40
0.24
0
CIRCLE
8
RASTER
10
250.686
20
24.49
30
0
40
0.206
0
CIRCLE
8
RASTER
10
249.725
20
23.804
30
0
40
0.172
0
CIRCLE
8
RASTER
10
250.961
20
27.785
30
0
40
0.151
0
CIRCLE
8
CUT
10
266
20
26
30
0
40
6
0
CIRCLE
8
RASTER
10
266
20
26
30
0
40
5.2
0
POLYLINE
8
RASTER
66
1
70
1
0
VERTEX
8
RASTER
10
264.215
20
28.54
30
0
0
VERTEX
8
RASTER
10
264.215
20
27.304
30
0
0
VERTEX
8
RASTER
10
264.219
20
27.256
30
0
0
VERTEX
8
RASTER
10
264.228
20
27.214
30
0
0
VERTEX
8
RASTER
10
264.244
20
27.179
30
0
0
VERTEX
8
RASTER
10
264.267
20
27.15
30
0
0
VERTEX
8
RASTER
10
264.296
20
27.127
30
0
0
VERTEX
8
RASTER
10
264.331
20
27.111
30
0
0
VERTEX
8
RASTER
10
264.373
20
27.101
30
0
0
VERTEX
8
RASTER
10
264.421
20
27.098
30
0
0
VERTEX
8
RASTER
10
265.657
20
27.098
30
0
0
VERTEX
8
RASTER
10
265.705
20
27.101
30
0
0
VERTEX
8
RASTER
10
265.747
20
27.111
30
0
0
VERTEX
8
RASTER
10
265.782
20
27.127
30
0
0
VERTEX
8
RASTER
10
265.811
20
27.15
30
0
0
VERTEX
8
RASTER
10
265.834
20
27.179
30
0
0
VERTEX
8
RASTER
10
265.85
20
27.214
30
0
0
VERTEX
8
RASTER
10
265.86
20
27.256
30
0
0
VERTEX
8
RASTER
10
265.863
20
27.304
30
0
0
VERTEX
8
RASTER
10
265.863
20
28.54
30
0
0
VERTEX
8
RASTER
10
265.86
20
28.588
30
0
0
VERTEX
8
RASTER
10
265.85
20
28.63
30
0
0
VERTEX
8
RASTER
10
265.834
20
28.665
30
0
0
VERTEX
8
RASTER
10
265.811
20
28.694
30
0
0
VERTEX
8
RASTER
10
265.782
20
28.717
30
0
0
VERTEX
8
RASTER
10
265.747
20
28.733
30
0
0
VERTEX
8
RASTER
10
265.705
20
28.742
30
0
0
VERTEX
8
RASTER
10
265.657
20
28.746
30
0
0
VERTEX
8
RASTER
10
264.421
20
28.746
30
0
0
VERTEX
8
RASTER
10
264.373
20
28.742
30
0
0
VERTEX
8
RASTER
10
264.331
20
28.733
30
0
0
VERTEX
8
RASTER
10
264.296
20
28.717
30
0
0
VERTEX
8
RASTER
10
264.267
20
28.694
30
0
0
VERTEX
8
RASTER
10
264.244
20
28.665
30
0
0
VERTEX
8
RASTER
10
264.228
20
28.63
30
0
0
VERTEX
8
RASTER
10
264.219
20
28.588
30
0
0
VERTEX
8
RASTER
10
264.215
20
28.54
30
0
0
SEQEND
8
RASTER
0
POLYLINE
8
RASTER
66
1
70
1
0
VERTEX
8
RASTER
10
266.137
20
28.54
30
0
0
VERTEX
8
RASTER
10
266.137
20
27.304
30
0
0
VERTEX
8
RASTER
10
266.14
20
27.256
30
0
0
VERTEX
8
RASTER
10
266.15
20
27.214
30
0
0
VERTEX
8
RASTER
10
266.166
20
27.179
30
0
0
VERTEX
8
RASTER
10
266.189
20
27.15
30
0
0
VERTEX
8
RASTER
10
266.218
20
27.127
30
0
0
VERTEX
8
RASTER
10
266.253
20
27.111
30
0
0
VERTEX
8
RASTER
10
266.295
20
27.101
30
0
0
VERTEX
8
RASTER
10
266.343
20
27.098
30
0
0
VERTEX
8
RASTER
10
267.579
20
27.098
30
0
0
VERTEX
8
RASTER
10
267.627
20
27.101
30
0
0
VERTEX
8
RASTER
10
267.669
20
27.111
30
0
0
VERTEX
8
RASTER
10
267.704
20
27.127
30
0
0
VERTEX
8
RASTER
10
267.733
20
27.15
30
0
0
VERTEX
8
RASTER
10
267.756
20
27.179
30
0
0
VERTEX
8
RASTER
10
267.772
20
27.214
30
0
0
VERTEX
8
RASTER
10
267.781
20
27.256
30
0
0
VERTEX
8
RASTER
10
267.785
20
27.304
30
0
0
VERTEX
8
RASTER
10
267.785
20
28.54
30
0
0
VERTEX
8
RASTER
10
267.781
20
28.588
30
0
0
VERTEX
8
RASTER
10
267.772
20
28.63
30
0
0
VERTEX
8
RASTER
10
267.756
20
28.665
30
0
0
VERTEX
8
RASTER
10
267.733
20
28.694
30
0
0
VERTEX
8
RASTER
10
267.704
20
28.717
30
0
0
VERTEX
8
RASTER
10
267.669
20
28.733
30
0
0
VERTEX
8
RASTER
10
267.627
20
28.742
30
0
0
VERTEX
8
RASTER
10
267.579
20
28.746
30
0
0
VERTEX
8
RASTER
10
266.343
20
28.746
30
0
0
VERTEX
8
RASTER
10
266.295
20
28.742
30
0
0
VERTEX
8
RASTER
10
266.253
20
28.733
30
0
0
VERTEX
8
RASTER
10
266.218
20
28.717
30
0
0
VERTEX
8
RASTER
10
266.189
20
28.694
30
0
0
VERTEX
8
RASTER
10
266.166
20
28.665
30
0
0
VERTEX
8
RASTER
10
266.15
20
28.63
30
0
0
VERTEX
8
RASTER
10
266.14
20
28.588
30
0
0
VERTEX
8
RASTER
10
266.137
20
28.54
30
0
0
SEQEND
8
RASTER
0
POLYLINE
8
RASTER
66
1
70
1
0
VERTEX
8
RASTER
10
264.215
20
26.618
30
0
0
VERTEX
8
RASTER
10
264.215
20
25.382
30
0
0
VERTEX
8
RASTER
10
264.219
20
25.334
30
0
0
VERTEX
8
RASTER
10
264.228
20
25.292
30
0
0
VERTEX
8
RASTER
10
264.244
20
25.257
30
0
0
VERTEX
8
RASTER
10
264.267
20
25.228
30
0
0
VERTEX
8
RASTER
10
264.296
20
25.205
30
0
0
VERTEX
8
RASTER
10
264.331
20
25.189
30
0
0
VERTEX
8
RASTER
10
264.373
20
25.18
30
0
0
VERTEX
8
RASTER
10
264.421
20
25.176
30
0
0
VERTEX
8
RASTER
10
265.657
20
25.176
30
0
0
VERTEX
8
RASTER
10
265.705
20
25.18
30
0
0
VERTEX
8
RASTER
10
265.747
20
25.189
30
0
0
VERTEX
8
RASTER
10
265.782
20
25.205
30
0
0
VERTEX
8
RASTER
10
265.811
20
25.228
30
0
0
VERTEX
8
RASTER
10
265.834
20
25.257
30
0
0
VERTEX
8
RASTER
10
265.85
20
25.292
30
0
0
VERTEX
8
RASTER
10
265.86
20
25.334
30
0
0
VERTEX
8
RASTER
10
265.863
20
25.382
30
0
0
VERTEX
8
RASTER
10
265.863
20
26.618
30
0
0
VERTEX
8
RASTER
10
265.86
20
26.666
30
0
0
VERTEX
8
RASTER
10
265.85
20
26.708
30
0
0
VERTEX
8
RASTER
10
265.834
20
26.743
30
0
0
VERTEX
8
RASTER
10
265.811
20
26.772
30
0
0
VERTEX
8
RASTER
10
265.782
20
26.795
30
0
0
VERTEX
8
RASTER
10
265.747
20
26.811
30
0
0
VERTEX
8
RASTER
10
265.705
20
26.82
30
0
0
VERTEX
8
RASTER
10
265.657
20
26.824
30
0
0
VERTEX
8
RASTER
10
264.421
20
26.824
30
0
0
VERTEX
8
RASTER
10
264.373
20
26.82
30
0
0
VERTEX
8
RASTER
10
264.331
20
26.811
30
0
0
VERTEX
8
RASTER
10
264.296
20
26.795
30
0
0
VERTEX
8
RASTER
10
264.267
20
26.772
30
0
0
VERTEX
8
RASTER
10
264.244
20
26.743
30
0
0
VERTEX
8
RASTER
10
264.228
20
26.708
30
0
0
VERTEX
8
RASTER
10
264.219
20
26.666
30
0
0
VERTEX
8
RASTER
10
264.215
20
26.618
30
0
0
SEQEND
8
RASTER
0
POLYLINE
8
RASTER
66
1
70
1
0
VERTEX
8
RASTER
10
266.137
20
26.618
30
0
0
VERTEX
8
RASTER
10
266.137
20
25.382
30
0
0
VERTEX
8
RASTER
10
266.14
20
25.334
30
0
0
VERTEX
8
RASTER
10
266.15
20
25.292
30
0
0
VERTEX
8
RASTER
10
266.166
20
25.257
30
0
0
VERTEX
8
RASTER
10
266.189
20
25.228
30
0
0
VERTEX
8
RASTER
10
266.218
20
25.205
30
0
0
VERTEX
8
RASTER
10
266.253
20
25.189
30
0
0
VERTEX
8
RASTER
10
266.295
20
25.18
30
0
0
VERTEX
8
RASTER
10
266.343
20
25.176
30
0
0
VERTEX
8
RASTER
10
267.579
20
25.176
30
0
0
VERTEX
8
RASTER
10
267.627
20
25.18
30
0
0
VERTEX
8
RASTER
10
267.669
20
25.189
30
0
0
VERTEX
8
RASTER
10
267.704
20
25.205
30
0
0
VERTEX
8
RASTER
10
267.733
20
25.228
30
0
0
VERTEX
8
RASTER
10
267.756
20
25.257
30
0
0
VERTEX
8
RASTER
10
267.772
20
25.292
30
0
0
VERTEX
8
RASTER
10
267.781
20
25.334
30
0
0
VERTEX
8
RASTER
10
267.785
20
25.382
30
0
0
VERTEX
8
RASTER
10
267.785
20
26.618
30
0
0
VERTEX
8
RASTER
10
267.781
20
26.666
30
0
0
VERTEX
8
RASTER
10
267.772
20
26.708
30
0
0
VERTEX
8
RASTER
10
267.756
20
26.743
30
0
0
VERTEX
8
RASTER
10
267.733
20
26.772
30
0
0
VERTEX
8
RASTER
10
267.704
20
26.795
30
0
0
VERTEX
8
RASTER
10
267.669
20
26.811
30
0
0
VERTEX
8
RASTER
10
267.627
20
26.82
30
0
0
VERTEX
8
RASTER
10
267.579
20
26.824
30
0
0
VERTEX
8
RASTER
10
266.343
20
26.824
30
0
0
VERTEX
8
RASTER
10
266.295
20
26.82
30
0
0
VERTEX
8
RASTER
10
266.253
20
26.811
30
0
0
VERTEX
8
RASTER
10
266.218
20
26.795
30
0
0
VERTEX
8
RASTER
10
266.189
20
26.772
30
0
0
VERTEX
8
RASTER
10
266.166
20
26.743
30
0
0
VERTEX
8
RASTER
10
266.15
20
26.708
30
0
0
VERTEX
8
RASTER
10
266.14
20
26.666
30
0
0
VERTEX
8
RASTER
10
266.137
20
26.618
30
0
0
SEQEND
8
RASTER
0
POLYLINE
8
RASTER
66
1
70
1
0
VERTEX
8
RASTER
10
264.215
20
24.696
30
0
0
VERTEX
8
RASTER
10
264.215
20
23.46
30
0
0
VERTEX
8
RASTER
10
264.219
20
23.412
30
0
0
VERTEX
8
RASTER
10
264.228
20
23.37
30
0
0
VERTEX
8
RASTER
10
264.244
20
23.335
30
0
0
VERTEX
8
RASTER
10
264.267
20
23.306
30
0
0
VERTEX
8
RASTER
10
264.296
20
23.283
30
0
0
VERTEX
8
RASTER
10
264.331
20
23.267
30
0
0
VERTEX
8
RASTER
10
264.373
20
23.258
30
0
0
VERTEX
8
RASTER
10
264.421
20
23.254
30
0
0
VERTEX
8
RASTER
10
265.657
20
23.254
30
0
0
VERTEX
8
RASTER
10
265.705
20
23.258
30
0
0
VERTEX
8
RASTER
10
265.747
20
23.267
30
0
0
VERTEX
8
RASTER
10
265.782
20
23.283
30
0
0
VERTEX
8
RASTER
10
265.811
20
23.306
30
0
0
VERTEX
8
RASTER
10
265.834
20
23.335
30
0
0
VERTEX
8
RASTER
10
265.85
20
23.37
30
0
0
VERTEX
8
RASTER
10
265.86
20
23.412
30
0
0
VERTEX
8
RASTER
10
265.863
20
23.46
30
0
0
VERTEX
8
RASTER
10
265.863
20
24.696
30
0
0
VERTEX
8
RASTER
10
265.86
20
24.744
30
0
0
VERTEX
8
RASTER
10
265.85
20
24.786
30
0
0
VERTEX
8
RASTER
10
265.834
20
24.821
30
0
0
VERTEX
8
RASTER
10
265.811
20
24.85
30
0
0
VERTEX
8
RASTER
10
265.782
20
24.873
30
0
0
VERTEX
8
RASTER
10
265.747
20
24.889
30
0
0
VERTEX
8
RASTER
10
265.705
20
24.899
30
0
0
VERTEX
8
RASTER
10
265.657
20
24.902
30
0
0
VERTEX
8
RASTER
10
264.421
20
24.902
30
0
0
VERTEX
8
RASTER
10
264.373
20
24.899
30
0
0
VERTEX
8
RASTER
10
264.331
20
24.889
30
0
0
VERTEX
8
RASTER
10
264.296
20
24.873
30
0
0
VERTEX
8
RASTER
10
264.267
20
24.85
30
0
0
VERTEX
8
RASTER
10
264.244
20
24.821
30
0
0
VERTEX
8
RASTER
10
264.228
20
24.786
30
0
0
VERTEX
8
RASTER
10
264.219
20
24.744
30
0
0
VERTEX
8
RASTER
10
264.215
20
24.696
30
0
0
SEQEND
8
RASTER
0
POLYLINE
8
RASTER
66
1
70
1
0
VERTEX
8
RASTER
10
266.137
20
24.696
30
0
0
VERTEX
8
RASTER
10
266.137
20
23.46
30
0
0
VERTEX
8
RASTER
10
266.14
20
23.412
30
0
0
VERTEX
8
RASTER
10
266.15
20
23.37
30
0
0
VERTEX
8
RASTER
10
266.166
20
23.335
30
0
0
VERTEX
8
RASTER
10
266.189
20
23.306
30
0
0
VERTEX
8
RASTER
10
266.218
20
23.283
30
0
0
VERTEX
8
RASTER
10
266.253
20
23.267
30
0
0
VERTEX
8
RASTER
10
266.295
20
23.258
30
0
0
VERTEX
8
RASTER
10
266.343
20
23.254
30
0
0
VERTEX
8
RASTER
10
267.579
20
23.254
30
0
0
VERTEX
8
RASTER
10
267.627
20
23.258
30
0
0
VERTEX
8
RASTER
10
267.669
20
23.267
30
0
0
VERTEX
8
RASTER
10
267.704
20
23.283
30
0
0
VERTEX
8
RASTER
10
267.733
20
23.306
30
0
0
VERTEX
8
RASTER
10
267.756
20
23.335
30
0
0
VERTEX
8
RASTER
10
267.772
20
23.37
30
0
0
VERTEX
8
RASTER
10
267.781
20
23.412
30
0
0
VERTEX
8
RASTER
10
267.785
20
23.46
30
0
0
VERTEX
8
RASTER
10
267.785
20
24.696
30
0
0
VERTEX
8
RASTER
10
267.781
20
24.744
30
0
0
VERTEX
8
RASTER
10
267.772
20
24.786
30
0
0
VERTEX
8
RASTER
10
267.756
20
24.821
30
0
0
VERTEX
8
RASTER
10
267.733
20
24.85
30
0
0
VERTEX
8
RASTER
10
267.704
20
24.873
30
0
0
VERTEX
8
RASTER
10
267.669
20
24.889
30
0
0
VERTEX
8
RASTER
10
267.627
20
24.899
30
0
0
VERTEX
8
RASTER
10
267.579
20
24.902
30
0
0
VERTEX
8
RASTER
10
266.343
20
24.902
30
0
0
VERTEX
8
RASTER
10
266.295
20
24.899
30
0
0
VERTEX
8
RASTER
10
266.253
20
24.889
30
0
0
VERTEX
8
RASTER
10
266.218
20
24.873
30
0
0
VERTEX
8
RASTER
10
266.189
20
24.85
30
0
0
VERTEX
8
RASTER
10
266.166
20
24.821
30
0
0
VERTEX
8
RASTER
10
266.15
20
24.786
30
0
0
VERTEX
8
RASTER
10
266.14
20
24.744
30
0
0
VERTEX
8
RASTER
10
266.137
20
24.696
30
0
0
SEQEND
8
RASTER
0
CIRCLE
8
CUT
10
282
20
26
30
0
40
6
0
CIRCLE
8
RASTER
10
282
20
26
30
0
40
5.2
0
POLYLINE
8
RASTER
66
1
70
1
0
VERTEX
8
RASTER
10
280.215
20
28.54
30
0
0
VERTEX
8
RASTER
10
280.215
20
27.304
30
0
0
VERTEX
8
RASTER
10
280.219
20
27.256
30
0
0
VERTEX
8
RASTER
10
280.228
20
27.214
30
0
0
VERTEX
8
RASTER
10
280.244
20
27.179
30
0
0
VERTEX
8
RASTER
10
280.267
20
27.15
30
0
0
VERTEX
8
RASTER
10
280.296
20
27.127
30
0
0
VERTEX
8
RASTER
10
280.331
20
27.111
30
0
0
VERTEX
8
RASTER
10
280.373
20
27.101
30
0
0
VERTEX
8
RASTER
10
280.421
20
27.098
30
0
0
VERTEX
8
RASTER
10
281.657
20
27.098
30
0
0
VERTEX
8
RASTER
10
281.705
20
27.101
30
0
0
VERTEX
8
RASTER
10
281.747
20
27.111
30
0
0
VERTEX
8
RASTER
10
281.782
20
27.127
30
0
0
VERTEX
8
RASTER
10
281.811
20
27.15
30
0
0
VERTEX
8
RASTER
10
281.834
20
27.179
30
0
0
VERTEX
8
RASTER
10
281.85
20
27.214
30
0
0
VERTEX
8
RASTER
10
281.86
20
27.256
30
0
0
VERTEX
8
RASTER
10
281.863
20
27.304
30
0
0
VERTEX
8
RASTER
10
281.863
20
28.54
30
0
0
VERTEX
8
RASTER
10
281.86
20
28.588
30
0
0
VERTEX
8
RASTER
10
281.85
20
28.63
30
0
0
VERTEX
8
RASTER
10
281.834
20
28.665
30
0
0
VERTEX
8
RASTER
10
281.811
20
28.694
30
0
0
VERTEX
8
RASTER
10
281.782
20
28.717
30
0
0
VERTEX
8
RASTER
10
281.747
20
28.733
30
0
0
VERTEX
8
RASTER
10
281.705
20
28.742
30
0
0
VERTEX
8
RASTER
10
281.657
20
28.746
30
0
0
VERTEX
8
RASTER
10
280.421
20
28.746
30
0
0
VERTEX
8
RASTER
10
280.373
20
28.742
30
0
0
VERTEX
8
RASTER
10
280.331
20
28.733
30
0
0
VERTEX
8
RASTER
10
280.296
20
28.717
30
0
0
VERTEX
8
RASTER
10
280.267
20
28.694
30
0
0
VERTEX
8
RASTER
10
280.244
20
28.665
30
0
0
VERTEX
8
RASTER
10
280.228
20
28.63
30
0
0
VERTEX
8
RASTER
10
280.219
20
28.588
30
0
0
VERTEX
8
RASTER
10
280.215
20
28.54
30
0
0
SEQEND
8
RASTER
0
POLYLINE
8
RASTER
66
1
70
1
0
VERTEX
8
RASTER
10
282.137
20
28.54
30
0
0
VERTEX
8
RASTER
10
282.137
20
27.304
30
0
0
VERTEX
8
RASTER
10
282.14
20
27.256
30
0
0
VERTEX
8
RASTER
10
282.15
20
27.214
30
0
0
VERTEX
8
RASTER
10
282.166
20
27.179
30
0
0
VERTEX
8
RASTER
10
282.189
20
27.15
30
0
0
VERTEX
8
RASTER
10
282.218
20
27.127
30
0
0
VERTEX
8
RASTER
10
282.253
20
27.111
30
0
0
VERTEX
8
RASTER
10
282.295
20
27.101
30
0
0
VERTEX
8
RASTER
10
282.343
20
27.098
30
0
0
VERTEX
8
RASTER
10
283.579
20
27.098
30
0
0
VERTEX
8
RASTER
10
283.627
20
27.101
30
0
0
VERTEX
8
RASTER
10
283.669
20
27.111
30
0
0
VERTEX
8
RASTER
10
283.704
20
27.127
30
0
0
VERTEX
8
RASTER
10
283.733
20
27.15
30
0
0
VERTEX
8
RASTER
10
283.756
20
27.179
30
0
0
VERTEX
8
RASTER
10
283.772
20
27.214
30
0
0
VERTEX
8
RASTER
10
283.781
20
27.256
30
0
0
VERTEX
8
RASTER
10
283.785
20
27.304
30
0
0
VERTEX
8
RASTER
10
283.785
20
28.54
30
0
0
VERTEX
8
RASTER
10
283.781
20
28.588
30
0
0
VERTEX
8
RASTER
10
283.772
20
28.63
30
0
0
VERTEX
8
RASTER
10
283.756
20
28.665
30
0
0
VERTEX
8
RASTER
10
283.733
20
28.694
30
0
0
VERTEX
8
RASTER
10
283.704
20
28.717
30
0
0
VERTEX
8
RASTER
10
283.669
20
28.733
30
0
0
VERTEX
8
RASTER
10
283.627
20
28.742
30
0
0
VERTEX
8
RASTER
10
283.579
20
28.746
30
0
0
VERTEX
8
RASTER
10
282.343
20
28.746
30
0
0
VERTEX
8
RASTER
10
282.295
20
28.742
30
0
0
VERTEX
8
RASTER
10
282.253
20
28.733
30
0
0
VERTEX
8
RASTER
10
282.218
20
28.717
30
0
0
VERTEX
8
RASTER
10
282.189
20
28.694
30
0
0
VERTEX
8
RASTER
10
282.166
20
28.665
30
0
0
VERTEX
8
RASTER
10
282.15
20
28.63
30
0
0
VERTEX
8
RASTER
10
282.14
20
28.588
30
0
0
VERTEX
8
RASTER
10
282.137
20
28.54
30
0
0
SEQEND
8
RASTER
0
POLYLINE
8
RASTER
66
1
70
1
0
VERTEX
8
RASTER
10
280.215
20
26.618
30
0
0
VERTEX
8
RASTER
10
280.215
20
25.382
30
0
0
VERTEX
8
RASTER
10
280.219
20
25.334
30
0
0
VERTEX
8
RASTER
10
280.228
20
25.292
30
0
0
VERTEX
8
RASTER
10
280.244
20
25.257
30
0
0
VERTEX
8
RASTER
10
280.267
20
25.228
30
0
0
VERTEX
8
RASTER
10
280.296
20
25.205
30
0
0
VERTEX
8
RASTER
10
280.331
20
25.189
30
0
0
VERTEX
8
RASTER
10
280.373
20
25.18
30
0
0
VERTEX
8
RASTER
10
280.421
20
25.176
30
0
0
VERTEX
8
RASTER
10
281.657
20
25.176
30
0
0
VERTEX
8
RASTER
10
281.705
20
25.18
30
0
0
VERTEX
8
RASTER
10
281.747
20
25.189
30
0
0
VERTEX
8
RASTER
10
281.782
20
25.205
30
0
0
VERTEX
8
RASTER
10
281.811
20
25.228
30
0
0
VERTEX
8
RASTER
10
281.834
20
25.257
30
0
0
VERTEX
8
RASTER
10
281.85
20
25.292
30
0
0
VERTEX
8
RASTER
10
281.86
20
25.334
30
0
0
VERTEX
8
RASTER
10
281.863
20
25.382
30
0
0
VERTEX
8
RASTER
10
281.863
20
26.618
30
0
0
VERTEX
8
RASTER
10
281.86
20
26.666
30
0
0
VERTEX
8
RASTER
10
281.85
20
26.708
30
0
0
VERTEX
8
RASTER
10
281.834
20
26.743
30
0
0
VERTEX
8
RASTER
10
281.811
20
26.772
30
0
0
VERTEX
8
RASTER
10
281.782
20
26.795
30
0
0
VERTEX
8
RASTER
10
281.747
20
26.811
30
0
0
VERTEX
8
RASTER
10
281.705
20
26.82
30
0
0
VERTEX
8
RASTER
10
281.657
20
26.824
30
0
0
VERTEX
8
RASTER
10
280.421
20
26.824
30
0
0
VERTEX
8
RASTER
10
280.373
20
26.82
30
0
0
VERTEX
8
RASTER
10
280.331
20
26.811
30
0
0
VERTEX
8
RASTER
10
280.296
20
26.795
30
0
0
VERTEX
8
RASTER
10
280.267
20
26.772
30
0
0
VERTEX
8
RASTER
10
280.244
20
26.743
30
0
0
VERTEX
8
RASTER
10
280.228
20
26.708
30
0
0
VERTEX
8
RASTER
10
280.219
20
26.666
30
0
0
VERTEX
8
RASTER
10
280.215
20
26.618
30
0
0
SEQEND
8
RASTER
0
POLYLINE
8
RASTER
66
1
70
1
0
VERTEX
8
RASTER
10
282.137
20
26.618
30
0
0
VERTEX
8
RASTER
10
282.137
20
25.382
30
0
0
VERTEX
8
RASTER
10
282.14
20
25.334
30
0
0
VERTEX
8
RASTER
10
282.15
20
25.292
30
0
0
VERTEX
8
RASTER
10
282.166
20
25.257
30
0
0
VERTEX
8
RASTER
10
282.189
20
25.228
30
0
0
VERTEX
8
RASTER
10
282.218
20
25.205
30
0
0
VERTEX
8
RASTER
10
282.253
20
25.189
30
0
0
VERTEX
8
RASTER
10
282.295
20
25.18
30
0
0
VERTEX
8
RASTER
10
282.343
20
25.176
30
0
0
VERTEX
8
RASTER
10
283.579
20
25.176
30
0
0
VERTEX
8
RASTER
10
283.627
20
25.18
30
0
0
VERTEX
8
RASTER
10
283.669
20
25.189
30
0
0
VERTEX
8
RASTER
10
283.704
20
25.205
30
0
0
VERTEX
8
RASTER
10
283.733
20
25.228
30
0
0
VERTEX
8
RASTER
10
283.756
20
25.257
30
0
0
VERTEX
8
RASTER
10
283.772
20
25.292
30
0
0
VERTEX
8
RASTER
10
283.781
20
25.334
30
0
0
VERTEX
8
RASTER
10
283.785
20
25.382
30
0
0
VERTEX
8
RASTER
10
283.785
20
26.618
30
0
0
VERTEX
8
RASTER
10
283.781
20
26.666
30
0
0
VERTEX
8
RASTER
10
283.772
20
26.708
30
0
0
VERTEX
8
RASTER
10
283.756
20
26.743
30
0
0
VERTEX
8
RASTER
10
283.733
20
26.772
30
0
0
VERTEX
8
RASTER
10
283.704
20
26.795
30
0
0
VERTEX
8
RASTER
10
283.669
20
26.811
30
0
0
VERTEX
8
RASTER
10
283.627
20
26.82
30
0
0
VERTEX
8
RASTER
10
283.579
20
26.824
30
0
0
VERTEX
8
RASTER
10
282.343
20
26.824
30
0
0
VERTEX
8
RASTER
10
282.295
20
26.82
30
0
0
VERTEX
8
RASTER
10
282.253
20
26.811
30
0
0
VERTEX
8
RASTER
10
282.218
20
26.795
30
0
0
VERTEX
8
RASTER
10
282.189
20
26.772
30
0
0
VERTEX
8
RASTER
10
282.166
20
26.743
30
0
0
VERTEX
8
RASTER
10
282.15
20
26.708
30
0
0
VERTEX
8
RASTER
10
282.14
20
26.666
30
0
0
VERTEX
8
RASTER
10
282.137
20
26.618
30
0
0
SEQEND
8
RASTER
0
POLYLINE
8
RASTER
66
1
70
1
0
VERTEX
8
RASTER
10
280.215
20
24.696
30
0
0
VERTEX
8
RASTER
10
280.215
20
23.46
30
0
0
VERTEX
8
RASTER
10
280.219
20
23.412
30
0
0
VERTEX
8
RASTER
10
280.228
20
23.37
30
0
0
VERTEX
8
RASTER
10
280.244
20
23.335
30
0
0
VERTEX
8
RASTER
10
280.267
20
23.306
30
0
0
VERTEX
8
RASTER
10
280.296
20
23.283
30
0
0
VERTEX
8
RASTER
10
280.331
20
23.267
30
0
0
VERTEX
8
RASTER
10
280.373
20
23.258
30
0
0
VERTEX
8
RASTER
10
280.421
20
23.254
30
0
0
VERTEX
8
RASTER
10
281.657
20
23.254
30
0
0
VERTEX
8
RASTER
10
281.705
20
23.258
30
0
0
VERTEX
8
RASTER
10
281.747
20
23.267
30
0
0
VERTEX
8
RASTER
10
281.782
20
23.283
30
0
0
VERTEX
8
RASTER
10
281.811
20
23.306
30
0
0
VERTEX
8
RASTER
10
281.834
20
23.335
30
0
0
VERTEX
8
RASTER
10
281.85
20
23.37
30
0
0
VERTEX
8
RASTER
10
281.86
20
23.412
30
0
0
VERTEX
8
RASTER
10
281.863
20
23.46
30
0
0
VERTEX
8
RASTER
10
281.863
20
24.696
30
0
0
VERTEX
8
RASTER
10
281.86
20
24.744
30
0
0
VERTEX
8
RASTER
10
281.85
20
24.786
30
0
0
VERTEX
8
RASTER
10
281.834
20
24.821
30
0
0
VERTEX
8
RASTER
10
281.811
20
24.85
30
0
0
VERTEX
8
RASTER
10
281.782
20
24.873
30
0
0
VERTEX
8
RASTER
10
281.747
20
24.889
30
0
0
VERTEX
8
RASTER
10
281.705
20
24.899
30
0
0
VERTEX
8
RASTER
10
281.657
20
24.902
30
0
0
VERTEX
8
RASTER
10
280.421
20
24.902
30
0
0
VERTEX
8
RASTER
10
280.373
20
24.899
30
0
0
VERTEX
8
RASTER
10
280.331
20
24.889
30
0
0
VERTEX
8
RASTER
10
280.296
20
24.873
30
0
0
VERTEX
8
RASTER
10
280.267
20
24.85
30
0
0
VERTEX
8
RASTER
10
280.244
20
24.821
30
0
0
VERTEX
8
RASTER
10
280.228
20
24.786
30
0
0
VERTEX
8
RASTER
10
280.219
20
24.744
30
0
0
VERTEX
8
RASTER
10
280.215
20
24.696
30
0
0
SEQEND
8
RASTER
0
POLYLINE
8
RASTER
66
1
70
1
0
VERTEX
8
RASTER
10
282.137
20
24.696
30
0
0
VERTEX
8
RASTER
10
282.137
20
23.46
30
0
0
VERTEX
8
RASTER
10
282.14
20
23.412
30
0
0
VERTEX
8
RASTER
10
282.15
20
23.37
30
0
0
VERTEX
8
RASTER
10
282.166
20
23.335
30
0
0
VERTEX
8
RASTER
10
282.189
20
23.306
30
0
0
VERTEX
8
RASTER
10
282.218
20
23.283
30
0
0
VERTEX
8
RASTER
10
282.253
20
23.267
30
0
0
VERTEX
8
RASTER
10
282.295
20
23.258
30
0
0
VERTEX
8
RASTER
10
282.343
20
23.254
30
0
0
VERTEX
8
RASTER
10
283.579
20
23.254
30
0
0
VERTEX
8
RASTER
10
283.627
20
23.258
30
0
0
VERTEX
8
RASTER
10
283.669
20
23.267
30
0
0
VERTEX
8
RASTER
10
283.704
20
23.283
30
0
0
VERTEX
8
RASTER
10
283.733
20
23.306
30
0
0
VERTEX
8
RASTER
10
283.756
20
23.335
30
0
0
VERTEX
8
RASTER
10
283.772
20
23.37
30
0
0
VERTEX
8
RASTER
10
283.781
20
23.412
30
0
0
VERTEX
8
RASTER
10
283.785
20
23.46
30
0
0
VERTEX
8
RASTER
10
283.785
20
24.696
30
0
0
VERTEX
8
RASTER
10
283.781
20
24.744
30
0
0
VERTEX
8
RASTER
10
283.772
20
24.786
30
0
0
VERTEX
8
RASTER
10
283.756
20
24.821
30
0
0
VERTEX
8
RASTER
10
283.733
20
24.85
30
0
0
VERTEX
8
RASTER
10
283.704
20
24.873
30
0
0
VERTEX
8
RASTER
10
283.669
20
24.889
30
0
0
VERTEX
8
RASTER
10
283.627
20
24.899
30
0
0
VERTEX
8
RASTER
10
283.579
20
24.902
30
0
0
VERTEX
8
RASTER
10
282.343
20
24.902
30
0
0
VERTEX
8
RASTER
10
282.295
20
24.899
30
0
0
VERTEX
8
RASTER
10
282.253
20
24.889
30
0
0
VERTEX
8
RASTER
10
282.218
20
24.873
30
0
0
VERTEX
8
RASTER
10
282.189
20
24.85
30
0
0
VERTEX
8
RASTER
10
282.166
20
24.821
30
0
0
VERTEX
8
RASTER
10
282.15
20
24.786
30
0
0
VERTEX
8
RASTER
10
282.14
20
24.744
30
0
0
VERTEX
8
RASTER
10
282.137
20
24.696
30
0
0
SEQEND
8
RASTER
0
CIRCLE
8
CUT
10
10
20
10
30
0
40
6
0
CIRCLE
8
RASTER
10
10
20
10
30
0
40
5.2
0
POLYLINE
8
RASTER
66
1
70
1
0
VERTEX
8
RASTER
10
8.215
20
12.54
30
0
0
VERTEX
8
RASTER
10
8.215
20
11.304
30
0
0
VERTEX
8
RASTER
10
8.219
20
11.256
30
0
0
VERTEX
8
RASTER
10
8.228
20
11.214
30
0
0
VERTEX
8
RASTER
10
8.244
20
11.179
30
0
0
VERTEX
8
RASTER
10
8.267
20
11.15
30
0
0
VERTEX
8
RASTER
10
8.296
20
11.127
30
0
0
VERTEX
8
RASTER
10
8.331
20
11.111
30
0
0
VERTEX
8
RASTER
10
8.373
20
11.101
30
0
0
VERTEX
8
RASTER
10
8.421
20
11.098
30
0
0
VERTEX
8
RASTER
10
9.657
20
11.098
30
0
0
VERTEX
8
RASTER
10
9.705
20
11.101
30
0
0
VERTEX
8
RASTER
10
9.747
20
11.111
30
0
0
VERTEX
8
RASTER
10
9.782
20
11.127
30
0
0
VERTEX
8
RASTER
10
9.811
20
11.15
30
0
0
VERTEX
8
RASTER
10
9.834
20
11.179
30
0
0
VERTEX
8
RASTER
10
9.85
20
11.214
30
0
0
VERTEX
8
RASTER
10
9.86
20
11.256
30
0
0
VERTEX
8
RASTER
10
9.863
20
11.304
30
0
0
VERTEX
8
RASTER
10
9.863
20
12.54
30
0
0
VERTEX
8
RASTER
10
9.86
20
12.588
30
0
0
VERTEX
8
RASTER
10
9.85
20
12.63
30
0
0
VERTEX
8
RASTER
10
9.834
20
12.665
30
0
0
VERTEX
8
RASTER
10
9.811
20
12.694
30
0
0
VERTEX
8
RASTER
10
9.782
20
12.717
30
0
0
VERTEX
8
RASTER
10
9.747
20
12.733
30
0
0
VERTEX
8
RASTER
10
9.705
20
12.742
30
0
0
VERTEX
8
RASTER
10
9.657
20
12.746
30
0
0
VERTEX
8
RASTER
10
8.421
20
12.746
30
0
0
VERTEX
8
RASTER
10
8.373
20
12.742
30
0
0
VERTEX
8
RASTER
10
8.331
20
12.733
30
0
0
VERTEX
8
RASTER
10
8.296
20
12.717
30
0
0
VERTEX
8
RASTER
10
8.267
20
12.694
30
0
0
VERTEX
8
RASTER
10
8.244
20
12.665
30
0
0
VERTEX
8
RASTER
10
8.228
20
12.63
30
0
0
VERTEX
8
RASTER
10
8.219
20
12.588
30
0
0
VERTEX
8
RASTER
10
8.215
20
12.54
30
0
0
SEQEND
8
RASTER
0
POLYLINE
8
RASTER
66
1
70
1
0
VERTEX
8
RASTER
10
10.137
20
12.54
30
0
0
VERTEX
8
RASTER
10
10.137
20
11.304
30
0
0
VERTEX
8
RASTER
10
10.14
20
11.256
30
0
0
VERTEX
8
RASTER
10
10.15
20
11.214
30
0
0
VERTEX
8
RASTER
10
10.166
20
11.179
30
0
0
VERTEX
8
RASTER
10
10.189
20
11.15
30
0
0
VERTEX
8
RASTER
10
10.218
20
11.127
30
0
0
VERTEX
8
RASTER
10
10.253
20
11.111
30
0
0
VERTEX
8
RASTER
10
10.295
20
11.101
30
0
0
VERTEX
8
RASTER
10
10.343
20
11.098
30
0
0
VERTEX
8
RASTER
10
11.579
20
11.098
30
0
0
VERTEX
8
RASTER
10
11.627
20
11.101
30
0
0
VERTEX
8
RASTER
10
11.669
20
11.111
30
0
0
VERTEX
8
RASTER
10
11.704
20
11.127
30
0
0
VERTEX
8
RASTER
10
11.733
20
11.15
30
0
0
VERTEX
8
RASTER
10
11.756
20
11.179
30
0
0
VERTEX
8
RASTER
10
11.772
20
11.214
30
0
0
VERTEX
8
RASTER
10
11.781
20
11.256
30
0
0
VERTEX
8
RASTER
10
11.785
20
11.304
30
0
0
VERTEX
8
RASTER
10
11.785
20
12.54
30
0
0
VERTEX
8
RASTER
10
11.781
20
12.588
30
0
0
VERTEX
8
RASTER
10
11.772
20
12.63
30
0
0
VERTEX
8
RASTER
10
11.756
20
12.665
30
0
0
VERTEX
8
RASTER
10
11.733
20
12.694
30
0
0
VERTEX
8
RASTER
10
11.704
20
12.717
30
0
0
VERTEX
8
RASTER
10
11.669
20
12.733
30
0
0
VERTEX
8
RASTER
10
11.627
20
12.742
30
0
0
VERTEX
8
RASTER
10
11.579
20
12.746
30
0
0
VERTEX
8
RASTER
10
10.343
20
12.746
30
0
0
VERTEX
8
RASTER
10
10.295
20
12.742
30
0
0
VERTEX
8
RASTER
10
10.253
20
12.733
30
0
0
VERTEX
8
RASTER
10
10.218
20
12.717
30
0
0
VERTEX
8
RASTER
10
10.189
20
12.694
30
0
0
VERTEX
8
RASTER
10
10.166
20
12.665
30
0
0
VERTEX
8
RASTER
10
10.15
20
12.63
30
0
0
VERTEX
8
RASTER
10
10.14
20
12.588
30
0
0
VERTEX
8
RASTER
10
10.137
20
12.54
30
0
0
SEQEND
8
RASTER
0
POLYLINE
8
RASTER
66
1
70
1
0
VERTEX
8
RASTER
10
8.215
20
10.618
30
0
0
VERTEX
8
RASTER
10
8.215
20
9.382
30
0
0
VERTEX
8
RASTER
10
8.219
20
9.334
30
0
0
VERTEX
8
RASTER
10
8.228
20
9.292
30
0
0
VERTEX
8
RASTER
10
8.244
20
9.257
30
0
0
VERTEX
8
RASTER
10
8.267
20
9.228
30
0
0
VERTEX
8
RASTER
10
8.296
20
9.205
30
0
0
VERTEX
8
RASTER
10
8.331
20
9.189
30
0
0
VERTEX
8
RASTER
10
8.373
20
9.18
30
0
0
VERTEX
8
RASTER
10
8.421
20
9.176
30
0
0
VERTEX
8
RASTER
10
9.657
20
9.176
30
0
0
VERTEX
8
RASTER
10
9.705
20
9.18
30
0
0
VERTEX
8
RASTER
10
9.747
20
9.189
30
0
0
VERTEX
8
RASTER
10
9.782
20
9.205
30
0
0
VERTEX
8
RASTER
10
9.811
20
9.228
30
0
0
VERTEX
8
RASTER
10
9.834
20
9.257
30
0
0
VERTEX
8
RASTER
10
9.85
20
9.292
30
0
0
VERTEX
8
RASTER
10
9.86
20
9.334
30
0
0
VERTEX
8
RASTER
10
9.863
20
9.382
30
0
0
VERTEX
8
RASTER
10
9.863
20
10.618
30
0
0
VERTEX
8
RASTER
10
9.86
20
10.666
30
0
0
VERTEX
8
RASTER
10
9.85
20
10.708
30
0
0
VERTEX
8
RASTER
10
9.834
20
10.743
30
0
0
VERTEX
8
RASTER
10
9.811
20
10.772
30
0
0
VERTEX
8
RASTER
10
9.782
20
10.795
30
0
0
VERTEX
8
RASTER
10
9.747
20
10.811
30
0
0
VERTEX
8
RASTER
10
9.705
20
10.82
30
0
0
VERTEX
8
RASTER
10
9.657
20
10.824
30
0
0
VERTEX
8
RASTER
10
8.421
20
10.824
30
0
0
VERTEX
8
RASTER
10
8.373
20
10.82
30
0
0
VERTEX
8
RASTER
10
8.331
20
10.811
30
0
0
VERTEX
8
RASTER
10
8.296
20
10.795
30
0
0
VERTEX
8
RASTER
10
8.267
20
10.772
30
0
0
VERTEX
8
RASTER
10
8.244
20
10.743
30
0
0
VERTEX
8
RASTER
10
8.228
20
10.708
30
0
0
VERTEX
8
RASTER
10
8.219
20
10.666
30
0
0
VERTEX
8
RASTER
10
8.215
20
10.618
30
0
0
SEQEND
8
RASTER
0
POLYLINE
8
RASTER
66
1
70
1
0
VERTEX
8
RASTER
10
10.137
20
10.618
30
0
0
VERTEX
8
RASTER
10
10.137
20
9.382
30
0
0
VERTEX
8
RASTER
10
10.14
20
9.334
30
0
0
VERTEX
8
RASTER
10
10.15
20
9.292
30
0
0
VERTEX
8
RASTER
10
10.166
20
9.257
30
0
0
VERTEX
8
RASTER
10
10.189
20
9.228
30
0
0
VERTEX
8
RASTER
10
10.218
20
9.205
30
0
0
VERTEX
8
RASTER
10
10.253
20
9.189
30
0
0
VERTEX
8
RASTER
10
10.295
20
9.18
30
0
0
VERTEX
8
RASTER
10
10.343
20
9.176
30
0
0
VERTEX
8
RASTER
10
11.579
20
9.176
30
0
0
VERTEX
8
RASTER
10
11.627
20
9.18
30
0
0
VERTEX
8
RASTER
10
11.669
20
9.189
30
0
0
VERTEX
8
RASTER
10
11.704
20
9.205
30
0
0
VERTEX
8
RASTER
10
11.733
20
9.228
30
0
0
VERTEX
8
RASTER
10
11.756
20
9.257
30
0
0
VERTEX
8
RASTER
10
11.772
20
9.292
30
0
0
VERTEX
8
RASTER
10
11.781
20
9.334
30
0
0
VERTEX
8
RASTER
10
11.785
20
9.382
30
0
0
VERTEX
8
RASTER
10
11.785
20
10.618
30
0
0
VERTEX
8
RASTER
10
11.781
20
10.666
30
0
0
VERTEX
8
RASTER
10
11.772
20
10.708
30
0
0
VERTEX
8
RASTER
10
11.756
20
10.743
30
0
0
VERTEX
8
RASTER
10
11.733
20
10.772
30
0
0
VERTEX
8
RASTER
10
11.704
20
10.795
30
0
0
VERTEX
8
RASTER
10
11.669
20
10.811
30
0
0
VERTEX
8
RASTER
10
11.627
20
10.82
30
0
0
VERTEX
8
RASTER
10
11.579
20
10.824
30
0
0
VERTEX
8
RASTER
10
10.343
20
10.824
30
0
0
VERTEX
8
RASTER
10
10.295
20
10.82
30
0
0
VERTEX
8
RASTER
10
10.253
20
10.811
30
0
0
VERTEX
8
RASTER
10
10.218
20
10.795
30
0
0
VERTEX
8
RASTER
10
10.189
20
10.772
30
0
0
VERTEX
8
RASTER
10
10.166
20
10.743
30
0
0
VERTEX
8
RASTER
10
10.15
20
10.708
30
0
0
VERTEX
8
RASTER
10
10.14
20
10.666
30
0
0
VERTEX
8
RASTER
10
10.137
20
10.618
30
0
0
SEQEND
8
RASTER
0
POLYLINE
8
RASTER
66
1
70
1
0
VERTEX
8
RASTER
10
8.215
20
8.696
30
0
0
VERTEX
8
RASTER
10
8.215
20
7.46
30
0
0
VERTEX
8
RASTER
10
8.219
20
7.412
30
0
0
VERTEX
8
RASTER
10
8.228
20
7.37
30
0
0
VERTEX
8
RASTER
10
8.244
20
7.335
30
0
0
VERTEX
8
RASTER
10
8.267
20
7.306
30
0
0
VERTEX
8
RASTER
10
8.296
20
7.283
30
0
0
VERTEX
8
RASTER
10
8.331
20
7.267
30
0
0
VERTEX
8
RASTER
10
8.373
20
7.258
30
0
0
VERTEX
8
RASTER
10
8.421
20
7.254
30
0
0
VERTEX
8
RASTER
10
9.657
20
7.254
30
0
0
VERTEX
8
RASTER
10
9.705
20
7.258
30
0
0
VERTEX
8
RASTER
10
9.747
20
7.267
30
0
0
VERTEX
8
RASTER
10
9.782
20
7.283
30
0
0
VERTEX
8
RASTER
10
9.811
20
7.306
30
0
0
VERTEX
8
RASTER
10
9.834
20
7.335
30
0
0
VERTEX
8
RASTER
10
9.85
20
7.37
30
0
0
VERTEX
8
RASTER
10
9.86
20
7.412
30
0
0
VERTEX
8
RASTER
10
9.863
20
7.46
30
0
0
VERTEX
8
RASTER
10
9.863
20
8.696
30
0
0
VERTEX
8
RASTER
10
9.86
20
8.744
30
0
0
VERTEX
8
RASTER
10
9.85
20
8.786
30
0
0
VERTEX
8
RASTER
10
9.834
20
8.821
30
0
0
VERTEX
8
RASTER
10
9.811
20
8.85
30
0
0
VERTEX
8
RASTER
10
9.782
20
8.873
30
0
0
VERTEX
8
RASTER
10
9.747
20
8.889
30
0
0
VERTEX
8
RASTER
10
9.705
20
8.899
30
0
0
VERTEX
8
RASTER
10
9.657
20
8.902
30
0
0
VERTEX
8
RASTER
10
8.421
20
8.902
30
0
0
VERTEX
8
RASTER
10
8.373
20
8.899
30
0
0
VERTEX
8
RASTER
10
8.331
20
8.889
30
0
0
VERTEX
8
RASTER
10
8.296
20
8.873
30
0
0
VERTEX
8
RASTER
10
8.267
20
8.85
30
0
0
VERTEX
8
RASTER
10
8.244
20
8.821
30
0
0
VERTEX
8
RASTER
10
8.228
20
8.786
30
0
0
VERTEX
8
RASTER
10
8.219
20
8.744
30
0
0
VERTEX
8
RASTER
10
8.215
20
8.696
30
0
0
SEQEND
8
RASTER
0
POLYLINE
8
RASTER
66
1
70
1
0
VERTEX
8
RASTER
10
10.137
20
8.696
30
0
0
VERTEX
8
RASTER
10
10.137
20
7.46
30
0
0
VERTEX
8
RASTER
10
10.14
20
7.412
30
0
0
VERTEX
8
RASTER
10
10.15
20
7.37
30
0
0
VERTEX
8
RASTER
10
10.166
20
7.335
30
0
0
VERTEX
8
RASTER
10
10.189
20
7.306
30
0
0
VERTEX
8
RASTER
10
10.218
20
7.283
30
0
0
VERTEX
8
RASTER
10
10.253
20
7.267
30
0
0
VERTEX
8
RASTER
10
10.295
20
7.258
30
0
0
VERTEX
8
RASTER
10
10.343
20
7.254
30
0
0
VERTEX
8
RASTER
10
11.579
20
7.254
30
0
0
VERTEX
8
RASTER
10
11.627
20
7.258
30
0
0
VERTEX
8
RASTER
10
11.669
20
7.267
30
0
0
VERTEX
8
RASTER
10
11.704
20
7.283
30
0
0
VERTEX
8
RASTER
10
11.733
20
7.306
30
0
0
VERTEX
8
RASTER
10
11.756
20
7.335
30
0
0
VERTEX
8
RASTER
10
11.772
20
7.37
30
0
0
VERTEX
8
RASTER
10
11.781
20
7.412
30
0
0
VERTEX
8
RASTER
10
11.785
20
7.46
30
0
0
VERTEX
8
RASTER
10
11.785
20
8.696
30
0
0
VERTEX
8
RASTER
10
11.781
20
8.744
30
0
0
VERTEX
8
RASTER
10
11.772
20
8.786
30
0
0
VERTEX
8
RASTER
10
11.756
20
8.821
30
0
0
VERTEX
8
RASTER
10
11.733
20
8.85
30
0
0
VERTEX
8
RASTER
10
11.704
20
8.873
30
0
0
VERTEX
8
RASTER
10
11.669
20
8.889
30
0
0
VERTEX
8
RASTER
10
11.627
20
8.899
30
0
0
VERTEX
8
RASTER
10
11.579
20
8.902
30
0
0
VERTEX
8
RASTER
10
10.343
20
8.902
30
0
0
VERTEX
8
RASTER
10
10.295
20
8.899
30
0
0
VERTEX
8
RASTER
10
10.253
20
8.889
30
0
0
VERTEX
8
RASTER
10
10.218
20
8.873
30
0
0
VERTEX
8
RASTER
10
10.189
20
8.85
30
0
0
VERTEX
8
RASTER
10
10.166
20
8.821
30
0
0
VERTEX
8
RASTER
10
10.15
20
8.786
30
0
0
VERTEX
8
RASTER
10
10.14
20
8.744
30
0
0
VERTEX
8
RASTER
10
10.137
20
8.696
30
0
0
SEQEND
8
RASTER
0
CIRCLE
8
CUT
10
26
20
10
30
0
40
6
0
CIRCLE
8
RASTER
10
26
20
10
30
0
40
5.2
0
POLYLINE
8
RASTER
66
1
70
1
0
VERTEX
8
RASTER
10
24.215
20
12.54
30
0
0
VERTEX
8
RASTER
10
24.215
20
11.304
30
0
0
VERTEX
8
RASTER
10
24.219
20
11.256
30
0
0
VERTEX
8
RASTER
10
24.228
20
11.214
30
0
0
VERTEX
8
RASTER
10
24.244
20
11.179
30
0
0
VERTEX
8
RASTER
10
24.267
20
11.15
30
0
0
VERTEX
8
RASTER
10
24.296
20
11.127
30
0
0
VERTEX
8
RASTER
10
24.331
20
11.111
30
0
0
VERTEX
8
RASTER
10
24.373
20
11.101
30
0
0
VERTEX
8
RASTER
10
24.421
20
11.098
30
0
0
VERTEX
8
RASTER
10
25.657
20
11.098
30
0
0
VERTEX
8
RASTER
10
25.705
20
11.101
30
0
0
VERTEX
8
RASTER
10
25.747
20
11.111
30
0
0
VERTEX
8
RASTER
10
25.782
20
11.127
30
0
0
VERTEX
8
RASTER
10
25.811
20
11.15
30
0
0
VERTEX
8
RASTER
10
25.834
20
11.179
30
0
0
VERTEX
8
RASTER
10
25.85
20
11.214
30
0
0
VERTEX
8
RASTER
10
25.86
20
11.256
30
0
0
VERTEX
8
RASTER
10
25.863
20
11.304
30
0
0
VERTEX
8
RASTER
10
25.863
20
12.54
30
0
0
VERTEX
8
RASTER
10
25.86
20
12.588
30
0
0
VERTEX
8
RASTER
10
25.85
20
12.63
30
0
0
VERTEX
8
RASTER
10
25.834
20
12.665
30
0
0
VERTEX
8
RASTER
10
25.811
20
12.694
30
0
0
VERTEX
8
RASTER
10
25.782
20
12.717
30
0
0
VERTEX
8
RASTER
10
25.747
20
12.733
30
0
0
VERTEX
8
RASTER
10
25.705
20
12.742
30
0
0
VERTEX
8
RASTER
10
25.657
20
12.746
30
0
0
VERTEX
8
RASTER
10
24.421
20
12.746
30
0
0
VERTEX
8
RASTER
10
24.373
20
12.742
30
0
0
VERTEX
8
RASTER
10
24.331
20
12.733
30
0
0
VERTEX
8
RASTER
10
24.296
20
12.717
30
0
0
VERTEX
8
RASTER
10
24.267
20
12.694
30
0
0
VERTEX
8
RASTER
10
24.244
20
12.665
30
0
0
VERTEX
8
RASTER
10
24.228
20
12.63
30
0
0
VERTEX
8
RASTER
10
24.219
20
12.588
30
0
0
VERTEX
8
RASTER
10
24.215
20
12.54
30
0
0
SEQEND
8
RASTER
0
POLYLINE
8
RASTER
66
1
70
1
0
VERTEX
8
RASTER
10
26.137
20
12.54
30
0
0
VERTEX
8
RASTER
10
26.137
20
11.304
30
0
0
VERTEX
8
RASTER
10
26.14
20
11.256
30
0
0
VERTEX
8
RASTER
10
26.15
20
11.214
30
0
0
VERTEX
8
RASTER
10
26.166
20
11.179
30
0
0
VERTEX
8
RASTER
10
26.189
20
11.15
30
0
0
VERTEX
8
RASTER
10
26.218
20
11.127
30
0
0
VERTEX
8
RASTER
10
26.253
20
11.111
30
0
0
VERTEX
8
RASTER
10
26.295
20
11.101
30
0
0
VERTEX
8
RASTER
10
26.343
20
11.098
30
0
0
VERTEX
8
RASTER
10
27.579
20
11.098
30
0
0
VERTEX
8
RASTER
10
27.627
20
11.101
30
0
0
VERTEX
8
RASTER
10
27.669
20
11.111
30
0
0
VERTEX
8
RASTER
10
27.704
20
11.127
30
0
0
VERTEX
8
RASTER
10
27.733
20
11.15
30
0
0
VERTEX
8
RASTER
10
27.756
20
11.179
30
0
0
VERTEX
8
RASTER
10
27.772
20
11.214
30
0
0
VERTEX
8
RASTER
10
27.781
20
11.256
30
0
0
VERTEX
8
RASTER
10
27.785
20
11.304
30
0
0
VERTEX
8
RASTER
10
27.785
20
12.54
30
0
0
VERTEX
8
RASTER
10
27.781
20
12.588
30
0
0
VERTEX
8
RASTER
10
27.772
20
12.63
30
0
0
VERTEX
8
RASTER
10
27.756
20
12.665
30
0
0
VERTEX
8
RASTER
10
27.733
20
12.694
30
0
0
VERTEX
8
RASTER
10
27.704
20
12.717
30
0
0
VERTEX
8
RASTER
10
27.669
20
12.733
30
0
0
VERTEX
8
RASTER
10
27.627
20
12.742
30
0
0
VERTEX
8
RASTER
10
27.579
20
12.746
30
0
0
VERTEX
8
RASTER
10
26.343
20
12.746
30
0
0
VERTEX
8
RASTER
10
26.295
20
12.742
30
0
0
VERTEX
8
RASTER
10
26.253
20
12.733
30
0
0
VERTEX
8
RASTER
10
26.218
20
12.717
30
0
0
VERTEX
8
RASTER
10
26.189
20
12.694
30
0
0
VERTEX
8
RASTER
10
26.166
20
12.665
30
0
0
VERTEX
8
RASTER
10
26.15
20
12.63
30
0
0
VERTEX
8
RASTER
10
26.14
20
12.588
30
0
0
VERTEX
8
RASTER
10
26.137
20
12.54
30
0
0
SEQEND
8
RASTER
0
POLYLINE
8
RASTER
66
1
70
1
0
VERTEX
8
RASTER
10
24.215
20
10.618
30
0
0
VERTEX
8
RASTER
10
24.215
20
9.382
30
0
0
VERTEX
8
RASTER
10
24.219
20
9.334
30
0
0
VERTEX
8
RASTER
10
24.228
20
9.292
30
0
0
VERTEX
8
RASTER
10
24.244
20
9.257
30
0
0
VERTEX
8
RASTER
10
24.267
20
9.228
30
0
0
VERTEX
8
RASTER
10
24.296
20
9.205
30
0
0
VERTEX
8
RASTER
10
24.331
20
9.189
30
0
0
VERTEX
8
RASTER
10
24.373
20
9.18
30
0
0
VERTEX
8
RASTER
10
24.421
20
9.176
30
0
0
VERTEX
8
RASTER
10
25.657
20
9.176
30
0
0
VERTEX
8
RASTER
10
25.705
20
9.18
30
0
0
VERTEX
8
RASTER
10
25.747
20
9.189
30
0
0
VERTEX
8
RASTER
10
25.782
20
9.205
30
0
0
VERTEX
8
RASTER
10
25.811
20
9.228
30
0
0
VERTEX
8
RASTER
10
25.834
20
9.257
30
0
0
VERTEX
8
RASTER
10
25.85
20
9.292
30
0
0
VERTEX
8
RASTER
10
25.86
20
9.334
30
0
0
VERTEX
8
RASTER
10
25.863
20
9.382
30
0
0
VERTEX
8
RASTER
10
25.863
20
10.618
30
0
0
VERTEX
8
RASTER
10
25.86
20
10.666
30
0
0
VERTEX
8
RASTER
10
25.85
20
10.708
30
0
0
VERTEX
8
RASTER
10
25.834
20
10.743
30
0
0
VERTEX
8
RASTER
10
25.811
20
10.772
30
0
0
VERTEX
8
RASTER
10
25.782
20
10.795
30
0
0
VERTEX
8
RASTER
10
25.747
20
10.811
30
0
0
VERTEX
8
RASTER
10
25.705
20
10.82
30
0
0
VERTEX
8
RASTER
10
25.657
20
10.824
30
0
0
VERTEX
8
RASTER
10
24.421
20
10.824
30
0
0
VERTEX
8
RASTER
10
24.373
20
10.82
30
0
0
VERTEX
8
RASTER
10
24.331
20
10.811
30
0
0
VERTEX
8
RASTER
10
24.296
20
10.795
30
0
0
VERTEX
8
RASTER
10
24.267
20
10.772
30
0
0
VERTEX
8
RASTER
10
24.244
20
10.743
30
0
0
VERTEX
8
RASTER
10
24.228
20
10.708
30
0
0
VERTEX
8
RASTER
10
24.219
20
10.666
30
0
0
VERTEX
8
RASTER
10
24.215
20
10.618
30
0
0
SEQEND
8
RASTER
0
POLYLINE
8
RASTER
66
1
70
1
0
VERTEX
8
RASTER
10
26.137
20
10.618
30
0
0
VERTEX
8
RASTER
10
26.137
20
9.382
30
0
0
VERTEX
8
RASTER
10
26.14
20
9.334
30
0
0
VERTEX
8
RASTER
10
26.15
20
9.292
30
0
0
VERTEX
8
RASTER
10
26.166
20
9.257
30
0
0
VERTEX
8
RASTER
10
26.189
20
9.228
30
0
0
VERTEX
8
RASTER
10
26.218
20
9.205
30
0
0
VERTEX
8
RASTER
10
26.253
20
9.189
30
0
0
VERTEX
8
RASTER
10
26.295
20
9.18
30
0
0
VERTEX
8
RASTER
10
26.343
20
9.176
30
0
0
VERTEX
8
RASTER
10
27.579
20
9.176
30
0
0
VERTEX
8
RASTER
10
27.627
20
9.18
30
0
0
VERTEX
8
RASTER
10
27.669
20
9.189
30
0
0
VERTEX
8
RASTER
10
27.704
20
9.205
30
0
0
VERTEX
8
RASTER
10
27.733
20
9.228
30
0
0
VERTEX
8
RASTER
10
27.756
20
9.257
30
0
0
VERTEX
8
RASTER
10
27.772
20
9.292
30
0
0
VERTEX
8
RASTER
10
27.781
20
9.334
30
0
0
VERTEX
8
RASTER
10
27.785
20
9.382
30
0
0
VERTEX
8
RASTER
10
27.785
20
10.618
30
0
0
VERTEX
8
RASTER
10
27.781
20
10.666
30
0
0
VERTEX
8
RASTER
10
27.772
20
10.708
30
0
0
VERTEX
8
RASTER
10
27.756
20
10.743
30
0
0
VERTEX
8
RASTER
10
27.733
20
10.772
30
0
0
VERTEX
8
RASTER
10
27.704
20
10.795
30
0
0
VERTEX
8
RASTER
10
27.669
20
10.811
30
0
0
VERTEX
8
RASTER
10
27.627
20
10.82
30
0
0
VERTEX
8
RASTER
10
27.579
20
10.824
30
0
0
VERTEX
8
RASTER
10
26.343
20
10.824
30
0
0
VERTEX
8
RASTER
10
26.295
20
10.82
30
0
0
VERTEX
8
RASTER
10
26.253
20
10.811
30
0
0
VERTEX
8
RASTER
10
26.218
20
10.795
30
0
0
VERTEX
8
RASTER
10
26.189
20
10.772
30
0
0
VERTEX
8
RASTER
10
26.166
20
10.743
30
0
0
VERTEX
8
RASTER
10
26.15
20
10.708
30
0
0
VERTEX
8
RASTER
10
26.14
20
10.666
30
0
0
VERTEX
8
RASTER
10
26.137
20
10.618
30
0
0
SEQEND
8
RASTER
0
POLYLINE
8
RASTER
66
1
70
1
0
VERTEX
8
RASTER
10
24.215
20
8.696
30
0
0
VERTEX
8
RASTER
10
24.215
20
7.46
30
0
0
VERTEX
8
RASTER
10
24.219
20
7.412
30
0
0
VERTEX
8
RASTER
10
24.228
20
7.37
30
0
0
VERTEX
8
RASTER
10
24.244
20
7.335
30
0
0
VERTEX
8
RASTER
10
24.267
20
7.306
30
0
0
VERTEX
8
RASTER
10
24.296
20
7.283
30
0
0
VERTEX
8
RASTER
10
24.331
20
7.267
30
0
0
VERTEX
8
RASTER
10
24.373
20
7.258
30
0
0
VERTEX
8
RASTER
10
24.421
20
7.254
30
0
0
VERTEX
8
RASTER
10
25.657
20
7.254
30
0
0
VERTEX
8
RASTER
10
25.705
20
7.258
30
0
0
VERTEX
8
RASTER
10
25.747
20
7.267
30
0
0
VERTEX
8
RASTER
10
25.782
20
7.283
30
0
0
VERTEX
8
RASTER
10
25.811
20
7.306
30
0
0
VERTEX
8
RASTER
10
25.834
20
7.335
30
0
0
VERTEX
8
RASTER
10
25.85
20
7.37
30
0
0
VERTEX
8
RASTER
10
25.86
20
7.412
30
0
0
VERTEX
8
RASTER
10
25.863
20
7.46
30
0
0
VERTEX
8
RASTER
10
25.863
20
8.696
30
0
0
VERTEX
8
RASTER
10
25.86
20
8.744
30
0
0
VERTEX
8
RASTER
10
25.85
20
8.786
30
0
0
VERTEX
8
RASTER
10
25.834
20
8.821
30
0
0
VERTEX
8
RASTER
10
25.811
20
8.85
30
0
0
VERTEX
8
RASTER
10
25.782
20
8.873
30
0
0
VERTEX
8
RASTER
10
25.747
20
8.889
30
0
0
VERTEX
8
RASTER
10
25.705
20
8.899
30
0
0
VERTEX
8
RASTER
10
25.657
20
8.902
30
0
0
VERTEX
8
RASTER
10
24.421
20
8.902
30
0
0
VERTEX
8
RASTER
10
24.373
20
8.899
30
0
0
VERTEX
8
RASTER
10
24.331
20
8.889
30
0
0
VERTEX
8
RASTER
10
24.296
20
8.873
30
0
0
VERTEX
8
RASTER
10
24.267
20
8.85
30
0
0
VERTEX
8
RASTER
10
24.244
20
8.821
30
0
0
VERTEX
8
RASTER
10
24.228
20
8.786
30
0
0
VERTEX
8
RASTER
10
24.219
20
8.744
30
0
0
VERTEX
8
RASTER
10
24.215
20
8.696
30
0
0
SEQEND
8
RASTER
0
POLYLINE
8
RASTER
66
1
70
1
0
VERTEX
8
RASTER
10
26.137
20
8.696
30
0
0
VERTEX
8
RASTER
10
26.137
20
7.46
30
0
0
VERTEX
8
RASTER
10
26.14
20
7.412
30
0
0
VERTEX
8
RASTER
10
26.15
20
7.37
30
0
0
VERTEX
8
RASTER
10
26.166
20
7.335
30
0
0
VERTEX
8
RASTER
10
26.189
20
7.306
30
0
0
VERTEX
8
RASTER
10
26.218
20
7.283
30
0
0
VERTEX
8
RASTER
10
26.253
20
7.267
30
0
0
VERTEX
8
RASTER
10
26.295
20
7.258
30
0
0
VERTEX
8
RASTER
10
26.343
20
7.254
30
0
0
VERTEX
8
RASTER
10
27.579
20
7.254
30
0
0
VERTEX
8
RASTER
10
27.627
20
7.258
30
0
0
VERTEX
8
RASTER
10
27.669
20
7.267
30
0
0
VERTEX
8
RASTER
10
27.704
20
7.283
30
0
0
VERTEX
8
RASTER
10
27.733
20
7.306
30
0
0
VERTEX
8
RASTER
10
27.756
20
7.335
30
0
0
VERTEX
8
RASTER
10
27.772
20
7.37
30
0
0
VERTEX
8
RASTER
10
27.781
20
7.412
30
0
0
VERTEX
8
RASTER
10
27.785
20
7.46
30
0
0
VERTEX
8
RASTER
10
27.785
20
8.696
30
0
0
VERTEX
8
RASTER
10
27.781
20
8.744
30
0
0
VERTEX
8
RASTER
10
27.772
20
8.786
30
0
0
VERTEX
8
RASTER
10
27.756
20
8.821
30
0
0
VERTEX
8
RASTER
10
27.733
20
8.85
30
0
0
VERTEX
8
RASTER
10
27.704
20
8.873
30
0
0
VERTEX
8
RASTER
10
27.669
20
8.889
30
0
0
VERTEX
8
RASTER
10
27.627
20
8.899
30
0
0
VERTEX
8
RASTER
10
27.579
20
8.902
30
0
0
VERTEX
8
RASTER
10
26.343
20
8.902
30
0
0
VERTEX
8
RASTER
10
26.295
20
8.899
30
0
0
VERTEX
8
RASTER
10
26.253
20
8.889
30
0
0
VERTEX
8
RASTER
10
26.218
20
8.873
30
0
0
VERTEX
8
RASTER
10
26.189
20
8.85
30
0
0
VERTEX
8
RASTER
10
26.166
20
8.821
30
0
0
VERTEX
8
RASTER
10
26.15
20
8.786
30
0
0
VERTEX
8
RASTER
10
26.14
20
8.744
30
0
0
VERTEX
8
RASTER
10
26.137
20
8.696
30
0
0
SEQEND
8
RASTER
0
CIRCLE
8
CUT
10
42
20
10
30
0
40
6
0
CIRCLE
8
RASTER
10
42
20
10
30
0
40
5.2
0
POLYLINE
8
RASTER
66
1
70
1
0
VERTEX
8
RASTER
10
39.278
20
11.282
30
0
0
VERTEX
8
RASTER
10
41.749
20
7.002
30
0
0
VERTEX
8
RASTER
10
41.785
20
6.948
30
0
0
VERTEX
8
RASTER
10
41.824
20
6.907
30
0
0
VERTEX
8
RASTER
10
41.867
20
6.876
30
0
0
VERTEX
8
RASTER
10
41.912
20
6.858
30
0
0
VERTEX
8
RASTER
10
41.96
20
6.851
30
0
0
VERTEX
8
RASTER
10
42.012
20
6.856
30
0
0
VERTEX
8
RASTER
10
42.067
20
6.873
30
0
0
VERTEX
8
RASTER
10
42.124
20
6.902
30
0
0
VERTEX
8
RASTER
10
42.481
20
7.107
30
0
0
VERTEX
8
RASTER
10
42.535
20
7.143
30
0
0
VERTEX
8
RASTER
10
42.577
20
7.182
30
0
0
VERTEX
8
RASTER
10
42.607
20
7.225
30
0
0
VERTEX
8
RASTER
10
42.625
20
7.27
30
0
0
VERTEX
8
RASTER
10
42.632
20
7.318
30
0
0
VERTEX
8
RASTER
10
42.627
20
7.37
30
0
0
VERTEX
8
RASTER
10
42.61
20
7.425
30
0
0
VERTEX
8
RASTER
10
42.582
20
7.482
30
0
0
VERTEX
8
RASTER
10
40.111
20
11.762
30
0
0
VERTEX
8
RASTER
10
40.075
20
11.816
30
0
0
VERTEX
8
RASTER
10
40.036
20
11.858
30
0
0
VERTEX
8
RASTER
10
39.994
20
11.888
30
0
0
VERTEX
8
RASTER
10
39.948
20
11.906
30
0
0
VERTEX
8
RASTER
10
39.9
20
11.913
30
0
0
VERTEX
8
RASTER
10
39.848
20
11.908
30
0
0
VERTEX
8
RASTER
10
39.793
20
11.891
30
0
0
VERTEX
8
RASTER
10
39.736
20
11.863
30
0
0
VERTEX
8
RASTER
10
39.379
20
11.657
30
0
0
VERTEX
8
RASTER
10
39.325
20
11.621
30
0
0
VERTEX
8
RASTER
10
39.283
20
11.582
30
0
0
VERTEX
8
RASTER
10
39.253
20
11.54
30
0
0
VERTEX
8
RASTER
10
39.235
20
11.495
30
0
0
VERTEX
8
RASTER
10
39.228
20
11.446
30
0
0
VERTEX
8
RASTER
10
39.233
20
11.395
30
0
0
VERTEX
8
RASTER
10
39.25
20
11.34
30
0
0
VERTEX
8
RASTER
10
39.278
20
11.282
30
0
0
SEQEND
8
RASTER
0
POLYLINE
8
RASTER
66
1
70
1
0
VERTEX
8
RASTER
10
39.516
20
11.419
30
0
0
VERTEX
8
RASTER
10
39.873
20
11.625
30
0
0
VERTEX
8
RASTER
10
40.01
20
11.387
30
0
0
VERTEX
8
RASTER
10
39.653
20
11.181
30
0
0
VERTEX
8
RASTER
10
39.516
20
11.419
30
0
0
SEQEND
8
RASTER
0
POLYLINE
8
RASTER
66
1
70
1
0
VERTEX
8
RASTER
10
41.85
20
7.377
30
0
0
VERTEX
8
RASTER
10
42.207
20
7.583
30
0
0
VERTEX
8
RASTER
10
42.344
20
7.345
30
0
0
VERTEX
8
RASTER
10
41.987
20
7.139
30
0
0
VERTEX
8
RASTER
10
41.85
20
7.377
30
0
0
SEQEND
8
RASTER
0
POLYLINE
8
RASTER
66
1
70
1
0
VERTEX
8
RASTER
10
40.348
20
11.9
30
0
0
VERTEX
8
RASTER
10
42.819
20
7.62
30
0
0
VERTEX
8
RASTER
10
42.855
20
7.566
30
0
0
VERTEX
8
RASTER
10
42.894
20
7.524
30
0
0
VERTEX
8
RASTER
10
42.937
20
7.494
30
0
0
VERTEX
8
RASTER
10
42.982
20
7.476
30
0
0
VERTEX
8
RASTER
10
43.03
20
7.469
30
0
0
VERTEX
8
RASTER
10
43.082
20
7.474
30
0
0
VERTEX
8
RASTER
10
43.137
20
7.491
30
0
0
VERTEX
8
RASTER
10
43.194
20
7.519
30
0
0
VERTEX
8
RASTER
10
43.551
20
7.725
30
0
0
VERTEX
8
RASTER
10
43.605
20
7.761
30
0
0
VERTEX
8
RASTER
10
43.647
20
7.8
30
0
0
VERTEX
8
RASTER
10
43.677
20
7.842
30
0
0
VERTEX
8
RASTER
10
43.695
20
7.888
30
0
0
VERTEX
8
RASTER
10
43.702
20
7.936
30
0
0
VERTEX
8
RASTER
10
43.697
20
7.988
30
0
0
VERTEX
8
RASTER
10
43.68
20
8.042
30
0
0
VERTEX
8
RASTER
10
43.652
20
8.1
30
0
0
VERTEX
8
RASTER
10
41.181
20
12.38
30
0
0
VERTEX
8
RASTER
10
41.145
20
12.434
30
0
0
VERTEX
8
RASTER
10
41.106
20
12.476
30
0
0
VERTEX
8
RASTER
10
41.063
20
12.506
30
0
0
VERTEX
8
RASTER
10
41.018
20
12.524
30
0
0
VERTEX
8
RASTER
10
40.97
20
12.531
30
0
0
VERTEX
8
RASTER
10
40.918
20
12.526
30
0
0
VERTEX
8
RASTER
10
40.863
20
12.509
30
0
0
VERTEX
8
RASTER
10
40.806
20
12.481
30
0
0
VERTEX
8
RASTER
10
40.449
20
12.275
30
0
0
VERTEX
8
RASTER
10
40.395
20
12.239
30
0
0
VERTEX
8
RASTER
10
40.353
20
12.2
30
0
0
VERTEX
8
RASTER
10
40.323
20
12.158
30
0
0
VERTEX
8
RASTER
10
40.305
20
12.112
30
0
0
VERTEX
8
RASTER
10
40.298
20
12.064
30
0
0
VERTEX
8
RASTER
10
40.303
20
12.012
30
0
0
VERTEX
8
RASTER
10
40.32
20
11.958
30
0
0
VERTEX
8
RASTER
10
40.348
20
11.9
30
0
0
SEQEND
8
RASTER
0
POLYLINE
8
RASTER
66
1
70
1
0
VERTEX
8
RASTER
10
40.586
20
12.037
30
0
0
VERTEX
8
RASTER
10
40.943
20
12.243
30
0
0
VERTEX
8
RASTER
10
41.08
20
12.005
30
0
0
VERTEX
8
RASTER
10
40.723
20
11.799
30
0
0
VERTEX
8
RASTER
10
40.586
20
12.037
30
0
0
SEQEND
8
RASTER
0
POLYLINE
8
RASTER
66
1
70
1
0
VERTEX
8
RASTER
10
42.92
20
7.995
30
0
0
VERTEX
8
RASTER
10
43.277
20
8.201
30
0
0
VERTEX
8
RASTER
10
43.414
20
7.963
30
0
0
VERTEX
8
RASTER
10
43.057
20
7.757
30
0
0
VERTEX
8
RASTER
10
42.92
20
7.995
30
0
0
SEQEND
8
RASTER
0
POLYLINE
8
RASTER
66
1
70
1
0
VERTEX
8
RASTER
10
41.418
20
12.518
30
0
0
VERTEX
8
RASTER
10
43.889
20
8.238
30
0
0
VERTEX
8
RASTER
10
43.925
20
8.184
30
0
0
VERTEX
8
RASTER
10
43.964
20
8.142
30
0
0
VERTEX
8
RASTER
10
44.006
20
8.112
30
0
0
VERTEX
8
RASTER
10
44.052
20
8.094
30
0
0
VERTEX
8
RASTER
10
44.1
20
8.087
30
0
0
VERTEX
8
RASTER
10
44.152
20
8.092
30
0
0
VERTEX
8
RASTER
10
44.207
20
8.109
30
0
0
VERTEX
8
RASTER
10
44.264
20
8.137
30
0
0
VERTEX
8
RASTER
10
44.621
20
8.343
30
0
0
VERTEX
8
RASTER
10
44.675
20
8.379
30
0
0
VERTEX
8
RASTER
10
44.717
20
8.418
30
0
0
VERTEX
8
RASTER
10
44.747
20
8.46
30
0
0
VERTEX
8
RASTER
10
44.765
20
8.505
30
0
0
VERTEX
8
RASTER
10
44.772
20
8.554
30
0
0
VERTEX
8
RASTER
10
44.767
20
8.605
30
0
0
VERTEX
8
RASTER
10
44.75
20
8.66
30
0
0
VERTEX
8
RASTER
10
44.722
20
8.718
30
0
0
VERTEX
8
RASTER
10
42.251
20
12.998
30
0
0
VERTEX
8
RASTER
10
42.215
20
13.052
30
0
0
VERTEX
8
RASTER
10
42.176
20
13.093
30
0
0
VERTEX
8
RASTER
10
42.133
20
13.124
30
0
0
VERTEX
8
RASTER
10
42.088
20
13.142
30
0
0
VERTEX
8
RASTER
10
42.04
20
13.149
30
0
0
VERTEX
8
RASTER
10
41.988
20
13.144
30
0
0
VERTEX
8
RASTER
10
41.933
20
13.127
30
0
0
VERTEX
8
RASTER
10
41.876
20
13.098
30
0
0
VERTEX
8
RASTER
10
41.519
20
12.893
30
0
0
VERTEX
8
RASTER
10
41.465
20
12.857
30
0
0
VERTEX
8
RASTER
10
41.423
20
12.818
30
0
0
VERTEX
8
RASTER
10
41.393
20
12.775
30
0
0
VERTEX
8
RASTER
10
41.375
20
12.73
30
0
0
VERTEX
8
RASTER
10
41.368
20
12.682
30
0
0
VERTEX
8
RASTER
10
41.373
20
12.63
30
0
0
VERTEX
8
RASTER
10
41.39
20
12.575
30
0
0
VERTEX
8
RASTER
10
41.418
20
12.518
30
0
0
SEQEND
8
RASTER
0
POLYLINE
8
RASTER
66
1
70
1
0
VERTEX
8
RASTER
10
41.656
20
12.655
30
0
0
VERTEX
8
RASTER
10
42.013
20
12.861
30
0
0
VERTEX
8
RASTER
10
42.15
20
12.623
30
0
0
VERTEX
8
RASTER
10
41.793
20
12.417
30
0
0
VERTEX
8
RASTER
10
41.656
20
12.655
30
0
0
SEQEND
8
RASTER
0
POLYLINE
8
RASTER
66
1
70
1
0
VERTEX
8
RASTER
10
43.99
20
8.613
30
0
0
VERTEX
8
RASTER
10
44.347
20
8.819
30
0
0
VERTEX
8
RASTER
10
44.484
20
8.581
30
0
0
VERTEX
8
RASTER
10
44.127
20
8.375
30
0
0
VERTEX
8
RASTER
10
43.99
20
8.613
30
0
0
SEQEND
8
RASTER
0
CIRCLE
8
CUT
10
58
20
10
30
0
40
6
0
CIRCLE
8
RASTER
10
58
20
10
30
0
40
5.2
0
POLYLINE
8
RASTER
66
1
70
1
0
VERTEX
8
RASTER
10
55.278
20
11.282
30
0
0
VERTEX
8
RASTER
10
57.749
20
7.002
30
0
0
VERTEX
8
RASTER
10
57.785
20
6.948
30
0
0
VERTEX
8
RASTER
10
57.824
20
6.907
30
0
0
VERTEX
8
RASTER
10
57.867
20
6.876
30
0
0
VERTEX
8
RASTER
10
57.912
20
6.858
30
0
0
VERTEX
8
RASTER
10
57.96
20
6.851
30
0
0
VERTEX
8
RASTER
10
58.012
20
6.856
30
0
0
VERTEX
8
RASTER
10
58.067
20
6.873
30
0
0
VERTEX
8
RASTER
10
58.124
20
6.902
30
0
0
VERTEX
8
RASTER
10
58.481
20
7.107
30
0
0
VERTEX
8
RASTER
10
58.535
20
7.143
30
0
0
VERTEX
8
RASTER
10
58.577
20
7.182
30
0
0
VERTEX
8
RASTER
10
58.607
20
7.225
30
0
0
VERTEX
8
RASTER
10
58.625
20
7.27
30
0
0
VERTEX
8
RASTER
10
58.632
20
7.318
30
0
0
VERTEX
8
RASTER
10
58.627
20
7.37
30
0
0
VERTEX
8
RASTER
10
58.61
20
7.425
30
0
0
VERTEX
8
RASTER
10
58.582
20
7.482
30
0
0
VERTEX
8
RASTER
10
56.111
20
11.762
30
0
0
VERTEX
8
RASTER
10
56.075
20
11.816
30
0
0
VERTEX
8
RASTER
10
56.036
20
11.858
30
0
0
VERTEX
8
RASTER
10
55.994
20
11.888
30
0
0
VERTEX
8
RASTER
10
55.948
20
11.906
30
0
0
VERTEX
8
RASTER
10
55.9
20
11.913
30
0
0
VERTEX
8
RASTER
10
55.848
20
11.908
30
0
0
VERTEX
8
RASTER
10
55.793
20
11.891
30
0
0
VERTEX
8
RASTER
10
55.736
20
11.863
30
0
0
VERTEX
8
RASTER
10
55.379
20
11.657
30
0
0
VERTEX
8
RASTER
10
55.325
20
11.621
30
0
0
VERTEX
8
RASTER
10
55.283
20
11.582
30
0
0
VERTEX
8
RASTER
10
55.253
20
11.54
30
0
0
VERTEX
8
RASTER
10
55.235
20
11.495
30
0
0
VERTEX
8
RASTER
10
55.228
20
11.446
30
0
0
VERTEX
8
RASTER
10
55.233
20
11.395
30
0
0
VERTEX
8
RASTER
10
55.25
20
11.34
30
0
0
VERTEX
8
RASTER
10
55.278
20
11.282
30
0
0
SEQEND
8
RASTER
0
POLYLINE
8
RASTER
66
1
70
1
0
VERTEX
8
RASTER
10
55.516
20
11.419
30
0
0
VERTEX
8
RASTER
10
55.873
20
11.625
30
0
0
VERTEX
8
RASTER
10
56.01
20
11.387
30
0
0
VERTEX
8
RASTER
10
55.653
20
11.181
30
0
0
VERTEX
8
RASTER
10
55.516
20
11.419
30
0
0
SEQEND
8
RASTER
0
POLYLINE
8
RASTER
66
1
70
1
0
VERTEX
8
RASTER
10
57.85
20
7.377
30
0
0
VERTEX
8
RASTER
10
58.207
20
7.583
30
0
0
VERTEX
8
RASTER
10
58.344
20
7.345
30
0
0
VERTEX
8
RASTER
10
57.987
20
7.139
30
0
0
VERTEX
8
RASTER
10
57.85
20
7.377
30
0
0
SEQEND
8
RASTER
0
POLYLINE
8
RASTER
66
1
70
1
0
VERTEX
8
RASTER
10
56.348
20
11.9
30
0
0
VERTEX
8
RASTER
10
58.819
20
7.62
30
0
0
VERTEX
8
RASTER
10
58.855
20
7.566
30
0
0
VERTEX
8
RASTER
10
58.894
20
7.524
30
0
0
VERTEX
8
RASTER
10
58.937
20
7.494
30
0
0
VERTEX
8
RASTER
10
58.982
20
7.476
30
0
0
VERTEX
8
RASTER
10
59.03
20
7.469
30
0
0
VERTEX
8
RASTER
10
59.082
20
7.474
30
0
0
VERTEX
8
RASTER
10
59.137
20
7.491
30
0
0
VERTEX
8
RASTER
10
59.194
20
7.519
30
0
0
VERTEX
8
RASTER
10
59.551
20
7.725
30
0
0
VERTEX
8
RASTER
10
59.605
20
7.761
30
0
0
VERTEX
8
RASTER
10
59.647
20
7.8
30
0
0
VERTEX
8
RASTER
10
59.677
20
7.842
30
0
0
VERTEX
8
RASTER
10
59.695
20
7.888
30
0
0
VERTEX
8
RASTER
10
59.702
20
7.936
30
0
0
VERTEX
8
RASTER
10
59.697
20
7.988
30
0
0
VERTEX
8
RASTER
10
59.68
20
8.042
30
0
0
VERTEX
8
RASTER
10
59.652
20
8.1
30
0
0
VERTEX
8
RASTER
10
57.181
20
12.38
30
0
0
VERTEX
8
RASTER
10
57.145
20
12.434
30
0
0
VERTEX
8
RASTER
10
57.106
20
12.476
30
0
0
VERTEX
8
RASTER
10
57.063
20
12.506
30
0
0
VERTEX
8
RASTER
10
57.018
20
12.524
30
0
0
VERTEX
8
RASTER
10
56.97
20
12.531
30
0
0
VERTEX
8
RASTER
10
56.918
20
12.526
30
0
0
VERTEX
8
RASTER
10
56.863
20
12.509
30
0
0
VERTEX
8
RASTER
10
56.806
20
12.481
30
0
0
VERTEX
8
RASTER
10
56.449
20
12.275
30
0
0
VERTEX
8
RASTER
10
56.395
20
12.239
30
0
0
VERTEX
8
RASTER
10
56.353
20
12.2
30
0
0
VERTEX
8
RASTER
10
56.323
20
12.158
30
0
0
VERTEX
8
RASTER
10
56.305
20
12.112
30
0
0
VERTEX
8
RASTER
10
56.298
20
12.064
30
0
0
VERTEX
8
RASTER
10
56.303
20
12.012
30
0
0
VERTEX
8
RASTER
10
56.32
20
11.958
30
0
0
VERTEX
8
RASTER
10
56.348
20
11.9
30
0
0
SEQEND
8
RASTER
0
POLYLINE
8
RASTER
66
1
70
1
0
VERTEX
8
RASTER
10
56.586
20
12.037
30
0
0
VERTEX
8
RASTER
10
56.943
20
12.243
30
0
0
VERTEX
8
RASTER
10
57.08
20
12.005
30
0
0
VERTEX
8
RASTER
10
56.723
20
11.799
30
0
0
VERTEX
8
RASTER
10
56.586
20
12.037
30
0
0
SEQEND
8
RASTER
0
POLYLINE
8
RASTER
66
1
70
1
0
VERTEX
8
RASTER
10
58.92
20
7.995
30
0
0
VERTEX
8
RASTER
10
59.277
20
8.201
30
0
0
VERTEX
8
RASTER
10
59.414
20
7.963
30
0
0
VERTEX
8
RASTER
10
59.057
20
7.757
30
0
0
VERTEX
8
RASTER
10
58.92
20
7.995
30
0
0
SEQEND
8
RASTER
0
POLYLINE
8
RASTER
66
1
70
1
0
VERTEX
8
RASTER
10
57.418
20
12.518
30
0
0
VERTEX
8
RASTER
10
59.889
20
8.238
30
0
0
VERTEX
8
RASTER
10
59.925
20
8.184
30
0
0
VERTEX
8
RASTER
10
59.964
20
8.142
30
0
0
VERTEX
8
RASTER
10
60.006
20
8.112
30
0
0
VERTEX
8
RASTER
10
60.052
20
8.094
30
0
0
VERTEX
8
RASTER
10
60.1
20
8.087
30
0
0
VERTEX
8
RASTER
10
60.152
20
8.092
30
0
0
VERTEX
8
RASTER
10
60.207
20
8.109
30
0
0
VERTEX
8
RASTER
10
60.264
20
8.137
30
0
0
VERTEX
8
RASTER
10
60.621
20
8.343
30
0
0
VERTEX
8
RASTER
10
60.675
20
8.379
30
0
0
VERTEX
8
RASTER
10
60.717
20
8.418
30
0
0
VERTEX
8
RASTER
10
60.747
20
8.46
30
0
0
VERTEX
8
RASTER
10
60.765
20
8.505
30
0
0
VERTEX
8
RASTER
10
60.772
20
8.554
30
0
0
VERTEX
8
RASTER
10
60.767
20
8.605
30
0
0
VERTEX
8
RASTER
10
60.75
20
8.66
30
0
0
VERTEX
8
RASTER
10
60.722
20
8.718
30
0
0
VERTEX
8
RASTER
10
58.251
20
12.998
30
0
0
VERTEX
8
RASTER
10
58.215
20
13.052
30
0
0
VERTEX
8
RASTER
10
58.176
20
13.093
30
0
0
VERTEX
8
RASTER
10
58.133
20
13.124
30
0
0
VERTEX
8
RASTER
10
58.088
20
13.142
30
0
0
VERTEX
8
RASTER
10
58.04
20
13.149
30
0
0
VERTEX
8
RASTER
10
57.988
20
13.144
30
0
0
VERTEX
8
RASTER
10
57.933
20
13.127
30
0
0
VERTEX
8
RASTER
10
57.876
20
13.098
30
0
0
VERTEX
8
RASTER
10
57.519
20
12.893
30
0
0
VERTEX
8
RASTER
10
57.465
20
12.857
30
0
0
VERTEX
8
RASTER
10
57.423
20
12.818
30
0
0
VERTEX
8
RASTER
10
57.393
20
12.775
30
0
0
VERTEX
8
RASTER
10
57.375
20
12.73
30
0
0
VERTEX
8
RASTER
10
57.368
20
12.682
30
0
0
VERTEX
8
RASTER
10
57.373
20
12.63
30
0
0
VERTEX
8
RASTER
10
57.39
20
12.575
30
0
0
VERTEX
8
RASTER
10
57.418
20
12.518
30
0
0
SEQEND
8
RASTER
0
POLYLINE
8
RASTER
66
1
70
1
0
VERTEX
8
RASTER
10
57.656
20
12.655
30
0
0
VERTEX
8
RASTER
10
58.013
20
12.861
30
0
0
VERTEX
8
RASTER
10
58.15
20
12.623
30
0
0
VERTEX
8
RASTER
10
57.793
20
12.417
30
0
0
VERTEX
8
RASTER
10
57.656
20
12.655
30
0
0
SEQEND
8
RASTER
0
POLYLINE
8
RASTER
66
1
70
1
0
VERTEX
8
RASTER
10
59.99
20
8.613
30
0
0
VERTEX
8
RASTER
10
60.347
20
8.819
30
0
0
VERTEX
8
RASTER
10
60.484
20
8.581
30
0
0
VERTEX
8
RASTER
10
60.127
20
8.375
30
0
0
VERTEX
8
RASTER
10
59.99
20
8.613
30
0
0
SEQEND
8
RASTER
0
CIRCLE
8
CUT
10
74
20
10
30
0
40
6
0
CIRCLE
8
RASTER
10
74
20
10
30
0
40
5.2
0
POLYLINE
8
RASTER
66
1
70
1
0
VERTEX
8
RASTER
10
71.278
20
11.282
30
0
0
VERTEX
8
RASTER
10
73.749
20
7.002
30
0
0
VERTEX
8
RASTER
10
73.785
20
6.948
30
0
0
VERTEX
8
RASTER
10
73.824
20
6.907
30
0
0
VERTEX
8
RASTER
10
73.867
20
6.876
30
0
0
VERTEX
8
RASTER
10
73.912
20
6.858
30
0
0
VERTEX
8
RASTER
10
73.96
20
6.851
30
0
0
VERTEX
8
RASTER
10
74.012
20
6.856
30
0
0
VERTEX
8
RASTER
10
74.067
20
6.873
30
0
0
VERTEX
8
RASTER
10
74.124
20
6.902
30
0
0
VERTEX
8
RASTER
10
74.481
20
7.107
30
0
0
VERTEX
8
RASTER
10
74.535
20
7.143
30
0
0
VERTEX
8
RASTER
10
74.577
20
7.182
30
0
0
VERTEX
8
RASTER
10
74.607
20
7.225
30
0
0
VERTEX
8
RASTER
10
74.625
20
7.27
30
0
0
VERTEX
8
RASTER
10
74.632
20
7.318
30
0
0
VERTEX
8
RASTER
10
74.627
20
7.37
30
0
0
VERTEX
8
RASTER
10
74.61
20
7.425
30
0
0
VERTEX
8
RASTER
10
74.582
20
7.482
30
0
0
VERTEX
8
RASTER
10
72.111
20
11.762
30
0
0
VERTEX
8
RASTER
10
72.075
20
11.816
30
0
0
VERTEX
8
RASTER
10
72.036
20
11.858
30
0
0
VERTEX
8
RASTER
10
71.994
20
11.888
30
0
0
VERTEX
8
RASTER
10
71.948
20
11.906
30
0
0
VERTEX
8
RASTER
10
71.9
20
11.913
30
0
0
VERTEX
8
RASTER
10
71.848
20
11.908
30
0
0
VERTEX
8
RASTER
10
71.793
20
11.891
30
0
0
VERTEX
8
RASTER
10
71.736
20
11.863
30
0
0
VERTEX
8
RASTER
10
71.379
20
11.657
30
0
0
VERTEX
8
RASTER
10
71.325
20
11.621
30
0
0
VERTEX
8
RASTER
10
71.283
20
11.582
30
0
0
VERTEX
8
RASTER
10
71.253
20
11.54
30
0
0
VERTEX
8
RASTER
10
71.235
20
11.495
30
0
0
VERTEX
8
RASTER
10
71.228
20
11.446
30
0
0
VERTEX
8
RASTER
10
71.233
20
11.395
30
0
0
VERTEX
8
RASTER
10
71.25
20
11.34
30
0
0
VERTEX
8
RASTER
10
71.278
20
11.282
30
0
0
SEQEND
8
RASTER
0
POLYLINE
8
RASTER
66
1
70
1
0
VERTEX
8
RASTER
10
71.516
20
11.419
30
0
0
VERTEX
8
RASTER
10
71.873
20
11.625
30
0
0
VERTEX
8
RASTER
10
72.01
20
11.387
30
0
0
VERTEX
8
RASTER
10
71.653
20
11.181
30
0
0
VERTEX
8
RASTER
10
71.516
20
11.419
30
0
0
SEQEND
8
RASTER
0
POLYLINE
8
RASTER
66
1
70
1
0
VERTEX
8
RASTER
10
73.85
20
7.377
30
0
0
VERTEX
8
RASTER
10
74.207
20
7.583
30
0
0
VERTEX
8
RASTER
10
74.344
20
7.345
30
0
0
VERTEX
8
RASTER
10
73.987
20
7.139
30
0
0
VERTEX
8
RASTER
10
73.85
20
7.377
30
0
0
SEQEND
8
RASTER
0
POLYLINE
8
RASTER
66
1
70
1
0
VERTEX
8
RASTER
10
72.348
20
11.9
30
0
0
VERTEX
8
RASTER
10
74.819
20
7.62
30
0
0
VERTEX
8
RASTER
10
74.855
20
7.566
30
0
0
VERTEX
8
RASTER
10
74.894
20
7.524
30
0
0
VERTEX
8
RASTER
10
74.937
20
7.494
30
0
0
VERTEX
8
RASTER
10
74.982
20
7.476
30
0
0
VERTEX
8
RASTER
10
75.03
20
7.469
30
0
0
VERTEX
8
RASTER
10
75.082
20
7.474
30
0
0
VERTEX
8
RASTER
10
75.137
20
7.491
30
0
0
VERTEX
8
RASTER
10
75.194
20
7.519
30
0
0
VERTEX
8
RASTER
10
75.551
20
7.725
30
0
0
VERTEX
8
RASTER
10
75.605
20
7.761
30
0
0
VERTEX
8
RASTER
10
75.647
20
7.8
30
0
0
VERTEX
8
RASTER
10
75.677
20
7.842
30
0
0
VERTEX
8
RASTER
10
75.695
20
7.888
30
0
0
VERTEX
8
RASTER
10
75.702
20
7.936
30
0
0
VERTEX
8
RASTER
10
75.697
20
7.988
30
0
0
VERTEX
8
RASTER
10
75.68
20
8.042
30
0
0
VERTEX
8
RASTER
10
75.652
20
8.1
30
0
0
VERTEX
8
RASTER
10
73.181
20
12.38
30
0
0
VERTEX
8
RASTER
10
73.145
20
12.434
30
0
0
VERTEX
8
RASTER
10
73.106
20
12.476
30
0
0
VERTEX
8
RASTER
10
73.063
20
12.506
30
0
0
VERTEX
8
RASTER
10
73.018
20
12.524
30
0
0
VERTEX
8
RASTER
10
72.97
20
12.531
30
0
0
VERTEX
8
RASTER
10
72.918
20
12.526
30
0
0
VERTEX
8
RASTER
10
72.863
20
12.509
30
0
0
VERTEX
8
RASTER
10
72.806
20
12.481
30
0
0
VERTEX
8
RASTER
10
72.449
20
12.275
30
0
0
VERTEX
8
RASTER
10
72.395
20
12.239
30
0
0
VERTEX
8
RASTER
10
72.353
20
12.2
30
0
0
VERTEX
8
RASTER
10
72.323
20
12.158
30
0
0
VERTEX
8
RASTER
10
72.305
20
12.112
30
0
0
VERTEX
8
RASTER
10
72.298
20
12.064
30
0
0
VERTEX
8
RASTER
10
72.303
20
12.012
30
0
0
VERTEX
8
RASTER
10
72.32
20
11.958
30
0
0
VERTEX
8
RASTER
10
72.348
20
11.9
30
0
0
SEQEND
8
RASTER
0
POLYLINE
8
RASTER
66
1
70
1
0
VERTEX
8
RASTER
10
72.586
20
12.037
30
0
0
VERTEX
8
RASTER
10
72.943
20
12.243
30
0
0
VERTEX
8
RASTER
10
73.08
20
12.005
30
0
0
VERTEX
8
RASTER
10
72.723
20
11.799
30
0
0
VERTEX
8
RASTER
10
72.586
20
12.037
30
0
0
SEQEND
8
RASTER
0
POLYLINE
8
RASTER
66
1
70
1
0
VERTEX
8
RASTER
10
74.92
20
7.995
30
0
0
VERTEX
8
RASTER
10
75.277
20
8.201
30
0
0
VERTEX
8
RASTER
10
75.414
20
7.963
30
0
0
VERTEX
8
RASTER
10
75.057
20
7.757
30
0
0
VERTEX
8
RASTER
10
74.92
20
7.995
30
0
0
SEQEND
8
RASTER
0
POLYLINE
8
RASTER
66
1
70
1
0
VERTEX
8
RASTER
10
73.418
20
12.518
30
0
0
VERTEX
8
RASTER
10
75.889
20
8.238
30
0
0
VERTEX
8
RASTER
10
75.925
20
8.184
30
0
0
VERTEX
8
RASTER
10
75.964
20
8.142
30
0
0
VERTEX
8
RASTER
10
76.006
20
8.112
30
0
0
VERTEX
8
RASTER
10
76.052
20
8.094
30
0
0
VERTEX
8
RASTER
10
76.1
20
8.087
30
0
0
VERTEX
8
RASTER
10
76.152
20
8.092
30
0
0
VERTEX
8
RASTER
10
76.207
20
8.109
30
0
0
VERTEX
8
RASTER
10
76.264
20
8.137
30
0
0
VERTEX
8
RASTER
10
76.621
20
8.343
30
0
0
VERTEX
8
RASTER
10
76.675
20
8.379
30
0
0
VERTEX
8
RASTER
10
76.717
20
8.418
30
0
0
VERTEX
8
RASTER
10
76.747
20
8.46
30
0
0
VERTEX
8
RASTER
10
76.765
20
8.505
30
0
0
VERTEX
8
RASTER
10
76.772
20
8.554
30
0
0
VERTEX
8
RASTER
10
76.767
20
8.605
30
0
0
VERTEX
8
RASTER
10
76.75
20
8.66
30
0
0
VERTEX
8
RASTER
10
76.722
20
8.718
30
0
0
VERTEX
8
RASTER
10
74.251
20
12.998
30
0
0
VERTEX
8
RASTER
10
74.215
20
13.052
30
0
0
VERTEX
8
RASTER
10
74.176
20
13.093
30
0
0
VERTEX
8
RASTER
10
74.133
20
13.124
30
0
0
VERTEX
8
RASTER
10
74.088
20
13.142
30
0
0
VERTEX
8
RASTER
10
74.04
20
13.149
30
0
0
VERTEX
8
RASTER
10
73.988
20
13.144
30
0
0
VERTEX
8
RASTER
10
73.933
20
13.127
30
0
0
VERTEX
8
RASTER
10
73.876
20
13.098
30
0
0
VERTEX
8
RASTER
10
73.519
20
12.893
30
0
0
VERTEX
8
RASTER
10
73.465
20
12.857
30
0
0
VERTEX
8
RASTER
10
73.423
20
12.818
30
0
0
VERTEX
8
RASTER
10
73.393
20
12.775
30
0
0
VERTEX
8
RASTER
10
73.375
20
12.73
30
0
0
VERTEX
8
RASTER
10
73.368
20
12.682
30
0
0
VERTEX
8
RASTER
10
73.373
20
12.63
30
0
0
VERTEX
8
RASTER
10
73.39
20
12.575
30
0
0
VERTEX
8
RASTER
10
73.418
20
12.518
30
0
0
SEQEND
8
RASTER
0
POLYLINE
8
RASTER
66
1
70
1
0
VERTEX
8
RASTER
10
73.656
20
12.655
30
0
0
VERTEX
8
RASTER
10
74.013
20
12.861
30
0
0
VERTEX
8
RASTER
10
74.15
20
12.623
30
0
0
VERTEX
8
RASTER
10
73.793
20
12.417
30
0
0
VERTEX
8
RASTER
10
73.656
20
12.655
30
0
0
SEQEND
8
RASTER
0
POLYLINE
8
RASTER
66
1
70
1
0
VERTEX
8
RASTER
10
75.99
20
8.613
30
0
0
VERTEX
8
RASTER
10
76.347
20
8.819
30
0
0
VERTEX
8
RASTER
10
76.484
20
8.581
30
0
0
VERTEX
8
RASTER
10
76.127
20
8.375
30
0
0
VERTEX
8
RASTER
10
75.99
20
8.613
30
0
0
SEQEND
8
RASTER
0
CIRCLE
8
CUT
10
90
20
10
30
0
40
6
0
CIRCLE
8
RASTER
10
90
20
10
30
0
40
5.2
0
POLYLINE
8
RASTER
66
1
70
1
0
VERTEX
8
RASTER
10
87.278
20
11.282
30
0
0
VERTEX
8
RASTER
10
89.749
20
7.002
30
0
0
VERTEX
8
RASTER
10
89.785
20
6.948
30
0
0
VERTEX
8
RASTER
10
89.824
20
6.907
30
0
0
VERTEX
8
RASTER
10
89.867
20
6.876
30
0
0
VERTEX
8
RASTER
10
89.912
20
6.858
30
0
0
VERTEX
8
RASTER
10
89.96
20
6.851
30
0
0
VERTEX
8
RASTER
10
90.012
20
6.856
30
0
0
VERTEX
8
RASTER
10
90.067
20
6.873
30
0
0
VERTEX
8
RASTER
10
90.124
20
6.902
30
0
0
VERTEX
8
RASTER
10
90.481
20
7.107
30
0
0
VERTEX
8
RASTER
10
90.535
20
7.143
30
0
0
VERTEX
8
RASTER
10
90.577
20
7.182
30
0
0
VERTEX
8
RASTER
10
90.607
20
7.225
30
0
0
VERTEX
8
RASTER
10
90.625
20
7.27
30
0
0
VERTEX
8
RASTER
10
90.632
20
7.318
30
0
0
VERTEX
8
RASTER
10
90.627
20
7.37
30
0
0
VERTEX
8
RASTER
10
90.61
20
7.425
30
0
0
VERTEX
8
RASTER
10
90.582
20
7.482
30
0
0
VERTEX
8
RASTER
10
88.111
20
11.762
30
0
0
VERTEX
8
RASTER
10
88.075
20
11.816
30
0
0
VERTEX
8
RASTER
10
88.036
20
11.858
30
0
0
VERTEX
8
RASTER
10
87.994
20
11.888
30
0
0
VERTEX
8
RASTER
10
87.948
20
11.906
30
0
0
VERTEX
8
RASTER
10
87.9
20
11.913
30
0
0
VERTEX
8
RASTER
10
87.848
20
11.908
30
0
0
VERTEX
8
RASTER
10
87.793
20
11.891
30
0
0
VERTEX
8
RASTER
10
87.736
20
11.863
30
0
0
VERTEX
8
RASTER
10
87.379
20
11.657
30
0
0
VERTEX
8
RASTER
10
87.325
20
11.621
30
0
0
VERTEX
8
RASTER
10
87.283
20
11.582
30
0
0
VERTEX
8
RASTER
10
87.253
20
11.54
30
0
0
VERTEX
8
RASTER
10
87.235
20
11.495
30
0
0
VERTEX
8
RASTER
10
87.228
20
11.446
30
0
0
VERTEX
8
RASTER
10
87.233
20
11.395
30
0
0
VERTEX
8
RASTER
10
87.25
20
11.34
30
0
0
VERTEX
8
RASTER
10
87.278
20
11.282
30
0
0
SEQEND
8
RASTER
0
POLYLINE
8
RASTER
66
1
70
1
0
VERTEX
8
RASTER
10
87.516
20
11.419
30
0
0
VERTEX
8
RASTER
10
87.873
20
11.625
30
0
0
VERTEX
8
RASTER
10
88.01
20
11.387
30
0
0
VERTEX
8
RASTER
10
87.653
20
11.181
30
0
0
VERTEX
8
RASTER
10
87.516
20
11.419
30
0
0
SEQEND
8
RASTER
0
POLYLINE
8
RASTER
66
1
70
1
0
VERTEX
8
RASTER
10
89.85
20
7.377
30
0
0
VERTEX
8
RASTER
10
90.207
20
7.583
30
0
0
VERTEX
8
RASTER
10
90.344
20
7.345
30
0
0
VERTEX
8
RASTER
10
89.987
20
7.139
30
0
0
VERTEX
8
RASTER
10
89.85
20
7.377
30
0
0
SEQEND
8
RASTER
0
POLYLINE
8
RASTER
66
1
70
1
0
VERTEX
8
RASTER
10
88.348
20
11.9
30
0
0
VERTEX
8
RASTER
10
90.819
20
7.62
30
0
0
VERTEX
8
RASTER
10
90.855
20
7.566
30
0
0
VERTEX
8
RASTER
10
90.894
20
7.524
30
0
0
VERTEX
8
RASTER
10
90.937
20
7.494
30
0
0
VERTEX
8
RASTER
10
90.982
20
7.476
30
0
0
VERTEX
8
RASTER
10
91.03
20
7.469
30
0
0
VERTEX
8
RASTER
10
91.082
20
7.474
30
0
0
VERTEX
8
RASTER
10
91.137
20
7.491
30
0
0
VERTEX
8
RASTER
10
91.194
20
7.519
30
0
0
VERTEX
8
RASTER
10
91.551
20
7.725
30
0
0
VERTEX
8
RASTER
10
91.605
20
7.761
30
0
0
VERTEX
8
RASTER
10
91.647
20
7.8
30
0
0
VERTEX
8
RASTER
10
91.677
20
7.842
30
0
0
VERTEX
8
RASTER
10
91.695
20
7.888
30
0
0
VERTEX
8
RASTER
10
91.702
20
7.936
30
0
0
VERTEX
8
RASTER
10
91.697
20
7.988
30
0
0
VERTEX
8
RASTER
10
91.68
20
8.042
30
0
0
VERTEX
8
RASTER
10
91.652
20
8.1
30
0
0
VERTEX
8
RASTER
10
89.181
20
12.38
30
0
0
VERTEX
8
RASTER
10
89.145
20
12.434
30
0
0
VERTEX
8
RASTER
10
89.106
20
12.476
30
0
0
VERTEX
8
RASTER
10
89.063
20
12.506
30
0
0
VERTEX
8
RASTER
10
89.018
20
12.524
30
0
0
VERTEX
8
RASTER
10
88.97
20
12.531
30
0
0
VERTEX
8
RASTER
10
88.918
20
12.526
30
0
0
VERTEX
8
RASTER
10
88.863
20
12.509
30
0
0
VERTEX
8
RASTER
10
88.806
20
12.481
30
0
0
VERTEX
8
RASTER
10
88.449
20
12.275
30
0
0
VERTEX
8
RASTER
10
88.395
20
12.239
30
0
0
VERTEX
8
RASTER
10
88.353
20
12.2
30
0
0
VERTEX
8
RASTER
10
88.323
20
12.158
30
0
0
VERTEX
8
RASTER
10
88.305
20
12.112
30
0
0
VERTEX
8
RASTER
10
88.298
20
12.064
30
0
0
VERTEX
8
RASTER
10
88.303
20
12.012
30
0
0
VERTEX
8
RASTER
10
88.32
20
11.958
30
0
0
VERTEX
8
RASTER
10
88.348
20
11.9
30
0
0
SEQEND
8
RASTER
0
POLYLINE
8
RASTER
66
1
70
1
0
VERTEX
8
RASTER
10
88.586
20
12.037
30
0
0
VERTEX
8
RASTER
10
88.943
20
12.243
30
0
0
VERTEX
8
RASTER
10
89.08
20
12.005
30
0
0
VERTEX
8
RASTER
10
88.723
20
11.799
30
0
0
VERTEX
8
RASTER
10
88.586
20
12.037
30
0
0
SEQEND
8
RASTER
0
POLYLINE
8
RASTER
66
1
70
1
0
VERTEX
8
RASTER
10
90.92
20
7.995
30
0
0
VERTEX
8
RASTER
10
91.277
20
8.201
30
0
0
VERTEX
8
RASTER
10
91.414
20
7.963
30
0
0
VERTEX
8
RASTER
10
91.057
20
7.757
30
0
0
VERTEX
8
RASTER
10
90.92
20
7.995
30
0
0
SEQEND
8
RASTER
0
POLYLINE
8
RASTER
66
1
70
1
0
VERTEX
8
RASTER
10
89.418
20
12.518
30
0
0
VERTEX
8
RASTER
10
91.889
20
8.238
30
0
0
VERTEX
8
RASTER
10
91.925
20
8.184
30
0
0
VERTEX
8
RASTER
10
91.964
20
8.142
30
0
0
VERTEX
8
RASTER
10
92.006
20
8.112
30
0
0
VERTEX
8
RASTER
10
92.052
20
8.094
30
0
0
VERTEX
8
RASTER
10
92.1
20
8.087
30
0
0
VERTEX
8
RASTER
10
92.152
20
8.092
30
0
0
VERTEX
8
RASTER
10
92.207
20
8.109
30
0
0
VERTEX
8
RASTER
10
92.264
20
8.137
30
0
0
VERTEX
8
RASTER
10
92.621
20
8.343
30
0
0
VERTEX
8
RASTER
10
92.675
20
8.379
30
0
0
VERTEX
8
RASTER
10
92.717
20
8.418
30
0
0
VERTEX
8
RASTER
10
92.747
20
8.46
30
0
0
VERTEX
8
RASTER
10
92.765
20
8.505
30
0
0
VERTEX
8
RASTER
10
92.772
20
8.554
30
0
0
VERTEX
8
RASTER
10
92.767
20
8.605
30
0
0
VERTEX
8
RASTER
10
92.75
20
8.66
30
0
0
VERTEX
8
RASTER
10
92.722
20
8.718
30
0
0
VERTEX
8
RASTER
10
90.251
20
12.998
30
0
0
VERTEX
8
RASTER
10
90.215
20
13.052
30
0
0
VERTEX
8
RASTER
10
90.176
20
13.093
30
0
0
VERTEX
8
RASTER
10
90.133
20
13.124
30
0
0
VERTEX
8
RASTER
10
90.088
20
13.142
30
0
0
VERTEX
8
RASTER
10
90.04
20
13.149
30
0
0
VERTEX
8
RASTER
10
89.988
20
13.144
30
0
0
VERTEX
8
RASTER
10
89.933
20
13.127
30
0
0
VERTEX
8
RASTER
10
89.876
20
13.098
30
0
0
VERTEX
8
RASTER
10
89.519
20
12.893
30
0
0
VERTEX
8
RASTER
10
89.465
20
12.857
30
0
0
VERTEX
8
RASTER
10
89.423
20
12.818
30
0
0
VERTEX
8
RASTER
10
89.393
20
12.775
30
0
0
VERTEX
8
RASTER
10
89.375
20
12.73
30
0
0
VERTEX
8
RASTER
10
89.368
20
12.682
30
0
0
VERTEX
8
RASTER
10
89.373
20
12.63
30
0
0
VERTEX
8
RASTER
10
89.39
20
12.575
30
0
0
VERTEX
8
RASTER
10
89.418
20
12.518
30
0
0
SEQEND
8
RASTER
0
POLYLINE
8
RASTER
66
1
70
1
0
VERTEX
8
RASTER
10
89.656
20
12.655
30
0
0
VERTEX
8
RASTER
10
90.013
20
12.861
30
0
0
VERTEX
8
RASTER
10
90.15
20
12.623
30
0
0
VERTEX
8
RASTER
10
89.793
20
12.417
30
0
0
VERTEX
8
RASTER
10
89.656
20
12.655
30
0
0
SEQEND
8
RASTER
0
POLYLINE
8
RASTER
66
1
70
1
0
VERTEX
8
RASTER
10
91.99
20
8.613
30
0
0
VERTEX
8
RASTER
10
92.347
20
8.819
30
0
0
VERTEX
8
RASTER
10
92.484
20
8.581
30
0
0
VERTEX
8
RASTER
10
92.127
20
8.375
30
0
0
VERTEX
8
RASTER
10
91.99
20
8.613
30
0
0
SEQEND
8
RASTER
0
CIRCLE
8
CUT
10
106
20
10
30
0
40
6
0
CIRCLE
8
RASTER
10
106
20
10
30
0
40
5.2
0
POLYLINE
8
RASTER
66
1
70
1
0
VERTEX
8
RASTER
10
106.824
20
12.059
30
0
0
VERTEX
8
RASTER
10
106.807
20
12.322
30
0
0
VERTEX
8
RASTER
10
106.759
20
12.567
30
0
0
VERTEX
8
RASTER
10
106.683
20
12.788
30
0
0
VERTEX
8
RASTER
10
106.582
20
12.981
30
0
0
VERTEX
8
RASTER
10
106.461
20
13.141
30
0
0
VERTEX
8
RASTER
10
106.321
20
13.261
30
0
0
VERTEX
8
RASTER
10
106.166
20
13.337
30
0
0
VERTEX
8
RASTER
10
106
20
13.363
30
0
0
VERTEX
8
RASTER
10
105.834
20
13.337
30
0
0
VERTEX
8
RASTER
10
105.679
20
13.261
30
0
0
VERTEX
8
RASTER
10
105.539
20
13.141
30
0
0
VERTEX
8
RASTER
10
105.418
20
12.981
30
0
0
VERTEX
8
RASTER
10
105.317
20
12.788
30
0
0
VERTEX
8
RASTER
10
105.241
20
12.567
30
0
0
VERTEX
8
RASTER
10
105.193
20
12.322
30
0
0
VERTEX
8
RASTER
10
105.176
20
12.059
30
0
0
VERTEX
8
RASTER
10
105.193
20
11.796
30
0
0
VERTEX
8
RASTER
10
105.241
20
11.552
30
0
0
VERTEX
8
RASTER
10
105.317
20
11.33
30
0
0
VERTEX
8
RASTER
10
105.418
20
11.137
30
0
0
VERTEX
8
RASTER
10
105.539
20
10.978
30
0
0
VERTEX
8
RASTER
10
105.679
20
10.858
30
0
0
VERTEX
8
RASTER
10
105.834
20
10.782
30
0
0
VERTEX
8
RASTER
10
106
20
10.755
30
0
0
VERTEX
8
RASTER
10
106.166
20
10.782
30
0
0
VERTEX
8
RASTER
10
106.321
20
10.858
30
0
0
VERTEX
8
RASTER
10
106.461
20
10.978
30
0
0
VERTEX
8
RASTER
10
106.582
20
11.137
30
0
0
VERTEX
8
RASTER
10
106.683
20
11.33
30
0
0
VERTEX
8
RASTER
10
106.759
20
11.552
30
0
0
VERTEX
8
RASTER
10
106.807
20
11.796
30
0
0
VERTEX
8
RASTER
10
106.824
20
12.059
30
0
0
SEQEND
8
RASTER
0
POLYLINE
8
RASTER
66
1
70
1
0
VERTEX
8
RASTER
10
108.213
20
9.853
30
0
0
VERTEX
8
RASTER
10
108.458
20
9.95
30
0
0
VERTEX
8
RASTER
10
108.676
20
10.071
30
0
0
VERTEX
8
RASTER
10
108.863
20
10.212
30
0
0
VERTEX
8
RASTER
10
109.015
20
10.367
30
0
0
VERTEX
8
RASTER
10
109.129
20
10.533
30
0
0
VERTEX
8
RASTER
10
109.2
20
10.703
30
0
0
VERTEX
8
RASTER
10
109.225
20
10.873
30
0
0
VERTEX
8
RASTER
10
109.199
20
11.039
30
0
0
VERTEX
8
RASTER
10
109.122
20
11.189
30
0
0
VERTEX
8
RASTER
10
109.002
20
11.313
30
0
0
VERTEX
8
RASTER
10
108.845
20
11.408
30
0
0
VERTEX
8
RASTER
10
108.655
20
11.475
30
0
0
VERTEX
8
RASTER
10
108.441
20
11.511
30
0
0
VERTEX
8
RASTER
10
108.207
20
11.515
30
0
0
VERTEX
8
RASTER
10
107.959
20
11.485
30
0
0
VERTEX
8
RASTER
10
107.704
20
11.42
30
0
0
VERTEX
8
RASTER
10
107.459
20
11.323
30
0
0
VERTEX
8
RASTER
10
107.241
20
11.201
30
0
0
VERTEX
8
RASTER
10
107.054
20
11.061
30
0
0
VERTEX
8
RASTER
10
106.901
20
10.905
30
0
0
VERTEX
8
RASTER
10
106.788
20
10.74
30
0
0
VERTEX
8
RASTER
10
106.716
20
10.57
30
0
0
VERTEX
8
RASTER
10
106.692
20
10.399
30
0
0
VERTEX
8
RASTER
10
106.718
20
10.233
30
0
0
VERTEX
8
RASTER
10
106.795
20
10.084
30
0
0
VERTEX
8
RASTER
10
106.915
20
9.96
30
0
0
VERTEX
8
RASTER
10
107.072
20
9.864
30
0
0
VERTEX
8
RASTER
10
107.261
20
9.797
30
0
0
VERTEX
8
RASTER
10
107.476
20
9.761
30
0
0
VERTEX
8
RASTER
10
107.71
20
9.758
30
0
0
VERTEX
8
RASTER
10
107.958
20
9.788
30
0
0
VERTEX
8
RASTER
10
108.213
20
9.853
30
0
0
SEQEND
8
RASTER
0
POLYLINE
8
RASTER
66
1
70
1
0
VERTEX
8
RASTER
10
106.544
20
7.85
30
0
0
VERTEX
8
RASTER
10
106.712
20
7.647
30
0
0
VERTEX
8
RASTER
10
106.895
20
7.477
30
0
0
VERTEX
8
RASTER
10
107.086
20
7.343
30
0
0
VERTEX
8
RASTER
10
107.281
20
7.246
30
0
0
VERTEX
8
RASTER
10
107.473
20
7.188
30
0
0
VERTEX
8
RASTER
10
107.657
20
7.173
30
0
0
VERTEX
8
RASTER
10
107.827
20
7.203
30
0
0
VERTEX
8
RASTER
10
107.977
20
7.279
30
0
0
VERTEX
8
RASTER
10
108.096
20
7.398
30
0
0
VERTEX
8
RASTER
10
108.176
20
7.55
30
0
0
VERTEX
8
RASTER
10
108.219
20
7.73
30
0
0
VERTEX
8
RASTER
10
108.224
20
7.93
30
0
0
VERTEX
8
RASTER
10
108.192
20
8.146
30
0
0
VERTEX
8
RASTER
10
108.123
20
8.369
30
0
0
VERTEX
8
RASTER
10
108.018
20
8.596
30
0
0
VERTEX
8
RASTER
10
107.877
20
8.818
30
0
0
VERTEX
8
RASTER
10
107.709
20
9.021
30
0
0
VERTEX
8
RASTER
10
107.526
20
9.191
30
0
0
VERTEX
8
RASTER
10
107.334
20
9.325
30
0
0
VERTEX
8
RASTER
10
107.14
20
9.422
30
0
0
VERTEX
8
RASTER
10
106.947
20
9.48
30
0
0
VERTEX
8
RASTER
10
106.763
20
9.495
30
0
0
VERTEX
8
RASTER
10
106.594
20
9.465
30
0
0
VERTEX
8
RASTER
10
106.444
20
9.389
30
0
0
VERTEX
8
RASTER
10
106.325
20
9.27
30
0
0
VERTEX
8
RASTER
10
106.245
20
9.118
30
0
0
VERTEX
8
RASTER
10
106.202
20
8.938
30
0
0
VERTEX
8
RASTER
10
106.197
20
8.738
30
0
0
VERTEX
8
RASTER
10
106.229
20
8.523
30
0
0
VERTEX
8
RASTER
10
106.298
20
8.299
30
0
0
VERTEX
8
RASTER
10
106.403
20
8.072
30
0
0
VERTEX
8
RASTER
10
106.544
20
7.85
30
0
0
SEQEND
8
RASTER
0
POLYLINE
8
RASTER
66
1
70
1
0
VERTEX
8
RASTER
10
104.123
20
8.818
30
0
0
VERTEX
8
RASTER
10
103.982
20
8.596
30
0
0
VERTEX
8
RASTER
10
103.877
20
8.369
30
0
0
VERTEX
8
RASTER
10
103.808
20
8.146
30
0
0
VERTEX
8
RASTER
10
103.776
20
7.93
30
0
0
VERTEX
8
RASTER
10
103.781
20
7.73
30
0
0
VERTEX
8
RASTER
10
103.824
20
7.55
30
0
0
VERTEX
8
RASTER
10
103.904
20
7.398
30
0
0
VERTEX
8
RASTER
10
104.023
20
7.279
30
0
0
VERTEX
8
RASTER
10
104.173
20
7.203
30
0
0
VERTEX
8
RASTER
10
104.343
20
7.173
30
0
0
VERTEX
8
RASTER
10
104.527
20
7.188
30
0
0
VERTEX
8
RASTER
10
104.719
20
7.246
30
0
0
VERTEX
8
RASTER
10
104.914
20
7.343
30
0
0
VERTEX
8
RASTER
10
105.105
20
7.477
30
0
0
VERTEX
8
RASTER
10
105.288
20
7.647
30
0
0
VERTEX
8
RASTER
10
105.456
20
7.85
30
0
0
VERTEX
8
RASTER
10
105.597
20
8.072
30
0
0
VERTEX
8
RASTER
10
105.702
20
8.299
30
0
0
VERTEX
8
RASTER
10
105.771
20
8.523
30
0
0
VERTEX
8
RASTER
10
105.803
20
8.738
30
0
0
VERTEX
8
RASTER
10
105.798
20
8.938
30
0
0
VERTEX
8
RASTER
10
105.755
20
9.118
30
0
0
VERTEX
8
RASTER
10
105.675
20
9.27
30
0
0
VERTEX
8
RASTER
10
105.556
20
9.389
30
0
0
VERTEX
8
RASTER
10
105.406
20
9.465
30
0
0
VERTEX
8
RASTER
10
105.237
20
9.495
30
0
0
VERTEX
8
RASTER
10
105.053
20
9.48
30
0
0
VERTEX
8
RASTER
10
104.86
20
9.422
30
0
0
VERTEX
8
RASTER
10
104.666
20
9.325
30
0
0
VERTEX
8
RASTER
10
104.474
20
9.191
30
0
0
VERTEX
8
RASTER
10
104.291
20
9.021
30
0
0
VERTEX
8
RASTER
10
104.123
20
8.818
30
0
0
SEQEND
8
RASTER
0
POLYLINE
8
RASTER
66
1
70
1
0
VERTEX
8
RASTER
10
104.296
20
11.42
30
0
0
VERTEX
8
RASTER
10
104.041
20
11.485
30
0
0
VERTEX
8
RASTER
10
103.793
20
11.515
30
0
0
VERTEX
8
RASTER
10
103.559
20
11.511
30
0
0
VERTEX
8
RASTER
10
103.345
20
11.475
30
0
0
VERTEX
8
RASTER
10
103.155
20
11.408
30
0
0
VERTEX
8
RASTER
10
102.998
20
11.313
30
0
0
VERTEX
8
RASTER
10
102.878
20
11.189
30
0
0
VERTEX
8
RASTER
10
102.801
20
11.039
30
0
0
VERTEX
8
RASTER
10
102.775
20
10.873
30
0
0
VERTEX
8
RASTER
10
102.8
20
10.703
30
0
0
VERTEX
8
RASTER
10
102.871
20
10.533
30
0
0
VERTEX
8
RASTER
10
102.985
20
10.367
30
0
0
VERTEX
8
RASTER
10
103.137
20
10.212
30
0
0
VERTEX
8
RASTER
10
103.324
20
10.071
30
0
0
VERTEX
8
RASTER
10
103.542
20
9.95
30
0
0
VERTEX
8
RASTER
10
103.787
20
9.853
30
0
0
VERTEX
8
RASTER
10
104.042
20
9.788
30
0
0
VERTEX
8
RASTER
10
104.29
20
9.758
30
0
0
VERTEX
8
RASTER
10
104.524
20
9.761
30
0
0
VERTEX
8
RASTER
10
104.739
20
9.797
30
0
0
VERTEX
8
RASTER
10
104.928
20
9.864
30
0
0
VERTEX
8
RASTER
10
105.085
20
9.96
30
0
0
VERTEX
8
RASTER
10
105.205
20
10.084
30
0
0
VERTEX
8
RASTER
10
105.282
20
10.233
30
0
0
VERTEX
8
RASTER
10
105.308
20
10.399
30
0
0
VERTEX
8
RASTER
10
105.284
20
10.57
30
0
0
VERTEX
8
RASTER
10
105.212
20
10.74
30
0
0
VERTEX
8
RASTER
10
105.099
20
10.905
30
0
0
VERTEX
8
RASTER
10
104.946
20
11.061
30
0
0
VERTEX
8
RASTER
10
104.759
20
11.201
30
0
0
VERTEX
8
RASTER
10
104.541
20
11.323
30
0
0
VERTEX
8
RASTER
10
104.296
20
11.42
30
0
0
SEQEND
8
RASTER
0
CIRCLE
8
RASTER
10
106
20
10
30
0
40
0.618
0
CIRCLE
8
CUT
10
122
20
10
30
0
40
6
0
CIRCLE
8
RASTER
10
122
20
10
30
0
40
5.2
0
POLYLINE
8
RASTER
66
1
70
1
0
VERTEX
8
RASTER
10
122.824
20
12.059
30
0
0
VERTEX
8
RASTER
10
122.807
20
12.322
30
0
0
VERTEX
8
RASTER
10
122.759
20
12.567
30
0
0
VERTEX
8
RASTER
10
122.683
20
12.788
30
0
0
VERTEX
8
RASTER
10
122.582
20
12.981
30
0
0
VERTEX
8
RASTER
10
122.461
20
13.141
30
0
0
VERTEX
8
RASTER
10
122.321
20
13.261
30
0
0
VERTEX
8
RASTER
10
122.166
20
13.337
30
0
0
VERTEX
8
RASTER
10
122
20
13.363
30
0
0
VERTEX
8
RASTER
10
121.834
20
13.337
30
0
0
VERTEX
8
RASTER
10
121.679
20
13.261
30
0
0
VERTEX
8
RASTER
10
121.539
20
13.141
30
0
0
VERTEX
8
RASTER
10
121.418
20
12.981
30
0
0
VERTEX
8
RASTER
10
121.317
20
12.788
30
0
0
VERTEX
8
RASTER
10
121.241
20
12.567
30
0
0
VERTEX
8
RASTER
10
121.193
20
12.322
30
0
0
VERTEX
8
RASTER
10
121.176
20
12.059
30
0
0
VERTEX
8
RASTER
10
121.193
20
11.796
30
0
0
VERTEX
8
RASTER
10
121.241
20
11.552
30
0
0
VERTEX
8
RASTER
10
121.317
20
11.33
30
0
0
VERTEX
8
RASTER
10
121.418
20
11.137
30
0
0
VERTEX
8
RASTER
10
121.539
20
10.978
30
0
0
VERTEX
8
RASTER
10
121.679
20
10.858
30
0
0
VERTEX
8
RASTER
10
121.834
20
10.782
30
0
0
VERTEX
8
RASTER
10
122
20
10.755
30
0
0
VERTEX
8
RASTER
10
122.166
20
10.782
30
0
0
VERTEX
8
RASTER
10
122.321
20
10.858
30
0
0
VERTEX
8
RASTER
10
122.461
20
10.978
30
0
0
VERTEX
8
RASTER
10
122.582
20
11.137
30
0
0
VERTEX
8
RASTER
10
122.683
20
11.33
30
0
0
VERTEX
8
RASTER
10
122.759
20
11.552
30
0
0
VERTEX
8
RASTER
10
122.807
20
11.796
30
0
0
VERTEX
8
RASTER
10
122.824
20
12.059
30
0
0
SEQEND
8
RASTER
0
POLYLINE
8
RASTER
66
1
70
1
0
VERTEX
8
RASTER
10
124.213
20
9.853
30
0
0
VERTEX
8
RASTER
10
124.458
20
9.95
30
0
0
VERTEX
8
RASTER
10
124.676
20
10.071
30
0
0
VERTEX
8
RASTER
10
124.863
20
10.212
30
0
0
VERTEX
8
RASTER
10
125.015
20
10.367
30
0
0
VERTEX
8
RASTER
10
125.129
20
10.533
30
0
0
VERTEX
8
RASTER
10
125.2
20
10.703
30
0
0
VERTEX
8
RASTER
10
125.225
20
10.873
30
0
0
VERTEX
8
RASTER
10
125.199
20
11.039
30
0
0
VERTEX
8
RASTER
10
125.122
20
11.189
30
0
0
VERTEX
8
RASTER
10
125.002
20
11.313
30
0
0
VERTEX
8
RASTER
10
124.845
20
11.408
30
0
0
VERTEX
8
RASTER
10
124.655
20
11.475
30
0
0
VERTEX
8
RASTER
10
124.441
20
11.511
30
0
0
VERTEX
8
RASTER
10
124.207
20
11.515
30
0
0
VERTEX
8
RASTER
10
123.959
20
11.485
30
0
0
VERTEX
8
RASTER
10
123.704
20
11.42
30
0
0
VERTEX
8
RASTER
10
123.459
20
11.323
30
0
0
VERTEX
8
RASTER
10
123.241
20
11.201
30
0
0
VERTEX
8
RASTER
10
123.054
20
11.061
30
0
0
VERTEX
8
RASTER
10
122.901
20
10.905
30
0
0
VERTEX
8
RASTER
10
122.788
20
10.74
30
0
0
VERTEX
8
RASTER
10
122.716
20
10.57
30
0
0
VERTEX
8
RASTER
10
122.692
20
10.399
30
0
0
VERTEX
8
RASTER
10
122.718
20
10.233
30
0
0
VERTEX
8
RASTER
10
122.795
20
10.084
30
0
0
VERTEX
8
RASTER
10
122.915
20
9.96
30
0
0
VERTEX
8
RASTER
10
123.072
20
9.864
30
0
0
VERTEX
8
RASTER
10
123.261
20
9.797
30
0
0
VERTEX
8
RASTER
10
123.476
20
9.761
30
0
0
VERTEX
8
RASTER
10
123.71
20
9.758
30
0
0
VERTEX
8
RASTER
10
123.958
20
9.788
30
0
0
VERTEX
8
RASTER
10
124.213
20
9.853
30
0
0
SEQEND
8
RASTER
0
POLYLINE
8
RASTER
66
1
70
1
0
VERTEX
8
RASTER
10
122.544
20
7.85
30
0
0
VERTEX
8
RASTER
10
122.712
20
7.647
30
0
0
VERTEX
8
RASTER
10
122.895
20
7.477
30
0
0
VERTEX
8
RASTER
10
123.086
20
7.343
30
0
0
VERTEX
8
RASTER
10
123.281
20
7.246
30
0
0
VERTEX
8
RASTER
10
123.473
20
7.188
30
0
0
VERTEX
8
RASTER
10
123.657
20
7.173
30
0
0
VERTEX
8
RASTER
10
123.827
20
7.203
30
0
0
VERTEX
8
RASTER
10
123.977
20
7.279
30
0
0
VERTEX
8
RASTER
10
124.096
20
7.398
30
0
0
VERTEX
8
RASTER
10
124.176
20
7.55
30
0
0
VERTEX
8
RASTER
10
124.219
20
7.73
30
0
0
VERTEX
8
RASTER
10
124.224
20
7.93
30
0
0
VERTEX
8
RASTER
10
124.192
20
8.146
30
0
0
VERTEX
8
RASTER
10
124.123
20
8.369
30
0
0
VERTEX
8
RASTER
10
124.018
20
8.596
30
0
0
VERTEX
8
RASTER
10
123.877
20
8.818
30
0
0
VERTEX
8
RASTER
10
123.709
20
9.021
30
0
0
VERTEX
8
RASTER
10
123.526
20
9.191
30
0
0
VERTEX
8
RASTER
10
123.334
20
9.325
30
0
0
VERTEX
8
RASTER
10
123.14
20
9.422
30
0
0
VERTEX
8
RASTER
10
122.947
20
9.48
30
0
0
VERTEX
8
RASTER
10
122.763
20
9.495
30
0
0
VERTEX
8
RASTER
10
122.594
20
9.465
30
0
0
VERTEX
8
RASTER
10
122.444
20
9.389
30
0
0
VERTEX
8
RASTER
10
122.325
20
9.27
30
0
0
VERTEX
8
RASTER
10
122.245
20
9.118
30
0
0
VERTEX
8
RASTER
10
122.202
20
8.938
30
0
0
VERTEX
8
RASTER
10
122.197
20
8.738
30
0
0
VERTEX
8
RASTER
10
122.229
20
8.523
30
0
0
VERTEX
8
RASTER
10
122.298
20
8.299
30
0
0
VERTEX
8
RASTER
10
122.403
20
8.072
30
0
0
VERTEX
8
RASTER
10
122.544
20
7.85
30
0
0
SEQEND
8
RASTER
0
POLYLINE
8
RASTER
66
1
70
1
0
VERTEX
8
RASTER
10
120.123
20
8.818
30
0
0
VERTEX
8
RASTER
10
119.982
20
8.596
30
0
0
VERTEX
8
RASTER
10
119.877
20
8.369
30
0
0
VERTEX
8
RASTER
10
119.808
20
8.146
30
0
0
VERTEX
8
RASTER
10
119.776
20
7.93
30
0
0
VERTEX
8
RASTER
10
119.781
20
7.73
30
0
0
VERTEX
8
RASTER
10
119.824
20
7.55
30
0
0
VERTEX
8
RASTER
10
119.904
20
7.398
30
0
0
VERTEX
8
RASTER
10
120.023
20
7.279
30
0
0
VERTEX
8
RASTER
10
120.173
20
7.203
30
0
0
VERTEX
8
RASTER
10
120.343
20
7.173
30
0
0
VERTEX
8
RASTER
10
120.527
20
7.188
30
0
0
VERTEX
8
RASTER
10
120.719
20
7.246
30
0
0
VERTEX
8
RASTER
10
120.914
20
7.343
30
0
0
VERTEX
8
RASTER
10
121.105
20
7.477
30
0
0
VERTEX
8
RASTER
10
121.288
20
7.647
30
0
0
VERTEX
8
RASTER
10
121.456
20
7.85
30
0
0
VERTEX
8
RASTER
10
121.597
20
8.072
30
0
0
VERTEX
8
RASTER
10
121.702
20
8.299
30
0
0
VERTEX
8
RASTER
10
121.771
20
8.523
30
0
0
VERTEX
8
RASTER
10
121.803
20
8.738
30
0
0
VERTEX
8
RASTER
10
121.798
20
8.938
30
0
0
VERTEX
8
RASTER
10
121.755
20
9.118
30
0
0
VERTEX
8
RASTER
10
121.675
20
9.27
30
0
0
VERTEX
8
RASTER
10
121.556
20
9.389
30
0
0
VERTEX
8
RASTER
10
121.406
20
9.465
30
0
0
VERTEX
8
RASTER
10
121.237
20
9.495
30
0
0
VERTEX
8
RASTER
10
121.053
20
9.48
30
0
0
VERTEX
8
RASTER
10
120.86
20
9.422
30
0
0
VERTEX
8
RASTER
10
120.666
20
9.325
30
0
0
VERTEX
8
RASTER
10
120.474
20
9.191
30
0
0
VERTEX
8
RASTER
10
120.291
20
9.021
30
0
0
VERTEX
8
RASTER
10
120.123
20
8.818
30
0
0
SEQEND
8
RASTER
0
POLYLINE
8
RASTER
66
1
70
1
0
VERTEX
8
RASTER
10
120.296
20
11.42
30
0
0
VERTEX
8
RASTER
10
120.041
20
11.485
30
0
0
VERTEX
8
RASTER
10
119.793
20
11.515
30
0
0
VERTEX
8
RASTER
10
119.559
20
11.511
30
0
0
VERTEX
8
RASTER
10
119.345
20
11.475
30
0
0
VERTEX
8
RASTER
10
119.155
20
11.408
30
0
0
VERTEX
8
RASTER
10
118.998
20
11.313
30
0
0
VERTEX
8
RASTER
10
118.878
20
11.189
30
0
0
VERTEX
8
RASTER
10
118.801
20
11.039
30
0
0
VERTEX
8
RASTER
10
118.775
20
10.873
30
0
0
VERTEX
8
RASTER
10
118.8
20
10.703
30
0
0
VERTEX
8
RASTER
10
118.871
20
10.533
30
0
0
VERTEX
8
RASTER
10
118.985
20
10.367
30
0
0
VERTEX
8
RASTER
10
119.137
20
10.212
30
0
0
VERTEX
8
RASTER
10
119.324
20
10.071
30
0
0
VERTEX
8
RASTER
10
119.542
20
9.95
30
0
0
VERTEX
8
RASTER
10
119.787
20
9.853
30
0
0
VERTEX
8
RASTER
10
120.042
20
9.788
30
0
0
VERTEX
8
RASTER
10
120.29
20
9.758
30
0
0
VERTEX
8
RASTER
10
120.524
20
9.761
30
0
0
VERTEX
8
RASTER
10
120.739
20
9.797
30
0
0
VERTEX
8
RASTER
10
120.928
20
9.864
30
0
0
VERTEX
8
RASTER
10
121.085
20
9.96
30
0
0
VERTEX
8
RASTER
10
121.205
20
10.084
30
0
0
VERTEX
8
RASTER
10
121.282
20
10.233
30
0
0
VERTEX
8
RASTER
10
121.308
20
10.399
30
0
0
VERTEX
8
RASTER
10
121.284
20
10.57
30
0
0
VERTEX
8
RASTER
10
121.212
20
10.74
30
0
0
VERTEX
8
RASTER
10
121.099
20
10.905
30
0
0
VERTEX
8
RASTER
10
120.946
20
11.061
30
0
0
VERTEX
8
RASTER
10
120.759
20
11.201
30
0
0
VERTEX
8
RASTER
10
120.541
20
11.323
30
0
0
VERTEX
8
RASTER
10
120.296
20
11.42
30
0
0
SEQEND
8
RASTER
0
CIRCLE
8
RASTER
10
122
20
10
30
0
40
0.618
0
CIRCLE
8
CUT
10
138
20
10
30
0
40
6
0
CIRCLE
8
RASTER
10
138
20
10
30
0
40
5.2
0
POLYLINE
8
RASTER
66
1
70
1
0
VERTEX
8
RASTER
10
138.824
20
12.059
30
0
0
VERTEX
8
RASTER
10
138.807
20
12.322
30
0
0
VERTEX
8
RASTER
10
138.759
20
12.567
30
0
0
VERTEX
8
RASTER
10
138.683
20
12.788
30
0
0
VERTEX
8
RASTER
10
138.582
20
12.981
30
0
0
VERTEX
8
RASTER
10
138.461
20
13.141
30
0
0
VERTEX
8
RASTER
10
138.321
20
13.261
30
0
0
VERTEX
8
RASTER
10
138.166
20
13.337
30
0
0
VERTEX
8
RASTER
10
138
20
13.363
30
0
0
VERTEX
8
RASTER
10
137.834
20
13.337
30
0
0
VERTEX
8
RASTER
10
137.679
20
13.261
30
0
0
VERTEX
8
RASTER
10
137.539
20
13.141
30
0
0
VERTEX
8
RASTER
10
137.418
20
12.981
30
0
0
VERTEX
8
RASTER
10
137.317
20
12.788
30
0
0
VERTEX
8
RASTER
10
137.241
20
12.567
30
0
0
VERTEX
8
RASTER
10
137.193
20
12.322
30
0
0
VERTEX
8
RASTER
10
137.176
20
12.059
30
0
0
VERTEX
8
RASTER
10
137.193
20
11.796
30
0
0
VERTEX
8
RASTER
10
137.241
20
11.552
30
0
0
VERTEX
8
RASTER
10
137.317
20
11.33
30
0
0
VERTEX
8
RASTER
10
137.418
20
11.137
30
0
0
VERTEX
8
RASTER
10
137.539
20
10.978
30
0
0
VERTEX
8
RASTER
10
137.679
20
10.858
30
0
0
VERTEX
8
RASTER
10
137.834
20
10.782
30
0
0
VERTEX
8
RASTER
10
138
20
10.755
30
0
0
VERTEX
8
RASTER
10
138.166
20
10.782
30
0
0
VERTEX
8
RASTER
10
138.321
20
10.858
30
0
0
VERTEX
8
RASTER
10
138.461
20
10.978
30
0
0
VERTEX
8
RASTER
10
138.582
20
11.137
30
0
0
VERTEX
8
RASTER
10
138.683
20
11.33
30
0
0
VERTEX
8
RASTER
10
138.759
20
11.552
30
0
0
VERTEX
8
RASTER
10
138.807
20
11.796
30
0
0
VERTEX
8
RASTER
10
138.824
20
12.059
30
0
0
SEQEND
8
RASTER
0
POLYLINE
8
RASTER
66
1
70
1
0
VERTEX
8
RASTER
10
140.213
20
9.853
30
0
0
VERTEX
8
RASTER
10
140.458
20
9.95
30
0
0
VERTEX
8
RASTER
10
140.676
20
10.071
30
0
0
VERTEX
8
RASTER
10
140.863
20
10.212
30
0
0
VERTEX
8
RASTER
10
141.015
20
10.367
30
0
0
VERTEX
8
RASTER
10
141.129
20
10.533
30
0
0
VERTEX
8
RASTER
10
141.2
20
10.703
30
0
0
VERTEX
8
RASTER
10
141.225
20
10.873
30
0
0
VERTEX
8
RASTER
10
141.199
20
11.039
30
0
0
VERTEX
8
RASTER
10
141.122
20
11.189
30
0
0
VERTEX
8
RASTER
10
141.002
20
11.313
30
0
0
VERTEX
8
RASTER
10
140.845
20
11.408
30
0
0
VERTEX
8
RASTER
10
140.655
20
11.475
30
0
0
VERTEX
8
RASTER
10
140.441
20
11.511
30
0
0
VERTEX
8
RASTER
10
140.207
20
11.515
30
0
0
VERTEX
8
RASTER
10
139.959
20
11.485
30
0
0
VERTEX
8
RASTER
10
139.704
20
11.42
30
0
0
VERTEX
8
RASTER
10
139.459
20
11.323
30
0
0
VERTEX
8
RASTER
10
139.241
20
11.201
30
0
0
VERTEX
8
RASTER
10
139.054
20
11.061
30
0
0
VERTEX
8
RASTER
10
138.901
20
10.905
30
0
0
VERTEX
8
RASTER
10
138.788
20
10.74
30
0
0
VERTEX
8
RASTER
10
138.716
20
10.57
30
0
0
VERTEX
8
RASTER
10
138.692
20
10.399
30
0
0
VERTEX
8
RASTER
10
138.718
20
10.233
30
0
0
VERTEX
8
RASTER
10
138.795
20
10.084
30
0
0
VERTEX
8
RASTER
10
138.915
20
9.96
30
0
0
VERTEX
8
RASTER
10
139.072
20
9.864
30
0
0
VERTEX
8
RASTER
10
139.261
20
9.797
30
0
0
VERTEX
8
RASTER
10
139.476
20
9.761
30
0
0
VERTEX
8
RASTER
10
139.71
20
9.758
30
0
0
VERTEX
8
RASTER
10
139.958
20
9.788
30
0
0
VERTEX
8
RASTER
10
140.213
20
9.853
30
0
0
SEQEND
8
RASTER
0
POLYLINE
8
RASTER
66
1
70
1
0
VERTEX
8
RASTER
10
138.544
20
7.85
30
0
0
VERTEX
8
RASTER
10
138.712
20
7.647
30
0
0
VERTEX
8
RASTER
10
138.895
20
7.477
30
0
0
VERTEX
8
RASTER
10
139.086
20
7.343
30
0
0
VERTEX
8
RASTER
10
139.281
20
7.246
30
0
0
VERTEX
8
RASTER
10
139.473
20
7.188
30
0
0
VERTEX
8
RASTER
10
139.657
20
7.173
30
0
0
VERTEX
8
RASTER
10
139.827
20
7.203
30
0
0
VERTEX
8
RASTER
10
139.977
20
7.279
30
0
0
VERTEX
8
RASTER
10
140.096
20
7.398
30
0
0
VERTEX
8
RASTER
10
140.176
20
7.55
30
0
0
VERTEX
8
RASTER
10
140.219
20
7.73
30
0
0
VERTEX
8
RASTER
10
140.224
20
7.93
30
0
0
VERTEX
8
RASTER
10
140.192
20
8.146
30
0
0
VERTEX
8
RASTER
10
140.123
20
8.369
30
0
0
VERTEX
8
RASTER
10
140.018
20
8.596
30
0
0
VERTEX
8
RASTER
10
139.877
20
8.818
30
0
0
VERTEX
8
RASTER
10
139.709
20
9.021
30
0
0
VERTEX
8
RASTER
10
139.526
20
9.191
30
0
0
VERTEX
8
RASTER
10
139.334
20
9.325
30
0
0
VERTEX
8
RASTER
10
139.14
20
9.422
30
0
0
VERTEX
8
RASTER
10
138.947
20
9.48
30
0
0
VERTEX
8
RASTER
10
138.763
20
9.495
30
0
0
VERTEX
8
RASTER
10
138.594
20
9.465
30
0
0
VERTEX
8
RASTER
10
138.444
20
9.389
30
0
0
VERTEX
8
RASTER
10
138.325
20
9.27
30
0
0
VERTEX
8
RASTER
10
138.245
20
9.118
30
0
0
VERTEX
8
RASTER
10
138.202
20
8.938
30
0
0
VERTEX
8
RASTER
10
138.197
20
8.738
30
0
0
VERTEX
8
RASTER
10
138.229
20
8.523
30
0
0
VERTEX
8
RASTER
10
138.298
20
8.299
30
0
0
VERTEX
8
RASTER
10
138.403
20
8.072
30
0
0
VERTEX
8
RASTER
10
138.544
20
7.85
30
0
0
SEQEND
8
RASTER
0
POLYLINE
8
RASTER
66
1
70
1
0
VERTEX
8
RASTER
10
136.123
20
8.818
30
0
0
VERTEX
8
RASTER
10
135.982
20
8.596
30
0
0
VERTEX
8
RASTER
10
135.877
20
8.369
30
0
0
VERTEX
8
RASTER
10
135.808
20
8.146
30
0
0
VERTEX
8
RASTER
10
135.776
20
7.93
30
0
0
VERTEX
8
RASTER
10
135.781
20
7.73
30
0
0
VERTEX
8
RASTER
10
135.824
20
7.55
30
0
0
VERTEX
8
RASTER
10
135.904
20
7.398
30
0
0
VERTEX
8
RASTER
10
136.023
20
7.279
30
0
0
VERTEX
8
RASTER
10
136.173
20
7.203
30
0
0
VERTEX
8
RASTER
10
136.343
20
7.173
30
0
0
VERTEX
8
RASTER
10
136.527
20
7.188
30
0
0
VERTEX
8
RASTER
10
136.719
20
7.246
30
0
0
VERTEX
8
RASTER
10
136.914
20
7.343
30
0
0
VERTEX
8
RASTER
10
137.105
20
7.477
30
0
0
VERTEX
8
RASTER
10
137.288
20
7.647
30
0
0
VERTEX
8
RASTER
10
137.456
20
7.85
30
0
0
VERTEX
8
RASTER
10
137.597
20
8.072
30
0
0
VERTEX
8
RASTER
10
137.702
20
8.299
30
0
0
VERTEX
8
RASTER
10
137.771
20
8.523
30
0
0
VERTEX
8
RASTER
10
137.803
20
8.738
30
0
0
VERTEX
8
RASTER
10
137.798
20
8.938
30
0
0
VERTEX
8
RASTER
10
137.755
20
9.118
30
0
0
VERTEX
8
RASTER
10
137.675
20
9.27
30
0
0
VERTEX
8
RASTER
10
137.556
20
9.389
30
0
0
VERTEX
8
RASTER
10
137.406
20
9.465
30
0
0
VERTEX
8
RASTER
10
137.237
20
9.495
30
0
0
VERTEX
8
RASTER
10
137.053
20
9.48
30
0
0
VERTEX
8
RASTER
10
136.86
20
9.422
30
0
0
VERTEX
8
RASTER
10
136.666
20
9.325
30
0
0
VERTEX
8
RASTER
10
136.474
20
9.191
30
0
0
VERTEX
8
RASTER
10
136.291
20
9.021
30
0
0
VERTEX
8
RASTER
10
136.123
20
8.818
30
0
0
SEQEND
8
RASTER
0
POLYLINE
8
RASTER
66
1
70
1
0
VERTEX
8
RASTER
10
136.296
20
11.42
30
0
0
VERTEX
8
RASTER
10
136.041
20
11.485
30
0
0
VERTEX
8
RASTER
10
135.793
20
11.515
30
0
0
VERTEX
8
RASTER
10
135.559
20
11.511
30
0
0
VERTEX
8
RASTER
10
135.345
20
11.475
30
0
0
VERTEX
8
RASTER
10
135.155
20
11.408
30
0
0
VERTEX
8
RASTER
10
134.998
20
11.313
30
0
0
VERTEX
8
RASTER
10
134.878
20
11.189
30
0
0
VERTEX
8
RASTER
10
134.801
20
11.039
30
0
0
VERTEX
8
RASTER
10
134.775
20
10.873
30
0
0
VERTEX
8
RASTER
10
134.8
20
10.703
30
0
0
VERTEX
8
RASTER
10
134.871
20
10.533
30
0
0
VERTEX
8
RASTER
10
134.985
20
10.367
30
0
0
VERTEX
8
RASTER
10
135.137
20
10.212
30
0
0
VERTEX
8
RASTER
10
135.324
20
10.071
30
0
0
VERTEX
8
RASTER
10
135.542
20
9.95
30
0
0
VERTEX
8
RASTER
10
135.787
20
9.853
30
0
0
VERTEX
8
RASTER
10
136.042
20
9.788
30
0
0
VERTEX
8
RASTER
10
136.29
20
9.758
30
0
0
VERTEX
8
RASTER
10
136.524
20
9.761
30
0
0
VERTEX
8
RASTER
10
136.739
20
9.797
30
0
0
VERTEX
8
RASTER
10
136.928
20
9.864
30
0
0
VERTEX
8
RASTER
10
137.085
20
9.96
30
0
0
VERTEX
8
RASTER
10
137.205
20
10.084
30
0
0
VERTEX
8
RASTER
10
137.282
20
10.233
30
0
0
VERTEX
8
RASTER
10
137.308
20
10.399
30
0
0
VERTEX
8
RASTER
10
137.284
20
10.57
30
0
0
VERTEX
8
RASTER
10
137.212
20
10.74
30
0
0
VERTEX
8
RASTER
10
137.099
20
10.905
30
0
0
VERTEX
8
RASTER
10
136.946
20
11.061
30
0
0
VERTEX
8
RASTER
10
136.759
20
11.201
30
0
0
VERTEX
8
RASTER
10
136.541
20
11.323
30
0
0
VERTEX
8
RASTER
10
136.296
20
11.42
30
0
0
SEQEND
8
RASTER
0
CIRCLE
8
RASTER
10
138
20
10
30
0
40
0.618
0
CIRCLE
8
CUT
10
154
20
10
30
0
40
6
0
CIRCLE
8
RASTER
10
154
20
10
30
0
40
5.2
0
POLYLINE
8
RASTER
66
1
70
1
0
VERTEX
8
RASTER
10
154.824
20
12.059
30
0
0
VERTEX
8
RASTER
10
154.807
20
12.322
30
0
0
VERTEX
8
RASTER
10
154.759
20
12.567
30
0
0
VERTEX
8
RASTER
10
154.683
20
12.788
30
0
0
VERTEX
8
RASTER
10
154.582
20
12.981
30
0
0
VERTEX
8
RASTER
10
154.461
20
13.141
30
0
0
VERTEX
8
RASTER
10
154.321
20
13.261
30
0
0
VERTEX
8
RASTER
10
154.166
20
13.337
30
0
0
VERTEX
8
RASTER
10
154
20
13.363
30
0
0
VERTEX
8
RASTER
10
153.834
20
13.337
30
0
0
VERTEX
8
RASTER
10
153.679
20
13.261
30
0
0
VERTEX
8
RASTER
10
153.539
20
13.141
30
0
0
VERTEX
8
RASTER
10
153.418
20
12.981
30
0
0
VERTEX
8
RASTER
10
153.317
20
12.788
30
0
0
VERTEX
8
RASTER
10
153.241
20
12.567
30
0
0
VERTEX
8
RASTER
10
153.193
20
12.322
30
0
0
VERTEX
8
RASTER
10
153.176
20
12.059
30
0
0
VERTEX
8
RASTER
10
153.193
20
11.796
30
0
0
VERTEX
8
RASTER
10
153.241
20
11.552
30
0
0
VERTEX
8
RASTER
10
153.317
20
11.33
30
0
0
VERTEX
8
RASTER
10
153.418
20
11.137
30
0
0
VERTEX
8
RASTER
10
153.539
20
10.978
30
0
0
VERTEX
8
RASTER
10
153.679
20
10.858
30
0
0
VERTEX
8
RASTER
10
153.834
20
10.782
30
0
0
VERTEX
8
RASTER
10
154
20
10.755
30
0
0
VERTEX
8
RASTER
10
154.166
20
10.782
30
0
0
VERTEX
8
RASTER
10
154.321
20
10.858
30
0
0
VERTEX
8
RASTER
10
154.461
20
10.978
30
0
0
VERTEX
8
RASTER
10
154.582
20
11.137
30
0
0
VERTEX
8
RASTER
10
154.683
20
11.33
30
0
0
VERTEX
8
RASTER
10
154.759
20
11.552
30
0
0
VERTEX
8
RASTER
10
154.807
20
11.796
30
0
0
VERTEX
8
RASTER
10
154.824
20
12.059
30
0
0
SEQEND
8
RASTER
0
POLYLINE
8
RASTER
66
1
70
1
0
VERTEX
8
RASTER
10
156.213
20
9.853
30
0
0
VERTEX
8
RASTER
10
156.458
20
9.95
30
0
0
VERTEX
8
RASTER
10
156.676
20
10.071
30
0
0
VERTEX
8
RASTER
10
156.863
20
10.212
30
0
0
VERTEX
8
RASTER
10
157.015
20
10.367
30
0
0
VERTEX
8
RASTER
10
157.129
20
10.533
30
0
0
VERTEX
8
RASTER
10
157.2
20
10.703
30
0
0
VERTEX
8
RASTER
10
157.225
20
10.873
30
0
0
VERTEX
8
RASTER
10
157.199
20
11.039
30
0
0
VERTEX
8
RASTER
10
157.122
20
11.189
30
0
0
VERTEX
8
RASTER
10
157.002
20
11.313
30
0
0
VERTEX
8
RASTER
10
156.845
20
11.408
30
0
0
VERTEX
8
RASTER
10
156.655
20
11.475
30
0
0
VERTEX
8
RASTER
10
156.441
20
11.511
30
0
0
VERTEX
8
RASTER
10
156.207
20
11.515
30
0
0
VERTEX
8
RASTER
10
155.959
20
11.485
30
0
0
VERTEX
8
RASTER
10
155.704
20
11.42
30
0
0
VERTEX
8
RASTER
10
155.459
20
11.323
30
0
0
VERTEX
8
RASTER
10
155.241
20
11.201
30
0
0
VERTEX
8
RASTER
10
155.054
20
11.061
30
0
0
VERTEX
8
RASTER
10
154.901
20
10.905
30
0
0
VERTEX
8
RASTER
10
154.788
20
10.74
30
0
0
VERTEX
8
RASTER
10
154.716
20
10.57
30
0
0
VERTEX
8
RASTER
10
154.692
20
10.399
30
0
0
VERTEX
8
RASTER
10
154.718
20
10.233
30
0
0
VERTEX
8
RASTER
10
154.795
20
10.084
30
0
0
VERTEX
8
RASTER
10
154.915
20
9.96
30
0
0
VERTEX
8
RASTER
10
155.072
20
9.864
30
0
0
VERTEX
8
RASTER
10
155.261
20
9.797
30
0
0
VERTEX
8
RASTER
10
155.476
20
9.761
30
0
0
VERTEX
8
RASTER
10
155.71
20
9.758
30
0
0
VERTEX
8
RASTER
10
155.958
20
9.788
30
0
0
VERTEX
8
RASTER
10
156.213
20
9.853
30
0
0
SEQEND
8
RASTER
0
POLYLINE
8
RASTER
66
1
70
1
0
VERTEX
8
RASTER
10
154.544
20
7.85
30
0
0
VERTEX
8
RASTER
10
154.712
20
7.647
30
0
0
VERTEX
8
RASTER
10
154.895
20
7.477
30
0
0
VERTEX
8
RASTER
10
155.086
20
7.343
30
0
0
VERTEX
8
RASTER
10
155.281
20
7.246
30
0
0
VERTEX
8
RASTER
10
155.473
20
7.188
30
0
0
VERTEX
8
RASTER
10
155.657
20
7.173
30
0
0
VERTEX
8
RASTER
10
155.827
20
7.203
30
0
0
VERTEX
8
RASTER
10
155.977
20
7.279
30
0
0
VERTEX
8
RASTER
10
156.096
20
7.398
30
0
0
VERTEX
8
RASTER
10
156.176
20
7.55
30
0
0
VERTEX
8
RASTER
10
156.219
20
7.73
30
0
0
VERTEX
8
RASTER
10
156.224
20
7.93
30
0
0
VERTEX
8
RASTER
10
156.192
20
8.146
30
0
0
VERTEX
8
RASTER
10
156.123
20
8.369
30
0
0
VERTEX
8
RASTER
10
156.018
20
8.596
30
0
0
VERTEX
8
RASTER
10
155.877
20
8.818
30
0
0
VERTEX
8
RASTER
10
155.709
20
9.021
30
0
0
VERTEX
8
RASTER
10
155.526
20
9.191
30
0
0
VERTEX
8
RASTER
10
155.334
20
9.325
30
0
0
VERTEX
8
RASTER
10
155.14
20
9.422
30
0
0
VERTEX
8
RASTER
10
154.947
20
9.48
30
0
0
VERTEX
8
RASTER
10
154.763
20
9.495
30
0
0
VERTEX
8
RASTER
10
154.594
20
9.465
30
0
0
VERTEX
8
RASTER
10
154.444
20
9.389
30
0
0
VERTEX
8
RASTER
10
154.325
20
9.27
30
0
0
VERTEX
8
RASTER
10
154.245
20
9.118
30
0
0
VERTEX
8
RASTER
10
154.202
20
8.938
30
0
0
VERTEX
8
RASTER
10
154.197
20
8.738
30
0
0
VERTEX
8
RASTER
10
154.229
20
8.523
30
0
0
VERTEX
8
RASTER
10
154.298
20
8.299
30
0
0
VERTEX
8
RASTER
10
154.403
20
8.072
30
0
0
VERTEX
8
RASTER
10
154.544
20
7.85
30
0
0
SEQEND
8
RASTER
0
POLYLINE
8
RASTER
66
1
70
1
0
VERTEX
8
RASTER
10
152.123
20
8.818
30
0
0
VERTEX
8
RASTER
10
151.982
20
8.596
30
0
0
VERTEX
8
RASTER
10
151.877
20
8.369
30
0
0
VERTEX
8
RASTER
10
151.808
20
8.146
30
0
0
VERTEX
8
RASTER
10
151.776
20
7.93
30
0
0
VERTEX
8
RASTER
10
151.781
20
7.73
30
0
0
VERTEX
8
RASTER
10
151.824
20
7.55
30
0
0
VERTEX
8
RASTER
10
151.904
20
7.398
30
0
0
VERTEX
8
RASTER
10
152.023
20
7.279
30
0
0
VERTEX
8
RASTER
10
152.173
20
7.203
30
0
0
VERTEX
8
RASTER
10
152.343
20
7.173
30
0
0
VERTEX
8
RASTER
10
152.527
20
7.188
30
0
0
VERTEX
8
RASTER
10
152.719
20
7.246
30
0
0
VERTEX
8
RASTER
10
152.914
20
7.343
30
0
0
VERTEX
8
RASTER
10
153.105
20
7.477
30
0
0
VERTEX
8
RASTER
10
153.288
20
7.647
30
0
0
VERTEX
8
RASTER
10
153.456
20
7.85
30
0
0
VERTEX
8
RASTER
10
153.597
20
8.072
30
0
0
VERTEX
8
RASTER
10
153.702
20
8.299
30
0
0
VERTEX
8
RASTER
10
153.771
20
8.523
30
0
0
VERTEX
8
RASTER
10
153.803
20
8.738
30
0
0
VERTEX
8
RASTER
10
153.798
20
8.938
30
0
0
VERTEX
8
RASTER
10
153.755
20
9.118
30
0
0
VERTEX
8
RASTER
10
153.675
20
9.27
30
0
0
VERTEX
8
RASTER
10
153.556
20
9.389
30
0
0
VERTEX
8
RASTER
10
153.406
20
9.465
30
0
0
VERTEX
8
RASTER
10
153.237
20
9.495
30
0
0
VERTEX
8
RASTER
10
153.053
20
9.48
30
0
0
VERTEX
8
RASTER
10
152.86
20
9.422
30
0
0
VERTEX
8
RASTER
10
152.666
20
9.325
30
0
0
VERTEX
8
RASTER
10
152.474
20
9.191
30
0
0
VERTEX
8
RASTER
10
152.291
20
9.021
30
0
0
VERTEX
8
RASTER
10
152.123
20
8.818
30
0
0
SEQEND
8
RASTER
0
POLYLINE
8
RASTER
66
1
70
1
0
VERTEX
8
RASTER
10
152.296
20
11.42
30
0
0
VERTEX
8
RASTER
10
152.041
20
11.485
30
0
0
VERTEX
8
RASTER
10
151.793
20
11.515
30
0
0
VERTEX
8
RASTER
10
151.559
20
11.511
30
0
0
VERTEX
8
RASTER
10
151.345
20
11.475
30
0
0
VERTEX
8
RASTER
10
151.155
20
11.408
30
0
0
VERTEX
8
RASTER
10
150.998
20
11.313
30
0
0
VERTEX
8
RASTER
10
150.878
20
11.189
30
0
0
VERTEX
8
RASTER
10
150.801
20
11.039
30
0
0
VERTEX
8
RASTER
10
150.775
20
10.873
30
0
0
VERTEX
8
RASTER
10
150.8
20
10.703
30
0
0
VERTEX
8
RASTER
10
150.871
20
10.533
30
0
0
VERTEX
8
RASTER
10
150.985
20
10.367
30
0
0
VERTEX
8
RASTER
10
151.137
20
10.212
30
0
0
VERTEX
8
RASTER
10
151.324
20
10.071
30
0
0
VERTEX
8
RASTER
10
151.542
20
9.95
30
0
0
VERTEX
8
RASTER
10
151.787
20
9.853
30
0
0
VERTEX
8
RASTER
10
152.042
20
9.788
30
0
0
VERTEX
8
RASTER
10
152.29
20
9.758
30
0
0
VERTEX
8
RASTER
10
152.524
20
9.761
30
0
0
VERTEX
8
RASTER
10
152.739
20
9.797
30
0
0
VERTEX
8
RASTER
10
152.928
20
9.864
30
0
0
VERTEX
8
RASTER
10
153.085
20
9.96
30
0
0
VERTEX
8
RASTER
10
153.205
20
10.084
30
0
0
VERTEX
8
RASTER
10
153.282
20
10.233
30
0
0
VERTEX
8
RASTER
10
153.308
20
10.399
30
0
0
VERTEX
8
RASTER
10
153.284
20
10.57
30
0
0
VERTEX
8
RASTER
10
153.212
20
10.74
30
0
0
VERTEX
8
RASTER
10
153.099
20
10.905
30
0
0
VERTEX
8
RASTER
10
152.946
20
11.061
30
0
0
VERTEX
8
RASTER
10
152.759
20
11.201
30
0
0
VERTEX
8
RASTER
10
152.541
20
11.323
30
0
0
VERTEX
8
RASTER
10
152.296
20
11.42
30
0
0
SEQEND
8
RASTER
0
CIRCLE
8
RASTER
10
154
20
10
30
0
40
0.618
0
ENDSEC
0
EOF
