0
SECTION
2
HEADER
9
$ACADVER
1
AC1009
9
$EXTMIN
10
0
20
0
9
$EXTMAX
10
208.4
20
27.2
0
ENDSEC
0
SECTION
2
TABLES
0
TABLE
2
LAYER
70
2
0
LAYER
2
CUT
70
0
62
1
6
CONTINUOUS
0
LAYER
2
RASTER
70
0
62
7
6
CONTINUOUS
0
ENDTAB
0
ENDSEC
0
SECTION
2
ENTITIES
0
POLYLINE
8
CUT
66
1
70
1
0
VERTEX
8
CUT
10
4
20
21.2
30
0
0
VERTEX
8
CUT
10
4.031
20
21.669
30
0
0
VERTEX
8
CUT
10
4.125
20
22.075
30
0
0
VERTEX
8
CUT
10
4.281
20
22.419
30
0
0
VERTEX
8
CUT
10
4.5
20
22.7
30
0
0
VERTEX
8
CUT
10
4.781
20
22.919
30
0
0
VERTEX
8
CUT
10
5.125
20
23.075
30
0
0
VERTEX
8
CUT
10
5.531
20
23.169
30
0
0
VERTEX
8
CUT
10
6
20
23.2
30
0
0
VERTEX
8
CUT
10
21.2
20
23.2
30
0
0
VERTEX
8
CUT
10
21.669
20
23.169
30
0
0
VERTEX
8
CUT
10
22.075
20
23.075
30
0
0
VERTEX
8
CUT
10
22.419
20
22.919
30
0
0
VERTEX
8
CUT
10
22.7
20
22.7
30
0
0
VERTEX
8
CUT
10
22.919
20
22.419
30
0
0
VERTEX
8
CUT
10
23.075
20
22.075
30
0
0
VERTEX
8
CUT
10
23.169
20
21.669
30
0
0
VERTEX
8
CUT
10
23.2
20
21.2
30
0
0
VERTEX
8
CUT
10
23.2
20
15.1
30
0
0
VERTEX
8
CUT
10
25.156
20
15.1
30
0
0
VERTEX
8
CUT
10
25.62
20
15.511
30
0
0
VERTEX
8
CUT
10
26.176
20
15.783
30
0
0
VERTEX
8
CUT
10
26.785
20
15.897
30
0
0
VERTEX
8
CUT
10
27.402
20
15.844
30
0
0
VERTEX
8
CUT
10
27.983
20
15.629
30
0
0
VERTEX
8
CUT
10
28.485
20
15.266
30
0
0
VERTEX
8
CUT
10
28.872
20
14.783
30
0
0
VERTEX
8
CUT
10
29.117
20
14.214
30
0
0
VERTEX
8
CUT
10
29.2
20
13.6
30
0
0
VERTEX
8
CUT
10
29.117
20
12.986
30
0
0
VERTEX
8
CUT
10
28.872
20
12.417
30
0
0
VERTEX
8
CUT
10
28.485
20
11.934
30
0
0
VERTEX
8
CUT
10
27.983
20
11.571
30
0
0
VERTEX
8
CUT
10
27.402
20
11.356
30
0
0
VERTEX
8
CUT
10
26.785
20
11.303
30
0
0
VERTEX
8
CUT
10
26.176
20
11.417
30
0
0
VERTEX
8
CUT
10
25.62
20
11.689
30
0
0
VERTEX
8
CUT
10
25.156
20
12.1
30
0
0
VERTEX
8
CUT
10
23.2
20
12.1
30
0
0
VERTEX
8
CUT
10
23.2
20
6
30
0
0
VERTEX
8
CUT
10
23.169
20
5.531
30
0
0
VERTEX
8
CUT
10
23.075
20
5.125
30
0
0
VERTEX
8
CUT
10
22.919
20
4.781
30
0
0
VERTEX
8
CUT
10
22.7
20
4.5
30
0
0
VERTEX
8
CUT
10
22.419
20
4.281
30
0
0
VERTEX
8
CUT
10
22.075
20
4.125
30
0
0
VERTEX
8
CUT
10
21.669
20
4.031
30
0
0
VERTEX
8
CUT
10
21.2
20
4
30
0
0
VERTEX
8
CUT
10
6
20
4
30
0
0
VERTEX
8
CUT
10
5.531
20
4.031
30
0
0
VERTEX
8
CUT
10
5.125
20
4.125
30
0
0
VERTEX
8
CUT
10
4.781
20
4.281
30
0
0
VERTEX
8
CUT
10
4.5
20
4.5
30
0
0
VERTEX
8
CUT
10
4.281
20
4.781
30
0
0
VERTEX
8
CUT
10
4.125
20
5.125
30
0
0
VERTEX
8
CUT
10
4.031
20
5.531
30
0
0
VERTEX
8
CUT
10
4
20
6
30
0
0
SEQEND
8
CUT
0
POLYLINE
8
RASTER
66
1
70
1
0
VERTEX
8
RASTER
10
10.374
20
16.342
30
0
0
VERTEX
8
RASTER
10
10.382
20
16.455
30
0
0
VERTEX
8
RASTER
10
10.405
20
16.553
30
0
0
VERTEX
8
RASTER
10
10.442
20
16.637
30
0
0
VERTEX
8
RASTER
10
10.495
20
16.705
30
0
0
VERTEX
8
RASTER
10
10.563
20
16.758
30
0
0
VERTEX
8
RASTER
10
10.647
20
16.795
30
0
0
VERTEX
8
RASTER
10
10.745
20
16.818
30
0
0
VERTEX
8
RASTER
10
10.858
20
16.826
30
0
0
VERTEX
8
RASTER
10
20.858
20
16.826
30
0
0
VERTEX
8
RASTER
10
20.971
20
16.818
30
0
0
VERTEX
8
RASTER
10
21.069
20
16.795
30
0
0
VERTEX
8
RASTER
10
21.152
20
16.758
30
0
0
VERTEX
8
RASTER
10
21.22
20
16.705
30
0
0
VERTEX
8
RASTER
10
21.273
20
16.637
30
0
0
VERTEX
8
RASTER
10
21.311
20
16.553
30
0
0
VERTEX
8
RASTER
10
21.334
20
16.455
30
0
0
VERTEX
8
RASTER
10
21.341
20
16.342
30
0
0
VERTEX
8
RASTER
10
21.341
20
10.858
30
0
0
VERTEX
8
RASTER
10
21.334
20
10.745
30
0
0
VERTEX
8
RASTER
10
21.311
20
10.647
30
0
0
VERTEX
8
RASTER
10
21.273
20
10.563
30
0
0
VERTEX
8
RASTER
10
21.22
20
10.495
30
0
0
VERTEX
8
RASTER
10
21.152
20
10.442
30
0
0
VERTEX
8
RASTER
10
21.069
20
10.405
30
0
0
VERTEX
8
RASTER
10
20.971
20
10.382
30
0
0
VERTEX
8
RASTER
10
20.858
20
10.374
30
0
0
VERTEX
8
RASTER
10
10.858
20
10.374
30
0
0
VERTEX
8
RASTER
10
10.745
20
10.382
30
0
0
VERTEX
8
RASTER
10
10.647
20
10.405
30
0
0
VERTEX
8
RASTER
10
10.563
20
10.442
30
0
0
VERTEX
8
RASTER
10
10.495
20
10.495
30
0
0
VERTEX
8
RASTER
10
10.442
20
10.563
30
0
0
VERTEX
8
RASTER
10
10.405
20
10.647
30
0
0
VERTEX
8
RASTER
10
10.382
20
10.745
30
0
0
VERTEX
8
RASTER
10
10.374
20
10.858
30
0
0
SEQEND
8
RASTER
0
POLYLINE
8
RASTER
66
1
70
1
0
VERTEX
8
RASTER
10
12.439
20
16.342
30
0
0
VERTEX
8
RASTER
10
12.439
20
10.858
30
0
0
VERTEX
8
RASTER
10
12.826
20
10.858
30
0
0
VERTEX
8
RASTER
10
12.826
20
16.342
30
0
0
VERTEX
8
RASTER
10
12.439
20
16.342
30
0
0
SEQEND
8
RASTER
0
POLYLINE
8
RASTER
66
1
70
1
0
VERTEX
8
RASTER
10
14.374
20
16.342
30
0
0
VERTEX
8
RASTER
10
14.374
20
10.858
30
0
0
VERTEX
8
RASTER
10
14.761
20
10.858
30
0
0
VERTEX
8
RASTER
10
14.761
20
16.342
30
0
0
VERTEX
8
RASTER
10
14.374
20
16.342
30
0
0
SEQEND
8
RASTER
0
POLYLINE
8
RASTER
66
1
70
1
0
VERTEX
8
RASTER
10
16.31
20
16.342
30
0
0
VERTEX
8
RASTER
10
16.31
20
10.858
30
0
0
VERTEX
8
RASTER
10
16.697
20
10.858
30
0
0
VERTEX
8
RASTER
10
16.697
20
16.342
30
0
0
VERTEX
8
RASTER
10
16.31
20
16.342
30
0
0
SEQEND
8
RASTER
0
POLYLINE
8
RASTER
66
1
70
1
0
VERTEX
8
RASTER
10
18.245
20
16.342
30
0
0
VERTEX
8
RASTER
10
18.245
20
10.858
30
0
0
VERTEX
8
RASTER
10
18.632
20
10.858
30
0
0
VERTEX
8
RASTER
10
18.632
20
16.342
30
0
0
VERTEX
8
RASTER
10
18.245
20
16.342
30
0
0
SEQEND
8
RASTER
0
POLYLINE
8
RASTER
66
1
70
1
0
VERTEX
8
RASTER
10
20.18
20
16.342
30
0
0
VERTEX
8
RASTER
10
20.18
20
10.858
30
0
0
VERTEX
8
RASTER
10
20.567
20
10.858
30
0
0
VERTEX
8
RASTER
10
20.567
20
16.342
30
0
0
VERTEX
8
RASTER
10
20.18
20
16.342
30
0
0
SEQEND
8
RASTER
0
CIRCLE
8
RASTER
10
9.407
20
18.116
30
0
40
0.806
0
CIRCLE
8
RASTER
10
9.407
20
9.084
30
0
40
0.806
0
POLYLINE
8
CUT
66
1
70
1
0
VERTEX
8
CUT
10
33.2
20
21.2
30
0
0
VERTEX
8
CUT
10
33.231
20
21.669
30
0
0
VERTEX
8
CUT
10
33.325
20
22.075
30
0
0
VERTEX
8
CUT
10
33.481
20
22.419
30
0
0
VERTEX
8
CUT
10
33.7
20
22.7
30
0
0
VERTEX
8
CUT
10
33.981
20
22.919
30
0
0
VERTEX
8
CUT
10
34.325
20
23.075
30
0
0
VERTEX
8
CUT
10
34.731
20
23.169
30
0
0
VERTEX
8
CUT
10
35.2
20
23.2
30
0
0
VERTEX
8
CUT
10
50.4
20
23.2
30
0
0
VERTEX
8
CUT
10
50.869
20
23.169
30
0
0
VERTEX
8
CUT
10
51.275
20
23.075
30
0
0
VERTEX
8
CUT
10
51.619
20
22.919
30
0
0
VERTEX
8
CUT
10
51.9
20
22.7
30
0
0
VERTEX
8
CUT
10
52.119
20
22.419
30
0
0
VERTEX
8
CUT
10
52.275
20
22.075
30
0
0
VERTEX
8
CUT
10
52.369
20
21.669
30
0
0
VERTEX
8
CUT
10
52.4
20
21.2
30
0
0
VERTEX
8
CUT
10
52.4
20
15.1
30
0
0
VERTEX
8
CUT
10
54.356
20
15.1
30
0
0
VERTEX
8
CUT
10
54.82
20
15.511
30
0
0
VERTEX
8
CUT
10
55.376
20
15.783
30
0
0
VERTEX
8
CUT
10
55.985
20
15.897
30
0
0
VERTEX
8
CUT
10
56.602
20
15.844
30
0
0
VERTEX
8
CUT
10
57.183
20
15.629
30
0
0
VERTEX
8
CUT
10
57.685
20
15.266
30
0
0
VERTEX
8
CUT
10
58.072
20
14.783
30
0
0
VERTEX
8
CUT
10
58.317
20
14.214
30
0
0
VERTEX
8
CUT
10
58.4
20
13.6
30
0
0
VERTEX
8
CUT
10
58.317
20
12.986
30
0
0
VERTEX
8
CUT
10
58.072
20
12.417
30
0
0
VERTEX
8
CUT
10
57.685
20
11.934
30
0
0
VERTEX
8
CUT
10
57.183
20
11.571
30
0
0
VERTEX
8
CUT
10
56.602
20
11.356
30
0
0
VERTEX
8
CUT
10
55.985
20
11.303
30
0
0
VERTEX
8
CUT
10
55.376
20
11.417
30
0
0
VERTEX
8
CUT
10
54.82
20
11.689
30
0
0
VERTEX
8
CUT
10
54.356
20
12.1
30
0
0
VERTEX
8
CUT
10
52.4
20
12.1
30
0
0
VERTEX
8
CUT
10
52.4
20
6
30
0
0
VERTEX
8
CUT
10
52.369
20
5.531
30
0
0
VERTEX
8
CUT
10
52.275
20
5.125
30
0
0
VERTEX
8
CUT
10
52.119
20
4.781
30
0
0
VERTEX
8
CUT
10
51.9
20
4.5
30
0
0
VERTEX
8
CUT
10
51.619
20
4.281
30
0
0
VERTEX
8
CUT
10
51.275
20
4.125
30
0
0
VERTEX
8
CUT
10
50.869
20
4.031
30
0
0
VERTEX
8
CUT
10
50.4
20
4
30
0
0
VERTEX
8
CUT
10
35.2
20
4
30
0
0
VERTEX
8
CUT
10
34.731
20
4.031
30
0
0
VERTEX
8
CUT
10
34.325
20
4.125
30
0
0
VERTEX
8
CUT
10
33.981
20
4.281
30
0
0
VERTEX
8
CUT
10
33.7
20
4.5
30
0
0
VERTEX
8
CUT
10
33.481
20
4.781
30
0
0
VERTEX
8
CUT
10
33.325
20
5.125
30
0
0
VERTEX
8
CUT
10
33.231
20
5.531
30
0
0
VERTEX
8
CUT
10
33.2
20
6
30
0
0
SEQEND
8
CUT
0
POLYLINE
8
RASTER
66
1
70
1
0
VERTEX
8
RASTER
10
39.574
20
16.342
30
0
0
VERTEX
8
RASTER
10
39.582
20
16.455
30
0
0
VERTEX
8
RASTER
10
39.605
20
16.553
30
0
0
VERTEX
8
RASTER
10
39.642
20
16.637
30
0
0
VERTEX
8
RASTER
10
39.695
20
16.705
30
0
0
VERTEX
8
RASTER
10
39.763
20
16.758
30
0
0
VERTEX
8
RASTER
10
39.847
20
16.795
30
0
0
VERTEX
8
RASTER
10
39.945
20
16.818
30
0
0
VERTEX
8
RASTER
10
40.058
20
16.826
30
0
0
VERTEX
8
RASTER
10
50.058
20
16.826
30
0
0
VERTEX
8
RASTER
10
50.171
20
16.818
30
0
0
VERTEX
8
RASTER
10
50.269
20
16.795
30
0
0
VERTEX
8
RASTER
10
50.352
20
16.758
30
0
0
VERTEX
8
RASTER
10
50.42
20
16.705
30
0
0
VERTEX
8
RASTER
10
50.473
20
16.637
30
0
0
VERTEX
8
RASTER
10
50.511
20
16.553
30
0
0
VERTEX
8
RASTER
10
50.534
20
16.455
30
0
0
VERTEX
8
RASTER
10
50.541
20
16.342
30
0
0
VERTEX
8
RASTER
10
50.541
20
10.858
30
0
0
VERTEX
8
RASTER
10
50.534
20
10.745
30
0
0
VERTEX
8
RASTER
10
50.511
20
10.647
30
0
0
VERTEX
8
RASTER
10
50.473
20
10.563
30
0
0
VERTEX
8
RASTER
10
50.42
20
10.495
30
0
0
VERTEX
8
RASTER
10
50.352
20
10.442
30
0
0
VERTEX
8
RASTER
10
50.269
20
10.405
30
0
0
VERTEX
8
RASTER
10
50.171
20
10.382
30
0
0
VERTEX
8
RASTER
10
50.058
20
10.374
30
0
0
VERTEX
8
RASTER
10
40.058
20
10.374
30
0
0
VERTEX
8
RASTER
10
39.945
20
10.382
30
0
0
VERTEX
8
RASTER
10
39.847
20
10.405
30
0
0
VERTEX
8
RASTER
10
39.763
20
10.442
30
0
0
VERTEX
8
RASTER
10
39.695
20
10.495
30
0
0
VERTEX
8
RASTER
10
39.642
20
10.563
30
0
0
VERTEX
8
RASTER
10
39.605
20
10.647
30
0
0
VERTEX
8
RASTER
10
39.582
20
10.745
30
0
0
VERTEX
8
RASTER
10
39.574
20
10.858
30
0
0
SEQEND
8
RASTER
0
POLYLINE
8
RASTER
66
1
70
1
0
VERTEX
8
RASTER
10
41.639
20
16.342
30
0
0
VERTEX
8
RASTER
10
41.639
20
10.858
30
0
0
VERTEX
8
RASTER
10
42.026
20
10.858
30
0
0
VERTEX
8
RASTER
10
42.026
20
16.342
30
0
0
VERTEX
8
RASTER
10
41.639
20
16.342
30
0
0
SEQEND
8
RASTER
0
POLYLINE
8
RASTER
66
1
70
1
0
VERTEX
8
RASTER
10
43.574
20
16.342
30
0
0
VERTEX
8
RASTER
10
43.574
20
10.858
30
0
0
VERTEX
8
RASTER
10
43.961
20
10.858
30
0
0
VERTEX
8
RASTER
10
43.961
20
16.342
30
0
0
VERTEX
8
RASTER
10
43.574
20
16.342
30
0
0
SEQEND
8
RASTER
0
POLYLINE
8
RASTER
66
1
70
1
0
VERTEX
8
RASTER
10
45.51
20
16.342
30
0
0
VERTEX
8
RASTER
10
45.51
20
10.858
30
0
0
VERTEX
8
RASTER
10
45.897
20
10.858
30
0
0
VERTEX
8
RASTER
10
45.897
20
16.342
30
0
0
VERTEX
8
RASTER
10
45.51
20
16.342
30
0
0
SEQEND
8
RASTER
0
POLYLINE
8
RASTER
66
1
70
1
0
VERTEX
8
RASTER
10
47.445
20
16.342
30
0
0
VERTEX
8
RASTER
10
47.445
20
10.858
30
0
0
VERTEX
8
RASTER
10
47.832
20
10.858
30
0
0
VERTEX
8
RASTER
10
47.832
20
16.342
30
0
0
VERTEX
8
RASTER
10
47.445
20
16.342
30
0
0
SEQEND
8
RASTER
0
POLYLINE
8
RASTER
66
1
70
1
0
VERTEX
8
RASTER
10
49.38
20
16.342
30
0
0
VERTEX
8
RASTER
10
49.38
20
10.858
30
0
0
VERTEX
8
RASTER
10
49.767
20
10.858
30
0
0
VERTEX
8
RASTER
10
49.767
20
16.342
30
0
0
VERTEX
8
RASTER
10
49.38
20
16.342
30
0
0
SEQEND
8
RASTER
0
CIRCLE
8
RASTER
10
38.607
20
18.116
30
0
40
0.806
0
CIRCLE
8
RASTER
10
38.607
20
9.084
30
0
40
0.806
0
POLYLINE
8
CUT
66
1
70
1
0
VERTEX
8
CUT
10
62.4
20
21.2
30
0
0
VERTEX
8
CUT
10
62.431
20
21.669
30
0
0
VERTEX
8
CUT
10
62.525
20
22.075
30
0
0
VERTEX
8
CUT
10
62.681
20
22.419
30
0
0
VERTEX
8
CUT
10
62.9
20
22.7
30
0
0
VERTEX
8
CUT
10
63.181
20
22.919
30
0
0
VERTEX
8
CUT
10
63.525
20
23.075
30
0
0
VERTEX
8
CUT
10
63.931
20
23.169
30
0
0
VERTEX
8
CUT
10
64.4
20
23.2
30
0
0
VERTEX
8
CUT
10
79.6
20
23.2
30
0
0
VERTEX
8
CUT
10
80.069
20
23.169
30
0
0
VERTEX
8
CUT
10
80.475
20
23.075
30
0
0
VERTEX
8
CUT
10
80.819
20
22.919
30
0
0
VERTEX
8
CUT
10
81.1
20
22.7
30
0
0
VERTEX
8
CUT
10
81.319
20
22.419
30
0
0
VERTEX
8
CUT
10
81.475
20
22.075
30
0
0
VERTEX
8
CUT
10
81.569
20
21.669
30
0
0
VERTEX
8
CUT
10
81.6
20
21.2
30
0
0
VERTEX
8
CUT
10
81.6
20
15.1
30
0
0
VERTEX
8
CUT
10
83.556
20
15.1
30
0
0
VERTEX
8
CUT
10
84.02
20
15.511
30
0
0
VERTEX
8
CUT
10
84.576
20
15.783
30
0
0
VERTEX
8
CUT
10
85.185
20
15.897
30
0
0
VERTEX
8
CUT
10
85.802
20
15.844
30
0
0
VERTEX
8
CUT
10
86.383
20
15.629
30
0
0
VERTEX
8
CUT
10
86.885
20
15.266
30
0
0
VERTEX
8
CUT
10
87.272
20
14.783
30
0
0
VERTEX
8
CUT
10
87.517
20
14.214
30
0
0
VERTEX
8
CUT
10
87.6
20
13.6
30
0
0
VERTEX
8
CUT
10
87.517
20
12.986
30
0
0
VERTEX
8
CUT
10
87.272
20
12.417
30
0
0
VERTEX
8
CUT
10
86.885
20
11.934
30
0
0
VERTEX
8
CUT
10
86.383
20
11.571
30
0
0
VERTEX
8
CUT
10
85.802
20
11.356
30
0
0
VERTEX
8
CUT
10
85.185
20
11.303
30
0
0
VERTEX
8
CUT
10
84.576
20
11.417
30
0
0
VERTEX
8
CUT
10
84.02
20
11.689
30
0
0
VERTEX
8
CUT
10
83.556
20
12.1
30
0
0
VERTEX
8
CUT
10
81.6
20
12.1
30
0
0
VERTEX
8
CUT
10
81.6
20
6
30
0
0
VERTEX
8
CUT
10
81.569
20
5.531
30
0
0
VERTEX
8
CUT
10
81.475
20
5.125
30
0
0
VERTEX
8
CUT
10
81.319
20
4.781
30
0
0
VERTEX
8
CUT
10
81.1
20
4.5
30
0
0
VERTEX
8
CUT
10
80.819
20
4.281
30
0
0
VERTEX
8
CUT
10
80.475
20
4.125
30
0
0
VERTEX
8
CUT
10
80.069
20
4.031
30
0
0
VERTEX
8
CUT
10
79.6
20
4
30
0
0
VERTEX
8
CUT
10
64.4
20
4
30
0
0
VERTEX
8
CUT
10
63.931
20
4.031
30
0
0
VERTEX
8
CUT
10
63.525
20
4.125
30
0
0
VERTEX
8
CUT
10
63.181
20
4.281
30
0
0
VERTEX
8
CUT
10
62.9
20
4.5
30
0
0
VERTEX
8
CUT
10
62.681
20
4.781
30
0
0
VERTEX
8
CUT
10
62.525
20
5.125
30
0
0
VERTEX
8
CUT
10
62.431
20
5.531
30
0
0
VERTEX
8
CUT
10
62.4
20
6
30
0
0
SEQEND
8
CUT
0
POLYLINE
8
RASTER
66
1
70
1
0
VERTEX
8
RASTER
10
68.774
20
16.342
30
0
0
VERTEX
8
RASTER
10
68.782
20
16.455
30
0
0
VERTEX
8
RASTER
10
68.805
20
16.553
30
0
0
VERTEX
8
RASTER
10
68.842
20
16.637
30
0
0
VERTEX
8
RASTER
10
68.895
20
16.705
30
0
0
VERTEX
8
RASTER
10
68.963
20
16.758
30
0
0
VERTEX
8
RASTER
10
69.047
20
16.795
30
0
0
VERTEX
8
RASTER
10
69.145
20
16.818
30
0
0
VERTEX
8
RASTER
10
69.258
20
16.826
30
0
0
VERTEX
8
RASTER
10
79.258
20
16.826
30
0
0
VERTEX
8
RASTER
10
79.371
20
16.818
30
0
0
VERTEX
8
RASTER
10
79.469
20
16.795
30
0
0
VERTEX
8
RASTER
10
79.552
20
16.758
30
0
0
VERTEX
8
RASTER
10
79.62
20
16.705
30
0
0
VERTEX
8
RASTER
10
79.673
20
16.637
30
0
0
VERTEX
8
RASTER
10
79.711
20
16.553
30
0
0
VERTEX
8
RASTER
10
79.734
20
16.455
30
0
0
VERTEX
8
RASTER
10
79.741
20
16.342
30
0
0
VERTEX
8
RASTER
10
79.741
20
10.858
30
0
0
VERTEX
8
RASTER
10
79.734
20
10.745
30
0
0
VERTEX
8
RASTER
10
79.711
20
10.647
30
0
0
VERTEX
8
RASTER
10
79.673
20
10.563
30
0
0
VERTEX
8
RASTER
10
79.62
20
10.495
30
0
0
VERTEX
8
RASTER
10
79.552
20
10.442
30
0
0
VERTEX
8
RASTER
10
79.469
20
10.405
30
0
0
VERTEX
8
RASTER
10
79.371
20
10.382
30
0
0
VERTEX
8
RASTER
10
79.258
20
10.374
30
0
0
VERTEX
8
RASTER
10
69.258
20
10.374
30
0
0
VERTEX
8
RASTER
10
69.145
20
10.382
30
0
0
VERTEX
8
RASTER
10
69.047
20
10.405
30
0
0
VERTEX
8
RASTER
10
68.963
20
10.442
30
0
0
VERTEX
8
RASTER
10
68.895
20
10.495
30
0
0
VERTEX
8
RASTER
10
68.842
20
10.563
30
0
0
VERTEX
8
RASTER
10
68.805
20
10.647
30
0
0
VERTEX
8
RASTER
10
68.782
20
10.745
30
0
0
VERTEX
8
RASTER
10
68.774
20
10.858
30
0
0
SEQEND
8
RASTER
0
POLYLINE
8
RASTER
66
1
70
1
0
VERTEX
8
RASTER
10
70.839
20
16.342
30
0
0
VERTEX
8
RASTER
10
70.839
20
10.858
30
0
0
VERTEX
8
RASTER
10
71.226
20
10.858
30
0
0
VERTEX
8
RASTER
10
71.226
20
16.342
30
0
0
VERTEX
8
RASTER
10
70.839
20
16.342
30
0
0
SEQEND
8
RASTER
0
POLYLINE
8
RASTER
66
1
70
1
0
VERTEX
8
RASTER
10
72.774
20
16.342
30
0
0
VERTEX
8
RASTER
10
72.774
20
10.858
30
0
0
VERTEX
8
RASTER
10
73.161
20
10.858
30
0
0
VERTEX
8
RASTER
10
73.161
20
16.342
30
0
0
VERTEX
8
RASTER
10
72.774
20
16.342
30
0
0
SEQEND
8
RASTER
0
POLYLINE
8
RASTER
66
1
70
1
0
VERTEX
8
RASTER
10
74.71
20
16.342
30
0
0
VERTEX
8
RASTER
10
74.71
20
10.858
30
0
0
VERTEX
8
RASTER
10
75.097
20
10.858
30
0
0
VERTEX
8
RASTER
10
75.097
20
16.342
30
0
0
VERTEX
8
RASTER
10
74.71
20
16.342
30
0
0
SEQEND
8
RASTER
0
POLYLINE
8
RASTER
66
1
70
1
0
VERTEX
8
RASTER
10
76.645
20
16.342
30
0
0
VERTEX
8
RASTER
10
76.645
20
10.858
30
0
0
VERTEX
8
RASTER
10
77.032
20
10.858
30
0
0
VERTEX
8
RASTER
10
77.032
20
16.342
30
0
0
VERTEX
8
RASTER
10
76.645
20
16.342
30
0
0
SEQEND
8
RASTER
0
POLYLINE
8
RASTER
66
1
70
1
0
VERTEX
8
RASTER
10
78.58
20
16.342
30
0
0
VERTEX
8
RASTER
10
78.58
20
10.858
30
0
0
VERTEX
8
RASTER
10
78.967
20
10.858
30
0
0
VERTEX
8
RASTER
10
78.967
20
16.342
30
0
0
VERTEX
8
RASTER
10
78.58
20
16.342
30
0
0
SEQEND
8
RASTER
0
CIRCLE
8
RASTER
10
67.807
20
18.116
30
0
40
0.806
0
CIRCLE
8
RASTER
10
67.807
20
9.084
30
0
40
0.806
0
POLYLINE
8
CUT
66
1
70
1
0
VERTEX
8
CUT
10
91.6
20
21.2
30
0
0
VERTEX
8
CUT
10
91.631
20
21.669
30
0
0
VERTEX
8
CUT
10
91.725
20
22.075
30
0
0
VERTEX
8
CUT
10
91.881
20
22.419
30
0
0
VERTEX
8
CUT
10
92.1
20
22.7
30
0
0
VERTEX
8
CUT
10
92.381
20
22.919
30
0
0
VERTEX
8
CUT
10
92.725
20
23.075
30
0
0
VERTEX
8
CUT
10
93.131
20
23.169
30
0
0
VERTEX
8
CUT
10
93.6
20
23.2
30
0
0
VERTEX
8
CUT
10
108.8
20
23.2
30
0
0
VERTEX
8
CUT
10
109.269
20
23.169
30
0
0
VERTEX
8
CUT
10
109.675
20
23.075
30
0
0
VERTEX
8
CUT
10
110.019
20
22.919
30
0
0
VERTEX
8
CUT
10
110.3
20
22.7
30
0
0
VERTEX
8
CUT
10
110.519
20
22.419
30
0
0
VERTEX
8
CUT
10
110.675
20
22.075
30
0
0
VERTEX
8
CUT
10
110.769
20
21.669
30
0
0
VERTEX
8
CUT
10
110.8
20
21.2
30
0
0
VERTEX
8
CUT
10
110.8
20
15.1
30
0
0
VERTEX
8
CUT
10
112.756
20
15.1
30
0
0
VERTEX
8
CUT
10
113.22
20
15.511
30
0
0
VERTEX
8
CUT
10
113.776
20
15.783
30
0
0
VERTEX
8
CUT
10
114.385
20
15.897
30
0
0
VERTEX
8
CUT
10
115.002
20
15.844
30
0
0
VERTEX
8
CUT
10
115.583
20
15.629
30
0
0
VERTEX
8
CUT
10
116.085
20
15.266
30
0
0
VERTEX
8
CUT
10
116.472
20
14.783
30
0
0
VERTEX
8
CUT
10
116.717
20
14.214
30
0
0
VERTEX
8
CUT
10
116.8
20
13.6
30
0
0
VERTEX
8
CUT
10
116.717
20
12.986
30
0
0
VERTEX
8
CUT
10
116.472
20
12.417
30
0
0
VERTEX
8
CUT
10
116.085
20
11.934
30
0
0
VERTEX
8
CUT
10
115.583
20
11.571
30
0
0
VERTEX
8
CUT
10
115.002
20
11.356
30
0
0
VERTEX
8
CUT
10
114.385
20
11.303
30
0
0
VERTEX
8
CUT
10
113.776
20
11.417
30
0
0
VERTEX
8
CUT
10
113.22
20
11.689
30
0
0
VERTEX
8
CUT
10
112.756
20
12.1
30
0
0
VERTEX
8
CUT
10
110.8
20
12.1
30
0
0
VERTEX
8
CUT
10
110.8
20
6
30
0
0
VERTEX
8
CUT
10
110.769
20
5.531
30
0
0
VERTEX
8
CUT
10
110.675
20
5.125
30
0
0
VERTEX
8
CUT
10
110.519
20
4.781
30
0
0
VERTEX
8
CUT
10
110.3
20
4.5
30
0
0
VERTEX
8
CUT
10
110.019
20
4.281
30
0
0
VERTEX
8
CUT
10
109.675
20
4.125
30
0
0
VERTEX
8
CUT
10
109.269
20
4.031
30
0
0
VERTEX
8
CUT
10
108.8
20
4
30
0
0
VERTEX
8
CUT
10
93.6
20
4
30
0
0
VERTEX
8
CUT
10
93.131
20
4.031
30
0
0
VERTEX
8
CUT
10
92.725
20
4.125
30
0
0
VERTEX
8
CUT
10
92.381
20
4.281
30
0
0
VERTEX
8
CUT
10
92.1
20
4.5
30
0
0
VERTEX
8
CUT
10
91.881
20
4.781
30
0
0
VERTEX
8
CUT
10
91.725
20
5.125
30
0
0
VERTEX
8
CUT
10
91.631
20
5.531
30
0
0
VERTEX
8
CUT
10
91.6
20
6
30
0
0
SEQEND
8
CUT
0
POLYLINE
8
RASTER
66
1
70
1
0
VERTEX
8
RASTER
10
97.974
20
16.342
30
0
0
VERTEX
8
RASTER
10
97.982
20
16.455
30
0
0
VERTEX
8
RASTER
10
98.005
20
16.553
30
0
0
VERTEX
8
RASTER
10
98.042
20
16.637
30
0
0
VERTEX
8
RASTER
10
98.095
20
16.705
30
0
0
VERTEX
8
RASTER
10
98.163
20
16.758
30
0
0
VERTEX
8
RASTER
10
98.247
20
16.795
30
0
0
VERTEX
8
RASTER
10
98.345
20
16.818
30
0
0
VERTEX
8
RASTER
10
98.458
20
16.826
30
0
0
VERTEX
8
RASTER
10
108.458
20
16.826
30
0
0
VERTEX
8
RASTER
10
108.571
20
16.818
30
0
0
VERTEX
8
RASTER
10
108.669
20
16.795
30
0
0
VERTEX
8
RASTER
10
108.752
20
16.758
30
0
0
VERTEX
8
RASTER
10
108.82
20
16.705
30
0
0
VERTEX
8
RASTER
10
108.873
20
16.637
30
0
0
VERTEX
8
RASTER
10
108.911
20
16.553
30
0
0
VERTEX
8
RASTER
10
108.934
20
16.455
30
0
0
VERTEX
8
RASTER
10
108.941
20
16.342
30
0
0
VERTEX
8
RASTER
10
108.941
20
10.858
30
0
0
VERTEX
8
RASTER
10
108.934
20
10.745
30
0
0
VERTEX
8
RASTER
10
108.911
20
10.647
30
0
0
VERTEX
8
RASTER
10
108.873
20
10.563
30
0
0
VERTEX
8
RASTER
10
108.82
20
10.495
30
0
0
VERTEX
8
RASTER
10
108.752
20
10.442
30
0
0
VERTEX
8
RASTER
10
108.669
20
10.405
30
0
0
VERTEX
8
RASTER
10
108.571
20
10.382
30
0
0
VERTEX
8
RASTER
10
108.458
20
10.374
30
0
0
VERTEX
8
RASTER
10
98.458
20
10.374
30
0
0
VERTEX
8
RASTER
10
98.345
20
10.382
30
0
0
VERTEX
8
RASTER
10
98.247
20
10.405
30
0
0
VERTEX
8
RASTER
10
98.163
20
10.442
30
0
0
VERTEX
8
RASTER
10
98.095
20
10.495
30
0
0
VERTEX
8
RASTER
10
98.042
20
10.563
30
0
0
VERTEX
8
RASTER
10
98.005
20
10.647
30
0
0
VERTEX
8
RASTER
10
97.982
20
10.745
30
0
0
VERTEX
8
RASTER
10
97.974
20
10.858
30
0
0
SEQEND
8
RASTER
0
POLYLINE
8
RASTER
66
1
70
1
0
VERTEX
8
RASTER
10
100.039
20
16.342
30
0
0
VERTEX
8
RASTER
10
100.039
20
10.858
30
0
0
VERTEX
8
RASTER
10
100.426
20
10.858
30
0
0
VERTEX
8
RASTER
10
100.426
20
16.342
30
0
0
VERTEX
8
RASTER
10
100.039
20
16.342
30
0
0
SEQEND
8
RASTER
0
POLYLINE
8
RASTER
66
1
70
1
0
VERTEX
8
RASTER
10
101.974
20
16.342
30
0
0
VERTEX
8
RASTER
10
101.974
20
10.858
30
0
0
VERTEX
8
RASTER
10
102.361
20
10.858
30
0
0
VERTEX
8
RASTER
10
102.361
20
16.342
30
0
0
VERTEX
8
RASTER
10
101.974
20
16.342
30
0
0
SEQEND
8
RASTER
0
POLYLINE
8
RASTER
66
1
70
1
0
VERTEX
8
RASTER
10
103.91
20
16.342
30
0
0
VERTEX
8
RASTER
10
103.91
20
10.858
30
0
0
VERTEX
8
RASTER
10
104.297
20
10.858
30
0
0
VERTEX
8
RASTER
10
104.297
20
16.342
30
0
0
VERTEX
8
RASTER
10
103.91
20
16.342
30
0
0
SEQEND
8
RASTER
0
POLYLINE
8
RASTER
66
1
70
1
0
VERTEX
8
RASTER
10
105.845
20
16.342
30
0
0
VERTEX
8
RASTER
10
105.845
20
10.858
30
0
0
VERTEX
8
RASTER
10
106.232
20
10.858
30
0
0
VERTEX
8
RASTER
10
106.232
20
16.342
30
0
0
VERTEX
8
RASTER
10
105.845
20
16.342
30
0
0
SEQEND
8
RASTER
0
POLYLINE
8
RASTER
66
1
70
1
0
VERTEX
8
RASTER
10
107.78
20
16.342
30
0
0
VERTEX
8
RASTER
10
107.78
20
10.858
30
0
0
VERTEX
8
RASTER
10
108.167
20
10.858
30
0
0
VERTEX
8
RASTER
10
108.167
20
16.342
30
0
0
VERTEX
8
RASTER
10
107.78
20
16.342
30
0
0
SEQEND
8
RASTER
0
CIRCLE
8
RASTER
10
97.007
20
18.116
30
0
40
0.806
0
CIRCLE
8
RASTER
10
97.007
20
9.084
30
0
40
0.806
0
POLYLINE
8
CUT
66
1
70
1
0
VERTEX
8
CUT
10
120.8
20
21.2
30
0
0
VERTEX
8
CUT
10
120.831
20
21.669
30
0
0
VERTEX
8
CUT
10
120.925
20
22.075
30
0
0
VERTEX
8
CUT
10
121.081
20
22.419
30
0
0
VERTEX
8
CUT
10
121.3
20
22.7
30
0
0
VERTEX
8
CUT
10
121.581
20
22.919
30
0
0
VERTEX
8
CUT
10
121.925
20
23.075
30
0
0
VERTEX
8
CUT
10
122.331
20
23.169
30
0
0
VERTEX
8
CUT
10
122.8
20
23.2
30
0
0
VERTEX
8
CUT
10
138
20
23.2
30
0
0
VERTEX
8
CUT
10
138.469
20
23.169
30
0
0
VERTEX
8
CUT
10
138.875
20
23.075
30
0
0
VERTEX
8
CUT
10
139.219
20
22.919
30
0
0
VERTEX
8
CUT
10
139.5
20
22.7
30
0
0
VERTEX
8
CUT
10
139.719
20
22.419
30
0
0
VERTEX
8
CUT
10
139.875
20
22.075
30
0
0
VERTEX
8
CUT
10
139.969
20
21.669
30
0
0
VERTEX
8
CUT
10
140
20
21.2
30
0
0
VERTEX
8
CUT
10
140
20
15.1
30
0
0
VERTEX
8
CUT
10
141.956
20
15.1
30
0
0
VERTEX
8
CUT
10
142.42
20
15.511
30
0
0
VERTEX
8
CUT
10
142.976
20
15.783
30
0
0
VERTEX
8
CUT
10
143.585
20
15.897
30
0
0
VERTEX
8
CUT
10
144.202
20
15.844
30
0
0
VERTEX
8
CUT
10
144.783
20
15.629
30
0
0
VERTEX
8
CUT
10
145.285
20
15.266
30
0
0
VERTEX
8
CUT
10
145.672
20
14.783
30
0
0
VERTEX
8
CUT
10
145.917
20
14.214
30
0
0
VERTEX
8
CUT
10
146
20
13.6
30
0
0
VERTEX
8
CUT
10
145.917
20
12.986
30
0
0
VERTEX
8
CUT
10
145.672
20
12.417
30
0
0
VERTEX
8
CUT
10
145.285
20
11.934
30
0
0
VERTEX
8
CUT
10
144.783
20
11.571
30
0
0
VERTEX
8
CUT
10
144.202
20
11.356
30
0
0
VERTEX
8
CUT
10
143.585
20
11.303
30
0
0
VERTEX
8
CUT
10
142.976
20
11.417
30
0
0
VERTEX
8
CUT
10
142.42
20
11.689
30
0
0
VERTEX
8
CUT
10
141.956
20
12.1
30
0
0
VERTEX
8
CUT
10
140
20
12.1
30
0
0
VERTEX
8
CUT
10
140
20
6
30
0
0
VERTEX
8
CUT
10
139.969
20
5.531
30
0
0
VERTEX
8
CUT
10
139.875
20
5.125
30
0
0
VERTEX
8
CUT
10
139.719
20
4.781
30
0
0
VERTEX
8
CUT
10
139.5
20
4.5
30
0
0
VERTEX
8
CUT
10
139.219
20
4.281
30
0
0
VERTEX
8
CUT
10
138.875
20
4.125
30
0
0
VERTEX
8
CUT
10
138.469
20
4.031
30
0
0
VERTEX
8
CUT
10
138
20
4
30
0
0
VERTEX
8
CUT
10
122.8
20
4
30
0
0
VERTEX
8
CUT
10
122.331
20
4.031
30
0
0
VERTEX
8
CUT
10
121.925
20
4.125
30
0
0
VERTEX
8
CUT
10
121.581
20
4.281
30
0
0
VERTEX
8
CUT
10
121.3
20
4.5
30
0
0
VERTEX
8
CUT
10
121.081
20
4.781
30
0
0
VERTEX
8
CUT
10
120.925
20
5.125
30
0
0
VERTEX
8
CUT
10
120.831
20
5.531
30
0
0
VERTEX
8
CUT
10
120.8
20
6
30
0
0
SEQEND
8
CUT
0
POLYLINE
8
RASTER
66
1
70
1
0
VERTEX
8
RASTER
10
127.174
20
16.342
30
0
0
VERTEX
8
RASTER
10
127.182
20
16.455
30
0
0
VERTEX
8
RASTER
10
127.205
20
16.553
30
0
0
VERTEX
8
RASTER
10
127.242
20
16.637
30
0
0
VERTEX
8
RASTER
10
127.295
20
16.705
30
0
0
VERTEX
8
RASTER
10
127.363
20
16.758
30
0
0
VERTEX
8
RASTER
10
127.447
20
16.795
30
0
0
VERTEX
8
RASTER
10
127.545
20
16.818
30
0
0
VERTEX
8
RASTER
10
127.658
20
16.826
30
0
0
VERTEX
8
RASTER
10
137.658
20
16.826
30
0
0
VERTEX
8
RASTER
10
137.771
20
16.818
30
0
0
VERTEX
8
RASTER
10
137.869
20
16.795
30
0
0
VERTEX
8
RASTER
10
137.952
20
16.758
30
0
0
VERTEX
8
RASTER
10
138.02
20
16.705
30
0
0
VERTEX
8
RASTER
10
138.073
20
16.637
30
0
0
VERTEX
8
RASTER
10
138.111
20
16.553
30
0
0
VERTEX
8
RASTER
10
138.134
20
16.455
30
0
0
VERTEX
8
RASTER
10
138.141
20
16.342
30
0
0
VERTEX
8
RASTER
10
138.141
20
10.858
30
0
0
VERTEX
8
RASTER
10
138.134
20
10.745
30
0
0
VERTEX
8
RASTER
10
138.111
20
10.647
30
0
0
VERTEX
8
RASTER
10
138.073
20
10.563
30
0
0
VERTEX
8
RASTER
10
138.02
20
10.495
30
0
0
VERTEX
8
RASTER
10
137.952
20
10.442
30
0
0
VERTEX
8
RASTER
10
137.869
20
10.405
30
0
0
VERTEX
8
RASTER
10
137.771
20
10.382
30
0
0
VERTEX
8
RASTER
10
137.658
20
10.374
30
0
0
VERTEX
8
RASTER
10
127.658
20
10.374
30
0
0
VERTEX
8
RASTER
10
127.545
20
10.382
30
0
0
VERTEX
8
RASTER
10
127.447
20
10.405
30
0
0
VERTEX
8
RASTER
10
127.363
20
10.442
30
0
0
VERTEX
8
RASTER
10
127.295
20
10.495
30
0
0
VERTEX
8
RASTER
10
127.242
20
10.563
30
0
0
VERTEX
8
RASTER
10
127.205
20
10.647
30
0
0
VERTEX
8
RASTER
10
127.182
20
10.745
30
0
0
VERTEX
8
RASTER
10
127.174
20
10.858
30
0
0
SEQEND
8
RASTER
0
POLYLINE
8
RASTER
66
1
70
1
0
VERTEX
8
RASTER
10
129.239
20
16.342
30
0
0
VERTEX
8
RASTER
10
129.239
20
10.858
30
0
0
VERTEX
8
RASTER
10
129.626
20
10.858
30
0
0
VERTEX
8
RASTER
10
129.626
20
16.342
30
0
0
VERTEX
8
RASTER
10
129.239
20
16.342
30
0
0
SEQEND
8
RASTER
0
POLYLINE
8
RASTER
66
1
70
1
0
VERTEX
8
RASTER
10
131.174
20
16.342
30
0
0
VERTEX
8
RASTER
10
131.174
20
10.858
30
0
0
VERTEX
8
RASTER
10
131.561
20
10.858
30
0
0
VERTEX
8
RASTER
10
131.561
20
16.342
30
0
0
VERTEX
8
RASTER
10
131.174
20
16.342
30
0
0
SEQEND
8
RASTER
0
POLYLINE
8
RASTER
66
1
70
1
0
VERTEX
8
RASTER
10
133.11
20
16.342
30
0
0
VERTEX
8
RASTER
10
133.11
20
10.858
30
0
0
VERTEX
8
RASTER
10
133.497
20
10.858
30
0
0
VERTEX
8
RASTER
10
133.497
20
16.342
30
0
0
VERTEX
8
RASTER
10
133.11
20
16.342
30
0
0
SEQEND
8
RASTER
0
POLYLINE
8
RASTER
66
1
70
1
0
VERTEX
8
RASTER
10
135.045
20
16.342
30
0
0
VERTEX
8
RASTER
10
135.045
20
10.858
30
0
0
VERTEX
8
RASTER
10
135.432
20
10.858
30
0
0
VERTEX
8
RASTER
10
135.432
20
16.342
30
0
0
VERTEX
8
RASTER
10
135.045
20
16.342
30
0
0
SEQEND
8
RASTER
0
POLYLINE
8
RASTER
66
1
70
1
0
VERTEX
8
RASTER
10
136.98
20
16.342
30
0
0
VERTEX
8
RASTER
10
136.98
20
10.858
30
0
0
VERTEX
8
RASTER
10
137.367
20
10.858
30
0
0
VERTEX
8
RASTER
10
137.367
20
16.342
30
0
0
VERTEX
8
RASTER
10
136.98
20
16.342
30
0
0
SEQEND
8
RASTER
0
CIRCLE
8
RASTER
10
126.207
20
18.116
30
0
40
0.806
0
CIRCLE
8
RASTER
10
126.207
20
9.084
30
0
40
0.806
0
POLYLINE
8
CUT
66
1
70
1
0
VERTEX
8
CUT
10
150
20
21.2
30
0
0
VERTEX
8
CUT
10
150.031
20
21.669
30
0
0
VERTEX
8
CUT
10
150.125
20
22.075
30
0
0
VERTEX
8
CUT
10
150.281
20
22.419
30
0
0
VERTEX
8
CUT
10
150.5
20
22.7
30
0
0
VERTEX
8
CUT
10
150.781
20
22.919
30
0
0
VERTEX
8
CUT
10
151.125
20
23.075
30
0
0
VERTEX
8
CUT
10
151.531
20
23.169
30
0
0
VERTEX
8
CUT
10
152
20
23.2
30
0
0
VERTEX
8
CUT
10
167.2
20
23.2
30
0
0
VERTEX
8
CUT
10
167.669
20
23.169
30
0
0
VERTEX
8
CUT
10
168.075
20
23.075
30
0
0
VERTEX
8
CUT
10
168.419
20
22.919
30
0
0
VERTEX
8
CUT
10
168.7
20
22.7
30
0
0
VERTEX
8
CUT
10
168.919
20
22.419
30
0
0
VERTEX
8
CUT
10
169.075
20
22.075
30
0
0
VERTEX
8
CUT
10
169.169
20
21.669
30
0
0
VERTEX
8
CUT
10
169.2
20
21.2
30
0
0
VERTEX
8
CUT
10
169.2
20
15.1
30
0
0
VERTEX
8
CUT
10
171.156
20
15.1
30
0
0
VERTEX
8
CUT
10
171.62
20
15.511
30
0
0
VERTEX
8
CUT
10
172.176
20
15.783
30
0
0
VERTEX
8
CUT
10
172.785
20
15.897
30
0
0
VERTEX
8
CUT
10
173.402
20
15.844
30
0
0
VERTEX
8
CUT
10
173.983
20
15.629
30
0
0
VERTEX
8
CUT
10
174.485
20
15.266
30
0
0
VERTEX
8
CUT
10
174.872
20
14.783
30
0
0
VERTEX
8
CUT
10
175.117
20
14.214
30
0
0
VERTEX
8
CUT
10
175.2
20
13.6
30
0
0
VERTEX
8
CUT
10
175.117
20
12.986
30
0
0
VERTEX
8
CUT
10
174.872
20
12.417
30
0
0
VERTEX
8
CUT
10
174.485
20
11.934
30
0
0
VERTEX
8
CUT
10
173.983
20
11.571
30
0
0
VERTEX
8
CUT
10
173.402
20
11.356
30
0
0
VERTEX
8
CUT
10
172.785
20
11.303
30
0
0
VERTEX
8
CUT
10
172.176
20
11.417
30
0
0
VERTEX
8
CUT
10
171.62
20
11.689
30
0
0
VERTEX
8
CUT
10
171.156
20
12.1
30
0
0
VERTEX
8
CUT
10
169.2
20
12.1
30
0
0
VERTEX
8
CUT
10
169.2
20
6
30
0
0
VERTEX
8
CUT
10
169.169
20
5.531
30
0
0
VERTEX
8
CUT
10
169.075
20
5.125
30
0
0
VERTEX
8
CUT
10
168.919
20
4.781
30
0
0
VERTEX
8
CUT
10
168.7
20
4.5
30
0
0
VERTEX
8
CUT
10
168.419
20
4.281
30
0
0
VERTEX
8
CUT
10
168.075
20
4.125
30
0
0
VERTEX
8
CUT
10
167.669
20
4.031
30
0
0
VERTEX
8
CUT
10
167.2
20
4
30
0
0
VERTEX
8
CUT
10
152
20
4
30
0
0
VERTEX
8
CUT
10
151.531
20
4.031
30
0
0
VERTEX
8
CUT
10
151.125
20
4.125
30
0
0
VERTEX
8
CUT
10
150.781
20
4.281
30
0
0
VERTEX
8
CUT
10
150.5
20
4.5
30
0
0
VERTEX
8
CUT
10
150.281
20
4.781
30
0
0
VERTEX
8
CUT
10
150.125
20
5.125
30
0
0
VERTEX
8
CUT
10
150.031
20
5.531
30
0
0
VERTEX
8
CUT
10
150
20
6
30
0
0
SEQEND
8
CUT
0
POLYLINE
8
RASTER
66
1
70
1
0
VERTEX
8
RASTER
10
156.374
20
16.342
30
0
0
VERTEX
8
RASTER
10
156.382
20
16.455
30
0
0
VERTEX
8
RASTER
10
156.405
20
16.553
30
0
0
VERTEX
8
RASTER
10
156.442
20
16.637
30
0
0
VERTEX
8
RASTER
10
156.495
20
16.705
30
0
0
VERTEX
8
RASTER
10
156.563
20
16.758
30
0
0
VERTEX
8
RASTER
10
156.647
20
16.795
30
0
0
VERTEX
8
RASTER
10
156.745
20
16.818
30
0
0
VERTEX
8
RASTER
10
156.858
20
16.826
30
0
0
VERTEX
8
RASTER
10
166.858
20
16.826
30
0
0
VERTEX
8
RASTER
10
166.971
20
16.818
30
0
0
VERTEX
8
RASTER
10
167.069
20
16.795
30
0
0
VERTEX
8
RASTER
10
167.152
20
16.758
30
0
0
VERTEX
8
RASTER
10
167.22
20
16.705
30
0
0
VERTEX
8
RASTER
10
167.273
20
16.637
30
0
0
VERTEX
8
RASTER
10
167.311
20
16.553
30
0
0
VERTEX
8
RASTER
10
167.334
20
16.455
30
0
0
VERTEX
8
RASTER
10
167.341
20
16.342
30
0
0
VERTEX
8
RASTER
10
167.341
20
10.858
30
0
0
VERTEX
8
RASTER
10
167.334
20
10.745
30
0
0
VERTEX
8
RASTER
10
167.311
20
10.647
30
0
0
VERTEX
8
RASTER
10
167.273
20
10.563
30
0
0
VERTEX
8
RASTER
10
167.22
20
10.495
30
0
0
VERTEX
8
RASTER
10
167.152
20
10.442
30
0
0
VERTEX
8
RASTER
10
167.069
20
10.405
30
0
0
VERTEX
8
RASTER
10
166.971
20
10.382
30
0
0
VERTEX
8
RASTER
10
166.858
20
10.374
30
0
0
VERTEX
8
RASTER
10
156.858
20
10.374
30
0
0
VERTEX
8
RASTER
10
156.745
20
10.382
30
0
0
VERTEX
8
RASTER
10
156.647
20
10.405
30
0
0
VERTEX
8
RASTER
10
156.563
20
10.442
30
0
0
VERTEX
8
RASTER
10
156.495
20
10.495
30
0
0
VERTEX
8
RASTER
10
156.442
20
10.563
30
0
0
VERTEX
8
RASTER
10
156.405
20
10.647
30
0
0
VERTEX
8
RASTER
10
156.382
20
10.745
30
0
0
VERTEX
8
RASTER
10
156.374
20
10.858
30
0
0
SEQEND
8
RASTER
0
POLYLINE
8
RASTER
66
1
70
1
0
VERTEX
8
RASTER
10
158.439
20
16.342
30
0
0
VERTEX
8
RASTER
10
158.439
20
10.858
30
0
0
VERTEX
8
RASTER
10
158.826
20
10.858
30
0
0
VERTEX
8
RASTER
10
158.826
20
16.342
30
0
0
VERTEX
8
RASTER
10
158.439
20
16.342
30
0
0
SEQEND
8
RASTER
0
POLYLINE
8
RASTER
66
1
70
1
0
VERTEX
8
RASTER
10
160.374
20
16.342
30
0
0
VERTEX
8
RASTER
10
160.374
20
10.858
30
0
0
VERTEX
8
RASTER
10
160.761
20
10.858
30
0
0
VERTEX
8
RASTER
10
160.761
20
16.342
30
0
0
VERTEX
8
RASTER
10
160.374
20
16.342
30
0
0
SEQEND
8
RASTER
0
POLYLINE
8
RASTER
66
1
70
1
0
VERTEX
8
RASTER
10
162.31
20
16.342
30
0
0
VERTEX
8
RASTER
10
162.31
20
10.858
30
0
0
VERTEX
8
RASTER
10
162.697
20
10.858
30
0
0
VERTEX
8
RASTER
10
162.697
20
16.342
30
0
0
VERTEX
8
RASTER
10
162.31
20
16.342
30
0
0
SEQEND
8
RASTER
0
POLYLINE
8
RASTER
66
1
70
1
0
VERTEX
8
RASTER
10
164.245
20
16.342
30
0
0
VERTEX
8
RASTER
10
164.245
20
10.858
30
0
0
VERTEX
8
RASTER
10
164.632
20
10.858
30
0
0
VERTEX
8
RASTER
10
164.632
20
16.342
30
0
0
VERTEX
8
RASTER
10
164.245
20
16.342
30
0
0
SEQEND
8
RASTER
0
POLYLINE
8
RASTER
66
1
70
1
0
VERTEX
8
RASTER
10
166.18
20
16.342
30
0
0
VERTEX
8
RASTER
10
166.18
20
10.858
30
0
0
VERTEX
8
RASTER
10
166.567
20
10.858
30
0
0
VERTEX
8
RASTER
10
166.567
20
16.342
30
0
0
VERTEX
8
RASTER
10
166.18
20
16.342
30
0
0
SEQEND
8
RASTER
0
CIRCLE
8
RASTER
10
155.407
20
18.116
30
0
40
0.806
0
CIRCLE
8
RASTER
10
155.407
20
9.084
30
0
40
0.806
0
POLYLINE
8
CUT
66
1
70
1
0
VERTEX
8
CUT
10
179.2
20
21.2
30
0
0
VERTEX
8
CUT
10
179.231
20
21.669
30
0
0
VERTEX
8
CUT
10
179.325
20
22.075
30
0
0
VERTEX
8
CUT
10
179.481
20
22.419
30
0
0
VERTEX
8
CUT
10
179.7
20
22.7
30
0
0
VERTEX
8
CUT
10
179.981
20
22.919
30
0
0
VERTEX
8
CUT
10
180.325
20
23.075
30
0
0
VERTEX
8
CUT
10
180.731
20
23.169
30
0
0
VERTEX
8
CUT
10
181.2
20
23.2
30
0
0
VERTEX
8
CUT
10
196.4
20
23.2
30
0
0
VERTEX
8
CUT
10
196.869
20
23.169
30
0
0
VERTEX
8
CUT
10
197.275
20
23.075
30
0
0
VERTEX
8
CUT
10
197.619
20
22.919
30
0
0
VERTEX
8
CUT
10
197.9
20
22.7
30
0
0
VERTEX
8
CUT
10
198.119
20
22.419
30
0
0
VERTEX
8
CUT
10
198.275
20
22.075
30
0
0
VERTEX
8
CUT
10
198.369
20
21.669
30
0
0
VERTEX
8
CUT
10
198.4
20
21.2
30
0
0
VERTEX
8
CUT
10
198.4
20
15.1
30
0
0
VERTEX
8
CUT
10
200.356
20
15.1
30
0
0
VERTEX
8
CUT
10
200.82
20
15.511
30
0
0
VERTEX
8
CUT
10
201.376
20
15.783
30
0
0
VERTEX
8
CUT
10
201.985
20
15.897
30
0
0
VERTEX
8
CUT
10
202.602
20
15.844
30
0
0
VERTEX
8
CUT
10
203.183
20
15.629
30
0
0
VERTEX
8
CUT
10
203.685
20
15.266
30
0
0
VERTEX
8
CUT
10
204.072
20
14.783
30
0
0
VERTEX
8
CUT
10
204.317
20
14.214
30
0
0
VERTEX
8
CUT
10
204.4
20
13.6
30
0
0
VERTEX
8
CUT
10
204.317
20
12.986
30
0
0
VERTEX
8
CUT
10
204.072
20
12.417
30
0
0
VERTEX
8
CUT
10
203.685
20
11.934
30
0
0
VERTEX
8
CUT
10
203.183
20
11.571
30
0
0
VERTEX
8
CUT
10
202.602
20
11.356
30
0
0
VERTEX
8
CUT
10
201.985
20
11.303
30
0
0
VERTEX
8
CUT
10
201.376
20
11.417
30
0
0
VERTEX
8
CUT
10
200.82
20
11.689
30
0
0
VERTEX
8
CUT
10
200.356
20
12.1
30
0
0
VERTEX
8
CUT
10
198.4
20
12.1
30
0
0
VERTEX
8
CUT
10
198.4
20
6
30
0
0
VERTEX
8
CUT
10
198.369
20
5.531
30
0
0
VERTEX
8
CUT
10
198.275
20
5.125
30
0
0
VERTEX
8
CUT
10
198.119
20
4.781
30
0
0
VERTEX
8
CUT
10
197.9
20
4.5
30
0
0
VERTEX
8
CUT
10
197.619
20
4.281
30
0
0
VERTEX
8
CUT
10
197.275
20
4.125
30
0
0
VERTEX
8
CUT
10
196.869
20
4.031
30
0
0
VERTEX
8
CUT
10
196.4
20
4
30
0
0
VERTEX
8
CUT
10
181.2
20
4
30
0
0
VERTEX
8
CUT
10
180.731
20
4.031
30
0
0
VERTEX
8
CUT
10
180.325
20
4.125
30
0
0
VERTEX
8
CUT
10
179.981
20
4.281
30
0
0
VERTEX
8
CUT
10
179.7
20
4.5
30
0
0
VERTEX
8
CUT
10
179.481
20
4.781
30
0
0
VERTEX
8
CUT
10
179.325
20
5.125
30
0
0
VERTEX
8
CUT
10
179.231
20
5.531
30
0
0
VERTEX
8
CUT
10
179.2
20
6
30
0
0
SEQEND
8
CUT
0
POLYLINE
8
RASTER
66
1
70
1
0
VERTEX
8
RASTER
10
185.574
20
16.342
30
0
0
VERTEX
8
RASTER
10
185.582
20
16.455
30
0
0
VERTEX
8
RASTER
10
185.605
20
16.553
30
0
0
VERTEX
8
RASTER
10
185.642
20
16.637
30
0
0
VERTEX
8
RASTER
10
185.695
20
16.705
30
0
0
VERTEX
8
RASTER
10
185.763
20
16.758
30
0
0
VERTEX
8
RASTER
10
185.847
20
16.795
30
0
0
VERTEX
8
RASTER
10
185.945
20
16.818
30
0
0
VERTEX
8
RASTER
10
186.058
20
16.826
30
0
0
VERTEX
8
RASTER
10
196.058
20
16.826
30
0
0
VERTEX
8
RASTER
10
196.171
20
16.818
30
0
0
VERTEX
8
RASTER
10
196.269
20
16.795
30
0
0
VERTEX
8
RASTER
10
196.352
20
16.758
30
0
0
VERTEX
8
RASTER
10
196.42
20
16.705
30
0
0
VERTEX
8
RASTER
10
196.473
20
16.637
30
0
0
VERTEX
8
RASTER
10
196.511
20
16.553
30
0
0
VERTEX
8
RASTER
10
196.534
20
16.455
30
0
0
VERTEX
8
RASTER
10
196.541
20
16.342
30
0
0
VERTEX
8
RASTER
10
196.541
20
10.858
30
0
0
VERTEX
8
RASTER
10
196.534
20
10.745
30
0
0
VERTEX
8
RASTER
10
196.511
20
10.647
30
0
0
VERTEX
8
RASTER
10
196.473
20
10.563
30
0
0
VERTEX
8
RASTER
10
196.42
20
10.495
30
0
0
VERTEX
8
RASTER
10
196.352
20
10.442
30
0
0
VERTEX
8
RASTER
10
196.269
20
10.405
30
0
0
VERTEX
8
RASTER
10
196.171
20
10.382
30
0
0
VERTEX
8
RASTER
10
196.058
20
10.374
30
0
0
VERTEX
8
RASTER
10
186.058
20
10.374
30
0
0
VERTEX
8
RASTER
10
185.945
20
10.382
30
0
0
VERTEX
8
RASTER
10
185.847
20
10.405
30
0
0
VERTEX
8
RASTER
10
185.763
20
10.442
30
0
0
VERTEX
8
RASTER
10
185.695
20
10.495
30
0
0
VERTEX
8
RASTER
10
185.642
20
10.563
30
0
0
VERTEX
8
RASTER
10
185.605
20
10.647
30
0
0
VERTEX
8
RASTER
10
185.582
20
10.745
30
0
0
VERTEX
8
RASTER
10
185.574
20
10.858
30
0
0
SEQEND
8
RASTER
0
POLYLINE
8
RASTER
66
1
70
1
0
VERTEX
8
RASTER
10
187.639
20
16.342
30
0
0
VERTEX
8
RASTER
10
187.639
20
10.858
30
0
0
VERTEX
8
RASTER
10
188.026
20
10.858
30
0
0
VERTEX
8
RASTER
10
188.026
20
16.342
30
0
0
VERTEX
8
RASTER
10
187.639
20
16.342
30
0
0
SEQEND
8
RASTER
0
POLYLINE
8
RASTER
66
1
70
1
0
VERTEX
8
RASTER
10
189.574
20
16.342
30
0
0
VERTEX
8
RASTER
10
189.574
20
10.858
30
0
0
VERTEX
8
RASTER
10
189.961
20
10.858
30
0
0
VERTEX
8
RASTER
10
189.961
20
16.342
30
0
0
VERTEX
8
RASTER
10
189.574
20
16.342
30
0
0
SEQEND
8
RASTER
0
POLYLINE
8
RASTER
66
1
70
1
0
VERTEX
8
RASTER
10
191.51
20
16.342
30
0
0
VERTEX
8
RASTER
10
191.51
20
10.858
30
0
0
VERTEX
8
RASTER
10
191.897
20
10.858
30
0
0
VERTEX
8
RASTER
10
191.897
20
16.342
30
0
0
VERTEX
8
RASTER
10
191.51
20
16.342
30
0
0
SEQEND
8
RASTER
0
POLYLINE
8
RASTER
66
1
70
1
0
VERTEX
8
RASTER
10
193.445
20
16.342
30
0
0
VERTEX
8
RASTER
10
193.445
20
10.858
30
0
0
VERTEX
8
RASTER
10
193.832
20
10.858
30
0
0
VERTEX
8
RASTER
10
193.832
20
16.342
30
0
0
VERTEX
8
RASTER
10
193.445
20
16.342
30
0
0
SEQEND
8
RASTER
0
POLYLINE
8
RASTER
66
1
70
1
0
VERTEX
8
RASTER
10
195.38
20
16.342
30
0
0
VERTEX
8
RASTER
10
195.38
20
10.858
30
0
0
VERTEX
8
RASTER
10
195.767
20
10.858
30
0
0
VERTEX
8
RASTER
10
195.767
20
16.342
30
0
0
VERTEX
8
RASTER
10
195.38
20
16.342
30
0
0
SEQEND
8
RASTER
0
CIRCLE
8
RASTER
10
184.607
20
18.116
30
0
40
0.806
0
CIRCLE
8
RASTER
10
184.607
20
9.084
30
0
40
0.806
0
ENDSEC
0
EOF
