0
SECTION
2
HEADER
9
$ACADVER
1
AC1009
9
$EXTMIN
10
0
20
0
9
$EXTMAX
10
141.2
20
23.6
0
ENDSEC
0
SECTION
2
TABLES
0
TABLE
2
LAYER
70
2
0
LAYER
2
CUT
70
0
62
1
6
CONTINUOUS
0
LAYER
2
RASTER
70
0
62
7
6
CONTINUOUS
0
ENDTAB
0
ENDSEC
0
SECTION
2
ENTITIES
0
CIRCLE
8
CUT
10
11.8
20
11.8
30
0
40
7.8
0
CIRCLE
8
RASTER
10
11.8
20
11.8
30
0
40
7.2
0
CIRCLE
8
RASTER
10
11.8
20
11.8
30
0
40
6.7
0
CIRCLE
8
RASTER
10
11.8
20
11.8
30
0
40
6
0
POLYLINE
8
RASTER
66
1
70
1
0
VERTEX
8
RASTER
10
11.681
20
9.662
30
0
0
VERTEX
8
RASTER
10
11.602
20
7.998
30
0
0
VERTEX
8
RASTER
10
11.998
20
7.998
30
0
0
VERTEX
8
RASTER
10
11.919
20
9.662
30
0
0
VERTEX
8
RASTER
10
11.681
20
9.662
30
0
0
SEQEND
8
RASTER
0
POLYLINE
8
RASTER
66
1
70
1
0
VERTEX
8
RASTER
10
12.196
20
14.889
30
0
0
VERTEX
8
RASTER
10
12.188
20
15.024
30
0
0
VERTEX
8
RASTER
10
12.165
20
15.151
30
0
0
VERTEX
8
RASTER
10
12.128
20
15.265
30
0
0
VERTEX
8
RASTER
10
12.08
20
15.365
30
0
0
VERTEX
8
RASTER
10
12.021
20
15.447
30
0
0
VERTEX
8
RASTER
10
11.954
20
15.509
30
0
0
VERTEX
8
RASTER
10
11.88
20
15.548
30
0
0
VERTEX
8
RASTER
10
11.8
20
15.562
30
0
0
VERTEX
8
RASTER
10
11.72
20
15.548
30
0
0
VERTEX
8
RASTER
10
11.646
20
15.509
30
0
0
VERTEX
8
RASTER
10
11.579
20
15.447
30
0
0
VERTEX
8
RASTER
10
11.52
20
15.365
30
0
0
VERTEX
8
RASTER
10
11.472
20
15.265
30
0
0
VERTEX
8
RASTER
10
11.435
20
15.151
30
0
0
VERTEX
8
RASTER
10
11.412
20
15.024
30
0
0
VERTEX
8
RASTER
10
11.404
20
14.889
30
0
0
VERTEX
8
RASTER
10
11.412
20
14.753
30
0
0
VERTEX
8
RASTER
10
11.435
20
14.627
30
0
0
VERTEX
8
RASTER
10
11.472
20
14.512
30
0
0
VERTEX
8
RASTER
10
11.52
20
14.413
30
0
0
VERTEX
8
RASTER
10
11.579
20
14.331
30
0
0
VERTEX
8
RASTER
10
11.646
20
14.269
30
0
0
VERTEX
8
RASTER
10
11.72
20
14.229
30
0
0
VERTEX
8
RASTER
10
11.8
20
14.216
30
0
0
VERTEX
8
RASTER
10
11.88
20
14.229
30
0
0
VERTEX
8
RASTER
10
11.954
20
14.269
30
0
0
VERTEX
8
RASTER
10
12.021
20
14.331
30
0
0
VERTEX
8
RASTER
10
12.08
20
14.413
30
0
0
VERTEX
8
RASTER
10
12.128
20
14.512
30
0
0
VERTEX
8
RASTER
10
12.165
20
14.627
30
0
0
VERTEX
8
RASTER
10
12.188
20
14.753
30
0
0
VERTEX
8
RASTER
10
12.196
20
14.889
30
0
0
SEQEND
8
RASTER
0
POLYLINE
8
RASTER
66
1
70
1
0
VERTEX
8
RASTER
10
11.544
20
13.76
30
0
0
VERTEX
8
RASTER
10
11.46
20
13.887
30
0
0
VERTEX
8
RASTER
10
11.368
20
13.997
30
0
0
VERTEX
8
RASTER
10
11.269
20
14.087
30
0
0
VERTEX
8
RASTER
10
11.167
20
14.157
30
0
0
VERTEX
8
RASTER
10
11.065
20
14.204
30
0
0
VERTEX
8
RASTER
10
10.967
20
14.228
30
0
0
VERTEX
8
RASTER
10
10.874
20
14.225
30
0
0
VERTEX
8
RASTER
10
10.79
20
14.194
30
0
0
VERTEX
8
RASTER
10
10.722
20
14.137
30
0
0
VERTEX
8
RASTER
10
10.673
20
14.058
30
0
0
VERTEX
8
RASTER
10
10.644
20
13.961
30
0
0
VERTEX
8
RASTER
10
10.634
20
13.849
30
0
0
VERTEX
8
RASTER
10
10.643
20
13.726
30
0
0
VERTEX
8
RASTER
10
10.672
20
13.595
30
0
0
VERTEX
8
RASTER
10
10.721
20
13.46
30
0
0
VERTEX
8
RASTER
10
10.789
20
13.325
30
0
0
VERTEX
8
RASTER
10
10.873
20
13.198
30
0
0
VERTEX
8
RASTER
10
10.965
20
13.088
30
0
0
VERTEX
8
RASTER
10
11.064
20
12.997
30
0
0
VERTEX
8
RASTER
10
11.166
20
12.928
30
0
0
VERTEX
8
RASTER
10
11.267
20
12.88
30
0
0
VERTEX
8
RASTER
10
11.366
20
12.857
30
0
0
VERTEX
8
RASTER
10
11.459
20
12.86
30
0
0
VERTEX
8
RASTER
10
11.543
20
12.891
30
0
0
VERTEX
8
RASTER
10
11.611
20
12.948
30
0
0
VERTEX
8
RASTER
10
11.66
20
13.027
30
0
0
VERTEX
8
RASTER
10
11.689
20
13.124
30
0
0
VERTEX
8
RASTER
10
11.699
20
13.236
30
0
0
VERTEX
8
RASTER
10
11.69
20
13.359
30
0
0
VERTEX
8
RASTER
10
11.66
20
13.489
30
0
0
VERTEX
8
RASTER
10
11.612
20
13.624
30
0
0
VERTEX
8
RASTER
10
11.544
20
13.76
30
0
0
SEQEND
8
RASTER
0
POLYLINE
8
RASTER
66
1
70
1
0
VERTEX
8
RASTER
10
12.811
20
13.325
30
0
0
VERTEX
8
RASTER
10
12.879
20
13.46
30
0
0
VERTEX
8
RASTER
10
12.928
20
13.595
30
0
0
VERTEX
8
RASTER
10
12.957
20
13.726
30
0
0
VERTEX
8
RASTER
10
12.966
20
13.849
30
0
0
VERTEX
8
RASTER
10
12.956
20
13.961
30
0
0
VERTEX
8
RASTER
10
12.927
20
14.058
30
0
0
VERTEX
8
RASTER
10
12.878
20
14.137
30
0
0
VERTEX
8
RASTER
10
12.81
20
14.194
30
0
0
VERTEX
8
RASTER
10
12.726
20
14.225
30
0
0
VERTEX
8
RASTER
10
12.633
20
14.228
30
0
0
VERTEX
8
RASTER
10
12.535
20
14.204
30
0
0
VERTEX
8
RASTER
10
12.433
20
14.157
30
0
0
VERTEX
8
RASTER
10
12.331
20
14.087
30
0
0
VERTEX
8
RASTER
10
12.232
20
13.997
30
0
0
VERTEX
8
RASTER
10
12.14
20
13.887
30
0
0
VERTEX
8
RASTER
10
12.056
20
13.76
30
0
0
VERTEX
8
RASTER
10
11.988
20
13.624
30
0
0
VERTEX
8
RASTER
10
11.94
20
13.489
30
0
0
VERTEX
8
RASTER
10
11.91
20
13.359
30
0
0
VERTEX
8
RASTER
10
11.901
20
13.236
30
0
0
VERTEX
8
RASTER
10
11.911
20
13.124
30
0
0
VERTEX
8
RASTER
10
11.94
20
13.027
30
0
0
VERTEX
8
RASTER
10
11.989
20
12.948
30
0
0
VERTEX
8
RASTER
10
12.057
20
12.891
30
0
0
VERTEX
8
RASTER
10
12.141
20
12.86
30
0
0
VERTEX
8
RASTER
10
12.234
20
12.857
30
0
0
VERTEX
8
RASTER
10
12.333
20
12.88
30
0
0
VERTEX
8
RASTER
10
12.434
20
12.928
30
0
0
VERTEX
8
RASTER
10
12.536
20
12.997
30
0
0
VERTEX
8
RASTER
10
12.635
20
13.088
30
0
0
VERTEX
8
RASTER
10
12.727
20
13.198
30
0
0
VERTEX
8
RASTER
10
12.811
20
13.325
30
0
0
SEQEND
8
RASTER
0
POLYLINE
8
RASTER
66
1
70
1
0
VERTEX
8
RASTER
10
11.544
20
12.255
30
0
0
VERTEX
8
RASTER
10
11.46
20
12.382
30
0
0
VERTEX
8
RASTER
10
11.368
20
12.492
30
0
0
VERTEX
8
RASTER
10
11.269
20
12.583
30
0
0
VERTEX
8
RASTER
10
11.167
20
12.652
30
0
0
VERTEX
8
RASTER
10
11.065
20
12.7
30
0
0
VERTEX
8
RASTER
10
10.967
20
12.723
30
0
0
VERTEX
8
RASTER
10
10.874
20
12.72
30
0
0
VERTEX
8
RASTER
10
10.79
20
12.689
30
0
0
VERTEX
8
RASTER
10
10.722
20
12.632
30
0
0
VERTEX
8
RASTER
10
10.673
20
12.553
30
0
0
VERTEX
8
RASTER
10
10.644
20
12.456
30
0
0
VERTEX
8
RASTER
10
10.634
20
12.344
30
0
0
VERTEX
8
RASTER
10
10.643
20
12.221
30
0
0
VERTEX
8
RASTER
10
10.672
20
12.091
30
0
0
VERTEX
8
RASTER
10
10.721
20
11.956
30
0
0
VERTEX
8
RASTER
10
10.789
20
11.82
30
0
0
VERTEX
8
RASTER
10
10.873
20
11.693
30
0
0
VERTEX
8
RASTER
10
10.965
20
11.583
30
0
0
VERTEX
8
RASTER
10
11.064
20
11.493
30
0
0
VERTEX
8
RASTER
10
11.166
20
11.423
30
0
0
VERTEX
8
RASTER
10
11.267
20
11.376
30
0
0
VERTEX
8
RASTER
10
11.366
20
11.352
30
0
0
VERTEX
8
RASTER
10
11.459
20
11.355
30
0
0
VERTEX
8
RASTER
10
11.543
20
11.386
30
0
0
VERTEX
8
RASTER
10
11.611
20
11.443
30
0
0
VERTEX
8
RASTER
10
11.66
20
11.522
30
0
0
VERTEX
8
RASTER
10
11.689
20
11.619
30
0
0
VERTEX
8
RASTER
10
11.699
20
11.731
30
0
0
VERTEX
8
RASTER
10
11.69
20
11.854
30
0
0
VERTEX
8
RASTER
10
11.66
20
11.985
30
0
0
VERTEX
8
RASTER
10
11.612
20
12.12
30
0
0
VERTEX
8
RASTER
10
11.544
20
12.255
30
0
0
SEQEND
8
RASTER
0
POLYLINE
8
RASTER
66
1
70
1
0
VERTEX
8
RASTER
10
12.811
20
11.82
30
0
0
VERTEX
8
RASTER
10
12.879
20
11.956
30
0
0
VERTEX
8
RASTER
10
12.928
20
12.091
30
0
0
VERTEX
8
RASTER
10
12.957
20
12.221
30
0
0
VERTEX
8
RASTER
10
12.966
20
12.344
30
0
0
VERTEX
8
RASTER
10
12.956
20
12.456
30
0
0
VERTEX
8
RASTER
10
12.927
20
12.553
30
0
0
VERTEX
8
RASTER
10
12.878
20
12.632
30
0
0
VERTEX
8
RASTER
10
12.81
20
12.689
30
0
0
VERTEX
8
RASTER
10
12.726
20
12.72
30
0
0
VERTEX
8
RASTER
10
12.633
20
12.723
30
0
0
VERTEX
8
RASTER
10
12.535
20
12.7
30
0
0
VERTEX
8
RASTER
10
12.433
20
12.652
30
0
0
VERTEX
8
RASTER
10
12.331
20
12.583
30
0
0
VERTEX
8
RASTER
10
12.232
20
12.492
30
0
0
VERTEX
8
RASTER
10
12.14
20
12.382
30
0
0
VERTEX
8
RASTER
10
12.056
20
12.255
30
0
0
VERTEX
8
RASTER
10
11.988
20
12.12
30
0
0
VERTEX
8
RASTER
10
11.94
20
11.985
30
0
0
VERTEX
8
RASTER
10
11.91
20
11.854
30
0
0
VERTEX
8
RASTER
10
11.901
20
11.731
30
0
0
VERTEX
8
RASTER
10
11.911
20
11.619
30
0
0
VERTEX
8
RASTER
10
11.94
20
11.522
30
0
0
VERTEX
8
RASTER
10
11.989
20
11.443
30
0
0
VERTEX
8
RASTER
10
12.057
20
11.386
30
0
0
VERTEX
8
RASTER
10
12.141
20
11.355
30
0
0
VERTEX
8
RASTER
10
12.234
20
11.352
30
0
0
VERTEX
8
RASTER
10
12.333
20
11.376
30
0
0
VERTEX
8
RASTER
10
12.434
20
11.423
30
0
0
VERTEX
8
RASTER
10
12.536
20
11.493
30
0
0
VERTEX
8
RASTER
10
12.635
20
11.583
30
0
0
VERTEX
8
RASTER
10
12.727
20
11.693
30
0
0
VERTEX
8
RASTER
10
12.811
20
11.82
30
0
0
SEQEND
8
RASTER
0
POLYLINE
8
RASTER
66
1
70
1
0
VERTEX
8
RASTER
10
11.544
20
10.751
30
0
0
VERTEX
8
RASTER
10
11.46
20
10.877
30
0
0
VERTEX
8
RASTER
10
11.368
20
10.987
30
0
0
VERTEX
8
RASTER
10
11.269
20
11.078
30
0
0
VERTEX
8
RASTER
10
11.167
20
11.148
30
0
0
VERTEX
8
RASTER
10
11.065
20
11.195
30
0
0
VERTEX
8
RASTER
10
10.967
20
11.218
30
0
0
VERTEX
8
RASTER
10
10.874
20
11.215
30
0
0
VERTEX
8
RASTER
10
10.79
20
11.184
30
0
0
VERTEX
8
RASTER
10
10.722
20
11.127
30
0
0
VERTEX
8
RASTER
10
10.673
20
11.048
30
0
0
VERTEX
8
RASTER
10
10.644
20
10.951
30
0
0
VERTEX
8
RASTER
10
10.634
20
10.84
30
0
0
VERTEX
8
RASTER
10
10.643
20
10.717
30
0
0
VERTEX
8
RASTER
10
10.672
20
10.586
30
0
0
VERTEX
8
RASTER
10
10.721
20
10.451
30
0
0
VERTEX
8
RASTER
10
10.789
20
10.315
30
0
0
VERTEX
8
RASTER
10
10.873
20
10.188
30
0
0
VERTEX
8
RASTER
10
10.965
20
10.078
30
0
0
VERTEX
8
RASTER
10
11.064
20
9.988
30
0
0
VERTEX
8
RASTER
10
11.166
20
9.918
30
0
0
VERTEX
8
RASTER
10
11.267
20
9.871
30
0
0
VERTEX
8
RASTER
10
11.366
20
9.848
30
0
0
VERTEX
8
RASTER
10
11.459
20
9.851
30
0
0
VERTEX
8
RASTER
10
11.543
20
9.881
30
0
0
VERTEX
8
RASTER
10
11.611
20
9.938
30
0
0
VERTEX
8
RASTER
10
11.66
20
10.017
30
0
0
VERTEX
8
RASTER
10
11.689
20
10.114
30
0
0
VERTEX
8
RASTER
10
11.699
20
10.226
30
0
0
VERTEX
8
RASTER
10
11.69
20
10.349
30
0
0
VERTEX
8
RASTER
10
11.66
20
10.48
30
0
0
VERTEX
8
RASTER
10
11.612
20
10.615
30
0
0
VERTEX
8
RASTER
10
11.544
20
10.751
30
0
0
SEQEND
8
RASTER
0
POLYLINE
8
RASTER
66
1
70
1
0
VERTEX
8
RASTER
10
12.811
20
10.315
30
0
0
VERTEX
8
RASTER
10
12.879
20
10.451
30
0
0
VERTEX
8
RASTER
10
12.928
20
10.586
30
0
0
VERTEX
8
RASTER
10
12.957
20
10.717
30
0
0
VERTEX
8
RASTER
10
12.966
20
10.84
30
0
0
VERTEX
8
RASTER
10
12.956
20
10.951
30
0
0
VERTEX
8
RASTER
10
12.927
20
11.048
30
0
0
VERTEX
8
RASTER
10
12.878
20
11.127
30
0
0
VERTEX
8
RASTER
10
12.81
20
11.184
30
0
0
VERTEX
8
RASTER
10
12.726
20
11.215
30
0
0
VERTEX
8
RASTER
10
12.633
20
11.218
30
0
0
VERTEX
8
RASTER
10
12.535
20
11.195
30
0
0
VERTEX
8
RASTER
10
12.433
20
11.148
30
0
0
VERTEX
8
RASTER
10
12.331
20
11.078
30
0
0
VERTEX
8
RASTER
10
12.232
20
10.987
30
0
0
VERTEX
8
RASTER
10
12.14
20
10.877
30
0
0
VERTEX
8
RASTER
10
12.056
20
10.751
30
0
0
VERTEX
8
RASTER
10
11.988
20
10.615
30
0
0
VERTEX
8
RASTER
10
11.94
20
10.48
30
0
0
VERTEX
8
RASTER
10
11.91
20
10.349
30
0
0
VERTEX
8
RASTER
10
11.901
20
10.226
30
0
0
VERTEX
8
RASTER
10
11.911
20
10.114
30
0
0
VERTEX
8
RASTER
10
11.94
20
10.017
30
0
0
VERTEX
8
RASTER
10
11.989
20
9.938
30
0
0
VERTEX
8
RASTER
10
12.057
20
9.881
30
0
0
VERTEX
8
RASTER
10
12.141
20
9.851
30
0
0
VERTEX
8
RASTER
10
12.234
20
9.848
30
0
0
VERTEX
8
RASTER
10
12.333
20
9.871
30
0
0
VERTEX
8
RASTER
10
12.434
20
9.918
30
0
0
VERTEX
8
RASTER
10
12.536
20
9.988
30
0
0
VERTEX
8
RASTER
10
12.635
20
10.078
30
0
0
VERTEX
8
RASTER
10
12.727
20
10.188
30
0
0
VERTEX
8
RASTER
10
12.811
20
10.315
30
0
0
SEQEND
8
RASTER
0
CIRCLE
8
CUT
10
31.4
20
11.8
30
0
40
7.8
0
CIRCLE
8
RASTER
10
31.4
20
11.8
30
0
40
7.2
0
CIRCLE
8
RASTER
10
31.4
20
11.8
30
0
40
6.7
0
CIRCLE
8
RASTER
10
31.4
20
11.8
30
0
40
6
0
POLYLINE
8
RASTER
66
1
70
1
0
VERTEX
8
RASTER
10
30.45
20
13.384
30
0
0
VERTEX
8
RASTER
10
30.412
20
13.219
30
0
0
VERTEX
8
RASTER
10
30.313
20
13.072
30
0
0
VERTEX
8
RASTER
10
30.174
20
12.933
30
0
0
VERTEX
8
RASTER
10
30.014
20
12.79
30
0
0
VERTEX
8
RASTER
10
29.854
20
12.632
30
0
0
VERTEX
8
RASTER
10
29.715
20
12.448
30
0
0
VERTEX
8
RASTER
10
29.616
20
12.228
30
0
0
VERTEX
8
RASTER
10
29.578
20
11.958
30
0
0
VERTEX
8
RASTER
10
29.578
20
8.949
30
0
0
VERTEX
8
RASTER
10
29.605
20
8.733
30
0
0
VERTEX
8
RASTER
10
29.685
20
8.558
30
0
0
VERTEX
8
RASTER
10
29.821
20
8.42
30
0
0
VERTEX
8
RASTER
10
30.014
20
8.315
30
0
0
VERTEX
8
RASTER
10
30.267
20
8.24
30
0
0
VERTEX
8
RASTER
10
30.581
20
8.191
30
0
0
VERTEX
8
RASTER
10
30.958
20
8.165
30
0
0
VERTEX
8
RASTER
10
31.4
20
8.157
30
0
0
VERTEX
8
RASTER
10
31.842
20
8.165
30
0
0
VERTEX
8
RASTER
10
32.219
20
8.191
30
0
0
VERTEX
8
RASTER
10
32.533
20
8.24
30
0
0
VERTEX
8
RASTER
10
32.786
20
8.315
30
0
0
VERTEX
8
RASTER
10
32.979
20
8.42
30
0
0
VERTEX
8
RASTER
10
33.115
20
8.558
30
0
0
VERTEX
8
RASTER
10
33.195
20
8.733
30
0
0
VERTEX
8
RASTER
10
33.222
20
8.949
30
0
0
VERTEX
8
RASTER
10
33.222
20
11.958
30
0
0
VERTEX
8
RASTER
10
33.184
20
12.228
30
0
0
VERTEX
8
RASTER
10
33.085
20
12.448
30
0
0
VERTEX
8
RASTER
10
32.946
20
12.632
30
0
0
VERTEX
8
RASTER
10
32.786
20
12.79
30
0
0
VERTEX
8
RASTER
10
32.626
20
12.933
30
0
0
VERTEX
8
RASTER
10
32.487
20
13.072
30
0
0
VERTEX
8
RASTER
10
32.388
20
13.219
30
0
0
VERTEX
8
RASTER
10
32.35
20
13.384
30
0
0
VERTEX
8
RASTER
10
30.45
20
13.384
30
0
0
SEQEND
8
RASTER
0
POLYLINE
8
RASTER
66
1
70
1
0
VERTEX
8
RASTER
10
29.895
20
11.325
30
0
0
VERTEX
8
RASTER
10
32.905
20
11.325
30
0
0
VERTEX
8
RASTER
10
32.905
20
10.216
30
0
0
VERTEX
8
RASTER
10
29.895
20
10.216
30
0
0
VERTEX
8
RASTER
10
29.895
20
11.325
30
0
0
SEQEND
8
RASTER
0
POLYLINE
8
RASTER
66
1
70
1
0
VERTEX
8
RASTER
10
30.291
20
14.651
30
0
0
VERTEX
8
RASTER
10
30.291
20
14.334
30
0
0
VERTEX
8
RASTER
10
30.294
20
14.297
30
0
0
VERTEX
8
RASTER
10
30.301
20
14.265
30
0
0
VERTEX
8
RASTER
10
30.313
20
14.238
30
0
0
VERTEX
8
RASTER
10
30.331
20
14.216
30
0
0
VERTEX
8
RASTER
10
30.353
20
14.198
30
0
0
VERTEX
8
RASTER
10
30.38
20
14.186
30
0
0
VERTEX
8
RASTER
10
30.412
20
14.178
30
0
0
VERTEX
8
RASTER
10
30.45
20
14.176
30
0
0
VERTEX
8
RASTER
10
32.35
20
14.176
30
0
0
VERTEX
8
RASTER
10
32.388
20
14.178
30
0
0
VERTEX
8
RASTER
10
32.42
20
14.186
30
0
0
VERTEX
8
RASTER
10
32.447
20
14.198
30
0
0
VERTEX
8
RASTER
10
32.469
20
14.216
30
0
0
VERTEX
8
RASTER
10
32.487
20
14.238
30
0
0
VERTEX
8
RASTER
10
32.499
20
14.265
30
0
0
VERTEX
8
RASTER
10
32.506
20
14.297
30
0
0
VERTEX
8
RASTER
10
32.509
20
14.334
30
0
0
VERTEX
8
RASTER
10
32.509
20
14.651
30
0
0
VERTEX
8
RASTER
10
32.506
20
14.688
30
0
0
VERTEX
8
RASTER
10
32.499
20
14.721
30
0
0
VERTEX
8
RASTER
10
32.487
20
14.748
30
0
0
VERTEX
8
RASTER
10
32.469
20
14.77
30
0
0
VERTEX
8
RASTER
10
32.447
20
14.787
30
0
0
VERTEX
8
RASTER
10
32.42
20
14.8
30
0
0
VERTEX
8
RASTER
10
32.388
20
14.807
30
0
0
VERTEX
8
RASTER
10
32.35
20
14.81
30
0
0
VERTEX
8
RASTER
10
30.45
20
14.81
30
0
0
VERTEX
8
RASTER
10
30.412
20
14.807
30
0
0
VERTEX
8
RASTER
10
30.38
20
14.8
30
0
0
VERTEX
8
RASTER
10
30.353
20
14.787
30
0
0
VERTEX
8
RASTER
10
30.331
20
14.77
30
0
0
VERTEX
8
RASTER
10
30.313
20
14.748
30
0
0
VERTEX
8
RASTER
10
30.301
20
14.721
30
0
0
VERTEX
8
RASTER
10
30.294
20
14.688
30
0
0
VERTEX
8
RASTER
10
30.291
20
14.651
30
0
0
SEQEND
8
RASTER
0
POLYLINE
8
RASTER
66
1
70
1
0
VERTEX
8
RASTER
10
30.45
20
14.097
30
0
0
VERTEX
8
RASTER
10
30.45
20
13.542
30
0
0
VERTEX
8
RASTER
10
32.35
20
13.542
30
0
0
VERTEX
8
RASTER
10
32.35
20
14.097
30
0
0
VERTEX
8
RASTER
10
30.45
20
14.097
30
0
0
SEQEND
8
RASTER
0
CIRCLE
8
CUT
10
51
20
11.8
30
0
40
7.8
0
CIRCLE
8
RASTER
10
51
20
11.8
30
0
40
7.2
0
CIRCLE
8
RASTER
10
51
20
11.8
30
0
40
6.7
0
CIRCLE
8
RASTER
10
51
20
11.8
30
0
40
6
0
POLYLINE
8
RASTER
66
1
70
1
0
VERTEX
8
RASTER
10
49.891
20
13.97
30
0
0
VERTEX
8
RASTER
10
48.513
20
13.178
30
0
0
VERTEX
8
RASTER
10
49.891
20
12.386
30
0
0
VERTEX
8
RASTER
10
51.269
20
13.178
30
0
0
VERTEX
8
RASTER
10
49.891
20
13.97
30
0
0
SEQEND
8
RASTER
0
POLYLINE
8
RASTER
66
1
70
1
0
VERTEX
8
RASTER
10
48.417
20
13.012
30
0
0
VERTEX
8
RASTER
10
48.417
20
11.428
30
0
0
VERTEX
8
RASTER
10
49.795
20
10.636
30
0
0
VERTEX
8
RASTER
10
49.795
20
12.22
30
0
0
VERTEX
8
RASTER
10
48.417
20
13.012
30
0
0
SEQEND
8
RASTER
0
POLYLINE
8
RASTER
66
1
70
1
0
VERTEX
8
RASTER
10
49.988
20
12.22
30
0
0
VERTEX
8
RASTER
10
49.988
20
10.636
30
0
0
VERTEX
8
RASTER
10
51.366
20
11.428
30
0
0
VERTEX
8
RASTER
10
51.366
20
13.012
30
0
0
VERTEX
8
RASTER
10
49.988
20
12.22
30
0
0
SEQEND
8
RASTER
0
POLYLINE
8
RASTER
66
1
70
1
0
VERTEX
8
RASTER
10
52.267
20
11.99
30
0
0
VERTEX
8
RASTER
10
51.234
20
11.396
30
0
0
VERTEX
8
RASTER
10
52.267
20
10.802
30
0
0
VERTEX
8
RASTER
10
53.301
20
11.396
30
0
0
VERTEX
8
RASTER
10
52.267
20
11.99
30
0
0
SEQEND
8
RASTER
0
POLYLINE
8
RASTER
66
1
70
1
0
VERTEX
8
RASTER
10
51.137
20
11.23
30
0
0
VERTEX
8
RASTER
10
51.137
20
10.042
30
0
0
VERTEX
8
RASTER
10
52.171
20
9.448
30
0
0
VERTEX
8
RASTER
10
52.171
20
10.636
30
0
0
VERTEX
8
RASTER
10
51.137
20
11.23
30
0
0
SEQEND
8
RASTER
0
POLYLINE
8
RASTER
66
1
70
1
0
VERTEX
8
RASTER
10
52.364
20
10.636
30
0
0
VERTEX
8
RASTER
10
52.364
20
9.448
30
0
0
VERTEX
8
RASTER
10
53.397
20
10.042
30
0
0
VERTEX
8
RASTER
10
53.397
20
11.23
30
0
0
VERTEX
8
RASTER
10
52.364
20
10.636
30
0
0
SEQEND
8
RASTER
0
CIRCLE
8
CUT
10
70.6
20
11.8
30
0
40
7.8
0
CIRCLE
8
RASTER
10
70.6
20
11.8
30
0
40
7.2
0
CIRCLE
8
RASTER
10
70.6
20
11.8
30
0
40
6.7
0
CIRCLE
8
RASTER
10
70.6
20
11.8
30
0
40
6
0
POLYLINE
8
RASTER
66
1
70
1
0
VERTEX
8
RASTER
10
70.6
20
15.285
30
0
0
VERTEX
8
RASTER
10
70.082
20
15.179
30
0
0
VERTEX
8
RASTER
10
69.603
20
14.884
30
0
0
VERTEX
8
RASTER
10
69.172
20
14.433
30
0
0
VERTEX
8
RASTER
10
68.798
20
13.859
30
0
0
VERTEX
8
RASTER
10
68.492
20
13.197
30
0
0
VERTEX
8
RASTER
10
68.261
20
12.478
30
0
0
VERTEX
8
RASTER
10
68.116
20
11.738
30
0
0
VERTEX
8
RASTER
10
68.066
20
11.008
30
0
0
VERTEX
8
RASTER
10
68.116
20
10.434
30
0
0
VERTEX
8
RASTER
10
68.261
20
9.907
30
0
0
VERTEX
8
RASTER
10
68.492
20
9.435
30
0
0
VERTEX
8
RASTER
10
68.798
20
9.028
30
0
0
VERTEX
8
RASTER
10
69.172
20
8.695
30
0
0
VERTEX
8
RASTER
10
69.603
20
8.446
30
0
0
VERTEX
8
RASTER
10
70.082
20
8.29
30
0
0
VERTEX
8
RASTER
10
70.6
20
8.236
30
0
0
VERTEX
8
RASTER
10
71.118
20
8.29
30
0
0
VERTEX
8
RASTER
10
71.597
20
8.446
30
0
0
VERTEX
8
RASTER
10
72.028
20
8.695
30
0
0
VERTEX
8
RASTER
10
72.402
20
9.028
30
0
0
VERTEX
8
RASTER
10
72.708
20
9.435
30
0
0
VERTEX
8
RASTER
10
72.939
20
9.907
30
0
0
VERTEX
8
RASTER
10
73.084
20
10.434
30
0
0
VERTEX
8
RASTER
10
73.134
20
11.008
30
0
0
VERTEX
8
RASTER
10
73.084
20
11.738
30
0
0
VERTEX
8
RASTER
10
72.939
20
12.478
30
0
0
VERTEX
8
RASTER
10
72.708
20
13.197
30
0
0
VERTEX
8
RASTER
10
72.402
20
13.859
30
0
0
VERTEX
8
RASTER
10
72.028
20
14.433
30
0
0
VERTEX
8
RASTER
10
71.597
20
14.884
30
0
0
VERTEX
8
RASTER
10
71.118
20
15.179
30
0
0
VERTEX
8
RASTER
10
70.6
20
15.285
30
0
0
SEQEND
8
RASTER
0
CIRCLE
8
RASTER
10
69.808
20
13.226
30
0
40
0.253
0
CIRCLE
8
RASTER
10
71.234
20
12.275
30
0
40
0.317
0
CIRCLE
8
RASTER
10
69.491
20
11.008
30
0
40
0.277
0
CIRCLE
8
RASTER
10
71.392
20
10.058
30
0
40
0.238
0
CIRCLE
8
RASTER
10
70.283
20
9.266
30
0
40
0.198
0
CIRCLE
8
RASTER
10
71.709
20
13.859
30
0
40
0.174
0
CIRCLE
8
CUT
10
90.2
20
11.8
30
0
40
7.8
0
CIRCLE
8
RASTER
10
90.2
20
11.8
30
0
40
7.2
0
CIRCLE
8
RASTER
10
90.2
20
11.8
30
0
40
6.7
0
CIRCLE
8
RASTER
10
90.2
20
11.8
30
0
40
6
0
POLYLINE
8
RASTER
66
1
70
1
0
VERTEX
8
RASTER
10
88.141
20
14.73
30
0
0
VERTEX
8
RASTER
10
88.141
20
13.305
30
0
0
VERTEX
8
RASTER
10
88.145
20
13.249
30
0
0
VERTEX
8
RASTER
10
88.156
20
13.201
30
0
0
VERTEX
8
RASTER
10
88.174
20
13.16
30
0
0
VERTEX
8
RASTER
10
88.2
20
13.127
30
0
0
VERTEX
8
RASTER
10
88.234
20
13.101
30
0
0
VERTEX
8
RASTER
10
88.274
20
13.082
30
0
0
VERTEX
8
RASTER
10
88.323
20
13.071
30
0
0
VERTEX
8
RASTER
10
88.378
20
13.067
30
0
0
VERTEX
8
RASTER
10
89.804
20
13.067
30
0
0
VERTEX
8
RASTER
10
89.86
20
13.071
30
0
0
VERTEX
8
RASTER
10
89.908
20
13.082
30
0
0
VERTEX
8
RASTER
10
89.949
20
13.101
30
0
0
VERTEX
8
RASTER
10
89.982
20
13.127
30
0
0
VERTEX
8
RASTER
10
90.008
20
13.16
30
0
0
VERTEX
8
RASTER
10
90.027
20
13.201
30
0
0
VERTEX
8
RASTER
10
90.038
20
13.249
30
0
0
VERTEX
8
RASTER
10
90.042
20
13.305
30
0
0
VERTEX
8
RASTER
10
90.042
20
14.73
30
0
0
VERTEX
8
RASTER
10
90.038
20
14.786
30
0
0
VERTEX
8
RASTER
10
90.027
20
14.834
30
0
0
VERTEX
8
RASTER
10
90.008
20
14.875
30
0
0
VERTEX
8
RASTER
10
89.982
20
14.909
30
0
0
VERTEX
8
RASTER
10
89.949
20
14.935
30
0
0
VERTEX
8
RASTER
10
89.908
20
14.953
30
0
0
VERTEX
8
RASTER
10
89.86
20
14.964
30
0
0
VERTEX
8
RASTER
10
89.804
20
14.968
30
0
0
VERTEX
8
RASTER
10
88.378
20
14.968
30
0
0
VERTEX
8
RASTER
10
88.323
20
14.964
30
0
0
VERTEX
8
RASTER
10
88.274
20
14.953
30
0
0
VERTEX
8
RASTER
10
88.234
20
14.935
30
0
0
VERTEX
8
RASTER
10
88.2
20
14.909
30
0
0
VERTEX
8
RASTER
10
88.174
20
14.875
30
0
0
VERTEX
8
RASTER
10
88.156
20
14.834
30
0
0
VERTEX
8
RASTER
10
88.145
20
14.786
30
0
0
VERTEX
8
RASTER
10
88.141
20
14.73
30
0
0
SEQEND
8
RASTER
0
POLYLINE
8
RASTER
66
1
70
1
0
VERTEX
8
RASTER
10
90.358
20
14.73
30
0
0
VERTEX
8
RASTER
10
90.358
20
13.305
30
0
0
VERTEX
8
RASTER
10
90.362
20
13.249
30
0
0
VERTEX
8
RASTER
10
90.373
20
13.201
30
0
0
VERTEX
8
RASTER
10
90.392
20
13.16
30
0
0
VERTEX
8
RASTER
10
90.418
20
13.127
30
0
0
VERTEX
8
RASTER
10
90.451
20
13.101
30
0
0
VERTEX
8
RASTER
10
90.492
20
13.082
30
0
0
VERTEX
8
RASTER
10
90.54
20
13.071
30
0
0
VERTEX
8
RASTER
10
90.596
20
13.067
30
0
0
VERTEX
8
RASTER
10
92.022
20
13.067
30
0
0
VERTEX
8
RASTER
10
92.077
20
13.071
30
0
0
VERTEX
8
RASTER
10
92.126
20
13.082
30
0
0
VERTEX
8
RASTER
10
92.166
20
13.101
30
0
0
VERTEX
8
RASTER
10
92.2
20
13.127
30
0
0
VERTEX
8
RASTER
10
92.226
20
13.16
30
0
0
VERTEX
8
RASTER
10
92.244
20
13.201
30
0
0
VERTEX
8
RASTER
10
92.255
20
13.249
30
0
0
VERTEX
8
RASTER
10
92.259
20
13.305
30
0
0
VERTEX
8
RASTER
10
92.259
20
14.73
30
0
0
VERTEX
8
RASTER
10
92.255
20
14.786
30
0
0
VERTEX
8
RASTER
10
92.244
20
14.834
30
0
0
VERTEX
8
RASTER
10
92.226
20
14.875
30
0
0
VERTEX
8
RASTER
10
92.2
20
14.909
30
0
0
VERTEX
8
RASTER
10
92.166
20
14.935
30
0
0
VERTEX
8
RASTER
10
92.126
20
14.953
30
0
0
VERTEX
8
RASTER
10
92.077
20
14.964
30
0
0
VERTEX
8
RASTER
10
92.022
20
14.968
30
0
0
VERTEX
8
RASTER
10
90.596
20
14.968
30
0
0
VERTEX
8
RASTER
10
90.54
20
14.964
30
0
0
VERTEX
8
RASTER
10
90.492
20
14.953
30
0
0
VERTEX
8
RASTER
10
90.451
20
14.935
30
0
0
VERTEX
8
RASTER
10
90.418
20
14.909
30
0
0
VERTEX
8
RASTER
10
90.392
20
14.875
30
0
0
VERTEX
8
RASTER
10
90.373
20
14.834
30
0
0
VERTEX
8
RASTER
10
90.362
20
14.786
30
0
0
VERTEX
8
RASTER
10
90.358
20
14.73
30
0
0
SEQEND
8
RASTER
0
POLYLINE
8
RASTER
66
1
70
1
0
VERTEX
8
RASTER
10
88.141
20
12.513
30
0
0
VERTEX
8
RASTER
10
88.141
20
11.087
30
0
0
VERTEX
8
RASTER
10
88.145
20
11.032
30
0
0
VERTEX
8
RASTER
10
88.156
20
10.983
30
0
0
VERTEX
8
RASTER
10
88.174
20
10.942
30
0
0
VERTEX
8
RASTER
10
88.2
20
10.909
30
0
0
VERTEX
8
RASTER
10
88.234
20
10.883
30
0
0
VERTEX
8
RASTER
10
88.274
20
10.864
30
0
0
VERTEX
8
RASTER
10
88.323
20
10.853
30
0
0
VERTEX
8
RASTER
10
88.378
20
10.85
30
0
0
VERTEX
8
RASTER
10
89.804
20
10.85
30
0
0
VERTEX
8
RASTER
10
89.86
20
10.853
30
0
0
VERTEX
8
RASTER
10
89.908
20
10.864
30
0
0
VERTEX
8
RASTER
10
89.949
20
10.883
30
0
0
VERTEX
8
RASTER
10
89.982
20
10.909
30
0
0
VERTEX
8
RASTER
10
90.008
20
10.942
30
0
0
VERTEX
8
RASTER
10
90.027
20
10.983
30
0
0
VERTEX
8
RASTER
10
90.038
20
11.032
30
0
0
VERTEX
8
RASTER
10
90.042
20
11.087
30
0
0
VERTEX
8
RASTER
10
90.042
20
12.513
30
0
0
VERTEX
8
RASTER
10
90.038
20
12.568
30
0
0
VERTEX
8
RASTER
10
90.027
20
12.617
30
0
0
VERTEX
8
RASTER
10
90.008
20
12.658
30
0
0
VERTEX
8
RASTER
10
89.982
20
12.691
30
0
0
VERTEX
8
RASTER
10
89.949
20
12.717
30
0
0
VERTEX
8
RASTER
10
89.908
20
12.736
30
0
0
VERTEX
8
RASTER
10
89.86
20
12.747
30
0
0
VERTEX
8
RASTER
10
89.804
20
12.75
30
0
0
VERTEX
8
RASTER
10
88.378
20
12.75
30
0
0
VERTEX
8
RASTER
10
88.323
20
12.747
30
0
0
VERTEX
8
RASTER
10
88.274
20
12.736
30
0
0
VERTEX
8
RASTER
10
88.234
20
12.717
30
0
0
VERTEX
8
RASTER
10
88.2
20
12.691
30
0
0
VERTEX
8
RASTER
10
88.174
20
12.658
30
0
0
VERTEX
8
RASTER
10
88.156
20
12.617
30
0
0
VERTEX
8
RASTER
10
88.145
20
12.568
30
0
0
VERTEX
8
RASTER
10
88.141
20
12.513
30
0
0
SEQEND
8
RASTER
0
POLYLINE
8
RASTER
66
1
70
1
0
VERTEX
8
RASTER
10
90.358
20
12.513
30
0
0
VERTEX
8
RASTER
10
90.358
20
11.087
30
0
0
VERTEX
8
RASTER
10
90.362
20
11.032
30
0
0
VERTEX
8
RASTER
10
90.373
20
10.983
30
0
0
VERTEX
8
RASTER
10
90.392
20
10.942
30
0
0
VERTEX
8
RASTER
10
90.418
20
10.909
30
0
0
VERTEX
8
RASTER
10
90.451
20
10.883
30
0
0
VERTEX
8
RASTER
10
90.492
20
10.864
30
0
0
VERTEX
8
RASTER
10
90.54
20
10.853
30
0
0
VERTEX
8
RASTER
10
90.596
20
10.85
30
0
0
VERTEX
8
RASTER
10
92.022
20
10.85
30
0
0
VERTEX
8
RASTER
10
92.077
20
10.853
30
0
0
VERTEX
8
RASTER
10
92.126
20
10.864
30
0
0
VERTEX
8
RASTER
10
92.166
20
10.883
30
0
0
VERTEX
8
RASTER
10
92.2
20
10.909
30
0
0
VERTEX
8
RASTER
10
92.226
20
10.942
30
0
0
VERTEX
8
RASTER
10
92.244
20
10.983
30
0
0
VERTEX
8
RASTER
10
92.255
20
11.032
30
0
0
VERTEX
8
RASTER
10
92.259
20
11.087
30
0
0
VERTEX
8
RASTER
10
92.259
20
12.513
30
0
0
VERTEX
8
RASTER
10
92.255
20
12.568
30
0
0
VERTEX
8
RASTER
10
92.244
20
12.617
30
0
0
VERTEX
8
RASTER
10
92.226
20
12.658
30
0
0
VERTEX
8
RASTER
10
92.2
20
12.691
30
0
0
VERTEX
8
RASTER
10
92.166
20
12.717
30
0
0
VERTEX
8
RASTER
10
92.126
20
12.736
30
0
0
VERTEX
8
RASTER
10
92.077
20
12.747
30
0
0
VERTEX
8
RASTER
10
92.022
20
12.75
30
0
0
VERTEX
8
RASTER
10
90.596
20
12.75
30
0
0
VERTEX
8
RASTER
10
90.54
20
12.747
30
0
0
VERTEX
8
RASTER
10
90.492
20
12.736
30
0
0
VERTEX
8
RASTER
10
90.451
20
12.717
30
0
0
VERTEX
8
RASTER
10
90.418
20
12.691
30
0
0
VERTEX
8
RASTER
10
90.392
20
12.658
30
0
0
VERTEX
8
RASTER
10
90.373
20
12.617
30
0
0
VERTEX
8
RASTER
10
90.362
20
12.568
30
0
0
VERTEX
8
RASTER
10
90.358
20
12.513
30
0
0
SEQEND
8
RASTER
0
POLYLINE
8
RASTER
66
1
70
1
0
VERTEX
8
RASTER
10
88.141
20
10.295
30
0
0
VERTEX
8
RASTER
10
88.141
20
8.87
30
0
0
VERTEX
8
RASTER
10
88.145
20
8.814
30
0
0
VERTEX
8
RASTER
10
88.156
20
8.766
30
0
0
VERTEX
8
RASTER
10
88.174
20
8.725
30
0
0
VERTEX
8
RASTER
10
88.2
20
8.691
30
0
0
VERTEX
8
RASTER
10
88.234
20
8.665
30
0
0
VERTEX
8
RASTER
10
88.274
20
8.647
30
0
0
VERTEX
8
RASTER
10
88.323
20
8.636
30
0
0
VERTEX
8
RASTER
10
88.378
20
8.632
30
0
0
VERTEX
8
RASTER
10
89.804
20
8.632
30
0
0
VERTEX
8
RASTER
10
89.86
20
8.636
30
0
0
VERTEX
8
RASTER
10
89.908
20
8.647
30
0
0
VERTEX
8
RASTER
10
89.949
20
8.665
30
0
0
VERTEX
8
RASTER
10
89.982
20
8.691
30
0
0
VERTEX
8
RASTER
10
90.008
20
8.725
30
0
0
VERTEX
8
RASTER
10
90.027
20
8.766
30
0
0
VERTEX
8
RASTER
10
90.038
20
8.814
30
0
0
VERTEX
8
RASTER
10
90.042
20
8.87
30
0
0
VERTEX
8
RASTER
10
90.042
20
10.295
30
0
0
VERTEX
8
RASTER
10
90.038
20
10.351
30
0
0
VERTEX
8
RASTER
10
90.027
20
10.399
30
0
0
VERTEX
8
RASTER
10
90.008
20
10.44
30
0
0
VERTEX
8
RASTER
10
89.982
20
10.473
30
0
0
VERTEX
8
RASTER
10
89.949
20
10.499
30
0
0
VERTEX
8
RASTER
10
89.908
20
10.518
30
0
0
VERTEX
8
RASTER
10
89.86
20
10.529
30
0
0
VERTEX
8
RASTER
10
89.804
20
10.533
30
0
0
VERTEX
8
RASTER
10
88.378
20
10.533
30
0
0
VERTEX
8
RASTER
10
88.323
20
10.529
30
0
0
VERTEX
8
RASTER
10
88.274
20
10.518
30
0
0
VERTEX
8
RASTER
10
88.234
20
10.499
30
0
0
VERTEX
8
RASTER
10
88.2
20
10.473
30
0
0
VERTEX
8
RASTER
10
88.174
20
10.44
30
0
0
VERTEX
8
RASTER
10
88.156
20
10.399
30
0
0
VERTEX
8
RASTER
10
88.145
20
10.351
30
0
0
VERTEX
8
RASTER
10
88.141
20
10.295
30
0
0
SEQEND
8
RASTER
0
POLYLINE
8
RASTER
66
1
70
1
0
VERTEX
8
RASTER
10
90.358
20
10.295
30
0
0
VERTEX
8
RASTER
10
90.358
20
8.87
30
0
0
VERTEX
8
RASTER
10
90.362
20
8.814
30
0
0
VERTEX
8
RASTER
10
90.373
20
8.766
30
0
0
VERTEX
8
RASTER
10
90.392
20
8.725
30
0
0
VERTEX
8
RASTER
10
90.418
20
8.691
30
0
0
VERTEX
8
RASTER
10
90.451
20
8.665
30
0
0
VERTEX
8
RASTER
10
90.492
20
8.647
30
0
0
VERTEX
8
RASTER
10
90.54
20
8.636
30
0
0
VERTEX
8
RASTER
10
90.596
20
8.632
30
0
0
VERTEX
8
RASTER
10
92.022
20
8.632
30
0
0
VERTEX
8
RASTER
10
92.077
20
8.636
30
0
0
VERTEX
8
RASTER
10
92.126
20
8.647
30
0
0
VERTEX
8
RASTER
10
92.166
20
8.665
30
0
0
VERTEX
8
RASTER
10
92.2
20
8.691
30
0
0
VERTEX
8
RASTER
10
92.226
20
8.725
30
0
0
VERTEX
8
RASTER
10
92.244
20
8.766
30
0
0
VERTEX
8
RASTER
10
92.255
20
8.814
30
0
0
VERTEX
8
RASTER
10
92.259
20
8.87
30
0
0
VERTEX
8
RASTER
10
92.259
20
10.295
30
0
0
VERTEX
8
RASTER
10
92.255
20
10.351
30
0
0
VERTEX
8
RASTER
10
92.244
20
10.399
30
0
0
VERTEX
8
RASTER
10
92.226
20
10.44
30
0
0
VERTEX
8
RASTER
10
92.2
20
10.473
30
0
0
VERTEX
8
RASTER
10
92.166
20
10.499
30
0
0
VERTEX
8
RASTER
10
92.126
20
10.518
30
0
0
VERTEX
8
RASTER
10
92.077
20
10.529
30
0
0
VERTEX
8
RASTER
10
92.022
20
10.533
30
0
0
VERTEX
8
RASTER
10
90.596
20
10.533
30
0
0
VERTEX
8
RASTER
10
90.54
20
10.529
30
0
0
VERTEX
8
RASTER
10
90.492
20
10.518
30
0
0
VERTEX
8
RASTER
10
90.451
20
10.499
30
0
0
VERTEX
8
RASTER
10
90.418
20
10.473
30
0
0
VERTEX
8
RASTER
10
90.392
20
10.44
30
0
0
VERTEX
8
RASTER
10
90.373
20
10.399
30
0
0
VERTEX
8
RASTER
10
90.362
20
10.351
30
0
0
VERTEX
8
RASTER
10
90.358
20
10.295
30
0
0
SEQEND
8
RASTER
0
CIRCLE
8
CUT
10
109.8
20
11.8
30
0
40
7.8
0
CIRCLE
8
RASTER
10
109.8
20
11.8
30
0
40
7.2
0
CIRCLE
8
RASTER
10
109.8
20
11.8
30
0
40
6.7
0
CIRCLE
8
RASTER
10
109.8
20
11.8
30
0
40
6
0
POLYLINE
8
RASTER
66
1
70
1
0
VERTEX
8
RASTER
10
106.66
20
13.279
30
0
0
VERTEX
8
RASTER
10
109.511
20
8.341
30
0
0
VERTEX
8
RASTER
10
109.552
20
8.279
30
0
0
VERTEX
8
RASTER
10
109.597
20
8.231
30
0
0
VERTEX
8
RASTER
10
109.646
20
8.196
30
0
0
VERTEX
8
RASTER
10
109.698
20
8.175
30
0
0
VERTEX
8
RASTER
10
109.754
20
8.167
30
0
0
VERTEX
8
RASTER
10
109.814
20
8.173
30
0
0
VERTEX
8
RASTER
10
109.877
20
8.192
30
0
0
VERTEX
8
RASTER
10
109.944
20
8.225
30
0
0
VERTEX
8
RASTER
10
110.355
20
8.462
30
0
0
VERTEX
8
RASTER
10
110.417
20
8.504
30
0
0
VERTEX
8
RASTER
10
110.465
20
8.549
30
0
0
VERTEX
8
RASTER
10
110.5
20
8.598
30
0
0
VERTEX
8
RASTER
10
110.521
20
8.65
30
0
0
VERTEX
8
RASTER
10
110.529
20
8.706
30
0
0
VERTEX
8
RASTER
10
110.523
20
8.765
30
0
0
VERTEX
8
RASTER
10
110.504
20
8.828
30
0
0
VERTEX
8
RASTER
10
110.471
20
8.895
30
0
0
VERTEX
8
RASTER
10
107.62
20
13.834
30
0
0
VERTEX
8
RASTER
10
107.579
20
13.895
30
0
0
VERTEX
8
RASTER
10
107.533
20
13.944
30
0
0
VERTEX
8
RASTER
10
107.485
20
13.979
30
0
0
VERTEX
8
RASTER
10
107.433
20
14
30
0
0
VERTEX
8
RASTER
10
107.377
20
14.008
30
0
0
VERTEX
8
RASTER
10
107.317
20
14.002
30
0
0
VERTEX
8
RASTER
10
107.254
20
13.982
30
0
0
VERTEX
8
RASTER
10
107.187
20
13.95
30
0
0
VERTEX
8
RASTER
10
106.776
20
13.712
30
0
0
VERTEX
8
RASTER
10
106.714
20
13.671
30
0
0
VERTEX
8
RASTER
10
106.665
20
13.626
30
0
0
VERTEX
8
RASTER
10
106.631
20
13.577
30
0
0
VERTEX
8
RASTER
10
106.609
20
13.525
30
0
0
VERTEX
8
RASTER
10
106.602
20
13.469
30
0
0
VERTEX
8
RASTER
10
106.608
20
13.409
30
0
0
VERTEX
8
RASTER
10
106.627
20
13.346
30
0
0
VERTEX
8
RASTER
10
106.66
20
13.279
30
0
0
SEQEND
8
RASTER
0
POLYLINE
8
RASTER
66
1
70
1
0
VERTEX
8
RASTER
10
106.934
20
13.438
30
0
0
VERTEX
8
RASTER
10
107.346
20
13.675
30
0
0
VERTEX
8
RASTER
10
107.504
20
13.401
30
0
0
VERTEX
8
RASTER
10
107.092
20
13.163
30
0
0
VERTEX
8
RASTER
10
106.934
20
13.438
30
0
0
SEQEND
8
RASTER
0
POLYLINE
8
RASTER
66
1
70
1
0
VERTEX
8
RASTER
10
109.627
20
8.774
30
0
0
VERTEX
8
RASTER
10
110.038
20
9.011
30
0
0
VERTEX
8
RASTER
10
110.197
20
8.737
30
0
0
VERTEX
8
RASTER
10
109.785
20
8.499
30
0
0
VERTEX
8
RASTER
10
109.627
20
8.774
30
0
0
SEQEND
8
RASTER
0
POLYLINE
8
RASTER
66
1
70
1
0
VERTEX
8
RASTER
10
107.894
20
13.992
30
0
0
VERTEX
8
RASTER
10
110.745
20
9.054
30
0
0
VERTEX
8
RASTER
10
110.787
20
8.992
30
0
0
VERTEX
8
RASTER
10
110.832
20
8.943
30
0
0
VERTEX
8
RASTER
10
110.881
20
8.909
30
0
0
VERTEX
8
RASTER
10
110.933
20
8.887
30
0
0
VERTEX
8
RASTER
10
110.989
20
8.88
30
0
0
VERTEX
8
RASTER
10
111.048
20
8.885
30
0
0
VERTEX
8
RASTER
10
111.111
20
8.905
30
0
0
VERTEX
8
RASTER
10
111.178
20
8.938
30
0
0
VERTEX
8
RASTER
10
111.59
20
9.175
30
0
0
VERTEX
8
RASTER
10
111.652
20
9.217
30
0
0
VERTEX
8
RASTER
10
111.7
20
9.262
30
0
0
VERTEX
8
RASTER
10
111.735
20
9.31
30
0
0
VERTEX
8
RASTER
10
111.756
20
9.363
30
0
0
VERTEX
8
RASTER
10
111.764
20
9.419
30
0
0
VERTEX
8
RASTER
10
111.758
20
9.478
30
0
0
VERTEX
8
RASTER
10
111.739
20
9.541
30
0
0
VERTEX
8
RASTER
10
111.706
20
9.608
30
0
0
VERTEX
8
RASTER
10
108.855
20
14.546
30
0
0
VERTEX
8
RASTER
10
108.813
20
14.608
30
0
0
VERTEX
8
RASTER
10
108.768
20
14.657
30
0
0
VERTEX
8
RASTER
10
108.719
20
14.691
30
0
0
VERTEX
8
RASTER
10
108.667
20
14.713
30
0
0
VERTEX
8
RASTER
10
108.611
20
14.72
30
0
0
VERTEX
8
RASTER
10
108.552
20
14.715
30
0
0
VERTEX
8
RASTER
10
108.489
20
14.695
30
0
0
VERTEX
8
RASTER
10
108.422
20
14.662
30
0
0
VERTEX
8
RASTER
10
108.01
20
14.425
30
0
0
VERTEX
8
RASTER
10
107.948
20
14.383
30
0
0
VERTEX
8
RASTER
10
107.9
20
14.338
30
0
0
VERTEX
8
RASTER
10
107.865
20
14.29
30
0
0
VERTEX
8
RASTER
10
107.844
20
14.237
30
0
0
VERTEX
8
RASTER
10
107.836
20
14.181
30
0
0
VERTEX
8
RASTER
10
107.842
20
14.122
30
0
0
VERTEX
8
RASTER
10
107.861
20
14.059
30
0
0
VERTEX
8
RASTER
10
107.894
20
13.992
30
0
0
SEQEND
8
RASTER
0
POLYLINE
8
RASTER
66
1
70
1
0
VERTEX
8
RASTER
10
108.169
20
14.15
30
0
0
VERTEX
8
RASTER
10
108.58
20
14.388
30
0
0
VERTEX
8
RASTER
10
108.739
20
14.114
30
0
0
VERTEX
8
RASTER
10
108.327
20
13.876
30
0
0
VERTEX
8
RASTER
10
108.169
20
14.15
30
0
0
SEQEND
8
RASTER
0
POLYLINE
8
RASTER
66
1
70
1
0
VERTEX
8
RASTER
10
110.861
20
9.486
30
0
0
VERTEX
8
RASTER
10
111.273
20
9.724
30
0
0
VERTEX
8
RASTER
10
111.431
20
9.45
30
0
0
VERTEX
8
RASTER
10
111.02
20
9.212
30
0
0
VERTEX
8
RASTER
10
110.861
20
9.486
30
0
0
SEQEND
8
RASTER
0
POLYLINE
8
RASTER
66
1
70
1
0
VERTEX
8
RASTER
10
109.129
20
14.705
30
0
0
VERTEX
8
RASTER
10
111.98
20
9.766
30
0
0
VERTEX
8
RASTER
10
112.021
20
9.705
30
0
0
VERTEX
8
RASTER
10
112.067
20
9.656
30
0
0
VERTEX
8
RASTER
10
112.115
20
9.621
30
0
0
VERTEX
8
RASTER
10
112.167
20
9.6
30
0
0
VERTEX
8
RASTER
10
112.223
20
9.592
30
0
0
VERTEX
8
RASTER
10
112.283
20
9.598
30
0
0
VERTEX
8
RASTER
10
112.346
20
9.618
30
0
0
VERTEX
8
RASTER
10
112.413
20
9.65
30
0
0
VERTEX
8
RASTER
10
112.824
20
9.888
30
0
0
VERTEX
8
RASTER
10
112.886
20
9.929
30
0
0
VERTEX
8
RASTER
10
112.935
20
9.974
30
0
0
VERTEX
8
RASTER
10
112.969
20
10.023
30
0
0
VERTEX
8
RASTER
10
112.991
20
10.075
30
0
0
VERTEX
8
RASTER
10
112.998
20
10.131
30
0
0
VERTEX
8
RASTER
10
112.992
20
10.191
30
0
0
VERTEX
8
RASTER
10
112.973
20
10.254
30
0
0
VERTEX
8
RASTER
10
112.94
20
10.321
30
0
0
VERTEX
8
RASTER
10
110.089
20
15.259
30
0
0
VERTEX
8
RASTER
10
110.048
20
15.321
30
0
0
VERTEX
8
RASTER
10
110.003
20
15.369
30
0
0
VERTEX
8
RASTER
10
109.954
20
15.404
30
0
0
VERTEX
8
RASTER
10
109.902
20
15.425
30
0
0
VERTEX
8
RASTER
10
109.846
20
15.433
30
0
0
VERTEX
8
RASTER
10
109.786
20
15.427
30
0
0
VERTEX
8
RASTER
10
109.723
20
15.408
30
0
0
VERTEX
8
RASTER
10
109.656
20
15.375
30
0
0
VERTEX
8
RASTER
10
109.245
20
15.138
30
0
0
VERTEX
8
RASTER
10
109.183
20
15.096
30
0
0
VERTEX
8
RASTER
10
109.135
20
15.051
30
0
0
VERTEX
8
RASTER
10
109.1
20
15.002
30
0
0
VERTEX
8
RASTER
10
109.079
20
14.95
30
0
0
VERTEX
8
RASTER
10
109.071
20
14.894
30
0
0
VERTEX
8
RASTER
10
109.077
20
14.835
30
0
0
VERTEX
8
RASTER
10
109.096
20
14.772
30
0
0
VERTEX
8
RASTER
10
109.129
20
14.705
30
0
0
SEQEND
8
RASTER
0
POLYLINE
8
RASTER
66
1
70
1
0
VERTEX
8
RASTER
10
109.403
20
14.863
30
0
0
VERTEX
8
RASTER
10
109.815
20
15.101
30
0
0
VERTEX
8
RASTER
10
109.973
20
14.826
30
0
0
VERTEX
8
RASTER
10
109.562
20
14.589
30
0
0
VERTEX
8
RASTER
10
109.403
20
14.863
30
0
0
SEQEND
8
RASTER
0
POLYLINE
8
RASTER
66
1
70
1
0
VERTEX
8
RASTER
10
112.096
20
10.199
30
0
0
VERTEX
8
RASTER
10
112.508
20
10.437
30
0
0
VERTEX
8
RASTER
10
112.666
20
10.162
30
0
0
VERTEX
8
RASTER
10
112.254
20
9.925
30
0
0
VERTEX
8
RASTER
10
112.096
20
10.199
30
0
0
SEQEND
8
RASTER
0
CIRCLE
8
CUT
10
129.4
20
11.8
30
0
40
7.8
0
CIRCLE
8
RASTER
10
129.4
20
11.8
30
0
40
7.2
0
CIRCLE
8
RASTER
10
129.4
20
11.8
30
0
40
6.7
0
CIRCLE
8
RASTER
10
129.4
20
11.8
30
0
40
6
0
POLYLINE
8
RASTER
66
1
70
1
0
VERTEX
8
RASTER
10
130.35
20
14.176
30
0
0
VERTEX
8
RASTER
10
130.331
20
14.479
30
0
0
VERTEX
8
RASTER
10
130.276
20
14.762
30
0
0
VERTEX
8
RASTER
10
130.188
20
15.017
30
0
0
VERTEX
8
RASTER
10
130.072
20
15.24
30
0
0
VERTEX
8
RASTER
10
129.931
20
15.424
30
0
0
VERTEX
8
RASTER
10
129.77
20
15.563
30
0
0
VERTEX
8
RASTER
10
129.592
20
15.65
30
0
0
VERTEX
8
RASTER
10
129.4
20
15.681
30
0
0
VERTEX
8
RASTER
10
129.208
20
15.65
30
0
0
VERTEX
8
RASTER
10
129.03
20
15.563
30
0
0
VERTEX
8
RASTER
10
128.869
20
15.424
30
0
0
VERTEX
8
RASTER
10
128.728
20
15.24
30
0
0
VERTEX
8
RASTER
10
128.612
20
15.017
30
0
0
VERTEX
8
RASTER
10
128.524
20
14.762
30
0
0
VERTEX
8
RASTER
10
128.469
20
14.479
30
0
0
VERTEX
8
RASTER
10
128.45
20
14.176
30
0
0
VERTEX
8
RASTER
10
128.469
20
13.873
30
0
0
VERTEX
8
RASTER
10
128.524
20
13.59
30
0
0
VERTEX
8
RASTER
10
128.612
20
13.335
30
0
0
VERTEX
8
RASTER
10
128.728
20
13.112
30
0
0
VERTEX
8
RASTER
10
128.869
20
12.928
30
0
0
VERTEX
8
RASTER
10
129.03
20
12.789
30
0
0
VERTEX
8
RASTER
10
129.208
20
12.702
30
0
0
VERTEX
8
RASTER
10
129.4
20
12.671
30
0
0
VERTEX
8
RASTER
10
129.592
20
12.702
30
0
0
VERTEX
8
RASTER
10
129.77
20
12.789
30
0
0
VERTEX
8
RASTER
10
129.931
20
12.928
30
0
0
VERTEX
8
RASTER
10
130.072
20
13.112
30
0
0
VERTEX
8
RASTER
10
130.188
20
13.335
30
0
0
VERTEX
8
RASTER
10
130.276
20
13.59
30
0
0
VERTEX
8
RASTER
10
130.331
20
13.873
30
0
0
VERTEX
8
RASTER
10
130.35
20
14.176
30
0
0
SEQEND
8
RASTER
0
POLYLINE
8
RASTER
66
1
70
1
0
VERTEX
8
RASTER
10
131.953
20
11.63
30
0
0
VERTEX
8
RASTER
10
132.236
20
11.742
30
0
0
VERTEX
8
RASTER
10
132.487
20
11.882
30
0
0
VERTEX
8
RASTER
10
132.703
20
12.045
30
0
0
VERTEX
8
RASTER
10
132.879
20
12.224
30
0
0
VERTEX
8
RASTER
10
133.011
20
12.414
30
0
0
VERTEX
8
RASTER
10
133.093
20
12.611
30
0
0
VERTEX
8
RASTER
10
133.121
20
12.808
30
0
0
VERTEX
8
RASTER
10
133.091
20
12.999
30
0
0
VERTEX
8
RASTER
10
133.003
20
13.172
30
0
0
VERTEX
8
RASTER
10
132.864
20
13.315
30
0
0
VERTEX
8
RASTER
10
132.682
20
13.425
30
0
0
VERTEX
8
RASTER
10
132.464
20
13.502
30
0
0
VERTEX
8
RASTER
10
132.216
20
13.544
30
0
0
VERTEX
8
RASTER
10
131.946
20
13.548
30
0
0
VERTEX
8
RASTER
10
131.66
20
13.513
30
0
0
VERTEX
8
RASTER
10
131.366
20
13.438
30
0
0
VERTEX
8
RASTER
10
131.084
20
13.326
30
0
0
VERTEX
8
RASTER
10
130.832
20
13.186
30
0
0
VERTEX
8
RASTER
10
130.616
20
13.024
30
0
0
VERTEX
8
RASTER
10
130.44
20
12.845
30
0
0
VERTEX
8
RASTER
10
130.309
20
12.654
30
0
0
VERTEX
8
RASTER
10
130.227
20
12.458
30
0
0
VERTEX
8
RASTER
10
130.198
20
12.261
30
0
0
VERTEX
8
RASTER
10
130.229
20
12.069
30
0
0
VERTEX
8
RASTER
10
130.317
20
11.896
30
0
0
VERTEX
8
RASTER
10
130.455
20
11.754
30
0
0
VERTEX
8
RASTER
10
130.637
20
11.643
30
0
0
VERTEX
8
RASTER
10
130.855
20
11.566
30
0
0
VERTEX
8
RASTER
10
131.103
20
11.525
30
0
0
VERTEX
8
RASTER
10
131.373
20
11.52
30
0
0
VERTEX
8
RASTER
10
131.659
20
11.555
30
0
0
VERTEX
8
RASTER
10
131.953
20
11.63
30
0
0
SEQEND
8
RASTER
0
POLYLINE
8
RASTER
66
1
70
1
0
VERTEX
8
RASTER
10
130.028
20
9.319
30
0
0
VERTEX
8
RASTER
10
130.222
20
9.085
30
0
0
VERTEX
8
RASTER
10
130.432
20
8.889
30
0
0
VERTEX
8
RASTER
10
130.654
20
8.734
30
0
0
VERTEX
8
RASTER
10
130.878
20
8.622
30
0
0
VERTEX
8
RASTER
10
131.1
20
8.556
30
0
0
VERTEX
8
RASTER
10
131.312
20
8.539
30
0
0
VERTEX
8
RASTER
10
131.508
20
8.573
30
0
0
VERTEX
8
RASTER
10
131.681
20
8.66
30
0
0
VERTEX
8
RASTER
10
131.818
20
8.798
30
0
0
VERTEX
8
RASTER
10
131.911
20
8.973
30
0
0
VERTEX
8
RASTER
10
131.96
20
9.181
30
0
0
VERTEX
8
RASTER
10
131.966
20
9.412
30
0
0
VERTEX
8
RASTER
10
131.929
20
9.66
30
0
0
VERTEX
8
RASTER
10
131.849
20
9.919
30
0
0
VERTEX
8
RASTER
10
131.728
20
10.18
30
0
0
VERTEX
8
RASTER
10
131.565
20
10.436
30
0
0
VERTEX
8
RASTER
10
131.372
20
10.67
30
0
0
VERTEX
8
RASTER
10
131.161
20
10.866
30
0
0
VERTEX
8
RASTER
10
130.94
20
11.022
30
0
0
VERTEX
8
RASTER
10
130.715
20
11.134
30
0
0
VERTEX
8
RASTER
10
130.493
20
11.2
30
0
0
VERTEX
8
RASTER
10
130.281
20
11.217
30
0
0
VERTEX
8
RASTER
10
130.085
20
11.183
30
0
0
VERTEX
8
RASTER
10
129.912
20
11.095
30
0
0
VERTEX
8
RASTER
10
129.775
20
10.958
30
0
0
VERTEX
8
RASTER
10
129.682
20
10.782
30
0
0
VERTEX
8
RASTER
10
129.633
20
10.575
30
0
0
VERTEX
8
RASTER
10
129.627
20
10.344
30
0
0
VERTEX
8
RASTER
10
129.664
20
10.095
30
0
0
VERTEX
8
RASTER
10
129.744
20
9.837
30
0
0
VERTEX
8
RASTER
10
129.865
20
9.576
30
0
0
VERTEX
8
RASTER
10
130.028
20
9.319
30
0
0
SEQEND
8
RASTER
0
POLYLINE
8
RASTER
66
1
70
1
0
VERTEX
8
RASTER
10
127.235
20
10.436
30
0
0
VERTEX
8
RASTER
10
127.072
20
10.18
30
0
0
VERTEX
8
RASTER
10
126.951
20
9.919
30
0
0
VERTEX
8
RASTER
10
126.871
20
9.66
30
0
0
VERTEX
8
RASTER
10
126.834
20
9.412
30
0
0
VERTEX
8
RASTER
10
126.84
20
9.181
30
0
0
VERTEX
8
RASTER
10
126.889
20
8.973
30
0
0
VERTEX
8
RASTER
10
126.982
20
8.798
30
0
0
VERTEX
8
RASTER
10
127.119
20
8.66
30
0
0
VERTEX
8
RASTER
10
127.292
20
8.573
30
0
0
VERTEX
8
RASTER
10
127.488
20
8.539
30
0
0
VERTEX
8
RASTER
10
127.7
20
8.556
30
0
0
VERTEX
8
RASTER
10
127.922
20
8.622
30
0
0
VERTEX
8
RASTER
10
128.146
20
8.734
30
0
0
VERTEX
8
RASTER
10
128.368
20
8.889
30
0
0
VERTEX
8
RASTER
10
128.578
20
9.085
30
0
0
VERTEX
8
RASTER
10
128.772
20
9.319
30
0
0
VERTEX
8
RASTER
10
128.935
20
9.576
30
0
0
VERTEX
8
RASTER
10
129.056
20
9.837
30
0
0
VERTEX
8
RASTER
10
129.136
20
10.095
30
0
0
VERTEX
8
RASTER
10
129.173
20
10.344
30
0
0
VERTEX
8
RASTER
10
129.167
20
10.575
30
0
0
VERTEX
8
RASTER
10
129.118
20
10.782
30
0
0
VERTEX
8
RASTER
10
129.025
20
10.958
30
0
0
VERTEX
8
RASTER
10
128.888
20
11.095
30
0
0
VERTEX
8
RASTER
10
128.715
20
11.183
30
0
0
VERTEX
8
RASTER
10
128.519
20
11.217
30
0
0
VERTEX
8
RASTER
10
128.307
20
11.2
30
0
0
VERTEX
8
RASTER
10
128.085
20
11.134
30
0
0
VERTEX
8
RASTER
10
127.86
20
11.022
30
0
0
VERTEX
8
RASTER
10
127.639
20
10.866
30
0
0
VERTEX
8
RASTER
10
127.428
20
10.67
30
0
0
VERTEX
8
RASTER
10
127.235
20
10.436
30
0
0
SEQEND
8
RASTER
0
POLYLINE
8
RASTER
66
1
70
1
0
VERTEX
8
RASTER
10
127.434
20
13.438
30
0
0
VERTEX
8
RASTER
10
127.14
20
13.513
30
0
0
VERTEX
8
RASTER
10
126.854
20
13.548
30
0
0
VERTEX
8
RASTER
10
126.584
20
13.544
30
0
0
VERTEX
8
RASTER
10
126.336
20
13.502
30
0
0
VERTEX
8
RASTER
10
126.118
20
13.425
30
0
0
VERTEX
8
RASTER
10
125.936
20
13.315
30
0
0
VERTEX
8
RASTER
10
125.797
20
13.172
30
0
0
VERTEX
8
RASTER
10
125.709
20
12.999
30
0
0
VERTEX
8
RASTER
10
125.679
20
12.808
30
0
0
VERTEX
8
RASTER
10
125.707
20
12.611
30
0
0
VERTEX
8
RASTER
10
125.789
20
12.414
30
0
0
VERTEX
8
RASTER
10
125.921
20
12.224
30
0
0
VERTEX
8
RASTER
10
126.097
20
12.045
30
0
0
VERTEX
8
RASTER
10
126.313
20
11.882
30
0
0
VERTEX
8
RASTER
10
126.564
20
11.742
30
0
0
VERTEX
8
RASTER
10
126.847
20
11.63
30
0
0
VERTEX
8
RASTER
10
127.141
20
11.555
30
0
0
VERTEX
8
RASTER
10
127.427
20
11.52
30
0
0
VERTEX
8
RASTER
10
127.697
20
11.525
30
0
0
VERTEX
8
RASTER
10
127.945
20
11.566
30
0
0
VERTEX
8
RASTER
10
128.163
20
11.643
30
0
0
VERTEX
8
RASTER
10
128.345
20
11.754
30
0
0
VERTEX
8
RASTER
10
128.483
20
11.896
30
0
0
VERTEX
8
RASTER
10
128.571
20
12.069
30
0
0
VERTEX
8
RASTER
10
128.602
20
12.261
30
0
0
VERTEX
8
RASTER
10
128.573
20
12.458
30
0
0
VERTEX
8
RASTER
10
128.491
20
12.654
30
0
0
VERTEX
8
RASTER
10
128.36
20
12.845
30
0
0
VERTEX
8
RASTER
10
128.184
20
13.024
30
0
0
VERTEX
8
RASTER
10
127.968
20
13.186
30
0
0
VERTEX
8
RASTER
10
127.716
20
13.326
30
0
0
VERTEX
8
RASTER
10
127.434
20
13.438
30
0
0
SEQEND
8
RASTER
0
CIRCLE
8
RASTER
10
129.4
20
11.8
30
0
40
0.713
0
ENDSEC
0
EOF
