0
SECTION
2
HEADER
9
$ACADVER
1
AC1009
9
$EXTMIN
10
0
20
0
9
$EXTMAX
10
180
20
28.9
0
ENDSEC
0
SECTION
2
TABLES
0
TABLE
2
LAYER
70
2
0
LAYER
2
CUT
70
0
62
1
6
CONTINUOUS
0
LAYER
2
RASTER
70
0
62
7
6
CONTINUOUS
0
ENDTAB
0
ENDSEC
0
SECTION
2
ENTITIES
0
POLYLINE
8
CUT
66
1
70
1
0
VERTEX
8
CUT
10
4
20
11.9
30
0
0
VERTEX
8
CUT
10
11.5
20
11.9
30
0
0
VERTEX
8
CUT
10
11.5
20
24.9
30
0
0
VERTEX
8
CUT
10
12.7
20
24.9
30
0
0
VERTEX
8
CUT
10
12.7
20
23.9
30
0
0
VERTEX
8
CUT
10
19
20
23.9
30
0
0
VERTEX
8
CUT
10
19
20
18.9
30
0
0
VERTEX
8
CUT
10
12.7
20
18.9
30
0
0
VERTEX
8
CUT
10
12.7
20
17.4
30
0
0
VERTEX
8
CUT
10
19
20
17.4
30
0
0
VERTEX
8
CUT
10
19
20
12.9
30
0
0
VERTEX
8
CUT
10
12.7
20
12.9
30
0
0
VERTEX
8
CUT
10
12.7
20
11.9
30
0
0
VERTEX
8
CUT
10
22
20
11.9
30
0
0
VERTEX
8
CUT
10
20
20
6.9
30
0
0
VERTEX
8
CUT
10
15
20
6.9
30
0
0
VERTEX
8
CUT
10
15
20
4
30
0
0
VERTEX
8
CUT
10
9
20
4
30
0
0
VERTEX
8
CUT
10
9
20
6.9
30
0
0
VERTEX
8
CUT
10
6
20
6.9
30
0
0
SEQEND
8
CUT
0
POLYLINE
8
RASTER
66
1
70
1
0
VERTEX
8
RASTER
10
5.5
20
10.4
30
0
0
VERTEX
8
RASTER
10
21
20
10.4
30
0
0
VERTEX
8
RASTER
10
21
20
9.8
30
0
0
VERTEX
8
RASTER
10
5.5
20
9.8
30
0
0
SEQEND
8
RASTER
0
POLYLINE
8
RASTER
66
1
70
1
0
VERTEX
8
RASTER
10
6.5
20
8.7
30
0
0
VERTEX
8
RASTER
10
19.5
20
8.7
30
0
0
VERTEX
8
RASTER
10
19.5
20
8.1
30
0
0
VERTEX
8
RASTER
10
6.5
20
8.1
30
0
0
SEQEND
8
RASTER
0
CIRCLE
8
RASTER
10
15.85
20
21.4
30
0
40
0.576
0
CIRCLE
8
RASTER
10
15.85
20
15.15
30
0
40
0.486
0
POLYLINE
8
CUT
66
1
70
1
0
VERTEX
8
CUT
10
26
20
22.9
30
0
0
VERTEX
8
CUT
10
26.031
20
23.369
30
0
0
VERTEX
8
CUT
10
26.125
20
23.775
30
0
0
VERTEX
8
CUT
10
26.281
20
24.119
30
0
0
VERTEX
8
CUT
10
26.5
20
24.4
30
0
0
VERTEX
8
CUT
10
26.781
20
24.619
30
0
0
VERTEX
8
CUT
10
27.125
20
24.775
30
0
0
VERTEX
8
CUT
10
27.531
20
24.869
30
0
0
VERTEX
8
CUT
10
28
20
24.9
30
0
0
VERTEX
8
CUT
10
42
20
24.9
30
0
0
VERTEX
8
CUT
10
42.469
20
24.869
30
0
0
VERTEX
8
CUT
10
42.875
20
24.775
30
0
0
VERTEX
8
CUT
10
43.219
20
24.619
30
0
0
VERTEX
8
CUT
10
43.5
20
24.4
30
0
0
VERTEX
8
CUT
10
43.719
20
24.119
30
0
0
VERTEX
8
CUT
10
43.875
20
23.775
30
0
0
VERTEX
8
CUT
10
43.969
20
23.369
30
0
0
VERTEX
8
CUT
10
44
20
22.9
30
0
0
VERTEX
8
CUT
10
44
20
17.9
30
0
0
VERTEX
8
CUT
10
43.969
20
17.431
30
0
0
VERTEX
8
CUT
10
43.875
20
17.025
30
0
0
VERTEX
8
CUT
10
43.719
20
16.681
30
0
0
VERTEX
8
CUT
10
43.5
20
16.4
30
0
0
VERTEX
8
CUT
10
43.219
20
16.181
30
0
0
VERTEX
8
CUT
10
42.875
20
16.025
30
0
0
VERTEX
8
CUT
10
42.469
20
15.931
30
0
0
VERTEX
8
CUT
10
42
20
15.9
30
0
0
VERTEX
8
CUT
10
28
20
15.9
30
0
0
VERTEX
8
CUT
10
27.531
20
15.931
30
0
0
VERTEX
8
CUT
10
27.125
20
16.025
30
0
0
VERTEX
8
CUT
10
26.781
20
16.181
30
0
0
VERTEX
8
CUT
10
26.5
20
16.4
30
0
0
VERTEX
8
CUT
10
26.281
20
16.681
30
0
0
VERTEX
8
CUT
10
26.125
20
17.025
30
0
0
VERTEX
8
CUT
10
26.031
20
17.431
30
0
0
VERTEX
8
CUT
10
26
20
17.9
30
0
0
SEQEND
8
CUT
0
POLYLINE
8
CUT
66
1
70
1
0
VERTEX
8
CUT
10
33.425
20
23.5
30
0
0
VERTEX
8
CUT
10
36.575
20
23.5
30
0
0
VERTEX
8
CUT
10
36.575
20
17.3
30
0
0
VERTEX
8
CUT
10
33.425
20
17.3
30
0
0
SEQEND
8
CUT
0
POLYLINE
8
CUT
66
1
70
1
0
VERTEX
8
CUT
10
48
20
11.9
30
0
0
VERTEX
8
CUT
10
55.5
20
11.9
30
0
0
VERTEX
8
CUT
10
55.5
20
24.9
30
0
0
VERTEX
8
CUT
10
56.7
20
24.9
30
0
0
VERTEX
8
CUT
10
56.7
20
23.9
30
0
0
VERTEX
8
CUT
10
63
20
23.9
30
0
0
VERTEX
8
CUT
10
63
20
18.9
30
0
0
VERTEX
8
CUT
10
56.7
20
18.9
30
0
0
VERTEX
8
CUT
10
56.7
20
17.4
30
0
0
VERTEX
8
CUT
10
63
20
17.4
30
0
0
VERTEX
8
CUT
10
63
20
12.9
30
0
0
VERTEX
8
CUT
10
56.7
20
12.9
30
0
0
VERTEX
8
CUT
10
56.7
20
11.9
30
0
0
VERTEX
8
CUT
10
66
20
11.9
30
0
0
VERTEX
8
CUT
10
64
20
6.9
30
0
0
VERTEX
8
CUT
10
59
20
6.9
30
0
0
VERTEX
8
CUT
10
59
20
4
30
0
0
VERTEX
8
CUT
10
53
20
4
30
0
0
VERTEX
8
CUT
10
53
20
6.9
30
0
0
VERTEX
8
CUT
10
50
20
6.9
30
0
0
SEQEND
8
CUT
0
POLYLINE
8
RASTER
66
1
70
1
0
VERTEX
8
RASTER
10
49.5
20
10.4
30
0
0
VERTEX
8
RASTER
10
65
20
10.4
30
0
0
VERTEX
8
RASTER
10
65
20
9.8
30
0
0
VERTEX
8
RASTER
10
49.5
20
9.8
30
0
0
SEQEND
8
RASTER
0
POLYLINE
8
RASTER
66
1
70
1
0
VERTEX
8
RASTER
10
50.5
20
8.7
30
0
0
VERTEX
8
RASTER
10
63.5
20
8.7
30
0
0
VERTEX
8
RASTER
10
63.5
20
8.1
30
0
0
VERTEX
8
RASTER
10
50.5
20
8.1
30
0
0
SEQEND
8
RASTER
0
POLYLINE
8
RASTER
66
1
70
1
0
VERTEX
8
RASTER
10
58.1
20
22.5
30
0
0
VERTEX
8
RASTER
10
59
20
22.5
30
0
0
VERTEX
8
RASTER
10
59
20
21.6
30
0
0
VERTEX
8
RASTER
10
58.1
20
21.6
30
0
0
SEQEND
8
RASTER
0
POLYLINE
8
RASTER
66
1
70
1
0
VERTEX
8
RASTER
10
59.2
20
22.5
30
0
0
VERTEX
8
RASTER
10
60.1
20
22.5
30
0
0
VERTEX
8
RASTER
10
60.1
20
21.6
30
0
0
VERTEX
8
RASTER
10
59.2
20
21.6
30
0
0
SEQEND
8
RASTER
0
POLYLINE
8
RASTER
66
1
70
1
0
VERTEX
8
RASTER
10
60.3
20
22.5
30
0
0
VERTEX
8
RASTER
10
61.2
20
22.5
30
0
0
VERTEX
8
RASTER
10
61.2
20
21.6
30
0
0
VERTEX
8
RASTER
10
60.3
20
21.6
30
0
0
SEQEND
8
RASTER
0
POLYLINE
8
RASTER
66
1
70
1
0
VERTEX
8
RASTER
10
58.1
20
16
30
0
0
VERTEX
8
RASTER
10
59
20
16
30
0
0
VERTEX
8
RASTER
10
59
20
15.1
30
0
0
VERTEX
8
RASTER
10
58.1
20
15.1
30
0
0
SEQEND
8
RASTER
0
POLYLINE
8
RASTER
66
1
70
1
0
VERTEX
8
RASTER
10
59.2
20
16
30
0
0
VERTEX
8
RASTER
10
60.1
20
16
30
0
0
VERTEX
8
RASTER
10
60.1
20
15.1
30
0
0
VERTEX
8
RASTER
10
59.2
20
15.1
30
0
0
SEQEND
8
RASTER
0
POLYLINE
8
RASTER
66
1
70
1
0
VERTEX
8
RASTER
10
60.3
20
16
30
0
0
VERTEX
8
RASTER
10
61.2
20
16
30
0
0
VERTEX
8
RASTER
10
61.2
20
15.1
30
0
0
VERTEX
8
RASTER
10
60.3
20
15.1
30
0
0
SEQEND
8
RASTER
0
POLYLINE
8
CUT
66
1
70
1
0
VERTEX
8
CUT
10
70
20
22.9
30
0
0
VERTEX
8
CUT
10
70.031
20
23.369
30
0
0
VERTEX
8
CUT
10
70.125
20
23.775
30
0
0
VERTEX
8
CUT
10
70.281
20
24.119
30
0
0
VERTEX
8
CUT
10
70.5
20
24.4
30
0
0
VERTEX
8
CUT
10
70.781
20
24.619
30
0
0
VERTEX
8
CUT
10
71.125
20
24.775
30
0
0
VERTEX
8
CUT
10
71.531
20
24.869
30
0
0
VERTEX
8
CUT
10
72
20
24.9
30
0
0
VERTEX
8
CUT
10
86
20
24.9
30
0
0
VERTEX
8
CUT
10
86.469
20
24.869
30
0
0
VERTEX
8
CUT
10
86.875
20
24.775
30
0
0
VERTEX
8
CUT
10
87.219
20
24.619
30
0
0
VERTEX
8
CUT
10
87.5
20
24.4
30
0
0
VERTEX
8
CUT
10
87.719
20
24.119
30
0
0
VERTEX
8
CUT
10
87.875
20
23.775
30
0
0
VERTEX
8
CUT
10
87.969
20
23.369
30
0
0
VERTEX
8
CUT
10
88
20
22.9
30
0
0
VERTEX
8
CUT
10
88
20
17.9
30
0
0
VERTEX
8
CUT
10
87.969
20
17.431
30
0
0
VERTEX
8
CUT
10
87.875
20
17.025
30
0
0
VERTEX
8
CUT
10
87.719
20
16.681
30
0
0
VERTEX
8
CUT
10
87.5
20
16.4
30
0
0
VERTEX
8
CUT
10
87.219
20
16.181
30
0
0
VERTEX
8
CUT
10
86.875
20
16.025
30
0
0
VERTEX
8
CUT
10
86.469
20
15.931
30
0
0
VERTEX
8
CUT
10
86
20
15.9
30
0
0
VERTEX
8
CUT
10
72
20
15.9
30
0
0
VERTEX
8
CUT
10
71.531
20
15.931
30
0
0
VERTEX
8
CUT
10
71.125
20
16.025
30
0
0
VERTEX
8
CUT
10
70.781
20
16.181
30
0
0
VERTEX
8
CUT
10
70.5
20
16.4
30
0
0
VERTEX
8
CUT
10
70.281
20
16.681
30
0
0
VERTEX
8
CUT
10
70.125
20
17.025
30
0
0
VERTEX
8
CUT
10
70.031
20
17.431
30
0
0
VERTEX
8
CUT
10
70
20
17.9
30
0
0
SEQEND
8
CUT
0
POLYLINE
8
CUT
66
1
70
1
0
VERTEX
8
CUT
10
77.425
20
23.5
30
0
0
VERTEX
8
CUT
10
80.575
20
23.5
30
0
0
VERTEX
8
CUT
10
80.575
20
17.3
30
0
0
VERTEX
8
CUT
10
77.425
20
17.3
30
0
0
SEQEND
8
CUT
0
POLYLINE
8
CUT
66
1
70
1
0
VERTEX
8
CUT
10
92
20
11.9
30
0
0
VERTEX
8
CUT
10
99.5
20
11.9
30
0
0
VERTEX
8
CUT
10
99.5
20
24.9
30
0
0
VERTEX
8
CUT
10
100.7
20
24.9
30
0
0
VERTEX
8
CUT
10
100.7
20
23.9
30
0
0
VERTEX
8
CUT
10
107
20
23.9
30
0
0
VERTEX
8
CUT
10
107
20
18.9
30
0
0
VERTEX
8
CUT
10
100.7
20
18.9
30
0
0
VERTEX
8
CUT
10
100.7
20
17.4
30
0
0
VERTEX
8
CUT
10
107
20
17.4
30
0
0
VERTEX
8
CUT
10
107
20
12.9
30
0
0
VERTEX
8
CUT
10
100.7
20
12.9
30
0
0
VERTEX
8
CUT
10
100.7
20
11.9
30
0
0
VERTEX
8
CUT
10
110
20
11.9
30
0
0
VERTEX
8
CUT
10
108
20
6.9
30
0
0
VERTEX
8
CUT
10
103
20
6.9
30
0
0
VERTEX
8
CUT
10
103
20
4
30
0
0
VERTEX
8
CUT
10
97
20
4
30
0
0
VERTEX
8
CUT
10
97
20
6.9
30
0
0
VERTEX
8
CUT
10
94
20
6.9
30
0
0
SEQEND
8
CUT
0
POLYLINE
8
RASTER
66
1
70
1
0
VERTEX
8
RASTER
10
93.5
20
10.4
30
0
0
VERTEX
8
RASTER
10
109
20
10.4
30
0
0
VERTEX
8
RASTER
10
109
20
9.8
30
0
0
VERTEX
8
RASTER
10
93.5
20
9.8
30
0
0
SEQEND
8
RASTER
0
POLYLINE
8
RASTER
66
1
70
1
0
VERTEX
8
RASTER
10
94.5
20
8.7
30
0
0
VERTEX
8
RASTER
10
107.5
20
8.7
30
0
0
VERTEX
8
RASTER
10
107.5
20
8.1
30
0
0
VERTEX
8
RASTER
10
94.5
20
8.1
30
0
0
SEQEND
8
RASTER
0
CIRCLE
8
RASTER
10
102.55
20
22.05
30
0
40
0.32
0
CIRCLE
8
RASTER
10
103.65
20
22.05
30
0
40
0.32
0
CIRCLE
8
RASTER
10
104.75
20
22.05
30
0
40
0.32
0
CIRCLE
8
RASTER
10
102.55
20
20.95
30
0
40
0.32
0
CIRCLE
8
RASTER
10
103.65
20
20.95
30
0
40
0.32
0
CIRCLE
8
RASTER
10
104.75
20
20.95
30
0
40
0.32
0
CIRCLE
8
RASTER
10
102.55
20
15.55
30
0
40
0.32
0
CIRCLE
8
RASTER
10
103.65
20
15.55
30
0
40
0.32
0
CIRCLE
8
RASTER
10
104.75
20
15.55
30
0
40
0.32
0
CIRCLE
8
RASTER
10
102.55
20
14.45
30
0
40
0.32
0
CIRCLE
8
RASTER
10
103.65
20
14.45
30
0
40
0.32
0
CIRCLE
8
RASTER
10
104.75
20
14.45
30
0
40
0.32
0
POLYLINE
8
CUT
66
1
70
1
0
VERTEX
8
CUT
10
114
20
22.9
30
0
0
VERTEX
8
CUT
10
114.031
20
23.369
30
0
0
VERTEX
8
CUT
10
114.125
20
23.775
30
0
0
VERTEX
8
CUT
10
114.281
20
24.119
30
0
0
VERTEX
8
CUT
10
114.5
20
24.4
30
0
0
VERTEX
8
CUT
10
114.781
20
24.619
30
0
0
VERTEX
8
CUT
10
115.125
20
24.775
30
0
0
VERTEX
8
CUT
10
115.531
20
24.869
30
0
0
VERTEX
8
CUT
10
116
20
24.9
30
0
0
VERTEX
8
CUT
10
130
20
24.9
30
0
0
VERTEX
8
CUT
10
130.469
20
24.869
30
0
0
VERTEX
8
CUT
10
130.875
20
24.775
30
0
0
VERTEX
8
CUT
10
131.219
20
24.619
30
0
0
VERTEX
8
CUT
10
131.5
20
24.4
30
0
0
VERTEX
8
CUT
10
131.719
20
24.119
30
0
0
VERTEX
8
CUT
10
131.875
20
23.775
30
0
0
VERTEX
8
CUT
10
131.969
20
23.369
30
0
0
VERTEX
8
CUT
10
132
20
22.9
30
0
0
VERTEX
8
CUT
10
132
20
17.9
30
0
0
VERTEX
8
CUT
10
131.969
20
17.431
30
0
0
VERTEX
8
CUT
10
131.875
20
17.025
30
0
0
VERTEX
8
CUT
10
131.719
20
16.681
30
0
0
VERTEX
8
CUT
10
131.5
20
16.4
30
0
0
VERTEX
8
CUT
10
131.219
20
16.181
30
0
0
VERTEX
8
CUT
10
130.875
20
16.025
30
0
0
VERTEX
8
CUT
10
130.469
20
15.931
30
0
0
VERTEX
8
CUT
10
130
20
15.9
30
0
0
VERTEX
8
CUT
10
116
20
15.9
30
0
0
VERTEX
8
CUT
10
115.531
20
15.931
30
0
0
VERTEX
8
CUT
10
115.125
20
16.025
30
0
0
VERTEX
8
CUT
10
114.781
20
16.181
30
0
0
VERTEX
8
CUT
10
114.5
20
16.4
30
0
0
VERTEX
8
CUT
10
114.281
20
16.681
30
0
0
VERTEX
8
CUT
10
114.125
20
17.025
30
0
0
VERTEX
8
CUT
10
114.031
20
17.431
30
0
0
VERTEX
8
CUT
10
114
20
17.9
30
0
0
SEQEND
8
CUT
0
POLYLINE
8
CUT
66
1
70
1
0
VERTEX
8
CUT
10
121.425
20
23.5
30
0
0
VERTEX
8
CUT
10
124.575
20
23.5
30
0
0
VERTEX
8
CUT
10
124.575
20
17.3
30
0
0
VERTEX
8
CUT
10
121.425
20
17.3
30
0
0
SEQEND
8
CUT
0
POLYLINE
8
CUT
66
1
70
1
0
VERTEX
8
CUT
10
136
20
11.9
30
0
0
VERTEX
8
CUT
10
143.5
20
11.9
30
0
0
VERTEX
8
CUT
10
143.5
20
24.9
30
0
0
VERTEX
8
CUT
10
144.7
20
24.9
30
0
0
VERTEX
8
CUT
10
144.7
20
23.9
30
0
0
VERTEX
8
CUT
10
151
20
23.9
30
0
0
VERTEX
8
CUT
10
151
20
18.9
30
0
0
VERTEX
8
CUT
10
144.7
20
18.9
30
0
0
VERTEX
8
CUT
10
144.7
20
17.4
30
0
0
VERTEX
8
CUT
10
151
20
17.4
30
0
0
VERTEX
8
CUT
10
151
20
12.9
30
0
0
VERTEX
8
CUT
10
144.7
20
12.9
30
0
0
VERTEX
8
CUT
10
144.7
20
11.9
30
0
0
VERTEX
8
CUT
10
154
20
11.9
30
0
0
VERTEX
8
CUT
10
152
20
6.9
30
0
0
VERTEX
8
CUT
10
147
20
6.9
30
0
0
VERTEX
8
CUT
10
147
20
4
30
0
0
VERTEX
8
CUT
10
141
20
4
30
0
0
VERTEX
8
CUT
10
141
20
6.9
30
0
0
VERTEX
8
CUT
10
138
20
6.9
30
0
0
SEQEND
8
CUT
0
POLYLINE
8
RASTER
66
1
70
1
0
VERTEX
8
RASTER
10
137.5
20
10.4
30
0
0
VERTEX
8
RASTER
10
153
20
10.4
30
0
0
VERTEX
8
RASTER
10
153
20
9.8
30
0
0
VERTEX
8
RASTER
10
137.5
20
9.8
30
0
0
SEQEND
8
RASTER
0
POLYLINE
8
RASTER
66
1
70
1
0
VERTEX
8
RASTER
10
138.5
20
8.7
30
0
0
VERTEX
8
RASTER
10
151.5
20
8.7
30
0
0
VERTEX
8
RASTER
10
151.5
20
8.1
30
0
0
VERTEX
8
RASTER
10
138.5
20
8.1
30
0
0
SEQEND
8
RASTER
0
POLYLINE
8
RASTER
66
1
70
1
0
VERTEX
8
RASTER
10
146.1
20
22.5
30
0
0
VERTEX
8
RASTER
10
147
20
22.5
30
0
0
VERTEX
8
RASTER
10
147
20
21.6
30
0
0
VERTEX
8
RASTER
10
146.1
20
21.6
30
0
0
SEQEND
8
RASTER
0
POLYLINE
8
RASTER
66
1
70
1
0
VERTEX
8
RASTER
10
148.3
20
22.5
30
0
0
VERTEX
8
RASTER
10
149.2
20
22.5
30
0
0
VERTEX
8
RASTER
10
149.2
20
21.6
30
0
0
VERTEX
8
RASTER
10
148.3
20
21.6
30
0
0
SEQEND
8
RASTER
0
POLYLINE
8
RASTER
66
1
70
1
0
VERTEX
8
RASTER
10
147.2
20
21.4
30
0
0
VERTEX
8
RASTER
10
148.1
20
21.4
30
0
0
VERTEX
8
RASTER
10
148.1
20
20.5
30
0
0
VERTEX
8
RASTER
10
147.2
20
20.5
30
0
0
SEQEND
8
RASTER
0
POLYLINE
8
RASTER
66
1
70
1
0
VERTEX
8
RASTER
10
146.1
20
16
30
0
0
VERTEX
8
RASTER
10
147
20
16
30
0
0
VERTEX
8
RASTER
10
147
20
15.1
30
0
0
VERTEX
8
RASTER
10
146.1
20
15.1
30
0
0
SEQEND
8
RASTER
0
POLYLINE
8
RASTER
66
1
70
1
0
VERTEX
8
RASTER
10
148.3
20
16
30
0
0
VERTEX
8
RASTER
10
149.2
20
16
30
0
0
VERTEX
8
RASTER
10
149.2
20
15.1
30
0
0
VERTEX
8
RASTER
10
148.3
20
15.1
30
0
0
SEQEND
8
RASTER
0
POLYLINE
8
RASTER
66
1
70
1
0
VERTEX
8
RASTER
10
147.2
20
14.9
30
0
0
VERTEX
8
RASTER
10
148.1
20
14.9
30
0
0
VERTEX
8
RASTER
10
148.1
20
14
30
0
0
VERTEX
8
RASTER
10
147.2
20
14
30
0
0
SEQEND
8
RASTER
0
POLYLINE
8
CUT
66
1
70
1
0
VERTEX
8
CUT
10
158
20
22.9
30
0
0
VERTEX
8
CUT
10
158.031
20
23.369
30
0
0
VERTEX
8
CUT
10
158.125
20
23.775
30
0
0
VERTEX
8
CUT
10
158.281
20
24.119
30
0
0
VERTEX
8
CUT
10
158.5
20
24.4
30
0
0
VERTEX
8
CUT
10
158.781
20
24.619
30
0
0
VERTEX
8
CUT
10
159.125
20
24.775
30
0
0
VERTEX
8
CUT
10
159.531
20
24.869
30
0
0
VERTEX
8
CUT
10
160
20
24.9
30
0
0
VERTEX
8
CUT
10
174
20
24.9
30
0
0
VERTEX
8
CUT
10
174.469
20
24.869
30
0
0
VERTEX
8
CUT
10
174.875
20
24.775
30
0
0
VERTEX
8
CUT
10
175.219
20
24.619
30
0
0
VERTEX
8
CUT
10
175.5
20
24.4
30
0
0
VERTEX
8
CUT
10
175.719
20
24.119
30
0
0
VERTEX
8
CUT
10
175.875
20
23.775
30
0
0
VERTEX
8
CUT
10
175.969
20
23.369
30
0
0
VERTEX
8
CUT
10
176
20
22.9
30
0
0
VERTEX
8
CUT
10
176
20
17.9
30
0
0
VERTEX
8
CUT
10
175.969
20
17.431
30
0
0
VERTEX
8
CUT
10
175.875
20
17.025
30
0
0
VERTEX
8
CUT
10
175.719
20
16.681
30
0
0
VERTEX
8
CUT
10
175.5
20
16.4
30
0
0
VERTEX
8
CUT
10
175.219
20
16.181
30
0
0
VERTEX
8
CUT
10
174.875
20
16.025
30
0
0
VERTEX
8
CUT
10
174.469
20
15.931
30
0
0
VERTEX
8
CUT
10
174
20
15.9
30
0
0
VERTEX
8
CUT
10
160
20
15.9
30
0
0
VERTEX
8
CUT
10
159.531
20
15.931
30
0
0
VERTEX
8
CUT
10
159.125
20
16.025
30
0
0
VERTEX
8
CUT
10
158.781
20
16.181
30
0
0
VERTEX
8
CUT
10
158.5
20
16.4
30
0
0
VERTEX
8
CUT
10
158.281
20
16.681
30
0
0
VERTEX
8
CUT
10
158.125
20
17.025
30
0
0
VERTEX
8
CUT
10
158.031
20
17.431
30
0
0
VERTEX
8
CUT
10
158
20
17.9
30
0
0
SEQEND
8
CUT
0
POLYLINE
8
CUT
66
1
70
1
0
VERTEX
8
CUT
10
165.425
20
23.5
30
0
0
VERTEX
8
CUT
10
168.575
20
23.5
30
0
0
VERTEX
8
CUT
10
168.575
20
17.3
30
0
0
VERTEX
8
CUT
10
165.425
20
17.3
30
0
0
SEQEND
8
CUT
0
ENDSEC
0
EOF
