0
SECTION
2
HEADER
9
$ACADVER
1
AC1009
9
$EXTMIN
10
0
20
0
9
$EXTMAX
10
198
20
88
0
ENDSEC
0
SECTION
2
TABLES
0
TABLE
2
LAYER
70
2
0
LAYER
2
CUT
70
0
62
1
6
CONTINUOUS
0
LAYER
2
RASTER
70
0
62
7
6
CONTINUOUS
0
ENDTAB
0
ENDSEC
0
SECTION
2
ENTITIES
0
CIRCLE
8
CUT
10
44
20
44
30
0
40
40
0
CIRCLE
8
CUT
10
44
20
44
30
0
40
1.65
0
CIRCLE
8
RASTER
10
44
20
44
30
0
40
39
0
CIRCLE
8
RASTER
10
44
20
44
30
0
40
37.6
0
CIRCLE
8
RASTER
10
44
20
44
30
0
40
5.5
0
CIRCLE
8
RASTER
10
44
20
44
30
0
40
4.5
0
POLYLINE
8
RASTER
66
1
70
1
0
VERTEX
8
RASTER
10
52.061
20
52.91
30
0
0
VERTEX
8
RASTER
10
67.9
20
68.749
30
0
0
VERTEX
8
RASTER
10
68.749
20
67.9
30
0
0
VERTEX
8
RASTER
10
52.91
20
52.061
30
0
0
SEQEND
8
RASTER
0
POLYLINE
8
RASTER
66
1
70
1
0
VERTEX
8
RASTER
10
59.925
20
52.395
30
0
0
VERTEX
8
RASTER
10
74.537
20
59.84
30
0
0
VERTEX
8
RASTER
10
74.764
20
59.395
30
0
0
VERTEX
8
RASTER
10
60.152
20
51.949
30
0
0
SEQEND
8
RASTER
0
POLYLINE
8
RASTER
66
1
70
1
0
VERTEX
8
RASTER
10
61.739
20
47.063
30
0
0
VERTEX
8
RASTER
10
77.937
20
49.628
30
0
0
VERTEX
8
RASTER
10
78.016
20
49.134
30
0
0
VERTEX
8
RASTER
10
61.817
20
46.569
30
0
0
SEQEND
8
RASTER
0
POLYLINE
8
RASTER
66
1
70
1
0
VERTEX
8
RASTER
10
61.817
20
41.431
30
0
0
VERTEX
8
RASTER
10
78.016
20
38.866
30
0
0
VERTEX
8
RASTER
10
77.937
20
38.372
30
0
0
VERTEX
8
RASTER
10
61.739
20
40.937
30
0
0
SEQEND
8
RASTER
0
POLYLINE
8
RASTER
66
1
70
1
0
VERTEX
8
RASTER
10
60.152
20
36.051
30
0
0
VERTEX
8
RASTER
10
74.764
20
28.605
30
0
0
VERTEX
8
RASTER
10
74.537
20
28.16
30
0
0
VERTEX
8
RASTER
10
59.925
20
35.605
30
0
0
SEQEND
8
RASTER
0
POLYLINE
8
RASTER
66
1
70
1
0
VERTEX
8
RASTER
10
52.91
20
35.939
30
0
0
VERTEX
8
RASTER
10
68.749
20
20.1
30
0
0
VERTEX
8
RASTER
10
67.9
20
19.251
30
0
0
VERTEX
8
RASTER
10
52.061
20
35.09
30
0
0
SEQEND
8
RASTER
0
POLYLINE
8
RASTER
66
1
70
1
0
VERTEX
8
RASTER
10
52.395
20
28.075
30
0
0
VERTEX
8
RASTER
10
59.84
20
13.463
30
0
0
VERTEX
8
RASTER
10
59.395
20
13.236
30
0
0
VERTEX
8
RASTER
10
51.949
20
27.848
30
0
0
SEQEND
8
RASTER
0
POLYLINE
8
RASTER
66
1
70
1
0
VERTEX
8
RASTER
10
47.063
20
26.261
30
0
0
VERTEX
8
RASTER
10
49.628
20
10.063
30
0
0
VERTEX
8
RASTER
10
49.134
20
9.984
30
0
0
VERTEX
8
RASTER
10
46.569
20
26.183
30
0
0
SEQEND
8
RASTER
0
POLYLINE
8
RASTER
66
1
70
1
0
VERTEX
8
RASTER
10
41.431
20
26.183
30
0
0
VERTEX
8
RASTER
10
38.866
20
9.984
30
0
0
VERTEX
8
RASTER
10
38.372
20
10.063
30
0
0
VERTEX
8
RASTER
10
40.937
20
26.261
30
0
0
SEQEND
8
RASTER
0
POLYLINE
8
RASTER
66
1
70
1
0
VERTEX
8
RASTER
10
36.051
20
27.848
30
0
0
VERTEX
8
RASTER
10
28.605
20
13.236
30
0
0
VERTEX
8
RASTER
10
28.16
20
13.463
30
0
0
VERTEX
8
RASTER
10
35.605
20
28.075
30
0
0
SEQEND
8
RASTER
0
POLYLINE
8
RASTER
66
1
70
1
0
VERTEX
8
RASTER
10
35.939
20
35.09
30
0
0
VERTEX
8
RASTER
10
20.1
20
19.251
30
0
0
VERTEX
8
RASTER
10
19.251
20
20.1
30
0
0
VERTEX
8
RASTER
10
35.09
20
35.939
30
0
0
SEQEND
8
RASTER
0
POLYLINE
8
RASTER
66
1
70
1
0
VERTEX
8
RASTER
10
28.075
20
35.605
30
0
0
VERTEX
8
RASTER
10
13.463
20
28.16
30
0
0
VERTEX
8
RASTER
10
13.236
20
28.605
30
0
0
VERTEX
8
RASTER
10
27.848
20
36.051
30
0
0
SEQEND
8
RASTER
0
POLYLINE
8
RASTER
66
1
70
1
0
VERTEX
8
RASTER
10
26.261
20
40.937
30
0
0
VERTEX
8
RASTER
10
10.063
20
38.372
30
0
0
VERTEX
8
RASTER
10
9.984
20
38.866
30
0
0
VERTEX
8
RASTER
10
26.183
20
41.431
30
0
0
SEQEND
8
RASTER
0
POLYLINE
8
RASTER
66
1
70
1
0
VERTEX
8
RASTER
10
26.183
20
46.569
30
0
0
VERTEX
8
RASTER
10
9.984
20
49.134
30
0
0
VERTEX
8
RASTER
10
10.063
20
49.628
30
0
0
VERTEX
8
RASTER
10
26.261
20
47.063
30
0
0
SEQEND
8
RASTER
0
POLYLINE
8
RASTER
66
1
70
1
0
VERTEX
8
RASTER
10
27.848
20
51.949
30
0
0
VERTEX
8
RASTER
10
13.236
20
59.395
30
0
0
VERTEX
8
RASTER
10
13.463
20
59.84
30
0
0
VERTEX
8
RASTER
10
28.075
20
52.395
30
0
0
SEQEND
8
RASTER
0
POLYLINE
8
RASTER
66
1
70
1
0
VERTEX
8
RASTER
10
35.09
20
52.061
30
0
0
VERTEX
8
RASTER
10
19.251
20
67.9
30
0
0
VERTEX
8
RASTER
10
20.1
20
68.749
30
0
0
VERTEX
8
RASTER
10
35.939
20
52.91
30
0
0
SEQEND
8
RASTER
0
POLYLINE
8
RASTER
66
1
70
1
0
VERTEX
8
RASTER
10
35.605
20
59.925
30
0
0
VERTEX
8
RASTER
10
28.16
20
74.537
30
0
0
VERTEX
8
RASTER
10
28.605
20
74.764
30
0
0
VERTEX
8
RASTER
10
36.051
20
60.152
30
0
0
SEQEND
8
RASTER
0
POLYLINE
8
RASTER
66
1
70
1
0
VERTEX
8
RASTER
10
40.937
20
61.739
30
0
0
VERTEX
8
RASTER
10
38.372
20
77.937
30
0
0
VERTEX
8
RASTER
10
38.866
20
78.016
30
0
0
VERTEX
8
RASTER
10
41.431
20
61.817
30
0
0
SEQEND
8
RASTER
0
POLYLINE
8
RASTER
66
1
70
1
0
VERTEX
8
RASTER
10
46.569
20
61.817
30
0
0
VERTEX
8
RASTER
10
49.134
20
78.016
30
0
0
VERTEX
8
RASTER
10
49.628
20
77.937
30
0
0
VERTEX
8
RASTER
10
47.063
20
61.739
30
0
0
SEQEND
8
RASTER
0
POLYLINE
8
RASTER
66
1
70
1
0
VERTEX
8
RASTER
10
51.949
20
60.152
30
0
0
VERTEX
8
RASTER
10
59.395
20
74.764
30
0
0
VERTEX
8
RASTER
10
59.84
20
74.537
30
0
0
VERTEX
8
RASTER
10
52.395
20
59.925
30
0
0
SEQEND
8
RASTER
0
POLYLINE
8
RASTER
66
1
70
1
0
VERTEX
8
RASTER
10
74.651
20
28.383
30
0
0
VERTEX
8
RASTER
10
74.145
20
27.428
30
0
0
VERTEX
8
RASTER
10
73.61
20
26.489
30
0
0
VERTEX
8
RASTER
10
73.045
20
25.568
30
0
0
VERTEX
8
RASTER
10
72.452
20
24.664
30
0
0
VERTEX
8
RASTER
10
71.83
20
23.78
30
0
0
VERTEX
8
RASTER
10
71.181
20
22.916
30
0
0
VERTEX
8
RASTER
10
70.506
20
22.073
30
0
0
VERTEX
8
RASTER
10
69.804
20
21.251
30
0
0
VERTEX
8
RASTER
10
69.077
20
20.452
30
0
0
VERTEX
8
RASTER
10
68.324
20
19.676
30
0
0
VERTEX
8
RASTER
10
53.334
20
34.666
30
0
0
VERTEX
8
RASTER
10
53.622
20
34.964
30
0
0
VERTEX
8
RASTER
10
53.901
20
35.271
30
0
0
VERTEX
8
RASTER
10
54.171
20
35.586
30
0
0
VERTEX
8
RASTER
10
54.43
20
35.91
30
0
0
VERTEX
8
RASTER
10
54.679
20
36.241
30
0
0
VERTEX
8
RASTER
10
54.917
20
36.58
30
0
0
VERTEX
8
RASTER
10
55.145
20
36.927
30
0
0
VERTEX
8
RASTER
10
55.362
20
37.281
30
0
0
VERTEX
8
RASTER
10
55.567
20
37.641
30
0
0
VERTEX
8
RASTER
10
55.761
20
38.007
30
0
0
SEQEND
8
RASTER
0
POLYLINE
8
RASTER
66
1
70
1
0
VERTEX
8
RASTER
10
61.176
20
28.933
30
0
0
VERTEX
8
RASTER
10
65.656
20
28.933
30
0
0
VERTEX
8
RASTER
10
66.017
20
29.009
30
0
0
VERTEX
8
RASTER
10
66.261
20
29.208
30
0
0
VERTEX
8
RASTER
10
66.393
20
29.49
30
0
0
VERTEX
8
RASTER
10
66.416
20
29.813
30
0
0
VERTEX
8
RASTER
10
66.335
20
30.136
30
0
0
VERTEX
8
RASTER
10
66.151
20
30.418
30
0
0
VERTEX
8
RASTER
10
65.871
20
30.618
30
0
0
VERTEX
8
RASTER
10
65.496
20
30.693
30
0
0
VERTEX
8
RASTER
10
65.466
20
31.074
30
0
0
VERTEX
8
RASTER
10
65.281
20
31.373
30
0
0
VERTEX
8
RASTER
10
64.985
20
31.582
30
0
0
VERTEX
8
RASTER
10
64.616
20
31.693
30
0
0
VERTEX
8
RASTER
10
64.218
20
31.699
30
0
0
VERTEX
8
RASTER
10
63.831
20
31.593
30
0
0
VERTEX
8
RASTER
10
63.497
20
31.367
30
0
0
VERTEX
8
RASTER
10
63.256
20
31.013
30
0
0
VERTEX
8
RASTER
10
62.977
20
31.255
30
0
0
VERTEX
8
RASTER
10
62.639
20
31.386
30
0
0
VERTEX
8
RASTER
10
62.275
20
31.415
30
0
0
VERTEX
8
RASTER
10
61.916
20
31.353
30
0
0
VERTEX
8
RASTER
10
61.595
20
31.208
30
0
0
VERTEX
8
RASTER
10
61.344
20
30.991
30
0
0
VERTEX
8
RASTER
10
61.194
20
30.709
30
0
0
VERTEX
8
RASTER
10
61.176
20
30.373
30
0
0
VERTEX
8
RASTER
10
60.809
20
30.265
30
0
0
VERTEX
8
RASTER
10
60.546
20
30.081
30
0
0
VERTEX
8
RASTER
10
60.389
20
29.847
30
0
0
VERTEX
8
RASTER
10
60.336
20
29.593
30
0
0
VERTEX
8
RASTER
10
60.389
20
29.347
30
0
0
VERTEX
8
RASTER
10
60.546
20
29.136
30
0
0
VERTEX
8
RASTER
10
60.809
20
28.988
30
0
0
VERTEX
8
RASTER
10
61.176
20
28.933
30
0
0
SEQEND
8
RASTER
0
POLYLINE
8
RASTER
66
1
70
1
0
VERTEX
8
RASTER
10
28.383
20
13.349
30
0
0
VERTEX
8
RASTER
10
27.428
20
13.855
30
0
0
VERTEX
8
RASTER
10
26.489
20
14.39
30
0
0
VERTEX
8
RASTER
10
25.568
20
14.955
30
0
0
VERTEX
8
RASTER
10
24.664
20
15.548
30
0
0
VERTEX
8
RASTER
10
23.78
20
16.17
30
0
0
VERTEX
8
RASTER
10
22.916
20
16.819
30
0
0
VERTEX
8
RASTER
10
22.073
20
17.494
30
0
0
VERTEX
8
RASTER
10
21.251
20
18.196
30
0
0
VERTEX
8
RASTER
10
20.452
20
18.923
30
0
0
VERTEX
8
RASTER
10
19.676
20
19.676
30
0
0
VERTEX
8
RASTER
10
34.666
20
34.666
30
0
0
VERTEX
8
RASTER
10
34.964
20
34.378
30
0
0
VERTEX
8
RASTER
10
35.271
20
34.099
30
0
0
VERTEX
8
RASTER
10
35.586
20
33.829
30
0
0
VERTEX
8
RASTER
10
35.91
20
33.57
30
0
0
VERTEX
8
RASTER
10
36.241
20
33.321
30
0
0
VERTEX
8
RASTER
10
36.58
20
33.083
30
0
0
VERTEX
8
RASTER
10
36.927
20
32.855
30
0
0
VERTEX
8
RASTER
10
37.281
20
32.638
30
0
0
VERTEX
8
RASTER
10
37.641
20
32.433
30
0
0
VERTEX
8
RASTER
10
38.007
20
32.239
30
0
0
SEQEND
8
RASTER
0
POLYLINE
8
RASTER
66
1
70
1
0
VERTEX
8
RASTER
10
27.653
20
23.624
30
0
0
VERTEX
8
RASTER
10
32.133
20
23.624
30
0
0
VERTEX
8
RASTER
10
32.494
20
23.699
30
0
0
VERTEX
8
RASTER
10
32.738
20
23.899
30
0
0
VERTEX
8
RASTER
10
32.87
20
24.18
30
0
0
VERTEX
8
RASTER
10
32.893
20
24.504
30
0
0
VERTEX
8
RASTER
10
32.811
20
24.827
30
0
0
VERTEX
8
RASTER
10
32.628
20
25.109
30
0
0
VERTEX
8
RASTER
10
32.348
20
25.308
30
0
0
VERTEX
8
RASTER
10
31.973
20
25.384
30
0
0
VERTEX
8
RASTER
10
31.943
20
25.765
30
0
0
VERTEX
8
RASTER
10
31.758
20
26.064
30
0
0
VERTEX
8
RASTER
10
31.461
20
26.272
30
0
0
VERTEX
8
RASTER
10
31.093
20
26.384
30
0
0
VERTEX
8
RASTER
10
30.695
20
26.39
30
0
0
VERTEX
8
RASTER
10
30.308
20
26.284
30
0
0
VERTEX
8
RASTER
10
29.974
20
26.057
30
0
0
VERTEX
8
RASTER
10
29.733
20
25.704
30
0
0
VERTEX
8
RASTER
10
29.453
20
25.945
30
0
0
VERTEX
8
RASTER
10
29.116
20
26.076
30
0
0
VERTEX
8
RASTER
10
28.752
20
26.106
30
0
0
VERTEX
8
RASTER
10
28.393
20
26.044
30
0
0
VERTEX
8
RASTER
10
28.072
20
25.899
30
0
0
VERTEX
8
RASTER
10
27.821
20
25.681
30
0
0
VERTEX
8
RASTER
10
27.67
20
25.4
30
0
0
VERTEX
8
RASTER
10
27.653
20
25.064
30
0
0
VERTEX
8
RASTER
10
27.286
20
24.956
30
0
0
VERTEX
8
RASTER
10
27.023
20
24.771
30
0
0
VERTEX
8
RASTER
10
26.866
20
24.538
30
0
0
VERTEX
8
RASTER
10
26.813
20
24.284
30
0
0
VERTEX
8
RASTER
10
26.866
20
24.037
30
0
0
VERTEX
8
RASTER
10
27.023
20
23.826
30
0
0
VERTEX
8
RASTER
10
27.286
20
23.679
30
0
0
VERTEX
8
RASTER
10
27.653
20
23.624
30
0
0
SEQEND
8
RASTER
0
POLYLINE
8
RASTER
66
1
70
1
0
VERTEX
8
RASTER
10
13.349
20
59.617
30
0
0
VERTEX
8
RASTER
10
13.855
20
60.572
30
0
0
VERTEX
8
RASTER
10
14.39
20
61.511
30
0
0
VERTEX
8
RASTER
10
14.955
20
62.432
30
0
0
VERTEX
8
RASTER
10
15.548
20
63.336
30
0
0
VERTEX
8
RASTER
10
16.17
20
64.22
30
0
0
VERTEX
8
RASTER
10
16.819
20
65.084
30
0
0
VERTEX
8
RASTER
10
17.494
20
65.927
30
0
0
VERTEX
8
RASTER
10
18.196
20
66.749
30
0
0
VERTEX
8
RASTER
10
18.923
20
67.548
30
0
0
VERTEX
8
RASTER
10
19.676
20
68.324
30
0
0
VERTEX
8
RASTER
10
34.666
20
53.334
30
0
0
VERTEX
8
RASTER
10
34.378
20
53.036
30
0
0
VERTEX
8
RASTER
10
34.099
20
52.729
30
0
0
VERTEX
8
RASTER
10
33.829
20
52.414
30
0
0
VERTEX
8
RASTER
10
33.57
20
52.09
30
0
0
VERTEX
8
RASTER
10
33.321
20
51.759
30
0
0
VERTEX
8
RASTER
10
33.083
20
51.42
30
0
0
VERTEX
8
RASTER
10
32.855
20
51.073
30
0
0
VERTEX
8
RASTER
10
32.638
20
50.719
30
0
0
VERTEX
8
RASTER
10
32.433
20
50.359
30
0
0
VERTEX
8
RASTER
10
32.239
20
49.993
30
0
0
SEQEND
8
RASTER
0
POLYLINE
8
RASTER
66
1
70
1
0
VERTEX
8
RASTER
10
22.344
20
57.147
30
0
0
VERTEX
8
RASTER
10
26.824
20
57.147
30
0
0
VERTEX
8
RASTER
10
27.184
20
57.222
30
0
0
VERTEX
8
RASTER
10
27.429
20
57.422
30
0
0
VERTEX
8
RASTER
10
27.56
20
57.704
30
0
0
VERTEX
8
RASTER
10
27.584
20
58.027
30
0
0
VERTEX
8
RASTER
10
27.502
20
58.35
30
0
0
VERTEX
8
RASTER
10
27.319
20
58.632
30
0
0
VERTEX
8
RASTER
10
27.038
20
58.831
30
0
0
VERTEX
8
RASTER
10
26.664
20
58.907
30
0
0
VERTEX
8
RASTER
10
26.633
20
59.288
30
0
0
VERTEX
8
RASTER
10
26.449
20
59.587
30
0
0
VERTEX
8
RASTER
10
26.152
20
59.796
30
0
0
VERTEX
8
RASTER
10
25.784
20
59.907
30
0
0
VERTEX
8
RASTER
10
25.385
20
59.913
30
0
0
VERTEX
8
RASTER
10
24.999
20
59.807
30
0
0
VERTEX
8
RASTER
10
24.664
20
59.581
30
0
0
VERTEX
8
RASTER
10
24.424
20
59.227
30
0
0
VERTEX
8
RASTER
10
24.144
20
59.468
30
0
0
VERTEX
8
RASTER
10
23.806
20
59.599
30
0
0
VERTEX
8
RASTER
10
23.442
20
59.629
30
0
0
VERTEX
8
RASTER
10
23.084
20
59.567
30
0
0
VERTEX
8
RASTER
10
22.763
20
59.422
30
0
0
VERTEX
8
RASTER
10
22.511
20
59.204
30
0
0
VERTEX
8
RASTER
10
22.361
20
58.923
30
0
0
VERTEX
8
RASTER
10
22.344
20
58.587
30
0
0
VERTEX
8
RASTER
10
21.976
20
58.479
30
0
0
VERTEX
8
RASTER
10
21.714
20
58.294
30
0
0
VERTEX
8
RASTER
10
21.556
20
58.061
30
0
0
VERTEX
8
RASTER
10
21.504
20
57.807
30
0
0
VERTEX
8
RASTER
10
21.556
20
57.56
30
0
0
VERTEX
8
RASTER
10
21.714
20
57.349
30
0
0
VERTEX
8
RASTER
10
21.976
20
57.202
30
0
0
VERTEX
8
RASTER
10
22.344
20
57.147
30
0
0
SEQEND
8
RASTER
0
POLYLINE
8
RASTER
66
1
70
1
0
VERTEX
8
RASTER
10
59.617
20
74.651
30
0
0
VERTEX
8
RASTER
10
60.572
20
74.145
30
0
0
VERTEX
8
RASTER
10
61.511
20
73.61
30
0
0
VERTEX
8
RASTER
10
62.432
20
73.045
30
0
0
VERTEX
8
RASTER
10
63.336
20
72.452
30
0
0
VERTEX
8
RASTER
10
64.22
20
71.83
30
0
0
VERTEX
8
RASTER
10
65.084
20
71.181
30
0
0
VERTEX
8
RASTER
10
65.927
20
70.506
30
0
0
VERTEX
8
RASTER
10
66.749
20
69.804
30
0
0
VERTEX
8
RASTER
10
67.548
20
69.077
30
0
0
VERTEX
8
RASTER
10
68.324
20
68.324
30
0
0
VERTEX
8
RASTER
10
53.334
20
53.334
30
0
0
VERTEX
8
RASTER
10
53.036
20
53.622
30
0
0
VERTEX
8
RASTER
10
52.729
20
53.901
30
0
0
VERTEX
8
RASTER
10
52.414
20
54.171
30
0
0
VERTEX
8
RASTER
10
52.09
20
54.43
30
0
0
VERTEX
8
RASTER
10
51.759
20
54.679
30
0
0
VERTEX
8
RASTER
10
51.42
20
54.917
30
0
0
VERTEX
8
RASTER
10
51.073
20
55.145
30
0
0
VERTEX
8
RASTER
10
50.719
20
55.362
30
0
0
VERTEX
8
RASTER
10
50.359
20
55.567
30
0
0
VERTEX
8
RASTER
10
49.993
20
55.761
30
0
0
SEQEND
8
RASTER
0
POLYLINE
8
RASTER
66
1
70
1
0
VERTEX
8
RASTER
10
55.867
20
62.456
30
0
0
VERTEX
8
RASTER
10
60.347
20
62.456
30
0
0
VERTEX
8
RASTER
10
60.707
20
62.532
30
0
0
VERTEX
8
RASTER
10
60.952
20
62.731
30
0
0
VERTEX
8
RASTER
10
61.084
20
63.013
30
0
0
VERTEX
8
RASTER
10
61.107
20
63.336
30
0
0
VERTEX
8
RASTER
10
61.025
20
63.66
30
0
0
VERTEX
8
RASTER
10
60.842
20
63.941
30
0
0
VERTEX
8
RASTER
10
60.561
20
64.141
30
0
0
VERTEX
8
RASTER
10
60.187
20
64.216
30
0
0
VERTEX
8
RASTER
10
60.156
20
64.598
30
0
0
VERTEX
8
RASTER
10
59.972
20
64.896
30
0
0
VERTEX
8
RASTER
10
59.675
20
65.105
30
0
0
VERTEX
8
RASTER
10
59.307
20
65.216
30
0
0
VERTEX
8
RASTER
10
58.909
20
65.223
30
0
0
VERTEX
8
RASTER
10
58.522
20
65.116
30
0
0
VERTEX
8
RASTER
10
58.187
20
64.89
30
0
0
VERTEX
8
RASTER
10
57.947
20
64.536
30
0
0
VERTEX
8
RASTER
10
57.667
20
64.778
30
0
0
VERTEX
8
RASTER
10
57.329
20
64.909
30
0
0
VERTEX
8
RASTER
10
56.965
20
64.939
30
0
0
VERTEX
8
RASTER
10
56.607
20
64.876
30
0
0
VERTEX
8
RASTER
10
56.286
20
64.732
30
0
0
VERTEX
8
RASTER
10
56.034
20
64.514
30
0
0
VERTEX
8
RASTER
10
55.884
20
64.232
30
0
0
VERTEX
8
RASTER
10
55.867
20
63.896
30
0
0
VERTEX
8
RASTER
10
55.499
20
63.789
30
0
0
VERTEX
8
RASTER
10
55.237
20
63.604
30
0
0
VERTEX
8
RASTER
10
55.079
20
63.37
30
0
0
VERTEX
8
RASTER
10
55.027
20
63.116
30
0
0
VERTEX
8
RASTER
10
55.079
20
62.87
30
0
0
VERTEX
8
RASTER
10
55.237
20
62.659
30
0
0
VERTEX
8
RASTER
10
55.499
20
62.512
30
0
0
VERTEX
8
RASTER
10
55.867
20
62.456
30
0
0
SEQEND
8
RASTER
0
POLYLINE
8
RASTER
66
1
70
1
0
VERTEX
8
RASTER
10
41
20
71.4
30
0
0
VERTEX
8
RASTER
10
42.2
20
71.4
30
0
0
VERTEX
8
RASTER
10
42.2
20
70.2
30
0
0
VERTEX
8
RASTER
10
41
20
70.2
30
0
0
SEQEND
8
RASTER
0
POLYLINE
8
RASTER
66
1
70
1
0
VERTEX
8
RASTER
10
45.8
20
71.4
30
0
0
VERTEX
8
RASTER
10
47
20
71.4
30
0
0
VERTEX
8
RASTER
10
47
20
70.2
30
0
0
VERTEX
8
RASTER
10
45.8
20
70.2
30
0
0
SEQEND
8
RASTER
0
POLYLINE
8
RASTER
66
1
70
1
0
VERTEX
8
RASTER
10
41
20
70.2
30
0
0
VERTEX
8
RASTER
10
43.4
20
70.2
30
0
0
VERTEX
8
RASTER
10
43.4
20
69
30
0
0
VERTEX
8
RASTER
10
41
20
69
30
0
0
SEQEND
8
RASTER
0
POLYLINE
8
RASTER
66
1
70
1
0
VERTEX
8
RASTER
10
45.8
20
70.2
30
0
0
VERTEX
8
RASTER
10
47
20
70.2
30
0
0
VERTEX
8
RASTER
10
47
20
69
30
0
0
VERTEX
8
RASTER
10
45.8
20
69
30
0
0
SEQEND
8
RASTER
0
POLYLINE
8
RASTER
66
1
70
1
0
VERTEX
8
RASTER
10
41
20
69
30
0
0
VERTEX
8
RASTER
10
42.2
20
69
30
0
0
VERTEX
8
RASTER
10
42.2
20
67.8
30
0
0
VERTEX
8
RASTER
10
41
20
67.8
30
0
0
SEQEND
8
RASTER
0
POLYLINE
8
RASTER
66
1
70
1
0
VERTEX
8
RASTER
10
43.4
20
69
30
0
0
VERTEX
8
RASTER
10
44.6
20
69
30
0
0
VERTEX
8
RASTER
10
44.6
20
67.8
30
0
0
VERTEX
8
RASTER
10
43.4
20
67.8
30
0
0
SEQEND
8
RASTER
0
POLYLINE
8
RASTER
66
1
70
1
0
VERTEX
8
RASTER
10
45.8
20
69
30
0
0
VERTEX
8
RASTER
10
47
20
69
30
0
0
VERTEX
8
RASTER
10
47
20
67.8
30
0
0
VERTEX
8
RASTER
10
45.8
20
67.8
30
0
0
SEQEND
8
RASTER
0
POLYLINE
8
RASTER
66
1
70
1
0
VERTEX
8
RASTER
10
41
20
67.8
30
0
0
VERTEX
8
RASTER
10
42.2
20
67.8
30
0
0
VERTEX
8
RASTER
10
42.2
20
66.6
30
0
0
VERTEX
8
RASTER
10
41
20
66.6
30
0
0
SEQEND
8
RASTER
0
POLYLINE
8
RASTER
66
1
70
1
0
VERTEX
8
RASTER
10
44.6
20
67.8
30
0
0
VERTEX
8
RASTER
10
47
20
67.8
30
0
0
VERTEX
8
RASTER
10
47
20
66.6
30
0
0
VERTEX
8
RASTER
10
44.6
20
66.6
30
0
0
SEQEND
8
RASTER
0
POLYLINE
8
RASTER
66
1
70
1
0
VERTEX
8
RASTER
10
41
20
66.6
30
0
0
VERTEX
8
RASTER
10
42.2
20
66.6
30
0
0
VERTEX
8
RASTER
10
42.2
20
65.4
30
0
0
VERTEX
8
RASTER
10
41
20
65.4
30
0
0
SEQEND
8
RASTER
0
POLYLINE
8
RASTER
66
1
70
1
0
VERTEX
8
RASTER
10
45.8
20
66.6
30
0
0
VERTEX
8
RASTER
10
47
20
66.6
30
0
0
VERTEX
8
RASTER
10
47
20
65.4
30
0
0
VERTEX
8
RASTER
10
45.8
20
65.4
30
0
0
SEQEND
8
RASTER
0
POLYLINE
8
RASTER
66
1
70
1
0
VERTEX
8
RASTER
10
41
20
65.4
30
0
0
VERTEX
8
RASTER
10
42.2
20
65.4
30
0
0
VERTEX
8
RASTER
10
42.2
20
64.2
30
0
0
VERTEX
8
RASTER
10
41
20
64.2
30
0
0
SEQEND
8
RASTER
0
POLYLINE
8
RASTER
66
1
70
1
0
VERTEX
8
RASTER
10
45.8
20
65.4
30
0
0
VERTEX
8
RASTER
10
47
20
65.4
30
0
0
VERTEX
8
RASTER
10
47
20
64.2
30
0
0
VERTEX
8
RASTER
10
45.8
20
64.2
30
0
0
SEQEND
8
RASTER
0
POLYLINE
8
RASTER
66
1
70
1
0
VERTEX
8
RASTER
10
41
20
64.2
30
0
0
VERTEX
8
RASTER
10
42.2
20
64.2
30
0
0
VERTEX
8
RASTER
10
42.2
20
63
30
0
0
VERTEX
8
RASTER
10
41
20
63
30
0
0
SEQEND
8
RASTER
0
POLYLINE
8
RASTER
66
1
70
1
0
VERTEX
8
RASTER
10
45.8
20
64.2
30
0
0
VERTEX
8
RASTER
10
47
20
64.2
30
0
0
VERTEX
8
RASTER
10
47
20
63
30
0
0
VERTEX
8
RASTER
10
45.8
20
63
30
0
0
SEQEND
8
RASTER
0
POLYLINE
8
RASTER
66
1
70
1
0
VERTEX
8
RASTER
10
64.2
20
48.2
30
0
0
VERTEX
8
RASTER
10
70.2
20
48.2
30
0
0
VERTEX
8
RASTER
10
70.2
20
47
30
0
0
VERTEX
8
RASTER
10
64.2
20
47
30
0
0
SEQEND
8
RASTER
0
POLYLINE
8
RASTER
66
1
70
1
0
VERTEX
8
RASTER
10
64.2
20
47
30
0
0
VERTEX
8
RASTER
10
65.4
20
47
30
0
0
VERTEX
8
RASTER
10
65.4
20
45.8
30
0
0
VERTEX
8
RASTER
10
64.2
20
45.8
30
0
0
SEQEND
8
RASTER
0
POLYLINE
8
RASTER
66
1
70
1
0
VERTEX
8
RASTER
10
64.2
20
45.8
30
0
0
VERTEX
8
RASTER
10
65.4
20
45.8
30
0
0
VERTEX
8
RASTER
10
65.4
20
44.6
30
0
0
VERTEX
8
RASTER
10
64.2
20
44.6
30
0
0
SEQEND
8
RASTER
0
POLYLINE
8
RASTER
66
1
70
1
0
VERTEX
8
RASTER
10
64.2
20
44.6
30
0
0
VERTEX
8
RASTER
10
69
20
44.6
30
0
0
VERTEX
8
RASTER
10
69
20
43.4
30
0
0
VERTEX
8
RASTER
10
64.2
20
43.4
30
0
0
SEQEND
8
RASTER
0
POLYLINE
8
RASTER
66
1
70
1
0
VERTEX
8
RASTER
10
64.2
20
43.4
30
0
0
VERTEX
8
RASTER
10
65.4
20
43.4
30
0
0
VERTEX
8
RASTER
10
65.4
20
42.2
30
0
0
VERTEX
8
RASTER
10
64.2
20
42.2
30
0
0
SEQEND
8
RASTER
0
POLYLINE
8
RASTER
66
1
70
1
0
VERTEX
8
RASTER
10
64.2
20
42.2
30
0
0
VERTEX
8
RASTER
10
65.4
20
42.2
30
0
0
VERTEX
8
RASTER
10
65.4
20
41
30
0
0
VERTEX
8
RASTER
10
64.2
20
41
30
0
0
SEQEND
8
RASTER
0
POLYLINE
8
RASTER
66
1
70
1
0
VERTEX
8
RASTER
10
64.2
20
41
30
0
0
VERTEX
8
RASTER
10
70.2
20
41
30
0
0
VERTEX
8
RASTER
10
70.2
20
39.8
30
0
0
VERTEX
8
RASTER
10
64.2
20
39.8
30
0
0
SEQEND
8
RASTER
0
POLYLINE
8
RASTER
66
1
70
1
0
VERTEX
8
RASTER
10
42.2
20
25
30
0
0
VERTEX
8
RASTER
10
47
20
25
30
0
0
VERTEX
8
RASTER
10
47
20
23.8
30
0
0
VERTEX
8
RASTER
10
42.2
20
23.8
30
0
0
SEQEND
8
RASTER
0
POLYLINE
8
RASTER
66
1
70
1
0
VERTEX
8
RASTER
10
41
20
23.8
30
0
0
VERTEX
8
RASTER
10
42.2
20
23.8
30
0
0
VERTEX
8
RASTER
10
42.2
20
22.6
30
0
0
VERTEX
8
RASTER
10
41
20
22.6
30
0
0
SEQEND
8
RASTER
0
POLYLINE
8
RASTER
66
1
70
1
0
VERTEX
8
RASTER
10
41
20
22.6
30
0
0
VERTEX
8
RASTER
10
42.2
20
22.6
30
0
0
VERTEX
8
RASTER
10
42.2
20
21.4
30
0
0
VERTEX
8
RASTER
10
41
20
21.4
30
0
0
SEQEND
8
RASTER
0
POLYLINE
8
RASTER
66
1
70
1
0
VERTEX
8
RASTER
10
42.2
20
21.4
30
0
0
VERTEX
8
RASTER
10
45.8
20
21.4
30
0
0
VERTEX
8
RASTER
10
45.8
20
20.2
30
0
0
VERTEX
8
RASTER
10
42.2
20
20.2
30
0
0
SEQEND
8
RASTER
0
POLYLINE
8
RASTER
66
1
70
1
0
VERTEX
8
RASTER
10
45.8
20
20.2
30
0
0
VERTEX
8
RASTER
10
47
20
20.2
30
0
0
VERTEX
8
RASTER
10
47
20
19
30
0
0
VERTEX
8
RASTER
10
45.8
20
19
30
0
0
SEQEND
8
RASTER
0
POLYLINE
8
RASTER
66
1
70
1
0
VERTEX
8
RASTER
10
45.8
20
19
30
0
0
VERTEX
8
RASTER
10
47
20
19
30
0
0
VERTEX
8
RASTER
10
47
20
17.8
30
0
0
VERTEX
8
RASTER
10
45.8
20
17.8
30
0
0
SEQEND
8
RASTER
0
POLYLINE
8
RASTER
66
1
70
1
0
VERTEX
8
RASTER
10
41
20
17.8
30
0
0
VERTEX
8
RASTER
10
45.8
20
17.8
30
0
0
VERTEX
8
RASTER
10
45.8
20
16.6
30
0
0
VERTEX
8
RASTER
10
41
20
16.6
30
0
0
SEQEND
8
RASTER
0
POLYLINE
8
RASTER
66
1
70
1
0
VERTEX
8
RASTER
10
17.8
20
48.2
30
0
0
VERTEX
8
RASTER
10
19
20
48.2
30
0
0
VERTEX
8
RASTER
10
19
20
47
30
0
0
VERTEX
8
RASTER
10
17.8
20
47
30
0
0
SEQEND
8
RASTER
0
POLYLINE
8
RASTER
66
1
70
1
0
VERTEX
8
RASTER
10
22.6
20
48.2
30
0
0
VERTEX
8
RASTER
10
23.8
20
48.2
30
0
0
VERTEX
8
RASTER
10
23.8
20
47
30
0
0
VERTEX
8
RASTER
10
22.6
20
47
30
0
0
SEQEND
8
RASTER
0
POLYLINE
8
RASTER
66
1
70
1
0
VERTEX
8
RASTER
10
17.8
20
47
30
0
0
VERTEX
8
RASTER
10
19
20
47
30
0
0
VERTEX
8
RASTER
10
19
20
45.8
30
0
0
VERTEX
8
RASTER
10
17.8
20
45.8
30
0
0
SEQEND
8
RASTER
0
POLYLINE
8
RASTER
66
1
70
1
0
VERTEX
8
RASTER
10
22.6
20
47
30
0
0
VERTEX
8
RASTER
10
23.8
20
47
30
0
0
VERTEX
8
RASTER
10
23.8
20
45.8
30
0
0
VERTEX
8
RASTER
10
22.6
20
45.8
30
0
0
SEQEND
8
RASTER
0
POLYLINE
8
RASTER
66
1
70
1
0
VERTEX
8
RASTER
10
17.8
20
45.8
30
0
0
VERTEX
8
RASTER
10
19
20
45.8
30
0
0
VERTEX
8
RASTER
10
19
20
44.6
30
0
0
VERTEX
8
RASTER
10
17.8
20
44.6
30
0
0
SEQEND
8
RASTER
0
POLYLINE
8
RASTER
66
1
70
1
0
VERTEX
8
RASTER
10
22.6
20
45.8
30
0
0
VERTEX
8
RASTER
10
23.8
20
45.8
30
0
0
VERTEX
8
RASTER
10
23.8
20
44.6
30
0
0
VERTEX
8
RASTER
10
22.6
20
44.6
30
0
0
SEQEND
8
RASTER
0
POLYLINE
8
RASTER
66
1
70
1
0
VERTEX
8
RASTER
10
17.8
20
44.6
30
0
0
VERTEX
8
RASTER
10
19
20
44.6
30
0
0
VERTEX
8
RASTER
10
19
20
43.4
30
0
0
VERTEX
8
RASTER
10
17.8
20
43.4
30
0
0
SEQEND
8
RASTER
0
POLYLINE
8
RASTER
66
1
70
1
0
VERTEX
8
RASTER
10
20.2
20
44.6
30
0
0
VERTEX
8
RASTER
10
21.4
20
44.6
30
0
0
VERTEX
8
RASTER
10
21.4
20
43.4
30
0
0
VERTEX
8
RASTER
10
20.2
20
43.4
30
0
0
SEQEND
8
RASTER
0
POLYLINE
8
RASTER
66
1
70
1
0
VERTEX
8
RASTER
10
22.6
20
44.6
30
0
0
VERTEX
8
RASTER
10
23.8
20
44.6
30
0
0
VERTEX
8
RASTER
10
23.8
20
43.4
30
0
0
VERTEX
8
RASTER
10
22.6
20
43.4
30
0
0
SEQEND
8
RASTER
0
POLYLINE
8
RASTER
66
1
70
1
0
VERTEX
8
RASTER
10
17.8
20
43.4
30
0
0
VERTEX
8
RASTER
10
19
20
43.4
30
0
0
VERTEX
8
RASTER
10
19
20
42.2
30
0
0
VERTEX
8
RASTER
10
17.8
20
42.2
30
0
0
SEQEND
8
RASTER
0
POLYLINE
8
RASTER
66
1
70
1
0
VERTEX
8
RASTER
10
20.2
20
43.4
30
0
0
VERTEX
8
RASTER
10
21.4
20
43.4
30
0
0
VERTEX
8
RASTER
10
21.4
20
42.2
30
0
0
VERTEX
8
RASTER
10
20.2
20
42.2
30
0
0
SEQEND
8
RASTER
0
POLYLINE
8
RASTER
66
1
70
1
0
VERTEX
8
RASTER
10
22.6
20
43.4
30
0
0
VERTEX
8
RASTER
10
23.8
20
43.4
30
0
0
VERTEX
8
RASTER
10
23.8
20
42.2
30
0
0
VERTEX
8
RASTER
10
22.6
20
42.2
30
0
0
SEQEND
8
RASTER
0
POLYLINE
8
RASTER
66
1
70
1
0
VERTEX
8
RASTER
10
17.8
20
42.2
30
0
0
VERTEX
8
RASTER
10
20.2
20
42.2
30
0
0
VERTEX
8
RASTER
10
20.2
20
41
30
0
0
VERTEX
8
RASTER
10
17.8
20
41
30
0
0
SEQEND
8
RASTER
0
POLYLINE
8
RASTER
66
1
70
1
0
VERTEX
8
RASTER
10
21.4
20
42.2
30
0
0
VERTEX
8
RASTER
10
23.8
20
42.2
30
0
0
VERTEX
8
RASTER
10
23.8
20
41
30
0
0
VERTEX
8
RASTER
10
21.4
20
41
30
0
0
SEQEND
8
RASTER
0
POLYLINE
8
RASTER
66
1
70
1
0
VERTEX
8
RASTER
10
17.8
20
41
30
0
0
VERTEX
8
RASTER
10
19
20
41
30
0
0
VERTEX
8
RASTER
10
19
20
39.8
30
0
0
VERTEX
8
RASTER
10
17.8
20
39.8
30
0
0
SEQEND
8
RASTER
0
POLYLINE
8
RASTER
66
1
70
1
0
VERTEX
8
RASTER
10
22.6
20
41
30
0
0
VERTEX
8
RASTER
10
23.8
20
41
30
0
0
VERTEX
8
RASTER
10
23.8
20
39.8
30
0
0
VERTEX
8
RASTER
10
22.6
20
39.8
30
0
0
SEQEND
8
RASTER
0
POLYLINE
8
CUT
66
1
70
1
0
VERTEX
8
CUT
10
88
20
79
30
0
0
VERTEX
8
CUT
10
119
20
79
30
0
0
VERTEX
8
CUT
10
119
20
84
30
0
0
VERTEX
8
CUT
10
130
20
76
30
0
0
VERTEX
8
CUT
10
119
20
68
30
0
0
VERTEX
8
CUT
10
119
20
73
30
0
0
VERTEX
8
CUT
10
88
20
73
30
0
0
VERTEX
8
CUT
10
92
20
76
30
0
0
SEQEND
8
CUT
0
CIRCLE
8
CUT
10
100
20
76
30
0
40
1.65
0
POLYLINE
8
RASTER
66
1
70
1
0
VERTEX
8
RASTER
10
98.88
20
78.52
30
0
0
VERTEX
8
RASTER
10
99.6
20
78.52
30
0
0
VERTEX
8
RASTER
10
99.6
20
77.8
30
0
0
VERTEX
8
RASTER
10
98.88
20
77.8
30
0
0
SEQEND
8
RASTER
0
POLYLINE
8
RASTER
66
1
70
1
0
VERTEX
8
RASTER
10
101.76
20
78.52
30
0
0
VERTEX
8
RASTER
10
102.48
20
78.52
30
0
0
VERTEX
8
RASTER
10
102.48
20
77.8
30
0
0
VERTEX
8
RASTER
10
101.76
20
77.8
30
0
0
SEQEND
8
RASTER
0
POLYLINE
8
RASTER
66
1
70
1
0
VERTEX
8
RASTER
10
98.88
20
77.8
30
0
0
VERTEX
8
RASTER
10
100.32
20
77.8
30
0
0
VERTEX
8
RASTER
10
100.32
20
77.08
30
0
0
VERTEX
8
RASTER
10
98.88
20
77.08
30
0
0
SEQEND
8
RASTER
0
POLYLINE
8
RASTER
66
1
70
1
0
VERTEX
8
RASTER
10
101.76
20
77.8
30
0
0
VERTEX
8
RASTER
10
102.48
20
77.8
30
0
0
VERTEX
8
RASTER
10
102.48
20
77.08
30
0
0
VERTEX
8
RASTER
10
101.76
20
77.08
30
0
0
SEQEND
8
RASTER
0
POLYLINE
8
RASTER
66
1
70
1
0
VERTEX
8
RASTER
10
98.88
20
77.08
30
0
0
VERTEX
8
RASTER
10
99.6
20
77.08
30
0
0
VERTEX
8
RASTER
10
99.6
20
76.36
30
0
0
VERTEX
8
RASTER
10
98.88
20
76.36
30
0
0
SEQEND
8
RASTER
0
POLYLINE
8
RASTER
66
1
70
1
0
VERTEX
8
RASTER
10
100.32
20
77.08
30
0
0
VERTEX
8
RASTER
10
101.04
20
77.08
30
0
0
VERTEX
8
RASTER
10
101.04
20
76.36
30
0
0
VERTEX
8
RASTER
10
100.32
20
76.36
30
0
0
SEQEND
8
RASTER
0
POLYLINE
8
RASTER
66
1
70
1
0
VERTEX
8
RASTER
10
101.76
20
77.08
30
0
0
VERTEX
8
RASTER
10
102.48
20
77.08
30
0
0
VERTEX
8
RASTER
10
102.48
20
76.36
30
0
0
VERTEX
8
RASTER
10
101.76
20
76.36
30
0
0
SEQEND
8
RASTER
0
POLYLINE
8
RASTER
66
1
70
1
0
VERTEX
8
RASTER
10
98.88
20
76.36
30
0
0
VERTEX
8
RASTER
10
99.6
20
76.36
30
0
0
VERTEX
8
RASTER
10
99.6
20
75.64
30
0
0
VERTEX
8
RASTER
10
98.88
20
75.64
30
0
0
SEQEND
8
RASTER
0
POLYLINE
8
RASTER
66
1
70
1
0
VERTEX
8
RASTER
10
101.04
20
76.36
30
0
0
VERTEX
8
RASTER
10
102.48
20
76.36
30
0
0
VERTEX
8
RASTER
10
102.48
20
75.64
30
0
0
VERTEX
8
RASTER
10
101.04
20
75.64
30
0
0
SEQEND
8
RASTER
0
POLYLINE
8
RASTER
66
1
70
1
0
VERTEX
8
RASTER
10
98.88
20
75.64
30
0
0
VERTEX
8
RASTER
10
99.6
20
75.64
30
0
0
VERTEX
8
RASTER
10
99.6
20
74.92
30
0
0
VERTEX
8
RASTER
10
98.88
20
74.92
30
0
0
SEQEND
8
RASTER
0
POLYLINE
8
RASTER
66
1
70
1
0
VERTEX
8
RASTER
10
101.76
20
75.64
30
0
0
VERTEX
8
RASTER
10
102.48
20
75.64
30
0
0
VERTEX
8
RASTER
10
102.48
20
74.92
30
0
0
VERTEX
8
RASTER
10
101.76
20
74.92
30
0
0
SEQEND
8
RASTER
0
POLYLINE
8
RASTER
66
1
70
1
0
VERTEX
8
RASTER
10
98.88
20
74.92
30
0
0
VERTEX
8
RASTER
10
99.6
20
74.92
30
0
0
VERTEX
8
RASTER
10
99.6
20
74.2
30
0
0
VERTEX
8
RASTER
10
98.88
20
74.2
30
0
0
SEQEND
8
RASTER
0
POLYLINE
8
RASTER
66
1
70
1
0
VERTEX
8
RASTER
10
101.76
20
74.92
30
0
0
VERTEX
8
RASTER
10
102.48
20
74.92
30
0
0
VERTEX
8
RASTER
10
102.48
20
74.2
30
0
0
VERTEX
8
RASTER
10
101.76
20
74.2
30
0
0
SEQEND
8
RASTER
0
POLYLINE
8
RASTER
66
1
70
1
0
VERTEX
8
RASTER
10
98.88
20
74.2
30
0
0
VERTEX
8
RASTER
10
99.6
20
74.2
30
0
0
VERTEX
8
RASTER
10
99.6
20
73.48
30
0
0
VERTEX
8
RASTER
10
98.88
20
73.48
30
0
0
SEQEND
8
RASTER
0
POLYLINE
8
RASTER
66
1
70
1
0
VERTEX
8
RASTER
10
101.76
20
74.2
30
0
0
VERTEX
8
RASTER
10
102.48
20
74.2
30
0
0
VERTEX
8
RASTER
10
102.48
20
73.48
30
0
0
VERTEX
8
RASTER
10
101.76
20
73.48
30
0
0
SEQEND
8
RASTER
0
POLYLINE
8
RASTER
66
1
70
1
0
VERTEX
8
RASTER
10
103.92
20
78.52
30
0
0
VERTEX
8
RASTER
10
106.08
20
78.52
30
0
0
VERTEX
8
RASTER
10
106.08
20
77.8
30
0
0
VERTEX
8
RASTER
10
103.92
20
77.8
30
0
0
SEQEND
8
RASTER
0
POLYLINE
8
RASTER
66
1
70
1
0
VERTEX
8
RASTER
10
103.2
20
77.8
30
0
0
VERTEX
8
RASTER
10
103.92
20
77.8
30
0
0
VERTEX
8
RASTER
10
103.92
20
77.08
30
0
0
VERTEX
8
RASTER
10
103.2
20
77.08
30
0
0
SEQEND
8
RASTER
0
POLYLINE
8
RASTER
66
1
70
1
0
VERTEX
8
RASTER
10
106.08
20
77.8
30
0
0
VERTEX
8
RASTER
10
106.8
20
77.8
30
0
0
VERTEX
8
RASTER
10
106.8
20
77.08
30
0
0
VERTEX
8
RASTER
10
106.08
20
77.08
30
0
0
SEQEND
8
RASTER
0
POLYLINE
8
RASTER
66
1
70
1
0
VERTEX
8
RASTER
10
103.2
20
77.08
30
0
0
VERTEX
8
RASTER
10
103.92
20
77.08
30
0
0
VERTEX
8
RASTER
10
103.92
20
76.36
30
0
0
VERTEX
8
RASTER
10
103.2
20
76.36
30
0
0
SEQEND
8
RASTER
0
POLYLINE
8
RASTER
66
1
70
1
0
VERTEX
8
RASTER
10
106.08
20
77.08
30
0
0
VERTEX
8
RASTER
10
106.8
20
77.08
30
0
0
VERTEX
8
RASTER
10
106.8
20
76.36
30
0
0
VERTEX
8
RASTER
10
106.08
20
76.36
30
0
0
SEQEND
8
RASTER
0
POLYLINE
8
RASTER
66
1
70
1
0
VERTEX
8
RASTER
10
103.2
20
76.36
30
0
0
VERTEX
8
RASTER
10
103.92
20
76.36
30
0
0
VERTEX
8
RASTER
10
103.92
20
75.64
30
0
0
VERTEX
8
RASTER
10
103.2
20
75.64
30
0
0
SEQEND
8
RASTER
0
POLYLINE
8
RASTER
66
1
70
1
0
VERTEX
8
RASTER
10
106.08
20
76.36
30
0
0
VERTEX
8
RASTER
10
106.8
20
76.36
30
0
0
VERTEX
8
RASTER
10
106.8
20
75.64
30
0
0
VERTEX
8
RASTER
10
106.08
20
75.64
30
0
0
SEQEND
8
RASTER
0
POLYLINE
8
RASTER
66
1
70
1
0
VERTEX
8
RASTER
10
103.2
20
75.64
30
0
0
VERTEX
8
RASTER
10
103.92
20
75.64
30
0
0
VERTEX
8
RASTER
10
103.92
20
74.92
30
0
0
VERTEX
8
RASTER
10
103.2
20
74.92
30
0
0
SEQEND
8
RASTER
0
POLYLINE
8
RASTER
66
1
70
1
0
VERTEX
8
RASTER
10
106.08
20
75.64
30
0
0
VERTEX
8
RASTER
10
106.8
20
75.64
30
0
0
VERTEX
8
RASTER
10
106.8
20
74.92
30
0
0
VERTEX
8
RASTER
10
106.08
20
74.92
30
0
0
SEQEND
8
RASTER
0
POLYLINE
8
RASTER
66
1
70
1
0
VERTEX
8
RASTER
10
103.2
20
74.92
30
0
0
VERTEX
8
RASTER
10
103.92
20
74.92
30
0
0
VERTEX
8
RASTER
10
103.92
20
74.2
30
0
0
VERTEX
8
RASTER
10
103.2
20
74.2
30
0
0
SEQEND
8
RASTER
0
POLYLINE
8
RASTER
66
1
70
1
0
VERTEX
8
RASTER
10
106.08
20
74.92
30
0
0
VERTEX
8
RASTER
10
106.8
20
74.92
30
0
0
VERTEX
8
RASTER
10
106.8
20
74.2
30
0
0
VERTEX
8
RASTER
10
106.08
20
74.2
30
0
0
SEQEND
8
RASTER
0
POLYLINE
8
RASTER
66
1
70
1
0
VERTEX
8
RASTER
10
103.92
20
74.2
30
0
0
VERTEX
8
RASTER
10
106.08
20
74.2
30
0
0
VERTEX
8
RASTER
10
106.08
20
73.48
30
0
0
VERTEX
8
RASTER
10
103.92
20
73.48
30
0
0
SEQEND
8
RASTER
0
POLYLINE
8
RASTER
66
1
70
1
0
VERTEX
8
RASTER
10
107.52
20
78.52
30
0
0
VERTEX
8
RASTER
10
108.24
20
78.52
30
0
0
VERTEX
8
RASTER
10
108.24
20
77.8
30
0
0
VERTEX
8
RASTER
10
107.52
20
77.8
30
0
0
SEQEND
8
RASTER
0
POLYLINE
8
RASTER
66
1
70
1
0
VERTEX
8
RASTER
10
110.4
20
78.52
30
0
0
VERTEX
8
RASTER
10
111.12
20
78.52
30
0
0
VERTEX
8
RASTER
10
111.12
20
77.8
30
0
0
VERTEX
8
RASTER
10
110.4
20
77.8
30
0
0
SEQEND
8
RASTER
0
POLYLINE
8
RASTER
66
1
70
1
0
VERTEX
8
RASTER
10
107.52
20
77.8
30
0
0
VERTEX
8
RASTER
10
108.24
20
77.8
30
0
0
VERTEX
8
RASTER
10
108.24
20
77.08
30
0
0
VERTEX
8
RASTER
10
107.52
20
77.08
30
0
0
SEQEND
8
RASTER
0
POLYLINE
8
RASTER
66
1
70
1
0
VERTEX
8
RASTER
10
110.4
20
77.8
30
0
0
VERTEX
8
RASTER
10
111.12
20
77.8
30
0
0
VERTEX
8
RASTER
10
111.12
20
77.08
30
0
0
VERTEX
8
RASTER
10
110.4
20
77.08
30
0
0
SEQEND
8
RASTER
0
POLYLINE
8
RASTER
66
1
70
1
0
VERTEX
8
RASTER
10
107.52
20
77.08
30
0
0
VERTEX
8
RASTER
10
108.24
20
77.08
30
0
0
VERTEX
8
RASTER
10
108.24
20
76.36
30
0
0
VERTEX
8
RASTER
10
107.52
20
76.36
30
0
0
SEQEND
8
RASTER
0
POLYLINE
8
RASTER
66
1
70
1
0
VERTEX
8
RASTER
10
110.4
20
77.08
30
0
0
VERTEX
8
RASTER
10
111.12
20
77.08
30
0
0
VERTEX
8
RASTER
10
111.12
20
76.36
30
0
0
VERTEX
8
RASTER
10
110.4
20
76.36
30
0
0
SEQEND
8
RASTER
0
POLYLINE
8
RASTER
66
1
70
1
0
VERTEX
8
RASTER
10
107.52
20
76.36
30
0
0
VERTEX
8
RASTER
10
108.24
20
76.36
30
0
0
VERTEX
8
RASTER
10
108.24
20
75.64
30
0
0
VERTEX
8
RASTER
10
107.52
20
75.64
30
0
0
SEQEND
8
RASTER
0
POLYLINE
8
RASTER
66
1
70
1
0
VERTEX
8
RASTER
10
108.96
20
76.36
30
0
0
VERTEX
8
RASTER
10
109.68
20
76.36
30
0
0
VERTEX
8
RASTER
10
109.68
20
75.64
30
0
0
VERTEX
8
RASTER
10
108.96
20
75.64
30
0
0
SEQEND
8
RASTER
0
POLYLINE
8
RASTER
66
1
70
1
0
VERTEX
8
RASTER
10
110.4
20
76.36
30
0
0
VERTEX
8
RASTER
10
111.12
20
76.36
30
0
0
VERTEX
8
RASTER
10
111.12
20
75.64
30
0
0
VERTEX
8
RASTER
10
110.4
20
75.64
30
0
0
SEQEND
8
RASTER
0
POLYLINE
8
RASTER
66
1
70
1
0
VERTEX
8
RASTER
10
107.52
20
75.64
30
0
0
VERTEX
8
RASTER
10
108.24
20
75.64
30
0
0
VERTEX
8
RASTER
10
108.24
20
74.92
30
0
0
VERTEX
8
RASTER
10
107.52
20
74.92
30
0
0
SEQEND
8
RASTER
0
POLYLINE
8
RASTER
66
1
70
1
0
VERTEX
8
RASTER
10
108.96
20
75.64
30
0
0
VERTEX
8
RASTER
10
109.68
20
75.64
30
0
0
VERTEX
8
RASTER
10
109.68
20
74.92
30
0
0
VERTEX
8
RASTER
10
108.96
20
74.92
30
0
0
SEQEND
8
RASTER
0
POLYLINE
8
RASTER
66
1
70
1
0
VERTEX
8
RASTER
10
110.4
20
75.64
30
0
0
VERTEX
8
RASTER
10
111.12
20
75.64
30
0
0
VERTEX
8
RASTER
10
111.12
20
74.92
30
0
0
VERTEX
8
RASTER
10
110.4
20
74.92
30
0
0
SEQEND
8
RASTER
0
POLYLINE
8
RASTER
66
1
70
1
0
VERTEX
8
RASTER
10
107.52
20
74.92
30
0
0
VERTEX
8
RASTER
10
108.96
20
74.92
30
0
0
VERTEX
8
RASTER
10
108.96
20
74.2
30
0
0
VERTEX
8
RASTER
10
107.52
20
74.2
30
0
0
SEQEND
8
RASTER
0
POLYLINE
8
RASTER
66
1
70
1
0
VERTEX
8
RASTER
10
109.68
20
74.92
30
0
0
VERTEX
8
RASTER
10
111.12
20
74.92
30
0
0
VERTEX
8
RASTER
10
111.12
20
74.2
30
0
0
VERTEX
8
RASTER
10
109.68
20
74.2
30
0
0
SEQEND
8
RASTER
0
POLYLINE
8
RASTER
66
1
70
1
0
VERTEX
8
RASTER
10
107.52
20
74.2
30
0
0
VERTEX
8
RASTER
10
108.24
20
74.2
30
0
0
VERTEX
8
RASTER
10
108.24
20
73.48
30
0
0
VERTEX
8
RASTER
10
107.52
20
73.48
30
0
0
SEQEND
8
RASTER
0
POLYLINE
8
RASTER
66
1
70
1
0
VERTEX
8
RASTER
10
110.4
20
74.2
30
0
0
VERTEX
8
RASTER
10
111.12
20
74.2
30
0
0
VERTEX
8
RASTER
10
111.12
20
73.48
30
0
0
VERTEX
8
RASTER
10
110.4
20
73.48
30
0
0
SEQEND
8
RASTER
0
POLYLINE
8
CUT
66
1
70
1
0
VERTEX
8
CUT
10
134
20
79.2
30
0
0
VERTEX
8
CUT
10
158
20
79.2
30
0
0
VERTEX
8
CUT
10
158
20
84
30
0
0
VERTEX
8
CUT
10
168
20
76
30
0
0
VERTEX
8
CUT
10
158
20
68
30
0
0
VERTEX
8
CUT
10
158
20
72.8
30
0
0
VERTEX
8
CUT
10
134
20
72.8
30
0
0
SEQEND
8
CUT
0
POLYLINE
8
RASTER
66
1
70
1
0
VERTEX
8
RASTER
10
134
20
79.2
30
0
0
VERTEX
8
RASTER
10
158
20
79.2
30
0
0
VERTEX
8
RASTER
10
158
20
84
30
0
0
VERTEX
8
RASTER
10
168
20
76
30
0
0
VERTEX
8
RASTER
10
158
20
68
30
0
0
VERTEX
8
RASTER
10
158
20
72.8
30
0
0
VERTEX
8
RASTER
10
134
20
72.8
30
0
0
SEQEND
8
RASTER
0
POLYLINE
8
RASTER
66
1
70
1
0
VERTEX
8
RASTER
10
135.4
20
77.8
30
0
0
VERTEX
8
RASTER
10
135.4
20
74.2
30
0
0
VERTEX
8
RASTER
10
156.6
20
74.2
30
0
0
VERTEX
8
RASTER
10
156.6
20
71.4
30
0
0
VERTEX
8
RASTER
10
164.6
20
76
30
0
0
VERTEX
8
RASTER
10
156.6
20
80.6
30
0
0
VERTEX
8
RASTER
10
156.6
20
77.8
30
0
0
VERTEX
8
RASTER
10
135.4
20
77.8
30
0
0
SEQEND
8
RASTER
0
CIRCLE
8
CUT
10
144
20
76
30
0
40
1.65
0
CIRCLE
8
CUT
10
176.5
20
79.5
30
0
40
4.5
0
CIRCLE
8
CUT
10
176.5
20
79.5
30
0
40
1.65
0
CIRCLE
8
CUT
10
189.5
20
79.5
30
0
40
4.5
0
CIRCLE
8
CUT
10
189.5
20
79.5
30
0
40
1.65
0
ENDSEC
0
EOF
