0
SECTION
2
HEADER
9
$ACADVER
1
AC1009
9
$EXTMIN
10
0
20
0
9
$EXTMAX
10
96.8
20
27.2
0
ENDSEC
0
SECTION
2
TABLES
0
TABLE
2
LAYER
70
2
0
LAYER
2
CUT
70
0
62
1
6
CONTINUOUS
0
LAYER
2
RASTER
70
0
62
7
6
CONTINUOUS
0
ENDTAB
0
ENDSEC
0
SECTION
2
ENTITIES
0
POLYLINE
8
CUT
66
1
70
1
0
VERTEX
8
CUT
10
4
20
21.2
30
0
0
VERTEX
8
CUT
10
4.031
20
21.669
30
0
0
VERTEX
8
CUT
10
4.125
20
22.075
30
0
0
VERTEX
8
CUT
10
4.281
20
22.419
30
0
0
VERTEX
8
CUT
10
4.5
20
22.7
30
0
0
VERTEX
8
CUT
10
4.781
20
22.919
30
0
0
VERTEX
8
CUT
10
5.125
20
23.075
30
0
0
VERTEX
8
CUT
10
5.531
20
23.169
30
0
0
VERTEX
8
CUT
10
6
20
23.2
30
0
0
VERTEX
8
CUT
10
21.2
20
23.2
30
0
0
VERTEX
8
CUT
10
21.669
20
23.169
30
0
0
VERTEX
8
CUT
10
22.075
20
23.075
30
0
0
VERTEX
8
CUT
10
22.419
20
22.919
30
0
0
VERTEX
8
CUT
10
22.7
20
22.7
30
0
0
VERTEX
8
CUT
10
22.919
20
22.419
30
0
0
VERTEX
8
CUT
10
23.075
20
22.075
30
0
0
VERTEX
8
CUT
10
23.169
20
21.669
30
0
0
VERTEX
8
CUT
10
23.2
20
21.2
30
0
0
VERTEX
8
CUT
10
23.2
20
6
30
0
0
VERTEX
8
CUT
10
23.169
20
5.531
30
0
0
VERTEX
8
CUT
10
23.075
20
5.125
30
0
0
VERTEX
8
CUT
10
22.919
20
4.781
30
0
0
VERTEX
8
CUT
10
22.7
20
4.5
30
0
0
VERTEX
8
CUT
10
22.419
20
4.281
30
0
0
VERTEX
8
CUT
10
22.075
20
4.125
30
0
0
VERTEX
8
CUT
10
21.669
20
4.031
30
0
0
VERTEX
8
CUT
10
21.2
20
4
30
0
0
VERTEX
8
CUT
10
6
20
4
30
0
0
VERTEX
8
CUT
10
5.531
20
4.031
30
0
0
VERTEX
8
CUT
10
5.125
20
4.125
30
0
0
VERTEX
8
CUT
10
4.781
20
4.281
30
0
0
VERTEX
8
CUT
10
4.5
20
4.5
30
0
0
VERTEX
8
CUT
10
4.281
20
4.781
30
0
0
VERTEX
8
CUT
10
4.125
20
5.125
30
0
0
VERTEX
8
CUT
10
4.031
20
5.531
30
0
0
VERTEX
8
CUT
10
4
20
6
30
0
0
SEQEND
8
CUT
0
POLYLINE
8
RASTER
66
1
70
1
0
VERTEX
8
RASTER
10
21.695
20
10.654
30
0
0
VERTEX
8
RASTER
10
20.964
20
9.131
30
0
0
VERTEX
8
RASTER
10
19.951
20
7.78
30
0
0
VERTEX
8
RASTER
10
18.694
20
6.653
30
0
0
VERTEX
8
RASTER
10
17.24
20
5.793
30
0
0
VERTEX
8
RASTER
10
15.647
20
5.233
30
0
0
VERTEX
8
RASTER
10
13.976
20
4.994
30
0
0
VERTEX
8
RASTER
10
12.29
20
5.086
30
0
0
VERTEX
8
RASTER
10
10.654
20
5.505
30
0
0
VERTEX
8
RASTER
10
9.131
20
6.236
30
0
0
VERTEX
8
RASTER
10
7.78
20
7.249
30
0
0
VERTEX
8
RASTER
10
6.653
20
8.506
30
0
0
VERTEX
8
RASTER
10
5.793
20
9.96
30
0
0
VERTEX
8
RASTER
10
5.233
20
11.553
30
0
0
VERTEX
8
RASTER
10
4.994
20
13.224
30
0
0
VERTEX
8
RASTER
10
5.086
20
14.91
30
0
0
VERTEX
8
RASTER
10
5.505
20
16.546
30
0
0
VERTEX
8
RASTER
10
6.236
20
18.069
30
0
0
VERTEX
8
RASTER
10
7.249
20
19.42
30
0
0
VERTEX
8
RASTER
10
8.506
20
20.547
30
0
0
VERTEX
8
RASTER
10
9.96
20
21.407
30
0
0
VERTEX
8
RASTER
10
11.553
20
21.967
30
0
0
VERTEX
8
RASTER
10
13.224
20
22.206
30
0
0
VERTEX
8
RASTER
10
14.91
20
22.114
30
0
0
VERTEX
8
RASTER
10
16.546
20
21.695
30
0
0
VERTEX
8
RASTER
10
16.17
20
20.661
30
0
0
VERTEX
8
RASTER
10
14.743
20
21.027
30
0
0
VERTEX
8
RASTER
10
13.272
20
21.107
30
0
0
VERTEX
8
RASTER
10
11.814
20
20.899
30
0
0
VERTEX
8
RASTER
10
10.424
20
20.41
30
0
0
VERTEX
8
RASTER
10
9.157
20
19.66
30
0
0
VERTEX
8
RASTER
10
8.06
20
18.676
30
0
0
VERTEX
8
RASTER
10
7.176
20
17.498
30
0
0
VERTEX
8
RASTER
10
6.539
20
16.17
30
0
0
VERTEX
8
RASTER
10
6.173
20
14.743
30
0
0
VERTEX
8
RASTER
10
6.093
20
13.272
30
0
0
VERTEX
8
RASTER
10
6.301
20
11.814
30
0
0
VERTEX
8
RASTER
10
6.79
20
10.424
30
0
0
VERTEX
8
RASTER
10
7.54
20
9.157
30
0
0
VERTEX
8
RASTER
10
8.524
20
8.06
30
0
0
VERTEX
8
RASTER
10
9.702
20
7.176
30
0
0
VERTEX
8
RASTER
10
11.03
20
6.539
30
0
0
VERTEX
8
RASTER
10
12.457
20
6.173
30
0
0
VERTEX
8
RASTER
10
13.928
20
6.093
30
0
0
VERTEX
8
RASTER
10
15.386
20
6.301
30
0
0
VERTEX
8
RASTER
10
16.776
20
6.79
30
0
0
VERTEX
8
RASTER
10
18.043
20
7.54
30
0
0
VERTEX
8
RASTER
10
19.14
20
8.524
30
0
0
VERTEX
8
RASTER
10
20.024
20
9.702
30
0
0
VERTEX
8
RASTER
10
20.661
20
11.03
30
0
0
SEQEND
8
RASTER
0
POLYLINE
8
RASTER
66
1
70
1
0
VERTEX
8
RASTER
10
8.082
20
11.592
30
0
0
VERTEX
8
RASTER
10
7.796
20
12.707
30
0
0
VERTEX
8
RASTER
10
7.733
20
13.856
30
0
0
VERTEX
8
RASTER
10
7.896
20
14.996
30
0
0
VERTEX
8
RASTER
10
8.278
20
16.082
30
0
0
VERTEX
8
RASTER
10
8.864
20
17.072
30
0
0
VERTEX
8
RASTER
10
9.633
20
17.929
30
0
0
VERTEX
8
RASTER
10
10.554
20
18.62
30
0
0
VERTEX
8
RASTER
10
11.592
20
19.118
30
0
0
VERTEX
8
RASTER
10
12.707
20
19.404
30
0
0
VERTEX
8
RASTER
10
13.856
20
19.467
30
0
0
VERTEX
8
RASTER
10
14.996
20
19.304
30
0
0
VERTEX
8
RASTER
10
16.082
20
18.922
30
0
0
VERTEX
8
RASTER
10
17.072
20
18.336
30
0
0
VERTEX
8
RASTER
10
17.929
20
17.567
30
0
0
VERTEX
8
RASTER
10
18.62
20
16.646
30
0
0
VERTEX
8
RASTER
10
19.118
20
15.608
30
0
0
VERTEX
8
RASTER
10
19.404
20
14.493
30
0
0
VERTEX
8
RASTER
10
19.467
20
13.344
30
0
0
VERTEX
8
RASTER
10
19.304
20
12.204
30
0
0
VERTEX
8
RASTER
10
18.922
20
11.118
30
0
0
VERTEX
8
RASTER
10
18.336
20
10.128
30
0
0
VERTEX
8
RASTER
10
17.567
20
9.271
30
0
0
VERTEX
8
RASTER
10
16.646
20
8.58
30
0
0
VERTEX
8
RASTER
10
15.608
20
8.082
30
0
0
VERTEX
8
RASTER
10
15.232
20
9.116
30
0
0
VERTEX
8
RASTER
10
16.076
20
9.52
30
0
0
VERTEX
8
RASTER
10
16.824
20
10.082
30
0
0
VERTEX
8
RASTER
10
17.449
20
10.778
30
0
0
VERTEX
8
RASTER
10
17.925
20
11.583
30
0
0
VERTEX
8
RASTER
10
18.235
20
12.466
30
0
0
VERTEX
8
RASTER
10
18.368
20
13.392
30
0
0
VERTEX
8
RASTER
10
18.317
20
14.326
30
0
0
VERTEX
8
RASTER
10
18.084
20
15.232
30
0
0
VERTEX
8
RASTER
10
17.68
20
16.076
30
0
0
VERTEX
8
RASTER
10
17.118
20
16.824
30
0
0
VERTEX
8
RASTER
10
16.422
20
17.449
30
0
0
VERTEX
8
RASTER
10
15.617
20
17.925
30
0
0
VERTEX
8
RASTER
10
14.734
20
18.235
30
0
0
VERTEX
8
RASTER
10
13.808
20
18.368
30
0
0
VERTEX
8
RASTER
10
12.874
20
18.317
30
0
0
VERTEX
8
RASTER
10
11.968
20
18.084
30
0
0
VERTEX
8
RASTER
10
11.124
20
17.68
30
0
0
VERTEX
8
RASTER
10
10.376
20
17.118
30
0
0
VERTEX
8
RASTER
10
9.751
20
16.422
30
0
0
VERTEX
8
RASTER
10
9.275
20
15.617
30
0
0
VERTEX
8
RASTER
10
8.965
20
14.734
30
0
0
VERTEX
8
RASTER
10
8.832
20
13.808
30
0
0
VERTEX
8
RASTER
10
8.883
20
12.874
30
0
0
VERTEX
8
RASTER
10
9.116
20
11.968
30
0
0
SEQEND
8
RASTER
0
POLYLINE
8
RASTER
66
1
70
1
0
VERTEX
8
RASTER
10
15.206
20
16.381
30
0
0
VERTEX
8
RASTER
10
15.717
20
16.014
30
0
0
VERTEX
8
RASTER
10
16.148
20
15.555
30
0
0
VERTEX
8
RASTER
10
16.48
20
15.02
30
0
0
VERTEX
8
RASTER
10
16.702
20
14.431
30
0
0
VERTEX
8
RASTER
10
16.804
20
13.81
30
0
0
VERTEX
8
RASTER
10
16.784
20
13.181
30
0
0
VERTEX
8
RASTER
10
16.641
20
12.568
30
0
0
VERTEX
8
RASTER
10
16.381
20
11.994
30
0
0
VERTEX
8
RASTER
10
16.014
20
11.483
30
0
0
VERTEX
8
RASTER
10
15.555
20
11.052
30
0
0
VERTEX
8
RASTER
10
15.02
20
10.72
30
0
0
VERTEX
8
RASTER
10
14.431
20
10.498
30
0
0
VERTEX
8
RASTER
10
13.81
20
10.396
30
0
0
VERTEX
8
RASTER
10
13.181
20
10.416
30
0
0
VERTEX
8
RASTER
10
12.568
20
10.559
30
0
0
VERTEX
8
RASTER
10
11.994
20
10.819
30
0
0
VERTEX
8
RASTER
10
11.483
20
11.186
30
0
0
VERTEX
8
RASTER
10
11.052
20
11.645
30
0
0
VERTEX
8
RASTER
10
10.72
20
12.18
30
0
0
VERTEX
8
RASTER
10
10.498
20
12.769
30
0
0
VERTEX
8
RASTER
10
10.396
20
13.39
30
0
0
VERTEX
8
RASTER
10
10.416
20
14.019
30
0
0
VERTEX
8
RASTER
10
10.559
20
14.632
30
0
0
VERTEX
8
RASTER
10
10.819
20
15.206
30
0
0
VERTEX
8
RASTER
10
11.772
20
14.656
30
0
0
VERTEX
8
RASTER
10
11.601
20
14.279
30
0
0
VERTEX
8
RASTER
10
11.507
20
13.876
30
0
0
VERTEX
8
RASTER
10
11.493
20
13.462
30
0
0
VERTEX
8
RASTER
10
11.561
20
13.054
30
0
0
VERTEX
8
RASTER
10
11.707
20
12.666
30
0
0
VERTEX
8
RASTER
10
11.925
20
12.315
30
0
0
VERTEX
8
RASTER
10
12.208
20
12.013
30
0
0
VERTEX
8
RASTER
10
12.544
20
11.772
30
0
0
VERTEX
8
RASTER
10
12.921
20
11.601
30
0
0
VERTEX
8
RASTER
10
13.324
20
11.507
30
0
0
VERTEX
8
RASTER
10
13.738
20
11.493
30
0
0
VERTEX
8
RASTER
10
14.146
20
11.561
30
0
0
VERTEX
8
RASTER
10
14.534
20
11.707
30
0
0
VERTEX
8
RASTER
10
14.885
20
11.925
30
0
0
VERTEX
8
RASTER
10
15.187
20
12.208
30
0
0
VERTEX
8
RASTER
10
15.428
20
12.544
30
0
0
VERTEX
8
RASTER
10
15.599
20
12.921
30
0
0
VERTEX
8
RASTER
10
15.693
20
13.324
30
0
0
VERTEX
8
RASTER
10
15.707
20
13.738
30
0
0
VERTEX
8
RASTER
10
15.639
20
14.146
30
0
0
VERTEX
8
RASTER
10
15.493
20
14.534
30
0
0
VERTEX
8
RASTER
10
15.275
20
14.885
30
0
0
VERTEX
8
RASTER
10
14.992
20
15.187
30
0
0
VERTEX
8
RASTER
10
14.656
20
15.428
30
0
0
SEQEND
8
RASTER
0
CIRCLE
8
RASTER
10
13.6
20
13.6
30
0
40
1.1
0
POLYLINE
8
CUT
66
1
70
1
0
VERTEX
8
CUT
10
27.2
20
21.2
30
0
0
VERTEX
8
CUT
10
27.231
20
21.669
30
0
0
VERTEX
8
CUT
10
27.325
20
22.075
30
0
0
VERTEX
8
CUT
10
27.481
20
22.419
30
0
0
VERTEX
8
CUT
10
27.7
20
22.7
30
0
0
VERTEX
8
CUT
10
27.981
20
22.919
30
0
0
VERTEX
8
CUT
10
28.325
20
23.075
30
0
0
VERTEX
8
CUT
10
28.731
20
23.169
30
0
0
VERTEX
8
CUT
10
29.2
20
23.2
30
0
0
VERTEX
8
CUT
10
44.4
20
23.2
30
0
0
VERTEX
8
CUT
10
44.869
20
23.169
30
0
0
VERTEX
8
CUT
10
45.275
20
23.075
30
0
0
VERTEX
8
CUT
10
45.619
20
22.919
30
0
0
VERTEX
8
CUT
10
45.9
20
22.7
30
0
0
VERTEX
8
CUT
10
46.119
20
22.419
30
0
0
VERTEX
8
CUT
10
46.275
20
22.075
30
0
0
VERTEX
8
CUT
10
46.369
20
21.669
30
0
0
VERTEX
8
CUT
10
46.4
20
21.2
30
0
0
VERTEX
8
CUT
10
46.4
20
6
30
0
0
VERTEX
8
CUT
10
46.369
20
5.531
30
0
0
VERTEX
8
CUT
10
46.275
20
5.125
30
0
0
VERTEX
8
CUT
10
46.119
20
4.781
30
0
0
VERTEX
8
CUT
10
45.9
20
4.5
30
0
0
VERTEX
8
CUT
10
45.619
20
4.281
30
0
0
VERTEX
8
CUT
10
45.275
20
4.125
30
0
0
VERTEX
8
CUT
10
44.869
20
4.031
30
0
0
VERTEX
8
CUT
10
44.4
20
4
30
0
0
VERTEX
8
CUT
10
29.2
20
4
30
0
0
VERTEX
8
CUT
10
28.731
20
4.031
30
0
0
VERTEX
8
CUT
10
28.325
20
4.125
30
0
0
VERTEX
8
CUT
10
27.981
20
4.281
30
0
0
VERTEX
8
CUT
10
27.7
20
4.5
30
0
0
VERTEX
8
CUT
10
27.481
20
4.781
30
0
0
VERTEX
8
CUT
10
27.325
20
5.125
30
0
0
VERTEX
8
CUT
10
27.231
20
5.531
30
0
0
VERTEX
8
CUT
10
27.2
20
6
30
0
0
SEQEND
8
CUT
0
POLYLINE
8
RASTER
66
1
70
1
0
VERTEX
8
RASTER
10
44.895
20
10.654
30
0
0
VERTEX
8
RASTER
10
44.164
20
9.131
30
0
0
VERTEX
8
RASTER
10
43.151
20
7.78
30
0
0
VERTEX
8
RASTER
10
41.894
20
6.653
30
0
0
VERTEX
8
RASTER
10
40.44
20
5.793
30
0
0
VERTEX
8
RASTER
10
38.847
20
5.233
30
0
0
VERTEX
8
RASTER
10
37.176
20
4.994
30
0
0
VERTEX
8
RASTER
10
35.49
20
5.086
30
0
0
VERTEX
8
RASTER
10
33.854
20
5.505
30
0
0
VERTEX
8
RASTER
10
32.331
20
6.236
30
0
0
VERTEX
8
RASTER
10
30.98
20
7.249
30
0
0
VERTEX
8
RASTER
10
29.853
20
8.506
30
0
0
VERTEX
8
RASTER
10
28.993
20
9.96
30
0
0
VERTEX
8
RASTER
10
28.433
20
11.553
30
0
0
VERTEX
8
RASTER
10
28.194
20
13.224
30
0
0
VERTEX
8
RASTER
10
28.286
20
14.91
30
0
0
VERTEX
8
RASTER
10
28.705
20
16.546
30
0
0
VERTEX
8
RASTER
10
29.436
20
18.069
30
0
0
VERTEX
8
RASTER
10
30.449
20
19.42
30
0
0
VERTEX
8
RASTER
10
31.706
20
20.547
30
0
0
VERTEX
8
RASTER
10
33.16
20
21.407
30
0
0
VERTEX
8
RASTER
10
34.753
20
21.967
30
0
0
VERTEX
8
RASTER
10
36.424
20
22.206
30
0
0
VERTEX
8
RASTER
10
38.11
20
22.114
30
0
0
VERTEX
8
RASTER
10
39.746
20
21.695
30
0
0
VERTEX
8
RASTER
10
39.37
20
20.661
30
0
0
VERTEX
8
RASTER
10
37.943
20
21.027
30
0
0
VERTEX
8
RASTER
10
36.472
20
21.107
30
0
0
VERTEX
8
RASTER
10
35.014
20
20.899
30
0
0
VERTEX
8
RASTER
10
33.624
20
20.41
30
0
0
VERTEX
8
RASTER
10
32.357
20
19.66
30
0
0
VERTEX
8
RASTER
10
31.26
20
18.676
30
0
0
VERTEX
8
RASTER
10
30.376
20
17.498
30
0
0
VERTEX
8
RASTER
10
29.739
20
16.17
30
0
0
VERTEX
8
RASTER
10
29.373
20
14.743
30
0
0
VERTEX
8
RASTER
10
29.293
20
13.272
30
0
0
VERTEX
8
RASTER
10
29.501
20
11.814
30
0
0
VERTEX
8
RASTER
10
29.99
20
10.424
30
0
0
VERTEX
8
RASTER
10
30.74
20
9.157
30
0
0
VERTEX
8
RASTER
10
31.724
20
8.06
30
0
0
VERTEX
8
RASTER
10
32.902
20
7.176
30
0
0
VERTEX
8
RASTER
10
34.23
20
6.539
30
0
0
VERTEX
8
RASTER
10
35.657
20
6.173
30
0
0
VERTEX
8
RASTER
10
37.128
20
6.093
30
0
0
VERTEX
8
RASTER
10
38.586
20
6.301
30
0
0
VERTEX
8
RASTER
10
39.976
20
6.79
30
0
0
VERTEX
8
RASTER
10
41.243
20
7.54
30
0
0
VERTEX
8
RASTER
10
42.34
20
8.524
30
0
0
VERTEX
8
RASTER
10
43.224
20
9.702
30
0
0
VERTEX
8
RASTER
10
43.861
20
11.03
30
0
0
SEQEND
8
RASTER
0
POLYLINE
8
RASTER
66
1
70
1
0
VERTEX
8
RASTER
10
31.282
20
11.592
30
0
0
VERTEX
8
RASTER
10
30.996
20
12.707
30
0
0
VERTEX
8
RASTER
10
30.933
20
13.856
30
0
0
VERTEX
8
RASTER
10
31.096
20
14.996
30
0
0
VERTEX
8
RASTER
10
31.478
20
16.082
30
0
0
VERTEX
8
RASTER
10
32.064
20
17.072
30
0
0
VERTEX
8
RASTER
10
32.833
20
17.929
30
0
0
VERTEX
8
RASTER
10
33.754
20
18.62
30
0
0
VERTEX
8
RASTER
10
34.792
20
19.118
30
0
0
VERTEX
8
RASTER
10
35.907
20
19.404
30
0
0
VERTEX
8
RASTER
10
37.056
20
19.467
30
0
0
VERTEX
8
RASTER
10
38.196
20
19.304
30
0
0
VERTEX
8
RASTER
10
39.282
20
18.922
30
0
0
VERTEX
8
RASTER
10
40.272
20
18.336
30
0
0
VERTEX
8
RASTER
10
41.129
20
17.567
30
0
0
VERTEX
8
RASTER
10
41.82
20
16.646
30
0
0
VERTEX
8
RASTER
10
42.318
20
15.608
30
0
0
VERTEX
8
RASTER
10
42.604
20
14.493
30
0
0
VERTEX
8
RASTER
10
42.667
20
13.344
30
0
0
VERTEX
8
RASTER
10
42.504
20
12.204
30
0
0
VERTEX
8
RASTER
10
42.122
20
11.118
30
0
0
VERTEX
8
RASTER
10
41.536
20
10.128
30
0
0
VERTEX
8
RASTER
10
40.767
20
9.271
30
0
0
VERTEX
8
RASTER
10
39.846
20
8.58
30
0
0
VERTEX
8
RASTER
10
38.808
20
8.082
30
0
0
VERTEX
8
RASTER
10
38.432
20
9.116
30
0
0
VERTEX
8
RASTER
10
39.276
20
9.52
30
0
0
VERTEX
8
RASTER
10
40.024
20
10.082
30
0
0
VERTEX
8
RASTER
10
40.649
20
10.778
30
0
0
VERTEX
8
RASTER
10
41.125
20
11.583
30
0
0
VERTEX
8
RASTER
10
41.435
20
12.466
30
0
0
VERTEX
8
RASTER
10
41.568
20
13.392
30
0
0
VERTEX
8
RASTER
10
41.517
20
14.326
30
0
0
VERTEX
8
RASTER
10
41.284
20
15.232
30
0
0
VERTEX
8
RASTER
10
40.88
20
16.076
30
0
0
VERTEX
8
RASTER
10
40.318
20
16.824
30
0
0
VERTEX
8
RASTER
10
39.622
20
17.449
30
0
0
VERTEX
8
RASTER
10
38.817
20
17.925
30
0
0
VERTEX
8
RASTER
10
37.934
20
18.235
30
0
0
VERTEX
8
RASTER
10
37.008
20
18.368
30
0
0
VERTEX
8
RASTER
10
36.074
20
18.317
30
0
0
VERTEX
8
RASTER
10
35.168
20
18.084
30
0
0
VERTEX
8
RASTER
10
34.324
20
17.68
30
0
0
VERTEX
8
RASTER
10
33.576
20
17.118
30
0
0
VERTEX
8
RASTER
10
32.951
20
16.422
30
0
0
VERTEX
8
RASTER
10
32.475
20
15.617
30
0
0
VERTEX
8
RASTER
10
32.165
20
14.734
30
0
0
VERTEX
8
RASTER
10
32.032
20
13.808
30
0
0
VERTEX
8
RASTER
10
32.083
20
12.874
30
0
0
VERTEX
8
RASTER
10
32.316
20
11.968
30
0
0
SEQEND
8
RASTER
0
POLYLINE
8
RASTER
66
1
70
1
0
VERTEX
8
RASTER
10
38.406
20
16.381
30
0
0
VERTEX
8
RASTER
10
38.917
20
16.014
30
0
0
VERTEX
8
RASTER
10
39.348
20
15.555
30
0
0
VERTEX
8
RASTER
10
39.68
20
15.02
30
0
0
VERTEX
8
RASTER
10
39.902
20
14.431
30
0
0
VERTEX
8
RASTER
10
40.004
20
13.81
30
0
0
VERTEX
8
RASTER
10
39.984
20
13.181
30
0
0
VERTEX
8
RASTER
10
39.841
20
12.568
30
0
0
VERTEX
8
RASTER
10
39.581
20
11.994
30
0
0
VERTEX
8
RASTER
10
39.214
20
11.483
30
0
0
VERTEX
8
RASTER
10
38.755
20
11.052
30
0
0
VERTEX
8
RASTER
10
38.22
20
10.72
30
0
0
VERTEX
8
RASTER
10
37.631
20
10.498
30
0
0
VERTEX
8
RASTER
10
37.01
20
10.396
30
0
0
VERTEX
8
RASTER
10
36.381
20
10.416
30
0
0
VERTEX
8
RASTER
10
35.768
20
10.559
30
0
0
VERTEX
8
RASTER
10
35.194
20
10.819
30
0
0
VERTEX
8
RASTER
10
34.683
20
11.186
30
0
0
VERTEX
8
RASTER
10
34.252
20
11.645
30
0
0
VERTEX
8
RASTER
10
33.92
20
12.18
30
0
0
VERTEX
8
RASTER
10
33.698
20
12.769
30
0
0
VERTEX
8
RASTER
10
33.596
20
13.39
30
0
0
VERTEX
8
RASTER
10
33.616
20
14.019
30
0
0
VERTEX
8
RASTER
10
33.759
20
14.632
30
0
0
VERTEX
8
RASTER
10
34.019
20
15.206
30
0
0
VERTEX
8
RASTER
10
34.972
20
14.656
30
0
0
VERTEX
8
RASTER
10
34.801
20
14.279
30
0
0
VERTEX
8
RASTER
10
34.707
20
13.876
30
0
0
VERTEX
8
RASTER
10
34.693
20
13.462
30
0
0
VERTEX
8
RASTER
10
34.761
20
13.054
30
0
0
VERTEX
8
RASTER
10
34.907
20
12.666
30
0
0
VERTEX
8
RASTER
10
35.125
20
12.315
30
0
0
VERTEX
8
RASTER
10
35.408
20
12.013
30
0
0
VERTEX
8
RASTER
10
35.744
20
11.772
30
0
0
VERTEX
8
RASTER
10
36.121
20
11.601
30
0
0
VERTEX
8
RASTER
10
36.524
20
11.507
30
0
0
VERTEX
8
RASTER
10
36.938
20
11.493
30
0
0
VERTEX
8
RASTER
10
37.346
20
11.561
30
0
0
VERTEX
8
RASTER
10
37.734
20
11.707
30
0
0
VERTEX
8
RASTER
10
38.085
20
11.925
30
0
0
VERTEX
8
RASTER
10
38.387
20
12.208
30
0
0
VERTEX
8
RASTER
10
38.628
20
12.544
30
0
0
VERTEX
8
RASTER
10
38.799
20
12.921
30
0
0
VERTEX
8
RASTER
10
38.893
20
13.324
30
0
0
VERTEX
8
RASTER
10
38.907
20
13.738
30
0
0
VERTEX
8
RASTER
10
38.839
20
14.146
30
0
0
VERTEX
8
RASTER
10
38.693
20
14.534
30
0
0
VERTEX
8
RASTER
10
38.475
20
14.885
30
0
0
VERTEX
8
RASTER
10
38.192
20
15.187
30
0
0
VERTEX
8
RASTER
10
37.856
20
15.428
30
0
0
SEQEND
8
RASTER
0
CIRCLE
8
RASTER
10
36.8
20
13.6
30
0
40
1.1
0
POLYLINE
8
CUT
66
1
70
1
0
VERTEX
8
CUT
10
50.4
20
21.2
30
0
0
VERTEX
8
CUT
10
50.431
20
21.669
30
0
0
VERTEX
8
CUT
10
50.525
20
22.075
30
0
0
VERTEX
8
CUT
10
50.681
20
22.419
30
0
0
VERTEX
8
CUT
10
50.9
20
22.7
30
0
0
VERTEX
8
CUT
10
51.181
20
22.919
30
0
0
VERTEX
8
CUT
10
51.525
20
23.075
30
0
0
VERTEX
8
CUT
10
51.931
20
23.169
30
0
0
VERTEX
8
CUT
10
52.4
20
23.2
30
0
0
VERTEX
8
CUT
10
67.6
20
23.2
30
0
0
VERTEX
8
CUT
10
68.069
20
23.169
30
0
0
VERTEX
8
CUT
10
68.475
20
23.075
30
0
0
VERTEX
8
CUT
10
68.819
20
22.919
30
0
0
VERTEX
8
CUT
10
69.1
20
22.7
30
0
0
VERTEX
8
CUT
10
69.319
20
22.419
30
0
0
VERTEX
8
CUT
10
69.475
20
22.075
30
0
0
VERTEX
8
CUT
10
69.569
20
21.669
30
0
0
VERTEX
8
CUT
10
69.6
20
21.2
30
0
0
VERTEX
8
CUT
10
69.6
20
6
30
0
0
VERTEX
8
CUT
10
69.569
20
5.531
30
0
0
VERTEX
8
CUT
10
69.475
20
5.125
30
0
0
VERTEX
8
CUT
10
69.319
20
4.781
30
0
0
VERTEX
8
CUT
10
69.1
20
4.5
30
0
0
VERTEX
8
CUT
10
68.819
20
4.281
30
0
0
VERTEX
8
CUT
10
68.475
20
4.125
30
0
0
VERTEX
8
CUT
10
68.069
20
4.031
30
0
0
VERTEX
8
CUT
10
67.6
20
4
30
0
0
VERTEX
8
CUT
10
52.4
20
4
30
0
0
VERTEX
8
CUT
10
51.931
20
4.031
30
0
0
VERTEX
8
CUT
10
51.525
20
4.125
30
0
0
VERTEX
8
CUT
10
51.181
20
4.281
30
0
0
VERTEX
8
CUT
10
50.9
20
4.5
30
0
0
VERTEX
8
CUT
10
50.681
20
4.781
30
0
0
VERTEX
8
CUT
10
50.525
20
5.125
30
0
0
VERTEX
8
CUT
10
50.431
20
5.531
30
0
0
VERTEX
8
CUT
10
50.4
20
6
30
0
0
SEQEND
8
CUT
0
POLYLINE
8
RASTER
66
1
70
1
0
VERTEX
8
RASTER
10
68.095
20
10.654
30
0
0
VERTEX
8
RASTER
10
67.364
20
9.131
30
0
0
VERTEX
8
RASTER
10
66.351
20
7.78
30
0
0
VERTEX
8
RASTER
10
65.094
20
6.653
30
0
0
VERTEX
8
RASTER
10
63.64
20
5.793
30
0
0
VERTEX
8
RASTER
10
62.047
20
5.233
30
0
0
VERTEX
8
RASTER
10
60.376
20
4.994
30
0
0
VERTEX
8
RASTER
10
58.69
20
5.086
30
0
0
VERTEX
8
RASTER
10
57.054
20
5.505
30
0
0
VERTEX
8
RASTER
10
55.531
20
6.236
30
0
0
VERTEX
8
RASTER
10
54.18
20
7.249
30
0
0
VERTEX
8
RASTER
10
53.053
20
8.506
30
0
0
VERTEX
8
RASTER
10
52.193
20
9.96
30
0
0
VERTEX
8
RASTER
10
51.633
20
11.553
30
0
0
VERTEX
8
RASTER
10
51.394
20
13.224
30
0
0
VERTEX
8
RASTER
10
51.486
20
14.91
30
0
0
VERTEX
8
RASTER
10
51.905
20
16.546
30
0
0
VERTEX
8
RASTER
10
52.636
20
18.069
30
0
0
VERTEX
8
RASTER
10
53.649
20
19.42
30
0
0
VERTEX
8
RASTER
10
54.906
20
20.547
30
0
0
VERTEX
8
RASTER
10
56.36
20
21.407
30
0
0
VERTEX
8
RASTER
10
57.953
20
21.967
30
0
0
VERTEX
8
RASTER
10
59.624
20
22.206
30
0
0
VERTEX
8
RASTER
10
61.31
20
22.114
30
0
0
VERTEX
8
RASTER
10
62.946
20
21.695
30
0
0
VERTEX
8
RASTER
10
62.57
20
20.661
30
0
0
VERTEX
8
RASTER
10
61.143
20
21.027
30
0
0
VERTEX
8
RASTER
10
59.672
20
21.107
30
0
0
VERTEX
8
RASTER
10
58.214
20
20.899
30
0
0
VERTEX
8
RASTER
10
56.824
20
20.41
30
0
0
VERTEX
8
RASTER
10
55.557
20
19.66
30
0
0
VERTEX
8
RASTER
10
54.46
20
18.676
30
0
0
VERTEX
8
RASTER
10
53.576
20
17.498
30
0
0
VERTEX
8
RASTER
10
52.939
20
16.17
30
0
0
VERTEX
8
RASTER
10
52.573
20
14.743
30
0
0
VERTEX
8
RASTER
10
52.493
20
13.272
30
0
0
VERTEX
8
RASTER
10
52.701
20
11.814
30
0
0
VERTEX
8
RASTER
10
53.19
20
10.424
30
0
0
VERTEX
8
RASTER
10
53.94
20
9.157
30
0
0
VERTEX
8
RASTER
10
54.924
20
8.06
30
0
0
VERTEX
8
RASTER
10
56.102
20
7.176
30
0
0
VERTEX
8
RASTER
10
57.43
20
6.539
30
0
0
VERTEX
8
RASTER
10
58.857
20
6.173
30
0
0
VERTEX
8
RASTER
10
60.328
20
6.093
30
0
0
VERTEX
8
RASTER
10
61.786
20
6.301
30
0
0
VERTEX
8
RASTER
10
63.176
20
6.79
30
0
0
VERTEX
8
RASTER
10
64.443
20
7.54
30
0
0
VERTEX
8
RASTER
10
65.54
20
8.524
30
0
0
VERTEX
8
RASTER
10
66.424
20
9.702
30
0
0
VERTEX
8
RASTER
10
67.061
20
11.03
30
0
0
SEQEND
8
RASTER
0
POLYLINE
8
RASTER
66
1
70
1
0
VERTEX
8
RASTER
10
54.482
20
11.592
30
0
0
VERTEX
8
RASTER
10
54.196
20
12.707
30
0
0
VERTEX
8
RASTER
10
54.133
20
13.856
30
0
0
VERTEX
8
RASTER
10
54.296
20
14.996
30
0
0
VERTEX
8
RASTER
10
54.678
20
16.082
30
0
0
VERTEX
8
RASTER
10
55.264
20
17.072
30
0
0
VERTEX
8
RASTER
10
56.033
20
17.929
30
0
0
VERTEX
8
RASTER
10
56.954
20
18.62
30
0
0
VERTEX
8
RASTER
10
57.992
20
19.118
30
0
0
VERTEX
8
RASTER
10
59.107
20
19.404
30
0
0
VERTEX
8
RASTER
10
60.256
20
19.467
30
0
0
VERTEX
8
RASTER
10
61.396
20
19.304
30
0
0
VERTEX
8
RASTER
10
62.482
20
18.922
30
0
0
VERTEX
8
RASTER
10
63.472
20
18.336
30
0
0
VERTEX
8
RASTER
10
64.329
20
17.567
30
0
0
VERTEX
8
RASTER
10
65.02
20
16.646
30
0
0
VERTEX
8
RASTER
10
65.518
20
15.608
30
0
0
VERTEX
8
RASTER
10
65.804
20
14.493
30
0
0
VERTEX
8
RASTER
10
65.867
20
13.344
30
0
0
VERTEX
8
RASTER
10
65.704
20
12.204
30
0
0
VERTEX
8
RASTER
10
65.322
20
11.118
30
0
0
VERTEX
8
RASTER
10
64.736
20
10.128
30
0
0
VERTEX
8
RASTER
10
63.967
20
9.271
30
0
0
VERTEX
8
RASTER
10
63.046
20
8.58
30
0
0
VERTEX
8
RASTER
10
62.008
20
8.082
30
0
0
VERTEX
8
RASTER
10
61.632
20
9.116
30
0
0
VERTEX
8
RASTER
10
62.476
20
9.52
30
0
0
VERTEX
8
RASTER
10
63.224
20
10.082
30
0
0
VERTEX
8
RASTER
10
63.849
20
10.778
30
0
0
VERTEX
8
RASTER
10
64.325
20
11.583
30
0
0
VERTEX
8
RASTER
10
64.635
20
12.466
30
0
0
VERTEX
8
RASTER
10
64.768
20
13.392
30
0
0
VERTEX
8
RASTER
10
64.717
20
14.326
30
0
0
VERTEX
8
RASTER
10
64.484
20
15.232
30
0
0
VERTEX
8
RASTER
10
64.08
20
16.076
30
0
0
VERTEX
8
RASTER
10
63.518
20
16.824
30
0
0
VERTEX
8
RASTER
10
62.822
20
17.449
30
0
0
VERTEX
8
RASTER
10
62.017
20
17.925
30
0
0
VERTEX
8
RASTER
10
61.134
20
18.235
30
0
0
VERTEX
8
RASTER
10
60.208
20
18.368
30
0
0
VERTEX
8
RASTER
10
59.274
20
18.317
30
0
0
VERTEX
8
RASTER
10
58.368
20
18.084
30
0
0
VERTEX
8
RASTER
10
57.524
20
17.68
30
0
0
VERTEX
8
RASTER
10
56.776
20
17.118
30
0
0
VERTEX
8
RASTER
10
56.151
20
16.422
30
0
0
VERTEX
8
RASTER
10
55.675
20
15.617
30
0
0
VERTEX
8
RASTER
10
55.365
20
14.734
30
0
0
VERTEX
8
RASTER
10
55.232
20
13.808
30
0
0
VERTEX
8
RASTER
10
55.283
20
12.874
30
0
0
VERTEX
8
RASTER
10
55.516
20
11.968
30
0
0
SEQEND
8
RASTER
0
POLYLINE
8
RASTER
66
1
70
1
0
VERTEX
8
RASTER
10
61.606
20
16.381
30
0
0
VERTEX
8
RASTER
10
62.117
20
16.014
30
0
0
VERTEX
8
RASTER
10
62.548
20
15.555
30
0
0
VERTEX
8
RASTER
10
62.88
20
15.02
30
0
0
VERTEX
8
RASTER
10
63.102
20
14.431
30
0
0
VERTEX
8
RASTER
10
63.204
20
13.81
30
0
0
VERTEX
8
RASTER
10
63.184
20
13.181
30
0
0
VERTEX
8
RASTER
10
63.041
20
12.568
30
0
0
VERTEX
8
RASTER
10
62.781
20
11.994
30
0
0
VERTEX
8
RASTER
10
62.414
20
11.483
30
0
0
VERTEX
8
RASTER
10
61.955
20
11.052
30
0
0
VERTEX
8
RASTER
10
61.42
20
10.72
30
0
0
VERTEX
8
RASTER
10
60.831
20
10.498
30
0
0
VERTEX
8
RASTER
10
60.21
20
10.396
30
0
0
VERTEX
8
RASTER
10
59.581
20
10.416
30
0
0
VERTEX
8
RASTER
10
58.968
20
10.559
30
0
0
VERTEX
8
RASTER
10
58.394
20
10.819
30
0
0
VERTEX
8
RASTER
10
57.883
20
11.186
30
0
0
VERTEX
8
RASTER
10
57.452
20
11.645
30
0
0
VERTEX
8
RASTER
10
57.12
20
12.18
30
0
0
VERTEX
8
RASTER
10
56.898
20
12.769
30
0
0
VERTEX
8
RASTER
10
56.796
20
13.39
30
0
0
VERTEX
8
RASTER
10
56.816
20
14.019
30
0
0
VERTEX
8
RASTER
10
56.959
20
14.632
30
0
0
VERTEX
8
RASTER
10
57.219
20
15.206
30
0
0
VERTEX
8
RASTER
10
58.172
20
14.656
30
0
0
VERTEX
8
RASTER
10
58.001
20
14.279
30
0
0
VERTEX
8
RASTER
10
57.907
20
13.876
30
0
0
VERTEX
8
RASTER
10
57.893
20
13.462
30
0
0
VERTEX
8
RASTER
10
57.961
20
13.054
30
0
0
VERTEX
8
RASTER
10
58.107
20
12.666
30
0
0
VERTEX
8
RASTER
10
58.325
20
12.315
30
0
0
VERTEX
8
RASTER
10
58.608
20
12.013
30
0
0
VERTEX
8
RASTER
10
58.944
20
11.772
30
0
0
VERTEX
8
RASTER
10
59.321
20
11.601
30
0
0
VERTEX
8
RASTER
10
59.724
20
11.507
30
0
0
VERTEX
8
RASTER
10
60.138
20
11.493
30
0
0
VERTEX
8
RASTER
10
60.546
20
11.561
30
0
0
VERTEX
8
RASTER
10
60.934
20
11.707
30
0
0
VERTEX
8
RASTER
10
61.285
20
11.925
30
0
0
VERTEX
8
RASTER
10
61.587
20
12.208
30
0
0
VERTEX
8
RASTER
10
61.828
20
12.544
30
0
0
VERTEX
8
RASTER
10
61.999
20
12.921
30
0
0
VERTEX
8
RASTER
10
62.093
20
13.324
30
0
0
VERTEX
8
RASTER
10
62.107
20
13.738
30
0
0
VERTEX
8
RASTER
10
62.039
20
14.146
30
0
0
VERTEX
8
RASTER
10
61.893
20
14.534
30
0
0
VERTEX
8
RASTER
10
61.675
20
14.885
30
0
0
VERTEX
8
RASTER
10
61.392
20
15.187
30
0
0
VERTEX
8
RASTER
10
61.056
20
15.428
30
0
0
SEQEND
8
RASTER
0
CIRCLE
8
RASTER
10
60
20
13.6
30
0
40
1.1
0
POLYLINE
8
CUT
66
1
70
1
0
VERTEX
8
CUT
10
73.6
20
21.2
30
0
0
VERTEX
8
CUT
10
73.631
20
21.669
30
0
0
VERTEX
8
CUT
10
73.725
20
22.075
30
0
0
VERTEX
8
CUT
10
73.881
20
22.419
30
0
0
VERTEX
8
CUT
10
74.1
20
22.7
30
0
0
VERTEX
8
CUT
10
74.381
20
22.919
30
0
0
VERTEX
8
CUT
10
74.725
20
23.075
30
0
0
VERTEX
8
CUT
10
75.131
20
23.169
30
0
0
VERTEX
8
CUT
10
75.6
20
23.2
30
0
0
VERTEX
8
CUT
10
90.8
20
23.2
30
0
0
VERTEX
8
CUT
10
91.269
20
23.169
30
0
0
VERTEX
8
CUT
10
91.675
20
23.075
30
0
0
VERTEX
8
CUT
10
92.019
20
22.919
30
0
0
VERTEX
8
CUT
10
92.3
20
22.7
30
0
0
VERTEX
8
CUT
10
92.519
20
22.419
30
0
0
VERTEX
8
CUT
10
92.675
20
22.075
30
0
0
VERTEX
8
CUT
10
92.769
20
21.669
30
0
0
VERTEX
8
CUT
10
92.8
20
21.2
30
0
0
VERTEX
8
CUT
10
92.8
20
6
30
0
0
VERTEX
8
CUT
10
92.769
20
5.531
30
0
0
VERTEX
8
CUT
10
92.675
20
5.125
30
0
0
VERTEX
8
CUT
10
92.519
20
4.781
30
0
0
VERTEX
8
CUT
10
92.3
20
4.5
30
0
0
VERTEX
8
CUT
10
92.019
20
4.281
30
0
0
VERTEX
8
CUT
10
91.675
20
4.125
30
0
0
VERTEX
8
CUT
10
91.269
20
4.031
30
0
0
VERTEX
8
CUT
10
90.8
20
4
30
0
0
VERTEX
8
CUT
10
75.6
20
4
30
0
0
VERTEX
8
CUT
10
75.131
20
4.031
30
0
0
VERTEX
8
CUT
10
74.725
20
4.125
30
0
0
VERTEX
8
CUT
10
74.381
20
4.281
30
0
0
VERTEX
8
CUT
10
74.1
20
4.5
30
0
0
VERTEX
8
CUT
10
73.881
20
4.781
30
0
0
VERTEX
8
CUT
10
73.725
20
5.125
30
0
0
VERTEX
8
CUT
10
73.631
20
5.531
30
0
0
VERTEX
8
CUT
10
73.6
20
6
30
0
0
SEQEND
8
CUT
0
POLYLINE
8
RASTER
66
1
70
1
0
VERTEX
8
RASTER
10
91.295
20
10.654
30
0
0
VERTEX
8
RASTER
10
90.564
20
9.131
30
0
0
VERTEX
8
RASTER
10
89.551
20
7.78
30
0
0
VERTEX
8
RASTER
10
88.294
20
6.653
30
0
0
VERTEX
8
RASTER
10
86.84
20
5.793
30
0
0
VERTEX
8
RASTER
10
85.247
20
5.233
30
0
0
VERTEX
8
RASTER
10
83.576
20
4.994
30
0
0
VERTEX
8
RASTER
10
81.89
20
5.086
30
0
0
VERTEX
8
RASTER
10
80.254
20
5.505
30
0
0
VERTEX
8
RASTER
10
78.731
20
6.236
30
0
0
VERTEX
8
RASTER
10
77.38
20
7.249
30
0
0
VERTEX
8
RASTER
10
76.253
20
8.506
30
0
0
VERTEX
8
RASTER
10
75.393
20
9.96
30
0
0
VERTEX
8
RASTER
10
74.833
20
11.553
30
0
0
VERTEX
8
RASTER
10
74.594
20
13.224
30
0
0
VERTEX
8
RASTER
10
74.686
20
14.91
30
0
0
VERTEX
8
RASTER
10
75.105
20
16.546
30
0
0
VERTEX
8
RASTER
10
75.836
20
18.069
30
0
0
VERTEX
8
RASTER
10
76.849
20
19.42
30
0
0
VERTEX
8
RASTER
10
78.106
20
20.547
30
0
0
VERTEX
8
RASTER
10
79.56
20
21.407
30
0
0
VERTEX
8
RASTER
10
81.153
20
21.967
30
0
0
VERTEX
8
RASTER
10
82.824
20
22.206
30
0
0
VERTEX
8
RASTER
10
84.51
20
22.114
30
0
0
VERTEX
8
RASTER
10
86.146
20
21.695
30
0
0
VERTEX
8
RASTER
10
85.77
20
20.661
30
0
0
VERTEX
8
RASTER
10
84.343
20
21.027
30
0
0
VERTEX
8
RASTER
10
82.872
20
21.107
30
0
0
VERTEX
8
RASTER
10
81.414
20
20.899
30
0
0
VERTEX
8
RASTER
10
80.024
20
20.41
30
0
0
VERTEX
8
RASTER
10
78.757
20
19.66
30
0
0
VERTEX
8
RASTER
10
77.66
20
18.676
30
0
0
VERTEX
8
RASTER
10
76.776
20
17.498
30
0
0
VERTEX
8
RASTER
10
76.139
20
16.17
30
0
0
VERTEX
8
RASTER
10
75.773
20
14.743
30
0
0
VERTEX
8
RASTER
10
75.693
20
13.272
30
0
0
VERTEX
8
RASTER
10
75.901
20
11.814
30
0
0
VERTEX
8
RASTER
10
76.39
20
10.424
30
0
0
VERTEX
8
RASTER
10
77.14
20
9.157
30
0
0
VERTEX
8
RASTER
10
78.124
20
8.06
30
0
0
VERTEX
8
RASTER
10
79.302
20
7.176
30
0
0
VERTEX
8
RASTER
10
80.63
20
6.539
30
0
0
VERTEX
8
RASTER
10
82.057
20
6.173
30
0
0
VERTEX
8
RASTER
10
83.528
20
6.093
30
0
0
VERTEX
8
RASTER
10
84.986
20
6.301
30
0
0
VERTEX
8
RASTER
10
86.376
20
6.79
30
0
0
VERTEX
8
RASTER
10
87.643
20
7.54
30
0
0
VERTEX
8
RASTER
10
88.74
20
8.524
30
0
0
VERTEX
8
RASTER
10
89.624
20
9.702
30
0
0
VERTEX
8
RASTER
10
90.261
20
11.03
30
0
0
SEQEND
8
RASTER
0
POLYLINE
8
RASTER
66
1
70
1
0
VERTEX
8
RASTER
10
77.682
20
11.592
30
0
0
VERTEX
8
RASTER
10
77.396
20
12.707
30
0
0
VERTEX
8
RASTER
10
77.333
20
13.856
30
0
0
VERTEX
8
RASTER
10
77.496
20
14.996
30
0
0
VERTEX
8
RASTER
10
77.878
20
16.082
30
0
0
VERTEX
8
RASTER
10
78.464
20
17.072
30
0
0
VERTEX
8
RASTER
10
79.233
20
17.929
30
0
0
VERTEX
8
RASTER
10
80.154
20
18.62
30
0
0
VERTEX
8
RASTER
10
81.192
20
19.118
30
0
0
VERTEX
8
RASTER
10
82.307
20
19.404
30
0
0
VERTEX
8
RASTER
10
83.456
20
19.467
30
0
0
VERTEX
8
RASTER
10
84.596
20
19.304
30
0
0
VERTEX
8
RASTER
10
85.682
20
18.922
30
0
0
VERTEX
8
RASTER
10
86.672
20
18.336
30
0
0
VERTEX
8
RASTER
10
87.529
20
17.567
30
0
0
VERTEX
8
RASTER
10
88.22
20
16.646
30
0
0
VERTEX
8
RASTER
10
88.718
20
15.608
30
0
0
VERTEX
8
RASTER
10
89.004
20
14.493
30
0
0
VERTEX
8
RASTER
10
89.067
20
13.344
30
0
0
VERTEX
8
RASTER
10
88.904
20
12.204
30
0
0
VERTEX
8
RASTER
10
88.522
20
11.118
30
0
0
VERTEX
8
RASTER
10
87.936
20
10.128
30
0
0
VERTEX
8
RASTER
10
87.167
20
9.271
30
0
0
VERTEX
8
RASTER
10
86.246
20
8.58
30
0
0
VERTEX
8
RASTER
10
85.208
20
8.082
30
0
0
VERTEX
8
RASTER
10
84.832
20
9.116
30
0
0
VERTEX
8
RASTER
10
85.676
20
9.52
30
0
0
VERTEX
8
RASTER
10
86.424
20
10.082
30
0
0
VERTEX
8
RASTER
10
87.049
20
10.778
30
0
0
VERTEX
8
RASTER
10
87.525
20
11.583
30
0
0
VERTEX
8
RASTER
10
87.835
20
12.466
30
0
0
VERTEX
8
RASTER
10
87.968
20
13.392
30
0
0
VERTEX
8
RASTER
10
87.917
20
14.326
30
0
0
VERTEX
8
RASTER
10
87.684
20
15.232
30
0
0
VERTEX
8
RASTER
10
87.28
20
16.076
30
0
0
VERTEX
8
RASTER
10
86.718
20
16.824
30
0
0
VERTEX
8
RASTER
10
86.022
20
17.449
30
0
0
VERTEX
8
RASTER
10
85.217
20
17.925
30
0
0
VERTEX
8
RASTER
10
84.334
20
18.235
30
0
0
VERTEX
8
RASTER
10
83.408
20
18.368
30
0
0
VERTEX
8
RASTER
10
82.474
20
18.317
30
0
0
VERTEX
8
RASTER
10
81.568
20
18.084
30
0
0
VERTEX
8
RASTER
10
80.724
20
17.68
30
0
0
VERTEX
8
RASTER
10
79.976
20
17.118
30
0
0
VERTEX
8
RASTER
10
79.351
20
16.422
30
0
0
VERTEX
8
RASTER
10
78.875
20
15.617
30
0
0
VERTEX
8
RASTER
10
78.565
20
14.734
30
0
0
VERTEX
8
RASTER
10
78.432
20
13.808
30
0
0
VERTEX
8
RASTER
10
78.483
20
12.874
30
0
0
VERTEX
8
RASTER
10
78.716
20
11.968
30
0
0
SEQEND
8
RASTER
0
POLYLINE
8
RASTER
66
1
70
1
0
VERTEX
8
RASTER
10
84.806
20
16.381
30
0
0
VERTEX
8
RASTER
10
85.317
20
16.014
30
0
0
VERTEX
8
RASTER
10
85.748
20
15.555
30
0
0
VERTEX
8
RASTER
10
86.08
20
15.02
30
0
0
VERTEX
8
RASTER
10
86.302
20
14.431
30
0
0
VERTEX
8
RASTER
10
86.404
20
13.81
30
0
0
VERTEX
8
RASTER
10
86.384
20
13.181
30
0
0
VERTEX
8
RASTER
10
86.241
20
12.568
30
0
0
VERTEX
8
RASTER
10
85.981
20
11.994
30
0
0
VERTEX
8
RASTER
10
85.614
20
11.483
30
0
0
VERTEX
8
RASTER
10
85.155
20
11.052
30
0
0
VERTEX
8
RASTER
10
84.62
20
10.72
30
0
0
VERTEX
8
RASTER
10
84.031
20
10.498
30
0
0
VERTEX
8
RASTER
10
83.41
20
10.396
30
0
0
VERTEX
8
RASTER
10
82.781
20
10.416
30
0
0
VERTEX
8
RASTER
10
82.168
20
10.559
30
0
0
VERTEX
8
RASTER
10
81.594
20
10.819
30
0
0
VERTEX
8
RASTER
10
81.083
20
11.186
30
0
0
VERTEX
8
RASTER
10
80.652
20
11.645
30
0
0
VERTEX
8
RASTER
10
80.32
20
12.18
30
0
0
VERTEX
8
RASTER
10
80.098
20
12.769
30
0
0
VERTEX
8
RASTER
10
79.996
20
13.39
30
0
0
VERTEX
8
RASTER
10
80.016
20
14.019
30
0
0
VERTEX
8
RASTER
10
80.159
20
14.632
30
0
0
VERTEX
8
RASTER
10
80.419
20
15.206
30
0
0
VERTEX
8
RASTER
10
81.372
20
14.656
30
0
0
VERTEX
8
RASTER
10
81.201
20
14.279
30
0
0
VERTEX
8
RASTER
10
81.107
20
13.876
30
0
0
VERTEX
8
RASTER
10
81.093
20
13.462
30
0
0
VERTEX
8
RASTER
10
81.161
20
13.054
30
0
0
VERTEX
8
RASTER
10
81.307
20
12.666
30
0
0
VERTEX
8
RASTER
10
81.525
20
12.315
30
0
0
VERTEX
8
RASTER
10
81.808
20
12.013
30
0
0
VERTEX
8
RASTER
10
82.144
20
11.772
30
0
0
VERTEX
8
RASTER
10
82.521
20
11.601
30
0
0
VERTEX
8
RASTER
10
82.924
20
11.507
30
0
0
VERTEX
8
RASTER
10
83.338
20
11.493
30
0
0
VERTEX
8
RASTER
10
83.746
20
11.561
30
0
0
VERTEX
8
RASTER
10
84.134
20
11.707
30
0
0
VERTEX
8
RASTER
10
84.485
20
11.925
30
0
0
VERTEX
8
RASTER
10
84.787
20
12.208
30
0
0
VERTEX
8
RASTER
10
85.028
20
12.544
30
0
0
VERTEX
8
RASTER
10
85.199
20
12.921
30
0
0
VERTEX
8
RASTER
10
85.293
20
13.324
30
0
0
VERTEX
8
RASTER
10
85.307
20
13.738
30
0
0
VERTEX
8
RASTER
10
85.239
20
14.146
30
0
0
VERTEX
8
RASTER
10
85.093
20
14.534
30
0
0
VERTEX
8
RASTER
10
84.875
20
14.885
30
0
0
VERTEX
8
RASTER
10
84.592
20
15.187
30
0
0
VERTEX
8
RASTER
10
84.256
20
15.428
30
0
0
SEQEND
8
RASTER
0
CIRCLE
8
RASTER
10
83.2
20
13.6
30
0
40
1.1
0
ENDSEC
0
EOF
