0
SECTION
2
HEADER
9
$ACADVER
1
AC1009
9
$EXTMIN
10
0
20
0
9
$EXTMAX
10
135.6
20
22.8
0
ENDSEC
0
SECTION
2
TABLES
0
TABLE
2
LAYER
70
2
0
LAYER
2
CUT
70
0
62
1
6
CONTINUOUS
0
LAYER
2
RASTER
70
0
62
7
6
CONTINUOUS
0
ENDTAB
0
ENDSEC
0
SECTION
2
ENTITIES
0
CIRCLE
8
CUT
10
11.4
20
11.4
30
0
40
7.4
0
CIRCLE
8
RASTER
10
11.4
20
11.4
30
0
40
6.6
0
CIRCLE
8
RASTER
10
11.4
20
11.4
30
0
40
6
0
POLYLINE
8
RASTER
66
1
70
1
0
VERTEX
8
RASTER
10
11.267
20
9.002
30
0
0
VERTEX
8
RASTER
10
11.533
20
9.002
30
0
0
VERTEX
8
RASTER
10
11.622
20
7.138
30
0
0
VERTEX
8
RASTER
10
11.178
20
7.138
30
0
0
SEQEND
8
RASTER
0
POLYLINE
8
RASTER
66
1
70
1
0
VERTEX
8
RASTER
10
11.844
20
14.863
30
0
0
VERTEX
8
RASTER
10
11.835
20
14.711
30
0
0
VERTEX
8
RASTER
10
11.809
20
14.569
30
0
0
VERTEX
8
RASTER
10
11.768
20
14.441
30
0
0
VERTEX
8
RASTER
10
11.714
20
14.329
30
0
0
VERTEX
8
RASTER
10
11.648
20
14.237
30
0
0
VERTEX
8
RASTER
10
11.573
20
14.168
30
0
0
VERTEX
8
RASTER
10
11.489
20
14.124
30
0
0
VERTEX
8
RASTER
10
11.4
20
14.108
30
0
0
VERTEX
8
RASTER
10
11.311
20
14.124
30
0
0
VERTEX
8
RASTER
10
11.227
20
14.168
30
0
0
VERTEX
8
RASTER
10
11.152
20
14.237
30
0
0
VERTEX
8
RASTER
10
11.086
20
14.329
30
0
0
VERTEX
8
RASTER
10
11.032
20
14.441
30
0
0
VERTEX
8
RASTER
10
10.991
20
14.569
30
0
0
VERTEX
8
RASTER
10
10.965
20
14.711
30
0
0
VERTEX
8
RASTER
10
10.956
20
14.863
30
0
0
VERTEX
8
RASTER
10
10.965
20
15.015
30
0
0
VERTEX
8
RASTER
10
10.991
20
15.157
30
0
0
VERTEX
8
RASTER
10
11.032
20
15.285
30
0
0
VERTEX
8
RASTER
10
11.086
20
15.397
30
0
0
VERTEX
8
RASTER
10
11.152
20
15.489
30
0
0
VERTEX
8
RASTER
10
11.227
20
15.559
30
0
0
VERTEX
8
RASTER
10
11.311
20
15.603
30
0
0
VERTEX
8
RASTER
10
11.4
20
15.618
30
0
0
VERTEX
8
RASTER
10
11.489
20
15.603
30
0
0
VERTEX
8
RASTER
10
11.573
20
15.559
30
0
0
VERTEX
8
RASTER
10
11.648
20
15.489
30
0
0
VERTEX
8
RASTER
10
11.714
20
15.397
30
0
0
VERTEX
8
RASTER
10
11.768
20
15.285
30
0
0
VERTEX
8
RASTER
10
11.809
20
15.157
30
0
0
VERTEX
8
RASTER
10
11.835
20
15.015
30
0
0
VERTEX
8
RASTER
10
11.844
20
14.863
30
0
0
SEQEND
8
RASTER
0
POLYLINE
8
RASTER
66
1
70
1
0
VERTEX
8
RASTER
10
11.113
20
13.598
30
0
0
VERTEX
8
RASTER
10
11.189
20
13.446
30
0
0
VERTEX
8
RASTER
10
11.244
20
13.294
30
0
0
VERTEX
8
RASTER
10
11.276
20
13.148
30
0
0
VERTEX
8
RASTER
10
11.287
20
13.01
30
0
0
VERTEX
8
RASTER
10
11.276
20
12.884
30
0
0
VERTEX
8
RASTER
10
11.243
20
12.775
30
0
0
VERTEX
8
RASTER
10
11.188
20
12.687
30
0
0
VERTEX
8
RASTER
10
11.111
20
12.623
30
0
0
VERTEX
8
RASTER
10
11.018
20
12.589
30
0
0
VERTEX
8
RASTER
10
10.914
20
12.585
30
0
0
VERTEX
8
RASTER
10
10.803
20
12.611
30
0
0
VERTEX
8
RASTER
10
10.689
20
12.664
30
0
0
VERTEX
8
RASTER
10
10.575
20
12.743
30
0
0
VERTEX
8
RASTER
10
10.464
20
12.844
30
0
0
VERTEX
8
RASTER
10
10.36
20
12.967
30
0
0
VERTEX
8
RASTER
10
10.267
20
13.109
30
0
0
VERTEX
8
RASTER
10
10.19
20
13.262
30
0
0
VERTEX
8
RASTER
10
10.136
20
13.413
30
0
0
VERTEX
8
RASTER
10
10.103
20
13.56
30
0
0
VERTEX
8
RASTER
10
10.092
20
13.698
30
0
0
VERTEX
8
RASTER
10
10.103
20
13.823
30
0
0
VERTEX
8
RASTER
10
10.136
20
13.932
30
0
0
VERTEX
8
RASTER
10
10.191
20
14.02
30
0
0
VERTEX
8
RASTER
10
10.268
20
14.084
30
0
0
VERTEX
8
RASTER
10
10.362
20
14.119
30
0
0
VERTEX
8
RASTER
10
10.466
20
14.122
30
0
0
VERTEX
8
RASTER
10
10.576
20
14.096
30
0
0
VERTEX
8
RASTER
10
10.69
20
14.043
30
0
0
VERTEX
8
RASTER
10
10.804
20
13.965
30
0
0
VERTEX
8
RASTER
10
10.915
20
13.863
30
0
0
VERTEX
8
RASTER
10
11.019
20
13.74
30
0
0
VERTEX
8
RASTER
10
11.113
20
13.598
30
0
0
SEQEND
8
RASTER
0
POLYLINE
8
RASTER
66
1
70
1
0
VERTEX
8
RASTER
10
12.533
20
13.109
30
0
0
VERTEX
8
RASTER
10
12.44
20
12.967
30
0
0
VERTEX
8
RASTER
10
12.336
20
12.844
30
0
0
VERTEX
8
RASTER
10
12.225
20
12.743
30
0
0
VERTEX
8
RASTER
10
12.111
20
12.664
30
0
0
VERTEX
8
RASTER
10
11.997
20
12.611
30
0
0
VERTEX
8
RASTER
10
11.886
20
12.585
30
0
0
VERTEX
8
RASTER
10
11.782
20
12.589
30
0
0
VERTEX
8
RASTER
10
11.689
20
12.623
30
0
0
VERTEX
8
RASTER
10
11.612
20
12.687
30
0
0
VERTEX
8
RASTER
10
11.557
20
12.775
30
0
0
VERTEX
8
RASTER
10
11.524
20
12.884
30
0
0
VERTEX
8
RASTER
10
11.513
20
13.01
30
0
0
VERTEX
8
RASTER
10
11.524
20
13.148
30
0
0
VERTEX
8
RASTER
10
11.556
20
13.294
30
0
0
VERTEX
8
RASTER
10
11.611
20
13.446
30
0
0
VERTEX
8
RASTER
10
11.687
20
13.598
30
0
0
VERTEX
8
RASTER
10
11.781
20
13.74
30
0
0
VERTEX
8
RASTER
10
11.885
20
13.863
30
0
0
VERTEX
8
RASTER
10
11.996
20
13.965
30
0
0
VERTEX
8
RASTER
10
12.11
20
14.043
30
0
0
VERTEX
8
RASTER
10
12.224
20
14.096
30
0
0
VERTEX
8
RASTER
10
12.334
20
14.122
30
0
0
VERTEX
8
RASTER
10
12.438
20
14.119
30
0
0
VERTEX
8
RASTER
10
12.532
20
14.084
30
0
0
VERTEX
8
RASTER
10
12.609
20
14.02
30
0
0
VERTEX
8
RASTER
10
12.664
20
13.932
30
0
0
VERTEX
8
RASTER
10
12.697
20
13.823
30
0
0
VERTEX
8
RASTER
10
12.708
20
13.698
30
0
0
VERTEX
8
RASTER
10
12.697
20
13.56
30
0
0
VERTEX
8
RASTER
10
12.664
20
13.413
30
0
0
VERTEX
8
RASTER
10
12.61
20
13.262
30
0
0
VERTEX
8
RASTER
10
12.533
20
13.109
30
0
0
SEQEND
8
RASTER
0
POLYLINE
8
RASTER
66
1
70
1
0
VERTEX
8
RASTER
10
11.113
20
11.911
30
0
0
VERTEX
8
RASTER
10
11.189
20
11.758
30
0
0
VERTEX
8
RASTER
10
11.244
20
11.607
30
0
0
VERTEX
8
RASTER
10
11.276
20
11.46
30
0
0
VERTEX
8
RASTER
10
11.287
20
11.322
30
0
0
VERTEX
8
RASTER
10
11.276
20
11.197
30
0
0
VERTEX
8
RASTER
10
11.243
20
11.088
30
0
0
VERTEX
8
RASTER
10
11.188
20
11
30
0
0
VERTEX
8
RASTER
10
11.111
20
10.936
30
0
0
VERTEX
8
RASTER
10
11.018
20
10.901
30
0
0
VERTEX
8
RASTER
10
10.914
20
10.898
30
0
0
VERTEX
8
RASTER
10
10.803
20
10.924
30
0
0
VERTEX
8
RASTER
10
10.689
20
10.977
30
0
0
VERTEX
8
RASTER
10
10.575
20
11.055
30
0
0
VERTEX
8
RASTER
10
10.464
20
11.157
30
0
0
VERTEX
8
RASTER
10
10.36
20
11.28
30
0
0
VERTEX
8
RASTER
10
10.267
20
11.422
30
0
0
VERTEX
8
RASTER
10
10.19
20
11.574
30
0
0
VERTEX
8
RASTER
10
10.136
20
11.726
30
0
0
VERTEX
8
RASTER
10
10.103
20
11.872
30
0
0
VERTEX
8
RASTER
10
10.092
20
12.01
30
0
0
VERTEX
8
RASTER
10
10.103
20
12.136
30
0
0
VERTEX
8
RASTER
10
10.136
20
12.245
30
0
0
VERTEX
8
RASTER
10
10.191
20
12.333
30
0
0
VERTEX
8
RASTER
10
10.268
20
12.397
30
0
0
VERTEX
8
RASTER
10
10.362
20
12.431
30
0
0
VERTEX
8
RASTER
10
10.466
20
12.435
30
0
0
VERTEX
8
RASTER
10
10.576
20
12.409
30
0
0
VERTEX
8
RASTER
10
10.69
20
12.356
30
0
0
VERTEX
8
RASTER
10
10.804
20
12.277
30
0
0
VERTEX
8
RASTER
10
10.915
20
12.176
30
0
0
VERTEX
8
RASTER
10
11.019
20
12.053
30
0
0
VERTEX
8
RASTER
10
11.113
20
11.911
30
0
0
SEQEND
8
RASTER
0
POLYLINE
8
RASTER
66
1
70
1
0
VERTEX
8
RASTER
10
12.533
20
11.422
30
0
0
VERTEX
8
RASTER
10
12.44
20
11.28
30
0
0
VERTEX
8
RASTER
10
12.336
20
11.157
30
0
0
VERTEX
8
RASTER
10
12.225
20
11.055
30
0
0
VERTEX
8
RASTER
10
12.111
20
10.977
30
0
0
VERTEX
8
RASTER
10
11.997
20
10.924
30
0
0
VERTEX
8
RASTER
10
11.886
20
10.898
30
0
0
VERTEX
8
RASTER
10
11.782
20
10.901
30
0
0
VERTEX
8
RASTER
10
11.689
20
10.936
30
0
0
VERTEX
8
RASTER
10
11.612
20
11
30
0
0
VERTEX
8
RASTER
10
11.557
20
11.088
30
0
0
VERTEX
8
RASTER
10
11.524
20
11.197
30
0
0
VERTEX
8
RASTER
10
11.513
20
11.322
30
0
0
VERTEX
8
RASTER
10
11.524
20
11.46
30
0
0
VERTEX
8
RASTER
10
11.556
20
11.607
30
0
0
VERTEX
8
RASTER
10
11.611
20
11.758
30
0
0
VERTEX
8
RASTER
10
11.687
20
11.911
30
0
0
VERTEX
8
RASTER
10
11.781
20
12.053
30
0
0
VERTEX
8
RASTER
10
11.885
20
12.176
30
0
0
VERTEX
8
RASTER
10
11.996
20
12.277
30
0
0
VERTEX
8
RASTER
10
12.11
20
12.356
30
0
0
VERTEX
8
RASTER
10
12.224
20
12.409
30
0
0
VERTEX
8
RASTER
10
12.334
20
12.435
30
0
0
VERTEX
8
RASTER
10
12.438
20
12.431
30
0
0
VERTEX
8
RASTER
10
12.532
20
12.397
30
0
0
VERTEX
8
RASTER
10
12.609
20
12.333
30
0
0
VERTEX
8
RASTER
10
12.664
20
12.245
30
0
0
VERTEX
8
RASTER
10
12.697
20
12.136
30
0
0
VERTEX
8
RASTER
10
12.708
20
12.01
30
0
0
VERTEX
8
RASTER
10
12.697
20
11.872
30
0
0
VERTEX
8
RASTER
10
12.664
20
11.726
30
0
0
VERTEX
8
RASTER
10
12.61
20
11.574
30
0
0
VERTEX
8
RASTER
10
12.533
20
11.422
30
0
0
SEQEND
8
RASTER
0
POLYLINE
8
RASTER
66
1
70
1
0
VERTEX
8
RASTER
10
11.113
20
10.223
30
0
0
VERTEX
8
RASTER
10
11.189
20
10.071
30
0
0
VERTEX
8
RASTER
10
11.244
20
9.92
30
0
0
VERTEX
8
RASTER
10
11.276
20
9.773
30
0
0
VERTEX
8
RASTER
10
11.287
20
9.635
30
0
0
VERTEX
8
RASTER
10
11.276
20
9.51
30
0
0
VERTEX
8
RASTER
10
11.243
20
9.401
30
0
0
VERTEX
8
RASTER
10
11.188
20
9.313
30
0
0
VERTEX
8
RASTER
10
11.111
20
9.249
30
0
0
VERTEX
8
RASTER
10
11.018
20
9.214
30
0
0
VERTEX
8
RASTER
10
10.914
20
9.211
30
0
0
VERTEX
8
RASTER
10
10.803
20
9.237
30
0
0
VERTEX
8
RASTER
10
10.689
20
9.29
30
0
0
VERTEX
8
RASTER
10
10.575
20
9.368
30
0
0
VERTEX
8
RASTER
10
10.464
20
9.47
30
0
0
VERTEX
8
RASTER
10
10.36
20
9.593
30
0
0
VERTEX
8
RASTER
10
10.267
20
9.735
30
0
0
VERTEX
8
RASTER
10
10.19
20
9.887
30
0
0
VERTEX
8
RASTER
10
10.136
20
10.039
30
0
0
VERTEX
8
RASTER
10
10.103
20
10.185
30
0
0
VERTEX
8
RASTER
10
10.092
20
10.323
30
0
0
VERTEX
8
RASTER
10
10.103
20
10.448
30
0
0
VERTEX
8
RASTER
10
10.136
20
10.557
30
0
0
VERTEX
8
RASTER
10
10.191
20
10.646
30
0
0
VERTEX
8
RASTER
10
10.268
20
10.71
30
0
0
VERTEX
8
RASTER
10
10.362
20
10.744
30
0
0
VERTEX
8
RASTER
10
10.466
20
10.747
30
0
0
VERTEX
8
RASTER
10
10.576
20
10.722
30
0
0
VERTEX
8
RASTER
10
10.69
20
10.668
30
0
0
VERTEX
8
RASTER
10
10.804
20
10.59
30
0
0
VERTEX
8
RASTER
10
10.915
20
10.489
30
0
0
VERTEX
8
RASTER
10
11.019
20
10.366
30
0
0
VERTEX
8
RASTER
10
11.113
20
10.223
30
0
0
SEQEND
8
RASTER
0
POLYLINE
8
RASTER
66
1
70
1
0
VERTEX
8
RASTER
10
12.533
20
9.735
30
0
0
VERTEX
8
RASTER
10
12.44
20
9.593
30
0
0
VERTEX
8
RASTER
10
12.336
20
9.47
30
0
0
VERTEX
8
RASTER
10
12.225
20
9.368
30
0
0
VERTEX
8
RASTER
10
12.111
20
9.29
30
0
0
VERTEX
8
RASTER
10
11.997
20
9.237
30
0
0
VERTEX
8
RASTER
10
11.886
20
9.211
30
0
0
VERTEX
8
RASTER
10
11.782
20
9.214
30
0
0
VERTEX
8
RASTER
10
11.689
20
9.249
30
0
0
VERTEX
8
RASTER
10
11.612
20
9.313
30
0
0
VERTEX
8
RASTER
10
11.557
20
9.401
30
0
0
VERTEX
8
RASTER
10
11.524
20
9.51
30
0
0
VERTEX
8
RASTER
10
11.513
20
9.635
30
0
0
VERTEX
8
RASTER
10
11.524
20
9.773
30
0
0
VERTEX
8
RASTER
10
11.556
20
9.92
30
0
0
VERTEX
8
RASTER
10
11.611
20
10.071
30
0
0
VERTEX
8
RASTER
10
11.687
20
10.223
30
0
0
VERTEX
8
RASTER
10
11.781
20
10.366
30
0
0
VERTEX
8
RASTER
10
11.885
20
10.489
30
0
0
VERTEX
8
RASTER
10
11.996
20
10.59
30
0
0
VERTEX
8
RASTER
10
12.11
20
10.668
30
0
0
VERTEX
8
RASTER
10
12.224
20
10.722
30
0
0
VERTEX
8
RASTER
10
12.334
20
10.747
30
0
0
VERTEX
8
RASTER
10
12.438
20
10.744
30
0
0
VERTEX
8
RASTER
10
12.532
20
10.71
30
0
0
VERTEX
8
RASTER
10
12.609
20
10.646
30
0
0
VERTEX
8
RASTER
10
12.664
20
10.557
30
0
0
VERTEX
8
RASTER
10
12.697
20
10.448
30
0
0
VERTEX
8
RASTER
10
12.708
20
10.323
30
0
0
VERTEX
8
RASTER
10
12.697
20
10.185
30
0
0
VERTEX
8
RASTER
10
12.664
20
10.039
30
0
0
VERTEX
8
RASTER
10
12.61
20
9.887
30
0
0
VERTEX
8
RASTER
10
12.533
20
9.735
30
0
0
SEQEND
8
RASTER
0
CIRCLE
8
CUT
10
30.2
20
11.4
30
0
40
7.4
0
CIRCLE
8
RASTER
10
30.2
20
11.4
30
0
40
6.6
0
CIRCLE
8
RASTER
10
30.2
20
11.4
30
0
40
6
0
POLYLINE
8
RASTER
66
1
70
1
0
VERTEX
8
RASTER
10
29.134
20
13.176
30
0
0
VERTEX
8
RASTER
10
31.266
20
13.176
30
0
0
VERTEX
8
RASTER
10
31.308
20
12.991
30
0
0
VERTEX
8
RASTER
10
31.418
20
12.826
30
0
0
VERTEX
8
RASTER
10
31.575
20
12.67
30
0
0
VERTEX
8
RASTER
10
31.754
20
12.51
30
0
0
VERTEX
8
RASTER
10
31.933
20
12.333
30
0
0
VERTEX
8
RASTER
10
32.09
20
12.127
30
0
0
VERTEX
8
RASTER
10
32.2
20
11.879
30
0
0
VERTEX
8
RASTER
10
32.242
20
11.578
30
0
0
VERTEX
8
RASTER
10
32.242
20
8.203
30
0
0
VERTEX
8
RASTER
10
32.213
20
7.961
30
0
0
VERTEX
8
RASTER
10
32.123
20
7.765
30
0
0
VERTEX
8
RASTER
10
31.971
20
7.61
30
0
0
VERTEX
8
RASTER
10
31.754
20
7.493
30
0
0
VERTEX
8
RASTER
10
31.471
20
7.409
30
0
0
VERTEX
8
RASTER
10
31.119
20
7.354
30
0
0
VERTEX
8
RASTER
10
30.696
20
7.324
30
0
0
VERTEX
8
RASTER
10
30.2
20
7.315
30
0
0
VERTEX
8
RASTER
10
29.704
20
7.324
30
0
0
VERTEX
8
RASTER
10
29.281
20
7.354
30
0
0
VERTEX
8
RASTER
10
28.929
20
7.409
30
0
0
VERTEX
8
RASTER
10
28.646
20
7.493
30
0
0
VERTEX
8
RASTER
10
28.429
20
7.61
30
0
0
VERTEX
8
RASTER
10
28.277
20
7.765
30
0
0
VERTEX
8
RASTER
10
28.187
20
7.961
30
0
0
VERTEX
8
RASTER
10
28.158
20
8.203
30
0
0
VERTEX
8
RASTER
10
28.158
20
11.578
30
0
0
VERTEX
8
RASTER
10
28.2
20
11.879
30
0
0
VERTEX
8
RASTER
10
28.31
20
12.127
30
0
0
VERTEX
8
RASTER
10
28.467
20
12.333
30
0
0
VERTEX
8
RASTER
10
28.646
20
12.51
30
0
0
VERTEX
8
RASTER
10
28.825
20
12.67
30
0
0
VERTEX
8
RASTER
10
28.982
20
12.826
30
0
0
VERTEX
8
RASTER
10
29.092
20
12.991
30
0
0
VERTEX
8
RASTER
10
29.134
20
13.176
30
0
0
SEQEND
8
RASTER
0
POLYLINE
8
RASTER
66
1
70
1
0
VERTEX
8
RASTER
10
28.513
20
10.867
30
0
0
VERTEX
8
RASTER
10
28.513
20
9.624
30
0
0
VERTEX
8
RASTER
10
31.887
20
9.624
30
0
0
VERTEX
8
RASTER
10
31.887
20
10.867
30
0
0
VERTEX
8
RASTER
10
28.513
20
10.867
30
0
0
SEQEND
8
RASTER
0
POLYLINE
8
RASTER
66
1
70
1
0
VERTEX
8
RASTER
10
28.957
20
14.597
30
0
0
VERTEX
8
RASTER
10
28.96
20
14.638
30
0
0
VERTEX
8
RASTER
10
28.968
20
14.675
30
0
0
VERTEX
8
RASTER
10
28.982
20
14.705
30
0
0
VERTEX
8
RASTER
10
29.001
20
14.73
30
0
0
VERTEX
8
RASTER
10
29.026
20
14.749
30
0
0
VERTEX
8
RASTER
10
29.057
20
14.763
30
0
0
VERTEX
8
RASTER
10
29.093
20
14.772
30
0
0
VERTEX
8
RASTER
10
29.134
20
14.774
30
0
0
VERTEX
8
RASTER
10
31.266
20
14.774
30
0
0
VERTEX
8
RASTER
10
31.307
20
14.772
30
0
0
VERTEX
8
RASTER
10
31.343
20
14.763
30
0
0
VERTEX
8
RASTER
10
31.374
20
14.749
30
0
0
VERTEX
8
RASTER
10
31.399
20
14.73
30
0
0
VERTEX
8
RASTER
10
31.418
20
14.705
30
0
0
VERTEX
8
RASTER
10
31.432
20
14.675
30
0
0
VERTEX
8
RASTER
10
31.44
20
14.638
30
0
0
VERTEX
8
RASTER
10
31.443
20
14.597
30
0
0
VERTEX
8
RASTER
10
31.443
20
14.242
30
0
0
VERTEX
8
RASTER
10
31.44
20
14.2
30
0
0
VERTEX
8
RASTER
10
31.432
20
14.164
30
0
0
VERTEX
8
RASTER
10
31.418
20
14.133
30
0
0
VERTEX
8
RASTER
10
31.399
20
14.108
30
0
0
VERTEX
8
RASTER
10
31.374
20
14.089
30
0
0
VERTEX
8
RASTER
10
31.343
20
14.075
30
0
0
VERTEX
8
RASTER
10
31.307
20
14.067
30
0
0
VERTEX
8
RASTER
10
31.266
20
14.064
30
0
0
VERTEX
8
RASTER
10
29.134
20
14.064
30
0
0
VERTEX
8
RASTER
10
29.093
20
14.067
30
0
0
VERTEX
8
RASTER
10
29.057
20
14.075
30
0
0
VERTEX
8
RASTER
10
29.026
20
14.089
30
0
0
VERTEX
8
RASTER
10
29.001
20
14.108
30
0
0
VERTEX
8
RASTER
10
28.982
20
14.133
30
0
0
VERTEX
8
RASTER
10
28.968
20
14.164
30
0
0
VERTEX
8
RASTER
10
28.96
20
14.2
30
0
0
VERTEX
8
RASTER
10
28.957
20
14.242
30
0
0
SEQEND
8
RASTER
0
POLYLINE
8
RASTER
66
1
70
1
0
VERTEX
8
RASTER
10
29.134
20
13.975
30
0
0
VERTEX
8
RASTER
10
31.266
20
13.975
30
0
0
VERTEX
8
RASTER
10
31.266
20
13.354
30
0
0
VERTEX
8
RASTER
10
29.134
20
13.354
30
0
0
SEQEND
8
RASTER
0
CIRCLE
8
CUT
10
49
20
11.4
30
0
40
7.4
0
CIRCLE
8
RASTER
10
49
20
11.4
30
0
40
6.6
0
CIRCLE
8
RASTER
10
49
20
11.4
30
0
40
6
0
POLYLINE
8
RASTER
66
1
70
1
0
VERTEX
8
RASTER
10
47.757
20
13.833
30
0
0
VERTEX
8
RASTER
10
49.302
20
12.945
30
0
0
VERTEX
8
RASTER
10
47.757
20
12.057
30
0
0
VERTEX
8
RASTER
10
46.212
20
12.945
30
0
0
SEQEND
8
RASTER
0
POLYLINE
8
RASTER
66
1
70
1
0
VERTEX
8
RASTER
10
46.104
20
12.759
30
0
0
VERTEX
8
RASTER
10
47.649
20
11.871
30
0
0
VERTEX
8
RASTER
10
47.649
20
10.095
30
0
0
VERTEX
8
RASTER
10
46.104
20
10.983
30
0
0
SEQEND
8
RASTER
0
POLYLINE
8
RASTER
66
1
70
1
0
VERTEX
8
RASTER
10
47.865
20
11.871
30
0
0
VERTEX
8
RASTER
10
49.41
20
12.759
30
0
0
VERTEX
8
RASTER
10
49.41
20
10.983
30
0
0
VERTEX
8
RASTER
10
47.865
20
10.095
30
0
0
SEQEND
8
RASTER
0
POLYLINE
8
RASTER
66
1
70
1
0
VERTEX
8
RASTER
10
50.421
20
11.613
30
0
0
VERTEX
8
RASTER
10
51.58
20
10.947
30
0
0
VERTEX
8
RASTER
10
50.421
20
10.281
30
0
0
VERTEX
8
RASTER
10
49.262
20
10.947
30
0
0
SEQEND
8
RASTER
0
POLYLINE
8
RASTER
66
1
70
1
0
VERTEX
8
RASTER
10
49.154
20
10.761
30
0
0
VERTEX
8
RASTER
10
50.313
20
10.095
30
0
0
VERTEX
8
RASTER
10
50.313
20
8.763
30
0
0
VERTEX
8
RASTER
10
49.154
20
9.429
30
0
0
SEQEND
8
RASTER
0
POLYLINE
8
RASTER
66
1
70
1
0
VERTEX
8
RASTER
10
50.529
20
10.095
30
0
0
VERTEX
8
RASTER
10
51.688
20
10.761
30
0
0
VERTEX
8
RASTER
10
51.688
20
9.429
30
0
0
VERTEX
8
RASTER
10
50.529
20
8.763
30
0
0
SEQEND
8
RASTER
0
CIRCLE
8
CUT
10
67.8
20
11.4
30
0
40
7.4
0
CIRCLE
8
RASTER
10
67.8
20
11.4
30
0
40
6.6
0
CIRCLE
8
RASTER
10
67.8
20
11.4
30
0
40
6
0
POLYLINE
8
RASTER
66
1
70
1
0
VERTEX
8
RASTER
10
67.8
20
15.307
30
0
0
VERTEX
8
RASTER
10
68.381
20
15.189
30
0
0
VERTEX
8
RASTER
10
68.918
20
14.858
30
0
0
VERTEX
8
RASTER
10
69.402
20
14.352
30
0
0
VERTEX
8
RASTER
10
69.82
20
13.709
30
0
0
VERTEX
8
RASTER
10
70.164
20
12.966
30
0
0
VERTEX
8
RASTER
10
70.422
20
12.16
30
0
0
VERTEX
8
RASTER
10
70.585
20
11.33
30
0
0
VERTEX
8
RASTER
10
70.642
20
10.512
30
0
0
VERTEX
8
RASTER
10
70.585
20
9.869
30
0
0
VERTEX
8
RASTER
10
70.422
20
9.277
30
0
0
VERTEX
8
RASTER
10
70.164
20
8.748
30
0
0
VERTEX
8
RASTER
10
69.82
20
8.292
30
0
0
VERTEX
8
RASTER
10
69.402
20
7.919
30
0
0
VERTEX
8
RASTER
10
68.918
20
7.64
30
0
0
VERTEX
8
RASTER
10
68.381
20
7.465
30
0
0
VERTEX
8
RASTER
10
67.8
20
7.404
30
0
0
VERTEX
8
RASTER
10
67.219
20
7.465
30
0
0
VERTEX
8
RASTER
10
66.682
20
7.64
30
0
0
VERTEX
8
RASTER
10
66.198
20
7.919
30
0
0
VERTEX
8
RASTER
10
65.78
20
8.292
30
0
0
VERTEX
8
RASTER
10
65.436
20
8.748
30
0
0
VERTEX
8
RASTER
10
65.178
20
9.277
30
0
0
VERTEX
8
RASTER
10
65.015
20
9.869
30
0
0
VERTEX
8
RASTER
10
64.958
20
10.512
30
0
0
VERTEX
8
RASTER
10
65.015
20
11.33
30
0
0
VERTEX
8
RASTER
10
65.178
20
12.16
30
0
0
VERTEX
8
RASTER
10
65.436
20
12.966
30
0
0
VERTEX
8
RASTER
10
65.78
20
13.709
30
0
0
VERTEX
8
RASTER
10
66.198
20
14.352
30
0
0
VERTEX
8
RASTER
10
66.682
20
14.858
30
0
0
VERTEX
8
RASTER
10
67.219
20
15.189
30
0
0
VERTEX
8
RASTER
10
67.8
20
15.307
30
0
0
SEQEND
8
RASTER
0
CIRCLE
8
RASTER
10
66.912
20
12.998
30
0
40
0.284
0
CIRCLE
8
RASTER
10
68.51
20
11.933
30
0
40
0.355
0
CIRCLE
8
RASTER
10
66.557
20
10.512
30
0
40
0.311
0
CIRCLE
8
RASTER
10
68.688
20
9.446
30
0
40
0.266
0
CIRCLE
8
RASTER
10
67.445
20
8.558
30
0
40
0.222
0
CIRCLE
8
RASTER
10
69.043
20
13.709
30
0
40
0.195
0
CIRCLE
8
CUT
10
86.6
20
11.4
30
0
40
7.4
0
CIRCLE
8
RASTER
10
86.6
20
11.4
30
0
40
6.6
0
CIRCLE
8
RASTER
10
86.6
20
11.4
30
0
40
6
0
POLYLINE
8
RASTER
66
1
70
1
0
VERTEX
8
RASTER
10
84.291
20
14.686
30
0
0
VERTEX
8
RASTER
10
84.295
20
14.748
30
0
0
VERTEX
8
RASTER
10
84.308
20
14.802
30
0
0
VERTEX
8
RASTER
10
84.329
20
14.848
30
0
0
VERTEX
8
RASTER
10
84.358
20
14.885
30
0
0
VERTEX
8
RASTER
10
84.395
20
14.915
30
0
0
VERTEX
8
RASTER
10
84.441
20
14.935
30
0
0
VERTEX
8
RASTER
10
84.495
20
14.948
30
0
0
VERTEX
8
RASTER
10
84.558
20
14.952
30
0
0
VERTEX
8
RASTER
10
86.156
20
14.952
30
0
0
VERTEX
8
RASTER
10
86.218
20
14.948
30
0
0
VERTEX
8
RASTER
10
86.273
20
14.935
30
0
0
VERTEX
8
RASTER
10
86.318
20
14.915
30
0
0
VERTEX
8
RASTER
10
86.356
20
14.885
30
0
0
VERTEX
8
RASTER
10
86.385
20
14.848
30
0
0
VERTEX
8
RASTER
10
86.406
20
14.802
30
0
0
VERTEX
8
RASTER
10
86.418
20
14.748
30
0
0
VERTEX
8
RASTER
10
86.422
20
14.686
30
0
0
VERTEX
8
RASTER
10
86.422
20
13.087
30
0
0
VERTEX
8
RASTER
10
86.418
20
13.025
30
0
0
VERTEX
8
RASTER
10
86.406
20
12.971
30
0
0
VERTEX
8
RASTER
10
86.385
20
12.925
30
0
0
VERTEX
8
RASTER
10
86.356
20
12.887
30
0
0
VERTEX
8
RASTER
10
86.318
20
12.858
30
0
0
VERTEX
8
RASTER
10
86.273
20
12.837
30
0
0
VERTEX
8
RASTER
10
86.218
20
12.825
30
0
0
VERTEX
8
RASTER
10
86.156
20
12.821
30
0
0
VERTEX
8
RASTER
10
84.558
20
12.821
30
0
0
VERTEX
8
RASTER
10
84.495
20
12.825
30
0
0
VERTEX
8
RASTER
10
84.441
20
12.837
30
0
0
VERTEX
8
RASTER
10
84.395
20
12.858
30
0
0
VERTEX
8
RASTER
10
84.358
20
12.887
30
0
0
VERTEX
8
RASTER
10
84.329
20
12.925
30
0
0
VERTEX
8
RASTER
10
84.308
20
12.971
30
0
0
VERTEX
8
RASTER
10
84.295
20
13.025
30
0
0
VERTEX
8
RASTER
10
84.291
20
13.087
30
0
0
SEQEND
8
RASTER
0
POLYLINE
8
RASTER
66
1
70
1
0
VERTEX
8
RASTER
10
86.778
20
14.686
30
0
0
VERTEX
8
RASTER
10
86.782
20
14.748
30
0
0
VERTEX
8
RASTER
10
86.794
20
14.802
30
0
0
VERTEX
8
RASTER
10
86.815
20
14.848
30
0
0
VERTEX
8
RASTER
10
86.844
20
14.885
30
0
0
VERTEX
8
RASTER
10
86.882
20
14.915
30
0
0
VERTEX
8
RASTER
10
86.927
20
14.935
30
0
0
VERTEX
8
RASTER
10
86.982
20
14.948
30
0
0
VERTEX
8
RASTER
10
87.044
20
14.952
30
0
0
VERTEX
8
RASTER
10
88.642
20
14.952
30
0
0
VERTEX
8
RASTER
10
88.705
20
14.948
30
0
0
VERTEX
8
RASTER
10
88.759
20
14.935
30
0
0
VERTEX
8
RASTER
10
88.805
20
14.915
30
0
0
VERTEX
8
RASTER
10
88.842
20
14.885
30
0
0
VERTEX
8
RASTER
10
88.871
20
14.848
30
0
0
VERTEX
8
RASTER
10
88.892
20
14.802
30
0
0
VERTEX
8
RASTER
10
88.905
20
14.748
30
0
0
VERTEX
8
RASTER
10
88.909
20
14.686
30
0
0
VERTEX
8
RASTER
10
88.909
20
13.087
30
0
0
VERTEX
8
RASTER
10
88.905
20
13.025
30
0
0
VERTEX
8
RASTER
10
88.892
20
12.971
30
0
0
VERTEX
8
RASTER
10
88.871
20
12.925
30
0
0
VERTEX
8
RASTER
10
88.842
20
12.887
30
0
0
VERTEX
8
RASTER
10
88.805
20
12.858
30
0
0
VERTEX
8
RASTER
10
88.759
20
12.837
30
0
0
VERTEX
8
RASTER
10
88.705
20
12.825
30
0
0
VERTEX
8
RASTER
10
88.642
20
12.821
30
0
0
VERTEX
8
RASTER
10
87.044
20
12.821
30
0
0
VERTEX
8
RASTER
10
86.982
20
12.825
30
0
0
VERTEX
8
RASTER
10
86.927
20
12.837
30
0
0
VERTEX
8
RASTER
10
86.882
20
12.858
30
0
0
VERTEX
8
RASTER
10
86.844
20
12.887
30
0
0
VERTEX
8
RASTER
10
86.815
20
12.925
30
0
0
VERTEX
8
RASTER
10
86.794
20
12.971
30
0
0
VERTEX
8
RASTER
10
86.782
20
13.025
30
0
0
VERTEX
8
RASTER
10
86.778
20
13.087
30
0
0
SEQEND
8
RASTER
0
POLYLINE
8
RASTER
66
1
70
1
0
VERTEX
8
RASTER
10
84.291
20
12.199
30
0
0
VERTEX
8
RASTER
10
84.295
20
12.262
30
0
0
VERTEX
8
RASTER
10
84.308
20
12.316
30
0
0
VERTEX
8
RASTER
10
84.329
20
12.362
30
0
0
VERTEX
8
RASTER
10
84.358
20
12.399
30
0
0
VERTEX
8
RASTER
10
84.395
20
12.428
30
0
0
VERTEX
8
RASTER
10
84.441
20
12.449
30
0
0
VERTEX
8
RASTER
10
84.495
20
12.461
30
0
0
VERTEX
8
RASTER
10
84.558
20
12.466
30
0
0
VERTEX
8
RASTER
10
86.156
20
12.466
30
0
0
VERTEX
8
RASTER
10
86.218
20
12.461
30
0
0
VERTEX
8
RASTER
10
86.273
20
12.449
30
0
0
VERTEX
8
RASTER
10
86.318
20
12.428
30
0
0
VERTEX
8
RASTER
10
86.356
20
12.399
30
0
0
VERTEX
8
RASTER
10
86.385
20
12.362
30
0
0
VERTEX
8
RASTER
10
86.406
20
12.316
30
0
0
VERTEX
8
RASTER
10
86.418
20
12.262
30
0
0
VERTEX
8
RASTER
10
86.422
20
12.199
30
0
0
VERTEX
8
RASTER
10
86.422
20
10.601
30
0
0
VERTEX
8
RASTER
10
86.418
20
10.538
30
0
0
VERTEX
8
RASTER
10
86.406
20
10.484
30
0
0
VERTEX
8
RASTER
10
86.385
20
10.438
30
0
0
VERTEX
8
RASTER
10
86.356
20
10.401
30
0
0
VERTEX
8
RASTER
10
86.318
20
10.372
30
0
0
VERTEX
8
RASTER
10
86.273
20
10.351
30
0
0
VERTEX
8
RASTER
10
86.218
20
10.339
30
0
0
VERTEX
8
RASTER
10
86.156
20
10.334
30
0
0
VERTEX
8
RASTER
10
84.558
20
10.334
30
0
0
VERTEX
8
RASTER
10
84.495
20
10.339
30
0
0
VERTEX
8
RASTER
10
84.441
20
10.351
30
0
0
VERTEX
8
RASTER
10
84.395
20
10.372
30
0
0
VERTEX
8
RASTER
10
84.358
20
10.401
30
0
0
VERTEX
8
RASTER
10
84.329
20
10.438
30
0
0
VERTEX
8
RASTER
10
84.308
20
10.484
30
0
0
VERTEX
8
RASTER
10
84.295
20
10.538
30
0
0
VERTEX
8
RASTER
10
84.291
20
10.601
30
0
0
SEQEND
8
RASTER
0
POLYLINE
8
RASTER
66
1
70
1
0
VERTEX
8
RASTER
10
86.778
20
12.199
30
0
0
VERTEX
8
RASTER
10
86.782
20
12.262
30
0
0
VERTEX
8
RASTER
10
86.794
20
12.316
30
0
0
VERTEX
8
RASTER
10
86.815
20
12.362
30
0
0
VERTEX
8
RASTER
10
86.844
20
12.399
30
0
0
VERTEX
8
RASTER
10
86.882
20
12.428
30
0
0
VERTEX
8
RASTER
10
86.927
20
12.449
30
0
0
VERTEX
8
RASTER
10
86.982
20
12.461
30
0
0
VERTEX
8
RASTER
10
87.044
20
12.466
30
0
0
VERTEX
8
RASTER
10
88.642
20
12.466
30
0
0
VERTEX
8
RASTER
10
88.705
20
12.461
30
0
0
VERTEX
8
RASTER
10
88.759
20
12.449
30
0
0
VERTEX
8
RASTER
10
88.805
20
12.428
30
0
0
VERTEX
8
RASTER
10
88.842
20
12.399
30
0
0
VERTEX
8
RASTER
10
88.871
20
12.362
30
0
0
VERTEX
8
RASTER
10
88.892
20
12.316
30
0
0
VERTEX
8
RASTER
10
88.905
20
12.262
30
0
0
VERTEX
8
RASTER
10
88.909
20
12.199
30
0
0
VERTEX
8
RASTER
10
88.909
20
10.601
30
0
0
VERTEX
8
RASTER
10
88.905
20
10.538
30
0
0
VERTEX
8
RASTER
10
88.892
20
10.484
30
0
0
VERTEX
8
RASTER
10
88.871
20
10.438
30
0
0
VERTEX
8
RASTER
10
88.842
20
10.401
30
0
0
VERTEX
8
RASTER
10
88.805
20
10.372
30
0
0
VERTEX
8
RASTER
10
88.759
20
10.351
30
0
0
VERTEX
8
RASTER
10
88.705
20
10.339
30
0
0
VERTEX
8
RASTER
10
88.642
20
10.334
30
0
0
VERTEX
8
RASTER
10
87.044
20
10.334
30
0
0
VERTEX
8
RASTER
10
86.982
20
10.339
30
0
0
VERTEX
8
RASTER
10
86.927
20
10.351
30
0
0
VERTEX
8
RASTER
10
86.882
20
10.372
30
0
0
VERTEX
8
RASTER
10
86.844
20
10.401
30
0
0
VERTEX
8
RASTER
10
86.815
20
10.438
30
0
0
VERTEX
8
RASTER
10
86.794
20
10.484
30
0
0
VERTEX
8
RASTER
10
86.782
20
10.538
30
0
0
VERTEX
8
RASTER
10
86.778
20
10.601
30
0
0
SEQEND
8
RASTER
0
POLYLINE
8
RASTER
66
1
70
1
0
VERTEX
8
RASTER
10
84.291
20
9.713
30
0
0
VERTEX
8
RASTER
10
84.295
20
9.775
30
0
0
VERTEX
8
RASTER
10
84.308
20
9.829
30
0
0
VERTEX
8
RASTER
10
84.329
20
9.875
30
0
0
VERTEX
8
RASTER
10
84.358
20
9.913
30
0
0
VERTEX
8
RASTER
10
84.395
20
9.942
30
0
0
VERTEX
8
RASTER
10
84.441
20
9.963
30
0
0
VERTEX
8
RASTER
10
84.495
20
9.975
30
0
0
VERTEX
8
RASTER
10
84.558
20
9.979
30
0
0
VERTEX
8
RASTER
10
86.156
20
9.979
30
0
0
VERTEX
8
RASTER
10
86.218
20
9.975
30
0
0
VERTEX
8
RASTER
10
86.273
20
9.963
30
0
0
VERTEX
8
RASTER
10
86.318
20
9.942
30
0
0
VERTEX
8
RASTER
10
86.356
20
9.913
30
0
0
VERTEX
8
RASTER
10
86.385
20
9.875
30
0
0
VERTEX
8
RASTER
10
86.406
20
9.829
30
0
0
VERTEX
8
RASTER
10
86.418
20
9.775
30
0
0
VERTEX
8
RASTER
10
86.422
20
9.713
30
0
0
VERTEX
8
RASTER
10
86.422
20
8.114
30
0
0
VERTEX
8
RASTER
10
86.418
20
8.052
30
0
0
VERTEX
8
RASTER
10
86.406
20
7.998
30
0
0
VERTEX
8
RASTER
10
86.385
20
7.952
30
0
0
VERTEX
8
RASTER
10
86.356
20
7.915
30
0
0
VERTEX
8
RASTER
10
86.318
20
7.885
30
0
0
VERTEX
8
RASTER
10
86.273
20
7.865
30
0
0
VERTEX
8
RASTER
10
86.218
20
7.852
30
0
0
VERTEX
8
RASTER
10
86.156
20
7.848
30
0
0
VERTEX
8
RASTER
10
84.558
20
7.848
30
0
0
VERTEX
8
RASTER
10
84.495
20
7.852
30
0
0
VERTEX
8
RASTER
10
84.441
20
7.865
30
0
0
VERTEX
8
RASTER
10
84.395
20
7.885
30
0
0
VERTEX
8
RASTER
10
84.358
20
7.915
30
0
0
VERTEX
8
RASTER
10
84.329
20
7.952
30
0
0
VERTEX
8
RASTER
10
84.308
20
7.998
30
0
0
VERTEX
8
RASTER
10
84.295
20
8.052
30
0
0
VERTEX
8
RASTER
10
84.291
20
8.114
30
0
0
SEQEND
8
RASTER
0
POLYLINE
8
RASTER
66
1
70
1
0
VERTEX
8
RASTER
10
86.778
20
9.713
30
0
0
VERTEX
8
RASTER
10
86.782
20
9.775
30
0
0
VERTEX
8
RASTER
10
86.794
20
9.829
30
0
0
VERTEX
8
RASTER
10
86.815
20
9.875
30
0
0
VERTEX
8
RASTER
10
86.844
20
9.913
30
0
0
VERTEX
8
RASTER
10
86.882
20
9.942
30
0
0
VERTEX
8
RASTER
10
86.927
20
9.963
30
0
0
VERTEX
8
RASTER
10
86.982
20
9.975
30
0
0
VERTEX
8
RASTER
10
87.044
20
9.979
30
0
0
VERTEX
8
RASTER
10
88.642
20
9.979
30
0
0
VERTEX
8
RASTER
10
88.705
20
9.975
30
0
0
VERTEX
8
RASTER
10
88.759
20
9.963
30
0
0
VERTEX
8
RASTER
10
88.805
20
9.942
30
0
0
VERTEX
8
RASTER
10
88.842
20
9.913
30
0
0
VERTEX
8
RASTER
10
88.871
20
9.875
30
0
0
VERTEX
8
RASTER
10
88.892
20
9.829
30
0
0
VERTEX
8
RASTER
10
88.905
20
9.775
30
0
0
VERTEX
8
RASTER
10
88.909
20
9.713
30
0
0
VERTEX
8
RASTER
10
88.909
20
8.114
30
0
0
VERTEX
8
RASTER
10
88.905
20
8.052
30
0
0
VERTEX
8
RASTER
10
88.892
20
7.998
30
0
0
VERTEX
8
RASTER
10
88.871
20
7.952
30
0
0
VERTEX
8
RASTER
10
88.842
20
7.915
30
0
0
VERTEX
8
RASTER
10
88.805
20
7.885
30
0
0
VERTEX
8
RASTER
10
88.759
20
7.865
30
0
0
VERTEX
8
RASTER
10
88.705
20
7.852
30
0
0
VERTEX
8
RASTER
10
88.642
20
7.848
30
0
0
VERTEX
8
RASTER
10
87.044
20
7.848
30
0
0
VERTEX
8
RASTER
10
86.982
20
7.852
30
0
0
VERTEX
8
RASTER
10
86.927
20
7.865
30
0
0
VERTEX
8
RASTER
10
86.882
20
7.885
30
0
0
VERTEX
8
RASTER
10
86.844
20
7.915
30
0
0
VERTEX
8
RASTER
10
86.815
20
7.952
30
0
0
VERTEX
8
RASTER
10
86.794
20
7.998
30
0
0
VERTEX
8
RASTER
10
86.782
20
8.052
30
0
0
VERTEX
8
RASTER
10
86.778
20
8.114
30
0
0
SEQEND
8
RASTER
0
CIRCLE
8
CUT
10
105.4
20
11.4
30
0
40
7.4
0
CIRCLE
8
RASTER
10
105.4
20
11.4
30
0
40
6.6
0
CIRCLE
8
RASTER
10
105.4
20
11.4
30
0
40
6
0
POLYLINE
8
RASTER
66
1
70
1
0
VERTEX
8
RASTER
10
101.879
20
13.059
30
0
0
VERTEX
8
RASTER
10
101.842
20
13.133
30
0
0
VERTEX
8
RASTER
10
101.821
20
13.204
30
0
0
VERTEX
8
RASTER
10
101.814
20
13.271
30
0
0
VERTEX
8
RASTER
10
101.823
20
13.334
30
0
0
VERTEX
8
RASTER
10
101.847
20
13.392
30
0
0
VERTEX
8
RASTER
10
101.886
20
13.447
30
0
0
VERTEX
8
RASTER
10
101.94
20
13.497
30
0
0
VERTEX
8
RASTER
10
102.009
20
13.544
30
0
0
VERTEX
8
RASTER
10
102.47
20
13.81
30
0
0
VERTEX
8
RASTER
10
102.545
20
13.847
30
0
0
VERTEX
8
RASTER
10
102.616
20
13.869
30
0
0
VERTEX
8
RASTER
10
102.683
20
13.875
30
0
0
VERTEX
8
RASTER
10
102.746
20
13.866
30
0
0
VERTEX
8
RASTER
10
102.804
20
13.843
30
0
0
VERTEX
8
RASTER
10
102.859
20
13.804
30
0
0
VERTEX
8
RASTER
10
102.909
20
13.749
30
0
0
VERTEX
8
RASTER
10
102.956
20
13.68
30
0
0
VERTEX
8
RASTER
10
106.152
20
8.143
30
0
0
VERTEX
8
RASTER
10
106.189
20
8.068
30
0
0
VERTEX
8
RASTER
10
106.211
20
7.997
30
0
0
VERTEX
8
RASTER
10
106.217
20
7.931
30
0
0
VERTEX
8
RASTER
10
106.209
20
7.868
30
0
0
VERTEX
8
RASTER
10
106.185
20
7.809
30
0
0
VERTEX
8
RASTER
10
106.146
20
7.755
30
0
0
VERTEX
8
RASTER
10
106.092
20
7.704
30
0
0
VERTEX
8
RASTER
10
106.022
20
7.658
30
0
0
VERTEX
8
RASTER
10
105.561
20
7.391
30
0
0
VERTEX
8
RASTER
10
105.486
20
7.355
30
0
0
VERTEX
8
RASTER
10
105.415
20
7.333
30
0
0
VERTEX
8
RASTER
10
105.349
20
7.327
30
0
0
VERTEX
8
RASTER
10
105.286
20
7.335
30
0
0
VERTEX
8
RASTER
10
105.227
20
7.359
30
0
0
VERTEX
8
RASTER
10
105.173
20
7.398
30
0
0
VERTEX
8
RASTER
10
105.122
20
7.452
30
0
0
VERTEX
8
RASTER
10
105.076
20
7.521
30
0
0
SEQEND
8
RASTER
0
POLYLINE
8
RASTER
66
1
70
1
0
VERTEX
8
RASTER
10
102.187
20
13.236
30
0
0
VERTEX
8
RASTER
10
102.364
20
12.928
30
0
0
VERTEX
8
RASTER
10
102.826
20
13.195
30
0
0
VERTEX
8
RASTER
10
102.648
20
13.503
30
0
0
VERTEX
8
RASTER
10
102.187
20
13.236
30
0
0
SEQEND
8
RASTER
0
POLYLINE
8
RASTER
66
1
70
1
0
VERTEX
8
RASTER
10
105.206
20
8.007
30
0
0
VERTEX
8
RASTER
10
105.383
20
7.699
30
0
0
VERTEX
8
RASTER
10
105.845
20
7.965
30
0
0
VERTEX
8
RASTER
10
105.667
20
8.273
30
0
0
VERTEX
8
RASTER
10
105.206
20
8.007
30
0
0
SEQEND
8
RASTER
0
POLYLINE
8
RASTER
66
1
70
1
0
VERTEX
8
RASTER
10
103.263
20
13.858
30
0
0
VERTEX
8
RASTER
10
103.226
20
13.933
30
0
0
VERTEX
8
RASTER
10
103.205
20
14.003
30
0
0
VERTEX
8
RASTER
10
103.198
20
14.07
30
0
0
VERTEX
8
RASTER
10
103.207
20
14.133
30
0
0
VERTEX
8
RASTER
10
103.231
20
14.191
30
0
0
VERTEX
8
RASTER
10
103.27
20
14.246
30
0
0
VERTEX
8
RASTER
10
103.324
20
14.296
30
0
0
VERTEX
8
RASTER
10
103.393
20
14.343
30
0
0
VERTEX
8
RASTER
10
103.855
20
14.609
30
0
0
VERTEX
8
RASTER
10
103.93
20
14.646
30
0
0
VERTEX
8
RASTER
10
104
20
14.668
30
0
0
VERTEX
8
RASTER
10
104.067
20
14.674
30
0
0
VERTEX
8
RASTER
10
104.13
20
14.666
30
0
0
VERTEX
8
RASTER
10
104.188
20
14.642
30
0
0
VERTEX
8
RASTER
10
104.243
20
14.603
30
0
0
VERTEX
8
RASTER
10
104.293
20
14.549
30
0
0
VERTEX
8
RASTER
10
104.34
20
14.479
30
0
0
VERTEX
8
RASTER
10
107.537
20
8.942
30
0
0
VERTEX
8
RASTER
10
107.574
20
8.867
30
0
0
VERTEX
8
RASTER
10
107.595
20
8.797
30
0
0
VERTEX
8
RASTER
10
107.602
20
8.73
30
0
0
VERTEX
8
RASTER
10
107.593
20
8.667
30
0
0
VERTEX
8
RASTER
10
107.569
20
8.609
30
0
0
VERTEX
8
RASTER
10
107.53
20
8.554
30
0
0
VERTEX
8
RASTER
10
107.476
20
8.504
30
0
0
VERTEX
8
RASTER
10
107.407
20
8.457
30
0
0
VERTEX
8
RASTER
10
106.945
20
8.191
30
0
0
VERTEX
8
RASTER
10
106.87
20
8.154
30
0
0
VERTEX
8
RASTER
10
106.8
20
8.132
30
0
0
VERTEX
8
RASTER
10
106.733
20
8.126
30
0
0
VERTEX
8
RASTER
10
106.67
20
8.134
30
0
0
VERTEX
8
RASTER
10
106.612
20
8.158
30
0
0
VERTEX
8
RASTER
10
106.557
20
8.197
30
0
0
VERTEX
8
RASTER
10
106.507
20
8.251
30
0
0
VERTEX
8
RASTER
10
106.46
20
8.321
30
0
0
SEQEND
8
RASTER
0
POLYLINE
8
RASTER
66
1
70
1
0
VERTEX
8
RASTER
10
103.571
20
14.035
30
0
0
VERTEX
8
RASTER
10
103.748
20
13.728
30
0
0
VERTEX
8
RASTER
10
104.21
20
13.994
30
0
0
VERTEX
8
RASTER
10
104.032
20
14.302
30
0
0
VERTEX
8
RASTER
10
103.571
20
14.035
30
0
0
SEQEND
8
RASTER
0
POLYLINE
8
RASTER
66
1
70
1
0
VERTEX
8
RASTER
10
106.59
20
8.806
30
0
0
VERTEX
8
RASTER
10
106.768
20
8.498
30
0
0
VERTEX
8
RASTER
10
107.229
20
8.765
30
0
0
VERTEX
8
RASTER
10
107.052
20
9.072
30
0
0
VERTEX
8
RASTER
10
106.59
20
8.806
30
0
0
SEQEND
8
RASTER
0
POLYLINE
8
RASTER
66
1
70
1
0
VERTEX
8
RASTER
10
104.648
20
14.657
30
0
0
VERTEX
8
RASTER
10
104.611
20
14.732
30
0
0
VERTEX
8
RASTER
10
104.589
20
14.803
30
0
0
VERTEX
8
RASTER
10
104.583
20
14.869
30
0
0
VERTEX
8
RASTER
10
104.591
20
14.932
30
0
0
VERTEX
8
RASTER
10
104.615
20
14.991
30
0
0
VERTEX
8
RASTER
10
104.654
20
15.045
30
0
0
VERTEX
8
RASTER
10
104.708
20
15.096
30
0
0
VERTEX
8
RASTER
10
104.778
20
15.142
30
0
0
VERTEX
8
RASTER
10
105.239
20
15.409
30
0
0
VERTEX
8
RASTER
10
105.314
20
15.445
30
0
0
VERTEX
8
RASTER
10
105.385
20
15.467
30
0
0
VERTEX
8
RASTER
10
105.451
20
15.473
30
0
0
VERTEX
8
RASTER
10
105.514
20
15.465
30
0
0
VERTEX
8
RASTER
10
105.573
20
15.441
30
0
0
VERTEX
8
RASTER
10
105.627
20
15.402
30
0
0
VERTEX
8
RASTER
10
105.678
20
15.348
30
0
0
VERTEX
8
RASTER
10
105.724
20
15.279
30
0
0
VERTEX
8
RASTER
10
108.921
20
9.741
30
0
0
VERTEX
8
RASTER
10
108.958
20
9.667
30
0
0
VERTEX
8
RASTER
10
108.979
20
9.596
30
0
0
VERTEX
8
RASTER
10
108.986
20
9.529
30
0
0
VERTEX
8
RASTER
10
108.977
20
9.466
30
0
0
VERTEX
8
RASTER
10
108.953
20
9.408
30
0
0
VERTEX
8
RASTER
10
108.914
20
9.353
30
0
0
VERTEX
8
RASTER
10
108.86
20
9.303
30
0
0
VERTEX
8
RASTER
10
108.791
20
9.256
30
0
0
VERTEX
8
RASTER
10
108.33
20
8.99
30
0
0
VERTEX
8
RASTER
10
108.255
20
8.953
30
0
0
VERTEX
8
RASTER
10
108.184
20
8.931
30
0
0
VERTEX
8
RASTER
10
108.117
20
8.925
30
0
0
VERTEX
8
RASTER
10
108.054
20
8.934
30
0
0
VERTEX
8
RASTER
10
107.996
20
8.957
30
0
0
VERTEX
8
RASTER
10
107.941
20
8.996
30
0
0
VERTEX
8
RASTER
10
107.891
20
9.051
30
0
0
VERTEX
8
RASTER
10
107.844
20
9.12
30
0
0
SEQEND
8
RASTER
0
POLYLINE
8
RASTER
66
1
70
1
0
VERTEX
8
RASTER
10
104.955
20
14.835
30
0
0
VERTEX
8
RASTER
10
105.133
20
14.527
30
0
0
VERTEX
8
RASTER
10
105.594
20
14.793
30
0
0
VERTEX
8
RASTER
10
105.417
20
15.101
30
0
0
VERTEX
8
RASTER
10
104.955
20
14.835
30
0
0
SEQEND
8
RASTER
0
POLYLINE
8
RASTER
66
1
70
1
0
VERTEX
8
RASTER
10
107.974
20
9.605
30
0
0
VERTEX
8
RASTER
10
108.152
20
9.297
30
0
0
VERTEX
8
RASTER
10
108.613
20
9.564
30
0
0
VERTEX
8
RASTER
10
108.436
20
9.872
30
0
0
VERTEX
8
RASTER
10
107.974
20
9.605
30
0
0
SEQEND
8
RASTER
0
CIRCLE
8
CUT
10
124.2
20
11.4
30
0
40
7.4
0
CIRCLE
8
RASTER
10
124.2
20
11.4
30
0
40
6.6
0
CIRCLE
8
RASTER
10
124.2
20
11.4
30
0
40
6
0
POLYLINE
8
RASTER
66
1
70
1
0
VERTEX
8
RASTER
10
125.266
20
14.064
30
0
0
VERTEX
8
RASTER
10
125.244
20
13.724
30
0
0
VERTEX
8
RASTER
10
125.182
20
13.407
30
0
0
VERTEX
8
RASTER
10
125.084
20
13.121
30
0
0
VERTEX
8
RASTER
10
124.953
20
12.871
30
0
0
VERTEX
8
RASTER
10
124.796
20
12.665
30
0
0
VERTEX
8
RASTER
10
124.615
20
12.509
30
0
0
VERTEX
8
RASTER
10
124.415
20
12.411
30
0
0
VERTEX
8
RASTER
10
124.2
20
12.377
30
0
0
VERTEX
8
RASTER
10
123.985
20
12.411
30
0
0
VERTEX
8
RASTER
10
123.785
20
12.509
30
0
0
VERTEX
8
RASTER
10
123.604
20
12.665
30
0
0
VERTEX
8
RASTER
10
123.447
20
12.871
30
0
0
VERTEX
8
RASTER
10
123.316
20
13.121
30
0
0
VERTEX
8
RASTER
10
123.218
20
13.407
30
0
0
VERTEX
8
RASTER
10
123.156
20
13.724
30
0
0
VERTEX
8
RASTER
10
123.134
20
14.064
30
0
0
VERTEX
8
RASTER
10
123.156
20
14.404
30
0
0
VERTEX
8
RASTER
10
123.218
20
14.721
30
0
0
VERTEX
8
RASTER
10
123.316
20
15.007
30
0
0
VERTEX
8
RASTER
10
123.447
20
15.257
30
0
0
VERTEX
8
RASTER
10
123.604
20
15.463
30
0
0
VERTEX
8
RASTER
10
123.785
20
15.619
30
0
0
VERTEX
8
RASTER
10
123.985
20
15.717
30
0
0
VERTEX
8
RASTER
10
124.2
20
15.751
30
0
0
VERTEX
8
RASTER
10
124.415
20
15.717
30
0
0
VERTEX
8
RASTER
10
124.615
20
15.619
30
0
0
VERTEX
8
RASTER
10
124.796
20
15.463
30
0
0
VERTEX
8
RASTER
10
124.953
20
15.257
30
0
0
VERTEX
8
RASTER
10
125.084
20
15.007
30
0
0
VERTEX
8
RASTER
10
125.182
20
14.721
30
0
0
VERTEX
8
RASTER
10
125.244
20
14.404
30
0
0
VERTEX
8
RASTER
10
125.266
20
14.064
30
0
0
SEQEND
8
RASTER
0
POLYLINE
8
RASTER
66
1
70
1
0
VERTEX
8
RASTER
10
127.063
20
11.21
30
0
0
VERTEX
8
RASTER
10
126.733
20
11.125
30
0
0
VERTEX
8
RASTER
10
126.412
20
11.086
30
0
0
VERTEX
8
RASTER
10
126.11
20
11.091
30
0
0
VERTEX
8
RASTER
10
125.832
20
11.138
30
0
0
VERTEX
8
RASTER
10
125.587
20
11.224
30
0
0
VERTEX
8
RASTER
10
125.383
20
11.348
30
0
0
VERTEX
8
RASTER
10
125.228
20
11.508
30
0
0
VERTEX
8
RASTER
10
125.129
20
11.702
30
0
0
VERTEX
8
RASTER
10
125.095
20
11.917
30
0
0
VERTEX
8
RASTER
10
125.127
20
12.137
30
0
0
VERTEX
8
RASTER
10
125.219
20
12.358
30
0
0
VERTEX
8
RASTER
10
125.366
20
12.571
30
0
0
VERTEX
8
RASTER
10
125.563
20
12.772
30
0
0
VERTEX
8
RASTER
10
125.806
20
12.954
30
0
0
VERTEX
8
RASTER
10
126.088
20
13.111
30
0
0
VERTEX
8
RASTER
10
126.404
20
13.237
30
0
0
VERTEX
8
RASTER
10
126.734
20
13.321
30
0
0
VERTEX
8
RASTER
10
127.055
20
13.36
30
0
0
VERTEX
8
RASTER
10
127.358
20
13.355
30
0
0
VERTEX
8
RASTER
10
127.635
20
13.309
30
0
0
VERTEX
8
RASTER
10
127.88
20
13.222
30
0
0
VERTEX
8
RASTER
10
128.084
20
13.098
30
0
0
VERTEX
8
RASTER
10
128.239
20
12.938
30
0
0
VERTEX
8
RASTER
10
128.338
20
12.745
30
0
0
VERTEX
8
RASTER
10
128.372
20
12.53
30
0
0
VERTEX
8
RASTER
10
128.34
20
12.309
30
0
0
VERTEX
8
RASTER
10
128.248
20
12.089
30
0
0
VERTEX
8
RASTER
10
128.101
20
11.875
30
0
0
VERTEX
8
RASTER
10
127.904
20
11.674
30
0
0
VERTEX
8
RASTER
10
127.662
20
11.492
30
0
0
VERTEX
8
RASTER
10
127.38
20
11.335
30
0
0
VERTEX
8
RASTER
10
127.063
20
11.21
30
0
0
SEQEND
8
RASTER
0
POLYLINE
8
RASTER
66
1
70
1
0
VERTEX
8
RASTER
10
124.904
20
8.618
30
0
0
VERTEX
8
RASTER
10
124.721
20
8.906
30
0
0
VERTEX
8
RASTER
10
124.585
20
9.199
30
0
0
VERTEX
8
RASTER
10
124.497
20
9.489
30
0
0
VERTEX
8
RASTER
10
124.455
20
9.767
30
0
0
VERTEX
8
RASTER
10
124.462
20
10.026
30
0
0
VERTEX
8
RASTER
10
124.517
20
10.259
30
0
0
VERTEX
8
RASTER
10
124.621
20
10.456
30
0
0
VERTEX
8
RASTER
10
124.774
20
10.61
30
0
0
VERTEX
8
RASTER
10
124.968
20
10.708
30
0
0
VERTEX
8
RASTER
10
125.188
20
10.746
30
0
0
VERTEX
8
RASTER
10
125.426
20
10.727
30
0
0
VERTEX
8
RASTER
10
125.674
20
10.653
30
0
0
VERTEX
8
RASTER
10
125.926
20
10.527
30
0
0
VERTEX
8
RASTER
10
126.174
20
10.353
30
0
0
VERTEX
8
RASTER
10
126.411
20
10.133
30
0
0
VERTEX
8
RASTER
10
126.628
20
9.871
30
0
0
VERTEX
8
RASTER
10
126.81
20
9.583
30
0
0
VERTEX
8
RASTER
10
126.946
20
9.291
30
0
0
VERTEX
8
RASTER
10
127.035
20
9.001
30
0
0
VERTEX
8
RASTER
10
127.077
20
8.722
30
0
0
VERTEX
8
RASTER
10
127.07
20
8.463
30
0
0
VERTEX
8
RASTER
10
127.015
20
8.231
30
0
0
VERTEX
8
RASTER
10
126.911
20
8.034
30
0
0
VERTEX
8
RASTER
10
126.758
20
7.88
30
0
0
VERTEX
8
RASTER
10
126.564
20
7.781
30
0
0
VERTEX
8
RASTER
10
126.344
20
7.743
30
0
0
VERTEX
8
RASTER
10
126.106
20
7.763
30
0
0
VERTEX
8
RASTER
10
125.858
20
7.837
30
0
0
VERTEX
8
RASTER
10
125.605
20
7.962
30
0
0
VERTEX
8
RASTER
10
125.358
20
8.136
30
0
0
VERTEX
8
RASTER
10
125.121
20
8.356
30
0
0
VERTEX
8
RASTER
10
124.904
20
8.618
30
0
0
SEQEND
8
RASTER
0
POLYLINE
8
RASTER
66
1
70
1
0
VERTEX
8
RASTER
10
121.772
20
9.871
30
0
0
VERTEX
8
RASTER
10
121.989
20
10.133
30
0
0
VERTEX
8
RASTER
10
122.226
20
10.353
30
0
0
VERTEX
8
RASTER
10
122.474
20
10.527
30
0
0
VERTEX
8
RASTER
10
122.726
20
10.653
30
0
0
VERTEX
8
RASTER
10
122.974
20
10.727
30
0
0
VERTEX
8
RASTER
10
123.212
20
10.746
30
0
0
VERTEX
8
RASTER
10
123.432
20
10.708
30
0
0
VERTEX
8
RASTER
10
123.626
20
10.61
30
0
0
VERTEX
8
RASTER
10
123.779
20
10.456
30
0
0
VERTEX
8
RASTER
10
123.883
20
10.259
30
0
0
VERTEX
8
RASTER
10
123.938
20
10.026
30
0
0
VERTEX
8
RASTER
10
123.945
20
9.767
30
0
0
VERTEX
8
RASTER
10
123.903
20
9.489
30
0
0
VERTEX
8
RASTER
10
123.815
20
9.199
30
0
0
VERTEX
8
RASTER
10
123.679
20
8.906
30
0
0
VERTEX
8
RASTER
10
123.496
20
8.618
30
0
0
VERTEX
8
RASTER
10
123.279
20
8.356
30
0
0
VERTEX
8
RASTER
10
123.042
20
8.136
30
0
0
VERTEX
8
RASTER
10
122.795
20
7.962
30
0
0
VERTEX
8
RASTER
10
122.542
20
7.837
30
0
0
VERTEX
8
RASTER
10
122.294
20
7.763
30
0
0
VERTEX
8
RASTER
10
122.056
20
7.743
30
0
0
VERTEX
8
RASTER
10
121.836
20
7.781
30
0
0
VERTEX
8
RASTER
10
121.642
20
7.88
30
0
0
VERTEX
8
RASTER
10
121.489
20
8.034
30
0
0
VERTEX
8
RASTER
10
121.385
20
8.231
30
0
0
VERTEX
8
RASTER
10
121.33
20
8.463
30
0
0
VERTEX
8
RASTER
10
121.323
20
8.722
30
0
0
VERTEX
8
RASTER
10
121.365
20
9.001
30
0
0
VERTEX
8
RASTER
10
121.454
20
9.291
30
0
0
VERTEX
8
RASTER
10
121.59
20
9.583
30
0
0
VERTEX
8
RASTER
10
121.772
20
9.871
30
0
0
SEQEND
8
RASTER
0
POLYLINE
8
RASTER
66
1
70
1
0
VERTEX
8
RASTER
10
121.996
20
13.237
30
0
0
VERTEX
8
RASTER
10
122.312
20
13.111
30
0
0
VERTEX
8
RASTER
10
122.594
20
12.954
30
0
0
VERTEX
8
RASTER
10
122.837
20
12.772
30
0
0
VERTEX
8
RASTER
10
123.034
20
12.571
30
0
0
VERTEX
8
RASTER
10
123.181
20
12.358
30
0
0
VERTEX
8
RASTER
10
123.273
20
12.137
30
0
0
VERTEX
8
RASTER
10
123.305
20
11.917
30
0
0
VERTEX
8
RASTER
10
123.271
20
11.702
30
0
0
VERTEX
8
RASTER
10
123.172
20
11.508
30
0
0
VERTEX
8
RASTER
10
123.017
20
11.348
30
0
0
VERTEX
8
RASTER
10
122.813
20
11.224
30
0
0
VERTEX
8
RASTER
10
122.568
20
11.138
30
0
0
VERTEX
8
RASTER
10
122.29
20
11.091
30
0
0
VERTEX
8
RASTER
10
121.988
20
11.086
30
0
0
VERTEX
8
RASTER
10
121.667
20
11.125
30
0
0
VERTEX
8
RASTER
10
121.337
20
11.21
30
0
0
VERTEX
8
RASTER
10
121.02
20
11.335
30
0
0
VERTEX
8
RASTER
10
120.738
20
11.492
30
0
0
VERTEX
8
RASTER
10
120.496
20
11.674
30
0
0
VERTEX
8
RASTER
10
120.299
20
11.875
30
0
0
VERTEX
8
RASTER
10
120.152
20
12.089
30
0
0
VERTEX
8
RASTER
10
120.06
20
12.309
30
0
0
VERTEX
8
RASTER
10
120.028
20
12.53
30
0
0
VERTEX
8
RASTER
10
120.062
20
12.745
30
0
0
VERTEX
8
RASTER
10
120.161
20
12.938
30
0
0
VERTEX
8
RASTER
10
120.316
20
13.098
30
0
0
VERTEX
8
RASTER
10
120.52
20
13.222
30
0
0
VERTEX
8
RASTER
10
120.765
20
13.309
30
0
0
VERTEX
8
RASTER
10
121.042
20
13.355
30
0
0
VERTEX
8
RASTER
10
121.345
20
13.36
30
0
0
VERTEX
8
RASTER
10
121.666
20
13.321
30
0
0
VERTEX
8
RASTER
10
121.996
20
13.237
30
0
0
SEQEND
8
RASTER
0
CIRCLE
8
RASTER
10
124.2
20
11.4
30
0
40
0.799
0
ENDSEC
0
EOF
