0
SECTION
2
HEADER
9
$ACADVER
1
AC1009
9
$EXTMIN
10
0
20
0
9
$EXTMAX
10
176
20
27.9
0
ENDSEC
0
SECTION
2
TABLES
0
TABLE
2
LAYER
70
2
0
LAYER
2
CUT
70
0
62
1
6
CONTINUOUS
0
LAYER
2
RASTER
70
0
62
7
6
CONTINUOUS
0
ENDTAB
0
ENDSEC
0
SECTION
2
ENTITIES
0
POLYLINE
8
CUT
66
1
70
1
0
VERTEX
8
CUT
10
4
20
11.9
30
0
0
VERTEX
8
CUT
10
12
20
11.9
30
0
0
VERTEX
8
CUT
10
12
20
23.9
30
0
0
VERTEX
8
CUT
10
13.2
20
23.9
30
0
0
VERTEX
8
CUT
10
13.2
20
22.9
30
0
0
VERTEX
8
CUT
10
20
20
12.9
30
0
0
VERTEX
8
CUT
10
13.2
20
12.9
30
0
0
VERTEX
8
CUT
10
13.2
20
11.9
30
0
0
VERTEX
8
CUT
10
21
20
11.9
30
0
0
VERTEX
8
CUT
10
19
20
6.9
30
0
0
VERTEX
8
CUT
10
15
20
6.9
30
0
0
VERTEX
8
CUT
10
15
20
4
30
0
0
VERTEX
8
CUT
10
9
20
4
30
0
0
VERTEX
8
CUT
10
9
20
6.9
30
0
0
VERTEX
8
CUT
10
6
20
6.9
30
0
0
SEQEND
8
CUT
0
POLYLINE
8
RASTER
66
1
70
1
0
VERTEX
8
RASTER
10
5.5
20
10.4
30
0
0
VERTEX
8
RASTER
10
20
20
10.4
30
0
0
VERTEX
8
RASTER
10
20
20
9.8
30
0
0
VERTEX
8
RASTER
10
5.5
20
9.8
30
0
0
SEQEND
8
RASTER
0
POLYLINE
8
RASTER
66
1
70
1
0
VERTEX
8
RASTER
10
6.5
20
8.7
30
0
0
VERTEX
8
RASTER
10
18.5
20
8.7
30
0
0
VERTEX
8
RASTER
10
18.5
20
8.1
30
0
0
VERTEX
8
RASTER
10
6.5
20
8.1
30
0
0
SEQEND
8
RASTER
0
CIRCLE
8
RASTER
10
16.2
20
17.1
30
0
40
0.72
0
POLYLINE
8
CUT
66
1
70
1
0
VERTEX
8
CUT
10
25
20
21.9
30
0
0
VERTEX
8
CUT
10
25.031
20
22.369
30
0
0
VERTEX
8
CUT
10
25.125
20
22.775
30
0
0
VERTEX
8
CUT
10
25.281
20
23.119
30
0
0
VERTEX
8
CUT
10
25.5
20
23.4
30
0
0
VERTEX
8
CUT
10
25.781
20
23.619
30
0
0
VERTEX
8
CUT
10
26.125
20
23.775
30
0
0
VERTEX
8
CUT
10
26.531
20
23.869
30
0
0
VERTEX
8
CUT
10
27
20
23.9
30
0
0
VERTEX
8
CUT
10
41
20
23.9
30
0
0
VERTEX
8
CUT
10
41.469
20
23.869
30
0
0
VERTEX
8
CUT
10
41.875
20
23.775
30
0
0
VERTEX
8
CUT
10
42.219
20
23.619
30
0
0
VERTEX
8
CUT
10
42.5
20
23.4
30
0
0
VERTEX
8
CUT
10
42.719
20
23.119
30
0
0
VERTEX
8
CUT
10
42.875
20
22.775
30
0
0
VERTEX
8
CUT
10
42.969
20
22.369
30
0
0
VERTEX
8
CUT
10
43
20
21.9
30
0
0
VERTEX
8
CUT
10
43
20
16.9
30
0
0
VERTEX
8
CUT
10
42.969
20
16.431
30
0
0
VERTEX
8
CUT
10
42.875
20
16.025
30
0
0
VERTEX
8
CUT
10
42.719
20
15.681
30
0
0
VERTEX
8
CUT
10
42.5
20
15.4
30
0
0
VERTEX
8
CUT
10
42.219
20
15.181
30
0
0
VERTEX
8
CUT
10
41.875
20
15.025
30
0
0
VERTEX
8
CUT
10
41.469
20
14.931
30
0
0
VERTEX
8
CUT
10
41
20
14.9
30
0
0
VERTEX
8
CUT
10
27
20
14.9
30
0
0
VERTEX
8
CUT
10
26.531
20
14.931
30
0
0
VERTEX
8
CUT
10
26.125
20
15.025
30
0
0
VERTEX
8
CUT
10
25.781
20
15.181
30
0
0
VERTEX
8
CUT
10
25.5
20
15.4
30
0
0
VERTEX
8
CUT
10
25.281
20
15.681
30
0
0
VERTEX
8
CUT
10
25.125
20
16.025
30
0
0
VERTEX
8
CUT
10
25.031
20
16.431
30
0
0
VERTEX
8
CUT
10
25
20
16.9
30
0
0
SEQEND
8
CUT
0
POLYLINE
8
CUT
66
1
70
1
0
VERTEX
8
CUT
10
32.425
20
22.5
30
0
0
VERTEX
8
CUT
10
35.575
20
22.5
30
0
0
VERTEX
8
CUT
10
35.575
20
16.3
30
0
0
VERTEX
8
CUT
10
32.425
20
16.3
30
0
0
SEQEND
8
CUT
0
POLYLINE
8
CUT
66
1
70
1
0
VERTEX
8
CUT
10
47
20
11.9
30
0
0
VERTEX
8
CUT
10
55
20
11.9
30
0
0
VERTEX
8
CUT
10
55
20
23.9
30
0
0
VERTEX
8
CUT
10
56.2
20
23.9
30
0
0
VERTEX
8
CUT
10
56.2
20
22.9
30
0
0
VERTEX
8
CUT
10
63
20
12.9
30
0
0
VERTEX
8
CUT
10
56.2
20
12.9
30
0
0
VERTEX
8
CUT
10
56.2
20
11.9
30
0
0
VERTEX
8
CUT
10
64
20
11.9
30
0
0
VERTEX
8
CUT
10
62
20
6.9
30
0
0
VERTEX
8
CUT
10
58
20
6.9
30
0
0
VERTEX
8
CUT
10
58
20
4
30
0
0
VERTEX
8
CUT
10
52
20
4
30
0
0
VERTEX
8
CUT
10
52
20
6.9
30
0
0
VERTEX
8
CUT
10
49
20
6.9
30
0
0
SEQEND
8
CUT
0
POLYLINE
8
RASTER
66
1
70
1
0
VERTEX
8
RASTER
10
48.5
20
10.4
30
0
0
VERTEX
8
RASTER
10
63
20
10.4
30
0
0
VERTEX
8
RASTER
10
63
20
9.8
30
0
0
VERTEX
8
RASTER
10
48.5
20
9.8
30
0
0
SEQEND
8
RASTER
0
POLYLINE
8
RASTER
66
1
70
1
0
VERTEX
8
RASTER
10
49.5
20
8.7
30
0
0
VERTEX
8
RASTER
10
61.5
20
8.7
30
0
0
VERTEX
8
RASTER
10
61.5
20
8.1
30
0
0
VERTEX
8
RASTER
10
49.5
20
8.1
30
0
0
SEQEND
8
RASTER
0
POLYLINE
8
RASTER
66
1
70
1
0
VERTEX
8
RASTER
10
57.7
20
17.6
30
0
0
VERTEX
8
RASTER
10
58.6
20
17.6
30
0
0
VERTEX
8
RASTER
10
58.6
20
16.7
30
0
0
VERTEX
8
RASTER
10
57.7
20
16.7
30
0
0
SEQEND
8
RASTER
0
POLYLINE
8
RASTER
66
1
70
1
0
VERTEX
8
RASTER
10
57.7
20
15.4
30
0
0
VERTEX
8
RASTER
10
58.6
20
15.4
30
0
0
VERTEX
8
RASTER
10
58.6
20
14.5
30
0
0
VERTEX
8
RASTER
10
57.7
20
14.5
30
0
0
SEQEND
8
RASTER
0
POLYLINE
8
RASTER
66
1
70
1
0
VERTEX
8
RASTER
10
58.8
20
15.4
30
0
0
VERTEX
8
RASTER
10
59.7
20
15.4
30
0
0
VERTEX
8
RASTER
10
59.7
20
14.5
30
0
0
VERTEX
8
RASTER
10
58.8
20
14.5
30
0
0
SEQEND
8
RASTER
0
POLYLINE
8
CUT
66
1
70
1
0
VERTEX
8
CUT
10
68
20
21.9
30
0
0
VERTEX
8
CUT
10
68.031
20
22.369
30
0
0
VERTEX
8
CUT
10
68.125
20
22.775
30
0
0
VERTEX
8
CUT
10
68.281
20
23.119
30
0
0
VERTEX
8
CUT
10
68.5
20
23.4
30
0
0
VERTEX
8
CUT
10
68.781
20
23.619
30
0
0
VERTEX
8
CUT
10
69.125
20
23.775
30
0
0
VERTEX
8
CUT
10
69.531
20
23.869
30
0
0
VERTEX
8
CUT
10
70
20
23.9
30
0
0
VERTEX
8
CUT
10
84
20
23.9
30
0
0
VERTEX
8
CUT
10
84.469
20
23.869
30
0
0
VERTEX
8
CUT
10
84.875
20
23.775
30
0
0
VERTEX
8
CUT
10
85.219
20
23.619
30
0
0
VERTEX
8
CUT
10
85.5
20
23.4
30
0
0
VERTEX
8
CUT
10
85.719
20
23.119
30
0
0
VERTEX
8
CUT
10
85.875
20
22.775
30
0
0
VERTEX
8
CUT
10
85.969
20
22.369
30
0
0
VERTEX
8
CUT
10
86
20
21.9
30
0
0
VERTEX
8
CUT
10
86
20
16.9
30
0
0
VERTEX
8
CUT
10
85.969
20
16.431
30
0
0
VERTEX
8
CUT
10
85.875
20
16.025
30
0
0
VERTEX
8
CUT
10
85.719
20
15.681
30
0
0
VERTEX
8
CUT
10
85.5
20
15.4
30
0
0
VERTEX
8
CUT
10
85.219
20
15.181
30
0
0
VERTEX
8
CUT
10
84.875
20
15.025
30
0
0
VERTEX
8
CUT
10
84.469
20
14.931
30
0
0
VERTEX
8
CUT
10
84
20
14.9
30
0
0
VERTEX
8
CUT
10
70
20
14.9
30
0
0
VERTEX
8
CUT
10
69.531
20
14.931
30
0
0
VERTEX
8
CUT
10
69.125
20
15.025
30
0
0
VERTEX
8
CUT
10
68.781
20
15.181
30
0
0
VERTEX
8
CUT
10
68.5
20
15.4
30
0
0
VERTEX
8
CUT
10
68.281
20
15.681
30
0
0
VERTEX
8
CUT
10
68.125
20
16.025
30
0
0
VERTEX
8
CUT
10
68.031
20
16.431
30
0
0
VERTEX
8
CUT
10
68
20
16.9
30
0
0
SEQEND
8
CUT
0
POLYLINE
8
CUT
66
1
70
1
0
VERTEX
8
CUT
10
75.425
20
22.5
30
0
0
VERTEX
8
CUT
10
78.575
20
22.5
30
0
0
VERTEX
8
CUT
10
78.575
20
16.3
30
0
0
VERTEX
8
CUT
10
75.425
20
16.3
30
0
0
SEQEND
8
CUT
0
POLYLINE
8
CUT
66
1
70
1
0
VERTEX
8
CUT
10
90
20
11.9
30
0
0
VERTEX
8
CUT
10
98
20
11.9
30
0
0
VERTEX
8
CUT
10
98
20
23.9
30
0
0
VERTEX
8
CUT
10
99.2
20
23.9
30
0
0
VERTEX
8
CUT
10
99.2
20
22.9
30
0
0
VERTEX
8
CUT
10
106
20
12.9
30
0
0
VERTEX
8
CUT
10
99.2
20
12.9
30
0
0
VERTEX
8
CUT
10
99.2
20
11.9
30
0
0
VERTEX
8
CUT
10
107
20
11.9
30
0
0
VERTEX
8
CUT
10
105
20
6.9
30
0
0
VERTEX
8
CUT
10
101
20
6.9
30
0
0
VERTEX
8
CUT
10
101
20
4
30
0
0
VERTEX
8
CUT
10
95
20
4
30
0
0
VERTEX
8
CUT
10
95
20
6.9
30
0
0
VERTEX
8
CUT
10
92
20
6.9
30
0
0
SEQEND
8
CUT
0
POLYLINE
8
RASTER
66
1
70
1
0
VERTEX
8
RASTER
10
91.5
20
10.4
30
0
0
VERTEX
8
RASTER
10
106
20
10.4
30
0
0
VERTEX
8
RASTER
10
106
20
9.8
30
0
0
VERTEX
8
RASTER
10
91.5
20
9.8
30
0
0
SEQEND
8
RASTER
0
POLYLINE
8
RASTER
66
1
70
1
0
VERTEX
8
RASTER
10
92.5
20
8.7
30
0
0
VERTEX
8
RASTER
10
104.5
20
8.7
30
0
0
VERTEX
8
RASTER
10
104.5
20
8.1
30
0
0
VERTEX
8
RASTER
10
92.5
20
8.1
30
0
0
SEQEND
8
RASTER
0
CIRCLE
8
RASTER
10
101.15
20
17.15
30
0
40
0.32
0
CIRCLE
8
RASTER
10
101.15
20
16.05
30
0
40
0.32
0
CIRCLE
8
RASTER
10
101.15
20
14.95
30
0
40
0.32
0
CIRCLE
8
RASTER
10
102.25
20
14.95
30
0
40
0.32
0
POLYLINE
8
CUT
66
1
70
1
0
VERTEX
8
CUT
10
111
20
21.9
30
0
0
VERTEX
8
CUT
10
111.031
20
22.369
30
0
0
VERTEX
8
CUT
10
111.125
20
22.775
30
0
0
VERTEX
8
CUT
10
111.281
20
23.119
30
0
0
VERTEX
8
CUT
10
111.5
20
23.4
30
0
0
VERTEX
8
CUT
10
111.781
20
23.619
30
0
0
VERTEX
8
CUT
10
112.125
20
23.775
30
0
0
VERTEX
8
CUT
10
112.531
20
23.869
30
0
0
VERTEX
8
CUT
10
113
20
23.9
30
0
0
VERTEX
8
CUT
10
127
20
23.9
30
0
0
VERTEX
8
CUT
10
127.469
20
23.869
30
0
0
VERTEX
8
CUT
10
127.875
20
23.775
30
0
0
VERTEX
8
CUT
10
128.219
20
23.619
30
0
0
VERTEX
8
CUT
10
128.5
20
23.4
30
0
0
VERTEX
8
CUT
10
128.719
20
23.119
30
0
0
VERTEX
8
CUT
10
128.875
20
22.775
30
0
0
VERTEX
8
CUT
10
128.969
20
22.369
30
0
0
VERTEX
8
CUT
10
129
20
21.9
30
0
0
VERTEX
8
CUT
10
129
20
16.9
30
0
0
VERTEX
8
CUT
10
128.969
20
16.431
30
0
0
VERTEX
8
CUT
10
128.875
20
16.025
30
0
0
VERTEX
8
CUT
10
128.719
20
15.681
30
0
0
VERTEX
8
CUT
10
128.5
20
15.4
30
0
0
VERTEX
8
CUT
10
128.219
20
15.181
30
0
0
VERTEX
8
CUT
10
127.875
20
15.025
30
0
0
VERTEX
8
CUT
10
127.469
20
14.931
30
0
0
VERTEX
8
CUT
10
127
20
14.9
30
0
0
VERTEX
8
CUT
10
113
20
14.9
30
0
0
VERTEX
8
CUT
10
112.531
20
14.931
30
0
0
VERTEX
8
CUT
10
112.125
20
15.025
30
0
0
VERTEX
8
CUT
10
111.781
20
15.181
30
0
0
VERTEX
8
CUT
10
111.5
20
15.4
30
0
0
VERTEX
8
CUT
10
111.281
20
15.681
30
0
0
VERTEX
8
CUT
10
111.125
20
16.025
30
0
0
VERTEX
8
CUT
10
111.031
20
16.431
30
0
0
VERTEX
8
CUT
10
111
20
16.9
30
0
0
SEQEND
8
CUT
0
POLYLINE
8
CUT
66
1
70
1
0
VERTEX
8
CUT
10
118.425
20
22.5
30
0
0
VERTEX
8
CUT
10
121.575
20
22.5
30
0
0
VERTEX
8
CUT
10
121.575
20
16.3
30
0
0
VERTEX
8
CUT
10
118.425
20
16.3
30
0
0
SEQEND
8
CUT
0
POLYLINE
8
CUT
66
1
70
1
0
VERTEX
8
CUT
10
133
20
11.9
30
0
0
VERTEX
8
CUT
10
141
20
11.9
30
0
0
VERTEX
8
CUT
10
141
20
23.9
30
0
0
VERTEX
8
CUT
10
142.2
20
23.9
30
0
0
VERTEX
8
CUT
10
142.2
20
22.9
30
0
0
VERTEX
8
CUT
10
149
20
12.9
30
0
0
VERTEX
8
CUT
10
142.2
20
12.9
30
0
0
VERTEX
8
CUT
10
142.2
20
11.9
30
0
0
VERTEX
8
CUT
10
150
20
11.9
30
0
0
VERTEX
8
CUT
10
148
20
6.9
30
0
0
VERTEX
8
CUT
10
144
20
6.9
30
0
0
VERTEX
8
CUT
10
144
20
4
30
0
0
VERTEX
8
CUT
10
138
20
4
30
0
0
VERTEX
8
CUT
10
138
20
6.9
30
0
0
VERTEX
8
CUT
10
135
20
6.9
30
0
0
SEQEND
8
CUT
0
POLYLINE
8
RASTER
66
1
70
1
0
VERTEX
8
RASTER
10
134.5
20
10.4
30
0
0
VERTEX
8
RASTER
10
149
20
10.4
30
0
0
VERTEX
8
RASTER
10
149
20
9.8
30
0
0
VERTEX
8
RASTER
10
134.5
20
9.8
30
0
0
SEQEND
8
RASTER
0
POLYLINE
8
RASTER
66
1
70
1
0
VERTEX
8
RASTER
10
135.5
20
8.7
30
0
0
VERTEX
8
RASTER
10
147.5
20
8.7
30
0
0
VERTEX
8
RASTER
10
147.5
20
8.1
30
0
0
VERTEX
8
RASTER
10
135.5
20
8.1
30
0
0
SEQEND
8
RASTER
0
POLYLINE
8
RASTER
66
1
70
1
0
VERTEX
8
RASTER
10
143.7
20
17.6
30
0
0
VERTEX
8
RASTER
10
144.6
20
17.6
30
0
0
VERTEX
8
RASTER
10
144.6
20
16.7
30
0
0
VERTEX
8
RASTER
10
143.7
20
16.7
30
0
0
SEQEND
8
RASTER
0
POLYLINE
8
RASTER
66
1
70
1
0
VERTEX
8
RASTER
10
143.7
20
15.4
30
0
0
VERTEX
8
RASTER
10
144.6
20
15.4
30
0
0
VERTEX
8
RASTER
10
144.6
20
14.5
30
0
0
VERTEX
8
RASTER
10
143.7
20
14.5
30
0
0
SEQEND
8
RASTER
0
POLYLINE
8
CUT
66
1
70
1
0
VERTEX
8
CUT
10
154
20
21.9
30
0
0
VERTEX
8
CUT
10
154.031
20
22.369
30
0
0
VERTEX
8
CUT
10
154.125
20
22.775
30
0
0
VERTEX
8
CUT
10
154.281
20
23.119
30
0
0
VERTEX
8
CUT
10
154.5
20
23.4
30
0
0
VERTEX
8
CUT
10
154.781
20
23.619
30
0
0
VERTEX
8
CUT
10
155.125
20
23.775
30
0
0
VERTEX
8
CUT
10
155.531
20
23.869
30
0
0
VERTEX
8
CUT
10
156
20
23.9
30
0
0
VERTEX
8
CUT
10
170
20
23.9
30
0
0
VERTEX
8
CUT
10
170.469
20
23.869
30
0
0
VERTEX
8
CUT
10
170.875
20
23.775
30
0
0
VERTEX
8
CUT
10
171.219
20
23.619
30
0
0
VERTEX
8
CUT
10
171.5
20
23.4
30
0
0
VERTEX
8
CUT
10
171.719
20
23.119
30
0
0
VERTEX
8
CUT
10
171.875
20
22.775
30
0
0
VERTEX
8
CUT
10
171.969
20
22.369
30
0
0
VERTEX
8
CUT
10
172
20
21.9
30
0
0
VERTEX
8
CUT
10
172
20
16.9
30
0
0
VERTEX
8
CUT
10
171.969
20
16.431
30
0
0
VERTEX
8
CUT
10
171.875
20
16.025
30
0
0
VERTEX
8
CUT
10
171.719
20
15.681
30
0
0
VERTEX
8
CUT
10
171.5
20
15.4
30
0
0
VERTEX
8
CUT
10
171.219
20
15.181
30
0
0
VERTEX
8
CUT
10
170.875
20
15.025
30
0
0
VERTEX
8
CUT
10
170.469
20
14.931
30
0
0
VERTEX
8
CUT
10
170
20
14.9
30
0
0
VERTEX
8
CUT
10
156
20
14.9
30
0
0
VERTEX
8
CUT
10
155.531
20
14.931
30
0
0
VERTEX
8
CUT
10
155.125
20
15.025
30
0
0
VERTEX
8
CUT
10
154.781
20
15.181
30
0
0
VERTEX
8
CUT
10
154.5
20
15.4
30
0
0
VERTEX
8
CUT
10
154.281
20
15.681
30
0
0
VERTEX
8
CUT
10
154.125
20
16.025
30
0
0
VERTEX
8
CUT
10
154.031
20
16.431
30
0
0
VERTEX
8
CUT
10
154
20
16.9
30
0
0
SEQEND
8
CUT
0
POLYLINE
8
CUT
66
1
70
1
0
VERTEX
8
CUT
10
161.425
20
22.5
30
0
0
VERTEX
8
CUT
10
164.575
20
22.5
30
0
0
VERTEX
8
CUT
10
164.575
20
16.3
30
0
0
VERTEX
8
CUT
10
161.425
20
16.3
30
0
0
SEQEND
8
CUT
0
ENDSEC
0
EOF
