0
SECTION
2
HEADER
9
$ACADVER
1
AC1009
9
$EXTMIN
10
0
20
0
9
$EXTMAX
10
96.8
20
27.2
0
ENDSEC
0
SECTION
2
TABLES
0
TABLE
2
LAYER
70
2
0
LAYER
2
CUT
70
0
62
1
6
CONTINUOUS
0
LAYER
2
RASTER
70
0
62
7
6
CONTINUOUS
0
ENDTAB
0
ENDSEC
0
SECTION
2
ENTITIES
0
POLYLINE
8
CUT
66
1
70
1
0
VERTEX
8
CUT
10
4
20
21.2
30
0
0
VERTEX
8
CUT
10
4.031
20
21.669
30
0
0
VERTEX
8
CUT
10
4.125
20
22.075
30
0
0
VERTEX
8
CUT
10
4.281
20
22.419
30
0
0
VERTEX
8
CUT
10
4.5
20
22.7
30
0
0
VERTEX
8
CUT
10
4.781
20
22.919
30
0
0
VERTEX
8
CUT
10
5.125
20
23.075
30
0
0
VERTEX
8
CUT
10
5.531
20
23.169
30
0
0
VERTEX
8
CUT
10
6
20
23.2
30
0
0
VERTEX
8
CUT
10
21.2
20
23.2
30
0
0
VERTEX
8
CUT
10
21.669
20
23.169
30
0
0
VERTEX
8
CUT
10
22.075
20
23.075
30
0
0
VERTEX
8
CUT
10
22.419
20
22.919
30
0
0
VERTEX
8
CUT
10
22.7
20
22.7
30
0
0
VERTEX
8
CUT
10
22.919
20
22.419
30
0
0
VERTEX
8
CUT
10
23.075
20
22.075
30
0
0
VERTEX
8
CUT
10
23.169
20
21.669
30
0
0
VERTEX
8
CUT
10
23.2
20
21.2
30
0
0
VERTEX
8
CUT
10
23.2
20
6
30
0
0
VERTEX
8
CUT
10
23.169
20
5.531
30
0
0
VERTEX
8
CUT
10
23.075
20
5.125
30
0
0
VERTEX
8
CUT
10
22.919
20
4.781
30
0
0
VERTEX
8
CUT
10
22.7
20
4.5
30
0
0
VERTEX
8
CUT
10
22.419
20
4.281
30
0
0
VERTEX
8
CUT
10
22.075
20
4.125
30
0
0
VERTEX
8
CUT
10
21.669
20
4.031
30
0
0
VERTEX
8
CUT
10
21.2
20
4
30
0
0
VERTEX
8
CUT
10
6
20
4
30
0
0
VERTEX
8
CUT
10
5.531
20
4.031
30
0
0
VERTEX
8
CUT
10
5.125
20
4.125
30
0
0
VERTEX
8
CUT
10
4.781
20
4.281
30
0
0
VERTEX
8
CUT
10
4.5
20
4.5
30
0
0
VERTEX
8
CUT
10
4.281
20
4.781
30
0
0
VERTEX
8
CUT
10
4.125
20
5.125
30
0
0
VERTEX
8
CUT
10
4.031
20
5.531
30
0
0
VERTEX
8
CUT
10
4
20
6
30
0
0
SEQEND
8
CUT
0
POLYLINE
8
RASTER
66
1
70
1
0
VERTEX
8
RASTER
10
15.15
20
13.6
30
0
0
VERTEX
8
RASTER
10
15.195
20
13.347
30
0
0
VERTEX
8
RASTER
10
15.198
20
13.081
30
0
0
VERTEX
8
RASTER
10
15.155
20
12.808
30
0
0
VERTEX
8
RASTER
10
15.065
20
12.536
30
0
0
VERTEX
8
RASTER
10
14.926
20
12.274
30
0
0
VERTEX
8
RASTER
10
14.741
20
12.03
30
0
0
VERTEX
8
RASTER
10
14.511
20
11.813
30
0
0
VERTEX
8
RASTER
10
14.24
20
11.63
30
0
0
VERTEX
8
RASTER
10
13.934
20
11.49
30
0
0
VERTEX
8
RASTER
10
13.6
20
11.399
30
0
0
VERTEX
8
RASTER
10
13.245
20
11.361
30
0
0
VERTEX
8
RASTER
10
12.879
20
11.382
30
0
0
VERTEX
8
RASTER
10
12.512
20
11.464
30
0
0
VERTEX
8
RASTER
10
12.153
20
11.608
30
0
0
VERTEX
8
RASTER
10
11.813
20
11.813
30
0
0
VERTEX
8
RASTER
10
11.503
20
12.076
30
0
0
VERTEX
8
RASTER
10
11.232
20
12.394
30
0
0
VERTEX
8
RASTER
10
11.011
20
12.759
30
0
0
VERTEX
8
RASTER
10
10.847
20
13.164
30
0
0
VERTEX
8
RASTER
10
10.747
20
13.6
30
0
0
VERTEX
8
RASTER
10
10.718
20
14.056
30
0
0
VERTEX
8
RASTER
10
10.763
20
14.522
30
0
0
VERTEX
8
RASTER
10
10.884
20
14.984
30
0
0
VERTEX
8
RASTER
10
11.081
20
15.43
30
0
0
VERTEX
8
RASTER
10
11.352
20
15.848
30
0
0
VERTEX
8
RASTER
10
11.693
20
16.224
30
0
0
VERTEX
8
RASTER
10
12.098
20
16.548
30
0
0
VERTEX
8
RASTER
10
12.557
20
16.809
30
0
0
VERTEX
8
RASTER
10
13.062
20
16.997
30
0
0
VERTEX
8
RASTER
10
13.6
20
17.104
30
0
0
VERTEX
8
RASTER
10
14.158
20
17.125
30
0
0
VERTEX
8
RASTER
10
14.723
20
17.057
30
0
0
VERTEX
8
RASTER
10
15.28
20
16.896
30
0
0
VERTEX
8
RASTER
10
15.813
20
16.646
30
0
0
VERTEX
8
RASTER
10
16.308
20
16.308
30
0
0
VERTEX
8
RASTER
10
16.751
20
15.889
30
0
0
VERTEX
8
RASTER
10
17.129
20
15.398
30
0
0
VERTEX
8
RASTER
10
17.428
20
14.844
30
0
0
VERTEX
8
RASTER
10
17.64
20
14.24
30
0
0
VERTEX
8
RASTER
10
17.756
20
13.6
30
0
0
VERTEX
8
RASTER
10
17.769
20
12.94
30
0
0
VERTEX
8
RASTER
10
17.676
20
12.276
30
0
0
VERTEX
8
RASTER
10
17.477
20
11.625
30
0
0
VERTEX
8
RASTER
10
17.173
20
11.004
30
0
0
VERTEX
8
RASTER
10
16.769
20
10.431
30
0
0
VERTEX
8
RASTER
10
16.272
20
9.922
30
0
0
VERTEX
8
RASTER
10
15.694
20
9.491
30
0
0
VERTEX
8
RASTER
10
15.045
20
9.152
30
0
0
VERTEX
8
RASTER
10
14.342
20
8.917
30
0
0
VERTEX
8
RASTER
10
13.6
20
8.793
30
0
0
VERTEX
8
RASTER
10
12.838
20
8.788
30
0
0
VERTEX
8
RASTER
10
12.074
20
8.904
30
0
0
VERTEX
8
RASTER
10
11.329
20
9.143
30
0
0
VERTEX
8
RASTER
10
10.621
20
9.5
30
0
0
VERTEX
8
RASTER
10
9.971
20
9.971
30
0
0
VERTEX
8
RASTER
10
9.395
20
10.545
30
0
0
VERTEX
8
RASTER
10
8.911
20
11.211
30
0
0
VERTEX
8
RASTER
10
8.533
20
11.954
30
0
0
VERTEX
8
RASTER
10
8.273
20
12.756
30
0
0
VERTEX
8
RASTER
10
8.142
20
13.6
30
0
0
VERTEX
8
RASTER
10
8.144
20
14.464
30
0
0
VERTEX
8
RASTER
10
8.285
20
15.327
30
0
0
VERTEX
8
RASTER
10
8.562
20
16.167
30
0
0
VERTEX
8
RASTER
10
8.973
20
16.962
30
0
0
VERTEX
8
RASTER
10
9.51
20
17.69
30
0
0
VERTEX
8
RASTER
10
10.162
20
18.332
30
0
0
VERTEX
8
RASTER
10
10.915
20
18.87
30
0
0
VERTEX
8
RASTER
10
11.752
20
19.287
30
0
0
VERTEX
8
RASTER
10
12.654
20
19.57
30
0
0
VERTEX
8
RASTER
10
13.6
20
19.71
30
0
0
VERTEX
8
RASTER
10
14.566
20
19.699
30
0
0
VERTEX
8
RASTER
10
15.528
20
19.535
30
0
0
VERTEX
8
RASTER
10
16.463
20
19.218
30
0
0
VERTEX
8
RASTER
10
17.344
20
18.754
30
0
0
VERTEX
8
RASTER
10
18.151
20
18.151
30
0
0
VERTEX
8
RASTER
10
18.859
20
17.421
30
0
0
VERTEX
8
RASTER
10
19.45
20
16.581
30
0
0
VERTEX
8
RASTER
10
19.906
20
15.649
30
0
0
VERTEX
8
RASTER
10
20.214
20
14.647
30
0
0
VERTEX
8
RASTER
10
20.361
20
13.6
30
0
0
VERTEX
8
RASTER
10
20.342
20
12.532
30
0
0
VERTEX
8
RASTER
10
20.154
20
11.47
30
0
0
VERTEX
8
RASTER
10
19.798
20
10.442
30
0
0
VERTEX
8
RASTER
10
19.281
20
9.473
30
0
0
VERTEX
8
RASTER
10
18.611
20
8.589
30
0
0
VERTEX
8
RASTER
10
17.804
20
7.814
30
0
0
VERTEX
8
RASTER
10
16.877
20
7.169
30
0
0
VERTEX
8
RASTER
10
15.85
20
6.674
30
0
0
VERTEX
8
RASTER
10
14.749
20
6.343
30
0
0
VERTEX
8
RASTER
10
13.6
20
6.187
30
0
0
VERTEX
8
RASTER
10
12.43
20
6.214
30
0
0
VERTEX
8
RASTER
10
11.269
20
6.426
30
0
0
VERTEX
8
RASTER
10
10.146
20
6.821
30
0
0
VERTEX
8
RASTER
10
9.09
20
7.392
30
0
0
VERTEX
8
RASTER
10
8.128
20
8.128
30
0
0
VERTEX
8
RASTER
10
7.287
20
9.013
30
0
0
VERTEX
8
RASTER
10
6.589
20
10.028
30
0
0
VERTEX
8
RASTER
10
6.055
20
11.148
30
0
0
VERTEX
8
RASTER
10
5.7
20
12.349
30
0
0
VERTEX
8
RASTER
10
5.536
20
13.6
30
0
0
VERTEX
8
RASTER
10
6.636
20
13.6
30
0
0
VERTEX
8
RASTER
10
6.786
20
12.521
30
0
0
VERTEX
8
RASTER
10
7.101
20
11.488
30
0
0
VERTEX
8
RASTER
10
7.569
20
10.527
30
0
0
VERTEX
8
RASTER
10
8.177
20
9.66
30
0
0
VERTEX
8
RASTER
10
8.906
20
8.906
30
0
0
VERTEX
8
RASTER
10
9.736
20
8.282
30
0
0
VERTEX
8
RASTER
10
10.645
20
7.801
30
0
0
VERTEX
8
RASTER
10
11.609
20
7.472
30
0
0
VERTEX
8
RASTER
10
12.602
20
7.301
30
0
0
VERTEX
8
RASTER
10
13.6
20
7.287
30
0
0
VERTEX
8
RASTER
10
14.577
20
7.429
30
0
0
VERTEX
8
RASTER
10
15.51
20
7.72
30
0
0
VERTEX
8
RASTER
10
16.377
20
8.15
30
0
0
VERTEX
8
RASTER
10
17.157
20
8.704
30
0
0
VERTEX
8
RASTER
10
17.833
20
9.367
30
0
0
VERTEX
8
RASTER
10
18.391
20
10.119
30
0
0
VERTEX
8
RASTER
10
18.818
20
10.941
30
0
0
VERTEX
8
RASTER
10
19.108
20
11.81
30
0
0
VERTEX
8
RASTER
10
19.256
20
12.704
30
0
0
VERTEX
8
RASTER
10
19.261
20
13.6
30
0
0
VERTEX
8
RASTER
10
19.127
20
14.475
30
0
0
VERTEX
8
RASTER
10
18.86
20
15.309
30
0
0
VERTEX
8
RASTER
10
18.47
20
16.081
30
0
0
VERTEX
8
RASTER
10
17.969
20
16.774
30
0
0
VERTEX
8
RASTER
10
17.373
20
17.373
30
0
0
VERTEX
8
RASTER
10
16.698
20
17.864
30
0
0
VERTEX
8
RASTER
10
15.963
20
18.238
30
0
0
VERTEX
8
RASTER
10
15.188
20
18.489
30
0
0
VERTEX
8
RASTER
10
14.394
20
18.612
30
0
0
VERTEX
8
RASTER
10
13.6
20
18.61
30
0
0
VERTEX
8
RASTER
10
12.826
20
18.484
30
0
0
VERTEX
8
RASTER
10
12.092
20
18.241
30
0
0
VERTEX
8
RASTER
10
11.414
20
17.89
30
0
0
VERTEX
8
RASTER
10
10.808
20
17.442
30
0
0
VERTEX
8
RASTER
10
10.288
20
16.912
30
0
0
VERTEX
8
RASTER
10
9.863
20
16.315
30
0
0
VERTEX
8
RASTER
10
9.543
20
15.667
30
0
0
VERTEX
8
RASTER
10
9.331
20
14.987
30
0
0
VERTEX
8
RASTER
10
9.231
20
14.292
30
0
0
VERTEX
8
RASTER
10
9.242
20
13.6
30
0
0
VERTEX
8
RASTER
10
9.36
20
12.928
30
0
0
VERTEX
8
RASTER
10
9.579
20
12.293
30
0
0
VERTEX
8
RASTER
10
9.891
20
11.71
30
0
0
VERTEX
8
RASTER
10
10.285
20
11.191
30
0
0
VERTEX
8
RASTER
10
10.748
20
10.748
30
0
0
VERTEX
8
RASTER
10
11.268
20
10.39
30
0
0
VERTEX
8
RASTER
10
11.828
20
10.123
30
0
0
VERTEX
8
RASTER
10
12.414
20
9.951
30
0
0
VERTEX
8
RASTER
10
13.01
20
9.874
30
0
0
VERTEX
8
RASTER
10
13.6
20
9.893
30
0
0
VERTEX
8
RASTER
10
14.17
20
10.003
30
0
0
VERTEX
8
RASTER
10
14.705
20
10.198
30
0
0
VERTEX
8
RASTER
10
15.194
20
10.471
30
0
0
VERTEX
8
RASTER
10
15.626
20
10.812
30
0
0
VERTEX
8
RASTER
10
15.991
20
11.209
30
0
0
VERTEX
8
RASTER
10
16.283
20
11.651
30
0
0
VERTEX
8
RASTER
10
16.497
20
12.124
30
0
0
VERTEX
8
RASTER
10
16.63
20
12.616
30
0
0
VERTEX
8
RASTER
10
16.682
20
13.112
30
0
0
VERTEX
8
RASTER
10
16.656
20
13.6
30
0
0
VERTEX
8
RASTER
10
16.554
20
14.068
30
0
0
VERTEX
8
RASTER
10
16.382
20
14.504
30
0
0
VERTEX
8
RASTER
10
16.148
20
14.898
30
0
0
VERTEX
8
RASTER
10
15.861
20
15.243
30
0
0
VERTEX
8
RASTER
10
15.53
20
15.53
30
0
0
VERTEX
8
RASTER
10
15.166
20
15.756
30
0
0
VERTEX
8
RASTER
10
14.78
20
15.916
30
0
0
VERTEX
8
RASTER
10
14.383
20
16.01
30
0
0
VERTEX
8
RASTER
10
13.986
20
16.039
30
0
0
VERTEX
8
RASTER
10
13.6
20
16.004
30
0
0
VERTEX
8
RASTER
10
13.234
20
15.91
30
0
0
VERTEX
8
RASTER
10
12.897
20
15.763
30
0
0
VERTEX
8
RASTER
10
12.597
20
15.568
30
0
0
VERTEX
8
RASTER
10
12.34
20
15.334
30
0
0
VERTEX
8
RASTER
10
12.13
20
15.07
30
0
0
VERTEX
8
RASTER
10
11.971
20
14.783
30
0
0
VERTEX
8
RASTER
10
11.864
20
14.484
30
0
0
VERTEX
8
RASTER
10
11.809
20
14.182
30
0
0
VERTEX
8
RASTER
10
11.804
20
13.884
30
0
0
VERTEX
8
RASTER
10
11.847
20
13.6
30
0
0
VERTEX
8
RASTER
10
11.933
20
13.336
30
0
0
VERTEX
8
RASTER
10
12.057
20
13.099
30
0
0
VERTEX
8
RASTER
10
12.212
20
12.893
30
0
0
VERTEX
8
RASTER
10
12.393
20
12.723
30
0
0
VERTEX
8
RASTER
10
12.591
20
12.591
30
0
0
VERTEX
8
RASTER
10
12.799
20
12.498
30
0
0
VERTEX
8
RASTER
10
13.011
20
12.445
30
0
0
VERTEX
8
RASTER
10
13.219
20
12.429
30
0
0
VERTEX
8
RASTER
10
13.418
20
12.448
30
0
0
VERTEX
8
RASTER
10
13.6
20
12.499
30
0
0
VERTEX
8
RASTER
10
13.762
20
12.576
30
0
0
VERTEX
8
RASTER
10
13.9
20
12.676
30
0
0
VERTEX
8
RASTER
10
14.011
20
12.793
30
0
0
VERTEX
8
RASTER
10
14.094
20
12.92
30
0
0
VERTEX
8
RASTER
10
14.149
20
13.051
30
0
0
VERTEX
8
RASTER
10
14.175
20
13.182
30
0
0
VERTEX
8
RASTER
10
14.175
20
13.307
30
0
0
VERTEX
8
RASTER
10
14.152
20
13.421
30
0
0
VERTEX
8
RASTER
10
14.109
20
13.519
30
0
0
VERTEX
8
RASTER
10
14.05
20
13.6
30
0
0
SEQEND
8
RASTER
0
POLYLINE
8
CUT
66
1
70
1
0
VERTEX
8
CUT
10
27.2
20
21.2
30
0
0
VERTEX
8
CUT
10
27.231
20
21.669
30
0
0
VERTEX
8
CUT
10
27.325
20
22.075
30
0
0
VERTEX
8
CUT
10
27.481
20
22.419
30
0
0
VERTEX
8
CUT
10
27.7
20
22.7
30
0
0
VERTEX
8
CUT
10
27.981
20
22.919
30
0
0
VERTEX
8
CUT
10
28.325
20
23.075
30
0
0
VERTEX
8
CUT
10
28.731
20
23.169
30
0
0
VERTEX
8
CUT
10
29.2
20
23.2
30
0
0
VERTEX
8
CUT
10
44.4
20
23.2
30
0
0
VERTEX
8
CUT
10
44.869
20
23.169
30
0
0
VERTEX
8
CUT
10
45.275
20
23.075
30
0
0
VERTEX
8
CUT
10
45.619
20
22.919
30
0
0
VERTEX
8
CUT
10
45.9
20
22.7
30
0
0
VERTEX
8
CUT
10
46.119
20
22.419
30
0
0
VERTEX
8
CUT
10
46.275
20
22.075
30
0
0
VERTEX
8
CUT
10
46.369
20
21.669
30
0
0
VERTEX
8
CUT
10
46.4
20
21.2
30
0
0
VERTEX
8
CUT
10
46.4
20
6
30
0
0
VERTEX
8
CUT
10
46.369
20
5.531
30
0
0
VERTEX
8
CUT
10
46.275
20
5.125
30
0
0
VERTEX
8
CUT
10
46.119
20
4.781
30
0
0
VERTEX
8
CUT
10
45.9
20
4.5
30
0
0
VERTEX
8
CUT
10
45.619
20
4.281
30
0
0
VERTEX
8
CUT
10
45.275
20
4.125
30
0
0
VERTEX
8
CUT
10
44.869
20
4.031
30
0
0
VERTEX
8
CUT
10
44.4
20
4
30
0
0
VERTEX
8
CUT
10
29.2
20
4
30
0
0
VERTEX
8
CUT
10
28.731
20
4.031
30
0
0
VERTEX
8
CUT
10
28.325
20
4.125
30
0
0
VERTEX
8
CUT
10
27.981
20
4.281
30
0
0
VERTEX
8
CUT
10
27.7
20
4.5
30
0
0
VERTEX
8
CUT
10
27.481
20
4.781
30
0
0
VERTEX
8
CUT
10
27.325
20
5.125
30
0
0
VERTEX
8
CUT
10
27.231
20
5.531
30
0
0
VERTEX
8
CUT
10
27.2
20
6
30
0
0
SEQEND
8
CUT
0
POLYLINE
8
RASTER
66
1
70
1
0
VERTEX
8
RASTER
10
38.35
20
13.6
30
0
0
VERTEX
8
RASTER
10
38.395
20
13.347
30
0
0
VERTEX
8
RASTER
10
38.398
20
13.081
30
0
0
VERTEX
8
RASTER
10
38.355
20
12.808
30
0
0
VERTEX
8
RASTER
10
38.265
20
12.536
30
0
0
VERTEX
8
RASTER
10
38.126
20
12.274
30
0
0
VERTEX
8
RASTER
10
37.941
20
12.03
30
0
0
VERTEX
8
RASTER
10
37.711
20
11.813
30
0
0
VERTEX
8
RASTER
10
37.44
20
11.63
30
0
0
VERTEX
8
RASTER
10
37.134
20
11.49
30
0
0
VERTEX
8
RASTER
10
36.8
20
11.399
30
0
0
VERTEX
8
RASTER
10
36.445
20
11.361
30
0
0
VERTEX
8
RASTER
10
36.079
20
11.382
30
0
0
VERTEX
8
RASTER
10
35.712
20
11.464
30
0
0
VERTEX
8
RASTER
10
35.353
20
11.608
30
0
0
VERTEX
8
RASTER
10
35.013
20
11.813
30
0
0
VERTEX
8
RASTER
10
34.703
20
12.076
30
0
0
VERTEX
8
RASTER
10
34.432
20
12.394
30
0
0
VERTEX
8
RASTER
10
34.211
20
12.759
30
0
0
VERTEX
8
RASTER
10
34.047
20
13.164
30
0
0
VERTEX
8
RASTER
10
33.947
20
13.6
30
0
0
VERTEX
8
RASTER
10
33.918
20
14.056
30
0
0
VERTEX
8
RASTER
10
33.963
20
14.522
30
0
0
VERTEX
8
RASTER
10
34.084
20
14.984
30
0
0
VERTEX
8
RASTER
10
34.281
20
15.43
30
0
0
VERTEX
8
RASTER
10
34.552
20
15.848
30
0
0
VERTEX
8
RASTER
10
34.893
20
16.224
30
0
0
VERTEX
8
RASTER
10
35.298
20
16.548
30
0
0
VERTEX
8
RASTER
10
35.757
20
16.809
30
0
0
VERTEX
8
RASTER
10
36.262
20
16.997
30
0
0
VERTEX
8
RASTER
10
36.8
20
17.104
30
0
0
VERTEX
8
RASTER
10
37.358
20
17.125
30
0
0
VERTEX
8
RASTER
10
37.923
20
17.057
30
0
0
VERTEX
8
RASTER
10
38.48
20
16.896
30
0
0
VERTEX
8
RASTER
10
39.013
20
16.646
30
0
0
VERTEX
8
RASTER
10
39.508
20
16.308
30
0
0
VERTEX
8
RASTER
10
39.951
20
15.889
30
0
0
VERTEX
8
RASTER
10
40.329
20
15.398
30
0
0
VERTEX
8
RASTER
10
40.628
20
14.844
30
0
0
VERTEX
8
RASTER
10
40.84
20
14.24
30
0
0
VERTEX
8
RASTER
10
40.956
20
13.6
30
0
0
VERTEX
8
RASTER
10
40.969
20
12.94
30
0
0
VERTEX
8
RASTER
10
40.876
20
12.276
30
0
0
VERTEX
8
RASTER
10
40.677
20
11.625
30
0
0
VERTEX
8
RASTER
10
40.373
20
11.004
30
0
0
VERTEX
8
RASTER
10
39.969
20
10.431
30
0
0
VERTEX
8
RASTER
10
39.472
20
9.922
30
0
0
VERTEX
8
RASTER
10
38.894
20
9.491
30
0
0
VERTEX
8
RASTER
10
38.245
20
9.152
30
0
0
VERTEX
8
RASTER
10
37.542
20
8.917
30
0
0
VERTEX
8
RASTER
10
36.8
20
8.793
30
0
0
VERTEX
8
RASTER
10
36.038
20
8.788
30
0
0
VERTEX
8
RASTER
10
35.274
20
8.904
30
0
0
VERTEX
8
RASTER
10
34.529
20
9.143
30
0
0
VERTEX
8
RASTER
10
33.821
20
9.5
30
0
0
VERTEX
8
RASTER
10
33.171
20
9.971
30
0
0
VERTEX
8
RASTER
10
32.595
20
10.545
30
0
0
VERTEX
8
RASTER
10
32.111
20
11.211
30
0
0
VERTEX
8
RASTER
10
31.733
20
11.954
30
0
0
VERTEX
8
RASTER
10
31.473
20
12.756
30
0
0
VERTEX
8
RASTER
10
31.342
20
13.6
30
0
0
VERTEX
8
RASTER
10
31.344
20
14.464
30
0
0
VERTEX
8
RASTER
10
31.485
20
15.327
30
0
0
VERTEX
8
RASTER
10
31.762
20
16.167
30
0
0
VERTEX
8
RASTER
10
32.173
20
16.962
30
0
0
VERTEX
8
RASTER
10
32.71
20
17.69
30
0
0
VERTEX
8
RASTER
10
33.362
20
18.332
30
0
0
VERTEX
8
RASTER
10
34.115
20
18.87
30
0
0
VERTEX
8
RASTER
10
34.952
20
19.287
30
0
0
VERTEX
8
RASTER
10
35.854
20
19.57
30
0
0
VERTEX
8
RASTER
10
36.8
20
19.71
30
0
0
VERTEX
8
RASTER
10
37.766
20
19.699
30
0
0
VERTEX
8
RASTER
10
38.728
20
19.535
30
0
0
VERTEX
8
RASTER
10
39.663
20
19.218
30
0
0
VERTEX
8
RASTER
10
40.544
20
18.754
30
0
0
VERTEX
8
RASTER
10
41.351
20
18.151
30
0
0
VERTEX
8
RASTER
10
42.059
20
17.421
30
0
0
VERTEX
8
RASTER
10
42.65
20
16.581
30
0
0
VERTEX
8
RASTER
10
43.106
20
15.649
30
0
0
VERTEX
8
RASTER
10
43.414
20
14.647
30
0
0
VERTEX
8
RASTER
10
43.561
20
13.6
30
0
0
VERTEX
8
RASTER
10
43.542
20
12.532
30
0
0
VERTEX
8
RASTER
10
43.354
20
11.47
30
0
0
VERTEX
8
RASTER
10
42.998
20
10.442
30
0
0
VERTEX
8
RASTER
10
42.481
20
9.473
30
0
0
VERTEX
8
RASTER
10
41.811
20
8.589
30
0
0
VERTEX
8
RASTER
10
41.004
20
7.814
30
0
0
VERTEX
8
RASTER
10
40.077
20
7.169
30
0
0
VERTEX
8
RASTER
10
39.05
20
6.674
30
0
0
VERTEX
8
RASTER
10
37.949
20
6.343
30
0
0
VERTEX
8
RASTER
10
36.8
20
6.187
30
0
0
VERTEX
8
RASTER
10
35.63
20
6.214
30
0
0
VERTEX
8
RASTER
10
34.469
20
6.426
30
0
0
VERTEX
8
RASTER
10
33.346
20
6.821
30
0
0
VERTEX
8
RASTER
10
32.29
20
7.392
30
0
0
VERTEX
8
RASTER
10
31.328
20
8.128
30
0
0
VERTEX
8
RASTER
10
30.487
20
9.013
30
0
0
VERTEX
8
RASTER
10
29.789
20
10.028
30
0
0
VERTEX
8
RASTER
10
29.255
20
11.148
30
0
0
VERTEX
8
RASTER
10
28.9
20
12.349
30
0
0
VERTEX
8
RASTER
10
28.736
20
13.6
30
0
0
VERTEX
8
RASTER
10
29.836
20
13.6
30
0
0
VERTEX
8
RASTER
10
29.986
20
12.521
30
0
0
VERTEX
8
RASTER
10
30.301
20
11.488
30
0
0
VERTEX
8
RASTER
10
30.769
20
10.527
30
0
0
VERTEX
8
RASTER
10
31.377
20
9.66
30
0
0
VERTEX
8
RASTER
10
32.106
20
8.906
30
0
0
VERTEX
8
RASTER
10
32.936
20
8.282
30
0
0
VERTEX
8
RASTER
10
33.845
20
7.801
30
0
0
VERTEX
8
RASTER
10
34.809
20
7.472
30
0
0
VERTEX
8
RASTER
10
35.802
20
7.301
30
0
0
VERTEX
8
RASTER
10
36.8
20
7.287
30
0
0
VERTEX
8
RASTER
10
37.777
20
7.429
30
0
0
VERTEX
8
RASTER
10
38.71
20
7.72
30
0
0
VERTEX
8
RASTER
10
39.577
20
8.15
30
0
0
VERTEX
8
RASTER
10
40.357
20
8.704
30
0
0
VERTEX
8
RASTER
10
41.033
20
9.367
30
0
0
VERTEX
8
RASTER
10
41.591
20
10.119
30
0
0
VERTEX
8
RASTER
10
42.018
20
10.941
30
0
0
VERTEX
8
RASTER
10
42.308
20
11.81
30
0
0
VERTEX
8
RASTER
10
42.456
20
12.704
30
0
0
VERTEX
8
RASTER
10
42.461
20
13.6
30
0
0
VERTEX
8
RASTER
10
42.327
20
14.475
30
0
0
VERTEX
8
RASTER
10
42.06
20
15.309
30
0
0
VERTEX
8
RASTER
10
41.67
20
16.081
30
0
0
VERTEX
8
RASTER
10
41.169
20
16.774
30
0
0
VERTEX
8
RASTER
10
40.573
20
17.373
30
0
0
VERTEX
8
RASTER
10
39.898
20
17.864
30
0
0
VERTEX
8
RASTER
10
39.163
20
18.238
30
0
0
VERTEX
8
RASTER
10
38.388
20
18.489
30
0
0
VERTEX
8
RASTER
10
37.594
20
18.612
30
0
0
VERTEX
8
RASTER
10
36.8
20
18.61
30
0
0
VERTEX
8
RASTER
10
36.026
20
18.484
30
0
0
VERTEX
8
RASTER
10
35.292
20
18.241
30
0
0
VERTEX
8
RASTER
10
34.614
20
17.89
30
0
0
VERTEX
8
RASTER
10
34.008
20
17.442
30
0
0
VERTEX
8
RASTER
10
33.488
20
16.912
30
0
0
VERTEX
8
RASTER
10
33.063
20
16.315
30
0
0
VERTEX
8
RASTER
10
32.743
20
15.667
30
0
0
VERTEX
8
RASTER
10
32.531
20
14.987
30
0
0
VERTEX
8
RASTER
10
32.431
20
14.292
30
0
0
VERTEX
8
RASTER
10
32.442
20
13.6
30
0
0
VERTEX
8
RASTER
10
32.56
20
12.928
30
0
0
VERTEX
8
RASTER
10
32.779
20
12.293
30
0
0
VERTEX
8
RASTER
10
33.091
20
11.71
30
0
0
VERTEX
8
RASTER
10
33.485
20
11.191
30
0
0
VERTEX
8
RASTER
10
33.948
20
10.748
30
0
0
VERTEX
8
RASTER
10
34.468
20
10.39
30
0
0
VERTEX
8
RASTER
10
35.028
20
10.123
30
0
0
VERTEX
8
RASTER
10
35.614
20
9.951
30
0
0
VERTEX
8
RASTER
10
36.21
20
9.874
30
0
0
VERTEX
8
RASTER
10
36.8
20
9.893
30
0
0
VERTEX
8
RASTER
10
37.37
20
10.003
30
0
0
VERTEX
8
RASTER
10
37.905
20
10.198
30
0
0
VERTEX
8
RASTER
10
38.394
20
10.471
30
0
0
VERTEX
8
RASTER
10
38.826
20
10.812
30
0
0
VERTEX
8
RASTER
10
39.191
20
11.209
30
0
0
VERTEX
8
RASTER
10
39.483
20
11.651
30
0
0
VERTEX
8
RASTER
10
39.697
20
12.124
30
0
0
VERTEX
8
RASTER
10
39.83
20
12.616
30
0
0
VERTEX
8
RASTER
10
39.882
20
13.112
30
0
0
VERTEX
8
RASTER
10
39.856
20
13.6
30
0
0
VERTEX
8
RASTER
10
39.754
20
14.068
30
0
0
VERTEX
8
RASTER
10
39.582
20
14.504
30
0
0
VERTEX
8
RASTER
10
39.348
20
14.898
30
0
0
VERTEX
8
RASTER
10
39.061
20
15.243
30
0
0
VERTEX
8
RASTER
10
38.73
20
15.53
30
0
0
VERTEX
8
RASTER
10
38.366
20
15.756
30
0
0
VERTEX
8
RASTER
10
37.98
20
15.916
30
0
0
VERTEX
8
RASTER
10
37.583
20
16.01
30
0
0
VERTEX
8
RASTER
10
37.186
20
16.039
30
0
0
VERTEX
8
RASTER
10
36.8
20
16.004
30
0
0
VERTEX
8
RASTER
10
36.434
20
15.91
30
0
0
VERTEX
8
RASTER
10
36.097
20
15.763
30
0
0
VERTEX
8
RASTER
10
35.797
20
15.568
30
0
0
VERTEX
8
RASTER
10
35.54
20
15.334
30
0
0
VERTEX
8
RASTER
10
35.33
20
15.07
30
0
0
VERTEX
8
RASTER
10
35.171
20
14.783
30
0
0
VERTEX
8
RASTER
10
35.064
20
14.484
30
0
0
VERTEX
8
RASTER
10
35.009
20
14.182
30
0
0
VERTEX
8
RASTER
10
35.004
20
13.884
30
0
0
VERTEX
8
RASTER
10
35.047
20
13.6
30
0
0
VERTEX
8
RASTER
10
35.133
20
13.336
30
0
0
VERTEX
8
RASTER
10
35.257
20
13.099
30
0
0
VERTEX
8
RASTER
10
35.412
20
12.893
30
0
0
VERTEX
8
RASTER
10
35.593
20
12.723
30
0
0
VERTEX
8
RASTER
10
35.791
20
12.591
30
0
0
VERTEX
8
RASTER
10
35.999
20
12.498
30
0
0
VERTEX
8
RASTER
10
36.211
20
12.445
30
0
0
VERTEX
8
RASTER
10
36.419
20
12.429
30
0
0
VERTEX
8
RASTER
10
36.618
20
12.448
30
0
0
VERTEX
8
RASTER
10
36.8
20
12.499
30
0
0
VERTEX
8
RASTER
10
36.962
20
12.576
30
0
0
VERTEX
8
RASTER
10
37.1
20
12.676
30
0
0
VERTEX
8
RASTER
10
37.211
20
12.793
30
0
0
VERTEX
8
RASTER
10
37.294
20
12.92
30
0
0
VERTEX
8
RASTER
10
37.349
20
13.051
30
0
0
VERTEX
8
RASTER
10
37.375
20
13.182
30
0
0
VERTEX
8
RASTER
10
37.375
20
13.307
30
0
0
VERTEX
8
RASTER
10
37.352
20
13.421
30
0
0
VERTEX
8
RASTER
10
37.309
20
13.519
30
0
0
VERTEX
8
RASTER
10
37.25
20
13.6
30
0
0
SEQEND
8
RASTER
0
POLYLINE
8
CUT
66
1
70
1
0
VERTEX
8
CUT
10
50.4
20
21.2
30
0
0
VERTEX
8
CUT
10
50.431
20
21.669
30
0
0
VERTEX
8
CUT
10
50.525
20
22.075
30
0
0
VERTEX
8
CUT
10
50.681
20
22.419
30
0
0
VERTEX
8
CUT
10
50.9
20
22.7
30
0
0
VERTEX
8
CUT
10
51.181
20
22.919
30
0
0
VERTEX
8
CUT
10
51.525
20
23.075
30
0
0
VERTEX
8
CUT
10
51.931
20
23.169
30
0
0
VERTEX
8
CUT
10
52.4
20
23.2
30
0
0
VERTEX
8
CUT
10
67.6
20
23.2
30
0
0
VERTEX
8
CUT
10
68.069
20
23.169
30
0
0
VERTEX
8
CUT
10
68.475
20
23.075
30
0
0
VERTEX
8
CUT
10
68.819
20
22.919
30
0
0
VERTEX
8
CUT
10
69.1
20
22.7
30
0
0
VERTEX
8
CUT
10
69.319
20
22.419
30
0
0
VERTEX
8
CUT
10
69.475
20
22.075
30
0
0
VERTEX
8
CUT
10
69.569
20
21.669
30
0
0
VERTEX
8
CUT
10
69.6
20
21.2
30
0
0
VERTEX
8
CUT
10
69.6
20
6
30
0
0
VERTEX
8
CUT
10
69.569
20
5.531
30
0
0
VERTEX
8
CUT
10
69.475
20
5.125
30
0
0
VERTEX
8
CUT
10
69.319
20
4.781
30
0
0
VERTEX
8
CUT
10
69.1
20
4.5
30
0
0
VERTEX
8
CUT
10
68.819
20
4.281
30
0
0
VERTEX
8
CUT
10
68.475
20
4.125
30
0
0
VERTEX
8
CUT
10
68.069
20
4.031
30
0
0
VERTEX
8
CUT
10
67.6
20
4
30
0
0
VERTEX
8
CUT
10
52.4
20
4
30
0
0
VERTEX
8
CUT
10
51.931
20
4.031
30
0
0
VERTEX
8
CUT
10
51.525
20
4.125
30
0
0
VERTEX
8
CUT
10
51.181
20
4.281
30
0
0
VERTEX
8
CUT
10
50.9
20
4.5
30
0
0
VERTEX
8
CUT
10
50.681
20
4.781
30
0
0
VERTEX
8
CUT
10
50.525
20
5.125
30
0
0
VERTEX
8
CUT
10
50.431
20
5.531
30
0
0
VERTEX
8
CUT
10
50.4
20
6
30
0
0
SEQEND
8
CUT
0
POLYLINE
8
RASTER
66
1
70
1
0
VERTEX
8
RASTER
10
61.55
20
13.6
30
0
0
VERTEX
8
RASTER
10
61.595
20
13.347
30
0
0
VERTEX
8
RASTER
10
61.598
20
13.081
30
0
0
VERTEX
8
RASTER
10
61.555
20
12.808
30
0
0
VERTEX
8
RASTER
10
61.465
20
12.536
30
0
0
VERTEX
8
RASTER
10
61.326
20
12.274
30
0
0
VERTEX
8
RASTER
10
61.141
20
12.03
30
0
0
VERTEX
8
RASTER
10
60.911
20
11.813
30
0
0
VERTEX
8
RASTER
10
60.64
20
11.63
30
0
0
VERTEX
8
RASTER
10
60.334
20
11.49
30
0
0
VERTEX
8
RASTER
10
60
20
11.399
30
0
0
VERTEX
8
RASTER
10
59.645
20
11.361
30
0
0
VERTEX
8
RASTER
10
59.279
20
11.382
30
0
0
VERTEX
8
RASTER
10
58.912
20
11.464
30
0
0
VERTEX
8
RASTER
10
58.553
20
11.608
30
0
0
VERTEX
8
RASTER
10
58.213
20
11.813
30
0
0
VERTEX
8
RASTER
10
57.903
20
12.076
30
0
0
VERTEX
8
RASTER
10
57.632
20
12.394
30
0
0
VERTEX
8
RASTER
10
57.411
20
12.759
30
0
0
VERTEX
8
RASTER
10
57.247
20
13.164
30
0
0
VERTEX
8
RASTER
10
57.147
20
13.6
30
0
0
VERTEX
8
RASTER
10
57.118
20
14.056
30
0
0
VERTEX
8
RASTER
10
57.163
20
14.522
30
0
0
VERTEX
8
RASTER
10
57.284
20
14.984
30
0
0
VERTEX
8
RASTER
10
57.481
20
15.43
30
0
0
VERTEX
8
RASTER
10
57.752
20
15.848
30
0
0
VERTEX
8
RASTER
10
58.093
20
16.224
30
0
0
VERTEX
8
RASTER
10
58.498
20
16.548
30
0
0
VERTEX
8
RASTER
10
58.957
20
16.809
30
0
0
VERTEX
8
RASTER
10
59.462
20
16.997
30
0
0
VERTEX
8
RASTER
10
60
20
17.104
30
0
0
VERTEX
8
RASTER
10
60.558
20
17.125
30
0
0
VERTEX
8
RASTER
10
61.123
20
17.057
30
0
0
VERTEX
8
RASTER
10
61.68
20
16.896
30
0
0
VERTEX
8
RASTER
10
62.213
20
16.646
30
0
0
VERTEX
8
RASTER
10
62.708
20
16.308
30
0
0
VERTEX
8
RASTER
10
63.151
20
15.889
30
0
0
VERTEX
8
RASTER
10
63.529
20
15.398
30
0
0
VERTEX
8
RASTER
10
63.828
20
14.844
30
0
0
VERTEX
8
RASTER
10
64.04
20
14.24
30
0
0
VERTEX
8
RASTER
10
64.156
20
13.6
30
0
0
VERTEX
8
RASTER
10
64.169
20
12.94
30
0
0
VERTEX
8
RASTER
10
64.076
20
12.276
30
0
0
VERTEX
8
RASTER
10
63.877
20
11.625
30
0
0
VERTEX
8
RASTER
10
63.573
20
11.004
30
0
0
VERTEX
8
RASTER
10
63.169
20
10.431
30
0
0
VERTEX
8
RASTER
10
62.672
20
9.922
30
0
0
VERTEX
8
RASTER
10
62.094
20
9.491
30
0
0
VERTEX
8
RASTER
10
61.445
20
9.152
30
0
0
VERTEX
8
RASTER
10
60.742
20
8.917
30
0
0
VERTEX
8
RASTER
10
60
20
8.793
30
0
0
VERTEX
8
RASTER
10
59.238
20
8.788
30
0
0
VERTEX
8
RASTER
10
58.474
20
8.904
30
0
0
VERTEX
8
RASTER
10
57.729
20
9.143
30
0
0
VERTEX
8
RASTER
10
57.021
20
9.5
30
0
0
VERTEX
8
RASTER
10
56.371
20
9.971
30
0
0
VERTEX
8
RASTER
10
55.795
20
10.545
30
0
0
VERTEX
8
RASTER
10
55.311
20
11.211
30
0
0
VERTEX
8
RASTER
10
54.933
20
11.954
30
0
0
VERTEX
8
RASTER
10
54.673
20
12.756
30
0
0
VERTEX
8
RASTER
10
54.542
20
13.6
30
0
0
VERTEX
8
RASTER
10
54.544
20
14.464
30
0
0
VERTEX
8
RASTER
10
54.685
20
15.327
30
0
0
VERTEX
8
RASTER
10
54.962
20
16.167
30
0
0
VERTEX
8
RASTER
10
55.373
20
16.962
30
0
0
VERTEX
8
RASTER
10
55.91
20
17.69
30
0
0
VERTEX
8
RASTER
10
56.562
20
18.332
30
0
0
VERTEX
8
RASTER
10
57.315
20
18.87
30
0
0
VERTEX
8
RASTER
10
58.152
20
19.287
30
0
0
VERTEX
8
RASTER
10
59.054
20
19.57
30
0
0
VERTEX
8
RASTER
10
60
20
19.71
30
0
0
VERTEX
8
RASTER
10
60.966
20
19.699
30
0
0
VERTEX
8
RASTER
10
61.928
20
19.535
30
0
0
VERTEX
8
RASTER
10
62.863
20
19.218
30
0
0
VERTEX
8
RASTER
10
63.744
20
18.754
30
0
0
VERTEX
8
RASTER
10
64.551
20
18.151
30
0
0
VERTEX
8
RASTER
10
65.259
20
17.421
30
0
0
VERTEX
8
RASTER
10
65.85
20
16.581
30
0
0
VERTEX
8
RASTER
10
66.306
20
15.649
30
0
0
VERTEX
8
RASTER
10
66.614
20
14.647
30
0
0
VERTEX
8
RASTER
10
66.761
20
13.6
30
0
0
VERTEX
8
RASTER
10
66.742
20
12.532
30
0
0
VERTEX
8
RASTER
10
66.554
20
11.47
30
0
0
VERTEX
8
RASTER
10
66.198
20
10.442
30
0
0
VERTEX
8
RASTER
10
65.681
20
9.473
30
0
0
VERTEX
8
RASTER
10
65.011
20
8.589
30
0
0
VERTEX
8
RASTER
10
64.204
20
7.814
30
0
0
VERTEX
8
RASTER
10
63.277
20
7.169
30
0
0
VERTEX
8
RASTER
10
62.25
20
6.674
30
0
0
VERTEX
8
RASTER
10
61.149
20
6.343
30
0
0
VERTEX
8
RASTER
10
60
20
6.187
30
0
0
VERTEX
8
RASTER
10
58.83
20
6.214
30
0
0
VERTEX
8
RASTER
10
57.669
20
6.426
30
0
0
VERTEX
8
RASTER
10
56.546
20
6.821
30
0
0
VERTEX
8
RASTER
10
55.49
20
7.392
30
0
0
VERTEX
8
RASTER
10
54.528
20
8.128
30
0
0
VERTEX
8
RASTER
10
53.687
20
9.013
30
0
0
VERTEX
8
RASTER
10
52.989
20
10.028
30
0
0
VERTEX
8
RASTER
10
52.455
20
11.148
30
0
0
VERTEX
8
RASTER
10
52.1
20
12.349
30
0
0
VERTEX
8
RASTER
10
51.936
20
13.6
30
0
0
VERTEX
8
RASTER
10
53.036
20
13.6
30
0
0
VERTEX
8
RASTER
10
53.186
20
12.521
30
0
0
VERTEX
8
RASTER
10
53.501
20
11.488
30
0
0
VERTEX
8
RASTER
10
53.969
20
10.527
30
0
0
VERTEX
8
RASTER
10
54.577
20
9.66
30
0
0
VERTEX
8
RASTER
10
55.306
20
8.906
30
0
0
VERTEX
8
RASTER
10
56.136
20
8.282
30
0
0
VERTEX
8
RASTER
10
57.045
20
7.801
30
0
0
VERTEX
8
RASTER
10
58.009
20
7.472
30
0
0
VERTEX
8
RASTER
10
59.002
20
7.301
30
0
0
VERTEX
8
RASTER
10
60
20
7.287
30
0
0
VERTEX
8
RASTER
10
60.977
20
7.429
30
0
0
VERTEX
8
RASTER
10
61.91
20
7.72
30
0
0
VERTEX
8
RASTER
10
62.777
20
8.15
30
0
0
VERTEX
8
RASTER
10
63.557
20
8.704
30
0
0
VERTEX
8
RASTER
10
64.233
20
9.367
30
0
0
VERTEX
8
RASTER
10
64.791
20
10.119
30
0
0
VERTEX
8
RASTER
10
65.218
20
10.941
30
0
0
VERTEX
8
RASTER
10
65.508
20
11.81
30
0
0
VERTEX
8
RASTER
10
65.656
20
12.704
30
0
0
VERTEX
8
RASTER
10
65.661
20
13.6
30
0
0
VERTEX
8
RASTER
10
65.527
20
14.475
30
0
0
VERTEX
8
RASTER
10
65.26
20
15.309
30
0
0
VERTEX
8
RASTER
10
64.87
20
16.081
30
0
0
VERTEX
8
RASTER
10
64.369
20
16.774
30
0
0
VERTEX
8
RASTER
10
63.773
20
17.373
30
0
0
VERTEX
8
RASTER
10
63.098
20
17.864
30
0
0
VERTEX
8
RASTER
10
62.363
20
18.238
30
0
0
VERTEX
8
RASTER
10
61.588
20
18.489
30
0
0
VERTEX
8
RASTER
10
60.794
20
18.612
30
0
0
VERTEX
8
RASTER
10
60
20
18.61
30
0
0
VERTEX
8
RASTER
10
59.226
20
18.484
30
0
0
VERTEX
8
RASTER
10
58.492
20
18.241
30
0
0
VERTEX
8
RASTER
10
57.814
20
17.89
30
0
0
VERTEX
8
RASTER
10
57.208
20
17.442
30
0
0
VERTEX
8
RASTER
10
56.688
20
16.912
30
0
0
VERTEX
8
RASTER
10
56.263
20
16.315
30
0
0
VERTEX
8
RASTER
10
55.943
20
15.667
30
0
0
VERTEX
8
RASTER
10
55.731
20
14.987
30
0
0
VERTEX
8
RASTER
10
55.631
20
14.292
30
0
0
VERTEX
8
RASTER
10
55.642
20
13.6
30
0
0
VERTEX
8
RASTER
10
55.76
20
12.928
30
0
0
VERTEX
8
RASTER
10
55.979
20
12.293
30
0
0
VERTEX
8
RASTER
10
56.291
20
11.71
30
0
0
VERTEX
8
RASTER
10
56.685
20
11.191
30
0
0
VERTEX
8
RASTER
10
57.148
20
10.748
30
0
0
VERTEX
8
RASTER
10
57.668
20
10.39
30
0
0
VERTEX
8
RASTER
10
58.228
20
10.123
30
0
0
VERTEX
8
RASTER
10
58.814
20
9.951
30
0
0
VERTEX
8
RASTER
10
59.41
20
9.874
30
0
0
VERTEX
8
RASTER
10
60
20
9.893
30
0
0
VERTEX
8
RASTER
10
60.57
20
10.003
30
0
0
VERTEX
8
RASTER
10
61.105
20
10.198
30
0
0
VERTEX
8
RASTER
10
61.594
20
10.471
30
0
0
VERTEX
8
RASTER
10
62.026
20
10.812
30
0
0
VERTEX
8
RASTER
10
62.391
20
11.209
30
0
0
VERTEX
8
RASTER
10
62.683
20
11.651
30
0
0
VERTEX
8
RASTER
10
62.897
20
12.124
30
0
0
VERTEX
8
RASTER
10
63.03
20
12.616
30
0
0
VERTEX
8
RASTER
10
63.082
20
13.112
30
0
0
VERTEX
8
RASTER
10
63.056
20
13.6
30
0
0
VERTEX
8
RASTER
10
62.954
20
14.068
30
0
0
VERTEX
8
RASTER
10
62.782
20
14.504
30
0
0
VERTEX
8
RASTER
10
62.548
20
14.898
30
0
0
VERTEX
8
RASTER
10
62.261
20
15.243
30
0
0
VERTEX
8
RASTER
10
61.93
20
15.53
30
0
0
VERTEX
8
RASTER
10
61.566
20
15.756
30
0
0
VERTEX
8
RASTER
10
61.18
20
15.916
30
0
0
VERTEX
8
RASTER
10
60.783
20
16.01
30
0
0
VERTEX
8
RASTER
10
60.386
20
16.039
30
0
0
VERTEX
8
RASTER
10
60
20
16.004
30
0
0
VERTEX
8
RASTER
10
59.634
20
15.91
30
0
0
VERTEX
8
RASTER
10
59.297
20
15.763
30
0
0
VERTEX
8
RASTER
10
58.997
20
15.568
30
0
0
VERTEX
8
RASTER
10
58.74
20
15.334
30
0
0
VERTEX
8
RASTER
10
58.53
20
15.07
30
0
0
VERTEX
8
RASTER
10
58.371
20
14.783
30
0
0
VERTEX
8
RASTER
10
58.264
20
14.484
30
0
0
VERTEX
8
RASTER
10
58.209
20
14.182
30
0
0
VERTEX
8
RASTER
10
58.204
20
13.884
30
0
0
VERTEX
8
RASTER
10
58.247
20
13.6
30
0
0
VERTEX
8
RASTER
10
58.333
20
13.336
30
0
0
VERTEX
8
RASTER
10
58.457
20
13.099
30
0
0
VERTEX
8
RASTER
10
58.612
20
12.893
30
0
0
VERTEX
8
RASTER
10
58.793
20
12.723
30
0
0
VERTEX
8
RASTER
10
58.991
20
12.591
30
0
0
VERTEX
8
RASTER
10
59.199
20
12.498
30
0
0
VERTEX
8
RASTER
10
59.411
20
12.445
30
0
0
VERTEX
8
RASTER
10
59.619
20
12.429
30
0
0
VERTEX
8
RASTER
10
59.818
20
12.448
30
0
0
VERTEX
8
RASTER
10
60
20
12.499
30
0
0
VERTEX
8
RASTER
10
60.162
20
12.576
30
0
0
VERTEX
8
RASTER
10
60.3
20
12.676
30
0
0
VERTEX
8
RASTER
10
60.411
20
12.793
30
0
0
VERTEX
8
RASTER
10
60.494
20
12.92
30
0
0
VERTEX
8
RASTER
10
60.549
20
13.051
30
0
0
VERTEX
8
RASTER
10
60.575
20
13.182
30
0
0
VERTEX
8
RASTER
10
60.575
20
13.307
30
0
0
VERTEX
8
RASTER
10
60.552
20
13.421
30
0
0
VERTEX
8
RASTER
10
60.509
20
13.519
30
0
0
VERTEX
8
RASTER
10
60.45
20
13.6
30
0
0
SEQEND
8
RASTER
0
POLYLINE
8
CUT
66
1
70
1
0
VERTEX
8
CUT
10
73.6
20
21.2
30
0
0
VERTEX
8
CUT
10
73.631
20
21.669
30
0
0
VERTEX
8
CUT
10
73.725
20
22.075
30
0
0
VERTEX
8
CUT
10
73.881
20
22.419
30
0
0
VERTEX
8
CUT
10
74.1
20
22.7
30
0
0
VERTEX
8
CUT
10
74.381
20
22.919
30
0
0
VERTEX
8
CUT
10
74.725
20
23.075
30
0
0
VERTEX
8
CUT
10
75.131
20
23.169
30
0
0
VERTEX
8
CUT
10
75.6
20
23.2
30
0
0
VERTEX
8
CUT
10
90.8
20
23.2
30
0
0
VERTEX
8
CUT
10
91.269
20
23.169
30
0
0
VERTEX
8
CUT
10
91.675
20
23.075
30
0
0
VERTEX
8
CUT
10
92.019
20
22.919
30
0
0
VERTEX
8
CUT
10
92.3
20
22.7
30
0
0
VERTEX
8
CUT
10
92.519
20
22.419
30
0
0
VERTEX
8
CUT
10
92.675
20
22.075
30
0
0
VERTEX
8
CUT
10
92.769
20
21.669
30
0
0
VERTEX
8
CUT
10
92.8
20
21.2
30
0
0
VERTEX
8
CUT
10
92.8
20
6
30
0
0
VERTEX
8
CUT
10
92.769
20
5.531
30
0
0
VERTEX
8
CUT
10
92.675
20
5.125
30
0
0
VERTEX
8
CUT
10
92.519
20
4.781
30
0
0
VERTEX
8
CUT
10
92.3
20
4.5
30
0
0
VERTEX
8
CUT
10
92.019
20
4.281
30
0
0
VERTEX
8
CUT
10
91.675
20
4.125
30
0
0
VERTEX
8
CUT
10
91.269
20
4.031
30
0
0
VERTEX
8
CUT
10
90.8
20
4
30
0
0
VERTEX
8
CUT
10
75.6
20
4
30
0
0
VERTEX
8
CUT
10
75.131
20
4.031
30
0
0
VERTEX
8
CUT
10
74.725
20
4.125
30
0
0
VERTEX
8
CUT
10
74.381
20
4.281
30
0
0
VERTEX
8
CUT
10
74.1
20
4.5
30
0
0
VERTEX
8
CUT
10
73.881
20
4.781
30
0
0
VERTEX
8
CUT
10
73.725
20
5.125
30
0
0
VERTEX
8
CUT
10
73.631
20
5.531
30
0
0
VERTEX
8
CUT
10
73.6
20
6
30
0
0
SEQEND
8
CUT
0
POLYLINE
8
RASTER
66
1
70
1
0
VERTEX
8
RASTER
10
84.75
20
13.6
30
0
0
VERTEX
8
RASTER
10
84.795
20
13.347
30
0
0
VERTEX
8
RASTER
10
84.798
20
13.081
30
0
0
VERTEX
8
RASTER
10
84.755
20
12.808
30
0
0
VERTEX
8
RASTER
10
84.665
20
12.536
30
0
0
VERTEX
8
RASTER
10
84.526
20
12.274
30
0
0
VERTEX
8
RASTER
10
84.341
20
12.03
30
0
0
VERTEX
8
RASTER
10
84.111
20
11.813
30
0
0
VERTEX
8
RASTER
10
83.84
20
11.63
30
0
0
VERTEX
8
RASTER
10
83.534
20
11.49
30
0
0
VERTEX
8
RASTER
10
83.2
20
11.399
30
0
0
VERTEX
8
RASTER
10
82.845
20
11.361
30
0
0
VERTEX
8
RASTER
10
82.479
20
11.382
30
0
0
VERTEX
8
RASTER
10
82.112
20
11.464
30
0
0
VERTEX
8
RASTER
10
81.753
20
11.608
30
0
0
VERTEX
8
RASTER
10
81.413
20
11.813
30
0
0
VERTEX
8
RASTER
10
81.103
20
12.076
30
0
0
VERTEX
8
RASTER
10
80.832
20
12.394
30
0
0
VERTEX
8
RASTER
10
80.611
20
12.759
30
0
0
VERTEX
8
RASTER
10
80.447
20
13.164
30
0
0
VERTEX
8
RASTER
10
80.347
20
13.6
30
0
0
VERTEX
8
RASTER
10
80.318
20
14.056
30
0
0
VERTEX
8
RASTER
10
80.363
20
14.522
30
0
0
VERTEX
8
RASTER
10
80.484
20
14.984
30
0
0
VERTEX
8
RASTER
10
80.681
20
15.43
30
0
0
VERTEX
8
RASTER
10
80.952
20
15.848
30
0
0
VERTEX
8
RASTER
10
81.293
20
16.224
30
0
0
VERTEX
8
RASTER
10
81.698
20
16.548
30
0
0
VERTEX
8
RASTER
10
82.157
20
16.809
30
0
0
VERTEX
8
RASTER
10
82.662
20
16.997
30
0
0
VERTEX
8
RASTER
10
83.2
20
17.104
30
0
0
VERTEX
8
RASTER
10
83.758
20
17.125
30
0
0
VERTEX
8
RASTER
10
84.323
20
17.057
30
0
0
VERTEX
8
RASTER
10
84.88
20
16.896
30
0
0
VERTEX
8
RASTER
10
85.413
20
16.646
30
0
0
VERTEX
8
RASTER
10
85.908
20
16.308
30
0
0
VERTEX
8
RASTER
10
86.351
20
15.889
30
0
0
VERTEX
8
RASTER
10
86.729
20
15.398
30
0
0
VERTEX
8
RASTER
10
87.028
20
14.844
30
0
0
VERTEX
8
RASTER
10
87.24
20
14.24
30
0
0
VERTEX
8
RASTER
10
87.356
20
13.6
30
0
0
VERTEX
8
RASTER
10
87.369
20
12.94
30
0
0
VERTEX
8
RASTER
10
87.276
20
12.276
30
0
0
VERTEX
8
RASTER
10
87.077
20
11.625
30
0
0
VERTEX
8
RASTER
10
86.773
20
11.004
30
0
0
VERTEX
8
RASTER
10
86.369
20
10.431
30
0
0
VERTEX
8
RASTER
10
85.872
20
9.922
30
0
0
VERTEX
8
RASTER
10
85.294
20
9.491
30
0
0
VERTEX
8
RASTER
10
84.645
20
9.152
30
0
0
VERTEX
8
RASTER
10
83.942
20
8.917
30
0
0
VERTEX
8
RASTER
10
83.2
20
8.793
30
0
0
VERTEX
8
RASTER
10
82.438
20
8.788
30
0
0
VERTEX
8
RASTER
10
81.674
20
8.904
30
0
0
VERTEX
8
RASTER
10
80.929
20
9.143
30
0
0
VERTEX
8
RASTER
10
80.221
20
9.5
30
0
0
VERTEX
8
RASTER
10
79.571
20
9.971
30
0
0
VERTEX
8
RASTER
10
78.995
20
10.545
30
0
0
VERTEX
8
RASTER
10
78.511
20
11.211
30
0
0
VERTEX
8
RASTER
10
78.133
20
11.954
30
0
0
VERTEX
8
RASTER
10
77.873
20
12.756
30
0
0
VERTEX
8
RASTER
10
77.742
20
13.6
30
0
0
VERTEX
8
RASTER
10
77.744
20
14.464
30
0
0
VERTEX
8
RASTER
10
77.885
20
15.327
30
0
0
VERTEX
8
RASTER
10
78.162
20
16.167
30
0
0
VERTEX
8
RASTER
10
78.573
20
16.962
30
0
0
VERTEX
8
RASTER
10
79.11
20
17.69
30
0
0
VERTEX
8
RASTER
10
79.762
20
18.332
30
0
0
VERTEX
8
RASTER
10
80.515
20
18.87
30
0
0
VERTEX
8
RASTER
10
81.352
20
19.287
30
0
0
VERTEX
8
RASTER
10
82.254
20
19.57
30
0
0
VERTEX
8
RASTER
10
83.2
20
19.71
30
0
0
VERTEX
8
RASTER
10
84.166
20
19.699
30
0
0
VERTEX
8
RASTER
10
85.128
20
19.535
30
0
0
VERTEX
8
RASTER
10
86.063
20
19.218
30
0
0
VERTEX
8
RASTER
10
86.944
20
18.754
30
0
0
VERTEX
8
RASTER
10
87.751
20
18.151
30
0
0
VERTEX
8
RASTER
10
88.459
20
17.421
30
0
0
VERTEX
8
RASTER
10
89.05
20
16.581
30
0
0
VERTEX
8
RASTER
10
89.506
20
15.649
30
0
0
VERTEX
8
RASTER
10
89.814
20
14.647
30
0
0
VERTEX
8
RASTER
10
89.961
20
13.6
30
0
0
VERTEX
8
RASTER
10
89.942
20
12.532
30
0
0
VERTEX
8
RASTER
10
89.754
20
11.47
30
0
0
VERTEX
8
RASTER
10
89.398
20
10.442
30
0
0
VERTEX
8
RASTER
10
88.881
20
9.473
30
0
0
VERTEX
8
RASTER
10
88.211
20
8.589
30
0
0
VERTEX
8
RASTER
10
87.404
20
7.814
30
0
0
VERTEX
8
RASTER
10
86.477
20
7.169
30
0
0
VERTEX
8
RASTER
10
85.45
20
6.674
30
0
0
VERTEX
8
RASTER
10
84.349
20
6.343
30
0
0
VERTEX
8
RASTER
10
83.2
20
6.187
30
0
0
VERTEX
8
RASTER
10
82.03
20
6.214
30
0
0
VERTEX
8
RASTER
10
80.869
20
6.426
30
0
0
VERTEX
8
RASTER
10
79.746
20
6.821
30
0
0
VERTEX
8
RASTER
10
78.69
20
7.392
30
0
0
VERTEX
8
RASTER
10
77.728
20
8.128
30
0
0
VERTEX
8
RASTER
10
76.887
20
9.013
30
0
0
VERTEX
8
RASTER
10
76.189
20
10.028
30
0
0
VERTEX
8
RASTER
10
75.655
20
11.148
30
0
0
VERTEX
8
RASTER
10
75.3
20
12.349
30
0
0
VERTEX
8
RASTER
10
75.136
20
13.6
30
0
0
VERTEX
8
RASTER
10
76.236
20
13.6
30
0
0
VERTEX
8
RASTER
10
76.386
20
12.521
30
0
0
VERTEX
8
RASTER
10
76.701
20
11.488
30
0
0
VERTEX
8
RASTER
10
77.169
20
10.527
30
0
0
VERTEX
8
RASTER
10
77.777
20
9.66
30
0
0
VERTEX
8
RASTER
10
78.506
20
8.906
30
0
0
VERTEX
8
RASTER
10
79.336
20
8.282
30
0
0
VERTEX
8
RASTER
10
80.245
20
7.801
30
0
0
VERTEX
8
RASTER
10
81.209
20
7.472
30
0
0
VERTEX
8
RASTER
10
82.202
20
7.301
30
0
0
VERTEX
8
RASTER
10
83.2
20
7.287
30
0
0
VERTEX
8
RASTER
10
84.177
20
7.429
30
0
0
VERTEX
8
RASTER
10
85.11
20
7.72
30
0
0
VERTEX
8
RASTER
10
85.977
20
8.15
30
0
0
VERTEX
8
RASTER
10
86.757
20
8.704
30
0
0
VERTEX
8
RASTER
10
87.433
20
9.367
30
0
0
VERTEX
8
RASTER
10
87.991
20
10.119
30
0
0
VERTEX
8
RASTER
10
88.418
20
10.941
30
0
0
VERTEX
8
RASTER
10
88.708
20
11.81
30
0
0
VERTEX
8
RASTER
10
88.856
20
12.704
30
0
0
VERTEX
8
RASTER
10
88.861
20
13.6
30
0
0
VERTEX
8
RASTER
10
88.727
20
14.475
30
0
0
VERTEX
8
RASTER
10
88.46
20
15.309
30
0
0
VERTEX
8
RASTER
10
88.07
20
16.081
30
0
0
VERTEX
8
RASTER
10
87.569
20
16.774
30
0
0
VERTEX
8
RASTER
10
86.973
20
17.373
30
0
0
VERTEX
8
RASTER
10
86.298
20
17.864
30
0
0
VERTEX
8
RASTER
10
85.563
20
18.238
30
0
0
VERTEX
8
RASTER
10
84.788
20
18.489
30
0
0
VERTEX
8
RASTER
10
83.994
20
18.612
30
0
0
VERTEX
8
RASTER
10
83.2
20
18.61
30
0
0
VERTEX
8
RASTER
10
82.426
20
18.484
30
0
0
VERTEX
8
RASTER
10
81.692
20
18.241
30
0
0
VERTEX
8
RASTER
10
81.014
20
17.89
30
0
0
VERTEX
8
RASTER
10
80.408
20
17.442
30
0
0
VERTEX
8
RASTER
10
79.888
20
16.912
30
0
0
VERTEX
8
RASTER
10
79.463
20
16.315
30
0
0
VERTEX
8
RASTER
10
79.143
20
15.667
30
0
0
VERTEX
8
RASTER
10
78.931
20
14.987
30
0
0
VERTEX
8
RASTER
10
78.831
20
14.292
30
0
0
VERTEX
8
RASTER
10
78.842
20
13.6
30
0
0
VERTEX
8
RASTER
10
78.96
20
12.928
30
0
0
VERTEX
8
RASTER
10
79.179
20
12.293
30
0
0
VERTEX
8
RASTER
10
79.491
20
11.71
30
0
0
VERTEX
8
RASTER
10
79.885
20
11.191
30
0
0
VERTEX
8
RASTER
10
80.348
20
10.748
30
0
0
VERTEX
8
RASTER
10
80.868
20
10.39
30
0
0
VERTEX
8
RASTER
10
81.428
20
10.123
30
0
0
VERTEX
8
RASTER
10
82.014
20
9.951
30
0
0
VERTEX
8
RASTER
10
82.61
20
9.874
30
0
0
VERTEX
8
RASTER
10
83.2
20
9.893
30
0
0
VERTEX
8
RASTER
10
83.77
20
10.003
30
0
0
VERTEX
8
RASTER
10
84.305
20
10.198
30
0
0
VERTEX
8
RASTER
10
84.794
20
10.471
30
0
0
VERTEX
8
RASTER
10
85.226
20
10.812
30
0
0
VERTEX
8
RASTER
10
85.591
20
11.209
30
0
0
VERTEX
8
RASTER
10
85.883
20
11.651
30
0
0
VERTEX
8
RASTER
10
86.097
20
12.124
30
0
0
VERTEX
8
RASTER
10
86.23
20
12.616
30
0
0
VERTEX
8
RASTER
10
86.282
20
13.112
30
0
0
VERTEX
8
RASTER
10
86.256
20
13.6
30
0
0
VERTEX
8
RASTER
10
86.154
20
14.068
30
0
0
VERTEX
8
RASTER
10
85.982
20
14.504
30
0
0
VERTEX
8
RASTER
10
85.748
20
14.898
30
0
0
VERTEX
8
RASTER
10
85.461
20
15.243
30
0
0
VERTEX
8
RASTER
10
85.13
20
15.53
30
0
0
VERTEX
8
RASTER
10
84.766
20
15.756
30
0
0
VERTEX
8
RASTER
10
84.38
20
15.916
30
0
0
VERTEX
8
RASTER
10
83.983
20
16.01
30
0
0
VERTEX
8
RASTER
10
83.586
20
16.039
30
0
0
VERTEX
8
RASTER
10
83.2
20
16.004
30
0
0
VERTEX
8
RASTER
10
82.834
20
15.91
30
0
0
VERTEX
8
RASTER
10
82.497
20
15.763
30
0
0
VERTEX
8
RASTER
10
82.197
20
15.568
30
0
0
VERTEX
8
RASTER
10
81.94
20
15.334
30
0
0
VERTEX
8
RASTER
10
81.73
20
15.07
30
0
0
VERTEX
8
RASTER
10
81.571
20
14.783
30
0
0
VERTEX
8
RASTER
10
81.464
20
14.484
30
0
0
VERTEX
8
RASTER
10
81.409
20
14.182
30
0
0
VERTEX
8
RASTER
10
81.404
20
13.884
30
0
0
VERTEX
8
RASTER
10
81.447
20
13.6
30
0
0
VERTEX
8
RASTER
10
81.533
20
13.336
30
0
0
VERTEX
8
RASTER
10
81.657
20
13.099
30
0
0
VERTEX
8
RASTER
10
81.812
20
12.893
30
0
0
VERTEX
8
RASTER
10
81.993
20
12.723
30
0
0
VERTEX
8
RASTER
10
82.191
20
12.591
30
0
0
VERTEX
8
RASTER
10
82.399
20
12.498
30
0
0
VERTEX
8
RASTER
10
82.611
20
12.445
30
0
0
VERTEX
8
RASTER
10
82.819
20
12.429
30
0
0
VERTEX
8
RASTER
10
83.018
20
12.448
30
0
0
VERTEX
8
RASTER
10
83.2
20
12.499
30
0
0
VERTEX
8
RASTER
10
83.362
20
12.576
30
0
0
VERTEX
8
RASTER
10
83.5
20
12.676
30
0
0
VERTEX
8
RASTER
10
83.611
20
12.793
30
0
0
VERTEX
8
RASTER
10
83.694
20
12.92
30
0
0
VERTEX
8
RASTER
10
83.749
20
13.051
30
0
0
VERTEX
8
RASTER
10
83.775
20
13.182
30
0
0
VERTEX
8
RASTER
10
83.775
20
13.307
30
0
0
VERTEX
8
RASTER
10
83.752
20
13.421
30
0
0
VERTEX
8
RASTER
10
83.709
20
13.519
30
0
0
VERTEX
8
RASTER
10
83.65
20
13.6
30
0
0
SEQEND
8
RASTER
0
ENDSEC
0
EOF
