0
SECTION
2
HEADER
9
$ACADVER
1
AC1009
9
$EXTMIN
10
0
20
0
9
$EXTMAX
10
288
20
598.6
0
ENDSEC
0
SECTION
2
TABLES
0
TABLE
2
LAYER
70
2
0
LAYER
2
CUT
70
0
62
1
6
CONTINUOUS
0
LAYER
2
RASTER
70
0
62
7
6
CONTINUOUS
0
ENDTAB
0
ENDSEC
0
SECTION
2
ENTITIES
0
POLYLINE
8
CUT
66
1
70
1
0
VERTEX
8
CUT
10
7
20
594.6
30
0
0
VERTEX
8
CUT
10
81
20
594.6
30
0
0
VERTEX
8
CUT
10
84
20
594.6
30
0
0
VERTEX
8
CUT
10
84
20
588.933
30
0
0
VERTEX
8
CUT
10
81
20
588.933
30
0
0
VERTEX
8
CUT
10
81
20
583.267
30
0
0
VERTEX
8
CUT
10
84
20
583.267
30
0
0
VERTEX
8
CUT
10
84
20
577.6
30
0
0
VERTEX
8
CUT
10
81
20
577.6
30
0
0
VERTEX
8
CUT
10
81
20
577.6
30
0
0
VERTEX
8
CUT
10
75.308
20
577.6
30
0
0
VERTEX
8
CUT
10
75.308
20
574.6
30
0
0
VERTEX
8
CUT
10
69.615
20
574.6
30
0
0
VERTEX
8
CUT
10
69.615
20
577.6
30
0
0
VERTEX
8
CUT
10
63.923
20
577.6
30
0
0
VERTEX
8
CUT
10
63.923
20
574.6
30
0
0
VERTEX
8
CUT
10
58.231
20
574.6
30
0
0
VERTEX
8
CUT
10
58.231
20
577.6
30
0
0
VERTEX
8
CUT
10
52.538
20
577.6
30
0
0
VERTEX
8
CUT
10
52.538
20
574.6
30
0
0
VERTEX
8
CUT
10
46.846
20
574.6
30
0
0
VERTEX
8
CUT
10
46.846
20
577.6
30
0
0
VERTEX
8
CUT
10
41.154
20
577.6
30
0
0
VERTEX
8
CUT
10
41.154
20
574.6
30
0
0
VERTEX
8
CUT
10
35.462
20
574.6
30
0
0
VERTEX
8
CUT
10
35.462
20
577.6
30
0
0
VERTEX
8
CUT
10
29.769
20
577.6
30
0
0
VERTEX
8
CUT
10
29.769
20
574.6
30
0
0
VERTEX
8
CUT
10
24.077
20
574.6
30
0
0
VERTEX
8
CUT
10
24.077
20
577.6
30
0
0
VERTEX
8
CUT
10
18.385
20
577.6
30
0
0
VERTEX
8
CUT
10
18.385
20
574.6
30
0
0
VERTEX
8
CUT
10
12.692
20
574.6
30
0
0
VERTEX
8
CUT
10
12.692
20
577.6
30
0
0
VERTEX
8
CUT
10
7
20
577.6
30
0
0
VERTEX
8
CUT
10
7
20
577.6
30
0
0
VERTEX
8
CUT
10
4
20
577.6
30
0
0
VERTEX
8
CUT
10
4
20
583.267
30
0
0
VERTEX
8
CUT
10
7
20
583.267
30
0
0
VERTEX
8
CUT
10
7
20
588.933
30
0
0
VERTEX
8
CUT
10
4
20
588.933
30
0
0
VERTEX
8
CUT
10
4
20
594.6
30
0
0
VERTEX
8
CUT
10
7
20
594.6
30
0
0
SEQEND
8
CUT
0
POLYLINE
8
RASTER
66
1
70
1
0
VERTEX
8
RASTER
10
8
20
590.7
30
0
0
VERTEX
8
RASTER
10
80
20
590.7
30
0
0
VERTEX
8
RASTER
10
80
20
590.1
30
0
0
VERTEX
8
RASTER
10
8
20
590.1
30
0
0
SEQEND
8
RASTER
0
POLYLINE
8
RASTER
66
1
70
1
0
VERTEX
8
RASTER
10
8
20
586.5
30
0
0
VERTEX
8
RASTER
10
80
20
586.5
30
0
0
VERTEX
8
RASTER
10
80
20
585.9
30
0
0
VERTEX
8
RASTER
10
8
20
585.9
30
0
0
SEQEND
8
RASTER
0
POLYLINE
8
RASTER
66
1
70
1
0
VERTEX
8
RASTER
10
8
20
582.3
30
0
0
VERTEX
8
RASTER
10
80
20
582.3
30
0
0
VERTEX
8
RASTER
10
80
20
581.7
30
0
0
VERTEX
8
RASTER
10
8
20
581.7
30
0
0
SEQEND
8
RASTER
0
POLYLINE
8
RASTER
66
1
70
1
0
VERTEX
8
RASTER
10
23.5
20
594.6
30
0
0
VERTEX
8
RASTER
10
27.5
20
594.6
30
0
0
VERTEX
8
RASTER
10
27.5
20
577.6
30
0
0
VERTEX
8
RASTER
10
23.5
20
577.6
30
0
0
SEQEND
8
RASTER
0
POLYLINE
8
RASTER
66
1
70
1
0
VERTEX
8
RASTER
10
60.5
20
594.6
30
0
0
VERTEX
8
RASTER
10
64.5
20
594.6
30
0
0
VERTEX
8
RASTER
10
64.5
20
577.6
30
0
0
VERTEX
8
RASTER
10
60.5
20
577.6
30
0
0
SEQEND
8
RASTER
0
CIRCLE
8
RASTER
10
25.5
20
591.2
30
0
40
0.55
0
CIRCLE
8
RASTER
10
62.5
20
591.2
30
0
40
0.55
0
CIRCLE
8
RASTER
10
25.5
20
586.1
30
0
40
0.55
0
CIRCLE
8
RASTER
10
62.5
20
586.1
30
0
40
0.55
0
CIRCLE
8
RASTER
10
25.5
20
581
30
0
40
0.55
0
CIRCLE
8
RASTER
10
62.5
20
581
30
0
40
0.55
0
POLYLINE
8
RASTER
66
1
70
1
0
VERTEX
8
RASTER
10
40
20
588.9
30
0
0
VERTEX
8
RASTER
10
40.019
20
589.181
30
0
0
VERTEX
8
RASTER
10
40.075
20
589.425
30
0
0
VERTEX
8
RASTER
10
40.169
20
589.631
30
0
0
VERTEX
8
RASTER
10
40.3
20
589.8
30
0
0
VERTEX
8
RASTER
10
40.469
20
589.931
30
0
0
VERTEX
8
RASTER
10
40.675
20
590.025
30
0
0
VERTEX
8
RASTER
10
40.919
20
590.081
30
0
0
VERTEX
8
RASTER
10
41.2
20
590.1
30
0
0
VERTEX
8
RASTER
10
46.8
20
590.1
30
0
0
VERTEX
8
RASTER
10
47.081
20
590.081
30
0
0
VERTEX
8
RASTER
10
47.325
20
590.025
30
0
0
VERTEX
8
RASTER
10
47.531
20
589.931
30
0
0
VERTEX
8
RASTER
10
47.7
20
589.8
30
0
0
VERTEX
8
RASTER
10
47.831
20
589.631
30
0
0
VERTEX
8
RASTER
10
47.925
20
589.425
30
0
0
VERTEX
8
RASTER
10
47.981
20
589.181
30
0
0
VERTEX
8
RASTER
10
48
20
588.9
30
0
0
VERTEX
8
RASTER
10
48
20
583.3
30
0
0
VERTEX
8
RASTER
10
47.981
20
583.019
30
0
0
VERTEX
8
RASTER
10
47.925
20
582.775
30
0
0
VERTEX
8
RASTER
10
47.831
20
582.569
30
0
0
VERTEX
8
RASTER
10
47.7
20
582.4
30
0
0
VERTEX
8
RASTER
10
47.531
20
582.269
30
0
0
VERTEX
8
RASTER
10
47.325
20
582.175
30
0
0
VERTEX
8
RASTER
10
47.081
20
582.119
30
0
0
VERTEX
8
RASTER
10
46.8
20
582.1
30
0
0
VERTEX
8
RASTER
10
41.2
20
582.1
30
0
0
VERTEX
8
RASTER
10
40.919
20
582.119
30
0
0
VERTEX
8
RASTER
10
40.675
20
582.175
30
0
0
VERTEX
8
RASTER
10
40.469
20
582.269
30
0
0
VERTEX
8
RASTER
10
40.3
20
582.4
30
0
0
VERTEX
8
RASTER
10
40.169
20
582.569
30
0
0
VERTEX
8
RASTER
10
40.075
20
582.775
30
0
0
VERTEX
8
RASTER
10
40.019
20
583.019
30
0
0
VERTEX
8
RASTER
10
40
20
583.3
30
0
0
SEQEND
8
RASTER
0
CIRCLE
8
RASTER
10
44
20
587.1
30
0
40
1.1
0
POLYLINE
8
RASTER
66
1
70
1
0
VERTEX
8
RASTER
10
43.3
20
586.5
30
0
0
VERTEX
8
RASTER
10
43
20
583.5
30
0
0
VERTEX
8
RASTER
10
45
20
583.5
30
0
0
VERTEX
8
RASTER
10
44.7
20
586.5
30
0
0
VERTEX
8
RASTER
10
43.3
20
586.5
30
0
0
SEQEND
8
RASTER
0
POLYLINE
8
CUT
66
1
70
1
0
VERTEX
8
CUT
10
91
20
588.2
30
0
0
VERTEX
8
CUT
10
91
20
588.2
30
0
0
VERTEX
8
CUT
10
91
20
591.5
30
0
0
VERTEX
8
CUT
10
91
20
591.5
30
0
0
VERTEX
8
CUT
10
91.106
20
592.302
30
0
0
VERTEX
8
CUT
10
91.415
20
593.05
30
0
0
VERTEX
8
CUT
10
91.908
20
593.692
30
0
0
VERTEX
8
CUT
10
92.55
20
594.185
30
0
0
VERTEX
8
CUT
10
93.298
20
594.494
30
0
0
VERTEX
8
CUT
10
94.1
20
594.6
30
0
0
VERTEX
8
CUT
10
102.7
20
594.6
30
0
0
VERTEX
8
CUT
10
103.502
20
594.494
30
0
0
VERTEX
8
CUT
10
104.25
20
594.185
30
0
0
VERTEX
8
CUT
10
104.892
20
593.692
30
0
0
VERTEX
8
CUT
10
105.385
20
593.05
30
0
0
VERTEX
8
CUT
10
105.694
20
592.302
30
0
0
VERTEX
8
CUT
10
105.8
20
591.5
30
0
0
VERTEX
8
CUT
10
105.8
20
591.5
30
0
0
VERTEX
8
CUT
10
105.8
20
588.2
30
0
0
VERTEX
8
CUT
10
105.8
20
588.2
30
0
0
VERTEX
8
CUT
10
120.6
20
588.2
30
0
0
VERTEX
8
CUT
10
120.6
20
588.2
30
0
0
VERTEX
8
CUT
10
120.6
20
591.5
30
0
0
VERTEX
8
CUT
10
120.6
20
591.5
30
0
0
VERTEX
8
CUT
10
120.706
20
592.302
30
0
0
VERTEX
8
CUT
10
121.015
20
593.05
30
0
0
VERTEX
8
CUT
10
121.508
20
593.692
30
0
0
VERTEX
8
CUT
10
122.15
20
594.185
30
0
0
VERTEX
8
CUT
10
122.898
20
594.494
30
0
0
VERTEX
8
CUT
10
123.7
20
594.6
30
0
0
VERTEX
8
CUT
10
132.3
20
594.6
30
0
0
VERTEX
8
CUT
10
133.102
20
594.494
30
0
0
VERTEX
8
CUT
10
133.85
20
594.185
30
0
0
VERTEX
8
CUT
10
134.492
20
593.692
30
0
0
VERTEX
8
CUT
10
134.985
20
593.05
30
0
0
VERTEX
8
CUT
10
135.294
20
592.302
30
0
0
VERTEX
8
CUT
10
135.4
20
591.5
30
0
0
VERTEX
8
CUT
10
135.4
20
591.5
30
0
0
VERTEX
8
CUT
10
135.4
20
588.2
30
0
0
VERTEX
8
CUT
10
135.4
20
588.2
30
0
0
VERTEX
8
CUT
10
150.2
20
588.2
30
0
0
VERTEX
8
CUT
10
150.2
20
588.2
30
0
0
VERTEX
8
CUT
10
150.2
20
591.5
30
0
0
VERTEX
8
CUT
10
150.2
20
591.5
30
0
0
VERTEX
8
CUT
10
150.306
20
592.302
30
0
0
VERTEX
8
CUT
10
150.615
20
593.05
30
0
0
VERTEX
8
CUT
10
151.108
20
593.692
30
0
0
VERTEX
8
CUT
10
151.75
20
594.185
30
0
0
VERTEX
8
CUT
10
152.498
20
594.494
30
0
0
VERTEX
8
CUT
10
153.3
20
594.6
30
0
0
VERTEX
8
CUT
10
161.9
20
594.6
30
0
0
VERTEX
8
CUT
10
162.702
20
594.494
30
0
0
VERTEX
8
CUT
10
163.45
20
594.185
30
0
0
VERTEX
8
CUT
10
164.092
20
593.692
30
0
0
VERTEX
8
CUT
10
164.585
20
593.05
30
0
0
VERTEX
8
CUT
10
164.894
20
592.302
30
0
0
VERTEX
8
CUT
10
165
20
591.5
30
0
0
VERTEX
8
CUT
10
165
20
591.5
30
0
0
VERTEX
8
CUT
10
165
20
588.2
30
0
0
VERTEX
8
CUT
10
165
20
588.2
30
0
0
VERTEX
8
CUT
10
168
20
588.2
30
0
0
VERTEX
8
CUT
10
168
20
582.533
30
0
0
VERTEX
8
CUT
10
165
20
582.533
30
0
0
VERTEX
8
CUT
10
165
20
576.867
30
0
0
VERTEX
8
CUT
10
168
20
576.867
30
0
0
VERTEX
8
CUT
10
168
20
571.2
30
0
0
VERTEX
8
CUT
10
165
20
571.2
30
0
0
VERTEX
8
CUT
10
165
20
571.2
30
0
0
VERTEX
8
CUT
10
159.308
20
571.2
30
0
0
VERTEX
8
CUT
10
159.308
20
568.2
30
0
0
VERTEX
8
CUT
10
153.615
20
568.2
30
0
0
VERTEX
8
CUT
10
153.615
20
571.2
30
0
0
VERTEX
8
CUT
10
147.923
20
571.2
30
0
0
VERTEX
8
CUT
10
147.923
20
568.2
30
0
0
VERTEX
8
CUT
10
142.231
20
568.2
30
0
0
VERTEX
8
CUT
10
142.231
20
571.2
30
0
0
VERTEX
8
CUT
10
136.538
20
571.2
30
0
0
VERTEX
8
CUT
10
136.538
20
568.2
30
0
0
VERTEX
8
CUT
10
130.846
20
568.2
30
0
0
VERTEX
8
CUT
10
130.846
20
571.2
30
0
0
VERTEX
8
CUT
10
125.154
20
571.2
30
0
0
VERTEX
8
CUT
10
125.154
20
568.2
30
0
0
VERTEX
8
CUT
10
119.462
20
568.2
30
0
0
VERTEX
8
CUT
10
119.462
20
571.2
30
0
0
VERTEX
8
CUT
10
113.769
20
571.2
30
0
0
VERTEX
8
CUT
10
113.769
20
568.2
30
0
0
VERTEX
8
CUT
10
108.077
20
568.2
30
0
0
VERTEX
8
CUT
10
108.077
20
571.2
30
0
0
VERTEX
8
CUT
10
102.385
20
571.2
30
0
0
VERTEX
8
CUT
10
102.385
20
568.2
30
0
0
VERTEX
8
CUT
10
96.692
20
568.2
30
0
0
VERTEX
8
CUT
10
96.692
20
571.2
30
0
0
VERTEX
8
CUT
10
91
20
571.2
30
0
0
VERTEX
8
CUT
10
91
20
571.2
30
0
0
VERTEX
8
CUT
10
88
20
571.2
30
0
0
VERTEX
8
CUT
10
88
20
576.867
30
0
0
VERTEX
8
CUT
10
91
20
576.867
30
0
0
VERTEX
8
CUT
10
91
20
582.533
30
0
0
VERTEX
8
CUT
10
88
20
582.533
30
0
0
VERTEX
8
CUT
10
88
20
588.2
30
0
0
VERTEX
8
CUT
10
91
20
588.2
30
0
0
SEQEND
8
CUT
0
CIRCLE
8
CUT
10
98.4
20
591.5
30
0
40
1.65
0
CIRCLE
8
CUT
10
128
20
591.5
30
0
40
1.65
0
CIRCLE
8
CUT
10
157.6
20
591.5
30
0
40
1.65
0
POLYLINE
8
RASTER
66
1
70
1
0
VERTEX
8
RASTER
10
92
20
584.3
30
0
0
VERTEX
8
RASTER
10
164
20
584.3
30
0
0
VERTEX
8
RASTER
10
164
20
583.7
30
0
0
VERTEX
8
RASTER
10
92
20
583.7
30
0
0
SEQEND
8
RASTER
0
POLYLINE
8
RASTER
66
1
70
1
0
VERTEX
8
RASTER
10
92
20
580.1
30
0
0
VERTEX
8
RASTER
10
164
20
580.1
30
0
0
VERTEX
8
RASTER
10
164
20
579.5
30
0
0
VERTEX
8
RASTER
10
92
20
579.5
30
0
0
SEQEND
8
RASTER
0
POLYLINE
8
RASTER
66
1
70
1
0
VERTEX
8
RASTER
10
92
20
575.9
30
0
0
VERTEX
8
RASTER
10
164
20
575.9
30
0
0
VERTEX
8
RASTER
10
164
20
575.3
30
0
0
VERTEX
8
RASTER
10
92
20
575.3
30
0
0
SEQEND
8
RASTER
0
POLYLINE
8
RASTER
66
1
70
1
0
VERTEX
8
RASTER
10
107.5
20
588.2
30
0
0
VERTEX
8
RASTER
10
111.5
20
588.2
30
0
0
VERTEX
8
RASTER
10
111.5
20
571.2
30
0
0
VERTEX
8
RASTER
10
107.5
20
571.2
30
0
0
SEQEND
8
RASTER
0
POLYLINE
8
RASTER
66
1
70
1
0
VERTEX
8
RASTER
10
144.5
20
588.2
30
0
0
VERTEX
8
RASTER
10
148.5
20
588.2
30
0
0
VERTEX
8
RASTER
10
148.5
20
571.2
30
0
0
VERTEX
8
RASTER
10
144.5
20
571.2
30
0
0
SEQEND
8
RASTER
0
CIRCLE
8
RASTER
10
109.5
20
584.8
30
0
40
0.55
0
CIRCLE
8
RASTER
10
146.5
20
584.8
30
0
40
0.55
0
CIRCLE
8
RASTER
10
109.5
20
579.7
30
0
40
0.55
0
CIRCLE
8
RASTER
10
146.5
20
579.7
30
0
40
0.55
0
CIRCLE
8
RASTER
10
109.5
20
574.6
30
0
40
0.55
0
CIRCLE
8
RASTER
10
146.5
20
574.6
30
0
40
0.55
0
POLYLINE
8
CUT
66
1
70
1
0
VERTEX
8
CUT
10
175
20
594.6
30
0
0
VERTEX
8
CUT
10
223
20
594.6
30
0
0
VERTEX
8
CUT
10
223
20
594.6
30
0
0
VERTEX
8
CUT
10
223
20
588.933
30
0
0
VERTEX
8
CUT
10
226
20
588.933
30
0
0
VERTEX
8
CUT
10
226
20
583.267
30
0
0
VERTEX
8
CUT
10
223
20
583.267
30
0
0
VERTEX
8
CUT
10
223
20
577.6
30
0
0
VERTEX
8
CUT
10
223
20
577.6
30
0
0
VERTEX
8
CUT
10
223
20
577.6
30
0
0
VERTEX
8
CUT
10
217.667
20
577.6
30
0
0
VERTEX
8
CUT
10
217.667
20
574.6
30
0
0
VERTEX
8
CUT
10
212.333
20
574.6
30
0
0
VERTEX
8
CUT
10
212.333
20
577.6
30
0
0
VERTEX
8
CUT
10
207
20
577.6
30
0
0
VERTEX
8
CUT
10
207
20
574.6
30
0
0
VERTEX
8
CUT
10
201.667
20
574.6
30
0
0
VERTEX
8
CUT
10
201.667
20
577.6
30
0
0
VERTEX
8
CUT
10
196.333
20
577.6
30
0
0
VERTEX
8
CUT
10
196.333
20
574.6
30
0
0
VERTEX
8
CUT
10
191
20
574.6
30
0
0
VERTEX
8
CUT
10
191
20
577.6
30
0
0
VERTEX
8
CUT
10
185.667
20
577.6
30
0
0
VERTEX
8
CUT
10
185.667
20
574.6
30
0
0
VERTEX
8
CUT
10
180.333
20
574.6
30
0
0
VERTEX
8
CUT
10
180.333
20
577.6
30
0
0
VERTEX
8
CUT
10
175
20
577.6
30
0
0
VERTEX
8
CUT
10
175
20
577.6
30
0
0
VERTEX
8
CUT
10
175
20
577.6
30
0
0
VERTEX
8
CUT
10
175
20
583.267
30
0
0
VERTEX
8
CUT
10
172
20
583.267
30
0
0
VERTEX
8
CUT
10
172
20
588.933
30
0
0
VERTEX
8
CUT
10
175
20
588.933
30
0
0
VERTEX
8
CUT
10
175
20
594.6
30
0
0
VERTEX
8
CUT
10
175
20
594.6
30
0
0
SEQEND
8
CUT
0
POLYLINE
8
RASTER
66
1
70
1
0
VERTEX
8
RASTER
10
176
20
590.7
30
0
0
VERTEX
8
RASTER
10
222
20
590.7
30
0
0
VERTEX
8
RASTER
10
222
20
590.1
30
0
0
VERTEX
8
RASTER
10
176
20
590.1
30
0
0
SEQEND
8
RASTER
0
POLYLINE
8
RASTER
66
1
70
1
0
VERTEX
8
RASTER
10
176
20
586.5
30
0
0
VERTEX
8
RASTER
10
222
20
586.5
30
0
0
VERTEX
8
RASTER
10
222
20
585.9
30
0
0
VERTEX
8
RASTER
10
176
20
585.9
30
0
0
SEQEND
8
RASTER
0
POLYLINE
8
RASTER
66
1
70
1
0
VERTEX
8
RASTER
10
176
20
582.3
30
0
0
VERTEX
8
RASTER
10
222
20
582.3
30
0
0
VERTEX
8
RASTER
10
222
20
581.7
30
0
0
VERTEX
8
RASTER
10
176
20
581.7
30
0
0
SEQEND
8
RASTER
0
POLYLINE
8
CUT
66
1
70
1
0
VERTEX
8
CUT
10
233
20
594.6
30
0
0
VERTEX
8
CUT
10
281
20
594.6
30
0
0
VERTEX
8
CUT
10
281
20
594.6
30
0
0
VERTEX
8
CUT
10
281
20
588.933
30
0
0
VERTEX
8
CUT
10
284
20
588.933
30
0
0
VERTEX
8
CUT
10
284
20
583.267
30
0
0
VERTEX
8
CUT
10
281
20
583.267
30
0
0
VERTEX
8
CUT
10
281
20
577.6
30
0
0
VERTEX
8
CUT
10
281
20
577.6
30
0
0
VERTEX
8
CUT
10
281
20
577.6
30
0
0
VERTEX
8
CUT
10
275.667
20
577.6
30
0
0
VERTEX
8
CUT
10
275.667
20
574.6
30
0
0
VERTEX
8
CUT
10
270.333
20
574.6
30
0
0
VERTEX
8
CUT
10
270.333
20
577.6
30
0
0
VERTEX
8
CUT
10
265
20
577.6
30
0
0
VERTEX
8
CUT
10
265
20
574.6
30
0
0
VERTEX
8
CUT
10
259.667
20
574.6
30
0
0
VERTEX
8
CUT
10
259.667
20
577.6
30
0
0
VERTEX
8
CUT
10
254.333
20
577.6
30
0
0
VERTEX
8
CUT
10
254.333
20
574.6
30
0
0
VERTEX
8
CUT
10
249
20
574.6
30
0
0
VERTEX
8
CUT
10
249
20
577.6
30
0
0
VERTEX
8
CUT
10
243.667
20
577.6
30
0
0
VERTEX
8
CUT
10
243.667
20
574.6
30
0
0
VERTEX
8
CUT
10
238.333
20
574.6
30
0
0
VERTEX
8
CUT
10
238.333
20
577.6
30
0
0
VERTEX
8
CUT
10
233
20
577.6
30
0
0
VERTEX
8
CUT
10
233
20
577.6
30
0
0
VERTEX
8
CUT
10
233
20
577.6
30
0
0
VERTEX
8
CUT
10
233
20
583.267
30
0
0
VERTEX
8
CUT
10
230
20
583.267
30
0
0
VERTEX
8
CUT
10
230
20
588.933
30
0
0
VERTEX
8
CUT
10
233
20
588.933
30
0
0
VERTEX
8
CUT
10
233
20
594.6
30
0
0
VERTEX
8
CUT
10
233
20
594.6
30
0
0
SEQEND
8
CUT
0
POLYLINE
8
RASTER
66
1
70
1
0
VERTEX
8
RASTER
10
234
20
590.7
30
0
0
VERTEX
8
RASTER
10
280
20
590.7
30
0
0
VERTEX
8
RASTER
10
280
20
590.1
30
0
0
VERTEX
8
RASTER
10
234
20
590.1
30
0
0
SEQEND
8
RASTER
0
POLYLINE
8
RASTER
66
1
70
1
0
VERTEX
8
RASTER
10
234
20
586.5
30
0
0
VERTEX
8
RASTER
10
280
20
586.5
30
0
0
VERTEX
8
RASTER
10
280
20
585.9
30
0
0
VERTEX
8
RASTER
10
234
20
585.9
30
0
0
SEQEND
8
RASTER
0
POLYLINE
8
RASTER
66
1
70
1
0
VERTEX
8
RASTER
10
234
20
582.3
30
0
0
VERTEX
8
RASTER
10
280
20
582.3
30
0
0
VERTEX
8
RASTER
10
280
20
581.7
30
0
0
VERTEX
8
RASTER
10
234
20
581.7
30
0
0
SEQEND
8
RASTER
0
POLYLINE
8
CUT
66
1
70
1
0
VERTEX
8
CUT
10
4
20
564.2
30
0
0
VERTEX
8
CUT
10
7
20
564.2
30
0
0
VERTEX
8
CUT
10
7
20
564.2
30
0
0
VERTEX
8
CUT
10
12.692
20
564.2
30
0
0
VERTEX
8
CUT
10
12.692
20
561.2
30
0
0
VERTEX
8
CUT
10
18.385
20
561.2
30
0
0
VERTEX
8
CUT
10
18.385
20
564.2
30
0
0
VERTEX
8
CUT
10
24.077
20
564.2
30
0
0
VERTEX
8
CUT
10
24.077
20
561.2
30
0
0
VERTEX
8
CUT
10
29.769
20
561.2
30
0
0
VERTEX
8
CUT
10
29.769
20
564.2
30
0
0
VERTEX
8
CUT
10
35.462
20
564.2
30
0
0
VERTEX
8
CUT
10
35.462
20
561.2
30
0
0
VERTEX
8
CUT
10
41.154
20
561.2
30
0
0
VERTEX
8
CUT
10
41.154
20
564.2
30
0
0
VERTEX
8
CUT
10
46.846
20
564.2
30
0
0
VERTEX
8
CUT
10
46.846
20
561.2
30
0
0
VERTEX
8
CUT
10
52.538
20
561.2
30
0
0
VERTEX
8
CUT
10
52.538
20
564.2
30
0
0
VERTEX
8
CUT
10
58.231
20
564.2
30
0
0
VERTEX
8
CUT
10
58.231
20
561.2
30
0
0
VERTEX
8
CUT
10
63.923
20
561.2
30
0
0
VERTEX
8
CUT
10
63.923
20
564.2
30
0
0
VERTEX
8
CUT
10
69.615
20
564.2
30
0
0
VERTEX
8
CUT
10
69.615
20
561.2
30
0
0
VERTEX
8
CUT
10
75.308
20
561.2
30
0
0
VERTEX
8
CUT
10
75.308
20
564.2
30
0
0
VERTEX
8
CUT
10
81
20
564.2
30
0
0
VERTEX
8
CUT
10
81
20
564.2
30
0
0
VERTEX
8
CUT
10
81
20
564.2
30
0
0
VERTEX
8
CUT
10
84
20
564.2
30
0
0
VERTEX
8
CUT
10
84
20
561.2
30
0
0
VERTEX
8
CUT
10
84
20
561.2
30
0
0
VERTEX
8
CUT
10
84
20
555.867
30
0
0
VERTEX
8
CUT
10
81
20
555.867
30
0
0
VERTEX
8
CUT
10
81
20
550.533
30
0
0
VERTEX
8
CUT
10
84
20
550.533
30
0
0
VERTEX
8
CUT
10
84
20
545.2
30
0
0
VERTEX
8
CUT
10
81
20
545.2
30
0
0
VERTEX
8
CUT
10
81
20
539.867
30
0
0
VERTEX
8
CUT
10
84
20
539.867
30
0
0
VERTEX
8
CUT
10
84
20
534.533
30
0
0
VERTEX
8
CUT
10
81
20
534.533
30
0
0
VERTEX
8
CUT
10
81
20
529.2
30
0
0
VERTEX
8
CUT
10
84
20
529.2
30
0
0
VERTEX
8
CUT
10
84
20
523.867
30
0
0
VERTEX
8
CUT
10
81
20
523.867
30
0
0
VERTEX
8
CUT
10
81
20
518.533
30
0
0
VERTEX
8
CUT
10
84
20
518.533
30
0
0
VERTEX
8
CUT
10
84
20
513.2
30
0
0
VERTEX
8
CUT
10
84
20
513.2
30
0
0
VERTEX
8
CUT
10
84
20
513.2
30
0
0
VERTEX
8
CUT
10
84
20
510.2
30
0
0
VERTEX
8
CUT
10
81
20
510.2
30
0
0
VERTEX
8
CUT
10
81
20
510.2
30
0
0
VERTEX
8
CUT
10
75.308
20
510.2
30
0
0
VERTEX
8
CUT
10
75.308
20
513.2
30
0
0
VERTEX
8
CUT
10
69.615
20
513.2
30
0
0
VERTEX
8
CUT
10
69.615
20
510.2
30
0
0
VERTEX
8
CUT
10
63.923
20
510.2
30
0
0
VERTEX
8
CUT
10
63.923
20
513.2
30
0
0
VERTEX
8
CUT
10
58.231
20
513.2
30
0
0
VERTEX
8
CUT
10
58.231
20
510.2
30
0
0
VERTEX
8
CUT
10
52.538
20
510.2
30
0
0
VERTEX
8
CUT
10
52.538
20
513.2
30
0
0
VERTEX
8
CUT
10
46.846
20
513.2
30
0
0
VERTEX
8
CUT
10
46.846
20
510.2
30
0
0
VERTEX
8
CUT
10
41.154
20
510.2
30
0
0
VERTEX
8
CUT
10
41.154
20
513.2
30
0
0
VERTEX
8
CUT
10
35.462
20
513.2
30
0
0
VERTEX
8
CUT
10
35.462
20
510.2
30
0
0
VERTEX
8
CUT
10
29.769
20
510.2
30
0
0
VERTEX
8
CUT
10
29.769
20
513.2
30
0
0
VERTEX
8
CUT
10
24.077
20
513.2
30
0
0
VERTEX
8
CUT
10
24.077
20
510.2
30
0
0
VERTEX
8
CUT
10
18.385
20
510.2
30
0
0
VERTEX
8
CUT
10
18.385
20
513.2
30
0
0
VERTEX
8
CUT
10
12.692
20
513.2
30
0
0
VERTEX
8
CUT
10
12.692
20
510.2
30
0
0
VERTEX
8
CUT
10
7
20
510.2
30
0
0
VERTEX
8
CUT
10
7
20
510.2
30
0
0
VERTEX
8
CUT
10
7
20
510.2
30
0
0
VERTEX
8
CUT
10
4
20
510.2
30
0
0
VERTEX
8
CUT
10
4
20
513.2
30
0
0
VERTEX
8
CUT
10
4
20
513.2
30
0
0
VERTEX
8
CUT
10
4
20
518.533
30
0
0
VERTEX
8
CUT
10
7
20
518.533
30
0
0
VERTEX
8
CUT
10
7
20
523.867
30
0
0
VERTEX
8
CUT
10
4
20
523.867
30
0
0
VERTEX
8
CUT
10
4
20
529.2
30
0
0
VERTEX
8
CUT
10
7
20
529.2
30
0
0
VERTEX
8
CUT
10
7
20
534.533
30
0
0
VERTEX
8
CUT
10
4
20
534.533
30
0
0
VERTEX
8
CUT
10
4
20
539.867
30
0
0
VERTEX
8
CUT
10
7
20
539.867
30
0
0
VERTEX
8
CUT
10
7
20
545.2
30
0
0
VERTEX
8
CUT
10
4
20
545.2
30
0
0
VERTEX
8
CUT
10
4
20
550.533
30
0
0
VERTEX
8
CUT
10
7
20
550.533
30
0
0
VERTEX
8
CUT
10
7
20
555.867
30
0
0
VERTEX
8
CUT
10
4
20
555.867
30
0
0
VERTEX
8
CUT
10
4
20
561.2
30
0
0
VERTEX
8
CUT
10
4
20
561.2
30
0
0
VERTEX
8
CUT
10
4
20
561.2
30
0
0
SEQEND
8
CUT
0
POLYLINE
8
CUT
66
1
70
1
0
VERTEX
8
CUT
10
91
20
564.2
30
0
0
VERTEX
8
CUT
10
165
20
564.2
30
0
0
VERTEX
8
CUT
10
168
20
564.2
30
0
0
VERTEX
8
CUT
10
168
20
561.2
30
0
0
VERTEX
8
CUT
10
165
20
561.2
30
0
0
VERTEX
8
CUT
10
165
20
558.2
30
0
0
VERTEX
8
CUT
10
168
20
558.2
30
0
0
VERTEX
8
CUT
10
168
20
555.2
30
0
0
VERTEX
8
CUT
10
165
20
555.2
30
0
0
VERTEX
8
CUT
10
165
20
555.2
30
0
0
VERTEX
8
CUT
10
159.308
20
555.2
30
0
0
VERTEX
8
CUT
10
159.308
20
552.2
30
0
0
VERTEX
8
CUT
10
153.615
20
552.2
30
0
0
VERTEX
8
CUT
10
153.615
20
555.2
30
0
0
VERTEX
8
CUT
10
147.923
20
555.2
30
0
0
VERTEX
8
CUT
10
147.923
20
552.2
30
0
0
VERTEX
8
CUT
10
142.231
20
552.2
30
0
0
VERTEX
8
CUT
10
142.231
20
555.2
30
0
0
VERTEX
8
CUT
10
136.538
20
555.2
30
0
0
VERTEX
8
CUT
10
136.538
20
552.2
30
0
0
VERTEX
8
CUT
10
130.846
20
552.2
30
0
0
VERTEX
8
CUT
10
130.846
20
555.2
30
0
0
VERTEX
8
CUT
10
125.154
20
555.2
30
0
0
VERTEX
8
CUT
10
125.154
20
552.2
30
0
0
VERTEX
8
CUT
10
119.462
20
552.2
30
0
0
VERTEX
8
CUT
10
119.462
20
555.2
30
0
0
VERTEX
8
CUT
10
113.769
20
555.2
30
0
0
VERTEX
8
CUT
10
113.769
20
552.2
30
0
0
VERTEX
8
CUT
10
108.077
20
552.2
30
0
0
VERTEX
8
CUT
10
108.077
20
555.2
30
0
0
VERTEX
8
CUT
10
102.385
20
555.2
30
0
0
VERTEX
8
CUT
10
102.385
20
552.2
30
0
0
VERTEX
8
CUT
10
96.692
20
552.2
30
0
0
VERTEX
8
CUT
10
96.692
20
555.2
30
0
0
VERTEX
8
CUT
10
91
20
555.2
30
0
0
VERTEX
8
CUT
10
91
20
555.2
30
0
0
VERTEX
8
CUT
10
88
20
555.2
30
0
0
VERTEX
8
CUT
10
88
20
558.2
30
0
0
VERTEX
8
CUT
10
91
20
558.2
30
0
0
VERTEX
8
CUT
10
91
20
561.2
30
0
0
VERTEX
8
CUT
10
88
20
561.2
30
0
0
VERTEX
8
CUT
10
88
20
564.2
30
0
0
VERTEX
8
CUT
10
91
20
564.2
30
0
0
SEQEND
8
CUT
0
POLYLINE
8
RASTER
66
1
70
1
0
VERTEX
8
RASTER
10
92
20
561
30
0
0
VERTEX
8
RASTER
10
164
20
561
30
0
0
VERTEX
8
RASTER
10
164
20
560.4
30
0
0
VERTEX
8
RASTER
10
92
20
560.4
30
0
0
SEQEND
8
RASTER
0
POLYLINE
8
RASTER
66
1
70
1
0
VERTEX
8
RASTER
10
92
20
557.5
30
0
0
VERTEX
8
RASTER
10
164
20
557.5
30
0
0
VERTEX
8
RASTER
10
164
20
556.9
30
0
0
VERTEX
8
RASTER
10
92
20
556.9
30
0
0
SEQEND
8
RASTER
0
POLYLINE
8
CUT
66
1
70
1
0
VERTEX
8
CUT
10
172
20
557.8
30
0
0
VERTEX
8
CUT
10
172
20
557.8
30
0
0
VERTEX
8
CUT
10
186.8
20
557.8
30
0
0
VERTEX
8
CUT
10
186.8
20
557.8
30
0
0
VERTEX
8
CUT
10
186.8
20
561.1
30
0
0
VERTEX
8
CUT
10
186.8
20
561.1
30
0
0
VERTEX
8
CUT
10
186.906
20
561.902
30
0
0
VERTEX
8
CUT
10
187.215
20
562.65
30
0
0
VERTEX
8
CUT
10
187.708
20
563.292
30
0
0
VERTEX
8
CUT
10
188.35
20
563.785
30
0
0
VERTEX
8
CUT
10
189.098
20
564.094
30
0
0
VERTEX
8
CUT
10
189.9
20
564.2
30
0
0
VERTEX
8
CUT
10
198.5
20
564.2
30
0
0
VERTEX
8
CUT
10
199.302
20
564.094
30
0
0
VERTEX
8
CUT
10
200.05
20
563.785
30
0
0
VERTEX
8
CUT
10
200.692
20
563.292
30
0
0
VERTEX
8
CUT
10
201.185
20
562.65
30
0
0
VERTEX
8
CUT
10
201.494
20
561.902
30
0
0
VERTEX
8
CUT
10
201.6
20
561.1
30
0
0
VERTEX
8
CUT
10
201.6
20
561.1
30
0
0
VERTEX
8
CUT
10
201.6
20
557.8
30
0
0
VERTEX
8
CUT
10
201.6
20
557.8
30
0
0
VERTEX
8
CUT
10
216.4
20
557.8
30
0
0
VERTEX
8
CUT
10
216.4
20
557.8
30
0
0
VERTEX
8
CUT
10
216.4
20
561.1
30
0
0
VERTEX
8
CUT
10
216.4
20
561.1
30
0
0
VERTEX
8
CUT
10
216.506
20
561.902
30
0
0
VERTEX
8
CUT
10
216.815
20
562.65
30
0
0
VERTEX
8
CUT
10
217.308
20
563.292
30
0
0
VERTEX
8
CUT
10
217.95
20
563.785
30
0
0
VERTEX
8
CUT
10
218.698
20
564.094
30
0
0
VERTEX
8
CUT
10
219.5
20
564.2
30
0
0
VERTEX
8
CUT
10
228.1
20
564.2
30
0
0
VERTEX
8
CUT
10
228.902
20
564.094
30
0
0
VERTEX
8
CUT
10
229.65
20
563.785
30
0
0
VERTEX
8
CUT
10
230.292
20
563.292
30
0
0
VERTEX
8
CUT
10
230.785
20
562.65
30
0
0
VERTEX
8
CUT
10
231.094
20
561.902
30
0
0
VERTEX
8
CUT
10
231.2
20
561.1
30
0
0
VERTEX
8
CUT
10
231.2
20
561.1
30
0
0
VERTEX
8
CUT
10
231.2
20
557.8
30
0
0
VERTEX
8
CUT
10
231.2
20
557.8
30
0
0
VERTEX
8
CUT
10
246
20
557.8
30
0
0
VERTEX
8
CUT
10
246
20
557.8
30
0
0
VERTEX
8
CUT
10
246
20
557.4
30
0
0
VERTEX
8
CUT
10
246
20
557.4
30
0
0
VERTEX
8
CUT
10
240.308
20
557.4
30
0
0
VERTEX
8
CUT
10
240.308
20
554.4
30
0
0
VERTEX
8
CUT
10
234.615
20
554.4
30
0
0
VERTEX
8
CUT
10
234.615
20
557.4
30
0
0
VERTEX
8
CUT
10
228.923
20
557.4
30
0
0
VERTEX
8
CUT
10
228.923
20
554.4
30
0
0
VERTEX
8
CUT
10
223.231
20
554.4
30
0
0
VERTEX
8
CUT
10
223.231
20
557.4
30
0
0
VERTEX
8
CUT
10
217.538
20
557.4
30
0
0
VERTEX
8
CUT
10
217.538
20
554.4
30
0
0
VERTEX
8
CUT
10
211.846
20
554.4
30
0
0
VERTEX
8
CUT
10
211.846
20
557.4
30
0
0
VERTEX
8
CUT
10
206.154
20
557.4
30
0
0
VERTEX
8
CUT
10
206.154
20
554.4
30
0
0
VERTEX
8
CUT
10
200.462
20
554.4
30
0
0
VERTEX
8
CUT
10
200.462
20
557.4
30
0
0
VERTEX
8
CUT
10
194.769
20
557.4
30
0
0
VERTEX
8
CUT
10
194.769
20
554.4
30
0
0
VERTEX
8
CUT
10
189.077
20
554.4
30
0
0
VERTEX
8
CUT
10
189.077
20
557.4
30
0
0
VERTEX
8
CUT
10
183.385
20
557.4
30
0
0
VERTEX
8
CUT
10
183.385
20
554.4
30
0
0
VERTEX
8
CUT
10
177.692
20
554.4
30
0
0
VERTEX
8
CUT
10
177.692
20
557.4
30
0
0
VERTEX
8
CUT
10
172
20
557.4
30
0
0
VERTEX
8
CUT
10
172
20
557.4
30
0
0
VERTEX
8
CUT
10
172
20
557.4
30
0
0
SEQEND
8
CUT
0
CIRCLE
8
CUT
10
194.2
20
561.1
30
0
40
1.65
0
CIRCLE
8
CUT
10
223.8
20
561.1
30
0
40
1.65
0
POLYLINE
8
CUT
66
1
70
1
0
VERTEX
8
CUT
10
7
20
506.2
30
0
0
VERTEX
8
CUT
10
55
20
506.2
30
0
0
VERTEX
8
CUT
10
55
20
506.2
30
0
0
VERTEX
8
CUT
10
55
20
503.2
30
0
0
VERTEX
8
CUT
10
58
20
503.2
30
0
0
VERTEX
8
CUT
10
58
20
500.2
30
0
0
VERTEX
8
CUT
10
55
20
500.2
30
0
0
VERTEX
8
CUT
10
55
20
497.2
30
0
0
VERTEX
8
CUT
10
55
20
497.2
30
0
0
VERTEX
8
CUT
10
55
20
497.2
30
0
0
VERTEX
8
CUT
10
49.667
20
497.2
30
0
0
VERTEX
8
CUT
10
49.667
20
494.2
30
0
0
VERTEX
8
CUT
10
44.333
20
494.2
30
0
0
VERTEX
8
CUT
10
44.333
20
497.2
30
0
0
VERTEX
8
CUT
10
39
20
497.2
30
0
0
VERTEX
8
CUT
10
39
20
494.2
30
0
0
VERTEX
8
CUT
10
33.667
20
494.2
30
0
0
VERTEX
8
CUT
10
33.667
20
497.2
30
0
0
VERTEX
8
CUT
10
28.333
20
497.2
30
0
0
VERTEX
8
CUT
10
28.333
20
494.2
30
0
0
VERTEX
8
CUT
10
23
20
494.2
30
0
0
VERTEX
8
CUT
10
23
20
497.2
30
0
0
VERTEX
8
CUT
10
17.667
20
497.2
30
0
0
VERTEX
8
CUT
10
17.667
20
494.2
30
0
0
VERTEX
8
CUT
10
12.333
20
494.2
30
0
0
VERTEX
8
CUT
10
12.333
20
497.2
30
0
0
VERTEX
8
CUT
10
7
20
497.2
30
0
0
VERTEX
8
CUT
10
7
20
497.2
30
0
0
VERTEX
8
CUT
10
7
20
497.2
30
0
0
VERTEX
8
CUT
10
7
20
500.2
30
0
0
VERTEX
8
CUT
10
4
20
500.2
30
0
0
VERTEX
8
CUT
10
4
20
503.2
30
0
0
VERTEX
8
CUT
10
7
20
503.2
30
0
0
VERTEX
8
CUT
10
7
20
506.2
30
0
0
VERTEX
8
CUT
10
7
20
506.2
30
0
0
SEQEND
8
CUT
0
POLYLINE
8
RASTER
66
1
70
1
0
VERTEX
8
RASTER
10
8
20
502.8
30
0
0
VERTEX
8
RASTER
10
54
20
502.8
30
0
0
VERTEX
8
RASTER
10
54
20
502.4
30
0
0
VERTEX
8
RASTER
10
8
20
502.4
30
0
0
SEQEND
8
RASTER
0
POLYLINE
8
CUT
66
1
70
1
0
VERTEX
8
CUT
10
65
20
506.2
30
0
0
VERTEX
8
CUT
10
113
20
506.2
30
0
0
VERTEX
8
CUT
10
113
20
506.2
30
0
0
VERTEX
8
CUT
10
113
20
503.2
30
0
0
VERTEX
8
CUT
10
116
20
503.2
30
0
0
VERTEX
8
CUT
10
116
20
500.2
30
0
0
VERTEX
8
CUT
10
113
20
500.2
30
0
0
VERTEX
8
CUT
10
113
20
497.2
30
0
0
VERTEX
8
CUT
10
113
20
497.2
30
0
0
VERTEX
8
CUT
10
113
20
497.2
30
0
0
VERTEX
8
CUT
10
107.667
20
497.2
30
0
0
VERTEX
8
CUT
10
107.667
20
494.2
30
0
0
VERTEX
8
CUT
10
102.333
20
494.2
30
0
0
VERTEX
8
CUT
10
102.333
20
497.2
30
0
0
VERTEX
8
CUT
10
97
20
497.2
30
0
0
VERTEX
8
CUT
10
97
20
494.2
30
0
0
VERTEX
8
CUT
10
91.667
20
494.2
30
0
0
VERTEX
8
CUT
10
91.667
20
497.2
30
0
0
VERTEX
8
CUT
10
86.333
20
497.2
30
0
0
VERTEX
8
CUT
10
86.333
20
494.2
30
0
0
VERTEX
8
CUT
10
81
20
494.2
30
0
0
VERTEX
8
CUT
10
81
20
497.2
30
0
0
VERTEX
8
CUT
10
75.667
20
497.2
30
0
0
VERTEX
8
CUT
10
75.667
20
494.2
30
0
0
VERTEX
8
CUT
10
70.333
20
494.2
30
0
0
VERTEX
8
CUT
10
70.333
20
497.2
30
0
0
VERTEX
8
CUT
10
65
20
497.2
30
0
0
VERTEX
8
CUT
10
65
20
497.2
30
0
0
VERTEX
8
CUT
10
65
20
497.2
30
0
0
VERTEX
8
CUT
10
65
20
500.2
30
0
0
VERTEX
8
CUT
10
62
20
500.2
30
0
0
VERTEX
8
CUT
10
62
20
503.2
30
0
0
VERTEX
8
CUT
10
65
20
503.2
30
0
0
VERTEX
8
CUT
10
65
20
506.2
30
0
0
VERTEX
8
CUT
10
65
20
506.2
30
0
0
SEQEND
8
CUT
0
POLYLINE
8
RASTER
66
1
70
1
0
VERTEX
8
RASTER
10
66
20
502.8
30
0
0
VERTEX
8
RASTER
10
112
20
502.8
30
0
0
VERTEX
8
RASTER
10
112
20
502.4
30
0
0
VERTEX
8
RASTER
10
66
20
502.4
30
0
0
SEQEND
8
RASTER
0
POLYLINE
8
CUT
66
1
70
1
0
VERTEX
8
CUT
10
120
20
506.2
30
0
0
VERTEX
8
CUT
10
123
20
506.2
30
0
0
VERTEX
8
CUT
10
123
20
506.2
30
0
0
VERTEX
8
CUT
10
128.692
20
506.2
30
0
0
VERTEX
8
CUT
10
128.692
20
503.2
30
0
0
VERTEX
8
CUT
10
134.385
20
503.2
30
0
0
VERTEX
8
CUT
10
134.385
20
506.2
30
0
0
VERTEX
8
CUT
10
140.077
20
506.2
30
0
0
VERTEX
8
CUT
10
140.077
20
503.2
30
0
0
VERTEX
8
CUT
10
145.769
20
503.2
30
0
0
VERTEX
8
CUT
10
145.769
20
506.2
30
0
0
VERTEX
8
CUT
10
151.462
20
506.2
30
0
0
VERTEX
8
CUT
10
151.462
20
503.2
30
0
0
VERTEX
8
CUT
10
157.154
20
503.2
30
0
0
VERTEX
8
CUT
10
157.154
20
506.2
30
0
0
VERTEX
8
CUT
10
162.846
20
506.2
30
0
0
VERTEX
8
CUT
10
162.846
20
503.2
30
0
0
VERTEX
8
CUT
10
168.538
20
503.2
30
0
0
VERTEX
8
CUT
10
168.538
20
506.2
30
0
0
VERTEX
8
CUT
10
174.231
20
506.2
30
0
0
VERTEX
8
CUT
10
174.231
20
503.2
30
0
0
VERTEX
8
CUT
10
179.923
20
503.2
30
0
0
VERTEX
8
CUT
10
179.923
20
506.2
30
0
0
VERTEX
8
CUT
10
185.615
20
506.2
30
0
0
VERTEX
8
CUT
10
185.615
20
503.2
30
0
0
VERTEX
8
CUT
10
191.308
20
503.2
30
0
0
VERTEX
8
CUT
10
191.308
20
506.2
30
0
0
VERTEX
8
CUT
10
197
20
506.2
30
0
0
VERTEX
8
CUT
10
197
20
506.2
30
0
0
VERTEX
8
CUT
10
197
20
506.2
30
0
0
VERTEX
8
CUT
10
200
20
506.2
30
0
0
VERTEX
8
CUT
10
200
20
503.2
30
0
0
VERTEX
8
CUT
10
200
20
503.2
30
0
0
VERTEX
8
CUT
10
200
20
497.867
30
0
0
VERTEX
8
CUT
10
197
20
497.867
30
0
0
VERTEX
8
CUT
10
197
20
492.533
30
0
0
VERTEX
8
CUT
10
200
20
492.533
30
0
0
VERTEX
8
CUT
10
200
20
487.2
30
0
0
VERTEX
8
CUT
10
197
20
487.2
30
0
0
VERTEX
8
CUT
10
197
20
481.867
30
0
0
VERTEX
8
CUT
10
200
20
481.867
30
0
0
VERTEX
8
CUT
10
200
20
476.533
30
0
0
VERTEX
8
CUT
10
197
20
476.533
30
0
0
VERTEX
8
CUT
10
197
20
471.2
30
0
0
VERTEX
8
CUT
10
200
20
471.2
30
0
0
VERTEX
8
CUT
10
200
20
465.867
30
0
0
VERTEX
8
CUT
10
197
20
465.867
30
0
0
VERTEX
8
CUT
10
197
20
460.533
30
0
0
VERTEX
8
CUT
10
200
20
460.533
30
0
0
VERTEX
8
CUT
10
200
20
455.2
30
0
0
VERTEX
8
CUT
10
200
20
455.2
30
0
0
VERTEX
8
CUT
10
200
20
455.2
30
0
0
VERTEX
8
CUT
10
200
20
452.2
30
0
0
VERTEX
8
CUT
10
197
20
452.2
30
0
0
VERTEX
8
CUT
10
197
20
452.2
30
0
0
VERTEX
8
CUT
10
191.308
20
452.2
30
0
0
VERTEX
8
CUT
10
191.308
20
455.2
30
0
0
VERTEX
8
CUT
10
185.615
20
455.2
30
0
0
VERTEX
8
CUT
10
185.615
20
452.2
30
0
0
VERTEX
8
CUT
10
179.923
20
452.2
30
0
0
VERTEX
8
CUT
10
179.923
20
455.2
30
0
0
VERTEX
8
CUT
10
174.231
20
455.2
30
0
0
VERTEX
8
CUT
10
174.231
20
452.2
30
0
0
VERTEX
8
CUT
10
168.538
20
452.2
30
0
0
VERTEX
8
CUT
10
168.538
20
455.2
30
0
0
VERTEX
8
CUT
10
162.846
20
455.2
30
0
0
VERTEX
8
CUT
10
162.846
20
452.2
30
0
0
VERTEX
8
CUT
10
157.154
20
452.2
30
0
0
VERTEX
8
CUT
10
157.154
20
455.2
30
0
0
VERTEX
8
CUT
10
151.462
20
455.2
30
0
0
VERTEX
8
CUT
10
151.462
20
452.2
30
0
0
VERTEX
8
CUT
10
145.769
20
452.2
30
0
0
VERTEX
8
CUT
10
145.769
20
455.2
30
0
0
VERTEX
8
CUT
10
140.077
20
455.2
30
0
0
VERTEX
8
CUT
10
140.077
20
452.2
30
0
0
VERTEX
8
CUT
10
134.385
20
452.2
30
0
0
VERTEX
8
CUT
10
134.385
20
455.2
30
0
0
VERTEX
8
CUT
10
128.692
20
455.2
30
0
0
VERTEX
8
CUT
10
128.692
20
452.2
30
0
0
VERTEX
8
CUT
10
123
20
452.2
30
0
0
VERTEX
8
CUT
10
123
20
452.2
30
0
0
VERTEX
8
CUT
10
123
20
452.2
30
0
0
VERTEX
8
CUT
10
120
20
452.2
30
0
0
VERTEX
8
CUT
10
120
20
455.2
30
0
0
VERTEX
8
CUT
10
120
20
455.2
30
0
0
VERTEX
8
CUT
10
120
20
460.533
30
0
0
VERTEX
8
CUT
10
123
20
460.533
30
0
0
VERTEX
8
CUT
10
123
20
465.867
30
0
0
VERTEX
8
CUT
10
120
20
465.867
30
0
0
VERTEX
8
CUT
10
120
20
471.2
30
0
0
VERTEX
8
CUT
10
123
20
471.2
30
0
0
VERTEX
8
CUT
10
123
20
476.533
30
0
0
VERTEX
8
CUT
10
120
20
476.533
30
0
0
VERTEX
8
CUT
10
120
20
481.867
30
0
0
VERTEX
8
CUT
10
123
20
481.867
30
0
0
VERTEX
8
CUT
10
123
20
487.2
30
0
0
VERTEX
8
CUT
10
120
20
487.2
30
0
0
VERTEX
8
CUT
10
120
20
492.533
30
0
0
VERTEX
8
CUT
10
123
20
492.533
30
0
0
VERTEX
8
CUT
10
123
20
497.867
30
0
0
VERTEX
8
CUT
10
120
20
497.867
30
0
0
VERTEX
8
CUT
10
120
20
503.2
30
0
0
VERTEX
8
CUT
10
120
20
503.2
30
0
0
VERTEX
8
CUT
10
120
20
503.2
30
0
0
SEQEND
8
CUT
0
POLYLINE
8
RASTER
66
1
70
1
0
VERTEX
8
RASTER
10
124
20
498.5
30
0
0
VERTEX
8
RASTER
10
196
20
498.5
30
0
0
VERTEX
8
RASTER
10
196
20
497.9
30
0
0
VERTEX
8
RASTER
10
124
20
497.9
30
0
0
SEQEND
8
RASTER
0
POLYLINE
8
RASTER
66
1
70
1
0
VERTEX
8
RASTER
10
124
20
493.5
30
0
0
VERTEX
8
RASTER
10
196
20
493.5
30
0
0
VERTEX
8
RASTER
10
196
20
492.9
30
0
0
VERTEX
8
RASTER
10
124
20
492.9
30
0
0
SEQEND
8
RASTER
0
POLYLINE
8
RASTER
66
1
70
1
0
VERTEX
8
RASTER
10
124
20
488.5
30
0
0
VERTEX
8
RASTER
10
196
20
488.5
30
0
0
VERTEX
8
RASTER
10
196
20
487.9
30
0
0
VERTEX
8
RASTER
10
124
20
487.9
30
0
0
SEQEND
8
RASTER
0
POLYLINE
8
RASTER
66
1
70
1
0
VERTEX
8
RASTER
10
124
20
483.5
30
0
0
VERTEX
8
RASTER
10
196
20
483.5
30
0
0
VERTEX
8
RASTER
10
196
20
482.9
30
0
0
VERTEX
8
RASTER
10
124
20
482.9
30
0
0
SEQEND
8
RASTER
0
POLYLINE
8
RASTER
66
1
70
1
0
VERTEX
8
RASTER
10
124
20
478.5
30
0
0
VERTEX
8
RASTER
10
196
20
478.5
30
0
0
VERTEX
8
RASTER
10
196
20
477.9
30
0
0
VERTEX
8
RASTER
10
124
20
477.9
30
0
0
SEQEND
8
RASTER
0
POLYLINE
8
RASTER
66
1
70
1
0
VERTEX
8
RASTER
10
124
20
473.5
30
0
0
VERTEX
8
RASTER
10
196
20
473.5
30
0
0
VERTEX
8
RASTER
10
196
20
472.9
30
0
0
VERTEX
8
RASTER
10
124
20
472.9
30
0
0
SEQEND
8
RASTER
0
POLYLINE
8
RASTER
66
1
70
1
0
VERTEX
8
RASTER
10
124
20
468.5
30
0
0
VERTEX
8
RASTER
10
196
20
468.5
30
0
0
VERTEX
8
RASTER
10
196
20
467.9
30
0
0
VERTEX
8
RASTER
10
124
20
467.9
30
0
0
SEQEND
8
RASTER
0
POLYLINE
8
RASTER
66
1
70
1
0
VERTEX
8
RASTER
10
124
20
463.5
30
0
0
VERTEX
8
RASTER
10
196
20
463.5
30
0
0
VERTEX
8
RASTER
10
196
20
462.9
30
0
0
VERTEX
8
RASTER
10
124
20
462.9
30
0
0
SEQEND
8
RASTER
0
POLYLINE
8
RASTER
66
1
70
1
0
VERTEX
8
RASTER
10
124
20
458.5
30
0
0
VERTEX
8
RASTER
10
196
20
458.5
30
0
0
VERTEX
8
RASTER
10
196
20
457.9
30
0
0
VERTEX
8
RASTER
10
124
20
457.9
30
0
0
SEQEND
8
RASTER
0
POLYLINE
8
RASTER
66
1
70
1
0
VERTEX
8
RASTER
10
138
20
506.2
30
0
0
VERTEX
8
RASTER
10
142
20
506.2
30
0
0
VERTEX
8
RASTER
10
142
20
452.2
30
0
0
VERTEX
8
RASTER
10
138
20
452.2
30
0
0
SEQEND
8
RASTER
0
POLYLINE
8
RASTER
66
1
70
1
0
VERTEX
8
RASTER
10
178
20
506.2
30
0
0
VERTEX
8
RASTER
10
182
20
506.2
30
0
0
VERTEX
8
RASTER
10
182
20
452.2
30
0
0
VERTEX
8
RASTER
10
178
20
452.2
30
0
0
SEQEND
8
RASTER
0
CIRCLE
8
RASTER
10
140
20
495.4
30
0
40
0.55
0
CIRCLE
8
RASTER
10
180
20
495.4
30
0
40
0.55
0
CIRCLE
8
RASTER
10
140
20
479.2
30
0
40
0.55
0
CIRCLE
8
RASTER
10
180
20
479.2
30
0
40
0.55
0
CIRCLE
8
RASTER
10
140
20
463
30
0
40
0.55
0
CIRCLE
8
RASTER
10
180
20
463
30
0
40
0.55
0
CIRCLE
8
RASTER
10
160
20
479.2
30
0
40
1.44
0
POLYLINE
8
CUT
66
1
70
1
0
VERTEX
8
CUT
10
204
20
505.8
30
0
0
VERTEX
8
CUT
10
204.006
20
505.894
30
0
0
VERTEX
8
CUT
10
204.025
20
505.975
30
0
0
VERTEX
8
CUT
10
204.056
20
506.044
30
0
0
VERTEX
8
CUT
10
204.1
20
506.1
30
0
0
VERTEX
8
CUT
10
204.156
20
506.144
30
0
0
VERTEX
8
CUT
10
204.225
20
506.175
30
0
0
VERTEX
8
CUT
10
204.306
20
506.194
30
0
0
VERTEX
8
CUT
10
204.4
20
506.2
30
0
0
VERTEX
8
CUT
10
251.6
20
506.2
30
0
0
VERTEX
8
CUT
10
251.694
20
506.194
30
0
0
VERTEX
8
CUT
10
251.775
20
506.175
30
0
0
VERTEX
8
CUT
10
251.844
20
506.144
30
0
0
VERTEX
8
CUT
10
251.9
20
506.1
30
0
0
VERTEX
8
CUT
10
251.944
20
506.044
30
0
0
VERTEX
8
CUT
10
251.975
20
505.975
30
0
0
VERTEX
8
CUT
10
251.994
20
505.894
30
0
0
VERTEX
8
CUT
10
252
20
505.8
30
0
0
VERTEX
8
CUT
10
252
20
501.6
30
0
0
VERTEX
8
CUT
10
251.994
20
501.506
30
0
0
VERTEX
8
CUT
10
251.975
20
501.425
30
0
0
VERTEX
8
CUT
10
251.944
20
501.356
30
0
0
VERTEX
8
CUT
10
251.9
20
501.3
30
0
0
VERTEX
8
CUT
10
251.844
20
501.256
30
0
0
VERTEX
8
CUT
10
251.775
20
501.225
30
0
0
VERTEX
8
CUT
10
251.694
20
501.206
30
0
0
VERTEX
8
CUT
10
251.6
20
501.2
30
0
0
VERTEX
8
CUT
10
204.4
20
501.2
30
0
0
VERTEX
8
CUT
10
204.306
20
501.206
30
0
0
VERTEX
8
CUT
10
204.225
20
501.225
30
0
0
VERTEX
8
CUT
10
204.156
20
501.256
30
0
0
VERTEX
8
CUT
10
204.1
20
501.3
30
0
0
VERTEX
8
CUT
10
204.056
20
501.356
30
0
0
VERTEX
8
CUT
10
204.025
20
501.425
30
0
0
VERTEX
8
CUT
10
204.006
20
501.506
30
0
0
VERTEX
8
CUT
10
204
20
501.6
30
0
0
SEQEND
8
CUT
0
POLYLINE
8
CUT
66
1
70
1
0
VERTEX
8
CUT
10
4
20
447.8
30
0
0
VERTEX
8
CUT
10
4.006
20
447.894
30
0
0
VERTEX
8
CUT
10
4.025
20
447.975
30
0
0
VERTEX
8
CUT
10
4.056
20
448.044
30
0
0
VERTEX
8
CUT
10
4.1
20
448.1
30
0
0
VERTEX
8
CUT
10
4.156
20
448.144
30
0
0
VERTEX
8
CUT
10
4.225
20
448.175
30
0
0
VERTEX
8
CUT
10
4.306
20
448.194
30
0
0
VERTEX
8
CUT
10
4.4
20
448.2
30
0
0
VERTEX
8
CUT
10
51.6
20
448.2
30
0
0
VERTEX
8
CUT
10
51.694
20
448.194
30
0
0
VERTEX
8
CUT
10
51.775
20
448.175
30
0
0
VERTEX
8
CUT
10
51.844
20
448.144
30
0
0
VERTEX
8
CUT
10
51.9
20
448.1
30
0
0
VERTEX
8
CUT
10
51.944
20
448.044
30
0
0
VERTEX
8
CUT
10
51.975
20
447.975
30
0
0
VERTEX
8
CUT
10
51.994
20
447.894
30
0
0
VERTEX
8
CUT
10
52
20
447.8
30
0
0
VERTEX
8
CUT
10
52
20
443.6
30
0
0
VERTEX
8
CUT
10
51.994
20
443.506
30
0
0
VERTEX
8
CUT
10
51.975
20
443.425
30
0
0
VERTEX
8
CUT
10
51.944
20
443.356
30
0
0
VERTEX
8
CUT
10
51.9
20
443.3
30
0
0
VERTEX
8
CUT
10
51.844
20
443.256
30
0
0
VERTEX
8
CUT
10
51.775
20
443.225
30
0
0
VERTEX
8
CUT
10
51.694
20
443.206
30
0
0
VERTEX
8
CUT
10
51.6
20
443.2
30
0
0
VERTEX
8
CUT
10
4.4
20
443.2
30
0
0
VERTEX
8
CUT
10
4.306
20
443.206
30
0
0
VERTEX
8
CUT
10
4.225
20
443.225
30
0
0
VERTEX
8
CUT
10
4.156
20
443.256
30
0
0
VERTEX
8
CUT
10
4.1
20
443.3
30
0
0
VERTEX
8
CUT
10
4.056
20
443.356
30
0
0
VERTEX
8
CUT
10
4.025
20
443.425
30
0
0
VERTEX
8
CUT
10
4.006
20
443.506
30
0
0
VERTEX
8
CUT
10
4
20
443.6
30
0
0
SEQEND
8
CUT
0
POLYLINE
8
CUT
66
1
70
1
0
VERTEX
8
CUT
10
59
20
448.2
30
0
0
VERTEX
8
CUT
10
133
20
448.2
30
0
0
VERTEX
8
CUT
10
136
20
448.2
30
0
0
VERTEX
8
CUT
10
136
20
442.533
30
0
0
VERTEX
8
CUT
10
133
20
442.533
30
0
0
VERTEX
8
CUT
10
133
20
436.867
30
0
0
VERTEX
8
CUT
10
136
20
436.867
30
0
0
VERTEX
8
CUT
10
136
20
431.2
30
0
0
VERTEX
8
CUT
10
133
20
431.2
30
0
0
VERTEX
8
CUT
10
133
20
431.2
30
0
0
VERTEX
8
CUT
10
127.308
20
431.2
30
0
0
VERTEX
8
CUT
10
127.308
20
428.2
30
0
0
VERTEX
8
CUT
10
121.615
20
428.2
30
0
0
VERTEX
8
CUT
10
121.615
20
431.2
30
0
0
VERTEX
8
CUT
10
115.923
20
431.2
30
0
0
VERTEX
8
CUT
10
115.923
20
428.2
30
0
0
VERTEX
8
CUT
10
110.231
20
428.2
30
0
0
VERTEX
8
CUT
10
110.231
20
431.2
30
0
0
VERTEX
8
CUT
10
104.538
20
431.2
30
0
0
VERTEX
8
CUT
10
104.538
20
428.2
30
0
0
VERTEX
8
CUT
10
98.846
20
428.2
30
0
0
VERTEX
8
CUT
10
98.846
20
431.2
30
0
0
VERTEX
8
CUT
10
93.154
20
431.2
30
0
0
VERTEX
8
CUT
10
93.154
20
428.2
30
0
0
VERTEX
8
CUT
10
87.462
20
428.2
30
0
0
VERTEX
8
CUT
10
87.462
20
431.2
30
0
0
VERTEX
8
CUT
10
81.769
20
431.2
30
0
0
VERTEX
8
CUT
10
81.769
20
428.2
30
0
0
VERTEX
8
CUT
10
76.077
20
428.2
30
0
0
VERTEX
8
CUT
10
76.077
20
431.2
30
0
0
VERTEX
8
CUT
10
70.385
20
431.2
30
0
0
VERTEX
8
CUT
10
70.385
20
428.2
30
0
0
VERTEX
8
CUT
10
64.692
20
428.2
30
0
0
VERTEX
8
CUT
10
64.692
20
431.2
30
0
0
VERTEX
8
CUT
10
59
20
431.2
30
0
0
VERTEX
8
CUT
10
59
20
431.2
30
0
0
VERTEX
8
CUT
10
56
20
431.2
30
0
0
VERTEX
8
CUT
10
56
20
436.867
30
0
0
VERTEX
8
CUT
10
59
20
436.867
30
0
0
VERTEX
8
CUT
10
59
20
442.533
30
0
0
VERTEX
8
CUT
10
56
20
442.533
30
0
0
VERTEX
8
CUT
10
56
20
448.2
30
0
0
VERTEX
8
CUT
10
59
20
448.2
30
0
0
SEQEND
8
CUT
0
POLYLINE
8
RASTER
66
1
70
1
0
VERTEX
8
RASTER
10
60
20
444.3
30
0
0
VERTEX
8
RASTER
10
132
20
444.3
30
0
0
VERTEX
8
RASTER
10
132
20
443.7
30
0
0
VERTEX
8
RASTER
10
60
20
443.7
30
0
0
SEQEND
8
RASTER
0
POLYLINE
8
RASTER
66
1
70
1
0
VERTEX
8
RASTER
10
60
20
440.1
30
0
0
VERTEX
8
RASTER
10
132
20
440.1
30
0
0
VERTEX
8
RASTER
10
132
20
439.5
30
0
0
VERTEX
8
RASTER
10
60
20
439.5
30
0
0
SEQEND
8
RASTER
0
POLYLINE
8
RASTER
66
1
70
1
0
VERTEX
8
RASTER
10
60
20
435.9
30
0
0
VERTEX
8
RASTER
10
132
20
435.9
30
0
0
VERTEX
8
RASTER
10
132
20
435.3
30
0
0
VERTEX
8
RASTER
10
60
20
435.3
30
0
0
SEQEND
8
RASTER
0
POLYLINE
8
RASTER
66
1
70
1
0
VERTEX
8
RASTER
10
75.5
20
448.2
30
0
0
VERTEX
8
RASTER
10
79.5
20
448.2
30
0
0
VERTEX
8
RASTER
10
79.5
20
431.2
30
0
0
VERTEX
8
RASTER
10
75.5
20
431.2
30
0
0
SEQEND
8
RASTER
0
POLYLINE
8
RASTER
66
1
70
1
0
VERTEX
8
RASTER
10
112.5
20
448.2
30
0
0
VERTEX
8
RASTER
10
116.5
20
448.2
30
0
0
VERTEX
8
RASTER
10
116.5
20
431.2
30
0
0
VERTEX
8
RASTER
10
112.5
20
431.2
30
0
0
SEQEND
8
RASTER
0
CIRCLE
8
RASTER
10
77.5
20
444.8
30
0
40
0.55
0
CIRCLE
8
RASTER
10
114.5
20
444.8
30
0
40
0.55
0
CIRCLE
8
RASTER
10
77.5
20
439.7
30
0
40
0.55
0
CIRCLE
8
RASTER
10
114.5
20
439.7
30
0
40
0.55
0
CIRCLE
8
RASTER
10
77.5
20
434.6
30
0
40
0.55
0
CIRCLE
8
RASTER
10
114.5
20
434.6
30
0
40
0.55
0
POLYLINE
8
RASTER
66
1
70
1
0
VERTEX
8
RASTER
10
92
20
442.5
30
0
0
VERTEX
8
RASTER
10
92.019
20
442.781
30
0
0
VERTEX
8
RASTER
10
92.075
20
443.025
30
0
0
VERTEX
8
RASTER
10
92.169
20
443.231
30
0
0
VERTEX
8
RASTER
10
92.3
20
443.4
30
0
0
VERTEX
8
RASTER
10
92.469
20
443.531
30
0
0
VERTEX
8
RASTER
10
92.675
20
443.625
30
0
0
VERTEX
8
RASTER
10
92.919
20
443.681
30
0
0
VERTEX
8
RASTER
10
93.2
20
443.7
30
0
0
VERTEX
8
RASTER
10
98.8
20
443.7
30
0
0
VERTEX
8
RASTER
10
99.081
20
443.681
30
0
0
VERTEX
8
RASTER
10
99.325
20
443.625
30
0
0
VERTEX
8
RASTER
10
99.531
20
443.531
30
0
0
VERTEX
8
RASTER
10
99.7
20
443.4
30
0
0
VERTEX
8
RASTER
10
99.831
20
443.231
30
0
0
VERTEX
8
RASTER
10
99.925
20
443.025
30
0
0
VERTEX
8
RASTER
10
99.981
20
442.781
30
0
0
VERTEX
8
RASTER
10
100
20
442.5
30
0
0
VERTEX
8
RASTER
10
100
20
436.9
30
0
0
VERTEX
8
RASTER
10
99.981
20
436.619
30
0
0
VERTEX
8
RASTER
10
99.925
20
436.375
30
0
0
VERTEX
8
RASTER
10
99.831
20
436.169
30
0
0
VERTEX
8
RASTER
10
99.7
20
436
30
0
0
VERTEX
8
RASTER
10
99.531
20
435.869
30
0
0
VERTEX
8
RASTER
10
99.325
20
435.775
30
0
0
VERTEX
8
RASTER
10
99.081
20
435.719
30
0
0
VERTEX
8
RASTER
10
98.8
20
435.7
30
0
0
VERTEX
8
RASTER
10
93.2
20
435.7
30
0
0
VERTEX
8
RASTER
10
92.919
20
435.719
30
0
0
VERTEX
8
RASTER
10
92.675
20
435.775
30
0
0
VERTEX
8
RASTER
10
92.469
20
435.869
30
0
0
VERTEX
8
RASTER
10
92.3
20
436
30
0
0
VERTEX
8
RASTER
10
92.169
20
436.169
30
0
0
VERTEX
8
RASTER
10
92.075
20
436.375
30
0
0
VERTEX
8
RASTER
10
92.019
20
436.619
30
0
0
VERTEX
8
RASTER
10
92
20
436.9
30
0
0
SEQEND
8
RASTER
0
CIRCLE
8
RASTER
10
96
20
440.7
30
0
40
1.1
0
POLYLINE
8
RASTER
66
1
70
1
0
VERTEX
8
RASTER
10
95.3
20
440.1
30
0
0
VERTEX
8
RASTER
10
95
20
437.1
30
0
0
VERTEX
8
RASTER
10
97
20
437.1
30
0
0
VERTEX
8
RASTER
10
96.7
20
440.1
30
0
0
VERTEX
8
RASTER
10
95.3
20
440.1
30
0
0
SEQEND
8
RASTER
0
POLYLINE
8
CUT
66
1
70
1
0
VERTEX
8
CUT
10
143
20
441.8
30
0
0
VERTEX
8
CUT
10
143
20
441.8
30
0
0
VERTEX
8
CUT
10
143
20
445.1
30
0
0
VERTEX
8
CUT
10
143
20
445.1
30
0
0
VERTEX
8
CUT
10
143.106
20
445.902
30
0
0
VERTEX
8
CUT
10
143.415
20
446.65
30
0
0
VERTEX
8
CUT
10
143.908
20
447.292
30
0
0
VERTEX
8
CUT
10
144.55
20
447.785
30
0
0
VERTEX
8
CUT
10
145.298
20
448.094
30
0
0
VERTEX
8
CUT
10
146.1
20
448.2
30
0
0
VERTEX
8
CUT
10
154.7
20
448.2
30
0
0
VERTEX
8
CUT
10
155.502
20
448.094
30
0
0
VERTEX
8
CUT
10
156.25
20
447.785
30
0
0
VERTEX
8
CUT
10
156.892
20
447.292
30
0
0
VERTEX
8
CUT
10
157.385
20
446.65
30
0
0
VERTEX
8
CUT
10
157.694
20
445.902
30
0
0
VERTEX
8
CUT
10
157.8
20
445.1
30
0
0
VERTEX
8
CUT
10
157.8
20
445.1
30
0
0
VERTEX
8
CUT
10
157.8
20
441.8
30
0
0
VERTEX
8
CUT
10
157.8
20
441.8
30
0
0
VERTEX
8
CUT
10
172.6
20
441.8
30
0
0
VERTEX
8
CUT
10
172.6
20
441.8
30
0
0
VERTEX
8
CUT
10
172.6
20
445.1
30
0
0
VERTEX
8
CUT
10
172.6
20
445.1
30
0
0
VERTEX
8
CUT
10
172.706
20
445.902
30
0
0
VERTEX
8
CUT
10
173.015
20
446.65
30
0
0
VERTEX
8
CUT
10
173.508
20
447.292
30
0
0
VERTEX
8
CUT
10
174.15
20
447.785
30
0
0
VERTEX
8
CUT
10
174.898
20
448.094
30
0
0
VERTEX
8
CUT
10
175.7
20
448.2
30
0
0
VERTEX
8
CUT
10
184.3
20
448.2
30
0
0
VERTEX
8
CUT
10
185.102
20
448.094
30
0
0
VERTEX
8
CUT
10
185.85
20
447.785
30
0
0
VERTEX
8
CUT
10
186.492
20
447.292
30
0
0
VERTEX
8
CUT
10
186.985
20
446.65
30
0
0
VERTEX
8
CUT
10
187.294
20
445.902
30
0
0
VERTEX
8
CUT
10
187.4
20
445.1
30
0
0
VERTEX
8
CUT
10
187.4
20
445.1
30
0
0
VERTEX
8
CUT
10
187.4
20
441.8
30
0
0
VERTEX
8
CUT
10
187.4
20
441.8
30
0
0
VERTEX
8
CUT
10
202.2
20
441.8
30
0
0
VERTEX
8
CUT
10
202.2
20
441.8
30
0
0
VERTEX
8
CUT
10
202.2
20
445.1
30
0
0
VERTEX
8
CUT
10
202.2
20
445.1
30
0
0
VERTEX
8
CUT
10
202.306
20
445.902
30
0
0
VERTEX
8
CUT
10
202.615
20
446.65
30
0
0
VERTEX
8
CUT
10
203.108
20
447.292
30
0
0
VERTEX
8
CUT
10
203.75
20
447.785
30
0
0
VERTEX
8
CUT
10
204.498
20
448.094
30
0
0
VERTEX
8
CUT
10
205.3
20
448.2
30
0
0
VERTEX
8
CUT
10
213.9
20
448.2
30
0
0
VERTEX
8
CUT
10
214.702
20
448.094
30
0
0
VERTEX
8
CUT
10
215.45
20
447.785
30
0
0
VERTEX
8
CUT
10
216.092
20
447.292
30
0
0
VERTEX
8
CUT
10
216.585
20
446.65
30
0
0
VERTEX
8
CUT
10
216.894
20
445.902
30
0
0
VERTEX
8
CUT
10
217
20
445.1
30
0
0
VERTEX
8
CUT
10
217
20
445.1
30
0
0
VERTEX
8
CUT
10
217
20
441.8
30
0
0
VERTEX
8
CUT
10
217
20
441.8
30
0
0
VERTEX
8
CUT
10
220
20
441.8
30
0
0
VERTEX
8
CUT
10
220
20
436.133
30
0
0
VERTEX
8
CUT
10
217
20
436.133
30
0
0
VERTEX
8
CUT
10
217
20
430.467
30
0
0
VERTEX
8
CUT
10
220
20
430.467
30
0
0
VERTEX
8
CUT
10
220
20
424.8
30
0
0
VERTEX
8
CUT
10
217
20
424.8
30
0
0
VERTEX
8
CUT
10
217
20
424.8
30
0
0
VERTEX
8
CUT
10
211.308
20
424.8
30
0
0
VERTEX
8
CUT
10
211.308
20
421.8
30
0
0
VERTEX
8
CUT
10
205.615
20
421.8
30
0
0
VERTEX
8
CUT
10
205.615
20
424.8
30
0
0
VERTEX
8
CUT
10
199.923
20
424.8
30
0
0
VERTEX
8
CUT
10
199.923
20
421.8
30
0
0
VERTEX
8
CUT
10
194.231
20
421.8
30
0
0
VERTEX
8
CUT
10
194.231
20
424.8
30
0
0
VERTEX
8
CUT
10
188.538
20
424.8
30
0
0
VERTEX
8
CUT
10
188.538
20
421.8
30
0
0
VERTEX
8
CUT
10
182.846
20
421.8
30
0
0
VERTEX
8
CUT
10
182.846
20
424.8
30
0
0
VERTEX
8
CUT
10
177.154
20
424.8
30
0
0
VERTEX
8
CUT
10
177.154
20
421.8
30
0
0
VERTEX
8
CUT
10
171.462
20
421.8
30
0
0
VERTEX
8
CUT
10
171.462
20
424.8
30
0
0
VERTEX
8
CUT
10
165.769
20
424.8
30
0
0
VERTEX
8
CUT
10
165.769
20
421.8
30
0
0
VERTEX
8
CUT
10
160.077
20
421.8
30
0
0
VERTEX
8
CUT
10
160.077
20
424.8
30
0
0
VERTEX
8
CUT
10
154.385
20
424.8
30
0
0
VERTEX
8
CUT
10
154.385
20
421.8
30
0
0
VERTEX
8
CUT
10
148.692
20
421.8
30
0
0
VERTEX
8
CUT
10
148.692
20
424.8
30
0
0
VERTEX
8
CUT
10
143
20
424.8
30
0
0
VERTEX
8
CUT
10
143
20
424.8
30
0
0
VERTEX
8
CUT
10
140
20
424.8
30
0
0
VERTEX
8
CUT
10
140
20
430.467
30
0
0
VERTEX
8
CUT
10
143
20
430.467
30
0
0
VERTEX
8
CUT
10
143
20
436.133
30
0
0
VERTEX
8
CUT
10
140
20
436.133
30
0
0
VERTEX
8
CUT
10
140
20
441.8
30
0
0
VERTEX
8
CUT
10
143
20
441.8
30
0
0
SEQEND
8
CUT
0
CIRCLE
8
CUT
10
150.4
20
445.1
30
0
40
1.65
0
CIRCLE
8
CUT
10
180
20
445.1
30
0
40
1.65
0
CIRCLE
8
CUT
10
209.6
20
445.1
30
0
40
1.65
0
POLYLINE
8
RASTER
66
1
70
1
0
VERTEX
8
RASTER
10
144
20
437.9
30
0
0
VERTEX
8
RASTER
10
216
20
437.9
30
0
0
VERTEX
8
RASTER
10
216
20
437.3
30
0
0
VERTEX
8
RASTER
10
144
20
437.3
30
0
0
SEQEND
8
RASTER
0
POLYLINE
8
RASTER
66
1
70
1
0
VERTEX
8
RASTER
10
144
20
433.7
30
0
0
VERTEX
8
RASTER
10
216
20
433.7
30
0
0
VERTEX
8
RASTER
10
216
20
433.1
30
0
0
VERTEX
8
RASTER
10
144
20
433.1
30
0
0
SEQEND
8
RASTER
0
POLYLINE
8
RASTER
66
1
70
1
0
VERTEX
8
RASTER
10
144
20
429.5
30
0
0
VERTEX
8
RASTER
10
216
20
429.5
30
0
0
VERTEX
8
RASTER
10
216
20
428.9
30
0
0
VERTEX
8
RASTER
10
144
20
428.9
30
0
0
SEQEND
8
RASTER
0
POLYLINE
8
RASTER
66
1
70
1
0
VERTEX
8
RASTER
10
159.5
20
441.8
30
0
0
VERTEX
8
RASTER
10
163.5
20
441.8
30
0
0
VERTEX
8
RASTER
10
163.5
20
424.8
30
0
0
VERTEX
8
RASTER
10
159.5
20
424.8
30
0
0
SEQEND
8
RASTER
0
POLYLINE
8
RASTER
66
1
70
1
0
VERTEX
8
RASTER
10
196.5
20
441.8
30
0
0
VERTEX
8
RASTER
10
200.5
20
441.8
30
0
0
VERTEX
8
RASTER
10
200.5
20
424.8
30
0
0
VERTEX
8
RASTER
10
196.5
20
424.8
30
0
0
SEQEND
8
RASTER
0
CIRCLE
8
RASTER
10
161.5
20
438.4
30
0
40
0.55
0
CIRCLE
8
RASTER
10
198.5
20
438.4
30
0
40
0.55
0
CIRCLE
8
RASTER
10
161.5
20
433.3
30
0
40
0.55
0
CIRCLE
8
RASTER
10
198.5
20
433.3
30
0
40
0.55
0
CIRCLE
8
RASTER
10
161.5
20
428.2
30
0
40
0.55
0
CIRCLE
8
RASTER
10
198.5
20
428.2
30
0
40
0.55
0
POLYLINE
8
CUT
66
1
70
1
0
VERTEX
8
CUT
10
227
20
448.2
30
0
0
VERTEX
8
CUT
10
275
20
448.2
30
0
0
VERTEX
8
CUT
10
275
20
448.2
30
0
0
VERTEX
8
CUT
10
275
20
442.533
30
0
0
VERTEX
8
CUT
10
278
20
442.533
30
0
0
VERTEX
8
CUT
10
278
20
436.867
30
0
0
VERTEX
8
CUT
10
275
20
436.867
30
0
0
VERTEX
8
CUT
10
275
20
431.2
30
0
0
VERTEX
8
CUT
10
275
20
431.2
30
0
0
VERTEX
8
CUT
10
275
20
431.2
30
0
0
VERTEX
8
CUT
10
269.667
20
431.2
30
0
0
VERTEX
8
CUT
10
269.667
20
428.2
30
0
0
VERTEX
8
CUT
10
264.333
20
428.2
30
0
0
VERTEX
8
CUT
10
264.333
20
431.2
30
0
0
VERTEX
8
CUT
10
259
20
431.2
30
0
0
VERTEX
8
CUT
10
259
20
428.2
30
0
0
VERTEX
8
CUT
10
253.667
20
428.2
30
0
0
VERTEX
8
CUT
10
253.667
20
431.2
30
0
0
VERTEX
8
CUT
10
248.333
20
431.2
30
0
0
VERTEX
8
CUT
10
248.333
20
428.2
30
0
0
VERTEX
8
CUT
10
243
20
428.2
30
0
0
VERTEX
8
CUT
10
243
20
431.2
30
0
0
VERTEX
8
CUT
10
237.667
20
431.2
30
0
0
VERTEX
8
CUT
10
237.667
20
428.2
30
0
0
VERTEX
8
CUT
10
232.333
20
428.2
30
0
0
VERTEX
8
CUT
10
232.333
20
431.2
30
0
0
VERTEX
8
CUT
10
227
20
431.2
30
0
0
VERTEX
8
CUT
10
227
20
431.2
30
0
0
VERTEX
8
CUT
10
227
20
431.2
30
0
0
VERTEX
8
CUT
10
227
20
436.867
30
0
0
VERTEX
8
CUT
10
224
20
436.867
30
0
0
VERTEX
8
CUT
10
224
20
442.533
30
0
0
VERTEX
8
CUT
10
227
20
442.533
30
0
0
VERTEX
8
CUT
10
227
20
448.2
30
0
0
VERTEX
8
CUT
10
227
20
448.2
30
0
0
SEQEND
8
CUT
0
POLYLINE
8
RASTER
66
1
70
1
0
VERTEX
8
RASTER
10
228
20
444.3
30
0
0
VERTEX
8
RASTER
10
274
20
444.3
30
0
0
VERTEX
8
RASTER
10
274
20
443.7
30
0
0
VERTEX
8
RASTER
10
228
20
443.7
30
0
0
SEQEND
8
RASTER
0
POLYLINE
8
RASTER
66
1
70
1
0
VERTEX
8
RASTER
10
228
20
440.1
30
0
0
VERTEX
8
RASTER
10
274
20
440.1
30
0
0
VERTEX
8
RASTER
10
274
20
439.5
30
0
0
VERTEX
8
RASTER
10
228
20
439.5
30
0
0
SEQEND
8
RASTER
0
POLYLINE
8
RASTER
66
1
70
1
0
VERTEX
8
RASTER
10
228
20
435.9
30
0
0
VERTEX
8
RASTER
10
274
20
435.9
30
0
0
VERTEX
8
RASTER
10
274
20
435.3
30
0
0
VERTEX
8
RASTER
10
228
20
435.3
30
0
0
SEQEND
8
RASTER
0
POLYLINE
8
CUT
66
1
70
1
0
VERTEX
8
CUT
10
7
20
417.8
30
0
0
VERTEX
8
CUT
10
55
20
417.8
30
0
0
VERTEX
8
CUT
10
55
20
417.8
30
0
0
VERTEX
8
CUT
10
55
20
412.133
30
0
0
VERTEX
8
CUT
10
58
20
412.133
30
0
0
VERTEX
8
CUT
10
58
20
406.467
30
0
0
VERTEX
8
CUT
10
55
20
406.467
30
0
0
VERTEX
8
CUT
10
55
20
400.8
30
0
0
VERTEX
8
CUT
10
55
20
400.8
30
0
0
VERTEX
8
CUT
10
55
20
400.8
30
0
0
VERTEX
8
CUT
10
49.667
20
400.8
30
0
0
VERTEX
8
CUT
10
49.667
20
397.8
30
0
0
VERTEX
8
CUT
10
44.333
20
397.8
30
0
0
VERTEX
8
CUT
10
44.333
20
400.8
30
0
0
VERTEX
8
CUT
10
39
20
400.8
30
0
0
VERTEX
8
CUT
10
39
20
397.8
30
0
0
VERTEX
8
CUT
10
33.667
20
397.8
30
0
0
VERTEX
8
CUT
10
33.667
20
400.8
30
0
0
VERTEX
8
CUT
10
28.333
20
400.8
30
0
0
VERTEX
8
CUT
10
28.333
20
397.8
30
0
0
VERTEX
8
CUT
10
23
20
397.8
30
0
0
VERTEX
8
CUT
10
23
20
400.8
30
0
0
VERTEX
8
CUT
10
17.667
20
400.8
30
0
0
VERTEX
8
CUT
10
17.667
20
397.8
30
0
0
VERTEX
8
CUT
10
12.333
20
397.8
30
0
0
VERTEX
8
CUT
10
12.333
20
400.8
30
0
0
VERTEX
8
CUT
10
7
20
400.8
30
0
0
VERTEX
8
CUT
10
7
20
400.8
30
0
0
VERTEX
8
CUT
10
7
20
400.8
30
0
0
VERTEX
8
CUT
10
7
20
406.467
30
0
0
VERTEX
8
CUT
10
4
20
406.467
30
0
0
VERTEX
8
CUT
10
4
20
412.133
30
0
0
VERTEX
8
CUT
10
7
20
412.133
30
0
0
VERTEX
8
CUT
10
7
20
417.8
30
0
0
VERTEX
8
CUT
10
7
20
417.8
30
0
0
SEQEND
8
CUT
0
POLYLINE
8
RASTER
66
1
70
1
0
VERTEX
8
RASTER
10
8
20
413.9
30
0
0
VERTEX
8
RASTER
10
54
20
413.9
30
0
0
VERTEX
8
RASTER
10
54
20
413.3
30
0
0
VERTEX
8
RASTER
10
8
20
413.3
30
0
0
SEQEND
8
RASTER
0
POLYLINE
8
RASTER
66
1
70
1
0
VERTEX
8
RASTER
10
8
20
409.7
30
0
0
VERTEX
8
RASTER
10
54
20
409.7
30
0
0
VERTEX
8
RASTER
10
54
20
409.1
30
0
0
VERTEX
8
RASTER
10
8
20
409.1
30
0
0
SEQEND
8
RASTER
0
POLYLINE
8
RASTER
66
1
70
1
0
VERTEX
8
RASTER
10
8
20
405.5
30
0
0
VERTEX
8
RASTER
10
54
20
405.5
30
0
0
VERTEX
8
RASTER
10
54
20
404.9
30
0
0
VERTEX
8
RASTER
10
8
20
404.9
30
0
0
SEQEND
8
RASTER
0
POLYLINE
8
CUT
66
1
70
1
0
VERTEX
8
CUT
10
62
20
417.8
30
0
0
VERTEX
8
CUT
10
65
20
417.8
30
0
0
VERTEX
8
CUT
10
65
20
417.8
30
0
0
VERTEX
8
CUT
10
70.692
20
417.8
30
0
0
VERTEX
8
CUT
10
70.692
20
414.8
30
0
0
VERTEX
8
CUT
10
76.385
20
414.8
30
0
0
VERTEX
8
CUT
10
76.385
20
417.8
30
0
0
VERTEX
8
CUT
10
82.077
20
417.8
30
0
0
VERTEX
8
CUT
10
82.077
20
414.8
30
0
0
VERTEX
8
CUT
10
87.769
20
414.8
30
0
0
VERTEX
8
CUT
10
87.769
20
417.8
30
0
0
VERTEX
8
CUT
10
93.462
20
417.8
30
0
0
VERTEX
8
CUT
10
93.462
20
414.8
30
0
0
VERTEX
8
CUT
10
99.154
20
414.8
30
0
0
VERTEX
8
CUT
10
99.154
20
417.8
30
0
0
VERTEX
8
CUT
10
104.846
20
417.8
30
0
0
VERTEX
8
CUT
10
104.846
20
414.8
30
0
0
VERTEX
8
CUT
10
110.538
20
414.8
30
0
0
VERTEX
8
CUT
10
110.538
20
417.8
30
0
0
VERTEX
8
CUT
10
116.231
20
417.8
30
0
0
VERTEX
8
CUT
10
116.231
20
414.8
30
0
0
VERTEX
8
CUT
10
121.923
20
414.8
30
0
0
VERTEX
8
CUT
10
121.923
20
417.8
30
0
0
VERTEX
8
CUT
10
127.615
20
417.8
30
0
0
VERTEX
8
CUT
10
127.615
20
414.8
30
0
0
VERTEX
8
CUT
10
133.308
20
414.8
30
0
0
VERTEX
8
CUT
10
133.308
20
417.8
30
0
0
VERTEX
8
CUT
10
139
20
417.8
30
0
0
VERTEX
8
CUT
10
139
20
417.8
30
0
0
VERTEX
8
CUT
10
139
20
417.8
30
0
0
VERTEX
8
CUT
10
142
20
417.8
30
0
0
VERTEX
8
CUT
10
142
20
414.8
30
0
0
VERTEX
8
CUT
10
142
20
414.8
30
0
0
VERTEX
8
CUT
10
142
20
409.467
30
0
0
VERTEX
8
CUT
10
139
20
409.467
30
0
0
VERTEX
8
CUT
10
139
20
404.133
30
0
0
VERTEX
8
CUT
10
142
20
404.133
30
0
0
VERTEX
8
CUT
10
142
20
398.8
30
0
0
VERTEX
8
CUT
10
139
20
398.8
30
0
0
VERTEX
8
CUT
10
139
20
393.467
30
0
0
VERTEX
8
CUT
10
142
20
393.467
30
0
0
VERTEX
8
CUT
10
142
20
388.133
30
0
0
VERTEX
8
CUT
10
139
20
388.133
30
0
0
VERTEX
8
CUT
10
139
20
382.8
30
0
0
VERTEX
8
CUT
10
142
20
382.8
30
0
0
VERTEX
8
CUT
10
142
20
377.467
30
0
0
VERTEX
8
CUT
10
139
20
377.467
30
0
0
VERTEX
8
CUT
10
139
20
372.133
30
0
0
VERTEX
8
CUT
10
142
20
372.133
30
0
0
VERTEX
8
CUT
10
142
20
366.8
30
0
0
VERTEX
8
CUT
10
142
20
366.8
30
0
0
VERTEX
8
CUT
10
142
20
366.8
30
0
0
VERTEX
8
CUT
10
142
20
363.8
30
0
0
VERTEX
8
CUT
10
139
20
363.8
30
0
0
VERTEX
8
CUT
10
139
20
363.8
30
0
0
VERTEX
8
CUT
10
133.308
20
363.8
30
0
0
VERTEX
8
CUT
10
133.308
20
366.8
30
0
0
VERTEX
8
CUT
10
127.615
20
366.8
30
0
0
VERTEX
8
CUT
10
127.615
20
363.8
30
0
0
VERTEX
8
CUT
10
121.923
20
363.8
30
0
0
VERTEX
8
CUT
10
121.923
20
366.8
30
0
0
VERTEX
8
CUT
10
116.231
20
366.8
30
0
0
VERTEX
8
CUT
10
116.231
20
363.8
30
0
0
VERTEX
8
CUT
10
110.538
20
363.8
30
0
0
VERTEX
8
CUT
10
110.538
20
366.8
30
0
0
VERTEX
8
CUT
10
104.846
20
366.8
30
0
0
VERTEX
8
CUT
10
104.846
20
363.8
30
0
0
VERTEX
8
CUT
10
99.154
20
363.8
30
0
0
VERTEX
8
CUT
10
99.154
20
366.8
30
0
0
VERTEX
8
CUT
10
93.462
20
366.8
30
0
0
VERTEX
8
CUT
10
93.462
20
363.8
30
0
0
VERTEX
8
CUT
10
87.769
20
363.8
30
0
0
VERTEX
8
CUT
10
87.769
20
366.8
30
0
0
VERTEX
8
CUT
10
82.077
20
366.8
30
0
0
VERTEX
8
CUT
10
82.077
20
363.8
30
0
0
VERTEX
8
CUT
10
76.385
20
363.8
30
0
0
VERTEX
8
CUT
10
76.385
20
366.8
30
0
0
VERTEX
8
CUT
10
70.692
20
366.8
30
0
0
VERTEX
8
CUT
10
70.692
20
363.8
30
0
0
VERTEX
8
CUT
10
65
20
363.8
30
0
0
VERTEX
8
CUT
10
65
20
363.8
30
0
0
VERTEX
8
CUT
10
65
20
363.8
30
0
0
VERTEX
8
CUT
10
62
20
363.8
30
0
0
VERTEX
8
CUT
10
62
20
366.8
30
0
0
VERTEX
8
CUT
10
62
20
366.8
30
0
0
VERTEX
8
CUT
10
62
20
372.133
30
0
0
VERTEX
8
CUT
10
65
20
372.133
30
0
0
VERTEX
8
CUT
10
65
20
377.467
30
0
0
VERTEX
8
CUT
10
62
20
377.467
30
0
0
VERTEX
8
CUT
10
62
20
382.8
30
0
0
VERTEX
8
CUT
10
65
20
382.8
30
0
0
VERTEX
8
CUT
10
65
20
388.133
30
0
0
VERTEX
8
CUT
10
62
20
388.133
30
0
0
VERTEX
8
CUT
10
62
20
393.467
30
0
0
VERTEX
8
CUT
10
65
20
393.467
30
0
0
VERTEX
8
CUT
10
65
20
398.8
30
0
0
VERTEX
8
CUT
10
62
20
398.8
30
0
0
VERTEX
8
CUT
10
62
20
404.133
30
0
0
VERTEX
8
CUT
10
65
20
404.133
30
0
0
VERTEX
8
CUT
10
65
20
409.467
30
0
0
VERTEX
8
CUT
10
62
20
409.467
30
0
0
VERTEX
8
CUT
10
62
20
414.8
30
0
0
VERTEX
8
CUT
10
62
20
414.8
30
0
0
VERTEX
8
CUT
10
62
20
414.8
30
0
0
SEQEND
8
CUT
0
POLYLINE
8
CUT
66
1
70
1
0
VERTEX
8
CUT
10
149
20
417.8
30
0
0
VERTEX
8
CUT
10
223
20
417.8
30
0
0
VERTEX
8
CUT
10
226
20
417.8
30
0
0
VERTEX
8
CUT
10
226
20
414.8
30
0
0
VERTEX
8
CUT
10
223
20
414.8
30
0
0
VERTEX
8
CUT
10
223
20
411.8
30
0
0
VERTEX
8
CUT
10
226
20
411.8
30
0
0
VERTEX
8
CUT
10
226
20
408.8
30
0
0
VERTEX
8
CUT
10
223
20
408.8
30
0
0
VERTEX
8
CUT
10
223
20
408.8
30
0
0
VERTEX
8
CUT
10
217.308
20
408.8
30
0
0
VERTEX
8
CUT
10
217.308
20
405.8
30
0
0
VERTEX
8
CUT
10
211.615
20
405.8
30
0
0
VERTEX
8
CUT
10
211.615
20
408.8
30
0
0
VERTEX
8
CUT
10
205.923
20
408.8
30
0
0
VERTEX
8
CUT
10
205.923
20
405.8
30
0
0
VERTEX
8
CUT
10
200.231
20
405.8
30
0
0
VERTEX
8
CUT
10
200.231
20
408.8
30
0
0
VERTEX
8
CUT
10
194.538
20
408.8
30
0
0
VERTEX
8
CUT
10
194.538
20
405.8
30
0
0
VERTEX
8
CUT
10
188.846
20
405.8
30
0
0
VERTEX
8
CUT
10
188.846
20
408.8
30
0
0
VERTEX
8
CUT
10
183.154
20
408.8
30
0
0
VERTEX
8
CUT
10
183.154
20
405.8
30
0
0
VERTEX
8
CUT
10
177.462
20
405.8
30
0
0
VERTEX
8
CUT
10
177.462
20
408.8
30
0
0
VERTEX
8
CUT
10
171.769
20
408.8
30
0
0
VERTEX
8
CUT
10
171.769
20
405.8
30
0
0
VERTEX
8
CUT
10
166.077
20
405.8
30
0
0
VERTEX
8
CUT
10
166.077
20
408.8
30
0
0
VERTEX
8
CUT
10
160.385
20
408.8
30
0
0
VERTEX
8
CUT
10
160.385
20
405.8
30
0
0
VERTEX
8
CUT
10
154.692
20
405.8
30
0
0
VERTEX
8
CUT
10
154.692
20
408.8
30
0
0
VERTEX
8
CUT
10
149
20
408.8
30
0
0
VERTEX
8
CUT
10
149
20
408.8
30
0
0
VERTEX
8
CUT
10
146
20
408.8
30
0
0
VERTEX
8
CUT
10
146
20
411.8
30
0
0
VERTEX
8
CUT
10
149
20
411.8
30
0
0
VERTEX
8
CUT
10
149
20
414.8
30
0
0
VERTEX
8
CUT
10
146
20
414.8
30
0
0
VERTEX
8
CUT
10
146
20
417.8
30
0
0
VERTEX
8
CUT
10
149
20
417.8
30
0
0
SEQEND
8
CUT
0
POLYLINE
8
RASTER
66
1
70
1
0
VERTEX
8
RASTER
10
150
20
414.6
30
0
0
VERTEX
8
RASTER
10
222
20
414.6
30
0
0
VERTEX
8
RASTER
10
222
20
414
30
0
0
VERTEX
8
RASTER
10
150
20
414
30
0
0
SEQEND
8
RASTER
0
POLYLINE
8
RASTER
66
1
70
1
0
VERTEX
8
RASTER
10
150
20
411.1
30
0
0
VERTEX
8
RASTER
10
222
20
411.1
30
0
0
VERTEX
8
RASTER
10
222
20
410.5
30
0
0
VERTEX
8
RASTER
10
150
20
410.5
30
0
0
SEQEND
8
RASTER
0
POLYLINE
8
CUT
66
1
70
1
0
VERTEX
8
CUT
10
4
20
353.4
30
0
0
VERTEX
8
CUT
10
4
20
353.4
30
0
0
VERTEX
8
CUT
10
18.8
20
353.4
30
0
0
VERTEX
8
CUT
10
18.8
20
353.4
30
0
0
VERTEX
8
CUT
10
18.8
20
356.7
30
0
0
VERTEX
8
CUT
10
18.8
20
356.7
30
0
0
VERTEX
8
CUT
10
18.906
20
357.502
30
0
0
VERTEX
8
CUT
10
19.215
20
358.25
30
0
0
VERTEX
8
CUT
10
19.708
20
358.892
30
0
0
VERTEX
8
CUT
10
20.35
20
359.385
30
0
0
VERTEX
8
CUT
10
21.098
20
359.694
30
0
0
VERTEX
8
CUT
10
21.9
20
359.8
30
0
0
VERTEX
8
CUT
10
30.5
20
359.8
30
0
0
VERTEX
8
CUT
10
31.302
20
359.694
30
0
0
VERTEX
8
CUT
10
32.05
20
359.385
30
0
0
VERTEX
8
CUT
10
32.692
20
358.892
30
0
0
VERTEX
8
CUT
10
33.185
20
358.25
30
0
0
VERTEX
8
CUT
10
33.494
20
357.502
30
0
0
VERTEX
8
CUT
10
33.6
20
356.7
30
0
0
VERTEX
8
CUT
10
33.6
20
356.7
30
0
0
VERTEX
8
CUT
10
33.6
20
353.4
30
0
0
VERTEX
8
CUT
10
33.6
20
353.4
30
0
0
VERTEX
8
CUT
10
48.4
20
353.4
30
0
0
VERTEX
8
CUT
10
48.4
20
353.4
30
0
0
VERTEX
8
CUT
10
48.4
20
356.7
30
0
0
VERTEX
8
CUT
10
48.4
20
356.7
30
0
0
VERTEX
8
CUT
10
48.506
20
357.502
30
0
0
VERTEX
8
CUT
10
48.815
20
358.25
30
0
0
VERTEX
8
CUT
10
49.308
20
358.892
30
0
0
VERTEX
8
CUT
10
49.95
20
359.385
30
0
0
VERTEX
8
CUT
10
50.698
20
359.694
30
0
0
VERTEX
8
CUT
10
51.5
20
359.8
30
0
0
VERTEX
8
CUT
10
60.1
20
359.8
30
0
0
VERTEX
8
CUT
10
60.902
20
359.694
30
0
0
VERTEX
8
CUT
10
61.65
20
359.385
30
0
0
VERTEX
8
CUT
10
62.292
20
358.892
30
0
0
VERTEX
8
CUT
10
62.785
20
358.25
30
0
0
VERTEX
8
CUT
10
63.094
20
357.502
30
0
0
VERTEX
8
CUT
10
63.2
20
356.7
30
0
0
VERTEX
8
CUT
10
63.2
20
356.7
30
0
0
VERTEX
8
CUT
10
63.2
20
353.4
30
0
0
VERTEX
8
CUT
10
63.2
20
353.4
30
0
0
VERTEX
8
CUT
10
78
20
353.4
30
0
0
VERTEX
8
CUT
10
78
20
353.4
30
0
0
VERTEX
8
CUT
10
78
20
353
30
0
0
VERTEX
8
CUT
10
78
20
353
30
0
0
VERTEX
8
CUT
10
72.308
20
353
30
0
0
VERTEX
8
CUT
10
72.308
20
350
30
0
0
VERTEX
8
CUT
10
66.615
20
350
30
0
0
VERTEX
8
CUT
10
66.615
20
353
30
0
0
VERTEX
8
CUT
10
60.923
20
353
30
0
0
VERTEX
8
CUT
10
60.923
20
350
30
0
0
VERTEX
8
CUT
10
55.231
20
350
30
0
0
VERTEX
8
CUT
10
55.231
20
353
30
0
0
VERTEX
8
CUT
10
49.538
20
353
30
0
0
VERTEX
8
CUT
10
49.538
20
350
30
0
0
VERTEX
8
CUT
10
43.846
20
350
30
0
0
VERTEX
8
CUT
10
43.846
20
353
30
0
0
VERTEX
8
CUT
10
38.154
20
353
30
0
0
VERTEX
8
CUT
10
38.154
20
350
30
0
0
VERTEX
8
CUT
10
32.462
20
350
30
0
0
VERTEX
8
CUT
10
32.462
20
353
30
0
0
VERTEX
8
CUT
10
26.769
20
353
30
0
0
VERTEX
8
CUT
10
26.769
20
350
30
0
0
VERTEX
8
CUT
10
21.077
20
350
30
0
0
VERTEX
8
CUT
10
21.077
20
353
30
0
0
VERTEX
8
CUT
10
15.385
20
353
30
0
0
VERTEX
8
CUT
10
15.385
20
350
30
0
0
VERTEX
8
CUT
10
9.692
20
350
30
0
0
VERTEX
8
CUT
10
9.692
20
353
30
0
0
VERTEX
8
CUT
10
4
20
353
30
0
0
VERTEX
8
CUT
10
4
20
353
30
0
0
VERTEX
8
CUT
10
4
20
353
30
0
0
SEQEND
8
CUT
0
CIRCLE
8
CUT
10
26.2
20
356.7
30
0
40
1.65
0
CIRCLE
8
CUT
10
55.8
20
356.7
30
0
40
1.65
0
POLYLINE
8
CUT
66
1
70
1
0
VERTEX
8
CUT
10
85
20
359.8
30
0
0
VERTEX
8
CUT
10
133
20
359.8
30
0
0
VERTEX
8
CUT
10
133
20
359.8
30
0
0
VERTEX
8
CUT
10
133
20
356.8
30
0
0
VERTEX
8
CUT
10
136
20
356.8
30
0
0
VERTEX
8
CUT
10
136
20
353.8
30
0
0
VERTEX
8
CUT
10
133
20
353.8
30
0
0
VERTEX
8
CUT
10
133
20
350.8
30
0
0
VERTEX
8
CUT
10
133
20
350.8
30
0
0
VERTEX
8
CUT
10
133
20
350.8
30
0
0
VERTEX
8
CUT
10
127.667
20
350.8
30
0
0
VERTEX
8
CUT
10
127.667
20
347.8
30
0
0
VERTEX
8
CUT
10
122.333
20
347.8
30
0
0
VERTEX
8
CUT
10
122.333
20
350.8
30
0
0
VERTEX
8
CUT
10
117
20
350.8
30
0
0
VERTEX
8
CUT
10
117
20
347.8
30
0
0
VERTEX
8
CUT
10
111.667
20
347.8
30
0
0
VERTEX
8
CUT
10
111.667
20
350.8
30
0
0
VERTEX
8
CUT
10
106.333
20
350.8
30
0
0
VERTEX
8
CUT
10
106.333
20
347.8
30
0
0
VERTEX
8
CUT
10
101
20
347.8
30
0
0
VERTEX
8
CUT
10
101
20
350.8
30
0
0
VERTEX
8
CUT
10
95.667
20
350.8
30
0
0
VERTEX
8
CUT
10
95.667
20
347.8
30
0
0
VERTEX
8
CUT
10
90.333
20
347.8
30
0
0
VERTEX
8
CUT
10
90.333
20
350.8
30
0
0
VERTEX
8
CUT
10
85
20
350.8
30
0
0
VERTEX
8
CUT
10
85
20
350.8
30
0
0
VERTEX
8
CUT
10
85
20
350.8
30
0
0
VERTEX
8
CUT
10
85
20
353.8
30
0
0
VERTEX
8
CUT
10
82
20
353.8
30
0
0
VERTEX
8
CUT
10
82
20
356.8
30
0
0
VERTEX
8
CUT
10
85
20
356.8
30
0
0
VERTEX
8
CUT
10
85
20
359.8
30
0
0
VERTEX
8
CUT
10
85
20
359.8
30
0
0
SEQEND
8
CUT
0
POLYLINE
8
RASTER
66
1
70
1
0
VERTEX
8
RASTER
10
86
20
356.4
30
0
0
VERTEX
8
RASTER
10
132
20
356.4
30
0
0
VERTEX
8
RASTER
10
132
20
356
30
0
0
VERTEX
8
RASTER
10
86
20
356
30
0
0
SEQEND
8
RASTER
0
POLYLINE
8
CUT
66
1
70
1
0
VERTEX
8
CUT
10
143
20
359.8
30
0
0
VERTEX
8
CUT
10
191
20
359.8
30
0
0
VERTEX
8
CUT
10
191
20
359.8
30
0
0
VERTEX
8
CUT
10
191
20
356.8
30
0
0
VERTEX
8
CUT
10
194
20
356.8
30
0
0
VERTEX
8
CUT
10
194
20
353.8
30
0
0
VERTEX
8
CUT
10
191
20
353.8
30
0
0
VERTEX
8
CUT
10
191
20
350.8
30
0
0
VERTEX
8
CUT
10
191
20
350.8
30
0
0
VERTEX
8
CUT
10
191
20
350.8
30
0
0
VERTEX
8
CUT
10
185.667
20
350.8
30
0
0
VERTEX
8
CUT
10
185.667
20
347.8
30
0
0
VERTEX
8
CUT
10
180.333
20
347.8
30
0
0
VERTEX
8
CUT
10
180.333
20
350.8
30
0
0
VERTEX
8
CUT
10
175
20
350.8
30
0
0
VERTEX
8
CUT
10
175
20
347.8
30
0
0
VERTEX
8
CUT
10
169.667
20
347.8
30
0
0
VERTEX
8
CUT
10
169.667
20
350.8
30
0
0
VERTEX
8
CUT
10
164.333
20
350.8
30
0
0
VERTEX
8
CUT
10
164.333
20
347.8
30
0
0
VERTEX
8
CUT
10
159
20
347.8
30
0
0
VERTEX
8
CUT
10
159
20
350.8
30
0
0
VERTEX
8
CUT
10
153.667
20
350.8
30
0
0
VERTEX
8
CUT
10
153.667
20
347.8
30
0
0
VERTEX
8
CUT
10
148.333
20
347.8
30
0
0
VERTEX
8
CUT
10
148.333
20
350.8
30
0
0
VERTEX
8
CUT
10
143
20
350.8
30
0
0
VERTEX
8
CUT
10
143
20
350.8
30
0
0
VERTEX
8
CUT
10
143
20
350.8
30
0
0
VERTEX
8
CUT
10
143
20
353.8
30
0
0
VERTEX
8
CUT
10
140
20
353.8
30
0
0
VERTEX
8
CUT
10
140
20
356.8
30
0
0
VERTEX
8
CUT
10
143
20
356.8
30
0
0
VERTEX
8
CUT
10
143
20
359.8
30
0
0
VERTEX
8
CUT
10
143
20
359.8
30
0
0
SEQEND
8
CUT
0
POLYLINE
8
RASTER
66
1
70
1
0
VERTEX
8
RASTER
10
144
20
356.4
30
0
0
VERTEX
8
RASTER
10
190
20
356.4
30
0
0
VERTEX
8
RASTER
10
190
20
356
30
0
0
VERTEX
8
RASTER
10
144
20
356
30
0
0
SEQEND
8
RASTER
0
POLYLINE
8
CUT
66
1
70
1
0
VERTEX
8
CUT
10
198
20
359.8
30
0
0
VERTEX
8
CUT
10
201
20
359.8
30
0
0
VERTEX
8
CUT
10
201
20
359.8
30
0
0
VERTEX
8
CUT
10
206.692
20
359.8
30
0
0
VERTEX
8
CUT
10
206.692
20
356.8
30
0
0
VERTEX
8
CUT
10
212.385
20
356.8
30
0
0
VERTEX
8
CUT
10
212.385
20
359.8
30
0
0
VERTEX
8
CUT
10
218.077
20
359.8
30
0
0
VERTEX
8
CUT
10
218.077
20
356.8
30
0
0
VERTEX
8
CUT
10
223.769
20
356.8
30
0
0
VERTEX
8
CUT
10
223.769
20
359.8
30
0
0
VERTEX
8
CUT
10
229.462
20
359.8
30
0
0
VERTEX
8
CUT
10
229.462
20
356.8
30
0
0
VERTEX
8
CUT
10
235.154
20
356.8
30
0
0
VERTEX
8
CUT
10
235.154
20
359.8
30
0
0
VERTEX
8
CUT
10
240.846
20
359.8
30
0
0
VERTEX
8
CUT
10
240.846
20
356.8
30
0
0
VERTEX
8
CUT
10
246.538
20
356.8
30
0
0
VERTEX
8
CUT
10
246.538
20
359.8
30
0
0
VERTEX
8
CUT
10
252.231
20
359.8
30
0
0
VERTEX
8
CUT
10
252.231
20
356.8
30
0
0
VERTEX
8
CUT
10
257.923
20
356.8
30
0
0
VERTEX
8
CUT
10
257.923
20
359.8
30
0
0
VERTEX
8
CUT
10
263.615
20
359.8
30
0
0
VERTEX
8
CUT
10
263.615
20
356.8
30
0
0
VERTEX
8
CUT
10
269.308
20
356.8
30
0
0
VERTEX
8
CUT
10
269.308
20
359.8
30
0
0
VERTEX
8
CUT
10
275
20
359.8
30
0
0
VERTEX
8
CUT
10
275
20
359.8
30
0
0
VERTEX
8
CUT
10
275
20
359.8
30
0
0
VERTEX
8
CUT
10
278
20
359.8
30
0
0
VERTEX
8
CUT
10
278
20
356.8
30
0
0
VERTEX
8
CUT
10
278
20
356.8
30
0
0
VERTEX
8
CUT
10
278
20
351.467
30
0
0
VERTEX
8
CUT
10
275
20
351.467
30
0
0
VERTEX
8
CUT
10
275
20
346.133
30
0
0
VERTEX
8
CUT
10
278
20
346.133
30
0
0
VERTEX
8
CUT
10
278
20
340.8
30
0
0
VERTEX
8
CUT
10
275
20
340.8
30
0
0
VERTEX
8
CUT
10
275
20
335.467
30
0
0
VERTEX
8
CUT
10
278
20
335.467
30
0
0
VERTEX
8
CUT
10
278
20
330.133
30
0
0
VERTEX
8
CUT
10
275
20
330.133
30
0
0
VERTEX
8
CUT
10
275
20
324.8
30
0
0
VERTEX
8
CUT
10
278
20
324.8
30
0
0
VERTEX
8
CUT
10
278
20
319.467
30
0
0
VERTEX
8
CUT
10
275
20
319.467
30
0
0
VERTEX
8
CUT
10
275
20
314.133
30
0
0
VERTEX
8
CUT
10
278
20
314.133
30
0
0
VERTEX
8
CUT
10
278
20
308.8
30
0
0
VERTEX
8
CUT
10
278
20
308.8
30
0
0
VERTEX
8
CUT
10
278
20
308.8
30
0
0
VERTEX
8
CUT
10
278
20
305.8
30
0
0
VERTEX
8
CUT
10
275
20
305.8
30
0
0
VERTEX
8
CUT
10
275
20
305.8
30
0
0
VERTEX
8
CUT
10
269.308
20
305.8
30
0
0
VERTEX
8
CUT
10
269.308
20
308.8
30
0
0
VERTEX
8
CUT
10
263.615
20
308.8
30
0
0
VERTEX
8
CUT
10
263.615
20
305.8
30
0
0
VERTEX
8
CUT
10
257.923
20
305.8
30
0
0
VERTEX
8
CUT
10
257.923
20
308.8
30
0
0
VERTEX
8
CUT
10
252.231
20
308.8
30
0
0
VERTEX
8
CUT
10
252.231
20
305.8
30
0
0
VERTEX
8
CUT
10
246.538
20
305.8
30
0
0
VERTEX
8
CUT
10
246.538
20
308.8
30
0
0
VERTEX
8
CUT
10
240.846
20
308.8
30
0
0
VERTEX
8
CUT
10
240.846
20
305.8
30
0
0
VERTEX
8
CUT
10
235.154
20
305.8
30
0
0
VERTEX
8
CUT
10
235.154
20
308.8
30
0
0
VERTEX
8
CUT
10
229.462
20
308.8
30
0
0
VERTEX
8
CUT
10
229.462
20
305.8
30
0
0
VERTEX
8
CUT
10
223.769
20
305.8
30
0
0
VERTEX
8
CUT
10
223.769
20
308.8
30
0
0
VERTEX
8
CUT
10
218.077
20
308.8
30
0
0
VERTEX
8
CUT
10
218.077
20
305.8
30
0
0
VERTEX
8
CUT
10
212.385
20
305.8
30
0
0
VERTEX
8
CUT
10
212.385
20
308.8
30
0
0
VERTEX
8
CUT
10
206.692
20
308.8
30
0
0
VERTEX
8
CUT
10
206.692
20
305.8
30
0
0
VERTEX
8
CUT
10
201
20
305.8
30
0
0
VERTEX
8
CUT
10
201
20
305.8
30
0
0
VERTEX
8
CUT
10
201
20
305.8
30
0
0
VERTEX
8
CUT
10
198
20
305.8
30
0
0
VERTEX
8
CUT
10
198
20
308.8
30
0
0
VERTEX
8
CUT
10
198
20
308.8
30
0
0
VERTEX
8
CUT
10
198
20
314.133
30
0
0
VERTEX
8
CUT
10
201
20
314.133
30
0
0
VERTEX
8
CUT
10
201
20
319.467
30
0
0
VERTEX
8
CUT
10
198
20
319.467
30
0
0
VERTEX
8
CUT
10
198
20
324.8
30
0
0
VERTEX
8
CUT
10
201
20
324.8
30
0
0
VERTEX
8
CUT
10
201
20
330.133
30
0
0
VERTEX
8
CUT
10
198
20
330.133
30
0
0
VERTEX
8
CUT
10
198
20
335.467
30
0
0
VERTEX
8
CUT
10
201
20
335.467
30
0
0
VERTEX
8
CUT
10
201
20
340.8
30
0
0
VERTEX
8
CUT
10
198
20
340.8
30
0
0
VERTEX
8
CUT
10
198
20
346.133
30
0
0
VERTEX
8
CUT
10
201
20
346.133
30
0
0
VERTEX
8
CUT
10
201
20
351.467
30
0
0
VERTEX
8
CUT
10
198
20
351.467
30
0
0
VERTEX
8
CUT
10
198
20
356.8
30
0
0
VERTEX
8
CUT
10
198
20
356.8
30
0
0
VERTEX
8
CUT
10
198
20
356.8
30
0
0
SEQEND
8
CUT
0
POLYLINE
8
RASTER
66
1
70
1
0
VERTEX
8
RASTER
10
202
20
352.1
30
0
0
VERTEX
8
RASTER
10
274
20
352.1
30
0
0
VERTEX
8
RASTER
10
274
20
351.5
30
0
0
VERTEX
8
RASTER
10
202
20
351.5
30
0
0
SEQEND
8
RASTER
0
POLYLINE
8
RASTER
66
1
70
1
0
VERTEX
8
RASTER
10
202
20
347.1
30
0
0
VERTEX
8
RASTER
10
274
20
347.1
30
0
0
VERTEX
8
RASTER
10
274
20
346.5
30
0
0
VERTEX
8
RASTER
10
202
20
346.5
30
0
0
SEQEND
8
RASTER
0
POLYLINE
8
RASTER
66
1
70
1
0
VERTEX
8
RASTER
10
202
20
342.1
30
0
0
VERTEX
8
RASTER
10
274
20
342.1
30
0
0
VERTEX
8
RASTER
10
274
20
341.5
30
0
0
VERTEX
8
RASTER
10
202
20
341.5
30
0
0
SEQEND
8
RASTER
0
POLYLINE
8
RASTER
66
1
70
1
0
VERTEX
8
RASTER
10
202
20
337.1
30
0
0
VERTEX
8
RASTER
10
274
20
337.1
30
0
0
VERTEX
8
RASTER
10
274
20
336.5
30
0
0
VERTEX
8
RASTER
10
202
20
336.5
30
0
0
SEQEND
8
RASTER
0
POLYLINE
8
RASTER
66
1
70
1
0
VERTEX
8
RASTER
10
202
20
332.1
30
0
0
VERTEX
8
RASTER
10
274
20
332.1
30
0
0
VERTEX
8
RASTER
10
274
20
331.5
30
0
0
VERTEX
8
RASTER
10
202
20
331.5
30
0
0
SEQEND
8
RASTER
0
POLYLINE
8
RASTER
66
1
70
1
0
VERTEX
8
RASTER
10
202
20
327.1
30
0
0
VERTEX
8
RASTER
10
274
20
327.1
30
0
0
VERTEX
8
RASTER
10
274
20
326.5
30
0
0
VERTEX
8
RASTER
10
202
20
326.5
30
0
0
SEQEND
8
RASTER
0
POLYLINE
8
RASTER
66
1
70
1
0
VERTEX
8
RASTER
10
202
20
322.1
30
0
0
VERTEX
8
RASTER
10
274
20
322.1
30
0
0
VERTEX
8
RASTER
10
274
20
321.5
30
0
0
VERTEX
8
RASTER
10
202
20
321.5
30
0
0
SEQEND
8
RASTER
0
POLYLINE
8
RASTER
66
1
70
1
0
VERTEX
8
RASTER
10
202
20
317.1
30
0
0
VERTEX
8
RASTER
10
274
20
317.1
30
0
0
VERTEX
8
RASTER
10
274
20
316.5
30
0
0
VERTEX
8
RASTER
10
202
20
316.5
30
0
0
SEQEND
8
RASTER
0
POLYLINE
8
RASTER
66
1
70
1
0
VERTEX
8
RASTER
10
202
20
312.1
30
0
0
VERTEX
8
RASTER
10
274
20
312.1
30
0
0
VERTEX
8
RASTER
10
274
20
311.5
30
0
0
VERTEX
8
RASTER
10
202
20
311.5
30
0
0
SEQEND
8
RASTER
0
POLYLINE
8
RASTER
66
1
70
1
0
VERTEX
8
RASTER
10
216
20
359.8
30
0
0
VERTEX
8
RASTER
10
220
20
359.8
30
0
0
VERTEX
8
RASTER
10
220
20
305.8
30
0
0
VERTEX
8
RASTER
10
216
20
305.8
30
0
0
SEQEND
8
RASTER
0
POLYLINE
8
RASTER
66
1
70
1
0
VERTEX
8
RASTER
10
256
20
359.8
30
0
0
VERTEX
8
RASTER
10
260
20
359.8
30
0
0
VERTEX
8
RASTER
10
260
20
305.8
30
0
0
VERTEX
8
RASTER
10
256
20
305.8
30
0
0
SEQEND
8
RASTER
0
CIRCLE
8
RASTER
10
218
20
349
30
0
40
0.55
0
CIRCLE
8
RASTER
10
258
20
349
30
0
40
0.55
0
CIRCLE
8
RASTER
10
218
20
332.8
30
0
40
0.55
0
CIRCLE
8
RASTER
10
258
20
332.8
30
0
40
0.55
0
CIRCLE
8
RASTER
10
218
20
316.6
30
0
40
0.55
0
CIRCLE
8
RASTER
10
258
20
316.6
30
0
40
0.55
0
POLYLINE
8
RASTER
66
1
70
1
0
VERTEX
8
RASTER
10
232.5
20
336.3
30
0
0
VERTEX
8
RASTER
10
233.4
20
336.3
30
0
0
VERTEX
8
RASTER
10
233.4
20
335.4
30
0
0
VERTEX
8
RASTER
10
232.5
20
335.4
30
0
0
SEQEND
8
RASTER
0
POLYLINE
8
RASTER
66
1
70
1
0
VERTEX
8
RASTER
10
233.6
20
336.3
30
0
0
VERTEX
8
RASTER
10
234.5
20
336.3
30
0
0
VERTEX
8
RASTER
10
234.5
20
335.4
30
0
0
VERTEX
8
RASTER
10
233.6
20
335.4
30
0
0
SEQEND
8
RASTER
0
POLYLINE
8
RASTER
66
1
70
1
0
VERTEX
8
RASTER
10
234.7
20
336.3
30
0
0
VERTEX
8
RASTER
10
235.6
20
336.3
30
0
0
VERTEX
8
RASTER
10
235.6
20
335.4
30
0
0
VERTEX
8
RASTER
10
234.7
20
335.4
30
0
0
SEQEND
8
RASTER
0
POLYLINE
8
RASTER
66
1
70
1
0
VERTEX
8
RASTER
10
235.8
20
336.3
30
0
0
VERTEX
8
RASTER
10
236.7
20
336.3
30
0
0
VERTEX
8
RASTER
10
236.7
20
335.4
30
0
0
VERTEX
8
RASTER
10
235.8
20
335.4
30
0
0
SEQEND
8
RASTER
0
POLYLINE
8
RASTER
66
1
70
1
0
VERTEX
8
RASTER
10
236.9
20
336.3
30
0
0
VERTEX
8
RASTER
10
237.8
20
336.3
30
0
0
VERTEX
8
RASTER
10
237.8
20
335.4
30
0
0
VERTEX
8
RASTER
10
236.9
20
335.4
30
0
0
SEQEND
8
RASTER
0
POLYLINE
8
RASTER
66
1
70
1
0
VERTEX
8
RASTER
10
238
20
336.3
30
0
0
VERTEX
8
RASTER
10
238.9
20
336.3
30
0
0
VERTEX
8
RASTER
10
238.9
20
335.4
30
0
0
VERTEX
8
RASTER
10
238
20
335.4
30
0
0
SEQEND
8
RASTER
0
POLYLINE
8
RASTER
66
1
70
1
0
VERTEX
8
RASTER
10
239.1
20
336.3
30
0
0
VERTEX
8
RASTER
10
240
20
336.3
30
0
0
VERTEX
8
RASTER
10
240
20
335.4
30
0
0
VERTEX
8
RASTER
10
239.1
20
335.4
30
0
0
SEQEND
8
RASTER
0
POLYLINE
8
RASTER
66
1
70
1
0
VERTEX
8
RASTER
10
240.2
20
336.3
30
0
0
VERTEX
8
RASTER
10
241.1
20
336.3
30
0
0
VERTEX
8
RASTER
10
241.1
20
335.4
30
0
0
VERTEX
8
RASTER
10
240.2
20
335.4
30
0
0
SEQEND
8
RASTER
0
POLYLINE
8
RASTER
66
1
70
1
0
VERTEX
8
RASTER
10
241.3
20
336.3
30
0
0
VERTEX
8
RASTER
10
242.2
20
336.3
30
0
0
VERTEX
8
RASTER
10
242.2
20
335.4
30
0
0
VERTEX
8
RASTER
10
241.3
20
335.4
30
0
0
SEQEND
8
RASTER
0
POLYLINE
8
RASTER
66
1
70
1
0
VERTEX
8
RASTER
10
242.4
20
336.3
30
0
0
VERTEX
8
RASTER
10
243.3
20
336.3
30
0
0
VERTEX
8
RASTER
10
243.3
20
335.4
30
0
0
VERTEX
8
RASTER
10
242.4
20
335.4
30
0
0
SEQEND
8
RASTER
0
POLYLINE
8
RASTER
66
1
70
1
0
VERTEX
8
RASTER
10
232.5
20
334.1
30
0
0
VERTEX
8
RASTER
10
233.4
20
334.1
30
0
0
VERTEX
8
RASTER
10
233.4
20
333.2
30
0
0
VERTEX
8
RASTER
10
232.5
20
333.2
30
0
0
SEQEND
8
RASTER
0
POLYLINE
8
RASTER
66
1
70
1
0
VERTEX
8
RASTER
10
233.6
20
334.1
30
0
0
VERTEX
8
RASTER
10
234.5
20
334.1
30
0
0
VERTEX
8
RASTER
10
234.5
20
333.2
30
0
0
VERTEX
8
RASTER
10
233.6
20
333.2
30
0
0
SEQEND
8
RASTER
0
POLYLINE
8
RASTER
66
1
70
1
0
VERTEX
8
RASTER
10
234.7
20
334.1
30
0
0
VERTEX
8
RASTER
10
235.6
20
334.1
30
0
0
VERTEX
8
RASTER
10
235.6
20
333.2
30
0
0
VERTEX
8
RASTER
10
234.7
20
333.2
30
0
0
SEQEND
8
RASTER
0
POLYLINE
8
RASTER
66
1
70
1
0
VERTEX
8
RASTER
10
235.8
20
334.1
30
0
0
VERTEX
8
RASTER
10
236.7
20
334.1
30
0
0
VERTEX
8
RASTER
10
236.7
20
333.2
30
0
0
VERTEX
8
RASTER
10
235.8
20
333.2
30
0
0
SEQEND
8
RASTER
0
POLYLINE
8
RASTER
66
1
70
1
0
VERTEX
8
RASTER
10
236.9
20
334.1
30
0
0
VERTEX
8
RASTER
10
237.8
20
334.1
30
0
0
VERTEX
8
RASTER
10
237.8
20
333.2
30
0
0
VERTEX
8
RASTER
10
236.9
20
333.2
30
0
0
SEQEND
8
RASTER
0
POLYLINE
8
RASTER
66
1
70
1
0
VERTEX
8
RASTER
10
238
20
334.1
30
0
0
VERTEX
8
RASTER
10
238.9
20
334.1
30
0
0
VERTEX
8
RASTER
10
238.9
20
333.2
30
0
0
VERTEX
8
RASTER
10
238
20
333.2
30
0
0
SEQEND
8
RASTER
0
POLYLINE
8
RASTER
66
1
70
1
0
VERTEX
8
RASTER
10
239.1
20
334.1
30
0
0
VERTEX
8
RASTER
10
240
20
334.1
30
0
0
VERTEX
8
RASTER
10
240
20
333.2
30
0
0
VERTEX
8
RASTER
10
239.1
20
333.2
30
0
0
SEQEND
8
RASTER
0
POLYLINE
8
RASTER
66
1
70
1
0
VERTEX
8
RASTER
10
240.2
20
334.1
30
0
0
VERTEX
8
RASTER
10
241.1
20
334.1
30
0
0
VERTEX
8
RASTER
10
241.1
20
333.2
30
0
0
VERTEX
8
RASTER
10
240.2
20
333.2
30
0
0
SEQEND
8
RASTER
0
POLYLINE
8
RASTER
66
1
70
1
0
VERTEX
8
RASTER
10
241.3
20
334.1
30
0
0
VERTEX
8
RASTER
10
242.2
20
334.1
30
0
0
VERTEX
8
RASTER
10
242.2
20
333.2
30
0
0
VERTEX
8
RASTER
10
241.3
20
333.2
30
0
0
SEQEND
8
RASTER
0
POLYLINE
8
RASTER
66
1
70
1
0
VERTEX
8
RASTER
10
242.4
20
334.1
30
0
0
VERTEX
8
RASTER
10
243.3
20
334.1
30
0
0
VERTEX
8
RASTER
10
243.3
20
333.2
30
0
0
VERTEX
8
RASTER
10
242.4
20
333.2
30
0
0
SEQEND
8
RASTER
0
POLYLINE
8
RASTER
66
1
70
1
0
VERTEX
8
RASTER
10
232.5
20
331.9
30
0
0
VERTEX
8
RASTER
10
233.4
20
331.9
30
0
0
VERTEX
8
RASTER
10
233.4
20
331
30
0
0
VERTEX
8
RASTER
10
232.5
20
331
30
0
0
SEQEND
8
RASTER
0
POLYLINE
8
RASTER
66
1
70
1
0
VERTEX
8
RASTER
10
233.6
20
331.9
30
0
0
VERTEX
8
RASTER
10
234.5
20
331.9
30
0
0
VERTEX
8
RASTER
10
234.5
20
331
30
0
0
VERTEX
8
RASTER
10
233.6
20
331
30
0
0
SEQEND
8
RASTER
0
POLYLINE
8
RASTER
66
1
70
1
0
VERTEX
8
RASTER
10
234.7
20
331.9
30
0
0
VERTEX
8
RASTER
10
235.6
20
331.9
30
0
0
VERTEX
8
RASTER
10
235.6
20
331
30
0
0
VERTEX
8
RASTER
10
234.7
20
331
30
0
0
SEQEND
8
RASTER
0
POLYLINE
8
RASTER
66
1
70
1
0
VERTEX
8
RASTER
10
235.8
20
331.9
30
0
0
VERTEX
8
RASTER
10
236.7
20
331.9
30
0
0
VERTEX
8
RASTER
10
236.7
20
331
30
0
0
VERTEX
8
RASTER
10
235.8
20
331
30
0
0
SEQEND
8
RASTER
0
POLYLINE
8
RASTER
66
1
70
1
0
VERTEX
8
RASTER
10
236.9
20
331.9
30
0
0
VERTEX
8
RASTER
10
237.8
20
331.9
30
0
0
VERTEX
8
RASTER
10
237.8
20
331
30
0
0
VERTEX
8
RASTER
10
236.9
20
331
30
0
0
SEQEND
8
RASTER
0
POLYLINE
8
RASTER
66
1
70
1
0
VERTEX
8
RASTER
10
238
20
331.9
30
0
0
VERTEX
8
RASTER
10
238.9
20
331.9
30
0
0
VERTEX
8
RASTER
10
238.9
20
331
30
0
0
VERTEX
8
RASTER
10
238
20
331
30
0
0
SEQEND
8
RASTER
0
POLYLINE
8
RASTER
66
1
70
1
0
VERTEX
8
RASTER
10
239.1
20
331.9
30
0
0
VERTEX
8
RASTER
10
240
20
331.9
30
0
0
VERTEX
8
RASTER
10
240
20
331
30
0
0
VERTEX
8
RASTER
10
239.1
20
331
30
0
0
SEQEND
8
RASTER
0
POLYLINE
8
RASTER
66
1
70
1
0
VERTEX
8
RASTER
10
240.2
20
331.9
30
0
0
VERTEX
8
RASTER
10
241.1
20
331.9
30
0
0
VERTEX
8
RASTER
10
241.1
20
331
30
0
0
VERTEX
8
RASTER
10
240.2
20
331
30
0
0
SEQEND
8
RASTER
0
POLYLINE
8
RASTER
66
1
70
1
0
VERTEX
8
RASTER
10
241.3
20
331.9
30
0
0
VERTEX
8
RASTER
10
242.2
20
331.9
30
0
0
VERTEX
8
RASTER
10
242.2
20
331
30
0
0
VERTEX
8
RASTER
10
241.3
20
331
30
0
0
SEQEND
8
RASTER
0
POLYLINE
8
RASTER
66
1
70
1
0
VERTEX
8
RASTER
10
242.4
20
331.9
30
0
0
VERTEX
8
RASTER
10
243.3
20
331.9
30
0
0
VERTEX
8
RASTER
10
243.3
20
331
30
0
0
VERTEX
8
RASTER
10
242.4
20
331
30
0
0
SEQEND
8
RASTER
0
POLYLINE
8
CUT
66
1
70
1
0
VERTEX
8
CUT
10
4
20
301.4
30
0
0
VERTEX
8
CUT
10
4.006
20
301.494
30
0
0
VERTEX
8
CUT
10
4.025
20
301.575
30
0
0
VERTEX
8
CUT
10
4.056
20
301.644
30
0
0
VERTEX
8
CUT
10
4.1
20
301.7
30
0
0
VERTEX
8
CUT
10
4.156
20
301.744
30
0
0
VERTEX
8
CUT
10
4.225
20
301.775
30
0
0
VERTEX
8
CUT
10
4.306
20
301.794
30
0
0
VERTEX
8
CUT
10
4.4
20
301.8
30
0
0
VERTEX
8
CUT
10
51.6
20
301.8
30
0
0
VERTEX
8
CUT
10
51.694
20
301.794
30
0
0
VERTEX
8
CUT
10
51.775
20
301.775
30
0
0
VERTEX
8
CUT
10
51.844
20
301.744
30
0
0
VERTEX
8
CUT
10
51.9
20
301.7
30
0
0
VERTEX
8
CUT
10
51.944
20
301.644
30
0
0
VERTEX
8
CUT
10
51.975
20
301.575
30
0
0
VERTEX
8
CUT
10
51.994
20
301.494
30
0
0
VERTEX
8
CUT
10
52
20
301.4
30
0
0
VERTEX
8
CUT
10
52
20
297.2
30
0
0
VERTEX
8
CUT
10
51.994
20
297.106
30
0
0
VERTEX
8
CUT
10
51.975
20
297.025
30
0
0
VERTEX
8
CUT
10
51.944
20
296.956
30
0
0
VERTEX
8
CUT
10
51.9
20
296.9
30
0
0
VERTEX
8
CUT
10
51.844
20
296.856
30
0
0
VERTEX
8
CUT
10
51.775
20
296.825
30
0
0
VERTEX
8
CUT
10
51.694
20
296.806
30
0
0
VERTEX
8
CUT
10
51.6
20
296.8
30
0
0
VERTEX
8
CUT
10
4.4
20
296.8
30
0
0
VERTEX
8
CUT
10
4.306
20
296.806
30
0
0
VERTEX
8
CUT
10
4.225
20
296.825
30
0
0
VERTEX
8
CUT
10
4.156
20
296.856
30
0
0
VERTEX
8
CUT
10
4.1
20
296.9
30
0
0
VERTEX
8
CUT
10
4.056
20
296.956
30
0
0
VERTEX
8
CUT
10
4.025
20
297.025
30
0
0
VERTEX
8
CUT
10
4.006
20
297.106
30
0
0
VERTEX
8
CUT
10
4
20
297.2
30
0
0
SEQEND
8
CUT
0
POLYLINE
8
CUT
66
1
70
1
0
VERTEX
8
CUT
10
56
20
301.4
30
0
0
VERTEX
8
CUT
10
56.006
20
301.494
30
0
0
VERTEX
8
CUT
10
56.025
20
301.575
30
0
0
VERTEX
8
CUT
10
56.056
20
301.644
30
0
0
VERTEX
8
CUT
10
56.1
20
301.7
30
0
0
VERTEX
8
CUT
10
56.156
20
301.744
30
0
0
VERTEX
8
CUT
10
56.225
20
301.775
30
0
0
VERTEX
8
CUT
10
56.306
20
301.794
30
0
0
VERTEX
8
CUT
10
56.4
20
301.8
30
0
0
VERTEX
8
CUT
10
103.6
20
301.8
30
0
0
VERTEX
8
CUT
10
103.694
20
301.794
30
0
0
VERTEX
8
CUT
10
103.775
20
301.775
30
0
0
VERTEX
8
CUT
10
103.844
20
301.744
30
0
0
VERTEX
8
CUT
10
103.9
20
301.7
30
0
0
VERTEX
8
CUT
10
103.944
20
301.644
30
0
0
VERTEX
8
CUT
10
103.975
20
301.575
30
0
0
VERTEX
8
CUT
10
103.994
20
301.494
30
0
0
VERTEX
8
CUT
10
104
20
301.4
30
0
0
VERTEX
8
CUT
10
104
20
297.2
30
0
0
VERTEX
8
CUT
10
103.994
20
297.106
30
0
0
VERTEX
8
CUT
10
103.975
20
297.025
30
0
0
VERTEX
8
CUT
10
103.944
20
296.956
30
0
0
VERTEX
8
CUT
10
103.9
20
296.9
30
0
0
VERTEX
8
CUT
10
103.844
20
296.856
30
0
0
VERTEX
8
CUT
10
103.775
20
296.825
30
0
0
VERTEX
8
CUT
10
103.694
20
296.806
30
0
0
VERTEX
8
CUT
10
103.6
20
296.8
30
0
0
VERTEX
8
CUT
10
56.4
20
296.8
30
0
0
VERTEX
8
CUT
10
56.306
20
296.806
30
0
0
VERTEX
8
CUT
10
56.225
20
296.825
30
0
0
VERTEX
8
CUT
10
56.156
20
296.856
30
0
0
VERTEX
8
CUT
10
56.1
20
296.9
30
0
0
VERTEX
8
CUT
10
56.056
20
296.956
30
0
0
VERTEX
8
CUT
10
56.025
20
297.025
30
0
0
VERTEX
8
CUT
10
56.006
20
297.106
30
0
0
VERTEX
8
CUT
10
56
20
297.2
30
0
0
SEQEND
8
CUT
0
POLYLINE
8
CUT
66
1
70
1
0
VERTEX
8
CUT
10
111
20
301.8
30
0
0
VERTEX
8
CUT
10
185
20
301.8
30
0
0
VERTEX
8
CUT
10
188
20
301.8
30
0
0
VERTEX
8
CUT
10
188
20
296.133
30
0
0
VERTEX
8
CUT
10
185
20
296.133
30
0
0
VERTEX
8
CUT
10
185
20
290.467
30
0
0
VERTEX
8
CUT
10
188
20
290.467
30
0
0
VERTEX
8
CUT
10
188
20
284.8
30
0
0
VERTEX
8
CUT
10
185
20
284.8
30
0
0
VERTEX
8
CUT
10
185
20
284.8
30
0
0
VERTEX
8
CUT
10
179.308
20
284.8
30
0
0
VERTEX
8
CUT
10
179.308
20
281.8
30
0
0
VERTEX
8
CUT
10
173.615
20
281.8
30
0
0
VERTEX
8
CUT
10
173.615
20
284.8
30
0
0
VERTEX
8
CUT
10
167.923
20
284.8
30
0
0
VERTEX
8
CUT
10
167.923
20
281.8
30
0
0
VERTEX
8
CUT
10
162.231
20
281.8
30
0
0
VERTEX
8
CUT
10
162.231
20
284.8
30
0
0
VERTEX
8
CUT
10
156.538
20
284.8
30
0
0
VERTEX
8
CUT
10
156.538
20
281.8
30
0
0
VERTEX
8
CUT
10
150.846
20
281.8
30
0
0
VERTEX
8
CUT
10
150.846
20
284.8
30
0
0
VERTEX
8
CUT
10
145.154
20
284.8
30
0
0
VERTEX
8
CUT
10
145.154
20
281.8
30
0
0
VERTEX
8
CUT
10
139.462
20
281.8
30
0
0
VERTEX
8
CUT
10
139.462
20
284.8
30
0
0
VERTEX
8
CUT
10
133.769
20
284.8
30
0
0
VERTEX
8
CUT
10
133.769
20
281.8
30
0
0
VERTEX
8
CUT
10
128.077
20
281.8
30
0
0
VERTEX
8
CUT
10
128.077
20
284.8
30
0
0
VERTEX
8
CUT
10
122.385
20
284.8
30
0
0
VERTEX
8
CUT
10
122.385
20
281.8
30
0
0
VERTEX
8
CUT
10
116.692
20
281.8
30
0
0
VERTEX
8
CUT
10
116.692
20
284.8
30
0
0
VERTEX
8
CUT
10
111
20
284.8
30
0
0
VERTEX
8
CUT
10
111
20
284.8
30
0
0
VERTEX
8
CUT
10
108
20
284.8
30
0
0
VERTEX
8
CUT
10
108
20
290.467
30
0
0
VERTEX
8
CUT
10
111
20
290.467
30
0
0
VERTEX
8
CUT
10
111
20
296.133
30
0
0
VERTEX
8
CUT
10
108
20
296.133
30
0
0
VERTEX
8
CUT
10
108
20
301.8
30
0
0
VERTEX
8
CUT
10
111
20
301.8
30
0
0
SEQEND
8
CUT
0
POLYLINE
8
RASTER
66
1
70
1
0
VERTEX
8
RASTER
10
112
20
297.9
30
0
0
VERTEX
8
RASTER
10
184
20
297.9
30
0
0
VERTEX
8
RASTER
10
184
20
297.3
30
0
0
VERTEX
8
RASTER
10
112
20
297.3
30
0
0
SEQEND
8
RASTER
0
POLYLINE
8
RASTER
66
1
70
1
0
VERTEX
8
RASTER
10
112
20
293.7
30
0
0
VERTEX
8
RASTER
10
184
20
293.7
30
0
0
VERTEX
8
RASTER
10
184
20
293.1
30
0
0
VERTEX
8
RASTER
10
112
20
293.1
30
0
0
SEQEND
8
RASTER
0
POLYLINE
8
RASTER
66
1
70
1
0
VERTEX
8
RASTER
10
112
20
289.5
30
0
0
VERTEX
8
RASTER
10
184
20
289.5
30
0
0
VERTEX
8
RASTER
10
184
20
288.9
30
0
0
VERTEX
8
RASTER
10
112
20
288.9
30
0
0
SEQEND
8
RASTER
0
POLYLINE
8
RASTER
66
1
70
1
0
VERTEX
8
RASTER
10
127.5
20
301.8
30
0
0
VERTEX
8
RASTER
10
131.5
20
301.8
30
0
0
VERTEX
8
RASTER
10
131.5
20
284.8
30
0
0
VERTEX
8
RASTER
10
127.5
20
284.8
30
0
0
SEQEND
8
RASTER
0
POLYLINE
8
RASTER
66
1
70
1
0
VERTEX
8
RASTER
10
164.5
20
301.8
30
0
0
VERTEX
8
RASTER
10
168.5
20
301.8
30
0
0
VERTEX
8
RASTER
10
168.5
20
284.8
30
0
0
VERTEX
8
RASTER
10
164.5
20
284.8
30
0
0
SEQEND
8
RASTER
0
CIRCLE
8
RASTER
10
129.5
20
298.4
30
0
40
0.55
0
CIRCLE
8
RASTER
10
166.5
20
298.4
30
0
40
0.55
0
CIRCLE
8
RASTER
10
129.5
20
293.3
30
0
40
0.55
0
CIRCLE
8
RASTER
10
166.5
20
293.3
30
0
40
0.55
0
CIRCLE
8
RASTER
10
129.5
20
288.2
30
0
40
0.55
0
CIRCLE
8
RASTER
10
166.5
20
288.2
30
0
40
0.55
0
POLYLINE
8
RASTER
66
1
70
1
0
VERTEX
8
RASTER
10
144
20
296.1
30
0
0
VERTEX
8
RASTER
10
144.019
20
296.381
30
0
0
VERTEX
8
RASTER
10
144.075
20
296.625
30
0
0
VERTEX
8
RASTER
10
144.169
20
296.831
30
0
0
VERTEX
8
RASTER
10
144.3
20
297
30
0
0
VERTEX
8
RASTER
10
144.469
20
297.131
30
0
0
VERTEX
8
RASTER
10
144.675
20
297.225
30
0
0
VERTEX
8
RASTER
10
144.919
20
297.281
30
0
0
VERTEX
8
RASTER
10
145.2
20
297.3
30
0
0
VERTEX
8
RASTER
10
150.8
20
297.3
30
0
0
VERTEX
8
RASTER
10
151.081
20
297.281
30
0
0
VERTEX
8
RASTER
10
151.325
20
297.225
30
0
0
VERTEX
8
RASTER
10
151.531
20
297.131
30
0
0
VERTEX
8
RASTER
10
151.7
20
297
30
0
0
VERTEX
8
RASTER
10
151.831
20
296.831
30
0
0
VERTEX
8
RASTER
10
151.925
20
296.625
30
0
0
VERTEX
8
RASTER
10
151.981
20
296.381
30
0
0
VERTEX
8
RASTER
10
152
20
296.1
30
0
0
VERTEX
8
RASTER
10
152
20
290.5
30
0
0
VERTEX
8
RASTER
10
151.981
20
290.219
30
0
0
VERTEX
8
RASTER
10
151.925
20
289.975
30
0
0
VERTEX
8
RASTER
10
151.831
20
289.769
30
0
0
VERTEX
8
RASTER
10
151.7
20
289.6
30
0
0
VERTEX
8
RASTER
10
151.531
20
289.469
30
0
0
VERTEX
8
RASTER
10
151.325
20
289.375
30
0
0
VERTEX
8
RASTER
10
151.081
20
289.319
30
0
0
VERTEX
8
RASTER
10
150.8
20
289.3
30
0
0
VERTEX
8
RASTER
10
145.2
20
289.3
30
0
0
VERTEX
8
RASTER
10
144.919
20
289.319
30
0
0
VERTEX
8
RASTER
10
144.675
20
289.375
30
0
0
VERTEX
8
RASTER
10
144.469
20
289.469
30
0
0
VERTEX
8
RASTER
10
144.3
20
289.6
30
0
0
VERTEX
8
RASTER
10
144.169
20
289.769
30
0
0
VERTEX
8
RASTER
10
144.075
20
289.975
30
0
0
VERTEX
8
RASTER
10
144.019
20
290.219
30
0
0
VERTEX
8
RASTER
10
144
20
290.5
30
0
0
SEQEND
8
RASTER
0
CIRCLE
8
RASTER
10
148
20
294.3
30
0
40
1.1
0
POLYLINE
8
RASTER
66
1
70
1
0
VERTEX
8
RASTER
10
147.3
20
293.7
30
0
0
VERTEX
8
RASTER
10
147
20
290.7
30
0
0
VERTEX
8
RASTER
10
149
20
290.7
30
0
0
VERTEX
8
RASTER
10
148.7
20
293.7
30
0
0
VERTEX
8
RASTER
10
147.3
20
293.7
30
0
0
SEQEND
8
RASTER
0
POLYLINE
8
CUT
66
1
70
1
0
VERTEX
8
CUT
10
195
20
295.4
30
0
0
VERTEX
8
CUT
10
195
20
295.4
30
0
0
VERTEX
8
CUT
10
195
20
298.7
30
0
0
VERTEX
8
CUT
10
195
20
298.7
30
0
0
VERTEX
8
CUT
10
195.106
20
299.502
30
0
0
VERTEX
8
CUT
10
195.415
20
300.25
30
0
0
VERTEX
8
CUT
10
195.908
20
300.892
30
0
0
VERTEX
8
CUT
10
196.55
20
301.385
30
0
0
VERTEX
8
CUT
10
197.298
20
301.694
30
0
0
VERTEX
8
CUT
10
198.1
20
301.8
30
0
0
VERTEX
8
CUT
10
206.7
20
301.8
30
0
0
VERTEX
8
CUT
10
207.502
20
301.694
30
0
0
VERTEX
8
CUT
10
208.25
20
301.385
30
0
0
VERTEX
8
CUT
10
208.892
20
300.892
30
0
0
VERTEX
8
CUT
10
209.385
20
300.25
30
0
0
VERTEX
8
CUT
10
209.694
20
299.502
30
0
0
VERTEX
8
CUT
10
209.8
20
298.7
30
0
0
VERTEX
8
CUT
10
209.8
20
298.7
30
0
0
VERTEX
8
CUT
10
209.8
20
295.4
30
0
0
VERTEX
8
CUT
10
209.8
20
295.4
30
0
0
VERTEX
8
CUT
10
224.6
20
295.4
30
0
0
VERTEX
8
CUT
10
224.6
20
295.4
30
0
0
VERTEX
8
CUT
10
224.6
20
298.7
30
0
0
VERTEX
8
CUT
10
224.6
20
298.7
30
0
0
VERTEX
8
CUT
10
224.706
20
299.502
30
0
0
VERTEX
8
CUT
10
225.015
20
300.25
30
0
0
VERTEX
8
CUT
10
225.508
20
300.892
30
0
0
VERTEX
8
CUT
10
226.15
20
301.385
30
0
0
VERTEX
8
CUT
10
226.898
20
301.694
30
0
0
VERTEX
8
CUT
10
227.7
20
301.8
30
0
0
VERTEX
8
CUT
10
236.3
20
301.8
30
0
0
VERTEX
8
CUT
10
237.102
20
301.694
30
0
0
VERTEX
8
CUT
10
237.85
20
301.385
30
0
0
VERTEX
8
CUT
10
238.492
20
300.892
30
0
0
VERTEX
8
CUT
10
238.985
20
300.25
30
0
0
VERTEX
8
CUT
10
239.294
20
299.502
30
0
0
VERTEX
8
CUT
10
239.4
20
298.7
30
0
0
VERTEX
8
CUT
10
239.4
20
298.7
30
0
0
VERTEX
8
CUT
10
239.4
20
295.4
30
0
0
VERTEX
8
CUT
10
239.4
20
295.4
30
0
0
VERTEX
8
CUT
10
254.2
20
295.4
30
0
0
VERTEX
8
CUT
10
254.2
20
295.4
30
0
0
VERTEX
8
CUT
10
254.2
20
298.7
30
0
0
VERTEX
8
CUT
10
254.2
20
298.7
30
0
0
VERTEX
8
CUT
10
254.306
20
299.502
30
0
0
VERTEX
8
CUT
10
254.615
20
300.25
30
0
0
VERTEX
8
CUT
10
255.108
20
300.892
30
0
0
VERTEX
8
CUT
10
255.75
20
301.385
30
0
0
VERTEX
8
CUT
10
256.498
20
301.694
30
0
0
VERTEX
8
CUT
10
257.3
20
301.8
30
0
0
VERTEX
8
CUT
10
265.9
20
301.8
30
0
0
VERTEX
8
CUT
10
266.702
20
301.694
30
0
0
VERTEX
8
CUT
10
267.45
20
301.385
30
0
0
VERTEX
8
CUT
10
268.092
20
300.892
30
0
0
VERTEX
8
CUT
10
268.585
20
300.25
30
0
0
VERTEX
8
CUT
10
268.894
20
299.502
30
0
0
VERTEX
8
CUT
10
269
20
298.7
30
0
0
VERTEX
8
CUT
10
269
20
298.7
30
0
0
VERTEX
8
CUT
10
269
20
295.4
30
0
0
VERTEX
8
CUT
10
269
20
295.4
30
0
0
VERTEX
8
CUT
10
272
20
295.4
30
0
0
VERTEX
8
CUT
10
272
20
289.733
30
0
0
VERTEX
8
CUT
10
269
20
289.733
30
0
0
VERTEX
8
CUT
10
269
20
284.067
30
0
0
VERTEX
8
CUT
10
272
20
284.067
30
0
0
VERTEX
8
CUT
10
272
20
278.4
30
0
0
VERTEX
8
CUT
10
269
20
278.4
30
0
0
VERTEX
8
CUT
10
269
20
278.4
30
0
0
VERTEX
8
CUT
10
263.308
20
278.4
30
0
0
VERTEX
8
CUT
10
263.308
20
275.4
30
0
0
VERTEX
8
CUT
10
257.615
20
275.4
30
0
0
VERTEX
8
CUT
10
257.615
20
278.4
30
0
0
VERTEX
8
CUT
10
251.923
20
278.4
30
0
0
VERTEX
8
CUT
10
251.923
20
275.4
30
0
0
VERTEX
8
CUT
10
246.231
20
275.4
30
0
0
VERTEX
8
CUT
10
246.231
20
278.4
30
0
0
VERTEX
8
CUT
10
240.538
20
278.4
30
0
0
VERTEX
8
CUT
10
240.538
20
275.4
30
0
0
VERTEX
8
CUT
10
234.846
20
275.4
30
0
0
VERTEX
8
CUT
10
234.846
20
278.4
30
0
0
VERTEX
8
CUT
10
229.154
20
278.4
30
0
0
VERTEX
8
CUT
10
229.154
20
275.4
30
0
0
VERTEX
8
CUT
10
223.462
20
275.4
30
0
0
VERTEX
8
CUT
10
223.462
20
278.4
30
0
0
VERTEX
8
CUT
10
217.769
20
278.4
30
0
0
VERTEX
8
CUT
10
217.769
20
275.4
30
0
0
VERTEX
8
CUT
10
212.077
20
275.4
30
0
0
VERTEX
8
CUT
10
212.077
20
278.4
30
0
0
VERTEX
8
CUT
10
206.385
20
278.4
30
0
0
VERTEX
8
CUT
10
206.385
20
275.4
30
0
0
VERTEX
8
CUT
10
200.692
20
275.4
30
0
0
VERTEX
8
CUT
10
200.692
20
278.4
30
0
0
VERTEX
8
CUT
10
195
20
278.4
30
0
0
VERTEX
8
CUT
10
195
20
278.4
30
0
0
VERTEX
8
CUT
10
192
20
278.4
30
0
0
VERTEX
8
CUT
10
192
20
284.067
30
0
0
VERTEX
8
CUT
10
195
20
284.067
30
0
0
VERTEX
8
CUT
10
195
20
289.733
30
0
0
VERTEX
8
CUT
10
192
20
289.733
30
0
0
VERTEX
8
CUT
10
192
20
295.4
30
0
0
VERTEX
8
CUT
10
195
20
295.4
30
0
0
SEQEND
8
CUT
0
CIRCLE
8
CUT
10
202.4
20
298.7
30
0
40
1.65
0
CIRCLE
8
CUT
10
232
20
298.7
30
0
40
1.65
0
CIRCLE
8
CUT
10
261.6
20
298.7
30
0
40
1.65
0
POLYLINE
8
RASTER
66
1
70
1
0
VERTEX
8
RASTER
10
196
20
291.5
30
0
0
VERTEX
8
RASTER
10
268
20
291.5
30
0
0
VERTEX
8
RASTER
10
268
20
290.9
30
0
0
VERTEX
8
RASTER
10
196
20
290.9
30
0
0
SEQEND
8
RASTER
0
POLYLINE
8
RASTER
66
1
70
1
0
VERTEX
8
RASTER
10
196
20
287.3
30
0
0
VERTEX
8
RASTER
10
268
20
287.3
30
0
0
VERTEX
8
RASTER
10
268
20
286.7
30
0
0
VERTEX
8
RASTER
10
196
20
286.7
30
0
0
SEQEND
8
RASTER
0
POLYLINE
8
RASTER
66
1
70
1
0
VERTEX
8
RASTER
10
196
20
283.1
30
0
0
VERTEX
8
RASTER
10
268
20
283.1
30
0
0
VERTEX
8
RASTER
10
268
20
282.5
30
0
0
VERTEX
8
RASTER
10
196
20
282.5
30
0
0
SEQEND
8
RASTER
0
POLYLINE
8
RASTER
66
1
70
1
0
VERTEX
8
RASTER
10
211.5
20
295.4
30
0
0
VERTEX
8
RASTER
10
215.5
20
295.4
30
0
0
VERTEX
8
RASTER
10
215.5
20
278.4
30
0
0
VERTEX
8
RASTER
10
211.5
20
278.4
30
0
0
SEQEND
8
RASTER
0
POLYLINE
8
RASTER
66
1
70
1
0
VERTEX
8
RASTER
10
248.5
20
295.4
30
0
0
VERTEX
8
RASTER
10
252.5
20
295.4
30
0
0
VERTEX
8
RASTER
10
252.5
20
278.4
30
0
0
VERTEX
8
RASTER
10
248.5
20
278.4
30
0
0
SEQEND
8
RASTER
0
CIRCLE
8
RASTER
10
213.5
20
292
30
0
40
0.55
0
CIRCLE
8
RASTER
10
250.5
20
292
30
0
40
0.55
0
CIRCLE
8
RASTER
10
213.5
20
286.9
30
0
40
0.55
0
CIRCLE
8
RASTER
10
250.5
20
286.9
30
0
40
0.55
0
CIRCLE
8
RASTER
10
213.5
20
281.8
30
0
40
0.55
0
CIRCLE
8
RASTER
10
250.5
20
281.8
30
0
40
0.55
0
POLYLINE
8
CUT
66
1
70
1
0
VERTEX
8
CUT
10
7
20
271.4
30
0
0
VERTEX
8
CUT
10
55
20
271.4
30
0
0
VERTEX
8
CUT
10
55
20
271.4
30
0
0
VERTEX
8
CUT
10
55
20
265.733
30
0
0
VERTEX
8
CUT
10
58
20
265.733
30
0
0
VERTEX
8
CUT
10
58
20
260.067
30
0
0
VERTEX
8
CUT
10
55
20
260.067
30
0
0
VERTEX
8
CUT
10
55
20
254.4
30
0
0
VERTEX
8
CUT
10
55
20
254.4
30
0
0
VERTEX
8
CUT
10
55
20
254.4
30
0
0
VERTEX
8
CUT
10
49.667
20
254.4
30
0
0
VERTEX
8
CUT
10
49.667
20
251.4
30
0
0
VERTEX
8
CUT
10
44.333
20
251.4
30
0
0
VERTEX
8
CUT
10
44.333
20
254.4
30
0
0
VERTEX
8
CUT
10
39
20
254.4
30
0
0
VERTEX
8
CUT
10
39
20
251.4
30
0
0
VERTEX
8
CUT
10
33.667
20
251.4
30
0
0
VERTEX
8
CUT
10
33.667
20
254.4
30
0
0
VERTEX
8
CUT
10
28.333
20
254.4
30
0
0
VERTEX
8
CUT
10
28.333
20
251.4
30
0
0
VERTEX
8
CUT
10
23
20
251.4
30
0
0
VERTEX
8
CUT
10
23
20
254.4
30
0
0
VERTEX
8
CUT
10
17.667
20
254.4
30
0
0
VERTEX
8
CUT
10
17.667
20
251.4
30
0
0
VERTEX
8
CUT
10
12.333
20
251.4
30
0
0
VERTEX
8
CUT
10
12.333
20
254.4
30
0
0
VERTEX
8
CUT
10
7
20
254.4
30
0
0
VERTEX
8
CUT
10
7
20
254.4
30
0
0
VERTEX
8
CUT
10
7
20
254.4
30
0
0
VERTEX
8
CUT
10
7
20
260.067
30
0
0
VERTEX
8
CUT
10
4
20
260.067
30
0
0
VERTEX
8
CUT
10
4
20
265.733
30
0
0
VERTEX
8
CUT
10
7
20
265.733
30
0
0
VERTEX
8
CUT
10
7
20
271.4
30
0
0
VERTEX
8
CUT
10
7
20
271.4
30
0
0
SEQEND
8
CUT
0
POLYLINE
8
RASTER
66
1
70
1
0
VERTEX
8
RASTER
10
8
20
267.5
30
0
0
VERTEX
8
RASTER
10
54
20
267.5
30
0
0
VERTEX
8
RASTER
10
54
20
266.9
30
0
0
VERTEX
8
RASTER
10
8
20
266.9
30
0
0
SEQEND
8
RASTER
0
POLYLINE
8
RASTER
66
1
70
1
0
VERTEX
8
RASTER
10
8
20
263.3
30
0
0
VERTEX
8
RASTER
10
54
20
263.3
30
0
0
VERTEX
8
RASTER
10
54
20
262.7
30
0
0
VERTEX
8
RASTER
10
8
20
262.7
30
0
0
SEQEND
8
RASTER
0
POLYLINE
8
RASTER
66
1
70
1
0
VERTEX
8
RASTER
10
8
20
259.1
30
0
0
VERTEX
8
RASTER
10
54
20
259.1
30
0
0
VERTEX
8
RASTER
10
54
20
258.5
30
0
0
VERTEX
8
RASTER
10
8
20
258.5
30
0
0
SEQEND
8
RASTER
0
POLYLINE
8
CUT
66
1
70
1
0
VERTEX
8
CUT
10
65
20
271.4
30
0
0
VERTEX
8
CUT
10
113
20
271.4
30
0
0
VERTEX
8
CUT
10
113
20
271.4
30
0
0
VERTEX
8
CUT
10
113
20
265.733
30
0
0
VERTEX
8
CUT
10
116
20
265.733
30
0
0
VERTEX
8
CUT
10
116
20
260.067
30
0
0
VERTEX
8
CUT
10
113
20
260.067
30
0
0
VERTEX
8
CUT
10
113
20
254.4
30
0
0
VERTEX
8
CUT
10
113
20
254.4
30
0
0
VERTEX
8
CUT
10
113
20
254.4
30
0
0
VERTEX
8
CUT
10
107.667
20
254.4
30
0
0
VERTEX
8
CUT
10
107.667
20
251.4
30
0
0
VERTEX
8
CUT
10
102.333
20
251.4
30
0
0
VERTEX
8
CUT
10
102.333
20
254.4
30
0
0
VERTEX
8
CUT
10
97
20
254.4
30
0
0
VERTEX
8
CUT
10
97
20
251.4
30
0
0
VERTEX
8
CUT
10
91.667
20
251.4
30
0
0
VERTEX
8
CUT
10
91.667
20
254.4
30
0
0
VERTEX
8
CUT
10
86.333
20
254.4
30
0
0
VERTEX
8
CUT
10
86.333
20
251.4
30
0
0
VERTEX
8
CUT
10
81
20
251.4
30
0
0
VERTEX
8
CUT
10
81
20
254.4
30
0
0
VERTEX
8
CUT
10
75.667
20
254.4
30
0
0
VERTEX
8
CUT
10
75.667
20
251.4
30
0
0
VERTEX
8
CUT
10
70.333
20
251.4
30
0
0
VERTEX
8
CUT
10
70.333
20
254.4
30
0
0
VERTEX
8
CUT
10
65
20
254.4
30
0
0
VERTEX
8
CUT
10
65
20
254.4
30
0
0
VERTEX
8
CUT
10
65
20
254.4
30
0
0
VERTEX
8
CUT
10
65
20
260.067
30
0
0
VERTEX
8
CUT
10
62
20
260.067
30
0
0
VERTEX
8
CUT
10
62
20
265.733
30
0
0
VERTEX
8
CUT
10
65
20
265.733
30
0
0
VERTEX
8
CUT
10
65
20
271.4
30
0
0
VERTEX
8
CUT
10
65
20
271.4
30
0
0
SEQEND
8
CUT
0
POLYLINE
8
RASTER
66
1
70
1
0
VERTEX
8
RASTER
10
66
20
267.5
30
0
0
VERTEX
8
RASTER
10
112
20
267.5
30
0
0
VERTEX
8
RASTER
10
112
20
266.9
30
0
0
VERTEX
8
RASTER
10
66
20
266.9
30
0
0
SEQEND
8
RASTER
0
POLYLINE
8
RASTER
66
1
70
1
0
VERTEX
8
RASTER
10
66
20
263.3
30
0
0
VERTEX
8
RASTER
10
112
20
263.3
30
0
0
VERTEX
8
RASTER
10
112
20
262.7
30
0
0
VERTEX
8
RASTER
10
66
20
262.7
30
0
0
SEQEND
8
RASTER
0
POLYLINE
8
RASTER
66
1
70
1
0
VERTEX
8
RASTER
10
66
20
259.1
30
0
0
VERTEX
8
RASTER
10
112
20
259.1
30
0
0
VERTEX
8
RASTER
10
112
20
258.5
30
0
0
VERTEX
8
RASTER
10
66
20
258.5
30
0
0
SEQEND
8
RASTER
0
POLYLINE
8
CUT
66
1
70
1
0
VERTEX
8
CUT
10
120
20
271.4
30
0
0
VERTEX
8
CUT
10
123
20
271.4
30
0
0
VERTEX
8
CUT
10
123
20
271.4
30
0
0
VERTEX
8
CUT
10
128.692
20
271.4
30
0
0
VERTEX
8
CUT
10
128.692
20
268.4
30
0
0
VERTEX
8
CUT
10
134.385
20
268.4
30
0
0
VERTEX
8
CUT
10
134.385
20
271.4
30
0
0
VERTEX
8
CUT
10
140.077
20
271.4
30
0
0
VERTEX
8
CUT
10
140.077
20
268.4
30
0
0
VERTEX
8
CUT
10
145.769
20
268.4
30
0
0
VERTEX
8
CUT
10
145.769
20
271.4
30
0
0
VERTEX
8
CUT
10
151.462
20
271.4
30
0
0
VERTEX
8
CUT
10
151.462
20
268.4
30
0
0
VERTEX
8
CUT
10
157.154
20
268.4
30
0
0
VERTEX
8
CUT
10
157.154
20
271.4
30
0
0
VERTEX
8
CUT
10
162.846
20
271.4
30
0
0
VERTEX
8
CUT
10
162.846
20
268.4
30
0
0
VERTEX
8
CUT
10
168.538
20
268.4
30
0
0
VERTEX
8
CUT
10
168.538
20
271.4
30
0
0
VERTEX
8
CUT
10
174.231
20
271.4
30
0
0
VERTEX
8
CUT
10
174.231
20
268.4
30
0
0
VERTEX
8
CUT
10
179.923
20
268.4
30
0
0
VERTEX
8
CUT
10
179.923
20
271.4
30
0
0
VERTEX
8
CUT
10
185.615
20
271.4
30
0
0
VERTEX
8
CUT
10
185.615
20
268.4
30
0
0
VERTEX
8
CUT
10
191.308
20
268.4
30
0
0
VERTEX
8
CUT
10
191.308
20
271.4
30
0
0
VERTEX
8
CUT
10
197
20
271.4
30
0
0
VERTEX
8
CUT
10
197
20
271.4
30
0
0
VERTEX
8
CUT
10
197
20
271.4
30
0
0
VERTEX
8
CUT
10
200
20
271.4
30
0
0
VERTEX
8
CUT
10
200
20
268.4
30
0
0
VERTEX
8
CUT
10
200
20
268.4
30
0
0
VERTEX
8
CUT
10
200
20
263.067
30
0
0
VERTEX
8
CUT
10
197
20
263.067
30
0
0
VERTEX
8
CUT
10
197
20
257.733
30
0
0
VERTEX
8
CUT
10
200
20
257.733
30
0
0
VERTEX
8
CUT
10
200
20
252.4
30
0
0
VERTEX
8
CUT
10
197
20
252.4
30
0
0
VERTEX
8
CUT
10
197
20
247.067
30
0
0
VERTEX
8
CUT
10
200
20
247.067
30
0
0
VERTEX
8
CUT
10
200
20
241.733
30
0
0
VERTEX
8
CUT
10
197
20
241.733
30
0
0
VERTEX
8
CUT
10
197
20
236.4
30
0
0
VERTEX
8
CUT
10
200
20
236.4
30
0
0
VERTEX
8
CUT
10
200
20
231.067
30
0
0
VERTEX
8
CUT
10
197
20
231.067
30
0
0
VERTEX
8
CUT
10
197
20
225.733
30
0
0
VERTEX
8
CUT
10
200
20
225.733
30
0
0
VERTEX
8
CUT
10
200
20
220.4
30
0
0
VERTEX
8
CUT
10
200
20
220.4
30
0
0
VERTEX
8
CUT
10
200
20
220.4
30
0
0
VERTEX
8
CUT
10
200
20
217.4
30
0
0
VERTEX
8
CUT
10
197
20
217.4
30
0
0
VERTEX
8
CUT
10
197
20
217.4
30
0
0
VERTEX
8
CUT
10
191.308
20
217.4
30
0
0
VERTEX
8
CUT
10
191.308
20
220.4
30
0
0
VERTEX
8
CUT
10
185.615
20
220.4
30
0
0
VERTEX
8
CUT
10
185.615
20
217.4
30
0
0
VERTEX
8
CUT
10
179.923
20
217.4
30
0
0
VERTEX
8
CUT
10
179.923
20
220.4
30
0
0
VERTEX
8
CUT
10
174.231
20
220.4
30
0
0
VERTEX
8
CUT
10
174.231
20
217.4
30
0
0
VERTEX
8
CUT
10
168.538
20
217.4
30
0
0
VERTEX
8
CUT
10
168.538
20
220.4
30
0
0
VERTEX
8
CUT
10
162.846
20
220.4
30
0
0
VERTEX
8
CUT
10
162.846
20
217.4
30
0
0
VERTEX
8
CUT
10
157.154
20
217.4
30
0
0
VERTEX
8
CUT
10
157.154
20
220.4
30
0
0
VERTEX
8
CUT
10
151.462
20
220.4
30
0
0
VERTEX
8
CUT
10
151.462
20
217.4
30
0
0
VERTEX
8
CUT
10
145.769
20
217.4
30
0
0
VERTEX
8
CUT
10
145.769
20
220.4
30
0
0
VERTEX
8
CUT
10
140.077
20
220.4
30
0
0
VERTEX
8
CUT
10
140.077
20
217.4
30
0
0
VERTEX
8
CUT
10
134.385
20
217.4
30
0
0
VERTEX
8
CUT
10
134.385
20
220.4
30
0
0
VERTEX
8
CUT
10
128.692
20
220.4
30
0
0
VERTEX
8
CUT
10
128.692
20
217.4
30
0
0
VERTEX
8
CUT
10
123
20
217.4
30
0
0
VERTEX
8
CUT
10
123
20
217.4
30
0
0
VERTEX
8
CUT
10
123
20
217.4
30
0
0
VERTEX
8
CUT
10
120
20
217.4
30
0
0
VERTEX
8
CUT
10
120
20
220.4
30
0
0
VERTEX
8
CUT
10
120
20
220.4
30
0
0
VERTEX
8
CUT
10
120
20
225.733
30
0
0
VERTEX
8
CUT
10
123
20
225.733
30
0
0
VERTEX
8
CUT
10
123
20
231.067
30
0
0
VERTEX
8
CUT
10
120
20
231.067
30
0
0
VERTEX
8
CUT
10
120
20
236.4
30
0
0
VERTEX
8
CUT
10
123
20
236.4
30
0
0
VERTEX
8
CUT
10
123
20
241.733
30
0
0
VERTEX
8
CUT
10
120
20
241.733
30
0
0
VERTEX
8
CUT
10
120
20
247.067
30
0
0
VERTEX
8
CUT
10
123
20
247.067
30
0
0
VERTEX
8
CUT
10
123
20
252.4
30
0
0
VERTEX
8
CUT
10
120
20
252.4
30
0
0
VERTEX
8
CUT
10
120
20
257.733
30
0
0
VERTEX
8
CUT
10
123
20
257.733
30
0
0
VERTEX
8
CUT
10
123
20
263.067
30
0
0
VERTEX
8
CUT
10
120
20
263.067
30
0
0
VERTEX
8
CUT
10
120
20
268.4
30
0
0
VERTEX
8
CUT
10
120
20
268.4
30
0
0
VERTEX
8
CUT
10
120
20
268.4
30
0
0
SEQEND
8
CUT
0
POLYLINE
8
CUT
66
1
70
1
0
VERTEX
8
CUT
10
207
20
271.4
30
0
0
VERTEX
8
CUT
10
281
20
271.4
30
0
0
VERTEX
8
CUT
10
284
20
271.4
30
0
0
VERTEX
8
CUT
10
284
20
268.4
30
0
0
VERTEX
8
CUT
10
281
20
268.4
30
0
0
VERTEX
8
CUT
10
281
20
265.4
30
0
0
VERTEX
8
CUT
10
284
20
265.4
30
0
0
VERTEX
8
CUT
10
284
20
262.4
30
0
0
VERTEX
8
CUT
10
281
20
262.4
30
0
0
VERTEX
8
CUT
10
281
20
262.4
30
0
0
VERTEX
8
CUT
10
275.308
20
262.4
30
0
0
VERTEX
8
CUT
10
275.308
20
259.4
30
0
0
VERTEX
8
CUT
10
269.615
20
259.4
30
0
0
VERTEX
8
CUT
10
269.615
20
262.4
30
0
0
VERTEX
8
CUT
10
263.923
20
262.4
30
0
0
VERTEX
8
CUT
10
263.923
20
259.4
30
0
0
VERTEX
8
CUT
10
258.231
20
259.4
30
0
0
VERTEX
8
CUT
10
258.231
20
262.4
30
0
0
VERTEX
8
CUT
10
252.538
20
262.4
30
0
0
VERTEX
8
CUT
10
252.538
20
259.4
30
0
0
VERTEX
8
CUT
10
246.846
20
259.4
30
0
0
VERTEX
8
CUT
10
246.846
20
262.4
30
0
0
VERTEX
8
CUT
10
241.154
20
262.4
30
0
0
VERTEX
8
CUT
10
241.154
20
259.4
30
0
0
VERTEX
8
CUT
10
235.462
20
259.4
30
0
0
VERTEX
8
CUT
10
235.462
20
262.4
30
0
0
VERTEX
8
CUT
10
229.769
20
262.4
30
0
0
VERTEX
8
CUT
10
229.769
20
259.4
30
0
0
VERTEX
8
CUT
10
224.077
20
259.4
30
0
0
VERTEX
8
CUT
10
224.077
20
262.4
30
0
0
VERTEX
8
CUT
10
218.385
20
262.4
30
0
0
VERTEX
8
CUT
10
218.385
20
259.4
30
0
0
VERTEX
8
CUT
10
212.692
20
259.4
30
0
0
VERTEX
8
CUT
10
212.692
20
262.4
30
0
0
VERTEX
8
CUT
10
207
20
262.4
30
0
0
VERTEX
8
CUT
10
207
20
262.4
30
0
0
VERTEX
8
CUT
10
204
20
262.4
30
0
0
VERTEX
8
CUT
10
204
20
265.4
30
0
0
VERTEX
8
CUT
10
207
20
265.4
30
0
0
VERTEX
8
CUT
10
207
20
268.4
30
0
0
VERTEX
8
CUT
10
204
20
268.4
30
0
0
VERTEX
8
CUT
10
204
20
271.4
30
0
0
VERTEX
8
CUT
10
207
20
271.4
30
0
0
SEQEND
8
CUT
0
POLYLINE
8
RASTER
66
1
70
1
0
VERTEX
8
RASTER
10
208
20
268.2
30
0
0
VERTEX
8
RASTER
10
280
20
268.2
30
0
0
VERTEX
8
RASTER
10
280
20
267.6
30
0
0
VERTEX
8
RASTER
10
208
20
267.6
30
0
0
SEQEND
8
RASTER
0
POLYLINE
8
RASTER
66
1
70
1
0
VERTEX
8
RASTER
10
208
20
264.7
30
0
0
VERTEX
8
RASTER
10
280
20
264.7
30
0
0
VERTEX
8
RASTER
10
280
20
264.1
30
0
0
VERTEX
8
RASTER
10
208
20
264.1
30
0
0
SEQEND
8
RASTER
0
POLYLINE
8
CUT
66
1
70
1
0
VERTEX
8
CUT
10
4
20
207
30
0
0
VERTEX
8
CUT
10
4
20
207
30
0
0
VERTEX
8
CUT
10
18.8
20
207
30
0
0
VERTEX
8
CUT
10
18.8
20
207
30
0
0
VERTEX
8
CUT
10
18.8
20
210.3
30
0
0
VERTEX
8
CUT
10
18.8
20
210.3
30
0
0
VERTEX
8
CUT
10
18.906
20
211.102
30
0
0
VERTEX
8
CUT
10
19.215
20
211.85
30
0
0
VERTEX
8
CUT
10
19.708
20
212.492
30
0
0
VERTEX
8
CUT
10
20.35
20
212.985
30
0
0
VERTEX
8
CUT
10
21.098
20
213.294
30
0
0
VERTEX
8
CUT
10
21.9
20
213.4
30
0
0
VERTEX
8
CUT
10
30.5
20
213.4
30
0
0
VERTEX
8
CUT
10
31.302
20
213.294
30
0
0
VERTEX
8
CUT
10
32.05
20
212.985
30
0
0
VERTEX
8
CUT
10
32.692
20
212.492
30
0
0
VERTEX
8
CUT
10
33.185
20
211.85
30
0
0
VERTEX
8
CUT
10
33.494
20
211.102
30
0
0
VERTEX
8
CUT
10
33.6
20
210.3
30
0
0
VERTEX
8
CUT
10
33.6
20
210.3
30
0
0
VERTEX
8
CUT
10
33.6
20
207
30
0
0
VERTEX
8
CUT
10
33.6
20
207
30
0
0
VERTEX
8
CUT
10
48.4
20
207
30
0
0
VERTEX
8
CUT
10
48.4
20
207
30
0
0
VERTEX
8
CUT
10
48.4
20
210.3
30
0
0
VERTEX
8
CUT
10
48.4
20
210.3
30
0
0
VERTEX
8
CUT
10
48.506
20
211.102
30
0
0
VERTEX
8
CUT
10
48.815
20
211.85
30
0
0
VERTEX
8
CUT
10
49.308
20
212.492
30
0
0
VERTEX
8
CUT
10
49.95
20
212.985
30
0
0
VERTEX
8
CUT
10
50.698
20
213.294
30
0
0
VERTEX
8
CUT
10
51.5
20
213.4
30
0
0
VERTEX
8
CUT
10
60.1
20
213.4
30
0
0
VERTEX
8
CUT
10
60.902
20
213.294
30
0
0
VERTEX
8
CUT
10
61.65
20
212.985
30
0
0
VERTEX
8
CUT
10
62.292
20
212.492
30
0
0
VERTEX
8
CUT
10
62.785
20
211.85
30
0
0
VERTEX
8
CUT
10
63.094
20
211.102
30
0
0
VERTEX
8
CUT
10
63.2
20
210.3
30
0
0
VERTEX
8
CUT
10
63.2
20
210.3
30
0
0
VERTEX
8
CUT
10
63.2
20
207
30
0
0
VERTEX
8
CUT
10
63.2
20
207
30
0
0
VERTEX
8
CUT
10
78
20
207
30
0
0
VERTEX
8
CUT
10
78
20
207
30
0
0
VERTEX
8
CUT
10
78
20
206.6
30
0
0
VERTEX
8
CUT
10
78
20
206.6
30
0
0
VERTEX
8
CUT
10
72.308
20
206.6
30
0
0
VERTEX
8
CUT
10
72.308
20
203.6
30
0
0
VERTEX
8
CUT
10
66.615
20
203.6
30
0
0
VERTEX
8
CUT
10
66.615
20
206.6
30
0
0
VERTEX
8
CUT
10
60.923
20
206.6
30
0
0
VERTEX
8
CUT
10
60.923
20
203.6
30
0
0
VERTEX
8
CUT
10
55.231
20
203.6
30
0
0
VERTEX
8
CUT
10
55.231
20
206.6
30
0
0
VERTEX
8
CUT
10
49.538
20
206.6
30
0
0
VERTEX
8
CUT
10
49.538
20
203.6
30
0
0
VERTEX
8
CUT
10
43.846
20
203.6
30
0
0
VERTEX
8
CUT
10
43.846
20
206.6
30
0
0
VERTEX
8
CUT
10
38.154
20
206.6
30
0
0
VERTEX
8
CUT
10
38.154
20
203.6
30
0
0
VERTEX
8
CUT
10
32.462
20
203.6
30
0
0
VERTEX
8
CUT
10
32.462
20
206.6
30
0
0
VERTEX
8
CUT
10
26.769
20
206.6
30
0
0
VERTEX
8
CUT
10
26.769
20
203.6
30
0
0
VERTEX
8
CUT
10
21.077
20
203.6
30
0
0
VERTEX
8
CUT
10
21.077
20
206.6
30
0
0
VERTEX
8
CUT
10
15.385
20
206.6
30
0
0
VERTEX
8
CUT
10
15.385
20
203.6
30
0
0
VERTEX
8
CUT
10
9.692
20
203.6
30
0
0
VERTEX
8
CUT
10
9.692
20
206.6
30
0
0
VERTEX
8
CUT
10
4
20
206.6
30
0
0
VERTEX
8
CUT
10
4
20
206.6
30
0
0
VERTEX
8
CUT
10
4
20
206.6
30
0
0
SEQEND
8
CUT
0
CIRCLE
8
CUT
10
26.2
20
210.3
30
0
40
1.65
0
CIRCLE
8
CUT
10
55.8
20
210.3
30
0
40
1.65
0
POLYLINE
8
CUT
66
1
70
1
0
VERTEX
8
CUT
10
85
20
213.4
30
0
0
VERTEX
8
CUT
10
133
20
213.4
30
0
0
VERTEX
8
CUT
10
133
20
213.4
30
0
0
VERTEX
8
CUT
10
133
20
210.4
30
0
0
VERTEX
8
CUT
10
136
20
210.4
30
0
0
VERTEX
8
CUT
10
136
20
207.4
30
0
0
VERTEX
8
CUT
10
133
20
207.4
30
0
0
VERTEX
8
CUT
10
133
20
204.4
30
0
0
VERTEX
8
CUT
10
133
20
204.4
30
0
0
VERTEX
8
CUT
10
133
20
204.4
30
0
0
VERTEX
8
CUT
10
127.667
20
204.4
30
0
0
VERTEX
8
CUT
10
127.667
20
201.4
30
0
0
VERTEX
8
CUT
10
122.333
20
201.4
30
0
0
VERTEX
8
CUT
10
122.333
20
204.4
30
0
0
VERTEX
8
CUT
10
117
20
204.4
30
0
0
VERTEX
8
CUT
10
117
20
201.4
30
0
0
VERTEX
8
CUT
10
111.667
20
201.4
30
0
0
VERTEX
8
CUT
10
111.667
20
204.4
30
0
0
VERTEX
8
CUT
10
106.333
20
204.4
30
0
0
VERTEX
8
CUT
10
106.333
20
201.4
30
0
0
VERTEX
8
CUT
10
101
20
201.4
30
0
0
VERTEX
8
CUT
10
101
20
204.4
30
0
0
VERTEX
8
CUT
10
95.667
20
204.4
30
0
0
VERTEX
8
CUT
10
95.667
20
201.4
30
0
0
VERTEX
8
CUT
10
90.333
20
201.4
30
0
0
VERTEX
8
CUT
10
90.333
20
204.4
30
0
0
VERTEX
8
CUT
10
85
20
204.4
30
0
0
VERTEX
8
CUT
10
85
20
204.4
30
0
0
VERTEX
8
CUT
10
85
20
204.4
30
0
0
VERTEX
8
CUT
10
85
20
207.4
30
0
0
VERTEX
8
CUT
10
82
20
207.4
30
0
0
VERTEX
8
CUT
10
82
20
210.4
30
0
0
VERTEX
8
CUT
10
85
20
210.4
30
0
0
VERTEX
8
CUT
10
85
20
213.4
30
0
0
VERTEX
8
CUT
10
85
20
213.4
30
0
0
SEQEND
8
CUT
0
POLYLINE
8
RASTER
66
1
70
1
0
VERTEX
8
RASTER
10
86
20
210
30
0
0
VERTEX
8
RASTER
10
132
20
210
30
0
0
VERTEX
8
RASTER
10
132
20
209.6
30
0
0
VERTEX
8
RASTER
10
86
20
209.6
30
0
0
SEQEND
8
RASTER
0
POLYLINE
8
CUT
66
1
70
1
0
VERTEX
8
CUT
10
143
20
213.4
30
0
0
VERTEX
8
CUT
10
191
20
213.4
30
0
0
VERTEX
8
CUT
10
191
20
213.4
30
0
0
VERTEX
8
CUT
10
191
20
210.4
30
0
0
VERTEX
8
CUT
10
194
20
210.4
30
0
0
VERTEX
8
CUT
10
194
20
207.4
30
0
0
VERTEX
8
CUT
10
191
20
207.4
30
0
0
VERTEX
8
CUT
10
191
20
204.4
30
0
0
VERTEX
8
CUT
10
191
20
204.4
30
0
0
VERTEX
8
CUT
10
191
20
204.4
30
0
0
VERTEX
8
CUT
10
185.667
20
204.4
30
0
0
VERTEX
8
CUT
10
185.667
20
201.4
30
0
0
VERTEX
8
CUT
10
180.333
20
201.4
30
0
0
VERTEX
8
CUT
10
180.333
20
204.4
30
0
0
VERTEX
8
CUT
10
175
20
204.4
30
0
0
VERTEX
8
CUT
10
175
20
201.4
30
0
0
VERTEX
8
CUT
10
169.667
20
201.4
30
0
0
VERTEX
8
CUT
10
169.667
20
204.4
30
0
0
VERTEX
8
CUT
10
164.333
20
204.4
30
0
0
VERTEX
8
CUT
10
164.333
20
201.4
30
0
0
VERTEX
8
CUT
10
159
20
201.4
30
0
0
VERTEX
8
CUT
10
159
20
204.4
30
0
0
VERTEX
8
CUT
10
153.667
20
204.4
30
0
0
VERTEX
8
CUT
10
153.667
20
201.4
30
0
0
VERTEX
8
CUT
10
148.333
20
201.4
30
0
0
VERTEX
8
CUT
10
148.333
20
204.4
30
0
0
VERTEX
8
CUT
10
143
20
204.4
30
0
0
VERTEX
8
CUT
10
143
20
204.4
30
0
0
VERTEX
8
CUT
10
143
20
204.4
30
0
0
VERTEX
8
CUT
10
143
20
207.4
30
0
0
VERTEX
8
CUT
10
140
20
207.4
30
0
0
VERTEX
8
CUT
10
140
20
210.4
30
0
0
VERTEX
8
CUT
10
143
20
210.4
30
0
0
VERTEX
8
CUT
10
143
20
213.4
30
0
0
VERTEX
8
CUT
10
143
20
213.4
30
0
0
SEQEND
8
CUT
0
POLYLINE
8
RASTER
66
1
70
1
0
VERTEX
8
RASTER
10
144
20
210
30
0
0
VERTEX
8
RASTER
10
190
20
210
30
0
0
VERTEX
8
RASTER
10
190
20
209.6
30
0
0
VERTEX
8
RASTER
10
144
20
209.6
30
0
0
SEQEND
8
RASTER
0
POLYLINE
8
CUT
66
1
70
1
0
VERTEX
8
CUT
10
198
20
213.4
30
0
0
VERTEX
8
CUT
10
201
20
213.4
30
0
0
VERTEX
8
CUT
10
201
20
213.4
30
0
0
VERTEX
8
CUT
10
206.692
20
213.4
30
0
0
VERTEX
8
CUT
10
206.692
20
210.4
30
0
0
VERTEX
8
CUT
10
212.385
20
210.4
30
0
0
VERTEX
8
CUT
10
212.385
20
213.4
30
0
0
VERTEX
8
CUT
10
218.077
20
213.4
30
0
0
VERTEX
8
CUT
10
218.077
20
210.4
30
0
0
VERTEX
8
CUT
10
223.769
20
210.4
30
0
0
VERTEX
8
CUT
10
223.769
20
213.4
30
0
0
VERTEX
8
CUT
10
229.462
20
213.4
30
0
0
VERTEX
8
CUT
10
229.462
20
210.4
30
0
0
VERTEX
8
CUT
10
235.154
20
210.4
30
0
0
VERTEX
8
CUT
10
235.154
20
213.4
30
0
0
VERTEX
8
CUT
10
240.846
20
213.4
30
0
0
VERTEX
8
CUT
10
240.846
20
210.4
30
0
0
VERTEX
8
CUT
10
246.538
20
210.4
30
0
0
VERTEX
8
CUT
10
246.538
20
213.4
30
0
0
VERTEX
8
CUT
10
252.231
20
213.4
30
0
0
VERTEX
8
CUT
10
252.231
20
210.4
30
0
0
VERTEX
8
CUT
10
257.923
20
210.4
30
0
0
VERTEX
8
CUT
10
257.923
20
213.4
30
0
0
VERTEX
8
CUT
10
263.615
20
213.4
30
0
0
VERTEX
8
CUT
10
263.615
20
210.4
30
0
0
VERTEX
8
CUT
10
269.308
20
210.4
30
0
0
VERTEX
8
CUT
10
269.308
20
213.4
30
0
0
VERTEX
8
CUT
10
275
20
213.4
30
0
0
VERTEX
8
CUT
10
275
20
213.4
30
0
0
VERTEX
8
CUT
10
275
20
213.4
30
0
0
VERTEX
8
CUT
10
278
20
213.4
30
0
0
VERTEX
8
CUT
10
278
20
210.4
30
0
0
VERTEX
8
CUT
10
278
20
210.4
30
0
0
VERTEX
8
CUT
10
278
20
205.067
30
0
0
VERTEX
8
CUT
10
275
20
205.067
30
0
0
VERTEX
8
CUT
10
275
20
199.733
30
0
0
VERTEX
8
CUT
10
278
20
199.733
30
0
0
VERTEX
8
CUT
10
278
20
194.4
30
0
0
VERTEX
8
CUT
10
275
20
194.4
30
0
0
VERTEX
8
CUT
10
275
20
189.067
30
0
0
VERTEX
8
CUT
10
278
20
189.067
30
0
0
VERTEX
8
CUT
10
278
20
183.733
30
0
0
VERTEX
8
CUT
10
275
20
183.733
30
0
0
VERTEX
8
CUT
10
275
20
178.4
30
0
0
VERTEX
8
CUT
10
278
20
178.4
30
0
0
VERTEX
8
CUT
10
278
20
173.067
30
0
0
VERTEX
8
CUT
10
275
20
173.067
30
0
0
VERTEX
8
CUT
10
275
20
167.733
30
0
0
VERTEX
8
CUT
10
278
20
167.733
30
0
0
VERTEX
8
CUT
10
278
20
162.4
30
0
0
VERTEX
8
CUT
10
278
20
162.4
30
0
0
VERTEX
8
CUT
10
278
20
162.4
30
0
0
VERTEX
8
CUT
10
278
20
159.4
30
0
0
VERTEX
8
CUT
10
275
20
159.4
30
0
0
VERTEX
8
CUT
10
275
20
159.4
30
0
0
VERTEX
8
CUT
10
269.308
20
159.4
30
0
0
VERTEX
8
CUT
10
269.308
20
162.4
30
0
0
VERTEX
8
CUT
10
263.615
20
162.4
30
0
0
VERTEX
8
CUT
10
263.615
20
159.4
30
0
0
VERTEX
8
CUT
10
257.923
20
159.4
30
0
0
VERTEX
8
CUT
10
257.923
20
162.4
30
0
0
VERTEX
8
CUT
10
252.231
20
162.4
30
0
0
VERTEX
8
CUT
10
252.231
20
159.4
30
0
0
VERTEX
8
CUT
10
246.538
20
159.4
30
0
0
VERTEX
8
CUT
10
246.538
20
162.4
30
0
0
VERTEX
8
CUT
10
240.846
20
162.4
30
0
0
VERTEX
8
CUT
10
240.846
20
159.4
30
0
0
VERTEX
8
CUT
10
235.154
20
159.4
30
0
0
VERTEX
8
CUT
10
235.154
20
162.4
30
0
0
VERTEX
8
CUT
10
229.462
20
162.4
30
0
0
VERTEX
8
CUT
10
229.462
20
159.4
30
0
0
VERTEX
8
CUT
10
223.769
20
159.4
30
0
0
VERTEX
8
CUT
10
223.769
20
162.4
30
0
0
VERTEX
8
CUT
10
218.077
20
162.4
30
0
0
VERTEX
8
CUT
10
218.077
20
159.4
30
0
0
VERTEX
8
CUT
10
212.385
20
159.4
30
0
0
VERTEX
8
CUT
10
212.385
20
162.4
30
0
0
VERTEX
8
CUT
10
206.692
20
162.4
30
0
0
VERTEX
8
CUT
10
206.692
20
159.4
30
0
0
VERTEX
8
CUT
10
201
20
159.4
30
0
0
VERTEX
8
CUT
10
201
20
159.4
30
0
0
VERTEX
8
CUT
10
201
20
159.4
30
0
0
VERTEX
8
CUT
10
198
20
159.4
30
0
0
VERTEX
8
CUT
10
198
20
162.4
30
0
0
VERTEX
8
CUT
10
198
20
162.4
30
0
0
VERTEX
8
CUT
10
198
20
167.733
30
0
0
VERTEX
8
CUT
10
201
20
167.733
30
0
0
VERTEX
8
CUT
10
201
20
173.067
30
0
0
VERTEX
8
CUT
10
198
20
173.067
30
0
0
VERTEX
8
CUT
10
198
20
178.4
30
0
0
VERTEX
8
CUT
10
201
20
178.4
30
0
0
VERTEX
8
CUT
10
201
20
183.733
30
0
0
VERTEX
8
CUT
10
198
20
183.733
30
0
0
VERTEX
8
CUT
10
198
20
189.067
30
0
0
VERTEX
8
CUT
10
201
20
189.067
30
0
0
VERTEX
8
CUT
10
201
20
194.4
30
0
0
VERTEX
8
CUT
10
198
20
194.4
30
0
0
VERTEX
8
CUT
10
198
20
199.733
30
0
0
VERTEX
8
CUT
10
201
20
199.733
30
0
0
VERTEX
8
CUT
10
201
20
205.067
30
0
0
VERTEX
8
CUT
10
198
20
205.067
30
0
0
VERTEX
8
CUT
10
198
20
210.4
30
0
0
VERTEX
8
CUT
10
198
20
210.4
30
0
0
VERTEX
8
CUT
10
198
20
210.4
30
0
0
SEQEND
8
CUT
0
POLYLINE
8
RASTER
66
1
70
1
0
VERTEX
8
RASTER
10
202
20
205.7
30
0
0
VERTEX
8
RASTER
10
274
20
205.7
30
0
0
VERTEX
8
RASTER
10
274
20
205.1
30
0
0
VERTEX
8
RASTER
10
202
20
205.1
30
0
0
SEQEND
8
RASTER
0
POLYLINE
8
RASTER
66
1
70
1
0
VERTEX
8
RASTER
10
202
20
200.7
30
0
0
VERTEX
8
RASTER
10
274
20
200.7
30
0
0
VERTEX
8
RASTER
10
274
20
200.1
30
0
0
VERTEX
8
RASTER
10
202
20
200.1
30
0
0
SEQEND
8
RASTER
0
POLYLINE
8
RASTER
66
1
70
1
0
VERTEX
8
RASTER
10
202
20
195.7
30
0
0
VERTEX
8
RASTER
10
274
20
195.7
30
0
0
VERTEX
8
RASTER
10
274
20
195.1
30
0
0
VERTEX
8
RASTER
10
202
20
195.1
30
0
0
SEQEND
8
RASTER
0
POLYLINE
8
RASTER
66
1
70
1
0
VERTEX
8
RASTER
10
202
20
190.7
30
0
0
VERTEX
8
RASTER
10
274
20
190.7
30
0
0
VERTEX
8
RASTER
10
274
20
190.1
30
0
0
VERTEX
8
RASTER
10
202
20
190.1
30
0
0
SEQEND
8
RASTER
0
POLYLINE
8
RASTER
66
1
70
1
0
VERTEX
8
RASTER
10
202
20
185.7
30
0
0
VERTEX
8
RASTER
10
274
20
185.7
30
0
0
VERTEX
8
RASTER
10
274
20
185.1
30
0
0
VERTEX
8
RASTER
10
202
20
185.1
30
0
0
SEQEND
8
RASTER
0
POLYLINE
8
RASTER
66
1
70
1
0
VERTEX
8
RASTER
10
202
20
180.7
30
0
0
VERTEX
8
RASTER
10
274
20
180.7
30
0
0
VERTEX
8
RASTER
10
274
20
180.1
30
0
0
VERTEX
8
RASTER
10
202
20
180.1
30
0
0
SEQEND
8
RASTER
0
POLYLINE
8
RASTER
66
1
70
1
0
VERTEX
8
RASTER
10
202
20
175.7
30
0
0
VERTEX
8
RASTER
10
274
20
175.7
30
0
0
VERTEX
8
RASTER
10
274
20
175.1
30
0
0
VERTEX
8
RASTER
10
202
20
175.1
30
0
0
SEQEND
8
RASTER
0
POLYLINE
8
RASTER
66
1
70
1
0
VERTEX
8
RASTER
10
202
20
170.7
30
0
0
VERTEX
8
RASTER
10
274
20
170.7
30
0
0
VERTEX
8
RASTER
10
274
20
170.1
30
0
0
VERTEX
8
RASTER
10
202
20
170.1
30
0
0
SEQEND
8
RASTER
0
POLYLINE
8
RASTER
66
1
70
1
0
VERTEX
8
RASTER
10
202
20
165.7
30
0
0
VERTEX
8
RASTER
10
274
20
165.7
30
0
0
VERTEX
8
RASTER
10
274
20
165.1
30
0
0
VERTEX
8
RASTER
10
202
20
165.1
30
0
0
SEQEND
8
RASTER
0
POLYLINE
8
RASTER
66
1
70
1
0
VERTEX
8
RASTER
10
216
20
213.4
30
0
0
VERTEX
8
RASTER
10
220
20
213.4
30
0
0
VERTEX
8
RASTER
10
220
20
159.4
30
0
0
VERTEX
8
RASTER
10
216
20
159.4
30
0
0
SEQEND
8
RASTER
0
POLYLINE
8
RASTER
66
1
70
1
0
VERTEX
8
RASTER
10
256
20
213.4
30
0
0
VERTEX
8
RASTER
10
260
20
213.4
30
0
0
VERTEX
8
RASTER
10
260
20
159.4
30
0
0
VERTEX
8
RASTER
10
256
20
159.4
30
0
0
SEQEND
8
RASTER
0
CIRCLE
8
RASTER
10
218
20
202.6
30
0
40
0.55
0
CIRCLE
8
RASTER
10
258
20
202.6
30
0
40
0.55
0
CIRCLE
8
RASTER
10
218
20
186.4
30
0
40
0.55
0
CIRCLE
8
RASTER
10
258
20
186.4
30
0
40
0.55
0
CIRCLE
8
RASTER
10
218
20
170.2
30
0
40
0.55
0
CIRCLE
8
RASTER
10
258
20
170.2
30
0
40
0.55
0
CIRCLE
8
RASTER
10
232.95
20
189.45
30
0
40
0.32
0
CIRCLE
8
RASTER
10
234.05
20
189.45
30
0
40
0.32
0
CIRCLE
8
RASTER
10
235.15
20
189.45
30
0
40
0.32
0
CIRCLE
8
RASTER
10
236.25
20
189.45
30
0
40
0.32
0
CIRCLE
8
RASTER
10
237.35
20
189.45
30
0
40
0.32
0
CIRCLE
8
RASTER
10
238.45
20
189.45
30
0
40
0.32
0
CIRCLE
8
RASTER
10
239.55
20
189.45
30
0
40
0.32
0
CIRCLE
8
RASTER
10
240.65
20
189.45
30
0
40
0.32
0
CIRCLE
8
RASTER
10
241.75
20
189.45
30
0
40
0.32
0
CIRCLE
8
RASTER
10
242.85
20
189.45
30
0
40
0.32
0
CIRCLE
8
RASTER
10
232.95
20
188.35
30
0
40
0.32
0
CIRCLE
8
RASTER
10
234.05
20
188.35
30
0
40
0.32
0
CIRCLE
8
RASTER
10
235.15
20
188.35
30
0
40
0.32
0
CIRCLE
8
RASTER
10
236.25
20
188.35
30
0
40
0.32
0
CIRCLE
8
RASTER
10
237.35
20
188.35
30
0
40
0.32
0
CIRCLE
8
RASTER
10
238.45
20
188.35
30
0
40
0.32
0
CIRCLE
8
RASTER
10
239.55
20
188.35
30
0
40
0.32
0
CIRCLE
8
RASTER
10
240.65
20
188.35
30
0
40
0.32
0
CIRCLE
8
RASTER
10
241.75
20
188.35
30
0
40
0.32
0
CIRCLE
8
RASTER
10
242.85
20
188.35
30
0
40
0.32
0
CIRCLE
8
RASTER
10
232.95
20
187.25
30
0
40
0.32
0
CIRCLE
8
RASTER
10
234.05
20
187.25
30
0
40
0.32
0
CIRCLE
8
RASTER
10
235.15
20
187.25
30
0
40
0.32
0
CIRCLE
8
RASTER
10
236.25
20
187.25
30
0
40
0.32
0
CIRCLE
8
RASTER
10
237.35
20
187.25
30
0
40
0.32
0
CIRCLE
8
RASTER
10
238.45
20
187.25
30
0
40
0.32
0
CIRCLE
8
RASTER
10
239.55
20
187.25
30
0
40
0.32
0
CIRCLE
8
RASTER
10
240.65
20
187.25
30
0
40
0.32
0
CIRCLE
8
RASTER
10
241.75
20
187.25
30
0
40
0.32
0
CIRCLE
8
RASTER
10
242.85
20
187.25
30
0
40
0.32
0
CIRCLE
8
RASTER
10
232.95
20
186.15
30
0
40
0.32
0
CIRCLE
8
RASTER
10
234.05
20
186.15
30
0
40
0.32
0
CIRCLE
8
RASTER
10
235.15
20
186.15
30
0
40
0.32
0
CIRCLE
8
RASTER
10
236.25
20
186.15
30
0
40
0.32
0
CIRCLE
8
RASTER
10
237.35
20
186.15
30
0
40
0.32
0
CIRCLE
8
RASTER
10
238.45
20
186.15
30
0
40
0.32
0
CIRCLE
8
RASTER
10
239.55
20
186.15
30
0
40
0.32
0
CIRCLE
8
RASTER
10
240.65
20
186.15
30
0
40
0.32
0
CIRCLE
8
RASTER
10
241.75
20
186.15
30
0
40
0.32
0
CIRCLE
8
RASTER
10
242.85
20
186.15
30
0
40
0.32
0
CIRCLE
8
RASTER
10
232.95
20
185.05
30
0
40
0.32
0
CIRCLE
8
RASTER
10
234.05
20
185.05
30
0
40
0.32
0
CIRCLE
8
RASTER
10
235.15
20
185.05
30
0
40
0.32
0
CIRCLE
8
RASTER
10
236.25
20
185.05
30
0
40
0.32
0
CIRCLE
8
RASTER
10
237.35
20
185.05
30
0
40
0.32
0
CIRCLE
8
RASTER
10
238.45
20
185.05
30
0
40
0.32
0
CIRCLE
8
RASTER
10
239.55
20
185.05
30
0
40
0.32
0
CIRCLE
8
RASTER
10
240.65
20
185.05
30
0
40
0.32
0
CIRCLE
8
RASTER
10
241.75
20
185.05
30
0
40
0.32
0
CIRCLE
8
RASTER
10
242.85
20
185.05
30
0
40
0.32
0
CIRCLE
8
RASTER
10
232.95
20
183.95
30
0
40
0.32
0
CIRCLE
8
RASTER
10
234.05
20
183.95
30
0
40
0.32
0
CIRCLE
8
RASTER
10
235.15
20
183.95
30
0
40
0.32
0
CIRCLE
8
RASTER
10
236.25
20
183.95
30
0
40
0.32
0
CIRCLE
8
RASTER
10
237.35
20
183.95
30
0
40
0.32
0
CIRCLE
8
RASTER
10
238.45
20
183.95
30
0
40
0.32
0
CIRCLE
8
RASTER
10
239.55
20
183.95
30
0
40
0.32
0
CIRCLE
8
RASTER
10
240.65
20
183.95
30
0
40
0.32
0
CIRCLE
8
RASTER
10
241.75
20
183.95
30
0
40
0.32
0
CIRCLE
8
RASTER
10
242.85
20
183.95
30
0
40
0.32
0
POLYLINE
8
CUT
66
1
70
1
0
VERTEX
8
CUT
10
4
20
155
30
0
0
VERTEX
8
CUT
10
4.006
20
155.094
30
0
0
VERTEX
8
CUT
10
4.025
20
155.175
30
0
0
VERTEX
8
CUT
10
4.056
20
155.244
30
0
0
VERTEX
8
CUT
10
4.1
20
155.3
30
0
0
VERTEX
8
CUT
10
4.156
20
155.344
30
0
0
VERTEX
8
CUT
10
4.225
20
155.375
30
0
0
VERTEX
8
CUT
10
4.306
20
155.394
30
0
0
VERTEX
8
CUT
10
4.4
20
155.4
30
0
0
VERTEX
8
CUT
10
51.6
20
155.4
30
0
0
VERTEX
8
CUT
10
51.694
20
155.394
30
0
0
VERTEX
8
CUT
10
51.775
20
155.375
30
0
0
VERTEX
8
CUT
10
51.844
20
155.344
30
0
0
VERTEX
8
CUT
10
51.9
20
155.3
30
0
0
VERTEX
8
CUT
10
51.944
20
155.244
30
0
0
VERTEX
8
CUT
10
51.975
20
155.175
30
0
0
VERTEX
8
CUT
10
51.994
20
155.094
30
0
0
VERTEX
8
CUT
10
52
20
155
30
0
0
VERTEX
8
CUT
10
52
20
150.8
30
0
0
VERTEX
8
CUT
10
51.994
20
150.706
30
0
0
VERTEX
8
CUT
10
51.975
20
150.625
30
0
0
VERTEX
8
CUT
10
51.944
20
150.556
30
0
0
VERTEX
8
CUT
10
51.9
20
150.5
30
0
0
VERTEX
8
CUT
10
51.844
20
150.456
30
0
0
VERTEX
8
CUT
10
51.775
20
150.425
30
0
0
VERTEX
8
CUT
10
51.694
20
150.406
30
0
0
VERTEX
8
CUT
10
51.6
20
150.4
30
0
0
VERTEX
8
CUT
10
4.4
20
150.4
30
0
0
VERTEX
8
CUT
10
4.306
20
150.406
30
0
0
VERTEX
8
CUT
10
4.225
20
150.425
30
0
0
VERTEX
8
CUT
10
4.156
20
150.456
30
0
0
VERTEX
8
CUT
10
4.1
20
150.5
30
0
0
VERTEX
8
CUT
10
4.056
20
150.556
30
0
0
VERTEX
8
CUT
10
4.025
20
150.625
30
0
0
VERTEX
8
CUT
10
4.006
20
150.706
30
0
0
VERTEX
8
CUT
10
4
20
150.8
30
0
0
SEQEND
8
CUT
0
POLYLINE
8
CUT
66
1
70
1
0
VERTEX
8
CUT
10
56
20
155
30
0
0
VERTEX
8
CUT
10
56.006
20
155.094
30
0
0
VERTEX
8
CUT
10
56.025
20
155.175
30
0
0
VERTEX
8
CUT
10
56.056
20
155.244
30
0
0
VERTEX
8
CUT
10
56.1
20
155.3
30
0
0
VERTEX
8
CUT
10
56.156
20
155.344
30
0
0
VERTEX
8
CUT
10
56.225
20
155.375
30
0
0
VERTEX
8
CUT
10
56.306
20
155.394
30
0
0
VERTEX
8
CUT
10
56.4
20
155.4
30
0
0
VERTEX
8
CUT
10
103.6
20
155.4
30
0
0
VERTEX
8
CUT
10
103.694
20
155.394
30
0
0
VERTEX
8
CUT
10
103.775
20
155.375
30
0
0
VERTEX
8
CUT
10
103.844
20
155.344
30
0
0
VERTEX
8
CUT
10
103.9
20
155.3
30
0
0
VERTEX
8
CUT
10
103.944
20
155.244
30
0
0
VERTEX
8
CUT
10
103.975
20
155.175
30
0
0
VERTEX
8
CUT
10
103.994
20
155.094
30
0
0
VERTEX
8
CUT
10
104
20
155
30
0
0
VERTEX
8
CUT
10
104
20
150.8
30
0
0
VERTEX
8
CUT
10
103.994
20
150.706
30
0
0
VERTEX
8
CUT
10
103.975
20
150.625
30
0
0
VERTEX
8
CUT
10
103.944
20
150.556
30
0
0
VERTEX
8
CUT
10
103.9
20
150.5
30
0
0
VERTEX
8
CUT
10
103.844
20
150.456
30
0
0
VERTEX
8
CUT
10
103.775
20
150.425
30
0
0
VERTEX
8
CUT
10
103.694
20
150.406
30
0
0
VERTEX
8
CUT
10
103.6
20
150.4
30
0
0
VERTEX
8
CUT
10
56.4
20
150.4
30
0
0
VERTEX
8
CUT
10
56.306
20
150.406
30
0
0
VERTEX
8
CUT
10
56.225
20
150.425
30
0
0
VERTEX
8
CUT
10
56.156
20
150.456
30
0
0
VERTEX
8
CUT
10
56.1
20
150.5
30
0
0
VERTEX
8
CUT
10
56.056
20
150.556
30
0
0
VERTEX
8
CUT
10
56.025
20
150.625
30
0
0
VERTEX
8
CUT
10
56.006
20
150.706
30
0
0
VERTEX
8
CUT
10
56
20
150.8
30
0
0
SEQEND
8
CUT
0
POLYLINE
8
CUT
66
1
70
1
0
VERTEX
8
CUT
10
111
20
155.4
30
0
0
VERTEX
8
CUT
10
185
20
155.4
30
0
0
VERTEX
8
CUT
10
188
20
155.4
30
0
0
VERTEX
8
CUT
10
188
20
149.733
30
0
0
VERTEX
8
CUT
10
185
20
149.733
30
0
0
VERTEX
8
CUT
10
185
20
144.067
30
0
0
VERTEX
8
CUT
10
188
20
144.067
30
0
0
VERTEX
8
CUT
10
188
20
138.4
30
0
0
VERTEX
8
CUT
10
185
20
138.4
30
0
0
VERTEX
8
CUT
10
185
20
138.4
30
0
0
VERTEX
8
CUT
10
179.308
20
138.4
30
0
0
VERTEX
8
CUT
10
179.308
20
135.4
30
0
0
VERTEX
8
CUT
10
173.615
20
135.4
30
0
0
VERTEX
8
CUT
10
173.615
20
138.4
30
0
0
VERTEX
8
CUT
10
167.923
20
138.4
30
0
0
VERTEX
8
CUT
10
167.923
20
135.4
30
0
0
VERTEX
8
CUT
10
162.231
20
135.4
30
0
0
VERTEX
8
CUT
10
162.231
20
138.4
30
0
0
VERTEX
8
CUT
10
156.538
20
138.4
30
0
0
VERTEX
8
CUT
10
156.538
20
135.4
30
0
0
VERTEX
8
CUT
10
150.846
20
135.4
30
0
0
VERTEX
8
CUT
10
150.846
20
138.4
30
0
0
VERTEX
8
CUT
10
145.154
20
138.4
30
0
0
VERTEX
8
CUT
10
145.154
20
135.4
30
0
0
VERTEX
8
CUT
10
139.462
20
135.4
30
0
0
VERTEX
8
CUT
10
139.462
20
138.4
30
0
0
VERTEX
8
CUT
10
133.769
20
138.4
30
0
0
VERTEX
8
CUT
10
133.769
20
135.4
30
0
0
VERTEX
8
CUT
10
128.077
20
135.4
30
0
0
VERTEX
8
CUT
10
128.077
20
138.4
30
0
0
VERTEX
8
CUT
10
122.385
20
138.4
30
0
0
VERTEX
8
CUT
10
122.385
20
135.4
30
0
0
VERTEX
8
CUT
10
116.692
20
135.4
30
0
0
VERTEX
8
CUT
10
116.692
20
138.4
30
0
0
VERTEX
8
CUT
10
111
20
138.4
30
0
0
VERTEX
8
CUT
10
111
20
138.4
30
0
0
VERTEX
8
CUT
10
108
20
138.4
30
0
0
VERTEX
8
CUT
10
108
20
144.067
30
0
0
VERTEX
8
CUT
10
111
20
144.067
30
0
0
VERTEX
8
CUT
10
111
20
149.733
30
0
0
VERTEX
8
CUT
10
108
20
149.733
30
0
0
VERTEX
8
CUT
10
108
20
155.4
30
0
0
VERTEX
8
CUT
10
111
20
155.4
30
0
0
SEQEND
8
CUT
0
POLYLINE
8
RASTER
66
1
70
1
0
VERTEX
8
RASTER
10
112
20
151.5
30
0
0
VERTEX
8
RASTER
10
184
20
151.5
30
0
0
VERTEX
8
RASTER
10
184
20
150.9
30
0
0
VERTEX
8
RASTER
10
112
20
150.9
30
0
0
SEQEND
8
RASTER
0
POLYLINE
8
RASTER
66
1
70
1
0
VERTEX
8
RASTER
10
112
20
147.3
30
0
0
VERTEX
8
RASTER
10
184
20
147.3
30
0
0
VERTEX
8
RASTER
10
184
20
146.7
30
0
0
VERTEX
8
RASTER
10
112
20
146.7
30
0
0
SEQEND
8
RASTER
0
POLYLINE
8
RASTER
66
1
70
1
0
VERTEX
8
RASTER
10
112
20
143.1
30
0
0
VERTEX
8
RASTER
10
184
20
143.1
30
0
0
VERTEX
8
RASTER
10
184
20
142.5
30
0
0
VERTEX
8
RASTER
10
112
20
142.5
30
0
0
SEQEND
8
RASTER
0
POLYLINE
8
RASTER
66
1
70
1
0
VERTEX
8
RASTER
10
127.5
20
155.4
30
0
0
VERTEX
8
RASTER
10
131.5
20
155.4
30
0
0
VERTEX
8
RASTER
10
131.5
20
138.4
30
0
0
VERTEX
8
RASTER
10
127.5
20
138.4
30
0
0
SEQEND
8
RASTER
0
POLYLINE
8
RASTER
66
1
70
1
0
VERTEX
8
RASTER
10
164.5
20
155.4
30
0
0
VERTEX
8
RASTER
10
168.5
20
155.4
30
0
0
VERTEX
8
RASTER
10
168.5
20
138.4
30
0
0
VERTEX
8
RASTER
10
164.5
20
138.4
30
0
0
SEQEND
8
RASTER
0
CIRCLE
8
RASTER
10
129.5
20
152
30
0
40
0.55
0
CIRCLE
8
RASTER
10
166.5
20
152
30
0
40
0.55
0
CIRCLE
8
RASTER
10
129.5
20
146.9
30
0
40
0.55
0
CIRCLE
8
RASTER
10
166.5
20
146.9
30
0
40
0.55
0
CIRCLE
8
RASTER
10
129.5
20
141.8
30
0
40
0.55
0
CIRCLE
8
RASTER
10
166.5
20
141.8
30
0
40
0.55
0
POLYLINE
8
RASTER
66
1
70
1
0
VERTEX
8
RASTER
10
144
20
149.7
30
0
0
VERTEX
8
RASTER
10
144.019
20
149.981
30
0
0
VERTEX
8
RASTER
10
144.075
20
150.225
30
0
0
VERTEX
8
RASTER
10
144.169
20
150.431
30
0
0
VERTEX
8
RASTER
10
144.3
20
150.6
30
0
0
VERTEX
8
RASTER
10
144.469
20
150.731
30
0
0
VERTEX
8
RASTER
10
144.675
20
150.825
30
0
0
VERTEX
8
RASTER
10
144.919
20
150.881
30
0
0
VERTEX
8
RASTER
10
145.2
20
150.9
30
0
0
VERTEX
8
RASTER
10
150.8
20
150.9
30
0
0
VERTEX
8
RASTER
10
151.081
20
150.881
30
0
0
VERTEX
8
RASTER
10
151.325
20
150.825
30
0
0
VERTEX
8
RASTER
10
151.531
20
150.731
30
0
0
VERTEX
8
RASTER
10
151.7
20
150.6
30
0
0
VERTEX
8
RASTER
10
151.831
20
150.431
30
0
0
VERTEX
8
RASTER
10
151.925
20
150.225
30
0
0
VERTEX
8
RASTER
10
151.981
20
149.981
30
0
0
VERTEX
8
RASTER
10
152
20
149.7
30
0
0
VERTEX
8
RASTER
10
152
20
144.1
30
0
0
VERTEX
8
RASTER
10
151.981
20
143.819
30
0
0
VERTEX
8
RASTER
10
151.925
20
143.575
30
0
0
VERTEX
8
RASTER
10
151.831
20
143.369
30
0
0
VERTEX
8
RASTER
10
151.7
20
143.2
30
0
0
VERTEX
8
RASTER
10
151.531
20
143.069
30
0
0
VERTEX
8
RASTER
10
151.325
20
142.975
30
0
0
VERTEX
8
RASTER
10
151.081
20
142.919
30
0
0
VERTEX
8
RASTER
10
150.8
20
142.9
30
0
0
VERTEX
8
RASTER
10
145.2
20
142.9
30
0
0
VERTEX
8
RASTER
10
144.919
20
142.919
30
0
0
VERTEX
8
RASTER
10
144.675
20
142.975
30
0
0
VERTEX
8
RASTER
10
144.469
20
143.069
30
0
0
VERTEX
8
RASTER
10
144.3
20
143.2
30
0
0
VERTEX
8
RASTER
10
144.169
20
143.369
30
0
0
VERTEX
8
RASTER
10
144.075
20
143.575
30
0
0
VERTEX
8
RASTER
10
144.019
20
143.819
30
0
0
VERTEX
8
RASTER
10
144
20
144.1
30
0
0
SEQEND
8
RASTER
0
CIRCLE
8
RASTER
10
148
20
147.9
30
0
40
1.1
0
POLYLINE
8
RASTER
66
1
70
1
0
VERTEX
8
RASTER
10
147.3
20
147.3
30
0
0
VERTEX
8
RASTER
10
147
20
144.3
30
0
0
VERTEX
8
RASTER
10
149
20
144.3
30
0
0
VERTEX
8
RASTER
10
148.7
20
147.3
30
0
0
VERTEX
8
RASTER
10
147.3
20
147.3
30
0
0
SEQEND
8
RASTER
0
POLYLINE
8
CUT
66
1
70
1
0
VERTEX
8
CUT
10
195
20
149
30
0
0
VERTEX
8
CUT
10
195
20
149
30
0
0
VERTEX
8
CUT
10
195
20
152.3
30
0
0
VERTEX
8
CUT
10
195
20
152.3
30
0
0
VERTEX
8
CUT
10
195.106
20
153.102
30
0
0
VERTEX
8
CUT
10
195.415
20
153.85
30
0
0
VERTEX
8
CUT
10
195.908
20
154.492
30
0
0
VERTEX
8
CUT
10
196.55
20
154.985
30
0
0
VERTEX
8
CUT
10
197.298
20
155.294
30
0
0
VERTEX
8
CUT
10
198.1
20
155.4
30
0
0
VERTEX
8
CUT
10
206.7
20
155.4
30
0
0
VERTEX
8
CUT
10
207.502
20
155.294
30
0
0
VERTEX
8
CUT
10
208.25
20
154.985
30
0
0
VERTEX
8
CUT
10
208.892
20
154.492
30
0
0
VERTEX
8
CUT
10
209.385
20
153.85
30
0
0
VERTEX
8
CUT
10
209.694
20
153.102
30
0
0
VERTEX
8
CUT
10
209.8
20
152.3
30
0
0
VERTEX
8
CUT
10
209.8
20
152.3
30
0
0
VERTEX
8
CUT
10
209.8
20
149
30
0
0
VERTEX
8
CUT
10
209.8
20
149
30
0
0
VERTEX
8
CUT
10
224.6
20
149
30
0
0
VERTEX
8
CUT
10
224.6
20
149
30
0
0
VERTEX
8
CUT
10
224.6
20
152.3
30
0
0
VERTEX
8
CUT
10
224.6
20
152.3
30
0
0
VERTEX
8
CUT
10
224.706
20
153.102
30
0
0
VERTEX
8
CUT
10
225.015
20
153.85
30
0
0
VERTEX
8
CUT
10
225.508
20
154.492
30
0
0
VERTEX
8
CUT
10
226.15
20
154.985
30
0
0
VERTEX
8
CUT
10
226.898
20
155.294
30
0
0
VERTEX
8
CUT
10
227.7
20
155.4
30
0
0
VERTEX
8
CUT
10
236.3
20
155.4
30
0
0
VERTEX
8
CUT
10
237.102
20
155.294
30
0
0
VERTEX
8
CUT
10
237.85
20
154.985
30
0
0
VERTEX
8
CUT
10
238.492
20
154.492
30
0
0
VERTEX
8
CUT
10
238.985
20
153.85
30
0
0
VERTEX
8
CUT
10
239.294
20
153.102
30
0
0
VERTEX
8
CUT
10
239.4
20
152.3
30
0
0
VERTEX
8
CUT
10
239.4
20
152.3
30
0
0
VERTEX
8
CUT
10
239.4
20
149
30
0
0
VERTEX
8
CUT
10
239.4
20
149
30
0
0
VERTEX
8
CUT
10
254.2
20
149
30
0
0
VERTEX
8
CUT
10
254.2
20
149
30
0
0
VERTEX
8
CUT
10
254.2
20
152.3
30
0
0
VERTEX
8
CUT
10
254.2
20
152.3
30
0
0
VERTEX
8
CUT
10
254.306
20
153.102
30
0
0
VERTEX
8
CUT
10
254.615
20
153.85
30
0
0
VERTEX
8
CUT
10
255.108
20
154.492
30
0
0
VERTEX
8
CUT
10
255.75
20
154.985
30
0
0
VERTEX
8
CUT
10
256.498
20
155.294
30
0
0
VERTEX
8
CUT
10
257.3
20
155.4
30
0
0
VERTEX
8
CUT
10
265.9
20
155.4
30
0
0
VERTEX
8
CUT
10
266.702
20
155.294
30
0
0
VERTEX
8
CUT
10
267.45
20
154.985
30
0
0
VERTEX
8
CUT
10
268.092
20
154.492
30
0
0
VERTEX
8
CUT
10
268.585
20
153.85
30
0
0
VERTEX
8
CUT
10
268.894
20
153.102
30
0
0
VERTEX
8
CUT
10
269
20
152.3
30
0
0
VERTEX
8
CUT
10
269
20
152.3
30
0
0
VERTEX
8
CUT
10
269
20
149
30
0
0
VERTEX
8
CUT
10
269
20
149
30
0
0
VERTEX
8
CUT
10
272
20
149
30
0
0
VERTEX
8
CUT
10
272
20
143.333
30
0
0
VERTEX
8
CUT
10
269
20
143.333
30
0
0
VERTEX
8
CUT
10
269
20
137.667
30
0
0
VERTEX
8
CUT
10
272
20
137.667
30
0
0
VERTEX
8
CUT
10
272
20
132
30
0
0
VERTEX
8
CUT
10
269
20
132
30
0
0
VERTEX
8
CUT
10
269
20
132
30
0
0
VERTEX
8
CUT
10
263.308
20
132
30
0
0
VERTEX
8
CUT
10
263.308
20
129
30
0
0
VERTEX
8
CUT
10
257.615
20
129
30
0
0
VERTEX
8
CUT
10
257.615
20
132
30
0
0
VERTEX
8
CUT
10
251.923
20
132
30
0
0
VERTEX
8
CUT
10
251.923
20
129
30
0
0
VERTEX
8
CUT
10
246.231
20
129
30
0
0
VERTEX
8
CUT
10
246.231
20
132
30
0
0
VERTEX
8
CUT
10
240.538
20
132
30
0
0
VERTEX
8
CUT
10
240.538
20
129
30
0
0
VERTEX
8
CUT
10
234.846
20
129
30
0
0
VERTEX
8
CUT
10
234.846
20
132
30
0
0
VERTEX
8
CUT
10
229.154
20
132
30
0
0
VERTEX
8
CUT
10
229.154
20
129
30
0
0
VERTEX
8
CUT
10
223.462
20
129
30
0
0
VERTEX
8
CUT
10
223.462
20
132
30
0
0
VERTEX
8
CUT
10
217.769
20
132
30
0
0
VERTEX
8
CUT
10
217.769
20
129
30
0
0
VERTEX
8
CUT
10
212.077
20
129
30
0
0
VERTEX
8
CUT
10
212.077
20
132
30
0
0
VERTEX
8
CUT
10
206.385
20
132
30
0
0
VERTEX
8
CUT
10
206.385
20
129
30
0
0
VERTEX
8
CUT
10
200.692
20
129
30
0
0
VERTEX
8
CUT
10
200.692
20
132
30
0
0
VERTEX
8
CUT
10
195
20
132
30
0
0
VERTEX
8
CUT
10
195
20
132
30
0
0
VERTEX
8
CUT
10
192
20
132
30
0
0
VERTEX
8
CUT
10
192
20
137.667
30
0
0
VERTEX
8
CUT
10
195
20
137.667
30
0
0
VERTEX
8
CUT
10
195
20
143.333
30
0
0
VERTEX
8
CUT
10
192
20
143.333
30
0
0
VERTEX
8
CUT
10
192
20
149
30
0
0
VERTEX
8
CUT
10
195
20
149
30
0
0
SEQEND
8
CUT
0
CIRCLE
8
CUT
10
202.4
20
152.3
30
0
40
1.65
0
CIRCLE
8
CUT
10
232
20
152.3
30
0
40
1.65
0
CIRCLE
8
CUT
10
261.6
20
152.3
30
0
40
1.65
0
POLYLINE
8
RASTER
66
1
70
1
0
VERTEX
8
RASTER
10
196
20
145.1
30
0
0
VERTEX
8
RASTER
10
268
20
145.1
30
0
0
VERTEX
8
RASTER
10
268
20
144.5
30
0
0
VERTEX
8
RASTER
10
196
20
144.5
30
0
0
SEQEND
8
RASTER
0
POLYLINE
8
RASTER
66
1
70
1
0
VERTEX
8
RASTER
10
196
20
140.9
30
0
0
VERTEX
8
RASTER
10
268
20
140.9
30
0
0
VERTEX
8
RASTER
10
268
20
140.3
30
0
0
VERTEX
8
RASTER
10
196
20
140.3
30
0
0
SEQEND
8
RASTER
0
POLYLINE
8
RASTER
66
1
70
1
0
VERTEX
8
RASTER
10
196
20
136.7
30
0
0
VERTEX
8
RASTER
10
268
20
136.7
30
0
0
VERTEX
8
RASTER
10
268
20
136.1
30
0
0
VERTEX
8
RASTER
10
196
20
136.1
30
0
0
SEQEND
8
RASTER
0
POLYLINE
8
RASTER
66
1
70
1
0
VERTEX
8
RASTER
10
211.5
20
149
30
0
0
VERTEX
8
RASTER
10
215.5
20
149
30
0
0
VERTEX
8
RASTER
10
215.5
20
132
30
0
0
VERTEX
8
RASTER
10
211.5
20
132
30
0
0
SEQEND
8
RASTER
0
POLYLINE
8
RASTER
66
1
70
1
0
VERTEX
8
RASTER
10
248.5
20
149
30
0
0
VERTEX
8
RASTER
10
252.5
20
149
30
0
0
VERTEX
8
RASTER
10
252.5
20
132
30
0
0
VERTEX
8
RASTER
10
248.5
20
132
30
0
0
SEQEND
8
RASTER
0
CIRCLE
8
RASTER
10
213.5
20
145.6
30
0
40
0.55
0
CIRCLE
8
RASTER
10
250.5
20
145.6
30
0
40
0.55
0
CIRCLE
8
RASTER
10
213.5
20
140.5
30
0
40
0.55
0
CIRCLE
8
RASTER
10
250.5
20
140.5
30
0
40
0.55
0
CIRCLE
8
RASTER
10
213.5
20
135.4
30
0
40
0.55
0
CIRCLE
8
RASTER
10
250.5
20
135.4
30
0
40
0.55
0
POLYLINE
8
CUT
66
1
70
1
0
VERTEX
8
CUT
10
7
20
125
30
0
0
VERTEX
8
CUT
10
55
20
125
30
0
0
VERTEX
8
CUT
10
55
20
125
30
0
0
VERTEX
8
CUT
10
55
20
119.333
30
0
0
VERTEX
8
CUT
10
58
20
119.333
30
0
0
VERTEX
8
CUT
10
58
20
113.667
30
0
0
VERTEX
8
CUT
10
55
20
113.667
30
0
0
VERTEX
8
CUT
10
55
20
108
30
0
0
VERTEX
8
CUT
10
55
20
108
30
0
0
VERTEX
8
CUT
10
55
20
108
30
0
0
VERTEX
8
CUT
10
49.667
20
108
30
0
0
VERTEX
8
CUT
10
49.667
20
105
30
0
0
VERTEX
8
CUT
10
44.333
20
105
30
0
0
VERTEX
8
CUT
10
44.333
20
108
30
0
0
VERTEX
8
CUT
10
39
20
108
30
0
0
VERTEX
8
CUT
10
39
20
105
30
0
0
VERTEX
8
CUT
10
33.667
20
105
30
0
0
VERTEX
8
CUT
10
33.667
20
108
30
0
0
VERTEX
8
CUT
10
28.333
20
108
30
0
0
VERTEX
8
CUT
10
28.333
20
105
30
0
0
VERTEX
8
CUT
10
23
20
105
30
0
0
VERTEX
8
CUT
10
23
20
108
30
0
0
VERTEX
8
CUT
10
17.667
20
108
30
0
0
VERTEX
8
CUT
10
17.667
20
105
30
0
0
VERTEX
8
CUT
10
12.333
20
105
30
0
0
VERTEX
8
CUT
10
12.333
20
108
30
0
0
VERTEX
8
CUT
10
7
20
108
30
0
0
VERTEX
8
CUT
10
7
20
108
30
0
0
VERTEX
8
CUT
10
7
20
108
30
0
0
VERTEX
8
CUT
10
7
20
113.667
30
0
0
VERTEX
8
CUT
10
4
20
113.667
30
0
0
VERTEX
8
CUT
10
4
20
119.333
30
0
0
VERTEX
8
CUT
10
7
20
119.333
30
0
0
VERTEX
8
CUT
10
7
20
125
30
0
0
VERTEX
8
CUT
10
7
20
125
30
0
0
SEQEND
8
CUT
0
POLYLINE
8
RASTER
66
1
70
1
0
VERTEX
8
RASTER
10
8
20
121.1
30
0
0
VERTEX
8
RASTER
10
54
20
121.1
30
0
0
VERTEX
8
RASTER
10
54
20
120.5
30
0
0
VERTEX
8
RASTER
10
8
20
120.5
30
0
0
SEQEND
8
RASTER
0
POLYLINE
8
RASTER
66
1
70
1
0
VERTEX
8
RASTER
10
8
20
116.9
30
0
0
VERTEX
8
RASTER
10
54
20
116.9
30
0
0
VERTEX
8
RASTER
10
54
20
116.3
30
0
0
VERTEX
8
RASTER
10
8
20
116.3
30
0
0
SEQEND
8
RASTER
0
POLYLINE
8
RASTER
66
1
70
1
0
VERTEX
8
RASTER
10
8
20
112.7
30
0
0
VERTEX
8
RASTER
10
54
20
112.7
30
0
0
VERTEX
8
RASTER
10
54
20
112.1
30
0
0
VERTEX
8
RASTER
10
8
20
112.1
30
0
0
SEQEND
8
RASTER
0
POLYLINE
8
CUT
66
1
70
1
0
VERTEX
8
CUT
10
65
20
125
30
0
0
VERTEX
8
CUT
10
113
20
125
30
0
0
VERTEX
8
CUT
10
113
20
125
30
0
0
VERTEX
8
CUT
10
113
20
119.333
30
0
0
VERTEX
8
CUT
10
116
20
119.333
30
0
0
VERTEX
8
CUT
10
116
20
113.667
30
0
0
VERTEX
8
CUT
10
113
20
113.667
30
0
0
VERTEX
8
CUT
10
113
20
108
30
0
0
VERTEX
8
CUT
10
113
20
108
30
0
0
VERTEX
8
CUT
10
113
20
108
30
0
0
VERTEX
8
CUT
10
107.667
20
108
30
0
0
VERTEX
8
CUT
10
107.667
20
105
30
0
0
VERTEX
8
CUT
10
102.333
20
105
30
0
0
VERTEX
8
CUT
10
102.333
20
108
30
0
0
VERTEX
8
CUT
10
97
20
108
30
0
0
VERTEX
8
CUT
10
97
20
105
30
0
0
VERTEX
8
CUT
10
91.667
20
105
30
0
0
VERTEX
8
CUT
10
91.667
20
108
30
0
0
VERTEX
8
CUT
10
86.333
20
108
30
0
0
VERTEX
8
CUT
10
86.333
20
105
30
0
0
VERTEX
8
CUT
10
81
20
105
30
0
0
VERTEX
8
CUT
10
81
20
108
30
0
0
VERTEX
8
CUT
10
75.667
20
108
30
0
0
VERTEX
8
CUT
10
75.667
20
105
30
0
0
VERTEX
8
CUT
10
70.333
20
105
30
0
0
VERTEX
8
CUT
10
70.333
20
108
30
0
0
VERTEX
8
CUT
10
65
20
108
30
0
0
VERTEX
8
CUT
10
65
20
108
30
0
0
VERTEX
8
CUT
10
65
20
108
30
0
0
VERTEX
8
CUT
10
65
20
113.667
30
0
0
VERTEX
8
CUT
10
62
20
113.667
30
0
0
VERTEX
8
CUT
10
62
20
119.333
30
0
0
VERTEX
8
CUT
10
65
20
119.333
30
0
0
VERTEX
8
CUT
10
65
20
125
30
0
0
VERTEX
8
CUT
10
65
20
125
30
0
0
SEQEND
8
CUT
0
POLYLINE
8
RASTER
66
1
70
1
0
VERTEX
8
RASTER
10
66
20
121.1
30
0
0
VERTEX
8
RASTER
10
112
20
121.1
30
0
0
VERTEX
8
RASTER
10
112
20
120.5
30
0
0
VERTEX
8
RASTER
10
66
20
120.5
30
0
0
SEQEND
8
RASTER
0
POLYLINE
8
RASTER
66
1
70
1
0
VERTEX
8
RASTER
10
66
20
116.9
30
0
0
VERTEX
8
RASTER
10
112
20
116.9
30
0
0
VERTEX
8
RASTER
10
112
20
116.3
30
0
0
VERTEX
8
RASTER
10
66
20
116.3
30
0
0
SEQEND
8
RASTER
0
POLYLINE
8
RASTER
66
1
70
1
0
VERTEX
8
RASTER
10
66
20
112.7
30
0
0
VERTEX
8
RASTER
10
112
20
112.7
30
0
0
VERTEX
8
RASTER
10
112
20
112.1
30
0
0
VERTEX
8
RASTER
10
66
20
112.1
30
0
0
SEQEND
8
RASTER
0
POLYLINE
8
CUT
66
1
70
1
0
VERTEX
8
CUT
10
120
20
125
30
0
0
VERTEX
8
CUT
10
123
20
125
30
0
0
VERTEX
8
CUT
10
123
20
125
30
0
0
VERTEX
8
CUT
10
128.692
20
125
30
0
0
VERTEX
8
CUT
10
128.692
20
122
30
0
0
VERTEX
8
CUT
10
134.385
20
122
30
0
0
VERTEX
8
CUT
10
134.385
20
125
30
0
0
VERTEX
8
CUT
10
140.077
20
125
30
0
0
VERTEX
8
CUT
10
140.077
20
122
30
0
0
VERTEX
8
CUT
10
145.769
20
122
30
0
0
VERTEX
8
CUT
10
145.769
20
125
30
0
0
VERTEX
8
CUT
10
151.462
20
125
30
0
0
VERTEX
8
CUT
10
151.462
20
122
30
0
0
VERTEX
8
CUT
10
157.154
20
122
30
0
0
VERTEX
8
CUT
10
157.154
20
125
30
0
0
VERTEX
8
CUT
10
162.846
20
125
30
0
0
VERTEX
8
CUT
10
162.846
20
122
30
0
0
VERTEX
8
CUT
10
168.538
20
122
30
0
0
VERTEX
8
CUT
10
168.538
20
125
30
0
0
VERTEX
8
CUT
10
174.231
20
125
30
0
0
VERTEX
8
CUT
10
174.231
20
122
30
0
0
VERTEX
8
CUT
10
179.923
20
122
30
0
0
VERTEX
8
CUT
10
179.923
20
125
30
0
0
VERTEX
8
CUT
10
185.615
20
125
30
0
0
VERTEX
8
CUT
10
185.615
20
122
30
0
0
VERTEX
8
CUT
10
191.308
20
122
30
0
0
VERTEX
8
CUT
10
191.308
20
125
30
0
0
VERTEX
8
CUT
10
197
20
125
30
0
0
VERTEX
8
CUT
10
197
20
125
30
0
0
VERTEX
8
CUT
10
197
20
125
30
0
0
VERTEX
8
CUT
10
200
20
125
30
0
0
VERTEX
8
CUT
10
200
20
122
30
0
0
VERTEX
8
CUT
10
200
20
122
30
0
0
VERTEX
8
CUT
10
200
20
116.667
30
0
0
VERTEX
8
CUT
10
197
20
116.667
30
0
0
VERTEX
8
CUT
10
197
20
111.333
30
0
0
VERTEX
8
CUT
10
200
20
111.333
30
0
0
VERTEX
8
CUT
10
200
20
106
30
0
0
VERTEX
8
CUT
10
197
20
106
30
0
0
VERTEX
8
CUT
10
197
20
100.667
30
0
0
VERTEX
8
CUT
10
200
20
100.667
30
0
0
VERTEX
8
CUT
10
200
20
95.333
30
0
0
VERTEX
8
CUT
10
197
20
95.333
30
0
0
VERTEX
8
CUT
10
197
20
90
30
0
0
VERTEX
8
CUT
10
200
20
90
30
0
0
VERTEX
8
CUT
10
200
20
84.667
30
0
0
VERTEX
8
CUT
10
197
20
84.667
30
0
0
VERTEX
8
CUT
10
197
20
79.333
30
0
0
VERTEX
8
CUT
10
200
20
79.333
30
0
0
VERTEX
8
CUT
10
200
20
74
30
0
0
VERTEX
8
CUT
10
200
20
74
30
0
0
VERTEX
8
CUT
10
200
20
74
30
0
0
VERTEX
8
CUT
10
200
20
71
30
0
0
VERTEX
8
CUT
10
197
20
71
30
0
0
VERTEX
8
CUT
10
197
20
71
30
0
0
VERTEX
8
CUT
10
191.308
20
71
30
0
0
VERTEX
8
CUT
10
191.308
20
74
30
0
0
VERTEX
8
CUT
10
185.615
20
74
30
0
0
VERTEX
8
CUT
10
185.615
20
71
30
0
0
VERTEX
8
CUT
10
179.923
20
71
30
0
0
VERTEX
8
CUT
10
179.923
20
74
30
0
0
VERTEX
8
CUT
10
174.231
20
74
30
0
0
VERTEX
8
CUT
10
174.231
20
71
30
0
0
VERTEX
8
CUT
10
168.538
20
71
30
0
0
VERTEX
8
CUT
10
168.538
20
74
30
0
0
VERTEX
8
CUT
10
162.846
20
74
30
0
0
VERTEX
8
CUT
10
162.846
20
71
30
0
0
VERTEX
8
CUT
10
157.154
20
71
30
0
0
VERTEX
8
CUT
10
157.154
20
74
30
0
0
VERTEX
8
CUT
10
151.462
20
74
30
0
0
VERTEX
8
CUT
10
151.462
20
71
30
0
0
VERTEX
8
CUT
10
145.769
20
71
30
0
0
VERTEX
8
CUT
10
145.769
20
74
30
0
0
VERTEX
8
CUT
10
140.077
20
74
30
0
0
VERTEX
8
CUT
10
140.077
20
71
30
0
0
VERTEX
8
CUT
10
134.385
20
71
30
0
0
VERTEX
8
CUT
10
134.385
20
74
30
0
0
VERTEX
8
CUT
10
128.692
20
74
30
0
0
VERTEX
8
CUT
10
128.692
20
71
30
0
0
VERTEX
8
CUT
10
123
20
71
30
0
0
VERTEX
8
CUT
10
123
20
71
30
0
0
VERTEX
8
CUT
10
123
20
71
30
0
0
VERTEX
8
CUT
10
120
20
71
30
0
0
VERTEX
8
CUT
10
120
20
74
30
0
0
VERTEX
8
CUT
10
120
20
74
30
0
0
VERTEX
8
CUT
10
120
20
79.333
30
0
0
VERTEX
8
CUT
10
123
20
79.333
30
0
0
VERTEX
8
CUT
10
123
20
84.667
30
0
0
VERTEX
8
CUT
10
120
20
84.667
30
0
0
VERTEX
8
CUT
10
120
20
90
30
0
0
VERTEX
8
CUT
10
123
20
90
30
0
0
VERTEX
8
CUT
10
123
20
95.333
30
0
0
VERTEX
8
CUT
10
120
20
95.333
30
0
0
VERTEX
8
CUT
10
120
20
100.667
30
0
0
VERTEX
8
CUT
10
123
20
100.667
30
0
0
VERTEX
8
CUT
10
123
20
106
30
0
0
VERTEX
8
CUT
10
120
20
106
30
0
0
VERTEX
8
CUT
10
120
20
111.333
30
0
0
VERTEX
8
CUT
10
123
20
111.333
30
0
0
VERTEX
8
CUT
10
123
20
116.667
30
0
0
VERTEX
8
CUT
10
120
20
116.667
30
0
0
VERTEX
8
CUT
10
120
20
122
30
0
0
VERTEX
8
CUT
10
120
20
122
30
0
0
VERTEX
8
CUT
10
120
20
122
30
0
0
SEQEND
8
CUT
0
POLYLINE
8
CUT
66
1
70
1
0
VERTEX
8
CUT
10
207
20
125
30
0
0
VERTEX
8
CUT
10
281
20
125
30
0
0
VERTEX
8
CUT
10
284
20
125
30
0
0
VERTEX
8
CUT
10
284
20
122
30
0
0
VERTEX
8
CUT
10
281
20
122
30
0
0
VERTEX
8
CUT
10
281
20
119
30
0
0
VERTEX
8
CUT
10
284
20
119
30
0
0
VERTEX
8
CUT
10
284
20
116
30
0
0
VERTEX
8
CUT
10
281
20
116
30
0
0
VERTEX
8
CUT
10
281
20
116
30
0
0
VERTEX
8
CUT
10
275.308
20
116
30
0
0
VERTEX
8
CUT
10
275.308
20
113
30
0
0
VERTEX
8
CUT
10
269.615
20
113
30
0
0
VERTEX
8
CUT
10
269.615
20
116
30
0
0
VERTEX
8
CUT
10
263.923
20
116
30
0
0
VERTEX
8
CUT
10
263.923
20
113
30
0
0
VERTEX
8
CUT
10
258.231
20
113
30
0
0
VERTEX
8
CUT
10
258.231
20
116
30
0
0
VERTEX
8
CUT
10
252.538
20
116
30
0
0
VERTEX
8
CUT
10
252.538
20
113
30
0
0
VERTEX
8
CUT
10
246.846
20
113
30
0
0
VERTEX
8
CUT
10
246.846
20
116
30
0
0
VERTEX
8
CUT
10
241.154
20
116
30
0
0
VERTEX
8
CUT
10
241.154
20
113
30
0
0
VERTEX
8
CUT
10
235.462
20
113
30
0
0
VERTEX
8
CUT
10
235.462
20
116
30
0
0
VERTEX
8
CUT
10
229.769
20
116
30
0
0
VERTEX
8
CUT
10
229.769
20
113
30
0
0
VERTEX
8
CUT
10
224.077
20
113
30
0
0
VERTEX
8
CUT
10
224.077
20
116
30
0
0
VERTEX
8
CUT
10
218.385
20
116
30
0
0
VERTEX
8
CUT
10
218.385
20
113
30
0
0
VERTEX
8
CUT
10
212.692
20
113
30
0
0
VERTEX
8
CUT
10
212.692
20
116
30
0
0
VERTEX
8
CUT
10
207
20
116
30
0
0
VERTEX
8
CUT
10
207
20
116
30
0
0
VERTEX
8
CUT
10
204
20
116
30
0
0
VERTEX
8
CUT
10
204
20
119
30
0
0
VERTEX
8
CUT
10
207
20
119
30
0
0
VERTEX
8
CUT
10
207
20
122
30
0
0
VERTEX
8
CUT
10
204
20
122
30
0
0
VERTEX
8
CUT
10
204
20
125
30
0
0
VERTEX
8
CUT
10
207
20
125
30
0
0
SEQEND
8
CUT
0
POLYLINE
8
RASTER
66
1
70
1
0
VERTEX
8
RASTER
10
208
20
121.8
30
0
0
VERTEX
8
RASTER
10
280
20
121.8
30
0
0
VERTEX
8
RASTER
10
280
20
121.2
30
0
0
VERTEX
8
RASTER
10
208
20
121.2
30
0
0
SEQEND
8
RASTER
0
POLYLINE
8
RASTER
66
1
70
1
0
VERTEX
8
RASTER
10
208
20
118.3
30
0
0
VERTEX
8
RASTER
10
280
20
118.3
30
0
0
VERTEX
8
RASTER
10
280
20
117.7
30
0
0
VERTEX
8
RASTER
10
208
20
117.7
30
0
0
SEQEND
8
RASTER
0
POLYLINE
8
CUT
66
1
70
1
0
VERTEX
8
CUT
10
4
20
60.6
30
0
0
VERTEX
8
CUT
10
4
20
60.6
30
0
0
VERTEX
8
CUT
10
18.8
20
60.6
30
0
0
VERTEX
8
CUT
10
18.8
20
60.6
30
0
0
VERTEX
8
CUT
10
18.8
20
63.9
30
0
0
VERTEX
8
CUT
10
18.8
20
63.9
30
0
0
VERTEX
8
CUT
10
18.906
20
64.702
30
0
0
VERTEX
8
CUT
10
19.215
20
65.45
30
0
0
VERTEX
8
CUT
10
19.708
20
66.092
30
0
0
VERTEX
8
CUT
10
20.35
20
66.585
30
0
0
VERTEX
8
CUT
10
21.098
20
66.894
30
0
0
VERTEX
8
CUT
10
21.9
20
67
30
0
0
VERTEX
8
CUT
10
30.5
20
67
30
0
0
VERTEX
8
CUT
10
31.302
20
66.894
30
0
0
VERTEX
8
CUT
10
32.05
20
66.585
30
0
0
VERTEX
8
CUT
10
32.692
20
66.092
30
0
0
VERTEX
8
CUT
10
33.185
20
65.45
30
0
0
VERTEX
8
CUT
10
33.494
20
64.702
30
0
0
VERTEX
8
CUT
10
33.6
20
63.9
30
0
0
VERTEX
8
CUT
10
33.6
20
63.9
30
0
0
VERTEX
8
CUT
10
33.6
20
60.6
30
0
0
VERTEX
8
CUT
10
33.6
20
60.6
30
0
0
VERTEX
8
CUT
10
48.4
20
60.6
30
0
0
VERTEX
8
CUT
10
48.4
20
60.6
30
0
0
VERTEX
8
CUT
10
48.4
20
63.9
30
0
0
VERTEX
8
CUT
10
48.4
20
63.9
30
0
0
VERTEX
8
CUT
10
48.506
20
64.702
30
0
0
VERTEX
8
CUT
10
48.815
20
65.45
30
0
0
VERTEX
8
CUT
10
49.308
20
66.092
30
0
0
VERTEX
8
CUT
10
49.95
20
66.585
30
0
0
VERTEX
8
CUT
10
50.698
20
66.894
30
0
0
VERTEX
8
CUT
10
51.5
20
67
30
0
0
VERTEX
8
CUT
10
60.1
20
67
30
0
0
VERTEX
8
CUT
10
60.902
20
66.894
30
0
0
VERTEX
8
CUT
10
61.65
20
66.585
30
0
0
VERTEX
8
CUT
10
62.292
20
66.092
30
0
0
VERTEX
8
CUT
10
62.785
20
65.45
30
0
0
VERTEX
8
CUT
10
63.094
20
64.702
30
0
0
VERTEX
8
CUT
10
63.2
20
63.9
30
0
0
VERTEX
8
CUT
10
63.2
20
63.9
30
0
0
VERTEX
8
CUT
10
63.2
20
60.6
30
0
0
VERTEX
8
CUT
10
63.2
20
60.6
30
0
0
VERTEX
8
CUT
10
78
20
60.6
30
0
0
VERTEX
8
CUT
10
78
20
60.6
30
0
0
VERTEX
8
CUT
10
78
20
60.2
30
0
0
VERTEX
8
CUT
10
78
20
60.2
30
0
0
VERTEX
8
CUT
10
72.308
20
60.2
30
0
0
VERTEX
8
CUT
10
72.308
20
57.2
30
0
0
VERTEX
8
CUT
10
66.615
20
57.2
30
0
0
VERTEX
8
CUT
10
66.615
20
60.2
30
0
0
VERTEX
8
CUT
10
60.923
20
60.2
30
0
0
VERTEX
8
CUT
10
60.923
20
57.2
30
0
0
VERTEX
8
CUT
10
55.231
20
57.2
30
0
0
VERTEX
8
CUT
10
55.231
20
60.2
30
0
0
VERTEX
8
CUT
10
49.538
20
60.2
30
0
0
VERTEX
8
CUT
10
49.538
20
57.2
30
0
0
VERTEX
8
CUT
10
43.846
20
57.2
30
0
0
VERTEX
8
CUT
10
43.846
20
60.2
30
0
0
VERTEX
8
CUT
10
38.154
20
60.2
30
0
0
VERTEX
8
CUT
10
38.154
20
57.2
30
0
0
VERTEX
8
CUT
10
32.462
20
57.2
30
0
0
VERTEX
8
CUT
10
32.462
20
60.2
30
0
0
VERTEX
8
CUT
10
26.769
20
60.2
30
0
0
VERTEX
8
CUT
10
26.769
20
57.2
30
0
0
VERTEX
8
CUT
10
21.077
20
57.2
30
0
0
VERTEX
8
CUT
10
21.077
20
60.2
30
0
0
VERTEX
8
CUT
10
15.385
20
60.2
30
0
0
VERTEX
8
CUT
10
15.385
20
57.2
30
0
0
VERTEX
8
CUT
10
9.692
20
57.2
30
0
0
VERTEX
8
CUT
10
9.692
20
60.2
30
0
0
VERTEX
8
CUT
10
4
20
60.2
30
0
0
VERTEX
8
CUT
10
4
20
60.2
30
0
0
VERTEX
8
CUT
10
4
20
60.2
30
0
0
SEQEND
8
CUT
0
CIRCLE
8
CUT
10
26.2
20
63.9
30
0
40
1.65
0
CIRCLE
8
CUT
10
55.8
20
63.9
30
0
40
1.65
0
POLYLINE
8
CUT
66
1
70
1
0
VERTEX
8
CUT
10
85
20
67
30
0
0
VERTEX
8
CUT
10
133
20
67
30
0
0
VERTEX
8
CUT
10
133
20
67
30
0
0
VERTEX
8
CUT
10
133
20
64
30
0
0
VERTEX
8
CUT
10
136
20
64
30
0
0
VERTEX
8
CUT
10
136
20
61
30
0
0
VERTEX
8
CUT
10
133
20
61
30
0
0
VERTEX
8
CUT
10
133
20
58
30
0
0
VERTEX
8
CUT
10
133
20
58
30
0
0
VERTEX
8
CUT
10
133
20
58
30
0
0
VERTEX
8
CUT
10
127.667
20
58
30
0
0
VERTEX
8
CUT
10
127.667
20
55
30
0
0
VERTEX
8
CUT
10
122.333
20
55
30
0
0
VERTEX
8
CUT
10
122.333
20
58
30
0
0
VERTEX
8
CUT
10
117
20
58
30
0
0
VERTEX
8
CUT
10
117
20
55
30
0
0
VERTEX
8
CUT
10
111.667
20
55
30
0
0
VERTEX
8
CUT
10
111.667
20
58
30
0
0
VERTEX
8
CUT
10
106.333
20
58
30
0
0
VERTEX
8
CUT
10
106.333
20
55
30
0
0
VERTEX
8
CUT
10
101
20
55
30
0
0
VERTEX
8
CUT
10
101
20
58
30
0
0
VERTEX
8
CUT
10
95.667
20
58
30
0
0
VERTEX
8
CUT
10
95.667
20
55
30
0
0
VERTEX
8
CUT
10
90.333
20
55
30
0
0
VERTEX
8
CUT
10
90.333
20
58
30
0
0
VERTEX
8
CUT
10
85
20
58
30
0
0
VERTEX
8
CUT
10
85
20
58
30
0
0
VERTEX
8
CUT
10
85
20
58
30
0
0
VERTEX
8
CUT
10
85
20
61
30
0
0
VERTEX
8
CUT
10
82
20
61
30
0
0
VERTEX
8
CUT
10
82
20
64
30
0
0
VERTEX
8
CUT
10
85
20
64
30
0
0
VERTEX
8
CUT
10
85
20
67
30
0
0
VERTEX
8
CUT
10
85
20
67
30
0
0
SEQEND
8
CUT
0
POLYLINE
8
RASTER
66
1
70
1
0
VERTEX
8
RASTER
10
86
20
63.6
30
0
0
VERTEX
8
RASTER
10
132
20
63.6
30
0
0
VERTEX
8
RASTER
10
132
20
63.2
30
0
0
VERTEX
8
RASTER
10
86
20
63.2
30
0
0
SEQEND
8
RASTER
0
POLYLINE
8
CUT
66
1
70
1
0
VERTEX
8
CUT
10
143
20
67
30
0
0
VERTEX
8
CUT
10
191
20
67
30
0
0
VERTEX
8
CUT
10
191
20
67
30
0
0
VERTEX
8
CUT
10
191
20
64
30
0
0
VERTEX
8
CUT
10
194
20
64
30
0
0
VERTEX
8
CUT
10
194
20
61
30
0
0
VERTEX
8
CUT
10
191
20
61
30
0
0
VERTEX
8
CUT
10
191
20
58
30
0
0
VERTEX
8
CUT
10
191
20
58
30
0
0
VERTEX
8
CUT
10
191
20
58
30
0
0
VERTEX
8
CUT
10
185.667
20
58
30
0
0
VERTEX
8
CUT
10
185.667
20
55
30
0
0
VERTEX
8
CUT
10
180.333
20
55
30
0
0
VERTEX
8
CUT
10
180.333
20
58
30
0
0
VERTEX
8
CUT
10
175
20
58
30
0
0
VERTEX
8
CUT
10
175
20
55
30
0
0
VERTEX
8
CUT
10
169.667
20
55
30
0
0
VERTEX
8
CUT
10
169.667
20
58
30
0
0
VERTEX
8
CUT
10
164.333
20
58
30
0
0
VERTEX
8
CUT
10
164.333
20
55
30
0
0
VERTEX
8
CUT
10
159
20
55
30
0
0
VERTEX
8
CUT
10
159
20
58
30
0
0
VERTEX
8
CUT
10
153.667
20
58
30
0
0
VERTEX
8
CUT
10
153.667
20
55
30
0
0
VERTEX
8
CUT
10
148.333
20
55
30
0
0
VERTEX
8
CUT
10
148.333
20
58
30
0
0
VERTEX
8
CUT
10
143
20
58
30
0
0
VERTEX
8
CUT
10
143
20
58
30
0
0
VERTEX
8
CUT
10
143
20
58
30
0
0
VERTEX
8
CUT
10
143
20
61
30
0
0
VERTEX
8
CUT
10
140
20
61
30
0
0
VERTEX
8
CUT
10
140
20
64
30
0
0
VERTEX
8
CUT
10
143
20
64
30
0
0
VERTEX
8
CUT
10
143
20
67
30
0
0
VERTEX
8
CUT
10
143
20
67
30
0
0
SEQEND
8
CUT
0
POLYLINE
8
RASTER
66
1
70
1
0
VERTEX
8
RASTER
10
144
20
63.6
30
0
0
VERTEX
8
RASTER
10
190
20
63.6
30
0
0
VERTEX
8
RASTER
10
190
20
63.2
30
0
0
VERTEX
8
RASTER
10
144
20
63.2
30
0
0
SEQEND
8
RASTER
0
POLYLINE
8
CUT
66
1
70
1
0
VERTEX
8
CUT
10
198
20
67
30
0
0
VERTEX
8
CUT
10
201
20
67
30
0
0
VERTEX
8
CUT
10
201
20
67
30
0
0
VERTEX
8
CUT
10
206.692
20
67
30
0
0
VERTEX
8
CUT
10
206.692
20
64
30
0
0
VERTEX
8
CUT
10
212.385
20
64
30
0
0
VERTEX
8
CUT
10
212.385
20
67
30
0
0
VERTEX
8
CUT
10
218.077
20
67
30
0
0
VERTEX
8
CUT
10
218.077
20
64
30
0
0
VERTEX
8
CUT
10
223.769
20
64
30
0
0
VERTEX
8
CUT
10
223.769
20
67
30
0
0
VERTEX
8
CUT
10
229.462
20
67
30
0
0
VERTEX
8
CUT
10
229.462
20
64
30
0
0
VERTEX
8
CUT
10
235.154
20
64
30
0
0
VERTEX
8
CUT
10
235.154
20
67
30
0
0
VERTEX
8
CUT
10
240.846
20
67
30
0
0
VERTEX
8
CUT
10
240.846
20
64
30
0
0
VERTEX
8
CUT
10
246.538
20
64
30
0
0
VERTEX
8
CUT
10
246.538
20
67
30
0
0
VERTEX
8
CUT
10
252.231
20
67
30
0
0
VERTEX
8
CUT
10
252.231
20
64
30
0
0
VERTEX
8
CUT
10
257.923
20
64
30
0
0
VERTEX
8
CUT
10
257.923
20
67
30
0
0
VERTEX
8
CUT
10
263.615
20
67
30
0
0
VERTEX
8
CUT
10
263.615
20
64
30
0
0
VERTEX
8
CUT
10
269.308
20
64
30
0
0
VERTEX
8
CUT
10
269.308
20
67
30
0
0
VERTEX
8
CUT
10
275
20
67
30
0
0
VERTEX
8
CUT
10
275
20
67
30
0
0
VERTEX
8
CUT
10
275
20
67
30
0
0
VERTEX
8
CUT
10
278
20
67
30
0
0
VERTEX
8
CUT
10
278
20
64
30
0
0
VERTEX
8
CUT
10
278
20
64
30
0
0
VERTEX
8
CUT
10
278
20
58.667
30
0
0
VERTEX
8
CUT
10
275
20
58.667
30
0
0
VERTEX
8
CUT
10
275
20
53.333
30
0
0
VERTEX
8
CUT
10
278
20
53.333
30
0
0
VERTEX
8
CUT
10
278
20
48
30
0
0
VERTEX
8
CUT
10
275
20
48
30
0
0
VERTEX
8
CUT
10
275
20
42.667
30
0
0
VERTEX
8
CUT
10
278
20
42.667
30
0
0
VERTEX
8
CUT
10
278
20
37.333
30
0
0
VERTEX
8
CUT
10
275
20
37.333
30
0
0
VERTEX
8
CUT
10
275
20
32
30
0
0
VERTEX
8
CUT
10
278
20
32
30
0
0
VERTEX
8
CUT
10
278
20
26.667
30
0
0
VERTEX
8
CUT
10
275
20
26.667
30
0
0
VERTEX
8
CUT
10
275
20
21.333
30
0
0
VERTEX
8
CUT
10
278
20
21.333
30
0
0
VERTEX
8
CUT
10
278
20
16
30
0
0
VERTEX
8
CUT
10
278
20
16
30
0
0
VERTEX
8
CUT
10
278
20
16
30
0
0
VERTEX
8
CUT
10
278
20
13
30
0
0
VERTEX
8
CUT
10
275
20
13
30
0
0
VERTEX
8
CUT
10
275
20
13
30
0
0
VERTEX
8
CUT
10
269.308
20
13
30
0
0
VERTEX
8
CUT
10
269.308
20
16
30
0
0
VERTEX
8
CUT
10
263.615
20
16
30
0
0
VERTEX
8
CUT
10
263.615
20
13
30
0
0
VERTEX
8
CUT
10
257.923
20
13
30
0
0
VERTEX
8
CUT
10
257.923
20
16
30
0
0
VERTEX
8
CUT
10
252.231
20
16
30
0
0
VERTEX
8
CUT
10
252.231
20
13
30
0
0
VERTEX
8
CUT
10
246.538
20
13
30
0
0
VERTEX
8
CUT
10
246.538
20
16
30
0
0
VERTEX
8
CUT
10
240.846
20
16
30
0
0
VERTEX
8
CUT
10
240.846
20
13
30
0
0
VERTEX
8
CUT
10
235.154
20
13
30
0
0
VERTEX
8
CUT
10
235.154
20
16
30
0
0
VERTEX
8
CUT
10
229.462
20
16
30
0
0
VERTEX
8
CUT
10
229.462
20
13
30
0
0
VERTEX
8
CUT
10
223.769
20
13
30
0
0
VERTEX
8
CUT
10
223.769
20
16
30
0
0
VERTEX
8
CUT
10
218.077
20
16
30
0
0
VERTEX
8
CUT
10
218.077
20
13
30
0
0
VERTEX
8
CUT
10
212.385
20
13
30
0
0
VERTEX
8
CUT
10
212.385
20
16
30
0
0
VERTEX
8
CUT
10
206.692
20
16
30
0
0
VERTEX
8
CUT
10
206.692
20
13
30
0
0
VERTEX
8
CUT
10
201
20
13
30
0
0
VERTEX
8
CUT
10
201
20
13
30
0
0
VERTEX
8
CUT
10
201
20
13
30
0
0
VERTEX
8
CUT
10
198
20
13
30
0
0
VERTEX
8
CUT
10
198
20
16
30
0
0
VERTEX
8
CUT
10
198
20
16
30
0
0
VERTEX
8
CUT
10
198
20
21.333
30
0
0
VERTEX
8
CUT
10
201
20
21.333
30
0
0
VERTEX
8
CUT
10
201
20
26.667
30
0
0
VERTEX
8
CUT
10
198
20
26.667
30
0
0
VERTEX
8
CUT
10
198
20
32
30
0
0
VERTEX
8
CUT
10
201
20
32
30
0
0
VERTEX
8
CUT
10
201
20
37.333
30
0
0
VERTEX
8
CUT
10
198
20
37.333
30
0
0
VERTEX
8
CUT
10
198
20
42.667
30
0
0
VERTEX
8
CUT
10
201
20
42.667
30
0
0
VERTEX
8
CUT
10
201
20
48
30
0
0
VERTEX
8
CUT
10
198
20
48
30
0
0
VERTEX
8
CUT
10
198
20
53.333
30
0
0
VERTEX
8
CUT
10
201
20
53.333
30
0
0
VERTEX
8
CUT
10
201
20
58.667
30
0
0
VERTEX
8
CUT
10
198
20
58.667
30
0
0
VERTEX
8
CUT
10
198
20
64
30
0
0
VERTEX
8
CUT
10
198
20
64
30
0
0
VERTEX
8
CUT
10
198
20
64
30
0
0
SEQEND
8
CUT
0
POLYLINE
8
RASTER
66
1
70
1
0
VERTEX
8
RASTER
10
202
20
59.3
30
0
0
VERTEX
8
RASTER
10
274
20
59.3
30
0
0
VERTEX
8
RASTER
10
274
20
58.7
30
0
0
VERTEX
8
RASTER
10
202
20
58.7
30
0
0
SEQEND
8
RASTER
0
POLYLINE
8
RASTER
66
1
70
1
0
VERTEX
8
RASTER
10
202
20
54.3
30
0
0
VERTEX
8
RASTER
10
274
20
54.3
30
0
0
VERTEX
8
RASTER
10
274
20
53.7
30
0
0
VERTEX
8
RASTER
10
202
20
53.7
30
0
0
SEQEND
8
RASTER
0
POLYLINE
8
RASTER
66
1
70
1
0
VERTEX
8
RASTER
10
202
20
49.3
30
0
0
VERTEX
8
RASTER
10
274
20
49.3
30
0
0
VERTEX
8
RASTER
10
274
20
48.7
30
0
0
VERTEX
8
RASTER
10
202
20
48.7
30
0
0
SEQEND
8
RASTER
0
POLYLINE
8
RASTER
66
1
70
1
0
VERTEX
8
RASTER
10
202
20
44.3
30
0
0
VERTEX
8
RASTER
10
274
20
44.3
30
0
0
VERTEX
8
RASTER
10
274
20
43.7
30
0
0
VERTEX
8
RASTER
10
202
20
43.7
30
0
0
SEQEND
8
RASTER
0
POLYLINE
8
RASTER
66
1
70
1
0
VERTEX
8
RASTER
10
202
20
39.3
30
0
0
VERTEX
8
RASTER
10
274
20
39.3
30
0
0
VERTEX
8
RASTER
10
274
20
38.7
30
0
0
VERTEX
8
RASTER
10
202
20
38.7
30
0
0
SEQEND
8
RASTER
0
POLYLINE
8
RASTER
66
1
70
1
0
VERTEX
8
RASTER
10
202
20
34.3
30
0
0
VERTEX
8
RASTER
10
274
20
34.3
30
0
0
VERTEX
8
RASTER
10
274
20
33.7
30
0
0
VERTEX
8
RASTER
10
202
20
33.7
30
0
0
SEQEND
8
RASTER
0
POLYLINE
8
RASTER
66
1
70
1
0
VERTEX
8
RASTER
10
202
20
29.3
30
0
0
VERTEX
8
RASTER
10
274
20
29.3
30
0
0
VERTEX
8
RASTER
10
274
20
28.7
30
0
0
VERTEX
8
RASTER
10
202
20
28.7
30
0
0
SEQEND
8
RASTER
0
POLYLINE
8
RASTER
66
1
70
1
0
VERTEX
8
RASTER
10
202
20
24.3
30
0
0
VERTEX
8
RASTER
10
274
20
24.3
30
0
0
VERTEX
8
RASTER
10
274
20
23.7
30
0
0
VERTEX
8
RASTER
10
202
20
23.7
30
0
0
SEQEND
8
RASTER
0
POLYLINE
8
RASTER
66
1
70
1
0
VERTEX
8
RASTER
10
202
20
19.3
30
0
0
VERTEX
8
RASTER
10
274
20
19.3
30
0
0
VERTEX
8
RASTER
10
274
20
18.7
30
0
0
VERTEX
8
RASTER
10
202
20
18.7
30
0
0
SEQEND
8
RASTER
0
POLYLINE
8
RASTER
66
1
70
1
0
VERTEX
8
RASTER
10
216
20
67
30
0
0
VERTEX
8
RASTER
10
220
20
67
30
0
0
VERTEX
8
RASTER
10
220
20
13
30
0
0
VERTEX
8
RASTER
10
216
20
13
30
0
0
SEQEND
8
RASTER
0
POLYLINE
8
RASTER
66
1
70
1
0
VERTEX
8
RASTER
10
256
20
67
30
0
0
VERTEX
8
RASTER
10
260
20
67
30
0
0
VERTEX
8
RASTER
10
260
20
13
30
0
0
VERTEX
8
RASTER
10
256
20
13
30
0
0
SEQEND
8
RASTER
0
CIRCLE
8
RASTER
10
218
20
56.2
30
0
40
0.55
0
CIRCLE
8
RASTER
10
258
20
56.2
30
0
40
0.55
0
CIRCLE
8
RASTER
10
218
20
40
30
0
40
0.55
0
CIRCLE
8
RASTER
10
258
20
40
30
0
40
0.55
0
CIRCLE
8
RASTER
10
218
20
23.8
30
0
40
0.55
0
CIRCLE
8
RASTER
10
258
20
23.8
30
0
40
0.55
0
POLYLINE
8
RASTER
66
1
70
1
0
VERTEX
8
RASTER
10
232.5
20
43.5
30
0
0
VERTEX
8
RASTER
10
233.4
20
43.5
30
0
0
VERTEX
8
RASTER
10
233.4
20
42.6
30
0
0
VERTEX
8
RASTER
10
232.5
20
42.6
30
0
0
SEQEND
8
RASTER
0
POLYLINE
8
RASTER
66
1
70
1
0
VERTEX
8
RASTER
10
234.7
20
43.5
30
0
0
VERTEX
8
RASTER
10
235.6
20
43.5
30
0
0
VERTEX
8
RASTER
10
235.6
20
42.6
30
0
0
VERTEX
8
RASTER
10
234.7
20
42.6
30
0
0
SEQEND
8
RASTER
0
POLYLINE
8
RASTER
66
1
70
1
0
VERTEX
8
RASTER
10
236.9
20
43.5
30
0
0
VERTEX
8
RASTER
10
237.8
20
43.5
30
0
0
VERTEX
8
RASTER
10
237.8
20
42.6
30
0
0
VERTEX
8
RASTER
10
236.9
20
42.6
30
0
0
SEQEND
8
RASTER
0
POLYLINE
8
RASTER
66
1
70
1
0
VERTEX
8
RASTER
10
239.1
20
43.5
30
0
0
VERTEX
8
RASTER
10
240
20
43.5
30
0
0
VERTEX
8
RASTER
10
240
20
42.6
30
0
0
VERTEX
8
RASTER
10
239.1
20
42.6
30
0
0
SEQEND
8
RASTER
0
POLYLINE
8
RASTER
66
1
70
1
0
VERTEX
8
RASTER
10
241.3
20
43.5
30
0
0
VERTEX
8
RASTER
10
242.2
20
43.5
30
0
0
VERTEX
8
RASTER
10
242.2
20
42.6
30
0
0
VERTEX
8
RASTER
10
241.3
20
42.6
30
0
0
SEQEND
8
RASTER
0
POLYLINE
8
RASTER
66
1
70
1
0
VERTEX
8
RASTER
10
233.6
20
42.4
30
0
0
VERTEX
8
RASTER
10
234.5
20
42.4
30
0
0
VERTEX
8
RASTER
10
234.5
20
41.5
30
0
0
VERTEX
8
RASTER
10
233.6
20
41.5
30
0
0
SEQEND
8
RASTER
0
POLYLINE
8
RASTER
66
1
70
1
0
VERTEX
8
RASTER
10
235.8
20
42.4
30
0
0
VERTEX
8
RASTER
10
236.7
20
42.4
30
0
0
VERTEX
8
RASTER
10
236.7
20
41.5
30
0
0
VERTEX
8
RASTER
10
235.8
20
41.5
30
0
0
SEQEND
8
RASTER
0
POLYLINE
8
RASTER
66
1
70
1
0
VERTEX
8
RASTER
10
238
20
42.4
30
0
0
VERTEX
8
RASTER
10
238.9
20
42.4
30
0
0
VERTEX
8
RASTER
10
238.9
20
41.5
30
0
0
VERTEX
8
RASTER
10
238
20
41.5
30
0
0
SEQEND
8
RASTER
0
POLYLINE
8
RASTER
66
1
70
1
0
VERTEX
8
RASTER
10
240.2
20
42.4
30
0
0
VERTEX
8
RASTER
10
241.1
20
42.4
30
0
0
VERTEX
8
RASTER
10
241.1
20
41.5
30
0
0
VERTEX
8
RASTER
10
240.2
20
41.5
30
0
0
SEQEND
8
RASTER
0
POLYLINE
8
RASTER
66
1
70
1
0
VERTEX
8
RASTER
10
242.4
20
42.4
30
0
0
VERTEX
8
RASTER
10
243.3
20
42.4
30
0
0
VERTEX
8
RASTER
10
243.3
20
41.5
30
0
0
VERTEX
8
RASTER
10
242.4
20
41.5
30
0
0
SEQEND
8
RASTER
0
POLYLINE
8
RASTER
66
1
70
1
0
VERTEX
8
RASTER
10
232.5
20
41.3
30
0
0
VERTEX
8
RASTER
10
233.4
20
41.3
30
0
0
VERTEX
8
RASTER
10
233.4
20
40.4
30
0
0
VERTEX
8
RASTER
10
232.5
20
40.4
30
0
0
SEQEND
8
RASTER
0
POLYLINE
8
RASTER
66
1
70
1
0
VERTEX
8
RASTER
10
234.7
20
41.3
30
0
0
VERTEX
8
RASTER
10
235.6
20
41.3
30
0
0
VERTEX
8
RASTER
10
235.6
20
40.4
30
0
0
VERTEX
8
RASTER
10
234.7
20
40.4
30
0
0
SEQEND
8
RASTER
0
POLYLINE
8
RASTER
66
1
70
1
0
VERTEX
8
RASTER
10
236.9
20
41.3
30
0
0
VERTEX
8
RASTER
10
237.8
20
41.3
30
0
0
VERTEX
8
RASTER
10
237.8
20
40.4
30
0
0
VERTEX
8
RASTER
10
236.9
20
40.4
30
0
0
SEQEND
8
RASTER
0
POLYLINE
8
RASTER
66
1
70
1
0
VERTEX
8
RASTER
10
239.1
20
41.3
30
0
0
VERTEX
8
RASTER
10
240
20
41.3
30
0
0
VERTEX
8
RASTER
10
240
20
40.4
30
0
0
VERTEX
8
RASTER
10
239.1
20
40.4
30
0
0
SEQEND
8
RASTER
0
POLYLINE
8
RASTER
66
1
70
1
0
VERTEX
8
RASTER
10
241.3
20
41.3
30
0
0
VERTEX
8
RASTER
10
242.2
20
41.3
30
0
0
VERTEX
8
RASTER
10
242.2
20
40.4
30
0
0
VERTEX
8
RASTER
10
241.3
20
40.4
30
0
0
SEQEND
8
RASTER
0
POLYLINE
8
RASTER
66
1
70
1
0
VERTEX
8
RASTER
10
233.6
20
40.2
30
0
0
VERTEX
8
RASTER
10
234.5
20
40.2
30
0
0
VERTEX
8
RASTER
10
234.5
20
39.3
30
0
0
VERTEX
8
RASTER
10
233.6
20
39.3
30
0
0
SEQEND
8
RASTER
0
POLYLINE
8
RASTER
66
1
70
1
0
VERTEX
8
RASTER
10
235.8
20
40.2
30
0
0
VERTEX
8
RASTER
10
236.7
20
40.2
30
0
0
VERTEX
8
RASTER
10
236.7
20
39.3
30
0
0
VERTEX
8
RASTER
10
235.8
20
39.3
30
0
0
SEQEND
8
RASTER
0
POLYLINE
8
RASTER
66
1
70
1
0
VERTEX
8
RASTER
10
238
20
40.2
30
0
0
VERTEX
8
RASTER
10
238.9
20
40.2
30
0
0
VERTEX
8
RASTER
10
238.9
20
39.3
30
0
0
VERTEX
8
RASTER
10
238
20
39.3
30
0
0
SEQEND
8
RASTER
0
POLYLINE
8
RASTER
66
1
70
1
0
VERTEX
8
RASTER
10
240.2
20
40.2
30
0
0
VERTEX
8
RASTER
10
241.1
20
40.2
30
0
0
VERTEX
8
RASTER
10
241.1
20
39.3
30
0
0
VERTEX
8
RASTER
10
240.2
20
39.3
30
0
0
SEQEND
8
RASTER
0
POLYLINE
8
RASTER
66
1
70
1
0
VERTEX
8
RASTER
10
242.4
20
40.2
30
0
0
VERTEX
8
RASTER
10
243.3
20
40.2
30
0
0
VERTEX
8
RASTER
10
243.3
20
39.3
30
0
0
VERTEX
8
RASTER
10
242.4
20
39.3
30
0
0
SEQEND
8
RASTER
0
POLYLINE
8
RASTER
66
1
70
1
0
VERTEX
8
RASTER
10
232.5
20
39.1
30
0
0
VERTEX
8
RASTER
10
233.4
20
39.1
30
0
0
VERTEX
8
RASTER
10
233.4
20
38.2
30
0
0
VERTEX
8
RASTER
10
232.5
20
38.2
30
0
0
SEQEND
8
RASTER
0
POLYLINE
8
RASTER
66
1
70
1
0
VERTEX
8
RASTER
10
234.7
20
39.1
30
0
0
VERTEX
8
RASTER
10
235.6
20
39.1
30
0
0
VERTEX
8
RASTER
10
235.6
20
38.2
30
0
0
VERTEX
8
RASTER
10
234.7
20
38.2
30
0
0
SEQEND
8
RASTER
0
POLYLINE
8
RASTER
66
1
70
1
0
VERTEX
8
RASTER
10
236.9
20
39.1
30
0
0
VERTEX
8
RASTER
10
237.8
20
39.1
30
0
0
VERTEX
8
RASTER
10
237.8
20
38.2
30
0
0
VERTEX
8
RASTER
10
236.9
20
38.2
30
0
0
SEQEND
8
RASTER
0
POLYLINE
8
RASTER
66
1
70
1
0
VERTEX
8
RASTER
10
239.1
20
39.1
30
0
0
VERTEX
8
RASTER
10
240
20
39.1
30
0
0
VERTEX
8
RASTER
10
240
20
38.2
30
0
0
VERTEX
8
RASTER
10
239.1
20
38.2
30
0
0
SEQEND
8
RASTER
0
POLYLINE
8
RASTER
66
1
70
1
0
VERTEX
8
RASTER
10
241.3
20
39.1
30
0
0
VERTEX
8
RASTER
10
242.2
20
39.1
30
0
0
VERTEX
8
RASTER
10
242.2
20
38.2
30
0
0
VERTEX
8
RASTER
10
241.3
20
38.2
30
0
0
SEQEND
8
RASTER
0
POLYLINE
8
RASTER
66
1
70
1
0
VERTEX
8
RASTER
10
233.6
20
38
30
0
0
VERTEX
8
RASTER
10
234.5
20
38
30
0
0
VERTEX
8
RASTER
10
234.5
20
37.1
30
0
0
VERTEX
8
RASTER
10
233.6
20
37.1
30
0
0
SEQEND
8
RASTER
0
POLYLINE
8
RASTER
66
1
70
1
0
VERTEX
8
RASTER
10
235.8
20
38
30
0
0
VERTEX
8
RASTER
10
236.7
20
38
30
0
0
VERTEX
8
RASTER
10
236.7
20
37.1
30
0
0
VERTEX
8
RASTER
10
235.8
20
37.1
30
0
0
SEQEND
8
RASTER
0
POLYLINE
8
RASTER
66
1
70
1
0
VERTEX
8
RASTER
10
238
20
38
30
0
0
VERTEX
8
RASTER
10
238.9
20
38
30
0
0
VERTEX
8
RASTER
10
238.9
20
37.1
30
0
0
VERTEX
8
RASTER
10
238
20
37.1
30
0
0
SEQEND
8
RASTER
0
POLYLINE
8
RASTER
66
1
70
1
0
VERTEX
8
RASTER
10
240.2
20
38
30
0
0
VERTEX
8
RASTER
10
241.1
20
38
30
0
0
VERTEX
8
RASTER
10
241.1
20
37.1
30
0
0
VERTEX
8
RASTER
10
240.2
20
37.1
30
0
0
SEQEND
8
RASTER
0
POLYLINE
8
RASTER
66
1
70
1
0
VERTEX
8
RASTER
10
242.4
20
38
30
0
0
VERTEX
8
RASTER
10
243.3
20
38
30
0
0
VERTEX
8
RASTER
10
243.3
20
37.1
30
0
0
VERTEX
8
RASTER
10
242.4
20
37.1
30
0
0
SEQEND
8
RASTER
0
POLYLINE
8
CUT
66
1
70
1
0
VERTEX
8
CUT
10
4
20
8.6
30
0
0
VERTEX
8
CUT
10
4.006
20
8.694
30
0
0
VERTEX
8
CUT
10
4.025
20
8.775
30
0
0
VERTEX
8
CUT
10
4.056
20
8.844
30
0
0
VERTEX
8
CUT
10
4.1
20
8.9
30
0
0
VERTEX
8
CUT
10
4.156
20
8.944
30
0
0
VERTEX
8
CUT
10
4.225
20
8.975
30
0
0
VERTEX
8
CUT
10
4.306
20
8.994
30
0
0
VERTEX
8
CUT
10
4.4
20
9
30
0
0
VERTEX
8
CUT
10
51.6
20
9
30
0
0
VERTEX
8
CUT
10
51.694
20
8.994
30
0
0
VERTEX
8
CUT
10
51.775
20
8.975
30
0
0
VERTEX
8
CUT
10
51.844
20
8.944
30
0
0
VERTEX
8
CUT
10
51.9
20
8.9
30
0
0
VERTEX
8
CUT
10
51.944
20
8.844
30
0
0
VERTEX
8
CUT
10
51.975
20
8.775
30
0
0
VERTEX
8
CUT
10
51.994
20
8.694
30
0
0
VERTEX
8
CUT
10
52
20
8.6
30
0
0
VERTEX
8
CUT
10
52
20
4.4
30
0
0
VERTEX
8
CUT
10
51.994
20
4.306
30
0
0
VERTEX
8
CUT
10
51.975
20
4.225
30
0
0
VERTEX
8
CUT
10
51.944
20
4.156
30
0
0
VERTEX
8
CUT
10
51.9
20
4.1
30
0
0
VERTEX
8
CUT
10
51.844
20
4.056
30
0
0
VERTEX
8
CUT
10
51.775
20
4.025
30
0
0
VERTEX
8
CUT
10
51.694
20
4.006
30
0
0
VERTEX
8
CUT
10
51.6
20
4
30
0
0
VERTEX
8
CUT
10
4.4
20
4
30
0
0
VERTEX
8
CUT
10
4.306
20
4.006
30
0
0
VERTEX
8
CUT
10
4.225
20
4.025
30
0
0
VERTEX
8
CUT
10
4.156
20
4.056
30
0
0
VERTEX
8
CUT
10
4.1
20
4.1
30
0
0
VERTEX
8
CUT
10
4.056
20
4.156
30
0
0
VERTEX
8
CUT
10
4.025
20
4.225
30
0
0
VERTEX
8
CUT
10
4.006
20
4.306
30
0
0
VERTEX
8
CUT
10
4
20
4.4
30
0
0
SEQEND
8
CUT
0
POLYLINE
8
CUT
66
1
70
1
0
VERTEX
8
CUT
10
56
20
8.6
30
0
0
VERTEX
8
CUT
10
56.006
20
8.694
30
0
0
VERTEX
8
CUT
10
56.025
20
8.775
30
0
0
VERTEX
8
CUT
10
56.056
20
8.844
30
0
0
VERTEX
8
CUT
10
56.1
20
8.9
30
0
0
VERTEX
8
CUT
10
56.156
20
8.944
30
0
0
VERTEX
8
CUT
10
56.225
20
8.975
30
0
0
VERTEX
8
CUT
10
56.306
20
8.994
30
0
0
VERTEX
8
CUT
10
56.4
20
9
30
0
0
VERTEX
8
CUT
10
103.6
20
9
30
0
0
VERTEX
8
CUT
10
103.694
20
8.994
30
0
0
VERTEX
8
CUT
10
103.775
20
8.975
30
0
0
VERTEX
8
CUT
10
103.844
20
8.944
30
0
0
VERTEX
8
CUT
10
103.9
20
8.9
30
0
0
VERTEX
8
CUT
10
103.944
20
8.844
30
0
0
VERTEX
8
CUT
10
103.975
20
8.775
30
0
0
VERTEX
8
CUT
10
103.994
20
8.694
30
0
0
VERTEX
8
CUT
10
104
20
8.6
30
0
0
VERTEX
8
CUT
10
104
20
4.4
30
0
0
VERTEX
8
CUT
10
103.994
20
4.306
30
0
0
VERTEX
8
CUT
10
103.975
20
4.225
30
0
0
VERTEX
8
CUT
10
103.944
20
4.156
30
0
0
VERTEX
8
CUT
10
103.9
20
4.1
30
0
0
VERTEX
8
CUT
10
103.844
20
4.056
30
0
0
VERTEX
8
CUT
10
103.775
20
4.025
30
0
0
VERTEX
8
CUT
10
103.694
20
4.006
30
0
0
VERTEX
8
CUT
10
103.6
20
4
30
0
0
VERTEX
8
CUT
10
56.4
20
4
30
0
0
VERTEX
8
CUT
10
56.306
20
4.006
30
0
0
VERTEX
8
CUT
10
56.225
20
4.025
30
0
0
VERTEX
8
CUT
10
56.156
20
4.056
30
0
0
VERTEX
8
CUT
10
56.1
20
4.1
30
0
0
VERTEX
8
CUT
10
56.056
20
4.156
30
0
0
VERTEX
8
CUT
10
56.025
20
4.225
30
0
0
VERTEX
8
CUT
10
56.006
20
4.306
30
0
0
VERTEX
8
CUT
10
56
20
4.4
30
0
0
SEQEND
8
CUT
0
ENDSEC
0
EOF
