0
SECTION
2
HEADER
9
$ACADVER
1
AC1009
9
$EXTMIN
10
0
20
0
9
$EXTMAX
10
298
20
106
0
ENDSEC
0
SECTION
2
TABLES
0
TABLE
2
LAYER
70
2
0
LAYER
2
CUT
70
0
62
1
6
CONTINUOUS
0
LAYER
2
RASTER
70
0
62
7
6
CONTINUOUS
0
ENDTAB
0
ENDSEC
0
SECTION
2
ENTITIES
0
POLYLINE
8
CUT
66
1
70
1
0
VERTEX
8
CUT
10
7
20
102
30
0
0
VERTEX
8
CUT
10
45
20
102
30
0
0
VERTEX
8
CUT
10
48
20
102
30
0
0
VERTEX
8
CUT
10
48
20
97
30
0
0
VERTEX
8
CUT
10
45
20
97
30
0
0
VERTEX
8
CUT
10
45
20
92
30
0
0
VERTEX
8
CUT
10
48
20
92
30
0
0
VERTEX
8
CUT
10
48
20
87
30
0
0
VERTEX
8
CUT
10
45
20
87
30
0
0
VERTEX
8
CUT
10
45
20
87
30
0
0
VERTEX
8
CUT
10
39.571
20
87
30
0
0
VERTEX
8
CUT
10
39.571
20
84
30
0
0
VERTEX
8
CUT
10
34.143
20
84
30
0
0
VERTEX
8
CUT
10
34.143
20
87
30
0
0
VERTEX
8
CUT
10
28.714
20
87
30
0
0
VERTEX
8
CUT
10
28.714
20
84
30
0
0
VERTEX
8
CUT
10
23.286
20
84
30
0
0
VERTEX
8
CUT
10
23.286
20
87
30
0
0
VERTEX
8
CUT
10
17.857
20
87
30
0
0
VERTEX
8
CUT
10
17.857
20
84
30
0
0
VERTEX
8
CUT
10
12.429
20
84
30
0
0
VERTEX
8
CUT
10
12.429
20
87
30
0
0
VERTEX
8
CUT
10
7
20
87
30
0
0
VERTEX
8
CUT
10
7
20
87
30
0
0
VERTEX
8
CUT
10
4
20
87
30
0
0
VERTEX
8
CUT
10
4
20
92
30
0
0
VERTEX
8
CUT
10
7
20
92
30
0
0
VERTEX
8
CUT
10
7
20
97
30
0
0
VERTEX
8
CUT
10
4
20
97
30
0
0
VERTEX
8
CUT
10
4
20
102
30
0
0
VERTEX
8
CUT
10
7
20
102
30
0
0
SEQEND
8
CUT
0
POLYLINE
8
CUT
66
1
70
1
0
VERTEX
8
CUT
10
11
20
97.767
30
0
0
VERTEX
8
CUT
10
41
20
97.767
30
0
0
VERTEX
8
CUT
10
41
20
96.367
30
0
0
VERTEX
8
CUT
10
11
20
96.367
30
0
0
SEQEND
8
CUT
0
POLYLINE
8
CUT
66
1
70
1
0
VERTEX
8
CUT
10
11
20
92.633
30
0
0
VERTEX
8
CUT
10
41
20
92.633
30
0
0
VERTEX
8
CUT
10
41
20
91.233
30
0
0
VERTEX
8
CUT
10
11
20
91.233
30
0
0
SEQEND
8
CUT
0
POLYLINE
8
RASTER
66
1
70
1
0
VERTEX
8
RASTER
10
7.6
20
101.6
30
0
0
VERTEX
8
RASTER
10
10.4
20
101.6
30
0
0
VERTEX
8
RASTER
10
10.4
20
87.4
30
0
0
VERTEX
8
RASTER
10
7.6
20
87.4
30
0
0
SEQEND
8
RASTER
0
POLYLINE
8
RASTER
66
1
70
1
0
VERTEX
8
RASTER
10
41.6
20
101.6
30
0
0
VERTEX
8
RASTER
10
44.4
20
101.6
30
0
0
VERTEX
8
RASTER
10
44.4
20
87.4
30
0
0
VERTEX
8
RASTER
10
41.6
20
87.4
30
0
0
SEQEND
8
RASTER
0
CIRCLE
8
RASTER
10
12.6
20
99.633
30
0
40
0.5
0
CIRCLE
8
RASTER
10
39.4
20
99.633
30
0
40
0.5
0
CIRCLE
8
RASTER
10
12.6
20
94.5
30
0
40
0.5
0
CIRCLE
8
RASTER
10
39.4
20
94.5
30
0
40
0.5
0
CIRCLE
8
RASTER
10
12.6
20
89.367
30
0
40
0.5
0
CIRCLE
8
RASTER
10
39.4
20
89.367
30
0
40
0.5
0
CIRCLE
8
RASTER
10
26
20
98.8
30
0
40
0.72
0
POLYLINE
8
CUT
66
1
70
1
0
VERTEX
8
CUT
10
55
20
102
30
0
0
VERTEX
8
CUT
10
93
20
102
30
0
0
VERTEX
8
CUT
10
96
20
102
30
0
0
VERTEX
8
CUT
10
96
20
97
30
0
0
VERTEX
8
CUT
10
93
20
97
30
0
0
VERTEX
8
CUT
10
93
20
92
30
0
0
VERTEX
8
CUT
10
96
20
92
30
0
0
VERTEX
8
CUT
10
96
20
87
30
0
0
VERTEX
8
CUT
10
93
20
87
30
0
0
VERTEX
8
CUT
10
93
20
87
30
0
0
VERTEX
8
CUT
10
87.571
20
87
30
0
0
VERTEX
8
CUT
10
87.571
20
84
30
0
0
VERTEX
8
CUT
10
82.143
20
84
30
0
0
VERTEX
8
CUT
10
82.143
20
87
30
0
0
VERTEX
8
CUT
10
76.714
20
87
30
0
0
VERTEX
8
CUT
10
76.714
20
84
30
0
0
VERTEX
8
CUT
10
71.286
20
84
30
0
0
VERTEX
8
CUT
10
71.286
20
87
30
0
0
VERTEX
8
CUT
10
65.857
20
87
30
0
0
VERTEX
8
CUT
10
65.857
20
84
30
0
0
VERTEX
8
CUT
10
60.429
20
84
30
0
0
VERTEX
8
CUT
10
60.429
20
87
30
0
0
VERTEX
8
CUT
10
55
20
87
30
0
0
VERTEX
8
CUT
10
55
20
87
30
0
0
VERTEX
8
CUT
10
52
20
87
30
0
0
VERTEX
8
CUT
10
52
20
92
30
0
0
VERTEX
8
CUT
10
55
20
92
30
0
0
VERTEX
8
CUT
10
55
20
97
30
0
0
VERTEX
8
CUT
10
52
20
97
30
0
0
VERTEX
8
CUT
10
52
20
102
30
0
0
VERTEX
8
CUT
10
55
20
102
30
0
0
SEQEND
8
CUT
0
POLYLINE
8
CUT
66
1
70
1
0
VERTEX
8
CUT
10
59
20
97.767
30
0
0
VERTEX
8
CUT
10
89
20
97.767
30
0
0
VERTEX
8
CUT
10
89
20
96.367
30
0
0
VERTEX
8
CUT
10
59
20
96.367
30
0
0
SEQEND
8
CUT
0
POLYLINE
8
CUT
66
1
70
1
0
VERTEX
8
CUT
10
59
20
92.633
30
0
0
VERTEX
8
CUT
10
89
20
92.633
30
0
0
VERTEX
8
CUT
10
89
20
91.233
30
0
0
VERTEX
8
CUT
10
59
20
91.233
30
0
0
SEQEND
8
CUT
0
POLYLINE
8
RASTER
66
1
70
1
0
VERTEX
8
RASTER
10
55.6
20
101.6
30
0
0
VERTEX
8
RASTER
10
58.4
20
101.6
30
0
0
VERTEX
8
RASTER
10
58.4
20
87.4
30
0
0
VERTEX
8
RASTER
10
55.6
20
87.4
30
0
0
SEQEND
8
RASTER
0
POLYLINE
8
RASTER
66
1
70
1
0
VERTEX
8
RASTER
10
89.6
20
101.6
30
0
0
VERTEX
8
RASTER
10
92.4
20
101.6
30
0
0
VERTEX
8
RASTER
10
92.4
20
87.4
30
0
0
VERTEX
8
RASTER
10
89.6
20
87.4
30
0
0
SEQEND
8
RASTER
0
CIRCLE
8
RASTER
10
60.6
20
99.633
30
0
40
0.5
0
CIRCLE
8
RASTER
10
87.4
20
99.633
30
0
40
0.5
0
CIRCLE
8
RASTER
10
60.6
20
94.5
30
0
40
0.5
0
CIRCLE
8
RASTER
10
87.4
20
94.5
30
0
40
0.5
0
CIRCLE
8
RASTER
10
60.6
20
89.367
30
0
40
0.5
0
CIRCLE
8
RASTER
10
87.4
20
89.367
30
0
40
0.5
0
POLYLINE
8
CUT
66
1
70
1
0
VERTEX
8
CUT
10
103
20
102
30
0
0
VERTEX
8
CUT
10
127
20
102
30
0
0
VERTEX
8
CUT
10
127
20
102
30
0
0
VERTEX
8
CUT
10
127
20
97
30
0
0
VERTEX
8
CUT
10
130
20
97
30
0
0
VERTEX
8
CUT
10
130
20
92
30
0
0
VERTEX
8
CUT
10
127
20
92
30
0
0
VERTEX
8
CUT
10
127
20
87
30
0
0
VERTEX
8
CUT
10
127
20
87
30
0
0
VERTEX
8
CUT
10
127
20
87
30
0
0
VERTEX
8
CUT
10
122.2
20
87
30
0
0
VERTEX
8
CUT
10
122.2
20
84
30
0
0
VERTEX
8
CUT
10
117.4
20
84
30
0
0
VERTEX
8
CUT
10
117.4
20
87
30
0
0
VERTEX
8
CUT
10
112.6
20
87
30
0
0
VERTEX
8
CUT
10
112.6
20
84
30
0
0
VERTEX
8
CUT
10
107.8
20
84
30
0
0
VERTEX
8
CUT
10
107.8
20
87
30
0
0
VERTEX
8
CUT
10
103
20
87
30
0
0
VERTEX
8
CUT
10
103
20
87
30
0
0
VERTEX
8
CUT
10
103
20
87
30
0
0
VERTEX
8
CUT
10
103
20
92
30
0
0
VERTEX
8
CUT
10
100
20
92
30
0
0
VERTEX
8
CUT
10
100
20
97
30
0
0
VERTEX
8
CUT
10
103
20
97
30
0
0
VERTEX
8
CUT
10
103
20
102
30
0
0
VERTEX
8
CUT
10
103
20
102
30
0
0
SEQEND
8
CUT
0
POLYLINE
8
CUT
66
1
70
1
0
VERTEX
8
CUT
10
107
20
97.767
30
0
0
VERTEX
8
CUT
10
123
20
97.767
30
0
0
VERTEX
8
CUT
10
123
20
96.367
30
0
0
VERTEX
8
CUT
10
107
20
96.367
30
0
0
SEQEND
8
CUT
0
POLYLINE
8
CUT
66
1
70
1
0
VERTEX
8
CUT
10
107
20
92.633
30
0
0
VERTEX
8
CUT
10
123
20
92.633
30
0
0
VERTEX
8
CUT
10
123
20
91.233
30
0
0
VERTEX
8
CUT
10
107
20
91.233
30
0
0
SEQEND
8
CUT
0
POLYLINE
8
RASTER
66
1
70
1
0
VERTEX
8
RASTER
10
103.6
20
101.6
30
0
0
VERTEX
8
RASTER
10
106.4
20
101.6
30
0
0
VERTEX
8
RASTER
10
106.4
20
87.4
30
0
0
VERTEX
8
RASTER
10
103.6
20
87.4
30
0
0
SEQEND
8
RASTER
0
POLYLINE
8
RASTER
66
1
70
1
0
VERTEX
8
RASTER
10
123.6
20
101.6
30
0
0
VERTEX
8
RASTER
10
126.4
20
101.6
30
0
0
VERTEX
8
RASTER
10
126.4
20
87.4
30
0
0
VERTEX
8
RASTER
10
123.6
20
87.4
30
0
0
SEQEND
8
RASTER
0
CIRCLE
8
RASTER
10
108.6
20
99.633
30
0
40
0.5
0
CIRCLE
8
RASTER
10
121.4
20
99.633
30
0
40
0.5
0
CIRCLE
8
RASTER
10
108.6
20
94.5
30
0
40
0.5
0
CIRCLE
8
RASTER
10
121.4
20
94.5
30
0
40
0.5
0
CIRCLE
8
RASTER
10
108.6
20
89.367
30
0
40
0.5
0
CIRCLE
8
RASTER
10
121.4
20
89.367
30
0
40
0.5
0
POLYLINE
8
CUT
66
1
70
1
0
VERTEX
8
CUT
10
137
20
102
30
0
0
VERTEX
8
CUT
10
161
20
102
30
0
0
VERTEX
8
CUT
10
161
20
102
30
0
0
VERTEX
8
CUT
10
161
20
97
30
0
0
VERTEX
8
CUT
10
164
20
97
30
0
0
VERTEX
8
CUT
10
164
20
92
30
0
0
VERTEX
8
CUT
10
161
20
92
30
0
0
VERTEX
8
CUT
10
161
20
87
30
0
0
VERTEX
8
CUT
10
161
20
87
30
0
0
VERTEX
8
CUT
10
161
20
87
30
0
0
VERTEX
8
CUT
10
156.2
20
87
30
0
0
VERTEX
8
CUT
10
156.2
20
84
30
0
0
VERTEX
8
CUT
10
151.4
20
84
30
0
0
VERTEX
8
CUT
10
151.4
20
87
30
0
0
VERTEX
8
CUT
10
146.6
20
87
30
0
0
VERTEX
8
CUT
10
146.6
20
84
30
0
0
VERTEX
8
CUT
10
141.8
20
84
30
0
0
VERTEX
8
CUT
10
141.8
20
87
30
0
0
VERTEX
8
CUT
10
137
20
87
30
0
0
VERTEX
8
CUT
10
137
20
87
30
0
0
VERTEX
8
CUT
10
137
20
87
30
0
0
VERTEX
8
CUT
10
137
20
92
30
0
0
VERTEX
8
CUT
10
134
20
92
30
0
0
VERTEX
8
CUT
10
134
20
97
30
0
0
VERTEX
8
CUT
10
137
20
97
30
0
0
VERTEX
8
CUT
10
137
20
102
30
0
0
VERTEX
8
CUT
10
137
20
102
30
0
0
SEQEND
8
CUT
0
POLYLINE
8
CUT
66
1
70
1
0
VERTEX
8
CUT
10
141
20
97.767
30
0
0
VERTEX
8
CUT
10
157
20
97.767
30
0
0
VERTEX
8
CUT
10
157
20
96.367
30
0
0
VERTEX
8
CUT
10
141
20
96.367
30
0
0
SEQEND
8
CUT
0
POLYLINE
8
CUT
66
1
70
1
0
VERTEX
8
CUT
10
141
20
92.633
30
0
0
VERTEX
8
CUT
10
157
20
92.633
30
0
0
VERTEX
8
CUT
10
157
20
91.233
30
0
0
VERTEX
8
CUT
10
141
20
91.233
30
0
0
SEQEND
8
CUT
0
POLYLINE
8
RASTER
66
1
70
1
0
VERTEX
8
RASTER
10
137.6
20
101.6
30
0
0
VERTEX
8
RASTER
10
140.4
20
101.6
30
0
0
VERTEX
8
RASTER
10
140.4
20
87.4
30
0
0
VERTEX
8
RASTER
10
137.6
20
87.4
30
0
0
SEQEND
8
RASTER
0
POLYLINE
8
RASTER
66
1
70
1
0
VERTEX
8
RASTER
10
157.6
20
101.6
30
0
0
VERTEX
8
RASTER
10
160.4
20
101.6
30
0
0
VERTEX
8
RASTER
10
160.4
20
87.4
30
0
0
VERTEX
8
RASTER
10
157.6
20
87.4
30
0
0
SEQEND
8
RASTER
0
CIRCLE
8
RASTER
10
142.6
20
99.633
30
0
40
0.5
0
CIRCLE
8
RASTER
10
155.4
20
99.633
30
0
40
0.5
0
CIRCLE
8
RASTER
10
142.6
20
94.5
30
0
40
0.5
0
CIRCLE
8
RASTER
10
155.4
20
94.5
30
0
40
0.5
0
CIRCLE
8
RASTER
10
142.6
20
89.367
30
0
40
0.5
0
CIRCLE
8
RASTER
10
155.4
20
89.367
30
0
40
0.5
0
POLYLINE
8
CUT
66
1
70
1
0
VERTEX
8
CUT
10
168
20
102
30
0
0
VERTEX
8
CUT
10
171
20
102
30
0
0
VERTEX
8
CUT
10
171
20
102
30
0
0
VERTEX
8
CUT
10
176.429
20
102
30
0
0
VERTEX
8
CUT
10
176.429
20
99
30
0
0
VERTEX
8
CUT
10
181.857
20
99
30
0
0
VERTEX
8
CUT
10
181.857
20
102
30
0
0
VERTEX
8
CUT
10
187.286
20
102
30
0
0
VERTEX
8
CUT
10
187.286
20
99
30
0
0
VERTEX
8
CUT
10
192.714
20
99
30
0
0
VERTEX
8
CUT
10
192.714
20
102
30
0
0
VERTEX
8
CUT
10
198.143
20
102
30
0
0
VERTEX
8
CUT
10
198.143
20
99
30
0
0
VERTEX
8
CUT
10
203.571
20
99
30
0
0
VERTEX
8
CUT
10
203.571
20
102
30
0
0
VERTEX
8
CUT
10
209
20
102
30
0
0
VERTEX
8
CUT
10
209
20
102
30
0
0
VERTEX
8
CUT
10
209
20
102
30
0
0
VERTEX
8
CUT
10
212
20
102
30
0
0
VERTEX
8
CUT
10
212
20
99
30
0
0
VERTEX
8
CUT
10
212
20
99
30
0
0
VERTEX
8
CUT
10
212
20
94.2
30
0
0
VERTEX
8
CUT
10
209
20
94.2
30
0
0
VERTEX
8
CUT
10
209
20
89.4
30
0
0
VERTEX
8
CUT
10
212
20
89.4
30
0
0
VERTEX
8
CUT
10
212
20
84.6
30
0
0
VERTEX
8
CUT
10
209
20
84.6
30
0
0
VERTEX
8
CUT
10
209
20
79.8
30
0
0
VERTEX
8
CUT
10
212
20
79.8
30
0
0
VERTEX
8
CUT
10
212
20
75
30
0
0
VERTEX
8
CUT
10
212
20
75
30
0
0
VERTEX
8
CUT
10
212
20
75
30
0
0
VERTEX
8
CUT
10
212
20
72
30
0
0
VERTEX
8
CUT
10
209
20
72
30
0
0
VERTEX
8
CUT
10
209
20
72
30
0
0
VERTEX
8
CUT
10
203.571
20
72
30
0
0
VERTEX
8
CUT
10
203.571
20
75
30
0
0
VERTEX
8
CUT
10
198.143
20
75
30
0
0
VERTEX
8
CUT
10
198.143
20
72
30
0
0
VERTEX
8
CUT
10
192.714
20
72
30
0
0
VERTEX
8
CUT
10
192.714
20
75
30
0
0
VERTEX
8
CUT
10
187.286
20
75
30
0
0
VERTEX
8
CUT
10
187.286
20
72
30
0
0
VERTEX
8
CUT
10
181.857
20
72
30
0
0
VERTEX
8
CUT
10
181.857
20
75
30
0
0
VERTEX
8
CUT
10
176.429
20
75
30
0
0
VERTEX
8
CUT
10
176.429
20
72
30
0
0
VERTEX
8
CUT
10
171
20
72
30
0
0
VERTEX
8
CUT
10
171
20
72
30
0
0
VERTEX
8
CUT
10
171
20
72
30
0
0
VERTEX
8
CUT
10
168
20
72
30
0
0
VERTEX
8
CUT
10
168
20
75
30
0
0
VERTEX
8
CUT
10
168
20
75
30
0
0
VERTEX
8
CUT
10
168
20
79.8
30
0
0
VERTEX
8
CUT
10
171
20
79.8
30
0
0
VERTEX
8
CUT
10
171
20
84.6
30
0
0
VERTEX
8
CUT
10
168
20
84.6
30
0
0
VERTEX
8
CUT
10
168
20
89.4
30
0
0
VERTEX
8
CUT
10
171
20
89.4
30
0
0
VERTEX
8
CUT
10
171
20
94.2
30
0
0
VERTEX
8
CUT
10
168
20
94.2
30
0
0
VERTEX
8
CUT
10
168
20
99
30
0
0
VERTEX
8
CUT
10
168
20
99
30
0
0
VERTEX
8
CUT
10
168
20
99
30
0
0
SEQEND
8
CUT
0
POLYLINE
8
CUT
66
1
70
1
0
VERTEX
8
CUT
10
219
20
102
30
0
0
VERTEX
8
CUT
10
257
20
102
30
0
0
VERTEX
8
CUT
10
260
20
102
30
0
0
VERTEX
8
CUT
10
260
20
97
30
0
0
VERTEX
8
CUT
10
257
20
97
30
0
0
VERTEX
8
CUT
10
257
20
92
30
0
0
VERTEX
8
CUT
10
260
20
92
30
0
0
VERTEX
8
CUT
10
260
20
87
30
0
0
VERTEX
8
CUT
10
257
20
87
30
0
0
VERTEX
8
CUT
10
257
20
87
30
0
0
VERTEX
8
CUT
10
251.571
20
87
30
0
0
VERTEX
8
CUT
10
251.571
20
84
30
0
0
VERTEX
8
CUT
10
246.143
20
84
30
0
0
VERTEX
8
CUT
10
246.143
20
87
30
0
0
VERTEX
8
CUT
10
240.714
20
87
30
0
0
VERTEX
8
CUT
10
240.714
20
84
30
0
0
VERTEX
8
CUT
10
235.286
20
84
30
0
0
VERTEX
8
CUT
10
235.286
20
87
30
0
0
VERTEX
8
CUT
10
229.857
20
87
30
0
0
VERTEX
8
CUT
10
229.857
20
84
30
0
0
VERTEX
8
CUT
10
224.429
20
84
30
0
0
VERTEX
8
CUT
10
224.429
20
87
30
0
0
VERTEX
8
CUT
10
219
20
87
30
0
0
VERTEX
8
CUT
10
219
20
87
30
0
0
VERTEX
8
CUT
10
216
20
87
30
0
0
VERTEX
8
CUT
10
216
20
92
30
0
0
VERTEX
8
CUT
10
219
20
92
30
0
0
VERTEX
8
CUT
10
219
20
97
30
0
0
VERTEX
8
CUT
10
216
20
97
30
0
0
VERTEX
8
CUT
10
216
20
102
30
0
0
VERTEX
8
CUT
10
219
20
102
30
0
0
SEQEND
8
CUT
0
POLYLINE
8
CUT
66
1
70
1
0
VERTEX
8
CUT
10
223
20
97.767
30
0
0
VERTEX
8
CUT
10
253
20
97.767
30
0
0
VERTEX
8
CUT
10
253
20
96.367
30
0
0
VERTEX
8
CUT
10
223
20
96.367
30
0
0
SEQEND
8
CUT
0
POLYLINE
8
CUT
66
1
70
1
0
VERTEX
8
CUT
10
223
20
92.633
30
0
0
VERTEX
8
CUT
10
253
20
92.633
30
0
0
VERTEX
8
CUT
10
253
20
91.233
30
0
0
VERTEX
8
CUT
10
223
20
91.233
30
0
0
SEQEND
8
CUT
0
POLYLINE
8
RASTER
66
1
70
1
0
VERTEX
8
RASTER
10
219.6
20
101.6
30
0
0
VERTEX
8
RASTER
10
222.4
20
101.6
30
0
0
VERTEX
8
RASTER
10
222.4
20
87.4
30
0
0
VERTEX
8
RASTER
10
219.6
20
87.4
30
0
0
SEQEND
8
RASTER
0
POLYLINE
8
RASTER
66
1
70
1
0
VERTEX
8
RASTER
10
253.6
20
101.6
30
0
0
VERTEX
8
RASTER
10
256.4
20
101.6
30
0
0
VERTEX
8
RASTER
10
256.4
20
87.4
30
0
0
VERTEX
8
RASTER
10
253.6
20
87.4
30
0
0
SEQEND
8
RASTER
0
CIRCLE
8
RASTER
10
224.6
20
99.633
30
0
40
0.5
0
CIRCLE
8
RASTER
10
251.4
20
99.633
30
0
40
0.5
0
CIRCLE
8
RASTER
10
224.6
20
94.5
30
0
40
0.5
0
CIRCLE
8
RASTER
10
251.4
20
94.5
30
0
40
0.5
0
CIRCLE
8
RASTER
10
224.6
20
89.367
30
0
40
0.5
0
CIRCLE
8
RASTER
10
251.4
20
89.367
30
0
40
0.5
0
POLYLINE
8
RASTER
66
1
70
1
0
VERTEX
8
RASTER
10
233.5
20
100.3
30
0
0
VERTEX
8
RASTER
10
234.4
20
100.3
30
0
0
VERTEX
8
RASTER
10
234.4
20
99.4
30
0
0
VERTEX
8
RASTER
10
233.5
20
99.4
30
0
0
SEQEND
8
RASTER
0
POLYLINE
8
RASTER
66
1
70
1
0
VERTEX
8
RASTER
10
234.6
20
100.3
30
0
0
VERTEX
8
RASTER
10
235.5
20
100.3
30
0
0
VERTEX
8
RASTER
10
235.5
20
99.4
30
0
0
VERTEX
8
RASTER
10
234.6
20
99.4
30
0
0
SEQEND
8
RASTER
0
POLYLINE
8
RASTER
66
1
70
1
0
VERTEX
8
RASTER
10
235.7
20
100.3
30
0
0
VERTEX
8
RASTER
10
236.6
20
100.3
30
0
0
VERTEX
8
RASTER
10
236.6
20
99.4
30
0
0
VERTEX
8
RASTER
10
235.7
20
99.4
30
0
0
SEQEND
8
RASTER
0
POLYLINE
8
RASTER
66
1
70
1
0
VERTEX
8
RASTER
10
236.8
20
100.3
30
0
0
VERTEX
8
RASTER
10
237.7
20
100.3
30
0
0
VERTEX
8
RASTER
10
237.7
20
99.4
30
0
0
VERTEX
8
RASTER
10
236.8
20
99.4
30
0
0
SEQEND
8
RASTER
0
POLYLINE
8
RASTER
66
1
70
1
0
VERTEX
8
RASTER
10
237.9
20
100.3
30
0
0
VERTEX
8
RASTER
10
238.8
20
100.3
30
0
0
VERTEX
8
RASTER
10
238.8
20
99.4
30
0
0
VERTEX
8
RASTER
10
237.9
20
99.4
30
0
0
SEQEND
8
RASTER
0
POLYLINE
8
RASTER
66
1
70
1
0
VERTEX
8
RASTER
10
239
20
100.3
30
0
0
VERTEX
8
RASTER
10
239.9
20
100.3
30
0
0
VERTEX
8
RASTER
10
239.9
20
99.4
30
0
0
VERTEX
8
RASTER
10
239
20
99.4
30
0
0
SEQEND
8
RASTER
0
POLYLINE
8
RASTER
66
1
70
1
0
VERTEX
8
RASTER
10
240.1
20
100.3
30
0
0
VERTEX
8
RASTER
10
241
20
100.3
30
0
0
VERTEX
8
RASTER
10
241
20
99.4
30
0
0
VERTEX
8
RASTER
10
240.1
20
99.4
30
0
0
SEQEND
8
RASTER
0
POLYLINE
8
RASTER
66
1
70
1
0
VERTEX
8
RASTER
10
241.2
20
100.3
30
0
0
VERTEX
8
RASTER
10
242.1
20
100.3
30
0
0
VERTEX
8
RASTER
10
242.1
20
99.4
30
0
0
VERTEX
8
RASTER
10
241.2
20
99.4
30
0
0
SEQEND
8
RASTER
0
POLYLINE
8
RASTER
66
1
70
1
0
VERTEX
8
RASTER
10
233.5
20
98.1
30
0
0
VERTEX
8
RASTER
10
234.4
20
98.1
30
0
0
VERTEX
8
RASTER
10
234.4
20
97.2
30
0
0
VERTEX
8
RASTER
10
233.5
20
97.2
30
0
0
SEQEND
8
RASTER
0
POLYLINE
8
RASTER
66
1
70
1
0
VERTEX
8
RASTER
10
234.6
20
98.1
30
0
0
VERTEX
8
RASTER
10
235.5
20
98.1
30
0
0
VERTEX
8
RASTER
10
235.5
20
97.2
30
0
0
VERTEX
8
RASTER
10
234.6
20
97.2
30
0
0
SEQEND
8
RASTER
0
POLYLINE
8
RASTER
66
1
70
1
0
VERTEX
8
RASTER
10
235.7
20
98.1
30
0
0
VERTEX
8
RASTER
10
236.6
20
98.1
30
0
0
VERTEX
8
RASTER
10
236.6
20
97.2
30
0
0
VERTEX
8
RASTER
10
235.7
20
97.2
30
0
0
SEQEND
8
RASTER
0
POLYLINE
8
RASTER
66
1
70
1
0
VERTEX
8
RASTER
10
236.8
20
98.1
30
0
0
VERTEX
8
RASTER
10
237.7
20
98.1
30
0
0
VERTEX
8
RASTER
10
237.7
20
97.2
30
0
0
VERTEX
8
RASTER
10
236.8
20
97.2
30
0
0
SEQEND
8
RASTER
0
POLYLINE
8
RASTER
66
1
70
1
0
VERTEX
8
RASTER
10
237.9
20
98.1
30
0
0
VERTEX
8
RASTER
10
238.8
20
98.1
30
0
0
VERTEX
8
RASTER
10
238.8
20
97.2
30
0
0
VERTEX
8
RASTER
10
237.9
20
97.2
30
0
0
SEQEND
8
RASTER
0
POLYLINE
8
RASTER
66
1
70
1
0
VERTEX
8
RASTER
10
239
20
98.1
30
0
0
VERTEX
8
RASTER
10
239.9
20
98.1
30
0
0
VERTEX
8
RASTER
10
239.9
20
97.2
30
0
0
VERTEX
8
RASTER
10
239
20
97.2
30
0
0
SEQEND
8
RASTER
0
POLYLINE
8
RASTER
66
1
70
1
0
VERTEX
8
RASTER
10
240.1
20
98.1
30
0
0
VERTEX
8
RASTER
10
241
20
98.1
30
0
0
VERTEX
8
RASTER
10
241
20
97.2
30
0
0
VERTEX
8
RASTER
10
240.1
20
97.2
30
0
0
SEQEND
8
RASTER
0
POLYLINE
8
RASTER
66
1
70
1
0
VERTEX
8
RASTER
10
241.2
20
98.1
30
0
0
VERTEX
8
RASTER
10
242.1
20
98.1
30
0
0
VERTEX
8
RASTER
10
242.1
20
97.2
30
0
0
VERTEX
8
RASTER
10
241.2
20
97.2
30
0
0
SEQEND
8
RASTER
0
POLYLINE
8
CUT
66
1
70
1
0
VERTEX
8
CUT
10
7
20
68
30
0
0
VERTEX
8
CUT
10
45
20
68
30
0
0
VERTEX
8
CUT
10
48
20
68
30
0
0
VERTEX
8
CUT
10
48
20
63
30
0
0
VERTEX
8
CUT
10
45
20
63
30
0
0
VERTEX
8
CUT
10
45
20
58
30
0
0
VERTEX
8
CUT
10
48
20
58
30
0
0
VERTEX
8
CUT
10
48
20
53
30
0
0
VERTEX
8
CUT
10
45
20
53
30
0
0
VERTEX
8
CUT
10
45
20
53
30
0
0
VERTEX
8
CUT
10
39.571
20
53
30
0
0
VERTEX
8
CUT
10
39.571
20
50
30
0
0
VERTEX
8
CUT
10
34.143
20
50
30
0
0
VERTEX
8
CUT
10
34.143
20
53
30
0
0
VERTEX
8
CUT
10
28.714
20
53
30
0
0
VERTEX
8
CUT
10
28.714
20
50
30
0
0
VERTEX
8
CUT
10
23.286
20
50
30
0
0
VERTEX
8
CUT
10
23.286
20
53
30
0
0
VERTEX
8
CUT
10
17.857
20
53
30
0
0
VERTEX
8
CUT
10
17.857
20
50
30
0
0
VERTEX
8
CUT
10
12.429
20
50
30
0
0
VERTEX
8
CUT
10
12.429
20
53
30
0
0
VERTEX
8
CUT
10
7
20
53
30
0
0
VERTEX
8
CUT
10
7
20
53
30
0
0
VERTEX
8
CUT
10
4
20
53
30
0
0
VERTEX
8
CUT
10
4
20
58
30
0
0
VERTEX
8
CUT
10
7
20
58
30
0
0
VERTEX
8
CUT
10
7
20
63
30
0
0
VERTEX
8
CUT
10
4
20
63
30
0
0
VERTEX
8
CUT
10
4
20
68
30
0
0
VERTEX
8
CUT
10
7
20
68
30
0
0
SEQEND
8
CUT
0
POLYLINE
8
CUT
66
1
70
1
0
VERTEX
8
CUT
10
11
20
63.767
30
0
0
VERTEX
8
CUT
10
41
20
63.767
30
0
0
VERTEX
8
CUT
10
41
20
62.367
30
0
0
VERTEX
8
CUT
10
11
20
62.367
30
0
0
SEQEND
8
CUT
0
POLYLINE
8
CUT
66
1
70
1
0
VERTEX
8
CUT
10
11
20
58.633
30
0
0
VERTEX
8
CUT
10
41
20
58.633
30
0
0
VERTEX
8
CUT
10
41
20
57.233
30
0
0
VERTEX
8
CUT
10
11
20
57.233
30
0
0
SEQEND
8
CUT
0
POLYLINE
8
RASTER
66
1
70
1
0
VERTEX
8
RASTER
10
7.6
20
67.6
30
0
0
VERTEX
8
RASTER
10
10.4
20
67.6
30
0
0
VERTEX
8
RASTER
10
10.4
20
53.4
30
0
0
VERTEX
8
RASTER
10
7.6
20
53.4
30
0
0
SEQEND
8
RASTER
0
POLYLINE
8
RASTER
66
1
70
1
0
VERTEX
8
RASTER
10
41.6
20
67.6
30
0
0
VERTEX
8
RASTER
10
44.4
20
67.6
30
0
0
VERTEX
8
RASTER
10
44.4
20
53.4
30
0
0
VERTEX
8
RASTER
10
41.6
20
53.4
30
0
0
SEQEND
8
RASTER
0
CIRCLE
8
RASTER
10
12.6
20
65.633
30
0
40
0.5
0
CIRCLE
8
RASTER
10
39.4
20
65.633
30
0
40
0.5
0
CIRCLE
8
RASTER
10
12.6
20
60.5
30
0
40
0.5
0
CIRCLE
8
RASTER
10
39.4
20
60.5
30
0
40
0.5
0
CIRCLE
8
RASTER
10
12.6
20
55.367
30
0
40
0.5
0
CIRCLE
8
RASTER
10
39.4
20
55.367
30
0
40
0.5
0
POLYLINE
8
CUT
66
1
70
1
0
VERTEX
8
CUT
10
55
20
68
30
0
0
VERTEX
8
CUT
10
79
20
68
30
0
0
VERTEX
8
CUT
10
79
20
68
30
0
0
VERTEX
8
CUT
10
79
20
63
30
0
0
VERTEX
8
CUT
10
82
20
63
30
0
0
VERTEX
8
CUT
10
82
20
58
30
0
0
VERTEX
8
CUT
10
79
20
58
30
0
0
VERTEX
8
CUT
10
79
20
53
30
0
0
VERTEX
8
CUT
10
79
20
53
30
0
0
VERTEX
8
CUT
10
79
20
53
30
0
0
VERTEX
8
CUT
10
74.2
20
53
30
0
0
VERTEX
8
CUT
10
74.2
20
50
30
0
0
VERTEX
8
CUT
10
69.4
20
50
30
0
0
VERTEX
8
CUT
10
69.4
20
53
30
0
0
VERTEX
8
CUT
10
64.6
20
53
30
0
0
VERTEX
8
CUT
10
64.6
20
50
30
0
0
VERTEX
8
CUT
10
59.8
20
50
30
0
0
VERTEX
8
CUT
10
59.8
20
53
30
0
0
VERTEX
8
CUT
10
55
20
53
30
0
0
VERTEX
8
CUT
10
55
20
53
30
0
0
VERTEX
8
CUT
10
55
20
53
30
0
0
VERTEX
8
CUT
10
55
20
58
30
0
0
VERTEX
8
CUT
10
52
20
58
30
0
0
VERTEX
8
CUT
10
52
20
63
30
0
0
VERTEX
8
CUT
10
55
20
63
30
0
0
VERTEX
8
CUT
10
55
20
68
30
0
0
VERTEX
8
CUT
10
55
20
68
30
0
0
SEQEND
8
CUT
0
POLYLINE
8
CUT
66
1
70
1
0
VERTEX
8
CUT
10
59
20
63.767
30
0
0
VERTEX
8
CUT
10
75
20
63.767
30
0
0
VERTEX
8
CUT
10
75
20
62.367
30
0
0
VERTEX
8
CUT
10
59
20
62.367
30
0
0
SEQEND
8
CUT
0
POLYLINE
8
CUT
66
1
70
1
0
VERTEX
8
CUT
10
59
20
58.633
30
0
0
VERTEX
8
CUT
10
75
20
58.633
30
0
0
VERTEX
8
CUT
10
75
20
57.233
30
0
0
VERTEX
8
CUT
10
59
20
57.233
30
0
0
SEQEND
8
CUT
0
POLYLINE
8
RASTER
66
1
70
1
0
VERTEX
8
RASTER
10
55.6
20
67.6
30
0
0
VERTEX
8
RASTER
10
58.4
20
67.6
30
0
0
VERTEX
8
RASTER
10
58.4
20
53.4
30
0
0
VERTEX
8
RASTER
10
55.6
20
53.4
30
0
0
SEQEND
8
RASTER
0
POLYLINE
8
RASTER
66
1
70
1
0
VERTEX
8
RASTER
10
75.6
20
67.6
30
0
0
VERTEX
8
RASTER
10
78.4
20
67.6
30
0
0
VERTEX
8
RASTER
10
78.4
20
53.4
30
0
0
VERTEX
8
RASTER
10
75.6
20
53.4
30
0
0
SEQEND
8
RASTER
0
CIRCLE
8
RASTER
10
60.6
20
65.633
30
0
40
0.5
0
CIRCLE
8
RASTER
10
73.4
20
65.633
30
0
40
0.5
0
CIRCLE
8
RASTER
10
60.6
20
60.5
30
0
40
0.5
0
CIRCLE
8
RASTER
10
73.4
20
60.5
30
0
40
0.5
0
CIRCLE
8
RASTER
10
60.6
20
55.367
30
0
40
0.5
0
CIRCLE
8
RASTER
10
73.4
20
55.367
30
0
40
0.5
0
POLYLINE
8
CUT
66
1
70
1
0
VERTEX
8
CUT
10
89
20
68
30
0
0
VERTEX
8
CUT
10
113
20
68
30
0
0
VERTEX
8
CUT
10
113
20
68
30
0
0
VERTEX
8
CUT
10
113
20
63
30
0
0
VERTEX
8
CUT
10
116
20
63
30
0
0
VERTEX
8
CUT
10
116
20
58
30
0
0
VERTEX
8
CUT
10
113
20
58
30
0
0
VERTEX
8
CUT
10
113
20
53
30
0
0
VERTEX
8
CUT
10
113
20
53
30
0
0
VERTEX
8
CUT
10
113
20
53
30
0
0
VERTEX
8
CUT
10
108.2
20
53
30
0
0
VERTEX
8
CUT
10
108.2
20
50
30
0
0
VERTEX
8
CUT
10
103.4
20
50
30
0
0
VERTEX
8
CUT
10
103.4
20
53
30
0
0
VERTEX
8
CUT
10
98.6
20
53
30
0
0
VERTEX
8
CUT
10
98.6
20
50
30
0
0
VERTEX
8
CUT
10
93.8
20
50
30
0
0
VERTEX
8
CUT
10
93.8
20
53
30
0
0
VERTEX
8
CUT
10
89
20
53
30
0
0
VERTEX
8
CUT
10
89
20
53
30
0
0
VERTEX
8
CUT
10
89
20
53
30
0
0
VERTEX
8
CUT
10
89
20
58
30
0
0
VERTEX
8
CUT
10
86
20
58
30
0
0
VERTEX
8
CUT
10
86
20
63
30
0
0
VERTEX
8
CUT
10
89
20
63
30
0
0
VERTEX
8
CUT
10
89
20
68
30
0
0
VERTEX
8
CUT
10
89
20
68
30
0
0
SEQEND
8
CUT
0
POLYLINE
8
CUT
66
1
70
1
0
VERTEX
8
CUT
10
93
20
63.767
30
0
0
VERTEX
8
CUT
10
109
20
63.767
30
0
0
VERTEX
8
CUT
10
109
20
62.367
30
0
0
VERTEX
8
CUT
10
93
20
62.367
30
0
0
SEQEND
8
CUT
0
POLYLINE
8
CUT
66
1
70
1
0
VERTEX
8
CUT
10
93
20
58.633
30
0
0
VERTEX
8
CUT
10
109
20
58.633
30
0
0
VERTEX
8
CUT
10
109
20
57.233
30
0
0
VERTEX
8
CUT
10
93
20
57.233
30
0
0
SEQEND
8
CUT
0
POLYLINE
8
RASTER
66
1
70
1
0
VERTEX
8
RASTER
10
89.6
20
67.6
30
0
0
VERTEX
8
RASTER
10
92.4
20
67.6
30
0
0
VERTEX
8
RASTER
10
92.4
20
53.4
30
0
0
VERTEX
8
RASTER
10
89.6
20
53.4
30
0
0
SEQEND
8
RASTER
0
POLYLINE
8
RASTER
66
1
70
1
0
VERTEX
8
RASTER
10
109.6
20
67.6
30
0
0
VERTEX
8
RASTER
10
112.4
20
67.6
30
0
0
VERTEX
8
RASTER
10
112.4
20
53.4
30
0
0
VERTEX
8
RASTER
10
109.6
20
53.4
30
0
0
SEQEND
8
RASTER
0
CIRCLE
8
RASTER
10
94.6
20
65.633
30
0
40
0.5
0
CIRCLE
8
RASTER
10
107.4
20
65.633
30
0
40
0.5
0
CIRCLE
8
RASTER
10
94.6
20
60.5
30
0
40
0.5
0
CIRCLE
8
RASTER
10
107.4
20
60.5
30
0
40
0.5
0
CIRCLE
8
RASTER
10
94.6
20
55.367
30
0
40
0.5
0
CIRCLE
8
RASTER
10
107.4
20
55.367
30
0
40
0.5
0
POLYLINE
8
CUT
66
1
70
1
0
VERTEX
8
CUT
10
120
20
68
30
0
0
VERTEX
8
CUT
10
123
20
68
30
0
0
VERTEX
8
CUT
10
123
20
68
30
0
0
VERTEX
8
CUT
10
128.429
20
68
30
0
0
VERTEX
8
CUT
10
128.429
20
65
30
0
0
VERTEX
8
CUT
10
133.857
20
65
30
0
0
VERTEX
8
CUT
10
133.857
20
68
30
0
0
VERTEX
8
CUT
10
139.286
20
68
30
0
0
VERTEX
8
CUT
10
139.286
20
65
30
0
0
VERTEX
8
CUT
10
144.714
20
65
30
0
0
VERTEX
8
CUT
10
144.714
20
68
30
0
0
VERTEX
8
CUT
10
150.143
20
68
30
0
0
VERTEX
8
CUT
10
150.143
20
65
30
0
0
VERTEX
8
CUT
10
155.571
20
65
30
0
0
VERTEX
8
CUT
10
155.571
20
68
30
0
0
VERTEX
8
CUT
10
161
20
68
30
0
0
VERTEX
8
CUT
10
161
20
68
30
0
0
VERTEX
8
CUT
10
161
20
68
30
0
0
VERTEX
8
CUT
10
164
20
68
30
0
0
VERTEX
8
CUT
10
164
20
65
30
0
0
VERTEX
8
CUT
10
164
20
65
30
0
0
VERTEX
8
CUT
10
164
20
60.2
30
0
0
VERTEX
8
CUT
10
161
20
60.2
30
0
0
VERTEX
8
CUT
10
161
20
55.4
30
0
0
VERTEX
8
CUT
10
164
20
55.4
30
0
0
VERTEX
8
CUT
10
164
20
50.6
30
0
0
VERTEX
8
CUT
10
161
20
50.6
30
0
0
VERTEX
8
CUT
10
161
20
45.8
30
0
0
VERTEX
8
CUT
10
164
20
45.8
30
0
0
VERTEX
8
CUT
10
164
20
41
30
0
0
VERTEX
8
CUT
10
164
20
41
30
0
0
VERTEX
8
CUT
10
164
20
41
30
0
0
VERTEX
8
CUT
10
164
20
38
30
0
0
VERTEX
8
CUT
10
161
20
38
30
0
0
VERTEX
8
CUT
10
161
20
38
30
0
0
VERTEX
8
CUT
10
155.571
20
38
30
0
0
VERTEX
8
CUT
10
155.571
20
41
30
0
0
VERTEX
8
CUT
10
150.143
20
41
30
0
0
VERTEX
8
CUT
10
150.143
20
38
30
0
0
VERTEX
8
CUT
10
144.714
20
38
30
0
0
VERTEX
8
CUT
10
144.714
20
41
30
0
0
VERTEX
8
CUT
10
139.286
20
41
30
0
0
VERTEX
8
CUT
10
139.286
20
38
30
0
0
VERTEX
8
CUT
10
133.857
20
38
30
0
0
VERTEX
8
CUT
10
133.857
20
41
30
0
0
VERTEX
8
CUT
10
128.429
20
41
30
0
0
VERTEX
8
CUT
10
128.429
20
38
30
0
0
VERTEX
8
CUT
10
123
20
38
30
0
0
VERTEX
8
CUT
10
123
20
38
30
0
0
VERTEX
8
CUT
10
123
20
38
30
0
0
VERTEX
8
CUT
10
120
20
38
30
0
0
VERTEX
8
CUT
10
120
20
41
30
0
0
VERTEX
8
CUT
10
120
20
41
30
0
0
VERTEX
8
CUT
10
120
20
45.8
30
0
0
VERTEX
8
CUT
10
123
20
45.8
30
0
0
VERTEX
8
CUT
10
123
20
50.6
30
0
0
VERTEX
8
CUT
10
120
20
50.6
30
0
0
VERTEX
8
CUT
10
120
20
55.4
30
0
0
VERTEX
8
CUT
10
123
20
55.4
30
0
0
VERTEX
8
CUT
10
123
20
60.2
30
0
0
VERTEX
8
CUT
10
120
20
60.2
30
0
0
VERTEX
8
CUT
10
120
20
65
30
0
0
VERTEX
8
CUT
10
120
20
65
30
0
0
VERTEX
8
CUT
10
120
20
65
30
0
0
SEQEND
8
CUT
0
POLYLINE
8
CUT
66
1
70
1
0
VERTEX
8
CUT
10
171
20
68
30
0
0
VERTEX
8
CUT
10
209
20
68
30
0
0
VERTEX
8
CUT
10
212
20
68
30
0
0
VERTEX
8
CUT
10
212
20
63
30
0
0
VERTEX
8
CUT
10
209
20
63
30
0
0
VERTEX
8
CUT
10
209
20
58
30
0
0
VERTEX
8
CUT
10
212
20
58
30
0
0
VERTEX
8
CUT
10
212
20
53
30
0
0
VERTEX
8
CUT
10
209
20
53
30
0
0
VERTEX
8
CUT
10
209
20
53
30
0
0
VERTEX
8
CUT
10
203.571
20
53
30
0
0
VERTEX
8
CUT
10
203.571
20
50
30
0
0
VERTEX
8
CUT
10
198.143
20
50
30
0
0
VERTEX
8
CUT
10
198.143
20
53
30
0
0
VERTEX
8
CUT
10
192.714
20
53
30
0
0
VERTEX
8
CUT
10
192.714
20
50
30
0
0
VERTEX
8
CUT
10
187.286
20
50
30
0
0
VERTEX
8
CUT
10
187.286
20
53
30
0
0
VERTEX
8
CUT
10
181.857
20
53
30
0
0
VERTEX
8
CUT
10
181.857
20
50
30
0
0
VERTEX
8
CUT
10
176.429
20
50
30
0
0
VERTEX
8
CUT
10
176.429
20
53
30
0
0
VERTEX
8
CUT
10
171
20
53
30
0
0
VERTEX
8
CUT
10
171
20
53
30
0
0
VERTEX
8
CUT
10
168
20
53
30
0
0
VERTEX
8
CUT
10
168
20
58
30
0
0
VERTEX
8
CUT
10
171
20
58
30
0
0
VERTEX
8
CUT
10
171
20
63
30
0
0
VERTEX
8
CUT
10
168
20
63
30
0
0
VERTEX
8
CUT
10
168
20
68
30
0
0
VERTEX
8
CUT
10
171
20
68
30
0
0
SEQEND
8
CUT
0
POLYLINE
8
CUT
66
1
70
1
0
VERTEX
8
CUT
10
175
20
63.767
30
0
0
VERTEX
8
CUT
10
205
20
63.767
30
0
0
VERTEX
8
CUT
10
205
20
62.367
30
0
0
VERTEX
8
CUT
10
175
20
62.367
30
0
0
SEQEND
8
CUT
0
POLYLINE
8
CUT
66
1
70
1
0
VERTEX
8
CUT
10
175
20
58.633
30
0
0
VERTEX
8
CUT
10
205
20
58.633
30
0
0
VERTEX
8
CUT
10
205
20
57.233
30
0
0
VERTEX
8
CUT
10
175
20
57.233
30
0
0
SEQEND
8
CUT
0
POLYLINE
8
RASTER
66
1
70
1
0
VERTEX
8
RASTER
10
171.6
20
67.6
30
0
0
VERTEX
8
RASTER
10
174.4
20
67.6
30
0
0
VERTEX
8
RASTER
10
174.4
20
53.4
30
0
0
VERTEX
8
RASTER
10
171.6
20
53.4
30
0
0
SEQEND
8
RASTER
0
POLYLINE
8
RASTER
66
1
70
1
0
VERTEX
8
RASTER
10
205.6
20
67.6
30
0
0
VERTEX
8
RASTER
10
208.4
20
67.6
30
0
0
VERTEX
8
RASTER
10
208.4
20
53.4
30
0
0
VERTEX
8
RASTER
10
205.6
20
53.4
30
0
0
SEQEND
8
RASTER
0
CIRCLE
8
RASTER
10
176.6
20
65.633
30
0
40
0.5
0
CIRCLE
8
RASTER
10
203.4
20
65.633
30
0
40
0.5
0
CIRCLE
8
RASTER
10
176.6
20
60.5
30
0
40
0.5
0
CIRCLE
8
RASTER
10
203.4
20
60.5
30
0
40
0.5
0
CIRCLE
8
RASTER
10
176.6
20
55.367
30
0
40
0.5
0
CIRCLE
8
RASTER
10
203.4
20
55.367
30
0
40
0.5
0
CIRCLE
8
RASTER
10
185.95
20
65.85
30
0
40
0.32
0
CIRCLE
8
RASTER
10
187.05
20
65.85
30
0
40
0.32
0
CIRCLE
8
RASTER
10
188.15
20
65.85
30
0
40
0.32
0
CIRCLE
8
RASTER
10
189.25
20
65.85
30
0
40
0.32
0
CIRCLE
8
RASTER
10
190.35
20
65.85
30
0
40
0.32
0
CIRCLE
8
RASTER
10
191.45
20
65.85
30
0
40
0.32
0
CIRCLE
8
RASTER
10
192.55
20
65.85
30
0
40
0.32
0
CIRCLE
8
RASTER
10
193.65
20
65.85
30
0
40
0.32
0
CIRCLE
8
RASTER
10
185.95
20
64.75
30
0
40
0.32
0
CIRCLE
8
RASTER
10
187.05
20
64.75
30
0
40
0.32
0
CIRCLE
8
RASTER
10
188.15
20
64.75
30
0
40
0.32
0
CIRCLE
8
RASTER
10
189.25
20
64.75
30
0
40
0.32
0
CIRCLE
8
RASTER
10
190.35
20
64.75
30
0
40
0.32
0
CIRCLE
8
RASTER
10
191.45
20
64.75
30
0
40
0.32
0
CIRCLE
8
RASTER
10
192.55
20
64.75
30
0
40
0.32
0
CIRCLE
8
RASTER
10
193.65
20
64.75
30
0
40
0.32
0
CIRCLE
8
RASTER
10
185.95
20
63.65
30
0
40
0.32
0
CIRCLE
8
RASTER
10
187.05
20
63.65
30
0
40
0.32
0
CIRCLE
8
RASTER
10
188.15
20
63.65
30
0
40
0.32
0
CIRCLE
8
RASTER
10
189.25
20
63.65
30
0
40
0.32
0
CIRCLE
8
RASTER
10
190.35
20
63.65
30
0
40
0.32
0
CIRCLE
8
RASTER
10
191.45
20
63.65
30
0
40
0.32
0
CIRCLE
8
RASTER
10
192.55
20
63.65
30
0
40
0.32
0
CIRCLE
8
RASTER
10
193.65
20
63.65
30
0
40
0.32
0
POLYLINE
8
CUT
66
1
70
1
0
VERTEX
8
CUT
10
219
20
68
30
0
0
VERTEX
8
CUT
10
257
20
68
30
0
0
VERTEX
8
CUT
10
260
20
68
30
0
0
VERTEX
8
CUT
10
260
20
63
30
0
0
VERTEX
8
CUT
10
257
20
63
30
0
0
VERTEX
8
CUT
10
257
20
58
30
0
0
VERTEX
8
CUT
10
260
20
58
30
0
0
VERTEX
8
CUT
10
260
20
53
30
0
0
VERTEX
8
CUT
10
257
20
53
30
0
0
VERTEX
8
CUT
10
257
20
53
30
0
0
VERTEX
8
CUT
10
251.571
20
53
30
0
0
VERTEX
8
CUT
10
251.571
20
50
30
0
0
VERTEX
8
CUT
10
246.143
20
50
30
0
0
VERTEX
8
CUT
10
246.143
20
53
30
0
0
VERTEX
8
CUT
10
240.714
20
53
30
0
0
VERTEX
8
CUT
10
240.714
20
50
30
0
0
VERTEX
8
CUT
10
235.286
20
50
30
0
0
VERTEX
8
CUT
10
235.286
20
53
30
0
0
VERTEX
8
CUT
10
229.857
20
53
30
0
0
VERTEX
8
CUT
10
229.857
20
50
30
0
0
VERTEX
8
CUT
10
224.429
20
50
30
0
0
VERTEX
8
CUT
10
224.429
20
53
30
0
0
VERTEX
8
CUT
10
219
20
53
30
0
0
VERTEX
8
CUT
10
219
20
53
30
0
0
VERTEX
8
CUT
10
216
20
53
30
0
0
VERTEX
8
CUT
10
216
20
58
30
0
0
VERTEX
8
CUT
10
219
20
58
30
0
0
VERTEX
8
CUT
10
219
20
63
30
0
0
VERTEX
8
CUT
10
216
20
63
30
0
0
VERTEX
8
CUT
10
216
20
68
30
0
0
VERTEX
8
CUT
10
219
20
68
30
0
0
SEQEND
8
CUT
0
POLYLINE
8
CUT
66
1
70
1
0
VERTEX
8
CUT
10
223
20
63.767
30
0
0
VERTEX
8
CUT
10
253
20
63.767
30
0
0
VERTEX
8
CUT
10
253
20
62.367
30
0
0
VERTEX
8
CUT
10
223
20
62.367
30
0
0
SEQEND
8
CUT
0
POLYLINE
8
CUT
66
1
70
1
0
VERTEX
8
CUT
10
223
20
58.633
30
0
0
VERTEX
8
CUT
10
253
20
58.633
30
0
0
VERTEX
8
CUT
10
253
20
57.233
30
0
0
VERTEX
8
CUT
10
223
20
57.233
30
0
0
SEQEND
8
CUT
0
POLYLINE
8
RASTER
66
1
70
1
0
VERTEX
8
RASTER
10
219.6
20
67.6
30
0
0
VERTEX
8
RASTER
10
222.4
20
67.6
30
0
0
VERTEX
8
RASTER
10
222.4
20
53.4
30
0
0
VERTEX
8
RASTER
10
219.6
20
53.4
30
0
0
SEQEND
8
RASTER
0
POLYLINE
8
RASTER
66
1
70
1
0
VERTEX
8
RASTER
10
253.6
20
67.6
30
0
0
VERTEX
8
RASTER
10
256.4
20
67.6
30
0
0
VERTEX
8
RASTER
10
256.4
20
53.4
30
0
0
VERTEX
8
RASTER
10
253.6
20
53.4
30
0
0
SEQEND
8
RASTER
0
CIRCLE
8
RASTER
10
224.6
20
65.633
30
0
40
0.5
0
CIRCLE
8
RASTER
10
251.4
20
65.633
30
0
40
0.5
0
CIRCLE
8
RASTER
10
224.6
20
60.5
30
0
40
0.5
0
CIRCLE
8
RASTER
10
251.4
20
60.5
30
0
40
0.5
0
CIRCLE
8
RASTER
10
224.6
20
55.367
30
0
40
0.5
0
CIRCLE
8
RASTER
10
251.4
20
55.367
30
0
40
0.5
0
POLYLINE
8
CUT
66
1
70
1
0
VERTEX
8
CUT
10
267
20
68
30
0
0
VERTEX
8
CUT
10
291
20
68
30
0
0
VERTEX
8
CUT
10
291
20
68
30
0
0
VERTEX
8
CUT
10
291
20
63
30
0
0
VERTEX
8
CUT
10
294
20
63
30
0
0
VERTEX
8
CUT
10
294
20
58
30
0
0
VERTEX
8
CUT
10
291
20
58
30
0
0
VERTEX
8
CUT
10
291
20
53
30
0
0
VERTEX
8
CUT
10
291
20
53
30
0
0
VERTEX
8
CUT
10
291
20
53
30
0
0
VERTEX
8
CUT
10
286.2
20
53
30
0
0
VERTEX
8
CUT
10
286.2
20
50
30
0
0
VERTEX
8
CUT
10
281.4
20
50
30
0
0
VERTEX
8
CUT
10
281.4
20
53
30
0
0
VERTEX
8
CUT
10
276.6
20
53
30
0
0
VERTEX
8
CUT
10
276.6
20
50
30
0
0
VERTEX
8
CUT
10
271.8
20
50
30
0
0
VERTEX
8
CUT
10
271.8
20
53
30
0
0
VERTEX
8
CUT
10
267
20
53
30
0
0
VERTEX
8
CUT
10
267
20
53
30
0
0
VERTEX
8
CUT
10
267
20
53
30
0
0
VERTEX
8
CUT
10
267
20
58
30
0
0
VERTEX
8
CUT
10
264
20
58
30
0
0
VERTEX
8
CUT
10
264
20
63
30
0
0
VERTEX
8
CUT
10
267
20
63
30
0
0
VERTEX
8
CUT
10
267
20
68
30
0
0
VERTEX
8
CUT
10
267
20
68
30
0
0
SEQEND
8
CUT
0
POLYLINE
8
CUT
66
1
70
1
0
VERTEX
8
CUT
10
271
20
63.767
30
0
0
VERTEX
8
CUT
10
287
20
63.767
30
0
0
VERTEX
8
CUT
10
287
20
62.367
30
0
0
VERTEX
8
CUT
10
271
20
62.367
30
0
0
SEQEND
8
CUT
0
POLYLINE
8
CUT
66
1
70
1
0
VERTEX
8
CUT
10
271
20
58.633
30
0
0
VERTEX
8
CUT
10
287
20
58.633
30
0
0
VERTEX
8
CUT
10
287
20
57.233
30
0
0
VERTEX
8
CUT
10
271
20
57.233
30
0
0
SEQEND
8
CUT
0
POLYLINE
8
RASTER
66
1
70
1
0
VERTEX
8
RASTER
10
267.6
20
67.6
30
0
0
VERTEX
8
RASTER
10
270.4
20
67.6
30
0
0
VERTEX
8
RASTER
10
270.4
20
53.4
30
0
0
VERTEX
8
RASTER
10
267.6
20
53.4
30
0
0
SEQEND
8
RASTER
0
POLYLINE
8
RASTER
66
1
70
1
0
VERTEX
8
RASTER
10
287.6
20
67.6
30
0
0
VERTEX
8
RASTER
10
290.4
20
67.6
30
0
0
VERTEX
8
RASTER
10
290.4
20
53.4
30
0
0
VERTEX
8
RASTER
10
287.6
20
53.4
30
0
0
SEQEND
8
RASTER
0
CIRCLE
8
RASTER
10
272.6
20
65.633
30
0
40
0.5
0
CIRCLE
8
RASTER
10
285.4
20
65.633
30
0
40
0.5
0
CIRCLE
8
RASTER
10
272.6
20
60.5
30
0
40
0.5
0
CIRCLE
8
RASTER
10
285.4
20
60.5
30
0
40
0.5
0
CIRCLE
8
RASTER
10
272.6
20
55.367
30
0
40
0.5
0
CIRCLE
8
RASTER
10
285.4
20
55.367
30
0
40
0.5
0
POLYLINE
8
CUT
66
1
70
1
0
VERTEX
8
CUT
10
7
20
34
30
0
0
VERTEX
8
CUT
10
31
20
34
30
0
0
VERTEX
8
CUT
10
31
20
34
30
0
0
VERTEX
8
CUT
10
31
20
29
30
0
0
VERTEX
8
CUT
10
34
20
29
30
0
0
VERTEX
8
CUT
10
34
20
24
30
0
0
VERTEX
8
CUT
10
31
20
24
30
0
0
VERTEX
8
CUT
10
31
20
19
30
0
0
VERTEX
8
CUT
10
31
20
19
30
0
0
VERTEX
8
CUT
10
31
20
19
30
0
0
VERTEX
8
CUT
10
26.2
20
19
30
0
0
VERTEX
8
CUT
10
26.2
20
16
30
0
0
VERTEX
8
CUT
10
21.4
20
16
30
0
0
VERTEX
8
CUT
10
21.4
20
19
30
0
0
VERTEX
8
CUT
10
16.6
20
19
30
0
0
VERTEX
8
CUT
10
16.6
20
16
30
0
0
VERTEX
8
CUT
10
11.8
20
16
30
0
0
VERTEX
8
CUT
10
11.8
20
19
30
0
0
VERTEX
8
CUT
10
7
20
19
30
0
0
VERTEX
8
CUT
10
7
20
19
30
0
0
VERTEX
8
CUT
10
7
20
19
30
0
0
VERTEX
8
CUT
10
7
20
24
30
0
0
VERTEX
8
CUT
10
4
20
24
30
0
0
VERTEX
8
CUT
10
4
20
29
30
0
0
VERTEX
8
CUT
10
7
20
29
30
0
0
VERTEX
8
CUT
10
7
20
34
30
0
0
VERTEX
8
CUT
10
7
20
34
30
0
0
SEQEND
8
CUT
0
POLYLINE
8
CUT
66
1
70
1
0
VERTEX
8
CUT
10
11
20
29.767
30
0
0
VERTEX
8
CUT
10
27
20
29.767
30
0
0
VERTEX
8
CUT
10
27
20
28.367
30
0
0
VERTEX
8
CUT
10
11
20
28.367
30
0
0
SEQEND
8
CUT
0
POLYLINE
8
CUT
66
1
70
1
0
VERTEX
8
CUT
10
11
20
24.633
30
0
0
VERTEX
8
CUT
10
27
20
24.633
30
0
0
VERTEX
8
CUT
10
27
20
23.233
30
0
0
VERTEX
8
CUT
10
11
20
23.233
30
0
0
SEQEND
8
CUT
0
POLYLINE
8
RASTER
66
1
70
1
0
VERTEX
8
RASTER
10
7.6
20
33.6
30
0
0
VERTEX
8
RASTER
10
10.4
20
33.6
30
0
0
VERTEX
8
RASTER
10
10.4
20
19.4
30
0
0
VERTEX
8
RASTER
10
7.6
20
19.4
30
0
0
SEQEND
8
RASTER
0
POLYLINE
8
RASTER
66
1
70
1
0
VERTEX
8
RASTER
10
27.6
20
33.6
30
0
0
VERTEX
8
RASTER
10
30.4
20
33.6
30
0
0
VERTEX
8
RASTER
10
30.4
20
19.4
30
0
0
VERTEX
8
RASTER
10
27.6
20
19.4
30
0
0
SEQEND
8
RASTER
0
CIRCLE
8
RASTER
10
12.6
20
31.633
30
0
40
0.5
0
CIRCLE
8
RASTER
10
25.4
20
31.633
30
0
40
0.5
0
CIRCLE
8
RASTER
10
12.6
20
26.5
30
0
40
0.5
0
CIRCLE
8
RASTER
10
25.4
20
26.5
30
0
40
0.5
0
CIRCLE
8
RASTER
10
12.6
20
21.367
30
0
40
0.5
0
CIRCLE
8
RASTER
10
25.4
20
21.367
30
0
40
0.5
0
POLYLINE
8
CUT
66
1
70
1
0
VERTEX
8
CUT
10
38
20
34
30
0
0
VERTEX
8
CUT
10
41
20
34
30
0
0
VERTEX
8
CUT
10
41
20
34
30
0
0
VERTEX
8
CUT
10
46.429
20
34
30
0
0
VERTEX
8
CUT
10
46.429
20
31
30
0
0
VERTEX
8
CUT
10
51.857
20
31
30
0
0
VERTEX
8
CUT
10
51.857
20
34
30
0
0
VERTEX
8
CUT
10
57.286
20
34
30
0
0
VERTEX
8
CUT
10
57.286
20
31
30
0
0
VERTEX
8
CUT
10
62.714
20
31
30
0
0
VERTEX
8
CUT
10
62.714
20
34
30
0
0
VERTEX
8
CUT
10
68.143
20
34
30
0
0
VERTEX
8
CUT
10
68.143
20
31
30
0
0
VERTEX
8
CUT
10
73.571
20
31
30
0
0
VERTEX
8
CUT
10
73.571
20
34
30
0
0
VERTEX
8
CUT
10
79
20
34
30
0
0
VERTEX
8
CUT
10
79
20
34
30
0
0
VERTEX
8
CUT
10
79
20
34
30
0
0
VERTEX
8
CUT
10
82
20
34
30
0
0
VERTEX
8
CUT
10
82
20
31
30
0
0
VERTEX
8
CUT
10
82
20
31
30
0
0
VERTEX
8
CUT
10
82
20
26.2
30
0
0
VERTEX
8
CUT
10
79
20
26.2
30
0
0
VERTEX
8
CUT
10
79
20
21.4
30
0
0
VERTEX
8
CUT
10
82
20
21.4
30
0
0
VERTEX
8
CUT
10
82
20
16.6
30
0
0
VERTEX
8
CUT
10
79
20
16.6
30
0
0
VERTEX
8
CUT
10
79
20
11.8
30
0
0
VERTEX
8
CUT
10
82
20
11.8
30
0
0
VERTEX
8
CUT
10
82
20
7
30
0
0
VERTEX
8
CUT
10
82
20
7
30
0
0
VERTEX
8
CUT
10
82
20
7
30
0
0
VERTEX
8
CUT
10
82
20
4
30
0
0
VERTEX
8
CUT
10
79
20
4
30
0
0
VERTEX
8
CUT
10
79
20
4
30
0
0
VERTEX
8
CUT
10
73.571
20
4
30
0
0
VERTEX
8
CUT
10
73.571
20
7
30
0
0
VERTEX
8
CUT
10
68.143
20
7
30
0
0
VERTEX
8
CUT
10
68.143
20
4
30
0
0
VERTEX
8
CUT
10
62.714
20
4
30
0
0
VERTEX
8
CUT
10
62.714
20
7
30
0
0
VERTEX
8
CUT
10
57.286
20
7
30
0
0
VERTEX
8
CUT
10
57.286
20
4
30
0
0
VERTEX
8
CUT
10
51.857
20
4
30
0
0
VERTEX
8
CUT
10
51.857
20
7
30
0
0
VERTEX
8
CUT
10
46.429
20
7
30
0
0
VERTEX
8
CUT
10
46.429
20
4
30
0
0
VERTEX
8
CUT
10
41
20
4
30
0
0
VERTEX
8
CUT
10
41
20
4
30
0
0
VERTEX
8
CUT
10
41
20
4
30
0
0
VERTEX
8
CUT
10
38
20
4
30
0
0
VERTEX
8
CUT
10
38
20
7
30
0
0
VERTEX
8
CUT
10
38
20
7
30
0
0
VERTEX
8
CUT
10
38
20
11.8
30
0
0
VERTEX
8
CUT
10
41
20
11.8
30
0
0
VERTEX
8
CUT
10
41
20
16.6
30
0
0
VERTEX
8
CUT
10
38
20
16.6
30
0
0
VERTEX
8
CUT
10
38
20
21.4
30
0
0
VERTEX
8
CUT
10
41
20
21.4
30
0
0
VERTEX
8
CUT
10
41
20
26.2
30
0
0
VERTEX
8
CUT
10
38
20
26.2
30
0
0
VERTEX
8
CUT
10
38
20
31
30
0
0
VERTEX
8
CUT
10
38
20
31
30
0
0
VERTEX
8
CUT
10
38
20
31
30
0
0
SEQEND
8
CUT
0
POLYLINE
8
CUT
66
1
70
1
0
VERTEX
8
CUT
10
89
20
34
30
0
0
VERTEX
8
CUT
10
127
20
34
30
0
0
VERTEX
8
CUT
10
130
20
34
30
0
0
VERTEX
8
CUT
10
130
20
29
30
0
0
VERTEX
8
CUT
10
127
20
29
30
0
0
VERTEX
8
CUT
10
127
20
24
30
0
0
VERTEX
8
CUT
10
130
20
24
30
0
0
VERTEX
8
CUT
10
130
20
19
30
0
0
VERTEX
8
CUT
10
127
20
19
30
0
0
VERTEX
8
CUT
10
127
20
19
30
0
0
VERTEX
8
CUT
10
121.571
20
19
30
0
0
VERTEX
8
CUT
10
121.571
20
16
30
0
0
VERTEX
8
CUT
10
116.143
20
16
30
0
0
VERTEX
8
CUT
10
116.143
20
19
30
0
0
VERTEX
8
CUT
10
110.714
20
19
30
0
0
VERTEX
8
CUT
10
110.714
20
16
30
0
0
VERTEX
8
CUT
10
105.286
20
16
30
0
0
VERTEX
8
CUT
10
105.286
20
19
30
0
0
VERTEX
8
CUT
10
99.857
20
19
30
0
0
VERTEX
8
CUT
10
99.857
20
16
30
0
0
VERTEX
8
CUT
10
94.429
20
16
30
0
0
VERTEX
8
CUT
10
94.429
20
19
30
0
0
VERTEX
8
CUT
10
89
20
19
30
0
0
VERTEX
8
CUT
10
89
20
19
30
0
0
VERTEX
8
CUT
10
86
20
19
30
0
0
VERTEX
8
CUT
10
86
20
24
30
0
0
VERTEX
8
CUT
10
89
20
24
30
0
0
VERTEX
8
CUT
10
89
20
29
30
0
0
VERTEX
8
CUT
10
86
20
29
30
0
0
VERTEX
8
CUT
10
86
20
34
30
0
0
VERTEX
8
CUT
10
89
20
34
30
0
0
SEQEND
8
CUT
0
POLYLINE
8
CUT
66
1
70
1
0
VERTEX
8
CUT
10
93
20
29.767
30
0
0
VERTEX
8
CUT
10
123
20
29.767
30
0
0
VERTEX
8
CUT
10
123
20
28.367
30
0
0
VERTEX
8
CUT
10
93
20
28.367
30
0
0
SEQEND
8
CUT
0
POLYLINE
8
CUT
66
1
70
1
0
VERTEX
8
CUT
10
93
20
24.633
30
0
0
VERTEX
8
CUT
10
123
20
24.633
30
0
0
VERTEX
8
CUT
10
123
20
23.233
30
0
0
VERTEX
8
CUT
10
93
20
23.233
30
0
0
SEQEND
8
CUT
0
POLYLINE
8
RASTER
66
1
70
1
0
VERTEX
8
RASTER
10
89.6
20
33.6
30
0
0
VERTEX
8
RASTER
10
92.4
20
33.6
30
0
0
VERTEX
8
RASTER
10
92.4
20
19.4
30
0
0
VERTEX
8
RASTER
10
89.6
20
19.4
30
0
0
SEQEND
8
RASTER
0
POLYLINE
8
RASTER
66
1
70
1
0
VERTEX
8
RASTER
10
123.6
20
33.6
30
0
0
VERTEX
8
RASTER
10
126.4
20
33.6
30
0
0
VERTEX
8
RASTER
10
126.4
20
19.4
30
0
0
VERTEX
8
RASTER
10
123.6
20
19.4
30
0
0
SEQEND
8
RASTER
0
CIRCLE
8
RASTER
10
94.6
20
31.633
30
0
40
0.5
0
CIRCLE
8
RASTER
10
121.4
20
31.633
30
0
40
0.5
0
CIRCLE
8
RASTER
10
94.6
20
26.5
30
0
40
0.5
0
CIRCLE
8
RASTER
10
121.4
20
26.5
30
0
40
0.5
0
CIRCLE
8
RASTER
10
94.6
20
21.367
30
0
40
0.5
0
CIRCLE
8
RASTER
10
121.4
20
21.367
30
0
40
0.5
0
POLYLINE
8
RASTER
66
1
70
1
0
VERTEX
8
RASTER
10
103.5
20
32.3
30
0
0
VERTEX
8
RASTER
10
104.4
20
32.3
30
0
0
VERTEX
8
RASTER
10
104.4
20
31.4
30
0
0
VERTEX
8
RASTER
10
103.5
20
31.4
30
0
0
SEQEND
8
RASTER
0
POLYLINE
8
RASTER
66
1
70
1
0
VERTEX
8
RASTER
10
105.7
20
32.3
30
0
0
VERTEX
8
RASTER
10
106.6
20
32.3
30
0
0
VERTEX
8
RASTER
10
106.6
20
31.4
30
0
0
VERTEX
8
RASTER
10
105.7
20
31.4
30
0
0
SEQEND
8
RASTER
0
POLYLINE
8
RASTER
66
1
70
1
0
VERTEX
8
RASTER
10
107.9
20
32.3
30
0
0
VERTEX
8
RASTER
10
108.8
20
32.3
30
0
0
VERTEX
8
RASTER
10
108.8
20
31.4
30
0
0
VERTEX
8
RASTER
10
107.9
20
31.4
30
0
0
SEQEND
8
RASTER
0
POLYLINE
8
RASTER
66
1
70
1
0
VERTEX
8
RASTER
10
110.1
20
32.3
30
0
0
VERTEX
8
RASTER
10
111
20
32.3
30
0
0
VERTEX
8
RASTER
10
111
20
31.4
30
0
0
VERTEX
8
RASTER
10
110.1
20
31.4
30
0
0
SEQEND
8
RASTER
0
POLYLINE
8
RASTER
66
1
70
1
0
VERTEX
8
RASTER
10
104.6
20
31.2
30
0
0
VERTEX
8
RASTER
10
105.5
20
31.2
30
0
0
VERTEX
8
RASTER
10
105.5
20
30.3
30
0
0
VERTEX
8
RASTER
10
104.6
20
30.3
30
0
0
SEQEND
8
RASTER
0
POLYLINE
8
RASTER
66
1
70
1
0
VERTEX
8
RASTER
10
106.8
20
31.2
30
0
0
VERTEX
8
RASTER
10
107.7
20
31.2
30
0
0
VERTEX
8
RASTER
10
107.7
20
30.3
30
0
0
VERTEX
8
RASTER
10
106.8
20
30.3
30
0
0
SEQEND
8
RASTER
0
POLYLINE
8
RASTER
66
1
70
1
0
VERTEX
8
RASTER
10
109
20
31.2
30
0
0
VERTEX
8
RASTER
10
109.9
20
31.2
30
0
0
VERTEX
8
RASTER
10
109.9
20
30.3
30
0
0
VERTEX
8
RASTER
10
109
20
30.3
30
0
0
SEQEND
8
RASTER
0
POLYLINE
8
RASTER
66
1
70
1
0
VERTEX
8
RASTER
10
111.2
20
31.2
30
0
0
VERTEX
8
RASTER
10
112.1
20
31.2
30
0
0
VERTEX
8
RASTER
10
112.1
20
30.3
30
0
0
VERTEX
8
RASTER
10
111.2
20
30.3
30
0
0
SEQEND
8
RASTER
0
POLYLINE
8
RASTER
66
1
70
1
0
VERTEX
8
RASTER
10
103.5
20
30.1
30
0
0
VERTEX
8
RASTER
10
104.4
20
30.1
30
0
0
VERTEX
8
RASTER
10
104.4
20
29.2
30
0
0
VERTEX
8
RASTER
10
103.5
20
29.2
30
0
0
SEQEND
8
RASTER
0
POLYLINE
8
RASTER
66
1
70
1
0
VERTEX
8
RASTER
10
105.7
20
30.1
30
0
0
VERTEX
8
RASTER
10
106.6
20
30.1
30
0
0
VERTEX
8
RASTER
10
106.6
20
29.2
30
0
0
VERTEX
8
RASTER
10
105.7
20
29.2
30
0
0
SEQEND
8
RASTER
0
POLYLINE
8
RASTER
66
1
70
1
0
VERTEX
8
RASTER
10
107.9
20
30.1
30
0
0
VERTEX
8
RASTER
10
108.8
20
30.1
30
0
0
VERTEX
8
RASTER
10
108.8
20
29.2
30
0
0
VERTEX
8
RASTER
10
107.9
20
29.2
30
0
0
SEQEND
8
RASTER
0
POLYLINE
8
RASTER
66
1
70
1
0
VERTEX
8
RASTER
10
110.1
20
30.1
30
0
0
VERTEX
8
RASTER
10
111
20
30.1
30
0
0
VERTEX
8
RASTER
10
111
20
29.2
30
0
0
VERTEX
8
RASTER
10
110.1
20
29.2
30
0
0
SEQEND
8
RASTER
0
POLYLINE
8
CUT
66
1
70
1
0
VERTEX
8
CUT
10
137
20
34
30
0
0
VERTEX
8
CUT
10
175
20
34
30
0
0
VERTEX
8
CUT
10
178
20
34
30
0
0
VERTEX
8
CUT
10
178
20
29
30
0
0
VERTEX
8
CUT
10
175
20
29
30
0
0
VERTEX
8
CUT
10
175
20
24
30
0
0
VERTEX
8
CUT
10
178
20
24
30
0
0
VERTEX
8
CUT
10
178
20
19
30
0
0
VERTEX
8
CUT
10
175
20
19
30
0
0
VERTEX
8
CUT
10
175
20
19
30
0
0
VERTEX
8
CUT
10
169.571
20
19
30
0
0
VERTEX
8
CUT
10
169.571
20
16
30
0
0
VERTEX
8
CUT
10
164.143
20
16
30
0
0
VERTEX
8
CUT
10
164.143
20
19
30
0
0
VERTEX
8
CUT
10
158.714
20
19
30
0
0
VERTEX
8
CUT
10
158.714
20
16
30
0
0
VERTEX
8
CUT
10
153.286
20
16
30
0
0
VERTEX
8
CUT
10
153.286
20
19
30
0
0
VERTEX
8
CUT
10
147.857
20
19
30
0
0
VERTEX
8
CUT
10
147.857
20
16
30
0
0
VERTEX
8
CUT
10
142.429
20
16
30
0
0
VERTEX
8
CUT
10
142.429
20
19
30
0
0
VERTEX
8
CUT
10
137
20
19
30
0
0
VERTEX
8
CUT
10
137
20
19
30
0
0
VERTEX
8
CUT
10
134
20
19
30
0
0
VERTEX
8
CUT
10
134
20
24
30
0
0
VERTEX
8
CUT
10
137
20
24
30
0
0
VERTEX
8
CUT
10
137
20
29
30
0
0
VERTEX
8
CUT
10
134
20
29
30
0
0
VERTEX
8
CUT
10
134
20
34
30
0
0
VERTEX
8
CUT
10
137
20
34
30
0
0
SEQEND
8
CUT
0
POLYLINE
8
CUT
66
1
70
1
0
VERTEX
8
CUT
10
141
20
29.767
30
0
0
VERTEX
8
CUT
10
171
20
29.767
30
0
0
VERTEX
8
CUT
10
171
20
28.367
30
0
0
VERTEX
8
CUT
10
141
20
28.367
30
0
0
SEQEND
8
CUT
0
POLYLINE
8
CUT
66
1
70
1
0
VERTEX
8
CUT
10
141
20
24.633
30
0
0
VERTEX
8
CUT
10
171
20
24.633
30
0
0
VERTEX
8
CUT
10
171
20
23.233
30
0
0
VERTEX
8
CUT
10
141
20
23.233
30
0
0
SEQEND
8
CUT
0
POLYLINE
8
RASTER
66
1
70
1
0
VERTEX
8
RASTER
10
137.6
20
33.6
30
0
0
VERTEX
8
RASTER
10
140.4
20
33.6
30
0
0
VERTEX
8
RASTER
10
140.4
20
19.4
30
0
0
VERTEX
8
RASTER
10
137.6
20
19.4
30
0
0
SEQEND
8
RASTER
0
POLYLINE
8
RASTER
66
1
70
1
0
VERTEX
8
RASTER
10
171.6
20
33.6
30
0
0
VERTEX
8
RASTER
10
174.4
20
33.6
30
0
0
VERTEX
8
RASTER
10
174.4
20
19.4
30
0
0
VERTEX
8
RASTER
10
171.6
20
19.4
30
0
0
SEQEND
8
RASTER
0
CIRCLE
8
RASTER
10
142.6
20
31.633
30
0
40
0.5
0
CIRCLE
8
RASTER
10
169.4
20
31.633
30
0
40
0.5
0
CIRCLE
8
RASTER
10
142.6
20
26.5
30
0
40
0.5
0
CIRCLE
8
RASTER
10
169.4
20
26.5
30
0
40
0.5
0
CIRCLE
8
RASTER
10
142.6
20
21.367
30
0
40
0.5
0
CIRCLE
8
RASTER
10
169.4
20
21.367
30
0
40
0.5
0
POLYLINE
8
CUT
66
1
70
1
0
VERTEX
8
CUT
10
185
20
34
30
0
0
VERTEX
8
CUT
10
209
20
34
30
0
0
VERTEX
8
CUT
10
209
20
34
30
0
0
VERTEX
8
CUT
10
209
20
29
30
0
0
VERTEX
8
CUT
10
212
20
29
30
0
0
VERTEX
8
CUT
10
212
20
24
30
0
0
VERTEX
8
CUT
10
209
20
24
30
0
0
VERTEX
8
CUT
10
209
20
19
30
0
0
VERTEX
8
CUT
10
209
20
19
30
0
0
VERTEX
8
CUT
10
209
20
19
30
0
0
VERTEX
8
CUT
10
204.2
20
19
30
0
0
VERTEX
8
CUT
10
204.2
20
16
30
0
0
VERTEX
8
CUT
10
199.4
20
16
30
0
0
VERTEX
8
CUT
10
199.4
20
19
30
0
0
VERTEX
8
CUT
10
194.6
20
19
30
0
0
VERTEX
8
CUT
10
194.6
20
16
30
0
0
VERTEX
8
CUT
10
189.8
20
16
30
0
0
VERTEX
8
CUT
10
189.8
20
19
30
0
0
VERTEX
8
CUT
10
185
20
19
30
0
0
VERTEX
8
CUT
10
185
20
19
30
0
0
VERTEX
8
CUT
10
185
20
19
30
0
0
VERTEX
8
CUT
10
185
20
24
30
0
0
VERTEX
8
CUT
10
182
20
24
30
0
0
VERTEX
8
CUT
10
182
20
29
30
0
0
VERTEX
8
CUT
10
185
20
29
30
0
0
VERTEX
8
CUT
10
185
20
34
30
0
0
VERTEX
8
CUT
10
185
20
34
30
0
0
SEQEND
8
CUT
0
POLYLINE
8
CUT
66
1
70
1
0
VERTEX
8
CUT
10
189
20
29.767
30
0
0
VERTEX
8
CUT
10
205
20
29.767
30
0
0
VERTEX
8
CUT
10
205
20
28.367
30
0
0
VERTEX
8
CUT
10
189
20
28.367
30
0
0
SEQEND
8
CUT
0
POLYLINE
8
CUT
66
1
70
1
0
VERTEX
8
CUT
10
189
20
24.633
30
0
0
VERTEX
8
CUT
10
205
20
24.633
30
0
0
VERTEX
8
CUT
10
205
20
23.233
30
0
0
VERTEX
8
CUT
10
189
20
23.233
30
0
0
SEQEND
8
CUT
0
POLYLINE
8
RASTER
66
1
70
1
0
VERTEX
8
RASTER
10
185.6
20
33.6
30
0
0
VERTEX
8
RASTER
10
188.4
20
33.6
30
0
0
VERTEX
8
RASTER
10
188.4
20
19.4
30
0
0
VERTEX
8
RASTER
10
185.6
20
19.4
30
0
0
SEQEND
8
RASTER
0
POLYLINE
8
RASTER
66
1
70
1
0
VERTEX
8
RASTER
10
205.6
20
33.6
30
0
0
VERTEX
8
RASTER
10
208.4
20
33.6
30
0
0
VERTEX
8
RASTER
10
208.4
20
19.4
30
0
0
VERTEX
8
RASTER
10
205.6
20
19.4
30
0
0
SEQEND
8
RASTER
0
CIRCLE
8
RASTER
10
190.6
20
31.633
30
0
40
0.5
0
CIRCLE
8
RASTER
10
203.4
20
31.633
30
0
40
0.5
0
CIRCLE
8
RASTER
10
190.6
20
26.5
30
0
40
0.5
0
CIRCLE
8
RASTER
10
203.4
20
26.5
30
0
40
0.5
0
CIRCLE
8
RASTER
10
190.6
20
21.367
30
0
40
0.5
0
CIRCLE
8
RASTER
10
203.4
20
21.367
30
0
40
0.5
0
POLYLINE
8
CUT
66
1
70
1
0
VERTEX
8
CUT
10
219
20
34
30
0
0
VERTEX
8
CUT
10
243
20
34
30
0
0
VERTEX
8
CUT
10
243
20
34
30
0
0
VERTEX
8
CUT
10
243
20
29
30
0
0
VERTEX
8
CUT
10
246
20
29
30
0
0
VERTEX
8
CUT
10
246
20
24
30
0
0
VERTEX
8
CUT
10
243
20
24
30
0
0
VERTEX
8
CUT
10
243
20
19
30
0
0
VERTEX
8
CUT
10
243
20
19
30
0
0
VERTEX
8
CUT
10
243
20
19
30
0
0
VERTEX
8
CUT
10
238.2
20
19
30
0
0
VERTEX
8
CUT
10
238.2
20
16
30
0
0
VERTEX
8
CUT
10
233.4
20
16
30
0
0
VERTEX
8
CUT
10
233.4
20
19
30
0
0
VERTEX
8
CUT
10
228.6
20
19
30
0
0
VERTEX
8
CUT
10
228.6
20
16
30
0
0
VERTEX
8
CUT
10
223.8
20
16
30
0
0
VERTEX
8
CUT
10
223.8
20
19
30
0
0
VERTEX
8
CUT
10
219
20
19
30
0
0
VERTEX
8
CUT
10
219
20
19
30
0
0
VERTEX
8
CUT
10
219
20
19
30
0
0
VERTEX
8
CUT
10
219
20
24
30
0
0
VERTEX
8
CUT
10
216
20
24
30
0
0
VERTEX
8
CUT
10
216
20
29
30
0
0
VERTEX
8
CUT
10
219
20
29
30
0
0
VERTEX
8
CUT
10
219
20
34
30
0
0
VERTEX
8
CUT
10
219
20
34
30
0
0
SEQEND
8
CUT
0
POLYLINE
8
CUT
66
1
70
1
0
VERTEX
8
CUT
10
223
20
29.767
30
0
0
VERTEX
8
CUT
10
239
20
29.767
30
0
0
VERTEX
8
CUT
10
239
20
28.367
30
0
0
VERTEX
8
CUT
10
223
20
28.367
30
0
0
SEQEND
8
CUT
0
POLYLINE
8
CUT
66
1
70
1
0
VERTEX
8
CUT
10
223
20
24.633
30
0
0
VERTEX
8
CUT
10
239
20
24.633
30
0
0
VERTEX
8
CUT
10
239
20
23.233
30
0
0
VERTEX
8
CUT
10
223
20
23.233
30
0
0
SEQEND
8
CUT
0
POLYLINE
8
RASTER
66
1
70
1
0
VERTEX
8
RASTER
10
219.6
20
33.6
30
0
0
VERTEX
8
RASTER
10
222.4
20
33.6
30
0
0
VERTEX
8
RASTER
10
222.4
20
19.4
30
0
0
VERTEX
8
RASTER
10
219.6
20
19.4
30
0
0
SEQEND
8
RASTER
0
POLYLINE
8
RASTER
66
1
70
1
0
VERTEX
8
RASTER
10
239.6
20
33.6
30
0
0
VERTEX
8
RASTER
10
242.4
20
33.6
30
0
0
VERTEX
8
RASTER
10
242.4
20
19.4
30
0
0
VERTEX
8
RASTER
10
239.6
20
19.4
30
0
0
SEQEND
8
RASTER
0
CIRCLE
8
RASTER
10
224.6
20
31.633
30
0
40
0.5
0
CIRCLE
8
RASTER
10
237.4
20
31.633
30
0
40
0.5
0
CIRCLE
8
RASTER
10
224.6
20
26.5
30
0
40
0.5
0
CIRCLE
8
RASTER
10
237.4
20
26.5
30
0
40
0.5
0
CIRCLE
8
RASTER
10
224.6
20
21.367
30
0
40
0.5
0
CIRCLE
8
RASTER
10
237.4
20
21.367
30
0
40
0.5
0
POLYLINE
8
CUT
66
1
70
1
0
VERTEX
8
CUT
10
250
20
34
30
0
0
VERTEX
8
CUT
10
253
20
34
30
0
0
VERTEX
8
CUT
10
253
20
34
30
0
0
VERTEX
8
CUT
10
258.429
20
34
30
0
0
VERTEX
8
CUT
10
258.429
20
31
30
0
0
VERTEX
8
CUT
10
263.857
20
31
30
0
0
VERTEX
8
CUT
10
263.857
20
34
30
0
0
VERTEX
8
CUT
10
269.286
20
34
30
0
0
VERTEX
8
CUT
10
269.286
20
31
30
0
0
VERTEX
8
CUT
10
274.714
20
31
30
0
0
VERTEX
8
CUT
10
274.714
20
34
30
0
0
VERTEX
8
CUT
10
280.143
20
34
30
0
0
VERTEX
8
CUT
10
280.143
20
31
30
0
0
VERTEX
8
CUT
10
285.571
20
31
30
0
0
VERTEX
8
CUT
10
285.571
20
34
30
0
0
VERTEX
8
CUT
10
291
20
34
30
0
0
VERTEX
8
CUT
10
291
20
34
30
0
0
VERTEX
8
CUT
10
291
20
34
30
0
0
VERTEX
8
CUT
10
294
20
34
30
0
0
VERTEX
8
CUT
10
294
20
31
30
0
0
VERTEX
8
CUT
10
294
20
31
30
0
0
VERTEX
8
CUT
10
294
20
26.2
30
0
0
VERTEX
8
CUT
10
291
20
26.2
30
0
0
VERTEX
8
CUT
10
291
20
21.4
30
0
0
VERTEX
8
CUT
10
294
20
21.4
30
0
0
VERTEX
8
CUT
10
294
20
16.6
30
0
0
VERTEX
8
CUT
10
291
20
16.6
30
0
0
VERTEX
8
CUT
10
291
20
11.8
30
0
0
VERTEX
8
CUT
10
294
20
11.8
30
0
0
VERTEX
8
CUT
10
294
20
7
30
0
0
VERTEX
8
CUT
10
294
20
7
30
0
0
VERTEX
8
CUT
10
294
20
7
30
0
0
VERTEX
8
CUT
10
294
20
4
30
0
0
VERTEX
8
CUT
10
291
20
4
30
0
0
VERTEX
8
CUT
10
291
20
4
30
0
0
VERTEX
8
CUT
10
285.571
20
4
30
0
0
VERTEX
8
CUT
10
285.571
20
7
30
0
0
VERTEX
8
CUT
10
280.143
20
7
30
0
0
VERTEX
8
CUT
10
280.143
20
4
30
0
0
VERTEX
8
CUT
10
274.714
20
4
30
0
0
VERTEX
8
CUT
10
274.714
20
7
30
0
0
VERTEX
8
CUT
10
269.286
20
7
30
0
0
VERTEX
8
CUT
10
269.286
20
4
30
0
0
VERTEX
8
CUT
10
263.857
20
4
30
0
0
VERTEX
8
CUT
10
263.857
20
7
30
0
0
VERTEX
8
CUT
10
258.429
20
7
30
0
0
VERTEX
8
CUT
10
258.429
20
4
30
0
0
VERTEX
8
CUT
10
253
20
4
30
0
0
VERTEX
8
CUT
10
253
20
4
30
0
0
VERTEX
8
CUT
10
253
20
4
30
0
0
VERTEX
8
CUT
10
250
20
4
30
0
0
VERTEX
8
CUT
10
250
20
7
30
0
0
VERTEX
8
CUT
10
250
20
7
30
0
0
VERTEX
8
CUT
10
250
20
11.8
30
0
0
VERTEX
8
CUT
10
253
20
11.8
30
0
0
VERTEX
8
CUT
10
253
20
16.6
30
0
0
VERTEX
8
CUT
10
250
20
16.6
30
0
0
VERTEX
8
CUT
10
250
20
21.4
30
0
0
VERTEX
8
CUT
10
253
20
21.4
30
0
0
VERTEX
8
CUT
10
253
20
26.2
30
0
0
VERTEX
8
CUT
10
250
20
26.2
30
0
0
VERTEX
8
CUT
10
250
20
31
30
0
0
VERTEX
8
CUT
10
250
20
31
30
0
0
VERTEX
8
CUT
10
250
20
31
30
0
0
SEQEND
8
CUT
0
ENDSEC
0
EOF
