0
SECTION
2
HEADER
9
$ACADVER
1
AC1009
9
$EXTMIN
10
0
20
0
9
$EXTMAX
10
161.498
20
28.045
0
ENDSEC
0
SECTION
2
TABLES
0
TABLE
2
LAYER
70
2
0
LAYER
2
CUT
70
0
62
1
6
CONTINUOUS
0
LAYER
2
RASTER
70
0
62
7
6
CONTINUOUS
0
ENDTAB
0
ENDSEC
0
SECTION
2
ENTITIES
0
POLYLINE
8
CUT
66
1
70
1
0
VERTEX
8
CUT
10
8.371
20
23.903
30
0
0
VERTEX
8
CUT
10
11.487
20
23.964
30
0
0
VERTEX
8
CUT
10
12.145
20
23.205
30
0
0
VERTEX
8
CUT
10
13.258
20
22.8
30
0
0
VERTEX
8
CUT
10
14.108
20
21.758
30
0
0
VERTEX
8
CUT
10
14.695
20
22.032
30
0
0
VERTEX
8
CUT
10
15.191
20
23.155
30
0
0
VERTEX
8
CUT
10
15.868
20
23.691
30
0
0
VERTEX
8
CUT
10
18.347
20
24.045
30
0
0
VERTEX
8
CUT
10
21.524
20
23.883
30
0
0
VERTEX
8
CUT
10
21.696
20
21.435
30
0
0
VERTEX
8
CUT
10
22.273
20
20.483
30
0
0
VERTEX
8
CUT
10
22.273
20
18.703
30
0
0
VERTEX
8
CUT
10
21.099
20
16.942
30
0
0
VERTEX
8
CUT
10
20.675
20
15.566
30
0
0
VERTEX
8
CUT
10
21.464
20
14.514
30
0
0
VERTEX
8
CUT
10
23.315
20
14.241
30
0
0
VERTEX
8
CUT
10
23.609
20
13.522
30
0
0
VERTEX
8
CUT
10
23.508
20
11.397
30
0
0
VERTEX
8
CUT
10
22.304
20
10.072
30
0
0
VERTEX
8
CUT
10
22
20
8.554
30
0
0
VERTEX
8
CUT
10
15.595
20
6.359
30
0
0
VERTEX
8
CUT
10
12.722
20
6.379
30
0
0
VERTEX
8
CUT
10
11.315
20
6.794
30
0
0
VERTEX
8
CUT
10
10.283
20
4.386
30
0
0
VERTEX
8
CUT
10
9.808
20
4.052
30
0
0
VERTEX
8
CUT
10
4.86
20
4.183
30
0
0
VERTEX
8
CUT
10
4.637
20
5.175
30
0
0
VERTEX
8
CUT
10
4
20
6.257
30
0
0
VERTEX
8
CUT
10
4.132
20
8.514
30
0
0
VERTEX
8
CUT
10
7.4
20
9.799
30
0
0
VERTEX
8
CUT
10
7.774
20
10.305
30
0
0
VERTEX
8
CUT
10
6.833
20
11.822
30
0
0
VERTEX
8
CUT
10
6.449
20
13.057
30
0
0
VERTEX
8
CUT
10
6.509
20
19.087
30
0
0
VERTEX
8
CUT
10
6.782
20
21.647
30
0
0
VERTEX
8
CUT
10
7.804
20
22.244
30
0
0
SEQEND
8
CUT
0
POLYLINE
8
RASTER
66
1
70
1
0
VERTEX
8
RASTER
10
9.777
20
23.61
30
0
0
VERTEX
8
RASTER
10
10.182
20
23.468
30
0
0
VERTEX
8
RASTER
10
10.587
20
22.962
30
0
0
VERTEX
8
RASTER
10
10.961
20
22.224
30
0
0
VERTEX
8
RASTER
10
11.295
20
21.04
30
0
0
VERTEX
8
RASTER
10
12.277
20
21.515
30
0
0
VERTEX
8
RASTER
10
12.509
20
21.445
30
0
0
VERTEX
8
RASTER
10
12.681
20
21.212
30
0
0
VERTEX
8
RASTER
10
12.681
20
20.706
30
0
0
VERTEX
8
RASTER
10
12.782
20
20.403
30
0
0
VERTEX
8
RASTER
10
12.58
20
19.391
30
0
0
VERTEX
8
RASTER
10
12.378
20
18.986
30
0
0
VERTEX
8
RASTER
10
12.813
20
18.814
30
0
0
VERTEX
8
RASTER
10
12.985
20
18.581
30
0
0
VERTEX
8
RASTER
10
12.985
20
17.974
30
0
0
VERTEX
8
RASTER
10
12.681
20
17.064
30
0
0
VERTEX
8
RASTER
10
12.752
20
16.831
30
0
0
VERTEX
8
RASTER
10
12.914
20
16.689
30
0
0
VERTEX
8
RASTER
10
13.288
20
17.873
30
0
0
VERTEX
8
RASTER
10
13.562
20
18.409
30
0
0
VERTEX
8
RASTER
10
13.895
20
18.682
30
0
0
VERTEX
8
RASTER
10
14.27
20
18.51
30
0
0
VERTEX
8
RASTER
10
14.503
20
19.694
30
0
0
VERTEX
8
RASTER
10
14.978
20
20.635
30
0
0
VERTEX
8
RASTER
10
15.312
20
20.706
30
0
0
VERTEX
8
RASTER
10
15.585
20
20.575
30
0
0
VERTEX
8
RASTER
10
15.646
20
20.433
30
0
0
VERTEX
8
RASTER
10
15.788
20
20.433
30
0
0
VERTEX
8
RASTER
10
15.919
20
21.313
30
0
0
VERTEX
8
RASTER
10
16.597
20
22.558
30
0
0
VERTEX
8
RASTER
10
16.931
20
22.73
30
0
0
VERTEX
8
RASTER
10
17.062
20
22.659
30
0
0
VERTEX
8
RASTER
10
17.811
20
21.748
30
0
0
VERTEX
8
RASTER
10
18.115
20
22.254
30
0
0
VERTEX
8
RASTER
10
18.924
20
23.064
30
0
0
VERTEX
8
RASTER
10
19.562
20
23.438
30
0
0
VERTEX
8
RASTER
10
20.27
20
23.64
30
0
0
VERTEX
8
RASTER
10
20.401
20
23.569
30
0
0
VERTEX
8
RASTER
10
20.573
20
23.337
30
0
0
VERTEX
8
RASTER
10
20.573
20
22.224
30
0
0
VERTEX
8
RASTER
10
20.27
20
21.111
30
0
0
VERTEX
8
RASTER
10
19.865
20
20.301
30
0
0
VERTEX
8
RASTER
10
19.966
20
20.2
30
0
0
VERTEX
8
RASTER
10
20.776
20
20.099
30
0
0
VERTEX
8
RASTER
10
21.11
20
19.927
30
0
0
VERTEX
8
RASTER
10
21.18
20
19.492
30
0
0
VERTEX
8
RASTER
10
20.907
20
18.956
30
0
0
VERTEX
8
RASTER
10
20.644
20
18.713
30
0
0
VERTEX
8
RASTER
10
20.503
20
18.45
30
0
0
VERTEX
8
RASTER
10
19.632
20
17.802
30
0
0
VERTEX
8
RASTER
10
19.632
20
17.64
30
0
0
VERTEX
8
RASTER
10
19.865
20
17.367
30
0
0
VERTEX
8
RASTER
10
19.693
20
16.831
30
0
0
VERTEX
8
RASTER
10
19.187
20
16.325
30
0
0
VERTEX
8
RASTER
10
18.317
20
15.779
30
0
0
VERTEX
8
RASTER
10
18.277
20
15.677
30
0
0
VERTEX
8
RASTER
10
18.55
20
15.445
30
0
0
VERTEX
8
RASTER
10
18.55
20
15.141
30
0
0
VERTEX
8
RASTER
10
18.378
20
14.807
30
0
0
VERTEX
8
RASTER
10
17.062
20
13.755
30
0
0
VERTEX
8
RASTER
10
17.437
20
13.725
30
0
0
VERTEX
8
RASTER
10
17.639
20
13.826
30
0
0
VERTEX
8
RASTER
10
18.013
20
13.553
30
0
0
VERTEX
8
RASTER
10
19.157
20
14.23
30
0
0
VERTEX
8
RASTER
10
19.764
20
14.332
30
0
0
VERTEX
8
RASTER
10
20.067
20
14.028
30
0
0
VERTEX
8
RASTER
10
19.997
20
13.249
30
0
0
VERTEX
8
RASTER
10
21.99
20
13.32
30
0
0
VERTEX
8
RASTER
10
22.526
20
13.047
30
0
0
VERTEX
8
RASTER
10
22.597
20
12.612
30
0
0
VERTEX
8
RASTER
10
22.425
20
12.278
30
0
0
VERTEX
8
RASTER
10
21.616
20
11.468
30
0
0
VERTEX
8
RASTER
10
20.472
20
10.993
30
0
0
VERTEX
8
RASTER
10
21.008
20
10.416
30
0
0
VERTEX
8
RASTER
10
21.18
20
10.082
30
0
0
VERTEX
8
RASTER
10
21.11
20
9.647
30
0
0
VERTEX
8
RASTER
10
20.877
20
9.475
30
0
0
VERTEX
8
RASTER
10
20.472
20
9.374
30
0
0
VERTEX
8
RASTER
10
19.157
20
9.374
30
0
0
VERTEX
8
RASTER
10
19.056
20
9.273
30
0
0
VERTEX
8
RASTER
10
18.985
20
8.838
30
0
0
VERTEX
8
RASTER
10
18.752
20
8.666
30
0
0
VERTEX
8
RASTER
10
17.437
20
8.666
30
0
0
VERTEX
8
RASTER
10
17.234
20
8.767
30
0
0
VERTEX
8
RASTER
10
17.164
20
8.736
30
0
0
VERTEX
8
RASTER
10
17.234
20
8.564
30
0
0
VERTEX
8
RASTER
10
17.164
20
8.129
30
0
0
VERTEX
8
RASTER
10
16.728
20
7.957
30
0
0
VERTEX
8
RASTER
10
15.312
20
8.058
30
0
0
VERTEX
8
RASTER
10
15.18
20
7.583
30
0
0
VERTEX
8
RASTER
10
14.907
20
7.451
30
0
0
VERTEX
8
RASTER
10
13.592
20
7.451
30
0
0
VERTEX
8
RASTER
10
13.187
20
7.553
30
0
0
VERTEX
8
RASTER
10
12.449
20
7.927
30
0
0
VERTEX
8
RASTER
10
11.74
20
8.736
30
0
0
VERTEX
8
RASTER
10
10.182
20
8.129
30
0
0
VERTEX
8
RASTER
10
9.646
20
6.44
30
0
0
VERTEX
8
RASTER
10
8.968
20
4.892
30
0
0
VERTEX
8
RASTER
10
8.766
20
4.588
30
0
0
VERTEX
8
RASTER
10
8.432
20
4.416
30
0
0
VERTEX
8
RASTER
10
8.128
20
4.416
30
0
0
VERTEX
8
RASTER
10
7.794
20
4.588
30
0
0
VERTEX
8
RASTER
10
7.622
20
4.922
30
0
0
VERTEX
8
RASTER
10
7.622
20
5.124
30
0
0
VERTEX
8
RASTER
10
8.098
20
6.005
30
0
0
VERTEX
8
RASTER
10
7.491
20
5.559
30
0
0
VERTEX
8
RASTER
10
7.046
20
5.094
30
0
0
VERTEX
8
RASTER
10
6.509
20
4.821
30
0
0
VERTEX
8
RASTER
10
6.206
20
4.821
30
0
0
VERTEX
8
RASTER
10
5.933
20
4.952
30
0
0
VERTEX
8
RASTER
10
5.801
20
5.225
30
0
0
VERTEX
8
RASTER
10
5.872
20
5.762
30
0
0
VERTEX
8
RASTER
10
6.985
20
6.814
30
0
0
VERTEX
8
RASTER
10
6.712
20
6.844
30
0
0
VERTEX
8
RASTER
10
6.206
20
6.642
30
0
0
VERTEX
8
RASTER
10
5.801
20
6.642
30
0
0
VERTEX
8
RASTER
10
5.599
20
6.541
30
0
0
VERTEX
8
RASTER
10
5.164
20
6.814
30
0
0
VERTEX
8
RASTER
10
5.093
20
7.451
30
0
0
VERTEX
8
RASTER
10
5.164
20
7.583
30
0
0
VERTEX
8
RASTER
10
5.497
20
7.755
30
0
0
VERTEX
8
RASTER
10
7.622
20
8.362
30
0
0
VERTEX
8
RASTER
10
9.069
20
9.04
30
0
0
VERTEX
8
RASTER
10
9.342
20
9.779
30
0
0
VERTEX
8
RASTER
10
9.545
20
10.79
30
0
0
VERTEX
8
RASTER
10
9.545
20
11.397
30
0
0
VERTEX
8
RASTER
10
8.806
20
11.772
30
0
0
VERTEX
8
RASTER
10
8.199
20
12.379
30
0
0
VERTEX
8
RASTER
10
7.723
20
13.219
30
0
0
VERTEX
8
RASTER
10
7.521
20
13.927
30
0
0
VERTEX
8
RASTER
10
7.592
20
14.666
30
0
0
VERTEX
8
RASTER
10
8.027
20
14.838
30
0
0
VERTEX
8
RASTER
10
7.622
20
15.951
30
0
0
VERTEX
8
RASTER
10
7.622
20
16.456
30
0
0
VERTEX
8
RASTER
10
7.693
20
16.588
30
0
0
VERTEX
8
RASTER
10
8.128
20
16.76
30
0
0
VERTEX
8
RASTER
10
7.622
20
18.075
30
0
0
VERTEX
8
RASTER
10
7.622
20
18.581
30
0
0
VERTEX
8
RASTER
10
7.693
20
18.713
30
0
0
VERTEX
8
RASTER
10
8.128
20
18.885
30
0
0
VERTEX
8
RASTER
10
7.825
20
19.694
30
0
0
VERTEX
8
RASTER
10
7.754
20
20.433
30
0
0
VERTEX
8
RASTER
10
7.825
20
20.706
30
0
0
VERTEX
8
RASTER
10
8.027
20
20.908
30
0
0
VERTEX
8
RASTER
10
8.432
20
20.908
30
0
0
VERTEX
8
RASTER
10
9.11
20
20.635
30
0
0
VERTEX
8
RASTER
10
9.039
20
21.92
30
0
0
VERTEX
8
RASTER
10
9.241
20
22.73
30
0
0
VERTEX
8
RASTER
10
9.616
20
23.468
30
0
0
SEQEND
8
RASTER
0
POLYLINE
8
RASTER
66
1
70
1
0
VERTEX
8
RASTER
10
20.138
20
23.205
30
0
0
VERTEX
8
RASTER
10
19.025
20
22.659
30
0
0
VERTEX
8
RASTER
10
18.317
20
21.849
30
0
0
VERTEX
8
RASTER
10
17.943
20
21.111
30
0
0
VERTEX
8
RASTER
10
17.943
20
20.301
30
0
0
VERTEX
8
RASTER
10
18.044
20
20.099
30
0
0
VERTEX
8
RASTER
10
17.943
20
19.897
30
0
0
VERTEX
8
RASTER
10
17.973
20
19.623
30
0
0
VERTEX
8
RASTER
10
18.985
20
20.17
30
0
0
VERTEX
8
RASTER
10
19.592
20
20.676
30
0
0
VERTEX
8
RASTER
10
20.169
20
21.92
30
0
0
VERTEX
8
RASTER
10
20.067
20
22.123
30
0
0
VERTEX
8
RASTER
10
20.169
20
22.325
30
0
0
SEQEND
8
RASTER
0
POLYLINE
8
RASTER
66
1
70
1
0
VERTEX
8
RASTER
10
9.949
20
23.134
30
0
0
VERTEX
8
RASTER
10
9.747
20
22.831
30
0
0
VERTEX
8
RASTER
10
9.444
20
21.92
30
0
0
VERTEX
8
RASTER
10
9.342
20
21.01
30
0
0
VERTEX
8
RASTER
10
9.616
20
20.17
30
0
0
VERTEX
8
RASTER
10
10.081
20
19.826
30
0
0
VERTEX
8
RASTER
10
10.223
20
19.563
30
0
0
VERTEX
8
RASTER
10
10.354
20
19.492
30
0
0
VERTEX
8
RASTER
10
10.455
20
19.593
30
0
0
VERTEX
8
RASTER
10
10.587
20
20.17
30
0
0
VERTEX
8
RASTER
10
10.86
20
20.504
30
0
0
VERTEX
8
RASTER
10
10.931
20
21.08
30
0
0
VERTEX
8
RASTER
10
10.759
20
21.111
30
0
0
VERTEX
8
RASTER
10
10.658
20
21.92
30
0
0
VERTEX
8
RASTER
10
10.081
20
23.064
30
0
0
SEQEND
8
RASTER
0
POLYLINE
8
RASTER
66
1
70
1
0
VERTEX
8
RASTER
10
16.931
20
22.224
30
0
0
VERTEX
8
RASTER
10
16.799
20
22.153
30
0
0
VERTEX
8
RASTER
10
16.324
20
21.212
30
0
0
VERTEX
8
RASTER
10
16.121
20
20.504
30
0
0
VERTEX
8
RASTER
10
16.121
20
19.694
30
0
0
VERTEX
8
RASTER
10
16.759
20
17.701
30
0
0
VERTEX
8
RASTER
10
17.437
20
17.772
30
0
0
VERTEX
8
RASTER
10
17.639
20
17.873
30
0
0
VERTEX
8
RASTER
10
18.752
20
17.873
30
0
0
VERTEX
8
RASTER
10
19.895
20
18.45
30
0
0
VERTEX
8
RASTER
10
20.401
20
18.956
30
0
0
VERTEX
8
RASTER
10
20.806
20
19.563
30
0
0
VERTEX
8
RASTER
10
20.806
20
19.725
30
0
0
VERTEX
8
RASTER
10
20.675
20
19.795
30
0
0
VERTEX
8
RASTER
10
19.157
20
19.795
30
0
0
VERTEX
8
RASTER
10
18.115
20
19.32
30
0
0
VERTEX
8
RASTER
10
17.811
20
19.118
30
0
0
VERTEX
8
RASTER
10
17.568
20
18.753
30
0
0
VERTEX
8
RASTER
10
17.406
20
18.753
30
0
0
VERTEX
8
RASTER
10
17.366
20
18.854
30
0
0
VERTEX
8
RASTER
10
17.639
20
19.492
30
0
0
VERTEX
8
RASTER
10
17.639
20
20.807
30
0
0
VERTEX
8
RASTER
10
17.366
20
21.546
30
0
0
VERTEX
8
RASTER
10
17.062
20
22.153
30
0
0
SEQEND
8
RASTER
0
POLYLINE
8
RASTER
66
1
70
1
0
VERTEX
8
RASTER
10
12.074
20
21.111
30
0
0
VERTEX
8
RASTER
10
11.902
20
20.979
30
0
0
VERTEX
8
RASTER
10
11.943
20
20.838
30
0
0
VERTEX
8
RASTER
10
11.771
20
20.908
30
0
0
VERTEX
8
RASTER
10
11.234
20
20.534
30
0
0
VERTEX
8
RASTER
10
11.194
20
20.271
30
0
0
VERTEX
8
RASTER
10
10.728
20
19.725
30
0
0
VERTEX
8
RASTER
10
10.556
20
19.391
30
0
0
VERTEX
8
RASTER
10
10.425
20
18.409
30
0
0
VERTEX
8
RASTER
10
10.253
20
18.581
30
0
0
VERTEX
8
RASTER
10
10.253
20
18.784
30
0
0
VERTEX
8
RASTER
10
9.98
20
19.32
30
0
0
VERTEX
8
RASTER
10
9.474
20
19.927
30
0
0
VERTEX
8
RASTER
10
8.159
20
20.575
30
0
0
VERTEX
8
RASTER
10
8.128
20
19.897
30
0
0
VERTEX
8
RASTER
10
8.604
20
18.753
30
0
0
VERTEX
8
RASTER
10
8.907
20
18.45
30
0
0
VERTEX
8
RASTER
10
9.777
20
18.005
30
0
0
VERTEX
8
RASTER
10
10.324
20
17.438
30
0
0
VERTEX
8
RASTER
10
10.486
20
17.438
30
0
0
VERTEX
8
RASTER
10
10.627
20
17.701
30
0
0
VERTEX
8
RASTER
10
11.599
20
18.551
30
0
0
VERTEX
8
RASTER
10
12.074
20
19.188
30
0
0
VERTEX
8
RASTER
10
12.378
20
20.301
30
0
0
VERTEX
8
RASTER
10
12.378
20
21.01
30
0
0
VERTEX
8
RASTER
10
12.277
20
21.111
30
0
0
SEQEND
8
RASTER
0
POLYLINE
8
RASTER
66
1
70
1
0
VERTEX
8
RASTER
10
15.211
20
20.2
30
0
0
VERTEX
8
RASTER
10
14.705
20
19.087
30
0
0
VERTEX
8
RASTER
10
14.604
20
18.075
30
0
0
VERTEX
8
RASTER
10
15.211
20
16.558
30
0
0
VERTEX
8
RASTER
10
15.312
20
16.153
30
0
0
VERTEX
8
RASTER
10
15.241
20
15.677
30
0
0
VERTEX
8
RASTER
10
16.223
20
15.951
30
0
0
VERTEX
8
RASTER
10
17.639
20
15.951
30
0
0
VERTEX
8
RASTER
10
18.681
20
16.426
30
0
0
VERTEX
8
RASTER
10
19.288
20
16.932
30
0
0
VERTEX
8
RASTER
10
19.46
20
17.266
30
0
0
VERTEX
8
RASTER
10
19.359
20
17.367
30
0
0
VERTEX
8
RASTER
10
18.651
20
17.569
30
0
0
VERTEX
8
RASTER
10
17.639
20
17.569
30
0
0
VERTEX
8
RASTER
10
16.597
20
17.195
30
0
0
VERTEX
8
RASTER
10
16.152
20
16.79
30
0
0
VERTEX
8
RASTER
10
16.223
20
18.379
30
0
0
VERTEX
8
RASTER
10
16.121
20
18.784
30
0
0
VERTEX
8
RASTER
10
15.747
20
19.623
30
0
0
SEQEND
8
RASTER
0
POLYLINE
8
RASTER
66
1
70
1
0
VERTEX
8
RASTER
10
12.58
20
18.581
30
0
0
VERTEX
8
RASTER
10
11.841
20
18.308
30
0
0
VERTEX
8
RASTER
10
10.931
20
17.499
30
0
0
VERTEX
8
RASTER
10
10.556
20
16.861
30
0
0
VERTEX
8
RASTER
10
10.425
20
16.386
30
0
0
VERTEX
8
RASTER
10
10.081
20
17.195
30
0
0
VERTEX
8
RASTER
10
9.474
20
17.802
30
0
0
VERTEX
8
RASTER
10
8.331
20
18.379
30
0
0
VERTEX
8
RASTER
10
8.027
20
18.48
30
0
0
VERTEX
8
RASTER
10
7.926
20
18.379
30
0
0
VERTEX
8
RASTER
10
8.128
20
17.671
30
0
0
VERTEX
8
RASTER
10
8.705
20
16.628
30
0
0
VERTEX
8
RASTER
10
9.777
20
15.981
30
0
0
VERTEX
8
RASTER
10
10.425
20
15.273
30
0
0
VERTEX
8
RASTER
10
11.133
20
15.981
30
0
0
VERTEX
8
RASTER
10
11.396
20
16.123
30
0
0
VERTEX
8
RASTER
10
12.206
20
17.033
30
0
0
VERTEX
8
RASTER
10
12.681
20
18.379
30
0
0
SEQEND
8
RASTER
0
POLYLINE
8
RASTER
66
1
70
1
0
VERTEX
8
RASTER
10
13.966
20
18.247
30
0
0
VERTEX
8
RASTER
10
13.794
20
18.075
30
0
0
VERTEX
8
RASTER
10
13.39
20
16.861
30
0
0
VERTEX
8
RASTER
10
13.39
20
15.951
30
0
0
VERTEX
8
RASTER
10
13.895
20
14.635
30
0
0
VERTEX
8
RASTER
10
13.997
20
14.129
30
0
0
VERTEX
8
RASTER
10
13.926
20
13.856
30
0
0
VERTEX
8
RASTER
10
14.604
20
14.028
30
0
0
VERTEX
8
RASTER
10
16.425
20
14.028
30
0
0
VERTEX
8
RASTER
10
17.265
20
14.403
30
0
0
VERTEX
8
RASTER
10
18.074
20
15.111
30
0
0
VERTEX
8
RASTER
10
18.145
20
15.242
30
0
0
VERTEX
8
RASTER
10
17.943
20
15.445
30
0
0
VERTEX
8
RASTER
10
16.526
20
15.647
30
0
0
VERTEX
8
RASTER
10
15.383
20
15.273
30
0
0
VERTEX
8
RASTER
10
14.634
20
14.666
30
0
0
VERTEX
8
RASTER
10
14.604
20
14.939
30
0
0
VERTEX
8
RASTER
10
14.806
20
15.242
30
0
0
VERTEX
8
RASTER
10
14.806
20
16.558
30
0
0
VERTEX
8
RASTER
10
14.573
20
17.236
30
0
0
SEQEND
8
RASTER
0
POLYLINE
8
RASTER
66
1
70
1
0
VERTEX
8
RASTER
10
12.55
20
16.527
30
0
0
VERTEX
8
RASTER
10
12.449
20
16.487
30
0
0
VERTEX
8
RASTER
10
12.277
20
16.153
30
0
0
VERTEX
8
RASTER
10
12.074
20
15.546
30
0
0
VERTEX
8
RASTER
10
11.973
20
14.129
30
0
0
VERTEX
8
RASTER
10
12.347
20
13.188
30
0
0
VERTEX
8
RASTER
10
12.61
20
12.946
30
0
0
VERTEX
8
RASTER
10
12.752
20
12.682
30
0
0
VERTEX
8
RASTER
10
12.61
20
12.379
30
0
0
VERTEX
8
RASTER
10
11.902
20
11.468
30
0
0
VERTEX
8
RASTER
10
11.437
20
11.023
30
0
0
VERTEX
8
RASTER
10
11.295
20
10.76
30
0
0
VERTEX
8
RASTER
10
9.474
20
8.838
30
0
0
VERTEX
8
RASTER
10
8.634
20
8.362
30
0
0
VERTEX
8
RASTER
10
7.622
20
7.957
30
0
0
VERTEX
8
RASTER
10
5.497
20
7.35
30
0
0
VERTEX
8
RASTER
10
5.396
20
7.249
30
0
0
VERTEX
8
RASTER
10
5.427
20
6.976
30
0
0
VERTEX
8
RASTER
10
5.902
20
6.946
30
0
0
VERTEX
8
RASTER
10
6.307
20
7.047
30
0
0
VERTEX
8
RASTER
10
8.432
20
7.755
30
0
0
VERTEX
8
RASTER
10
9.949
20
8.463
30
0
0
VERTEX
8
RASTER
10
11.872
20
9.171
30
0
0
VERTEX
8
RASTER
10
12.044
20
9.141
30
0
0
VERTEX
8
RASTER
10
12.246
20
8.736
30
0
0
VERTEX
8
RASTER
10
12.752
20
8.23
30
0
0
VERTEX
8
RASTER
10
13.288
20
7.957
30
0
0
VERTEX
8
RASTER
10
14.199
20
7.755
30
0
0
VERTEX
8
RASTER
10
14.877
20
7.886
30
0
0
VERTEX
8
RASTER
10
14.735
20
8.291
30
0
0
VERTEX
8
RASTER
10
14.128
20
8.898
30
0
0
VERTEX
8
RASTER
10
13.319
20
9.404
30
0
0
VERTEX
8
RASTER
10
12.58
20
9.677
30
0
0
VERTEX
8
RASTER
10
13.319
20
10.254
30
0
0
VERTEX
8
RASTER
10
13.592
20
10.79
30
0
0
VERTEX
8
RASTER
10
13.794
20
11.397
30
0
0
VERTEX
8
RASTER
10
13.764
20
11.671
30
0
0
VERTEX
8
RASTER
10
13.592
20
11.802
30
0
0
VERTEX
8
RASTER
10
13.288
20
11.802
30
0
0
VERTEX
8
RASTER
10
12.954
20
11.63
30
0
0
VERTEX
8
RASTER
10
12.813
20
11.367
30
0
0
VERTEX
8
RASTER
10
12.449
20
11.023
30
0
0
VERTEX
8
RASTER
10
11.973
20
10.183
30
0
0
VERTEX
8
RASTER
10
11.943
20
9.607
30
0
0
VERTEX
8
RASTER
10
10.182
20
8.898
30
0
0
VERTEX
8
RASTER
10
11.295
20
10.052
30
0
0
VERTEX
8
RASTER
10
11.437
20
10.315
30
0
0
VERTEX
8
RASTER
10
12.712
20
11.772
30
0
0
VERTEX
8
RASTER
10
13.056
20
12.338
30
0
0
VERTEX
8
RASTER
10
13.997
20
12.106
30
0
0
VERTEX
8
RASTER
10
15.008
20
12.106
30
0
0
VERTEX
8
RASTER
10
15.747
20
12.379
30
0
0
VERTEX
8
RASTER
10
16.354
20
12.784
30
0
0
VERTEX
8
RASTER
10
16.83
20
13.32
30
0
0
VERTEX
8
RASTER
10
16.526
20
13.522
30
0
0
VERTEX
8
RASTER
10
16.121
20
13.623
30
0
0
VERTEX
8
RASTER
10
15.514
20
13.623
30
0
0
VERTEX
8
RASTER
10
15.312
20
13.725
30
0
0
VERTEX
8
RASTER
10
15.008
20
13.623
30
0
0
VERTEX
8
RASTER
10
14.503
20
13.623
30
0
0
VERTEX
8
RASTER
10
13.764
20
13.249
30
0
0
VERTEX
8
RASTER
10
13.218
20
12.743
30
0
0
VERTEX
8
RASTER
10
13.218
20
12.986
30
0
0
VERTEX
8
RASTER
10
13.592
20
13.927
30
0
0
VERTEX
8
RASTER
10
13.592
20
14.433
30
0
0
VERTEX
8
RASTER
10
13.258
20
15.515
30
0
0
VERTEX
8
RASTER
10
12.813
20
16.284
30
0
0
SEQEND
8
RASTER
0
POLYLINE
8
RASTER
66
1
70
1
0
VERTEX
8
RASTER
10
8.098
20
16.325
30
0
0
VERTEX
8
RASTER
10
7.956
20
16.224
30
0
0
VERTEX
8
RASTER
10
8.027
20
15.951
30
0
0
VERTEX
8
RASTER
10
8.229
20
15.343
30
0
0
VERTEX
8
RASTER
10
8.604
20
14.706
30
0
0
VERTEX
8
RASTER
10
9.676
20
13.957
30
0
0
VERTEX
8
RASTER
10
10.223
20
13.391
30
0
0
VERTEX
8
RASTER
10
10.384
20
13.391
30
0
0
VERTEX
8
RASTER
10
10.728
20
13.755
30
0
0
VERTEX
8
RASTER
10
11.497
20
14.301
30
0
0
VERTEX
8
RASTER
10
11.74
20
16.021
30
0
0
VERTEX
8
RASTER
10
10.728
20
15.171
30
0
0
VERTEX
8
RASTER
10
10.455
20
14.23
30
0
0
VERTEX
8
RASTER
10
10.354
20
14.129
30
0
0
VERTEX
8
RASTER
10
10.253
20
14.23
30
0
0
VERTEX
8
RASTER
10
10.253
20
14.736
30
0
0
VERTEX
8
RASTER
10
9.98
20
15.273
30
0
0
VERTEX
8
RASTER
10
9.474
20
15.779
30
0
0
VERTEX
8
RASTER
10
8.735
20
16.153
30
0
0
SEQEND
8
RASTER
0
POLYLINE
8
RASTER
66
1
70
1
0
VERTEX
8
RASTER
10
7.926
20
14.433
30
0
0
VERTEX
8
RASTER
10
7.825
20
14.332
30
0
0
VERTEX
8
RASTER
10
7.926
20
13.826
30
0
0
VERTEX
8
RASTER
10
8.503
20
12.682
30
0
0
VERTEX
8
RASTER
10
9.11
20
12.177
30
0
0
VERTEX
8
RASTER
10
9.919
20
11.873
30
0
0
VERTEX
8
RASTER
10
10.051
20
11.701
30
0
0
VERTEX
8
RASTER
10
9.949
20
11.499
30
0
0
VERTEX
8
RASTER
10
9.848
20
10.082
30
0
0
VERTEX
8
RASTER
10
9.646
20
9.475
30
0
0
VERTEX
8
RASTER
10
9.747
20
9.374
30
0
0
VERTEX
8
RASTER
10
10.081
20
9.647
30
0
0
VERTEX
8
RASTER
10
10.354
20
10.284
30
0
0
VERTEX
8
RASTER
10
10.354
20
10.993
30
0
0
VERTEX
8
RASTER
10
10.455
20
11.195
30
0
0
VERTEX
8
RASTER
10
10.486
20
11.772
30
0
0
VERTEX
8
RASTER
10
11.599
20
12.379
30
0
0
VERTEX
8
RASTER
10
11.973
20
12.915
30
0
0
VERTEX
8
RASTER
10
11.639
20
13.795
30
0
0
VERTEX
8
RASTER
10
11.467
20
13.826
30
0
0
VERTEX
8
RASTER
10
11.032
20
13.553
30
0
0
VERTEX
8
RASTER
10
10.627
20
13.148
30
0
0
VERTEX
8
RASTER
10
10.283
20
12.338
30
0
0
VERTEX
8
RASTER
10
10.152
20
12.51
30
0
0
VERTEX
8
RASTER
10
10.152
20
12.814
30
0
0
VERTEX
8
RASTER
10
9.98
20
13.148
30
0
0
VERTEX
8
RASTER
10
9.474
20
13.654
30
0
0
SEQEND
8
RASTER
0
POLYLINE
8
RASTER
66
1
70
1
0
VERTEX
8
RASTER
10
19.632
20
13.998
30
0
0
VERTEX
8
RASTER
10
18.621
20
13.553
30
0
0
VERTEX
8
RASTER
10
18.013
20
12.946
30
0
0
VERTEX
8
RASTER
10
17.234
20
10.993
30
0
0
VERTEX
8
RASTER
10
18.175
20
10.315
30
0
0
VERTEX
8
RASTER
10
18.418
20
10.052
30
0
0
VERTEX
8
RASTER
10
18.752
20
9.88
30
0
0
VERTEX
8
RASTER
10
19.056
20
9.779
30
0
0
VERTEX
8
RASTER
10
20.472
20
9.779
30
0
0
VERTEX
8
RASTER
10
20.745
20
9.91
30
0
0
VERTEX
8
RASTER
10
20.705
20
10.112
30
0
0
VERTEX
8
RASTER
10
20.503
20
10.416
30
0
0
VERTEX
8
RASTER
10
19.895
20
10.922
30
0
0
VERTEX
8
RASTER
10
18.954
20
11.296
30
0
0
VERTEX
8
RASTER
10
18.449
20
11.296
30
0
0
VERTEX
8
RASTER
10
18.246
20
11.195
30
0
0
VERTEX
8
RASTER
10
18.145
20
11.296
30
0
0
VERTEX
8
RASTER
10
18.58
20
11.569
30
0
0
VERTEX
8
RASTER
10
19.187
20
12.278
30
0
0
VERTEX
8
RASTER
10
19.562
20
13.118
30
0
0
VERTEX
8
RASTER
10
19.663
20
13.522
30
0
0
SEQEND
8
RASTER
0
POLYLINE
8
RASTER
66
1
70
1
0
VERTEX
8
RASTER
10
17.538
20
13.421
30
0
0
VERTEX
8
RASTER
10
16.091
20
12.035
30
0
0
VERTEX
8
RASTER
10
15.342
20
10.416
30
0
0
VERTEX
8
RASTER
10
16.354
20
9.708
30
0
0
VERTEX
8
RASTER
10
16.799
20
9.242
30
0
0
VERTEX
8
RASTER
10
17.133
20
9.07
30
0
0
VERTEX
8
RASTER
10
18.347
20
8.969
30
0
0
VERTEX
8
RASTER
10
18.621
20
9.101
30
0
0
VERTEX
8
RASTER
10
18.479
20
9.404
30
0
0
VERTEX
8
RASTER
10
18.175
20
9.809
30
0
0
VERTEX
8
RASTER
10
17.669
20
10.214
30
0
0
VERTEX
8
RASTER
10
16.728
20
10.689
30
0
0
VERTEX
8
RASTER
10
16.253
20
10.517
30
0
0
VERTEX
8
RASTER
10
16.395
20
10.821
30
0
0
VERTEX
8
RASTER
10
16.658
20
10.962
30
0
0
VERTEX
8
RASTER
10
17.062
20
11.367
30
0
0
VERTEX
8
RASTER
10
17.437
20
12.106
30
0
0
VERTEX
8
RASTER
10
17.639
20
12.814
30
0
0
VERTEX
8
RASTER
10
17.639
20
13.32
30
0
0
SEQEND
8
RASTER
0
POLYLINE
8
RASTER
66
1
70
1
0
VERTEX
8
RASTER
10
20.776
20
13.016
30
0
0
VERTEX
8
RASTER
10
20.27
20
12.915
30
0
0
VERTEX
8
RASTER
10
19.734
20
12.642
30
0
0
VERTEX
8
RASTER
10
19.086
20
11.63
30
0
0
VERTEX
8
RASTER
10
19.764
20
11.397
30
0
0
VERTEX
8
RASTER
10
20.27
20
11.397
30
0
0
VERTEX
8
RASTER
10
21.413
20
11.873
30
0
0
VERTEX
8
RASTER
10
22.121
20
12.581
30
0
0
VERTEX
8
RASTER
10
22.192
20
12.713
30
0
0
VERTEX
8
RASTER
10
22.121
20
12.844
30
0
0
VERTEX
8
RASTER
10
21.484
20
13.016
30
0
0
SEQEND
8
RASTER
0
POLYLINE
8
RASTER
66
1
70
1
0
VERTEX
8
RASTER
10
11.74
20
11.974
30
0
0
VERTEX
8
RASTER
10
10.83
20
11.428
30
0
0
VERTEX
8
RASTER
10
10.789
20
10.922
30
0
0
VERTEX
8
RASTER
10
10.931
20
10.922
30
0
0
VERTEX
8
RASTER
10
11.032
20
11.124
30
0
0
VERTEX
8
RASTER
10
11.7
20
11.772
30
0
0
SEQEND
8
RASTER
0
POLYLINE
8
RASTER
66
1
70
1
0
VERTEX
8
RASTER
10
15.514
20
11.903
30
0
0
VERTEX
8
RASTER
10
15.008
20
11.701
30
0
0
VERTEX
8
RASTER
10
14.229
20
11.569
30
0
0
VERTEX
8
RASTER
10
13.895
20
10.689
30
0
0
VERTEX
8
RASTER
10
13.42
20
9.809
30
0
0
VERTEX
8
RASTER
10
14.331
20
9.202
30
0
0
VERTEX
8
RASTER
10
14.675
20
8.838
30
0
0
VERTEX
8
RASTER
10
15.312
20
8.463
30
0
0
VERTEX
8
RASTER
10
15.616
20
8.362
30
0
0
VERTEX
8
RASTER
10
16.728
20
8.362
30
0
0
VERTEX
8
RASTER
10
16.83
20
8.564
30
0
0
VERTEX
8
RASTER
10
16.658
20
8.898
30
0
0
VERTEX
8
RASTER
10
16.152
20
9.404
30
0
0
VERTEX
8
RASTER
10
14.604
20
10.183
30
0
0
VERTEX
8
RASTER
10
15.14
20
10.76
30
0
0
VERTEX
8
RASTER
10
15.616
20
11.802
30
0
0
SEQEND
8
RASTER
0
POLYLINE
8
RASTER
66
1
70
1
0
VERTEX
8
RASTER
10
9.039
20
7.856
30
0
0
VERTEX
8
RASTER
10
7.794
20
7.077
30
0
0
VERTEX
8
RASTER
10
6.742
20
6.005
30
0
0
VERTEX
8
RASTER
10
6.175
20
5.559
30
0
0
VERTEX
8
RASTER
10
6.135
20
5.256
30
0
0
VERTEX
8
RASTER
10
6.378
20
5.155
30
0
0
VERTEX
8
RASTER
10
7.046
20
5.6
30
0
0
VERTEX
8
RASTER
10
7.754
20
6.308
30
0
0
VERTEX
8
RASTER
10
7.895
20
6.571
30
0
0
VERTEX
8
RASTER
10
9.069
20
7.725
30
0
0
SEQEND
8
RASTER
0
POLYLINE
8
RASTER
66
1
70
1
0
VERTEX
8
RASTER
10
9.646
20
7.856
30
0
0
VERTEX
8
RASTER
10
9.514
20
7.785
30
0
0
VERTEX
8
RASTER
10
9.008
20
7.077
30
0
0
VERTEX
8
RASTER
10
8.027
20
5.124
30
0
0
VERTEX
8
RASTER
10
8.098
20
4.892
30
0
0
VERTEX
8
RASTER
10
8.229
20
4.821
30
0
0
VERTEX
8
RASTER
10
8.462
20
4.892
30
0
0
VERTEX
8
RASTER
10
8.938
20
5.731
30
0
0
VERTEX
8
RASTER
10
9.444
20
6.946
30
0
0
VERTEX
8
RASTER
10
9.717
20
7.785
30
0
0
SEQEND
8
RASTER
0
POLYLINE
8
CUT
66
1
70
1
0
VERTEX
8
CUT
10
30.165
20
23.997
30
0
0
VERTEX
8
CUT
10
37.26
20
24.045
30
0
0
VERTEX
8
CUT
10
38.007
20
23.739
30
0
0
VERTEX
8
CUT
10
38.505
20
23.088
30
0
0
VERTEX
8
CUT
10
38.505
20
19.229
30
0
0
VERTEX
8
CUT
10
39.845
20
16.29
30
0
0
VERTEX
8
CUT
10
40.056
20
12.192
30
0
0
VERTEX
8
CUT
10
39.692
20
5.758
30
0
0
VERTEX
8
CUT
10
39.213
20
4.896
30
0
0
VERTEX
8
CUT
10
38.198
20
4.188
30
0
0
VERTEX
8
CUT
10
29.926
20
4.073
30
0
0
VERTEX
8
CUT
10
28.806
20
4.58
30
0
0
VERTEX
8
CUT
10
28.04
20
5.633
30
0
0
VERTEX
8
CUT
10
27.609
20
11.33
30
0
0
VERTEX
8
CUT
10
27.666
20
15.677
30
0
0
VERTEX
8
CUT
10
28.04
20
17.123
30
0
0
VERTEX
8
CUT
10
29.15
20
19.325
30
0
0
VERTEX
8
CUT
10
29.131
20
23.021
30
0
0
VERTEX
8
CUT
10
29.505
20
23.605
30
0
0
SEQEND
8
CUT
0
POLYLINE
8
RASTER
66
1
70
1
0
VERTEX
8
RASTER
10
32.808
20
23.461
30
0
0
VERTEX
8
RASTER
10
34.79
20
23.49
30
0
0
VERTEX
8
RASTER
10
34.981
20
23.394
30
0
0
VERTEX
8
RASTER
10
35.364
20
23.394
30
0
0
VERTEX
8
RASTER
10
36.417
20
23.107
30
0
0
VERTEX
8
RASTER
10
37.116
20
22.752
30
0
0
VERTEX
8
RASTER
10
37.308
20
22.561
30
0
0
VERTEX
8
RASTER
10
37.566
20
22.054
30
0
0
VERTEX
8
RASTER
10
37.662
20
21.383
30
0
0
VERTEX
8
RASTER
10
37.566
20
21.192
30
0
0
VERTEX
8
RASTER
10
37.566
20
20.713
30
0
0
VERTEX
8
RASTER
10
37.308
20
20.206
30
0
0
VERTEX
8
RASTER
10
36.992
20
19.851
30
0
0
VERTEX
8
RASTER
10
37.087
20
19.085
30
0
0
VERTEX
8
RASTER
10
37.633
20
17.908
30
0
0
VERTEX
8
RASTER
10
38.715
20
15.926
30
0
0
VERTEX
8
RASTER
10
39.002
20
14.585
30
0
0
VERTEX
8
RASTER
10
39.002
20
11.522
30
0
0
VERTEX
8
RASTER
10
38.907
20
11.33
30
0
0
VERTEX
8
RASTER
10
38.907
20
9.319
30
0
0
VERTEX
8
RASTER
10
38.811
20
9.128
30
0
0
VERTEX
8
RASTER
10
38.811
20
7.117
30
0
0
VERTEX
8
RASTER
10
38.715
20
6.639
30
0
0
VERTEX
8
RASTER
10
38.457
20
6.131
30
0
0
VERTEX
8
RASTER
10
37.786
20
5.461
30
0
0
VERTEX
8
RASTER
10
36.417
20
4.819
30
0
0
VERTEX
8
RASTER
10
35.173
20
4.532
30
0
0
VERTEX
8
RASTER
10
34.502
20
4.532
30
0
0
VERTEX
8
RASTER
10
34.311
20
4.436
30
0
0
VERTEX
8
RASTER
10
33.353
20
4.436
30
0
0
VERTEX
8
RASTER
10
33.162
20
4.532
30
0
0
VERTEX
8
RASTER
10
31.917
20
4.628
30
0
0
VERTEX
8
RASTER
10
30.96
20
4.915
30
0
0
VERTEX
8
RASTER
10
29.878
20
5.461
30
0
0
VERTEX
8
RASTER
10
29.303
20
6.035
30
0
0
VERTEX
8
RASTER
10
29.045
20
6.543
30
0
0
VERTEX
8
RASTER
10
28.853
20
7.309
30
0
0
VERTEX
8
RASTER
10
28.758
20
10.181
30
0
0
VERTEX
8
RASTER
10
28.662
20
10.373
30
0
0
VERTEX
8
RASTER
10
28.662
20
14.873
30
0
0
VERTEX
8
RASTER
10
29.045
20
16.213
30
0
0
VERTEX
8
RASTER
10
30.481
20
18.894
30
0
0
VERTEX
8
RASTER
10
30.673
20
19.564
30
0
0
VERTEX
8
RASTER
10
30.644
20
19.918
30
0
0
VERTEX
8
RASTER
10
30.357
20
20.206
30
0
0
VERTEX
8
RASTER
10
30.098
20
20.713
30
0
0
VERTEX
8
RASTER
10
30.002
20
21.766
30
0
0
VERTEX
8
RASTER
10
30.357
20
22.561
30
0
0
VERTEX
8
RASTER
10
30.74
20
22.848
30
0
0
VERTEX
8
RASTER
10
31.822
20
23.298
30
0
0
SEQEND
8
RASTER
0
POLYLINE
8
RASTER
66
1
70
1
0
VERTEX
8
RASTER
10
33.545
20
23.011
30
0
0
VERTEX
8
RASTER
10
33.353
20
22.915
30
0
0
VERTEX
8
RASTER
10
32.587
20
22.915
30
0
0
VERTEX
8
RASTER
10
31.534
20
22.628
30
0
0
VERTEX
8
RASTER
10
30.835
20
22.274
30
0
0
VERTEX
8
RASTER
10
30.577
20
21.766
30
0
0
VERTEX
8
RASTER
10
30.577
20
21.096
30
0
0
VERTEX
8
RASTER
10
30.673
20
20.809
30
0
0
VERTEX
8
RASTER
10
31.151
20
20.139
30
0
0
VERTEX
8
RASTER
10
31.151
20
19.277
30
0
0
VERTEX
8
RASTER
10
30.96
20
18.702
30
0
0
VERTEX
8
RASTER
10
30.357
20
17.486
30
0
0
VERTEX
8
RASTER
10
29.524
20
16.022
30
0
0
VERTEX
8
RASTER
10
29.236
20
15.064
30
0
0
VERTEX
8
RASTER
10
29.236
20
14.681
30
0
0
VERTEX
8
RASTER
10
29.141
20
14.49
30
0
0
VERTEX
8
RASTER
10
29.236
20
9.607
30
0
0
VERTEX
8
RASTER
10
29.332
20
9.415
30
0
0
VERTEX
8
RASTER
10
29.332
20
8.075
30
0
0
VERTEX
8
RASTER
10
29.428
20
7.883
30
0
0
VERTEX
8
RASTER
10
29.428
20
7.117
30
0
0
VERTEX
8
RASTER
10
29.524
20
6.734
30
0
0
VERTEX
8
RASTER
10
29.686
20
6.418
30
0
0
VERTEX
8
RASTER
10
30.165
20
5.94
30
0
0
VERTEX
8
RASTER
10
30.768
20
5.585
30
0
0
VERTEX
8
RASTER
10
31.917
20
5.202
30
0
0
VERTEX
8
RASTER
10
32.97
20
5.107
30
0
0
VERTEX
8
RASTER
10
33.162
20
5.011
30
0
0
VERTEX
8
RASTER
10
34.598
20
5.011
30
0
0
VERTEX
8
RASTER
10
36.417
20
5.394
30
0
0
VERTEX
8
RASTER
10
37.499
20
5.94
30
0
0
VERTEX
8
RASTER
10
37.978
20
6.418
30
0
0
VERTEX
8
RASTER
10
38.141
20
6.734
30
0
0
VERTEX
8
RASTER
10
38.236
20
7.022
30
0
0
VERTEX
8
RASTER
10
38.236
20
8.841
30
0
0
VERTEX
8
RASTER
10
38.332
20
9.032
30
0
0
VERTEX
8
RASTER
10
38.332
20
10.564
30
0
0
VERTEX
8
RASTER
10
38.428
20
10.756
30
0
0
VERTEX
8
RASTER
10
38.524
20
13.915
30
0
0
VERTEX
8
RASTER
10
38.428
20
14.107
30
0
0
VERTEX
8
RASTER
10
38.332
20
15.256
30
0
0
VERTEX
8
RASTER
10
38.045
20
16.117
30
0
0
VERTEX
8
RASTER
10
36.896
20
18.224
30
0
0
VERTEX
8
RASTER
10
36.513
20
19.373
30
0
0
VERTEX
8
RASTER
10
36.513
20
20.139
30
0
0
VERTEX
8
RASTER
10
36.829
20
20.493
30
0
0
VERTEX
8
RASTER
10
37.087
20
21.192
30
0
0
VERTEX
8
RASTER
10
37.087
20
21.766
30
0
0
VERTEX
8
RASTER
10
36.925
20
22.082
30
0
0
VERTEX
8
RASTER
10
36.637
20
22.369
30
0
0
VERTEX
8
RASTER
10
35.556
20
22.819
30
0
0
SEQEND
8
RASTER
0
POLYLINE
8
RASTER
66
1
70
1
0
VERTEX
8
RASTER
10
33.191
20
22.599
30
0
0
VERTEX
8
RASTER
10
34.407
20
22.628
30
0
0
VERTEX
8
RASTER
10
34.598
20
22.532
30
0
0
VERTEX
8
RASTER
10
35.173
20
22.532
30
0
0
VERTEX
8
RASTER
10
36.063
20
22.178
30
0
0
VERTEX
8
RASTER
10
36.226
20
21.862
30
0
0
VERTEX
8
RASTER
10
36.101
20
21.604
30
0
0
VERTEX
8
RASTER
10
35.872
20
21.45
30
0
0
VERTEX
8
RASTER
10
34.981
20
21.192
30
0
0
VERTEX
8
RASTER
10
32.779
20
21.192
30
0
0
VERTEX
8
RASTER
10
32.3
20
21.288
30
0
0
VERTEX
8
RASTER
10
31.697
20
21.546
30
0
0
VERTEX
8
RASTER
10
31.506
20
21.738
30
0
0
VERTEX
8
RASTER
10
31.439
20
21.862
30
0
0
VERTEX
8
RASTER
10
31.506
20
22.082
30
0
0
VERTEX
8
RASTER
10
32.109
20
22.436
30
0
0
SEQEND
8
RASTER
0
POLYLINE
8
RASTER
66
1
70
1
0
VERTEX
8
RASTER
10
32.875
20
22.149
30
0
0
VERTEX
8
RASTER
10
31.946
20
21.833
30
0
0
VERTEX
8
RASTER
10
32.205
20
21.671
30
0
0
VERTEX
8
RASTER
10
32.587
20
21.671
30
0
0
VERTEX
8
RASTER
10
32.779
20
21.575
30
0
0
VERTEX
8
RASTER
10
34.981
20
21.575
30
0
0
VERTEX
8
RASTER
10
35.46
20
21.671
30
0
0
VERTEX
8
RASTER
10
35.556
20
21.766
30
0
0
VERTEX
8
RASTER
10
35.431
20
21.929
30
0
0
VERTEX
8
RASTER
10
34.79
20
22.149
30
0
0
SEQEND
8
RASTER
0
POLYLINE
8
RASTER
66
1
70
1
0
VERTEX
8
RASTER
10
36.255
20
20.301
30
0
0
VERTEX
8
RASTER
10
36.322
20
20.234
30
0
0
VERTEX
8
RASTER
10
36.159
20
19.918
30
0
0
VERTEX
8
RASTER
10
35.268
20
19.564
30
0
0
VERTEX
8
RASTER
10
34.885
20
19.564
30
0
0
VERTEX
8
RASTER
10
34.694
20
19.468
30
0
0
VERTEX
8
RASTER
10
32.779
20
19.468
30
0
0
VERTEX
8
RASTER
10
32.587
20
19.564
30
0
0
VERTEX
8
RASTER
10
32.205
20
19.564
30
0
0
VERTEX
8
RASTER
10
31.506
20
19.823
30
0
0
VERTEX
8
RASTER
10
31.343
20
20.139
30
0
0
VERTEX
8
RASTER
10
31.534
20
20.234
30
0
0
VERTEX
8
RASTER
10
32.013
20
20.043
30
0
0
VERTEX
8
RASTER
10
32.97
20
19.947
30
0
0
VERTEX
8
RASTER
10
33.162
20
19.851
30
0
0
VERTEX
8
RASTER
10
34.598
20
19.851
30
0
0
VERTEX
8
RASTER
10
34.79
20
19.947
30
0
0
VERTEX
8
RASTER
10
35.651
20
20.043
30
0
0
SEQEND
8
RASTER
0
POLYLINE
8
RASTER
66
1
70
1
0
VERTEX
8
RASTER
10
30.031
20
15.897
30
0
0
VERTEX
8
RASTER
10
30.194
20
15.83
30
0
0
VERTEX
8
RASTER
10
29.811
20
14.394
30
0
0
VERTEX
8
RASTER
10
29.811
20
12.766
30
0
0
VERTEX
8
RASTER
10
29.907
20
12.575
30
0
0
VERTEX
8
RASTER
10
29.907
20
10.756
30
0
0
VERTEX
8
RASTER
10
30.002
20
10.564
30
0
0
VERTEX
8
RASTER
10
30.002
20
8.458
30
0
0
VERTEX
8
RASTER
10
30.098
20
8.266
30
0
0
VERTEX
8
RASTER
10
30.098
20
7.213
30
0
0
VERTEX
8
RASTER
10
30.261
20
6.897
30
0
0
VERTEX
8
RASTER
10
30.74
20
6.514
30
0
0
VERTEX
8
RASTER
10
31.247
20
6.256
30
0
0
VERTEX
8
RASTER
10
32.683
20
5.873
30
0
0
VERTEX
8
RASTER
10
33.861
20
5.806
30
0
0
VERTEX
8
RASTER
10
35.077
20
5.873
30
0
0
VERTEX
8
RASTER
10
35.939
20
6.064
30
0
0
VERTEX
8
RASTER
10
37.116
20
6.61
30
0
0
VERTEX
8
RASTER
10
37.403
20
6.897
30
0
0
VERTEX
8
RASTER
10
37.566
20
7.309
30
0
0
VERTEX
8
RASTER
10
37.566
20
8.458
30
0
0
VERTEX
8
RASTER
10
37.729
20
8.812
30
0
0
VERTEX
8
RASTER
10
37.758
20
7.213
30
0
0
VERTEX
8
RASTER
10
37.499
20
6.706
30
0
0
VERTEX
8
RASTER
10
37.212
20
6.418
30
0
0
VERTEX
8
RASTER
10
36.322
20
5.968
30
0
0
VERTEX
8
RASTER
10
35.268
20
5.681
30
0
0
VERTEX
8
RASTER
10
34.885
20
5.681
30
0
0
VERTEX
8
RASTER
10
34.694
20
5.585
30
0
0
VERTEX
8
RASTER
10
33.066
20
5.585
30
0
0
VERTEX
8
RASTER
10
32.875
20
5.681
30
0
0
VERTEX
8
RASTER
10
32.396
20
5.681
30
0
0
VERTEX
8
RASTER
10
31.151
20
6.064
30
0
0
VERTEX
8
RASTER
10
30.452
20
6.418
30
0
0
VERTEX
8
RASTER
10
30.069
20
6.801
30
0
0
VERTEX
8
RASTER
10
29.907
20
7.117
30
0
0
VERTEX
8
RASTER
10
29.907
20
7.883
30
0
0
VERTEX
8
RASTER
10
29.811
20
8.075
30
0
0
VERTEX
8
RASTER
10
29.811
20
9.99
30
0
0
VERTEX
8
RASTER
10
29.715
20
10.181
30
0
0
VERTEX
8
RASTER
10
29.715
20
12
30
0
0
VERTEX
8
RASTER
10
29.619
20
12.192
30
0
0
VERTEX
8
RASTER
10
29.619
20
14.585
30
0
0
SEQEND
8
RASTER
0
POLYLINE
8
RASTER
66
1
70
1
0
VERTEX
8
RASTER
10
37.786
20
9.961
30
0
0
VERTEX
8
RASTER
10
37.853
20
9.894
30
0
0
VERTEX
8
RASTER
10
37.853
20
9.032
30
0
0
VERTEX
8
RASTER
10
37.758
20
8.936
30
0
0
VERTEX
8
RASTER
10
37.662
20
9.032
30
0
0
VERTEX
8
RASTER
10
37.662
20
9.224
30
0
0
VERTEX
8
RASTER
10
37.758
20
9.415
30
0
0
SEQEND
8
RASTER
0
POLYLINE
8
CUT
66
1
70
1
0
VERTEX
8
CUT
10
48.697
20
24.045
30
0
0
VERTEX
8
CUT
10
51.999
20
24.034
30
0
0
VERTEX
8
CUT
10
56.804
20
22.411
30
0
0
VERTEX
8
CUT
10
57.305
20
21.822
30
0
0
VERTEX
8
CUT
10
58.068
20
18.227
30
0
0
VERTEX
8
CUT
10
61.369
20
17.823
30
0
0
VERTEX
8
CUT
10
63.832
20
15.383
30
0
0
VERTEX
8
CUT
10
64.082
20
14.544
30
0
0
VERTEX
8
CUT
10
64.06
20
9.989
30
0
0
VERTEX
8
CUT
10
62.579
20
6.568
30
0
0
VERTEX
8
CUT
10
58.416
20
6.045
30
0
0
VERTEX
8
CUT
10
55.169
20
6.067
30
0
0
VERTEX
8
CUT
10
54.407
20
6.394
30
0
0
VERTEX
8
CUT
10
51.933
20
8.932
30
0
0
VERTEX
8
CUT
10
49.079
20
9.51
30
0
0
VERTEX
8
CUT
10
48.261
20
8.464
30
0
0
VERTEX
8
CUT
10
46.126
20
8.682
30
0
0
VERTEX
8
CUT
10
45.941
20
10.458
30
0
0
VERTEX
8
CUT
10
44.786
20
11.591
30
0
0
VERTEX
8
CUT
10
44.088
20
14.598
30
0
0
VERTEX
8
CUT
10
44.056
20
20.297
30
0
0
VERTEX
8
CUT
10
44.437
20
21.005
30
0
0
SEQEND
8
CUT
0
POLYLINE
8
RASTER
66
1
70
1
0
VERTEX
8
RASTER
10
50.059
20
23.119
30
0
0
VERTEX
8
RASTER
10
50.244
20
23.152
30
0
0
VERTEX
8
RASTER
10
51.77
20
22.716
30
0
0
VERTEX
8
RASTER
10
55.366
20
21.517
30
0
0
VERTEX
8
RASTER
10
55.943
20
21.223
30
0
0
VERTEX
8
RASTER
10
56.346
20
20.428
30
0
0
VERTEX
8
RASTER
10
56.858
20
17.017
30
0
0
VERTEX
8
RASTER
10
59.833
20
16.941
30
0
0
VERTEX
8
RASTER
10
60.301
20
16.756
30
0
0
VERTEX
8
RASTER
10
61.173
20
15.993
30
0
0
VERTEX
8
RASTER
10
61.543
20
15.492
30
0
0
VERTEX
8
RASTER
10
63.134
20
13.923
30
0
0
VERTEX
8
RASTER
10
63.461
20
13.487
30
0
0
VERTEX
8
RASTER
10
63.646
20
13.127
30
0
0
VERTEX
8
RASTER
10
63.646
20
12.474
30
0
0
VERTEX
8
RASTER
10
61.5
20
7.538
30
0
0
VERTEX
8
RASTER
10
60.704
20
7.353
30
0
0
VERTEX
8
RASTER
10
58.089
20
7.244
30
0
0
VERTEX
8
RASTER
10
57.872
20
7.135
30
0
0
VERTEX
8
RASTER
10
55.91
20
7.135
30
0
0
VERTEX
8
RASTER
10
55.115
20
7.865
30
0
0
VERTEX
8
RASTER
10
54.962
20
8.148
30
0
0
VERTEX
8
RASTER
10
54.461
20
8.627
30
0
0
VERTEX
8
RASTER
10
54.309
20
8.911
30
0
0
VERTEX
8
RASTER
10
52.892
20
10.545
30
0
0
VERTEX
8
RASTER
10
52.718
20
10.545
30
0
0
VERTEX
8
RASTER
10
52.565
20
10.371
30
0
0
VERTEX
8
RASTER
10
51.988
20
10.076
30
0
0
VERTEX
8
RASTER
10
51.334
20
10.185
30
0
0
VERTEX
8
RASTER
10
46.758
20
11.929
30
0
0
VERTEX
8
RASTER
10
46.18
20
12.223
30
0
0
VERTEX
8
RASTER
10
45.962
20
12.441
30
0
0
VERTEX
8
RASTER
10
45.668
20
13.236
30
0
0
VERTEX
8
RASTER
10
45.014
20
16.505
30
0
0
VERTEX
8
RASTER
10
44.688
20
17.595
30
0
0
VERTEX
8
RASTER
10
44.579
20
18.793
30
0
0
VERTEX
8
RASTER
10
44.873
20
19.371
30
0
0
VERTEX
8
RASTER
10
45.2
20
19.698
30
0
0
VERTEX
8
RASTER
10
49.122
20
22.639
30
0
0
SEQEND
8
RASTER
0
POLYLINE
8
RASTER
66
1
70
1
0
VERTEX
8
RASTER
10
50.027
20
22.498
30
0
0
VERTEX
8
RASTER
10
45.527
20
19.153
30
0
0
VERTEX
8
RASTER
10
45.232
20
18.684
30
0
0
VERTEX
8
RASTER
10
45.232
20
18.466
30
0
0
VERTEX
8
RASTER
10
45.483
20
17.3
30
0
0
VERTEX
8
RASTER
10
45.744
20
17.453
30
0
0
VERTEX
8
RASTER
10
45.995
20
17.05
30
0
0
VERTEX
8
RASTER
10
45.886
20
16.941
30
0
0
VERTEX
8
RASTER
10
45.592
20
17.017
30
0
0
VERTEX
8
RASTER
10
45.559
20
16.723
30
0
0
VERTEX
8
RASTER
10
45.853
20
15.601
30
0
0
VERTEX
8
RASTER
10
46.071
20
15.601
30
0
0
VERTEX
8
RASTER
10
46.322
20
15.415
30
0
0
VERTEX
8
RASTER
10
46.18
20
15.23
30
0
0
VERTEX
8
RASTER
10
45.962
20
15.383
30
0
0
VERTEX
8
RASTER
10
45.886
20
15.307
30
0
0
VERTEX
8
RASTER
10
46.507
20
12.877
30
0
0
VERTEX
8
RASTER
10
46.758
20
12.691
30
0
0
VERTEX
8
RASTER
10
48.098
20
12.179
30
0
0
VERTEX
8
RASTER
10
48.098
20
12.288
30
0
0
VERTEX
8
RASTER
10
47.88
20
12.397
30
0
0
VERTEX
8
RASTER
10
48.033
20
12.615
30
0
0
VERTEX
8
RASTER
10
47.989
20
12.768
30
0
0
VERTEX
8
RASTER
10
48.501
20
12.583
30
0
0
VERTEX
8
RASTER
10
48.534
20
12.724
30
0
0
VERTEX
8
RASTER
10
48.316
20
12.724
30
0
0
VERTEX
8
RASTER
10
48.501
20
12.909
30
0
0
VERTEX
8
RASTER
10
48.686
20
12.877
30
0
0
VERTEX
8
RASTER
10
48.752
20
12.615
30
0
0
VERTEX
8
RASTER
10
48.904
20
12.768
30
0
0
VERTEX
8
RASTER
10
48.97
20
12.615
30
0
0
VERTEX
8
RASTER
10
49.155
20
12.691
30
0
0
VERTEX
8
RASTER
10
49.482
20
12.474
30
0
0
VERTEX
8
RASTER
10
49.667
20
12.55
30
0
0
VERTEX
8
RASTER
10
49.841
20
12.397
30
0
0
VERTEX
8
RASTER
10
49.994
20
12.441
30
0
0
VERTEX
8
RASTER
10
49.809
20
12.038
30
0
0
VERTEX
8
RASTER
10
49.885
20
11.896
30
0
0
VERTEX
8
RASTER
10
49.994
20
11.853
30
0
0
VERTEX
8
RASTER
10
50.212
20
12.005
30
0
0
VERTEX
8
RASTER
10
50.277
20
11.853
30
0
0
VERTEX
8
RASTER
10
50.462
20
11.929
30
0
0
VERTEX
8
RASTER
10
50.713
20
11.744
30
0
0
VERTEX
8
RASTER
10
50.713
20
11.896
30
0
0
VERTEX
8
RASTER
10
50.866
20
11.896
30
0
0
VERTEX
8
RASTER
10
50.974
20
11.417
30
0
0
VERTEX
8
RASTER
10
50.604
20
11.46
30
0
0
VERTEX
8
RASTER
10
50.757
20
11.351
30
0
0
VERTEX
8
RASTER
10
50.604
20
11.199
30
0
0
VERTEX
8
RASTER
10
51.77
20
10.839
30
0
0
VERTEX
8
RASTER
10
51.955
20
11.199
30
0
0
VERTEX
8
RASTER
10
51.879
20
12.147
30
0
0
VERTEX
8
RASTER
10
51.77
20
12.365
30
0
0
VERTEX
8
RASTER
10
51.77
20
12.8
30
0
0
VERTEX
8
RASTER
10
51.879
20
13.018
30
0
0
VERTEX
8
RASTER
10
51.661
20
13.127
30
0
0
VERTEX
8
RASTER
10
51.552
20
14.108
30
0
0
VERTEX
8
RASTER
10
51.628
20
14.184
30
0
0
VERTEX
8
RASTER
10
51.737
20
13.923
30
0
0
VERTEX
8
RASTER
10
52.097
20
14.326
30
0
0
VERTEX
8
RASTER
10
52.238
20
14.141
30
0
0
VERTEX
8
RASTER
10
52.391
20
14.141
30
0
0
VERTEX
8
RASTER
10
52.391
20
14.293
30
0
0
VERTEX
8
RASTER
10
52.238
20
14.402
30
0
0
VERTEX
8
RASTER
10
52.533
20
14.762
30
0
0
VERTEX
8
RASTER
10
52.347
20
14.838
30
0
0
VERTEX
8
RASTER
10
52.064
20
14.685
30
0
0
VERTEX
8
RASTER
10
52.064
20
14.468
30
0
0
VERTEX
8
RASTER
10
51.879
20
14.544
30
0
0
VERTEX
8
RASTER
10
51.846
20
14.359
30
0
0
VERTEX
8
RASTER
10
51.661
20
14.326
30
0
0
VERTEX
8
RASTER
10
51.628
20
14.511
30
0
0
VERTEX
8
RASTER
10
51.443
20
14.544
30
0
0
VERTEX
8
RASTER
10
51.476
20
14.947
30
0
0
VERTEX
8
RASTER
10
51.77
20
15.198
30
0
0
VERTEX
8
RASTER
10
52.064
20
15.121
30
0
0
VERTEX
8
RASTER
10
52.097
20
15.307
30
0
0
VERTEX
8
RASTER
10
51.988
20
15.524
30
0
0
VERTEX
8
RASTER
10
52.129
20
15.71
30
0
0
VERTEX
8
RASTER
10
52.347
20
15.71
30
0
0
VERTEX
8
RASTER
10
52.391
20
15.819
30
0
0
VERTEX
8
RASTER
10
52.238
20
15.775
30
0
0
VERTEX
8
RASTER
10
52.206
20
15.96
30
0
0
VERTEX
8
RASTER
10
52.424
20
16.287
30
0
0
VERTEX
8
RASTER
10
52.674
20
16.102
30
0
0
VERTEX
8
RASTER
10
52.859
20
15.742
30
0
0
VERTEX
8
RASTER
10
53.001
20
16.037
30
0
0
VERTEX
8
RASTER
10
53.219
20
16.145
30
0
0
VERTEX
8
RASTER
10
53.481
20
16.037
30
0
0
VERTEX
8
RASTER
10
53.589
20
15.775
30
0
0
VERTEX
8
RASTER
10
53.404
20
15.633
30
0
0
VERTEX
8
RASTER
10
53.807
20
15.23
30
0
0
VERTEX
8
RASTER
10
54.352
20
16.538
30
0
0
VERTEX
8
RASTER
10
54.679
20
16.865
30
0
0
VERTEX
8
RASTER
10
55.039
20
17.05
30
0
0
VERTEX
8
RASTER
10
56.096
20
17.083
30
0
0
VERTEX
8
RASTER
10
56.019
20
18.139
30
0
0
VERTEX
8
RASTER
10
55.943
20
18.281
30
0
0
VERTEX
8
RASTER
10
55.692
20
18.357
30
0
0
VERTEX
8
RASTER
10
55.878
20
18.499
30
0
0
VERTEX
8
RASTER
10
55.91
20
18.793
30
0
0
VERTEX
8
RASTER
10
55.834
20
18.869
30
0
0
VERTEX
8
RASTER
10
55.616
20
18.717
30
0
0
VERTEX
8
RASTER
10
55.18
20
18.935
30
0
0
VERTEX
8
RASTER
10
55.366
20
19.229
30
0
0
VERTEX
8
RASTER
10
55.18
20
19.632
30
0
0
VERTEX
8
RASTER
10
55.398
20
19.589
30
0
0
VERTEX
8
RASTER
10
55.66
20
19.305
30
0
0
VERTEX
8
RASTER
10
55.769
20
18.935
30
0
0
VERTEX
8
RASTER
10
55.801
20
19.665
30
0
0
VERTEX
8
RASTER
10
55.692
20
19.883
30
0
0
VERTEX
8
RASTER
10
55.692
20
20.319
30
0
0
VERTEX
8
RASTER
10
55.507
20
20.678
30
0
0
VERTEX
8
RASTER
10
55.039
20
20.972
30
0
0
VERTEX
8
RASTER
10
50.68
20
22.389
30
0
0
SEQEND
8
RASTER
0
POLYLINE
8
RASTER
66
1
70
1
0
VERTEX
8
RASTER
10
54.962
20
19.741
30
0
0
VERTEX
8
RASTER
10
55.039
20
19.338
30
0
0
VERTEX
8
RASTER
10
54.897
20
19.044
30
0
0
VERTEX
8
RASTER
10
54.821
20
19.12
30
0
0
VERTEX
8
RASTER
10
54.897
20
19.305
30
0
0
VERTEX
8
RASTER
10
54.712
20
19.447
30
0
0
VERTEX
8
RASTER
10
54.418
20
19.262
30
0
0
VERTEX
8
RASTER
10
54.57
20
19.48
30
0
0
SEQEND
8
RASTER
0
POLYLINE
8
RASTER
66
1
70
1
0
VERTEX
8
RASTER
10
52.456
20
16.799
30
0
0
VERTEX
8
RASTER
10
53.045
20
16.581
30
0
0
VERTEX
8
RASTER
10
53.077
20
16.396
30
0
0
VERTEX
8
RASTER
10
52.827
20
16.102
30
0
0
VERTEX
8
RASTER
10
52.75
20
16.178
30
0
0
VERTEX
8
RASTER
10
52.936
20
16.472
30
0
0
VERTEX
8
RASTER
10
52.75
20
16.505
30
0
0
VERTEX
8
RASTER
10
52.718
20
16.32
30
0
0
VERTEX
8
RASTER
10
52.565
20
16.32
30
0
0
VERTEX
8
RASTER
10
52.642
20
16.614
30
0
0
SEQEND
8
RASTER
0
POLYLINE
8
RASTER
66
1
70
1
0
VERTEX
8
RASTER
10
45.919
20
16.581
30
0
0
VERTEX
8
RASTER
10
46.104
20
16.614
30
0
0
VERTEX
8
RASTER
10
46.213
20
16.505
30
0
0
VERTEX
8
RASTER
10
46.213
20
16.178
30
0
0
VERTEX
8
RASTER
10
46.104
20
16.069
30
0
0
VERTEX
8
RASTER
10
45.853
20
16.145
30
0
0
VERTEX
8
RASTER
10
45.777
20
16.287
30
0
0
SEQEND
8
RASTER
0
POLYLINE
8
RASTER
66
1
70
1
0
VERTEX
8
RASTER
10
55.257
20
16.505
30
0
0
VERTEX
8
RASTER
10
54.962
20
16.363
30
0
0
VERTEX
8
RASTER
10
54.712
20
15.851
30
0
0
VERTEX
8
RASTER
10
54.712
20
15.633
30
0
0
VERTEX
8
RASTER
10
54.276
20
14.544
30
0
0
VERTEX
8
RASTER
10
54.385
20
14.217
30
0
0
VERTEX
8
RASTER
10
54.309
20
14.141
30
0
0
VERTEX
8
RASTER
10
54.2
20
14.293
30
0
0
VERTEX
8
RASTER
10
54.058
20
13.999
30
0
0
VERTEX
8
RASTER
10
53.295
20
11.82
30
0
0
VERTEX
8
RASTER
10
53.295
20
11.166
30
0
0
VERTEX
8
RASTER
10
53.481
20
10.807
30
0
0
VERTEX
8
RASTER
10
54.853
20
9.346
30
0
0
VERTEX
8
RASTER
10
55.987
20
7.865
30
0
0
VERTEX
8
RASTER
10
56.096
20
7.821
30
0
0
VERTEX
8
RASTER
10
56.313
20
8.083
30
0
0
VERTEX
8
RASTER
10
56.27
20
7.821
30
0
0
VERTEX
8
RASTER
10
56.564
20
7.788
30
0
0
VERTEX
8
RASTER
10
56.64
20
7.821
30
0
0
VERTEX
8
RASTER
10
56.564
20
8.115
30
0
0
VERTEX
8
RASTER
10
56.346
20
8.333
30
0
0
VERTEX
8
RASTER
10
56.815
20
9.281
30
0
0
VERTEX
8
RASTER
10
57
20
9.205
30
0
0
VERTEX
8
RASTER
10
57.109
20
9.314
30
0
0
VERTEX
8
RASTER
10
56.891
20
9.532
30
0
0
VERTEX
8
RASTER
10
57.294
20
9.782
30
0
0
VERTEX
8
RASTER
10
57.109
20
9.968
30
0
0
VERTEX
8
RASTER
10
57.142
20
10.153
30
0
0
VERTEX
8
RASTER
10
57.436
20
10.076
30
0
0
VERTEX
8
RASTER
10
57.545
20
10.185
30
0
0
VERTEX
8
RASTER
10
57.25
20
10.371
30
0
0
VERTEX
8
RASTER
10
58.275
20
12.615
30
0
0
VERTEX
8
RASTER
10
58.525
20
12.8
30
0
0
VERTEX
8
RASTER
10
59.07
20
12.8
30
0
0
VERTEX
8
RASTER
10
59.473
20
11.896
30
0
0
VERTEX
8
RASTER
10
59.724
20
11.929
30
0
0
VERTEX
8
RASTER
10
60.127
20
11.744
30
0
0
VERTEX
8
RASTER
10
59.866
20
11.961
30
0
0
VERTEX
8
RASTER
10
59.866
20
12.223
30
0
0
VERTEX
8
RASTER
10
60.127
20
12.179
30
0
0
VERTEX
8
RASTER
10
60.127
20
12.332
30
0
0
VERTEX
8
RASTER
10
59.833
20
12.474
30
0
0
VERTEX
8
RASTER
10
59.506
20
12.147
30
0
0
VERTEX
8
RASTER
10
59.43
20
12.441
30
0
0
VERTEX
8
RASTER
10
59.539
20
12.659
30
0
0
VERTEX
8
RASTER
10
59.942
20
12.691
30
0
0
VERTEX
8
RASTER
10
60.127
20
12.506
30
0
0
VERTEX
8
RASTER
10
60.378
20
12.691
30
0
0
VERTEX
8
RASTER
10
60.454
20
12.615
30
0
0
VERTEX
8
RASTER
10
60.301
20
12.441
30
0
0
VERTEX
8
RASTER
10
60.345
20
12.332
30
0
0
VERTEX
8
RASTER
10
60.563
20
12.332
30
0
0
VERTEX
8
RASTER
10
60.672
20
12.114
30
0
0
VERTEX
8
RASTER
10
60.89
20
12.005
30
0
0
VERTEX
8
RASTER
10
60.596
20
11.711
30
0
0
VERTEX
8
RASTER
10
60.672
20
11.569
30
0
0
VERTEX
8
RASTER
10
60.999
20
11.46
30
0
0
VERTEX
8
RASTER
10
60.922
20
11.275
30
0
0
VERTEX
8
RASTER
10
61.108
20
10.872
30
0
0
VERTEX
8
RASTER
10
60.922
20
10.73
30
0
0
VERTEX
8
RASTER
10
61.031
20
10.512
30
0
0
VERTEX
8
RASTER
10
60.955
20
10.371
30
0
0
VERTEX
8
RASTER
10
60.628
20
10.109
30
0
0
VERTEX
8
RASTER
10
60.672
20
10.48
30
0
0
VERTEX
8
RASTER
10
60.454
20
10.436
30
0
0
VERTEX
8
RASTER
10
60.41
20
10.153
30
0
0
VERTEX
8
RASTER
10
60.236
20
9.891
30
0
0
VERTEX
8
RASTER
10
60.083
20
9.891
30
0
0
VERTEX
8
RASTER
10
60.269
20
10.294
30
0
0
VERTEX
8
RASTER
10
60.192
20
10.371
30
0
0
VERTEX
8
RASTER
10
59.974
20
10.218
30
0
0
VERTEX
8
RASTER
10
59.909
20
10.371
30
0
0
VERTEX
8
RASTER
10
59.724
20
10.403
30
0
0
VERTEX
8
RASTER
10
59.724
20
10.73
30
0
0
VERTEX
8
RASTER
10
59.942
20
11.275
30
0
0
VERTEX
8
RASTER
10
59.757
20
11.351
30
0
0
VERTEX
8
RASTER
10
59.43
20
10.545
30
0
0
VERTEX
8
RASTER
10
59.615
20
10.294
30
0
0
VERTEX
8
RASTER
10
59.582
20
10.044
30
0
0
VERTEX
8
RASTER
10
59.8
20
9.935
30
0
0
VERTEX
8
RASTER
10
59.866
20
9.673
30
0
0
VERTEX
8
RASTER
10
60.127
20
9.499
30
0
0
VERTEX
8
RASTER
10
59.909
20
9.02
30
0
0
VERTEX
8
RASTER
10
59.833
20
9.096
30
0
0
VERTEX
8
RASTER
10
60.018
20
9.499
30
0
0
VERTEX
8
RASTER
10
59.757
20
9.346
30
0
0
VERTEX
8
RASTER
10
59.724
20
9.532
30
0
0
VERTEX
8
RASTER
10
59.582
20
9.455
30
0
0
VERTEX
8
RASTER
10
59.582
20
9.237
30
0
0
VERTEX
8
RASTER
10
59.43
20
9.281
30
0
0
VERTEX
8
RASTER
10
59.364
20
9.129
30
0
0
VERTEX
8
RASTER
10
59.288
20
9.205
30
0
0
VERTEX
8
RASTER
10
59.539
20
9.717
30
0
0
VERTEX
8
RASTER
10
59.691
20
9.782
30
0
0
VERTEX
8
RASTER
10
59.615
20
9.859
30
0
0
VERTEX
8
RASTER
10
59.321
20
9.717
30
0
0
VERTEX
8
RASTER
10
59.212
20
9.39
30
0
0
VERTEX
8
RASTER
10
59.07
20
9.314
30
0
0
VERTEX
8
RASTER
10
58.852
20
9.423
30
0
0
VERTEX
8
RASTER
10
58.667
20
9.172
30
0
0
VERTEX
8
RASTER
10
58.743
20
9.096
30
0
0
VERTEX
8
RASTER
10
59.146
20
9.172
30
0
0
VERTEX
8
RASTER
10
59.179
20
9.096
30
0
0
VERTEX
8
RASTER
10
58.885
20
8.627
30
0
0
VERTEX
8
RASTER
10
59.255
20
8.518
30
0
0
VERTEX
8
RASTER
10
59.037
20
8.257
30
0
0
VERTEX
8
RASTER
10
58.776
20
8.518
30
0
0
VERTEX
8
RASTER
10
58.558
20
8.039
30
0
0
VERTEX
8
RASTER
10
58.34
20
8.148
30
0
0
VERTEX
8
RASTER
10
58.198
20
8.442
30
0
0
VERTEX
8
RASTER
10
58.057
20
8.366
30
0
0
VERTEX
8
RASTER
10
58.013
20
8.083
30
0
0
VERTEX
8
RASTER
10
57.686
20
7.93
30
0
0
VERTEX
8
RASTER
10
59.07
20
7.897
30
0
0
VERTEX
8
RASTER
10
59.288
20
8.006
30
0
0
VERTEX
8
RASTER
10
60.596
20
8.006
30
0
0
VERTEX
8
RASTER
10
61.064
20
8.191
30
0
0
VERTEX
8
RASTER
10
61.685
20
9.423
30
0
0
VERTEX
8
RASTER
10
62.993
20
12.583
30
0
0
VERTEX
8
RASTER
10
63.069
20
12.877
30
0
0
VERTEX
8
RASTER
10
62.698
20
13.487
30
0
0
VERTEX
8
RASTER
10
61.108
20
15.056
30
0
0
VERTEX
8
RASTER
10
60.955
20
15.339
30
0
0
VERTEX
8
RASTER
10
60.41
20
15.884
30
0
0
VERTEX
8
RASTER
10
59.833
20
16.287
30
0
0
VERTEX
8
RASTER
10
59.397
20
16.396
30
0
0
VERTEX
8
RASTER
10
56.673
20
16.396
30
0
0
VERTEX
8
RASTER
10
56.455
20
16.505
30
0
0
SEQEND
8
RASTER
0
POLYLINE
8
RASTER
66
1
70
1
0
VERTEX
8
RASTER
10
60.628
20
12.659
30
0
0
VERTEX
8
RASTER
10
60.922
20
12.691
30
0
0
VERTEX
8
RASTER
10
61.031
20
12.583
30
0
0
VERTEX
8
RASTER
10
60.955
20
12.441
30
0
0
VERTEX
8
RASTER
10
60.704
20
12.365
30
0
0
SEQEND
8
RASTER
0
POLYLINE
8
RASTER
66
1
70
1
0
VERTEX
8
RASTER
10
52.609
20
12.005
30
0
0
VERTEX
8
RASTER
10
52.129
20
11.787
30
0
0
VERTEX
8
RASTER
10
52.129
20
11.635
30
0
0
VERTEX
8
RASTER
10
52.424
20
11.711
30
0
0
VERTEX
8
RASTER
10
52.609
20
11.635
30
0
0
SEQEND
8
RASTER
0
POLYLINE
8
RASTER
66
1
70
1
0
VERTEX
8
RASTER
10
58.493
20
12.005
30
0
0
VERTEX
8
RASTER
10
58.307
20
11.82
30
0
0
VERTEX
8
RASTER
10
58.384
20
11.635
30
0
0
VERTEX
8
RASTER
10
58.231
20
11.308
30
0
0
VERTEX
8
RASTER
10
58.449
20
11.351
30
0
0
VERTEX
8
RASTER
10
58.602
20
11.744
30
0
0
VERTEX
8
RASTER
10
58.711
20
11.787
30
0
0
VERTEX
8
RASTER
10
58.711
20
11.133
30
0
0
VERTEX
8
RASTER
10
58.928
20
11.133
30
0
0
VERTEX
8
RASTER
10
59.473
20
10.872
30
0
0
VERTEX
8
RASTER
10
59.43
20
11.09
30
0
0
VERTEX
8
RASTER
10
58.994
20
11.199
30
0
0
VERTEX
8
RASTER
10
58.852
20
11.493
30
0
0
VERTEX
8
RASTER
10
59.037
20
11.744
30
0
0
VERTEX
8
RASTER
10
58.994
20
11.853
30
0
0
VERTEX
8
RASTER
10
58.82
20
12.005
30
0
0
VERTEX
8
RASTER
10
58.558
20
11.853
30
0
0
SEQEND
8
RASTER
0
POLYLINE
8
RASTER
66
1
70
1
0
VERTEX
8
RASTER
10
59.255
20
11.896
30
0
0
VERTEX
8
RASTER
10
59.179
20
11.82
30
0
0
VERTEX
8
RASTER
10
59.364
20
11.46
30
0
0
VERTEX
8
RASTER
10
59.539
20
11.46
30
0
0
VERTEX
8
RASTER
10
59.582
20
11.678
30
0
0
VERTEX
8
RASTER
10
59.321
20
11.744
30
0
0
SEQEND
8
RASTER
0
POLYLINE
8
RASTER
66
1
70
1
0
VERTEX
8
RASTER
10
52.5
20
11.569
30
0
0
VERTEX
8
RASTER
10
52.129
20
11.351
30
0
0
VERTEX
8
RASTER
10
52.315
20
11.057
30
0
0
VERTEX
8
RASTER
10
52.533
20
11.275
30
0
0
SEQEND
8
RASTER
0
POLYLINE
8
RASTER
66
1
70
1
0
VERTEX
8
RASTER
10
60.563
20
11.46
30
0
0
VERTEX
8
RASTER
10
60.454
20
11.09
30
0
0
VERTEX
8
RASTER
10
60.269
20
10.948
30
0
0
VERTEX
8
RASTER
10
60.301
20
10.872
30
0
0
VERTEX
8
RASTER
10
60.596
20
10.948
30
0
0
VERTEX
8
RASTER
10
60.781
20
10.763
30
0
0
VERTEX
8
RASTER
10
60.89
20
11.024
30
0
0
VERTEX
8
RASTER
10
60.704
20
11.166
30
0
0
VERTEX
8
RASTER
10
60.781
20
11.351
30
0
0
SEQEND
8
RASTER
0
POLYLINE
8
RASTER
66
1
70
1
0
VERTEX
8
RASTER
10
57.948
20
10.807
30
0
0
VERTEX
8
RASTER
10
57.904
20
10.545
30
0
0
VERTEX
8
RASTER
10
58.057
20
10.589
30
0
0
VERTEX
8
RASTER
10
58.384
20
10.436
30
0
0
VERTEX
8
RASTER
10
58.384
20
10.589
30
0
0
SEQEND
8
RASTER
0
POLYLINE
8
RASTER
66
1
70
1
0
VERTEX
8
RASTER
10
58.307
20
9.205
30
0
0
VERTEX
8
RASTER
10
58.166
20
9.129
30
0
0
VERTEX
8
RASTER
10
58.166
20
8.954
30
0
0
VERTEX
8
RASTER
10
58.602
20
8.693
30
0
0
VERTEX
8
RASTER
10
58.602
20
8.954
30
0
0
VERTEX
8
RASTER
10
58.449
20
8.911
30
0
0
SEQEND
8
RASTER
0
POLYLINE
8
CUT
66
1
70
1
0
VERTEX
8
CUT
10
73.538
20
24.045
30
0
0
VERTEX
8
CUT
10
81.118
20
23.914
30
0
0
VERTEX
8
CUT
10
83.147
20
21.287
30
0
0
VERTEX
8
CUT
10
84.484
20
18.804
30
0
0
VERTEX
8
CUT
10
85.559
20
14.984
30
0
0
VERTEX
8
CUT
10
85.368
20
9.111
30
0
0
VERTEX
8
CUT
10
83.899
20
6.043
30
0
0
VERTEX
8
CUT
10
81.643
20
4.241
30
0
0
VERTEX
8
CUT
10
72.463
20
4.157
30
0
0
VERTEX
8
CUT
10
70.016
20
5.888
30
0
0
VERTEX
8
CUT
10
68.739
20
7.953
30
0
0
VERTEX
8
CUT
10
68.082
20
11.117
30
0
0
VERTEX
8
CUT
10
68.082
20
13.862
30
0
0
VERTEX
8
CUT
10
68.548
20
16.859
30
0
0
VERTEX
8
CUT
10
70.685
20
21.407
30
0
0
VERTEX
8
CUT
10
72.284
20
23.269
30
0
0
SEQEND
8
CUT
0
POLYLINE
8
RASTER
66
1
70
1
0
VERTEX
8
RASTER
10
75.997
20
23.376
30
0
0
VERTEX
8
RASTER
10
77.752
20
23.412
30
0
0
VERTEX
8
RASTER
10
78.468
20
23.174
30
0
0
VERTEX
8
RASTER
10
79.936
20
22.374
30
0
0
VERTEX
8
RASTER
10
81.249
20
21.061
30
0
0
VERTEX
8
RASTER
10
82.085
20
19.867
30
0
0
VERTEX
8
RASTER
10
83.004
20
18.16
30
0
0
VERTEX
8
RASTER
10
83.84
20
16.011
30
0
0
VERTEX
8
RASTER
10
84.317
20
13.982
30
0
0
VERTEX
8
RASTER
10
84.317
20
11.117
30
0
0
VERTEX
8
RASTER
10
84.198
20
10.52
30
0
0
VERTEX
8
RASTER
10
83.601
20
8.729
30
0
0
VERTEX
8
RASTER
10
83.04
20
7.738
30
0
0
VERTEX
8
RASTER
10
81.607
20
6.186
30
0
0
VERTEX
8
RASTER
10
80.891
20
5.709
30
0
0
VERTEX
8
RASTER
10
79.781
20
5.148
30
0
0
VERTEX
8
RASTER
10
77.99
20
4.67
30
0
0
VERTEX
8
RASTER
10
75.842
20
4.67
30
0
0
VERTEX
8
RASTER
10
75.245
20
4.79
30
0
0
VERTEX
8
RASTER
10
73.812
20
5.267
30
0
0
VERTEX
8
RASTER
10
72.583
20
5.948
30
0
0
VERTEX
8
RASTER
10
71.508
20
6.783
30
0
0
VERTEX
8
RASTER
10
70.792
20
7.619
30
0
0
VERTEX
8
RASTER
10
69.753
20
9.684
30
0
0
VERTEX
8
RASTER
10
69.395
20
11.117
30
0
0
VERTEX
8
RASTER
10
69.395
20
13.743
30
0
0
VERTEX
8
RASTER
10
69.515
20
13.982
30
0
0
VERTEX
8
RASTER
10
69.634
20
15.175
30
0
0
VERTEX
8
RASTER
10
69.992
20
16.369
30
0
0
VERTEX
8
RASTER
10
71.031
20
18.792
30
0
0
VERTEX
8
RASTER
10
71.986
20
20.344
30
0
0
VERTEX
8
RASTER
10
73.299
20
21.896
30
0
0
VERTEX
8
RASTER
10
74.612
20
22.851
30
0
0
SEQEND
8
RASTER
0
POLYLINE
8
RASTER
66
1
70
1
0
VERTEX
8
RASTER
10
76.2
20
22.815
30
0
0
VERTEX
8
RASTER
10
75.4
20
22.541
30
0
0
VERTEX
8
RASTER
10
74.135
20
21.777
30
0
0
VERTEX
8
RASTER
10
73.18
20
20.822
30
0
0
VERTEX
8
RASTER
10
71.986
20
19.151
30
0
0
VERTEX
8
RASTER
10
71.067
20
17.324
30
0
0
VERTEX
8
RASTER
10
70.35
20
15.295
30
0
0
VERTEX
8
RASTER
10
70.112
20
14.101
30
0
0
VERTEX
8
RASTER
10
70.112
20
13.385
30
0
0
VERTEX
8
RASTER
10
69.992
20
13.146
30
0
0
VERTEX
8
RASTER
10
69.992
20
11.833
30
0
0
VERTEX
8
RASTER
10
70.112
20
11.594
30
0
0
VERTEX
8
RASTER
10
70.231
20
10.4
30
0
0
VERTEX
8
RASTER
10
70.47
20
9.684
30
0
0
VERTEX
8
RASTER
10
71.15
20
8.335
30
0
0
VERTEX
8
RASTER
10
72.225
20
7.022
30
0
0
VERTEX
8
RASTER
10
74.051
20
5.864
30
0
0
VERTEX
8
RASTER
10
75.603
20
5.387
30
0
0
VERTEX
8
RASTER
10
77.394
20
5.267
30
0
0
VERTEX
8
RASTER
10
77.632
20
5.387
30
0
0
VERTEX
8
RASTER
10
78.826
20
5.506
30
0
0
VERTEX
8
RASTER
10
79.542
20
5.745
30
0
0
VERTEX
8
RASTER
10
81.369
20
6.783
30
0
0
VERTEX
8
RASTER
10
82.085
20
7.5
30
0
0
VERTEX
8
RASTER
10
82.921
20
8.813
30
0
0
VERTEX
8
RASTER
10
83.482
20
10.281
30
0
0
VERTEX
8
RASTER
10
83.72
20
11.355
30
0
0
VERTEX
8
RASTER
10
83.72
20
13.504
30
0
0
VERTEX
8
RASTER
10
83.362
20
15.295
30
0
0
VERTEX
8
RASTER
10
82.646
20
17.324
30
0
0
VERTEX
8
RASTER
10
81.607
20
19.389
30
0
0
VERTEX
8
RASTER
10
80.414
20
21.061
30
0
0
VERTEX
8
RASTER
10
79.459
20
21.896
30
0
0
VERTEX
8
RASTER
10
77.99
20
22.696
30
0
0
VERTEX
8
RASTER
10
77.513
20
22.815
30
0
0
SEQEND
8
RASTER
0
POLYLINE
8
RASTER
66
1
70
1
0
VERTEX
8
RASTER
10
72.893
20
18.96
30
0
0
VERTEX
8
RASTER
10
73.096
20
18.876
30
0
0
VERTEX
8
RASTER
10
72.977
20
18.637
30
0
0
VERTEX
8
RASTER
10
73.215
20
17.921
30
0
0
VERTEX
8
RASTER
10
72.893
20
17.527
30
0
0
VERTEX
8
RASTER
10
72.416
20
17.36
30
0
0
VERTEX
8
RASTER
10
72.105
20
17.527
30
0
0
VERTEX
8
RASTER
10
72.022
20
18.04
30
0
0
VERTEX
8
RASTER
10
72.344
20
18.673
30
0
0
VERTEX
8
RASTER
10
72.618
20
18.876
30
0
0
VERTEX
8
RASTER
10
72.941
20
18.792
30
0
0
SEQEND
8
RASTER
0
POLYLINE
8
RASTER
66
1
70
1
0
VERTEX
8
RASTER
10
71.58
20
15.259
30
0
0
VERTEX
8
RASTER
10
71.902
20
15.295
30
0
0
VERTEX
8
RASTER
10
72.26
20
14.937
30
0
0
VERTEX
8
RASTER
10
72.26
20
14.34
30
0
0
VERTEX
8
RASTER
10
71.783
20
13.862
30
0
0
VERTEX
8
RASTER
10
71.389
20
14.065
30
0
0
VERTEX
8
RASTER
10
71.186
20
14.459
30
0
0
VERTEX
8
RASTER
10
71.186
20
14.698
30
0
0
SEQEND
8
RASTER
0
POLYLINE
8
RASTER
66
1
70
1
0
VERTEX
8
RASTER
10
76.713
20
15.02
30
0
0
VERTEX
8
RASTER
10
77.632
20
15.056
30
0
0
VERTEX
8
RASTER
10
78.026
20
14.853
30
0
0
VERTEX
8
RASTER
10
78.313
20
14.543
30
0
0
VERTEX
8
RASTER
10
78.587
20
13.743
30
0
0
VERTEX
8
RASTER
10
78.587
20
13.265
30
0
0
VERTEX
8
RASTER
10
78.265
20
12.394
30
0
0
VERTEX
8
RASTER
10
77.787
20
11.916
30
0
0
VERTEX
8
RASTER
10
77.394
20
11.714
30
0
0
VERTEX
8
RASTER
10
76.677
20
11.714
30
0
0
VERTEX
8
RASTER
10
76.116
20
11.988
30
0
0
VERTEX
8
RASTER
10
75.722
20
12.669
30
0
0
VERTEX
8
RASTER
10
75.722
20
13.743
30
0
0
VERTEX
8
RASTER
10
76.164
20
14.614
30
0
0
SEQEND
8
RASTER
0
POLYLINE
8
RASTER
66
1
70
1
0
VERTEX
8
RASTER
10
81.488
20
14.662
30
0
0
VERTEX
8
RASTER
10
81.81
20
14.698
30
0
0
VERTEX
8
RASTER
10
82.049
20
14.459
30
0
0
VERTEX
8
RASTER
10
82.049
20
13.982
30
0
0
VERTEX
8
RASTER
10
81.691
20
13.624
30
0
0
VERTEX
8
RASTER
10
81.416
20
13.707
30
0
0
VERTEX
8
RASTER
10
81.214
20
14.101
30
0
0
SEQEND
8
RASTER
0
POLYLINE
8
RASTER
66
1
70
1
0
VERTEX
8
RASTER
10
77
20
14.423
30
0
0
VERTEX
8
RASTER
10
76.916
20
14.34
30
0
0
VERTEX
8
RASTER
10
77.119
20
13.779
30
0
0
VERTEX
8
RASTER
10
77.274
20
13.982
30
0
0
SEQEND
8
RASTER
0
POLYLINE
8
RASTER
66
1
70
1
0
VERTEX
8
RASTER
10
77.513
20
13.862
30
0
0
VERTEX
8
RASTER
10
77.429
20
13.779
30
0
0
VERTEX
8
RASTER
10
77.835
20
13.588
30
0
0
VERTEX
8
RASTER
10
77.787
20
13.421
30
0
0
VERTEX
8
RASTER
10
77.907
20
13.301
30
0
0
VERTEX
8
RASTER
10
78.074
20
13.659
30
0
0
VERTEX
8
RASTER
10
78.313
20
13.659
30
0
0
VERTEX
8
RASTER
10
78.11
20
13.862
30
0
0
VERTEX
8
RASTER
10
77.955
20
13.779
30
0
0
SEQEND
8
RASTER
0
POLYLINE
8
RASTER
66
1
70
1
0
VERTEX
8
RASTER
10
76.88
20
13.588
30
0
0
VERTEX
8
RASTER
10
76.88
20
13.421
30
0
0
VERTEX
8
RASTER
10
76.594
20
13.349
30
0
0
VERTEX
8
RASTER
10
76.713
20
12.824
30
0
0
VERTEX
8
RASTER
10
76.832
20
12.991
30
0
0
VERTEX
8
RASTER
10
77
20
12.943
30
0
0
VERTEX
8
RASTER
10
76.952
20
13.23
30
0
0
VERTEX
8
RASTER
10
77.035
20
13.265
30
0
0
VERTEX
8
RASTER
10
77.191
20
12.943
30
0
0
VERTEX
8
RASTER
10
77.513
20
13.146
30
0
0
VERTEX
8
RASTER
10
77.716
20
12.824
30
0
0
VERTEX
8
RASTER
10
77.835
20
13.23
30
0
0
VERTEX
8
RASTER
10
77.668
20
13.182
30
0
0
SEQEND
8
RASTER
0
POLYLINE
8
RASTER
66
1
70
1
0
VERTEX
8
RASTER
10
71.58
20
11.439
30
0
0
VERTEX
8
RASTER
10
71.902
20
11.475
30
0
0
VERTEX
8
RASTER
10
72.774
20
11.033
30
0
0
VERTEX
8
RASTER
10
73.49
20
10.197
30
0
0
VERTEX
8
RASTER
10
73.932
20
9.087
30
0
0
VERTEX
8
RASTER
10
73.812
20
8.252
30
0
0
VERTEX
8
RASTER
10
73.49
20
7.858
30
0
0
VERTEX
8
RASTER
10
72.977
20
7.774
30
0
0
VERTEX
8
RASTER
10
72.344
20
8.096
30
0
0
VERTEX
8
RASTER
10
71.747
20
8.574
30
0
0
VERTEX
8
RASTER
10
71.508
20
8.932
30
0
0
VERTEX
8
RASTER
10
71.067
20
9.803
30
0
0
VERTEX
8
RASTER
10
70.947
20
10.52
30
0
0
VERTEX
8
RASTER
10
71.15
20
11.152
30
0
0
SEQEND
8
RASTER
0
POLYLINE
8
RASTER
66
1
70
1
0
VERTEX
8
RASTER
10
80.772
20
11.2
30
0
0
VERTEX
8
RASTER
10
81.452
20
11.236
30
0
0
VERTEX
8
RASTER
10
81.775
20
11.081
30
0
0
VERTEX
8
RASTER
10
82.049
20
10.639
30
0
0
VERTEX
8
RASTER
10
82.049
20
9.684
30
0
0
VERTEX
8
RASTER
10
81.488
20
8.455
30
0
0
VERTEX
8
RASTER
10
80.891
20
7.858
30
0
0
VERTEX
8
RASTER
10
80.259
20
7.535
30
0
0
VERTEX
8
RASTER
10
79.9
20
7.535
30
0
0
VERTEX
8
RASTER
10
79.268
20
7.977
30
0
0
VERTEX
8
RASTER
10
79.065
20
8.49
30
0
0
VERTEX
8
RASTER
10
79.065
20
9.087
30
0
0
VERTEX
8
RASTER
10
79.339
20
9.887
30
0
0
VERTEX
8
RASTER
10
79.506
20
9.839
30
0
0
VERTEX
8
RASTER
10
79.936
20
10.126
30
0
0
VERTEX
8
RASTER
10
80.103
20
9.959
30
0
0
VERTEX
8
RASTER
10
80.139
20
10.4
30
0
0
VERTEX
8
RASTER
10
80.342
20
10.556
30
0
0
VERTEX
8
RASTER
10
80.294
20
10.723
30
0
0
VERTEX
8
RASTER
10
80.461
20
10.723
30
0
0
VERTEX
8
RASTER
10
80.617
20
10.52
30
0
0
VERTEX
8
RASTER
10
80.736
20
10.639
30
0
0
VERTEX
8
RASTER
10
80.461
20
10.961
30
0
0
VERTEX
8
RASTER
10
80.342
20
10.914
30
0
0
VERTEX
8
RASTER
10
79.506
20
9.959
30
0
0
VERTEX
8
RASTER
10
79.423
20
10.042
30
0
0
VERTEX
8
RASTER
10
79.745
20
10.556
30
0
0
VERTEX
8
RASTER
10
80.414
20
11.081
30
0
0
VERTEX
8
RASTER
10
80.7
20
11.033
30
0
0
SEQEND
8
RASTER
0
POLYLINE
8
RASTER
66
1
70
1
0
VERTEX
8
RASTER
10
75.877
20
7.022
30
0
0
VERTEX
8
RASTER
10
76.594
20
6.974
30
0
0
VERTEX
8
RASTER
10
76.916
20
6.58
30
0
0
VERTEX
8
RASTER
10
76.832
20
6.306
30
0
0
VERTEX
8
RASTER
10
76.439
20
6.103
30
0
0
VERTEX
8
RASTER
10
75.806
20
6.186
30
0
0
VERTEX
8
RASTER
10
75.567
20
6.425
30
0
0
VERTEX
8
RASTER
10
75.483
20
6.7
30
0
0
VERTEX
8
RASTER
10
75.567
20
6.855
30
0
0
SEQEND
8
RASTER
0
POLYLINE
8
CUT
66
1
70
1
0
VERTEX
8
CUT
10
95.074
20
23.958
30
0
0
VERTEX
8
CUT
10
99.213
20
24.045
30
0
0
VERTEX
8
CUT
10
104.719
20
21.602
30
0
0
VERTEX
8
CUT
10
105.271
20
21.089
30
0
0
VERTEX
8
CUT
10
105.533
20
20.381
30
0
0
VERTEX
8
CUT
10
105.523
20
18.355
30
0
0
VERTEX
8
CUT
10
105.048
20
17.619
30
0
0
VERTEX
8
CUT
10
105.863
20
17.628
30
0
0
VERTEX
8
CUT
10
106.842
20
18.394
30
0
0
VERTEX
8
CUT
10
109.022
20
18.442
30
0
0
VERTEX
8
CUT
10
109.526
20
18.171
30
0
0
VERTEX
8
CUT
10
109.526
20
8.924
30
0
0
VERTEX
8
CUT
10
107.258
20
5.861
30
0
0
VERTEX
8
CUT
10
105.358
20
4.368
30
0
0
VERTEX
8
CUT
10
103.982
20
4
30
0
0
VERTEX
8
CUT
10
97.052
20
4.048
30
0
0
VERTEX
8
CUT
10
96.693
20
4.368
30
0
0
VERTEX
8
CUT
10
96.325
20
6.035
30
0
0
VERTEX
8
CUT
10
93.184
20
7.257
30
0
0
VERTEX
8
CUT
10
89.656
20
9.156
30
0
0
VERTEX
8
CUT
10
89.559
20
13.189
30
0
0
VERTEX
8
CUT
10
89.811
20
14.585
30
0
0
VERTEX
8
CUT
10
90.538
20
15.602
30
0
0
VERTEX
8
CUT
10
90.693
20
17.677
30
0
0
VERTEX
8
CUT
10
92.661
20
19.586
30
0
0
VERTEX
8
CUT
10
94.018
20
22.494
30
0
0
SEQEND
8
CUT
0
POLYLINE
8
RASTER
66
1
70
1
0
VERTEX
8
RASTER
10
96.451
20
23.551
30
0
0
VERTEX
8
RASTER
10
96.809
20
23.58
30
0
0
VERTEX
8
RASTER
10
97.779
20
23.192
30
0
0
VERTEX
8
RASTER
10
103.013
20
20.963
30
0
0
VERTEX
8
RASTER
10
104.011
20
20.41
30
0
0
VERTEX
8
RASTER
10
104.273
20
19.799
30
0
0
VERTEX
8
RASTER
10
102.46
20
15.661
30
0
0
VERTEX
8
RASTER
10
103.207
20
16.019
30
0
0
VERTEX
8
RASTER
10
104.854
20
16.504
30
0
0
VERTEX
8
RASTER
10
106.115
20
16.601
30
0
0
VERTEX
8
RASTER
10
106.89
20
16.407
30
0
0
VERTEX
8
RASTER
10
107.113
20
16.572
30
0
0
VERTEX
8
RASTER
10
107.346
20
17.114
30
0
0
VERTEX
8
RASTER
10
107.568
20
17.279
30
0
0
VERTEX
8
RASTER
10
108.15
20
17.279
30
0
0
VERTEX
8
RASTER
10
108.664
20
17.018
30
0
0
VERTEX
8
RASTER
10
108.829
20
16.698
30
0
0
VERTEX
8
RASTER
10
108.829
20
16.116
30
0
0
VERTEX
8
RASTER
10
108.732
20
15.825
30
0
0
VERTEX
8
RASTER
10
108.47
20
15.312
30
0
0
VERTEX
8
RASTER
10
108.276
20
15.118
30
0
0
VERTEX
8
RASTER
10
108.732
20
14.177
30
0
0
VERTEX
8
RASTER
10
108.829
20
13.693
30
0
0
VERTEX
8
RASTER
10
108.829
20
12.627
30
0
0
VERTEX
8
RASTER
10
108.732
20
12.433
30
0
0
VERTEX
8
RASTER
10
108.635
20
11.463
30
0
0
VERTEX
8
RASTER
10
108.053
20
9.525
30
0
0
VERTEX
8
RASTER
10
107.598
20
8.623
30
0
0
VERTEX
8
RASTER
10
106.628
20
7.266
30
0
0
VERTEX
8
RASTER
10
105.562
20
6.2
30
0
0
VERTEX
8
RASTER
10
104.69
20
5.619
30
0
0
VERTEX
8
RASTER
10
103.594
20
5.066
30
0
0
VERTEX
8
RASTER
10
102.625
20
4.775
30
0
0
VERTEX
8
RASTER
10
101.656
20
4.678
30
0
0
VERTEX
8
RASTER
10
101.462
20
4.581
30
0
0
VERTEX
8
RASTER
10
100.88
20
4.581
30
0
0
VERTEX
8
RASTER
10
99.911
20
4.387
30
0
0
VERTEX
8
RASTER
10
98.554
20
4.387
30
0
0
VERTEX
8
RASTER
10
98.04
20
4.649
30
0
0
VERTEX
8
RASTER
10
97.682
20
5.26
30
0
0
VERTEX
8
RASTER
10
97.682
20
6.811
30
0
0
VERTEX
8
RASTER
10
97.614
20
6.937
30
0
0
VERTEX
8
RASTER
10
94.871
20
8.071
30
0
0
VERTEX
8
RASTER
10
92.089
20
9.36
30
0
0
VERTEX
8
RASTER
10
92.253
20
9.428
30
0
0
VERTEX
8
RASTER
10
92.544
20
9.331
30
0
0
VERTEX
8
RASTER
10
97.294
20
7.295
30
0
0
VERTEX
8
RASTER
10
97.652
20
7.324
30
0
0
VERTEX
8
RASTER
10
97.779
20
7.586
30
0
0
VERTEX
8
RASTER
10
97.875
20
7.877
30
0
0
VERTEX
8
RASTER
10
97.779
20
8.265
30
0
0
VERTEX
8
RASTER
10
97.779
20
9.04
30
0
0
VERTEX
8
RASTER
10
97.972
20
9.719
30
0
0
VERTEX
8
RASTER
10
97.972
20
10.106
30
0
0
VERTEX
8
RASTER
10
98.36
20
11.27
30
0
0
VERTEX
8
RASTER
10
98.845
20
12.142
30
0
0
VERTEX
8
RASTER
10
98.845
20
12.336
30
0
0
VERTEX
8
RASTER
10
98.777
20
12.462
30
0
0
VERTEX
8
RASTER
10
98.36
20
12.627
30
0
0
VERTEX
8
RASTER
10
97.391
20
12.627
30
0
0
VERTEX
8
RASTER
10
97.197
20
12.53
30
0
0
VERTEX
8
RASTER
10
96.809
20
12.53
30
0
0
VERTEX
8
RASTER
10
96.131
20
12.239
30
0
0
VERTEX
8
RASTER
10
95.908
20
12.307
30
0
0
VERTEX
8
RASTER
10
95.549
20
13.014
30
0
0
VERTEX
8
RASTER
10
94.938
20
14.827
30
0
0
VERTEX
8
RASTER
10
94.483
20
15.147
30
0
0
VERTEX
8
RASTER
10
93.61
20
15.341
30
0
0
VERTEX
8
RASTER
10
93.126
20
15.341
30
0
0
VERTEX
8
RASTER
10
92.738
20
15.631
30
0
0
VERTEX
8
RASTER
10
92.321
20
15.564
30
0
0
VERTEX
8
RASTER
10
91.701
20
14.342
30
0
0
VERTEX
8
RASTER
10
91.352
20
13.819
30
0
0
VERTEX
8
RASTER
10
90.993
20
12.917
30
0
0
VERTEX
8
RASTER
10
90.606
20
12.239
30
0
0
VERTEX
8
RASTER
10
90.412
20
11.754
30
0
0
VERTEX
8
RASTER
10
90.412
20
11.463
30
0
0
VERTEX
8
RASTER
10
90.218
20
11.076
30
0
0
VERTEX
8
RASTER
10
90.218
20
10.785
30
0
0
VERTEX
8
RASTER
10
90.383
20
10.465
30
0
0
VERTEX
8
RASTER
10
90.673
20
10.174
30
0
0
VERTEX
8
RASTER
10
92.031
20
9.457
30
0
0
VERTEX
8
RASTER
10
91.672
20
9.525
30
0
0
VERTEX
8
RASTER
10
90.577
20
10.077
30
0
0
VERTEX
8
RASTER
10
90.286
20
10.368
30
0
0
VERTEX
8
RASTER
10
90.121
20
10.688
30
0
0
VERTEX
8
RASTER
10
90.121
20
11.27
30
0
0
VERTEX
8
RASTER
10
90.412
20
12.142
30
0
0
VERTEX
8
RASTER
10
92.253
20
15.825
30
0
0
VERTEX
8
RASTER
10
91.643
20
16.087
30
0
0
VERTEX
8
RASTER
10
91.575
20
16.601
30
0
0
VERTEX
8
RASTER
10
91.992
20
17.153
30
0
0
VERTEX
8
RASTER
10
92.186
20
17.25
30
0
0
VERTEX
8
RASTER
10
92.806
20
17.89
30
0
0
VERTEX
8
RASTER
10
93.349
20
18.219
30
0
0
VERTEX
8
RASTER
10
93.581
20
18.181
30
0
0
VERTEX
8
RASTER
10
96.005
20
23.124
30
0
0
VERTEX
8
RASTER
10
96.199
20
23.415
30
0
0
SEQEND
8
RASTER
0
POLYLINE
8
RASTER
66
1
70
1
0
VERTEX
8
RASTER
10
96.615
20
22.901
30
0
0
VERTEX
8
RASTER
10
96.489
20
22.833
30
0
0
VERTEX
8
RASTER
10
96.257
20
22.387
30
0
0
VERTEX
8
RASTER
10
95.355
20
20.381
30
0
0
VERTEX
8
RASTER
10
95.646
20
20.187
30
0
0
VERTEX
8
RASTER
10
96.034
20
20.187
30
0
0
VERTEX
8
RASTER
10
97.391
20
19.509
30
0
0
VERTEX
8
RASTER
10
97.875
20
19.412
30
0
0
VERTEX
8
RASTER
10
98.098
20
19.577
30
0
0
VERTEX
8
RASTER
10
99.01
20
21.476
30
0
0
VERTEX
8
RASTER
10
99.3
20
21.806
30
0
0
VERTEX
8
RASTER
10
99.136
20
22.029
30
0
0
VERTEX
8
RASTER
10
97.197
20
22.804
30
0
0
SEQEND
8
RASTER
0
POLYLINE
8
RASTER
66
1
70
1
0
VERTEX
8
RASTER
10
96.838
20
22.194
30
0
0
VERTEX
8
RASTER
10
97.323
20
22.155
30
0
0
VERTEX
8
RASTER
10
97.614
20
21.961
30
0
0
VERTEX
8
RASTER
10
97.711
20
21.67
30
0
0
VERTEX
8
RASTER
10
97.846
20
21.573
30
0
0
VERTEX
8
RASTER
10
97.517
20
21.612
30
0
0
VERTEX
8
RASTER
10
97.032
20
21.127
30
0
0
VERTEX
8
RASTER
10
96.615
20
21.06
30
0
0
VERTEX
8
RASTER
10
96.421
20
20.866
30
0
0
VERTEX
8
RASTER
10
96.325
20
20.963
30
0
0
VERTEX
8
RASTER
10
96.518
20
21.35
30
0
0
VERTEX
8
RASTER
10
96.421
20
21.544
30
0
0
SEQEND
8
RASTER
0
POLYLINE
8
RASTER
66
1
70
1
0
VERTEX
8
RASTER
10
100.299
20
21.447
30
0
0
VERTEX
8
RASTER
10
100.008
20
21.156
30
0
0
VERTEX
8
RASTER
10
100.008
20
20.963
30
0
0
VERTEX
8
RASTER
10
99.039
20
18.83
30
0
0
VERTEX
8
RASTER
10
99.136
20
18.733
30
0
0
VERTEX
8
RASTER
10
99.426
20
18.733
30
0
0
VERTEX
8
RASTER
10
100.396
20
18.442
30
0
0
VERTEX
8
RASTER
10
101.268
20
17.958
30
0
0
VERTEX
8
RASTER
10
101.656
20
17.861
30
0
0
VERTEX
8
RASTER
10
101.947
20
18.152
30
0
0
VERTEX
8
RASTER
10
102.237
20
19.024
30
0
0
VERTEX
8
RASTER
10
102.208
20
19.441
30
0
0
VERTEX
8
RASTER
10
102.402
20
19.441
30
0
0
VERTEX
8
RASTER
10
102.46
20
19.964
30
0
0
VERTEX
8
RASTER
10
102.751
20
20.061
30
0
0
VERTEX
8
RASTER
10
102.916
20
20.381
30
0
0
VERTEX
8
RASTER
10
101.559
20
21.06
30
0
0
SEQEND
8
RASTER
0
POLYLINE
8
RASTER
66
1
70
1
0
VERTEX
8
RASTER
10
94.871
20
19.315
30
0
0
VERTEX
8
RASTER
10
94.58
20
19.024
30
0
0
VERTEX
8
RASTER
10
93.998
20
17.667
30
0
0
VERTEX
8
RASTER
10
93.998
20
17.376
30
0
0
VERTEX
8
RASTER
10
94.124
20
17.211
30
0
0
VERTEX
8
RASTER
10
94.26
20
17.25
30
0
0
VERTEX
8
RASTER
10
95.064
20
16.892
30
0
0
VERTEX
8
RASTER
10
95.326
20
16.921
30
0
0
VERTEX
8
RASTER
10
95.452
20
17.182
30
0
0
VERTEX
8
RASTER
10
95.549
20
17.085
30
0
0
VERTEX
8
RASTER
10
95.617
20
16.669
30
0
0
VERTEX
8
RASTER
10
95.811
20
16.475
30
0
0
VERTEX
8
RASTER
10
96.034
20
16.407
30
0
0
VERTEX
8
RASTER
10
96.295
20
16.63
30
0
0
VERTEX
8
RASTER
10
96.354
20
17.056
30
0
0
VERTEX
8
RASTER
10
96.644
20
17.25
30
0
0
VERTEX
8
RASTER
10
96.741
20
17.541
30
0
0
VERTEX
8
RASTER
10
97.168
20
17.696
30
0
0
VERTEX
8
RASTER
10
97.556
20
18.123
30
0
0
VERTEX
8
RASTER
10
97.42
20
18.278
30
0
0
VERTEX
8
RASTER
10
96.906
20
18.539
30
0
0
SEQEND
8
RASTER
0
POLYLINE
8
RASTER
66
1
70
1
0
VERTEX
8
RASTER
10
93.388
20
17.832
30
0
0
VERTEX
8
RASTER
10
93.097
20
17.696
30
0
0
VERTEX
8
RASTER
10
92.031
20
16.63
30
0
0
VERTEX
8
RASTER
10
91.992
20
16.436
30
0
0
VERTEX
8
RASTER
10
92.903
20
16.087
30
0
0
VERTEX
8
RASTER
10
93.097
20
15.699
30
0
0
VERTEX
8
RASTER
10
93.32
20
15.534
30
0
0
VERTEX
8
RASTER
10
94.095
20
15.534
30
0
0
VERTEX
8
RASTER
10
94.58
20
15.438
30
0
0
VERTEX
8
RASTER
10
95.094
20
15.176
30
0
0
VERTEX
8
RASTER
10
95.355
20
14.662
30
0
0
VERTEX
8
RASTER
10
95.646
20
13.402
30
0
0
VERTEX
8
RASTER
10
96.005
20
12.694
30
0
0
VERTEX
8
RASTER
10
96.421
20
12.627
30
0
0
VERTEX
8
RASTER
10
97.197
20
12.82
30
0
0
VERTEX
8
RASTER
10
98.457
20
12.82
30
0
0
VERTEX
8
RASTER
10
98.942
20
12.627
30
0
0
VERTEX
8
RASTER
10
99.165
20
12.791
30
0
0
VERTEX
8
RASTER
10
99.591
20
13.431
30
0
0
VERTEX
8
RASTER
10
99.329
20
13.596
30
0
0
VERTEX
8
RASTER
10
97.1
20
13.499
30
0
0
VERTEX
8
RASTER
10
96.78
20
13.664
30
0
0
VERTEX
8
RASTER
10
95.578
20
15.951
30
0
0
VERTEX
8
RASTER
10
93.969
20
16.862
30
0
0
VERTEX
8
RASTER
10
93.678
20
17.153
30
0
0
SEQEND
8
RASTER
0
POLYLINE
8
RASTER
66
1
70
1
0
VERTEX
8
RASTER
10
98.651
20
17.57
30
0
0
VERTEX
8
RASTER
10
98.428
20
17.405
30
0
0
VERTEX
8
RASTER
10
98.263
20
17.085
30
0
0
VERTEX
8
RASTER
10
97.42
20
15.079
30
0
0
VERTEX
8
RASTER
10
97.972
20
14.759
30
0
0
VERTEX
8
RASTER
10
99.911
20
13.984
30
0
0
VERTEX
8
RASTER
10
100.105
20
14.274
30
0
0
VERTEX
8
RASTER
10
100.105
20
14.565
30
0
0
VERTEX
8
RASTER
10
100.299
20
15.05
30
0
0
VERTEX
8
RASTER
10
100.231
20
15.467
30
0
0
VERTEX
8
RASTER
10
99.911
20
15.728
30
0
0
VERTEX
8
RASTER
10
99.979
20
15.99
30
0
0
VERTEX
8
RASTER
10
99.649
20
15.99
30
0
0
VERTEX
8
RASTER
10
99.523
20
15.728
30
0
0
VERTEX
8
RASTER
10
99.329
20
16.019
30
0
0
VERTEX
8
RASTER
10
99.203
20
15.661
30
0
0
VERTEX
8
RASTER
10
98.748
20
15.631
30
0
0
VERTEX
8
RASTER
10
98.554
20
15.728
30
0
0
VERTEX
8
RASTER
10
98.428
20
15.467
30
0
0
VERTEX
8
RASTER
10
98.263
20
15.438
30
0
0
VERTEX
8
RASTER
10
98.069
20
15.631
30
0
0
VERTEX
8
RASTER
10
98.292
20
16.378
30
0
0
VERTEX
8
RASTER
10
98.845
20
16.988
30
0
0
VERTEX
8
RASTER
10
99.426
20
16.795
30
0
0
VERTEX
8
RASTER
10
99.717
20
16.601
30
0
0
VERTEX
8
RASTER
10
99.979
20
16.572
30
0
0
VERTEX
8
RASTER
10
100.037
20
16.242
30
0
0
VERTEX
8
RASTER
10
100.299
20
16.31
30
0
0
VERTEX
8
RASTER
10
100.493
20
16.116
30
0
0
VERTEX
8
RASTER
10
101.006
20
16.184
30
0
0
VERTEX
8
RASTER
10
101.171
20
16.504
30
0
0
VERTEX
8
RASTER
10
100.686
20
16.795
30
0
0
VERTEX
8
RASTER
10
100.396
20
16.795
30
0
0
VERTEX
8
RASTER
10
100.105
20
16.988
30
0
0
SEQEND
8
RASTER
0
POLYLINE
8
RASTER
66
1
70
1
0
VERTEX
8
RASTER
10
107.859
20
16.795
30
0
0
VERTEX
8
RASTER
10
107.733
20
16.727
30
0
0
VERTEX
8
RASTER
10
107.472
20
16.116
30
0
0
VERTEX
8
RASTER
10
107.83
20
15.796
30
0
0
VERTEX
8
RASTER
10
108.053
20
15.728
30
0
0
VERTEX
8
RASTER
10
108.247
20
16.019
30
0
0
VERTEX
8
RASTER
10
108.344
20
16.407
30
0
0
VERTEX
8
RASTER
10
108.179
20
16.63
30
0
0
SEQEND
8
RASTER
0
POLYLINE
8
RASTER
66
1
70
1
0
VERTEX
8
RASTER
10
105.242
20
16.116
30
0
0
VERTEX
8
RASTER
10
105.048
20
16.019
30
0
0
VERTEX
8
RASTER
10
104.564
20
16.019
30
0
0
VERTEX
8
RASTER
10
103.594
20
15.728
30
0
0
VERTEX
8
RASTER
10
101.336
20
14.4
30
0
0
VERTEX
8
RASTER
10
100.27
20
13.431
30
0
0
VERTEX
8
RASTER
10
99.3
20
12.074
30
0
0
VERTEX
8
RASTER
10
98.457
20
10.3
30
0
0
VERTEX
8
RASTER
10
98.457
20
10.009
30
0
0
VERTEX
8
RASTER
10
98.263
20
9.525
30
0
0
VERTEX
8
RASTER
10
98.263
20
9.137
30
0
0
VERTEX
8
RASTER
10
98.069
20
8.459
30
0
0
VERTEX
8
RASTER
10
98.166
20
5.648
30
0
0
VERTEX
8
RASTER
10
98.428
20
5.037
30
0
0
VERTEX
8
RASTER
10
98.971
20
4.901
30
0
0
VERTEX
8
RASTER
10
100.202
20
4.969
30
0
0
VERTEX
8
RASTER
10
100.977
20
5.163
30
0
0
VERTEX
8
RASTER
10
101.947
20
5.163
30
0
0
VERTEX
8
RASTER
10
102.334
20
5.357
30
0
0
VERTEX
8
RASTER
10
102.625
20
5.357
30
0
0
VERTEX
8
RASTER
10
102.916
20
5.551
30
0
0
VERTEX
8
RASTER
10
103.11
20
5.551
30
0
0
VERTEX
8
RASTER
10
103.623
20
5.909
30
0
0
VERTEX
8
RASTER
10
103.72
20
6.103
30
0
0
VERTEX
8
RASTER
10
104.011
20
6.2
30
0
0
VERTEX
8
RASTER
10
104.147
20
6.452
30
0
0
VERTEX
8
RASTER
10
104.787
20
6.782
30
0
0
VERTEX
8
RASTER
10
105.31
20
7.228
30
0
0
VERTEX
8
RASTER
10
105.504
20
7.266
30
0
0
VERTEX
8
RASTER
10
105.339
20
7.005
30
0
0
VERTEX
8
RASTER
10
105.465
20
6.976
30
0
0
VERTEX
8
RASTER
10
106.337
20
7.848
30
0
0
VERTEX
8
RASTER
10
106.822
20
8.526
30
0
0
VERTEX
8
RASTER
10
107.084
20
9.428
30
0
0
VERTEX
8
RASTER
10
107.694
20
10.271
30
0
0
VERTEX
8
RASTER
10
107.859
20
10.688
30
0
0
VERTEX
8
RASTER
10
107.956
20
11.366
30
0
0
VERTEX
8
RASTER
10
108.344
20
12.627
30
0
0
VERTEX
8
RASTER
10
108.344
20
13.79
30
0
0
VERTEX
8
RASTER
10
108.082
20
14.594
30
0
0
VERTEX
8
RASTER
10
107.791
20
15.176
30
0
0
VERTEX
8
RASTER
10
107.501
20
15.467
30
0
0
VERTEX
8
RASTER
10
107.113
20
15.757
30
0
0
VERTEX
8
RASTER
10
106.211
20
16.116
30
0
0
VERTEX
8
RASTER
10
105.407
20
16.048
30
0
0
SEQEND
8
RASTER
0
POLYLINE
8
RASTER
66
1
70
1
0
VERTEX
8
RASTER
10
104.011
20
14.827
30
0
0
VERTEX
8
RASTER
10
104.244
20
14.788
30
0
0
VERTEX
8
RASTER
10
102.557
20
13.664
30
0
0
VERTEX
8
RASTER
10
102.46
20
13.47
30
0
0
VERTEX
8
RASTER
10
101.394
20
12.462
30
0
0
VERTEX
8
RASTER
10
101.365
20
12.627
30
0
0
VERTEX
8
RASTER
10
101.724
20
13.14
30
0
0
VERTEX
8
RASTER
10
102.305
20
13.528
30
0
0
VERTEX
8
RASTER
10
102.984
20
14.207
30
0
0
VERTEX
8
RASTER
10
103.953
20
14.691
30
0
0
SEQEND
8
RASTER
0
POLYLINE
8
RASTER
66
1
70
1
0
VERTEX
8
RASTER
10
105.756
20
12.694
30
0
0
VERTEX
8
RASTER
10
105.824
20
12.627
30
0
0
VERTEX
8
RASTER
10
105.562
20
12.21
30
0
0
VERTEX
8
RASTER
10
105.271
20
11.977
30
0
0
VERTEX
8
RASTER
10
105.31
20
12.171
30
0
0
SEQEND
8
RASTER
0
POLYLINE
8
RASTER
66
1
70
1
0
VERTEX
8
RASTER
10
107.598
20
12.694
30
0
0
VERTEX
8
RASTER
10
107.762
20
12.627
30
0
0
VERTEX
8
RASTER
10
107.568
20
12.142
30
0
0
VERTEX
8
RASTER
10
107.568
20
11.754
30
0
0
VERTEX
8
RASTER
10
107.113
20
10.659
30
0
0
VERTEX
8
RASTER
10
106.182
20
9.36
30
0
0
VERTEX
8
RASTER
10
105.659
20
8.875
30
0
0
VERTEX
8
RASTER
10
105.698
20
9.166
30
0
0
VERTEX
8
RASTER
10
106.241
20
9.883
30
0
0
VERTEX
8
RASTER
10
106.725
20
10.756
30
0
0
SEQEND
8
RASTER
0
POLYLINE
8
RASTER
66
1
70
1
0
VERTEX
8
RASTER
10
100.037
20
10.659
30
0
0
VERTEX
8
RASTER
10
99.165
20
8.778
30
0
0
VERTEX
8
RASTER
10
99.136
20
8.943
30
0
0
VERTEX
8
RASTER
10
99.329
20
9.525
30
0
0
VERTEX
8
RASTER
10
99.688
20
10.232
30
0
0
SEQEND
8
RASTER
0
POLYLINE
8
RASTER
66
1
70
1
0
VERTEX
8
RASTER
10
102.654
20
9.011
30
0
0
VERTEX
8
RASTER
10
102.722
20
8.943
30
0
0
VERTEX
8
RASTER
10
102.654
20
8.817
30
0
0
VERTEX
8
RASTER
10
102.363
20
8.429
30
0
0
VERTEX
8
RASTER
10
101.821
20
8.003
30
0
0
VERTEX
8
RASTER
10
101.685
20
7.751
30
0
0
VERTEX
8
RASTER
10
101.433
20
7.615
30
0
0
VERTEX
8
RASTER
10
100.812
20
6.976
30
0
0
VERTEX
8
RASTER
10
100.134
20
6.646
30
0
0
VERTEX
8
RASTER
10
100.27
20
6.937
30
0
0
VERTEX
8
RASTER
10
100.56
20
7.228
30
0
0
VERTEX
8
RASTER
10
100.812
20
7.363
30
0
0
VERTEX
8
RASTER
10
101.433
20
8.003
30
0
0
VERTEX
8
RASTER
10
101.685
20
8.139
30
0
0
VERTEX
8
RASTER
10
102.305
20
8.778
30
0
0
SEQEND
8
RASTER
0
POLYLINE
8
RASTER
66
1
70
1
0
VERTEX
8
RASTER
10
104.884
20
8.139
30
0
0
VERTEX
8
RASTER
10
104.951
20
8.071
30
0
0
VERTEX
8
RASTER
10
104.884
20
7.945
30
0
0
VERTEX
8
RASTER
10
104.593
20
7.557
30
0
0
VERTEX
8
RASTER
10
103.526
20
6.588
30
0
0
VERTEX
8
RASTER
10
101.85
20
5.745
30
0
0
VERTEX
8
RASTER
10
100.88
20
5.454
30
0
0
VERTEX
8
RASTER
10
100.716
20
5.483
30
0
0
VERTEX
8
RASTER
10
100.716
20
5.619
30
0
0
VERTEX
8
RASTER
10
101.142
20
5.871
30
0
0
VERTEX
8
RASTER
10
102.848
20
6.685
30
0
0
SEQEND
8
RASTER
0
POLYLINE
8
CUT
66
1
70
1
0
VERTEX
8
CUT
10
120.101
20
23.985
30
0
0
VERTEX
8
CUT
10
121.934
20
24.045
30
0
0
VERTEX
8
CUT
10
123.149
20
23.766
30
0
0
VERTEX
8
CUT
10
125.201
20
21.306
30
0
0
VERTEX
8
CUT
10
127.791
20
22.77
30
0
0
VERTEX
8
CUT
10
130.55
20
22.8
30
0
0
VERTEX
8
CUT
10
132.692
20
21.355
30
0
0
VERTEX
8
CUT
10
133.11
20
20.578
30
0
0
VERTEX
8
CUT
10
133.489
20
18.168
30
0
0
VERTEX
8
CUT
10
133.31
20
13.665
30
0
0
VERTEX
8
CUT
10
131.138
20
11.056
30
0
0
VERTEX
8
CUT
10
130.222
20
8.884
30
0
0
VERTEX
8
CUT
10
129.365
20
8.147
30
0
0
VERTEX
8
CUT
10
128.239
20
7.778
30
0
0
VERTEX
8
CUT
10
125.4
20
4.64
30
0
0
VERTEX
8
CUT
10
124.444
20
4.103
30
0
0
VERTEX
8
CUT
10
121.735
20
4.023
30
0
0
VERTEX
8
CUT
10
119.991
20
4.372
30
0
0
VERTEX
8
CUT
10
118.925
20
5.099
30
0
0
VERTEX
8
CUT
10
118.049
20
6.414
30
0
0
VERTEX
8
CUT
10
115.21
20
6.762
30
0
0
VERTEX
8
CUT
10
113.985
20
7.529
30
0
0
VERTEX
8
CUT
10
113.526
20
8.266
30
0
0
VERTEX
8
CUT
10
113.546
20
13.606
30
0
0
VERTEX
8
CUT
10
118.119
20
16.893
30
0
0
VERTEX
8
CUT
10
118.168
20
17.301
30
0
0
VERTEX
8
CUT
10
117.282
20
18.995
30
0
0
VERTEX
8
CUT
10
117.312
20
21.794
30
0
0
VERTEX
8
CUT
10
118.248
20
23.049
30
0
0
SEQEND
8
CUT
0
POLYLINE
8
RASTER
66
1
70
1
0
VERTEX
8
RASTER
10
120.968
20
22.919
30
0
0
VERTEX
8
RASTER
10
121.635
20
22.949
30
0
0
VERTEX
8
RASTER
10
122.362
20
22.581
30
0
0
VERTEX
8
RASTER
10
124.753
20
19.194
30
0
0
VERTEX
8
RASTER
10
127.881
20
21.286
30
0
0
VERTEX
8
RASTER
10
128.807
20
21.754
30
0
0
VERTEX
8
RASTER
10
129.604
20
21.754
30
0
0
VERTEX
8
RASTER
10
130.132
20
21.485
30
0
0
VERTEX
8
RASTER
10
130.331
20
21.286
30
0
0
VERTEX
8
RASTER
10
130.67
20
20.628
30
0
0
VERTEX
8
RASTER
10
131.297
20
20.559
30
0
0
VERTEX
8
RASTER
10
131.726
20
20.29
30
0
0
VERTEX
8
RASTER
10
132.094
20
19.562
30
0
0
VERTEX
8
RASTER
10
132.094
20
18.666
30
0
0
VERTEX
8
RASTER
10
131.925
20
18.238
30
0
0
VERTEX
8
RASTER
10
131.726
20
17.999
30
0
0
VERTEX
8
RASTER
10
132.423
20
17.7
30
0
0
VERTEX
8
RASTER
10
132.722
20
17.401
30
0
0
VERTEX
8
RASTER
10
133.09
20
16.474
30
0
0
VERTEX
8
RASTER
10
132.991
20
15.777
30
0
0
VERTEX
8
RASTER
10
132.523
20
14.95
30
0
0
VERTEX
8
RASTER
10
129.873
20
11.823
30
0
0
VERTEX
8
RASTER
10
129.803
20
11.095
30
0
0
VERTEX
8
RASTER
10
129.604
20
10.498
30
0
0
VERTEX
8
RASTER
10
129.335
20
10.069
30
0
0
VERTEX
8
RASTER
10
128.638
20
9.472
30
0
0
VERTEX
8
RASTER
10
127.283
20
8.934
30
0
0
VERTEX
8
RASTER
10
126.845
20
8.376
30
0
0
VERTEX
8
RASTER
10
126.287
20
7.838
30
0
0
VERTEX
8
RASTER
10
126.147
20
7.579
30
0
0
VERTEX
8
RASTER
10
125.39
20
6.842
30
0
0
VERTEX
8
RASTER
10
125.251
20
6.583
30
0
0
VERTEX
8
RASTER
10
124.155
20
5.487
30
0
0
VERTEX
8
RASTER
10
123.428
20
5.119
30
0
0
VERTEX
8
RASTER
10
122.033
20
5.119
30
0
0
VERTEX
8
RASTER
10
121.037
20
5.417
30
0
0
VERTEX
8
RASTER
10
120.21
20
5.886
30
0
0
VERTEX
8
RASTER
10
119.812
20
6.284
30
0
0
VERTEX
8
RASTER
10
119.443
20
6.912
30
0
0
VERTEX
8
RASTER
10
119.344
20
7.21
30
0
0
VERTEX
8
RASTER
10
119.314
20
8.376
30
0
0
VERTEX
8
RASTER
10
118.248
20
7.709
30
0
0
VERTEX
8
RASTER
10
117.551
20
7.509
30
0
0
VERTEX
8
RASTER
10
116.754
20
7.609
30
0
0
VERTEX
8
RASTER
10
115.628
20
8.077
30
0
0
VERTEX
8
RASTER
10
115.031
20
8.575
30
0
0
VERTEX
8
RASTER
10
114.533
20
9.173
30
0
0
VERTEX
8
RASTER
10
114.064
20
10.199
30
0
0
VERTEX
8
RASTER
10
114.064
20
10.697
30
0
0
VERTEX
8
RASTER
10
113.965
20
10.896
30
0
0
VERTEX
8
RASTER
10
114.164
20
11.992
30
0
0
VERTEX
8
RASTER
10
114.632
20
12.819
30
0
0
VERTEX
8
RASTER
10
120.41
20
16.504
30
0
0
VERTEX
8
RASTER
10
119.274
20
18.297
30
0
0
VERTEX
8
RASTER
10
118.716
20
19.034
30
0
0
VERTEX
8
RASTER
10
118.348
20
19.762
30
0
0
VERTEX
8
RASTER
10
118.248
20
20.459
30
0
0
VERTEX
8
RASTER
10
118.417
20
20.987
30
0
0
VERTEX
8
RASTER
10
118.816
20
21.585
30
0
0
VERTEX
8
RASTER
10
119.344
20
21.854
30
0
0
VERTEX
8
RASTER
10
119.912
20
21.883
30
0
0
VERTEX
8
RASTER
10
120.31
20
22.581
30
0
0
SEQEND
8
RASTER
0
POLYLINE
8
RASTER
66
1
70
1
0
VERTEX
8
RASTER
10
121.137
20
22.451
30
0
0
VERTEX
8
RASTER
10
120.609
20
22.182
30
0
0
VERTEX
8
RASTER
10
120.44
20
21.854
30
0
0
VERTEX
8
RASTER
10
120.509
20
21.425
30
0
0
VERTEX
8
RASTER
10
121.366
20
20.29
30
0
0
VERTEX
8
RASTER
10
122.8
20
18.138
30
0
0
VERTEX
8
RASTER
10
124.255
20
16.205
30
0
0
VERTEX
8
RASTER
10
125.092
20
14.851
30
0
0
VERTEX
8
RASTER
10
125.948
20
13.715
30
0
0
VERTEX
8
RASTER
10
126.685
20
12.56
30
0
0
VERTEX
8
RASTER
10
126.785
20
12.52
30
0
0
VERTEX
8
RASTER
10
127.183
20
13.117
30
0
0
VERTEX
8
RASTER
10
127.811
20
13.386
30
0
0
VERTEX
8
RASTER
10
128.379
20
13.416
30
0
0
VERTEX
8
RASTER
10
125.789
20
16.843
30
0
0
VERTEX
8
RASTER
10
122.163
20
22.083
30
0
0
VERTEX
8
RASTER
10
121.635
20
22.451
30
0
0
SEQEND
8
RASTER
0
POLYLINE
8
RASTER
66
1
70
1
0
VERTEX
8
RASTER
10
119.344
20
21.355
30
0
0
VERTEX
8
RASTER
10
119.015
20
21.186
30
0
0
VERTEX
8
RASTER
10
118.746
20
20.658
30
0
0
VERTEX
8
RASTER
10
118.746
20
20.06
30
0
0
VERTEX
8
RASTER
10
118.916
20
19.732
30
0
0
VERTEX
8
RASTER
10
122.462
20
14.512
30
0
0
VERTEX
8
RASTER
10
124.295
20
11.524
30
0
0
VERTEX
8
RASTER
10
124.693
20
12.221
30
0
0
VERTEX
8
RASTER
10
124.992
20
12.52
30
0
0
VERTEX
8
RASTER
10
125.988
20
12.918
30
0
0
VERTEX
8
RASTER
10
125.948
20
13.018
30
0
0
VERTEX
8
RASTER
10
123.797
20
15.847
30
0
0
VERTEX
8
RASTER
10
120.808
20
20.13
30
0
0
VERTEX
8
RASTER
10
120.669
20
20.09
30
0
0
VERTEX
8
RASTER
10
120.669
20
20.23
30
0
0
VERTEX
8
RASTER
10
120.469
20
19.991
30
0
0
VERTEX
8
RASTER
10
120.609
20
20.329
30
0
0
VERTEX
8
RASTER
10
120.41
20
20.19
30
0
0
VERTEX
8
RASTER
10
120.31
20
20.23
30
0
0
VERTEX
8
RASTER
10
119.712
20
20.927
30
0
0
VERTEX
8
RASTER
10
119.643
20
21.057
30
0
0
VERTEX
8
RASTER
10
119.742
20
21.156
30
0
0
VERTEX
8
RASTER
10
120.171
20
20.887
30
0
0
VERTEX
8
RASTER
10
120.171
20
20.987
30
0
0
VERTEX
8
RASTER
10
119.543
20
21.355
30
0
0
SEQEND
8
RASTER
0
POLYLINE
8
RASTER
66
1
70
1
0
VERTEX
8
RASTER
10
129.206
20
21.355
30
0
0
VERTEX
8
RASTER
10
128.807
20
21.256
30
0
0
VERTEX
8
RASTER
10
127.98
20
20.788
30
0
0
VERTEX
8
RASTER
10
125.191
20
18.895
30
0
0
VERTEX
8
RASTER
10
125.121
20
18.666
30
0
0
VERTEX
8
RASTER
10
125.39
20
18.238
30
0
0
VERTEX
8
RASTER
10
125.689
20
17.999
30
0
0
VERTEX
8
RASTER
10
126.486
20
18.596
30
0
0
VERTEX
8
RASTER
10
128.18
20
19.592
30
0
0
VERTEX
8
RASTER
10
128.309
20
19.662
30
0
0
VERTEX
8
RASTER
10
128.478
20
19.592
30
0
0
VERTEX
8
RASTER
10
128.578
20
19.732
30
0
0
VERTEX
8
RASTER
10
128.707
20
19.363
30
0
0
VERTEX
8
RASTER
10
129.933
20
20.13
30
0
0
VERTEX
8
RASTER
10
130.172
20
20.389
30
0
0
VERTEX
8
RASTER
10
130.032
20
20.788
30
0
0
VERTEX
8
RASTER
10
129.833
20
21.087
30
0
0
SEQEND
8
RASTER
0
POLYLINE
8
RASTER
66
1
70
1
0
VERTEX
8
RASTER
10
130.899
20
20.06
30
0
0
VERTEX
8
RASTER
10
129.973
20
19.592
30
0
0
VERTEX
8
RASTER
10
126.347
20
17.142
30
0
0
VERTEX
8
RASTER
10
126.386
20
16.843
30
0
0
VERTEX
8
RASTER
10
127.383
20
15.548
30
0
0
VERTEX
8
RASTER
10
127.542
20
15.548
30
0
0
VERTEX
8
RASTER
10
128.737
20
16.445
30
0
0
VERTEX
8
RASTER
10
128.807
20
16.574
30
0
0
VERTEX
8
RASTER
10
128.737
20
16.644
30
0
0
VERTEX
8
RASTER
10
128.339
20
16.305
30
0
0
VERTEX
8
RASTER
10
128.478
20
16.644
30
0
0
VERTEX
8
RASTER
10
128.239
20
16.504
30
0
0
VERTEX
8
RASTER
10
128.279
20
16.743
30
0
0
VERTEX
8
RASTER
10
127.841
20
16.704
30
0
0
VERTEX
8
RASTER
10
127.98
20
17.002
30
0
0
VERTEX
8
RASTER
10
128.379
20
17.301
30
0
0
VERTEX
8
RASTER
10
129.733
20
18.138
30
0
0
VERTEX
8
RASTER
10
129.833
20
18.098
30
0
0
VERTEX
8
RASTER
10
129.903
20
17.869
30
0
0
VERTEX
8
RASTER
10
130.271
20
17.939
30
0
0
VERTEX
8
RASTER
10
130.202
20
17.67
30
0
0
VERTEX
8
RASTER
10
130.271
20
17.6
30
0
0
VERTEX
8
RASTER
10
131.467
20
18.397
30
0
0
VERTEX
8
RASTER
10
131.596
20
18.666
30
0
0
VERTEX
8
RASTER
10
131.596
20
19.463
30
0
0
VERTEX
8
RASTER
10
131.327
20
19.991
30
0
0
SEQEND
8
RASTER
0
POLYLINE
8
RASTER
66
1
70
1
0
VERTEX
8
RASTER
10
131.497
20
17.471
30
0
0
VERTEX
8
RASTER
10
128.409
20
14.283
30
0
0
VERTEX
8
RASTER
10
128.777
20
13.655
30
0
0
VERTEX
8
RASTER
10
129.704
20
12.49
30
0
0
VERTEX
8
RASTER
10
130.032
20
12.759
30
0
0
VERTEX
8
RASTER
10
130.172
20
13.018
30
0
0
VERTEX
8
RASTER
10
130.63
20
13.456
30
0
0
VERTEX
8
RASTER
10
130.769
20
13.715
30
0
0
VERTEX
8
RASTER
10
131.795
20
14.881
30
0
0
VERTEX
8
RASTER
10
131.726
20
14.95
30
0
0
VERTEX
8
RASTER
10
131.626
20
14.751
30
0
0
VERTEX
8
RASTER
10
130.969
20
14.114
30
0
0
VERTEX
8
RASTER
10
130.73
20
14.114
30
0
0
VERTEX
8
RASTER
10
130.969
20
14.452
30
0
0
VERTEX
8
RASTER
10
130.63
20
14.313
30
0
0
VERTEX
8
RASTER
10
130.67
20
14.552
30
0
0
VERTEX
8
RASTER
10
130.431
20
14.512
30
0
0
VERTEX
8
RASTER
10
130.63
20
14.851
30
0
0
VERTEX
8
RASTER
10
131.427
20
15.648
30
0
0
VERTEX
8
RASTER
10
131.526
20
15.409
30
0
0
VERTEX
8
RASTER
10
131.626
20
15.548
30
0
0
VERTEX
8
RASTER
10
131.726
20
15.409
30
0
0
VERTEX
8
RASTER
10
132.064
20
15.448
30
0
0
VERTEX
8
RASTER
10
131.895
20
15.179
30
0
0
VERTEX
8
RASTER
10
132.025
20
15.15
30
0
0
VERTEX
8
RASTER
10
132.493
20
15.877
30
0
0
VERTEX
8
RASTER
10
132.592
20
16.375
30
0
0
VERTEX
8
RASTER
10
132.323
20
17.102
30
0
0
VERTEX
8
RASTER
10
131.895
20
17.471
30
0
0
SEQEND
8
RASTER
0
POLYLINE
8
RASTER
66
1
70
1
0
VERTEX
8
RASTER
10
120.041
20
15.678
30
0
0
VERTEX
8
RASTER
10
117.521
20
14.114
30
0
0
VERTEX
8
RASTER
10
116.326
20
13.317
30
0
0
VERTEX
8
RASTER
10
116.286
20
13.217
30
0
0
VERTEX
8
RASTER
10
116.983
20
12.918
30
0
0
VERTEX
8
RASTER
10
117.521
20
12.36
30
0
0
VERTEX
8
RASTER
10
117.68
20
12.36
30
0
0
VERTEX
8
RASTER
10
120.669
20
14.552
30
0
0
VERTEX
8
RASTER
10
120.738
20
14.781
30
0
0
VERTEX
8
RASTER
10
120.469
20
15.309
30
0
0
VERTEX
8
RASTER
10
120.27
20
15.608
30
0
0
SEQEND
8
RASTER
0
POLYLINE
8
RASTER
66
1
70
1
0
VERTEX
8
RASTER
10
127.911
20
15.08
30
0
0
VERTEX
8
RASTER
10
127.811
20
14.98
30
0
0
VERTEX
8
RASTER
10
127.881
20
14.851
30
0
0
VERTEX
8
RASTER
10
128.11
20
14.681
30
0
0
VERTEX
8
RASTER
10
128.478
20
15.01
30
0
0
VERTEX
8
RASTER
10
128.14
20
14.811
30
0
0
VERTEX
8
RASTER
10
127.94
20
14.911
30
0
0
SEQEND
8
RASTER
0
POLYLINE
8
RASTER
66
1
70
1
0
VERTEX
8
RASTER
10
121.505
20
13.655
30
0
0
VERTEX
8
RASTER
10
121.207
20
13.516
30
0
0
VERTEX
8
RASTER
10
118.248
20
11.394
30
0
0
VERTEX
8
RASTER
10
118.876
20
11.026
30
0
0
VERTEX
8
RASTER
10
119.274
20
10.528
30
0
0
VERTEX
8
RASTER
10
119.443
20
10.099
30
0
0
VERTEX
8
RASTER
10
119.473
20
9.332
30
0
0
VERTEX
8
RASTER
10
121.067
20
10.567
30
0
0
VERTEX
8
RASTER
10
122.103
20
11.524
30
0
0
VERTEX
8
RASTER
10
122.133
20
12.291
30
0
0
VERTEX
8
RASTER
10
122.033
20
12.789
30
0
0
VERTEX
8
RASTER
10
121.764
20
13.416
30
0
0
SEQEND
8
RASTER
0
POLYLINE
8
RASTER
66
1
70
1
0
VERTEX
8
RASTER
10
127.811
20
12.988
30
0
0
VERTEX
8
RASTER
10
127.482
20
12.819
30
0
0
VERTEX
8
RASTER
10
127.183
20
12.52
30
0
0
VERTEX
8
RASTER
10
127.114
20
11.892
30
0
0
VERTEX
8
RASTER
10
127.383
20
11.564
30
0
0
VERTEX
8
RASTER
10
127.811
20
11.494
30
0
0
VERTEX
8
RASTER
10
127.841
20
11.623
30
0
0
VERTEX
8
RASTER
10
127.512
20
11.992
30
0
0
VERTEX
8
RASTER
10
127.512
20
12.191
30
0
0
VERTEX
8
RASTER
10
127.681
20
12.42
30
0
0
VERTEX
8
RASTER
10
128.11
20
12.59
30
0
0
VERTEX
8
RASTER
10
128.638
20
12.321
30
0
0
VERTEX
8
RASTER
10
128.907
20
11.793
30
0
0
VERTEX
8
RASTER
10
128.907
20
11.295
30
0
0
VERTEX
8
RASTER
10
128.737
20
10.866
30
0
0
VERTEX
8
RASTER
10
128.438
20
10.468
30
0
0
VERTEX
8
RASTER
10
127.711
20
10
30
0
0
VERTEX
8
RASTER
10
127.014
20
9.8
30
0
0
VERTEX
8
RASTER
10
126.317
20
9.9
30
0
0
VERTEX
8
RASTER
10
125.689
20
10.169
30
0
0
VERTEX
8
RASTER
10
125.39
20
10.468
30
0
0
VERTEX
8
RASTER
10
125.121
20
11.095
30
0
0
VERTEX
8
RASTER
10
125.291
20
11.623
30
0
0
VERTEX
8
RASTER
10
125.619
20
11.892
30
0
0
VERTEX
8
RASTER
10
126.147
20
11.823
30
0
0
VERTEX
8
RASTER
10
126.217
20
11.394
30
0
0
VERTEX
8
RASTER
10
126.018
20
11.095
30
0
0
VERTEX
8
RASTER
10
126.118
20
10.996
30
0
0
VERTEX
8
RASTER
10
126.347
20
11.065
30
0
0
VERTEX
8
RASTER
10
126.616
20
11.394
30
0
0
VERTEX
8
RASTER
10
126.546
20
12.121
30
0
0
VERTEX
8
RASTER
10
126.187
20
12.46
30
0
0
VERTEX
8
RASTER
10
125.819
20
12.49
30
0
0
VERTEX
8
RASTER
10
125.092
20
12.121
30
0
0
VERTEX
8
RASTER
10
124.723
20
11.494
30
0
0
VERTEX
8
RASTER
10
124.723
20
10.797
30
0
0
VERTEX
8
RASTER
10
124.992
20
10.269
30
0
0
VERTEX
8
RASTER
10
125.291
20
9.97
30
0
0
VERTEX
8
RASTER
10
126.317
20
9.502
30
0
0
VERTEX
8
RASTER
10
127.313
20
9.502
30
0
0
VERTEX
8
RASTER
10
127.711
20
9.601
30
0
0
VERTEX
8
RASTER
10
128.638
20
10.069
30
0
0
VERTEX
8
RASTER
10
128.937
20
10.368
30
0
0
VERTEX
8
RASTER
10
129.305
20
11.095
30
0
0
VERTEX
8
RASTER
10
129.305
20
11.892
30
0
0
VERTEX
8
RASTER
10
129.036
20
12.42
30
0
0
VERTEX
8
RASTER
10
128.638
20
12.819
30
0
0
VERTEX
8
RASTER
10
128.309
20
12.988
30
0
0
SEQEND
8
RASTER
0
POLYLINE
8
RASTER
66
1
70
1
0
VERTEX
8
RASTER
10
115.957
20
12.888
30
0
0
VERTEX
8
RASTER
10
115.09
20
12.56
30
0
0
VERTEX
8
RASTER
10
114.831
20
12.321
30
0
0
VERTEX
8
RASTER
10
114.463
20
11.394
30
0
0
VERTEX
8
RASTER
10
114.463
20
10.597
30
0
0
VERTEX
8
RASTER
10
114.562
20
10.199
30
0
0
VERTEX
8
RASTER
10
115.031
20
9.272
30
0
0
VERTEX
8
RASTER
10
115.728
20
8.575
30
0
0
VERTEX
8
RASTER
10
116.455
20
8.207
30
0
0
VERTEX
8
RASTER
10
117.152
20
8.007
30
0
0
VERTEX
8
RASTER
10
118.049
20
8.107
30
0
0
VERTEX
8
RASTER
10
118.676
20
8.476
30
0
0
VERTEX
8
RASTER
10
119.045
20
9.203
30
0
0
VERTEX
8
RASTER
10
119.045
20
10.099
30
0
0
VERTEX
8
RASTER
10
118.876
20
10.528
30
0
0
VERTEX
8
RASTER
10
118.477
20
10.926
30
0
0
VERTEX
8
RASTER
10
117.65
20
10.996
30
0
0
VERTEX
8
RASTER
10
117.322
20
10.727
30
0
0
VERTEX
8
RASTER
10
117.152
20
10.398
30
0
0
VERTEX
8
RASTER
10
117.152
20
9.9
30
0
0
VERTEX
8
RASTER
10
117.282
20
9.631
30
0
0
VERTEX
8
RASTER
10
117.421
20
9.631
30
0
0
VERTEX
8
RASTER
10
117.621
20
10.229
30
0
0
VERTEX
8
RASTER
10
117.949
20
10.398
30
0
0
VERTEX
8
RASTER
10
118.378
20
10.129
30
0
0
VERTEX
8
RASTER
10
118.517
20
9.671
30
0
0
VERTEX
8
RASTER
10
118.278
20
8.974
30
0
0
VERTEX
8
RASTER
10
118.079
20
8.774
30
0
0
VERTEX
8
RASTER
10
117.451
20
8.505
30
0
0
VERTEX
8
RASTER
10
116.953
20
8.505
30
0
0
VERTEX
8
RASTER
10
116.126
20
8.874
30
0
0
VERTEX
8
RASTER
10
115.429
20
9.472
30
0
0
VERTEX
8
RASTER
10
115.061
20
10.099
30
0
0
VERTEX
8
RASTER
10
114.861
20
10.697
30
0
0
VERTEX
8
RASTER
10
114.861
20
11.095
30
0
0
VERTEX
8
RASTER
10
115.13
20
11.823
30
0
0
VERTEX
8
RASTER
10
115.429
20
12.121
30
0
0
VERTEX
8
RASTER
10
115.758
20
12.291
30
0
0
VERTEX
8
RASTER
10
116.256
20
12.291
30
0
0
VERTEX
8
RASTER
10
116.585
20
12.121
30
0
0
VERTEX
8
RASTER
10
116.754
20
11.793
30
0
0
VERTEX
8
RASTER
10
116.754
20
11.394
30
0
0
VERTEX
8
RASTER
10
116.624
20
11.125
30
0
0
VERTEX
8
RASTER
10
116.186
20
10.966
30
0
0
VERTEX
8
RASTER
10
116.226
20
10.767
30
0
0
VERTEX
8
RASTER
10
116.355
20
10.697
30
0
0
VERTEX
8
RASTER
10
116.754
20
10.697
30
0
0
VERTEX
8
RASTER
10
117.123
20
10.926
30
0
0
VERTEX
8
RASTER
10
117.451
20
11.593
30
0
0
VERTEX
8
RASTER
10
117.451
20
11.793
30
0
0
VERTEX
8
RASTER
10
117.182
20
12.321
30
0
0
VERTEX
8
RASTER
10
116.983
20
12.52
30
0
0
VERTEX
8
RASTER
10
116.455
20
12.789
30
0
0
SEQEND
8
RASTER
0
POLYLINE
8
RASTER
66
1
70
1
0
VERTEX
8
RASTER
10
121.167
20
11.862
30
0
0
VERTEX
8
RASTER
10
121.306
20
11.862
30
0
0
VERTEX
8
RASTER
10
121.266
20
11.723
30
0
0
VERTEX
8
RASTER
10
121.466
20
11.524
30
0
0
VERTEX
8
RASTER
10
121.565
20
11.663
30
0
0
VERTEX
8
RASTER
10
121.705
20
11.663
30
0
0
VERTEX
8
RASTER
10
121.505
20
11.225
30
0
0
VERTEX
8
RASTER
10
121.336
20
11.295
30
0
0
VERTEX
8
RASTER
10
121.107
20
11.125
30
0
0
VERTEX
8
RASTER
10
120.868
20
11.125
30
0
0
VERTEX
8
RASTER
10
120.908
20
11.364
30
0
0
VERTEX
8
RASTER
10
120.709
20
11.225
30
0
0
VERTEX
8
RASTER
10
120.469
20
11.225
30
0
0
VERTEX
8
RASTER
10
120.709
20
11.524
30
0
0
SEQEND
8
RASTER
0
POLYLINE
8
RASTER
66
1
70
1
0
VERTEX
8
RASTER
10
122.8
20
11.364
30
0
0
VERTEX
8
RASTER
10
122.103
20
10.826
30
0
0
VERTEX
8
RASTER
10
121.466
20
10.169
30
0
0
VERTEX
8
RASTER
10
121.207
20
10.03
30
0
0
VERTEX
8
RASTER
10
120.868
20
9.631
30
0
0
VERTEX
8
RASTER
10
121.336
20
9.502
30
0
0
VERTEX
8
RASTER
10
121.904
20
9.133
30
0
0
VERTEX
8
RASTER
10
122.004
20
9.332
30
0
0
VERTEX
8
RASTER
10
123
20
10.328
30
0
0
VERTEX
8
RASTER
10
123.298
20
10.368
30
0
0
VERTEX
8
RASTER
10
123.398
20
10.229
30
0
0
VERTEX
8
RASTER
10
123.328
20
10.697
30
0
0
VERTEX
8
RASTER
10
123.159
20
11.026
30
0
0
SEQEND
8
RASTER
0
POLYLINE
8
RASTER
66
1
70
1
0
VERTEX
8
RASTER
10
123.896
20
10.069
30
0
0
VERTEX
8
RASTER
10
122.96
20
9.133
30
0
0
VERTEX
8
RASTER
10
123.956
20
8.735
30
0
0
VERTEX
8
RASTER
10
124.454
20
8.137
30
0
0
VERTEX
8
RASTER
10
124.623
20
7.609
30
0
0
VERTEX
8
RASTER
10
124.793
20
7.44
30
0
0
VERTEX
8
RASTER
10
124.922
20
8.605
30
0
0
VERTEX
8
RASTER
10
124.723
20
9.203
30
0
0
VERTEX
8
RASTER
10
124.454
20
9.631
30
0
0
SEQEND
8
RASTER
0
POLYLINE
8
RASTER
66
1
70
1
0
VERTEX
8
RASTER
10
120.539
20
9.203
30
0
0
VERTEX
8
RASTER
10
120.011
20
8.834
30
0
0
VERTEX
8
RASTER
10
119.742
20
8.306
30
0
0
VERTEX
8
RASTER
10
119.742
20
7.509
30
0
0
VERTEX
8
RASTER
10
120.011
20
6.882
30
0
0
VERTEX
8
RASTER
10
120.709
20
6.184
30
0
0
VERTEX
8
RASTER
10
121.735
20
5.716
30
0
0
VERTEX
8
RASTER
10
122.761
20
5.547
30
0
0
VERTEX
8
RASTER
10
123.328
20
5.617
30
0
0
VERTEX
8
RASTER
10
123.856
20
5.886
30
0
0
VERTEX
8
RASTER
10
124.056
20
6.085
30
0
0
VERTEX
8
RASTER
10
124.324
20
6.613
30
0
0
VERTEX
8
RASTER
10
124.324
20
7.609
30
0
0
VERTEX
8
RASTER
10
124.056
20
8.137
30
0
0
VERTEX
8
RASTER
10
123.757
20
8.436
30
0
0
VERTEX
8
RASTER
10
123.229
20
8.705
30
0
0
VERTEX
8
RASTER
10
122.731
20
8.705
30
0
0
VERTEX
8
RASTER
10
122.263
20
8.476
30
0
0
VERTEX
8
RASTER
10
122.033
20
8.007
30
0
0
VERTEX
8
RASTER
10
122.033
20
7.709
30
0
0
VERTEX
8
RASTER
10
122.302
20
7.28
30
0
0
VERTEX
8
RASTER
10
122.601
20
7.141
30
0
0
VERTEX
8
RASTER
10
122.701
20
7.28
30
0
0
VERTEX
8
RASTER
10
122.432
20
7.609
30
0
0
VERTEX
8
RASTER
10
122.502
20
7.938
30
0
0
VERTEX
8
RASTER
10
122.731
20
8.107
30
0
0
VERTEX
8
RASTER
10
123.259
20
8.037
30
0
0
VERTEX
8
RASTER
10
123.458
20
7.838
30
0
0
VERTEX
8
RASTER
10
123.727
20
7.21
30
0
0
VERTEX
8
RASTER
10
123.727
20
6.912
30
0
0
VERTEX
8
RASTER
10
123.398
20
6.344
30
0
0
VERTEX
8
RASTER
10
122.631
20
6.015
30
0
0
VERTEX
8
RASTER
10
121.934
20
6.015
30
0
0
VERTEX
8
RASTER
10
121.207
20
6.284
30
0
0
VERTEX
8
RASTER
10
120.609
20
6.683
30
0
0
VERTEX
8
RASTER
10
120.41
20
6.882
30
0
0
VERTEX
8
RASTER
10
120.141
20
7.41
30
0
0
VERTEX
8
RASTER
10
120.071
20
7.778
30
0
0
VERTEX
8
RASTER
10
120.21
20
8.336
30
0
0
VERTEX
8
RASTER
10
120.738
20
8.705
30
0
0
VERTEX
8
RASTER
10
121.266
20
8.535
30
0
0
VERTEX
8
RASTER
10
121.436
20
8.306
30
0
0
VERTEX
8
RASTER
10
121.436
20
8.007
30
0
0
VERTEX
8
RASTER
10
121.067
20
7.639
30
0
0
VERTEX
8
RASTER
10
121.336
20
7.509
30
0
0
VERTEX
8
RASTER
10
121.466
20
7.579
30
0
0
VERTEX
8
RASTER
10
121.635
20
7.908
30
0
0
VERTEX
8
RASTER
10
121.635
20
8.207
30
0
0
VERTEX
8
RASTER
10
121.804
20
8.675
30
0
0
VERTEX
8
RASTER
10
121.665
20
8.934
30
0
0
VERTEX
8
RASTER
10
121.336
20
9.203
30
0
0
SEQEND
8
RASTER
0
POLYLINE
8
CUT
66
1
70
1
0
VERTEX
8
CUT
10
152.284
20
23.997
30
0
0
VERTEX
8
CUT
10
153.751
20
24.045
30
0
0
VERTEX
8
CUT
10
154.508
20
23.846
30
0
0
VERTEX
8
CUT
10
155.05
20
23.112
30
0
0
VERTEX
8
CUT
10
155.234
20
21.303
30
0
0
VERTEX
8
CUT
10
157.203
20
21.119
30
0
0
VERTEX
8
CUT
10
157.498
20
20.617
30
0
0
VERTEX
8
CUT
10
157.434
20
18.05
30
0
0
VERTEX
8
CUT
10
155.816
20
17.716
30
0
0
VERTEX
8
CUT
10
155.8
20
15.619
30
0
0
VERTEX
8
CUT
10
155.577
20
14.965
30
0
0
VERTEX
8
CUT
10
154.468
20
13.522
30
0
0
VERTEX
8
CUT
10
153.057
20
12.526
30
0
0
VERTEX
8
CUT
10
153.193
20
8.979
30
0
0
VERTEX
8
CUT
10
152.938
20
7.799
30
0
0
VERTEX
8
CUT
10
152.316
20
7.544
30
0
0
VERTEX
8
CUT
10
150.02
20
7.639
30
0
0
VERTEX
8
CUT
10
148.275
20
8.205
30
0
0
VERTEX
8
CUT
10
147.015
20
8.995
30
0
0
VERTEX
8
CUT
10
145.062
20
8.102
30
0
0
VERTEX
8
CUT
10
142.973
20
7.799
30
0
0
VERTEX
8
CUT
10
142.352
20
6.747
30
0
0
VERTEX
8
CUT
10
140.12
20
6.826
30
0
0
VERTEX
8
CUT
10
139.848
20
7.273
30
0
0
VERTEX
8
CUT
10
139.673
20
8.771
30
0
0
VERTEX
8
CUT
10
137.991
20
9.002
30
0
0
VERTEX
8
CUT
10
137.64
20
9.21
30
0
0
VERTEX
8
CUT
10
137.489
20
9.696
30
0
0
VERTEX
8
CUT
10
137.553
20
14.654
30
0
0
VERTEX
8
CUT
10
137.967
20
14.878
30
0
0
VERTEX
8
CUT
10
139.992
20
14.654
30
0
0
VERTEX
8
CUT
10
140.446
20
14.886
30
0
0
VERTEX
8
CUT
10
139.665
20
16.655
30
0
0
VERTEX
8
CUT
10
139.785
20
18.72
30
0
0
VERTEX
8
CUT
10
141.491
20
19.485
30
0
0
VERTEX
8
CUT
10
144.568
20
19.756
30
0
0
VERTEX
8
CUT
10
145.66
20
22.012
30
0
0
VERTEX
8
CUT
10
146.353
20
22.833
30
0
0
VERTEX
8
CUT
10
147.342
20
23.519
30
0
0
VERTEX
8
CUT
10
149.406
20
23.447
30
0
0
VERTEX
8
CUT
10
151.104
20
21.327
30
0
0
VERTEX
8
CUT
10
151.479
20
21.853
30
0
0
VERTEX
8
CUT
10
151.591
20
23.575
30
0
0
SEQEND
8
CUT
0
POLYLINE
8
RASTER
66
1
70
1
0
VERTEX
8
RASTER
10
152.978
20
23.144
30
0
0
VERTEX
8
RASTER
10
153.432
20
23.168
30
0
0
VERTEX
8
RASTER
10
153.695
20
23.033
30
0
0
VERTEX
8
RASTER
10
154.014
20
22.793
30
0
0
VERTEX
8
RASTER
10
154.229
20
22.371
30
0
0
VERTEX
8
RASTER
10
154.229
20
21.654
30
0
0
VERTEX
8
RASTER
10
154.15
20
21.335
30
0
0
VERTEX
8
RASTER
10
153.695
20
20.354
30
0
0
VERTEX
8
RASTER
10
153.137
20
19.445
30
0
0
VERTEX
8
RASTER
10
154.787
20
20.139
30
0
0
VERTEX
8
RASTER
10
155.824
20
20.378
30
0
0
VERTEX
8
RASTER
10
156.461
20
20.298
30
0
0
VERTEX
8
RASTER
10
156.884
20
20.083
30
0
0
VERTEX
8
RASTER
10
157.043
20
19.924
30
0
0
VERTEX
8
RASTER
10
157.179
20
19.581
30
0
0
VERTEX
8
RASTER
10
157.043
20
19.079
30
0
0
VERTEX
8
RASTER
10
156.724
20
18.68
30
0
0
VERTEX
8
RASTER
10
156.621
20
18.624
30
0
0
VERTEX
8
RASTER
10
156.198
20
18.68
30
0
0
VERTEX
8
RASTER
10
156.143
20
19.182
30
0
0
VERTEX
8
RASTER
10
155.983
20
19.262
30
0
0
VERTEX
8
RASTER
10
154.923
20
18.728
30
0
0
VERTEX
8
RASTER
10
153.376
20
17.644
30
0
0
VERTEX
8
RASTER
10
153.456
20
17.532
30
0
0
VERTEX
8
RASTER
10
153.592
20
17.588
30
0
0
VERTEX
8
RASTER
10
153.831
20
17.508
30
0
0
VERTEX
8
RASTER
10
154.572
20
17.134
30
0
0
VERTEX
8
RASTER
10
154.971
20
16.815
30
0
0
VERTEX
8
RASTER
10
155.026
20
16.472
30
0
0
VERTEX
8
RASTER
10
154.867
20
16.073
30
0
0
VERTEX
8
RASTER
10
154.572
20
15.491
30
0
0
VERTEX
8
RASTER
10
154.174
20
14.933
30
0
0
VERTEX
8
RASTER
10
153.376
20
14.136
30
0
0
VERTEX
8
RASTER
10
152.635
20
13.682
30
0
0
VERTEX
8
RASTER
10
151.997
20
13.443
30
0
0
VERTEX
8
RASTER
10
151.36
20
13.363
30
0
0
VERTEX
8
RASTER
10
151.28
20
13.283
30
0
0
VERTEX
8
RASTER
10
151.623
20
12.909
30
0
0
VERTEX
8
RASTER
10
151.997
20
12.167
30
0
0
VERTEX
8
RASTER
10
152.316
20
10.892
30
0
0
VERTEX
8
RASTER
10
152.316
20
9.377
30
0
0
VERTEX
8
RASTER
10
152.021
20
8.476
30
0
0
VERTEX
8
RASTER
10
151.758
20
8.341
30
0
0
VERTEX
8
RASTER
10
151.12
20
8.421
30
0
0
VERTEX
8
RASTER
10
149.446
20
8.899
30
0
0
VERTEX
8
RASTER
10
148.705
20
9.274
30
0
0
VERTEX
8
RASTER
10
147.748
20
10.15
30
0
0
VERTEX
8
RASTER
10
147.453
20
10.653
30
0
0
VERTEX
8
RASTER
10
147.238
20
11.266
30
0
0
VERTEX
8
RASTER
10
146.521
20
10.15
30
0
0
VERTEX
8
RASTER
10
145.724
20
9.592
30
0
0
VERTEX
8
RASTER
10
144.823
20
9.138
30
0
0
VERTEX
8
RASTER
10
143.228
20
8.739
30
0
0
VERTEX
8
RASTER
10
142.75
20
8.739
30
0
0
VERTEX
8
RASTER
10
142.375
20
9.114
30
0
0
VERTEX
8
RASTER
10
142.009
20
8.763
30
0
0
VERTEX
8
RASTER
10
141.794
20
8.421
30
0
0
VERTEX
8
RASTER
10
141.873
20
8.102
30
0
0
VERTEX
8
RASTER
10
141.817
20
7.759
30
0
0
VERTEX
8
RASTER
10
141.395
20
7.464
30
0
0
VERTEX
8
RASTER
10
140.972
20
7.599
30
0
0
VERTEX
8
RASTER
10
140.678
20
8.022
30
0
0
VERTEX
8
RASTER
10
140.678
20
8.58
30
0
0
VERTEX
8
RASTER
10
140.837
20
9.058
30
0
0
VERTEX
8
RASTER
10
141.371
20
9.959
30
0
0
VERTEX
8
RASTER
10
142.057
20
10.708
30
0
0
VERTEX
8
RASTER
10
142.248
20
11.027
30
0
0
VERTEX
8
RASTER
10
142.088
20
10.995
30
0
0
VERTEX
8
RASTER
10
141.18
20
10.39
30
0
0
VERTEX
8
RASTER
10
140.438
20
10.015
30
0
0
VERTEX
8
RASTER
10
139.641
20
9.776
30
0
0
VERTEX
8
RASTER
10
138.924
20
9.776
30
0
0
VERTEX
8
RASTER
10
138.422
20
9.991
30
0
0
VERTEX
8
RASTER
10
138.103
20
10.39
30
0
0
VERTEX
8
RASTER
10
137.967
20
10.812
30
0
0
VERTEX
8
RASTER
10
138.103
20
11.314
30
0
0
VERTEX
8
RASTER
10
138.23
20
11.506
30
0
0
VERTEX
8
RASTER
10
138.445
20
11.609
30
0
0
VERTEX
8
RASTER
10
138.685
20
11.689
30
0
0
VERTEX
8
RASTER
10
138.948
20
11.553
30
0
0
VERTEX
8
RASTER
10
139.219
20
11.027
30
0
0
VERTEX
8
RASTER
10
139.322
20
10.971
30
0
0
VERTEX
8
RASTER
10
140.303
20
11.585
30
0
0
VERTEX
8
RASTER
10
141.371
20
12.43
30
0
0
VERTEX
8
RASTER
10
140.917
20
12.327
30
0
0
VERTEX
8
RASTER
10
140.518
20
12.327
30
0
0
VERTEX
8
RASTER
10
140.359
20
12.247
30
0
0
VERTEX
8
RASTER
10
139.163
20
12.247
30
0
0
VERTEX
8
RASTER
10
138.262
20
12.622
30
0
0
VERTEX
8
RASTER
10
137.967
20
13.124
30
0
0
VERTEX
8
RASTER
10
137.967
20
13.522
30
0
0
VERTEX
8
RASTER
10
138.103
20
13.785
30
0
0
VERTEX
8
RASTER
10
138.342
20
14.025
30
0
0
VERTEX
8
RASTER
10
138.605
20
14.08
30
0
0
VERTEX
8
RASTER
10
138.868
20
13.945
30
0
0
VERTEX
8
RASTER
10
139.059
20
13.498
30
0
0
VERTEX
8
RASTER
10
139.163
20
13.443
30
0
0
VERTEX
8
RASTER
10
139.561
20
13.443
30
0
0
VERTEX
8
RASTER
10
140.757
20
13.762
30
0
0
VERTEX
8
RASTER
10
142.192
20
14.32
30
0
0
VERTEX
8
RASTER
10
142.591
20
14.559
30
0
0
VERTEX
8
RASTER
10
142.168
20
14.854
30
0
0
VERTEX
8
RASTER
10
141.53
20
15.491
30
0
0
VERTEX
8
RASTER
10
141.132
20
16.049
30
0
0
VERTEX
8
RASTER
10
140.837
20
16.552
30
0
0
VERTEX
8
RASTER
10
140.518
20
17.349
30
0
0
VERTEX
8
RASTER
10
140.574
20
17.851
30
0
0
VERTEX
8
RASTER
10
140.972
20
18.17
30
0
0
VERTEX
8
RASTER
10
141.475
20
18.385
30
0
0
VERTEX
8
RASTER
10
142.192
20
18.624
30
0
0
VERTEX
8
RASTER
10
142.989
20
18.784
30
0
0
VERTEX
8
RASTER
10
144.105
20
18.784
30
0
0
VERTEX
8
RASTER
10
144.902
20
18.545
30
0
0
VERTEX
8
RASTER
10
145.676
20
18.17
30
0
0
VERTEX
8
RASTER
10
145.62
20
19.262
30
0
0
VERTEX
8
RASTER
10
145.859
20
20.059
30
0
0
VERTEX
8
RASTER
10
146.234
20
20.801
30
0
0
VERTEX
8
RASTER
10
146.553
20
21.279
30
0
0
VERTEX
8
RASTER
10
147.43
20
22.235
30
0
0
VERTEX
8
RASTER
10
148.251
20
22.77
30
0
0
VERTEX
8
RASTER
10
148.593
20
22.634
30
0
0
VERTEX
8
RASTER
10
148.912
20
22.315
30
0
0
VERTEX
8
RASTER
10
149.709
20
21.199
30
0
0
VERTEX
8
RASTER
10
150.244
20
19.979
30
0
0
VERTEX
8
RASTER
10
150.323
20
19.661
30
0
0
VERTEX
8
RASTER
10
150.323
20
19.023
30
0
0
VERTEX
8
RASTER
10
150.403
20
18.943
30
0
0
VERTEX
8
RASTER
10
152.26
20
20.753
30
0
0
VERTEX
8
RASTER
10
152.898
20
21.63
30
0
0
VERTEX
8
RASTER
10
153.113
20
22.052
30
0
0
VERTEX
8
RASTER
10
153.089
20
22.188
30
0
0
VERTEX
8
RASTER
10
152.954
20
22.212
30
0
0
VERTEX
8
RASTER
10
152.794
20
22.132
30
0
0
VERTEX
8
RASTER
10
152.452
20
22.188
30
0
0
VERTEX
8
RASTER
10
152.316
20
22.371
30
0
0
VERTEX
8
RASTER
10
152.316
20
22.61
30
0
0
VERTEX
8
RASTER
10
152.531
20
22.953
30
0
0
SEQEND
8
RASTER
0
POLYLINE
8
RASTER
66
1
70
1
0
VERTEX
8
RASTER
10
148.251
20
22.371
30
0
0
VERTEX
8
RASTER
10
147.988
20
22.235
30
0
0
VERTEX
8
RASTER
10
147.111
20
21.359
30
0
0
VERTEX
8
RASTER
10
146.632
20
20.721
30
0
0
VERTEX
8
RASTER
10
146.178
20
19.82
30
0
0
VERTEX
8
RASTER
10
145.939
20
18.624
30
0
0
VERTEX
8
RASTER
10
146.019
20
18.465
30
0
0
VERTEX
8
RASTER
10
146.019
20
17.987
30
0
0
VERTEX
8
RASTER
10
146.313
20
17.245
30
0
0
VERTEX
8
RASTER
10
146.895
20
17.11
30
0
0
VERTEX
8
RASTER
10
147.214
20
16.95
30
0
0
VERTEX
8
RASTER
10
147.613
20
17.11
30
0
0
VERTEX
8
RASTER
10
148.091
20
17.11
30
0
0
VERTEX
8
RASTER
10
148.354
20
16.894
30
0
0
VERTEX
8
RASTER
10
148.546
20
16.528
30
0
0
VERTEX
8
RASTER
10
148.809
20
16.392
30
0
0
VERTEX
8
RASTER
10
149.048
20
16.392
30
0
0
VERTEX
8
RASTER
10
149.391
20
16.177
30
0
0
VERTEX
8
RASTER
10
149.63
20
15.858
30
0
0
VERTEX
8
RASTER
10
149.845
20
15.356
30
0
0
VERTEX
8
RASTER
10
149.765
20
14.878
30
0
0
VERTEX
8
RASTER
10
149.446
20
14.32
30
0
0
VERTEX
8
RASTER
10
150.164
20
13.921
30
0
0
VERTEX
8
RASTER
10
150.642
20
13.762
30
0
0
VERTEX
8
RASTER
10
151.439
20
13.762
30
0
0
VERTEX
8
RASTER
10
152.739
20
14.216
30
0
0
VERTEX
8
RASTER
10
153.217
20
14.535
30
0
0
VERTEX
8
RASTER
10
153.855
20
15.173
30
0
0
VERTEX
8
RASTER
10
154.253
20
15.731
30
0
0
VERTEX
8
RASTER
10
154.628
20
16.472
30
0
0
VERTEX
8
RASTER
10
154.572
20
16.655
30
0
0
VERTEX
8
RASTER
10
153.831
20
17.11
30
0
0
VERTEX
8
RASTER
10
152.715
20
17.588
30
0
0
VERTEX
8
RASTER
10
152.077
20
17.747
30
0
0
VERTEX
8
RASTER
10
151.2
20
17.747
30
0
0
VERTEX
8
RASTER
10
150.642
20
17.588
30
0
0
VERTEX
8
RASTER
10
149.901
20
17.213
30
0
0
VERTEX
8
RASTER
10
149.072
20
16.496
30
0
0
VERTEX
8
RASTER
10
149.845
20
18.066
30
0
0
VERTEX
8
RASTER
10
149.98
20
18.967
30
0
0
VERTEX
8
RASTER
10
149.925
20
19.661
30
0
0
VERTEX
8
RASTER
10
149.606
20
20.617
30
0
0
VERTEX
8
RASTER
10
149.231
20
21.279
30
0
0
VERTEX
8
RASTER
10
148.833
20
21.837
30
0
0
SEQEND
8
RASTER
0
POLYLINE
8
RASTER
66
1
70
1
0
VERTEX
8
RASTER
10
143.228
20
18.465
30
0
0
VERTEX
8
RASTER
10
143.069
20
18.385
30
0
0
VERTEX
8
RASTER
10
142.352
20
18.305
30
0
0
VERTEX
8
RASTER
10
141.634
20
18.066
30
0
0
VERTEX
8
RASTER
10
140.893
20
17.692
30
0
0
VERTEX
8
RASTER
10
140.837
20
17.508
30
0
0
VERTEX
8
RASTER
10
140.917
20
17.269
30
0
0
VERTEX
8
RASTER
10
141.371
20
16.368
30
0
0
VERTEX
8
RASTER
10
141.69
20
15.89
30
0
0
VERTEX
8
RASTER
10
142.407
20
15.173
30
0
0
VERTEX
8
RASTER
10
142.726
20
14.933
30
0
0
VERTEX
8
RASTER
10
143.468
20
14.559
30
0
0
VERTEX
8
RASTER
10
144.026
20
14.399
30
0
0
VERTEX
8
RASTER
10
145.221
20
14.399
30
0
0
VERTEX
8
RASTER
10
145.325
20
14.455
30
0
0
VERTEX
8
RASTER
10
145.54
20
14.957
30
0
0
VERTEX
8
RASTER
10
145.54
20
15.196
30
0
0
VERTEX
8
RASTER
10
145.381
20
15.675
30
0
0
VERTEX
8
RASTER
10
145.461
20
16.153
30
0
0
VERTEX
8
RASTER
10
145.676
20
16.655
30
0
0
VERTEX
8
RASTER
10
146.042
20
17.006
30
0
0
VERTEX
8
RASTER
10
146.098
20
17.11
30
0
0
VERTEX
8
RASTER
10
146.042
20
17.213
30
0
0
VERTEX
8
RASTER
10
145.564
20
17.771
30
0
0
VERTEX
8
RASTER
10
144.584
20
18.305
30
0
0
VERTEX
8
RASTER
10
143.946
20
18.465
30
0
0
SEQEND
8
RASTER
0
POLYLINE
8
RASTER
66
1
70
1
0
VERTEX
8
RASTER
10
146.577
20
17.11
30
0
0
VERTEX
8
RASTER
10
146.074
20
16.894
30
0
0
VERTEX
8
RASTER
10
145.915
20
16.735
30
0
0
VERTEX
8
RASTER
10
145.62
20
16.073
30
0
0
VERTEX
8
RASTER
10
145.62
20
15.595
30
0
0
VERTEX
8
RASTER
10
145.939
20
15.037
30
0
0
VERTEX
8
RASTER
10
145.54
20
14.479
30
0
0
VERTEX
8
RASTER
10
145.54
20
13.762
30
0
0
VERTEX
8
RASTER
10
145.755
20
13.339
30
0
0
VERTEX
8
RASTER
10
146.098
20
13.124
30
0
0
VERTEX
8
RASTER
10
146.337
20
13.124
30
0
0
VERTEX
8
RASTER
10
146.816
20
13.443
30
0
0
VERTEX
8
RASTER
10
147.19
20
13.02
30
0
0
VERTEX
8
RASTER
10
147.453
20
12.885
30
0
0
VERTEX
8
RASTER
10
147.772
20
12.885
30
0
0
VERTEX
8
RASTER
10
148.115
20
13.02
30
0
0
VERTEX
8
RASTER
10
148.434
20
13.259
30
0
0
VERTEX
8
RASTER
10
148.649
20
13.682
30
0
0
VERTEX
8
RASTER
10
148.673
20
14.375
30
0
0
VERTEX
8
RASTER
10
149.048
20
14.399
30
0
0
VERTEX
8
RASTER
10
149.343
20
14.583
30
0
0
VERTEX
8
RASTER
10
149.606
20
15.037
30
0
0
VERTEX
8
RASTER
10
149.606
20
15.436
30
0
0
VERTEX
8
RASTER
10
149.311
20
15.938
30
0
0
VERTEX
8
RASTER
10
148.809
20
16.233
30
0
0
VERTEX
8
RASTER
10
148.434
20
16.257
30
0
0
VERTEX
8
RASTER
10
148.41
20
16.472
30
0
0
VERTEX
8
RASTER
10
148.195
20
16.815
30
0
0
VERTEX
8
RASTER
10
147.693
20
16.871
30
0
0
VERTEX
8
RASTER
10
147.318
20
16.576
30
0
0
VERTEX
8
RASTER
10
146.919
20
16.974
30
0
0
SEQEND
8
RASTER
0
POLYLINE
8
RASTER
66
1
70
1
0
VERTEX
8
RASTER
10
146.999
20
15.571
30
0
0
VERTEX
8
RASTER
10
147.214
20
15.595
30
0
0
VERTEX
8
RASTER
10
147.294
20
15.515
30
0
0
VERTEX
8
RASTER
10
146.975
20
15.037
30
0
0
VERTEX
8
RASTER
10
146.975
20
14.638
30
0
0
VERTEX
8
RASTER
10
147.135
20
14.479
30
0
0
VERTEX
8
RASTER
10
147.557
20
14.615
30
0
0
VERTEX
8
RASTER
10
147.988
20
15.061
30
0
0
VERTEX
8
RASTER
10
148.171
20
15.117
30
0
0
VERTEX
8
RASTER
10
148.251
20
15.037
30
0
0
VERTEX
8
RASTER
10
148.115
20
14.774
30
0
0
VERTEX
8
RASTER
10
147.876
20
14.535
30
0
0
VERTEX
8
RASTER
10
147.294
20
14.16
30
0
0
VERTEX
8
RASTER
10
147.055
20
14.16
30
0
0
VERTEX
8
RASTER
10
146.84
20
14.264
30
0
0
VERTEX
8
RASTER
10
146.736
20
14.479
30
0
0
VERTEX
8
RASTER
10
146.736
20
15.117
30
0
0
SEQEND
8
RASTER
0
POLYLINE
8
RASTER
66
1
70
1
0
VERTEX
8
RASTER
10
145.062
20
14.16
30
0
0
VERTEX
8
RASTER
10
144.002
20
13.626
30
0
0
VERTEX
8
RASTER
10
143.284
20
12.909
30
0
0
VERTEX
8
RASTER
10
142.83
20
12.088
30
0
0
VERTEX
8
RASTER
10
142.591
20
11.131
30
0
0
VERTEX
8
RASTER
10
142.591
20
9.935
30
0
0
VERTEX
8
RASTER
10
142.67
20
9.537
30
0
0
VERTEX
8
RASTER
10
142.91
20
9.138
30
0
0
VERTEX
8
RASTER
10
143.228
20
9.138
30
0
0
VERTEX
8
RASTER
10
144.265
20
9.377
30
0
0
VERTEX
8
RASTER
10
145.142
20
9.696
30
0
0
VERTEX
8
RASTER
10
145.803
20
10.071
30
0
0
VERTEX
8
RASTER
10
146.361
20
10.549
30
0
0
VERTEX
8
RASTER
10
147.055
20
11.689
30
0
0
VERTEX
8
RASTER
10
147.214
20
12.167
30
0
0
VERTEX
8
RASTER
10
147.238
20
12.59
30
0
0
VERTEX
8
RASTER
10
146.951
20
12.781
30
0
0
VERTEX
8
RASTER
10
146.736
20
13.044
30
0
0
VERTEX
8
RASTER
10
146.417
20
12.885
30
0
0
VERTEX
8
RASTER
10
146.019
20
12.885
30
0
0
VERTEX
8
RASTER
10
145.755
20
13.02
30
0
0
VERTEX
8
RASTER
10
145.381
20
13.443
30
0
0
VERTEX
8
RASTER
10
145.277
20
14.136
30
0
0
SEQEND
8
RASTER
0
POLYLINE
8
RASTER
66
1
70
1
0
VERTEX
8
RASTER
10
149.127
20
14.08
30
0
0
VERTEX
8
RASTER
10
149.024
20
14.025
30
0
0
VERTEX
8
RASTER
10
148.888
20
13.522
30
0
0
VERTEX
8
RASTER
10
148.593
20
13.02
30
0
0
VERTEX
8
RASTER
10
147.932
20
12.646
30
0
0
VERTEX
8
RASTER
10
147.589
20
12.59
30
0
0
VERTEX
8
RASTER
10
147.533
20
12.486
30
0
0
VERTEX
8
RASTER
10
147.477
20
12.223
30
0
0
VERTEX
8
RASTER
10
147.533
20
11.689
30
0
0
VERTEX
8
RASTER
10
147.772
20
10.971
30
0
0
VERTEX
8
RASTER
10
148.147
20
10.31
30
0
0
VERTEX
8
RASTER
10
148.625
20
9.832
30
0
0
VERTEX
8
RASTER
10
149.104
20
9.513
30
0
0
VERTEX
8
RASTER
10
150.483
20
8.979
30
0
0
VERTEX
8
RASTER
10
151.678
20
8.739
30
0
0
VERTEX
8
RASTER
10
151.838
20
8.899
30
0
0
VERTEX
8
RASTER
10
151.997
20
9.537
30
0
0
VERTEX
8
RASTER
10
151.997
20
10.732
30
0
0
VERTEX
8
RASTER
10
151.758
20
11.769
30
0
0
VERTEX
8
RASTER
10
151.224
20
12.749
30
0
0
VERTEX
8
RASTER
10
150.746
20
13.227
30
0
0
VERTEX
8
RASTER
10
150.188
20
13.626
30
0
0
VERTEX
8
RASTER
10
149.287
20
14.08
30
0
0
SEQEND
8
RASTER
0
ENDSEC
0
EOF
