  0
SECTION
  2
HEADER
  9
$ACADVER
  1
AC1015
  9
$ACADMAINTVER
 70
6
  9
$DWGCODEPAGE
  3
ANSI_1252
  9
$INSBASE
 10
0.0
 20
0.0
 30
0.0
  9
$EXTMIN
 10
1e+20
 20
1e+20
 30
1e+20
  9
$EXTMAX
 10
-1e+20
 20
-1e+20
 30
-1e+20
  9
$LIMMIN
 10
0.0
 20
0.0
  9
$LIMMAX
 10
420.0
 20
297.0
  9
$ORTHOMODE
 70
0
  9
$REGENMODE
 70
1
  9
$FILLMODE
 70
1
  9
$QTEXTMODE
 70
0
  9
$MIRRTEXT
 70
1
  9
$LTSCALE
 40
1.0
  9
$ATTMODE
 70
1
  9
$TEXTSIZE
 40
2.5
  9
$TRACEWID
 40
1.0
  9
$TEXTSTYLE
  7
Standard
  9
$CLAYER
  8
0
  9
$CELTYPE
  6
ByLayer
  9
$CECOLOR
 62
256
  9
$CELTSCALE
 40
1.0
  9
$DISPSILH
 70
0
  9
$DIMSCALE
 40
1.0
  9
$DIMASZ
 40
2.5
  9
$DIMEXO
 40
0.625
  9
$DIMDLI
 40
3.75
  9
$DIMRND
 40
0.0
  9
$DIMDLE
 40
0.0
  9
$DIMEXE
 40
1.25
  9
$DIMTP
 40
0.0
  9
$DIMTM
 40
0.0
  9
$DIMTXT
 40
2.5
  9
$DIMCEN
 40
2.5
  9
$DIMTSZ
 40
0.0
  9
$DIMTOL
 70
0
  9
$DIMLIM
 70
0
  9
$DIMTIH
 70
0
  9
$DIMTOH
 70
0
  9
$DIMSE1
 70
0
  9
$DIMSE2
 70
0
  9
$DIMTAD
 70
1
  9
$DIMZIN
 70
8
  9
$DIMBLK
  1

  9
$DIMASO
 70
1
  9
$DIMSHO
 70
1
  9
$DIMPOST
  1

  9
$DIMAPOST
  1

  9
$DIMALT
 70
0
  9
$DIMALTD
 70
3
  9
$DIMALTF
 40
0.03937007874
  9
$DIMLFAC
 40
1.0
  9
$DIMTOFL
 70
1
  9
$DIMTVP
 40
0.0
  9
$DIMTIX
 70
0
  9
$DIMSOXD
 70
0
  9
$DIMSAH
 70
0
  9
$DIMBLK1
  1

  9
$DIMBLK2
  1

  9
$DIMSTYLE
  2
ISO-25
  9
$DIMCLRD
 70
0
  9
$DIMCLRE
 70
0
  9
$DIMCLRT
 70
0
  9
$DIMTFAC
 40
1.0
  9
$DIMGAP
 40
0.625
  9
$DIMJUST
 70
0
  9
$DIMSD1
 70
0
  9
$DIMSD2
 70
0
  9
$DIMTOLJ
 70
0
  9
$DIMTZIN
 70
8
  9
$DIMALTZ
 70
0
  9
$DIMALTTZ
 70
0
  9
$DIMUPT
 70
0
  9
$DIMDEC
 70
2
  9
$DIMTDEC
 70
2
  9
$DIMALTU
 70
2
  9
$DIMALTTD
 70
3
  9
$DIMTXSTY
  7
Standard
  9
$DIMAUNIT
 70
0
  9
$DIMADEC
 70
0
  9
$DIMALTRND
 40
0.0
  9
$DIMAZIN
 70
0
  9
$DIMDSEP
 70
44
  9
$DIMATFIT
 70
3
  9
$DIMFRAC
 70
0
  9
$DIMLDRBLK
  1

  9
$DIMLUNIT
 70
2
  9
$DIMLWD
 70
-2
  9
$DIMLWE
 70
-2
  9
$DIMTMOVE
 70
0
  9
$LUNITS
 70
2
  9
$LUPREC
 70
4
  9
$SKETCHINC
 40
1.0
  9
$FILLETRAD
 40
10.0
  9
$AUNITS
 70
0
  9
$AUPREC
 70
2
  9
$MENU
  1
.
  9
$ELEVATION
 40
0.0
  9
$PELEVATION
 40
0.0
  9
$THICKNESS
 40
0.0
  9
$LIMCHECK
 70
0
  9
$CHAMFERA
 40
0.0
  9
$CHAMFERB
 40
0.0
  9
$CHAMFERC
 40
0.0
  9
$CHAMFERD
 40
0.0
  9
$SKPOLY
 70
0
  9
$TDCREATE
 40
2461296.450659722
  9
$TDUCREATE
 40
2458532.153996898
  9
$TDUPDATE
 40
2461296.450659722
  9
$TDUUPDATE
 40
2458532.1544311
  9
$TDINDWG
 40
0.0
  9
$TDUSRTIMER
 40
0.0
  9
$USRTIMER
 70
1
  9
$ANGBASE
 50
0.0
  9
$ANGDIR
 70
0
  9
$PDMODE
 70
0
  9
$PDSIZE
 40
0.0
  9
$PLINEWID
 40
0.0
  9
$SPLFRAME
 70
0
  9
$SPLINETYPE
 70
6
  9
$SPLINESEGS
 70
8
  9
$HANDSEED
  5
B8
  9
$SURFTAB1
 70
6
  9
$SURFTAB2
 70
6
  9
$SURFTYPE
 70
6
  9
$SURFU
 70
6
  9
$SURFV
 70
6
  9
$UCSBASE
  2

  9
$UCSNAME
  2

  9
$UCSORG
 10
0.0
 20
0.0
 30
0.0
  9
$UCSXDIR
 10
1.0
 20
0.0
 30
0.0
  9
$UCSYDIR
 10
0.0
 20
1.0
 30
0.0
  9
$UCSORTHOREF
  2

  9
$UCSORTHOVIEW
 70
0
  9
$UCSORGTOP
 10
0.0
 20
0.0
 30
0.0
  9
$UCSORGBOTTOM
 10
0.0
 20
0.0
 30
0.0
  9
$UCSORGLEFT
 10
0.0
 20
0.0
 30
0.0
  9
$UCSORGRIGHT
 10
0.0
 20
0.0
 30
0.0
  9
$UCSORGFRONT
 10
0.0
 20
0.0
 30
0.0
  9
$UCSORGBACK
 10
0.0
 20
0.0
 30
0.0
  9
$PUCSBASE
  2

  9
$PUCSNAME
  2

  9
$PUCSORG
 10
0.0
 20
0.0
 30
0.0
  9
$PUCSXDIR
 10
1.0
 20
0.0
 30
0.0
  9
$PUCSYDIR
 10
0.0
 20
1.0
 30
0.0
  9
$PUCSORTHOREF
  2

  9
$PUCSORTHOVIEW
 70
0
  9
$PUCSORGTOP
 10
0.0
 20
0.0
 30
0.0
  9
$PUCSORGBOTTOM
 10
0.0
 20
0.0
 30
0.0
  9
$PUCSORGLEFT
 10
0.0
 20
0.0
 30
0.0
  9
$PUCSORGRIGHT
 10
0.0
 20
0.0
 30
0.0
  9
$PUCSORGFRONT
 10
0.0
 20
0.0
 30
0.0
  9
$PUCSORGBACK
 10
0.0
 20
0.0
 30
0.0
  9
$USERI1
 70
0
  9
$USERI2
 70
0
  9
$USERI3
 70
0
  9
$USERI4
 70
0
  9
$USERI5
 70
0
  9
$USERR1
 40
0.0
  9
$USERR2
 40
0.0
  9
$USERR3
 40
0.0
  9
$USERR4
 40
0.0
  9
$USERR5
 40
0.0
  9
$WORLDVIEW
 70
1
  9
$SHADEDGE
 70
3
  9
$SHADEDIF
 70
70
  9
$TILEMODE
 70
1
  9
$MAXACTVP
 70
64
  9
$PINSBASE
 10
0.0
 20
0.0
 30
0.0
  9
$PLIMCHECK
 70
0
  9
$PEXTMIN
 10
1e+20
 20
1e+20
 30
1e+20
  9
$PEXTMAX
 10
-1e+20
 20
-1e+20
 30
-1e+20
  9
$PLIMMIN
 10
0.0
 20
0.0
  9
$PLIMMAX
 10
420.0
 20
297.0
  9
$UNITMODE
 70
0
  9
$VISRETAIN
 70
1
  9
$PLINEGEN
 70
0
  9
$PSLTSCALE
 70
1
  9
$TREEDEPTH
 70
3020
  9
$CMLSTYLE
  2
Standard
  9
$CMLJUST
 70
0
  9
$CMLSCALE
 40
20.0
  9
$PROXYGRAPHICS
 70
1
  9
$MEASUREMENT
 70
1
  9
$CELWEIGHT
370
-1
  9
$ENDCAPS
280
0
  9
$JOINSTYLE
280
0
  9
$LWDISPLAY
290
0
  9
$INSUNITS
 70
4
  9
$HYPERLINKBASE
  1

  9
$STYLESHEET
  1

  9
$XEDIT
290
1
  9
$CEPSNTYPE
380
0
  9
$PSTYLEMODE
290
1
  9
$FINGERPRINTGUID
  2
{E4BA1F42-F0A9-43C3-95B5-3BFD59EA5982}
  9
$VERSIONGUID
  2
{FCC5E837-1D9D-464B-92B0-50F7CBC919DE}
  9
$EXTNAMES
290
1
  9
$PSVPSCALE
 40
0.0
  9
$OLESTARTUP
290
0
  0
ENDSEC
  0
SECTION
  2
CLASSES
  0
CLASS
  1
ACDBDICTIONARYWDFLT
  2
AcDbDictionaryWithDefault
  3
ObjectDBX Classes
 90
0
280
0
281
0
  0
CLASS
  1
SUN
  2
AcDbSun
  3
SCENEOE
 90
1153
280
0
281
0
  0
CLASS
  1
VISUALSTYLE
  2
AcDbVisualStyle
  3
ObjectDBX Classes
 90
4095
280
0
281
0
  0
CLASS
  1
MATERIAL
  2
AcDbMaterial
  3
ObjectDBX Classes
 90
1153
280
0
281
0
  0
CLASS
  1
SCALE
  2
AcDbScale
  3
ObjectDBX Classes
 90
1153
280
0
281
0
  0
CLASS
  1
TABLESTYLE
  2
AcDbTableStyle
  3
ObjectDBX Classes
 90
4095
280
0
281
0
  0
CLASS
  1
MLEADERSTYLE
  2
AcDbMLeaderStyle
  3
ACDB_MLEADERSTYLE_CLASS
 90
4095
280
0
281
0
  0
CLASS
  1
DICTIONARYVAR
  2
AcDbDictionaryVar
  3
ObjectDBX Classes
 90
0
280
0
281
0
  0
CLASS
  1
CELLSTYLEMAP
  2
AcDbCellStyleMap
  3
ObjectDBX Classes
 90
1152
280
0
281
0
  0
CLASS
  1
MENTALRAYRENDERSETTINGS
  2
AcDbMentalRayRenderSettings
  3
SCENEOE
 90
1024
280
0
281
0
  0
CLASS
  1
ACDBDETAILVIEWSTYLE
  2
AcDbDetailViewStyle
  3
ObjectDBX Classes
 90
1025
280
0
281
0
  0
CLASS
  1
ACDBSECTIONVIEWSTYLE
  2
AcDbSectionViewStyle
  3
ObjectDBX Classes
 90
1025
280
0
281
0
  0
CLASS
  1
RASTERVARIABLES
  2
AcDbRasterVariables
  3
ISM
 90
0
280
0
281
0
  0
CLASS
  1
ACDBPLACEHOLDER
  2
AcDbPlaceHolder
  3
ObjectDBX Classes
 90
0
280
0
281
0
  0
CLASS
  1
LAYOUT
  2
AcDbLayout
  3
ObjectDBX Classes
 90
0
280
0
281
0
  0
ENDSEC
  0
SECTION
  2
TABLES
  0
TABLE
  2
VPORT
  5
8
330
0
100
AcDbSymbolTable
 70
1
  0
VPORT
  5
23
330
8
100
AcDbSymbolTableRecord
100
AcDbViewportTableRecord
  2
*Active
 70
0
 10
0.0
 20
0.0
 11
1.0
 21
1.0
 12
0.0
 22
0.0
 13
0.0
 23
0.0
 14
0.5
 24
0.5
 15
0.5
 25
0.5
 16
0.0
 26
0.0
 36
1.0
 17
0.0
 27
0.0
 37
0.0
 40
1000.0
 41
1.34
 42
50.0
 43
0.0
 44
0.0
 50
0.0
 51
0.0
 71
0
 72
1000
 73
1
 74
3
 75
0
 76
0
 77
0
 78
0
281
0
 65
0
146
0.0
  0
ENDTAB
  0
TABLE
  2
LTYPE
  5
2
330
0
100
AcDbSymbolTable
 70
3
  0
LTYPE
  5
24
330
2
100
AcDbSymbolTableRecord
100
AcDbLinetypeTableRecord
  2
ByBlock
 70
0
  3

 72
65
 73
0
 40
0.0
  0
LTYPE
  5
25
330
2
100
AcDbSymbolTableRecord
100
AcDbLinetypeTableRecord
  2
ByLayer
 70
0
  3

 72
65
 73
0
 40
0.0
  0
LTYPE
  5
26
330
2
100
AcDbSymbolTableRecord
100
AcDbLinetypeTableRecord
  2
Continuous
 70
0
  3

 72
65
 73
0
 40
0.0
  0
ENDTAB
  0
TABLE
  2
LAYER
  5
1
330
0
100
AcDbSymbolTable
 70
4
  0
LAYER
  5
27
330
1
100
AcDbSymbolTableRecord
100
AcDbLayerTableRecord
  2
0
 70
0
 62
7
  6
Continuous
370
-3
390
13
  0
LAYER
  5
28
330
1
100
AcDbSymbolTableRecord
100
AcDbLayerTableRecord
  2
Defpoints
 70
0
 62
7
  6
Continuous
290
0
370
-3
390
13
  0
LAYER
  5
2F
330
1
100
AcDbSymbolTableRecord
100
AcDbLayerTableRecord
  2
CUT
 70
0
 62
1
  6
Continuous
370
-3
390
13
  0
LAYER
  5
30
330
1
100
AcDbSymbolTableRecord
100
AcDbLayerTableRecord
  2
RASTER
 70
0
 62
7
  6
Continuous
370
-3
390
13
  0
ENDTAB
  0
TABLE
  2
STYLE
  5
5
330
0
100
AcDbSymbolTable
 70
1
  0
STYLE
  5
29
330
5
100
AcDbSymbolTableRecord
100
AcDbTextStyleTableRecord
  2
Standard
 70
0
 40
0.0
 41
1.0
 50
0.0
 71
0
 42
2.5
  3
txt
  4

  0
ENDTAB
  0
TABLE
  2
VIEW
  5
7
330
0
100
AcDbSymbolTable
 70
0
  0
ENDTAB
  0
TABLE
  2
UCS
  5
6
330
0
100
AcDbSymbolTable
 70
0
  0
ENDTAB
  0
TABLE
  2
APPID
  5
3
330
0
100
AcDbSymbolTable
 70
3
  0
APPID
  5
2A
330
3
100
AcDbSymbolTableRecord
100
AcDbRegAppTableRecord
  2
ACAD
 70
0
  0
APPID
  5
B5
330
3
100
AcDbSymbolTableRecord
100
AcDbRegAppTableRecord
  2
HATCHBACKGROUNDCOLOR
 70
0
  0
APPID
  5
B6
330
3
100
AcDbSymbolTableRecord
100
AcDbRegAppTableRecord
  2
EZDXF
 70
0
  0
ENDTAB
  0
TABLE
  2
DIMSTYLE
  5
4
330
0
100
AcDbSymbolTable
 70
1
100
AcDbDimStyleTable
  0
DIMSTYLE
105
2B
330
4
100
AcDbSymbolTableRecord
100
AcDbDimStyleTableRecord
  2
Standard
 70
0
  3

  4

 40
1.0
 41
2.5
 42
0.625
 43
3.75
 44
1.25
 45
0.0
 46
0.0
 47
0.0
 48
0.0
140
2.5
141
2.5
142
0.0
143
0.03937007874
144
1.0
145
0.0
146
1.0
147
0.625
148
0.0
 71
0
 72
0
 73
0
 74
0
 75
0
 76
0
 77
1
 78
8
 79
3
170
0
171
3
172
1
173
0
174
0
175
0
176
0
177
0
178
0
179
2
271
2
272
2
273
2
274
3
275
0
276
0
277
2
278
44
279
0
280
0
281
0
282
0
283
0
284
8
285
0
286
0
288
0
289
3
371
-2
372
-2
  0
ENDTAB
  0
TABLE
  2
BLOCK_RECORD
  5
9
330
0
100
AcDbSymbolTable
 70
2
  0
BLOCK_RECORD
  5
17
330
9
100
AcDbSymbolTableRecord
100
AcDbBlockTableRecord
  2
*Model_Space
340
1A
  0
BLOCK_RECORD
  5
1B
330
9
100
AcDbSymbolTableRecord
100
AcDbBlockTableRecord
  2
*Paper_Space
340
1E
  0
ENDTAB
  0
ENDSEC
  0
SECTION
  2
BLOCKS
  0
BLOCK
  5
18
330
17
100
AcDbEntity
  8
0
100
AcDbBlockBegin
  2
*Model_Space
 70
0
 10
0.0
 20
0.0
 30
0.0
  3
*Model_Space
  1

  0
ENDBLK
  5
19
330
17
100
AcDbEntity
  8
0
100
AcDbBlockEnd
  0
BLOCK
  5
1C
330
1B
100
AcDbEntity
  8
0
100
AcDbBlockBegin
  2
*Paper_Space
 70
0
 10
0.0
 20
0.0
 30
0.0
  3
*Paper_Space
  1

  0
ENDBLK
  5
1D
330
1B
100
AcDbEntity
  8
0
100
AcDbBlockEnd
  0
ENDSEC
  0
SECTION
  2
ENTITIES
  0
LWPOLYLINE
  5
31
330
17
100
AcDbEntity
  8
CUT
100
AcDbPolyline
 90
36
 70
1
 10
7.1
 20
218.844
 10
68.101
 20
218.844
 10
71.241
 20
218.844
 10
71.241
 20
216.464
 10
68.141
 20
216.464
 10
68.141
 20
214.244
 10
71.241
 20
214.244
 10
71.241
 20
211.864
 10
68.101
 20
211.864
 10
62.595
 20
211.864
 10
62.595
 20
208.764
 10
56.97
 20
208.764
 10
56.97
 20
211.864
 10
51.504
 20
211.864
 10
51.504
 20
208.764
 10
45.879
 20
208.764
 10
45.879
 20
211.864
 10
40.413
 20
211.864
 10
40.413
 20
208.764
 10
34.788
 20
208.764
 10
34.788
 20
211.864
 10
29.322
 20
211.864
 10
29.322
 20
208.764
 10
23.697
 20
208.764
 10
23.697
 20
211.864
 10
18.231
 20
211.864
 10
18.231
 20
208.764
 10
12.606
 20
208.764
 10
12.606
 20
211.864
 10
7.1
 20
211.864
 10
3.96
 20
211.864
 10
3.96
 20
214.244
 10
7.06
 20
214.244
 10
7.06
 20
216.464
 10
3.96
 20
216.464
 10
3.96
 20
218.844
  0
LWPOLYLINE
  5
32
330
17
100
AcDbEntity
  8
CUT
100
AcDbPolyline
 90
4
 70
1
 10
12.14
 20
216.414
 10
63.061
 20
216.414
 10
63.061
 20
214.294
 10
12.14
 20
214.294
  0
HATCH
  5
33
330
17
100
AcDbEntity
  8
RASTER
 62
7
100
AcDbHatch
 10
0.0
 20
0.0
 30
0.0
210
0.0
220
0.0
230
1.0
  2
SOLID
 70
1
 71
0
 91
1
 92
3
 72
0
 73
1
 93
4
 10
7.7
 20
218.404
 10
11.5
 20
218.404
 10
11.5
 20
212.304
 10
7.7
 20
212.304
 97
0
 75
0
 76
1
 98
0
  0
HATCH
  5
34
330
17
100
AcDbEntity
  8
RASTER
 62
7
100
AcDbHatch
 10
0.0
 20
0.0
 30
0.0
210
0.0
220
0.0
230
1.0
  2
SOLID
 70
1
 71
0
 91
1
 92
3
 72
0
 73
1
 93
4
 10
63.701
 20
218.404
 10
67.501
 20
218.404
 10
67.501
 20
212.304
 10
63.701
 20
212.304
 97
0
 75
0
 76
1
 98
0
  0
HATCH
  5
35
330
17
100
AcDbEntity
  8
RASTER
 62
7
100
AcDbHatch
 10
0.0
 20
0.0
 30
0.0
210
0.0
220
0.0
230
1.0
  2
SOLID
 70
1
 71
0
 91
1
 92
3
 72
0
 73
1
 93
48
 10
14.2
 20
218.054
 10
14.196
 20
217.989
 10
14.183
 20
217.925
 10
14.162
 20
217.863
 10
14.133
 20
217.804
 10
14.097
 20
217.75
 10
14.054
 20
217.7
 10
14.004
 20
217.657
 10
13.95
 20
217.621
 10
13.891
 20
217.592
 10
13.829
 20
217.571
 10
13.765
 20
217.558
 10
13.7
 20
217.554
 10
13.635
 20
217.558
 10
13.571
 20
217.571
 10
13.509
 20
217.592
 10
13.45
 20
217.621
 10
13.396
 20
217.657
 10
13.346
 20
217.7
 10
13.303
 20
217.75
 10
13.267
 20
217.804
 10
13.238
 20
217.863
 10
13.217
 20
217.925
 10
13.204
 20
217.989
 10
13.2
 20
218.054
 10
13.204
 20
218.119
 10
13.217
 20
218.183
 10
13.238
 20
218.245
 10
13.267
 20
218.304
 10
13.303
 20
218.358
 10
13.346
 20
218.408
 10
13.396
 20
218.451
 10
13.45
 20
218.487
 10
13.509
 20
218.516
 10
13.571
 20
218.537
 10
13.635
 20
218.55
 10
13.7
 20
218.554
 10
13.765
 20
218.55
 10
13.829
 20
218.537
 10
13.891
 20
218.516
 10
13.95
 20
218.487
 10
14.004
 20
218.451
 10
14.054
 20
218.408
 10
14.097
 20
218.358
 10
14.133
 20
218.304
 10
14.162
 20
218.245
 10
14.183
 20
218.183
 10
14.196
 20
218.119
 97
0
 75
0
 76
1
 98
0
  0
HATCH
  5
36
330
17
100
AcDbEntity
  8
RASTER
 62
7
100
AcDbHatch
 10
0.0
 20
0.0
 30
0.0
210
0.0
220
0.0
230
1.0
  2
SOLID
 70
1
 71
0
 91
1
 92
3
 72
0
 73
1
 93
48
 10
62.001
 20
218.054
 10
61.997
 20
217.989
 10
61.984
 20
217.925
 10
61.963
 20
217.863
 10
61.934
 20
217.804
 10
61.898
 20
217.75
 10
61.855
 20
217.7
 10
61.805
 20
217.657
 10
61.751
 20
217.621
 10
61.692
 20
217.592
 10
61.63
 20
217.571
 10
61.566
 20
217.558
 10
61.501
 20
217.554
 10
61.436
 20
217.558
 10
61.372
 20
217.571
 10
61.31
 20
217.592
 10
61.251
 20
217.621
 10
61.197
 20
217.657
 10
61.147
 20
217.7
 10
61.104
 20
217.75
 10
61.068
 20
217.804
 10
61.039
 20
217.863
 10
61.018
 20
217.925
 10
61.005
 20
217.989
 10
61.001
 20
218.054
 10
61.005
 20
218.119
 10
61.018
 20
218.183
 10
61.039
 20
218.245
 10
61.068
 20
218.304
 10
61.104
 20
218.358
 10
61.147
 20
218.408
 10
61.197
 20
218.451
 10
61.251
 20
218.487
 10
61.31
 20
218.516
 10
61.372
 20
218.537
 10
61.436
 20
218.55
 10
61.501
 20
218.554
 10
61.566
 20
218.55
 10
61.63
 20
218.537
 10
61.692
 20
218.516
 10
61.751
 20
218.487
 10
61.805
 20
218.451
 10
61.855
 20
218.408
 10
61.898
 20
218.358
 10
61.934
 20
218.304
 10
61.963
 20
218.245
 10
61.984
 20
218.183
 10
61.997
 20
218.119
 97
0
 75
0
 76
1
 98
0
  0
HATCH
  5
37
330
17
100
AcDbEntity
  8
RASTER
 62
7
100
AcDbHatch
 10
0.0
 20
0.0
 30
0.0
210
0.0
220
0.0
230
1.0
  2
SOLID
 70
1
 71
0
 91
1
 92
3
 72
0
 73
1
 93
48
 10
14.2
 20
212.654
 10
14.196
 20
212.589
 10
14.183
 20
212.525
 10
14.162
 20
212.463
 10
14.133
 20
212.404
 10
14.097
 20
212.35
 10
14.054
 20
212.3
 10
14.004
 20
212.257
 10
13.95
 20
212.221
 10
13.891
 20
212.192
 10
13.829
 20
212.171
 10
13.765
 20
212.158
 10
13.7
 20
212.154
 10
13.635
 20
212.158
 10
13.571
 20
212.171
 10
13.509
 20
212.192
 10
13.45
 20
212.221
 10
13.396
 20
212.257
 10
13.346
 20
212.3
 10
13.303
 20
212.35
 10
13.267
 20
212.404
 10
13.238
 20
212.463
 10
13.217
 20
212.525
 10
13.204
 20
212.589
 10
13.2
 20
212.654
 10
13.204
 20
212.719
 10
13.217
 20
212.783
 10
13.238
 20
212.845
 10
13.267
 20
212.904
 10
13.303
 20
212.958
 10
13.346
 20
213.008
 10
13.396
 20
213.051
 10
13.45
 20
213.087
 10
13.509
 20
213.116
 10
13.571
 20
213.137
 10
13.635
 20
213.15
 10
13.7
 20
213.154
 10
13.765
 20
213.15
 10
13.829
 20
213.137
 10
13.891
 20
213.116
 10
13.95
 20
213.087
 10
14.004
 20
213.051
 10
14.054
 20
213.008
 10
14.097
 20
212.958
 10
14.133
 20
212.904
 10
14.162
 20
212.845
 10
14.183
 20
212.783
 10
14.196
 20
212.719
 97
0
 75
0
 76
1
 98
0
  0
HATCH
  5
38
330
17
100
AcDbEntity
  8
RASTER
 62
7
100
AcDbHatch
 10
0.0
 20
0.0
 30
0.0
210
0.0
220
0.0
230
1.0
  2
SOLID
 70
1
 71
0
 91
1
 92
3
 72
0
 73
1
 93
48
 10
62.001
 20
212.654
 10
61.997
 20
212.589
 10
61.984
 20
212.525
 10
61.963
 20
212.463
 10
61.934
 20
212.404
 10
61.898
 20
212.35
 10
61.855
 20
212.3
 10
61.805
 20
212.257
 10
61.751
 20
212.221
 10
61.692
 20
212.192
 10
61.63
 20
212.171
 10
61.566
 20
212.158
 10
61.501
 20
212.154
 10
61.436
 20
212.158
 10
61.372
 20
212.171
 10
61.31
 20
212.192
 10
61.251
 20
212.221
 10
61.197
 20
212.257
 10
61.147
 20
212.3
 10
61.104
 20
212.35
 10
61.068
 20
212.404
 10
61.039
 20
212.463
 10
61.018
 20
212.525
 10
61.005
 20
212.589
 10
61.001
 20
212.654
 10
61.005
 20
212.719
 10
61.018
 20
212.783
 10
61.039
 20
212.845
 10
61.068
 20
212.904
 10
61.104
 20
212.958
 10
61.147
 20
213.008
 10
61.197
 20
213.051
 10
61.251
 20
213.087
 10
61.31
 20
213.116
 10
61.372
 20
213.137
 10
61.436
 20
213.15
 10
61.501
 20
213.154
 10
61.566
 20
213.15
 10
61.63
 20
213.137
 10
61.692
 20
213.116
 10
61.751
 20
213.087
 10
61.805
 20
213.051
 10
61.855
 20
213.008
 10
61.898
 20
212.958
 10
61.934
 20
212.904
 10
61.963
 20
212.845
 10
61.984
 20
212.783
 10
61.997
 20
212.719
 97
0
 75
0
 76
1
 98
0
  0
LWPOLYLINE
  5
39
330
17
100
AcDbEntity
  8
CUT
100
AcDbPolyline
 90
36
 70
1
 10
78.301
 20
218.844
 10
139.302
 20
218.844
 10
142.442
 20
218.844
 10
142.442
 20
216.464
 10
139.342
 20
216.464
 10
139.342
 20
214.244
 10
142.442
 20
214.244
 10
142.442
 20
211.864
 10
139.302
 20
211.864
 10
133.796
 20
211.864
 10
133.796
 20
208.764
 10
128.171
 20
208.764
 10
128.171
 20
211.864
 10
122.705
 20
211.864
 10
122.705
 20
208.764
 10
117.08
 20
208.764
 10
117.08
 20
211.864
 10
111.614
 20
211.864
 10
111.614
 20
208.764
 10
105.989
 20
208.764
 10
105.989
 20
211.864
 10
100.523
 20
211.864
 10
100.523
 20
208.764
 10
94.898
 20
208.764
 10
94.898
 20
211.864
 10
89.432
 20
211.864
 10
89.432
 20
208.764
 10
83.807
 20
208.764
 10
83.807
 20
211.864
 10
78.301
 20
211.864
 10
75.161
 20
211.864
 10
75.161
 20
214.244
 10
78.261
 20
214.244
 10
78.261
 20
216.464
 10
75.161
 20
216.464
 10
75.161
 20
218.844
  0
LWPOLYLINE
  5
3A
330
17
100
AcDbEntity
  8
CUT
100
AcDbPolyline
 90
4
 70
1
 10
83.341
 20
216.414
 10
134.262
 20
216.414
 10
134.262
 20
214.294
 10
83.341
 20
214.294
  0
HATCH
  5
3B
330
17
100
AcDbEntity
  8
RASTER
 62
7
100
AcDbHatch
 10
0.0
 20
0.0
 30
0.0
210
0.0
220
0.0
230
1.0
  2
SOLID
 70
1
 71
0
 91
1
 92
3
 72
0
 73
1
 93
4
 10
78.901
 20
218.404
 10
82.701
 20
218.404
 10
82.701
 20
212.304
 10
78.901
 20
212.304
 97
0
 75
0
 76
1
 98
0
  0
HATCH
  5
3C
330
17
100
AcDbEntity
  8
RASTER
 62
7
100
AcDbHatch
 10
0.0
 20
0.0
 30
0.0
210
0.0
220
0.0
230
1.0
  2
SOLID
 70
1
 71
0
 91
1
 92
3
 72
0
 73
1
 93
4
 10
134.902
 20
218.404
 10
138.702
 20
218.404
 10
138.702
 20
212.304
 10
134.902
 20
212.304
 97
0
 75
0
 76
1
 98
0
  0
HATCH
  5
3D
330
17
100
AcDbEntity
  8
RASTER
 62
7
100
AcDbHatch
 10
0.0
 20
0.0
 30
0.0
210
0.0
220
0.0
230
1.0
  2
SOLID
 70
1
 71
0
 91
1
 92
3
 72
0
 73
1
 93
48
 10
85.401
 20
218.054
 10
85.397
 20
217.989
 10
85.384
 20
217.925
 10
85.363
 20
217.863
 10
85.334
 20
217.804
 10
85.298
 20
217.75
 10
85.255
 20
217.7
 10
85.205
 20
217.657
 10
85.151
 20
217.621
 10
85.092
 20
217.592
 10
85.03
 20
217.571
 10
84.966
 20
217.558
 10
84.901
 20
217.554
 10
84.836
 20
217.558
 10
84.772
 20
217.571
 10
84.71
 20
217.592
 10
84.651
 20
217.621
 10
84.597
 20
217.657
 10
84.547
 20
217.7
 10
84.504
 20
217.75
 10
84.468
 20
217.804
 10
84.439
 20
217.863
 10
84.418
 20
217.925
 10
84.405
 20
217.989
 10
84.401
 20
218.054
 10
84.405
 20
218.119
 10
84.418
 20
218.183
 10
84.439
 20
218.245
 10
84.468
 20
218.304
 10
84.504
 20
218.358
 10
84.547
 20
218.408
 10
84.597
 20
218.451
 10
84.651
 20
218.487
 10
84.71
 20
218.516
 10
84.772
 20
218.537
 10
84.836
 20
218.55
 10
84.901
 20
218.554
 10
84.966
 20
218.55
 10
85.03
 20
218.537
 10
85.092
 20
218.516
 10
85.151
 20
218.487
 10
85.205
 20
218.451
 10
85.255
 20
218.408
 10
85.298
 20
218.358
 10
85.334
 20
218.304
 10
85.363
 20
218.245
 10
85.384
 20
218.183
 10
85.397
 20
218.119
 97
0
 75
0
 76
1
 98
0
  0
HATCH
  5
3E
330
17
100
AcDbEntity
  8
RASTER
 62
7
100
AcDbHatch
 10
0.0
 20
0.0
 30
0.0
210
0.0
220
0.0
230
1.0
  2
SOLID
 70
1
 71
0
 91
1
 92
3
 72
0
 73
1
 93
48
 10
133.202
 20
218.054
 10
133.198
 20
217.989
 10
133.185
 20
217.925
 10
133.164
 20
217.863
 10
133.135
 20
217.804
 10
133.099
 20
217.75
 10
133.056
 20
217.7
 10
133.006
 20
217.657
 10
132.952
 20
217.621
 10
132.893
 20
217.592
 10
132.831
 20
217.571
 10
132.767
 20
217.558
 10
132.702
 20
217.554
 10
132.637
 20
217.558
 10
132.573
 20
217.571
 10
132.511
 20
217.592
 10
132.452
 20
217.621
 10
132.398
 20
217.657
 10
132.348
 20
217.7
 10
132.305
 20
217.75
 10
132.269
 20
217.804
 10
132.24
 20
217.863
 10
132.219
 20
217.925
 10
132.206
 20
217.989
 10
132.202
 20
218.054
 10
132.206
 20
218.119
 10
132.219
 20
218.183
 10
132.24
 20
218.245
 10
132.269
 20
218.304
 10
132.305
 20
218.358
 10
132.348
 20
218.408
 10
132.398
 20
218.451
 10
132.452
 20
218.487
 10
132.511
 20
218.516
 10
132.573
 20
218.537
 10
132.637
 20
218.55
 10
132.702
 20
218.554
 10
132.767
 20
218.55
 10
132.831
 20
218.537
 10
132.893
 20
218.516
 10
132.952
 20
218.487
 10
133.006
 20
218.451
 10
133.056
 20
218.408
 10
133.099
 20
218.358
 10
133.135
 20
218.304
 10
133.164
 20
218.245
 10
133.185
 20
218.183
 10
133.198
 20
218.119
 97
0
 75
0
 76
1
 98
0
  0
HATCH
  5
3F
330
17
100
AcDbEntity
  8
RASTER
 62
7
100
AcDbHatch
 10
0.0
 20
0.0
 30
0.0
210
0.0
220
0.0
230
1.0
  2
SOLID
 70
1
 71
0
 91
1
 92
3
 72
0
 73
1
 93
48
 10
85.401
 20
212.654
 10
85.397
 20
212.589
 10
85.384
 20
212.525
 10
85.363
 20
212.463
 10
85.334
 20
212.404
 10
85.298
 20
212.35
 10
85.255
 20
212.3
 10
85.205
 20
212.257
 10
85.151
 20
212.221
 10
85.092
 20
212.192
 10
85.03
 20
212.171
 10
84.966
 20
212.158
 10
84.901
 20
212.154
 10
84.836
 20
212.158
 10
84.772
 20
212.171
 10
84.71
 20
212.192
 10
84.651
 20
212.221
 10
84.597
 20
212.257
 10
84.547
 20
212.3
 10
84.504
 20
212.35
 10
84.468
 20
212.404
 10
84.439
 20
212.463
 10
84.418
 20
212.525
 10
84.405
 20
212.589
 10
84.401
 20
212.654
 10
84.405
 20
212.719
 10
84.418
 20
212.783
 10
84.439
 20
212.845
 10
84.468
 20
212.904
 10
84.504
 20
212.958
 10
84.547
 20
213.008
 10
84.597
 20
213.051
 10
84.651
 20
213.087
 10
84.71
 20
213.116
 10
84.772
 20
213.137
 10
84.836
 20
213.15
 10
84.901
 20
213.154
 10
84.966
 20
213.15
 10
85.03
 20
213.137
 10
85.092
 20
213.116
 10
85.151
 20
213.087
 10
85.205
 20
213.051
 10
85.255
 20
213.008
 10
85.298
 20
212.958
 10
85.334
 20
212.904
 10
85.363
 20
212.845
 10
85.384
 20
212.783
 10
85.397
 20
212.719
 97
0
 75
0
 76
1
 98
0
  0
HATCH
  5
40
330
17
100
AcDbEntity
  8
RASTER
 62
7
100
AcDbHatch
 10
0.0
 20
0.0
 30
0.0
210
0.0
220
0.0
230
1.0
  2
SOLID
 70
1
 71
0
 91
1
 92
3
 72
0
 73
1
 93
48
 10
133.202
 20
212.654
 10
133.198
 20
212.589
 10
133.185
 20
212.525
 10
133.164
 20
212.463
 10
133.135
 20
212.404
 10
133.099
 20
212.35
 10
133.056
 20
212.3
 10
133.006
 20
212.257
 10
132.952
 20
212.221
 10
132.893
 20
212.192
 10
132.831
 20
212.171
 10
132.767
 20
212.158
 10
132.702
 20
212.154
 10
132.637
 20
212.158
 10
132.573
 20
212.171
 10
132.511
 20
212.192
 10
132.452
 20
212.221
 10
132.398
 20
212.257
 10
132.348
 20
212.3
 10
132.305
 20
212.35
 10
132.269
 20
212.404
 10
132.24
 20
212.463
 10
132.219
 20
212.525
 10
132.206
 20
212.589
 10
132.202
 20
212.654
 10
132.206
 20
212.719
 10
132.219
 20
212.783
 10
132.24
 20
212.845
 10
132.269
 20
212.904
 10
132.305
 20
212.958
 10
132.348
 20
213.008
 10
132.398
 20
213.051
 10
132.452
 20
213.087
 10
132.511
 20
213.116
 10
132.573
 20
213.137
 10
132.637
 20
213.15
 10
132.702
 20
213.154
 10
132.767
 20
213.15
 10
132.831
 20
213.137
 10
132.893
 20
213.116
 10
132.952
 20
213.087
 10
133.006
 20
213.051
 10
133.056
 20
213.008
 10
133.099
 20
212.958
 10
133.135
 20
212.904
 10
133.164
 20
212.845
 10
133.185
 20
212.783
 10
133.198
 20
212.719
 97
0
 75
0
 76
1
 98
0
  0
LWPOLYLINE
  5
41
330
17
100
AcDbEntity
  8
CUT
100
AcDbPolyline
 90
24
 70
1
 10
149.462
 20
218.844
 10
190.543
 20
218.844
 10
190.543
 20
216.544
 10
193.643
 20
216.544
 10
193.643
 20
214.164
 10
190.543
 20
214.164
 10
190.543
 20
211.864
 10
184.686
 20
211.864
 10
184.686
 20
208.764
 10
178.748
 20
208.764
 10
178.748
 20
211.864
 10
172.971
 20
211.864
 10
172.971
 20
208.764
 10
167.034
 20
208.764
 10
167.034
 20
211.864
 10
161.257
 20
211.864
 10
161.257
 20
208.764
 10
155.319
 20
208.764
 10
155.319
 20
211.864
 10
149.462
 20
211.864
 10
149.462
 20
214.164
 10
146.362
 20
214.164
 10
146.362
 20
216.544
 10
149.462
 20
216.544
  0
LWPOLYLINE
  5
42
330
17
100
AcDbEntity
  8
CUT
100
AcDbPolyline
 90
4
 70
1
 10
154.542
 20
216.414
 10
185.463
 20
216.414
 10
185.463
 20
214.294
 10
154.542
 20
214.294
  0
HATCH
  5
43
330
17
100
AcDbEntity
  8
RASTER
 62
7
100
AcDbHatch
 10
0.0
 20
0.0
 30
0.0
210
0.0
220
0.0
230
1.0
  2
SOLID
 70
1
 71
0
 91
1
 92
3
 72
0
 73
1
 93
4
 10
150.102
 20
218.404
 10
153.902
 20
218.404
 10
153.902
 20
212.304
 10
150.102
 20
212.304
 97
0
 75
0
 76
1
 98
0
  0
HATCH
  5
44
330
17
100
AcDbEntity
  8
RASTER
 62
7
100
AcDbHatch
 10
0.0
 20
0.0
 30
0.0
210
0.0
220
0.0
230
1.0
  2
SOLID
 70
1
 71
0
 91
1
 92
3
 72
0
 73
1
 93
4
 10
186.103
 20
218.404
 10
189.903
 20
218.404
 10
189.903
 20
212.304
 10
186.103
 20
212.304
 97
0
 75
0
 76
1
 98
0
  0
HATCH
  5
45
330
17
100
AcDbEntity
  8
RASTER
 62
7
100
AcDbHatch
 10
0.0
 20
0.0
 30
0.0
210
0.0
220
0.0
230
1.0
  2
SOLID
 70
1
 71
0
 91
1
 92
3
 72
0
 73
1
 93
48
 10
156.602
 20
218.054
 10
156.598
 20
217.989
 10
156.585
 20
217.925
 10
156.564
 20
217.863
 10
156.535
 20
217.804
 10
156.499
 20
217.75
 10
156.456
 20
217.7
 10
156.406
 20
217.657
 10
156.352
 20
217.621
 10
156.293
 20
217.592
 10
156.231
 20
217.571
 10
156.167
 20
217.558
 10
156.102
 20
217.554
 10
156.037
 20
217.558
 10
155.973
 20
217.571
 10
155.911
 20
217.592
 10
155.852
 20
217.621
 10
155.798
 20
217.657
 10
155.748
 20
217.7
 10
155.705
 20
217.75
 10
155.669
 20
217.804
 10
155.64
 20
217.863
 10
155.619
 20
217.925
 10
155.606
 20
217.989
 10
155.602
 20
218.054
 10
155.606
 20
218.119
 10
155.619
 20
218.183
 10
155.64
 20
218.245
 10
155.669
 20
218.304
 10
155.705
 20
218.358
 10
155.748
 20
218.408
 10
155.798
 20
218.451
 10
155.852
 20
218.487
 10
155.911
 20
218.516
 10
155.973
 20
218.537
 10
156.037
 20
218.55
 10
156.102
 20
218.554
 10
156.167
 20
218.55
 10
156.231
 20
218.537
 10
156.293
 20
218.516
 10
156.352
 20
218.487
 10
156.406
 20
218.451
 10
156.456
 20
218.408
 10
156.499
 20
218.358
 10
156.535
 20
218.304
 10
156.564
 20
218.245
 10
156.585
 20
218.183
 10
156.598
 20
218.119
 97
0
 75
0
 76
1
 98
0
  0
HATCH
  5
46
330
17
100
AcDbEntity
  8
RASTER
 62
7
100
AcDbHatch
 10
0.0
 20
0.0
 30
0.0
210
0.0
220
0.0
230
1.0
  2
SOLID
 70
1
 71
0
 91
1
 92
3
 72
0
 73
1
 93
48
 10
184.403
 20
218.054
 10
184.399
 20
217.989
 10
184.386
 20
217.925
 10
184.365
 20
217.863
 10
184.336
 20
217.804
 10
184.3
 20
217.75
 10
184.257
 20
217.7
 10
184.207
 20
217.657
 10
184.153
 20
217.621
 10
184.094
 20
217.592
 10
184.032
 20
217.571
 10
183.968
 20
217.558
 10
183.903
 20
217.554
 10
183.838
 20
217.558
 10
183.774
 20
217.571
 10
183.712
 20
217.592
 10
183.653
 20
217.621
 10
183.599
 20
217.657
 10
183.549
 20
217.7
 10
183.506
 20
217.75
 10
183.47
 20
217.804
 10
183.441
 20
217.863
 10
183.42
 20
217.925
 10
183.407
 20
217.989
 10
183.403
 20
218.054
 10
183.407
 20
218.119
 10
183.42
 20
218.183
 10
183.441
 20
218.245
 10
183.47
 20
218.304
 10
183.506
 20
218.358
 10
183.549
 20
218.408
 10
183.599
 20
218.451
 10
183.653
 20
218.487
 10
183.712
 20
218.516
 10
183.774
 20
218.537
 10
183.838
 20
218.55
 10
183.903
 20
218.554
 10
183.968
 20
218.55
 10
184.032
 20
218.537
 10
184.094
 20
218.516
 10
184.153
 20
218.487
 10
184.207
 20
218.451
 10
184.257
 20
218.408
 10
184.3
 20
218.358
 10
184.336
 20
218.304
 10
184.365
 20
218.245
 10
184.386
 20
218.183
 10
184.399
 20
218.119
 97
0
 75
0
 76
1
 98
0
  0
HATCH
  5
47
330
17
100
AcDbEntity
  8
RASTER
 62
7
100
AcDbHatch
 10
0.0
 20
0.0
 30
0.0
210
0.0
220
0.0
230
1.0
  2
SOLID
 70
1
 71
0
 91
1
 92
3
 72
0
 73
1
 93
48
 10
156.602
 20
212.654
 10
156.598
 20
212.589
 10
156.585
 20
212.525
 10
156.564
 20
212.463
 10
156.535
 20
212.404
 10
156.499
 20
212.35
 10
156.456
 20
212.3
 10
156.406
 20
212.257
 10
156.352
 20
212.221
 10
156.293
 20
212.192
 10
156.231
 20
212.171
 10
156.167
 20
212.158
 10
156.102
 20
212.154
 10
156.037
 20
212.158
 10
155.973
 20
212.171
 10
155.911
 20
212.192
 10
155.852
 20
212.221
 10
155.798
 20
212.257
 10
155.748
 20
212.3
 10
155.705
 20
212.35
 10
155.669
 20
212.404
 10
155.64
 20
212.463
 10
155.619
 20
212.525
 10
155.606
 20
212.589
 10
155.602
 20
212.654
 10
155.606
 20
212.719
 10
155.619
 20
212.783
 10
155.64
 20
212.845
 10
155.669
 20
212.904
 10
155.705
 20
212.958
 10
155.748
 20
213.008
 10
155.798
 20
213.051
 10
155.852
 20
213.087
 10
155.911
 20
213.116
 10
155.973
 20
213.137
 10
156.037
 20
213.15
 10
156.102
 20
213.154
 10
156.167
 20
213.15
 10
156.231
 20
213.137
 10
156.293
 20
213.116
 10
156.352
 20
213.087
 10
156.406
 20
213.051
 10
156.456
 20
213.008
 10
156.499
 20
212.958
 10
156.535
 20
212.904
 10
156.564
 20
212.845
 10
156.585
 20
212.783
 10
156.598
 20
212.719
 97
0
 75
0
 76
1
 98
0
  0
HATCH
  5
48
330
17
100
AcDbEntity
  8
RASTER
 62
7
100
AcDbHatch
 10
0.0
 20
0.0
 30
0.0
210
0.0
220
0.0
230
1.0
  2
SOLID
 70
1
 71
0
 91
1
 92
3
 72
0
 73
1
 93
48
 10
184.403
 20
212.654
 10
184.399
 20
212.589
 10
184.386
 20
212.525
 10
184.365
 20
212.463
 10
184.336
 20
212.404
 10
184.3
 20
212.35
 10
184.257
 20
212.3
 10
184.207
 20
212.257
 10
184.153
 20
212.221
 10
184.094
 20
212.192
 10
184.032
 20
212.171
 10
183.968
 20
212.158
 10
183.903
 20
212.154
 10
183.838
 20
212.158
 10
183.774
 20
212.171
 10
183.712
 20
212.192
 10
183.653
 20
212.221
 10
183.599
 20
212.257
 10
183.549
 20
212.3
 10
183.506
 20
212.35
 10
183.47
 20
212.404
 10
183.441
 20
212.463
 10
183.42
 20
212.525
 10
183.407
 20
212.589
 10
183.403
 20
212.654
 10
183.407
 20
212.719
 10
183.42
 20
212.783
 10
183.441
 20
212.845
 10
183.47
 20
212.904
 10
183.506
 20
212.958
 10
183.549
 20
213.008
 10
183.599
 20
213.051
 10
183.653
 20
213.087
 10
183.712
 20
213.116
 10
183.774
 20
213.137
 10
183.838
 20
213.15
 10
183.903
 20
213.154
 10
183.968
 20
213.15
 10
184.032
 20
213.137
 10
184.094
 20
213.116
 10
184.153
 20
213.087
 10
184.207
 20
213.051
 10
184.257
 20
213.008
 10
184.3
 20
212.958
 10
184.336
 20
212.904
 10
184.365
 20
212.845
 10
184.386
 20
212.783
 10
184.399
 20
212.719
 97
0
 75
0
 76
1
 98
0
  0
LWPOLYLINE
  5
49
330
17
100
AcDbEntity
  8
CUT
100
AcDbPolyline
 90
24
 70
1
 10
200.663
 20
218.844
 10
241.744
 20
218.844
 10
241.744
 20
216.544
 10
244.844
 20
216.544
 10
244.844
 20
214.164
 10
241.744
 20
214.164
 10
241.744
 20
211.864
 10
235.887
 20
211.864
 10
235.887
 20
208.764
 10
229.949
 20
208.764
 10
229.949
 20
211.864
 10
224.172
 20
211.864
 10
224.172
 20
208.764
 10
218.235
 20
208.764
 10
218.235
 20
211.864
 10
212.458
 20
211.864
 10
212.458
 20
208.764
 10
206.52
 20
208.764
 10
206.52
 20
211.864
 10
200.663
 20
211.864
 10
200.663
 20
214.164
 10
197.563
 20
214.164
 10
197.563
 20
216.544
 10
200.663
 20
216.544
  0
LWPOLYLINE
  5
4A
330
17
100
AcDbEntity
  8
CUT
100
AcDbPolyline
 90
4
 70
1
 10
205.743
 20
216.414
 10
236.664
 20
216.414
 10
236.664
 20
214.294
 10
205.743
 20
214.294
  0
HATCH
  5
4B
330
17
100
AcDbEntity
  8
RASTER
 62
7
100
AcDbHatch
 10
0.0
 20
0.0
 30
0.0
210
0.0
220
0.0
230
1.0
  2
SOLID
 70
1
 71
0
 91
1
 92
3
 72
0
 73
1
 93
4
 10
201.303
 20
218.404
 10
205.103
 20
218.404
 10
205.103
 20
212.304
 10
201.303
 20
212.304
 97
0
 75
0
 76
1
 98
0
  0
HATCH
  5
4C
330
17
100
AcDbEntity
  8
RASTER
 62
7
100
AcDbHatch
 10
0.0
 20
0.0
 30
0.0
210
0.0
220
0.0
230
1.0
  2
SOLID
 70
1
 71
0
 91
1
 92
3
 72
0
 73
1
 93
4
 10
237.304
 20
218.404
 10
241.104
 20
218.404
 10
241.104
 20
212.304
 10
237.304
 20
212.304
 97
0
 75
0
 76
1
 98
0
  0
HATCH
  5
4D
330
17
100
AcDbEntity
  8
RASTER
 62
7
100
AcDbHatch
 10
0.0
 20
0.0
 30
0.0
210
0.0
220
0.0
230
1.0
  2
SOLID
 70
1
 71
0
 91
1
 92
3
 72
0
 73
1
 93
48
 10
207.803
 20
218.054
 10
207.799
 20
217.989
 10
207.786
 20
217.925
 10
207.765
 20
217.863
 10
207.736
 20
217.804
 10
207.7
 20
217.75
 10
207.657
 20
217.7
 10
207.607
 20
217.657
 10
207.553
 20
217.621
 10
207.494
 20
217.592
 10
207.432
 20
217.571
 10
207.368
 20
217.558
 10
207.303
 20
217.554
 10
207.238
 20
217.558
 10
207.174
 20
217.571
 10
207.112
 20
217.592
 10
207.053
 20
217.621
 10
206.999
 20
217.657
 10
206.949
 20
217.7
 10
206.906
 20
217.75
 10
206.87
 20
217.804
 10
206.841
 20
217.863
 10
206.82
 20
217.925
 10
206.807
 20
217.989
 10
206.803
 20
218.054
 10
206.807
 20
218.119
 10
206.82
 20
218.183
 10
206.841
 20
218.245
 10
206.87
 20
218.304
 10
206.906
 20
218.358
 10
206.949
 20
218.408
 10
206.999
 20
218.451
 10
207.053
 20
218.487
 10
207.112
 20
218.516
 10
207.174
 20
218.537
 10
207.238
 20
218.55
 10
207.303
 20
218.554
 10
207.368
 20
218.55
 10
207.432
 20
218.537
 10
207.494
 20
218.516
 10
207.553
 20
218.487
 10
207.607
 20
218.451
 10
207.657
 20
218.408
 10
207.7
 20
218.358
 10
207.736
 20
218.304
 10
207.765
 20
218.245
 10
207.786
 20
218.183
 10
207.799
 20
218.119
 97
0
 75
0
 76
1
 98
0
  0
HATCH
  5
4E
330
17
100
AcDbEntity
  8
RASTER
 62
7
100
AcDbHatch
 10
0.0
 20
0.0
 30
0.0
210
0.0
220
0.0
230
1.0
  2
SOLID
 70
1
 71
0
 91
1
 92
3
 72
0
 73
1
 93
48
 10
235.604
 20
218.054
 10
235.6
 20
217.989
 10
235.587
 20
217.925
 10
235.566
 20
217.863
 10
235.537
 20
217.804
 10
235.501
 20
217.75
 10
235.458
 20
217.7
 10
235.408
 20
217.657
 10
235.354
 20
217.621
 10
235.295
 20
217.592
 10
235.233
 20
217.571
 10
235.169
 20
217.558
 10
235.104
 20
217.554
 10
235.039
 20
217.558
 10
234.975
 20
217.571
 10
234.913
 20
217.592
 10
234.854
 20
217.621
 10
234.8
 20
217.657
 10
234.75
 20
217.7
 10
234.707
 20
217.75
 10
234.671
 20
217.804
 10
234.642
 20
217.863
 10
234.621
 20
217.925
 10
234.608
 20
217.989
 10
234.604
 20
218.054
 10
234.608
 20
218.119
 10
234.621
 20
218.183
 10
234.642
 20
218.245
 10
234.671
 20
218.304
 10
234.707
 20
218.358
 10
234.75
 20
218.408
 10
234.8
 20
218.451
 10
234.854
 20
218.487
 10
234.913
 20
218.516
 10
234.975
 20
218.537
 10
235.039
 20
218.55
 10
235.104
 20
218.554
 10
235.169
 20
218.55
 10
235.233
 20
218.537
 10
235.295
 20
218.516
 10
235.354
 20
218.487
 10
235.408
 20
218.451
 10
235.458
 20
218.408
 10
235.501
 20
218.358
 10
235.537
 20
218.304
 10
235.566
 20
218.245
 10
235.587
 20
218.183
 10
235.6
 20
218.119
 97
0
 75
0
 76
1
 98
0
  0
HATCH
  5
4F
330
17
100
AcDbEntity
  8
RASTER
 62
7
100
AcDbHatch
 10
0.0
 20
0.0
 30
0.0
210
0.0
220
0.0
230
1.0
  2
SOLID
 70
1
 71
0
 91
1
 92
3
 72
0
 73
1
 93
48
 10
207.803
 20
212.654
 10
207.799
 20
212.589
 10
207.786
 20
212.525
 10
207.765
 20
212.463
 10
207.736
 20
212.404
 10
207.7
 20
212.35
 10
207.657
 20
212.3
 10
207.607
 20
212.257
 10
207.553
 20
212.221
 10
207.494
 20
212.192
 10
207.432
 20
212.171
 10
207.368
 20
212.158
 10
207.303
 20
212.154
 10
207.238
 20
212.158
 10
207.174
 20
212.171
 10
207.112
 20
212.192
 10
207.053
 20
212.221
 10
206.999
 20
212.257
 10
206.949
 20
212.3
 10
206.906
 20
212.35
 10
206.87
 20
212.404
 10
206.841
 20
212.463
 10
206.82
 20
212.525
 10
206.807
 20
212.589
 10
206.803
 20
212.654
 10
206.807
 20
212.719
 10
206.82
 20
212.783
 10
206.841
 20
212.845
 10
206.87
 20
212.904
 10
206.906
 20
212.958
 10
206.949
 20
213.008
 10
206.999
 20
213.051
 10
207.053
 20
213.087
 10
207.112
 20
213.116
 10
207.174
 20
213.137
 10
207.238
 20
213.15
 10
207.303
 20
213.154
 10
207.368
 20
213.15
 10
207.432
 20
213.137
 10
207.494
 20
213.116
 10
207.553
 20
213.087
 10
207.607
 20
213.051
 10
207.657
 20
213.008
 10
207.7
 20
212.958
 10
207.736
 20
212.904
 10
207.765
 20
212.845
 10
207.786
 20
212.783
 10
207.799
 20
212.719
 97
0
 75
0
 76
1
 98
0
  0
HATCH
  5
50
330
17
100
AcDbEntity
  8
RASTER
 62
7
100
AcDbHatch
 10
0.0
 20
0.0
 30
0.0
210
0.0
220
0.0
230
1.0
  2
SOLID
 70
1
 71
0
 91
1
 92
3
 72
0
 73
1
 93
48
 10
235.604
 20
212.654
 10
235.6
 20
212.589
 10
235.587
 20
212.525
 10
235.566
 20
212.463
 10
235.537
 20
212.404
 10
235.501
 20
212.35
 10
235.458
 20
212.3
 10
235.408
 20
212.257
 10
235.354
 20
212.221
 10
235.295
 20
212.192
 10
235.233
 20
212.171
 10
235.169
 20
212.158
 10
235.104
 20
212.154
 10
235.039
 20
212.158
 10
234.975
 20
212.171
 10
234.913
 20
212.192
 10
234.854
 20
212.221
 10
234.8
 20
212.257
 10
234.75
 20
212.3
 10
234.707
 20
212.35
 10
234.671
 20
212.404
 10
234.642
 20
212.463
 10
234.621
 20
212.525
 10
234.608
 20
212.589
 10
234.604
 20
212.654
 10
234.608
 20
212.719
 10
234.621
 20
212.783
 10
234.642
 20
212.845
 10
234.671
 20
212.904
 10
234.707
 20
212.958
 10
234.75
 20
213.008
 10
234.8
 20
213.051
 10
234.854
 20
213.087
 10
234.913
 20
213.116
 10
234.975
 20
213.137
 10
235.039
 20
213.15
 10
235.104
 20
213.154
 10
235.169
 20
213.15
 10
235.233
 20
213.137
 10
235.295
 20
213.116
 10
235.354
 20
213.087
 10
235.408
 20
213.051
 10
235.458
 20
213.008
 10
235.501
 20
212.958
 10
235.537
 20
212.904
 10
235.566
 20
212.845
 10
235.587
 20
212.783
 10
235.6
 20
212.719
 97
0
 75
0
 76
1
 98
0
  0
LWPOLYLINE
  5
51
330
17
100
AcDbEntity
  8
CUT
100
AcDbPolyline
 90
76
 70
1
 10
3.96
 20
204.844
 10
7.1
 20
204.844
 10
12.686
 20
204.844
 10
12.686
 20
201.744
 10
18.151
 20
201.744
 10
18.151
 20
204.844
 10
23.777
 20
204.844
 10
23.777
 20
201.744
 10
29.242
 20
201.744
 10
29.242
 20
204.844
 10
34.868
 20
204.844
 10
34.868
 20
201.744
 10
40.333
 20
201.744
 10
40.333
 20
204.844
 10
45.959
 20
204.844
 10
45.959
 20
201.744
 10
51.424
 20
201.744
 10
51.424
 20
204.844
 10
57.05
 20
204.844
 10
57.05
 20
201.744
 10
62.515
 20
201.744
 10
62.515
 20
204.844
 10
68.101
 20
204.844
 10
71.241
 20
204.844
 10
71.241
 20
201.704
 10
71.241
 20
195.807
 10
68.141
 20
195.807
 10
68.141
 20
190.029
 10
71.241
 20
190.029
 10
71.241
 20
184.092
 10
68.141
 20
184.092
 10
68.141
 20
178.315
 10
71.241
 20
178.315
 10
71.241
 20
172.378
 10
68.141
 20
172.378
 10
68.141
 20
166.6
 10
71.241
 20
166.6
 10
71.241
 20
160.703
 10
71.241
 20
157.563
 10
68.101
 20
157.563
 10
62.515
 20
157.563
 10
62.515
 20
160.663
 10
57.05
 20
160.663
 10
57.05
 20
157.563
 10
51.424
 20
157.563
 10
51.424
 20
160.663
 10
45.959
 20
160.663
 10
45.959
 20
157.563
 10
40.333
 20
157.563
 10
40.333
 20
160.663
 10
34.868
 20
160.663
 10
34.868
 20
157.563
 10
29.242
 20
157.563
 10
29.242
 20
160.663
 10
23.777
 20
160.663
 10
23.777
 20
157.563
 10
18.151
 20
157.563
 10
18.151
 20
160.663
 10
12.686
 20
160.663
 10
12.686
 20
157.563
 10
7.1
 20
157.563
 10
3.96
 20
157.563
 10
3.96
 20
160.703
 10
3.96
 20
166.6
 10
7.06
 20
166.6
 10
7.06
 20
172.378
 10
3.96
 20
172.378
 10
3.96
 20
178.315
 10
7.06
 20
178.315
 10
7.06
 20
184.092
 10
3.96
 20
184.092
 10
3.96
 20
190.029
 10
7.06
 20
190.029
 10
7.06
 20
195.807
 10
3.96
 20
195.807
 10
3.96
 20
201.704
  0
LWPOLYLINE
  5
52
330
17
100
AcDbEntity
  8
CUT
100
AcDbPolyline
 90
36
 70
1
 10
78.301
 20
204.844
 10
139.302
 20
204.844
 10
142.442
 20
204.844
 10
142.442
 20
202.464
 10
139.342
 20
202.464
 10
139.342
 20
200.244
 10
142.442
 20
200.244
 10
142.442
 20
197.864
 10
139.302
 20
197.864
 10
133.796
 20
197.864
 10
133.796
 20
194.764
 10
128.171
 20
194.764
 10
128.171
 20
197.864
 10
122.705
 20
197.864
 10
122.705
 20
194.764
 10
117.08
 20
194.764
 10
117.08
 20
197.864
 10
111.614
 20
197.864
 10
111.614
 20
194.764
 10
105.989
 20
194.764
 10
105.989
 20
197.864
 10
100.523
 20
197.864
 10
100.523
 20
194.764
 10
94.898
 20
194.764
 10
94.898
 20
197.864
 10
89.432
 20
197.864
 10
89.432
 20
194.764
 10
83.807
 20
194.764
 10
83.807
 20
197.864
 10
78.301
 20
197.864
 10
75.161
 20
197.864
 10
75.161
 20
200.244
 10
78.261
 20
200.244
 10
78.261
 20
202.464
 10
75.161
 20
202.464
 10
75.161
 20
204.844
  0
LWPOLYLINE
  5
53
330
17
100
AcDbEntity
  8
CUT
100
AcDbPolyline
 90
4
 70
1
 10
83.341
 20
202.414
 10
134.262
 20
202.414
 10
134.262
 20
200.294
 10
83.341
 20
200.294
  0
HATCH
  5
54
330
17
100
AcDbEntity
  8
RASTER
 62
7
100
AcDbHatch
 10
0.0
 20
0.0
 30
0.0
210
0.0
220
0.0
230
1.0
  2
SOLID
 70
1
 71
0
 91
1
 92
3
 72
0
 73
1
 93
4
 10
78.901
 20
204.404
 10
82.701
 20
204.404
 10
82.701
 20
198.304
 10
78.901
 20
198.304
 97
0
 75
0
 76
1
 98
0
  0
HATCH
  5
55
330
17
100
AcDbEntity
  8
RASTER
 62
7
100
AcDbHatch
 10
0.0
 20
0.0
 30
0.0
210
0.0
220
0.0
230
1.0
  2
SOLID
 70
1
 71
0
 91
1
 92
3
 72
0
 73
1
 93
4
 10
134.902
 20
204.404
 10
138.702
 20
204.404
 10
138.702
 20
198.304
 10
134.902
 20
198.304
 97
0
 75
0
 76
1
 98
0
  0
HATCH
  5
56
330
17
100
AcDbEntity
  8
RASTER
 62
7
100
AcDbHatch
 10
0.0
 20
0.0
 30
0.0
210
0.0
220
0.0
230
1.0
  2
SOLID
 70
1
 71
0
 91
1
 92
3
 72
0
 73
1
 93
48
 10
85.401
 20
204.054
 10
85.397
 20
203.989
 10
85.384
 20
203.925
 10
85.363
 20
203.863
 10
85.334
 20
203.804
 10
85.298
 20
203.75
 10
85.255
 20
203.7
 10
85.205
 20
203.657
 10
85.151
 20
203.621
 10
85.092
 20
203.592
 10
85.03
 20
203.571
 10
84.966
 20
203.558
 10
84.901
 20
203.554
 10
84.836
 20
203.558
 10
84.772
 20
203.571
 10
84.71
 20
203.592
 10
84.651
 20
203.621
 10
84.597
 20
203.657
 10
84.547
 20
203.7
 10
84.504
 20
203.75
 10
84.468
 20
203.804
 10
84.439
 20
203.863
 10
84.418
 20
203.925
 10
84.405
 20
203.989
 10
84.401
 20
204.054
 10
84.405
 20
204.119
 10
84.418
 20
204.183
 10
84.439
 20
204.245
 10
84.468
 20
204.304
 10
84.504
 20
204.358
 10
84.547
 20
204.408
 10
84.597
 20
204.451
 10
84.651
 20
204.487
 10
84.71
 20
204.516
 10
84.772
 20
204.537
 10
84.836
 20
204.55
 10
84.901
 20
204.554
 10
84.966
 20
204.55
 10
85.03
 20
204.537
 10
85.092
 20
204.516
 10
85.151
 20
204.487
 10
85.205
 20
204.451
 10
85.255
 20
204.408
 10
85.298
 20
204.358
 10
85.334
 20
204.304
 10
85.363
 20
204.245
 10
85.384
 20
204.183
 10
85.397
 20
204.119
 97
0
 75
0
 76
1
 98
0
  0
HATCH
  5
57
330
17
100
AcDbEntity
  8
RASTER
 62
7
100
AcDbHatch
 10
0.0
 20
0.0
 30
0.0
210
0.0
220
0.0
230
1.0
  2
SOLID
 70
1
 71
0
 91
1
 92
3
 72
0
 73
1
 93
48
 10
133.202
 20
204.054
 10
133.198
 20
203.989
 10
133.185
 20
203.925
 10
133.164
 20
203.863
 10
133.135
 20
203.804
 10
133.099
 20
203.75
 10
133.056
 20
203.7
 10
133.006
 20
203.657
 10
132.952
 20
203.621
 10
132.893
 20
203.592
 10
132.831
 20
203.571
 10
132.767
 20
203.558
 10
132.702
 20
203.554
 10
132.637
 20
203.558
 10
132.573
 20
203.571
 10
132.511
 20
203.592
 10
132.452
 20
203.621
 10
132.398
 20
203.657
 10
132.348
 20
203.7
 10
132.305
 20
203.75
 10
132.269
 20
203.804
 10
132.24
 20
203.863
 10
132.219
 20
203.925
 10
132.206
 20
203.989
 10
132.202
 20
204.054
 10
132.206
 20
204.119
 10
132.219
 20
204.183
 10
132.24
 20
204.245
 10
132.269
 20
204.304
 10
132.305
 20
204.358
 10
132.348
 20
204.408
 10
132.398
 20
204.451
 10
132.452
 20
204.487
 10
132.511
 20
204.516
 10
132.573
 20
204.537
 10
132.637
 20
204.55
 10
132.702
 20
204.554
 10
132.767
 20
204.55
 10
132.831
 20
204.537
 10
132.893
 20
204.516
 10
132.952
 20
204.487
 10
133.006
 20
204.451
 10
133.056
 20
204.408
 10
133.099
 20
204.358
 10
133.135
 20
204.304
 10
133.164
 20
204.245
 10
133.185
 20
204.183
 10
133.198
 20
204.119
 97
0
 75
0
 76
1
 98
0
  0
HATCH
  5
58
330
17
100
AcDbEntity
  8
RASTER
 62
7
100
AcDbHatch
 10
0.0
 20
0.0
 30
0.0
210
0.0
220
0.0
230
1.0
  2
SOLID
 70
1
 71
0
 91
1
 92
3
 72
0
 73
1
 93
48
 10
85.401
 20
198.654
 10
85.397
 20
198.589
 10
85.384
 20
198.525
 10
85.363
 20
198.463
 10
85.334
 20
198.404
 10
85.298
 20
198.35
 10
85.255
 20
198.3
 10
85.205
 20
198.257
 10
85.151
 20
198.221
 10
85.092
 20
198.192
 10
85.03
 20
198.171
 10
84.966
 20
198.158
 10
84.901
 20
198.154
 10
84.836
 20
198.158
 10
84.772
 20
198.171
 10
84.71
 20
198.192
 10
84.651
 20
198.221
 10
84.597
 20
198.257
 10
84.547
 20
198.3
 10
84.504
 20
198.35
 10
84.468
 20
198.404
 10
84.439
 20
198.463
 10
84.418
 20
198.525
 10
84.405
 20
198.589
 10
84.401
 20
198.654
 10
84.405
 20
198.719
 10
84.418
 20
198.783
 10
84.439
 20
198.845
 10
84.468
 20
198.904
 10
84.504
 20
198.958
 10
84.547
 20
199.008
 10
84.597
 20
199.051
 10
84.651
 20
199.087
 10
84.71
 20
199.116
 10
84.772
 20
199.137
 10
84.836
 20
199.15
 10
84.901
 20
199.154
 10
84.966
 20
199.15
 10
85.03
 20
199.137
 10
85.092
 20
199.116
 10
85.151
 20
199.087
 10
85.205
 20
199.051
 10
85.255
 20
199.008
 10
85.298
 20
198.958
 10
85.334
 20
198.904
 10
85.363
 20
198.845
 10
85.384
 20
198.783
 10
85.397
 20
198.719
 97
0
 75
0
 76
1
 98
0
  0
HATCH
  5
59
330
17
100
AcDbEntity
  8
RASTER
 62
7
100
AcDbHatch
 10
0.0
 20
0.0
 30
0.0
210
0.0
220
0.0
230
1.0
  2
SOLID
 70
1
 71
0
 91
1
 92
3
 72
0
 73
1
 93
48
 10
133.202
 20
198.654
 10
133.198
 20
198.589
 10
133.185
 20
198.525
 10
133.164
 20
198.463
 10
133.135
 20
198.404
 10
133.099
 20
198.35
 10
133.056
 20
198.3
 10
133.006
 20
198.257
 10
132.952
 20
198.221
 10
132.893
 20
198.192
 10
132.831
 20
198.171
 10
132.767
 20
198.158
 10
132.702
 20
198.154
 10
132.637
 20
198.158
 10
132.573
 20
198.171
 10
132.511
 20
198.192
 10
132.452
 20
198.221
 10
132.398
 20
198.257
 10
132.348
 20
198.3
 10
132.305
 20
198.35
 10
132.269
 20
198.404
 10
132.24
 20
198.463
 10
132.219
 20
198.525
 10
132.206
 20
198.589
 10
132.202
 20
198.654
 10
132.206
 20
198.719
 10
132.219
 20
198.783
 10
132.24
 20
198.845
 10
132.269
 20
198.904
 10
132.305
 20
198.958
 10
132.348
 20
199.008
 10
132.398
 20
199.051
 10
132.452
 20
199.087
 10
132.511
 20
199.116
 10
132.573
 20
199.137
 10
132.637
 20
199.15
 10
132.702
 20
199.154
 10
132.767
 20
199.15
 10
132.831
 20
199.137
 10
132.893
 20
199.116
 10
132.952
 20
199.087
 10
133.006
 20
199.051
 10
133.056
 20
199.008
 10
133.099
 20
198.958
 10
133.135
 20
198.904
 10
133.164
 20
198.845
 10
133.185
 20
198.783
 10
133.198
 20
198.719
 97
0
 75
0
 76
1
 98
0
  0
LWPOLYLINE
  5
5A
330
17
100
AcDbEntity
  8
CUT
100
AcDbPolyline
 90
36
 70
1
 10
149.502
 20
204.844
 10
210.503
 20
204.844
 10
213.643
 20
204.844
 10
213.643
 20
202.464
 10
210.543
 20
202.464
 10
210.543
 20
200.244
 10
213.643
 20
200.244
 10
213.643
 20
197.864
 10
210.503
 20
197.864
 10
204.997
 20
197.864
 10
204.997
 20
194.764
 10
199.372
 20
194.764
 10
199.372
 20
197.864
 10
193.906
 20
197.864
 10
193.906
 20
194.764
 10
188.281
 20
194.764
 10
188.281
 20
197.864
 10
182.815
 20
197.864
 10
182.815
 20
194.764
 10
177.19
 20
194.764
 10
177.19
 20
197.864
 10
171.724
 20
197.864
 10
171.724
 20
194.764
 10
166.099
 20
194.764
 10
166.099
 20
197.864
 10
160.633
 20
197.864
 10
160.633
 20
194.764
 10
155.008
 20
194.764
 10
155.008
 20
197.864
 10
149.502
 20
197.864
 10
146.362
 20
197.864
 10
146.362
 20
200.244
 10
149.462
 20
200.244
 10
149.462
 20
202.464
 10
146.362
 20
202.464
 10
146.362
 20
204.844
  0
LWPOLYLINE
  5
5B
330
17
100
AcDbEntity
  8
CUT
100
AcDbPolyline
 90
4
 70
1
 10
154.542
 20
202.414
 10
205.463
 20
202.414
 10
205.463
 20
200.294
 10
154.542
 20
200.294
  0
HATCH
  5
5C
330
17
100
AcDbEntity
  8
RASTER
 62
7
100
AcDbHatch
 10
0.0
 20
0.0
 30
0.0
210
0.0
220
0.0
230
1.0
  2
SOLID
 70
1
 71
0
 91
1
 92
3
 72
0
 73
1
 93
4
 10
150.102
 20
204.404
 10
153.902
 20
204.404
 10
153.902
 20
198.304
 10
150.102
 20
198.304
 97
0
 75
0
 76
1
 98
0
  0
HATCH
  5
5D
330
17
100
AcDbEntity
  8
RASTER
 62
7
100
AcDbHatch
 10
0.0
 20
0.0
 30
0.0
210
0.0
220
0.0
230
1.0
  2
SOLID
 70
1
 71
0
 91
1
 92
3
 72
0
 73
1
 93
4
 10
206.103
 20
204.404
 10
209.903
 20
204.404
 10
209.903
 20
198.304
 10
206.103
 20
198.304
 97
0
 75
0
 76
1
 98
0
  0
HATCH
  5
5E
330
17
100
AcDbEntity
  8
RASTER
 62
7
100
AcDbHatch
 10
0.0
 20
0.0
 30
0.0
210
0.0
220
0.0
230
1.0
  2
SOLID
 70
1
 71
0
 91
1
 92
3
 72
0
 73
1
 93
48
 10
156.602
 20
204.054
 10
156.598
 20
203.989
 10
156.585
 20
203.925
 10
156.564
 20
203.863
 10
156.535
 20
203.804
 10
156.499
 20
203.75
 10
156.456
 20
203.7
 10
156.406
 20
203.657
 10
156.352
 20
203.621
 10
156.293
 20
203.592
 10
156.231
 20
203.571
 10
156.167
 20
203.558
 10
156.102
 20
203.554
 10
156.037
 20
203.558
 10
155.973
 20
203.571
 10
155.911
 20
203.592
 10
155.852
 20
203.621
 10
155.798
 20
203.657
 10
155.748
 20
203.7
 10
155.705
 20
203.75
 10
155.669
 20
203.804
 10
155.64
 20
203.863
 10
155.619
 20
203.925
 10
155.606
 20
203.989
 10
155.602
 20
204.054
 10
155.606
 20
204.119
 10
155.619
 20
204.183
 10
155.64
 20
204.245
 10
155.669
 20
204.304
 10
155.705
 20
204.358
 10
155.748
 20
204.408
 10
155.798
 20
204.451
 10
155.852
 20
204.487
 10
155.911
 20
204.516
 10
155.973
 20
204.537
 10
156.037
 20
204.55
 10
156.102
 20
204.554
 10
156.167
 20
204.55
 10
156.231
 20
204.537
 10
156.293
 20
204.516
 10
156.352
 20
204.487
 10
156.406
 20
204.451
 10
156.456
 20
204.408
 10
156.499
 20
204.358
 10
156.535
 20
204.304
 10
156.564
 20
204.245
 10
156.585
 20
204.183
 10
156.598
 20
204.119
 97
0
 75
0
 76
1
 98
0
  0
HATCH
  5
5F
330
17
100
AcDbEntity
  8
RASTER
 62
7
100
AcDbHatch
 10
0.0
 20
0.0
 30
0.0
210
0.0
220
0.0
230
1.0
  2
SOLID
 70
1
 71
0
 91
1
 92
3
 72
0
 73
1
 93
48
 10
204.403
 20
204.054
 10
204.399
 20
203.989
 10
204.386
 20
203.925
 10
204.365
 20
203.863
 10
204.336
 20
203.804
 10
204.3
 20
203.75
 10
204.257
 20
203.7
 10
204.207
 20
203.657
 10
204.153
 20
203.621
 10
204.094
 20
203.592
 10
204.032
 20
203.571
 10
203.968
 20
203.558
 10
203.903
 20
203.554
 10
203.838
 20
203.558
 10
203.774
 20
203.571
 10
203.712
 20
203.592
 10
203.653
 20
203.621
 10
203.599
 20
203.657
 10
203.549
 20
203.7
 10
203.506
 20
203.75
 10
203.47
 20
203.804
 10
203.441
 20
203.863
 10
203.42
 20
203.925
 10
203.407
 20
203.989
 10
203.403
 20
204.054
 10
203.407
 20
204.119
 10
203.42
 20
204.183
 10
203.441
 20
204.245
 10
203.47
 20
204.304
 10
203.506
 20
204.358
 10
203.549
 20
204.408
 10
203.599
 20
204.451
 10
203.653
 20
204.487
 10
203.712
 20
204.516
 10
203.774
 20
204.537
 10
203.838
 20
204.55
 10
203.903
 20
204.554
 10
203.968
 20
204.55
 10
204.032
 20
204.537
 10
204.094
 20
204.516
 10
204.153
 20
204.487
 10
204.207
 20
204.451
 10
204.257
 20
204.408
 10
204.3
 20
204.358
 10
204.336
 20
204.304
 10
204.365
 20
204.245
 10
204.386
 20
204.183
 10
204.399
 20
204.119
 97
0
 75
0
 76
1
 98
0
  0
HATCH
  5
60
330
17
100
AcDbEntity
  8
RASTER
 62
7
100
AcDbHatch
 10
0.0
 20
0.0
 30
0.0
210
0.0
220
0.0
230
1.0
  2
SOLID
 70
1
 71
0
 91
1
 92
3
 72
0
 73
1
 93
48
 10
156.602
 20
198.654
 10
156.598
 20
198.589
 10
156.585
 20
198.525
 10
156.564
 20
198.463
 10
156.535
 20
198.404
 10
156.499
 20
198.35
 10
156.456
 20
198.3
 10
156.406
 20
198.257
 10
156.352
 20
198.221
 10
156.293
 20
198.192
 10
156.231
 20
198.171
 10
156.167
 20
198.158
 10
156.102
 20
198.154
 10
156.037
 20
198.158
 10
155.973
 20
198.171
 10
155.911
 20
198.192
 10
155.852
 20
198.221
 10
155.798
 20
198.257
 10
155.748
 20
198.3
 10
155.705
 20
198.35
 10
155.669
 20
198.404
 10
155.64
 20
198.463
 10
155.619
 20
198.525
 10
155.606
 20
198.589
 10
155.602
 20
198.654
 10
155.606
 20
198.719
 10
155.619
 20
198.783
 10
155.64
 20
198.845
 10
155.669
 20
198.904
 10
155.705
 20
198.958
 10
155.748
 20
199.008
 10
155.798
 20
199.051
 10
155.852
 20
199.087
 10
155.911
 20
199.116
 10
155.973
 20
199.137
 10
156.037
 20
199.15
 10
156.102
 20
199.154
 10
156.167
 20
199.15
 10
156.231
 20
199.137
 10
156.293
 20
199.116
 10
156.352
 20
199.087
 10
156.406
 20
199.051
 10
156.456
 20
199.008
 10
156.499
 20
198.958
 10
156.535
 20
198.904
 10
156.564
 20
198.845
 10
156.585
 20
198.783
 10
156.598
 20
198.719
 97
0
 75
0
 76
1
 98
0
  0
HATCH
  5
61
330
17
100
AcDbEntity
  8
RASTER
 62
7
100
AcDbHatch
 10
0.0
 20
0.0
 30
0.0
210
0.0
220
0.0
230
1.0
  2
SOLID
 70
1
 71
0
 91
1
 92
3
 72
0
 73
1
 93
48
 10
204.403
 20
198.654
 10
204.399
 20
198.589
 10
204.386
 20
198.525
 10
204.365
 20
198.463
 10
204.336
 20
198.404
 10
204.3
 20
198.35
 10
204.257
 20
198.3
 10
204.207
 20
198.257
 10
204.153
 20
198.221
 10
204.094
 20
198.192
 10
204.032
 20
198.171
 10
203.968
 20
198.158
 10
203.903
 20
198.154
 10
203.838
 20
198.158
 10
203.774
 20
198.171
 10
203.712
 20
198.192
 10
203.653
 20
198.221
 10
203.599
 20
198.257
 10
203.549
 20
198.3
 10
203.506
 20
198.35
 10
203.47
 20
198.404
 10
203.441
 20
198.463
 10
203.42
 20
198.525
 10
203.407
 20
198.589
 10
203.403
 20
198.654
 10
203.407
 20
198.719
 10
203.42
 20
198.783
 10
203.441
 20
198.845
 10
203.47
 20
198.904
 10
203.506
 20
198.958
 10
203.549
 20
199.008
 10
203.599
 20
199.051
 10
203.653
 20
199.087
 10
203.712
 20
199.116
 10
203.774
 20
199.137
 10
203.838
 20
199.15
 10
203.903
 20
199.154
 10
203.968
 20
199.15
 10
204.032
 20
199.137
 10
204.094
 20
199.116
 10
204.153
 20
199.087
 10
204.207
 20
199.051
 10
204.257
 20
199.008
 10
204.3
 20
198.958
 10
204.336
 20
198.904
 10
204.365
 20
198.845
 10
204.386
 20
198.783
 10
204.399
 20
198.719
 97
0
 75
0
 76
1
 98
0
  0
LWPOLYLINE
  5
62
330
17
100
AcDbEntity
  8
CUT
100
AcDbPolyline
 90
24
 70
1
 10
220.663
 20
204.844
 10
261.744
 20
204.844
 10
261.744
 20
202.544
 10
264.844
 20
202.544
 10
264.844
 20
200.164
 10
261.744
 20
200.164
 10
261.744
 20
197.864
 10
255.887
 20
197.864
 10
255.887
 20
194.764
 10
249.949
 20
194.764
 10
249.949
 20
197.864
 10
244.172
 20
197.864
 10
244.172
 20
194.764
 10
238.235
 20
194.764
 10
238.235
 20
197.864
 10
232.458
 20
197.864
 10
232.458
 20
194.764
 10
226.52
 20
194.764
 10
226.52
 20
197.864
 10
220.663
 20
197.864
 10
220.663
 20
200.164
 10
217.563
 20
200.164
 10
217.563
 20
202.544
 10
220.663
 20
202.544
  0
LWPOLYLINE
  5
63
330
17
100
AcDbEntity
  8
CUT
100
AcDbPolyline
 90
4
 70
1
 10
225.743
 20
202.414
 10
256.664
 20
202.414
 10
256.664
 20
200.294
 10
225.743
 20
200.294
  0
HATCH
  5
64
330
17
100
AcDbEntity
  8
RASTER
 62
7
100
AcDbHatch
 10
0.0
 20
0.0
 30
0.0
210
0.0
220
0.0
230
1.0
  2
SOLID
 70
1
 71
0
 91
1
 92
3
 72
0
 73
1
 93
4
 10
221.303
 20
204.404
 10
225.103
 20
204.404
 10
225.103
 20
198.304
 10
221.303
 20
198.304
 97
0
 75
0
 76
1
 98
0
  0
HATCH
  5
65
330
17
100
AcDbEntity
  8
RASTER
 62
7
100
AcDbHatch
 10
0.0
 20
0.0
 30
0.0
210
0.0
220
0.0
230
1.0
  2
SOLID
 70
1
 71
0
 91
1
 92
3
 72
0
 73
1
 93
4
 10
257.304
 20
204.404
 10
261.104
 20
204.404
 10
261.104
 20
198.304
 10
257.304
 20
198.304
 97
0
 75
0
 76
1
 98
0
  0
HATCH
  5
66
330
17
100
AcDbEntity
  8
RASTER
 62
7
100
AcDbHatch
 10
0.0
 20
0.0
 30
0.0
210
0.0
220
0.0
230
1.0
  2
SOLID
 70
1
 71
0
 91
1
 92
3
 72
0
 73
1
 93
48
 10
227.803
 20
204.054
 10
227.799
 20
203.989
 10
227.786
 20
203.925
 10
227.765
 20
203.863
 10
227.736
 20
203.804
 10
227.7
 20
203.75
 10
227.657
 20
203.7
 10
227.607
 20
203.657
 10
227.553
 20
203.621
 10
227.494
 20
203.592
 10
227.432
 20
203.571
 10
227.368
 20
203.558
 10
227.303
 20
203.554
 10
227.238
 20
203.558
 10
227.174
 20
203.571
 10
227.112
 20
203.592
 10
227.053
 20
203.621
 10
226.999
 20
203.657
 10
226.949
 20
203.7
 10
226.906
 20
203.75
 10
226.87
 20
203.804
 10
226.841
 20
203.863
 10
226.82
 20
203.925
 10
226.807
 20
203.989
 10
226.803
 20
204.054
 10
226.807
 20
204.119
 10
226.82
 20
204.183
 10
226.841
 20
204.245
 10
226.87
 20
204.304
 10
226.906
 20
204.358
 10
226.949
 20
204.408
 10
226.999
 20
204.451
 10
227.053
 20
204.487
 10
227.112
 20
204.516
 10
227.174
 20
204.537
 10
227.238
 20
204.55
 10
227.303
 20
204.554
 10
227.368
 20
204.55
 10
227.432
 20
204.537
 10
227.494
 20
204.516
 10
227.553
 20
204.487
 10
227.607
 20
204.451
 10
227.657
 20
204.408
 10
227.7
 20
204.358
 10
227.736
 20
204.304
 10
227.765
 20
204.245
 10
227.786
 20
204.183
 10
227.799
 20
204.119
 97
0
 75
0
 76
1
 98
0
  0
HATCH
  5
67
330
17
100
AcDbEntity
  8
RASTER
 62
7
100
AcDbHatch
 10
0.0
 20
0.0
 30
0.0
210
0.0
220
0.0
230
1.0
  2
SOLID
 70
1
 71
0
 91
1
 92
3
 72
0
 73
1
 93
48
 10
255.604
 20
204.054
 10
255.6
 20
203.989
 10
255.587
 20
203.925
 10
255.566
 20
203.863
 10
255.537
 20
203.804
 10
255.501
 20
203.75
 10
255.458
 20
203.7
 10
255.408
 20
203.657
 10
255.354
 20
203.621
 10
255.295
 20
203.592
 10
255.233
 20
203.571
 10
255.169
 20
203.558
 10
255.104
 20
203.554
 10
255.039
 20
203.558
 10
254.975
 20
203.571
 10
254.913
 20
203.592
 10
254.854
 20
203.621
 10
254.8
 20
203.657
 10
254.75
 20
203.7
 10
254.707
 20
203.75
 10
254.671
 20
203.804
 10
254.642
 20
203.863
 10
254.621
 20
203.925
 10
254.608
 20
203.989
 10
254.604
 20
204.054
 10
254.608
 20
204.119
 10
254.621
 20
204.183
 10
254.642
 20
204.245
 10
254.671
 20
204.304
 10
254.707
 20
204.358
 10
254.75
 20
204.408
 10
254.8
 20
204.451
 10
254.854
 20
204.487
 10
254.913
 20
204.516
 10
254.975
 20
204.537
 10
255.039
 20
204.55
 10
255.104
 20
204.554
 10
255.169
 20
204.55
 10
255.233
 20
204.537
 10
255.295
 20
204.516
 10
255.354
 20
204.487
 10
255.408
 20
204.451
 10
255.458
 20
204.408
 10
255.501
 20
204.358
 10
255.537
 20
204.304
 10
255.566
 20
204.245
 10
255.587
 20
204.183
 10
255.6
 20
204.119
 97
0
 75
0
 76
1
 98
0
  0
HATCH
  5
68
330
17
100
AcDbEntity
  8
RASTER
 62
7
100
AcDbHatch
 10
0.0
 20
0.0
 30
0.0
210
0.0
220
0.0
230
1.0
  2
SOLID
 70
1
 71
0
 91
1
 92
3
 72
0
 73
1
 93
48
 10
227.803
 20
198.654
 10
227.799
 20
198.589
 10
227.786
 20
198.525
 10
227.765
 20
198.463
 10
227.736
 20
198.404
 10
227.7
 20
198.35
 10
227.657
 20
198.3
 10
227.607
 20
198.257
 10
227.553
 20
198.221
 10
227.494
 20
198.192
 10
227.432
 20
198.171
 10
227.368
 20
198.158
 10
227.303
 20
198.154
 10
227.238
 20
198.158
 10
227.174
 20
198.171
 10
227.112
 20
198.192
 10
227.053
 20
198.221
 10
226.999
 20
198.257
 10
226.949
 20
198.3
 10
226.906
 20
198.35
 10
226.87
 20
198.404
 10
226.841
 20
198.463
 10
226.82
 20
198.525
 10
226.807
 20
198.589
 10
226.803
 20
198.654
 10
226.807
 20
198.719
 10
226.82
 20
198.783
 10
226.841
 20
198.845
 10
226.87
 20
198.904
 10
226.906
 20
198.958
 10
226.949
 20
199.008
 10
226.999
 20
199.051
 10
227.053
 20
199.087
 10
227.112
 20
199.116
 10
227.174
 20
199.137
 10
227.238
 20
199.15
 10
227.303
 20
199.154
 10
227.368
 20
199.15
 10
227.432
 20
199.137
 10
227.494
 20
199.116
 10
227.553
 20
199.087
 10
227.607
 20
199.051
 10
227.657
 20
199.008
 10
227.7
 20
198.958
 10
227.736
 20
198.904
 10
227.765
 20
198.845
 10
227.786
 20
198.783
 10
227.799
 20
198.719
 97
0
 75
0
 76
1
 98
0
  0
HATCH
  5
69
330
17
100
AcDbEntity
  8
RASTER
 62
7
100
AcDbHatch
 10
0.0
 20
0.0
 30
0.0
210
0.0
220
0.0
230
1.0
  2
SOLID
 70
1
 71
0
 91
1
 92
3
 72
0
 73
1
 93
48
 10
255.604
 20
198.654
 10
255.6
 20
198.589
 10
255.587
 20
198.525
 10
255.566
 20
198.463
 10
255.537
 20
198.404
 10
255.501
 20
198.35
 10
255.458
 20
198.3
 10
255.408
 20
198.257
 10
255.354
 20
198.221
 10
255.295
 20
198.192
 10
255.233
 20
198.171
 10
255.169
 20
198.158
 10
255.104
 20
198.154
 10
255.039
 20
198.158
 10
254.975
 20
198.171
 10
254.913
 20
198.192
 10
254.854
 20
198.221
 10
254.8
 20
198.257
 10
254.75
 20
198.3
 10
254.707
 20
198.35
 10
254.671
 20
198.404
 10
254.642
 20
198.463
 10
254.621
 20
198.525
 10
254.608
 20
198.589
 10
254.604
 20
198.654
 10
254.608
 20
198.719
 10
254.621
 20
198.783
 10
254.642
 20
198.845
 10
254.671
 20
198.904
 10
254.707
 20
198.958
 10
254.75
 20
199.008
 10
254.8
 20
199.051
 10
254.854
 20
199.087
 10
254.913
 20
199.116
 10
254.975
 20
199.137
 10
255.039
 20
199.15
 10
255.104
 20
199.154
 10
255.169
 20
199.15
 10
255.233
 20
199.137
 10
255.295
 20
199.116
 10
255.354
 20
199.087
 10
255.408
 20
199.051
 10
255.458
 20
199.008
 10
255.501
 20
198.958
 10
255.537
 20
198.904
 10
255.566
 20
198.845
 10
255.587
 20
198.783
 10
255.6
 20
198.719
 97
0
 75
0
 76
1
 98
0
  0
LWPOLYLINE
  5
6A
330
17
100
AcDbEntity
  8
CUT
100
AcDbPolyline
 90
24
 70
1
 10
7.06
 20
153.643
 10
48.141
 20
153.643
 10
48.141
 20
151.343
 10
51.241
 20
151.343
 10
51.241
 20
148.963
 10
48.141
 20
148.963
 10
48.141
 20
146.663
 10
42.284
 20
146.663
 10
42.284
 20
143.563
 10
36.346
 20
143.563
 10
36.346
 20
146.663
 10
30.569
 20
146.663
 10
30.569
 20
143.563
 10
24.632
 20
143.563
 10
24.632
 20
146.663
 10
18.855
 20
146.663
 10
18.855
 20
143.563
 10
12.917
 20
143.563
 10
12.917
 20
146.663
 10
7.06
 20
146.663
 10
7.06
 20
148.963
 10
3.96
 20
148.963
 10
3.96
 20
151.343
 10
7.06
 20
151.343
  0
LWPOLYLINE
  5
6B
330
17
100
AcDbEntity
  8
CUT
100
AcDbPolyline
 90
4
 70
1
 10
12.14
 20
151.213
 10
43.061
 20
151.213
 10
43.061
 20
149.093
 10
12.14
 20
149.093
  0
HATCH
  5
6C
330
17
100
AcDbEntity
  8
RASTER
 62
7
100
AcDbHatch
 10
0.0
 20
0.0
 30
0.0
210
0.0
220
0.0
230
1.0
  2
SOLID
 70
1
 71
0
 91
1
 92
3
 72
0
 73
1
 93
4
 10
7.7
 20
153.203
 10
11.5
 20
153.203
 10
11.5
 20
147.103
 10
7.7
 20
147.103
 97
0
 75
0
 76
1
 98
0
  0
HATCH
  5
6D
330
17
100
AcDbEntity
  8
RASTER
 62
7
100
AcDbHatch
 10
0.0
 20
0.0
 30
0.0
210
0.0
220
0.0
230
1.0
  2
SOLID
 70
1
 71
0
 91
1
 92
3
 72
0
 73
1
 93
4
 10
43.701
 20
153.203
 10
47.501
 20
153.203
 10
47.501
 20
147.103
 10
43.701
 20
147.103
 97
0
 75
0
 76
1
 98
0
  0
HATCH
  5
6E
330
17
100
AcDbEntity
  8
RASTER
 62
7
100
AcDbHatch
 10
0.0
 20
0.0
 30
0.0
210
0.0
220
0.0
230
1.0
  2
SOLID
 70
1
 71
0
 91
1
 92
3
 72
0
 73
1
 93
48
 10
14.2
 20
152.853
 10
14.196
 20
152.788
 10
14.183
 20
152.724
 10
14.162
 20
152.662
 10
14.133
 20
152.603
 10
14.097
 20
152.549
 10
14.054
 20
152.499
 10
14.004
 20
152.456
 10
13.95
 20
152.42
 10
13.891
 20
152.391
 10
13.829
 20
152.37
 10
13.765
 20
152.357
 10
13.7
 20
152.353
 10
13.635
 20
152.357
 10
13.571
 20
152.37
 10
13.509
 20
152.391
 10
13.45
 20
152.42
 10
13.396
 20
152.456
 10
13.346
 20
152.499
 10
13.303
 20
152.549
 10
13.267
 20
152.603
 10
13.238
 20
152.662
 10
13.217
 20
152.724
 10
13.204
 20
152.788
 10
13.2
 20
152.853
 10
13.204
 20
152.918
 10
13.217
 20
152.982
 10
13.238
 20
153.044
 10
13.267
 20
153.103
 10
13.303
 20
153.157
 10
13.346
 20
153.207
 10
13.396
 20
153.25
 10
13.45
 20
153.286
 10
13.509
 20
153.315
 10
13.571
 20
153.336
 10
13.635
 20
153.349
 10
13.7
 20
153.353
 10
13.765
 20
153.349
 10
13.829
 20
153.336
 10
13.891
 20
153.315
 10
13.95
 20
153.286
 10
14.004
 20
153.25
 10
14.054
 20
153.207
 10
14.097
 20
153.157
 10
14.133
 20
153.103
 10
14.162
 20
153.044
 10
14.183
 20
152.982
 10
14.196
 20
152.918
 97
0
 75
0
 76
1
 98
0
  0
HATCH
  5
6F
330
17
100
AcDbEntity
  8
RASTER
 62
7
100
AcDbHatch
 10
0.0
 20
0.0
 30
0.0
210
0.0
220
0.0
230
1.0
  2
SOLID
 70
1
 71
0
 91
1
 92
3
 72
0
 73
1
 93
48
 10
42.001
 20
152.853
 10
41.997
 20
152.788
 10
41.984
 20
152.724
 10
41.963
 20
152.662
 10
41.934
 20
152.603
 10
41.898
 20
152.549
 10
41.855
 20
152.499
 10
41.805
 20
152.456
 10
41.751
 20
152.42
 10
41.692
 20
152.391
 10
41.63
 20
152.37
 10
41.566
 20
152.357
 10
41.501
 20
152.353
 10
41.436
 20
152.357
 10
41.372
 20
152.37
 10
41.31
 20
152.391
 10
41.251
 20
152.42
 10
41.197
 20
152.456
 10
41.147
 20
152.499
 10
41.104
 20
152.549
 10
41.068
 20
152.603
 10
41.039
 20
152.662
 10
41.018
 20
152.724
 10
41.005
 20
152.788
 10
41.001
 20
152.853
 10
41.005
 20
152.918
 10
41.018
 20
152.982
 10
41.039
 20
153.044
 10
41.068
 20
153.103
 10
41.104
 20
153.157
 10
41.147
 20
153.207
 10
41.197
 20
153.25
 10
41.251
 20
153.286
 10
41.31
 20
153.315
 10
41.372
 20
153.336
 10
41.436
 20
153.349
 10
41.501
 20
153.353
 10
41.566
 20
153.349
 10
41.63
 20
153.336
 10
41.692
 20
153.315
 10
41.751
 20
153.286
 10
41.805
 20
153.25
 10
41.855
 20
153.207
 10
41.898
 20
153.157
 10
41.934
 20
153.103
 10
41.963
 20
153.044
 10
41.984
 20
152.982
 10
41.997
 20
152.918
 97
0
 75
0
 76
1
 98
0
  0
HATCH
  5
70
330
17
100
AcDbEntity
  8
RASTER
 62
7
100
AcDbHatch
 10
0.0
 20
0.0
 30
0.0
210
0.0
220
0.0
230
1.0
  2
SOLID
 70
1
 71
0
 91
1
 92
3
 72
0
 73
1
 93
48
 10
14.2
 20
147.453
 10
14.196
 20
147.388
 10
14.183
 20
147.324
 10
14.162
 20
147.262
 10
14.133
 20
147.203
 10
14.097
 20
147.149
 10
14.054
 20
147.099
 10
14.004
 20
147.056
 10
13.95
 20
147.02
 10
13.891
 20
146.991
 10
13.829
 20
146.97
 10
13.765
 20
146.957
 10
13.7
 20
146.953
 10
13.635
 20
146.957
 10
13.571
 20
146.97
 10
13.509
 20
146.991
 10
13.45
 20
147.02
 10
13.396
 20
147.056
 10
13.346
 20
147.099
 10
13.303
 20
147.149
 10
13.267
 20
147.203
 10
13.238
 20
147.262
 10
13.217
 20
147.324
 10
13.204
 20
147.388
 10
13.2
 20
147.453
 10
13.204
 20
147.518
 10
13.217
 20
147.582
 10
13.238
 20
147.644
 10
13.267
 20
147.703
 10
13.303
 20
147.757
 10
13.346
 20
147.807
 10
13.396
 20
147.85
 10
13.45
 20
147.886
 10
13.509
 20
147.915
 10
13.571
 20
147.936
 10
13.635
 20
147.949
 10
13.7
 20
147.953
 10
13.765
 20
147.949
 10
13.829
 20
147.936
 10
13.891
 20
147.915
 10
13.95
 20
147.886
 10
14.004
 20
147.85
 10
14.054
 20
147.807
 10
14.097
 20
147.757
 10
14.133
 20
147.703
 10
14.162
 20
147.644
 10
14.183
 20
147.582
 10
14.196
 20
147.518
 97
0
 75
0
 76
1
 98
0
  0
HATCH
  5
71
330
17
100
AcDbEntity
  8
RASTER
 62
7
100
AcDbHatch
 10
0.0
 20
0.0
 30
0.0
210
0.0
220
0.0
230
1.0
  2
SOLID
 70
1
 71
0
 91
1
 92
3
 72
0
 73
1
 93
48
 10
42.001
 20
147.453
 10
41.997
 20
147.388
 10
41.984
 20
147.324
 10
41.963
 20
147.262
 10
41.934
 20
147.203
 10
41.898
 20
147.149
 10
41.855
 20
147.099
 10
41.805
 20
147.056
 10
41.751
 20
147.02
 10
41.692
 20
146.991
 10
41.63
 20
146.97
 10
41.566
 20
146.957
 10
41.501
 20
146.953
 10
41.436
 20
146.957
 10
41.372
 20
146.97
 10
41.31
 20
146.991
 10
41.251
 20
147.02
 10
41.197
 20
147.056
 10
41.147
 20
147.099
 10
41.104
 20
147.149
 10
41.068
 20
147.203
 10
41.039
 20
147.262
 10
41.018
 20
147.324
 10
41.005
 20
147.388
 10
41.001
 20
147.453
 10
41.005
 20
147.518
 10
41.018
 20
147.582
 10
41.039
 20
147.644
 10
41.068
 20
147.703
 10
41.104
 20
147.757
 10
41.147
 20
147.807
 10
41.197
 20
147.85
 10
41.251
 20
147.886
 10
41.31
 20
147.915
 10
41.372
 20
147.936
 10
41.436
 20
147.949
 10
41.501
 20
147.953
 10
41.566
 20
147.949
 10
41.63
 20
147.936
 10
41.692
 20
147.915
 10
41.751
 20
147.886
 10
41.805
 20
147.85
 10
41.855
 20
147.807
 10
41.898
 20
147.757
 10
41.934
 20
147.703
 10
41.963
 20
147.644
 10
41.984
 20
147.582
 10
41.997
 20
147.518
 97
0
 75
0
 76
1
 98
0
  0
LWPOLYLINE
  5
72
330
17
100
AcDbEntity
  8
CUT
100
AcDbPolyline
 90
76
 70
1
 10
55.161
 20
153.643
 10
58.301
 20
153.643
 10
63.887
 20
153.643
 10
63.887
 20
150.543
 10
69.352
 20
150.543
 10
69.352
 20
153.643
 10
74.978
 20
153.643
 10
74.978
 20
150.543
 10
80.443
 20
150.543
 10
80.443
 20
153.643
 10
86.069
 20
153.643
 10
86.069
 20
150.543
 10
91.534
 20
150.543
 10
91.534
 20
153.643
 10
97.16
 20
153.643
 10
97.16
 20
150.543
 10
102.625
 20
150.543
 10
102.625
 20
153.643
 10
108.251
 20
153.643
 10
108.251
 20
150.543
 10
113.716
 20
150.543
 10
113.716
 20
153.643
 10
119.302
 20
153.643
 10
122.442
 20
153.643
 10
122.442
 20
150.503
 10
122.442
 20
144.606
 10
119.342
 20
144.606
 10
119.342
 20
138.828
 10
122.442
 20
138.828
 10
122.442
 20
132.891
 10
119.342
 20
132.891
 10
119.342
 20
127.114
 10
122.442
 20
127.114
 10
122.442
 20
121.177
 10
119.342
 20
121.177
 10
119.342
 20
115.399
 10
122.442
 20
115.399
 10
122.442
 20
109.502
 10
122.442
 20
106.362
 10
119.302
 20
106.362
 10
113.716
 20
106.362
 10
113.716
 20
109.462
 10
108.251
 20
109.462
 10
108.251
 20
106.362
 10
102.625
 20
106.362
 10
102.625
 20
109.462
 10
97.16
 20
109.462
 10
97.16
 20
106.362
 10
91.534
 20
106.362
 10
91.534
 20
109.462
 10
86.069
 20
109.462
 10
86.069
 20
106.362
 10
80.443
 20
106.362
 10
80.443
 20
109.462
 10
74.978
 20
109.462
 10
74.978
 20
106.362
 10
69.352
 20
106.362
 10
69.352
 20
109.462
 10
63.887
 20
109.462
 10
63.887
 20
106.362
 10
58.301
 20
106.362
 10
55.161
 20
106.362
 10
55.161
 20
109.502
 10
55.161
 20
115.399
 10
58.261
 20
115.399
 10
58.261
 20
121.177
 10
55.161
 20
121.177
 10
55.161
 20
127.114
 10
58.261
 20
127.114
 10
58.261
 20
132.891
 10
55.161
 20
132.891
 10
55.161
 20
138.828
 10
58.261
 20
138.828
 10
58.261
 20
144.606
 10
55.161
 20
144.606
 10
55.161
 20
150.503
  0
LWPOLYLINE
  5
73
330
17
100
AcDbEntity
  8
CUT
100
AcDbPolyline
 90
36
 70
1
 10
129.502
 20
153.643
 10
190.503
 20
153.643
 10
193.643
 20
153.643
 10
193.643
 20
151.263
 10
190.543
 20
151.263
 10
190.543
 20
149.043
 10
193.643
 20
149.043
 10
193.643
 20
146.663
 10
190.503
 20
146.663
 10
184.997
 20
146.663
 10
184.997
 20
143.563
 10
179.372
 20
143.563
 10
179.372
 20
146.663
 10
173.906
 20
146.663
 10
173.906
 20
143.563
 10
168.281
 20
143.563
 10
168.281
 20
146.663
 10
162.815
 20
146.663
 10
162.815
 20
143.563
 10
157.19
 20
143.563
 10
157.19
 20
146.663
 10
151.724
 20
146.663
 10
151.724
 20
143.563
 10
146.099
 20
143.563
 10
146.099
 20
146.663
 10
140.633
 20
146.663
 10
140.633
 20
143.563
 10
135.008
 20
143.563
 10
135.008
 20
146.663
 10
129.502
 20
146.663
 10
126.362
 20
146.663
 10
126.362
 20
149.043
 10
129.462
 20
149.043
 10
129.462
 20
151.263
 10
126.362
 20
151.263
 10
126.362
 20
153.643
  0
LWPOLYLINE
  5
74
330
17
100
AcDbEntity
  8
CUT
100
AcDbPolyline
 90
4
 70
1
 10
134.542
 20
151.213
 10
185.463
 20
151.213
 10
185.463
 20
149.093
 10
134.542
 20
149.093
  0
HATCH
  5
75
330
17
100
AcDbEntity
  8
RASTER
 62
7
100
AcDbHatch
 10
0.0
 20
0.0
 30
0.0
210
0.0
220
0.0
230
1.0
  2
SOLID
 70
1
 71
0
 91
1
 92
3
 72
0
 73
1
 93
4
 10
130.102
 20
153.203
 10
133.902
 20
153.203
 10
133.902
 20
147.103
 10
130.102
 20
147.103
 97
0
 75
0
 76
1
 98
0
  0
HATCH
  5
76
330
17
100
AcDbEntity
  8
RASTER
 62
7
100
AcDbHatch
 10
0.0
 20
0.0
 30
0.0
210
0.0
220
0.0
230
1.0
  2
SOLID
 70
1
 71
0
 91
1
 92
3
 72
0
 73
1
 93
4
 10
186.103
 20
153.203
 10
189.903
 20
153.203
 10
189.903
 20
147.103
 10
186.103
 20
147.103
 97
0
 75
0
 76
1
 98
0
  0
HATCH
  5
77
330
17
100
AcDbEntity
  8
RASTER
 62
7
100
AcDbHatch
 10
0.0
 20
0.0
 30
0.0
210
0.0
220
0.0
230
1.0
  2
SOLID
 70
1
 71
0
 91
1
 92
3
 72
0
 73
1
 93
48
 10
136.602
 20
152.853
 10
136.598
 20
152.788
 10
136.585
 20
152.724
 10
136.564
 20
152.662
 10
136.535
 20
152.603
 10
136.499
 20
152.549
 10
136.456
 20
152.499
 10
136.406
 20
152.456
 10
136.352
 20
152.42
 10
136.293
 20
152.391
 10
136.231
 20
152.37
 10
136.167
 20
152.357
 10
136.102
 20
152.353
 10
136.037
 20
152.357
 10
135.973
 20
152.37
 10
135.911
 20
152.391
 10
135.852
 20
152.42
 10
135.798
 20
152.456
 10
135.748
 20
152.499
 10
135.705
 20
152.549
 10
135.669
 20
152.603
 10
135.64
 20
152.662
 10
135.619
 20
152.724
 10
135.606
 20
152.788
 10
135.602
 20
152.853
 10
135.606
 20
152.918
 10
135.619
 20
152.982
 10
135.64
 20
153.044
 10
135.669
 20
153.103
 10
135.705
 20
153.157
 10
135.748
 20
153.207
 10
135.798
 20
153.25
 10
135.852
 20
153.286
 10
135.911
 20
153.315
 10
135.973
 20
153.336
 10
136.037
 20
153.349
 10
136.102
 20
153.353
 10
136.167
 20
153.349
 10
136.231
 20
153.336
 10
136.293
 20
153.315
 10
136.352
 20
153.286
 10
136.406
 20
153.25
 10
136.456
 20
153.207
 10
136.499
 20
153.157
 10
136.535
 20
153.103
 10
136.564
 20
153.044
 10
136.585
 20
152.982
 10
136.598
 20
152.918
 97
0
 75
0
 76
1
 98
0
  0
HATCH
  5
78
330
17
100
AcDbEntity
  8
RASTER
 62
7
100
AcDbHatch
 10
0.0
 20
0.0
 30
0.0
210
0.0
220
0.0
230
1.0
  2
SOLID
 70
1
 71
0
 91
1
 92
3
 72
0
 73
1
 93
48
 10
184.403
 20
152.853
 10
184.399
 20
152.788
 10
184.386
 20
152.724
 10
184.365
 20
152.662
 10
184.336
 20
152.603
 10
184.3
 20
152.549
 10
184.257
 20
152.499
 10
184.207
 20
152.456
 10
184.153
 20
152.42
 10
184.094
 20
152.391
 10
184.032
 20
152.37
 10
183.968
 20
152.357
 10
183.903
 20
152.353
 10
183.838
 20
152.357
 10
183.774
 20
152.37
 10
183.712
 20
152.391
 10
183.653
 20
152.42
 10
183.599
 20
152.456
 10
183.549
 20
152.499
 10
183.506
 20
152.549
 10
183.47
 20
152.603
 10
183.441
 20
152.662
 10
183.42
 20
152.724
 10
183.407
 20
152.788
 10
183.403
 20
152.853
 10
183.407
 20
152.918
 10
183.42
 20
152.982
 10
183.441
 20
153.044
 10
183.47
 20
153.103
 10
183.506
 20
153.157
 10
183.549
 20
153.207
 10
183.599
 20
153.25
 10
183.653
 20
153.286
 10
183.712
 20
153.315
 10
183.774
 20
153.336
 10
183.838
 20
153.349
 10
183.903
 20
153.353
 10
183.968
 20
153.349
 10
184.032
 20
153.336
 10
184.094
 20
153.315
 10
184.153
 20
153.286
 10
184.207
 20
153.25
 10
184.257
 20
153.207
 10
184.3
 20
153.157
 10
184.336
 20
153.103
 10
184.365
 20
153.044
 10
184.386
 20
152.982
 10
184.399
 20
152.918
 97
0
 75
0
 76
1
 98
0
  0
HATCH
  5
79
330
17
100
AcDbEntity
  8
RASTER
 62
7
100
AcDbHatch
 10
0.0
 20
0.0
 30
0.0
210
0.0
220
0.0
230
1.0
  2
SOLID
 70
1
 71
0
 91
1
 92
3
 72
0
 73
1
 93
48
 10
136.602
 20
147.453
 10
136.598
 20
147.388
 10
136.585
 20
147.324
 10
136.564
 20
147.262
 10
136.535
 20
147.203
 10
136.499
 20
147.149
 10
136.456
 20
147.099
 10
136.406
 20
147.056
 10
136.352
 20
147.02
 10
136.293
 20
146.991
 10
136.231
 20
146.97
 10
136.167
 20
146.957
 10
136.102
 20
146.953
 10
136.037
 20
146.957
 10
135.973
 20
146.97
 10
135.911
 20
146.991
 10
135.852
 20
147.02
 10
135.798
 20
147.056
 10
135.748
 20
147.099
 10
135.705
 20
147.149
 10
135.669
 20
147.203
 10
135.64
 20
147.262
 10
135.619
 20
147.324
 10
135.606
 20
147.388
 10
135.602
 20
147.453
 10
135.606
 20
147.518
 10
135.619
 20
147.582
 10
135.64
 20
147.644
 10
135.669
 20
147.703
 10
135.705
 20
147.757
 10
135.748
 20
147.807
 10
135.798
 20
147.85
 10
135.852
 20
147.886
 10
135.911
 20
147.915
 10
135.973
 20
147.936
 10
136.037
 20
147.949
 10
136.102
 20
147.953
 10
136.167
 20
147.949
 10
136.231
 20
147.936
 10
136.293
 20
147.915
 10
136.352
 20
147.886
 10
136.406
 20
147.85
 10
136.456
 20
147.807
 10
136.499
 20
147.757
 10
136.535
 20
147.703
 10
136.564
 20
147.644
 10
136.585
 20
147.582
 10
136.598
 20
147.518
 97
0
 75
0
 76
1
 98
0
  0
HATCH
  5
7A
330
17
100
AcDbEntity
  8
RASTER
 62
7
100
AcDbHatch
 10
0.0
 20
0.0
 30
0.0
210
0.0
220
0.0
230
1.0
  2
SOLID
 70
1
 71
0
 91
1
 92
3
 72
0
 73
1
 93
48
 10
184.403
 20
147.453
 10
184.399
 20
147.388
 10
184.386
 20
147.324
 10
184.365
 20
147.262
 10
184.336
 20
147.203
 10
184.3
 20
147.149
 10
184.257
 20
147.099
 10
184.207
 20
147.056
 10
184.153
 20
147.02
 10
184.094
 20
146.991
 10
184.032
 20
146.97
 10
183.968
 20
146.957
 10
183.903
 20
146.953
 10
183.838
 20
146.957
 10
183.774
 20
146.97
 10
183.712
 20
146.991
 10
183.653
 20
147.02
 10
183.599
 20
147.056
 10
183.549
 20
147.099
 10
183.506
 20
147.149
 10
183.47
 20
147.203
 10
183.441
 20
147.262
 10
183.42
 20
147.324
 10
183.407
 20
147.388
 10
183.403
 20
147.453
 10
183.407
 20
147.518
 10
183.42
 20
147.582
 10
183.441
 20
147.644
 10
183.47
 20
147.703
 10
183.506
 20
147.757
 10
183.549
 20
147.807
 10
183.599
 20
147.85
 10
183.653
 20
147.886
 10
183.712
 20
147.915
 10
183.774
 20
147.936
 10
183.838
 20
147.949
 10
183.903
 20
147.953
 10
183.968
 20
147.949
 10
184.032
 20
147.936
 10
184.094
 20
147.915
 10
184.153
 20
147.886
 10
184.207
 20
147.85
 10
184.257
 20
147.807
 10
184.3
 20
147.757
 10
184.336
 20
147.703
 10
184.365
 20
147.644
 10
184.386
 20
147.582
 10
184.399
 20
147.518
 97
0
 75
0
 76
1
 98
0
  0
LWPOLYLINE
  5
7B
330
17
100
AcDbEntity
  8
CUT
100
AcDbPolyline
 90
36
 70
1
 10
200.703
 20
153.643
 10
261.704
 20
153.643
 10
264.844
 20
153.643
 10
264.844
 20
151.263
 10
261.744
 20
151.263
 10
261.744
 20
149.043
 10
264.844
 20
149.043
 10
264.844
 20
146.663
 10
261.704
 20
146.663
 10
256.198
 20
146.663
 10
256.198
 20
143.563
 10
250.573
 20
143.563
 10
250.573
 20
146.663
 10
245.107
 20
146.663
 10
245.107
 20
143.563
 10
239.482
 20
143.563
 10
239.482
 20
146.663
 10
234.016
 20
146.663
 10
234.016
 20
143.563
 10
228.391
 20
143.563
 10
228.391
 20
146.663
 10
222.925
 20
146.663
 10
222.925
 20
143.563
 10
217.3
 20
143.563
 10
217.3
 20
146.663
 10
211.834
 20
146.663
 10
211.834
 20
143.563
 10
206.209
 20
143.563
 10
206.209
 20
146.663
 10
200.703
 20
146.663
 10
197.563
 20
146.663
 10
197.563
 20
149.043
 10
200.663
 20
149.043
 10
200.663
 20
151.263
 10
197.563
 20
151.263
 10
197.563
 20
153.643
  0
LWPOLYLINE
  5
7C
330
17
100
AcDbEntity
  8
CUT
100
AcDbPolyline
 90
4
 70
1
 10
205.743
 20
151.213
 10
256.664
 20
151.213
 10
256.664
 20
149.093
 10
205.743
 20
149.093
  0
HATCH
  5
7D
330
17
100
AcDbEntity
  8
RASTER
 62
7
100
AcDbHatch
 10
0.0
 20
0.0
 30
0.0
210
0.0
220
0.0
230
1.0
  2
SOLID
 70
1
 71
0
 91
1
 92
3
 72
0
 73
1
 93
4
 10
201.303
 20
153.203
 10
205.103
 20
153.203
 10
205.103
 20
147.103
 10
201.303
 20
147.103
 97
0
 75
0
 76
1
 98
0
  0
HATCH
  5
7E
330
17
100
AcDbEntity
  8
RASTER
 62
7
100
AcDbHatch
 10
0.0
 20
0.0
 30
0.0
210
0.0
220
0.0
230
1.0
  2
SOLID
 70
1
 71
0
 91
1
 92
3
 72
0
 73
1
 93
4
 10
257.304
 20
153.203
 10
261.104
 20
153.203
 10
261.104
 20
147.103
 10
257.304
 20
147.103
 97
0
 75
0
 76
1
 98
0
  0
HATCH
  5
7F
330
17
100
AcDbEntity
  8
RASTER
 62
7
100
AcDbHatch
 10
0.0
 20
0.0
 30
0.0
210
0.0
220
0.0
230
1.0
  2
SOLID
 70
1
 71
0
 91
1
 92
3
 72
0
 73
1
 93
48
 10
207.803
 20
152.853
 10
207.799
 20
152.788
 10
207.786
 20
152.724
 10
207.765
 20
152.662
 10
207.736
 20
152.603
 10
207.7
 20
152.549
 10
207.657
 20
152.499
 10
207.607
 20
152.456
 10
207.553
 20
152.42
 10
207.494
 20
152.391
 10
207.432
 20
152.37
 10
207.368
 20
152.357
 10
207.303
 20
152.353
 10
207.238
 20
152.357
 10
207.174
 20
152.37
 10
207.112
 20
152.391
 10
207.053
 20
152.42
 10
206.999
 20
152.456
 10
206.949
 20
152.499
 10
206.906
 20
152.549
 10
206.87
 20
152.603
 10
206.841
 20
152.662
 10
206.82
 20
152.724
 10
206.807
 20
152.788
 10
206.803
 20
152.853
 10
206.807
 20
152.918
 10
206.82
 20
152.982
 10
206.841
 20
153.044
 10
206.87
 20
153.103
 10
206.906
 20
153.157
 10
206.949
 20
153.207
 10
206.999
 20
153.25
 10
207.053
 20
153.286
 10
207.112
 20
153.315
 10
207.174
 20
153.336
 10
207.238
 20
153.349
 10
207.303
 20
153.353
 10
207.368
 20
153.349
 10
207.432
 20
153.336
 10
207.494
 20
153.315
 10
207.553
 20
153.286
 10
207.607
 20
153.25
 10
207.657
 20
153.207
 10
207.7
 20
153.157
 10
207.736
 20
153.103
 10
207.765
 20
153.044
 10
207.786
 20
152.982
 10
207.799
 20
152.918
 97
0
 75
0
 76
1
 98
0
  0
HATCH
  5
80
330
17
100
AcDbEntity
  8
RASTER
 62
7
100
AcDbHatch
 10
0.0
 20
0.0
 30
0.0
210
0.0
220
0.0
230
1.0
  2
SOLID
 70
1
 71
0
 91
1
 92
3
 72
0
 73
1
 93
48
 10
255.604
 20
152.853
 10
255.6
 20
152.788
 10
255.587
 20
152.724
 10
255.566
 20
152.662
 10
255.537
 20
152.603
 10
255.501
 20
152.549
 10
255.458
 20
152.499
 10
255.408
 20
152.456
 10
255.354
 20
152.42
 10
255.295
 20
152.391
 10
255.233
 20
152.37
 10
255.169
 20
152.357
 10
255.104
 20
152.353
 10
255.039
 20
152.357
 10
254.975
 20
152.37
 10
254.913
 20
152.391
 10
254.854
 20
152.42
 10
254.8
 20
152.456
 10
254.75
 20
152.499
 10
254.707
 20
152.549
 10
254.671
 20
152.603
 10
254.642
 20
152.662
 10
254.621
 20
152.724
 10
254.608
 20
152.788
 10
254.604
 20
152.853
 10
254.608
 20
152.918
 10
254.621
 20
152.982
 10
254.642
 20
153.044
 10
254.671
 20
153.103
 10
254.707
 20
153.157
 10
254.75
 20
153.207
 10
254.8
 20
153.25
 10
254.854
 20
153.286
 10
254.913
 20
153.315
 10
254.975
 20
153.336
 10
255.039
 20
153.349
 10
255.104
 20
153.353
 10
255.169
 20
153.349
 10
255.233
 20
153.336
 10
255.295
 20
153.315
 10
255.354
 20
153.286
 10
255.408
 20
153.25
 10
255.458
 20
153.207
 10
255.501
 20
153.157
 10
255.537
 20
153.103
 10
255.566
 20
153.044
 10
255.587
 20
152.982
 10
255.6
 20
152.918
 97
0
 75
0
 76
1
 98
0
  0
HATCH
  5
81
330
17
100
AcDbEntity
  8
RASTER
 62
7
100
AcDbHatch
 10
0.0
 20
0.0
 30
0.0
210
0.0
220
0.0
230
1.0
  2
SOLID
 70
1
 71
0
 91
1
 92
3
 72
0
 73
1
 93
48
 10
207.803
 20
147.453
 10
207.799
 20
147.388
 10
207.786
 20
147.324
 10
207.765
 20
147.262
 10
207.736
 20
147.203
 10
207.7
 20
147.149
 10
207.657
 20
147.099
 10
207.607
 20
147.056
 10
207.553
 20
147.02
 10
207.494
 20
146.991
 10
207.432
 20
146.97
 10
207.368
 20
146.957
 10
207.303
 20
146.953
 10
207.238
 20
146.957
 10
207.174
 20
146.97
 10
207.112
 20
146.991
 10
207.053
 20
147.02
 10
206.999
 20
147.056
 10
206.949
 20
147.099
 10
206.906
 20
147.149
 10
206.87
 20
147.203
 10
206.841
 20
147.262
 10
206.82
 20
147.324
 10
206.807
 20
147.388
 10
206.803
 20
147.453
 10
206.807
 20
147.518
 10
206.82
 20
147.582
 10
206.841
 20
147.644
 10
206.87
 20
147.703
 10
206.906
 20
147.757
 10
206.949
 20
147.807
 10
206.999
 20
147.85
 10
207.053
 20
147.886
 10
207.112
 20
147.915
 10
207.174
 20
147.936
 10
207.238
 20
147.949
 10
207.303
 20
147.953
 10
207.368
 20
147.949
 10
207.432
 20
147.936
 10
207.494
 20
147.915
 10
207.553
 20
147.886
 10
207.607
 20
147.85
 10
207.657
 20
147.807
 10
207.7
 20
147.757
 10
207.736
 20
147.703
 10
207.765
 20
147.644
 10
207.786
 20
147.582
 10
207.799
 20
147.518
 97
0
 75
0
 76
1
 98
0
  0
HATCH
  5
82
330
17
100
AcDbEntity
  8
RASTER
 62
7
100
AcDbHatch
 10
0.0
 20
0.0
 30
0.0
210
0.0
220
0.0
230
1.0
  2
SOLID
 70
1
 71
0
 91
1
 92
3
 72
0
 73
1
 93
48
 10
255.604
 20
147.453
 10
255.6
 20
147.388
 10
255.587
 20
147.324
 10
255.566
 20
147.262
 10
255.537
 20
147.203
 10
255.501
 20
147.149
 10
255.458
 20
147.099
 10
255.408
 20
147.056
 10
255.354
 20
147.02
 10
255.295
 20
146.991
 10
255.233
 20
146.97
 10
255.169
 20
146.957
 10
255.104
 20
146.953
 10
255.039
 20
146.957
 10
254.975
 20
146.97
 10
254.913
 20
146.991
 10
254.854
 20
147.02
 10
254.8
 20
147.056
 10
254.75
 20
147.099
 10
254.707
 20
147.149
 10
254.671
 20
147.203
 10
254.642
 20
147.262
 10
254.621
 20
147.324
 10
254.608
 20
147.388
 10
254.604
 20
147.453
 10
254.608
 20
147.518
 10
254.621
 20
147.582
 10
254.642
 20
147.644
 10
254.671
 20
147.703
 10
254.707
 20
147.757
 10
254.75
 20
147.807
 10
254.8
 20
147.85
 10
254.854
 20
147.886
 10
254.913
 20
147.915
 10
254.975
 20
147.936
 10
255.039
 20
147.949
 10
255.104
 20
147.953
 10
255.169
 20
147.949
 10
255.233
 20
147.936
 10
255.295
 20
147.915
 10
255.354
 20
147.886
 10
255.408
 20
147.85
 10
255.458
 20
147.807
 10
255.501
 20
147.757
 10
255.537
 20
147.703
 10
255.566
 20
147.644
 10
255.587
 20
147.582
 10
255.6
 20
147.518
 97
0
 75
0
 76
1
 98
0
  0
LWPOLYLINE
  5
83
330
17
100
AcDbEntity
  8
CUT
100
AcDbPolyline
 90
24
 70
1
 10
7.06
 20
102.442
 10
48.141
 20
102.442
 10
48.141
 20
100.142
 10
51.241
 20
100.142
 10
51.241
 20
97.762
 10
48.141
 20
97.762
 10
48.141
 20
95.462
 10
42.284
 20
95.462
 10
42.284
 20
92.362
 10
36.346
 20
92.362
 10
36.346
 20
95.462
 10
30.569
 20
95.462
 10
30.569
 20
92.362
 10
24.632
 20
92.362
 10
24.632
 20
95.462
 10
18.855
 20
95.462
 10
18.855
 20
92.362
 10
12.917
 20
92.362
 10
12.917
 20
95.462
 10
7.06
 20
95.462
 10
7.06
 20
97.762
 10
3.96
 20
97.762
 10
3.96
 20
100.142
 10
7.06
 20
100.142
  0
LWPOLYLINE
  5
84
330
17
100
AcDbEntity
  8
CUT
100
AcDbPolyline
 90
4
 70
1
 10
12.14
 20
100.012
 10
43.061
 20
100.012
 10
43.061
 20
97.892
 10
12.14
 20
97.892
  0
HATCH
  5
85
330
17
100
AcDbEntity
  8
RASTER
 62
7
100
AcDbHatch
 10
0.0
 20
0.0
 30
0.0
210
0.0
220
0.0
230
1.0
  2
SOLID
 70
1
 71
0
 91
1
 92
3
 72
0
 73
1
 93
4
 10
7.7
 20
102.002
 10
11.5
 20
102.002
 10
11.5
 20
95.902
 10
7.7
 20
95.902
 97
0
 75
0
 76
1
 98
0
  0
HATCH
  5
86
330
17
100
AcDbEntity
  8
RASTER
 62
7
100
AcDbHatch
 10
0.0
 20
0.0
 30
0.0
210
0.0
220
0.0
230
1.0
  2
SOLID
 70
1
 71
0
 91
1
 92
3
 72
0
 73
1
 93
4
 10
43.701
 20
102.002
 10
47.501
 20
102.002
 10
47.501
 20
95.902
 10
43.701
 20
95.902
 97
0
 75
0
 76
1
 98
0
  0
HATCH
  5
87
330
17
100
AcDbEntity
  8
RASTER
 62
7
100
AcDbHatch
 10
0.0
 20
0.0
 30
0.0
210
0.0
220
0.0
230
1.0
  2
SOLID
 70
1
 71
0
 91
1
 92
3
 72
0
 73
1
 93
48
 10
14.2
 20
101.652
 10
14.196
 20
101.587
 10
14.183
 20
101.523
 10
14.162
 20
101.461
 10
14.133
 20
101.402
 10
14.097
 20
101.348
 10
14.054
 20
101.298
 10
14.004
 20
101.255
 10
13.95
 20
101.219
 10
13.891
 20
101.19
 10
13.829
 20
101.169
 10
13.765
 20
101.156
 10
13.7
 20
101.152
 10
13.635
 20
101.156
 10
13.571
 20
101.169
 10
13.509
 20
101.19
 10
13.45
 20
101.219
 10
13.396
 20
101.255
 10
13.346
 20
101.298
 10
13.303
 20
101.348
 10
13.267
 20
101.402
 10
13.238
 20
101.461
 10
13.217
 20
101.523
 10
13.204
 20
101.587
 10
13.2
 20
101.652
 10
13.204
 20
101.717
 10
13.217
 20
101.781
 10
13.238
 20
101.843
 10
13.267
 20
101.902
 10
13.303
 20
101.956
 10
13.346
 20
102.006
 10
13.396
 20
102.049
 10
13.45
 20
102.085
 10
13.509
 20
102.114
 10
13.571
 20
102.135
 10
13.635
 20
102.148
 10
13.7
 20
102.152
 10
13.765
 20
102.148
 10
13.829
 20
102.135
 10
13.891
 20
102.114
 10
13.95
 20
102.085
 10
14.004
 20
102.049
 10
14.054
 20
102.006
 10
14.097
 20
101.956
 10
14.133
 20
101.902
 10
14.162
 20
101.843
 10
14.183
 20
101.781
 10
14.196
 20
101.717
 97
0
 75
0
 76
1
 98
0
  0
HATCH
  5
88
330
17
100
AcDbEntity
  8
RASTER
 62
7
100
AcDbHatch
 10
0.0
 20
0.0
 30
0.0
210
0.0
220
0.0
230
1.0
  2
SOLID
 70
1
 71
0
 91
1
 92
3
 72
0
 73
1
 93
48
 10
42.001
 20
101.652
 10
41.997
 20
101.587
 10
41.984
 20
101.523
 10
41.963
 20
101.461
 10
41.934
 20
101.402
 10
41.898
 20
101.348
 10
41.855
 20
101.298
 10
41.805
 20
101.255
 10
41.751
 20
101.219
 10
41.692
 20
101.19
 10
41.63
 20
101.169
 10
41.566
 20
101.156
 10
41.501
 20
101.152
 10
41.436
 20
101.156
 10
41.372
 20
101.169
 10
41.31
 20
101.19
 10
41.251
 20
101.219
 10
41.197
 20
101.255
 10
41.147
 20
101.298
 10
41.104
 20
101.348
 10
41.068
 20
101.402
 10
41.039
 20
101.461
 10
41.018
 20
101.523
 10
41.005
 20
101.587
 10
41.001
 20
101.652
 10
41.005
 20
101.717
 10
41.018
 20
101.781
 10
41.039
 20
101.843
 10
41.068
 20
101.902
 10
41.104
 20
101.956
 10
41.147
 20
102.006
 10
41.197
 20
102.049
 10
41.251
 20
102.085
 10
41.31
 20
102.114
 10
41.372
 20
102.135
 10
41.436
 20
102.148
 10
41.501
 20
102.152
 10
41.566
 20
102.148
 10
41.63
 20
102.135
 10
41.692
 20
102.114
 10
41.751
 20
102.085
 10
41.805
 20
102.049
 10
41.855
 20
102.006
 10
41.898
 20
101.956
 10
41.934
 20
101.902
 10
41.963
 20
101.843
 10
41.984
 20
101.781
 10
41.997
 20
101.717
 97
0
 75
0
 76
1
 98
0
  0
HATCH
  5
89
330
17
100
AcDbEntity
  8
RASTER
 62
7
100
AcDbHatch
 10
0.0
 20
0.0
 30
0.0
210
0.0
220
0.0
230
1.0
  2
SOLID
 70
1
 71
0
 91
1
 92
3
 72
0
 73
1
 93
48
 10
14.2
 20
96.252
 10
14.196
 20
96.187
 10
14.183
 20
96.123
 10
14.162
 20
96.061
 10
14.133
 20
96.002
 10
14.097
 20
95.948
 10
14.054
 20
95.898
 10
14.004
 20
95.855
 10
13.95
 20
95.819
 10
13.891
 20
95.79
 10
13.829
 20
95.769
 10
13.765
 20
95.756
 10
13.7
 20
95.752
 10
13.635
 20
95.756
 10
13.571
 20
95.769
 10
13.509
 20
95.79
 10
13.45
 20
95.819
 10
13.396
 20
95.855
 10
13.346
 20
95.898
 10
13.303
 20
95.948
 10
13.267
 20
96.002
 10
13.238
 20
96.061
 10
13.217
 20
96.123
 10
13.204
 20
96.187
 10
13.2
 20
96.252
 10
13.204
 20
96.317
 10
13.217
 20
96.381
 10
13.238
 20
96.443
 10
13.267
 20
96.502
 10
13.303
 20
96.556
 10
13.346
 20
96.606
 10
13.396
 20
96.649
 10
13.45
 20
96.685
 10
13.509
 20
96.714
 10
13.571
 20
96.735
 10
13.635
 20
96.748
 10
13.7
 20
96.752
 10
13.765
 20
96.748
 10
13.829
 20
96.735
 10
13.891
 20
96.714
 10
13.95
 20
96.685
 10
14.004
 20
96.649
 10
14.054
 20
96.606
 10
14.097
 20
96.556
 10
14.133
 20
96.502
 10
14.162
 20
96.443
 10
14.183
 20
96.381
 10
14.196
 20
96.317
 97
0
 75
0
 76
1
 98
0
  0
HATCH
  5
8A
330
17
100
AcDbEntity
  8
RASTER
 62
7
100
AcDbHatch
 10
0.0
 20
0.0
 30
0.0
210
0.0
220
0.0
230
1.0
  2
SOLID
 70
1
 71
0
 91
1
 92
3
 72
0
 73
1
 93
48
 10
42.001
 20
96.252
 10
41.997
 20
96.187
 10
41.984
 20
96.123
 10
41.963
 20
96.061
 10
41.934
 20
96.002
 10
41.898
 20
95.948
 10
41.855
 20
95.898
 10
41.805
 20
95.855
 10
41.751
 20
95.819
 10
41.692
 20
95.79
 10
41.63
 20
95.769
 10
41.566
 20
95.756
 10
41.501
 20
95.752
 10
41.436
 20
95.756
 10
41.372
 20
95.769
 10
41.31
 20
95.79
 10
41.251
 20
95.819
 10
41.197
 20
95.855
 10
41.147
 20
95.898
 10
41.104
 20
95.948
 10
41.068
 20
96.002
 10
41.039
 20
96.061
 10
41.018
 20
96.123
 10
41.005
 20
96.187
 10
41.001
 20
96.252
 10
41.005
 20
96.317
 10
41.018
 20
96.381
 10
41.039
 20
96.443
 10
41.068
 20
96.502
 10
41.104
 20
96.556
 10
41.147
 20
96.606
 10
41.197
 20
96.649
 10
41.251
 20
96.685
 10
41.31
 20
96.714
 10
41.372
 20
96.735
 10
41.436
 20
96.748
 10
41.501
 20
96.752
 10
41.566
 20
96.748
 10
41.63
 20
96.735
 10
41.692
 20
96.714
 10
41.751
 20
96.685
 10
41.805
 20
96.649
 10
41.855
 20
96.606
 10
41.898
 20
96.556
 10
41.934
 20
96.502
 10
41.963
 20
96.443
 10
41.984
 20
96.381
 10
41.997
 20
96.317
 97
0
 75
0
 76
1
 98
0
  0
LWPOLYLINE
  5
8B
330
17
100
AcDbEntity
  8
CUT
100
AcDbPolyline
 90
24
 70
1
 10
58.261
 20
102.442
 10
99.342
 20
102.442
 10
99.342
 20
100.142
 10
102.442
 20
100.142
 10
102.442
 20
97.762
 10
99.342
 20
97.762
 10
99.342
 20
95.462
 10
93.485
 20
95.462
 10
93.485
 20
92.362
 10
87.547
 20
92.362
 10
87.547
 20
95.462
 10
81.77
 20
95.462
 10
81.77
 20
92.362
 10
75.833
 20
92.362
 10
75.833
 20
95.462
 10
70.056
 20
95.462
 10
70.056
 20
92.362
 10
64.118
 20
92.362
 10
64.118
 20
95.462
 10
58.261
 20
95.462
 10
58.261
 20
97.762
 10
55.161
 20
97.762
 10
55.161
 20
100.142
 10
58.261
 20
100.142
  0
LWPOLYLINE
  5
8C
330
17
100
AcDbEntity
  8
CUT
100
AcDbPolyline
 90
4
 70
1
 10
63.341
 20
100.012
 10
94.262
 20
100.012
 10
94.262
 20
97.892
 10
63.341
 20
97.892
  0
HATCH
  5
8D
330
17
100
AcDbEntity
  8
RASTER
 62
7
100
AcDbHatch
 10
0.0
 20
0.0
 30
0.0
210
0.0
220
0.0
230
1.0
  2
SOLID
 70
1
 71
0
 91
1
 92
3
 72
0
 73
1
 93
4
 10
58.901
 20
102.002
 10
62.701
 20
102.002
 10
62.701
 20
95.902
 10
58.901
 20
95.902
 97
0
 75
0
 76
1
 98
0
  0
HATCH
  5
8E
330
17
100
AcDbEntity
  8
RASTER
 62
7
100
AcDbHatch
 10
0.0
 20
0.0
 30
0.0
210
0.0
220
0.0
230
1.0
  2
SOLID
 70
1
 71
0
 91
1
 92
3
 72
0
 73
1
 93
4
 10
94.902
 20
102.002
 10
98.702
 20
102.002
 10
98.702
 20
95.902
 10
94.902
 20
95.902
 97
0
 75
0
 76
1
 98
0
  0
HATCH
  5
8F
330
17
100
AcDbEntity
  8
RASTER
 62
7
100
AcDbHatch
 10
0.0
 20
0.0
 30
0.0
210
0.0
220
0.0
230
1.0
  2
SOLID
 70
1
 71
0
 91
1
 92
3
 72
0
 73
1
 93
48
 10
65.401
 20
101.652
 10
65.397
 20
101.587
 10
65.384
 20
101.523
 10
65.363
 20
101.461
 10
65.334
 20
101.402
 10
65.298
 20
101.348
 10
65.255
 20
101.298
 10
65.205
 20
101.255
 10
65.151
 20
101.219
 10
65.092
 20
101.19
 10
65.03
 20
101.169
 10
64.966
 20
101.156
 10
64.901
 20
101.152
 10
64.836
 20
101.156
 10
64.772
 20
101.169
 10
64.71
 20
101.19
 10
64.651
 20
101.219
 10
64.597
 20
101.255
 10
64.547
 20
101.298
 10
64.504
 20
101.348
 10
64.468
 20
101.402
 10
64.439
 20
101.461
 10
64.418
 20
101.523
 10
64.405
 20
101.587
 10
64.401
 20
101.652
 10
64.405
 20
101.717
 10
64.418
 20
101.781
 10
64.439
 20
101.843
 10
64.468
 20
101.902
 10
64.504
 20
101.956
 10
64.547
 20
102.006
 10
64.597
 20
102.049
 10
64.651
 20
102.085
 10
64.71
 20
102.114
 10
64.772
 20
102.135
 10
64.836
 20
102.148
 10
64.901
 20
102.152
 10
64.966
 20
102.148
 10
65.03
 20
102.135
 10
65.092
 20
102.114
 10
65.151
 20
102.085
 10
65.205
 20
102.049
 10
65.255
 20
102.006
 10
65.298
 20
101.956
 10
65.334
 20
101.902
 10
65.363
 20
101.843
 10
65.384
 20
101.781
 10
65.397
 20
101.717
 97
0
 75
0
 76
1
 98
0
  0
HATCH
  5
90
330
17
100
AcDbEntity
  8
RASTER
 62
7
100
AcDbHatch
 10
0.0
 20
0.0
 30
0.0
210
0.0
220
0.0
230
1.0
  2
SOLID
 70
1
 71
0
 91
1
 92
3
 72
0
 73
1
 93
48
 10
93.202
 20
101.652
 10
93.198
 20
101.587
 10
93.185
 20
101.523
 10
93.164
 20
101.461
 10
93.135
 20
101.402
 10
93.099
 20
101.348
 10
93.056
 20
101.298
 10
93.006
 20
101.255
 10
92.952
 20
101.219
 10
92.893
 20
101.19
 10
92.831
 20
101.169
 10
92.767
 20
101.156
 10
92.702
 20
101.152
 10
92.637
 20
101.156
 10
92.573
 20
101.169
 10
92.511
 20
101.19
 10
92.452
 20
101.219
 10
92.398
 20
101.255
 10
92.348
 20
101.298
 10
92.305
 20
101.348
 10
92.269
 20
101.402
 10
92.24
 20
101.461
 10
92.219
 20
101.523
 10
92.206
 20
101.587
 10
92.202
 20
101.652
 10
92.206
 20
101.717
 10
92.219
 20
101.781
 10
92.24
 20
101.843
 10
92.269
 20
101.902
 10
92.305
 20
101.956
 10
92.348
 20
102.006
 10
92.398
 20
102.049
 10
92.452
 20
102.085
 10
92.511
 20
102.114
 10
92.573
 20
102.135
 10
92.637
 20
102.148
 10
92.702
 20
102.152
 10
92.767
 20
102.148
 10
92.831
 20
102.135
 10
92.893
 20
102.114
 10
92.952
 20
102.085
 10
93.006
 20
102.049
 10
93.056
 20
102.006
 10
93.099
 20
101.956
 10
93.135
 20
101.902
 10
93.164
 20
101.843
 10
93.185
 20
101.781
 10
93.198
 20
101.717
 97
0
 75
0
 76
1
 98
0
  0
HATCH
  5
91
330
17
100
AcDbEntity
  8
RASTER
 62
7
100
AcDbHatch
 10
0.0
 20
0.0
 30
0.0
210
0.0
220
0.0
230
1.0
  2
SOLID
 70
1
 71
0
 91
1
 92
3
 72
0
 73
1
 93
48
 10
65.401
 20
96.252
 10
65.397
 20
96.187
 10
65.384
 20
96.123
 10
65.363
 20
96.061
 10
65.334
 20
96.002
 10
65.298
 20
95.948
 10
65.255
 20
95.898
 10
65.205
 20
95.855
 10
65.151
 20
95.819
 10
65.092
 20
95.79
 10
65.03
 20
95.769
 10
64.966
 20
95.756
 10
64.901
 20
95.752
 10
64.836
 20
95.756
 10
64.772
 20
95.769
 10
64.71
 20
95.79
 10
64.651
 20
95.819
 10
64.597
 20
95.855
 10
64.547
 20
95.898
 10
64.504
 20
95.948
 10
64.468
 20
96.002
 10
64.439
 20
96.061
 10
64.418
 20
96.123
 10
64.405
 20
96.187
 10
64.401
 20
96.252
 10
64.405
 20
96.317
 10
64.418
 20
96.381
 10
64.439
 20
96.443
 10
64.468
 20
96.502
 10
64.504
 20
96.556
 10
64.547
 20
96.606
 10
64.597
 20
96.649
 10
64.651
 20
96.685
 10
64.71
 20
96.714
 10
64.772
 20
96.735
 10
64.836
 20
96.748
 10
64.901
 20
96.752
 10
64.966
 20
96.748
 10
65.03
 20
96.735
 10
65.092
 20
96.714
 10
65.151
 20
96.685
 10
65.205
 20
96.649
 10
65.255
 20
96.606
 10
65.298
 20
96.556
 10
65.334
 20
96.502
 10
65.363
 20
96.443
 10
65.384
 20
96.381
 10
65.397
 20
96.317
 97
0
 75
0
 76
1
 98
0
  0
HATCH
  5
92
330
17
100
AcDbEntity
  8
RASTER
 62
7
100
AcDbHatch
 10
0.0
 20
0.0
 30
0.0
210
0.0
220
0.0
230
1.0
  2
SOLID
 70
1
 71
0
 91
1
 92
3
 72
0
 73
1
 93
48
 10
93.202
 20
96.252
 10
93.198
 20
96.187
 10
93.185
 20
96.123
 10
93.164
 20
96.061
 10
93.135
 20
96.002
 10
93.099
 20
95.948
 10
93.056
 20
95.898
 10
93.006
 20
95.855
 10
92.952
 20
95.819
 10
92.893
 20
95.79
 10
92.831
 20
95.769
 10
92.767
 20
95.756
 10
92.702
 20
95.752
 10
92.637
 20
95.756
 10
92.573
 20
95.769
 10
92.511
 20
95.79
 10
92.452
 20
95.819
 10
92.398
 20
95.855
 10
92.348
 20
95.898
 10
92.305
 20
95.948
 10
92.269
 20
96.002
 10
92.24
 20
96.061
 10
92.219
 20
96.123
 10
92.206
 20
96.187
 10
92.202
 20
96.252
 10
92.206
 20
96.317
 10
92.219
 20
96.381
 10
92.24
 20
96.443
 10
92.269
 20
96.502
 10
92.305
 20
96.556
 10
92.348
 20
96.606
 10
92.398
 20
96.649
 10
92.452
 20
96.685
 10
92.511
 20
96.714
 10
92.573
 20
96.735
 10
92.637
 20
96.748
 10
92.702
 20
96.752
 10
92.767
 20
96.748
 10
92.831
 20
96.735
 10
92.893
 20
96.714
 10
92.952
 20
96.685
 10
93.006
 20
96.649
 10
93.056
 20
96.606
 10
93.099
 20
96.556
 10
93.135
 20
96.502
 10
93.164
 20
96.443
 10
93.185
 20
96.381
 10
93.198
 20
96.317
 97
0
 75
0
 76
1
 98
0
  0
LWPOLYLINE
  5
93
330
17
100
AcDbEntity
  8
CUT
100
AcDbPolyline
 90
76
 70
1
 10
106.362
 20
102.442
 10
109.502
 20
102.442
 10
115.088
 20
102.442
 10
115.088
 20
99.342
 10
120.553
 20
99.342
 10
120.553
 20
102.442
 10
126.179
 20
102.442
 10
126.179
 20
99.342
 10
131.644
 20
99.342
 10
131.644
 20
102.442
 10
137.27
 20
102.442
 10
137.27
 20
99.342
 10
142.735
 20
99.342
 10
142.735
 20
102.442
 10
148.361
 20
102.442
 10
148.361
 20
99.342
 10
153.826
 20
99.342
 10
153.826
 20
102.442
 10
159.452
 20
102.442
 10
159.452
 20
99.342
 10
164.917
 20
99.342
 10
164.917
 20
102.442
 10
170.503
 20
102.442
 10
173.643
 20
102.442
 10
173.643
 20
99.302
 10
173.643
 20
93.405
 10
170.543
 20
93.405
 10
170.543
 20
87.627
 10
173.643
 20
87.627
 10
173.643
 20
81.69
 10
170.543
 20
81.69
 10
170.543
 20
75.913
 10
173.643
 20
75.913
 10
173.643
 20
69.976
 10
170.543
 20
69.976
 10
170.543
 20
64.198
 10
173.643
 20
64.198
 10
173.643
 20
58.301
 10
173.643
 20
55.161
 10
170.503
 20
55.161
 10
164.917
 20
55.161
 10
164.917
 20
58.261
 10
159.452
 20
58.261
 10
159.452
 20
55.161
 10
153.826
 20
55.161
 10
153.826
 20
58.261
 10
148.361
 20
58.261
 10
148.361
 20
55.161
 10
142.735
 20
55.161
 10
142.735
 20
58.261
 10
137.27
 20
58.261
 10
137.27
 20
55.161
 10
131.644
 20
55.161
 10
131.644
 20
58.261
 10
126.179
 20
58.261
 10
126.179
 20
55.161
 10
120.553
 20
55.161
 10
120.553
 20
58.261
 10
115.088
 20
58.261
 10
115.088
 20
55.161
 10
109.502
 20
55.161
 10
106.362
 20
55.161
 10
106.362
 20
58.301
 10
106.362
 20
64.198
 10
109.462
 20
64.198
 10
109.462
 20
69.976
 10
106.362
 20
69.976
 10
106.362
 20
75.913
 10
109.462
 20
75.913
 10
109.462
 20
81.69
 10
106.362
 20
81.69
 10
106.362
 20
87.627
 10
109.462
 20
87.627
 10
109.462
 20
93.405
 10
106.362
 20
93.405
 10
106.362
 20
99.302
  0
LWPOLYLINE
  5
94
330
17
100
AcDbEntity
  8
CUT
100
AcDbPolyline
 90
36
 70
1
 10
180.703
 20
102.442
 10
241.704
 20
102.442
 10
244.844
 20
102.442
 10
244.844
 20
100.062
 10
241.744
 20
100.062
 10
241.744
 20
97.842
 10
244.844
 20
97.842
 10
244.844
 20
95.462
 10
241.704
 20
95.462
 10
236.198
 20
95.462
 10
236.198
 20
92.362
 10
230.573
 20
92.362
 10
230.573
 20
95.462
 10
225.107
 20
95.462
 10
225.107
 20
92.362
 10
219.482
 20
92.362
 10
219.482
 20
95.462
 10
214.016
 20
95.462
 10
214.016
 20
92.362
 10
208.391
 20
92.362
 10
208.391
 20
95.462
 10
202.925
 20
95.462
 10
202.925
 20
92.362
 10
197.3
 20
92.362
 10
197.3
 20
95.462
 10
191.834
 20
95.462
 10
191.834
 20
92.362
 10
186.209
 20
92.362
 10
186.209
 20
95.462
 10
180.703
 20
95.462
 10
177.563
 20
95.462
 10
177.563
 20
97.842
 10
180.663
 20
97.842
 10
180.663
 20
100.062
 10
177.563
 20
100.062
 10
177.563
 20
102.442
  0
LWPOLYLINE
  5
95
330
17
100
AcDbEntity
  8
CUT
100
AcDbPolyline
 90
4
 70
1
 10
185.743
 20
100.012
 10
236.664
 20
100.012
 10
236.664
 20
97.892
 10
185.743
 20
97.892
  0
HATCH
  5
96
330
17
100
AcDbEntity
  8
RASTER
 62
7
100
AcDbHatch
 10
0.0
 20
0.0
 30
0.0
210
0.0
220
0.0
230
1.0
  2
SOLID
 70
1
 71
0
 91
1
 92
3
 72
0
 73
1
 93
4
 10
181.303
 20
102.002
 10
185.103
 20
102.002
 10
185.103
 20
95.902
 10
181.303
 20
95.902
 97
0
 75
0
 76
1
 98
0
  0
HATCH
  5
97
330
17
100
AcDbEntity
  8
RASTER
 62
7
100
AcDbHatch
 10
0.0
 20
0.0
 30
0.0
210
0.0
220
0.0
230
1.0
  2
SOLID
 70
1
 71
0
 91
1
 92
3
 72
0
 73
1
 93
4
 10
237.304
 20
102.002
 10
241.104
 20
102.002
 10
241.104
 20
95.902
 10
237.304
 20
95.902
 97
0
 75
0
 76
1
 98
0
  0
HATCH
  5
98
330
17
100
AcDbEntity
  8
RASTER
 62
7
100
AcDbHatch
 10
0.0
 20
0.0
 30
0.0
210
0.0
220
0.0
230
1.0
  2
SOLID
 70
1
 71
0
 91
1
 92
3
 72
0
 73
1
 93
48
 10
187.803
 20
101.652
 10
187.799
 20
101.587
 10
187.786
 20
101.523
 10
187.765
 20
101.461
 10
187.736
 20
101.402
 10
187.7
 20
101.348
 10
187.657
 20
101.298
 10
187.607
 20
101.255
 10
187.553
 20
101.219
 10
187.494
 20
101.19
 10
187.432
 20
101.169
 10
187.368
 20
101.156
 10
187.303
 20
101.152
 10
187.238
 20
101.156
 10
187.174
 20
101.169
 10
187.112
 20
101.19
 10
187.053
 20
101.219
 10
186.999
 20
101.255
 10
186.949
 20
101.298
 10
186.906
 20
101.348
 10
186.87
 20
101.402
 10
186.841
 20
101.461
 10
186.82
 20
101.523
 10
186.807
 20
101.587
 10
186.803
 20
101.652
 10
186.807
 20
101.717
 10
186.82
 20
101.781
 10
186.841
 20
101.843
 10
186.87
 20
101.902
 10
186.906
 20
101.956
 10
186.949
 20
102.006
 10
186.999
 20
102.049
 10
187.053
 20
102.085
 10
187.112
 20
102.114
 10
187.174
 20
102.135
 10
187.238
 20
102.148
 10
187.303
 20
102.152
 10
187.368
 20
102.148
 10
187.432
 20
102.135
 10
187.494
 20
102.114
 10
187.553
 20
102.085
 10
187.607
 20
102.049
 10
187.657
 20
102.006
 10
187.7
 20
101.956
 10
187.736
 20
101.902
 10
187.765
 20
101.843
 10
187.786
 20
101.781
 10
187.799
 20
101.717
 97
0
 75
0
 76
1
 98
0
  0
HATCH
  5
99
330
17
100
AcDbEntity
  8
RASTER
 62
7
100
AcDbHatch
 10
0.0
 20
0.0
 30
0.0
210
0.0
220
0.0
230
1.0
  2
SOLID
 70
1
 71
0
 91
1
 92
3
 72
0
 73
1
 93
48
 10
235.604
 20
101.652
 10
235.6
 20
101.587
 10
235.587
 20
101.523
 10
235.566
 20
101.461
 10
235.537
 20
101.402
 10
235.501
 20
101.348
 10
235.458
 20
101.298
 10
235.408
 20
101.255
 10
235.354
 20
101.219
 10
235.295
 20
101.19
 10
235.233
 20
101.169
 10
235.169
 20
101.156
 10
235.104
 20
101.152
 10
235.039
 20
101.156
 10
234.975
 20
101.169
 10
234.913
 20
101.19
 10
234.854
 20
101.219
 10
234.8
 20
101.255
 10
234.75
 20
101.298
 10
234.707
 20
101.348
 10
234.671
 20
101.402
 10
234.642
 20
101.461
 10
234.621
 20
101.523
 10
234.608
 20
101.587
 10
234.604
 20
101.652
 10
234.608
 20
101.717
 10
234.621
 20
101.781
 10
234.642
 20
101.843
 10
234.671
 20
101.902
 10
234.707
 20
101.956
 10
234.75
 20
102.006
 10
234.8
 20
102.049
 10
234.854
 20
102.085
 10
234.913
 20
102.114
 10
234.975
 20
102.135
 10
235.039
 20
102.148
 10
235.104
 20
102.152
 10
235.169
 20
102.148
 10
235.233
 20
102.135
 10
235.295
 20
102.114
 10
235.354
 20
102.085
 10
235.408
 20
102.049
 10
235.458
 20
102.006
 10
235.501
 20
101.956
 10
235.537
 20
101.902
 10
235.566
 20
101.843
 10
235.587
 20
101.781
 10
235.6
 20
101.717
 97
0
 75
0
 76
1
 98
0
  0
HATCH
  5
9A
330
17
100
AcDbEntity
  8
RASTER
 62
7
100
AcDbHatch
 10
0.0
 20
0.0
 30
0.0
210
0.0
220
0.0
230
1.0
  2
SOLID
 70
1
 71
0
 91
1
 92
3
 72
0
 73
1
 93
48
 10
187.803
 20
96.252
 10
187.799
 20
96.187
 10
187.786
 20
96.123
 10
187.765
 20
96.061
 10
187.736
 20
96.002
 10
187.7
 20
95.948
 10
187.657
 20
95.898
 10
187.607
 20
95.855
 10
187.553
 20
95.819
 10
187.494
 20
95.79
 10
187.432
 20
95.769
 10
187.368
 20
95.756
 10
187.303
 20
95.752
 10
187.238
 20
95.756
 10
187.174
 20
95.769
 10
187.112
 20
95.79
 10
187.053
 20
95.819
 10
186.999
 20
95.855
 10
186.949
 20
95.898
 10
186.906
 20
95.948
 10
186.87
 20
96.002
 10
186.841
 20
96.061
 10
186.82
 20
96.123
 10
186.807
 20
96.187
 10
186.803
 20
96.252
 10
186.807
 20
96.317
 10
186.82
 20
96.381
 10
186.841
 20
96.443
 10
186.87
 20
96.502
 10
186.906
 20
96.556
 10
186.949
 20
96.606
 10
186.999
 20
96.649
 10
187.053
 20
96.685
 10
187.112
 20
96.714
 10
187.174
 20
96.735
 10
187.238
 20
96.748
 10
187.303
 20
96.752
 10
187.368
 20
96.748
 10
187.432
 20
96.735
 10
187.494
 20
96.714
 10
187.553
 20
96.685
 10
187.607
 20
96.649
 10
187.657
 20
96.606
 10
187.7
 20
96.556
 10
187.736
 20
96.502
 10
187.765
 20
96.443
 10
187.786
 20
96.381
 10
187.799
 20
96.317
 97
0
 75
0
 76
1
 98
0
  0
HATCH
  5
9B
330
17
100
AcDbEntity
  8
RASTER
 62
7
100
AcDbHatch
 10
0.0
 20
0.0
 30
0.0
210
0.0
220
0.0
230
1.0
  2
SOLID
 70
1
 71
0
 91
1
 92
3
 72
0
 73
1
 93
48
 10
235.604
 20
96.252
 10
235.6
 20
96.187
 10
235.587
 20
96.123
 10
235.566
 20
96.061
 10
235.537
 20
96.002
 10
235.501
 20
95.948
 10
235.458
 20
95.898
 10
235.408
 20
95.855
 10
235.354
 20
95.819
 10
235.295
 20
95.79
 10
235.233
 20
95.769
 10
235.169
 20
95.756
 10
235.104
 20
95.752
 10
235.039
 20
95.756
 10
234.975
 20
95.769
 10
234.913
 20
95.79
 10
234.854
 20
95.819
 10
234.8
 20
95.855
 10
234.75
 20
95.898
 10
234.707
 20
95.948
 10
234.671
 20
96.002
 10
234.642
 20
96.061
 10
234.621
 20
96.123
 10
234.608
 20
96.187
 10
234.604
 20
96.252
 10
234.608
 20
96.317
 10
234.621
 20
96.381
 10
234.642
 20
96.443
 10
234.671
 20
96.502
 10
234.707
 20
96.556
 10
234.75
 20
96.606
 10
234.8
 20
96.649
 10
234.854
 20
96.685
 10
234.913
 20
96.714
 10
234.975
 20
96.735
 10
235.039
 20
96.748
 10
235.104
 20
96.752
 10
235.169
 20
96.748
 10
235.233
 20
96.735
 10
235.295
 20
96.714
 10
235.354
 20
96.685
 10
235.408
 20
96.649
 10
235.458
 20
96.606
 10
235.501
 20
96.556
 10
235.537
 20
96.502
 10
235.566
 20
96.443
 10
235.587
 20
96.381
 10
235.6
 20
96.317
 97
0
 75
0
 76
1
 98
0
  0
LWPOLYLINE
  5
9C
330
17
100
AcDbEntity
  8
CUT
100
AcDbPolyline
 90
36
 70
1
 10
7.1
 20
51.241
 10
68.101
 20
51.241
 10
71.241
 20
51.241
 10
71.241
 20
48.861
 10
68.141
 20
48.861
 10
68.141
 20
46.641
 10
71.241
 20
46.641
 10
71.241
 20
44.261
 10
68.101
 20
44.261
 10
62.595
 20
44.261
 10
62.595
 20
41.161
 10
56.97
 20
41.161
 10
56.97
 20
44.261
 10
51.504
 20
44.261
 10
51.504
 20
41.161
 10
45.879
 20
41.161
 10
45.879
 20
44.261
 10
40.413
 20
44.261
 10
40.413
 20
41.161
 10
34.788
 20
41.161
 10
34.788
 20
44.261
 10
29.322
 20
44.261
 10
29.322
 20
41.161
 10
23.697
 20
41.161
 10
23.697
 20
44.261
 10
18.231
 20
44.261
 10
18.231
 20
41.161
 10
12.606
 20
41.161
 10
12.606
 20
44.261
 10
7.1
 20
44.261
 10
3.96
 20
44.261
 10
3.96
 20
46.641
 10
7.06
 20
46.641
 10
7.06
 20
48.861
 10
3.96
 20
48.861
 10
3.96
 20
51.241
  0
LWPOLYLINE
  5
9D
330
17
100
AcDbEntity
  8
CUT
100
AcDbPolyline
 90
4
 70
1
 10
12.14
 20
48.811
 10
63.061
 20
48.811
 10
63.061
 20
46.691
 10
12.14
 20
46.691
  0
HATCH
  5
9E
330
17
100
AcDbEntity
  8
RASTER
 62
7
100
AcDbHatch
 10
0.0
 20
0.0
 30
0.0
210
0.0
220
0.0
230
1.0
  2
SOLID
 70
1
 71
0
 91
1
 92
3
 72
0
 73
1
 93
4
 10
7.7
 20
50.801
 10
11.5
 20
50.801
 10
11.5
 20
44.701
 10
7.7
 20
44.701
 97
0
 75
0
 76
1
 98
0
  0
HATCH
  5
9F
330
17
100
AcDbEntity
  8
RASTER
 62
7
100
AcDbHatch
 10
0.0
 20
0.0
 30
0.0
210
0.0
220
0.0
230
1.0
  2
SOLID
 70
1
 71
0
 91
1
 92
3
 72
0
 73
1
 93
4
 10
63.701
 20
50.801
 10
67.501
 20
50.801
 10
67.501
 20
44.701
 10
63.701
 20
44.701
 97
0
 75
0
 76
1
 98
0
  0
HATCH
  5
A0
330
17
100
AcDbEntity
  8
RASTER
 62
7
100
AcDbHatch
 10
0.0
 20
0.0
 30
0.0
210
0.0
220
0.0
230
1.0
  2
SOLID
 70
1
 71
0
 91
1
 92
3
 72
0
 73
1
 93
48
 10
14.2
 20
50.451
 10
14.196
 20
50.386
 10
14.183
 20
50.322
 10
14.162
 20
50.26
 10
14.133
 20
50.201
 10
14.097
 20
50.147
 10
14.054
 20
50.097
 10
14.004
 20
50.054
 10
13.95
 20
50.018
 10
13.891
 20
49.989
 10
13.829
 20
49.968
 10
13.765
 20
49.955
 10
13.7
 20
49.951
 10
13.635
 20
49.955
 10
13.571
 20
49.968
 10
13.509
 20
49.989
 10
13.45
 20
50.018
 10
13.396
 20
50.054
 10
13.346
 20
50.097
 10
13.303
 20
50.147
 10
13.267
 20
50.201
 10
13.238
 20
50.26
 10
13.217
 20
50.322
 10
13.204
 20
50.386
 10
13.2
 20
50.451
 10
13.204
 20
50.516
 10
13.217
 20
50.58
 10
13.238
 20
50.642
 10
13.267
 20
50.701
 10
13.303
 20
50.755
 10
13.346
 20
50.805
 10
13.396
 20
50.848
 10
13.45
 20
50.884
 10
13.509
 20
50.913
 10
13.571
 20
50.934
 10
13.635
 20
50.947
 10
13.7
 20
50.951
 10
13.765
 20
50.947
 10
13.829
 20
50.934
 10
13.891
 20
50.913
 10
13.95
 20
50.884
 10
14.004
 20
50.848
 10
14.054
 20
50.805
 10
14.097
 20
50.755
 10
14.133
 20
50.701
 10
14.162
 20
50.642
 10
14.183
 20
50.58
 10
14.196
 20
50.516
 97
0
 75
0
 76
1
 98
0
  0
HATCH
  5
A1
330
17
100
AcDbEntity
  8
RASTER
 62
7
100
AcDbHatch
 10
0.0
 20
0.0
 30
0.0
210
0.0
220
0.0
230
1.0
  2
SOLID
 70
1
 71
0
 91
1
 92
3
 72
0
 73
1
 93
48
 10
62.001
 20
50.451
 10
61.997
 20
50.386
 10
61.984
 20
50.322
 10
61.963
 20
50.26
 10
61.934
 20
50.201
 10
61.898
 20
50.147
 10
61.855
 20
50.097
 10
61.805
 20
50.054
 10
61.751
 20
50.018
 10
61.692
 20
49.989
 10
61.63
 20
49.968
 10
61.566
 20
49.955
 10
61.501
 20
49.951
 10
61.436
 20
49.955
 10
61.372
 20
49.968
 10
61.31
 20
49.989
 10
61.251
 20
50.018
 10
61.197
 20
50.054
 10
61.147
 20
50.097
 10
61.104
 20
50.147
 10
61.068
 20
50.201
 10
61.039
 20
50.26
 10
61.018
 20
50.322
 10
61.005
 20
50.386
 10
61.001
 20
50.451
 10
61.005
 20
50.516
 10
61.018
 20
50.58
 10
61.039
 20
50.642
 10
61.068
 20
50.701
 10
61.104
 20
50.755
 10
61.147
 20
50.805
 10
61.197
 20
50.848
 10
61.251
 20
50.884
 10
61.31
 20
50.913
 10
61.372
 20
50.934
 10
61.436
 20
50.947
 10
61.501
 20
50.951
 10
61.566
 20
50.947
 10
61.63
 20
50.934
 10
61.692
 20
50.913
 10
61.751
 20
50.884
 10
61.805
 20
50.848
 10
61.855
 20
50.805
 10
61.898
 20
50.755
 10
61.934
 20
50.701
 10
61.963
 20
50.642
 10
61.984
 20
50.58
 10
61.997
 20
50.516
 97
0
 75
0
 76
1
 98
0
  0
HATCH
  5
A2
330
17
100
AcDbEntity
  8
RASTER
 62
7
100
AcDbHatch
 10
0.0
 20
0.0
 30
0.0
210
0.0
220
0.0
230
1.0
  2
SOLID
 70
1
 71
0
 91
1
 92
3
 72
0
 73
1
 93
48
 10
14.2
 20
45.051
 10
14.196
 20
44.986
 10
14.183
 20
44.922
 10
14.162
 20
44.86
 10
14.133
 20
44.801
 10
14.097
 20
44.747
 10
14.054
 20
44.697
 10
14.004
 20
44.654
 10
13.95
 20
44.618
 10
13.891
 20
44.589
 10
13.829
 20
44.568
 10
13.765
 20
44.555
 10
13.7
 20
44.551
 10
13.635
 20
44.555
 10
13.571
 20
44.568
 10
13.509
 20
44.589
 10
13.45
 20
44.618
 10
13.396
 20
44.654
 10
13.346
 20
44.697
 10
13.303
 20
44.747
 10
13.267
 20
44.801
 10
13.238
 20
44.86
 10
13.217
 20
44.922
 10
13.204
 20
44.986
 10
13.2
 20
45.051
 10
13.204
 20
45.116
 10
13.217
 20
45.18
 10
13.238
 20
45.242
 10
13.267
 20
45.301
 10
13.303
 20
45.355
 10
13.346
 20
45.405
 10
13.396
 20
45.448
 10
13.45
 20
45.484
 10
13.509
 20
45.513
 10
13.571
 20
45.534
 10
13.635
 20
45.547
 10
13.7
 20
45.551
 10
13.765
 20
45.547
 10
13.829
 20
45.534
 10
13.891
 20
45.513
 10
13.95
 20
45.484
 10
14.004
 20
45.448
 10
14.054
 20
45.405
 10
14.097
 20
45.355
 10
14.133
 20
45.301
 10
14.162
 20
45.242
 10
14.183
 20
45.18
 10
14.196
 20
45.116
 97
0
 75
0
 76
1
 98
0
  0
HATCH
  5
A3
330
17
100
AcDbEntity
  8
RASTER
 62
7
100
AcDbHatch
 10
0.0
 20
0.0
 30
0.0
210
0.0
220
0.0
230
1.0
  2
SOLID
 70
1
 71
0
 91
1
 92
3
 72
0
 73
1
 93
48
 10
62.001
 20
45.051
 10
61.997
 20
44.986
 10
61.984
 20
44.922
 10
61.963
 20
44.86
 10
61.934
 20
44.801
 10
61.898
 20
44.747
 10
61.855
 20
44.697
 10
61.805
 20
44.654
 10
61.751
 20
44.618
 10
61.692
 20
44.589
 10
61.63
 20
44.568
 10
61.566
 20
44.555
 10
61.501
 20
44.551
 10
61.436
 20
44.555
 10
61.372
 20
44.568
 10
61.31
 20
44.589
 10
61.251
 20
44.618
 10
61.197
 20
44.654
 10
61.147
 20
44.697
 10
61.104
 20
44.747
 10
61.068
 20
44.801
 10
61.039
 20
44.86
 10
61.018
 20
44.922
 10
61.005
 20
44.986
 10
61.001
 20
45.051
 10
61.005
 20
45.116
 10
61.018
 20
45.18
 10
61.039
 20
45.242
 10
61.068
 20
45.301
 10
61.104
 20
45.355
 10
61.147
 20
45.405
 10
61.197
 20
45.448
 10
61.251
 20
45.484
 10
61.31
 20
45.513
 10
61.372
 20
45.534
 10
61.436
 20
45.547
 10
61.501
 20
45.551
 10
61.566
 20
45.547
 10
61.63
 20
45.534
 10
61.692
 20
45.513
 10
61.751
 20
45.484
 10
61.805
 20
45.448
 10
61.855
 20
45.405
 10
61.898
 20
45.355
 10
61.934
 20
45.301
 10
61.963
 20
45.242
 10
61.984
 20
45.18
 10
61.997
 20
45.116
 97
0
 75
0
 76
1
 98
0
  0
LWPOLYLINE
  5
A4
330
17
100
AcDbEntity
  8
CUT
100
AcDbPolyline
 90
24
 70
1
 10
78.261
 20
51.241
 10
119.342
 20
51.241
 10
119.342
 20
48.941
 10
122.442
 20
48.941
 10
122.442
 20
46.561
 10
119.342
 20
46.561
 10
119.342
 20
44.261
 10
113.485
 20
44.261
 10
113.485
 20
41.161
 10
107.547
 20
41.161
 10
107.547
 20
44.261
 10
101.77
 20
44.261
 10
101.77
 20
41.161
 10
95.833
 20
41.161
 10
95.833
 20
44.261
 10
90.056
 20
44.261
 10
90.056
 20
41.161
 10
84.118
 20
41.161
 10
84.118
 20
44.261
 10
78.261
 20
44.261
 10
78.261
 20
46.561
 10
75.161
 20
46.561
 10
75.161
 20
48.941
 10
78.261
 20
48.941
  0
LWPOLYLINE
  5
A5
330
17
100
AcDbEntity
  8
CUT
100
AcDbPolyline
 90
4
 70
1
 10
83.341
 20
48.811
 10
114.262
 20
48.811
 10
114.262
 20
46.691
 10
83.341
 20
46.691
  0
HATCH
  5
A6
330
17
100
AcDbEntity
  8
RASTER
 62
7
100
AcDbHatch
 10
0.0
 20
0.0
 30
0.0
210
0.0
220
0.0
230
1.0
  2
SOLID
 70
1
 71
0
 91
1
 92
3
 72
0
 73
1
 93
4
 10
78.901
 20
50.801
 10
82.701
 20
50.801
 10
82.701
 20
44.701
 10
78.901
 20
44.701
 97
0
 75
0
 76
1
 98
0
  0
HATCH
  5
A7
330
17
100
AcDbEntity
  8
RASTER
 62
7
100
AcDbHatch
 10
0.0
 20
0.0
 30
0.0
210
0.0
220
0.0
230
1.0
  2
SOLID
 70
1
 71
0
 91
1
 92
3
 72
0
 73
1
 93
4
 10
114.902
 20
50.801
 10
118.702
 20
50.801
 10
118.702
 20
44.701
 10
114.902
 20
44.701
 97
0
 75
0
 76
1
 98
0
  0
HATCH
  5
A8
330
17
100
AcDbEntity
  8
RASTER
 62
7
100
AcDbHatch
 10
0.0
 20
0.0
 30
0.0
210
0.0
220
0.0
230
1.0
  2
SOLID
 70
1
 71
0
 91
1
 92
3
 72
0
 73
1
 93
48
 10
85.401
 20
50.451
 10
85.397
 20
50.386
 10
85.384
 20
50.322
 10
85.363
 20
50.26
 10
85.334
 20
50.201
 10
85.298
 20
50.147
 10
85.255
 20
50.097
 10
85.205
 20
50.054
 10
85.151
 20
50.018
 10
85.092
 20
49.989
 10
85.03
 20
49.968
 10
84.966
 20
49.955
 10
84.901
 20
49.951
 10
84.836
 20
49.955
 10
84.772
 20
49.968
 10
84.71
 20
49.989
 10
84.651
 20
50.018
 10
84.597
 20
50.054
 10
84.547
 20
50.097
 10
84.504
 20
50.147
 10
84.468
 20
50.201
 10
84.439
 20
50.26
 10
84.418
 20
50.322
 10
84.405
 20
50.386
 10
84.401
 20
50.451
 10
84.405
 20
50.516
 10
84.418
 20
50.58
 10
84.439
 20
50.642
 10
84.468
 20
50.701
 10
84.504
 20
50.755
 10
84.547
 20
50.805
 10
84.597
 20
50.848
 10
84.651
 20
50.884
 10
84.71
 20
50.913
 10
84.772
 20
50.934
 10
84.836
 20
50.947
 10
84.901
 20
50.951
 10
84.966
 20
50.947
 10
85.03
 20
50.934
 10
85.092
 20
50.913
 10
85.151
 20
50.884
 10
85.205
 20
50.848
 10
85.255
 20
50.805
 10
85.298
 20
50.755
 10
85.334
 20
50.701
 10
85.363
 20
50.642
 10
85.384
 20
50.58
 10
85.397
 20
50.516
 97
0
 75
0
 76
1
 98
0
  0
HATCH
  5
A9
330
17
100
AcDbEntity
  8
RASTER
 62
7
100
AcDbHatch
 10
0.0
 20
0.0
 30
0.0
210
0.0
220
0.0
230
1.0
  2
SOLID
 70
1
 71
0
 91
1
 92
3
 72
0
 73
1
 93
48
 10
113.202
 20
50.451
 10
113.198
 20
50.386
 10
113.185
 20
50.322
 10
113.164
 20
50.26
 10
113.135
 20
50.201
 10
113.099
 20
50.147
 10
113.056
 20
50.097
 10
113.006
 20
50.054
 10
112.952
 20
50.018
 10
112.893
 20
49.989
 10
112.831
 20
49.968
 10
112.767
 20
49.955
 10
112.702
 20
49.951
 10
112.637
 20
49.955
 10
112.573
 20
49.968
 10
112.511
 20
49.989
 10
112.452
 20
50.018
 10
112.398
 20
50.054
 10
112.348
 20
50.097
 10
112.305
 20
50.147
 10
112.269
 20
50.201
 10
112.24
 20
50.26
 10
112.219
 20
50.322
 10
112.206
 20
50.386
 10
112.202
 20
50.451
 10
112.206
 20
50.516
 10
112.219
 20
50.58
 10
112.24
 20
50.642
 10
112.269
 20
50.701
 10
112.305
 20
50.755
 10
112.348
 20
50.805
 10
112.398
 20
50.848
 10
112.452
 20
50.884
 10
112.511
 20
50.913
 10
112.573
 20
50.934
 10
112.637
 20
50.947
 10
112.702
 20
50.951
 10
112.767
 20
50.947
 10
112.831
 20
50.934
 10
112.893
 20
50.913
 10
112.952
 20
50.884
 10
113.006
 20
50.848
 10
113.056
 20
50.805
 10
113.099
 20
50.755
 10
113.135
 20
50.701
 10
113.164
 20
50.642
 10
113.185
 20
50.58
 10
113.198
 20
50.516
 97
0
 75
0
 76
1
 98
0
  0
HATCH
  5
AA
330
17
100
AcDbEntity
  8
RASTER
 62
7
100
AcDbHatch
 10
0.0
 20
0.0
 30
0.0
210
0.0
220
0.0
230
1.0
  2
SOLID
 70
1
 71
0
 91
1
 92
3
 72
0
 73
1
 93
48
 10
85.401
 20
45.051
 10
85.397
 20
44.986
 10
85.384
 20
44.922
 10
85.363
 20
44.86
 10
85.334
 20
44.801
 10
85.298
 20
44.747
 10
85.255
 20
44.697
 10
85.205
 20
44.654
 10
85.151
 20
44.618
 10
85.092
 20
44.589
 10
85.03
 20
44.568
 10
84.966
 20
44.555
 10
84.901
 20
44.551
 10
84.836
 20
44.555
 10
84.772
 20
44.568
 10
84.71
 20
44.589
 10
84.651
 20
44.618
 10
84.597
 20
44.654
 10
84.547
 20
44.697
 10
84.504
 20
44.747
 10
84.468
 20
44.801
 10
84.439
 20
44.86
 10
84.418
 20
44.922
 10
84.405
 20
44.986
 10
84.401
 20
45.051
 10
84.405
 20
45.116
 10
84.418
 20
45.18
 10
84.439
 20
45.242
 10
84.468
 20
45.301
 10
84.504
 20
45.355
 10
84.547
 20
45.405
 10
84.597
 20
45.448
 10
84.651
 20
45.484
 10
84.71
 20
45.513
 10
84.772
 20
45.534
 10
84.836
 20
45.547
 10
84.901
 20
45.551
 10
84.966
 20
45.547
 10
85.03
 20
45.534
 10
85.092
 20
45.513
 10
85.151
 20
45.484
 10
85.205
 20
45.448
 10
85.255
 20
45.405
 10
85.298
 20
45.355
 10
85.334
 20
45.301
 10
85.363
 20
45.242
 10
85.384
 20
45.18
 10
85.397
 20
45.116
 97
0
 75
0
 76
1
 98
0
  0
HATCH
  5
AB
330
17
100
AcDbEntity
  8
RASTER
 62
7
100
AcDbHatch
 10
0.0
 20
0.0
 30
0.0
210
0.0
220
0.0
230
1.0
  2
SOLID
 70
1
 71
0
 91
1
 92
3
 72
0
 73
1
 93
48
 10
113.202
 20
45.051
 10
113.198
 20
44.986
 10
113.185
 20
44.922
 10
113.164
 20
44.86
 10
113.135
 20
44.801
 10
113.099
 20
44.747
 10
113.056
 20
44.697
 10
113.006
 20
44.654
 10
112.952
 20
44.618
 10
112.893
 20
44.589
 10
112.831
 20
44.568
 10
112.767
 20
44.555
 10
112.702
 20
44.551
 10
112.637
 20
44.555
 10
112.573
 20
44.568
 10
112.511
 20
44.589
 10
112.452
 20
44.618
 10
112.398
 20
44.654
 10
112.348
 20
44.697
 10
112.305
 20
44.747
 10
112.269
 20
44.801
 10
112.24
 20
44.86
 10
112.219
 20
44.922
 10
112.206
 20
44.986
 10
112.202
 20
45.051
 10
112.206
 20
45.116
 10
112.219
 20
45.18
 10
112.24
 20
45.242
 10
112.269
 20
45.301
 10
112.305
 20
45.355
 10
112.348
 20
45.405
 10
112.398
 20
45.448
 10
112.452
 20
45.484
 10
112.511
 20
45.513
 10
112.573
 20
45.534
 10
112.637
 20
45.547
 10
112.702
 20
45.551
 10
112.767
 20
45.547
 10
112.831
 20
45.534
 10
112.893
 20
45.513
 10
112.952
 20
45.484
 10
113.006
 20
45.448
 10
113.056
 20
45.405
 10
113.099
 20
45.355
 10
113.135
 20
45.301
 10
113.164
 20
45.242
 10
113.185
 20
45.18
 10
113.198
 20
45.116
 97
0
 75
0
 76
1
 98
0
  0
LWPOLYLINE
  5
AC
330
17
100
AcDbEntity
  8
CUT
100
AcDbPolyline
 90
24
 70
1
 10
129.462
 20
51.241
 10
170.543
 20
51.241
 10
170.543
 20
48.941
 10
173.643
 20
48.941
 10
173.643
 20
46.561
 10
170.543
 20
46.561
 10
170.543
 20
44.261
 10
164.686
 20
44.261
 10
164.686
 20
41.161
 10
158.748
 20
41.161
 10
158.748
 20
44.261
 10
152.971
 20
44.261
 10
152.971
 20
41.161
 10
147.034
 20
41.161
 10
147.034
 20
44.261
 10
141.257
 20
44.261
 10
141.257
 20
41.161
 10
135.319
 20
41.161
 10
135.319
 20
44.261
 10
129.462
 20
44.261
 10
129.462
 20
46.561
 10
126.362
 20
46.561
 10
126.362
 20
48.941
 10
129.462
 20
48.941
  0
LWPOLYLINE
  5
AD
330
17
100
AcDbEntity
  8
CUT
100
AcDbPolyline
 90
4
 70
1
 10
134.542
 20
48.811
 10
165.463
 20
48.811
 10
165.463
 20
46.691
 10
134.542
 20
46.691
  0
HATCH
  5
AE
330
17
100
AcDbEntity
  8
RASTER
 62
7
100
AcDbHatch
 10
0.0
 20
0.0
 30
0.0
210
0.0
220
0.0
230
1.0
  2
SOLID
 70
1
 71
0
 91
1
 92
3
 72
0
 73
1
 93
4
 10
130.102
 20
50.801
 10
133.902
 20
50.801
 10
133.902
 20
44.701
 10
130.102
 20
44.701
 97
0
 75
0
 76
1
 98
0
  0
HATCH
  5
AF
330
17
100
AcDbEntity
  8
RASTER
 62
7
100
AcDbHatch
 10
0.0
 20
0.0
 30
0.0
210
0.0
220
0.0
230
1.0
  2
SOLID
 70
1
 71
0
 91
1
 92
3
 72
0
 73
1
 93
4
 10
166.103
 20
50.801
 10
169.903
 20
50.801
 10
169.903
 20
44.701
 10
166.103
 20
44.701
 97
0
 75
0
 76
1
 98
0
  0
HATCH
  5
B0
330
17
100
AcDbEntity
  8
RASTER
 62
7
100
AcDbHatch
 10
0.0
 20
0.0
 30
0.0
210
0.0
220
0.0
230
1.0
  2
SOLID
 70
1
 71
0
 91
1
 92
3
 72
0
 73
1
 93
48
 10
136.602
 20
50.451
 10
136.598
 20
50.386
 10
136.585
 20
50.322
 10
136.564
 20
50.26
 10
136.535
 20
50.201
 10
136.499
 20
50.147
 10
136.456
 20
50.097
 10
136.406
 20
50.054
 10
136.352
 20
50.018
 10
136.293
 20
49.989
 10
136.231
 20
49.968
 10
136.167
 20
49.955
 10
136.102
 20
49.951
 10
136.037
 20
49.955
 10
135.973
 20
49.968
 10
135.911
 20
49.989
 10
135.852
 20
50.018
 10
135.798
 20
50.054
 10
135.748
 20
50.097
 10
135.705
 20
50.147
 10
135.669
 20
50.201
 10
135.64
 20
50.26
 10
135.619
 20
50.322
 10
135.606
 20
50.386
 10
135.602
 20
50.451
 10
135.606
 20
50.516
 10
135.619
 20
50.58
 10
135.64
 20
50.642
 10
135.669
 20
50.701
 10
135.705
 20
50.755
 10
135.748
 20
50.805
 10
135.798
 20
50.848
 10
135.852
 20
50.884
 10
135.911
 20
50.913
 10
135.973
 20
50.934
 10
136.037
 20
50.947
 10
136.102
 20
50.951
 10
136.167
 20
50.947
 10
136.231
 20
50.934
 10
136.293
 20
50.913
 10
136.352
 20
50.884
 10
136.406
 20
50.848
 10
136.456
 20
50.805
 10
136.499
 20
50.755
 10
136.535
 20
50.701
 10
136.564
 20
50.642
 10
136.585
 20
50.58
 10
136.598
 20
50.516
 97
0
 75
0
 76
1
 98
0
  0
HATCH
  5
B1
330
17
100
AcDbEntity
  8
RASTER
 62
7
100
AcDbHatch
 10
0.0
 20
0.0
 30
0.0
210
0.0
220
0.0
230
1.0
  2
SOLID
 70
1
 71
0
 91
1
 92
3
 72
0
 73
1
 93
48
 10
164.403
 20
50.451
 10
164.399
 20
50.386
 10
164.386
 20
50.322
 10
164.365
 20
50.26
 10
164.336
 20
50.201
 10
164.3
 20
50.147
 10
164.257
 20
50.097
 10
164.207
 20
50.054
 10
164.153
 20
50.018
 10
164.094
 20
49.989
 10
164.032
 20
49.968
 10
163.968
 20
49.955
 10
163.903
 20
49.951
 10
163.838
 20
49.955
 10
163.774
 20
49.968
 10
163.712
 20
49.989
 10
163.653
 20
50.018
 10
163.599
 20
50.054
 10
163.549
 20
50.097
 10
163.506
 20
50.147
 10
163.47
 20
50.201
 10
163.441
 20
50.26
 10
163.42
 20
50.322
 10
163.407
 20
50.386
 10
163.403
 20
50.451
 10
163.407
 20
50.516
 10
163.42
 20
50.58
 10
163.441
 20
50.642
 10
163.47
 20
50.701
 10
163.506
 20
50.755
 10
163.549
 20
50.805
 10
163.599
 20
50.848
 10
163.653
 20
50.884
 10
163.712
 20
50.913
 10
163.774
 20
50.934
 10
163.838
 20
50.947
 10
163.903
 20
50.951
 10
163.968
 20
50.947
 10
164.032
 20
50.934
 10
164.094
 20
50.913
 10
164.153
 20
50.884
 10
164.207
 20
50.848
 10
164.257
 20
50.805
 10
164.3
 20
50.755
 10
164.336
 20
50.701
 10
164.365
 20
50.642
 10
164.386
 20
50.58
 10
164.399
 20
50.516
 97
0
 75
0
 76
1
 98
0
  0
HATCH
  5
B2
330
17
100
AcDbEntity
  8
RASTER
 62
7
100
AcDbHatch
 10
0.0
 20
0.0
 30
0.0
210
0.0
220
0.0
230
1.0
  2
SOLID
 70
1
 71
0
 91
1
 92
3
 72
0
 73
1
 93
48
 10
136.602
 20
45.051
 10
136.598
 20
44.986
 10
136.585
 20
44.922
 10
136.564
 20
44.86
 10
136.535
 20
44.801
 10
136.499
 20
44.747
 10
136.456
 20
44.697
 10
136.406
 20
44.654
 10
136.352
 20
44.618
 10
136.293
 20
44.589
 10
136.231
 20
44.568
 10
136.167
 20
44.555
 10
136.102
 20
44.551
 10
136.037
 20
44.555
 10
135.973
 20
44.568
 10
135.911
 20
44.589
 10
135.852
 20
44.618
 10
135.798
 20
44.654
 10
135.748
 20
44.697
 10
135.705
 20
44.747
 10
135.669
 20
44.801
 10
135.64
 20
44.86
 10
135.619
 20
44.922
 10
135.606
 20
44.986
 10
135.602
 20
45.051
 10
135.606
 20
45.116
 10
135.619
 20
45.18
 10
135.64
 20
45.242
 10
135.669
 20
45.301
 10
135.705
 20
45.355
 10
135.748
 20
45.405
 10
135.798
 20
45.448
 10
135.852
 20
45.484
 10
135.911
 20
45.513
 10
135.973
 20
45.534
 10
136.037
 20
45.547
 10
136.102
 20
45.551
 10
136.167
 20
45.547
 10
136.231
 20
45.534
 10
136.293
 20
45.513
 10
136.352
 20
45.484
 10
136.406
 20
45.448
 10
136.456
 20
45.405
 10
136.499
 20
45.355
 10
136.535
 20
45.301
 10
136.564
 20
45.242
 10
136.585
 20
45.18
 10
136.598
 20
45.116
 97
0
 75
0
 76
1
 98
0
  0
HATCH
  5
B3
330
17
100
AcDbEntity
  8
RASTER
 62
7
100
AcDbHatch
 10
0.0
 20
0.0
 30
0.0
210
0.0
220
0.0
230
1.0
  2
SOLID
 70
1
 71
0
 91
1
 92
3
 72
0
 73
1
 93
48
 10
164.403
 20
45.051
 10
164.399
 20
44.986
 10
164.386
 20
44.922
 10
164.365
 20
44.86
 10
164.336
 20
44.801
 10
164.3
 20
44.747
 10
164.257
 20
44.697
 10
164.207
 20
44.654
 10
164.153
 20
44.618
 10
164.094
 20
44.589
 10
164.032
 20
44.568
 10
163.968
 20
44.555
 10
163.903
 20
44.551
 10
163.838
 20
44.555
 10
163.774
 20
44.568
 10
163.712
 20
44.589
 10
163.653
 20
44.618
 10
163.599
 20
44.654
 10
163.549
 20
44.697
 10
163.506
 20
44.747
 10
163.47
 20
44.801
 10
163.441
 20
44.86
 10
163.42
 20
44.922
 10
163.407
 20
44.986
 10
163.403
 20
45.051
 10
163.407
 20
45.116
 10
163.42
 20
45.18
 10
163.441
 20
45.242
 10
163.47
 20
45.301
 10
163.506
 20
45.355
 10
163.549
 20
45.405
 10
163.599
 20
45.448
 10
163.653
 20
45.484
 10
163.712
 20
45.513
 10
163.774
 20
45.534
 10
163.838
 20
45.547
 10
163.903
 20
45.551
 10
163.968
 20
45.547
 10
164.032
 20
45.534
 10
164.094
 20
45.513
 10
164.153
 20
45.484
 10
164.207
 20
45.448
 10
164.257
 20
45.405
 10
164.3
 20
45.355
 10
164.336
 20
45.301
 10
164.365
 20
45.242
 10
164.386
 20
45.18
 10
164.399
 20
45.116
 97
0
 75
0
 76
1
 98
0
  0
LWPOLYLINE
  5
B4
330
17
100
AcDbEntity
  8
CUT
100
AcDbPolyline
 90
76
 70
1
 10
177.563
 20
51.241
 10
180.703
 20
51.241
 10
186.289
 20
51.241
 10
186.289
 20
48.141
 10
191.754
 20
48.141
 10
191.754
 20
51.241
 10
197.38
 20
51.241
 10
197.38
 20
48.141
 10
202.845
 20
48.141
 10
202.845
 20
51.241
 10
208.471
 20
51.241
 10
208.471
 20
48.141
 10
213.936
 20
48.141
 10
213.936
 20
51.241
 10
219.562
 20
51.241
 10
219.562
 20
48.141
 10
225.027
 20
48.141
 10
225.027
 20
51.241
 10
230.653
 20
51.241
 10
230.653
 20
48.141
 10
236.118
 20
48.141
 10
236.118
 20
51.241
 10
241.704
 20
51.241
 10
244.844
 20
51.241
 10
244.844
 20
48.101
 10
244.844
 20
42.204
 10
241.744
 20
42.204
 10
241.744
 20
36.426
 10
244.844
 20
36.426
 10
244.844
 20
30.489
 10
241.744
 20
30.489
 10
241.744
 20
24.712
 10
244.844
 20
24.712
 10
244.844
 20
18.775
 10
241.744
 20
18.775
 10
241.744
 20
12.997
 10
244.844
 20
12.997
 10
244.844
 20
7.1
 10
244.844
 20
3.96
 10
241.704
 20
3.96
 10
236.118
 20
3.96
 10
236.118
 20
7.06
 10
230.653
 20
7.06
 10
230.653
 20
3.96
 10
225.027
 20
3.96
 10
225.027
 20
7.06
 10
219.562
 20
7.06
 10
219.562
 20
3.96
 10
213.936
 20
3.96
 10
213.936
 20
7.06
 10
208.471
 20
7.06
 10
208.471
 20
3.96
 10
202.845
 20
3.96
 10
202.845
 20
7.06
 10
197.38
 20
7.06
 10
197.38
 20
3.96
 10
191.754
 20
3.96
 10
191.754
 20
7.06
 10
186.289
 20
7.06
 10
186.289
 20
3.96
 10
180.703
 20
3.96
 10
177.563
 20
3.96
 10
177.563
 20
7.1
 10
177.563
 20
12.997
 10
180.663
 20
12.997
 10
180.663
 20
18.775
 10
177.563
 20
18.775
 10
177.563
 20
24.712
 10
180.663
 20
24.712
 10
180.663
 20
30.489
 10
177.563
 20
30.489
 10
177.563
 20
36.426
 10
180.663
 20
36.426
 10
180.663
 20
42.204
 10
177.563
 20
42.204
 10
177.563
 20
48.101
  0
ENDSEC
  0
SECTION
  2
OBJECTS
  0
DICTIONARY
  5
A
330
0
100
AcDbDictionary
281
1
  3
ACAD_COLOR
350
B
  3
ACAD_GROUP
350
C
  3
ACAD_LAYOUT
350
D
  3
ACAD_MATERIAL
350
E
  3
ACAD_MLEADERSTYLE
350
F
  3
ACAD_MLINESTYLE
350
10
  3
ACAD_PLOTSETTINGS
350
11
  3
ACAD_PLOTSTYLENAME
350
12
  3
ACAD_SCALELIST
350
14
  3
ACAD_TABLESTYLE
350
15
  3
ACAD_VISUALSTYLE
350
16
  3
EZDXF_META
350
2D
  0
DICTIONARY
  5
B
330
A
100
AcDbDictionary
281
1
  0
DICTIONARY
  5
C
330
A
100
AcDbDictionary
281
1
  0
DICTIONARY
  5
D
330
A
100
AcDbDictionary
281
1
  3
Model
350
1A
  3
Layout1
350
1E
  0
DICTIONARY
  5
E
330
A
100
AcDbDictionary
281
1
  3
ByBlock
350
1F
  3
ByLayer
350
20
  3
Global
350
21
  0
DICTIONARY
  5
F
330
A
100
AcDbDictionary
281
1
  3
Standard
350
2C
  0
DICTIONARY
  5
10
330
A
100
AcDbDictionary
281
1
  3
Standard
350
22
  0
DICTIONARY
  5
11
330
A
100
AcDbDictionary
281
1
  0
ACDBDICTIONARYWDFLT
  5
12
330
A
100
AcDbDictionary
281
1
  3
Normal
350
13
100
AcDbDictionaryWithDefault
340
13
  0
ACDBPLACEHOLDER
  5
13
330
12
  0
DICTIONARY
  5
14
330
A
100
AcDbDictionary
281
1
  0
DICTIONARY
  5
15
330
A
100
AcDbDictionary
281
1
  0
DICTIONARY
  5
16
330
A
100
AcDbDictionary
281
1
  0
LAYOUT
  5
1A
330
D
100
AcDbPlotSettings
  1

  4
A3
  6

 40
7.5
 41
20.0
 42
7.5
 43
20.0
 44
420.0
 45
297.0
 46
0.0
 47
0.0
 48
0.0
 49
0.0
140
0.0
141
0.0
142
1.0
143
1.0
 70
1024
 72
1
 73
0
 74
5
  7

 75
16
 76
0
 77
2
 78
300
147
1.0
148
0.0
149
0.0
100
AcDbLayout
  1
Model
 70
1
 71
0
 10
0.0
 20
0.0
 11
420.0
 21
297.0
 12
0.0
 22
0.0
 32
0.0
 14
1e+20
 24
1e+20
 34
1e+20
 15
-1e+20
 25
-1e+20
 35
-1e+20
146
0.0
 13
0.0
 23
0.0
 33
0.0
 16
1.0
 26
0.0
 36
0.0
 17
0.0
 27
1.0
 37
0.0
 76
1
330
17
  0
LAYOUT
  5
1E
330
D
100
AcDbPlotSettings
  1

  4
A3
  6

 40
7.5
 41
20.0
 42
7.5
 43
20.0
 44
420.0
 45
297.0
 46
0.0
 47
0.0
 48
0.0
 49
0.0
140
0.0
141
0.0
142
1.0
143
1.0
 70
0
 72
1
 73
0
 74
5
  7

 75
16
 76
0
 77
2
 78
300
147
1.0
148
0.0
149
0.0
100
AcDbLayout
  1
Layout1
 70
1
 71
1
 10
0.0
 20
0.0
 11
420.0
 21
297.0
 12
0.0
 22
0.0
 32
0.0
 14
1e+20
 24
1e+20
 34
1e+20
 15
-1e+20
 25
-1e+20
 35
-1e+20
146
0.0
 13
0.0
 23
0.0
 33
0.0
 16
1.0
 26
0.0
 36
0.0
 17
0.0
 27
1.0
 37
0.0
 76
1
330
1B
  0
MATERIAL
  5
1F
102
{ACAD_REACTORS
330
E
102
}
330
E
100
AcDbMaterial
  1
ByBlock
  2

 70
0
 40
1.0
 71
1
 41
1.0
 91
-1023410177
 42
1.0
 72
1
  3

 73
1
 74
1
 75
1
 44
0.5
 73
0
 45
1.0
 46
1.0
 77
1
  4

 78
1
 79
1
170
1
 48
1.0
171
1
  6

172
1
173
1
174
1
140
1.0
141
1.0
175
1
  7

176
1
177
1
178
1
143
1.0
179
1
  8

270
1
271
1
272
1
145
1.0
146
1.0
273
1
  9

274
1
275
1
276
1
 42
1.0
 72
1
  3

 73
1
 74
1
 75
1
 94
63
  0
MATERIAL
  5
20
102
{ACAD_REACTORS
330
E
102
}
330
E
100
AcDbMaterial
  1
ByLayer
  2

 70
0
 40
1.0
 71
1
 41
1.0
 91
-1023410177
 42
1.0
 72
1
  3

 73
1
 74
1
 75
1
 44
0.5
 73
0
 45
1.0
 46
1.0
 77
1
  4

 78
1
 79
1
170
1
 48
1.0
171
1
  6

172
1
173
1
174
1
140
1.0
141
1.0
175
1
  7

176
1
177
1
178
1
143
1.0
179
1
  8

270
1
271
1
272
1
145
1.0
146
1.0
273
1
  9

274
1
275
1
276
1
 42
1.0
 72
1
  3

 73
1
 74
1
 75
1
 94
63
  0
MATERIAL
  5
21
102
{ACAD_REACTORS
330
E
102
}
330
E
100
AcDbMaterial
  1
Global
  2

 70
0
 40
1.0
 71
1
 41
1.0
 91
-1023410177
 42
1.0
 72
1
  3

 73
1
 74
1
 75
1
 44
0.5
 73
0
 45
1.0
 46
1.0
 77
1
  4

 78
1
 79
1
170
1
 48
1.0
171
1
  6

172
1
173
1
174
1
140
1.0
141
1.0
175
1
  7

176
1
177
1
178
1
143
1.0
179
1
  8

270
1
271
1
272
1
145
1.0
146
1.0
273
1
  9

274
1
275
1
276
1
 42
1.0
 72
1
  3

 73
1
 74
1
 75
1
 94
63
  0
MLINESTYLE
  5
22
102
{ACAD_REACTORS
330
10
102
}
330
10
100
AcDbMlineStyle
  2
Standard
 70
0
  3

 62
256
 51
90.0
 52
90.0
 71
2
 49
0.5
 62
256
  6
BYLAYER
 49
-0.5
 62
256
  6
BYLAYER
  0
MLEADERSTYLE
  5
2C
102
{ACAD_REACTORS
330
F
102
}
330
F
100
AcDbMLeaderStyle
179
2
170
2
171
1
172
0
 90
2
 40
0.0
 41
0.0
173
1
 91
-1056964608
 92
-2
290
1
 42
2.0
291
1
 43
8.0
  3
Standard
 44
4.0
300

342
29
174
1
175
1
176
0
178
1
 93
-1056964608
 45
4.0
292
0
297
0
 46
4.0
 94
-1056964608
 47
1.0
 49
1.0
140
1.0
294
1
141
0.0
177
0
142
1.0
295
0
296
0
143
3.75
271
0
272
9
273
9
  0
DICTIONARY
  5
2D
330
A
100
AcDbDictionary
280
1
281
1
  3
CREATED_BY_EZDXF
350
2E
  3
WRITTEN_BY_EZDXF
350
B7
  0
DICTIONARYVAR
  5
2E
330
2D
100
DictionaryVariables
280
0
  1
1.4.2 @ 2026-09-12T14:48:57.411431+00:00
  0
DICTIONARYVAR
  5
B7
330
2D
100
DictionaryVariables
280
0
  1
1.4.2 @ 2026-09-12T14:48:57.417051+00:00
  0
ENDSEC
  0
EOF
