  0
SECTION
  2
HEADER
  9
$ACADVER
  1
AC1015
  9
$ACADMAINTVER
 70
6
  9
$DWGCODEPAGE
  3
ANSI_1252
  9
$INSBASE
 10
0.0
 20
0.0
 30
0.0
  9
$EXTMIN
 10
1e+20
 20
1e+20
 30
1e+20
  9
$EXTMAX
 10
-1e+20
 20
-1e+20
 30
-1e+20
  9
$LIMMIN
 10
0.0
 20
0.0
  9
$LIMMAX
 10
420.0
 20
297.0
  9
$ORTHOMODE
 70
0
  9
$REGENMODE
 70
1
  9
$FILLMODE
 70
1
  9
$QTEXTMODE
 70
0
  9
$MIRRTEXT
 70
1
  9
$LTSCALE
 40
1.0
  9
$ATTMODE
 70
1
  9
$TEXTSIZE
 40
2.5
  9
$TRACEWID
 40
1.0
  9
$TEXTSTYLE
  7
Standard
  9
$CLAYER
  8
0
  9
$CELTYPE
  6
ByLayer
  9
$CECOLOR
 62
256
  9
$CELTSCALE
 40
1.0
  9
$DISPSILH
 70
0
  9
$DIMSCALE
 40
1.0
  9
$DIMASZ
 40
2.5
  9
$DIMEXO
 40
0.625
  9
$DIMDLI
 40
3.75
  9
$DIMRND
 40
0.0
  9
$DIMDLE
 40
0.0
  9
$DIMEXE
 40
1.25
  9
$DIMTP
 40
0.0
  9
$DIMTM
 40
0.0
  9
$DIMTXT
 40
2.5
  9
$DIMCEN
 40
2.5
  9
$DIMTSZ
 40
0.0
  9
$DIMTOL
 70
0
  9
$DIMLIM
 70
0
  9
$DIMTIH
 70
0
  9
$DIMTOH
 70
0
  9
$DIMSE1
 70
0
  9
$DIMSE2
 70
0
  9
$DIMTAD
 70
1
  9
$DIMZIN
 70
8
  9
$DIMBLK
  1

  9
$DIMASO
 70
1
  9
$DIMSHO
 70
1
  9
$DIMPOST
  1

  9
$DIMAPOST
  1

  9
$DIMALT
 70
0
  9
$DIMALTD
 70
3
  9
$DIMALTF
 40
0.03937007874
  9
$DIMLFAC
 40
1.0
  9
$DIMTOFL
 70
1
  9
$DIMTVP
 40
0.0
  9
$DIMTIX
 70
0
  9
$DIMSOXD
 70
0
  9
$DIMSAH
 70
0
  9
$DIMBLK1
  1

  9
$DIMBLK2
  1

  9
$DIMSTYLE
  2
ISO-25
  9
$DIMCLRD
 70
0
  9
$DIMCLRE
 70
0
  9
$DIMCLRT
 70
0
  9
$DIMTFAC
 40
1.0
  9
$DIMGAP
 40
0.625
  9
$DIMJUST
 70
0
  9
$DIMSD1
 70
0
  9
$DIMSD2
 70
0
  9
$DIMTOLJ
 70
0
  9
$DIMTZIN
 70
8
  9
$DIMALTZ
 70
0
  9
$DIMALTTZ
 70
0
  9
$DIMUPT
 70
0
  9
$DIMDEC
 70
2
  9
$DIMTDEC
 70
2
  9
$DIMALTU
 70
2
  9
$DIMALTTD
 70
3
  9
$DIMTXSTY
  7
Standard
  9
$DIMAUNIT
 70
0
  9
$DIMADEC
 70
0
  9
$DIMALTRND
 40
0.0
  9
$DIMAZIN
 70
0
  9
$DIMDSEP
 70
44
  9
$DIMATFIT
 70
3
  9
$DIMFRAC
 70
0
  9
$DIMLDRBLK
  1

  9
$DIMLUNIT
 70
2
  9
$DIMLWD
 70
-2
  9
$DIMLWE
 70
-2
  9
$DIMTMOVE
 70
0
  9
$LUNITS
 70
2
  9
$LUPREC
 70
4
  9
$SKETCHINC
 40
1.0
  9
$FILLETRAD
 40
10.0
  9
$AUNITS
 70
0
  9
$AUPREC
 70
2
  9
$MENU
  1
.
  9
$ELEVATION
 40
0.0
  9
$PELEVATION
 40
0.0
  9
$THICKNESS
 40
0.0
  9
$LIMCHECK
 70
0
  9
$CHAMFERA
 40
0.0
  9
$CHAMFERB
 40
0.0
  9
$CHAMFERC
 40
0.0
  9
$CHAMFERD
 40
0.0
  9
$SKPOLY
 70
0
  9
$TDCREATE
 40
2461296.422974537
  9
$TDUCREATE
 40
2458532.153996898
  9
$TDUPDATE
 40
2461296.422974537
  9
$TDUUPDATE
 40
2458532.1544311
  9
$TDINDWG
 40
0.0
  9
$TDUSRTIMER
 40
0.0
  9
$USRTIMER
 70
1
  9
$ANGBASE
 50
0.0
  9
$ANGDIR
 70
0
  9
$PDMODE
 70
0
  9
$PDSIZE
 40
0.0
  9
$PLINEWID
 40
0.0
  9
$SPLFRAME
 70
0
  9
$SPLINETYPE
 70
6
  9
$SPLINESEGS
 70
8
  9
$HANDSEED
  5
B8
  9
$SURFTAB1
 70
6
  9
$SURFTAB2
 70
6
  9
$SURFTYPE
 70
6
  9
$SURFU
 70
6
  9
$SURFV
 70
6
  9
$UCSBASE
  2

  9
$UCSNAME
  2

  9
$UCSORG
 10
0.0
 20
0.0
 30
0.0
  9
$UCSXDIR
 10
1.0
 20
0.0
 30
0.0
  9
$UCSYDIR
 10
0.0
 20
1.0
 30
0.0
  9
$UCSORTHOREF
  2

  9
$UCSORTHOVIEW
 70
0
  9
$UCSORGTOP
 10
0.0
 20
0.0
 30
0.0
  9
$UCSORGBOTTOM
 10
0.0
 20
0.0
 30
0.0
  9
$UCSORGLEFT
 10
0.0
 20
0.0
 30
0.0
  9
$UCSORGRIGHT
 10
0.0
 20
0.0
 30
0.0
  9
$UCSORGFRONT
 10
0.0
 20
0.0
 30
0.0
  9
$UCSORGBACK
 10
0.0
 20
0.0
 30
0.0
  9
$PUCSBASE
  2

  9
$PUCSNAME
  2

  9
$PUCSORG
 10
0.0
 20
0.0
 30
0.0
  9
$PUCSXDIR
 10
1.0
 20
0.0
 30
0.0
  9
$PUCSYDIR
 10
0.0
 20
1.0
 30
0.0
  9
$PUCSORTHOREF
  2

  9
$PUCSORTHOVIEW
 70
0
  9
$PUCSORGTOP
 10
0.0
 20
0.0
 30
0.0
  9
$PUCSORGBOTTOM
 10
0.0
 20
0.0
 30
0.0
  9
$PUCSORGLEFT
 10
0.0
 20
0.0
 30
0.0
  9
$PUCSORGRIGHT
 10
0.0
 20
0.0
 30
0.0
  9
$PUCSORGFRONT
 10
0.0
 20
0.0
 30
0.0
  9
$PUCSORGBACK
 10
0.0
 20
0.0
 30
0.0
  9
$USERI1
 70
0
  9
$USERI2
 70
0
  9
$USERI3
 70
0
  9
$USERI4
 70
0
  9
$USERI5
 70
0
  9
$USERR1
 40
0.0
  9
$USERR2
 40
0.0
  9
$USERR3
 40
0.0
  9
$USERR4
 40
0.0
  9
$USERR5
 40
0.0
  9
$WORLDVIEW
 70
1
  9
$SHADEDGE
 70
3
  9
$SHADEDIF
 70
70
  9
$TILEMODE
 70
1
  9
$MAXACTVP
 70
64
  9
$PINSBASE
 10
0.0
 20
0.0
 30
0.0
  9
$PLIMCHECK
 70
0
  9
$PEXTMIN
 10
1e+20
 20
1e+20
 30
1e+20
  9
$PEXTMAX
 10
-1e+20
 20
-1e+20
 30
-1e+20
  9
$PLIMMIN
 10
0.0
 20
0.0
  9
$PLIMMAX
 10
420.0
 20
297.0
  9
$UNITMODE
 70
0
  9
$VISRETAIN
 70
1
  9
$PLINEGEN
 70
0
  9
$PSLTSCALE
 70
1
  9
$TREEDEPTH
 70
3020
  9
$CMLSTYLE
  2
Standard
  9
$CMLJUST
 70
0
  9
$CMLSCALE
 40
20.0
  9
$PROXYGRAPHICS
 70
1
  9
$MEASUREMENT
 70
1
  9
$CELWEIGHT
370
-1
  9
$ENDCAPS
280
0
  9
$JOINSTYLE
280
0
  9
$LWDISPLAY
290
0
  9
$INSUNITS
 70
4
  9
$HYPERLINKBASE
  1

  9
$STYLESHEET
  1

  9
$XEDIT
290
1
  9
$CEPSNTYPE
380
0
  9
$PSTYLEMODE
290
1
  9
$FINGERPRINTGUID
  2
{6C0CBBB8-0E2A-46A7-80D6-00A3F9C6C9E4}
  9
$VERSIONGUID
  2
{33E03434-DC0D-45AA-80E8-1A9F6BF3EE44}
  9
$EXTNAMES
290
1
  9
$PSVPSCALE
 40
0.0
  9
$OLESTARTUP
290
0
  0
ENDSEC
  0
SECTION
  2
CLASSES
  0
CLASS
  1
ACDBDICTIONARYWDFLT
  2
AcDbDictionaryWithDefault
  3
ObjectDBX Classes
 90
0
280
0
281
0
  0
CLASS
  1
SUN
  2
AcDbSun
  3
SCENEOE
 90
1153
280
0
281
0
  0
CLASS
  1
VISUALSTYLE
  2
AcDbVisualStyle
  3
ObjectDBX Classes
 90
4095
280
0
281
0
  0
CLASS
  1
MATERIAL
  2
AcDbMaterial
  3
ObjectDBX Classes
 90
1153
280
0
281
0
  0
CLASS
  1
SCALE
  2
AcDbScale
  3
ObjectDBX Classes
 90
1153
280
0
281
0
  0
CLASS
  1
TABLESTYLE
  2
AcDbTableStyle
  3
ObjectDBX Classes
 90
4095
280
0
281
0
  0
CLASS
  1
MLEADERSTYLE
  2
AcDbMLeaderStyle
  3
ACDB_MLEADERSTYLE_CLASS
 90
4095
280
0
281
0
  0
CLASS
  1
DICTIONARYVAR
  2
AcDbDictionaryVar
  3
ObjectDBX Classes
 90
0
280
0
281
0
  0
CLASS
  1
CELLSTYLEMAP
  2
AcDbCellStyleMap
  3
ObjectDBX Classes
 90
1152
280
0
281
0
  0
CLASS
  1
MENTALRAYRENDERSETTINGS
  2
AcDbMentalRayRenderSettings
  3
SCENEOE
 90
1024
280
0
281
0
  0
CLASS
  1
ACDBDETAILVIEWSTYLE
  2
AcDbDetailViewStyle
  3
ObjectDBX Classes
 90
1025
280
0
281
0
  0
CLASS
  1
ACDBSECTIONVIEWSTYLE
  2
AcDbSectionViewStyle
  3
ObjectDBX Classes
 90
1025
280
0
281
0
  0
CLASS
  1
RASTERVARIABLES
  2
AcDbRasterVariables
  3
ISM
 90
0
280
0
281
0
  0
CLASS
  1
ACDBPLACEHOLDER
  2
AcDbPlaceHolder
  3
ObjectDBX Classes
 90
0
280
0
281
0
  0
CLASS
  1
LAYOUT
  2
AcDbLayout
  3
ObjectDBX Classes
 90
0
280
0
281
0
  0
ENDSEC
  0
SECTION
  2
TABLES
  0
TABLE
  2
VPORT
  5
8
330
0
100
AcDbSymbolTable
 70
1
  0
VPORT
  5
23
330
8
100
AcDbSymbolTableRecord
100
AcDbViewportTableRecord
  2
*Active
 70
0
 10
0.0
 20
0.0
 11
1.0
 21
1.0
 12
0.0
 22
0.0
 13
0.0
 23
0.0
 14
0.5
 24
0.5
 15
0.5
 25
0.5
 16
0.0
 26
0.0
 36
1.0
 17
0.0
 27
0.0
 37
0.0
 40
1000.0
 41
1.34
 42
50.0
 43
0.0
 44
0.0
 50
0.0
 51
0.0
 71
0
 72
1000
 73
1
 74
3
 75
0
 76
0
 77
0
 78
0
281
0
 65
0
146
0.0
  0
ENDTAB
  0
TABLE
  2
LTYPE
  5
2
330
0
100
AcDbSymbolTable
 70
3
  0
LTYPE
  5
24
330
2
100
AcDbSymbolTableRecord
100
AcDbLinetypeTableRecord
  2
ByBlock
 70
0
  3

 72
65
 73
0
 40
0.0
  0
LTYPE
  5
25
330
2
100
AcDbSymbolTableRecord
100
AcDbLinetypeTableRecord
  2
ByLayer
 70
0
  3

 72
65
 73
0
 40
0.0
  0
LTYPE
  5
26
330
2
100
AcDbSymbolTableRecord
100
AcDbLinetypeTableRecord
  2
Continuous
 70
0
  3

 72
65
 73
0
 40
0.0
  0
ENDTAB
  0
TABLE
  2
LAYER
  5
1
330
0
100
AcDbSymbolTable
 70
4
  0
LAYER
  5
27
330
1
100
AcDbSymbolTableRecord
100
AcDbLayerTableRecord
  2
0
 70
0
 62
7
  6
Continuous
370
-3
390
13
  0
LAYER
  5
28
330
1
100
AcDbSymbolTableRecord
100
AcDbLayerTableRecord
  2
Defpoints
 70
0
 62
7
  6
Continuous
290
0
370
-3
390
13
  0
LAYER
  5
2F
330
1
100
AcDbSymbolTableRecord
100
AcDbLayerTableRecord
  2
CUT
 70
0
 62
1
  6
Continuous
370
-3
390
13
  0
LAYER
  5
30
330
1
100
AcDbSymbolTableRecord
100
AcDbLayerTableRecord
  2
RASTER
 70
0
 62
7
  6
Continuous
370
-3
390
13
  0
ENDTAB
  0
TABLE
  2
STYLE
  5
5
330
0
100
AcDbSymbolTable
 70
1
  0
STYLE
  5
29
330
5
100
AcDbSymbolTableRecord
100
AcDbTextStyleTableRecord
  2
Standard
 70
0
 40
0.0
 41
1.0
 50
0.0
 71
0
 42
2.5
  3
txt
  4

  0
ENDTAB
  0
TABLE
  2
VIEW
  5
7
330
0
100
AcDbSymbolTable
 70
0
  0
ENDTAB
  0
TABLE
  2
UCS
  5
6
330
0
100
AcDbSymbolTable
 70
0
  0
ENDTAB
  0
TABLE
  2
APPID
  5
3
330
0
100
AcDbSymbolTable
 70
3
  0
APPID
  5
2A
330
3
100
AcDbSymbolTableRecord
100
AcDbRegAppTableRecord
  2
ACAD
 70
0
  0
APPID
  5
B5
330
3
100
AcDbSymbolTableRecord
100
AcDbRegAppTableRecord
  2
HATCHBACKGROUNDCOLOR
 70
0
  0
APPID
  5
B6
330
3
100
AcDbSymbolTableRecord
100
AcDbRegAppTableRecord
  2
EZDXF
 70
0
  0
ENDTAB
  0
TABLE
  2
DIMSTYLE
  5
4
330
0
100
AcDbSymbolTable
 70
1
100
AcDbDimStyleTable
  0
DIMSTYLE
105
2B
330
4
100
AcDbSymbolTableRecord
100
AcDbDimStyleTableRecord
  2
Standard
 70
0
  3

  4

 40
1.0
 41
2.5
 42
0.625
 43
3.75
 44
1.25
 45
0.0
 46
0.0
 47
0.0
 48
0.0
140
2.5
141
2.5
142
0.0
143
0.03937007874
144
1.0
145
0.0
146
1.0
147
0.625
148
0.0
 71
0
 72
0
 73
0
 74
0
 75
0
 76
0
 77
1
 78
8
 79
3
170
0
171
3
172
1
173
0
174
0
175
0
176
0
177
0
178
0
179
2
271
2
272
2
273
2
274
3
275
0
276
0
277
2
278
44
279
0
280
0
281
0
282
0
283
0
284
8
285
0
286
0
288
0
289
3
371
-2
372
-2
  0
ENDTAB
  0
TABLE
  2
BLOCK_RECORD
  5
9
330
0
100
AcDbSymbolTable
 70
2
  0
BLOCK_RECORD
  5
17
330
9
100
AcDbSymbolTableRecord
100
AcDbBlockTableRecord
  2
*Model_Space
340
1A
  0
BLOCK_RECORD
  5
1B
330
9
100
AcDbSymbolTableRecord
100
AcDbBlockTableRecord
  2
*Paper_Space
340
1E
  0
ENDTAB
  0
ENDSEC
  0
SECTION
  2
BLOCKS
  0
BLOCK
  5
18
330
17
100
AcDbEntity
  8
0
100
AcDbBlockBegin
  2
*Model_Space
 70
0
 10
0.0
 20
0.0
 30
0.0
  3
*Model_Space
  1

  0
ENDBLK
  5
19
330
17
100
AcDbEntity
  8
0
100
AcDbBlockEnd
  0
BLOCK
  5
1C
330
1B
100
AcDbEntity
  8
0
100
AcDbBlockBegin
  2
*Paper_Space
 70
0
 10
0.0
 20
0.0
 30
0.0
  3
*Paper_Space
  1

  0
ENDBLK
  5
1D
330
1B
100
AcDbEntity
  8
0
100
AcDbBlockEnd
  0
ENDSEC
  0
SECTION
  2
ENTITIES
  0
LWPOLYLINE
  5
31
330
17
100
AcDbEntity
  8
CUT
100
AcDbPolyline
 90
32
 70
1
 10
7.1
 20
172.392
 10
55.932
 20
172.392
 10
59.072
 20
172.392
 10
59.072
 20
170.012
 10
55.972
 20
170.012
 10
55.972
 20
167.792
 10
59.072
 20
167.792
 10
59.072
 20
165.412
 10
55.932
 20
165.412
 10
50.546
 20
165.412
 10
50.546
 20
162.312
 10
45.04
 20
162.312
 10
45.04
 20
165.412
 10
39.695
 20
165.412
 10
39.695
 20
162.312
 10
34.189
 20
162.312
 10
34.189
 20
165.412
 10
28.843
 20
165.412
 10
28.843
 20
162.312
 10
23.337
 20
162.312
 10
23.337
 20
165.412
 10
17.992
 20
165.412
 10
17.992
 20
162.312
 10
12.486
 20
162.312
 10
12.486
 20
165.412
 10
7.1
 20
165.412
 10
3.96
 20
165.412
 10
3.96
 20
167.792
 10
7.06
 20
167.792
 10
7.06
 20
170.012
 10
3.96
 20
170.012
 10
3.96
 20
172.392
  0
LWPOLYLINE
  5
32
330
17
100
AcDbEntity
  8
CUT
100
AcDbPolyline
 90
4
 70
1
 10
12.14
 20
169.962
 10
50.892
 20
169.962
 10
50.892
 20
167.842
 10
12.14
 20
167.842
  0
HATCH
  5
33
330
17
100
AcDbEntity
  8
RASTER
 62
7
100
AcDbHatch
 10
0.0
 20
0.0
 30
0.0
210
0.0
220
0.0
230
1.0
  2
SOLID
 70
1
 71
0
 91
1
 92
3
 72
0
 73
1
 93
4
 10
7.7
 20
171.952
 10
11.5
 20
171.952
 10
11.5
 20
165.852
 10
7.7
 20
165.852
 97
0
 75
0
 76
1
 98
0
  0
HATCH
  5
34
330
17
100
AcDbEntity
  8
RASTER
 62
7
100
AcDbHatch
 10
0.0
 20
0.0
 30
0.0
210
0.0
220
0.0
230
1.0
  2
SOLID
 70
1
 71
0
 91
1
 92
3
 72
0
 73
1
 93
4
 10
51.532
 20
171.952
 10
55.332
 20
171.952
 10
55.332
 20
165.852
 10
51.532
 20
165.852
 97
0
 75
0
 76
1
 98
0
  0
HATCH
  5
35
330
17
100
AcDbEntity
  8
RASTER
 62
7
100
AcDbHatch
 10
0.0
 20
0.0
 30
0.0
210
0.0
220
0.0
230
1.0
  2
SOLID
 70
1
 71
0
 91
1
 92
3
 72
0
 73
1
 93
48
 10
14.2
 20
171.602
 10
14.196
 20
171.537
 10
14.183
 20
171.473
 10
14.162
 20
171.411
 10
14.133
 20
171.352
 10
14.097
 20
171.298
 10
14.054
 20
171.248
 10
14.004
 20
171.205
 10
13.95
 20
171.169
 10
13.891
 20
171.14
 10
13.829
 20
171.119
 10
13.765
 20
171.106
 10
13.7
 20
171.102
 10
13.635
 20
171.106
 10
13.571
 20
171.119
 10
13.509
 20
171.14
 10
13.45
 20
171.169
 10
13.396
 20
171.205
 10
13.346
 20
171.248
 10
13.303
 20
171.298
 10
13.267
 20
171.352
 10
13.238
 20
171.411
 10
13.217
 20
171.473
 10
13.204
 20
171.537
 10
13.2
 20
171.602
 10
13.204
 20
171.667
 10
13.217
 20
171.731
 10
13.238
 20
171.793
 10
13.267
 20
171.852
 10
13.303
 20
171.906
 10
13.346
 20
171.956
 10
13.396
 20
171.999
 10
13.45
 20
172.035
 10
13.509
 20
172.064
 10
13.571
 20
172.085
 10
13.635
 20
172.098
 10
13.7
 20
172.102
 10
13.765
 20
172.098
 10
13.829
 20
172.085
 10
13.891
 20
172.064
 10
13.95
 20
172.035
 10
14.004
 20
171.999
 10
14.054
 20
171.956
 10
14.097
 20
171.906
 10
14.133
 20
171.852
 10
14.162
 20
171.793
 10
14.183
 20
171.731
 10
14.196
 20
171.667
 97
0
 75
0
 76
1
 98
0
  0
HATCH
  5
36
330
17
100
AcDbEntity
  8
RASTER
 62
7
100
AcDbHatch
 10
0.0
 20
0.0
 30
0.0
210
0.0
220
0.0
230
1.0
  2
SOLID
 70
1
 71
0
 91
1
 92
3
 72
0
 73
1
 93
48
 10
49.832
 20
171.602
 10
49.828
 20
171.537
 10
49.815
 20
171.473
 10
49.794
 20
171.411
 10
49.765
 20
171.352
 10
49.729
 20
171.298
 10
49.686
 20
171.248
 10
49.636
 20
171.205
 10
49.582
 20
171.169
 10
49.523
 20
171.14
 10
49.461
 20
171.119
 10
49.397
 20
171.106
 10
49.332
 20
171.102
 10
49.267
 20
171.106
 10
49.203
 20
171.119
 10
49.141
 20
171.14
 10
49.082
 20
171.169
 10
49.028
 20
171.205
 10
48.978
 20
171.248
 10
48.935
 20
171.298
 10
48.899
 20
171.352
 10
48.87
 20
171.411
 10
48.849
 20
171.473
 10
48.836
 20
171.537
 10
48.832
 20
171.602
 10
48.836
 20
171.667
 10
48.849
 20
171.731
 10
48.87
 20
171.793
 10
48.899
 20
171.852
 10
48.935
 20
171.906
 10
48.978
 20
171.956
 10
49.028
 20
171.999
 10
49.082
 20
172.035
 10
49.141
 20
172.064
 10
49.203
 20
172.085
 10
49.267
 20
172.098
 10
49.332
 20
172.102
 10
49.397
 20
172.098
 10
49.461
 20
172.085
 10
49.523
 20
172.064
 10
49.582
 20
172.035
 10
49.636
 20
171.999
 10
49.686
 20
171.956
 10
49.729
 20
171.906
 10
49.765
 20
171.852
 10
49.794
 20
171.793
 10
49.815
 20
171.731
 10
49.828
 20
171.667
 97
0
 75
0
 76
1
 98
0
  0
HATCH
  5
37
330
17
100
AcDbEntity
  8
RASTER
 62
7
100
AcDbHatch
 10
0.0
 20
0.0
 30
0.0
210
0.0
220
0.0
230
1.0
  2
SOLID
 70
1
 71
0
 91
1
 92
3
 72
0
 73
1
 93
48
 10
14.2
 20
166.202
 10
14.196
 20
166.137
 10
14.183
 20
166.073
 10
14.162
 20
166.011
 10
14.133
 20
165.952
 10
14.097
 20
165.898
 10
14.054
 20
165.848
 10
14.004
 20
165.805
 10
13.95
 20
165.769
 10
13.891
 20
165.74
 10
13.829
 20
165.719
 10
13.765
 20
165.706
 10
13.7
 20
165.702
 10
13.635
 20
165.706
 10
13.571
 20
165.719
 10
13.509
 20
165.74
 10
13.45
 20
165.769
 10
13.396
 20
165.805
 10
13.346
 20
165.848
 10
13.303
 20
165.898
 10
13.267
 20
165.952
 10
13.238
 20
166.011
 10
13.217
 20
166.073
 10
13.204
 20
166.137
 10
13.2
 20
166.202
 10
13.204
 20
166.267
 10
13.217
 20
166.331
 10
13.238
 20
166.393
 10
13.267
 20
166.452
 10
13.303
 20
166.506
 10
13.346
 20
166.556
 10
13.396
 20
166.599
 10
13.45
 20
166.635
 10
13.509
 20
166.664
 10
13.571
 20
166.685
 10
13.635
 20
166.698
 10
13.7
 20
166.702
 10
13.765
 20
166.698
 10
13.829
 20
166.685
 10
13.891
 20
166.664
 10
13.95
 20
166.635
 10
14.004
 20
166.599
 10
14.054
 20
166.556
 10
14.097
 20
166.506
 10
14.133
 20
166.452
 10
14.162
 20
166.393
 10
14.183
 20
166.331
 10
14.196
 20
166.267
 97
0
 75
0
 76
1
 98
0
  0
HATCH
  5
38
330
17
100
AcDbEntity
  8
RASTER
 62
7
100
AcDbHatch
 10
0.0
 20
0.0
 30
0.0
210
0.0
220
0.0
230
1.0
  2
SOLID
 70
1
 71
0
 91
1
 92
3
 72
0
 73
1
 93
48
 10
49.832
 20
166.202
 10
49.828
 20
166.137
 10
49.815
 20
166.073
 10
49.794
 20
166.011
 10
49.765
 20
165.952
 10
49.729
 20
165.898
 10
49.686
 20
165.848
 10
49.636
 20
165.805
 10
49.582
 20
165.769
 10
49.523
 20
165.74
 10
49.461
 20
165.719
 10
49.397
 20
165.706
 10
49.332
 20
165.702
 10
49.267
 20
165.706
 10
49.203
 20
165.719
 10
49.141
 20
165.74
 10
49.082
 20
165.769
 10
49.028
 20
165.805
 10
48.978
 20
165.848
 10
48.935
 20
165.898
 10
48.899
 20
165.952
 10
48.87
 20
166.011
 10
48.849
 20
166.073
 10
48.836
 20
166.137
 10
48.832
 20
166.202
 10
48.836
 20
166.267
 10
48.849
 20
166.331
 10
48.87
 20
166.393
 10
48.899
 20
166.452
 10
48.935
 20
166.506
 10
48.978
 20
166.556
 10
49.028
 20
166.599
 10
49.082
 20
166.635
 10
49.141
 20
166.664
 10
49.203
 20
166.685
 10
49.267
 20
166.698
 10
49.332
 20
166.702
 10
49.397
 20
166.698
 10
49.461
 20
166.685
 10
49.523
 20
166.664
 10
49.582
 20
166.635
 10
49.636
 20
166.599
 10
49.686
 20
166.556
 10
49.729
 20
166.506
 10
49.765
 20
166.452
 10
49.794
 20
166.393
 10
49.815
 20
166.331
 10
49.828
 20
166.267
 97
0
 75
0
 76
1
 98
0
  0
LWPOLYLINE
  5
39
330
17
100
AcDbEntity
  8
CUT
100
AcDbPolyline
 90
32
 70
1
 10
66.132
 20
172.392
 10
114.964
 20
172.392
 10
118.104
 20
172.392
 10
118.104
 20
170.012
 10
115.004
 20
170.012
 10
115.004
 20
167.792
 10
118.104
 20
167.792
 10
118.104
 20
165.412
 10
114.964
 20
165.412
 10
109.578
 20
165.412
 10
109.578
 20
162.312
 10
104.072
 20
162.312
 10
104.072
 20
165.412
 10
98.727
 20
165.412
 10
98.727
 20
162.312
 10
93.221
 20
162.312
 10
93.221
 20
165.412
 10
87.875
 20
165.412
 10
87.875
 20
162.312
 10
82.369
 20
162.312
 10
82.369
 20
165.412
 10
77.024
 20
165.412
 10
77.024
 20
162.312
 10
71.518
 20
162.312
 10
71.518
 20
165.412
 10
66.132
 20
165.412
 10
62.992
 20
165.412
 10
62.992
 20
167.792
 10
66.092
 20
167.792
 10
66.092
 20
170.012
 10
62.992
 20
170.012
 10
62.992
 20
172.392
  0
LWPOLYLINE
  5
3A
330
17
100
AcDbEntity
  8
CUT
100
AcDbPolyline
 90
4
 70
1
 10
71.172
 20
169.962
 10
109.924
 20
169.962
 10
109.924
 20
167.842
 10
71.172
 20
167.842
  0
HATCH
  5
3B
330
17
100
AcDbEntity
  8
RASTER
 62
7
100
AcDbHatch
 10
0.0
 20
0.0
 30
0.0
210
0.0
220
0.0
230
1.0
  2
SOLID
 70
1
 71
0
 91
1
 92
3
 72
0
 73
1
 93
4
 10
66.732
 20
171.952
 10
70.532
 20
171.952
 10
70.532
 20
165.852
 10
66.732
 20
165.852
 97
0
 75
0
 76
1
 98
0
  0
HATCH
  5
3C
330
17
100
AcDbEntity
  8
RASTER
 62
7
100
AcDbHatch
 10
0.0
 20
0.0
 30
0.0
210
0.0
220
0.0
230
1.0
  2
SOLID
 70
1
 71
0
 91
1
 92
3
 72
0
 73
1
 93
4
 10
110.564
 20
171.952
 10
114.364
 20
171.952
 10
114.364
 20
165.852
 10
110.564
 20
165.852
 97
0
 75
0
 76
1
 98
0
  0
HATCH
  5
3D
330
17
100
AcDbEntity
  8
RASTER
 62
7
100
AcDbHatch
 10
0.0
 20
0.0
 30
0.0
210
0.0
220
0.0
230
1.0
  2
SOLID
 70
1
 71
0
 91
1
 92
3
 72
0
 73
1
 93
48
 10
73.232
 20
171.602
 10
73.228
 20
171.537
 10
73.215
 20
171.473
 10
73.194
 20
171.411
 10
73.165
 20
171.352
 10
73.129
 20
171.298
 10
73.086
 20
171.248
 10
73.036
 20
171.205
 10
72.982
 20
171.169
 10
72.923
 20
171.14
 10
72.861
 20
171.119
 10
72.797
 20
171.106
 10
72.732
 20
171.102
 10
72.667
 20
171.106
 10
72.603
 20
171.119
 10
72.541
 20
171.14
 10
72.482
 20
171.169
 10
72.428
 20
171.205
 10
72.378
 20
171.248
 10
72.335
 20
171.298
 10
72.299
 20
171.352
 10
72.27
 20
171.411
 10
72.249
 20
171.473
 10
72.236
 20
171.537
 10
72.232
 20
171.602
 10
72.236
 20
171.667
 10
72.249
 20
171.731
 10
72.27
 20
171.793
 10
72.299
 20
171.852
 10
72.335
 20
171.906
 10
72.378
 20
171.956
 10
72.428
 20
171.999
 10
72.482
 20
172.035
 10
72.541
 20
172.064
 10
72.603
 20
172.085
 10
72.667
 20
172.098
 10
72.732
 20
172.102
 10
72.797
 20
172.098
 10
72.861
 20
172.085
 10
72.923
 20
172.064
 10
72.982
 20
172.035
 10
73.036
 20
171.999
 10
73.086
 20
171.956
 10
73.129
 20
171.906
 10
73.165
 20
171.852
 10
73.194
 20
171.793
 10
73.215
 20
171.731
 10
73.228
 20
171.667
 97
0
 75
0
 76
1
 98
0
  0
HATCH
  5
3E
330
17
100
AcDbEntity
  8
RASTER
 62
7
100
AcDbHatch
 10
0.0
 20
0.0
 30
0.0
210
0.0
220
0.0
230
1.0
  2
SOLID
 70
1
 71
0
 91
1
 92
3
 72
0
 73
1
 93
48
 10
108.864
 20
171.602
 10
108.86
 20
171.537
 10
108.847
 20
171.473
 10
108.826
 20
171.411
 10
108.797
 20
171.352
 10
108.761
 20
171.298
 10
108.718
 20
171.248
 10
108.668
 20
171.205
 10
108.614
 20
171.169
 10
108.555
 20
171.14
 10
108.493
 20
171.119
 10
108.429
 20
171.106
 10
108.364
 20
171.102
 10
108.299
 20
171.106
 10
108.235
 20
171.119
 10
108.173
 20
171.14
 10
108.114
 20
171.169
 10
108.06
 20
171.205
 10
108.01
 20
171.248
 10
107.967
 20
171.298
 10
107.931
 20
171.352
 10
107.902
 20
171.411
 10
107.881
 20
171.473
 10
107.868
 20
171.537
 10
107.864
 20
171.602
 10
107.868
 20
171.667
 10
107.881
 20
171.731
 10
107.902
 20
171.793
 10
107.931
 20
171.852
 10
107.967
 20
171.906
 10
108.01
 20
171.956
 10
108.06
 20
171.999
 10
108.114
 20
172.035
 10
108.173
 20
172.064
 10
108.235
 20
172.085
 10
108.299
 20
172.098
 10
108.364
 20
172.102
 10
108.429
 20
172.098
 10
108.493
 20
172.085
 10
108.555
 20
172.064
 10
108.614
 20
172.035
 10
108.668
 20
171.999
 10
108.718
 20
171.956
 10
108.761
 20
171.906
 10
108.797
 20
171.852
 10
108.826
 20
171.793
 10
108.847
 20
171.731
 10
108.86
 20
171.667
 97
0
 75
0
 76
1
 98
0
  0
HATCH
  5
3F
330
17
100
AcDbEntity
  8
RASTER
 62
7
100
AcDbHatch
 10
0.0
 20
0.0
 30
0.0
210
0.0
220
0.0
230
1.0
  2
SOLID
 70
1
 71
0
 91
1
 92
3
 72
0
 73
1
 93
48
 10
73.232
 20
166.202
 10
73.228
 20
166.137
 10
73.215
 20
166.073
 10
73.194
 20
166.011
 10
73.165
 20
165.952
 10
73.129
 20
165.898
 10
73.086
 20
165.848
 10
73.036
 20
165.805
 10
72.982
 20
165.769
 10
72.923
 20
165.74
 10
72.861
 20
165.719
 10
72.797
 20
165.706
 10
72.732
 20
165.702
 10
72.667
 20
165.706
 10
72.603
 20
165.719
 10
72.541
 20
165.74
 10
72.482
 20
165.769
 10
72.428
 20
165.805
 10
72.378
 20
165.848
 10
72.335
 20
165.898
 10
72.299
 20
165.952
 10
72.27
 20
166.011
 10
72.249
 20
166.073
 10
72.236
 20
166.137
 10
72.232
 20
166.202
 10
72.236
 20
166.267
 10
72.249
 20
166.331
 10
72.27
 20
166.393
 10
72.299
 20
166.452
 10
72.335
 20
166.506
 10
72.378
 20
166.556
 10
72.428
 20
166.599
 10
72.482
 20
166.635
 10
72.541
 20
166.664
 10
72.603
 20
166.685
 10
72.667
 20
166.698
 10
72.732
 20
166.702
 10
72.797
 20
166.698
 10
72.861
 20
166.685
 10
72.923
 20
166.664
 10
72.982
 20
166.635
 10
73.036
 20
166.599
 10
73.086
 20
166.556
 10
73.129
 20
166.506
 10
73.165
 20
166.452
 10
73.194
 20
166.393
 10
73.215
 20
166.331
 10
73.228
 20
166.267
 97
0
 75
0
 76
1
 98
0
  0
HATCH
  5
40
330
17
100
AcDbEntity
  8
RASTER
 62
7
100
AcDbHatch
 10
0.0
 20
0.0
 30
0.0
210
0.0
220
0.0
230
1.0
  2
SOLID
 70
1
 71
0
 91
1
 92
3
 72
0
 73
1
 93
48
 10
108.864
 20
166.202
 10
108.86
 20
166.137
 10
108.847
 20
166.073
 10
108.826
 20
166.011
 10
108.797
 20
165.952
 10
108.761
 20
165.898
 10
108.718
 20
165.848
 10
108.668
 20
165.805
 10
108.614
 20
165.769
 10
108.555
 20
165.74
 10
108.493
 20
165.719
 10
108.429
 20
165.706
 10
108.364
 20
165.702
 10
108.299
 20
165.706
 10
108.235
 20
165.719
 10
108.173
 20
165.74
 10
108.114
 20
165.769
 10
108.06
 20
165.805
 10
108.01
 20
165.848
 10
107.967
 20
165.898
 10
107.931
 20
165.952
 10
107.902
 20
166.011
 10
107.881
 20
166.073
 10
107.868
 20
166.137
 10
107.864
 20
166.202
 10
107.868
 20
166.267
 10
107.881
 20
166.331
 10
107.902
 20
166.393
 10
107.931
 20
166.452
 10
107.967
 20
166.506
 10
108.01
 20
166.556
 10
108.06
 20
166.599
 10
108.114
 20
166.635
 10
108.173
 20
166.664
 10
108.235
 20
166.685
 10
108.299
 20
166.698
 10
108.364
 20
166.702
 10
108.429
 20
166.698
 10
108.493
 20
166.685
 10
108.555
 20
166.664
 10
108.614
 20
166.635
 10
108.668
 20
166.599
 10
108.718
 20
166.556
 10
108.761
 20
166.506
 10
108.797
 20
166.452
 10
108.826
 20
166.393
 10
108.847
 20
166.331
 10
108.86
 20
166.267
 97
0
 75
0
 76
1
 98
0
  0
LWPOLYLINE
  5
41
330
17
100
AcDbEntity
  8
CUT
100
AcDbPolyline
 90
20
 70
1
 10
125.124
 20
172.392
 10
158.092
 20
172.392
 10
158.092
 20
170.092
 10
161.192
 20
170.092
 10
161.192
 20
167.712
 10
158.092
 20
167.712
 10
158.092
 20
165.412
 10
151.514
 20
165.412
 10
151.514
 20
162.312
 10
144.857
 20
162.312
 10
144.857
 20
165.412
 10
138.359
 20
165.412
 10
138.359
 20
162.312
 10
131.702
 20
162.312
 10
131.702
 20
165.412
 10
125.124
 20
165.412
 10
125.124
 20
167.712
 10
122.024
 20
167.712
 10
122.024
 20
170.092
 10
125.124
 20
170.092
  0
LWPOLYLINE
  5
42
330
17
100
AcDbEntity
  8
CUT
100
AcDbPolyline
 90
4
 70
1
 10
130.204
 20
169.962
 10
153.012
 20
169.962
 10
153.012
 20
167.842
 10
130.204
 20
167.842
  0
HATCH
  5
43
330
17
100
AcDbEntity
  8
RASTER
 62
7
100
AcDbHatch
 10
0.0
 20
0.0
 30
0.0
210
0.0
220
0.0
230
1.0
  2
SOLID
 70
1
 71
0
 91
1
 92
3
 72
0
 73
1
 93
4
 10
125.764
 20
171.952
 10
129.564
 20
171.952
 10
129.564
 20
165.852
 10
125.764
 20
165.852
 97
0
 75
0
 76
1
 98
0
  0
HATCH
  5
44
330
17
100
AcDbEntity
  8
RASTER
 62
7
100
AcDbHatch
 10
0.0
 20
0.0
 30
0.0
210
0.0
220
0.0
230
1.0
  2
SOLID
 70
1
 71
0
 91
1
 92
3
 72
0
 73
1
 93
4
 10
153.652
 20
171.952
 10
157.452
 20
171.952
 10
157.452
 20
165.852
 10
153.652
 20
165.852
 97
0
 75
0
 76
1
 98
0
  0
HATCH
  5
45
330
17
100
AcDbEntity
  8
RASTER
 62
7
100
AcDbHatch
 10
0.0
 20
0.0
 30
0.0
210
0.0
220
0.0
230
1.0
  2
SOLID
 70
1
 71
0
 91
1
 92
3
 72
0
 73
1
 93
48
 10
132.264
 20
171.602
 10
132.26
 20
171.537
 10
132.247
 20
171.473
 10
132.226
 20
171.411
 10
132.197
 20
171.352
 10
132.161
 20
171.298
 10
132.118
 20
171.248
 10
132.068
 20
171.205
 10
132.014
 20
171.169
 10
131.955
 20
171.14
 10
131.893
 20
171.119
 10
131.829
 20
171.106
 10
131.764
 20
171.102
 10
131.699
 20
171.106
 10
131.635
 20
171.119
 10
131.573
 20
171.14
 10
131.514
 20
171.169
 10
131.46
 20
171.205
 10
131.41
 20
171.248
 10
131.367
 20
171.298
 10
131.331
 20
171.352
 10
131.302
 20
171.411
 10
131.281
 20
171.473
 10
131.268
 20
171.537
 10
131.264
 20
171.602
 10
131.268
 20
171.667
 10
131.281
 20
171.731
 10
131.302
 20
171.793
 10
131.331
 20
171.852
 10
131.367
 20
171.906
 10
131.41
 20
171.956
 10
131.46
 20
171.999
 10
131.514
 20
172.035
 10
131.573
 20
172.064
 10
131.635
 20
172.085
 10
131.699
 20
172.098
 10
131.764
 20
172.102
 10
131.829
 20
172.098
 10
131.893
 20
172.085
 10
131.955
 20
172.064
 10
132.014
 20
172.035
 10
132.068
 20
171.999
 10
132.118
 20
171.956
 10
132.161
 20
171.906
 10
132.197
 20
171.852
 10
132.226
 20
171.793
 10
132.247
 20
171.731
 10
132.26
 20
171.667
 97
0
 75
0
 76
1
 98
0
  0
HATCH
  5
46
330
17
100
AcDbEntity
  8
RASTER
 62
7
100
AcDbHatch
 10
0.0
 20
0.0
 30
0.0
210
0.0
220
0.0
230
1.0
  2
SOLID
 70
1
 71
0
 91
1
 92
3
 72
0
 73
1
 93
48
 10
151.952
 20
171.602
 10
151.948
 20
171.537
 10
151.935
 20
171.473
 10
151.914
 20
171.411
 10
151.885
 20
171.352
 10
151.849
 20
171.298
 10
151.806
 20
171.248
 10
151.756
 20
171.205
 10
151.702
 20
171.169
 10
151.643
 20
171.14
 10
151.581
 20
171.119
 10
151.517
 20
171.106
 10
151.452
 20
171.102
 10
151.387
 20
171.106
 10
151.323
 20
171.119
 10
151.261
 20
171.14
 10
151.202
 20
171.169
 10
151.148
 20
171.205
 10
151.098
 20
171.248
 10
151.055
 20
171.298
 10
151.019
 20
171.352
 10
150.99
 20
171.411
 10
150.969
 20
171.473
 10
150.956
 20
171.537
 10
150.952
 20
171.602
 10
150.956
 20
171.667
 10
150.969
 20
171.731
 10
150.99
 20
171.793
 10
151.019
 20
171.852
 10
151.055
 20
171.906
 10
151.098
 20
171.956
 10
151.148
 20
171.999
 10
151.202
 20
172.035
 10
151.261
 20
172.064
 10
151.323
 20
172.085
 10
151.387
 20
172.098
 10
151.452
 20
172.102
 10
151.517
 20
172.098
 10
151.581
 20
172.085
 10
151.643
 20
172.064
 10
151.702
 20
172.035
 10
151.756
 20
171.999
 10
151.806
 20
171.956
 10
151.849
 20
171.906
 10
151.885
 20
171.852
 10
151.914
 20
171.793
 10
151.935
 20
171.731
 10
151.948
 20
171.667
 97
0
 75
0
 76
1
 98
0
  0
HATCH
  5
47
330
17
100
AcDbEntity
  8
RASTER
 62
7
100
AcDbHatch
 10
0.0
 20
0.0
 30
0.0
210
0.0
220
0.0
230
1.0
  2
SOLID
 70
1
 71
0
 91
1
 92
3
 72
0
 73
1
 93
48
 10
132.264
 20
166.202
 10
132.26
 20
166.137
 10
132.247
 20
166.073
 10
132.226
 20
166.011
 10
132.197
 20
165.952
 10
132.161
 20
165.898
 10
132.118
 20
165.848
 10
132.068
 20
165.805
 10
132.014
 20
165.769
 10
131.955
 20
165.74
 10
131.893
 20
165.719
 10
131.829
 20
165.706
 10
131.764
 20
165.702
 10
131.699
 20
165.706
 10
131.635
 20
165.719
 10
131.573
 20
165.74
 10
131.514
 20
165.769
 10
131.46
 20
165.805
 10
131.41
 20
165.848
 10
131.367
 20
165.898
 10
131.331
 20
165.952
 10
131.302
 20
166.011
 10
131.281
 20
166.073
 10
131.268
 20
166.137
 10
131.264
 20
166.202
 10
131.268
 20
166.267
 10
131.281
 20
166.331
 10
131.302
 20
166.393
 10
131.331
 20
166.452
 10
131.367
 20
166.506
 10
131.41
 20
166.556
 10
131.46
 20
166.599
 10
131.514
 20
166.635
 10
131.573
 20
166.664
 10
131.635
 20
166.685
 10
131.699
 20
166.698
 10
131.764
 20
166.702
 10
131.829
 20
166.698
 10
131.893
 20
166.685
 10
131.955
 20
166.664
 10
132.014
 20
166.635
 10
132.068
 20
166.599
 10
132.118
 20
166.556
 10
132.161
 20
166.506
 10
132.197
 20
166.452
 10
132.226
 20
166.393
 10
132.247
 20
166.331
 10
132.26
 20
166.267
 97
0
 75
0
 76
1
 98
0
  0
HATCH
  5
48
330
17
100
AcDbEntity
  8
RASTER
 62
7
100
AcDbHatch
 10
0.0
 20
0.0
 30
0.0
210
0.0
220
0.0
230
1.0
  2
SOLID
 70
1
 71
0
 91
1
 92
3
 72
0
 73
1
 93
48
 10
151.952
 20
166.202
 10
151.948
 20
166.137
 10
151.935
 20
166.073
 10
151.914
 20
166.011
 10
151.885
 20
165.952
 10
151.849
 20
165.898
 10
151.806
 20
165.848
 10
151.756
 20
165.805
 10
151.702
 20
165.769
 10
151.643
 20
165.74
 10
151.581
 20
165.719
 10
151.517
 20
165.706
 10
151.452
 20
165.702
 10
151.387
 20
165.706
 10
151.323
 20
165.719
 10
151.261
 20
165.74
 10
151.202
 20
165.769
 10
151.148
 20
165.805
 10
151.098
 20
165.848
 10
151.055
 20
165.898
 10
151.019
 20
165.952
 10
150.99
 20
166.011
 10
150.969
 20
166.073
 10
150.956
 20
166.137
 10
150.952
 20
166.202
 10
150.956
 20
166.267
 10
150.969
 20
166.331
 10
150.99
 20
166.393
 10
151.019
 20
166.452
 10
151.055
 20
166.506
 10
151.098
 20
166.556
 10
151.148
 20
166.599
 10
151.202
 20
166.635
 10
151.261
 20
166.664
 10
151.323
 20
166.685
 10
151.387
 20
166.698
 10
151.452
 20
166.702
 10
151.517
 20
166.698
 10
151.581
 20
166.685
 10
151.643
 20
166.664
 10
151.702
 20
166.635
 10
151.756
 20
166.599
 10
151.806
 20
166.556
 10
151.849
 20
166.506
 10
151.885
 20
166.452
 10
151.914
 20
166.393
 10
151.935
 20
166.331
 10
151.948
 20
166.267
 97
0
 75
0
 76
1
 98
0
  0
LWPOLYLINE
  5
49
330
17
100
AcDbEntity
  8
CUT
100
AcDbPolyline
 90
20
 70
1
 10
168.212
 20
172.392
 10
201.18
 20
172.392
 10
201.18
 20
170.092
 10
204.28
 20
170.092
 10
204.28
 20
167.712
 10
201.18
 20
167.712
 10
201.18
 20
165.412
 10
194.602
 20
165.412
 10
194.602
 20
162.312
 10
187.945
 20
162.312
 10
187.945
 20
165.412
 10
181.447
 20
165.412
 10
181.447
 20
162.312
 10
174.79
 20
162.312
 10
174.79
 20
165.412
 10
168.212
 20
165.412
 10
168.212
 20
167.712
 10
165.112
 20
167.712
 10
165.112
 20
170.092
 10
168.212
 20
170.092
  0
LWPOLYLINE
  5
4A
330
17
100
AcDbEntity
  8
CUT
100
AcDbPolyline
 90
4
 70
1
 10
173.292
 20
169.962
 10
196.1
 20
169.962
 10
196.1
 20
167.842
 10
173.292
 20
167.842
  0
HATCH
  5
4B
330
17
100
AcDbEntity
  8
RASTER
 62
7
100
AcDbHatch
 10
0.0
 20
0.0
 30
0.0
210
0.0
220
0.0
230
1.0
  2
SOLID
 70
1
 71
0
 91
1
 92
3
 72
0
 73
1
 93
4
 10
168.852
 20
171.952
 10
172.652
 20
171.952
 10
172.652
 20
165.852
 10
168.852
 20
165.852
 97
0
 75
0
 76
1
 98
0
  0
HATCH
  5
4C
330
17
100
AcDbEntity
  8
RASTER
 62
7
100
AcDbHatch
 10
0.0
 20
0.0
 30
0.0
210
0.0
220
0.0
230
1.0
  2
SOLID
 70
1
 71
0
 91
1
 92
3
 72
0
 73
1
 93
4
 10
196.74
 20
171.952
 10
200.54
 20
171.952
 10
200.54
 20
165.852
 10
196.74
 20
165.852
 97
0
 75
0
 76
1
 98
0
  0
HATCH
  5
4D
330
17
100
AcDbEntity
  8
RASTER
 62
7
100
AcDbHatch
 10
0.0
 20
0.0
 30
0.0
210
0.0
220
0.0
230
1.0
  2
SOLID
 70
1
 71
0
 91
1
 92
3
 72
0
 73
1
 93
48
 10
175.352
 20
171.602
 10
175.348
 20
171.537
 10
175.335
 20
171.473
 10
175.314
 20
171.411
 10
175.285
 20
171.352
 10
175.249
 20
171.298
 10
175.206
 20
171.248
 10
175.156
 20
171.205
 10
175.102
 20
171.169
 10
175.043
 20
171.14
 10
174.981
 20
171.119
 10
174.917
 20
171.106
 10
174.852
 20
171.102
 10
174.787
 20
171.106
 10
174.723
 20
171.119
 10
174.661
 20
171.14
 10
174.602
 20
171.169
 10
174.548
 20
171.205
 10
174.498
 20
171.248
 10
174.455
 20
171.298
 10
174.419
 20
171.352
 10
174.39
 20
171.411
 10
174.369
 20
171.473
 10
174.356
 20
171.537
 10
174.352
 20
171.602
 10
174.356
 20
171.667
 10
174.369
 20
171.731
 10
174.39
 20
171.793
 10
174.419
 20
171.852
 10
174.455
 20
171.906
 10
174.498
 20
171.956
 10
174.548
 20
171.999
 10
174.602
 20
172.035
 10
174.661
 20
172.064
 10
174.723
 20
172.085
 10
174.787
 20
172.098
 10
174.852
 20
172.102
 10
174.917
 20
172.098
 10
174.981
 20
172.085
 10
175.043
 20
172.064
 10
175.102
 20
172.035
 10
175.156
 20
171.999
 10
175.206
 20
171.956
 10
175.249
 20
171.906
 10
175.285
 20
171.852
 10
175.314
 20
171.793
 10
175.335
 20
171.731
 10
175.348
 20
171.667
 97
0
 75
0
 76
1
 98
0
  0
HATCH
  5
4E
330
17
100
AcDbEntity
  8
RASTER
 62
7
100
AcDbHatch
 10
0.0
 20
0.0
 30
0.0
210
0.0
220
0.0
230
1.0
  2
SOLID
 70
1
 71
0
 91
1
 92
3
 72
0
 73
1
 93
48
 10
195.04
 20
171.602
 10
195.036
 20
171.537
 10
195.023
 20
171.473
 10
195.002
 20
171.411
 10
194.973
 20
171.352
 10
194.937
 20
171.298
 10
194.894
 20
171.248
 10
194.844
 20
171.205
 10
194.79
 20
171.169
 10
194.731
 20
171.14
 10
194.669
 20
171.119
 10
194.605
 20
171.106
 10
194.54
 20
171.102
 10
194.475
 20
171.106
 10
194.411
 20
171.119
 10
194.349
 20
171.14
 10
194.29
 20
171.169
 10
194.236
 20
171.205
 10
194.186
 20
171.248
 10
194.143
 20
171.298
 10
194.107
 20
171.352
 10
194.078
 20
171.411
 10
194.057
 20
171.473
 10
194.044
 20
171.537
 10
194.04
 20
171.602
 10
194.044
 20
171.667
 10
194.057
 20
171.731
 10
194.078
 20
171.793
 10
194.107
 20
171.852
 10
194.143
 20
171.906
 10
194.186
 20
171.956
 10
194.236
 20
171.999
 10
194.29
 20
172.035
 10
194.349
 20
172.064
 10
194.411
 20
172.085
 10
194.475
 20
172.098
 10
194.54
 20
172.102
 10
194.605
 20
172.098
 10
194.669
 20
172.085
 10
194.731
 20
172.064
 10
194.79
 20
172.035
 10
194.844
 20
171.999
 10
194.894
 20
171.956
 10
194.937
 20
171.906
 10
194.973
 20
171.852
 10
195.002
 20
171.793
 10
195.023
 20
171.731
 10
195.036
 20
171.667
 97
0
 75
0
 76
1
 98
0
  0
HATCH
  5
4F
330
17
100
AcDbEntity
  8
RASTER
 62
7
100
AcDbHatch
 10
0.0
 20
0.0
 30
0.0
210
0.0
220
0.0
230
1.0
  2
SOLID
 70
1
 71
0
 91
1
 92
3
 72
0
 73
1
 93
48
 10
175.352
 20
166.202
 10
175.348
 20
166.137
 10
175.335
 20
166.073
 10
175.314
 20
166.011
 10
175.285
 20
165.952
 10
175.249
 20
165.898
 10
175.206
 20
165.848
 10
175.156
 20
165.805
 10
175.102
 20
165.769
 10
175.043
 20
165.74
 10
174.981
 20
165.719
 10
174.917
 20
165.706
 10
174.852
 20
165.702
 10
174.787
 20
165.706
 10
174.723
 20
165.719
 10
174.661
 20
165.74
 10
174.602
 20
165.769
 10
174.548
 20
165.805
 10
174.498
 20
165.848
 10
174.455
 20
165.898
 10
174.419
 20
165.952
 10
174.39
 20
166.011
 10
174.369
 20
166.073
 10
174.356
 20
166.137
 10
174.352
 20
166.202
 10
174.356
 20
166.267
 10
174.369
 20
166.331
 10
174.39
 20
166.393
 10
174.419
 20
166.452
 10
174.455
 20
166.506
 10
174.498
 20
166.556
 10
174.548
 20
166.599
 10
174.602
 20
166.635
 10
174.661
 20
166.664
 10
174.723
 20
166.685
 10
174.787
 20
166.698
 10
174.852
 20
166.702
 10
174.917
 20
166.698
 10
174.981
 20
166.685
 10
175.043
 20
166.664
 10
175.102
 20
166.635
 10
175.156
 20
166.599
 10
175.206
 20
166.556
 10
175.249
 20
166.506
 10
175.285
 20
166.452
 10
175.314
 20
166.393
 10
175.335
 20
166.331
 10
175.348
 20
166.267
 97
0
 75
0
 76
1
 98
0
  0
HATCH
  5
50
330
17
100
AcDbEntity
  8
RASTER
 62
7
100
AcDbHatch
 10
0.0
 20
0.0
 30
0.0
210
0.0
220
0.0
230
1.0
  2
SOLID
 70
1
 71
0
 91
1
 92
3
 72
0
 73
1
 93
48
 10
195.04
 20
166.202
 10
195.036
 20
166.137
 10
195.023
 20
166.073
 10
195.002
 20
166.011
 10
194.973
 20
165.952
 10
194.937
 20
165.898
 10
194.894
 20
165.848
 10
194.844
 20
165.805
 10
194.79
 20
165.769
 10
194.731
 20
165.74
 10
194.669
 20
165.719
 10
194.605
 20
165.706
 10
194.54
 20
165.702
 10
194.475
 20
165.706
 10
194.411
 20
165.719
 10
194.349
 20
165.74
 10
194.29
 20
165.769
 10
194.236
 20
165.805
 10
194.186
 20
165.848
 10
194.143
 20
165.898
 10
194.107
 20
165.952
 10
194.078
 20
166.011
 10
194.057
 20
166.073
 10
194.044
 20
166.137
 10
194.04
 20
166.202
 10
194.044
 20
166.267
 10
194.057
 20
166.331
 10
194.078
 20
166.393
 10
194.107
 20
166.452
 10
194.143
 20
166.506
 10
194.186
 20
166.556
 10
194.236
 20
166.599
 10
194.29
 20
166.635
 10
194.349
 20
166.664
 10
194.411
 20
166.685
 10
194.475
 20
166.698
 10
194.54
 20
166.702
 10
194.605
 20
166.698
 10
194.669
 20
166.685
 10
194.731
 20
166.664
 10
194.79
 20
166.635
 10
194.844
 20
166.599
 10
194.894
 20
166.556
 10
194.937
 20
166.506
 10
194.973
 20
166.452
 10
195.002
 20
166.393
 10
195.023
 20
166.331
 10
195.036
 20
166.267
 97
0
 75
0
 76
1
 98
0
  0
LWPOLYLINE
  5
51
330
17
100
AcDbEntity
  8
CUT
100
AcDbPolyline
 90
60
 70
1
 10
208.2
 20
172.392
 10
211.34
 20
172.392
 10
216.806
 20
172.392
 10
216.806
 20
169.292
 10
222.152
 20
169.292
 10
222.152
 20
172.392
 10
227.657
 20
172.392
 10
227.657
 20
169.292
 10
233.003
 20
169.292
 10
233.003
 20
172.392
 10
238.509
 20
172.392
 10
238.509
 20
169.292
 10
243.855
 20
169.292
 10
243.855
 20
172.392
 10
249.36
 20
172.392
 10
249.36
 20
169.292
 10
254.706
 20
169.292
 10
254.706
 20
172.392
 10
260.172
 20
172.392
 10
263.312
 20
172.392
 10
263.312
 20
169.252
 10
263.312
 20
162.634
 10
260.212
 20
162.634
 10
260.212
 20
156.137
 10
263.312
 20
156.137
 10
263.312
 20
149.479
 10
260.212
 20
149.479
 10
260.212
 20
142.982
 10
263.312
 20
142.982
 10
263.312
 20
136.364
 10
263.312
 20
133.224
 10
260.172
 20
133.224
 10
254.706
 20
133.224
 10
254.706
 20
136.324
 10
249.36
 20
136.324
 10
249.36
 20
133.224
 10
243.855
 20
133.224
 10
243.855
 20
136.324
 10
238.509
 20
136.324
 10
238.509
 20
133.224
 10
233.003
 20
133.224
 10
233.003
 20
136.324
 10
227.657
 20
136.324
 10
227.657
 20
133.224
 10
222.152
 20
133.224
 10
222.152
 20
136.324
 10
216.806
 20
136.324
 10
216.806
 20
133.224
 10
211.34
 20
133.224
 10
208.2
 20
133.224
 10
208.2
 20
136.364
 10
208.2
 20
142.982
 10
211.3
 20
142.982
 10
211.3
 20
149.479
 10
208.2
 20
149.479
 10
208.2
 20
156.137
 10
211.3
 20
156.137
 10
211.3
 20
162.634
 10
208.2
 20
162.634
 10
208.2
 20
169.252
  0
LWPOLYLINE
  5
52
330
17
100
AcDbEntity
  8
CUT
100
AcDbPolyline
 90
32
 70
1
 10
7.1
 20
129.304
 10
55.932
 20
129.304
 10
59.072
 20
129.304
 10
59.072
 20
126.924
 10
55.972
 20
126.924
 10
55.972
 20
124.704
 10
59.072
 20
124.704
 10
59.072
 20
122.324
 10
55.932
 20
122.324
 10
50.546
 20
122.324
 10
50.546
 20
119.224
 10
45.04
 20
119.224
 10
45.04
 20
122.324
 10
39.695
 20
122.324
 10
39.695
 20
119.224
 10
34.189
 20
119.224
 10
34.189
 20
122.324
 10
28.843
 20
122.324
 10
28.843
 20
119.224
 10
23.337
 20
119.224
 10
23.337
 20
122.324
 10
17.992
 20
122.324
 10
17.992
 20
119.224
 10
12.486
 20
119.224
 10
12.486
 20
122.324
 10
7.1
 20
122.324
 10
3.96
 20
122.324
 10
3.96
 20
124.704
 10
7.06
 20
124.704
 10
7.06
 20
126.924
 10
3.96
 20
126.924
 10
3.96
 20
129.304
  0
LWPOLYLINE
  5
53
330
17
100
AcDbEntity
  8
CUT
100
AcDbPolyline
 90
4
 70
1
 10
12.14
 20
126.874
 10
50.892
 20
126.874
 10
50.892
 20
124.754
 10
12.14
 20
124.754
  0
HATCH
  5
54
330
17
100
AcDbEntity
  8
RASTER
 62
7
100
AcDbHatch
 10
0.0
 20
0.0
 30
0.0
210
0.0
220
0.0
230
1.0
  2
SOLID
 70
1
 71
0
 91
1
 92
3
 72
0
 73
1
 93
4
 10
7.7
 20
128.864
 10
11.5
 20
128.864
 10
11.5
 20
122.764
 10
7.7
 20
122.764
 97
0
 75
0
 76
1
 98
0
  0
HATCH
  5
55
330
17
100
AcDbEntity
  8
RASTER
 62
7
100
AcDbHatch
 10
0.0
 20
0.0
 30
0.0
210
0.0
220
0.0
230
1.0
  2
SOLID
 70
1
 71
0
 91
1
 92
3
 72
0
 73
1
 93
4
 10
51.532
 20
128.864
 10
55.332
 20
128.864
 10
55.332
 20
122.764
 10
51.532
 20
122.764
 97
0
 75
0
 76
1
 98
0
  0
HATCH
  5
56
330
17
100
AcDbEntity
  8
RASTER
 62
7
100
AcDbHatch
 10
0.0
 20
0.0
 30
0.0
210
0.0
220
0.0
230
1.0
  2
SOLID
 70
1
 71
0
 91
1
 92
3
 72
0
 73
1
 93
48
 10
14.2
 20
128.514
 10
14.196
 20
128.449
 10
14.183
 20
128.385
 10
14.162
 20
128.323
 10
14.133
 20
128.264
 10
14.097
 20
128.21
 10
14.054
 20
128.16
 10
14.004
 20
128.117
 10
13.95
 20
128.081
 10
13.891
 20
128.052
 10
13.829
 20
128.031
 10
13.765
 20
128.018
 10
13.7
 20
128.014
 10
13.635
 20
128.018
 10
13.571
 20
128.031
 10
13.509
 20
128.052
 10
13.45
 20
128.081
 10
13.396
 20
128.117
 10
13.346
 20
128.16
 10
13.303
 20
128.21
 10
13.267
 20
128.264
 10
13.238
 20
128.323
 10
13.217
 20
128.385
 10
13.204
 20
128.449
 10
13.2
 20
128.514
 10
13.204
 20
128.579
 10
13.217
 20
128.643
 10
13.238
 20
128.705
 10
13.267
 20
128.764
 10
13.303
 20
128.818
 10
13.346
 20
128.868
 10
13.396
 20
128.911
 10
13.45
 20
128.947
 10
13.509
 20
128.976
 10
13.571
 20
128.997
 10
13.635
 20
129.01
 10
13.7
 20
129.014
 10
13.765
 20
129.01
 10
13.829
 20
128.997
 10
13.891
 20
128.976
 10
13.95
 20
128.947
 10
14.004
 20
128.911
 10
14.054
 20
128.868
 10
14.097
 20
128.818
 10
14.133
 20
128.764
 10
14.162
 20
128.705
 10
14.183
 20
128.643
 10
14.196
 20
128.579
 97
0
 75
0
 76
1
 98
0
  0
HATCH
  5
57
330
17
100
AcDbEntity
  8
RASTER
 62
7
100
AcDbHatch
 10
0.0
 20
0.0
 30
0.0
210
0.0
220
0.0
230
1.0
  2
SOLID
 70
1
 71
0
 91
1
 92
3
 72
0
 73
1
 93
48
 10
49.832
 20
128.514
 10
49.828
 20
128.449
 10
49.815
 20
128.385
 10
49.794
 20
128.323
 10
49.765
 20
128.264
 10
49.729
 20
128.21
 10
49.686
 20
128.16
 10
49.636
 20
128.117
 10
49.582
 20
128.081
 10
49.523
 20
128.052
 10
49.461
 20
128.031
 10
49.397
 20
128.018
 10
49.332
 20
128.014
 10
49.267
 20
128.018
 10
49.203
 20
128.031
 10
49.141
 20
128.052
 10
49.082
 20
128.081
 10
49.028
 20
128.117
 10
48.978
 20
128.16
 10
48.935
 20
128.21
 10
48.899
 20
128.264
 10
48.87
 20
128.323
 10
48.849
 20
128.385
 10
48.836
 20
128.449
 10
48.832
 20
128.514
 10
48.836
 20
128.579
 10
48.849
 20
128.643
 10
48.87
 20
128.705
 10
48.899
 20
128.764
 10
48.935
 20
128.818
 10
48.978
 20
128.868
 10
49.028
 20
128.911
 10
49.082
 20
128.947
 10
49.141
 20
128.976
 10
49.203
 20
128.997
 10
49.267
 20
129.01
 10
49.332
 20
129.014
 10
49.397
 20
129.01
 10
49.461
 20
128.997
 10
49.523
 20
128.976
 10
49.582
 20
128.947
 10
49.636
 20
128.911
 10
49.686
 20
128.868
 10
49.729
 20
128.818
 10
49.765
 20
128.764
 10
49.794
 20
128.705
 10
49.815
 20
128.643
 10
49.828
 20
128.579
 97
0
 75
0
 76
1
 98
0
  0
HATCH
  5
58
330
17
100
AcDbEntity
  8
RASTER
 62
7
100
AcDbHatch
 10
0.0
 20
0.0
 30
0.0
210
0.0
220
0.0
230
1.0
  2
SOLID
 70
1
 71
0
 91
1
 92
3
 72
0
 73
1
 93
48
 10
14.2
 20
123.114
 10
14.196
 20
123.049
 10
14.183
 20
122.985
 10
14.162
 20
122.923
 10
14.133
 20
122.864
 10
14.097
 20
122.81
 10
14.054
 20
122.76
 10
14.004
 20
122.717
 10
13.95
 20
122.681
 10
13.891
 20
122.652
 10
13.829
 20
122.631
 10
13.765
 20
122.618
 10
13.7
 20
122.614
 10
13.635
 20
122.618
 10
13.571
 20
122.631
 10
13.509
 20
122.652
 10
13.45
 20
122.681
 10
13.396
 20
122.717
 10
13.346
 20
122.76
 10
13.303
 20
122.81
 10
13.267
 20
122.864
 10
13.238
 20
122.923
 10
13.217
 20
122.985
 10
13.204
 20
123.049
 10
13.2
 20
123.114
 10
13.204
 20
123.179
 10
13.217
 20
123.243
 10
13.238
 20
123.305
 10
13.267
 20
123.364
 10
13.303
 20
123.418
 10
13.346
 20
123.468
 10
13.396
 20
123.511
 10
13.45
 20
123.547
 10
13.509
 20
123.576
 10
13.571
 20
123.597
 10
13.635
 20
123.61
 10
13.7
 20
123.614
 10
13.765
 20
123.61
 10
13.829
 20
123.597
 10
13.891
 20
123.576
 10
13.95
 20
123.547
 10
14.004
 20
123.511
 10
14.054
 20
123.468
 10
14.097
 20
123.418
 10
14.133
 20
123.364
 10
14.162
 20
123.305
 10
14.183
 20
123.243
 10
14.196
 20
123.179
 97
0
 75
0
 76
1
 98
0
  0
HATCH
  5
59
330
17
100
AcDbEntity
  8
RASTER
 62
7
100
AcDbHatch
 10
0.0
 20
0.0
 30
0.0
210
0.0
220
0.0
230
1.0
  2
SOLID
 70
1
 71
0
 91
1
 92
3
 72
0
 73
1
 93
48
 10
49.832
 20
123.114
 10
49.828
 20
123.049
 10
49.815
 20
122.985
 10
49.794
 20
122.923
 10
49.765
 20
122.864
 10
49.729
 20
122.81
 10
49.686
 20
122.76
 10
49.636
 20
122.717
 10
49.582
 20
122.681
 10
49.523
 20
122.652
 10
49.461
 20
122.631
 10
49.397
 20
122.618
 10
49.332
 20
122.614
 10
49.267
 20
122.618
 10
49.203
 20
122.631
 10
49.141
 20
122.652
 10
49.082
 20
122.681
 10
49.028
 20
122.717
 10
48.978
 20
122.76
 10
48.935
 20
122.81
 10
48.899
 20
122.864
 10
48.87
 20
122.923
 10
48.849
 20
122.985
 10
48.836
 20
123.049
 10
48.832
 20
123.114
 10
48.836
 20
123.179
 10
48.849
 20
123.243
 10
48.87
 20
123.305
 10
48.899
 20
123.364
 10
48.935
 20
123.418
 10
48.978
 20
123.468
 10
49.028
 20
123.511
 10
49.082
 20
123.547
 10
49.141
 20
123.576
 10
49.203
 20
123.597
 10
49.267
 20
123.61
 10
49.332
 20
123.614
 10
49.397
 20
123.61
 10
49.461
 20
123.597
 10
49.523
 20
123.576
 10
49.582
 20
123.547
 10
49.636
 20
123.511
 10
49.686
 20
123.468
 10
49.729
 20
123.418
 10
49.765
 20
123.364
 10
49.794
 20
123.305
 10
49.815
 20
123.243
 10
49.828
 20
123.179
 97
0
 75
0
 76
1
 98
0
  0
LWPOLYLINE
  5
5A
330
17
100
AcDbEntity
  8
CUT
100
AcDbPolyline
 90
32
 70
1
 10
66.132
 20
129.304
 10
114.964
 20
129.304
 10
118.104
 20
129.304
 10
118.104
 20
126.924
 10
115.004
 20
126.924
 10
115.004
 20
124.704
 10
118.104
 20
124.704
 10
118.104
 20
122.324
 10
114.964
 20
122.324
 10
109.578
 20
122.324
 10
109.578
 20
119.224
 10
104.072
 20
119.224
 10
104.072
 20
122.324
 10
98.727
 20
122.324
 10
98.727
 20
119.224
 10
93.221
 20
119.224
 10
93.221
 20
122.324
 10
87.875
 20
122.324
 10
87.875
 20
119.224
 10
82.369
 20
119.224
 10
82.369
 20
122.324
 10
77.024
 20
122.324
 10
77.024
 20
119.224
 10
71.518
 20
119.224
 10
71.518
 20
122.324
 10
66.132
 20
122.324
 10
62.992
 20
122.324
 10
62.992
 20
124.704
 10
66.092
 20
124.704
 10
66.092
 20
126.924
 10
62.992
 20
126.924
 10
62.992
 20
129.304
  0
LWPOLYLINE
  5
5B
330
17
100
AcDbEntity
  8
CUT
100
AcDbPolyline
 90
4
 70
1
 10
71.172
 20
126.874
 10
109.924
 20
126.874
 10
109.924
 20
124.754
 10
71.172
 20
124.754
  0
HATCH
  5
5C
330
17
100
AcDbEntity
  8
RASTER
 62
7
100
AcDbHatch
 10
0.0
 20
0.0
 30
0.0
210
0.0
220
0.0
230
1.0
  2
SOLID
 70
1
 71
0
 91
1
 92
3
 72
0
 73
1
 93
4
 10
66.732
 20
128.864
 10
70.532
 20
128.864
 10
70.532
 20
122.764
 10
66.732
 20
122.764
 97
0
 75
0
 76
1
 98
0
  0
HATCH
  5
5D
330
17
100
AcDbEntity
  8
RASTER
 62
7
100
AcDbHatch
 10
0.0
 20
0.0
 30
0.0
210
0.0
220
0.0
230
1.0
  2
SOLID
 70
1
 71
0
 91
1
 92
3
 72
0
 73
1
 93
4
 10
110.564
 20
128.864
 10
114.364
 20
128.864
 10
114.364
 20
122.764
 10
110.564
 20
122.764
 97
0
 75
0
 76
1
 98
0
  0
HATCH
  5
5E
330
17
100
AcDbEntity
  8
RASTER
 62
7
100
AcDbHatch
 10
0.0
 20
0.0
 30
0.0
210
0.0
220
0.0
230
1.0
  2
SOLID
 70
1
 71
0
 91
1
 92
3
 72
0
 73
1
 93
48
 10
73.232
 20
128.514
 10
73.228
 20
128.449
 10
73.215
 20
128.385
 10
73.194
 20
128.323
 10
73.165
 20
128.264
 10
73.129
 20
128.21
 10
73.086
 20
128.16
 10
73.036
 20
128.117
 10
72.982
 20
128.081
 10
72.923
 20
128.052
 10
72.861
 20
128.031
 10
72.797
 20
128.018
 10
72.732
 20
128.014
 10
72.667
 20
128.018
 10
72.603
 20
128.031
 10
72.541
 20
128.052
 10
72.482
 20
128.081
 10
72.428
 20
128.117
 10
72.378
 20
128.16
 10
72.335
 20
128.21
 10
72.299
 20
128.264
 10
72.27
 20
128.323
 10
72.249
 20
128.385
 10
72.236
 20
128.449
 10
72.232
 20
128.514
 10
72.236
 20
128.579
 10
72.249
 20
128.643
 10
72.27
 20
128.705
 10
72.299
 20
128.764
 10
72.335
 20
128.818
 10
72.378
 20
128.868
 10
72.428
 20
128.911
 10
72.482
 20
128.947
 10
72.541
 20
128.976
 10
72.603
 20
128.997
 10
72.667
 20
129.01
 10
72.732
 20
129.014
 10
72.797
 20
129.01
 10
72.861
 20
128.997
 10
72.923
 20
128.976
 10
72.982
 20
128.947
 10
73.036
 20
128.911
 10
73.086
 20
128.868
 10
73.129
 20
128.818
 10
73.165
 20
128.764
 10
73.194
 20
128.705
 10
73.215
 20
128.643
 10
73.228
 20
128.579
 97
0
 75
0
 76
1
 98
0
  0
HATCH
  5
5F
330
17
100
AcDbEntity
  8
RASTER
 62
7
100
AcDbHatch
 10
0.0
 20
0.0
 30
0.0
210
0.0
220
0.0
230
1.0
  2
SOLID
 70
1
 71
0
 91
1
 92
3
 72
0
 73
1
 93
48
 10
108.864
 20
128.514
 10
108.86
 20
128.449
 10
108.847
 20
128.385
 10
108.826
 20
128.323
 10
108.797
 20
128.264
 10
108.761
 20
128.21
 10
108.718
 20
128.16
 10
108.668
 20
128.117
 10
108.614
 20
128.081
 10
108.555
 20
128.052
 10
108.493
 20
128.031
 10
108.429
 20
128.018
 10
108.364
 20
128.014
 10
108.299
 20
128.018
 10
108.235
 20
128.031
 10
108.173
 20
128.052
 10
108.114
 20
128.081
 10
108.06
 20
128.117
 10
108.01
 20
128.16
 10
107.967
 20
128.21
 10
107.931
 20
128.264
 10
107.902
 20
128.323
 10
107.881
 20
128.385
 10
107.868
 20
128.449
 10
107.864
 20
128.514
 10
107.868
 20
128.579
 10
107.881
 20
128.643
 10
107.902
 20
128.705
 10
107.931
 20
128.764
 10
107.967
 20
128.818
 10
108.01
 20
128.868
 10
108.06
 20
128.911
 10
108.114
 20
128.947
 10
108.173
 20
128.976
 10
108.235
 20
128.997
 10
108.299
 20
129.01
 10
108.364
 20
129.014
 10
108.429
 20
129.01
 10
108.493
 20
128.997
 10
108.555
 20
128.976
 10
108.614
 20
128.947
 10
108.668
 20
128.911
 10
108.718
 20
128.868
 10
108.761
 20
128.818
 10
108.797
 20
128.764
 10
108.826
 20
128.705
 10
108.847
 20
128.643
 10
108.86
 20
128.579
 97
0
 75
0
 76
1
 98
0
  0
HATCH
  5
60
330
17
100
AcDbEntity
  8
RASTER
 62
7
100
AcDbHatch
 10
0.0
 20
0.0
 30
0.0
210
0.0
220
0.0
230
1.0
  2
SOLID
 70
1
 71
0
 91
1
 92
3
 72
0
 73
1
 93
48
 10
73.232
 20
123.114
 10
73.228
 20
123.049
 10
73.215
 20
122.985
 10
73.194
 20
122.923
 10
73.165
 20
122.864
 10
73.129
 20
122.81
 10
73.086
 20
122.76
 10
73.036
 20
122.717
 10
72.982
 20
122.681
 10
72.923
 20
122.652
 10
72.861
 20
122.631
 10
72.797
 20
122.618
 10
72.732
 20
122.614
 10
72.667
 20
122.618
 10
72.603
 20
122.631
 10
72.541
 20
122.652
 10
72.482
 20
122.681
 10
72.428
 20
122.717
 10
72.378
 20
122.76
 10
72.335
 20
122.81
 10
72.299
 20
122.864
 10
72.27
 20
122.923
 10
72.249
 20
122.985
 10
72.236
 20
123.049
 10
72.232
 20
123.114
 10
72.236
 20
123.179
 10
72.249
 20
123.243
 10
72.27
 20
123.305
 10
72.299
 20
123.364
 10
72.335
 20
123.418
 10
72.378
 20
123.468
 10
72.428
 20
123.511
 10
72.482
 20
123.547
 10
72.541
 20
123.576
 10
72.603
 20
123.597
 10
72.667
 20
123.61
 10
72.732
 20
123.614
 10
72.797
 20
123.61
 10
72.861
 20
123.597
 10
72.923
 20
123.576
 10
72.982
 20
123.547
 10
73.036
 20
123.511
 10
73.086
 20
123.468
 10
73.129
 20
123.418
 10
73.165
 20
123.364
 10
73.194
 20
123.305
 10
73.215
 20
123.243
 10
73.228
 20
123.179
 97
0
 75
0
 76
1
 98
0
  0
HATCH
  5
61
330
17
100
AcDbEntity
  8
RASTER
 62
7
100
AcDbHatch
 10
0.0
 20
0.0
 30
0.0
210
0.0
220
0.0
230
1.0
  2
SOLID
 70
1
 71
0
 91
1
 92
3
 72
0
 73
1
 93
48
 10
108.864
 20
123.114
 10
108.86
 20
123.049
 10
108.847
 20
122.985
 10
108.826
 20
122.923
 10
108.797
 20
122.864
 10
108.761
 20
122.81
 10
108.718
 20
122.76
 10
108.668
 20
122.717
 10
108.614
 20
122.681
 10
108.555
 20
122.652
 10
108.493
 20
122.631
 10
108.429
 20
122.618
 10
108.364
 20
122.614
 10
108.299
 20
122.618
 10
108.235
 20
122.631
 10
108.173
 20
122.652
 10
108.114
 20
122.681
 10
108.06
 20
122.717
 10
108.01
 20
122.76
 10
107.967
 20
122.81
 10
107.931
 20
122.864
 10
107.902
 20
122.923
 10
107.881
 20
122.985
 10
107.868
 20
123.049
 10
107.864
 20
123.114
 10
107.868
 20
123.179
 10
107.881
 20
123.243
 10
107.902
 20
123.305
 10
107.931
 20
123.364
 10
107.967
 20
123.418
 10
108.01
 20
123.468
 10
108.06
 20
123.511
 10
108.114
 20
123.547
 10
108.173
 20
123.576
 10
108.235
 20
123.597
 10
108.299
 20
123.61
 10
108.364
 20
123.614
 10
108.429
 20
123.61
 10
108.493
 20
123.597
 10
108.555
 20
123.576
 10
108.614
 20
123.547
 10
108.668
 20
123.511
 10
108.718
 20
123.468
 10
108.761
 20
123.418
 10
108.797
 20
123.364
 10
108.826
 20
123.305
 10
108.847
 20
123.243
 10
108.86
 20
123.179
 97
0
 75
0
 76
1
 98
0
  0
LWPOLYLINE
  5
62
330
17
100
AcDbEntity
  8
CUT
100
AcDbPolyline
 90
20
 70
1
 10
125.124
 20
129.304
 10
158.092
 20
129.304
 10
158.092
 20
127.004
 10
161.192
 20
127.004
 10
161.192
 20
124.624
 10
158.092
 20
124.624
 10
158.092
 20
122.324
 10
151.514
 20
122.324
 10
151.514
 20
119.224
 10
144.857
 20
119.224
 10
144.857
 20
122.324
 10
138.359
 20
122.324
 10
138.359
 20
119.224
 10
131.702
 20
119.224
 10
131.702
 20
122.324
 10
125.124
 20
122.324
 10
125.124
 20
124.624
 10
122.024
 20
124.624
 10
122.024
 20
127.004
 10
125.124
 20
127.004
  0
LWPOLYLINE
  5
63
330
17
100
AcDbEntity
  8
CUT
100
AcDbPolyline
 90
4
 70
1
 10
130.204
 20
126.874
 10
153.012
 20
126.874
 10
153.012
 20
124.754
 10
130.204
 20
124.754
  0
HATCH
  5
64
330
17
100
AcDbEntity
  8
RASTER
 62
7
100
AcDbHatch
 10
0.0
 20
0.0
 30
0.0
210
0.0
220
0.0
230
1.0
  2
SOLID
 70
1
 71
0
 91
1
 92
3
 72
0
 73
1
 93
4
 10
125.764
 20
128.864
 10
129.564
 20
128.864
 10
129.564
 20
122.764
 10
125.764
 20
122.764
 97
0
 75
0
 76
1
 98
0
  0
HATCH
  5
65
330
17
100
AcDbEntity
  8
RASTER
 62
7
100
AcDbHatch
 10
0.0
 20
0.0
 30
0.0
210
0.0
220
0.0
230
1.0
  2
SOLID
 70
1
 71
0
 91
1
 92
3
 72
0
 73
1
 93
4
 10
153.652
 20
128.864
 10
157.452
 20
128.864
 10
157.452
 20
122.764
 10
153.652
 20
122.764
 97
0
 75
0
 76
1
 98
0
  0
HATCH
  5
66
330
17
100
AcDbEntity
  8
RASTER
 62
7
100
AcDbHatch
 10
0.0
 20
0.0
 30
0.0
210
0.0
220
0.0
230
1.0
  2
SOLID
 70
1
 71
0
 91
1
 92
3
 72
0
 73
1
 93
48
 10
132.264
 20
128.514
 10
132.26
 20
128.449
 10
132.247
 20
128.385
 10
132.226
 20
128.323
 10
132.197
 20
128.264
 10
132.161
 20
128.21
 10
132.118
 20
128.16
 10
132.068
 20
128.117
 10
132.014
 20
128.081
 10
131.955
 20
128.052
 10
131.893
 20
128.031
 10
131.829
 20
128.018
 10
131.764
 20
128.014
 10
131.699
 20
128.018
 10
131.635
 20
128.031
 10
131.573
 20
128.052
 10
131.514
 20
128.081
 10
131.46
 20
128.117
 10
131.41
 20
128.16
 10
131.367
 20
128.21
 10
131.331
 20
128.264
 10
131.302
 20
128.323
 10
131.281
 20
128.385
 10
131.268
 20
128.449
 10
131.264
 20
128.514
 10
131.268
 20
128.579
 10
131.281
 20
128.643
 10
131.302
 20
128.705
 10
131.331
 20
128.764
 10
131.367
 20
128.818
 10
131.41
 20
128.868
 10
131.46
 20
128.911
 10
131.514
 20
128.947
 10
131.573
 20
128.976
 10
131.635
 20
128.997
 10
131.699
 20
129.01
 10
131.764
 20
129.014
 10
131.829
 20
129.01
 10
131.893
 20
128.997
 10
131.955
 20
128.976
 10
132.014
 20
128.947
 10
132.068
 20
128.911
 10
132.118
 20
128.868
 10
132.161
 20
128.818
 10
132.197
 20
128.764
 10
132.226
 20
128.705
 10
132.247
 20
128.643
 10
132.26
 20
128.579
 97
0
 75
0
 76
1
 98
0
  0
HATCH
  5
67
330
17
100
AcDbEntity
  8
RASTER
 62
7
100
AcDbHatch
 10
0.0
 20
0.0
 30
0.0
210
0.0
220
0.0
230
1.0
  2
SOLID
 70
1
 71
0
 91
1
 92
3
 72
0
 73
1
 93
48
 10
151.952
 20
128.514
 10
151.948
 20
128.449
 10
151.935
 20
128.385
 10
151.914
 20
128.323
 10
151.885
 20
128.264
 10
151.849
 20
128.21
 10
151.806
 20
128.16
 10
151.756
 20
128.117
 10
151.702
 20
128.081
 10
151.643
 20
128.052
 10
151.581
 20
128.031
 10
151.517
 20
128.018
 10
151.452
 20
128.014
 10
151.387
 20
128.018
 10
151.323
 20
128.031
 10
151.261
 20
128.052
 10
151.202
 20
128.081
 10
151.148
 20
128.117
 10
151.098
 20
128.16
 10
151.055
 20
128.21
 10
151.019
 20
128.264
 10
150.99
 20
128.323
 10
150.969
 20
128.385
 10
150.956
 20
128.449
 10
150.952
 20
128.514
 10
150.956
 20
128.579
 10
150.969
 20
128.643
 10
150.99
 20
128.705
 10
151.019
 20
128.764
 10
151.055
 20
128.818
 10
151.098
 20
128.868
 10
151.148
 20
128.911
 10
151.202
 20
128.947
 10
151.261
 20
128.976
 10
151.323
 20
128.997
 10
151.387
 20
129.01
 10
151.452
 20
129.014
 10
151.517
 20
129.01
 10
151.581
 20
128.997
 10
151.643
 20
128.976
 10
151.702
 20
128.947
 10
151.756
 20
128.911
 10
151.806
 20
128.868
 10
151.849
 20
128.818
 10
151.885
 20
128.764
 10
151.914
 20
128.705
 10
151.935
 20
128.643
 10
151.948
 20
128.579
 97
0
 75
0
 76
1
 98
0
  0
HATCH
  5
68
330
17
100
AcDbEntity
  8
RASTER
 62
7
100
AcDbHatch
 10
0.0
 20
0.0
 30
0.0
210
0.0
220
0.0
230
1.0
  2
SOLID
 70
1
 71
0
 91
1
 92
3
 72
0
 73
1
 93
48
 10
132.264
 20
123.114
 10
132.26
 20
123.049
 10
132.247
 20
122.985
 10
132.226
 20
122.923
 10
132.197
 20
122.864
 10
132.161
 20
122.81
 10
132.118
 20
122.76
 10
132.068
 20
122.717
 10
132.014
 20
122.681
 10
131.955
 20
122.652
 10
131.893
 20
122.631
 10
131.829
 20
122.618
 10
131.764
 20
122.614
 10
131.699
 20
122.618
 10
131.635
 20
122.631
 10
131.573
 20
122.652
 10
131.514
 20
122.681
 10
131.46
 20
122.717
 10
131.41
 20
122.76
 10
131.367
 20
122.81
 10
131.331
 20
122.864
 10
131.302
 20
122.923
 10
131.281
 20
122.985
 10
131.268
 20
123.049
 10
131.264
 20
123.114
 10
131.268
 20
123.179
 10
131.281
 20
123.243
 10
131.302
 20
123.305
 10
131.331
 20
123.364
 10
131.367
 20
123.418
 10
131.41
 20
123.468
 10
131.46
 20
123.511
 10
131.514
 20
123.547
 10
131.573
 20
123.576
 10
131.635
 20
123.597
 10
131.699
 20
123.61
 10
131.764
 20
123.614
 10
131.829
 20
123.61
 10
131.893
 20
123.597
 10
131.955
 20
123.576
 10
132.014
 20
123.547
 10
132.068
 20
123.511
 10
132.118
 20
123.468
 10
132.161
 20
123.418
 10
132.197
 20
123.364
 10
132.226
 20
123.305
 10
132.247
 20
123.243
 10
132.26
 20
123.179
 97
0
 75
0
 76
1
 98
0
  0
HATCH
  5
69
330
17
100
AcDbEntity
  8
RASTER
 62
7
100
AcDbHatch
 10
0.0
 20
0.0
 30
0.0
210
0.0
220
0.0
230
1.0
  2
SOLID
 70
1
 71
0
 91
1
 92
3
 72
0
 73
1
 93
48
 10
151.952
 20
123.114
 10
151.948
 20
123.049
 10
151.935
 20
122.985
 10
151.914
 20
122.923
 10
151.885
 20
122.864
 10
151.849
 20
122.81
 10
151.806
 20
122.76
 10
151.756
 20
122.717
 10
151.702
 20
122.681
 10
151.643
 20
122.652
 10
151.581
 20
122.631
 10
151.517
 20
122.618
 10
151.452
 20
122.614
 10
151.387
 20
122.618
 10
151.323
 20
122.631
 10
151.261
 20
122.652
 10
151.202
 20
122.681
 10
151.148
 20
122.717
 10
151.098
 20
122.76
 10
151.055
 20
122.81
 10
151.019
 20
122.864
 10
150.99
 20
122.923
 10
150.969
 20
122.985
 10
150.956
 20
123.049
 10
150.952
 20
123.114
 10
150.956
 20
123.179
 10
150.969
 20
123.243
 10
150.99
 20
123.305
 10
151.019
 20
123.364
 10
151.055
 20
123.418
 10
151.098
 20
123.468
 10
151.148
 20
123.511
 10
151.202
 20
123.547
 10
151.261
 20
123.576
 10
151.323
 20
123.597
 10
151.387
 20
123.61
 10
151.452
 20
123.614
 10
151.517
 20
123.61
 10
151.581
 20
123.597
 10
151.643
 20
123.576
 10
151.702
 20
123.547
 10
151.756
 20
123.511
 10
151.806
 20
123.468
 10
151.849
 20
123.418
 10
151.885
 20
123.364
 10
151.914
 20
123.305
 10
151.935
 20
123.243
 10
151.948
 20
123.179
 97
0
 75
0
 76
1
 98
0
  0
LWPOLYLINE
  5
6A
330
17
100
AcDbEntity
  8
CUT
100
AcDbPolyline
 90
20
 70
1
 10
168.212
 20
129.304
 10
201.18
 20
129.304
 10
201.18
 20
127.004
 10
204.28
 20
127.004
 10
204.28
 20
124.624
 10
201.18
 20
124.624
 10
201.18
 20
122.324
 10
194.602
 20
122.324
 10
194.602
 20
119.224
 10
187.945
 20
119.224
 10
187.945
 20
122.324
 10
181.447
 20
122.324
 10
181.447
 20
119.224
 10
174.79
 20
119.224
 10
174.79
 20
122.324
 10
168.212
 20
122.324
 10
168.212
 20
124.624
 10
165.112
 20
124.624
 10
165.112
 20
127.004
 10
168.212
 20
127.004
  0
LWPOLYLINE
  5
6B
330
17
100
AcDbEntity
  8
CUT
100
AcDbPolyline
 90
4
 70
1
 10
173.292
 20
126.874
 10
196.1
 20
126.874
 10
196.1
 20
124.754
 10
173.292
 20
124.754
  0
HATCH
  5
6C
330
17
100
AcDbEntity
  8
RASTER
 62
7
100
AcDbHatch
 10
0.0
 20
0.0
 30
0.0
210
0.0
220
0.0
230
1.0
  2
SOLID
 70
1
 71
0
 91
1
 92
3
 72
0
 73
1
 93
4
 10
168.852
 20
128.864
 10
172.652
 20
128.864
 10
172.652
 20
122.764
 10
168.852
 20
122.764
 97
0
 75
0
 76
1
 98
0
  0
HATCH
  5
6D
330
17
100
AcDbEntity
  8
RASTER
 62
7
100
AcDbHatch
 10
0.0
 20
0.0
 30
0.0
210
0.0
220
0.0
230
1.0
  2
SOLID
 70
1
 71
0
 91
1
 92
3
 72
0
 73
1
 93
4
 10
196.74
 20
128.864
 10
200.54
 20
128.864
 10
200.54
 20
122.764
 10
196.74
 20
122.764
 97
0
 75
0
 76
1
 98
0
  0
HATCH
  5
6E
330
17
100
AcDbEntity
  8
RASTER
 62
7
100
AcDbHatch
 10
0.0
 20
0.0
 30
0.0
210
0.0
220
0.0
230
1.0
  2
SOLID
 70
1
 71
0
 91
1
 92
3
 72
0
 73
1
 93
48
 10
175.352
 20
128.514
 10
175.348
 20
128.449
 10
175.335
 20
128.385
 10
175.314
 20
128.323
 10
175.285
 20
128.264
 10
175.249
 20
128.21
 10
175.206
 20
128.16
 10
175.156
 20
128.117
 10
175.102
 20
128.081
 10
175.043
 20
128.052
 10
174.981
 20
128.031
 10
174.917
 20
128.018
 10
174.852
 20
128.014
 10
174.787
 20
128.018
 10
174.723
 20
128.031
 10
174.661
 20
128.052
 10
174.602
 20
128.081
 10
174.548
 20
128.117
 10
174.498
 20
128.16
 10
174.455
 20
128.21
 10
174.419
 20
128.264
 10
174.39
 20
128.323
 10
174.369
 20
128.385
 10
174.356
 20
128.449
 10
174.352
 20
128.514
 10
174.356
 20
128.579
 10
174.369
 20
128.643
 10
174.39
 20
128.705
 10
174.419
 20
128.764
 10
174.455
 20
128.818
 10
174.498
 20
128.868
 10
174.548
 20
128.911
 10
174.602
 20
128.947
 10
174.661
 20
128.976
 10
174.723
 20
128.997
 10
174.787
 20
129.01
 10
174.852
 20
129.014
 10
174.917
 20
129.01
 10
174.981
 20
128.997
 10
175.043
 20
128.976
 10
175.102
 20
128.947
 10
175.156
 20
128.911
 10
175.206
 20
128.868
 10
175.249
 20
128.818
 10
175.285
 20
128.764
 10
175.314
 20
128.705
 10
175.335
 20
128.643
 10
175.348
 20
128.579
 97
0
 75
0
 76
1
 98
0
  0
HATCH
  5
6F
330
17
100
AcDbEntity
  8
RASTER
 62
7
100
AcDbHatch
 10
0.0
 20
0.0
 30
0.0
210
0.0
220
0.0
230
1.0
  2
SOLID
 70
1
 71
0
 91
1
 92
3
 72
0
 73
1
 93
48
 10
195.04
 20
128.514
 10
195.036
 20
128.449
 10
195.023
 20
128.385
 10
195.002
 20
128.323
 10
194.973
 20
128.264
 10
194.937
 20
128.21
 10
194.894
 20
128.16
 10
194.844
 20
128.117
 10
194.79
 20
128.081
 10
194.731
 20
128.052
 10
194.669
 20
128.031
 10
194.605
 20
128.018
 10
194.54
 20
128.014
 10
194.475
 20
128.018
 10
194.411
 20
128.031
 10
194.349
 20
128.052
 10
194.29
 20
128.081
 10
194.236
 20
128.117
 10
194.186
 20
128.16
 10
194.143
 20
128.21
 10
194.107
 20
128.264
 10
194.078
 20
128.323
 10
194.057
 20
128.385
 10
194.044
 20
128.449
 10
194.04
 20
128.514
 10
194.044
 20
128.579
 10
194.057
 20
128.643
 10
194.078
 20
128.705
 10
194.107
 20
128.764
 10
194.143
 20
128.818
 10
194.186
 20
128.868
 10
194.236
 20
128.911
 10
194.29
 20
128.947
 10
194.349
 20
128.976
 10
194.411
 20
128.997
 10
194.475
 20
129.01
 10
194.54
 20
129.014
 10
194.605
 20
129.01
 10
194.669
 20
128.997
 10
194.731
 20
128.976
 10
194.79
 20
128.947
 10
194.844
 20
128.911
 10
194.894
 20
128.868
 10
194.937
 20
128.818
 10
194.973
 20
128.764
 10
195.002
 20
128.705
 10
195.023
 20
128.643
 10
195.036
 20
128.579
 97
0
 75
0
 76
1
 98
0
  0
HATCH
  5
70
330
17
100
AcDbEntity
  8
RASTER
 62
7
100
AcDbHatch
 10
0.0
 20
0.0
 30
0.0
210
0.0
220
0.0
230
1.0
  2
SOLID
 70
1
 71
0
 91
1
 92
3
 72
0
 73
1
 93
48
 10
175.352
 20
123.114
 10
175.348
 20
123.049
 10
175.335
 20
122.985
 10
175.314
 20
122.923
 10
175.285
 20
122.864
 10
175.249
 20
122.81
 10
175.206
 20
122.76
 10
175.156
 20
122.717
 10
175.102
 20
122.681
 10
175.043
 20
122.652
 10
174.981
 20
122.631
 10
174.917
 20
122.618
 10
174.852
 20
122.614
 10
174.787
 20
122.618
 10
174.723
 20
122.631
 10
174.661
 20
122.652
 10
174.602
 20
122.681
 10
174.548
 20
122.717
 10
174.498
 20
122.76
 10
174.455
 20
122.81
 10
174.419
 20
122.864
 10
174.39
 20
122.923
 10
174.369
 20
122.985
 10
174.356
 20
123.049
 10
174.352
 20
123.114
 10
174.356
 20
123.179
 10
174.369
 20
123.243
 10
174.39
 20
123.305
 10
174.419
 20
123.364
 10
174.455
 20
123.418
 10
174.498
 20
123.468
 10
174.548
 20
123.511
 10
174.602
 20
123.547
 10
174.661
 20
123.576
 10
174.723
 20
123.597
 10
174.787
 20
123.61
 10
174.852
 20
123.614
 10
174.917
 20
123.61
 10
174.981
 20
123.597
 10
175.043
 20
123.576
 10
175.102
 20
123.547
 10
175.156
 20
123.511
 10
175.206
 20
123.468
 10
175.249
 20
123.418
 10
175.285
 20
123.364
 10
175.314
 20
123.305
 10
175.335
 20
123.243
 10
175.348
 20
123.179
 97
0
 75
0
 76
1
 98
0
  0
HATCH
  5
71
330
17
100
AcDbEntity
  8
RASTER
 62
7
100
AcDbHatch
 10
0.0
 20
0.0
 30
0.0
210
0.0
220
0.0
230
1.0
  2
SOLID
 70
1
 71
0
 91
1
 92
3
 72
0
 73
1
 93
48
 10
195.04
 20
123.114
 10
195.036
 20
123.049
 10
195.023
 20
122.985
 10
195.002
 20
122.923
 10
194.973
 20
122.864
 10
194.937
 20
122.81
 10
194.894
 20
122.76
 10
194.844
 20
122.717
 10
194.79
 20
122.681
 10
194.731
 20
122.652
 10
194.669
 20
122.631
 10
194.605
 20
122.618
 10
194.54
 20
122.614
 10
194.475
 20
122.618
 10
194.411
 20
122.631
 10
194.349
 20
122.652
 10
194.29
 20
122.681
 10
194.236
 20
122.717
 10
194.186
 20
122.76
 10
194.143
 20
122.81
 10
194.107
 20
122.864
 10
194.078
 20
122.923
 10
194.057
 20
122.985
 10
194.044
 20
123.049
 10
194.04
 20
123.114
 10
194.044
 20
123.179
 10
194.057
 20
123.243
 10
194.078
 20
123.305
 10
194.107
 20
123.364
 10
194.143
 20
123.418
 10
194.186
 20
123.468
 10
194.236
 20
123.511
 10
194.29
 20
123.547
 10
194.349
 20
123.576
 10
194.411
 20
123.597
 10
194.475
 20
123.61
 10
194.54
 20
123.614
 10
194.605
 20
123.61
 10
194.669
 20
123.597
 10
194.731
 20
123.576
 10
194.79
 20
123.547
 10
194.844
 20
123.511
 10
194.894
 20
123.468
 10
194.937
 20
123.418
 10
194.973
 20
123.364
 10
195.002
 20
123.305
 10
195.023
 20
123.243
 10
195.036
 20
123.179
 97
0
 75
0
 76
1
 98
0
  0
LWPOLYLINE
  5
72
330
17
100
AcDbEntity
  8
CUT
100
AcDbPolyline
 90
60
 70
1
 10
208.2
 20
129.304
 10
211.34
 20
129.304
 10
216.806
 20
129.304
 10
216.806
 20
126.204
 10
222.152
 20
126.204
 10
222.152
 20
129.304
 10
227.657
 20
129.304
 10
227.657
 20
126.204
 10
233.003
 20
126.204
 10
233.003
 20
129.304
 10
238.509
 20
129.304
 10
238.509
 20
126.204
 10
243.855
 20
126.204
 10
243.855
 20
129.304
 10
249.36
 20
129.304
 10
249.36
 20
126.204
 10
254.706
 20
126.204
 10
254.706
 20
129.304
 10
260.172
 20
129.304
 10
263.312
 20
129.304
 10
263.312
 20
126.164
 10
263.312
 20
119.546
 10
260.212
 20
119.546
 10
260.212
 20
113.049
 10
263.312
 20
113.049
 10
263.312
 20
106.391
 10
260.212
 20
106.391
 10
260.212
 20
99.894
 10
263.312
 20
99.894
 10
263.312
 20
93.276
 10
263.312
 20
90.136
 10
260.172
 20
90.136
 10
254.706
 20
90.136
 10
254.706
 20
93.236
 10
249.36
 20
93.236
 10
249.36
 20
90.136
 10
243.855
 20
90.136
 10
243.855
 20
93.236
 10
238.509
 20
93.236
 10
238.509
 20
90.136
 10
233.003
 20
90.136
 10
233.003
 20
93.236
 10
227.657
 20
93.236
 10
227.657
 20
90.136
 10
222.152
 20
90.136
 10
222.152
 20
93.236
 10
216.806
 20
93.236
 10
216.806
 20
90.136
 10
211.34
 20
90.136
 10
208.2
 20
90.136
 10
208.2
 20
93.276
 10
208.2
 20
99.894
 10
211.3
 20
99.894
 10
211.3
 20
106.391
 10
208.2
 20
106.391
 10
208.2
 20
113.049
 10
211.3
 20
113.049
 10
211.3
 20
119.546
 10
208.2
 20
119.546
 10
208.2
 20
126.164
  0
LWPOLYLINE
  5
73
330
17
100
AcDbEntity
  8
CUT
100
AcDbPolyline
 90
32
 70
1
 10
7.1
 20
86.216
 10
55.932
 20
86.216
 10
59.072
 20
86.216
 10
59.072
 20
83.836
 10
55.972
 20
83.836
 10
55.972
 20
81.616
 10
59.072
 20
81.616
 10
59.072
 20
79.236
 10
55.932
 20
79.236
 10
50.546
 20
79.236
 10
50.546
 20
76.136
 10
45.04
 20
76.136
 10
45.04
 20
79.236
 10
39.695
 20
79.236
 10
39.695
 20
76.136
 10
34.189
 20
76.136
 10
34.189
 20
79.236
 10
28.843
 20
79.236
 10
28.843
 20
76.136
 10
23.337
 20
76.136
 10
23.337
 20
79.236
 10
17.992
 20
79.236
 10
17.992
 20
76.136
 10
12.486
 20
76.136
 10
12.486
 20
79.236
 10
7.1
 20
79.236
 10
3.96
 20
79.236
 10
3.96
 20
81.616
 10
7.06
 20
81.616
 10
7.06
 20
83.836
 10
3.96
 20
83.836
 10
3.96
 20
86.216
  0
LWPOLYLINE
  5
74
330
17
100
AcDbEntity
  8
CUT
100
AcDbPolyline
 90
4
 70
1
 10
12.14
 20
83.786
 10
50.892
 20
83.786
 10
50.892
 20
81.666
 10
12.14
 20
81.666
  0
HATCH
  5
75
330
17
100
AcDbEntity
  8
RASTER
 62
7
100
AcDbHatch
 10
0.0
 20
0.0
 30
0.0
210
0.0
220
0.0
230
1.0
  2
SOLID
 70
1
 71
0
 91
1
 92
3
 72
0
 73
1
 93
4
 10
7.7
 20
85.776
 10
11.5
 20
85.776
 10
11.5
 20
79.676
 10
7.7
 20
79.676
 97
0
 75
0
 76
1
 98
0
  0
HATCH
  5
76
330
17
100
AcDbEntity
  8
RASTER
 62
7
100
AcDbHatch
 10
0.0
 20
0.0
 30
0.0
210
0.0
220
0.0
230
1.0
  2
SOLID
 70
1
 71
0
 91
1
 92
3
 72
0
 73
1
 93
4
 10
51.532
 20
85.776
 10
55.332
 20
85.776
 10
55.332
 20
79.676
 10
51.532
 20
79.676
 97
0
 75
0
 76
1
 98
0
  0
HATCH
  5
77
330
17
100
AcDbEntity
  8
RASTER
 62
7
100
AcDbHatch
 10
0.0
 20
0.0
 30
0.0
210
0.0
220
0.0
230
1.0
  2
SOLID
 70
1
 71
0
 91
1
 92
3
 72
0
 73
1
 93
48
 10
14.2
 20
85.426
 10
14.196
 20
85.361
 10
14.183
 20
85.297
 10
14.162
 20
85.235
 10
14.133
 20
85.176
 10
14.097
 20
85.122
 10
14.054
 20
85.072
 10
14.004
 20
85.029
 10
13.95
 20
84.993
 10
13.891
 20
84.964
 10
13.829
 20
84.943
 10
13.765
 20
84.93
 10
13.7
 20
84.926
 10
13.635
 20
84.93
 10
13.571
 20
84.943
 10
13.509
 20
84.964
 10
13.45
 20
84.993
 10
13.396
 20
85.029
 10
13.346
 20
85.072
 10
13.303
 20
85.122
 10
13.267
 20
85.176
 10
13.238
 20
85.235
 10
13.217
 20
85.297
 10
13.204
 20
85.361
 10
13.2
 20
85.426
 10
13.204
 20
85.491
 10
13.217
 20
85.555
 10
13.238
 20
85.617
 10
13.267
 20
85.676
 10
13.303
 20
85.73
 10
13.346
 20
85.78
 10
13.396
 20
85.823
 10
13.45
 20
85.859
 10
13.509
 20
85.888
 10
13.571
 20
85.909
 10
13.635
 20
85.922
 10
13.7
 20
85.926
 10
13.765
 20
85.922
 10
13.829
 20
85.909
 10
13.891
 20
85.888
 10
13.95
 20
85.859
 10
14.004
 20
85.823
 10
14.054
 20
85.78
 10
14.097
 20
85.73
 10
14.133
 20
85.676
 10
14.162
 20
85.617
 10
14.183
 20
85.555
 10
14.196
 20
85.491
 97
0
 75
0
 76
1
 98
0
  0
HATCH
  5
78
330
17
100
AcDbEntity
  8
RASTER
 62
7
100
AcDbHatch
 10
0.0
 20
0.0
 30
0.0
210
0.0
220
0.0
230
1.0
  2
SOLID
 70
1
 71
0
 91
1
 92
3
 72
0
 73
1
 93
48
 10
49.832
 20
85.426
 10
49.828
 20
85.361
 10
49.815
 20
85.297
 10
49.794
 20
85.235
 10
49.765
 20
85.176
 10
49.729
 20
85.122
 10
49.686
 20
85.072
 10
49.636
 20
85.029
 10
49.582
 20
84.993
 10
49.523
 20
84.964
 10
49.461
 20
84.943
 10
49.397
 20
84.93
 10
49.332
 20
84.926
 10
49.267
 20
84.93
 10
49.203
 20
84.943
 10
49.141
 20
84.964
 10
49.082
 20
84.993
 10
49.028
 20
85.029
 10
48.978
 20
85.072
 10
48.935
 20
85.122
 10
48.899
 20
85.176
 10
48.87
 20
85.235
 10
48.849
 20
85.297
 10
48.836
 20
85.361
 10
48.832
 20
85.426
 10
48.836
 20
85.491
 10
48.849
 20
85.555
 10
48.87
 20
85.617
 10
48.899
 20
85.676
 10
48.935
 20
85.73
 10
48.978
 20
85.78
 10
49.028
 20
85.823
 10
49.082
 20
85.859
 10
49.141
 20
85.888
 10
49.203
 20
85.909
 10
49.267
 20
85.922
 10
49.332
 20
85.926
 10
49.397
 20
85.922
 10
49.461
 20
85.909
 10
49.523
 20
85.888
 10
49.582
 20
85.859
 10
49.636
 20
85.823
 10
49.686
 20
85.78
 10
49.729
 20
85.73
 10
49.765
 20
85.676
 10
49.794
 20
85.617
 10
49.815
 20
85.555
 10
49.828
 20
85.491
 97
0
 75
0
 76
1
 98
0
  0
HATCH
  5
79
330
17
100
AcDbEntity
  8
RASTER
 62
7
100
AcDbHatch
 10
0.0
 20
0.0
 30
0.0
210
0.0
220
0.0
230
1.0
  2
SOLID
 70
1
 71
0
 91
1
 92
3
 72
0
 73
1
 93
48
 10
14.2
 20
80.026
 10
14.196
 20
79.961
 10
14.183
 20
79.897
 10
14.162
 20
79.835
 10
14.133
 20
79.776
 10
14.097
 20
79.722
 10
14.054
 20
79.672
 10
14.004
 20
79.629
 10
13.95
 20
79.593
 10
13.891
 20
79.564
 10
13.829
 20
79.543
 10
13.765
 20
79.53
 10
13.7
 20
79.526
 10
13.635
 20
79.53
 10
13.571
 20
79.543
 10
13.509
 20
79.564
 10
13.45
 20
79.593
 10
13.396
 20
79.629
 10
13.346
 20
79.672
 10
13.303
 20
79.722
 10
13.267
 20
79.776
 10
13.238
 20
79.835
 10
13.217
 20
79.897
 10
13.204
 20
79.961
 10
13.2
 20
80.026
 10
13.204
 20
80.091
 10
13.217
 20
80.155
 10
13.238
 20
80.217
 10
13.267
 20
80.276
 10
13.303
 20
80.33
 10
13.346
 20
80.38
 10
13.396
 20
80.423
 10
13.45
 20
80.459
 10
13.509
 20
80.488
 10
13.571
 20
80.509
 10
13.635
 20
80.522
 10
13.7
 20
80.526
 10
13.765
 20
80.522
 10
13.829
 20
80.509
 10
13.891
 20
80.488
 10
13.95
 20
80.459
 10
14.004
 20
80.423
 10
14.054
 20
80.38
 10
14.097
 20
80.33
 10
14.133
 20
80.276
 10
14.162
 20
80.217
 10
14.183
 20
80.155
 10
14.196
 20
80.091
 97
0
 75
0
 76
1
 98
0
  0
HATCH
  5
7A
330
17
100
AcDbEntity
  8
RASTER
 62
7
100
AcDbHatch
 10
0.0
 20
0.0
 30
0.0
210
0.0
220
0.0
230
1.0
  2
SOLID
 70
1
 71
0
 91
1
 92
3
 72
0
 73
1
 93
48
 10
49.832
 20
80.026
 10
49.828
 20
79.961
 10
49.815
 20
79.897
 10
49.794
 20
79.835
 10
49.765
 20
79.776
 10
49.729
 20
79.722
 10
49.686
 20
79.672
 10
49.636
 20
79.629
 10
49.582
 20
79.593
 10
49.523
 20
79.564
 10
49.461
 20
79.543
 10
49.397
 20
79.53
 10
49.332
 20
79.526
 10
49.267
 20
79.53
 10
49.203
 20
79.543
 10
49.141
 20
79.564
 10
49.082
 20
79.593
 10
49.028
 20
79.629
 10
48.978
 20
79.672
 10
48.935
 20
79.722
 10
48.899
 20
79.776
 10
48.87
 20
79.835
 10
48.849
 20
79.897
 10
48.836
 20
79.961
 10
48.832
 20
80.026
 10
48.836
 20
80.091
 10
48.849
 20
80.155
 10
48.87
 20
80.217
 10
48.899
 20
80.276
 10
48.935
 20
80.33
 10
48.978
 20
80.38
 10
49.028
 20
80.423
 10
49.082
 20
80.459
 10
49.141
 20
80.488
 10
49.203
 20
80.509
 10
49.267
 20
80.522
 10
49.332
 20
80.526
 10
49.397
 20
80.522
 10
49.461
 20
80.509
 10
49.523
 20
80.488
 10
49.582
 20
80.459
 10
49.636
 20
80.423
 10
49.686
 20
80.38
 10
49.729
 20
80.33
 10
49.765
 20
80.276
 10
49.794
 20
80.217
 10
49.815
 20
80.155
 10
49.828
 20
80.091
 97
0
 75
0
 76
1
 98
0
  0
LWPOLYLINE
  5
7B
330
17
100
AcDbEntity
  8
CUT
100
AcDbPolyline
 90
32
 70
1
 10
66.132
 20
86.216
 10
114.964
 20
86.216
 10
118.104
 20
86.216
 10
118.104
 20
83.836
 10
115.004
 20
83.836
 10
115.004
 20
81.616
 10
118.104
 20
81.616
 10
118.104
 20
79.236
 10
114.964
 20
79.236
 10
109.578
 20
79.236
 10
109.578
 20
76.136
 10
104.072
 20
76.136
 10
104.072
 20
79.236
 10
98.727
 20
79.236
 10
98.727
 20
76.136
 10
93.221
 20
76.136
 10
93.221
 20
79.236
 10
87.875
 20
79.236
 10
87.875
 20
76.136
 10
82.369
 20
76.136
 10
82.369
 20
79.236
 10
77.024
 20
79.236
 10
77.024
 20
76.136
 10
71.518
 20
76.136
 10
71.518
 20
79.236
 10
66.132
 20
79.236
 10
62.992
 20
79.236
 10
62.992
 20
81.616
 10
66.092
 20
81.616
 10
66.092
 20
83.836
 10
62.992
 20
83.836
 10
62.992
 20
86.216
  0
LWPOLYLINE
  5
7C
330
17
100
AcDbEntity
  8
CUT
100
AcDbPolyline
 90
4
 70
1
 10
71.172
 20
83.786
 10
109.924
 20
83.786
 10
109.924
 20
81.666
 10
71.172
 20
81.666
  0
HATCH
  5
7D
330
17
100
AcDbEntity
  8
RASTER
 62
7
100
AcDbHatch
 10
0.0
 20
0.0
 30
0.0
210
0.0
220
0.0
230
1.0
  2
SOLID
 70
1
 71
0
 91
1
 92
3
 72
0
 73
1
 93
4
 10
66.732
 20
85.776
 10
70.532
 20
85.776
 10
70.532
 20
79.676
 10
66.732
 20
79.676
 97
0
 75
0
 76
1
 98
0
  0
HATCH
  5
7E
330
17
100
AcDbEntity
  8
RASTER
 62
7
100
AcDbHatch
 10
0.0
 20
0.0
 30
0.0
210
0.0
220
0.0
230
1.0
  2
SOLID
 70
1
 71
0
 91
1
 92
3
 72
0
 73
1
 93
4
 10
110.564
 20
85.776
 10
114.364
 20
85.776
 10
114.364
 20
79.676
 10
110.564
 20
79.676
 97
0
 75
0
 76
1
 98
0
  0
HATCH
  5
7F
330
17
100
AcDbEntity
  8
RASTER
 62
7
100
AcDbHatch
 10
0.0
 20
0.0
 30
0.0
210
0.0
220
0.0
230
1.0
  2
SOLID
 70
1
 71
0
 91
1
 92
3
 72
0
 73
1
 93
48
 10
73.232
 20
85.426
 10
73.228
 20
85.361
 10
73.215
 20
85.297
 10
73.194
 20
85.235
 10
73.165
 20
85.176
 10
73.129
 20
85.122
 10
73.086
 20
85.072
 10
73.036
 20
85.029
 10
72.982
 20
84.993
 10
72.923
 20
84.964
 10
72.861
 20
84.943
 10
72.797
 20
84.93
 10
72.732
 20
84.926
 10
72.667
 20
84.93
 10
72.603
 20
84.943
 10
72.541
 20
84.964
 10
72.482
 20
84.993
 10
72.428
 20
85.029
 10
72.378
 20
85.072
 10
72.335
 20
85.122
 10
72.299
 20
85.176
 10
72.27
 20
85.235
 10
72.249
 20
85.297
 10
72.236
 20
85.361
 10
72.232
 20
85.426
 10
72.236
 20
85.491
 10
72.249
 20
85.555
 10
72.27
 20
85.617
 10
72.299
 20
85.676
 10
72.335
 20
85.73
 10
72.378
 20
85.78
 10
72.428
 20
85.823
 10
72.482
 20
85.859
 10
72.541
 20
85.888
 10
72.603
 20
85.909
 10
72.667
 20
85.922
 10
72.732
 20
85.926
 10
72.797
 20
85.922
 10
72.861
 20
85.909
 10
72.923
 20
85.888
 10
72.982
 20
85.859
 10
73.036
 20
85.823
 10
73.086
 20
85.78
 10
73.129
 20
85.73
 10
73.165
 20
85.676
 10
73.194
 20
85.617
 10
73.215
 20
85.555
 10
73.228
 20
85.491
 97
0
 75
0
 76
1
 98
0
  0
HATCH
  5
80
330
17
100
AcDbEntity
  8
RASTER
 62
7
100
AcDbHatch
 10
0.0
 20
0.0
 30
0.0
210
0.0
220
0.0
230
1.0
  2
SOLID
 70
1
 71
0
 91
1
 92
3
 72
0
 73
1
 93
48
 10
108.864
 20
85.426
 10
108.86
 20
85.361
 10
108.847
 20
85.297
 10
108.826
 20
85.235
 10
108.797
 20
85.176
 10
108.761
 20
85.122
 10
108.718
 20
85.072
 10
108.668
 20
85.029
 10
108.614
 20
84.993
 10
108.555
 20
84.964
 10
108.493
 20
84.943
 10
108.429
 20
84.93
 10
108.364
 20
84.926
 10
108.299
 20
84.93
 10
108.235
 20
84.943
 10
108.173
 20
84.964
 10
108.114
 20
84.993
 10
108.06
 20
85.029
 10
108.01
 20
85.072
 10
107.967
 20
85.122
 10
107.931
 20
85.176
 10
107.902
 20
85.235
 10
107.881
 20
85.297
 10
107.868
 20
85.361
 10
107.864
 20
85.426
 10
107.868
 20
85.491
 10
107.881
 20
85.555
 10
107.902
 20
85.617
 10
107.931
 20
85.676
 10
107.967
 20
85.73
 10
108.01
 20
85.78
 10
108.06
 20
85.823
 10
108.114
 20
85.859
 10
108.173
 20
85.888
 10
108.235
 20
85.909
 10
108.299
 20
85.922
 10
108.364
 20
85.926
 10
108.429
 20
85.922
 10
108.493
 20
85.909
 10
108.555
 20
85.888
 10
108.614
 20
85.859
 10
108.668
 20
85.823
 10
108.718
 20
85.78
 10
108.761
 20
85.73
 10
108.797
 20
85.676
 10
108.826
 20
85.617
 10
108.847
 20
85.555
 10
108.86
 20
85.491
 97
0
 75
0
 76
1
 98
0
  0
HATCH
  5
81
330
17
100
AcDbEntity
  8
RASTER
 62
7
100
AcDbHatch
 10
0.0
 20
0.0
 30
0.0
210
0.0
220
0.0
230
1.0
  2
SOLID
 70
1
 71
0
 91
1
 92
3
 72
0
 73
1
 93
48
 10
73.232
 20
80.026
 10
73.228
 20
79.961
 10
73.215
 20
79.897
 10
73.194
 20
79.835
 10
73.165
 20
79.776
 10
73.129
 20
79.722
 10
73.086
 20
79.672
 10
73.036
 20
79.629
 10
72.982
 20
79.593
 10
72.923
 20
79.564
 10
72.861
 20
79.543
 10
72.797
 20
79.53
 10
72.732
 20
79.526
 10
72.667
 20
79.53
 10
72.603
 20
79.543
 10
72.541
 20
79.564
 10
72.482
 20
79.593
 10
72.428
 20
79.629
 10
72.378
 20
79.672
 10
72.335
 20
79.722
 10
72.299
 20
79.776
 10
72.27
 20
79.835
 10
72.249
 20
79.897
 10
72.236
 20
79.961
 10
72.232
 20
80.026
 10
72.236
 20
80.091
 10
72.249
 20
80.155
 10
72.27
 20
80.217
 10
72.299
 20
80.276
 10
72.335
 20
80.33
 10
72.378
 20
80.38
 10
72.428
 20
80.423
 10
72.482
 20
80.459
 10
72.541
 20
80.488
 10
72.603
 20
80.509
 10
72.667
 20
80.522
 10
72.732
 20
80.526
 10
72.797
 20
80.522
 10
72.861
 20
80.509
 10
72.923
 20
80.488
 10
72.982
 20
80.459
 10
73.036
 20
80.423
 10
73.086
 20
80.38
 10
73.129
 20
80.33
 10
73.165
 20
80.276
 10
73.194
 20
80.217
 10
73.215
 20
80.155
 10
73.228
 20
80.091
 97
0
 75
0
 76
1
 98
0
  0
HATCH
  5
82
330
17
100
AcDbEntity
  8
RASTER
 62
7
100
AcDbHatch
 10
0.0
 20
0.0
 30
0.0
210
0.0
220
0.0
230
1.0
  2
SOLID
 70
1
 71
0
 91
1
 92
3
 72
0
 73
1
 93
48
 10
108.864
 20
80.026
 10
108.86
 20
79.961
 10
108.847
 20
79.897
 10
108.826
 20
79.835
 10
108.797
 20
79.776
 10
108.761
 20
79.722
 10
108.718
 20
79.672
 10
108.668
 20
79.629
 10
108.614
 20
79.593
 10
108.555
 20
79.564
 10
108.493
 20
79.543
 10
108.429
 20
79.53
 10
108.364
 20
79.526
 10
108.299
 20
79.53
 10
108.235
 20
79.543
 10
108.173
 20
79.564
 10
108.114
 20
79.593
 10
108.06
 20
79.629
 10
108.01
 20
79.672
 10
107.967
 20
79.722
 10
107.931
 20
79.776
 10
107.902
 20
79.835
 10
107.881
 20
79.897
 10
107.868
 20
79.961
 10
107.864
 20
80.026
 10
107.868
 20
80.091
 10
107.881
 20
80.155
 10
107.902
 20
80.217
 10
107.931
 20
80.276
 10
107.967
 20
80.33
 10
108.01
 20
80.38
 10
108.06
 20
80.423
 10
108.114
 20
80.459
 10
108.173
 20
80.488
 10
108.235
 20
80.509
 10
108.299
 20
80.522
 10
108.364
 20
80.526
 10
108.429
 20
80.522
 10
108.493
 20
80.509
 10
108.555
 20
80.488
 10
108.614
 20
80.459
 10
108.668
 20
80.423
 10
108.718
 20
80.38
 10
108.761
 20
80.33
 10
108.797
 20
80.276
 10
108.826
 20
80.217
 10
108.847
 20
80.155
 10
108.86
 20
80.091
 97
0
 75
0
 76
1
 98
0
  0
LWPOLYLINE
  5
83
330
17
100
AcDbEntity
  8
CUT
100
AcDbPolyline
 90
20
 70
1
 10
125.124
 20
86.216
 10
158.092
 20
86.216
 10
158.092
 20
83.916
 10
161.192
 20
83.916
 10
161.192
 20
81.536
 10
158.092
 20
81.536
 10
158.092
 20
79.236
 10
151.514
 20
79.236
 10
151.514
 20
76.136
 10
144.857
 20
76.136
 10
144.857
 20
79.236
 10
138.359
 20
79.236
 10
138.359
 20
76.136
 10
131.702
 20
76.136
 10
131.702
 20
79.236
 10
125.124
 20
79.236
 10
125.124
 20
81.536
 10
122.024
 20
81.536
 10
122.024
 20
83.916
 10
125.124
 20
83.916
  0
LWPOLYLINE
  5
84
330
17
100
AcDbEntity
  8
CUT
100
AcDbPolyline
 90
4
 70
1
 10
130.204
 20
83.786
 10
153.012
 20
83.786
 10
153.012
 20
81.666
 10
130.204
 20
81.666
  0
HATCH
  5
85
330
17
100
AcDbEntity
  8
RASTER
 62
7
100
AcDbHatch
 10
0.0
 20
0.0
 30
0.0
210
0.0
220
0.0
230
1.0
  2
SOLID
 70
1
 71
0
 91
1
 92
3
 72
0
 73
1
 93
4
 10
125.764
 20
85.776
 10
129.564
 20
85.776
 10
129.564
 20
79.676
 10
125.764
 20
79.676
 97
0
 75
0
 76
1
 98
0
  0
HATCH
  5
86
330
17
100
AcDbEntity
  8
RASTER
 62
7
100
AcDbHatch
 10
0.0
 20
0.0
 30
0.0
210
0.0
220
0.0
230
1.0
  2
SOLID
 70
1
 71
0
 91
1
 92
3
 72
0
 73
1
 93
4
 10
153.652
 20
85.776
 10
157.452
 20
85.776
 10
157.452
 20
79.676
 10
153.652
 20
79.676
 97
0
 75
0
 76
1
 98
0
  0
HATCH
  5
87
330
17
100
AcDbEntity
  8
RASTER
 62
7
100
AcDbHatch
 10
0.0
 20
0.0
 30
0.0
210
0.0
220
0.0
230
1.0
  2
SOLID
 70
1
 71
0
 91
1
 92
3
 72
0
 73
1
 93
48
 10
132.264
 20
85.426
 10
132.26
 20
85.361
 10
132.247
 20
85.297
 10
132.226
 20
85.235
 10
132.197
 20
85.176
 10
132.161
 20
85.122
 10
132.118
 20
85.072
 10
132.068
 20
85.029
 10
132.014
 20
84.993
 10
131.955
 20
84.964
 10
131.893
 20
84.943
 10
131.829
 20
84.93
 10
131.764
 20
84.926
 10
131.699
 20
84.93
 10
131.635
 20
84.943
 10
131.573
 20
84.964
 10
131.514
 20
84.993
 10
131.46
 20
85.029
 10
131.41
 20
85.072
 10
131.367
 20
85.122
 10
131.331
 20
85.176
 10
131.302
 20
85.235
 10
131.281
 20
85.297
 10
131.268
 20
85.361
 10
131.264
 20
85.426
 10
131.268
 20
85.491
 10
131.281
 20
85.555
 10
131.302
 20
85.617
 10
131.331
 20
85.676
 10
131.367
 20
85.73
 10
131.41
 20
85.78
 10
131.46
 20
85.823
 10
131.514
 20
85.859
 10
131.573
 20
85.888
 10
131.635
 20
85.909
 10
131.699
 20
85.922
 10
131.764
 20
85.926
 10
131.829
 20
85.922
 10
131.893
 20
85.909
 10
131.955
 20
85.888
 10
132.014
 20
85.859
 10
132.068
 20
85.823
 10
132.118
 20
85.78
 10
132.161
 20
85.73
 10
132.197
 20
85.676
 10
132.226
 20
85.617
 10
132.247
 20
85.555
 10
132.26
 20
85.491
 97
0
 75
0
 76
1
 98
0
  0
HATCH
  5
88
330
17
100
AcDbEntity
  8
RASTER
 62
7
100
AcDbHatch
 10
0.0
 20
0.0
 30
0.0
210
0.0
220
0.0
230
1.0
  2
SOLID
 70
1
 71
0
 91
1
 92
3
 72
0
 73
1
 93
48
 10
151.952
 20
85.426
 10
151.948
 20
85.361
 10
151.935
 20
85.297
 10
151.914
 20
85.235
 10
151.885
 20
85.176
 10
151.849
 20
85.122
 10
151.806
 20
85.072
 10
151.756
 20
85.029
 10
151.702
 20
84.993
 10
151.643
 20
84.964
 10
151.581
 20
84.943
 10
151.517
 20
84.93
 10
151.452
 20
84.926
 10
151.387
 20
84.93
 10
151.323
 20
84.943
 10
151.261
 20
84.964
 10
151.202
 20
84.993
 10
151.148
 20
85.029
 10
151.098
 20
85.072
 10
151.055
 20
85.122
 10
151.019
 20
85.176
 10
150.99
 20
85.235
 10
150.969
 20
85.297
 10
150.956
 20
85.361
 10
150.952
 20
85.426
 10
150.956
 20
85.491
 10
150.969
 20
85.555
 10
150.99
 20
85.617
 10
151.019
 20
85.676
 10
151.055
 20
85.73
 10
151.098
 20
85.78
 10
151.148
 20
85.823
 10
151.202
 20
85.859
 10
151.261
 20
85.888
 10
151.323
 20
85.909
 10
151.387
 20
85.922
 10
151.452
 20
85.926
 10
151.517
 20
85.922
 10
151.581
 20
85.909
 10
151.643
 20
85.888
 10
151.702
 20
85.859
 10
151.756
 20
85.823
 10
151.806
 20
85.78
 10
151.849
 20
85.73
 10
151.885
 20
85.676
 10
151.914
 20
85.617
 10
151.935
 20
85.555
 10
151.948
 20
85.491
 97
0
 75
0
 76
1
 98
0
  0
HATCH
  5
89
330
17
100
AcDbEntity
  8
RASTER
 62
7
100
AcDbHatch
 10
0.0
 20
0.0
 30
0.0
210
0.0
220
0.0
230
1.0
  2
SOLID
 70
1
 71
0
 91
1
 92
3
 72
0
 73
1
 93
48
 10
132.264
 20
80.026
 10
132.26
 20
79.961
 10
132.247
 20
79.897
 10
132.226
 20
79.835
 10
132.197
 20
79.776
 10
132.161
 20
79.722
 10
132.118
 20
79.672
 10
132.068
 20
79.629
 10
132.014
 20
79.593
 10
131.955
 20
79.564
 10
131.893
 20
79.543
 10
131.829
 20
79.53
 10
131.764
 20
79.526
 10
131.699
 20
79.53
 10
131.635
 20
79.543
 10
131.573
 20
79.564
 10
131.514
 20
79.593
 10
131.46
 20
79.629
 10
131.41
 20
79.672
 10
131.367
 20
79.722
 10
131.331
 20
79.776
 10
131.302
 20
79.835
 10
131.281
 20
79.897
 10
131.268
 20
79.961
 10
131.264
 20
80.026
 10
131.268
 20
80.091
 10
131.281
 20
80.155
 10
131.302
 20
80.217
 10
131.331
 20
80.276
 10
131.367
 20
80.33
 10
131.41
 20
80.38
 10
131.46
 20
80.423
 10
131.514
 20
80.459
 10
131.573
 20
80.488
 10
131.635
 20
80.509
 10
131.699
 20
80.522
 10
131.764
 20
80.526
 10
131.829
 20
80.522
 10
131.893
 20
80.509
 10
131.955
 20
80.488
 10
132.014
 20
80.459
 10
132.068
 20
80.423
 10
132.118
 20
80.38
 10
132.161
 20
80.33
 10
132.197
 20
80.276
 10
132.226
 20
80.217
 10
132.247
 20
80.155
 10
132.26
 20
80.091
 97
0
 75
0
 76
1
 98
0
  0
HATCH
  5
8A
330
17
100
AcDbEntity
  8
RASTER
 62
7
100
AcDbHatch
 10
0.0
 20
0.0
 30
0.0
210
0.0
220
0.0
230
1.0
  2
SOLID
 70
1
 71
0
 91
1
 92
3
 72
0
 73
1
 93
48
 10
151.952
 20
80.026
 10
151.948
 20
79.961
 10
151.935
 20
79.897
 10
151.914
 20
79.835
 10
151.885
 20
79.776
 10
151.849
 20
79.722
 10
151.806
 20
79.672
 10
151.756
 20
79.629
 10
151.702
 20
79.593
 10
151.643
 20
79.564
 10
151.581
 20
79.543
 10
151.517
 20
79.53
 10
151.452
 20
79.526
 10
151.387
 20
79.53
 10
151.323
 20
79.543
 10
151.261
 20
79.564
 10
151.202
 20
79.593
 10
151.148
 20
79.629
 10
151.098
 20
79.672
 10
151.055
 20
79.722
 10
151.019
 20
79.776
 10
150.99
 20
79.835
 10
150.969
 20
79.897
 10
150.956
 20
79.961
 10
150.952
 20
80.026
 10
150.956
 20
80.091
 10
150.969
 20
80.155
 10
150.99
 20
80.217
 10
151.019
 20
80.276
 10
151.055
 20
80.33
 10
151.098
 20
80.38
 10
151.148
 20
80.423
 10
151.202
 20
80.459
 10
151.261
 20
80.488
 10
151.323
 20
80.509
 10
151.387
 20
80.522
 10
151.452
 20
80.526
 10
151.517
 20
80.522
 10
151.581
 20
80.509
 10
151.643
 20
80.488
 10
151.702
 20
80.459
 10
151.756
 20
80.423
 10
151.806
 20
80.38
 10
151.849
 20
80.33
 10
151.885
 20
80.276
 10
151.914
 20
80.217
 10
151.935
 20
80.155
 10
151.948
 20
80.091
 97
0
 75
0
 76
1
 98
0
  0
LWPOLYLINE
  5
8B
330
17
100
AcDbEntity
  8
CUT
100
AcDbPolyline
 90
20
 70
1
 10
168.212
 20
86.216
 10
201.18
 20
86.216
 10
201.18
 20
83.916
 10
204.28
 20
83.916
 10
204.28
 20
81.536
 10
201.18
 20
81.536
 10
201.18
 20
79.236
 10
194.602
 20
79.236
 10
194.602
 20
76.136
 10
187.945
 20
76.136
 10
187.945
 20
79.236
 10
181.447
 20
79.236
 10
181.447
 20
76.136
 10
174.79
 20
76.136
 10
174.79
 20
79.236
 10
168.212
 20
79.236
 10
168.212
 20
81.536
 10
165.112
 20
81.536
 10
165.112
 20
83.916
 10
168.212
 20
83.916
  0
LWPOLYLINE
  5
8C
330
17
100
AcDbEntity
  8
CUT
100
AcDbPolyline
 90
4
 70
1
 10
173.292
 20
83.786
 10
196.1
 20
83.786
 10
196.1
 20
81.666
 10
173.292
 20
81.666
  0
HATCH
  5
8D
330
17
100
AcDbEntity
  8
RASTER
 62
7
100
AcDbHatch
 10
0.0
 20
0.0
 30
0.0
210
0.0
220
0.0
230
1.0
  2
SOLID
 70
1
 71
0
 91
1
 92
3
 72
0
 73
1
 93
4
 10
168.852
 20
85.776
 10
172.652
 20
85.776
 10
172.652
 20
79.676
 10
168.852
 20
79.676
 97
0
 75
0
 76
1
 98
0
  0
HATCH
  5
8E
330
17
100
AcDbEntity
  8
RASTER
 62
7
100
AcDbHatch
 10
0.0
 20
0.0
 30
0.0
210
0.0
220
0.0
230
1.0
  2
SOLID
 70
1
 71
0
 91
1
 92
3
 72
0
 73
1
 93
4
 10
196.74
 20
85.776
 10
200.54
 20
85.776
 10
200.54
 20
79.676
 10
196.74
 20
79.676
 97
0
 75
0
 76
1
 98
0
  0
HATCH
  5
8F
330
17
100
AcDbEntity
  8
RASTER
 62
7
100
AcDbHatch
 10
0.0
 20
0.0
 30
0.0
210
0.0
220
0.0
230
1.0
  2
SOLID
 70
1
 71
0
 91
1
 92
3
 72
0
 73
1
 93
48
 10
175.352
 20
85.426
 10
175.348
 20
85.361
 10
175.335
 20
85.297
 10
175.314
 20
85.235
 10
175.285
 20
85.176
 10
175.249
 20
85.122
 10
175.206
 20
85.072
 10
175.156
 20
85.029
 10
175.102
 20
84.993
 10
175.043
 20
84.964
 10
174.981
 20
84.943
 10
174.917
 20
84.93
 10
174.852
 20
84.926
 10
174.787
 20
84.93
 10
174.723
 20
84.943
 10
174.661
 20
84.964
 10
174.602
 20
84.993
 10
174.548
 20
85.029
 10
174.498
 20
85.072
 10
174.455
 20
85.122
 10
174.419
 20
85.176
 10
174.39
 20
85.235
 10
174.369
 20
85.297
 10
174.356
 20
85.361
 10
174.352
 20
85.426
 10
174.356
 20
85.491
 10
174.369
 20
85.555
 10
174.39
 20
85.617
 10
174.419
 20
85.676
 10
174.455
 20
85.73
 10
174.498
 20
85.78
 10
174.548
 20
85.823
 10
174.602
 20
85.859
 10
174.661
 20
85.888
 10
174.723
 20
85.909
 10
174.787
 20
85.922
 10
174.852
 20
85.926
 10
174.917
 20
85.922
 10
174.981
 20
85.909
 10
175.043
 20
85.888
 10
175.102
 20
85.859
 10
175.156
 20
85.823
 10
175.206
 20
85.78
 10
175.249
 20
85.73
 10
175.285
 20
85.676
 10
175.314
 20
85.617
 10
175.335
 20
85.555
 10
175.348
 20
85.491
 97
0
 75
0
 76
1
 98
0
  0
HATCH
  5
90
330
17
100
AcDbEntity
  8
RASTER
 62
7
100
AcDbHatch
 10
0.0
 20
0.0
 30
0.0
210
0.0
220
0.0
230
1.0
  2
SOLID
 70
1
 71
0
 91
1
 92
3
 72
0
 73
1
 93
48
 10
195.04
 20
85.426
 10
195.036
 20
85.361
 10
195.023
 20
85.297
 10
195.002
 20
85.235
 10
194.973
 20
85.176
 10
194.937
 20
85.122
 10
194.894
 20
85.072
 10
194.844
 20
85.029
 10
194.79
 20
84.993
 10
194.731
 20
84.964
 10
194.669
 20
84.943
 10
194.605
 20
84.93
 10
194.54
 20
84.926
 10
194.475
 20
84.93
 10
194.411
 20
84.943
 10
194.349
 20
84.964
 10
194.29
 20
84.993
 10
194.236
 20
85.029
 10
194.186
 20
85.072
 10
194.143
 20
85.122
 10
194.107
 20
85.176
 10
194.078
 20
85.235
 10
194.057
 20
85.297
 10
194.044
 20
85.361
 10
194.04
 20
85.426
 10
194.044
 20
85.491
 10
194.057
 20
85.555
 10
194.078
 20
85.617
 10
194.107
 20
85.676
 10
194.143
 20
85.73
 10
194.186
 20
85.78
 10
194.236
 20
85.823
 10
194.29
 20
85.859
 10
194.349
 20
85.888
 10
194.411
 20
85.909
 10
194.475
 20
85.922
 10
194.54
 20
85.926
 10
194.605
 20
85.922
 10
194.669
 20
85.909
 10
194.731
 20
85.888
 10
194.79
 20
85.859
 10
194.844
 20
85.823
 10
194.894
 20
85.78
 10
194.937
 20
85.73
 10
194.973
 20
85.676
 10
195.002
 20
85.617
 10
195.023
 20
85.555
 10
195.036
 20
85.491
 97
0
 75
0
 76
1
 98
0
  0
HATCH
  5
91
330
17
100
AcDbEntity
  8
RASTER
 62
7
100
AcDbHatch
 10
0.0
 20
0.0
 30
0.0
210
0.0
220
0.0
230
1.0
  2
SOLID
 70
1
 71
0
 91
1
 92
3
 72
0
 73
1
 93
48
 10
175.352
 20
80.026
 10
175.348
 20
79.961
 10
175.335
 20
79.897
 10
175.314
 20
79.835
 10
175.285
 20
79.776
 10
175.249
 20
79.722
 10
175.206
 20
79.672
 10
175.156
 20
79.629
 10
175.102
 20
79.593
 10
175.043
 20
79.564
 10
174.981
 20
79.543
 10
174.917
 20
79.53
 10
174.852
 20
79.526
 10
174.787
 20
79.53
 10
174.723
 20
79.543
 10
174.661
 20
79.564
 10
174.602
 20
79.593
 10
174.548
 20
79.629
 10
174.498
 20
79.672
 10
174.455
 20
79.722
 10
174.419
 20
79.776
 10
174.39
 20
79.835
 10
174.369
 20
79.897
 10
174.356
 20
79.961
 10
174.352
 20
80.026
 10
174.356
 20
80.091
 10
174.369
 20
80.155
 10
174.39
 20
80.217
 10
174.419
 20
80.276
 10
174.455
 20
80.33
 10
174.498
 20
80.38
 10
174.548
 20
80.423
 10
174.602
 20
80.459
 10
174.661
 20
80.488
 10
174.723
 20
80.509
 10
174.787
 20
80.522
 10
174.852
 20
80.526
 10
174.917
 20
80.522
 10
174.981
 20
80.509
 10
175.043
 20
80.488
 10
175.102
 20
80.459
 10
175.156
 20
80.423
 10
175.206
 20
80.38
 10
175.249
 20
80.33
 10
175.285
 20
80.276
 10
175.314
 20
80.217
 10
175.335
 20
80.155
 10
175.348
 20
80.091
 97
0
 75
0
 76
1
 98
0
  0
HATCH
  5
92
330
17
100
AcDbEntity
  8
RASTER
 62
7
100
AcDbHatch
 10
0.0
 20
0.0
 30
0.0
210
0.0
220
0.0
230
1.0
  2
SOLID
 70
1
 71
0
 91
1
 92
3
 72
0
 73
1
 93
48
 10
195.04
 20
80.026
 10
195.036
 20
79.961
 10
195.023
 20
79.897
 10
195.002
 20
79.835
 10
194.973
 20
79.776
 10
194.937
 20
79.722
 10
194.894
 20
79.672
 10
194.844
 20
79.629
 10
194.79
 20
79.593
 10
194.731
 20
79.564
 10
194.669
 20
79.543
 10
194.605
 20
79.53
 10
194.54
 20
79.526
 10
194.475
 20
79.53
 10
194.411
 20
79.543
 10
194.349
 20
79.564
 10
194.29
 20
79.593
 10
194.236
 20
79.629
 10
194.186
 20
79.672
 10
194.143
 20
79.722
 10
194.107
 20
79.776
 10
194.078
 20
79.835
 10
194.057
 20
79.897
 10
194.044
 20
79.961
 10
194.04
 20
80.026
 10
194.044
 20
80.091
 10
194.057
 20
80.155
 10
194.078
 20
80.217
 10
194.107
 20
80.276
 10
194.143
 20
80.33
 10
194.186
 20
80.38
 10
194.236
 20
80.423
 10
194.29
 20
80.459
 10
194.349
 20
80.488
 10
194.411
 20
80.509
 10
194.475
 20
80.522
 10
194.54
 20
80.526
 10
194.605
 20
80.522
 10
194.669
 20
80.509
 10
194.731
 20
80.488
 10
194.79
 20
80.459
 10
194.844
 20
80.423
 10
194.894
 20
80.38
 10
194.937
 20
80.33
 10
194.973
 20
80.276
 10
195.002
 20
80.217
 10
195.023
 20
80.155
 10
195.036
 20
80.091
 97
0
 75
0
 76
1
 98
0
  0
LWPOLYLINE
  5
93
330
17
100
AcDbEntity
  8
CUT
100
AcDbPolyline
 90
60
 70
1
 10
208.2
 20
86.216
 10
211.34
 20
86.216
 10
216.806
 20
86.216
 10
216.806
 20
83.116
 10
222.152
 20
83.116
 10
222.152
 20
86.216
 10
227.657
 20
86.216
 10
227.657
 20
83.116
 10
233.003
 20
83.116
 10
233.003
 20
86.216
 10
238.509
 20
86.216
 10
238.509
 20
83.116
 10
243.855
 20
83.116
 10
243.855
 20
86.216
 10
249.36
 20
86.216
 10
249.36
 20
83.116
 10
254.706
 20
83.116
 10
254.706
 20
86.216
 10
260.172
 20
86.216
 10
263.312
 20
86.216
 10
263.312
 20
83.076
 10
263.312
 20
76.458
 10
260.212
 20
76.458
 10
260.212
 20
69.961
 10
263.312
 20
69.961
 10
263.312
 20
63.303
 10
260.212
 20
63.303
 10
260.212
 20
56.806
 10
263.312
 20
56.806
 10
263.312
 20
50.188
 10
263.312
 20
47.048
 10
260.172
 20
47.048
 10
254.706
 20
47.048
 10
254.706
 20
50.148
 10
249.36
 20
50.148
 10
249.36
 20
47.048
 10
243.855
 20
47.048
 10
243.855
 20
50.148
 10
238.509
 20
50.148
 10
238.509
 20
47.048
 10
233.003
 20
47.048
 10
233.003
 20
50.148
 10
227.657
 20
50.148
 10
227.657
 20
47.048
 10
222.152
 20
47.048
 10
222.152
 20
50.148
 10
216.806
 20
50.148
 10
216.806
 20
47.048
 10
211.34
 20
47.048
 10
208.2
 20
47.048
 10
208.2
 20
50.188
 10
208.2
 20
56.806
 10
211.3
 20
56.806
 10
211.3
 20
63.303
 10
208.2
 20
63.303
 10
208.2
 20
69.961
 10
211.3
 20
69.961
 10
211.3
 20
76.458
 10
208.2
 20
76.458
 10
208.2
 20
83.076
  0
LWPOLYLINE
  5
94
330
17
100
AcDbEntity
  8
CUT
100
AcDbPolyline
 90
32
 70
1
 10
7.1
 20
43.128
 10
55.932
 20
43.128
 10
59.072
 20
43.128
 10
59.072
 20
40.748
 10
55.972
 20
40.748
 10
55.972
 20
38.528
 10
59.072
 20
38.528
 10
59.072
 20
36.148
 10
55.932
 20
36.148
 10
50.546
 20
36.148
 10
50.546
 20
33.048
 10
45.04
 20
33.048
 10
45.04
 20
36.148
 10
39.695
 20
36.148
 10
39.695
 20
33.048
 10
34.189
 20
33.048
 10
34.189
 20
36.148
 10
28.843
 20
36.148
 10
28.843
 20
33.048
 10
23.337
 20
33.048
 10
23.337
 20
36.148
 10
17.992
 20
36.148
 10
17.992
 20
33.048
 10
12.486
 20
33.048
 10
12.486
 20
36.148
 10
7.1
 20
36.148
 10
3.96
 20
36.148
 10
3.96
 20
38.528
 10
7.06
 20
38.528
 10
7.06
 20
40.748
 10
3.96
 20
40.748
 10
3.96
 20
43.128
  0
LWPOLYLINE
  5
95
330
17
100
AcDbEntity
  8
CUT
100
AcDbPolyline
 90
4
 70
1
 10
12.14
 20
40.698
 10
50.892
 20
40.698
 10
50.892
 20
38.578
 10
12.14
 20
38.578
  0
HATCH
  5
96
330
17
100
AcDbEntity
  8
RASTER
 62
7
100
AcDbHatch
 10
0.0
 20
0.0
 30
0.0
210
0.0
220
0.0
230
1.0
  2
SOLID
 70
1
 71
0
 91
1
 92
3
 72
0
 73
1
 93
4
 10
7.7
 20
42.688
 10
11.5
 20
42.688
 10
11.5
 20
36.588
 10
7.7
 20
36.588
 97
0
 75
0
 76
1
 98
0
  0
HATCH
  5
97
330
17
100
AcDbEntity
  8
RASTER
 62
7
100
AcDbHatch
 10
0.0
 20
0.0
 30
0.0
210
0.0
220
0.0
230
1.0
  2
SOLID
 70
1
 71
0
 91
1
 92
3
 72
0
 73
1
 93
4
 10
51.532
 20
42.688
 10
55.332
 20
42.688
 10
55.332
 20
36.588
 10
51.532
 20
36.588
 97
0
 75
0
 76
1
 98
0
  0
HATCH
  5
98
330
17
100
AcDbEntity
  8
RASTER
 62
7
100
AcDbHatch
 10
0.0
 20
0.0
 30
0.0
210
0.0
220
0.0
230
1.0
  2
SOLID
 70
1
 71
0
 91
1
 92
3
 72
0
 73
1
 93
48
 10
14.2
 20
42.338
 10
14.196
 20
42.273
 10
14.183
 20
42.209
 10
14.162
 20
42.147
 10
14.133
 20
42.088
 10
14.097
 20
42.034
 10
14.054
 20
41.984
 10
14.004
 20
41.941
 10
13.95
 20
41.905
 10
13.891
 20
41.876
 10
13.829
 20
41.855
 10
13.765
 20
41.842
 10
13.7
 20
41.838
 10
13.635
 20
41.842
 10
13.571
 20
41.855
 10
13.509
 20
41.876
 10
13.45
 20
41.905
 10
13.396
 20
41.941
 10
13.346
 20
41.984
 10
13.303
 20
42.034
 10
13.267
 20
42.088
 10
13.238
 20
42.147
 10
13.217
 20
42.209
 10
13.204
 20
42.273
 10
13.2
 20
42.338
 10
13.204
 20
42.403
 10
13.217
 20
42.467
 10
13.238
 20
42.529
 10
13.267
 20
42.588
 10
13.303
 20
42.642
 10
13.346
 20
42.692
 10
13.396
 20
42.735
 10
13.45
 20
42.771
 10
13.509
 20
42.8
 10
13.571
 20
42.821
 10
13.635
 20
42.834
 10
13.7
 20
42.838
 10
13.765
 20
42.834
 10
13.829
 20
42.821
 10
13.891
 20
42.8
 10
13.95
 20
42.771
 10
14.004
 20
42.735
 10
14.054
 20
42.692
 10
14.097
 20
42.642
 10
14.133
 20
42.588
 10
14.162
 20
42.529
 10
14.183
 20
42.467
 10
14.196
 20
42.403
 97
0
 75
0
 76
1
 98
0
  0
HATCH
  5
99
330
17
100
AcDbEntity
  8
RASTER
 62
7
100
AcDbHatch
 10
0.0
 20
0.0
 30
0.0
210
0.0
220
0.0
230
1.0
  2
SOLID
 70
1
 71
0
 91
1
 92
3
 72
0
 73
1
 93
48
 10
49.832
 20
42.338
 10
49.828
 20
42.273
 10
49.815
 20
42.209
 10
49.794
 20
42.147
 10
49.765
 20
42.088
 10
49.729
 20
42.034
 10
49.686
 20
41.984
 10
49.636
 20
41.941
 10
49.582
 20
41.905
 10
49.523
 20
41.876
 10
49.461
 20
41.855
 10
49.397
 20
41.842
 10
49.332
 20
41.838
 10
49.267
 20
41.842
 10
49.203
 20
41.855
 10
49.141
 20
41.876
 10
49.082
 20
41.905
 10
49.028
 20
41.941
 10
48.978
 20
41.984
 10
48.935
 20
42.034
 10
48.899
 20
42.088
 10
48.87
 20
42.147
 10
48.849
 20
42.209
 10
48.836
 20
42.273
 10
48.832
 20
42.338
 10
48.836
 20
42.403
 10
48.849
 20
42.467
 10
48.87
 20
42.529
 10
48.899
 20
42.588
 10
48.935
 20
42.642
 10
48.978
 20
42.692
 10
49.028
 20
42.735
 10
49.082
 20
42.771
 10
49.141
 20
42.8
 10
49.203
 20
42.821
 10
49.267
 20
42.834
 10
49.332
 20
42.838
 10
49.397
 20
42.834
 10
49.461
 20
42.821
 10
49.523
 20
42.8
 10
49.582
 20
42.771
 10
49.636
 20
42.735
 10
49.686
 20
42.692
 10
49.729
 20
42.642
 10
49.765
 20
42.588
 10
49.794
 20
42.529
 10
49.815
 20
42.467
 10
49.828
 20
42.403
 97
0
 75
0
 76
1
 98
0
  0
HATCH
  5
9A
330
17
100
AcDbEntity
  8
RASTER
 62
7
100
AcDbHatch
 10
0.0
 20
0.0
 30
0.0
210
0.0
220
0.0
230
1.0
  2
SOLID
 70
1
 71
0
 91
1
 92
3
 72
0
 73
1
 93
48
 10
14.2
 20
36.938
 10
14.196
 20
36.873
 10
14.183
 20
36.809
 10
14.162
 20
36.747
 10
14.133
 20
36.688
 10
14.097
 20
36.634
 10
14.054
 20
36.584
 10
14.004
 20
36.541
 10
13.95
 20
36.505
 10
13.891
 20
36.476
 10
13.829
 20
36.455
 10
13.765
 20
36.442
 10
13.7
 20
36.438
 10
13.635
 20
36.442
 10
13.571
 20
36.455
 10
13.509
 20
36.476
 10
13.45
 20
36.505
 10
13.396
 20
36.541
 10
13.346
 20
36.584
 10
13.303
 20
36.634
 10
13.267
 20
36.688
 10
13.238
 20
36.747
 10
13.217
 20
36.809
 10
13.204
 20
36.873
 10
13.2
 20
36.938
 10
13.204
 20
37.003
 10
13.217
 20
37.067
 10
13.238
 20
37.129
 10
13.267
 20
37.188
 10
13.303
 20
37.242
 10
13.346
 20
37.292
 10
13.396
 20
37.335
 10
13.45
 20
37.371
 10
13.509
 20
37.4
 10
13.571
 20
37.421
 10
13.635
 20
37.434
 10
13.7
 20
37.438
 10
13.765
 20
37.434
 10
13.829
 20
37.421
 10
13.891
 20
37.4
 10
13.95
 20
37.371
 10
14.004
 20
37.335
 10
14.054
 20
37.292
 10
14.097
 20
37.242
 10
14.133
 20
37.188
 10
14.162
 20
37.129
 10
14.183
 20
37.067
 10
14.196
 20
37.003
 97
0
 75
0
 76
1
 98
0
  0
HATCH
  5
9B
330
17
100
AcDbEntity
  8
RASTER
 62
7
100
AcDbHatch
 10
0.0
 20
0.0
 30
0.0
210
0.0
220
0.0
230
1.0
  2
SOLID
 70
1
 71
0
 91
1
 92
3
 72
0
 73
1
 93
48
 10
49.832
 20
36.938
 10
49.828
 20
36.873
 10
49.815
 20
36.809
 10
49.794
 20
36.747
 10
49.765
 20
36.688
 10
49.729
 20
36.634
 10
49.686
 20
36.584
 10
49.636
 20
36.541
 10
49.582
 20
36.505
 10
49.523
 20
36.476
 10
49.461
 20
36.455
 10
49.397
 20
36.442
 10
49.332
 20
36.438
 10
49.267
 20
36.442
 10
49.203
 20
36.455
 10
49.141
 20
36.476
 10
49.082
 20
36.505
 10
49.028
 20
36.541
 10
48.978
 20
36.584
 10
48.935
 20
36.634
 10
48.899
 20
36.688
 10
48.87
 20
36.747
 10
48.849
 20
36.809
 10
48.836
 20
36.873
 10
48.832
 20
36.938
 10
48.836
 20
37.003
 10
48.849
 20
37.067
 10
48.87
 20
37.129
 10
48.899
 20
37.188
 10
48.935
 20
37.242
 10
48.978
 20
37.292
 10
49.028
 20
37.335
 10
49.082
 20
37.371
 10
49.141
 20
37.4
 10
49.203
 20
37.421
 10
49.267
 20
37.434
 10
49.332
 20
37.438
 10
49.397
 20
37.434
 10
49.461
 20
37.421
 10
49.523
 20
37.4
 10
49.582
 20
37.371
 10
49.636
 20
37.335
 10
49.686
 20
37.292
 10
49.729
 20
37.242
 10
49.765
 20
37.188
 10
49.794
 20
37.129
 10
49.815
 20
37.067
 10
49.828
 20
37.003
 97
0
 75
0
 76
1
 98
0
  0
LWPOLYLINE
  5
9C
330
17
100
AcDbEntity
  8
CUT
100
AcDbPolyline
 90
32
 70
1
 10
66.132
 20
43.128
 10
114.964
 20
43.128
 10
118.104
 20
43.128
 10
118.104
 20
40.748
 10
115.004
 20
40.748
 10
115.004
 20
38.528
 10
118.104
 20
38.528
 10
118.104
 20
36.148
 10
114.964
 20
36.148
 10
109.578
 20
36.148
 10
109.578
 20
33.048
 10
104.072
 20
33.048
 10
104.072
 20
36.148
 10
98.727
 20
36.148
 10
98.727
 20
33.048
 10
93.221
 20
33.048
 10
93.221
 20
36.148
 10
87.875
 20
36.148
 10
87.875
 20
33.048
 10
82.369
 20
33.048
 10
82.369
 20
36.148
 10
77.024
 20
36.148
 10
77.024
 20
33.048
 10
71.518
 20
33.048
 10
71.518
 20
36.148
 10
66.132
 20
36.148
 10
62.992
 20
36.148
 10
62.992
 20
38.528
 10
66.092
 20
38.528
 10
66.092
 20
40.748
 10
62.992
 20
40.748
 10
62.992
 20
43.128
  0
LWPOLYLINE
  5
9D
330
17
100
AcDbEntity
  8
CUT
100
AcDbPolyline
 90
4
 70
1
 10
71.172
 20
40.698
 10
109.924
 20
40.698
 10
109.924
 20
38.578
 10
71.172
 20
38.578
  0
HATCH
  5
9E
330
17
100
AcDbEntity
  8
RASTER
 62
7
100
AcDbHatch
 10
0.0
 20
0.0
 30
0.0
210
0.0
220
0.0
230
1.0
  2
SOLID
 70
1
 71
0
 91
1
 92
3
 72
0
 73
1
 93
4
 10
66.732
 20
42.688
 10
70.532
 20
42.688
 10
70.532
 20
36.588
 10
66.732
 20
36.588
 97
0
 75
0
 76
1
 98
0
  0
HATCH
  5
9F
330
17
100
AcDbEntity
  8
RASTER
 62
7
100
AcDbHatch
 10
0.0
 20
0.0
 30
0.0
210
0.0
220
0.0
230
1.0
  2
SOLID
 70
1
 71
0
 91
1
 92
3
 72
0
 73
1
 93
4
 10
110.564
 20
42.688
 10
114.364
 20
42.688
 10
114.364
 20
36.588
 10
110.564
 20
36.588
 97
0
 75
0
 76
1
 98
0
  0
HATCH
  5
A0
330
17
100
AcDbEntity
  8
RASTER
 62
7
100
AcDbHatch
 10
0.0
 20
0.0
 30
0.0
210
0.0
220
0.0
230
1.0
  2
SOLID
 70
1
 71
0
 91
1
 92
3
 72
0
 73
1
 93
48
 10
73.232
 20
42.338
 10
73.228
 20
42.273
 10
73.215
 20
42.209
 10
73.194
 20
42.147
 10
73.165
 20
42.088
 10
73.129
 20
42.034
 10
73.086
 20
41.984
 10
73.036
 20
41.941
 10
72.982
 20
41.905
 10
72.923
 20
41.876
 10
72.861
 20
41.855
 10
72.797
 20
41.842
 10
72.732
 20
41.838
 10
72.667
 20
41.842
 10
72.603
 20
41.855
 10
72.541
 20
41.876
 10
72.482
 20
41.905
 10
72.428
 20
41.941
 10
72.378
 20
41.984
 10
72.335
 20
42.034
 10
72.299
 20
42.088
 10
72.27
 20
42.147
 10
72.249
 20
42.209
 10
72.236
 20
42.273
 10
72.232
 20
42.338
 10
72.236
 20
42.403
 10
72.249
 20
42.467
 10
72.27
 20
42.529
 10
72.299
 20
42.588
 10
72.335
 20
42.642
 10
72.378
 20
42.692
 10
72.428
 20
42.735
 10
72.482
 20
42.771
 10
72.541
 20
42.8
 10
72.603
 20
42.821
 10
72.667
 20
42.834
 10
72.732
 20
42.838
 10
72.797
 20
42.834
 10
72.861
 20
42.821
 10
72.923
 20
42.8
 10
72.982
 20
42.771
 10
73.036
 20
42.735
 10
73.086
 20
42.692
 10
73.129
 20
42.642
 10
73.165
 20
42.588
 10
73.194
 20
42.529
 10
73.215
 20
42.467
 10
73.228
 20
42.403
 97
0
 75
0
 76
1
 98
0
  0
HATCH
  5
A1
330
17
100
AcDbEntity
  8
RASTER
 62
7
100
AcDbHatch
 10
0.0
 20
0.0
 30
0.0
210
0.0
220
0.0
230
1.0
  2
SOLID
 70
1
 71
0
 91
1
 92
3
 72
0
 73
1
 93
48
 10
108.864
 20
42.338
 10
108.86
 20
42.273
 10
108.847
 20
42.209
 10
108.826
 20
42.147
 10
108.797
 20
42.088
 10
108.761
 20
42.034
 10
108.718
 20
41.984
 10
108.668
 20
41.941
 10
108.614
 20
41.905
 10
108.555
 20
41.876
 10
108.493
 20
41.855
 10
108.429
 20
41.842
 10
108.364
 20
41.838
 10
108.299
 20
41.842
 10
108.235
 20
41.855
 10
108.173
 20
41.876
 10
108.114
 20
41.905
 10
108.06
 20
41.941
 10
108.01
 20
41.984
 10
107.967
 20
42.034
 10
107.931
 20
42.088
 10
107.902
 20
42.147
 10
107.881
 20
42.209
 10
107.868
 20
42.273
 10
107.864
 20
42.338
 10
107.868
 20
42.403
 10
107.881
 20
42.467
 10
107.902
 20
42.529
 10
107.931
 20
42.588
 10
107.967
 20
42.642
 10
108.01
 20
42.692
 10
108.06
 20
42.735
 10
108.114
 20
42.771
 10
108.173
 20
42.8
 10
108.235
 20
42.821
 10
108.299
 20
42.834
 10
108.364
 20
42.838
 10
108.429
 20
42.834
 10
108.493
 20
42.821
 10
108.555
 20
42.8
 10
108.614
 20
42.771
 10
108.668
 20
42.735
 10
108.718
 20
42.692
 10
108.761
 20
42.642
 10
108.797
 20
42.588
 10
108.826
 20
42.529
 10
108.847
 20
42.467
 10
108.86
 20
42.403
 97
0
 75
0
 76
1
 98
0
  0
HATCH
  5
A2
330
17
100
AcDbEntity
  8
RASTER
 62
7
100
AcDbHatch
 10
0.0
 20
0.0
 30
0.0
210
0.0
220
0.0
230
1.0
  2
SOLID
 70
1
 71
0
 91
1
 92
3
 72
0
 73
1
 93
48
 10
73.232
 20
36.938
 10
73.228
 20
36.873
 10
73.215
 20
36.809
 10
73.194
 20
36.747
 10
73.165
 20
36.688
 10
73.129
 20
36.634
 10
73.086
 20
36.584
 10
73.036
 20
36.541
 10
72.982
 20
36.505
 10
72.923
 20
36.476
 10
72.861
 20
36.455
 10
72.797
 20
36.442
 10
72.732
 20
36.438
 10
72.667
 20
36.442
 10
72.603
 20
36.455
 10
72.541
 20
36.476
 10
72.482
 20
36.505
 10
72.428
 20
36.541
 10
72.378
 20
36.584
 10
72.335
 20
36.634
 10
72.299
 20
36.688
 10
72.27
 20
36.747
 10
72.249
 20
36.809
 10
72.236
 20
36.873
 10
72.232
 20
36.938
 10
72.236
 20
37.003
 10
72.249
 20
37.067
 10
72.27
 20
37.129
 10
72.299
 20
37.188
 10
72.335
 20
37.242
 10
72.378
 20
37.292
 10
72.428
 20
37.335
 10
72.482
 20
37.371
 10
72.541
 20
37.4
 10
72.603
 20
37.421
 10
72.667
 20
37.434
 10
72.732
 20
37.438
 10
72.797
 20
37.434
 10
72.861
 20
37.421
 10
72.923
 20
37.4
 10
72.982
 20
37.371
 10
73.036
 20
37.335
 10
73.086
 20
37.292
 10
73.129
 20
37.242
 10
73.165
 20
37.188
 10
73.194
 20
37.129
 10
73.215
 20
37.067
 10
73.228
 20
37.003
 97
0
 75
0
 76
1
 98
0
  0
HATCH
  5
A3
330
17
100
AcDbEntity
  8
RASTER
 62
7
100
AcDbHatch
 10
0.0
 20
0.0
 30
0.0
210
0.0
220
0.0
230
1.0
  2
SOLID
 70
1
 71
0
 91
1
 92
3
 72
0
 73
1
 93
48
 10
108.864
 20
36.938
 10
108.86
 20
36.873
 10
108.847
 20
36.809
 10
108.826
 20
36.747
 10
108.797
 20
36.688
 10
108.761
 20
36.634
 10
108.718
 20
36.584
 10
108.668
 20
36.541
 10
108.614
 20
36.505
 10
108.555
 20
36.476
 10
108.493
 20
36.455
 10
108.429
 20
36.442
 10
108.364
 20
36.438
 10
108.299
 20
36.442
 10
108.235
 20
36.455
 10
108.173
 20
36.476
 10
108.114
 20
36.505
 10
108.06
 20
36.541
 10
108.01
 20
36.584
 10
107.967
 20
36.634
 10
107.931
 20
36.688
 10
107.902
 20
36.747
 10
107.881
 20
36.809
 10
107.868
 20
36.873
 10
107.864
 20
36.938
 10
107.868
 20
37.003
 10
107.881
 20
37.067
 10
107.902
 20
37.129
 10
107.931
 20
37.188
 10
107.967
 20
37.242
 10
108.01
 20
37.292
 10
108.06
 20
37.335
 10
108.114
 20
37.371
 10
108.173
 20
37.4
 10
108.235
 20
37.421
 10
108.299
 20
37.434
 10
108.364
 20
37.438
 10
108.429
 20
37.434
 10
108.493
 20
37.421
 10
108.555
 20
37.4
 10
108.614
 20
37.371
 10
108.668
 20
37.335
 10
108.718
 20
37.292
 10
108.761
 20
37.242
 10
108.797
 20
37.188
 10
108.826
 20
37.129
 10
108.847
 20
37.067
 10
108.86
 20
37.003
 97
0
 75
0
 76
1
 98
0
  0
LWPOLYLINE
  5
A4
330
17
100
AcDbEntity
  8
CUT
100
AcDbPolyline
 90
20
 70
1
 10
125.124
 20
43.128
 10
158.092
 20
43.128
 10
158.092
 20
40.828
 10
161.192
 20
40.828
 10
161.192
 20
38.448
 10
158.092
 20
38.448
 10
158.092
 20
36.148
 10
151.514
 20
36.148
 10
151.514
 20
33.048
 10
144.857
 20
33.048
 10
144.857
 20
36.148
 10
138.359
 20
36.148
 10
138.359
 20
33.048
 10
131.702
 20
33.048
 10
131.702
 20
36.148
 10
125.124
 20
36.148
 10
125.124
 20
38.448
 10
122.024
 20
38.448
 10
122.024
 20
40.828
 10
125.124
 20
40.828
  0
LWPOLYLINE
  5
A5
330
17
100
AcDbEntity
  8
CUT
100
AcDbPolyline
 90
4
 70
1
 10
130.204
 20
40.698
 10
153.012
 20
40.698
 10
153.012
 20
38.578
 10
130.204
 20
38.578
  0
HATCH
  5
A6
330
17
100
AcDbEntity
  8
RASTER
 62
7
100
AcDbHatch
 10
0.0
 20
0.0
 30
0.0
210
0.0
220
0.0
230
1.0
  2
SOLID
 70
1
 71
0
 91
1
 92
3
 72
0
 73
1
 93
4
 10
125.764
 20
42.688
 10
129.564
 20
42.688
 10
129.564
 20
36.588
 10
125.764
 20
36.588
 97
0
 75
0
 76
1
 98
0
  0
HATCH
  5
A7
330
17
100
AcDbEntity
  8
RASTER
 62
7
100
AcDbHatch
 10
0.0
 20
0.0
 30
0.0
210
0.0
220
0.0
230
1.0
  2
SOLID
 70
1
 71
0
 91
1
 92
3
 72
0
 73
1
 93
4
 10
153.652
 20
42.688
 10
157.452
 20
42.688
 10
157.452
 20
36.588
 10
153.652
 20
36.588
 97
0
 75
0
 76
1
 98
0
  0
HATCH
  5
A8
330
17
100
AcDbEntity
  8
RASTER
 62
7
100
AcDbHatch
 10
0.0
 20
0.0
 30
0.0
210
0.0
220
0.0
230
1.0
  2
SOLID
 70
1
 71
0
 91
1
 92
3
 72
0
 73
1
 93
48
 10
132.264
 20
42.338
 10
132.26
 20
42.273
 10
132.247
 20
42.209
 10
132.226
 20
42.147
 10
132.197
 20
42.088
 10
132.161
 20
42.034
 10
132.118
 20
41.984
 10
132.068
 20
41.941
 10
132.014
 20
41.905
 10
131.955
 20
41.876
 10
131.893
 20
41.855
 10
131.829
 20
41.842
 10
131.764
 20
41.838
 10
131.699
 20
41.842
 10
131.635
 20
41.855
 10
131.573
 20
41.876
 10
131.514
 20
41.905
 10
131.46
 20
41.941
 10
131.41
 20
41.984
 10
131.367
 20
42.034
 10
131.331
 20
42.088
 10
131.302
 20
42.147
 10
131.281
 20
42.209
 10
131.268
 20
42.273
 10
131.264
 20
42.338
 10
131.268
 20
42.403
 10
131.281
 20
42.467
 10
131.302
 20
42.529
 10
131.331
 20
42.588
 10
131.367
 20
42.642
 10
131.41
 20
42.692
 10
131.46
 20
42.735
 10
131.514
 20
42.771
 10
131.573
 20
42.8
 10
131.635
 20
42.821
 10
131.699
 20
42.834
 10
131.764
 20
42.838
 10
131.829
 20
42.834
 10
131.893
 20
42.821
 10
131.955
 20
42.8
 10
132.014
 20
42.771
 10
132.068
 20
42.735
 10
132.118
 20
42.692
 10
132.161
 20
42.642
 10
132.197
 20
42.588
 10
132.226
 20
42.529
 10
132.247
 20
42.467
 10
132.26
 20
42.403
 97
0
 75
0
 76
1
 98
0
  0
HATCH
  5
A9
330
17
100
AcDbEntity
  8
RASTER
 62
7
100
AcDbHatch
 10
0.0
 20
0.0
 30
0.0
210
0.0
220
0.0
230
1.0
  2
SOLID
 70
1
 71
0
 91
1
 92
3
 72
0
 73
1
 93
48
 10
151.952
 20
42.338
 10
151.948
 20
42.273
 10
151.935
 20
42.209
 10
151.914
 20
42.147
 10
151.885
 20
42.088
 10
151.849
 20
42.034
 10
151.806
 20
41.984
 10
151.756
 20
41.941
 10
151.702
 20
41.905
 10
151.643
 20
41.876
 10
151.581
 20
41.855
 10
151.517
 20
41.842
 10
151.452
 20
41.838
 10
151.387
 20
41.842
 10
151.323
 20
41.855
 10
151.261
 20
41.876
 10
151.202
 20
41.905
 10
151.148
 20
41.941
 10
151.098
 20
41.984
 10
151.055
 20
42.034
 10
151.019
 20
42.088
 10
150.99
 20
42.147
 10
150.969
 20
42.209
 10
150.956
 20
42.273
 10
150.952
 20
42.338
 10
150.956
 20
42.403
 10
150.969
 20
42.467
 10
150.99
 20
42.529
 10
151.019
 20
42.588
 10
151.055
 20
42.642
 10
151.098
 20
42.692
 10
151.148
 20
42.735
 10
151.202
 20
42.771
 10
151.261
 20
42.8
 10
151.323
 20
42.821
 10
151.387
 20
42.834
 10
151.452
 20
42.838
 10
151.517
 20
42.834
 10
151.581
 20
42.821
 10
151.643
 20
42.8
 10
151.702
 20
42.771
 10
151.756
 20
42.735
 10
151.806
 20
42.692
 10
151.849
 20
42.642
 10
151.885
 20
42.588
 10
151.914
 20
42.529
 10
151.935
 20
42.467
 10
151.948
 20
42.403
 97
0
 75
0
 76
1
 98
0
  0
HATCH
  5
AA
330
17
100
AcDbEntity
  8
RASTER
 62
7
100
AcDbHatch
 10
0.0
 20
0.0
 30
0.0
210
0.0
220
0.0
230
1.0
  2
SOLID
 70
1
 71
0
 91
1
 92
3
 72
0
 73
1
 93
48
 10
132.264
 20
36.938
 10
132.26
 20
36.873
 10
132.247
 20
36.809
 10
132.226
 20
36.747
 10
132.197
 20
36.688
 10
132.161
 20
36.634
 10
132.118
 20
36.584
 10
132.068
 20
36.541
 10
132.014
 20
36.505
 10
131.955
 20
36.476
 10
131.893
 20
36.455
 10
131.829
 20
36.442
 10
131.764
 20
36.438
 10
131.699
 20
36.442
 10
131.635
 20
36.455
 10
131.573
 20
36.476
 10
131.514
 20
36.505
 10
131.46
 20
36.541
 10
131.41
 20
36.584
 10
131.367
 20
36.634
 10
131.331
 20
36.688
 10
131.302
 20
36.747
 10
131.281
 20
36.809
 10
131.268
 20
36.873
 10
131.264
 20
36.938
 10
131.268
 20
37.003
 10
131.281
 20
37.067
 10
131.302
 20
37.129
 10
131.331
 20
37.188
 10
131.367
 20
37.242
 10
131.41
 20
37.292
 10
131.46
 20
37.335
 10
131.514
 20
37.371
 10
131.573
 20
37.4
 10
131.635
 20
37.421
 10
131.699
 20
37.434
 10
131.764
 20
37.438
 10
131.829
 20
37.434
 10
131.893
 20
37.421
 10
131.955
 20
37.4
 10
132.014
 20
37.371
 10
132.068
 20
37.335
 10
132.118
 20
37.292
 10
132.161
 20
37.242
 10
132.197
 20
37.188
 10
132.226
 20
37.129
 10
132.247
 20
37.067
 10
132.26
 20
37.003
 97
0
 75
0
 76
1
 98
0
  0
HATCH
  5
AB
330
17
100
AcDbEntity
  8
RASTER
 62
7
100
AcDbHatch
 10
0.0
 20
0.0
 30
0.0
210
0.0
220
0.0
230
1.0
  2
SOLID
 70
1
 71
0
 91
1
 92
3
 72
0
 73
1
 93
48
 10
151.952
 20
36.938
 10
151.948
 20
36.873
 10
151.935
 20
36.809
 10
151.914
 20
36.747
 10
151.885
 20
36.688
 10
151.849
 20
36.634
 10
151.806
 20
36.584
 10
151.756
 20
36.541
 10
151.702
 20
36.505
 10
151.643
 20
36.476
 10
151.581
 20
36.455
 10
151.517
 20
36.442
 10
151.452
 20
36.438
 10
151.387
 20
36.442
 10
151.323
 20
36.455
 10
151.261
 20
36.476
 10
151.202
 20
36.505
 10
151.148
 20
36.541
 10
151.098
 20
36.584
 10
151.055
 20
36.634
 10
151.019
 20
36.688
 10
150.99
 20
36.747
 10
150.969
 20
36.809
 10
150.956
 20
36.873
 10
150.952
 20
36.938
 10
150.956
 20
37.003
 10
150.969
 20
37.067
 10
150.99
 20
37.129
 10
151.019
 20
37.188
 10
151.055
 20
37.242
 10
151.098
 20
37.292
 10
151.148
 20
37.335
 10
151.202
 20
37.371
 10
151.261
 20
37.4
 10
151.323
 20
37.421
 10
151.387
 20
37.434
 10
151.452
 20
37.438
 10
151.517
 20
37.434
 10
151.581
 20
37.421
 10
151.643
 20
37.4
 10
151.702
 20
37.371
 10
151.756
 20
37.335
 10
151.806
 20
37.292
 10
151.849
 20
37.242
 10
151.885
 20
37.188
 10
151.914
 20
37.129
 10
151.935
 20
37.067
 10
151.948
 20
37.003
 97
0
 75
0
 76
1
 98
0
  0
LWPOLYLINE
  5
AC
330
17
100
AcDbEntity
  8
CUT
100
AcDbPolyline
 90
20
 70
1
 10
168.212
 20
43.128
 10
201.18
 20
43.128
 10
201.18
 20
40.828
 10
204.28
 20
40.828
 10
204.28
 20
38.448
 10
201.18
 20
38.448
 10
201.18
 20
36.148
 10
194.602
 20
36.148
 10
194.602
 20
33.048
 10
187.945
 20
33.048
 10
187.945
 20
36.148
 10
181.447
 20
36.148
 10
181.447
 20
33.048
 10
174.79
 20
33.048
 10
174.79
 20
36.148
 10
168.212
 20
36.148
 10
168.212
 20
38.448
 10
165.112
 20
38.448
 10
165.112
 20
40.828
 10
168.212
 20
40.828
  0
LWPOLYLINE
  5
AD
330
17
100
AcDbEntity
  8
CUT
100
AcDbPolyline
 90
4
 70
1
 10
173.292
 20
40.698
 10
196.1
 20
40.698
 10
196.1
 20
38.578
 10
173.292
 20
38.578
  0
HATCH
  5
AE
330
17
100
AcDbEntity
  8
RASTER
 62
7
100
AcDbHatch
 10
0.0
 20
0.0
 30
0.0
210
0.0
220
0.0
230
1.0
  2
SOLID
 70
1
 71
0
 91
1
 92
3
 72
0
 73
1
 93
4
 10
168.852
 20
42.688
 10
172.652
 20
42.688
 10
172.652
 20
36.588
 10
168.852
 20
36.588
 97
0
 75
0
 76
1
 98
0
  0
HATCH
  5
AF
330
17
100
AcDbEntity
  8
RASTER
 62
7
100
AcDbHatch
 10
0.0
 20
0.0
 30
0.0
210
0.0
220
0.0
230
1.0
  2
SOLID
 70
1
 71
0
 91
1
 92
3
 72
0
 73
1
 93
4
 10
196.74
 20
42.688
 10
200.54
 20
42.688
 10
200.54
 20
36.588
 10
196.74
 20
36.588
 97
0
 75
0
 76
1
 98
0
  0
HATCH
  5
B0
330
17
100
AcDbEntity
  8
RASTER
 62
7
100
AcDbHatch
 10
0.0
 20
0.0
 30
0.0
210
0.0
220
0.0
230
1.0
  2
SOLID
 70
1
 71
0
 91
1
 92
3
 72
0
 73
1
 93
48
 10
175.352
 20
42.338
 10
175.348
 20
42.273
 10
175.335
 20
42.209
 10
175.314
 20
42.147
 10
175.285
 20
42.088
 10
175.249
 20
42.034
 10
175.206
 20
41.984
 10
175.156
 20
41.941
 10
175.102
 20
41.905
 10
175.043
 20
41.876
 10
174.981
 20
41.855
 10
174.917
 20
41.842
 10
174.852
 20
41.838
 10
174.787
 20
41.842
 10
174.723
 20
41.855
 10
174.661
 20
41.876
 10
174.602
 20
41.905
 10
174.548
 20
41.941
 10
174.498
 20
41.984
 10
174.455
 20
42.034
 10
174.419
 20
42.088
 10
174.39
 20
42.147
 10
174.369
 20
42.209
 10
174.356
 20
42.273
 10
174.352
 20
42.338
 10
174.356
 20
42.403
 10
174.369
 20
42.467
 10
174.39
 20
42.529
 10
174.419
 20
42.588
 10
174.455
 20
42.642
 10
174.498
 20
42.692
 10
174.548
 20
42.735
 10
174.602
 20
42.771
 10
174.661
 20
42.8
 10
174.723
 20
42.821
 10
174.787
 20
42.834
 10
174.852
 20
42.838
 10
174.917
 20
42.834
 10
174.981
 20
42.821
 10
175.043
 20
42.8
 10
175.102
 20
42.771
 10
175.156
 20
42.735
 10
175.206
 20
42.692
 10
175.249
 20
42.642
 10
175.285
 20
42.588
 10
175.314
 20
42.529
 10
175.335
 20
42.467
 10
175.348
 20
42.403
 97
0
 75
0
 76
1
 98
0
  0
HATCH
  5
B1
330
17
100
AcDbEntity
  8
RASTER
 62
7
100
AcDbHatch
 10
0.0
 20
0.0
 30
0.0
210
0.0
220
0.0
230
1.0
  2
SOLID
 70
1
 71
0
 91
1
 92
3
 72
0
 73
1
 93
48
 10
195.04
 20
42.338
 10
195.036
 20
42.273
 10
195.023
 20
42.209
 10
195.002
 20
42.147
 10
194.973
 20
42.088
 10
194.937
 20
42.034
 10
194.894
 20
41.984
 10
194.844
 20
41.941
 10
194.79
 20
41.905
 10
194.731
 20
41.876
 10
194.669
 20
41.855
 10
194.605
 20
41.842
 10
194.54
 20
41.838
 10
194.475
 20
41.842
 10
194.411
 20
41.855
 10
194.349
 20
41.876
 10
194.29
 20
41.905
 10
194.236
 20
41.941
 10
194.186
 20
41.984
 10
194.143
 20
42.034
 10
194.107
 20
42.088
 10
194.078
 20
42.147
 10
194.057
 20
42.209
 10
194.044
 20
42.273
 10
194.04
 20
42.338
 10
194.044
 20
42.403
 10
194.057
 20
42.467
 10
194.078
 20
42.529
 10
194.107
 20
42.588
 10
194.143
 20
42.642
 10
194.186
 20
42.692
 10
194.236
 20
42.735
 10
194.29
 20
42.771
 10
194.349
 20
42.8
 10
194.411
 20
42.821
 10
194.475
 20
42.834
 10
194.54
 20
42.838
 10
194.605
 20
42.834
 10
194.669
 20
42.821
 10
194.731
 20
42.8
 10
194.79
 20
42.771
 10
194.844
 20
42.735
 10
194.894
 20
42.692
 10
194.937
 20
42.642
 10
194.973
 20
42.588
 10
195.002
 20
42.529
 10
195.023
 20
42.467
 10
195.036
 20
42.403
 97
0
 75
0
 76
1
 98
0
  0
HATCH
  5
B2
330
17
100
AcDbEntity
  8
RASTER
 62
7
100
AcDbHatch
 10
0.0
 20
0.0
 30
0.0
210
0.0
220
0.0
230
1.0
  2
SOLID
 70
1
 71
0
 91
1
 92
3
 72
0
 73
1
 93
48
 10
175.352
 20
36.938
 10
175.348
 20
36.873
 10
175.335
 20
36.809
 10
175.314
 20
36.747
 10
175.285
 20
36.688
 10
175.249
 20
36.634
 10
175.206
 20
36.584
 10
175.156
 20
36.541
 10
175.102
 20
36.505
 10
175.043
 20
36.476
 10
174.981
 20
36.455
 10
174.917
 20
36.442
 10
174.852
 20
36.438
 10
174.787
 20
36.442
 10
174.723
 20
36.455
 10
174.661
 20
36.476
 10
174.602
 20
36.505
 10
174.548
 20
36.541
 10
174.498
 20
36.584
 10
174.455
 20
36.634
 10
174.419
 20
36.688
 10
174.39
 20
36.747
 10
174.369
 20
36.809
 10
174.356
 20
36.873
 10
174.352
 20
36.938
 10
174.356
 20
37.003
 10
174.369
 20
37.067
 10
174.39
 20
37.129
 10
174.419
 20
37.188
 10
174.455
 20
37.242
 10
174.498
 20
37.292
 10
174.548
 20
37.335
 10
174.602
 20
37.371
 10
174.661
 20
37.4
 10
174.723
 20
37.421
 10
174.787
 20
37.434
 10
174.852
 20
37.438
 10
174.917
 20
37.434
 10
174.981
 20
37.421
 10
175.043
 20
37.4
 10
175.102
 20
37.371
 10
175.156
 20
37.335
 10
175.206
 20
37.292
 10
175.249
 20
37.242
 10
175.285
 20
37.188
 10
175.314
 20
37.129
 10
175.335
 20
37.067
 10
175.348
 20
37.003
 97
0
 75
0
 76
1
 98
0
  0
HATCH
  5
B3
330
17
100
AcDbEntity
  8
RASTER
 62
7
100
AcDbHatch
 10
0.0
 20
0.0
 30
0.0
210
0.0
220
0.0
230
1.0
  2
SOLID
 70
1
 71
0
 91
1
 92
3
 72
0
 73
1
 93
48
 10
195.04
 20
36.938
 10
195.036
 20
36.873
 10
195.023
 20
36.809
 10
195.002
 20
36.747
 10
194.973
 20
36.688
 10
194.937
 20
36.634
 10
194.894
 20
36.584
 10
194.844
 20
36.541
 10
194.79
 20
36.505
 10
194.731
 20
36.476
 10
194.669
 20
36.455
 10
194.605
 20
36.442
 10
194.54
 20
36.438
 10
194.475
 20
36.442
 10
194.411
 20
36.455
 10
194.349
 20
36.476
 10
194.29
 20
36.505
 10
194.236
 20
36.541
 10
194.186
 20
36.584
 10
194.143
 20
36.634
 10
194.107
 20
36.688
 10
194.078
 20
36.747
 10
194.057
 20
36.809
 10
194.044
 20
36.873
 10
194.04
 20
36.938
 10
194.044
 20
37.003
 10
194.057
 20
37.067
 10
194.078
 20
37.129
 10
194.107
 20
37.188
 10
194.143
 20
37.242
 10
194.186
 20
37.292
 10
194.236
 20
37.335
 10
194.29
 20
37.371
 10
194.349
 20
37.4
 10
194.411
 20
37.421
 10
194.475
 20
37.434
 10
194.54
 20
37.438
 10
194.605
 20
37.434
 10
194.669
 20
37.421
 10
194.731
 20
37.4
 10
194.79
 20
37.371
 10
194.844
 20
37.335
 10
194.894
 20
37.292
 10
194.937
 20
37.242
 10
194.973
 20
37.188
 10
195.002
 20
37.129
 10
195.023
 20
37.067
 10
195.036
 20
37.003
 97
0
 75
0
 76
1
 98
0
  0
LWPOLYLINE
  5
B4
330
17
100
AcDbEntity
  8
CUT
100
AcDbPolyline
 90
60
 70
1
 10
208.2
 20
43.128
 10
211.34
 20
43.128
 10
216.806
 20
43.128
 10
216.806
 20
40.028
 10
222.152
 20
40.028
 10
222.152
 20
43.128
 10
227.657
 20
43.128
 10
227.657
 20
40.028
 10
233.003
 20
40.028
 10
233.003
 20
43.128
 10
238.509
 20
43.128
 10
238.509
 20
40.028
 10
243.855
 20
40.028
 10
243.855
 20
43.128
 10
249.36
 20
43.128
 10
249.36
 20
40.028
 10
254.706
 20
40.028
 10
254.706
 20
43.128
 10
260.172
 20
43.128
 10
263.312
 20
43.128
 10
263.312
 20
39.988
 10
263.312
 20
33.37
 10
260.212
 20
33.37
 10
260.212
 20
26.873
 10
263.312
 20
26.873
 10
263.312
 20
20.215
 10
260.212
 20
20.215
 10
260.212
 20
13.718
 10
263.312
 20
13.718
 10
263.312
 20
7.1
 10
263.312
 20
3.96
 10
260.172
 20
3.96
 10
254.706
 20
3.96
 10
254.706
 20
7.06
 10
249.36
 20
7.06
 10
249.36
 20
3.96
 10
243.855
 20
3.96
 10
243.855
 20
7.06
 10
238.509
 20
7.06
 10
238.509
 20
3.96
 10
233.003
 20
3.96
 10
233.003
 20
7.06
 10
227.657
 20
7.06
 10
227.657
 20
3.96
 10
222.152
 20
3.96
 10
222.152
 20
7.06
 10
216.806
 20
7.06
 10
216.806
 20
3.96
 10
211.34
 20
3.96
 10
208.2
 20
3.96
 10
208.2
 20
7.1
 10
208.2
 20
13.718
 10
211.3
 20
13.718
 10
211.3
 20
20.215
 10
208.2
 20
20.215
 10
208.2
 20
26.873
 10
211.3
 20
26.873
 10
211.3
 20
33.37
 10
208.2
 20
33.37
 10
208.2
 20
39.988
  0
ENDSEC
  0
SECTION
  2
OBJECTS
  0
DICTIONARY
  5
A
330
0
100
AcDbDictionary
281
1
  3
ACAD_COLOR
350
B
  3
ACAD_GROUP
350
C
  3
ACAD_LAYOUT
350
D
  3
ACAD_MATERIAL
350
E
  3
ACAD_MLEADERSTYLE
350
F
  3
ACAD_MLINESTYLE
350
10
  3
ACAD_PLOTSETTINGS
350
11
  3
ACAD_PLOTSTYLENAME
350
12
  3
ACAD_SCALELIST
350
14
  3
ACAD_TABLESTYLE
350
15
  3
ACAD_VISUALSTYLE
350
16
  3
EZDXF_META
350
2D
  0
DICTIONARY
  5
B
330
A
100
AcDbDictionary
281
1
  0
DICTIONARY
  5
C
330
A
100
AcDbDictionary
281
1
  0
DICTIONARY
  5
D
330
A
100
AcDbDictionary
281
1
  3
Model
350
1A
  3
Layout1
350
1E
  0
DICTIONARY
  5
E
330
A
100
AcDbDictionary
281
1
  3
ByBlock
350
1F
  3
ByLayer
350
20
  3
Global
350
21
  0
DICTIONARY
  5
F
330
A
100
AcDbDictionary
281
1
  3
Standard
350
2C
  0
DICTIONARY
  5
10
330
A
100
AcDbDictionary
281
1
  3
Standard
350
22
  0
DICTIONARY
  5
11
330
A
100
AcDbDictionary
281
1
  0
ACDBDICTIONARYWDFLT
  5
12
330
A
100
AcDbDictionary
281
1
  3
Normal
350
13
100
AcDbDictionaryWithDefault
340
13
  0
ACDBPLACEHOLDER
  5
13
330
12
  0
DICTIONARY
  5
14
330
A
100
AcDbDictionary
281
1
  0
DICTIONARY
  5
15
330
A
100
AcDbDictionary
281
1
  0
DICTIONARY
  5
16
330
A
100
AcDbDictionary
281
1
  0
LAYOUT
  5
1A
330
D
100
AcDbPlotSettings
  1

  4
A3
  6

 40
7.5
 41
20.0
 42
7.5
 43
20.0
 44
420.0
 45
297.0
 46
0.0
 47
0.0
 48
0.0
 49
0.0
140
0.0
141
0.0
142
1.0
143
1.0
 70
1024
 72
1
 73
0
 74
5
  7

 75
16
 76
0
 77
2
 78
300
147
1.0
148
0.0
149
0.0
100
AcDbLayout
  1
Model
 70
1
 71
0
 10
0.0
 20
0.0
 11
420.0
 21
297.0
 12
0.0
 22
0.0
 32
0.0
 14
1e+20
 24
1e+20
 34
1e+20
 15
-1e+20
 25
-1e+20
 35
-1e+20
146
0.0
 13
0.0
 23
0.0
 33
0.0
 16
1.0
 26
0.0
 36
0.0
 17
0.0
 27
1.0
 37
0.0
 76
1
330
17
  0
LAYOUT
  5
1E
330
D
100
AcDbPlotSettings
  1

  4
A3
  6

 40
7.5
 41
20.0
 42
7.5
 43
20.0
 44
420.0
 45
297.0
 46
0.0
 47
0.0
 48
0.0
 49
0.0
140
0.0
141
0.0
142
1.0
143
1.0
 70
0
 72
1
 73
0
 74
5
  7

 75
16
 76
0
 77
2
 78
300
147
1.0
148
0.0
149
0.0
100
AcDbLayout
  1
Layout1
 70
1
 71
1
 10
0.0
 20
0.0
 11
420.0
 21
297.0
 12
0.0
 22
0.0
 32
0.0
 14
1e+20
 24
1e+20
 34
1e+20
 15
-1e+20
 25
-1e+20
 35
-1e+20
146
0.0
 13
0.0
 23
0.0
 33
0.0
 16
1.0
 26
0.0
 36
0.0
 17
0.0
 27
1.0
 37
0.0
 76
1
330
1B
  0
MATERIAL
  5
1F
102
{ACAD_REACTORS
330
E
102
}
330
E
100
AcDbMaterial
  1
ByBlock
  2

 70
0
 40
1.0
 71
1
 41
1.0
 91
-1023410177
 42
1.0
 72
1
  3

 73
1
 74
1
 75
1
 44
0.5
 73
0
 45
1.0
 46
1.0
 77
1
  4

 78
1
 79
1
170
1
 48
1.0
171
1
  6

172
1
173
1
174
1
140
1.0
141
1.0
175
1
  7

176
1
177
1
178
1
143
1.0
179
1
  8

270
1
271
1
272
1
145
1.0
146
1.0
273
1
  9

274
1
275
1
276
1
 42
1.0
 72
1
  3

 73
1
 74
1
 75
1
 94
63
  0
MATERIAL
  5
20
102
{ACAD_REACTORS
330
E
102
}
330
E
100
AcDbMaterial
  1
ByLayer
  2

 70
0
 40
1.0
 71
1
 41
1.0
 91
-1023410177
 42
1.0
 72
1
  3

 73
1
 74
1
 75
1
 44
0.5
 73
0
 45
1.0
 46
1.0
 77
1
  4

 78
1
 79
1
170
1
 48
1.0
171
1
  6

172
1
173
1
174
1
140
1.0
141
1.0
175
1
  7

176
1
177
1
178
1
143
1.0
179
1
  8

270
1
271
1
272
1
145
1.0
146
1.0
273
1
  9

274
1
275
1
276
1
 42
1.0
 72
1
  3

 73
1
 74
1
 75
1
 94
63
  0
MATERIAL
  5
21
102
{ACAD_REACTORS
330
E
102
}
330
E
100
AcDbMaterial
  1
Global
  2

 70
0
 40
1.0
 71
1
 41
1.0
 91
-1023410177
 42
1.0
 72
1
  3

 73
1
 74
1
 75
1
 44
0.5
 73
0
 45
1.0
 46
1.0
 77
1
  4

 78
1
 79
1
170
1
 48
1.0
171
1
  6

172
1
173
1
174
1
140
1.0
141
1.0
175
1
  7

176
1
177
1
178
1
143
1.0
179
1
  8

270
1
271
1
272
1
145
1.0
146
1.0
273
1
  9

274
1
275
1
276
1
 42
1.0
 72
1
  3

 73
1
 74
1
 75
1
 94
63
  0
MLINESTYLE
  5
22
102
{ACAD_REACTORS
330
10
102
}
330
10
100
AcDbMlineStyle
  2
Standard
 70
0
  3

 62
256
 51
90.0
 52
90.0
 71
2
 49
0.5
 62
256
  6
BYLAYER
 49
-0.5
 62
256
  6
BYLAYER
  0
MLEADERSTYLE
  5
2C
102
{ACAD_REACTORS
330
F
102
}
330
F
100
AcDbMLeaderStyle
179
2
170
2
171
1
172
0
 90
2
 40
0.0
 41
0.0
173
1
 91
-1056964608
 92
-2
290
1
 42
2.0
291
1
 43
8.0
  3
Standard
 44
4.0
300

342
29
174
1
175
1
176
0
178
1
 93
-1056964608
 45
4.0
292
0
297
0
 46
4.0
 94
-1056964608
 47
1.0
 49
1.0
140
1.0
294
1
141
0.0
177
0
142
1.0
295
0
296
0
143
3.75
271
0
272
9
273
9
  0
DICTIONARY
  5
2D
330
A
100
AcDbDictionary
280
1
281
1
  3
CREATED_BY_EZDXF
350
2E
  3
WRITTEN_BY_EZDXF
350
B7
  0
DICTIONARYVAR
  5
2E
330
2D
100
DictionaryVariables
280
0
  1
1.4.2 @ 2026-09-12T14:09:05.240136+00:00
  0
DICTIONARYVAR
  5
B7
330
2D
100
DictionaryVariables
280
0
  1
1.4.2 @ 2026-09-12T14:09:05.247804+00:00
  0
ENDSEC
  0
EOF
