  0
SECTION
  2
HEADER
  9
$ACADVER
  1
AC1015
  9
$ACADMAINTVER
 70
6
  9
$DWGCODEPAGE
  3
ANSI_1252
  9
$INSBASE
 10
0.0
 20
0.0
 30
0.0
  9
$EXTMIN
 10
1e+20
 20
1e+20
 30
1e+20
  9
$EXTMAX
 10
-1e+20
 20
-1e+20
 30
-1e+20
  9
$LIMMIN
 10
0.0
 20
0.0
  9
$LIMMAX
 10
420.0
 20
297.0
  9
$ORTHOMODE
 70
0
  9
$REGENMODE
 70
1
  9
$FILLMODE
 70
1
  9
$QTEXTMODE
 70
0
  9
$MIRRTEXT
 70
1
  9
$LTSCALE
 40
1.0
  9
$ATTMODE
 70
1
  9
$TEXTSIZE
 40
2.5
  9
$TRACEWID
 40
1.0
  9
$TEXTSTYLE
  7
Standard
  9
$CLAYER
  8
0
  9
$CELTYPE
  6
ByLayer
  9
$CECOLOR
 62
256
  9
$CELTSCALE
 40
1.0
  9
$DISPSILH
 70
0
  9
$DIMSCALE
 40
1.0
  9
$DIMASZ
 40
2.5
  9
$DIMEXO
 40
0.625
  9
$DIMDLI
 40
3.75
  9
$DIMRND
 40
0.0
  9
$DIMDLE
 40
0.0
  9
$DIMEXE
 40
1.25
  9
$DIMTP
 40
0.0
  9
$DIMTM
 40
0.0
  9
$DIMTXT
 40
2.5
  9
$DIMCEN
 40
2.5
  9
$DIMTSZ
 40
0.0
  9
$DIMTOL
 70
0
  9
$DIMLIM
 70
0
  9
$DIMTIH
 70
0
  9
$DIMTOH
 70
0
  9
$DIMSE1
 70
0
  9
$DIMSE2
 70
0
  9
$DIMTAD
 70
1
  9
$DIMZIN
 70
8
  9
$DIMBLK
  1

  9
$DIMASO
 70
1
  9
$DIMSHO
 70
1
  9
$DIMPOST
  1

  9
$DIMAPOST
  1

  9
$DIMALT
 70
0
  9
$DIMALTD
 70
3
  9
$DIMALTF
 40
0.03937007874
  9
$DIMLFAC
 40
1.0
  9
$DIMTOFL
 70
1
  9
$DIMTVP
 40
0.0
  9
$DIMTIX
 70
0
  9
$DIMSOXD
 70
0
  9
$DIMSAH
 70
0
  9
$DIMBLK1
  1

  9
$DIMBLK2
  1

  9
$DIMSTYLE
  2
ISO-25
  9
$DIMCLRD
 70
0
  9
$DIMCLRE
 70
0
  9
$DIMCLRT
 70
0
  9
$DIMTFAC
 40
1.0
  9
$DIMGAP
 40
0.625
  9
$DIMJUST
 70
0
  9
$DIMSD1
 70
0
  9
$DIMSD2
 70
0
  9
$DIMTOLJ
 70
0
  9
$DIMTZIN
 70
8
  9
$DIMALTZ
 70
0
  9
$DIMALTTZ
 70
0
  9
$DIMUPT
 70
0
  9
$DIMDEC
 70
2
  9
$DIMTDEC
 70
2
  9
$DIMALTU
 70
2
  9
$DIMALTTD
 70
3
  9
$DIMTXSTY
  7
Standard
  9
$DIMAUNIT
 70
0
  9
$DIMADEC
 70
0
  9
$DIMALTRND
 40
0.0
  9
$DIMAZIN
 70
0
  9
$DIMDSEP
 70
44
  9
$DIMATFIT
 70
3
  9
$DIMFRAC
 70
0
  9
$DIMLDRBLK
  1

  9
$DIMLUNIT
 70
2
  9
$DIMLWD
 70
-2
  9
$DIMLWE
 70
-2
  9
$DIMTMOVE
 70
0
  9
$LUNITS
 70
2
  9
$LUPREC
 70
4
  9
$SKETCHINC
 40
1.0
  9
$FILLETRAD
 40
10.0
  9
$AUNITS
 70
0
  9
$AUPREC
 70
2
  9
$MENU
  1
.
  9
$ELEVATION
 40
0.0
  9
$PELEVATION
 40
0.0
  9
$THICKNESS
 40
0.0
  9
$LIMCHECK
 70
0
  9
$CHAMFERA
 40
0.0
  9
$CHAMFERB
 40
0.0
  9
$CHAMFERC
 40
0.0
  9
$CHAMFERD
 40
0.0
  9
$SKPOLY
 70
0
  9
$TDCREATE
 40
2461278.544363426
  9
$TDUCREATE
 40
2458532.153996898
  9
$TDUPDATE
 40
2461278.544363426
  9
$TDUUPDATE
 40
2458532.1544311
  9
$TDINDWG
 40
0.0
  9
$TDUSRTIMER
 40
0.0
  9
$USRTIMER
 70
1
  9
$ANGBASE
 50
0.0
  9
$ANGDIR
 70
0
  9
$PDMODE
 70
0
  9
$PDSIZE
 40
0.0
  9
$PLINEWID
 40
0.0
  9
$SPLFRAME
 70
0
  9
$SPLINETYPE
 70
6
  9
$SPLINESEGS
 70
8
  9
$HANDSEED
  5
E8
  9
$SURFTAB1
 70
6
  9
$SURFTAB2
 70
6
  9
$SURFTYPE
 70
6
  9
$SURFU
 70
6
  9
$SURFV
 70
6
  9
$UCSBASE
  2

  9
$UCSNAME
  2

  9
$UCSORG
 10
0.0
 20
0.0
 30
0.0
  9
$UCSXDIR
 10
1.0
 20
0.0
 30
0.0
  9
$UCSYDIR
 10
0.0
 20
1.0
 30
0.0
  9
$UCSORTHOREF
  2

  9
$UCSORTHOVIEW
 70
0
  9
$UCSORGTOP
 10
0.0
 20
0.0
 30
0.0
  9
$UCSORGBOTTOM
 10
0.0
 20
0.0
 30
0.0
  9
$UCSORGLEFT
 10
0.0
 20
0.0
 30
0.0
  9
$UCSORGRIGHT
 10
0.0
 20
0.0
 30
0.0
  9
$UCSORGFRONT
 10
0.0
 20
0.0
 30
0.0
  9
$UCSORGBACK
 10
0.0
 20
0.0
 30
0.0
  9
$PUCSBASE
  2

  9
$PUCSNAME
  2

  9
$PUCSORG
 10
0.0
 20
0.0
 30
0.0
  9
$PUCSXDIR
 10
1.0
 20
0.0
 30
0.0
  9
$PUCSYDIR
 10
0.0
 20
1.0
 30
0.0
  9
$PUCSORTHOREF
  2

  9
$PUCSORTHOVIEW
 70
0
  9
$PUCSORGTOP
 10
0.0
 20
0.0
 30
0.0
  9
$PUCSORGBOTTOM
 10
0.0
 20
0.0
 30
0.0
  9
$PUCSORGLEFT
 10
0.0
 20
0.0
 30
0.0
  9
$PUCSORGRIGHT
 10
0.0
 20
0.0
 30
0.0
  9
$PUCSORGFRONT
 10
0.0
 20
0.0
 30
0.0
  9
$PUCSORGBACK
 10
0.0
 20
0.0
 30
0.0
  9
$USERI1
 70
0
  9
$USERI2
 70
0
  9
$USERI3
 70
0
  9
$USERI4
 70
0
  9
$USERI5
 70
0
  9
$USERR1
 40
0.0
  9
$USERR2
 40
0.0
  9
$USERR3
 40
0.0
  9
$USERR4
 40
0.0
  9
$USERR5
 40
0.0
  9
$WORLDVIEW
 70
1
  9
$SHADEDGE
 70
3
  9
$SHADEDIF
 70
70
  9
$TILEMODE
 70
1
  9
$MAXACTVP
 70
64
  9
$PINSBASE
 10
0.0
 20
0.0
 30
0.0
  9
$PLIMCHECK
 70
0
  9
$PEXTMIN
 10
1e+20
 20
1e+20
 30
1e+20
  9
$PEXTMAX
 10
-1e+20
 20
-1e+20
 30
-1e+20
  9
$PLIMMIN
 10
0.0
 20
0.0
  9
$PLIMMAX
 10
420.0
 20
297.0
  9
$UNITMODE
 70
0
  9
$VISRETAIN
 70
1
  9
$PLINEGEN
 70
0
  9
$PSLTSCALE
 70
1
  9
$TREEDEPTH
 70
3020
  9
$CMLSTYLE
  2
Standard
  9
$CMLJUST
 70
0
  9
$CMLSCALE
 40
20.0
  9
$PROXYGRAPHICS
 70
1
  9
$MEASUREMENT
 70
1
  9
$CELWEIGHT
370
-1
  9
$ENDCAPS
280
0
  9
$JOINSTYLE
280
0
  9
$LWDISPLAY
290
0
  9
$INSUNITS
 70
4
  9
$HYPERLINKBASE
  1

  9
$STYLESHEET
  1

  9
$XEDIT
290
1
  9
$CEPSNTYPE
380
0
  9
$PSTYLEMODE
290
1
  9
$FINGERPRINTGUID
  2
{67A31318-D75C-4BEA-8454-6DE7C75FF993}
  9
$VERSIONGUID
  2
{73E94AA6-5BC4-435F-B8EB-D15BCEDD7EA9}
  9
$EXTNAMES
290
1
  9
$PSVPSCALE
 40
0.0
  9
$OLESTARTUP
290
0
  0
ENDSEC
  0
SECTION
  2
CLASSES
  0
CLASS
  1
ACDBDICTIONARYWDFLT
  2
AcDbDictionaryWithDefault
  3
ObjectDBX Classes
 90
0
280
0
281
0
  0
CLASS
  1
SUN
  2
AcDbSun
  3
SCENEOE
 90
1153
280
0
281
0
  0
CLASS
  1
VISUALSTYLE
  2
AcDbVisualStyle
  3
ObjectDBX Classes
 90
4095
280
0
281
0
  0
CLASS
  1
MATERIAL
  2
AcDbMaterial
  3
ObjectDBX Classes
 90
1153
280
0
281
0
  0
CLASS
  1
SCALE
  2
AcDbScale
  3
ObjectDBX Classes
 90
1153
280
0
281
0
  0
CLASS
  1
TABLESTYLE
  2
AcDbTableStyle
  3
ObjectDBX Classes
 90
4095
280
0
281
0
  0
CLASS
  1
MLEADERSTYLE
  2
AcDbMLeaderStyle
  3
ACDB_MLEADERSTYLE_CLASS
 90
4095
280
0
281
0
  0
CLASS
  1
DICTIONARYVAR
  2
AcDbDictionaryVar
  3
ObjectDBX Classes
 90
0
280
0
281
0
  0
CLASS
  1
CELLSTYLEMAP
  2
AcDbCellStyleMap
  3
ObjectDBX Classes
 90
1152
280
0
281
0
  0
CLASS
  1
MENTALRAYRENDERSETTINGS
  2
AcDbMentalRayRenderSettings
  3
SCENEOE
 90
1024
280
0
281
0
  0
CLASS
  1
ACDBDETAILVIEWSTYLE
  2
AcDbDetailViewStyle
  3
ObjectDBX Classes
 90
1025
280
0
281
0
  0
CLASS
  1
ACDBSECTIONVIEWSTYLE
  2
AcDbSectionViewStyle
  3
ObjectDBX Classes
 90
1025
280
0
281
0
  0
CLASS
  1
RASTERVARIABLES
  2
AcDbRasterVariables
  3
ISM
 90
0
280
0
281
0
  0
CLASS
  1
ACDBPLACEHOLDER
  2
AcDbPlaceHolder
  3
ObjectDBX Classes
 90
0
280
0
281
0
  0
CLASS
  1
LAYOUT
  2
AcDbLayout
  3
ObjectDBX Classes
 90
0
280
0
281
0
  0
ENDSEC
  0
SECTION
  2
TABLES
  0
TABLE
  2
VPORT
  5
8
330
0
100
AcDbSymbolTable
 70
1
  0
VPORT
  5
23
330
8
100
AcDbSymbolTableRecord
100
AcDbViewportTableRecord
  2
*Active
 70
0
 10
0.0
 20
0.0
 11
1.0
 21
1.0
 12
0.0
 22
0.0
 13
0.0
 23
0.0
 14
0.5
 24
0.5
 15
0.5
 25
0.5
 16
0.0
 26
0.0
 36
1.0
 17
0.0
 27
0.0
 37
0.0
 40
1000.0
 41
1.34
 42
50.0
 43
0.0
 44
0.0
 50
0.0
 51
0.0
 71
0
 72
1000
 73
1
 74
3
 75
0
 76
0
 77
0
 78
0
281
0
 65
0
146
0.0
  0
ENDTAB
  0
TABLE
  2
LTYPE
  5
2
330
0
100
AcDbSymbolTable
 70
3
  0
LTYPE
  5
24
330
2
100
AcDbSymbolTableRecord
100
AcDbLinetypeTableRecord
  2
ByBlock
 70
0
  3

 72
65
 73
0
 40
0.0
  0
LTYPE
  5
25
330
2
100
AcDbSymbolTableRecord
100
AcDbLinetypeTableRecord
  2
ByLayer
 70
0
  3

 72
65
 73
0
 40
0.0
  0
LTYPE
  5
26
330
2
100
AcDbSymbolTableRecord
100
AcDbLinetypeTableRecord
  2
Continuous
 70
0
  3

 72
65
 73
0
 40
0.0
  0
ENDTAB
  0
TABLE
  2
LAYER
  5
1
330
0
100
AcDbSymbolTable
 70
4
  0
LAYER
  5
27
330
1
100
AcDbSymbolTableRecord
100
AcDbLayerTableRecord
  2
0
 70
0
 62
7
  6
Continuous
370
-3
390
13
  0
LAYER
  5
28
330
1
100
AcDbSymbolTableRecord
100
AcDbLayerTableRecord
  2
Defpoints
 70
0
 62
7
  6
Continuous
290
0
370
-3
390
13
  0
LAYER
  5
2F
330
1
100
AcDbSymbolTableRecord
100
AcDbLayerTableRecord
  2
CUT
 70
0
 62
1
  6
Continuous
370
-3
390
13
  0
LAYER
  5
30
330
1
100
AcDbSymbolTableRecord
100
AcDbLayerTableRecord
  2
RASTER
 70
0
 62
7
  6
Continuous
370
-3
390
13
  0
ENDTAB
  0
TABLE
  2
STYLE
  5
5
330
0
100
AcDbSymbolTable
 70
1
  0
STYLE
  5
29
330
5
100
AcDbSymbolTableRecord
100
AcDbTextStyleTableRecord
  2
Standard
 70
0
 40
0.0
 41
1.0
 50
0.0
 71
0
 42
2.5
  3
txt
  4

  0
ENDTAB
  0
TABLE
  2
VIEW
  5
7
330
0
100
AcDbSymbolTable
 70
0
  0
ENDTAB
  0
TABLE
  2
UCS
  5
6
330
0
100
AcDbSymbolTable
 70
0
  0
ENDTAB
  0
TABLE
  2
APPID
  5
3
330
0
100
AcDbSymbolTable
 70
3
  0
APPID
  5
2A
330
3
100
AcDbSymbolTableRecord
100
AcDbRegAppTableRecord
  2
ACAD
 70
0
  0
APPID
  5
E5
330
3
100
AcDbSymbolTableRecord
100
AcDbRegAppTableRecord
  2
HATCHBACKGROUNDCOLOR
 70
0
  0
APPID
  5
E6
330
3
100
AcDbSymbolTableRecord
100
AcDbRegAppTableRecord
  2
EZDXF
 70
0
  0
ENDTAB
  0
TABLE
  2
DIMSTYLE
  5
4
330
0
100
AcDbSymbolTable
 70
1
100
AcDbDimStyleTable
  0
DIMSTYLE
105
2B
330
4
100
AcDbSymbolTableRecord
100
AcDbDimStyleTableRecord
  2
Standard
 70
0
  3

  4

 40
1.0
 41
2.5
 42
0.625
 43
3.75
 44
1.25
 45
0.0
 46
0.0
 47
0.0
 48
0.0
140
2.5
141
2.5
142
0.0
143
0.03937007874
144
1.0
145
0.0
146
1.0
147
0.625
148
0.0
 71
0
 72
0
 73
0
 74
0
 75
0
 76
0
 77
1
 78
8
 79
3
170
0
171
3
172
1
173
0
174
0
175
0
176
0
177
0
178
0
179
2
271
2
272
2
273
2
274
3
275
0
276
0
277
2
278
44
279
0
280
0
281
0
282
0
283
0
284
8
285
0
286
0
288
0
289
3
371
-2
372
-2
  0
ENDTAB
  0
TABLE
  2
BLOCK_RECORD
  5
9
330
0
100
AcDbSymbolTable
 70
2
  0
BLOCK_RECORD
  5
17
330
9
100
AcDbSymbolTableRecord
100
AcDbBlockTableRecord
  2
*Model_Space
340
1A
  0
BLOCK_RECORD
  5
1B
330
9
100
AcDbSymbolTableRecord
100
AcDbBlockTableRecord
  2
*Paper_Space
340
1E
  0
ENDTAB
  0
ENDSEC
  0
SECTION
  2
BLOCKS
  0
BLOCK
  5
18
330
17
100
AcDbEntity
  8
0
100
AcDbBlockBegin
  2
*Model_Space
 70
0
 10
0.0
 20
0.0
 30
0.0
  3
*Model_Space
  1

  0
ENDBLK
  5
19
330
17
100
AcDbEntity
  8
0
100
AcDbBlockEnd
  0
BLOCK
  5
1C
330
1B
100
AcDbEntity
  8
0
100
AcDbBlockBegin
  2
*Paper_Space
 70
0
 10
0.0
 20
0.0
 30
0.0
  3
*Paper_Space
  1

  0
ENDBLK
  5
1D
330
1B
100
AcDbEntity
  8
0
100
AcDbBlockEnd
  0
ENDSEC
  0
SECTION
  2
ENTITIES
  0
LWPOLYLINE
  5
31
330
17
100
AcDbEntity
  8
CUT
100
AcDbPolyline
 90
28
 70
1
 10
7.0
 20
102.09
 10
45.0
 20
102.09
 10
48.09
 20
102.09
 10
48.09
 20
96.91
 10
45.09
 20
96.91
 10
45.09
 20
92.09
 10
48.09
 20
92.09
 10
48.09
 20
86.91
 10
45.0
 20
86.91
 10
39.661
 20
86.91
 10
39.661
 20
83.91
 10
34.053
 20
83.91
 10
34.053
 20
86.91
 10
28.804
 20
86.91
 10
28.804
 20
83.91
 10
23.196
 20
83.91
 10
23.196
 20
86.91
 10
17.947
 20
86.91
 10
17.947
 20
83.91
 10
12.339
 20
83.91
 10
12.339
 20
86.91
 10
7.0
 20
86.91
 10
3.91
 20
86.91
 10
3.91
 20
92.09
 10
6.91
 20
92.09
 10
6.91
 20
96.91
 10
3.91
 20
96.91
 10
3.91
 20
102.09
  0
LWPOLYLINE
  5
32
330
17
100
AcDbEntity
  8
CUT
100
AcDbPolyline
 90
4
 70
1
 10
11.09
 20
97.677
 10
40.91
 20
97.677
 10
40.91
 20
96.457
 10
11.09
 20
96.457
  0
LWPOLYLINE
  5
33
330
17
100
AcDbEntity
  8
CUT
100
AcDbPolyline
 90
4
 70
1
 10
11.09
 20
92.543
 10
40.91
 20
92.543
 10
40.91
 20
91.323
 10
11.09
 20
91.323
  0
HATCH
  5
34
330
17
100
AcDbEntity
  8
RASTER
 62
7
100
AcDbHatch
 10
0.0
 20
0.0
 30
0.0
210
0.0
220
0.0
230
1.0
  2
SOLID
 70
1
 71
0
 91
1
 92
3
 72
0
 73
1
 93
4
 10
7.6
 20
101.6
 10
10.4
 20
101.6
 10
10.4
 20
87.4
 10
7.6
 20
87.4
 97
0
 75
0
 76
1
 98
0
  0
HATCH
  5
35
330
17
100
AcDbEntity
  8
RASTER
 62
7
100
AcDbHatch
 10
0.0
 20
0.0
 30
0.0
210
0.0
220
0.0
230
1.0
  2
SOLID
 70
1
 71
0
 91
1
 92
3
 72
0
 73
1
 93
4
 10
41.6
 20
101.6
 10
44.4
 20
101.6
 10
44.4
 20
87.4
 10
41.6
 20
87.4
 97
0
 75
0
 76
1
 98
0
  0
HATCH
  5
36
330
17
100
AcDbEntity
  8
RASTER
 62
7
100
AcDbHatch
 10
0.0
 20
0.0
 30
0.0
210
0.0
220
0.0
230
1.0
  2
SOLID
 70
1
 71
0
 91
1
 92
3
 72
0
 73
1
 93
48
 10
13.1
 20
99.633
 10
13.096
 20
99.568
 10
13.083
 20
99.504
 10
13.062
 20
99.442
 10
13.033
 20
99.383
 10
12.997
 20
99.329
 10
12.954
 20
99.28
 10
12.904
 20
99.237
 10
12.85
 20
99.2
 10
12.791
 20
99.171
 10
12.729
 20
99.15
 10
12.665
 20
99.138
 10
12.6
 20
99.133
 10
12.535
 20
99.138
 10
12.471
 20
99.15
 10
12.409
 20
99.171
 10
12.35
 20
99.2
 10
12.296
 20
99.237
 10
12.246
 20
99.28
 10
12.203
 20
99.329
 10
12.167
 20
99.383
 10
12.138
 20
99.442
 10
12.117
 20
99.504
 10
12.104
 20
99.568
 10
12.1
 20
99.633
 10
12.104
 20
99.699
 10
12.117
 20
99.763
 10
12.138
 20
99.825
 10
12.167
 20
99.883
 10
12.203
 20
99.938
 10
12.246
 20
99.987
 10
12.296
 20
100.03
 10
12.35
 20
100.066
 10
12.409
 20
100.095
 10
12.471
 20
100.116
 10
12.535
 20
100.129
 10
12.6
 20
100.133
 10
12.665
 20
100.129
 10
12.729
 20
100.116
 10
12.791
 20
100.095
 10
12.85
 20
100.066
 10
12.904
 20
100.03
 10
12.954
 20
99.987
 10
12.997
 20
99.938
 10
13.033
 20
99.883
 10
13.062
 20
99.825
 10
13.083
 20
99.763
 10
13.096
 20
99.699
 97
0
 75
0
 76
1
 98
0
  0
HATCH
  5
37
330
17
100
AcDbEntity
  8
RASTER
 62
7
100
AcDbHatch
 10
0.0
 20
0.0
 30
0.0
210
0.0
220
0.0
230
1.0
  2
SOLID
 70
1
 71
0
 91
1
 92
3
 72
0
 73
1
 93
48
 10
39.9
 20
99.633
 10
39.896
 20
99.568
 10
39.883
 20
99.504
 10
39.862
 20
99.442
 10
39.833
 20
99.383
 10
39.797
 20
99.329
 10
39.754
 20
99.28
 10
39.704
 20
99.237
 10
39.65
 20
99.2
 10
39.591
 20
99.171
 10
39.529
 20
99.15
 10
39.465
 20
99.138
 10
39.4
 20
99.133
 10
39.335
 20
99.138
 10
39.271
 20
99.15
 10
39.209
 20
99.171
 10
39.15
 20
99.2
 10
39.096
 20
99.237
 10
39.046
 20
99.28
 10
39.003
 20
99.329
 10
38.967
 20
99.383
 10
38.938
 20
99.442
 10
38.917
 20
99.504
 10
38.904
 20
99.568
 10
38.9
 20
99.633
 10
38.904
 20
99.699
 10
38.917
 20
99.763
 10
38.938
 20
99.825
 10
38.967
 20
99.883
 10
39.003
 20
99.938
 10
39.046
 20
99.987
 10
39.096
 20
100.03
 10
39.15
 20
100.066
 10
39.209
 20
100.095
 10
39.271
 20
100.116
 10
39.335
 20
100.129
 10
39.4
 20
100.133
 10
39.465
 20
100.129
 10
39.529
 20
100.116
 10
39.591
 20
100.095
 10
39.65
 20
100.066
 10
39.704
 20
100.03
 10
39.754
 20
99.987
 10
39.797
 20
99.938
 10
39.833
 20
99.883
 10
39.862
 20
99.825
 10
39.883
 20
99.763
 10
39.896
 20
99.699
 97
0
 75
0
 76
1
 98
0
  0
HATCH
  5
38
330
17
100
AcDbEntity
  8
RASTER
 62
7
100
AcDbHatch
 10
0.0
 20
0.0
 30
0.0
210
0.0
220
0.0
230
1.0
  2
SOLID
 70
1
 71
0
 91
1
 92
3
 72
0
 73
1
 93
48
 10
13.1
 20
94.5
 10
13.096
 20
94.435
 10
13.083
 20
94.371
 10
13.062
 20
94.309
 10
13.033
 20
94.25
 10
12.997
 20
94.196
 10
12.954
 20
94.146
 10
12.904
 20
94.103
 10
12.85
 20
94.067
 10
12.791
 20
94.038
 10
12.729
 20
94.017
 10
12.665
 20
94.004
 10
12.6
 20
94.0
 10
12.535
 20
94.004
 10
12.471
 20
94.017
 10
12.409
 20
94.038
 10
12.35
 20
94.067
 10
12.296
 20
94.103
 10
12.246
 20
94.146
 10
12.203
 20
94.196
 10
12.167
 20
94.25
 10
12.138
 20
94.309
 10
12.117
 20
94.371
 10
12.104
 20
94.435
 10
12.1
 20
94.5
 10
12.104
 20
94.565
 10
12.117
 20
94.629
 10
12.138
 20
94.691
 10
12.167
 20
94.75
 10
12.203
 20
94.804
 10
12.246
 20
94.854
 10
12.296
 20
94.897
 10
12.35
 20
94.933
 10
12.409
 20
94.962
 10
12.471
 20
94.983
 10
12.535
 20
94.996
 10
12.6
 20
95.0
 10
12.665
 20
94.996
 10
12.729
 20
94.983
 10
12.791
 20
94.962
 10
12.85
 20
94.933
 10
12.904
 20
94.897
 10
12.954
 20
94.854
 10
12.997
 20
94.804
 10
13.033
 20
94.75
 10
13.062
 20
94.691
 10
13.083
 20
94.629
 10
13.096
 20
94.565
 97
0
 75
0
 76
1
 98
0
  0
HATCH
  5
39
330
17
100
AcDbEntity
  8
RASTER
 62
7
100
AcDbHatch
 10
0.0
 20
0.0
 30
0.0
210
0.0
220
0.0
230
1.0
  2
SOLID
 70
1
 71
0
 91
1
 92
3
 72
0
 73
1
 93
48
 10
39.9
 20
94.5
 10
39.896
 20
94.435
 10
39.883
 20
94.371
 10
39.862
 20
94.309
 10
39.833
 20
94.25
 10
39.797
 20
94.196
 10
39.754
 20
94.146
 10
39.704
 20
94.103
 10
39.65
 20
94.067
 10
39.591
 20
94.038
 10
39.529
 20
94.017
 10
39.465
 20
94.004
 10
39.4
 20
94.0
 10
39.335
 20
94.004
 10
39.271
 20
94.017
 10
39.209
 20
94.038
 10
39.15
 20
94.067
 10
39.096
 20
94.103
 10
39.046
 20
94.146
 10
39.003
 20
94.196
 10
38.967
 20
94.25
 10
38.938
 20
94.309
 10
38.917
 20
94.371
 10
38.904
 20
94.435
 10
38.9
 20
94.5
 10
38.904
 20
94.565
 10
38.917
 20
94.629
 10
38.938
 20
94.691
 10
38.967
 20
94.75
 10
39.003
 20
94.804
 10
39.046
 20
94.854
 10
39.096
 20
94.897
 10
39.15
 20
94.933
 10
39.209
 20
94.962
 10
39.271
 20
94.983
 10
39.335
 20
94.996
 10
39.4
 20
95.0
 10
39.465
 20
94.996
 10
39.529
 20
94.983
 10
39.591
 20
94.962
 10
39.65
 20
94.933
 10
39.704
 20
94.897
 10
39.754
 20
94.854
 10
39.797
 20
94.804
 10
39.833
 20
94.75
 10
39.862
 20
94.691
 10
39.883
 20
94.629
 10
39.896
 20
94.565
 97
0
 75
0
 76
1
 98
0
  0
HATCH
  5
3A
330
17
100
AcDbEntity
  8
RASTER
 62
7
100
AcDbHatch
 10
0.0
 20
0.0
 30
0.0
210
0.0
220
0.0
230
1.0
  2
SOLID
 70
1
 71
0
 91
1
 92
3
 72
0
 73
1
 93
48
 10
13.1
 20
89.367
 10
13.096
 20
89.301
 10
13.083
 20
89.237
 10
13.062
 20
89.175
 10
13.033
 20
89.117
 10
12.997
 20
89.062
 10
12.954
 20
89.013
 10
12.904
 20
88.97
 10
12.85
 20
88.934
 10
12.791
 20
88.905
 10
12.729
 20
88.884
 10
12.665
 20
88.871
 10
12.6
 20
88.867
 10
12.535
 20
88.871
 10
12.471
 20
88.884
 10
12.409
 20
88.905
 10
12.35
 20
88.934
 10
12.296
 20
88.97
 10
12.246
 20
89.013
 10
12.203
 20
89.062
 10
12.167
 20
89.117
 10
12.138
 20
89.175
 10
12.117
 20
89.237
 10
12.104
 20
89.301
 10
12.1
 20
89.367
 10
12.104
 20
89.432
 10
12.117
 20
89.496
 10
12.138
 20
89.558
 10
12.167
 20
89.617
 10
12.203
 20
89.671
 10
12.246
 20
89.72
 10
12.296
 20
89.763
 10
12.35
 20
89.8
 10
12.409
 20
89.829
 10
12.471
 20
89.85
 10
12.535
 20
89.862
 10
12.6
 20
89.867
 10
12.665
 20
89.862
 10
12.729
 20
89.85
 10
12.791
 20
89.829
 10
12.85
 20
89.8
 10
12.904
 20
89.763
 10
12.954
 20
89.72
 10
12.997
 20
89.671
 10
13.033
 20
89.617
 10
13.062
 20
89.558
 10
13.083
 20
89.496
 10
13.096
 20
89.432
 97
0
 75
0
 76
1
 98
0
  0
HATCH
  5
3B
330
17
100
AcDbEntity
  8
RASTER
 62
7
100
AcDbHatch
 10
0.0
 20
0.0
 30
0.0
210
0.0
220
0.0
230
1.0
  2
SOLID
 70
1
 71
0
 91
1
 92
3
 72
0
 73
1
 93
48
 10
39.9
 20
89.367
 10
39.896
 20
89.301
 10
39.883
 20
89.237
 10
39.862
 20
89.175
 10
39.833
 20
89.117
 10
39.797
 20
89.062
 10
39.754
 20
89.013
 10
39.704
 20
88.97
 10
39.65
 20
88.934
 10
39.591
 20
88.905
 10
39.529
 20
88.884
 10
39.465
 20
88.871
 10
39.4
 20
88.867
 10
39.335
 20
88.871
 10
39.271
 20
88.884
 10
39.209
 20
88.905
 10
39.15
 20
88.934
 10
39.096
 20
88.97
 10
39.046
 20
89.013
 10
39.003
 20
89.062
 10
38.967
 20
89.117
 10
38.938
 20
89.175
 10
38.917
 20
89.237
 10
38.904
 20
89.301
 10
38.9
 20
89.367
 10
38.904
 20
89.432
 10
38.917
 20
89.496
 10
38.938
 20
89.558
 10
38.967
 20
89.617
 10
39.003
 20
89.671
 10
39.046
 20
89.72
 10
39.096
 20
89.763
 10
39.15
 20
89.8
 10
39.209
 20
89.829
 10
39.271
 20
89.85
 10
39.335
 20
89.862
 10
39.4
 20
89.867
 10
39.465
 20
89.862
 10
39.529
 20
89.85
 10
39.591
 20
89.829
 10
39.65
 20
89.8
 10
39.704
 20
89.763
 10
39.754
 20
89.72
 10
39.797
 20
89.671
 10
39.833
 20
89.617
 10
39.862
 20
89.558
 10
39.883
 20
89.496
 10
39.896
 20
89.432
 97
0
 75
0
 76
1
 98
0
  0
LWPOLYLINE
  5
3C
330
17
100
AcDbEntity
  8
CUT
100
AcDbPolyline
 90
28
 70
1
 10
55.0
 20
102.09
 10
93.0
 20
102.09
 10
96.09
 20
102.09
 10
96.09
 20
96.91
 10
93.09
 20
96.91
 10
93.09
 20
92.09
 10
96.09
 20
92.09
 10
96.09
 20
86.91
 10
93.0
 20
86.91
 10
87.661
 20
86.91
 10
87.661
 20
83.91
 10
82.053
 20
83.91
 10
82.053
 20
86.91
 10
76.804
 20
86.91
 10
76.804
 20
83.91
 10
71.196
 20
83.91
 10
71.196
 20
86.91
 10
65.947
 20
86.91
 10
65.947
 20
83.91
 10
60.339
 20
83.91
 10
60.339
 20
86.91
 10
55.0
 20
86.91
 10
51.91
 20
86.91
 10
51.91
 20
92.09
 10
54.91
 20
92.09
 10
54.91
 20
96.91
 10
51.91
 20
96.91
 10
51.91
 20
102.09
  0
LWPOLYLINE
  5
3D
330
17
100
AcDbEntity
  8
CUT
100
AcDbPolyline
 90
4
 70
1
 10
59.09
 20
97.677
 10
88.91
 20
97.677
 10
88.91
 20
96.457
 10
59.09
 20
96.457
  0
LWPOLYLINE
  5
3E
330
17
100
AcDbEntity
  8
CUT
100
AcDbPolyline
 90
4
 70
1
 10
59.09
 20
92.543
 10
88.91
 20
92.543
 10
88.91
 20
91.323
 10
59.09
 20
91.323
  0
HATCH
  5
3F
330
17
100
AcDbEntity
  8
RASTER
 62
7
100
AcDbHatch
 10
0.0
 20
0.0
 30
0.0
210
0.0
220
0.0
230
1.0
  2
SOLID
 70
1
 71
0
 91
1
 92
3
 72
0
 73
1
 93
4
 10
55.6
 20
101.6
 10
58.4
 20
101.6
 10
58.4
 20
87.4
 10
55.6
 20
87.4
 97
0
 75
0
 76
1
 98
0
  0
HATCH
  5
40
330
17
100
AcDbEntity
  8
RASTER
 62
7
100
AcDbHatch
 10
0.0
 20
0.0
 30
0.0
210
0.0
220
0.0
230
1.0
  2
SOLID
 70
1
 71
0
 91
1
 92
3
 72
0
 73
1
 93
4
 10
89.6
 20
101.6
 10
92.4
 20
101.6
 10
92.4
 20
87.4
 10
89.6
 20
87.4
 97
0
 75
0
 76
1
 98
0
  0
HATCH
  5
41
330
17
100
AcDbEntity
  8
RASTER
 62
7
100
AcDbHatch
 10
0.0
 20
0.0
 30
0.0
210
0.0
220
0.0
230
1.0
  2
SOLID
 70
1
 71
0
 91
1
 92
3
 72
0
 73
1
 93
48
 10
61.1
 20
99.633
 10
61.096
 20
99.568
 10
61.083
 20
99.504
 10
61.062
 20
99.442
 10
61.033
 20
99.383
 10
60.997
 20
99.329
 10
60.954
 20
99.28
 10
60.904
 20
99.237
 10
60.85
 20
99.2
 10
60.791
 20
99.171
 10
60.729
 20
99.15
 10
60.665
 20
99.138
 10
60.6
 20
99.133
 10
60.535
 20
99.138
 10
60.471
 20
99.15
 10
60.409
 20
99.171
 10
60.35
 20
99.2
 10
60.296
 20
99.237
 10
60.246
 20
99.28
 10
60.203
 20
99.329
 10
60.167
 20
99.383
 10
60.138
 20
99.442
 10
60.117
 20
99.504
 10
60.104
 20
99.568
 10
60.1
 20
99.633
 10
60.104
 20
99.699
 10
60.117
 20
99.763
 10
60.138
 20
99.825
 10
60.167
 20
99.883
 10
60.203
 20
99.938
 10
60.246
 20
99.987
 10
60.296
 20
100.03
 10
60.35
 20
100.066
 10
60.409
 20
100.095
 10
60.471
 20
100.116
 10
60.535
 20
100.129
 10
60.6
 20
100.133
 10
60.665
 20
100.129
 10
60.729
 20
100.116
 10
60.791
 20
100.095
 10
60.85
 20
100.066
 10
60.904
 20
100.03
 10
60.954
 20
99.987
 10
60.997
 20
99.938
 10
61.033
 20
99.883
 10
61.062
 20
99.825
 10
61.083
 20
99.763
 10
61.096
 20
99.699
 97
0
 75
0
 76
1
 98
0
  0
HATCH
  5
42
330
17
100
AcDbEntity
  8
RASTER
 62
7
100
AcDbHatch
 10
0.0
 20
0.0
 30
0.0
210
0.0
220
0.0
230
1.0
  2
SOLID
 70
1
 71
0
 91
1
 92
3
 72
0
 73
1
 93
48
 10
87.9
 20
99.633
 10
87.896
 20
99.568
 10
87.883
 20
99.504
 10
87.862
 20
99.442
 10
87.833
 20
99.383
 10
87.797
 20
99.329
 10
87.754
 20
99.28
 10
87.704
 20
99.237
 10
87.65
 20
99.2
 10
87.591
 20
99.171
 10
87.529
 20
99.15
 10
87.465
 20
99.138
 10
87.4
 20
99.133
 10
87.335
 20
99.138
 10
87.271
 20
99.15
 10
87.209
 20
99.171
 10
87.15
 20
99.2
 10
87.096
 20
99.237
 10
87.046
 20
99.28
 10
87.003
 20
99.329
 10
86.967
 20
99.383
 10
86.938
 20
99.442
 10
86.917
 20
99.504
 10
86.904
 20
99.568
 10
86.9
 20
99.633
 10
86.904
 20
99.699
 10
86.917
 20
99.763
 10
86.938
 20
99.825
 10
86.967
 20
99.883
 10
87.003
 20
99.938
 10
87.046
 20
99.987
 10
87.096
 20
100.03
 10
87.15
 20
100.066
 10
87.209
 20
100.095
 10
87.271
 20
100.116
 10
87.335
 20
100.129
 10
87.4
 20
100.133
 10
87.465
 20
100.129
 10
87.529
 20
100.116
 10
87.591
 20
100.095
 10
87.65
 20
100.066
 10
87.704
 20
100.03
 10
87.754
 20
99.987
 10
87.797
 20
99.938
 10
87.833
 20
99.883
 10
87.862
 20
99.825
 10
87.883
 20
99.763
 10
87.896
 20
99.699
 97
0
 75
0
 76
1
 98
0
  0
HATCH
  5
43
330
17
100
AcDbEntity
  8
RASTER
 62
7
100
AcDbHatch
 10
0.0
 20
0.0
 30
0.0
210
0.0
220
0.0
230
1.0
  2
SOLID
 70
1
 71
0
 91
1
 92
3
 72
0
 73
1
 93
48
 10
61.1
 20
94.5
 10
61.096
 20
94.435
 10
61.083
 20
94.371
 10
61.062
 20
94.309
 10
61.033
 20
94.25
 10
60.997
 20
94.196
 10
60.954
 20
94.146
 10
60.904
 20
94.103
 10
60.85
 20
94.067
 10
60.791
 20
94.038
 10
60.729
 20
94.017
 10
60.665
 20
94.004
 10
60.6
 20
94.0
 10
60.535
 20
94.004
 10
60.471
 20
94.017
 10
60.409
 20
94.038
 10
60.35
 20
94.067
 10
60.296
 20
94.103
 10
60.246
 20
94.146
 10
60.203
 20
94.196
 10
60.167
 20
94.25
 10
60.138
 20
94.309
 10
60.117
 20
94.371
 10
60.104
 20
94.435
 10
60.1
 20
94.5
 10
60.104
 20
94.565
 10
60.117
 20
94.629
 10
60.138
 20
94.691
 10
60.167
 20
94.75
 10
60.203
 20
94.804
 10
60.246
 20
94.854
 10
60.296
 20
94.897
 10
60.35
 20
94.933
 10
60.409
 20
94.962
 10
60.471
 20
94.983
 10
60.535
 20
94.996
 10
60.6
 20
95.0
 10
60.665
 20
94.996
 10
60.729
 20
94.983
 10
60.791
 20
94.962
 10
60.85
 20
94.933
 10
60.904
 20
94.897
 10
60.954
 20
94.854
 10
60.997
 20
94.804
 10
61.033
 20
94.75
 10
61.062
 20
94.691
 10
61.083
 20
94.629
 10
61.096
 20
94.565
 97
0
 75
0
 76
1
 98
0
  0
HATCH
  5
44
330
17
100
AcDbEntity
  8
RASTER
 62
7
100
AcDbHatch
 10
0.0
 20
0.0
 30
0.0
210
0.0
220
0.0
230
1.0
  2
SOLID
 70
1
 71
0
 91
1
 92
3
 72
0
 73
1
 93
48
 10
87.9
 20
94.5
 10
87.896
 20
94.435
 10
87.883
 20
94.371
 10
87.862
 20
94.309
 10
87.833
 20
94.25
 10
87.797
 20
94.196
 10
87.754
 20
94.146
 10
87.704
 20
94.103
 10
87.65
 20
94.067
 10
87.591
 20
94.038
 10
87.529
 20
94.017
 10
87.465
 20
94.004
 10
87.4
 20
94.0
 10
87.335
 20
94.004
 10
87.271
 20
94.017
 10
87.209
 20
94.038
 10
87.15
 20
94.067
 10
87.096
 20
94.103
 10
87.046
 20
94.146
 10
87.003
 20
94.196
 10
86.967
 20
94.25
 10
86.938
 20
94.309
 10
86.917
 20
94.371
 10
86.904
 20
94.435
 10
86.9
 20
94.5
 10
86.904
 20
94.565
 10
86.917
 20
94.629
 10
86.938
 20
94.691
 10
86.967
 20
94.75
 10
87.003
 20
94.804
 10
87.046
 20
94.854
 10
87.096
 20
94.897
 10
87.15
 20
94.933
 10
87.209
 20
94.962
 10
87.271
 20
94.983
 10
87.335
 20
94.996
 10
87.4
 20
95.0
 10
87.465
 20
94.996
 10
87.529
 20
94.983
 10
87.591
 20
94.962
 10
87.65
 20
94.933
 10
87.704
 20
94.897
 10
87.754
 20
94.854
 10
87.797
 20
94.804
 10
87.833
 20
94.75
 10
87.862
 20
94.691
 10
87.883
 20
94.629
 10
87.896
 20
94.565
 97
0
 75
0
 76
1
 98
0
  0
HATCH
  5
45
330
17
100
AcDbEntity
  8
RASTER
 62
7
100
AcDbHatch
 10
0.0
 20
0.0
 30
0.0
210
0.0
220
0.0
230
1.0
  2
SOLID
 70
1
 71
0
 91
1
 92
3
 72
0
 73
1
 93
48
 10
61.1
 20
89.367
 10
61.096
 20
89.301
 10
61.083
 20
89.237
 10
61.062
 20
89.175
 10
61.033
 20
89.117
 10
60.997
 20
89.062
 10
60.954
 20
89.013
 10
60.904
 20
88.97
 10
60.85
 20
88.934
 10
60.791
 20
88.905
 10
60.729
 20
88.884
 10
60.665
 20
88.871
 10
60.6
 20
88.867
 10
60.535
 20
88.871
 10
60.471
 20
88.884
 10
60.409
 20
88.905
 10
60.35
 20
88.934
 10
60.296
 20
88.97
 10
60.246
 20
89.013
 10
60.203
 20
89.062
 10
60.167
 20
89.117
 10
60.138
 20
89.175
 10
60.117
 20
89.237
 10
60.104
 20
89.301
 10
60.1
 20
89.367
 10
60.104
 20
89.432
 10
60.117
 20
89.496
 10
60.138
 20
89.558
 10
60.167
 20
89.617
 10
60.203
 20
89.671
 10
60.246
 20
89.72
 10
60.296
 20
89.763
 10
60.35
 20
89.8
 10
60.409
 20
89.829
 10
60.471
 20
89.85
 10
60.535
 20
89.862
 10
60.6
 20
89.867
 10
60.665
 20
89.862
 10
60.729
 20
89.85
 10
60.791
 20
89.829
 10
60.85
 20
89.8
 10
60.904
 20
89.763
 10
60.954
 20
89.72
 10
60.997
 20
89.671
 10
61.033
 20
89.617
 10
61.062
 20
89.558
 10
61.083
 20
89.496
 10
61.096
 20
89.432
 97
0
 75
0
 76
1
 98
0
  0
HATCH
  5
46
330
17
100
AcDbEntity
  8
RASTER
 62
7
100
AcDbHatch
 10
0.0
 20
0.0
 30
0.0
210
0.0
220
0.0
230
1.0
  2
SOLID
 70
1
 71
0
 91
1
 92
3
 72
0
 73
1
 93
48
 10
87.9
 20
89.367
 10
87.896
 20
89.301
 10
87.883
 20
89.237
 10
87.862
 20
89.175
 10
87.833
 20
89.117
 10
87.797
 20
89.062
 10
87.754
 20
89.013
 10
87.704
 20
88.97
 10
87.65
 20
88.934
 10
87.591
 20
88.905
 10
87.529
 20
88.884
 10
87.465
 20
88.871
 10
87.4
 20
88.867
 10
87.335
 20
88.871
 10
87.271
 20
88.884
 10
87.209
 20
88.905
 10
87.15
 20
88.934
 10
87.096
 20
88.97
 10
87.046
 20
89.013
 10
87.003
 20
89.062
 10
86.967
 20
89.117
 10
86.938
 20
89.175
 10
86.917
 20
89.237
 10
86.904
 20
89.301
 10
86.9
 20
89.367
 10
86.904
 20
89.432
 10
86.917
 20
89.496
 10
86.938
 20
89.558
 10
86.967
 20
89.617
 10
87.003
 20
89.671
 10
87.046
 20
89.72
 10
87.096
 20
89.763
 10
87.15
 20
89.8
 10
87.209
 20
89.829
 10
87.271
 20
89.85
 10
87.335
 20
89.862
 10
87.4
 20
89.867
 10
87.465
 20
89.862
 10
87.529
 20
89.85
 10
87.591
 20
89.829
 10
87.65
 20
89.8
 10
87.704
 20
89.763
 10
87.754
 20
89.72
 10
87.797
 20
89.671
 10
87.833
 20
89.617
 10
87.862
 20
89.558
 10
87.883
 20
89.496
 10
87.896
 20
89.432
 97
0
 75
0
 76
1
 98
0
  0
LWPOLYLINE
  5
47
330
17
100
AcDbEntity
  8
CUT
100
AcDbPolyline
 90
20
 70
1
 10
102.91
 20
102.09
 10
127.09
 20
102.09
 10
127.09
 20
97.09
 10
130.09
 20
97.09
 10
130.09
 20
91.91
 10
127.09
 20
91.91
 10
127.09
 20
86.91
 10
122.29
 20
86.91
 10
122.29
 20
83.91
 10
117.31
 20
83.91
 10
117.31
 20
86.91
 10
112.69
 20
86.91
 10
112.69
 20
83.91
 10
107.71
 20
83.91
 10
107.71
 20
86.91
 10
102.91
 20
86.91
 10
102.91
 20
91.91
 10
99.91
 20
91.91
 10
99.91
 20
97.09
 10
102.91
 20
97.09
  0
LWPOLYLINE
  5
48
330
17
100
AcDbEntity
  8
CUT
100
AcDbPolyline
 90
4
 70
1
 10
107.09
 20
97.677
 10
122.91
 20
97.677
 10
122.91
 20
96.457
 10
107.09
 20
96.457
  0
LWPOLYLINE
  5
49
330
17
100
AcDbEntity
  8
CUT
100
AcDbPolyline
 90
4
 70
1
 10
107.09
 20
92.543
 10
122.91
 20
92.543
 10
122.91
 20
91.323
 10
107.09
 20
91.323
  0
HATCH
  5
4A
330
17
100
AcDbEntity
  8
RASTER
 62
7
100
AcDbHatch
 10
0.0
 20
0.0
 30
0.0
210
0.0
220
0.0
230
1.0
  2
SOLID
 70
1
 71
0
 91
1
 92
3
 72
0
 73
1
 93
4
 10
103.6
 20
101.6
 10
106.4
 20
101.6
 10
106.4
 20
87.4
 10
103.6
 20
87.4
 97
0
 75
0
 76
1
 98
0
  0
HATCH
  5
4B
330
17
100
AcDbEntity
  8
RASTER
 62
7
100
AcDbHatch
 10
0.0
 20
0.0
 30
0.0
210
0.0
220
0.0
230
1.0
  2
SOLID
 70
1
 71
0
 91
1
 92
3
 72
0
 73
1
 93
4
 10
123.6
 20
101.6
 10
126.4
 20
101.6
 10
126.4
 20
87.4
 10
123.6
 20
87.4
 97
0
 75
0
 76
1
 98
0
  0
HATCH
  5
4C
330
17
100
AcDbEntity
  8
RASTER
 62
7
100
AcDbHatch
 10
0.0
 20
0.0
 30
0.0
210
0.0
220
0.0
230
1.0
  2
SOLID
 70
1
 71
0
 91
1
 92
3
 72
0
 73
1
 93
48
 10
109.1
 20
99.633
 10
109.096
 20
99.568
 10
109.083
 20
99.504
 10
109.062
 20
99.442
 10
109.033
 20
99.383
 10
108.997
 20
99.329
 10
108.954
 20
99.28
 10
108.904
 20
99.237
 10
108.85
 20
99.2
 10
108.791
 20
99.171
 10
108.729
 20
99.15
 10
108.665
 20
99.138
 10
108.6
 20
99.133
 10
108.535
 20
99.138
 10
108.471
 20
99.15
 10
108.409
 20
99.171
 10
108.35
 20
99.2
 10
108.296
 20
99.237
 10
108.246
 20
99.28
 10
108.203
 20
99.329
 10
108.167
 20
99.383
 10
108.138
 20
99.442
 10
108.117
 20
99.504
 10
108.104
 20
99.568
 10
108.1
 20
99.633
 10
108.104
 20
99.699
 10
108.117
 20
99.763
 10
108.138
 20
99.825
 10
108.167
 20
99.883
 10
108.203
 20
99.938
 10
108.246
 20
99.987
 10
108.296
 20
100.03
 10
108.35
 20
100.066
 10
108.409
 20
100.095
 10
108.471
 20
100.116
 10
108.535
 20
100.129
 10
108.6
 20
100.133
 10
108.665
 20
100.129
 10
108.729
 20
100.116
 10
108.791
 20
100.095
 10
108.85
 20
100.066
 10
108.904
 20
100.03
 10
108.954
 20
99.987
 10
108.997
 20
99.938
 10
109.033
 20
99.883
 10
109.062
 20
99.825
 10
109.083
 20
99.763
 10
109.096
 20
99.699
 97
0
 75
0
 76
1
 98
0
  0
HATCH
  5
4D
330
17
100
AcDbEntity
  8
RASTER
 62
7
100
AcDbHatch
 10
0.0
 20
0.0
 30
0.0
210
0.0
220
0.0
230
1.0
  2
SOLID
 70
1
 71
0
 91
1
 92
3
 72
0
 73
1
 93
48
 10
121.9
 20
99.633
 10
121.896
 20
99.568
 10
121.883
 20
99.504
 10
121.862
 20
99.442
 10
121.833
 20
99.383
 10
121.797
 20
99.329
 10
121.754
 20
99.28
 10
121.704
 20
99.237
 10
121.65
 20
99.2
 10
121.591
 20
99.171
 10
121.529
 20
99.15
 10
121.465
 20
99.138
 10
121.4
 20
99.133
 10
121.335
 20
99.138
 10
121.271
 20
99.15
 10
121.209
 20
99.171
 10
121.15
 20
99.2
 10
121.096
 20
99.237
 10
121.046
 20
99.28
 10
121.003
 20
99.329
 10
120.967
 20
99.383
 10
120.938
 20
99.442
 10
120.917
 20
99.504
 10
120.904
 20
99.568
 10
120.9
 20
99.633
 10
120.904
 20
99.699
 10
120.917
 20
99.763
 10
120.938
 20
99.825
 10
120.967
 20
99.883
 10
121.003
 20
99.938
 10
121.046
 20
99.987
 10
121.096
 20
100.03
 10
121.15
 20
100.066
 10
121.209
 20
100.095
 10
121.271
 20
100.116
 10
121.335
 20
100.129
 10
121.4
 20
100.133
 10
121.465
 20
100.129
 10
121.529
 20
100.116
 10
121.591
 20
100.095
 10
121.65
 20
100.066
 10
121.704
 20
100.03
 10
121.754
 20
99.987
 10
121.797
 20
99.938
 10
121.833
 20
99.883
 10
121.862
 20
99.825
 10
121.883
 20
99.763
 10
121.896
 20
99.699
 97
0
 75
0
 76
1
 98
0
  0
HATCH
  5
4E
330
17
100
AcDbEntity
  8
RASTER
 62
7
100
AcDbHatch
 10
0.0
 20
0.0
 30
0.0
210
0.0
220
0.0
230
1.0
  2
SOLID
 70
1
 71
0
 91
1
 92
3
 72
0
 73
1
 93
48
 10
109.1
 20
94.5
 10
109.096
 20
94.435
 10
109.083
 20
94.371
 10
109.062
 20
94.309
 10
109.033
 20
94.25
 10
108.997
 20
94.196
 10
108.954
 20
94.146
 10
108.904
 20
94.103
 10
108.85
 20
94.067
 10
108.791
 20
94.038
 10
108.729
 20
94.017
 10
108.665
 20
94.004
 10
108.6
 20
94.0
 10
108.535
 20
94.004
 10
108.471
 20
94.017
 10
108.409
 20
94.038
 10
108.35
 20
94.067
 10
108.296
 20
94.103
 10
108.246
 20
94.146
 10
108.203
 20
94.196
 10
108.167
 20
94.25
 10
108.138
 20
94.309
 10
108.117
 20
94.371
 10
108.104
 20
94.435
 10
108.1
 20
94.5
 10
108.104
 20
94.565
 10
108.117
 20
94.629
 10
108.138
 20
94.691
 10
108.167
 20
94.75
 10
108.203
 20
94.804
 10
108.246
 20
94.854
 10
108.296
 20
94.897
 10
108.35
 20
94.933
 10
108.409
 20
94.962
 10
108.471
 20
94.983
 10
108.535
 20
94.996
 10
108.6
 20
95.0
 10
108.665
 20
94.996
 10
108.729
 20
94.983
 10
108.791
 20
94.962
 10
108.85
 20
94.933
 10
108.904
 20
94.897
 10
108.954
 20
94.854
 10
108.997
 20
94.804
 10
109.033
 20
94.75
 10
109.062
 20
94.691
 10
109.083
 20
94.629
 10
109.096
 20
94.565
 97
0
 75
0
 76
1
 98
0
  0
HATCH
  5
4F
330
17
100
AcDbEntity
  8
RASTER
 62
7
100
AcDbHatch
 10
0.0
 20
0.0
 30
0.0
210
0.0
220
0.0
230
1.0
  2
SOLID
 70
1
 71
0
 91
1
 92
3
 72
0
 73
1
 93
48
 10
121.9
 20
94.5
 10
121.896
 20
94.435
 10
121.883
 20
94.371
 10
121.862
 20
94.309
 10
121.833
 20
94.25
 10
121.797
 20
94.196
 10
121.754
 20
94.146
 10
121.704
 20
94.103
 10
121.65
 20
94.067
 10
121.591
 20
94.038
 10
121.529
 20
94.017
 10
121.465
 20
94.004
 10
121.4
 20
94.0
 10
121.335
 20
94.004
 10
121.271
 20
94.017
 10
121.209
 20
94.038
 10
121.15
 20
94.067
 10
121.096
 20
94.103
 10
121.046
 20
94.146
 10
121.003
 20
94.196
 10
120.967
 20
94.25
 10
120.938
 20
94.309
 10
120.917
 20
94.371
 10
120.904
 20
94.435
 10
120.9
 20
94.5
 10
120.904
 20
94.565
 10
120.917
 20
94.629
 10
120.938
 20
94.691
 10
120.967
 20
94.75
 10
121.003
 20
94.804
 10
121.046
 20
94.854
 10
121.096
 20
94.897
 10
121.15
 20
94.933
 10
121.209
 20
94.962
 10
121.271
 20
94.983
 10
121.335
 20
94.996
 10
121.4
 20
95.0
 10
121.465
 20
94.996
 10
121.529
 20
94.983
 10
121.591
 20
94.962
 10
121.65
 20
94.933
 10
121.704
 20
94.897
 10
121.754
 20
94.854
 10
121.797
 20
94.804
 10
121.833
 20
94.75
 10
121.862
 20
94.691
 10
121.883
 20
94.629
 10
121.896
 20
94.565
 97
0
 75
0
 76
1
 98
0
  0
HATCH
  5
50
330
17
100
AcDbEntity
  8
RASTER
 62
7
100
AcDbHatch
 10
0.0
 20
0.0
 30
0.0
210
0.0
220
0.0
230
1.0
  2
SOLID
 70
1
 71
0
 91
1
 92
3
 72
0
 73
1
 93
48
 10
109.1
 20
89.367
 10
109.096
 20
89.301
 10
109.083
 20
89.237
 10
109.062
 20
89.175
 10
109.033
 20
89.117
 10
108.997
 20
89.062
 10
108.954
 20
89.013
 10
108.904
 20
88.97
 10
108.85
 20
88.934
 10
108.791
 20
88.905
 10
108.729
 20
88.884
 10
108.665
 20
88.871
 10
108.6
 20
88.867
 10
108.535
 20
88.871
 10
108.471
 20
88.884
 10
108.409
 20
88.905
 10
108.35
 20
88.934
 10
108.296
 20
88.97
 10
108.246
 20
89.013
 10
108.203
 20
89.062
 10
108.167
 20
89.117
 10
108.138
 20
89.175
 10
108.117
 20
89.237
 10
108.104
 20
89.301
 10
108.1
 20
89.367
 10
108.104
 20
89.432
 10
108.117
 20
89.496
 10
108.138
 20
89.558
 10
108.167
 20
89.617
 10
108.203
 20
89.671
 10
108.246
 20
89.72
 10
108.296
 20
89.763
 10
108.35
 20
89.8
 10
108.409
 20
89.829
 10
108.471
 20
89.85
 10
108.535
 20
89.862
 10
108.6
 20
89.867
 10
108.665
 20
89.862
 10
108.729
 20
89.85
 10
108.791
 20
89.829
 10
108.85
 20
89.8
 10
108.904
 20
89.763
 10
108.954
 20
89.72
 10
108.997
 20
89.671
 10
109.033
 20
89.617
 10
109.062
 20
89.558
 10
109.083
 20
89.496
 10
109.096
 20
89.432
 97
0
 75
0
 76
1
 98
0
  0
HATCH
  5
51
330
17
100
AcDbEntity
  8
RASTER
 62
7
100
AcDbHatch
 10
0.0
 20
0.0
 30
0.0
210
0.0
220
0.0
230
1.0
  2
SOLID
 70
1
 71
0
 91
1
 92
3
 72
0
 73
1
 93
48
 10
121.9
 20
89.367
 10
121.896
 20
89.301
 10
121.883
 20
89.237
 10
121.862
 20
89.175
 10
121.833
 20
89.117
 10
121.797
 20
89.062
 10
121.754
 20
89.013
 10
121.704
 20
88.97
 10
121.65
 20
88.934
 10
121.591
 20
88.905
 10
121.529
 20
88.884
 10
121.465
 20
88.871
 10
121.4
 20
88.867
 10
121.335
 20
88.871
 10
121.271
 20
88.884
 10
121.209
 20
88.905
 10
121.15
 20
88.934
 10
121.096
 20
88.97
 10
121.046
 20
89.013
 10
121.003
 20
89.062
 10
120.967
 20
89.117
 10
120.938
 20
89.175
 10
120.917
 20
89.237
 10
120.904
 20
89.301
 10
120.9
 20
89.367
 10
120.904
 20
89.432
 10
120.917
 20
89.496
 10
120.938
 20
89.558
 10
120.967
 20
89.617
 10
121.003
 20
89.671
 10
121.046
 20
89.72
 10
121.096
 20
89.763
 10
121.15
 20
89.8
 10
121.209
 20
89.829
 10
121.271
 20
89.85
 10
121.335
 20
89.862
 10
121.4
 20
89.867
 10
121.465
 20
89.862
 10
121.529
 20
89.85
 10
121.591
 20
89.829
 10
121.65
 20
89.8
 10
121.704
 20
89.763
 10
121.754
 20
89.72
 10
121.797
 20
89.671
 10
121.833
 20
89.617
 10
121.862
 20
89.558
 10
121.883
 20
89.496
 10
121.896
 20
89.432
 97
0
 75
0
 76
1
 98
0
  0
LWPOLYLINE
  5
52
330
17
100
AcDbEntity
  8
CUT
100
AcDbPolyline
 90
20
 70
1
 10
136.91
 20
102.09
 10
161.09
 20
102.09
 10
161.09
 20
97.09
 10
164.09
 20
97.09
 10
164.09
 20
91.91
 10
161.09
 20
91.91
 10
161.09
 20
86.91
 10
156.29
 20
86.91
 10
156.29
 20
83.91
 10
151.31
 20
83.91
 10
151.31
 20
86.91
 10
146.69
 20
86.91
 10
146.69
 20
83.91
 10
141.71
 20
83.91
 10
141.71
 20
86.91
 10
136.91
 20
86.91
 10
136.91
 20
91.91
 10
133.91
 20
91.91
 10
133.91
 20
97.09
 10
136.91
 20
97.09
  0
LWPOLYLINE
  5
53
330
17
100
AcDbEntity
  8
CUT
100
AcDbPolyline
 90
4
 70
1
 10
141.09
 20
97.677
 10
156.91
 20
97.677
 10
156.91
 20
96.457
 10
141.09
 20
96.457
  0
LWPOLYLINE
  5
54
330
17
100
AcDbEntity
  8
CUT
100
AcDbPolyline
 90
4
 70
1
 10
141.09
 20
92.543
 10
156.91
 20
92.543
 10
156.91
 20
91.323
 10
141.09
 20
91.323
  0
HATCH
  5
55
330
17
100
AcDbEntity
  8
RASTER
 62
7
100
AcDbHatch
 10
0.0
 20
0.0
 30
0.0
210
0.0
220
0.0
230
1.0
  2
SOLID
 70
1
 71
0
 91
1
 92
3
 72
0
 73
1
 93
4
 10
137.6
 20
101.6
 10
140.4
 20
101.6
 10
140.4
 20
87.4
 10
137.6
 20
87.4
 97
0
 75
0
 76
1
 98
0
  0
HATCH
  5
56
330
17
100
AcDbEntity
  8
RASTER
 62
7
100
AcDbHatch
 10
0.0
 20
0.0
 30
0.0
210
0.0
220
0.0
230
1.0
  2
SOLID
 70
1
 71
0
 91
1
 92
3
 72
0
 73
1
 93
4
 10
157.6
 20
101.6
 10
160.4
 20
101.6
 10
160.4
 20
87.4
 10
157.6
 20
87.4
 97
0
 75
0
 76
1
 98
0
  0
HATCH
  5
57
330
17
100
AcDbEntity
  8
RASTER
 62
7
100
AcDbHatch
 10
0.0
 20
0.0
 30
0.0
210
0.0
220
0.0
230
1.0
  2
SOLID
 70
1
 71
0
 91
1
 92
3
 72
0
 73
1
 93
48
 10
143.1
 20
99.633
 10
143.096
 20
99.568
 10
143.083
 20
99.504
 10
143.062
 20
99.442
 10
143.033
 20
99.383
 10
142.997
 20
99.329
 10
142.954
 20
99.28
 10
142.904
 20
99.237
 10
142.85
 20
99.2
 10
142.791
 20
99.171
 10
142.729
 20
99.15
 10
142.665
 20
99.138
 10
142.6
 20
99.133
 10
142.535
 20
99.138
 10
142.471
 20
99.15
 10
142.409
 20
99.171
 10
142.35
 20
99.2
 10
142.296
 20
99.237
 10
142.246
 20
99.28
 10
142.203
 20
99.329
 10
142.167
 20
99.383
 10
142.138
 20
99.442
 10
142.117
 20
99.504
 10
142.104
 20
99.568
 10
142.1
 20
99.633
 10
142.104
 20
99.699
 10
142.117
 20
99.763
 10
142.138
 20
99.825
 10
142.167
 20
99.883
 10
142.203
 20
99.938
 10
142.246
 20
99.987
 10
142.296
 20
100.03
 10
142.35
 20
100.066
 10
142.409
 20
100.095
 10
142.471
 20
100.116
 10
142.535
 20
100.129
 10
142.6
 20
100.133
 10
142.665
 20
100.129
 10
142.729
 20
100.116
 10
142.791
 20
100.095
 10
142.85
 20
100.066
 10
142.904
 20
100.03
 10
142.954
 20
99.987
 10
142.997
 20
99.938
 10
143.033
 20
99.883
 10
143.062
 20
99.825
 10
143.083
 20
99.763
 10
143.096
 20
99.699
 97
0
 75
0
 76
1
 98
0
  0
HATCH
  5
58
330
17
100
AcDbEntity
  8
RASTER
 62
7
100
AcDbHatch
 10
0.0
 20
0.0
 30
0.0
210
0.0
220
0.0
230
1.0
  2
SOLID
 70
1
 71
0
 91
1
 92
3
 72
0
 73
1
 93
48
 10
155.9
 20
99.633
 10
155.896
 20
99.568
 10
155.883
 20
99.504
 10
155.862
 20
99.442
 10
155.833
 20
99.383
 10
155.797
 20
99.329
 10
155.754
 20
99.28
 10
155.704
 20
99.237
 10
155.65
 20
99.2
 10
155.591
 20
99.171
 10
155.529
 20
99.15
 10
155.465
 20
99.138
 10
155.4
 20
99.133
 10
155.335
 20
99.138
 10
155.271
 20
99.15
 10
155.209
 20
99.171
 10
155.15
 20
99.2
 10
155.096
 20
99.237
 10
155.046
 20
99.28
 10
155.003
 20
99.329
 10
154.967
 20
99.383
 10
154.938
 20
99.442
 10
154.917
 20
99.504
 10
154.904
 20
99.568
 10
154.9
 20
99.633
 10
154.904
 20
99.699
 10
154.917
 20
99.763
 10
154.938
 20
99.825
 10
154.967
 20
99.883
 10
155.003
 20
99.938
 10
155.046
 20
99.987
 10
155.096
 20
100.03
 10
155.15
 20
100.066
 10
155.209
 20
100.095
 10
155.271
 20
100.116
 10
155.335
 20
100.129
 10
155.4
 20
100.133
 10
155.465
 20
100.129
 10
155.529
 20
100.116
 10
155.591
 20
100.095
 10
155.65
 20
100.066
 10
155.704
 20
100.03
 10
155.754
 20
99.987
 10
155.797
 20
99.938
 10
155.833
 20
99.883
 10
155.862
 20
99.825
 10
155.883
 20
99.763
 10
155.896
 20
99.699
 97
0
 75
0
 76
1
 98
0
  0
HATCH
  5
59
330
17
100
AcDbEntity
  8
RASTER
 62
7
100
AcDbHatch
 10
0.0
 20
0.0
 30
0.0
210
0.0
220
0.0
230
1.0
  2
SOLID
 70
1
 71
0
 91
1
 92
3
 72
0
 73
1
 93
48
 10
143.1
 20
94.5
 10
143.096
 20
94.435
 10
143.083
 20
94.371
 10
143.062
 20
94.309
 10
143.033
 20
94.25
 10
142.997
 20
94.196
 10
142.954
 20
94.146
 10
142.904
 20
94.103
 10
142.85
 20
94.067
 10
142.791
 20
94.038
 10
142.729
 20
94.017
 10
142.665
 20
94.004
 10
142.6
 20
94.0
 10
142.535
 20
94.004
 10
142.471
 20
94.017
 10
142.409
 20
94.038
 10
142.35
 20
94.067
 10
142.296
 20
94.103
 10
142.246
 20
94.146
 10
142.203
 20
94.196
 10
142.167
 20
94.25
 10
142.138
 20
94.309
 10
142.117
 20
94.371
 10
142.104
 20
94.435
 10
142.1
 20
94.5
 10
142.104
 20
94.565
 10
142.117
 20
94.629
 10
142.138
 20
94.691
 10
142.167
 20
94.75
 10
142.203
 20
94.804
 10
142.246
 20
94.854
 10
142.296
 20
94.897
 10
142.35
 20
94.933
 10
142.409
 20
94.962
 10
142.471
 20
94.983
 10
142.535
 20
94.996
 10
142.6
 20
95.0
 10
142.665
 20
94.996
 10
142.729
 20
94.983
 10
142.791
 20
94.962
 10
142.85
 20
94.933
 10
142.904
 20
94.897
 10
142.954
 20
94.854
 10
142.997
 20
94.804
 10
143.033
 20
94.75
 10
143.062
 20
94.691
 10
143.083
 20
94.629
 10
143.096
 20
94.565
 97
0
 75
0
 76
1
 98
0
  0
HATCH
  5
5A
330
17
100
AcDbEntity
  8
RASTER
 62
7
100
AcDbHatch
 10
0.0
 20
0.0
 30
0.0
210
0.0
220
0.0
230
1.0
  2
SOLID
 70
1
 71
0
 91
1
 92
3
 72
0
 73
1
 93
48
 10
155.9
 20
94.5
 10
155.896
 20
94.435
 10
155.883
 20
94.371
 10
155.862
 20
94.309
 10
155.833
 20
94.25
 10
155.797
 20
94.196
 10
155.754
 20
94.146
 10
155.704
 20
94.103
 10
155.65
 20
94.067
 10
155.591
 20
94.038
 10
155.529
 20
94.017
 10
155.465
 20
94.004
 10
155.4
 20
94.0
 10
155.335
 20
94.004
 10
155.271
 20
94.017
 10
155.209
 20
94.038
 10
155.15
 20
94.067
 10
155.096
 20
94.103
 10
155.046
 20
94.146
 10
155.003
 20
94.196
 10
154.967
 20
94.25
 10
154.938
 20
94.309
 10
154.917
 20
94.371
 10
154.904
 20
94.435
 10
154.9
 20
94.5
 10
154.904
 20
94.565
 10
154.917
 20
94.629
 10
154.938
 20
94.691
 10
154.967
 20
94.75
 10
155.003
 20
94.804
 10
155.046
 20
94.854
 10
155.096
 20
94.897
 10
155.15
 20
94.933
 10
155.209
 20
94.962
 10
155.271
 20
94.983
 10
155.335
 20
94.996
 10
155.4
 20
95.0
 10
155.465
 20
94.996
 10
155.529
 20
94.983
 10
155.591
 20
94.962
 10
155.65
 20
94.933
 10
155.704
 20
94.897
 10
155.754
 20
94.854
 10
155.797
 20
94.804
 10
155.833
 20
94.75
 10
155.862
 20
94.691
 10
155.883
 20
94.629
 10
155.896
 20
94.565
 97
0
 75
0
 76
1
 98
0
  0
HATCH
  5
5B
330
17
100
AcDbEntity
  8
RASTER
 62
7
100
AcDbHatch
 10
0.0
 20
0.0
 30
0.0
210
0.0
220
0.0
230
1.0
  2
SOLID
 70
1
 71
0
 91
1
 92
3
 72
0
 73
1
 93
48
 10
143.1
 20
89.367
 10
143.096
 20
89.301
 10
143.083
 20
89.237
 10
143.062
 20
89.175
 10
143.033
 20
89.117
 10
142.997
 20
89.062
 10
142.954
 20
89.013
 10
142.904
 20
88.97
 10
142.85
 20
88.934
 10
142.791
 20
88.905
 10
142.729
 20
88.884
 10
142.665
 20
88.871
 10
142.6
 20
88.867
 10
142.535
 20
88.871
 10
142.471
 20
88.884
 10
142.409
 20
88.905
 10
142.35
 20
88.934
 10
142.296
 20
88.97
 10
142.246
 20
89.013
 10
142.203
 20
89.062
 10
142.167
 20
89.117
 10
142.138
 20
89.175
 10
142.117
 20
89.237
 10
142.104
 20
89.301
 10
142.1
 20
89.367
 10
142.104
 20
89.432
 10
142.117
 20
89.496
 10
142.138
 20
89.558
 10
142.167
 20
89.617
 10
142.203
 20
89.671
 10
142.246
 20
89.72
 10
142.296
 20
89.763
 10
142.35
 20
89.8
 10
142.409
 20
89.829
 10
142.471
 20
89.85
 10
142.535
 20
89.862
 10
142.6
 20
89.867
 10
142.665
 20
89.862
 10
142.729
 20
89.85
 10
142.791
 20
89.829
 10
142.85
 20
89.8
 10
142.904
 20
89.763
 10
142.954
 20
89.72
 10
142.997
 20
89.671
 10
143.033
 20
89.617
 10
143.062
 20
89.558
 10
143.083
 20
89.496
 10
143.096
 20
89.432
 97
0
 75
0
 76
1
 98
0
  0
HATCH
  5
5C
330
17
100
AcDbEntity
  8
RASTER
 62
7
100
AcDbHatch
 10
0.0
 20
0.0
 30
0.0
210
0.0
220
0.0
230
1.0
  2
SOLID
 70
1
 71
0
 91
1
 92
3
 72
0
 73
1
 93
48
 10
155.9
 20
89.367
 10
155.896
 20
89.301
 10
155.883
 20
89.237
 10
155.862
 20
89.175
 10
155.833
 20
89.117
 10
155.797
 20
89.062
 10
155.754
 20
89.013
 10
155.704
 20
88.97
 10
155.65
 20
88.934
 10
155.591
 20
88.905
 10
155.529
 20
88.884
 10
155.465
 20
88.871
 10
155.4
 20
88.867
 10
155.335
 20
88.871
 10
155.271
 20
88.884
 10
155.209
 20
88.905
 10
155.15
 20
88.934
 10
155.096
 20
88.97
 10
155.046
 20
89.013
 10
155.003
 20
89.062
 10
154.967
 20
89.117
 10
154.938
 20
89.175
 10
154.917
 20
89.237
 10
154.904
 20
89.301
 10
154.9
 20
89.367
 10
154.904
 20
89.432
 10
154.917
 20
89.496
 10
154.938
 20
89.558
 10
154.967
 20
89.617
 10
155.003
 20
89.671
 10
155.046
 20
89.72
 10
155.096
 20
89.763
 10
155.15
 20
89.8
 10
155.209
 20
89.829
 10
155.271
 20
89.85
 10
155.335
 20
89.862
 10
155.4
 20
89.867
 10
155.465
 20
89.862
 10
155.529
 20
89.85
 10
155.591
 20
89.829
 10
155.65
 20
89.8
 10
155.704
 20
89.763
 10
155.754
 20
89.72
 10
155.797
 20
89.671
 10
155.833
 20
89.617
 10
155.862
 20
89.558
 10
155.883
 20
89.496
 10
155.896
 20
89.432
 97
0
 75
0
 76
1
 98
0
  0
LWPOLYLINE
  5
5D
330
17
100
AcDbEntity
  8
CUT
100
AcDbPolyline
 90
52
 70
1
 10
167.91
 20
102.09
 10
171.0
 20
102.09
 10
176.519
 20
102.09
 10
176.519
 20
99.09
 10
181.767
 20
99.09
 10
181.767
 20
102.09
 10
187.376
 20
102.09
 10
187.376
 20
99.09
 10
192.624
 20
99.09
 10
192.624
 20
102.09
 10
198.233
 20
102.09
 10
198.233
 20
99.09
 10
203.481
 20
99.09
 10
203.481
 20
102.09
 10
209.0
 20
102.09
 10
212.09
 20
102.09
 10
212.09
 20
99.0
 10
212.09
 20
94.11
 10
209.09
 20
94.11
 10
209.09
 20
89.49
 10
212.09
 20
89.49
 10
212.09
 20
84.51
 10
209.09
 20
84.51
 10
209.09
 20
79.89
 10
212.09
 20
79.89
 10
212.09
 20
75.0
 10
212.09
 20
71.91
 10
209.0
 20
71.91
 10
203.481
 20
71.91
 10
203.481
 20
74.91
 10
198.233
 20
74.91
 10
198.233
 20
71.91
 10
192.624
 20
71.91
 10
192.624
 20
74.91
 10
187.376
 20
74.91
 10
187.376
 20
71.91
 10
181.767
 20
71.91
 10
181.767
 20
74.91
 10
176.519
 20
74.91
 10
176.519
 20
71.91
 10
171.0
 20
71.91
 10
167.91
 20
71.91
 10
167.91
 20
75.0
 10
167.91
 20
79.89
 10
170.91
 20
79.89
 10
170.91
 20
84.51
 10
167.91
 20
84.51
 10
167.91
 20
89.49
 10
170.91
 20
89.49
 10
170.91
 20
94.11
 10
167.91
 20
94.11
 10
167.91
 20
99.0
  0
LWPOLYLINE
  5
5E
330
17
100
AcDbEntity
  8
CUT
100
AcDbPolyline
 90
28
 70
1
 10
219.0
 20
102.09
 10
257.0
 20
102.09
 10
260.09
 20
102.09
 10
260.09
 20
96.91
 10
257.09
 20
96.91
 10
257.09
 20
92.09
 10
260.09
 20
92.09
 10
260.09
 20
86.91
 10
257.0
 20
86.91
 10
251.661
 20
86.91
 10
251.661
 20
83.91
 10
246.053
 20
83.91
 10
246.053
 20
86.91
 10
240.804
 20
86.91
 10
240.804
 20
83.91
 10
235.196
 20
83.91
 10
235.196
 20
86.91
 10
229.947
 20
86.91
 10
229.947
 20
83.91
 10
224.339
 20
83.91
 10
224.339
 20
86.91
 10
219.0
 20
86.91
 10
215.91
 20
86.91
 10
215.91
 20
92.09
 10
218.91
 20
92.09
 10
218.91
 20
96.91
 10
215.91
 20
96.91
 10
215.91
 20
102.09
  0
LWPOLYLINE
  5
5F
330
17
100
AcDbEntity
  8
CUT
100
AcDbPolyline
 90
4
 70
1
 10
223.09
 20
97.677
 10
252.91
 20
97.677
 10
252.91
 20
96.457
 10
223.09
 20
96.457
  0
LWPOLYLINE
  5
60
330
17
100
AcDbEntity
  8
CUT
100
AcDbPolyline
 90
4
 70
1
 10
223.09
 20
92.543
 10
252.91
 20
92.543
 10
252.91
 20
91.323
 10
223.09
 20
91.323
  0
HATCH
  5
61
330
17
100
AcDbEntity
  8
RASTER
 62
7
100
AcDbHatch
 10
0.0
 20
0.0
 30
0.0
210
0.0
220
0.0
230
1.0
  2
SOLID
 70
1
 71
0
 91
1
 92
3
 72
0
 73
1
 93
4
 10
219.6
 20
101.6
 10
222.4
 20
101.6
 10
222.4
 20
87.4
 10
219.6
 20
87.4
 97
0
 75
0
 76
1
 98
0
  0
HATCH
  5
62
330
17
100
AcDbEntity
  8
RASTER
 62
7
100
AcDbHatch
 10
0.0
 20
0.0
 30
0.0
210
0.0
220
0.0
230
1.0
  2
SOLID
 70
1
 71
0
 91
1
 92
3
 72
0
 73
1
 93
4
 10
253.6
 20
101.6
 10
256.4
 20
101.6
 10
256.4
 20
87.4
 10
253.6
 20
87.4
 97
0
 75
0
 76
1
 98
0
  0
HATCH
  5
63
330
17
100
AcDbEntity
  8
RASTER
 62
7
100
AcDbHatch
 10
0.0
 20
0.0
 30
0.0
210
0.0
220
0.0
230
1.0
  2
SOLID
 70
1
 71
0
 91
1
 92
3
 72
0
 73
1
 93
48
 10
225.1
 20
99.633
 10
225.096
 20
99.568
 10
225.083
 20
99.504
 10
225.062
 20
99.442
 10
225.033
 20
99.383
 10
224.997
 20
99.329
 10
224.954
 20
99.28
 10
224.904
 20
99.237
 10
224.85
 20
99.2
 10
224.791
 20
99.171
 10
224.729
 20
99.15
 10
224.665
 20
99.138
 10
224.6
 20
99.133
 10
224.535
 20
99.138
 10
224.471
 20
99.15
 10
224.409
 20
99.171
 10
224.35
 20
99.2
 10
224.296
 20
99.237
 10
224.246
 20
99.28
 10
224.203
 20
99.329
 10
224.167
 20
99.383
 10
224.138
 20
99.442
 10
224.117
 20
99.504
 10
224.104
 20
99.568
 10
224.1
 20
99.633
 10
224.104
 20
99.699
 10
224.117
 20
99.763
 10
224.138
 20
99.825
 10
224.167
 20
99.883
 10
224.203
 20
99.938
 10
224.246
 20
99.987
 10
224.296
 20
100.03
 10
224.35
 20
100.066
 10
224.409
 20
100.095
 10
224.471
 20
100.116
 10
224.535
 20
100.129
 10
224.6
 20
100.133
 10
224.665
 20
100.129
 10
224.729
 20
100.116
 10
224.791
 20
100.095
 10
224.85
 20
100.066
 10
224.904
 20
100.03
 10
224.954
 20
99.987
 10
224.997
 20
99.938
 10
225.033
 20
99.883
 10
225.062
 20
99.825
 10
225.083
 20
99.763
 10
225.096
 20
99.699
 97
0
 75
0
 76
1
 98
0
  0
HATCH
  5
64
330
17
100
AcDbEntity
  8
RASTER
 62
7
100
AcDbHatch
 10
0.0
 20
0.0
 30
0.0
210
0.0
220
0.0
230
1.0
  2
SOLID
 70
1
 71
0
 91
1
 92
3
 72
0
 73
1
 93
48
 10
251.9
 20
99.633
 10
251.896
 20
99.568
 10
251.883
 20
99.504
 10
251.862
 20
99.442
 10
251.833
 20
99.383
 10
251.797
 20
99.329
 10
251.754
 20
99.28
 10
251.704
 20
99.237
 10
251.65
 20
99.2
 10
251.591
 20
99.171
 10
251.529
 20
99.15
 10
251.465
 20
99.138
 10
251.4
 20
99.133
 10
251.335
 20
99.138
 10
251.271
 20
99.15
 10
251.209
 20
99.171
 10
251.15
 20
99.2
 10
251.096
 20
99.237
 10
251.046
 20
99.28
 10
251.003
 20
99.329
 10
250.967
 20
99.383
 10
250.938
 20
99.442
 10
250.917
 20
99.504
 10
250.904
 20
99.568
 10
250.9
 20
99.633
 10
250.904
 20
99.699
 10
250.917
 20
99.763
 10
250.938
 20
99.825
 10
250.967
 20
99.883
 10
251.003
 20
99.938
 10
251.046
 20
99.987
 10
251.096
 20
100.03
 10
251.15
 20
100.066
 10
251.209
 20
100.095
 10
251.271
 20
100.116
 10
251.335
 20
100.129
 10
251.4
 20
100.133
 10
251.465
 20
100.129
 10
251.529
 20
100.116
 10
251.591
 20
100.095
 10
251.65
 20
100.066
 10
251.704
 20
100.03
 10
251.754
 20
99.987
 10
251.797
 20
99.938
 10
251.833
 20
99.883
 10
251.862
 20
99.825
 10
251.883
 20
99.763
 10
251.896
 20
99.699
 97
0
 75
0
 76
1
 98
0
  0
HATCH
  5
65
330
17
100
AcDbEntity
  8
RASTER
 62
7
100
AcDbHatch
 10
0.0
 20
0.0
 30
0.0
210
0.0
220
0.0
230
1.0
  2
SOLID
 70
1
 71
0
 91
1
 92
3
 72
0
 73
1
 93
48
 10
225.1
 20
94.5
 10
225.096
 20
94.435
 10
225.083
 20
94.371
 10
225.062
 20
94.309
 10
225.033
 20
94.25
 10
224.997
 20
94.196
 10
224.954
 20
94.146
 10
224.904
 20
94.103
 10
224.85
 20
94.067
 10
224.791
 20
94.038
 10
224.729
 20
94.017
 10
224.665
 20
94.004
 10
224.6
 20
94.0
 10
224.535
 20
94.004
 10
224.471
 20
94.017
 10
224.409
 20
94.038
 10
224.35
 20
94.067
 10
224.296
 20
94.103
 10
224.246
 20
94.146
 10
224.203
 20
94.196
 10
224.167
 20
94.25
 10
224.138
 20
94.309
 10
224.117
 20
94.371
 10
224.104
 20
94.435
 10
224.1
 20
94.5
 10
224.104
 20
94.565
 10
224.117
 20
94.629
 10
224.138
 20
94.691
 10
224.167
 20
94.75
 10
224.203
 20
94.804
 10
224.246
 20
94.854
 10
224.296
 20
94.897
 10
224.35
 20
94.933
 10
224.409
 20
94.962
 10
224.471
 20
94.983
 10
224.535
 20
94.996
 10
224.6
 20
95.0
 10
224.665
 20
94.996
 10
224.729
 20
94.983
 10
224.791
 20
94.962
 10
224.85
 20
94.933
 10
224.904
 20
94.897
 10
224.954
 20
94.854
 10
224.997
 20
94.804
 10
225.033
 20
94.75
 10
225.062
 20
94.691
 10
225.083
 20
94.629
 10
225.096
 20
94.565
 97
0
 75
0
 76
1
 98
0
  0
HATCH
  5
66
330
17
100
AcDbEntity
  8
RASTER
 62
7
100
AcDbHatch
 10
0.0
 20
0.0
 30
0.0
210
0.0
220
0.0
230
1.0
  2
SOLID
 70
1
 71
0
 91
1
 92
3
 72
0
 73
1
 93
48
 10
251.9
 20
94.5
 10
251.896
 20
94.435
 10
251.883
 20
94.371
 10
251.862
 20
94.309
 10
251.833
 20
94.25
 10
251.797
 20
94.196
 10
251.754
 20
94.146
 10
251.704
 20
94.103
 10
251.65
 20
94.067
 10
251.591
 20
94.038
 10
251.529
 20
94.017
 10
251.465
 20
94.004
 10
251.4
 20
94.0
 10
251.335
 20
94.004
 10
251.271
 20
94.017
 10
251.209
 20
94.038
 10
251.15
 20
94.067
 10
251.096
 20
94.103
 10
251.046
 20
94.146
 10
251.003
 20
94.196
 10
250.967
 20
94.25
 10
250.938
 20
94.309
 10
250.917
 20
94.371
 10
250.904
 20
94.435
 10
250.9
 20
94.5
 10
250.904
 20
94.565
 10
250.917
 20
94.629
 10
250.938
 20
94.691
 10
250.967
 20
94.75
 10
251.003
 20
94.804
 10
251.046
 20
94.854
 10
251.096
 20
94.897
 10
251.15
 20
94.933
 10
251.209
 20
94.962
 10
251.271
 20
94.983
 10
251.335
 20
94.996
 10
251.4
 20
95.0
 10
251.465
 20
94.996
 10
251.529
 20
94.983
 10
251.591
 20
94.962
 10
251.65
 20
94.933
 10
251.704
 20
94.897
 10
251.754
 20
94.854
 10
251.797
 20
94.804
 10
251.833
 20
94.75
 10
251.862
 20
94.691
 10
251.883
 20
94.629
 10
251.896
 20
94.565
 97
0
 75
0
 76
1
 98
0
  0
HATCH
  5
67
330
17
100
AcDbEntity
  8
RASTER
 62
7
100
AcDbHatch
 10
0.0
 20
0.0
 30
0.0
210
0.0
220
0.0
230
1.0
  2
SOLID
 70
1
 71
0
 91
1
 92
3
 72
0
 73
1
 93
48
 10
225.1
 20
89.367
 10
225.096
 20
89.301
 10
225.083
 20
89.237
 10
225.062
 20
89.175
 10
225.033
 20
89.117
 10
224.997
 20
89.062
 10
224.954
 20
89.013
 10
224.904
 20
88.97
 10
224.85
 20
88.934
 10
224.791
 20
88.905
 10
224.729
 20
88.884
 10
224.665
 20
88.871
 10
224.6
 20
88.867
 10
224.535
 20
88.871
 10
224.471
 20
88.884
 10
224.409
 20
88.905
 10
224.35
 20
88.934
 10
224.296
 20
88.97
 10
224.246
 20
89.013
 10
224.203
 20
89.062
 10
224.167
 20
89.117
 10
224.138
 20
89.175
 10
224.117
 20
89.237
 10
224.104
 20
89.301
 10
224.1
 20
89.367
 10
224.104
 20
89.432
 10
224.117
 20
89.496
 10
224.138
 20
89.558
 10
224.167
 20
89.617
 10
224.203
 20
89.671
 10
224.246
 20
89.72
 10
224.296
 20
89.763
 10
224.35
 20
89.8
 10
224.409
 20
89.829
 10
224.471
 20
89.85
 10
224.535
 20
89.862
 10
224.6
 20
89.867
 10
224.665
 20
89.862
 10
224.729
 20
89.85
 10
224.791
 20
89.829
 10
224.85
 20
89.8
 10
224.904
 20
89.763
 10
224.954
 20
89.72
 10
224.997
 20
89.671
 10
225.033
 20
89.617
 10
225.062
 20
89.558
 10
225.083
 20
89.496
 10
225.096
 20
89.432
 97
0
 75
0
 76
1
 98
0
  0
HATCH
  5
68
330
17
100
AcDbEntity
  8
RASTER
 62
7
100
AcDbHatch
 10
0.0
 20
0.0
 30
0.0
210
0.0
220
0.0
230
1.0
  2
SOLID
 70
1
 71
0
 91
1
 92
3
 72
0
 73
1
 93
48
 10
251.9
 20
89.367
 10
251.896
 20
89.301
 10
251.883
 20
89.237
 10
251.862
 20
89.175
 10
251.833
 20
89.117
 10
251.797
 20
89.062
 10
251.754
 20
89.013
 10
251.704
 20
88.97
 10
251.65
 20
88.934
 10
251.591
 20
88.905
 10
251.529
 20
88.884
 10
251.465
 20
88.871
 10
251.4
 20
88.867
 10
251.335
 20
88.871
 10
251.271
 20
88.884
 10
251.209
 20
88.905
 10
251.15
 20
88.934
 10
251.096
 20
88.97
 10
251.046
 20
89.013
 10
251.003
 20
89.062
 10
250.967
 20
89.117
 10
250.938
 20
89.175
 10
250.917
 20
89.237
 10
250.904
 20
89.301
 10
250.9
 20
89.367
 10
250.904
 20
89.432
 10
250.917
 20
89.496
 10
250.938
 20
89.558
 10
250.967
 20
89.617
 10
251.003
 20
89.671
 10
251.046
 20
89.72
 10
251.096
 20
89.763
 10
251.15
 20
89.8
 10
251.209
 20
89.829
 10
251.271
 20
89.85
 10
251.335
 20
89.862
 10
251.4
 20
89.867
 10
251.465
 20
89.862
 10
251.529
 20
89.85
 10
251.591
 20
89.829
 10
251.65
 20
89.8
 10
251.704
 20
89.763
 10
251.754
 20
89.72
 10
251.797
 20
89.671
 10
251.833
 20
89.617
 10
251.862
 20
89.558
 10
251.883
 20
89.496
 10
251.896
 20
89.432
 97
0
 75
0
 76
1
 98
0
  0
LWPOLYLINE
  5
69
330
17
100
AcDbEntity
  8
CUT
100
AcDbPolyline
 90
28
 70
1
 10
7.0
 20
68.09
 10
45.0
 20
68.09
 10
48.09
 20
68.09
 10
48.09
 20
62.91
 10
45.09
 20
62.91
 10
45.09
 20
58.09
 10
48.09
 20
58.09
 10
48.09
 20
52.91
 10
45.0
 20
52.91
 10
39.661
 20
52.91
 10
39.661
 20
49.91
 10
34.053
 20
49.91
 10
34.053
 20
52.91
 10
28.804
 20
52.91
 10
28.804
 20
49.91
 10
23.196
 20
49.91
 10
23.196
 20
52.91
 10
17.947
 20
52.91
 10
17.947
 20
49.91
 10
12.339
 20
49.91
 10
12.339
 20
52.91
 10
7.0
 20
52.91
 10
3.91
 20
52.91
 10
3.91
 20
58.09
 10
6.91
 20
58.09
 10
6.91
 20
62.91
 10
3.91
 20
62.91
 10
3.91
 20
68.09
  0
LWPOLYLINE
  5
6A
330
17
100
AcDbEntity
  8
CUT
100
AcDbPolyline
 90
4
 70
1
 10
11.09
 20
63.677
 10
40.91
 20
63.677
 10
40.91
 20
62.457
 10
11.09
 20
62.457
  0
LWPOLYLINE
  5
6B
330
17
100
AcDbEntity
  8
CUT
100
AcDbPolyline
 90
4
 70
1
 10
11.09
 20
58.543
 10
40.91
 20
58.543
 10
40.91
 20
57.323
 10
11.09
 20
57.323
  0
HATCH
  5
6C
330
17
100
AcDbEntity
  8
RASTER
 62
7
100
AcDbHatch
 10
0.0
 20
0.0
 30
0.0
210
0.0
220
0.0
230
1.0
  2
SOLID
 70
1
 71
0
 91
1
 92
3
 72
0
 73
1
 93
4
 10
7.6
 20
67.6
 10
10.4
 20
67.6
 10
10.4
 20
53.4
 10
7.6
 20
53.4
 97
0
 75
0
 76
1
 98
0
  0
HATCH
  5
6D
330
17
100
AcDbEntity
  8
RASTER
 62
7
100
AcDbHatch
 10
0.0
 20
0.0
 30
0.0
210
0.0
220
0.0
230
1.0
  2
SOLID
 70
1
 71
0
 91
1
 92
3
 72
0
 73
1
 93
4
 10
41.6
 20
67.6
 10
44.4
 20
67.6
 10
44.4
 20
53.4
 10
41.6
 20
53.4
 97
0
 75
0
 76
1
 98
0
  0
HATCH
  5
6E
330
17
100
AcDbEntity
  8
RASTER
 62
7
100
AcDbHatch
 10
0.0
 20
0.0
 30
0.0
210
0.0
220
0.0
230
1.0
  2
SOLID
 70
1
 71
0
 91
1
 92
3
 72
0
 73
1
 93
48
 10
13.1
 20
65.633
 10
13.096
 20
65.568
 10
13.083
 20
65.504
 10
13.062
 20
65.442
 10
13.033
 20
65.383
 10
12.997
 20
65.329
 10
12.954
 20
65.28
 10
12.904
 20
65.237
 10
12.85
 20
65.2
 10
12.791
 20
65.171
 10
12.729
 20
65.15
 10
12.665
 20
65.138
 10
12.6
 20
65.133
 10
12.535
 20
65.138
 10
12.471
 20
65.15
 10
12.409
 20
65.171
 10
12.35
 20
65.2
 10
12.296
 20
65.237
 10
12.246
 20
65.28
 10
12.203
 20
65.329
 10
12.167
 20
65.383
 10
12.138
 20
65.442
 10
12.117
 20
65.504
 10
12.104
 20
65.568
 10
12.1
 20
65.633
 10
12.104
 20
65.699
 10
12.117
 20
65.763
 10
12.138
 20
65.825
 10
12.167
 20
65.883
 10
12.203
 20
65.938
 10
12.246
 20
65.987
 10
12.296
 20
66.03
 10
12.35
 20
66.066
 10
12.409
 20
66.095
 10
12.471
 20
66.116
 10
12.535
 20
66.129
 10
12.6
 20
66.133
 10
12.665
 20
66.129
 10
12.729
 20
66.116
 10
12.791
 20
66.095
 10
12.85
 20
66.066
 10
12.904
 20
66.03
 10
12.954
 20
65.987
 10
12.997
 20
65.938
 10
13.033
 20
65.883
 10
13.062
 20
65.825
 10
13.083
 20
65.763
 10
13.096
 20
65.699
 97
0
 75
0
 76
1
 98
0
  0
HATCH
  5
6F
330
17
100
AcDbEntity
  8
RASTER
 62
7
100
AcDbHatch
 10
0.0
 20
0.0
 30
0.0
210
0.0
220
0.0
230
1.0
  2
SOLID
 70
1
 71
0
 91
1
 92
3
 72
0
 73
1
 93
48
 10
39.9
 20
65.633
 10
39.896
 20
65.568
 10
39.883
 20
65.504
 10
39.862
 20
65.442
 10
39.833
 20
65.383
 10
39.797
 20
65.329
 10
39.754
 20
65.28
 10
39.704
 20
65.237
 10
39.65
 20
65.2
 10
39.591
 20
65.171
 10
39.529
 20
65.15
 10
39.465
 20
65.138
 10
39.4
 20
65.133
 10
39.335
 20
65.138
 10
39.271
 20
65.15
 10
39.209
 20
65.171
 10
39.15
 20
65.2
 10
39.096
 20
65.237
 10
39.046
 20
65.28
 10
39.003
 20
65.329
 10
38.967
 20
65.383
 10
38.938
 20
65.442
 10
38.917
 20
65.504
 10
38.904
 20
65.568
 10
38.9
 20
65.633
 10
38.904
 20
65.699
 10
38.917
 20
65.763
 10
38.938
 20
65.825
 10
38.967
 20
65.883
 10
39.003
 20
65.938
 10
39.046
 20
65.987
 10
39.096
 20
66.03
 10
39.15
 20
66.066
 10
39.209
 20
66.095
 10
39.271
 20
66.116
 10
39.335
 20
66.129
 10
39.4
 20
66.133
 10
39.465
 20
66.129
 10
39.529
 20
66.116
 10
39.591
 20
66.095
 10
39.65
 20
66.066
 10
39.704
 20
66.03
 10
39.754
 20
65.987
 10
39.797
 20
65.938
 10
39.833
 20
65.883
 10
39.862
 20
65.825
 10
39.883
 20
65.763
 10
39.896
 20
65.699
 97
0
 75
0
 76
1
 98
0
  0
HATCH
  5
70
330
17
100
AcDbEntity
  8
RASTER
 62
7
100
AcDbHatch
 10
0.0
 20
0.0
 30
0.0
210
0.0
220
0.0
230
1.0
  2
SOLID
 70
1
 71
0
 91
1
 92
3
 72
0
 73
1
 93
48
 10
13.1
 20
60.5
 10
13.096
 20
60.435
 10
13.083
 20
60.371
 10
13.062
 20
60.309
 10
13.033
 20
60.25
 10
12.997
 20
60.196
 10
12.954
 20
60.146
 10
12.904
 20
60.103
 10
12.85
 20
60.067
 10
12.791
 20
60.038
 10
12.729
 20
60.017
 10
12.665
 20
60.004
 10
12.6
 20
60.0
 10
12.535
 20
60.004
 10
12.471
 20
60.017
 10
12.409
 20
60.038
 10
12.35
 20
60.067
 10
12.296
 20
60.103
 10
12.246
 20
60.146
 10
12.203
 20
60.196
 10
12.167
 20
60.25
 10
12.138
 20
60.309
 10
12.117
 20
60.371
 10
12.104
 20
60.435
 10
12.1
 20
60.5
 10
12.104
 20
60.565
 10
12.117
 20
60.629
 10
12.138
 20
60.691
 10
12.167
 20
60.75
 10
12.203
 20
60.804
 10
12.246
 20
60.854
 10
12.296
 20
60.897
 10
12.35
 20
60.933
 10
12.409
 20
60.962
 10
12.471
 20
60.983
 10
12.535
 20
60.996
 10
12.6
 20
61.0
 10
12.665
 20
60.996
 10
12.729
 20
60.983
 10
12.791
 20
60.962
 10
12.85
 20
60.933
 10
12.904
 20
60.897
 10
12.954
 20
60.854
 10
12.997
 20
60.804
 10
13.033
 20
60.75
 10
13.062
 20
60.691
 10
13.083
 20
60.629
 10
13.096
 20
60.565
 97
0
 75
0
 76
1
 98
0
  0
HATCH
  5
71
330
17
100
AcDbEntity
  8
RASTER
 62
7
100
AcDbHatch
 10
0.0
 20
0.0
 30
0.0
210
0.0
220
0.0
230
1.0
  2
SOLID
 70
1
 71
0
 91
1
 92
3
 72
0
 73
1
 93
48
 10
39.9
 20
60.5
 10
39.896
 20
60.435
 10
39.883
 20
60.371
 10
39.862
 20
60.309
 10
39.833
 20
60.25
 10
39.797
 20
60.196
 10
39.754
 20
60.146
 10
39.704
 20
60.103
 10
39.65
 20
60.067
 10
39.591
 20
60.038
 10
39.529
 20
60.017
 10
39.465
 20
60.004
 10
39.4
 20
60.0
 10
39.335
 20
60.004
 10
39.271
 20
60.017
 10
39.209
 20
60.038
 10
39.15
 20
60.067
 10
39.096
 20
60.103
 10
39.046
 20
60.146
 10
39.003
 20
60.196
 10
38.967
 20
60.25
 10
38.938
 20
60.309
 10
38.917
 20
60.371
 10
38.904
 20
60.435
 10
38.9
 20
60.5
 10
38.904
 20
60.565
 10
38.917
 20
60.629
 10
38.938
 20
60.691
 10
38.967
 20
60.75
 10
39.003
 20
60.804
 10
39.046
 20
60.854
 10
39.096
 20
60.897
 10
39.15
 20
60.933
 10
39.209
 20
60.962
 10
39.271
 20
60.983
 10
39.335
 20
60.996
 10
39.4
 20
61.0
 10
39.465
 20
60.996
 10
39.529
 20
60.983
 10
39.591
 20
60.962
 10
39.65
 20
60.933
 10
39.704
 20
60.897
 10
39.754
 20
60.854
 10
39.797
 20
60.804
 10
39.833
 20
60.75
 10
39.862
 20
60.691
 10
39.883
 20
60.629
 10
39.896
 20
60.565
 97
0
 75
0
 76
1
 98
0
  0
HATCH
  5
72
330
17
100
AcDbEntity
  8
RASTER
 62
7
100
AcDbHatch
 10
0.0
 20
0.0
 30
0.0
210
0.0
220
0.0
230
1.0
  2
SOLID
 70
1
 71
0
 91
1
 92
3
 72
0
 73
1
 93
48
 10
13.1
 20
55.367
 10
13.096
 20
55.301
 10
13.083
 20
55.237
 10
13.062
 20
55.175
 10
13.033
 20
55.117
 10
12.997
 20
55.062
 10
12.954
 20
55.013
 10
12.904
 20
54.97
 10
12.85
 20
54.934
 10
12.791
 20
54.905
 10
12.729
 20
54.884
 10
12.665
 20
54.871
 10
12.6
 20
54.867
 10
12.535
 20
54.871
 10
12.471
 20
54.884
 10
12.409
 20
54.905
 10
12.35
 20
54.934
 10
12.296
 20
54.97
 10
12.246
 20
55.013
 10
12.203
 20
55.062
 10
12.167
 20
55.117
 10
12.138
 20
55.175
 10
12.117
 20
55.237
 10
12.104
 20
55.301
 10
12.1
 20
55.367
 10
12.104
 20
55.432
 10
12.117
 20
55.496
 10
12.138
 20
55.558
 10
12.167
 20
55.617
 10
12.203
 20
55.671
 10
12.246
 20
55.72
 10
12.296
 20
55.763
 10
12.35
 20
55.8
 10
12.409
 20
55.829
 10
12.471
 20
55.85
 10
12.535
 20
55.862
 10
12.6
 20
55.867
 10
12.665
 20
55.862
 10
12.729
 20
55.85
 10
12.791
 20
55.829
 10
12.85
 20
55.8
 10
12.904
 20
55.763
 10
12.954
 20
55.72
 10
12.997
 20
55.671
 10
13.033
 20
55.617
 10
13.062
 20
55.558
 10
13.083
 20
55.496
 10
13.096
 20
55.432
 97
0
 75
0
 76
1
 98
0
  0
HATCH
  5
73
330
17
100
AcDbEntity
  8
RASTER
 62
7
100
AcDbHatch
 10
0.0
 20
0.0
 30
0.0
210
0.0
220
0.0
230
1.0
  2
SOLID
 70
1
 71
0
 91
1
 92
3
 72
0
 73
1
 93
48
 10
39.9
 20
55.367
 10
39.896
 20
55.301
 10
39.883
 20
55.237
 10
39.862
 20
55.175
 10
39.833
 20
55.117
 10
39.797
 20
55.062
 10
39.754
 20
55.013
 10
39.704
 20
54.97
 10
39.65
 20
54.934
 10
39.591
 20
54.905
 10
39.529
 20
54.884
 10
39.465
 20
54.871
 10
39.4
 20
54.867
 10
39.335
 20
54.871
 10
39.271
 20
54.884
 10
39.209
 20
54.905
 10
39.15
 20
54.934
 10
39.096
 20
54.97
 10
39.046
 20
55.013
 10
39.003
 20
55.062
 10
38.967
 20
55.117
 10
38.938
 20
55.175
 10
38.917
 20
55.237
 10
38.904
 20
55.301
 10
38.9
 20
55.367
 10
38.904
 20
55.432
 10
38.917
 20
55.496
 10
38.938
 20
55.558
 10
38.967
 20
55.617
 10
39.003
 20
55.671
 10
39.046
 20
55.72
 10
39.096
 20
55.763
 10
39.15
 20
55.8
 10
39.209
 20
55.829
 10
39.271
 20
55.85
 10
39.335
 20
55.862
 10
39.4
 20
55.867
 10
39.465
 20
55.862
 10
39.529
 20
55.85
 10
39.591
 20
55.829
 10
39.65
 20
55.8
 10
39.704
 20
55.763
 10
39.754
 20
55.72
 10
39.797
 20
55.671
 10
39.833
 20
55.617
 10
39.862
 20
55.558
 10
39.883
 20
55.496
 10
39.896
 20
55.432
 97
0
 75
0
 76
1
 98
0
  0
LWPOLYLINE
  5
74
330
17
100
AcDbEntity
  8
CUT
100
AcDbPolyline
 90
20
 70
1
 10
54.91
 20
68.09
 10
79.09
 20
68.09
 10
79.09
 20
63.09
 10
82.09
 20
63.09
 10
82.09
 20
57.91
 10
79.09
 20
57.91
 10
79.09
 20
52.91
 10
74.29
 20
52.91
 10
74.29
 20
49.91
 10
69.31
 20
49.91
 10
69.31
 20
52.91
 10
64.69
 20
52.91
 10
64.69
 20
49.91
 10
59.71
 20
49.91
 10
59.71
 20
52.91
 10
54.91
 20
52.91
 10
54.91
 20
57.91
 10
51.91
 20
57.91
 10
51.91
 20
63.09
 10
54.91
 20
63.09
  0
LWPOLYLINE
  5
75
330
17
100
AcDbEntity
  8
CUT
100
AcDbPolyline
 90
4
 70
1
 10
59.09
 20
63.677
 10
74.91
 20
63.677
 10
74.91
 20
62.457
 10
59.09
 20
62.457
  0
LWPOLYLINE
  5
76
330
17
100
AcDbEntity
  8
CUT
100
AcDbPolyline
 90
4
 70
1
 10
59.09
 20
58.543
 10
74.91
 20
58.543
 10
74.91
 20
57.323
 10
59.09
 20
57.323
  0
HATCH
  5
77
330
17
100
AcDbEntity
  8
RASTER
 62
7
100
AcDbHatch
 10
0.0
 20
0.0
 30
0.0
210
0.0
220
0.0
230
1.0
  2
SOLID
 70
1
 71
0
 91
1
 92
3
 72
0
 73
1
 93
4
 10
55.6
 20
67.6
 10
58.4
 20
67.6
 10
58.4
 20
53.4
 10
55.6
 20
53.4
 97
0
 75
0
 76
1
 98
0
  0
HATCH
  5
78
330
17
100
AcDbEntity
  8
RASTER
 62
7
100
AcDbHatch
 10
0.0
 20
0.0
 30
0.0
210
0.0
220
0.0
230
1.0
  2
SOLID
 70
1
 71
0
 91
1
 92
3
 72
0
 73
1
 93
4
 10
75.6
 20
67.6
 10
78.4
 20
67.6
 10
78.4
 20
53.4
 10
75.6
 20
53.4
 97
0
 75
0
 76
1
 98
0
  0
HATCH
  5
79
330
17
100
AcDbEntity
  8
RASTER
 62
7
100
AcDbHatch
 10
0.0
 20
0.0
 30
0.0
210
0.0
220
0.0
230
1.0
  2
SOLID
 70
1
 71
0
 91
1
 92
3
 72
0
 73
1
 93
48
 10
61.1
 20
65.633
 10
61.096
 20
65.568
 10
61.083
 20
65.504
 10
61.062
 20
65.442
 10
61.033
 20
65.383
 10
60.997
 20
65.329
 10
60.954
 20
65.28
 10
60.904
 20
65.237
 10
60.85
 20
65.2
 10
60.791
 20
65.171
 10
60.729
 20
65.15
 10
60.665
 20
65.138
 10
60.6
 20
65.133
 10
60.535
 20
65.138
 10
60.471
 20
65.15
 10
60.409
 20
65.171
 10
60.35
 20
65.2
 10
60.296
 20
65.237
 10
60.246
 20
65.28
 10
60.203
 20
65.329
 10
60.167
 20
65.383
 10
60.138
 20
65.442
 10
60.117
 20
65.504
 10
60.104
 20
65.568
 10
60.1
 20
65.633
 10
60.104
 20
65.699
 10
60.117
 20
65.763
 10
60.138
 20
65.825
 10
60.167
 20
65.883
 10
60.203
 20
65.938
 10
60.246
 20
65.987
 10
60.296
 20
66.03
 10
60.35
 20
66.066
 10
60.409
 20
66.095
 10
60.471
 20
66.116
 10
60.535
 20
66.129
 10
60.6
 20
66.133
 10
60.665
 20
66.129
 10
60.729
 20
66.116
 10
60.791
 20
66.095
 10
60.85
 20
66.066
 10
60.904
 20
66.03
 10
60.954
 20
65.987
 10
60.997
 20
65.938
 10
61.033
 20
65.883
 10
61.062
 20
65.825
 10
61.083
 20
65.763
 10
61.096
 20
65.699
 97
0
 75
0
 76
1
 98
0
  0
HATCH
  5
7A
330
17
100
AcDbEntity
  8
RASTER
 62
7
100
AcDbHatch
 10
0.0
 20
0.0
 30
0.0
210
0.0
220
0.0
230
1.0
  2
SOLID
 70
1
 71
0
 91
1
 92
3
 72
0
 73
1
 93
48
 10
73.9
 20
65.633
 10
73.896
 20
65.568
 10
73.883
 20
65.504
 10
73.862
 20
65.442
 10
73.833
 20
65.383
 10
73.797
 20
65.329
 10
73.754
 20
65.28
 10
73.704
 20
65.237
 10
73.65
 20
65.2
 10
73.591
 20
65.171
 10
73.529
 20
65.15
 10
73.465
 20
65.138
 10
73.4
 20
65.133
 10
73.335
 20
65.138
 10
73.271
 20
65.15
 10
73.209
 20
65.171
 10
73.15
 20
65.2
 10
73.096
 20
65.237
 10
73.046
 20
65.28
 10
73.003
 20
65.329
 10
72.967
 20
65.383
 10
72.938
 20
65.442
 10
72.917
 20
65.504
 10
72.904
 20
65.568
 10
72.9
 20
65.633
 10
72.904
 20
65.699
 10
72.917
 20
65.763
 10
72.938
 20
65.825
 10
72.967
 20
65.883
 10
73.003
 20
65.938
 10
73.046
 20
65.987
 10
73.096
 20
66.03
 10
73.15
 20
66.066
 10
73.209
 20
66.095
 10
73.271
 20
66.116
 10
73.335
 20
66.129
 10
73.4
 20
66.133
 10
73.465
 20
66.129
 10
73.529
 20
66.116
 10
73.591
 20
66.095
 10
73.65
 20
66.066
 10
73.704
 20
66.03
 10
73.754
 20
65.987
 10
73.797
 20
65.938
 10
73.833
 20
65.883
 10
73.862
 20
65.825
 10
73.883
 20
65.763
 10
73.896
 20
65.699
 97
0
 75
0
 76
1
 98
0
  0
HATCH
  5
7B
330
17
100
AcDbEntity
  8
RASTER
 62
7
100
AcDbHatch
 10
0.0
 20
0.0
 30
0.0
210
0.0
220
0.0
230
1.0
  2
SOLID
 70
1
 71
0
 91
1
 92
3
 72
0
 73
1
 93
48
 10
61.1
 20
60.5
 10
61.096
 20
60.435
 10
61.083
 20
60.371
 10
61.062
 20
60.309
 10
61.033
 20
60.25
 10
60.997
 20
60.196
 10
60.954
 20
60.146
 10
60.904
 20
60.103
 10
60.85
 20
60.067
 10
60.791
 20
60.038
 10
60.729
 20
60.017
 10
60.665
 20
60.004
 10
60.6
 20
60.0
 10
60.535
 20
60.004
 10
60.471
 20
60.017
 10
60.409
 20
60.038
 10
60.35
 20
60.067
 10
60.296
 20
60.103
 10
60.246
 20
60.146
 10
60.203
 20
60.196
 10
60.167
 20
60.25
 10
60.138
 20
60.309
 10
60.117
 20
60.371
 10
60.104
 20
60.435
 10
60.1
 20
60.5
 10
60.104
 20
60.565
 10
60.117
 20
60.629
 10
60.138
 20
60.691
 10
60.167
 20
60.75
 10
60.203
 20
60.804
 10
60.246
 20
60.854
 10
60.296
 20
60.897
 10
60.35
 20
60.933
 10
60.409
 20
60.962
 10
60.471
 20
60.983
 10
60.535
 20
60.996
 10
60.6
 20
61.0
 10
60.665
 20
60.996
 10
60.729
 20
60.983
 10
60.791
 20
60.962
 10
60.85
 20
60.933
 10
60.904
 20
60.897
 10
60.954
 20
60.854
 10
60.997
 20
60.804
 10
61.033
 20
60.75
 10
61.062
 20
60.691
 10
61.083
 20
60.629
 10
61.096
 20
60.565
 97
0
 75
0
 76
1
 98
0
  0
HATCH
  5
7C
330
17
100
AcDbEntity
  8
RASTER
 62
7
100
AcDbHatch
 10
0.0
 20
0.0
 30
0.0
210
0.0
220
0.0
230
1.0
  2
SOLID
 70
1
 71
0
 91
1
 92
3
 72
0
 73
1
 93
48
 10
73.9
 20
60.5
 10
73.896
 20
60.435
 10
73.883
 20
60.371
 10
73.862
 20
60.309
 10
73.833
 20
60.25
 10
73.797
 20
60.196
 10
73.754
 20
60.146
 10
73.704
 20
60.103
 10
73.65
 20
60.067
 10
73.591
 20
60.038
 10
73.529
 20
60.017
 10
73.465
 20
60.004
 10
73.4
 20
60.0
 10
73.335
 20
60.004
 10
73.271
 20
60.017
 10
73.209
 20
60.038
 10
73.15
 20
60.067
 10
73.096
 20
60.103
 10
73.046
 20
60.146
 10
73.003
 20
60.196
 10
72.967
 20
60.25
 10
72.938
 20
60.309
 10
72.917
 20
60.371
 10
72.904
 20
60.435
 10
72.9
 20
60.5
 10
72.904
 20
60.565
 10
72.917
 20
60.629
 10
72.938
 20
60.691
 10
72.967
 20
60.75
 10
73.003
 20
60.804
 10
73.046
 20
60.854
 10
73.096
 20
60.897
 10
73.15
 20
60.933
 10
73.209
 20
60.962
 10
73.271
 20
60.983
 10
73.335
 20
60.996
 10
73.4
 20
61.0
 10
73.465
 20
60.996
 10
73.529
 20
60.983
 10
73.591
 20
60.962
 10
73.65
 20
60.933
 10
73.704
 20
60.897
 10
73.754
 20
60.854
 10
73.797
 20
60.804
 10
73.833
 20
60.75
 10
73.862
 20
60.691
 10
73.883
 20
60.629
 10
73.896
 20
60.565
 97
0
 75
0
 76
1
 98
0
  0
HATCH
  5
7D
330
17
100
AcDbEntity
  8
RASTER
 62
7
100
AcDbHatch
 10
0.0
 20
0.0
 30
0.0
210
0.0
220
0.0
230
1.0
  2
SOLID
 70
1
 71
0
 91
1
 92
3
 72
0
 73
1
 93
48
 10
61.1
 20
55.367
 10
61.096
 20
55.301
 10
61.083
 20
55.237
 10
61.062
 20
55.175
 10
61.033
 20
55.117
 10
60.997
 20
55.062
 10
60.954
 20
55.013
 10
60.904
 20
54.97
 10
60.85
 20
54.934
 10
60.791
 20
54.905
 10
60.729
 20
54.884
 10
60.665
 20
54.871
 10
60.6
 20
54.867
 10
60.535
 20
54.871
 10
60.471
 20
54.884
 10
60.409
 20
54.905
 10
60.35
 20
54.934
 10
60.296
 20
54.97
 10
60.246
 20
55.013
 10
60.203
 20
55.062
 10
60.167
 20
55.117
 10
60.138
 20
55.175
 10
60.117
 20
55.237
 10
60.104
 20
55.301
 10
60.1
 20
55.367
 10
60.104
 20
55.432
 10
60.117
 20
55.496
 10
60.138
 20
55.558
 10
60.167
 20
55.617
 10
60.203
 20
55.671
 10
60.246
 20
55.72
 10
60.296
 20
55.763
 10
60.35
 20
55.8
 10
60.409
 20
55.829
 10
60.471
 20
55.85
 10
60.535
 20
55.862
 10
60.6
 20
55.867
 10
60.665
 20
55.862
 10
60.729
 20
55.85
 10
60.791
 20
55.829
 10
60.85
 20
55.8
 10
60.904
 20
55.763
 10
60.954
 20
55.72
 10
60.997
 20
55.671
 10
61.033
 20
55.617
 10
61.062
 20
55.558
 10
61.083
 20
55.496
 10
61.096
 20
55.432
 97
0
 75
0
 76
1
 98
0
  0
HATCH
  5
7E
330
17
100
AcDbEntity
  8
RASTER
 62
7
100
AcDbHatch
 10
0.0
 20
0.0
 30
0.0
210
0.0
220
0.0
230
1.0
  2
SOLID
 70
1
 71
0
 91
1
 92
3
 72
0
 73
1
 93
48
 10
73.9
 20
55.367
 10
73.896
 20
55.301
 10
73.883
 20
55.237
 10
73.862
 20
55.175
 10
73.833
 20
55.117
 10
73.797
 20
55.062
 10
73.754
 20
55.013
 10
73.704
 20
54.97
 10
73.65
 20
54.934
 10
73.591
 20
54.905
 10
73.529
 20
54.884
 10
73.465
 20
54.871
 10
73.4
 20
54.867
 10
73.335
 20
54.871
 10
73.271
 20
54.884
 10
73.209
 20
54.905
 10
73.15
 20
54.934
 10
73.096
 20
54.97
 10
73.046
 20
55.013
 10
73.003
 20
55.062
 10
72.967
 20
55.117
 10
72.938
 20
55.175
 10
72.917
 20
55.237
 10
72.904
 20
55.301
 10
72.9
 20
55.367
 10
72.904
 20
55.432
 10
72.917
 20
55.496
 10
72.938
 20
55.558
 10
72.967
 20
55.617
 10
73.003
 20
55.671
 10
73.046
 20
55.72
 10
73.096
 20
55.763
 10
73.15
 20
55.8
 10
73.209
 20
55.829
 10
73.271
 20
55.85
 10
73.335
 20
55.862
 10
73.4
 20
55.867
 10
73.465
 20
55.862
 10
73.529
 20
55.85
 10
73.591
 20
55.829
 10
73.65
 20
55.8
 10
73.704
 20
55.763
 10
73.754
 20
55.72
 10
73.797
 20
55.671
 10
73.833
 20
55.617
 10
73.862
 20
55.558
 10
73.883
 20
55.496
 10
73.896
 20
55.432
 97
0
 75
0
 76
1
 98
0
  0
LWPOLYLINE
  5
7F
330
17
100
AcDbEntity
  8
CUT
100
AcDbPolyline
 90
20
 70
1
 10
88.91
 20
68.09
 10
113.09
 20
68.09
 10
113.09
 20
63.09
 10
116.09
 20
63.09
 10
116.09
 20
57.91
 10
113.09
 20
57.91
 10
113.09
 20
52.91
 10
108.29
 20
52.91
 10
108.29
 20
49.91
 10
103.31
 20
49.91
 10
103.31
 20
52.91
 10
98.69
 20
52.91
 10
98.69
 20
49.91
 10
93.71
 20
49.91
 10
93.71
 20
52.91
 10
88.91
 20
52.91
 10
88.91
 20
57.91
 10
85.91
 20
57.91
 10
85.91
 20
63.09
 10
88.91
 20
63.09
  0
LWPOLYLINE
  5
80
330
17
100
AcDbEntity
  8
CUT
100
AcDbPolyline
 90
4
 70
1
 10
93.09
 20
63.677
 10
108.91
 20
63.677
 10
108.91
 20
62.457
 10
93.09
 20
62.457
  0
LWPOLYLINE
  5
81
330
17
100
AcDbEntity
  8
CUT
100
AcDbPolyline
 90
4
 70
1
 10
93.09
 20
58.543
 10
108.91
 20
58.543
 10
108.91
 20
57.323
 10
93.09
 20
57.323
  0
HATCH
  5
82
330
17
100
AcDbEntity
  8
RASTER
 62
7
100
AcDbHatch
 10
0.0
 20
0.0
 30
0.0
210
0.0
220
0.0
230
1.0
  2
SOLID
 70
1
 71
0
 91
1
 92
3
 72
0
 73
1
 93
4
 10
89.6
 20
67.6
 10
92.4
 20
67.6
 10
92.4
 20
53.4
 10
89.6
 20
53.4
 97
0
 75
0
 76
1
 98
0
  0
HATCH
  5
83
330
17
100
AcDbEntity
  8
RASTER
 62
7
100
AcDbHatch
 10
0.0
 20
0.0
 30
0.0
210
0.0
220
0.0
230
1.0
  2
SOLID
 70
1
 71
0
 91
1
 92
3
 72
0
 73
1
 93
4
 10
109.6
 20
67.6
 10
112.4
 20
67.6
 10
112.4
 20
53.4
 10
109.6
 20
53.4
 97
0
 75
0
 76
1
 98
0
  0
HATCH
  5
84
330
17
100
AcDbEntity
  8
RASTER
 62
7
100
AcDbHatch
 10
0.0
 20
0.0
 30
0.0
210
0.0
220
0.0
230
1.0
  2
SOLID
 70
1
 71
0
 91
1
 92
3
 72
0
 73
1
 93
48
 10
95.1
 20
65.633
 10
95.096
 20
65.568
 10
95.083
 20
65.504
 10
95.062
 20
65.442
 10
95.033
 20
65.383
 10
94.997
 20
65.329
 10
94.954
 20
65.28
 10
94.904
 20
65.237
 10
94.85
 20
65.2
 10
94.791
 20
65.171
 10
94.729
 20
65.15
 10
94.665
 20
65.138
 10
94.6
 20
65.133
 10
94.535
 20
65.138
 10
94.471
 20
65.15
 10
94.409
 20
65.171
 10
94.35
 20
65.2
 10
94.296
 20
65.237
 10
94.246
 20
65.28
 10
94.203
 20
65.329
 10
94.167
 20
65.383
 10
94.138
 20
65.442
 10
94.117
 20
65.504
 10
94.104
 20
65.568
 10
94.1
 20
65.633
 10
94.104
 20
65.699
 10
94.117
 20
65.763
 10
94.138
 20
65.825
 10
94.167
 20
65.883
 10
94.203
 20
65.938
 10
94.246
 20
65.987
 10
94.296
 20
66.03
 10
94.35
 20
66.066
 10
94.409
 20
66.095
 10
94.471
 20
66.116
 10
94.535
 20
66.129
 10
94.6
 20
66.133
 10
94.665
 20
66.129
 10
94.729
 20
66.116
 10
94.791
 20
66.095
 10
94.85
 20
66.066
 10
94.904
 20
66.03
 10
94.954
 20
65.987
 10
94.997
 20
65.938
 10
95.033
 20
65.883
 10
95.062
 20
65.825
 10
95.083
 20
65.763
 10
95.096
 20
65.699
 97
0
 75
0
 76
1
 98
0
  0
HATCH
  5
85
330
17
100
AcDbEntity
  8
RASTER
 62
7
100
AcDbHatch
 10
0.0
 20
0.0
 30
0.0
210
0.0
220
0.0
230
1.0
  2
SOLID
 70
1
 71
0
 91
1
 92
3
 72
0
 73
1
 93
48
 10
107.9
 20
65.633
 10
107.896
 20
65.568
 10
107.883
 20
65.504
 10
107.862
 20
65.442
 10
107.833
 20
65.383
 10
107.797
 20
65.329
 10
107.754
 20
65.28
 10
107.704
 20
65.237
 10
107.65
 20
65.2
 10
107.591
 20
65.171
 10
107.529
 20
65.15
 10
107.465
 20
65.138
 10
107.4
 20
65.133
 10
107.335
 20
65.138
 10
107.271
 20
65.15
 10
107.209
 20
65.171
 10
107.15
 20
65.2
 10
107.096
 20
65.237
 10
107.046
 20
65.28
 10
107.003
 20
65.329
 10
106.967
 20
65.383
 10
106.938
 20
65.442
 10
106.917
 20
65.504
 10
106.904
 20
65.568
 10
106.9
 20
65.633
 10
106.904
 20
65.699
 10
106.917
 20
65.763
 10
106.938
 20
65.825
 10
106.967
 20
65.883
 10
107.003
 20
65.938
 10
107.046
 20
65.987
 10
107.096
 20
66.03
 10
107.15
 20
66.066
 10
107.209
 20
66.095
 10
107.271
 20
66.116
 10
107.335
 20
66.129
 10
107.4
 20
66.133
 10
107.465
 20
66.129
 10
107.529
 20
66.116
 10
107.591
 20
66.095
 10
107.65
 20
66.066
 10
107.704
 20
66.03
 10
107.754
 20
65.987
 10
107.797
 20
65.938
 10
107.833
 20
65.883
 10
107.862
 20
65.825
 10
107.883
 20
65.763
 10
107.896
 20
65.699
 97
0
 75
0
 76
1
 98
0
  0
HATCH
  5
86
330
17
100
AcDbEntity
  8
RASTER
 62
7
100
AcDbHatch
 10
0.0
 20
0.0
 30
0.0
210
0.0
220
0.0
230
1.0
  2
SOLID
 70
1
 71
0
 91
1
 92
3
 72
0
 73
1
 93
48
 10
95.1
 20
60.5
 10
95.096
 20
60.435
 10
95.083
 20
60.371
 10
95.062
 20
60.309
 10
95.033
 20
60.25
 10
94.997
 20
60.196
 10
94.954
 20
60.146
 10
94.904
 20
60.103
 10
94.85
 20
60.067
 10
94.791
 20
60.038
 10
94.729
 20
60.017
 10
94.665
 20
60.004
 10
94.6
 20
60.0
 10
94.535
 20
60.004
 10
94.471
 20
60.017
 10
94.409
 20
60.038
 10
94.35
 20
60.067
 10
94.296
 20
60.103
 10
94.246
 20
60.146
 10
94.203
 20
60.196
 10
94.167
 20
60.25
 10
94.138
 20
60.309
 10
94.117
 20
60.371
 10
94.104
 20
60.435
 10
94.1
 20
60.5
 10
94.104
 20
60.565
 10
94.117
 20
60.629
 10
94.138
 20
60.691
 10
94.167
 20
60.75
 10
94.203
 20
60.804
 10
94.246
 20
60.854
 10
94.296
 20
60.897
 10
94.35
 20
60.933
 10
94.409
 20
60.962
 10
94.471
 20
60.983
 10
94.535
 20
60.996
 10
94.6
 20
61.0
 10
94.665
 20
60.996
 10
94.729
 20
60.983
 10
94.791
 20
60.962
 10
94.85
 20
60.933
 10
94.904
 20
60.897
 10
94.954
 20
60.854
 10
94.997
 20
60.804
 10
95.033
 20
60.75
 10
95.062
 20
60.691
 10
95.083
 20
60.629
 10
95.096
 20
60.565
 97
0
 75
0
 76
1
 98
0
  0
HATCH
  5
87
330
17
100
AcDbEntity
  8
RASTER
 62
7
100
AcDbHatch
 10
0.0
 20
0.0
 30
0.0
210
0.0
220
0.0
230
1.0
  2
SOLID
 70
1
 71
0
 91
1
 92
3
 72
0
 73
1
 93
48
 10
107.9
 20
60.5
 10
107.896
 20
60.435
 10
107.883
 20
60.371
 10
107.862
 20
60.309
 10
107.833
 20
60.25
 10
107.797
 20
60.196
 10
107.754
 20
60.146
 10
107.704
 20
60.103
 10
107.65
 20
60.067
 10
107.591
 20
60.038
 10
107.529
 20
60.017
 10
107.465
 20
60.004
 10
107.4
 20
60.0
 10
107.335
 20
60.004
 10
107.271
 20
60.017
 10
107.209
 20
60.038
 10
107.15
 20
60.067
 10
107.096
 20
60.103
 10
107.046
 20
60.146
 10
107.003
 20
60.196
 10
106.967
 20
60.25
 10
106.938
 20
60.309
 10
106.917
 20
60.371
 10
106.904
 20
60.435
 10
106.9
 20
60.5
 10
106.904
 20
60.565
 10
106.917
 20
60.629
 10
106.938
 20
60.691
 10
106.967
 20
60.75
 10
107.003
 20
60.804
 10
107.046
 20
60.854
 10
107.096
 20
60.897
 10
107.15
 20
60.933
 10
107.209
 20
60.962
 10
107.271
 20
60.983
 10
107.335
 20
60.996
 10
107.4
 20
61.0
 10
107.465
 20
60.996
 10
107.529
 20
60.983
 10
107.591
 20
60.962
 10
107.65
 20
60.933
 10
107.704
 20
60.897
 10
107.754
 20
60.854
 10
107.797
 20
60.804
 10
107.833
 20
60.75
 10
107.862
 20
60.691
 10
107.883
 20
60.629
 10
107.896
 20
60.565
 97
0
 75
0
 76
1
 98
0
  0
HATCH
  5
88
330
17
100
AcDbEntity
  8
RASTER
 62
7
100
AcDbHatch
 10
0.0
 20
0.0
 30
0.0
210
0.0
220
0.0
230
1.0
  2
SOLID
 70
1
 71
0
 91
1
 92
3
 72
0
 73
1
 93
48
 10
95.1
 20
55.367
 10
95.096
 20
55.301
 10
95.083
 20
55.237
 10
95.062
 20
55.175
 10
95.033
 20
55.117
 10
94.997
 20
55.062
 10
94.954
 20
55.013
 10
94.904
 20
54.97
 10
94.85
 20
54.934
 10
94.791
 20
54.905
 10
94.729
 20
54.884
 10
94.665
 20
54.871
 10
94.6
 20
54.867
 10
94.535
 20
54.871
 10
94.471
 20
54.884
 10
94.409
 20
54.905
 10
94.35
 20
54.934
 10
94.296
 20
54.97
 10
94.246
 20
55.013
 10
94.203
 20
55.062
 10
94.167
 20
55.117
 10
94.138
 20
55.175
 10
94.117
 20
55.237
 10
94.104
 20
55.301
 10
94.1
 20
55.367
 10
94.104
 20
55.432
 10
94.117
 20
55.496
 10
94.138
 20
55.558
 10
94.167
 20
55.617
 10
94.203
 20
55.671
 10
94.246
 20
55.72
 10
94.296
 20
55.763
 10
94.35
 20
55.8
 10
94.409
 20
55.829
 10
94.471
 20
55.85
 10
94.535
 20
55.862
 10
94.6
 20
55.867
 10
94.665
 20
55.862
 10
94.729
 20
55.85
 10
94.791
 20
55.829
 10
94.85
 20
55.8
 10
94.904
 20
55.763
 10
94.954
 20
55.72
 10
94.997
 20
55.671
 10
95.033
 20
55.617
 10
95.062
 20
55.558
 10
95.083
 20
55.496
 10
95.096
 20
55.432
 97
0
 75
0
 76
1
 98
0
  0
HATCH
  5
89
330
17
100
AcDbEntity
  8
RASTER
 62
7
100
AcDbHatch
 10
0.0
 20
0.0
 30
0.0
210
0.0
220
0.0
230
1.0
  2
SOLID
 70
1
 71
0
 91
1
 92
3
 72
0
 73
1
 93
48
 10
107.9
 20
55.367
 10
107.896
 20
55.301
 10
107.883
 20
55.237
 10
107.862
 20
55.175
 10
107.833
 20
55.117
 10
107.797
 20
55.062
 10
107.754
 20
55.013
 10
107.704
 20
54.97
 10
107.65
 20
54.934
 10
107.591
 20
54.905
 10
107.529
 20
54.884
 10
107.465
 20
54.871
 10
107.4
 20
54.867
 10
107.335
 20
54.871
 10
107.271
 20
54.884
 10
107.209
 20
54.905
 10
107.15
 20
54.934
 10
107.096
 20
54.97
 10
107.046
 20
55.013
 10
107.003
 20
55.062
 10
106.967
 20
55.117
 10
106.938
 20
55.175
 10
106.917
 20
55.237
 10
106.904
 20
55.301
 10
106.9
 20
55.367
 10
106.904
 20
55.432
 10
106.917
 20
55.496
 10
106.938
 20
55.558
 10
106.967
 20
55.617
 10
107.003
 20
55.671
 10
107.046
 20
55.72
 10
107.096
 20
55.763
 10
107.15
 20
55.8
 10
107.209
 20
55.829
 10
107.271
 20
55.85
 10
107.335
 20
55.862
 10
107.4
 20
55.867
 10
107.465
 20
55.862
 10
107.529
 20
55.85
 10
107.591
 20
55.829
 10
107.65
 20
55.8
 10
107.704
 20
55.763
 10
107.754
 20
55.72
 10
107.797
 20
55.671
 10
107.833
 20
55.617
 10
107.862
 20
55.558
 10
107.883
 20
55.496
 10
107.896
 20
55.432
 97
0
 75
0
 76
1
 98
0
  0
LWPOLYLINE
  5
8A
330
17
100
AcDbEntity
  8
CUT
100
AcDbPolyline
 90
52
 70
1
 10
119.91
 20
68.09
 10
123.0
 20
68.09
 10
128.519
 20
68.09
 10
128.519
 20
65.09
 10
133.767
 20
65.09
 10
133.767
 20
68.09
 10
139.376
 20
68.09
 10
139.376
 20
65.09
 10
144.624
 20
65.09
 10
144.624
 20
68.09
 10
150.233
 20
68.09
 10
150.233
 20
65.09
 10
155.481
 20
65.09
 10
155.481
 20
68.09
 10
161.0
 20
68.09
 10
164.09
 20
68.09
 10
164.09
 20
65.0
 10
164.09
 20
60.11
 10
161.09
 20
60.11
 10
161.09
 20
55.49
 10
164.09
 20
55.49
 10
164.09
 20
50.51
 10
161.09
 20
50.51
 10
161.09
 20
45.89
 10
164.09
 20
45.89
 10
164.09
 20
41.0
 10
164.09
 20
37.91
 10
161.0
 20
37.91
 10
155.481
 20
37.91
 10
155.481
 20
40.91
 10
150.233
 20
40.91
 10
150.233
 20
37.91
 10
144.624
 20
37.91
 10
144.624
 20
40.91
 10
139.376
 20
40.91
 10
139.376
 20
37.91
 10
133.767
 20
37.91
 10
133.767
 20
40.91
 10
128.519
 20
40.91
 10
128.519
 20
37.91
 10
123.0
 20
37.91
 10
119.91
 20
37.91
 10
119.91
 20
41.0
 10
119.91
 20
45.89
 10
122.91
 20
45.89
 10
122.91
 20
50.51
 10
119.91
 20
50.51
 10
119.91
 20
55.49
 10
122.91
 20
55.49
 10
122.91
 20
60.11
 10
119.91
 20
60.11
 10
119.91
 20
65.0
  0
LWPOLYLINE
  5
8B
330
17
100
AcDbEntity
  8
CUT
100
AcDbPolyline
 90
28
 70
1
 10
171.0
 20
68.09
 10
209.0
 20
68.09
 10
212.09
 20
68.09
 10
212.09
 20
62.91
 10
209.09
 20
62.91
 10
209.09
 20
58.09
 10
212.09
 20
58.09
 10
212.09
 20
52.91
 10
209.0
 20
52.91
 10
203.661
 20
52.91
 10
203.661
 20
49.91
 10
198.053
 20
49.91
 10
198.053
 20
52.91
 10
192.804
 20
52.91
 10
192.804
 20
49.91
 10
187.196
 20
49.91
 10
187.196
 20
52.91
 10
181.947
 20
52.91
 10
181.947
 20
49.91
 10
176.339
 20
49.91
 10
176.339
 20
52.91
 10
171.0
 20
52.91
 10
167.91
 20
52.91
 10
167.91
 20
58.09
 10
170.91
 20
58.09
 10
170.91
 20
62.91
 10
167.91
 20
62.91
 10
167.91
 20
68.09
  0
LWPOLYLINE
  5
8C
330
17
100
AcDbEntity
  8
CUT
100
AcDbPolyline
 90
4
 70
1
 10
175.09
 20
63.677
 10
204.91
 20
63.677
 10
204.91
 20
62.457
 10
175.09
 20
62.457
  0
LWPOLYLINE
  5
8D
330
17
100
AcDbEntity
  8
CUT
100
AcDbPolyline
 90
4
 70
1
 10
175.09
 20
58.543
 10
204.91
 20
58.543
 10
204.91
 20
57.323
 10
175.09
 20
57.323
  0
HATCH
  5
8E
330
17
100
AcDbEntity
  8
RASTER
 62
7
100
AcDbHatch
 10
0.0
 20
0.0
 30
0.0
210
0.0
220
0.0
230
1.0
  2
SOLID
 70
1
 71
0
 91
1
 92
3
 72
0
 73
1
 93
4
 10
171.6
 20
67.6
 10
174.4
 20
67.6
 10
174.4
 20
53.4
 10
171.6
 20
53.4
 97
0
 75
0
 76
1
 98
0
  0
HATCH
  5
8F
330
17
100
AcDbEntity
  8
RASTER
 62
7
100
AcDbHatch
 10
0.0
 20
0.0
 30
0.0
210
0.0
220
0.0
230
1.0
  2
SOLID
 70
1
 71
0
 91
1
 92
3
 72
0
 73
1
 93
4
 10
205.6
 20
67.6
 10
208.4
 20
67.6
 10
208.4
 20
53.4
 10
205.6
 20
53.4
 97
0
 75
0
 76
1
 98
0
  0
HATCH
  5
90
330
17
100
AcDbEntity
  8
RASTER
 62
7
100
AcDbHatch
 10
0.0
 20
0.0
 30
0.0
210
0.0
220
0.0
230
1.0
  2
SOLID
 70
1
 71
0
 91
1
 92
3
 72
0
 73
1
 93
48
 10
177.1
 20
65.633
 10
177.096
 20
65.568
 10
177.083
 20
65.504
 10
177.062
 20
65.442
 10
177.033
 20
65.383
 10
176.997
 20
65.329
 10
176.954
 20
65.28
 10
176.904
 20
65.237
 10
176.85
 20
65.2
 10
176.791
 20
65.171
 10
176.729
 20
65.15
 10
176.665
 20
65.138
 10
176.6
 20
65.133
 10
176.535
 20
65.138
 10
176.471
 20
65.15
 10
176.409
 20
65.171
 10
176.35
 20
65.2
 10
176.296
 20
65.237
 10
176.246
 20
65.28
 10
176.203
 20
65.329
 10
176.167
 20
65.383
 10
176.138
 20
65.442
 10
176.117
 20
65.504
 10
176.104
 20
65.568
 10
176.1
 20
65.633
 10
176.104
 20
65.699
 10
176.117
 20
65.763
 10
176.138
 20
65.825
 10
176.167
 20
65.883
 10
176.203
 20
65.938
 10
176.246
 20
65.987
 10
176.296
 20
66.03
 10
176.35
 20
66.066
 10
176.409
 20
66.095
 10
176.471
 20
66.116
 10
176.535
 20
66.129
 10
176.6
 20
66.133
 10
176.665
 20
66.129
 10
176.729
 20
66.116
 10
176.791
 20
66.095
 10
176.85
 20
66.066
 10
176.904
 20
66.03
 10
176.954
 20
65.987
 10
176.997
 20
65.938
 10
177.033
 20
65.883
 10
177.062
 20
65.825
 10
177.083
 20
65.763
 10
177.096
 20
65.699
 97
0
 75
0
 76
1
 98
0
  0
HATCH
  5
91
330
17
100
AcDbEntity
  8
RASTER
 62
7
100
AcDbHatch
 10
0.0
 20
0.0
 30
0.0
210
0.0
220
0.0
230
1.0
  2
SOLID
 70
1
 71
0
 91
1
 92
3
 72
0
 73
1
 93
48
 10
203.9
 20
65.633
 10
203.896
 20
65.568
 10
203.883
 20
65.504
 10
203.862
 20
65.442
 10
203.833
 20
65.383
 10
203.797
 20
65.329
 10
203.754
 20
65.28
 10
203.704
 20
65.237
 10
203.65
 20
65.2
 10
203.591
 20
65.171
 10
203.529
 20
65.15
 10
203.465
 20
65.138
 10
203.4
 20
65.133
 10
203.335
 20
65.138
 10
203.271
 20
65.15
 10
203.209
 20
65.171
 10
203.15
 20
65.2
 10
203.096
 20
65.237
 10
203.046
 20
65.28
 10
203.003
 20
65.329
 10
202.967
 20
65.383
 10
202.938
 20
65.442
 10
202.917
 20
65.504
 10
202.904
 20
65.568
 10
202.9
 20
65.633
 10
202.904
 20
65.699
 10
202.917
 20
65.763
 10
202.938
 20
65.825
 10
202.967
 20
65.883
 10
203.003
 20
65.938
 10
203.046
 20
65.987
 10
203.096
 20
66.03
 10
203.15
 20
66.066
 10
203.209
 20
66.095
 10
203.271
 20
66.116
 10
203.335
 20
66.129
 10
203.4
 20
66.133
 10
203.465
 20
66.129
 10
203.529
 20
66.116
 10
203.591
 20
66.095
 10
203.65
 20
66.066
 10
203.704
 20
66.03
 10
203.754
 20
65.987
 10
203.797
 20
65.938
 10
203.833
 20
65.883
 10
203.862
 20
65.825
 10
203.883
 20
65.763
 10
203.896
 20
65.699
 97
0
 75
0
 76
1
 98
0
  0
HATCH
  5
92
330
17
100
AcDbEntity
  8
RASTER
 62
7
100
AcDbHatch
 10
0.0
 20
0.0
 30
0.0
210
0.0
220
0.0
230
1.0
  2
SOLID
 70
1
 71
0
 91
1
 92
3
 72
0
 73
1
 93
48
 10
177.1
 20
60.5
 10
177.096
 20
60.435
 10
177.083
 20
60.371
 10
177.062
 20
60.309
 10
177.033
 20
60.25
 10
176.997
 20
60.196
 10
176.954
 20
60.146
 10
176.904
 20
60.103
 10
176.85
 20
60.067
 10
176.791
 20
60.038
 10
176.729
 20
60.017
 10
176.665
 20
60.004
 10
176.6
 20
60.0
 10
176.535
 20
60.004
 10
176.471
 20
60.017
 10
176.409
 20
60.038
 10
176.35
 20
60.067
 10
176.296
 20
60.103
 10
176.246
 20
60.146
 10
176.203
 20
60.196
 10
176.167
 20
60.25
 10
176.138
 20
60.309
 10
176.117
 20
60.371
 10
176.104
 20
60.435
 10
176.1
 20
60.5
 10
176.104
 20
60.565
 10
176.117
 20
60.629
 10
176.138
 20
60.691
 10
176.167
 20
60.75
 10
176.203
 20
60.804
 10
176.246
 20
60.854
 10
176.296
 20
60.897
 10
176.35
 20
60.933
 10
176.409
 20
60.962
 10
176.471
 20
60.983
 10
176.535
 20
60.996
 10
176.6
 20
61.0
 10
176.665
 20
60.996
 10
176.729
 20
60.983
 10
176.791
 20
60.962
 10
176.85
 20
60.933
 10
176.904
 20
60.897
 10
176.954
 20
60.854
 10
176.997
 20
60.804
 10
177.033
 20
60.75
 10
177.062
 20
60.691
 10
177.083
 20
60.629
 10
177.096
 20
60.565
 97
0
 75
0
 76
1
 98
0
  0
HATCH
  5
93
330
17
100
AcDbEntity
  8
RASTER
 62
7
100
AcDbHatch
 10
0.0
 20
0.0
 30
0.0
210
0.0
220
0.0
230
1.0
  2
SOLID
 70
1
 71
0
 91
1
 92
3
 72
0
 73
1
 93
48
 10
203.9
 20
60.5
 10
203.896
 20
60.435
 10
203.883
 20
60.371
 10
203.862
 20
60.309
 10
203.833
 20
60.25
 10
203.797
 20
60.196
 10
203.754
 20
60.146
 10
203.704
 20
60.103
 10
203.65
 20
60.067
 10
203.591
 20
60.038
 10
203.529
 20
60.017
 10
203.465
 20
60.004
 10
203.4
 20
60.0
 10
203.335
 20
60.004
 10
203.271
 20
60.017
 10
203.209
 20
60.038
 10
203.15
 20
60.067
 10
203.096
 20
60.103
 10
203.046
 20
60.146
 10
203.003
 20
60.196
 10
202.967
 20
60.25
 10
202.938
 20
60.309
 10
202.917
 20
60.371
 10
202.904
 20
60.435
 10
202.9
 20
60.5
 10
202.904
 20
60.565
 10
202.917
 20
60.629
 10
202.938
 20
60.691
 10
202.967
 20
60.75
 10
203.003
 20
60.804
 10
203.046
 20
60.854
 10
203.096
 20
60.897
 10
203.15
 20
60.933
 10
203.209
 20
60.962
 10
203.271
 20
60.983
 10
203.335
 20
60.996
 10
203.4
 20
61.0
 10
203.465
 20
60.996
 10
203.529
 20
60.983
 10
203.591
 20
60.962
 10
203.65
 20
60.933
 10
203.704
 20
60.897
 10
203.754
 20
60.854
 10
203.797
 20
60.804
 10
203.833
 20
60.75
 10
203.862
 20
60.691
 10
203.883
 20
60.629
 10
203.896
 20
60.565
 97
0
 75
0
 76
1
 98
0
  0
HATCH
  5
94
330
17
100
AcDbEntity
  8
RASTER
 62
7
100
AcDbHatch
 10
0.0
 20
0.0
 30
0.0
210
0.0
220
0.0
230
1.0
  2
SOLID
 70
1
 71
0
 91
1
 92
3
 72
0
 73
1
 93
48
 10
177.1
 20
55.367
 10
177.096
 20
55.301
 10
177.083
 20
55.237
 10
177.062
 20
55.175
 10
177.033
 20
55.117
 10
176.997
 20
55.062
 10
176.954
 20
55.013
 10
176.904
 20
54.97
 10
176.85
 20
54.934
 10
176.791
 20
54.905
 10
176.729
 20
54.884
 10
176.665
 20
54.871
 10
176.6
 20
54.867
 10
176.535
 20
54.871
 10
176.471
 20
54.884
 10
176.409
 20
54.905
 10
176.35
 20
54.934
 10
176.296
 20
54.97
 10
176.246
 20
55.013
 10
176.203
 20
55.062
 10
176.167
 20
55.117
 10
176.138
 20
55.175
 10
176.117
 20
55.237
 10
176.104
 20
55.301
 10
176.1
 20
55.367
 10
176.104
 20
55.432
 10
176.117
 20
55.496
 10
176.138
 20
55.558
 10
176.167
 20
55.617
 10
176.203
 20
55.671
 10
176.246
 20
55.72
 10
176.296
 20
55.763
 10
176.35
 20
55.8
 10
176.409
 20
55.829
 10
176.471
 20
55.85
 10
176.535
 20
55.862
 10
176.6
 20
55.867
 10
176.665
 20
55.862
 10
176.729
 20
55.85
 10
176.791
 20
55.829
 10
176.85
 20
55.8
 10
176.904
 20
55.763
 10
176.954
 20
55.72
 10
176.997
 20
55.671
 10
177.033
 20
55.617
 10
177.062
 20
55.558
 10
177.083
 20
55.496
 10
177.096
 20
55.432
 97
0
 75
0
 76
1
 98
0
  0
HATCH
  5
95
330
17
100
AcDbEntity
  8
RASTER
 62
7
100
AcDbHatch
 10
0.0
 20
0.0
 30
0.0
210
0.0
220
0.0
230
1.0
  2
SOLID
 70
1
 71
0
 91
1
 92
3
 72
0
 73
1
 93
48
 10
203.9
 20
55.367
 10
203.896
 20
55.301
 10
203.883
 20
55.237
 10
203.862
 20
55.175
 10
203.833
 20
55.117
 10
203.797
 20
55.062
 10
203.754
 20
55.013
 10
203.704
 20
54.97
 10
203.65
 20
54.934
 10
203.591
 20
54.905
 10
203.529
 20
54.884
 10
203.465
 20
54.871
 10
203.4
 20
54.867
 10
203.335
 20
54.871
 10
203.271
 20
54.884
 10
203.209
 20
54.905
 10
203.15
 20
54.934
 10
203.096
 20
54.97
 10
203.046
 20
55.013
 10
203.003
 20
55.062
 10
202.967
 20
55.117
 10
202.938
 20
55.175
 10
202.917
 20
55.237
 10
202.904
 20
55.301
 10
202.9
 20
55.367
 10
202.904
 20
55.432
 10
202.917
 20
55.496
 10
202.938
 20
55.558
 10
202.967
 20
55.617
 10
203.003
 20
55.671
 10
203.046
 20
55.72
 10
203.096
 20
55.763
 10
203.15
 20
55.8
 10
203.209
 20
55.829
 10
203.271
 20
55.85
 10
203.335
 20
55.862
 10
203.4
 20
55.867
 10
203.465
 20
55.862
 10
203.529
 20
55.85
 10
203.591
 20
55.829
 10
203.65
 20
55.8
 10
203.704
 20
55.763
 10
203.754
 20
55.72
 10
203.797
 20
55.671
 10
203.833
 20
55.617
 10
203.862
 20
55.558
 10
203.883
 20
55.496
 10
203.896
 20
55.432
 97
0
 75
0
 76
1
 98
0
  0
LWPOLYLINE
  5
96
330
17
100
AcDbEntity
  8
CUT
100
AcDbPolyline
 90
28
 70
1
 10
219.0
 20
68.09
 10
257.0
 20
68.09
 10
260.09
 20
68.09
 10
260.09
 20
62.91
 10
257.09
 20
62.91
 10
257.09
 20
58.09
 10
260.09
 20
58.09
 10
260.09
 20
52.91
 10
257.0
 20
52.91
 10
251.661
 20
52.91
 10
251.661
 20
49.91
 10
246.053
 20
49.91
 10
246.053
 20
52.91
 10
240.804
 20
52.91
 10
240.804
 20
49.91
 10
235.196
 20
49.91
 10
235.196
 20
52.91
 10
229.947
 20
52.91
 10
229.947
 20
49.91
 10
224.339
 20
49.91
 10
224.339
 20
52.91
 10
219.0
 20
52.91
 10
215.91
 20
52.91
 10
215.91
 20
58.09
 10
218.91
 20
58.09
 10
218.91
 20
62.91
 10
215.91
 20
62.91
 10
215.91
 20
68.09
  0
LWPOLYLINE
  5
97
330
17
100
AcDbEntity
  8
CUT
100
AcDbPolyline
 90
4
 70
1
 10
223.09
 20
63.677
 10
252.91
 20
63.677
 10
252.91
 20
62.457
 10
223.09
 20
62.457
  0
LWPOLYLINE
  5
98
330
17
100
AcDbEntity
  8
CUT
100
AcDbPolyline
 90
4
 70
1
 10
223.09
 20
58.543
 10
252.91
 20
58.543
 10
252.91
 20
57.323
 10
223.09
 20
57.323
  0
HATCH
  5
99
330
17
100
AcDbEntity
  8
RASTER
 62
7
100
AcDbHatch
 10
0.0
 20
0.0
 30
0.0
210
0.0
220
0.0
230
1.0
  2
SOLID
 70
1
 71
0
 91
1
 92
3
 72
0
 73
1
 93
4
 10
219.6
 20
67.6
 10
222.4
 20
67.6
 10
222.4
 20
53.4
 10
219.6
 20
53.4
 97
0
 75
0
 76
1
 98
0
  0
HATCH
  5
9A
330
17
100
AcDbEntity
  8
RASTER
 62
7
100
AcDbHatch
 10
0.0
 20
0.0
 30
0.0
210
0.0
220
0.0
230
1.0
  2
SOLID
 70
1
 71
0
 91
1
 92
3
 72
0
 73
1
 93
4
 10
253.6
 20
67.6
 10
256.4
 20
67.6
 10
256.4
 20
53.4
 10
253.6
 20
53.4
 97
0
 75
0
 76
1
 98
0
  0
HATCH
  5
9B
330
17
100
AcDbEntity
  8
RASTER
 62
7
100
AcDbHatch
 10
0.0
 20
0.0
 30
0.0
210
0.0
220
0.0
230
1.0
  2
SOLID
 70
1
 71
0
 91
1
 92
3
 72
0
 73
1
 93
48
 10
225.1
 20
65.633
 10
225.096
 20
65.568
 10
225.083
 20
65.504
 10
225.062
 20
65.442
 10
225.033
 20
65.383
 10
224.997
 20
65.329
 10
224.954
 20
65.28
 10
224.904
 20
65.237
 10
224.85
 20
65.2
 10
224.791
 20
65.171
 10
224.729
 20
65.15
 10
224.665
 20
65.138
 10
224.6
 20
65.133
 10
224.535
 20
65.138
 10
224.471
 20
65.15
 10
224.409
 20
65.171
 10
224.35
 20
65.2
 10
224.296
 20
65.237
 10
224.246
 20
65.28
 10
224.203
 20
65.329
 10
224.167
 20
65.383
 10
224.138
 20
65.442
 10
224.117
 20
65.504
 10
224.104
 20
65.568
 10
224.1
 20
65.633
 10
224.104
 20
65.699
 10
224.117
 20
65.763
 10
224.138
 20
65.825
 10
224.167
 20
65.883
 10
224.203
 20
65.938
 10
224.246
 20
65.987
 10
224.296
 20
66.03
 10
224.35
 20
66.066
 10
224.409
 20
66.095
 10
224.471
 20
66.116
 10
224.535
 20
66.129
 10
224.6
 20
66.133
 10
224.665
 20
66.129
 10
224.729
 20
66.116
 10
224.791
 20
66.095
 10
224.85
 20
66.066
 10
224.904
 20
66.03
 10
224.954
 20
65.987
 10
224.997
 20
65.938
 10
225.033
 20
65.883
 10
225.062
 20
65.825
 10
225.083
 20
65.763
 10
225.096
 20
65.699
 97
0
 75
0
 76
1
 98
0
  0
HATCH
  5
9C
330
17
100
AcDbEntity
  8
RASTER
 62
7
100
AcDbHatch
 10
0.0
 20
0.0
 30
0.0
210
0.0
220
0.0
230
1.0
  2
SOLID
 70
1
 71
0
 91
1
 92
3
 72
0
 73
1
 93
48
 10
251.9
 20
65.633
 10
251.896
 20
65.568
 10
251.883
 20
65.504
 10
251.862
 20
65.442
 10
251.833
 20
65.383
 10
251.797
 20
65.329
 10
251.754
 20
65.28
 10
251.704
 20
65.237
 10
251.65
 20
65.2
 10
251.591
 20
65.171
 10
251.529
 20
65.15
 10
251.465
 20
65.138
 10
251.4
 20
65.133
 10
251.335
 20
65.138
 10
251.271
 20
65.15
 10
251.209
 20
65.171
 10
251.15
 20
65.2
 10
251.096
 20
65.237
 10
251.046
 20
65.28
 10
251.003
 20
65.329
 10
250.967
 20
65.383
 10
250.938
 20
65.442
 10
250.917
 20
65.504
 10
250.904
 20
65.568
 10
250.9
 20
65.633
 10
250.904
 20
65.699
 10
250.917
 20
65.763
 10
250.938
 20
65.825
 10
250.967
 20
65.883
 10
251.003
 20
65.938
 10
251.046
 20
65.987
 10
251.096
 20
66.03
 10
251.15
 20
66.066
 10
251.209
 20
66.095
 10
251.271
 20
66.116
 10
251.335
 20
66.129
 10
251.4
 20
66.133
 10
251.465
 20
66.129
 10
251.529
 20
66.116
 10
251.591
 20
66.095
 10
251.65
 20
66.066
 10
251.704
 20
66.03
 10
251.754
 20
65.987
 10
251.797
 20
65.938
 10
251.833
 20
65.883
 10
251.862
 20
65.825
 10
251.883
 20
65.763
 10
251.896
 20
65.699
 97
0
 75
0
 76
1
 98
0
  0
HATCH
  5
9D
330
17
100
AcDbEntity
  8
RASTER
 62
7
100
AcDbHatch
 10
0.0
 20
0.0
 30
0.0
210
0.0
220
0.0
230
1.0
  2
SOLID
 70
1
 71
0
 91
1
 92
3
 72
0
 73
1
 93
48
 10
225.1
 20
60.5
 10
225.096
 20
60.435
 10
225.083
 20
60.371
 10
225.062
 20
60.309
 10
225.033
 20
60.25
 10
224.997
 20
60.196
 10
224.954
 20
60.146
 10
224.904
 20
60.103
 10
224.85
 20
60.067
 10
224.791
 20
60.038
 10
224.729
 20
60.017
 10
224.665
 20
60.004
 10
224.6
 20
60.0
 10
224.535
 20
60.004
 10
224.471
 20
60.017
 10
224.409
 20
60.038
 10
224.35
 20
60.067
 10
224.296
 20
60.103
 10
224.246
 20
60.146
 10
224.203
 20
60.196
 10
224.167
 20
60.25
 10
224.138
 20
60.309
 10
224.117
 20
60.371
 10
224.104
 20
60.435
 10
224.1
 20
60.5
 10
224.104
 20
60.565
 10
224.117
 20
60.629
 10
224.138
 20
60.691
 10
224.167
 20
60.75
 10
224.203
 20
60.804
 10
224.246
 20
60.854
 10
224.296
 20
60.897
 10
224.35
 20
60.933
 10
224.409
 20
60.962
 10
224.471
 20
60.983
 10
224.535
 20
60.996
 10
224.6
 20
61.0
 10
224.665
 20
60.996
 10
224.729
 20
60.983
 10
224.791
 20
60.962
 10
224.85
 20
60.933
 10
224.904
 20
60.897
 10
224.954
 20
60.854
 10
224.997
 20
60.804
 10
225.033
 20
60.75
 10
225.062
 20
60.691
 10
225.083
 20
60.629
 10
225.096
 20
60.565
 97
0
 75
0
 76
1
 98
0
  0
HATCH
  5
9E
330
17
100
AcDbEntity
  8
RASTER
 62
7
100
AcDbHatch
 10
0.0
 20
0.0
 30
0.0
210
0.0
220
0.0
230
1.0
  2
SOLID
 70
1
 71
0
 91
1
 92
3
 72
0
 73
1
 93
48
 10
251.9
 20
60.5
 10
251.896
 20
60.435
 10
251.883
 20
60.371
 10
251.862
 20
60.309
 10
251.833
 20
60.25
 10
251.797
 20
60.196
 10
251.754
 20
60.146
 10
251.704
 20
60.103
 10
251.65
 20
60.067
 10
251.591
 20
60.038
 10
251.529
 20
60.017
 10
251.465
 20
60.004
 10
251.4
 20
60.0
 10
251.335
 20
60.004
 10
251.271
 20
60.017
 10
251.209
 20
60.038
 10
251.15
 20
60.067
 10
251.096
 20
60.103
 10
251.046
 20
60.146
 10
251.003
 20
60.196
 10
250.967
 20
60.25
 10
250.938
 20
60.309
 10
250.917
 20
60.371
 10
250.904
 20
60.435
 10
250.9
 20
60.5
 10
250.904
 20
60.565
 10
250.917
 20
60.629
 10
250.938
 20
60.691
 10
250.967
 20
60.75
 10
251.003
 20
60.804
 10
251.046
 20
60.854
 10
251.096
 20
60.897
 10
251.15
 20
60.933
 10
251.209
 20
60.962
 10
251.271
 20
60.983
 10
251.335
 20
60.996
 10
251.4
 20
61.0
 10
251.465
 20
60.996
 10
251.529
 20
60.983
 10
251.591
 20
60.962
 10
251.65
 20
60.933
 10
251.704
 20
60.897
 10
251.754
 20
60.854
 10
251.797
 20
60.804
 10
251.833
 20
60.75
 10
251.862
 20
60.691
 10
251.883
 20
60.629
 10
251.896
 20
60.565
 97
0
 75
0
 76
1
 98
0
  0
HATCH
  5
9F
330
17
100
AcDbEntity
  8
RASTER
 62
7
100
AcDbHatch
 10
0.0
 20
0.0
 30
0.0
210
0.0
220
0.0
230
1.0
  2
SOLID
 70
1
 71
0
 91
1
 92
3
 72
0
 73
1
 93
48
 10
225.1
 20
55.367
 10
225.096
 20
55.301
 10
225.083
 20
55.237
 10
225.062
 20
55.175
 10
225.033
 20
55.117
 10
224.997
 20
55.062
 10
224.954
 20
55.013
 10
224.904
 20
54.97
 10
224.85
 20
54.934
 10
224.791
 20
54.905
 10
224.729
 20
54.884
 10
224.665
 20
54.871
 10
224.6
 20
54.867
 10
224.535
 20
54.871
 10
224.471
 20
54.884
 10
224.409
 20
54.905
 10
224.35
 20
54.934
 10
224.296
 20
54.97
 10
224.246
 20
55.013
 10
224.203
 20
55.062
 10
224.167
 20
55.117
 10
224.138
 20
55.175
 10
224.117
 20
55.237
 10
224.104
 20
55.301
 10
224.1
 20
55.367
 10
224.104
 20
55.432
 10
224.117
 20
55.496
 10
224.138
 20
55.558
 10
224.167
 20
55.617
 10
224.203
 20
55.671
 10
224.246
 20
55.72
 10
224.296
 20
55.763
 10
224.35
 20
55.8
 10
224.409
 20
55.829
 10
224.471
 20
55.85
 10
224.535
 20
55.862
 10
224.6
 20
55.867
 10
224.665
 20
55.862
 10
224.729
 20
55.85
 10
224.791
 20
55.829
 10
224.85
 20
55.8
 10
224.904
 20
55.763
 10
224.954
 20
55.72
 10
224.997
 20
55.671
 10
225.033
 20
55.617
 10
225.062
 20
55.558
 10
225.083
 20
55.496
 10
225.096
 20
55.432
 97
0
 75
0
 76
1
 98
0
  0
HATCH
  5
A0
330
17
100
AcDbEntity
  8
RASTER
 62
7
100
AcDbHatch
 10
0.0
 20
0.0
 30
0.0
210
0.0
220
0.0
230
1.0
  2
SOLID
 70
1
 71
0
 91
1
 92
3
 72
0
 73
1
 93
48
 10
251.9
 20
55.367
 10
251.896
 20
55.301
 10
251.883
 20
55.237
 10
251.862
 20
55.175
 10
251.833
 20
55.117
 10
251.797
 20
55.062
 10
251.754
 20
55.013
 10
251.704
 20
54.97
 10
251.65
 20
54.934
 10
251.591
 20
54.905
 10
251.529
 20
54.884
 10
251.465
 20
54.871
 10
251.4
 20
54.867
 10
251.335
 20
54.871
 10
251.271
 20
54.884
 10
251.209
 20
54.905
 10
251.15
 20
54.934
 10
251.096
 20
54.97
 10
251.046
 20
55.013
 10
251.003
 20
55.062
 10
250.967
 20
55.117
 10
250.938
 20
55.175
 10
250.917
 20
55.237
 10
250.904
 20
55.301
 10
250.9
 20
55.367
 10
250.904
 20
55.432
 10
250.917
 20
55.496
 10
250.938
 20
55.558
 10
250.967
 20
55.617
 10
251.003
 20
55.671
 10
251.046
 20
55.72
 10
251.096
 20
55.763
 10
251.15
 20
55.8
 10
251.209
 20
55.829
 10
251.271
 20
55.85
 10
251.335
 20
55.862
 10
251.4
 20
55.867
 10
251.465
 20
55.862
 10
251.529
 20
55.85
 10
251.591
 20
55.829
 10
251.65
 20
55.8
 10
251.704
 20
55.763
 10
251.754
 20
55.72
 10
251.797
 20
55.671
 10
251.833
 20
55.617
 10
251.862
 20
55.558
 10
251.883
 20
55.496
 10
251.896
 20
55.432
 97
0
 75
0
 76
1
 98
0
  0
LWPOLYLINE
  5
A1
330
17
100
AcDbEntity
  8
CUT
100
AcDbPolyline
 90
20
 70
1
 10
266.91
 20
68.09
 10
291.09
 20
68.09
 10
291.09
 20
63.09
 10
294.09
 20
63.09
 10
294.09
 20
57.91
 10
291.09
 20
57.91
 10
291.09
 20
52.91
 10
286.29
 20
52.91
 10
286.29
 20
49.91
 10
281.31
 20
49.91
 10
281.31
 20
52.91
 10
276.69
 20
52.91
 10
276.69
 20
49.91
 10
271.71
 20
49.91
 10
271.71
 20
52.91
 10
266.91
 20
52.91
 10
266.91
 20
57.91
 10
263.91
 20
57.91
 10
263.91
 20
63.09
 10
266.91
 20
63.09
  0
LWPOLYLINE
  5
A2
330
17
100
AcDbEntity
  8
CUT
100
AcDbPolyline
 90
4
 70
1
 10
271.09
 20
63.677
 10
286.91
 20
63.677
 10
286.91
 20
62.457
 10
271.09
 20
62.457
  0
LWPOLYLINE
  5
A3
330
17
100
AcDbEntity
  8
CUT
100
AcDbPolyline
 90
4
 70
1
 10
271.09
 20
58.543
 10
286.91
 20
58.543
 10
286.91
 20
57.323
 10
271.09
 20
57.323
  0
HATCH
  5
A4
330
17
100
AcDbEntity
  8
RASTER
 62
7
100
AcDbHatch
 10
0.0
 20
0.0
 30
0.0
210
0.0
220
0.0
230
1.0
  2
SOLID
 70
1
 71
0
 91
1
 92
3
 72
0
 73
1
 93
4
 10
267.6
 20
67.6
 10
270.4
 20
67.6
 10
270.4
 20
53.4
 10
267.6
 20
53.4
 97
0
 75
0
 76
1
 98
0
  0
HATCH
  5
A5
330
17
100
AcDbEntity
  8
RASTER
 62
7
100
AcDbHatch
 10
0.0
 20
0.0
 30
0.0
210
0.0
220
0.0
230
1.0
  2
SOLID
 70
1
 71
0
 91
1
 92
3
 72
0
 73
1
 93
4
 10
287.6
 20
67.6
 10
290.4
 20
67.6
 10
290.4
 20
53.4
 10
287.6
 20
53.4
 97
0
 75
0
 76
1
 98
0
  0
HATCH
  5
A6
330
17
100
AcDbEntity
  8
RASTER
 62
7
100
AcDbHatch
 10
0.0
 20
0.0
 30
0.0
210
0.0
220
0.0
230
1.0
  2
SOLID
 70
1
 71
0
 91
1
 92
3
 72
0
 73
1
 93
48
 10
273.1
 20
65.633
 10
273.096
 20
65.568
 10
273.083
 20
65.504
 10
273.062
 20
65.442
 10
273.033
 20
65.383
 10
272.997
 20
65.329
 10
272.954
 20
65.28
 10
272.904
 20
65.237
 10
272.85
 20
65.2
 10
272.791
 20
65.171
 10
272.729
 20
65.15
 10
272.665
 20
65.138
 10
272.6
 20
65.133
 10
272.535
 20
65.138
 10
272.471
 20
65.15
 10
272.409
 20
65.171
 10
272.35
 20
65.2
 10
272.296
 20
65.237
 10
272.246
 20
65.28
 10
272.203
 20
65.329
 10
272.167
 20
65.383
 10
272.138
 20
65.442
 10
272.117
 20
65.504
 10
272.104
 20
65.568
 10
272.1
 20
65.633
 10
272.104
 20
65.699
 10
272.117
 20
65.763
 10
272.138
 20
65.825
 10
272.167
 20
65.883
 10
272.203
 20
65.938
 10
272.246
 20
65.987
 10
272.296
 20
66.03
 10
272.35
 20
66.066
 10
272.409
 20
66.095
 10
272.471
 20
66.116
 10
272.535
 20
66.129
 10
272.6
 20
66.133
 10
272.665
 20
66.129
 10
272.729
 20
66.116
 10
272.791
 20
66.095
 10
272.85
 20
66.066
 10
272.904
 20
66.03
 10
272.954
 20
65.987
 10
272.997
 20
65.938
 10
273.033
 20
65.883
 10
273.062
 20
65.825
 10
273.083
 20
65.763
 10
273.096
 20
65.699
 97
0
 75
0
 76
1
 98
0
  0
HATCH
  5
A7
330
17
100
AcDbEntity
  8
RASTER
 62
7
100
AcDbHatch
 10
0.0
 20
0.0
 30
0.0
210
0.0
220
0.0
230
1.0
  2
SOLID
 70
1
 71
0
 91
1
 92
3
 72
0
 73
1
 93
48
 10
285.9
 20
65.633
 10
285.896
 20
65.568
 10
285.883
 20
65.504
 10
285.862
 20
65.442
 10
285.833
 20
65.383
 10
285.797
 20
65.329
 10
285.754
 20
65.28
 10
285.704
 20
65.237
 10
285.65
 20
65.2
 10
285.591
 20
65.171
 10
285.529
 20
65.15
 10
285.465
 20
65.138
 10
285.4
 20
65.133
 10
285.335
 20
65.138
 10
285.271
 20
65.15
 10
285.209
 20
65.171
 10
285.15
 20
65.2
 10
285.096
 20
65.237
 10
285.046
 20
65.28
 10
285.003
 20
65.329
 10
284.967
 20
65.383
 10
284.938
 20
65.442
 10
284.917
 20
65.504
 10
284.904
 20
65.568
 10
284.9
 20
65.633
 10
284.904
 20
65.699
 10
284.917
 20
65.763
 10
284.938
 20
65.825
 10
284.967
 20
65.883
 10
285.003
 20
65.938
 10
285.046
 20
65.987
 10
285.096
 20
66.03
 10
285.15
 20
66.066
 10
285.209
 20
66.095
 10
285.271
 20
66.116
 10
285.335
 20
66.129
 10
285.4
 20
66.133
 10
285.465
 20
66.129
 10
285.529
 20
66.116
 10
285.591
 20
66.095
 10
285.65
 20
66.066
 10
285.704
 20
66.03
 10
285.754
 20
65.987
 10
285.797
 20
65.938
 10
285.833
 20
65.883
 10
285.862
 20
65.825
 10
285.883
 20
65.763
 10
285.896
 20
65.699
 97
0
 75
0
 76
1
 98
0
  0
HATCH
  5
A8
330
17
100
AcDbEntity
  8
RASTER
 62
7
100
AcDbHatch
 10
0.0
 20
0.0
 30
0.0
210
0.0
220
0.0
230
1.0
  2
SOLID
 70
1
 71
0
 91
1
 92
3
 72
0
 73
1
 93
48
 10
273.1
 20
60.5
 10
273.096
 20
60.435
 10
273.083
 20
60.371
 10
273.062
 20
60.309
 10
273.033
 20
60.25
 10
272.997
 20
60.196
 10
272.954
 20
60.146
 10
272.904
 20
60.103
 10
272.85
 20
60.067
 10
272.791
 20
60.038
 10
272.729
 20
60.017
 10
272.665
 20
60.004
 10
272.6
 20
60.0
 10
272.535
 20
60.004
 10
272.471
 20
60.017
 10
272.409
 20
60.038
 10
272.35
 20
60.067
 10
272.296
 20
60.103
 10
272.246
 20
60.146
 10
272.203
 20
60.196
 10
272.167
 20
60.25
 10
272.138
 20
60.309
 10
272.117
 20
60.371
 10
272.104
 20
60.435
 10
272.1
 20
60.5
 10
272.104
 20
60.565
 10
272.117
 20
60.629
 10
272.138
 20
60.691
 10
272.167
 20
60.75
 10
272.203
 20
60.804
 10
272.246
 20
60.854
 10
272.296
 20
60.897
 10
272.35
 20
60.933
 10
272.409
 20
60.962
 10
272.471
 20
60.983
 10
272.535
 20
60.996
 10
272.6
 20
61.0
 10
272.665
 20
60.996
 10
272.729
 20
60.983
 10
272.791
 20
60.962
 10
272.85
 20
60.933
 10
272.904
 20
60.897
 10
272.954
 20
60.854
 10
272.997
 20
60.804
 10
273.033
 20
60.75
 10
273.062
 20
60.691
 10
273.083
 20
60.629
 10
273.096
 20
60.565
 97
0
 75
0
 76
1
 98
0
  0
HATCH
  5
A9
330
17
100
AcDbEntity
  8
RASTER
 62
7
100
AcDbHatch
 10
0.0
 20
0.0
 30
0.0
210
0.0
220
0.0
230
1.0
  2
SOLID
 70
1
 71
0
 91
1
 92
3
 72
0
 73
1
 93
48
 10
285.9
 20
60.5
 10
285.896
 20
60.435
 10
285.883
 20
60.371
 10
285.862
 20
60.309
 10
285.833
 20
60.25
 10
285.797
 20
60.196
 10
285.754
 20
60.146
 10
285.704
 20
60.103
 10
285.65
 20
60.067
 10
285.591
 20
60.038
 10
285.529
 20
60.017
 10
285.465
 20
60.004
 10
285.4
 20
60.0
 10
285.335
 20
60.004
 10
285.271
 20
60.017
 10
285.209
 20
60.038
 10
285.15
 20
60.067
 10
285.096
 20
60.103
 10
285.046
 20
60.146
 10
285.003
 20
60.196
 10
284.967
 20
60.25
 10
284.938
 20
60.309
 10
284.917
 20
60.371
 10
284.904
 20
60.435
 10
284.9
 20
60.5
 10
284.904
 20
60.565
 10
284.917
 20
60.629
 10
284.938
 20
60.691
 10
284.967
 20
60.75
 10
285.003
 20
60.804
 10
285.046
 20
60.854
 10
285.096
 20
60.897
 10
285.15
 20
60.933
 10
285.209
 20
60.962
 10
285.271
 20
60.983
 10
285.335
 20
60.996
 10
285.4
 20
61.0
 10
285.465
 20
60.996
 10
285.529
 20
60.983
 10
285.591
 20
60.962
 10
285.65
 20
60.933
 10
285.704
 20
60.897
 10
285.754
 20
60.854
 10
285.797
 20
60.804
 10
285.833
 20
60.75
 10
285.862
 20
60.691
 10
285.883
 20
60.629
 10
285.896
 20
60.565
 97
0
 75
0
 76
1
 98
0
  0
HATCH
  5
AA
330
17
100
AcDbEntity
  8
RASTER
 62
7
100
AcDbHatch
 10
0.0
 20
0.0
 30
0.0
210
0.0
220
0.0
230
1.0
  2
SOLID
 70
1
 71
0
 91
1
 92
3
 72
0
 73
1
 93
48
 10
273.1
 20
55.367
 10
273.096
 20
55.301
 10
273.083
 20
55.237
 10
273.062
 20
55.175
 10
273.033
 20
55.117
 10
272.997
 20
55.062
 10
272.954
 20
55.013
 10
272.904
 20
54.97
 10
272.85
 20
54.934
 10
272.791
 20
54.905
 10
272.729
 20
54.884
 10
272.665
 20
54.871
 10
272.6
 20
54.867
 10
272.535
 20
54.871
 10
272.471
 20
54.884
 10
272.409
 20
54.905
 10
272.35
 20
54.934
 10
272.296
 20
54.97
 10
272.246
 20
55.013
 10
272.203
 20
55.062
 10
272.167
 20
55.117
 10
272.138
 20
55.175
 10
272.117
 20
55.237
 10
272.104
 20
55.301
 10
272.1
 20
55.367
 10
272.104
 20
55.432
 10
272.117
 20
55.496
 10
272.138
 20
55.558
 10
272.167
 20
55.617
 10
272.203
 20
55.671
 10
272.246
 20
55.72
 10
272.296
 20
55.763
 10
272.35
 20
55.8
 10
272.409
 20
55.829
 10
272.471
 20
55.85
 10
272.535
 20
55.862
 10
272.6
 20
55.867
 10
272.665
 20
55.862
 10
272.729
 20
55.85
 10
272.791
 20
55.829
 10
272.85
 20
55.8
 10
272.904
 20
55.763
 10
272.954
 20
55.72
 10
272.997
 20
55.671
 10
273.033
 20
55.617
 10
273.062
 20
55.558
 10
273.083
 20
55.496
 10
273.096
 20
55.432
 97
0
 75
0
 76
1
 98
0
  0
HATCH
  5
AB
330
17
100
AcDbEntity
  8
RASTER
 62
7
100
AcDbHatch
 10
0.0
 20
0.0
 30
0.0
210
0.0
220
0.0
230
1.0
  2
SOLID
 70
1
 71
0
 91
1
 92
3
 72
0
 73
1
 93
48
 10
285.9
 20
55.367
 10
285.896
 20
55.301
 10
285.883
 20
55.237
 10
285.862
 20
55.175
 10
285.833
 20
55.117
 10
285.797
 20
55.062
 10
285.754
 20
55.013
 10
285.704
 20
54.97
 10
285.65
 20
54.934
 10
285.591
 20
54.905
 10
285.529
 20
54.884
 10
285.465
 20
54.871
 10
285.4
 20
54.867
 10
285.335
 20
54.871
 10
285.271
 20
54.884
 10
285.209
 20
54.905
 10
285.15
 20
54.934
 10
285.096
 20
54.97
 10
285.046
 20
55.013
 10
285.003
 20
55.062
 10
284.967
 20
55.117
 10
284.938
 20
55.175
 10
284.917
 20
55.237
 10
284.904
 20
55.301
 10
284.9
 20
55.367
 10
284.904
 20
55.432
 10
284.917
 20
55.496
 10
284.938
 20
55.558
 10
284.967
 20
55.617
 10
285.003
 20
55.671
 10
285.046
 20
55.72
 10
285.096
 20
55.763
 10
285.15
 20
55.8
 10
285.209
 20
55.829
 10
285.271
 20
55.85
 10
285.335
 20
55.862
 10
285.4
 20
55.867
 10
285.465
 20
55.862
 10
285.529
 20
55.85
 10
285.591
 20
55.829
 10
285.65
 20
55.8
 10
285.704
 20
55.763
 10
285.754
 20
55.72
 10
285.797
 20
55.671
 10
285.833
 20
55.617
 10
285.862
 20
55.558
 10
285.883
 20
55.496
 10
285.896
 20
55.432
 97
0
 75
0
 76
1
 98
0
  0
LWPOLYLINE
  5
AC
330
17
100
AcDbEntity
  8
CUT
100
AcDbPolyline
 90
20
 70
1
 10
6.91
 20
34.09
 10
31.09
 20
34.09
 10
31.09
 20
29.09
 10
34.09
 20
29.09
 10
34.09
 20
23.91
 10
31.09
 20
23.91
 10
31.09
 20
18.91
 10
26.29
 20
18.91
 10
26.29
 20
15.91
 10
21.31
 20
15.91
 10
21.31
 20
18.91
 10
16.69
 20
18.91
 10
16.69
 20
15.91
 10
11.71
 20
15.91
 10
11.71
 20
18.91
 10
6.91
 20
18.91
 10
6.91
 20
23.91
 10
3.91
 20
23.91
 10
3.91
 20
29.09
 10
6.91
 20
29.09
  0
LWPOLYLINE
  5
AD
330
17
100
AcDbEntity
  8
CUT
100
AcDbPolyline
 90
4
 70
1
 10
11.09
 20
29.677
 10
26.91
 20
29.677
 10
26.91
 20
28.457
 10
11.09
 20
28.457
  0
LWPOLYLINE
  5
AE
330
17
100
AcDbEntity
  8
CUT
100
AcDbPolyline
 90
4
 70
1
 10
11.09
 20
24.543
 10
26.91
 20
24.543
 10
26.91
 20
23.323
 10
11.09
 20
23.323
  0
HATCH
  5
AF
330
17
100
AcDbEntity
  8
RASTER
 62
7
100
AcDbHatch
 10
0.0
 20
0.0
 30
0.0
210
0.0
220
0.0
230
1.0
  2
SOLID
 70
1
 71
0
 91
1
 92
3
 72
0
 73
1
 93
4
 10
7.6
 20
33.6
 10
10.4
 20
33.6
 10
10.4
 20
19.4
 10
7.6
 20
19.4
 97
0
 75
0
 76
1
 98
0
  0
HATCH
  5
B0
330
17
100
AcDbEntity
  8
RASTER
 62
7
100
AcDbHatch
 10
0.0
 20
0.0
 30
0.0
210
0.0
220
0.0
230
1.0
  2
SOLID
 70
1
 71
0
 91
1
 92
3
 72
0
 73
1
 93
4
 10
27.6
 20
33.6
 10
30.4
 20
33.6
 10
30.4
 20
19.4
 10
27.6
 20
19.4
 97
0
 75
0
 76
1
 98
0
  0
HATCH
  5
B1
330
17
100
AcDbEntity
  8
RASTER
 62
7
100
AcDbHatch
 10
0.0
 20
0.0
 30
0.0
210
0.0
220
0.0
230
1.0
  2
SOLID
 70
1
 71
0
 91
1
 92
3
 72
0
 73
1
 93
48
 10
13.1
 20
31.633
 10
13.096
 20
31.568
 10
13.083
 20
31.504
 10
13.062
 20
31.442
 10
13.033
 20
31.383
 10
12.997
 20
31.329
 10
12.954
 20
31.28
 10
12.904
 20
31.237
 10
12.85
 20
31.2
 10
12.791
 20
31.171
 10
12.729
 20
31.15
 10
12.665
 20
31.138
 10
12.6
 20
31.133
 10
12.535
 20
31.138
 10
12.471
 20
31.15
 10
12.409
 20
31.171
 10
12.35
 20
31.2
 10
12.296
 20
31.237
 10
12.246
 20
31.28
 10
12.203
 20
31.329
 10
12.167
 20
31.383
 10
12.138
 20
31.442
 10
12.117
 20
31.504
 10
12.104
 20
31.568
 10
12.1
 20
31.633
 10
12.104
 20
31.699
 10
12.117
 20
31.763
 10
12.138
 20
31.825
 10
12.167
 20
31.883
 10
12.203
 20
31.938
 10
12.246
 20
31.987
 10
12.296
 20
32.03
 10
12.35
 20
32.066
 10
12.409
 20
32.095
 10
12.471
 20
32.116
 10
12.535
 20
32.129
 10
12.6
 20
32.133
 10
12.665
 20
32.129
 10
12.729
 20
32.116
 10
12.791
 20
32.095
 10
12.85
 20
32.066
 10
12.904
 20
32.03
 10
12.954
 20
31.987
 10
12.997
 20
31.938
 10
13.033
 20
31.883
 10
13.062
 20
31.825
 10
13.083
 20
31.763
 10
13.096
 20
31.699
 97
0
 75
0
 76
1
 98
0
  0
HATCH
  5
B2
330
17
100
AcDbEntity
  8
RASTER
 62
7
100
AcDbHatch
 10
0.0
 20
0.0
 30
0.0
210
0.0
220
0.0
230
1.0
  2
SOLID
 70
1
 71
0
 91
1
 92
3
 72
0
 73
1
 93
48
 10
25.9
 20
31.633
 10
25.896
 20
31.568
 10
25.883
 20
31.504
 10
25.862
 20
31.442
 10
25.833
 20
31.383
 10
25.797
 20
31.329
 10
25.754
 20
31.28
 10
25.704
 20
31.237
 10
25.65
 20
31.2
 10
25.591
 20
31.171
 10
25.529
 20
31.15
 10
25.465
 20
31.138
 10
25.4
 20
31.133
 10
25.335
 20
31.138
 10
25.271
 20
31.15
 10
25.209
 20
31.171
 10
25.15
 20
31.2
 10
25.096
 20
31.237
 10
25.046
 20
31.28
 10
25.003
 20
31.329
 10
24.967
 20
31.383
 10
24.938
 20
31.442
 10
24.917
 20
31.504
 10
24.904
 20
31.568
 10
24.9
 20
31.633
 10
24.904
 20
31.699
 10
24.917
 20
31.763
 10
24.938
 20
31.825
 10
24.967
 20
31.883
 10
25.003
 20
31.938
 10
25.046
 20
31.987
 10
25.096
 20
32.03
 10
25.15
 20
32.066
 10
25.209
 20
32.095
 10
25.271
 20
32.116
 10
25.335
 20
32.129
 10
25.4
 20
32.133
 10
25.465
 20
32.129
 10
25.529
 20
32.116
 10
25.591
 20
32.095
 10
25.65
 20
32.066
 10
25.704
 20
32.03
 10
25.754
 20
31.987
 10
25.797
 20
31.938
 10
25.833
 20
31.883
 10
25.862
 20
31.825
 10
25.883
 20
31.763
 10
25.896
 20
31.699
 97
0
 75
0
 76
1
 98
0
  0
HATCH
  5
B3
330
17
100
AcDbEntity
  8
RASTER
 62
7
100
AcDbHatch
 10
0.0
 20
0.0
 30
0.0
210
0.0
220
0.0
230
1.0
  2
SOLID
 70
1
 71
0
 91
1
 92
3
 72
0
 73
1
 93
48
 10
13.1
 20
26.5
 10
13.096
 20
26.435
 10
13.083
 20
26.371
 10
13.062
 20
26.309
 10
13.033
 20
26.25
 10
12.997
 20
26.196
 10
12.954
 20
26.146
 10
12.904
 20
26.103
 10
12.85
 20
26.067
 10
12.791
 20
26.038
 10
12.729
 20
26.017
 10
12.665
 20
26.004
 10
12.6
 20
26.0
 10
12.535
 20
26.004
 10
12.471
 20
26.017
 10
12.409
 20
26.038
 10
12.35
 20
26.067
 10
12.296
 20
26.103
 10
12.246
 20
26.146
 10
12.203
 20
26.196
 10
12.167
 20
26.25
 10
12.138
 20
26.309
 10
12.117
 20
26.371
 10
12.104
 20
26.435
 10
12.1
 20
26.5
 10
12.104
 20
26.565
 10
12.117
 20
26.629
 10
12.138
 20
26.691
 10
12.167
 20
26.75
 10
12.203
 20
26.804
 10
12.246
 20
26.854
 10
12.296
 20
26.897
 10
12.35
 20
26.933
 10
12.409
 20
26.962
 10
12.471
 20
26.983
 10
12.535
 20
26.996
 10
12.6
 20
27.0
 10
12.665
 20
26.996
 10
12.729
 20
26.983
 10
12.791
 20
26.962
 10
12.85
 20
26.933
 10
12.904
 20
26.897
 10
12.954
 20
26.854
 10
12.997
 20
26.804
 10
13.033
 20
26.75
 10
13.062
 20
26.691
 10
13.083
 20
26.629
 10
13.096
 20
26.565
 97
0
 75
0
 76
1
 98
0
  0
HATCH
  5
B4
330
17
100
AcDbEntity
  8
RASTER
 62
7
100
AcDbHatch
 10
0.0
 20
0.0
 30
0.0
210
0.0
220
0.0
230
1.0
  2
SOLID
 70
1
 71
0
 91
1
 92
3
 72
0
 73
1
 93
48
 10
25.9
 20
26.5
 10
25.896
 20
26.435
 10
25.883
 20
26.371
 10
25.862
 20
26.309
 10
25.833
 20
26.25
 10
25.797
 20
26.196
 10
25.754
 20
26.146
 10
25.704
 20
26.103
 10
25.65
 20
26.067
 10
25.591
 20
26.038
 10
25.529
 20
26.017
 10
25.465
 20
26.004
 10
25.4
 20
26.0
 10
25.335
 20
26.004
 10
25.271
 20
26.017
 10
25.209
 20
26.038
 10
25.15
 20
26.067
 10
25.096
 20
26.103
 10
25.046
 20
26.146
 10
25.003
 20
26.196
 10
24.967
 20
26.25
 10
24.938
 20
26.309
 10
24.917
 20
26.371
 10
24.904
 20
26.435
 10
24.9
 20
26.5
 10
24.904
 20
26.565
 10
24.917
 20
26.629
 10
24.938
 20
26.691
 10
24.967
 20
26.75
 10
25.003
 20
26.804
 10
25.046
 20
26.854
 10
25.096
 20
26.897
 10
25.15
 20
26.933
 10
25.209
 20
26.962
 10
25.271
 20
26.983
 10
25.335
 20
26.996
 10
25.4
 20
27.0
 10
25.465
 20
26.996
 10
25.529
 20
26.983
 10
25.591
 20
26.962
 10
25.65
 20
26.933
 10
25.704
 20
26.897
 10
25.754
 20
26.854
 10
25.797
 20
26.804
 10
25.833
 20
26.75
 10
25.862
 20
26.691
 10
25.883
 20
26.629
 10
25.896
 20
26.565
 97
0
 75
0
 76
1
 98
0
  0
HATCH
  5
B5
330
17
100
AcDbEntity
  8
RASTER
 62
7
100
AcDbHatch
 10
0.0
 20
0.0
 30
0.0
210
0.0
220
0.0
230
1.0
  2
SOLID
 70
1
 71
0
 91
1
 92
3
 72
0
 73
1
 93
48
 10
13.1
 20
21.367
 10
13.096
 20
21.301
 10
13.083
 20
21.237
 10
13.062
 20
21.175
 10
13.033
 20
21.117
 10
12.997
 20
21.062
 10
12.954
 20
21.013
 10
12.904
 20
20.97
 10
12.85
 20
20.934
 10
12.791
 20
20.905
 10
12.729
 20
20.884
 10
12.665
 20
20.871
 10
12.6
 20
20.867
 10
12.535
 20
20.871
 10
12.471
 20
20.884
 10
12.409
 20
20.905
 10
12.35
 20
20.934
 10
12.296
 20
20.97
 10
12.246
 20
21.013
 10
12.203
 20
21.062
 10
12.167
 20
21.117
 10
12.138
 20
21.175
 10
12.117
 20
21.237
 10
12.104
 20
21.301
 10
12.1
 20
21.367
 10
12.104
 20
21.432
 10
12.117
 20
21.496
 10
12.138
 20
21.558
 10
12.167
 20
21.617
 10
12.203
 20
21.671
 10
12.246
 20
21.72
 10
12.296
 20
21.763
 10
12.35
 20
21.8
 10
12.409
 20
21.829
 10
12.471
 20
21.85
 10
12.535
 20
21.862
 10
12.6
 20
21.867
 10
12.665
 20
21.862
 10
12.729
 20
21.85
 10
12.791
 20
21.829
 10
12.85
 20
21.8
 10
12.904
 20
21.763
 10
12.954
 20
21.72
 10
12.997
 20
21.671
 10
13.033
 20
21.617
 10
13.062
 20
21.558
 10
13.083
 20
21.496
 10
13.096
 20
21.432
 97
0
 75
0
 76
1
 98
0
  0
HATCH
  5
B6
330
17
100
AcDbEntity
  8
RASTER
 62
7
100
AcDbHatch
 10
0.0
 20
0.0
 30
0.0
210
0.0
220
0.0
230
1.0
  2
SOLID
 70
1
 71
0
 91
1
 92
3
 72
0
 73
1
 93
48
 10
25.9
 20
21.367
 10
25.896
 20
21.301
 10
25.883
 20
21.237
 10
25.862
 20
21.175
 10
25.833
 20
21.117
 10
25.797
 20
21.062
 10
25.754
 20
21.013
 10
25.704
 20
20.97
 10
25.65
 20
20.934
 10
25.591
 20
20.905
 10
25.529
 20
20.884
 10
25.465
 20
20.871
 10
25.4
 20
20.867
 10
25.335
 20
20.871
 10
25.271
 20
20.884
 10
25.209
 20
20.905
 10
25.15
 20
20.934
 10
25.096
 20
20.97
 10
25.046
 20
21.013
 10
25.003
 20
21.062
 10
24.967
 20
21.117
 10
24.938
 20
21.175
 10
24.917
 20
21.237
 10
24.904
 20
21.301
 10
24.9
 20
21.367
 10
24.904
 20
21.432
 10
24.917
 20
21.496
 10
24.938
 20
21.558
 10
24.967
 20
21.617
 10
25.003
 20
21.671
 10
25.046
 20
21.72
 10
25.096
 20
21.763
 10
25.15
 20
21.8
 10
25.209
 20
21.829
 10
25.271
 20
21.85
 10
25.335
 20
21.862
 10
25.4
 20
21.867
 10
25.465
 20
21.862
 10
25.529
 20
21.85
 10
25.591
 20
21.829
 10
25.65
 20
21.8
 10
25.704
 20
21.763
 10
25.754
 20
21.72
 10
25.797
 20
21.671
 10
25.833
 20
21.617
 10
25.862
 20
21.558
 10
25.883
 20
21.496
 10
25.896
 20
21.432
 97
0
 75
0
 76
1
 98
0
  0
LWPOLYLINE
  5
B7
330
17
100
AcDbEntity
  8
CUT
100
AcDbPolyline
 90
52
 70
1
 10
37.91
 20
34.09
 10
41.0
 20
34.09
 10
46.519
 20
34.09
 10
46.519
 20
31.09
 10
51.767
 20
31.09
 10
51.767
 20
34.09
 10
57.376
 20
34.09
 10
57.376
 20
31.09
 10
62.624
 20
31.09
 10
62.624
 20
34.09
 10
68.233
 20
34.09
 10
68.233
 20
31.09
 10
73.481
 20
31.09
 10
73.481
 20
34.09
 10
79.0
 20
34.09
 10
82.09
 20
34.09
 10
82.09
 20
31.0
 10
82.09
 20
26.11
 10
79.09
 20
26.11
 10
79.09
 20
21.49
 10
82.09
 20
21.49
 10
82.09
 20
16.51
 10
79.09
 20
16.51
 10
79.09
 20
11.89
 10
82.09
 20
11.89
 10
82.09
 20
7.0
 10
82.09
 20
3.91
 10
79.0
 20
3.91
 10
73.481
 20
3.91
 10
73.481
 20
6.91
 10
68.233
 20
6.91
 10
68.233
 20
3.91
 10
62.624
 20
3.91
 10
62.624
 20
6.91
 10
57.376
 20
6.91
 10
57.376
 20
3.91
 10
51.767
 20
3.91
 10
51.767
 20
6.91
 10
46.519
 20
6.91
 10
46.519
 20
3.91
 10
41.0
 20
3.91
 10
37.91
 20
3.91
 10
37.91
 20
7.0
 10
37.91
 20
11.89
 10
40.91
 20
11.89
 10
40.91
 20
16.51
 10
37.91
 20
16.51
 10
37.91
 20
21.49
 10
40.91
 20
21.49
 10
40.91
 20
26.11
 10
37.91
 20
26.11
 10
37.91
 20
31.0
  0
LWPOLYLINE
  5
B8
330
17
100
AcDbEntity
  8
CUT
100
AcDbPolyline
 90
28
 70
1
 10
89.0
 20
34.09
 10
127.0
 20
34.09
 10
130.09
 20
34.09
 10
130.09
 20
28.91
 10
127.09
 20
28.91
 10
127.09
 20
24.09
 10
130.09
 20
24.09
 10
130.09
 20
18.91
 10
127.0
 20
18.91
 10
121.661
 20
18.91
 10
121.661
 20
15.91
 10
116.053
 20
15.91
 10
116.053
 20
18.91
 10
110.804
 20
18.91
 10
110.804
 20
15.91
 10
105.196
 20
15.91
 10
105.196
 20
18.91
 10
99.947
 20
18.91
 10
99.947
 20
15.91
 10
94.339
 20
15.91
 10
94.339
 20
18.91
 10
89.0
 20
18.91
 10
85.91
 20
18.91
 10
85.91
 20
24.09
 10
88.91
 20
24.09
 10
88.91
 20
28.91
 10
85.91
 20
28.91
 10
85.91
 20
34.09
  0
LWPOLYLINE
  5
B9
330
17
100
AcDbEntity
  8
CUT
100
AcDbPolyline
 90
4
 70
1
 10
93.09
 20
29.677
 10
122.91
 20
29.677
 10
122.91
 20
28.457
 10
93.09
 20
28.457
  0
LWPOLYLINE
  5
BA
330
17
100
AcDbEntity
  8
CUT
100
AcDbPolyline
 90
4
 70
1
 10
93.09
 20
24.543
 10
122.91
 20
24.543
 10
122.91
 20
23.323
 10
93.09
 20
23.323
  0
HATCH
  5
BB
330
17
100
AcDbEntity
  8
RASTER
 62
7
100
AcDbHatch
 10
0.0
 20
0.0
 30
0.0
210
0.0
220
0.0
230
1.0
  2
SOLID
 70
1
 71
0
 91
1
 92
3
 72
0
 73
1
 93
4
 10
89.6
 20
33.6
 10
92.4
 20
33.6
 10
92.4
 20
19.4
 10
89.6
 20
19.4
 97
0
 75
0
 76
1
 98
0
  0
HATCH
  5
BC
330
17
100
AcDbEntity
  8
RASTER
 62
7
100
AcDbHatch
 10
0.0
 20
0.0
 30
0.0
210
0.0
220
0.0
230
1.0
  2
SOLID
 70
1
 71
0
 91
1
 92
3
 72
0
 73
1
 93
4
 10
123.6
 20
33.6
 10
126.4
 20
33.6
 10
126.4
 20
19.4
 10
123.6
 20
19.4
 97
0
 75
0
 76
1
 98
0
  0
HATCH
  5
BD
330
17
100
AcDbEntity
  8
RASTER
 62
7
100
AcDbHatch
 10
0.0
 20
0.0
 30
0.0
210
0.0
220
0.0
230
1.0
  2
SOLID
 70
1
 71
0
 91
1
 92
3
 72
0
 73
1
 93
48
 10
95.1
 20
31.633
 10
95.096
 20
31.568
 10
95.083
 20
31.504
 10
95.062
 20
31.442
 10
95.033
 20
31.383
 10
94.997
 20
31.329
 10
94.954
 20
31.28
 10
94.904
 20
31.237
 10
94.85
 20
31.2
 10
94.791
 20
31.171
 10
94.729
 20
31.15
 10
94.665
 20
31.138
 10
94.6
 20
31.133
 10
94.535
 20
31.138
 10
94.471
 20
31.15
 10
94.409
 20
31.171
 10
94.35
 20
31.2
 10
94.296
 20
31.237
 10
94.246
 20
31.28
 10
94.203
 20
31.329
 10
94.167
 20
31.383
 10
94.138
 20
31.442
 10
94.117
 20
31.504
 10
94.104
 20
31.568
 10
94.1
 20
31.633
 10
94.104
 20
31.699
 10
94.117
 20
31.763
 10
94.138
 20
31.825
 10
94.167
 20
31.883
 10
94.203
 20
31.938
 10
94.246
 20
31.987
 10
94.296
 20
32.03
 10
94.35
 20
32.066
 10
94.409
 20
32.095
 10
94.471
 20
32.116
 10
94.535
 20
32.129
 10
94.6
 20
32.133
 10
94.665
 20
32.129
 10
94.729
 20
32.116
 10
94.791
 20
32.095
 10
94.85
 20
32.066
 10
94.904
 20
32.03
 10
94.954
 20
31.987
 10
94.997
 20
31.938
 10
95.033
 20
31.883
 10
95.062
 20
31.825
 10
95.083
 20
31.763
 10
95.096
 20
31.699
 97
0
 75
0
 76
1
 98
0
  0
HATCH
  5
BE
330
17
100
AcDbEntity
  8
RASTER
 62
7
100
AcDbHatch
 10
0.0
 20
0.0
 30
0.0
210
0.0
220
0.0
230
1.0
  2
SOLID
 70
1
 71
0
 91
1
 92
3
 72
0
 73
1
 93
48
 10
121.9
 20
31.633
 10
121.896
 20
31.568
 10
121.883
 20
31.504
 10
121.862
 20
31.442
 10
121.833
 20
31.383
 10
121.797
 20
31.329
 10
121.754
 20
31.28
 10
121.704
 20
31.237
 10
121.65
 20
31.2
 10
121.591
 20
31.171
 10
121.529
 20
31.15
 10
121.465
 20
31.138
 10
121.4
 20
31.133
 10
121.335
 20
31.138
 10
121.271
 20
31.15
 10
121.209
 20
31.171
 10
121.15
 20
31.2
 10
121.096
 20
31.237
 10
121.046
 20
31.28
 10
121.003
 20
31.329
 10
120.967
 20
31.383
 10
120.938
 20
31.442
 10
120.917
 20
31.504
 10
120.904
 20
31.568
 10
120.9
 20
31.633
 10
120.904
 20
31.699
 10
120.917
 20
31.763
 10
120.938
 20
31.825
 10
120.967
 20
31.883
 10
121.003
 20
31.938
 10
121.046
 20
31.987
 10
121.096
 20
32.03
 10
121.15
 20
32.066
 10
121.209
 20
32.095
 10
121.271
 20
32.116
 10
121.335
 20
32.129
 10
121.4
 20
32.133
 10
121.465
 20
32.129
 10
121.529
 20
32.116
 10
121.591
 20
32.095
 10
121.65
 20
32.066
 10
121.704
 20
32.03
 10
121.754
 20
31.987
 10
121.797
 20
31.938
 10
121.833
 20
31.883
 10
121.862
 20
31.825
 10
121.883
 20
31.763
 10
121.896
 20
31.699
 97
0
 75
0
 76
1
 98
0
  0
HATCH
  5
BF
330
17
100
AcDbEntity
  8
RASTER
 62
7
100
AcDbHatch
 10
0.0
 20
0.0
 30
0.0
210
0.0
220
0.0
230
1.0
  2
SOLID
 70
1
 71
0
 91
1
 92
3
 72
0
 73
1
 93
48
 10
95.1
 20
26.5
 10
95.096
 20
26.435
 10
95.083
 20
26.371
 10
95.062
 20
26.309
 10
95.033
 20
26.25
 10
94.997
 20
26.196
 10
94.954
 20
26.146
 10
94.904
 20
26.103
 10
94.85
 20
26.067
 10
94.791
 20
26.038
 10
94.729
 20
26.017
 10
94.665
 20
26.004
 10
94.6
 20
26.0
 10
94.535
 20
26.004
 10
94.471
 20
26.017
 10
94.409
 20
26.038
 10
94.35
 20
26.067
 10
94.296
 20
26.103
 10
94.246
 20
26.146
 10
94.203
 20
26.196
 10
94.167
 20
26.25
 10
94.138
 20
26.309
 10
94.117
 20
26.371
 10
94.104
 20
26.435
 10
94.1
 20
26.5
 10
94.104
 20
26.565
 10
94.117
 20
26.629
 10
94.138
 20
26.691
 10
94.167
 20
26.75
 10
94.203
 20
26.804
 10
94.246
 20
26.854
 10
94.296
 20
26.897
 10
94.35
 20
26.933
 10
94.409
 20
26.962
 10
94.471
 20
26.983
 10
94.535
 20
26.996
 10
94.6
 20
27.0
 10
94.665
 20
26.996
 10
94.729
 20
26.983
 10
94.791
 20
26.962
 10
94.85
 20
26.933
 10
94.904
 20
26.897
 10
94.954
 20
26.854
 10
94.997
 20
26.804
 10
95.033
 20
26.75
 10
95.062
 20
26.691
 10
95.083
 20
26.629
 10
95.096
 20
26.565
 97
0
 75
0
 76
1
 98
0
  0
HATCH
  5
C0
330
17
100
AcDbEntity
  8
RASTER
 62
7
100
AcDbHatch
 10
0.0
 20
0.0
 30
0.0
210
0.0
220
0.0
230
1.0
  2
SOLID
 70
1
 71
0
 91
1
 92
3
 72
0
 73
1
 93
48
 10
121.9
 20
26.5
 10
121.896
 20
26.435
 10
121.883
 20
26.371
 10
121.862
 20
26.309
 10
121.833
 20
26.25
 10
121.797
 20
26.196
 10
121.754
 20
26.146
 10
121.704
 20
26.103
 10
121.65
 20
26.067
 10
121.591
 20
26.038
 10
121.529
 20
26.017
 10
121.465
 20
26.004
 10
121.4
 20
26.0
 10
121.335
 20
26.004
 10
121.271
 20
26.017
 10
121.209
 20
26.038
 10
121.15
 20
26.067
 10
121.096
 20
26.103
 10
121.046
 20
26.146
 10
121.003
 20
26.196
 10
120.967
 20
26.25
 10
120.938
 20
26.309
 10
120.917
 20
26.371
 10
120.904
 20
26.435
 10
120.9
 20
26.5
 10
120.904
 20
26.565
 10
120.917
 20
26.629
 10
120.938
 20
26.691
 10
120.967
 20
26.75
 10
121.003
 20
26.804
 10
121.046
 20
26.854
 10
121.096
 20
26.897
 10
121.15
 20
26.933
 10
121.209
 20
26.962
 10
121.271
 20
26.983
 10
121.335
 20
26.996
 10
121.4
 20
27.0
 10
121.465
 20
26.996
 10
121.529
 20
26.983
 10
121.591
 20
26.962
 10
121.65
 20
26.933
 10
121.704
 20
26.897
 10
121.754
 20
26.854
 10
121.797
 20
26.804
 10
121.833
 20
26.75
 10
121.862
 20
26.691
 10
121.883
 20
26.629
 10
121.896
 20
26.565
 97
0
 75
0
 76
1
 98
0
  0
HATCH
  5
C1
330
17
100
AcDbEntity
  8
RASTER
 62
7
100
AcDbHatch
 10
0.0
 20
0.0
 30
0.0
210
0.0
220
0.0
230
1.0
  2
SOLID
 70
1
 71
0
 91
1
 92
3
 72
0
 73
1
 93
48
 10
95.1
 20
21.367
 10
95.096
 20
21.301
 10
95.083
 20
21.237
 10
95.062
 20
21.175
 10
95.033
 20
21.117
 10
94.997
 20
21.062
 10
94.954
 20
21.013
 10
94.904
 20
20.97
 10
94.85
 20
20.934
 10
94.791
 20
20.905
 10
94.729
 20
20.884
 10
94.665
 20
20.871
 10
94.6
 20
20.867
 10
94.535
 20
20.871
 10
94.471
 20
20.884
 10
94.409
 20
20.905
 10
94.35
 20
20.934
 10
94.296
 20
20.97
 10
94.246
 20
21.013
 10
94.203
 20
21.062
 10
94.167
 20
21.117
 10
94.138
 20
21.175
 10
94.117
 20
21.237
 10
94.104
 20
21.301
 10
94.1
 20
21.367
 10
94.104
 20
21.432
 10
94.117
 20
21.496
 10
94.138
 20
21.558
 10
94.167
 20
21.617
 10
94.203
 20
21.671
 10
94.246
 20
21.72
 10
94.296
 20
21.763
 10
94.35
 20
21.8
 10
94.409
 20
21.829
 10
94.471
 20
21.85
 10
94.535
 20
21.862
 10
94.6
 20
21.867
 10
94.665
 20
21.862
 10
94.729
 20
21.85
 10
94.791
 20
21.829
 10
94.85
 20
21.8
 10
94.904
 20
21.763
 10
94.954
 20
21.72
 10
94.997
 20
21.671
 10
95.033
 20
21.617
 10
95.062
 20
21.558
 10
95.083
 20
21.496
 10
95.096
 20
21.432
 97
0
 75
0
 76
1
 98
0
  0
HATCH
  5
C2
330
17
100
AcDbEntity
  8
RASTER
 62
7
100
AcDbHatch
 10
0.0
 20
0.0
 30
0.0
210
0.0
220
0.0
230
1.0
  2
SOLID
 70
1
 71
0
 91
1
 92
3
 72
0
 73
1
 93
48
 10
121.9
 20
21.367
 10
121.896
 20
21.301
 10
121.883
 20
21.237
 10
121.862
 20
21.175
 10
121.833
 20
21.117
 10
121.797
 20
21.062
 10
121.754
 20
21.013
 10
121.704
 20
20.97
 10
121.65
 20
20.934
 10
121.591
 20
20.905
 10
121.529
 20
20.884
 10
121.465
 20
20.871
 10
121.4
 20
20.867
 10
121.335
 20
20.871
 10
121.271
 20
20.884
 10
121.209
 20
20.905
 10
121.15
 20
20.934
 10
121.096
 20
20.97
 10
121.046
 20
21.013
 10
121.003
 20
21.062
 10
120.967
 20
21.117
 10
120.938
 20
21.175
 10
120.917
 20
21.237
 10
120.904
 20
21.301
 10
120.9
 20
21.367
 10
120.904
 20
21.432
 10
120.917
 20
21.496
 10
120.938
 20
21.558
 10
120.967
 20
21.617
 10
121.003
 20
21.671
 10
121.046
 20
21.72
 10
121.096
 20
21.763
 10
121.15
 20
21.8
 10
121.209
 20
21.829
 10
121.271
 20
21.85
 10
121.335
 20
21.862
 10
121.4
 20
21.867
 10
121.465
 20
21.862
 10
121.529
 20
21.85
 10
121.591
 20
21.829
 10
121.65
 20
21.8
 10
121.704
 20
21.763
 10
121.754
 20
21.72
 10
121.797
 20
21.671
 10
121.833
 20
21.617
 10
121.862
 20
21.558
 10
121.883
 20
21.496
 10
121.896
 20
21.432
 97
0
 75
0
 76
1
 98
0
  0
LWPOLYLINE
  5
C3
330
17
100
AcDbEntity
  8
CUT
100
AcDbPolyline
 90
28
 70
1
 10
137.0
 20
34.09
 10
175.0
 20
34.09
 10
178.09
 20
34.09
 10
178.09
 20
28.91
 10
175.09
 20
28.91
 10
175.09
 20
24.09
 10
178.09
 20
24.09
 10
178.09
 20
18.91
 10
175.0
 20
18.91
 10
169.661
 20
18.91
 10
169.661
 20
15.91
 10
164.053
 20
15.91
 10
164.053
 20
18.91
 10
158.804
 20
18.91
 10
158.804
 20
15.91
 10
153.196
 20
15.91
 10
153.196
 20
18.91
 10
147.947
 20
18.91
 10
147.947
 20
15.91
 10
142.339
 20
15.91
 10
142.339
 20
18.91
 10
137.0
 20
18.91
 10
133.91
 20
18.91
 10
133.91
 20
24.09
 10
136.91
 20
24.09
 10
136.91
 20
28.91
 10
133.91
 20
28.91
 10
133.91
 20
34.09
  0
LWPOLYLINE
  5
C4
330
17
100
AcDbEntity
  8
CUT
100
AcDbPolyline
 90
4
 70
1
 10
141.09
 20
29.677
 10
170.91
 20
29.677
 10
170.91
 20
28.457
 10
141.09
 20
28.457
  0
LWPOLYLINE
  5
C5
330
17
100
AcDbEntity
  8
CUT
100
AcDbPolyline
 90
4
 70
1
 10
141.09
 20
24.543
 10
170.91
 20
24.543
 10
170.91
 20
23.323
 10
141.09
 20
23.323
  0
HATCH
  5
C6
330
17
100
AcDbEntity
  8
RASTER
 62
7
100
AcDbHatch
 10
0.0
 20
0.0
 30
0.0
210
0.0
220
0.0
230
1.0
  2
SOLID
 70
1
 71
0
 91
1
 92
3
 72
0
 73
1
 93
4
 10
137.6
 20
33.6
 10
140.4
 20
33.6
 10
140.4
 20
19.4
 10
137.6
 20
19.4
 97
0
 75
0
 76
1
 98
0
  0
HATCH
  5
C7
330
17
100
AcDbEntity
  8
RASTER
 62
7
100
AcDbHatch
 10
0.0
 20
0.0
 30
0.0
210
0.0
220
0.0
230
1.0
  2
SOLID
 70
1
 71
0
 91
1
 92
3
 72
0
 73
1
 93
4
 10
171.6
 20
33.6
 10
174.4
 20
33.6
 10
174.4
 20
19.4
 10
171.6
 20
19.4
 97
0
 75
0
 76
1
 98
0
  0
HATCH
  5
C8
330
17
100
AcDbEntity
  8
RASTER
 62
7
100
AcDbHatch
 10
0.0
 20
0.0
 30
0.0
210
0.0
220
0.0
230
1.0
  2
SOLID
 70
1
 71
0
 91
1
 92
3
 72
0
 73
1
 93
48
 10
143.1
 20
31.633
 10
143.096
 20
31.568
 10
143.083
 20
31.504
 10
143.062
 20
31.442
 10
143.033
 20
31.383
 10
142.997
 20
31.329
 10
142.954
 20
31.28
 10
142.904
 20
31.237
 10
142.85
 20
31.2
 10
142.791
 20
31.171
 10
142.729
 20
31.15
 10
142.665
 20
31.138
 10
142.6
 20
31.133
 10
142.535
 20
31.138
 10
142.471
 20
31.15
 10
142.409
 20
31.171
 10
142.35
 20
31.2
 10
142.296
 20
31.237
 10
142.246
 20
31.28
 10
142.203
 20
31.329
 10
142.167
 20
31.383
 10
142.138
 20
31.442
 10
142.117
 20
31.504
 10
142.104
 20
31.568
 10
142.1
 20
31.633
 10
142.104
 20
31.699
 10
142.117
 20
31.763
 10
142.138
 20
31.825
 10
142.167
 20
31.883
 10
142.203
 20
31.938
 10
142.246
 20
31.987
 10
142.296
 20
32.03
 10
142.35
 20
32.066
 10
142.409
 20
32.095
 10
142.471
 20
32.116
 10
142.535
 20
32.129
 10
142.6
 20
32.133
 10
142.665
 20
32.129
 10
142.729
 20
32.116
 10
142.791
 20
32.095
 10
142.85
 20
32.066
 10
142.904
 20
32.03
 10
142.954
 20
31.987
 10
142.997
 20
31.938
 10
143.033
 20
31.883
 10
143.062
 20
31.825
 10
143.083
 20
31.763
 10
143.096
 20
31.699
 97
0
 75
0
 76
1
 98
0
  0
HATCH
  5
C9
330
17
100
AcDbEntity
  8
RASTER
 62
7
100
AcDbHatch
 10
0.0
 20
0.0
 30
0.0
210
0.0
220
0.0
230
1.0
  2
SOLID
 70
1
 71
0
 91
1
 92
3
 72
0
 73
1
 93
48
 10
169.9
 20
31.633
 10
169.896
 20
31.568
 10
169.883
 20
31.504
 10
169.862
 20
31.442
 10
169.833
 20
31.383
 10
169.797
 20
31.329
 10
169.754
 20
31.28
 10
169.704
 20
31.237
 10
169.65
 20
31.2
 10
169.591
 20
31.171
 10
169.529
 20
31.15
 10
169.465
 20
31.138
 10
169.4
 20
31.133
 10
169.335
 20
31.138
 10
169.271
 20
31.15
 10
169.209
 20
31.171
 10
169.15
 20
31.2
 10
169.096
 20
31.237
 10
169.046
 20
31.28
 10
169.003
 20
31.329
 10
168.967
 20
31.383
 10
168.938
 20
31.442
 10
168.917
 20
31.504
 10
168.904
 20
31.568
 10
168.9
 20
31.633
 10
168.904
 20
31.699
 10
168.917
 20
31.763
 10
168.938
 20
31.825
 10
168.967
 20
31.883
 10
169.003
 20
31.938
 10
169.046
 20
31.987
 10
169.096
 20
32.03
 10
169.15
 20
32.066
 10
169.209
 20
32.095
 10
169.271
 20
32.116
 10
169.335
 20
32.129
 10
169.4
 20
32.133
 10
169.465
 20
32.129
 10
169.529
 20
32.116
 10
169.591
 20
32.095
 10
169.65
 20
32.066
 10
169.704
 20
32.03
 10
169.754
 20
31.987
 10
169.797
 20
31.938
 10
169.833
 20
31.883
 10
169.862
 20
31.825
 10
169.883
 20
31.763
 10
169.896
 20
31.699
 97
0
 75
0
 76
1
 98
0
  0
HATCH
  5
CA
330
17
100
AcDbEntity
  8
RASTER
 62
7
100
AcDbHatch
 10
0.0
 20
0.0
 30
0.0
210
0.0
220
0.0
230
1.0
  2
SOLID
 70
1
 71
0
 91
1
 92
3
 72
0
 73
1
 93
48
 10
143.1
 20
26.5
 10
143.096
 20
26.435
 10
143.083
 20
26.371
 10
143.062
 20
26.309
 10
143.033
 20
26.25
 10
142.997
 20
26.196
 10
142.954
 20
26.146
 10
142.904
 20
26.103
 10
142.85
 20
26.067
 10
142.791
 20
26.038
 10
142.729
 20
26.017
 10
142.665
 20
26.004
 10
142.6
 20
26.0
 10
142.535
 20
26.004
 10
142.471
 20
26.017
 10
142.409
 20
26.038
 10
142.35
 20
26.067
 10
142.296
 20
26.103
 10
142.246
 20
26.146
 10
142.203
 20
26.196
 10
142.167
 20
26.25
 10
142.138
 20
26.309
 10
142.117
 20
26.371
 10
142.104
 20
26.435
 10
142.1
 20
26.5
 10
142.104
 20
26.565
 10
142.117
 20
26.629
 10
142.138
 20
26.691
 10
142.167
 20
26.75
 10
142.203
 20
26.804
 10
142.246
 20
26.854
 10
142.296
 20
26.897
 10
142.35
 20
26.933
 10
142.409
 20
26.962
 10
142.471
 20
26.983
 10
142.535
 20
26.996
 10
142.6
 20
27.0
 10
142.665
 20
26.996
 10
142.729
 20
26.983
 10
142.791
 20
26.962
 10
142.85
 20
26.933
 10
142.904
 20
26.897
 10
142.954
 20
26.854
 10
142.997
 20
26.804
 10
143.033
 20
26.75
 10
143.062
 20
26.691
 10
143.083
 20
26.629
 10
143.096
 20
26.565
 97
0
 75
0
 76
1
 98
0
  0
HATCH
  5
CB
330
17
100
AcDbEntity
  8
RASTER
 62
7
100
AcDbHatch
 10
0.0
 20
0.0
 30
0.0
210
0.0
220
0.0
230
1.0
  2
SOLID
 70
1
 71
0
 91
1
 92
3
 72
0
 73
1
 93
48
 10
169.9
 20
26.5
 10
169.896
 20
26.435
 10
169.883
 20
26.371
 10
169.862
 20
26.309
 10
169.833
 20
26.25
 10
169.797
 20
26.196
 10
169.754
 20
26.146
 10
169.704
 20
26.103
 10
169.65
 20
26.067
 10
169.591
 20
26.038
 10
169.529
 20
26.017
 10
169.465
 20
26.004
 10
169.4
 20
26.0
 10
169.335
 20
26.004
 10
169.271
 20
26.017
 10
169.209
 20
26.038
 10
169.15
 20
26.067
 10
169.096
 20
26.103
 10
169.046
 20
26.146
 10
169.003
 20
26.196
 10
168.967
 20
26.25
 10
168.938
 20
26.309
 10
168.917
 20
26.371
 10
168.904
 20
26.435
 10
168.9
 20
26.5
 10
168.904
 20
26.565
 10
168.917
 20
26.629
 10
168.938
 20
26.691
 10
168.967
 20
26.75
 10
169.003
 20
26.804
 10
169.046
 20
26.854
 10
169.096
 20
26.897
 10
169.15
 20
26.933
 10
169.209
 20
26.962
 10
169.271
 20
26.983
 10
169.335
 20
26.996
 10
169.4
 20
27.0
 10
169.465
 20
26.996
 10
169.529
 20
26.983
 10
169.591
 20
26.962
 10
169.65
 20
26.933
 10
169.704
 20
26.897
 10
169.754
 20
26.854
 10
169.797
 20
26.804
 10
169.833
 20
26.75
 10
169.862
 20
26.691
 10
169.883
 20
26.629
 10
169.896
 20
26.565
 97
0
 75
0
 76
1
 98
0
  0
HATCH
  5
CC
330
17
100
AcDbEntity
  8
RASTER
 62
7
100
AcDbHatch
 10
0.0
 20
0.0
 30
0.0
210
0.0
220
0.0
230
1.0
  2
SOLID
 70
1
 71
0
 91
1
 92
3
 72
0
 73
1
 93
48
 10
143.1
 20
21.367
 10
143.096
 20
21.301
 10
143.083
 20
21.237
 10
143.062
 20
21.175
 10
143.033
 20
21.117
 10
142.997
 20
21.062
 10
142.954
 20
21.013
 10
142.904
 20
20.97
 10
142.85
 20
20.934
 10
142.791
 20
20.905
 10
142.729
 20
20.884
 10
142.665
 20
20.871
 10
142.6
 20
20.867
 10
142.535
 20
20.871
 10
142.471
 20
20.884
 10
142.409
 20
20.905
 10
142.35
 20
20.934
 10
142.296
 20
20.97
 10
142.246
 20
21.013
 10
142.203
 20
21.062
 10
142.167
 20
21.117
 10
142.138
 20
21.175
 10
142.117
 20
21.237
 10
142.104
 20
21.301
 10
142.1
 20
21.367
 10
142.104
 20
21.432
 10
142.117
 20
21.496
 10
142.138
 20
21.558
 10
142.167
 20
21.617
 10
142.203
 20
21.671
 10
142.246
 20
21.72
 10
142.296
 20
21.763
 10
142.35
 20
21.8
 10
142.409
 20
21.829
 10
142.471
 20
21.85
 10
142.535
 20
21.862
 10
142.6
 20
21.867
 10
142.665
 20
21.862
 10
142.729
 20
21.85
 10
142.791
 20
21.829
 10
142.85
 20
21.8
 10
142.904
 20
21.763
 10
142.954
 20
21.72
 10
142.997
 20
21.671
 10
143.033
 20
21.617
 10
143.062
 20
21.558
 10
143.083
 20
21.496
 10
143.096
 20
21.432
 97
0
 75
0
 76
1
 98
0
  0
HATCH
  5
CD
330
17
100
AcDbEntity
  8
RASTER
 62
7
100
AcDbHatch
 10
0.0
 20
0.0
 30
0.0
210
0.0
220
0.0
230
1.0
  2
SOLID
 70
1
 71
0
 91
1
 92
3
 72
0
 73
1
 93
48
 10
169.9
 20
21.367
 10
169.896
 20
21.301
 10
169.883
 20
21.237
 10
169.862
 20
21.175
 10
169.833
 20
21.117
 10
169.797
 20
21.062
 10
169.754
 20
21.013
 10
169.704
 20
20.97
 10
169.65
 20
20.934
 10
169.591
 20
20.905
 10
169.529
 20
20.884
 10
169.465
 20
20.871
 10
169.4
 20
20.867
 10
169.335
 20
20.871
 10
169.271
 20
20.884
 10
169.209
 20
20.905
 10
169.15
 20
20.934
 10
169.096
 20
20.97
 10
169.046
 20
21.013
 10
169.003
 20
21.062
 10
168.967
 20
21.117
 10
168.938
 20
21.175
 10
168.917
 20
21.237
 10
168.904
 20
21.301
 10
168.9
 20
21.367
 10
168.904
 20
21.432
 10
168.917
 20
21.496
 10
168.938
 20
21.558
 10
168.967
 20
21.617
 10
169.003
 20
21.671
 10
169.046
 20
21.72
 10
169.096
 20
21.763
 10
169.15
 20
21.8
 10
169.209
 20
21.829
 10
169.271
 20
21.85
 10
169.335
 20
21.862
 10
169.4
 20
21.867
 10
169.465
 20
21.862
 10
169.529
 20
21.85
 10
169.591
 20
21.829
 10
169.65
 20
21.8
 10
169.704
 20
21.763
 10
169.754
 20
21.72
 10
169.797
 20
21.671
 10
169.833
 20
21.617
 10
169.862
 20
21.558
 10
169.883
 20
21.496
 10
169.896
 20
21.432
 97
0
 75
0
 76
1
 98
0
  0
LWPOLYLINE
  5
CE
330
17
100
AcDbEntity
  8
CUT
100
AcDbPolyline
 90
20
 70
1
 10
184.91
 20
34.09
 10
209.09
 20
34.09
 10
209.09
 20
29.09
 10
212.09
 20
29.09
 10
212.09
 20
23.91
 10
209.09
 20
23.91
 10
209.09
 20
18.91
 10
204.29
 20
18.91
 10
204.29
 20
15.91
 10
199.31
 20
15.91
 10
199.31
 20
18.91
 10
194.69
 20
18.91
 10
194.69
 20
15.91
 10
189.71
 20
15.91
 10
189.71
 20
18.91
 10
184.91
 20
18.91
 10
184.91
 20
23.91
 10
181.91
 20
23.91
 10
181.91
 20
29.09
 10
184.91
 20
29.09
  0
LWPOLYLINE
  5
CF
330
17
100
AcDbEntity
  8
CUT
100
AcDbPolyline
 90
4
 70
1
 10
189.09
 20
29.677
 10
204.91
 20
29.677
 10
204.91
 20
28.457
 10
189.09
 20
28.457
  0
LWPOLYLINE
  5
D0
330
17
100
AcDbEntity
  8
CUT
100
AcDbPolyline
 90
4
 70
1
 10
189.09
 20
24.543
 10
204.91
 20
24.543
 10
204.91
 20
23.323
 10
189.09
 20
23.323
  0
HATCH
  5
D1
330
17
100
AcDbEntity
  8
RASTER
 62
7
100
AcDbHatch
 10
0.0
 20
0.0
 30
0.0
210
0.0
220
0.0
230
1.0
  2
SOLID
 70
1
 71
0
 91
1
 92
3
 72
0
 73
1
 93
4
 10
185.6
 20
33.6
 10
188.4
 20
33.6
 10
188.4
 20
19.4
 10
185.6
 20
19.4
 97
0
 75
0
 76
1
 98
0
  0
HATCH
  5
D2
330
17
100
AcDbEntity
  8
RASTER
 62
7
100
AcDbHatch
 10
0.0
 20
0.0
 30
0.0
210
0.0
220
0.0
230
1.0
  2
SOLID
 70
1
 71
0
 91
1
 92
3
 72
0
 73
1
 93
4
 10
205.6
 20
33.6
 10
208.4
 20
33.6
 10
208.4
 20
19.4
 10
205.6
 20
19.4
 97
0
 75
0
 76
1
 98
0
  0
HATCH
  5
D3
330
17
100
AcDbEntity
  8
RASTER
 62
7
100
AcDbHatch
 10
0.0
 20
0.0
 30
0.0
210
0.0
220
0.0
230
1.0
  2
SOLID
 70
1
 71
0
 91
1
 92
3
 72
0
 73
1
 93
48
 10
191.1
 20
31.633
 10
191.096
 20
31.568
 10
191.083
 20
31.504
 10
191.062
 20
31.442
 10
191.033
 20
31.383
 10
190.997
 20
31.329
 10
190.954
 20
31.28
 10
190.904
 20
31.237
 10
190.85
 20
31.2
 10
190.791
 20
31.171
 10
190.729
 20
31.15
 10
190.665
 20
31.138
 10
190.6
 20
31.133
 10
190.535
 20
31.138
 10
190.471
 20
31.15
 10
190.409
 20
31.171
 10
190.35
 20
31.2
 10
190.296
 20
31.237
 10
190.246
 20
31.28
 10
190.203
 20
31.329
 10
190.167
 20
31.383
 10
190.138
 20
31.442
 10
190.117
 20
31.504
 10
190.104
 20
31.568
 10
190.1
 20
31.633
 10
190.104
 20
31.699
 10
190.117
 20
31.763
 10
190.138
 20
31.825
 10
190.167
 20
31.883
 10
190.203
 20
31.938
 10
190.246
 20
31.987
 10
190.296
 20
32.03
 10
190.35
 20
32.066
 10
190.409
 20
32.095
 10
190.471
 20
32.116
 10
190.535
 20
32.129
 10
190.6
 20
32.133
 10
190.665
 20
32.129
 10
190.729
 20
32.116
 10
190.791
 20
32.095
 10
190.85
 20
32.066
 10
190.904
 20
32.03
 10
190.954
 20
31.987
 10
190.997
 20
31.938
 10
191.033
 20
31.883
 10
191.062
 20
31.825
 10
191.083
 20
31.763
 10
191.096
 20
31.699
 97
0
 75
0
 76
1
 98
0
  0
HATCH
  5
D4
330
17
100
AcDbEntity
  8
RASTER
 62
7
100
AcDbHatch
 10
0.0
 20
0.0
 30
0.0
210
0.0
220
0.0
230
1.0
  2
SOLID
 70
1
 71
0
 91
1
 92
3
 72
0
 73
1
 93
48
 10
203.9
 20
31.633
 10
203.896
 20
31.568
 10
203.883
 20
31.504
 10
203.862
 20
31.442
 10
203.833
 20
31.383
 10
203.797
 20
31.329
 10
203.754
 20
31.28
 10
203.704
 20
31.237
 10
203.65
 20
31.2
 10
203.591
 20
31.171
 10
203.529
 20
31.15
 10
203.465
 20
31.138
 10
203.4
 20
31.133
 10
203.335
 20
31.138
 10
203.271
 20
31.15
 10
203.209
 20
31.171
 10
203.15
 20
31.2
 10
203.096
 20
31.237
 10
203.046
 20
31.28
 10
203.003
 20
31.329
 10
202.967
 20
31.383
 10
202.938
 20
31.442
 10
202.917
 20
31.504
 10
202.904
 20
31.568
 10
202.9
 20
31.633
 10
202.904
 20
31.699
 10
202.917
 20
31.763
 10
202.938
 20
31.825
 10
202.967
 20
31.883
 10
203.003
 20
31.938
 10
203.046
 20
31.987
 10
203.096
 20
32.03
 10
203.15
 20
32.066
 10
203.209
 20
32.095
 10
203.271
 20
32.116
 10
203.335
 20
32.129
 10
203.4
 20
32.133
 10
203.465
 20
32.129
 10
203.529
 20
32.116
 10
203.591
 20
32.095
 10
203.65
 20
32.066
 10
203.704
 20
32.03
 10
203.754
 20
31.987
 10
203.797
 20
31.938
 10
203.833
 20
31.883
 10
203.862
 20
31.825
 10
203.883
 20
31.763
 10
203.896
 20
31.699
 97
0
 75
0
 76
1
 98
0
  0
HATCH
  5
D5
330
17
100
AcDbEntity
  8
RASTER
 62
7
100
AcDbHatch
 10
0.0
 20
0.0
 30
0.0
210
0.0
220
0.0
230
1.0
  2
SOLID
 70
1
 71
0
 91
1
 92
3
 72
0
 73
1
 93
48
 10
191.1
 20
26.5
 10
191.096
 20
26.435
 10
191.083
 20
26.371
 10
191.062
 20
26.309
 10
191.033
 20
26.25
 10
190.997
 20
26.196
 10
190.954
 20
26.146
 10
190.904
 20
26.103
 10
190.85
 20
26.067
 10
190.791
 20
26.038
 10
190.729
 20
26.017
 10
190.665
 20
26.004
 10
190.6
 20
26.0
 10
190.535
 20
26.004
 10
190.471
 20
26.017
 10
190.409
 20
26.038
 10
190.35
 20
26.067
 10
190.296
 20
26.103
 10
190.246
 20
26.146
 10
190.203
 20
26.196
 10
190.167
 20
26.25
 10
190.138
 20
26.309
 10
190.117
 20
26.371
 10
190.104
 20
26.435
 10
190.1
 20
26.5
 10
190.104
 20
26.565
 10
190.117
 20
26.629
 10
190.138
 20
26.691
 10
190.167
 20
26.75
 10
190.203
 20
26.804
 10
190.246
 20
26.854
 10
190.296
 20
26.897
 10
190.35
 20
26.933
 10
190.409
 20
26.962
 10
190.471
 20
26.983
 10
190.535
 20
26.996
 10
190.6
 20
27.0
 10
190.665
 20
26.996
 10
190.729
 20
26.983
 10
190.791
 20
26.962
 10
190.85
 20
26.933
 10
190.904
 20
26.897
 10
190.954
 20
26.854
 10
190.997
 20
26.804
 10
191.033
 20
26.75
 10
191.062
 20
26.691
 10
191.083
 20
26.629
 10
191.096
 20
26.565
 97
0
 75
0
 76
1
 98
0
  0
HATCH
  5
D6
330
17
100
AcDbEntity
  8
RASTER
 62
7
100
AcDbHatch
 10
0.0
 20
0.0
 30
0.0
210
0.0
220
0.0
230
1.0
  2
SOLID
 70
1
 71
0
 91
1
 92
3
 72
0
 73
1
 93
48
 10
203.9
 20
26.5
 10
203.896
 20
26.435
 10
203.883
 20
26.371
 10
203.862
 20
26.309
 10
203.833
 20
26.25
 10
203.797
 20
26.196
 10
203.754
 20
26.146
 10
203.704
 20
26.103
 10
203.65
 20
26.067
 10
203.591
 20
26.038
 10
203.529
 20
26.017
 10
203.465
 20
26.004
 10
203.4
 20
26.0
 10
203.335
 20
26.004
 10
203.271
 20
26.017
 10
203.209
 20
26.038
 10
203.15
 20
26.067
 10
203.096
 20
26.103
 10
203.046
 20
26.146
 10
203.003
 20
26.196
 10
202.967
 20
26.25
 10
202.938
 20
26.309
 10
202.917
 20
26.371
 10
202.904
 20
26.435
 10
202.9
 20
26.5
 10
202.904
 20
26.565
 10
202.917
 20
26.629
 10
202.938
 20
26.691
 10
202.967
 20
26.75
 10
203.003
 20
26.804
 10
203.046
 20
26.854
 10
203.096
 20
26.897
 10
203.15
 20
26.933
 10
203.209
 20
26.962
 10
203.271
 20
26.983
 10
203.335
 20
26.996
 10
203.4
 20
27.0
 10
203.465
 20
26.996
 10
203.529
 20
26.983
 10
203.591
 20
26.962
 10
203.65
 20
26.933
 10
203.704
 20
26.897
 10
203.754
 20
26.854
 10
203.797
 20
26.804
 10
203.833
 20
26.75
 10
203.862
 20
26.691
 10
203.883
 20
26.629
 10
203.896
 20
26.565
 97
0
 75
0
 76
1
 98
0
  0
HATCH
  5
D7
330
17
100
AcDbEntity
  8
RASTER
 62
7
100
AcDbHatch
 10
0.0
 20
0.0
 30
0.0
210
0.0
220
0.0
230
1.0
  2
SOLID
 70
1
 71
0
 91
1
 92
3
 72
0
 73
1
 93
48
 10
191.1
 20
21.367
 10
191.096
 20
21.301
 10
191.083
 20
21.237
 10
191.062
 20
21.175
 10
191.033
 20
21.117
 10
190.997
 20
21.062
 10
190.954
 20
21.013
 10
190.904
 20
20.97
 10
190.85
 20
20.934
 10
190.791
 20
20.905
 10
190.729
 20
20.884
 10
190.665
 20
20.871
 10
190.6
 20
20.867
 10
190.535
 20
20.871
 10
190.471
 20
20.884
 10
190.409
 20
20.905
 10
190.35
 20
20.934
 10
190.296
 20
20.97
 10
190.246
 20
21.013
 10
190.203
 20
21.062
 10
190.167
 20
21.117
 10
190.138
 20
21.175
 10
190.117
 20
21.237
 10
190.104
 20
21.301
 10
190.1
 20
21.367
 10
190.104
 20
21.432
 10
190.117
 20
21.496
 10
190.138
 20
21.558
 10
190.167
 20
21.617
 10
190.203
 20
21.671
 10
190.246
 20
21.72
 10
190.296
 20
21.763
 10
190.35
 20
21.8
 10
190.409
 20
21.829
 10
190.471
 20
21.85
 10
190.535
 20
21.862
 10
190.6
 20
21.867
 10
190.665
 20
21.862
 10
190.729
 20
21.85
 10
190.791
 20
21.829
 10
190.85
 20
21.8
 10
190.904
 20
21.763
 10
190.954
 20
21.72
 10
190.997
 20
21.671
 10
191.033
 20
21.617
 10
191.062
 20
21.558
 10
191.083
 20
21.496
 10
191.096
 20
21.432
 97
0
 75
0
 76
1
 98
0
  0
HATCH
  5
D8
330
17
100
AcDbEntity
  8
RASTER
 62
7
100
AcDbHatch
 10
0.0
 20
0.0
 30
0.0
210
0.0
220
0.0
230
1.0
  2
SOLID
 70
1
 71
0
 91
1
 92
3
 72
0
 73
1
 93
48
 10
203.9
 20
21.367
 10
203.896
 20
21.301
 10
203.883
 20
21.237
 10
203.862
 20
21.175
 10
203.833
 20
21.117
 10
203.797
 20
21.062
 10
203.754
 20
21.013
 10
203.704
 20
20.97
 10
203.65
 20
20.934
 10
203.591
 20
20.905
 10
203.529
 20
20.884
 10
203.465
 20
20.871
 10
203.4
 20
20.867
 10
203.335
 20
20.871
 10
203.271
 20
20.884
 10
203.209
 20
20.905
 10
203.15
 20
20.934
 10
203.096
 20
20.97
 10
203.046
 20
21.013
 10
203.003
 20
21.062
 10
202.967
 20
21.117
 10
202.938
 20
21.175
 10
202.917
 20
21.237
 10
202.904
 20
21.301
 10
202.9
 20
21.367
 10
202.904
 20
21.432
 10
202.917
 20
21.496
 10
202.938
 20
21.558
 10
202.967
 20
21.617
 10
203.003
 20
21.671
 10
203.046
 20
21.72
 10
203.096
 20
21.763
 10
203.15
 20
21.8
 10
203.209
 20
21.829
 10
203.271
 20
21.85
 10
203.335
 20
21.862
 10
203.4
 20
21.867
 10
203.465
 20
21.862
 10
203.529
 20
21.85
 10
203.591
 20
21.829
 10
203.65
 20
21.8
 10
203.704
 20
21.763
 10
203.754
 20
21.72
 10
203.797
 20
21.671
 10
203.833
 20
21.617
 10
203.862
 20
21.558
 10
203.883
 20
21.496
 10
203.896
 20
21.432
 97
0
 75
0
 76
1
 98
0
  0
LWPOLYLINE
  5
D9
330
17
100
AcDbEntity
  8
CUT
100
AcDbPolyline
 90
20
 70
1
 10
218.91
 20
34.09
 10
243.09
 20
34.09
 10
243.09
 20
29.09
 10
246.09
 20
29.09
 10
246.09
 20
23.91
 10
243.09
 20
23.91
 10
243.09
 20
18.91
 10
238.29
 20
18.91
 10
238.29
 20
15.91
 10
233.31
 20
15.91
 10
233.31
 20
18.91
 10
228.69
 20
18.91
 10
228.69
 20
15.91
 10
223.71
 20
15.91
 10
223.71
 20
18.91
 10
218.91
 20
18.91
 10
218.91
 20
23.91
 10
215.91
 20
23.91
 10
215.91
 20
29.09
 10
218.91
 20
29.09
  0
LWPOLYLINE
  5
DA
330
17
100
AcDbEntity
  8
CUT
100
AcDbPolyline
 90
4
 70
1
 10
223.09
 20
29.677
 10
238.91
 20
29.677
 10
238.91
 20
28.457
 10
223.09
 20
28.457
  0
LWPOLYLINE
  5
DB
330
17
100
AcDbEntity
  8
CUT
100
AcDbPolyline
 90
4
 70
1
 10
223.09
 20
24.543
 10
238.91
 20
24.543
 10
238.91
 20
23.323
 10
223.09
 20
23.323
  0
HATCH
  5
DC
330
17
100
AcDbEntity
  8
RASTER
 62
7
100
AcDbHatch
 10
0.0
 20
0.0
 30
0.0
210
0.0
220
0.0
230
1.0
  2
SOLID
 70
1
 71
0
 91
1
 92
3
 72
0
 73
1
 93
4
 10
219.6
 20
33.6
 10
222.4
 20
33.6
 10
222.4
 20
19.4
 10
219.6
 20
19.4
 97
0
 75
0
 76
1
 98
0
  0
HATCH
  5
DD
330
17
100
AcDbEntity
  8
RASTER
 62
7
100
AcDbHatch
 10
0.0
 20
0.0
 30
0.0
210
0.0
220
0.0
230
1.0
  2
SOLID
 70
1
 71
0
 91
1
 92
3
 72
0
 73
1
 93
4
 10
239.6
 20
33.6
 10
242.4
 20
33.6
 10
242.4
 20
19.4
 10
239.6
 20
19.4
 97
0
 75
0
 76
1
 98
0
  0
HATCH
  5
DE
330
17
100
AcDbEntity
  8
RASTER
 62
7
100
AcDbHatch
 10
0.0
 20
0.0
 30
0.0
210
0.0
220
0.0
230
1.0
  2
SOLID
 70
1
 71
0
 91
1
 92
3
 72
0
 73
1
 93
48
 10
225.1
 20
31.633
 10
225.096
 20
31.568
 10
225.083
 20
31.504
 10
225.062
 20
31.442
 10
225.033
 20
31.383
 10
224.997
 20
31.329
 10
224.954
 20
31.28
 10
224.904
 20
31.237
 10
224.85
 20
31.2
 10
224.791
 20
31.171
 10
224.729
 20
31.15
 10
224.665
 20
31.138
 10
224.6
 20
31.133
 10
224.535
 20
31.138
 10
224.471
 20
31.15
 10
224.409
 20
31.171
 10
224.35
 20
31.2
 10
224.296
 20
31.237
 10
224.246
 20
31.28
 10
224.203
 20
31.329
 10
224.167
 20
31.383
 10
224.138
 20
31.442
 10
224.117
 20
31.504
 10
224.104
 20
31.568
 10
224.1
 20
31.633
 10
224.104
 20
31.699
 10
224.117
 20
31.763
 10
224.138
 20
31.825
 10
224.167
 20
31.883
 10
224.203
 20
31.938
 10
224.246
 20
31.987
 10
224.296
 20
32.03
 10
224.35
 20
32.066
 10
224.409
 20
32.095
 10
224.471
 20
32.116
 10
224.535
 20
32.129
 10
224.6
 20
32.133
 10
224.665
 20
32.129
 10
224.729
 20
32.116
 10
224.791
 20
32.095
 10
224.85
 20
32.066
 10
224.904
 20
32.03
 10
224.954
 20
31.987
 10
224.997
 20
31.938
 10
225.033
 20
31.883
 10
225.062
 20
31.825
 10
225.083
 20
31.763
 10
225.096
 20
31.699
 97
0
 75
0
 76
1
 98
0
  0
HATCH
  5
DF
330
17
100
AcDbEntity
  8
RASTER
 62
7
100
AcDbHatch
 10
0.0
 20
0.0
 30
0.0
210
0.0
220
0.0
230
1.0
  2
SOLID
 70
1
 71
0
 91
1
 92
3
 72
0
 73
1
 93
48
 10
237.9
 20
31.633
 10
237.896
 20
31.568
 10
237.883
 20
31.504
 10
237.862
 20
31.442
 10
237.833
 20
31.383
 10
237.797
 20
31.329
 10
237.754
 20
31.28
 10
237.704
 20
31.237
 10
237.65
 20
31.2
 10
237.591
 20
31.171
 10
237.529
 20
31.15
 10
237.465
 20
31.138
 10
237.4
 20
31.133
 10
237.335
 20
31.138
 10
237.271
 20
31.15
 10
237.209
 20
31.171
 10
237.15
 20
31.2
 10
237.096
 20
31.237
 10
237.046
 20
31.28
 10
237.003
 20
31.329
 10
236.967
 20
31.383
 10
236.938
 20
31.442
 10
236.917
 20
31.504
 10
236.904
 20
31.568
 10
236.9
 20
31.633
 10
236.904
 20
31.699
 10
236.917
 20
31.763
 10
236.938
 20
31.825
 10
236.967
 20
31.883
 10
237.003
 20
31.938
 10
237.046
 20
31.987
 10
237.096
 20
32.03
 10
237.15
 20
32.066
 10
237.209
 20
32.095
 10
237.271
 20
32.116
 10
237.335
 20
32.129
 10
237.4
 20
32.133
 10
237.465
 20
32.129
 10
237.529
 20
32.116
 10
237.591
 20
32.095
 10
237.65
 20
32.066
 10
237.704
 20
32.03
 10
237.754
 20
31.987
 10
237.797
 20
31.938
 10
237.833
 20
31.883
 10
237.862
 20
31.825
 10
237.883
 20
31.763
 10
237.896
 20
31.699
 97
0
 75
0
 76
1
 98
0
  0
HATCH
  5
E0
330
17
100
AcDbEntity
  8
RASTER
 62
7
100
AcDbHatch
 10
0.0
 20
0.0
 30
0.0
210
0.0
220
0.0
230
1.0
  2
SOLID
 70
1
 71
0
 91
1
 92
3
 72
0
 73
1
 93
48
 10
225.1
 20
26.5
 10
225.096
 20
26.435
 10
225.083
 20
26.371
 10
225.062
 20
26.309
 10
225.033
 20
26.25
 10
224.997
 20
26.196
 10
224.954
 20
26.146
 10
224.904
 20
26.103
 10
224.85
 20
26.067
 10
224.791
 20
26.038
 10
224.729
 20
26.017
 10
224.665
 20
26.004
 10
224.6
 20
26.0
 10
224.535
 20
26.004
 10
224.471
 20
26.017
 10
224.409
 20
26.038
 10
224.35
 20
26.067
 10
224.296
 20
26.103
 10
224.246
 20
26.146
 10
224.203
 20
26.196
 10
224.167
 20
26.25
 10
224.138
 20
26.309
 10
224.117
 20
26.371
 10
224.104
 20
26.435
 10
224.1
 20
26.5
 10
224.104
 20
26.565
 10
224.117
 20
26.629
 10
224.138
 20
26.691
 10
224.167
 20
26.75
 10
224.203
 20
26.804
 10
224.246
 20
26.854
 10
224.296
 20
26.897
 10
224.35
 20
26.933
 10
224.409
 20
26.962
 10
224.471
 20
26.983
 10
224.535
 20
26.996
 10
224.6
 20
27.0
 10
224.665
 20
26.996
 10
224.729
 20
26.983
 10
224.791
 20
26.962
 10
224.85
 20
26.933
 10
224.904
 20
26.897
 10
224.954
 20
26.854
 10
224.997
 20
26.804
 10
225.033
 20
26.75
 10
225.062
 20
26.691
 10
225.083
 20
26.629
 10
225.096
 20
26.565
 97
0
 75
0
 76
1
 98
0
  0
HATCH
  5
E1
330
17
100
AcDbEntity
  8
RASTER
 62
7
100
AcDbHatch
 10
0.0
 20
0.0
 30
0.0
210
0.0
220
0.0
230
1.0
  2
SOLID
 70
1
 71
0
 91
1
 92
3
 72
0
 73
1
 93
48
 10
237.9
 20
26.5
 10
237.896
 20
26.435
 10
237.883
 20
26.371
 10
237.862
 20
26.309
 10
237.833
 20
26.25
 10
237.797
 20
26.196
 10
237.754
 20
26.146
 10
237.704
 20
26.103
 10
237.65
 20
26.067
 10
237.591
 20
26.038
 10
237.529
 20
26.017
 10
237.465
 20
26.004
 10
237.4
 20
26.0
 10
237.335
 20
26.004
 10
237.271
 20
26.017
 10
237.209
 20
26.038
 10
237.15
 20
26.067
 10
237.096
 20
26.103
 10
237.046
 20
26.146
 10
237.003
 20
26.196
 10
236.967
 20
26.25
 10
236.938
 20
26.309
 10
236.917
 20
26.371
 10
236.904
 20
26.435
 10
236.9
 20
26.5
 10
236.904
 20
26.565
 10
236.917
 20
26.629
 10
236.938
 20
26.691
 10
236.967
 20
26.75
 10
237.003
 20
26.804
 10
237.046
 20
26.854
 10
237.096
 20
26.897
 10
237.15
 20
26.933
 10
237.209
 20
26.962
 10
237.271
 20
26.983
 10
237.335
 20
26.996
 10
237.4
 20
27.0
 10
237.465
 20
26.996
 10
237.529
 20
26.983
 10
237.591
 20
26.962
 10
237.65
 20
26.933
 10
237.704
 20
26.897
 10
237.754
 20
26.854
 10
237.797
 20
26.804
 10
237.833
 20
26.75
 10
237.862
 20
26.691
 10
237.883
 20
26.629
 10
237.896
 20
26.565
 97
0
 75
0
 76
1
 98
0
  0
HATCH
  5
E2
330
17
100
AcDbEntity
  8
RASTER
 62
7
100
AcDbHatch
 10
0.0
 20
0.0
 30
0.0
210
0.0
220
0.0
230
1.0
  2
SOLID
 70
1
 71
0
 91
1
 92
3
 72
0
 73
1
 93
48
 10
225.1
 20
21.367
 10
225.096
 20
21.301
 10
225.083
 20
21.237
 10
225.062
 20
21.175
 10
225.033
 20
21.117
 10
224.997
 20
21.062
 10
224.954
 20
21.013
 10
224.904
 20
20.97
 10
224.85
 20
20.934
 10
224.791
 20
20.905
 10
224.729
 20
20.884
 10
224.665
 20
20.871
 10
224.6
 20
20.867
 10
224.535
 20
20.871
 10
224.471
 20
20.884
 10
224.409
 20
20.905
 10
224.35
 20
20.934
 10
224.296
 20
20.97
 10
224.246
 20
21.013
 10
224.203
 20
21.062
 10
224.167
 20
21.117
 10
224.138
 20
21.175
 10
224.117
 20
21.237
 10
224.104
 20
21.301
 10
224.1
 20
21.367
 10
224.104
 20
21.432
 10
224.117
 20
21.496
 10
224.138
 20
21.558
 10
224.167
 20
21.617
 10
224.203
 20
21.671
 10
224.246
 20
21.72
 10
224.296
 20
21.763
 10
224.35
 20
21.8
 10
224.409
 20
21.829
 10
224.471
 20
21.85
 10
224.535
 20
21.862
 10
224.6
 20
21.867
 10
224.665
 20
21.862
 10
224.729
 20
21.85
 10
224.791
 20
21.829
 10
224.85
 20
21.8
 10
224.904
 20
21.763
 10
224.954
 20
21.72
 10
224.997
 20
21.671
 10
225.033
 20
21.617
 10
225.062
 20
21.558
 10
225.083
 20
21.496
 10
225.096
 20
21.432
 97
0
 75
0
 76
1
 98
0
  0
HATCH
  5
E3
330
17
100
AcDbEntity
  8
RASTER
 62
7
100
AcDbHatch
 10
0.0
 20
0.0
 30
0.0
210
0.0
220
0.0
230
1.0
  2
SOLID
 70
1
 71
0
 91
1
 92
3
 72
0
 73
1
 93
48
 10
237.9
 20
21.367
 10
237.896
 20
21.301
 10
237.883
 20
21.237
 10
237.862
 20
21.175
 10
237.833
 20
21.117
 10
237.797
 20
21.062
 10
237.754
 20
21.013
 10
237.704
 20
20.97
 10
237.65
 20
20.934
 10
237.591
 20
20.905
 10
237.529
 20
20.884
 10
237.465
 20
20.871
 10
237.4
 20
20.867
 10
237.335
 20
20.871
 10
237.271
 20
20.884
 10
237.209
 20
20.905
 10
237.15
 20
20.934
 10
237.096
 20
20.97
 10
237.046
 20
21.013
 10
237.003
 20
21.062
 10
236.967
 20
21.117
 10
236.938
 20
21.175
 10
236.917
 20
21.237
 10
236.904
 20
21.301
 10
236.9
 20
21.367
 10
236.904
 20
21.432
 10
236.917
 20
21.496
 10
236.938
 20
21.558
 10
236.967
 20
21.617
 10
237.003
 20
21.671
 10
237.046
 20
21.72
 10
237.096
 20
21.763
 10
237.15
 20
21.8
 10
237.209
 20
21.829
 10
237.271
 20
21.85
 10
237.335
 20
21.862
 10
237.4
 20
21.867
 10
237.465
 20
21.862
 10
237.529
 20
21.85
 10
237.591
 20
21.829
 10
237.65
 20
21.8
 10
237.704
 20
21.763
 10
237.754
 20
21.72
 10
237.797
 20
21.671
 10
237.833
 20
21.617
 10
237.862
 20
21.558
 10
237.883
 20
21.496
 10
237.896
 20
21.432
 97
0
 75
0
 76
1
 98
0
  0
LWPOLYLINE
  5
E4
330
17
100
AcDbEntity
  8
CUT
100
AcDbPolyline
 90
52
 70
1
 10
249.91
 20
34.09
 10
253.0
 20
34.09
 10
258.519
 20
34.09
 10
258.519
 20
31.09
 10
263.767
 20
31.09
 10
263.767
 20
34.09
 10
269.376
 20
34.09
 10
269.376
 20
31.09
 10
274.624
 20
31.09
 10
274.624
 20
34.09
 10
280.233
 20
34.09
 10
280.233
 20
31.09
 10
285.481
 20
31.09
 10
285.481
 20
34.09
 10
291.0
 20
34.09
 10
294.09
 20
34.09
 10
294.09
 20
31.0
 10
294.09
 20
26.11
 10
291.09
 20
26.11
 10
291.09
 20
21.49
 10
294.09
 20
21.49
 10
294.09
 20
16.51
 10
291.09
 20
16.51
 10
291.09
 20
11.89
 10
294.09
 20
11.89
 10
294.09
 20
7.0
 10
294.09
 20
3.91
 10
291.0
 20
3.91
 10
285.481
 20
3.91
 10
285.481
 20
6.91
 10
280.233
 20
6.91
 10
280.233
 20
3.91
 10
274.624
 20
3.91
 10
274.624
 20
6.91
 10
269.376
 20
6.91
 10
269.376
 20
3.91
 10
263.767
 20
3.91
 10
263.767
 20
6.91
 10
258.519
 20
6.91
 10
258.519
 20
3.91
 10
253.0
 20
3.91
 10
249.91
 20
3.91
 10
249.91
 20
7.0
 10
249.91
 20
11.89
 10
252.91
 20
11.89
 10
252.91
 20
16.51
 10
249.91
 20
16.51
 10
249.91
 20
21.49
 10
252.91
 20
21.49
 10
252.91
 20
26.11
 10
249.91
 20
26.11
 10
249.91
 20
31.0
  0
ENDSEC
  0
SECTION
  2
OBJECTS
  0
DICTIONARY
  5
A
330
0
100
AcDbDictionary
281
1
  3
ACAD_COLOR
350
B
  3
ACAD_GROUP
350
C
  3
ACAD_LAYOUT
350
D
  3
ACAD_MATERIAL
350
E
  3
ACAD_MLEADERSTYLE
350
F
  3
ACAD_MLINESTYLE
350
10
  3
ACAD_PLOTSETTINGS
350
11
  3
ACAD_PLOTSTYLENAME
350
12
  3
ACAD_SCALELIST
350
14
  3
ACAD_TABLESTYLE
350
15
  3
ACAD_VISUALSTYLE
350
16
  3
EZDXF_META
350
2D
  0
DICTIONARY
  5
B
330
A
100
AcDbDictionary
281
1
  0
DICTIONARY
  5
C
330
A
100
AcDbDictionary
281
1
  0
DICTIONARY
  5
D
330
A
100
AcDbDictionary
281
1
  3
Model
350
1A
  3
Layout1
350
1E
  0
DICTIONARY
  5
E
330
A
100
AcDbDictionary
281
1
  3
ByBlock
350
1F
  3
ByLayer
350
20
  3
Global
350
21
  0
DICTIONARY
  5
F
330
A
100
AcDbDictionary
281
1
  3
Standard
350
2C
  0
DICTIONARY
  5
10
330
A
100
AcDbDictionary
281
1
  3
Standard
350
22
  0
DICTIONARY
  5
11
330
A
100
AcDbDictionary
281
1
  0
ACDBDICTIONARYWDFLT
  5
12
330
A
100
AcDbDictionary
281
1
  3
Normal
350
13
100
AcDbDictionaryWithDefault
340
13
  0
ACDBPLACEHOLDER
  5
13
330
12
  0
DICTIONARY
  5
14
330
A
100
AcDbDictionary
281
1
  0
DICTIONARY
  5
15
330
A
100
AcDbDictionary
281
1
  0
DICTIONARY
  5
16
330
A
100
AcDbDictionary
281
1
  0
LAYOUT
  5
1A
330
D
100
AcDbPlotSettings
  1

  4
A3
  6

 40
7.5
 41
20.0
 42
7.5
 43
20.0
 44
420.0
 45
297.0
 46
0.0
 47
0.0
 48
0.0
 49
0.0
140
0.0
141
0.0
142
1.0
143
1.0
 70
1024
 72
1
 73
0
 74
5
  7

 75
16
 76
0
 77
2
 78
300
147
1.0
148
0.0
149
0.0
100
AcDbLayout
  1
Model
 70
1
 71
0
 10
0.0
 20
0.0
 11
420.0
 21
297.0
 12
0.0
 22
0.0
 32
0.0
 14
1e+20
 24
1e+20
 34
1e+20
 15
-1e+20
 25
-1e+20
 35
-1e+20
146
0.0
 13
0.0
 23
0.0
 33
0.0
 16
1.0
 26
0.0
 36
0.0
 17
0.0
 27
1.0
 37
0.0
 76
1
330
17
  0
LAYOUT
  5
1E
330
D
100
AcDbPlotSettings
  1

  4
A3
  6

 40
7.5
 41
20.0
 42
7.5
 43
20.0
 44
420.0
 45
297.0
 46
0.0
 47
0.0
 48
0.0
 49
0.0
140
0.0
141
0.0
142
1.0
143
1.0
 70
0
 72
1
 73
0
 74
5
  7

 75
16
 76
0
 77
2
 78
300
147
1.0
148
0.0
149
0.0
100
AcDbLayout
  1
Layout1
 70
1
 71
1
 10
0.0
 20
0.0
 11
420.0
 21
297.0
 12
0.0
 22
0.0
 32
0.0
 14
1e+20
 24
1e+20
 34
1e+20
 15
-1e+20
 25
-1e+20
 35
-1e+20
146
0.0
 13
0.0
 23
0.0
 33
0.0
 16
1.0
 26
0.0
 36
0.0
 17
0.0
 27
1.0
 37
0.0
 76
1
330
1B
  0
MATERIAL
  5
1F
102
{ACAD_REACTORS
330
E
102
}
330
E
100
AcDbMaterial
  1
ByBlock
  2

 70
0
 40
1.0
 71
1
 41
1.0
 91
-1023410177
 42
1.0
 72
1
  3

 73
1
 74
1
 75
1
 44
0.5
 73
0
 45
1.0
 46
1.0
 77
1
  4

 78
1
 79
1
170
1
 48
1.0
171
1
  6

172
1
173
1
174
1
140
1.0
141
1.0
175
1
  7

176
1
177
1
178
1
143
1.0
179
1
  8

270
1
271
1
272
1
145
1.0
146
1.0
273
1
  9

274
1
275
1
276
1
 42
1.0
 72
1
  3

 73
1
 74
1
 75
1
 94
63
  0
MATERIAL
  5
20
102
{ACAD_REACTORS
330
E
102
}
330
E
100
AcDbMaterial
  1
ByLayer
  2

 70
0
 40
1.0
 71
1
 41
1.0
 91
-1023410177
 42
1.0
 72
1
  3

 73
1
 74
1
 75
1
 44
0.5
 73
0
 45
1.0
 46
1.0
 77
1
  4

 78
1
 79
1
170
1
 48
1.0
171
1
  6

172
1
173
1
174
1
140
1.0
141
1.0
175
1
  7

176
1
177
1
178
1
143
1.0
179
1
  8

270
1
271
1
272
1
145
1.0
146
1.0
273
1
  9

274
1
275
1
276
1
 42
1.0
 72
1
  3

 73
1
 74
1
 75
1
 94
63
  0
MATERIAL
  5
21
102
{ACAD_REACTORS
330
E
102
}
330
E
100
AcDbMaterial
  1
Global
  2

 70
0
 40
1.0
 71
1
 41
1.0
 91
-1023410177
 42
1.0
 72
1
  3

 73
1
 74
1
 75
1
 44
0.5
 73
0
 45
1.0
 46
1.0
 77
1
  4

 78
1
 79
1
170
1
 48
1.0
171
1
  6

172
1
173
1
174
1
140
1.0
141
1.0
175
1
  7

176
1
177
1
178
1
143
1.0
179
1
  8

270
1
271
1
272
1
145
1.0
146
1.0
273
1
  9

274
1
275
1
276
1
 42
1.0
 72
1
  3

 73
1
 74
1
 75
1
 94
63
  0
MLINESTYLE
  5
22
102
{ACAD_REACTORS
330
10
102
}
330
10
100
AcDbMlineStyle
  2
Standard
 70
0
  3

 62
256
 51
90.0
 52
90.0
 71
2
 49
0.5
 62
256
  6
BYLAYER
 49
-0.5
 62
256
  6
BYLAYER
  0
MLEADERSTYLE
  5
2C
102
{ACAD_REACTORS
330
F
102
}
330
F
100
AcDbMLeaderStyle
179
2
170
2
171
1
172
0
 90
2
 40
0.0
 41
0.0
173
1
 91
-1056964608
 92
-2
290
1
 42
2.0
291
1
 43
8.0
  3
Standard
 44
4.0
300

342
29
174
1
175
1
176
0
178
1
 93
-1056964608
 45
4.0
292
0
297
0
 46
4.0
 94
-1056964608
 47
1.0
 49
1.0
140
1.0
294
1
141
0.0
177
0
142
1.0
295
0
296
0
143
3.75
271
0
272
9
273
9
  0
DICTIONARY
  5
2D
330
A
100
AcDbDictionary
280
1
281
1
  3
CREATED_BY_EZDXF
350
2E
  3
WRITTEN_BY_EZDXF
350
E7
  0
DICTIONARYVAR
  5
2E
330
2D
100
DictionaryVariables
280
0
  1
1.4.2 @ 2026-08-25T17:03:53.125978+00:00
  0
DICTIONARYVAR
  5
E7
330
2D
100
DictionaryVariables
280
0
  1
1.4.2 @ 2026-08-25T17:03:53.136183+00:00
  0
ENDSEC
  0
EOF
