  0
SECTION
  2
HEADER
  9
$ACADVER
  1
AC1015
  9
$ACADMAINTVER
 70
6
  9
$DWGCODEPAGE
  3
ANSI_1252
  9
$INSBASE
 10
0.0
 20
0.0
 30
0.0
  9
$EXTMIN
 10
1e+20
 20
1e+20
 30
1e+20
  9
$EXTMAX
 10
-1e+20
 20
-1e+20
 30
-1e+20
  9
$LIMMIN
 10
0.0
 20
0.0
  9
$LIMMAX
 10
420.0
 20
297.0
  9
$ORTHOMODE
 70
0
  9
$REGENMODE
 70
1
  9
$FILLMODE
 70
1
  9
$QTEXTMODE
 70
0
  9
$MIRRTEXT
 70
1
  9
$LTSCALE
 40
1.0
  9
$ATTMODE
 70
1
  9
$TEXTSIZE
 40
2.5
  9
$TRACEWID
 40
1.0
  9
$TEXTSTYLE
  7
Standard
  9
$CLAYER
  8
0
  9
$CELTYPE
  6
ByLayer
  9
$CECOLOR
 62
256
  9
$CELTSCALE
 40
1.0
  9
$DISPSILH
 70
0
  9
$DIMSCALE
 40
1.0
  9
$DIMASZ
 40
2.5
  9
$DIMEXO
 40
0.625
  9
$DIMDLI
 40
3.75
  9
$DIMRND
 40
0.0
  9
$DIMDLE
 40
0.0
  9
$DIMEXE
 40
1.25
  9
$DIMTP
 40
0.0
  9
$DIMTM
 40
0.0
  9
$DIMTXT
 40
2.5
  9
$DIMCEN
 40
2.5
  9
$DIMTSZ
 40
0.0
  9
$DIMTOL
 70
0
  9
$DIMLIM
 70
0
  9
$DIMTIH
 70
0
  9
$DIMTOH
 70
0
  9
$DIMSE1
 70
0
  9
$DIMSE2
 70
0
  9
$DIMTAD
 70
1
  9
$DIMZIN
 70
8
  9
$DIMBLK
  1

  9
$DIMASO
 70
1
  9
$DIMSHO
 70
1
  9
$DIMPOST
  1

  9
$DIMAPOST
  1

  9
$DIMALT
 70
0
  9
$DIMALTD
 70
3
  9
$DIMALTF
 40
0.03937007874
  9
$DIMLFAC
 40
1.0
  9
$DIMTOFL
 70
1
  9
$DIMTVP
 40
0.0
  9
$DIMTIX
 70
0
  9
$DIMSOXD
 70
0
  9
$DIMSAH
 70
0
  9
$DIMBLK1
  1

  9
$DIMBLK2
  1

  9
$DIMSTYLE
  2
ISO-25
  9
$DIMCLRD
 70
0
  9
$DIMCLRE
 70
0
  9
$DIMCLRT
 70
0
  9
$DIMTFAC
 40
1.0
  9
$DIMGAP
 40
0.625
  9
$DIMJUST
 70
0
  9
$DIMSD1
 70
0
  9
$DIMSD2
 70
0
  9
$DIMTOLJ
 70
0
  9
$DIMTZIN
 70
8
  9
$DIMALTZ
 70
0
  9
$DIMALTTZ
 70
0
  9
$DIMUPT
 70
0
  9
$DIMDEC
 70
2
  9
$DIMTDEC
 70
2
  9
$DIMALTU
 70
2
  9
$DIMALTTD
 70
3
  9
$DIMTXSTY
  7
Standard
  9
$DIMAUNIT
 70
0
  9
$DIMADEC
 70
0
  9
$DIMALTRND
 40
0.0
  9
$DIMAZIN
 70
0
  9
$DIMDSEP
 70
44
  9
$DIMATFIT
 70
3
  9
$DIMFRAC
 70
0
  9
$DIMLDRBLK
  1

  9
$DIMLUNIT
 70
2
  9
$DIMLWD
 70
-2
  9
$DIMLWE
 70
-2
  9
$DIMTMOVE
 70
0
  9
$LUNITS
 70
2
  9
$LUPREC
 70
4
  9
$SKETCHINC
 40
1.0
  9
$FILLETRAD
 40
10.0
  9
$AUNITS
 70
0
  9
$AUPREC
 70
2
  9
$MENU
  1
.
  9
$ELEVATION
 40
0.0
  9
$PELEVATION
 40
0.0
  9
$THICKNESS
 40
0.0
  9
$LIMCHECK
 70
0
  9
$CHAMFERA
 40
0.0
  9
$CHAMFERB
 40
0.0
  9
$CHAMFERC
 40
0.0
  9
$CHAMFERD
 40
0.0
  9
$SKPOLY
 70
0
  9
$TDCREATE
 40
2461278.57755787
  9
$TDUCREATE
 40
2458532.153996898
  9
$TDUPDATE
 40
2461278.57755787
  9
$TDUUPDATE
 40
2458532.1544311
  9
$TDINDWG
 40
0.0
  9
$TDUSRTIMER
 40
0.0
  9
$USRTIMER
 70
1
  9
$ANGBASE
 50
0.0
  9
$ANGDIR
 70
0
  9
$PDMODE
 70
0
  9
$PDSIZE
 40
0.0
  9
$PLINEWID
 40
0.0
  9
$SPLFRAME
 70
0
  9
$SPLINETYPE
 70
6
  9
$SPLINESEGS
 70
8
  9
$HANDSEED
  5
E8
  9
$SURFTAB1
 70
6
  9
$SURFTAB2
 70
6
  9
$SURFTYPE
 70
6
  9
$SURFU
 70
6
  9
$SURFV
 70
6
  9
$UCSBASE
  2

  9
$UCSNAME
  2

  9
$UCSORG
 10
0.0
 20
0.0
 30
0.0
  9
$UCSXDIR
 10
1.0
 20
0.0
 30
0.0
  9
$UCSYDIR
 10
0.0
 20
1.0
 30
0.0
  9
$UCSORTHOREF
  2

  9
$UCSORTHOVIEW
 70
0
  9
$UCSORGTOP
 10
0.0
 20
0.0
 30
0.0
  9
$UCSORGBOTTOM
 10
0.0
 20
0.0
 30
0.0
  9
$UCSORGLEFT
 10
0.0
 20
0.0
 30
0.0
  9
$UCSORGRIGHT
 10
0.0
 20
0.0
 30
0.0
  9
$UCSORGFRONT
 10
0.0
 20
0.0
 30
0.0
  9
$UCSORGBACK
 10
0.0
 20
0.0
 30
0.0
  9
$PUCSBASE
  2

  9
$PUCSNAME
  2

  9
$PUCSORG
 10
0.0
 20
0.0
 30
0.0
  9
$PUCSXDIR
 10
1.0
 20
0.0
 30
0.0
  9
$PUCSYDIR
 10
0.0
 20
1.0
 30
0.0
  9
$PUCSORTHOREF
  2

  9
$PUCSORTHOVIEW
 70
0
  9
$PUCSORGTOP
 10
0.0
 20
0.0
 30
0.0
  9
$PUCSORGBOTTOM
 10
0.0
 20
0.0
 30
0.0
  9
$PUCSORGLEFT
 10
0.0
 20
0.0
 30
0.0
  9
$PUCSORGRIGHT
 10
0.0
 20
0.0
 30
0.0
  9
$PUCSORGFRONT
 10
0.0
 20
0.0
 30
0.0
  9
$PUCSORGBACK
 10
0.0
 20
0.0
 30
0.0
  9
$USERI1
 70
0
  9
$USERI2
 70
0
  9
$USERI3
 70
0
  9
$USERI4
 70
0
  9
$USERI5
 70
0
  9
$USERR1
 40
0.0
  9
$USERR2
 40
0.0
  9
$USERR3
 40
0.0
  9
$USERR4
 40
0.0
  9
$USERR5
 40
0.0
  9
$WORLDVIEW
 70
1
  9
$SHADEDGE
 70
3
  9
$SHADEDIF
 70
70
  9
$TILEMODE
 70
1
  9
$MAXACTVP
 70
64
  9
$PINSBASE
 10
0.0
 20
0.0
 30
0.0
  9
$PLIMCHECK
 70
0
  9
$PEXTMIN
 10
1e+20
 20
1e+20
 30
1e+20
  9
$PEXTMAX
 10
-1e+20
 20
-1e+20
 30
-1e+20
  9
$PLIMMIN
 10
0.0
 20
0.0
  9
$PLIMMAX
 10
420.0
 20
297.0
  9
$UNITMODE
 70
0
  9
$VISRETAIN
 70
1
  9
$PLINEGEN
 70
0
  9
$PSLTSCALE
 70
1
  9
$TREEDEPTH
 70
3020
  9
$CMLSTYLE
  2
Standard
  9
$CMLJUST
 70
0
  9
$CMLSCALE
 40
20.0
  9
$PROXYGRAPHICS
 70
1
  9
$MEASUREMENT
 70
1
  9
$CELWEIGHT
370
-1
  9
$ENDCAPS
280
0
  9
$JOINSTYLE
280
0
  9
$LWDISPLAY
290
0
  9
$INSUNITS
 70
4
  9
$HYPERLINKBASE
  1

  9
$STYLESHEET
  1

  9
$XEDIT
290
1
  9
$CEPSNTYPE
380
0
  9
$PSTYLEMODE
290
1
  9
$FINGERPRINTGUID
  2
{0AFAF8AD-F83D-4C13-A2E7-50E61C530DC2}
  9
$VERSIONGUID
  2
{E85FFCCA-6238-4D6F-86F6-AC1342944693}
  9
$EXTNAMES
290
1
  9
$PSVPSCALE
 40
0.0
  9
$OLESTARTUP
290
0
  0
ENDSEC
  0
SECTION
  2
CLASSES
  0
CLASS
  1
ACDBDICTIONARYWDFLT
  2
AcDbDictionaryWithDefault
  3
ObjectDBX Classes
 90
0
280
0
281
0
  0
CLASS
  1
SUN
  2
AcDbSun
  3
SCENEOE
 90
1153
280
0
281
0
  0
CLASS
  1
VISUALSTYLE
  2
AcDbVisualStyle
  3
ObjectDBX Classes
 90
4095
280
0
281
0
  0
CLASS
  1
MATERIAL
  2
AcDbMaterial
  3
ObjectDBX Classes
 90
1153
280
0
281
0
  0
CLASS
  1
SCALE
  2
AcDbScale
  3
ObjectDBX Classes
 90
1153
280
0
281
0
  0
CLASS
  1
TABLESTYLE
  2
AcDbTableStyle
  3
ObjectDBX Classes
 90
4095
280
0
281
0
  0
CLASS
  1
MLEADERSTYLE
  2
AcDbMLeaderStyle
  3
ACDB_MLEADERSTYLE_CLASS
 90
4095
280
0
281
0
  0
CLASS
  1
DICTIONARYVAR
  2
AcDbDictionaryVar
  3
ObjectDBX Classes
 90
0
280
0
281
0
  0
CLASS
  1
CELLSTYLEMAP
  2
AcDbCellStyleMap
  3
ObjectDBX Classes
 90
1152
280
0
281
0
  0
CLASS
  1
MENTALRAYRENDERSETTINGS
  2
AcDbMentalRayRenderSettings
  3
SCENEOE
 90
1024
280
0
281
0
  0
CLASS
  1
ACDBDETAILVIEWSTYLE
  2
AcDbDetailViewStyle
  3
ObjectDBX Classes
 90
1025
280
0
281
0
  0
CLASS
  1
ACDBSECTIONVIEWSTYLE
  2
AcDbSectionViewStyle
  3
ObjectDBX Classes
 90
1025
280
0
281
0
  0
CLASS
  1
RASTERVARIABLES
  2
AcDbRasterVariables
  3
ISM
 90
0
280
0
281
0
  0
CLASS
  1
ACDBPLACEHOLDER
  2
AcDbPlaceHolder
  3
ObjectDBX Classes
 90
0
280
0
281
0
  0
CLASS
  1
LAYOUT
  2
AcDbLayout
  3
ObjectDBX Classes
 90
0
280
0
281
0
  0
ENDSEC
  0
SECTION
  2
TABLES
  0
TABLE
  2
VPORT
  5
8
330
0
100
AcDbSymbolTable
 70
1
  0
VPORT
  5
23
330
8
100
AcDbSymbolTableRecord
100
AcDbViewportTableRecord
  2
*Active
 70
0
 10
0.0
 20
0.0
 11
1.0
 21
1.0
 12
0.0
 22
0.0
 13
0.0
 23
0.0
 14
0.5
 24
0.5
 15
0.5
 25
0.5
 16
0.0
 26
0.0
 36
1.0
 17
0.0
 27
0.0
 37
0.0
 40
1000.0
 41
1.34
 42
50.0
 43
0.0
 44
0.0
 50
0.0
 51
0.0
 71
0
 72
1000
 73
1
 74
3
 75
0
 76
0
 77
0
 78
0
281
0
 65
0
146
0.0
  0
ENDTAB
  0
TABLE
  2
LTYPE
  5
2
330
0
100
AcDbSymbolTable
 70
3
  0
LTYPE
  5
24
330
2
100
AcDbSymbolTableRecord
100
AcDbLinetypeTableRecord
  2
ByBlock
 70
0
  3

 72
65
 73
0
 40
0.0
  0
LTYPE
  5
25
330
2
100
AcDbSymbolTableRecord
100
AcDbLinetypeTableRecord
  2
ByLayer
 70
0
  3

 72
65
 73
0
 40
0.0
  0
LTYPE
  5
26
330
2
100
AcDbSymbolTableRecord
100
AcDbLinetypeTableRecord
  2
Continuous
 70
0
  3

 72
65
 73
0
 40
0.0
  0
ENDTAB
  0
TABLE
  2
LAYER
  5
1
330
0
100
AcDbSymbolTable
 70
4
  0
LAYER
  5
27
330
1
100
AcDbSymbolTableRecord
100
AcDbLayerTableRecord
  2
0
 70
0
 62
7
  6
Continuous
370
-3
390
13
  0
LAYER
  5
28
330
1
100
AcDbSymbolTableRecord
100
AcDbLayerTableRecord
  2
Defpoints
 70
0
 62
7
  6
Continuous
290
0
370
-3
390
13
  0
LAYER
  5
2F
330
1
100
AcDbSymbolTableRecord
100
AcDbLayerTableRecord
  2
CUT
 70
0
 62
1
  6
Continuous
370
-3
390
13
  0
LAYER
  5
30
330
1
100
AcDbSymbolTableRecord
100
AcDbLayerTableRecord
  2
RASTER
 70
0
 62
7
  6
Continuous
370
-3
390
13
  0
ENDTAB
  0
TABLE
  2
STYLE
  5
5
330
0
100
AcDbSymbolTable
 70
1
  0
STYLE
  5
29
330
5
100
AcDbSymbolTableRecord
100
AcDbTextStyleTableRecord
  2
Standard
 70
0
 40
0.0
 41
1.0
 50
0.0
 71
0
 42
2.5
  3
txt
  4

  0
ENDTAB
  0
TABLE
  2
VIEW
  5
7
330
0
100
AcDbSymbolTable
 70
0
  0
ENDTAB
  0
TABLE
  2
UCS
  5
6
330
0
100
AcDbSymbolTable
 70
0
  0
ENDTAB
  0
TABLE
  2
APPID
  5
3
330
0
100
AcDbSymbolTable
 70
3
  0
APPID
  5
2A
330
3
100
AcDbSymbolTableRecord
100
AcDbRegAppTableRecord
  2
ACAD
 70
0
  0
APPID
  5
E5
330
3
100
AcDbSymbolTableRecord
100
AcDbRegAppTableRecord
  2
HATCHBACKGROUNDCOLOR
 70
0
  0
APPID
  5
E6
330
3
100
AcDbSymbolTableRecord
100
AcDbRegAppTableRecord
  2
EZDXF
 70
0
  0
ENDTAB
  0
TABLE
  2
DIMSTYLE
  5
4
330
0
100
AcDbSymbolTable
 70
1
100
AcDbDimStyleTable
  0
DIMSTYLE
105
2B
330
4
100
AcDbSymbolTableRecord
100
AcDbDimStyleTableRecord
  2
Standard
 70
0
  3

  4

 40
1.0
 41
2.5
 42
0.625
 43
3.75
 44
1.25
 45
0.0
 46
0.0
 47
0.0
 48
0.0
140
2.5
141
2.5
142
0.0
143
0.03937007874
144
1.0
145
0.0
146
1.0
147
0.625
148
0.0
 71
0
 72
0
 73
0
 74
0
 75
0
 76
0
 77
1
 78
8
 79
3
170
0
171
3
172
1
173
0
174
0
175
0
176
0
177
0
178
0
179
2
271
2
272
2
273
2
274
3
275
0
276
0
277
2
278
44
279
0
280
0
281
0
282
0
283
0
284
8
285
0
286
0
288
0
289
3
371
-2
372
-2
  0
ENDTAB
  0
TABLE
  2
BLOCK_RECORD
  5
9
330
0
100
AcDbSymbolTable
 70
2
  0
BLOCK_RECORD
  5
17
330
9
100
AcDbSymbolTableRecord
100
AcDbBlockTableRecord
  2
*Model_Space
340
1A
  0
BLOCK_RECORD
  5
1B
330
9
100
AcDbSymbolTableRecord
100
AcDbBlockTableRecord
  2
*Paper_Space
340
1E
  0
ENDTAB
  0
ENDSEC
  0
SECTION
  2
BLOCKS
  0
BLOCK
  5
18
330
17
100
AcDbEntity
  8
0
100
AcDbBlockBegin
  2
*Model_Space
 70
0
 10
0.0
 20
0.0
 30
0.0
  3
*Model_Space
  1

  0
ENDBLK
  5
19
330
17
100
AcDbEntity
  8
0
100
AcDbBlockEnd
  0
BLOCK
  5
1C
330
1B
100
AcDbEntity
  8
0
100
AcDbBlockBegin
  2
*Paper_Space
 70
0
 10
0.0
 20
0.0
 30
0.0
  3
*Paper_Space
  1

  0
ENDBLK
  5
1D
330
1B
100
AcDbEntity
  8
0
100
AcDbBlockEnd
  0
ENDSEC
  0
SECTION
  2
ENTITIES
  0
LWPOLYLINE
  5
31
330
17
100
AcDbEntity
  8
CUT
100
AcDbPolyline
 90
28
 70
1
 10
6.6
 20
102.04
 10
45.4
 20
102.04
 10
48.04
 20
102.04
 10
48.04
 20
96.827
 10
45.44
 20
96.827
 10
45.44
 20
91.773
 10
48.04
 20
91.773
 10
48.04
 20
86.56
 10
45.4
 20
86.56
 10
39.897
 20
86.56
 10
39.897
 20
83.96
 10
34.274
 20
83.96
 10
34.274
 20
86.56
 10
28.811
 20
86.56
 10
28.811
 20
83.96
 10
23.189
 20
83.96
 10
23.189
 20
86.56
 10
17.726
 20
86.56
 10
17.726
 20
83.96
 10
12.103
 20
83.96
 10
12.103
 20
86.56
 10
6.6
 20
86.56
 10
3.96
 20
86.56
 10
3.96
 20
91.773
 10
6.56
 20
91.773
 10
6.56
 20
96.827
 10
3.96
 20
96.827
 10
3.96
 20
102.04
  0
LWPOLYLINE
  5
32
330
17
100
AcDbEntity
  8
CUT
100
AcDbPolyline
 90
4
 70
1
 10
10.64
 20
97.593
 10
41.36
 20
97.593
 10
41.36
 20
96.273
 10
10.64
 20
96.273
  0
LWPOLYLINE
  5
33
330
17
100
AcDbEntity
  8
CUT
100
AcDbPolyline
 90
4
 70
1
 10
10.64
 20
92.327
 10
41.36
 20
92.327
 10
41.36
 20
91.007
 10
10.64
 20
91.007
  0
HATCH
  5
34
330
17
100
AcDbEntity
  8
RASTER
 62
7
100
AcDbHatch
 10
0.0
 20
0.0
 30
0.0
210
0.0
220
0.0
230
1.0
  2
SOLID
 70
1
 71
0
 91
1
 92
3
 72
0
 73
1
 93
4
 10
7.2
 20
101.6
 10
10.0
 20
101.6
 10
10.0
 20
87.0
 10
7.2
 20
87.0
 97
0
 75
0
 76
1
 98
0
  0
HATCH
  5
35
330
17
100
AcDbEntity
  8
RASTER
 62
7
100
AcDbHatch
 10
0.0
 20
0.0
 30
0.0
210
0.0
220
0.0
230
1.0
  2
SOLID
 70
1
 71
0
 91
1
 92
3
 72
0
 73
1
 93
4
 10
42.0
 20
101.6
 10
44.8
 20
101.6
 10
44.8
 20
87.0
 10
42.0
 20
87.0
 97
0
 75
0
 76
1
 98
0
  0
HATCH
  5
36
330
17
100
AcDbEntity
  8
RASTER
 62
7
100
AcDbHatch
 10
0.0
 20
0.0
 30
0.0
210
0.0
220
0.0
230
1.0
  2
SOLID
 70
1
 71
0
 91
1
 92
3
 72
0
 73
1
 93
48
 10
12.7
 20
99.567
 10
12.696
 20
99.501
 10
12.683
 20
99.437
 10
12.662
 20
99.375
 10
12.633
 20
99.317
 10
12.597
 20
99.262
 10
12.554
 20
99.213
 10
12.504
 20
99.17
 10
12.45
 20
99.134
 10
12.391
 20
99.105
 10
12.329
 20
99.084
 10
12.265
 20
99.071
 10
12.2
 20
99.067
 10
12.135
 20
99.071
 10
12.071
 20
99.084
 10
12.009
 20
99.105
 10
11.95
 20
99.134
 10
11.896
 20
99.17
 10
11.846
 20
99.213
 10
11.803
 20
99.262
 10
11.767
 20
99.317
 10
11.738
 20
99.375
 10
11.717
 20
99.437
 10
11.704
 20
99.501
 10
11.7
 20
99.567
 10
11.704
 20
99.632
 10
11.717
 20
99.696
 10
11.738
 20
99.758
 10
11.767
 20
99.817
 10
11.803
 20
99.871
 10
11.846
 20
99.92
 10
11.896
 20
99.963
 10
11.95
 20
100.0
 10
12.009
 20
100.029
 10
12.071
 20
100.05
 10
12.135
 20
100.062
 10
12.2
 20
100.067
 10
12.265
 20
100.062
 10
12.329
 20
100.05
 10
12.391
 20
100.029
 10
12.45
 20
100.0
 10
12.504
 20
99.963
 10
12.554
 20
99.92
 10
12.597
 20
99.871
 10
12.633
 20
99.817
 10
12.662
 20
99.758
 10
12.683
 20
99.696
 10
12.696
 20
99.632
 97
0
 75
0
 76
1
 98
0
  0
HATCH
  5
37
330
17
100
AcDbEntity
  8
RASTER
 62
7
100
AcDbHatch
 10
0.0
 20
0.0
 30
0.0
210
0.0
220
0.0
230
1.0
  2
SOLID
 70
1
 71
0
 91
1
 92
3
 72
0
 73
1
 93
48
 10
40.3
 20
99.567
 10
40.296
 20
99.501
 10
40.283
 20
99.437
 10
40.262
 20
99.375
 10
40.233
 20
99.317
 10
40.197
 20
99.262
 10
40.154
 20
99.213
 10
40.104
 20
99.17
 10
40.05
 20
99.134
 10
39.991
 20
99.105
 10
39.929
 20
99.084
 10
39.865
 20
99.071
 10
39.8
 20
99.067
 10
39.735
 20
99.071
 10
39.671
 20
99.084
 10
39.609
 20
99.105
 10
39.55
 20
99.134
 10
39.496
 20
99.17
 10
39.446
 20
99.213
 10
39.403
 20
99.262
 10
39.367
 20
99.317
 10
39.338
 20
99.375
 10
39.317
 20
99.437
 10
39.304
 20
99.501
 10
39.3
 20
99.567
 10
39.304
 20
99.632
 10
39.317
 20
99.696
 10
39.338
 20
99.758
 10
39.367
 20
99.817
 10
39.403
 20
99.871
 10
39.446
 20
99.92
 10
39.496
 20
99.963
 10
39.55
 20
100.0
 10
39.609
 20
100.029
 10
39.671
 20
100.05
 10
39.735
 20
100.062
 10
39.8
 20
100.067
 10
39.865
 20
100.062
 10
39.929
 20
100.05
 10
39.991
 20
100.029
 10
40.05
 20
100.0
 10
40.104
 20
99.963
 10
40.154
 20
99.92
 10
40.197
 20
99.871
 10
40.233
 20
99.817
 10
40.262
 20
99.758
 10
40.283
 20
99.696
 10
40.296
 20
99.632
 97
0
 75
0
 76
1
 98
0
  0
HATCH
  5
38
330
17
100
AcDbEntity
  8
RASTER
 62
7
100
AcDbHatch
 10
0.0
 20
0.0
 30
0.0
210
0.0
220
0.0
230
1.0
  2
SOLID
 70
1
 71
0
 91
1
 92
3
 72
0
 73
1
 93
48
 10
12.7
 20
94.3
 10
12.696
 20
94.235
 10
12.683
 20
94.171
 10
12.662
 20
94.109
 10
12.633
 20
94.05
 10
12.597
 20
93.996
 10
12.554
 20
93.946
 10
12.504
 20
93.903
 10
12.45
 20
93.867
 10
12.391
 20
93.838
 10
12.329
 20
93.817
 10
12.265
 20
93.804
 10
12.2
 20
93.8
 10
12.135
 20
93.804
 10
12.071
 20
93.817
 10
12.009
 20
93.838
 10
11.95
 20
93.867
 10
11.896
 20
93.903
 10
11.846
 20
93.946
 10
11.803
 20
93.996
 10
11.767
 20
94.05
 10
11.738
 20
94.109
 10
11.717
 20
94.171
 10
11.704
 20
94.235
 10
11.7
 20
94.3
 10
11.704
 20
94.365
 10
11.717
 20
94.429
 10
11.738
 20
94.491
 10
11.767
 20
94.55
 10
11.803
 20
94.604
 10
11.846
 20
94.654
 10
11.896
 20
94.697
 10
11.95
 20
94.733
 10
12.009
 20
94.762
 10
12.071
 20
94.783
 10
12.135
 20
94.796
 10
12.2
 20
94.8
 10
12.265
 20
94.796
 10
12.329
 20
94.783
 10
12.391
 20
94.762
 10
12.45
 20
94.733
 10
12.504
 20
94.697
 10
12.554
 20
94.654
 10
12.597
 20
94.604
 10
12.633
 20
94.55
 10
12.662
 20
94.491
 10
12.683
 20
94.429
 10
12.696
 20
94.365
 97
0
 75
0
 76
1
 98
0
  0
HATCH
  5
39
330
17
100
AcDbEntity
  8
RASTER
 62
7
100
AcDbHatch
 10
0.0
 20
0.0
 30
0.0
210
0.0
220
0.0
230
1.0
  2
SOLID
 70
1
 71
0
 91
1
 92
3
 72
0
 73
1
 93
48
 10
40.3
 20
94.3
 10
40.296
 20
94.235
 10
40.283
 20
94.171
 10
40.262
 20
94.109
 10
40.233
 20
94.05
 10
40.197
 20
93.996
 10
40.154
 20
93.946
 10
40.104
 20
93.903
 10
40.05
 20
93.867
 10
39.991
 20
93.838
 10
39.929
 20
93.817
 10
39.865
 20
93.804
 10
39.8
 20
93.8
 10
39.735
 20
93.804
 10
39.671
 20
93.817
 10
39.609
 20
93.838
 10
39.55
 20
93.867
 10
39.496
 20
93.903
 10
39.446
 20
93.946
 10
39.403
 20
93.996
 10
39.367
 20
94.05
 10
39.338
 20
94.109
 10
39.317
 20
94.171
 10
39.304
 20
94.235
 10
39.3
 20
94.3
 10
39.304
 20
94.365
 10
39.317
 20
94.429
 10
39.338
 20
94.491
 10
39.367
 20
94.55
 10
39.403
 20
94.604
 10
39.446
 20
94.654
 10
39.496
 20
94.697
 10
39.55
 20
94.733
 10
39.609
 20
94.762
 10
39.671
 20
94.783
 10
39.735
 20
94.796
 10
39.8
 20
94.8
 10
39.865
 20
94.796
 10
39.929
 20
94.783
 10
39.991
 20
94.762
 10
40.05
 20
94.733
 10
40.104
 20
94.697
 10
40.154
 20
94.654
 10
40.197
 20
94.604
 10
40.233
 20
94.55
 10
40.262
 20
94.491
 10
40.283
 20
94.429
 10
40.296
 20
94.365
 97
0
 75
0
 76
1
 98
0
  0
HATCH
  5
3A
330
17
100
AcDbEntity
  8
RASTER
 62
7
100
AcDbHatch
 10
0.0
 20
0.0
 30
0.0
210
0.0
220
0.0
230
1.0
  2
SOLID
 70
1
 71
0
 91
1
 92
3
 72
0
 73
1
 93
48
 10
12.7
 20
89.033
 10
12.696
 20
88.968
 10
12.683
 20
88.904
 10
12.662
 20
88.842
 10
12.633
 20
88.783
 10
12.597
 20
88.729
 10
12.554
 20
88.68
 10
12.504
 20
88.637
 10
12.45
 20
88.6
 10
12.391
 20
88.571
 10
12.329
 20
88.55
 10
12.265
 20
88.538
 10
12.2
 20
88.533
 10
12.135
 20
88.538
 10
12.071
 20
88.55
 10
12.009
 20
88.571
 10
11.95
 20
88.6
 10
11.896
 20
88.637
 10
11.846
 20
88.68
 10
11.803
 20
88.729
 10
11.767
 20
88.783
 10
11.738
 20
88.842
 10
11.717
 20
88.904
 10
11.704
 20
88.968
 10
11.7
 20
89.033
 10
11.704
 20
89.099
 10
11.717
 20
89.163
 10
11.738
 20
89.225
 10
11.767
 20
89.283
 10
11.803
 20
89.338
 10
11.846
 20
89.387
 10
11.896
 20
89.43
 10
11.95
 20
89.466
 10
12.009
 20
89.495
 10
12.071
 20
89.516
 10
12.135
 20
89.529
 10
12.2
 20
89.533
 10
12.265
 20
89.529
 10
12.329
 20
89.516
 10
12.391
 20
89.495
 10
12.45
 20
89.466
 10
12.504
 20
89.43
 10
12.554
 20
89.387
 10
12.597
 20
89.338
 10
12.633
 20
89.283
 10
12.662
 20
89.225
 10
12.683
 20
89.163
 10
12.696
 20
89.099
 97
0
 75
0
 76
1
 98
0
  0
HATCH
  5
3B
330
17
100
AcDbEntity
  8
RASTER
 62
7
100
AcDbHatch
 10
0.0
 20
0.0
 30
0.0
210
0.0
220
0.0
230
1.0
  2
SOLID
 70
1
 71
0
 91
1
 92
3
 72
0
 73
1
 93
48
 10
40.3
 20
89.033
 10
40.296
 20
88.968
 10
40.283
 20
88.904
 10
40.262
 20
88.842
 10
40.233
 20
88.783
 10
40.197
 20
88.729
 10
40.154
 20
88.68
 10
40.104
 20
88.637
 10
40.05
 20
88.6
 10
39.991
 20
88.571
 10
39.929
 20
88.55
 10
39.865
 20
88.538
 10
39.8
 20
88.533
 10
39.735
 20
88.538
 10
39.671
 20
88.55
 10
39.609
 20
88.571
 10
39.55
 20
88.6
 10
39.496
 20
88.637
 10
39.446
 20
88.68
 10
39.403
 20
88.729
 10
39.367
 20
88.783
 10
39.338
 20
88.842
 10
39.317
 20
88.904
 10
39.304
 20
88.968
 10
39.3
 20
89.033
 10
39.304
 20
89.099
 10
39.317
 20
89.163
 10
39.338
 20
89.225
 10
39.367
 20
89.283
 10
39.403
 20
89.338
 10
39.446
 20
89.387
 10
39.496
 20
89.43
 10
39.55
 20
89.466
 10
39.609
 20
89.495
 10
39.671
 20
89.516
 10
39.735
 20
89.529
 10
39.8
 20
89.533
 10
39.865
 20
89.529
 10
39.929
 20
89.516
 10
39.991
 20
89.495
 10
40.05
 20
89.466
 10
40.104
 20
89.43
 10
40.154
 20
89.387
 10
40.197
 20
89.338
 10
40.233
 20
89.283
 10
40.262
 20
89.225
 10
40.283
 20
89.163
 10
40.296
 20
89.099
 97
0
 75
0
 76
1
 98
0
  0
LWPOLYLINE
  5
3C
330
17
100
AcDbEntity
  8
CUT
100
AcDbPolyline
 90
28
 70
1
 10
54.6
 20
102.04
 10
93.4
 20
102.04
 10
96.04
 20
102.04
 10
96.04
 20
96.827
 10
93.44
 20
96.827
 10
93.44
 20
91.773
 10
96.04
 20
91.773
 10
96.04
 20
86.56
 10
93.4
 20
86.56
 10
87.897
 20
86.56
 10
87.897
 20
83.96
 10
82.274
 20
83.96
 10
82.274
 20
86.56
 10
76.811
 20
86.56
 10
76.811
 20
83.96
 10
71.189
 20
83.96
 10
71.189
 20
86.56
 10
65.726
 20
86.56
 10
65.726
 20
83.96
 10
60.103
 20
83.96
 10
60.103
 20
86.56
 10
54.6
 20
86.56
 10
51.96
 20
86.56
 10
51.96
 20
91.773
 10
54.56
 20
91.773
 10
54.56
 20
96.827
 10
51.96
 20
96.827
 10
51.96
 20
102.04
  0
LWPOLYLINE
  5
3D
330
17
100
AcDbEntity
  8
CUT
100
AcDbPolyline
 90
4
 70
1
 10
58.64
 20
97.593
 10
89.36
 20
97.593
 10
89.36
 20
96.273
 10
58.64
 20
96.273
  0
LWPOLYLINE
  5
3E
330
17
100
AcDbEntity
  8
CUT
100
AcDbPolyline
 90
4
 70
1
 10
58.64
 20
92.327
 10
89.36
 20
92.327
 10
89.36
 20
91.007
 10
58.64
 20
91.007
  0
HATCH
  5
3F
330
17
100
AcDbEntity
  8
RASTER
 62
7
100
AcDbHatch
 10
0.0
 20
0.0
 30
0.0
210
0.0
220
0.0
230
1.0
  2
SOLID
 70
1
 71
0
 91
1
 92
3
 72
0
 73
1
 93
4
 10
55.2
 20
101.6
 10
58.0
 20
101.6
 10
58.0
 20
87.0
 10
55.2
 20
87.0
 97
0
 75
0
 76
1
 98
0
  0
HATCH
  5
40
330
17
100
AcDbEntity
  8
RASTER
 62
7
100
AcDbHatch
 10
0.0
 20
0.0
 30
0.0
210
0.0
220
0.0
230
1.0
  2
SOLID
 70
1
 71
0
 91
1
 92
3
 72
0
 73
1
 93
4
 10
90.0
 20
101.6
 10
92.8
 20
101.6
 10
92.8
 20
87.0
 10
90.0
 20
87.0
 97
0
 75
0
 76
1
 98
0
  0
HATCH
  5
41
330
17
100
AcDbEntity
  8
RASTER
 62
7
100
AcDbHatch
 10
0.0
 20
0.0
 30
0.0
210
0.0
220
0.0
230
1.0
  2
SOLID
 70
1
 71
0
 91
1
 92
3
 72
0
 73
1
 93
48
 10
60.7
 20
99.567
 10
60.696
 20
99.501
 10
60.683
 20
99.437
 10
60.662
 20
99.375
 10
60.633
 20
99.317
 10
60.597
 20
99.262
 10
60.554
 20
99.213
 10
60.504
 20
99.17
 10
60.45
 20
99.134
 10
60.391
 20
99.105
 10
60.329
 20
99.084
 10
60.265
 20
99.071
 10
60.2
 20
99.067
 10
60.135
 20
99.071
 10
60.071
 20
99.084
 10
60.009
 20
99.105
 10
59.95
 20
99.134
 10
59.896
 20
99.17
 10
59.846
 20
99.213
 10
59.803
 20
99.262
 10
59.767
 20
99.317
 10
59.738
 20
99.375
 10
59.717
 20
99.437
 10
59.704
 20
99.501
 10
59.7
 20
99.567
 10
59.704
 20
99.632
 10
59.717
 20
99.696
 10
59.738
 20
99.758
 10
59.767
 20
99.817
 10
59.803
 20
99.871
 10
59.846
 20
99.92
 10
59.896
 20
99.963
 10
59.95
 20
100.0
 10
60.009
 20
100.029
 10
60.071
 20
100.05
 10
60.135
 20
100.062
 10
60.2
 20
100.067
 10
60.265
 20
100.062
 10
60.329
 20
100.05
 10
60.391
 20
100.029
 10
60.45
 20
100.0
 10
60.504
 20
99.963
 10
60.554
 20
99.92
 10
60.597
 20
99.871
 10
60.633
 20
99.817
 10
60.662
 20
99.758
 10
60.683
 20
99.696
 10
60.696
 20
99.632
 97
0
 75
0
 76
1
 98
0
  0
HATCH
  5
42
330
17
100
AcDbEntity
  8
RASTER
 62
7
100
AcDbHatch
 10
0.0
 20
0.0
 30
0.0
210
0.0
220
0.0
230
1.0
  2
SOLID
 70
1
 71
0
 91
1
 92
3
 72
0
 73
1
 93
48
 10
88.3
 20
99.567
 10
88.296
 20
99.501
 10
88.283
 20
99.437
 10
88.262
 20
99.375
 10
88.233
 20
99.317
 10
88.197
 20
99.262
 10
88.154
 20
99.213
 10
88.104
 20
99.17
 10
88.05
 20
99.134
 10
87.991
 20
99.105
 10
87.929
 20
99.084
 10
87.865
 20
99.071
 10
87.8
 20
99.067
 10
87.735
 20
99.071
 10
87.671
 20
99.084
 10
87.609
 20
99.105
 10
87.55
 20
99.134
 10
87.496
 20
99.17
 10
87.446
 20
99.213
 10
87.403
 20
99.262
 10
87.367
 20
99.317
 10
87.338
 20
99.375
 10
87.317
 20
99.437
 10
87.304
 20
99.501
 10
87.3
 20
99.567
 10
87.304
 20
99.632
 10
87.317
 20
99.696
 10
87.338
 20
99.758
 10
87.367
 20
99.817
 10
87.403
 20
99.871
 10
87.446
 20
99.92
 10
87.496
 20
99.963
 10
87.55
 20
100.0
 10
87.609
 20
100.029
 10
87.671
 20
100.05
 10
87.735
 20
100.062
 10
87.8
 20
100.067
 10
87.865
 20
100.062
 10
87.929
 20
100.05
 10
87.991
 20
100.029
 10
88.05
 20
100.0
 10
88.104
 20
99.963
 10
88.154
 20
99.92
 10
88.197
 20
99.871
 10
88.233
 20
99.817
 10
88.262
 20
99.758
 10
88.283
 20
99.696
 10
88.296
 20
99.632
 97
0
 75
0
 76
1
 98
0
  0
HATCH
  5
43
330
17
100
AcDbEntity
  8
RASTER
 62
7
100
AcDbHatch
 10
0.0
 20
0.0
 30
0.0
210
0.0
220
0.0
230
1.0
  2
SOLID
 70
1
 71
0
 91
1
 92
3
 72
0
 73
1
 93
48
 10
60.7
 20
94.3
 10
60.696
 20
94.235
 10
60.683
 20
94.171
 10
60.662
 20
94.109
 10
60.633
 20
94.05
 10
60.597
 20
93.996
 10
60.554
 20
93.946
 10
60.504
 20
93.903
 10
60.45
 20
93.867
 10
60.391
 20
93.838
 10
60.329
 20
93.817
 10
60.265
 20
93.804
 10
60.2
 20
93.8
 10
60.135
 20
93.804
 10
60.071
 20
93.817
 10
60.009
 20
93.838
 10
59.95
 20
93.867
 10
59.896
 20
93.903
 10
59.846
 20
93.946
 10
59.803
 20
93.996
 10
59.767
 20
94.05
 10
59.738
 20
94.109
 10
59.717
 20
94.171
 10
59.704
 20
94.235
 10
59.7
 20
94.3
 10
59.704
 20
94.365
 10
59.717
 20
94.429
 10
59.738
 20
94.491
 10
59.767
 20
94.55
 10
59.803
 20
94.604
 10
59.846
 20
94.654
 10
59.896
 20
94.697
 10
59.95
 20
94.733
 10
60.009
 20
94.762
 10
60.071
 20
94.783
 10
60.135
 20
94.796
 10
60.2
 20
94.8
 10
60.265
 20
94.796
 10
60.329
 20
94.783
 10
60.391
 20
94.762
 10
60.45
 20
94.733
 10
60.504
 20
94.697
 10
60.554
 20
94.654
 10
60.597
 20
94.604
 10
60.633
 20
94.55
 10
60.662
 20
94.491
 10
60.683
 20
94.429
 10
60.696
 20
94.365
 97
0
 75
0
 76
1
 98
0
  0
HATCH
  5
44
330
17
100
AcDbEntity
  8
RASTER
 62
7
100
AcDbHatch
 10
0.0
 20
0.0
 30
0.0
210
0.0
220
0.0
230
1.0
  2
SOLID
 70
1
 71
0
 91
1
 92
3
 72
0
 73
1
 93
48
 10
88.3
 20
94.3
 10
88.296
 20
94.235
 10
88.283
 20
94.171
 10
88.262
 20
94.109
 10
88.233
 20
94.05
 10
88.197
 20
93.996
 10
88.154
 20
93.946
 10
88.104
 20
93.903
 10
88.05
 20
93.867
 10
87.991
 20
93.838
 10
87.929
 20
93.817
 10
87.865
 20
93.804
 10
87.8
 20
93.8
 10
87.735
 20
93.804
 10
87.671
 20
93.817
 10
87.609
 20
93.838
 10
87.55
 20
93.867
 10
87.496
 20
93.903
 10
87.446
 20
93.946
 10
87.403
 20
93.996
 10
87.367
 20
94.05
 10
87.338
 20
94.109
 10
87.317
 20
94.171
 10
87.304
 20
94.235
 10
87.3
 20
94.3
 10
87.304
 20
94.365
 10
87.317
 20
94.429
 10
87.338
 20
94.491
 10
87.367
 20
94.55
 10
87.403
 20
94.604
 10
87.446
 20
94.654
 10
87.496
 20
94.697
 10
87.55
 20
94.733
 10
87.609
 20
94.762
 10
87.671
 20
94.783
 10
87.735
 20
94.796
 10
87.8
 20
94.8
 10
87.865
 20
94.796
 10
87.929
 20
94.783
 10
87.991
 20
94.762
 10
88.05
 20
94.733
 10
88.104
 20
94.697
 10
88.154
 20
94.654
 10
88.197
 20
94.604
 10
88.233
 20
94.55
 10
88.262
 20
94.491
 10
88.283
 20
94.429
 10
88.296
 20
94.365
 97
0
 75
0
 76
1
 98
0
  0
HATCH
  5
45
330
17
100
AcDbEntity
  8
RASTER
 62
7
100
AcDbHatch
 10
0.0
 20
0.0
 30
0.0
210
0.0
220
0.0
230
1.0
  2
SOLID
 70
1
 71
0
 91
1
 92
3
 72
0
 73
1
 93
48
 10
60.7
 20
89.033
 10
60.696
 20
88.968
 10
60.683
 20
88.904
 10
60.662
 20
88.842
 10
60.633
 20
88.783
 10
60.597
 20
88.729
 10
60.554
 20
88.68
 10
60.504
 20
88.637
 10
60.45
 20
88.6
 10
60.391
 20
88.571
 10
60.329
 20
88.55
 10
60.265
 20
88.538
 10
60.2
 20
88.533
 10
60.135
 20
88.538
 10
60.071
 20
88.55
 10
60.009
 20
88.571
 10
59.95
 20
88.6
 10
59.896
 20
88.637
 10
59.846
 20
88.68
 10
59.803
 20
88.729
 10
59.767
 20
88.783
 10
59.738
 20
88.842
 10
59.717
 20
88.904
 10
59.704
 20
88.968
 10
59.7
 20
89.033
 10
59.704
 20
89.099
 10
59.717
 20
89.163
 10
59.738
 20
89.225
 10
59.767
 20
89.283
 10
59.803
 20
89.338
 10
59.846
 20
89.387
 10
59.896
 20
89.43
 10
59.95
 20
89.466
 10
60.009
 20
89.495
 10
60.071
 20
89.516
 10
60.135
 20
89.529
 10
60.2
 20
89.533
 10
60.265
 20
89.529
 10
60.329
 20
89.516
 10
60.391
 20
89.495
 10
60.45
 20
89.466
 10
60.504
 20
89.43
 10
60.554
 20
89.387
 10
60.597
 20
89.338
 10
60.633
 20
89.283
 10
60.662
 20
89.225
 10
60.683
 20
89.163
 10
60.696
 20
89.099
 97
0
 75
0
 76
1
 98
0
  0
HATCH
  5
46
330
17
100
AcDbEntity
  8
RASTER
 62
7
100
AcDbHatch
 10
0.0
 20
0.0
 30
0.0
210
0.0
220
0.0
230
1.0
  2
SOLID
 70
1
 71
0
 91
1
 92
3
 72
0
 73
1
 93
48
 10
88.3
 20
89.033
 10
88.296
 20
88.968
 10
88.283
 20
88.904
 10
88.262
 20
88.842
 10
88.233
 20
88.783
 10
88.197
 20
88.729
 10
88.154
 20
88.68
 10
88.104
 20
88.637
 10
88.05
 20
88.6
 10
87.991
 20
88.571
 10
87.929
 20
88.55
 10
87.865
 20
88.538
 10
87.8
 20
88.533
 10
87.735
 20
88.538
 10
87.671
 20
88.55
 10
87.609
 20
88.571
 10
87.55
 20
88.6
 10
87.496
 20
88.637
 10
87.446
 20
88.68
 10
87.403
 20
88.729
 10
87.367
 20
88.783
 10
87.338
 20
88.842
 10
87.317
 20
88.904
 10
87.304
 20
88.968
 10
87.3
 20
89.033
 10
87.304
 20
89.099
 10
87.317
 20
89.163
 10
87.338
 20
89.225
 10
87.367
 20
89.283
 10
87.403
 20
89.338
 10
87.446
 20
89.387
 10
87.496
 20
89.43
 10
87.55
 20
89.466
 10
87.609
 20
89.495
 10
87.671
 20
89.516
 10
87.735
 20
89.529
 10
87.8
 20
89.533
 10
87.865
 20
89.529
 10
87.929
 20
89.516
 10
87.991
 20
89.495
 10
88.05
 20
89.466
 10
88.104
 20
89.43
 10
88.154
 20
89.387
 10
88.197
 20
89.338
 10
88.233
 20
89.283
 10
88.262
 20
89.225
 10
88.283
 20
89.163
 10
88.296
 20
89.099
 97
0
 75
0
 76
1
 98
0
  0
LWPOLYLINE
  5
47
330
17
100
AcDbEntity
  8
CUT
100
AcDbPolyline
 90
20
 70
1
 10
102.56
 20
102.04
 10
127.44
 20
102.04
 10
127.44
 20
96.907
 10
130.04
 20
96.907
 10
130.04
 20
91.693
 10
127.44
 20
91.693
 10
127.44
 20
86.56
 10
122.48
 20
86.56
 10
122.48
 20
83.96
 10
117.44
 20
83.96
 10
117.44
 20
86.56
 10
112.56
 20
86.56
 10
112.56
 20
83.96
 10
107.52
 20
83.96
 10
107.52
 20
86.56
 10
102.56
 20
86.56
 10
102.56
 20
91.693
 10
99.96
 20
91.693
 10
99.96
 20
96.907
 10
102.56
 20
96.907
  0
LWPOLYLINE
  5
48
330
17
100
AcDbEntity
  8
CUT
100
AcDbPolyline
 90
4
 70
1
 10
106.64
 20
97.593
 10
123.36
 20
97.593
 10
123.36
 20
96.273
 10
106.64
 20
96.273
  0
LWPOLYLINE
  5
49
330
17
100
AcDbEntity
  8
CUT
100
AcDbPolyline
 90
4
 70
1
 10
106.64
 20
92.327
 10
123.36
 20
92.327
 10
123.36
 20
91.007
 10
106.64
 20
91.007
  0
HATCH
  5
4A
330
17
100
AcDbEntity
  8
RASTER
 62
7
100
AcDbHatch
 10
0.0
 20
0.0
 30
0.0
210
0.0
220
0.0
230
1.0
  2
SOLID
 70
1
 71
0
 91
1
 92
3
 72
0
 73
1
 93
4
 10
103.2
 20
101.6
 10
106.0
 20
101.6
 10
106.0
 20
87.0
 10
103.2
 20
87.0
 97
0
 75
0
 76
1
 98
0
  0
HATCH
  5
4B
330
17
100
AcDbEntity
  8
RASTER
 62
7
100
AcDbHatch
 10
0.0
 20
0.0
 30
0.0
210
0.0
220
0.0
230
1.0
  2
SOLID
 70
1
 71
0
 91
1
 92
3
 72
0
 73
1
 93
4
 10
124.0
 20
101.6
 10
126.8
 20
101.6
 10
126.8
 20
87.0
 10
124.0
 20
87.0
 97
0
 75
0
 76
1
 98
0
  0
HATCH
  5
4C
330
17
100
AcDbEntity
  8
RASTER
 62
7
100
AcDbHatch
 10
0.0
 20
0.0
 30
0.0
210
0.0
220
0.0
230
1.0
  2
SOLID
 70
1
 71
0
 91
1
 92
3
 72
0
 73
1
 93
48
 10
108.7
 20
99.567
 10
108.696
 20
99.501
 10
108.683
 20
99.437
 10
108.662
 20
99.375
 10
108.633
 20
99.317
 10
108.597
 20
99.262
 10
108.554
 20
99.213
 10
108.504
 20
99.17
 10
108.45
 20
99.134
 10
108.391
 20
99.105
 10
108.329
 20
99.084
 10
108.265
 20
99.071
 10
108.2
 20
99.067
 10
108.135
 20
99.071
 10
108.071
 20
99.084
 10
108.009
 20
99.105
 10
107.95
 20
99.134
 10
107.896
 20
99.17
 10
107.846
 20
99.213
 10
107.803
 20
99.262
 10
107.767
 20
99.317
 10
107.738
 20
99.375
 10
107.717
 20
99.437
 10
107.704
 20
99.501
 10
107.7
 20
99.567
 10
107.704
 20
99.632
 10
107.717
 20
99.696
 10
107.738
 20
99.758
 10
107.767
 20
99.817
 10
107.803
 20
99.871
 10
107.846
 20
99.92
 10
107.896
 20
99.963
 10
107.95
 20
100.0
 10
108.009
 20
100.029
 10
108.071
 20
100.05
 10
108.135
 20
100.062
 10
108.2
 20
100.067
 10
108.265
 20
100.062
 10
108.329
 20
100.05
 10
108.391
 20
100.029
 10
108.45
 20
100.0
 10
108.504
 20
99.963
 10
108.554
 20
99.92
 10
108.597
 20
99.871
 10
108.633
 20
99.817
 10
108.662
 20
99.758
 10
108.683
 20
99.696
 10
108.696
 20
99.632
 97
0
 75
0
 76
1
 98
0
  0
HATCH
  5
4D
330
17
100
AcDbEntity
  8
RASTER
 62
7
100
AcDbHatch
 10
0.0
 20
0.0
 30
0.0
210
0.0
220
0.0
230
1.0
  2
SOLID
 70
1
 71
0
 91
1
 92
3
 72
0
 73
1
 93
48
 10
122.3
 20
99.567
 10
122.296
 20
99.501
 10
122.283
 20
99.437
 10
122.262
 20
99.375
 10
122.233
 20
99.317
 10
122.197
 20
99.262
 10
122.154
 20
99.213
 10
122.104
 20
99.17
 10
122.05
 20
99.134
 10
121.991
 20
99.105
 10
121.929
 20
99.084
 10
121.865
 20
99.071
 10
121.8
 20
99.067
 10
121.735
 20
99.071
 10
121.671
 20
99.084
 10
121.609
 20
99.105
 10
121.55
 20
99.134
 10
121.496
 20
99.17
 10
121.446
 20
99.213
 10
121.403
 20
99.262
 10
121.367
 20
99.317
 10
121.338
 20
99.375
 10
121.317
 20
99.437
 10
121.304
 20
99.501
 10
121.3
 20
99.567
 10
121.304
 20
99.632
 10
121.317
 20
99.696
 10
121.338
 20
99.758
 10
121.367
 20
99.817
 10
121.403
 20
99.871
 10
121.446
 20
99.92
 10
121.496
 20
99.963
 10
121.55
 20
100.0
 10
121.609
 20
100.029
 10
121.671
 20
100.05
 10
121.735
 20
100.062
 10
121.8
 20
100.067
 10
121.865
 20
100.062
 10
121.929
 20
100.05
 10
121.991
 20
100.029
 10
122.05
 20
100.0
 10
122.104
 20
99.963
 10
122.154
 20
99.92
 10
122.197
 20
99.871
 10
122.233
 20
99.817
 10
122.262
 20
99.758
 10
122.283
 20
99.696
 10
122.296
 20
99.632
 97
0
 75
0
 76
1
 98
0
  0
HATCH
  5
4E
330
17
100
AcDbEntity
  8
RASTER
 62
7
100
AcDbHatch
 10
0.0
 20
0.0
 30
0.0
210
0.0
220
0.0
230
1.0
  2
SOLID
 70
1
 71
0
 91
1
 92
3
 72
0
 73
1
 93
48
 10
108.7
 20
94.3
 10
108.696
 20
94.235
 10
108.683
 20
94.171
 10
108.662
 20
94.109
 10
108.633
 20
94.05
 10
108.597
 20
93.996
 10
108.554
 20
93.946
 10
108.504
 20
93.903
 10
108.45
 20
93.867
 10
108.391
 20
93.838
 10
108.329
 20
93.817
 10
108.265
 20
93.804
 10
108.2
 20
93.8
 10
108.135
 20
93.804
 10
108.071
 20
93.817
 10
108.009
 20
93.838
 10
107.95
 20
93.867
 10
107.896
 20
93.903
 10
107.846
 20
93.946
 10
107.803
 20
93.996
 10
107.767
 20
94.05
 10
107.738
 20
94.109
 10
107.717
 20
94.171
 10
107.704
 20
94.235
 10
107.7
 20
94.3
 10
107.704
 20
94.365
 10
107.717
 20
94.429
 10
107.738
 20
94.491
 10
107.767
 20
94.55
 10
107.803
 20
94.604
 10
107.846
 20
94.654
 10
107.896
 20
94.697
 10
107.95
 20
94.733
 10
108.009
 20
94.762
 10
108.071
 20
94.783
 10
108.135
 20
94.796
 10
108.2
 20
94.8
 10
108.265
 20
94.796
 10
108.329
 20
94.783
 10
108.391
 20
94.762
 10
108.45
 20
94.733
 10
108.504
 20
94.697
 10
108.554
 20
94.654
 10
108.597
 20
94.604
 10
108.633
 20
94.55
 10
108.662
 20
94.491
 10
108.683
 20
94.429
 10
108.696
 20
94.365
 97
0
 75
0
 76
1
 98
0
  0
HATCH
  5
4F
330
17
100
AcDbEntity
  8
RASTER
 62
7
100
AcDbHatch
 10
0.0
 20
0.0
 30
0.0
210
0.0
220
0.0
230
1.0
  2
SOLID
 70
1
 71
0
 91
1
 92
3
 72
0
 73
1
 93
48
 10
122.3
 20
94.3
 10
122.296
 20
94.235
 10
122.283
 20
94.171
 10
122.262
 20
94.109
 10
122.233
 20
94.05
 10
122.197
 20
93.996
 10
122.154
 20
93.946
 10
122.104
 20
93.903
 10
122.05
 20
93.867
 10
121.991
 20
93.838
 10
121.929
 20
93.817
 10
121.865
 20
93.804
 10
121.8
 20
93.8
 10
121.735
 20
93.804
 10
121.671
 20
93.817
 10
121.609
 20
93.838
 10
121.55
 20
93.867
 10
121.496
 20
93.903
 10
121.446
 20
93.946
 10
121.403
 20
93.996
 10
121.367
 20
94.05
 10
121.338
 20
94.109
 10
121.317
 20
94.171
 10
121.304
 20
94.235
 10
121.3
 20
94.3
 10
121.304
 20
94.365
 10
121.317
 20
94.429
 10
121.338
 20
94.491
 10
121.367
 20
94.55
 10
121.403
 20
94.604
 10
121.446
 20
94.654
 10
121.496
 20
94.697
 10
121.55
 20
94.733
 10
121.609
 20
94.762
 10
121.671
 20
94.783
 10
121.735
 20
94.796
 10
121.8
 20
94.8
 10
121.865
 20
94.796
 10
121.929
 20
94.783
 10
121.991
 20
94.762
 10
122.05
 20
94.733
 10
122.104
 20
94.697
 10
122.154
 20
94.654
 10
122.197
 20
94.604
 10
122.233
 20
94.55
 10
122.262
 20
94.491
 10
122.283
 20
94.429
 10
122.296
 20
94.365
 97
0
 75
0
 76
1
 98
0
  0
HATCH
  5
50
330
17
100
AcDbEntity
  8
RASTER
 62
7
100
AcDbHatch
 10
0.0
 20
0.0
 30
0.0
210
0.0
220
0.0
230
1.0
  2
SOLID
 70
1
 71
0
 91
1
 92
3
 72
0
 73
1
 93
48
 10
108.7
 20
89.033
 10
108.696
 20
88.968
 10
108.683
 20
88.904
 10
108.662
 20
88.842
 10
108.633
 20
88.783
 10
108.597
 20
88.729
 10
108.554
 20
88.68
 10
108.504
 20
88.637
 10
108.45
 20
88.6
 10
108.391
 20
88.571
 10
108.329
 20
88.55
 10
108.265
 20
88.538
 10
108.2
 20
88.533
 10
108.135
 20
88.538
 10
108.071
 20
88.55
 10
108.009
 20
88.571
 10
107.95
 20
88.6
 10
107.896
 20
88.637
 10
107.846
 20
88.68
 10
107.803
 20
88.729
 10
107.767
 20
88.783
 10
107.738
 20
88.842
 10
107.717
 20
88.904
 10
107.704
 20
88.968
 10
107.7
 20
89.033
 10
107.704
 20
89.099
 10
107.717
 20
89.163
 10
107.738
 20
89.225
 10
107.767
 20
89.283
 10
107.803
 20
89.338
 10
107.846
 20
89.387
 10
107.896
 20
89.43
 10
107.95
 20
89.466
 10
108.009
 20
89.495
 10
108.071
 20
89.516
 10
108.135
 20
89.529
 10
108.2
 20
89.533
 10
108.265
 20
89.529
 10
108.329
 20
89.516
 10
108.391
 20
89.495
 10
108.45
 20
89.466
 10
108.504
 20
89.43
 10
108.554
 20
89.387
 10
108.597
 20
89.338
 10
108.633
 20
89.283
 10
108.662
 20
89.225
 10
108.683
 20
89.163
 10
108.696
 20
89.099
 97
0
 75
0
 76
1
 98
0
  0
HATCH
  5
51
330
17
100
AcDbEntity
  8
RASTER
 62
7
100
AcDbHatch
 10
0.0
 20
0.0
 30
0.0
210
0.0
220
0.0
230
1.0
  2
SOLID
 70
1
 71
0
 91
1
 92
3
 72
0
 73
1
 93
48
 10
122.3
 20
89.033
 10
122.296
 20
88.968
 10
122.283
 20
88.904
 10
122.262
 20
88.842
 10
122.233
 20
88.783
 10
122.197
 20
88.729
 10
122.154
 20
88.68
 10
122.104
 20
88.637
 10
122.05
 20
88.6
 10
121.991
 20
88.571
 10
121.929
 20
88.55
 10
121.865
 20
88.538
 10
121.8
 20
88.533
 10
121.735
 20
88.538
 10
121.671
 20
88.55
 10
121.609
 20
88.571
 10
121.55
 20
88.6
 10
121.496
 20
88.637
 10
121.446
 20
88.68
 10
121.403
 20
88.729
 10
121.367
 20
88.783
 10
121.338
 20
88.842
 10
121.317
 20
88.904
 10
121.304
 20
88.968
 10
121.3
 20
89.033
 10
121.304
 20
89.099
 10
121.317
 20
89.163
 10
121.338
 20
89.225
 10
121.367
 20
89.283
 10
121.403
 20
89.338
 10
121.446
 20
89.387
 10
121.496
 20
89.43
 10
121.55
 20
89.466
 10
121.609
 20
89.495
 10
121.671
 20
89.516
 10
121.735
 20
89.529
 10
121.8
 20
89.533
 10
121.865
 20
89.529
 10
121.929
 20
89.516
 10
121.991
 20
89.495
 10
122.05
 20
89.466
 10
122.104
 20
89.43
 10
122.154
 20
89.387
 10
122.197
 20
89.338
 10
122.233
 20
89.283
 10
122.262
 20
89.225
 10
122.283
 20
89.163
 10
122.296
 20
89.099
 97
0
 75
0
 76
1
 98
0
  0
LWPOLYLINE
  5
52
330
17
100
AcDbEntity
  8
CUT
100
AcDbPolyline
 90
20
 70
1
 10
136.56
 20
102.04
 10
161.44
 20
102.04
 10
161.44
 20
96.907
 10
164.04
 20
96.907
 10
164.04
 20
91.693
 10
161.44
 20
91.693
 10
161.44
 20
86.56
 10
156.48
 20
86.56
 10
156.48
 20
83.96
 10
151.44
 20
83.96
 10
151.44
 20
86.56
 10
146.56
 20
86.56
 10
146.56
 20
83.96
 10
141.52
 20
83.96
 10
141.52
 20
86.56
 10
136.56
 20
86.56
 10
136.56
 20
91.693
 10
133.96
 20
91.693
 10
133.96
 20
96.907
 10
136.56
 20
96.907
  0
LWPOLYLINE
  5
53
330
17
100
AcDbEntity
  8
CUT
100
AcDbPolyline
 90
4
 70
1
 10
140.64
 20
97.593
 10
157.36
 20
97.593
 10
157.36
 20
96.273
 10
140.64
 20
96.273
  0
LWPOLYLINE
  5
54
330
17
100
AcDbEntity
  8
CUT
100
AcDbPolyline
 90
4
 70
1
 10
140.64
 20
92.327
 10
157.36
 20
92.327
 10
157.36
 20
91.007
 10
140.64
 20
91.007
  0
HATCH
  5
55
330
17
100
AcDbEntity
  8
RASTER
 62
7
100
AcDbHatch
 10
0.0
 20
0.0
 30
0.0
210
0.0
220
0.0
230
1.0
  2
SOLID
 70
1
 71
0
 91
1
 92
3
 72
0
 73
1
 93
4
 10
137.2
 20
101.6
 10
140.0
 20
101.6
 10
140.0
 20
87.0
 10
137.2
 20
87.0
 97
0
 75
0
 76
1
 98
0
  0
HATCH
  5
56
330
17
100
AcDbEntity
  8
RASTER
 62
7
100
AcDbHatch
 10
0.0
 20
0.0
 30
0.0
210
0.0
220
0.0
230
1.0
  2
SOLID
 70
1
 71
0
 91
1
 92
3
 72
0
 73
1
 93
4
 10
158.0
 20
101.6
 10
160.8
 20
101.6
 10
160.8
 20
87.0
 10
158.0
 20
87.0
 97
0
 75
0
 76
1
 98
0
  0
HATCH
  5
57
330
17
100
AcDbEntity
  8
RASTER
 62
7
100
AcDbHatch
 10
0.0
 20
0.0
 30
0.0
210
0.0
220
0.0
230
1.0
  2
SOLID
 70
1
 71
0
 91
1
 92
3
 72
0
 73
1
 93
48
 10
142.7
 20
99.567
 10
142.696
 20
99.501
 10
142.683
 20
99.437
 10
142.662
 20
99.375
 10
142.633
 20
99.317
 10
142.597
 20
99.262
 10
142.554
 20
99.213
 10
142.504
 20
99.17
 10
142.45
 20
99.134
 10
142.391
 20
99.105
 10
142.329
 20
99.084
 10
142.265
 20
99.071
 10
142.2
 20
99.067
 10
142.135
 20
99.071
 10
142.071
 20
99.084
 10
142.009
 20
99.105
 10
141.95
 20
99.134
 10
141.896
 20
99.17
 10
141.846
 20
99.213
 10
141.803
 20
99.262
 10
141.767
 20
99.317
 10
141.738
 20
99.375
 10
141.717
 20
99.437
 10
141.704
 20
99.501
 10
141.7
 20
99.567
 10
141.704
 20
99.632
 10
141.717
 20
99.696
 10
141.738
 20
99.758
 10
141.767
 20
99.817
 10
141.803
 20
99.871
 10
141.846
 20
99.92
 10
141.896
 20
99.963
 10
141.95
 20
100.0
 10
142.009
 20
100.029
 10
142.071
 20
100.05
 10
142.135
 20
100.062
 10
142.2
 20
100.067
 10
142.265
 20
100.062
 10
142.329
 20
100.05
 10
142.391
 20
100.029
 10
142.45
 20
100.0
 10
142.504
 20
99.963
 10
142.554
 20
99.92
 10
142.597
 20
99.871
 10
142.633
 20
99.817
 10
142.662
 20
99.758
 10
142.683
 20
99.696
 10
142.696
 20
99.632
 97
0
 75
0
 76
1
 98
0
  0
HATCH
  5
58
330
17
100
AcDbEntity
  8
RASTER
 62
7
100
AcDbHatch
 10
0.0
 20
0.0
 30
0.0
210
0.0
220
0.0
230
1.0
  2
SOLID
 70
1
 71
0
 91
1
 92
3
 72
0
 73
1
 93
48
 10
156.3
 20
99.567
 10
156.296
 20
99.501
 10
156.283
 20
99.437
 10
156.262
 20
99.375
 10
156.233
 20
99.317
 10
156.197
 20
99.262
 10
156.154
 20
99.213
 10
156.104
 20
99.17
 10
156.05
 20
99.134
 10
155.991
 20
99.105
 10
155.929
 20
99.084
 10
155.865
 20
99.071
 10
155.8
 20
99.067
 10
155.735
 20
99.071
 10
155.671
 20
99.084
 10
155.609
 20
99.105
 10
155.55
 20
99.134
 10
155.496
 20
99.17
 10
155.446
 20
99.213
 10
155.403
 20
99.262
 10
155.367
 20
99.317
 10
155.338
 20
99.375
 10
155.317
 20
99.437
 10
155.304
 20
99.501
 10
155.3
 20
99.567
 10
155.304
 20
99.632
 10
155.317
 20
99.696
 10
155.338
 20
99.758
 10
155.367
 20
99.817
 10
155.403
 20
99.871
 10
155.446
 20
99.92
 10
155.496
 20
99.963
 10
155.55
 20
100.0
 10
155.609
 20
100.029
 10
155.671
 20
100.05
 10
155.735
 20
100.062
 10
155.8
 20
100.067
 10
155.865
 20
100.062
 10
155.929
 20
100.05
 10
155.991
 20
100.029
 10
156.05
 20
100.0
 10
156.104
 20
99.963
 10
156.154
 20
99.92
 10
156.197
 20
99.871
 10
156.233
 20
99.817
 10
156.262
 20
99.758
 10
156.283
 20
99.696
 10
156.296
 20
99.632
 97
0
 75
0
 76
1
 98
0
  0
HATCH
  5
59
330
17
100
AcDbEntity
  8
RASTER
 62
7
100
AcDbHatch
 10
0.0
 20
0.0
 30
0.0
210
0.0
220
0.0
230
1.0
  2
SOLID
 70
1
 71
0
 91
1
 92
3
 72
0
 73
1
 93
48
 10
142.7
 20
94.3
 10
142.696
 20
94.235
 10
142.683
 20
94.171
 10
142.662
 20
94.109
 10
142.633
 20
94.05
 10
142.597
 20
93.996
 10
142.554
 20
93.946
 10
142.504
 20
93.903
 10
142.45
 20
93.867
 10
142.391
 20
93.838
 10
142.329
 20
93.817
 10
142.265
 20
93.804
 10
142.2
 20
93.8
 10
142.135
 20
93.804
 10
142.071
 20
93.817
 10
142.009
 20
93.838
 10
141.95
 20
93.867
 10
141.896
 20
93.903
 10
141.846
 20
93.946
 10
141.803
 20
93.996
 10
141.767
 20
94.05
 10
141.738
 20
94.109
 10
141.717
 20
94.171
 10
141.704
 20
94.235
 10
141.7
 20
94.3
 10
141.704
 20
94.365
 10
141.717
 20
94.429
 10
141.738
 20
94.491
 10
141.767
 20
94.55
 10
141.803
 20
94.604
 10
141.846
 20
94.654
 10
141.896
 20
94.697
 10
141.95
 20
94.733
 10
142.009
 20
94.762
 10
142.071
 20
94.783
 10
142.135
 20
94.796
 10
142.2
 20
94.8
 10
142.265
 20
94.796
 10
142.329
 20
94.783
 10
142.391
 20
94.762
 10
142.45
 20
94.733
 10
142.504
 20
94.697
 10
142.554
 20
94.654
 10
142.597
 20
94.604
 10
142.633
 20
94.55
 10
142.662
 20
94.491
 10
142.683
 20
94.429
 10
142.696
 20
94.365
 97
0
 75
0
 76
1
 98
0
  0
HATCH
  5
5A
330
17
100
AcDbEntity
  8
RASTER
 62
7
100
AcDbHatch
 10
0.0
 20
0.0
 30
0.0
210
0.0
220
0.0
230
1.0
  2
SOLID
 70
1
 71
0
 91
1
 92
3
 72
0
 73
1
 93
48
 10
156.3
 20
94.3
 10
156.296
 20
94.235
 10
156.283
 20
94.171
 10
156.262
 20
94.109
 10
156.233
 20
94.05
 10
156.197
 20
93.996
 10
156.154
 20
93.946
 10
156.104
 20
93.903
 10
156.05
 20
93.867
 10
155.991
 20
93.838
 10
155.929
 20
93.817
 10
155.865
 20
93.804
 10
155.8
 20
93.8
 10
155.735
 20
93.804
 10
155.671
 20
93.817
 10
155.609
 20
93.838
 10
155.55
 20
93.867
 10
155.496
 20
93.903
 10
155.446
 20
93.946
 10
155.403
 20
93.996
 10
155.367
 20
94.05
 10
155.338
 20
94.109
 10
155.317
 20
94.171
 10
155.304
 20
94.235
 10
155.3
 20
94.3
 10
155.304
 20
94.365
 10
155.317
 20
94.429
 10
155.338
 20
94.491
 10
155.367
 20
94.55
 10
155.403
 20
94.604
 10
155.446
 20
94.654
 10
155.496
 20
94.697
 10
155.55
 20
94.733
 10
155.609
 20
94.762
 10
155.671
 20
94.783
 10
155.735
 20
94.796
 10
155.8
 20
94.8
 10
155.865
 20
94.796
 10
155.929
 20
94.783
 10
155.991
 20
94.762
 10
156.05
 20
94.733
 10
156.104
 20
94.697
 10
156.154
 20
94.654
 10
156.197
 20
94.604
 10
156.233
 20
94.55
 10
156.262
 20
94.491
 10
156.283
 20
94.429
 10
156.296
 20
94.365
 97
0
 75
0
 76
1
 98
0
  0
HATCH
  5
5B
330
17
100
AcDbEntity
  8
RASTER
 62
7
100
AcDbHatch
 10
0.0
 20
0.0
 30
0.0
210
0.0
220
0.0
230
1.0
  2
SOLID
 70
1
 71
0
 91
1
 92
3
 72
0
 73
1
 93
48
 10
142.7
 20
89.033
 10
142.696
 20
88.968
 10
142.683
 20
88.904
 10
142.662
 20
88.842
 10
142.633
 20
88.783
 10
142.597
 20
88.729
 10
142.554
 20
88.68
 10
142.504
 20
88.637
 10
142.45
 20
88.6
 10
142.391
 20
88.571
 10
142.329
 20
88.55
 10
142.265
 20
88.538
 10
142.2
 20
88.533
 10
142.135
 20
88.538
 10
142.071
 20
88.55
 10
142.009
 20
88.571
 10
141.95
 20
88.6
 10
141.896
 20
88.637
 10
141.846
 20
88.68
 10
141.803
 20
88.729
 10
141.767
 20
88.783
 10
141.738
 20
88.842
 10
141.717
 20
88.904
 10
141.704
 20
88.968
 10
141.7
 20
89.033
 10
141.704
 20
89.099
 10
141.717
 20
89.163
 10
141.738
 20
89.225
 10
141.767
 20
89.283
 10
141.803
 20
89.338
 10
141.846
 20
89.387
 10
141.896
 20
89.43
 10
141.95
 20
89.466
 10
142.009
 20
89.495
 10
142.071
 20
89.516
 10
142.135
 20
89.529
 10
142.2
 20
89.533
 10
142.265
 20
89.529
 10
142.329
 20
89.516
 10
142.391
 20
89.495
 10
142.45
 20
89.466
 10
142.504
 20
89.43
 10
142.554
 20
89.387
 10
142.597
 20
89.338
 10
142.633
 20
89.283
 10
142.662
 20
89.225
 10
142.683
 20
89.163
 10
142.696
 20
89.099
 97
0
 75
0
 76
1
 98
0
  0
HATCH
  5
5C
330
17
100
AcDbEntity
  8
RASTER
 62
7
100
AcDbHatch
 10
0.0
 20
0.0
 30
0.0
210
0.0
220
0.0
230
1.0
  2
SOLID
 70
1
 71
0
 91
1
 92
3
 72
0
 73
1
 93
48
 10
156.3
 20
89.033
 10
156.296
 20
88.968
 10
156.283
 20
88.904
 10
156.262
 20
88.842
 10
156.233
 20
88.783
 10
156.197
 20
88.729
 10
156.154
 20
88.68
 10
156.104
 20
88.637
 10
156.05
 20
88.6
 10
155.991
 20
88.571
 10
155.929
 20
88.55
 10
155.865
 20
88.538
 10
155.8
 20
88.533
 10
155.735
 20
88.538
 10
155.671
 20
88.55
 10
155.609
 20
88.571
 10
155.55
 20
88.6
 10
155.496
 20
88.637
 10
155.446
 20
88.68
 10
155.403
 20
88.729
 10
155.367
 20
88.783
 10
155.338
 20
88.842
 10
155.317
 20
88.904
 10
155.304
 20
88.968
 10
155.3
 20
89.033
 10
155.304
 20
89.099
 10
155.317
 20
89.163
 10
155.338
 20
89.225
 10
155.367
 20
89.283
 10
155.403
 20
89.338
 10
155.446
 20
89.387
 10
155.496
 20
89.43
 10
155.55
 20
89.466
 10
155.609
 20
89.495
 10
155.671
 20
89.516
 10
155.735
 20
89.529
 10
155.8
 20
89.533
 10
155.865
 20
89.529
 10
155.929
 20
89.516
 10
155.991
 20
89.495
 10
156.05
 20
89.466
 10
156.104
 20
89.43
 10
156.154
 20
89.387
 10
156.197
 20
89.338
 10
156.233
 20
89.283
 10
156.262
 20
89.225
 10
156.283
 20
89.163
 10
156.296
 20
89.099
 97
0
 75
0
 76
1
 98
0
  0
LWPOLYLINE
  5
5D
330
17
100
AcDbEntity
  8
CUT
100
AcDbPolyline
 90
52
 70
1
 10
167.96
 20
102.04
 10
170.6
 20
102.04
 10
176.183
 20
102.04
 10
176.183
 20
99.44
 10
181.646
 20
99.44
 10
181.646
 20
102.04
 10
187.269
 20
102.04
 10
187.269
 20
99.44
 10
192.731
 20
99.44
 10
192.731
 20
102.04
 10
198.354
 20
102.04
 10
198.354
 20
99.44
 10
203.817
 20
99.44
 10
203.817
 20
102.04
 10
209.4
 20
102.04
 10
212.04
 20
102.04
 10
212.04
 20
99.4
 10
212.04
 20
94.4
 10
209.44
 20
94.4
 10
209.44
 20
89.52
 10
212.04
 20
89.52
 10
212.04
 20
84.48
 10
209.44
 20
84.48
 10
209.44
 20
79.6
 10
212.04
 20
79.6
 10
212.04
 20
74.6
 10
212.04
 20
71.96
 10
209.4
 20
71.96
 10
203.817
 20
71.96
 10
203.817
 20
74.56
 10
198.354
 20
74.56
 10
198.354
 20
71.96
 10
192.731
 20
71.96
 10
192.731
 20
74.56
 10
187.269
 20
74.56
 10
187.269
 20
71.96
 10
181.646
 20
71.96
 10
181.646
 20
74.56
 10
176.183
 20
74.56
 10
176.183
 20
71.96
 10
170.6
 20
71.96
 10
167.96
 20
71.96
 10
167.96
 20
74.6
 10
167.96
 20
79.6
 10
170.56
 20
79.6
 10
170.56
 20
84.48
 10
167.96
 20
84.48
 10
167.96
 20
89.52
 10
170.56
 20
89.52
 10
170.56
 20
94.4
 10
167.96
 20
94.4
 10
167.96
 20
99.4
  0
LWPOLYLINE
  5
5E
330
17
100
AcDbEntity
  8
CUT
100
AcDbPolyline
 90
28
 70
1
 10
218.6
 20
102.04
 10
257.4
 20
102.04
 10
260.04
 20
102.04
 10
260.04
 20
96.827
 10
257.44
 20
96.827
 10
257.44
 20
91.773
 10
260.04
 20
91.773
 10
260.04
 20
86.56
 10
257.4
 20
86.56
 10
251.897
 20
86.56
 10
251.897
 20
83.96
 10
246.274
 20
83.96
 10
246.274
 20
86.56
 10
240.811
 20
86.56
 10
240.811
 20
83.96
 10
235.189
 20
83.96
 10
235.189
 20
86.56
 10
229.726
 20
86.56
 10
229.726
 20
83.96
 10
224.103
 20
83.96
 10
224.103
 20
86.56
 10
218.6
 20
86.56
 10
215.96
 20
86.56
 10
215.96
 20
91.773
 10
218.56
 20
91.773
 10
218.56
 20
96.827
 10
215.96
 20
96.827
 10
215.96
 20
102.04
  0
LWPOLYLINE
  5
5F
330
17
100
AcDbEntity
  8
CUT
100
AcDbPolyline
 90
4
 70
1
 10
222.64
 20
97.593
 10
253.36
 20
97.593
 10
253.36
 20
96.273
 10
222.64
 20
96.273
  0
LWPOLYLINE
  5
60
330
17
100
AcDbEntity
  8
CUT
100
AcDbPolyline
 90
4
 70
1
 10
222.64
 20
92.327
 10
253.36
 20
92.327
 10
253.36
 20
91.007
 10
222.64
 20
91.007
  0
HATCH
  5
61
330
17
100
AcDbEntity
  8
RASTER
 62
7
100
AcDbHatch
 10
0.0
 20
0.0
 30
0.0
210
0.0
220
0.0
230
1.0
  2
SOLID
 70
1
 71
0
 91
1
 92
3
 72
0
 73
1
 93
4
 10
219.2
 20
101.6
 10
222.0
 20
101.6
 10
222.0
 20
87.0
 10
219.2
 20
87.0
 97
0
 75
0
 76
1
 98
0
  0
HATCH
  5
62
330
17
100
AcDbEntity
  8
RASTER
 62
7
100
AcDbHatch
 10
0.0
 20
0.0
 30
0.0
210
0.0
220
0.0
230
1.0
  2
SOLID
 70
1
 71
0
 91
1
 92
3
 72
0
 73
1
 93
4
 10
254.0
 20
101.6
 10
256.8
 20
101.6
 10
256.8
 20
87.0
 10
254.0
 20
87.0
 97
0
 75
0
 76
1
 98
0
  0
HATCH
  5
63
330
17
100
AcDbEntity
  8
RASTER
 62
7
100
AcDbHatch
 10
0.0
 20
0.0
 30
0.0
210
0.0
220
0.0
230
1.0
  2
SOLID
 70
1
 71
0
 91
1
 92
3
 72
0
 73
1
 93
48
 10
224.7
 20
99.567
 10
224.696
 20
99.501
 10
224.683
 20
99.437
 10
224.662
 20
99.375
 10
224.633
 20
99.317
 10
224.597
 20
99.262
 10
224.554
 20
99.213
 10
224.504
 20
99.17
 10
224.45
 20
99.134
 10
224.391
 20
99.105
 10
224.329
 20
99.084
 10
224.265
 20
99.071
 10
224.2
 20
99.067
 10
224.135
 20
99.071
 10
224.071
 20
99.084
 10
224.009
 20
99.105
 10
223.95
 20
99.134
 10
223.896
 20
99.17
 10
223.846
 20
99.213
 10
223.803
 20
99.262
 10
223.767
 20
99.317
 10
223.738
 20
99.375
 10
223.717
 20
99.437
 10
223.704
 20
99.501
 10
223.7
 20
99.567
 10
223.704
 20
99.632
 10
223.717
 20
99.696
 10
223.738
 20
99.758
 10
223.767
 20
99.817
 10
223.803
 20
99.871
 10
223.846
 20
99.92
 10
223.896
 20
99.963
 10
223.95
 20
100.0
 10
224.009
 20
100.029
 10
224.071
 20
100.05
 10
224.135
 20
100.062
 10
224.2
 20
100.067
 10
224.265
 20
100.062
 10
224.329
 20
100.05
 10
224.391
 20
100.029
 10
224.45
 20
100.0
 10
224.504
 20
99.963
 10
224.554
 20
99.92
 10
224.597
 20
99.871
 10
224.633
 20
99.817
 10
224.662
 20
99.758
 10
224.683
 20
99.696
 10
224.696
 20
99.632
 97
0
 75
0
 76
1
 98
0
  0
HATCH
  5
64
330
17
100
AcDbEntity
  8
RASTER
 62
7
100
AcDbHatch
 10
0.0
 20
0.0
 30
0.0
210
0.0
220
0.0
230
1.0
  2
SOLID
 70
1
 71
0
 91
1
 92
3
 72
0
 73
1
 93
48
 10
252.3
 20
99.567
 10
252.296
 20
99.501
 10
252.283
 20
99.437
 10
252.262
 20
99.375
 10
252.233
 20
99.317
 10
252.197
 20
99.262
 10
252.154
 20
99.213
 10
252.104
 20
99.17
 10
252.05
 20
99.134
 10
251.991
 20
99.105
 10
251.929
 20
99.084
 10
251.865
 20
99.071
 10
251.8
 20
99.067
 10
251.735
 20
99.071
 10
251.671
 20
99.084
 10
251.609
 20
99.105
 10
251.55
 20
99.134
 10
251.496
 20
99.17
 10
251.446
 20
99.213
 10
251.403
 20
99.262
 10
251.367
 20
99.317
 10
251.338
 20
99.375
 10
251.317
 20
99.437
 10
251.304
 20
99.501
 10
251.3
 20
99.567
 10
251.304
 20
99.632
 10
251.317
 20
99.696
 10
251.338
 20
99.758
 10
251.367
 20
99.817
 10
251.403
 20
99.871
 10
251.446
 20
99.92
 10
251.496
 20
99.963
 10
251.55
 20
100.0
 10
251.609
 20
100.029
 10
251.671
 20
100.05
 10
251.735
 20
100.062
 10
251.8
 20
100.067
 10
251.865
 20
100.062
 10
251.929
 20
100.05
 10
251.991
 20
100.029
 10
252.05
 20
100.0
 10
252.104
 20
99.963
 10
252.154
 20
99.92
 10
252.197
 20
99.871
 10
252.233
 20
99.817
 10
252.262
 20
99.758
 10
252.283
 20
99.696
 10
252.296
 20
99.632
 97
0
 75
0
 76
1
 98
0
  0
HATCH
  5
65
330
17
100
AcDbEntity
  8
RASTER
 62
7
100
AcDbHatch
 10
0.0
 20
0.0
 30
0.0
210
0.0
220
0.0
230
1.0
  2
SOLID
 70
1
 71
0
 91
1
 92
3
 72
0
 73
1
 93
48
 10
224.7
 20
94.3
 10
224.696
 20
94.235
 10
224.683
 20
94.171
 10
224.662
 20
94.109
 10
224.633
 20
94.05
 10
224.597
 20
93.996
 10
224.554
 20
93.946
 10
224.504
 20
93.903
 10
224.45
 20
93.867
 10
224.391
 20
93.838
 10
224.329
 20
93.817
 10
224.265
 20
93.804
 10
224.2
 20
93.8
 10
224.135
 20
93.804
 10
224.071
 20
93.817
 10
224.009
 20
93.838
 10
223.95
 20
93.867
 10
223.896
 20
93.903
 10
223.846
 20
93.946
 10
223.803
 20
93.996
 10
223.767
 20
94.05
 10
223.738
 20
94.109
 10
223.717
 20
94.171
 10
223.704
 20
94.235
 10
223.7
 20
94.3
 10
223.704
 20
94.365
 10
223.717
 20
94.429
 10
223.738
 20
94.491
 10
223.767
 20
94.55
 10
223.803
 20
94.604
 10
223.846
 20
94.654
 10
223.896
 20
94.697
 10
223.95
 20
94.733
 10
224.009
 20
94.762
 10
224.071
 20
94.783
 10
224.135
 20
94.796
 10
224.2
 20
94.8
 10
224.265
 20
94.796
 10
224.329
 20
94.783
 10
224.391
 20
94.762
 10
224.45
 20
94.733
 10
224.504
 20
94.697
 10
224.554
 20
94.654
 10
224.597
 20
94.604
 10
224.633
 20
94.55
 10
224.662
 20
94.491
 10
224.683
 20
94.429
 10
224.696
 20
94.365
 97
0
 75
0
 76
1
 98
0
  0
HATCH
  5
66
330
17
100
AcDbEntity
  8
RASTER
 62
7
100
AcDbHatch
 10
0.0
 20
0.0
 30
0.0
210
0.0
220
0.0
230
1.0
  2
SOLID
 70
1
 71
0
 91
1
 92
3
 72
0
 73
1
 93
48
 10
252.3
 20
94.3
 10
252.296
 20
94.235
 10
252.283
 20
94.171
 10
252.262
 20
94.109
 10
252.233
 20
94.05
 10
252.197
 20
93.996
 10
252.154
 20
93.946
 10
252.104
 20
93.903
 10
252.05
 20
93.867
 10
251.991
 20
93.838
 10
251.929
 20
93.817
 10
251.865
 20
93.804
 10
251.8
 20
93.8
 10
251.735
 20
93.804
 10
251.671
 20
93.817
 10
251.609
 20
93.838
 10
251.55
 20
93.867
 10
251.496
 20
93.903
 10
251.446
 20
93.946
 10
251.403
 20
93.996
 10
251.367
 20
94.05
 10
251.338
 20
94.109
 10
251.317
 20
94.171
 10
251.304
 20
94.235
 10
251.3
 20
94.3
 10
251.304
 20
94.365
 10
251.317
 20
94.429
 10
251.338
 20
94.491
 10
251.367
 20
94.55
 10
251.403
 20
94.604
 10
251.446
 20
94.654
 10
251.496
 20
94.697
 10
251.55
 20
94.733
 10
251.609
 20
94.762
 10
251.671
 20
94.783
 10
251.735
 20
94.796
 10
251.8
 20
94.8
 10
251.865
 20
94.796
 10
251.929
 20
94.783
 10
251.991
 20
94.762
 10
252.05
 20
94.733
 10
252.104
 20
94.697
 10
252.154
 20
94.654
 10
252.197
 20
94.604
 10
252.233
 20
94.55
 10
252.262
 20
94.491
 10
252.283
 20
94.429
 10
252.296
 20
94.365
 97
0
 75
0
 76
1
 98
0
  0
HATCH
  5
67
330
17
100
AcDbEntity
  8
RASTER
 62
7
100
AcDbHatch
 10
0.0
 20
0.0
 30
0.0
210
0.0
220
0.0
230
1.0
  2
SOLID
 70
1
 71
0
 91
1
 92
3
 72
0
 73
1
 93
48
 10
224.7
 20
89.033
 10
224.696
 20
88.968
 10
224.683
 20
88.904
 10
224.662
 20
88.842
 10
224.633
 20
88.783
 10
224.597
 20
88.729
 10
224.554
 20
88.68
 10
224.504
 20
88.637
 10
224.45
 20
88.6
 10
224.391
 20
88.571
 10
224.329
 20
88.55
 10
224.265
 20
88.538
 10
224.2
 20
88.533
 10
224.135
 20
88.538
 10
224.071
 20
88.55
 10
224.009
 20
88.571
 10
223.95
 20
88.6
 10
223.896
 20
88.637
 10
223.846
 20
88.68
 10
223.803
 20
88.729
 10
223.767
 20
88.783
 10
223.738
 20
88.842
 10
223.717
 20
88.904
 10
223.704
 20
88.968
 10
223.7
 20
89.033
 10
223.704
 20
89.099
 10
223.717
 20
89.163
 10
223.738
 20
89.225
 10
223.767
 20
89.283
 10
223.803
 20
89.338
 10
223.846
 20
89.387
 10
223.896
 20
89.43
 10
223.95
 20
89.466
 10
224.009
 20
89.495
 10
224.071
 20
89.516
 10
224.135
 20
89.529
 10
224.2
 20
89.533
 10
224.265
 20
89.529
 10
224.329
 20
89.516
 10
224.391
 20
89.495
 10
224.45
 20
89.466
 10
224.504
 20
89.43
 10
224.554
 20
89.387
 10
224.597
 20
89.338
 10
224.633
 20
89.283
 10
224.662
 20
89.225
 10
224.683
 20
89.163
 10
224.696
 20
89.099
 97
0
 75
0
 76
1
 98
0
  0
HATCH
  5
68
330
17
100
AcDbEntity
  8
RASTER
 62
7
100
AcDbHatch
 10
0.0
 20
0.0
 30
0.0
210
0.0
220
0.0
230
1.0
  2
SOLID
 70
1
 71
0
 91
1
 92
3
 72
0
 73
1
 93
48
 10
252.3
 20
89.033
 10
252.296
 20
88.968
 10
252.283
 20
88.904
 10
252.262
 20
88.842
 10
252.233
 20
88.783
 10
252.197
 20
88.729
 10
252.154
 20
88.68
 10
252.104
 20
88.637
 10
252.05
 20
88.6
 10
251.991
 20
88.571
 10
251.929
 20
88.55
 10
251.865
 20
88.538
 10
251.8
 20
88.533
 10
251.735
 20
88.538
 10
251.671
 20
88.55
 10
251.609
 20
88.571
 10
251.55
 20
88.6
 10
251.496
 20
88.637
 10
251.446
 20
88.68
 10
251.403
 20
88.729
 10
251.367
 20
88.783
 10
251.338
 20
88.842
 10
251.317
 20
88.904
 10
251.304
 20
88.968
 10
251.3
 20
89.033
 10
251.304
 20
89.099
 10
251.317
 20
89.163
 10
251.338
 20
89.225
 10
251.367
 20
89.283
 10
251.403
 20
89.338
 10
251.446
 20
89.387
 10
251.496
 20
89.43
 10
251.55
 20
89.466
 10
251.609
 20
89.495
 10
251.671
 20
89.516
 10
251.735
 20
89.529
 10
251.8
 20
89.533
 10
251.865
 20
89.529
 10
251.929
 20
89.516
 10
251.991
 20
89.495
 10
252.05
 20
89.466
 10
252.104
 20
89.43
 10
252.154
 20
89.387
 10
252.197
 20
89.338
 10
252.233
 20
89.283
 10
252.262
 20
89.225
 10
252.283
 20
89.163
 10
252.296
 20
89.099
 97
0
 75
0
 76
1
 98
0
  0
LWPOLYLINE
  5
69
330
17
100
AcDbEntity
  8
CUT
100
AcDbPolyline
 90
28
 70
1
 10
6.6
 20
68.04
 10
45.4
 20
68.04
 10
48.04
 20
68.04
 10
48.04
 20
62.827
 10
45.44
 20
62.827
 10
45.44
 20
57.773
 10
48.04
 20
57.773
 10
48.04
 20
52.56
 10
45.4
 20
52.56
 10
39.897
 20
52.56
 10
39.897
 20
49.96
 10
34.274
 20
49.96
 10
34.274
 20
52.56
 10
28.811
 20
52.56
 10
28.811
 20
49.96
 10
23.189
 20
49.96
 10
23.189
 20
52.56
 10
17.726
 20
52.56
 10
17.726
 20
49.96
 10
12.103
 20
49.96
 10
12.103
 20
52.56
 10
6.6
 20
52.56
 10
3.96
 20
52.56
 10
3.96
 20
57.773
 10
6.56
 20
57.773
 10
6.56
 20
62.827
 10
3.96
 20
62.827
 10
3.96
 20
68.04
  0
LWPOLYLINE
  5
6A
330
17
100
AcDbEntity
  8
CUT
100
AcDbPolyline
 90
4
 70
1
 10
10.64
 20
63.593
 10
41.36
 20
63.593
 10
41.36
 20
62.273
 10
10.64
 20
62.273
  0
LWPOLYLINE
  5
6B
330
17
100
AcDbEntity
  8
CUT
100
AcDbPolyline
 90
4
 70
1
 10
10.64
 20
58.327
 10
41.36
 20
58.327
 10
41.36
 20
57.007
 10
10.64
 20
57.007
  0
HATCH
  5
6C
330
17
100
AcDbEntity
  8
RASTER
 62
7
100
AcDbHatch
 10
0.0
 20
0.0
 30
0.0
210
0.0
220
0.0
230
1.0
  2
SOLID
 70
1
 71
0
 91
1
 92
3
 72
0
 73
1
 93
4
 10
7.2
 20
67.6
 10
10.0
 20
67.6
 10
10.0
 20
53.0
 10
7.2
 20
53.0
 97
0
 75
0
 76
1
 98
0
  0
HATCH
  5
6D
330
17
100
AcDbEntity
  8
RASTER
 62
7
100
AcDbHatch
 10
0.0
 20
0.0
 30
0.0
210
0.0
220
0.0
230
1.0
  2
SOLID
 70
1
 71
0
 91
1
 92
3
 72
0
 73
1
 93
4
 10
42.0
 20
67.6
 10
44.8
 20
67.6
 10
44.8
 20
53.0
 10
42.0
 20
53.0
 97
0
 75
0
 76
1
 98
0
  0
HATCH
  5
6E
330
17
100
AcDbEntity
  8
RASTER
 62
7
100
AcDbHatch
 10
0.0
 20
0.0
 30
0.0
210
0.0
220
0.0
230
1.0
  2
SOLID
 70
1
 71
0
 91
1
 92
3
 72
0
 73
1
 93
48
 10
12.7
 20
65.567
 10
12.696
 20
65.501
 10
12.683
 20
65.437
 10
12.662
 20
65.375
 10
12.633
 20
65.317
 10
12.597
 20
65.262
 10
12.554
 20
65.213
 10
12.504
 20
65.17
 10
12.45
 20
65.134
 10
12.391
 20
65.105
 10
12.329
 20
65.084
 10
12.265
 20
65.071
 10
12.2
 20
65.067
 10
12.135
 20
65.071
 10
12.071
 20
65.084
 10
12.009
 20
65.105
 10
11.95
 20
65.134
 10
11.896
 20
65.17
 10
11.846
 20
65.213
 10
11.803
 20
65.262
 10
11.767
 20
65.317
 10
11.738
 20
65.375
 10
11.717
 20
65.437
 10
11.704
 20
65.501
 10
11.7
 20
65.567
 10
11.704
 20
65.632
 10
11.717
 20
65.696
 10
11.738
 20
65.758
 10
11.767
 20
65.817
 10
11.803
 20
65.871
 10
11.846
 20
65.92
 10
11.896
 20
65.963
 10
11.95
 20
66.0
 10
12.009
 20
66.029
 10
12.071
 20
66.05
 10
12.135
 20
66.062
 10
12.2
 20
66.067
 10
12.265
 20
66.062
 10
12.329
 20
66.05
 10
12.391
 20
66.029
 10
12.45
 20
66.0
 10
12.504
 20
65.963
 10
12.554
 20
65.92
 10
12.597
 20
65.871
 10
12.633
 20
65.817
 10
12.662
 20
65.758
 10
12.683
 20
65.696
 10
12.696
 20
65.632
 97
0
 75
0
 76
1
 98
0
  0
HATCH
  5
6F
330
17
100
AcDbEntity
  8
RASTER
 62
7
100
AcDbHatch
 10
0.0
 20
0.0
 30
0.0
210
0.0
220
0.0
230
1.0
  2
SOLID
 70
1
 71
0
 91
1
 92
3
 72
0
 73
1
 93
48
 10
40.3
 20
65.567
 10
40.296
 20
65.501
 10
40.283
 20
65.437
 10
40.262
 20
65.375
 10
40.233
 20
65.317
 10
40.197
 20
65.262
 10
40.154
 20
65.213
 10
40.104
 20
65.17
 10
40.05
 20
65.134
 10
39.991
 20
65.105
 10
39.929
 20
65.084
 10
39.865
 20
65.071
 10
39.8
 20
65.067
 10
39.735
 20
65.071
 10
39.671
 20
65.084
 10
39.609
 20
65.105
 10
39.55
 20
65.134
 10
39.496
 20
65.17
 10
39.446
 20
65.213
 10
39.403
 20
65.262
 10
39.367
 20
65.317
 10
39.338
 20
65.375
 10
39.317
 20
65.437
 10
39.304
 20
65.501
 10
39.3
 20
65.567
 10
39.304
 20
65.632
 10
39.317
 20
65.696
 10
39.338
 20
65.758
 10
39.367
 20
65.817
 10
39.403
 20
65.871
 10
39.446
 20
65.92
 10
39.496
 20
65.963
 10
39.55
 20
66.0
 10
39.609
 20
66.029
 10
39.671
 20
66.05
 10
39.735
 20
66.062
 10
39.8
 20
66.067
 10
39.865
 20
66.062
 10
39.929
 20
66.05
 10
39.991
 20
66.029
 10
40.05
 20
66.0
 10
40.104
 20
65.963
 10
40.154
 20
65.92
 10
40.197
 20
65.871
 10
40.233
 20
65.817
 10
40.262
 20
65.758
 10
40.283
 20
65.696
 10
40.296
 20
65.632
 97
0
 75
0
 76
1
 98
0
  0
HATCH
  5
70
330
17
100
AcDbEntity
  8
RASTER
 62
7
100
AcDbHatch
 10
0.0
 20
0.0
 30
0.0
210
0.0
220
0.0
230
1.0
  2
SOLID
 70
1
 71
0
 91
1
 92
3
 72
0
 73
1
 93
48
 10
12.7
 20
60.3
 10
12.696
 20
60.235
 10
12.683
 20
60.171
 10
12.662
 20
60.109
 10
12.633
 20
60.05
 10
12.597
 20
59.996
 10
12.554
 20
59.946
 10
12.504
 20
59.903
 10
12.45
 20
59.867
 10
12.391
 20
59.838
 10
12.329
 20
59.817
 10
12.265
 20
59.804
 10
12.2
 20
59.8
 10
12.135
 20
59.804
 10
12.071
 20
59.817
 10
12.009
 20
59.838
 10
11.95
 20
59.867
 10
11.896
 20
59.903
 10
11.846
 20
59.946
 10
11.803
 20
59.996
 10
11.767
 20
60.05
 10
11.738
 20
60.109
 10
11.717
 20
60.171
 10
11.704
 20
60.235
 10
11.7
 20
60.3
 10
11.704
 20
60.365
 10
11.717
 20
60.429
 10
11.738
 20
60.491
 10
11.767
 20
60.55
 10
11.803
 20
60.604
 10
11.846
 20
60.654
 10
11.896
 20
60.697
 10
11.95
 20
60.733
 10
12.009
 20
60.762
 10
12.071
 20
60.783
 10
12.135
 20
60.796
 10
12.2
 20
60.8
 10
12.265
 20
60.796
 10
12.329
 20
60.783
 10
12.391
 20
60.762
 10
12.45
 20
60.733
 10
12.504
 20
60.697
 10
12.554
 20
60.654
 10
12.597
 20
60.604
 10
12.633
 20
60.55
 10
12.662
 20
60.491
 10
12.683
 20
60.429
 10
12.696
 20
60.365
 97
0
 75
0
 76
1
 98
0
  0
HATCH
  5
71
330
17
100
AcDbEntity
  8
RASTER
 62
7
100
AcDbHatch
 10
0.0
 20
0.0
 30
0.0
210
0.0
220
0.0
230
1.0
  2
SOLID
 70
1
 71
0
 91
1
 92
3
 72
0
 73
1
 93
48
 10
40.3
 20
60.3
 10
40.296
 20
60.235
 10
40.283
 20
60.171
 10
40.262
 20
60.109
 10
40.233
 20
60.05
 10
40.197
 20
59.996
 10
40.154
 20
59.946
 10
40.104
 20
59.903
 10
40.05
 20
59.867
 10
39.991
 20
59.838
 10
39.929
 20
59.817
 10
39.865
 20
59.804
 10
39.8
 20
59.8
 10
39.735
 20
59.804
 10
39.671
 20
59.817
 10
39.609
 20
59.838
 10
39.55
 20
59.867
 10
39.496
 20
59.903
 10
39.446
 20
59.946
 10
39.403
 20
59.996
 10
39.367
 20
60.05
 10
39.338
 20
60.109
 10
39.317
 20
60.171
 10
39.304
 20
60.235
 10
39.3
 20
60.3
 10
39.304
 20
60.365
 10
39.317
 20
60.429
 10
39.338
 20
60.491
 10
39.367
 20
60.55
 10
39.403
 20
60.604
 10
39.446
 20
60.654
 10
39.496
 20
60.697
 10
39.55
 20
60.733
 10
39.609
 20
60.762
 10
39.671
 20
60.783
 10
39.735
 20
60.796
 10
39.8
 20
60.8
 10
39.865
 20
60.796
 10
39.929
 20
60.783
 10
39.991
 20
60.762
 10
40.05
 20
60.733
 10
40.104
 20
60.697
 10
40.154
 20
60.654
 10
40.197
 20
60.604
 10
40.233
 20
60.55
 10
40.262
 20
60.491
 10
40.283
 20
60.429
 10
40.296
 20
60.365
 97
0
 75
0
 76
1
 98
0
  0
HATCH
  5
72
330
17
100
AcDbEntity
  8
RASTER
 62
7
100
AcDbHatch
 10
0.0
 20
0.0
 30
0.0
210
0.0
220
0.0
230
1.0
  2
SOLID
 70
1
 71
0
 91
1
 92
3
 72
0
 73
1
 93
48
 10
12.7
 20
55.033
 10
12.696
 20
54.968
 10
12.683
 20
54.904
 10
12.662
 20
54.842
 10
12.633
 20
54.783
 10
12.597
 20
54.729
 10
12.554
 20
54.68
 10
12.504
 20
54.637
 10
12.45
 20
54.6
 10
12.391
 20
54.571
 10
12.329
 20
54.55
 10
12.265
 20
54.538
 10
12.2
 20
54.533
 10
12.135
 20
54.538
 10
12.071
 20
54.55
 10
12.009
 20
54.571
 10
11.95
 20
54.6
 10
11.896
 20
54.637
 10
11.846
 20
54.68
 10
11.803
 20
54.729
 10
11.767
 20
54.783
 10
11.738
 20
54.842
 10
11.717
 20
54.904
 10
11.704
 20
54.968
 10
11.7
 20
55.033
 10
11.704
 20
55.099
 10
11.717
 20
55.163
 10
11.738
 20
55.225
 10
11.767
 20
55.283
 10
11.803
 20
55.338
 10
11.846
 20
55.387
 10
11.896
 20
55.43
 10
11.95
 20
55.466
 10
12.009
 20
55.495
 10
12.071
 20
55.516
 10
12.135
 20
55.529
 10
12.2
 20
55.533
 10
12.265
 20
55.529
 10
12.329
 20
55.516
 10
12.391
 20
55.495
 10
12.45
 20
55.466
 10
12.504
 20
55.43
 10
12.554
 20
55.387
 10
12.597
 20
55.338
 10
12.633
 20
55.283
 10
12.662
 20
55.225
 10
12.683
 20
55.163
 10
12.696
 20
55.099
 97
0
 75
0
 76
1
 98
0
  0
HATCH
  5
73
330
17
100
AcDbEntity
  8
RASTER
 62
7
100
AcDbHatch
 10
0.0
 20
0.0
 30
0.0
210
0.0
220
0.0
230
1.0
  2
SOLID
 70
1
 71
0
 91
1
 92
3
 72
0
 73
1
 93
48
 10
40.3
 20
55.033
 10
40.296
 20
54.968
 10
40.283
 20
54.904
 10
40.262
 20
54.842
 10
40.233
 20
54.783
 10
40.197
 20
54.729
 10
40.154
 20
54.68
 10
40.104
 20
54.637
 10
40.05
 20
54.6
 10
39.991
 20
54.571
 10
39.929
 20
54.55
 10
39.865
 20
54.538
 10
39.8
 20
54.533
 10
39.735
 20
54.538
 10
39.671
 20
54.55
 10
39.609
 20
54.571
 10
39.55
 20
54.6
 10
39.496
 20
54.637
 10
39.446
 20
54.68
 10
39.403
 20
54.729
 10
39.367
 20
54.783
 10
39.338
 20
54.842
 10
39.317
 20
54.904
 10
39.304
 20
54.968
 10
39.3
 20
55.033
 10
39.304
 20
55.099
 10
39.317
 20
55.163
 10
39.338
 20
55.225
 10
39.367
 20
55.283
 10
39.403
 20
55.338
 10
39.446
 20
55.387
 10
39.496
 20
55.43
 10
39.55
 20
55.466
 10
39.609
 20
55.495
 10
39.671
 20
55.516
 10
39.735
 20
55.529
 10
39.8
 20
55.533
 10
39.865
 20
55.529
 10
39.929
 20
55.516
 10
39.991
 20
55.495
 10
40.05
 20
55.466
 10
40.104
 20
55.43
 10
40.154
 20
55.387
 10
40.197
 20
55.338
 10
40.233
 20
55.283
 10
40.262
 20
55.225
 10
40.283
 20
55.163
 10
40.296
 20
55.099
 97
0
 75
0
 76
1
 98
0
  0
LWPOLYLINE
  5
74
330
17
100
AcDbEntity
  8
CUT
100
AcDbPolyline
 90
20
 70
1
 10
54.56
 20
68.04
 10
79.44
 20
68.04
 10
79.44
 20
62.907
 10
82.04
 20
62.907
 10
82.04
 20
57.693
 10
79.44
 20
57.693
 10
79.44
 20
52.56
 10
74.48
 20
52.56
 10
74.48
 20
49.96
 10
69.44
 20
49.96
 10
69.44
 20
52.56
 10
64.56
 20
52.56
 10
64.56
 20
49.96
 10
59.52
 20
49.96
 10
59.52
 20
52.56
 10
54.56
 20
52.56
 10
54.56
 20
57.693
 10
51.96
 20
57.693
 10
51.96
 20
62.907
 10
54.56
 20
62.907
  0
LWPOLYLINE
  5
75
330
17
100
AcDbEntity
  8
CUT
100
AcDbPolyline
 90
4
 70
1
 10
58.64
 20
63.593
 10
75.36
 20
63.593
 10
75.36
 20
62.273
 10
58.64
 20
62.273
  0
LWPOLYLINE
  5
76
330
17
100
AcDbEntity
  8
CUT
100
AcDbPolyline
 90
4
 70
1
 10
58.64
 20
58.327
 10
75.36
 20
58.327
 10
75.36
 20
57.007
 10
58.64
 20
57.007
  0
HATCH
  5
77
330
17
100
AcDbEntity
  8
RASTER
 62
7
100
AcDbHatch
 10
0.0
 20
0.0
 30
0.0
210
0.0
220
0.0
230
1.0
  2
SOLID
 70
1
 71
0
 91
1
 92
3
 72
0
 73
1
 93
4
 10
55.2
 20
67.6
 10
58.0
 20
67.6
 10
58.0
 20
53.0
 10
55.2
 20
53.0
 97
0
 75
0
 76
1
 98
0
  0
HATCH
  5
78
330
17
100
AcDbEntity
  8
RASTER
 62
7
100
AcDbHatch
 10
0.0
 20
0.0
 30
0.0
210
0.0
220
0.0
230
1.0
  2
SOLID
 70
1
 71
0
 91
1
 92
3
 72
0
 73
1
 93
4
 10
76.0
 20
67.6
 10
78.8
 20
67.6
 10
78.8
 20
53.0
 10
76.0
 20
53.0
 97
0
 75
0
 76
1
 98
0
  0
HATCH
  5
79
330
17
100
AcDbEntity
  8
RASTER
 62
7
100
AcDbHatch
 10
0.0
 20
0.0
 30
0.0
210
0.0
220
0.0
230
1.0
  2
SOLID
 70
1
 71
0
 91
1
 92
3
 72
0
 73
1
 93
48
 10
60.7
 20
65.567
 10
60.696
 20
65.501
 10
60.683
 20
65.437
 10
60.662
 20
65.375
 10
60.633
 20
65.317
 10
60.597
 20
65.262
 10
60.554
 20
65.213
 10
60.504
 20
65.17
 10
60.45
 20
65.134
 10
60.391
 20
65.105
 10
60.329
 20
65.084
 10
60.265
 20
65.071
 10
60.2
 20
65.067
 10
60.135
 20
65.071
 10
60.071
 20
65.084
 10
60.009
 20
65.105
 10
59.95
 20
65.134
 10
59.896
 20
65.17
 10
59.846
 20
65.213
 10
59.803
 20
65.262
 10
59.767
 20
65.317
 10
59.738
 20
65.375
 10
59.717
 20
65.437
 10
59.704
 20
65.501
 10
59.7
 20
65.567
 10
59.704
 20
65.632
 10
59.717
 20
65.696
 10
59.738
 20
65.758
 10
59.767
 20
65.817
 10
59.803
 20
65.871
 10
59.846
 20
65.92
 10
59.896
 20
65.963
 10
59.95
 20
66.0
 10
60.009
 20
66.029
 10
60.071
 20
66.05
 10
60.135
 20
66.062
 10
60.2
 20
66.067
 10
60.265
 20
66.062
 10
60.329
 20
66.05
 10
60.391
 20
66.029
 10
60.45
 20
66.0
 10
60.504
 20
65.963
 10
60.554
 20
65.92
 10
60.597
 20
65.871
 10
60.633
 20
65.817
 10
60.662
 20
65.758
 10
60.683
 20
65.696
 10
60.696
 20
65.632
 97
0
 75
0
 76
1
 98
0
  0
HATCH
  5
7A
330
17
100
AcDbEntity
  8
RASTER
 62
7
100
AcDbHatch
 10
0.0
 20
0.0
 30
0.0
210
0.0
220
0.0
230
1.0
  2
SOLID
 70
1
 71
0
 91
1
 92
3
 72
0
 73
1
 93
48
 10
74.3
 20
65.567
 10
74.296
 20
65.501
 10
74.283
 20
65.437
 10
74.262
 20
65.375
 10
74.233
 20
65.317
 10
74.197
 20
65.262
 10
74.154
 20
65.213
 10
74.104
 20
65.17
 10
74.05
 20
65.134
 10
73.991
 20
65.105
 10
73.929
 20
65.084
 10
73.865
 20
65.071
 10
73.8
 20
65.067
 10
73.735
 20
65.071
 10
73.671
 20
65.084
 10
73.609
 20
65.105
 10
73.55
 20
65.134
 10
73.496
 20
65.17
 10
73.446
 20
65.213
 10
73.403
 20
65.262
 10
73.367
 20
65.317
 10
73.338
 20
65.375
 10
73.317
 20
65.437
 10
73.304
 20
65.501
 10
73.3
 20
65.567
 10
73.304
 20
65.632
 10
73.317
 20
65.696
 10
73.338
 20
65.758
 10
73.367
 20
65.817
 10
73.403
 20
65.871
 10
73.446
 20
65.92
 10
73.496
 20
65.963
 10
73.55
 20
66.0
 10
73.609
 20
66.029
 10
73.671
 20
66.05
 10
73.735
 20
66.062
 10
73.8
 20
66.067
 10
73.865
 20
66.062
 10
73.929
 20
66.05
 10
73.991
 20
66.029
 10
74.05
 20
66.0
 10
74.104
 20
65.963
 10
74.154
 20
65.92
 10
74.197
 20
65.871
 10
74.233
 20
65.817
 10
74.262
 20
65.758
 10
74.283
 20
65.696
 10
74.296
 20
65.632
 97
0
 75
0
 76
1
 98
0
  0
HATCH
  5
7B
330
17
100
AcDbEntity
  8
RASTER
 62
7
100
AcDbHatch
 10
0.0
 20
0.0
 30
0.0
210
0.0
220
0.0
230
1.0
  2
SOLID
 70
1
 71
0
 91
1
 92
3
 72
0
 73
1
 93
48
 10
60.7
 20
60.3
 10
60.696
 20
60.235
 10
60.683
 20
60.171
 10
60.662
 20
60.109
 10
60.633
 20
60.05
 10
60.597
 20
59.996
 10
60.554
 20
59.946
 10
60.504
 20
59.903
 10
60.45
 20
59.867
 10
60.391
 20
59.838
 10
60.329
 20
59.817
 10
60.265
 20
59.804
 10
60.2
 20
59.8
 10
60.135
 20
59.804
 10
60.071
 20
59.817
 10
60.009
 20
59.838
 10
59.95
 20
59.867
 10
59.896
 20
59.903
 10
59.846
 20
59.946
 10
59.803
 20
59.996
 10
59.767
 20
60.05
 10
59.738
 20
60.109
 10
59.717
 20
60.171
 10
59.704
 20
60.235
 10
59.7
 20
60.3
 10
59.704
 20
60.365
 10
59.717
 20
60.429
 10
59.738
 20
60.491
 10
59.767
 20
60.55
 10
59.803
 20
60.604
 10
59.846
 20
60.654
 10
59.896
 20
60.697
 10
59.95
 20
60.733
 10
60.009
 20
60.762
 10
60.071
 20
60.783
 10
60.135
 20
60.796
 10
60.2
 20
60.8
 10
60.265
 20
60.796
 10
60.329
 20
60.783
 10
60.391
 20
60.762
 10
60.45
 20
60.733
 10
60.504
 20
60.697
 10
60.554
 20
60.654
 10
60.597
 20
60.604
 10
60.633
 20
60.55
 10
60.662
 20
60.491
 10
60.683
 20
60.429
 10
60.696
 20
60.365
 97
0
 75
0
 76
1
 98
0
  0
HATCH
  5
7C
330
17
100
AcDbEntity
  8
RASTER
 62
7
100
AcDbHatch
 10
0.0
 20
0.0
 30
0.0
210
0.0
220
0.0
230
1.0
  2
SOLID
 70
1
 71
0
 91
1
 92
3
 72
0
 73
1
 93
48
 10
74.3
 20
60.3
 10
74.296
 20
60.235
 10
74.283
 20
60.171
 10
74.262
 20
60.109
 10
74.233
 20
60.05
 10
74.197
 20
59.996
 10
74.154
 20
59.946
 10
74.104
 20
59.903
 10
74.05
 20
59.867
 10
73.991
 20
59.838
 10
73.929
 20
59.817
 10
73.865
 20
59.804
 10
73.8
 20
59.8
 10
73.735
 20
59.804
 10
73.671
 20
59.817
 10
73.609
 20
59.838
 10
73.55
 20
59.867
 10
73.496
 20
59.903
 10
73.446
 20
59.946
 10
73.403
 20
59.996
 10
73.367
 20
60.05
 10
73.338
 20
60.109
 10
73.317
 20
60.171
 10
73.304
 20
60.235
 10
73.3
 20
60.3
 10
73.304
 20
60.365
 10
73.317
 20
60.429
 10
73.338
 20
60.491
 10
73.367
 20
60.55
 10
73.403
 20
60.604
 10
73.446
 20
60.654
 10
73.496
 20
60.697
 10
73.55
 20
60.733
 10
73.609
 20
60.762
 10
73.671
 20
60.783
 10
73.735
 20
60.796
 10
73.8
 20
60.8
 10
73.865
 20
60.796
 10
73.929
 20
60.783
 10
73.991
 20
60.762
 10
74.05
 20
60.733
 10
74.104
 20
60.697
 10
74.154
 20
60.654
 10
74.197
 20
60.604
 10
74.233
 20
60.55
 10
74.262
 20
60.491
 10
74.283
 20
60.429
 10
74.296
 20
60.365
 97
0
 75
0
 76
1
 98
0
  0
HATCH
  5
7D
330
17
100
AcDbEntity
  8
RASTER
 62
7
100
AcDbHatch
 10
0.0
 20
0.0
 30
0.0
210
0.0
220
0.0
230
1.0
  2
SOLID
 70
1
 71
0
 91
1
 92
3
 72
0
 73
1
 93
48
 10
60.7
 20
55.033
 10
60.696
 20
54.968
 10
60.683
 20
54.904
 10
60.662
 20
54.842
 10
60.633
 20
54.783
 10
60.597
 20
54.729
 10
60.554
 20
54.68
 10
60.504
 20
54.637
 10
60.45
 20
54.6
 10
60.391
 20
54.571
 10
60.329
 20
54.55
 10
60.265
 20
54.538
 10
60.2
 20
54.533
 10
60.135
 20
54.538
 10
60.071
 20
54.55
 10
60.009
 20
54.571
 10
59.95
 20
54.6
 10
59.896
 20
54.637
 10
59.846
 20
54.68
 10
59.803
 20
54.729
 10
59.767
 20
54.783
 10
59.738
 20
54.842
 10
59.717
 20
54.904
 10
59.704
 20
54.968
 10
59.7
 20
55.033
 10
59.704
 20
55.099
 10
59.717
 20
55.163
 10
59.738
 20
55.225
 10
59.767
 20
55.283
 10
59.803
 20
55.338
 10
59.846
 20
55.387
 10
59.896
 20
55.43
 10
59.95
 20
55.466
 10
60.009
 20
55.495
 10
60.071
 20
55.516
 10
60.135
 20
55.529
 10
60.2
 20
55.533
 10
60.265
 20
55.529
 10
60.329
 20
55.516
 10
60.391
 20
55.495
 10
60.45
 20
55.466
 10
60.504
 20
55.43
 10
60.554
 20
55.387
 10
60.597
 20
55.338
 10
60.633
 20
55.283
 10
60.662
 20
55.225
 10
60.683
 20
55.163
 10
60.696
 20
55.099
 97
0
 75
0
 76
1
 98
0
  0
HATCH
  5
7E
330
17
100
AcDbEntity
  8
RASTER
 62
7
100
AcDbHatch
 10
0.0
 20
0.0
 30
0.0
210
0.0
220
0.0
230
1.0
  2
SOLID
 70
1
 71
0
 91
1
 92
3
 72
0
 73
1
 93
48
 10
74.3
 20
55.033
 10
74.296
 20
54.968
 10
74.283
 20
54.904
 10
74.262
 20
54.842
 10
74.233
 20
54.783
 10
74.197
 20
54.729
 10
74.154
 20
54.68
 10
74.104
 20
54.637
 10
74.05
 20
54.6
 10
73.991
 20
54.571
 10
73.929
 20
54.55
 10
73.865
 20
54.538
 10
73.8
 20
54.533
 10
73.735
 20
54.538
 10
73.671
 20
54.55
 10
73.609
 20
54.571
 10
73.55
 20
54.6
 10
73.496
 20
54.637
 10
73.446
 20
54.68
 10
73.403
 20
54.729
 10
73.367
 20
54.783
 10
73.338
 20
54.842
 10
73.317
 20
54.904
 10
73.304
 20
54.968
 10
73.3
 20
55.033
 10
73.304
 20
55.099
 10
73.317
 20
55.163
 10
73.338
 20
55.225
 10
73.367
 20
55.283
 10
73.403
 20
55.338
 10
73.446
 20
55.387
 10
73.496
 20
55.43
 10
73.55
 20
55.466
 10
73.609
 20
55.495
 10
73.671
 20
55.516
 10
73.735
 20
55.529
 10
73.8
 20
55.533
 10
73.865
 20
55.529
 10
73.929
 20
55.516
 10
73.991
 20
55.495
 10
74.05
 20
55.466
 10
74.104
 20
55.43
 10
74.154
 20
55.387
 10
74.197
 20
55.338
 10
74.233
 20
55.283
 10
74.262
 20
55.225
 10
74.283
 20
55.163
 10
74.296
 20
55.099
 97
0
 75
0
 76
1
 98
0
  0
LWPOLYLINE
  5
7F
330
17
100
AcDbEntity
  8
CUT
100
AcDbPolyline
 90
20
 70
1
 10
88.56
 20
68.04
 10
113.44
 20
68.04
 10
113.44
 20
62.907
 10
116.04
 20
62.907
 10
116.04
 20
57.693
 10
113.44
 20
57.693
 10
113.44
 20
52.56
 10
108.48
 20
52.56
 10
108.48
 20
49.96
 10
103.44
 20
49.96
 10
103.44
 20
52.56
 10
98.56
 20
52.56
 10
98.56
 20
49.96
 10
93.52
 20
49.96
 10
93.52
 20
52.56
 10
88.56
 20
52.56
 10
88.56
 20
57.693
 10
85.96
 20
57.693
 10
85.96
 20
62.907
 10
88.56
 20
62.907
  0
LWPOLYLINE
  5
80
330
17
100
AcDbEntity
  8
CUT
100
AcDbPolyline
 90
4
 70
1
 10
92.64
 20
63.593
 10
109.36
 20
63.593
 10
109.36
 20
62.273
 10
92.64
 20
62.273
  0
LWPOLYLINE
  5
81
330
17
100
AcDbEntity
  8
CUT
100
AcDbPolyline
 90
4
 70
1
 10
92.64
 20
58.327
 10
109.36
 20
58.327
 10
109.36
 20
57.007
 10
92.64
 20
57.007
  0
HATCH
  5
82
330
17
100
AcDbEntity
  8
RASTER
 62
7
100
AcDbHatch
 10
0.0
 20
0.0
 30
0.0
210
0.0
220
0.0
230
1.0
  2
SOLID
 70
1
 71
0
 91
1
 92
3
 72
0
 73
1
 93
4
 10
89.2
 20
67.6
 10
92.0
 20
67.6
 10
92.0
 20
53.0
 10
89.2
 20
53.0
 97
0
 75
0
 76
1
 98
0
  0
HATCH
  5
83
330
17
100
AcDbEntity
  8
RASTER
 62
7
100
AcDbHatch
 10
0.0
 20
0.0
 30
0.0
210
0.0
220
0.0
230
1.0
  2
SOLID
 70
1
 71
0
 91
1
 92
3
 72
0
 73
1
 93
4
 10
110.0
 20
67.6
 10
112.8
 20
67.6
 10
112.8
 20
53.0
 10
110.0
 20
53.0
 97
0
 75
0
 76
1
 98
0
  0
HATCH
  5
84
330
17
100
AcDbEntity
  8
RASTER
 62
7
100
AcDbHatch
 10
0.0
 20
0.0
 30
0.0
210
0.0
220
0.0
230
1.0
  2
SOLID
 70
1
 71
0
 91
1
 92
3
 72
0
 73
1
 93
48
 10
94.7
 20
65.567
 10
94.696
 20
65.501
 10
94.683
 20
65.437
 10
94.662
 20
65.375
 10
94.633
 20
65.317
 10
94.597
 20
65.262
 10
94.554
 20
65.213
 10
94.504
 20
65.17
 10
94.45
 20
65.134
 10
94.391
 20
65.105
 10
94.329
 20
65.084
 10
94.265
 20
65.071
 10
94.2
 20
65.067
 10
94.135
 20
65.071
 10
94.071
 20
65.084
 10
94.009
 20
65.105
 10
93.95
 20
65.134
 10
93.896
 20
65.17
 10
93.846
 20
65.213
 10
93.803
 20
65.262
 10
93.767
 20
65.317
 10
93.738
 20
65.375
 10
93.717
 20
65.437
 10
93.704
 20
65.501
 10
93.7
 20
65.567
 10
93.704
 20
65.632
 10
93.717
 20
65.696
 10
93.738
 20
65.758
 10
93.767
 20
65.817
 10
93.803
 20
65.871
 10
93.846
 20
65.92
 10
93.896
 20
65.963
 10
93.95
 20
66.0
 10
94.009
 20
66.029
 10
94.071
 20
66.05
 10
94.135
 20
66.062
 10
94.2
 20
66.067
 10
94.265
 20
66.062
 10
94.329
 20
66.05
 10
94.391
 20
66.029
 10
94.45
 20
66.0
 10
94.504
 20
65.963
 10
94.554
 20
65.92
 10
94.597
 20
65.871
 10
94.633
 20
65.817
 10
94.662
 20
65.758
 10
94.683
 20
65.696
 10
94.696
 20
65.632
 97
0
 75
0
 76
1
 98
0
  0
HATCH
  5
85
330
17
100
AcDbEntity
  8
RASTER
 62
7
100
AcDbHatch
 10
0.0
 20
0.0
 30
0.0
210
0.0
220
0.0
230
1.0
  2
SOLID
 70
1
 71
0
 91
1
 92
3
 72
0
 73
1
 93
48
 10
108.3
 20
65.567
 10
108.296
 20
65.501
 10
108.283
 20
65.437
 10
108.262
 20
65.375
 10
108.233
 20
65.317
 10
108.197
 20
65.262
 10
108.154
 20
65.213
 10
108.104
 20
65.17
 10
108.05
 20
65.134
 10
107.991
 20
65.105
 10
107.929
 20
65.084
 10
107.865
 20
65.071
 10
107.8
 20
65.067
 10
107.735
 20
65.071
 10
107.671
 20
65.084
 10
107.609
 20
65.105
 10
107.55
 20
65.134
 10
107.496
 20
65.17
 10
107.446
 20
65.213
 10
107.403
 20
65.262
 10
107.367
 20
65.317
 10
107.338
 20
65.375
 10
107.317
 20
65.437
 10
107.304
 20
65.501
 10
107.3
 20
65.567
 10
107.304
 20
65.632
 10
107.317
 20
65.696
 10
107.338
 20
65.758
 10
107.367
 20
65.817
 10
107.403
 20
65.871
 10
107.446
 20
65.92
 10
107.496
 20
65.963
 10
107.55
 20
66.0
 10
107.609
 20
66.029
 10
107.671
 20
66.05
 10
107.735
 20
66.062
 10
107.8
 20
66.067
 10
107.865
 20
66.062
 10
107.929
 20
66.05
 10
107.991
 20
66.029
 10
108.05
 20
66.0
 10
108.104
 20
65.963
 10
108.154
 20
65.92
 10
108.197
 20
65.871
 10
108.233
 20
65.817
 10
108.262
 20
65.758
 10
108.283
 20
65.696
 10
108.296
 20
65.632
 97
0
 75
0
 76
1
 98
0
  0
HATCH
  5
86
330
17
100
AcDbEntity
  8
RASTER
 62
7
100
AcDbHatch
 10
0.0
 20
0.0
 30
0.0
210
0.0
220
0.0
230
1.0
  2
SOLID
 70
1
 71
0
 91
1
 92
3
 72
0
 73
1
 93
48
 10
94.7
 20
60.3
 10
94.696
 20
60.235
 10
94.683
 20
60.171
 10
94.662
 20
60.109
 10
94.633
 20
60.05
 10
94.597
 20
59.996
 10
94.554
 20
59.946
 10
94.504
 20
59.903
 10
94.45
 20
59.867
 10
94.391
 20
59.838
 10
94.329
 20
59.817
 10
94.265
 20
59.804
 10
94.2
 20
59.8
 10
94.135
 20
59.804
 10
94.071
 20
59.817
 10
94.009
 20
59.838
 10
93.95
 20
59.867
 10
93.896
 20
59.903
 10
93.846
 20
59.946
 10
93.803
 20
59.996
 10
93.767
 20
60.05
 10
93.738
 20
60.109
 10
93.717
 20
60.171
 10
93.704
 20
60.235
 10
93.7
 20
60.3
 10
93.704
 20
60.365
 10
93.717
 20
60.429
 10
93.738
 20
60.491
 10
93.767
 20
60.55
 10
93.803
 20
60.604
 10
93.846
 20
60.654
 10
93.896
 20
60.697
 10
93.95
 20
60.733
 10
94.009
 20
60.762
 10
94.071
 20
60.783
 10
94.135
 20
60.796
 10
94.2
 20
60.8
 10
94.265
 20
60.796
 10
94.329
 20
60.783
 10
94.391
 20
60.762
 10
94.45
 20
60.733
 10
94.504
 20
60.697
 10
94.554
 20
60.654
 10
94.597
 20
60.604
 10
94.633
 20
60.55
 10
94.662
 20
60.491
 10
94.683
 20
60.429
 10
94.696
 20
60.365
 97
0
 75
0
 76
1
 98
0
  0
HATCH
  5
87
330
17
100
AcDbEntity
  8
RASTER
 62
7
100
AcDbHatch
 10
0.0
 20
0.0
 30
0.0
210
0.0
220
0.0
230
1.0
  2
SOLID
 70
1
 71
0
 91
1
 92
3
 72
0
 73
1
 93
48
 10
108.3
 20
60.3
 10
108.296
 20
60.235
 10
108.283
 20
60.171
 10
108.262
 20
60.109
 10
108.233
 20
60.05
 10
108.197
 20
59.996
 10
108.154
 20
59.946
 10
108.104
 20
59.903
 10
108.05
 20
59.867
 10
107.991
 20
59.838
 10
107.929
 20
59.817
 10
107.865
 20
59.804
 10
107.8
 20
59.8
 10
107.735
 20
59.804
 10
107.671
 20
59.817
 10
107.609
 20
59.838
 10
107.55
 20
59.867
 10
107.496
 20
59.903
 10
107.446
 20
59.946
 10
107.403
 20
59.996
 10
107.367
 20
60.05
 10
107.338
 20
60.109
 10
107.317
 20
60.171
 10
107.304
 20
60.235
 10
107.3
 20
60.3
 10
107.304
 20
60.365
 10
107.317
 20
60.429
 10
107.338
 20
60.491
 10
107.367
 20
60.55
 10
107.403
 20
60.604
 10
107.446
 20
60.654
 10
107.496
 20
60.697
 10
107.55
 20
60.733
 10
107.609
 20
60.762
 10
107.671
 20
60.783
 10
107.735
 20
60.796
 10
107.8
 20
60.8
 10
107.865
 20
60.796
 10
107.929
 20
60.783
 10
107.991
 20
60.762
 10
108.05
 20
60.733
 10
108.104
 20
60.697
 10
108.154
 20
60.654
 10
108.197
 20
60.604
 10
108.233
 20
60.55
 10
108.262
 20
60.491
 10
108.283
 20
60.429
 10
108.296
 20
60.365
 97
0
 75
0
 76
1
 98
0
  0
HATCH
  5
88
330
17
100
AcDbEntity
  8
RASTER
 62
7
100
AcDbHatch
 10
0.0
 20
0.0
 30
0.0
210
0.0
220
0.0
230
1.0
  2
SOLID
 70
1
 71
0
 91
1
 92
3
 72
0
 73
1
 93
48
 10
94.7
 20
55.033
 10
94.696
 20
54.968
 10
94.683
 20
54.904
 10
94.662
 20
54.842
 10
94.633
 20
54.783
 10
94.597
 20
54.729
 10
94.554
 20
54.68
 10
94.504
 20
54.637
 10
94.45
 20
54.6
 10
94.391
 20
54.571
 10
94.329
 20
54.55
 10
94.265
 20
54.538
 10
94.2
 20
54.533
 10
94.135
 20
54.538
 10
94.071
 20
54.55
 10
94.009
 20
54.571
 10
93.95
 20
54.6
 10
93.896
 20
54.637
 10
93.846
 20
54.68
 10
93.803
 20
54.729
 10
93.767
 20
54.783
 10
93.738
 20
54.842
 10
93.717
 20
54.904
 10
93.704
 20
54.968
 10
93.7
 20
55.033
 10
93.704
 20
55.099
 10
93.717
 20
55.163
 10
93.738
 20
55.225
 10
93.767
 20
55.283
 10
93.803
 20
55.338
 10
93.846
 20
55.387
 10
93.896
 20
55.43
 10
93.95
 20
55.466
 10
94.009
 20
55.495
 10
94.071
 20
55.516
 10
94.135
 20
55.529
 10
94.2
 20
55.533
 10
94.265
 20
55.529
 10
94.329
 20
55.516
 10
94.391
 20
55.495
 10
94.45
 20
55.466
 10
94.504
 20
55.43
 10
94.554
 20
55.387
 10
94.597
 20
55.338
 10
94.633
 20
55.283
 10
94.662
 20
55.225
 10
94.683
 20
55.163
 10
94.696
 20
55.099
 97
0
 75
0
 76
1
 98
0
  0
HATCH
  5
89
330
17
100
AcDbEntity
  8
RASTER
 62
7
100
AcDbHatch
 10
0.0
 20
0.0
 30
0.0
210
0.0
220
0.0
230
1.0
  2
SOLID
 70
1
 71
0
 91
1
 92
3
 72
0
 73
1
 93
48
 10
108.3
 20
55.033
 10
108.296
 20
54.968
 10
108.283
 20
54.904
 10
108.262
 20
54.842
 10
108.233
 20
54.783
 10
108.197
 20
54.729
 10
108.154
 20
54.68
 10
108.104
 20
54.637
 10
108.05
 20
54.6
 10
107.991
 20
54.571
 10
107.929
 20
54.55
 10
107.865
 20
54.538
 10
107.8
 20
54.533
 10
107.735
 20
54.538
 10
107.671
 20
54.55
 10
107.609
 20
54.571
 10
107.55
 20
54.6
 10
107.496
 20
54.637
 10
107.446
 20
54.68
 10
107.403
 20
54.729
 10
107.367
 20
54.783
 10
107.338
 20
54.842
 10
107.317
 20
54.904
 10
107.304
 20
54.968
 10
107.3
 20
55.033
 10
107.304
 20
55.099
 10
107.317
 20
55.163
 10
107.338
 20
55.225
 10
107.367
 20
55.283
 10
107.403
 20
55.338
 10
107.446
 20
55.387
 10
107.496
 20
55.43
 10
107.55
 20
55.466
 10
107.609
 20
55.495
 10
107.671
 20
55.516
 10
107.735
 20
55.529
 10
107.8
 20
55.533
 10
107.865
 20
55.529
 10
107.929
 20
55.516
 10
107.991
 20
55.495
 10
108.05
 20
55.466
 10
108.104
 20
55.43
 10
108.154
 20
55.387
 10
108.197
 20
55.338
 10
108.233
 20
55.283
 10
108.262
 20
55.225
 10
108.283
 20
55.163
 10
108.296
 20
55.099
 97
0
 75
0
 76
1
 98
0
  0
LWPOLYLINE
  5
8A
330
17
100
AcDbEntity
  8
CUT
100
AcDbPolyline
 90
52
 70
1
 10
119.96
 20
68.04
 10
122.6
 20
68.04
 10
128.183
 20
68.04
 10
128.183
 20
65.44
 10
133.646
 20
65.44
 10
133.646
 20
68.04
 10
139.269
 20
68.04
 10
139.269
 20
65.44
 10
144.731
 20
65.44
 10
144.731
 20
68.04
 10
150.354
 20
68.04
 10
150.354
 20
65.44
 10
155.817
 20
65.44
 10
155.817
 20
68.04
 10
161.4
 20
68.04
 10
164.04
 20
68.04
 10
164.04
 20
65.4
 10
164.04
 20
60.4
 10
161.44
 20
60.4
 10
161.44
 20
55.52
 10
164.04
 20
55.52
 10
164.04
 20
50.48
 10
161.44
 20
50.48
 10
161.44
 20
45.6
 10
164.04
 20
45.6
 10
164.04
 20
40.6
 10
164.04
 20
37.96
 10
161.4
 20
37.96
 10
155.817
 20
37.96
 10
155.817
 20
40.56
 10
150.354
 20
40.56
 10
150.354
 20
37.96
 10
144.731
 20
37.96
 10
144.731
 20
40.56
 10
139.269
 20
40.56
 10
139.269
 20
37.96
 10
133.646
 20
37.96
 10
133.646
 20
40.56
 10
128.183
 20
40.56
 10
128.183
 20
37.96
 10
122.6
 20
37.96
 10
119.96
 20
37.96
 10
119.96
 20
40.6
 10
119.96
 20
45.6
 10
122.56
 20
45.6
 10
122.56
 20
50.48
 10
119.96
 20
50.48
 10
119.96
 20
55.52
 10
122.56
 20
55.52
 10
122.56
 20
60.4
 10
119.96
 20
60.4
 10
119.96
 20
65.4
  0
LWPOLYLINE
  5
8B
330
17
100
AcDbEntity
  8
CUT
100
AcDbPolyline
 90
28
 70
1
 10
170.6
 20
68.04
 10
209.4
 20
68.04
 10
212.04
 20
68.04
 10
212.04
 20
62.827
 10
209.44
 20
62.827
 10
209.44
 20
57.773
 10
212.04
 20
57.773
 10
212.04
 20
52.56
 10
209.4
 20
52.56
 10
203.897
 20
52.56
 10
203.897
 20
49.96
 10
198.274
 20
49.96
 10
198.274
 20
52.56
 10
192.811
 20
52.56
 10
192.811
 20
49.96
 10
187.189
 20
49.96
 10
187.189
 20
52.56
 10
181.726
 20
52.56
 10
181.726
 20
49.96
 10
176.103
 20
49.96
 10
176.103
 20
52.56
 10
170.6
 20
52.56
 10
167.96
 20
52.56
 10
167.96
 20
57.773
 10
170.56
 20
57.773
 10
170.56
 20
62.827
 10
167.96
 20
62.827
 10
167.96
 20
68.04
  0
LWPOLYLINE
  5
8C
330
17
100
AcDbEntity
  8
CUT
100
AcDbPolyline
 90
4
 70
1
 10
174.64
 20
63.593
 10
205.36
 20
63.593
 10
205.36
 20
62.273
 10
174.64
 20
62.273
  0
LWPOLYLINE
  5
8D
330
17
100
AcDbEntity
  8
CUT
100
AcDbPolyline
 90
4
 70
1
 10
174.64
 20
58.327
 10
205.36
 20
58.327
 10
205.36
 20
57.007
 10
174.64
 20
57.007
  0
HATCH
  5
8E
330
17
100
AcDbEntity
  8
RASTER
 62
7
100
AcDbHatch
 10
0.0
 20
0.0
 30
0.0
210
0.0
220
0.0
230
1.0
  2
SOLID
 70
1
 71
0
 91
1
 92
3
 72
0
 73
1
 93
4
 10
171.2
 20
67.6
 10
174.0
 20
67.6
 10
174.0
 20
53.0
 10
171.2
 20
53.0
 97
0
 75
0
 76
1
 98
0
  0
HATCH
  5
8F
330
17
100
AcDbEntity
  8
RASTER
 62
7
100
AcDbHatch
 10
0.0
 20
0.0
 30
0.0
210
0.0
220
0.0
230
1.0
  2
SOLID
 70
1
 71
0
 91
1
 92
3
 72
0
 73
1
 93
4
 10
206.0
 20
67.6
 10
208.8
 20
67.6
 10
208.8
 20
53.0
 10
206.0
 20
53.0
 97
0
 75
0
 76
1
 98
0
  0
HATCH
  5
90
330
17
100
AcDbEntity
  8
RASTER
 62
7
100
AcDbHatch
 10
0.0
 20
0.0
 30
0.0
210
0.0
220
0.0
230
1.0
  2
SOLID
 70
1
 71
0
 91
1
 92
3
 72
0
 73
1
 93
48
 10
176.7
 20
65.567
 10
176.696
 20
65.501
 10
176.683
 20
65.437
 10
176.662
 20
65.375
 10
176.633
 20
65.317
 10
176.597
 20
65.262
 10
176.554
 20
65.213
 10
176.504
 20
65.17
 10
176.45
 20
65.134
 10
176.391
 20
65.105
 10
176.329
 20
65.084
 10
176.265
 20
65.071
 10
176.2
 20
65.067
 10
176.135
 20
65.071
 10
176.071
 20
65.084
 10
176.009
 20
65.105
 10
175.95
 20
65.134
 10
175.896
 20
65.17
 10
175.846
 20
65.213
 10
175.803
 20
65.262
 10
175.767
 20
65.317
 10
175.738
 20
65.375
 10
175.717
 20
65.437
 10
175.704
 20
65.501
 10
175.7
 20
65.567
 10
175.704
 20
65.632
 10
175.717
 20
65.696
 10
175.738
 20
65.758
 10
175.767
 20
65.817
 10
175.803
 20
65.871
 10
175.846
 20
65.92
 10
175.896
 20
65.963
 10
175.95
 20
66.0
 10
176.009
 20
66.029
 10
176.071
 20
66.05
 10
176.135
 20
66.062
 10
176.2
 20
66.067
 10
176.265
 20
66.062
 10
176.329
 20
66.05
 10
176.391
 20
66.029
 10
176.45
 20
66.0
 10
176.504
 20
65.963
 10
176.554
 20
65.92
 10
176.597
 20
65.871
 10
176.633
 20
65.817
 10
176.662
 20
65.758
 10
176.683
 20
65.696
 10
176.696
 20
65.632
 97
0
 75
0
 76
1
 98
0
  0
HATCH
  5
91
330
17
100
AcDbEntity
  8
RASTER
 62
7
100
AcDbHatch
 10
0.0
 20
0.0
 30
0.0
210
0.0
220
0.0
230
1.0
  2
SOLID
 70
1
 71
0
 91
1
 92
3
 72
0
 73
1
 93
48
 10
204.3
 20
65.567
 10
204.296
 20
65.501
 10
204.283
 20
65.437
 10
204.262
 20
65.375
 10
204.233
 20
65.317
 10
204.197
 20
65.262
 10
204.154
 20
65.213
 10
204.104
 20
65.17
 10
204.05
 20
65.134
 10
203.991
 20
65.105
 10
203.929
 20
65.084
 10
203.865
 20
65.071
 10
203.8
 20
65.067
 10
203.735
 20
65.071
 10
203.671
 20
65.084
 10
203.609
 20
65.105
 10
203.55
 20
65.134
 10
203.496
 20
65.17
 10
203.446
 20
65.213
 10
203.403
 20
65.262
 10
203.367
 20
65.317
 10
203.338
 20
65.375
 10
203.317
 20
65.437
 10
203.304
 20
65.501
 10
203.3
 20
65.567
 10
203.304
 20
65.632
 10
203.317
 20
65.696
 10
203.338
 20
65.758
 10
203.367
 20
65.817
 10
203.403
 20
65.871
 10
203.446
 20
65.92
 10
203.496
 20
65.963
 10
203.55
 20
66.0
 10
203.609
 20
66.029
 10
203.671
 20
66.05
 10
203.735
 20
66.062
 10
203.8
 20
66.067
 10
203.865
 20
66.062
 10
203.929
 20
66.05
 10
203.991
 20
66.029
 10
204.05
 20
66.0
 10
204.104
 20
65.963
 10
204.154
 20
65.92
 10
204.197
 20
65.871
 10
204.233
 20
65.817
 10
204.262
 20
65.758
 10
204.283
 20
65.696
 10
204.296
 20
65.632
 97
0
 75
0
 76
1
 98
0
  0
HATCH
  5
92
330
17
100
AcDbEntity
  8
RASTER
 62
7
100
AcDbHatch
 10
0.0
 20
0.0
 30
0.0
210
0.0
220
0.0
230
1.0
  2
SOLID
 70
1
 71
0
 91
1
 92
3
 72
0
 73
1
 93
48
 10
176.7
 20
60.3
 10
176.696
 20
60.235
 10
176.683
 20
60.171
 10
176.662
 20
60.109
 10
176.633
 20
60.05
 10
176.597
 20
59.996
 10
176.554
 20
59.946
 10
176.504
 20
59.903
 10
176.45
 20
59.867
 10
176.391
 20
59.838
 10
176.329
 20
59.817
 10
176.265
 20
59.804
 10
176.2
 20
59.8
 10
176.135
 20
59.804
 10
176.071
 20
59.817
 10
176.009
 20
59.838
 10
175.95
 20
59.867
 10
175.896
 20
59.903
 10
175.846
 20
59.946
 10
175.803
 20
59.996
 10
175.767
 20
60.05
 10
175.738
 20
60.109
 10
175.717
 20
60.171
 10
175.704
 20
60.235
 10
175.7
 20
60.3
 10
175.704
 20
60.365
 10
175.717
 20
60.429
 10
175.738
 20
60.491
 10
175.767
 20
60.55
 10
175.803
 20
60.604
 10
175.846
 20
60.654
 10
175.896
 20
60.697
 10
175.95
 20
60.733
 10
176.009
 20
60.762
 10
176.071
 20
60.783
 10
176.135
 20
60.796
 10
176.2
 20
60.8
 10
176.265
 20
60.796
 10
176.329
 20
60.783
 10
176.391
 20
60.762
 10
176.45
 20
60.733
 10
176.504
 20
60.697
 10
176.554
 20
60.654
 10
176.597
 20
60.604
 10
176.633
 20
60.55
 10
176.662
 20
60.491
 10
176.683
 20
60.429
 10
176.696
 20
60.365
 97
0
 75
0
 76
1
 98
0
  0
HATCH
  5
93
330
17
100
AcDbEntity
  8
RASTER
 62
7
100
AcDbHatch
 10
0.0
 20
0.0
 30
0.0
210
0.0
220
0.0
230
1.0
  2
SOLID
 70
1
 71
0
 91
1
 92
3
 72
0
 73
1
 93
48
 10
204.3
 20
60.3
 10
204.296
 20
60.235
 10
204.283
 20
60.171
 10
204.262
 20
60.109
 10
204.233
 20
60.05
 10
204.197
 20
59.996
 10
204.154
 20
59.946
 10
204.104
 20
59.903
 10
204.05
 20
59.867
 10
203.991
 20
59.838
 10
203.929
 20
59.817
 10
203.865
 20
59.804
 10
203.8
 20
59.8
 10
203.735
 20
59.804
 10
203.671
 20
59.817
 10
203.609
 20
59.838
 10
203.55
 20
59.867
 10
203.496
 20
59.903
 10
203.446
 20
59.946
 10
203.403
 20
59.996
 10
203.367
 20
60.05
 10
203.338
 20
60.109
 10
203.317
 20
60.171
 10
203.304
 20
60.235
 10
203.3
 20
60.3
 10
203.304
 20
60.365
 10
203.317
 20
60.429
 10
203.338
 20
60.491
 10
203.367
 20
60.55
 10
203.403
 20
60.604
 10
203.446
 20
60.654
 10
203.496
 20
60.697
 10
203.55
 20
60.733
 10
203.609
 20
60.762
 10
203.671
 20
60.783
 10
203.735
 20
60.796
 10
203.8
 20
60.8
 10
203.865
 20
60.796
 10
203.929
 20
60.783
 10
203.991
 20
60.762
 10
204.05
 20
60.733
 10
204.104
 20
60.697
 10
204.154
 20
60.654
 10
204.197
 20
60.604
 10
204.233
 20
60.55
 10
204.262
 20
60.491
 10
204.283
 20
60.429
 10
204.296
 20
60.365
 97
0
 75
0
 76
1
 98
0
  0
HATCH
  5
94
330
17
100
AcDbEntity
  8
RASTER
 62
7
100
AcDbHatch
 10
0.0
 20
0.0
 30
0.0
210
0.0
220
0.0
230
1.0
  2
SOLID
 70
1
 71
0
 91
1
 92
3
 72
0
 73
1
 93
48
 10
176.7
 20
55.033
 10
176.696
 20
54.968
 10
176.683
 20
54.904
 10
176.662
 20
54.842
 10
176.633
 20
54.783
 10
176.597
 20
54.729
 10
176.554
 20
54.68
 10
176.504
 20
54.637
 10
176.45
 20
54.6
 10
176.391
 20
54.571
 10
176.329
 20
54.55
 10
176.265
 20
54.538
 10
176.2
 20
54.533
 10
176.135
 20
54.538
 10
176.071
 20
54.55
 10
176.009
 20
54.571
 10
175.95
 20
54.6
 10
175.896
 20
54.637
 10
175.846
 20
54.68
 10
175.803
 20
54.729
 10
175.767
 20
54.783
 10
175.738
 20
54.842
 10
175.717
 20
54.904
 10
175.704
 20
54.968
 10
175.7
 20
55.033
 10
175.704
 20
55.099
 10
175.717
 20
55.163
 10
175.738
 20
55.225
 10
175.767
 20
55.283
 10
175.803
 20
55.338
 10
175.846
 20
55.387
 10
175.896
 20
55.43
 10
175.95
 20
55.466
 10
176.009
 20
55.495
 10
176.071
 20
55.516
 10
176.135
 20
55.529
 10
176.2
 20
55.533
 10
176.265
 20
55.529
 10
176.329
 20
55.516
 10
176.391
 20
55.495
 10
176.45
 20
55.466
 10
176.504
 20
55.43
 10
176.554
 20
55.387
 10
176.597
 20
55.338
 10
176.633
 20
55.283
 10
176.662
 20
55.225
 10
176.683
 20
55.163
 10
176.696
 20
55.099
 97
0
 75
0
 76
1
 98
0
  0
HATCH
  5
95
330
17
100
AcDbEntity
  8
RASTER
 62
7
100
AcDbHatch
 10
0.0
 20
0.0
 30
0.0
210
0.0
220
0.0
230
1.0
  2
SOLID
 70
1
 71
0
 91
1
 92
3
 72
0
 73
1
 93
48
 10
204.3
 20
55.033
 10
204.296
 20
54.968
 10
204.283
 20
54.904
 10
204.262
 20
54.842
 10
204.233
 20
54.783
 10
204.197
 20
54.729
 10
204.154
 20
54.68
 10
204.104
 20
54.637
 10
204.05
 20
54.6
 10
203.991
 20
54.571
 10
203.929
 20
54.55
 10
203.865
 20
54.538
 10
203.8
 20
54.533
 10
203.735
 20
54.538
 10
203.671
 20
54.55
 10
203.609
 20
54.571
 10
203.55
 20
54.6
 10
203.496
 20
54.637
 10
203.446
 20
54.68
 10
203.403
 20
54.729
 10
203.367
 20
54.783
 10
203.338
 20
54.842
 10
203.317
 20
54.904
 10
203.304
 20
54.968
 10
203.3
 20
55.033
 10
203.304
 20
55.099
 10
203.317
 20
55.163
 10
203.338
 20
55.225
 10
203.367
 20
55.283
 10
203.403
 20
55.338
 10
203.446
 20
55.387
 10
203.496
 20
55.43
 10
203.55
 20
55.466
 10
203.609
 20
55.495
 10
203.671
 20
55.516
 10
203.735
 20
55.529
 10
203.8
 20
55.533
 10
203.865
 20
55.529
 10
203.929
 20
55.516
 10
203.991
 20
55.495
 10
204.05
 20
55.466
 10
204.104
 20
55.43
 10
204.154
 20
55.387
 10
204.197
 20
55.338
 10
204.233
 20
55.283
 10
204.262
 20
55.225
 10
204.283
 20
55.163
 10
204.296
 20
55.099
 97
0
 75
0
 76
1
 98
0
  0
LWPOLYLINE
  5
96
330
17
100
AcDbEntity
  8
CUT
100
AcDbPolyline
 90
28
 70
1
 10
218.6
 20
68.04
 10
257.4
 20
68.04
 10
260.04
 20
68.04
 10
260.04
 20
62.827
 10
257.44
 20
62.827
 10
257.44
 20
57.773
 10
260.04
 20
57.773
 10
260.04
 20
52.56
 10
257.4
 20
52.56
 10
251.897
 20
52.56
 10
251.897
 20
49.96
 10
246.274
 20
49.96
 10
246.274
 20
52.56
 10
240.811
 20
52.56
 10
240.811
 20
49.96
 10
235.189
 20
49.96
 10
235.189
 20
52.56
 10
229.726
 20
52.56
 10
229.726
 20
49.96
 10
224.103
 20
49.96
 10
224.103
 20
52.56
 10
218.6
 20
52.56
 10
215.96
 20
52.56
 10
215.96
 20
57.773
 10
218.56
 20
57.773
 10
218.56
 20
62.827
 10
215.96
 20
62.827
 10
215.96
 20
68.04
  0
LWPOLYLINE
  5
97
330
17
100
AcDbEntity
  8
CUT
100
AcDbPolyline
 90
4
 70
1
 10
222.64
 20
63.593
 10
253.36
 20
63.593
 10
253.36
 20
62.273
 10
222.64
 20
62.273
  0
LWPOLYLINE
  5
98
330
17
100
AcDbEntity
  8
CUT
100
AcDbPolyline
 90
4
 70
1
 10
222.64
 20
58.327
 10
253.36
 20
58.327
 10
253.36
 20
57.007
 10
222.64
 20
57.007
  0
HATCH
  5
99
330
17
100
AcDbEntity
  8
RASTER
 62
7
100
AcDbHatch
 10
0.0
 20
0.0
 30
0.0
210
0.0
220
0.0
230
1.0
  2
SOLID
 70
1
 71
0
 91
1
 92
3
 72
0
 73
1
 93
4
 10
219.2
 20
67.6
 10
222.0
 20
67.6
 10
222.0
 20
53.0
 10
219.2
 20
53.0
 97
0
 75
0
 76
1
 98
0
  0
HATCH
  5
9A
330
17
100
AcDbEntity
  8
RASTER
 62
7
100
AcDbHatch
 10
0.0
 20
0.0
 30
0.0
210
0.0
220
0.0
230
1.0
  2
SOLID
 70
1
 71
0
 91
1
 92
3
 72
0
 73
1
 93
4
 10
254.0
 20
67.6
 10
256.8
 20
67.6
 10
256.8
 20
53.0
 10
254.0
 20
53.0
 97
0
 75
0
 76
1
 98
0
  0
HATCH
  5
9B
330
17
100
AcDbEntity
  8
RASTER
 62
7
100
AcDbHatch
 10
0.0
 20
0.0
 30
0.0
210
0.0
220
0.0
230
1.0
  2
SOLID
 70
1
 71
0
 91
1
 92
3
 72
0
 73
1
 93
48
 10
224.7
 20
65.567
 10
224.696
 20
65.501
 10
224.683
 20
65.437
 10
224.662
 20
65.375
 10
224.633
 20
65.317
 10
224.597
 20
65.262
 10
224.554
 20
65.213
 10
224.504
 20
65.17
 10
224.45
 20
65.134
 10
224.391
 20
65.105
 10
224.329
 20
65.084
 10
224.265
 20
65.071
 10
224.2
 20
65.067
 10
224.135
 20
65.071
 10
224.071
 20
65.084
 10
224.009
 20
65.105
 10
223.95
 20
65.134
 10
223.896
 20
65.17
 10
223.846
 20
65.213
 10
223.803
 20
65.262
 10
223.767
 20
65.317
 10
223.738
 20
65.375
 10
223.717
 20
65.437
 10
223.704
 20
65.501
 10
223.7
 20
65.567
 10
223.704
 20
65.632
 10
223.717
 20
65.696
 10
223.738
 20
65.758
 10
223.767
 20
65.817
 10
223.803
 20
65.871
 10
223.846
 20
65.92
 10
223.896
 20
65.963
 10
223.95
 20
66.0
 10
224.009
 20
66.029
 10
224.071
 20
66.05
 10
224.135
 20
66.062
 10
224.2
 20
66.067
 10
224.265
 20
66.062
 10
224.329
 20
66.05
 10
224.391
 20
66.029
 10
224.45
 20
66.0
 10
224.504
 20
65.963
 10
224.554
 20
65.92
 10
224.597
 20
65.871
 10
224.633
 20
65.817
 10
224.662
 20
65.758
 10
224.683
 20
65.696
 10
224.696
 20
65.632
 97
0
 75
0
 76
1
 98
0
  0
HATCH
  5
9C
330
17
100
AcDbEntity
  8
RASTER
 62
7
100
AcDbHatch
 10
0.0
 20
0.0
 30
0.0
210
0.0
220
0.0
230
1.0
  2
SOLID
 70
1
 71
0
 91
1
 92
3
 72
0
 73
1
 93
48
 10
252.3
 20
65.567
 10
252.296
 20
65.501
 10
252.283
 20
65.437
 10
252.262
 20
65.375
 10
252.233
 20
65.317
 10
252.197
 20
65.262
 10
252.154
 20
65.213
 10
252.104
 20
65.17
 10
252.05
 20
65.134
 10
251.991
 20
65.105
 10
251.929
 20
65.084
 10
251.865
 20
65.071
 10
251.8
 20
65.067
 10
251.735
 20
65.071
 10
251.671
 20
65.084
 10
251.609
 20
65.105
 10
251.55
 20
65.134
 10
251.496
 20
65.17
 10
251.446
 20
65.213
 10
251.403
 20
65.262
 10
251.367
 20
65.317
 10
251.338
 20
65.375
 10
251.317
 20
65.437
 10
251.304
 20
65.501
 10
251.3
 20
65.567
 10
251.304
 20
65.632
 10
251.317
 20
65.696
 10
251.338
 20
65.758
 10
251.367
 20
65.817
 10
251.403
 20
65.871
 10
251.446
 20
65.92
 10
251.496
 20
65.963
 10
251.55
 20
66.0
 10
251.609
 20
66.029
 10
251.671
 20
66.05
 10
251.735
 20
66.062
 10
251.8
 20
66.067
 10
251.865
 20
66.062
 10
251.929
 20
66.05
 10
251.991
 20
66.029
 10
252.05
 20
66.0
 10
252.104
 20
65.963
 10
252.154
 20
65.92
 10
252.197
 20
65.871
 10
252.233
 20
65.817
 10
252.262
 20
65.758
 10
252.283
 20
65.696
 10
252.296
 20
65.632
 97
0
 75
0
 76
1
 98
0
  0
HATCH
  5
9D
330
17
100
AcDbEntity
  8
RASTER
 62
7
100
AcDbHatch
 10
0.0
 20
0.0
 30
0.0
210
0.0
220
0.0
230
1.0
  2
SOLID
 70
1
 71
0
 91
1
 92
3
 72
0
 73
1
 93
48
 10
224.7
 20
60.3
 10
224.696
 20
60.235
 10
224.683
 20
60.171
 10
224.662
 20
60.109
 10
224.633
 20
60.05
 10
224.597
 20
59.996
 10
224.554
 20
59.946
 10
224.504
 20
59.903
 10
224.45
 20
59.867
 10
224.391
 20
59.838
 10
224.329
 20
59.817
 10
224.265
 20
59.804
 10
224.2
 20
59.8
 10
224.135
 20
59.804
 10
224.071
 20
59.817
 10
224.009
 20
59.838
 10
223.95
 20
59.867
 10
223.896
 20
59.903
 10
223.846
 20
59.946
 10
223.803
 20
59.996
 10
223.767
 20
60.05
 10
223.738
 20
60.109
 10
223.717
 20
60.171
 10
223.704
 20
60.235
 10
223.7
 20
60.3
 10
223.704
 20
60.365
 10
223.717
 20
60.429
 10
223.738
 20
60.491
 10
223.767
 20
60.55
 10
223.803
 20
60.604
 10
223.846
 20
60.654
 10
223.896
 20
60.697
 10
223.95
 20
60.733
 10
224.009
 20
60.762
 10
224.071
 20
60.783
 10
224.135
 20
60.796
 10
224.2
 20
60.8
 10
224.265
 20
60.796
 10
224.329
 20
60.783
 10
224.391
 20
60.762
 10
224.45
 20
60.733
 10
224.504
 20
60.697
 10
224.554
 20
60.654
 10
224.597
 20
60.604
 10
224.633
 20
60.55
 10
224.662
 20
60.491
 10
224.683
 20
60.429
 10
224.696
 20
60.365
 97
0
 75
0
 76
1
 98
0
  0
HATCH
  5
9E
330
17
100
AcDbEntity
  8
RASTER
 62
7
100
AcDbHatch
 10
0.0
 20
0.0
 30
0.0
210
0.0
220
0.0
230
1.0
  2
SOLID
 70
1
 71
0
 91
1
 92
3
 72
0
 73
1
 93
48
 10
252.3
 20
60.3
 10
252.296
 20
60.235
 10
252.283
 20
60.171
 10
252.262
 20
60.109
 10
252.233
 20
60.05
 10
252.197
 20
59.996
 10
252.154
 20
59.946
 10
252.104
 20
59.903
 10
252.05
 20
59.867
 10
251.991
 20
59.838
 10
251.929
 20
59.817
 10
251.865
 20
59.804
 10
251.8
 20
59.8
 10
251.735
 20
59.804
 10
251.671
 20
59.817
 10
251.609
 20
59.838
 10
251.55
 20
59.867
 10
251.496
 20
59.903
 10
251.446
 20
59.946
 10
251.403
 20
59.996
 10
251.367
 20
60.05
 10
251.338
 20
60.109
 10
251.317
 20
60.171
 10
251.304
 20
60.235
 10
251.3
 20
60.3
 10
251.304
 20
60.365
 10
251.317
 20
60.429
 10
251.338
 20
60.491
 10
251.367
 20
60.55
 10
251.403
 20
60.604
 10
251.446
 20
60.654
 10
251.496
 20
60.697
 10
251.55
 20
60.733
 10
251.609
 20
60.762
 10
251.671
 20
60.783
 10
251.735
 20
60.796
 10
251.8
 20
60.8
 10
251.865
 20
60.796
 10
251.929
 20
60.783
 10
251.991
 20
60.762
 10
252.05
 20
60.733
 10
252.104
 20
60.697
 10
252.154
 20
60.654
 10
252.197
 20
60.604
 10
252.233
 20
60.55
 10
252.262
 20
60.491
 10
252.283
 20
60.429
 10
252.296
 20
60.365
 97
0
 75
0
 76
1
 98
0
  0
HATCH
  5
9F
330
17
100
AcDbEntity
  8
RASTER
 62
7
100
AcDbHatch
 10
0.0
 20
0.0
 30
0.0
210
0.0
220
0.0
230
1.0
  2
SOLID
 70
1
 71
0
 91
1
 92
3
 72
0
 73
1
 93
48
 10
224.7
 20
55.033
 10
224.696
 20
54.968
 10
224.683
 20
54.904
 10
224.662
 20
54.842
 10
224.633
 20
54.783
 10
224.597
 20
54.729
 10
224.554
 20
54.68
 10
224.504
 20
54.637
 10
224.45
 20
54.6
 10
224.391
 20
54.571
 10
224.329
 20
54.55
 10
224.265
 20
54.538
 10
224.2
 20
54.533
 10
224.135
 20
54.538
 10
224.071
 20
54.55
 10
224.009
 20
54.571
 10
223.95
 20
54.6
 10
223.896
 20
54.637
 10
223.846
 20
54.68
 10
223.803
 20
54.729
 10
223.767
 20
54.783
 10
223.738
 20
54.842
 10
223.717
 20
54.904
 10
223.704
 20
54.968
 10
223.7
 20
55.033
 10
223.704
 20
55.099
 10
223.717
 20
55.163
 10
223.738
 20
55.225
 10
223.767
 20
55.283
 10
223.803
 20
55.338
 10
223.846
 20
55.387
 10
223.896
 20
55.43
 10
223.95
 20
55.466
 10
224.009
 20
55.495
 10
224.071
 20
55.516
 10
224.135
 20
55.529
 10
224.2
 20
55.533
 10
224.265
 20
55.529
 10
224.329
 20
55.516
 10
224.391
 20
55.495
 10
224.45
 20
55.466
 10
224.504
 20
55.43
 10
224.554
 20
55.387
 10
224.597
 20
55.338
 10
224.633
 20
55.283
 10
224.662
 20
55.225
 10
224.683
 20
55.163
 10
224.696
 20
55.099
 97
0
 75
0
 76
1
 98
0
  0
HATCH
  5
A0
330
17
100
AcDbEntity
  8
RASTER
 62
7
100
AcDbHatch
 10
0.0
 20
0.0
 30
0.0
210
0.0
220
0.0
230
1.0
  2
SOLID
 70
1
 71
0
 91
1
 92
3
 72
0
 73
1
 93
48
 10
252.3
 20
55.033
 10
252.296
 20
54.968
 10
252.283
 20
54.904
 10
252.262
 20
54.842
 10
252.233
 20
54.783
 10
252.197
 20
54.729
 10
252.154
 20
54.68
 10
252.104
 20
54.637
 10
252.05
 20
54.6
 10
251.991
 20
54.571
 10
251.929
 20
54.55
 10
251.865
 20
54.538
 10
251.8
 20
54.533
 10
251.735
 20
54.538
 10
251.671
 20
54.55
 10
251.609
 20
54.571
 10
251.55
 20
54.6
 10
251.496
 20
54.637
 10
251.446
 20
54.68
 10
251.403
 20
54.729
 10
251.367
 20
54.783
 10
251.338
 20
54.842
 10
251.317
 20
54.904
 10
251.304
 20
54.968
 10
251.3
 20
55.033
 10
251.304
 20
55.099
 10
251.317
 20
55.163
 10
251.338
 20
55.225
 10
251.367
 20
55.283
 10
251.403
 20
55.338
 10
251.446
 20
55.387
 10
251.496
 20
55.43
 10
251.55
 20
55.466
 10
251.609
 20
55.495
 10
251.671
 20
55.516
 10
251.735
 20
55.529
 10
251.8
 20
55.533
 10
251.865
 20
55.529
 10
251.929
 20
55.516
 10
251.991
 20
55.495
 10
252.05
 20
55.466
 10
252.104
 20
55.43
 10
252.154
 20
55.387
 10
252.197
 20
55.338
 10
252.233
 20
55.283
 10
252.262
 20
55.225
 10
252.283
 20
55.163
 10
252.296
 20
55.099
 97
0
 75
0
 76
1
 98
0
  0
LWPOLYLINE
  5
A1
330
17
100
AcDbEntity
  8
CUT
100
AcDbPolyline
 90
20
 70
1
 10
266.56
 20
68.04
 10
291.44
 20
68.04
 10
291.44
 20
62.907
 10
294.04
 20
62.907
 10
294.04
 20
57.693
 10
291.44
 20
57.693
 10
291.44
 20
52.56
 10
286.48
 20
52.56
 10
286.48
 20
49.96
 10
281.44
 20
49.96
 10
281.44
 20
52.56
 10
276.56
 20
52.56
 10
276.56
 20
49.96
 10
271.52
 20
49.96
 10
271.52
 20
52.56
 10
266.56
 20
52.56
 10
266.56
 20
57.693
 10
263.96
 20
57.693
 10
263.96
 20
62.907
 10
266.56
 20
62.907
  0
LWPOLYLINE
  5
A2
330
17
100
AcDbEntity
  8
CUT
100
AcDbPolyline
 90
4
 70
1
 10
270.64
 20
63.593
 10
287.36
 20
63.593
 10
287.36
 20
62.273
 10
270.64
 20
62.273
  0
LWPOLYLINE
  5
A3
330
17
100
AcDbEntity
  8
CUT
100
AcDbPolyline
 90
4
 70
1
 10
270.64
 20
58.327
 10
287.36
 20
58.327
 10
287.36
 20
57.007
 10
270.64
 20
57.007
  0
HATCH
  5
A4
330
17
100
AcDbEntity
  8
RASTER
 62
7
100
AcDbHatch
 10
0.0
 20
0.0
 30
0.0
210
0.0
220
0.0
230
1.0
  2
SOLID
 70
1
 71
0
 91
1
 92
3
 72
0
 73
1
 93
4
 10
267.2
 20
67.6
 10
270.0
 20
67.6
 10
270.0
 20
53.0
 10
267.2
 20
53.0
 97
0
 75
0
 76
1
 98
0
  0
HATCH
  5
A5
330
17
100
AcDbEntity
  8
RASTER
 62
7
100
AcDbHatch
 10
0.0
 20
0.0
 30
0.0
210
0.0
220
0.0
230
1.0
  2
SOLID
 70
1
 71
0
 91
1
 92
3
 72
0
 73
1
 93
4
 10
288.0
 20
67.6
 10
290.8
 20
67.6
 10
290.8
 20
53.0
 10
288.0
 20
53.0
 97
0
 75
0
 76
1
 98
0
  0
HATCH
  5
A6
330
17
100
AcDbEntity
  8
RASTER
 62
7
100
AcDbHatch
 10
0.0
 20
0.0
 30
0.0
210
0.0
220
0.0
230
1.0
  2
SOLID
 70
1
 71
0
 91
1
 92
3
 72
0
 73
1
 93
48
 10
272.7
 20
65.567
 10
272.696
 20
65.501
 10
272.683
 20
65.437
 10
272.662
 20
65.375
 10
272.633
 20
65.317
 10
272.597
 20
65.262
 10
272.554
 20
65.213
 10
272.504
 20
65.17
 10
272.45
 20
65.134
 10
272.391
 20
65.105
 10
272.329
 20
65.084
 10
272.265
 20
65.071
 10
272.2
 20
65.067
 10
272.135
 20
65.071
 10
272.071
 20
65.084
 10
272.009
 20
65.105
 10
271.95
 20
65.134
 10
271.896
 20
65.17
 10
271.846
 20
65.213
 10
271.803
 20
65.262
 10
271.767
 20
65.317
 10
271.738
 20
65.375
 10
271.717
 20
65.437
 10
271.704
 20
65.501
 10
271.7
 20
65.567
 10
271.704
 20
65.632
 10
271.717
 20
65.696
 10
271.738
 20
65.758
 10
271.767
 20
65.817
 10
271.803
 20
65.871
 10
271.846
 20
65.92
 10
271.896
 20
65.963
 10
271.95
 20
66.0
 10
272.009
 20
66.029
 10
272.071
 20
66.05
 10
272.135
 20
66.062
 10
272.2
 20
66.067
 10
272.265
 20
66.062
 10
272.329
 20
66.05
 10
272.391
 20
66.029
 10
272.45
 20
66.0
 10
272.504
 20
65.963
 10
272.554
 20
65.92
 10
272.597
 20
65.871
 10
272.633
 20
65.817
 10
272.662
 20
65.758
 10
272.683
 20
65.696
 10
272.696
 20
65.632
 97
0
 75
0
 76
1
 98
0
  0
HATCH
  5
A7
330
17
100
AcDbEntity
  8
RASTER
 62
7
100
AcDbHatch
 10
0.0
 20
0.0
 30
0.0
210
0.0
220
0.0
230
1.0
  2
SOLID
 70
1
 71
0
 91
1
 92
3
 72
0
 73
1
 93
48
 10
286.3
 20
65.567
 10
286.296
 20
65.501
 10
286.283
 20
65.437
 10
286.262
 20
65.375
 10
286.233
 20
65.317
 10
286.197
 20
65.262
 10
286.154
 20
65.213
 10
286.104
 20
65.17
 10
286.05
 20
65.134
 10
285.991
 20
65.105
 10
285.929
 20
65.084
 10
285.865
 20
65.071
 10
285.8
 20
65.067
 10
285.735
 20
65.071
 10
285.671
 20
65.084
 10
285.609
 20
65.105
 10
285.55
 20
65.134
 10
285.496
 20
65.17
 10
285.446
 20
65.213
 10
285.403
 20
65.262
 10
285.367
 20
65.317
 10
285.338
 20
65.375
 10
285.317
 20
65.437
 10
285.304
 20
65.501
 10
285.3
 20
65.567
 10
285.304
 20
65.632
 10
285.317
 20
65.696
 10
285.338
 20
65.758
 10
285.367
 20
65.817
 10
285.403
 20
65.871
 10
285.446
 20
65.92
 10
285.496
 20
65.963
 10
285.55
 20
66.0
 10
285.609
 20
66.029
 10
285.671
 20
66.05
 10
285.735
 20
66.062
 10
285.8
 20
66.067
 10
285.865
 20
66.062
 10
285.929
 20
66.05
 10
285.991
 20
66.029
 10
286.05
 20
66.0
 10
286.104
 20
65.963
 10
286.154
 20
65.92
 10
286.197
 20
65.871
 10
286.233
 20
65.817
 10
286.262
 20
65.758
 10
286.283
 20
65.696
 10
286.296
 20
65.632
 97
0
 75
0
 76
1
 98
0
  0
HATCH
  5
A8
330
17
100
AcDbEntity
  8
RASTER
 62
7
100
AcDbHatch
 10
0.0
 20
0.0
 30
0.0
210
0.0
220
0.0
230
1.0
  2
SOLID
 70
1
 71
0
 91
1
 92
3
 72
0
 73
1
 93
48
 10
272.7
 20
60.3
 10
272.696
 20
60.235
 10
272.683
 20
60.171
 10
272.662
 20
60.109
 10
272.633
 20
60.05
 10
272.597
 20
59.996
 10
272.554
 20
59.946
 10
272.504
 20
59.903
 10
272.45
 20
59.867
 10
272.391
 20
59.838
 10
272.329
 20
59.817
 10
272.265
 20
59.804
 10
272.2
 20
59.8
 10
272.135
 20
59.804
 10
272.071
 20
59.817
 10
272.009
 20
59.838
 10
271.95
 20
59.867
 10
271.896
 20
59.903
 10
271.846
 20
59.946
 10
271.803
 20
59.996
 10
271.767
 20
60.05
 10
271.738
 20
60.109
 10
271.717
 20
60.171
 10
271.704
 20
60.235
 10
271.7
 20
60.3
 10
271.704
 20
60.365
 10
271.717
 20
60.429
 10
271.738
 20
60.491
 10
271.767
 20
60.55
 10
271.803
 20
60.604
 10
271.846
 20
60.654
 10
271.896
 20
60.697
 10
271.95
 20
60.733
 10
272.009
 20
60.762
 10
272.071
 20
60.783
 10
272.135
 20
60.796
 10
272.2
 20
60.8
 10
272.265
 20
60.796
 10
272.329
 20
60.783
 10
272.391
 20
60.762
 10
272.45
 20
60.733
 10
272.504
 20
60.697
 10
272.554
 20
60.654
 10
272.597
 20
60.604
 10
272.633
 20
60.55
 10
272.662
 20
60.491
 10
272.683
 20
60.429
 10
272.696
 20
60.365
 97
0
 75
0
 76
1
 98
0
  0
HATCH
  5
A9
330
17
100
AcDbEntity
  8
RASTER
 62
7
100
AcDbHatch
 10
0.0
 20
0.0
 30
0.0
210
0.0
220
0.0
230
1.0
  2
SOLID
 70
1
 71
0
 91
1
 92
3
 72
0
 73
1
 93
48
 10
286.3
 20
60.3
 10
286.296
 20
60.235
 10
286.283
 20
60.171
 10
286.262
 20
60.109
 10
286.233
 20
60.05
 10
286.197
 20
59.996
 10
286.154
 20
59.946
 10
286.104
 20
59.903
 10
286.05
 20
59.867
 10
285.991
 20
59.838
 10
285.929
 20
59.817
 10
285.865
 20
59.804
 10
285.8
 20
59.8
 10
285.735
 20
59.804
 10
285.671
 20
59.817
 10
285.609
 20
59.838
 10
285.55
 20
59.867
 10
285.496
 20
59.903
 10
285.446
 20
59.946
 10
285.403
 20
59.996
 10
285.367
 20
60.05
 10
285.338
 20
60.109
 10
285.317
 20
60.171
 10
285.304
 20
60.235
 10
285.3
 20
60.3
 10
285.304
 20
60.365
 10
285.317
 20
60.429
 10
285.338
 20
60.491
 10
285.367
 20
60.55
 10
285.403
 20
60.604
 10
285.446
 20
60.654
 10
285.496
 20
60.697
 10
285.55
 20
60.733
 10
285.609
 20
60.762
 10
285.671
 20
60.783
 10
285.735
 20
60.796
 10
285.8
 20
60.8
 10
285.865
 20
60.796
 10
285.929
 20
60.783
 10
285.991
 20
60.762
 10
286.05
 20
60.733
 10
286.104
 20
60.697
 10
286.154
 20
60.654
 10
286.197
 20
60.604
 10
286.233
 20
60.55
 10
286.262
 20
60.491
 10
286.283
 20
60.429
 10
286.296
 20
60.365
 97
0
 75
0
 76
1
 98
0
  0
HATCH
  5
AA
330
17
100
AcDbEntity
  8
RASTER
 62
7
100
AcDbHatch
 10
0.0
 20
0.0
 30
0.0
210
0.0
220
0.0
230
1.0
  2
SOLID
 70
1
 71
0
 91
1
 92
3
 72
0
 73
1
 93
48
 10
272.7
 20
55.033
 10
272.696
 20
54.968
 10
272.683
 20
54.904
 10
272.662
 20
54.842
 10
272.633
 20
54.783
 10
272.597
 20
54.729
 10
272.554
 20
54.68
 10
272.504
 20
54.637
 10
272.45
 20
54.6
 10
272.391
 20
54.571
 10
272.329
 20
54.55
 10
272.265
 20
54.538
 10
272.2
 20
54.533
 10
272.135
 20
54.538
 10
272.071
 20
54.55
 10
272.009
 20
54.571
 10
271.95
 20
54.6
 10
271.896
 20
54.637
 10
271.846
 20
54.68
 10
271.803
 20
54.729
 10
271.767
 20
54.783
 10
271.738
 20
54.842
 10
271.717
 20
54.904
 10
271.704
 20
54.968
 10
271.7
 20
55.033
 10
271.704
 20
55.099
 10
271.717
 20
55.163
 10
271.738
 20
55.225
 10
271.767
 20
55.283
 10
271.803
 20
55.338
 10
271.846
 20
55.387
 10
271.896
 20
55.43
 10
271.95
 20
55.466
 10
272.009
 20
55.495
 10
272.071
 20
55.516
 10
272.135
 20
55.529
 10
272.2
 20
55.533
 10
272.265
 20
55.529
 10
272.329
 20
55.516
 10
272.391
 20
55.495
 10
272.45
 20
55.466
 10
272.504
 20
55.43
 10
272.554
 20
55.387
 10
272.597
 20
55.338
 10
272.633
 20
55.283
 10
272.662
 20
55.225
 10
272.683
 20
55.163
 10
272.696
 20
55.099
 97
0
 75
0
 76
1
 98
0
  0
HATCH
  5
AB
330
17
100
AcDbEntity
  8
RASTER
 62
7
100
AcDbHatch
 10
0.0
 20
0.0
 30
0.0
210
0.0
220
0.0
230
1.0
  2
SOLID
 70
1
 71
0
 91
1
 92
3
 72
0
 73
1
 93
48
 10
286.3
 20
55.033
 10
286.296
 20
54.968
 10
286.283
 20
54.904
 10
286.262
 20
54.842
 10
286.233
 20
54.783
 10
286.197
 20
54.729
 10
286.154
 20
54.68
 10
286.104
 20
54.637
 10
286.05
 20
54.6
 10
285.991
 20
54.571
 10
285.929
 20
54.55
 10
285.865
 20
54.538
 10
285.8
 20
54.533
 10
285.735
 20
54.538
 10
285.671
 20
54.55
 10
285.609
 20
54.571
 10
285.55
 20
54.6
 10
285.496
 20
54.637
 10
285.446
 20
54.68
 10
285.403
 20
54.729
 10
285.367
 20
54.783
 10
285.338
 20
54.842
 10
285.317
 20
54.904
 10
285.304
 20
54.968
 10
285.3
 20
55.033
 10
285.304
 20
55.099
 10
285.317
 20
55.163
 10
285.338
 20
55.225
 10
285.367
 20
55.283
 10
285.403
 20
55.338
 10
285.446
 20
55.387
 10
285.496
 20
55.43
 10
285.55
 20
55.466
 10
285.609
 20
55.495
 10
285.671
 20
55.516
 10
285.735
 20
55.529
 10
285.8
 20
55.533
 10
285.865
 20
55.529
 10
285.929
 20
55.516
 10
285.991
 20
55.495
 10
286.05
 20
55.466
 10
286.104
 20
55.43
 10
286.154
 20
55.387
 10
286.197
 20
55.338
 10
286.233
 20
55.283
 10
286.262
 20
55.225
 10
286.283
 20
55.163
 10
286.296
 20
55.099
 97
0
 75
0
 76
1
 98
0
  0
LWPOLYLINE
  5
AC
330
17
100
AcDbEntity
  8
CUT
100
AcDbPolyline
 90
20
 70
1
 10
6.56
 20
34.04
 10
31.44
 20
34.04
 10
31.44
 20
28.907
 10
34.04
 20
28.907
 10
34.04
 20
23.693
 10
31.44
 20
23.693
 10
31.44
 20
18.56
 10
26.48
 20
18.56
 10
26.48
 20
15.96
 10
21.44
 20
15.96
 10
21.44
 20
18.56
 10
16.56
 20
18.56
 10
16.56
 20
15.96
 10
11.52
 20
15.96
 10
11.52
 20
18.56
 10
6.56
 20
18.56
 10
6.56
 20
23.693
 10
3.96
 20
23.693
 10
3.96
 20
28.907
 10
6.56
 20
28.907
  0
LWPOLYLINE
  5
AD
330
17
100
AcDbEntity
  8
CUT
100
AcDbPolyline
 90
4
 70
1
 10
10.64
 20
29.593
 10
27.36
 20
29.593
 10
27.36
 20
28.273
 10
10.64
 20
28.273
  0
LWPOLYLINE
  5
AE
330
17
100
AcDbEntity
  8
CUT
100
AcDbPolyline
 90
4
 70
1
 10
10.64
 20
24.327
 10
27.36
 20
24.327
 10
27.36
 20
23.007
 10
10.64
 20
23.007
  0
HATCH
  5
AF
330
17
100
AcDbEntity
  8
RASTER
 62
7
100
AcDbHatch
 10
0.0
 20
0.0
 30
0.0
210
0.0
220
0.0
230
1.0
  2
SOLID
 70
1
 71
0
 91
1
 92
3
 72
0
 73
1
 93
4
 10
7.2
 20
33.6
 10
10.0
 20
33.6
 10
10.0
 20
19.0
 10
7.2
 20
19.0
 97
0
 75
0
 76
1
 98
0
  0
HATCH
  5
B0
330
17
100
AcDbEntity
  8
RASTER
 62
7
100
AcDbHatch
 10
0.0
 20
0.0
 30
0.0
210
0.0
220
0.0
230
1.0
  2
SOLID
 70
1
 71
0
 91
1
 92
3
 72
0
 73
1
 93
4
 10
28.0
 20
33.6
 10
30.8
 20
33.6
 10
30.8
 20
19.0
 10
28.0
 20
19.0
 97
0
 75
0
 76
1
 98
0
  0
HATCH
  5
B1
330
17
100
AcDbEntity
  8
RASTER
 62
7
100
AcDbHatch
 10
0.0
 20
0.0
 30
0.0
210
0.0
220
0.0
230
1.0
  2
SOLID
 70
1
 71
0
 91
1
 92
3
 72
0
 73
1
 93
48
 10
12.7
 20
31.567
 10
12.696
 20
31.501
 10
12.683
 20
31.437
 10
12.662
 20
31.375
 10
12.633
 20
31.317
 10
12.597
 20
31.262
 10
12.554
 20
31.213
 10
12.504
 20
31.17
 10
12.45
 20
31.134
 10
12.391
 20
31.105
 10
12.329
 20
31.084
 10
12.265
 20
31.071
 10
12.2
 20
31.067
 10
12.135
 20
31.071
 10
12.071
 20
31.084
 10
12.009
 20
31.105
 10
11.95
 20
31.134
 10
11.896
 20
31.17
 10
11.846
 20
31.213
 10
11.803
 20
31.262
 10
11.767
 20
31.317
 10
11.738
 20
31.375
 10
11.717
 20
31.437
 10
11.704
 20
31.501
 10
11.7
 20
31.567
 10
11.704
 20
31.632
 10
11.717
 20
31.696
 10
11.738
 20
31.758
 10
11.767
 20
31.817
 10
11.803
 20
31.871
 10
11.846
 20
31.92
 10
11.896
 20
31.963
 10
11.95
 20
32.0
 10
12.009
 20
32.029
 10
12.071
 20
32.05
 10
12.135
 20
32.062
 10
12.2
 20
32.067
 10
12.265
 20
32.062
 10
12.329
 20
32.05
 10
12.391
 20
32.029
 10
12.45
 20
32.0
 10
12.504
 20
31.963
 10
12.554
 20
31.92
 10
12.597
 20
31.871
 10
12.633
 20
31.817
 10
12.662
 20
31.758
 10
12.683
 20
31.696
 10
12.696
 20
31.632
 97
0
 75
0
 76
1
 98
0
  0
HATCH
  5
B2
330
17
100
AcDbEntity
  8
RASTER
 62
7
100
AcDbHatch
 10
0.0
 20
0.0
 30
0.0
210
0.0
220
0.0
230
1.0
  2
SOLID
 70
1
 71
0
 91
1
 92
3
 72
0
 73
1
 93
48
 10
26.3
 20
31.567
 10
26.296
 20
31.501
 10
26.283
 20
31.437
 10
26.262
 20
31.375
 10
26.233
 20
31.317
 10
26.197
 20
31.262
 10
26.154
 20
31.213
 10
26.104
 20
31.17
 10
26.05
 20
31.134
 10
25.991
 20
31.105
 10
25.929
 20
31.084
 10
25.865
 20
31.071
 10
25.8
 20
31.067
 10
25.735
 20
31.071
 10
25.671
 20
31.084
 10
25.609
 20
31.105
 10
25.55
 20
31.134
 10
25.496
 20
31.17
 10
25.446
 20
31.213
 10
25.403
 20
31.262
 10
25.367
 20
31.317
 10
25.338
 20
31.375
 10
25.317
 20
31.437
 10
25.304
 20
31.501
 10
25.3
 20
31.567
 10
25.304
 20
31.632
 10
25.317
 20
31.696
 10
25.338
 20
31.758
 10
25.367
 20
31.817
 10
25.403
 20
31.871
 10
25.446
 20
31.92
 10
25.496
 20
31.963
 10
25.55
 20
32.0
 10
25.609
 20
32.029
 10
25.671
 20
32.05
 10
25.735
 20
32.062
 10
25.8
 20
32.067
 10
25.865
 20
32.062
 10
25.929
 20
32.05
 10
25.991
 20
32.029
 10
26.05
 20
32.0
 10
26.104
 20
31.963
 10
26.154
 20
31.92
 10
26.197
 20
31.871
 10
26.233
 20
31.817
 10
26.262
 20
31.758
 10
26.283
 20
31.696
 10
26.296
 20
31.632
 97
0
 75
0
 76
1
 98
0
  0
HATCH
  5
B3
330
17
100
AcDbEntity
  8
RASTER
 62
7
100
AcDbHatch
 10
0.0
 20
0.0
 30
0.0
210
0.0
220
0.0
230
1.0
  2
SOLID
 70
1
 71
0
 91
1
 92
3
 72
0
 73
1
 93
48
 10
12.7
 20
26.3
 10
12.696
 20
26.235
 10
12.683
 20
26.171
 10
12.662
 20
26.109
 10
12.633
 20
26.05
 10
12.597
 20
25.996
 10
12.554
 20
25.946
 10
12.504
 20
25.903
 10
12.45
 20
25.867
 10
12.391
 20
25.838
 10
12.329
 20
25.817
 10
12.265
 20
25.804
 10
12.2
 20
25.8
 10
12.135
 20
25.804
 10
12.071
 20
25.817
 10
12.009
 20
25.838
 10
11.95
 20
25.867
 10
11.896
 20
25.903
 10
11.846
 20
25.946
 10
11.803
 20
25.996
 10
11.767
 20
26.05
 10
11.738
 20
26.109
 10
11.717
 20
26.171
 10
11.704
 20
26.235
 10
11.7
 20
26.3
 10
11.704
 20
26.365
 10
11.717
 20
26.429
 10
11.738
 20
26.491
 10
11.767
 20
26.55
 10
11.803
 20
26.604
 10
11.846
 20
26.654
 10
11.896
 20
26.697
 10
11.95
 20
26.733
 10
12.009
 20
26.762
 10
12.071
 20
26.783
 10
12.135
 20
26.796
 10
12.2
 20
26.8
 10
12.265
 20
26.796
 10
12.329
 20
26.783
 10
12.391
 20
26.762
 10
12.45
 20
26.733
 10
12.504
 20
26.697
 10
12.554
 20
26.654
 10
12.597
 20
26.604
 10
12.633
 20
26.55
 10
12.662
 20
26.491
 10
12.683
 20
26.429
 10
12.696
 20
26.365
 97
0
 75
0
 76
1
 98
0
  0
HATCH
  5
B4
330
17
100
AcDbEntity
  8
RASTER
 62
7
100
AcDbHatch
 10
0.0
 20
0.0
 30
0.0
210
0.0
220
0.0
230
1.0
  2
SOLID
 70
1
 71
0
 91
1
 92
3
 72
0
 73
1
 93
48
 10
26.3
 20
26.3
 10
26.296
 20
26.235
 10
26.283
 20
26.171
 10
26.262
 20
26.109
 10
26.233
 20
26.05
 10
26.197
 20
25.996
 10
26.154
 20
25.946
 10
26.104
 20
25.903
 10
26.05
 20
25.867
 10
25.991
 20
25.838
 10
25.929
 20
25.817
 10
25.865
 20
25.804
 10
25.8
 20
25.8
 10
25.735
 20
25.804
 10
25.671
 20
25.817
 10
25.609
 20
25.838
 10
25.55
 20
25.867
 10
25.496
 20
25.903
 10
25.446
 20
25.946
 10
25.403
 20
25.996
 10
25.367
 20
26.05
 10
25.338
 20
26.109
 10
25.317
 20
26.171
 10
25.304
 20
26.235
 10
25.3
 20
26.3
 10
25.304
 20
26.365
 10
25.317
 20
26.429
 10
25.338
 20
26.491
 10
25.367
 20
26.55
 10
25.403
 20
26.604
 10
25.446
 20
26.654
 10
25.496
 20
26.697
 10
25.55
 20
26.733
 10
25.609
 20
26.762
 10
25.671
 20
26.783
 10
25.735
 20
26.796
 10
25.8
 20
26.8
 10
25.865
 20
26.796
 10
25.929
 20
26.783
 10
25.991
 20
26.762
 10
26.05
 20
26.733
 10
26.104
 20
26.697
 10
26.154
 20
26.654
 10
26.197
 20
26.604
 10
26.233
 20
26.55
 10
26.262
 20
26.491
 10
26.283
 20
26.429
 10
26.296
 20
26.365
 97
0
 75
0
 76
1
 98
0
  0
HATCH
  5
B5
330
17
100
AcDbEntity
  8
RASTER
 62
7
100
AcDbHatch
 10
0.0
 20
0.0
 30
0.0
210
0.0
220
0.0
230
1.0
  2
SOLID
 70
1
 71
0
 91
1
 92
3
 72
0
 73
1
 93
48
 10
12.7
 20
21.033
 10
12.696
 20
20.968
 10
12.683
 20
20.904
 10
12.662
 20
20.842
 10
12.633
 20
20.783
 10
12.597
 20
20.729
 10
12.554
 20
20.68
 10
12.504
 20
20.637
 10
12.45
 20
20.6
 10
12.391
 20
20.571
 10
12.329
 20
20.55
 10
12.265
 20
20.538
 10
12.2
 20
20.533
 10
12.135
 20
20.538
 10
12.071
 20
20.55
 10
12.009
 20
20.571
 10
11.95
 20
20.6
 10
11.896
 20
20.637
 10
11.846
 20
20.68
 10
11.803
 20
20.729
 10
11.767
 20
20.783
 10
11.738
 20
20.842
 10
11.717
 20
20.904
 10
11.704
 20
20.968
 10
11.7
 20
21.033
 10
11.704
 20
21.099
 10
11.717
 20
21.163
 10
11.738
 20
21.225
 10
11.767
 20
21.283
 10
11.803
 20
21.338
 10
11.846
 20
21.387
 10
11.896
 20
21.43
 10
11.95
 20
21.466
 10
12.009
 20
21.495
 10
12.071
 20
21.516
 10
12.135
 20
21.529
 10
12.2
 20
21.533
 10
12.265
 20
21.529
 10
12.329
 20
21.516
 10
12.391
 20
21.495
 10
12.45
 20
21.466
 10
12.504
 20
21.43
 10
12.554
 20
21.387
 10
12.597
 20
21.338
 10
12.633
 20
21.283
 10
12.662
 20
21.225
 10
12.683
 20
21.163
 10
12.696
 20
21.099
 97
0
 75
0
 76
1
 98
0
  0
HATCH
  5
B6
330
17
100
AcDbEntity
  8
RASTER
 62
7
100
AcDbHatch
 10
0.0
 20
0.0
 30
0.0
210
0.0
220
0.0
230
1.0
  2
SOLID
 70
1
 71
0
 91
1
 92
3
 72
0
 73
1
 93
48
 10
26.3
 20
21.033
 10
26.296
 20
20.968
 10
26.283
 20
20.904
 10
26.262
 20
20.842
 10
26.233
 20
20.783
 10
26.197
 20
20.729
 10
26.154
 20
20.68
 10
26.104
 20
20.637
 10
26.05
 20
20.6
 10
25.991
 20
20.571
 10
25.929
 20
20.55
 10
25.865
 20
20.538
 10
25.8
 20
20.533
 10
25.735
 20
20.538
 10
25.671
 20
20.55
 10
25.609
 20
20.571
 10
25.55
 20
20.6
 10
25.496
 20
20.637
 10
25.446
 20
20.68
 10
25.403
 20
20.729
 10
25.367
 20
20.783
 10
25.338
 20
20.842
 10
25.317
 20
20.904
 10
25.304
 20
20.968
 10
25.3
 20
21.033
 10
25.304
 20
21.099
 10
25.317
 20
21.163
 10
25.338
 20
21.225
 10
25.367
 20
21.283
 10
25.403
 20
21.338
 10
25.446
 20
21.387
 10
25.496
 20
21.43
 10
25.55
 20
21.466
 10
25.609
 20
21.495
 10
25.671
 20
21.516
 10
25.735
 20
21.529
 10
25.8
 20
21.533
 10
25.865
 20
21.529
 10
25.929
 20
21.516
 10
25.991
 20
21.495
 10
26.05
 20
21.466
 10
26.104
 20
21.43
 10
26.154
 20
21.387
 10
26.197
 20
21.338
 10
26.233
 20
21.283
 10
26.262
 20
21.225
 10
26.283
 20
21.163
 10
26.296
 20
21.099
 97
0
 75
0
 76
1
 98
0
  0
LWPOLYLINE
  5
B7
330
17
100
AcDbEntity
  8
CUT
100
AcDbPolyline
 90
52
 70
1
 10
37.96
 20
34.04
 10
40.6
 20
34.04
 10
46.183
 20
34.04
 10
46.183
 20
31.44
 10
51.646
 20
31.44
 10
51.646
 20
34.04
 10
57.269
 20
34.04
 10
57.269
 20
31.44
 10
62.731
 20
31.44
 10
62.731
 20
34.04
 10
68.354
 20
34.04
 10
68.354
 20
31.44
 10
73.817
 20
31.44
 10
73.817
 20
34.04
 10
79.4
 20
34.04
 10
82.04
 20
34.04
 10
82.04
 20
31.4
 10
82.04
 20
26.4
 10
79.44
 20
26.4
 10
79.44
 20
21.52
 10
82.04
 20
21.52
 10
82.04
 20
16.48
 10
79.44
 20
16.48
 10
79.44
 20
11.6
 10
82.04
 20
11.6
 10
82.04
 20
6.6
 10
82.04
 20
3.96
 10
79.4
 20
3.96
 10
73.817
 20
3.96
 10
73.817
 20
6.56
 10
68.354
 20
6.56
 10
68.354
 20
3.96
 10
62.731
 20
3.96
 10
62.731
 20
6.56
 10
57.269
 20
6.56
 10
57.269
 20
3.96
 10
51.646
 20
3.96
 10
51.646
 20
6.56
 10
46.183
 20
6.56
 10
46.183
 20
3.96
 10
40.6
 20
3.96
 10
37.96
 20
3.96
 10
37.96
 20
6.6
 10
37.96
 20
11.6
 10
40.56
 20
11.6
 10
40.56
 20
16.48
 10
37.96
 20
16.48
 10
37.96
 20
21.52
 10
40.56
 20
21.52
 10
40.56
 20
26.4
 10
37.96
 20
26.4
 10
37.96
 20
31.4
  0
LWPOLYLINE
  5
B8
330
17
100
AcDbEntity
  8
CUT
100
AcDbPolyline
 90
28
 70
1
 10
88.6
 20
34.04
 10
127.4
 20
34.04
 10
130.04
 20
34.04
 10
130.04
 20
28.827
 10
127.44
 20
28.827
 10
127.44
 20
23.773
 10
130.04
 20
23.773
 10
130.04
 20
18.56
 10
127.4
 20
18.56
 10
121.897
 20
18.56
 10
121.897
 20
15.96
 10
116.274
 20
15.96
 10
116.274
 20
18.56
 10
110.811
 20
18.56
 10
110.811
 20
15.96
 10
105.189
 20
15.96
 10
105.189
 20
18.56
 10
99.726
 20
18.56
 10
99.726
 20
15.96
 10
94.103
 20
15.96
 10
94.103
 20
18.56
 10
88.6
 20
18.56
 10
85.96
 20
18.56
 10
85.96
 20
23.773
 10
88.56
 20
23.773
 10
88.56
 20
28.827
 10
85.96
 20
28.827
 10
85.96
 20
34.04
  0
LWPOLYLINE
  5
B9
330
17
100
AcDbEntity
  8
CUT
100
AcDbPolyline
 90
4
 70
1
 10
92.64
 20
29.593
 10
123.36
 20
29.593
 10
123.36
 20
28.273
 10
92.64
 20
28.273
  0
LWPOLYLINE
  5
BA
330
17
100
AcDbEntity
  8
CUT
100
AcDbPolyline
 90
4
 70
1
 10
92.64
 20
24.327
 10
123.36
 20
24.327
 10
123.36
 20
23.007
 10
92.64
 20
23.007
  0
HATCH
  5
BB
330
17
100
AcDbEntity
  8
RASTER
 62
7
100
AcDbHatch
 10
0.0
 20
0.0
 30
0.0
210
0.0
220
0.0
230
1.0
  2
SOLID
 70
1
 71
0
 91
1
 92
3
 72
0
 73
1
 93
4
 10
89.2
 20
33.6
 10
92.0
 20
33.6
 10
92.0
 20
19.0
 10
89.2
 20
19.0
 97
0
 75
0
 76
1
 98
0
  0
HATCH
  5
BC
330
17
100
AcDbEntity
  8
RASTER
 62
7
100
AcDbHatch
 10
0.0
 20
0.0
 30
0.0
210
0.0
220
0.0
230
1.0
  2
SOLID
 70
1
 71
0
 91
1
 92
3
 72
0
 73
1
 93
4
 10
124.0
 20
33.6
 10
126.8
 20
33.6
 10
126.8
 20
19.0
 10
124.0
 20
19.0
 97
0
 75
0
 76
1
 98
0
  0
HATCH
  5
BD
330
17
100
AcDbEntity
  8
RASTER
 62
7
100
AcDbHatch
 10
0.0
 20
0.0
 30
0.0
210
0.0
220
0.0
230
1.0
  2
SOLID
 70
1
 71
0
 91
1
 92
3
 72
0
 73
1
 93
48
 10
94.7
 20
31.567
 10
94.696
 20
31.501
 10
94.683
 20
31.437
 10
94.662
 20
31.375
 10
94.633
 20
31.317
 10
94.597
 20
31.262
 10
94.554
 20
31.213
 10
94.504
 20
31.17
 10
94.45
 20
31.134
 10
94.391
 20
31.105
 10
94.329
 20
31.084
 10
94.265
 20
31.071
 10
94.2
 20
31.067
 10
94.135
 20
31.071
 10
94.071
 20
31.084
 10
94.009
 20
31.105
 10
93.95
 20
31.134
 10
93.896
 20
31.17
 10
93.846
 20
31.213
 10
93.803
 20
31.262
 10
93.767
 20
31.317
 10
93.738
 20
31.375
 10
93.717
 20
31.437
 10
93.704
 20
31.501
 10
93.7
 20
31.567
 10
93.704
 20
31.632
 10
93.717
 20
31.696
 10
93.738
 20
31.758
 10
93.767
 20
31.817
 10
93.803
 20
31.871
 10
93.846
 20
31.92
 10
93.896
 20
31.963
 10
93.95
 20
32.0
 10
94.009
 20
32.029
 10
94.071
 20
32.05
 10
94.135
 20
32.062
 10
94.2
 20
32.067
 10
94.265
 20
32.062
 10
94.329
 20
32.05
 10
94.391
 20
32.029
 10
94.45
 20
32.0
 10
94.504
 20
31.963
 10
94.554
 20
31.92
 10
94.597
 20
31.871
 10
94.633
 20
31.817
 10
94.662
 20
31.758
 10
94.683
 20
31.696
 10
94.696
 20
31.632
 97
0
 75
0
 76
1
 98
0
  0
HATCH
  5
BE
330
17
100
AcDbEntity
  8
RASTER
 62
7
100
AcDbHatch
 10
0.0
 20
0.0
 30
0.0
210
0.0
220
0.0
230
1.0
  2
SOLID
 70
1
 71
0
 91
1
 92
3
 72
0
 73
1
 93
48
 10
122.3
 20
31.567
 10
122.296
 20
31.501
 10
122.283
 20
31.437
 10
122.262
 20
31.375
 10
122.233
 20
31.317
 10
122.197
 20
31.262
 10
122.154
 20
31.213
 10
122.104
 20
31.17
 10
122.05
 20
31.134
 10
121.991
 20
31.105
 10
121.929
 20
31.084
 10
121.865
 20
31.071
 10
121.8
 20
31.067
 10
121.735
 20
31.071
 10
121.671
 20
31.084
 10
121.609
 20
31.105
 10
121.55
 20
31.134
 10
121.496
 20
31.17
 10
121.446
 20
31.213
 10
121.403
 20
31.262
 10
121.367
 20
31.317
 10
121.338
 20
31.375
 10
121.317
 20
31.437
 10
121.304
 20
31.501
 10
121.3
 20
31.567
 10
121.304
 20
31.632
 10
121.317
 20
31.696
 10
121.338
 20
31.758
 10
121.367
 20
31.817
 10
121.403
 20
31.871
 10
121.446
 20
31.92
 10
121.496
 20
31.963
 10
121.55
 20
32.0
 10
121.609
 20
32.029
 10
121.671
 20
32.05
 10
121.735
 20
32.062
 10
121.8
 20
32.067
 10
121.865
 20
32.062
 10
121.929
 20
32.05
 10
121.991
 20
32.029
 10
122.05
 20
32.0
 10
122.104
 20
31.963
 10
122.154
 20
31.92
 10
122.197
 20
31.871
 10
122.233
 20
31.817
 10
122.262
 20
31.758
 10
122.283
 20
31.696
 10
122.296
 20
31.632
 97
0
 75
0
 76
1
 98
0
  0
HATCH
  5
BF
330
17
100
AcDbEntity
  8
RASTER
 62
7
100
AcDbHatch
 10
0.0
 20
0.0
 30
0.0
210
0.0
220
0.0
230
1.0
  2
SOLID
 70
1
 71
0
 91
1
 92
3
 72
0
 73
1
 93
48
 10
94.7
 20
26.3
 10
94.696
 20
26.235
 10
94.683
 20
26.171
 10
94.662
 20
26.109
 10
94.633
 20
26.05
 10
94.597
 20
25.996
 10
94.554
 20
25.946
 10
94.504
 20
25.903
 10
94.45
 20
25.867
 10
94.391
 20
25.838
 10
94.329
 20
25.817
 10
94.265
 20
25.804
 10
94.2
 20
25.8
 10
94.135
 20
25.804
 10
94.071
 20
25.817
 10
94.009
 20
25.838
 10
93.95
 20
25.867
 10
93.896
 20
25.903
 10
93.846
 20
25.946
 10
93.803
 20
25.996
 10
93.767
 20
26.05
 10
93.738
 20
26.109
 10
93.717
 20
26.171
 10
93.704
 20
26.235
 10
93.7
 20
26.3
 10
93.704
 20
26.365
 10
93.717
 20
26.429
 10
93.738
 20
26.491
 10
93.767
 20
26.55
 10
93.803
 20
26.604
 10
93.846
 20
26.654
 10
93.896
 20
26.697
 10
93.95
 20
26.733
 10
94.009
 20
26.762
 10
94.071
 20
26.783
 10
94.135
 20
26.796
 10
94.2
 20
26.8
 10
94.265
 20
26.796
 10
94.329
 20
26.783
 10
94.391
 20
26.762
 10
94.45
 20
26.733
 10
94.504
 20
26.697
 10
94.554
 20
26.654
 10
94.597
 20
26.604
 10
94.633
 20
26.55
 10
94.662
 20
26.491
 10
94.683
 20
26.429
 10
94.696
 20
26.365
 97
0
 75
0
 76
1
 98
0
  0
HATCH
  5
C0
330
17
100
AcDbEntity
  8
RASTER
 62
7
100
AcDbHatch
 10
0.0
 20
0.0
 30
0.0
210
0.0
220
0.0
230
1.0
  2
SOLID
 70
1
 71
0
 91
1
 92
3
 72
0
 73
1
 93
48
 10
122.3
 20
26.3
 10
122.296
 20
26.235
 10
122.283
 20
26.171
 10
122.262
 20
26.109
 10
122.233
 20
26.05
 10
122.197
 20
25.996
 10
122.154
 20
25.946
 10
122.104
 20
25.903
 10
122.05
 20
25.867
 10
121.991
 20
25.838
 10
121.929
 20
25.817
 10
121.865
 20
25.804
 10
121.8
 20
25.8
 10
121.735
 20
25.804
 10
121.671
 20
25.817
 10
121.609
 20
25.838
 10
121.55
 20
25.867
 10
121.496
 20
25.903
 10
121.446
 20
25.946
 10
121.403
 20
25.996
 10
121.367
 20
26.05
 10
121.338
 20
26.109
 10
121.317
 20
26.171
 10
121.304
 20
26.235
 10
121.3
 20
26.3
 10
121.304
 20
26.365
 10
121.317
 20
26.429
 10
121.338
 20
26.491
 10
121.367
 20
26.55
 10
121.403
 20
26.604
 10
121.446
 20
26.654
 10
121.496
 20
26.697
 10
121.55
 20
26.733
 10
121.609
 20
26.762
 10
121.671
 20
26.783
 10
121.735
 20
26.796
 10
121.8
 20
26.8
 10
121.865
 20
26.796
 10
121.929
 20
26.783
 10
121.991
 20
26.762
 10
122.05
 20
26.733
 10
122.104
 20
26.697
 10
122.154
 20
26.654
 10
122.197
 20
26.604
 10
122.233
 20
26.55
 10
122.262
 20
26.491
 10
122.283
 20
26.429
 10
122.296
 20
26.365
 97
0
 75
0
 76
1
 98
0
  0
HATCH
  5
C1
330
17
100
AcDbEntity
  8
RASTER
 62
7
100
AcDbHatch
 10
0.0
 20
0.0
 30
0.0
210
0.0
220
0.0
230
1.0
  2
SOLID
 70
1
 71
0
 91
1
 92
3
 72
0
 73
1
 93
48
 10
94.7
 20
21.033
 10
94.696
 20
20.968
 10
94.683
 20
20.904
 10
94.662
 20
20.842
 10
94.633
 20
20.783
 10
94.597
 20
20.729
 10
94.554
 20
20.68
 10
94.504
 20
20.637
 10
94.45
 20
20.6
 10
94.391
 20
20.571
 10
94.329
 20
20.55
 10
94.265
 20
20.538
 10
94.2
 20
20.533
 10
94.135
 20
20.538
 10
94.071
 20
20.55
 10
94.009
 20
20.571
 10
93.95
 20
20.6
 10
93.896
 20
20.637
 10
93.846
 20
20.68
 10
93.803
 20
20.729
 10
93.767
 20
20.783
 10
93.738
 20
20.842
 10
93.717
 20
20.904
 10
93.704
 20
20.968
 10
93.7
 20
21.033
 10
93.704
 20
21.099
 10
93.717
 20
21.163
 10
93.738
 20
21.225
 10
93.767
 20
21.283
 10
93.803
 20
21.338
 10
93.846
 20
21.387
 10
93.896
 20
21.43
 10
93.95
 20
21.466
 10
94.009
 20
21.495
 10
94.071
 20
21.516
 10
94.135
 20
21.529
 10
94.2
 20
21.533
 10
94.265
 20
21.529
 10
94.329
 20
21.516
 10
94.391
 20
21.495
 10
94.45
 20
21.466
 10
94.504
 20
21.43
 10
94.554
 20
21.387
 10
94.597
 20
21.338
 10
94.633
 20
21.283
 10
94.662
 20
21.225
 10
94.683
 20
21.163
 10
94.696
 20
21.099
 97
0
 75
0
 76
1
 98
0
  0
HATCH
  5
C2
330
17
100
AcDbEntity
  8
RASTER
 62
7
100
AcDbHatch
 10
0.0
 20
0.0
 30
0.0
210
0.0
220
0.0
230
1.0
  2
SOLID
 70
1
 71
0
 91
1
 92
3
 72
0
 73
1
 93
48
 10
122.3
 20
21.033
 10
122.296
 20
20.968
 10
122.283
 20
20.904
 10
122.262
 20
20.842
 10
122.233
 20
20.783
 10
122.197
 20
20.729
 10
122.154
 20
20.68
 10
122.104
 20
20.637
 10
122.05
 20
20.6
 10
121.991
 20
20.571
 10
121.929
 20
20.55
 10
121.865
 20
20.538
 10
121.8
 20
20.533
 10
121.735
 20
20.538
 10
121.671
 20
20.55
 10
121.609
 20
20.571
 10
121.55
 20
20.6
 10
121.496
 20
20.637
 10
121.446
 20
20.68
 10
121.403
 20
20.729
 10
121.367
 20
20.783
 10
121.338
 20
20.842
 10
121.317
 20
20.904
 10
121.304
 20
20.968
 10
121.3
 20
21.033
 10
121.304
 20
21.099
 10
121.317
 20
21.163
 10
121.338
 20
21.225
 10
121.367
 20
21.283
 10
121.403
 20
21.338
 10
121.446
 20
21.387
 10
121.496
 20
21.43
 10
121.55
 20
21.466
 10
121.609
 20
21.495
 10
121.671
 20
21.516
 10
121.735
 20
21.529
 10
121.8
 20
21.533
 10
121.865
 20
21.529
 10
121.929
 20
21.516
 10
121.991
 20
21.495
 10
122.05
 20
21.466
 10
122.104
 20
21.43
 10
122.154
 20
21.387
 10
122.197
 20
21.338
 10
122.233
 20
21.283
 10
122.262
 20
21.225
 10
122.283
 20
21.163
 10
122.296
 20
21.099
 97
0
 75
0
 76
1
 98
0
  0
LWPOLYLINE
  5
C3
330
17
100
AcDbEntity
  8
CUT
100
AcDbPolyline
 90
28
 70
1
 10
136.6
 20
34.04
 10
175.4
 20
34.04
 10
178.04
 20
34.04
 10
178.04
 20
28.827
 10
175.44
 20
28.827
 10
175.44
 20
23.773
 10
178.04
 20
23.773
 10
178.04
 20
18.56
 10
175.4
 20
18.56
 10
169.897
 20
18.56
 10
169.897
 20
15.96
 10
164.274
 20
15.96
 10
164.274
 20
18.56
 10
158.811
 20
18.56
 10
158.811
 20
15.96
 10
153.189
 20
15.96
 10
153.189
 20
18.56
 10
147.726
 20
18.56
 10
147.726
 20
15.96
 10
142.103
 20
15.96
 10
142.103
 20
18.56
 10
136.6
 20
18.56
 10
133.96
 20
18.56
 10
133.96
 20
23.773
 10
136.56
 20
23.773
 10
136.56
 20
28.827
 10
133.96
 20
28.827
 10
133.96
 20
34.04
  0
LWPOLYLINE
  5
C4
330
17
100
AcDbEntity
  8
CUT
100
AcDbPolyline
 90
4
 70
1
 10
140.64
 20
29.593
 10
171.36
 20
29.593
 10
171.36
 20
28.273
 10
140.64
 20
28.273
  0
LWPOLYLINE
  5
C5
330
17
100
AcDbEntity
  8
CUT
100
AcDbPolyline
 90
4
 70
1
 10
140.64
 20
24.327
 10
171.36
 20
24.327
 10
171.36
 20
23.007
 10
140.64
 20
23.007
  0
HATCH
  5
C6
330
17
100
AcDbEntity
  8
RASTER
 62
7
100
AcDbHatch
 10
0.0
 20
0.0
 30
0.0
210
0.0
220
0.0
230
1.0
  2
SOLID
 70
1
 71
0
 91
1
 92
3
 72
0
 73
1
 93
4
 10
137.2
 20
33.6
 10
140.0
 20
33.6
 10
140.0
 20
19.0
 10
137.2
 20
19.0
 97
0
 75
0
 76
1
 98
0
  0
HATCH
  5
C7
330
17
100
AcDbEntity
  8
RASTER
 62
7
100
AcDbHatch
 10
0.0
 20
0.0
 30
0.0
210
0.0
220
0.0
230
1.0
  2
SOLID
 70
1
 71
0
 91
1
 92
3
 72
0
 73
1
 93
4
 10
172.0
 20
33.6
 10
174.8
 20
33.6
 10
174.8
 20
19.0
 10
172.0
 20
19.0
 97
0
 75
0
 76
1
 98
0
  0
HATCH
  5
C8
330
17
100
AcDbEntity
  8
RASTER
 62
7
100
AcDbHatch
 10
0.0
 20
0.0
 30
0.0
210
0.0
220
0.0
230
1.0
  2
SOLID
 70
1
 71
0
 91
1
 92
3
 72
0
 73
1
 93
48
 10
142.7
 20
31.567
 10
142.696
 20
31.501
 10
142.683
 20
31.437
 10
142.662
 20
31.375
 10
142.633
 20
31.317
 10
142.597
 20
31.262
 10
142.554
 20
31.213
 10
142.504
 20
31.17
 10
142.45
 20
31.134
 10
142.391
 20
31.105
 10
142.329
 20
31.084
 10
142.265
 20
31.071
 10
142.2
 20
31.067
 10
142.135
 20
31.071
 10
142.071
 20
31.084
 10
142.009
 20
31.105
 10
141.95
 20
31.134
 10
141.896
 20
31.17
 10
141.846
 20
31.213
 10
141.803
 20
31.262
 10
141.767
 20
31.317
 10
141.738
 20
31.375
 10
141.717
 20
31.437
 10
141.704
 20
31.501
 10
141.7
 20
31.567
 10
141.704
 20
31.632
 10
141.717
 20
31.696
 10
141.738
 20
31.758
 10
141.767
 20
31.817
 10
141.803
 20
31.871
 10
141.846
 20
31.92
 10
141.896
 20
31.963
 10
141.95
 20
32.0
 10
142.009
 20
32.029
 10
142.071
 20
32.05
 10
142.135
 20
32.062
 10
142.2
 20
32.067
 10
142.265
 20
32.062
 10
142.329
 20
32.05
 10
142.391
 20
32.029
 10
142.45
 20
32.0
 10
142.504
 20
31.963
 10
142.554
 20
31.92
 10
142.597
 20
31.871
 10
142.633
 20
31.817
 10
142.662
 20
31.758
 10
142.683
 20
31.696
 10
142.696
 20
31.632
 97
0
 75
0
 76
1
 98
0
  0
HATCH
  5
C9
330
17
100
AcDbEntity
  8
RASTER
 62
7
100
AcDbHatch
 10
0.0
 20
0.0
 30
0.0
210
0.0
220
0.0
230
1.0
  2
SOLID
 70
1
 71
0
 91
1
 92
3
 72
0
 73
1
 93
48
 10
170.3
 20
31.567
 10
170.296
 20
31.501
 10
170.283
 20
31.437
 10
170.262
 20
31.375
 10
170.233
 20
31.317
 10
170.197
 20
31.262
 10
170.154
 20
31.213
 10
170.104
 20
31.17
 10
170.05
 20
31.134
 10
169.991
 20
31.105
 10
169.929
 20
31.084
 10
169.865
 20
31.071
 10
169.8
 20
31.067
 10
169.735
 20
31.071
 10
169.671
 20
31.084
 10
169.609
 20
31.105
 10
169.55
 20
31.134
 10
169.496
 20
31.17
 10
169.446
 20
31.213
 10
169.403
 20
31.262
 10
169.367
 20
31.317
 10
169.338
 20
31.375
 10
169.317
 20
31.437
 10
169.304
 20
31.501
 10
169.3
 20
31.567
 10
169.304
 20
31.632
 10
169.317
 20
31.696
 10
169.338
 20
31.758
 10
169.367
 20
31.817
 10
169.403
 20
31.871
 10
169.446
 20
31.92
 10
169.496
 20
31.963
 10
169.55
 20
32.0
 10
169.609
 20
32.029
 10
169.671
 20
32.05
 10
169.735
 20
32.062
 10
169.8
 20
32.067
 10
169.865
 20
32.062
 10
169.929
 20
32.05
 10
169.991
 20
32.029
 10
170.05
 20
32.0
 10
170.104
 20
31.963
 10
170.154
 20
31.92
 10
170.197
 20
31.871
 10
170.233
 20
31.817
 10
170.262
 20
31.758
 10
170.283
 20
31.696
 10
170.296
 20
31.632
 97
0
 75
0
 76
1
 98
0
  0
HATCH
  5
CA
330
17
100
AcDbEntity
  8
RASTER
 62
7
100
AcDbHatch
 10
0.0
 20
0.0
 30
0.0
210
0.0
220
0.0
230
1.0
  2
SOLID
 70
1
 71
0
 91
1
 92
3
 72
0
 73
1
 93
48
 10
142.7
 20
26.3
 10
142.696
 20
26.235
 10
142.683
 20
26.171
 10
142.662
 20
26.109
 10
142.633
 20
26.05
 10
142.597
 20
25.996
 10
142.554
 20
25.946
 10
142.504
 20
25.903
 10
142.45
 20
25.867
 10
142.391
 20
25.838
 10
142.329
 20
25.817
 10
142.265
 20
25.804
 10
142.2
 20
25.8
 10
142.135
 20
25.804
 10
142.071
 20
25.817
 10
142.009
 20
25.838
 10
141.95
 20
25.867
 10
141.896
 20
25.903
 10
141.846
 20
25.946
 10
141.803
 20
25.996
 10
141.767
 20
26.05
 10
141.738
 20
26.109
 10
141.717
 20
26.171
 10
141.704
 20
26.235
 10
141.7
 20
26.3
 10
141.704
 20
26.365
 10
141.717
 20
26.429
 10
141.738
 20
26.491
 10
141.767
 20
26.55
 10
141.803
 20
26.604
 10
141.846
 20
26.654
 10
141.896
 20
26.697
 10
141.95
 20
26.733
 10
142.009
 20
26.762
 10
142.071
 20
26.783
 10
142.135
 20
26.796
 10
142.2
 20
26.8
 10
142.265
 20
26.796
 10
142.329
 20
26.783
 10
142.391
 20
26.762
 10
142.45
 20
26.733
 10
142.504
 20
26.697
 10
142.554
 20
26.654
 10
142.597
 20
26.604
 10
142.633
 20
26.55
 10
142.662
 20
26.491
 10
142.683
 20
26.429
 10
142.696
 20
26.365
 97
0
 75
0
 76
1
 98
0
  0
HATCH
  5
CB
330
17
100
AcDbEntity
  8
RASTER
 62
7
100
AcDbHatch
 10
0.0
 20
0.0
 30
0.0
210
0.0
220
0.0
230
1.0
  2
SOLID
 70
1
 71
0
 91
1
 92
3
 72
0
 73
1
 93
48
 10
170.3
 20
26.3
 10
170.296
 20
26.235
 10
170.283
 20
26.171
 10
170.262
 20
26.109
 10
170.233
 20
26.05
 10
170.197
 20
25.996
 10
170.154
 20
25.946
 10
170.104
 20
25.903
 10
170.05
 20
25.867
 10
169.991
 20
25.838
 10
169.929
 20
25.817
 10
169.865
 20
25.804
 10
169.8
 20
25.8
 10
169.735
 20
25.804
 10
169.671
 20
25.817
 10
169.609
 20
25.838
 10
169.55
 20
25.867
 10
169.496
 20
25.903
 10
169.446
 20
25.946
 10
169.403
 20
25.996
 10
169.367
 20
26.05
 10
169.338
 20
26.109
 10
169.317
 20
26.171
 10
169.304
 20
26.235
 10
169.3
 20
26.3
 10
169.304
 20
26.365
 10
169.317
 20
26.429
 10
169.338
 20
26.491
 10
169.367
 20
26.55
 10
169.403
 20
26.604
 10
169.446
 20
26.654
 10
169.496
 20
26.697
 10
169.55
 20
26.733
 10
169.609
 20
26.762
 10
169.671
 20
26.783
 10
169.735
 20
26.796
 10
169.8
 20
26.8
 10
169.865
 20
26.796
 10
169.929
 20
26.783
 10
169.991
 20
26.762
 10
170.05
 20
26.733
 10
170.104
 20
26.697
 10
170.154
 20
26.654
 10
170.197
 20
26.604
 10
170.233
 20
26.55
 10
170.262
 20
26.491
 10
170.283
 20
26.429
 10
170.296
 20
26.365
 97
0
 75
0
 76
1
 98
0
  0
HATCH
  5
CC
330
17
100
AcDbEntity
  8
RASTER
 62
7
100
AcDbHatch
 10
0.0
 20
0.0
 30
0.0
210
0.0
220
0.0
230
1.0
  2
SOLID
 70
1
 71
0
 91
1
 92
3
 72
0
 73
1
 93
48
 10
142.7
 20
21.033
 10
142.696
 20
20.968
 10
142.683
 20
20.904
 10
142.662
 20
20.842
 10
142.633
 20
20.783
 10
142.597
 20
20.729
 10
142.554
 20
20.68
 10
142.504
 20
20.637
 10
142.45
 20
20.6
 10
142.391
 20
20.571
 10
142.329
 20
20.55
 10
142.265
 20
20.538
 10
142.2
 20
20.533
 10
142.135
 20
20.538
 10
142.071
 20
20.55
 10
142.009
 20
20.571
 10
141.95
 20
20.6
 10
141.896
 20
20.637
 10
141.846
 20
20.68
 10
141.803
 20
20.729
 10
141.767
 20
20.783
 10
141.738
 20
20.842
 10
141.717
 20
20.904
 10
141.704
 20
20.968
 10
141.7
 20
21.033
 10
141.704
 20
21.099
 10
141.717
 20
21.163
 10
141.738
 20
21.225
 10
141.767
 20
21.283
 10
141.803
 20
21.338
 10
141.846
 20
21.387
 10
141.896
 20
21.43
 10
141.95
 20
21.466
 10
142.009
 20
21.495
 10
142.071
 20
21.516
 10
142.135
 20
21.529
 10
142.2
 20
21.533
 10
142.265
 20
21.529
 10
142.329
 20
21.516
 10
142.391
 20
21.495
 10
142.45
 20
21.466
 10
142.504
 20
21.43
 10
142.554
 20
21.387
 10
142.597
 20
21.338
 10
142.633
 20
21.283
 10
142.662
 20
21.225
 10
142.683
 20
21.163
 10
142.696
 20
21.099
 97
0
 75
0
 76
1
 98
0
  0
HATCH
  5
CD
330
17
100
AcDbEntity
  8
RASTER
 62
7
100
AcDbHatch
 10
0.0
 20
0.0
 30
0.0
210
0.0
220
0.0
230
1.0
  2
SOLID
 70
1
 71
0
 91
1
 92
3
 72
0
 73
1
 93
48
 10
170.3
 20
21.033
 10
170.296
 20
20.968
 10
170.283
 20
20.904
 10
170.262
 20
20.842
 10
170.233
 20
20.783
 10
170.197
 20
20.729
 10
170.154
 20
20.68
 10
170.104
 20
20.637
 10
170.05
 20
20.6
 10
169.991
 20
20.571
 10
169.929
 20
20.55
 10
169.865
 20
20.538
 10
169.8
 20
20.533
 10
169.735
 20
20.538
 10
169.671
 20
20.55
 10
169.609
 20
20.571
 10
169.55
 20
20.6
 10
169.496
 20
20.637
 10
169.446
 20
20.68
 10
169.403
 20
20.729
 10
169.367
 20
20.783
 10
169.338
 20
20.842
 10
169.317
 20
20.904
 10
169.304
 20
20.968
 10
169.3
 20
21.033
 10
169.304
 20
21.099
 10
169.317
 20
21.163
 10
169.338
 20
21.225
 10
169.367
 20
21.283
 10
169.403
 20
21.338
 10
169.446
 20
21.387
 10
169.496
 20
21.43
 10
169.55
 20
21.466
 10
169.609
 20
21.495
 10
169.671
 20
21.516
 10
169.735
 20
21.529
 10
169.8
 20
21.533
 10
169.865
 20
21.529
 10
169.929
 20
21.516
 10
169.991
 20
21.495
 10
170.05
 20
21.466
 10
170.104
 20
21.43
 10
170.154
 20
21.387
 10
170.197
 20
21.338
 10
170.233
 20
21.283
 10
170.262
 20
21.225
 10
170.283
 20
21.163
 10
170.296
 20
21.099
 97
0
 75
0
 76
1
 98
0
  0
LWPOLYLINE
  5
CE
330
17
100
AcDbEntity
  8
CUT
100
AcDbPolyline
 90
20
 70
1
 10
184.56
 20
34.04
 10
209.44
 20
34.04
 10
209.44
 20
28.907
 10
212.04
 20
28.907
 10
212.04
 20
23.693
 10
209.44
 20
23.693
 10
209.44
 20
18.56
 10
204.48
 20
18.56
 10
204.48
 20
15.96
 10
199.44
 20
15.96
 10
199.44
 20
18.56
 10
194.56
 20
18.56
 10
194.56
 20
15.96
 10
189.52
 20
15.96
 10
189.52
 20
18.56
 10
184.56
 20
18.56
 10
184.56
 20
23.693
 10
181.96
 20
23.693
 10
181.96
 20
28.907
 10
184.56
 20
28.907
  0
LWPOLYLINE
  5
CF
330
17
100
AcDbEntity
  8
CUT
100
AcDbPolyline
 90
4
 70
1
 10
188.64
 20
29.593
 10
205.36
 20
29.593
 10
205.36
 20
28.273
 10
188.64
 20
28.273
  0
LWPOLYLINE
  5
D0
330
17
100
AcDbEntity
  8
CUT
100
AcDbPolyline
 90
4
 70
1
 10
188.64
 20
24.327
 10
205.36
 20
24.327
 10
205.36
 20
23.007
 10
188.64
 20
23.007
  0
HATCH
  5
D1
330
17
100
AcDbEntity
  8
RASTER
 62
7
100
AcDbHatch
 10
0.0
 20
0.0
 30
0.0
210
0.0
220
0.0
230
1.0
  2
SOLID
 70
1
 71
0
 91
1
 92
3
 72
0
 73
1
 93
4
 10
185.2
 20
33.6
 10
188.0
 20
33.6
 10
188.0
 20
19.0
 10
185.2
 20
19.0
 97
0
 75
0
 76
1
 98
0
  0
HATCH
  5
D2
330
17
100
AcDbEntity
  8
RASTER
 62
7
100
AcDbHatch
 10
0.0
 20
0.0
 30
0.0
210
0.0
220
0.0
230
1.0
  2
SOLID
 70
1
 71
0
 91
1
 92
3
 72
0
 73
1
 93
4
 10
206.0
 20
33.6
 10
208.8
 20
33.6
 10
208.8
 20
19.0
 10
206.0
 20
19.0
 97
0
 75
0
 76
1
 98
0
  0
HATCH
  5
D3
330
17
100
AcDbEntity
  8
RASTER
 62
7
100
AcDbHatch
 10
0.0
 20
0.0
 30
0.0
210
0.0
220
0.0
230
1.0
  2
SOLID
 70
1
 71
0
 91
1
 92
3
 72
0
 73
1
 93
48
 10
190.7
 20
31.567
 10
190.696
 20
31.501
 10
190.683
 20
31.437
 10
190.662
 20
31.375
 10
190.633
 20
31.317
 10
190.597
 20
31.262
 10
190.554
 20
31.213
 10
190.504
 20
31.17
 10
190.45
 20
31.134
 10
190.391
 20
31.105
 10
190.329
 20
31.084
 10
190.265
 20
31.071
 10
190.2
 20
31.067
 10
190.135
 20
31.071
 10
190.071
 20
31.084
 10
190.009
 20
31.105
 10
189.95
 20
31.134
 10
189.896
 20
31.17
 10
189.846
 20
31.213
 10
189.803
 20
31.262
 10
189.767
 20
31.317
 10
189.738
 20
31.375
 10
189.717
 20
31.437
 10
189.704
 20
31.501
 10
189.7
 20
31.567
 10
189.704
 20
31.632
 10
189.717
 20
31.696
 10
189.738
 20
31.758
 10
189.767
 20
31.817
 10
189.803
 20
31.871
 10
189.846
 20
31.92
 10
189.896
 20
31.963
 10
189.95
 20
32.0
 10
190.009
 20
32.029
 10
190.071
 20
32.05
 10
190.135
 20
32.062
 10
190.2
 20
32.067
 10
190.265
 20
32.062
 10
190.329
 20
32.05
 10
190.391
 20
32.029
 10
190.45
 20
32.0
 10
190.504
 20
31.963
 10
190.554
 20
31.92
 10
190.597
 20
31.871
 10
190.633
 20
31.817
 10
190.662
 20
31.758
 10
190.683
 20
31.696
 10
190.696
 20
31.632
 97
0
 75
0
 76
1
 98
0
  0
HATCH
  5
D4
330
17
100
AcDbEntity
  8
RASTER
 62
7
100
AcDbHatch
 10
0.0
 20
0.0
 30
0.0
210
0.0
220
0.0
230
1.0
  2
SOLID
 70
1
 71
0
 91
1
 92
3
 72
0
 73
1
 93
48
 10
204.3
 20
31.567
 10
204.296
 20
31.501
 10
204.283
 20
31.437
 10
204.262
 20
31.375
 10
204.233
 20
31.317
 10
204.197
 20
31.262
 10
204.154
 20
31.213
 10
204.104
 20
31.17
 10
204.05
 20
31.134
 10
203.991
 20
31.105
 10
203.929
 20
31.084
 10
203.865
 20
31.071
 10
203.8
 20
31.067
 10
203.735
 20
31.071
 10
203.671
 20
31.084
 10
203.609
 20
31.105
 10
203.55
 20
31.134
 10
203.496
 20
31.17
 10
203.446
 20
31.213
 10
203.403
 20
31.262
 10
203.367
 20
31.317
 10
203.338
 20
31.375
 10
203.317
 20
31.437
 10
203.304
 20
31.501
 10
203.3
 20
31.567
 10
203.304
 20
31.632
 10
203.317
 20
31.696
 10
203.338
 20
31.758
 10
203.367
 20
31.817
 10
203.403
 20
31.871
 10
203.446
 20
31.92
 10
203.496
 20
31.963
 10
203.55
 20
32.0
 10
203.609
 20
32.029
 10
203.671
 20
32.05
 10
203.735
 20
32.062
 10
203.8
 20
32.067
 10
203.865
 20
32.062
 10
203.929
 20
32.05
 10
203.991
 20
32.029
 10
204.05
 20
32.0
 10
204.104
 20
31.963
 10
204.154
 20
31.92
 10
204.197
 20
31.871
 10
204.233
 20
31.817
 10
204.262
 20
31.758
 10
204.283
 20
31.696
 10
204.296
 20
31.632
 97
0
 75
0
 76
1
 98
0
  0
HATCH
  5
D5
330
17
100
AcDbEntity
  8
RASTER
 62
7
100
AcDbHatch
 10
0.0
 20
0.0
 30
0.0
210
0.0
220
0.0
230
1.0
  2
SOLID
 70
1
 71
0
 91
1
 92
3
 72
0
 73
1
 93
48
 10
190.7
 20
26.3
 10
190.696
 20
26.235
 10
190.683
 20
26.171
 10
190.662
 20
26.109
 10
190.633
 20
26.05
 10
190.597
 20
25.996
 10
190.554
 20
25.946
 10
190.504
 20
25.903
 10
190.45
 20
25.867
 10
190.391
 20
25.838
 10
190.329
 20
25.817
 10
190.265
 20
25.804
 10
190.2
 20
25.8
 10
190.135
 20
25.804
 10
190.071
 20
25.817
 10
190.009
 20
25.838
 10
189.95
 20
25.867
 10
189.896
 20
25.903
 10
189.846
 20
25.946
 10
189.803
 20
25.996
 10
189.767
 20
26.05
 10
189.738
 20
26.109
 10
189.717
 20
26.171
 10
189.704
 20
26.235
 10
189.7
 20
26.3
 10
189.704
 20
26.365
 10
189.717
 20
26.429
 10
189.738
 20
26.491
 10
189.767
 20
26.55
 10
189.803
 20
26.604
 10
189.846
 20
26.654
 10
189.896
 20
26.697
 10
189.95
 20
26.733
 10
190.009
 20
26.762
 10
190.071
 20
26.783
 10
190.135
 20
26.796
 10
190.2
 20
26.8
 10
190.265
 20
26.796
 10
190.329
 20
26.783
 10
190.391
 20
26.762
 10
190.45
 20
26.733
 10
190.504
 20
26.697
 10
190.554
 20
26.654
 10
190.597
 20
26.604
 10
190.633
 20
26.55
 10
190.662
 20
26.491
 10
190.683
 20
26.429
 10
190.696
 20
26.365
 97
0
 75
0
 76
1
 98
0
  0
HATCH
  5
D6
330
17
100
AcDbEntity
  8
RASTER
 62
7
100
AcDbHatch
 10
0.0
 20
0.0
 30
0.0
210
0.0
220
0.0
230
1.0
  2
SOLID
 70
1
 71
0
 91
1
 92
3
 72
0
 73
1
 93
48
 10
204.3
 20
26.3
 10
204.296
 20
26.235
 10
204.283
 20
26.171
 10
204.262
 20
26.109
 10
204.233
 20
26.05
 10
204.197
 20
25.996
 10
204.154
 20
25.946
 10
204.104
 20
25.903
 10
204.05
 20
25.867
 10
203.991
 20
25.838
 10
203.929
 20
25.817
 10
203.865
 20
25.804
 10
203.8
 20
25.8
 10
203.735
 20
25.804
 10
203.671
 20
25.817
 10
203.609
 20
25.838
 10
203.55
 20
25.867
 10
203.496
 20
25.903
 10
203.446
 20
25.946
 10
203.403
 20
25.996
 10
203.367
 20
26.05
 10
203.338
 20
26.109
 10
203.317
 20
26.171
 10
203.304
 20
26.235
 10
203.3
 20
26.3
 10
203.304
 20
26.365
 10
203.317
 20
26.429
 10
203.338
 20
26.491
 10
203.367
 20
26.55
 10
203.403
 20
26.604
 10
203.446
 20
26.654
 10
203.496
 20
26.697
 10
203.55
 20
26.733
 10
203.609
 20
26.762
 10
203.671
 20
26.783
 10
203.735
 20
26.796
 10
203.8
 20
26.8
 10
203.865
 20
26.796
 10
203.929
 20
26.783
 10
203.991
 20
26.762
 10
204.05
 20
26.733
 10
204.104
 20
26.697
 10
204.154
 20
26.654
 10
204.197
 20
26.604
 10
204.233
 20
26.55
 10
204.262
 20
26.491
 10
204.283
 20
26.429
 10
204.296
 20
26.365
 97
0
 75
0
 76
1
 98
0
  0
HATCH
  5
D7
330
17
100
AcDbEntity
  8
RASTER
 62
7
100
AcDbHatch
 10
0.0
 20
0.0
 30
0.0
210
0.0
220
0.0
230
1.0
  2
SOLID
 70
1
 71
0
 91
1
 92
3
 72
0
 73
1
 93
48
 10
190.7
 20
21.033
 10
190.696
 20
20.968
 10
190.683
 20
20.904
 10
190.662
 20
20.842
 10
190.633
 20
20.783
 10
190.597
 20
20.729
 10
190.554
 20
20.68
 10
190.504
 20
20.637
 10
190.45
 20
20.6
 10
190.391
 20
20.571
 10
190.329
 20
20.55
 10
190.265
 20
20.538
 10
190.2
 20
20.533
 10
190.135
 20
20.538
 10
190.071
 20
20.55
 10
190.009
 20
20.571
 10
189.95
 20
20.6
 10
189.896
 20
20.637
 10
189.846
 20
20.68
 10
189.803
 20
20.729
 10
189.767
 20
20.783
 10
189.738
 20
20.842
 10
189.717
 20
20.904
 10
189.704
 20
20.968
 10
189.7
 20
21.033
 10
189.704
 20
21.099
 10
189.717
 20
21.163
 10
189.738
 20
21.225
 10
189.767
 20
21.283
 10
189.803
 20
21.338
 10
189.846
 20
21.387
 10
189.896
 20
21.43
 10
189.95
 20
21.466
 10
190.009
 20
21.495
 10
190.071
 20
21.516
 10
190.135
 20
21.529
 10
190.2
 20
21.533
 10
190.265
 20
21.529
 10
190.329
 20
21.516
 10
190.391
 20
21.495
 10
190.45
 20
21.466
 10
190.504
 20
21.43
 10
190.554
 20
21.387
 10
190.597
 20
21.338
 10
190.633
 20
21.283
 10
190.662
 20
21.225
 10
190.683
 20
21.163
 10
190.696
 20
21.099
 97
0
 75
0
 76
1
 98
0
  0
HATCH
  5
D8
330
17
100
AcDbEntity
  8
RASTER
 62
7
100
AcDbHatch
 10
0.0
 20
0.0
 30
0.0
210
0.0
220
0.0
230
1.0
  2
SOLID
 70
1
 71
0
 91
1
 92
3
 72
0
 73
1
 93
48
 10
204.3
 20
21.033
 10
204.296
 20
20.968
 10
204.283
 20
20.904
 10
204.262
 20
20.842
 10
204.233
 20
20.783
 10
204.197
 20
20.729
 10
204.154
 20
20.68
 10
204.104
 20
20.637
 10
204.05
 20
20.6
 10
203.991
 20
20.571
 10
203.929
 20
20.55
 10
203.865
 20
20.538
 10
203.8
 20
20.533
 10
203.735
 20
20.538
 10
203.671
 20
20.55
 10
203.609
 20
20.571
 10
203.55
 20
20.6
 10
203.496
 20
20.637
 10
203.446
 20
20.68
 10
203.403
 20
20.729
 10
203.367
 20
20.783
 10
203.338
 20
20.842
 10
203.317
 20
20.904
 10
203.304
 20
20.968
 10
203.3
 20
21.033
 10
203.304
 20
21.099
 10
203.317
 20
21.163
 10
203.338
 20
21.225
 10
203.367
 20
21.283
 10
203.403
 20
21.338
 10
203.446
 20
21.387
 10
203.496
 20
21.43
 10
203.55
 20
21.466
 10
203.609
 20
21.495
 10
203.671
 20
21.516
 10
203.735
 20
21.529
 10
203.8
 20
21.533
 10
203.865
 20
21.529
 10
203.929
 20
21.516
 10
203.991
 20
21.495
 10
204.05
 20
21.466
 10
204.104
 20
21.43
 10
204.154
 20
21.387
 10
204.197
 20
21.338
 10
204.233
 20
21.283
 10
204.262
 20
21.225
 10
204.283
 20
21.163
 10
204.296
 20
21.099
 97
0
 75
0
 76
1
 98
0
  0
LWPOLYLINE
  5
D9
330
17
100
AcDbEntity
  8
CUT
100
AcDbPolyline
 90
20
 70
1
 10
218.56
 20
34.04
 10
243.44
 20
34.04
 10
243.44
 20
28.907
 10
246.04
 20
28.907
 10
246.04
 20
23.693
 10
243.44
 20
23.693
 10
243.44
 20
18.56
 10
238.48
 20
18.56
 10
238.48
 20
15.96
 10
233.44
 20
15.96
 10
233.44
 20
18.56
 10
228.56
 20
18.56
 10
228.56
 20
15.96
 10
223.52
 20
15.96
 10
223.52
 20
18.56
 10
218.56
 20
18.56
 10
218.56
 20
23.693
 10
215.96
 20
23.693
 10
215.96
 20
28.907
 10
218.56
 20
28.907
  0
LWPOLYLINE
  5
DA
330
17
100
AcDbEntity
  8
CUT
100
AcDbPolyline
 90
4
 70
1
 10
222.64
 20
29.593
 10
239.36
 20
29.593
 10
239.36
 20
28.273
 10
222.64
 20
28.273
  0
LWPOLYLINE
  5
DB
330
17
100
AcDbEntity
  8
CUT
100
AcDbPolyline
 90
4
 70
1
 10
222.64
 20
24.327
 10
239.36
 20
24.327
 10
239.36
 20
23.007
 10
222.64
 20
23.007
  0
HATCH
  5
DC
330
17
100
AcDbEntity
  8
RASTER
 62
7
100
AcDbHatch
 10
0.0
 20
0.0
 30
0.0
210
0.0
220
0.0
230
1.0
  2
SOLID
 70
1
 71
0
 91
1
 92
3
 72
0
 73
1
 93
4
 10
219.2
 20
33.6
 10
222.0
 20
33.6
 10
222.0
 20
19.0
 10
219.2
 20
19.0
 97
0
 75
0
 76
1
 98
0
  0
HATCH
  5
DD
330
17
100
AcDbEntity
  8
RASTER
 62
7
100
AcDbHatch
 10
0.0
 20
0.0
 30
0.0
210
0.0
220
0.0
230
1.0
  2
SOLID
 70
1
 71
0
 91
1
 92
3
 72
0
 73
1
 93
4
 10
240.0
 20
33.6
 10
242.8
 20
33.6
 10
242.8
 20
19.0
 10
240.0
 20
19.0
 97
0
 75
0
 76
1
 98
0
  0
HATCH
  5
DE
330
17
100
AcDbEntity
  8
RASTER
 62
7
100
AcDbHatch
 10
0.0
 20
0.0
 30
0.0
210
0.0
220
0.0
230
1.0
  2
SOLID
 70
1
 71
0
 91
1
 92
3
 72
0
 73
1
 93
48
 10
224.7
 20
31.567
 10
224.696
 20
31.501
 10
224.683
 20
31.437
 10
224.662
 20
31.375
 10
224.633
 20
31.317
 10
224.597
 20
31.262
 10
224.554
 20
31.213
 10
224.504
 20
31.17
 10
224.45
 20
31.134
 10
224.391
 20
31.105
 10
224.329
 20
31.084
 10
224.265
 20
31.071
 10
224.2
 20
31.067
 10
224.135
 20
31.071
 10
224.071
 20
31.084
 10
224.009
 20
31.105
 10
223.95
 20
31.134
 10
223.896
 20
31.17
 10
223.846
 20
31.213
 10
223.803
 20
31.262
 10
223.767
 20
31.317
 10
223.738
 20
31.375
 10
223.717
 20
31.437
 10
223.704
 20
31.501
 10
223.7
 20
31.567
 10
223.704
 20
31.632
 10
223.717
 20
31.696
 10
223.738
 20
31.758
 10
223.767
 20
31.817
 10
223.803
 20
31.871
 10
223.846
 20
31.92
 10
223.896
 20
31.963
 10
223.95
 20
32.0
 10
224.009
 20
32.029
 10
224.071
 20
32.05
 10
224.135
 20
32.062
 10
224.2
 20
32.067
 10
224.265
 20
32.062
 10
224.329
 20
32.05
 10
224.391
 20
32.029
 10
224.45
 20
32.0
 10
224.504
 20
31.963
 10
224.554
 20
31.92
 10
224.597
 20
31.871
 10
224.633
 20
31.817
 10
224.662
 20
31.758
 10
224.683
 20
31.696
 10
224.696
 20
31.632
 97
0
 75
0
 76
1
 98
0
  0
HATCH
  5
DF
330
17
100
AcDbEntity
  8
RASTER
 62
7
100
AcDbHatch
 10
0.0
 20
0.0
 30
0.0
210
0.0
220
0.0
230
1.0
  2
SOLID
 70
1
 71
0
 91
1
 92
3
 72
0
 73
1
 93
48
 10
238.3
 20
31.567
 10
238.296
 20
31.501
 10
238.283
 20
31.437
 10
238.262
 20
31.375
 10
238.233
 20
31.317
 10
238.197
 20
31.262
 10
238.154
 20
31.213
 10
238.104
 20
31.17
 10
238.05
 20
31.134
 10
237.991
 20
31.105
 10
237.929
 20
31.084
 10
237.865
 20
31.071
 10
237.8
 20
31.067
 10
237.735
 20
31.071
 10
237.671
 20
31.084
 10
237.609
 20
31.105
 10
237.55
 20
31.134
 10
237.496
 20
31.17
 10
237.446
 20
31.213
 10
237.403
 20
31.262
 10
237.367
 20
31.317
 10
237.338
 20
31.375
 10
237.317
 20
31.437
 10
237.304
 20
31.501
 10
237.3
 20
31.567
 10
237.304
 20
31.632
 10
237.317
 20
31.696
 10
237.338
 20
31.758
 10
237.367
 20
31.817
 10
237.403
 20
31.871
 10
237.446
 20
31.92
 10
237.496
 20
31.963
 10
237.55
 20
32.0
 10
237.609
 20
32.029
 10
237.671
 20
32.05
 10
237.735
 20
32.062
 10
237.8
 20
32.067
 10
237.865
 20
32.062
 10
237.929
 20
32.05
 10
237.991
 20
32.029
 10
238.05
 20
32.0
 10
238.104
 20
31.963
 10
238.154
 20
31.92
 10
238.197
 20
31.871
 10
238.233
 20
31.817
 10
238.262
 20
31.758
 10
238.283
 20
31.696
 10
238.296
 20
31.632
 97
0
 75
0
 76
1
 98
0
  0
HATCH
  5
E0
330
17
100
AcDbEntity
  8
RASTER
 62
7
100
AcDbHatch
 10
0.0
 20
0.0
 30
0.0
210
0.0
220
0.0
230
1.0
  2
SOLID
 70
1
 71
0
 91
1
 92
3
 72
0
 73
1
 93
48
 10
224.7
 20
26.3
 10
224.696
 20
26.235
 10
224.683
 20
26.171
 10
224.662
 20
26.109
 10
224.633
 20
26.05
 10
224.597
 20
25.996
 10
224.554
 20
25.946
 10
224.504
 20
25.903
 10
224.45
 20
25.867
 10
224.391
 20
25.838
 10
224.329
 20
25.817
 10
224.265
 20
25.804
 10
224.2
 20
25.8
 10
224.135
 20
25.804
 10
224.071
 20
25.817
 10
224.009
 20
25.838
 10
223.95
 20
25.867
 10
223.896
 20
25.903
 10
223.846
 20
25.946
 10
223.803
 20
25.996
 10
223.767
 20
26.05
 10
223.738
 20
26.109
 10
223.717
 20
26.171
 10
223.704
 20
26.235
 10
223.7
 20
26.3
 10
223.704
 20
26.365
 10
223.717
 20
26.429
 10
223.738
 20
26.491
 10
223.767
 20
26.55
 10
223.803
 20
26.604
 10
223.846
 20
26.654
 10
223.896
 20
26.697
 10
223.95
 20
26.733
 10
224.009
 20
26.762
 10
224.071
 20
26.783
 10
224.135
 20
26.796
 10
224.2
 20
26.8
 10
224.265
 20
26.796
 10
224.329
 20
26.783
 10
224.391
 20
26.762
 10
224.45
 20
26.733
 10
224.504
 20
26.697
 10
224.554
 20
26.654
 10
224.597
 20
26.604
 10
224.633
 20
26.55
 10
224.662
 20
26.491
 10
224.683
 20
26.429
 10
224.696
 20
26.365
 97
0
 75
0
 76
1
 98
0
  0
HATCH
  5
E1
330
17
100
AcDbEntity
  8
RASTER
 62
7
100
AcDbHatch
 10
0.0
 20
0.0
 30
0.0
210
0.0
220
0.0
230
1.0
  2
SOLID
 70
1
 71
0
 91
1
 92
3
 72
0
 73
1
 93
48
 10
238.3
 20
26.3
 10
238.296
 20
26.235
 10
238.283
 20
26.171
 10
238.262
 20
26.109
 10
238.233
 20
26.05
 10
238.197
 20
25.996
 10
238.154
 20
25.946
 10
238.104
 20
25.903
 10
238.05
 20
25.867
 10
237.991
 20
25.838
 10
237.929
 20
25.817
 10
237.865
 20
25.804
 10
237.8
 20
25.8
 10
237.735
 20
25.804
 10
237.671
 20
25.817
 10
237.609
 20
25.838
 10
237.55
 20
25.867
 10
237.496
 20
25.903
 10
237.446
 20
25.946
 10
237.403
 20
25.996
 10
237.367
 20
26.05
 10
237.338
 20
26.109
 10
237.317
 20
26.171
 10
237.304
 20
26.235
 10
237.3
 20
26.3
 10
237.304
 20
26.365
 10
237.317
 20
26.429
 10
237.338
 20
26.491
 10
237.367
 20
26.55
 10
237.403
 20
26.604
 10
237.446
 20
26.654
 10
237.496
 20
26.697
 10
237.55
 20
26.733
 10
237.609
 20
26.762
 10
237.671
 20
26.783
 10
237.735
 20
26.796
 10
237.8
 20
26.8
 10
237.865
 20
26.796
 10
237.929
 20
26.783
 10
237.991
 20
26.762
 10
238.05
 20
26.733
 10
238.104
 20
26.697
 10
238.154
 20
26.654
 10
238.197
 20
26.604
 10
238.233
 20
26.55
 10
238.262
 20
26.491
 10
238.283
 20
26.429
 10
238.296
 20
26.365
 97
0
 75
0
 76
1
 98
0
  0
HATCH
  5
E2
330
17
100
AcDbEntity
  8
RASTER
 62
7
100
AcDbHatch
 10
0.0
 20
0.0
 30
0.0
210
0.0
220
0.0
230
1.0
  2
SOLID
 70
1
 71
0
 91
1
 92
3
 72
0
 73
1
 93
48
 10
224.7
 20
21.033
 10
224.696
 20
20.968
 10
224.683
 20
20.904
 10
224.662
 20
20.842
 10
224.633
 20
20.783
 10
224.597
 20
20.729
 10
224.554
 20
20.68
 10
224.504
 20
20.637
 10
224.45
 20
20.6
 10
224.391
 20
20.571
 10
224.329
 20
20.55
 10
224.265
 20
20.538
 10
224.2
 20
20.533
 10
224.135
 20
20.538
 10
224.071
 20
20.55
 10
224.009
 20
20.571
 10
223.95
 20
20.6
 10
223.896
 20
20.637
 10
223.846
 20
20.68
 10
223.803
 20
20.729
 10
223.767
 20
20.783
 10
223.738
 20
20.842
 10
223.717
 20
20.904
 10
223.704
 20
20.968
 10
223.7
 20
21.033
 10
223.704
 20
21.099
 10
223.717
 20
21.163
 10
223.738
 20
21.225
 10
223.767
 20
21.283
 10
223.803
 20
21.338
 10
223.846
 20
21.387
 10
223.896
 20
21.43
 10
223.95
 20
21.466
 10
224.009
 20
21.495
 10
224.071
 20
21.516
 10
224.135
 20
21.529
 10
224.2
 20
21.533
 10
224.265
 20
21.529
 10
224.329
 20
21.516
 10
224.391
 20
21.495
 10
224.45
 20
21.466
 10
224.504
 20
21.43
 10
224.554
 20
21.387
 10
224.597
 20
21.338
 10
224.633
 20
21.283
 10
224.662
 20
21.225
 10
224.683
 20
21.163
 10
224.696
 20
21.099
 97
0
 75
0
 76
1
 98
0
  0
HATCH
  5
E3
330
17
100
AcDbEntity
  8
RASTER
 62
7
100
AcDbHatch
 10
0.0
 20
0.0
 30
0.0
210
0.0
220
0.0
230
1.0
  2
SOLID
 70
1
 71
0
 91
1
 92
3
 72
0
 73
1
 93
48
 10
238.3
 20
21.033
 10
238.296
 20
20.968
 10
238.283
 20
20.904
 10
238.262
 20
20.842
 10
238.233
 20
20.783
 10
238.197
 20
20.729
 10
238.154
 20
20.68
 10
238.104
 20
20.637
 10
238.05
 20
20.6
 10
237.991
 20
20.571
 10
237.929
 20
20.55
 10
237.865
 20
20.538
 10
237.8
 20
20.533
 10
237.735
 20
20.538
 10
237.671
 20
20.55
 10
237.609
 20
20.571
 10
237.55
 20
20.6
 10
237.496
 20
20.637
 10
237.446
 20
20.68
 10
237.403
 20
20.729
 10
237.367
 20
20.783
 10
237.338
 20
20.842
 10
237.317
 20
20.904
 10
237.304
 20
20.968
 10
237.3
 20
21.033
 10
237.304
 20
21.099
 10
237.317
 20
21.163
 10
237.338
 20
21.225
 10
237.367
 20
21.283
 10
237.403
 20
21.338
 10
237.446
 20
21.387
 10
237.496
 20
21.43
 10
237.55
 20
21.466
 10
237.609
 20
21.495
 10
237.671
 20
21.516
 10
237.735
 20
21.529
 10
237.8
 20
21.533
 10
237.865
 20
21.529
 10
237.929
 20
21.516
 10
237.991
 20
21.495
 10
238.05
 20
21.466
 10
238.104
 20
21.43
 10
238.154
 20
21.387
 10
238.197
 20
21.338
 10
238.233
 20
21.283
 10
238.262
 20
21.225
 10
238.283
 20
21.163
 10
238.296
 20
21.099
 97
0
 75
0
 76
1
 98
0
  0
LWPOLYLINE
  5
E4
330
17
100
AcDbEntity
  8
CUT
100
AcDbPolyline
 90
52
 70
1
 10
249.96
 20
34.04
 10
252.6
 20
34.04
 10
258.183
 20
34.04
 10
258.183
 20
31.44
 10
263.646
 20
31.44
 10
263.646
 20
34.04
 10
269.269
 20
34.04
 10
269.269
 20
31.44
 10
274.731
 20
31.44
 10
274.731
 20
34.04
 10
280.354
 20
34.04
 10
280.354
 20
31.44
 10
285.817
 20
31.44
 10
285.817
 20
34.04
 10
291.4
 20
34.04
 10
294.04
 20
34.04
 10
294.04
 20
31.4
 10
294.04
 20
26.4
 10
291.44
 20
26.4
 10
291.44
 20
21.52
 10
294.04
 20
21.52
 10
294.04
 20
16.48
 10
291.44
 20
16.48
 10
291.44
 20
11.6
 10
294.04
 20
11.6
 10
294.04
 20
6.6
 10
294.04
 20
3.96
 10
291.4
 20
3.96
 10
285.817
 20
3.96
 10
285.817
 20
6.56
 10
280.354
 20
6.56
 10
280.354
 20
3.96
 10
274.731
 20
3.96
 10
274.731
 20
6.56
 10
269.269
 20
6.56
 10
269.269
 20
3.96
 10
263.646
 20
3.96
 10
263.646
 20
6.56
 10
258.183
 20
6.56
 10
258.183
 20
3.96
 10
252.6
 20
3.96
 10
249.96
 20
3.96
 10
249.96
 20
6.6
 10
249.96
 20
11.6
 10
252.56
 20
11.6
 10
252.56
 20
16.48
 10
249.96
 20
16.48
 10
249.96
 20
21.52
 10
252.56
 20
21.52
 10
252.56
 20
26.4
 10
249.96
 20
26.4
 10
249.96
 20
31.4
  0
ENDSEC
  0
SECTION
  2
OBJECTS
  0
DICTIONARY
  5
A
330
0
100
AcDbDictionary
281
1
  3
ACAD_COLOR
350
B
  3
ACAD_GROUP
350
C
  3
ACAD_LAYOUT
350
D
  3
ACAD_MATERIAL
350
E
  3
ACAD_MLEADERSTYLE
350
F
  3
ACAD_MLINESTYLE
350
10
  3
ACAD_PLOTSETTINGS
350
11
  3
ACAD_PLOTSTYLENAME
350
12
  3
ACAD_SCALELIST
350
14
  3
ACAD_TABLESTYLE
350
15
  3
ACAD_VISUALSTYLE
350
16
  3
EZDXF_META
350
2D
  0
DICTIONARY
  5
B
330
A
100
AcDbDictionary
281
1
  0
DICTIONARY
  5
C
330
A
100
AcDbDictionary
281
1
  0
DICTIONARY
  5
D
330
A
100
AcDbDictionary
281
1
  3
Model
350
1A
  3
Layout1
350
1E
  0
DICTIONARY
  5
E
330
A
100
AcDbDictionary
281
1
  3
ByBlock
350
1F
  3
ByLayer
350
20
  3
Global
350
21
  0
DICTIONARY
  5
F
330
A
100
AcDbDictionary
281
1
  3
Standard
350
2C
  0
DICTIONARY
  5
10
330
A
100
AcDbDictionary
281
1
  3
Standard
350
22
  0
DICTIONARY
  5
11
330
A
100
AcDbDictionary
281
1
  0
ACDBDICTIONARYWDFLT
  5
12
330
A
100
AcDbDictionary
281
1
  3
Normal
350
13
100
AcDbDictionaryWithDefault
340
13
  0
ACDBPLACEHOLDER
  5
13
330
12
  0
DICTIONARY
  5
14
330
A
100
AcDbDictionary
281
1
  0
DICTIONARY
  5
15
330
A
100
AcDbDictionary
281
1
  0
DICTIONARY
  5
16
330
A
100
AcDbDictionary
281
1
  0
LAYOUT
  5
1A
330
D
100
AcDbPlotSettings
  1

  4
A3
  6

 40
7.5
 41
20.0
 42
7.5
 43
20.0
 44
420.0
 45
297.0
 46
0.0
 47
0.0
 48
0.0
 49
0.0
140
0.0
141
0.0
142
1.0
143
1.0
 70
1024
 72
1
 73
0
 74
5
  7

 75
16
 76
0
 77
2
 78
300
147
1.0
148
0.0
149
0.0
100
AcDbLayout
  1
Model
 70
1
 71
0
 10
0.0
 20
0.0
 11
420.0
 21
297.0
 12
0.0
 22
0.0
 32
0.0
 14
1e+20
 24
1e+20
 34
1e+20
 15
-1e+20
 25
-1e+20
 35
-1e+20
146
0.0
 13
0.0
 23
0.0
 33
0.0
 16
1.0
 26
0.0
 36
0.0
 17
0.0
 27
1.0
 37
0.0
 76
1
330
17
  0
LAYOUT
  5
1E
330
D
100
AcDbPlotSettings
  1

  4
A3
  6

 40
7.5
 41
20.0
 42
7.5
 43
20.0
 44
420.0
 45
297.0
 46
0.0
 47
0.0
 48
0.0
 49
0.0
140
0.0
141
0.0
142
1.0
143
1.0
 70
0
 72
1
 73
0
 74
5
  7

 75
16
 76
0
 77
2
 78
300
147
1.0
148
0.0
149
0.0
100
AcDbLayout
  1
Layout1
 70
1
 71
1
 10
0.0
 20
0.0
 11
420.0
 21
297.0
 12
0.0
 22
0.0
 32
0.0
 14
1e+20
 24
1e+20
 34
1e+20
 15
-1e+20
 25
-1e+20
 35
-1e+20
146
0.0
 13
0.0
 23
0.0
 33
0.0
 16
1.0
 26
0.0
 36
0.0
 17
0.0
 27
1.0
 37
0.0
 76
1
330
1B
  0
MATERIAL
  5
1F
102
{ACAD_REACTORS
330
E
102
}
330
E
100
AcDbMaterial
  1
ByBlock
  2

 70
0
 40
1.0
 71
1
 41
1.0
 91
-1023410177
 42
1.0
 72
1
  3

 73
1
 74
1
 75
1
 44
0.5
 73
0
 45
1.0
 46
1.0
 77
1
  4

 78
1
 79
1
170
1
 48
1.0
171
1
  6

172
1
173
1
174
1
140
1.0
141
1.0
175
1
  7

176
1
177
1
178
1
143
1.0
179
1
  8

270
1
271
1
272
1
145
1.0
146
1.0
273
1
  9

274
1
275
1
276
1
 42
1.0
 72
1
  3

 73
1
 74
1
 75
1
 94
63
  0
MATERIAL
  5
20
102
{ACAD_REACTORS
330
E
102
}
330
E
100
AcDbMaterial
  1
ByLayer
  2

 70
0
 40
1.0
 71
1
 41
1.0
 91
-1023410177
 42
1.0
 72
1
  3

 73
1
 74
1
 75
1
 44
0.5
 73
0
 45
1.0
 46
1.0
 77
1
  4

 78
1
 79
1
170
1
 48
1.0
171
1
  6

172
1
173
1
174
1
140
1.0
141
1.0
175
1
  7

176
1
177
1
178
1
143
1.0
179
1
  8

270
1
271
1
272
1
145
1.0
146
1.0
273
1
  9

274
1
275
1
276
1
 42
1.0
 72
1
  3

 73
1
 74
1
 75
1
 94
63
  0
MATERIAL
  5
21
102
{ACAD_REACTORS
330
E
102
}
330
E
100
AcDbMaterial
  1
Global
  2

 70
0
 40
1.0
 71
1
 41
1.0
 91
-1023410177
 42
1.0
 72
1
  3

 73
1
 74
1
 75
1
 44
0.5
 73
0
 45
1.0
 46
1.0
 77
1
  4

 78
1
 79
1
170
1
 48
1.0
171
1
  6

172
1
173
1
174
1
140
1.0
141
1.0
175
1
  7

176
1
177
1
178
1
143
1.0
179
1
  8

270
1
271
1
272
1
145
1.0
146
1.0
273
1
  9

274
1
275
1
276
1
 42
1.0
 72
1
  3

 73
1
 74
1
 75
1
 94
63
  0
MLINESTYLE
  5
22
102
{ACAD_REACTORS
330
10
102
}
330
10
100
AcDbMlineStyle
  2
Standard
 70
0
  3

 62
256
 51
90.0
 52
90.0
 71
2
 49
0.5
 62
256
  6
BYLAYER
 49
-0.5
 62
256
  6
BYLAYER
  0
MLEADERSTYLE
  5
2C
102
{ACAD_REACTORS
330
F
102
}
330
F
100
AcDbMLeaderStyle
179
2
170
2
171
1
172
0
 90
2
 40
0.0
 41
0.0
173
1
 91
-1056964608
 92
-2
290
1
 42
2.0
291
1
 43
8.0
  3
Standard
 44
4.0
300

342
29
174
1
175
1
176
0
178
1
 93
-1056964608
 45
4.0
292
0
297
0
 46
4.0
 94
-1056964608
 47
1.0
 49
1.0
140
1.0
294
1
141
0.0
177
0
142
1.0
295
0
296
0
143
3.75
271
0
272
9
273
9
  0
DICTIONARY
  5
2D
330
A
100
AcDbDictionary
280
1
281
1
  3
CREATED_BY_EZDXF
350
2E
  3
WRITTEN_BY_EZDXF
350
E7
  0
DICTIONARYVAR
  5
2E
330
2D
100
DictionaryVariables
280
0
  1
1.4.2 @ 2026-08-25T17:51:41.016151+00:00
  0
DICTIONARYVAR
  5
E7
330
2D
100
DictionaryVariables
280
0
  1
1.4.2 @ 2026-08-25T17:51:41.025900+00:00
  0
ENDSEC
  0
EOF
