  0
SECTION
  2
HEADER
  9
$ACADVER
  1
AC1015
  9
$ACADMAINTVER
 70
6
  9
$DWGCODEPAGE
  3
ANSI_1252
  9
$INSBASE
 10
0.0
 20
0.0
 30
0.0
  9
$EXTMIN
 10
1e+20
 20
1e+20
 30
1e+20
  9
$EXTMAX
 10
-1e+20
 20
-1e+20
 30
-1e+20
  9
$LIMMIN
 10
0.0
 20
0.0
  9
$LIMMAX
 10
420.0
 20
297.0
  9
$ORTHOMODE
 70
0
  9
$REGENMODE
 70
1
  9
$FILLMODE
 70
1
  9
$QTEXTMODE
 70
0
  9
$MIRRTEXT
 70
1
  9
$LTSCALE
 40
1.0
  9
$ATTMODE
 70
1
  9
$TEXTSIZE
 40
2.5
  9
$TRACEWID
 40
1.0
  9
$TEXTSTYLE
  7
Standard
  9
$CLAYER
  8
0
  9
$CELTYPE
  6
ByLayer
  9
$CECOLOR
 62
256
  9
$CELTSCALE
 40
1.0
  9
$DISPSILH
 70
0
  9
$DIMSCALE
 40
1.0
  9
$DIMASZ
 40
2.5
  9
$DIMEXO
 40
0.625
  9
$DIMDLI
 40
3.75
  9
$DIMRND
 40
0.0
  9
$DIMDLE
 40
0.0
  9
$DIMEXE
 40
1.25
  9
$DIMTP
 40
0.0
  9
$DIMTM
 40
0.0
  9
$DIMTXT
 40
2.5
  9
$DIMCEN
 40
2.5
  9
$DIMTSZ
 40
0.0
  9
$DIMTOL
 70
0
  9
$DIMLIM
 70
0
  9
$DIMTIH
 70
0
  9
$DIMTOH
 70
0
  9
$DIMSE1
 70
0
  9
$DIMSE2
 70
0
  9
$DIMTAD
 70
1
  9
$DIMZIN
 70
8
  9
$DIMBLK
  1

  9
$DIMASO
 70
1
  9
$DIMSHO
 70
1
  9
$DIMPOST
  1

  9
$DIMAPOST
  1

  9
$DIMALT
 70
0
  9
$DIMALTD
 70
3
  9
$DIMALTF
 40
0.03937007874
  9
$DIMLFAC
 40
1.0
  9
$DIMTOFL
 70
1
  9
$DIMTVP
 40
0.0
  9
$DIMTIX
 70
0
  9
$DIMSOXD
 70
0
  9
$DIMSAH
 70
0
  9
$DIMBLK1
  1

  9
$DIMBLK2
  1

  9
$DIMSTYLE
  2
ISO-25
  9
$DIMCLRD
 70
0
  9
$DIMCLRE
 70
0
  9
$DIMCLRT
 70
0
  9
$DIMTFAC
 40
1.0
  9
$DIMGAP
 40
0.625
  9
$DIMJUST
 70
0
  9
$DIMSD1
 70
0
  9
$DIMSD2
 70
0
  9
$DIMTOLJ
 70
0
  9
$DIMTZIN
 70
8
  9
$DIMALTZ
 70
0
  9
$DIMALTTZ
 70
0
  9
$DIMUPT
 70
0
  9
$DIMDEC
 70
2
  9
$DIMTDEC
 70
2
  9
$DIMALTU
 70
2
  9
$DIMALTTD
 70
3
  9
$DIMTXSTY
  7
Standard
  9
$DIMAUNIT
 70
0
  9
$DIMADEC
 70
0
  9
$DIMALTRND
 40
0.0
  9
$DIMAZIN
 70
0
  9
$DIMDSEP
 70
44
  9
$DIMATFIT
 70
3
  9
$DIMFRAC
 70
0
  9
$DIMLDRBLK
  1

  9
$DIMLUNIT
 70
2
  9
$DIMLWD
 70
-2
  9
$DIMLWE
 70
-2
  9
$DIMTMOVE
 70
0
  9
$LUNITS
 70
2
  9
$LUPREC
 70
4
  9
$SKETCHINC
 40
1.0
  9
$FILLETRAD
 40
10.0
  9
$AUNITS
 70
0
  9
$AUPREC
 70
2
  9
$MENU
  1
.
  9
$ELEVATION
 40
0.0
  9
$PELEVATION
 40
0.0
  9
$THICKNESS
 40
0.0
  9
$LIMCHECK
 70
0
  9
$CHAMFERA
 40
0.0
  9
$CHAMFERB
 40
0.0
  9
$CHAMFERC
 40
0.0
  9
$CHAMFERD
 40
0.0
  9
$SKPOLY
 70
0
  9
$TDCREATE
 40
2461284.9872685187
  9
$TDUCREATE
 40
2458532.153996898
  9
$TDUPDATE
 40
2461284.9872685187
  9
$TDUUPDATE
 40
2458532.1544311
  9
$TDINDWG
 40
0.0
  9
$TDUSRTIMER
 40
0.0
  9
$USRTIMER
 70
1
  9
$ANGBASE
 50
0.0
  9
$ANGDIR
 70
0
  9
$PDMODE
 70
0
  9
$PDSIZE
 40
0.0
  9
$PLINEWID
 40
0.0
  9
$SPLFRAME
 70
0
  9
$SPLINETYPE
 70
6
  9
$SPLINESEGS
 70
8
  9
$HANDSEED
  5
B8
  9
$SURFTAB1
 70
6
  9
$SURFTAB2
 70
6
  9
$SURFTYPE
 70
6
  9
$SURFU
 70
6
  9
$SURFV
 70
6
  9
$UCSBASE
  2

  9
$UCSNAME
  2

  9
$UCSORG
 10
0.0
 20
0.0
 30
0.0
  9
$UCSXDIR
 10
1.0
 20
0.0
 30
0.0
  9
$UCSYDIR
 10
0.0
 20
1.0
 30
0.0
  9
$UCSORTHOREF
  2

  9
$UCSORTHOVIEW
 70
0
  9
$UCSORGTOP
 10
0.0
 20
0.0
 30
0.0
  9
$UCSORGBOTTOM
 10
0.0
 20
0.0
 30
0.0
  9
$UCSORGLEFT
 10
0.0
 20
0.0
 30
0.0
  9
$UCSORGRIGHT
 10
0.0
 20
0.0
 30
0.0
  9
$UCSORGFRONT
 10
0.0
 20
0.0
 30
0.0
  9
$UCSORGBACK
 10
0.0
 20
0.0
 30
0.0
  9
$PUCSBASE
  2

  9
$PUCSNAME
  2

  9
$PUCSORG
 10
0.0
 20
0.0
 30
0.0
  9
$PUCSXDIR
 10
1.0
 20
0.0
 30
0.0
  9
$PUCSYDIR
 10
0.0
 20
1.0
 30
0.0
  9
$PUCSORTHOREF
  2

  9
$PUCSORTHOVIEW
 70
0
  9
$PUCSORGTOP
 10
0.0
 20
0.0
 30
0.0
  9
$PUCSORGBOTTOM
 10
0.0
 20
0.0
 30
0.0
  9
$PUCSORGLEFT
 10
0.0
 20
0.0
 30
0.0
  9
$PUCSORGRIGHT
 10
0.0
 20
0.0
 30
0.0
  9
$PUCSORGFRONT
 10
0.0
 20
0.0
 30
0.0
  9
$PUCSORGBACK
 10
0.0
 20
0.0
 30
0.0
  9
$USERI1
 70
0
  9
$USERI2
 70
0
  9
$USERI3
 70
0
  9
$USERI4
 70
0
  9
$USERI5
 70
0
  9
$USERR1
 40
0.0
  9
$USERR2
 40
0.0
  9
$USERR3
 40
0.0
  9
$USERR4
 40
0.0
  9
$USERR5
 40
0.0
  9
$WORLDVIEW
 70
1
  9
$SHADEDGE
 70
3
  9
$SHADEDIF
 70
70
  9
$TILEMODE
 70
1
  9
$MAXACTVP
 70
64
  9
$PINSBASE
 10
0.0
 20
0.0
 30
0.0
  9
$PLIMCHECK
 70
0
  9
$PEXTMIN
 10
1e+20
 20
1e+20
 30
1e+20
  9
$PEXTMAX
 10
-1e+20
 20
-1e+20
 30
-1e+20
  9
$PLIMMIN
 10
0.0
 20
0.0
  9
$PLIMMAX
 10
420.0
 20
297.0
  9
$UNITMODE
 70
0
  9
$VISRETAIN
 70
1
  9
$PLINEGEN
 70
0
  9
$PSLTSCALE
 70
1
  9
$TREEDEPTH
 70
3020
  9
$CMLSTYLE
  2
Standard
  9
$CMLJUST
 70
0
  9
$CMLSCALE
 40
20.0
  9
$PROXYGRAPHICS
 70
1
  9
$MEASUREMENT
 70
1
  9
$CELWEIGHT
370
-1
  9
$ENDCAPS
280
0
  9
$JOINSTYLE
280
0
  9
$LWDISPLAY
290
0
  9
$INSUNITS
 70
4
  9
$HYPERLINKBASE
  1

  9
$STYLESHEET
  1

  9
$XEDIT
290
1
  9
$CEPSNTYPE
380
0
  9
$PSTYLEMODE
290
1
  9
$FINGERPRINTGUID
  2
{C223D117-100E-4704-8246-B818EFBAF983}
  9
$VERSIONGUID
  2
{D0E2F50F-F4A4-42D5-92B3-742FB2FF939A}
  9
$EXTNAMES
290
1
  9
$PSVPSCALE
 40
0.0
  9
$OLESTARTUP
290
0
  0
ENDSEC
  0
SECTION
  2
CLASSES
  0
CLASS
  1
ACDBDICTIONARYWDFLT
  2
AcDbDictionaryWithDefault
  3
ObjectDBX Classes
 90
0
280
0
281
0
  0
CLASS
  1
SUN
  2
AcDbSun
  3
SCENEOE
 90
1153
280
0
281
0
  0
CLASS
  1
VISUALSTYLE
  2
AcDbVisualStyle
  3
ObjectDBX Classes
 90
4095
280
0
281
0
  0
CLASS
  1
MATERIAL
  2
AcDbMaterial
  3
ObjectDBX Classes
 90
1153
280
0
281
0
  0
CLASS
  1
SCALE
  2
AcDbScale
  3
ObjectDBX Classes
 90
1153
280
0
281
0
  0
CLASS
  1
TABLESTYLE
  2
AcDbTableStyle
  3
ObjectDBX Classes
 90
4095
280
0
281
0
  0
CLASS
  1
MLEADERSTYLE
  2
AcDbMLeaderStyle
  3
ACDB_MLEADERSTYLE_CLASS
 90
4095
280
0
281
0
  0
CLASS
  1
DICTIONARYVAR
  2
AcDbDictionaryVar
  3
ObjectDBX Classes
 90
0
280
0
281
0
  0
CLASS
  1
CELLSTYLEMAP
  2
AcDbCellStyleMap
  3
ObjectDBX Classes
 90
1152
280
0
281
0
  0
CLASS
  1
MENTALRAYRENDERSETTINGS
  2
AcDbMentalRayRenderSettings
  3
SCENEOE
 90
1024
280
0
281
0
  0
CLASS
  1
ACDBDETAILVIEWSTYLE
  2
AcDbDetailViewStyle
  3
ObjectDBX Classes
 90
1025
280
0
281
0
  0
CLASS
  1
ACDBSECTIONVIEWSTYLE
  2
AcDbSectionViewStyle
  3
ObjectDBX Classes
 90
1025
280
0
281
0
  0
CLASS
  1
RASTERVARIABLES
  2
AcDbRasterVariables
  3
ISM
 90
0
280
0
281
0
  0
CLASS
  1
ACDBPLACEHOLDER
  2
AcDbPlaceHolder
  3
ObjectDBX Classes
 90
0
280
0
281
0
  0
CLASS
  1
LAYOUT
  2
AcDbLayout
  3
ObjectDBX Classes
 90
0
280
0
281
0
  0
ENDSEC
  0
SECTION
  2
TABLES
  0
TABLE
  2
VPORT
  5
8
330
0
100
AcDbSymbolTable
 70
1
  0
VPORT
  5
23
330
8
100
AcDbSymbolTableRecord
100
AcDbViewportTableRecord
  2
*Active
 70
0
 10
0.0
 20
0.0
 11
1.0
 21
1.0
 12
0.0
 22
0.0
 13
0.0
 23
0.0
 14
0.5
 24
0.5
 15
0.5
 25
0.5
 16
0.0
 26
0.0
 36
1.0
 17
0.0
 27
0.0
 37
0.0
 40
1000.0
 41
1.34
 42
50.0
 43
0.0
 44
0.0
 50
0.0
 51
0.0
 71
0
 72
1000
 73
1
 74
3
 75
0
 76
0
 77
0
 78
0
281
0
 65
0
146
0.0
  0
ENDTAB
  0
TABLE
  2
LTYPE
  5
2
330
0
100
AcDbSymbolTable
 70
3
  0
LTYPE
  5
24
330
2
100
AcDbSymbolTableRecord
100
AcDbLinetypeTableRecord
  2
ByBlock
 70
0
  3

 72
65
 73
0
 40
0.0
  0
LTYPE
  5
25
330
2
100
AcDbSymbolTableRecord
100
AcDbLinetypeTableRecord
  2
ByLayer
 70
0
  3

 72
65
 73
0
 40
0.0
  0
LTYPE
  5
26
330
2
100
AcDbSymbolTableRecord
100
AcDbLinetypeTableRecord
  2
Continuous
 70
0
  3

 72
65
 73
0
 40
0.0
  0
ENDTAB
  0
TABLE
  2
LAYER
  5
1
330
0
100
AcDbSymbolTable
 70
4
  0
LAYER
  5
27
330
1
100
AcDbSymbolTableRecord
100
AcDbLayerTableRecord
  2
0
 70
0
 62
7
  6
Continuous
370
-3
390
13
  0
LAYER
  5
28
330
1
100
AcDbSymbolTableRecord
100
AcDbLayerTableRecord
  2
Defpoints
 70
0
 62
7
  6
Continuous
290
0
370
-3
390
13
  0
LAYER
  5
2F
330
1
100
AcDbSymbolTableRecord
100
AcDbLayerTableRecord
  2
CUT
 70
0
 62
1
  6
Continuous
370
-3
390
13
  0
LAYER
  5
30
330
1
100
AcDbSymbolTableRecord
100
AcDbLayerTableRecord
  2
RASTER
 70
0
 62
7
  6
Continuous
370
-3
390
13
  0
ENDTAB
  0
TABLE
  2
STYLE
  5
5
330
0
100
AcDbSymbolTable
 70
1
  0
STYLE
  5
29
330
5
100
AcDbSymbolTableRecord
100
AcDbTextStyleTableRecord
  2
Standard
 70
0
 40
0.0
 41
1.0
 50
0.0
 71
0
 42
2.5
  3
txt
  4

  0
ENDTAB
  0
TABLE
  2
VIEW
  5
7
330
0
100
AcDbSymbolTable
 70
0
  0
ENDTAB
  0
TABLE
  2
UCS
  5
6
330
0
100
AcDbSymbolTable
 70
0
  0
ENDTAB
  0
TABLE
  2
APPID
  5
3
330
0
100
AcDbSymbolTable
 70
3
  0
APPID
  5
2A
330
3
100
AcDbSymbolTableRecord
100
AcDbRegAppTableRecord
  2
ACAD
 70
0
  0
APPID
  5
B5
330
3
100
AcDbSymbolTableRecord
100
AcDbRegAppTableRecord
  2
HATCHBACKGROUNDCOLOR
 70
0
  0
APPID
  5
B6
330
3
100
AcDbSymbolTableRecord
100
AcDbRegAppTableRecord
  2
EZDXF
 70
0
  0
ENDTAB
  0
TABLE
  2
DIMSTYLE
  5
4
330
0
100
AcDbSymbolTable
 70
1
100
AcDbDimStyleTable
  0
DIMSTYLE
105
2B
330
4
100
AcDbSymbolTableRecord
100
AcDbDimStyleTableRecord
  2
Standard
 70
0
  3

  4

 40
1.0
 41
2.5
 42
0.625
 43
3.75
 44
1.25
 45
0.0
 46
0.0
 47
0.0
 48
0.0
140
2.5
141
2.5
142
0.0
143
0.03937007874
144
1.0
145
0.0
146
1.0
147
0.625
148
0.0
 71
0
 72
0
 73
0
 74
0
 75
0
 76
0
 77
1
 78
8
 79
3
170
0
171
3
172
1
173
0
174
0
175
0
176
0
177
0
178
0
179
2
271
2
272
2
273
2
274
3
275
0
276
0
277
2
278
44
279
0
280
0
281
0
282
0
283
0
284
8
285
0
286
0
288
0
289
3
371
-2
372
-2
  0
ENDTAB
  0
TABLE
  2
BLOCK_RECORD
  5
9
330
0
100
AcDbSymbolTable
 70
2
  0
BLOCK_RECORD
  5
17
330
9
100
AcDbSymbolTableRecord
100
AcDbBlockTableRecord
  2
*Model_Space
340
1A
  0
BLOCK_RECORD
  5
1B
330
9
100
AcDbSymbolTableRecord
100
AcDbBlockTableRecord
  2
*Paper_Space
340
1E
  0
ENDTAB
  0
ENDSEC
  0
SECTION
  2
BLOCKS
  0
BLOCK
  5
18
330
17
100
AcDbEntity
  8
0
100
AcDbBlockBegin
  2
*Model_Space
 70
0
 10
0.0
 20
0.0
 30
0.0
  3
*Model_Space
  1

  0
ENDBLK
  5
19
330
17
100
AcDbEntity
  8
0
100
AcDbBlockEnd
  0
BLOCK
  5
1C
330
1B
100
AcDbEntity
  8
0
100
AcDbBlockBegin
  2
*Paper_Space
 70
0
 10
0.0
 20
0.0
 30
0.0
  3
*Paper_Space
  1

  0
ENDBLK
  5
1D
330
1B
100
AcDbEntity
  8
0
100
AcDbBlockEnd
  0
ENDSEC
  0
SECTION
  2
ENTITIES
  0
LWPOLYLINE
  5
31
330
17
100
AcDbEntity
  8
CUT
100
AcDbPolyline
 90
36
 70
1
 10
7.1
 20
226.04
 10
70.9
 20
226.04
 10
74.04
 20
226.04
 10
74.04
 20
223.66
 10
70.94
 20
223.66
 10
70.94
 20
221.44
 10
74.04
 20
221.44
 10
74.04
 20
219.06
 10
70.9
 20
219.06
 10
65.14
 20
219.06
 10
65.14
 20
215.96
 10
59.26
 20
215.96
 10
59.26
 20
219.06
 10
53.54
 20
219.06
 10
53.54
 20
215.96
 10
47.66
 20
215.96
 10
47.66
 20
219.06
 10
41.94
 20
219.06
 10
41.94
 20
215.96
 10
36.06
 20
215.96
 10
36.06
 20
219.06
 10
30.34
 20
219.06
 10
30.34
 20
215.96
 10
24.46
 20
215.96
 10
24.46
 20
219.06
 10
18.74
 20
219.06
 10
18.74
 20
215.96
 10
12.86
 20
215.96
 10
12.86
 20
219.06
 10
7.1
 20
219.06
 10
3.96
 20
219.06
 10
3.96
 20
221.44
 10
7.06
 20
221.44
 10
7.06
 20
223.66
 10
3.96
 20
223.66
 10
3.96
 20
226.04
  0
LWPOLYLINE
  5
32
330
17
100
AcDbEntity
  8
CUT
100
AcDbPolyline
 90
4
 70
1
 10
12.14
 20
223.61
 10
65.86
 20
223.61
 10
65.86
 20
221.49
 10
12.14
 20
221.49
  0
HATCH
  5
33
330
17
100
AcDbEntity
  8
RASTER
 62
7
100
AcDbHatch
 10
0.0
 20
0.0
 30
0.0
210
0.0
220
0.0
230
1.0
  2
SOLID
 70
1
 71
0
 91
1
 92
3
 72
0
 73
1
 93
4
 10
7.7
 20
225.6
 10
11.5
 20
225.6
 10
11.5
 20
219.5
 10
7.7
 20
219.5
 97
0
 75
0
 76
1
 98
0
  0
HATCH
  5
34
330
17
100
AcDbEntity
  8
RASTER
 62
7
100
AcDbHatch
 10
0.0
 20
0.0
 30
0.0
210
0.0
220
0.0
230
1.0
  2
SOLID
 70
1
 71
0
 91
1
 92
3
 72
0
 73
1
 93
4
 10
66.5
 20
225.6
 10
70.3
 20
225.6
 10
70.3
 20
219.5
 10
66.5
 20
219.5
 97
0
 75
0
 76
1
 98
0
  0
HATCH
  5
35
330
17
100
AcDbEntity
  8
RASTER
 62
7
100
AcDbHatch
 10
0.0
 20
0.0
 30
0.0
210
0.0
220
0.0
230
1.0
  2
SOLID
 70
1
 71
0
 91
1
 92
3
 72
0
 73
1
 93
48
 10
14.2
 20
225.25
 10
14.196
 20
225.185
 10
14.183
 20
225.121
 10
14.162
 20
225.059
 10
14.133
 20
225.0
 10
14.097
 20
224.946
 10
14.054
 20
224.896
 10
14.004
 20
224.853
 10
13.95
 20
224.817
 10
13.891
 20
224.788
 10
13.829
 20
224.767
 10
13.765
 20
224.754
 10
13.7
 20
224.75
 10
13.635
 20
224.754
 10
13.571
 20
224.767
 10
13.509
 20
224.788
 10
13.45
 20
224.817
 10
13.396
 20
224.853
 10
13.346
 20
224.896
 10
13.303
 20
224.946
 10
13.267
 20
225.0
 10
13.238
 20
225.059
 10
13.217
 20
225.121
 10
13.204
 20
225.185
 10
13.2
 20
225.25
 10
13.204
 20
225.315
 10
13.217
 20
225.379
 10
13.238
 20
225.441
 10
13.267
 20
225.5
 10
13.303
 20
225.554
 10
13.346
 20
225.604
 10
13.396
 20
225.647
 10
13.45
 20
225.683
 10
13.509
 20
225.712
 10
13.571
 20
225.733
 10
13.635
 20
225.746
 10
13.7
 20
225.75
 10
13.765
 20
225.746
 10
13.829
 20
225.733
 10
13.891
 20
225.712
 10
13.95
 20
225.683
 10
14.004
 20
225.647
 10
14.054
 20
225.604
 10
14.097
 20
225.554
 10
14.133
 20
225.5
 10
14.162
 20
225.441
 10
14.183
 20
225.379
 10
14.196
 20
225.315
 97
0
 75
0
 76
1
 98
0
  0
HATCH
  5
36
330
17
100
AcDbEntity
  8
RASTER
 62
7
100
AcDbHatch
 10
0.0
 20
0.0
 30
0.0
210
0.0
220
0.0
230
1.0
  2
SOLID
 70
1
 71
0
 91
1
 92
3
 72
0
 73
1
 93
48
 10
64.8
 20
225.25
 10
64.796
 20
225.185
 10
64.783
 20
225.121
 10
64.762
 20
225.059
 10
64.733
 20
225.0
 10
64.697
 20
224.946
 10
64.654
 20
224.896
 10
64.604
 20
224.853
 10
64.55
 20
224.817
 10
64.491
 20
224.788
 10
64.429
 20
224.767
 10
64.365
 20
224.754
 10
64.3
 20
224.75
 10
64.235
 20
224.754
 10
64.171
 20
224.767
 10
64.109
 20
224.788
 10
64.05
 20
224.817
 10
63.996
 20
224.853
 10
63.946
 20
224.896
 10
63.903
 20
224.946
 10
63.867
 20
225.0
 10
63.838
 20
225.059
 10
63.817
 20
225.121
 10
63.804
 20
225.185
 10
63.8
 20
225.25
 10
63.804
 20
225.315
 10
63.817
 20
225.379
 10
63.838
 20
225.441
 10
63.867
 20
225.5
 10
63.903
 20
225.554
 10
63.946
 20
225.604
 10
63.996
 20
225.647
 10
64.05
 20
225.683
 10
64.109
 20
225.712
 10
64.171
 20
225.733
 10
64.235
 20
225.746
 10
64.3
 20
225.75
 10
64.365
 20
225.746
 10
64.429
 20
225.733
 10
64.491
 20
225.712
 10
64.55
 20
225.683
 10
64.604
 20
225.647
 10
64.654
 20
225.604
 10
64.697
 20
225.554
 10
64.733
 20
225.5
 10
64.762
 20
225.441
 10
64.783
 20
225.379
 10
64.796
 20
225.315
 97
0
 75
0
 76
1
 98
0
  0
HATCH
  5
37
330
17
100
AcDbEntity
  8
RASTER
 62
7
100
AcDbHatch
 10
0.0
 20
0.0
 30
0.0
210
0.0
220
0.0
230
1.0
  2
SOLID
 70
1
 71
0
 91
1
 92
3
 72
0
 73
1
 93
48
 10
14.2
 20
219.85
 10
14.196
 20
219.785
 10
14.183
 20
219.721
 10
14.162
 20
219.659
 10
14.133
 20
219.6
 10
14.097
 20
219.546
 10
14.054
 20
219.496
 10
14.004
 20
219.453
 10
13.95
 20
219.417
 10
13.891
 20
219.388
 10
13.829
 20
219.367
 10
13.765
 20
219.354
 10
13.7
 20
219.35
 10
13.635
 20
219.354
 10
13.571
 20
219.367
 10
13.509
 20
219.388
 10
13.45
 20
219.417
 10
13.396
 20
219.453
 10
13.346
 20
219.496
 10
13.303
 20
219.546
 10
13.267
 20
219.6
 10
13.238
 20
219.659
 10
13.217
 20
219.721
 10
13.204
 20
219.785
 10
13.2
 20
219.85
 10
13.204
 20
219.915
 10
13.217
 20
219.979
 10
13.238
 20
220.041
 10
13.267
 20
220.1
 10
13.303
 20
220.154
 10
13.346
 20
220.204
 10
13.396
 20
220.247
 10
13.45
 20
220.283
 10
13.509
 20
220.312
 10
13.571
 20
220.333
 10
13.635
 20
220.346
 10
13.7
 20
220.35
 10
13.765
 20
220.346
 10
13.829
 20
220.333
 10
13.891
 20
220.312
 10
13.95
 20
220.283
 10
14.004
 20
220.247
 10
14.054
 20
220.204
 10
14.097
 20
220.154
 10
14.133
 20
220.1
 10
14.162
 20
220.041
 10
14.183
 20
219.979
 10
14.196
 20
219.915
 97
0
 75
0
 76
1
 98
0
  0
HATCH
  5
38
330
17
100
AcDbEntity
  8
RASTER
 62
7
100
AcDbHatch
 10
0.0
 20
0.0
 30
0.0
210
0.0
220
0.0
230
1.0
  2
SOLID
 70
1
 71
0
 91
1
 92
3
 72
0
 73
1
 93
48
 10
64.8
 20
219.85
 10
64.796
 20
219.785
 10
64.783
 20
219.721
 10
64.762
 20
219.659
 10
64.733
 20
219.6
 10
64.697
 20
219.546
 10
64.654
 20
219.496
 10
64.604
 20
219.453
 10
64.55
 20
219.417
 10
64.491
 20
219.388
 10
64.429
 20
219.367
 10
64.365
 20
219.354
 10
64.3
 20
219.35
 10
64.235
 20
219.354
 10
64.171
 20
219.367
 10
64.109
 20
219.388
 10
64.05
 20
219.417
 10
63.996
 20
219.453
 10
63.946
 20
219.496
 10
63.903
 20
219.546
 10
63.867
 20
219.6
 10
63.838
 20
219.659
 10
63.817
 20
219.721
 10
63.804
 20
219.785
 10
63.8
 20
219.85
 10
63.804
 20
219.915
 10
63.817
 20
219.979
 10
63.838
 20
220.041
 10
63.867
 20
220.1
 10
63.903
 20
220.154
 10
63.946
 20
220.204
 10
63.996
 20
220.247
 10
64.05
 20
220.283
 10
64.109
 20
220.312
 10
64.171
 20
220.333
 10
64.235
 20
220.346
 10
64.3
 20
220.35
 10
64.365
 20
220.346
 10
64.429
 20
220.333
 10
64.491
 20
220.312
 10
64.55
 20
220.283
 10
64.604
 20
220.247
 10
64.654
 20
220.204
 10
64.697
 20
220.154
 10
64.733
 20
220.1
 10
64.762
 20
220.041
 10
64.783
 20
219.979
 10
64.796
 20
219.915
 97
0
 75
0
 76
1
 98
0
  0
LWPOLYLINE
  5
39
330
17
100
AcDbEntity
  8
CUT
100
AcDbPolyline
 90
36
 70
1
 10
81.1
 20
226.04
 10
144.9
 20
226.04
 10
148.04
 20
226.04
 10
148.04
 20
223.66
 10
144.94
 20
223.66
 10
144.94
 20
221.44
 10
148.04
 20
221.44
 10
148.04
 20
219.06
 10
144.9
 20
219.06
 10
139.14
 20
219.06
 10
139.14
 20
215.96
 10
133.26
 20
215.96
 10
133.26
 20
219.06
 10
127.54
 20
219.06
 10
127.54
 20
215.96
 10
121.66
 20
215.96
 10
121.66
 20
219.06
 10
115.94
 20
219.06
 10
115.94
 20
215.96
 10
110.06
 20
215.96
 10
110.06
 20
219.06
 10
104.34
 20
219.06
 10
104.34
 20
215.96
 10
98.46
 20
215.96
 10
98.46
 20
219.06
 10
92.74
 20
219.06
 10
92.74
 20
215.96
 10
86.86
 20
215.96
 10
86.86
 20
219.06
 10
81.1
 20
219.06
 10
77.96
 20
219.06
 10
77.96
 20
221.44
 10
81.06
 20
221.44
 10
81.06
 20
223.66
 10
77.96
 20
223.66
 10
77.96
 20
226.04
  0
LWPOLYLINE
  5
3A
330
17
100
AcDbEntity
  8
CUT
100
AcDbPolyline
 90
4
 70
1
 10
86.14
 20
223.61
 10
139.86
 20
223.61
 10
139.86
 20
221.49
 10
86.14
 20
221.49
  0
HATCH
  5
3B
330
17
100
AcDbEntity
  8
RASTER
 62
7
100
AcDbHatch
 10
0.0
 20
0.0
 30
0.0
210
0.0
220
0.0
230
1.0
  2
SOLID
 70
1
 71
0
 91
1
 92
3
 72
0
 73
1
 93
4
 10
81.7
 20
225.6
 10
85.5
 20
225.6
 10
85.5
 20
219.5
 10
81.7
 20
219.5
 97
0
 75
0
 76
1
 98
0
  0
HATCH
  5
3C
330
17
100
AcDbEntity
  8
RASTER
 62
7
100
AcDbHatch
 10
0.0
 20
0.0
 30
0.0
210
0.0
220
0.0
230
1.0
  2
SOLID
 70
1
 71
0
 91
1
 92
3
 72
0
 73
1
 93
4
 10
140.5
 20
225.6
 10
144.3
 20
225.6
 10
144.3
 20
219.5
 10
140.5
 20
219.5
 97
0
 75
0
 76
1
 98
0
  0
HATCH
  5
3D
330
17
100
AcDbEntity
  8
RASTER
 62
7
100
AcDbHatch
 10
0.0
 20
0.0
 30
0.0
210
0.0
220
0.0
230
1.0
  2
SOLID
 70
1
 71
0
 91
1
 92
3
 72
0
 73
1
 93
48
 10
88.2
 20
225.25
 10
88.196
 20
225.185
 10
88.183
 20
225.121
 10
88.162
 20
225.059
 10
88.133
 20
225.0
 10
88.097
 20
224.946
 10
88.054
 20
224.896
 10
88.004
 20
224.853
 10
87.95
 20
224.817
 10
87.891
 20
224.788
 10
87.829
 20
224.767
 10
87.765
 20
224.754
 10
87.7
 20
224.75
 10
87.635
 20
224.754
 10
87.571
 20
224.767
 10
87.509
 20
224.788
 10
87.45
 20
224.817
 10
87.396
 20
224.853
 10
87.346
 20
224.896
 10
87.303
 20
224.946
 10
87.267
 20
225.0
 10
87.238
 20
225.059
 10
87.217
 20
225.121
 10
87.204
 20
225.185
 10
87.2
 20
225.25
 10
87.204
 20
225.315
 10
87.217
 20
225.379
 10
87.238
 20
225.441
 10
87.267
 20
225.5
 10
87.303
 20
225.554
 10
87.346
 20
225.604
 10
87.396
 20
225.647
 10
87.45
 20
225.683
 10
87.509
 20
225.712
 10
87.571
 20
225.733
 10
87.635
 20
225.746
 10
87.7
 20
225.75
 10
87.765
 20
225.746
 10
87.829
 20
225.733
 10
87.891
 20
225.712
 10
87.95
 20
225.683
 10
88.004
 20
225.647
 10
88.054
 20
225.604
 10
88.097
 20
225.554
 10
88.133
 20
225.5
 10
88.162
 20
225.441
 10
88.183
 20
225.379
 10
88.196
 20
225.315
 97
0
 75
0
 76
1
 98
0
  0
HATCH
  5
3E
330
17
100
AcDbEntity
  8
RASTER
 62
7
100
AcDbHatch
 10
0.0
 20
0.0
 30
0.0
210
0.0
220
0.0
230
1.0
  2
SOLID
 70
1
 71
0
 91
1
 92
3
 72
0
 73
1
 93
48
 10
138.8
 20
225.25
 10
138.796
 20
225.185
 10
138.783
 20
225.121
 10
138.762
 20
225.059
 10
138.733
 20
225.0
 10
138.697
 20
224.946
 10
138.654
 20
224.896
 10
138.604
 20
224.853
 10
138.55
 20
224.817
 10
138.491
 20
224.788
 10
138.429
 20
224.767
 10
138.365
 20
224.754
 10
138.3
 20
224.75
 10
138.235
 20
224.754
 10
138.171
 20
224.767
 10
138.109
 20
224.788
 10
138.05
 20
224.817
 10
137.996
 20
224.853
 10
137.946
 20
224.896
 10
137.903
 20
224.946
 10
137.867
 20
225.0
 10
137.838
 20
225.059
 10
137.817
 20
225.121
 10
137.804
 20
225.185
 10
137.8
 20
225.25
 10
137.804
 20
225.315
 10
137.817
 20
225.379
 10
137.838
 20
225.441
 10
137.867
 20
225.5
 10
137.903
 20
225.554
 10
137.946
 20
225.604
 10
137.996
 20
225.647
 10
138.05
 20
225.683
 10
138.109
 20
225.712
 10
138.171
 20
225.733
 10
138.235
 20
225.746
 10
138.3
 20
225.75
 10
138.365
 20
225.746
 10
138.429
 20
225.733
 10
138.491
 20
225.712
 10
138.55
 20
225.683
 10
138.604
 20
225.647
 10
138.654
 20
225.604
 10
138.697
 20
225.554
 10
138.733
 20
225.5
 10
138.762
 20
225.441
 10
138.783
 20
225.379
 10
138.796
 20
225.315
 97
0
 75
0
 76
1
 98
0
  0
HATCH
  5
3F
330
17
100
AcDbEntity
  8
RASTER
 62
7
100
AcDbHatch
 10
0.0
 20
0.0
 30
0.0
210
0.0
220
0.0
230
1.0
  2
SOLID
 70
1
 71
0
 91
1
 92
3
 72
0
 73
1
 93
48
 10
88.2
 20
219.85
 10
88.196
 20
219.785
 10
88.183
 20
219.721
 10
88.162
 20
219.659
 10
88.133
 20
219.6
 10
88.097
 20
219.546
 10
88.054
 20
219.496
 10
88.004
 20
219.453
 10
87.95
 20
219.417
 10
87.891
 20
219.388
 10
87.829
 20
219.367
 10
87.765
 20
219.354
 10
87.7
 20
219.35
 10
87.635
 20
219.354
 10
87.571
 20
219.367
 10
87.509
 20
219.388
 10
87.45
 20
219.417
 10
87.396
 20
219.453
 10
87.346
 20
219.496
 10
87.303
 20
219.546
 10
87.267
 20
219.6
 10
87.238
 20
219.659
 10
87.217
 20
219.721
 10
87.204
 20
219.785
 10
87.2
 20
219.85
 10
87.204
 20
219.915
 10
87.217
 20
219.979
 10
87.238
 20
220.041
 10
87.267
 20
220.1
 10
87.303
 20
220.154
 10
87.346
 20
220.204
 10
87.396
 20
220.247
 10
87.45
 20
220.283
 10
87.509
 20
220.312
 10
87.571
 20
220.333
 10
87.635
 20
220.346
 10
87.7
 20
220.35
 10
87.765
 20
220.346
 10
87.829
 20
220.333
 10
87.891
 20
220.312
 10
87.95
 20
220.283
 10
88.004
 20
220.247
 10
88.054
 20
220.204
 10
88.097
 20
220.154
 10
88.133
 20
220.1
 10
88.162
 20
220.041
 10
88.183
 20
219.979
 10
88.196
 20
219.915
 97
0
 75
0
 76
1
 98
0
  0
HATCH
  5
40
330
17
100
AcDbEntity
  8
RASTER
 62
7
100
AcDbHatch
 10
0.0
 20
0.0
 30
0.0
210
0.0
220
0.0
230
1.0
  2
SOLID
 70
1
 71
0
 91
1
 92
3
 72
0
 73
1
 93
48
 10
138.8
 20
219.85
 10
138.796
 20
219.785
 10
138.783
 20
219.721
 10
138.762
 20
219.659
 10
138.733
 20
219.6
 10
138.697
 20
219.546
 10
138.654
 20
219.496
 10
138.604
 20
219.453
 10
138.55
 20
219.417
 10
138.491
 20
219.388
 10
138.429
 20
219.367
 10
138.365
 20
219.354
 10
138.3
 20
219.35
 10
138.235
 20
219.354
 10
138.171
 20
219.367
 10
138.109
 20
219.388
 10
138.05
 20
219.417
 10
137.996
 20
219.453
 10
137.946
 20
219.496
 10
137.903
 20
219.546
 10
137.867
 20
219.6
 10
137.838
 20
219.659
 10
137.817
 20
219.721
 10
137.804
 20
219.785
 10
137.8
 20
219.85
 10
137.804
 20
219.915
 10
137.817
 20
219.979
 10
137.838
 20
220.041
 10
137.867
 20
220.1
 10
137.903
 20
220.154
 10
137.946
 20
220.204
 10
137.996
 20
220.247
 10
138.05
 20
220.283
 10
138.109
 20
220.312
 10
138.171
 20
220.333
 10
138.235
 20
220.346
 10
138.3
 20
220.35
 10
138.365
 20
220.346
 10
138.429
 20
220.333
 10
138.491
 20
220.312
 10
138.55
 20
220.283
 10
138.604
 20
220.247
 10
138.654
 20
220.204
 10
138.697
 20
220.154
 10
138.733
 20
220.1
 10
138.762
 20
220.041
 10
138.783
 20
219.979
 10
138.796
 20
219.915
 97
0
 75
0
 76
1
 98
0
  0
LWPOLYLINE
  5
41
330
17
100
AcDbEntity
  8
CUT
100
AcDbPolyline
 90
24
 70
1
 10
155.06
 20
226.04
 10
197.94
 20
226.04
 10
197.94
 20
223.74
 10
201.04
 20
223.74
 10
201.04
 20
221.36
 10
197.94
 20
221.36
 10
197.94
 20
219.06
 10
191.826
 20
219.06
 10
191.826
 20
215.96
 10
185.631
 20
215.96
 10
185.631
 20
219.06
 10
179.597
 20
219.06
 10
179.597
 20
215.96
 10
173.403
 20
215.96
 10
173.403
 20
219.06
 10
167.369
 20
219.06
 10
167.369
 20
215.96
 10
161.174
 20
215.96
 10
161.174
 20
219.06
 10
155.06
 20
219.06
 10
155.06
 20
221.36
 10
151.96
 20
221.36
 10
151.96
 20
223.74
 10
155.06
 20
223.74
  0
LWPOLYLINE
  5
42
330
17
100
AcDbEntity
  8
CUT
100
AcDbPolyline
 90
4
 70
1
 10
160.14
 20
223.61
 10
192.86
 20
223.61
 10
192.86
 20
221.49
 10
160.14
 20
221.49
  0
HATCH
  5
43
330
17
100
AcDbEntity
  8
RASTER
 62
7
100
AcDbHatch
 10
0.0
 20
0.0
 30
0.0
210
0.0
220
0.0
230
1.0
  2
SOLID
 70
1
 71
0
 91
1
 92
3
 72
0
 73
1
 93
4
 10
155.7
 20
225.6
 10
159.5
 20
225.6
 10
159.5
 20
219.5
 10
155.7
 20
219.5
 97
0
 75
0
 76
1
 98
0
  0
HATCH
  5
44
330
17
100
AcDbEntity
  8
RASTER
 62
7
100
AcDbHatch
 10
0.0
 20
0.0
 30
0.0
210
0.0
220
0.0
230
1.0
  2
SOLID
 70
1
 71
0
 91
1
 92
3
 72
0
 73
1
 93
4
 10
193.5
 20
225.6
 10
197.3
 20
225.6
 10
197.3
 20
219.5
 10
193.5
 20
219.5
 97
0
 75
0
 76
1
 98
0
  0
HATCH
  5
45
330
17
100
AcDbEntity
  8
RASTER
 62
7
100
AcDbHatch
 10
0.0
 20
0.0
 30
0.0
210
0.0
220
0.0
230
1.0
  2
SOLID
 70
1
 71
0
 91
1
 92
3
 72
0
 73
1
 93
48
 10
162.2
 20
225.25
 10
162.196
 20
225.185
 10
162.183
 20
225.121
 10
162.162
 20
225.059
 10
162.133
 20
225.0
 10
162.097
 20
224.946
 10
162.054
 20
224.896
 10
162.004
 20
224.853
 10
161.95
 20
224.817
 10
161.891
 20
224.788
 10
161.829
 20
224.767
 10
161.765
 20
224.754
 10
161.7
 20
224.75
 10
161.635
 20
224.754
 10
161.571
 20
224.767
 10
161.509
 20
224.788
 10
161.45
 20
224.817
 10
161.396
 20
224.853
 10
161.346
 20
224.896
 10
161.303
 20
224.946
 10
161.267
 20
225.0
 10
161.238
 20
225.059
 10
161.217
 20
225.121
 10
161.204
 20
225.185
 10
161.2
 20
225.25
 10
161.204
 20
225.315
 10
161.217
 20
225.379
 10
161.238
 20
225.441
 10
161.267
 20
225.5
 10
161.303
 20
225.554
 10
161.346
 20
225.604
 10
161.396
 20
225.647
 10
161.45
 20
225.683
 10
161.509
 20
225.712
 10
161.571
 20
225.733
 10
161.635
 20
225.746
 10
161.7
 20
225.75
 10
161.765
 20
225.746
 10
161.829
 20
225.733
 10
161.891
 20
225.712
 10
161.95
 20
225.683
 10
162.004
 20
225.647
 10
162.054
 20
225.604
 10
162.097
 20
225.554
 10
162.133
 20
225.5
 10
162.162
 20
225.441
 10
162.183
 20
225.379
 10
162.196
 20
225.315
 97
0
 75
0
 76
1
 98
0
  0
HATCH
  5
46
330
17
100
AcDbEntity
  8
RASTER
 62
7
100
AcDbHatch
 10
0.0
 20
0.0
 30
0.0
210
0.0
220
0.0
230
1.0
  2
SOLID
 70
1
 71
0
 91
1
 92
3
 72
0
 73
1
 93
48
 10
191.8
 20
225.25
 10
191.796
 20
225.185
 10
191.783
 20
225.121
 10
191.762
 20
225.059
 10
191.733
 20
225.0
 10
191.697
 20
224.946
 10
191.654
 20
224.896
 10
191.604
 20
224.853
 10
191.55
 20
224.817
 10
191.491
 20
224.788
 10
191.429
 20
224.767
 10
191.365
 20
224.754
 10
191.3
 20
224.75
 10
191.235
 20
224.754
 10
191.171
 20
224.767
 10
191.109
 20
224.788
 10
191.05
 20
224.817
 10
190.996
 20
224.853
 10
190.946
 20
224.896
 10
190.903
 20
224.946
 10
190.867
 20
225.0
 10
190.838
 20
225.059
 10
190.817
 20
225.121
 10
190.804
 20
225.185
 10
190.8
 20
225.25
 10
190.804
 20
225.315
 10
190.817
 20
225.379
 10
190.838
 20
225.441
 10
190.867
 20
225.5
 10
190.903
 20
225.554
 10
190.946
 20
225.604
 10
190.996
 20
225.647
 10
191.05
 20
225.683
 10
191.109
 20
225.712
 10
191.171
 20
225.733
 10
191.235
 20
225.746
 10
191.3
 20
225.75
 10
191.365
 20
225.746
 10
191.429
 20
225.733
 10
191.491
 20
225.712
 10
191.55
 20
225.683
 10
191.604
 20
225.647
 10
191.654
 20
225.604
 10
191.697
 20
225.554
 10
191.733
 20
225.5
 10
191.762
 20
225.441
 10
191.783
 20
225.379
 10
191.796
 20
225.315
 97
0
 75
0
 76
1
 98
0
  0
HATCH
  5
47
330
17
100
AcDbEntity
  8
RASTER
 62
7
100
AcDbHatch
 10
0.0
 20
0.0
 30
0.0
210
0.0
220
0.0
230
1.0
  2
SOLID
 70
1
 71
0
 91
1
 92
3
 72
0
 73
1
 93
48
 10
162.2
 20
219.85
 10
162.196
 20
219.785
 10
162.183
 20
219.721
 10
162.162
 20
219.659
 10
162.133
 20
219.6
 10
162.097
 20
219.546
 10
162.054
 20
219.496
 10
162.004
 20
219.453
 10
161.95
 20
219.417
 10
161.891
 20
219.388
 10
161.829
 20
219.367
 10
161.765
 20
219.354
 10
161.7
 20
219.35
 10
161.635
 20
219.354
 10
161.571
 20
219.367
 10
161.509
 20
219.388
 10
161.45
 20
219.417
 10
161.396
 20
219.453
 10
161.346
 20
219.496
 10
161.303
 20
219.546
 10
161.267
 20
219.6
 10
161.238
 20
219.659
 10
161.217
 20
219.721
 10
161.204
 20
219.785
 10
161.2
 20
219.85
 10
161.204
 20
219.915
 10
161.217
 20
219.979
 10
161.238
 20
220.041
 10
161.267
 20
220.1
 10
161.303
 20
220.154
 10
161.346
 20
220.204
 10
161.396
 20
220.247
 10
161.45
 20
220.283
 10
161.509
 20
220.312
 10
161.571
 20
220.333
 10
161.635
 20
220.346
 10
161.7
 20
220.35
 10
161.765
 20
220.346
 10
161.829
 20
220.333
 10
161.891
 20
220.312
 10
161.95
 20
220.283
 10
162.004
 20
220.247
 10
162.054
 20
220.204
 10
162.097
 20
220.154
 10
162.133
 20
220.1
 10
162.162
 20
220.041
 10
162.183
 20
219.979
 10
162.196
 20
219.915
 97
0
 75
0
 76
1
 98
0
  0
HATCH
  5
48
330
17
100
AcDbEntity
  8
RASTER
 62
7
100
AcDbHatch
 10
0.0
 20
0.0
 30
0.0
210
0.0
220
0.0
230
1.0
  2
SOLID
 70
1
 71
0
 91
1
 92
3
 72
0
 73
1
 93
48
 10
191.8
 20
219.85
 10
191.796
 20
219.785
 10
191.783
 20
219.721
 10
191.762
 20
219.659
 10
191.733
 20
219.6
 10
191.697
 20
219.546
 10
191.654
 20
219.496
 10
191.604
 20
219.453
 10
191.55
 20
219.417
 10
191.491
 20
219.388
 10
191.429
 20
219.367
 10
191.365
 20
219.354
 10
191.3
 20
219.35
 10
191.235
 20
219.354
 10
191.171
 20
219.367
 10
191.109
 20
219.388
 10
191.05
 20
219.417
 10
190.996
 20
219.453
 10
190.946
 20
219.496
 10
190.903
 20
219.546
 10
190.867
 20
219.6
 10
190.838
 20
219.659
 10
190.817
 20
219.721
 10
190.804
 20
219.785
 10
190.8
 20
219.85
 10
190.804
 20
219.915
 10
190.817
 20
219.979
 10
190.838
 20
220.041
 10
190.867
 20
220.1
 10
190.903
 20
220.154
 10
190.946
 20
220.204
 10
190.996
 20
220.247
 10
191.05
 20
220.283
 10
191.109
 20
220.312
 10
191.171
 20
220.333
 10
191.235
 20
220.346
 10
191.3
 20
220.35
 10
191.365
 20
220.346
 10
191.429
 20
220.333
 10
191.491
 20
220.312
 10
191.55
 20
220.283
 10
191.604
 20
220.247
 10
191.654
 20
220.204
 10
191.697
 20
220.154
 10
191.733
 20
220.1
 10
191.762
 20
220.041
 10
191.783
 20
219.979
 10
191.796
 20
219.915
 97
0
 75
0
 76
1
 98
0
  0
LWPOLYLINE
  5
49
330
17
100
AcDbEntity
  8
CUT
100
AcDbPolyline
 90
24
 70
1
 10
208.06
 20
226.04
 10
250.94
 20
226.04
 10
250.94
 20
223.74
 10
254.04
 20
223.74
 10
254.04
 20
221.36
 10
250.94
 20
221.36
 10
250.94
 20
219.06
 10
244.826
 20
219.06
 10
244.826
 20
215.96
 10
238.631
 20
215.96
 10
238.631
 20
219.06
 10
232.597
 20
219.06
 10
232.597
 20
215.96
 10
226.403
 20
215.96
 10
226.403
 20
219.06
 10
220.369
 20
219.06
 10
220.369
 20
215.96
 10
214.174
 20
215.96
 10
214.174
 20
219.06
 10
208.06
 20
219.06
 10
208.06
 20
221.36
 10
204.96
 20
221.36
 10
204.96
 20
223.74
 10
208.06
 20
223.74
  0
LWPOLYLINE
  5
4A
330
17
100
AcDbEntity
  8
CUT
100
AcDbPolyline
 90
4
 70
1
 10
213.14
 20
223.61
 10
245.86
 20
223.61
 10
245.86
 20
221.49
 10
213.14
 20
221.49
  0
HATCH
  5
4B
330
17
100
AcDbEntity
  8
RASTER
 62
7
100
AcDbHatch
 10
0.0
 20
0.0
 30
0.0
210
0.0
220
0.0
230
1.0
  2
SOLID
 70
1
 71
0
 91
1
 92
3
 72
0
 73
1
 93
4
 10
208.7
 20
225.6
 10
212.5
 20
225.6
 10
212.5
 20
219.5
 10
208.7
 20
219.5
 97
0
 75
0
 76
1
 98
0
  0
HATCH
  5
4C
330
17
100
AcDbEntity
  8
RASTER
 62
7
100
AcDbHatch
 10
0.0
 20
0.0
 30
0.0
210
0.0
220
0.0
230
1.0
  2
SOLID
 70
1
 71
0
 91
1
 92
3
 72
0
 73
1
 93
4
 10
246.5
 20
225.6
 10
250.3
 20
225.6
 10
250.3
 20
219.5
 10
246.5
 20
219.5
 97
0
 75
0
 76
1
 98
0
  0
HATCH
  5
4D
330
17
100
AcDbEntity
  8
RASTER
 62
7
100
AcDbHatch
 10
0.0
 20
0.0
 30
0.0
210
0.0
220
0.0
230
1.0
  2
SOLID
 70
1
 71
0
 91
1
 92
3
 72
0
 73
1
 93
48
 10
215.2
 20
225.25
 10
215.196
 20
225.185
 10
215.183
 20
225.121
 10
215.162
 20
225.059
 10
215.133
 20
225.0
 10
215.097
 20
224.946
 10
215.054
 20
224.896
 10
215.004
 20
224.853
 10
214.95
 20
224.817
 10
214.891
 20
224.788
 10
214.829
 20
224.767
 10
214.765
 20
224.754
 10
214.7
 20
224.75
 10
214.635
 20
224.754
 10
214.571
 20
224.767
 10
214.509
 20
224.788
 10
214.45
 20
224.817
 10
214.396
 20
224.853
 10
214.346
 20
224.896
 10
214.303
 20
224.946
 10
214.267
 20
225.0
 10
214.238
 20
225.059
 10
214.217
 20
225.121
 10
214.204
 20
225.185
 10
214.2
 20
225.25
 10
214.204
 20
225.315
 10
214.217
 20
225.379
 10
214.238
 20
225.441
 10
214.267
 20
225.5
 10
214.303
 20
225.554
 10
214.346
 20
225.604
 10
214.396
 20
225.647
 10
214.45
 20
225.683
 10
214.509
 20
225.712
 10
214.571
 20
225.733
 10
214.635
 20
225.746
 10
214.7
 20
225.75
 10
214.765
 20
225.746
 10
214.829
 20
225.733
 10
214.891
 20
225.712
 10
214.95
 20
225.683
 10
215.004
 20
225.647
 10
215.054
 20
225.604
 10
215.097
 20
225.554
 10
215.133
 20
225.5
 10
215.162
 20
225.441
 10
215.183
 20
225.379
 10
215.196
 20
225.315
 97
0
 75
0
 76
1
 98
0
  0
HATCH
  5
4E
330
17
100
AcDbEntity
  8
RASTER
 62
7
100
AcDbHatch
 10
0.0
 20
0.0
 30
0.0
210
0.0
220
0.0
230
1.0
  2
SOLID
 70
1
 71
0
 91
1
 92
3
 72
0
 73
1
 93
48
 10
244.8
 20
225.25
 10
244.796
 20
225.185
 10
244.783
 20
225.121
 10
244.762
 20
225.059
 10
244.733
 20
225.0
 10
244.697
 20
224.946
 10
244.654
 20
224.896
 10
244.604
 20
224.853
 10
244.55
 20
224.817
 10
244.491
 20
224.788
 10
244.429
 20
224.767
 10
244.365
 20
224.754
 10
244.3
 20
224.75
 10
244.235
 20
224.754
 10
244.171
 20
224.767
 10
244.109
 20
224.788
 10
244.05
 20
224.817
 10
243.996
 20
224.853
 10
243.946
 20
224.896
 10
243.903
 20
224.946
 10
243.867
 20
225.0
 10
243.838
 20
225.059
 10
243.817
 20
225.121
 10
243.804
 20
225.185
 10
243.8
 20
225.25
 10
243.804
 20
225.315
 10
243.817
 20
225.379
 10
243.838
 20
225.441
 10
243.867
 20
225.5
 10
243.903
 20
225.554
 10
243.946
 20
225.604
 10
243.996
 20
225.647
 10
244.05
 20
225.683
 10
244.109
 20
225.712
 10
244.171
 20
225.733
 10
244.235
 20
225.746
 10
244.3
 20
225.75
 10
244.365
 20
225.746
 10
244.429
 20
225.733
 10
244.491
 20
225.712
 10
244.55
 20
225.683
 10
244.604
 20
225.647
 10
244.654
 20
225.604
 10
244.697
 20
225.554
 10
244.733
 20
225.5
 10
244.762
 20
225.441
 10
244.783
 20
225.379
 10
244.796
 20
225.315
 97
0
 75
0
 76
1
 98
0
  0
HATCH
  5
4F
330
17
100
AcDbEntity
  8
RASTER
 62
7
100
AcDbHatch
 10
0.0
 20
0.0
 30
0.0
210
0.0
220
0.0
230
1.0
  2
SOLID
 70
1
 71
0
 91
1
 92
3
 72
0
 73
1
 93
48
 10
215.2
 20
219.85
 10
215.196
 20
219.785
 10
215.183
 20
219.721
 10
215.162
 20
219.659
 10
215.133
 20
219.6
 10
215.097
 20
219.546
 10
215.054
 20
219.496
 10
215.004
 20
219.453
 10
214.95
 20
219.417
 10
214.891
 20
219.388
 10
214.829
 20
219.367
 10
214.765
 20
219.354
 10
214.7
 20
219.35
 10
214.635
 20
219.354
 10
214.571
 20
219.367
 10
214.509
 20
219.388
 10
214.45
 20
219.417
 10
214.396
 20
219.453
 10
214.346
 20
219.496
 10
214.303
 20
219.546
 10
214.267
 20
219.6
 10
214.238
 20
219.659
 10
214.217
 20
219.721
 10
214.204
 20
219.785
 10
214.2
 20
219.85
 10
214.204
 20
219.915
 10
214.217
 20
219.979
 10
214.238
 20
220.041
 10
214.267
 20
220.1
 10
214.303
 20
220.154
 10
214.346
 20
220.204
 10
214.396
 20
220.247
 10
214.45
 20
220.283
 10
214.509
 20
220.312
 10
214.571
 20
220.333
 10
214.635
 20
220.346
 10
214.7
 20
220.35
 10
214.765
 20
220.346
 10
214.829
 20
220.333
 10
214.891
 20
220.312
 10
214.95
 20
220.283
 10
215.004
 20
220.247
 10
215.054
 20
220.204
 10
215.097
 20
220.154
 10
215.133
 20
220.1
 10
215.162
 20
220.041
 10
215.183
 20
219.979
 10
215.196
 20
219.915
 97
0
 75
0
 76
1
 98
0
  0
HATCH
  5
50
330
17
100
AcDbEntity
  8
RASTER
 62
7
100
AcDbHatch
 10
0.0
 20
0.0
 30
0.0
210
0.0
220
0.0
230
1.0
  2
SOLID
 70
1
 71
0
 91
1
 92
3
 72
0
 73
1
 93
48
 10
244.8
 20
219.85
 10
244.796
 20
219.785
 10
244.783
 20
219.721
 10
244.762
 20
219.659
 10
244.733
 20
219.6
 10
244.697
 20
219.546
 10
244.654
 20
219.496
 10
244.604
 20
219.453
 10
244.55
 20
219.417
 10
244.491
 20
219.388
 10
244.429
 20
219.367
 10
244.365
 20
219.354
 10
244.3
 20
219.35
 10
244.235
 20
219.354
 10
244.171
 20
219.367
 10
244.109
 20
219.388
 10
244.05
 20
219.417
 10
243.996
 20
219.453
 10
243.946
 20
219.496
 10
243.903
 20
219.546
 10
243.867
 20
219.6
 10
243.838
 20
219.659
 10
243.817
 20
219.721
 10
243.804
 20
219.785
 10
243.8
 20
219.85
 10
243.804
 20
219.915
 10
243.817
 20
219.979
 10
243.838
 20
220.041
 10
243.867
 20
220.1
 10
243.903
 20
220.154
 10
243.946
 20
220.204
 10
243.996
 20
220.247
 10
244.05
 20
220.283
 10
244.109
 20
220.312
 10
244.171
 20
220.333
 10
244.235
 20
220.346
 10
244.3
 20
220.35
 10
244.365
 20
220.346
 10
244.429
 20
220.333
 10
244.491
 20
220.312
 10
244.55
 20
220.283
 10
244.604
 20
220.247
 10
244.654
 20
220.204
 10
244.697
 20
220.154
 10
244.733
 20
220.1
 10
244.762
 20
220.041
 10
244.783
 20
219.979
 10
244.796
 20
219.915
 97
0
 75
0
 76
1
 98
0
  0
LWPOLYLINE
  5
51
330
17
100
AcDbEntity
  8
CUT
100
AcDbPolyline
 90
76
 70
1
 10
3.96
 20
212.04
 10
7.1
 20
212.04
 10
12.94
 20
212.04
 10
12.94
 20
208.94
 10
18.66
 20
208.94
 10
18.66
 20
212.04
 10
24.54
 20
212.04
 10
24.54
 20
208.94
 10
30.26
 20
208.94
 10
30.26
 20
212.04
 10
36.14
 20
212.04
 10
36.14
 20
208.94
 10
41.86
 20
208.94
 10
41.86
 20
212.04
 10
47.74
 20
212.04
 10
47.74
 20
208.94
 10
53.46
 20
208.94
 10
53.46
 20
212.04
 10
59.34
 20
212.04
 10
59.34
 20
208.94
 10
65.06
 20
208.94
 10
65.06
 20
212.04
 10
70.9
 20
212.04
 10
74.04
 20
212.04
 10
74.04
 20
208.9
 10
74.04
 20
202.746
 10
70.94
 20
202.746
 10
70.94
 20
196.711
 10
74.04
 20
196.711
 10
74.04
 20
190.517
 10
70.94
 20
190.517
 10
70.94
 20
184.483
 10
74.04
 20
184.483
 10
74.04
 20
178.289
 10
70.94
 20
178.289
 10
70.94
 20
172.254
 10
74.04
 20
172.254
 10
74.04
 20
166.1
 10
74.04
 20
162.96
 10
70.9
 20
162.96
 10
65.06
 20
162.96
 10
65.06
 20
166.06
 10
59.34
 20
166.06
 10
59.34
 20
162.96
 10
53.46
 20
162.96
 10
53.46
 20
166.06
 10
47.74
 20
166.06
 10
47.74
 20
162.96
 10
41.86
 20
162.96
 10
41.86
 20
166.06
 10
36.14
 20
166.06
 10
36.14
 20
162.96
 10
30.26
 20
162.96
 10
30.26
 20
166.06
 10
24.54
 20
166.06
 10
24.54
 20
162.96
 10
18.66
 20
162.96
 10
18.66
 20
166.06
 10
12.94
 20
166.06
 10
12.94
 20
162.96
 10
7.1
 20
162.96
 10
3.96
 20
162.96
 10
3.96
 20
166.1
 10
3.96
 20
172.254
 10
7.06
 20
172.254
 10
7.06
 20
178.289
 10
3.96
 20
178.289
 10
3.96
 20
184.483
 10
7.06
 20
184.483
 10
7.06
 20
190.517
 10
3.96
 20
190.517
 10
3.96
 20
196.711
 10
7.06
 20
196.711
 10
7.06
 20
202.746
 10
3.96
 20
202.746
 10
3.96
 20
208.9
  0
LWPOLYLINE
  5
52
330
17
100
AcDbEntity
  8
CUT
100
AcDbPolyline
 90
36
 70
1
 10
81.1
 20
212.04
 10
144.9
 20
212.04
 10
148.04
 20
212.04
 10
148.04
 20
209.66
 10
144.94
 20
209.66
 10
144.94
 20
207.44
 10
148.04
 20
207.44
 10
148.04
 20
205.06
 10
144.9
 20
205.06
 10
139.14
 20
205.06
 10
139.14
 20
201.96
 10
133.26
 20
201.96
 10
133.26
 20
205.06
 10
127.54
 20
205.06
 10
127.54
 20
201.96
 10
121.66
 20
201.96
 10
121.66
 20
205.06
 10
115.94
 20
205.06
 10
115.94
 20
201.96
 10
110.06
 20
201.96
 10
110.06
 20
205.06
 10
104.34
 20
205.06
 10
104.34
 20
201.96
 10
98.46
 20
201.96
 10
98.46
 20
205.06
 10
92.74
 20
205.06
 10
92.74
 20
201.96
 10
86.86
 20
201.96
 10
86.86
 20
205.06
 10
81.1
 20
205.06
 10
77.96
 20
205.06
 10
77.96
 20
207.44
 10
81.06
 20
207.44
 10
81.06
 20
209.66
 10
77.96
 20
209.66
 10
77.96
 20
212.04
  0
LWPOLYLINE
  5
53
330
17
100
AcDbEntity
  8
CUT
100
AcDbPolyline
 90
4
 70
1
 10
86.14
 20
209.61
 10
139.86
 20
209.61
 10
139.86
 20
207.49
 10
86.14
 20
207.49
  0
HATCH
  5
54
330
17
100
AcDbEntity
  8
RASTER
 62
7
100
AcDbHatch
 10
0.0
 20
0.0
 30
0.0
210
0.0
220
0.0
230
1.0
  2
SOLID
 70
1
 71
0
 91
1
 92
3
 72
0
 73
1
 93
4
 10
81.7
 20
211.6
 10
85.5
 20
211.6
 10
85.5
 20
205.5
 10
81.7
 20
205.5
 97
0
 75
0
 76
1
 98
0
  0
HATCH
  5
55
330
17
100
AcDbEntity
  8
RASTER
 62
7
100
AcDbHatch
 10
0.0
 20
0.0
 30
0.0
210
0.0
220
0.0
230
1.0
  2
SOLID
 70
1
 71
0
 91
1
 92
3
 72
0
 73
1
 93
4
 10
140.5
 20
211.6
 10
144.3
 20
211.6
 10
144.3
 20
205.5
 10
140.5
 20
205.5
 97
0
 75
0
 76
1
 98
0
  0
HATCH
  5
56
330
17
100
AcDbEntity
  8
RASTER
 62
7
100
AcDbHatch
 10
0.0
 20
0.0
 30
0.0
210
0.0
220
0.0
230
1.0
  2
SOLID
 70
1
 71
0
 91
1
 92
3
 72
0
 73
1
 93
48
 10
88.2
 20
211.25
 10
88.196
 20
211.185
 10
88.183
 20
211.121
 10
88.162
 20
211.059
 10
88.133
 20
211.0
 10
88.097
 20
210.946
 10
88.054
 20
210.896
 10
88.004
 20
210.853
 10
87.95
 20
210.817
 10
87.891
 20
210.788
 10
87.829
 20
210.767
 10
87.765
 20
210.754
 10
87.7
 20
210.75
 10
87.635
 20
210.754
 10
87.571
 20
210.767
 10
87.509
 20
210.788
 10
87.45
 20
210.817
 10
87.396
 20
210.853
 10
87.346
 20
210.896
 10
87.303
 20
210.946
 10
87.267
 20
211.0
 10
87.238
 20
211.059
 10
87.217
 20
211.121
 10
87.204
 20
211.185
 10
87.2
 20
211.25
 10
87.204
 20
211.315
 10
87.217
 20
211.379
 10
87.238
 20
211.441
 10
87.267
 20
211.5
 10
87.303
 20
211.554
 10
87.346
 20
211.604
 10
87.396
 20
211.647
 10
87.45
 20
211.683
 10
87.509
 20
211.712
 10
87.571
 20
211.733
 10
87.635
 20
211.746
 10
87.7
 20
211.75
 10
87.765
 20
211.746
 10
87.829
 20
211.733
 10
87.891
 20
211.712
 10
87.95
 20
211.683
 10
88.004
 20
211.647
 10
88.054
 20
211.604
 10
88.097
 20
211.554
 10
88.133
 20
211.5
 10
88.162
 20
211.441
 10
88.183
 20
211.379
 10
88.196
 20
211.315
 97
0
 75
0
 76
1
 98
0
  0
HATCH
  5
57
330
17
100
AcDbEntity
  8
RASTER
 62
7
100
AcDbHatch
 10
0.0
 20
0.0
 30
0.0
210
0.0
220
0.0
230
1.0
  2
SOLID
 70
1
 71
0
 91
1
 92
3
 72
0
 73
1
 93
48
 10
138.8
 20
211.25
 10
138.796
 20
211.185
 10
138.783
 20
211.121
 10
138.762
 20
211.059
 10
138.733
 20
211.0
 10
138.697
 20
210.946
 10
138.654
 20
210.896
 10
138.604
 20
210.853
 10
138.55
 20
210.817
 10
138.491
 20
210.788
 10
138.429
 20
210.767
 10
138.365
 20
210.754
 10
138.3
 20
210.75
 10
138.235
 20
210.754
 10
138.171
 20
210.767
 10
138.109
 20
210.788
 10
138.05
 20
210.817
 10
137.996
 20
210.853
 10
137.946
 20
210.896
 10
137.903
 20
210.946
 10
137.867
 20
211.0
 10
137.838
 20
211.059
 10
137.817
 20
211.121
 10
137.804
 20
211.185
 10
137.8
 20
211.25
 10
137.804
 20
211.315
 10
137.817
 20
211.379
 10
137.838
 20
211.441
 10
137.867
 20
211.5
 10
137.903
 20
211.554
 10
137.946
 20
211.604
 10
137.996
 20
211.647
 10
138.05
 20
211.683
 10
138.109
 20
211.712
 10
138.171
 20
211.733
 10
138.235
 20
211.746
 10
138.3
 20
211.75
 10
138.365
 20
211.746
 10
138.429
 20
211.733
 10
138.491
 20
211.712
 10
138.55
 20
211.683
 10
138.604
 20
211.647
 10
138.654
 20
211.604
 10
138.697
 20
211.554
 10
138.733
 20
211.5
 10
138.762
 20
211.441
 10
138.783
 20
211.379
 10
138.796
 20
211.315
 97
0
 75
0
 76
1
 98
0
  0
HATCH
  5
58
330
17
100
AcDbEntity
  8
RASTER
 62
7
100
AcDbHatch
 10
0.0
 20
0.0
 30
0.0
210
0.0
220
0.0
230
1.0
  2
SOLID
 70
1
 71
0
 91
1
 92
3
 72
0
 73
1
 93
48
 10
88.2
 20
205.85
 10
88.196
 20
205.785
 10
88.183
 20
205.721
 10
88.162
 20
205.659
 10
88.133
 20
205.6
 10
88.097
 20
205.546
 10
88.054
 20
205.496
 10
88.004
 20
205.453
 10
87.95
 20
205.417
 10
87.891
 20
205.388
 10
87.829
 20
205.367
 10
87.765
 20
205.354
 10
87.7
 20
205.35
 10
87.635
 20
205.354
 10
87.571
 20
205.367
 10
87.509
 20
205.388
 10
87.45
 20
205.417
 10
87.396
 20
205.453
 10
87.346
 20
205.496
 10
87.303
 20
205.546
 10
87.267
 20
205.6
 10
87.238
 20
205.659
 10
87.217
 20
205.721
 10
87.204
 20
205.785
 10
87.2
 20
205.85
 10
87.204
 20
205.915
 10
87.217
 20
205.979
 10
87.238
 20
206.041
 10
87.267
 20
206.1
 10
87.303
 20
206.154
 10
87.346
 20
206.204
 10
87.396
 20
206.247
 10
87.45
 20
206.283
 10
87.509
 20
206.312
 10
87.571
 20
206.333
 10
87.635
 20
206.346
 10
87.7
 20
206.35
 10
87.765
 20
206.346
 10
87.829
 20
206.333
 10
87.891
 20
206.312
 10
87.95
 20
206.283
 10
88.004
 20
206.247
 10
88.054
 20
206.204
 10
88.097
 20
206.154
 10
88.133
 20
206.1
 10
88.162
 20
206.041
 10
88.183
 20
205.979
 10
88.196
 20
205.915
 97
0
 75
0
 76
1
 98
0
  0
HATCH
  5
59
330
17
100
AcDbEntity
  8
RASTER
 62
7
100
AcDbHatch
 10
0.0
 20
0.0
 30
0.0
210
0.0
220
0.0
230
1.0
  2
SOLID
 70
1
 71
0
 91
1
 92
3
 72
0
 73
1
 93
48
 10
138.8
 20
205.85
 10
138.796
 20
205.785
 10
138.783
 20
205.721
 10
138.762
 20
205.659
 10
138.733
 20
205.6
 10
138.697
 20
205.546
 10
138.654
 20
205.496
 10
138.604
 20
205.453
 10
138.55
 20
205.417
 10
138.491
 20
205.388
 10
138.429
 20
205.367
 10
138.365
 20
205.354
 10
138.3
 20
205.35
 10
138.235
 20
205.354
 10
138.171
 20
205.367
 10
138.109
 20
205.388
 10
138.05
 20
205.417
 10
137.996
 20
205.453
 10
137.946
 20
205.496
 10
137.903
 20
205.546
 10
137.867
 20
205.6
 10
137.838
 20
205.659
 10
137.817
 20
205.721
 10
137.804
 20
205.785
 10
137.8
 20
205.85
 10
137.804
 20
205.915
 10
137.817
 20
205.979
 10
137.838
 20
206.041
 10
137.867
 20
206.1
 10
137.903
 20
206.154
 10
137.946
 20
206.204
 10
137.996
 20
206.247
 10
138.05
 20
206.283
 10
138.109
 20
206.312
 10
138.171
 20
206.333
 10
138.235
 20
206.346
 10
138.3
 20
206.35
 10
138.365
 20
206.346
 10
138.429
 20
206.333
 10
138.491
 20
206.312
 10
138.55
 20
206.283
 10
138.604
 20
206.247
 10
138.654
 20
206.204
 10
138.697
 20
206.154
 10
138.733
 20
206.1
 10
138.762
 20
206.041
 10
138.783
 20
205.979
 10
138.796
 20
205.915
 97
0
 75
0
 76
1
 98
0
  0
LWPOLYLINE
  5
5A
330
17
100
AcDbEntity
  8
CUT
100
AcDbPolyline
 90
36
 70
1
 10
155.1
 20
212.04
 10
218.9
 20
212.04
 10
222.04
 20
212.04
 10
222.04
 20
209.66
 10
218.94
 20
209.66
 10
218.94
 20
207.44
 10
222.04
 20
207.44
 10
222.04
 20
205.06
 10
218.9
 20
205.06
 10
213.14
 20
205.06
 10
213.14
 20
201.96
 10
207.26
 20
201.96
 10
207.26
 20
205.06
 10
201.54
 20
205.06
 10
201.54
 20
201.96
 10
195.66
 20
201.96
 10
195.66
 20
205.06
 10
189.94
 20
205.06
 10
189.94
 20
201.96
 10
184.06
 20
201.96
 10
184.06
 20
205.06
 10
178.34
 20
205.06
 10
178.34
 20
201.96
 10
172.46
 20
201.96
 10
172.46
 20
205.06
 10
166.74
 20
205.06
 10
166.74
 20
201.96
 10
160.86
 20
201.96
 10
160.86
 20
205.06
 10
155.1
 20
205.06
 10
151.96
 20
205.06
 10
151.96
 20
207.44
 10
155.06
 20
207.44
 10
155.06
 20
209.66
 10
151.96
 20
209.66
 10
151.96
 20
212.04
  0
LWPOLYLINE
  5
5B
330
17
100
AcDbEntity
  8
CUT
100
AcDbPolyline
 90
4
 70
1
 10
160.14
 20
209.61
 10
213.86
 20
209.61
 10
213.86
 20
207.49
 10
160.14
 20
207.49
  0
HATCH
  5
5C
330
17
100
AcDbEntity
  8
RASTER
 62
7
100
AcDbHatch
 10
0.0
 20
0.0
 30
0.0
210
0.0
220
0.0
230
1.0
  2
SOLID
 70
1
 71
0
 91
1
 92
3
 72
0
 73
1
 93
4
 10
155.7
 20
211.6
 10
159.5
 20
211.6
 10
159.5
 20
205.5
 10
155.7
 20
205.5
 97
0
 75
0
 76
1
 98
0
  0
HATCH
  5
5D
330
17
100
AcDbEntity
  8
RASTER
 62
7
100
AcDbHatch
 10
0.0
 20
0.0
 30
0.0
210
0.0
220
0.0
230
1.0
  2
SOLID
 70
1
 71
0
 91
1
 92
3
 72
0
 73
1
 93
4
 10
214.5
 20
211.6
 10
218.3
 20
211.6
 10
218.3
 20
205.5
 10
214.5
 20
205.5
 97
0
 75
0
 76
1
 98
0
  0
HATCH
  5
5E
330
17
100
AcDbEntity
  8
RASTER
 62
7
100
AcDbHatch
 10
0.0
 20
0.0
 30
0.0
210
0.0
220
0.0
230
1.0
  2
SOLID
 70
1
 71
0
 91
1
 92
3
 72
0
 73
1
 93
48
 10
162.2
 20
211.25
 10
162.196
 20
211.185
 10
162.183
 20
211.121
 10
162.162
 20
211.059
 10
162.133
 20
211.0
 10
162.097
 20
210.946
 10
162.054
 20
210.896
 10
162.004
 20
210.853
 10
161.95
 20
210.817
 10
161.891
 20
210.788
 10
161.829
 20
210.767
 10
161.765
 20
210.754
 10
161.7
 20
210.75
 10
161.635
 20
210.754
 10
161.571
 20
210.767
 10
161.509
 20
210.788
 10
161.45
 20
210.817
 10
161.396
 20
210.853
 10
161.346
 20
210.896
 10
161.303
 20
210.946
 10
161.267
 20
211.0
 10
161.238
 20
211.059
 10
161.217
 20
211.121
 10
161.204
 20
211.185
 10
161.2
 20
211.25
 10
161.204
 20
211.315
 10
161.217
 20
211.379
 10
161.238
 20
211.441
 10
161.267
 20
211.5
 10
161.303
 20
211.554
 10
161.346
 20
211.604
 10
161.396
 20
211.647
 10
161.45
 20
211.683
 10
161.509
 20
211.712
 10
161.571
 20
211.733
 10
161.635
 20
211.746
 10
161.7
 20
211.75
 10
161.765
 20
211.746
 10
161.829
 20
211.733
 10
161.891
 20
211.712
 10
161.95
 20
211.683
 10
162.004
 20
211.647
 10
162.054
 20
211.604
 10
162.097
 20
211.554
 10
162.133
 20
211.5
 10
162.162
 20
211.441
 10
162.183
 20
211.379
 10
162.196
 20
211.315
 97
0
 75
0
 76
1
 98
0
  0
HATCH
  5
5F
330
17
100
AcDbEntity
  8
RASTER
 62
7
100
AcDbHatch
 10
0.0
 20
0.0
 30
0.0
210
0.0
220
0.0
230
1.0
  2
SOLID
 70
1
 71
0
 91
1
 92
3
 72
0
 73
1
 93
48
 10
212.8
 20
211.25
 10
212.796
 20
211.185
 10
212.783
 20
211.121
 10
212.762
 20
211.059
 10
212.733
 20
211.0
 10
212.697
 20
210.946
 10
212.654
 20
210.896
 10
212.604
 20
210.853
 10
212.55
 20
210.817
 10
212.491
 20
210.788
 10
212.429
 20
210.767
 10
212.365
 20
210.754
 10
212.3
 20
210.75
 10
212.235
 20
210.754
 10
212.171
 20
210.767
 10
212.109
 20
210.788
 10
212.05
 20
210.817
 10
211.996
 20
210.853
 10
211.946
 20
210.896
 10
211.903
 20
210.946
 10
211.867
 20
211.0
 10
211.838
 20
211.059
 10
211.817
 20
211.121
 10
211.804
 20
211.185
 10
211.8
 20
211.25
 10
211.804
 20
211.315
 10
211.817
 20
211.379
 10
211.838
 20
211.441
 10
211.867
 20
211.5
 10
211.903
 20
211.554
 10
211.946
 20
211.604
 10
211.996
 20
211.647
 10
212.05
 20
211.683
 10
212.109
 20
211.712
 10
212.171
 20
211.733
 10
212.235
 20
211.746
 10
212.3
 20
211.75
 10
212.365
 20
211.746
 10
212.429
 20
211.733
 10
212.491
 20
211.712
 10
212.55
 20
211.683
 10
212.604
 20
211.647
 10
212.654
 20
211.604
 10
212.697
 20
211.554
 10
212.733
 20
211.5
 10
212.762
 20
211.441
 10
212.783
 20
211.379
 10
212.796
 20
211.315
 97
0
 75
0
 76
1
 98
0
  0
HATCH
  5
60
330
17
100
AcDbEntity
  8
RASTER
 62
7
100
AcDbHatch
 10
0.0
 20
0.0
 30
0.0
210
0.0
220
0.0
230
1.0
  2
SOLID
 70
1
 71
0
 91
1
 92
3
 72
0
 73
1
 93
48
 10
162.2
 20
205.85
 10
162.196
 20
205.785
 10
162.183
 20
205.721
 10
162.162
 20
205.659
 10
162.133
 20
205.6
 10
162.097
 20
205.546
 10
162.054
 20
205.496
 10
162.004
 20
205.453
 10
161.95
 20
205.417
 10
161.891
 20
205.388
 10
161.829
 20
205.367
 10
161.765
 20
205.354
 10
161.7
 20
205.35
 10
161.635
 20
205.354
 10
161.571
 20
205.367
 10
161.509
 20
205.388
 10
161.45
 20
205.417
 10
161.396
 20
205.453
 10
161.346
 20
205.496
 10
161.303
 20
205.546
 10
161.267
 20
205.6
 10
161.238
 20
205.659
 10
161.217
 20
205.721
 10
161.204
 20
205.785
 10
161.2
 20
205.85
 10
161.204
 20
205.915
 10
161.217
 20
205.979
 10
161.238
 20
206.041
 10
161.267
 20
206.1
 10
161.303
 20
206.154
 10
161.346
 20
206.204
 10
161.396
 20
206.247
 10
161.45
 20
206.283
 10
161.509
 20
206.312
 10
161.571
 20
206.333
 10
161.635
 20
206.346
 10
161.7
 20
206.35
 10
161.765
 20
206.346
 10
161.829
 20
206.333
 10
161.891
 20
206.312
 10
161.95
 20
206.283
 10
162.004
 20
206.247
 10
162.054
 20
206.204
 10
162.097
 20
206.154
 10
162.133
 20
206.1
 10
162.162
 20
206.041
 10
162.183
 20
205.979
 10
162.196
 20
205.915
 97
0
 75
0
 76
1
 98
0
  0
HATCH
  5
61
330
17
100
AcDbEntity
  8
RASTER
 62
7
100
AcDbHatch
 10
0.0
 20
0.0
 30
0.0
210
0.0
220
0.0
230
1.0
  2
SOLID
 70
1
 71
0
 91
1
 92
3
 72
0
 73
1
 93
48
 10
212.8
 20
205.85
 10
212.796
 20
205.785
 10
212.783
 20
205.721
 10
212.762
 20
205.659
 10
212.733
 20
205.6
 10
212.697
 20
205.546
 10
212.654
 20
205.496
 10
212.604
 20
205.453
 10
212.55
 20
205.417
 10
212.491
 20
205.388
 10
212.429
 20
205.367
 10
212.365
 20
205.354
 10
212.3
 20
205.35
 10
212.235
 20
205.354
 10
212.171
 20
205.367
 10
212.109
 20
205.388
 10
212.05
 20
205.417
 10
211.996
 20
205.453
 10
211.946
 20
205.496
 10
211.903
 20
205.546
 10
211.867
 20
205.6
 10
211.838
 20
205.659
 10
211.817
 20
205.721
 10
211.804
 20
205.785
 10
211.8
 20
205.85
 10
211.804
 20
205.915
 10
211.817
 20
205.979
 10
211.838
 20
206.041
 10
211.867
 20
206.1
 10
211.903
 20
206.154
 10
211.946
 20
206.204
 10
211.996
 20
206.247
 10
212.05
 20
206.283
 10
212.109
 20
206.312
 10
212.171
 20
206.333
 10
212.235
 20
206.346
 10
212.3
 20
206.35
 10
212.365
 20
206.346
 10
212.429
 20
206.333
 10
212.491
 20
206.312
 10
212.55
 20
206.283
 10
212.604
 20
206.247
 10
212.654
 20
206.204
 10
212.697
 20
206.154
 10
212.733
 20
206.1
 10
212.762
 20
206.041
 10
212.783
 20
205.979
 10
212.796
 20
205.915
 97
0
 75
0
 76
1
 98
0
  0
LWPOLYLINE
  5
62
330
17
100
AcDbEntity
  8
CUT
100
AcDbPolyline
 90
24
 70
1
 10
229.06
 20
212.04
 10
271.94
 20
212.04
 10
271.94
 20
209.74
 10
275.04
 20
209.74
 10
275.04
 20
207.36
 10
271.94
 20
207.36
 10
271.94
 20
205.06
 10
265.826
 20
205.06
 10
265.826
 20
201.96
 10
259.631
 20
201.96
 10
259.631
 20
205.06
 10
253.597
 20
205.06
 10
253.597
 20
201.96
 10
247.403
 20
201.96
 10
247.403
 20
205.06
 10
241.369
 20
205.06
 10
241.369
 20
201.96
 10
235.174
 20
201.96
 10
235.174
 20
205.06
 10
229.06
 20
205.06
 10
229.06
 20
207.36
 10
225.96
 20
207.36
 10
225.96
 20
209.74
 10
229.06
 20
209.74
  0
LWPOLYLINE
  5
63
330
17
100
AcDbEntity
  8
CUT
100
AcDbPolyline
 90
4
 70
1
 10
234.14
 20
209.61
 10
266.86
 20
209.61
 10
266.86
 20
207.49
 10
234.14
 20
207.49
  0
HATCH
  5
64
330
17
100
AcDbEntity
  8
RASTER
 62
7
100
AcDbHatch
 10
0.0
 20
0.0
 30
0.0
210
0.0
220
0.0
230
1.0
  2
SOLID
 70
1
 71
0
 91
1
 92
3
 72
0
 73
1
 93
4
 10
229.7
 20
211.6
 10
233.5
 20
211.6
 10
233.5
 20
205.5
 10
229.7
 20
205.5
 97
0
 75
0
 76
1
 98
0
  0
HATCH
  5
65
330
17
100
AcDbEntity
  8
RASTER
 62
7
100
AcDbHatch
 10
0.0
 20
0.0
 30
0.0
210
0.0
220
0.0
230
1.0
  2
SOLID
 70
1
 71
0
 91
1
 92
3
 72
0
 73
1
 93
4
 10
267.5
 20
211.6
 10
271.3
 20
211.6
 10
271.3
 20
205.5
 10
267.5
 20
205.5
 97
0
 75
0
 76
1
 98
0
  0
HATCH
  5
66
330
17
100
AcDbEntity
  8
RASTER
 62
7
100
AcDbHatch
 10
0.0
 20
0.0
 30
0.0
210
0.0
220
0.0
230
1.0
  2
SOLID
 70
1
 71
0
 91
1
 92
3
 72
0
 73
1
 93
48
 10
236.2
 20
211.25
 10
236.196
 20
211.185
 10
236.183
 20
211.121
 10
236.162
 20
211.059
 10
236.133
 20
211.0
 10
236.097
 20
210.946
 10
236.054
 20
210.896
 10
236.004
 20
210.853
 10
235.95
 20
210.817
 10
235.891
 20
210.788
 10
235.829
 20
210.767
 10
235.765
 20
210.754
 10
235.7
 20
210.75
 10
235.635
 20
210.754
 10
235.571
 20
210.767
 10
235.509
 20
210.788
 10
235.45
 20
210.817
 10
235.396
 20
210.853
 10
235.346
 20
210.896
 10
235.303
 20
210.946
 10
235.267
 20
211.0
 10
235.238
 20
211.059
 10
235.217
 20
211.121
 10
235.204
 20
211.185
 10
235.2
 20
211.25
 10
235.204
 20
211.315
 10
235.217
 20
211.379
 10
235.238
 20
211.441
 10
235.267
 20
211.5
 10
235.303
 20
211.554
 10
235.346
 20
211.604
 10
235.396
 20
211.647
 10
235.45
 20
211.683
 10
235.509
 20
211.712
 10
235.571
 20
211.733
 10
235.635
 20
211.746
 10
235.7
 20
211.75
 10
235.765
 20
211.746
 10
235.829
 20
211.733
 10
235.891
 20
211.712
 10
235.95
 20
211.683
 10
236.004
 20
211.647
 10
236.054
 20
211.604
 10
236.097
 20
211.554
 10
236.133
 20
211.5
 10
236.162
 20
211.441
 10
236.183
 20
211.379
 10
236.196
 20
211.315
 97
0
 75
0
 76
1
 98
0
  0
HATCH
  5
67
330
17
100
AcDbEntity
  8
RASTER
 62
7
100
AcDbHatch
 10
0.0
 20
0.0
 30
0.0
210
0.0
220
0.0
230
1.0
  2
SOLID
 70
1
 71
0
 91
1
 92
3
 72
0
 73
1
 93
48
 10
265.8
 20
211.25
 10
265.796
 20
211.185
 10
265.783
 20
211.121
 10
265.762
 20
211.059
 10
265.733
 20
211.0
 10
265.697
 20
210.946
 10
265.654
 20
210.896
 10
265.604
 20
210.853
 10
265.55
 20
210.817
 10
265.491
 20
210.788
 10
265.429
 20
210.767
 10
265.365
 20
210.754
 10
265.3
 20
210.75
 10
265.235
 20
210.754
 10
265.171
 20
210.767
 10
265.109
 20
210.788
 10
265.05
 20
210.817
 10
264.996
 20
210.853
 10
264.946
 20
210.896
 10
264.903
 20
210.946
 10
264.867
 20
211.0
 10
264.838
 20
211.059
 10
264.817
 20
211.121
 10
264.804
 20
211.185
 10
264.8
 20
211.25
 10
264.804
 20
211.315
 10
264.817
 20
211.379
 10
264.838
 20
211.441
 10
264.867
 20
211.5
 10
264.903
 20
211.554
 10
264.946
 20
211.604
 10
264.996
 20
211.647
 10
265.05
 20
211.683
 10
265.109
 20
211.712
 10
265.171
 20
211.733
 10
265.235
 20
211.746
 10
265.3
 20
211.75
 10
265.365
 20
211.746
 10
265.429
 20
211.733
 10
265.491
 20
211.712
 10
265.55
 20
211.683
 10
265.604
 20
211.647
 10
265.654
 20
211.604
 10
265.697
 20
211.554
 10
265.733
 20
211.5
 10
265.762
 20
211.441
 10
265.783
 20
211.379
 10
265.796
 20
211.315
 97
0
 75
0
 76
1
 98
0
  0
HATCH
  5
68
330
17
100
AcDbEntity
  8
RASTER
 62
7
100
AcDbHatch
 10
0.0
 20
0.0
 30
0.0
210
0.0
220
0.0
230
1.0
  2
SOLID
 70
1
 71
0
 91
1
 92
3
 72
0
 73
1
 93
48
 10
236.2
 20
205.85
 10
236.196
 20
205.785
 10
236.183
 20
205.721
 10
236.162
 20
205.659
 10
236.133
 20
205.6
 10
236.097
 20
205.546
 10
236.054
 20
205.496
 10
236.004
 20
205.453
 10
235.95
 20
205.417
 10
235.891
 20
205.388
 10
235.829
 20
205.367
 10
235.765
 20
205.354
 10
235.7
 20
205.35
 10
235.635
 20
205.354
 10
235.571
 20
205.367
 10
235.509
 20
205.388
 10
235.45
 20
205.417
 10
235.396
 20
205.453
 10
235.346
 20
205.496
 10
235.303
 20
205.546
 10
235.267
 20
205.6
 10
235.238
 20
205.659
 10
235.217
 20
205.721
 10
235.204
 20
205.785
 10
235.2
 20
205.85
 10
235.204
 20
205.915
 10
235.217
 20
205.979
 10
235.238
 20
206.041
 10
235.267
 20
206.1
 10
235.303
 20
206.154
 10
235.346
 20
206.204
 10
235.396
 20
206.247
 10
235.45
 20
206.283
 10
235.509
 20
206.312
 10
235.571
 20
206.333
 10
235.635
 20
206.346
 10
235.7
 20
206.35
 10
235.765
 20
206.346
 10
235.829
 20
206.333
 10
235.891
 20
206.312
 10
235.95
 20
206.283
 10
236.004
 20
206.247
 10
236.054
 20
206.204
 10
236.097
 20
206.154
 10
236.133
 20
206.1
 10
236.162
 20
206.041
 10
236.183
 20
205.979
 10
236.196
 20
205.915
 97
0
 75
0
 76
1
 98
0
  0
HATCH
  5
69
330
17
100
AcDbEntity
  8
RASTER
 62
7
100
AcDbHatch
 10
0.0
 20
0.0
 30
0.0
210
0.0
220
0.0
230
1.0
  2
SOLID
 70
1
 71
0
 91
1
 92
3
 72
0
 73
1
 93
48
 10
265.8
 20
205.85
 10
265.796
 20
205.785
 10
265.783
 20
205.721
 10
265.762
 20
205.659
 10
265.733
 20
205.6
 10
265.697
 20
205.546
 10
265.654
 20
205.496
 10
265.604
 20
205.453
 10
265.55
 20
205.417
 10
265.491
 20
205.388
 10
265.429
 20
205.367
 10
265.365
 20
205.354
 10
265.3
 20
205.35
 10
265.235
 20
205.354
 10
265.171
 20
205.367
 10
265.109
 20
205.388
 10
265.05
 20
205.417
 10
264.996
 20
205.453
 10
264.946
 20
205.496
 10
264.903
 20
205.546
 10
264.867
 20
205.6
 10
264.838
 20
205.659
 10
264.817
 20
205.721
 10
264.804
 20
205.785
 10
264.8
 20
205.85
 10
264.804
 20
205.915
 10
264.817
 20
205.979
 10
264.838
 20
206.041
 10
264.867
 20
206.1
 10
264.903
 20
206.154
 10
264.946
 20
206.204
 10
264.996
 20
206.247
 10
265.05
 20
206.283
 10
265.109
 20
206.312
 10
265.171
 20
206.333
 10
265.235
 20
206.346
 10
265.3
 20
206.35
 10
265.365
 20
206.346
 10
265.429
 20
206.333
 10
265.491
 20
206.312
 10
265.55
 20
206.283
 10
265.604
 20
206.247
 10
265.654
 20
206.204
 10
265.697
 20
206.154
 10
265.733
 20
206.1
 10
265.762
 20
206.041
 10
265.783
 20
205.979
 10
265.796
 20
205.915
 97
0
 75
0
 76
1
 98
0
  0
LWPOLYLINE
  5
6A
330
17
100
AcDbEntity
  8
CUT
100
AcDbPolyline
 90
24
 70
1
 10
7.06
 20
159.04
 10
49.94
 20
159.04
 10
49.94
 20
156.74
 10
53.04
 20
156.74
 10
53.04
 20
154.36
 10
49.94
 20
154.36
 10
49.94
 20
152.06
 10
43.826
 20
152.06
 10
43.826
 20
148.96
 10
37.631
 20
148.96
 10
37.631
 20
152.06
 10
31.597
 20
152.06
 10
31.597
 20
148.96
 10
25.403
 20
148.96
 10
25.403
 20
152.06
 10
19.369
 20
152.06
 10
19.369
 20
148.96
 10
13.174
 20
148.96
 10
13.174
 20
152.06
 10
7.06
 20
152.06
 10
7.06
 20
154.36
 10
3.96
 20
154.36
 10
3.96
 20
156.74
 10
7.06
 20
156.74
  0
LWPOLYLINE
  5
6B
330
17
100
AcDbEntity
  8
CUT
100
AcDbPolyline
 90
4
 70
1
 10
12.14
 20
156.61
 10
44.86
 20
156.61
 10
44.86
 20
154.49
 10
12.14
 20
154.49
  0
HATCH
  5
6C
330
17
100
AcDbEntity
  8
RASTER
 62
7
100
AcDbHatch
 10
0.0
 20
0.0
 30
0.0
210
0.0
220
0.0
230
1.0
  2
SOLID
 70
1
 71
0
 91
1
 92
3
 72
0
 73
1
 93
4
 10
7.7
 20
158.6
 10
11.5
 20
158.6
 10
11.5
 20
152.5
 10
7.7
 20
152.5
 97
0
 75
0
 76
1
 98
0
  0
HATCH
  5
6D
330
17
100
AcDbEntity
  8
RASTER
 62
7
100
AcDbHatch
 10
0.0
 20
0.0
 30
0.0
210
0.0
220
0.0
230
1.0
  2
SOLID
 70
1
 71
0
 91
1
 92
3
 72
0
 73
1
 93
4
 10
45.5
 20
158.6
 10
49.3
 20
158.6
 10
49.3
 20
152.5
 10
45.5
 20
152.5
 97
0
 75
0
 76
1
 98
0
  0
HATCH
  5
6E
330
17
100
AcDbEntity
  8
RASTER
 62
7
100
AcDbHatch
 10
0.0
 20
0.0
 30
0.0
210
0.0
220
0.0
230
1.0
  2
SOLID
 70
1
 71
0
 91
1
 92
3
 72
0
 73
1
 93
48
 10
14.2
 20
158.25
 10
14.196
 20
158.185
 10
14.183
 20
158.121
 10
14.162
 20
158.059
 10
14.133
 20
158.0
 10
14.097
 20
157.946
 10
14.054
 20
157.896
 10
14.004
 20
157.853
 10
13.95
 20
157.817
 10
13.891
 20
157.788
 10
13.829
 20
157.767
 10
13.765
 20
157.754
 10
13.7
 20
157.75
 10
13.635
 20
157.754
 10
13.571
 20
157.767
 10
13.509
 20
157.788
 10
13.45
 20
157.817
 10
13.396
 20
157.853
 10
13.346
 20
157.896
 10
13.303
 20
157.946
 10
13.267
 20
158.0
 10
13.238
 20
158.059
 10
13.217
 20
158.121
 10
13.204
 20
158.185
 10
13.2
 20
158.25
 10
13.204
 20
158.315
 10
13.217
 20
158.379
 10
13.238
 20
158.441
 10
13.267
 20
158.5
 10
13.303
 20
158.554
 10
13.346
 20
158.604
 10
13.396
 20
158.647
 10
13.45
 20
158.683
 10
13.509
 20
158.712
 10
13.571
 20
158.733
 10
13.635
 20
158.746
 10
13.7
 20
158.75
 10
13.765
 20
158.746
 10
13.829
 20
158.733
 10
13.891
 20
158.712
 10
13.95
 20
158.683
 10
14.004
 20
158.647
 10
14.054
 20
158.604
 10
14.097
 20
158.554
 10
14.133
 20
158.5
 10
14.162
 20
158.441
 10
14.183
 20
158.379
 10
14.196
 20
158.315
 97
0
 75
0
 76
1
 98
0
  0
HATCH
  5
6F
330
17
100
AcDbEntity
  8
RASTER
 62
7
100
AcDbHatch
 10
0.0
 20
0.0
 30
0.0
210
0.0
220
0.0
230
1.0
  2
SOLID
 70
1
 71
0
 91
1
 92
3
 72
0
 73
1
 93
48
 10
43.8
 20
158.25
 10
43.796
 20
158.185
 10
43.783
 20
158.121
 10
43.762
 20
158.059
 10
43.733
 20
158.0
 10
43.697
 20
157.946
 10
43.654
 20
157.896
 10
43.604
 20
157.853
 10
43.55
 20
157.817
 10
43.491
 20
157.788
 10
43.429
 20
157.767
 10
43.365
 20
157.754
 10
43.3
 20
157.75
 10
43.235
 20
157.754
 10
43.171
 20
157.767
 10
43.109
 20
157.788
 10
43.05
 20
157.817
 10
42.996
 20
157.853
 10
42.946
 20
157.896
 10
42.903
 20
157.946
 10
42.867
 20
158.0
 10
42.838
 20
158.059
 10
42.817
 20
158.121
 10
42.804
 20
158.185
 10
42.8
 20
158.25
 10
42.804
 20
158.315
 10
42.817
 20
158.379
 10
42.838
 20
158.441
 10
42.867
 20
158.5
 10
42.903
 20
158.554
 10
42.946
 20
158.604
 10
42.996
 20
158.647
 10
43.05
 20
158.683
 10
43.109
 20
158.712
 10
43.171
 20
158.733
 10
43.235
 20
158.746
 10
43.3
 20
158.75
 10
43.365
 20
158.746
 10
43.429
 20
158.733
 10
43.491
 20
158.712
 10
43.55
 20
158.683
 10
43.604
 20
158.647
 10
43.654
 20
158.604
 10
43.697
 20
158.554
 10
43.733
 20
158.5
 10
43.762
 20
158.441
 10
43.783
 20
158.379
 10
43.796
 20
158.315
 97
0
 75
0
 76
1
 98
0
  0
HATCH
  5
70
330
17
100
AcDbEntity
  8
RASTER
 62
7
100
AcDbHatch
 10
0.0
 20
0.0
 30
0.0
210
0.0
220
0.0
230
1.0
  2
SOLID
 70
1
 71
0
 91
1
 92
3
 72
0
 73
1
 93
48
 10
14.2
 20
152.85
 10
14.196
 20
152.785
 10
14.183
 20
152.721
 10
14.162
 20
152.659
 10
14.133
 20
152.6
 10
14.097
 20
152.546
 10
14.054
 20
152.496
 10
14.004
 20
152.453
 10
13.95
 20
152.417
 10
13.891
 20
152.388
 10
13.829
 20
152.367
 10
13.765
 20
152.354
 10
13.7
 20
152.35
 10
13.635
 20
152.354
 10
13.571
 20
152.367
 10
13.509
 20
152.388
 10
13.45
 20
152.417
 10
13.396
 20
152.453
 10
13.346
 20
152.496
 10
13.303
 20
152.546
 10
13.267
 20
152.6
 10
13.238
 20
152.659
 10
13.217
 20
152.721
 10
13.204
 20
152.785
 10
13.2
 20
152.85
 10
13.204
 20
152.915
 10
13.217
 20
152.979
 10
13.238
 20
153.041
 10
13.267
 20
153.1
 10
13.303
 20
153.154
 10
13.346
 20
153.204
 10
13.396
 20
153.247
 10
13.45
 20
153.283
 10
13.509
 20
153.312
 10
13.571
 20
153.333
 10
13.635
 20
153.346
 10
13.7
 20
153.35
 10
13.765
 20
153.346
 10
13.829
 20
153.333
 10
13.891
 20
153.312
 10
13.95
 20
153.283
 10
14.004
 20
153.247
 10
14.054
 20
153.204
 10
14.097
 20
153.154
 10
14.133
 20
153.1
 10
14.162
 20
153.041
 10
14.183
 20
152.979
 10
14.196
 20
152.915
 97
0
 75
0
 76
1
 98
0
  0
HATCH
  5
71
330
17
100
AcDbEntity
  8
RASTER
 62
7
100
AcDbHatch
 10
0.0
 20
0.0
 30
0.0
210
0.0
220
0.0
230
1.0
  2
SOLID
 70
1
 71
0
 91
1
 92
3
 72
0
 73
1
 93
48
 10
43.8
 20
152.85
 10
43.796
 20
152.785
 10
43.783
 20
152.721
 10
43.762
 20
152.659
 10
43.733
 20
152.6
 10
43.697
 20
152.546
 10
43.654
 20
152.496
 10
43.604
 20
152.453
 10
43.55
 20
152.417
 10
43.491
 20
152.388
 10
43.429
 20
152.367
 10
43.365
 20
152.354
 10
43.3
 20
152.35
 10
43.235
 20
152.354
 10
43.171
 20
152.367
 10
43.109
 20
152.388
 10
43.05
 20
152.417
 10
42.996
 20
152.453
 10
42.946
 20
152.496
 10
42.903
 20
152.546
 10
42.867
 20
152.6
 10
42.838
 20
152.659
 10
42.817
 20
152.721
 10
42.804
 20
152.785
 10
42.8
 20
152.85
 10
42.804
 20
152.915
 10
42.817
 20
152.979
 10
42.838
 20
153.041
 10
42.867
 20
153.1
 10
42.903
 20
153.154
 10
42.946
 20
153.204
 10
42.996
 20
153.247
 10
43.05
 20
153.283
 10
43.109
 20
153.312
 10
43.171
 20
153.333
 10
43.235
 20
153.346
 10
43.3
 20
153.35
 10
43.365
 20
153.346
 10
43.429
 20
153.333
 10
43.491
 20
153.312
 10
43.55
 20
153.283
 10
43.604
 20
153.247
 10
43.654
 20
153.204
 10
43.697
 20
153.154
 10
43.733
 20
153.1
 10
43.762
 20
153.041
 10
43.783
 20
152.979
 10
43.796
 20
152.915
 97
0
 75
0
 76
1
 98
0
  0
LWPOLYLINE
  5
72
330
17
100
AcDbEntity
  8
CUT
100
AcDbPolyline
 90
76
 70
1
 10
56.96
 20
159.04
 10
60.1
 20
159.04
 10
65.94
 20
159.04
 10
65.94
 20
155.94
 10
71.66
 20
155.94
 10
71.66
 20
159.04
 10
77.54
 20
159.04
 10
77.54
 20
155.94
 10
83.26
 20
155.94
 10
83.26
 20
159.04
 10
89.14
 20
159.04
 10
89.14
 20
155.94
 10
94.86
 20
155.94
 10
94.86
 20
159.04
 10
100.74
 20
159.04
 10
100.74
 20
155.94
 10
106.46
 20
155.94
 10
106.46
 20
159.04
 10
112.34
 20
159.04
 10
112.34
 20
155.94
 10
118.06
 20
155.94
 10
118.06
 20
159.04
 10
123.9
 20
159.04
 10
127.04
 20
159.04
 10
127.04
 20
155.9
 10
127.04
 20
149.746
 10
123.94
 20
149.746
 10
123.94
 20
143.711
 10
127.04
 20
143.711
 10
127.04
 20
137.517
 10
123.94
 20
137.517
 10
123.94
 20
131.483
 10
127.04
 20
131.483
 10
127.04
 20
125.289
 10
123.94
 20
125.289
 10
123.94
 20
119.254
 10
127.04
 20
119.254
 10
127.04
 20
113.1
 10
127.04
 20
109.96
 10
123.9
 20
109.96
 10
118.06
 20
109.96
 10
118.06
 20
113.06
 10
112.34
 20
113.06
 10
112.34
 20
109.96
 10
106.46
 20
109.96
 10
106.46
 20
113.06
 10
100.74
 20
113.06
 10
100.74
 20
109.96
 10
94.86
 20
109.96
 10
94.86
 20
113.06
 10
89.14
 20
113.06
 10
89.14
 20
109.96
 10
83.26
 20
109.96
 10
83.26
 20
113.06
 10
77.54
 20
113.06
 10
77.54
 20
109.96
 10
71.66
 20
109.96
 10
71.66
 20
113.06
 10
65.94
 20
113.06
 10
65.94
 20
109.96
 10
60.1
 20
109.96
 10
56.96
 20
109.96
 10
56.96
 20
113.1
 10
56.96
 20
119.254
 10
60.06
 20
119.254
 10
60.06
 20
125.289
 10
56.96
 20
125.289
 10
56.96
 20
131.483
 10
60.06
 20
131.483
 10
60.06
 20
137.517
 10
56.96
 20
137.517
 10
56.96
 20
143.711
 10
60.06
 20
143.711
 10
60.06
 20
149.746
 10
56.96
 20
149.746
 10
56.96
 20
155.9
  0
LWPOLYLINE
  5
73
330
17
100
AcDbEntity
  8
CUT
100
AcDbPolyline
 90
36
 70
1
 10
134.1
 20
159.04
 10
197.9
 20
159.04
 10
201.04
 20
159.04
 10
201.04
 20
156.66
 10
197.94
 20
156.66
 10
197.94
 20
154.44
 10
201.04
 20
154.44
 10
201.04
 20
152.06
 10
197.9
 20
152.06
 10
192.14
 20
152.06
 10
192.14
 20
148.96
 10
186.26
 20
148.96
 10
186.26
 20
152.06
 10
180.54
 20
152.06
 10
180.54
 20
148.96
 10
174.66
 20
148.96
 10
174.66
 20
152.06
 10
168.94
 20
152.06
 10
168.94
 20
148.96
 10
163.06
 20
148.96
 10
163.06
 20
152.06
 10
157.34
 20
152.06
 10
157.34
 20
148.96
 10
151.46
 20
148.96
 10
151.46
 20
152.06
 10
145.74
 20
152.06
 10
145.74
 20
148.96
 10
139.86
 20
148.96
 10
139.86
 20
152.06
 10
134.1
 20
152.06
 10
130.96
 20
152.06
 10
130.96
 20
154.44
 10
134.06
 20
154.44
 10
134.06
 20
156.66
 10
130.96
 20
156.66
 10
130.96
 20
159.04
  0
LWPOLYLINE
  5
74
330
17
100
AcDbEntity
  8
CUT
100
AcDbPolyline
 90
4
 70
1
 10
139.14
 20
156.61
 10
192.86
 20
156.61
 10
192.86
 20
154.49
 10
139.14
 20
154.49
  0
HATCH
  5
75
330
17
100
AcDbEntity
  8
RASTER
 62
7
100
AcDbHatch
 10
0.0
 20
0.0
 30
0.0
210
0.0
220
0.0
230
1.0
  2
SOLID
 70
1
 71
0
 91
1
 92
3
 72
0
 73
1
 93
4
 10
134.7
 20
158.6
 10
138.5
 20
158.6
 10
138.5
 20
152.5
 10
134.7
 20
152.5
 97
0
 75
0
 76
1
 98
0
  0
HATCH
  5
76
330
17
100
AcDbEntity
  8
RASTER
 62
7
100
AcDbHatch
 10
0.0
 20
0.0
 30
0.0
210
0.0
220
0.0
230
1.0
  2
SOLID
 70
1
 71
0
 91
1
 92
3
 72
0
 73
1
 93
4
 10
193.5
 20
158.6
 10
197.3
 20
158.6
 10
197.3
 20
152.5
 10
193.5
 20
152.5
 97
0
 75
0
 76
1
 98
0
  0
HATCH
  5
77
330
17
100
AcDbEntity
  8
RASTER
 62
7
100
AcDbHatch
 10
0.0
 20
0.0
 30
0.0
210
0.0
220
0.0
230
1.0
  2
SOLID
 70
1
 71
0
 91
1
 92
3
 72
0
 73
1
 93
48
 10
141.2
 20
158.25
 10
141.196
 20
158.185
 10
141.183
 20
158.121
 10
141.162
 20
158.059
 10
141.133
 20
158.0
 10
141.097
 20
157.946
 10
141.054
 20
157.896
 10
141.004
 20
157.853
 10
140.95
 20
157.817
 10
140.891
 20
157.788
 10
140.829
 20
157.767
 10
140.765
 20
157.754
 10
140.7
 20
157.75
 10
140.635
 20
157.754
 10
140.571
 20
157.767
 10
140.509
 20
157.788
 10
140.45
 20
157.817
 10
140.396
 20
157.853
 10
140.346
 20
157.896
 10
140.303
 20
157.946
 10
140.267
 20
158.0
 10
140.238
 20
158.059
 10
140.217
 20
158.121
 10
140.204
 20
158.185
 10
140.2
 20
158.25
 10
140.204
 20
158.315
 10
140.217
 20
158.379
 10
140.238
 20
158.441
 10
140.267
 20
158.5
 10
140.303
 20
158.554
 10
140.346
 20
158.604
 10
140.396
 20
158.647
 10
140.45
 20
158.683
 10
140.509
 20
158.712
 10
140.571
 20
158.733
 10
140.635
 20
158.746
 10
140.7
 20
158.75
 10
140.765
 20
158.746
 10
140.829
 20
158.733
 10
140.891
 20
158.712
 10
140.95
 20
158.683
 10
141.004
 20
158.647
 10
141.054
 20
158.604
 10
141.097
 20
158.554
 10
141.133
 20
158.5
 10
141.162
 20
158.441
 10
141.183
 20
158.379
 10
141.196
 20
158.315
 97
0
 75
0
 76
1
 98
0
  0
HATCH
  5
78
330
17
100
AcDbEntity
  8
RASTER
 62
7
100
AcDbHatch
 10
0.0
 20
0.0
 30
0.0
210
0.0
220
0.0
230
1.0
  2
SOLID
 70
1
 71
0
 91
1
 92
3
 72
0
 73
1
 93
48
 10
191.8
 20
158.25
 10
191.796
 20
158.185
 10
191.783
 20
158.121
 10
191.762
 20
158.059
 10
191.733
 20
158.0
 10
191.697
 20
157.946
 10
191.654
 20
157.896
 10
191.604
 20
157.853
 10
191.55
 20
157.817
 10
191.491
 20
157.788
 10
191.429
 20
157.767
 10
191.365
 20
157.754
 10
191.3
 20
157.75
 10
191.235
 20
157.754
 10
191.171
 20
157.767
 10
191.109
 20
157.788
 10
191.05
 20
157.817
 10
190.996
 20
157.853
 10
190.946
 20
157.896
 10
190.903
 20
157.946
 10
190.867
 20
158.0
 10
190.838
 20
158.059
 10
190.817
 20
158.121
 10
190.804
 20
158.185
 10
190.8
 20
158.25
 10
190.804
 20
158.315
 10
190.817
 20
158.379
 10
190.838
 20
158.441
 10
190.867
 20
158.5
 10
190.903
 20
158.554
 10
190.946
 20
158.604
 10
190.996
 20
158.647
 10
191.05
 20
158.683
 10
191.109
 20
158.712
 10
191.171
 20
158.733
 10
191.235
 20
158.746
 10
191.3
 20
158.75
 10
191.365
 20
158.746
 10
191.429
 20
158.733
 10
191.491
 20
158.712
 10
191.55
 20
158.683
 10
191.604
 20
158.647
 10
191.654
 20
158.604
 10
191.697
 20
158.554
 10
191.733
 20
158.5
 10
191.762
 20
158.441
 10
191.783
 20
158.379
 10
191.796
 20
158.315
 97
0
 75
0
 76
1
 98
0
  0
HATCH
  5
79
330
17
100
AcDbEntity
  8
RASTER
 62
7
100
AcDbHatch
 10
0.0
 20
0.0
 30
0.0
210
0.0
220
0.0
230
1.0
  2
SOLID
 70
1
 71
0
 91
1
 92
3
 72
0
 73
1
 93
48
 10
141.2
 20
152.85
 10
141.196
 20
152.785
 10
141.183
 20
152.721
 10
141.162
 20
152.659
 10
141.133
 20
152.6
 10
141.097
 20
152.546
 10
141.054
 20
152.496
 10
141.004
 20
152.453
 10
140.95
 20
152.417
 10
140.891
 20
152.388
 10
140.829
 20
152.367
 10
140.765
 20
152.354
 10
140.7
 20
152.35
 10
140.635
 20
152.354
 10
140.571
 20
152.367
 10
140.509
 20
152.388
 10
140.45
 20
152.417
 10
140.396
 20
152.453
 10
140.346
 20
152.496
 10
140.303
 20
152.546
 10
140.267
 20
152.6
 10
140.238
 20
152.659
 10
140.217
 20
152.721
 10
140.204
 20
152.785
 10
140.2
 20
152.85
 10
140.204
 20
152.915
 10
140.217
 20
152.979
 10
140.238
 20
153.041
 10
140.267
 20
153.1
 10
140.303
 20
153.154
 10
140.346
 20
153.204
 10
140.396
 20
153.247
 10
140.45
 20
153.283
 10
140.509
 20
153.312
 10
140.571
 20
153.333
 10
140.635
 20
153.346
 10
140.7
 20
153.35
 10
140.765
 20
153.346
 10
140.829
 20
153.333
 10
140.891
 20
153.312
 10
140.95
 20
153.283
 10
141.004
 20
153.247
 10
141.054
 20
153.204
 10
141.097
 20
153.154
 10
141.133
 20
153.1
 10
141.162
 20
153.041
 10
141.183
 20
152.979
 10
141.196
 20
152.915
 97
0
 75
0
 76
1
 98
0
  0
HATCH
  5
7A
330
17
100
AcDbEntity
  8
RASTER
 62
7
100
AcDbHatch
 10
0.0
 20
0.0
 30
0.0
210
0.0
220
0.0
230
1.0
  2
SOLID
 70
1
 71
0
 91
1
 92
3
 72
0
 73
1
 93
48
 10
191.8
 20
152.85
 10
191.796
 20
152.785
 10
191.783
 20
152.721
 10
191.762
 20
152.659
 10
191.733
 20
152.6
 10
191.697
 20
152.546
 10
191.654
 20
152.496
 10
191.604
 20
152.453
 10
191.55
 20
152.417
 10
191.491
 20
152.388
 10
191.429
 20
152.367
 10
191.365
 20
152.354
 10
191.3
 20
152.35
 10
191.235
 20
152.354
 10
191.171
 20
152.367
 10
191.109
 20
152.388
 10
191.05
 20
152.417
 10
190.996
 20
152.453
 10
190.946
 20
152.496
 10
190.903
 20
152.546
 10
190.867
 20
152.6
 10
190.838
 20
152.659
 10
190.817
 20
152.721
 10
190.804
 20
152.785
 10
190.8
 20
152.85
 10
190.804
 20
152.915
 10
190.817
 20
152.979
 10
190.838
 20
153.041
 10
190.867
 20
153.1
 10
190.903
 20
153.154
 10
190.946
 20
153.204
 10
190.996
 20
153.247
 10
191.05
 20
153.283
 10
191.109
 20
153.312
 10
191.171
 20
153.333
 10
191.235
 20
153.346
 10
191.3
 20
153.35
 10
191.365
 20
153.346
 10
191.429
 20
153.333
 10
191.491
 20
153.312
 10
191.55
 20
153.283
 10
191.604
 20
153.247
 10
191.654
 20
153.204
 10
191.697
 20
153.154
 10
191.733
 20
153.1
 10
191.762
 20
153.041
 10
191.783
 20
152.979
 10
191.796
 20
152.915
 97
0
 75
0
 76
1
 98
0
  0
LWPOLYLINE
  5
7B
330
17
100
AcDbEntity
  8
CUT
100
AcDbPolyline
 90
36
 70
1
 10
208.1
 20
159.04
 10
271.9
 20
159.04
 10
275.04
 20
159.04
 10
275.04
 20
156.66
 10
271.94
 20
156.66
 10
271.94
 20
154.44
 10
275.04
 20
154.44
 10
275.04
 20
152.06
 10
271.9
 20
152.06
 10
266.14
 20
152.06
 10
266.14
 20
148.96
 10
260.26
 20
148.96
 10
260.26
 20
152.06
 10
254.54
 20
152.06
 10
254.54
 20
148.96
 10
248.66
 20
148.96
 10
248.66
 20
152.06
 10
242.94
 20
152.06
 10
242.94
 20
148.96
 10
237.06
 20
148.96
 10
237.06
 20
152.06
 10
231.34
 20
152.06
 10
231.34
 20
148.96
 10
225.46
 20
148.96
 10
225.46
 20
152.06
 10
219.74
 20
152.06
 10
219.74
 20
148.96
 10
213.86
 20
148.96
 10
213.86
 20
152.06
 10
208.1
 20
152.06
 10
204.96
 20
152.06
 10
204.96
 20
154.44
 10
208.06
 20
154.44
 10
208.06
 20
156.66
 10
204.96
 20
156.66
 10
204.96
 20
159.04
  0
LWPOLYLINE
  5
7C
330
17
100
AcDbEntity
  8
CUT
100
AcDbPolyline
 90
4
 70
1
 10
213.14
 20
156.61
 10
266.86
 20
156.61
 10
266.86
 20
154.49
 10
213.14
 20
154.49
  0
HATCH
  5
7D
330
17
100
AcDbEntity
  8
RASTER
 62
7
100
AcDbHatch
 10
0.0
 20
0.0
 30
0.0
210
0.0
220
0.0
230
1.0
  2
SOLID
 70
1
 71
0
 91
1
 92
3
 72
0
 73
1
 93
4
 10
208.7
 20
158.6
 10
212.5
 20
158.6
 10
212.5
 20
152.5
 10
208.7
 20
152.5
 97
0
 75
0
 76
1
 98
0
  0
HATCH
  5
7E
330
17
100
AcDbEntity
  8
RASTER
 62
7
100
AcDbHatch
 10
0.0
 20
0.0
 30
0.0
210
0.0
220
0.0
230
1.0
  2
SOLID
 70
1
 71
0
 91
1
 92
3
 72
0
 73
1
 93
4
 10
267.5
 20
158.6
 10
271.3
 20
158.6
 10
271.3
 20
152.5
 10
267.5
 20
152.5
 97
0
 75
0
 76
1
 98
0
  0
HATCH
  5
7F
330
17
100
AcDbEntity
  8
RASTER
 62
7
100
AcDbHatch
 10
0.0
 20
0.0
 30
0.0
210
0.0
220
0.0
230
1.0
  2
SOLID
 70
1
 71
0
 91
1
 92
3
 72
0
 73
1
 93
48
 10
215.2
 20
158.25
 10
215.196
 20
158.185
 10
215.183
 20
158.121
 10
215.162
 20
158.059
 10
215.133
 20
158.0
 10
215.097
 20
157.946
 10
215.054
 20
157.896
 10
215.004
 20
157.853
 10
214.95
 20
157.817
 10
214.891
 20
157.788
 10
214.829
 20
157.767
 10
214.765
 20
157.754
 10
214.7
 20
157.75
 10
214.635
 20
157.754
 10
214.571
 20
157.767
 10
214.509
 20
157.788
 10
214.45
 20
157.817
 10
214.396
 20
157.853
 10
214.346
 20
157.896
 10
214.303
 20
157.946
 10
214.267
 20
158.0
 10
214.238
 20
158.059
 10
214.217
 20
158.121
 10
214.204
 20
158.185
 10
214.2
 20
158.25
 10
214.204
 20
158.315
 10
214.217
 20
158.379
 10
214.238
 20
158.441
 10
214.267
 20
158.5
 10
214.303
 20
158.554
 10
214.346
 20
158.604
 10
214.396
 20
158.647
 10
214.45
 20
158.683
 10
214.509
 20
158.712
 10
214.571
 20
158.733
 10
214.635
 20
158.746
 10
214.7
 20
158.75
 10
214.765
 20
158.746
 10
214.829
 20
158.733
 10
214.891
 20
158.712
 10
214.95
 20
158.683
 10
215.004
 20
158.647
 10
215.054
 20
158.604
 10
215.097
 20
158.554
 10
215.133
 20
158.5
 10
215.162
 20
158.441
 10
215.183
 20
158.379
 10
215.196
 20
158.315
 97
0
 75
0
 76
1
 98
0
  0
HATCH
  5
80
330
17
100
AcDbEntity
  8
RASTER
 62
7
100
AcDbHatch
 10
0.0
 20
0.0
 30
0.0
210
0.0
220
0.0
230
1.0
  2
SOLID
 70
1
 71
0
 91
1
 92
3
 72
0
 73
1
 93
48
 10
265.8
 20
158.25
 10
265.796
 20
158.185
 10
265.783
 20
158.121
 10
265.762
 20
158.059
 10
265.733
 20
158.0
 10
265.697
 20
157.946
 10
265.654
 20
157.896
 10
265.604
 20
157.853
 10
265.55
 20
157.817
 10
265.491
 20
157.788
 10
265.429
 20
157.767
 10
265.365
 20
157.754
 10
265.3
 20
157.75
 10
265.235
 20
157.754
 10
265.171
 20
157.767
 10
265.109
 20
157.788
 10
265.05
 20
157.817
 10
264.996
 20
157.853
 10
264.946
 20
157.896
 10
264.903
 20
157.946
 10
264.867
 20
158.0
 10
264.838
 20
158.059
 10
264.817
 20
158.121
 10
264.804
 20
158.185
 10
264.8
 20
158.25
 10
264.804
 20
158.315
 10
264.817
 20
158.379
 10
264.838
 20
158.441
 10
264.867
 20
158.5
 10
264.903
 20
158.554
 10
264.946
 20
158.604
 10
264.996
 20
158.647
 10
265.05
 20
158.683
 10
265.109
 20
158.712
 10
265.171
 20
158.733
 10
265.235
 20
158.746
 10
265.3
 20
158.75
 10
265.365
 20
158.746
 10
265.429
 20
158.733
 10
265.491
 20
158.712
 10
265.55
 20
158.683
 10
265.604
 20
158.647
 10
265.654
 20
158.604
 10
265.697
 20
158.554
 10
265.733
 20
158.5
 10
265.762
 20
158.441
 10
265.783
 20
158.379
 10
265.796
 20
158.315
 97
0
 75
0
 76
1
 98
0
  0
HATCH
  5
81
330
17
100
AcDbEntity
  8
RASTER
 62
7
100
AcDbHatch
 10
0.0
 20
0.0
 30
0.0
210
0.0
220
0.0
230
1.0
  2
SOLID
 70
1
 71
0
 91
1
 92
3
 72
0
 73
1
 93
48
 10
215.2
 20
152.85
 10
215.196
 20
152.785
 10
215.183
 20
152.721
 10
215.162
 20
152.659
 10
215.133
 20
152.6
 10
215.097
 20
152.546
 10
215.054
 20
152.496
 10
215.004
 20
152.453
 10
214.95
 20
152.417
 10
214.891
 20
152.388
 10
214.829
 20
152.367
 10
214.765
 20
152.354
 10
214.7
 20
152.35
 10
214.635
 20
152.354
 10
214.571
 20
152.367
 10
214.509
 20
152.388
 10
214.45
 20
152.417
 10
214.396
 20
152.453
 10
214.346
 20
152.496
 10
214.303
 20
152.546
 10
214.267
 20
152.6
 10
214.238
 20
152.659
 10
214.217
 20
152.721
 10
214.204
 20
152.785
 10
214.2
 20
152.85
 10
214.204
 20
152.915
 10
214.217
 20
152.979
 10
214.238
 20
153.041
 10
214.267
 20
153.1
 10
214.303
 20
153.154
 10
214.346
 20
153.204
 10
214.396
 20
153.247
 10
214.45
 20
153.283
 10
214.509
 20
153.312
 10
214.571
 20
153.333
 10
214.635
 20
153.346
 10
214.7
 20
153.35
 10
214.765
 20
153.346
 10
214.829
 20
153.333
 10
214.891
 20
153.312
 10
214.95
 20
153.283
 10
215.004
 20
153.247
 10
215.054
 20
153.204
 10
215.097
 20
153.154
 10
215.133
 20
153.1
 10
215.162
 20
153.041
 10
215.183
 20
152.979
 10
215.196
 20
152.915
 97
0
 75
0
 76
1
 98
0
  0
HATCH
  5
82
330
17
100
AcDbEntity
  8
RASTER
 62
7
100
AcDbHatch
 10
0.0
 20
0.0
 30
0.0
210
0.0
220
0.0
230
1.0
  2
SOLID
 70
1
 71
0
 91
1
 92
3
 72
0
 73
1
 93
48
 10
265.8
 20
152.85
 10
265.796
 20
152.785
 10
265.783
 20
152.721
 10
265.762
 20
152.659
 10
265.733
 20
152.6
 10
265.697
 20
152.546
 10
265.654
 20
152.496
 10
265.604
 20
152.453
 10
265.55
 20
152.417
 10
265.491
 20
152.388
 10
265.429
 20
152.367
 10
265.365
 20
152.354
 10
265.3
 20
152.35
 10
265.235
 20
152.354
 10
265.171
 20
152.367
 10
265.109
 20
152.388
 10
265.05
 20
152.417
 10
264.996
 20
152.453
 10
264.946
 20
152.496
 10
264.903
 20
152.546
 10
264.867
 20
152.6
 10
264.838
 20
152.659
 10
264.817
 20
152.721
 10
264.804
 20
152.785
 10
264.8
 20
152.85
 10
264.804
 20
152.915
 10
264.817
 20
152.979
 10
264.838
 20
153.041
 10
264.867
 20
153.1
 10
264.903
 20
153.154
 10
264.946
 20
153.204
 10
264.996
 20
153.247
 10
265.05
 20
153.283
 10
265.109
 20
153.312
 10
265.171
 20
153.333
 10
265.235
 20
153.346
 10
265.3
 20
153.35
 10
265.365
 20
153.346
 10
265.429
 20
153.333
 10
265.491
 20
153.312
 10
265.55
 20
153.283
 10
265.604
 20
153.247
 10
265.654
 20
153.204
 10
265.697
 20
153.154
 10
265.733
 20
153.1
 10
265.762
 20
153.041
 10
265.783
 20
152.979
 10
265.796
 20
152.915
 97
0
 75
0
 76
1
 98
0
  0
LWPOLYLINE
  5
83
330
17
100
AcDbEntity
  8
CUT
100
AcDbPolyline
 90
24
 70
1
 10
7.06
 20
106.04
 10
49.94
 20
106.04
 10
49.94
 20
103.74
 10
53.04
 20
103.74
 10
53.04
 20
101.36
 10
49.94
 20
101.36
 10
49.94
 20
99.06
 10
43.826
 20
99.06
 10
43.826
 20
95.96
 10
37.631
 20
95.96
 10
37.631
 20
99.06
 10
31.597
 20
99.06
 10
31.597
 20
95.96
 10
25.403
 20
95.96
 10
25.403
 20
99.06
 10
19.369
 20
99.06
 10
19.369
 20
95.96
 10
13.174
 20
95.96
 10
13.174
 20
99.06
 10
7.06
 20
99.06
 10
7.06
 20
101.36
 10
3.96
 20
101.36
 10
3.96
 20
103.74
 10
7.06
 20
103.74
  0
LWPOLYLINE
  5
84
330
17
100
AcDbEntity
  8
CUT
100
AcDbPolyline
 90
4
 70
1
 10
12.14
 20
103.61
 10
44.86
 20
103.61
 10
44.86
 20
101.49
 10
12.14
 20
101.49
  0
HATCH
  5
85
330
17
100
AcDbEntity
  8
RASTER
 62
7
100
AcDbHatch
 10
0.0
 20
0.0
 30
0.0
210
0.0
220
0.0
230
1.0
  2
SOLID
 70
1
 71
0
 91
1
 92
3
 72
0
 73
1
 93
4
 10
7.7
 20
105.6
 10
11.5
 20
105.6
 10
11.5
 20
99.5
 10
7.7
 20
99.5
 97
0
 75
0
 76
1
 98
0
  0
HATCH
  5
86
330
17
100
AcDbEntity
  8
RASTER
 62
7
100
AcDbHatch
 10
0.0
 20
0.0
 30
0.0
210
0.0
220
0.0
230
1.0
  2
SOLID
 70
1
 71
0
 91
1
 92
3
 72
0
 73
1
 93
4
 10
45.5
 20
105.6
 10
49.3
 20
105.6
 10
49.3
 20
99.5
 10
45.5
 20
99.5
 97
0
 75
0
 76
1
 98
0
  0
HATCH
  5
87
330
17
100
AcDbEntity
  8
RASTER
 62
7
100
AcDbHatch
 10
0.0
 20
0.0
 30
0.0
210
0.0
220
0.0
230
1.0
  2
SOLID
 70
1
 71
0
 91
1
 92
3
 72
0
 73
1
 93
48
 10
14.2
 20
105.25
 10
14.196
 20
105.185
 10
14.183
 20
105.121
 10
14.162
 20
105.059
 10
14.133
 20
105.0
 10
14.097
 20
104.946
 10
14.054
 20
104.896
 10
14.004
 20
104.853
 10
13.95
 20
104.817
 10
13.891
 20
104.788
 10
13.829
 20
104.767
 10
13.765
 20
104.754
 10
13.7
 20
104.75
 10
13.635
 20
104.754
 10
13.571
 20
104.767
 10
13.509
 20
104.788
 10
13.45
 20
104.817
 10
13.396
 20
104.853
 10
13.346
 20
104.896
 10
13.303
 20
104.946
 10
13.267
 20
105.0
 10
13.238
 20
105.059
 10
13.217
 20
105.121
 10
13.204
 20
105.185
 10
13.2
 20
105.25
 10
13.204
 20
105.315
 10
13.217
 20
105.379
 10
13.238
 20
105.441
 10
13.267
 20
105.5
 10
13.303
 20
105.554
 10
13.346
 20
105.604
 10
13.396
 20
105.647
 10
13.45
 20
105.683
 10
13.509
 20
105.712
 10
13.571
 20
105.733
 10
13.635
 20
105.746
 10
13.7
 20
105.75
 10
13.765
 20
105.746
 10
13.829
 20
105.733
 10
13.891
 20
105.712
 10
13.95
 20
105.683
 10
14.004
 20
105.647
 10
14.054
 20
105.604
 10
14.097
 20
105.554
 10
14.133
 20
105.5
 10
14.162
 20
105.441
 10
14.183
 20
105.379
 10
14.196
 20
105.315
 97
0
 75
0
 76
1
 98
0
  0
HATCH
  5
88
330
17
100
AcDbEntity
  8
RASTER
 62
7
100
AcDbHatch
 10
0.0
 20
0.0
 30
0.0
210
0.0
220
0.0
230
1.0
  2
SOLID
 70
1
 71
0
 91
1
 92
3
 72
0
 73
1
 93
48
 10
43.8
 20
105.25
 10
43.796
 20
105.185
 10
43.783
 20
105.121
 10
43.762
 20
105.059
 10
43.733
 20
105.0
 10
43.697
 20
104.946
 10
43.654
 20
104.896
 10
43.604
 20
104.853
 10
43.55
 20
104.817
 10
43.491
 20
104.788
 10
43.429
 20
104.767
 10
43.365
 20
104.754
 10
43.3
 20
104.75
 10
43.235
 20
104.754
 10
43.171
 20
104.767
 10
43.109
 20
104.788
 10
43.05
 20
104.817
 10
42.996
 20
104.853
 10
42.946
 20
104.896
 10
42.903
 20
104.946
 10
42.867
 20
105.0
 10
42.838
 20
105.059
 10
42.817
 20
105.121
 10
42.804
 20
105.185
 10
42.8
 20
105.25
 10
42.804
 20
105.315
 10
42.817
 20
105.379
 10
42.838
 20
105.441
 10
42.867
 20
105.5
 10
42.903
 20
105.554
 10
42.946
 20
105.604
 10
42.996
 20
105.647
 10
43.05
 20
105.683
 10
43.109
 20
105.712
 10
43.171
 20
105.733
 10
43.235
 20
105.746
 10
43.3
 20
105.75
 10
43.365
 20
105.746
 10
43.429
 20
105.733
 10
43.491
 20
105.712
 10
43.55
 20
105.683
 10
43.604
 20
105.647
 10
43.654
 20
105.604
 10
43.697
 20
105.554
 10
43.733
 20
105.5
 10
43.762
 20
105.441
 10
43.783
 20
105.379
 10
43.796
 20
105.315
 97
0
 75
0
 76
1
 98
0
  0
HATCH
  5
89
330
17
100
AcDbEntity
  8
RASTER
 62
7
100
AcDbHatch
 10
0.0
 20
0.0
 30
0.0
210
0.0
220
0.0
230
1.0
  2
SOLID
 70
1
 71
0
 91
1
 92
3
 72
0
 73
1
 93
48
 10
14.2
 20
99.85
 10
14.196
 20
99.785
 10
14.183
 20
99.721
 10
14.162
 20
99.659
 10
14.133
 20
99.6
 10
14.097
 20
99.546
 10
14.054
 20
99.496
 10
14.004
 20
99.453
 10
13.95
 20
99.417
 10
13.891
 20
99.388
 10
13.829
 20
99.367
 10
13.765
 20
99.354
 10
13.7
 20
99.35
 10
13.635
 20
99.354
 10
13.571
 20
99.367
 10
13.509
 20
99.388
 10
13.45
 20
99.417
 10
13.396
 20
99.453
 10
13.346
 20
99.496
 10
13.303
 20
99.546
 10
13.267
 20
99.6
 10
13.238
 20
99.659
 10
13.217
 20
99.721
 10
13.204
 20
99.785
 10
13.2
 20
99.85
 10
13.204
 20
99.915
 10
13.217
 20
99.979
 10
13.238
 20
100.041
 10
13.267
 20
100.1
 10
13.303
 20
100.154
 10
13.346
 20
100.204
 10
13.396
 20
100.247
 10
13.45
 20
100.283
 10
13.509
 20
100.312
 10
13.571
 20
100.333
 10
13.635
 20
100.346
 10
13.7
 20
100.35
 10
13.765
 20
100.346
 10
13.829
 20
100.333
 10
13.891
 20
100.312
 10
13.95
 20
100.283
 10
14.004
 20
100.247
 10
14.054
 20
100.204
 10
14.097
 20
100.154
 10
14.133
 20
100.1
 10
14.162
 20
100.041
 10
14.183
 20
99.979
 10
14.196
 20
99.915
 97
0
 75
0
 76
1
 98
0
  0
HATCH
  5
8A
330
17
100
AcDbEntity
  8
RASTER
 62
7
100
AcDbHatch
 10
0.0
 20
0.0
 30
0.0
210
0.0
220
0.0
230
1.0
  2
SOLID
 70
1
 71
0
 91
1
 92
3
 72
0
 73
1
 93
48
 10
43.8
 20
99.85
 10
43.796
 20
99.785
 10
43.783
 20
99.721
 10
43.762
 20
99.659
 10
43.733
 20
99.6
 10
43.697
 20
99.546
 10
43.654
 20
99.496
 10
43.604
 20
99.453
 10
43.55
 20
99.417
 10
43.491
 20
99.388
 10
43.429
 20
99.367
 10
43.365
 20
99.354
 10
43.3
 20
99.35
 10
43.235
 20
99.354
 10
43.171
 20
99.367
 10
43.109
 20
99.388
 10
43.05
 20
99.417
 10
42.996
 20
99.453
 10
42.946
 20
99.496
 10
42.903
 20
99.546
 10
42.867
 20
99.6
 10
42.838
 20
99.659
 10
42.817
 20
99.721
 10
42.804
 20
99.785
 10
42.8
 20
99.85
 10
42.804
 20
99.915
 10
42.817
 20
99.979
 10
42.838
 20
100.041
 10
42.867
 20
100.1
 10
42.903
 20
100.154
 10
42.946
 20
100.204
 10
42.996
 20
100.247
 10
43.05
 20
100.283
 10
43.109
 20
100.312
 10
43.171
 20
100.333
 10
43.235
 20
100.346
 10
43.3
 20
100.35
 10
43.365
 20
100.346
 10
43.429
 20
100.333
 10
43.491
 20
100.312
 10
43.55
 20
100.283
 10
43.604
 20
100.247
 10
43.654
 20
100.204
 10
43.697
 20
100.154
 10
43.733
 20
100.1
 10
43.762
 20
100.041
 10
43.783
 20
99.979
 10
43.796
 20
99.915
 97
0
 75
0
 76
1
 98
0
  0
LWPOLYLINE
  5
8B
330
17
100
AcDbEntity
  8
CUT
100
AcDbPolyline
 90
24
 70
1
 10
60.06
 20
106.04
 10
102.94
 20
106.04
 10
102.94
 20
103.74
 10
106.04
 20
103.74
 10
106.04
 20
101.36
 10
102.94
 20
101.36
 10
102.94
 20
99.06
 10
96.826
 20
99.06
 10
96.826
 20
95.96
 10
90.631
 20
95.96
 10
90.631
 20
99.06
 10
84.597
 20
99.06
 10
84.597
 20
95.96
 10
78.403
 20
95.96
 10
78.403
 20
99.06
 10
72.369
 20
99.06
 10
72.369
 20
95.96
 10
66.174
 20
95.96
 10
66.174
 20
99.06
 10
60.06
 20
99.06
 10
60.06
 20
101.36
 10
56.96
 20
101.36
 10
56.96
 20
103.74
 10
60.06
 20
103.74
  0
LWPOLYLINE
  5
8C
330
17
100
AcDbEntity
  8
CUT
100
AcDbPolyline
 90
4
 70
1
 10
65.14
 20
103.61
 10
97.86
 20
103.61
 10
97.86
 20
101.49
 10
65.14
 20
101.49
  0
HATCH
  5
8D
330
17
100
AcDbEntity
  8
RASTER
 62
7
100
AcDbHatch
 10
0.0
 20
0.0
 30
0.0
210
0.0
220
0.0
230
1.0
  2
SOLID
 70
1
 71
0
 91
1
 92
3
 72
0
 73
1
 93
4
 10
60.7
 20
105.6
 10
64.5
 20
105.6
 10
64.5
 20
99.5
 10
60.7
 20
99.5
 97
0
 75
0
 76
1
 98
0
  0
HATCH
  5
8E
330
17
100
AcDbEntity
  8
RASTER
 62
7
100
AcDbHatch
 10
0.0
 20
0.0
 30
0.0
210
0.0
220
0.0
230
1.0
  2
SOLID
 70
1
 71
0
 91
1
 92
3
 72
0
 73
1
 93
4
 10
98.5
 20
105.6
 10
102.3
 20
105.6
 10
102.3
 20
99.5
 10
98.5
 20
99.5
 97
0
 75
0
 76
1
 98
0
  0
HATCH
  5
8F
330
17
100
AcDbEntity
  8
RASTER
 62
7
100
AcDbHatch
 10
0.0
 20
0.0
 30
0.0
210
0.0
220
0.0
230
1.0
  2
SOLID
 70
1
 71
0
 91
1
 92
3
 72
0
 73
1
 93
48
 10
67.2
 20
105.25
 10
67.196
 20
105.185
 10
67.183
 20
105.121
 10
67.162
 20
105.059
 10
67.133
 20
105.0
 10
67.097
 20
104.946
 10
67.054
 20
104.896
 10
67.004
 20
104.853
 10
66.95
 20
104.817
 10
66.891
 20
104.788
 10
66.829
 20
104.767
 10
66.765
 20
104.754
 10
66.7
 20
104.75
 10
66.635
 20
104.754
 10
66.571
 20
104.767
 10
66.509
 20
104.788
 10
66.45
 20
104.817
 10
66.396
 20
104.853
 10
66.346
 20
104.896
 10
66.303
 20
104.946
 10
66.267
 20
105.0
 10
66.238
 20
105.059
 10
66.217
 20
105.121
 10
66.204
 20
105.185
 10
66.2
 20
105.25
 10
66.204
 20
105.315
 10
66.217
 20
105.379
 10
66.238
 20
105.441
 10
66.267
 20
105.5
 10
66.303
 20
105.554
 10
66.346
 20
105.604
 10
66.396
 20
105.647
 10
66.45
 20
105.683
 10
66.509
 20
105.712
 10
66.571
 20
105.733
 10
66.635
 20
105.746
 10
66.7
 20
105.75
 10
66.765
 20
105.746
 10
66.829
 20
105.733
 10
66.891
 20
105.712
 10
66.95
 20
105.683
 10
67.004
 20
105.647
 10
67.054
 20
105.604
 10
67.097
 20
105.554
 10
67.133
 20
105.5
 10
67.162
 20
105.441
 10
67.183
 20
105.379
 10
67.196
 20
105.315
 97
0
 75
0
 76
1
 98
0
  0
HATCH
  5
90
330
17
100
AcDbEntity
  8
RASTER
 62
7
100
AcDbHatch
 10
0.0
 20
0.0
 30
0.0
210
0.0
220
0.0
230
1.0
  2
SOLID
 70
1
 71
0
 91
1
 92
3
 72
0
 73
1
 93
48
 10
96.8
 20
105.25
 10
96.796
 20
105.185
 10
96.783
 20
105.121
 10
96.762
 20
105.059
 10
96.733
 20
105.0
 10
96.697
 20
104.946
 10
96.654
 20
104.896
 10
96.604
 20
104.853
 10
96.55
 20
104.817
 10
96.491
 20
104.788
 10
96.429
 20
104.767
 10
96.365
 20
104.754
 10
96.3
 20
104.75
 10
96.235
 20
104.754
 10
96.171
 20
104.767
 10
96.109
 20
104.788
 10
96.05
 20
104.817
 10
95.996
 20
104.853
 10
95.946
 20
104.896
 10
95.903
 20
104.946
 10
95.867
 20
105.0
 10
95.838
 20
105.059
 10
95.817
 20
105.121
 10
95.804
 20
105.185
 10
95.8
 20
105.25
 10
95.804
 20
105.315
 10
95.817
 20
105.379
 10
95.838
 20
105.441
 10
95.867
 20
105.5
 10
95.903
 20
105.554
 10
95.946
 20
105.604
 10
95.996
 20
105.647
 10
96.05
 20
105.683
 10
96.109
 20
105.712
 10
96.171
 20
105.733
 10
96.235
 20
105.746
 10
96.3
 20
105.75
 10
96.365
 20
105.746
 10
96.429
 20
105.733
 10
96.491
 20
105.712
 10
96.55
 20
105.683
 10
96.604
 20
105.647
 10
96.654
 20
105.604
 10
96.697
 20
105.554
 10
96.733
 20
105.5
 10
96.762
 20
105.441
 10
96.783
 20
105.379
 10
96.796
 20
105.315
 97
0
 75
0
 76
1
 98
0
  0
HATCH
  5
91
330
17
100
AcDbEntity
  8
RASTER
 62
7
100
AcDbHatch
 10
0.0
 20
0.0
 30
0.0
210
0.0
220
0.0
230
1.0
  2
SOLID
 70
1
 71
0
 91
1
 92
3
 72
0
 73
1
 93
48
 10
67.2
 20
99.85
 10
67.196
 20
99.785
 10
67.183
 20
99.721
 10
67.162
 20
99.659
 10
67.133
 20
99.6
 10
67.097
 20
99.546
 10
67.054
 20
99.496
 10
67.004
 20
99.453
 10
66.95
 20
99.417
 10
66.891
 20
99.388
 10
66.829
 20
99.367
 10
66.765
 20
99.354
 10
66.7
 20
99.35
 10
66.635
 20
99.354
 10
66.571
 20
99.367
 10
66.509
 20
99.388
 10
66.45
 20
99.417
 10
66.396
 20
99.453
 10
66.346
 20
99.496
 10
66.303
 20
99.546
 10
66.267
 20
99.6
 10
66.238
 20
99.659
 10
66.217
 20
99.721
 10
66.204
 20
99.785
 10
66.2
 20
99.85
 10
66.204
 20
99.915
 10
66.217
 20
99.979
 10
66.238
 20
100.041
 10
66.267
 20
100.1
 10
66.303
 20
100.154
 10
66.346
 20
100.204
 10
66.396
 20
100.247
 10
66.45
 20
100.283
 10
66.509
 20
100.312
 10
66.571
 20
100.333
 10
66.635
 20
100.346
 10
66.7
 20
100.35
 10
66.765
 20
100.346
 10
66.829
 20
100.333
 10
66.891
 20
100.312
 10
66.95
 20
100.283
 10
67.004
 20
100.247
 10
67.054
 20
100.204
 10
67.097
 20
100.154
 10
67.133
 20
100.1
 10
67.162
 20
100.041
 10
67.183
 20
99.979
 10
67.196
 20
99.915
 97
0
 75
0
 76
1
 98
0
  0
HATCH
  5
92
330
17
100
AcDbEntity
  8
RASTER
 62
7
100
AcDbHatch
 10
0.0
 20
0.0
 30
0.0
210
0.0
220
0.0
230
1.0
  2
SOLID
 70
1
 71
0
 91
1
 92
3
 72
0
 73
1
 93
48
 10
96.8
 20
99.85
 10
96.796
 20
99.785
 10
96.783
 20
99.721
 10
96.762
 20
99.659
 10
96.733
 20
99.6
 10
96.697
 20
99.546
 10
96.654
 20
99.496
 10
96.604
 20
99.453
 10
96.55
 20
99.417
 10
96.491
 20
99.388
 10
96.429
 20
99.367
 10
96.365
 20
99.354
 10
96.3
 20
99.35
 10
96.235
 20
99.354
 10
96.171
 20
99.367
 10
96.109
 20
99.388
 10
96.05
 20
99.417
 10
95.996
 20
99.453
 10
95.946
 20
99.496
 10
95.903
 20
99.546
 10
95.867
 20
99.6
 10
95.838
 20
99.659
 10
95.817
 20
99.721
 10
95.804
 20
99.785
 10
95.8
 20
99.85
 10
95.804
 20
99.915
 10
95.817
 20
99.979
 10
95.838
 20
100.041
 10
95.867
 20
100.1
 10
95.903
 20
100.154
 10
95.946
 20
100.204
 10
95.996
 20
100.247
 10
96.05
 20
100.283
 10
96.109
 20
100.312
 10
96.171
 20
100.333
 10
96.235
 20
100.346
 10
96.3
 20
100.35
 10
96.365
 20
100.346
 10
96.429
 20
100.333
 10
96.491
 20
100.312
 10
96.55
 20
100.283
 10
96.604
 20
100.247
 10
96.654
 20
100.204
 10
96.697
 20
100.154
 10
96.733
 20
100.1
 10
96.762
 20
100.041
 10
96.783
 20
99.979
 10
96.796
 20
99.915
 97
0
 75
0
 76
1
 98
0
  0
LWPOLYLINE
  5
93
330
17
100
AcDbEntity
  8
CUT
100
AcDbPolyline
 90
76
 70
1
 10
109.96
 20
106.04
 10
113.1
 20
106.04
 10
118.94
 20
106.04
 10
118.94
 20
102.94
 10
124.66
 20
102.94
 10
124.66
 20
106.04
 10
130.54
 20
106.04
 10
130.54
 20
102.94
 10
136.26
 20
102.94
 10
136.26
 20
106.04
 10
142.14
 20
106.04
 10
142.14
 20
102.94
 10
147.86
 20
102.94
 10
147.86
 20
106.04
 10
153.74
 20
106.04
 10
153.74
 20
102.94
 10
159.46
 20
102.94
 10
159.46
 20
106.04
 10
165.34
 20
106.04
 10
165.34
 20
102.94
 10
171.06
 20
102.94
 10
171.06
 20
106.04
 10
176.9
 20
106.04
 10
180.04
 20
106.04
 10
180.04
 20
102.9
 10
180.04
 20
96.746
 10
176.94
 20
96.746
 10
176.94
 20
90.711
 10
180.04
 20
90.711
 10
180.04
 20
84.517
 10
176.94
 20
84.517
 10
176.94
 20
78.483
 10
180.04
 20
78.483
 10
180.04
 20
72.289
 10
176.94
 20
72.289
 10
176.94
 20
66.254
 10
180.04
 20
66.254
 10
180.04
 20
60.1
 10
180.04
 20
56.96
 10
176.9
 20
56.96
 10
171.06
 20
56.96
 10
171.06
 20
60.06
 10
165.34
 20
60.06
 10
165.34
 20
56.96
 10
159.46
 20
56.96
 10
159.46
 20
60.06
 10
153.74
 20
60.06
 10
153.74
 20
56.96
 10
147.86
 20
56.96
 10
147.86
 20
60.06
 10
142.14
 20
60.06
 10
142.14
 20
56.96
 10
136.26
 20
56.96
 10
136.26
 20
60.06
 10
130.54
 20
60.06
 10
130.54
 20
56.96
 10
124.66
 20
56.96
 10
124.66
 20
60.06
 10
118.94
 20
60.06
 10
118.94
 20
56.96
 10
113.1
 20
56.96
 10
109.96
 20
56.96
 10
109.96
 20
60.1
 10
109.96
 20
66.254
 10
113.06
 20
66.254
 10
113.06
 20
72.289
 10
109.96
 20
72.289
 10
109.96
 20
78.483
 10
113.06
 20
78.483
 10
113.06
 20
84.517
 10
109.96
 20
84.517
 10
109.96
 20
90.711
 10
113.06
 20
90.711
 10
113.06
 20
96.746
 10
109.96
 20
96.746
 10
109.96
 20
102.9
  0
LWPOLYLINE
  5
94
330
17
100
AcDbEntity
  8
CUT
100
AcDbPolyline
 90
36
 70
1
 10
187.1
 20
106.04
 10
250.9
 20
106.04
 10
254.04
 20
106.04
 10
254.04
 20
103.66
 10
250.94
 20
103.66
 10
250.94
 20
101.44
 10
254.04
 20
101.44
 10
254.04
 20
99.06
 10
250.9
 20
99.06
 10
245.14
 20
99.06
 10
245.14
 20
95.96
 10
239.26
 20
95.96
 10
239.26
 20
99.06
 10
233.54
 20
99.06
 10
233.54
 20
95.96
 10
227.66
 20
95.96
 10
227.66
 20
99.06
 10
221.94
 20
99.06
 10
221.94
 20
95.96
 10
216.06
 20
95.96
 10
216.06
 20
99.06
 10
210.34
 20
99.06
 10
210.34
 20
95.96
 10
204.46
 20
95.96
 10
204.46
 20
99.06
 10
198.74
 20
99.06
 10
198.74
 20
95.96
 10
192.86
 20
95.96
 10
192.86
 20
99.06
 10
187.1
 20
99.06
 10
183.96
 20
99.06
 10
183.96
 20
101.44
 10
187.06
 20
101.44
 10
187.06
 20
103.66
 10
183.96
 20
103.66
 10
183.96
 20
106.04
  0
LWPOLYLINE
  5
95
330
17
100
AcDbEntity
  8
CUT
100
AcDbPolyline
 90
4
 70
1
 10
192.14
 20
103.61
 10
245.86
 20
103.61
 10
245.86
 20
101.49
 10
192.14
 20
101.49
  0
HATCH
  5
96
330
17
100
AcDbEntity
  8
RASTER
 62
7
100
AcDbHatch
 10
0.0
 20
0.0
 30
0.0
210
0.0
220
0.0
230
1.0
  2
SOLID
 70
1
 71
0
 91
1
 92
3
 72
0
 73
1
 93
4
 10
187.7
 20
105.6
 10
191.5
 20
105.6
 10
191.5
 20
99.5
 10
187.7
 20
99.5
 97
0
 75
0
 76
1
 98
0
  0
HATCH
  5
97
330
17
100
AcDbEntity
  8
RASTER
 62
7
100
AcDbHatch
 10
0.0
 20
0.0
 30
0.0
210
0.0
220
0.0
230
1.0
  2
SOLID
 70
1
 71
0
 91
1
 92
3
 72
0
 73
1
 93
4
 10
246.5
 20
105.6
 10
250.3
 20
105.6
 10
250.3
 20
99.5
 10
246.5
 20
99.5
 97
0
 75
0
 76
1
 98
0
  0
HATCH
  5
98
330
17
100
AcDbEntity
  8
RASTER
 62
7
100
AcDbHatch
 10
0.0
 20
0.0
 30
0.0
210
0.0
220
0.0
230
1.0
  2
SOLID
 70
1
 71
0
 91
1
 92
3
 72
0
 73
1
 93
48
 10
194.2
 20
105.25
 10
194.196
 20
105.185
 10
194.183
 20
105.121
 10
194.162
 20
105.059
 10
194.133
 20
105.0
 10
194.097
 20
104.946
 10
194.054
 20
104.896
 10
194.004
 20
104.853
 10
193.95
 20
104.817
 10
193.891
 20
104.788
 10
193.829
 20
104.767
 10
193.765
 20
104.754
 10
193.7
 20
104.75
 10
193.635
 20
104.754
 10
193.571
 20
104.767
 10
193.509
 20
104.788
 10
193.45
 20
104.817
 10
193.396
 20
104.853
 10
193.346
 20
104.896
 10
193.303
 20
104.946
 10
193.267
 20
105.0
 10
193.238
 20
105.059
 10
193.217
 20
105.121
 10
193.204
 20
105.185
 10
193.2
 20
105.25
 10
193.204
 20
105.315
 10
193.217
 20
105.379
 10
193.238
 20
105.441
 10
193.267
 20
105.5
 10
193.303
 20
105.554
 10
193.346
 20
105.604
 10
193.396
 20
105.647
 10
193.45
 20
105.683
 10
193.509
 20
105.712
 10
193.571
 20
105.733
 10
193.635
 20
105.746
 10
193.7
 20
105.75
 10
193.765
 20
105.746
 10
193.829
 20
105.733
 10
193.891
 20
105.712
 10
193.95
 20
105.683
 10
194.004
 20
105.647
 10
194.054
 20
105.604
 10
194.097
 20
105.554
 10
194.133
 20
105.5
 10
194.162
 20
105.441
 10
194.183
 20
105.379
 10
194.196
 20
105.315
 97
0
 75
0
 76
1
 98
0
  0
HATCH
  5
99
330
17
100
AcDbEntity
  8
RASTER
 62
7
100
AcDbHatch
 10
0.0
 20
0.0
 30
0.0
210
0.0
220
0.0
230
1.0
  2
SOLID
 70
1
 71
0
 91
1
 92
3
 72
0
 73
1
 93
48
 10
244.8
 20
105.25
 10
244.796
 20
105.185
 10
244.783
 20
105.121
 10
244.762
 20
105.059
 10
244.733
 20
105.0
 10
244.697
 20
104.946
 10
244.654
 20
104.896
 10
244.604
 20
104.853
 10
244.55
 20
104.817
 10
244.491
 20
104.788
 10
244.429
 20
104.767
 10
244.365
 20
104.754
 10
244.3
 20
104.75
 10
244.235
 20
104.754
 10
244.171
 20
104.767
 10
244.109
 20
104.788
 10
244.05
 20
104.817
 10
243.996
 20
104.853
 10
243.946
 20
104.896
 10
243.903
 20
104.946
 10
243.867
 20
105.0
 10
243.838
 20
105.059
 10
243.817
 20
105.121
 10
243.804
 20
105.185
 10
243.8
 20
105.25
 10
243.804
 20
105.315
 10
243.817
 20
105.379
 10
243.838
 20
105.441
 10
243.867
 20
105.5
 10
243.903
 20
105.554
 10
243.946
 20
105.604
 10
243.996
 20
105.647
 10
244.05
 20
105.683
 10
244.109
 20
105.712
 10
244.171
 20
105.733
 10
244.235
 20
105.746
 10
244.3
 20
105.75
 10
244.365
 20
105.746
 10
244.429
 20
105.733
 10
244.491
 20
105.712
 10
244.55
 20
105.683
 10
244.604
 20
105.647
 10
244.654
 20
105.604
 10
244.697
 20
105.554
 10
244.733
 20
105.5
 10
244.762
 20
105.441
 10
244.783
 20
105.379
 10
244.796
 20
105.315
 97
0
 75
0
 76
1
 98
0
  0
HATCH
  5
9A
330
17
100
AcDbEntity
  8
RASTER
 62
7
100
AcDbHatch
 10
0.0
 20
0.0
 30
0.0
210
0.0
220
0.0
230
1.0
  2
SOLID
 70
1
 71
0
 91
1
 92
3
 72
0
 73
1
 93
48
 10
194.2
 20
99.85
 10
194.196
 20
99.785
 10
194.183
 20
99.721
 10
194.162
 20
99.659
 10
194.133
 20
99.6
 10
194.097
 20
99.546
 10
194.054
 20
99.496
 10
194.004
 20
99.453
 10
193.95
 20
99.417
 10
193.891
 20
99.388
 10
193.829
 20
99.367
 10
193.765
 20
99.354
 10
193.7
 20
99.35
 10
193.635
 20
99.354
 10
193.571
 20
99.367
 10
193.509
 20
99.388
 10
193.45
 20
99.417
 10
193.396
 20
99.453
 10
193.346
 20
99.496
 10
193.303
 20
99.546
 10
193.267
 20
99.6
 10
193.238
 20
99.659
 10
193.217
 20
99.721
 10
193.204
 20
99.785
 10
193.2
 20
99.85
 10
193.204
 20
99.915
 10
193.217
 20
99.979
 10
193.238
 20
100.041
 10
193.267
 20
100.1
 10
193.303
 20
100.154
 10
193.346
 20
100.204
 10
193.396
 20
100.247
 10
193.45
 20
100.283
 10
193.509
 20
100.312
 10
193.571
 20
100.333
 10
193.635
 20
100.346
 10
193.7
 20
100.35
 10
193.765
 20
100.346
 10
193.829
 20
100.333
 10
193.891
 20
100.312
 10
193.95
 20
100.283
 10
194.004
 20
100.247
 10
194.054
 20
100.204
 10
194.097
 20
100.154
 10
194.133
 20
100.1
 10
194.162
 20
100.041
 10
194.183
 20
99.979
 10
194.196
 20
99.915
 97
0
 75
0
 76
1
 98
0
  0
HATCH
  5
9B
330
17
100
AcDbEntity
  8
RASTER
 62
7
100
AcDbHatch
 10
0.0
 20
0.0
 30
0.0
210
0.0
220
0.0
230
1.0
  2
SOLID
 70
1
 71
0
 91
1
 92
3
 72
0
 73
1
 93
48
 10
244.8
 20
99.85
 10
244.796
 20
99.785
 10
244.783
 20
99.721
 10
244.762
 20
99.659
 10
244.733
 20
99.6
 10
244.697
 20
99.546
 10
244.654
 20
99.496
 10
244.604
 20
99.453
 10
244.55
 20
99.417
 10
244.491
 20
99.388
 10
244.429
 20
99.367
 10
244.365
 20
99.354
 10
244.3
 20
99.35
 10
244.235
 20
99.354
 10
244.171
 20
99.367
 10
244.109
 20
99.388
 10
244.05
 20
99.417
 10
243.996
 20
99.453
 10
243.946
 20
99.496
 10
243.903
 20
99.546
 10
243.867
 20
99.6
 10
243.838
 20
99.659
 10
243.817
 20
99.721
 10
243.804
 20
99.785
 10
243.8
 20
99.85
 10
243.804
 20
99.915
 10
243.817
 20
99.979
 10
243.838
 20
100.041
 10
243.867
 20
100.1
 10
243.903
 20
100.154
 10
243.946
 20
100.204
 10
243.996
 20
100.247
 10
244.05
 20
100.283
 10
244.109
 20
100.312
 10
244.171
 20
100.333
 10
244.235
 20
100.346
 10
244.3
 20
100.35
 10
244.365
 20
100.346
 10
244.429
 20
100.333
 10
244.491
 20
100.312
 10
244.55
 20
100.283
 10
244.604
 20
100.247
 10
244.654
 20
100.204
 10
244.697
 20
100.154
 10
244.733
 20
100.1
 10
244.762
 20
100.041
 10
244.783
 20
99.979
 10
244.796
 20
99.915
 97
0
 75
0
 76
1
 98
0
  0
LWPOLYLINE
  5
9C
330
17
100
AcDbEntity
  8
CUT
100
AcDbPolyline
 90
36
 70
1
 10
7.1
 20
53.04
 10
70.9
 20
53.04
 10
74.04
 20
53.04
 10
74.04
 20
50.66
 10
70.94
 20
50.66
 10
70.94
 20
48.44
 10
74.04
 20
48.44
 10
74.04
 20
46.06
 10
70.9
 20
46.06
 10
65.14
 20
46.06
 10
65.14
 20
42.96
 10
59.26
 20
42.96
 10
59.26
 20
46.06
 10
53.54
 20
46.06
 10
53.54
 20
42.96
 10
47.66
 20
42.96
 10
47.66
 20
46.06
 10
41.94
 20
46.06
 10
41.94
 20
42.96
 10
36.06
 20
42.96
 10
36.06
 20
46.06
 10
30.34
 20
46.06
 10
30.34
 20
42.96
 10
24.46
 20
42.96
 10
24.46
 20
46.06
 10
18.74
 20
46.06
 10
18.74
 20
42.96
 10
12.86
 20
42.96
 10
12.86
 20
46.06
 10
7.1
 20
46.06
 10
3.96
 20
46.06
 10
3.96
 20
48.44
 10
7.06
 20
48.44
 10
7.06
 20
50.66
 10
3.96
 20
50.66
 10
3.96
 20
53.04
  0
LWPOLYLINE
  5
9D
330
17
100
AcDbEntity
  8
CUT
100
AcDbPolyline
 90
4
 70
1
 10
12.14
 20
50.61
 10
65.86
 20
50.61
 10
65.86
 20
48.49
 10
12.14
 20
48.49
  0
HATCH
  5
9E
330
17
100
AcDbEntity
  8
RASTER
 62
7
100
AcDbHatch
 10
0.0
 20
0.0
 30
0.0
210
0.0
220
0.0
230
1.0
  2
SOLID
 70
1
 71
0
 91
1
 92
3
 72
0
 73
1
 93
4
 10
7.7
 20
52.6
 10
11.5
 20
52.6
 10
11.5
 20
46.5
 10
7.7
 20
46.5
 97
0
 75
0
 76
1
 98
0
  0
HATCH
  5
9F
330
17
100
AcDbEntity
  8
RASTER
 62
7
100
AcDbHatch
 10
0.0
 20
0.0
 30
0.0
210
0.0
220
0.0
230
1.0
  2
SOLID
 70
1
 71
0
 91
1
 92
3
 72
0
 73
1
 93
4
 10
66.5
 20
52.6
 10
70.3
 20
52.6
 10
70.3
 20
46.5
 10
66.5
 20
46.5
 97
0
 75
0
 76
1
 98
0
  0
HATCH
  5
A0
330
17
100
AcDbEntity
  8
RASTER
 62
7
100
AcDbHatch
 10
0.0
 20
0.0
 30
0.0
210
0.0
220
0.0
230
1.0
  2
SOLID
 70
1
 71
0
 91
1
 92
3
 72
0
 73
1
 93
48
 10
14.2
 20
52.25
 10
14.196
 20
52.185
 10
14.183
 20
52.121
 10
14.162
 20
52.059
 10
14.133
 20
52.0
 10
14.097
 20
51.946
 10
14.054
 20
51.896
 10
14.004
 20
51.853
 10
13.95
 20
51.817
 10
13.891
 20
51.788
 10
13.829
 20
51.767
 10
13.765
 20
51.754
 10
13.7
 20
51.75
 10
13.635
 20
51.754
 10
13.571
 20
51.767
 10
13.509
 20
51.788
 10
13.45
 20
51.817
 10
13.396
 20
51.853
 10
13.346
 20
51.896
 10
13.303
 20
51.946
 10
13.267
 20
52.0
 10
13.238
 20
52.059
 10
13.217
 20
52.121
 10
13.204
 20
52.185
 10
13.2
 20
52.25
 10
13.204
 20
52.315
 10
13.217
 20
52.379
 10
13.238
 20
52.441
 10
13.267
 20
52.5
 10
13.303
 20
52.554
 10
13.346
 20
52.604
 10
13.396
 20
52.647
 10
13.45
 20
52.683
 10
13.509
 20
52.712
 10
13.571
 20
52.733
 10
13.635
 20
52.746
 10
13.7
 20
52.75
 10
13.765
 20
52.746
 10
13.829
 20
52.733
 10
13.891
 20
52.712
 10
13.95
 20
52.683
 10
14.004
 20
52.647
 10
14.054
 20
52.604
 10
14.097
 20
52.554
 10
14.133
 20
52.5
 10
14.162
 20
52.441
 10
14.183
 20
52.379
 10
14.196
 20
52.315
 97
0
 75
0
 76
1
 98
0
  0
HATCH
  5
A1
330
17
100
AcDbEntity
  8
RASTER
 62
7
100
AcDbHatch
 10
0.0
 20
0.0
 30
0.0
210
0.0
220
0.0
230
1.0
  2
SOLID
 70
1
 71
0
 91
1
 92
3
 72
0
 73
1
 93
48
 10
64.8
 20
52.25
 10
64.796
 20
52.185
 10
64.783
 20
52.121
 10
64.762
 20
52.059
 10
64.733
 20
52.0
 10
64.697
 20
51.946
 10
64.654
 20
51.896
 10
64.604
 20
51.853
 10
64.55
 20
51.817
 10
64.491
 20
51.788
 10
64.429
 20
51.767
 10
64.365
 20
51.754
 10
64.3
 20
51.75
 10
64.235
 20
51.754
 10
64.171
 20
51.767
 10
64.109
 20
51.788
 10
64.05
 20
51.817
 10
63.996
 20
51.853
 10
63.946
 20
51.896
 10
63.903
 20
51.946
 10
63.867
 20
52.0
 10
63.838
 20
52.059
 10
63.817
 20
52.121
 10
63.804
 20
52.185
 10
63.8
 20
52.25
 10
63.804
 20
52.315
 10
63.817
 20
52.379
 10
63.838
 20
52.441
 10
63.867
 20
52.5
 10
63.903
 20
52.554
 10
63.946
 20
52.604
 10
63.996
 20
52.647
 10
64.05
 20
52.683
 10
64.109
 20
52.712
 10
64.171
 20
52.733
 10
64.235
 20
52.746
 10
64.3
 20
52.75
 10
64.365
 20
52.746
 10
64.429
 20
52.733
 10
64.491
 20
52.712
 10
64.55
 20
52.683
 10
64.604
 20
52.647
 10
64.654
 20
52.604
 10
64.697
 20
52.554
 10
64.733
 20
52.5
 10
64.762
 20
52.441
 10
64.783
 20
52.379
 10
64.796
 20
52.315
 97
0
 75
0
 76
1
 98
0
  0
HATCH
  5
A2
330
17
100
AcDbEntity
  8
RASTER
 62
7
100
AcDbHatch
 10
0.0
 20
0.0
 30
0.0
210
0.0
220
0.0
230
1.0
  2
SOLID
 70
1
 71
0
 91
1
 92
3
 72
0
 73
1
 93
48
 10
14.2
 20
46.85
 10
14.196
 20
46.785
 10
14.183
 20
46.721
 10
14.162
 20
46.659
 10
14.133
 20
46.6
 10
14.097
 20
46.546
 10
14.054
 20
46.496
 10
14.004
 20
46.453
 10
13.95
 20
46.417
 10
13.891
 20
46.388
 10
13.829
 20
46.367
 10
13.765
 20
46.354
 10
13.7
 20
46.35
 10
13.635
 20
46.354
 10
13.571
 20
46.367
 10
13.509
 20
46.388
 10
13.45
 20
46.417
 10
13.396
 20
46.453
 10
13.346
 20
46.496
 10
13.303
 20
46.546
 10
13.267
 20
46.6
 10
13.238
 20
46.659
 10
13.217
 20
46.721
 10
13.204
 20
46.785
 10
13.2
 20
46.85
 10
13.204
 20
46.915
 10
13.217
 20
46.979
 10
13.238
 20
47.041
 10
13.267
 20
47.1
 10
13.303
 20
47.154
 10
13.346
 20
47.204
 10
13.396
 20
47.247
 10
13.45
 20
47.283
 10
13.509
 20
47.312
 10
13.571
 20
47.333
 10
13.635
 20
47.346
 10
13.7
 20
47.35
 10
13.765
 20
47.346
 10
13.829
 20
47.333
 10
13.891
 20
47.312
 10
13.95
 20
47.283
 10
14.004
 20
47.247
 10
14.054
 20
47.204
 10
14.097
 20
47.154
 10
14.133
 20
47.1
 10
14.162
 20
47.041
 10
14.183
 20
46.979
 10
14.196
 20
46.915
 97
0
 75
0
 76
1
 98
0
  0
HATCH
  5
A3
330
17
100
AcDbEntity
  8
RASTER
 62
7
100
AcDbHatch
 10
0.0
 20
0.0
 30
0.0
210
0.0
220
0.0
230
1.0
  2
SOLID
 70
1
 71
0
 91
1
 92
3
 72
0
 73
1
 93
48
 10
64.8
 20
46.85
 10
64.796
 20
46.785
 10
64.783
 20
46.721
 10
64.762
 20
46.659
 10
64.733
 20
46.6
 10
64.697
 20
46.546
 10
64.654
 20
46.496
 10
64.604
 20
46.453
 10
64.55
 20
46.417
 10
64.491
 20
46.388
 10
64.429
 20
46.367
 10
64.365
 20
46.354
 10
64.3
 20
46.35
 10
64.235
 20
46.354
 10
64.171
 20
46.367
 10
64.109
 20
46.388
 10
64.05
 20
46.417
 10
63.996
 20
46.453
 10
63.946
 20
46.496
 10
63.903
 20
46.546
 10
63.867
 20
46.6
 10
63.838
 20
46.659
 10
63.817
 20
46.721
 10
63.804
 20
46.785
 10
63.8
 20
46.85
 10
63.804
 20
46.915
 10
63.817
 20
46.979
 10
63.838
 20
47.041
 10
63.867
 20
47.1
 10
63.903
 20
47.154
 10
63.946
 20
47.204
 10
63.996
 20
47.247
 10
64.05
 20
47.283
 10
64.109
 20
47.312
 10
64.171
 20
47.333
 10
64.235
 20
47.346
 10
64.3
 20
47.35
 10
64.365
 20
47.346
 10
64.429
 20
47.333
 10
64.491
 20
47.312
 10
64.55
 20
47.283
 10
64.604
 20
47.247
 10
64.654
 20
47.204
 10
64.697
 20
47.154
 10
64.733
 20
47.1
 10
64.762
 20
47.041
 10
64.783
 20
46.979
 10
64.796
 20
46.915
 97
0
 75
0
 76
1
 98
0
  0
LWPOLYLINE
  5
A4
330
17
100
AcDbEntity
  8
CUT
100
AcDbPolyline
 90
24
 70
1
 10
81.06
 20
53.04
 10
123.94
 20
53.04
 10
123.94
 20
50.74
 10
127.04
 20
50.74
 10
127.04
 20
48.36
 10
123.94
 20
48.36
 10
123.94
 20
46.06
 10
117.826
 20
46.06
 10
117.826
 20
42.96
 10
111.631
 20
42.96
 10
111.631
 20
46.06
 10
105.597
 20
46.06
 10
105.597
 20
42.96
 10
99.403
 20
42.96
 10
99.403
 20
46.06
 10
93.369
 20
46.06
 10
93.369
 20
42.96
 10
87.174
 20
42.96
 10
87.174
 20
46.06
 10
81.06
 20
46.06
 10
81.06
 20
48.36
 10
77.96
 20
48.36
 10
77.96
 20
50.74
 10
81.06
 20
50.74
  0
LWPOLYLINE
  5
A5
330
17
100
AcDbEntity
  8
CUT
100
AcDbPolyline
 90
4
 70
1
 10
86.14
 20
50.61
 10
118.86
 20
50.61
 10
118.86
 20
48.49
 10
86.14
 20
48.49
  0
HATCH
  5
A6
330
17
100
AcDbEntity
  8
RASTER
 62
7
100
AcDbHatch
 10
0.0
 20
0.0
 30
0.0
210
0.0
220
0.0
230
1.0
  2
SOLID
 70
1
 71
0
 91
1
 92
3
 72
0
 73
1
 93
4
 10
81.7
 20
52.6
 10
85.5
 20
52.6
 10
85.5
 20
46.5
 10
81.7
 20
46.5
 97
0
 75
0
 76
1
 98
0
  0
HATCH
  5
A7
330
17
100
AcDbEntity
  8
RASTER
 62
7
100
AcDbHatch
 10
0.0
 20
0.0
 30
0.0
210
0.0
220
0.0
230
1.0
  2
SOLID
 70
1
 71
0
 91
1
 92
3
 72
0
 73
1
 93
4
 10
119.5
 20
52.6
 10
123.3
 20
52.6
 10
123.3
 20
46.5
 10
119.5
 20
46.5
 97
0
 75
0
 76
1
 98
0
  0
HATCH
  5
A8
330
17
100
AcDbEntity
  8
RASTER
 62
7
100
AcDbHatch
 10
0.0
 20
0.0
 30
0.0
210
0.0
220
0.0
230
1.0
  2
SOLID
 70
1
 71
0
 91
1
 92
3
 72
0
 73
1
 93
48
 10
88.2
 20
52.25
 10
88.196
 20
52.185
 10
88.183
 20
52.121
 10
88.162
 20
52.059
 10
88.133
 20
52.0
 10
88.097
 20
51.946
 10
88.054
 20
51.896
 10
88.004
 20
51.853
 10
87.95
 20
51.817
 10
87.891
 20
51.788
 10
87.829
 20
51.767
 10
87.765
 20
51.754
 10
87.7
 20
51.75
 10
87.635
 20
51.754
 10
87.571
 20
51.767
 10
87.509
 20
51.788
 10
87.45
 20
51.817
 10
87.396
 20
51.853
 10
87.346
 20
51.896
 10
87.303
 20
51.946
 10
87.267
 20
52.0
 10
87.238
 20
52.059
 10
87.217
 20
52.121
 10
87.204
 20
52.185
 10
87.2
 20
52.25
 10
87.204
 20
52.315
 10
87.217
 20
52.379
 10
87.238
 20
52.441
 10
87.267
 20
52.5
 10
87.303
 20
52.554
 10
87.346
 20
52.604
 10
87.396
 20
52.647
 10
87.45
 20
52.683
 10
87.509
 20
52.712
 10
87.571
 20
52.733
 10
87.635
 20
52.746
 10
87.7
 20
52.75
 10
87.765
 20
52.746
 10
87.829
 20
52.733
 10
87.891
 20
52.712
 10
87.95
 20
52.683
 10
88.004
 20
52.647
 10
88.054
 20
52.604
 10
88.097
 20
52.554
 10
88.133
 20
52.5
 10
88.162
 20
52.441
 10
88.183
 20
52.379
 10
88.196
 20
52.315
 97
0
 75
0
 76
1
 98
0
  0
HATCH
  5
A9
330
17
100
AcDbEntity
  8
RASTER
 62
7
100
AcDbHatch
 10
0.0
 20
0.0
 30
0.0
210
0.0
220
0.0
230
1.0
  2
SOLID
 70
1
 71
0
 91
1
 92
3
 72
0
 73
1
 93
48
 10
117.8
 20
52.25
 10
117.796
 20
52.185
 10
117.783
 20
52.121
 10
117.762
 20
52.059
 10
117.733
 20
52.0
 10
117.697
 20
51.946
 10
117.654
 20
51.896
 10
117.604
 20
51.853
 10
117.55
 20
51.817
 10
117.491
 20
51.788
 10
117.429
 20
51.767
 10
117.365
 20
51.754
 10
117.3
 20
51.75
 10
117.235
 20
51.754
 10
117.171
 20
51.767
 10
117.109
 20
51.788
 10
117.05
 20
51.817
 10
116.996
 20
51.853
 10
116.946
 20
51.896
 10
116.903
 20
51.946
 10
116.867
 20
52.0
 10
116.838
 20
52.059
 10
116.817
 20
52.121
 10
116.804
 20
52.185
 10
116.8
 20
52.25
 10
116.804
 20
52.315
 10
116.817
 20
52.379
 10
116.838
 20
52.441
 10
116.867
 20
52.5
 10
116.903
 20
52.554
 10
116.946
 20
52.604
 10
116.996
 20
52.647
 10
117.05
 20
52.683
 10
117.109
 20
52.712
 10
117.171
 20
52.733
 10
117.235
 20
52.746
 10
117.3
 20
52.75
 10
117.365
 20
52.746
 10
117.429
 20
52.733
 10
117.491
 20
52.712
 10
117.55
 20
52.683
 10
117.604
 20
52.647
 10
117.654
 20
52.604
 10
117.697
 20
52.554
 10
117.733
 20
52.5
 10
117.762
 20
52.441
 10
117.783
 20
52.379
 10
117.796
 20
52.315
 97
0
 75
0
 76
1
 98
0
  0
HATCH
  5
AA
330
17
100
AcDbEntity
  8
RASTER
 62
7
100
AcDbHatch
 10
0.0
 20
0.0
 30
0.0
210
0.0
220
0.0
230
1.0
  2
SOLID
 70
1
 71
0
 91
1
 92
3
 72
0
 73
1
 93
48
 10
88.2
 20
46.85
 10
88.196
 20
46.785
 10
88.183
 20
46.721
 10
88.162
 20
46.659
 10
88.133
 20
46.6
 10
88.097
 20
46.546
 10
88.054
 20
46.496
 10
88.004
 20
46.453
 10
87.95
 20
46.417
 10
87.891
 20
46.388
 10
87.829
 20
46.367
 10
87.765
 20
46.354
 10
87.7
 20
46.35
 10
87.635
 20
46.354
 10
87.571
 20
46.367
 10
87.509
 20
46.388
 10
87.45
 20
46.417
 10
87.396
 20
46.453
 10
87.346
 20
46.496
 10
87.303
 20
46.546
 10
87.267
 20
46.6
 10
87.238
 20
46.659
 10
87.217
 20
46.721
 10
87.204
 20
46.785
 10
87.2
 20
46.85
 10
87.204
 20
46.915
 10
87.217
 20
46.979
 10
87.238
 20
47.041
 10
87.267
 20
47.1
 10
87.303
 20
47.154
 10
87.346
 20
47.204
 10
87.396
 20
47.247
 10
87.45
 20
47.283
 10
87.509
 20
47.312
 10
87.571
 20
47.333
 10
87.635
 20
47.346
 10
87.7
 20
47.35
 10
87.765
 20
47.346
 10
87.829
 20
47.333
 10
87.891
 20
47.312
 10
87.95
 20
47.283
 10
88.004
 20
47.247
 10
88.054
 20
47.204
 10
88.097
 20
47.154
 10
88.133
 20
47.1
 10
88.162
 20
47.041
 10
88.183
 20
46.979
 10
88.196
 20
46.915
 97
0
 75
0
 76
1
 98
0
  0
HATCH
  5
AB
330
17
100
AcDbEntity
  8
RASTER
 62
7
100
AcDbHatch
 10
0.0
 20
0.0
 30
0.0
210
0.0
220
0.0
230
1.0
  2
SOLID
 70
1
 71
0
 91
1
 92
3
 72
0
 73
1
 93
48
 10
117.8
 20
46.85
 10
117.796
 20
46.785
 10
117.783
 20
46.721
 10
117.762
 20
46.659
 10
117.733
 20
46.6
 10
117.697
 20
46.546
 10
117.654
 20
46.496
 10
117.604
 20
46.453
 10
117.55
 20
46.417
 10
117.491
 20
46.388
 10
117.429
 20
46.367
 10
117.365
 20
46.354
 10
117.3
 20
46.35
 10
117.235
 20
46.354
 10
117.171
 20
46.367
 10
117.109
 20
46.388
 10
117.05
 20
46.417
 10
116.996
 20
46.453
 10
116.946
 20
46.496
 10
116.903
 20
46.546
 10
116.867
 20
46.6
 10
116.838
 20
46.659
 10
116.817
 20
46.721
 10
116.804
 20
46.785
 10
116.8
 20
46.85
 10
116.804
 20
46.915
 10
116.817
 20
46.979
 10
116.838
 20
47.041
 10
116.867
 20
47.1
 10
116.903
 20
47.154
 10
116.946
 20
47.204
 10
116.996
 20
47.247
 10
117.05
 20
47.283
 10
117.109
 20
47.312
 10
117.171
 20
47.333
 10
117.235
 20
47.346
 10
117.3
 20
47.35
 10
117.365
 20
47.346
 10
117.429
 20
47.333
 10
117.491
 20
47.312
 10
117.55
 20
47.283
 10
117.604
 20
47.247
 10
117.654
 20
47.204
 10
117.697
 20
47.154
 10
117.733
 20
47.1
 10
117.762
 20
47.041
 10
117.783
 20
46.979
 10
117.796
 20
46.915
 97
0
 75
0
 76
1
 98
0
  0
LWPOLYLINE
  5
AC
330
17
100
AcDbEntity
  8
CUT
100
AcDbPolyline
 90
24
 70
1
 10
134.06
 20
53.04
 10
176.94
 20
53.04
 10
176.94
 20
50.74
 10
180.04
 20
50.74
 10
180.04
 20
48.36
 10
176.94
 20
48.36
 10
176.94
 20
46.06
 10
170.826
 20
46.06
 10
170.826
 20
42.96
 10
164.631
 20
42.96
 10
164.631
 20
46.06
 10
158.597
 20
46.06
 10
158.597
 20
42.96
 10
152.403
 20
42.96
 10
152.403
 20
46.06
 10
146.369
 20
46.06
 10
146.369
 20
42.96
 10
140.174
 20
42.96
 10
140.174
 20
46.06
 10
134.06
 20
46.06
 10
134.06
 20
48.36
 10
130.96
 20
48.36
 10
130.96
 20
50.74
 10
134.06
 20
50.74
  0
LWPOLYLINE
  5
AD
330
17
100
AcDbEntity
  8
CUT
100
AcDbPolyline
 90
4
 70
1
 10
139.14
 20
50.61
 10
171.86
 20
50.61
 10
171.86
 20
48.49
 10
139.14
 20
48.49
  0
HATCH
  5
AE
330
17
100
AcDbEntity
  8
RASTER
 62
7
100
AcDbHatch
 10
0.0
 20
0.0
 30
0.0
210
0.0
220
0.0
230
1.0
  2
SOLID
 70
1
 71
0
 91
1
 92
3
 72
0
 73
1
 93
4
 10
134.7
 20
52.6
 10
138.5
 20
52.6
 10
138.5
 20
46.5
 10
134.7
 20
46.5
 97
0
 75
0
 76
1
 98
0
  0
HATCH
  5
AF
330
17
100
AcDbEntity
  8
RASTER
 62
7
100
AcDbHatch
 10
0.0
 20
0.0
 30
0.0
210
0.0
220
0.0
230
1.0
  2
SOLID
 70
1
 71
0
 91
1
 92
3
 72
0
 73
1
 93
4
 10
172.5
 20
52.6
 10
176.3
 20
52.6
 10
176.3
 20
46.5
 10
172.5
 20
46.5
 97
0
 75
0
 76
1
 98
0
  0
HATCH
  5
B0
330
17
100
AcDbEntity
  8
RASTER
 62
7
100
AcDbHatch
 10
0.0
 20
0.0
 30
0.0
210
0.0
220
0.0
230
1.0
  2
SOLID
 70
1
 71
0
 91
1
 92
3
 72
0
 73
1
 93
48
 10
141.2
 20
52.25
 10
141.196
 20
52.185
 10
141.183
 20
52.121
 10
141.162
 20
52.059
 10
141.133
 20
52.0
 10
141.097
 20
51.946
 10
141.054
 20
51.896
 10
141.004
 20
51.853
 10
140.95
 20
51.817
 10
140.891
 20
51.788
 10
140.829
 20
51.767
 10
140.765
 20
51.754
 10
140.7
 20
51.75
 10
140.635
 20
51.754
 10
140.571
 20
51.767
 10
140.509
 20
51.788
 10
140.45
 20
51.817
 10
140.396
 20
51.853
 10
140.346
 20
51.896
 10
140.303
 20
51.946
 10
140.267
 20
52.0
 10
140.238
 20
52.059
 10
140.217
 20
52.121
 10
140.204
 20
52.185
 10
140.2
 20
52.25
 10
140.204
 20
52.315
 10
140.217
 20
52.379
 10
140.238
 20
52.441
 10
140.267
 20
52.5
 10
140.303
 20
52.554
 10
140.346
 20
52.604
 10
140.396
 20
52.647
 10
140.45
 20
52.683
 10
140.509
 20
52.712
 10
140.571
 20
52.733
 10
140.635
 20
52.746
 10
140.7
 20
52.75
 10
140.765
 20
52.746
 10
140.829
 20
52.733
 10
140.891
 20
52.712
 10
140.95
 20
52.683
 10
141.004
 20
52.647
 10
141.054
 20
52.604
 10
141.097
 20
52.554
 10
141.133
 20
52.5
 10
141.162
 20
52.441
 10
141.183
 20
52.379
 10
141.196
 20
52.315
 97
0
 75
0
 76
1
 98
0
  0
HATCH
  5
B1
330
17
100
AcDbEntity
  8
RASTER
 62
7
100
AcDbHatch
 10
0.0
 20
0.0
 30
0.0
210
0.0
220
0.0
230
1.0
  2
SOLID
 70
1
 71
0
 91
1
 92
3
 72
0
 73
1
 93
48
 10
170.8
 20
52.25
 10
170.796
 20
52.185
 10
170.783
 20
52.121
 10
170.762
 20
52.059
 10
170.733
 20
52.0
 10
170.697
 20
51.946
 10
170.654
 20
51.896
 10
170.604
 20
51.853
 10
170.55
 20
51.817
 10
170.491
 20
51.788
 10
170.429
 20
51.767
 10
170.365
 20
51.754
 10
170.3
 20
51.75
 10
170.235
 20
51.754
 10
170.171
 20
51.767
 10
170.109
 20
51.788
 10
170.05
 20
51.817
 10
169.996
 20
51.853
 10
169.946
 20
51.896
 10
169.903
 20
51.946
 10
169.867
 20
52.0
 10
169.838
 20
52.059
 10
169.817
 20
52.121
 10
169.804
 20
52.185
 10
169.8
 20
52.25
 10
169.804
 20
52.315
 10
169.817
 20
52.379
 10
169.838
 20
52.441
 10
169.867
 20
52.5
 10
169.903
 20
52.554
 10
169.946
 20
52.604
 10
169.996
 20
52.647
 10
170.05
 20
52.683
 10
170.109
 20
52.712
 10
170.171
 20
52.733
 10
170.235
 20
52.746
 10
170.3
 20
52.75
 10
170.365
 20
52.746
 10
170.429
 20
52.733
 10
170.491
 20
52.712
 10
170.55
 20
52.683
 10
170.604
 20
52.647
 10
170.654
 20
52.604
 10
170.697
 20
52.554
 10
170.733
 20
52.5
 10
170.762
 20
52.441
 10
170.783
 20
52.379
 10
170.796
 20
52.315
 97
0
 75
0
 76
1
 98
0
  0
HATCH
  5
B2
330
17
100
AcDbEntity
  8
RASTER
 62
7
100
AcDbHatch
 10
0.0
 20
0.0
 30
0.0
210
0.0
220
0.0
230
1.0
  2
SOLID
 70
1
 71
0
 91
1
 92
3
 72
0
 73
1
 93
48
 10
141.2
 20
46.85
 10
141.196
 20
46.785
 10
141.183
 20
46.721
 10
141.162
 20
46.659
 10
141.133
 20
46.6
 10
141.097
 20
46.546
 10
141.054
 20
46.496
 10
141.004
 20
46.453
 10
140.95
 20
46.417
 10
140.891
 20
46.388
 10
140.829
 20
46.367
 10
140.765
 20
46.354
 10
140.7
 20
46.35
 10
140.635
 20
46.354
 10
140.571
 20
46.367
 10
140.509
 20
46.388
 10
140.45
 20
46.417
 10
140.396
 20
46.453
 10
140.346
 20
46.496
 10
140.303
 20
46.546
 10
140.267
 20
46.6
 10
140.238
 20
46.659
 10
140.217
 20
46.721
 10
140.204
 20
46.785
 10
140.2
 20
46.85
 10
140.204
 20
46.915
 10
140.217
 20
46.979
 10
140.238
 20
47.041
 10
140.267
 20
47.1
 10
140.303
 20
47.154
 10
140.346
 20
47.204
 10
140.396
 20
47.247
 10
140.45
 20
47.283
 10
140.509
 20
47.312
 10
140.571
 20
47.333
 10
140.635
 20
47.346
 10
140.7
 20
47.35
 10
140.765
 20
47.346
 10
140.829
 20
47.333
 10
140.891
 20
47.312
 10
140.95
 20
47.283
 10
141.004
 20
47.247
 10
141.054
 20
47.204
 10
141.097
 20
47.154
 10
141.133
 20
47.1
 10
141.162
 20
47.041
 10
141.183
 20
46.979
 10
141.196
 20
46.915
 97
0
 75
0
 76
1
 98
0
  0
HATCH
  5
B3
330
17
100
AcDbEntity
  8
RASTER
 62
7
100
AcDbHatch
 10
0.0
 20
0.0
 30
0.0
210
0.0
220
0.0
230
1.0
  2
SOLID
 70
1
 71
0
 91
1
 92
3
 72
0
 73
1
 93
48
 10
170.8
 20
46.85
 10
170.796
 20
46.785
 10
170.783
 20
46.721
 10
170.762
 20
46.659
 10
170.733
 20
46.6
 10
170.697
 20
46.546
 10
170.654
 20
46.496
 10
170.604
 20
46.453
 10
170.55
 20
46.417
 10
170.491
 20
46.388
 10
170.429
 20
46.367
 10
170.365
 20
46.354
 10
170.3
 20
46.35
 10
170.235
 20
46.354
 10
170.171
 20
46.367
 10
170.109
 20
46.388
 10
170.05
 20
46.417
 10
169.996
 20
46.453
 10
169.946
 20
46.496
 10
169.903
 20
46.546
 10
169.867
 20
46.6
 10
169.838
 20
46.659
 10
169.817
 20
46.721
 10
169.804
 20
46.785
 10
169.8
 20
46.85
 10
169.804
 20
46.915
 10
169.817
 20
46.979
 10
169.838
 20
47.041
 10
169.867
 20
47.1
 10
169.903
 20
47.154
 10
169.946
 20
47.204
 10
169.996
 20
47.247
 10
170.05
 20
47.283
 10
170.109
 20
47.312
 10
170.171
 20
47.333
 10
170.235
 20
47.346
 10
170.3
 20
47.35
 10
170.365
 20
47.346
 10
170.429
 20
47.333
 10
170.491
 20
47.312
 10
170.55
 20
47.283
 10
170.604
 20
47.247
 10
170.654
 20
47.204
 10
170.697
 20
47.154
 10
170.733
 20
47.1
 10
170.762
 20
47.041
 10
170.783
 20
46.979
 10
170.796
 20
46.915
 97
0
 75
0
 76
1
 98
0
  0
LWPOLYLINE
  5
B4
330
17
100
AcDbEntity
  8
CUT
100
AcDbPolyline
 90
76
 70
1
 10
183.96
 20
53.04
 10
187.1
 20
53.04
 10
192.94
 20
53.04
 10
192.94
 20
49.94
 10
198.66
 20
49.94
 10
198.66
 20
53.04
 10
204.54
 20
53.04
 10
204.54
 20
49.94
 10
210.26
 20
49.94
 10
210.26
 20
53.04
 10
216.14
 20
53.04
 10
216.14
 20
49.94
 10
221.86
 20
49.94
 10
221.86
 20
53.04
 10
227.74
 20
53.04
 10
227.74
 20
49.94
 10
233.46
 20
49.94
 10
233.46
 20
53.04
 10
239.34
 20
53.04
 10
239.34
 20
49.94
 10
245.06
 20
49.94
 10
245.06
 20
53.04
 10
250.9
 20
53.04
 10
254.04
 20
53.04
 10
254.04
 20
49.9
 10
254.04
 20
43.746
 10
250.94
 20
43.746
 10
250.94
 20
37.711
 10
254.04
 20
37.711
 10
254.04
 20
31.517
 10
250.94
 20
31.517
 10
250.94
 20
25.483
 10
254.04
 20
25.483
 10
254.04
 20
19.289
 10
250.94
 20
19.289
 10
250.94
 20
13.254
 10
254.04
 20
13.254
 10
254.04
 20
7.1
 10
254.04
 20
3.96
 10
250.9
 20
3.96
 10
245.06
 20
3.96
 10
245.06
 20
7.06
 10
239.34
 20
7.06
 10
239.34
 20
3.96
 10
233.46
 20
3.96
 10
233.46
 20
7.06
 10
227.74
 20
7.06
 10
227.74
 20
3.96
 10
221.86
 20
3.96
 10
221.86
 20
7.06
 10
216.14
 20
7.06
 10
216.14
 20
3.96
 10
210.26
 20
3.96
 10
210.26
 20
7.06
 10
204.54
 20
7.06
 10
204.54
 20
3.96
 10
198.66
 20
3.96
 10
198.66
 20
7.06
 10
192.94
 20
7.06
 10
192.94
 20
3.96
 10
187.1
 20
3.96
 10
183.96
 20
3.96
 10
183.96
 20
7.1
 10
183.96
 20
13.254
 10
187.06
 20
13.254
 10
187.06
 20
19.289
 10
183.96
 20
19.289
 10
183.96
 20
25.483
 10
187.06
 20
25.483
 10
187.06
 20
31.517
 10
183.96
 20
31.517
 10
183.96
 20
37.711
 10
187.06
 20
37.711
 10
187.06
 20
43.746
 10
183.96
 20
43.746
 10
183.96
 20
49.9
  0
ENDSEC
  0
SECTION
  2
OBJECTS
  0
DICTIONARY
  5
A
330
0
100
AcDbDictionary
281
1
  3
ACAD_COLOR
350
B
  3
ACAD_GROUP
350
C
  3
ACAD_LAYOUT
350
D
  3
ACAD_MATERIAL
350
E
  3
ACAD_MLEADERSTYLE
350
F
  3
ACAD_MLINESTYLE
350
10
  3
ACAD_PLOTSETTINGS
350
11
  3
ACAD_PLOTSTYLENAME
350
12
  3
ACAD_SCALELIST
350
14
  3
ACAD_TABLESTYLE
350
15
  3
ACAD_VISUALSTYLE
350
16
  3
EZDXF_META
350
2D
  0
DICTIONARY
  5
B
330
A
100
AcDbDictionary
281
1
  0
DICTIONARY
  5
C
330
A
100
AcDbDictionary
281
1
  0
DICTIONARY
  5
D
330
A
100
AcDbDictionary
281
1
  3
Model
350
1A
  3
Layout1
350
1E
  0
DICTIONARY
  5
E
330
A
100
AcDbDictionary
281
1
  3
ByBlock
350
1F
  3
ByLayer
350
20
  3
Global
350
21
  0
DICTIONARY
  5
F
330
A
100
AcDbDictionary
281
1
  3
Standard
350
2C
  0
DICTIONARY
  5
10
330
A
100
AcDbDictionary
281
1
  3
Standard
350
22
  0
DICTIONARY
  5
11
330
A
100
AcDbDictionary
281
1
  0
ACDBDICTIONARYWDFLT
  5
12
330
A
100
AcDbDictionary
281
1
  3
Normal
350
13
100
AcDbDictionaryWithDefault
340
13
  0
ACDBPLACEHOLDER
  5
13
330
12
  0
DICTIONARY
  5
14
330
A
100
AcDbDictionary
281
1
  0
DICTIONARY
  5
15
330
A
100
AcDbDictionary
281
1
  0
DICTIONARY
  5
16
330
A
100
AcDbDictionary
281
1
  0
LAYOUT
  5
1A
330
D
100
AcDbPlotSettings
  1

  4
A3
  6

 40
7.5
 41
20.0
 42
7.5
 43
20.0
 44
420.0
 45
297.0
 46
0.0
 47
0.0
 48
0.0
 49
0.0
140
0.0
141
0.0
142
1.0
143
1.0
 70
1024
 72
1
 73
0
 74
5
  7

 75
16
 76
0
 77
2
 78
300
147
1.0
148
0.0
149
0.0
100
AcDbLayout
  1
Model
 70
1
 71
0
 10
0.0
 20
0.0
 11
420.0
 21
297.0
 12
0.0
 22
0.0
 32
0.0
 14
1e+20
 24
1e+20
 34
1e+20
 15
-1e+20
 25
-1e+20
 35
-1e+20
146
0.0
 13
0.0
 23
0.0
 33
0.0
 16
1.0
 26
0.0
 36
0.0
 17
0.0
 27
1.0
 37
0.0
 76
1
330
17
  0
LAYOUT
  5
1E
330
D
100
AcDbPlotSettings
  1

  4
A3
  6

 40
7.5
 41
20.0
 42
7.5
 43
20.0
 44
420.0
 45
297.0
 46
0.0
 47
0.0
 48
0.0
 49
0.0
140
0.0
141
0.0
142
1.0
143
1.0
 70
0
 72
1
 73
0
 74
5
  7

 75
16
 76
0
 77
2
 78
300
147
1.0
148
0.0
149
0.0
100
AcDbLayout
  1
Layout1
 70
1
 71
1
 10
0.0
 20
0.0
 11
420.0
 21
297.0
 12
0.0
 22
0.0
 32
0.0
 14
1e+20
 24
1e+20
 34
1e+20
 15
-1e+20
 25
-1e+20
 35
-1e+20
146
0.0
 13
0.0
 23
0.0
 33
0.0
 16
1.0
 26
0.0
 36
0.0
 17
0.0
 27
1.0
 37
0.0
 76
1
330
1B
  0
MATERIAL
  5
1F
102
{ACAD_REACTORS
330
E
102
}
330
E
100
AcDbMaterial
  1
ByBlock
  2

 70
0
 40
1.0
 71
1
 41
1.0
 91
-1023410177
 42
1.0
 72
1
  3

 73
1
 74
1
 75
1
 44
0.5
 73
0
 45
1.0
 46
1.0
 77
1
  4

 78
1
 79
1
170
1
 48
1.0
171
1
  6

172
1
173
1
174
1
140
1.0
141
1.0
175
1
  7

176
1
177
1
178
1
143
1.0
179
1
  8

270
1
271
1
272
1
145
1.0
146
1.0
273
1
  9

274
1
275
1
276
1
 42
1.0
 72
1
  3

 73
1
 74
1
 75
1
 94
63
  0
MATERIAL
  5
20
102
{ACAD_REACTORS
330
E
102
}
330
E
100
AcDbMaterial
  1
ByLayer
  2

 70
0
 40
1.0
 71
1
 41
1.0
 91
-1023410177
 42
1.0
 72
1
  3

 73
1
 74
1
 75
1
 44
0.5
 73
0
 45
1.0
 46
1.0
 77
1
  4

 78
1
 79
1
170
1
 48
1.0
171
1
  6

172
1
173
1
174
1
140
1.0
141
1.0
175
1
  7

176
1
177
1
178
1
143
1.0
179
1
  8

270
1
271
1
272
1
145
1.0
146
1.0
273
1
  9

274
1
275
1
276
1
 42
1.0
 72
1
  3

 73
1
 74
1
 75
1
 94
63
  0
MATERIAL
  5
21
102
{ACAD_REACTORS
330
E
102
}
330
E
100
AcDbMaterial
  1
Global
  2

 70
0
 40
1.0
 71
1
 41
1.0
 91
-1023410177
 42
1.0
 72
1
  3

 73
1
 74
1
 75
1
 44
0.5
 73
0
 45
1.0
 46
1.0
 77
1
  4

 78
1
 79
1
170
1
 48
1.0
171
1
  6

172
1
173
1
174
1
140
1.0
141
1.0
175
1
  7

176
1
177
1
178
1
143
1.0
179
1
  8

270
1
271
1
272
1
145
1.0
146
1.0
273
1
  9

274
1
275
1
276
1
 42
1.0
 72
1
  3

 73
1
 74
1
 75
1
 94
63
  0
MLINESTYLE
  5
22
102
{ACAD_REACTORS
330
10
102
}
330
10
100
AcDbMlineStyle
  2
Standard
 70
0
  3

 62
256
 51
90.0
 52
90.0
 71
2
 49
0.5
 62
256
  6
BYLAYER
 49
-0.5
 62
256
  6
BYLAYER
  0
MLEADERSTYLE
  5
2C
102
{ACAD_REACTORS
330
F
102
}
330
F
100
AcDbMLeaderStyle
179
2
170
2
171
1
172
0
 90
2
 40
0.0
 41
0.0
173
1
 91
-1056964608
 92
-2
290
1
 42
2.0
291
1
 43
8.0
  3
Standard
 44
4.0
300

342
29
174
1
175
1
176
0
178
1
 93
-1056964608
 45
4.0
292
0
297
0
 46
4.0
 94
-1056964608
 47
1.0
 49
1.0
140
1.0
294
1
141
0.0
177
0
142
1.0
295
0
296
0
143
3.75
271
0
272
9
273
9
  0
DICTIONARY
  5
2D
330
A
100
AcDbDictionary
280
1
281
1
  3
CREATED_BY_EZDXF
350
2E
  3
WRITTEN_BY_EZDXF
350
B7
  0
DICTIONARYVAR
  5
2E
330
2D
100
DictionaryVariables
280
0
  1
1.4.2 @ 2026-09-01T03:41:40.536654+00:00
  0
DICTIONARYVAR
  5
B7
330
2D
100
DictionaryVariables
280
0
  1
1.4.2 @ 2026-09-01T03:41:40.546191+00:00
  0
ENDSEC
  0
EOF
