0
SECTION
2
HEADER
9
$ACADVER
1
AC1009
9
$EXTMIN
10
0
20
0
9
$EXTMAX
10
164.517
20
28.011
0
ENDSEC
0
SECTION
2
TABLES
0
TABLE
2
LAYER
70
2
0
LAYER
2
CUT
70
0
62
1
6
CONTINUOUS
0
LAYER
2
RASTER
70
0
62
7
6
CONTINUOUS
0
ENDTAB
0
ENDSEC
0
SECTION
2
ENTITIES
0
POLYLINE
8
CUT
66
1
70
1
0
VERTEX
8
CUT
10
7.855
20
23.9
30
0
0
VERTEX
8
CUT
10
12.277
20
24.011
30
0
0
VERTEX
8
CUT
10
14.331
20
23.191
30
0
0
VERTEX
8
CUT
10
15.444
20
24.001
30
0
0
VERTEX
8
CUT
10
22.344
20
23.859
30
0
0
VERTEX
8
CUT
10
22.536
20
22.129
30
0
0
VERTEX
8
CUT
10
23.093
20
21.067
30
0
0
VERTEX
8
CUT
10
23.113
20
18.355
30
0
0
VERTEX
8
CUT
10
22.931
20
17.525
30
0
0
VERTEX
8
CUT
10
21.919
20
16.311
30
0
0
VERTEX
8
CUT
10
21.879
20
15.805
30
0
0
VERTEX
8
CUT
10
22.223
20
15.137
30
0
0
VERTEX
8
CUT
10
23.73
20
14.925
30
0
0
VERTEX
8
CUT
10
24.024
20
14.308
30
0
0
VERTEX
8
CUT
10
23.973
20
10.514
30
0
0
VERTEX
8
CUT
10
23.123
20
9.441
30
0
0
VERTEX
8
CUT
10
22.82
20
7.923
30
0
0
VERTEX
8
CUT
10
21.342
20
7.579
30
0
0
VERTEX
8
CUT
10
20.664
20
7.043
30
0
0
VERTEX
8
CUT
10
19.43
20
6.861
30
0
0
VERTEX
8
CUT
10
18.702
20
6.375
30
0
0
VERTEX
8
CUT
10
17.417
20
6.244
30
0
0
VERTEX
8
CUT
10
16.587
20
5.758
30
0
0
VERTEX
8
CUT
10
12.105
20
5.707
30
0
0
VERTEX
8
CUT
10
11.295
20
4.271
30
0
0
VERTEX
8
CUT
10
10.85
20
4.008
30
0
0
VERTEX
8
CUT
10
4.455
20
4.149
30
0
0
VERTEX
8
CUT
10
4
20
5.414
30
0
0
VERTEX
8
CUT
10
4.04
20
9.097
30
0
0
VERTEX
8
CUT
10
4.364
20
9.481
30
0
0
VERTEX
8
CUT
10
6.833
20
10.412
30
0
0
VERTEX
8
CUT
10
6.013
20
12.891
30
0
0
VERTEX
8
CUT
10
6.115
20
19.67
30
0
0
VERTEX
8
CUT
10
6.388
20
22.23
30
0
0
VERTEX
8
CUT
10
7.369
20
22.766
30
0
0
SEQEND
8
CUT
0
POLYLINE
8
RASTER
66
1
70
1
0
VERTEX
8
RASTER
10
9.99
20
23.586
30
0
0
VERTEX
8
RASTER
10
10.395
20
23.444
30
0
0
VERTEX
8
RASTER
10
10.799
20
22.938
30
0
0
VERTEX
8
RASTER
10
11.174
20
22.2
30
0
0
VERTEX
8
RASTER
10
11.508
20
21.016
30
0
0
VERTEX
8
RASTER
10
12.489
20
21.492
30
0
0
VERTEX
8
RASTER
10
12.722
20
21.421
30
0
0
VERTEX
8
RASTER
10
12.894
20
21.188
30
0
0
VERTEX
8
RASTER
10
12.894
20
20.682
30
0
0
VERTEX
8
RASTER
10
12.995
20
20.379
30
0
0
VERTEX
8
RASTER
10
12.793
20
19.367
30
0
0
VERTEX
8
RASTER
10
12.59
20
18.962
30
0
0
VERTEX
8
RASTER
10
13.025
20
18.79
30
0
0
VERTEX
8
RASTER
10
13.197
20
18.557
30
0
0
VERTEX
8
RASTER
10
13.197
20
17.95
30
0
0
VERTEX
8
RASTER
10
12.894
20
17.04
30
0
0
VERTEX
8
RASTER
10
12.965
20
16.807
30
0
0
VERTEX
8
RASTER
10
13.126
20
16.665
30
0
0
VERTEX
8
RASTER
10
13.501
20
17.849
30
0
0
VERTEX
8
RASTER
10
13.774
20
18.385
30
0
0
VERTEX
8
RASTER
10
14.108
20
18.659
30
0
0
VERTEX
8
RASTER
10
14.482
20
18.487
30
0
0
VERTEX
8
RASTER
10
14.715
20
19.67
30
0
0
VERTEX
8
RASTER
10
15.191
20
20.611
30
0
0
VERTEX
8
RASTER
10
15.524
20
20.682
30
0
0
VERTEX
8
RASTER
10
15.798
20
20.551
30
0
0
VERTEX
8
RASTER
10
15.858
20
20.409
30
0
0
VERTEX
8
RASTER
10
16
20
20.409
30
0
0
VERTEX
8
RASTER
10
16.132
20
21.289
30
0
0
VERTEX
8
RASTER
10
16.809
20
22.534
30
0
0
VERTEX
8
RASTER
10
17.143
20
22.706
30
0
0
VERTEX
8
RASTER
10
17.275
20
22.635
30
0
0
VERTEX
8
RASTER
10
18.024
20
21.724
30
0
0
VERTEX
8
RASTER
10
18.327
20
22.23
30
0
0
VERTEX
8
RASTER
10
19.137
20
23.04
30
0
0
VERTEX
8
RASTER
10
19.774
20
23.414
30
0
0
VERTEX
8
RASTER
10
20.482
20
23.616
30
0
0
VERTEX
8
RASTER
10
20.614
20
23.546
30
0
0
VERTEX
8
RASTER
10
20.786
20
23.313
30
0
0
VERTEX
8
RASTER
10
20.786
20
22.2
30
0
0
VERTEX
8
RASTER
10
20.482
20
21.087
30
0
0
VERTEX
8
RASTER
10
20.078
20
20.277
30
0
0
VERTEX
8
RASTER
10
20.179
20
20.176
30
0
0
VERTEX
8
RASTER
10
20.988
20
20.075
30
0
0
VERTEX
8
RASTER
10
21.322
20
19.903
30
0
0
VERTEX
8
RASTER
10
21.393
20
19.468
30
0
0
VERTEX
8
RASTER
10
21.12
20
18.932
30
0
0
VERTEX
8
RASTER
10
20.857
20
18.689
30
0
0
VERTEX
8
RASTER
10
20.715
20
18.426
30
0
0
VERTEX
8
RASTER
10
19.845
20
17.778
30
0
0
VERTEX
8
RASTER
10
19.845
20
17.616
30
0
0
VERTEX
8
RASTER
10
20.078
20
17.343
30
0
0
VERTEX
8
RASTER
10
19.906
20
16.807
30
0
0
VERTEX
8
RASTER
10
19.4
20
16.301
30
0
0
VERTEX
8
RASTER
10
18.53
20
15.755
30
0
0
VERTEX
8
RASTER
10
18.489
20
15.653
30
0
0
VERTEX
8
RASTER
10
18.762
20
15.421
30
0
0
VERTEX
8
RASTER
10
18.762
20
15.117
30
0
0
VERTEX
8
RASTER
10
18.59
20
14.783
30
0
0
VERTEX
8
RASTER
10
17.275
20
13.731
30
0
0
VERTEX
8
RASTER
10
17.649
20
13.701
30
0
0
VERTEX
8
RASTER
10
17.852
20
13.802
30
0
0
VERTEX
8
RASTER
10
18.226
20
13.529
30
0
0
VERTEX
8
RASTER
10
19.369
20
14.207
30
0
0
VERTEX
8
RASTER
10
19.976
20
14.308
30
0
0
VERTEX
8
RASTER
10
20.28
20
14.004
30
0
0
VERTEX
8
RASTER
10
20.209
20
13.225
30
0
0
VERTEX
8
RASTER
10
22.202
20
13.296
30
0
0
VERTEX
8
RASTER
10
22.739
20
13.023
30
0
0
VERTEX
8
RASTER
10
22.809
20
12.588
30
0
0
VERTEX
8
RASTER
10
22.637
20
12.254
30
0
0
VERTEX
8
RASTER
10
21.828
20
11.444
30
0
0
VERTEX
8
RASTER
10
20.685
20
10.969
30
0
0
VERTEX
8
RASTER
10
21.221
20
10.392
30
0
0
VERTEX
8
RASTER
10
21.393
20
10.058
30
0
0
VERTEX
8
RASTER
10
21.322
20
9.623
30
0
0
VERTEX
8
RASTER
10
21.089
20
9.451
30
0
0
VERTEX
8
RASTER
10
20.685
20
9.35
30
0
0
VERTEX
8
RASTER
10
19.369
20
9.35
30
0
0
VERTEX
8
RASTER
10
19.268
20
9.249
30
0
0
VERTEX
8
RASTER
10
19.197
20
8.814
30
0
0
VERTEX
8
RASTER
10
18.965
20
8.642
30
0
0
VERTEX
8
RASTER
10
17.649
20
8.642
30
0
0
VERTEX
8
RASTER
10
17.447
20
8.743
30
0
0
VERTEX
8
RASTER
10
17.376
20
8.713
30
0
0
VERTEX
8
RASTER
10
17.447
20
8.541
30
0
0
VERTEX
8
RASTER
10
17.376
20
8.105
30
0
0
VERTEX
8
RASTER
10
16.941
20
7.933
30
0
0
VERTEX
8
RASTER
10
15.524
20
8.035
30
0
0
VERTEX
8
RASTER
10
15.393
20
7.559
30
0
0
VERTEX
8
RASTER
10
15.12
20
7.428
30
0
0
VERTEX
8
RASTER
10
13.804
20
7.428
30
0
0
VERTEX
8
RASTER
10
13.4
20
7.529
30
0
0
VERTEX
8
RASTER
10
12.661
20
7.903
30
0
0
VERTEX
8
RASTER
10
11.953
20
8.713
30
0
0
VERTEX
8
RASTER
10
10.395
20
8.105
30
0
0
VERTEX
8
RASTER
10
9.858
20
6.416
30
0
0
VERTEX
8
RASTER
10
9.18
20
4.868
30
0
0
VERTEX
8
RASTER
10
8.978
20
4.564
30
0
0
VERTEX
8
RASTER
10
8.644
20
4.392
30
0
0
VERTEX
8
RASTER
10
8.341
20
4.392
30
0
0
VERTEX
8
RASTER
10
8.007
20
4.564
30
0
0
VERTEX
8
RASTER
10
7.835
20
4.898
30
0
0
VERTEX
8
RASTER
10
7.835
20
5.1
30
0
0
VERTEX
8
RASTER
10
8.31
20
5.981
30
0
0
VERTEX
8
RASTER
10
7.703
20
5.535
30
0
0
VERTEX
8
RASTER
10
7.258
20
5.07
30
0
0
VERTEX
8
RASTER
10
6.722
20
4.797
30
0
0
VERTEX
8
RASTER
10
6.418
20
4.797
30
0
0
VERTEX
8
RASTER
10
6.145
20
4.928
30
0
0
VERTEX
8
RASTER
10
6.013
20
5.202
30
0
0
VERTEX
8
RASTER
10
6.084
20
5.738
30
0
0
VERTEX
8
RASTER
10
7.197
20
6.79
30
0
0
VERTEX
8
RASTER
10
6.924
20
6.82
30
0
0
VERTEX
8
RASTER
10
6.418
20
6.618
30
0
0
VERTEX
8
RASTER
10
6.013
20
6.618
30
0
0
VERTEX
8
RASTER
10
5.811
20
6.517
30
0
0
VERTEX
8
RASTER
10
5.376
20
6.79
30
0
0
VERTEX
8
RASTER
10
5.305
20
7.428
30
0
0
VERTEX
8
RASTER
10
5.376
20
7.559
30
0
0
VERTEX
8
RASTER
10
5.71
20
7.731
30
0
0
VERTEX
8
RASTER
10
7.835
20
8.338
30
0
0
VERTEX
8
RASTER
10
9.282
20
9.016
30
0
0
VERTEX
8
RASTER
10
9.555
20
9.755
30
0
0
VERTEX
8
RASTER
10
9.757
20
10.766
30
0
0
VERTEX
8
RASTER
10
9.757
20
11.374
30
0
0
VERTEX
8
RASTER
10
9.019
20
11.748
30
0
0
VERTEX
8
RASTER
10
8.411
20
12.355
30
0
0
VERTEX
8
RASTER
10
7.936
20
13.195
30
0
0
VERTEX
8
RASTER
10
7.734
20
13.903
30
0
0
VERTEX
8
RASTER
10
7.804
20
14.642
30
0
0
VERTEX
8
RASTER
10
8.239
20
14.814
30
0
0
VERTEX
8
RASTER
10
7.835
20
15.927
30
0
0
VERTEX
8
RASTER
10
7.835
20
16.433
30
0
0
VERTEX
8
RASTER
10
7.906
20
16.564
30
0
0
VERTEX
8
RASTER
10
8.341
20
16.736
30
0
0
VERTEX
8
RASTER
10
7.835
20
18.051
30
0
0
VERTEX
8
RASTER
10
7.835
20
18.557
30
0
0
VERTEX
8
RASTER
10
7.906
20
18.689
30
0
0
VERTEX
8
RASTER
10
8.341
20
18.861
30
0
0
VERTEX
8
RASTER
10
8.037
20
19.67
30
0
0
VERTEX
8
RASTER
10
7.966
20
20.409
30
0
0
VERTEX
8
RASTER
10
8.037
20
20.682
30
0
0
VERTEX
8
RASTER
10
8.239
20
20.885
30
0
0
VERTEX
8
RASTER
10
8.644
20
20.885
30
0
0
VERTEX
8
RASTER
10
9.322
20
20.611
30
0
0
VERTEX
8
RASTER
10
9.251
20
21.896
30
0
0
VERTEX
8
RASTER
10
9.454
20
22.706
30
0
0
VERTEX
8
RASTER
10
9.828
20
23.444
30
0
0
SEQEND
8
RASTER
0
POLYLINE
8
RASTER
66
1
70
1
0
VERTEX
8
RASTER
10
20.351
20
23.181
30
0
0
VERTEX
8
RASTER
10
19.238
20
22.635
30
0
0
VERTEX
8
RASTER
10
18.53
20
21.826
30
0
0
VERTEX
8
RASTER
10
18.155
20
21.087
30
0
0
VERTEX
8
RASTER
10
18.155
20
20.277
30
0
0
VERTEX
8
RASTER
10
18.256
20
20.075
30
0
0
VERTEX
8
RASTER
10
18.155
20
19.873
30
0
0
VERTEX
8
RASTER
10
18.185
20
19.6
30
0
0
VERTEX
8
RASTER
10
19.197
20
20.146
30
0
0
VERTEX
8
RASTER
10
19.804
20
20.652
30
0
0
VERTEX
8
RASTER
10
20.381
20
21.896
30
0
0
VERTEX
8
RASTER
10
20.28
20
22.099
30
0
0
VERTEX
8
RASTER
10
20.381
20
22.301
30
0
0
SEQEND
8
RASTER
0
POLYLINE
8
RASTER
66
1
70
1
0
VERTEX
8
RASTER
10
10.162
20
23.11
30
0
0
VERTEX
8
RASTER
10
9.96
20
22.807
30
0
0
VERTEX
8
RASTER
10
9.656
20
21.896
30
0
0
VERTEX
8
RASTER
10
9.555
20
20.986
30
0
0
VERTEX
8
RASTER
10
9.828
20
20.146
30
0
0
VERTEX
8
RASTER
10
10.293
20
19.802
30
0
0
VERTEX
8
RASTER
10
10.435
20
19.539
30
0
0
VERTEX
8
RASTER
10
10.567
20
19.468
30
0
0
VERTEX
8
RASTER
10
10.668
20
19.569
30
0
0
VERTEX
8
RASTER
10
10.799
20
20.146
30
0
0
VERTEX
8
RASTER
10
11.073
20
20.48
30
0
0
VERTEX
8
RASTER
10
11.143
20
21.057
30
0
0
VERTEX
8
RASTER
10
10.971
20
21.087
30
0
0
VERTEX
8
RASTER
10
10.87
20
21.896
30
0
0
VERTEX
8
RASTER
10
10.293
20
23.04
30
0
0
SEQEND
8
RASTER
0
POLYLINE
8
RASTER
66
1
70
1
0
VERTEX
8
RASTER
10
17.143
20
22.2
30
0
0
VERTEX
8
RASTER
10
17.012
20
22.129
30
0
0
VERTEX
8
RASTER
10
16.536
20
21.188
30
0
0
VERTEX
8
RASTER
10
16.334
20
20.48
30
0
0
VERTEX
8
RASTER
10
16.334
20
19.67
30
0
0
VERTEX
8
RASTER
10
16.971
20
17.677
30
0
0
VERTEX
8
RASTER
10
17.649
20
17.748
30
0
0
VERTEX
8
RASTER
10
17.852
20
17.849
30
0
0
VERTEX
8
RASTER
10
18.965
20
17.849
30
0
0
VERTEX
8
RASTER
10
20.108
20
18.426
30
0
0
VERTEX
8
RASTER
10
20.614
20
18.932
30
0
0
VERTEX
8
RASTER
10
21.019
20
19.539
30
0
0
VERTEX
8
RASTER
10
21.019
20
19.701
30
0
0
VERTEX
8
RASTER
10
20.887
20
19.772
30
0
0
VERTEX
8
RASTER
10
19.369
20
19.772
30
0
0
VERTEX
8
RASTER
10
18.327
20
19.296
30
0
0
VERTEX
8
RASTER
10
18.024
20
19.094
30
0
0
VERTEX
8
RASTER
10
17.781
20
18.729
30
0
0
VERTEX
8
RASTER
10
17.619
20
18.729
30
0
0
VERTEX
8
RASTER
10
17.578
20
18.831
30
0
0
VERTEX
8
RASTER
10
17.852
20
19.468
30
0
0
VERTEX
8
RASTER
10
17.852
20
20.783
30
0
0
VERTEX
8
RASTER
10
17.578
20
21.522
30
0
0
VERTEX
8
RASTER
10
17.275
20
22.129
30
0
0
SEQEND
8
RASTER
0
POLYLINE
8
RASTER
66
1
70
1
0
VERTEX
8
RASTER
10
12.287
20
21.087
30
0
0
VERTEX
8
RASTER
10
12.115
20
20.955
30
0
0
VERTEX
8
RASTER
10
12.155
20
20.814
30
0
0
VERTEX
8
RASTER
10
11.983
20
20.885
30
0
0
VERTEX
8
RASTER
10
11.447
20
20.51
30
0
0
VERTEX
8
RASTER
10
11.406
20
20.247
30
0
0
VERTEX
8
RASTER
10
10.941
20
19.701
30
0
0
VERTEX
8
RASTER
10
10.769
20
19.367
30
0
0
VERTEX
8
RASTER
10
10.637
20
18.385
30
0
0
VERTEX
8
RASTER
10
10.465
20
18.557
30
0
0
VERTEX
8
RASTER
10
10.465
20
18.76
30
0
0
VERTEX
8
RASTER
10
10.192
20
19.296
30
0
0
VERTEX
8
RASTER
10
9.686
20
19.903
30
0
0
VERTEX
8
RASTER
10
8.371
20
20.551
30
0
0
VERTEX
8
RASTER
10
8.341
20
19.873
30
0
0
VERTEX
8
RASTER
10
8.816
20
18.729
30
0
0
VERTEX
8
RASTER
10
9.12
20
18.426
30
0
0
VERTEX
8
RASTER
10
9.99
20
17.981
30
0
0
VERTEX
8
RASTER
10
10.536
20
17.414
30
0
0
VERTEX
8
RASTER
10
10.698
20
17.414
30
0
0
VERTEX
8
RASTER
10
10.84
20
17.677
30
0
0
VERTEX
8
RASTER
10
11.811
20
18.527
30
0
0
VERTEX
8
RASTER
10
12.287
20
19.164
30
0
0
VERTEX
8
RASTER
10
12.59
20
20.277
30
0
0
VERTEX
8
RASTER
10
12.59
20
20.986
30
0
0
VERTEX
8
RASTER
10
12.489
20
21.087
30
0
0
SEQEND
8
RASTER
0
POLYLINE
8
RASTER
66
1
70
1
0
VERTEX
8
RASTER
10
15.423
20
20.176
30
0
0
VERTEX
8
RASTER
10
14.917
20
19.063
30
0
0
VERTEX
8
RASTER
10
14.816
20
18.051
30
0
0
VERTEX
8
RASTER
10
15.423
20
16.534
30
0
0
VERTEX
8
RASTER
10
15.524
20
16.129
30
0
0
VERTEX
8
RASTER
10
15.454
20
15.653
30
0
0
VERTEX
8
RASTER
10
16.435
20
15.927
30
0
0
VERTEX
8
RASTER
10
17.852
20
15.927
30
0
0
VERTEX
8
RASTER
10
18.894
20
16.402
30
0
0
VERTEX
8
RASTER
10
19.501
20
16.908
30
0
0
VERTEX
8
RASTER
10
19.673
20
17.242
30
0
0
VERTEX
8
RASTER
10
19.572
20
17.343
30
0
0
VERTEX
8
RASTER
10
18.863
20
17.546
30
0
0
VERTEX
8
RASTER
10
17.852
20
17.546
30
0
0
VERTEX
8
RASTER
10
16.809
20
17.171
30
0
0
VERTEX
8
RASTER
10
16.364
20
16.766
30
0
0
VERTEX
8
RASTER
10
16.435
20
18.355
30
0
0
VERTEX
8
RASTER
10
16.334
20
18.76
30
0
0
VERTEX
8
RASTER
10
15.96
20
19.6
30
0
0
SEQEND
8
RASTER
0
POLYLINE
8
RASTER
66
1
70
1
0
VERTEX
8
RASTER
10
12.793
20
18.557
30
0
0
VERTEX
8
RASTER
10
12.054
20
18.284
30
0
0
VERTEX
8
RASTER
10
11.143
20
17.475
30
0
0
VERTEX
8
RASTER
10
10.769
20
16.837
30
0
0
VERTEX
8
RASTER
10
10.637
20
16.362
30
0
0
VERTEX
8
RASTER
10
10.293
20
17.171
30
0
0
VERTEX
8
RASTER
10
9.686
20
17.778
30
0
0
VERTEX
8
RASTER
10
8.543
20
18.355
30
0
0
VERTEX
8
RASTER
10
8.239
20
18.456
30
0
0
VERTEX
8
RASTER
10
8.138
20
18.355
30
0
0
VERTEX
8
RASTER
10
8.341
20
17.647
30
0
0
VERTEX
8
RASTER
10
8.917
20
16.605
30
0
0
VERTEX
8
RASTER
10
9.99
20
15.957
30
0
0
VERTEX
8
RASTER
10
10.637
20
15.249
30
0
0
VERTEX
8
RASTER
10
11.346
20
15.957
30
0
0
VERTEX
8
RASTER
10
11.609
20
16.099
30
0
0
VERTEX
8
RASTER
10
12.418
20
17.009
30
0
0
VERTEX
8
RASTER
10
12.894
20
18.355
30
0
0
SEQEND
8
RASTER
0
POLYLINE
8
RASTER
66
1
70
1
0
VERTEX
8
RASTER
10
14.179
20
18.223
30
0
0
VERTEX
8
RASTER
10
14.007
20
18.051
30
0
0
VERTEX
8
RASTER
10
13.602
20
16.837
30
0
0
VERTEX
8
RASTER
10
13.602
20
15.927
30
0
0
VERTEX
8
RASTER
10
14.108
20
14.611
30
0
0
VERTEX
8
RASTER
10
14.209
20
14.105
30
0
0
VERTEX
8
RASTER
10
14.138
20
13.832
30
0
0
VERTEX
8
RASTER
10
14.816
20
14.004
30
0
0
VERTEX
8
RASTER
10
16.637
20
14.004
30
0
0
VERTEX
8
RASTER
10
17.477
20
14.379
30
0
0
VERTEX
8
RASTER
10
18.287
20
15.087
30
0
0
VERTEX
8
RASTER
10
18.358
20
15.218
30
0
0
VERTEX
8
RASTER
10
18.155
20
15.421
30
0
0
VERTEX
8
RASTER
10
16.739
20
15.623
30
0
0
VERTEX
8
RASTER
10
15.595
20
15.249
30
0
0
VERTEX
8
RASTER
10
14.847
20
14.642
30
0
0
VERTEX
8
RASTER
10
14.816
20
14.915
30
0
0
VERTEX
8
RASTER
10
15.019
20
15.218
30
0
0
VERTEX
8
RASTER
10
15.019
20
16.534
30
0
0
VERTEX
8
RASTER
10
14.786
20
17.212
30
0
0
SEQEND
8
RASTER
0
POLYLINE
8
RASTER
66
1
70
1
0
VERTEX
8
RASTER
10
12.762
20
16.503
30
0
0
VERTEX
8
RASTER
10
12.661
20
16.463
30
0
0
VERTEX
8
RASTER
10
12.489
20
16.129
30
0
0
VERTEX
8
RASTER
10
12.287
20
15.522
30
0
0
VERTEX
8
RASTER
10
12.185
20
14.105
30
0
0
VERTEX
8
RASTER
10
12.56
20
13.164
30
0
0
VERTEX
8
RASTER
10
12.823
20
12.922
30
0
0
VERTEX
8
RASTER
10
12.965
20
12.659
30
0
0
VERTEX
8
RASTER
10
12.823
20
12.355
30
0
0
VERTEX
8
RASTER
10
12.115
20
11.444
30
0
0
VERTEX
8
RASTER
10
11.649
20
10.999
30
0
0
VERTEX
8
RASTER
10
11.508
20
10.736
30
0
0
VERTEX
8
RASTER
10
9.686
20
8.814
30
0
0
VERTEX
8
RASTER
10
8.847
20
8.338
30
0
0
VERTEX
8
RASTER
10
7.835
20
7.933
30
0
0
VERTEX
8
RASTER
10
5.71
20
7.326
30
0
0
VERTEX
8
RASTER
10
5.609
20
7.225
30
0
0
VERTEX
8
RASTER
10
5.639
20
6.952
30
0
0
VERTEX
8
RASTER
10
6.115
20
6.922
30
0
0
VERTEX
8
RASTER
10
6.519
20
7.023
30
0
0
VERTEX
8
RASTER
10
8.644
20
7.731
30
0
0
VERTEX
8
RASTER
10
10.162
20
8.439
30
0
0
VERTEX
8
RASTER
10
12.084
20
9.148
30
0
0
VERTEX
8
RASTER
10
12.256
20
9.117
30
0
0
VERTEX
8
RASTER
10
12.459
20
8.713
30
0
0
VERTEX
8
RASTER
10
12.965
20
8.207
30
0
0
VERTEX
8
RASTER
10
13.501
20
7.933
30
0
0
VERTEX
8
RASTER
10
14.411
20
7.731
30
0
0
VERTEX
8
RASTER
10
15.089
20
7.863
30
0
0
VERTEX
8
RASTER
10
14.948
20
8.267
30
0
0
VERTEX
8
RASTER
10
14.341
20
8.874
30
0
0
VERTEX
8
RASTER
10
13.531
20
9.38
30
0
0
VERTEX
8
RASTER
10
12.793
20
9.653
30
0
0
VERTEX
8
RASTER
10
13.531
20
10.23
30
0
0
VERTEX
8
RASTER
10
13.804
20
10.766
30
0
0
VERTEX
8
RASTER
10
14.007
20
11.374
30
0
0
VERTEX
8
RASTER
10
13.976
20
11.647
30
0
0
VERTEX
8
RASTER
10
13.804
20
11.778
30
0
0
VERTEX
8
RASTER
10
13.501
20
11.778
30
0
0
VERTEX
8
RASTER
10
13.167
20
11.606
30
0
0
VERTEX
8
RASTER
10
13.025
20
11.343
30
0
0
VERTEX
8
RASTER
10
12.661
20
10.999
30
0
0
VERTEX
8
RASTER
10
12.185
20
10.159
30
0
0
VERTEX
8
RASTER
10
12.155
20
9.583
30
0
0
VERTEX
8
RASTER
10
10.395
20
8.874
30
0
0
VERTEX
8
RASTER
10
11.508
20
10.028
30
0
0
VERTEX
8
RASTER
10
11.649
20
10.291
30
0
0
VERTEX
8
RASTER
10
12.924
20
11.748
30
0
0
VERTEX
8
RASTER
10
13.268
20
12.315
30
0
0
VERTEX
8
RASTER
10
14.209
20
12.082
30
0
0
VERTEX
8
RASTER
10
15.221
20
12.082
30
0
0
VERTEX
8
RASTER
10
15.96
20
12.355
30
0
0
VERTEX
8
RASTER
10
16.567
20
12.76
30
0
0
VERTEX
8
RASTER
10
17.042
20
13.296
30
0
0
VERTEX
8
RASTER
10
16.739
20
13.498
30
0
0
VERTEX
8
RASTER
10
16.334
20
13.6
30
0
0
VERTEX
8
RASTER
10
15.727
20
13.6
30
0
0
VERTEX
8
RASTER
10
15.524
20
13.701
30
0
0
VERTEX
8
RASTER
10
15.221
20
13.6
30
0
0
VERTEX
8
RASTER
10
14.715
20
13.6
30
0
0
VERTEX
8
RASTER
10
13.976
20
13.225
30
0
0
VERTEX
8
RASTER
10
13.43
20
12.719
30
0
0
VERTEX
8
RASTER
10
13.43
20
12.962
30
0
0
VERTEX
8
RASTER
10
13.804
20
13.903
30
0
0
VERTEX
8
RASTER
10
13.804
20
14.409
30
0
0
VERTEX
8
RASTER
10
13.47
20
15.492
30
0
0
VERTEX
8
RASTER
10
13.025
20
16.261
30
0
0
SEQEND
8
RASTER
0
POLYLINE
8
RASTER
66
1
70
1
0
VERTEX
8
RASTER
10
8.31
20
16.301
30
0
0
VERTEX
8
RASTER
10
8.169
20
16.2
30
0
0
VERTEX
8
RASTER
10
8.239
20
15.927
30
0
0
VERTEX
8
RASTER
10
8.442
20
15.32
30
0
0
VERTEX
8
RASTER
10
8.816
20
14.682
30
0
0
VERTEX
8
RASTER
10
9.889
20
13.933
30
0
0
VERTEX
8
RASTER
10
10.435
20
13.367
30
0
0
VERTEX
8
RASTER
10
10.597
20
13.367
30
0
0
VERTEX
8
RASTER
10
10.941
20
13.731
30
0
0
VERTEX
8
RASTER
10
11.71
20
14.277
30
0
0
VERTEX
8
RASTER
10
11.953
20
15.998
30
0
0
VERTEX
8
RASTER
10
10.941
20
15.148
30
0
0
VERTEX
8
RASTER
10
10.668
20
14.207
30
0
0
VERTEX
8
RASTER
10
10.567
20
14.105
30
0
0
VERTEX
8
RASTER
10
10.465
20
14.207
30
0
0
VERTEX
8
RASTER
10
10.465
20
14.713
30
0
0
VERTEX
8
RASTER
10
10.192
20
15.249
30
0
0
VERTEX
8
RASTER
10
9.686
20
15.755
30
0
0
VERTEX
8
RASTER
10
8.948
20
16.129
30
0
0
SEQEND
8
RASTER
0
POLYLINE
8
RASTER
66
1
70
1
0
VERTEX
8
RASTER
10
8.138
20
14.409
30
0
0
VERTEX
8
RASTER
10
8.037
20
14.308
30
0
0
VERTEX
8
RASTER
10
8.138
20
13.802
30
0
0
VERTEX
8
RASTER
10
8.715
20
12.659
30
0
0
VERTEX
8
RASTER
10
9.322
20
12.153
30
0
0
VERTEX
8
RASTER
10
10.132
20
11.849
30
0
0
VERTEX
8
RASTER
10
10.263
20
11.677
30
0
0
VERTEX
8
RASTER
10
10.162
20
11.475
30
0
0
VERTEX
8
RASTER
10
10.061
20
10.058
30
0
0
VERTEX
8
RASTER
10
9.858
20
9.451
30
0
0
VERTEX
8
RASTER
10
9.96
20
9.35
30
0
0
VERTEX
8
RASTER
10
10.293
20
9.623
30
0
0
VERTEX
8
RASTER
10
10.567
20
10.261
30
0
0
VERTEX
8
RASTER
10
10.567
20
10.969
30
0
0
VERTEX
8
RASTER
10
10.668
20
11.171
30
0
0
VERTEX
8
RASTER
10
10.698
20
11.748
30
0
0
VERTEX
8
RASTER
10
11.811
20
12.355
30
0
0
VERTEX
8
RASTER
10
12.185
20
12.891
30
0
0
VERTEX
8
RASTER
10
11.852
20
13.772
30
0
0
VERTEX
8
RASTER
10
11.68
20
13.802
30
0
0
VERTEX
8
RASTER
10
11.245
20
13.529
30
0
0
VERTEX
8
RASTER
10
10.84
20
13.124
30
0
0
VERTEX
8
RASTER
10
10.496
20
12.315
30
0
0
VERTEX
8
RASTER
10
10.364
20
12.487
30
0
0
VERTEX
8
RASTER
10
10.364
20
12.79
30
0
0
VERTEX
8
RASTER
10
10.192
20
13.124
30
0
0
VERTEX
8
RASTER
10
9.686
20
13.63
30
0
0
SEQEND
8
RASTER
0
POLYLINE
8
RASTER
66
1
70
1
0
VERTEX
8
RASTER
10
19.845
20
13.974
30
0
0
VERTEX
8
RASTER
10
18.833
20
13.529
30
0
0
VERTEX
8
RASTER
10
18.226
20
12.922
30
0
0
VERTEX
8
RASTER
10
17.447
20
10.969
30
0
0
VERTEX
8
RASTER
10
18.388
20
10.291
30
0
0
VERTEX
8
RASTER
10
18.631
20
10.028
30
0
0
VERTEX
8
RASTER
10
18.965
20
9.856
30
0
0
VERTEX
8
RASTER
10
19.268
20
9.755
30
0
0
VERTEX
8
RASTER
10
20.685
20
9.755
30
0
0
VERTEX
8
RASTER
10
20.958
20
9.886
30
0
0
VERTEX
8
RASTER
10
20.917
20
10.089
30
0
0
VERTEX
8
RASTER
10
20.715
20
10.392
30
0
0
VERTEX
8
RASTER
10
20.108
20
10.898
30
0
0
VERTEX
8
RASTER
10
19.167
20
11.272
30
0
0
VERTEX
8
RASTER
10
18.661
20
11.272
30
0
0
VERTEX
8
RASTER
10
18.459
20
11.171
30
0
0
VERTEX
8
RASTER
10
18.358
20
11.272
30
0
0
VERTEX
8
RASTER
10
18.793
20
11.546
30
0
0
VERTEX
8
RASTER
10
19.4
20
12.254
30
0
0
VERTEX
8
RASTER
10
19.774
20
13.094
30
0
0
VERTEX
8
RASTER
10
19.875
20
13.498
30
0
0
SEQEND
8
RASTER
0
POLYLINE
8
RASTER
66
1
70
1
0
VERTEX
8
RASTER
10
17.75
20
13.397
30
0
0
VERTEX
8
RASTER
10
16.304
20
12.011
30
0
0
VERTEX
8
RASTER
10
15.555
20
10.392
30
0
0
VERTEX
8
RASTER
10
16.567
20
9.684
30
0
0
VERTEX
8
RASTER
10
17.012
20
9.218
30
0
0
VERTEX
8
RASTER
10
17.346
20
9.046
30
0
0
VERTEX
8
RASTER
10
18.56
20
8.945
30
0
0
VERTEX
8
RASTER
10
18.833
20
9.077
30
0
0
VERTEX
8
RASTER
10
18.691
20
9.38
30
0
0
VERTEX
8
RASTER
10
18.388
20
9.785
30
0
0
VERTEX
8
RASTER
10
17.882
20
10.19
30
0
0
VERTEX
8
RASTER
10
16.941
20
10.665
30
0
0
VERTEX
8
RASTER
10
16.465
20
10.493
30
0
0
VERTEX
8
RASTER
10
16.607
20
10.797
30
0
0
VERTEX
8
RASTER
10
16.87
20
10.938
30
0
0
VERTEX
8
RASTER
10
17.275
20
11.343
30
0
0
VERTEX
8
RASTER
10
17.649
20
12.082
30
0
0
VERTEX
8
RASTER
10
17.852
20
12.79
30
0
0
VERTEX
8
RASTER
10
17.852
20
13.296
30
0
0
SEQEND
8
RASTER
0
POLYLINE
8
RASTER
66
1
70
1
0
VERTEX
8
RASTER
10
20.988
20
12.992
30
0
0
VERTEX
8
RASTER
10
20.482
20
12.891
30
0
0
VERTEX
8
RASTER
10
19.946
20
12.618
30
0
0
VERTEX
8
RASTER
10
19.298
20
11.606
30
0
0
VERTEX
8
RASTER
10
19.976
20
11.374
30
0
0
VERTEX
8
RASTER
10
20.482
20
11.374
30
0
0
VERTEX
8
RASTER
10
21.626
20
11.849
30
0
0
VERTEX
8
RASTER
10
22.334
20
12.557
30
0
0
VERTEX
8
RASTER
10
22.405
20
12.689
30
0
0
VERTEX
8
RASTER
10
22.334
20
12.82
30
0
0
VERTEX
8
RASTER
10
21.696
20
12.992
30
0
0
SEQEND
8
RASTER
0
POLYLINE
8
RASTER
66
1
70
1
0
VERTEX
8
RASTER
10
11.953
20
11.95
30
0
0
VERTEX
8
RASTER
10
11.042
20
11.404
30
0
0
VERTEX
8
RASTER
10
11.002
20
10.898
30
0
0
VERTEX
8
RASTER
10
11.143
20
10.898
30
0
0
VERTEX
8
RASTER
10
11.245
20
11.1
30
0
0
VERTEX
8
RASTER
10
11.912
20
11.748
30
0
0
SEQEND
8
RASTER
0
POLYLINE
8
RASTER
66
1
70
1
0
VERTEX
8
RASTER
10
15.727
20
11.879
30
0
0
VERTEX
8
RASTER
10
15.221
20
11.677
30
0
0
VERTEX
8
RASTER
10
14.442
20
11.546
30
0
0
VERTEX
8
RASTER
10
14.108
20
10.665
30
0
0
VERTEX
8
RASTER
10
13.632
20
9.785
30
0
0
VERTEX
8
RASTER
10
14.543
20
9.178
30
0
0
VERTEX
8
RASTER
10
14.887
20
8.814
30
0
0
VERTEX
8
RASTER
10
15.524
20
8.439
30
0
0
VERTEX
8
RASTER
10
15.828
20
8.338
30
0
0
VERTEX
8
RASTER
10
16.941
20
8.338
30
0
0
VERTEX
8
RASTER
10
17.042
20
8.541
30
0
0
VERTEX
8
RASTER
10
16.87
20
8.874
30
0
0
VERTEX
8
RASTER
10
16.364
20
9.38
30
0
0
VERTEX
8
RASTER
10
14.816
20
10.159
30
0
0
VERTEX
8
RASTER
10
15.352
20
10.736
30
0
0
VERTEX
8
RASTER
10
15.828
20
11.778
30
0
0
SEQEND
8
RASTER
0
POLYLINE
8
RASTER
66
1
70
1
0
VERTEX
8
RASTER
10
9.251
20
7.832
30
0
0
VERTEX
8
RASTER
10
8.007
20
7.053
30
0
0
VERTEX
8
RASTER
10
6.954
20
5.981
30
0
0
VERTEX
8
RASTER
10
6.388
20
5.535
30
0
0
VERTEX
8
RASTER
10
6.347
20
5.232
30
0
0
VERTEX
8
RASTER
10
6.59
20
5.131
30
0
0
VERTEX
8
RASTER
10
7.258
20
5.576
30
0
0
VERTEX
8
RASTER
10
7.966
20
6.284
30
0
0
VERTEX
8
RASTER
10
8.108
20
6.547
30
0
0
VERTEX
8
RASTER
10
9.282
20
7.701
30
0
0
SEQEND
8
RASTER
0
POLYLINE
8
RASTER
66
1
70
1
0
VERTEX
8
RASTER
10
9.858
20
7.832
30
0
0
VERTEX
8
RASTER
10
9.727
20
7.761
30
0
0
VERTEX
8
RASTER
10
9.221
20
7.053
30
0
0
VERTEX
8
RASTER
10
8.239
20
5.1
30
0
0
VERTEX
8
RASTER
10
8.31
20
4.868
30
0
0
VERTEX
8
RASTER
10
8.442
20
4.797
30
0
0
VERTEX
8
RASTER
10
8.675
20
4.868
30
0
0
VERTEX
8
RASTER
10
9.15
20
5.707
30
0
0
VERTEX
8
RASTER
10
9.656
20
6.922
30
0
0
VERTEX
8
RASTER
10
9.929
20
7.761
30
0
0
SEQEND
8
RASTER
0
POLYLINE
8
CUT
66
1
70
1
0
VERTEX
8
CUT
10
29.852
20
23.906
30
0
0
VERTEX
8
CUT
10
39.321
20
24.011
30
0
0
VERTEX
8
CUT
10
40.04
20
23.676
30
0
0
VERTEX
8
CUT
10
40.241
20
19.473
30
0
0
VERTEX
8
CUT
10
41.265
20
17.338
30
0
0
VERTEX
8
CUT
10
41.619
20
15.107
30
0
0
VERTEX
8
CUT
10
41.303
20
5.37
30
0
0
VERTEX
8
CUT
10
40.614
20
4.144
30
0
0
VERTEX
8
CUT
10
29.651
20
4
30
0
0
VERTEX
8
CUT
10
28.981
20
4.192
30
0
0
VERTEX
8
CUT
10
28.608
20
4.68
30
0
0
VERTEX
8
CUT
10
28.119
20
8.309
30
0
0
VERTEX
8
CUT
10
28.024
20
15.49
30
0
0
VERTEX
8
CUT
10
28.368
20
17.443
30
0
0
VERTEX
8
CUT
10
29.393
20
19.482
30
0
0
VERTEX
8
CUT
10
29.479
20
23.226
30
0
0
SEQEND
8
CUT
0
POLYLINE
8
RASTER
66
1
70
1
0
VERTEX
8
RASTER
10
33.797
20
23.408
30
0
0
VERTEX
8
RASTER
10
35.779
20
23.437
30
0
0
VERTEX
8
RASTER
10
35.97
20
23.341
30
0
0
VERTEX
8
RASTER
10
36.353
20
23.341
30
0
0
VERTEX
8
RASTER
10
37.407
20
23.054
30
0
0
VERTEX
8
RASTER
10
38.106
20
22.699
30
0
0
VERTEX
8
RASTER
10
38.297
20
22.508
30
0
0
VERTEX
8
RASTER
10
38.556
20
22
30
0
0
VERTEX
8
RASTER
10
38.651
20
21.33
30
0
0
VERTEX
8
RASTER
10
38.556
20
21.139
30
0
0
VERTEX
8
RASTER
10
38.556
20
20.66
30
0
0
VERTEX
8
RASTER
10
38.297
20
20.152
30
0
0
VERTEX
8
RASTER
10
37.981
20
19.798
30
0
0
VERTEX
8
RASTER
10
38.077
20
19.032
30
0
0
VERTEX
8
RASTER
10
38.623
20
17.855
30
0
0
VERTEX
8
RASTER
10
39.704
20
15.873
30
0
0
VERTEX
8
RASTER
10
39.992
20
14.532
30
0
0
VERTEX
8
RASTER
10
39.992
20
11.468
30
0
0
VERTEX
8
RASTER
10
39.896
20
11.277
30
0
0
VERTEX
8
RASTER
10
39.896
20
9.266
30
0
0
VERTEX
8
RASTER
10
39.8
20
9.075
30
0
0
VERTEX
8
RASTER
10
39.8
20
7.064
30
0
0
VERTEX
8
RASTER
10
39.704
20
6.585
30
0
0
VERTEX
8
RASTER
10
39.446
20
6.078
30
0
0
VERTEX
8
RASTER
10
38.776
20
5.408
30
0
0
VERTEX
8
RASTER
10
37.407
20
4.766
30
0
0
VERTEX
8
RASTER
10
36.162
20
4.479
30
0
0
VERTEX
8
RASTER
10
35.492
20
4.479
30
0
0
VERTEX
8
RASTER
10
35.3
20
4.383
30
0
0
VERTEX
8
RASTER
10
34.343
20
4.383
30
0
0
VERTEX
8
RASTER
10
34.151
20
4.479
30
0
0
VERTEX
8
RASTER
10
32.907
20
4.575
30
0
0
VERTEX
8
RASTER
10
31.949
20
4.862
30
0
0
VERTEX
8
RASTER
10
30.867
20
5.408
30
0
0
VERTEX
8
RASTER
10
30.293
20
5.982
30
0
0
VERTEX
8
RASTER
10
30.034
20
6.49
30
0
0
VERTEX
8
RASTER
10
29.843
20
7.256
30
0
0
VERTEX
8
RASTER
10
29.747
20
10.128
30
0
0
VERTEX
8
RASTER
10
29.651
20
10.32
30
0
0
VERTEX
8
RASTER
10
29.651
20
14.82
30
0
0
VERTEX
8
RASTER
10
30.034
20
16.16
30
0
0
VERTEX
8
RASTER
10
31.47
20
18.841
30
0
0
VERTEX
8
RASTER
10
31.662
20
19.511
30
0
0
VERTEX
8
RASTER
10
31.633
20
19.865
30
0
0
VERTEX
8
RASTER
10
31.346
20
20.152
30
0
0
VERTEX
8
RASTER
10
31.087
20
20.66
30
0
0
VERTEX
8
RASTER
10
30.992
20
21.713
30
0
0
VERTEX
8
RASTER
10
31.346
20
22.508
30
0
0
VERTEX
8
RASTER
10
31.729
20
22.795
30
0
0
VERTEX
8
RASTER
10
32.811
20
23.245
30
0
0
SEQEND
8
RASTER
0
POLYLINE
8
RASTER
66
1
70
1
0
VERTEX
8
RASTER
10
34.534
20
22.958
30
0
0
VERTEX
8
RASTER
10
34.343
20
22.862
30
0
0
VERTEX
8
RASTER
10
33.577
20
22.862
30
0
0
VERTEX
8
RASTER
10
32.524
20
22.575
30
0
0
VERTEX
8
RASTER
10
31.825
20
22.221
30
0
0
VERTEX
8
RASTER
10
31.566
20
21.713
30
0
0
VERTEX
8
RASTER
10
31.566
20
21.043
30
0
0
VERTEX
8
RASTER
10
31.662
20
20.756
30
0
0
VERTEX
8
RASTER
10
32.141
20
20.085
30
0
0
VERTEX
8
RASTER
10
32.141
20
19.224
30
0
0
VERTEX
8
RASTER
10
31.949
20
18.649
30
0
0
VERTEX
8
RASTER
10
31.346
20
17.433
30
0
0
VERTEX
8
RASTER
10
30.513
20
15.968
30
0
0
VERTEX
8
RASTER
10
30.226
20
15.011
30
0
0
VERTEX
8
RASTER
10
30.226
20
14.628
30
0
0
VERTEX
8
RASTER
10
30.13
20
14.437
30
0
0
VERTEX
8
RASTER
10
30.226
20
9.554
30
0
0
VERTEX
8
RASTER
10
30.321
20
9.362
30
0
0
VERTEX
8
RASTER
10
30.321
20
8.022
30
0
0
VERTEX
8
RASTER
10
30.417
20
7.83
30
0
0
VERTEX
8
RASTER
10
30.417
20
7.064
30
0
0
VERTEX
8
RASTER
10
30.513
20
6.681
30
0
0
VERTEX
8
RASTER
10
30.676
20
6.365
30
0
0
VERTEX
8
RASTER
10
31.154
20
5.887
30
0
0
VERTEX
8
RASTER
10
31.758
20
5.532
30
0
0
VERTEX
8
RASTER
10
32.907
20
5.149
30
0
0
VERTEX
8
RASTER
10
33.96
20
5.054
30
0
0
VERTEX
8
RASTER
10
34.151
20
4.958
30
0
0
VERTEX
8
RASTER
10
35.587
20
4.958
30
0
0
VERTEX
8
RASTER
10
37.407
20
5.341
30
0
0
VERTEX
8
RASTER
10
38.489
20
5.887
30
0
0
VERTEX
8
RASTER
10
38.967
20
6.365
30
0
0
VERTEX
8
RASTER
10
39.13
20
6.681
30
0
0
VERTEX
8
RASTER
10
39.226
20
6.968
30
0
0
VERTEX
8
RASTER
10
39.226
20
8.788
30
0
0
VERTEX
8
RASTER
10
39.321
20
8.979
30
0
0
VERTEX
8
RASTER
10
39.321
20
10.511
30
0
0
VERTEX
8
RASTER
10
39.417
20
10.702
30
0
0
VERTEX
8
RASTER
10
39.513
20
13.862
30
0
0
VERTEX
8
RASTER
10
39.417
20
14.054
30
0
0
VERTEX
8
RASTER
10
39.321
20
15.202
30
0
0
VERTEX
8
RASTER
10
39.034
20
16.064
30
0
0
VERTEX
8
RASTER
10
37.885
20
18.171
30
0
0
VERTEX
8
RASTER
10
37.502
20
19.32
30
0
0
VERTEX
8
RASTER
10
37.502
20
20.085
30
0
0
VERTEX
8
RASTER
10
37.818
20
20.44
30
0
0
VERTEX
8
RASTER
10
38.077
20
21.139
30
0
0
VERTEX
8
RASTER
10
38.077
20
21.713
30
0
0
VERTEX
8
RASTER
10
37.914
20
22.029
30
0
0
VERTEX
8
RASTER
10
37.627
20
22.316
30
0
0
VERTEX
8
RASTER
10
36.545
20
22.766
30
0
0
SEQEND
8
RASTER
0
POLYLINE
8
RASTER
66
1
70
1
0
VERTEX
8
RASTER
10
34.18
20
22.546
30
0
0
VERTEX
8
RASTER
10
35.396
20
22.575
30
0
0
VERTEX
8
RASTER
10
35.587
20
22.479
30
0
0
VERTEX
8
RASTER
10
36.162
20
22.479
30
0
0
VERTEX
8
RASTER
10
37.052
20
22.125
30
0
0
VERTEX
8
RASTER
10
37.215
20
21.809
30
0
0
VERTEX
8
RASTER
10
37.091
20
21.55
30
0
0
VERTEX
8
RASTER
10
36.861
20
21.397
30
0
0
VERTEX
8
RASTER
10
35.97
20
21.139
30
0
0
VERTEX
8
RASTER
10
33.768
20
21.139
30
0
0
VERTEX
8
RASTER
10
33.29
20
21.234
30
0
0
VERTEX
8
RASTER
10
32.686
20
21.493
30
0
0
VERTEX
8
RASTER
10
32.495
20
21.684
30
0
0
VERTEX
8
RASTER
10
32.428
20
21.809
30
0
0
VERTEX
8
RASTER
10
32.495
20
22.029
30
0
0
VERTEX
8
RASTER
10
33.098
20
22.383
30
0
0
SEQEND
8
RASTER
0
POLYLINE
8
RASTER
66
1
70
1
0
VERTEX
8
RASTER
10
33.864
20
22.096
30
0
0
VERTEX
8
RASTER
10
32.935
20
21.78
30
0
0
VERTEX
8
RASTER
10
33.194
20
21.617
30
0
0
VERTEX
8
RASTER
10
33.577
20
21.617
30
0
0
VERTEX
8
RASTER
10
33.768
20
21.522
30
0
0
VERTEX
8
RASTER
10
35.97
20
21.522
30
0
0
VERTEX
8
RASTER
10
36.449
20
21.617
30
0
0
VERTEX
8
RASTER
10
36.545
20
21.713
30
0
0
VERTEX
8
RASTER
10
36.42
20
21.876
30
0
0
VERTEX
8
RASTER
10
35.779
20
22.096
30
0
0
SEQEND
8
RASTER
0
POLYLINE
8
RASTER
66
1
70
1
0
VERTEX
8
RASTER
10
37.244
20
20.248
30
0
0
VERTEX
8
RASTER
10
37.311
20
20.181
30
0
0
VERTEX
8
RASTER
10
37.148
20
19.865
30
0
0
VERTEX
8
RASTER
10
36.258
20
19.511
30
0
0
VERTEX
8
RASTER
10
35.875
20
19.511
30
0
0
VERTEX
8
RASTER
10
35.683
20
19.415
30
0
0
VERTEX
8
RASTER
10
33.768
20
19.415
30
0
0
VERTEX
8
RASTER
10
33.577
20
19.511
30
0
0
VERTEX
8
RASTER
10
33.194
20
19.511
30
0
0
VERTEX
8
RASTER
10
32.495
20
19.77
30
0
0
VERTEX
8
RASTER
10
32.332
20
20.085
30
0
0
VERTEX
8
RASTER
10
32.524
20
20.181
30
0
0
VERTEX
8
RASTER
10
33.002
20
19.99
30
0
0
VERTEX
8
RASTER
10
33.96
20
19.894
30
0
0
VERTEX
8
RASTER
10
34.151
20
19.798
30
0
0
VERTEX
8
RASTER
10
35.587
20
19.798
30
0
0
VERTEX
8
RASTER
10
35.779
20
19.894
30
0
0
VERTEX
8
RASTER
10
36.641
20
19.99
30
0
0
SEQEND
8
RASTER
0
POLYLINE
8
RASTER
66
1
70
1
0
VERTEX
8
RASTER
10
31.02
20
15.844
30
0
0
VERTEX
8
RASTER
10
31.183
20
15.777
30
0
0
VERTEX
8
RASTER
10
30.8
20
14.341
30
0
0
VERTEX
8
RASTER
10
30.8
20
12.713
30
0
0
VERTEX
8
RASTER
10
30.896
20
12.522
30
0
0
VERTEX
8
RASTER
10
30.896
20
10.702
30
0
0
VERTEX
8
RASTER
10
30.992
20
10.511
30
0
0
VERTEX
8
RASTER
10
30.992
20
8.405
30
0
0
VERTEX
8
RASTER
10
31.087
20
8.213
30
0
0
VERTEX
8
RASTER
10
31.087
20
7.16
30
0
0
VERTEX
8
RASTER
10
31.25
20
6.844
30
0
0
VERTEX
8
RASTER
10
31.729
20
6.461
30
0
0
VERTEX
8
RASTER
10
32.236
20
6.202
30
0
0
VERTEX
8
RASTER
10
33.673
20
5.82
30
0
0
VERTEX
8
RASTER
10
34.85
20
5.752
30
0
0
VERTEX
8
RASTER
10
36.066
20
5.82
30
0
0
VERTEX
8
RASTER
10
36.928
20
6.011
30
0
0
VERTEX
8
RASTER
10
38.106
20
6.557
30
0
0
VERTEX
8
RASTER
10
38.393
20
6.844
30
0
0
VERTEX
8
RASTER
10
38.556
20
7.256
30
0
0
VERTEX
8
RASTER
10
38.556
20
8.405
30
0
0
VERTEX
8
RASTER
10
38.718
20
8.759
30
0
0
VERTEX
8
RASTER
10
38.747
20
7.16
30
0
0
VERTEX
8
RASTER
10
38.489
20
6.652
30
0
0
VERTEX
8
RASTER
10
38.201
20
6.365
30
0
0
VERTEX
8
RASTER
10
37.311
20
5.915
30
0
0
VERTEX
8
RASTER
10
36.258
20
5.628
30
0
0
VERTEX
8
RASTER
10
35.875
20
5.628
30
0
0
VERTEX
8
RASTER
10
35.683
20
5.532
30
0
0
VERTEX
8
RASTER
10
34.056
20
5.532
30
0
0
VERTEX
8
RASTER
10
33.864
20
5.628
30
0
0
VERTEX
8
RASTER
10
33.385
20
5.628
30
0
0
VERTEX
8
RASTER
10
32.141
20
6.011
30
0
0
VERTEX
8
RASTER
10
31.442
20
6.365
30
0
0
VERTEX
8
RASTER
10
31.059
20
6.748
30
0
0
VERTEX
8
RASTER
10
30.896
20
7.064
30
0
0
VERTEX
8
RASTER
10
30.896
20
7.83
30
0
0
VERTEX
8
RASTER
10
30.8
20
8.022
30
0
0
VERTEX
8
RASTER
10
30.8
20
9.937
30
0
0
VERTEX
8
RASTER
10
30.704
20
10.128
30
0
0
VERTEX
8
RASTER
10
30.704
20
11.947
30
0
0
VERTEX
8
RASTER
10
30.609
20
12.139
30
0
0
VERTEX
8
RASTER
10
30.609
20
14.532
30
0
0
SEQEND
8
RASTER
0
POLYLINE
8
RASTER
66
1
70
1
0
VERTEX
8
RASTER
10
38.776
20
9.908
30
0
0
VERTEX
8
RASTER
10
38.843
20
9.841
30
0
0
VERTEX
8
RASTER
10
38.843
20
8.979
30
0
0
VERTEX
8
RASTER
10
38.747
20
8.883
30
0
0
VERTEX
8
RASTER
10
38.651
20
8.979
30
0
0
VERTEX
8
RASTER
10
38.651
20
9.171
30
0
0
VERTEX
8
RASTER
10
38.747
20
9.362
30
0
0
SEQEND
8
RASTER
0
POLYLINE
8
CUT
66
1
70
1
0
VERTEX
8
CUT
10
49.607
20
23.957
30
0
0
VERTEX
8
CUT
10
53.846
20
24.011
30
0
0
VERTEX
8
CUT
10
58.88
20
22.398
30
0
0
VERTEX
8
CUT
10
59.523
20
21.734
30
0
0
VERTEX
8
CUT
10
60.285
20
18.138
30
0
0
VERTEX
8
CUT
10
63.434
20
17.8
30
0
0
VERTEX
8
CUT
10
65.395
20
15.948
30
0
0
VERTEX
8
CUT
10
65.646
20
15.109
30
0
0
VERTEX
8
CUT
10
65.646
20
7.373
30
0
0
VERTEX
8
CUT
10
64.796
20
5.172
30
0
0
VERTEX
8
CUT
10
60.634
20
4.649
30
0
0
VERTEX
8
CUT
10
56.079
20
4.671
30
0
0
VERTEX
8
CUT
10
55.317
20
4.998
30
0
0
VERTEX
8
CUT
10
52.843
20
7.536
30
0
0
VERTEX
8
CUT
10
51.22
20
7.667
30
0
0
VERTEX
8
CUT
10
50.283
20
7.046
30
0
0
VERTEX
8
CUT
10
47.036
20
7.286
30
0
0
VERTEX
8
CUT
10
46.851
20
9.062
30
0
0
VERTEX
8
CUT
10
45.815
20
9.988
30
0
0
VERTEX
8
CUT
10
45.619
20
10.555
30
0
0
VERTEX
8
CUT
10
45.619
20
20.644
30
0
0
VERTEX
8
CUT
10
46.197
20
21.592
30
0
0
SEQEND
8
CUT
0
POLYLINE
8
RASTER
66
1
70
1
0
VERTEX
8
RASTER
10
51.623
20
22.377
30
0
0
VERTEX
8
RASTER
10
51.808
20
22.409
30
0
0
VERTEX
8
RASTER
10
53.334
20
21.973
30
0
0
VERTEX
8
RASTER
10
56.929
20
20.775
30
0
0
VERTEX
8
RASTER
10
57.507
20
20.481
30
0
0
VERTEX
8
RASTER
10
57.91
20
19.685
30
0
0
VERTEX
8
RASTER
10
58.422
20
16.275
30
0
0
VERTEX
8
RASTER
10
61.397
20
16.199
30
0
0
VERTEX
8
RASTER
10
61.865
20
16.013
30
0
0
VERTEX
8
RASTER
10
62.737
20
15.251
30
0
0
VERTEX
8
RASTER
10
63.107
20
14.749
30
0
0
VERTEX
8
RASTER
10
64.698
20
13.18
30
0
0
VERTEX
8
RASTER
10
65.025
20
12.745
30
0
0
VERTEX
8
RASTER
10
65.21
20
12.385
30
0
0
VERTEX
8
RASTER
10
65.21
20
11.731
30
0
0
VERTEX
8
RASTER
10
63.064
20
6.796
30
0
0
VERTEX
8
RASTER
10
62.268
20
6.61
30
0
0
VERTEX
8
RASTER
10
59.653
20
6.501
30
0
0
VERTEX
8
RASTER
10
59.435
20
6.392
30
0
0
VERTEX
8
RASTER
10
57.474
20
6.392
30
0
0
VERTEX
8
RASTER
10
56.679
20
7.122
30
0
0
VERTEX
8
RASTER
10
56.526
20
7.406
30
0
0
VERTEX
8
RASTER
10
56.025
20
7.885
30
0
0
VERTEX
8
RASTER
10
55.872
20
8.168
30
0
0
VERTEX
8
RASTER
10
54.456
20
9.803
30
0
0
VERTEX
8
RASTER
10
54.282
20
9.803
30
0
0
VERTEX
8
RASTER
10
54.129
20
9.628
30
0
0
VERTEX
8
RASTER
10
53.552
20
9.334
30
0
0
VERTEX
8
RASTER
10
52.898
20
9.443
30
0
0
VERTEX
8
RASTER
10
48.322
20
11.187
30
0
0
VERTEX
8
RASTER
10
47.744
20
11.481
30
0
0
VERTEX
8
RASTER
10
47.526
20
11.699
30
0
0
VERTEX
8
RASTER
10
47.232
20
12.494
30
0
0
VERTEX
8
RASTER
10
46.578
20
15.763
30
0
0
VERTEX
8
RASTER
10
46.251
20
16.852
30
0
0
VERTEX
8
RASTER
10
46.142
20
18.051
30
0
0
VERTEX
8
RASTER
10
46.437
20
18.628
30
0
0
VERTEX
8
RASTER
10
46.763
20
18.955
30
0
0
VERTEX
8
RASTER
10
50.686
20
21.897
30
0
0
SEQEND
8
RASTER
0
POLYLINE
8
RASTER
66
1
70
1
0
VERTEX
8
RASTER
10
51.59
20
21.756
30
0
0
VERTEX
8
RASTER
10
47.09
20
18.411
30
0
0
VERTEX
8
RASTER
10
46.796
20
17.942
30
0
0
VERTEX
8
RASTER
10
46.796
20
17.724
30
0
0
VERTEX
8
RASTER
10
47.047
20
16.558
30
0
0
VERTEX
8
RASTER
10
47.308
20
16.711
30
0
0
VERTEX
8
RASTER
10
47.559
20
16.308
30
0
0
VERTEX
8
RASTER
10
47.45
20
16.199
30
0
0
VERTEX
8
RASTER
10
47.156
20
16.275
30
0
0
VERTEX
8
RASTER
10
47.123
20
15.981
30
0
0
VERTEX
8
RASTER
10
47.417
20
14.858
30
0
0
VERTEX
8
RASTER
10
47.635
20
14.858
30
0
0
VERTEX
8
RASTER
10
47.886
20
14.673
30
0
0
VERTEX
8
RASTER
10
47.744
20
14.488
30
0
0
VERTEX
8
RASTER
10
47.526
20
14.641
30
0
0
VERTEX
8
RASTER
10
47.45
20
14.564
30
0
0
VERTEX
8
RASTER
10
48.071
20
12.134
30
0
0
VERTEX
8
RASTER
10
48.322
20
11.949
30
0
0
VERTEX
8
RASTER
10
49.662
20
11.437
30
0
0
VERTEX
8
RASTER
10
49.662
20
11.546
30
0
0
VERTEX
8
RASTER
10
49.444
20
11.655
30
0
0
VERTEX
8
RASTER
10
49.596
20
11.873
30
0
0
VERTEX
8
RASTER
10
49.553
20
12.026
30
0
0
VERTEX
8
RASTER
10
50.065
20
11.84
30
0
0
VERTEX
8
RASTER
10
50.098
20
11.982
30
0
0
VERTEX
8
RASTER
10
49.88
20
11.982
30
0
0
VERTEX
8
RASTER
10
50.065
20
12.167
30
0
0
VERTEX
8
RASTER
10
50.25
20
12.134
30
0
0
VERTEX
8
RASTER
10
50.315
20
11.873
30
0
0
VERTEX
8
RASTER
10
50.468
20
12.026
30
0
0
VERTEX
8
RASTER
10
50.533
20
11.873
30
0
0
VERTEX
8
RASTER
10
50.719
20
11.949
30
0
0
VERTEX
8
RASTER
10
51.046
20
11.731
30
0
0
VERTEX
8
RASTER
10
51.231
20
11.808
30
0
0
VERTEX
8
RASTER
10
51.405
20
11.655
30
0
0
VERTEX
8
RASTER
10
51.558
20
11.699
30
0
0
VERTEX
8
RASTER
10
51.372
20
11.296
30
0
0
VERTEX
8
RASTER
10
51.449
20
11.154
30
0
0
VERTEX
8
RASTER
10
51.558
20
11.11
30
0
0
VERTEX
8
RASTER
10
51.776
20
11.263
30
0
0
VERTEX
8
RASTER
10
51.841
20
11.11
30
0
0
VERTEX
8
RASTER
10
52.026
20
11.187
30
0
0
VERTEX
8
RASTER
10
52.277
20
11.001
30
0
0
VERTEX
8
RASTER
10
52.277
20
11.154
30
0
0
VERTEX
8
RASTER
10
52.429
20
11.154
30
0
0
VERTEX
8
RASTER
10
52.538
20
10.674
30
0
0
VERTEX
8
RASTER
10
52.168
20
10.718
30
0
0
VERTEX
8
RASTER
10
52.32
20
10.609
30
0
0
VERTEX
8
RASTER
10
52.168
20
10.457
30
0
0
VERTEX
8
RASTER
10
53.334
20
10.097
30
0
0
VERTEX
8
RASTER
10
53.519
20
10.457
30
0
0
VERTEX
8
RASTER
10
53.443
20
11.404
30
0
0
VERTEX
8
RASTER
10
53.334
20
11.622
30
0
0
VERTEX
8
RASTER
10
53.334
20
12.058
30
0
0
VERTEX
8
RASTER
10
53.443
20
12.276
30
0
0
VERTEX
8
RASTER
10
53.225
20
12.385
30
0
0
VERTEX
8
RASTER
10
53.116
20
13.366
30
0
0
VERTEX
8
RASTER
10
53.192
20
13.442
30
0
0
VERTEX
8
RASTER
10
53.301
20
13.18
30
0
0
VERTEX
8
RASTER
10
53.661
20
13.584
30
0
0
VERTEX
8
RASTER
10
53.802
20
13.398
30
0
0
VERTEX
8
RASTER
10
53.955
20
13.398
30
0
0
VERTEX
8
RASTER
10
53.955
20
13.551
30
0
0
VERTEX
8
RASTER
10
53.802
20
13.66
30
0
0
VERTEX
8
RASTER
10
54.096
20
14.019
30
0
0
VERTEX
8
RASTER
10
53.911
20
14.096
30
0
0
VERTEX
8
RASTER
10
53.628
20
13.943
30
0
0
VERTEX
8
RASTER
10
53.628
20
13.725
30
0
0
VERTEX
8
RASTER
10
53.443
20
13.802
30
0
0
VERTEX
8
RASTER
10
53.41
20
13.616
30
0
0
VERTEX
8
RASTER
10
53.225
20
13.584
30
0
0
VERTEX
8
RASTER
10
53.192
20
13.769
30
0
0
VERTEX
8
RASTER
10
53.007
20
13.802
30
0
0
VERTEX
8
RASTER
10
53.039
20
14.205
30
0
0
VERTEX
8
RASTER
10
53.334
20
14.455
30
0
0
VERTEX
8
RASTER
10
53.628
20
14.379
30
0
0
VERTEX
8
RASTER
10
53.661
20
14.564
30
0
0
VERTEX
8
RASTER
10
53.552
20
14.782
30
0
0
VERTEX
8
RASTER
10
53.693
20
14.967
30
0
0
VERTEX
8
RASTER
10
53.911
20
14.967
30
0
0
VERTEX
8
RASTER
10
53.955
20
15.076
30
0
0
VERTEX
8
RASTER
10
53.802
20
15.033
30
0
0
VERTEX
8
RASTER
10
53.769
20
15.218
30
0
0
VERTEX
8
RASTER
10
53.987
20
15.545
30
0
0
VERTEX
8
RASTER
10
54.238
20
15.36
30
0
0
VERTEX
8
RASTER
10
54.423
20
15
30
0
0
VERTEX
8
RASTER
10
54.565
20
15.294
30
0
0
VERTEX
8
RASTER
10
54.783
20
15.403
30
0
0
VERTEX
8
RASTER
10
55.044
20
15.294
30
0
0
VERTEX
8
RASTER
10
55.153
20
15.033
30
0
0
VERTEX
8
RASTER
10
54.968
20
14.891
30
0
0
VERTEX
8
RASTER
10
55.371
20
14.488
30
0
0
VERTEX
8
RASTER
10
55.916
20
15.796
30
0
0
VERTEX
8
RASTER
10
56.243
20
16.122
30
0
0
VERTEX
8
RASTER
10
56.602
20
16.308
30
0
0
VERTEX
8
RASTER
10
57.659
20
16.34
30
0
0
VERTEX
8
RASTER
10
57.583
20
17.397
30
0
0
VERTEX
8
RASTER
10
57.507
20
17.539
30
0
0
VERTEX
8
RASTER
10
57.256
20
17.615
30
0
0
VERTEX
8
RASTER
10
57.441
20
17.757
30
0
0
VERTEX
8
RASTER
10
57.474
20
18.051
30
0
0
VERTEX
8
RASTER
10
57.398
20
18.127
30
0
0
VERTEX
8
RASTER
10
57.18
20
17.975
30
0
0
VERTEX
8
RASTER
10
56.744
20
18.193
30
0
0
VERTEX
8
RASTER
10
56.929
20
18.487
30
0
0
VERTEX
8
RASTER
10
56.744
20
18.89
30
0
0
VERTEX
8
RASTER
10
56.962
20
18.846
30
0
0
VERTEX
8
RASTER
10
57.223
20
18.563
30
0
0
VERTEX
8
RASTER
10
57.332
20
18.193
30
0
0
VERTEX
8
RASTER
10
57.365
20
18.923
30
0
0
VERTEX
8
RASTER
10
57.256
20
19.141
30
0
0
VERTEX
8
RASTER
10
57.256
20
19.576
30
0
0
VERTEX
8
RASTER
10
57.071
20
19.936
30
0
0
VERTEX
8
RASTER
10
56.602
20
20.23
30
0
0
VERTEX
8
RASTER
10
52.244
20
21.647
30
0
0
SEQEND
8
RASTER
0
POLYLINE
8
RASTER
66
1
70
1
0
VERTEX
8
RASTER
10
56.526
20
18.999
30
0
0
VERTEX
8
RASTER
10
56.602
20
18.596
30
0
0
VERTEX
8
RASTER
10
56.461
20
18.302
30
0
0
VERTEX
8
RASTER
10
56.384
20
18.378
30
0
0
VERTEX
8
RASTER
10
56.461
20
18.563
30
0
0
VERTEX
8
RASTER
10
56.276
20
18.705
30
0
0
VERTEX
8
RASTER
10
55.981
20
18.519
30
0
0
VERTEX
8
RASTER
10
56.134
20
18.737
30
0
0
SEQEND
8
RASTER
0
POLYLINE
8
RASTER
66
1
70
1
0
VERTEX
8
RASTER
10
54.02
20
16.057
30
0
0
VERTEX
8
RASTER
10
54.608
20
15.839
30
0
0
VERTEX
8
RASTER
10
54.641
20
15.654
30
0
0
VERTEX
8
RASTER
10
54.391
20
15.36
30
0
0
VERTEX
8
RASTER
10
54.314
20
15.436
30
0
0
VERTEX
8
RASTER
10
54.499
20
15.73
30
0
0
VERTEX
8
RASTER
10
54.314
20
15.763
30
0
0
VERTEX
8
RASTER
10
54.282
20
15.578
30
0
0
VERTEX
8
RASTER
10
54.129
20
15.578
30
0
0
VERTEX
8
RASTER
10
54.205
20
15.872
30
0
0
SEQEND
8
RASTER
0
POLYLINE
8
RASTER
66
1
70
1
0
VERTEX
8
RASTER
10
47.483
20
15.839
30
0
0
VERTEX
8
RASTER
10
47.668
20
15.872
30
0
0
VERTEX
8
RASTER
10
47.777
20
15.763
30
0
0
VERTEX
8
RASTER
10
47.777
20
15.436
30
0
0
VERTEX
8
RASTER
10
47.668
20
15.327
30
0
0
VERTEX
8
RASTER
10
47.417
20
15.403
30
0
0
VERTEX
8
RASTER
10
47.341
20
15.545
30
0
0
SEQEND
8
RASTER
0
POLYLINE
8
RASTER
66
1
70
1
0
VERTEX
8
RASTER
10
56.82
20
15.763
30
0
0
VERTEX
8
RASTER
10
56.526
20
15.621
30
0
0
VERTEX
8
RASTER
10
56.276
20
15.109
30
0
0
VERTEX
8
RASTER
10
56.276
20
14.891
30
0
0
VERTEX
8
RASTER
10
55.84
20
13.802
30
0
0
VERTEX
8
RASTER
10
55.949
20
13.475
30
0
0
VERTEX
8
RASTER
10
55.872
20
13.398
30
0
0
VERTEX
8
RASTER
10
55.763
20
13.551
30
0
0
VERTEX
8
RASTER
10
55.622
20
13.257
30
0
0
VERTEX
8
RASTER
10
54.859
20
11.078
30
0
0
VERTEX
8
RASTER
10
54.859
20
10.424
30
0
0
VERTEX
8
RASTER
10
55.044
20
10.064
30
0
0
VERTEX
8
RASTER
10
56.417
20
8.604
30
0
0
VERTEX
8
RASTER
10
57.55
20
7.122
30
0
0
VERTEX
8
RASTER
10
57.659
20
7.079
30
0
0
VERTEX
8
RASTER
10
57.877
20
7.34
30
0
0
VERTEX
8
RASTER
10
57.834
20
7.079
30
0
0
VERTEX
8
RASTER
10
58.128
20
7.046
30
0
0
VERTEX
8
RASTER
10
58.204
20
7.079
30
0
0
VERTEX
8
RASTER
10
58.128
20
7.373
30
0
0
VERTEX
8
RASTER
10
57.91
20
7.591
30
0
0
VERTEX
8
RASTER
10
58.378
20
8.539
30
0
0
VERTEX
8
RASTER
10
58.564
20
8.463
30
0
0
VERTEX
8
RASTER
10
58.673
20
8.572
30
0
0
VERTEX
8
RASTER
10
58.455
20
8.789
30
0
0
VERTEX
8
RASTER
10
58.858
20
9.04
30
0
0
VERTEX
8
RASTER
10
58.673
20
9.225
30
0
0
VERTEX
8
RASTER
10
58.705
20
9.411
30
0
0
VERTEX
8
RASTER
10
58.999
20
9.334
30
0
0
VERTEX
8
RASTER
10
59.108
20
9.443
30
0
0
VERTEX
8
RASTER
10
58.814
20
9.628
30
0
0
VERTEX
8
RASTER
10
59.838
20
11.873
30
0
0
VERTEX
8
RASTER
10
60.089
20
12.058
30
0
0
VERTEX
8
RASTER
10
60.634
20
12.058
30
0
0
VERTEX
8
RASTER
10
61.037
20
11.154
30
0
0
VERTEX
8
RASTER
10
61.288
20
11.187
30
0
0
VERTEX
8
RASTER
10
61.691
20
11.001
30
0
0
VERTEX
8
RASTER
10
61.429
20
11.219
30
0
0
VERTEX
8
RASTER
10
61.429
20
11.481
30
0
0
VERTEX
8
RASTER
10
61.691
20
11.437
30
0
0
VERTEX
8
RASTER
10
61.691
20
11.59
30
0
0
VERTEX
8
RASTER
10
61.397
20
11.731
30
0
0
VERTEX
8
RASTER
10
61.07
20
11.404
30
0
0
VERTEX
8
RASTER
10
60.993
20
11.699
30
0
0
VERTEX
8
RASTER
10
61.102
20
11.917
30
0
0
VERTEX
8
RASTER
10
61.506
20
11.949
30
0
0
VERTEX
8
RASTER
10
61.691
20
11.764
30
0
0
VERTEX
8
RASTER
10
61.941
20
11.949
30
0
0
VERTEX
8
RASTER
10
62.018
20
11.873
30
0
0
VERTEX
8
RASTER
10
61.865
20
11.699
30
0
0
VERTEX
8
RASTER
10
61.909
20
11.59
30
0
0
VERTEX
8
RASTER
10
62.127
20
11.59
30
0
0
VERTEX
8
RASTER
10
62.236
20
11.372
30
0
0
VERTEX
8
RASTER
10
62.453
20
11.263
30
0
0
VERTEX
8
RASTER
10
62.159
20
10.969
30
0
0
VERTEX
8
RASTER
10
62.236
20
10.827
30
0
0
VERTEX
8
RASTER
10
62.562
20
10.718
30
0
0
VERTEX
8
RASTER
10
62.486
20
10.533
30
0
0
VERTEX
8
RASTER
10
62.671
20
10.13
30
0
0
VERTEX
8
RASTER
10
62.486
20
9.988
30
0
0
VERTEX
8
RASTER
10
62.595
20
9.77
30
0
0
VERTEX
8
RASTER
10
62.519
20
9.628
30
0
0
VERTEX
8
RASTER
10
62.192
20
9.367
30
0
0
VERTEX
8
RASTER
10
62.236
20
9.737
30
0
0
VERTEX
8
RASTER
10
62.018
20
9.694
30
0
0
VERTEX
8
RASTER
10
61.974
20
9.411
30
0
0
VERTEX
8
RASTER
10
61.8
20
9.149
30
0
0
VERTEX
8
RASTER
10
61.647
20
9.149
30
0
0
VERTEX
8
RASTER
10
61.832
20
9.552
30
0
0
VERTEX
8
RASTER
10
61.756
20
9.628
30
0
0
VERTEX
8
RASTER
10
61.538
20
9.476
30
0
0
VERTEX
8
RASTER
10
61.473
20
9.628
30
0
0
VERTEX
8
RASTER
10
61.288
20
9.661
30
0
0
VERTEX
8
RASTER
10
61.288
20
9.988
30
0
0
VERTEX
8
RASTER
10
61.506
20
10.533
30
0
0
VERTEX
8
RASTER
10
61.32
20
10.609
30
0
0
VERTEX
8
RASTER
10
60.993
20
9.803
30
0
0
VERTEX
8
RASTER
10
61.179
20
9.552
30
0
0
VERTEX
8
RASTER
10
61.146
20
9.302
30
0
0
VERTEX
8
RASTER
10
61.364
20
9.193
30
0
0
VERTEX
8
RASTER
10
61.429
20
8.931
30
0
0
VERTEX
8
RASTER
10
61.691
20
8.757
30
0
0
VERTEX
8
RASTER
10
61.473
20
8.277
30
0
0
VERTEX
8
RASTER
10
61.397
20
8.354
30
0
0
VERTEX
8
RASTER
10
61.582
20
8.757
30
0
0
VERTEX
8
RASTER
10
61.32
20
8.604
30
0
0
VERTEX
8
RASTER
10
61.288
20
8.789
30
0
0
VERTEX
8
RASTER
10
61.146
20
8.713
30
0
0
VERTEX
8
RASTER
10
61.146
20
8.495
30
0
0
VERTEX
8
RASTER
10
60.993
20
8.539
30
0
0
VERTEX
8
RASTER
10
60.928
20
8.386
30
0
0
VERTEX
8
RASTER
10
60.852
20
8.463
30
0
0
VERTEX
8
RASTER
10
61.102
20
8.975
30
0
0
VERTEX
8
RASTER
10
61.255
20
9.04
30
0
0
VERTEX
8
RASTER
10
61.179
20
9.116
30
0
0
VERTEX
8
RASTER
10
60.884
20
8.975
30
0
0
VERTEX
8
RASTER
10
60.776
20
8.648
30
0
0
VERTEX
8
RASTER
10
60.634
20
8.572
30
0
0
VERTEX
8
RASTER
10
60.416
20
8.68
30
0
0
VERTEX
8
RASTER
10
60.231
20
8.43
30
0
0
VERTEX
8
RASTER
10
60.307
20
8.354
30
0
0
VERTEX
8
RASTER
10
60.71
20
8.43
30
0
0
VERTEX
8
RASTER
10
60.743
20
8.354
30
0
0
VERTEX
8
RASTER
10
60.449
20
7.885
30
0
0
VERTEX
8
RASTER
10
60.819
20
7.776
30
0
0
VERTEX
8
RASTER
10
60.601
20
7.515
30
0
0
VERTEX
8
RASTER
10
60.34
20
7.776
30
0
0
VERTEX
8
RASTER
10
60.122
20
7.297
30
0
0
VERTEX
8
RASTER
10
59.904
20
7.406
30
0
0
VERTEX
8
RASTER
10
59.762
20
7.7
30
0
0
VERTEX
8
RASTER
10
59.621
20
7.624
30
0
0
VERTEX
8
RASTER
10
59.577
20
7.34
30
0
0
VERTEX
8
RASTER
10
59.25
20
7.188
30
0
0
VERTEX
8
RASTER
10
60.634
20
7.155
30
0
0
VERTEX
8
RASTER
10
60.852
20
7.264
30
0
0
VERTEX
8
RASTER
10
62.159
20
7.264
30
0
0
VERTEX
8
RASTER
10
62.628
20
7.449
30
0
0
VERTEX
8
RASTER
10
63.249
20
8.68
30
0
0
VERTEX
8
RASTER
10
64.556
20
11.84
30
0
0
VERTEX
8
RASTER
10
64.633
20
12.134
30
0
0
VERTEX
8
RASTER
10
64.262
20
12.745
30
0
0
VERTEX
8
RASTER
10
62.671
20
14.314
30
0
0
VERTEX
8
RASTER
10
62.519
20
14.597
30
0
0
VERTEX
8
RASTER
10
61.974
20
15.142
30
0
0
VERTEX
8
RASTER
10
61.397
20
15.545
30
0
0
VERTEX
8
RASTER
10
60.961
20
15.654
30
0
0
VERTEX
8
RASTER
10
58.237
20
15.654
30
0
0
VERTEX
8
RASTER
10
58.019
20
15.763
30
0
0
SEQEND
8
RASTER
0
POLYLINE
8
RASTER
66
1
70
1
0
VERTEX
8
RASTER
10
62.192
20
11.917
30
0
0
VERTEX
8
RASTER
10
62.486
20
11.949
30
0
0
VERTEX
8
RASTER
10
62.595
20
11.84
30
0
0
VERTEX
8
RASTER
10
62.519
20
11.699
30
0
0
VERTEX
8
RASTER
10
62.268
20
11.622
30
0
0
SEQEND
8
RASTER
0
POLYLINE
8
RASTER
66
1
70
1
0
VERTEX
8
RASTER
10
54.173
20
11.263
30
0
0
VERTEX
8
RASTER
10
53.693
20
11.045
30
0
0
VERTEX
8
RASTER
10
53.693
20
10.892
30
0
0
VERTEX
8
RASTER
10
53.987
20
10.969
30
0
0
VERTEX
8
RASTER
10
54.173
20
10.892
30
0
0
SEQEND
8
RASTER
0
POLYLINE
8
RASTER
66
1
70
1
0
VERTEX
8
RASTER
10
60.056
20
11.263
30
0
0
VERTEX
8
RASTER
10
59.871
20
11.078
30
0
0
VERTEX
8
RASTER
10
59.947
20
10.892
30
0
0
VERTEX
8
RASTER
10
59.795
20
10.565
30
0
0
VERTEX
8
RASTER
10
60.013
20
10.609
30
0
0
VERTEX
8
RASTER
10
60.165
20
11.001
30
0
0
VERTEX
8
RASTER
10
60.274
20
11.045
30
0
0
VERTEX
8
RASTER
10
60.274
20
10.391
30
0
0
VERTEX
8
RASTER
10
60.492
20
10.391
30
0
0
VERTEX
8
RASTER
10
61.037
20
10.13
30
0
0
VERTEX
8
RASTER
10
60.993
20
10.348
30
0
0
VERTEX
8
RASTER
10
60.558
20
10.457
30
0
0
VERTEX
8
RASTER
10
60.416
20
10.751
30
0
0
VERTEX
8
RASTER
10
60.601
20
11.001
30
0
0
VERTEX
8
RASTER
10
60.558
20
11.11
30
0
0
VERTEX
8
RASTER
10
60.383
20
11.263
30
0
0
VERTEX
8
RASTER
10
60.122
20
11.11
30
0
0
SEQEND
8
RASTER
0
POLYLINE
8
RASTER
66
1
70
1
0
VERTEX
8
RASTER
10
60.819
20
11.154
30
0
0
VERTEX
8
RASTER
10
60.743
20
11.078
30
0
0
VERTEX
8
RASTER
10
60.928
20
10.718
30
0
0
VERTEX
8
RASTER
10
61.102
20
10.718
30
0
0
VERTEX
8
RASTER
10
61.146
20
10.936
30
0
0
VERTEX
8
RASTER
10
60.884
20
11.001
30
0
0
SEQEND
8
RASTER
0
POLYLINE
8
RASTER
66
1
70
1
0
VERTEX
8
RASTER
10
54.064
20
10.827
30
0
0
VERTEX
8
RASTER
10
53.693
20
10.609
30
0
0
VERTEX
8
RASTER
10
53.878
20
10.315
30
0
0
VERTEX
8
RASTER
10
54.096
20
10.533
30
0
0
SEQEND
8
RASTER
0
POLYLINE
8
RASTER
66
1
70
1
0
VERTEX
8
RASTER
10
62.127
20
10.718
30
0
0
VERTEX
8
RASTER
10
62.018
20
10.348
30
0
0
VERTEX
8
RASTER
10
61.832
20
10.206
30
0
0
VERTEX
8
RASTER
10
61.865
20
10.13
30
0
0
VERTEX
8
RASTER
10
62.159
20
10.206
30
0
0
VERTEX
8
RASTER
10
62.345
20
10.021
30
0
0
VERTEX
8
RASTER
10
62.453
20
10.282
30
0
0
VERTEX
8
RASTER
10
62.268
20
10.424
30
0
0
VERTEX
8
RASTER
10
62.345
20
10.609
30
0
0
SEQEND
8
RASTER
0
POLYLINE
8
RASTER
66
1
70
1
0
VERTEX
8
RASTER
10
59.512
20
10.064
30
0
0
VERTEX
8
RASTER
10
59.468
20
9.803
30
0
0
VERTEX
8
RASTER
10
59.621
20
9.846
30
0
0
VERTEX
8
RASTER
10
59.947
20
9.694
30
0
0
VERTEX
8
RASTER
10
59.947
20
9.846
30
0
0
SEQEND
8
RASTER
0
POLYLINE
8
RASTER
66
1
70
1
0
VERTEX
8
RASTER
10
59.871
20
8.463
30
0
0
VERTEX
8
RASTER
10
59.73
20
8.386
30
0
0
VERTEX
8
RASTER
10
59.73
20
8.212
30
0
0
VERTEX
8
RASTER
10
60.165
20
7.95
30
0
0
VERTEX
8
RASTER
10
60.165
20
8.212
30
0
0
VERTEX
8
RASTER
10
60.013
20
8.168
30
0
0
SEQEND
8
RASTER
0
POLYLINE
8
CUT
66
1
70
1
0
VERTEX
8
CUT
10
74.051
20
23.963
30
0
0
VERTEX
8
CUT
10
84.15
20
24.011
30
0
0
VERTEX
8
CUT
10
84.902
20
23.569
30
0
0
VERTEX
8
CUT
10
86.466
20
21.432
30
0
0
VERTEX
8
CUT
10
88.376
20
16.657
30
0
0
VERTEX
8
CUT
10
88.627
20
10.223
30
0
0
VERTEX
8
CUT
10
87.779
20
6.654
30
0
0
VERTEX
8
CUT
10
85.786
20
4.23
30
0
0
VERTEX
8
CUT
10
73.251
20
4.039
30
0
0
VERTEX
8
CUT
10
72.057
20
4.636
30
0
0
VERTEX
8
CUT
10
70.732
20
6.296
30
0
0
VERTEX
8
CUT
10
69.897
20
8.444
30
0
0
VERTEX
8
CUT
10
69.646
20
10.342
30
0
0
VERTEX
8
CUT
10
69.932
20
16.741
30
0
0
VERTEX
8
CUT
10
71.687
20
21.194
30
0
0
SEQEND
8
CUT
0
POLYLINE
8
RASTER
66
1
70
1
0
VERTEX
8
RASTER
10
78.277
20
23.319
30
0
0
VERTEX
8
RASTER
10
80.032
20
23.354
30
0
0
VERTEX
8
RASTER
10
80.748
20
23.116
30
0
0
VERTEX
8
RASTER
10
82.216
20
22.316
30
0
0
VERTEX
8
RASTER
10
83.529
20
21.003
30
0
0
VERTEX
8
RASTER
10
84.365
20
19.809
30
0
0
VERTEX
8
RASTER
10
85.284
20
18.102
30
0
0
VERTEX
8
RASTER
10
86.12
20
15.953
30
0
0
VERTEX
8
RASTER
10
86.597
20
13.924
30
0
0
VERTEX
8
RASTER
10
86.597
20
11.059
30
0
0
VERTEX
8
RASTER
10
86.478
20
10.462
30
0
0
VERTEX
8
RASTER
10
85.881
20
8.671
30
0
0
VERTEX
8
RASTER
10
85.32
20
7.68
30
0
0
VERTEX
8
RASTER
10
83.887
20
6.129
30
0
0
VERTEX
8
RASTER
10
83.171
20
5.651
30
0
0
VERTEX
8
RASTER
10
82.061
20
5.09
30
0
0
VERTEX
8
RASTER
10
80.27
20
4.612
30
0
0
VERTEX
8
RASTER
10
78.122
20
4.612
30
0
0
VERTEX
8
RASTER
10
77.525
20
4.732
30
0
0
VERTEX
8
RASTER
10
76.092
20
5.209
30
0
0
VERTEX
8
RASTER
10
74.863
20
5.89
30
0
0
VERTEX
8
RASTER
10
73.788
20
6.725
30
0
0
VERTEX
8
RASTER
10
73.072
20
7.561
30
0
0
VERTEX
8
RASTER
10
72.033
20
9.626
30
0
0
VERTEX
8
RASTER
10
71.675
20
11.059
30
0
0
VERTEX
8
RASTER
10
71.675
20
13.685
30
0
0
VERTEX
8
RASTER
10
71.795
20
13.924
30
0
0
VERTEX
8
RASTER
10
71.914
20
15.118
30
0
0
VERTEX
8
RASTER
10
72.272
20
16.311
30
0
0
VERTEX
8
RASTER
10
73.311
20
18.735
30
0
0
VERTEX
8
RASTER
10
74.266
20
20.286
30
0
0
VERTEX
8
RASTER
10
75.579
20
21.838
30
0
0
VERTEX
8
RASTER
10
76.892
20
22.793
30
0
0
SEQEND
8
RASTER
0
POLYLINE
8
RASTER
66
1
70
1
0
VERTEX
8
RASTER
10
78.48
20
22.758
30
0
0
VERTEX
8
RASTER
10
77.68
20
22.483
30
0
0
VERTEX
8
RASTER
10
76.415
20
21.719
30
0
0
VERTEX
8
RASTER
10
75.46
20
20.764
30
0
0
VERTEX
8
RASTER
10
74.266
20
19.093
30
0
0
VERTEX
8
RASTER
10
73.347
20
17.266
30
0
0
VERTEX
8
RASTER
10
72.63
20
15.237
30
0
0
VERTEX
8
RASTER
10
72.392
20
14.043
30
0
0
VERTEX
8
RASTER
10
72.392
20
13.327
30
0
0
VERTEX
8
RASTER
10
72.272
20
13.088
30
0
0
VERTEX
8
RASTER
10
72.272
20
11.775
30
0
0
VERTEX
8
RASTER
10
72.392
20
11.536
30
0
0
VERTEX
8
RASTER
10
72.511
20
10.342
30
0
0
VERTEX
8
RASTER
10
72.75
20
9.626
30
0
0
VERTEX
8
RASTER
10
73.43
20
8.277
30
0
0
VERTEX
8
RASTER
10
74.505
20
6.964
30
0
0
VERTEX
8
RASTER
10
76.331
20
5.806
30
0
0
VERTEX
8
RASTER
10
77.883
20
5.329
30
0
0
VERTEX
8
RASTER
10
79.674
20
5.209
30
0
0
VERTEX
8
RASTER
10
79.912
20
5.329
30
0
0
VERTEX
8
RASTER
10
81.106
20
5.448
30
0
0
VERTEX
8
RASTER
10
81.822
20
5.687
30
0
0
VERTEX
8
RASTER
10
83.649
20
6.725
30
0
0
VERTEX
8
RASTER
10
84.365
20
7.442
30
0
0
VERTEX
8
RASTER
10
85.201
20
8.755
30
0
0
VERTEX
8
RASTER
10
85.762
20
10.223
30
0
0
VERTEX
8
RASTER
10
86
20
11.298
30
0
0
VERTEX
8
RASTER
10
86
20
13.446
30
0
0
VERTEX
8
RASTER
10
85.642
20
15.237
30
0
0
VERTEX
8
RASTER
10
84.926
20
17.266
30
0
0
VERTEX
8
RASTER
10
83.887
20
19.331
30
0
0
VERTEX
8
RASTER
10
82.694
20
21.003
30
0
0
VERTEX
8
RASTER
10
81.739
20
21.838
30
0
0
VERTEX
8
RASTER
10
80.27
20
22.638
30
0
0
VERTEX
8
RASTER
10
79.793
20
22.758
30
0
0
SEQEND
8
RASTER
0
POLYLINE
8
RASTER
66
1
70
1
0
VERTEX
8
RASTER
10
75.173
20
18.902
30
0
0
VERTEX
8
RASTER
10
75.376
20
18.818
30
0
0
VERTEX
8
RASTER
10
75.257
20
18.579
30
0
0
VERTEX
8
RASTER
10
75.495
20
17.863
30
0
0
VERTEX
8
RASTER
10
75.173
20
17.469
30
0
0
VERTEX
8
RASTER
10
74.696
20
17.302
30
0
0
VERTEX
8
RASTER
10
74.385
20
17.469
30
0
0
VERTEX
8
RASTER
10
74.302
20
17.983
30
0
0
VERTEX
8
RASTER
10
74.624
20
18.615
30
0
0
VERTEX
8
RASTER
10
74.899
20
18.818
30
0
0
VERTEX
8
RASTER
10
75.221
20
18.735
30
0
0
SEQEND
8
RASTER
0
POLYLINE
8
RASTER
66
1
70
1
0
VERTEX
8
RASTER
10
73.86
20
15.201
30
0
0
VERTEX
8
RASTER
10
74.182
20
15.237
30
0
0
VERTEX
8
RASTER
10
74.54
20
14.879
30
0
0
VERTEX
8
RASTER
10
74.54
20
14.282
30
0
0
VERTEX
8
RASTER
10
74.063
20
13.804
30
0
0
VERTEX
8
RASTER
10
73.669
20
14.007
30
0
0
VERTEX
8
RASTER
10
73.466
20
14.401
30
0
0
VERTEX
8
RASTER
10
73.466
20
14.64
30
0
0
SEQEND
8
RASTER
0
POLYLINE
8
RASTER
66
1
70
1
0
VERTEX
8
RASTER
10
78.993
20
14.962
30
0
0
VERTEX
8
RASTER
10
79.912
20
14.998
30
0
0
VERTEX
8
RASTER
10
80.306
20
14.795
30
0
0
VERTEX
8
RASTER
10
80.593
20
14.485
30
0
0
VERTEX
8
RASTER
10
80.867
20
13.685
30
0
0
VERTEX
8
RASTER
10
80.867
20
13.208
30
0
0
VERTEX
8
RASTER
10
80.545
20
12.336
30
0
0
VERTEX
8
RASTER
10
80.067
20
11.859
30
0
0
VERTEX
8
RASTER
10
79.674
20
11.656
30
0
0
VERTEX
8
RASTER
10
78.957
20
11.656
30
0
0
VERTEX
8
RASTER
10
78.396
20
11.93
30
0
0
VERTEX
8
RASTER
10
78.002
20
12.611
30
0
0
VERTEX
8
RASTER
10
78.002
20
13.685
30
0
0
VERTEX
8
RASTER
10
78.444
20
14.556
30
0
0
SEQEND
8
RASTER
0
POLYLINE
8
RASTER
66
1
70
1
0
VERTEX
8
RASTER
10
83.768
20
14.604
30
0
0
VERTEX
8
RASTER
10
84.09
20
14.64
30
0
0
VERTEX
8
RASTER
10
84.329
20
14.401
30
0
0
VERTEX
8
RASTER
10
84.329
20
13.924
30
0
0
VERTEX
8
RASTER
10
83.971
20
13.566
30
0
0
VERTEX
8
RASTER
10
83.696
20
13.649
30
0
0
VERTEX
8
RASTER
10
83.494
20
14.043
30
0
0
SEQEND
8
RASTER
0
POLYLINE
8
RASTER
66
1
70
1
0
VERTEX
8
RASTER
10
79.28
20
14.365
30
0
0
VERTEX
8
RASTER
10
79.196
20
14.282
30
0
0
VERTEX
8
RASTER
10
79.399
20
13.721
30
0
0
VERTEX
8
RASTER
10
79.554
20
13.924
30
0
0
SEQEND
8
RASTER
0
POLYLINE
8
RASTER
66
1
70
1
0
VERTEX
8
RASTER
10
79.793
20
13.804
30
0
0
VERTEX
8
RASTER
10
79.709
20
13.721
30
0
0
VERTEX
8
RASTER
10
80.115
20
13.53
30
0
0
VERTEX
8
RASTER
10
80.067
20
13.363
30
0
0
VERTEX
8
RASTER
10
80.187
20
13.243
30
0
0
VERTEX
8
RASTER
10
80.354
20
13.601
30
0
0
VERTEX
8
RASTER
10
80.593
20
13.601
30
0
0
VERTEX
8
RASTER
10
80.39
20
13.804
30
0
0
VERTEX
8
RASTER
10
80.235
20
13.721
30
0
0
SEQEND
8
RASTER
0
POLYLINE
8
RASTER
66
1
70
1
0
VERTEX
8
RASTER
10
79.16
20
13.53
30
0
0
VERTEX
8
RASTER
10
79.16
20
13.363
30
0
0
VERTEX
8
RASTER
10
78.874
20
13.291
30
0
0
VERTEX
8
RASTER
10
78.993
20
12.766
30
0
0
VERTEX
8
RASTER
10
79.112
20
12.933
30
0
0
VERTEX
8
RASTER
10
79.28
20
12.885
30
0
0
VERTEX
8
RASTER
10
79.232
20
13.172
30
0
0
VERTEX
8
RASTER
10
79.315
20
13.208
30
0
0
VERTEX
8
RASTER
10
79.471
20
12.885
30
0
0
VERTEX
8
RASTER
10
79.793
20
13.088
30
0
0
VERTEX
8
RASTER
10
79.996
20
12.766
30
0
0
VERTEX
8
RASTER
10
80.115
20
13.172
30
0
0
VERTEX
8
RASTER
10
79.948
20
13.124
30
0
0
SEQEND
8
RASTER
0
POLYLINE
8
RASTER
66
1
70
1
0
VERTEX
8
RASTER
10
73.86
20
11.381
30
0
0
VERTEX
8
RASTER
10
74.182
20
11.417
30
0
0
VERTEX
8
RASTER
10
75.054
20
10.975
30
0
0
VERTEX
8
RASTER
10
75.77
20
10.14
30
0
0
VERTEX
8
RASTER
10
76.212
20
9.029
30
0
0
VERTEX
8
RASTER
10
76.092
20
8.194
30
0
0
VERTEX
8
RASTER
10
75.77
20
7.8
30
0
0
VERTEX
8
RASTER
10
75.257
20
7.716
30
0
0
VERTEX
8
RASTER
10
74.624
20
8.039
30
0
0
VERTEX
8
RASTER
10
74.027
20
8.516
30
0
0
VERTEX
8
RASTER
10
73.788
20
8.874
30
0
0
VERTEX
8
RASTER
10
73.347
20
9.746
30
0
0
VERTEX
8
RASTER
10
73.227
20
10.462
30
0
0
VERTEX
8
RASTER
10
73.43
20
11.095
30
0
0
SEQEND
8
RASTER
0
POLYLINE
8
RASTER
66
1
70
1
0
VERTEX
8
RASTER
10
83.052
20
11.142
30
0
0
VERTEX
8
RASTER
10
83.732
20
11.178
30
0
0
VERTEX
8
RASTER
10
84.055
20
11.023
30
0
0
VERTEX
8
RASTER
10
84.329
20
10.581
30
0
0
VERTEX
8
RASTER
10
84.329
20
9.626
30
0
0
VERTEX
8
RASTER
10
83.768
20
8.397
30
0
0
VERTEX
8
RASTER
10
83.171
20
7.8
30
0
0
VERTEX
8
RASTER
10
82.539
20
7.477
30
0
0
VERTEX
8
RASTER
10
82.18
20
7.477
30
0
0
VERTEX
8
RASTER
10
81.548
20
7.919
30
0
0
VERTEX
8
RASTER
10
81.345
20
8.432
30
0
0
VERTEX
8
RASTER
10
81.345
20
9.029
30
0
0
VERTEX
8
RASTER
10
81.619
20
9.829
30
0
0
VERTEX
8
RASTER
10
81.786
20
9.781
30
0
0
VERTEX
8
RASTER
10
82.216
20
10.068
30
0
0
VERTEX
8
RASTER
10
82.383
20
9.901
30
0
0
VERTEX
8
RASTER
10
82.419
20
10.342
30
0
0
VERTEX
8
RASTER
10
82.622
20
10.498
30
0
0
VERTEX
8
RASTER
10
82.574
20
10.665
30
0
0
VERTEX
8
RASTER
10
82.741
20
10.665
30
0
0
VERTEX
8
RASTER
10
82.897
20
10.462
30
0
0
VERTEX
8
RASTER
10
83.016
20
10.581
30
0
0
VERTEX
8
RASTER
10
82.741
20
10.904
30
0
0
VERTEX
8
RASTER
10
82.622
20
10.856
30
0
0
VERTEX
8
RASTER
10
81.786
20
9.901
30
0
0
VERTEX
8
RASTER
10
81.703
20
9.984
30
0
0
VERTEX
8
RASTER
10
82.025
20
10.498
30
0
0
VERTEX
8
RASTER
10
82.694
20
11.023
30
0
0
VERTEX
8
RASTER
10
82.98
20
10.975
30
0
0
SEQEND
8
RASTER
0
POLYLINE
8
RASTER
66
1
70
1
0
VERTEX
8
RASTER
10
78.157
20
6.964
30
0
0
VERTEX
8
RASTER
10
78.874
20
6.916
30
0
0
VERTEX
8
RASTER
10
79.196
20
6.522
30
0
0
VERTEX
8
RASTER
10
79.112
20
6.248
30
0
0
VERTEX
8
RASTER
10
78.719
20
6.045
30
0
0
VERTEX
8
RASTER
10
78.086
20
6.129
30
0
0
VERTEX
8
RASTER
10
77.847
20
6.367
30
0
0
VERTEX
8
RASTER
10
77.764
20
6.642
30
0
0
VERTEX
8
RASTER
10
77.847
20
6.797
30
0
0
SEQEND
8
RASTER
0
POLYLINE
8
CUT
66
1
70
1
0
VERTEX
8
CUT
10
97.289
20
24.011
30
0
0
VERTEX
8
CUT
10
104.491
20
23.963
30
0
0
VERTEX
8
CUT
10
108.659
20
22.024
30
0
0
VERTEX
8
CUT
10
109.182
20
21.19
30
0
0
VERTEX
8
CUT
10
109.367
20
19.135
30
0
0
VERTEX
8
CUT
10
112.575
20
18.864
30
0
0
VERTEX
8
CUT
10
112.623
20
7.901
30
0
0
VERTEX
8
CUT
10
111.373
20
5.856
30
0
0
VERTEX
8
CUT
10
109.706
20
4.324
30
0
0
VERTEX
8
CUT
10
108.814
20
4.053
30
0
0
VERTEX
8
CUT
10
99.528
20
4.072
30
0
0
VERTEX
8
CUT
10
99.199
20
4.324
30
0
0
VERTEX
8
CUT
10
99.073
20
5.168
30
0
0
VERTEX
8
CUT
10
98.714
20
5.585
30
0
0
VERTEX
8
CUT
10
95.69
20
6.728
30
0
0
VERTEX
8
CUT
10
92.782
20
8.279
30
0
0
VERTEX
8
CUT
10
92.627
20
15.006
30
0
0
VERTEX
8
CUT
10
93.092
20
16.479
30
0
0
VERTEX
8
CUT
10
93.16
20
18.156
30
0
0
VERTEX
8
CUT
10
95.166
20
20.221
30
0
0
VERTEX
8
CUT
10
96.523
20
23.129
30
0
0
SEQEND
8
CUT
0
POLYLINE
8
RASTER
66
1
70
1
0
VERTEX
8
RASTER
10
99.538
20
23.604
30
0
0
VERTEX
8
RASTER
10
99.896
20
23.633
30
0
0
VERTEX
8
RASTER
10
100.866
20
23.245
30
0
0
VERTEX
8
RASTER
10
106.1
20
21.016
30
0
0
VERTEX
8
RASTER
10
107.098
20
20.463
30
0
0
VERTEX
8
RASTER
10
107.36
20
19.853
30
0
0
VERTEX
8
RASTER
10
105.548
20
15.714
30
0
0
VERTEX
8
RASTER
10
106.294
20
16.072
30
0
0
VERTEX
8
RASTER
10
107.942
20
16.557
30
0
0
VERTEX
8
RASTER
10
109.202
20
16.654
30
0
0
VERTEX
8
RASTER
10
109.977
20
16.46
30
0
0
VERTEX
8
RASTER
10
110.2
20
16.625
30
0
0
VERTEX
8
RASTER
10
110.433
20
17.168
30
0
0
VERTEX
8
RASTER
10
110.656
20
17.332
30
0
0
VERTEX
8
RASTER
10
111.237
20
17.332
30
0
0
VERTEX
8
RASTER
10
111.751
20
17.071
30
0
0
VERTEX
8
RASTER
10
111.916
20
16.751
30
0
0
VERTEX
8
RASTER
10
111.916
20
16.169
30
0
0
VERTEX
8
RASTER
10
111.819
20
15.879
30
0
0
VERTEX
8
RASTER
10
111.557
20
15.365
30
0
0
VERTEX
8
RASTER
10
111.363
20
15.171
30
0
0
VERTEX
8
RASTER
10
111.819
20
14.231
30
0
0
VERTEX
8
RASTER
10
111.916
20
13.746
30
0
0
VERTEX
8
RASTER
10
111.916
20
12.68
30
0
0
VERTEX
8
RASTER
10
111.819
20
12.486
30
0
0
VERTEX
8
RASTER
10
111.722
20
11.517
30
0
0
VERTEX
8
RASTER
10
111.14
20
9.578
30
0
0
VERTEX
8
RASTER
10
110.685
20
8.677
30
0
0
VERTEX
8
RASTER
10
109.716
20
7.32
30
0
0
VERTEX
8
RASTER
10
108.649
20
6.253
30
0
0
VERTEX
8
RASTER
10
107.777
20
5.672
30
0
0
VERTEX
8
RASTER
10
106.682
20
5.119
30
0
0
VERTEX
8
RASTER
10
105.712
20
4.828
30
0
0
VERTEX
8
RASTER
10
104.743
20
4.732
30
0
0
VERTEX
8
RASTER
10
104.549
20
4.635
30
0
0
VERTEX
8
RASTER
10
103.968
20
4.635
30
0
0
VERTEX
8
RASTER
10
102.998
20
4.441
30
0
0
VERTEX
8
RASTER
10
101.641
20
4.441
30
0
0
VERTEX
8
RASTER
10
101.128
20
4.702
30
0
0
VERTEX
8
RASTER
10
100.769
20
5.313
30
0
0
VERTEX
8
RASTER
10
100.769
20
6.864
30
0
0
VERTEX
8
RASTER
10
100.701
20
6.99
30
0
0
VERTEX
8
RASTER
10
97.958
20
8.124
30
0
0
VERTEX
8
RASTER
10
95.176
20
9.413
30
0
0
VERTEX
8
RASTER
10
95.341
20
9.481
30
0
0
VERTEX
8
RASTER
10
95.632
20
9.384
30
0
0
VERTEX
8
RASTER
10
100.381
20
7.349
30
0
0
VERTEX
8
RASTER
10
100.74
20
7.378
30
0
0
VERTEX
8
RASTER
10
100.866
20
7.639
30
0
0
VERTEX
8
RASTER
10
100.963
20
7.93
30
0
0
VERTEX
8
RASTER
10
100.866
20
8.318
30
0
0
VERTEX
8
RASTER
10
100.866
20
9.093
30
0
0
VERTEX
8
RASTER
10
101.06
20
9.772
30
0
0
VERTEX
8
RASTER
10
101.06
20
10.16
30
0
0
VERTEX
8
RASTER
10
101.447
20
11.323
30
0
0
VERTEX
8
RASTER
10
101.932
20
12.195
30
0
0
VERTEX
8
RASTER
10
101.932
20
12.389
30
0
0
VERTEX
8
RASTER
10
101.864
20
12.515
30
0
0
VERTEX
8
RASTER
10
101.447
20
12.68
30
0
0
VERTEX
8
RASTER
10
100.478
20
12.68
30
0
0
VERTEX
8
RASTER
10
100.284
20
12.583
30
0
0
VERTEX
8
RASTER
10
99.896
20
12.583
30
0
0
VERTEX
8
RASTER
10
99.218
20
12.292
30
0
0
VERTEX
8
RASTER
10
98.995
20
12.36
30
0
0
VERTEX
8
RASTER
10
98.636
20
13.068
30
0
0
VERTEX
8
RASTER
10
98.026
20
14.88
30
0
0
VERTEX
8
RASTER
10
97.57
20
15.2
30
0
0
VERTEX
8
RASTER
10
96.698
20
15.394
30
0
0
VERTEX
8
RASTER
10
96.213
20
15.394
30
0
0
VERTEX
8
RASTER
10
95.825
20
15.685
30
0
0
VERTEX
8
RASTER
10
95.409
20
15.617
30
0
0
VERTEX
8
RASTER
10
94.788
20
14.395
30
0
0
VERTEX
8
RASTER
10
94.439
20
13.872
30
0
0
VERTEX
8
RASTER
10
94.081
20
12.971
30
0
0
VERTEX
8
RASTER
10
93.693
20
12.292
30
0
0
VERTEX
8
RASTER
10
93.499
20
11.807
30
0
0
VERTEX
8
RASTER
10
93.499
20
11.517
30
0
0
VERTEX
8
RASTER
10
93.305
20
11.129
30
0
0
VERTEX
8
RASTER
10
93.305
20
10.838
30
0
0
VERTEX
8
RASTER
10
93.47
20
10.518
30
0
0
VERTEX
8
RASTER
10
93.761
20
10.227
30
0
0
VERTEX
8
RASTER
10
95.118
20
9.51
30
0
0
VERTEX
8
RASTER
10
94.759
20
9.578
30
0
0
VERTEX
8
RASTER
10
93.664
20
10.131
30
0
0
VERTEX
8
RASTER
10
93.373
20
10.421
30
0
0
VERTEX
8
RASTER
10
93.208
20
10.741
30
0
0
VERTEX
8
RASTER
10
93.208
20
11.323
30
0
0
VERTEX
8
RASTER
10
93.499
20
12.195
30
0
0
VERTEX
8
RASTER
10
95.341
20
15.879
30
0
0
VERTEX
8
RASTER
10
94.73
20
16.14
30
0
0
VERTEX
8
RASTER
10
94.662
20
16.654
30
0
0
VERTEX
8
RASTER
10
95.079
20
17.206
30
0
0
VERTEX
8
RASTER
10
95.273
20
17.303
30
0
0
VERTEX
8
RASTER
10
95.893
20
17.943
30
0
0
VERTEX
8
RASTER
10
96.436
20
18.273
30
0
0
VERTEX
8
RASTER
10
96.669
20
18.234
30
0
0
VERTEX
8
RASTER
10
99.092
20
23.177
30
0
0
VERTEX
8
RASTER
10
99.286
20
23.468
30
0
0
SEQEND
8
RASTER
0
POLYLINE
8
RASTER
66
1
70
1
0
VERTEX
8
RASTER
10
99.703
20
22.954
30
0
0
VERTEX
8
RASTER
10
99.577
20
22.887
30
0
0
VERTEX
8
RASTER
10
99.344
20
22.441
30
0
0
VERTEX
8
RASTER
10
98.443
20
20.434
30
0
0
VERTEX
8
RASTER
10
98.733
20
20.24
30
0
0
VERTEX
8
RASTER
10
99.121
20
20.24
30
0
0
VERTEX
8
RASTER
10
100.478
20
19.562
30
0
0
VERTEX
8
RASTER
10
100.963
20
19.465
30
0
0
VERTEX
8
RASTER
10
101.186
20
19.63
30
0
0
VERTEX
8
RASTER
10
102.097
20
21.53
30
0
0
VERTEX
8
RASTER
10
102.388
20
21.859
30
0
0
VERTEX
8
RASTER
10
102.223
20
22.082
30
0
0
VERTEX
8
RASTER
10
100.284
20
22.858
30
0
0
SEQEND
8
RASTER
0
POLYLINE
8
RASTER
66
1
70
1
0
VERTEX
8
RASTER
10
99.926
20
22.247
30
0
0
VERTEX
8
RASTER
10
100.41
20
22.208
30
0
0
VERTEX
8
RASTER
10
100.701
20
22.014
30
0
0
VERTEX
8
RASTER
10
100.798
20
21.723
30
0
0
VERTEX
8
RASTER
10
100.934
20
21.627
30
0
0
VERTEX
8
RASTER
10
100.604
20
21.665
30
0
0
VERTEX
8
RASTER
10
100.119
20
21.181
30
0
0
VERTEX
8
RASTER
10
99.703
20
21.113
30
0
0
VERTEX
8
RASTER
10
99.509
20
20.919
30
0
0
VERTEX
8
RASTER
10
99.412
20
21.016
30
0
0
VERTEX
8
RASTER
10
99.606
20
21.404
30
0
0
VERTEX
8
RASTER
10
99.509
20
21.597
30
0
0
SEQEND
8
RASTER
0
POLYLINE
8
RASTER
66
1
70
1
0
VERTEX
8
RASTER
10
103.386
20
21.5
30
0
0
VERTEX
8
RASTER
10
103.095
20
21.21
30
0
0
VERTEX
8
RASTER
10
103.095
20
21.016
30
0
0
VERTEX
8
RASTER
10
102.126
20
18.883
30
0
0
VERTEX
8
RASTER
10
102.223
20
18.786
30
0
0
VERTEX
8
RASTER
10
102.514
20
18.786
30
0
0
VERTEX
8
RASTER
10
103.483
20
18.496
30
0
0
VERTEX
8
RASTER
10
104.355
20
18.011
30
0
0
VERTEX
8
RASTER
10
104.743
20
17.914
30
0
0
VERTEX
8
RASTER
10
105.034
20
18.205
30
0
0
VERTEX
8
RASTER
10
105.325
20
19.077
30
0
0
VERTEX
8
RASTER
10
105.296
20
19.494
30
0
0
VERTEX
8
RASTER
10
105.489
20
19.494
30
0
0
VERTEX
8
RASTER
10
105.548
20
20.017
30
0
0
VERTEX
8
RASTER
10
105.838
20
20.114
30
0
0
VERTEX
8
RASTER
10
106.003
20
20.434
30
0
0
VERTEX
8
RASTER
10
104.646
20
21.113
30
0
0
SEQEND
8
RASTER
0
POLYLINE
8
RASTER
66
1
70
1
0
VERTEX
8
RASTER
10
97.958
20
19.368
30
0
0
VERTEX
8
RASTER
10
97.667
20
19.077
30
0
0
VERTEX
8
RASTER
10
97.086
20
17.72
30
0
0
VERTEX
8
RASTER
10
97.086
20
17.429
30
0
0
VERTEX
8
RASTER
10
97.212
20
17.265
30
0
0
VERTEX
8
RASTER
10
97.347
20
17.303
30
0
0
VERTEX
8
RASTER
10
98.152
20
16.945
30
0
0
VERTEX
8
RASTER
10
98.413
20
16.974
30
0
0
VERTEX
8
RASTER
10
98.539
20
17.236
30
0
0
VERTEX
8
RASTER
10
98.636
20
17.139
30
0
0
VERTEX
8
RASTER
10
98.704
20
16.722
30
0
0
VERTEX
8
RASTER
10
98.898
20
16.528
30
0
0
VERTEX
8
RASTER
10
99.121
20
16.46
30
0
0
VERTEX
8
RASTER
10
99.383
20
16.683
30
0
0
VERTEX
8
RASTER
10
99.441
20
17.11
30
0
0
VERTEX
8
RASTER
10
99.732
20
17.303
30
0
0
VERTEX
8
RASTER
10
99.829
20
17.594
30
0
0
VERTEX
8
RASTER
10
100.255
20
17.749
30
0
0
VERTEX
8
RASTER
10
100.643
20
18.176
30
0
0
VERTEX
8
RASTER
10
100.507
20
18.331
30
0
0
VERTEX
8
RASTER
10
99.993
20
18.593
30
0
0
SEQEND
8
RASTER
0
POLYLINE
8
RASTER
66
1
70
1
0
VERTEX
8
RASTER
10
96.475
20
17.885
30
0
0
VERTEX
8
RASTER
10
96.184
20
17.749
30
0
0
VERTEX
8
RASTER
10
95.118
20
16.683
30
0
0
VERTEX
8
RASTER
10
95.079
20
16.489
30
0
0
VERTEX
8
RASTER
10
95.99
20
16.14
30
0
0
VERTEX
8
RASTER
10
96.184
20
15.753
30
0
0
VERTEX
8
RASTER
10
96.407
20
15.588
30
0
0
VERTEX
8
RASTER
10
97.182
20
15.588
30
0
0
VERTEX
8
RASTER
10
97.667
20
15.491
30
0
0
VERTEX
8
RASTER
10
98.181
20
15.229
30
0
0
VERTEX
8
RASTER
10
98.443
20
14.715
30
0
0
VERTEX
8
RASTER
10
98.733
20
13.455
30
0
0
VERTEX
8
RASTER
10
99.092
20
12.748
30
0
0
VERTEX
8
RASTER
10
99.509
20
12.68
30
0
0
VERTEX
8
RASTER
10
100.284
20
12.874
30
0
0
VERTEX
8
RASTER
10
101.544
20
12.874
30
0
0
VERTEX
8
RASTER
10
102.029
20
12.68
30
0
0
VERTEX
8
RASTER
10
102.252
20
12.845
30
0
0
VERTEX
8
RASTER
10
102.678
20
13.484
30
0
0
VERTEX
8
RASTER
10
102.417
20
13.649
30
0
0
VERTEX
8
RASTER
10
100.187
20
13.552
30
0
0
VERTEX
8
RASTER
10
99.867
20
13.717
30
0
0
VERTEX
8
RASTER
10
98.665
20
16.005
30
0
0
VERTEX
8
RASTER
10
97.056
20
16.916
30
0
0
VERTEX
8
RASTER
10
96.766
20
17.206
30
0
0
SEQEND
8
RASTER
0
POLYLINE
8
RASTER
66
1
70
1
0
VERTEX
8
RASTER
10
101.738
20
17.623
30
0
0
VERTEX
8
RASTER
10
101.515
20
17.458
30
0
0
VERTEX
8
RASTER
10
101.35
20
17.139
30
0
0
VERTEX
8
RASTER
10
100.507
20
15.132
30
0
0
VERTEX
8
RASTER
10
101.06
20
14.812
30
0
0
VERTEX
8
RASTER
10
102.998
20
14.037
30
0
0
VERTEX
8
RASTER
10
103.192
20
14.328
30
0
0
VERTEX
8
RASTER
10
103.192
20
14.618
30
0
0
VERTEX
8
RASTER
10
103.386
20
15.103
30
0
0
VERTEX
8
RASTER
10
103.318
20
15.52
30
0
0
VERTEX
8
RASTER
10
102.998
20
15.782
30
0
0
VERTEX
8
RASTER
10
103.066
20
16.043
30
0
0
VERTEX
8
RASTER
10
102.737
20
16.043
30
0
0
VERTEX
8
RASTER
10
102.611
20
15.782
30
0
0
VERTEX
8
RASTER
10
102.417
20
16.072
30
0
0
VERTEX
8
RASTER
10
102.291
20
15.714
30
0
0
VERTEX
8
RASTER
10
101.835
20
15.685
30
0
0
VERTEX
8
RASTER
10
101.641
20
15.782
30
0
0
VERTEX
8
RASTER
10
101.515
20
15.52
30
0
0
VERTEX
8
RASTER
10
101.35
20
15.491
30
0
0
VERTEX
8
RASTER
10
101.157
20
15.685
30
0
0
VERTEX
8
RASTER
10
101.38
20
16.431
30
0
0
VERTEX
8
RASTER
10
101.932
20
17.042
30
0
0
VERTEX
8
RASTER
10
102.514
20
16.848
30
0
0
VERTEX
8
RASTER
10
102.804
20
16.654
30
0
0
VERTEX
8
RASTER
10
103.066
20
16.625
30
0
0
VERTEX
8
RASTER
10
103.124
20
16.295
30
0
0
VERTEX
8
RASTER
10
103.386
20
16.363
30
0
0
VERTEX
8
RASTER
10
103.58
20
16.169
30
0
0
VERTEX
8
RASTER
10
104.094
20
16.237
30
0
0
VERTEX
8
RASTER
10
104.258
20
16.557
30
0
0
VERTEX
8
RASTER
10
103.774
20
16.848
30
0
0
VERTEX
8
RASTER
10
103.483
20
16.848
30
0
0
VERTEX
8
RASTER
10
103.192
20
17.042
30
0
0
SEQEND
8
RASTER
0
POLYLINE
8
RASTER
66
1
70
1
0
VERTEX
8
RASTER
10
110.947
20
16.848
30
0
0
VERTEX
8
RASTER
10
110.821
20
16.78
30
0
0
VERTEX
8
RASTER
10
110.559
20
16.169
30
0
0
VERTEX
8
RASTER
10
110.917
20
15.849
30
0
0
VERTEX
8
RASTER
10
111.14
20
15.782
30
0
0
VERTEX
8
RASTER
10
111.334
20
16.072
30
0
0
VERTEX
8
RASTER
10
111.431
20
16.46
30
0
0
VERTEX
8
RASTER
10
111.266
20
16.683
30
0
0
SEQEND
8
RASTER
0
POLYLINE
8
RASTER
66
1
70
1
0
VERTEX
8
RASTER
10
108.329
20
16.169
30
0
0
VERTEX
8
RASTER
10
108.136
20
16.072
30
0
0
VERTEX
8
RASTER
10
107.651
20
16.072
30
0
0
VERTEX
8
RASTER
10
106.682
20
15.782
30
0
0
VERTEX
8
RASTER
10
104.423
20
14.454
30
0
0
VERTEX
8
RASTER
10
103.357
20
13.484
30
0
0
VERTEX
8
RASTER
10
102.388
20
12.127
30
0
0
VERTEX
8
RASTER
10
101.544
20
10.353
30
0
0
VERTEX
8
RASTER
10
101.544
20
10.063
30
0
0
VERTEX
8
RASTER
10
101.35
20
9.578
30
0
0
VERTEX
8
RASTER
10
101.35
20
9.19
30
0
0
VERTEX
8
RASTER
10
101.157
20
8.512
30
0
0
VERTEX
8
RASTER
10
101.254
20
5.701
30
0
0
VERTEX
8
RASTER
10
101.515
20
5.09
30
0
0
VERTEX
8
RASTER
10
102.058
20
4.954
30
0
0
VERTEX
8
RASTER
10
103.289
20
5.022
30
0
0
VERTEX
8
RASTER
10
104.065
20
5.216
30
0
0
VERTEX
8
RASTER
10
105.034
20
5.216
30
0
0
VERTEX
8
RASTER
10
105.422
20
5.41
30
0
0
VERTEX
8
RASTER
10
105.712
20
5.41
30
0
0
VERTEX
8
RASTER
10
106.003
20
5.604
30
0
0
VERTEX
8
RASTER
10
106.197
20
5.604
30
0
0
VERTEX
8
RASTER
10
106.711
20
5.963
30
0
0
VERTEX
8
RASTER
10
106.808
20
6.156
30
0
0
VERTEX
8
RASTER
10
107.098
20
6.253
30
0
0
VERTEX
8
RASTER
10
107.234
20
6.505
30
0
0
VERTEX
8
RASTER
10
107.874
20
6.835
30
0
0
VERTEX
8
RASTER
10
108.397
20
7.281
30
0
0
VERTEX
8
RASTER
10
108.591
20
7.32
30
0
0
VERTEX
8
RASTER
10
108.426
20
7.058
30
0
0
VERTEX
8
RASTER
10
108.552
20
7.029
30
0
0
VERTEX
8
RASTER
10
109.425
20
7.901
30
0
0
VERTEX
8
RASTER
10
109.909
20
8.58
30
0
0
VERTEX
8
RASTER
10
110.171
20
9.481
30
0
0
VERTEX
8
RASTER
10
110.782
20
10.324
30
0
0
VERTEX
8
RASTER
10
110.947
20
10.741
30
0
0
VERTEX
8
RASTER
10
111.044
20
11.42
30
0
0
VERTEX
8
RASTER
10
111.431
20
12.68
30
0
0
VERTEX
8
RASTER
10
111.431
20
13.843
30
0
0
VERTEX
8
RASTER
10
111.17
20
14.648
30
0
0
VERTEX
8
RASTER
10
110.879
20
15.229
30
0
0
VERTEX
8
RASTER
10
110.588
20
15.52
30
0
0
VERTEX
8
RASTER
10
110.2
20
15.811
30
0
0
VERTEX
8
RASTER
10
109.299
20
16.169
30
0
0
VERTEX
8
RASTER
10
108.494
20
16.101
30
0
0
SEQEND
8
RASTER
0
POLYLINE
8
RASTER
66
1
70
1
0
VERTEX
8
RASTER
10
107.098
20
14.88
30
0
0
VERTEX
8
RASTER
10
107.331
20
14.841
30
0
0
VERTEX
8
RASTER
10
105.644
20
13.717
30
0
0
VERTEX
8
RASTER
10
105.548
20
13.523
30
0
0
VERTEX
8
RASTER
10
104.481
20
12.515
30
0
0
VERTEX
8
RASTER
10
104.452
20
12.68
30
0
0
VERTEX
8
RASTER
10
104.811
20
13.194
30
0
0
VERTEX
8
RASTER
10
105.392
20
13.581
30
0
0
VERTEX
8
RASTER
10
106.071
20
14.26
30
0
0
VERTEX
8
RASTER
10
107.04
20
14.744
30
0
0
SEQEND
8
RASTER
0
POLYLINE
8
RASTER
66
1
70
1
0
VERTEX
8
RASTER
10
108.843
20
12.748
30
0
0
VERTEX
8
RASTER
10
108.911
20
12.68
30
0
0
VERTEX
8
RASTER
10
108.649
20
12.263
30
0
0
VERTEX
8
RASTER
10
108.359
20
12.03
30
0
0
VERTEX
8
RASTER
10
108.397
20
12.224
30
0
0
SEQEND
8
RASTER
0
POLYLINE
8
RASTER
66
1
70
1
0
VERTEX
8
RASTER
10
110.685
20
12.748
30
0
0
VERTEX
8
RASTER
10
110.85
20
12.68
30
0
0
VERTEX
8
RASTER
10
110.656
20
12.195
30
0
0
VERTEX
8
RASTER
10
110.656
20
11.807
30
0
0
VERTEX
8
RASTER
10
110.2
20
10.712
30
0
0
VERTEX
8
RASTER
10
109.27
20
9.413
30
0
0
VERTEX
8
RASTER
10
108.746
20
8.929
30
0
0
VERTEX
8
RASTER
10
108.785
20
9.219
30
0
0
VERTEX
8
RASTER
10
109.328
20
9.937
30
0
0
VERTEX
8
RASTER
10
109.812
20
10.809
30
0
0
SEQEND
8
RASTER
0
POLYLINE
8
RASTER
66
1
70
1
0
VERTEX
8
RASTER
10
103.124
20
10.712
30
0
0
VERTEX
8
RASTER
10
102.252
20
8.832
30
0
0
VERTEX
8
RASTER
10
102.223
20
8.996
30
0
0
VERTEX
8
RASTER
10
102.417
20
9.578
30
0
0
VERTEX
8
RASTER
10
102.775
20
10.286
30
0
0
SEQEND
8
RASTER
0
POLYLINE
8
RASTER
66
1
70
1
0
VERTEX
8
RASTER
10
105.741
20
9.064
30
0
0
VERTEX
8
RASTER
10
105.809
20
8.996
30
0
0
VERTEX
8
RASTER
10
105.741
20
8.87
30
0
0
VERTEX
8
RASTER
10
105.451
20
8.483
30
0
0
VERTEX
8
RASTER
10
104.908
20
8.056
30
0
0
VERTEX
8
RASTER
10
104.772
20
7.804
30
0
0
VERTEX
8
RASTER
10
104.52
20
7.669
30
0
0
VERTEX
8
RASTER
10
103.9
20
7.029
30
0
0
VERTEX
8
RASTER
10
103.221
20
6.699
30
0
0
VERTEX
8
RASTER
10
103.357
20
6.99
30
0
0
VERTEX
8
RASTER
10
103.648
20
7.281
30
0
0
VERTEX
8
RASTER
10
103.9
20
7.416
30
0
0
VERTEX
8
RASTER
10
104.52
20
8.056
30
0
0
VERTEX
8
RASTER
10
104.772
20
8.192
30
0
0
VERTEX
8
RASTER
10
105.392
20
8.832
30
0
0
SEQEND
8
RASTER
0
POLYLINE
8
RASTER
66
1
70
1
0
VERTEX
8
RASTER
10
107.971
20
8.192
30
0
0
VERTEX
8
RASTER
10
108.039
20
8.124
30
0
0
VERTEX
8
RASTER
10
107.971
20
7.998
30
0
0
VERTEX
8
RASTER
10
107.68
20
7.61
30
0
0
VERTEX
8
RASTER
10
106.614
20
6.641
30
0
0
VERTEX
8
RASTER
10
104.937
20
5.798
30
0
0
VERTEX
8
RASTER
10
103.968
20
5.507
30
0
0
VERTEX
8
RASTER
10
103.803
20
5.536
30
0
0
VERTEX
8
RASTER
10
103.803
20
5.672
30
0
0
VERTEX
8
RASTER
10
104.229
20
5.924
30
0
0
VERTEX
8
RASTER
10
105.935
20
6.738
30
0
0
SEQEND
8
RASTER
0
POLYLINE
8
CUT
66
1
70
1
0
VERTEX
8
CUT
10
121.554
20
23.981
30
0
0
VERTEX
8
CUT
10
127.003
20
24.011
30
0
0
VERTEX
8
CUT
10
128.547
20
22.487
30
0
0
VERTEX
8
CUT
10
130.569
20
23.433
30
0
0
VERTEX
8
CUT
10
134.105
20
23.443
30
0
0
VERTEX
8
CUT
10
134.763
20
23.204
30
0
0
VERTEX
8
CUT
10
136.516
20
21.77
30
0
0
VERTEX
8
CUT
10
136.496
20
12.526
30
0
0
VERTEX
8
CUT
10
134.783
20
10.354
30
0
0
VERTEX
8
CUT
10
133.946
20
8.302
30
0
0
VERTEX
8
CUT
10
133.089
20
7.565
30
0
0
VERTEX
8
CUT
10
131.964
20
7.196
30
0
0
VERTEX
8
CUT
10
129.055
20
4.128
30
0
0
VERTEX
8
CUT
10
122.132
20
4.098
30
0
0
VERTEX
8
CUT
10
121.455
20
4.517
30
0
0
VERTEX
8
CUT
10
120.578
20
5.832
30
0
0
VERTEX
8
CUT
10
118.177
20
6.021
30
0
0
VERTEX
8
CUT
10
116.952
20
6.589
30
0
0
VERTEX
8
CUT
10
116.663
20
6.997
30
0
0
VERTEX
8
CUT
10
116.623
20
14.468
30
0
0
VERTEX
8
CUT
10
116.912
20
14.976
30
0
0
VERTEX
8
CUT
10
120.17
20
17.207
30
0
0
VERTEX
8
CUT
10
119.781
20
18.781
30
0
0
VERTEX
8
CUT
10
119.841
20
22.407
30
0
0
VERTEX
8
CUT
10
120.618
20
23.523
30
0
0
SEQEND
8
CUT
0
POLYLINE
8
RASTER
66
1
70
1
0
VERTEX
8
RASTER
10
124.094
20
22.935
30
0
0
VERTEX
8
RASTER
10
124.762
20
22.965
30
0
0
VERTEX
8
RASTER
10
125.489
20
22.597
30
0
0
VERTEX
8
RASTER
10
127.88
20
19.21
30
0
0
VERTEX
8
RASTER
10
131.008
20
21.302
30
0
0
VERTEX
8
RASTER
10
131.934
20
21.77
30
0
0
VERTEX
8
RASTER
10
132.731
20
21.77
30
0
0
VERTEX
8
RASTER
10
133.259
20
21.501
30
0
0
VERTEX
8
RASTER
10
133.458
20
21.302
30
0
0
VERTEX
8
RASTER
10
133.797
20
20.644
30
0
0
VERTEX
8
RASTER
10
134.424
20
20.574
30
0
0
VERTEX
8
RASTER
10
134.853
20
20.305
30
0
0
VERTEX
8
RASTER
10
135.221
20
19.578
30
0
0
VERTEX
8
RASTER
10
135.221
20
18.682
30
0
0
VERTEX
8
RASTER
10
135.052
20
18.253
30
0
0
VERTEX
8
RASTER
10
134.853
20
18.014
30
0
0
VERTEX
8
RASTER
10
135.55
20
17.715
30
0
0
VERTEX
8
RASTER
10
135.849
20
17.417
30
0
0
VERTEX
8
RASTER
10
136.217
20
16.49
30
0
0
VERTEX
8
RASTER
10
136.118
20
15.793
30
0
0
VERTEX
8
RASTER
10
135.649
20
14.966
30
0
0
VERTEX
8
RASTER
10
133
20
11.838
30
0
0
VERTEX
8
RASTER
10
132.93
20
11.111
30
0
0
VERTEX
8
RASTER
10
132.731
20
10.513
30
0
0
VERTEX
8
RASTER
10
132.462
20
10.085
30
0
0
VERTEX
8
RASTER
10
131.765
20
9.487
30
0
0
VERTEX
8
RASTER
10
130.41
20
8.95
30
0
0
VERTEX
8
RASTER
10
129.972
20
8.392
30
0
0
VERTEX
8
RASTER
10
129.414
20
7.854
30
0
0
VERTEX
8
RASTER
10
129.274
20
7.595
30
0
0
VERTEX
8
RASTER
10
128.517
20
6.858
30
0
0
VERTEX
8
RASTER
10
128.378
20
6.599
30
0
0
VERTEX
8
RASTER
10
127.282
20
5.503
30
0
0
VERTEX
8
RASTER
10
126.555
20
5.134
30
0
0
VERTEX
8
RASTER
10
125.16
20
5.134
30
0
0
VERTEX
8
RASTER
10
124.164
20
5.433
30
0
0
VERTEX
8
RASTER
10
123.337
20
5.901
30
0
0
VERTEX
8
RASTER
10
122.939
20
6.3
30
0
0
VERTEX
8
RASTER
10
122.57
20
6.927
30
0
0
VERTEX
8
RASTER
10
122.471
20
7.226
30
0
0
VERTEX
8
RASTER
10
122.441
20
8.392
30
0
0
VERTEX
8
RASTER
10
121.375
20
7.724
30
0
0
VERTEX
8
RASTER
10
120.678
20
7.525
30
0
0
VERTEX
8
RASTER
10
119.881
20
7.625
30
0
0
VERTEX
8
RASTER
10
118.755
20
8.093
30
0
0
VERTEX
8
RASTER
10
118.158
20
8.591
30
0
0
VERTEX
8
RASTER
10
117.659
20
9.189
30
0
0
VERTEX
8
RASTER
10
117.191
20
10.215
30
0
0
VERTEX
8
RASTER
10
117.191
20
10.713
30
0
0
VERTEX
8
RASTER
10
117.092
20
10.912
30
0
0
VERTEX
8
RASTER
10
117.291
20
12.008
30
0
0
VERTEX
8
RASTER
10
117.759
20
12.834
30
0
0
VERTEX
8
RASTER
10
123.537
20
16.52
30
0
0
VERTEX
8
RASTER
10
122.401
20
18.313
30
0
0
VERTEX
8
RASTER
10
121.843
20
19.05
30
0
0
VERTEX
8
RASTER
10
121.475
20
19.777
30
0
0
VERTEX
8
RASTER
10
121.375
20
20.475
30
0
0
VERTEX
8
RASTER
10
121.544
20
21.003
30
0
0
VERTEX
8
RASTER
10
121.943
20
21.6
30
0
0
VERTEX
8
RASTER
10
122.471
20
21.869
30
0
0
VERTEX
8
RASTER
10
123.039
20
21.899
30
0
0
VERTEX
8
RASTER
10
123.437
20
22.597
30
0
0
SEQEND
8
RASTER
0
POLYLINE
8
RASTER
66
1
70
1
0
VERTEX
8
RASTER
10
124.264
20
22.467
30
0
0
VERTEX
8
RASTER
10
123.736
20
22.198
30
0
0
VERTEX
8
RASTER
10
123.566
20
21.869
30
0
0
VERTEX
8
RASTER
10
123.636
20
21.441
30
0
0
VERTEX
8
RASTER
10
124.493
20
20.305
30
0
0
VERTEX
8
RASTER
10
125.927
20
18.154
30
0
0
VERTEX
8
RASTER
10
127.382
20
16.221
30
0
0
VERTEX
8
RASTER
10
128.218
20
14.867
30
0
0
VERTEX
8
RASTER
10
129.075
20
13.731
30
0
0
VERTEX
8
RASTER
10
129.812
20
12.575
30
0
0
VERTEX
8
RASTER
10
129.912
20
12.536
30
0
0
VERTEX
8
RASTER
10
130.31
20
13.133
30
0
0
VERTEX
8
RASTER
10
130.938
20
13.402
30
0
0
VERTEX
8
RASTER
10
131.506
20
13.432
30
0
0
VERTEX
8
RASTER
10
128.916
20
16.859
30
0
0
VERTEX
8
RASTER
10
125.29
20
22.098
30
0
0
VERTEX
8
RASTER
10
124.762
20
22.467
30
0
0
SEQEND
8
RASTER
0
POLYLINE
8
RASTER
66
1
70
1
0
VERTEX
8
RASTER
10
122.471
20
21.371
30
0
0
VERTEX
8
RASTER
10
122.142
20
21.202
30
0
0
VERTEX
8
RASTER
10
121.873
20
20.674
30
0
0
VERTEX
8
RASTER
10
121.873
20
20.076
30
0
0
VERTEX
8
RASTER
10
122.042
20
19.748
30
0
0
VERTEX
8
RASTER
10
125.589
20
14.528
30
0
0
VERTEX
8
RASTER
10
127.421
20
11.54
30
0
0
VERTEX
8
RASTER
10
127.82
20
12.237
30
0
0
VERTEX
8
RASTER
10
128.119
20
12.536
30
0
0
VERTEX
8
RASTER
10
129.115
20
12.934
30
0
0
VERTEX
8
RASTER
10
129.075
20
13.034
30
0
0
VERTEX
8
RASTER
10
126.923
20
15.863
30
0
0
VERTEX
8
RASTER
10
123.935
20
20.146
30
0
0
VERTEX
8
RASTER
10
123.796
20
20.106
30
0
0
VERTEX
8
RASTER
10
123.796
20
20.246
30
0
0
VERTEX
8
RASTER
10
123.596
20
20.007
30
0
0
VERTEX
8
RASTER
10
123.736
20
20.345
30
0
0
VERTEX
8
RASTER
10
123.537
20
20.206
30
0
0
VERTEX
8
RASTER
10
123.437
20
20.246
30
0
0
VERTEX
8
RASTER
10
122.839
20
20.943
30
0
0
VERTEX
8
RASTER
10
122.77
20
21.072
30
0
0
VERTEX
8
RASTER
10
122.869
20
21.172
30
0
0
VERTEX
8
RASTER
10
123.298
20
20.903
30
0
0
VERTEX
8
RASTER
10
123.298
20
21.003
30
0
0
VERTEX
8
RASTER
10
122.67
20
21.371
30
0
0
SEQEND
8
RASTER
0
POLYLINE
8
RASTER
66
1
70
1
0
VERTEX
8
RASTER
10
132.332
20
21.371
30
0
0
VERTEX
8
RASTER
10
131.934
20
21.272
30
0
0
VERTEX
8
RASTER
10
131.107
20
20.803
30
0
0
VERTEX
8
RASTER
10
128.318
20
18.911
30
0
0
VERTEX
8
RASTER
10
128.248
20
18.682
30
0
0
VERTEX
8
RASTER
10
128.517
20
18.253
30
0
0
VERTEX
8
RASTER
10
128.816
20
18.014
30
0
0
VERTEX
8
RASTER
10
129.613
20
18.612
30
0
0
VERTEX
8
RASTER
10
131.306
20
19.608
30
0
0
VERTEX
8
RASTER
10
131.436
20
19.678
30
0
0
VERTEX
8
RASTER
10
131.605
20
19.608
30
0
0
VERTEX
8
RASTER
10
131.705
20
19.748
30
0
0
VERTEX
8
RASTER
10
131.834
20
19.379
30
0
0
VERTEX
8
RASTER
10
133.06
20
20.146
30
0
0
VERTEX
8
RASTER
10
133.299
20
20.405
30
0
0
VERTEX
8
RASTER
10
133.159
20
20.803
30
0
0
VERTEX
8
RASTER
10
132.96
20
21.102
30
0
0
SEQEND
8
RASTER
0
POLYLINE
8
RASTER
66
1
70
1
0
VERTEX
8
RASTER
10
134.026
20
20.076
30
0
0
VERTEX
8
RASTER
10
133.099
20
19.608
30
0
0
VERTEX
8
RASTER
10
129.474
20
17.158
30
0
0
VERTEX
8
RASTER
10
129.513
20
16.859
30
0
0
VERTEX
8
RASTER
10
130.509
20
15.564
30
0
0
VERTEX
8
RASTER
10
130.669
20
15.564
30
0
0
VERTEX
8
RASTER
10
131.864
20
16.46
30
0
0
VERTEX
8
RASTER
10
131.934
20
16.59
30
0
0
VERTEX
8
RASTER
10
131.864
20
16.66
30
0
0
VERTEX
8
RASTER
10
131.466
20
16.321
30
0
0
VERTEX
8
RASTER
10
131.605
20
16.66
30
0
0
VERTEX
8
RASTER
10
131.366
20
16.52
30
0
0
VERTEX
8
RASTER
10
131.406
20
16.759
30
0
0
VERTEX
8
RASTER
10
130.968
20
16.719
30
0
0
VERTEX
8
RASTER
10
131.107
20
17.018
30
0
0
VERTEX
8
RASTER
10
131.506
20
17.317
30
0
0
VERTEX
8
RASTER
10
132.86
20
18.154
30
0
0
VERTEX
8
RASTER
10
132.96
20
18.114
30
0
0
VERTEX
8
RASTER
10
133.03
20
17.885
30
0
0
VERTEX
8
RASTER
10
133.398
20
17.955
30
0
0
VERTEX
8
RASTER
10
133.329
20
17.686
30
0
0
VERTEX
8
RASTER
10
133.398
20
17.616
30
0
0
VERTEX
8
RASTER
10
134.594
20
18.413
30
0
0
VERTEX
8
RASTER
10
134.723
20
18.682
30
0
0
VERTEX
8
RASTER
10
134.723
20
19.479
30
0
0
VERTEX
8
RASTER
10
134.454
20
20.007
30
0
0
SEQEND
8
RASTER
0
POLYLINE
8
RASTER
66
1
70
1
0
VERTEX
8
RASTER
10
134.623
20
17.486
30
0
0
VERTEX
8
RASTER
10
131.535
20
14.299
30
0
0
VERTEX
8
RASTER
10
131.904
20
13.671
30
0
0
VERTEX
8
RASTER
10
132.83
20
12.506
30
0
0
VERTEX
8
RASTER
10
133.159
20
12.775
30
0
0
VERTEX
8
RASTER
10
133.299
20
13.034
30
0
0
VERTEX
8
RASTER
10
133.757
20
13.472
30
0
0
VERTEX
8
RASTER
10
133.896
20
13.731
30
0
0
VERTEX
8
RASTER
10
134.922
20
14.896
30
0
0
VERTEX
8
RASTER
10
134.853
20
14.966
30
0
0
VERTEX
8
RASTER
10
134.753
20
14.767
30
0
0
VERTEX
8
RASTER
10
134.096
20
14.129
30
0
0
VERTEX
8
RASTER
10
133.856
20
14.129
30
0
0
VERTEX
8
RASTER
10
134.096
20
14.468
30
0
0
VERTEX
8
RASTER
10
133.757
20
14.329
30
0
0
VERTEX
8
RASTER
10
133.797
20
14.568
30
0
0
VERTEX
8
RASTER
10
133.558
20
14.528
30
0
0
VERTEX
8
RASTER
10
133.757
20
14.867
30
0
0
VERTEX
8
RASTER
10
134.554
20
15.663
30
0
0
VERTEX
8
RASTER
10
134.653
20
15.424
30
0
0
VERTEX
8
RASTER
10
134.753
20
15.564
30
0
0
VERTEX
8
RASTER
10
134.853
20
15.424
30
0
0
VERTEX
8
RASTER
10
135.191
20
15.464
30
0
0
VERTEX
8
RASTER
10
135.022
20
15.195
30
0
0
VERTEX
8
RASTER
10
135.151
20
15.165
30
0
0
VERTEX
8
RASTER
10
135.62
20
15.893
30
0
0
VERTEX
8
RASTER
10
135.719
20
16.391
30
0
0
VERTEX
8
RASTER
10
135.45
20
17.118
30
0
0
VERTEX
8
RASTER
10
135.022
20
17.486
30
0
0
SEQEND
8
RASTER
0
POLYLINE
8
RASTER
66
1
70
1
0
VERTEX
8
RASTER
10
123.168
20
15.693
30
0
0
VERTEX
8
RASTER
10
120.648
20
14.129
30
0
0
VERTEX
8
RASTER
10
119.452
20
13.333
30
0
0
VERTEX
8
RASTER
10
119.413
20
13.233
30
0
0
VERTEX
8
RASTER
10
120.11
20
12.934
30
0
0
VERTEX
8
RASTER
10
120.648
20
12.376
30
0
0
VERTEX
8
RASTER
10
120.807
20
12.376
30
0
0
VERTEX
8
RASTER
10
123.796
20
14.568
30
0
0
VERTEX
8
RASTER
10
123.865
20
14.797
30
0
0
VERTEX
8
RASTER
10
123.596
20
15.325
30
0
0
VERTEX
8
RASTER
10
123.397
20
15.624
30
0
0
SEQEND
8
RASTER
0
POLYLINE
8
RASTER
66
1
70
1
0
VERTEX
8
RASTER
10
131.037
20
15.096
30
0
0
VERTEX
8
RASTER
10
130.938
20
14.996
30
0
0
VERTEX
8
RASTER
10
131.008
20
14.867
30
0
0
VERTEX
8
RASTER
10
131.237
20
14.697
30
0
0
VERTEX
8
RASTER
10
131.605
20
15.026
30
0
0
VERTEX
8
RASTER
10
131.267
20
14.827
30
0
0
VERTEX
8
RASTER
10
131.067
20
14.926
30
0
0
SEQEND
8
RASTER
0
POLYLINE
8
RASTER
66
1
70
1
0
VERTEX
8
RASTER
10
124.632
20
13.671
30
0
0
VERTEX
8
RASTER
10
124.333
20
13.532
30
0
0
VERTEX
8
RASTER
10
121.375
20
11.41
30
0
0
VERTEX
8
RASTER
10
122.003
20
11.041
30
0
0
VERTEX
8
RASTER
10
122.401
20
10.543
30
0
0
VERTEX
8
RASTER
10
122.57
20
10.115
30
0
0
VERTEX
8
RASTER
10
122.6
20
9.348
30
0
0
VERTEX
8
RASTER
10
124.194
20
10.583
30
0
0
VERTEX
8
RASTER
10
125.23
20
11.54
30
0
0
VERTEX
8
RASTER
10
125.26
20
12.307
30
0
0
VERTEX
8
RASTER
10
125.16
20
12.805
30
0
0
VERTEX
8
RASTER
10
124.891
20
13.432
30
0
0
SEQEND
8
RASTER
0
POLYLINE
8
RASTER
66
1
70
1
0
VERTEX
8
RASTER
10
130.938
20
13.004
30
0
0
VERTEX
8
RASTER
10
130.609
20
12.834
30
0
0
VERTEX
8
RASTER
10
130.31
20
12.536
30
0
0
VERTEX
8
RASTER
10
130.241
20
11.908
30
0
0
VERTEX
8
RASTER
10
130.509
20
11.579
30
0
0
VERTEX
8
RASTER
10
130.938
20
11.51
30
0
0
VERTEX
8
RASTER
10
130.968
20
11.639
30
0
0
VERTEX
8
RASTER
10
130.639
20
12.008
30
0
0
VERTEX
8
RASTER
10
130.639
20
12.207
30
0
0
VERTEX
8
RASTER
10
130.808
20
12.436
30
0
0
VERTEX
8
RASTER
10
131.237
20
12.605
30
0
0
VERTEX
8
RASTER
10
131.765
20
12.336
30
0
0
VERTEX
8
RASTER
10
132.034
20
11.808
30
0
0
VERTEX
8
RASTER
10
132.034
20
11.31
30
0
0
VERTEX
8
RASTER
10
131.864
20
10.882
30
0
0
VERTEX
8
RASTER
10
131.565
20
10.484
30
0
0
VERTEX
8
RASTER
10
130.838
20
10.015
30
0
0
VERTEX
8
RASTER
10
130.141
20
9.816
30
0
0
VERTEX
8
RASTER
10
129.444
20
9.916
30
0
0
VERTEX
8
RASTER
10
128.816
20
10.185
30
0
0
VERTEX
8
RASTER
10
128.517
20
10.484
30
0
0
VERTEX
8
RASTER
10
128.248
20
11.111
30
0
0
VERTEX
8
RASTER
10
128.418
20
11.639
30
0
0
VERTEX
8
RASTER
10
128.746
20
11.908
30
0
0
VERTEX
8
RASTER
10
129.274
20
11.838
30
0
0
VERTEX
8
RASTER
10
129.344
20
11.41
30
0
0
VERTEX
8
RASTER
10
129.145
20
11.111
30
0
0
VERTEX
8
RASTER
10
129.244
20
11.012
30
0
0
VERTEX
8
RASTER
10
129.474
20
11.081
30
0
0
VERTEX
8
RASTER
10
129.742
20
11.41
30
0
0
VERTEX
8
RASTER
10
129.673
20
12.137
30
0
0
VERTEX
8
RASTER
10
129.314
20
12.476
30
0
0
VERTEX
8
RASTER
10
128.946
20
12.506
30
0
0
VERTEX
8
RASTER
10
128.218
20
12.137
30
0
0
VERTEX
8
RASTER
10
127.85
20
11.51
30
0
0
VERTEX
8
RASTER
10
127.85
20
10.812
30
0
0
VERTEX
8
RASTER
10
128.119
20
10.284
30
0
0
VERTEX
8
RASTER
10
128.418
20
9.986
30
0
0
VERTEX
8
RASTER
10
129.444
20
9.517
30
0
0
VERTEX
8
RASTER
10
130.44
20
9.517
30
0
0
VERTEX
8
RASTER
10
130.838
20
9.617
30
0
0
VERTEX
8
RASTER
10
131.765
20
10.085
30
0
0
VERTEX
8
RASTER
10
132.063
20
10.384
30
0
0
VERTEX
8
RASTER
10
132.432
20
11.111
30
0
0
VERTEX
8
RASTER
10
132.432
20
11.908
30
0
0
VERTEX
8
RASTER
10
132.163
20
12.436
30
0
0
VERTEX
8
RASTER
10
131.765
20
12.834
30
0
0
VERTEX
8
RASTER
10
131.436
20
13.004
30
0
0
SEQEND
8
RASTER
0
POLYLINE
8
RASTER
66
1
70
1
0
VERTEX
8
RASTER
10
119.084
20
12.904
30
0
0
VERTEX
8
RASTER
10
118.217
20
12.575
30
0
0
VERTEX
8
RASTER
10
117.958
20
12.336
30
0
0
VERTEX
8
RASTER
10
117.59
20
11.41
30
0
0
VERTEX
8
RASTER
10
117.59
20
10.613
30
0
0
VERTEX
8
RASTER
10
117.689
20
10.215
30
0
0
VERTEX
8
RASTER
10
118.158
20
9.288
30
0
0
VERTEX
8
RASTER
10
118.855
20
8.591
30
0
0
VERTEX
8
RASTER
10
119.582
20
8.222
30
0
0
VERTEX
8
RASTER
10
120.279
20
8.023
30
0
0
VERTEX
8
RASTER
10
121.176
20
8.123
30
0
0
VERTEX
8
RASTER
10
121.803
20
8.491
30
0
0
VERTEX
8
RASTER
10
122.172
20
9.219
30
0
0
VERTEX
8
RASTER
10
122.172
20
10.115
30
0
0
VERTEX
8
RASTER
10
122.003
20
10.543
30
0
0
VERTEX
8
RASTER
10
121.604
20
10.942
30
0
0
VERTEX
8
RASTER
10
120.777
20
11.012
30
0
0
VERTEX
8
RASTER
10
120.449
20
10.743
30
0
0
VERTEX
8
RASTER
10
120.279
20
10.414
30
0
0
VERTEX
8
RASTER
10
120.279
20
9.916
30
0
0
VERTEX
8
RASTER
10
120.409
20
9.647
30
0
0
VERTEX
8
RASTER
10
120.548
20
9.647
30
0
0
VERTEX
8
RASTER
10
120.747
20
10.245
30
0
0
VERTEX
8
RASTER
10
121.076
20
10.414
30
0
0
VERTEX
8
RASTER
10
121.504
20
10.145
30
0
0
VERTEX
8
RASTER
10
121.644
20
9.687
30
0
0
VERTEX
8
RASTER
10
121.405
20
8.989
30
0
0
VERTEX
8
RASTER
10
121.206
20
8.79
30
0
0
VERTEX
8
RASTER
10
120.578
20
8.521
30
0
0
VERTEX
8
RASTER
10
120.08
20
8.521
30
0
0
VERTEX
8
RASTER
10
119.253
20
8.89
30
0
0
VERTEX
8
RASTER
10
118.556
20
9.487
30
0
0
VERTEX
8
RASTER
10
118.187
20
10.115
30
0
0
VERTEX
8
RASTER
10
117.988
20
10.713
30
0
0
VERTEX
8
RASTER
10
117.988
20
11.111
30
0
0
VERTEX
8
RASTER
10
118.257
20
11.838
30
0
0
VERTEX
8
RASTER
10
118.556
20
12.137
30
0
0
VERTEX
8
RASTER
10
118.885
20
12.307
30
0
0
VERTEX
8
RASTER
10
119.383
20
12.307
30
0
0
VERTEX
8
RASTER
10
119.711
20
12.137
30
0
0
VERTEX
8
RASTER
10
119.881
20
11.808
30
0
0
VERTEX
8
RASTER
10
119.881
20
11.41
30
0
0
VERTEX
8
RASTER
10
119.751
20
11.141
30
0
0
VERTEX
8
RASTER
10
119.313
20
10.982
30
0
0
VERTEX
8
RASTER
10
119.353
20
10.782
30
0
0
VERTEX
8
RASTER
10
119.482
20
10.713
30
0
0
VERTEX
8
RASTER
10
119.881
20
10.713
30
0
0
VERTEX
8
RASTER
10
120.249
20
10.942
30
0
0
VERTEX
8
RASTER
10
120.578
20
11.609
30
0
0
VERTEX
8
RASTER
10
120.578
20
11.808
30
0
0
VERTEX
8
RASTER
10
120.309
20
12.336
30
0
0
VERTEX
8
RASTER
10
120.11
20
12.536
30
0
0
VERTEX
8
RASTER
10
119.582
20
12.805
30
0
0
SEQEND
8
RASTER
0
POLYLINE
8
RASTER
66
1
70
1
0
VERTEX
8
RASTER
10
124.294
20
11.878
30
0
0
VERTEX
8
RASTER
10
124.433
20
11.878
30
0
0
VERTEX
8
RASTER
10
124.393
20
11.739
30
0
0
VERTEX
8
RASTER
10
124.592
20
11.54
30
0
0
VERTEX
8
RASTER
10
124.692
20
11.679
30
0
0
VERTEX
8
RASTER
10
124.832
20
11.679
30
0
0
VERTEX
8
RASTER
10
124.632
20
11.241
30
0
0
VERTEX
8
RASTER
10
124.463
20
11.31
30
0
0
VERTEX
8
RASTER
10
124.234
20
11.141
30
0
0
VERTEX
8
RASTER
10
123.995
20
11.141
30
0
0
VERTEX
8
RASTER
10
124.035
20
11.38
30
0
0
VERTEX
8
RASTER
10
123.835
20
11.241
30
0
0
VERTEX
8
RASTER
10
123.596
20
11.241
30
0
0
VERTEX
8
RASTER
10
123.835
20
11.54
30
0
0
SEQEND
8
RASTER
0
POLYLINE
8
RASTER
66
1
70
1
0
VERTEX
8
RASTER
10
125.927
20
11.38
30
0
0
VERTEX
8
RASTER
10
125.23
20
10.842
30
0
0
VERTEX
8
RASTER
10
124.592
20
10.185
30
0
0
VERTEX
8
RASTER
10
124.333
20
10.045
30
0
0
VERTEX
8
RASTER
10
123.995
20
9.647
30
0
0
VERTEX
8
RASTER
10
124.463
20
9.517
30
0
0
VERTEX
8
RASTER
10
125.031
20
9.149
30
0
0
VERTEX
8
RASTER
10
125.13
20
9.348
30
0
0
VERTEX
8
RASTER
10
126.127
20
10.344
30
0
0
VERTEX
8
RASTER
10
126.425
20
10.384
30
0
0
VERTEX
8
RASTER
10
126.525
20
10.245
30
0
0
VERTEX
8
RASTER
10
126.455
20
10.713
30
0
0
VERTEX
8
RASTER
10
126.286
20
11.041
30
0
0
SEQEND
8
RASTER
0
POLYLINE
8
RASTER
66
1
70
1
0
VERTEX
8
RASTER
10
127.023
20
10.085
30
0
0
VERTEX
8
RASTER
10
126.087
20
9.149
30
0
0
VERTEX
8
RASTER
10
127.083
20
8.75
30
0
0
VERTEX
8
RASTER
10
127.581
20
8.153
30
0
0
VERTEX
8
RASTER
10
127.75
20
7.625
30
0
0
VERTEX
8
RASTER
10
127.92
20
7.455
30
0
0
VERTEX
8
RASTER
10
128.049
20
8.621
30
0
0
VERTEX
8
RASTER
10
127.85
20
9.219
30
0
0
VERTEX
8
RASTER
10
127.581
20
9.647
30
0
0
SEQEND
8
RASTER
0
POLYLINE
8
RASTER
66
1
70
1
0
VERTEX
8
RASTER
10
123.666
20
9.219
30
0
0
VERTEX
8
RASTER
10
123.138
20
8.85
30
0
0
VERTEX
8
RASTER
10
122.869
20
8.322
30
0
0
VERTEX
8
RASTER
10
122.869
20
7.525
30
0
0
VERTEX
8
RASTER
10
123.138
20
6.898
30
0
0
VERTEX
8
RASTER
10
123.835
20
6.2
30
0
0
VERTEX
8
RASTER
10
124.861
20
5.732
30
0
0
VERTEX
8
RASTER
10
125.887
20
5.563
30
0
0
VERTEX
8
RASTER
10
126.455
20
5.632
30
0
0
VERTEX
8
RASTER
10
126.983
20
5.901
30
0
0
VERTEX
8
RASTER
10
127.182
20
6.101
30
0
0
VERTEX
8
RASTER
10
127.451
20
6.629
30
0
0
VERTEX
8
RASTER
10
127.451
20
7.625
30
0
0
VERTEX
8
RASTER
10
127.182
20
8.153
30
0
0
VERTEX
8
RASTER
10
126.884
20
8.452
30
0
0
VERTEX
8
RASTER
10
126.356
20
8.72
30
0
0
VERTEX
8
RASTER
10
125.858
20
8.72
30
0
0
VERTEX
8
RASTER
10
125.389
20
8.491
30
0
0
VERTEX
8
RASTER
10
125.16
20
8.023
30
0
0
VERTEX
8
RASTER
10
125.16
20
7.724
30
0
0
VERTEX
8
RASTER
10
125.429
20
7.296
30
0
0
VERTEX
8
RASTER
10
125.728
20
7.157
30
0
0
VERTEX
8
RASTER
10
125.828
20
7.296
30
0
0
VERTEX
8
RASTER
10
125.559
20
7.625
30
0
0
VERTEX
8
RASTER
10
125.628
20
7.953
30
0
0
VERTEX
8
RASTER
10
125.858
20
8.123
30
0
0
VERTEX
8
RASTER
10
126.386
20
8.053
30
0
0
VERTEX
8
RASTER
10
126.585
20
7.854
30
0
0
VERTEX
8
RASTER
10
126.854
20
7.226
30
0
0
VERTEX
8
RASTER
10
126.854
20
6.927
30
0
0
VERTEX
8
RASTER
10
126.525
20
6.36
30
0
0
VERTEX
8
RASTER
10
125.758
20
6.031
30
0
0
VERTEX
8
RASTER
10
125.061
20
6.031
30
0
0
VERTEX
8
RASTER
10
124.333
20
6.3
30
0
0
VERTEX
8
RASTER
10
123.736
20
6.698
30
0
0
VERTEX
8
RASTER
10
123.537
20
6.898
30
0
0
VERTEX
8
RASTER
10
123.268
20
7.425
30
0
0
VERTEX
8
RASTER
10
123.198
20
7.794
30
0
0
VERTEX
8
RASTER
10
123.337
20
8.352
30
0
0
VERTEX
8
RASTER
10
123.865
20
8.72
30
0
0
VERTEX
8
RASTER
10
124.393
20
8.551
30
0
0
VERTEX
8
RASTER
10
124.563
20
8.322
30
0
0
VERTEX
8
RASTER
10
124.563
20
8.023
30
0
0
VERTEX
8
RASTER
10
124.194
20
7.655
30
0
0
VERTEX
8
RASTER
10
124.463
20
7.525
30
0
0
VERTEX
8
RASTER
10
124.592
20
7.595
30
0
0
VERTEX
8
RASTER
10
124.762
20
7.924
30
0
0
VERTEX
8
RASTER
10
124.762
20
8.222
30
0
0
VERTEX
8
RASTER
10
124.931
20
8.691
30
0
0
VERTEX
8
RASTER
10
124.792
20
8.95
30
0
0
VERTEX
8
RASTER
10
124.463
20
9.219
30
0
0
SEQEND
8
RASTER
0
POLYLINE
8
CUT
66
1
70
1
0
VERTEX
8
CUT
10
154.833
20
24.011
30
0
0
VERTEX
8
CUT
10
157.91
20
23.915
30
0
0
VERTEX
8
CUT
10
158.516
20
23.246
30
0
0
VERTEX
8
CUT
10
158.707
20
21.364
30
0
0
VERTEX
8
CUT
10
160.246
20
21.149
30
0
0
VERTEX
8
CUT
10
160.517
20
20.782
30
0
0
VERTEX
8
CUT
10
160.485
20
17.163
30
0
0
VERTEX
8
CUT
10
159.425
20
16.709
30
0
0
VERTEX
8
CUT
10
159.082
20
14.023
30
0
0
VERTEX
8
CUT
10
158.213
20
12.819
30
0
0
VERTEX
8
CUT
10
156.722
20
11.519
30
0
0
VERTEX
8
CUT
10
156.699
20
8.036
30
0
0
VERTEX
8
CUT
10
156.443
20
6.856
30
0
0
VERTEX
8
CUT
10
155.822
20
6.601
30
0
0
VERTEX
8
CUT
10
152.912
20
6.641
30
0
0
VERTEX
8
CUT
10
149.963
20
7.685
30
0
0
VERTEX
8
CUT
10
148.312
20
7.095
30
0
0
VERTEX
8
CUT
10
146.479
20
6.856
30
0
0
VERTEX
8
CUT
10
146.088
20
5.971
30
0
0
VERTEX
8
CUT
10
145.738
20
5.764
30
0
0
VERTEX
8
CUT
10
142.668
20
5.883
30
0
0
VERTEX
8
CUT
10
142.397
20
6.33
30
0
0
VERTEX
8
CUT
10
142.254
20
7.781
30
0
0
VERTEX
8
CUT
10
140.811
20
8.012
30
0
0
VERTEX
8
CUT
10
140.516
20
8.514
30
0
0
VERTEX
8
CUT
10
140.524
20
14.485
30
0
0
VERTEX
8
CUT
10
140.851
20
14.875
30
0
0
VERTEX
8
CUT
10
142.366
20
15.011
30
0
0
VERTEX
8
CUT
10
142.19
20
16.007
30
0
0
VERTEX
8
CUT
10
142.334
20
18.734
30
0
0
VERTEX
8
CUT
10
144.04
20
19.499
30
0
0
VERTEX
8
CUT
10
147.117
20
19.77
30
0
0
VERTEX
8
CUT
10
148.073
20
21.843
30
0
0
VERTEX
8
CUT
10
149.771
20
23.493
30
0
0
VERTEX
8
CUT
10
152.673
20
23.541
30
0
0
VERTEX
8
CUT
10
153.988
20
22.249
30
0
0
VERTEX
8
CUT
10
154.164
20
23.644
30
0
0
SEQEND
8
CUT
0
POLYLINE
8
RASTER
66
1
70
1
0
VERTEX
8
RASTER
10
156.005
20
22.68
30
0
0
VERTEX
8
RASTER
10
156.459
20
22.704
30
0
0
VERTEX
8
RASTER
10
156.722
20
22.568
30
0
0
VERTEX
8
RASTER
10
157.041
20
22.329
30
0
0
VERTEX
8
RASTER
10
157.257
20
21.906
30
0
0
VERTEX
8
RASTER
10
157.257
20
21.189
30
0
0
VERTEX
8
RASTER
10
157.177
20
20.87
30
0
0
VERTEX
8
RASTER
10
156.722
20
19.89
30
0
0
VERTEX
8
RASTER
10
156.164
20
18.981
30
0
0
VERTEX
8
RASTER
10
157.815
20
19.674
30
0
0
VERTEX
8
RASTER
10
158.851
20
19.914
30
0
0
VERTEX
8
RASTER
10
159.489
20
19.834
30
0
0
VERTEX
8
RASTER
10
159.911
20
19.619
30
0
0
VERTEX
8
RASTER
10
160.071
20
19.459
30
0
0
VERTEX
8
RASTER
10
160.206
20
19.116
30
0
0
VERTEX
8
RASTER
10
160.071
20
18.614
30
0
0
VERTEX
8
RASTER
10
159.752
20
18.216
30
0
0
VERTEX
8
RASTER
10
159.648
20
18.16
30
0
0
VERTEX
8
RASTER
10
159.226
20
18.216
30
0
0
VERTEX
8
RASTER
10
159.17
20
18.718
30
0
0
VERTEX
8
RASTER
10
159.01
20
18.798
30
0
0
VERTEX
8
RASTER
10
157.95
20
18.263
30
0
0
VERTEX
8
RASTER
10
156.404
20
17.179
30
0
0
VERTEX
8
RASTER
10
156.483
20
17.068
30
0
0
VERTEX
8
RASTER
10
156.619
20
17.123
30
0
0
VERTEX
8
RASTER
10
156.858
20
17.044
30
0
0
VERTEX
8
RASTER
10
157.599
20
16.669
30
0
0
VERTEX
8
RASTER
10
157.998
20
16.35
30
0
0
VERTEX
8
RASTER
10
158.054
20
16.007
30
0
0
VERTEX
8
RASTER
10
157.894
20
15.609
30
0
0
VERTEX
8
RASTER
10
157.599
20
15.027
30
0
0
VERTEX
8
RASTER
10
157.201
20
14.469
30
0
0
VERTEX
8
RASTER
10
156.404
20
13.672
30
0
0
VERTEX
8
RASTER
10
155.662
20
13.217
30
0
0
VERTEX
8
RASTER
10
155.025
20
12.978
30
0
0
VERTEX
8
RASTER
10
154.387
20
12.899
30
0
0
VERTEX
8
RASTER
10
154.307
20
12.819
30
0
0
VERTEX
8
RASTER
10
154.65
20
12.444
30
0
0
VERTEX
8
RASTER
10
155.025
20
11.703
30
0
0
VERTEX
8
RASTER
10
155.343
20
10.427
30
0
0
VERTEX
8
RASTER
10
155.343
20
8.913
30
0
0
VERTEX
8
RASTER
10
155.048
20
8.012
30
0
0
VERTEX
8
RASTER
10
154.785
20
7.876
30
0
0
VERTEX
8
RASTER
10
154.148
20
7.956
30
0
0
VERTEX
8
RASTER
10
152.474
20
8.434
30
0
0
VERTEX
8
RASTER
10
151.732
20
8.809
30
0
0
VERTEX
8
RASTER
10
150.776
20
9.686
30
0
0
VERTEX
8
RASTER
10
150.481
20
10.188
30
0
0
VERTEX
8
RASTER
10
150.265
20
10.802
30
0
0
VERTEX
8
RASTER
10
149.548
20
9.686
30
0
0
VERTEX
8
RASTER
10
148.751
20
9.128
30
0
0
VERTEX
8
RASTER
10
147.85
20
8.674
30
0
0
VERTEX
8
RASTER
10
146.256
20
8.275
30
0
0
VERTEX
8
RASTER
10
145.777
20
8.275
30
0
0
VERTEX
8
RASTER
10
145.403
20
8.65
30
0
0
VERTEX
8
RASTER
10
145.036
20
8.299
30
0
0
VERTEX
8
RASTER
10
144.821
20
7.956
30
0
0
VERTEX
8
RASTER
10
144.901
20
7.637
30
0
0
VERTEX
8
RASTER
10
144.845
20
7.294
30
0
0
VERTEX
8
RASTER
10
144.422
20
6.999
30
0
0
VERTEX
8
RASTER
10
144
20
7.135
30
0
0
VERTEX
8
RASTER
10
143.705
20
7.558
30
0
0
VERTEX
8
RASTER
10
143.705
20
8.116
30
0
0
VERTEX
8
RASTER
10
143.864
20
8.594
30
0
0
VERTEX
8
RASTER
10
144.398
20
9.495
30
0
0
VERTEX
8
RASTER
10
145.084
20
10.244
30
0
0
VERTEX
8
RASTER
10
145.275
20
10.563
30
0
0
VERTEX
8
RASTER
10
145.116
20
10.531
30
0
0
VERTEX
8
RASTER
10
144.207
20
9.925
30
0
0
VERTEX
8
RASTER
10
143.466
20
9.55
30
0
0
VERTEX
8
RASTER
10
142.668
20
9.311
30
0
0
VERTEX
8
RASTER
10
141.951
20
9.311
30
0
0
VERTEX
8
RASTER
10
141.449
20
9.527
30
0
0
VERTEX
8
RASTER
10
141.13
20
9.925
30
0
0
VERTEX
8
RASTER
10
140.994
20
10.348
30
0
0
VERTEX
8
RASTER
10
141.13
20
10.85
30
0
0
VERTEX
8
RASTER
10
141.257
20
11.041
30
0
0
VERTEX
8
RASTER
10
141.473
20
11.145
30
0
0
VERTEX
8
RASTER
10
141.712
20
11.224
30
0
0
VERTEX
8
RASTER
10
141.975
20
11.089
30
0
0
VERTEX
8
RASTER
10
142.246
20
10.563
30
0
0
VERTEX
8
RASTER
10
142.35
20
10.507
30
0
0
VERTEX
8
RASTER
10
143.33
20
11.121
30
0
0
VERTEX
8
RASTER
10
144.398
20
11.966
30
0
0
VERTEX
8
RASTER
10
143.944
20
11.862
30
0
0
VERTEX
8
RASTER
10
143.545
20
11.862
30
0
0
VERTEX
8
RASTER
10
143.386
20
11.782
30
0
0
VERTEX
8
RASTER
10
142.19
20
11.782
30
0
0
VERTEX
8
RASTER
10
141.289
20
12.157
30
0
0
VERTEX
8
RASTER
10
140.994
20
12.659
30
0
0
VERTEX
8
RASTER
10
140.994
20
13.058
30
0
0
VERTEX
8
RASTER
10
141.13
20
13.321
30
0
0
VERTEX
8
RASTER
10
141.369
20
13.56
30
0
0
VERTEX
8
RASTER
10
141.632
20
13.616
30
0
0
VERTEX
8
RASTER
10
141.895
20
13.48
30
0
0
VERTEX
8
RASTER
10
142.087
20
13.034
30
0
0
VERTEX
8
RASTER
10
142.19
20
12.978
30
0
0
VERTEX
8
RASTER
10
142.589
20
12.978
30
0
0
VERTEX
8
RASTER
10
143.784
20
13.297
30
0
0
VERTEX
8
RASTER
10
145.219
20
13.855
30
0
0
VERTEX
8
RASTER
10
145.618
20
14.094
30
0
0
VERTEX
8
RASTER
10
145.195
20
14.389
30
0
0
VERTEX
8
RASTER
10
144.558
20
15.027
30
0
0
VERTEX
8
RASTER
10
144.159
20
15.585
30
0
0
VERTEX
8
RASTER
10
143.864
20
16.087
30
0
0
VERTEX
8
RASTER
10
143.545
20
16.884
30
0
0
VERTEX
8
RASTER
10
143.601
20
17.387
30
0
0
VERTEX
8
RASTER
10
144
20
17.705
30
0
0
VERTEX
8
RASTER
10
144.502
20
17.921
30
0
0
VERTEX
8
RASTER
10
145.219
20
18.16
30
0
0
VERTEX
8
RASTER
10
146.017
20
18.319
30
0
0
VERTEX
8
RASTER
10
147.133
20
18.319
30
0
0
VERTEX
8
RASTER
10
147.93
20
18.08
30
0
0
VERTEX
8
RASTER
10
148.703
20
17.705
30
0
0
VERTEX
8
RASTER
10
148.647
20
18.798
30
0
0
VERTEX
8
RASTER
10
148.886
20
19.595
30
0
0
VERTEX
8
RASTER
10
149.261
20
20.336
30
0
0
VERTEX
8
RASTER
10
149.58
20
20.814
30
0
0
VERTEX
8
RASTER
10
150.457
20
21.771
30
0
0
VERTEX
8
RASTER
10
151.278
20
22.305
30
0
0
VERTEX
8
RASTER
10
151.621
20
22.17
30
0
0
VERTEX
8
RASTER
10
151.939
20
21.851
30
0
0
VERTEX
8
RASTER
10
152.737
20
20.735
30
0
0
VERTEX
8
RASTER
10
153.271
20
19.515
30
0
0
VERTEX
8
RASTER
10
153.35
20
19.196
30
0
0
VERTEX
8
RASTER
10
153.35
20
18.558
30
0
0
VERTEX
8
RASTER
10
153.43
20
18.479
30
0
0
VERTEX
8
RASTER
10
155.288
20
20.288
30
0
0
VERTEX
8
RASTER
10
155.925
20
21.165
30
0
0
VERTEX
8
RASTER
10
156.141
20
21.588
30
0
0
VERTEX
8
RASTER
10
156.117
20
21.723
30
0
0
VERTEX
8
RASTER
10
155.981
20
21.747
30
0
0
VERTEX
8
RASTER
10
155.822
20
21.667
30
0
0
VERTEX
8
RASTER
10
155.479
20
21.723
30
0
0
VERTEX
8
RASTER
10
155.343
20
21.906
30
0
0
VERTEX
8
RASTER
10
155.343
20
22.146
30
0
0
VERTEX
8
RASTER
10
155.559
20
22.488
30
0
0
SEQEND
8
RASTER
0
POLYLINE
8
RASTER
66
1
70
1
0
VERTEX
8
RASTER
10
151.278
20
21.906
30
0
0
VERTEX
8
RASTER
10
151.015
20
21.771
30
0
0
VERTEX
8
RASTER
10
150.138
20
20.894
30
0
0
VERTEX
8
RASTER
10
149.66
20
20.256
30
0
0
VERTEX
8
RASTER
10
149.205
20
19.356
30
0
0
VERTEX
8
RASTER
10
148.966
20
18.16
30
0
0
VERTEX
8
RASTER
10
149.046
20
18
30
0
0
VERTEX
8
RASTER
10
149.046
20
17.522
30
0
0
VERTEX
8
RASTER
10
149.341
20
16.781
30
0
0
VERTEX
8
RASTER
10
149.923
20
16.645
30
0
0
VERTEX
8
RASTER
10
150.242
20
16.486
30
0
0
VERTEX
8
RASTER
10
150.64
20
16.645
30
0
0
VERTEX
8
RASTER
10
151.118
20
16.645
30
0
0
VERTEX
8
RASTER
10
151.381
20
16.43
30
0
0
VERTEX
8
RASTER
10
151.573
20
16.063
30
0
0
VERTEX
8
RASTER
10
151.836
20
15.928
30
0
0
VERTEX
8
RASTER
10
152.075
20
15.928
30
0
0
VERTEX
8
RASTER
10
152.418
20
15.713
30
0
0
VERTEX
8
RASTER
10
152.657
20
15.394
30
0
0
VERTEX
8
RASTER
10
152.872
20
14.891
30
0
0
VERTEX
8
RASTER
10
152.792
20
14.413
30
0
0
VERTEX
8
RASTER
10
152.474
20
13.855
30
0
0
VERTEX
8
RASTER
10
153.191
20
13.457
30
0
0
VERTEX
8
RASTER
10
153.669
20
13.297
30
0
0
VERTEX
8
RASTER
10
154.467
20
13.297
30
0
0
VERTEX
8
RASTER
10
155.766
20
13.751
30
0
0
VERTEX
8
RASTER
10
156.244
20
14.07
30
0
0
VERTEX
8
RASTER
10
156.882
20
14.708
30
0
0
VERTEX
8
RASTER
10
157.281
20
15.266
30
0
0
VERTEX
8
RASTER
10
157.655
20
16.007
30
0
0
VERTEX
8
RASTER
10
157.599
20
16.191
30
0
0
VERTEX
8
RASTER
10
156.858
20
16.645
30
0
0
VERTEX
8
RASTER
10
155.742
20
17.123
30
0
0
VERTEX
8
RASTER
10
155.104
20
17.283
30
0
0
VERTEX
8
RASTER
10
154.227
20
17.283
30
0
0
VERTEX
8
RASTER
10
153.669
20
17.123
30
0
0
VERTEX
8
RASTER
10
152.928
20
16.749
30
0
0
VERTEX
8
RASTER
10
152.099
20
16.031
30
0
0
VERTEX
8
RASTER
10
152.872
20
17.602
30
0
0
VERTEX
8
RASTER
10
153.008
20
18.503
30
0
0
VERTEX
8
RASTER
10
152.952
20
19.196
30
0
0
VERTEX
8
RASTER
10
152.633
20
20.153
30
0
0
VERTEX
8
RASTER
10
152.258
20
20.814
30
0
0
VERTEX
8
RASTER
10
151.86
20
21.372
30
0
0
SEQEND
8
RASTER
0
POLYLINE
8
RASTER
66
1
70
1
0
VERTEX
8
RASTER
10
146.256
20
18
30
0
0
VERTEX
8
RASTER
10
146.096
20
17.921
30
0
0
VERTEX
8
RASTER
10
145.379
20
17.841
30
0
0
VERTEX
8
RASTER
10
144.661
20
17.602
30
0
0
VERTEX
8
RASTER
10
143.92
20
17.227
30
0
0
VERTEX
8
RASTER
10
143.864
20
17.044
30
0
0
VERTEX
8
RASTER
10
143.944
20
16.805
30
0
0
VERTEX
8
RASTER
10
144.398
20
15.904
30
0
0
VERTEX
8
RASTER
10
144.717
20
15.426
30
0
0
VERTEX
8
RASTER
10
145.435
20
14.708
30
0
0
VERTEX
8
RASTER
10
145.753
20
14.469
30
0
0
VERTEX
8
RASTER
10
146.495
20
14.094
30
0
0
VERTEX
8
RASTER
10
147.053
20
13.935
30
0
0
VERTEX
8
RASTER
10
148.249
20
13.935
30
0
0
VERTEX
8
RASTER
10
148.352
20
13.991
30
0
0
VERTEX
8
RASTER
10
148.567
20
14.493
30
0
0
VERTEX
8
RASTER
10
148.567
20
14.732
30
0
0
VERTEX
8
RASTER
10
148.408
20
15.21
30
0
0
VERTEX
8
RASTER
10
148.488
20
15.689
30
0
0
VERTEX
8
RASTER
10
148.703
20
16.191
30
0
0
VERTEX
8
RASTER
10
149.07
20
16.542
30
0
0
VERTEX
8
RASTER
10
149.126
20
16.645
30
0
0
VERTEX
8
RASTER
10
149.07
20
16.749
30
0
0
VERTEX
8
RASTER
10
148.591
20
17.307
30
0
0
VERTEX
8
RASTER
10
147.611
20
17.841
30
0
0
VERTEX
8
RASTER
10
146.973
20
18
30
0
0
SEQEND
8
RASTER
0
POLYLINE
8
RASTER
66
1
70
1
0
VERTEX
8
RASTER
10
149.604
20
16.645
30
0
0
VERTEX
8
RASTER
10
149.102
20
16.43
30
0
0
VERTEX
8
RASTER
10
148.942
20
16.271
30
0
0
VERTEX
8
RASTER
10
148.647
20
15.609
30
0
0
VERTEX
8
RASTER
10
148.647
20
15.131
30
0
0
VERTEX
8
RASTER
10
148.966
20
14.573
30
0
0
VERTEX
8
RASTER
10
148.567
20
14.015
30
0
0
VERTEX
8
RASTER
10
148.567
20
13.297
30
0
0
VERTEX
8
RASTER
10
148.783
20
12.875
30
0
0
VERTEX
8
RASTER
10
149.126
20
12.659
30
0
0
VERTEX
8
RASTER
10
149.365
20
12.659
30
0
0
VERTEX
8
RASTER
10
149.843
20
12.978
30
0
0
VERTEX
8
RASTER
10
150.218
20
12.556
30
0
0
VERTEX
8
RASTER
10
150.481
20
12.42
30
0
0
VERTEX
8
RASTER
10
150.8
20
12.42
30
0
0
VERTEX
8
RASTER
10
151.142
20
12.556
30
0
0
VERTEX
8
RASTER
10
151.461
20
12.795
30
0
0
VERTEX
8
RASTER
10
151.676
20
13.217
30
0
0
VERTEX
8
RASTER
10
151.7
20
13.911
30
0
0
VERTEX
8
RASTER
10
152.075
20
13.935
30
0
0
VERTEX
8
RASTER
10
152.37
20
14.118
30
0
0
VERTEX
8
RASTER
10
152.633
20
14.573
30
0
0
VERTEX
8
RASTER
10
152.633
20
14.971
30
0
0
VERTEX
8
RASTER
10
152.338
20
15.473
30
0
0
VERTEX
8
RASTER
10
151.836
20
15.768
30
0
0
VERTEX
8
RASTER
10
151.461
20
15.792
30
0
0
VERTEX
8
RASTER
10
151.437
20
16.007
30
0
0
VERTEX
8
RASTER
10
151.222
20
16.35
30
0
0
VERTEX
8
RASTER
10
150.72
20
16.406
30
0
0
VERTEX
8
RASTER
10
150.345
20
16.111
30
0
0
VERTEX
8
RASTER
10
149.947
20
16.51
30
0
0
SEQEND
8
RASTER
0
POLYLINE
8
RASTER
66
1
70
1
0
VERTEX
8
RASTER
10
150.026
20
15.107
30
0
0
VERTEX
8
RASTER
10
150.242
20
15.131
30
0
0
VERTEX
8
RASTER
10
150.321
20
15.051
30
0
0
VERTEX
8
RASTER
10
150.002
20
14.573
30
0
0
VERTEX
8
RASTER
10
150.002
20
14.174
30
0
0
VERTEX
8
RASTER
10
150.162
20
14.015
30
0
0
VERTEX
8
RASTER
10
150.584
20
14.15
30
0
0
VERTEX
8
RASTER
10
151.015
20
14.596
30
0
0
VERTEX
8
RASTER
10
151.198
20
14.652
30
0
0
VERTEX
8
RASTER
10
151.278
20
14.573
30
0
0
VERTEX
8
RASTER
10
151.142
20
14.309
30
0
0
VERTEX
8
RASTER
10
150.903
20
14.07
30
0
0
VERTEX
8
RASTER
10
150.321
20
13.696
30
0
0
VERTEX
8
RASTER
10
150.082
20
13.696
30
0
0
VERTEX
8
RASTER
10
149.867
20
13.799
30
0
0
VERTEX
8
RASTER
10
149.763
20
14.015
30
0
0
VERTEX
8
RASTER
10
149.763
20
14.652
30
0
0
SEQEND
8
RASTER
0
POLYLINE
8
RASTER
66
1
70
1
0
VERTEX
8
RASTER
10
148.089
20
13.696
30
0
0
VERTEX
8
RASTER
10
147.029
20
13.162
30
0
0
VERTEX
8
RASTER
10
146.312
20
12.444
30
0
0
VERTEX
8
RASTER
10
145.857
20
11.623
30
0
0
VERTEX
8
RASTER
10
145.618
20
10.666
30
0
0
VERTEX
8
RASTER
10
145.618
20
9.471
30
0
0
VERTEX
8
RASTER
10
145.698
20
9.072
30
0
0
VERTEX
8
RASTER
10
145.937
20
8.674
30
0
0
VERTEX
8
RASTER
10
146.256
20
8.674
30
0
0
VERTEX
8
RASTER
10
147.292
20
8.913
30
0
0
VERTEX
8
RASTER
10
148.169
20
9.232
30
0
0
VERTEX
8
RASTER
10
148.831
20
9.606
30
0
0
VERTEX
8
RASTER
10
149.389
20
10.085
30
0
0
VERTEX
8
RASTER
10
150.082
20
11.224
30
0
0
VERTEX
8
RASTER
10
150.242
20
11.703
30
0
0
VERTEX
8
RASTER
10
150.265
20
12.125
30
0
0
VERTEX
8
RASTER
10
149.978
20
12.317
30
0
0
VERTEX
8
RASTER
10
149.763
20
12.58
30
0
0
VERTEX
8
RASTER
10
149.444
20
12.42
30
0
0
VERTEX
8
RASTER
10
149.046
20
12.42
30
0
0
VERTEX
8
RASTER
10
148.783
20
12.556
30
0
0
VERTEX
8
RASTER
10
148.408
20
12.978
30
0
0
VERTEX
8
RASTER
10
148.304
20
13.672
30
0
0
SEQEND
8
RASTER
0
POLYLINE
8
RASTER
66
1
70
1
0
VERTEX
8
RASTER
10
152.155
20
13.616
30
0
0
VERTEX
8
RASTER
10
152.051
20
13.56
30
0
0
VERTEX
8
RASTER
10
151.916
20
13.058
30
0
0
VERTEX
8
RASTER
10
151.621
20
12.556
30
0
0
VERTEX
8
RASTER
10
150.959
20
12.181
30
0
0
VERTEX
8
RASTER
10
150.616
20
12.125
30
0
0
VERTEX
8
RASTER
10
150.56
20
12.022
30
0
0
VERTEX
8
RASTER
10
150.505
20
11.759
30
0
0
VERTEX
8
RASTER
10
150.56
20
11.224
30
0
0
VERTEX
8
RASTER
10
150.8
20
10.507
30
0
0
VERTEX
8
RASTER
10
151.174
20
9.845
30
0
0
VERTEX
8
RASTER
10
151.653
20
9.367
30
0
0
VERTEX
8
RASTER
10
152.131
20
9.048
30
0
0
VERTEX
8
RASTER
10
153.51
20
8.514
30
0
0
VERTEX
8
RASTER
10
154.706
20
8.275
30
0
0
VERTEX
8
RASTER
10
154.865
20
8.434
30
0
0
VERTEX
8
RASTER
10
155.025
20
9.072
30
0
0
VERTEX
8
RASTER
10
155.025
20
10.268
30
0
0
VERTEX
8
RASTER
10
154.785
20
11.304
30
0
0
VERTEX
8
RASTER
10
154.251
20
12.285
30
0
0
VERTEX
8
RASTER
10
153.773
20
12.763
30
0
0
VERTEX
8
RASTER
10
153.215
20
13.162
30
0
0
VERTEX
8
RASTER
10
152.314
20
13.616
30
0
0
SEQEND
8
RASTER
0
ENDSEC
0
EOF
