0
SECTION
2
HEADER
9
$ACADVER
1
AC1009
9
$EXTMIN
10
0
20
0
9
$EXTMAX
10
157.45
20
28.004
0
ENDSEC
0
SECTION
2
TABLES
0
TABLE
2
LAYER
70
2
0
LAYER
2
CUT
70
0
62
1
6
CONTINUOUS
0
LAYER
2
RASTER
70
0
62
7
6
CONTINUOUS
0
ENDTAB
0
ENDSEC
0
SECTION
2
ENTITIES
0
POLYLINE
8
CUT
66
1
70
1
0
VERTEX
8
CUT
10
19.538
20
24.004
30
0
0
VERTEX
8
CUT
10
19.977
20
23.892
30
0
0
VERTEX
8
CUT
10
20.171
20
23.268
30
0
0
VERTEX
8
CUT
10
19.875
20
20.725
30
0
0
VERTEX
8
CUT
10
20.682
20
20.102
30
0
0
VERTEX
8
CUT
10
20.754
20
19.315
30
0
0
VERTEX
8
CUT
10
19.589
20
17.824
30
0
0
VERTEX
8
CUT
10
19.313
20
16.669
30
0
0
VERTEX
8
CUT
10
18.251
20
15.688
30
0
0
VERTEX
8
CUT
10
18.128
20
14.994
30
0
0
VERTEX
8
CUT
10
18.363
20
14.616
30
0
0
VERTEX
8
CUT
10
19.354
20
14.483
30
0
0
VERTEX
8
CUT
10
19.896
20
13.594
30
0
0
VERTEX
8
CUT
10
21.459
20
13.523
30
0
0
VERTEX
8
CUT
10
22.133
20
13.073
30
0
0
VERTEX
8
CUT
10
22.041
20
12.103
30
0
0
VERTEX
8
CUT
10
20.723
20
10.764
30
0
0
VERTEX
8
CUT
10
20.672
20
9.385
30
0
0
VERTEX
8
CUT
10
20.008
20
9.028
30
0
0
VERTEX
8
CUT
10
18.874
20
8.936
30
0
0
VERTEX
8
CUT
10
18.261
20
8.323
30
0
0
VERTEX
8
CUT
10
16.964
20
8.19
30
0
0
VERTEX
8
CUT
10
16.432
20
7.7
30
0
0
VERTEX
8
CUT
10
14.992
20
7.608
30
0
0
VERTEX
8
CUT
10
14.216
20
7.056
30
0
0
VERTEX
8
CUT
10
12.571
20
7.087
30
0
0
VERTEX
8
CUT
10
10.906
20
7.976
30
0
0
VERTEX
8
CUT
10
10.078
20
7.925
30
0
0
VERTEX
8
CUT
10
9.608
20
7.577
30
0
0
VERTEX
8
CUT
10
8.73
20
5.187
30
0
0
VERTEX
8
CUT
10
8.076
20
4.104
30
0
0
VERTEX
8
CUT
10
7.238
20
4.002
30
0
0
VERTEX
8
CUT
10
4.991
20
4.513
30
0
0
VERTEX
8
CUT
10
4.664
20
5.003
30
0
0
VERTEX
8
CUT
10
4.613
20
5.973
30
0
0
VERTEX
8
CUT
10
4
20
6.586
30
0
0
VERTEX
8
CUT
10
4.051
20
7.618
30
0
0
VERTEX
8
CUT
10
7.596
20
8.977
30
0
0
VERTEX
8
CUT
10
8.311
20
10.611
30
0
0
VERTEX
8
CUT
10
8.229
20
11.122
30
0
0
VERTEX
8
CUT
10
6.871
20
12.419
30
0
0
VERTEX
8
CUT
10
6.38
20
14.279
30
0
0
VERTEX
8
CUT
10
6.585
20
15.3
30
0
0
VERTEX
8
CUT
10
6.482
20
16.322
30
0
0
VERTEX
8
CUT
10
6.677
20
17.231
30
0
0
VERTEX
8
CUT
10
6.482
20
18.467
30
0
0
VERTEX
8
CUT
10
6.707
20
20.796
30
0
0
VERTEX
8
CUT
10
6.891
20
21.123
30
0
0
VERTEX
8
CUT
10
7.841
20
21.399
30
0
0
VERTEX
8
CUT
10
8.464
20
23.636
30
0
0
VERTEX
8
CUT
10
8.852
20
23.861
30
0
0
VERTEX
8
CUT
10
9.476
20
23.81
30
0
0
VERTEX
8
CUT
10
10.558
20
22.339
30
0
0
VERTEX
8
CUT
10
11.58
20
22.339
30
0
0
VERTEX
8
CUT
10
12.173
20
21.297
30
0
0
VERTEX
8
CUT
10
12.275
20
19.152
30
0
0
VERTEX
8
CUT
10
12.816
20
18.876
30
0
0
VERTEX
8
CUT
10
13.255
20
19.152
30
0
0
VERTEX
8
CUT
10
13.501
20
20.439
30
0
0
VERTEX
8
CUT
10
14.737
20
21.144
30
0
0
VERTEX
8
CUT
10
15.125
20
22.186
30
0
0
VERTEX
8
CUT
10
15.677
20
22.86
30
0
0
VERTEX
8
CUT
10
17.342
20
22.829
30
0
0
VERTEX
8
CUT
10
18.404
20
23.606
30
0
0
SEQEND
8
CUT
0
POLYLINE
8
RASTER
66
1
70
1
0
VERTEX
8
RASTER
10
8.965
20
23.646
30
0
0
VERTEX
8
RASTER
10
9.373
20
23.503
30
0
0
VERTEX
8
RASTER
10
9.782
20
22.993
30
0
0
VERTEX
8
RASTER
10
10.16
20
22.247
30
0
0
VERTEX
8
RASTER
10
10.497
20
21.052
30
0
0
VERTEX
8
RASTER
10
11.488
20
21.532
30
0
0
VERTEX
8
RASTER
10
11.723
20
21.46
30
0
0
VERTEX
8
RASTER
10
11.897
20
21.225
30
0
0
VERTEX
8
RASTER
10
11.897
20
20.715
30
0
0
VERTEX
8
RASTER
10
11.999
20
20.408
30
0
0
VERTEX
8
RASTER
10
11.795
20
19.387
30
0
0
VERTEX
8
RASTER
10
11.59
20
18.978
30
0
0
VERTEX
8
RASTER
10
12.03
20
18.804
30
0
0
VERTEX
8
RASTER
10
12.203
20
18.569
30
0
0
VERTEX
8
RASTER
10
12.203
20
17.956
30
0
0
VERTEX
8
RASTER
10
11.897
20
17.037
30
0
0
VERTEX
8
RASTER
10
11.968
20
16.802
30
0
0
VERTEX
8
RASTER
10
12.132
20
16.659
30
0
0
VERTEX
8
RASTER
10
12.51
20
17.854
30
0
0
VERTEX
8
RASTER
10
12.785
20
18.396
30
0
0
VERTEX
8
RASTER
10
13.123
20
18.671
30
0
0
VERTEX
8
RASTER
10
13.501
20
18.498
30
0
0
VERTEX
8
RASTER
10
13.633
20
19.387
30
0
0
VERTEX
8
RASTER
10
13.838
20
19.999
30
0
0
VERTEX
8
RASTER
10
14.216
20
20.643
30
0
0
VERTEX
8
RASTER
10
14.553
20
20.715
30
0
0
VERTEX
8
RASTER
10
14.829
20
20.582
30
0
0
VERTEX
8
RASTER
10
14.89
20
20.439
30
0
0
VERTEX
8
RASTER
10
15.033
20
20.439
30
0
0
VERTEX
8
RASTER
10
15.166
20
21.327
30
0
0
VERTEX
8
RASTER
10
15.85
20
22.584
30
0
0
VERTEX
8
RASTER
10
16.187
20
22.758
30
0
0
VERTEX
8
RASTER
10
16.32
20
22.686
30
0
0
VERTEX
8
RASTER
10
17.076
20
21.767
30
0
0
VERTEX
8
RASTER
10
17.383
20
22.278
30
0
0
VERTEX
8
RASTER
10
18.2
20
23.095
30
0
0
VERTEX
8
RASTER
10
18.843
20
23.473
30
0
0
VERTEX
8
RASTER
10
19.558
20
23.677
30
0
0
VERTEX
8
RASTER
10
19.691
20
23.606
30
0
0
VERTEX
8
RASTER
10
19.865
20
23.371
30
0
0
VERTEX
8
RASTER
10
19.865
20
22.247
30
0
0
VERTEX
8
RASTER
10
19.558
20
21.123
30
0
0
VERTEX
8
RASTER
10
19.15
20
20.306
30
0
0
VERTEX
8
RASTER
10
19.252
20
20.204
30
0
0
VERTEX
8
RASTER
10
20.069
20
20.102
30
0
0
VERTEX
8
RASTER
10
20.406
20
19.928
30
0
0
VERTEX
8
RASTER
10
20.478
20
19.489
30
0
0
VERTEX
8
RASTER
10
20.202
20
18.947
30
0
0
VERTEX
8
RASTER
10
19.936
20
18.702
30
0
0
VERTEX
8
RASTER
10
19.793
20
18.436
30
0
0
VERTEX
8
RASTER
10
18.915
20
17.783
30
0
0
VERTEX
8
RASTER
10
18.915
20
17.619
30
0
0
VERTEX
8
RASTER
10
19.15
20
17.343
30
0
0
VERTEX
8
RASTER
10
18.976
20
16.802
30
0
0
VERTEX
8
RASTER
10
18.465
20
16.291
30
0
0
VERTEX
8
RASTER
10
17.587
20
15.74
30
0
0
VERTEX
8
RASTER
10
17.546
20
15.637
30
0
0
VERTEX
8
RASTER
10
17.822
20
15.402
30
0
0
VERTEX
8
RASTER
10
17.822
20
15.096
30
0
0
VERTEX
8
RASTER
10
17.648
20
14.759
30
0
0
VERTEX
8
RASTER
10
16.32
20
13.696
30
0
0
VERTEX
8
RASTER
10
16.698
20
13.666
30
0
0
VERTEX
8
RASTER
10
16.902
20
13.768
30
0
0
VERTEX
8
RASTER
10
17.28
20
13.492
30
0
0
VERTEX
8
RASTER
10
18.435
20
14.177
30
0
0
VERTEX
8
RASTER
10
19.048
20
14.279
30
0
0
VERTEX
8
RASTER
10
19.354
20
13.972
30
0
0
VERTEX
8
RASTER
10
19.283
20
13.186
30
0
0
VERTEX
8
RASTER
10
21.295
20
13.257
30
0
0
VERTEX
8
RASTER
10
21.837
20
12.981
30
0
0
VERTEX
8
RASTER
10
21.908
20
12.542
30
0
0
VERTEX
8
RASTER
10
21.734
20
12.205
30
0
0
VERTEX
8
RASTER
10
20.917
20
11.388
30
0
0
VERTEX
8
RASTER
10
19.763
20
10.908
30
0
0
VERTEX
8
RASTER
10
20.304
20
10.325
30
0
0
VERTEX
8
RASTER
10
20.478
20
9.988
30
0
0
VERTEX
8
RASTER
10
20.406
20
9.549
30
0
0
VERTEX
8
RASTER
10
20.171
20
9.375
30
0
0
VERTEX
8
RASTER
10
19.763
20
9.273
30
0
0
VERTEX
8
RASTER
10
18.435
20
9.273
30
0
0
VERTEX
8
RASTER
10
18.333
20
9.171
30
0
0
VERTEX
8
RASTER
10
18.261
20
8.732
30
0
0
VERTEX
8
RASTER
10
18.026
20
8.558
30
0
0
VERTEX
8
RASTER
10
16.698
20
8.558
30
0
0
VERTEX
8
RASTER
10
16.494
20
8.66
30
0
0
VERTEX
8
RASTER
10
16.422
20
8.629
30
0
0
VERTEX
8
RASTER
10
16.494
20
8.456
30
0
0
VERTEX
8
RASTER
10
16.422
20
8.016
30
0
0
VERTEX
8
RASTER
10
15.983
20
7.843
30
0
0
VERTEX
8
RASTER
10
14.553
20
7.945
30
0
0
VERTEX
8
RASTER
10
14.42
20
7.465
30
0
0
VERTEX
8
RASTER
10
14.144
20
7.332
30
0
0
VERTEX
8
RASTER
10
12.816
20
7.332
30
0
0
VERTEX
8
RASTER
10
12.407
20
7.434
30
0
0
VERTEX
8
RASTER
10
11.662
20
7.812
30
0
0
VERTEX
8
RASTER
10
10.947
20
8.629
30
0
0
VERTEX
8
RASTER
10
9.373
20
8.016
30
0
0
VERTEX
8
RASTER
10
8.832
20
6.31
30
0
0
VERTEX
8
RASTER
10
8.148
20
4.747
30
0
0
VERTEX
8
RASTER
10
7.943
20
4.441
30
0
0
VERTEX
8
RASTER
10
7.606
20
4.267
30
0
0
VERTEX
8
RASTER
10
7.3
20
4.267
30
0
0
VERTEX
8
RASTER
10
6.963
20
4.441
30
0
0
VERTEX
8
RASTER
10
6.789
20
4.778
30
0
0
VERTEX
8
RASTER
10
6.789
20
4.982
30
0
0
VERTEX
8
RASTER
10
7.269
20
5.871
30
0
0
VERTEX
8
RASTER
10
6.656
20
5.422
30
0
0
VERTEX
8
RASTER
10
6.207
20
4.952
30
0
0
VERTEX
8
RASTER
10
5.665
20
4.676
30
0
0
VERTEX
8
RASTER
10
5.359
20
4.676
30
0
0
VERTEX
8
RASTER
10
5.083
20
4.809
30
0
0
VERTEX
8
RASTER
10
4.95
20
5.085
30
0
0
VERTEX
8
RASTER
10
5.022
20
5.626
30
0
0
VERTEX
8
RASTER
10
6.145
20
6.688
30
0
0
VERTEX
8
RASTER
10
5.869
20
6.719
30
0
0
VERTEX
8
RASTER
10
5.359
20
6.515
30
0
0
VERTEX
8
RASTER
10
4.95
20
6.515
30
0
0
VERTEX
8
RASTER
10
4.746
20
6.413
30
0
0
VERTEX
8
RASTER
10
4.306
20
6.688
30
0
0
VERTEX
8
RASTER
10
4.235
20
7.332
30
0
0
VERTEX
8
RASTER
10
4.306
20
7.465
30
0
0
VERTEX
8
RASTER
10
4.644
20
7.639
30
0
0
VERTEX
8
RASTER
10
6.789
20
8.251
30
0
0
VERTEX
8
RASTER
10
8.25
20
8.936
30
0
0
VERTEX
8
RASTER
10
8.526
20
9.682
30
0
0
VERTEX
8
RASTER
10
8.73
20
10.703
30
0
0
VERTEX
8
RASTER
10
8.73
20
11.316
30
0
0
VERTEX
8
RASTER
10
7.984
20
11.694
30
0
0
VERTEX
8
RASTER
10
7.371
20
12.307
30
0
0
VERTEX
8
RASTER
10
6.891
20
13.155
30
0
0
VERTEX
8
RASTER
10
6.687
20
13.87
30
0
0
VERTEX
8
RASTER
10
6.758
20
14.616
30
0
0
VERTEX
8
RASTER
10
7.198
20
14.789
30
0
0
VERTEX
8
RASTER
10
6.789
20
15.913
30
0
0
VERTEX
8
RASTER
10
6.789
20
16.424
30
0
0
VERTEX
8
RASTER
10
6.86
20
16.557
30
0
0
VERTEX
8
RASTER
10
7.3
20
16.73
30
0
0
VERTEX
8
RASTER
10
6.789
20
18.058
30
0
0
VERTEX
8
RASTER
10
6.789
20
18.569
30
0
0
VERTEX
8
RASTER
10
6.86
20
18.702
30
0
0
VERTEX
8
RASTER
10
7.3
20
18.876
30
0
0
VERTEX
8
RASTER
10
6.993
20
19.693
30
0
0
VERTEX
8
RASTER
10
6.922
20
20.439
30
0
0
VERTEX
8
RASTER
10
6.993
20
20.715
30
0
0
VERTEX
8
RASTER
10
7.198
20
20.919
30
0
0
VERTEX
8
RASTER
10
7.606
20
20.919
30
0
0
VERTEX
8
RASTER
10
8.291
20
20.643
30
0
0
VERTEX
8
RASTER
10
8.219
20
21.94
30
0
0
VERTEX
8
RASTER
10
8.423
20
22.758
30
0
0
VERTEX
8
RASTER
10
8.801
20
23.503
30
0
0
SEQEND
8
RASTER
0
POLYLINE
8
RASTER
66
1
70
1
0
VERTEX
8
RASTER
10
19.426
20
23.238
30
0
0
VERTEX
8
RASTER
10
18.302
20
22.686
30
0
0
VERTEX
8
RASTER
10
17.587
20
21.869
30
0
0
VERTEX
8
RASTER
10
17.209
20
21.123
30
0
0
VERTEX
8
RASTER
10
17.209
20
20.306
30
0
0
VERTEX
8
RASTER
10
17.311
20
20.102
30
0
0
VERTEX
8
RASTER
10
17.209
20
19.897
30
0
0
VERTEX
8
RASTER
10
17.24
20
19.621
30
0
0
VERTEX
8
RASTER
10
18.261
20
20.173
30
0
0
VERTEX
8
RASTER
10
18.874
20
20.684
30
0
0
VERTEX
8
RASTER
10
19.456
20
21.94
30
0
0
VERTEX
8
RASTER
10
19.354
20
22.145
30
0
0
VERTEX
8
RASTER
10
19.456
20
22.349
30
0
0
SEQEND
8
RASTER
0
POLYLINE
8
RASTER
66
1
70
1
0
VERTEX
8
RASTER
10
9.138
20
23.166
30
0
0
VERTEX
8
RASTER
10
8.934
20
22.86
30
0
0
VERTEX
8
RASTER
10
8.628
20
21.94
30
0
0
VERTEX
8
RASTER
10
8.526
20
21.021
30
0
0
VERTEX
8
RASTER
10
8.801
20
20.173
30
0
0
VERTEX
8
RASTER
10
9.271
20
19.826
30
0
0
VERTEX
8
RASTER
10
9.414
20
19.56
30
0
0
VERTEX
8
RASTER
10
9.547
20
19.489
30
0
0
VERTEX
8
RASTER
10
9.649
20
19.591
30
0
0
VERTEX
8
RASTER
10
9.782
20
20.173
30
0
0
VERTEX
8
RASTER
10
10.058
20
20.51
30
0
0
VERTEX
8
RASTER
10
10.129
20
21.093
30
0
0
VERTEX
8
RASTER
10
9.956
20
21.123
30
0
0
VERTEX
8
RASTER
10
9.854
20
21.94
30
0
0
VERTEX
8
RASTER
10
9.271
20
23.095
30
0
0
SEQEND
8
RASTER
0
POLYLINE
8
RASTER
66
1
70
1
0
VERTEX
8
RASTER
10
16.187
20
22.247
30
0
0
VERTEX
8
RASTER
10
16.054
20
22.175
30
0
0
VERTEX
8
RASTER
10
15.574
20
21.225
30
0
0
VERTEX
8
RASTER
10
15.37
20
20.51
30
0
0
VERTEX
8
RASTER
10
15.37
20
19.693
30
0
0
VERTEX
8
RASTER
10
16.014
20
17.681
30
0
0
VERTEX
8
RASTER
10
16.698
20
17.752
30
0
0
VERTEX
8
RASTER
10
16.902
20
17.854
30
0
0
VERTEX
8
RASTER
10
18.026
20
17.854
30
0
0
VERTEX
8
RASTER
10
19.18
20
18.436
30
0
0
VERTEX
8
RASTER
10
19.691
20
18.947
30
0
0
VERTEX
8
RASTER
10
20.1
20
19.56
30
0
0
VERTEX
8
RASTER
10
20.1
20
19.724
30
0
0
VERTEX
8
RASTER
10
19.967
20
19.795
30
0
0
VERTEX
8
RASTER
10
18.435
20
19.795
30
0
0
VERTEX
8
RASTER
10
17.383
20
19.315
30
0
0
VERTEX
8
RASTER
10
17.076
20
19.111
30
0
0
VERTEX
8
RASTER
10
16.831
20
18.743
30
0
0
VERTEX
8
RASTER
10
16.667
20
18.743
30
0
0
VERTEX
8
RASTER
10
16.627
20
18.845
30
0
0
VERTEX
8
RASTER
10
16.902
20
19.489
30
0
0
VERTEX
8
RASTER
10
16.902
20
20.817
30
0
0
VERTEX
8
RASTER
10
16.627
20
21.562
30
0
0
VERTEX
8
RASTER
10
16.32
20
22.175
30
0
0
SEQEND
8
RASTER
0
POLYLINE
8
RASTER
66
1
70
1
0
VERTEX
8
RASTER
10
11.284
20
21.123
30
0
0
VERTEX
8
RASTER
10
11.11
20
20.99
30
0
0
VERTEX
8
RASTER
10
11.151
20
20.847
30
0
0
VERTEX
8
RASTER
10
10.977
20
20.919
30
0
0
VERTEX
8
RASTER
10
10.436
20
20.541
30
0
0
VERTEX
8
RASTER
10
10.395
20
20.275
30
0
0
VERTEX
8
RASTER
10
9.925
20
19.724
30
0
0
VERTEX
8
RASTER
10
9.751
20
19.387
30
0
0
VERTEX
8
RASTER
10
9.619
20
18.396
30
0
0
VERTEX
8
RASTER
10
9.445
20
18.569
30
0
0
VERTEX
8
RASTER
10
9.445
20
18.774
30
0
0
VERTEX
8
RASTER
10
9.169
20
19.315
30
0
0
VERTEX
8
RASTER
10
8.658
20
19.928
30
0
0
VERTEX
8
RASTER
10
7.33
20
20.582
30
0
0
VERTEX
8
RASTER
10
7.3
20
19.897
30
0
0
VERTEX
8
RASTER
10
7.78
20
18.743
30
0
0
VERTEX
8
RASTER
10
8.086
20
18.436
30
0
0
VERTEX
8
RASTER
10
8.965
20
17.987
30
0
0
VERTEX
8
RASTER
10
9.516
20
17.415
30
0
0
VERTEX
8
RASTER
10
9.68
20
17.415
30
0
0
VERTEX
8
RASTER
10
9.823
20
17.681
30
0
0
VERTEX
8
RASTER
10
10.804
20
18.539
30
0
0
VERTEX
8
RASTER
10
11.284
20
19.182
30
0
0
VERTEX
8
RASTER
10
11.59
20
20.306
30
0
0
VERTEX
8
RASTER
10
11.59
20
21.021
30
0
0
VERTEX
8
RASTER
10
11.488
20
21.123
30
0
0
SEQEND
8
RASTER
0
POLYLINE
8
RASTER
66
1
70
1
0
VERTEX
8
RASTER
10
14.451
20
20.204
30
0
0
VERTEX
8
RASTER
10
13.94
20
19.08
30
0
0
VERTEX
8
RASTER
10
13.838
20
18.058
30
0
0
VERTEX
8
RASTER
10
14.451
20
16.526
30
0
0
VERTEX
8
RASTER
10
14.553
20
16.118
30
0
0
VERTEX
8
RASTER
10
14.481
20
15.637
30
0
0
VERTEX
8
RASTER
10
15.472
20
15.913
30
0
0
VERTEX
8
RASTER
10
16.902
20
15.913
30
0
0
VERTEX
8
RASTER
10
17.955
20
16.393
30
0
0
VERTEX
8
RASTER
10
18.568
20
16.904
30
0
0
VERTEX
8
RASTER
10
18.741
20
17.241
30
0
0
VERTEX
8
RASTER
10
18.639
20
17.343
30
0
0
VERTEX
8
RASTER
10
17.924
20
17.548
30
0
0
VERTEX
8
RASTER
10
16.902
20
17.548
30
0
0
VERTEX
8
RASTER
10
15.85
20
17.17
30
0
0
VERTEX
8
RASTER
10
15.401
20
16.761
30
0
0
VERTEX
8
RASTER
10
15.472
20
18.365
30
0
0
VERTEX
8
RASTER
10
15.37
20
18.774
30
0
0
VERTEX
8
RASTER
10
14.992
20
19.621
30
0
0
SEQEND
8
RASTER
0
POLYLINE
8
RASTER
66
1
70
1
0
VERTEX
8
RASTER
10
11.795
20
18.569
30
0
0
VERTEX
8
RASTER
10
11.049
20
18.293
30
0
0
VERTEX
8
RASTER
10
10.129
20
17.476
30
0
0
VERTEX
8
RASTER
10
9.751
20
16.833
30
0
0
VERTEX
8
RASTER
10
9.619
20
16.352
30
0
0
VERTEX
8
RASTER
10
9.271
20
17.17
30
0
0
VERTEX
8
RASTER
10
8.658
20
17.783
30
0
0
VERTEX
8
RASTER
10
7.504
20
18.365
30
0
0
VERTEX
8
RASTER
10
7.198
20
18.467
30
0
0
VERTEX
8
RASTER
10
7.095
20
18.365
30
0
0
VERTEX
8
RASTER
10
7.3
20
17.65
30
0
0
VERTEX
8
RASTER
10
7.882
20
16.598
30
0
0
VERTEX
8
RASTER
10
8.965
20
15.944
30
0
0
VERTEX
8
RASTER
10
9.619
20
15.229
30
0
0
VERTEX
8
RASTER
10
10.334
20
15.944
30
0
0
VERTEX
8
RASTER
10
10.599
20
16.087
30
0
0
VERTEX
8
RASTER
10
11.417
20
17.006
30
0
0
VERTEX
8
RASTER
10
11.897
20
18.365
30
0
0
SEQEND
8
RASTER
0
POLYLINE
8
RASTER
66
1
70
1
0
VERTEX
8
RASTER
10
13.194
20
18.232
30
0
0
VERTEX
8
RASTER
10
13.02
20
18.058
30
0
0
VERTEX
8
RASTER
10
12.612
20
16.833
30
0
0
VERTEX
8
RASTER
10
12.612
20
15.913
30
0
0
VERTEX
8
RASTER
10
13.123
20
14.585
30
0
0
VERTEX
8
RASTER
10
13.225
20
14.074
30
0
0
VERTEX
8
RASTER
10
13.153
20
13.799
30
0
0
VERTEX
8
RASTER
10
13.838
20
13.972
30
0
0
VERTEX
8
RASTER
10
15.677
20
13.972
30
0
0
VERTEX
8
RASTER
10
16.524
20
14.35
30
0
0
VERTEX
8
RASTER
10
17.342
20
15.065
30
0
0
VERTEX
8
RASTER
10
17.413
20
15.198
30
0
0
VERTEX
8
RASTER
10
17.209
20
15.402
30
0
0
VERTEX
8
RASTER
10
15.779
20
15.607
30
0
0
VERTEX
8
RASTER
10
14.624
20
15.229
30
0
0
VERTEX
8
RASTER
10
13.868
20
14.616
30
0
0
VERTEX
8
RASTER
10
13.838
20
14.892
30
0
0
VERTEX
8
RASTER
10
14.042
20
15.198
30
0
0
VERTEX
8
RASTER
10
14.042
20
16.526
30
0
0
VERTEX
8
RASTER
10
13.766
20
17.272
30
0
0
SEQEND
8
RASTER
0
POLYLINE
8
RASTER
66
1
70
1
0
VERTEX
8
RASTER
10
11.764
20
16.495
30
0
0
VERTEX
8
RASTER
10
11.662
20
16.455
30
0
0
VERTEX
8
RASTER
10
11.488
20
16.118
30
0
0
VERTEX
8
RASTER
10
11.284
20
15.505
30
0
0
VERTEX
8
RASTER
10
11.182
20
14.074
30
0
0
VERTEX
8
RASTER
10
11.56
20
13.124
30
0
0
VERTEX
8
RASTER
10
11.825
20
12.879
30
0
0
VERTEX
8
RASTER
10
11.968
20
12.614
30
0
0
VERTEX
8
RASTER
10
11.825
20
12.307
30
0
0
VERTEX
8
RASTER
10
11.11
20
11.388
30
0
0
VERTEX
8
RASTER
10
10.64
20
10.938
30
0
0
VERTEX
8
RASTER
10
10.497
20
10.673
30
0
0
VERTEX
8
RASTER
10
8.658
20
8.732
30
0
0
VERTEX
8
RASTER
10
7.81
20
8.251
30
0
0
VERTEX
8
RASTER
10
6.789
20
7.843
30
0
0
VERTEX
8
RASTER
10
4.644
20
7.23
30
0
0
VERTEX
8
RASTER
10
4.541
20
7.128
30
0
0
VERTEX
8
RASTER
10
4.572
20
6.852
30
0
0
VERTEX
8
RASTER
10
5.052
20
6.821
30
0
0
VERTEX
8
RASTER
10
5.461
20
6.923
30
0
0
VERTEX
8
RASTER
10
7.606
20
7.639
30
0
0
VERTEX
8
RASTER
10
9.138
20
8.354
30
0
0
VERTEX
8
RASTER
10
11.079
20
9.069
30
0
0
VERTEX
8
RASTER
10
11.253
20
9.038
30
0
0
VERTEX
8
RASTER
10
11.457
20
8.629
30
0
0
VERTEX
8
RASTER
10
11.968
20
8.119
30
0
0
VERTEX
8
RASTER
10
12.51
20
7.843
30
0
0
VERTEX
8
RASTER
10
13.429
20
7.639
30
0
0
VERTEX
8
RASTER
10
14.114
20
7.771
30
0
0
VERTEX
8
RASTER
10
13.97
20
8.18
30
0
0
VERTEX
8
RASTER
10
13.358
20
8.793
30
0
0
VERTEX
8
RASTER
10
12.54
20
9.304
30
0
0
VERTEX
8
RASTER
10
11.795
20
9.579
30
0
0
VERTEX
8
RASTER
10
12.54
20
10.162
30
0
0
VERTEX
8
RASTER
10
12.816
20
10.703
30
0
0
VERTEX
8
RASTER
10
13.02
20
11.316
30
0
0
VERTEX
8
RASTER
10
13.02
20
11.52
30
0
0
VERTEX
8
RASTER
10
12.816
20
11.725
30
0
0
VERTEX
8
RASTER
10
12.51
20
11.725
30
0
0
VERTEX
8
RASTER
10
12.173
20
11.551
30
0
0
VERTEX
8
RASTER
10
12.03
20
11.285
30
0
0
VERTEX
8
RASTER
10
11.662
20
10.938
30
0
0
VERTEX
8
RASTER
10
11.182
20
10.09
30
0
0
VERTEX
8
RASTER
10
11.151
20
9.508
30
0
0
VERTEX
8
RASTER
10
9.373
20
8.793
30
0
0
VERTEX
8
RASTER
10
10.497
20
9.957
30
0
0
VERTEX
8
RASTER
10
10.64
20
10.223
30
0
0
VERTEX
8
RASTER
10
11.927
20
11.694
30
0
0
VERTEX
8
RASTER
10
12.275
20
12.266
30
0
0
VERTEX
8
RASTER
10
13.225
20
12.031
30
0
0
VERTEX
8
RASTER
10
14.246
20
12.031
30
0
0
VERTEX
8
RASTER
10
14.992
20
12.307
30
0
0
VERTEX
8
RASTER
10
15.605
20
12.716
30
0
0
VERTEX
8
RASTER
10
16.085
20
13.257
30
0
0
VERTEX
8
RASTER
10
15.779
20
13.461
30
0
0
VERTEX
8
RASTER
10
15.37
20
13.564
30
0
0
VERTEX
8
RASTER
10
14.757
20
13.564
30
0
0
VERTEX
8
RASTER
10
14.553
20
13.666
30
0
0
VERTEX
8
RASTER
10
14.246
20
13.564
30
0
0
VERTEX
8
RASTER
10
13.736
20
13.564
30
0
0
VERTEX
8
RASTER
10
12.99
20
13.186
30
0
0
VERTEX
8
RASTER
10
12.438
20
12.675
30
0
0
VERTEX
8
RASTER
10
12.438
20
12.92
30
0
0
VERTEX
8
RASTER
10
12.816
20
13.87
30
0
0
VERTEX
8
RASTER
10
12.816
20
14.381
30
0
0
VERTEX
8
RASTER
10
12.479
20
15.474
30
0
0
VERTEX
8
RASTER
10
12.03
20
16.25
30
0
0
SEQEND
8
RASTER
0
POLYLINE
8
RASTER
66
1
70
1
0
VERTEX
8
RASTER
10
7.269
20
16.291
30
0
0
VERTEX
8
RASTER
10
7.126
20
16.189
30
0
0
VERTEX
8
RASTER
10
7.198
20
15.913
30
0
0
VERTEX
8
RASTER
10
7.402
20
15.3
30
0
0
VERTEX
8
RASTER
10
7.78
20
14.657
30
0
0
VERTEX
8
RASTER
10
8.863
20
13.901
30
0
0
VERTEX
8
RASTER
10
9.414
20
13.329
30
0
0
VERTEX
8
RASTER
10
9.578
20
13.329
30
0
0
VERTEX
8
RASTER
10
9.925
20
13.696
30
0
0
VERTEX
8
RASTER
10
10.701
20
14.248
30
0
0
VERTEX
8
RASTER
10
10.947
20
15.985
30
0
0
VERTEX
8
RASTER
10
9.925
20
15.127
30
0
0
VERTEX
8
RASTER
10
9.649
20
14.177
30
0
0
VERTEX
8
RASTER
10
9.547
20
14.074
30
0
0
VERTEX
8
RASTER
10
9.445
20
14.177
30
0
0
VERTEX
8
RASTER
10
9.445
20
14.687
30
0
0
VERTEX
8
RASTER
10
9.169
20
15.229
30
0
0
VERTEX
8
RASTER
10
8.658
20
15.74
30
0
0
VERTEX
8
RASTER
10
7.913
20
16.118
30
0
0
SEQEND
8
RASTER
0
POLYLINE
8
RASTER
66
1
70
1
0
VERTEX
8
RASTER
10
7.095
20
14.381
30
0
0
VERTEX
8
RASTER
10
6.993
20
14.279
30
0
0
VERTEX
8
RASTER
10
7.095
20
13.768
30
0
0
VERTEX
8
RASTER
10
7.678
20
12.614
30
0
0
VERTEX
8
RASTER
10
8.291
20
12.103
30
0
0
VERTEX
8
RASTER
10
9.169
20
11.755
30
0
0
VERTEX
8
RASTER
10
9.241
20
11.623
30
0
0
VERTEX
8
RASTER
10
9.138
20
11.418
30
0
0
VERTEX
8
RASTER
10
9.036
20
9.988
30
0
0
VERTEX
8
RASTER
10
8.832
20
9.375
30
0
0
VERTEX
8
RASTER
10
8.934
20
9.273
30
0
0
VERTEX
8
RASTER
10
9.271
20
9.549
30
0
0
VERTEX
8
RASTER
10
9.547
20
10.192
30
0
0
VERTEX
8
RASTER
10
9.547
20
10.908
30
0
0
VERTEX
8
RASTER
10
9.649
20
11.112
30
0
0
VERTEX
8
RASTER
10
9.68
20
11.694
30
0
0
VERTEX
8
RASTER
10
10.804
20
12.307
30
0
0
VERTEX
8
RASTER
10
11.182
20
12.848
30
0
0
VERTEX
8
RASTER
10
10.844
20
13.737
30
0
0
VERTEX
8
RASTER
10
10.671
20
13.768
30
0
0
VERTEX
8
RASTER
10
10.232
20
13.492
30
0
0
VERTEX
8
RASTER
10
9.823
20
13.083
30
0
0
VERTEX
8
RASTER
10
9.476
20
12.266
30
0
0
VERTEX
8
RASTER
10
9.343
20
12.44
30
0
0
VERTEX
8
RASTER
10
9.343
20
12.746
30
0
0
VERTEX
8
RASTER
10
9.169
20
13.083
30
0
0
VERTEX
8
RASTER
10
8.658
20
13.594
30
0
0
SEQEND
8
RASTER
0
POLYLINE
8
RASTER
66
1
70
1
0
VERTEX
8
RASTER
10
18.915
20
13.942
30
0
0
VERTEX
8
RASTER
10
17.893
20
13.492
30
0
0
VERTEX
8
RASTER
10
17.28
20
12.879
30
0
0
VERTEX
8
RASTER
10
16.494
20
10.908
30
0
0
VERTEX
8
RASTER
10
17.444
20
10.223
30
0
0
VERTEX
8
RASTER
10
17.689
20
9.957
30
0
0
VERTEX
8
RASTER
10
18.026
20
9.784
30
0
0
VERTEX
8
RASTER
10
18.333
20
9.682
30
0
0
VERTEX
8
RASTER
10
19.763
20
9.682
30
0
0
VERTEX
8
RASTER
10
20.039
20
9.814
30
0
0
VERTEX
8
RASTER
10
19.998
20
10.019
30
0
0
VERTEX
8
RASTER
10
19.793
20
10.325
30
0
0
VERTEX
8
RASTER
10
19.18
20
10.836
30
0
0
VERTEX
8
RASTER
10
18.23
20
11.214
30
0
0
VERTEX
8
RASTER
10
17.72
20
11.214
30
0
0
VERTEX
8
RASTER
10
17.515
20
11.112
30
0
0
VERTEX
8
RASTER
10
17.413
20
11.214
30
0
0
VERTEX
8
RASTER
10
17.852
20
11.49
30
0
0
VERTEX
8
RASTER
10
18.465
20
12.205
30
0
0
VERTEX
8
RASTER
10
18.843
20
13.053
30
0
0
VERTEX
8
RASTER
10
18.946
20
13.461
30
0
0
SEQEND
8
RASTER
0
POLYLINE
8
RASTER
66
1
70
1
0
VERTEX
8
RASTER
10
16.8
20
13.359
30
0
0
VERTEX
8
RASTER
10
15.339
20
11.96
30
0
0
VERTEX
8
RASTER
10
14.583
20
10.325
30
0
0
VERTEX
8
RASTER
10
15.605
20
9.61
30
0
0
VERTEX
8
RASTER
10
16.054
20
9.14
30
0
0
VERTEX
8
RASTER
10
16.392
20
8.967
30
0
0
VERTEX
8
RASTER
10
17.617
20
8.864
30
0
0
VERTEX
8
RASTER
10
17.893
20
8.997
30
0
0
VERTEX
8
RASTER
10
17.75
20
9.304
30
0
0
VERTEX
8
RASTER
10
17.444
20
9.712
30
0
0
VERTEX
8
RASTER
10
16.933
20
10.121
30
0
0
VERTEX
8
RASTER
10
15.983
20
10.601
30
0
0
VERTEX
8
RASTER
10
15.503
20
10.427
30
0
0
VERTEX
8
RASTER
10
15.646
20
10.734
30
0
0
VERTEX
8
RASTER
10
15.911
20
10.877
30
0
0
VERTEX
8
RASTER
10
16.32
20
11.285
30
0
0
VERTEX
8
RASTER
10
16.698
20
12.031
30
0
0
VERTEX
8
RASTER
10
16.902
20
12.746
30
0
0
VERTEX
8
RASTER
10
16.902
20
13.257
30
0
0
SEQEND
8
RASTER
0
POLYLINE
8
RASTER
66
1
70
1
0
VERTEX
8
RASTER
10
20.069
20
12.951
30
0
0
VERTEX
8
RASTER
10
19.558
20
12.848
30
0
0
VERTEX
8
RASTER
10
19.017
20
12.573
30
0
0
VERTEX
8
RASTER
10
18.363
20
11.551
30
0
0
VERTEX
8
RASTER
10
19.048
20
11.316
30
0
0
VERTEX
8
RASTER
10
19.558
20
11.316
30
0
0
VERTEX
8
RASTER
10
20.713
20
11.796
30
0
0
VERTEX
8
RASTER
10
21.428
20
12.511
30
0
0
VERTEX
8
RASTER
10
21.499
20
12.644
30
0
0
VERTEX
8
RASTER
10
21.428
20
12.777
30
0
0
VERTEX
8
RASTER
10
20.784
20
12.951
30
0
0
SEQEND
8
RASTER
0
POLYLINE
8
RASTER
66
1
70
1
0
VERTEX
8
RASTER
10
10.947
20
11.898
30
0
0
VERTEX
8
RASTER
10
10.027
20
11.347
30
0
0
VERTEX
8
RASTER
10
9.986
20
10.836
30
0
0
VERTEX
8
RASTER
10
10.129
20
10.836
30
0
0
VERTEX
8
RASTER
10
10.232
20
11.04
30
0
0
VERTEX
8
RASTER
10
10.906
20
11.694
30
0
0
SEQEND
8
RASTER
0
POLYLINE
8
RASTER
66
1
70
1
0
VERTEX
8
RASTER
10
14.757
20
11.827
30
0
0
VERTEX
8
RASTER
10
14.246
20
11.623
30
0
0
VERTEX
8
RASTER
10
13.46
20
11.49
30
0
0
VERTEX
8
RASTER
10
13.123
20
10.601
30
0
0
VERTEX
8
RASTER
10
12.642
20
9.712
30
0
0
VERTEX
8
RASTER
10
13.562
20
9.099
30
0
0
VERTEX
8
RASTER
10
13.909
20
8.732
30
0
0
VERTEX
8
RASTER
10
14.553
20
8.354
30
0
0
VERTEX
8
RASTER
10
14.859
20
8.251
30
0
0
VERTEX
8
RASTER
10
15.983
20
8.251
30
0
0
VERTEX
8
RASTER
10
16.085
20
8.456
30
0
0
VERTEX
8
RASTER
10
15.911
20
8.793
30
0
0
VERTEX
8
RASTER
10
15.401
20
9.304
30
0
0
VERTEX
8
RASTER
10
13.838
20
10.09
30
0
0
VERTEX
8
RASTER
10
14.379
20
10.673
30
0
0
VERTEX
8
RASTER
10
14.859
20
11.725
30
0
0
SEQEND
8
RASTER
0
POLYLINE
8
RASTER
66
1
70
1
0
VERTEX
8
RASTER
10
8.219
20
7.741
30
0
0
VERTEX
8
RASTER
10
6.963
20
6.954
30
0
0
VERTEX
8
RASTER
10
5.9
20
5.871
30
0
0
VERTEX
8
RASTER
10
5.328
20
5.422
30
0
0
VERTEX
8
RASTER
10
5.287
20
5.115
30
0
0
VERTEX
8
RASTER
10
5.532
20
5.013
30
0
0
VERTEX
8
RASTER
10
6.207
20
5.463
30
0
0
VERTEX
8
RASTER
10
6.922
20
6.178
30
0
0
VERTEX
8
RASTER
10
7.065
20
6.443
30
0
0
VERTEX
8
RASTER
10
8.25
20
7.608
30
0
0
SEQEND
8
RASTER
0
POLYLINE
8
RASTER
66
1
70
1
0
VERTEX
8
RASTER
10
8.832
20
7.741
30
0
0
VERTEX
8
RASTER
10
8.699
20
7.669
30
0
0
VERTEX
8
RASTER
10
8.188
20
6.954
30
0
0
VERTEX
8
RASTER
10
7.198
20
4.982
30
0
0
VERTEX
8
RASTER
10
7.269
20
4.747
30
0
0
VERTEX
8
RASTER
10
7.402
20
4.676
30
0
0
VERTEX
8
RASTER
10
7.637
20
4.747
30
0
0
VERTEX
8
RASTER
10
8.117
20
5.595
30
0
0
VERTEX
8
RASTER
10
8.628
20
6.821
30
0
0
VERTEX
8
RASTER
10
8.904
20
7.669
30
0
0
SEQEND
8
RASTER
0
POLYLINE
8
CUT
66
1
70
1
0
VERTEX
8
CUT
10
31.281
20
24.004
30
0
0
VERTEX
8
CUT
10
33.856
20
23.807
30
0
0
VERTEX
8
CUT
10
35.005
20
23.385
30
0
0
VERTEX
8
CUT
10
35.624
20
22.825
30
0
0
VERTEX
8
CUT
10
35.86
20
21.292
30
0
0
VERTEX
8
CUT
10
35.408
20
19.268
30
0
0
VERTEX
8
CUT
10
36.931
20
16.271
30
0
0
VERTEX
8
CUT
10
37.334
20
14.021
30
0
0
VERTEX
8
CUT
10
36.931
20
6.171
30
0
0
VERTEX
8
CUT
10
36.43
20
5.395
30
0
0
VERTEX
8
CUT
10
35.693
20
4.854
30
0
0
VERTEX
8
CUT
10
34.131
20
4.255
30
0
0
VERTEX
8
CUT
10
32.618
20
4
30
0
0
VERTEX
8
CUT
10
29.316
20
4.235
30
0
0
VERTEX
8
CUT
10
28.167
20
4.658
30
0
0
VERTEX
8
CUT
10
27.096
20
5.356
30
0
0
VERTEX
8
CUT
10
26.487
20
6.515
30
0
0
VERTEX
8
CUT
10
26.231
20
9.404
30
0
0
VERTEX
8
CUT
10
26.133
20
14.414
30
0
0
VERTEX
8
CUT
10
26.29
20
15.535
30
0
0
VERTEX
8
CUT
10
28.098
20
19.622
30
0
0
VERTEX
8
CUT
10
27.646
20
20.84
30
0
0
VERTEX
8
CUT
10
27.705
20
22.57
30
0
0
VERTEX
8
CUT
10
28.118
20
23.139
30
0
0
VERTEX
8
CUT
10
28.992
20
23.64
30
0
0
SEQEND
8
CUT
0
POLYLINE
8
RASTER
66
1
70
1
0
VERTEX
8
RASTER
10
30.682
20
23.719
30
0
0
VERTEX
8
RASTER
10
32.716
20
23.749
30
0
0
VERTEX
8
RASTER
10
32.912
20
23.65
30
0
0
VERTEX
8
RASTER
10
33.305
20
23.65
30
0
0
VERTEX
8
RASTER
10
34.386
20
23.356
30
0
0
VERTEX
8
RASTER
10
35.103
20
22.992
30
0
0
VERTEX
8
RASTER
10
35.3
20
22.795
30
0
0
VERTEX
8
RASTER
10
35.565
20
22.275
30
0
0
VERTEX
8
RASTER
10
35.663
20
21.587
30
0
0
VERTEX
8
RASTER
10
35.565
20
21.39
30
0
0
VERTEX
8
RASTER
10
35.565
20
20.899
30
0
0
VERTEX
8
RASTER
10
35.3
20
20.378
30
0
0
VERTEX
8
RASTER
10
34.976
20
20.015
30
0
0
VERTEX
8
RASTER
10
35.074
20
19.229
30
0
0
VERTEX
8
RASTER
10
35.634
20
18.02
30
0
0
VERTEX
8
RASTER
10
36.744
20
15.987
30
0
0
VERTEX
8
RASTER
10
37.039
20
14.611
30
0
0
VERTEX
8
RASTER
10
37.039
20
11.467
30
0
0
VERTEX
8
RASTER
10
36.941
20
11.27
30
0
0
VERTEX
8
RASTER
10
36.941
20
9.207
30
0
0
VERTEX
8
RASTER
10
36.842
20
9.011
30
0
0
VERTEX
8
RASTER
10
36.842
20
6.947
30
0
0
VERTEX
8
RASTER
10
36.744
20
6.456
30
0
0
VERTEX
8
RASTER
10
36.479
20
5.935
30
0
0
VERTEX
8
RASTER
10
35.791
20
5.247
30
0
0
VERTEX
8
RASTER
10
34.386
20
4.589
30
0
0
VERTEX
8
RASTER
10
33.109
20
4.294
30
0
0
VERTEX
8
RASTER
10
32.421
20
4.294
30
0
0
VERTEX
8
RASTER
10
32.225
20
4.196
30
0
0
VERTEX
8
RASTER
10
31.242
20
4.196
30
0
0
VERTEX
8
RASTER
10
31.045
20
4.294
30
0
0
VERTEX
8
RASTER
10
29.768
20
4.393
30
0
0
VERTEX
8
RASTER
10
28.786
20
4.687
30
0
0
VERTEX
8
RASTER
10
27.675
20
5.247
30
0
0
VERTEX
8
RASTER
10
27.086
20
5.837
30
0
0
VERTEX
8
RASTER
10
26.821
20
6.358
30
0
0
VERTEX
8
RASTER
10
26.624
20
7.144
30
0
0
VERTEX
8
RASTER
10
26.526
20
10.091
30
0
0
VERTEX
8
RASTER
10
26.428
20
10.288
30
0
0
VERTEX
8
RASTER
10
26.428
20
14.906
30
0
0
VERTEX
8
RASTER
10
26.821
20
16.281
30
0
0
VERTEX
8
RASTER
10
28.294
20
19.032
30
0
0
VERTEX
8
RASTER
10
28.491
20
19.72
30
0
0
VERTEX
8
RASTER
10
28.461
20
20.084
30
0
0
VERTEX
8
RASTER
10
28.167
20
20.378
30
0
0
VERTEX
8
RASTER
10
27.901
20
20.899
30
0
0
VERTEX
8
RASTER
10
27.803
20
21.98
30
0
0
VERTEX
8
RASTER
10
28.167
20
22.795
30
0
0
VERTEX
8
RASTER
10
28.56
20
23.09
30
0
0
VERTEX
8
RASTER
10
29.67
20
23.552
30
0
0
SEQEND
8
RASTER
0
POLYLINE
8
RASTER
66
1
70
1
0
VERTEX
8
RASTER
10
31.438
20
23.257
30
0
0
VERTEX
8
RASTER
10
31.242
20
23.159
30
0
0
VERTEX
8
RASTER
10
30.456
20
23.159
30
0
0
VERTEX
8
RASTER
10
29.375
20
22.864
30
0
0
VERTEX
8
RASTER
10
28.658
20
22.501
30
0
0
VERTEX
8
RASTER
10
28.393
20
21.98
30
0
0
VERTEX
8
RASTER
10
28.393
20
21.292
30
0
0
VERTEX
8
RASTER
10
28.491
20
20.997
30
0
0
VERTEX
8
RASTER
10
28.982
20
20.31
30
0
0
VERTEX
8
RASTER
10
28.982
20
19.425
30
0
0
VERTEX
8
RASTER
10
28.786
20
18.836
30
0
0
VERTEX
8
RASTER
10
28.167
20
17.588
30
0
0
VERTEX
8
RASTER
10
27.312
20
16.085
30
0
0
VERTEX
8
RASTER
10
27.017
20
15.102
30
0
0
VERTEX
8
RASTER
10
27.017
20
14.709
30
0
0
VERTEX
8
RASTER
10
26.919
20
14.513
30
0
0
VERTEX
8
RASTER
10
27.017
20
9.502
30
0
0
VERTEX
8
RASTER
10
27.115
20
9.305
30
0
0
VERTEX
8
RASTER
10
27.115
20
7.93
30
0
0
VERTEX
8
RASTER
10
27.214
20
7.733
30
0
0
VERTEX
8
RASTER
10
27.214
20
6.947
30
0
0
VERTEX
8
RASTER
10
27.312
20
6.554
30
0
0
VERTEX
8
RASTER
10
27.479
20
6.23
30
0
0
VERTEX
8
RASTER
10
27.97
20
5.739
30
0
0
VERTEX
8
RASTER
10
28.589
20
5.375
30
0
0
VERTEX
8
RASTER
10
29.768
20
4.982
30
0
0
VERTEX
8
RASTER
10
30.849
20
4.884
30
0
0
VERTEX
8
RASTER
10
31.045
20
4.786
30
0
0
VERTEX
8
RASTER
10
32.519
20
4.786
30
0
0
VERTEX
8
RASTER
10
34.386
20
5.179
30
0
0
VERTEX
8
RASTER
10
35.496
20
5.739
30
0
0
VERTEX
8
RASTER
10
35.988
20
6.23
30
0
0
VERTEX
8
RASTER
10
36.155
20
6.554
30
0
0
VERTEX
8
RASTER
10
36.253
20
6.849
30
0
0
VERTEX
8
RASTER
10
36.253
20
8.716
30
0
0
VERTEX
8
RASTER
10
36.351
20
8.912
30
0
0
VERTEX
8
RASTER
10
36.351
20
10.484
30
0
0
VERTEX
8
RASTER
10
36.449
20
10.681
30
0
0
VERTEX
8
RASTER
10
36.548
20
13.923
30
0
0
VERTEX
8
RASTER
10
36.449
20
14.12
30
0
0
VERTEX
8
RASTER
10
36.351
20
15.299
30
0
0
VERTEX
8
RASTER
10
36.056
20
16.183
30
0
0
VERTEX
8
RASTER
10
34.877
20
18.345
30
0
0
VERTEX
8
RASTER
10
34.484
20
19.524
30
0
0
VERTEX
8
RASTER
10
34.484
20
20.31
30
0
0
VERTEX
8
RASTER
10
34.809
20
20.673
30
0
0
VERTEX
8
RASTER
10
35.074
20
21.39
30
0
0
VERTEX
8
RASTER
10
35.074
20
21.98
30
0
0
VERTEX
8
RASTER
10
34.907
20
22.304
30
0
0
VERTEX
8
RASTER
10
34.612
20
22.599
30
0
0
VERTEX
8
RASTER
10
33.502
20
23.061
30
0
0
SEQEND
8
RASTER
0
POLYLINE
8
RASTER
66
1
70
1
0
VERTEX
8
RASTER
10
31.075
20
22.835
30
0
0
VERTEX
8
RASTER
10
32.323
20
22.864
30
0
0
VERTEX
8
RASTER
10
32.519
20
22.766
30
0
0
VERTEX
8
RASTER
10
33.109
20
22.766
30
0
0
VERTEX
8
RASTER
10
34.023
20
22.402
30
0
0
VERTEX
8
RASTER
10
34.19
20
22.078
30
0
0
VERTEX
8
RASTER
10
34.062
20
21.813
30
0
0
VERTEX
8
RASTER
10
33.826
20
21.656
30
0
0
VERTEX
8
RASTER
10
32.912
20
21.39
30
0
0
VERTEX
8
RASTER
10
30.652
20
21.39
30
0
0
VERTEX
8
RASTER
10
30.161
20
21.489
30
0
0
VERTEX
8
RASTER
10
29.542
20
21.754
30
0
0
VERTEX
8
RASTER
10
29.346
20
21.951
30
0
0
VERTEX
8
RASTER
10
29.277
20
22.078
30
0
0
VERTEX
8
RASTER
10
29.346
20
22.304
30
0
0
VERTEX
8
RASTER
10
29.965
20
22.668
30
0
0
SEQEND
8
RASTER
0
POLYLINE
8
RASTER
66
1
70
1
0
VERTEX
8
RASTER
10
30.751
20
22.373
30
0
0
VERTEX
8
RASTER
10
29.798
20
22.049
30
0
0
VERTEX
8
RASTER
10
30.063
20
21.882
30
0
0
VERTEX
8
RASTER
10
30.456
20
21.882
30
0
0
VERTEX
8
RASTER
10
30.652
20
21.783
30
0
0
VERTEX
8
RASTER
10
32.912
20
21.783
30
0
0
VERTEX
8
RASTER
10
33.404
20
21.882
30
0
0
VERTEX
8
RASTER
10
33.502
20
21.98
30
0
0
VERTEX
8
RASTER
10
33.433
20
22.108
30
0
0
VERTEX
8
RASTER
10
32.716
20
22.373
30
0
0
SEQEND
8
RASTER
0
POLYLINE
8
RASTER
66
1
70
1
0
VERTEX
8
RASTER
10
34.219
20
20.477
30
0
0
VERTEX
8
RASTER
10
34.288
20
20.408
30
0
0
VERTEX
8
RASTER
10
34.121
20
20.084
30
0
0
VERTEX
8
RASTER
10
33.207
20
19.72
30
0
0
VERTEX
8
RASTER
10
32.814
20
19.72
30
0
0
VERTEX
8
RASTER
10
32.618
20
19.622
30
0
0
VERTEX
8
RASTER
10
30.652
20
19.622
30
0
0
VERTEX
8
RASTER
10
30.456
20
19.72
30
0
0
VERTEX
8
RASTER
10
30.063
20
19.72
30
0
0
VERTEX
8
RASTER
10
29.346
20
19.985
30
0
0
VERTEX
8
RASTER
10
29.179
20
20.31
30
0
0
VERTEX
8
RASTER
10
29.375
20
20.408
30
0
0
VERTEX
8
RASTER
10
29.866
20
20.211
30
0
0
VERTEX
8
RASTER
10
30.849
20
20.113
30
0
0
VERTEX
8
RASTER
10
31.045
20
20.015
30
0
0
VERTEX
8
RASTER
10
32.519
20
20.015
30
0
0
VERTEX
8
RASTER
10
32.716
20
20.113
30
0
0
VERTEX
8
RASTER
10
33.6
20
20.211
30
0
0
SEQEND
8
RASTER
0
POLYLINE
8
RASTER
66
1
70
1
0
VERTEX
8
RASTER
10
27.833
20
15.957
30
0
0
VERTEX
8
RASTER
10
28
20
15.888
30
0
0
VERTEX
8
RASTER
10
27.607
20
14.414
30
0
0
VERTEX
8
RASTER
10
27.607
20
12.744
30
0
0
VERTEX
8
RASTER
10
27.705
20
12.548
30
0
0
VERTEX
8
RASTER
10
27.705
20
10.681
30
0
0
VERTEX
8
RASTER
10
27.803
20
10.484
30
0
0
VERTEX
8
RASTER
10
27.803
20
8.323
30
0
0
VERTEX
8
RASTER
10
27.901
20
8.126
30
0
0
VERTEX
8
RASTER
10
27.901
20
7.045
30
0
0
VERTEX
8
RASTER
10
28.068
20
6.721
30
0
0
VERTEX
8
RASTER
10
28.56
20
6.328
30
0
0
VERTEX
8
RASTER
10
29.08
20
6.063
30
0
0
VERTEX
8
RASTER
10
30.554
20
5.67
30
0
0
VERTEX
8
RASTER
10
31.763
20
5.601
30
0
0
VERTEX
8
RASTER
10
33.011
20
5.67
30
0
0
VERTEX
8
RASTER
10
33.895
20
5.866
30
0
0
VERTEX
8
RASTER
10
35.103
20
6.426
30
0
0
VERTEX
8
RASTER
10
35.398
20
6.721
30
0
0
VERTEX
8
RASTER
10
35.565
20
7.144
30
0
0
VERTEX
8
RASTER
10
35.565
20
8.323
30
0
0
VERTEX
8
RASTER
10
35.732
20
8.686
30
0
0
VERTEX
8
RASTER
10
35.762
20
7.045
30
0
0
VERTEX
8
RASTER
10
35.496
20
6.525
30
0
0
VERTEX
8
RASTER
10
35.202
20
6.23
30
0
0
VERTEX
8
RASTER
10
34.288
20
5.768
30
0
0
VERTEX
8
RASTER
10
33.207
20
5.473
30
0
0
VERTEX
8
RASTER
10
32.814
20
5.473
30
0
0
VERTEX
8
RASTER
10
32.618
20
5.375
30
0
0
VERTEX
8
RASTER
10
30.947
20
5.375
30
0
0
VERTEX
8
RASTER
10
30.751
20
5.473
30
0
0
VERTEX
8
RASTER
10
30.259
20
5.473
30
0
0
VERTEX
8
RASTER
10
28.982
20
5.866
30
0
0
VERTEX
8
RASTER
10
28.265
20
6.23
30
0
0
VERTEX
8
RASTER
10
27.872
20
6.623
30
0
0
VERTEX
8
RASTER
10
27.705
20
6.947
30
0
0
VERTEX
8
RASTER
10
27.705
20
7.733
30
0
0
VERTEX
8
RASTER
10
27.607
20
7.93
30
0
0
VERTEX
8
RASTER
10
27.607
20
9.895
30
0
0
VERTEX
8
RASTER
10
27.508
20
10.091
30
0
0
VERTEX
8
RASTER
10
27.508
20
11.958
30
0
0
VERTEX
8
RASTER
10
27.41
20
12.155
30
0
0
VERTEX
8
RASTER
10
27.41
20
14.611
30
0
0
SEQEND
8
RASTER
0
POLYLINE
8
RASTER
66
1
70
1
0
VERTEX
8
RASTER
10
35.791
20
9.865
30
0
0
VERTEX
8
RASTER
10
35.86
20
9.797
30
0
0
VERTEX
8
RASTER
10
35.86
20
8.912
30
0
0
VERTEX
8
RASTER
10
35.762
20
8.814
30
0
0
VERTEX
8
RASTER
10
35.663
20
8.912
30
0
0
VERTEX
8
RASTER
10
35.663
20
9.109
30
0
0
VERTEX
8
RASTER
10
35.762
20
9.305
30
0
0
SEQEND
8
RASTER
0
POLYLINE
8
CUT
66
1
70
1
0
VERTEX
8
CUT
10
46.908
20
24.004
30
0
0
VERTEX
8
CUT
10
48.399
20
23.791
30
0
0
VERTEX
8
CUT
10
53.322
20
22.097
30
0
0
VERTEX
8
CUT
10
53.771
20
21.312
30
0
0
VERTEX
8
CUT
10
54.422
20
17.813
30
0
0
VERTEX
8
CUT
10
57.371
20
17.623
30
0
0
VERTEX
8
CUT
10
58.01
20
17.365
30
0
0
VERTEX
8
CUT
10
61.027
20
14.213
30
0
0
VERTEX
8
CUT
10
61.33
20
13.395
30
0
0
VERTEX
8
CUT
10
61.207
20
12.284
30
0
0
VERTEX
8
CUT
10
59.076
20
7.574
30
0
0
VERTEX
8
CUT
10
55.05
20
7.114
30
0
0
VERTEX
8
CUT
10
52.885
20
7.193
30
0
0
VERTEX
8
CUT
10
50.306
20
9.997
30
0
0
VERTEX
8
CUT
10
47.894
20
10.389
30
0
0
VERTEX
8
CUT
10
43.274
20
12.161
30
0
0
VERTEX
8
CUT
10
42.646
20
12.654
30
0
0
VERTEX
8
CUT
10
41.334
20
18.183
30
0
0
VERTEX
8
CUT
10
41.367
20
19.787
30
0
0
VERTEX
8
CUT
10
43.24
20
21.503
30
0
0
SEQEND
8
CUT
0
POLYLINE
8
RASTER
66
1
70
1
0
VERTEX
8
RASTER
10
47.121
20
23.791
30
0
0
VERTEX
8
RASTER
10
47.311
20
23.825
30
0
0
VERTEX
8
RASTER
10
48.881
20
23.376
30
0
0
VERTEX
8
RASTER
10
52.582
20
22.142
30
0
0
VERTEX
8
RASTER
10
53.177
20
21.84
30
0
0
VERTEX
8
RASTER
10
53.592
20
21.021
30
0
0
VERTEX
8
RASTER
10
54.119
20
17.511
30
0
0
VERTEX
8
RASTER
10
57.18
20
17.432
30
0
0
VERTEX
8
RASTER
10
57.663
20
17.241
30
0
0
VERTEX
8
RASTER
10
58.56
20
16.456
30
0
0
VERTEX
8
RASTER
10
58.941
20
15.94
30
0
0
VERTEX
8
RASTER
10
60.579
20
14.325
30
0
0
VERTEX
8
RASTER
10
60.915
20
13.877
30
0
0
VERTEX
8
RASTER
10
61.106
20
13.507
30
0
0
VERTEX
8
RASTER
10
61.106
20
12.834
30
0
0
VERTEX
8
RASTER
10
58.896
20
7.754
30
0
0
VERTEX
8
RASTER
10
58.078
20
7.563
30
0
0
VERTEX
8
RASTER
10
55.386
20
7.451
30
0
0
VERTEX
8
RASTER
10
55.162
20
7.339
30
0
0
VERTEX
8
RASTER
10
53.143
20
7.339
30
0
0
VERTEX
8
RASTER
10
52.324
20
8.09
30
0
0
VERTEX
8
RASTER
10
52.167
20
8.382
30
0
0
VERTEX
8
RASTER
10
51.651
20
8.875
30
0
0
VERTEX
8
RASTER
10
51.494
20
9.167
30
0
0
VERTEX
8
RASTER
10
50.036
20
10.849
30
0
0
VERTEX
8
RASTER
10
49.857
20
10.849
30
0
0
VERTEX
8
RASTER
10
49.7
20
10.669
30
0
0
VERTEX
8
RASTER
10
49.106
20
10.367
30
0
0
VERTEX
8
RASTER
10
48.433
20
10.479
30
0
0
VERTEX
8
RASTER
10
43.722
20
12.273
30
0
0
VERTEX
8
RASTER
10
43.128
20
12.576
30
0
0
VERTEX
8
RASTER
10
42.904
20
12.8
30
0
0
VERTEX
8
RASTER
10
42.601
20
13.619
30
0
0
VERTEX
8
RASTER
10
41.928
20
16.983
30
0
0
VERTEX
8
RASTER
10
41.592
20
18.105
30
0
0
VERTEX
8
RASTER
10
41.479
20
19.339
30
0
0
VERTEX
8
RASTER
10
41.782
20
19.933
30
0
0
VERTEX
8
RASTER
10
42.119
20
20.269
30
0
0
VERTEX
8
RASTER
10
46.156
20
23.297
30
0
0
SEQEND
8
RASTER
0
POLYLINE
8
RASTER
66
1
70
1
0
VERTEX
8
RASTER
10
47.087
20
23.152
30
0
0
VERTEX
8
RASTER
10
42.455
20
19.709
30
0
0
VERTEX
8
RASTER
10
42.152
20
19.226
30
0
0
VERTEX
8
RASTER
10
42.152
20
19.002
30
0
0
VERTEX
8
RASTER
10
42.41
20
17.802
30
0
0
VERTEX
8
RASTER
10
42.679
20
17.959
30
0
0
VERTEX
8
RASTER
10
42.937
20
17.544
30
0
0
VERTEX
8
RASTER
10
42.825
20
17.432
30
0
0
VERTEX
8
RASTER
10
42.522
20
17.511
30
0
0
VERTEX
8
RASTER
10
42.489
20
17.208
30
0
0
VERTEX
8
RASTER
10
42.792
20
16.053
30
0
0
VERTEX
8
RASTER
10
43.016
20
16.053
30
0
0
VERTEX
8
RASTER
10
43.274
20
15.862
30
0
0
VERTEX
8
RASTER
10
43.128
20
15.671
30
0
0
VERTEX
8
RASTER
10
42.904
20
15.828
30
0
0
VERTEX
8
RASTER
10
42.825
20
15.75
30
0
0
VERTEX
8
RASTER
10
43.465
20
13.249
30
0
0
VERTEX
8
RASTER
10
43.722
20
13.058
30
0
0
VERTEX
8
RASTER
10
45.102
20
12.531
30
0
0
VERTEX
8
RASTER
10
45.102
20
12.643
30
0
0
VERTEX
8
RASTER
10
44.878
20
12.755
30
0
0
VERTEX
8
RASTER
10
45.035
20
12.98
30
0
0
VERTEX
8
RASTER
10
44.99
20
13.137
30
0
0
VERTEX
8
RASTER
10
45.517
20
12.946
30
0
0
VERTEX
8
RASTER
10
45.55
20
13.092
30
0
0
VERTEX
8
RASTER
10
45.326
20
13.092
30
0
0
VERTEX
8
RASTER
10
45.517
20
13.283
30
0
0
VERTEX
8
RASTER
10
45.708
20
13.249
30
0
0
VERTEX
8
RASTER
10
45.775
20
12.98
30
0
0
VERTEX
8
RASTER
10
45.932
20
13.137
30
0
0
VERTEX
8
RASTER
10
45.999
20
12.98
30
0
0
VERTEX
8
RASTER
10
46.19
20
13.058
30
0
0
VERTEX
8
RASTER
10
46.526
20
12.834
30
0
0
VERTEX
8
RASTER
10
46.717
20
12.912
30
0
0
VERTEX
8
RASTER
10
46.896
20
12.755
30
0
0
VERTEX
8
RASTER
10
47.053
20
12.8
30
0
0
VERTEX
8
RASTER
10
46.863
20
12.385
30
0
0
VERTEX
8
RASTER
10
46.941
20
12.24
30
0
0
VERTEX
8
RASTER
10
47.053
20
12.195
30
0
0
VERTEX
8
RASTER
10
47.278
20
12.352
30
0
0
VERTEX
8
RASTER
10
47.345
20
12.195
30
0
0
VERTEX
8
RASTER
10
47.536
20
12.273
30
0
0
VERTEX
8
RASTER
10
47.793
20
12.083
30
0
0
VERTEX
8
RASTER
10
47.793
20
12.24
30
0
0
VERTEX
8
RASTER
10
47.95
20
12.24
30
0
0
VERTEX
8
RASTER
10
48.063
20
11.746
30
0
0
VERTEX
8
RASTER
10
47.681
20
11.791
30
0
0
VERTEX
8
RASTER
10
47.838
20
11.679
30
0
0
VERTEX
8
RASTER
10
47.681
20
11.522
30
0
0
VERTEX
8
RASTER
10
48.881
20
11.152
30
0
0
VERTEX
8
RASTER
10
49.072
20
11.522
30
0
0
VERTEX
8
RASTER
10
48.993
20
12.497
30
0
0
VERTEX
8
RASTER
10
48.881
20
12.722
30
0
0
VERTEX
8
RASTER
10
48.881
20
13.17
30
0
0
VERTEX
8
RASTER
10
48.993
20
13.395
30
0
0
VERTEX
8
RASTER
10
48.769
20
13.507
30
0
0
VERTEX
8
RASTER
10
48.657
20
14.516
30
0
0
VERTEX
8
RASTER
10
48.736
20
14.595
30
0
0
VERTEX
8
RASTER
10
48.848
20
14.325
30
0
0
VERTEX
8
RASTER
10
49.218
20
14.74
30
0
0
VERTEX
8
RASTER
10
49.364
20
14.55
30
0
0
VERTEX
8
RASTER
10
49.521
20
14.55
30
0
0
VERTEX
8
RASTER
10
49.521
20
14.707
30
0
0
VERTEX
8
RASTER
10
49.364
20
14.819
30
0
0
VERTEX
8
RASTER
10
49.666
20
15.189
30
0
0
VERTEX
8
RASTER
10
49.476
20
15.268
30
0
0
VERTEX
8
RASTER
10
49.184
20
15.111
30
0
0
VERTEX
8
RASTER
10
49.184
20
14.886
30
0
0
VERTEX
8
RASTER
10
48.993
20
14.965
30
0
0
VERTEX
8
RASTER
10
48.96
20
14.774
30
0
0
VERTEX
8
RASTER
10
48.769
20
14.74
30
0
0
VERTEX
8
RASTER
10
48.736
20
14.931
30
0
0
VERTEX
8
RASTER
10
48.545
20
14.965
30
0
0
VERTEX
8
RASTER
10
48.579
20
15.38
30
0
0
VERTEX
8
RASTER
10
48.881
20
15.638
30
0
0
VERTEX
8
RASTER
10
49.184
20
15.559
30
0
0
VERTEX
8
RASTER
10
49.218
20
15.75
30
0
0
VERTEX
8
RASTER
10
49.106
20
15.974
30
0
0
VERTEX
8
RASTER
10
49.251
20
16.165
30
0
0
VERTEX
8
RASTER
10
49.476
20
16.165
30
0
0
VERTEX
8
RASTER
10
49.521
20
16.277
30
0
0
VERTEX
8
RASTER
10
49.364
20
16.232
30
0
0
VERTEX
8
RASTER
10
49.33
20
16.423
30
0
0
VERTEX
8
RASTER
10
49.554
20
16.759
30
0
0
VERTEX
8
RASTER
10
49.812
20
16.568
30
0
0
VERTEX
8
RASTER
10
50.003
20
16.198
30
0
0
VERTEX
8
RASTER
10
50.149
20
16.501
30
0
0
VERTEX
8
RASTER
10
50.373
20
16.613
30
0
0
VERTEX
8
RASTER
10
50.642
20
16.501
30
0
0
VERTEX
8
RASTER
10
50.754
20
16.232
30
0
0
VERTEX
8
RASTER
10
50.564
20
16.086
30
0
0
VERTEX
8
RASTER
10
50.979
20
15.671
30
0
0
VERTEX
8
RASTER
10
51.539
20
17.017
30
0
0
VERTEX
8
RASTER
10
51.876
20
17.354
30
0
0
VERTEX
8
RASTER
10
52.246
20
17.544
30
0
0
VERTEX
8
RASTER
10
53.334
20
17.578
30
0
0
VERTEX
8
RASTER
10
53.255
20
18.666
30
0
0
VERTEX
8
RASTER
10
53.177
20
18.811
30
0
0
VERTEX
8
RASTER
10
52.919
20
18.89
30
0
0
VERTEX
8
RASTER
10
53.143
20
19.114
30
0
0
VERTEX
8
RASTER
10
53.143
20
19.339
30
0
0
VERTEX
8
RASTER
10
53.065
20
19.417
30
0
0
VERTEX
8
RASTER
10
52.84
20
19.26
30
0
0
VERTEX
8
RASTER
10
52.392
20
19.484
30
0
0
VERTEX
8
RASTER
10
52.582
20
19.787
30
0
0
VERTEX
8
RASTER
10
52.392
20
20.202
30
0
0
VERTEX
8
RASTER
10
52.616
20
20.157
30
0
0
VERTEX
8
RASTER
10
52.885
20
19.866
30
0
0
VERTEX
8
RASTER
10
52.997
20
19.484
30
0
0
VERTEX
8
RASTER
10
53.031
20
20.236
30
0
0
VERTEX
8
RASTER
10
52.919
20
20.46
30
0
0
VERTEX
8
RASTER
10
52.919
20
20.909
30
0
0
VERTEX
8
RASTER
10
52.728
20
21.279
30
0
0
VERTEX
8
RASTER
10
52.246
20
21.582
30
0
0
VERTEX
8
RASTER
10
47.76
20
23.04
30
0
0
SEQEND
8
RASTER
0
POLYLINE
8
RASTER
66
1
70
1
0
VERTEX
8
RASTER
10
52.167
20
20.314
30
0
0
VERTEX
8
RASTER
10
52.246
20
19.899
30
0
0
VERTEX
8
RASTER
10
52.1
20
19.597
30
0
0
VERTEX
8
RASTER
10
52.022
20
19.675
30
0
0
VERTEX
8
RASTER
10
52.1
20
19.866
30
0
0
VERTEX
8
RASTER
10
51.909
20
20.011
30
0
0
VERTEX
8
RASTER
10
51.607
20
19.821
30
0
0
VERTEX
8
RASTER
10
51.764
20
20.045
30
0
0
SEQEND
8
RASTER
0
POLYLINE
8
RASTER
66
1
70
1
0
VERTEX
8
RASTER
10
49.588
20
17.286
30
0
0
VERTEX
8
RASTER
10
50.193
20
17.062
30
0
0
VERTEX
8
RASTER
10
50.227
20
16.871
30
0
0
VERTEX
8
RASTER
10
49.969
20
16.568
30
0
0
VERTEX
8
RASTER
10
49.891
20
16.647
30
0
0
VERTEX
8
RASTER
10
50.081
20
16.95
30
0
0
VERTEX
8
RASTER
10
49.891
20
16.983
30
0
0
VERTEX
8
RASTER
10
49.857
20
16.793
30
0
0
VERTEX
8
RASTER
10
49.7
20
16.793
30
0
0
VERTEX
8
RASTER
10
49.779
20
17.096
30
0
0
SEQEND
8
RASTER
0
POLYLINE
8
RASTER
66
1
70
1
0
VERTEX
8
RASTER
10
42.859
20
17.062
30
0
0
VERTEX
8
RASTER
10
43.05
20
17.096
30
0
0
VERTEX
8
RASTER
10
43.162
20
16.983
30
0
0
VERTEX
8
RASTER
10
43.162
20
16.647
30
0
0
VERTEX
8
RASTER
10
43.05
20
16.535
30
0
0
VERTEX
8
RASTER
10
42.792
20
16.613
30
0
0
VERTEX
8
RASTER
10
42.713
20
16.759
30
0
0
SEQEND
8
RASTER
0
POLYLINE
8
RASTER
66
1
70
1
0
VERTEX
8
RASTER
10
52.47
20
16.983
30
0
0
VERTEX
8
RASTER
10
52.167
20
16.838
30
0
0
VERTEX
8
RASTER
10
51.909
20
16.311
30
0
0
VERTEX
8
RASTER
10
51.909
20
16.086
30
0
0
VERTEX
8
RASTER
10
51.461
20
14.965
30
0
0
VERTEX
8
RASTER
10
51.573
20
14.628
30
0
0
VERTEX
8
RASTER
10
51.494
20
14.55
30
0
0
VERTEX
8
RASTER
10
51.382
20
14.707
30
0
0
VERTEX
8
RASTER
10
51.236
20
14.404
30
0
0
VERTEX
8
RASTER
10
50.451
20
12.161
30
0
0
VERTEX
8
RASTER
10
50.451
20
11.488
30
0
0
VERTEX
8
RASTER
10
50.642
20
11.118
30
0
0
VERTEX
8
RASTER
10
52.055
20
9.615
30
0
0
VERTEX
8
RASTER
10
53.222
20
8.09
30
0
0
VERTEX
8
RASTER
10
53.334
20
8.045
30
0
0
VERTEX
8
RASTER
10
53.558
20
8.314
30
0
0
VERTEX
8
RASTER
10
53.513
20
8.045
30
0
0
VERTEX
8
RASTER
10
53.816
20
8.011
30
0
0
VERTEX
8
RASTER
10
53.894
20
8.045
30
0
0
VERTEX
8
RASTER
10
53.816
20
8.348
30
0
0
VERTEX
8
RASTER
10
53.592
20
8.572
30
0
0
VERTEX
8
RASTER
10
54.074
20
9.548
30
0
0
VERTEX
8
RASTER
10
54.265
20
9.469
30
0
0
VERTEX
8
RASTER
10
54.377
20
9.582
30
0
0
VERTEX
8
RASTER
10
54.152
20
9.806
30
0
0
VERTEX
8
RASTER
10
54.567
20
10.064
30
0
0
VERTEX
8
RASTER
10
54.377
20
10.254
30
0
0
VERTEX
8
RASTER
10
54.41
20
10.445
30
0
0
VERTEX
8
RASTER
10
54.713
20
10.367
30
0
0
VERTEX
8
RASTER
10
54.825
20
10.479
30
0
0
VERTEX
8
RASTER
10
54.522
20
10.669
30
0
0
VERTEX
8
RASTER
10
55.577
20
12.98
30
0
0
VERTEX
8
RASTER
10
55.835
20
13.17
30
0
0
VERTEX
8
RASTER
10
56.395
20
13.17
30
0
0
VERTEX
8
RASTER
10
56.81
20
12.24
30
0
0
VERTEX
8
RASTER
10
57.068
20
12.273
30
0
0
VERTEX
8
RASTER
10
57.483
20
12.083
30
0
0
VERTEX
8
RASTER
10
57.214
20
12.307
30
0
0
VERTEX
8
RASTER
10
57.214
20
12.576
30
0
0
VERTEX
8
RASTER
10
57.483
20
12.531
30
0
0
VERTEX
8
RASTER
10
57.483
20
12.688
30
0
0
VERTEX
8
RASTER
10
57.18
20
12.834
30
0
0
VERTEX
8
RASTER
10
56.844
20
12.497
30
0
0
VERTEX
8
RASTER
10
56.765
20
12.8
30
0
0
VERTEX
8
RASTER
10
56.878
20
13.025
30
0
0
VERTEX
8
RASTER
10
57.293
20
13.058
30
0
0
VERTEX
8
RASTER
10
57.483
20
12.868
30
0
0
VERTEX
8
RASTER
10
57.741
20
13.058
30
0
0
VERTEX
8
RASTER
10
57.82
20
12.98
30
0
0
VERTEX
8
RASTER
10
57.663
20
12.8
30
0
0
VERTEX
8
RASTER
10
57.708
20
12.688
30
0
0
VERTEX
8
RASTER
10
57.932
20
12.688
30
0
0
VERTEX
8
RASTER
10
58.044
20
12.464
30
0
0
VERTEX
8
RASTER
10
58.268
20
12.352
30
0
0
VERTEX
8
RASTER
10
57.965
20
12.049
30
0
0
VERTEX
8
RASTER
10
58.044
20
11.903
30
0
0
VERTEX
8
RASTER
10
58.38
20
11.791
30
0
0
VERTEX
8
RASTER
10
58.302
20
11.6
30
0
0
VERTEX
8
RASTER
10
58.493
20
11.185
30
0
0
VERTEX
8
RASTER
10
58.302
20
11.04
30
0
0
VERTEX
8
RASTER
10
58.414
20
10.815
30
0
0
VERTEX
8
RASTER
10
58.336
20
10.669
30
0
0
VERTEX
8
RASTER
10
57.999
20
10.4
30
0
0
VERTEX
8
RASTER
10
58.044
20
10.782
30
0
0
VERTEX
8
RASTER
10
57.82
20
10.737
30
0
0
VERTEX
8
RASTER
10
57.775
20
10.445
30
0
0
VERTEX
8
RASTER
10
57.595
20
10.176
30
0
0
VERTEX
8
RASTER
10
57.438
20
10.176
30
0
0
VERTEX
8
RASTER
10
57.629
20
10.591
30
0
0
VERTEX
8
RASTER
10
57.55
20
10.669
30
0
0
VERTEX
8
RASTER
10
57.326
20
10.512
30
0
0
VERTEX
8
RASTER
10
57.259
20
10.669
30
0
0
VERTEX
8
RASTER
10
57.068
20
10.703
30
0
0
VERTEX
8
RASTER
10
57.068
20
11.04
30
0
0
VERTEX
8
RASTER
10
57.293
20
11.6
30
0
0
VERTEX
8
RASTER
10
57.102
20
11.679
30
0
0
VERTEX
8
RASTER
10
56.765
20
10.849
30
0
0
VERTEX
8
RASTER
10
56.956
20
10.591
30
0
0
VERTEX
8
RASTER
10
56.922
20
10.333
30
0
0
VERTEX
8
RASTER
10
57.147
20
10.221
30
0
0
VERTEX
8
RASTER
10
57.214
20
9.952
30
0
0
VERTEX
8
RASTER
10
57.483
20
9.772
30
0
0
VERTEX
8
RASTER
10
57.259
20
9.279
30
0
0
VERTEX
8
RASTER
10
57.18
20
9.357
30
0
0
VERTEX
8
RASTER
10
57.371
20
9.772
30
0
0
VERTEX
8
RASTER
10
57.102
20
9.615
30
0
0
VERTEX
8
RASTER
10
57.068
20
9.806
30
0
0
VERTEX
8
RASTER
10
56.922
20
9.727
30
0
0
VERTEX
8
RASTER
10
56.922
20
9.503
30
0
0
VERTEX
8
RASTER
10
56.765
20
9.548
30
0
0
VERTEX
8
RASTER
10
56.698
20
9.391
30
0
0
VERTEX
8
RASTER
10
56.62
20
9.469
30
0
0
VERTEX
8
RASTER
10
56.878
20
9.997
30
0
0
VERTEX
8
RASTER
10
57.035
20
10.064
30
0
0
VERTEX
8
RASTER
10
56.956
20
10.142
30
0
0
VERTEX
8
RASTER
10
56.653
20
9.997
30
0
0
VERTEX
8
RASTER
10
56.541
20
9.66
30
0
0
VERTEX
8
RASTER
10
56.395
20
9.582
30
0
0
VERTEX
8
RASTER
10
56.171
20
9.694
30
0
0
VERTEX
8
RASTER
10
55.98
20
9.436
30
0
0
VERTEX
8
RASTER
10
56.059
20
9.357
30
0
0
VERTEX
8
RASTER
10
56.474
20
9.436
30
0
0
VERTEX
8
RASTER
10
56.205
20
8.83
30
0
0
VERTEX
8
RASTER
10
56.586
20
8.718
30
0
0
VERTEX
8
RASTER
10
56.362
20
8.494
30
0
0
VERTEX
8
RASTER
10
56.205
20
8.718
30
0
0
VERTEX
8
RASTER
10
56.025
20
8.718
30
0
0
VERTEX
8
RASTER
10
55.868
20
8.426
30
0
0
VERTEX
8
RASTER
10
55.913
20
8.269
30
0
0
VERTEX
8
RASTER
10
55.644
20
8.382
30
0
0
VERTEX
8
RASTER
10
55.498
20
8.684
30
0
0
VERTEX
8
RASTER
10
55.352
20
8.606
30
0
0
VERTEX
8
RASTER
10
55.308
20
8.314
30
0
0
VERTEX
8
RASTER
10
54.971
20
8.157
30
0
0
VERTEX
8
RASTER
10
56.395
20
8.124
30
0
0
VERTEX
8
RASTER
10
56.62
20
8.236
30
0
0
VERTEX
8
RASTER
10
57.965
20
8.236
30
0
0
VERTEX
8
RASTER
10
58.448
20
8.426
30
0
0
VERTEX
8
RASTER
10
59.087
20
9.694
30
0
0
VERTEX
8
RASTER
10
60.433
20
12.946
30
0
0
VERTEX
8
RASTER
10
60.511
20
13.249
30
0
0
VERTEX
8
RASTER
10
60.13
20
13.877
30
0
0
VERTEX
8
RASTER
10
58.493
20
15.492
30
0
0
VERTEX
8
RASTER
10
58.336
20
15.783
30
0
0
VERTEX
8
RASTER
10
57.775
20
16.344
30
0
0
VERTEX
8
RASTER
10
57.18
20
16.759
30
0
0
VERTEX
8
RASTER
10
56.732
20
16.871
30
0
0
VERTEX
8
RASTER
10
53.928
20
16.871
30
0
0
VERTEX
8
RASTER
10
53.704
20
16.983
30
0
0
SEQEND
8
RASTER
0
POLYLINE
8
RASTER
66
1
70
1
0
VERTEX
8
RASTER
10
57.999
20
13.025
30
0
0
VERTEX
8
RASTER
10
58.302
20
13.058
30
0
0
VERTEX
8
RASTER
10
58.414
20
12.946
30
0
0
VERTEX
8
RASTER
10
58.336
20
12.8
30
0
0
VERTEX
8
RASTER
10
58.078
20
12.722
30
0
0
SEQEND
8
RASTER
0
POLYLINE
8
RASTER
66
1
70
1
0
VERTEX
8
RASTER
10
49.745
20
12.352
30
0
0
VERTEX
8
RASTER
10
49.251
20
12.127
30
0
0
VERTEX
8
RASTER
10
49.251
20
11.97
30
0
0
VERTEX
8
RASTER
10
49.554
20
12.049
30
0
0
VERTEX
8
RASTER
10
49.745
20
11.97
30
0
0
SEQEND
8
RASTER
0
POLYLINE
8
RASTER
66
1
70
1
0
VERTEX
8
RASTER
10
55.801
20
12.352
30
0
0
VERTEX
8
RASTER
10
55.61
20
12.161
30
0
0
VERTEX
8
RASTER
10
55.689
20
11.97
30
0
0
VERTEX
8
RASTER
10
55.532
20
11.634
30
0
0
VERTEX
8
RASTER
10
55.756
20
11.679
30
0
0
VERTEX
8
RASTER
10
55.913
20
12.083
30
0
0
VERTEX
8
RASTER
10
56.025
20
12.127
30
0
0
VERTEX
8
RASTER
10
56.025
20
11.454
30
0
0
VERTEX
8
RASTER
10
56.25
20
11.454
30
0
0
VERTEX
8
RASTER
10
56.81
20
11.185
30
0
0
VERTEX
8
RASTER
10
56.765
20
11.41
30
0
0
VERTEX
8
RASTER
10
56.317
20
11.522
30
0
0
VERTEX
8
RASTER
10
56.171
20
11.825
30
0
0
VERTEX
8
RASTER
10
56.362
20
12.083
30
0
0
VERTEX
8
RASTER
10
56.317
20
12.195
30
0
0
VERTEX
8
RASTER
10
56.137
20
12.352
30
0
0
VERTEX
8
RASTER
10
55.868
20
12.195
30
0
0
SEQEND
8
RASTER
0
POLYLINE
8
RASTER
66
1
70
1
0
VERTEX
8
RASTER
10
56.586
20
12.24
30
0
0
VERTEX
8
RASTER
10
56.508
20
12.161
30
0
0
VERTEX
8
RASTER
10
56.698
20
11.791
30
0
0
VERTEX
8
RASTER
10
56.878
20
11.791
30
0
0
VERTEX
8
RASTER
10
56.922
20
12.015
30
0
0
VERTEX
8
RASTER
10
56.653
20
12.083
30
0
0
SEQEND
8
RASTER
0
POLYLINE
8
RASTER
66
1
70
1
0
VERTEX
8
RASTER
10
49.633
20
11.903
30
0
0
VERTEX
8
RASTER
10
49.251
20
11.679
30
0
0
VERTEX
8
RASTER
10
49.442
20
11.376
30
0
0
VERTEX
8
RASTER
10
49.666
20
11.6
30
0
0
SEQEND
8
RASTER
0
POLYLINE
8
RASTER
66
1
70
1
0
VERTEX
8
RASTER
10
57.932
20
11.791
30
0
0
VERTEX
8
RASTER
10
57.82
20
11.41
30
0
0
VERTEX
8
RASTER
10
57.629
20
11.264
30
0
0
VERTEX
8
RASTER
10
57.663
20
11.185
30
0
0
VERTEX
8
RASTER
10
57.965
20
11.264
30
0
0
VERTEX
8
RASTER
10
58.156
20
11.073
30
0
0
VERTEX
8
RASTER
10
58.268
20
11.342
30
0
0
VERTEX
8
RASTER
10
58.078
20
11.488
30
0
0
VERTEX
8
RASTER
10
58.156
20
11.679
30
0
0
SEQEND
8
RASTER
0
POLYLINE
8
RASTER
66
1
70
1
0
VERTEX
8
RASTER
10
55.24
20
11.118
30
0
0
VERTEX
8
RASTER
10
55.195
20
10.849
30
0
0
VERTEX
8
RASTER
10
55.352
20
10.894
30
0
0
VERTEX
8
RASTER
10
55.689
20
10.737
30
0
0
VERTEX
8
RASTER
10
55.689
20
10.894
30
0
0
SEQEND
8
RASTER
0
POLYLINE
8
RASTER
66
1
70
1
0
VERTEX
8
RASTER
10
55.61
20
9.469
30
0
0
VERTEX
8
RASTER
10
55.465
20
9.391
30
0
0
VERTEX
8
RASTER
10
55.465
20
9.211
30
0
0
VERTEX
8
RASTER
10
55.913
20
8.942
30
0
0
VERTEX
8
RASTER
10
55.913
20
9.211
30
0
0
VERTEX
8
RASTER
10
55.756
20
9.167
30
0
0
SEQEND
8
RASTER
0
POLYLINE
8
CUT
66
1
70
1
0
VERTEX
8
CUT
10
72.651
20
24.004
30
0
0
VERTEX
8
CUT
10
74.669
20
23.93
30
0
0
VERTEX
8
CUT
10
77.118
20
22.933
30
0
0
VERTEX
8
CUT
10
80.268
20
17.962
30
0
0
VERTEX
8
CUT
10
81.449
20
13.114
30
0
0
VERTEX
8
CUT
10
80.994
20
9.263
30
0
0
VERTEX
8
CUT
10
79.21
20
6.248
30
0
0
VERTEX
8
CUT
10
76.835
20
4.685
30
0
0
VERTEX
8
CUT
10
73.574
20
4.009
30
0
0
VERTEX
8
CUT
10
70.326
20
4.575
30
0
0
VERTEX
8
CUT
10
67.816
20
6.125
30
0
0
VERTEX
8
CUT
10
66.007
20
8.746
30
0
0
VERTEX
8
CUT
10
65.33
20
12.007
30
0
0
VERTEX
8
CUT
10
65.81
20
15.957
30
0
0
VERTEX
8
CUT
10
67.434
20
19.747
30
0
0
VERTEX
8
CUT
10
70.067
20
22.897
30
0
0
SEQEND
8
CUT
0
POLYLINE
8
RASTER
66
1
70
1
0
VERTEX
8
RASTER
10
72.504
20
23.659
30
0
0
VERTEX
8
RASTER
10
74.312
20
23.696
30
0
0
VERTEX
8
RASTER
10
75.051
20
23.45
30
0
0
VERTEX
8
RASTER
10
76.564
20
22.626
30
0
0
VERTEX
8
RASTER
10
77.918
20
21.272
30
0
0
VERTEX
8
RASTER
10
78.779
20
20.042
30
0
0
VERTEX
8
RASTER
10
79.727
20
18.282
30
0
0
VERTEX
8
RASTER
10
80.588
20
16.067
30
0
0
VERTEX
8
RASTER
10
81.08
20
13.976
30
0
0
VERTEX
8
RASTER
10
81.08
20
11.022
30
0
0
VERTEX
8
RASTER
10
80.957
20
10.407
30
0
0
VERTEX
8
RASTER
10
80.342
20
8.562
30
0
0
VERTEX
8
RASTER
10
79.763
20
7.54
30
0
0
VERTEX
8
RASTER
10
78.287
20
5.941
30
0
0
VERTEX
8
RASTER
10
77.549
20
5.448
30
0
0
VERTEX
8
RASTER
10
76.404
20
4.87
30
0
0
VERTEX
8
RASTER
10
74.559
20
4.378
30
0
0
VERTEX
8
RASTER
10
72.344
20
4.378
30
0
0
VERTEX
8
RASTER
10
71.728
20
4.501
30
0
0
VERTEX
8
RASTER
10
70.252
20
4.993
30
0
0
VERTEX
8
RASTER
10
68.984
20
5.694
30
0
0
VERTEX
8
RASTER
10
67.877
20
6.556
30
0
0
VERTEX
8
RASTER
10
67.139
20
7.417
30
0
0
VERTEX
8
RASTER
10
66.068
20
9.546
30
0
0
VERTEX
8
RASTER
10
65.699
20
11.022
30
0
0
VERTEX
8
RASTER
10
65.699
20
13.73
30
0
0
VERTEX
8
RASTER
10
65.822
20
13.976
30
0
0
VERTEX
8
RASTER
10
65.945
20
15.206
30
0
0
VERTEX
8
RASTER
10
66.314
20
16.437
30
0
0
VERTEX
8
RASTER
10
67.385
20
18.934
30
0
0
VERTEX
8
RASTER
10
68.369
20
20.534
30
0
0
VERTEX
8
RASTER
10
69.723
20
22.134
30
0
0
VERTEX
8
RASTER
10
71.076
20
23.118
30
0
0
SEQEND
8
RASTER
0
POLYLINE
8
RASTER
66
1
70
1
0
VERTEX
8
RASTER
10
72.713
20
23.081
30
0
0
VERTEX
8
RASTER
10
71.975
20
22.835
30
0
0
VERTEX
8
RASTER
10
70.584
20
22.011
30
0
0
VERTEX
8
RASTER
10
69.6
20
21.026
30
0
0
VERTEX
8
RASTER
10
68.369
20
19.304
30
0
0
VERTEX
8
RASTER
10
67.422
20
17.421
30
0
0
VERTEX
8
RASTER
10
66.683
20
15.329
30
0
0
VERTEX
8
RASTER
10
66.437
20
14.099
30
0
0
VERTEX
8
RASTER
10
66.437
20
13.36
30
0
0
VERTEX
8
RASTER
10
66.314
20
13.114
30
0
0
VERTEX
8
RASTER
10
66.314
20
11.761
30
0
0
VERTEX
8
RASTER
10
66.437
20
11.515
30
0
0
VERTEX
8
RASTER
10
66.56
20
10.284
30
0
0
VERTEX
8
RASTER
10
66.807
20
9.546
30
0
0
VERTEX
8
RASTER
10
67.508
20
8.155
30
0
0
VERTEX
8
RASTER
10
68.615
20
6.802
30
0
0
VERTEX
8
RASTER
10
70.498
20
5.608
30
0
0
VERTEX
8
RASTER
10
72.098
20
5.116
30
0
0
VERTEX
8
RASTER
10
73.943
20
4.993
30
0
0
VERTEX
8
RASTER
10
74.189
20
5.116
30
0
0
VERTEX
8
RASTER
10
75.42
20
5.239
30
0
0
VERTEX
8
RASTER
10
76.158
20
5.485
30
0
0
VERTEX
8
RASTER
10
78.041
20
6.556
30
0
0
VERTEX
8
RASTER
10
78.779
20
7.294
30
0
0
VERTEX
8
RASTER
10
79.763
20
8.894
30
0
0
VERTEX
8
RASTER
10
80.219
20
10.161
30
0
0
VERTEX
8
RASTER
10
80.465
20
11.269
30
0
0
VERTEX
8
RASTER
10
80.465
20
13.483
30
0
0
VERTEX
8
RASTER
10
80.096
20
15.329
30
0
0
VERTEX
8
RASTER
10
79.357
20
17.421
30
0
0
VERTEX
8
RASTER
10
78.287
20
19.55
30
0
0
VERTEX
8
RASTER
10
77.056
20
21.272
30
0
0
VERTEX
8
RASTER
10
76.072
20
22.134
30
0
0
VERTEX
8
RASTER
10
74.559
20
22.958
30
0
0
VERTEX
8
RASTER
10
74.066
20
23.081
30
0
0
SEQEND
8
RASTER
0
POLYLINE
8
RASTER
66
1
70
1
0
VERTEX
8
RASTER
10
69.304
20
19.107
30
0
0
VERTEX
8
RASTER
10
69.514
20
19.021
30
0
0
VERTEX
8
RASTER
10
69.391
20
18.774
30
0
0
VERTEX
8
RASTER
10
69.637
20
18.036
30
0
0
VERTEX
8
RASTER
10
69.304
20
17.63
30
0
0
VERTEX
8
RASTER
10
68.812
20
17.458
30
0
0
VERTEX
8
RASTER
10
68.492
20
17.63
30
0
0
VERTEX
8
RASTER
10
68.406
20
18.159
30
0
0
VERTEX
8
RASTER
10
68.738
20
18.811
30
0
0
VERTEX
8
RASTER
10
69.021
20
19.021
30
0
0
VERTEX
8
RASTER
10
69.354
20
18.934
30
0
0
SEQEND
8
RASTER
0
POLYLINE
8
RASTER
66
1
70
1
0
VERTEX
8
RASTER
10
67.951
20
15.292
30
0
0
VERTEX
8
RASTER
10
68.283
20
15.329
30
0
0
VERTEX
8
RASTER
10
68.652
20
14.96
30
0
0
VERTEX
8
RASTER
10
68.652
20
14.345
30
0
0
VERTEX
8
RASTER
10
68.16
20
13.853
30
0
0
VERTEX
8
RASTER
10
67.754
20
14.062
30
0
0
VERTEX
8
RASTER
10
67.545
20
14.468
30
0
0
VERTEX
8
RASTER
10
67.545
20
14.714
30
0
0
SEQEND
8
RASTER
0
POLYLINE
8
RASTER
66
1
70
1
0
VERTEX
8
RASTER
10
73.242
20
15.046
30
0
0
VERTEX
8
RASTER
10
74.189
20
15.083
30
0
0
VERTEX
8
RASTER
10
74.595
20
14.874
30
0
0
VERTEX
8
RASTER
10
74.891
20
14.554
30
0
0
VERTEX
8
RASTER
10
75.174
20
13.73
30
0
0
VERTEX
8
RASTER
10
75.174
20
13.237
30
0
0
VERTEX
8
RASTER
10
74.842
20
12.339
30
0
0
VERTEX
8
RASTER
10
74.349
20
11.847
30
0
0
VERTEX
8
RASTER
10
73.943
20
11.638
30
0
0
VERTEX
8
RASTER
10
73.205
20
11.638
30
0
0
VERTEX
8
RASTER
10
72.627
20
11.921
30
0
0
VERTEX
8
RASTER
10
72.221
20
12.622
30
0
0
VERTEX
8
RASTER
10
72.221
20
13.73
30
0
0
VERTEX
8
RASTER
10
72.676
20
14.628
30
0
0
SEQEND
8
RASTER
0
POLYLINE
8
RASTER
66
1
70
1
0
VERTEX
8
RASTER
10
78.164
20
14.677
30
0
0
VERTEX
8
RASTER
10
78.496
20
14.714
30
0
0
VERTEX
8
RASTER
10
78.742
20
14.468
30
0
0
VERTEX
8
RASTER
10
78.742
20
13.976
30
0
0
VERTEX
8
RASTER
10
78.373
20
13.606
30
0
0
VERTEX
8
RASTER
10
78.09
20
13.693
30
0
0
VERTEX
8
RASTER
10
77.881
20
14.099
30
0
0
SEQEND
8
RASTER
0
POLYLINE
8
RASTER
66
1
70
1
0
VERTEX
8
RASTER
10
73.537
20
14.431
30
0
0
VERTEX
8
RASTER
10
73.451
20
14.345
30
0
0
VERTEX
8
RASTER
10
73.66
20
13.766
30
0
0
VERTEX
8
RASTER
10
73.82
20
13.976
30
0
0
SEQEND
8
RASTER
0
POLYLINE
8
RASTER
66
1
70
1
0
VERTEX
8
RASTER
10
74.066
20
13.853
30
0
0
VERTEX
8
RASTER
10
73.98
20
13.766
30
0
0
VERTEX
8
RASTER
10
74.399
20
13.57
30
0
0
VERTEX
8
RASTER
10
74.349
20
13.397
30
0
0
VERTEX
8
RASTER
10
74.472
20
13.274
30
0
0
VERTEX
8
RASTER
10
74.645
20
13.643
30
0
0
VERTEX
8
RASTER
10
74.891
20
13.643
30
0
0
VERTEX
8
RASTER
10
74.682
20
13.853
30
0
0
VERTEX
8
RASTER
10
74.522
20
13.766
30
0
0
SEQEND
8
RASTER
0
POLYLINE
8
RASTER
66
1
70
1
0
VERTEX
8
RASTER
10
73.414
20
13.57
30
0
0
VERTEX
8
RASTER
10
73.414
20
13.397
30
0
0
VERTEX
8
RASTER
10
73.119
20
13.323
30
0
0
VERTEX
8
RASTER
10
73.242
20
12.782
30
0
0
VERTEX
8
RASTER
10
73.365
20
12.954
30
0
0
VERTEX
8
RASTER
10
73.537
20
12.905
30
0
0
VERTEX
8
RASTER
10
73.488
20
13.2
30
0
0
VERTEX
8
RASTER
10
73.574
20
13.237
30
0
0
VERTEX
8
RASTER
10
73.734
20
12.905
30
0
0
VERTEX
8
RASTER
10
74.066
20
13.114
30
0
0
VERTEX
8
RASTER
10
74.276
20
12.782
30
0
0
VERTEX
8
RASTER
10
74.399
20
13.2
30
0
0
VERTEX
8
RASTER
10
74.226
20
13.151
30
0
0
SEQEND
8
RASTER
0
POLYLINE
8
RASTER
66
1
70
1
0
VERTEX
8
RASTER
10
67.951
20
11.355
30
0
0
VERTEX
8
RASTER
10
68.283
20
11.392
30
0
0
VERTEX
8
RASTER
10
69.181
20
10.936
30
0
0
VERTEX
8
RASTER
10
69.92
20
10.075
30
0
0
VERTEX
8
RASTER
10
70.375
20
8.931
30
0
0
VERTEX
8
RASTER
10
70.252
20
8.069
30
0
0
VERTEX
8
RASTER
10
69.92
20
7.663
30
0
0
VERTEX
8
RASTER
10
69.391
20
7.577
30
0
0
VERTEX
8
RASTER
10
68.738
20
7.909
30
0
0
VERTEX
8
RASTER
10
68.369
20
8.155
30
0
0
VERTEX
8
RASTER
10
67.877
20
8.771
30
0
0
VERTEX
8
RASTER
10
67.422
20
9.669
30
0
0
VERTEX
8
RASTER
10
67.299
20
10.407
30
0
0
VERTEX
8
RASTER
10
67.508
20
11.059
30
0
0
SEQEND
8
RASTER
0
POLYLINE
8
RASTER
66
1
70
1
0
VERTEX
8
RASTER
10
77.426
20
11.109
30
0
0
VERTEX
8
RASTER
10
78.127
20
11.146
30
0
0
VERTEX
8
RASTER
10
78.459
20
10.986
30
0
0
VERTEX
8
RASTER
10
78.742
20
10.53
30
0
0
VERTEX
8
RASTER
10
78.742
20
9.546
30
0
0
VERTEX
8
RASTER
10
78.164
20
8.278
30
0
0
VERTEX
8
RASTER
10
77.549
20
7.663
30
0
0
VERTEX
8
RASTER
10
76.896
20
7.331
30
0
0
VERTEX
8
RASTER
10
76.527
20
7.331
30
0
0
VERTEX
8
RASTER
10
75.875
20
7.786
30
0
0
VERTEX
8
RASTER
10
75.666
20
8.315
30
0
0
VERTEX
8
RASTER
10
75.666
20
8.931
30
0
0
VERTEX
8
RASTER
10
75.949
20
9.755
30
0
0
VERTEX
8
RASTER
10
76.121
20
9.706
30
0
0
VERTEX
8
RASTER
10
76.564
20
10.001
30
0
0
VERTEX
8
RASTER
10
76.736
20
9.829
30
0
0
VERTEX
8
RASTER
10
76.773
20
10.284
30
0
0
VERTEX
8
RASTER
10
76.983
20
10.444
30
0
0
VERTEX
8
RASTER
10
76.933
20
10.616
30
0
0
VERTEX
8
RASTER
10
77.106
20
10.616
30
0
0
VERTEX
8
RASTER
10
77.266
20
10.407
30
0
0
VERTEX
8
RASTER
10
77.389
20
10.53
30
0
0
VERTEX
8
RASTER
10
77.106
20
10.862
30
0
0
VERTEX
8
RASTER
10
76.983
20
10.813
30
0
0
VERTEX
8
RASTER
10
76.121
20
9.829
30
0
0
VERTEX
8
RASTER
10
76.035
20
9.915
30
0
0
VERTEX
8
RASTER
10
76.367
20
10.444
30
0
0
VERTEX
8
RASTER
10
76.983
20
10.936
30
0
0
VERTEX
8
RASTER
10
77.143
20
11.022
30
0
0
VERTEX
8
RASTER
10
77.352
20
10.936
30
0
0
SEQEND
8
RASTER
0
POLYLINE
8
RASTER
66
1
70
1
0
VERTEX
8
RASTER
10
72.381
20
6.802
30
0
0
VERTEX
8
RASTER
10
73.119
20
6.753
30
0
0
VERTEX
8
RASTER
10
73.451
20
6.347
30
0
0
VERTEX
8
RASTER
10
73.365
20
6.064
30
0
0
VERTEX
8
RASTER
10
72.959
20
5.854
30
0
0
VERTEX
8
RASTER
10
72.307
20
5.941
30
0
0
VERTEX
8
RASTER
10
72.061
20
6.187
30
0
0
VERTEX
8
RASTER
10
71.975
20
6.47
30
0
0
VERTEX
8
RASTER
10
72.061
20
6.63
30
0
0
SEQEND
8
RASTER
0
POLYLINE
8
CUT
66
1
70
1
0
VERTEX
8
CUT
10
92.071
20
24.004
30
0
0
VERTEX
8
CUT
10
94.249
20
23.623
30
0
0
VERTEX
8
CUT
10
94.728
20
23.125
30
0
0
VERTEX
8
CUT
10
99.845
20
20.82
30
0
0
VERTEX
8
CUT
10
100.49
20
20.117
30
0
0
VERTEX
8
CUT
10
100.431
20
19.16
30
0
0
VERTEX
8
CUT
10
100.265
20
18.837
30
0
0
VERTEX
8
CUT
10
99.728
20
18.593
30
0
0
VERTEX
8
CUT
10
99.455
20
18.085
30
0
0
VERTEX
8
CUT
10
99.357
20
17.206
30
0
0
VERTEX
8
CUT
10
99.523
20
16.884
30
0
0
VERTEX
8
CUT
10
102.277
20
16.923
30
0
0
VERTEX
8
CUT
10
102.873
20
17.597
30
0
0
VERTEX
8
CUT
10
103.625
20
17.861
30
0
0
VERTEX
8
CUT
10
104.367
20
17.724
30
0
0
VERTEX
8
CUT
10
105.442
20
16.552
30
0
0
VERTEX
8
CUT
10
104.631
20
15.253
30
0
0
VERTEX
8
CUT
10
104.729
20
11.639
30
0
0
VERTEX
8
CUT
10
105.051
20
10.926
30
0
0
VERTEX
8
CUT
10
104.426
20
9.598
30
0
0
VERTEX
8
CUT
10
103.879
20
9.168
30
0
0
VERTEX
8
CUT
10
102.267
20
6.776
30
0
0
VERTEX
8
CUT
10
100.138
20
5.096
30
0
0
VERTEX
8
CUT
10
97.921
20
4.48
30
0
0
VERTEX
8
CUT
10
95.06
20
4.119
30
0
0
VERTEX
8
CUT
10
93.897
20
4.226
30
0
0
VERTEX
8
CUT
10
93.116
20
5.008
30
0
0
VERTEX
8
CUT
10
92.989
20
6.541
30
0
0
VERTEX
8
CUT
10
92.794
20
6.834
30
0
0
VERTEX
8
CUT
10
89.659
20
7.996
30
0
0
VERTEX
8
CUT
10
86.045
20
9.852
30
0
0
VERTEX
8
CUT
10
85.498
20
10.477
30
0
0
VERTEX
8
CUT
10
85.449
20
11.483
30
0
0
VERTEX
8
CUT
10
86.152
20
14.003
30
0
0
VERTEX
8
CUT
10
86.729
20
14.501
30
0
0
VERTEX
8
CUT
10
87.031
20
15.175
30
0
0
VERTEX
8
CUT
10
86.934
20
16.933
30
0
0
VERTEX
8
CUT
10
89.268
20
19.287
30
0
0
VERTEX
8
CUT
10
90.362
20
21.904
30
0
0
VERTEX
8
CUT
10
91.563
20
23.731
30
0
0
SEQEND
8
CUT
0
POLYLINE
8
RASTER
66
1
70
1
0
VERTEX
8
RASTER
10
92.061
20
23.721
30
0
0
VERTEX
8
RASTER
10
92.423
20
23.75
30
0
0
VERTEX
8
RASTER
10
93.399
20
23.359
30
0
0
VERTEX
8
RASTER
10
98.673
20
21.113
30
0
0
VERTEX
8
RASTER
10
99.679
20
20.556
30
0
0
VERTEX
8
RASTER
10
99.943
20
19.941
30
0
0
VERTEX
8
RASTER
10
98.117
20
15.771
30
0
0
VERTEX
8
RASTER
10
98.869
20
16.132
30
0
0
VERTEX
8
RASTER
10
100.529
20
16.62
30
0
0
VERTEX
8
RASTER
10
101.799
20
16.718
30
0
0
VERTEX
8
RASTER
10
102.58
20
16.523
30
0
0
VERTEX
8
RASTER
10
102.805
20
16.689
30
0
0
VERTEX
8
RASTER
10
103.039
20
17.236
30
0
0
VERTEX
8
RASTER
10
103.264
20
17.402
30
0
0
VERTEX
8
RASTER
10
103.85
20
17.402
30
0
0
VERTEX
8
RASTER
10
104.367
20
17.138
30
0
0
VERTEX
8
RASTER
10
104.533
20
16.816
30
0
0
VERTEX
8
RASTER
10
104.533
20
16.23
30
0
0
VERTEX
8
RASTER
10
104.436
20
15.937
30
0
0
VERTEX
8
RASTER
10
104.172
20
15.419
30
0
0
VERTEX
8
RASTER
10
103.977
20
15.224
30
0
0
VERTEX
8
RASTER
10
104.436
20
14.276
30
0
0
VERTEX
8
RASTER
10
104.533
20
13.788
30
0
0
VERTEX
8
RASTER
10
104.533
20
12.714
30
0
0
VERTEX
8
RASTER
10
104.436
20
12.518
30
0
0
VERTEX
8
RASTER
10
104.338
20
11.542
30
0
0
VERTEX
8
RASTER
10
103.752
20
9.588
30
0
0
VERTEX
8
RASTER
10
103.293
20
8.68
30
0
0
VERTEX
8
RASTER
10
102.316
20
7.313
30
0
0
VERTEX
8
RASTER
10
101.242
20
6.238
30
0
0
VERTEX
8
RASTER
10
100.363
20
5.652
30
0
0
VERTEX
8
RASTER
10
99.259
20
5.096
30
0
0
VERTEX
8
RASTER
10
98.283
20
4.803
30
0
0
VERTEX
8
RASTER
10
97.306
20
4.705
30
0
0
VERTEX
8
RASTER
10
97.111
20
4.607
30
0
0
VERTEX
8
RASTER
10
96.525
20
4.607
30
0
0
VERTEX
8
RASTER
10
95.548
20
4.412
30
0
0
VERTEX
8
RASTER
10
94.181
20
4.412
30
0
0
VERTEX
8
RASTER
10
93.663
20
4.676
30
0
0
VERTEX
8
RASTER
10
93.302
20
5.291
30
0
0
VERTEX
8
RASTER
10
93.302
20
6.854
30
0
0
VERTEX
8
RASTER
10
93.233
20
6.981
30
0
0
VERTEX
8
RASTER
10
90.469
20
8.123
30
0
0
VERTEX
8
RASTER
10
87.666
20
9.422
30
0
0
VERTEX
8
RASTER
10
87.832
20
9.491
30
0
0
VERTEX
8
RASTER
10
88.125
20
9.393
30
0
0
VERTEX
8
RASTER
10
92.911
20
7.342
30
0
0
VERTEX
8
RASTER
10
93.272
20
7.371
30
0
0
VERTEX
8
RASTER
10
93.399
20
7.635
30
0
0
VERTEX
8
RASTER
10
93.497
20
7.928
30
0
0
VERTEX
8
RASTER
10
93.399
20
8.319
30
0
0
VERTEX
8
RASTER
10
93.399
20
9.1
30
0
0
VERTEX
8
RASTER
10
93.595
20
9.784
30
0
0
VERTEX
8
RASTER
10
93.595
20
10.174
30
0
0
VERTEX
8
RASTER
10
93.985
20
11.346
30
0
0
VERTEX
8
RASTER
10
94.474
20
12.225
30
0
0
VERTEX
8
RASTER
10
94.474
20
12.421
30
0
0
VERTEX
8
RASTER
10
94.405
20
12.548
30
0
0
VERTEX
8
RASTER
10
93.985
20
12.714
30
0
0
VERTEX
8
RASTER
10
93.009
20
12.714
30
0
0
VERTEX
8
RASTER
10
92.813
20
12.616
30
0
0
VERTEX
8
RASTER
10
92.423
20
12.616
30
0
0
VERTEX
8
RASTER
10
91.739
20
12.323
30
0
0
VERTEX
8
RASTER
10
91.514
20
12.391
30
0
0
VERTEX
8
RASTER
10
90.86
20
13.886
30
0
0
VERTEX
8
RASTER
10
90.635
20
14.735
30
0
0
VERTEX
8
RASTER
10
90.401
20
15.087
30
0
0
VERTEX
8
RASTER
10
90.079
20
15.253
30
0
0
VERTEX
8
RASTER
10
89.2
20
15.448
30
0
0
VERTEX
8
RASTER
10
88.711
20
15.448
30
0
0
VERTEX
8
RASTER
10
88.321
20
15.741
30
0
0
VERTEX
8
RASTER
10
87.901
20
15.673
30
0
0
VERTEX
8
RASTER
10
87.276
20
14.442
30
0
0
VERTEX
8
RASTER
10
86.924
20
13.915
30
0
0
VERTEX
8
RASTER
10
86.563
20
13.007
30
0
0
VERTEX
8
RASTER
10
86.172
20
12.323
30
0
0
VERTEX
8
RASTER
10
85.977
20
11.835
30
0
0
VERTEX
8
RASTER
10
85.977
20
11.542
30
0
0
VERTEX
8
RASTER
10
85.781
20
11.151
30
0
0
VERTEX
8
RASTER
10
85.781
20
10.858
30
0
0
VERTEX
8
RASTER
10
85.947
20
10.536
30
0
0
VERTEX
8
RASTER
10
86.24
20
10.243
30
0
0
VERTEX
8
RASTER
10
87.608
20
9.52
30
0
0
VERTEX
8
RASTER
10
87.246
20
9.588
30
0
0
VERTEX
8
RASTER
10
86.143
20
10.145
30
0
0
VERTEX
8
RASTER
10
85.85
20
10.438
30
0
0
VERTEX
8
RASTER
10
85.684
20
10.76
30
0
0
VERTEX
8
RASTER
10
85.684
20
11.346
30
0
0
VERTEX
8
RASTER
10
85.977
20
12.225
30
0
0
VERTEX
8
RASTER
10
87.832
20
15.937
30
0
0
VERTEX
8
RASTER
10
87.217
20
16.2
30
0
0
VERTEX
8
RASTER
10
87.149
20
16.718
30
0
0
VERTEX
8
RASTER
10
87.569
20
17.275
30
0
0
VERTEX
8
RASTER
10
87.764
20
17.372
30
0
0
VERTEX
8
RASTER
10
88.389
20
18.017
30
0
0
VERTEX
8
RASTER
10
88.936
20
18.349
30
0
0
VERTEX
8
RASTER
10
89.17
20
18.31
30
0
0
VERTEX
8
RASTER
10
91.612
20
23.291
30
0
0
VERTEX
8
RASTER
10
91.807
20
23.584
30
0
0
SEQEND
8
RASTER
0
POLYLINE
8
RASTER
66
1
70
1
0
VERTEX
8
RASTER
10
92.227
20
23.066
30
0
0
VERTEX
8
RASTER
10
92.061
20
22.939
30
0
0
VERTEX
8
RASTER
10
90.958
20
20.527
30
0
0
VERTEX
8
RASTER
10
91.251
20
20.332
30
0
0
VERTEX
8
RASTER
10
91.641
20
20.332
30
0
0
VERTEX
8
RASTER
10
93.009
20
19.648
30
0
0
VERTEX
8
RASTER
10
93.497
20
19.55
30
0
0
VERTEX
8
RASTER
10
93.722
20
19.716
30
0
0
VERTEX
8
RASTER
10
94.64
20
21.631
30
0
0
VERTEX
8
RASTER
10
94.933
20
21.963
30
0
0
VERTEX
8
RASTER
10
94.767
20
22.187
30
0
0
VERTEX
8
RASTER
10
92.813
20
22.969
30
0
0
SEQEND
8
RASTER
0
POLYLINE
8
RASTER
66
1
70
1
0
VERTEX
8
RASTER
10
92.452
20
22.353
30
0
0
VERTEX
8
RASTER
10
92.94
20
22.314
30
0
0
VERTEX
8
RASTER
10
93.233
20
22.119
30
0
0
VERTEX
8
RASTER
10
93.331
20
21.826
30
0
0
VERTEX
8
RASTER
10
93.468
20
21.728
30
0
0
VERTEX
8
RASTER
10
93.204
20
21.797
30
0
0
VERTEX
8
RASTER
10
92.647
20
21.279
30
0
0
VERTEX
8
RASTER
10
92.227
20
21.211
30
0
0
VERTEX
8
RASTER
10
92.032
20
21.015
30
0
0
VERTEX
8
RASTER
10
91.934
20
21.113
30
0
0
VERTEX
8
RASTER
10
92.13
20
21.504
30
0
0
VERTEX
8
RASTER
10
92.032
20
21.699
30
0
0
SEQEND
8
RASTER
0
POLYLINE
8
RASTER
66
1
70
1
0
VERTEX
8
RASTER
10
95.939
20
21.601
30
0
0
VERTEX
8
RASTER
10
95.646
20
21.308
30
0
0
VERTEX
8
RASTER
10
95.646
20
21.113
30
0
0
VERTEX
8
RASTER
10
94.669
20
18.964
30
0
0
VERTEX
8
RASTER
10
94.767
20
18.867
30
0
0
VERTEX
8
RASTER
10
95.06
20
18.867
30
0
0
VERTEX
8
RASTER
10
96.036
20
18.574
30
0
0
VERTEX
8
RASTER
10
96.915
20
18.085
30
0
0
VERTEX
8
RASTER
10
97.306
20
17.988
30
0
0
VERTEX
8
RASTER
10
97.599
20
18.281
30
0
0
VERTEX
8
RASTER
10
97.892
20
19.16
30
0
0
VERTEX
8
RASTER
10
97.863
20
19.58
30
0
0
VERTEX
8
RASTER
10
98.058
20
19.58
30
0
0
VERTEX
8
RASTER
10
98.117
20
20.107
30
0
0
VERTEX
8
RASTER
10
98.41
20
20.205
30
0
0
VERTEX
8
RASTER
10
98.576
20
20.527
30
0
0
VERTEX
8
RASTER
10
97.208
20
21.211
30
0
0
SEQEND
8
RASTER
0
POLYLINE
8
RASTER
66
1
70
1
0
VERTEX
8
RASTER
10
90.469
20
19.453
30
0
0
VERTEX
8
RASTER
10
90.176
20
19.16
30
0
0
VERTEX
8
RASTER
10
89.59
20
17.792
30
0
0
VERTEX
8
RASTER
10
89.59
20
17.499
30
0
0
VERTEX
8
RASTER
10
89.717
20
17.333
30
0
0
VERTEX
8
RASTER
10
89.854
20
17.372
30
0
0
VERTEX
8
RASTER
10
90.665
20
17.011
30
0
0
VERTEX
8
RASTER
10
90.928
20
17.04
30
0
0
VERTEX
8
RASTER
10
91.055
20
17.304
30
0
0
VERTEX
8
RASTER
10
91.153
20
17.206
30
0
0
VERTEX
8
RASTER
10
91.221
20
16.786
30
0
0
VERTEX
8
RASTER
10
91.417
20
16.591
30
0
0
VERTEX
8
RASTER
10
91.641
20
16.523
30
0
0
VERTEX
8
RASTER
10
91.905
20
16.747
30
0
0
VERTEX
8
RASTER
10
91.964
20
17.177
30
0
0
VERTEX
8
RASTER
10
92.257
20
17.372
30
0
0
VERTEX
8
RASTER
10
92.354
20
17.665
30
0
0
VERTEX
8
RASTER
10
92.784
20
17.822
30
0
0
VERTEX
8
RASTER
10
93.175
20
18.251
30
0
0
VERTEX
8
RASTER
10
93.038
20
18.408
30
0
0
VERTEX
8
RASTER
10
92.52
20
18.671
30
0
0
SEQEND
8
RASTER
0
POLYLINE
8
RASTER
66
1
70
1
0
VERTEX
8
RASTER
10
88.975
20
17.958
30
0
0
VERTEX
8
RASTER
10
88.682
20
17.822
30
0
0
VERTEX
8
RASTER
10
87.705
20
16.845
30
0
0
VERTEX
8
RASTER
10
87.569
20
16.552
30
0
0
VERTEX
8
RASTER
10
88.487
20
16.2
30
0
0
VERTEX
8
RASTER
10
88.682
20
15.81
30
0
0
VERTEX
8
RASTER
10
88.907
20
15.644
30
0
0
VERTEX
8
RASTER
10
89.688
20
15.644
30
0
0
VERTEX
8
RASTER
10
90.176
20
15.546
30
0
0
VERTEX
8
RASTER
10
90.694
20
15.282
30
0
0
VERTEX
8
RASTER
10
90.958
20
14.765
30
0
0
VERTEX
8
RASTER
10
91.251
20
13.495
30
0
0
VERTEX
8
RASTER
10
91.612
20
12.782
30
0
0
VERTEX
8
RASTER
10
92.032
20
12.714
30
0
0
VERTEX
8
RASTER
10
92.813
20
12.909
30
0
0
VERTEX
8
RASTER
10
94.083
20
12.909
30
0
0
VERTEX
8
RASTER
10
94.571
20
12.714
30
0
0
VERTEX
8
RASTER
10
94.796
20
12.88
30
0
0
VERTEX
8
RASTER
10
95.226
20
13.524
30
0
0
VERTEX
8
RASTER
10
94.962
20
13.69
30
0
0
VERTEX
8
RASTER
10
92.716
20
13.593
30
0
0
VERTEX
8
RASTER
10
92.393
20
13.759
30
0
0
VERTEX
8
RASTER
10
91.182
20
16.064
30
0
0
VERTEX
8
RASTER
10
89.561
20
16.982
30
0
0
VERTEX
8
RASTER
10
89.268
20
17.275
30
0
0
SEQEND
8
RASTER
0
POLYLINE
8
RASTER
66
1
70
1
0
VERTEX
8
RASTER
10
94.278
20
17.695
30
0
0
VERTEX
8
RASTER
10
94.054
20
17.529
30
0
0
VERTEX
8
RASTER
10
93.888
20
17.206
30
0
0
VERTEX
8
RASTER
10
93.038
20
15.185
30
0
0
VERTEX
8
RASTER
10
93.595
20
14.862
30
0
0
VERTEX
8
RASTER
10
95.548
20
14.081
30
0
0
VERTEX
8
RASTER
10
95.743
20
14.374
30
0
0
VERTEX
8
RASTER
10
95.743
20
14.667
30
0
0
VERTEX
8
RASTER
10
95.939
20
15.155
30
0
0
VERTEX
8
RASTER
10
95.87
20
15.575
30
0
0
VERTEX
8
RASTER
10
95.548
20
15.839
30
0
0
VERTEX
8
RASTER
10
95.616
20
16.103
30
0
0
VERTEX
8
RASTER
10
95.284
20
16.103
30
0
0
VERTEX
8
RASTER
10
95.157
20
15.839
30
0
0
VERTEX
8
RASTER
10
94.962
20
16.132
30
0
0
VERTEX
8
RASTER
10
94.835
20
15.771
30
0
0
VERTEX
8
RASTER
10
94.376
20
15.741
30
0
0
VERTEX
8
RASTER
10
94.181
20
15.839
30
0
0
VERTEX
8
RASTER
10
94.054
20
15.575
30
0
0
VERTEX
8
RASTER
10
93.888
20
15.546
30
0
0
VERTEX
8
RASTER
10
93.692
20
15.741
30
0
0
VERTEX
8
RASTER
10
93.917
20
16.493
30
0
0
VERTEX
8
RASTER
10
94.474
20
17.109
30
0
0
VERTEX
8
RASTER
10
95.06
20
16.913
30
0
0
VERTEX
8
RASTER
10
95.353
20
16.718
30
0
0
VERTEX
8
RASTER
10
95.616
20
16.689
30
0
0
VERTEX
8
RASTER
10
95.675
20
16.357
30
0
0
VERTEX
8
RASTER
10
95.939
20
16.425
30
0
0
VERTEX
8
RASTER
10
96.134
20
16.23
30
0
0
VERTEX
8
RASTER
10
96.652
20
16.298
30
0
0
VERTEX
8
RASTER
10
96.818
20
16.62
30
0
0
VERTEX
8
RASTER
10
96.329
20
16.913
30
0
0
VERTEX
8
RASTER
10
96.036
20
16.913
30
0
0
VERTEX
8
RASTER
10
95.743
20
17.109
30
0
0
SEQEND
8
RASTER
0
POLYLINE
8
RASTER
66
1
70
1
0
VERTEX
8
RASTER
10
103.557
20
16.913
30
0
0
VERTEX
8
RASTER
10
103.43
20
16.845
30
0
0
VERTEX
8
RASTER
10
103.166
20
16.23
30
0
0
VERTEX
8
RASTER
10
103.527
20
15.907
30
0
0
VERTEX
8
RASTER
10
103.752
20
15.839
30
0
0
VERTEX
8
RASTER
10
103.947
20
16.132
30
0
0
VERTEX
8
RASTER
10
104.045
20
16.523
30
0
0
VERTEX
8
RASTER
10
103.879
20
16.747
30
0
0
SEQEND
8
RASTER
0
POLYLINE
8
RASTER
66
1
70
1
0
VERTEX
8
RASTER
10
100.92
20
16.23
30
0
0
VERTEX
8
RASTER
10
100.724
20
16.132
30
0
0
VERTEX
8
RASTER
10
100.236
20
16.132
30
0
0
VERTEX
8
RASTER
10
99.259
20
15.839
30
0
0
VERTEX
8
RASTER
10
96.984
20
14.501
30
0
0
VERTEX
8
RASTER
10
95.909
20
13.524
30
0
0
VERTEX
8
RASTER
10
94.933
20
12.157
30
0
0
VERTEX
8
RASTER
10
94.083
20
10.37
30
0
0
VERTEX
8
RASTER
10
94.083
20
10.077
30
0
0
VERTEX
8
RASTER
10
93.888
20
9.588
30
0
0
VERTEX
8
RASTER
10
93.888
20
9.198
30
0
0
VERTEX
8
RASTER
10
93.692
20
8.514
30
0
0
VERTEX
8
RASTER
10
93.79
20
5.682
30
0
0
VERTEX
8
RASTER
10
94.054
20
5.066
30
0
0
VERTEX
8
RASTER
10
94.601
20
4.93
30
0
0
VERTEX
8
RASTER
10
95.841
20
4.998
30
0
0
VERTEX
8
RASTER
10
96.622
20
5.193
30
0
0
VERTEX
8
RASTER
10
97.599
20
5.193
30
0
0
VERTEX
8
RASTER
10
97.99
20
5.389
30
0
0
VERTEX
8
RASTER
10
98.283
20
5.389
30
0
0
VERTEX
8
RASTER
10
98.576
20
5.584
30
0
0
VERTEX
8
RASTER
10
98.771
20
5.584
30
0
0
VERTEX
8
RASTER
10
99.289
20
5.945
30
0
0
VERTEX
8
RASTER
10
99.386
20
6.141
30
0
0
VERTEX
8
RASTER
10
99.679
20
6.238
30
0
0
VERTEX
8
RASTER
10
99.816
20
6.492
30
0
0
VERTEX
8
RASTER
10
100.461
20
6.824
30
0
0
VERTEX
8
RASTER
10
100.988
20
7.274
30
0
0
VERTEX
8
RASTER
10
101.183
20
7.313
30
0
0
VERTEX
8
RASTER
10
101.017
20
7.049
30
0
0
VERTEX
8
RASTER
10
101.144
20
7.02
30
0
0
VERTEX
8
RASTER
10
102.023
20
7.899
30
0
0
VERTEX
8
RASTER
10
102.512
20
8.582
30
0
0
VERTEX
8
RASTER
10
102.775
20
9.491
30
0
0
VERTEX
8
RASTER
10
103.391
20
10.34
30
0
0
VERTEX
8
RASTER
10
103.557
20
10.76
30
0
0
VERTEX
8
RASTER
10
103.654
20
11.444
30
0
0
VERTEX
8
RASTER
10
104.045
20
12.714
30
0
0
VERTEX
8
RASTER
10
104.045
20
13.886
30
0
0
VERTEX
8
RASTER
10
103.781
20
14.696
30
0
0
VERTEX
8
RASTER
10
103.488
20
15.282
30
0
0
VERTEX
8
RASTER
10
103.195
20
15.575
30
0
0
VERTEX
8
RASTER
10
102.805
20
15.868
30
0
0
VERTEX
8
RASTER
10
101.896
20
16.23
30
0
0
VERTEX
8
RASTER
10
101.086
20
16.161
30
0
0
SEQEND
8
RASTER
0
POLYLINE
8
RASTER
66
1
70
1
0
VERTEX
8
RASTER
10
99.679
20
14.931
30
0
0
VERTEX
8
RASTER
10
99.914
20
14.892
30
0
0
VERTEX
8
RASTER
10
98.214
20
13.759
30
0
0
VERTEX
8
RASTER
10
98.117
20
13.563
30
0
0
VERTEX
8
RASTER
10
97.042
20
12.548
30
0
0
VERTEX
8
RASTER
10
97.013
20
12.714
30
0
0
VERTEX
8
RASTER
10
97.374
20
13.231
30
0
0
VERTEX
8
RASTER
10
97.96
20
13.622
30
0
0
VERTEX
8
RASTER
10
98.644
20
14.306
30
0
0
VERTEX
8
RASTER
10
99.621
20
14.794
30
0
0
SEQEND
8
RASTER
0
POLYLINE
8
RASTER
66
1
70
1
0
VERTEX
8
RASTER
10
101.437
20
12.782
30
0
0
VERTEX
8
RASTER
10
101.506
20
12.714
30
0
0
VERTEX
8
RASTER
10
101.242
20
12.294
30
0
0
VERTEX
8
RASTER
10
100.949
20
12.059
30
0
0
VERTEX
8
RASTER
10
100.988
20
12.255
30
0
0
SEQEND
8
RASTER
0
POLYLINE
8
RASTER
66
1
70
1
0
VERTEX
8
RASTER
10
103.293
20
12.782
30
0
0
VERTEX
8
RASTER
10
103.459
20
12.714
30
0
0
VERTEX
8
RASTER
10
103.264
20
12.225
30
0
0
VERTEX
8
RASTER
10
103.264
20
11.835
30
0
0
VERTEX
8
RASTER
10
102.805
20
10.731
30
0
0
VERTEX
8
RASTER
10
101.867
20
9.422
30
0
0
VERTEX
8
RASTER
10
101.34
20
8.934
30
0
0
VERTEX
8
RASTER
10
101.379
20
9.227
30
0
0
VERTEX
8
RASTER
10
101.926
20
9.95
30
0
0
VERTEX
8
RASTER
10
102.414
20
10.829
30
0
0
SEQEND
8
RASTER
0
POLYLINE
8
RASTER
66
1
70
1
0
VERTEX
8
RASTER
10
95.675
20
10.731
30
0
0
VERTEX
8
RASTER
10
94.796
20
8.836
30
0
0
VERTEX
8
RASTER
10
94.767
20
9.002
30
0
0
VERTEX
8
RASTER
10
94.962
20
9.588
30
0
0
VERTEX
8
RASTER
10
95.323
20
10.301
30
0
0
SEQEND
8
RASTER
0
POLYLINE
8
RASTER
66
1
70
1
0
VERTEX
8
RASTER
10
98.312
20
9.071
30
0
0
VERTEX
8
RASTER
10
98.38
20
9.002
30
0
0
VERTEX
8
RASTER
10
98.312
20
8.875
30
0
0
VERTEX
8
RASTER
10
98.019
20
8.485
30
0
0
VERTEX
8
RASTER
10
97.472
20
8.055
30
0
0
VERTEX
8
RASTER
10
97.335
20
7.801
30
0
0
VERTEX
8
RASTER
10
97.081
20
7.664
30
0
0
VERTEX
8
RASTER
10
96.456
20
7.02
30
0
0
VERTEX
8
RASTER
10
95.773
20
6.688
30
0
0
VERTEX
8
RASTER
10
95.909
20
6.981
30
0
0
VERTEX
8
RASTER
10
96.202
20
7.274
30
0
0
VERTEX
8
RASTER
10
96.456
20
7.41
30
0
0
VERTEX
8
RASTER
10
97.081
20
8.055
30
0
0
VERTEX
8
RASTER
10
97.335
20
8.192
30
0
0
VERTEX
8
RASTER
10
97.96
20
8.836
30
0
0
SEQEND
8
RASTER
0
POLYLINE
8
RASTER
66
1
70
1
0
VERTEX
8
RASTER
10
100.558
20
8.192
30
0
0
VERTEX
8
RASTER
10
100.627
20
8.123
30
0
0
VERTEX
8
RASTER
10
100.558
20
7.996
30
0
0
VERTEX
8
RASTER
10
100.265
20
7.606
30
0
0
VERTEX
8
RASTER
10
99.191
20
6.629
30
0
0
VERTEX
8
RASTER
10
97.501
20
5.779
30
0
0
VERTEX
8
RASTER
10
96.525
20
5.486
30
0
0
VERTEX
8
RASTER
10
96.359
20
5.516
30
0
0
VERTEX
8
RASTER
10
96.359
20
5.652
30
0
0
VERTEX
8
RASTER
10
96.788
20
5.906
30
0
0
VERTEX
8
RASTER
10
98.507
20
6.727
30
0
0
SEQEND
8
RASTER
0
POLYLINE
8
CUT
66
1
70
1
0
VERTEX
8
CUT
10
116.715
20
24.004
30
0
0
VERTEX
8
CUT
10
117.637
20
23.984
30
0
0
VERTEX
8
CUT
10
118.375
20
23.697
30
0
0
VERTEX
8
CUT
10
120.147
20
21.269
30
0
0
VERTEX
8
CUT
10
120.485
20
21.094
30
0
0
VERTEX
8
CUT
10
122.012
20
21.166
30
0
0
VERTEX
8
CUT
10
124.706
20
22.775
30
0
0
VERTEX
8
CUT
10
126.222
20
22.631
30
0
0
VERTEX
8
CUT
10
127.114
20
21.678
30
0
0
VERTEX
8
CUT
10
127.903
20
21.443
30
0
0
VERTEX
8
CUT
10
128.271
20
20.992
30
0
0
VERTEX
8
CUT
10
128.599
20
18.861
30
0
0
VERTEX
8
CUT
10
129.45
20
17.56
30
0
0
VERTEX
8
CUT
10
129.306
20
15.818
30
0
0
VERTEX
8
CUT
10
126.345
20
12.223
30
0
0
VERTEX
8
CUT
10
125.997
20
10.829
30
0
0
VERTEX
8
CUT
10
125.567
20
10.133
30
0
0
VERTEX
8
CUT
10
124.594
20
9.262
30
0
0
VERTEX
8
CUT
10
123.456
20
8.965
30
0
0
VERTEX
8
CUT
10
120.444
20
5.625
30
0
0
VERTEX
8
CUT
10
119.502
20
5.133
30
0
0
VERTEX
8
CUT
10
118.211
20
5.092
30
0
0
VERTEX
8
CUT
10
116.695
20
5.42
30
0
0
VERTEX
8
CUT
10
115.568
20
6.137
30
0
0
VERTEX
8
CUT
10
114.595
20
7.623
30
0
0
VERTEX
8
CUT
10
112.31
20
7.694
30
0
0
VERTEX
8
CUT
10
111.214
20
8.135
30
0
0
VERTEX
8
CUT
10
110.077
20
9.149
30
0
0
VERTEX
8
CUT
10
109.442
20
10.46
30
0
0
VERTEX
8
CUT
10
109.442
20
12.325
30
0
0
VERTEX
8
CUT
10
109.923
20
13.38
30
0
0
VERTEX
8
CUT
10
115.158
20
16.956
30
0
0
VERTEX
8
CUT
10
115.158
20
18.124
30
0
0
VERTEX
8
CUT
10
113.847
20
20.295
30
0
0
VERTEX
8
CUT
10
113.847
20
21.75
30
0
0
VERTEX
8
CUT
10
114.861
20
23.092
30
0
0
SEQEND
8
CUT
0
POLYLINE
8
RASTER
66
1
70
1
0
VERTEX
8
RASTER
10
116.808
20
23.707
30
0
0
VERTEX
8
RASTER
10
117.494
20
23.738
30
0
0
VERTEX
8
RASTER
10
118.242
20
23.359
30
0
0
VERTEX
8
RASTER
10
120.701
20
19.875
30
0
0
VERTEX
8
RASTER
10
123.917
20
22.027
30
0
0
VERTEX
8
RASTER
10
124.87
20
22.508
30
0
0
VERTEX
8
RASTER
10
125.69
20
22.508
30
0
0
VERTEX
8
RASTER
10
126.233
20
22.232
30
0
0
VERTEX
8
RASTER
10
126.438
20
22.027
30
0
0
VERTEX
8
RASTER
10
126.786
20
21.351
30
0
0
VERTEX
8
RASTER
10
127.431
20
21.279
30
0
0
VERTEX
8
RASTER
10
127.872
20
21.002
30
0
0
VERTEX
8
RASTER
10
128.251
20
20.254
30
0
0
VERTEX
8
RASTER
10
128.251
20
19.332
30
0
0
VERTEX
8
RASTER
10
128.077
20
18.892
30
0
0
VERTEX
8
RASTER
10
127.872
20
18.646
30
0
0
VERTEX
8
RASTER
10
128.589
20
18.339
30
0
0
VERTEX
8
RASTER
10
128.896
20
18.031
30
0
0
VERTEX
8
RASTER
10
129.275
20
17.079
30
0
0
VERTEX
8
RASTER
10
129.173
20
16.361
30
0
0
VERTEX
8
RASTER
10
128.691
20
15.511
30
0
0
VERTEX
8
RASTER
10
125.966
20
12.294
30
0
0
VERTEX
8
RASTER
10
125.895
20
11.546
30
0
0
VERTEX
8
RASTER
10
125.69
20
10.932
30
0
0
VERTEX
8
RASTER
10
125.413
20
10.491
30
0
0
VERTEX
8
RASTER
10
124.696
20
9.877
30
0
0
VERTEX
8
RASTER
10
123.303
20
9.323
30
0
0
VERTEX
8
RASTER
10
122.852
20
8.75
30
0
0
VERTEX
8
RASTER
10
122.278
20
8.196
30
0
0
VERTEX
8
RASTER
10
122.135
20
7.93
30
0
0
VERTEX
8
RASTER
10
121.356
20
7.172
30
0
0
VERTEX
8
RASTER
10
121.213
20
6.906
30
0
0
VERTEX
8
RASTER
10
120.086
20
5.779
30
0
0
VERTEX
8
RASTER
10
119.338
20
5.4
30
0
0
VERTEX
8
RASTER
10
117.904
20
5.4
30
0
0
VERTEX
8
RASTER
10
116.879
20
5.707
30
0
0
VERTEX
8
RASTER
10
116.029
20
6.188
30
0
0
VERTEX
8
RASTER
10
115.619
20
6.598
30
0
0
VERTEX
8
RASTER
10
115.24
20
7.244
30
0
0
VERTEX
8
RASTER
10
115.138
20
7.551
30
0
0
VERTEX
8
RASTER
10
115.107
20
8.75
30
0
0
VERTEX
8
RASTER
10
114.011
20
8.063
30
0
0
VERTEX
8
RASTER
10
113.294
20
7.858
30
0
0
VERTEX
8
RASTER
10
112.474
20
7.961
30
0
0
VERTEX
8
RASTER
10
111.316
20
8.442
30
0
0
VERTEX
8
RASTER
10
111.009
20
8.647
30
0
0
VERTEX
8
RASTER
10
110.189
20
9.569
30
0
0
VERTEX
8
RASTER
10
109.708
20
10.624
30
0
0
VERTEX
8
RASTER
10
109.708
20
11.137
30
0
0
VERTEX
8
RASTER
10
109.606
20
11.342
30
0
0
VERTEX
8
RASTER
10
109.81
20
12.468
30
0
0
VERTEX
8
RASTER
10
110.292
20
13.319
30
0
0
VERTEX
8
RASTER
10
116.234
20
17.109
30
0
0
VERTEX
8
RASTER
10
115.066
20
18.953
30
0
0
VERTEX
8
RASTER
10
114.492
20
19.711
30
0
0
VERTEX
8
RASTER
10
114.113
20
20.459
30
0
0
VERTEX
8
RASTER
10
114.011
20
21.176
30
0
0
VERTEX
8
RASTER
10
114.349
20
22.068
30
0
0
VERTEX
8
RASTER
10
114.595
20
22.334
30
0
0
VERTEX
8
RASTER
10
115.138
20
22.611
30
0
0
VERTEX
8
RASTER
10
115.722
20
22.641
30
0
0
VERTEX
8
RASTER
10
116.131
20
23.359
30
0
0
SEQEND
8
RASTER
0
POLYLINE
8
RASTER
66
1
70
1
0
VERTEX
8
RASTER
10
116.982
20
23.225
30
0
0
VERTEX
8
RASTER
10
116.439
20
22.949
30
0
0
VERTEX
8
RASTER
10
116.265
20
22.611
30
0
0
VERTEX
8
RASTER
10
116.336
20
22.17
30
0
0
VERTEX
8
RASTER
10
117.217
20
21.002
30
0
0
VERTEX
8
RASTER
10
118.693
20
18.789
30
0
0
VERTEX
8
RASTER
10
120.188
20
16.802
30
0
0
VERTEX
8
RASTER
10
121.049
20
15.409
30
0
0
VERTEX
8
RASTER
10
121.93
20
14.241
30
0
0
VERTEX
8
RASTER
10
122.688
20
13.052
30
0
0
VERTEX
8
RASTER
10
122.79
20
13.011
30
0
0
VERTEX
8
RASTER
10
123.2
20
13.626
30
0
0
VERTEX
8
RASTER
10
123.846
20
13.903
30
0
0
VERTEX
8
RASTER
10
124.43
20
13.933
30
0
0
VERTEX
8
RASTER
10
121.766
20
17.458
30
0
0
VERTEX
8
RASTER
10
118.037
20
22.846
30
0
0
VERTEX
8
RASTER
10
117.494
20
23.225
30
0
0
SEQEND
8
RASTER
0
POLYLINE
8
RASTER
66
1
70
1
0
VERTEX
8
RASTER
10
115.138
20
22.098
30
0
0
VERTEX
8
RASTER
10
114.8
20
21.924
30
0
0
VERTEX
8
RASTER
10
114.523
20
21.381
30
0
0
VERTEX
8
RASTER
10
114.523
20
20.767
30
0
0
VERTEX
8
RASTER
10
114.697
20
20.429
30
0
0
VERTEX
8
RASTER
10
118.344
20
15.06
30
0
0
VERTEX
8
RASTER
10
120.229
20
11.987
30
0
0
VERTEX
8
RASTER
10
120.639
20
12.704
30
0
0
VERTEX
8
RASTER
10
120.946
20
13.011
30
0
0
VERTEX
8
RASTER
10
121.971
20
13.421
30
0
0
VERTEX
8
RASTER
10
121.93
20
13.524
30
0
0
VERTEX
8
RASTER
10
119.717
20
16.433
30
0
0
VERTEX
8
RASTER
10
116.644
20
20.838
30
0
0
VERTEX
8
RASTER
10
116.5
20
20.797
30
0
0
VERTEX
8
RASTER
10
116.5
20
20.941
30
0
0
VERTEX
8
RASTER
10
116.295
20
20.695
30
0
0
VERTEX
8
RASTER
10
116.439
20
21.043
30
0
0
VERTEX
8
RASTER
10
116.234
20
20.9
30
0
0
VERTEX
8
RASTER
10
116.131
20
20.941
30
0
0
VERTEX
8
RASTER
10
115.517
20
21.658
30
0
0
VERTEX
8
RASTER
10
115.445
20
21.791
30
0
0
VERTEX
8
RASTER
10
115.547
20
21.894
30
0
0
VERTEX
8
RASTER
10
115.988
20
21.617
30
0
0
VERTEX
8
RASTER
10
115.988
20
21.719
30
0
0
VERTEX
8
RASTER
10
115.343
20
22.098
30
0
0
SEQEND
8
RASTER
0
POLYLINE
8
RASTER
66
1
70
1
0
VERTEX
8
RASTER
10
125.28
20
22.098
30
0
0
VERTEX
8
RASTER
10
124.87
20
21.996
30
0
0
VERTEX
8
RASTER
10
124.02
20
21.515
30
0
0
VERTEX
8
RASTER
10
121.151
20
19.568
30
0
0
VERTEX
8
RASTER
10
121.08
20
19.332
30
0
0
VERTEX
8
RASTER
10
121.356
20
18.892
30
0
0
VERTEX
8
RASTER
10
121.664
20
18.646
30
0
0
VERTEX
8
RASTER
10
122.483
20
19.261
30
0
0
VERTEX
8
RASTER
10
124.225
20
20.285
30
0
0
VERTEX
8
RASTER
10
124.358
20
20.357
30
0
0
VERTEX
8
RASTER
10
124.532
20
20.285
30
0
0
VERTEX
8
RASTER
10
124.635
20
20.429
30
0
0
VERTEX
8
RASTER
10
124.768
20
20.05
30
0
0
VERTEX
8
RASTER
10
126.028
20
20.838
30
0
0
VERTEX
8
RASTER
10
126.274
20
21.105
30
0
0
VERTEX
8
RASTER
10
126.13
20
21.515
30
0
0
VERTEX
8
RASTER
10
125.925
20
21.822
30
0
0
SEQEND
8
RASTER
0
POLYLINE
8
RASTER
66
1
70
1
0
VERTEX
8
RASTER
10
127.022
20
20.767
30
0
0
VERTEX
8
RASTER
10
126.069
20
20.285
30
0
0
VERTEX
8
RASTER
10
122.34
20
17.765
30
0
0
VERTEX
8
RASTER
10
122.381
20
17.458
30
0
0
VERTEX
8
RASTER
10
123.405
20
16.126
30
0
0
VERTEX
8
RASTER
10
123.569
20
16.126
30
0
0
VERTEX
8
RASTER
10
124.798
20
17.048
30
0
0
VERTEX
8
RASTER
10
124.87
20
17.181
30
0
0
VERTEX
8
RASTER
10
124.798
20
17.253
30
0
0
VERTEX
8
RASTER
10
124.389
20
16.904
30
0
0
VERTEX
8
RASTER
10
124.532
20
17.253
30
0
0
VERTEX
8
RASTER
10
124.286
20
17.109
30
0
0
VERTEX
8
RASTER
10
124.327
20
17.355
30
0
0
VERTEX
8
RASTER
10
123.876
20
17.314
30
0
0
VERTEX
8
RASTER
10
124.02
20
17.622
30
0
0
VERTEX
8
RASTER
10
124.43
20
17.929
30
0
0
VERTEX
8
RASTER
10
125.823
20
18.789
30
0
0
VERTEX
8
RASTER
10
125.925
20
18.748
30
0
0
VERTEX
8
RASTER
10
125.997
20
18.513
30
0
0
VERTEX
8
RASTER
10
126.376
20
18.585
30
0
0
VERTEX
8
RASTER
10
126.304
20
18.308
30
0
0
VERTEX
8
RASTER
10
126.376
20
18.236
30
0
0
VERTEX
8
RASTER
10
127.606
20
19.056
30
0
0
VERTEX
8
RASTER
10
127.739
20
19.332
30
0
0
VERTEX
8
RASTER
10
127.739
20
20.152
30
0
0
VERTEX
8
RASTER
10
127.462
20
20.695
30
0
0
SEQEND
8
RASTER
0
POLYLINE
8
RASTER
66
1
70
1
0
VERTEX
8
RASTER
10
127.636
20
18.103
30
0
0
VERTEX
8
RASTER
10
124.46
20
14.825
30
0
0
VERTEX
8
RASTER
10
124.839
20
14.179
30
0
0
VERTEX
8
RASTER
10
125.792
20
12.981
30
0
0
VERTEX
8
RASTER
10
126.13
20
13.257
30
0
0
VERTEX
8
RASTER
10
126.274
20
13.524
30
0
0
VERTEX
8
RASTER
10
126.745
20
13.974
30
0
0
VERTEX
8
RASTER
10
126.888
20
14.241
30
0
0
VERTEX
8
RASTER
10
127.944
20
15.439
30
0
0
VERTEX
8
RASTER
10
127.872
20
15.511
30
0
0
VERTEX
8
RASTER
10
127.769
20
15.306
30
0
0
VERTEX
8
RASTER
10
127.093
20
14.651
30
0
0
VERTEX
8
RASTER
10
126.847
20
14.651
30
0
0
VERTEX
8
RASTER
10
127.093
20
14.999
30
0
0
VERTEX
8
RASTER
10
126.745
20
14.855
30
0
0
VERTEX
8
RASTER
10
126.786
20
15.101
30
0
0
VERTEX
8
RASTER
10
126.54
20
15.06
30
0
0
VERTEX
8
RASTER
10
126.745
20
15.409
30
0
0
VERTEX
8
RASTER
10
127.565
20
16.228
30
0
0
VERTEX
8
RASTER
10
127.667
20
15.982
30
0
0
VERTEX
8
RASTER
10
127.769
20
16.126
30
0
0
VERTEX
8
RASTER
10
127.872
20
15.982
30
0
0
VERTEX
8
RASTER
10
128.22
20
16.023
30
0
0
VERTEX
8
RASTER
10
128.046
20
15.747
30
0
0
VERTEX
8
RASTER
10
128.179
20
15.716
30
0
0
VERTEX
8
RASTER
10
128.661
20
16.464
30
0
0
VERTEX
8
RASTER
10
128.763
20
16.976
30
0
0
VERTEX
8
RASTER
10
128.487
20
17.724
30
0
0
VERTEX
8
RASTER
10
128.046
20
18.103
30
0
0
SEQEND
8
RASTER
0
POLYLINE
8
RASTER
66
1
70
1
0
VERTEX
8
RASTER
10
115.855
20
16.259
30
0
0
VERTEX
8
RASTER
10
113.263
20
14.651
30
0
0
VERTEX
8
RASTER
10
112.034
20
13.831
30
0
0
VERTEX
8
RASTER
10
111.993
20
13.729
30
0
0
VERTEX
8
RASTER
10
112.71
20
13.421
30
0
0
VERTEX
8
RASTER
10
113.263
20
12.847
30
0
0
VERTEX
8
RASTER
10
113.427
20
12.847
30
0
0
VERTEX
8
RASTER
10
116.5
20
15.101
30
0
0
VERTEX
8
RASTER
10
116.572
20
15.337
30
0
0
VERTEX
8
RASTER
10
116.295
20
15.88
30
0
0
VERTEX
8
RASTER
10
116.09
20
16.187
30
0
0
SEQEND
8
RASTER
0
POLYLINE
8
RASTER
66
1
70
1
0
VERTEX
8
RASTER
10
123.948
20
15.644
30
0
0
VERTEX
8
RASTER
10
123.846
20
15.542
30
0
0
VERTEX
8
RASTER
10
123.917
20
15.409
30
0
0
VERTEX
8
RASTER
10
124.153
20
15.235
30
0
0
VERTEX
8
RASTER
10
124.532
20
15.573
30
0
0
VERTEX
8
RASTER
10
124.184
20
15.368
30
0
0
VERTEX
8
RASTER
10
123.979
20
15.47
30
0
0
SEQEND
8
RASTER
0
POLYLINE
8
RASTER
66
1
70
1
0
VERTEX
8
RASTER
10
117.361
20
14.179
30
0
0
VERTEX
8
RASTER
10
117.053
20
14.036
30
0
0
VERTEX
8
RASTER
10
114.011
20
11.854
30
0
0
VERTEX
8
RASTER
10
114.656
20
11.475
30
0
0
VERTEX
8
RASTER
10
115.066
20
10.962
30
0
0
VERTEX
8
RASTER
10
115.24
20
10.522
30
0
0
VERTEX
8
RASTER
10
115.271
20
9.733
30
0
0
VERTEX
8
RASTER
10
116.91
20
11.003
30
0
0
VERTEX
8
RASTER
10
117.975
20
11.987
30
0
0
VERTEX
8
RASTER
10
118.006
20
12.776
30
0
0
VERTEX
8
RASTER
10
117.904
20
13.288
30
0
0
VERTEX
8
RASTER
10
117.627
20
13.933
30
0
0
SEQEND
8
RASTER
0
POLYLINE
8
RASTER
66
1
70
1
0
VERTEX
8
RASTER
10
123.846
20
13.493
30
0
0
VERTEX
8
RASTER
10
123.508
20
13.319
30
0
0
VERTEX
8
RASTER
10
123.2
20
13.011
30
0
0
VERTEX
8
RASTER
10
123.129
20
12.366
30
0
0
VERTEX
8
RASTER
10
123.405
20
12.028
30
0
0
VERTEX
8
RASTER
10
123.846
20
11.956
30
0
0
VERTEX
8
RASTER
10
123.876
20
12.089
30
0
0
VERTEX
8
RASTER
10
123.538
20
12.468
30
0
0
VERTEX
8
RASTER
10
123.61
20
12.807
30
0
0
VERTEX
8
RASTER
10
124.051
20
13.083
30
0
0
VERTEX
8
RASTER
10
124.696
20
12.807
30
0
0
VERTEX
8
RASTER
10
124.973
20
12.264
30
0
0
VERTEX
8
RASTER
10
124.973
20
11.751
30
0
0
VERTEX
8
RASTER
10
124.798
20
11.311
30
0
0
VERTEX
8
RASTER
10
124.491
20
10.901
30
0
0
VERTEX
8
RASTER
10
123.743
20
10.419
30
0
0
VERTEX
8
RASTER
10
123.026
20
10.215
30
0
0
VERTEX
8
RASTER
10
122.309
20
10.317
30
0
0
VERTEX
8
RASTER
10
121.664
20
10.594
30
0
0
VERTEX
8
RASTER
10
121.356
20
10.901
30
0
0
VERTEX
8
RASTER
10
121.08
20
11.546
30
0
0
VERTEX
8
RASTER
10
121.254
20
12.089
30
0
0
VERTEX
8
RASTER
10
121.592
20
12.366
30
0
0
VERTEX
8
RASTER
10
122.135
20
12.294
30
0
0
VERTEX
8
RASTER
10
122.207
20
11.854
30
0
0
VERTEX
8
RASTER
10
122.002
20
11.546
30
0
0
VERTEX
8
RASTER
10
122.104
20
11.444
30
0
0
VERTEX
8
RASTER
10
122.34
20
11.516
30
0
0
VERTEX
8
RASTER
10
122.616
20
11.854
30
0
0
VERTEX
8
RASTER
10
122.545
20
12.602
30
0
0
VERTEX
8
RASTER
10
122.237
20
12.909
30
0
0
VERTEX
8
RASTER
10
121.797
20
12.981
30
0
0
VERTEX
8
RASTER
10
121.049
20
12.602
30
0
0
VERTEX
8
RASTER
10
120.67
20
11.956
30
0
0
VERTEX
8
RASTER
10
120.67
20
11.239
30
0
0
VERTEX
8
RASTER
10
120.946
20
10.696
30
0
0
VERTEX
8
RASTER
10
121.254
20
10.389
30
0
0
VERTEX
8
RASTER
10
122.309
20
9.907
30
0
0
VERTEX
8
RASTER
10
123.333
20
9.907
30
0
0
VERTEX
8
RASTER
10
123.743
20
10.01
30
0
0
VERTEX
8
RASTER
10
124.696
20
10.491
30
0
0
VERTEX
8
RASTER
10
125.003
20
10.799
30
0
0
VERTEX
8
RASTER
10
125.382
20
11.546
30
0
0
VERTEX
8
RASTER
10
125.382
20
12.366
30
0
0
VERTEX
8
RASTER
10
125.106
20
12.909
30
0
0
VERTEX
8
RASTER
10
124.696
20
13.319
30
0
0
VERTEX
8
RASTER
10
124.358
20
13.493
30
0
0
SEQEND
8
RASTER
0
POLYLINE
8
RASTER
66
1
70
1
0
VERTEX
8
RASTER
10
111.654
20
13.39
30
0
0
VERTEX
8
RASTER
10
111.111
20
13.216
30
0
0
VERTEX
8
RASTER
10
110.497
20
12.807
30
0
0
VERTEX
8
RASTER
10
110.118
20
11.854
30
0
0
VERTEX
8
RASTER
10
110.118
20
11.034
30
0
0
VERTEX
8
RASTER
10
110.22
20
10.624
30
0
0
VERTEX
8
RASTER
10
110.702
20
9.672
30
0
0
VERTEX
8
RASTER
10
111.419
20
8.954
30
0
0
VERTEX
8
RASTER
10
112.167
20
8.575
30
0
0
VERTEX
8
RASTER
10
112.884
20
8.371
30
0
0
VERTEX
8
RASTER
10
113.806
20
8.473
30
0
0
VERTEX
8
RASTER
10
114.451
20
8.852
30
0
0
VERTEX
8
RASTER
10
114.83
20
9.6
30
0
0
VERTEX
8
RASTER
10
114.83
20
10.522
30
0
0
VERTEX
8
RASTER
10
114.656
20
10.962
30
0
0
VERTEX
8
RASTER
10
114.246
20
11.372
30
0
0
VERTEX
8
RASTER
10
113.396
20
11.444
30
0
0
VERTEX
8
RASTER
10
113.058
20
11.167
30
0
0
VERTEX
8
RASTER
10
112.884
20
10.829
30
0
0
VERTEX
8
RASTER
10
112.884
20
10.317
30
0
0
VERTEX
8
RASTER
10
113.017
20
10.04
30
0
0
VERTEX
8
RASTER
10
113.16
20
10.04
30
0
0
VERTEX
8
RASTER
10
113.365
20
10.655
30
0
0
VERTEX
8
RASTER
10
113.703
20
10.829
30
0
0
VERTEX
8
RASTER
10
114.144
20
10.553
30
0
0
VERTEX
8
RASTER
10
114.287
20
10.081
30
0
0
VERTEX
8
RASTER
10
114.041
20
9.364
30
0
0
VERTEX
8
RASTER
10
113.837
20
9.159
30
0
0
VERTEX
8
RASTER
10
113.191
20
8.883
30
0
0
VERTEX
8
RASTER
10
112.679
20
8.883
30
0
0
VERTEX
8
RASTER
10
111.829
20
9.262
30
0
0
VERTEX
8
RASTER
10
111.111
20
9.877
30
0
0
VERTEX
8
RASTER
10
110.732
20
10.522
30
0
0
VERTEX
8
RASTER
10
110.528
20
11.137
30
0
0
VERTEX
8
RASTER
10
110.528
20
11.546
30
0
0
VERTEX
8
RASTER
10
110.804
20
12.294
30
0
0
VERTEX
8
RASTER
10
111.111
20
12.602
30
0
0
VERTEX
8
RASTER
10
111.45
20
12.776
30
0
0
VERTEX
8
RASTER
10
111.962
20
12.776
30
0
0
VERTEX
8
RASTER
10
112.3
20
12.602
30
0
0
VERTEX
8
RASTER
10
112.474
20
12.264
30
0
0
VERTEX
8
RASTER
10
112.474
20
11.854
30
0
0
VERTEX
8
RASTER
10
112.341
20
11.577
30
0
0
VERTEX
8
RASTER
10
111.89
20
11.413
30
0
0
VERTEX
8
RASTER
10
111.931
20
11.208
30
0
0
VERTEX
8
RASTER
10
112.064
20
11.137
30
0
0
VERTEX
8
RASTER
10
112.474
20
11.137
30
0
0
VERTEX
8
RASTER
10
112.853
20
11.372
30
0
0
VERTEX
8
RASTER
10
113.191
20
12.059
30
0
0
VERTEX
8
RASTER
10
113.119
20
12.397
30
0
0
VERTEX
8
RASTER
10
112.71
20
13.011
30
0
0
VERTEX
8
RASTER
10
112.167
20
13.288
30
0
0
SEQEND
8
RASTER
0
POLYLINE
8
RASTER
66
1
70
1
0
VERTEX
8
RASTER
10
117.012
20
12.335
30
0
0
VERTEX
8
RASTER
10
117.156
20
12.335
30
0
0
VERTEX
8
RASTER
10
117.115
20
12.192
30
0
0
VERTEX
8
RASTER
10
117.32
20
11.987
30
0
0
VERTEX
8
RASTER
10
117.422
20
12.13
30
0
0
VERTEX
8
RASTER
10
117.566
20
12.13
30
0
0
VERTEX
8
RASTER
10
117.361
20
11.68
30
0
0
VERTEX
8
RASTER
10
117.187
20
11.751
30
0
0
VERTEX
8
RASTER
10
116.951
20
11.577
30
0
0
VERTEX
8
RASTER
10
116.705
20
11.577
30
0
0
VERTEX
8
RASTER
10
116.746
20
11.823
30
0
0
VERTEX
8
RASTER
10
116.541
20
11.68
30
0
0
VERTEX
8
RASTER
10
116.295
20
11.68
30
0
0
VERTEX
8
RASTER
10
116.541
20
11.987
30
0
0
SEQEND
8
RASTER
0
POLYLINE
8
RASTER
66
1
70
1
0
VERTEX
8
RASTER
10
118.693
20
11.823
30
0
0
VERTEX
8
RASTER
10
117.975
20
11.27
30
0
0
VERTEX
8
RASTER
10
117.32
20
10.594
30
0
0
VERTEX
8
RASTER
10
117.053
20
10.45
30
0
0
VERTEX
8
RASTER
10
116.705
20
10.04
30
0
0
VERTEX
8
RASTER
10
117.187
20
9.907
30
0
0
VERTEX
8
RASTER
10
117.771
20
9.528
30
0
0
VERTEX
8
RASTER
10
117.873
20
9.733
30
0
0
VERTEX
8
RASTER
10
118.897
20
10.758
30
0
0
VERTEX
8
RASTER
10
119.205
20
10.799
30
0
0
VERTEX
8
RASTER
10
119.307
20
10.655
30
0
0
VERTEX
8
RASTER
10
119.236
20
11.137
30
0
0
VERTEX
8
RASTER
10
119.061
20
11.475
30
0
0
SEQEND
8
RASTER
0
POLYLINE
8
RASTER
66
1
70
1
0
VERTEX
8
RASTER
10
119.82
20
10.491
30
0
0
VERTEX
8
RASTER
10
118.857
20
9.528
30
0
0
VERTEX
8
RASTER
10
119.881
20
9.118
30
0
0
VERTEX
8
RASTER
10
120.393
20
8.504
30
0
0
VERTEX
8
RASTER
10
120.567
20
7.961
30
0
0
VERTEX
8
RASTER
10
120.742
20
7.787
30
0
0
VERTEX
8
RASTER
10
120.875
20
8.985
30
0
0
VERTEX
8
RASTER
10
120.67
20
9.6
30
0
0
VERTEX
8
RASTER
10
120.393
20
10.04
30
0
0
SEQEND
8
RASTER
0
POLYLINE
8
RASTER
66
1
70
1
0
VERTEX
8
RASTER
10
116.367
20
9.6
30
0
0
VERTEX
8
RASTER
10
115.824
20
9.221
30
0
0
VERTEX
8
RASTER
10
115.547
20
8.678
30
0
0
VERTEX
8
RASTER
10
115.547
20
7.858
30
0
0
VERTEX
8
RASTER
10
115.824
20
7.213
30
0
0
VERTEX
8
RASTER
10
116.541
20
6.496
30
0
0
VERTEX
8
RASTER
10
117.596
20
6.014
30
0
0
VERTEX
8
RASTER
10
118.652
20
5.84
30
0
0
VERTEX
8
RASTER
10
119.236
20
5.912
30
0
0
VERTEX
8
RASTER
10
119.779
20
6.188
30
0
0
VERTEX
8
RASTER
10
119.983
20
6.393
30
0
0
VERTEX
8
RASTER
10
120.26
20
6.936
30
0
0
VERTEX
8
RASTER
10
120.26
20
7.961
30
0
0
VERTEX
8
RASTER
10
119.983
20
8.504
30
0
0
VERTEX
8
RASTER
10
119.676
20
8.811
30
0
0
VERTEX
8
RASTER
10
119.133
20
9.088
30
0
0
VERTEX
8
RASTER
10
118.621
20
9.088
30
0
0
VERTEX
8
RASTER
10
118.139
20
8.852
30
0
0
VERTEX
8
RASTER
10
117.904
20
8.371
30
0
0
VERTEX
8
RASTER
10
117.904
20
8.063
30
0
0
VERTEX
8
RASTER
10
118.18
20
7.623
30
0
0
VERTEX
8
RASTER
10
118.488
20
7.479
30
0
0
VERTEX
8
RASTER
10
118.59
20
7.623
30
0
0
VERTEX
8
RASTER
10
118.314
20
7.961
30
0
0
VERTEX
8
RASTER
10
118.385
20
8.299
30
0
0
VERTEX
8
RASTER
10
118.621
20
8.473
30
0
0
VERTEX
8
RASTER
10
119.164
20
8.401
30
0
0
VERTEX
8
RASTER
10
119.369
20
8.196
30
0
0
VERTEX
8
RASTER
10
119.645
20
7.551
30
0
0
VERTEX
8
RASTER
10
119.645
20
7.244
30
0
0
VERTEX
8
RASTER
10
119.307
20
6.66
30
0
0
VERTEX
8
RASTER
10
118.518
20
6.322
30
0
0
VERTEX
8
RASTER
10
117.801
20
6.322
30
0
0
VERTEX
8
RASTER
10
117.053
20
6.598
30
0
0
VERTEX
8
RASTER
10
116.439
20
7.008
30
0
0
VERTEX
8
RASTER
10
116.234
20
7.213
30
0
0
VERTEX
8
RASTER
10
115.957
20
7.756
30
0
0
VERTEX
8
RASTER
10
115.886
20
8.135
30
0
0
VERTEX
8
RASTER
10
116.029
20
8.709
30
0
0
VERTEX
8
RASTER
10
116.572
20
9.088
30
0
0
VERTEX
8
RASTER
10
117.115
20
8.914
30
0
0
VERTEX
8
RASTER
10
117.289
20
8.678
30
0
0
VERTEX
8
RASTER
10
117.289
20
8.371
30
0
0
VERTEX
8
RASTER
10
116.91
20
7.991
30
0
0
VERTEX
8
RASTER
10
117.187
20
7.858
30
0
0
VERTEX
8
RASTER
10
117.32
20
7.93
30
0
0
VERTEX
8
RASTER
10
117.494
20
8.268
30
0
0
VERTEX
8
RASTER
10
117.494
20
8.575
30
0
0
VERTEX
8
RASTER
10
117.668
20
9.057
30
0
0
VERTEX
8
RASTER
10
117.525
20
9.323
30
0
0
VERTEX
8
RASTER
10
117.187
20
9.6
30
0
0
SEQEND
8
RASTER
0
POLYLINE
8
CUT
66
1
70
1
0
VERTEX
8
CUT
10
148.928
20
24.004
30
0
0
VERTEX
8
CUT
10
149.815
20
23.898
30
0
0
VERTEX
8
CUT
10
150.441
20
23.223
30
0
0
VERTEX
8
CUT
10
150.368
20
21.035
30
0
0
VERTEX
8
CUT
10
152.808
20
21.035
30
0
0
VERTEX
8
CUT
10
153.337
20
20.669
30
0
0
VERTEX
8
CUT
10
153.45
20
19.97
30
0
0
VERTEX
8
CUT
10
153.255
20
19.27
30
0
0
VERTEX
8
CUT
10
152.897
20
18.977
30
0
0
VERTEX
8
CUT
10
152.409
20
18.929
30
0
0
VERTEX
8
CUT
10
151.523
20
19.213
30
0
0
VERTEX
8
CUT
10
150.596
20
18.676
30
0
0
VERTEX
8
CUT
10
150.449
20
18.335
30
0
0
VERTEX
8
CUT
10
150.539
20
18.034
30
0
0
VERTEX
8
CUT
10
151.157
20
17.595
30
0
0
VERTEX
8
CUT
10
151.319
20
17.269
30
0
0
VERTEX
8
CUT
10
151.092
20
16.228
30
0
0
VERTEX
8
CUT
10
149.961
20
14.675
30
0
0
VERTEX
8
CUT
10
148.115
20
13.511
30
0
0
VERTEX
8
CUT
10
148.57
20
11.185
30
0
0
VERTEX
8
CUT
10
148.57
20
9.802
30
0
0
VERTEX
8
CUT
10
148.294
20
8.696
30
0
0
VERTEX
8
CUT
10
147.676
20
8.42
30
0
0
VERTEX
8
CUT
10
145.422
20
8.932
30
0
0
VERTEX
8
CUT
10
144.389
20
9.445
30
0
0
VERTEX
8
CUT
10
143.438
20
10.364
30
0
0
VERTEX
8
CUT
10
143.039
20
10.535
30
0
0
VERTEX
8
CUT
10
140.835
20
9.241
30
0
0
VERTEX
8
CUT
10
139.477
20
8.891
30
0
0
VERTEX
8
CUT
10
138.053
20
8.769
30
0
0
VERTEX
8
CUT
10
137.85
20
7.997
30
0
0
VERTEX
8
CUT
10
137.525
20
7.671
30
0
0
VERTEX
8
CUT
10
136.565
20
7.72
30
0
0
VERTEX
8
CUT
10
136.239
20
8.208
30
0
0
VERTEX
8
CUT
10
136.28
20
9.876
30
0
0
VERTEX
8
CUT
10
134.239
20
10.03
30
0
0
VERTEX
8
CUT
10
133.734
20
10.421
30
0
0
VERTEX
8
CUT
10
133.523
20
11.104
30
0
0
VERTEX
8
CUT
10
133.588
20
11.771
30
0
0
VERTEX
8
CUT
10
134.003
20
12.413
30
0
0
VERTEX
8
CUT
10
133.45
20
13.715
30
0
0
VERTEX
8
CUT
10
133.751
20
14.536
30
0
0
VERTEX
8
CUT
10
134.556
20
14.658
30
0
0
VERTEX
8
CUT
10
135.394
20
14.195
30
0
0
VERTEX
8
CUT
10
136.931
20
14.61
30
0
0
VERTEX
8
CUT
10
137.476
20
14.959
30
0
0
VERTEX
8
CUT
10
137.403
20
15.472
30
0
0
VERTEX
8
CUT
10
136.679
20
16.375
30
0
0
VERTEX
8
CUT
10
136.134
20
17.456
30
0
0
VERTEX
8
CUT
10
136.134
20
18.579
30
0
0
VERTEX
8
CUT
10
137.11
20
19.148
30
0
0
VERTEX
8
CUT
10
138.468
20
19.498
30
0
0
VERTEX
8
CUT
10
141.112
20
19.457
30
0
0
VERTEX
8
CUT
10
141.502
20
20.775
30
0
0
VERTEX
8
CUT
10
142.112
20
21.873
30
0
0
VERTEX
8
CUT
10
142.974
20
22.882
30
0
0
VERTEX
8
CUT
10
144.04
20
23.605
30
0
0
VERTEX
8
CUT
10
144.52
20
23.565
30
0
0
VERTEX
8
CUT
10
144.975
20
23.207
30
0
0
VERTEX
8
CUT
10
146.073
20
21.621
30
0
0
VERTEX
8
CUT
10
146.464
20
20.628
30
0
0
VERTEX
8
CUT
10
146.968
20
20.515
30
0
0
VERTEX
8
CUT
10
148.277
20
21.808
30
0
0
VERTEX
8
CUT
10
148.408
20
22.247
30
0
0
VERTEX
8
CUT
10
148.107
20
22.922
30
0
0
VERTEX
8
CUT
10
148.155
20
23.475
30
0
0
VERTEX
8
CUT
10
148.351
20
23.768
30
0
0
SEQEND
8
CUT
0
POLYLINE
8
RASTER
66
1
70
1
0
VERTEX
8
RASTER
10
149.001
20
23.768
30
0
0
VERTEX
8
RASTER
10
149.465
20
23.793
30
0
0
VERTEX
8
RASTER
10
149.733
20
23.654
30
0
0
VERTEX
8
RASTER
10
150.059
20
23.41
30
0
0
VERTEX
8
RASTER
10
150.278
20
22.979
30
0
0
VERTEX
8
RASTER
10
150.278
20
22.247
30
0
0
VERTEX
8
RASTER
10
150.197
20
21.922
30
0
0
VERTEX
8
RASTER
10
149.733
20
20.921
30
0
0
VERTEX
8
RASTER
10
149.164
20
19.994
30
0
0
VERTEX
8
RASTER
10
150.848
20
20.702
30
0
0
VERTEX
8
RASTER
10
151.905
20
20.946
30
0
0
VERTEX
8
RASTER
10
152.556
20
20.864
30
0
0
VERTEX
8
RASTER
10
152.987
20
20.645
30
0
0
VERTEX
8
RASTER
10
153.15
20
20.482
30
0
0
VERTEX
8
RASTER
10
153.288
20
20.132
30
0
0
VERTEX
8
RASTER
10
153.101
20
19.506
30
0
0
VERTEX
8
RASTER
10
152.824
20
19.213
30
0
0
VERTEX
8
RASTER
10
152.718
20
19.156
30
0
0
VERTEX
8
RASTER
10
152.287
20
19.213
30
0
0
VERTEX
8
RASTER
10
152.23
20
19.726
30
0
0
VERTEX
8
RASTER
10
152.068
20
19.807
30
0
0
VERTEX
8
RASTER
10
150.986
20
19.262
30
0
0
VERTEX
8
RASTER
10
149.408
20
18.156
30
0
0
VERTEX
8
RASTER
10
149.489
20
18.042
30
0
0
VERTEX
8
RASTER
10
149.628
20
18.099
30
0
0
VERTEX
8
RASTER
10
149.872
20
18.018
30
0
0
VERTEX
8
RASTER
10
150.628
20
17.635
30
0
0
VERTEX
8
RASTER
10
151.035
20
17.31
30
0
0
VERTEX
8
RASTER
10
151.092
20
16.96
30
0
0
VERTEX
8
RASTER
10
150.929
20
16.553
30
0
0
VERTEX
8
RASTER
10
150.628
20
15.96
30
0
0
VERTEX
8
RASTER
10
150.221
20
15.39
30
0
0
VERTEX
8
RASTER
10
149.408
20
14.577
30
0
0
VERTEX
8
RASTER
10
148.652
20
14.113
30
0
0
VERTEX
8
RASTER
10
148.001
20
13.869
30
0
0
VERTEX
8
RASTER
10
147.35
20
13.788
30
0
0
VERTEX
8
RASTER
10
147.269
20
13.707
30
0
0
VERTEX
8
RASTER
10
147.619
20
13.324
30
0
0
VERTEX
8
RASTER
10
148.001
20
12.568
30
0
0
VERTEX
8
RASTER
10
148.326
20
11.267
30
0
0
VERTEX
8
RASTER
10
148.326
20
9.721
30
0
0
VERTEX
8
RASTER
10
148.025
20
8.802
30
0
0
VERTEX
8
RASTER
10
147.757
20
8.664
30
0
0
VERTEX
8
RASTER
10
147.106
20
8.745
30
0
0
VERTEX
8
RASTER
10
145.398
20
9.233
30
0
0
VERTEX
8
RASTER
10
144.642
20
9.615
30
0
0
VERTEX
8
RASTER
10
143.666
20
10.51
30
0
0
VERTEX
8
RASTER
10
143.365
20
11.023
30
0
0
VERTEX
8
RASTER
10
143.145
20
11.649
30
0
0
VERTEX
8
RASTER
10
142.413
20
10.51
30
0
0
VERTEX
8
RASTER
10
141.6
20
9.941
30
0
0
VERTEX
8
RASTER
10
140.68
20
9.477
30
0
0
VERTEX
8
RASTER
10
139.054
20
9.07
30
0
0
VERTEX
8
RASTER
10
138.566
20
9.07
30
0
0
VERTEX
8
RASTER
10
138.183
20
9.453
30
0
0
VERTEX
8
RASTER
10
137.809
20
9.095
30
0
0
VERTEX
8
RASTER
10
137.59
20
8.745
30
0
0
VERTEX
8
RASTER
10
137.671
20
8.42
30
0
0
VERTEX
8
RASTER
10
137.614
20
8.07
30
0
0
VERTEX
8
RASTER
10
137.183
20
7.769
30
0
0
VERTEX
8
RASTER
10
136.752
20
7.907
30
0
0
VERTEX
8
RASTER
10
136.451
20
8.338
30
0
0
VERTEX
8
RASTER
10
136.451
20
8.908
30
0
0
VERTEX
8
RASTER
10
136.614
20
9.396
30
0
0
VERTEX
8
RASTER
10
137.159
20
10.315
30
0
0
VERTEX
8
RASTER
10
137.858
20
11.079
30
0
0
VERTEX
8
RASTER
10
138.053
20
11.405
30
0
0
VERTEX
8
RASTER
10
137.891
20
11.372
30
0
0
VERTEX
8
RASTER
10
136.963
20
10.754
30
0
0
VERTEX
8
RASTER
10
136.207
20
10.372
30
0
0
VERTEX
8
RASTER
10
135.394
20
10.128
30
0
0
VERTEX
8
RASTER
10
134.662
20
10.128
30
0
0
VERTEX
8
RASTER
10
134.149
20
10.347
30
0
0
VERTEX
8
RASTER
10
133.824
20
10.754
30
0
0
VERTEX
8
RASTER
10
133.685
20
11.185
30
0
0
VERTEX
8
RASTER
10
133.824
20
11.698
30
0
0
VERTEX
8
RASTER
10
133.954
20
11.893
30
0
0
VERTEX
8
RASTER
10
134.173
20
11.999
30
0
0
VERTEX
8
RASTER
10
134.417
20
12.08
30
0
0
VERTEX
8
RASTER
10
134.686
20
11.942
30
0
0
VERTEX
8
RASTER
10
134.962
20
11.405
30
0
0
VERTEX
8
RASTER
10
135.068
20
11.348
30
0
0
VERTEX
8
RASTER
10
136.069
20
11.974
30
0
0
VERTEX
8
RASTER
10
137.159
20
12.836
30
0
0
VERTEX
8
RASTER
10
136.695
20
12.731
30
0
0
VERTEX
8
RASTER
10
136.288
20
12.731
30
0
0
VERTEX
8
RASTER
10
136.126
20
12.649
30
0
0
VERTEX
8
RASTER
10
134.906
20
12.649
30
0
0
VERTEX
8
RASTER
10
133.986
20
13.032
30
0
0
VERTEX
8
RASTER
10
133.685
20
13.544
30
0
0
VERTEX
8
RASTER
10
133.685
20
13.951
30
0
0
VERTEX
8
RASTER
10
133.824
20
14.219
30
0
0
VERTEX
8
RASTER
10
134.068
20
14.463
30
0
0
VERTEX
8
RASTER
10
134.336
20
14.52
30
0
0
VERTEX
8
RASTER
10
134.605
20
14.382
30
0
0
VERTEX
8
RASTER
10
134.8
20
13.926
30
0
0
VERTEX
8
RASTER
10
134.906
20
13.869
30
0
0
VERTEX
8
RASTER
10
135.312
20
13.869
30
0
0
VERTEX
8
RASTER
10
136.532
20
14.195
30
0
0
VERTEX
8
RASTER
10
137.996
20
14.764
30
0
0
VERTEX
8
RASTER
10
138.403
20
15.008
30
0
0
VERTEX
8
RASTER
10
137.972
20
15.309
30
0
0
VERTEX
8
RASTER
10
137.321
20
15.96
30
0
0
VERTEX
8
RASTER
10
136.915
20
16.529
30
0
0
VERTEX
8
RASTER
10
136.614
20
17.042
30
0
0
VERTEX
8
RASTER
10
136.288
20
17.855
30
0
0
VERTEX
8
RASTER
10
136.345
20
18.367
30
0
0
VERTEX
8
RASTER
10
136.752
20
18.693
30
0
0
VERTEX
8
RASTER
10
137.264
20
18.912
30
0
0
VERTEX
8
RASTER
10
137.996
20
19.156
30
0
0
VERTEX
8
RASTER
10
138.81
20
19.319
30
0
0
VERTEX
8
RASTER
10
139.948
20
19.319
30
0
0
VERTEX
8
RASTER
10
140.762
20
19.075
30
0
0
VERTEX
8
RASTER
10
141.551
20
18.693
30
0
0
VERTEX
8
RASTER
10
141.494
20
19.807
30
0
0
VERTEX
8
RASTER
10
141.738
20
20.62
30
0
0
VERTEX
8
RASTER
10
142.12
20
21.377
30
0
0
VERTEX
8
RASTER
10
142.446
20
21.865
30
0
0
VERTEX
8
RASTER
10
143.34
20
22.841
30
0
0
VERTEX
8
RASTER
10
144.178
20
23.386
30
0
0
VERTEX
8
RASTER
10
144.528
20
23.248
30
0
0
VERTEX
8
RASTER
10
144.853
20
22.922
30
0
0
VERTEX
8
RASTER
10
145.666
20
21.783
30
0
0
VERTEX
8
RASTER
10
146.211
20
20.539
30
0
0
VERTEX
8
RASTER
10
146.293
20
20.214
30
0
0
VERTEX
8
RASTER
10
146.293
20
19.563
30
0
0
VERTEX
8
RASTER
10
146.374
20
19.482
30
0
0
VERTEX
8
RASTER
10
148.269
20
21.328
30
0
0
VERTEX
8
RASTER
10
148.92
20
22.223
30
0
0
VERTEX
8
RASTER
10
149.14
20
22.654
30
0
0
VERTEX
8
RASTER
10
149.115
20
22.792
30
0
0
VERTEX
8
RASTER
10
148.977
20
22.816
30
0
0
VERTEX
8
RASTER
10
148.814
20
22.735
30
0
0
VERTEX
8
RASTER
10
148.464
20
22.792
30
0
0
VERTEX
8
RASTER
10
148.326
20
22.979
30
0
0
VERTEX
8
RASTER
10
148.326
20
23.223
30
0
0
VERTEX
8
RASTER
10
148.546
20
23.573
30
0
0
SEQEND
8
RASTER
0
POLYLINE
8
RASTER
66
1
70
1
0
VERTEX
8
RASTER
10
144.178
20
22.979
30
0
0
VERTEX
8
RASTER
10
143.91
20
22.841
30
0
0
VERTEX
8
RASTER
10
143.015
20
21.946
30
0
0
VERTEX
8
RASTER
10
142.527
20
21.295
30
0
0
VERTEX
8
RASTER
10
142.063
20
20.376
30
0
0
VERTEX
8
RASTER
10
141.819
20
19.156
30
0
0
VERTEX
8
RASTER
10
141.901
20
18.994
30
0
0
VERTEX
8
RASTER
10
141.901
20
18.506
30
0
0
VERTEX
8
RASTER
10
142.201
20
17.749
30
0
0
VERTEX
8
RASTER
10
142.795
20
17.611
30
0
0
VERTEX
8
RASTER
10
143.121
20
17.448
30
0
0
VERTEX
8
RASTER
10
143.527
20
17.611
30
0
0
VERTEX
8
RASTER
10
144.015
20
17.611
30
0
0
VERTEX
8
RASTER
10
144.284
20
17.391
30
0
0
VERTEX
8
RASTER
10
144.479
20
17.017
30
0
0
VERTEX
8
RASTER
10
144.747
20
16.879
30
0
0
VERTEX
8
RASTER
10
144.991
20
16.879
30
0
0
VERTEX
8
RASTER
10
145.341
20
16.659
30
0
0
VERTEX
8
RASTER
10
145.585
20
16.334
30
0
0
VERTEX
8
RASTER
10
145.805
20
15.821
30
0
0
VERTEX
8
RASTER
10
145.723
20
15.333
30
0
0
VERTEX
8
RASTER
10
145.398
20
14.764
30
0
0
VERTEX
8
RASTER
10
146.13
20
14.357
30
0
0
VERTEX
8
RASTER
10
146.618
20
14.195
30
0
0
VERTEX
8
RASTER
10
147.431
20
14.195
30
0
0
VERTEX
8
RASTER
10
148.757
20
14.658
30
0
0
VERTEX
8
RASTER
10
149.245
20
14.984
30
0
0
VERTEX
8
RASTER
10
150.14
20
15.96
30
0
0
VERTEX
8
RASTER
10
150.685
20
16.96
30
0
0
VERTEX
8
RASTER
10
150.628
20
17.147
30
0
0
VERTEX
8
RASTER
10
149.977
20
17.554
30
0
0
VERTEX
8
RASTER
10
148.733
20
18.099
30
0
0
VERTEX
8
RASTER
10
148.082
20
18.262
30
0
0
VERTEX
8
RASTER
10
147.187
20
18.262
30
0
0
VERTEX
8
RASTER
10
146.618
20
18.099
30
0
0
VERTEX
8
RASTER
10
145.862
20
17.717
30
0
0
VERTEX
8
RASTER
10
145.016
20
16.985
30
0
0
VERTEX
8
RASTER
10
145.805
20
18.587
30
0
0
VERTEX
8
RASTER
10
145.943
20
19.506
30
0
0
VERTEX
8
RASTER
10
145.886
20
20.214
30
0
0
VERTEX
8
RASTER
10
145.561
20
21.19
30
0
0
VERTEX
8
RASTER
10
145.178
20
21.865
30
0
0
VERTEX
8
RASTER
10
144.772
20
22.434
30
0
0
SEQEND
8
RASTER
0
POLYLINE
8
RASTER
66
1
70
1
0
VERTEX
8
RASTER
10
139.054
20
18.994
30
0
0
VERTEX
8
RASTER
10
138.891
20
18.912
30
0
0
VERTEX
8
RASTER
10
138.159
20
18.831
30
0
0
VERTEX
8
RASTER
10
137.427
20
18.587
30
0
0
VERTEX
8
RASTER
10
136.671
20
18.205
30
0
0
VERTEX
8
RASTER
10
136.614
20
18.018
30
0
0
VERTEX
8
RASTER
10
136.695
20
17.774
30
0
0
VERTEX
8
RASTER
10
137.159
20
16.854
30
0
0
VERTEX
8
RASTER
10
137.484
20
16.366
30
0
0
VERTEX
8
RASTER
10
138.216
20
15.634
30
0
0
VERTEX
8
RASTER
10
138.541
20
15.39
30
0
0
VERTEX
8
RASTER
10
139.298
20
15.008
30
0
0
VERTEX
8
RASTER
10
139.867
20
14.845
30
0
0
VERTEX
8
RASTER
10
141.087
20
14.845
30
0
0
VERTEX
8
RASTER
10
141.193
20
14.902
30
0
0
VERTEX
8
RASTER
10
141.413
20
15.415
30
0
0
VERTEX
8
RASTER
10
141.413
20
15.659
30
0
0
VERTEX
8
RASTER
10
141.25
20
16.147
30
0
0
VERTEX
8
RASTER
10
141.331
20
16.635
30
0
0
VERTEX
8
RASTER
10
141.551
20
17.147
30
0
0
VERTEX
8
RASTER
10
141.925
20
17.505
30
0
0
VERTEX
8
RASTER
10
141.982
20
17.611
30
0
0
VERTEX
8
RASTER
10
141.925
20
17.717
30
0
0
VERTEX
8
RASTER
10
141.437
20
18.286
30
0
0
VERTEX
8
RASTER
10
140.436
20
18.831
30
0
0
VERTEX
8
RASTER
10
139.786
20
18.994
30
0
0
SEQEND
8
RASTER
0
POLYLINE
8
RASTER
66
1
70
1
0
VERTEX
8
RASTER
10
142.47
20
17.611
30
0
0
VERTEX
8
RASTER
10
141.957
20
17.391
30
0
0
VERTEX
8
RASTER
10
141.795
20
17.229
30
0
0
VERTEX
8
RASTER
10
141.494
20
16.553
30
0
0
VERTEX
8
RASTER
10
141.494
20
16.065
30
0
0
VERTEX
8
RASTER
10
141.819
20
15.496
30
0
0
VERTEX
8
RASTER
10
141.413
20
14.927
30
0
0
VERTEX
8
RASTER
10
141.413
20
14.195
30
0
0
VERTEX
8
RASTER
10
141.632
20
13.764
30
0
0
VERTEX
8
RASTER
10
141.982
20
13.544
30
0
0
VERTEX
8
RASTER
10
142.226
20
13.544
30
0
0
VERTEX
8
RASTER
10
142.714
20
13.869
30
0
0
VERTEX
8
RASTER
10
143.096
20
13.438
30
0
0
VERTEX
8
RASTER
10
143.365
20
13.3
30
0
0
VERTEX
8
RASTER
10
143.69
20
13.3
30
0
0
VERTEX
8
RASTER
10
144.04
20
13.438
30
0
0
VERTEX
8
RASTER
10
144.365
20
13.682
30
0
0
VERTEX
8
RASTER
10
144.585
20
14.113
30
0
0
VERTEX
8
RASTER
10
144.609
20
14.821
30
0
0
VERTEX
8
RASTER
10
144.991
20
14.845
30
0
0
VERTEX
8
RASTER
10
145.292
20
15.032
30
0
0
VERTEX
8
RASTER
10
145.561
20
15.496
30
0
0
VERTEX
8
RASTER
10
145.561
20
15.903
30
0
0
VERTEX
8
RASTER
10
145.26
20
16.415
30
0
0
VERTEX
8
RASTER
10
144.747
20
16.716
30
0
0
VERTEX
8
RASTER
10
144.365
20
16.741
30
0
0
VERTEX
8
RASTER
10
144.341
20
16.96
30
0
0
VERTEX
8
RASTER
10
144.121
20
17.31
30
0
0
VERTEX
8
RASTER
10
143.609
20
17.367
30
0
0
VERTEX
8
RASTER
10
143.226
20
17.066
30
0
0
VERTEX
8
RASTER
10
142.82
20
17.473
30
0
0
SEQEND
8
RASTER
0
POLYLINE
8
RASTER
66
1
70
1
0
VERTEX
8
RASTER
10
142.901
20
16.041
30
0
0
VERTEX
8
RASTER
10
143.121
20
16.065
30
0
0
VERTEX
8
RASTER
10
143.202
20
15.984
30
0
0
VERTEX
8
RASTER
10
142.877
20
15.496
30
0
0
VERTEX
8
RASTER
10
142.877
20
15.089
30
0
0
VERTEX
8
RASTER
10
143.039
20
14.927
30
0
0
VERTEX
8
RASTER
10
143.47
20
15.065
30
0
0
VERTEX
8
RASTER
10
143.91
20
15.52
30
0
0
VERTEX
8
RASTER
10
144.097
20
15.577
30
0
0
VERTEX
8
RASTER
10
144.178
20
15.496
30
0
0
VERTEX
8
RASTER
10
144.04
20
15.228
30
0
0
VERTEX
8
RASTER
10
143.796
20
14.984
30
0
0
VERTEX
8
RASTER
10
143.202
20
14.601
30
0
0
VERTEX
8
RASTER
10
142.958
20
14.601
30
0
0
VERTEX
8
RASTER
10
142.738
20
14.707
30
0
0
VERTEX
8
RASTER
10
142.633
20
14.927
30
0
0
VERTEX
8
RASTER
10
142.633
20
15.577
30
0
0
SEQEND
8
RASTER
0
POLYLINE
8
RASTER
66
1
70
1
0
VERTEX
8
RASTER
10
140.924
20
14.601
30
0
0
VERTEX
8
RASTER
10
139.843
20
14.056
30
0
0
VERTEX
8
RASTER
10
139.111
20
13.324
30
0
0
VERTEX
8
RASTER
10
138.647
20
12.487
30
0
0
VERTEX
8
RASTER
10
138.403
20
11.511
30
0
0
VERTEX
8
RASTER
10
138.403
20
10.29
30
0
0
VERTEX
8
RASTER
10
138.484
20
9.884
30
0
0
VERTEX
8
RASTER
10
138.728
20
9.477
30
0
0
VERTEX
8
RASTER
10
139.054
20
9.477
30
0
0
VERTEX
8
RASTER
10
140.111
20
9.721
30
0
0
VERTEX
8
RASTER
10
141.006
20
10.046
30
0
0
VERTEX
8
RASTER
10
141.681
20
10.429
30
0
0
VERTEX
8
RASTER
10
142.25
20
10.917
30
0
0
VERTEX
8
RASTER
10
142.958
20
12.08
30
0
0
VERTEX
8
RASTER
10
143.121
20
12.568
30
0
0
VERTEX
8
RASTER
10
143.145
20
12.999
30
0
0
VERTEX
8
RASTER
10
142.852
20
13.194
30
0
0
VERTEX
8
RASTER
10
142.633
20
13.463
30
0
0
VERTEX
8
RASTER
10
142.307
20
13.3
30
0
0
VERTEX
8
RASTER
10
141.901
20
13.3
30
0
0
VERTEX
8
RASTER
10
141.632
20
13.438
30
0
0
VERTEX
8
RASTER
10
141.25
20
13.869
30
0
0
VERTEX
8
RASTER
10
141.144
20
14.577
30
0
0
SEQEND
8
RASTER
0
POLYLINE
8
RASTER
66
1
70
1
0
VERTEX
8
RASTER
10
145.073
20
14.52
30
0
0
VERTEX
8
RASTER
10
144.967
20
14.463
30
0
0
VERTEX
8
RASTER
10
144.829
20
13.951
30
0
0
VERTEX
8
RASTER
10
144.528
20
13.438
30
0
0
VERTEX
8
RASTER
10
143.853
20
13.056
30
0
0
VERTEX
8
RASTER
10
143.503
20
12.999
30
0
0
VERTEX
8
RASTER
10
143.446
20
12.893
30
0
0
VERTEX
8
RASTER
10
143.389
20
12.625
30
0
0
VERTEX
8
RASTER
10
143.446
20
12.08
30
0
0
VERTEX
8
RASTER
10
143.69
20
11.348
30
0
0
VERTEX
8
RASTER
10
144.072
20
10.673
30
0
0
VERTEX
8
RASTER
10
144.56
20
10.185
30
0
0
VERTEX
8
RASTER
10
145.048
20
9.859
30
0
0
VERTEX
8
RASTER
10
146.455
20
9.314
30
0
0
VERTEX
8
RASTER
10
147.676
20
9.07
30
0
0
VERTEX
8
RASTER
10
147.838
20
9.233
30
0
0
VERTEX
8
RASTER
10
148.001
20
9.884
30
0
0
VERTEX
8
RASTER
10
148.001
20
11.104
30
0
0
VERTEX
8
RASTER
10
147.757
20
12.161
30
0
0
VERTEX
8
RASTER
10
147.212
20
13.162
30
0
0
VERTEX
8
RASTER
10
146.724
20
13.65
30
0
0
VERTEX
8
RASTER
10
146.154
20
14.056
30
0
0
VERTEX
8
RASTER
10
145.235
20
14.52
30
0
0
SEQEND
8
RASTER
0
ENDSEC
0
EOF
