  0
SECTION
  2
HEADER
  9
$ACADVER
  1
AC1015
  9
$ACADMAINTVER
 70
6
  9
$DWGCODEPAGE
  3
ANSI_1252
  9
$INSBASE
 10
0.0
 20
0.0
 30
0.0
  9
$EXTMIN
 10
1e+20
 20
1e+20
 30
1e+20
  9
$EXTMAX
 10
-1e+20
 20
-1e+20
 30
-1e+20
  9
$LIMMIN
 10
0.0
 20
0.0
  9
$LIMMAX
 10
420.0
 20
297.0
  9
$ORTHOMODE
 70
0
  9
$REGENMODE
 70
1
  9
$FILLMODE
 70
1
  9
$QTEXTMODE
 70
0
  9
$MIRRTEXT
 70
1
  9
$LTSCALE
 40
1.0
  9
$ATTMODE
 70
1
  9
$TEXTSIZE
 40
2.5
  9
$TRACEWID
 40
1.0
  9
$TEXTSTYLE
  7
Standard
  9
$CLAYER
  8
0
  9
$CELTYPE
  6
ByLayer
  9
$CECOLOR
 62
256
  9
$CELTSCALE
 40
1.0
  9
$DISPSILH
 70
0
  9
$DIMSCALE
 40
1.0
  9
$DIMASZ
 40
2.5
  9
$DIMEXO
 40
0.625
  9
$DIMDLI
 40
3.75
  9
$DIMRND
 40
0.0
  9
$DIMDLE
 40
0.0
  9
$DIMEXE
 40
1.25
  9
$DIMTP
 40
0.0
  9
$DIMTM
 40
0.0
  9
$DIMTXT
 40
2.5
  9
$DIMCEN
 40
2.5
  9
$DIMTSZ
 40
0.0
  9
$DIMTOL
 70
0
  9
$DIMLIM
 70
0
  9
$DIMTIH
 70
0
  9
$DIMTOH
 70
0
  9
$DIMSE1
 70
0
  9
$DIMSE2
 70
0
  9
$DIMTAD
 70
1
  9
$DIMZIN
 70
8
  9
$DIMBLK
  1

  9
$DIMASO
 70
1
  9
$DIMSHO
 70
1
  9
$DIMPOST
  1

  9
$DIMAPOST
  1

  9
$DIMALT
 70
0
  9
$DIMALTD
 70
3
  9
$DIMALTF
 40
0.03937007874
  9
$DIMLFAC
 40
1.0
  9
$DIMTOFL
 70
1
  9
$DIMTVP
 40
0.0
  9
$DIMTIX
 70
0
  9
$DIMSOXD
 70
0
  9
$DIMSAH
 70
0
  9
$DIMBLK1
  1

  9
$DIMBLK2
  1

  9
$DIMSTYLE
  2
ISO-25
  9
$DIMCLRD
 70
0
  9
$DIMCLRE
 70
0
  9
$DIMCLRT
 70
0
  9
$DIMTFAC
 40
1.0
  9
$DIMGAP
 40
0.625
  9
$DIMJUST
 70
0
  9
$DIMSD1
 70
0
  9
$DIMSD2
 70
0
  9
$DIMTOLJ
 70
0
  9
$DIMTZIN
 70
8
  9
$DIMALTZ
 70
0
  9
$DIMALTTZ
 70
0
  9
$DIMUPT
 70
0
  9
$DIMDEC
 70
2
  9
$DIMTDEC
 70
2
  9
$DIMALTU
 70
2
  9
$DIMALTTD
 70
3
  9
$DIMTXSTY
  7
Standard
  9
$DIMAUNIT
 70
0
  9
$DIMADEC
 70
0
  9
$DIMALTRND
 40
0.0
  9
$DIMAZIN
 70
0
  9
$DIMDSEP
 70
44
  9
$DIMATFIT
 70
3
  9
$DIMFRAC
 70
0
  9
$DIMLDRBLK
  1

  9
$DIMLUNIT
 70
2
  9
$DIMLWD
 70
-2
  9
$DIMLWE
 70
-2
  9
$DIMTMOVE
 70
0
  9
$LUNITS
 70
2
  9
$LUPREC
 70
4
  9
$SKETCHINC
 40
1.0
  9
$FILLETRAD
 40
10.0
  9
$AUNITS
 70
0
  9
$AUPREC
 70
2
  9
$MENU
  1
.
  9
$ELEVATION
 40
0.0
  9
$PELEVATION
 40
0.0
  9
$THICKNESS
 40
0.0
  9
$LIMCHECK
 70
0
  9
$CHAMFERA
 40
0.0
  9
$CHAMFERB
 40
0.0
  9
$CHAMFERC
 40
0.0
  9
$CHAMFERD
 40
0.0
  9
$SKPOLY
 70
0
  9
$TDCREATE
 40
2461294.8779513887
  9
$TDUCREATE
 40
2458532.153996898
  9
$TDUPDATE
 40
2461294.8779513887
  9
$TDUUPDATE
 40
2458532.1544311
  9
$TDINDWG
 40
0.0
  9
$TDUSRTIMER
 40
0.0
  9
$USRTIMER
 70
1
  9
$ANGBASE
 50
0.0
  9
$ANGDIR
 70
0
  9
$PDMODE
 70
0
  9
$PDSIZE
 40
0.0
  9
$PLINEWID
 40
0.0
  9
$SPLFRAME
 70
0
  9
$SPLINETYPE
 70
6
  9
$SPLINESEGS
 70
8
  9
$HANDSEED
  5
B8
  9
$SURFTAB1
 70
6
  9
$SURFTAB2
 70
6
  9
$SURFTYPE
 70
6
  9
$SURFU
 70
6
  9
$SURFV
 70
6
  9
$UCSBASE
  2

  9
$UCSNAME
  2

  9
$UCSORG
 10
0.0
 20
0.0
 30
0.0
  9
$UCSXDIR
 10
1.0
 20
0.0
 30
0.0
  9
$UCSYDIR
 10
0.0
 20
1.0
 30
0.0
  9
$UCSORTHOREF
  2

  9
$UCSORTHOVIEW
 70
0
  9
$UCSORGTOP
 10
0.0
 20
0.0
 30
0.0
  9
$UCSORGBOTTOM
 10
0.0
 20
0.0
 30
0.0
  9
$UCSORGLEFT
 10
0.0
 20
0.0
 30
0.0
  9
$UCSORGRIGHT
 10
0.0
 20
0.0
 30
0.0
  9
$UCSORGFRONT
 10
0.0
 20
0.0
 30
0.0
  9
$UCSORGBACK
 10
0.0
 20
0.0
 30
0.0
  9
$PUCSBASE
  2

  9
$PUCSNAME
  2

  9
$PUCSORG
 10
0.0
 20
0.0
 30
0.0
  9
$PUCSXDIR
 10
1.0
 20
0.0
 30
0.0
  9
$PUCSYDIR
 10
0.0
 20
1.0
 30
0.0
  9
$PUCSORTHOREF
  2

  9
$PUCSORTHOVIEW
 70
0
  9
$PUCSORGTOP
 10
0.0
 20
0.0
 30
0.0
  9
$PUCSORGBOTTOM
 10
0.0
 20
0.0
 30
0.0
  9
$PUCSORGLEFT
 10
0.0
 20
0.0
 30
0.0
  9
$PUCSORGRIGHT
 10
0.0
 20
0.0
 30
0.0
  9
$PUCSORGFRONT
 10
0.0
 20
0.0
 30
0.0
  9
$PUCSORGBACK
 10
0.0
 20
0.0
 30
0.0
  9
$USERI1
 70
0
  9
$USERI2
 70
0
  9
$USERI3
 70
0
  9
$USERI4
 70
0
  9
$USERI5
 70
0
  9
$USERR1
 40
0.0
  9
$USERR2
 40
0.0
  9
$USERR3
 40
0.0
  9
$USERR4
 40
0.0
  9
$USERR5
 40
0.0
  9
$WORLDVIEW
 70
1
  9
$SHADEDGE
 70
3
  9
$SHADEDIF
 70
70
  9
$TILEMODE
 70
1
  9
$MAXACTVP
 70
64
  9
$PINSBASE
 10
0.0
 20
0.0
 30
0.0
  9
$PLIMCHECK
 70
0
  9
$PEXTMIN
 10
1e+20
 20
1e+20
 30
1e+20
  9
$PEXTMAX
 10
-1e+20
 20
-1e+20
 30
-1e+20
  9
$PLIMMIN
 10
0.0
 20
0.0
  9
$PLIMMAX
 10
420.0
 20
297.0
  9
$UNITMODE
 70
0
  9
$VISRETAIN
 70
1
  9
$PLINEGEN
 70
0
  9
$PSLTSCALE
 70
1
  9
$TREEDEPTH
 70
3020
  9
$CMLSTYLE
  2
Standard
  9
$CMLJUST
 70
0
  9
$CMLSCALE
 40
20.0
  9
$PROXYGRAPHICS
 70
1
  9
$MEASUREMENT
 70
1
  9
$CELWEIGHT
370
-1
  9
$ENDCAPS
280
0
  9
$JOINSTYLE
280
0
  9
$LWDISPLAY
290
0
  9
$INSUNITS
 70
4
  9
$HYPERLINKBASE
  1

  9
$STYLESHEET
  1

  9
$XEDIT
290
1
  9
$CEPSNTYPE
380
0
  9
$PSTYLEMODE
290
1
  9
$FINGERPRINTGUID
  2
{3B673B04-F586-4BF3-AB10-5629BB7222EA}
  9
$VERSIONGUID
  2
{DAD7A3B9-6052-4FF3-9AE2-54EA35D22C67}
  9
$EXTNAMES
290
1
  9
$PSVPSCALE
 40
0.0
  9
$OLESTARTUP
290
0
  0
ENDSEC
  0
SECTION
  2
CLASSES
  0
CLASS
  1
ACDBDICTIONARYWDFLT
  2
AcDbDictionaryWithDefault
  3
ObjectDBX Classes
 90
0
280
0
281
0
  0
CLASS
  1
SUN
  2
AcDbSun
  3
SCENEOE
 90
1153
280
0
281
0
  0
CLASS
  1
VISUALSTYLE
  2
AcDbVisualStyle
  3
ObjectDBX Classes
 90
4095
280
0
281
0
  0
CLASS
  1
MATERIAL
  2
AcDbMaterial
  3
ObjectDBX Classes
 90
1153
280
0
281
0
  0
CLASS
  1
SCALE
  2
AcDbScale
  3
ObjectDBX Classes
 90
1153
280
0
281
0
  0
CLASS
  1
TABLESTYLE
  2
AcDbTableStyle
  3
ObjectDBX Classes
 90
4095
280
0
281
0
  0
CLASS
  1
MLEADERSTYLE
  2
AcDbMLeaderStyle
  3
ACDB_MLEADERSTYLE_CLASS
 90
4095
280
0
281
0
  0
CLASS
  1
DICTIONARYVAR
  2
AcDbDictionaryVar
  3
ObjectDBX Classes
 90
0
280
0
281
0
  0
CLASS
  1
CELLSTYLEMAP
  2
AcDbCellStyleMap
  3
ObjectDBX Classes
 90
1152
280
0
281
0
  0
CLASS
  1
MENTALRAYRENDERSETTINGS
  2
AcDbMentalRayRenderSettings
  3
SCENEOE
 90
1024
280
0
281
0
  0
CLASS
  1
ACDBDETAILVIEWSTYLE
  2
AcDbDetailViewStyle
  3
ObjectDBX Classes
 90
1025
280
0
281
0
  0
CLASS
  1
ACDBSECTIONVIEWSTYLE
  2
AcDbSectionViewStyle
  3
ObjectDBX Classes
 90
1025
280
0
281
0
  0
CLASS
  1
RASTERVARIABLES
  2
AcDbRasterVariables
  3
ISM
 90
0
280
0
281
0
  0
CLASS
  1
ACDBPLACEHOLDER
  2
AcDbPlaceHolder
  3
ObjectDBX Classes
 90
0
280
0
281
0
  0
CLASS
  1
LAYOUT
  2
AcDbLayout
  3
ObjectDBX Classes
 90
0
280
0
281
0
  0
ENDSEC
  0
SECTION
  2
TABLES
  0
TABLE
  2
VPORT
  5
8
330
0
100
AcDbSymbolTable
 70
1
  0
VPORT
  5
23
330
8
100
AcDbSymbolTableRecord
100
AcDbViewportTableRecord
  2
*Active
 70
0
 10
0.0
 20
0.0
 11
1.0
 21
1.0
 12
0.0
 22
0.0
 13
0.0
 23
0.0
 14
0.5
 24
0.5
 15
0.5
 25
0.5
 16
0.0
 26
0.0
 36
1.0
 17
0.0
 27
0.0
 37
0.0
 40
1000.0
 41
1.34
 42
50.0
 43
0.0
 44
0.0
 50
0.0
 51
0.0
 71
0
 72
1000
 73
1
 74
3
 75
0
 76
0
 77
0
 78
0
281
0
 65
0
146
0.0
  0
ENDTAB
  0
TABLE
  2
LTYPE
  5
2
330
0
100
AcDbSymbolTable
 70
3
  0
LTYPE
  5
24
330
2
100
AcDbSymbolTableRecord
100
AcDbLinetypeTableRecord
  2
ByBlock
 70
0
  3

 72
65
 73
0
 40
0.0
  0
LTYPE
  5
25
330
2
100
AcDbSymbolTableRecord
100
AcDbLinetypeTableRecord
  2
ByLayer
 70
0
  3

 72
65
 73
0
 40
0.0
  0
LTYPE
  5
26
330
2
100
AcDbSymbolTableRecord
100
AcDbLinetypeTableRecord
  2
Continuous
 70
0
  3

 72
65
 73
0
 40
0.0
  0
ENDTAB
  0
TABLE
  2
LAYER
  5
1
330
0
100
AcDbSymbolTable
 70
4
  0
LAYER
  5
27
330
1
100
AcDbSymbolTableRecord
100
AcDbLayerTableRecord
  2
0
 70
0
 62
7
  6
Continuous
370
-3
390
13
  0
LAYER
  5
28
330
1
100
AcDbSymbolTableRecord
100
AcDbLayerTableRecord
  2
Defpoints
 70
0
 62
7
  6
Continuous
290
0
370
-3
390
13
  0
LAYER
  5
2F
330
1
100
AcDbSymbolTableRecord
100
AcDbLayerTableRecord
  2
CUT
 70
0
 62
1
  6
Continuous
370
-3
390
13
  0
LAYER
  5
30
330
1
100
AcDbSymbolTableRecord
100
AcDbLayerTableRecord
  2
RASTER
 70
0
 62
7
  6
Continuous
370
-3
390
13
  0
ENDTAB
  0
TABLE
  2
STYLE
  5
5
330
0
100
AcDbSymbolTable
 70
1
  0
STYLE
  5
29
330
5
100
AcDbSymbolTableRecord
100
AcDbTextStyleTableRecord
  2
Standard
 70
0
 40
0.0
 41
1.0
 50
0.0
 71
0
 42
2.5
  3
txt
  4

  0
ENDTAB
  0
TABLE
  2
VIEW
  5
7
330
0
100
AcDbSymbolTable
 70
0
  0
ENDTAB
  0
TABLE
  2
UCS
  5
6
330
0
100
AcDbSymbolTable
 70
0
  0
ENDTAB
  0
TABLE
  2
APPID
  5
3
330
0
100
AcDbSymbolTable
 70
3
  0
APPID
  5
2A
330
3
100
AcDbSymbolTableRecord
100
AcDbRegAppTableRecord
  2
ACAD
 70
0
  0
APPID
  5
B5
330
3
100
AcDbSymbolTableRecord
100
AcDbRegAppTableRecord
  2
HATCHBACKGROUNDCOLOR
 70
0
  0
APPID
  5
B6
330
3
100
AcDbSymbolTableRecord
100
AcDbRegAppTableRecord
  2
EZDXF
 70
0
  0
ENDTAB
  0
TABLE
  2
DIMSTYLE
  5
4
330
0
100
AcDbSymbolTable
 70
1
100
AcDbDimStyleTable
  0
DIMSTYLE
105
2B
330
4
100
AcDbSymbolTableRecord
100
AcDbDimStyleTableRecord
  2
Standard
 70
0
  3

  4

 40
1.0
 41
2.5
 42
0.625
 43
3.75
 44
1.25
 45
0.0
 46
0.0
 47
0.0
 48
0.0
140
2.5
141
2.5
142
0.0
143
0.03937007874
144
1.0
145
0.0
146
1.0
147
0.625
148
0.0
 71
0
 72
0
 73
0
 74
0
 75
0
 76
0
 77
1
 78
8
 79
3
170
0
171
3
172
1
173
0
174
0
175
0
176
0
177
0
178
0
179
2
271
2
272
2
273
2
274
3
275
0
276
0
277
2
278
44
279
0
280
0
281
0
282
0
283
0
284
8
285
0
286
0
288
0
289
3
371
-2
372
-2
  0
ENDTAB
  0
TABLE
  2
BLOCK_RECORD
  5
9
330
0
100
AcDbSymbolTable
 70
2
  0
BLOCK_RECORD
  5
17
330
9
100
AcDbSymbolTableRecord
100
AcDbBlockTableRecord
  2
*Model_Space
340
1A
  0
BLOCK_RECORD
  5
1B
330
9
100
AcDbSymbolTableRecord
100
AcDbBlockTableRecord
  2
*Paper_Space
340
1E
  0
ENDTAB
  0
ENDSEC
  0
SECTION
  2
BLOCKS
  0
BLOCK
  5
18
330
17
100
AcDbEntity
  8
0
100
AcDbBlockBegin
  2
*Model_Space
 70
0
 10
0.0
 20
0.0
 30
0.0
  3
*Model_Space
  1

  0
ENDBLK
  5
19
330
17
100
AcDbEntity
  8
0
100
AcDbBlockEnd
  0
BLOCK
  5
1C
330
1B
100
AcDbEntity
  8
0
100
AcDbBlockBegin
  2
*Paper_Space
 70
0
 10
0.0
 20
0.0
 30
0.0
  3
*Paper_Space
  1

  0
ENDBLK
  5
1D
330
1B
100
AcDbEntity
  8
0
100
AcDbBlockEnd
  0
ENDSEC
  0
SECTION
  2
ENTITIES
  0
LWPOLYLINE
  5
31
330
17
100
AcDbEntity
  8
CUT
100
AcDbPolyline
 90
36
 70
1
 10
7.1
 20
216.28
 10
67.14
 20
216.28
 10
70.28
 20
216.28
 10
70.28
 20
213.9
 10
67.18
 20
213.9
 10
67.18
 20
211.68
 10
70.28
 20
211.68
 10
70.28
 20
209.3
 10
67.14
 20
209.3
 10
61.722
 20
209.3
 10
61.722
 20
206.2
 10
56.184
 20
206.2
 10
56.184
 20
209.3
 10
50.805
 20
209.3
 10
50.805
 20
206.2
 10
45.267
 20
206.2
 10
45.267
 20
209.3
 10
39.889
 20
209.3
 10
39.889
 20
206.2
 10
34.351
 20
206.2
 10
34.351
 20
209.3
 10
28.973
 20
209.3
 10
28.973
 20
206.2
 10
23.435
 20
206.2
 10
23.435
 20
209.3
 10
18.056
 20
209.3
 10
18.056
 20
206.2
 10
12.518
 20
206.2
 10
12.518
 20
209.3
 10
7.1
 20
209.3
 10
3.96
 20
209.3
 10
3.96
 20
211.68
 10
7.06
 20
211.68
 10
7.06
 20
213.9
 10
3.96
 20
213.9
 10
3.96
 20
216.28
  0
LWPOLYLINE
  5
32
330
17
100
AcDbEntity
  8
CUT
100
AcDbPolyline
 90
4
 70
1
 10
12.14
 20
213.85
 10
62.1
 20
213.85
 10
62.1
 20
211.73
 10
12.14
 20
211.73
  0
HATCH
  5
33
330
17
100
AcDbEntity
  8
RASTER
 62
7
100
AcDbHatch
 10
0.0
 20
0.0
 30
0.0
210
0.0
220
0.0
230
1.0
  2
SOLID
 70
1
 71
0
 91
1
 92
3
 72
0
 73
1
 93
4
 10
7.7
 20
215.84
 10
11.5
 20
215.84
 10
11.5
 20
209.74
 10
7.7
 20
209.74
 97
0
 75
0
 76
1
 98
0
  0
HATCH
  5
34
330
17
100
AcDbEntity
  8
RASTER
 62
7
100
AcDbHatch
 10
0.0
 20
0.0
 30
0.0
210
0.0
220
0.0
230
1.0
  2
SOLID
 70
1
 71
0
 91
1
 92
3
 72
0
 73
1
 93
4
 10
62.74
 20
215.84
 10
66.54
 20
215.84
 10
66.54
 20
209.74
 10
62.74
 20
209.74
 97
0
 75
0
 76
1
 98
0
  0
HATCH
  5
35
330
17
100
AcDbEntity
  8
RASTER
 62
7
100
AcDbHatch
 10
0.0
 20
0.0
 30
0.0
210
0.0
220
0.0
230
1.0
  2
SOLID
 70
1
 71
0
 91
1
 92
3
 72
0
 73
1
 93
48
 10
14.2
 20
215.49
 10
14.196
 20
215.425
 10
14.183
 20
215.361
 10
14.162
 20
215.299
 10
14.133
 20
215.24
 10
14.097
 20
215.186
 10
14.054
 20
215.136
 10
14.004
 20
215.093
 10
13.95
 20
215.057
 10
13.891
 20
215.028
 10
13.829
 20
215.007
 10
13.765
 20
214.994
 10
13.7
 20
214.99
 10
13.635
 20
214.994
 10
13.571
 20
215.007
 10
13.509
 20
215.028
 10
13.45
 20
215.057
 10
13.396
 20
215.093
 10
13.346
 20
215.136
 10
13.303
 20
215.186
 10
13.267
 20
215.24
 10
13.238
 20
215.299
 10
13.217
 20
215.361
 10
13.204
 20
215.425
 10
13.2
 20
215.49
 10
13.204
 20
215.555
 10
13.217
 20
215.619
 10
13.238
 20
215.681
 10
13.267
 20
215.74
 10
13.303
 20
215.794
 10
13.346
 20
215.844
 10
13.396
 20
215.887
 10
13.45
 20
215.923
 10
13.509
 20
215.952
 10
13.571
 20
215.973
 10
13.635
 20
215.986
 10
13.7
 20
215.99
 10
13.765
 20
215.986
 10
13.829
 20
215.973
 10
13.891
 20
215.952
 10
13.95
 20
215.923
 10
14.004
 20
215.887
 10
14.054
 20
215.844
 10
14.097
 20
215.794
 10
14.133
 20
215.74
 10
14.162
 20
215.681
 10
14.183
 20
215.619
 10
14.196
 20
215.555
 97
0
 75
0
 76
1
 98
0
  0
HATCH
  5
36
330
17
100
AcDbEntity
  8
RASTER
 62
7
100
AcDbHatch
 10
0.0
 20
0.0
 30
0.0
210
0.0
220
0.0
230
1.0
  2
SOLID
 70
1
 71
0
 91
1
 92
3
 72
0
 73
1
 93
48
 10
61.04
 20
215.49
 10
61.036
 20
215.425
 10
61.023
 20
215.361
 10
61.002
 20
215.299
 10
60.973
 20
215.24
 10
60.937
 20
215.186
 10
60.894
 20
215.136
 10
60.844
 20
215.093
 10
60.79
 20
215.057
 10
60.731
 20
215.028
 10
60.669
 20
215.007
 10
60.605
 20
214.994
 10
60.54
 20
214.99
 10
60.475
 20
214.994
 10
60.411
 20
215.007
 10
60.349
 20
215.028
 10
60.29
 20
215.057
 10
60.236
 20
215.093
 10
60.186
 20
215.136
 10
60.143
 20
215.186
 10
60.107
 20
215.24
 10
60.078
 20
215.299
 10
60.057
 20
215.361
 10
60.044
 20
215.425
 10
60.04
 20
215.49
 10
60.044
 20
215.555
 10
60.057
 20
215.619
 10
60.078
 20
215.681
 10
60.107
 20
215.74
 10
60.143
 20
215.794
 10
60.186
 20
215.844
 10
60.236
 20
215.887
 10
60.29
 20
215.923
 10
60.349
 20
215.952
 10
60.411
 20
215.973
 10
60.475
 20
215.986
 10
60.54
 20
215.99
 10
60.605
 20
215.986
 10
60.669
 20
215.973
 10
60.731
 20
215.952
 10
60.79
 20
215.923
 10
60.844
 20
215.887
 10
60.894
 20
215.844
 10
60.937
 20
215.794
 10
60.973
 20
215.74
 10
61.002
 20
215.681
 10
61.023
 20
215.619
 10
61.036
 20
215.555
 97
0
 75
0
 76
1
 98
0
  0
HATCH
  5
37
330
17
100
AcDbEntity
  8
RASTER
 62
7
100
AcDbHatch
 10
0.0
 20
0.0
 30
0.0
210
0.0
220
0.0
230
1.0
  2
SOLID
 70
1
 71
0
 91
1
 92
3
 72
0
 73
1
 93
48
 10
14.2
 20
210.09
 10
14.196
 20
210.025
 10
14.183
 20
209.961
 10
14.162
 20
209.899
 10
14.133
 20
209.84
 10
14.097
 20
209.786
 10
14.054
 20
209.736
 10
14.004
 20
209.693
 10
13.95
 20
209.657
 10
13.891
 20
209.628
 10
13.829
 20
209.607
 10
13.765
 20
209.594
 10
13.7
 20
209.59
 10
13.635
 20
209.594
 10
13.571
 20
209.607
 10
13.509
 20
209.628
 10
13.45
 20
209.657
 10
13.396
 20
209.693
 10
13.346
 20
209.736
 10
13.303
 20
209.786
 10
13.267
 20
209.84
 10
13.238
 20
209.899
 10
13.217
 20
209.961
 10
13.204
 20
210.025
 10
13.2
 20
210.09
 10
13.204
 20
210.155
 10
13.217
 20
210.219
 10
13.238
 20
210.281
 10
13.267
 20
210.34
 10
13.303
 20
210.394
 10
13.346
 20
210.444
 10
13.396
 20
210.487
 10
13.45
 20
210.523
 10
13.509
 20
210.552
 10
13.571
 20
210.573
 10
13.635
 20
210.586
 10
13.7
 20
210.59
 10
13.765
 20
210.586
 10
13.829
 20
210.573
 10
13.891
 20
210.552
 10
13.95
 20
210.523
 10
14.004
 20
210.487
 10
14.054
 20
210.444
 10
14.097
 20
210.394
 10
14.133
 20
210.34
 10
14.162
 20
210.281
 10
14.183
 20
210.219
 10
14.196
 20
210.155
 97
0
 75
0
 76
1
 98
0
  0
HATCH
  5
38
330
17
100
AcDbEntity
  8
RASTER
 62
7
100
AcDbHatch
 10
0.0
 20
0.0
 30
0.0
210
0.0
220
0.0
230
1.0
  2
SOLID
 70
1
 71
0
 91
1
 92
3
 72
0
 73
1
 93
48
 10
61.04
 20
210.09
 10
61.036
 20
210.025
 10
61.023
 20
209.961
 10
61.002
 20
209.899
 10
60.973
 20
209.84
 10
60.937
 20
209.786
 10
60.894
 20
209.736
 10
60.844
 20
209.693
 10
60.79
 20
209.657
 10
60.731
 20
209.628
 10
60.669
 20
209.607
 10
60.605
 20
209.594
 10
60.54
 20
209.59
 10
60.475
 20
209.594
 10
60.411
 20
209.607
 10
60.349
 20
209.628
 10
60.29
 20
209.657
 10
60.236
 20
209.693
 10
60.186
 20
209.736
 10
60.143
 20
209.786
 10
60.107
 20
209.84
 10
60.078
 20
209.899
 10
60.057
 20
209.961
 10
60.044
 20
210.025
 10
60.04
 20
210.09
 10
60.044
 20
210.155
 10
60.057
 20
210.219
 10
60.078
 20
210.281
 10
60.107
 20
210.34
 10
60.143
 20
210.394
 10
60.186
 20
210.444
 10
60.236
 20
210.487
 10
60.29
 20
210.523
 10
60.349
 20
210.552
 10
60.411
 20
210.573
 10
60.475
 20
210.586
 10
60.54
 20
210.59
 10
60.605
 20
210.586
 10
60.669
 20
210.573
 10
60.731
 20
210.552
 10
60.79
 20
210.523
 10
60.844
 20
210.487
 10
60.894
 20
210.444
 10
60.937
 20
210.394
 10
60.973
 20
210.34
 10
61.002
 20
210.281
 10
61.023
 20
210.219
 10
61.036
 20
210.155
 97
0
 75
0
 76
1
 98
0
  0
LWPOLYLINE
  5
39
330
17
100
AcDbEntity
  8
CUT
100
AcDbPolyline
 90
36
 70
1
 10
77.34
 20
216.28
 10
137.38
 20
216.28
 10
140.52
 20
216.28
 10
140.52
 20
213.9
 10
137.42
 20
213.9
 10
137.42
 20
211.68
 10
140.52
 20
211.68
 10
140.52
 20
209.3
 10
137.38
 20
209.3
 10
131.962
 20
209.3
 10
131.962
 20
206.2
 10
126.424
 20
206.2
 10
126.424
 20
209.3
 10
121.045
 20
209.3
 10
121.045
 20
206.2
 10
115.507
 20
206.2
 10
115.507
 20
209.3
 10
110.129
 20
209.3
 10
110.129
 20
206.2
 10
104.591
 20
206.2
 10
104.591
 20
209.3
 10
99.213
 20
209.3
 10
99.213
 20
206.2
 10
93.675
 20
206.2
 10
93.675
 20
209.3
 10
88.296
 20
209.3
 10
88.296
 20
206.2
 10
82.758
 20
206.2
 10
82.758
 20
209.3
 10
77.34
 20
209.3
 10
74.2
 20
209.3
 10
74.2
 20
211.68
 10
77.3
 20
211.68
 10
77.3
 20
213.9
 10
74.2
 20
213.9
 10
74.2
 20
216.28
  0
LWPOLYLINE
  5
3A
330
17
100
AcDbEntity
  8
CUT
100
AcDbPolyline
 90
4
 70
1
 10
82.38
 20
213.85
 10
132.34
 20
213.85
 10
132.34
 20
211.73
 10
82.38
 20
211.73
  0
HATCH
  5
3B
330
17
100
AcDbEntity
  8
RASTER
 62
7
100
AcDbHatch
 10
0.0
 20
0.0
 30
0.0
210
0.0
220
0.0
230
1.0
  2
SOLID
 70
1
 71
0
 91
1
 92
3
 72
0
 73
1
 93
4
 10
77.94
 20
215.84
 10
81.74
 20
215.84
 10
81.74
 20
209.74
 10
77.94
 20
209.74
 97
0
 75
0
 76
1
 98
0
  0
HATCH
  5
3C
330
17
100
AcDbEntity
  8
RASTER
 62
7
100
AcDbHatch
 10
0.0
 20
0.0
 30
0.0
210
0.0
220
0.0
230
1.0
  2
SOLID
 70
1
 71
0
 91
1
 92
3
 72
0
 73
1
 93
4
 10
132.98
 20
215.84
 10
136.78
 20
215.84
 10
136.78
 20
209.74
 10
132.98
 20
209.74
 97
0
 75
0
 76
1
 98
0
  0
HATCH
  5
3D
330
17
100
AcDbEntity
  8
RASTER
 62
7
100
AcDbHatch
 10
0.0
 20
0.0
 30
0.0
210
0.0
220
0.0
230
1.0
  2
SOLID
 70
1
 71
0
 91
1
 92
3
 72
0
 73
1
 93
48
 10
84.44
 20
215.49
 10
84.436
 20
215.425
 10
84.423
 20
215.361
 10
84.402
 20
215.299
 10
84.373
 20
215.24
 10
84.337
 20
215.186
 10
84.294
 20
215.136
 10
84.244
 20
215.093
 10
84.19
 20
215.057
 10
84.131
 20
215.028
 10
84.069
 20
215.007
 10
84.005
 20
214.994
 10
83.94
 20
214.99
 10
83.875
 20
214.994
 10
83.811
 20
215.007
 10
83.749
 20
215.028
 10
83.69
 20
215.057
 10
83.636
 20
215.093
 10
83.586
 20
215.136
 10
83.543
 20
215.186
 10
83.507
 20
215.24
 10
83.478
 20
215.299
 10
83.457
 20
215.361
 10
83.444
 20
215.425
 10
83.44
 20
215.49
 10
83.444
 20
215.555
 10
83.457
 20
215.619
 10
83.478
 20
215.681
 10
83.507
 20
215.74
 10
83.543
 20
215.794
 10
83.586
 20
215.844
 10
83.636
 20
215.887
 10
83.69
 20
215.923
 10
83.749
 20
215.952
 10
83.811
 20
215.973
 10
83.875
 20
215.986
 10
83.94
 20
215.99
 10
84.005
 20
215.986
 10
84.069
 20
215.973
 10
84.131
 20
215.952
 10
84.19
 20
215.923
 10
84.244
 20
215.887
 10
84.294
 20
215.844
 10
84.337
 20
215.794
 10
84.373
 20
215.74
 10
84.402
 20
215.681
 10
84.423
 20
215.619
 10
84.436
 20
215.555
 97
0
 75
0
 76
1
 98
0
  0
HATCH
  5
3E
330
17
100
AcDbEntity
  8
RASTER
 62
7
100
AcDbHatch
 10
0.0
 20
0.0
 30
0.0
210
0.0
220
0.0
230
1.0
  2
SOLID
 70
1
 71
0
 91
1
 92
3
 72
0
 73
1
 93
48
 10
131.28
 20
215.49
 10
131.276
 20
215.425
 10
131.263
 20
215.361
 10
131.242
 20
215.299
 10
131.213
 20
215.24
 10
131.177
 20
215.186
 10
131.134
 20
215.136
 10
131.084
 20
215.093
 10
131.03
 20
215.057
 10
130.971
 20
215.028
 10
130.909
 20
215.007
 10
130.845
 20
214.994
 10
130.78
 20
214.99
 10
130.715
 20
214.994
 10
130.651
 20
215.007
 10
130.589
 20
215.028
 10
130.53
 20
215.057
 10
130.476
 20
215.093
 10
130.426
 20
215.136
 10
130.383
 20
215.186
 10
130.347
 20
215.24
 10
130.318
 20
215.299
 10
130.297
 20
215.361
 10
130.284
 20
215.425
 10
130.28
 20
215.49
 10
130.284
 20
215.555
 10
130.297
 20
215.619
 10
130.318
 20
215.681
 10
130.347
 20
215.74
 10
130.383
 20
215.794
 10
130.426
 20
215.844
 10
130.476
 20
215.887
 10
130.53
 20
215.923
 10
130.589
 20
215.952
 10
130.651
 20
215.973
 10
130.715
 20
215.986
 10
130.78
 20
215.99
 10
130.845
 20
215.986
 10
130.909
 20
215.973
 10
130.971
 20
215.952
 10
131.03
 20
215.923
 10
131.084
 20
215.887
 10
131.134
 20
215.844
 10
131.177
 20
215.794
 10
131.213
 20
215.74
 10
131.242
 20
215.681
 10
131.263
 20
215.619
 10
131.276
 20
215.555
 97
0
 75
0
 76
1
 98
0
  0
HATCH
  5
3F
330
17
100
AcDbEntity
  8
RASTER
 62
7
100
AcDbHatch
 10
0.0
 20
0.0
 30
0.0
210
0.0
220
0.0
230
1.0
  2
SOLID
 70
1
 71
0
 91
1
 92
3
 72
0
 73
1
 93
48
 10
84.44
 20
210.09
 10
84.436
 20
210.025
 10
84.423
 20
209.961
 10
84.402
 20
209.899
 10
84.373
 20
209.84
 10
84.337
 20
209.786
 10
84.294
 20
209.736
 10
84.244
 20
209.693
 10
84.19
 20
209.657
 10
84.131
 20
209.628
 10
84.069
 20
209.607
 10
84.005
 20
209.594
 10
83.94
 20
209.59
 10
83.875
 20
209.594
 10
83.811
 20
209.607
 10
83.749
 20
209.628
 10
83.69
 20
209.657
 10
83.636
 20
209.693
 10
83.586
 20
209.736
 10
83.543
 20
209.786
 10
83.507
 20
209.84
 10
83.478
 20
209.899
 10
83.457
 20
209.961
 10
83.444
 20
210.025
 10
83.44
 20
210.09
 10
83.444
 20
210.155
 10
83.457
 20
210.219
 10
83.478
 20
210.281
 10
83.507
 20
210.34
 10
83.543
 20
210.394
 10
83.586
 20
210.444
 10
83.636
 20
210.487
 10
83.69
 20
210.523
 10
83.749
 20
210.552
 10
83.811
 20
210.573
 10
83.875
 20
210.586
 10
83.94
 20
210.59
 10
84.005
 20
210.586
 10
84.069
 20
210.573
 10
84.131
 20
210.552
 10
84.19
 20
210.523
 10
84.244
 20
210.487
 10
84.294
 20
210.444
 10
84.337
 20
210.394
 10
84.373
 20
210.34
 10
84.402
 20
210.281
 10
84.423
 20
210.219
 10
84.436
 20
210.155
 97
0
 75
0
 76
1
 98
0
  0
HATCH
  5
40
330
17
100
AcDbEntity
  8
RASTER
 62
7
100
AcDbHatch
 10
0.0
 20
0.0
 30
0.0
210
0.0
220
0.0
230
1.0
  2
SOLID
 70
1
 71
0
 91
1
 92
3
 72
0
 73
1
 93
48
 10
131.28
 20
210.09
 10
131.276
 20
210.025
 10
131.263
 20
209.961
 10
131.242
 20
209.899
 10
131.213
 20
209.84
 10
131.177
 20
209.786
 10
131.134
 20
209.736
 10
131.084
 20
209.693
 10
131.03
 20
209.657
 10
130.971
 20
209.628
 10
130.909
 20
209.607
 10
130.845
 20
209.594
 10
130.78
 20
209.59
 10
130.715
 20
209.594
 10
130.651
 20
209.607
 10
130.589
 20
209.628
 10
130.53
 20
209.657
 10
130.476
 20
209.693
 10
130.426
 20
209.736
 10
130.383
 20
209.786
 10
130.347
 20
209.84
 10
130.318
 20
209.899
 10
130.297
 20
209.961
 10
130.284
 20
210.025
 10
130.28
 20
210.09
 10
130.284
 20
210.155
 10
130.297
 20
210.219
 10
130.318
 20
210.281
 10
130.347
 20
210.34
 10
130.383
 20
210.394
 10
130.426
 20
210.444
 10
130.476
 20
210.487
 10
130.53
 20
210.523
 10
130.589
 20
210.552
 10
130.651
 20
210.573
 10
130.715
 20
210.586
 10
130.78
 20
210.59
 10
130.845
 20
210.586
 10
130.909
 20
210.573
 10
130.971
 20
210.552
 10
131.03
 20
210.523
 10
131.084
 20
210.487
 10
131.134
 20
210.444
 10
131.177
 20
210.394
 10
131.213
 20
210.34
 10
131.242
 20
210.281
 10
131.263
 20
210.219
 10
131.276
 20
210.155
 97
0
 75
0
 76
1
 98
0
  0
LWPOLYLINE
  5
41
330
17
100
AcDbEntity
  8
CUT
100
AcDbPolyline
 90
24
 70
1
 10
147.54
 20
216.28
 10
187.98
 20
216.28
 10
187.98
 20
213.98
 10
191.08
 20
213.98
 10
191.08
 20
211.6
 10
187.98
 20
211.6
 10
187.98
 20
209.3
 10
182.214
 20
209.3
 10
182.214
 20
206.2
 10
176.369
 20
206.2
 10
176.369
 20
209.3
 10
170.683
 20
209.3
 10
170.683
 20
206.2
 10
164.837
 20
206.2
 10
164.837
 20
209.3
 10
159.151
 20
209.3
 10
159.151
 20
206.2
 10
153.306
 20
206.2
 10
153.306
 20
209.3
 10
147.54
 20
209.3
 10
147.54
 20
211.6
 10
144.44
 20
211.6
 10
144.44
 20
213.98
 10
147.54
 20
213.98
  0
LWPOLYLINE
  5
42
330
17
100
AcDbEntity
  8
CUT
100
AcDbPolyline
 90
4
 70
1
 10
152.62
 20
213.85
 10
182.9
 20
213.85
 10
182.9
 20
211.73
 10
152.62
 20
211.73
  0
HATCH
  5
43
330
17
100
AcDbEntity
  8
RASTER
 62
7
100
AcDbHatch
 10
0.0
 20
0.0
 30
0.0
210
0.0
220
0.0
230
1.0
  2
SOLID
 70
1
 71
0
 91
1
 92
3
 72
0
 73
1
 93
4
 10
148.18
 20
215.84
 10
151.98
 20
215.84
 10
151.98
 20
209.74
 10
148.18
 20
209.74
 97
0
 75
0
 76
1
 98
0
  0
HATCH
  5
44
330
17
100
AcDbEntity
  8
RASTER
 62
7
100
AcDbHatch
 10
0.0
 20
0.0
 30
0.0
210
0.0
220
0.0
230
1.0
  2
SOLID
 70
1
 71
0
 91
1
 92
3
 72
0
 73
1
 93
4
 10
183.54
 20
215.84
 10
187.34
 20
215.84
 10
187.34
 20
209.74
 10
183.54
 20
209.74
 97
0
 75
0
 76
1
 98
0
  0
HATCH
  5
45
330
17
100
AcDbEntity
  8
RASTER
 62
7
100
AcDbHatch
 10
0.0
 20
0.0
 30
0.0
210
0.0
220
0.0
230
1.0
  2
SOLID
 70
1
 71
0
 91
1
 92
3
 72
0
 73
1
 93
48
 10
154.68
 20
215.49
 10
154.676
 20
215.425
 10
154.663
 20
215.361
 10
154.642
 20
215.299
 10
154.613
 20
215.24
 10
154.577
 20
215.186
 10
154.534
 20
215.136
 10
154.484
 20
215.093
 10
154.43
 20
215.057
 10
154.371
 20
215.028
 10
154.309
 20
215.007
 10
154.245
 20
214.994
 10
154.18
 20
214.99
 10
154.115
 20
214.994
 10
154.051
 20
215.007
 10
153.989
 20
215.028
 10
153.93
 20
215.057
 10
153.876
 20
215.093
 10
153.826
 20
215.136
 10
153.783
 20
215.186
 10
153.747
 20
215.24
 10
153.718
 20
215.299
 10
153.697
 20
215.361
 10
153.684
 20
215.425
 10
153.68
 20
215.49
 10
153.684
 20
215.555
 10
153.697
 20
215.619
 10
153.718
 20
215.681
 10
153.747
 20
215.74
 10
153.783
 20
215.794
 10
153.826
 20
215.844
 10
153.876
 20
215.887
 10
153.93
 20
215.923
 10
153.989
 20
215.952
 10
154.051
 20
215.973
 10
154.115
 20
215.986
 10
154.18
 20
215.99
 10
154.245
 20
215.986
 10
154.309
 20
215.973
 10
154.371
 20
215.952
 10
154.43
 20
215.923
 10
154.484
 20
215.887
 10
154.534
 20
215.844
 10
154.577
 20
215.794
 10
154.613
 20
215.74
 10
154.642
 20
215.681
 10
154.663
 20
215.619
 10
154.676
 20
215.555
 97
0
 75
0
 76
1
 98
0
  0
HATCH
  5
46
330
17
100
AcDbEntity
  8
RASTER
 62
7
100
AcDbHatch
 10
0.0
 20
0.0
 30
0.0
210
0.0
220
0.0
230
1.0
  2
SOLID
 70
1
 71
0
 91
1
 92
3
 72
0
 73
1
 93
48
 10
181.84
 20
215.49
 10
181.836
 20
215.425
 10
181.823
 20
215.361
 10
181.802
 20
215.299
 10
181.773
 20
215.24
 10
181.737
 20
215.186
 10
181.694
 20
215.136
 10
181.644
 20
215.093
 10
181.59
 20
215.057
 10
181.531
 20
215.028
 10
181.469
 20
215.007
 10
181.405
 20
214.994
 10
181.34
 20
214.99
 10
181.275
 20
214.994
 10
181.211
 20
215.007
 10
181.149
 20
215.028
 10
181.09
 20
215.057
 10
181.036
 20
215.093
 10
180.986
 20
215.136
 10
180.943
 20
215.186
 10
180.907
 20
215.24
 10
180.878
 20
215.299
 10
180.857
 20
215.361
 10
180.844
 20
215.425
 10
180.84
 20
215.49
 10
180.844
 20
215.555
 10
180.857
 20
215.619
 10
180.878
 20
215.681
 10
180.907
 20
215.74
 10
180.943
 20
215.794
 10
180.986
 20
215.844
 10
181.036
 20
215.887
 10
181.09
 20
215.923
 10
181.149
 20
215.952
 10
181.211
 20
215.973
 10
181.275
 20
215.986
 10
181.34
 20
215.99
 10
181.405
 20
215.986
 10
181.469
 20
215.973
 10
181.531
 20
215.952
 10
181.59
 20
215.923
 10
181.644
 20
215.887
 10
181.694
 20
215.844
 10
181.737
 20
215.794
 10
181.773
 20
215.74
 10
181.802
 20
215.681
 10
181.823
 20
215.619
 10
181.836
 20
215.555
 97
0
 75
0
 76
1
 98
0
  0
HATCH
  5
47
330
17
100
AcDbEntity
  8
RASTER
 62
7
100
AcDbHatch
 10
0.0
 20
0.0
 30
0.0
210
0.0
220
0.0
230
1.0
  2
SOLID
 70
1
 71
0
 91
1
 92
3
 72
0
 73
1
 93
48
 10
154.68
 20
210.09
 10
154.676
 20
210.025
 10
154.663
 20
209.961
 10
154.642
 20
209.899
 10
154.613
 20
209.84
 10
154.577
 20
209.786
 10
154.534
 20
209.736
 10
154.484
 20
209.693
 10
154.43
 20
209.657
 10
154.371
 20
209.628
 10
154.309
 20
209.607
 10
154.245
 20
209.594
 10
154.18
 20
209.59
 10
154.115
 20
209.594
 10
154.051
 20
209.607
 10
153.989
 20
209.628
 10
153.93
 20
209.657
 10
153.876
 20
209.693
 10
153.826
 20
209.736
 10
153.783
 20
209.786
 10
153.747
 20
209.84
 10
153.718
 20
209.899
 10
153.697
 20
209.961
 10
153.684
 20
210.025
 10
153.68
 20
210.09
 10
153.684
 20
210.155
 10
153.697
 20
210.219
 10
153.718
 20
210.281
 10
153.747
 20
210.34
 10
153.783
 20
210.394
 10
153.826
 20
210.444
 10
153.876
 20
210.487
 10
153.93
 20
210.523
 10
153.989
 20
210.552
 10
154.051
 20
210.573
 10
154.115
 20
210.586
 10
154.18
 20
210.59
 10
154.245
 20
210.586
 10
154.309
 20
210.573
 10
154.371
 20
210.552
 10
154.43
 20
210.523
 10
154.484
 20
210.487
 10
154.534
 20
210.444
 10
154.577
 20
210.394
 10
154.613
 20
210.34
 10
154.642
 20
210.281
 10
154.663
 20
210.219
 10
154.676
 20
210.155
 97
0
 75
0
 76
1
 98
0
  0
HATCH
  5
48
330
17
100
AcDbEntity
  8
RASTER
 62
7
100
AcDbHatch
 10
0.0
 20
0.0
 30
0.0
210
0.0
220
0.0
230
1.0
  2
SOLID
 70
1
 71
0
 91
1
 92
3
 72
0
 73
1
 93
48
 10
181.84
 20
210.09
 10
181.836
 20
210.025
 10
181.823
 20
209.961
 10
181.802
 20
209.899
 10
181.773
 20
209.84
 10
181.737
 20
209.786
 10
181.694
 20
209.736
 10
181.644
 20
209.693
 10
181.59
 20
209.657
 10
181.531
 20
209.628
 10
181.469
 20
209.607
 10
181.405
 20
209.594
 10
181.34
 20
209.59
 10
181.275
 20
209.594
 10
181.211
 20
209.607
 10
181.149
 20
209.628
 10
181.09
 20
209.657
 10
181.036
 20
209.693
 10
180.986
 20
209.736
 10
180.943
 20
209.786
 10
180.907
 20
209.84
 10
180.878
 20
209.899
 10
180.857
 20
209.961
 10
180.844
 20
210.025
 10
180.84
 20
210.09
 10
180.844
 20
210.155
 10
180.857
 20
210.219
 10
180.878
 20
210.281
 10
180.907
 20
210.34
 10
180.943
 20
210.394
 10
180.986
 20
210.444
 10
181.036
 20
210.487
 10
181.09
 20
210.523
 10
181.149
 20
210.552
 10
181.211
 20
210.573
 10
181.275
 20
210.586
 10
181.34
 20
210.59
 10
181.405
 20
210.586
 10
181.469
 20
210.573
 10
181.531
 20
210.552
 10
181.59
 20
210.523
 10
181.644
 20
210.487
 10
181.694
 20
210.444
 10
181.737
 20
210.394
 10
181.773
 20
210.34
 10
181.802
 20
210.281
 10
181.823
 20
210.219
 10
181.836
 20
210.155
 97
0
 75
0
 76
1
 98
0
  0
LWPOLYLINE
  5
49
330
17
100
AcDbEntity
  8
CUT
100
AcDbPolyline
 90
24
 70
1
 10
198.1
 20
216.28
 10
238.54
 20
216.28
 10
238.54
 20
213.98
 10
241.64
 20
213.98
 10
241.64
 20
211.6
 10
238.54
 20
211.6
 10
238.54
 20
209.3
 10
232.774
 20
209.3
 10
232.774
 20
206.2
 10
226.929
 20
206.2
 10
226.929
 20
209.3
 10
221.243
 20
209.3
 10
221.243
 20
206.2
 10
215.397
 20
206.2
 10
215.397
 20
209.3
 10
209.711
 20
209.3
 10
209.711
 20
206.2
 10
203.866
 20
206.2
 10
203.866
 20
209.3
 10
198.1
 20
209.3
 10
198.1
 20
211.6
 10
195.0
 20
211.6
 10
195.0
 20
213.98
 10
198.1
 20
213.98
  0
LWPOLYLINE
  5
4A
330
17
100
AcDbEntity
  8
CUT
100
AcDbPolyline
 90
4
 70
1
 10
203.18
 20
213.85
 10
233.46
 20
213.85
 10
233.46
 20
211.73
 10
203.18
 20
211.73
  0
HATCH
  5
4B
330
17
100
AcDbEntity
  8
RASTER
 62
7
100
AcDbHatch
 10
0.0
 20
0.0
 30
0.0
210
0.0
220
0.0
230
1.0
  2
SOLID
 70
1
 71
0
 91
1
 92
3
 72
0
 73
1
 93
4
 10
198.74
 20
215.84
 10
202.54
 20
215.84
 10
202.54
 20
209.74
 10
198.74
 20
209.74
 97
0
 75
0
 76
1
 98
0
  0
HATCH
  5
4C
330
17
100
AcDbEntity
  8
RASTER
 62
7
100
AcDbHatch
 10
0.0
 20
0.0
 30
0.0
210
0.0
220
0.0
230
1.0
  2
SOLID
 70
1
 71
0
 91
1
 92
3
 72
0
 73
1
 93
4
 10
234.1
 20
215.84
 10
237.9
 20
215.84
 10
237.9
 20
209.74
 10
234.1
 20
209.74
 97
0
 75
0
 76
1
 98
0
  0
HATCH
  5
4D
330
17
100
AcDbEntity
  8
RASTER
 62
7
100
AcDbHatch
 10
0.0
 20
0.0
 30
0.0
210
0.0
220
0.0
230
1.0
  2
SOLID
 70
1
 71
0
 91
1
 92
3
 72
0
 73
1
 93
48
 10
205.24
 20
215.49
 10
205.236
 20
215.425
 10
205.223
 20
215.361
 10
205.202
 20
215.299
 10
205.173
 20
215.24
 10
205.137
 20
215.186
 10
205.094
 20
215.136
 10
205.044
 20
215.093
 10
204.99
 20
215.057
 10
204.931
 20
215.028
 10
204.869
 20
215.007
 10
204.805
 20
214.994
 10
204.74
 20
214.99
 10
204.675
 20
214.994
 10
204.611
 20
215.007
 10
204.549
 20
215.028
 10
204.49
 20
215.057
 10
204.436
 20
215.093
 10
204.386
 20
215.136
 10
204.343
 20
215.186
 10
204.307
 20
215.24
 10
204.278
 20
215.299
 10
204.257
 20
215.361
 10
204.244
 20
215.425
 10
204.24
 20
215.49
 10
204.244
 20
215.555
 10
204.257
 20
215.619
 10
204.278
 20
215.681
 10
204.307
 20
215.74
 10
204.343
 20
215.794
 10
204.386
 20
215.844
 10
204.436
 20
215.887
 10
204.49
 20
215.923
 10
204.549
 20
215.952
 10
204.611
 20
215.973
 10
204.675
 20
215.986
 10
204.74
 20
215.99
 10
204.805
 20
215.986
 10
204.869
 20
215.973
 10
204.931
 20
215.952
 10
204.99
 20
215.923
 10
205.044
 20
215.887
 10
205.094
 20
215.844
 10
205.137
 20
215.794
 10
205.173
 20
215.74
 10
205.202
 20
215.681
 10
205.223
 20
215.619
 10
205.236
 20
215.555
 97
0
 75
0
 76
1
 98
0
  0
HATCH
  5
4E
330
17
100
AcDbEntity
  8
RASTER
 62
7
100
AcDbHatch
 10
0.0
 20
0.0
 30
0.0
210
0.0
220
0.0
230
1.0
  2
SOLID
 70
1
 71
0
 91
1
 92
3
 72
0
 73
1
 93
48
 10
232.4
 20
215.49
 10
232.396
 20
215.425
 10
232.383
 20
215.361
 10
232.362
 20
215.299
 10
232.333
 20
215.24
 10
232.297
 20
215.186
 10
232.254
 20
215.136
 10
232.204
 20
215.093
 10
232.15
 20
215.057
 10
232.091
 20
215.028
 10
232.029
 20
215.007
 10
231.965
 20
214.994
 10
231.9
 20
214.99
 10
231.835
 20
214.994
 10
231.771
 20
215.007
 10
231.709
 20
215.028
 10
231.65
 20
215.057
 10
231.596
 20
215.093
 10
231.546
 20
215.136
 10
231.503
 20
215.186
 10
231.467
 20
215.24
 10
231.438
 20
215.299
 10
231.417
 20
215.361
 10
231.404
 20
215.425
 10
231.4
 20
215.49
 10
231.404
 20
215.555
 10
231.417
 20
215.619
 10
231.438
 20
215.681
 10
231.467
 20
215.74
 10
231.503
 20
215.794
 10
231.546
 20
215.844
 10
231.596
 20
215.887
 10
231.65
 20
215.923
 10
231.709
 20
215.952
 10
231.771
 20
215.973
 10
231.835
 20
215.986
 10
231.9
 20
215.99
 10
231.965
 20
215.986
 10
232.029
 20
215.973
 10
232.091
 20
215.952
 10
232.15
 20
215.923
 10
232.204
 20
215.887
 10
232.254
 20
215.844
 10
232.297
 20
215.794
 10
232.333
 20
215.74
 10
232.362
 20
215.681
 10
232.383
 20
215.619
 10
232.396
 20
215.555
 97
0
 75
0
 76
1
 98
0
  0
HATCH
  5
4F
330
17
100
AcDbEntity
  8
RASTER
 62
7
100
AcDbHatch
 10
0.0
 20
0.0
 30
0.0
210
0.0
220
0.0
230
1.0
  2
SOLID
 70
1
 71
0
 91
1
 92
3
 72
0
 73
1
 93
48
 10
205.24
 20
210.09
 10
205.236
 20
210.025
 10
205.223
 20
209.961
 10
205.202
 20
209.899
 10
205.173
 20
209.84
 10
205.137
 20
209.786
 10
205.094
 20
209.736
 10
205.044
 20
209.693
 10
204.99
 20
209.657
 10
204.931
 20
209.628
 10
204.869
 20
209.607
 10
204.805
 20
209.594
 10
204.74
 20
209.59
 10
204.675
 20
209.594
 10
204.611
 20
209.607
 10
204.549
 20
209.628
 10
204.49
 20
209.657
 10
204.436
 20
209.693
 10
204.386
 20
209.736
 10
204.343
 20
209.786
 10
204.307
 20
209.84
 10
204.278
 20
209.899
 10
204.257
 20
209.961
 10
204.244
 20
210.025
 10
204.24
 20
210.09
 10
204.244
 20
210.155
 10
204.257
 20
210.219
 10
204.278
 20
210.281
 10
204.307
 20
210.34
 10
204.343
 20
210.394
 10
204.386
 20
210.444
 10
204.436
 20
210.487
 10
204.49
 20
210.523
 10
204.549
 20
210.552
 10
204.611
 20
210.573
 10
204.675
 20
210.586
 10
204.74
 20
210.59
 10
204.805
 20
210.586
 10
204.869
 20
210.573
 10
204.931
 20
210.552
 10
204.99
 20
210.523
 10
205.044
 20
210.487
 10
205.094
 20
210.444
 10
205.137
 20
210.394
 10
205.173
 20
210.34
 10
205.202
 20
210.281
 10
205.223
 20
210.219
 10
205.236
 20
210.155
 97
0
 75
0
 76
1
 98
0
  0
HATCH
  5
50
330
17
100
AcDbEntity
  8
RASTER
 62
7
100
AcDbHatch
 10
0.0
 20
0.0
 30
0.0
210
0.0
220
0.0
230
1.0
  2
SOLID
 70
1
 71
0
 91
1
 92
3
 72
0
 73
1
 93
48
 10
232.4
 20
210.09
 10
232.396
 20
210.025
 10
232.383
 20
209.961
 10
232.362
 20
209.899
 10
232.333
 20
209.84
 10
232.297
 20
209.786
 10
232.254
 20
209.736
 10
232.204
 20
209.693
 10
232.15
 20
209.657
 10
232.091
 20
209.628
 10
232.029
 20
209.607
 10
231.965
 20
209.594
 10
231.9
 20
209.59
 10
231.835
 20
209.594
 10
231.771
 20
209.607
 10
231.709
 20
209.628
 10
231.65
 20
209.657
 10
231.596
 20
209.693
 10
231.546
 20
209.736
 10
231.503
 20
209.786
 10
231.467
 20
209.84
 10
231.438
 20
209.899
 10
231.417
 20
209.961
 10
231.404
 20
210.025
 10
231.4
 20
210.09
 10
231.404
 20
210.155
 10
231.417
 20
210.219
 10
231.438
 20
210.281
 10
231.467
 20
210.34
 10
231.503
 20
210.394
 10
231.546
 20
210.444
 10
231.596
 20
210.487
 10
231.65
 20
210.523
 10
231.709
 20
210.552
 10
231.771
 20
210.573
 10
231.835
 20
210.586
 10
231.9
 20
210.59
 10
231.965
 20
210.586
 10
232.029
 20
210.573
 10
232.091
 20
210.552
 10
232.15
 20
210.523
 10
232.204
 20
210.487
 10
232.254
 20
210.444
 10
232.297
 20
210.394
 10
232.333
 20
210.34
 10
232.362
 20
210.281
 10
232.383
 20
210.219
 10
232.396
 20
210.155
 97
0
 75
0
 76
1
 98
0
  0
LWPOLYLINE
  5
51
330
17
100
AcDbEntity
  8
CUT
100
AcDbPolyline
 90
76
 70
1
 10
3.96
 20
202.28
 10
7.1
 20
202.28
 10
12.598
 20
202.28
 10
12.598
 20
199.18
 10
17.976
 20
199.18
 10
17.976
 20
202.28
 10
23.515
 20
202.28
 10
23.515
 20
199.18
 10
28.893
 20
199.18
 10
28.893
 20
202.28
 10
34.431
 20
202.28
 10
34.431
 20
199.18
 10
39.809
 20
199.18
 10
39.809
 20
202.28
 10
45.347
 20
202.28
 10
45.347
 20
199.18
 10
50.725
 20
199.18
 10
50.725
 20
202.28
 10
56.264
 20
202.28
 10
56.264
 20
199.18
 10
61.642
 20
199.18
 10
61.642
 20
202.28
 10
67.14
 20
202.28
 10
70.28
 20
202.28
 10
70.28
 20
199.14
 10
70.28
 20
193.334
 10
67.18
 20
193.334
 10
67.18
 20
187.649
 10
70.28
 20
187.649
 10
70.28
 20
181.803
 10
67.18
 20
181.803
 10
67.18
 20
176.117
 10
70.28
 20
176.117
 10
70.28
 20
170.271
 10
67.18
 20
170.271
 10
67.18
 20
164.586
 10
70.28
 20
164.586
 10
70.28
 20
158.78
 10
70.28
 20
155.64
 10
67.14
 20
155.64
 10
61.642
 20
155.64
 10
61.642
 20
158.74
 10
56.264
 20
158.74
 10
56.264
 20
155.64
 10
50.725
 20
155.64
 10
50.725
 20
158.74
 10
45.347
 20
158.74
 10
45.347
 20
155.64
 10
39.809
 20
155.64
 10
39.809
 20
158.74
 10
34.431
 20
158.74
 10
34.431
 20
155.64
 10
28.893
 20
155.64
 10
28.893
 20
158.74
 10
23.515
 20
158.74
 10
23.515
 20
155.64
 10
17.976
 20
155.64
 10
17.976
 20
158.74
 10
12.598
 20
158.74
 10
12.598
 20
155.64
 10
7.1
 20
155.64
 10
3.96
 20
155.64
 10
3.96
 20
158.78
 10
3.96
 20
164.586
 10
7.06
 20
164.586
 10
7.06
 20
170.271
 10
3.96
 20
170.271
 10
3.96
 20
176.117
 10
7.06
 20
176.117
 10
7.06
 20
181.803
 10
3.96
 20
181.803
 10
3.96
 20
187.649
 10
7.06
 20
187.649
 10
7.06
 20
193.334
 10
3.96
 20
193.334
 10
3.96
 20
199.14
  0
LWPOLYLINE
  5
52
330
17
100
AcDbEntity
  8
CUT
100
AcDbPolyline
 90
36
 70
1
 10
77.34
 20
202.28
 10
137.38
 20
202.28
 10
140.52
 20
202.28
 10
140.52
 20
199.9
 10
137.42
 20
199.9
 10
137.42
 20
197.68
 10
140.52
 20
197.68
 10
140.52
 20
195.3
 10
137.38
 20
195.3
 10
131.962
 20
195.3
 10
131.962
 20
192.2
 10
126.424
 20
192.2
 10
126.424
 20
195.3
 10
121.045
 20
195.3
 10
121.045
 20
192.2
 10
115.507
 20
192.2
 10
115.507
 20
195.3
 10
110.129
 20
195.3
 10
110.129
 20
192.2
 10
104.591
 20
192.2
 10
104.591
 20
195.3
 10
99.213
 20
195.3
 10
99.213
 20
192.2
 10
93.675
 20
192.2
 10
93.675
 20
195.3
 10
88.296
 20
195.3
 10
88.296
 20
192.2
 10
82.758
 20
192.2
 10
82.758
 20
195.3
 10
77.34
 20
195.3
 10
74.2
 20
195.3
 10
74.2
 20
197.68
 10
77.3
 20
197.68
 10
77.3
 20
199.9
 10
74.2
 20
199.9
 10
74.2
 20
202.28
  0
LWPOLYLINE
  5
53
330
17
100
AcDbEntity
  8
CUT
100
AcDbPolyline
 90
4
 70
1
 10
82.38
 20
199.85
 10
132.34
 20
199.85
 10
132.34
 20
197.73
 10
82.38
 20
197.73
  0
HATCH
  5
54
330
17
100
AcDbEntity
  8
RASTER
 62
7
100
AcDbHatch
 10
0.0
 20
0.0
 30
0.0
210
0.0
220
0.0
230
1.0
  2
SOLID
 70
1
 71
0
 91
1
 92
3
 72
0
 73
1
 93
4
 10
77.94
 20
201.84
 10
81.74
 20
201.84
 10
81.74
 20
195.74
 10
77.94
 20
195.74
 97
0
 75
0
 76
1
 98
0
  0
HATCH
  5
55
330
17
100
AcDbEntity
  8
RASTER
 62
7
100
AcDbHatch
 10
0.0
 20
0.0
 30
0.0
210
0.0
220
0.0
230
1.0
  2
SOLID
 70
1
 71
0
 91
1
 92
3
 72
0
 73
1
 93
4
 10
132.98
 20
201.84
 10
136.78
 20
201.84
 10
136.78
 20
195.74
 10
132.98
 20
195.74
 97
0
 75
0
 76
1
 98
0
  0
HATCH
  5
56
330
17
100
AcDbEntity
  8
RASTER
 62
7
100
AcDbHatch
 10
0.0
 20
0.0
 30
0.0
210
0.0
220
0.0
230
1.0
  2
SOLID
 70
1
 71
0
 91
1
 92
3
 72
0
 73
1
 93
48
 10
84.44
 20
201.49
 10
84.436
 20
201.425
 10
84.423
 20
201.361
 10
84.402
 20
201.299
 10
84.373
 20
201.24
 10
84.337
 20
201.186
 10
84.294
 20
201.136
 10
84.244
 20
201.093
 10
84.19
 20
201.057
 10
84.131
 20
201.028
 10
84.069
 20
201.007
 10
84.005
 20
200.994
 10
83.94
 20
200.99
 10
83.875
 20
200.994
 10
83.811
 20
201.007
 10
83.749
 20
201.028
 10
83.69
 20
201.057
 10
83.636
 20
201.093
 10
83.586
 20
201.136
 10
83.543
 20
201.186
 10
83.507
 20
201.24
 10
83.478
 20
201.299
 10
83.457
 20
201.361
 10
83.444
 20
201.425
 10
83.44
 20
201.49
 10
83.444
 20
201.555
 10
83.457
 20
201.619
 10
83.478
 20
201.681
 10
83.507
 20
201.74
 10
83.543
 20
201.794
 10
83.586
 20
201.844
 10
83.636
 20
201.887
 10
83.69
 20
201.923
 10
83.749
 20
201.952
 10
83.811
 20
201.973
 10
83.875
 20
201.986
 10
83.94
 20
201.99
 10
84.005
 20
201.986
 10
84.069
 20
201.973
 10
84.131
 20
201.952
 10
84.19
 20
201.923
 10
84.244
 20
201.887
 10
84.294
 20
201.844
 10
84.337
 20
201.794
 10
84.373
 20
201.74
 10
84.402
 20
201.681
 10
84.423
 20
201.619
 10
84.436
 20
201.555
 97
0
 75
0
 76
1
 98
0
  0
HATCH
  5
57
330
17
100
AcDbEntity
  8
RASTER
 62
7
100
AcDbHatch
 10
0.0
 20
0.0
 30
0.0
210
0.0
220
0.0
230
1.0
  2
SOLID
 70
1
 71
0
 91
1
 92
3
 72
0
 73
1
 93
48
 10
131.28
 20
201.49
 10
131.276
 20
201.425
 10
131.263
 20
201.361
 10
131.242
 20
201.299
 10
131.213
 20
201.24
 10
131.177
 20
201.186
 10
131.134
 20
201.136
 10
131.084
 20
201.093
 10
131.03
 20
201.057
 10
130.971
 20
201.028
 10
130.909
 20
201.007
 10
130.845
 20
200.994
 10
130.78
 20
200.99
 10
130.715
 20
200.994
 10
130.651
 20
201.007
 10
130.589
 20
201.028
 10
130.53
 20
201.057
 10
130.476
 20
201.093
 10
130.426
 20
201.136
 10
130.383
 20
201.186
 10
130.347
 20
201.24
 10
130.318
 20
201.299
 10
130.297
 20
201.361
 10
130.284
 20
201.425
 10
130.28
 20
201.49
 10
130.284
 20
201.555
 10
130.297
 20
201.619
 10
130.318
 20
201.681
 10
130.347
 20
201.74
 10
130.383
 20
201.794
 10
130.426
 20
201.844
 10
130.476
 20
201.887
 10
130.53
 20
201.923
 10
130.589
 20
201.952
 10
130.651
 20
201.973
 10
130.715
 20
201.986
 10
130.78
 20
201.99
 10
130.845
 20
201.986
 10
130.909
 20
201.973
 10
130.971
 20
201.952
 10
131.03
 20
201.923
 10
131.084
 20
201.887
 10
131.134
 20
201.844
 10
131.177
 20
201.794
 10
131.213
 20
201.74
 10
131.242
 20
201.681
 10
131.263
 20
201.619
 10
131.276
 20
201.555
 97
0
 75
0
 76
1
 98
0
  0
HATCH
  5
58
330
17
100
AcDbEntity
  8
RASTER
 62
7
100
AcDbHatch
 10
0.0
 20
0.0
 30
0.0
210
0.0
220
0.0
230
1.0
  2
SOLID
 70
1
 71
0
 91
1
 92
3
 72
0
 73
1
 93
48
 10
84.44
 20
196.09
 10
84.436
 20
196.025
 10
84.423
 20
195.961
 10
84.402
 20
195.899
 10
84.373
 20
195.84
 10
84.337
 20
195.786
 10
84.294
 20
195.736
 10
84.244
 20
195.693
 10
84.19
 20
195.657
 10
84.131
 20
195.628
 10
84.069
 20
195.607
 10
84.005
 20
195.594
 10
83.94
 20
195.59
 10
83.875
 20
195.594
 10
83.811
 20
195.607
 10
83.749
 20
195.628
 10
83.69
 20
195.657
 10
83.636
 20
195.693
 10
83.586
 20
195.736
 10
83.543
 20
195.786
 10
83.507
 20
195.84
 10
83.478
 20
195.899
 10
83.457
 20
195.961
 10
83.444
 20
196.025
 10
83.44
 20
196.09
 10
83.444
 20
196.155
 10
83.457
 20
196.219
 10
83.478
 20
196.281
 10
83.507
 20
196.34
 10
83.543
 20
196.394
 10
83.586
 20
196.444
 10
83.636
 20
196.487
 10
83.69
 20
196.523
 10
83.749
 20
196.552
 10
83.811
 20
196.573
 10
83.875
 20
196.586
 10
83.94
 20
196.59
 10
84.005
 20
196.586
 10
84.069
 20
196.573
 10
84.131
 20
196.552
 10
84.19
 20
196.523
 10
84.244
 20
196.487
 10
84.294
 20
196.444
 10
84.337
 20
196.394
 10
84.373
 20
196.34
 10
84.402
 20
196.281
 10
84.423
 20
196.219
 10
84.436
 20
196.155
 97
0
 75
0
 76
1
 98
0
  0
HATCH
  5
59
330
17
100
AcDbEntity
  8
RASTER
 62
7
100
AcDbHatch
 10
0.0
 20
0.0
 30
0.0
210
0.0
220
0.0
230
1.0
  2
SOLID
 70
1
 71
0
 91
1
 92
3
 72
0
 73
1
 93
48
 10
131.28
 20
196.09
 10
131.276
 20
196.025
 10
131.263
 20
195.961
 10
131.242
 20
195.899
 10
131.213
 20
195.84
 10
131.177
 20
195.786
 10
131.134
 20
195.736
 10
131.084
 20
195.693
 10
131.03
 20
195.657
 10
130.971
 20
195.628
 10
130.909
 20
195.607
 10
130.845
 20
195.594
 10
130.78
 20
195.59
 10
130.715
 20
195.594
 10
130.651
 20
195.607
 10
130.589
 20
195.628
 10
130.53
 20
195.657
 10
130.476
 20
195.693
 10
130.426
 20
195.736
 10
130.383
 20
195.786
 10
130.347
 20
195.84
 10
130.318
 20
195.899
 10
130.297
 20
195.961
 10
130.284
 20
196.025
 10
130.28
 20
196.09
 10
130.284
 20
196.155
 10
130.297
 20
196.219
 10
130.318
 20
196.281
 10
130.347
 20
196.34
 10
130.383
 20
196.394
 10
130.426
 20
196.444
 10
130.476
 20
196.487
 10
130.53
 20
196.523
 10
130.589
 20
196.552
 10
130.651
 20
196.573
 10
130.715
 20
196.586
 10
130.78
 20
196.59
 10
130.845
 20
196.586
 10
130.909
 20
196.573
 10
130.971
 20
196.552
 10
131.03
 20
196.523
 10
131.084
 20
196.487
 10
131.134
 20
196.444
 10
131.177
 20
196.394
 10
131.213
 20
196.34
 10
131.242
 20
196.281
 10
131.263
 20
196.219
 10
131.276
 20
196.155
 97
0
 75
0
 76
1
 98
0
  0
LWPOLYLINE
  5
5A
330
17
100
AcDbEntity
  8
CUT
100
AcDbPolyline
 90
36
 70
1
 10
147.58
 20
202.28
 10
207.62
 20
202.28
 10
210.76
 20
202.28
 10
210.76
 20
199.9
 10
207.66
 20
199.9
 10
207.66
 20
197.68
 10
210.76
 20
197.68
 10
210.76
 20
195.3
 10
207.62
 20
195.3
 10
202.202
 20
195.3
 10
202.202
 20
192.2
 10
196.664
 20
192.2
 10
196.664
 20
195.3
 10
191.285
 20
195.3
 10
191.285
 20
192.2
 10
185.747
 20
192.2
 10
185.747
 20
195.3
 10
180.369
 20
195.3
 10
180.369
 20
192.2
 10
174.831
 20
192.2
 10
174.831
 20
195.3
 10
169.453
 20
195.3
 10
169.453
 20
192.2
 10
163.915
 20
192.2
 10
163.915
 20
195.3
 10
158.536
 20
195.3
 10
158.536
 20
192.2
 10
152.998
 20
192.2
 10
152.998
 20
195.3
 10
147.58
 20
195.3
 10
144.44
 20
195.3
 10
144.44
 20
197.68
 10
147.54
 20
197.68
 10
147.54
 20
199.9
 10
144.44
 20
199.9
 10
144.44
 20
202.28
  0
LWPOLYLINE
  5
5B
330
17
100
AcDbEntity
  8
CUT
100
AcDbPolyline
 90
4
 70
1
 10
152.62
 20
199.85
 10
202.58
 20
199.85
 10
202.58
 20
197.73
 10
152.62
 20
197.73
  0
HATCH
  5
5C
330
17
100
AcDbEntity
  8
RASTER
 62
7
100
AcDbHatch
 10
0.0
 20
0.0
 30
0.0
210
0.0
220
0.0
230
1.0
  2
SOLID
 70
1
 71
0
 91
1
 92
3
 72
0
 73
1
 93
4
 10
148.18
 20
201.84
 10
151.98
 20
201.84
 10
151.98
 20
195.74
 10
148.18
 20
195.74
 97
0
 75
0
 76
1
 98
0
  0
HATCH
  5
5D
330
17
100
AcDbEntity
  8
RASTER
 62
7
100
AcDbHatch
 10
0.0
 20
0.0
 30
0.0
210
0.0
220
0.0
230
1.0
  2
SOLID
 70
1
 71
0
 91
1
 92
3
 72
0
 73
1
 93
4
 10
203.22
 20
201.84
 10
207.02
 20
201.84
 10
207.02
 20
195.74
 10
203.22
 20
195.74
 97
0
 75
0
 76
1
 98
0
  0
HATCH
  5
5E
330
17
100
AcDbEntity
  8
RASTER
 62
7
100
AcDbHatch
 10
0.0
 20
0.0
 30
0.0
210
0.0
220
0.0
230
1.0
  2
SOLID
 70
1
 71
0
 91
1
 92
3
 72
0
 73
1
 93
48
 10
154.68
 20
201.49
 10
154.676
 20
201.425
 10
154.663
 20
201.361
 10
154.642
 20
201.299
 10
154.613
 20
201.24
 10
154.577
 20
201.186
 10
154.534
 20
201.136
 10
154.484
 20
201.093
 10
154.43
 20
201.057
 10
154.371
 20
201.028
 10
154.309
 20
201.007
 10
154.245
 20
200.994
 10
154.18
 20
200.99
 10
154.115
 20
200.994
 10
154.051
 20
201.007
 10
153.989
 20
201.028
 10
153.93
 20
201.057
 10
153.876
 20
201.093
 10
153.826
 20
201.136
 10
153.783
 20
201.186
 10
153.747
 20
201.24
 10
153.718
 20
201.299
 10
153.697
 20
201.361
 10
153.684
 20
201.425
 10
153.68
 20
201.49
 10
153.684
 20
201.555
 10
153.697
 20
201.619
 10
153.718
 20
201.681
 10
153.747
 20
201.74
 10
153.783
 20
201.794
 10
153.826
 20
201.844
 10
153.876
 20
201.887
 10
153.93
 20
201.923
 10
153.989
 20
201.952
 10
154.051
 20
201.973
 10
154.115
 20
201.986
 10
154.18
 20
201.99
 10
154.245
 20
201.986
 10
154.309
 20
201.973
 10
154.371
 20
201.952
 10
154.43
 20
201.923
 10
154.484
 20
201.887
 10
154.534
 20
201.844
 10
154.577
 20
201.794
 10
154.613
 20
201.74
 10
154.642
 20
201.681
 10
154.663
 20
201.619
 10
154.676
 20
201.555
 97
0
 75
0
 76
1
 98
0
  0
HATCH
  5
5F
330
17
100
AcDbEntity
  8
RASTER
 62
7
100
AcDbHatch
 10
0.0
 20
0.0
 30
0.0
210
0.0
220
0.0
230
1.0
  2
SOLID
 70
1
 71
0
 91
1
 92
3
 72
0
 73
1
 93
48
 10
201.52
 20
201.49
 10
201.516
 20
201.425
 10
201.503
 20
201.361
 10
201.482
 20
201.299
 10
201.453
 20
201.24
 10
201.417
 20
201.186
 10
201.374
 20
201.136
 10
201.324
 20
201.093
 10
201.27
 20
201.057
 10
201.211
 20
201.028
 10
201.149
 20
201.007
 10
201.085
 20
200.994
 10
201.02
 20
200.99
 10
200.955
 20
200.994
 10
200.891
 20
201.007
 10
200.829
 20
201.028
 10
200.77
 20
201.057
 10
200.716
 20
201.093
 10
200.666
 20
201.136
 10
200.623
 20
201.186
 10
200.587
 20
201.24
 10
200.558
 20
201.299
 10
200.537
 20
201.361
 10
200.524
 20
201.425
 10
200.52
 20
201.49
 10
200.524
 20
201.555
 10
200.537
 20
201.619
 10
200.558
 20
201.681
 10
200.587
 20
201.74
 10
200.623
 20
201.794
 10
200.666
 20
201.844
 10
200.716
 20
201.887
 10
200.77
 20
201.923
 10
200.829
 20
201.952
 10
200.891
 20
201.973
 10
200.955
 20
201.986
 10
201.02
 20
201.99
 10
201.085
 20
201.986
 10
201.149
 20
201.973
 10
201.211
 20
201.952
 10
201.27
 20
201.923
 10
201.324
 20
201.887
 10
201.374
 20
201.844
 10
201.417
 20
201.794
 10
201.453
 20
201.74
 10
201.482
 20
201.681
 10
201.503
 20
201.619
 10
201.516
 20
201.555
 97
0
 75
0
 76
1
 98
0
  0
HATCH
  5
60
330
17
100
AcDbEntity
  8
RASTER
 62
7
100
AcDbHatch
 10
0.0
 20
0.0
 30
0.0
210
0.0
220
0.0
230
1.0
  2
SOLID
 70
1
 71
0
 91
1
 92
3
 72
0
 73
1
 93
48
 10
154.68
 20
196.09
 10
154.676
 20
196.025
 10
154.663
 20
195.961
 10
154.642
 20
195.899
 10
154.613
 20
195.84
 10
154.577
 20
195.786
 10
154.534
 20
195.736
 10
154.484
 20
195.693
 10
154.43
 20
195.657
 10
154.371
 20
195.628
 10
154.309
 20
195.607
 10
154.245
 20
195.594
 10
154.18
 20
195.59
 10
154.115
 20
195.594
 10
154.051
 20
195.607
 10
153.989
 20
195.628
 10
153.93
 20
195.657
 10
153.876
 20
195.693
 10
153.826
 20
195.736
 10
153.783
 20
195.786
 10
153.747
 20
195.84
 10
153.718
 20
195.899
 10
153.697
 20
195.961
 10
153.684
 20
196.025
 10
153.68
 20
196.09
 10
153.684
 20
196.155
 10
153.697
 20
196.219
 10
153.718
 20
196.281
 10
153.747
 20
196.34
 10
153.783
 20
196.394
 10
153.826
 20
196.444
 10
153.876
 20
196.487
 10
153.93
 20
196.523
 10
153.989
 20
196.552
 10
154.051
 20
196.573
 10
154.115
 20
196.586
 10
154.18
 20
196.59
 10
154.245
 20
196.586
 10
154.309
 20
196.573
 10
154.371
 20
196.552
 10
154.43
 20
196.523
 10
154.484
 20
196.487
 10
154.534
 20
196.444
 10
154.577
 20
196.394
 10
154.613
 20
196.34
 10
154.642
 20
196.281
 10
154.663
 20
196.219
 10
154.676
 20
196.155
 97
0
 75
0
 76
1
 98
0
  0
HATCH
  5
61
330
17
100
AcDbEntity
  8
RASTER
 62
7
100
AcDbHatch
 10
0.0
 20
0.0
 30
0.0
210
0.0
220
0.0
230
1.0
  2
SOLID
 70
1
 71
0
 91
1
 92
3
 72
0
 73
1
 93
48
 10
201.52
 20
196.09
 10
201.516
 20
196.025
 10
201.503
 20
195.961
 10
201.482
 20
195.899
 10
201.453
 20
195.84
 10
201.417
 20
195.786
 10
201.374
 20
195.736
 10
201.324
 20
195.693
 10
201.27
 20
195.657
 10
201.211
 20
195.628
 10
201.149
 20
195.607
 10
201.085
 20
195.594
 10
201.02
 20
195.59
 10
200.955
 20
195.594
 10
200.891
 20
195.607
 10
200.829
 20
195.628
 10
200.77
 20
195.657
 10
200.716
 20
195.693
 10
200.666
 20
195.736
 10
200.623
 20
195.786
 10
200.587
 20
195.84
 10
200.558
 20
195.899
 10
200.537
 20
195.961
 10
200.524
 20
196.025
 10
200.52
 20
196.09
 10
200.524
 20
196.155
 10
200.537
 20
196.219
 10
200.558
 20
196.281
 10
200.587
 20
196.34
 10
200.623
 20
196.394
 10
200.666
 20
196.444
 10
200.716
 20
196.487
 10
200.77
 20
196.523
 10
200.829
 20
196.552
 10
200.891
 20
196.573
 10
200.955
 20
196.586
 10
201.02
 20
196.59
 10
201.085
 20
196.586
 10
201.149
 20
196.573
 10
201.211
 20
196.552
 10
201.27
 20
196.523
 10
201.324
 20
196.487
 10
201.374
 20
196.444
 10
201.417
 20
196.394
 10
201.453
 20
196.34
 10
201.482
 20
196.281
 10
201.503
 20
196.219
 10
201.516
 20
196.155
 97
0
 75
0
 76
1
 98
0
  0
LWPOLYLINE
  5
62
330
17
100
AcDbEntity
  8
CUT
100
AcDbPolyline
 90
24
 70
1
 10
217.78
 20
202.28
 10
258.22
 20
202.28
 10
258.22
 20
199.98
 10
261.32
 20
199.98
 10
261.32
 20
197.6
 10
258.22
 20
197.6
 10
258.22
 20
195.3
 10
252.454
 20
195.3
 10
252.454
 20
192.2
 10
246.609
 20
192.2
 10
246.609
 20
195.3
 10
240.923
 20
195.3
 10
240.923
 20
192.2
 10
235.077
 20
192.2
 10
235.077
 20
195.3
 10
229.391
 20
195.3
 10
229.391
 20
192.2
 10
223.546
 20
192.2
 10
223.546
 20
195.3
 10
217.78
 20
195.3
 10
217.78
 20
197.6
 10
214.68
 20
197.6
 10
214.68
 20
199.98
 10
217.78
 20
199.98
  0
LWPOLYLINE
  5
63
330
17
100
AcDbEntity
  8
CUT
100
AcDbPolyline
 90
4
 70
1
 10
222.86
 20
199.85
 10
253.14
 20
199.85
 10
253.14
 20
197.73
 10
222.86
 20
197.73
  0
HATCH
  5
64
330
17
100
AcDbEntity
  8
RASTER
 62
7
100
AcDbHatch
 10
0.0
 20
0.0
 30
0.0
210
0.0
220
0.0
230
1.0
  2
SOLID
 70
1
 71
0
 91
1
 92
3
 72
0
 73
1
 93
4
 10
218.42
 20
201.84
 10
222.22
 20
201.84
 10
222.22
 20
195.74
 10
218.42
 20
195.74
 97
0
 75
0
 76
1
 98
0
  0
HATCH
  5
65
330
17
100
AcDbEntity
  8
RASTER
 62
7
100
AcDbHatch
 10
0.0
 20
0.0
 30
0.0
210
0.0
220
0.0
230
1.0
  2
SOLID
 70
1
 71
0
 91
1
 92
3
 72
0
 73
1
 93
4
 10
253.78
 20
201.84
 10
257.58
 20
201.84
 10
257.58
 20
195.74
 10
253.78
 20
195.74
 97
0
 75
0
 76
1
 98
0
  0
HATCH
  5
66
330
17
100
AcDbEntity
  8
RASTER
 62
7
100
AcDbHatch
 10
0.0
 20
0.0
 30
0.0
210
0.0
220
0.0
230
1.0
  2
SOLID
 70
1
 71
0
 91
1
 92
3
 72
0
 73
1
 93
48
 10
224.92
 20
201.49
 10
224.916
 20
201.425
 10
224.903
 20
201.361
 10
224.882
 20
201.299
 10
224.853
 20
201.24
 10
224.817
 20
201.186
 10
224.774
 20
201.136
 10
224.724
 20
201.093
 10
224.67
 20
201.057
 10
224.611
 20
201.028
 10
224.549
 20
201.007
 10
224.485
 20
200.994
 10
224.42
 20
200.99
 10
224.355
 20
200.994
 10
224.291
 20
201.007
 10
224.229
 20
201.028
 10
224.17
 20
201.057
 10
224.116
 20
201.093
 10
224.066
 20
201.136
 10
224.023
 20
201.186
 10
223.987
 20
201.24
 10
223.958
 20
201.299
 10
223.937
 20
201.361
 10
223.924
 20
201.425
 10
223.92
 20
201.49
 10
223.924
 20
201.555
 10
223.937
 20
201.619
 10
223.958
 20
201.681
 10
223.987
 20
201.74
 10
224.023
 20
201.794
 10
224.066
 20
201.844
 10
224.116
 20
201.887
 10
224.17
 20
201.923
 10
224.229
 20
201.952
 10
224.291
 20
201.973
 10
224.355
 20
201.986
 10
224.42
 20
201.99
 10
224.485
 20
201.986
 10
224.549
 20
201.973
 10
224.611
 20
201.952
 10
224.67
 20
201.923
 10
224.724
 20
201.887
 10
224.774
 20
201.844
 10
224.817
 20
201.794
 10
224.853
 20
201.74
 10
224.882
 20
201.681
 10
224.903
 20
201.619
 10
224.916
 20
201.555
 97
0
 75
0
 76
1
 98
0
  0
HATCH
  5
67
330
17
100
AcDbEntity
  8
RASTER
 62
7
100
AcDbHatch
 10
0.0
 20
0.0
 30
0.0
210
0.0
220
0.0
230
1.0
  2
SOLID
 70
1
 71
0
 91
1
 92
3
 72
0
 73
1
 93
48
 10
252.08
 20
201.49
 10
252.076
 20
201.425
 10
252.063
 20
201.361
 10
252.042
 20
201.299
 10
252.013
 20
201.24
 10
251.977
 20
201.186
 10
251.934
 20
201.136
 10
251.884
 20
201.093
 10
251.83
 20
201.057
 10
251.771
 20
201.028
 10
251.709
 20
201.007
 10
251.645
 20
200.994
 10
251.58
 20
200.99
 10
251.515
 20
200.994
 10
251.451
 20
201.007
 10
251.389
 20
201.028
 10
251.33
 20
201.057
 10
251.276
 20
201.093
 10
251.226
 20
201.136
 10
251.183
 20
201.186
 10
251.147
 20
201.24
 10
251.118
 20
201.299
 10
251.097
 20
201.361
 10
251.084
 20
201.425
 10
251.08
 20
201.49
 10
251.084
 20
201.555
 10
251.097
 20
201.619
 10
251.118
 20
201.681
 10
251.147
 20
201.74
 10
251.183
 20
201.794
 10
251.226
 20
201.844
 10
251.276
 20
201.887
 10
251.33
 20
201.923
 10
251.389
 20
201.952
 10
251.451
 20
201.973
 10
251.515
 20
201.986
 10
251.58
 20
201.99
 10
251.645
 20
201.986
 10
251.709
 20
201.973
 10
251.771
 20
201.952
 10
251.83
 20
201.923
 10
251.884
 20
201.887
 10
251.934
 20
201.844
 10
251.977
 20
201.794
 10
252.013
 20
201.74
 10
252.042
 20
201.681
 10
252.063
 20
201.619
 10
252.076
 20
201.555
 97
0
 75
0
 76
1
 98
0
  0
HATCH
  5
68
330
17
100
AcDbEntity
  8
RASTER
 62
7
100
AcDbHatch
 10
0.0
 20
0.0
 30
0.0
210
0.0
220
0.0
230
1.0
  2
SOLID
 70
1
 71
0
 91
1
 92
3
 72
0
 73
1
 93
48
 10
224.92
 20
196.09
 10
224.916
 20
196.025
 10
224.903
 20
195.961
 10
224.882
 20
195.899
 10
224.853
 20
195.84
 10
224.817
 20
195.786
 10
224.774
 20
195.736
 10
224.724
 20
195.693
 10
224.67
 20
195.657
 10
224.611
 20
195.628
 10
224.549
 20
195.607
 10
224.485
 20
195.594
 10
224.42
 20
195.59
 10
224.355
 20
195.594
 10
224.291
 20
195.607
 10
224.229
 20
195.628
 10
224.17
 20
195.657
 10
224.116
 20
195.693
 10
224.066
 20
195.736
 10
224.023
 20
195.786
 10
223.987
 20
195.84
 10
223.958
 20
195.899
 10
223.937
 20
195.961
 10
223.924
 20
196.025
 10
223.92
 20
196.09
 10
223.924
 20
196.155
 10
223.937
 20
196.219
 10
223.958
 20
196.281
 10
223.987
 20
196.34
 10
224.023
 20
196.394
 10
224.066
 20
196.444
 10
224.116
 20
196.487
 10
224.17
 20
196.523
 10
224.229
 20
196.552
 10
224.291
 20
196.573
 10
224.355
 20
196.586
 10
224.42
 20
196.59
 10
224.485
 20
196.586
 10
224.549
 20
196.573
 10
224.611
 20
196.552
 10
224.67
 20
196.523
 10
224.724
 20
196.487
 10
224.774
 20
196.444
 10
224.817
 20
196.394
 10
224.853
 20
196.34
 10
224.882
 20
196.281
 10
224.903
 20
196.219
 10
224.916
 20
196.155
 97
0
 75
0
 76
1
 98
0
  0
HATCH
  5
69
330
17
100
AcDbEntity
  8
RASTER
 62
7
100
AcDbHatch
 10
0.0
 20
0.0
 30
0.0
210
0.0
220
0.0
230
1.0
  2
SOLID
 70
1
 71
0
 91
1
 92
3
 72
0
 73
1
 93
48
 10
252.08
 20
196.09
 10
252.076
 20
196.025
 10
252.063
 20
195.961
 10
252.042
 20
195.899
 10
252.013
 20
195.84
 10
251.977
 20
195.786
 10
251.934
 20
195.736
 10
251.884
 20
195.693
 10
251.83
 20
195.657
 10
251.771
 20
195.628
 10
251.709
 20
195.607
 10
251.645
 20
195.594
 10
251.58
 20
195.59
 10
251.515
 20
195.594
 10
251.451
 20
195.607
 10
251.389
 20
195.628
 10
251.33
 20
195.657
 10
251.276
 20
195.693
 10
251.226
 20
195.736
 10
251.183
 20
195.786
 10
251.147
 20
195.84
 10
251.118
 20
195.899
 10
251.097
 20
195.961
 10
251.084
 20
196.025
 10
251.08
 20
196.09
 10
251.084
 20
196.155
 10
251.097
 20
196.219
 10
251.118
 20
196.281
 10
251.147
 20
196.34
 10
251.183
 20
196.394
 10
251.226
 20
196.444
 10
251.276
 20
196.487
 10
251.33
 20
196.523
 10
251.389
 20
196.552
 10
251.451
 20
196.573
 10
251.515
 20
196.586
 10
251.58
 20
196.59
 10
251.645
 20
196.586
 10
251.709
 20
196.573
 10
251.771
 20
196.552
 10
251.83
 20
196.523
 10
251.884
 20
196.487
 10
251.934
 20
196.444
 10
251.977
 20
196.394
 10
252.013
 20
196.34
 10
252.042
 20
196.281
 10
252.063
 20
196.219
 10
252.076
 20
196.155
 97
0
 75
0
 76
1
 98
0
  0
LWPOLYLINE
  5
6A
330
17
100
AcDbEntity
  8
CUT
100
AcDbPolyline
 90
24
 70
1
 10
7.06
 20
151.72
 10
47.5
 20
151.72
 10
47.5
 20
149.42
 10
50.6
 20
149.42
 10
50.6
 20
147.04
 10
47.5
 20
147.04
 10
47.5
 20
144.74
 10
41.734
 20
144.74
 10
41.734
 20
141.64
 10
35.889
 20
141.64
 10
35.889
 20
144.74
 10
30.203
 20
144.74
 10
30.203
 20
141.64
 10
24.357
 20
141.64
 10
24.357
 20
144.74
 10
18.671
 20
144.74
 10
18.671
 20
141.64
 10
12.826
 20
141.64
 10
12.826
 20
144.74
 10
7.06
 20
144.74
 10
7.06
 20
147.04
 10
3.96
 20
147.04
 10
3.96
 20
149.42
 10
7.06
 20
149.42
  0
LWPOLYLINE
  5
6B
330
17
100
AcDbEntity
  8
CUT
100
AcDbPolyline
 90
4
 70
1
 10
12.14
 20
149.29
 10
42.42
 20
149.29
 10
42.42
 20
147.17
 10
12.14
 20
147.17
  0
HATCH
  5
6C
330
17
100
AcDbEntity
  8
RASTER
 62
7
100
AcDbHatch
 10
0.0
 20
0.0
 30
0.0
210
0.0
220
0.0
230
1.0
  2
SOLID
 70
1
 71
0
 91
1
 92
3
 72
0
 73
1
 93
4
 10
7.7
 20
151.28
 10
11.5
 20
151.28
 10
11.5
 20
145.18
 10
7.7
 20
145.18
 97
0
 75
0
 76
1
 98
0
  0
HATCH
  5
6D
330
17
100
AcDbEntity
  8
RASTER
 62
7
100
AcDbHatch
 10
0.0
 20
0.0
 30
0.0
210
0.0
220
0.0
230
1.0
  2
SOLID
 70
1
 71
0
 91
1
 92
3
 72
0
 73
1
 93
4
 10
43.06
 20
151.28
 10
46.86
 20
151.28
 10
46.86
 20
145.18
 10
43.06
 20
145.18
 97
0
 75
0
 76
1
 98
0
  0
HATCH
  5
6E
330
17
100
AcDbEntity
  8
RASTER
 62
7
100
AcDbHatch
 10
0.0
 20
0.0
 30
0.0
210
0.0
220
0.0
230
1.0
  2
SOLID
 70
1
 71
0
 91
1
 92
3
 72
0
 73
1
 93
48
 10
14.2
 20
150.93
 10
14.196
 20
150.865
 10
14.183
 20
150.801
 10
14.162
 20
150.739
 10
14.133
 20
150.68
 10
14.097
 20
150.626
 10
14.054
 20
150.576
 10
14.004
 20
150.533
 10
13.95
 20
150.497
 10
13.891
 20
150.468
 10
13.829
 20
150.447
 10
13.765
 20
150.434
 10
13.7
 20
150.43
 10
13.635
 20
150.434
 10
13.571
 20
150.447
 10
13.509
 20
150.468
 10
13.45
 20
150.497
 10
13.396
 20
150.533
 10
13.346
 20
150.576
 10
13.303
 20
150.626
 10
13.267
 20
150.68
 10
13.238
 20
150.739
 10
13.217
 20
150.801
 10
13.204
 20
150.865
 10
13.2
 20
150.93
 10
13.204
 20
150.995
 10
13.217
 20
151.059
 10
13.238
 20
151.121
 10
13.267
 20
151.18
 10
13.303
 20
151.234
 10
13.346
 20
151.284
 10
13.396
 20
151.327
 10
13.45
 20
151.363
 10
13.509
 20
151.392
 10
13.571
 20
151.413
 10
13.635
 20
151.426
 10
13.7
 20
151.43
 10
13.765
 20
151.426
 10
13.829
 20
151.413
 10
13.891
 20
151.392
 10
13.95
 20
151.363
 10
14.004
 20
151.327
 10
14.054
 20
151.284
 10
14.097
 20
151.234
 10
14.133
 20
151.18
 10
14.162
 20
151.121
 10
14.183
 20
151.059
 10
14.196
 20
150.995
 97
0
 75
0
 76
1
 98
0
  0
HATCH
  5
6F
330
17
100
AcDbEntity
  8
RASTER
 62
7
100
AcDbHatch
 10
0.0
 20
0.0
 30
0.0
210
0.0
220
0.0
230
1.0
  2
SOLID
 70
1
 71
0
 91
1
 92
3
 72
0
 73
1
 93
48
 10
41.36
 20
150.93
 10
41.356
 20
150.865
 10
41.343
 20
150.801
 10
41.322
 20
150.739
 10
41.293
 20
150.68
 10
41.257
 20
150.626
 10
41.214
 20
150.576
 10
41.164
 20
150.533
 10
41.11
 20
150.497
 10
41.051
 20
150.468
 10
40.989
 20
150.447
 10
40.925
 20
150.434
 10
40.86
 20
150.43
 10
40.795
 20
150.434
 10
40.731
 20
150.447
 10
40.669
 20
150.468
 10
40.61
 20
150.497
 10
40.556
 20
150.533
 10
40.506
 20
150.576
 10
40.463
 20
150.626
 10
40.427
 20
150.68
 10
40.398
 20
150.739
 10
40.377
 20
150.801
 10
40.364
 20
150.865
 10
40.36
 20
150.93
 10
40.364
 20
150.995
 10
40.377
 20
151.059
 10
40.398
 20
151.121
 10
40.427
 20
151.18
 10
40.463
 20
151.234
 10
40.506
 20
151.284
 10
40.556
 20
151.327
 10
40.61
 20
151.363
 10
40.669
 20
151.392
 10
40.731
 20
151.413
 10
40.795
 20
151.426
 10
40.86
 20
151.43
 10
40.925
 20
151.426
 10
40.989
 20
151.413
 10
41.051
 20
151.392
 10
41.11
 20
151.363
 10
41.164
 20
151.327
 10
41.214
 20
151.284
 10
41.257
 20
151.234
 10
41.293
 20
151.18
 10
41.322
 20
151.121
 10
41.343
 20
151.059
 10
41.356
 20
150.995
 97
0
 75
0
 76
1
 98
0
  0
HATCH
  5
70
330
17
100
AcDbEntity
  8
RASTER
 62
7
100
AcDbHatch
 10
0.0
 20
0.0
 30
0.0
210
0.0
220
0.0
230
1.0
  2
SOLID
 70
1
 71
0
 91
1
 92
3
 72
0
 73
1
 93
48
 10
14.2
 20
145.53
 10
14.196
 20
145.465
 10
14.183
 20
145.401
 10
14.162
 20
145.339
 10
14.133
 20
145.28
 10
14.097
 20
145.226
 10
14.054
 20
145.176
 10
14.004
 20
145.133
 10
13.95
 20
145.097
 10
13.891
 20
145.068
 10
13.829
 20
145.047
 10
13.765
 20
145.034
 10
13.7
 20
145.03
 10
13.635
 20
145.034
 10
13.571
 20
145.047
 10
13.509
 20
145.068
 10
13.45
 20
145.097
 10
13.396
 20
145.133
 10
13.346
 20
145.176
 10
13.303
 20
145.226
 10
13.267
 20
145.28
 10
13.238
 20
145.339
 10
13.217
 20
145.401
 10
13.204
 20
145.465
 10
13.2
 20
145.53
 10
13.204
 20
145.595
 10
13.217
 20
145.659
 10
13.238
 20
145.721
 10
13.267
 20
145.78
 10
13.303
 20
145.834
 10
13.346
 20
145.884
 10
13.396
 20
145.927
 10
13.45
 20
145.963
 10
13.509
 20
145.992
 10
13.571
 20
146.013
 10
13.635
 20
146.026
 10
13.7
 20
146.03
 10
13.765
 20
146.026
 10
13.829
 20
146.013
 10
13.891
 20
145.992
 10
13.95
 20
145.963
 10
14.004
 20
145.927
 10
14.054
 20
145.884
 10
14.097
 20
145.834
 10
14.133
 20
145.78
 10
14.162
 20
145.721
 10
14.183
 20
145.659
 10
14.196
 20
145.595
 97
0
 75
0
 76
1
 98
0
  0
HATCH
  5
71
330
17
100
AcDbEntity
  8
RASTER
 62
7
100
AcDbHatch
 10
0.0
 20
0.0
 30
0.0
210
0.0
220
0.0
230
1.0
  2
SOLID
 70
1
 71
0
 91
1
 92
3
 72
0
 73
1
 93
48
 10
41.36
 20
145.53
 10
41.356
 20
145.465
 10
41.343
 20
145.401
 10
41.322
 20
145.339
 10
41.293
 20
145.28
 10
41.257
 20
145.226
 10
41.214
 20
145.176
 10
41.164
 20
145.133
 10
41.11
 20
145.097
 10
41.051
 20
145.068
 10
40.989
 20
145.047
 10
40.925
 20
145.034
 10
40.86
 20
145.03
 10
40.795
 20
145.034
 10
40.731
 20
145.047
 10
40.669
 20
145.068
 10
40.61
 20
145.097
 10
40.556
 20
145.133
 10
40.506
 20
145.176
 10
40.463
 20
145.226
 10
40.427
 20
145.28
 10
40.398
 20
145.339
 10
40.377
 20
145.401
 10
40.364
 20
145.465
 10
40.36
 20
145.53
 10
40.364
 20
145.595
 10
40.377
 20
145.659
 10
40.398
 20
145.721
 10
40.427
 20
145.78
 10
40.463
 20
145.834
 10
40.506
 20
145.884
 10
40.556
 20
145.927
 10
40.61
 20
145.963
 10
40.669
 20
145.992
 10
40.731
 20
146.013
 10
40.795
 20
146.026
 10
40.86
 20
146.03
 10
40.925
 20
146.026
 10
40.989
 20
146.013
 10
41.051
 20
145.992
 10
41.11
 20
145.963
 10
41.164
 20
145.927
 10
41.214
 20
145.884
 10
41.257
 20
145.834
 10
41.293
 20
145.78
 10
41.322
 20
145.721
 10
41.343
 20
145.659
 10
41.356
 20
145.595
 97
0
 75
0
 76
1
 98
0
  0
LWPOLYLINE
  5
72
330
17
100
AcDbEntity
  8
CUT
100
AcDbPolyline
 90
76
 70
1
 10
54.52
 20
151.72
 10
57.66
 20
151.72
 10
63.158
 20
151.72
 10
63.158
 20
148.62
 10
68.536
 20
148.62
 10
68.536
 20
151.72
 10
74.075
 20
151.72
 10
74.075
 20
148.62
 10
79.453
 20
148.62
 10
79.453
 20
151.72
 10
84.991
 20
151.72
 10
84.991
 20
148.62
 10
90.369
 20
148.62
 10
90.369
 20
151.72
 10
95.907
 20
151.72
 10
95.907
 20
148.62
 10
101.285
 20
148.62
 10
101.285
 20
151.72
 10
106.824
 20
151.72
 10
106.824
 20
148.62
 10
112.202
 20
148.62
 10
112.202
 20
151.72
 10
117.7
 20
151.72
 10
120.84
 20
151.72
 10
120.84
 20
148.58
 10
120.84
 20
142.774
 10
117.74
 20
142.774
 10
117.74
 20
137.089
 10
120.84
 20
137.089
 10
120.84
 20
131.243
 10
117.74
 20
131.243
 10
117.74
 20
125.557
 10
120.84
 20
125.557
 10
120.84
 20
119.711
 10
117.74
 20
119.711
 10
117.74
 20
114.026
 10
120.84
 20
114.026
 10
120.84
 20
108.22
 10
120.84
 20
105.08
 10
117.7
 20
105.08
 10
112.202
 20
105.08
 10
112.202
 20
108.18
 10
106.824
 20
108.18
 10
106.824
 20
105.08
 10
101.285
 20
105.08
 10
101.285
 20
108.18
 10
95.907
 20
108.18
 10
95.907
 20
105.08
 10
90.369
 20
105.08
 10
90.369
 20
108.18
 10
84.991
 20
108.18
 10
84.991
 20
105.08
 10
79.453
 20
105.08
 10
79.453
 20
108.18
 10
74.075
 20
108.18
 10
74.075
 20
105.08
 10
68.536
 20
105.08
 10
68.536
 20
108.18
 10
63.158
 20
108.18
 10
63.158
 20
105.08
 10
57.66
 20
105.08
 10
54.52
 20
105.08
 10
54.52
 20
108.22
 10
54.52
 20
114.026
 10
57.62
 20
114.026
 10
57.62
 20
119.711
 10
54.52
 20
119.711
 10
54.52
 20
125.557
 10
57.62
 20
125.557
 10
57.62
 20
131.243
 10
54.52
 20
131.243
 10
54.52
 20
137.089
 10
57.62
 20
137.089
 10
57.62
 20
142.774
 10
54.52
 20
142.774
 10
54.52
 20
148.58
  0
LWPOLYLINE
  5
73
330
17
100
AcDbEntity
  8
CUT
100
AcDbPolyline
 90
36
 70
1
 10
127.9
 20
151.72
 10
187.94
 20
151.72
 10
191.08
 20
151.72
 10
191.08
 20
149.34
 10
187.98
 20
149.34
 10
187.98
 20
147.12
 10
191.08
 20
147.12
 10
191.08
 20
144.74
 10
187.94
 20
144.74
 10
182.522
 20
144.74
 10
182.522
 20
141.64
 10
176.984
 20
141.64
 10
176.984
 20
144.74
 10
171.605
 20
144.74
 10
171.605
 20
141.64
 10
166.067
 20
141.64
 10
166.067
 20
144.74
 10
160.689
 20
144.74
 10
160.689
 20
141.64
 10
155.151
 20
141.64
 10
155.151
 20
144.74
 10
149.773
 20
144.74
 10
149.773
 20
141.64
 10
144.235
 20
141.64
 10
144.235
 20
144.74
 10
138.856
 20
144.74
 10
138.856
 20
141.64
 10
133.318
 20
141.64
 10
133.318
 20
144.74
 10
127.9
 20
144.74
 10
124.76
 20
144.74
 10
124.76
 20
147.12
 10
127.86
 20
147.12
 10
127.86
 20
149.34
 10
124.76
 20
149.34
 10
124.76
 20
151.72
  0
LWPOLYLINE
  5
74
330
17
100
AcDbEntity
  8
CUT
100
AcDbPolyline
 90
4
 70
1
 10
132.94
 20
149.29
 10
182.9
 20
149.29
 10
182.9
 20
147.17
 10
132.94
 20
147.17
  0
HATCH
  5
75
330
17
100
AcDbEntity
  8
RASTER
 62
7
100
AcDbHatch
 10
0.0
 20
0.0
 30
0.0
210
0.0
220
0.0
230
1.0
  2
SOLID
 70
1
 71
0
 91
1
 92
3
 72
0
 73
1
 93
4
 10
128.5
 20
151.28
 10
132.3
 20
151.28
 10
132.3
 20
145.18
 10
128.5
 20
145.18
 97
0
 75
0
 76
1
 98
0
  0
HATCH
  5
76
330
17
100
AcDbEntity
  8
RASTER
 62
7
100
AcDbHatch
 10
0.0
 20
0.0
 30
0.0
210
0.0
220
0.0
230
1.0
  2
SOLID
 70
1
 71
0
 91
1
 92
3
 72
0
 73
1
 93
4
 10
183.54
 20
151.28
 10
187.34
 20
151.28
 10
187.34
 20
145.18
 10
183.54
 20
145.18
 97
0
 75
0
 76
1
 98
0
  0
HATCH
  5
77
330
17
100
AcDbEntity
  8
RASTER
 62
7
100
AcDbHatch
 10
0.0
 20
0.0
 30
0.0
210
0.0
220
0.0
230
1.0
  2
SOLID
 70
1
 71
0
 91
1
 92
3
 72
0
 73
1
 93
48
 10
135.0
 20
150.93
 10
134.996
 20
150.865
 10
134.983
 20
150.801
 10
134.962
 20
150.739
 10
134.933
 20
150.68
 10
134.897
 20
150.626
 10
134.854
 20
150.576
 10
134.804
 20
150.533
 10
134.75
 20
150.497
 10
134.691
 20
150.468
 10
134.629
 20
150.447
 10
134.565
 20
150.434
 10
134.5
 20
150.43
 10
134.435
 20
150.434
 10
134.371
 20
150.447
 10
134.309
 20
150.468
 10
134.25
 20
150.497
 10
134.196
 20
150.533
 10
134.146
 20
150.576
 10
134.103
 20
150.626
 10
134.067
 20
150.68
 10
134.038
 20
150.739
 10
134.017
 20
150.801
 10
134.004
 20
150.865
 10
134.0
 20
150.93
 10
134.004
 20
150.995
 10
134.017
 20
151.059
 10
134.038
 20
151.121
 10
134.067
 20
151.18
 10
134.103
 20
151.234
 10
134.146
 20
151.284
 10
134.196
 20
151.327
 10
134.25
 20
151.363
 10
134.309
 20
151.392
 10
134.371
 20
151.413
 10
134.435
 20
151.426
 10
134.5
 20
151.43
 10
134.565
 20
151.426
 10
134.629
 20
151.413
 10
134.691
 20
151.392
 10
134.75
 20
151.363
 10
134.804
 20
151.327
 10
134.854
 20
151.284
 10
134.897
 20
151.234
 10
134.933
 20
151.18
 10
134.962
 20
151.121
 10
134.983
 20
151.059
 10
134.996
 20
150.995
 97
0
 75
0
 76
1
 98
0
  0
HATCH
  5
78
330
17
100
AcDbEntity
  8
RASTER
 62
7
100
AcDbHatch
 10
0.0
 20
0.0
 30
0.0
210
0.0
220
0.0
230
1.0
  2
SOLID
 70
1
 71
0
 91
1
 92
3
 72
0
 73
1
 93
48
 10
181.84
 20
150.93
 10
181.836
 20
150.865
 10
181.823
 20
150.801
 10
181.802
 20
150.739
 10
181.773
 20
150.68
 10
181.737
 20
150.626
 10
181.694
 20
150.576
 10
181.644
 20
150.533
 10
181.59
 20
150.497
 10
181.531
 20
150.468
 10
181.469
 20
150.447
 10
181.405
 20
150.434
 10
181.34
 20
150.43
 10
181.275
 20
150.434
 10
181.211
 20
150.447
 10
181.149
 20
150.468
 10
181.09
 20
150.497
 10
181.036
 20
150.533
 10
180.986
 20
150.576
 10
180.943
 20
150.626
 10
180.907
 20
150.68
 10
180.878
 20
150.739
 10
180.857
 20
150.801
 10
180.844
 20
150.865
 10
180.84
 20
150.93
 10
180.844
 20
150.995
 10
180.857
 20
151.059
 10
180.878
 20
151.121
 10
180.907
 20
151.18
 10
180.943
 20
151.234
 10
180.986
 20
151.284
 10
181.036
 20
151.327
 10
181.09
 20
151.363
 10
181.149
 20
151.392
 10
181.211
 20
151.413
 10
181.275
 20
151.426
 10
181.34
 20
151.43
 10
181.405
 20
151.426
 10
181.469
 20
151.413
 10
181.531
 20
151.392
 10
181.59
 20
151.363
 10
181.644
 20
151.327
 10
181.694
 20
151.284
 10
181.737
 20
151.234
 10
181.773
 20
151.18
 10
181.802
 20
151.121
 10
181.823
 20
151.059
 10
181.836
 20
150.995
 97
0
 75
0
 76
1
 98
0
  0
HATCH
  5
79
330
17
100
AcDbEntity
  8
RASTER
 62
7
100
AcDbHatch
 10
0.0
 20
0.0
 30
0.0
210
0.0
220
0.0
230
1.0
  2
SOLID
 70
1
 71
0
 91
1
 92
3
 72
0
 73
1
 93
48
 10
135.0
 20
145.53
 10
134.996
 20
145.465
 10
134.983
 20
145.401
 10
134.962
 20
145.339
 10
134.933
 20
145.28
 10
134.897
 20
145.226
 10
134.854
 20
145.176
 10
134.804
 20
145.133
 10
134.75
 20
145.097
 10
134.691
 20
145.068
 10
134.629
 20
145.047
 10
134.565
 20
145.034
 10
134.5
 20
145.03
 10
134.435
 20
145.034
 10
134.371
 20
145.047
 10
134.309
 20
145.068
 10
134.25
 20
145.097
 10
134.196
 20
145.133
 10
134.146
 20
145.176
 10
134.103
 20
145.226
 10
134.067
 20
145.28
 10
134.038
 20
145.339
 10
134.017
 20
145.401
 10
134.004
 20
145.465
 10
134.0
 20
145.53
 10
134.004
 20
145.595
 10
134.017
 20
145.659
 10
134.038
 20
145.721
 10
134.067
 20
145.78
 10
134.103
 20
145.834
 10
134.146
 20
145.884
 10
134.196
 20
145.927
 10
134.25
 20
145.963
 10
134.309
 20
145.992
 10
134.371
 20
146.013
 10
134.435
 20
146.026
 10
134.5
 20
146.03
 10
134.565
 20
146.026
 10
134.629
 20
146.013
 10
134.691
 20
145.992
 10
134.75
 20
145.963
 10
134.804
 20
145.927
 10
134.854
 20
145.884
 10
134.897
 20
145.834
 10
134.933
 20
145.78
 10
134.962
 20
145.721
 10
134.983
 20
145.659
 10
134.996
 20
145.595
 97
0
 75
0
 76
1
 98
0
  0
HATCH
  5
7A
330
17
100
AcDbEntity
  8
RASTER
 62
7
100
AcDbHatch
 10
0.0
 20
0.0
 30
0.0
210
0.0
220
0.0
230
1.0
  2
SOLID
 70
1
 71
0
 91
1
 92
3
 72
0
 73
1
 93
48
 10
181.84
 20
145.53
 10
181.836
 20
145.465
 10
181.823
 20
145.401
 10
181.802
 20
145.339
 10
181.773
 20
145.28
 10
181.737
 20
145.226
 10
181.694
 20
145.176
 10
181.644
 20
145.133
 10
181.59
 20
145.097
 10
181.531
 20
145.068
 10
181.469
 20
145.047
 10
181.405
 20
145.034
 10
181.34
 20
145.03
 10
181.275
 20
145.034
 10
181.211
 20
145.047
 10
181.149
 20
145.068
 10
181.09
 20
145.097
 10
181.036
 20
145.133
 10
180.986
 20
145.176
 10
180.943
 20
145.226
 10
180.907
 20
145.28
 10
180.878
 20
145.339
 10
180.857
 20
145.401
 10
180.844
 20
145.465
 10
180.84
 20
145.53
 10
180.844
 20
145.595
 10
180.857
 20
145.659
 10
180.878
 20
145.721
 10
180.907
 20
145.78
 10
180.943
 20
145.834
 10
180.986
 20
145.884
 10
181.036
 20
145.927
 10
181.09
 20
145.963
 10
181.149
 20
145.992
 10
181.211
 20
146.013
 10
181.275
 20
146.026
 10
181.34
 20
146.03
 10
181.405
 20
146.026
 10
181.469
 20
146.013
 10
181.531
 20
145.992
 10
181.59
 20
145.963
 10
181.644
 20
145.927
 10
181.694
 20
145.884
 10
181.737
 20
145.834
 10
181.773
 20
145.78
 10
181.802
 20
145.721
 10
181.823
 20
145.659
 10
181.836
 20
145.595
 97
0
 75
0
 76
1
 98
0
  0
LWPOLYLINE
  5
7B
330
17
100
AcDbEntity
  8
CUT
100
AcDbPolyline
 90
36
 70
1
 10
198.14
 20
151.72
 10
258.18
 20
151.72
 10
261.32
 20
151.72
 10
261.32
 20
149.34
 10
258.22
 20
149.34
 10
258.22
 20
147.12
 10
261.32
 20
147.12
 10
261.32
 20
144.74
 10
258.18
 20
144.74
 10
252.762
 20
144.74
 10
252.762
 20
141.64
 10
247.224
 20
141.64
 10
247.224
 20
144.74
 10
241.845
 20
144.74
 10
241.845
 20
141.64
 10
236.307
 20
141.64
 10
236.307
 20
144.74
 10
230.929
 20
144.74
 10
230.929
 20
141.64
 10
225.391
 20
141.64
 10
225.391
 20
144.74
 10
220.013
 20
144.74
 10
220.013
 20
141.64
 10
214.475
 20
141.64
 10
214.475
 20
144.74
 10
209.096
 20
144.74
 10
209.096
 20
141.64
 10
203.558
 20
141.64
 10
203.558
 20
144.74
 10
198.14
 20
144.74
 10
195.0
 20
144.74
 10
195.0
 20
147.12
 10
198.1
 20
147.12
 10
198.1
 20
149.34
 10
195.0
 20
149.34
 10
195.0
 20
151.72
  0
LWPOLYLINE
  5
7C
330
17
100
AcDbEntity
  8
CUT
100
AcDbPolyline
 90
4
 70
1
 10
203.18
 20
149.29
 10
253.14
 20
149.29
 10
253.14
 20
147.17
 10
203.18
 20
147.17
  0
HATCH
  5
7D
330
17
100
AcDbEntity
  8
RASTER
 62
7
100
AcDbHatch
 10
0.0
 20
0.0
 30
0.0
210
0.0
220
0.0
230
1.0
  2
SOLID
 70
1
 71
0
 91
1
 92
3
 72
0
 73
1
 93
4
 10
198.74
 20
151.28
 10
202.54
 20
151.28
 10
202.54
 20
145.18
 10
198.74
 20
145.18
 97
0
 75
0
 76
1
 98
0
  0
HATCH
  5
7E
330
17
100
AcDbEntity
  8
RASTER
 62
7
100
AcDbHatch
 10
0.0
 20
0.0
 30
0.0
210
0.0
220
0.0
230
1.0
  2
SOLID
 70
1
 71
0
 91
1
 92
3
 72
0
 73
1
 93
4
 10
253.78
 20
151.28
 10
257.58
 20
151.28
 10
257.58
 20
145.18
 10
253.78
 20
145.18
 97
0
 75
0
 76
1
 98
0
  0
HATCH
  5
7F
330
17
100
AcDbEntity
  8
RASTER
 62
7
100
AcDbHatch
 10
0.0
 20
0.0
 30
0.0
210
0.0
220
0.0
230
1.0
  2
SOLID
 70
1
 71
0
 91
1
 92
3
 72
0
 73
1
 93
48
 10
205.24
 20
150.93
 10
205.236
 20
150.865
 10
205.223
 20
150.801
 10
205.202
 20
150.739
 10
205.173
 20
150.68
 10
205.137
 20
150.626
 10
205.094
 20
150.576
 10
205.044
 20
150.533
 10
204.99
 20
150.497
 10
204.931
 20
150.468
 10
204.869
 20
150.447
 10
204.805
 20
150.434
 10
204.74
 20
150.43
 10
204.675
 20
150.434
 10
204.611
 20
150.447
 10
204.549
 20
150.468
 10
204.49
 20
150.497
 10
204.436
 20
150.533
 10
204.386
 20
150.576
 10
204.343
 20
150.626
 10
204.307
 20
150.68
 10
204.278
 20
150.739
 10
204.257
 20
150.801
 10
204.244
 20
150.865
 10
204.24
 20
150.93
 10
204.244
 20
150.995
 10
204.257
 20
151.059
 10
204.278
 20
151.121
 10
204.307
 20
151.18
 10
204.343
 20
151.234
 10
204.386
 20
151.284
 10
204.436
 20
151.327
 10
204.49
 20
151.363
 10
204.549
 20
151.392
 10
204.611
 20
151.413
 10
204.675
 20
151.426
 10
204.74
 20
151.43
 10
204.805
 20
151.426
 10
204.869
 20
151.413
 10
204.931
 20
151.392
 10
204.99
 20
151.363
 10
205.044
 20
151.327
 10
205.094
 20
151.284
 10
205.137
 20
151.234
 10
205.173
 20
151.18
 10
205.202
 20
151.121
 10
205.223
 20
151.059
 10
205.236
 20
150.995
 97
0
 75
0
 76
1
 98
0
  0
HATCH
  5
80
330
17
100
AcDbEntity
  8
RASTER
 62
7
100
AcDbHatch
 10
0.0
 20
0.0
 30
0.0
210
0.0
220
0.0
230
1.0
  2
SOLID
 70
1
 71
0
 91
1
 92
3
 72
0
 73
1
 93
48
 10
252.08
 20
150.93
 10
252.076
 20
150.865
 10
252.063
 20
150.801
 10
252.042
 20
150.739
 10
252.013
 20
150.68
 10
251.977
 20
150.626
 10
251.934
 20
150.576
 10
251.884
 20
150.533
 10
251.83
 20
150.497
 10
251.771
 20
150.468
 10
251.709
 20
150.447
 10
251.645
 20
150.434
 10
251.58
 20
150.43
 10
251.515
 20
150.434
 10
251.451
 20
150.447
 10
251.389
 20
150.468
 10
251.33
 20
150.497
 10
251.276
 20
150.533
 10
251.226
 20
150.576
 10
251.183
 20
150.626
 10
251.147
 20
150.68
 10
251.118
 20
150.739
 10
251.097
 20
150.801
 10
251.084
 20
150.865
 10
251.08
 20
150.93
 10
251.084
 20
150.995
 10
251.097
 20
151.059
 10
251.118
 20
151.121
 10
251.147
 20
151.18
 10
251.183
 20
151.234
 10
251.226
 20
151.284
 10
251.276
 20
151.327
 10
251.33
 20
151.363
 10
251.389
 20
151.392
 10
251.451
 20
151.413
 10
251.515
 20
151.426
 10
251.58
 20
151.43
 10
251.645
 20
151.426
 10
251.709
 20
151.413
 10
251.771
 20
151.392
 10
251.83
 20
151.363
 10
251.884
 20
151.327
 10
251.934
 20
151.284
 10
251.977
 20
151.234
 10
252.013
 20
151.18
 10
252.042
 20
151.121
 10
252.063
 20
151.059
 10
252.076
 20
150.995
 97
0
 75
0
 76
1
 98
0
  0
HATCH
  5
81
330
17
100
AcDbEntity
  8
RASTER
 62
7
100
AcDbHatch
 10
0.0
 20
0.0
 30
0.0
210
0.0
220
0.0
230
1.0
  2
SOLID
 70
1
 71
0
 91
1
 92
3
 72
0
 73
1
 93
48
 10
205.24
 20
145.53
 10
205.236
 20
145.465
 10
205.223
 20
145.401
 10
205.202
 20
145.339
 10
205.173
 20
145.28
 10
205.137
 20
145.226
 10
205.094
 20
145.176
 10
205.044
 20
145.133
 10
204.99
 20
145.097
 10
204.931
 20
145.068
 10
204.869
 20
145.047
 10
204.805
 20
145.034
 10
204.74
 20
145.03
 10
204.675
 20
145.034
 10
204.611
 20
145.047
 10
204.549
 20
145.068
 10
204.49
 20
145.097
 10
204.436
 20
145.133
 10
204.386
 20
145.176
 10
204.343
 20
145.226
 10
204.307
 20
145.28
 10
204.278
 20
145.339
 10
204.257
 20
145.401
 10
204.244
 20
145.465
 10
204.24
 20
145.53
 10
204.244
 20
145.595
 10
204.257
 20
145.659
 10
204.278
 20
145.721
 10
204.307
 20
145.78
 10
204.343
 20
145.834
 10
204.386
 20
145.884
 10
204.436
 20
145.927
 10
204.49
 20
145.963
 10
204.549
 20
145.992
 10
204.611
 20
146.013
 10
204.675
 20
146.026
 10
204.74
 20
146.03
 10
204.805
 20
146.026
 10
204.869
 20
146.013
 10
204.931
 20
145.992
 10
204.99
 20
145.963
 10
205.044
 20
145.927
 10
205.094
 20
145.884
 10
205.137
 20
145.834
 10
205.173
 20
145.78
 10
205.202
 20
145.721
 10
205.223
 20
145.659
 10
205.236
 20
145.595
 97
0
 75
0
 76
1
 98
0
  0
HATCH
  5
82
330
17
100
AcDbEntity
  8
RASTER
 62
7
100
AcDbHatch
 10
0.0
 20
0.0
 30
0.0
210
0.0
220
0.0
230
1.0
  2
SOLID
 70
1
 71
0
 91
1
 92
3
 72
0
 73
1
 93
48
 10
252.08
 20
145.53
 10
252.076
 20
145.465
 10
252.063
 20
145.401
 10
252.042
 20
145.339
 10
252.013
 20
145.28
 10
251.977
 20
145.226
 10
251.934
 20
145.176
 10
251.884
 20
145.133
 10
251.83
 20
145.097
 10
251.771
 20
145.068
 10
251.709
 20
145.047
 10
251.645
 20
145.034
 10
251.58
 20
145.03
 10
251.515
 20
145.034
 10
251.451
 20
145.047
 10
251.389
 20
145.068
 10
251.33
 20
145.097
 10
251.276
 20
145.133
 10
251.226
 20
145.176
 10
251.183
 20
145.226
 10
251.147
 20
145.28
 10
251.118
 20
145.339
 10
251.097
 20
145.401
 10
251.084
 20
145.465
 10
251.08
 20
145.53
 10
251.084
 20
145.595
 10
251.097
 20
145.659
 10
251.118
 20
145.721
 10
251.147
 20
145.78
 10
251.183
 20
145.834
 10
251.226
 20
145.884
 10
251.276
 20
145.927
 10
251.33
 20
145.963
 10
251.389
 20
145.992
 10
251.451
 20
146.013
 10
251.515
 20
146.026
 10
251.58
 20
146.03
 10
251.645
 20
146.026
 10
251.709
 20
146.013
 10
251.771
 20
145.992
 10
251.83
 20
145.963
 10
251.884
 20
145.927
 10
251.934
 20
145.884
 10
251.977
 20
145.834
 10
252.013
 20
145.78
 10
252.042
 20
145.721
 10
252.063
 20
145.659
 10
252.076
 20
145.595
 97
0
 75
0
 76
1
 98
0
  0
LWPOLYLINE
  5
83
330
17
100
AcDbEntity
  8
CUT
100
AcDbPolyline
 90
24
 70
1
 10
7.06
 20
101.16
 10
47.5
 20
101.16
 10
47.5
 20
98.86
 10
50.6
 20
98.86
 10
50.6
 20
96.48
 10
47.5
 20
96.48
 10
47.5
 20
94.18
 10
41.734
 20
94.18
 10
41.734
 20
91.08
 10
35.889
 20
91.08
 10
35.889
 20
94.18
 10
30.203
 20
94.18
 10
30.203
 20
91.08
 10
24.357
 20
91.08
 10
24.357
 20
94.18
 10
18.671
 20
94.18
 10
18.671
 20
91.08
 10
12.826
 20
91.08
 10
12.826
 20
94.18
 10
7.06
 20
94.18
 10
7.06
 20
96.48
 10
3.96
 20
96.48
 10
3.96
 20
98.86
 10
7.06
 20
98.86
  0
LWPOLYLINE
  5
84
330
17
100
AcDbEntity
  8
CUT
100
AcDbPolyline
 90
4
 70
1
 10
12.14
 20
98.73
 10
42.42
 20
98.73
 10
42.42
 20
96.61
 10
12.14
 20
96.61
  0
HATCH
  5
85
330
17
100
AcDbEntity
  8
RASTER
 62
7
100
AcDbHatch
 10
0.0
 20
0.0
 30
0.0
210
0.0
220
0.0
230
1.0
  2
SOLID
 70
1
 71
0
 91
1
 92
3
 72
0
 73
1
 93
4
 10
7.7
 20
100.72
 10
11.5
 20
100.72
 10
11.5
 20
94.62
 10
7.7
 20
94.62
 97
0
 75
0
 76
1
 98
0
  0
HATCH
  5
86
330
17
100
AcDbEntity
  8
RASTER
 62
7
100
AcDbHatch
 10
0.0
 20
0.0
 30
0.0
210
0.0
220
0.0
230
1.0
  2
SOLID
 70
1
 71
0
 91
1
 92
3
 72
0
 73
1
 93
4
 10
43.06
 20
100.72
 10
46.86
 20
100.72
 10
46.86
 20
94.62
 10
43.06
 20
94.62
 97
0
 75
0
 76
1
 98
0
  0
HATCH
  5
87
330
17
100
AcDbEntity
  8
RASTER
 62
7
100
AcDbHatch
 10
0.0
 20
0.0
 30
0.0
210
0.0
220
0.0
230
1.0
  2
SOLID
 70
1
 71
0
 91
1
 92
3
 72
0
 73
1
 93
48
 10
14.2
 20
100.37
 10
14.196
 20
100.305
 10
14.183
 20
100.241
 10
14.162
 20
100.179
 10
14.133
 20
100.12
 10
14.097
 20
100.066
 10
14.054
 20
100.016
 10
14.004
 20
99.973
 10
13.95
 20
99.937
 10
13.891
 20
99.908
 10
13.829
 20
99.887
 10
13.765
 20
99.874
 10
13.7
 20
99.87
 10
13.635
 20
99.874
 10
13.571
 20
99.887
 10
13.509
 20
99.908
 10
13.45
 20
99.937
 10
13.396
 20
99.973
 10
13.346
 20
100.016
 10
13.303
 20
100.066
 10
13.267
 20
100.12
 10
13.238
 20
100.179
 10
13.217
 20
100.241
 10
13.204
 20
100.305
 10
13.2
 20
100.37
 10
13.204
 20
100.435
 10
13.217
 20
100.499
 10
13.238
 20
100.561
 10
13.267
 20
100.62
 10
13.303
 20
100.674
 10
13.346
 20
100.724
 10
13.396
 20
100.767
 10
13.45
 20
100.803
 10
13.509
 20
100.832
 10
13.571
 20
100.853
 10
13.635
 20
100.866
 10
13.7
 20
100.87
 10
13.765
 20
100.866
 10
13.829
 20
100.853
 10
13.891
 20
100.832
 10
13.95
 20
100.803
 10
14.004
 20
100.767
 10
14.054
 20
100.724
 10
14.097
 20
100.674
 10
14.133
 20
100.62
 10
14.162
 20
100.561
 10
14.183
 20
100.499
 10
14.196
 20
100.435
 97
0
 75
0
 76
1
 98
0
  0
HATCH
  5
88
330
17
100
AcDbEntity
  8
RASTER
 62
7
100
AcDbHatch
 10
0.0
 20
0.0
 30
0.0
210
0.0
220
0.0
230
1.0
  2
SOLID
 70
1
 71
0
 91
1
 92
3
 72
0
 73
1
 93
48
 10
41.36
 20
100.37
 10
41.356
 20
100.305
 10
41.343
 20
100.241
 10
41.322
 20
100.179
 10
41.293
 20
100.12
 10
41.257
 20
100.066
 10
41.214
 20
100.016
 10
41.164
 20
99.973
 10
41.11
 20
99.937
 10
41.051
 20
99.908
 10
40.989
 20
99.887
 10
40.925
 20
99.874
 10
40.86
 20
99.87
 10
40.795
 20
99.874
 10
40.731
 20
99.887
 10
40.669
 20
99.908
 10
40.61
 20
99.937
 10
40.556
 20
99.973
 10
40.506
 20
100.016
 10
40.463
 20
100.066
 10
40.427
 20
100.12
 10
40.398
 20
100.179
 10
40.377
 20
100.241
 10
40.364
 20
100.305
 10
40.36
 20
100.37
 10
40.364
 20
100.435
 10
40.377
 20
100.499
 10
40.398
 20
100.561
 10
40.427
 20
100.62
 10
40.463
 20
100.674
 10
40.506
 20
100.724
 10
40.556
 20
100.767
 10
40.61
 20
100.803
 10
40.669
 20
100.832
 10
40.731
 20
100.853
 10
40.795
 20
100.866
 10
40.86
 20
100.87
 10
40.925
 20
100.866
 10
40.989
 20
100.853
 10
41.051
 20
100.832
 10
41.11
 20
100.803
 10
41.164
 20
100.767
 10
41.214
 20
100.724
 10
41.257
 20
100.674
 10
41.293
 20
100.62
 10
41.322
 20
100.561
 10
41.343
 20
100.499
 10
41.356
 20
100.435
 97
0
 75
0
 76
1
 98
0
  0
HATCH
  5
89
330
17
100
AcDbEntity
  8
RASTER
 62
7
100
AcDbHatch
 10
0.0
 20
0.0
 30
0.0
210
0.0
220
0.0
230
1.0
  2
SOLID
 70
1
 71
0
 91
1
 92
3
 72
0
 73
1
 93
48
 10
14.2
 20
94.97
 10
14.196
 20
94.905
 10
14.183
 20
94.841
 10
14.162
 20
94.779
 10
14.133
 20
94.72
 10
14.097
 20
94.666
 10
14.054
 20
94.616
 10
14.004
 20
94.573
 10
13.95
 20
94.537
 10
13.891
 20
94.508
 10
13.829
 20
94.487
 10
13.765
 20
94.474
 10
13.7
 20
94.47
 10
13.635
 20
94.474
 10
13.571
 20
94.487
 10
13.509
 20
94.508
 10
13.45
 20
94.537
 10
13.396
 20
94.573
 10
13.346
 20
94.616
 10
13.303
 20
94.666
 10
13.267
 20
94.72
 10
13.238
 20
94.779
 10
13.217
 20
94.841
 10
13.204
 20
94.905
 10
13.2
 20
94.97
 10
13.204
 20
95.035
 10
13.217
 20
95.099
 10
13.238
 20
95.161
 10
13.267
 20
95.22
 10
13.303
 20
95.274
 10
13.346
 20
95.324
 10
13.396
 20
95.367
 10
13.45
 20
95.403
 10
13.509
 20
95.432
 10
13.571
 20
95.453
 10
13.635
 20
95.466
 10
13.7
 20
95.47
 10
13.765
 20
95.466
 10
13.829
 20
95.453
 10
13.891
 20
95.432
 10
13.95
 20
95.403
 10
14.004
 20
95.367
 10
14.054
 20
95.324
 10
14.097
 20
95.274
 10
14.133
 20
95.22
 10
14.162
 20
95.161
 10
14.183
 20
95.099
 10
14.196
 20
95.035
 97
0
 75
0
 76
1
 98
0
  0
HATCH
  5
8A
330
17
100
AcDbEntity
  8
RASTER
 62
7
100
AcDbHatch
 10
0.0
 20
0.0
 30
0.0
210
0.0
220
0.0
230
1.0
  2
SOLID
 70
1
 71
0
 91
1
 92
3
 72
0
 73
1
 93
48
 10
41.36
 20
94.97
 10
41.356
 20
94.905
 10
41.343
 20
94.841
 10
41.322
 20
94.779
 10
41.293
 20
94.72
 10
41.257
 20
94.666
 10
41.214
 20
94.616
 10
41.164
 20
94.573
 10
41.11
 20
94.537
 10
41.051
 20
94.508
 10
40.989
 20
94.487
 10
40.925
 20
94.474
 10
40.86
 20
94.47
 10
40.795
 20
94.474
 10
40.731
 20
94.487
 10
40.669
 20
94.508
 10
40.61
 20
94.537
 10
40.556
 20
94.573
 10
40.506
 20
94.616
 10
40.463
 20
94.666
 10
40.427
 20
94.72
 10
40.398
 20
94.779
 10
40.377
 20
94.841
 10
40.364
 20
94.905
 10
40.36
 20
94.97
 10
40.364
 20
95.035
 10
40.377
 20
95.099
 10
40.398
 20
95.161
 10
40.427
 20
95.22
 10
40.463
 20
95.274
 10
40.506
 20
95.324
 10
40.556
 20
95.367
 10
40.61
 20
95.403
 10
40.669
 20
95.432
 10
40.731
 20
95.453
 10
40.795
 20
95.466
 10
40.86
 20
95.47
 10
40.925
 20
95.466
 10
40.989
 20
95.453
 10
41.051
 20
95.432
 10
41.11
 20
95.403
 10
41.164
 20
95.367
 10
41.214
 20
95.324
 10
41.257
 20
95.274
 10
41.293
 20
95.22
 10
41.322
 20
95.161
 10
41.343
 20
95.099
 10
41.356
 20
95.035
 97
0
 75
0
 76
1
 98
0
  0
LWPOLYLINE
  5
8B
330
17
100
AcDbEntity
  8
CUT
100
AcDbPolyline
 90
24
 70
1
 10
57.62
 20
101.16
 10
98.06
 20
101.16
 10
98.06
 20
98.86
 10
101.16
 20
98.86
 10
101.16
 20
96.48
 10
98.06
 20
96.48
 10
98.06
 20
94.18
 10
92.294
 20
94.18
 10
92.294
 20
91.08
 10
86.449
 20
91.08
 10
86.449
 20
94.18
 10
80.763
 20
94.18
 10
80.763
 20
91.08
 10
74.917
 20
91.08
 10
74.917
 20
94.18
 10
69.231
 20
94.18
 10
69.231
 20
91.08
 10
63.386
 20
91.08
 10
63.386
 20
94.18
 10
57.62
 20
94.18
 10
57.62
 20
96.48
 10
54.52
 20
96.48
 10
54.52
 20
98.86
 10
57.62
 20
98.86
  0
LWPOLYLINE
  5
8C
330
17
100
AcDbEntity
  8
CUT
100
AcDbPolyline
 90
4
 70
1
 10
62.7
 20
98.73
 10
92.98
 20
98.73
 10
92.98
 20
96.61
 10
62.7
 20
96.61
  0
HATCH
  5
8D
330
17
100
AcDbEntity
  8
RASTER
 62
7
100
AcDbHatch
 10
0.0
 20
0.0
 30
0.0
210
0.0
220
0.0
230
1.0
  2
SOLID
 70
1
 71
0
 91
1
 92
3
 72
0
 73
1
 93
4
 10
58.26
 20
100.72
 10
62.06
 20
100.72
 10
62.06
 20
94.62
 10
58.26
 20
94.62
 97
0
 75
0
 76
1
 98
0
  0
HATCH
  5
8E
330
17
100
AcDbEntity
  8
RASTER
 62
7
100
AcDbHatch
 10
0.0
 20
0.0
 30
0.0
210
0.0
220
0.0
230
1.0
  2
SOLID
 70
1
 71
0
 91
1
 92
3
 72
0
 73
1
 93
4
 10
93.62
 20
100.72
 10
97.42
 20
100.72
 10
97.42
 20
94.62
 10
93.62
 20
94.62
 97
0
 75
0
 76
1
 98
0
  0
HATCH
  5
8F
330
17
100
AcDbEntity
  8
RASTER
 62
7
100
AcDbHatch
 10
0.0
 20
0.0
 30
0.0
210
0.0
220
0.0
230
1.0
  2
SOLID
 70
1
 71
0
 91
1
 92
3
 72
0
 73
1
 93
48
 10
64.76
 20
100.37
 10
64.756
 20
100.305
 10
64.743
 20
100.241
 10
64.722
 20
100.179
 10
64.693
 20
100.12
 10
64.657
 20
100.066
 10
64.614
 20
100.016
 10
64.564
 20
99.973
 10
64.51
 20
99.937
 10
64.451
 20
99.908
 10
64.389
 20
99.887
 10
64.325
 20
99.874
 10
64.26
 20
99.87
 10
64.195
 20
99.874
 10
64.131
 20
99.887
 10
64.069
 20
99.908
 10
64.01
 20
99.937
 10
63.956
 20
99.973
 10
63.906
 20
100.016
 10
63.863
 20
100.066
 10
63.827
 20
100.12
 10
63.798
 20
100.179
 10
63.777
 20
100.241
 10
63.764
 20
100.305
 10
63.76
 20
100.37
 10
63.764
 20
100.435
 10
63.777
 20
100.499
 10
63.798
 20
100.561
 10
63.827
 20
100.62
 10
63.863
 20
100.674
 10
63.906
 20
100.724
 10
63.956
 20
100.767
 10
64.01
 20
100.803
 10
64.069
 20
100.832
 10
64.131
 20
100.853
 10
64.195
 20
100.866
 10
64.26
 20
100.87
 10
64.325
 20
100.866
 10
64.389
 20
100.853
 10
64.451
 20
100.832
 10
64.51
 20
100.803
 10
64.564
 20
100.767
 10
64.614
 20
100.724
 10
64.657
 20
100.674
 10
64.693
 20
100.62
 10
64.722
 20
100.561
 10
64.743
 20
100.499
 10
64.756
 20
100.435
 97
0
 75
0
 76
1
 98
0
  0
HATCH
  5
90
330
17
100
AcDbEntity
  8
RASTER
 62
7
100
AcDbHatch
 10
0.0
 20
0.0
 30
0.0
210
0.0
220
0.0
230
1.0
  2
SOLID
 70
1
 71
0
 91
1
 92
3
 72
0
 73
1
 93
48
 10
91.92
 20
100.37
 10
91.916
 20
100.305
 10
91.903
 20
100.241
 10
91.882
 20
100.179
 10
91.853
 20
100.12
 10
91.817
 20
100.066
 10
91.774
 20
100.016
 10
91.724
 20
99.973
 10
91.67
 20
99.937
 10
91.611
 20
99.908
 10
91.549
 20
99.887
 10
91.485
 20
99.874
 10
91.42
 20
99.87
 10
91.355
 20
99.874
 10
91.291
 20
99.887
 10
91.229
 20
99.908
 10
91.17
 20
99.937
 10
91.116
 20
99.973
 10
91.066
 20
100.016
 10
91.023
 20
100.066
 10
90.987
 20
100.12
 10
90.958
 20
100.179
 10
90.937
 20
100.241
 10
90.924
 20
100.305
 10
90.92
 20
100.37
 10
90.924
 20
100.435
 10
90.937
 20
100.499
 10
90.958
 20
100.561
 10
90.987
 20
100.62
 10
91.023
 20
100.674
 10
91.066
 20
100.724
 10
91.116
 20
100.767
 10
91.17
 20
100.803
 10
91.229
 20
100.832
 10
91.291
 20
100.853
 10
91.355
 20
100.866
 10
91.42
 20
100.87
 10
91.485
 20
100.866
 10
91.549
 20
100.853
 10
91.611
 20
100.832
 10
91.67
 20
100.803
 10
91.724
 20
100.767
 10
91.774
 20
100.724
 10
91.817
 20
100.674
 10
91.853
 20
100.62
 10
91.882
 20
100.561
 10
91.903
 20
100.499
 10
91.916
 20
100.435
 97
0
 75
0
 76
1
 98
0
  0
HATCH
  5
91
330
17
100
AcDbEntity
  8
RASTER
 62
7
100
AcDbHatch
 10
0.0
 20
0.0
 30
0.0
210
0.0
220
0.0
230
1.0
  2
SOLID
 70
1
 71
0
 91
1
 92
3
 72
0
 73
1
 93
48
 10
64.76
 20
94.97
 10
64.756
 20
94.905
 10
64.743
 20
94.841
 10
64.722
 20
94.779
 10
64.693
 20
94.72
 10
64.657
 20
94.666
 10
64.614
 20
94.616
 10
64.564
 20
94.573
 10
64.51
 20
94.537
 10
64.451
 20
94.508
 10
64.389
 20
94.487
 10
64.325
 20
94.474
 10
64.26
 20
94.47
 10
64.195
 20
94.474
 10
64.131
 20
94.487
 10
64.069
 20
94.508
 10
64.01
 20
94.537
 10
63.956
 20
94.573
 10
63.906
 20
94.616
 10
63.863
 20
94.666
 10
63.827
 20
94.72
 10
63.798
 20
94.779
 10
63.777
 20
94.841
 10
63.764
 20
94.905
 10
63.76
 20
94.97
 10
63.764
 20
95.035
 10
63.777
 20
95.099
 10
63.798
 20
95.161
 10
63.827
 20
95.22
 10
63.863
 20
95.274
 10
63.906
 20
95.324
 10
63.956
 20
95.367
 10
64.01
 20
95.403
 10
64.069
 20
95.432
 10
64.131
 20
95.453
 10
64.195
 20
95.466
 10
64.26
 20
95.47
 10
64.325
 20
95.466
 10
64.389
 20
95.453
 10
64.451
 20
95.432
 10
64.51
 20
95.403
 10
64.564
 20
95.367
 10
64.614
 20
95.324
 10
64.657
 20
95.274
 10
64.693
 20
95.22
 10
64.722
 20
95.161
 10
64.743
 20
95.099
 10
64.756
 20
95.035
 97
0
 75
0
 76
1
 98
0
  0
HATCH
  5
92
330
17
100
AcDbEntity
  8
RASTER
 62
7
100
AcDbHatch
 10
0.0
 20
0.0
 30
0.0
210
0.0
220
0.0
230
1.0
  2
SOLID
 70
1
 71
0
 91
1
 92
3
 72
0
 73
1
 93
48
 10
91.92
 20
94.97
 10
91.916
 20
94.905
 10
91.903
 20
94.841
 10
91.882
 20
94.779
 10
91.853
 20
94.72
 10
91.817
 20
94.666
 10
91.774
 20
94.616
 10
91.724
 20
94.573
 10
91.67
 20
94.537
 10
91.611
 20
94.508
 10
91.549
 20
94.487
 10
91.485
 20
94.474
 10
91.42
 20
94.47
 10
91.355
 20
94.474
 10
91.291
 20
94.487
 10
91.229
 20
94.508
 10
91.17
 20
94.537
 10
91.116
 20
94.573
 10
91.066
 20
94.616
 10
91.023
 20
94.666
 10
90.987
 20
94.72
 10
90.958
 20
94.779
 10
90.937
 20
94.841
 10
90.924
 20
94.905
 10
90.92
 20
94.97
 10
90.924
 20
95.035
 10
90.937
 20
95.099
 10
90.958
 20
95.161
 10
90.987
 20
95.22
 10
91.023
 20
95.274
 10
91.066
 20
95.324
 10
91.116
 20
95.367
 10
91.17
 20
95.403
 10
91.229
 20
95.432
 10
91.291
 20
95.453
 10
91.355
 20
95.466
 10
91.42
 20
95.47
 10
91.485
 20
95.466
 10
91.549
 20
95.453
 10
91.611
 20
95.432
 10
91.67
 20
95.403
 10
91.724
 20
95.367
 10
91.774
 20
95.324
 10
91.817
 20
95.274
 10
91.853
 20
95.22
 10
91.882
 20
95.161
 10
91.903
 20
95.099
 10
91.916
 20
95.035
 97
0
 75
0
 76
1
 98
0
  0
LWPOLYLINE
  5
93
330
17
100
AcDbEntity
  8
CUT
100
AcDbPolyline
 90
76
 70
1
 10
105.08
 20
101.16
 10
108.22
 20
101.16
 10
113.718
 20
101.16
 10
113.718
 20
98.06
 10
119.096
 20
98.06
 10
119.096
 20
101.16
 10
124.635
 20
101.16
 10
124.635
 20
98.06
 10
130.013
 20
98.06
 10
130.013
 20
101.16
 10
135.551
 20
101.16
 10
135.551
 20
98.06
 10
140.929
 20
98.06
 10
140.929
 20
101.16
 10
146.467
 20
101.16
 10
146.467
 20
98.06
 10
151.845
 20
98.06
 10
151.845
 20
101.16
 10
157.384
 20
101.16
 10
157.384
 20
98.06
 10
162.762
 20
98.06
 10
162.762
 20
101.16
 10
168.26
 20
101.16
 10
171.4
 20
101.16
 10
171.4
 20
98.02
 10
171.4
 20
92.214
 10
168.3
 20
92.214
 10
168.3
 20
86.529
 10
171.4
 20
86.529
 10
171.4
 20
80.683
 10
168.3
 20
80.683
 10
168.3
 20
74.997
 10
171.4
 20
74.997
 10
171.4
 20
69.151
 10
168.3
 20
69.151
 10
168.3
 20
63.466
 10
171.4
 20
63.466
 10
171.4
 20
57.66
 10
171.4
 20
54.52
 10
168.26
 20
54.52
 10
162.762
 20
54.52
 10
162.762
 20
57.62
 10
157.384
 20
57.62
 10
157.384
 20
54.52
 10
151.845
 20
54.52
 10
151.845
 20
57.62
 10
146.467
 20
57.62
 10
146.467
 20
54.52
 10
140.929
 20
54.52
 10
140.929
 20
57.62
 10
135.551
 20
57.62
 10
135.551
 20
54.52
 10
130.013
 20
54.52
 10
130.013
 20
57.62
 10
124.635
 20
57.62
 10
124.635
 20
54.52
 10
119.096
 20
54.52
 10
119.096
 20
57.62
 10
113.718
 20
57.62
 10
113.718
 20
54.52
 10
108.22
 20
54.52
 10
105.08
 20
54.52
 10
105.08
 20
57.66
 10
105.08
 20
63.466
 10
108.18
 20
63.466
 10
108.18
 20
69.151
 10
105.08
 20
69.151
 10
105.08
 20
74.997
 10
108.18
 20
74.997
 10
108.18
 20
80.683
 10
105.08
 20
80.683
 10
105.08
 20
86.529
 10
108.18
 20
86.529
 10
108.18
 20
92.214
 10
105.08
 20
92.214
 10
105.08
 20
98.02
  0
LWPOLYLINE
  5
94
330
17
100
AcDbEntity
  8
CUT
100
AcDbPolyline
 90
36
 70
1
 10
178.46
 20
101.16
 10
238.5
 20
101.16
 10
241.64
 20
101.16
 10
241.64
 20
98.78
 10
238.54
 20
98.78
 10
238.54
 20
96.56
 10
241.64
 20
96.56
 10
241.64
 20
94.18
 10
238.5
 20
94.18
 10
233.082
 20
94.18
 10
233.082
 20
91.08
 10
227.544
 20
91.08
 10
227.544
 20
94.18
 10
222.165
 20
94.18
 10
222.165
 20
91.08
 10
216.627
 20
91.08
 10
216.627
 20
94.18
 10
211.249
 20
94.18
 10
211.249
 20
91.08
 10
205.711
 20
91.08
 10
205.711
 20
94.18
 10
200.333
 20
94.18
 10
200.333
 20
91.08
 10
194.795
 20
91.08
 10
194.795
 20
94.18
 10
189.416
 20
94.18
 10
189.416
 20
91.08
 10
183.878
 20
91.08
 10
183.878
 20
94.18
 10
178.46
 20
94.18
 10
175.32
 20
94.18
 10
175.32
 20
96.56
 10
178.42
 20
96.56
 10
178.42
 20
98.78
 10
175.32
 20
98.78
 10
175.32
 20
101.16
  0
LWPOLYLINE
  5
95
330
17
100
AcDbEntity
  8
CUT
100
AcDbPolyline
 90
4
 70
1
 10
183.5
 20
98.73
 10
233.46
 20
98.73
 10
233.46
 20
96.61
 10
183.5
 20
96.61
  0
HATCH
  5
96
330
17
100
AcDbEntity
  8
RASTER
 62
7
100
AcDbHatch
 10
0.0
 20
0.0
 30
0.0
210
0.0
220
0.0
230
1.0
  2
SOLID
 70
1
 71
0
 91
1
 92
3
 72
0
 73
1
 93
4
 10
179.06
 20
100.72
 10
182.86
 20
100.72
 10
182.86
 20
94.62
 10
179.06
 20
94.62
 97
0
 75
0
 76
1
 98
0
  0
HATCH
  5
97
330
17
100
AcDbEntity
  8
RASTER
 62
7
100
AcDbHatch
 10
0.0
 20
0.0
 30
0.0
210
0.0
220
0.0
230
1.0
  2
SOLID
 70
1
 71
0
 91
1
 92
3
 72
0
 73
1
 93
4
 10
234.1
 20
100.72
 10
237.9
 20
100.72
 10
237.9
 20
94.62
 10
234.1
 20
94.62
 97
0
 75
0
 76
1
 98
0
  0
HATCH
  5
98
330
17
100
AcDbEntity
  8
RASTER
 62
7
100
AcDbHatch
 10
0.0
 20
0.0
 30
0.0
210
0.0
220
0.0
230
1.0
  2
SOLID
 70
1
 71
0
 91
1
 92
3
 72
0
 73
1
 93
48
 10
185.56
 20
100.37
 10
185.556
 20
100.305
 10
185.543
 20
100.241
 10
185.522
 20
100.179
 10
185.493
 20
100.12
 10
185.457
 20
100.066
 10
185.414
 20
100.016
 10
185.364
 20
99.973
 10
185.31
 20
99.937
 10
185.251
 20
99.908
 10
185.189
 20
99.887
 10
185.125
 20
99.874
 10
185.06
 20
99.87
 10
184.995
 20
99.874
 10
184.931
 20
99.887
 10
184.869
 20
99.908
 10
184.81
 20
99.937
 10
184.756
 20
99.973
 10
184.706
 20
100.016
 10
184.663
 20
100.066
 10
184.627
 20
100.12
 10
184.598
 20
100.179
 10
184.577
 20
100.241
 10
184.564
 20
100.305
 10
184.56
 20
100.37
 10
184.564
 20
100.435
 10
184.577
 20
100.499
 10
184.598
 20
100.561
 10
184.627
 20
100.62
 10
184.663
 20
100.674
 10
184.706
 20
100.724
 10
184.756
 20
100.767
 10
184.81
 20
100.803
 10
184.869
 20
100.832
 10
184.931
 20
100.853
 10
184.995
 20
100.866
 10
185.06
 20
100.87
 10
185.125
 20
100.866
 10
185.189
 20
100.853
 10
185.251
 20
100.832
 10
185.31
 20
100.803
 10
185.364
 20
100.767
 10
185.414
 20
100.724
 10
185.457
 20
100.674
 10
185.493
 20
100.62
 10
185.522
 20
100.561
 10
185.543
 20
100.499
 10
185.556
 20
100.435
 97
0
 75
0
 76
1
 98
0
  0
HATCH
  5
99
330
17
100
AcDbEntity
  8
RASTER
 62
7
100
AcDbHatch
 10
0.0
 20
0.0
 30
0.0
210
0.0
220
0.0
230
1.0
  2
SOLID
 70
1
 71
0
 91
1
 92
3
 72
0
 73
1
 93
48
 10
232.4
 20
100.37
 10
232.396
 20
100.305
 10
232.383
 20
100.241
 10
232.362
 20
100.179
 10
232.333
 20
100.12
 10
232.297
 20
100.066
 10
232.254
 20
100.016
 10
232.204
 20
99.973
 10
232.15
 20
99.937
 10
232.091
 20
99.908
 10
232.029
 20
99.887
 10
231.965
 20
99.874
 10
231.9
 20
99.87
 10
231.835
 20
99.874
 10
231.771
 20
99.887
 10
231.709
 20
99.908
 10
231.65
 20
99.937
 10
231.596
 20
99.973
 10
231.546
 20
100.016
 10
231.503
 20
100.066
 10
231.467
 20
100.12
 10
231.438
 20
100.179
 10
231.417
 20
100.241
 10
231.404
 20
100.305
 10
231.4
 20
100.37
 10
231.404
 20
100.435
 10
231.417
 20
100.499
 10
231.438
 20
100.561
 10
231.467
 20
100.62
 10
231.503
 20
100.674
 10
231.546
 20
100.724
 10
231.596
 20
100.767
 10
231.65
 20
100.803
 10
231.709
 20
100.832
 10
231.771
 20
100.853
 10
231.835
 20
100.866
 10
231.9
 20
100.87
 10
231.965
 20
100.866
 10
232.029
 20
100.853
 10
232.091
 20
100.832
 10
232.15
 20
100.803
 10
232.204
 20
100.767
 10
232.254
 20
100.724
 10
232.297
 20
100.674
 10
232.333
 20
100.62
 10
232.362
 20
100.561
 10
232.383
 20
100.499
 10
232.396
 20
100.435
 97
0
 75
0
 76
1
 98
0
  0
HATCH
  5
9A
330
17
100
AcDbEntity
  8
RASTER
 62
7
100
AcDbHatch
 10
0.0
 20
0.0
 30
0.0
210
0.0
220
0.0
230
1.0
  2
SOLID
 70
1
 71
0
 91
1
 92
3
 72
0
 73
1
 93
48
 10
185.56
 20
94.97
 10
185.556
 20
94.905
 10
185.543
 20
94.841
 10
185.522
 20
94.779
 10
185.493
 20
94.72
 10
185.457
 20
94.666
 10
185.414
 20
94.616
 10
185.364
 20
94.573
 10
185.31
 20
94.537
 10
185.251
 20
94.508
 10
185.189
 20
94.487
 10
185.125
 20
94.474
 10
185.06
 20
94.47
 10
184.995
 20
94.474
 10
184.931
 20
94.487
 10
184.869
 20
94.508
 10
184.81
 20
94.537
 10
184.756
 20
94.573
 10
184.706
 20
94.616
 10
184.663
 20
94.666
 10
184.627
 20
94.72
 10
184.598
 20
94.779
 10
184.577
 20
94.841
 10
184.564
 20
94.905
 10
184.56
 20
94.97
 10
184.564
 20
95.035
 10
184.577
 20
95.099
 10
184.598
 20
95.161
 10
184.627
 20
95.22
 10
184.663
 20
95.274
 10
184.706
 20
95.324
 10
184.756
 20
95.367
 10
184.81
 20
95.403
 10
184.869
 20
95.432
 10
184.931
 20
95.453
 10
184.995
 20
95.466
 10
185.06
 20
95.47
 10
185.125
 20
95.466
 10
185.189
 20
95.453
 10
185.251
 20
95.432
 10
185.31
 20
95.403
 10
185.364
 20
95.367
 10
185.414
 20
95.324
 10
185.457
 20
95.274
 10
185.493
 20
95.22
 10
185.522
 20
95.161
 10
185.543
 20
95.099
 10
185.556
 20
95.035
 97
0
 75
0
 76
1
 98
0
  0
HATCH
  5
9B
330
17
100
AcDbEntity
  8
RASTER
 62
7
100
AcDbHatch
 10
0.0
 20
0.0
 30
0.0
210
0.0
220
0.0
230
1.0
  2
SOLID
 70
1
 71
0
 91
1
 92
3
 72
0
 73
1
 93
48
 10
232.4
 20
94.97
 10
232.396
 20
94.905
 10
232.383
 20
94.841
 10
232.362
 20
94.779
 10
232.333
 20
94.72
 10
232.297
 20
94.666
 10
232.254
 20
94.616
 10
232.204
 20
94.573
 10
232.15
 20
94.537
 10
232.091
 20
94.508
 10
232.029
 20
94.487
 10
231.965
 20
94.474
 10
231.9
 20
94.47
 10
231.835
 20
94.474
 10
231.771
 20
94.487
 10
231.709
 20
94.508
 10
231.65
 20
94.537
 10
231.596
 20
94.573
 10
231.546
 20
94.616
 10
231.503
 20
94.666
 10
231.467
 20
94.72
 10
231.438
 20
94.779
 10
231.417
 20
94.841
 10
231.404
 20
94.905
 10
231.4
 20
94.97
 10
231.404
 20
95.035
 10
231.417
 20
95.099
 10
231.438
 20
95.161
 10
231.467
 20
95.22
 10
231.503
 20
95.274
 10
231.546
 20
95.324
 10
231.596
 20
95.367
 10
231.65
 20
95.403
 10
231.709
 20
95.432
 10
231.771
 20
95.453
 10
231.835
 20
95.466
 10
231.9
 20
95.47
 10
231.965
 20
95.466
 10
232.029
 20
95.453
 10
232.091
 20
95.432
 10
232.15
 20
95.403
 10
232.204
 20
95.367
 10
232.254
 20
95.324
 10
232.297
 20
95.274
 10
232.333
 20
95.22
 10
232.362
 20
95.161
 10
232.383
 20
95.099
 10
232.396
 20
95.035
 97
0
 75
0
 76
1
 98
0
  0
LWPOLYLINE
  5
9C
330
17
100
AcDbEntity
  8
CUT
100
AcDbPolyline
 90
36
 70
1
 10
7.1
 20
50.6
 10
67.14
 20
50.6
 10
70.28
 20
50.6
 10
70.28
 20
48.22
 10
67.18
 20
48.22
 10
67.18
 20
46.0
 10
70.28
 20
46.0
 10
70.28
 20
43.62
 10
67.14
 20
43.62
 10
61.722
 20
43.62
 10
61.722
 20
40.52
 10
56.184
 20
40.52
 10
56.184
 20
43.62
 10
50.805
 20
43.62
 10
50.805
 20
40.52
 10
45.267
 20
40.52
 10
45.267
 20
43.62
 10
39.889
 20
43.62
 10
39.889
 20
40.52
 10
34.351
 20
40.52
 10
34.351
 20
43.62
 10
28.973
 20
43.62
 10
28.973
 20
40.52
 10
23.435
 20
40.52
 10
23.435
 20
43.62
 10
18.056
 20
43.62
 10
18.056
 20
40.52
 10
12.518
 20
40.52
 10
12.518
 20
43.62
 10
7.1
 20
43.62
 10
3.96
 20
43.62
 10
3.96
 20
46.0
 10
7.06
 20
46.0
 10
7.06
 20
48.22
 10
3.96
 20
48.22
 10
3.96
 20
50.6
  0
LWPOLYLINE
  5
9D
330
17
100
AcDbEntity
  8
CUT
100
AcDbPolyline
 90
4
 70
1
 10
12.14
 20
48.17
 10
62.1
 20
48.17
 10
62.1
 20
46.05
 10
12.14
 20
46.05
  0
HATCH
  5
9E
330
17
100
AcDbEntity
  8
RASTER
 62
7
100
AcDbHatch
 10
0.0
 20
0.0
 30
0.0
210
0.0
220
0.0
230
1.0
  2
SOLID
 70
1
 71
0
 91
1
 92
3
 72
0
 73
1
 93
4
 10
7.7
 20
50.16
 10
11.5
 20
50.16
 10
11.5
 20
44.06
 10
7.7
 20
44.06
 97
0
 75
0
 76
1
 98
0
  0
HATCH
  5
9F
330
17
100
AcDbEntity
  8
RASTER
 62
7
100
AcDbHatch
 10
0.0
 20
0.0
 30
0.0
210
0.0
220
0.0
230
1.0
  2
SOLID
 70
1
 71
0
 91
1
 92
3
 72
0
 73
1
 93
4
 10
62.74
 20
50.16
 10
66.54
 20
50.16
 10
66.54
 20
44.06
 10
62.74
 20
44.06
 97
0
 75
0
 76
1
 98
0
  0
HATCH
  5
A0
330
17
100
AcDbEntity
  8
RASTER
 62
7
100
AcDbHatch
 10
0.0
 20
0.0
 30
0.0
210
0.0
220
0.0
230
1.0
  2
SOLID
 70
1
 71
0
 91
1
 92
3
 72
0
 73
1
 93
48
 10
14.2
 20
49.81
 10
14.196
 20
49.745
 10
14.183
 20
49.681
 10
14.162
 20
49.619
 10
14.133
 20
49.56
 10
14.097
 20
49.506
 10
14.054
 20
49.456
 10
14.004
 20
49.413
 10
13.95
 20
49.377
 10
13.891
 20
49.348
 10
13.829
 20
49.327
 10
13.765
 20
49.314
 10
13.7
 20
49.31
 10
13.635
 20
49.314
 10
13.571
 20
49.327
 10
13.509
 20
49.348
 10
13.45
 20
49.377
 10
13.396
 20
49.413
 10
13.346
 20
49.456
 10
13.303
 20
49.506
 10
13.267
 20
49.56
 10
13.238
 20
49.619
 10
13.217
 20
49.681
 10
13.204
 20
49.745
 10
13.2
 20
49.81
 10
13.204
 20
49.875
 10
13.217
 20
49.939
 10
13.238
 20
50.001
 10
13.267
 20
50.06
 10
13.303
 20
50.114
 10
13.346
 20
50.164
 10
13.396
 20
50.207
 10
13.45
 20
50.243
 10
13.509
 20
50.272
 10
13.571
 20
50.293
 10
13.635
 20
50.306
 10
13.7
 20
50.31
 10
13.765
 20
50.306
 10
13.829
 20
50.293
 10
13.891
 20
50.272
 10
13.95
 20
50.243
 10
14.004
 20
50.207
 10
14.054
 20
50.164
 10
14.097
 20
50.114
 10
14.133
 20
50.06
 10
14.162
 20
50.001
 10
14.183
 20
49.939
 10
14.196
 20
49.875
 97
0
 75
0
 76
1
 98
0
  0
HATCH
  5
A1
330
17
100
AcDbEntity
  8
RASTER
 62
7
100
AcDbHatch
 10
0.0
 20
0.0
 30
0.0
210
0.0
220
0.0
230
1.0
  2
SOLID
 70
1
 71
0
 91
1
 92
3
 72
0
 73
1
 93
48
 10
61.04
 20
49.81
 10
61.036
 20
49.745
 10
61.023
 20
49.681
 10
61.002
 20
49.619
 10
60.973
 20
49.56
 10
60.937
 20
49.506
 10
60.894
 20
49.456
 10
60.844
 20
49.413
 10
60.79
 20
49.377
 10
60.731
 20
49.348
 10
60.669
 20
49.327
 10
60.605
 20
49.314
 10
60.54
 20
49.31
 10
60.475
 20
49.314
 10
60.411
 20
49.327
 10
60.349
 20
49.348
 10
60.29
 20
49.377
 10
60.236
 20
49.413
 10
60.186
 20
49.456
 10
60.143
 20
49.506
 10
60.107
 20
49.56
 10
60.078
 20
49.619
 10
60.057
 20
49.681
 10
60.044
 20
49.745
 10
60.04
 20
49.81
 10
60.044
 20
49.875
 10
60.057
 20
49.939
 10
60.078
 20
50.001
 10
60.107
 20
50.06
 10
60.143
 20
50.114
 10
60.186
 20
50.164
 10
60.236
 20
50.207
 10
60.29
 20
50.243
 10
60.349
 20
50.272
 10
60.411
 20
50.293
 10
60.475
 20
50.306
 10
60.54
 20
50.31
 10
60.605
 20
50.306
 10
60.669
 20
50.293
 10
60.731
 20
50.272
 10
60.79
 20
50.243
 10
60.844
 20
50.207
 10
60.894
 20
50.164
 10
60.937
 20
50.114
 10
60.973
 20
50.06
 10
61.002
 20
50.001
 10
61.023
 20
49.939
 10
61.036
 20
49.875
 97
0
 75
0
 76
1
 98
0
  0
HATCH
  5
A2
330
17
100
AcDbEntity
  8
RASTER
 62
7
100
AcDbHatch
 10
0.0
 20
0.0
 30
0.0
210
0.0
220
0.0
230
1.0
  2
SOLID
 70
1
 71
0
 91
1
 92
3
 72
0
 73
1
 93
48
 10
14.2
 20
44.41
 10
14.196
 20
44.345
 10
14.183
 20
44.281
 10
14.162
 20
44.219
 10
14.133
 20
44.16
 10
14.097
 20
44.106
 10
14.054
 20
44.056
 10
14.004
 20
44.013
 10
13.95
 20
43.977
 10
13.891
 20
43.948
 10
13.829
 20
43.927
 10
13.765
 20
43.914
 10
13.7
 20
43.91
 10
13.635
 20
43.914
 10
13.571
 20
43.927
 10
13.509
 20
43.948
 10
13.45
 20
43.977
 10
13.396
 20
44.013
 10
13.346
 20
44.056
 10
13.303
 20
44.106
 10
13.267
 20
44.16
 10
13.238
 20
44.219
 10
13.217
 20
44.281
 10
13.204
 20
44.345
 10
13.2
 20
44.41
 10
13.204
 20
44.475
 10
13.217
 20
44.539
 10
13.238
 20
44.601
 10
13.267
 20
44.66
 10
13.303
 20
44.714
 10
13.346
 20
44.764
 10
13.396
 20
44.807
 10
13.45
 20
44.843
 10
13.509
 20
44.872
 10
13.571
 20
44.893
 10
13.635
 20
44.906
 10
13.7
 20
44.91
 10
13.765
 20
44.906
 10
13.829
 20
44.893
 10
13.891
 20
44.872
 10
13.95
 20
44.843
 10
14.004
 20
44.807
 10
14.054
 20
44.764
 10
14.097
 20
44.714
 10
14.133
 20
44.66
 10
14.162
 20
44.601
 10
14.183
 20
44.539
 10
14.196
 20
44.475
 97
0
 75
0
 76
1
 98
0
  0
HATCH
  5
A3
330
17
100
AcDbEntity
  8
RASTER
 62
7
100
AcDbHatch
 10
0.0
 20
0.0
 30
0.0
210
0.0
220
0.0
230
1.0
  2
SOLID
 70
1
 71
0
 91
1
 92
3
 72
0
 73
1
 93
48
 10
61.04
 20
44.41
 10
61.036
 20
44.345
 10
61.023
 20
44.281
 10
61.002
 20
44.219
 10
60.973
 20
44.16
 10
60.937
 20
44.106
 10
60.894
 20
44.056
 10
60.844
 20
44.013
 10
60.79
 20
43.977
 10
60.731
 20
43.948
 10
60.669
 20
43.927
 10
60.605
 20
43.914
 10
60.54
 20
43.91
 10
60.475
 20
43.914
 10
60.411
 20
43.927
 10
60.349
 20
43.948
 10
60.29
 20
43.977
 10
60.236
 20
44.013
 10
60.186
 20
44.056
 10
60.143
 20
44.106
 10
60.107
 20
44.16
 10
60.078
 20
44.219
 10
60.057
 20
44.281
 10
60.044
 20
44.345
 10
60.04
 20
44.41
 10
60.044
 20
44.475
 10
60.057
 20
44.539
 10
60.078
 20
44.601
 10
60.107
 20
44.66
 10
60.143
 20
44.714
 10
60.186
 20
44.764
 10
60.236
 20
44.807
 10
60.29
 20
44.843
 10
60.349
 20
44.872
 10
60.411
 20
44.893
 10
60.475
 20
44.906
 10
60.54
 20
44.91
 10
60.605
 20
44.906
 10
60.669
 20
44.893
 10
60.731
 20
44.872
 10
60.79
 20
44.843
 10
60.844
 20
44.807
 10
60.894
 20
44.764
 10
60.937
 20
44.714
 10
60.973
 20
44.66
 10
61.002
 20
44.601
 10
61.023
 20
44.539
 10
61.036
 20
44.475
 97
0
 75
0
 76
1
 98
0
  0
LWPOLYLINE
  5
A4
330
17
100
AcDbEntity
  8
CUT
100
AcDbPolyline
 90
24
 70
1
 10
77.3
 20
50.6
 10
117.74
 20
50.6
 10
117.74
 20
48.3
 10
120.84
 20
48.3
 10
120.84
 20
45.92
 10
117.74
 20
45.92
 10
117.74
 20
43.62
 10
111.974
 20
43.62
 10
111.974
 20
40.52
 10
106.129
 20
40.52
 10
106.129
 20
43.62
 10
100.443
 20
43.62
 10
100.443
 20
40.52
 10
94.597
 20
40.52
 10
94.597
 20
43.62
 10
88.911
 20
43.62
 10
88.911
 20
40.52
 10
83.066
 20
40.52
 10
83.066
 20
43.62
 10
77.3
 20
43.62
 10
77.3
 20
45.92
 10
74.2
 20
45.92
 10
74.2
 20
48.3
 10
77.3
 20
48.3
  0
LWPOLYLINE
  5
A5
330
17
100
AcDbEntity
  8
CUT
100
AcDbPolyline
 90
4
 70
1
 10
82.38
 20
48.17
 10
112.66
 20
48.17
 10
112.66
 20
46.05
 10
82.38
 20
46.05
  0
HATCH
  5
A6
330
17
100
AcDbEntity
  8
RASTER
 62
7
100
AcDbHatch
 10
0.0
 20
0.0
 30
0.0
210
0.0
220
0.0
230
1.0
  2
SOLID
 70
1
 71
0
 91
1
 92
3
 72
0
 73
1
 93
4
 10
77.94
 20
50.16
 10
81.74
 20
50.16
 10
81.74
 20
44.06
 10
77.94
 20
44.06
 97
0
 75
0
 76
1
 98
0
  0
HATCH
  5
A7
330
17
100
AcDbEntity
  8
RASTER
 62
7
100
AcDbHatch
 10
0.0
 20
0.0
 30
0.0
210
0.0
220
0.0
230
1.0
  2
SOLID
 70
1
 71
0
 91
1
 92
3
 72
0
 73
1
 93
4
 10
113.3
 20
50.16
 10
117.1
 20
50.16
 10
117.1
 20
44.06
 10
113.3
 20
44.06
 97
0
 75
0
 76
1
 98
0
  0
HATCH
  5
A8
330
17
100
AcDbEntity
  8
RASTER
 62
7
100
AcDbHatch
 10
0.0
 20
0.0
 30
0.0
210
0.0
220
0.0
230
1.0
  2
SOLID
 70
1
 71
0
 91
1
 92
3
 72
0
 73
1
 93
48
 10
84.44
 20
49.81
 10
84.436
 20
49.745
 10
84.423
 20
49.681
 10
84.402
 20
49.619
 10
84.373
 20
49.56
 10
84.337
 20
49.506
 10
84.294
 20
49.456
 10
84.244
 20
49.413
 10
84.19
 20
49.377
 10
84.131
 20
49.348
 10
84.069
 20
49.327
 10
84.005
 20
49.314
 10
83.94
 20
49.31
 10
83.875
 20
49.314
 10
83.811
 20
49.327
 10
83.749
 20
49.348
 10
83.69
 20
49.377
 10
83.636
 20
49.413
 10
83.586
 20
49.456
 10
83.543
 20
49.506
 10
83.507
 20
49.56
 10
83.478
 20
49.619
 10
83.457
 20
49.681
 10
83.444
 20
49.745
 10
83.44
 20
49.81
 10
83.444
 20
49.875
 10
83.457
 20
49.939
 10
83.478
 20
50.001
 10
83.507
 20
50.06
 10
83.543
 20
50.114
 10
83.586
 20
50.164
 10
83.636
 20
50.207
 10
83.69
 20
50.243
 10
83.749
 20
50.272
 10
83.811
 20
50.293
 10
83.875
 20
50.306
 10
83.94
 20
50.31
 10
84.005
 20
50.306
 10
84.069
 20
50.293
 10
84.131
 20
50.272
 10
84.19
 20
50.243
 10
84.244
 20
50.207
 10
84.294
 20
50.164
 10
84.337
 20
50.114
 10
84.373
 20
50.06
 10
84.402
 20
50.001
 10
84.423
 20
49.939
 10
84.436
 20
49.875
 97
0
 75
0
 76
1
 98
0
  0
HATCH
  5
A9
330
17
100
AcDbEntity
  8
RASTER
 62
7
100
AcDbHatch
 10
0.0
 20
0.0
 30
0.0
210
0.0
220
0.0
230
1.0
  2
SOLID
 70
1
 71
0
 91
1
 92
3
 72
0
 73
1
 93
48
 10
111.6
 20
49.81
 10
111.596
 20
49.745
 10
111.583
 20
49.681
 10
111.562
 20
49.619
 10
111.533
 20
49.56
 10
111.497
 20
49.506
 10
111.454
 20
49.456
 10
111.404
 20
49.413
 10
111.35
 20
49.377
 10
111.291
 20
49.348
 10
111.229
 20
49.327
 10
111.165
 20
49.314
 10
111.1
 20
49.31
 10
111.035
 20
49.314
 10
110.971
 20
49.327
 10
110.909
 20
49.348
 10
110.85
 20
49.377
 10
110.796
 20
49.413
 10
110.746
 20
49.456
 10
110.703
 20
49.506
 10
110.667
 20
49.56
 10
110.638
 20
49.619
 10
110.617
 20
49.681
 10
110.604
 20
49.745
 10
110.6
 20
49.81
 10
110.604
 20
49.875
 10
110.617
 20
49.939
 10
110.638
 20
50.001
 10
110.667
 20
50.06
 10
110.703
 20
50.114
 10
110.746
 20
50.164
 10
110.796
 20
50.207
 10
110.85
 20
50.243
 10
110.909
 20
50.272
 10
110.971
 20
50.293
 10
111.035
 20
50.306
 10
111.1
 20
50.31
 10
111.165
 20
50.306
 10
111.229
 20
50.293
 10
111.291
 20
50.272
 10
111.35
 20
50.243
 10
111.404
 20
50.207
 10
111.454
 20
50.164
 10
111.497
 20
50.114
 10
111.533
 20
50.06
 10
111.562
 20
50.001
 10
111.583
 20
49.939
 10
111.596
 20
49.875
 97
0
 75
0
 76
1
 98
0
  0
HATCH
  5
AA
330
17
100
AcDbEntity
  8
RASTER
 62
7
100
AcDbHatch
 10
0.0
 20
0.0
 30
0.0
210
0.0
220
0.0
230
1.0
  2
SOLID
 70
1
 71
0
 91
1
 92
3
 72
0
 73
1
 93
48
 10
84.44
 20
44.41
 10
84.436
 20
44.345
 10
84.423
 20
44.281
 10
84.402
 20
44.219
 10
84.373
 20
44.16
 10
84.337
 20
44.106
 10
84.294
 20
44.056
 10
84.244
 20
44.013
 10
84.19
 20
43.977
 10
84.131
 20
43.948
 10
84.069
 20
43.927
 10
84.005
 20
43.914
 10
83.94
 20
43.91
 10
83.875
 20
43.914
 10
83.811
 20
43.927
 10
83.749
 20
43.948
 10
83.69
 20
43.977
 10
83.636
 20
44.013
 10
83.586
 20
44.056
 10
83.543
 20
44.106
 10
83.507
 20
44.16
 10
83.478
 20
44.219
 10
83.457
 20
44.281
 10
83.444
 20
44.345
 10
83.44
 20
44.41
 10
83.444
 20
44.475
 10
83.457
 20
44.539
 10
83.478
 20
44.601
 10
83.507
 20
44.66
 10
83.543
 20
44.714
 10
83.586
 20
44.764
 10
83.636
 20
44.807
 10
83.69
 20
44.843
 10
83.749
 20
44.872
 10
83.811
 20
44.893
 10
83.875
 20
44.906
 10
83.94
 20
44.91
 10
84.005
 20
44.906
 10
84.069
 20
44.893
 10
84.131
 20
44.872
 10
84.19
 20
44.843
 10
84.244
 20
44.807
 10
84.294
 20
44.764
 10
84.337
 20
44.714
 10
84.373
 20
44.66
 10
84.402
 20
44.601
 10
84.423
 20
44.539
 10
84.436
 20
44.475
 97
0
 75
0
 76
1
 98
0
  0
HATCH
  5
AB
330
17
100
AcDbEntity
  8
RASTER
 62
7
100
AcDbHatch
 10
0.0
 20
0.0
 30
0.0
210
0.0
220
0.0
230
1.0
  2
SOLID
 70
1
 71
0
 91
1
 92
3
 72
0
 73
1
 93
48
 10
111.6
 20
44.41
 10
111.596
 20
44.345
 10
111.583
 20
44.281
 10
111.562
 20
44.219
 10
111.533
 20
44.16
 10
111.497
 20
44.106
 10
111.454
 20
44.056
 10
111.404
 20
44.013
 10
111.35
 20
43.977
 10
111.291
 20
43.948
 10
111.229
 20
43.927
 10
111.165
 20
43.914
 10
111.1
 20
43.91
 10
111.035
 20
43.914
 10
110.971
 20
43.927
 10
110.909
 20
43.948
 10
110.85
 20
43.977
 10
110.796
 20
44.013
 10
110.746
 20
44.056
 10
110.703
 20
44.106
 10
110.667
 20
44.16
 10
110.638
 20
44.219
 10
110.617
 20
44.281
 10
110.604
 20
44.345
 10
110.6
 20
44.41
 10
110.604
 20
44.475
 10
110.617
 20
44.539
 10
110.638
 20
44.601
 10
110.667
 20
44.66
 10
110.703
 20
44.714
 10
110.746
 20
44.764
 10
110.796
 20
44.807
 10
110.85
 20
44.843
 10
110.909
 20
44.872
 10
110.971
 20
44.893
 10
111.035
 20
44.906
 10
111.1
 20
44.91
 10
111.165
 20
44.906
 10
111.229
 20
44.893
 10
111.291
 20
44.872
 10
111.35
 20
44.843
 10
111.404
 20
44.807
 10
111.454
 20
44.764
 10
111.497
 20
44.714
 10
111.533
 20
44.66
 10
111.562
 20
44.601
 10
111.583
 20
44.539
 10
111.596
 20
44.475
 97
0
 75
0
 76
1
 98
0
  0
LWPOLYLINE
  5
AC
330
17
100
AcDbEntity
  8
CUT
100
AcDbPolyline
 90
24
 70
1
 10
127.86
 20
50.6
 10
168.3
 20
50.6
 10
168.3
 20
48.3
 10
171.4
 20
48.3
 10
171.4
 20
45.92
 10
168.3
 20
45.92
 10
168.3
 20
43.62
 10
162.534
 20
43.62
 10
162.534
 20
40.52
 10
156.689
 20
40.52
 10
156.689
 20
43.62
 10
151.003
 20
43.62
 10
151.003
 20
40.52
 10
145.157
 20
40.52
 10
145.157
 20
43.62
 10
139.471
 20
43.62
 10
139.471
 20
40.52
 10
133.626
 20
40.52
 10
133.626
 20
43.62
 10
127.86
 20
43.62
 10
127.86
 20
45.92
 10
124.76
 20
45.92
 10
124.76
 20
48.3
 10
127.86
 20
48.3
  0
LWPOLYLINE
  5
AD
330
17
100
AcDbEntity
  8
CUT
100
AcDbPolyline
 90
4
 70
1
 10
132.94
 20
48.17
 10
163.22
 20
48.17
 10
163.22
 20
46.05
 10
132.94
 20
46.05
  0
HATCH
  5
AE
330
17
100
AcDbEntity
  8
RASTER
 62
7
100
AcDbHatch
 10
0.0
 20
0.0
 30
0.0
210
0.0
220
0.0
230
1.0
  2
SOLID
 70
1
 71
0
 91
1
 92
3
 72
0
 73
1
 93
4
 10
128.5
 20
50.16
 10
132.3
 20
50.16
 10
132.3
 20
44.06
 10
128.5
 20
44.06
 97
0
 75
0
 76
1
 98
0
  0
HATCH
  5
AF
330
17
100
AcDbEntity
  8
RASTER
 62
7
100
AcDbHatch
 10
0.0
 20
0.0
 30
0.0
210
0.0
220
0.0
230
1.0
  2
SOLID
 70
1
 71
0
 91
1
 92
3
 72
0
 73
1
 93
4
 10
163.86
 20
50.16
 10
167.66
 20
50.16
 10
167.66
 20
44.06
 10
163.86
 20
44.06
 97
0
 75
0
 76
1
 98
0
  0
HATCH
  5
B0
330
17
100
AcDbEntity
  8
RASTER
 62
7
100
AcDbHatch
 10
0.0
 20
0.0
 30
0.0
210
0.0
220
0.0
230
1.0
  2
SOLID
 70
1
 71
0
 91
1
 92
3
 72
0
 73
1
 93
48
 10
135.0
 20
49.81
 10
134.996
 20
49.745
 10
134.983
 20
49.681
 10
134.962
 20
49.619
 10
134.933
 20
49.56
 10
134.897
 20
49.506
 10
134.854
 20
49.456
 10
134.804
 20
49.413
 10
134.75
 20
49.377
 10
134.691
 20
49.348
 10
134.629
 20
49.327
 10
134.565
 20
49.314
 10
134.5
 20
49.31
 10
134.435
 20
49.314
 10
134.371
 20
49.327
 10
134.309
 20
49.348
 10
134.25
 20
49.377
 10
134.196
 20
49.413
 10
134.146
 20
49.456
 10
134.103
 20
49.506
 10
134.067
 20
49.56
 10
134.038
 20
49.619
 10
134.017
 20
49.681
 10
134.004
 20
49.745
 10
134.0
 20
49.81
 10
134.004
 20
49.875
 10
134.017
 20
49.939
 10
134.038
 20
50.001
 10
134.067
 20
50.06
 10
134.103
 20
50.114
 10
134.146
 20
50.164
 10
134.196
 20
50.207
 10
134.25
 20
50.243
 10
134.309
 20
50.272
 10
134.371
 20
50.293
 10
134.435
 20
50.306
 10
134.5
 20
50.31
 10
134.565
 20
50.306
 10
134.629
 20
50.293
 10
134.691
 20
50.272
 10
134.75
 20
50.243
 10
134.804
 20
50.207
 10
134.854
 20
50.164
 10
134.897
 20
50.114
 10
134.933
 20
50.06
 10
134.962
 20
50.001
 10
134.983
 20
49.939
 10
134.996
 20
49.875
 97
0
 75
0
 76
1
 98
0
  0
HATCH
  5
B1
330
17
100
AcDbEntity
  8
RASTER
 62
7
100
AcDbHatch
 10
0.0
 20
0.0
 30
0.0
210
0.0
220
0.0
230
1.0
  2
SOLID
 70
1
 71
0
 91
1
 92
3
 72
0
 73
1
 93
48
 10
162.16
 20
49.81
 10
162.156
 20
49.745
 10
162.143
 20
49.681
 10
162.122
 20
49.619
 10
162.093
 20
49.56
 10
162.057
 20
49.506
 10
162.014
 20
49.456
 10
161.964
 20
49.413
 10
161.91
 20
49.377
 10
161.851
 20
49.348
 10
161.789
 20
49.327
 10
161.725
 20
49.314
 10
161.66
 20
49.31
 10
161.595
 20
49.314
 10
161.531
 20
49.327
 10
161.469
 20
49.348
 10
161.41
 20
49.377
 10
161.356
 20
49.413
 10
161.306
 20
49.456
 10
161.263
 20
49.506
 10
161.227
 20
49.56
 10
161.198
 20
49.619
 10
161.177
 20
49.681
 10
161.164
 20
49.745
 10
161.16
 20
49.81
 10
161.164
 20
49.875
 10
161.177
 20
49.939
 10
161.198
 20
50.001
 10
161.227
 20
50.06
 10
161.263
 20
50.114
 10
161.306
 20
50.164
 10
161.356
 20
50.207
 10
161.41
 20
50.243
 10
161.469
 20
50.272
 10
161.531
 20
50.293
 10
161.595
 20
50.306
 10
161.66
 20
50.31
 10
161.725
 20
50.306
 10
161.789
 20
50.293
 10
161.851
 20
50.272
 10
161.91
 20
50.243
 10
161.964
 20
50.207
 10
162.014
 20
50.164
 10
162.057
 20
50.114
 10
162.093
 20
50.06
 10
162.122
 20
50.001
 10
162.143
 20
49.939
 10
162.156
 20
49.875
 97
0
 75
0
 76
1
 98
0
  0
HATCH
  5
B2
330
17
100
AcDbEntity
  8
RASTER
 62
7
100
AcDbHatch
 10
0.0
 20
0.0
 30
0.0
210
0.0
220
0.0
230
1.0
  2
SOLID
 70
1
 71
0
 91
1
 92
3
 72
0
 73
1
 93
48
 10
135.0
 20
44.41
 10
134.996
 20
44.345
 10
134.983
 20
44.281
 10
134.962
 20
44.219
 10
134.933
 20
44.16
 10
134.897
 20
44.106
 10
134.854
 20
44.056
 10
134.804
 20
44.013
 10
134.75
 20
43.977
 10
134.691
 20
43.948
 10
134.629
 20
43.927
 10
134.565
 20
43.914
 10
134.5
 20
43.91
 10
134.435
 20
43.914
 10
134.371
 20
43.927
 10
134.309
 20
43.948
 10
134.25
 20
43.977
 10
134.196
 20
44.013
 10
134.146
 20
44.056
 10
134.103
 20
44.106
 10
134.067
 20
44.16
 10
134.038
 20
44.219
 10
134.017
 20
44.281
 10
134.004
 20
44.345
 10
134.0
 20
44.41
 10
134.004
 20
44.475
 10
134.017
 20
44.539
 10
134.038
 20
44.601
 10
134.067
 20
44.66
 10
134.103
 20
44.714
 10
134.146
 20
44.764
 10
134.196
 20
44.807
 10
134.25
 20
44.843
 10
134.309
 20
44.872
 10
134.371
 20
44.893
 10
134.435
 20
44.906
 10
134.5
 20
44.91
 10
134.565
 20
44.906
 10
134.629
 20
44.893
 10
134.691
 20
44.872
 10
134.75
 20
44.843
 10
134.804
 20
44.807
 10
134.854
 20
44.764
 10
134.897
 20
44.714
 10
134.933
 20
44.66
 10
134.962
 20
44.601
 10
134.983
 20
44.539
 10
134.996
 20
44.475
 97
0
 75
0
 76
1
 98
0
  0
HATCH
  5
B3
330
17
100
AcDbEntity
  8
RASTER
 62
7
100
AcDbHatch
 10
0.0
 20
0.0
 30
0.0
210
0.0
220
0.0
230
1.0
  2
SOLID
 70
1
 71
0
 91
1
 92
3
 72
0
 73
1
 93
48
 10
162.16
 20
44.41
 10
162.156
 20
44.345
 10
162.143
 20
44.281
 10
162.122
 20
44.219
 10
162.093
 20
44.16
 10
162.057
 20
44.106
 10
162.014
 20
44.056
 10
161.964
 20
44.013
 10
161.91
 20
43.977
 10
161.851
 20
43.948
 10
161.789
 20
43.927
 10
161.725
 20
43.914
 10
161.66
 20
43.91
 10
161.595
 20
43.914
 10
161.531
 20
43.927
 10
161.469
 20
43.948
 10
161.41
 20
43.977
 10
161.356
 20
44.013
 10
161.306
 20
44.056
 10
161.263
 20
44.106
 10
161.227
 20
44.16
 10
161.198
 20
44.219
 10
161.177
 20
44.281
 10
161.164
 20
44.345
 10
161.16
 20
44.41
 10
161.164
 20
44.475
 10
161.177
 20
44.539
 10
161.198
 20
44.601
 10
161.227
 20
44.66
 10
161.263
 20
44.714
 10
161.306
 20
44.764
 10
161.356
 20
44.807
 10
161.41
 20
44.843
 10
161.469
 20
44.872
 10
161.531
 20
44.893
 10
161.595
 20
44.906
 10
161.66
 20
44.91
 10
161.725
 20
44.906
 10
161.789
 20
44.893
 10
161.851
 20
44.872
 10
161.91
 20
44.843
 10
161.964
 20
44.807
 10
162.014
 20
44.764
 10
162.057
 20
44.714
 10
162.093
 20
44.66
 10
162.122
 20
44.601
 10
162.143
 20
44.539
 10
162.156
 20
44.475
 97
0
 75
0
 76
1
 98
0
  0
LWPOLYLINE
  5
B4
330
17
100
AcDbEntity
  8
CUT
100
AcDbPolyline
 90
76
 70
1
 10
175.32
 20
50.6
 10
178.46
 20
50.6
 10
183.958
 20
50.6
 10
183.958
 20
47.5
 10
189.336
 20
47.5
 10
189.336
 20
50.6
 10
194.875
 20
50.6
 10
194.875
 20
47.5
 10
200.253
 20
47.5
 10
200.253
 20
50.6
 10
205.791
 20
50.6
 10
205.791
 20
47.5
 10
211.169
 20
47.5
 10
211.169
 20
50.6
 10
216.707
 20
50.6
 10
216.707
 20
47.5
 10
222.085
 20
47.5
 10
222.085
 20
50.6
 10
227.624
 20
50.6
 10
227.624
 20
47.5
 10
233.002
 20
47.5
 10
233.002
 20
50.6
 10
238.5
 20
50.6
 10
241.64
 20
50.6
 10
241.64
 20
47.46
 10
241.64
 20
41.654
 10
238.54
 20
41.654
 10
238.54
 20
35.969
 10
241.64
 20
35.969
 10
241.64
 20
30.123
 10
238.54
 20
30.123
 10
238.54
 20
24.437
 10
241.64
 20
24.437
 10
241.64
 20
18.591
 10
238.54
 20
18.591
 10
238.54
 20
12.906
 10
241.64
 20
12.906
 10
241.64
 20
7.1
 10
241.64
 20
3.96
 10
238.5
 20
3.96
 10
233.002
 20
3.96
 10
233.002
 20
7.06
 10
227.624
 20
7.06
 10
227.624
 20
3.96
 10
222.085
 20
3.96
 10
222.085
 20
7.06
 10
216.707
 20
7.06
 10
216.707
 20
3.96
 10
211.169
 20
3.96
 10
211.169
 20
7.06
 10
205.791
 20
7.06
 10
205.791
 20
3.96
 10
200.253
 20
3.96
 10
200.253
 20
7.06
 10
194.875
 20
7.06
 10
194.875
 20
3.96
 10
189.336
 20
3.96
 10
189.336
 20
7.06
 10
183.958
 20
7.06
 10
183.958
 20
3.96
 10
178.46
 20
3.96
 10
175.32
 20
3.96
 10
175.32
 20
7.1
 10
175.32
 20
12.906
 10
178.42
 20
12.906
 10
178.42
 20
18.591
 10
175.32
 20
18.591
 10
175.32
 20
24.437
 10
178.42
 20
24.437
 10
178.42
 20
30.123
 10
175.32
 20
30.123
 10
175.32
 20
35.969
 10
178.42
 20
35.969
 10
178.42
 20
41.654
 10
175.32
 20
41.654
 10
175.32
 20
47.46
  0
ENDSEC
  0
SECTION
  2
OBJECTS
  0
DICTIONARY
  5
A
330
0
100
AcDbDictionary
281
1
  3
ACAD_COLOR
350
B
  3
ACAD_GROUP
350
C
  3
ACAD_LAYOUT
350
D
  3
ACAD_MATERIAL
350
E
  3
ACAD_MLEADERSTYLE
350
F
  3
ACAD_MLINESTYLE
350
10
  3
ACAD_PLOTSETTINGS
350
11
  3
ACAD_PLOTSTYLENAME
350
12
  3
ACAD_SCALELIST
350
14
  3
ACAD_TABLESTYLE
350
15
  3
ACAD_VISUALSTYLE
350
16
  3
EZDXF_META
350
2D
  0
DICTIONARY
  5
B
330
A
100
AcDbDictionary
281
1
  0
DICTIONARY
  5
C
330
A
100
AcDbDictionary
281
1
  0
DICTIONARY
  5
D
330
A
100
AcDbDictionary
281
1
  3
Model
350
1A
  3
Layout1
350
1E
  0
DICTIONARY
  5
E
330
A
100
AcDbDictionary
281
1
  3
ByBlock
350
1F
  3
ByLayer
350
20
  3
Global
350
21
  0
DICTIONARY
  5
F
330
A
100
AcDbDictionary
281
1
  3
Standard
350
2C
  0
DICTIONARY
  5
10
330
A
100
AcDbDictionary
281
1
  3
Standard
350
22
  0
DICTIONARY
  5
11
330
A
100
AcDbDictionary
281
1
  0
ACDBDICTIONARYWDFLT
  5
12
330
A
100
AcDbDictionary
281
1
  3
Normal
350
13
100
AcDbDictionaryWithDefault
340
13
  0
ACDBPLACEHOLDER
  5
13
330
12
  0
DICTIONARY
  5
14
330
A
100
AcDbDictionary
281
1
  0
DICTIONARY
  5
15
330
A
100
AcDbDictionary
281
1
  0
DICTIONARY
  5
16
330
A
100
AcDbDictionary
281
1
  0
LAYOUT
  5
1A
330
D
100
AcDbPlotSettings
  1

  4
A3
  6

 40
7.5
 41
20.0
 42
7.5
 43
20.0
 44
420.0
 45
297.0
 46
0.0
 47
0.0
 48
0.0
 49
0.0
140
0.0
141
0.0
142
1.0
143
1.0
 70
1024
 72
1
 73
0
 74
5
  7

 75
16
 76
0
 77
2
 78
300
147
1.0
148
0.0
149
0.0
100
AcDbLayout
  1
Model
 70
1
 71
0
 10
0.0
 20
0.0
 11
420.0
 21
297.0
 12
0.0
 22
0.0
 32
0.0
 14
1e+20
 24
1e+20
 34
1e+20
 15
-1e+20
 25
-1e+20
 35
-1e+20
146
0.0
 13
0.0
 23
0.0
 33
0.0
 16
1.0
 26
0.0
 36
0.0
 17
0.0
 27
1.0
 37
0.0
 76
1
330
17
  0
LAYOUT
  5
1E
330
D
100
AcDbPlotSettings
  1

  4
A3
  6

 40
7.5
 41
20.0
 42
7.5
 43
20.0
 44
420.0
 45
297.0
 46
0.0
 47
0.0
 48
0.0
 49
0.0
140
0.0
141
0.0
142
1.0
143
1.0
 70
0
 72
1
 73
0
 74
5
  7

 75
16
 76
0
 77
2
 78
300
147
1.0
148
0.0
149
0.0
100
AcDbLayout
  1
Layout1
 70
1
 71
1
 10
0.0
 20
0.0
 11
420.0
 21
297.0
 12
0.0
 22
0.0
 32
0.0
 14
1e+20
 24
1e+20
 34
1e+20
 15
-1e+20
 25
-1e+20
 35
-1e+20
146
0.0
 13
0.0
 23
0.0
 33
0.0
 16
1.0
 26
0.0
 36
0.0
 17
0.0
 27
1.0
 37
0.0
 76
1
330
1B
  0
MATERIAL
  5
1F
102
{ACAD_REACTORS
330
E
102
}
330
E
100
AcDbMaterial
  1
ByBlock
  2

 70
0
 40
1.0
 71
1
 41
1.0
 91
-1023410177
 42
1.0
 72
1
  3

 73
1
 74
1
 75
1
 44
0.5
 73
0
 45
1.0
 46
1.0
 77
1
  4

 78
1
 79
1
170
1
 48
1.0
171
1
  6

172
1
173
1
174
1
140
1.0
141
1.0
175
1
  7

176
1
177
1
178
1
143
1.0
179
1
  8

270
1
271
1
272
1
145
1.0
146
1.0
273
1
  9

274
1
275
1
276
1
 42
1.0
 72
1
  3

 73
1
 74
1
 75
1
 94
63
  0
MATERIAL
  5
20
102
{ACAD_REACTORS
330
E
102
}
330
E
100
AcDbMaterial
  1
ByLayer
  2

 70
0
 40
1.0
 71
1
 41
1.0
 91
-1023410177
 42
1.0
 72
1
  3

 73
1
 74
1
 75
1
 44
0.5
 73
0
 45
1.0
 46
1.0
 77
1
  4

 78
1
 79
1
170
1
 48
1.0
171
1
  6

172
1
173
1
174
1
140
1.0
141
1.0
175
1
  7

176
1
177
1
178
1
143
1.0
179
1
  8

270
1
271
1
272
1
145
1.0
146
1.0
273
1
  9

274
1
275
1
276
1
 42
1.0
 72
1
  3

 73
1
 74
1
 75
1
 94
63
  0
MATERIAL
  5
21
102
{ACAD_REACTORS
330
E
102
}
330
E
100
AcDbMaterial
  1
Global
  2

 70
0
 40
1.0
 71
1
 41
1.0
 91
-1023410177
 42
1.0
 72
1
  3

 73
1
 74
1
 75
1
 44
0.5
 73
0
 45
1.0
 46
1.0
 77
1
  4

 78
1
 79
1
170
1
 48
1.0
171
1
  6

172
1
173
1
174
1
140
1.0
141
1.0
175
1
  7

176
1
177
1
178
1
143
1.0
179
1
  8

270
1
271
1
272
1
145
1.0
146
1.0
273
1
  9

274
1
275
1
276
1
 42
1.0
 72
1
  3

 73
1
 74
1
 75
1
 94
63
  0
MLINESTYLE
  5
22
102
{ACAD_REACTORS
330
10
102
}
330
10
100
AcDbMlineStyle
  2
Standard
 70
0
  3

 62
256
 51
90.0
 52
90.0
 71
2
 49
0.5
 62
256
  6
BYLAYER
 49
-0.5
 62
256
  6
BYLAYER
  0
MLEADERSTYLE
  5
2C
102
{ACAD_REACTORS
330
F
102
}
330
F
100
AcDbMLeaderStyle
179
2
170
2
171
1
172
0
 90
2
 40
0.0
 41
0.0
173
1
 91
-1056964608
 92
-2
290
1
 42
2.0
291
1
 43
8.0
  3
Standard
 44
4.0
300

342
29
174
1
175
1
176
0
178
1
 93
-1056964608
 45
4.0
292
0
297
0
 46
4.0
 94
-1056964608
 47
1.0
 49
1.0
140
1.0
294
1
141
0.0
177
0
142
1.0
295
0
296
0
143
3.75
271
0
272
9
273
9
  0
DICTIONARY
  5
2D
330
A
100
AcDbDictionary
280
1
281
1
  3
CREATED_BY_EZDXF
350
2E
  3
WRITTEN_BY_EZDXF
350
B7
  0
DICTIONARYVAR
  5
2E
330
2D
100
DictionaryVariables
280
0
  1
1.4.2 @ 2026-09-11T01:04:15.787508+00:00
  0
DICTIONARYVAR
  5
B7
330
2D
100
DictionaryVariables
280
0
  1
1.4.2 @ 2026-09-11T01:04:15.793498+00:00
  0
ENDSEC
  0
EOF
