0
SECTION
2
HEADER
9
$ACADVER
1
AC1015
9
$HANDSEED
5
FFFF
9
$INSUNITS
70
4
9
$EXTMIN
10
0
20
0
30
0
9
$EXTMAX
10
298
20
106
30
0
0
ENDSEC
0
SECTION
2
TABLES
0
TABLE
2
LAYER
5
100
100
AcDbSymbolTable
70
2
0
LAYER
5
101
100
AcDbSymbolTableRecord
100
AcDbLayerTableRecord
2
CUT
70
0
62
1
6
Continuous
370
-3
0
LAYER
5
102
100
AcDbSymbolTableRecord
100
AcDbLayerTableRecord
2
RASTER
70
0
62
7
6
Continuous
370
-3
0
ENDTAB
0
ENDSEC
0
SECTION
2
ENTITIES
0
LWPOLYLINE
5
103
100
AcDbEntity
8
CUT
100
AcDbPolyline
90
31
70
1
10
7
20
102
10
45
20
102
10
48
20
102
10
48
20
97
10
45
20
97
10
45
20
92
10
48
20
92
10
48
20
87
10
45
20
87
10
45
20
87
10
39.571
20
87
10
39.571
20
84
10
34.143
20
84
10
34.143
20
87
10
28.714
20
87
10
28.714
20
84
10
23.286
20
84
10
23.286
20
87
10
17.857
20
87
10
17.857
20
84
10
12.429
20
84
10
12.429
20
87
10
7
20
87
10
7
20
87
10
4
20
87
10
4
20
92
10
7
20
92
10
7
20
97
10
4
20
97
10
4
20
102
10
7
20
102
0
LWPOLYLINE
5
104
100
AcDbEntity
8
CUT
100
AcDbPolyline
90
4
70
1
10
11
20
97.767
10
41
20
97.767
10
41
20
96.367
10
11
20
96.367
0
LWPOLYLINE
5
105
100
AcDbEntity
8
CUT
100
AcDbPolyline
90
4
70
1
10
11
20
92.633
10
41
20
92.633
10
41
20
91.233
10
11
20
91.233
0
HATCH
5
106
100
AcDbEntity
8
RASTER
100
AcDbHatch
10
0
20
0
30
0
210
0
220
0
230
1
2
SOLID
70
1
71
0
91
1
92
2
72
0
73
1
93
4
10
7.6
20
101.6
10
10.4
20
101.6
10
10.4
20
87.4
10
7.6
20
87.4
97
0
75
0
76
1
98
1
10
0
20
0
0
HATCH
5
107
100
AcDbEntity
8
RASTER
100
AcDbHatch
10
0
20
0
30
0
210
0
220
0
230
1
2
SOLID
70
1
71
0
91
1
92
2
72
0
73
1
93
4
10
41.6
20
101.6
10
44.4
20
101.6
10
44.4
20
87.4
10
41.6
20
87.4
97
0
75
0
76
1
98
1
10
0
20
0
0
HATCH
5
108
100
AcDbEntity
8
RASTER
100
AcDbHatch
10
0
20
0
30
0
210
0
220
0
230
1
2
SOLID
70
1
71
0
91
1
92
2
72
0
73
1
93
48
10
13.1
20
99.633
10
13.096
20
99.568
10
13.083
20
99.504
10
13.062
20
99.442
10
13.033
20
99.383
10
12.997
20
99.329
10
12.954
20
99.28
10
12.904
20
99.237
10
12.85
20
99.2
10
12.791
20
99.171
10
12.729
20
99.15
10
12.665
20
99.138
10
12.6
20
99.133
10
12.535
20
99.138
10
12.471
20
99.15
10
12.409
20
99.171
10
12.35
20
99.2
10
12.296
20
99.237
10
12.246
20
99.28
10
12.203
20
99.329
10
12.167
20
99.383
10
12.138
20
99.442
10
12.117
20
99.504
10
12.104
20
99.568
10
12.1
20
99.633
10
12.104
20
99.699
10
12.117
20
99.763
10
12.138
20
99.825
10
12.167
20
99.883
10
12.203
20
99.938
10
12.246
20
99.987
10
12.296
20
100.03
10
12.35
20
100.066
10
12.409
20
100.095
10
12.471
20
100.116
10
12.535
20
100.129
10
12.6
20
100.133
10
12.665
20
100.129
10
12.729
20
100.116
10
12.791
20
100.095
10
12.85
20
100.066
10
12.904
20
100.03
10
12.954
20
99.987
10
12.997
20
99.938
10
13.033
20
99.883
10
13.062
20
99.825
10
13.083
20
99.763
10
13.096
20
99.699
97
0
75
0
76
1
98
1
10
0
20
0
0
HATCH
5
109
100
AcDbEntity
8
RASTER
100
AcDbHatch
10
0
20
0
30
0
210
0
220
0
230
1
2
SOLID
70
1
71
0
91
1
92
2
72
0
73
1
93
48
10
39.9
20
99.633
10
39.896
20
99.568
10
39.883
20
99.504
10
39.862
20
99.442
10
39.833
20
99.383
10
39.797
20
99.329
10
39.754
20
99.28
10
39.704
20
99.237
10
39.65
20
99.2
10
39.591
20
99.171
10
39.529
20
99.15
10
39.465
20
99.138
10
39.4
20
99.133
10
39.335
20
99.138
10
39.271
20
99.15
10
39.209
20
99.171
10
39.15
20
99.2
10
39.096
20
99.237
10
39.046
20
99.28
10
39.003
20
99.329
10
38.967
20
99.383
10
38.938
20
99.442
10
38.917
20
99.504
10
38.904
20
99.568
10
38.9
20
99.633
10
38.904
20
99.699
10
38.917
20
99.763
10
38.938
20
99.825
10
38.967
20
99.883
10
39.003
20
99.938
10
39.046
20
99.987
10
39.096
20
100.03
10
39.15
20
100.066
10
39.209
20
100.095
10
39.271
20
100.116
10
39.335
20
100.129
10
39.4
20
100.133
10
39.465
20
100.129
10
39.529
20
100.116
10
39.591
20
100.095
10
39.65
20
100.066
10
39.704
20
100.03
10
39.754
20
99.987
10
39.797
20
99.938
10
39.833
20
99.883
10
39.862
20
99.825
10
39.883
20
99.763
10
39.896
20
99.699
97
0
75
0
76
1
98
1
10
0
20
0
0
HATCH
5
10A
100
AcDbEntity
8
RASTER
100
AcDbHatch
10
0
20
0
30
0
210
0
220
0
230
1
2
SOLID
70
1
71
0
91
1
92
2
72
0
73
1
93
48
10
13.1
20
94.5
10
13.096
20
94.435
10
13.083
20
94.371
10
13.062
20
94.309
10
13.033
20
94.25
10
12.997
20
94.196
10
12.954
20
94.146
10
12.904
20
94.103
10
12.85
20
94.067
10
12.791
20
94.038
10
12.729
20
94.017
10
12.665
20
94.004
10
12.6
20
94
10
12.535
20
94.004
10
12.471
20
94.017
10
12.409
20
94.038
10
12.35
20
94.067
10
12.296
20
94.103
10
12.246
20
94.146
10
12.203
20
94.196
10
12.167
20
94.25
10
12.138
20
94.309
10
12.117
20
94.371
10
12.104
20
94.435
10
12.1
20
94.5
10
12.104
20
94.565
10
12.117
20
94.629
10
12.138
20
94.691
10
12.167
20
94.75
10
12.203
20
94.804
10
12.246
20
94.854
10
12.296
20
94.897
10
12.35
20
94.933
10
12.409
20
94.962
10
12.471
20
94.983
10
12.535
20
94.996
10
12.6
20
95
10
12.665
20
94.996
10
12.729
20
94.983
10
12.791
20
94.962
10
12.85
20
94.933
10
12.904
20
94.897
10
12.954
20
94.854
10
12.997
20
94.804
10
13.033
20
94.75
10
13.062
20
94.691
10
13.083
20
94.629
10
13.096
20
94.565
97
0
75
0
76
1
98
1
10
0
20
0
0
HATCH
5
10B
100
AcDbEntity
8
RASTER
100
AcDbHatch
10
0
20
0
30
0
210
0
220
0
230
1
2
SOLID
70
1
71
0
91
1
92
2
72
0
73
1
93
48
10
39.9
20
94.5
10
39.896
20
94.435
10
39.883
20
94.371
10
39.862
20
94.309
10
39.833
20
94.25
10
39.797
20
94.196
10
39.754
20
94.146
10
39.704
20
94.103
10
39.65
20
94.067
10
39.591
20
94.038
10
39.529
20
94.017
10
39.465
20
94.004
10
39.4
20
94
10
39.335
20
94.004
10
39.271
20
94.017
10
39.209
20
94.038
10
39.15
20
94.067
10
39.096
20
94.103
10
39.046
20
94.146
10
39.003
20
94.196
10
38.967
20
94.25
10
38.938
20
94.309
10
38.917
20
94.371
10
38.904
20
94.435
10
38.9
20
94.5
10
38.904
20
94.565
10
38.917
20
94.629
10
38.938
20
94.691
10
38.967
20
94.75
10
39.003
20
94.804
10
39.046
20
94.854
10
39.096
20
94.897
10
39.15
20
94.933
10
39.209
20
94.962
10
39.271
20
94.983
10
39.335
20
94.996
10
39.4
20
95
10
39.465
20
94.996
10
39.529
20
94.983
10
39.591
20
94.962
10
39.65
20
94.933
10
39.704
20
94.897
10
39.754
20
94.854
10
39.797
20
94.804
10
39.833
20
94.75
10
39.862
20
94.691
10
39.883
20
94.629
10
39.896
20
94.565
97
0
75
0
76
1
98
1
10
0
20
0
0
HATCH
5
10C
100
AcDbEntity
8
RASTER
100
AcDbHatch
10
0
20
0
30
0
210
0
220
0
230
1
2
SOLID
70
1
71
0
91
1
92
2
72
0
73
1
93
48
10
13.1
20
89.367
10
13.096
20
89.301
10
13.083
20
89.237
10
13.062
20
89.175
10
13.033
20
89.117
10
12.997
20
89.062
10
12.954
20
89.013
10
12.904
20
88.97
10
12.85
20
88.934
10
12.791
20
88.905
10
12.729
20
88.884
10
12.665
20
88.871
10
12.6
20
88.867
10
12.535
20
88.871
10
12.471
20
88.884
10
12.409
20
88.905
10
12.35
20
88.934
10
12.296
20
88.97
10
12.246
20
89.013
10
12.203
20
89.062
10
12.167
20
89.117
10
12.138
20
89.175
10
12.117
20
89.237
10
12.104
20
89.301
10
12.1
20
89.367
10
12.104
20
89.432
10
12.117
20
89.496
10
12.138
20
89.558
10
12.167
20
89.617
10
12.203
20
89.671
10
12.246
20
89.72
10
12.296
20
89.763
10
12.35
20
89.8
10
12.409
20
89.829
10
12.471
20
89.85
10
12.535
20
89.862
10
12.6
20
89.867
10
12.665
20
89.862
10
12.729
20
89.85
10
12.791
20
89.829
10
12.85
20
89.8
10
12.904
20
89.763
10
12.954
20
89.72
10
12.997
20
89.671
10
13.033
20
89.617
10
13.062
20
89.558
10
13.083
20
89.496
10
13.096
20
89.432
97
0
75
0
76
1
98
1
10
0
20
0
0
HATCH
5
10D
100
AcDbEntity
8
RASTER
100
AcDbHatch
10
0
20
0
30
0
210
0
220
0
230
1
2
SOLID
70
1
71
0
91
1
92
2
72
0
73
1
93
48
10
39.9
20
89.367
10
39.896
20
89.301
10
39.883
20
89.237
10
39.862
20
89.175
10
39.833
20
89.117
10
39.797
20
89.062
10
39.754
20
89.013
10
39.704
20
88.97
10
39.65
20
88.934
10
39.591
20
88.905
10
39.529
20
88.884
10
39.465
20
88.871
10
39.4
20
88.867
10
39.335
20
88.871
10
39.271
20
88.884
10
39.209
20
88.905
10
39.15
20
88.934
10
39.096
20
88.97
10
39.046
20
89.013
10
39.003
20
89.062
10
38.967
20
89.117
10
38.938
20
89.175
10
38.917
20
89.237
10
38.904
20
89.301
10
38.9
20
89.367
10
38.904
20
89.432
10
38.917
20
89.496
10
38.938
20
89.558
10
38.967
20
89.617
10
39.003
20
89.671
10
39.046
20
89.72
10
39.096
20
89.763
10
39.15
20
89.8
10
39.209
20
89.829
10
39.271
20
89.85
10
39.335
20
89.862
10
39.4
20
89.867
10
39.465
20
89.862
10
39.529
20
89.85
10
39.591
20
89.829
10
39.65
20
89.8
10
39.704
20
89.763
10
39.754
20
89.72
10
39.797
20
89.671
10
39.833
20
89.617
10
39.862
20
89.558
10
39.883
20
89.496
10
39.896
20
89.432
97
0
75
0
76
1
98
1
10
0
20
0
0
LWPOLYLINE
5
10E
100
AcDbEntity
8
CUT
100
AcDbPolyline
90
31
70
1
10
55
20
102
10
93
20
102
10
96
20
102
10
96
20
97
10
93
20
97
10
93
20
92
10
96
20
92
10
96
20
87
10
93
20
87
10
93
20
87
10
87.571
20
87
10
87.571
20
84
10
82.143
20
84
10
82.143
20
87
10
76.714
20
87
10
76.714
20
84
10
71.286
20
84
10
71.286
20
87
10
65.857
20
87
10
65.857
20
84
10
60.429
20
84
10
60.429
20
87
10
55
20
87
10
55
20
87
10
52
20
87
10
52
20
92
10
55
20
92
10
55
20
97
10
52
20
97
10
52
20
102
10
55
20
102
0
LWPOLYLINE
5
10F
100
AcDbEntity
8
CUT
100
AcDbPolyline
90
4
70
1
10
59
20
97.767
10
89
20
97.767
10
89
20
96.367
10
59
20
96.367
0
LWPOLYLINE
5
110
100
AcDbEntity
8
CUT
100
AcDbPolyline
90
4
70
1
10
59
20
92.633
10
89
20
92.633
10
89
20
91.233
10
59
20
91.233
0
HATCH
5
111
100
AcDbEntity
8
RASTER
100
AcDbHatch
10
0
20
0
30
0
210
0
220
0
230
1
2
SOLID
70
1
71
0
91
1
92
2
72
0
73
1
93
4
10
55.6
20
101.6
10
58.4
20
101.6
10
58.4
20
87.4
10
55.6
20
87.4
97
0
75
0
76
1
98
1
10
0
20
0
0
HATCH
5
112
100
AcDbEntity
8
RASTER
100
AcDbHatch
10
0
20
0
30
0
210
0
220
0
230
1
2
SOLID
70
1
71
0
91
1
92
2
72
0
73
1
93
4
10
89.6
20
101.6
10
92.4
20
101.6
10
92.4
20
87.4
10
89.6
20
87.4
97
0
75
0
76
1
98
1
10
0
20
0
0
HATCH
5
113
100
AcDbEntity
8
RASTER
100
AcDbHatch
10
0
20
0
30
0
210
0
220
0
230
1
2
SOLID
70
1
71
0
91
1
92
2
72
0
73
1
93
48
10
61.1
20
99.633
10
61.096
20
99.568
10
61.083
20
99.504
10
61.062
20
99.442
10
61.033
20
99.383
10
60.997
20
99.329
10
60.954
20
99.28
10
60.904
20
99.237
10
60.85
20
99.2
10
60.791
20
99.171
10
60.729
20
99.15
10
60.665
20
99.138
10
60.6
20
99.133
10
60.535
20
99.138
10
60.471
20
99.15
10
60.409
20
99.171
10
60.35
20
99.2
10
60.296
20
99.237
10
60.246
20
99.28
10
60.203
20
99.329
10
60.167
20
99.383
10
60.138
20
99.442
10
60.117
20
99.504
10
60.104
20
99.568
10
60.1
20
99.633
10
60.104
20
99.699
10
60.117
20
99.763
10
60.138
20
99.825
10
60.167
20
99.883
10
60.203
20
99.938
10
60.246
20
99.987
10
60.296
20
100.03
10
60.35
20
100.066
10
60.409
20
100.095
10
60.471
20
100.116
10
60.535
20
100.129
10
60.6
20
100.133
10
60.665
20
100.129
10
60.729
20
100.116
10
60.791
20
100.095
10
60.85
20
100.066
10
60.904
20
100.03
10
60.954
20
99.987
10
60.997
20
99.938
10
61.033
20
99.883
10
61.062
20
99.825
10
61.083
20
99.763
10
61.096
20
99.699
97
0
75
0
76
1
98
1
10
0
20
0
0
HATCH
5
114
100
AcDbEntity
8
RASTER
100
AcDbHatch
10
0
20
0
30
0
210
0
220
0
230
1
2
SOLID
70
1
71
0
91
1
92
2
72
0
73
1
93
48
10
87.9
20
99.633
10
87.896
20
99.568
10
87.883
20
99.504
10
87.862
20
99.442
10
87.833
20
99.383
10
87.797
20
99.329
10
87.754
20
99.28
10
87.704
20
99.237
10
87.65
20
99.2
10
87.591
20
99.171
10
87.529
20
99.15
10
87.465
20
99.138
10
87.4
20
99.133
10
87.335
20
99.138
10
87.271
20
99.15
10
87.209
20
99.171
10
87.15
20
99.2
10
87.096
20
99.237
10
87.046
20
99.28
10
87.003
20
99.329
10
86.967
20
99.383
10
86.938
20
99.442
10
86.917
20
99.504
10
86.904
20
99.568
10
86.9
20
99.633
10
86.904
20
99.699
10
86.917
20
99.763
10
86.938
20
99.825
10
86.967
20
99.883
10
87.003
20
99.938
10
87.046
20
99.987
10
87.096
20
100.03
10
87.15
20
100.066
10
87.209
20
100.095
10
87.271
20
100.116
10
87.335
20
100.129
10
87.4
20
100.133
10
87.465
20
100.129
10
87.529
20
100.116
10
87.591
20
100.095
10
87.65
20
100.066
10
87.704
20
100.03
10
87.754
20
99.987
10
87.797
20
99.938
10
87.833
20
99.883
10
87.862
20
99.825
10
87.883
20
99.763
10
87.896
20
99.699
97
0
75
0
76
1
98
1
10
0
20
0
0
HATCH
5
115
100
AcDbEntity
8
RASTER
100
AcDbHatch
10
0
20
0
30
0
210
0
220
0
230
1
2
SOLID
70
1
71
0
91
1
92
2
72
0
73
1
93
48
10
61.1
20
94.5
10
61.096
20
94.435
10
61.083
20
94.371
10
61.062
20
94.309
10
61.033
20
94.25
10
60.997
20
94.196
10
60.954
20
94.146
10
60.904
20
94.103
10
60.85
20
94.067
10
60.791
20
94.038
10
60.729
20
94.017
10
60.665
20
94.004
10
60.6
20
94
10
60.535
20
94.004
10
60.471
20
94.017
10
60.409
20
94.038
10
60.35
20
94.067
10
60.296
20
94.103
10
60.246
20
94.146
10
60.203
20
94.196
10
60.167
20
94.25
10
60.138
20
94.309
10
60.117
20
94.371
10
60.104
20
94.435
10
60.1
20
94.5
10
60.104
20
94.565
10
60.117
20
94.629
10
60.138
20
94.691
10
60.167
20
94.75
10
60.203
20
94.804
10
60.246
20
94.854
10
60.296
20
94.897
10
60.35
20
94.933
10
60.409
20
94.962
10
60.471
20
94.983
10
60.535
20
94.996
10
60.6
20
95
10
60.665
20
94.996
10
60.729
20
94.983
10
60.791
20
94.962
10
60.85
20
94.933
10
60.904
20
94.897
10
60.954
20
94.854
10
60.997
20
94.804
10
61.033
20
94.75
10
61.062
20
94.691
10
61.083
20
94.629
10
61.096
20
94.565
97
0
75
0
76
1
98
1
10
0
20
0
0
HATCH
5
116
100
AcDbEntity
8
RASTER
100
AcDbHatch
10
0
20
0
30
0
210
0
220
0
230
1
2
SOLID
70
1
71
0
91
1
92
2
72
0
73
1
93
48
10
87.9
20
94.5
10
87.896
20
94.435
10
87.883
20
94.371
10
87.862
20
94.309
10
87.833
20
94.25
10
87.797
20
94.196
10
87.754
20
94.146
10
87.704
20
94.103
10
87.65
20
94.067
10
87.591
20
94.038
10
87.529
20
94.017
10
87.465
20
94.004
10
87.4
20
94
10
87.335
20
94.004
10
87.271
20
94.017
10
87.209
20
94.038
10
87.15
20
94.067
10
87.096
20
94.103
10
87.046
20
94.146
10
87.003
20
94.196
10
86.967
20
94.25
10
86.938
20
94.309
10
86.917
20
94.371
10
86.904
20
94.435
10
86.9
20
94.5
10
86.904
20
94.565
10
86.917
20
94.629
10
86.938
20
94.691
10
86.967
20
94.75
10
87.003
20
94.804
10
87.046
20
94.854
10
87.096
20
94.897
10
87.15
20
94.933
10
87.209
20
94.962
10
87.271
20
94.983
10
87.335
20
94.996
10
87.4
20
95
10
87.465
20
94.996
10
87.529
20
94.983
10
87.591
20
94.962
10
87.65
20
94.933
10
87.704
20
94.897
10
87.754
20
94.854
10
87.797
20
94.804
10
87.833
20
94.75
10
87.862
20
94.691
10
87.883
20
94.629
10
87.896
20
94.565
97
0
75
0
76
1
98
1
10
0
20
0
0
HATCH
5
117
100
AcDbEntity
8
RASTER
100
AcDbHatch
10
0
20
0
30
0
210
0
220
0
230
1
2
SOLID
70
1
71
0
91
1
92
2
72
0
73
1
93
48
10
61.1
20
89.367
10
61.096
20
89.301
10
61.083
20
89.237
10
61.062
20
89.175
10
61.033
20
89.117
10
60.997
20
89.062
10
60.954
20
89.013
10
60.904
20
88.97
10
60.85
20
88.934
10
60.791
20
88.905
10
60.729
20
88.884
10
60.665
20
88.871
10
60.6
20
88.867
10
60.535
20
88.871
10
60.471
20
88.884
10
60.409
20
88.905
10
60.35
20
88.934
10
60.296
20
88.97
10
60.246
20
89.013
10
60.203
20
89.062
10
60.167
20
89.117
10
60.138
20
89.175
10
60.117
20
89.237
10
60.104
20
89.301
10
60.1
20
89.367
10
60.104
20
89.432
10
60.117
20
89.496
10
60.138
20
89.558
10
60.167
20
89.617
10
60.203
20
89.671
10
60.246
20
89.72
10
60.296
20
89.763
10
60.35
20
89.8
10
60.409
20
89.829
10
60.471
20
89.85
10
60.535
20
89.862
10
60.6
20
89.867
10
60.665
20
89.862
10
60.729
20
89.85
10
60.791
20
89.829
10
60.85
20
89.8
10
60.904
20
89.763
10
60.954
20
89.72
10
60.997
20
89.671
10
61.033
20
89.617
10
61.062
20
89.558
10
61.083
20
89.496
10
61.096
20
89.432
97
0
75
0
76
1
98
1
10
0
20
0
0
HATCH
5
118
100
AcDbEntity
8
RASTER
100
AcDbHatch
10
0
20
0
30
0
210
0
220
0
230
1
2
SOLID
70
1
71
0
91
1
92
2
72
0
73
1
93
48
10
87.9
20
89.367
10
87.896
20
89.301
10
87.883
20
89.237
10
87.862
20
89.175
10
87.833
20
89.117
10
87.797
20
89.062
10
87.754
20
89.013
10
87.704
20
88.97
10
87.65
20
88.934
10
87.591
20
88.905
10
87.529
20
88.884
10
87.465
20
88.871
10
87.4
20
88.867
10
87.335
20
88.871
10
87.271
20
88.884
10
87.209
20
88.905
10
87.15
20
88.934
10
87.096
20
88.97
10
87.046
20
89.013
10
87.003
20
89.062
10
86.967
20
89.117
10
86.938
20
89.175
10
86.917
20
89.237
10
86.904
20
89.301
10
86.9
20
89.367
10
86.904
20
89.432
10
86.917
20
89.496
10
86.938
20
89.558
10
86.967
20
89.617
10
87.003
20
89.671
10
87.046
20
89.72
10
87.096
20
89.763
10
87.15
20
89.8
10
87.209
20
89.829
10
87.271
20
89.85
10
87.335
20
89.862
10
87.4
20
89.867
10
87.465
20
89.862
10
87.529
20
89.85
10
87.591
20
89.829
10
87.65
20
89.8
10
87.704
20
89.763
10
87.754
20
89.72
10
87.797
20
89.671
10
87.833
20
89.617
10
87.862
20
89.558
10
87.883
20
89.496
10
87.896
20
89.432
97
0
75
0
76
1
98
1
10
0
20
0
0
LWPOLYLINE
5
119
100
AcDbEntity
8
CUT
100
AcDbPolyline
90
27
70
1
10
103
20
102
10
127
20
102
10
127
20
102
10
127
20
97
10
130
20
97
10
130
20
92
10
127
20
92
10
127
20
87
10
127
20
87
10
127
20
87
10
122.2
20
87
10
122.2
20
84
10
117.4
20
84
10
117.4
20
87
10
112.6
20
87
10
112.6
20
84
10
107.8
20
84
10
107.8
20
87
10
103
20
87
10
103
20
87
10
103
20
87
10
103
20
92
10
100
20
92
10
100
20
97
10
103
20
97
10
103
20
102
10
103
20
102
0
LWPOLYLINE
5
11A
100
AcDbEntity
8
CUT
100
AcDbPolyline
90
4
70
1
10
107
20
97.767
10
123
20
97.767
10
123
20
96.367
10
107
20
96.367
0
LWPOLYLINE
5
11B
100
AcDbEntity
8
CUT
100
AcDbPolyline
90
4
70
1
10
107
20
92.633
10
123
20
92.633
10
123
20
91.233
10
107
20
91.233
0
HATCH
5
11C
100
AcDbEntity
8
RASTER
100
AcDbHatch
10
0
20
0
30
0
210
0
220
0
230
1
2
SOLID
70
1
71
0
91
1
92
2
72
0
73
1
93
4
10
103.6
20
101.6
10
106.4
20
101.6
10
106.4
20
87.4
10
103.6
20
87.4
97
0
75
0
76
1
98
1
10
0
20
0
0
HATCH
5
11D
100
AcDbEntity
8
RASTER
100
AcDbHatch
10
0
20
0
30
0
210
0
220
0
230
1
2
SOLID
70
1
71
0
91
1
92
2
72
0
73
1
93
4
10
123.6
20
101.6
10
126.4
20
101.6
10
126.4
20
87.4
10
123.6
20
87.4
97
0
75
0
76
1
98
1
10
0
20
0
0
HATCH
5
11E
100
AcDbEntity
8
RASTER
100
AcDbHatch
10
0
20
0
30
0
210
0
220
0
230
1
2
SOLID
70
1
71
0
91
1
92
2
72
0
73
1
93
48
10
109.1
20
99.633
10
109.096
20
99.568
10
109.083
20
99.504
10
109.062
20
99.442
10
109.033
20
99.383
10
108.997
20
99.329
10
108.954
20
99.28
10
108.904
20
99.237
10
108.85
20
99.2
10
108.791
20
99.171
10
108.729
20
99.15
10
108.665
20
99.138
10
108.6
20
99.133
10
108.535
20
99.138
10
108.471
20
99.15
10
108.409
20
99.171
10
108.35
20
99.2
10
108.296
20
99.237
10
108.246
20
99.28
10
108.203
20
99.329
10
108.167
20
99.383
10
108.138
20
99.442
10
108.117
20
99.504
10
108.104
20
99.568
10
108.1
20
99.633
10
108.104
20
99.699
10
108.117
20
99.763
10
108.138
20
99.825
10
108.167
20
99.883
10
108.203
20
99.938
10
108.246
20
99.987
10
108.296
20
100.03
10
108.35
20
100.066
10
108.409
20
100.095
10
108.471
20
100.116
10
108.535
20
100.129
10
108.6
20
100.133
10
108.665
20
100.129
10
108.729
20
100.116
10
108.791
20
100.095
10
108.85
20
100.066
10
108.904
20
100.03
10
108.954
20
99.987
10
108.997
20
99.938
10
109.033
20
99.883
10
109.062
20
99.825
10
109.083
20
99.763
10
109.096
20
99.699
97
0
75
0
76
1
98
1
10
0
20
0
0
HATCH
5
11F
100
AcDbEntity
8
RASTER
100
AcDbHatch
10
0
20
0
30
0
210
0
220
0
230
1
2
SOLID
70
1
71
0
91
1
92
2
72
0
73
1
93
48
10
121.9
20
99.633
10
121.896
20
99.568
10
121.883
20
99.504
10
121.862
20
99.442
10
121.833
20
99.383
10
121.797
20
99.329
10
121.754
20
99.28
10
121.704
20
99.237
10
121.65
20
99.2
10
121.591
20
99.171
10
121.529
20
99.15
10
121.465
20
99.138
10
121.4
20
99.133
10
121.335
20
99.138
10
121.271
20
99.15
10
121.209
20
99.171
10
121.15
20
99.2
10
121.096
20
99.237
10
121.046
20
99.28
10
121.003
20
99.329
10
120.967
20
99.383
10
120.938
20
99.442
10
120.917
20
99.504
10
120.904
20
99.568
10
120.9
20
99.633
10
120.904
20
99.699
10
120.917
20
99.763
10
120.938
20
99.825
10
120.967
20
99.883
10
121.003
20
99.938
10
121.046
20
99.987
10
121.096
20
100.03
10
121.15
20
100.066
10
121.209
20
100.095
10
121.271
20
100.116
10
121.335
20
100.129
10
121.4
20
100.133
10
121.465
20
100.129
10
121.529
20
100.116
10
121.591
20
100.095
10
121.65
20
100.066
10
121.704
20
100.03
10
121.754
20
99.987
10
121.797
20
99.938
10
121.833
20
99.883
10
121.862
20
99.825
10
121.883
20
99.763
10
121.896
20
99.699
97
0
75
0
76
1
98
1
10
0
20
0
0
HATCH
5
120
100
AcDbEntity
8
RASTER
100
AcDbHatch
10
0
20
0
30
0
210
0
220
0
230
1
2
SOLID
70
1
71
0
91
1
92
2
72
0
73
1
93
48
10
109.1
20
94.5
10
109.096
20
94.435
10
109.083
20
94.371
10
109.062
20
94.309
10
109.033
20
94.25
10
108.997
20
94.196
10
108.954
20
94.146
10
108.904
20
94.103
10
108.85
20
94.067
10
108.791
20
94.038
10
108.729
20
94.017
10
108.665
20
94.004
10
108.6
20
94
10
108.535
20
94.004
10
108.471
20
94.017
10
108.409
20
94.038
10
108.35
20
94.067
10
108.296
20
94.103
10
108.246
20
94.146
10
108.203
20
94.196
10
108.167
20
94.25
10
108.138
20
94.309
10
108.117
20
94.371
10
108.104
20
94.435
10
108.1
20
94.5
10
108.104
20
94.565
10
108.117
20
94.629
10
108.138
20
94.691
10
108.167
20
94.75
10
108.203
20
94.804
10
108.246
20
94.854
10
108.296
20
94.897
10
108.35
20
94.933
10
108.409
20
94.962
10
108.471
20
94.983
10
108.535
20
94.996
10
108.6
20
95
10
108.665
20
94.996
10
108.729
20
94.983
10
108.791
20
94.962
10
108.85
20
94.933
10
108.904
20
94.897
10
108.954
20
94.854
10
108.997
20
94.804
10
109.033
20
94.75
10
109.062
20
94.691
10
109.083
20
94.629
10
109.096
20
94.565
97
0
75
0
76
1
98
1
10
0
20
0
0
HATCH
5
121
100
AcDbEntity
8
RASTER
100
AcDbHatch
10
0
20
0
30
0
210
0
220
0
230
1
2
SOLID
70
1
71
0
91
1
92
2
72
0
73
1
93
48
10
121.9
20
94.5
10
121.896
20
94.435
10
121.883
20
94.371
10
121.862
20
94.309
10
121.833
20
94.25
10
121.797
20
94.196
10
121.754
20
94.146
10
121.704
20
94.103
10
121.65
20
94.067
10
121.591
20
94.038
10
121.529
20
94.017
10
121.465
20
94.004
10
121.4
20
94
10
121.335
20
94.004
10
121.271
20
94.017
10
121.209
20
94.038
10
121.15
20
94.067
10
121.096
20
94.103
10
121.046
20
94.146
10
121.003
20
94.196
10
120.967
20
94.25
10
120.938
20
94.309
10
120.917
20
94.371
10
120.904
20
94.435
10
120.9
20
94.5
10
120.904
20
94.565
10
120.917
20
94.629
10
120.938
20
94.691
10
120.967
20
94.75
10
121.003
20
94.804
10
121.046
20
94.854
10
121.096
20
94.897
10
121.15
20
94.933
10
121.209
20
94.962
10
121.271
20
94.983
10
121.335
20
94.996
10
121.4
20
95
10
121.465
20
94.996
10
121.529
20
94.983
10
121.591
20
94.962
10
121.65
20
94.933
10
121.704
20
94.897
10
121.754
20
94.854
10
121.797
20
94.804
10
121.833
20
94.75
10
121.862
20
94.691
10
121.883
20
94.629
10
121.896
20
94.565
97
0
75
0
76
1
98
1
10
0
20
0
0
HATCH
5
122
100
AcDbEntity
8
RASTER
100
AcDbHatch
10
0
20
0
30
0
210
0
220
0
230
1
2
SOLID
70
1
71
0
91
1
92
2
72
0
73
1
93
48
10
109.1
20
89.367
10
109.096
20
89.301
10
109.083
20
89.237
10
109.062
20
89.175
10
109.033
20
89.117
10
108.997
20
89.062
10
108.954
20
89.013
10
108.904
20
88.97
10
108.85
20
88.934
10
108.791
20
88.905
10
108.729
20
88.884
10
108.665
20
88.871
10
108.6
20
88.867
10
108.535
20
88.871
10
108.471
20
88.884
10
108.409
20
88.905
10
108.35
20
88.934
10
108.296
20
88.97
10
108.246
20
89.013
10
108.203
20
89.062
10
108.167
20
89.117
10
108.138
20
89.175
10
108.117
20
89.237
10
108.104
20
89.301
10
108.1
20
89.367
10
108.104
20
89.432
10
108.117
20
89.496
10
108.138
20
89.558
10
108.167
20
89.617
10
108.203
20
89.671
10
108.246
20
89.72
10
108.296
20
89.763
10
108.35
20
89.8
10
108.409
20
89.829
10
108.471
20
89.85
10
108.535
20
89.862
10
108.6
20
89.867
10
108.665
20
89.862
10
108.729
20
89.85
10
108.791
20
89.829
10
108.85
20
89.8
10
108.904
20
89.763
10
108.954
20
89.72
10
108.997
20
89.671
10
109.033
20
89.617
10
109.062
20
89.558
10
109.083
20
89.496
10
109.096
20
89.432
97
0
75
0
76
1
98
1
10
0
20
0
0
HATCH
5
123
100
AcDbEntity
8
RASTER
100
AcDbHatch
10
0
20
0
30
0
210
0
220
0
230
1
2
SOLID
70
1
71
0
91
1
92
2
72
0
73
1
93
48
10
121.9
20
89.367
10
121.896
20
89.301
10
121.883
20
89.237
10
121.862
20
89.175
10
121.833
20
89.117
10
121.797
20
89.062
10
121.754
20
89.013
10
121.704
20
88.97
10
121.65
20
88.934
10
121.591
20
88.905
10
121.529
20
88.884
10
121.465
20
88.871
10
121.4
20
88.867
10
121.335
20
88.871
10
121.271
20
88.884
10
121.209
20
88.905
10
121.15
20
88.934
10
121.096
20
88.97
10
121.046
20
89.013
10
121.003
20
89.062
10
120.967
20
89.117
10
120.938
20
89.175
10
120.917
20
89.237
10
120.904
20
89.301
10
120.9
20
89.367
10
120.904
20
89.432
10
120.917
20
89.496
10
120.938
20
89.558
10
120.967
20
89.617
10
121.003
20
89.671
10
121.046
20
89.72
10
121.096
20
89.763
10
121.15
20
89.8
10
121.209
20
89.829
10
121.271
20
89.85
10
121.335
20
89.862
10
121.4
20
89.867
10
121.465
20
89.862
10
121.529
20
89.85
10
121.591
20
89.829
10
121.65
20
89.8
10
121.704
20
89.763
10
121.754
20
89.72
10
121.797
20
89.671
10
121.833
20
89.617
10
121.862
20
89.558
10
121.883
20
89.496
10
121.896
20
89.432
97
0
75
0
76
1
98
1
10
0
20
0
0
LWPOLYLINE
5
124
100
AcDbEntity
8
CUT
100
AcDbPolyline
90
27
70
1
10
137
20
102
10
161
20
102
10
161
20
102
10
161
20
97
10
164
20
97
10
164
20
92
10
161
20
92
10
161
20
87
10
161
20
87
10
161
20
87
10
156.2
20
87
10
156.2
20
84
10
151.4
20
84
10
151.4
20
87
10
146.6
20
87
10
146.6
20
84
10
141.8
20
84
10
141.8
20
87
10
137
20
87
10
137
20
87
10
137
20
87
10
137
20
92
10
134
20
92
10
134
20
97
10
137
20
97
10
137
20
102
10
137
20
102
0
LWPOLYLINE
5
125
100
AcDbEntity
8
CUT
100
AcDbPolyline
90
4
70
1
10
141
20
97.767
10
157
20
97.767
10
157
20
96.367
10
141
20
96.367
0
LWPOLYLINE
5
126
100
AcDbEntity
8
CUT
100
AcDbPolyline
90
4
70
1
10
141
20
92.633
10
157
20
92.633
10
157
20
91.233
10
141
20
91.233
0
HATCH
5
127
100
AcDbEntity
8
RASTER
100
AcDbHatch
10
0
20
0
30
0
210
0
220
0
230
1
2
SOLID
70
1
71
0
91
1
92
2
72
0
73
1
93
4
10
137.6
20
101.6
10
140.4
20
101.6
10
140.4
20
87.4
10
137.6
20
87.4
97
0
75
0
76
1
98
1
10
0
20
0
0
HATCH
5
128
100
AcDbEntity
8
RASTER
100
AcDbHatch
10
0
20
0
30
0
210
0
220
0
230
1
2
SOLID
70
1
71
0
91
1
92
2
72
0
73
1
93
4
10
157.6
20
101.6
10
160.4
20
101.6
10
160.4
20
87.4
10
157.6
20
87.4
97
0
75
0
76
1
98
1
10
0
20
0
0
HATCH
5
129
100
AcDbEntity
8
RASTER
100
AcDbHatch
10
0
20
0
30
0
210
0
220
0
230
1
2
SOLID
70
1
71
0
91
1
92
2
72
0
73
1
93
48
10
143.1
20
99.633
10
143.096
20
99.568
10
143.083
20
99.504
10
143.062
20
99.442
10
143.033
20
99.383
10
142.997
20
99.329
10
142.954
20
99.28
10
142.904
20
99.237
10
142.85
20
99.2
10
142.791
20
99.171
10
142.729
20
99.15
10
142.665
20
99.138
10
142.6
20
99.133
10
142.535
20
99.138
10
142.471
20
99.15
10
142.409
20
99.171
10
142.35
20
99.2
10
142.296
20
99.237
10
142.246
20
99.28
10
142.203
20
99.329
10
142.167
20
99.383
10
142.138
20
99.442
10
142.117
20
99.504
10
142.104
20
99.568
10
142.1
20
99.633
10
142.104
20
99.699
10
142.117
20
99.763
10
142.138
20
99.825
10
142.167
20
99.883
10
142.203
20
99.938
10
142.246
20
99.987
10
142.296
20
100.03
10
142.35
20
100.066
10
142.409
20
100.095
10
142.471
20
100.116
10
142.535
20
100.129
10
142.6
20
100.133
10
142.665
20
100.129
10
142.729
20
100.116
10
142.791
20
100.095
10
142.85
20
100.066
10
142.904
20
100.03
10
142.954
20
99.987
10
142.997
20
99.938
10
143.033
20
99.883
10
143.062
20
99.825
10
143.083
20
99.763
10
143.096
20
99.699
97
0
75
0
76
1
98
1
10
0
20
0
0
HATCH
5
12A
100
AcDbEntity
8
RASTER
100
AcDbHatch
10
0
20
0
30
0
210
0
220
0
230
1
2
SOLID
70
1
71
0
91
1
92
2
72
0
73
1
93
48
10
155.9
20
99.633
10
155.896
20
99.568
10
155.883
20
99.504
10
155.862
20
99.442
10
155.833
20
99.383
10
155.797
20
99.329
10
155.754
20
99.28
10
155.704
20
99.237
10
155.65
20
99.2
10
155.591
20
99.171
10
155.529
20
99.15
10
155.465
20
99.138
10
155.4
20
99.133
10
155.335
20
99.138
10
155.271
20
99.15
10
155.209
20
99.171
10
155.15
20
99.2
10
155.096
20
99.237
10
155.046
20
99.28
10
155.003
20
99.329
10
154.967
20
99.383
10
154.938
20
99.442
10
154.917
20
99.504
10
154.904
20
99.568
10
154.9
20
99.633
10
154.904
20
99.699
10
154.917
20
99.763
10
154.938
20
99.825
10
154.967
20
99.883
10
155.003
20
99.938
10
155.046
20
99.987
10
155.096
20
100.03
10
155.15
20
100.066
10
155.209
20
100.095
10
155.271
20
100.116
10
155.335
20
100.129
10
155.4
20
100.133
10
155.465
20
100.129
10
155.529
20
100.116
10
155.591
20
100.095
10
155.65
20
100.066
10
155.704
20
100.03
10
155.754
20
99.987
10
155.797
20
99.938
10
155.833
20
99.883
10
155.862
20
99.825
10
155.883
20
99.763
10
155.896
20
99.699
97
0
75
0
76
1
98
1
10
0
20
0
0
HATCH
5
12B
100
AcDbEntity
8
RASTER
100
AcDbHatch
10
0
20
0
30
0
210
0
220
0
230
1
2
SOLID
70
1
71
0
91
1
92
2
72
0
73
1
93
48
10
143.1
20
94.5
10
143.096
20
94.435
10
143.083
20
94.371
10
143.062
20
94.309
10
143.033
20
94.25
10
142.997
20
94.196
10
142.954
20
94.146
10
142.904
20
94.103
10
142.85
20
94.067
10
142.791
20
94.038
10
142.729
20
94.017
10
142.665
20
94.004
10
142.6
20
94
10
142.535
20
94.004
10
142.471
20
94.017
10
142.409
20
94.038
10
142.35
20
94.067
10
142.296
20
94.103
10
142.246
20
94.146
10
142.203
20
94.196
10
142.167
20
94.25
10
142.138
20
94.309
10
142.117
20
94.371
10
142.104
20
94.435
10
142.1
20
94.5
10
142.104
20
94.565
10
142.117
20
94.629
10
142.138
20
94.691
10
142.167
20
94.75
10
142.203
20
94.804
10
142.246
20
94.854
10
142.296
20
94.897
10
142.35
20
94.933
10
142.409
20
94.962
10
142.471
20
94.983
10
142.535
20
94.996
10
142.6
20
95
10
142.665
20
94.996
10
142.729
20
94.983
10
142.791
20
94.962
10
142.85
20
94.933
10
142.904
20
94.897
10
142.954
20
94.854
10
142.997
20
94.804
10
143.033
20
94.75
10
143.062
20
94.691
10
143.083
20
94.629
10
143.096
20
94.565
97
0
75
0
76
1
98
1
10
0
20
0
0
HATCH
5
12C
100
AcDbEntity
8
RASTER
100
AcDbHatch
10
0
20
0
30
0
210
0
220
0
230
1
2
SOLID
70
1
71
0
91
1
92
2
72
0
73
1
93
48
10
155.9
20
94.5
10
155.896
20
94.435
10
155.883
20
94.371
10
155.862
20
94.309
10
155.833
20
94.25
10
155.797
20
94.196
10
155.754
20
94.146
10
155.704
20
94.103
10
155.65
20
94.067
10
155.591
20
94.038
10
155.529
20
94.017
10
155.465
20
94.004
10
155.4
20
94
10
155.335
20
94.004
10
155.271
20
94.017
10
155.209
20
94.038
10
155.15
20
94.067
10
155.096
20
94.103
10
155.046
20
94.146
10
155.003
20
94.196
10
154.967
20
94.25
10
154.938
20
94.309
10
154.917
20
94.371
10
154.904
20
94.435
10
154.9
20
94.5
10
154.904
20
94.565
10
154.917
20
94.629
10
154.938
20
94.691
10
154.967
20
94.75
10
155.003
20
94.804
10
155.046
20
94.854
10
155.096
20
94.897
10
155.15
20
94.933
10
155.209
20
94.962
10
155.271
20
94.983
10
155.335
20
94.996
10
155.4
20
95
10
155.465
20
94.996
10
155.529
20
94.983
10
155.591
20
94.962
10
155.65
20
94.933
10
155.704
20
94.897
10
155.754
20
94.854
10
155.797
20
94.804
10
155.833
20
94.75
10
155.862
20
94.691
10
155.883
20
94.629
10
155.896
20
94.565
97
0
75
0
76
1
98
1
10
0
20
0
0
HATCH
5
12D
100
AcDbEntity
8
RASTER
100
AcDbHatch
10
0
20
0
30
0
210
0
220
0
230
1
2
SOLID
70
1
71
0
91
1
92
2
72
0
73
1
93
48
10
143.1
20
89.367
10
143.096
20
89.301
10
143.083
20
89.237
10
143.062
20
89.175
10
143.033
20
89.117
10
142.997
20
89.062
10
142.954
20
89.013
10
142.904
20
88.97
10
142.85
20
88.934
10
142.791
20
88.905
10
142.729
20
88.884
10
142.665
20
88.871
10
142.6
20
88.867
10
142.535
20
88.871
10
142.471
20
88.884
10
142.409
20
88.905
10
142.35
20
88.934
10
142.296
20
88.97
10
142.246
20
89.013
10
142.203
20
89.062
10
142.167
20
89.117
10
142.138
20
89.175
10
142.117
20
89.237
10
142.104
20
89.301
10
142.1
20
89.367
10
142.104
20
89.432
10
142.117
20
89.496
10
142.138
20
89.558
10
142.167
20
89.617
10
142.203
20
89.671
10
142.246
20
89.72
10
142.296
20
89.763
10
142.35
20
89.8
10
142.409
20
89.829
10
142.471
20
89.85
10
142.535
20
89.862
10
142.6
20
89.867
10
142.665
20
89.862
10
142.729
20
89.85
10
142.791
20
89.829
10
142.85
20
89.8
10
142.904
20
89.763
10
142.954
20
89.72
10
142.997
20
89.671
10
143.033
20
89.617
10
143.062
20
89.558
10
143.083
20
89.496
10
143.096
20
89.432
97
0
75
0
76
1
98
1
10
0
20
0
0
HATCH
5
12E
100
AcDbEntity
8
RASTER
100
AcDbHatch
10
0
20
0
30
0
210
0
220
0
230
1
2
SOLID
70
1
71
0
91
1
92
2
72
0
73
1
93
48
10
155.9
20
89.367
10
155.896
20
89.301
10
155.883
20
89.237
10
155.862
20
89.175
10
155.833
20
89.117
10
155.797
20
89.062
10
155.754
20
89.013
10
155.704
20
88.97
10
155.65
20
88.934
10
155.591
20
88.905
10
155.529
20
88.884
10
155.465
20
88.871
10
155.4
20
88.867
10
155.335
20
88.871
10
155.271
20
88.884
10
155.209
20
88.905
10
155.15
20
88.934
10
155.096
20
88.97
10
155.046
20
89.013
10
155.003
20
89.062
10
154.967
20
89.117
10
154.938
20
89.175
10
154.917
20
89.237
10
154.904
20
89.301
10
154.9
20
89.367
10
154.904
20
89.432
10
154.917
20
89.496
10
154.938
20
89.558
10
154.967
20
89.617
10
155.003
20
89.671
10
155.046
20
89.72
10
155.096
20
89.763
10
155.15
20
89.8
10
155.209
20
89.829
10
155.271
20
89.85
10
155.335
20
89.862
10
155.4
20
89.867
10
155.465
20
89.862
10
155.529
20
89.85
10
155.591
20
89.829
10
155.65
20
89.8
10
155.704
20
89.763
10
155.754
20
89.72
10
155.797
20
89.671
10
155.833
20
89.617
10
155.862
20
89.558
10
155.883
20
89.496
10
155.896
20
89.432
97
0
75
0
76
1
98
1
10
0
20
0
0
LWPOLYLINE
5
12F
100
AcDbEntity
8
CUT
100
AcDbPolyline
90
64
70
1
10
168
20
102
10
171
20
102
10
171
20
102
10
176.429
20
102
10
176.429
20
99
10
181.857
20
99
10
181.857
20
102
10
187.286
20
102
10
187.286
20
99
10
192.714
20
99
10
192.714
20
102
10
198.143
20
102
10
198.143
20
99
10
203.571
20
99
10
203.571
20
102
10
209
20
102
10
209
20
102
10
209
20
102
10
212
20
102
10
212
20
99
10
212
20
99
10
212
20
94.2
10
209
20
94.2
10
209
20
89.4
10
212
20
89.4
10
212
20
84.6
10
209
20
84.6
10
209
20
79.8
10
212
20
79.8
10
212
20
75
10
212
20
75
10
212
20
75
10
212
20
72
10
209
20
72
10
209
20
72
10
203.571
20
72
10
203.571
20
75
10
198.143
20
75
10
198.143
20
72
10
192.714
20
72
10
192.714
20
75
10
187.286
20
75
10
187.286
20
72
10
181.857
20
72
10
181.857
20
75
10
176.429
20
75
10
176.429
20
72
10
171
20
72
10
171
20
72
10
171
20
72
10
168
20
72
10
168
20
75
10
168
20
75
10
168
20
79.8
10
171
20
79.8
10
171
20
84.6
10
168
20
84.6
10
168
20
89.4
10
171
20
89.4
10
171
20
94.2
10
168
20
94.2
10
168
20
99
10
168
20
99
10
168
20
99
0
LWPOLYLINE
5
130
100
AcDbEntity
8
CUT
100
AcDbPolyline
90
31
70
1
10
219
20
102
10
257
20
102
10
260
20
102
10
260
20
97
10
257
20
97
10
257
20
92
10
260
20
92
10
260
20
87
10
257
20
87
10
257
20
87
10
251.571
20
87
10
251.571
20
84
10
246.143
20
84
10
246.143
20
87
10
240.714
20
87
10
240.714
20
84
10
235.286
20
84
10
235.286
20
87
10
229.857
20
87
10
229.857
20
84
10
224.429
20
84
10
224.429
20
87
10
219
20
87
10
219
20
87
10
216
20
87
10
216
20
92
10
219
20
92
10
219
20
97
10
216
20
97
10
216
20
102
10
219
20
102
0
LWPOLYLINE
5
131
100
AcDbEntity
8
CUT
100
AcDbPolyline
90
4
70
1
10
223
20
97.767
10
253
20
97.767
10
253
20
96.367
10
223
20
96.367
0
LWPOLYLINE
5
132
100
AcDbEntity
8
CUT
100
AcDbPolyline
90
4
70
1
10
223
20
92.633
10
253
20
92.633
10
253
20
91.233
10
223
20
91.233
0
HATCH
5
133
100
AcDbEntity
8
RASTER
100
AcDbHatch
10
0
20
0
30
0
210
0
220
0
230
1
2
SOLID
70
1
71
0
91
1
92
2
72
0
73
1
93
4
10
219.6
20
101.6
10
222.4
20
101.6
10
222.4
20
87.4
10
219.6
20
87.4
97
0
75
0
76
1
98
1
10
0
20
0
0
HATCH
5
134
100
AcDbEntity
8
RASTER
100
AcDbHatch
10
0
20
0
30
0
210
0
220
0
230
1
2
SOLID
70
1
71
0
91
1
92
2
72
0
73
1
93
4
10
253.6
20
101.6
10
256.4
20
101.6
10
256.4
20
87.4
10
253.6
20
87.4
97
0
75
0
76
1
98
1
10
0
20
0
0
HATCH
5
135
100
AcDbEntity
8
RASTER
100
AcDbHatch
10
0
20
0
30
0
210
0
220
0
230
1
2
SOLID
70
1
71
0
91
1
92
2
72
0
73
1
93
48
10
225.1
20
99.633
10
225.096
20
99.568
10
225.083
20
99.504
10
225.062
20
99.442
10
225.033
20
99.383
10
224.997
20
99.329
10
224.954
20
99.28
10
224.904
20
99.237
10
224.85
20
99.2
10
224.791
20
99.171
10
224.729
20
99.15
10
224.665
20
99.138
10
224.6
20
99.133
10
224.535
20
99.138
10
224.471
20
99.15
10
224.409
20
99.171
10
224.35
20
99.2
10
224.296
20
99.237
10
224.246
20
99.28
10
224.203
20
99.329
10
224.167
20
99.383
10
224.138
20
99.442
10
224.117
20
99.504
10
224.104
20
99.568
10
224.1
20
99.633
10
224.104
20
99.699
10
224.117
20
99.763
10
224.138
20
99.825
10
224.167
20
99.883
10
224.203
20
99.938
10
224.246
20
99.987
10
224.296
20
100.03
10
224.35
20
100.066
10
224.409
20
100.095
10
224.471
20
100.116
10
224.535
20
100.129
10
224.6
20
100.133
10
224.665
20
100.129
10
224.729
20
100.116
10
224.791
20
100.095
10
224.85
20
100.066
10
224.904
20
100.03
10
224.954
20
99.987
10
224.997
20
99.938
10
225.033
20
99.883
10
225.062
20
99.825
10
225.083
20
99.763
10
225.096
20
99.699
97
0
75
0
76
1
98
1
10
0
20
0
0
HATCH
5
136
100
AcDbEntity
8
RASTER
100
AcDbHatch
10
0
20
0
30
0
210
0
220
0
230
1
2
SOLID
70
1
71
0
91
1
92
2
72
0
73
1
93
48
10
251.9
20
99.633
10
251.896
20
99.568
10
251.883
20
99.504
10
251.862
20
99.442
10
251.833
20
99.383
10
251.797
20
99.329
10
251.754
20
99.28
10
251.704
20
99.237
10
251.65
20
99.2
10
251.591
20
99.171
10
251.529
20
99.15
10
251.465
20
99.138
10
251.4
20
99.133
10
251.335
20
99.138
10
251.271
20
99.15
10
251.209
20
99.171
10
251.15
20
99.2
10
251.096
20
99.237
10
251.046
20
99.28
10
251.003
20
99.329
10
250.967
20
99.383
10
250.938
20
99.442
10
250.917
20
99.504
10
250.904
20
99.568
10
250.9
20
99.633
10
250.904
20
99.699
10
250.917
20
99.763
10
250.938
20
99.825
10
250.967
20
99.883
10
251.003
20
99.938
10
251.046
20
99.987
10
251.096
20
100.03
10
251.15
20
100.066
10
251.209
20
100.095
10
251.271
20
100.116
10
251.335
20
100.129
10
251.4
20
100.133
10
251.465
20
100.129
10
251.529
20
100.116
10
251.591
20
100.095
10
251.65
20
100.066
10
251.704
20
100.03
10
251.754
20
99.987
10
251.797
20
99.938
10
251.833
20
99.883
10
251.862
20
99.825
10
251.883
20
99.763
10
251.896
20
99.699
97
0
75
0
76
1
98
1
10
0
20
0
0
HATCH
5
137
100
AcDbEntity
8
RASTER
100
AcDbHatch
10
0
20
0
30
0
210
0
220
0
230
1
2
SOLID
70
1
71
0
91
1
92
2
72
0
73
1
93
48
10
225.1
20
94.5
10
225.096
20
94.435
10
225.083
20
94.371
10
225.062
20
94.309
10
225.033
20
94.25
10
224.997
20
94.196
10
224.954
20
94.146
10
224.904
20
94.103
10
224.85
20
94.067
10
224.791
20
94.038
10
224.729
20
94.017
10
224.665
20
94.004
10
224.6
20
94
10
224.535
20
94.004
10
224.471
20
94.017
10
224.409
20
94.038
10
224.35
20
94.067
10
224.296
20
94.103
10
224.246
20
94.146
10
224.203
20
94.196
10
224.167
20
94.25
10
224.138
20
94.309
10
224.117
20
94.371
10
224.104
20
94.435
10
224.1
20
94.5
10
224.104
20
94.565
10
224.117
20
94.629
10
224.138
20
94.691
10
224.167
20
94.75
10
224.203
20
94.804
10
224.246
20
94.854
10
224.296
20
94.897
10
224.35
20
94.933
10
224.409
20
94.962
10
224.471
20
94.983
10
224.535
20
94.996
10
224.6
20
95
10
224.665
20
94.996
10
224.729
20
94.983
10
224.791
20
94.962
10
224.85
20
94.933
10
224.904
20
94.897
10
224.954
20
94.854
10
224.997
20
94.804
10
225.033
20
94.75
10
225.062
20
94.691
10
225.083
20
94.629
10
225.096
20
94.565
97
0
75
0
76
1
98
1
10
0
20
0
0
HATCH
5
138
100
AcDbEntity
8
RASTER
100
AcDbHatch
10
0
20
0
30
0
210
0
220
0
230
1
2
SOLID
70
1
71
0
91
1
92
2
72
0
73
1
93
48
10
251.9
20
94.5
10
251.896
20
94.435
10
251.883
20
94.371
10
251.862
20
94.309
10
251.833
20
94.25
10
251.797
20
94.196
10
251.754
20
94.146
10
251.704
20
94.103
10
251.65
20
94.067
10
251.591
20
94.038
10
251.529
20
94.017
10
251.465
20
94.004
10
251.4
20
94
10
251.335
20
94.004
10
251.271
20
94.017
10
251.209
20
94.038
10
251.15
20
94.067
10
251.096
20
94.103
10
251.046
20
94.146
10
251.003
20
94.196
10
250.967
20
94.25
10
250.938
20
94.309
10
250.917
20
94.371
10
250.904
20
94.435
10
250.9
20
94.5
10
250.904
20
94.565
10
250.917
20
94.629
10
250.938
20
94.691
10
250.967
20
94.75
10
251.003
20
94.804
10
251.046
20
94.854
10
251.096
20
94.897
10
251.15
20
94.933
10
251.209
20
94.962
10
251.271
20
94.983
10
251.335
20
94.996
10
251.4
20
95
10
251.465
20
94.996
10
251.529
20
94.983
10
251.591
20
94.962
10
251.65
20
94.933
10
251.704
20
94.897
10
251.754
20
94.854
10
251.797
20
94.804
10
251.833
20
94.75
10
251.862
20
94.691
10
251.883
20
94.629
10
251.896
20
94.565
97
0
75
0
76
1
98
1
10
0
20
0
0
HATCH
5
139
100
AcDbEntity
8
RASTER
100
AcDbHatch
10
0
20
0
30
0
210
0
220
0
230
1
2
SOLID
70
1
71
0
91
1
92
2
72
0
73
1
93
48
10
225.1
20
89.367
10
225.096
20
89.301
10
225.083
20
89.237
10
225.062
20
89.175
10
225.033
20
89.117
10
224.997
20
89.062
10
224.954
20
89.013
10
224.904
20
88.97
10
224.85
20
88.934
10
224.791
20
88.905
10
224.729
20
88.884
10
224.665
20
88.871
10
224.6
20
88.867
10
224.535
20
88.871
10
224.471
20
88.884
10
224.409
20
88.905
10
224.35
20
88.934
10
224.296
20
88.97
10
224.246
20
89.013
10
224.203
20
89.062
10
224.167
20
89.117
10
224.138
20
89.175
10
224.117
20
89.237
10
224.104
20
89.301
10
224.1
20
89.367
10
224.104
20
89.432
10
224.117
20
89.496
10
224.138
20
89.558
10
224.167
20
89.617
10
224.203
20
89.671
10
224.246
20
89.72
10
224.296
20
89.763
10
224.35
20
89.8
10
224.409
20
89.829
10
224.471
20
89.85
10
224.535
20
89.862
10
224.6
20
89.867
10
224.665
20
89.862
10
224.729
20
89.85
10
224.791
20
89.829
10
224.85
20
89.8
10
224.904
20
89.763
10
224.954
20
89.72
10
224.997
20
89.671
10
225.033
20
89.617
10
225.062
20
89.558
10
225.083
20
89.496
10
225.096
20
89.432
97
0
75
0
76
1
98
1
10
0
20
0
0
HATCH
5
13A
100
AcDbEntity
8
RASTER
100
AcDbHatch
10
0
20
0
30
0
210
0
220
0
230
1
2
SOLID
70
1
71
0
91
1
92
2
72
0
73
1
93
48
10
251.9
20
89.367
10
251.896
20
89.301
10
251.883
20
89.237
10
251.862
20
89.175
10
251.833
20
89.117
10
251.797
20
89.062
10
251.754
20
89.013
10
251.704
20
88.97
10
251.65
20
88.934
10
251.591
20
88.905
10
251.529
20
88.884
10
251.465
20
88.871
10
251.4
20
88.867
10
251.335
20
88.871
10
251.271
20
88.884
10
251.209
20
88.905
10
251.15
20
88.934
10
251.096
20
88.97
10
251.046
20
89.013
10
251.003
20
89.062
10
250.967
20
89.117
10
250.938
20
89.175
10
250.917
20
89.237
10
250.904
20
89.301
10
250.9
20
89.367
10
250.904
20
89.432
10
250.917
20
89.496
10
250.938
20
89.558
10
250.967
20
89.617
10
251.003
20
89.671
10
251.046
20
89.72
10
251.096
20
89.763
10
251.15
20
89.8
10
251.209
20
89.829
10
251.271
20
89.85
10
251.335
20
89.862
10
251.4
20
89.867
10
251.465
20
89.862
10
251.529
20
89.85
10
251.591
20
89.829
10
251.65
20
89.8
10
251.704
20
89.763
10
251.754
20
89.72
10
251.797
20
89.671
10
251.833
20
89.617
10
251.862
20
89.558
10
251.883
20
89.496
10
251.896
20
89.432
97
0
75
0
76
1
98
1
10
0
20
0
0
LWPOLYLINE
5
13B
100
AcDbEntity
8
CUT
100
AcDbPolyline
90
31
70
1
10
7
20
68
10
45
20
68
10
48
20
68
10
48
20
63
10
45
20
63
10
45
20
58
10
48
20
58
10
48
20
53
10
45
20
53
10
45
20
53
10
39.571
20
53
10
39.571
20
50
10
34.143
20
50
10
34.143
20
53
10
28.714
20
53
10
28.714
20
50
10
23.286
20
50
10
23.286
20
53
10
17.857
20
53
10
17.857
20
50
10
12.429
20
50
10
12.429
20
53
10
7
20
53
10
7
20
53
10
4
20
53
10
4
20
58
10
7
20
58
10
7
20
63
10
4
20
63
10
4
20
68
10
7
20
68
0
LWPOLYLINE
5
13C
100
AcDbEntity
8
CUT
100
AcDbPolyline
90
4
70
1
10
11
20
63.767
10
41
20
63.767
10
41
20
62.367
10
11
20
62.367
0
LWPOLYLINE
5
13D
100
AcDbEntity
8
CUT
100
AcDbPolyline
90
4
70
1
10
11
20
58.633
10
41
20
58.633
10
41
20
57.233
10
11
20
57.233
0
HATCH
5
13E
100
AcDbEntity
8
RASTER
100
AcDbHatch
10
0
20
0
30
0
210
0
220
0
230
1
2
SOLID
70
1
71
0
91
1
92
2
72
0
73
1
93
4
10
7.6
20
67.6
10
10.4
20
67.6
10
10.4
20
53.4
10
7.6
20
53.4
97
0
75
0
76
1
98
1
10
0
20
0
0
HATCH
5
13F
100
AcDbEntity
8
RASTER
100
AcDbHatch
10
0
20
0
30
0
210
0
220
0
230
1
2
SOLID
70
1
71
0
91
1
92
2
72
0
73
1
93
4
10
41.6
20
67.6
10
44.4
20
67.6
10
44.4
20
53.4
10
41.6
20
53.4
97
0
75
0
76
1
98
1
10
0
20
0
0
HATCH
5
140
100
AcDbEntity
8
RASTER
100
AcDbHatch
10
0
20
0
30
0
210
0
220
0
230
1
2
SOLID
70
1
71
0
91
1
92
2
72
0
73
1
93
48
10
13.1
20
65.633
10
13.096
20
65.568
10
13.083
20
65.504
10
13.062
20
65.442
10
13.033
20
65.383
10
12.997
20
65.329
10
12.954
20
65.28
10
12.904
20
65.237
10
12.85
20
65.2
10
12.791
20
65.171
10
12.729
20
65.15
10
12.665
20
65.138
10
12.6
20
65.133
10
12.535
20
65.138
10
12.471
20
65.15
10
12.409
20
65.171
10
12.35
20
65.2
10
12.296
20
65.237
10
12.246
20
65.28
10
12.203
20
65.329
10
12.167
20
65.383
10
12.138
20
65.442
10
12.117
20
65.504
10
12.104
20
65.568
10
12.1
20
65.633
10
12.104
20
65.699
10
12.117
20
65.763
10
12.138
20
65.825
10
12.167
20
65.883
10
12.203
20
65.938
10
12.246
20
65.987
10
12.296
20
66.03
10
12.35
20
66.066
10
12.409
20
66.095
10
12.471
20
66.116
10
12.535
20
66.129
10
12.6
20
66.133
10
12.665
20
66.129
10
12.729
20
66.116
10
12.791
20
66.095
10
12.85
20
66.066
10
12.904
20
66.03
10
12.954
20
65.987
10
12.997
20
65.938
10
13.033
20
65.883
10
13.062
20
65.825
10
13.083
20
65.763
10
13.096
20
65.699
97
0
75
0
76
1
98
1
10
0
20
0
0
HATCH
5
141
100
AcDbEntity
8
RASTER
100
AcDbHatch
10
0
20
0
30
0
210
0
220
0
230
1
2
SOLID
70
1
71
0
91
1
92
2
72
0
73
1
93
48
10
39.9
20
65.633
10
39.896
20
65.568
10
39.883
20
65.504
10
39.862
20
65.442
10
39.833
20
65.383
10
39.797
20
65.329
10
39.754
20
65.28
10
39.704
20
65.237
10
39.65
20
65.2
10
39.591
20
65.171
10
39.529
20
65.15
10
39.465
20
65.138
10
39.4
20
65.133
10
39.335
20
65.138
10
39.271
20
65.15
10
39.209
20
65.171
10
39.15
20
65.2
10
39.096
20
65.237
10
39.046
20
65.28
10
39.003
20
65.329
10
38.967
20
65.383
10
38.938
20
65.442
10
38.917
20
65.504
10
38.904
20
65.568
10
38.9
20
65.633
10
38.904
20
65.699
10
38.917
20
65.763
10
38.938
20
65.825
10
38.967
20
65.883
10
39.003
20
65.938
10
39.046
20
65.987
10
39.096
20
66.03
10
39.15
20
66.066
10
39.209
20
66.095
10
39.271
20
66.116
10
39.335
20
66.129
10
39.4
20
66.133
10
39.465
20
66.129
10
39.529
20
66.116
10
39.591
20
66.095
10
39.65
20
66.066
10
39.704
20
66.03
10
39.754
20
65.987
10
39.797
20
65.938
10
39.833
20
65.883
10
39.862
20
65.825
10
39.883
20
65.763
10
39.896
20
65.699
97
0
75
0
76
1
98
1
10
0
20
0
0
HATCH
5
142
100
AcDbEntity
8
RASTER
100
AcDbHatch
10
0
20
0
30
0
210
0
220
0
230
1
2
SOLID
70
1
71
0
91
1
92
2
72
0
73
1
93
48
10
13.1
20
60.5
10
13.096
20
60.435
10
13.083
20
60.371
10
13.062
20
60.309
10
13.033
20
60.25
10
12.997
20
60.196
10
12.954
20
60.146
10
12.904
20
60.103
10
12.85
20
60.067
10
12.791
20
60.038
10
12.729
20
60.017
10
12.665
20
60.004
10
12.6
20
60
10
12.535
20
60.004
10
12.471
20
60.017
10
12.409
20
60.038
10
12.35
20
60.067
10
12.296
20
60.103
10
12.246
20
60.146
10
12.203
20
60.196
10
12.167
20
60.25
10
12.138
20
60.309
10
12.117
20
60.371
10
12.104
20
60.435
10
12.1
20
60.5
10
12.104
20
60.565
10
12.117
20
60.629
10
12.138
20
60.691
10
12.167
20
60.75
10
12.203
20
60.804
10
12.246
20
60.854
10
12.296
20
60.897
10
12.35
20
60.933
10
12.409
20
60.962
10
12.471
20
60.983
10
12.535
20
60.996
10
12.6
20
61
10
12.665
20
60.996
10
12.729
20
60.983
10
12.791
20
60.962
10
12.85
20
60.933
10
12.904
20
60.897
10
12.954
20
60.854
10
12.997
20
60.804
10
13.033
20
60.75
10
13.062
20
60.691
10
13.083
20
60.629
10
13.096
20
60.565
97
0
75
0
76
1
98
1
10
0
20
0
0
HATCH
5
143
100
AcDbEntity
8
RASTER
100
AcDbHatch
10
0
20
0
30
0
210
0
220
0
230
1
2
SOLID
70
1
71
0
91
1
92
2
72
0
73
1
93
48
10
39.9
20
60.5
10
39.896
20
60.435
10
39.883
20
60.371
10
39.862
20
60.309
10
39.833
20
60.25
10
39.797
20
60.196
10
39.754
20
60.146
10
39.704
20
60.103
10
39.65
20
60.067
10
39.591
20
60.038
10
39.529
20
60.017
10
39.465
20
60.004
10
39.4
20
60
10
39.335
20
60.004
10
39.271
20
60.017
10
39.209
20
60.038
10
39.15
20
60.067
10
39.096
20
60.103
10
39.046
20
60.146
10
39.003
20
60.196
10
38.967
20
60.25
10
38.938
20
60.309
10
38.917
20
60.371
10
38.904
20
60.435
10
38.9
20
60.5
10
38.904
20
60.565
10
38.917
20
60.629
10
38.938
20
60.691
10
38.967
20
60.75
10
39.003
20
60.804
10
39.046
20
60.854
10
39.096
20
60.897
10
39.15
20
60.933
10
39.209
20
60.962
10
39.271
20
60.983
10
39.335
20
60.996
10
39.4
20
61
10
39.465
20
60.996
10
39.529
20
60.983
10
39.591
20
60.962
10
39.65
20
60.933
10
39.704
20
60.897
10
39.754
20
60.854
10
39.797
20
60.804
10
39.833
20
60.75
10
39.862
20
60.691
10
39.883
20
60.629
10
39.896
20
60.565
97
0
75
0
76
1
98
1
10
0
20
0
0
HATCH
5
144
100
AcDbEntity
8
RASTER
100
AcDbHatch
10
0
20
0
30
0
210
0
220
0
230
1
2
SOLID
70
1
71
0
91
1
92
2
72
0
73
1
93
48
10
13.1
20
55.367
10
13.096
20
55.301
10
13.083
20
55.237
10
13.062
20
55.175
10
13.033
20
55.117
10
12.997
20
55.062
10
12.954
20
55.013
10
12.904
20
54.97
10
12.85
20
54.934
10
12.791
20
54.905
10
12.729
20
54.884
10
12.665
20
54.871
10
12.6
20
54.867
10
12.535
20
54.871
10
12.471
20
54.884
10
12.409
20
54.905
10
12.35
20
54.934
10
12.296
20
54.97
10
12.246
20
55.013
10
12.203
20
55.062
10
12.167
20
55.117
10
12.138
20
55.175
10
12.117
20
55.237
10
12.104
20
55.301
10
12.1
20
55.367
10
12.104
20
55.432
10
12.117
20
55.496
10
12.138
20
55.558
10
12.167
20
55.617
10
12.203
20
55.671
10
12.246
20
55.72
10
12.296
20
55.763
10
12.35
20
55.8
10
12.409
20
55.829
10
12.471
20
55.85
10
12.535
20
55.862
10
12.6
20
55.867
10
12.665
20
55.862
10
12.729
20
55.85
10
12.791
20
55.829
10
12.85
20
55.8
10
12.904
20
55.763
10
12.954
20
55.72
10
12.997
20
55.671
10
13.033
20
55.617
10
13.062
20
55.558
10
13.083
20
55.496
10
13.096
20
55.432
97
0
75
0
76
1
98
1
10
0
20
0
0
HATCH
5
145
100
AcDbEntity
8
RASTER
100
AcDbHatch
10
0
20
0
30
0
210
0
220
0
230
1
2
SOLID
70
1
71
0
91
1
92
2
72
0
73
1
93
48
10
39.9
20
55.367
10
39.896
20
55.301
10
39.883
20
55.237
10
39.862
20
55.175
10
39.833
20
55.117
10
39.797
20
55.062
10
39.754
20
55.013
10
39.704
20
54.97
10
39.65
20
54.934
10
39.591
20
54.905
10
39.529
20
54.884
10
39.465
20
54.871
10
39.4
20
54.867
10
39.335
20
54.871
10
39.271
20
54.884
10
39.209
20
54.905
10
39.15
20
54.934
10
39.096
20
54.97
10
39.046
20
55.013
10
39.003
20
55.062
10
38.967
20
55.117
10
38.938
20
55.175
10
38.917
20
55.237
10
38.904
20
55.301
10
38.9
20
55.367
10
38.904
20
55.432
10
38.917
20
55.496
10
38.938
20
55.558
10
38.967
20
55.617
10
39.003
20
55.671
10
39.046
20
55.72
10
39.096
20
55.763
10
39.15
20
55.8
10
39.209
20
55.829
10
39.271
20
55.85
10
39.335
20
55.862
10
39.4
20
55.867
10
39.465
20
55.862
10
39.529
20
55.85
10
39.591
20
55.829
10
39.65
20
55.8
10
39.704
20
55.763
10
39.754
20
55.72
10
39.797
20
55.671
10
39.833
20
55.617
10
39.862
20
55.558
10
39.883
20
55.496
10
39.896
20
55.432
97
0
75
0
76
1
98
1
10
0
20
0
0
LWPOLYLINE
5
146
100
AcDbEntity
8
CUT
100
AcDbPolyline
90
27
70
1
10
55
20
68
10
79
20
68
10
79
20
68
10
79
20
63
10
82
20
63
10
82
20
58
10
79
20
58
10
79
20
53
10
79
20
53
10
79
20
53
10
74.2
20
53
10
74.2
20
50
10
69.4
20
50
10
69.4
20
53
10
64.6
20
53
10
64.6
20
50
10
59.8
20
50
10
59.8
20
53
10
55
20
53
10
55
20
53
10
55
20
53
10
55
20
58
10
52
20
58
10
52
20
63
10
55
20
63
10
55
20
68
10
55
20
68
0
LWPOLYLINE
5
147
100
AcDbEntity
8
CUT
100
AcDbPolyline
90
4
70
1
10
59
20
63.767
10
75
20
63.767
10
75
20
62.367
10
59
20
62.367
0
LWPOLYLINE
5
148
100
AcDbEntity
8
CUT
100
AcDbPolyline
90
4
70
1
10
59
20
58.633
10
75
20
58.633
10
75
20
57.233
10
59
20
57.233
0
HATCH
5
149
100
AcDbEntity
8
RASTER
100
AcDbHatch
10
0
20
0
30
0
210
0
220
0
230
1
2
SOLID
70
1
71
0
91
1
92
2
72
0
73
1
93
4
10
55.6
20
67.6
10
58.4
20
67.6
10
58.4
20
53.4
10
55.6
20
53.4
97
0
75
0
76
1
98
1
10
0
20
0
0
HATCH
5
14A
100
AcDbEntity
8
RASTER
100
AcDbHatch
10
0
20
0
30
0
210
0
220
0
230
1
2
SOLID
70
1
71
0
91
1
92
2
72
0
73
1
93
4
10
75.6
20
67.6
10
78.4
20
67.6
10
78.4
20
53.4
10
75.6
20
53.4
97
0
75
0
76
1
98
1
10
0
20
0
0
HATCH
5
14B
100
AcDbEntity
8
RASTER
100
AcDbHatch
10
0
20
0
30
0
210
0
220
0
230
1
2
SOLID
70
1
71
0
91
1
92
2
72
0
73
1
93
48
10
61.1
20
65.633
10
61.096
20
65.568
10
61.083
20
65.504
10
61.062
20
65.442
10
61.033
20
65.383
10
60.997
20
65.329
10
60.954
20
65.28
10
60.904
20
65.237
10
60.85
20
65.2
10
60.791
20
65.171
10
60.729
20
65.15
10
60.665
20
65.138
10
60.6
20
65.133
10
60.535
20
65.138
10
60.471
20
65.15
10
60.409
20
65.171
10
60.35
20
65.2
10
60.296
20
65.237
10
60.246
20
65.28
10
60.203
20
65.329
10
60.167
20
65.383
10
60.138
20
65.442
10
60.117
20
65.504
10
60.104
20
65.568
10
60.1
20
65.633
10
60.104
20
65.699
10
60.117
20
65.763
10
60.138
20
65.825
10
60.167
20
65.883
10
60.203
20
65.938
10
60.246
20
65.987
10
60.296
20
66.03
10
60.35
20
66.066
10
60.409
20
66.095
10
60.471
20
66.116
10
60.535
20
66.129
10
60.6
20
66.133
10
60.665
20
66.129
10
60.729
20
66.116
10
60.791
20
66.095
10
60.85
20
66.066
10
60.904
20
66.03
10
60.954
20
65.987
10
60.997
20
65.938
10
61.033
20
65.883
10
61.062
20
65.825
10
61.083
20
65.763
10
61.096
20
65.699
97
0
75
0
76
1
98
1
10
0
20
0
0
HATCH
5
14C
100
AcDbEntity
8
RASTER
100
AcDbHatch
10
0
20
0
30
0
210
0
220
0
230
1
2
SOLID
70
1
71
0
91
1
92
2
72
0
73
1
93
48
10
73.9
20
65.633
10
73.896
20
65.568
10
73.883
20
65.504
10
73.862
20
65.442
10
73.833
20
65.383
10
73.797
20
65.329
10
73.754
20
65.28
10
73.704
20
65.237
10
73.65
20
65.2
10
73.591
20
65.171
10
73.529
20
65.15
10
73.465
20
65.138
10
73.4
20
65.133
10
73.335
20
65.138
10
73.271
20
65.15
10
73.209
20
65.171
10
73.15
20
65.2
10
73.096
20
65.237
10
73.046
20
65.28
10
73.003
20
65.329
10
72.967
20
65.383
10
72.938
20
65.442
10
72.917
20
65.504
10
72.904
20
65.568
10
72.9
20
65.633
10
72.904
20
65.699
10
72.917
20
65.763
10
72.938
20
65.825
10
72.967
20
65.883
10
73.003
20
65.938
10
73.046
20
65.987
10
73.096
20
66.03
10
73.15
20
66.066
10
73.209
20
66.095
10
73.271
20
66.116
10
73.335
20
66.129
10
73.4
20
66.133
10
73.465
20
66.129
10
73.529
20
66.116
10
73.591
20
66.095
10
73.65
20
66.066
10
73.704
20
66.03
10
73.754
20
65.987
10
73.797
20
65.938
10
73.833
20
65.883
10
73.862
20
65.825
10
73.883
20
65.763
10
73.896
20
65.699
97
0
75
0
76
1
98
1
10
0
20
0
0
HATCH
5
14D
100
AcDbEntity
8
RASTER
100
AcDbHatch
10
0
20
0
30
0
210
0
220
0
230
1
2
SOLID
70
1
71
0
91
1
92
2
72
0
73
1
93
48
10
61.1
20
60.5
10
61.096
20
60.435
10
61.083
20
60.371
10
61.062
20
60.309
10
61.033
20
60.25
10
60.997
20
60.196
10
60.954
20
60.146
10
60.904
20
60.103
10
60.85
20
60.067
10
60.791
20
60.038
10
60.729
20
60.017
10
60.665
20
60.004
10
60.6
20
60
10
60.535
20
60.004
10
60.471
20
60.017
10
60.409
20
60.038
10
60.35
20
60.067
10
60.296
20
60.103
10
60.246
20
60.146
10
60.203
20
60.196
10
60.167
20
60.25
10
60.138
20
60.309
10
60.117
20
60.371
10
60.104
20
60.435
10
60.1
20
60.5
10
60.104
20
60.565
10
60.117
20
60.629
10
60.138
20
60.691
10
60.167
20
60.75
10
60.203
20
60.804
10
60.246
20
60.854
10
60.296
20
60.897
10
60.35
20
60.933
10
60.409
20
60.962
10
60.471
20
60.983
10
60.535
20
60.996
10
60.6
20
61
10
60.665
20
60.996
10
60.729
20
60.983
10
60.791
20
60.962
10
60.85
20
60.933
10
60.904
20
60.897
10
60.954
20
60.854
10
60.997
20
60.804
10
61.033
20
60.75
10
61.062
20
60.691
10
61.083
20
60.629
10
61.096
20
60.565
97
0
75
0
76
1
98
1
10
0
20
0
0
HATCH
5
14E
100
AcDbEntity
8
RASTER
100
AcDbHatch
10
0
20
0
30
0
210
0
220
0
230
1
2
SOLID
70
1
71
0
91
1
92
2
72
0
73
1
93
48
10
73.9
20
60.5
10
73.896
20
60.435
10
73.883
20
60.371
10
73.862
20
60.309
10
73.833
20
60.25
10
73.797
20
60.196
10
73.754
20
60.146
10
73.704
20
60.103
10
73.65
20
60.067
10
73.591
20
60.038
10
73.529
20
60.017
10
73.465
20
60.004
10
73.4
20
60
10
73.335
20
60.004
10
73.271
20
60.017
10
73.209
20
60.038
10
73.15
20
60.067
10
73.096
20
60.103
10
73.046
20
60.146
10
73.003
20
60.196
10
72.967
20
60.25
10
72.938
20
60.309
10
72.917
20
60.371
10
72.904
20
60.435
10
72.9
20
60.5
10
72.904
20
60.565
10
72.917
20
60.629
10
72.938
20
60.691
10
72.967
20
60.75
10
73.003
20
60.804
10
73.046
20
60.854
10
73.096
20
60.897
10
73.15
20
60.933
10
73.209
20
60.962
10
73.271
20
60.983
10
73.335
20
60.996
10
73.4
20
61
10
73.465
20
60.996
10
73.529
20
60.983
10
73.591
20
60.962
10
73.65
20
60.933
10
73.704
20
60.897
10
73.754
20
60.854
10
73.797
20
60.804
10
73.833
20
60.75
10
73.862
20
60.691
10
73.883
20
60.629
10
73.896
20
60.565
97
0
75
0
76
1
98
1
10
0
20
0
0
HATCH
5
14F
100
AcDbEntity
8
RASTER
100
AcDbHatch
10
0
20
0
30
0
210
0
220
0
230
1
2
SOLID
70
1
71
0
91
1
92
2
72
0
73
1
93
48
10
61.1
20
55.367
10
61.096
20
55.301
10
61.083
20
55.237
10
61.062
20
55.175
10
61.033
20
55.117
10
60.997
20
55.062
10
60.954
20
55.013
10
60.904
20
54.97
10
60.85
20
54.934
10
60.791
20
54.905
10
60.729
20
54.884
10
60.665
20
54.871
10
60.6
20
54.867
10
60.535
20
54.871
10
60.471
20
54.884
10
60.409
20
54.905
10
60.35
20
54.934
10
60.296
20
54.97
10
60.246
20
55.013
10
60.203
20
55.062
10
60.167
20
55.117
10
60.138
20
55.175
10
60.117
20
55.237
10
60.104
20
55.301
10
60.1
20
55.367
10
60.104
20
55.432
10
60.117
20
55.496
10
60.138
20
55.558
10
60.167
20
55.617
10
60.203
20
55.671
10
60.246
20
55.72
10
60.296
20
55.763
10
60.35
20
55.8
10
60.409
20
55.829
10
60.471
20
55.85
10
60.535
20
55.862
10
60.6
20
55.867
10
60.665
20
55.862
10
60.729
20
55.85
10
60.791
20
55.829
10
60.85
20
55.8
10
60.904
20
55.763
10
60.954
20
55.72
10
60.997
20
55.671
10
61.033
20
55.617
10
61.062
20
55.558
10
61.083
20
55.496
10
61.096
20
55.432
97
0
75
0
76
1
98
1
10
0
20
0
0
HATCH
5
150
100
AcDbEntity
8
RASTER
100
AcDbHatch
10
0
20
0
30
0
210
0
220
0
230
1
2
SOLID
70
1
71
0
91
1
92
2
72
0
73
1
93
48
10
73.9
20
55.367
10
73.896
20
55.301
10
73.883
20
55.237
10
73.862
20
55.175
10
73.833
20
55.117
10
73.797
20
55.062
10
73.754
20
55.013
10
73.704
20
54.97
10
73.65
20
54.934
10
73.591
20
54.905
10
73.529
20
54.884
10
73.465
20
54.871
10
73.4
20
54.867
10
73.335
20
54.871
10
73.271
20
54.884
10
73.209
20
54.905
10
73.15
20
54.934
10
73.096
20
54.97
10
73.046
20
55.013
10
73.003
20
55.062
10
72.967
20
55.117
10
72.938
20
55.175
10
72.917
20
55.237
10
72.904
20
55.301
10
72.9
20
55.367
10
72.904
20
55.432
10
72.917
20
55.496
10
72.938
20
55.558
10
72.967
20
55.617
10
73.003
20
55.671
10
73.046
20
55.72
10
73.096
20
55.763
10
73.15
20
55.8
10
73.209
20
55.829
10
73.271
20
55.85
10
73.335
20
55.862
10
73.4
20
55.867
10
73.465
20
55.862
10
73.529
20
55.85
10
73.591
20
55.829
10
73.65
20
55.8
10
73.704
20
55.763
10
73.754
20
55.72
10
73.797
20
55.671
10
73.833
20
55.617
10
73.862
20
55.558
10
73.883
20
55.496
10
73.896
20
55.432
97
0
75
0
76
1
98
1
10
0
20
0
0
LWPOLYLINE
5
151
100
AcDbEntity
8
CUT
100
AcDbPolyline
90
27
70
1
10
89
20
68
10
113
20
68
10
113
20
68
10
113
20
63
10
116
20
63
10
116
20
58
10
113
20
58
10
113
20
53
10
113
20
53
10
113
20
53
10
108.2
20
53
10
108.2
20
50
10
103.4
20
50
10
103.4
20
53
10
98.6
20
53
10
98.6
20
50
10
93.8
20
50
10
93.8
20
53
10
89
20
53
10
89
20
53
10
89
20
53
10
89
20
58
10
86
20
58
10
86
20
63
10
89
20
63
10
89
20
68
10
89
20
68
0
LWPOLYLINE
5
152
100
AcDbEntity
8
CUT
100
AcDbPolyline
90
4
70
1
10
93
20
63.767
10
109
20
63.767
10
109
20
62.367
10
93
20
62.367
0
LWPOLYLINE
5
153
100
AcDbEntity
8
CUT
100
AcDbPolyline
90
4
70
1
10
93
20
58.633
10
109
20
58.633
10
109
20
57.233
10
93
20
57.233
0
HATCH
5
154
100
AcDbEntity
8
RASTER
100
AcDbHatch
10
0
20
0
30
0
210
0
220
0
230
1
2
SOLID
70
1
71
0
91
1
92
2
72
0
73
1
93
4
10
89.6
20
67.6
10
92.4
20
67.6
10
92.4
20
53.4
10
89.6
20
53.4
97
0
75
0
76
1
98
1
10
0
20
0
0
HATCH
5
155
100
AcDbEntity
8
RASTER
100
AcDbHatch
10
0
20
0
30
0
210
0
220
0
230
1
2
SOLID
70
1
71
0
91
1
92
2
72
0
73
1
93
4
10
109.6
20
67.6
10
112.4
20
67.6
10
112.4
20
53.4
10
109.6
20
53.4
97
0
75
0
76
1
98
1
10
0
20
0
0
HATCH
5
156
100
AcDbEntity
8
RASTER
100
AcDbHatch
10
0
20
0
30
0
210
0
220
0
230
1
2
SOLID
70
1
71
0
91
1
92
2
72
0
73
1
93
48
10
95.1
20
65.633
10
95.096
20
65.568
10
95.083
20
65.504
10
95.062
20
65.442
10
95.033
20
65.383
10
94.997
20
65.329
10
94.954
20
65.28
10
94.904
20
65.237
10
94.85
20
65.2
10
94.791
20
65.171
10
94.729
20
65.15
10
94.665
20
65.138
10
94.6
20
65.133
10
94.535
20
65.138
10
94.471
20
65.15
10
94.409
20
65.171
10
94.35
20
65.2
10
94.296
20
65.237
10
94.246
20
65.28
10
94.203
20
65.329
10
94.167
20
65.383
10
94.138
20
65.442
10
94.117
20
65.504
10
94.104
20
65.568
10
94.1
20
65.633
10
94.104
20
65.699
10
94.117
20
65.763
10
94.138
20
65.825
10
94.167
20
65.883
10
94.203
20
65.938
10
94.246
20
65.987
10
94.296
20
66.03
10
94.35
20
66.066
10
94.409
20
66.095
10
94.471
20
66.116
10
94.535
20
66.129
10
94.6
20
66.133
10
94.665
20
66.129
10
94.729
20
66.116
10
94.791
20
66.095
10
94.85
20
66.066
10
94.904
20
66.03
10
94.954
20
65.987
10
94.997
20
65.938
10
95.033
20
65.883
10
95.062
20
65.825
10
95.083
20
65.763
10
95.096
20
65.699
97
0
75
0
76
1
98
1
10
0
20
0
0
HATCH
5
157
100
AcDbEntity
8
RASTER
100
AcDbHatch
10
0
20
0
30
0
210
0
220
0
230
1
2
SOLID
70
1
71
0
91
1
92
2
72
0
73
1
93
48
10
107.9
20
65.633
10
107.896
20
65.568
10
107.883
20
65.504
10
107.862
20
65.442
10
107.833
20
65.383
10
107.797
20
65.329
10
107.754
20
65.28
10
107.704
20
65.237
10
107.65
20
65.2
10
107.591
20
65.171
10
107.529
20
65.15
10
107.465
20
65.138
10
107.4
20
65.133
10
107.335
20
65.138
10
107.271
20
65.15
10
107.209
20
65.171
10
107.15
20
65.2
10
107.096
20
65.237
10
107.046
20
65.28
10
107.003
20
65.329
10
106.967
20
65.383
10
106.938
20
65.442
10
106.917
20
65.504
10
106.904
20
65.568
10
106.9
20
65.633
10
106.904
20
65.699
10
106.917
20
65.763
10
106.938
20
65.825
10
106.967
20
65.883
10
107.003
20
65.938
10
107.046
20
65.987
10
107.096
20
66.03
10
107.15
20
66.066
10
107.209
20
66.095
10
107.271
20
66.116
10
107.335
20
66.129
10
107.4
20
66.133
10
107.465
20
66.129
10
107.529
20
66.116
10
107.591
20
66.095
10
107.65
20
66.066
10
107.704
20
66.03
10
107.754
20
65.987
10
107.797
20
65.938
10
107.833
20
65.883
10
107.862
20
65.825
10
107.883
20
65.763
10
107.896
20
65.699
97
0
75
0
76
1
98
1
10
0
20
0
0
HATCH
5
158
100
AcDbEntity
8
RASTER
100
AcDbHatch
10
0
20
0
30
0
210
0
220
0
230
1
2
SOLID
70
1
71
0
91
1
92
2
72
0
73
1
93
48
10
95.1
20
60.5
10
95.096
20
60.435
10
95.083
20
60.371
10
95.062
20
60.309
10
95.033
20
60.25
10
94.997
20
60.196
10
94.954
20
60.146
10
94.904
20
60.103
10
94.85
20
60.067
10
94.791
20
60.038
10
94.729
20
60.017
10
94.665
20
60.004
10
94.6
20
60
10
94.535
20
60.004
10
94.471
20
60.017
10
94.409
20
60.038
10
94.35
20
60.067
10
94.296
20
60.103
10
94.246
20
60.146
10
94.203
20
60.196
10
94.167
20
60.25
10
94.138
20
60.309
10
94.117
20
60.371
10
94.104
20
60.435
10
94.1
20
60.5
10
94.104
20
60.565
10
94.117
20
60.629
10
94.138
20
60.691
10
94.167
20
60.75
10
94.203
20
60.804
10
94.246
20
60.854
10
94.296
20
60.897
10
94.35
20
60.933
10
94.409
20
60.962
10
94.471
20
60.983
10
94.535
20
60.996
10
94.6
20
61
10
94.665
20
60.996
10
94.729
20
60.983
10
94.791
20
60.962
10
94.85
20
60.933
10
94.904
20
60.897
10
94.954
20
60.854
10
94.997
20
60.804
10
95.033
20
60.75
10
95.062
20
60.691
10
95.083
20
60.629
10
95.096
20
60.565
97
0
75
0
76
1
98
1
10
0
20
0
0
HATCH
5
159
100
AcDbEntity
8
RASTER
100
AcDbHatch
10
0
20
0
30
0
210
0
220
0
230
1
2
SOLID
70
1
71
0
91
1
92
2
72
0
73
1
93
48
10
107.9
20
60.5
10
107.896
20
60.435
10
107.883
20
60.371
10
107.862
20
60.309
10
107.833
20
60.25
10
107.797
20
60.196
10
107.754
20
60.146
10
107.704
20
60.103
10
107.65
20
60.067
10
107.591
20
60.038
10
107.529
20
60.017
10
107.465
20
60.004
10
107.4
20
60
10
107.335
20
60.004
10
107.271
20
60.017
10
107.209
20
60.038
10
107.15
20
60.067
10
107.096
20
60.103
10
107.046
20
60.146
10
107.003
20
60.196
10
106.967
20
60.25
10
106.938
20
60.309
10
106.917
20
60.371
10
106.904
20
60.435
10
106.9
20
60.5
10
106.904
20
60.565
10
106.917
20
60.629
10
106.938
20
60.691
10
106.967
20
60.75
10
107.003
20
60.804
10
107.046
20
60.854
10
107.096
20
60.897
10
107.15
20
60.933
10
107.209
20
60.962
10
107.271
20
60.983
10
107.335
20
60.996
10
107.4
20
61
10
107.465
20
60.996
10
107.529
20
60.983
10
107.591
20
60.962
10
107.65
20
60.933
10
107.704
20
60.897
10
107.754
20
60.854
10
107.797
20
60.804
10
107.833
20
60.75
10
107.862
20
60.691
10
107.883
20
60.629
10
107.896
20
60.565
97
0
75
0
76
1
98
1
10
0
20
0
0
HATCH
5
15A
100
AcDbEntity
8
RASTER
100
AcDbHatch
10
0
20
0
30
0
210
0
220
0
230
1
2
SOLID
70
1
71
0
91
1
92
2
72
0
73
1
93
48
10
95.1
20
55.367
10
95.096
20
55.301
10
95.083
20
55.237
10
95.062
20
55.175
10
95.033
20
55.117
10
94.997
20
55.062
10
94.954
20
55.013
10
94.904
20
54.97
10
94.85
20
54.934
10
94.791
20
54.905
10
94.729
20
54.884
10
94.665
20
54.871
10
94.6
20
54.867
10
94.535
20
54.871
10
94.471
20
54.884
10
94.409
20
54.905
10
94.35
20
54.934
10
94.296
20
54.97
10
94.246
20
55.013
10
94.203
20
55.062
10
94.167
20
55.117
10
94.138
20
55.175
10
94.117
20
55.237
10
94.104
20
55.301
10
94.1
20
55.367
10
94.104
20
55.432
10
94.117
20
55.496
10
94.138
20
55.558
10
94.167
20
55.617
10
94.203
20
55.671
10
94.246
20
55.72
10
94.296
20
55.763
10
94.35
20
55.8
10
94.409
20
55.829
10
94.471
20
55.85
10
94.535
20
55.862
10
94.6
20
55.867
10
94.665
20
55.862
10
94.729
20
55.85
10
94.791
20
55.829
10
94.85
20
55.8
10
94.904
20
55.763
10
94.954
20
55.72
10
94.997
20
55.671
10
95.033
20
55.617
10
95.062
20
55.558
10
95.083
20
55.496
10
95.096
20
55.432
97
0
75
0
76
1
98
1
10
0
20
0
0
HATCH
5
15B
100
AcDbEntity
8
RASTER
100
AcDbHatch
10
0
20
0
30
0
210
0
220
0
230
1
2
SOLID
70
1
71
0
91
1
92
2
72
0
73
1
93
48
10
107.9
20
55.367
10
107.896
20
55.301
10
107.883
20
55.237
10
107.862
20
55.175
10
107.833
20
55.117
10
107.797
20
55.062
10
107.754
20
55.013
10
107.704
20
54.97
10
107.65
20
54.934
10
107.591
20
54.905
10
107.529
20
54.884
10
107.465
20
54.871
10
107.4
20
54.867
10
107.335
20
54.871
10
107.271
20
54.884
10
107.209
20
54.905
10
107.15
20
54.934
10
107.096
20
54.97
10
107.046
20
55.013
10
107.003
20
55.062
10
106.967
20
55.117
10
106.938
20
55.175
10
106.917
20
55.237
10
106.904
20
55.301
10
106.9
20
55.367
10
106.904
20
55.432
10
106.917
20
55.496
10
106.938
20
55.558
10
106.967
20
55.617
10
107.003
20
55.671
10
107.046
20
55.72
10
107.096
20
55.763
10
107.15
20
55.8
10
107.209
20
55.829
10
107.271
20
55.85
10
107.335
20
55.862
10
107.4
20
55.867
10
107.465
20
55.862
10
107.529
20
55.85
10
107.591
20
55.829
10
107.65
20
55.8
10
107.704
20
55.763
10
107.754
20
55.72
10
107.797
20
55.671
10
107.833
20
55.617
10
107.862
20
55.558
10
107.883
20
55.496
10
107.896
20
55.432
97
0
75
0
76
1
98
1
10
0
20
0
0
LWPOLYLINE
5
15C
100
AcDbEntity
8
CUT
100
AcDbPolyline
90
64
70
1
10
120
20
68
10
123
20
68
10
123
20
68
10
128.429
20
68
10
128.429
20
65
10
133.857
20
65
10
133.857
20
68
10
139.286
20
68
10
139.286
20
65
10
144.714
20
65
10
144.714
20
68
10
150.143
20
68
10
150.143
20
65
10
155.571
20
65
10
155.571
20
68
10
161
20
68
10
161
20
68
10
161
20
68
10
164
20
68
10
164
20
65
10
164
20
65
10
164
20
60.2
10
161
20
60.2
10
161
20
55.4
10
164
20
55.4
10
164
20
50.6
10
161
20
50.6
10
161
20
45.8
10
164
20
45.8
10
164
20
41
10
164
20
41
10
164
20
41
10
164
20
38
10
161
20
38
10
161
20
38
10
155.571
20
38
10
155.571
20
41
10
150.143
20
41
10
150.143
20
38
10
144.714
20
38
10
144.714
20
41
10
139.286
20
41
10
139.286
20
38
10
133.857
20
38
10
133.857
20
41
10
128.429
20
41
10
128.429
20
38
10
123
20
38
10
123
20
38
10
123
20
38
10
120
20
38
10
120
20
41
10
120
20
41
10
120
20
45.8
10
123
20
45.8
10
123
20
50.6
10
120
20
50.6
10
120
20
55.4
10
123
20
55.4
10
123
20
60.2
10
120
20
60.2
10
120
20
65
10
120
20
65
10
120
20
65
0
LWPOLYLINE
5
15D
100
AcDbEntity
8
CUT
100
AcDbPolyline
90
31
70
1
10
171
20
68
10
209
20
68
10
212
20
68
10
212
20
63
10
209
20
63
10
209
20
58
10
212
20
58
10
212
20
53
10
209
20
53
10
209
20
53
10
203.571
20
53
10
203.571
20
50
10
198.143
20
50
10
198.143
20
53
10
192.714
20
53
10
192.714
20
50
10
187.286
20
50
10
187.286
20
53
10
181.857
20
53
10
181.857
20
50
10
176.429
20
50
10
176.429
20
53
10
171
20
53
10
171
20
53
10
168
20
53
10
168
20
58
10
171
20
58
10
171
20
63
10
168
20
63
10
168
20
68
10
171
20
68
0
LWPOLYLINE
5
15E
100
AcDbEntity
8
CUT
100
AcDbPolyline
90
4
70
1
10
175
20
63.767
10
205
20
63.767
10
205
20
62.367
10
175
20
62.367
0
LWPOLYLINE
5
15F
100
AcDbEntity
8
CUT
100
AcDbPolyline
90
4
70
1
10
175
20
58.633
10
205
20
58.633
10
205
20
57.233
10
175
20
57.233
0
HATCH
5
160
100
AcDbEntity
8
RASTER
100
AcDbHatch
10
0
20
0
30
0
210
0
220
0
230
1
2
SOLID
70
1
71
0
91
1
92
2
72
0
73
1
93
4
10
171.6
20
67.6
10
174.4
20
67.6
10
174.4
20
53.4
10
171.6
20
53.4
97
0
75
0
76
1
98
1
10
0
20
0
0
HATCH
5
161
100
AcDbEntity
8
RASTER
100
AcDbHatch
10
0
20
0
30
0
210
0
220
0
230
1
2
SOLID
70
1
71
0
91
1
92
2
72
0
73
1
93
4
10
205.6
20
67.6
10
208.4
20
67.6
10
208.4
20
53.4
10
205.6
20
53.4
97
0
75
0
76
1
98
1
10
0
20
0
0
HATCH
5
162
100
AcDbEntity
8
RASTER
100
AcDbHatch
10
0
20
0
30
0
210
0
220
0
230
1
2
SOLID
70
1
71
0
91
1
92
2
72
0
73
1
93
48
10
177.1
20
65.633
10
177.096
20
65.568
10
177.083
20
65.504
10
177.062
20
65.442
10
177.033
20
65.383
10
176.997
20
65.329
10
176.954
20
65.28
10
176.904
20
65.237
10
176.85
20
65.2
10
176.791
20
65.171
10
176.729
20
65.15
10
176.665
20
65.138
10
176.6
20
65.133
10
176.535
20
65.138
10
176.471
20
65.15
10
176.409
20
65.171
10
176.35
20
65.2
10
176.296
20
65.237
10
176.246
20
65.28
10
176.203
20
65.329
10
176.167
20
65.383
10
176.138
20
65.442
10
176.117
20
65.504
10
176.104
20
65.568
10
176.1
20
65.633
10
176.104
20
65.699
10
176.117
20
65.763
10
176.138
20
65.825
10
176.167
20
65.883
10
176.203
20
65.938
10
176.246
20
65.987
10
176.296
20
66.03
10
176.35
20
66.066
10
176.409
20
66.095
10
176.471
20
66.116
10
176.535
20
66.129
10
176.6
20
66.133
10
176.665
20
66.129
10
176.729
20
66.116
10
176.791
20
66.095
10
176.85
20
66.066
10
176.904
20
66.03
10
176.954
20
65.987
10
176.997
20
65.938
10
177.033
20
65.883
10
177.062
20
65.825
10
177.083
20
65.763
10
177.096
20
65.699
97
0
75
0
76
1
98
1
10
0
20
0
0
HATCH
5
163
100
AcDbEntity
8
RASTER
100
AcDbHatch
10
0
20
0
30
0
210
0
220
0
230
1
2
SOLID
70
1
71
0
91
1
92
2
72
0
73
1
93
48
10
203.9
20
65.633
10
203.896
20
65.568
10
203.883
20
65.504
10
203.862
20
65.442
10
203.833
20
65.383
10
203.797
20
65.329
10
203.754
20
65.28
10
203.704
20
65.237
10
203.65
20
65.2
10
203.591
20
65.171
10
203.529
20
65.15
10
203.465
20
65.138
10
203.4
20
65.133
10
203.335
20
65.138
10
203.271
20
65.15
10
203.209
20
65.171
10
203.15
20
65.2
10
203.096
20
65.237
10
203.046
20
65.28
10
203.003
20
65.329
10
202.967
20
65.383
10
202.938
20
65.442
10
202.917
20
65.504
10
202.904
20
65.568
10
202.9
20
65.633
10
202.904
20
65.699
10
202.917
20
65.763
10
202.938
20
65.825
10
202.967
20
65.883
10
203.003
20
65.938
10
203.046
20
65.987
10
203.096
20
66.03
10
203.15
20
66.066
10
203.209
20
66.095
10
203.271
20
66.116
10
203.335
20
66.129
10
203.4
20
66.133
10
203.465
20
66.129
10
203.529
20
66.116
10
203.591
20
66.095
10
203.65
20
66.066
10
203.704
20
66.03
10
203.754
20
65.987
10
203.797
20
65.938
10
203.833
20
65.883
10
203.862
20
65.825
10
203.883
20
65.763
10
203.896
20
65.699
97
0
75
0
76
1
98
1
10
0
20
0
0
HATCH
5
164
100
AcDbEntity
8
RASTER
100
AcDbHatch
10
0
20
0
30
0
210
0
220
0
230
1
2
SOLID
70
1
71
0
91
1
92
2
72
0
73
1
93
48
10
177.1
20
60.5
10
177.096
20
60.435
10
177.083
20
60.371
10
177.062
20
60.309
10
177.033
20
60.25
10
176.997
20
60.196
10
176.954
20
60.146
10
176.904
20
60.103
10
176.85
20
60.067
10
176.791
20
60.038
10
176.729
20
60.017
10
176.665
20
60.004
10
176.6
20
60
10
176.535
20
60.004
10
176.471
20
60.017
10
176.409
20
60.038
10
176.35
20
60.067
10
176.296
20
60.103
10
176.246
20
60.146
10
176.203
20
60.196
10
176.167
20
60.25
10
176.138
20
60.309
10
176.117
20
60.371
10
176.104
20
60.435
10
176.1
20
60.5
10
176.104
20
60.565
10
176.117
20
60.629
10
176.138
20
60.691
10
176.167
20
60.75
10
176.203
20
60.804
10
176.246
20
60.854
10
176.296
20
60.897
10
176.35
20
60.933
10
176.409
20
60.962
10
176.471
20
60.983
10
176.535
20
60.996
10
176.6
20
61
10
176.665
20
60.996
10
176.729
20
60.983
10
176.791
20
60.962
10
176.85
20
60.933
10
176.904
20
60.897
10
176.954
20
60.854
10
176.997
20
60.804
10
177.033
20
60.75
10
177.062
20
60.691
10
177.083
20
60.629
10
177.096
20
60.565
97
0
75
0
76
1
98
1
10
0
20
0
0
HATCH
5
165
100
AcDbEntity
8
RASTER
100
AcDbHatch
10
0
20
0
30
0
210
0
220
0
230
1
2
SOLID
70
1
71
0
91
1
92
2
72
0
73
1
93
48
10
203.9
20
60.5
10
203.896
20
60.435
10
203.883
20
60.371
10
203.862
20
60.309
10
203.833
20
60.25
10
203.797
20
60.196
10
203.754
20
60.146
10
203.704
20
60.103
10
203.65
20
60.067
10
203.591
20
60.038
10
203.529
20
60.017
10
203.465
20
60.004
10
203.4
20
60
10
203.335
20
60.004
10
203.271
20
60.017
10
203.209
20
60.038
10
203.15
20
60.067
10
203.096
20
60.103
10
203.046
20
60.146
10
203.003
20
60.196
10
202.967
20
60.25
10
202.938
20
60.309
10
202.917
20
60.371
10
202.904
20
60.435
10
202.9
20
60.5
10
202.904
20
60.565
10
202.917
20
60.629
10
202.938
20
60.691
10
202.967
20
60.75
10
203.003
20
60.804
10
203.046
20
60.854
10
203.096
20
60.897
10
203.15
20
60.933
10
203.209
20
60.962
10
203.271
20
60.983
10
203.335
20
60.996
10
203.4
20
61
10
203.465
20
60.996
10
203.529
20
60.983
10
203.591
20
60.962
10
203.65
20
60.933
10
203.704
20
60.897
10
203.754
20
60.854
10
203.797
20
60.804
10
203.833
20
60.75
10
203.862
20
60.691
10
203.883
20
60.629
10
203.896
20
60.565
97
0
75
0
76
1
98
1
10
0
20
0
0
HATCH
5
166
100
AcDbEntity
8
RASTER
100
AcDbHatch
10
0
20
0
30
0
210
0
220
0
230
1
2
SOLID
70
1
71
0
91
1
92
2
72
0
73
1
93
48
10
177.1
20
55.367
10
177.096
20
55.301
10
177.083
20
55.237
10
177.062
20
55.175
10
177.033
20
55.117
10
176.997
20
55.062
10
176.954
20
55.013
10
176.904
20
54.97
10
176.85
20
54.934
10
176.791
20
54.905
10
176.729
20
54.884
10
176.665
20
54.871
10
176.6
20
54.867
10
176.535
20
54.871
10
176.471
20
54.884
10
176.409
20
54.905
10
176.35
20
54.934
10
176.296
20
54.97
10
176.246
20
55.013
10
176.203
20
55.062
10
176.167
20
55.117
10
176.138
20
55.175
10
176.117
20
55.237
10
176.104
20
55.301
10
176.1
20
55.367
10
176.104
20
55.432
10
176.117
20
55.496
10
176.138
20
55.558
10
176.167
20
55.617
10
176.203
20
55.671
10
176.246
20
55.72
10
176.296
20
55.763
10
176.35
20
55.8
10
176.409
20
55.829
10
176.471
20
55.85
10
176.535
20
55.862
10
176.6
20
55.867
10
176.665
20
55.862
10
176.729
20
55.85
10
176.791
20
55.829
10
176.85
20
55.8
10
176.904
20
55.763
10
176.954
20
55.72
10
176.997
20
55.671
10
177.033
20
55.617
10
177.062
20
55.558
10
177.083
20
55.496
10
177.096
20
55.432
97
0
75
0
76
1
98
1
10
0
20
0
0
HATCH
5
167
100
AcDbEntity
8
RASTER
100
AcDbHatch
10
0
20
0
30
0
210
0
220
0
230
1
2
SOLID
70
1
71
0
91
1
92
2
72
0
73
1
93
48
10
203.9
20
55.367
10
203.896
20
55.301
10
203.883
20
55.237
10
203.862
20
55.175
10
203.833
20
55.117
10
203.797
20
55.062
10
203.754
20
55.013
10
203.704
20
54.97
10
203.65
20
54.934
10
203.591
20
54.905
10
203.529
20
54.884
10
203.465
20
54.871
10
203.4
20
54.867
10
203.335
20
54.871
10
203.271
20
54.884
10
203.209
20
54.905
10
203.15
20
54.934
10
203.096
20
54.97
10
203.046
20
55.013
10
203.003
20
55.062
10
202.967
20
55.117
10
202.938
20
55.175
10
202.917
20
55.237
10
202.904
20
55.301
10
202.9
20
55.367
10
202.904
20
55.432
10
202.917
20
55.496
10
202.938
20
55.558
10
202.967
20
55.617
10
203.003
20
55.671
10
203.046
20
55.72
10
203.096
20
55.763
10
203.15
20
55.8
10
203.209
20
55.829
10
203.271
20
55.85
10
203.335
20
55.862
10
203.4
20
55.867
10
203.465
20
55.862
10
203.529
20
55.85
10
203.591
20
55.829
10
203.65
20
55.8
10
203.704
20
55.763
10
203.754
20
55.72
10
203.797
20
55.671
10
203.833
20
55.617
10
203.862
20
55.558
10
203.883
20
55.496
10
203.896
20
55.432
97
0
75
0
76
1
98
1
10
0
20
0
0
LWPOLYLINE
5
168
100
AcDbEntity
8
CUT
100
AcDbPolyline
90
31
70
1
10
219
20
68
10
257
20
68
10
260
20
68
10
260
20
63
10
257
20
63
10
257
20
58
10
260
20
58
10
260
20
53
10
257
20
53
10
257
20
53
10
251.571
20
53
10
251.571
20
50
10
246.143
20
50
10
246.143
20
53
10
240.714
20
53
10
240.714
20
50
10
235.286
20
50
10
235.286
20
53
10
229.857
20
53
10
229.857
20
50
10
224.429
20
50
10
224.429
20
53
10
219
20
53
10
219
20
53
10
216
20
53
10
216
20
58
10
219
20
58
10
219
20
63
10
216
20
63
10
216
20
68
10
219
20
68
0
LWPOLYLINE
5
169
100
AcDbEntity
8
CUT
100
AcDbPolyline
90
4
70
1
10
223
20
63.767
10
253
20
63.767
10
253
20
62.367
10
223
20
62.367
0
LWPOLYLINE
5
16A
100
AcDbEntity
8
CUT
100
AcDbPolyline
90
4
70
1
10
223
20
58.633
10
253
20
58.633
10
253
20
57.233
10
223
20
57.233
0
HATCH
5
16B
100
AcDbEntity
8
RASTER
100
AcDbHatch
10
0
20
0
30
0
210
0
220
0
230
1
2
SOLID
70
1
71
0
91
1
92
2
72
0
73
1
93
4
10
219.6
20
67.6
10
222.4
20
67.6
10
222.4
20
53.4
10
219.6
20
53.4
97
0
75
0
76
1
98
1
10
0
20
0
0
HATCH
5
16C
100
AcDbEntity
8
RASTER
100
AcDbHatch
10
0
20
0
30
0
210
0
220
0
230
1
2
SOLID
70
1
71
0
91
1
92
2
72
0
73
1
93
4
10
253.6
20
67.6
10
256.4
20
67.6
10
256.4
20
53.4
10
253.6
20
53.4
97
0
75
0
76
1
98
1
10
0
20
0
0
HATCH
5
16D
100
AcDbEntity
8
RASTER
100
AcDbHatch
10
0
20
0
30
0
210
0
220
0
230
1
2
SOLID
70
1
71
0
91
1
92
2
72
0
73
1
93
48
10
225.1
20
65.633
10
225.096
20
65.568
10
225.083
20
65.504
10
225.062
20
65.442
10
225.033
20
65.383
10
224.997
20
65.329
10
224.954
20
65.28
10
224.904
20
65.237
10
224.85
20
65.2
10
224.791
20
65.171
10
224.729
20
65.15
10
224.665
20
65.138
10
224.6
20
65.133
10
224.535
20
65.138
10
224.471
20
65.15
10
224.409
20
65.171
10
224.35
20
65.2
10
224.296
20
65.237
10
224.246
20
65.28
10
224.203
20
65.329
10
224.167
20
65.383
10
224.138
20
65.442
10
224.117
20
65.504
10
224.104
20
65.568
10
224.1
20
65.633
10
224.104
20
65.699
10
224.117
20
65.763
10
224.138
20
65.825
10
224.167
20
65.883
10
224.203
20
65.938
10
224.246
20
65.987
10
224.296
20
66.03
10
224.35
20
66.066
10
224.409
20
66.095
10
224.471
20
66.116
10
224.535
20
66.129
10
224.6
20
66.133
10
224.665
20
66.129
10
224.729
20
66.116
10
224.791
20
66.095
10
224.85
20
66.066
10
224.904
20
66.03
10
224.954
20
65.987
10
224.997
20
65.938
10
225.033
20
65.883
10
225.062
20
65.825
10
225.083
20
65.763
10
225.096
20
65.699
97
0
75
0
76
1
98
1
10
0
20
0
0
HATCH
5
16E
100
AcDbEntity
8
RASTER
100
AcDbHatch
10
0
20
0
30
0
210
0
220
0
230
1
2
SOLID
70
1
71
0
91
1
92
2
72
0
73
1
93
48
10
251.9
20
65.633
10
251.896
20
65.568
10
251.883
20
65.504
10
251.862
20
65.442
10
251.833
20
65.383
10
251.797
20
65.329
10
251.754
20
65.28
10
251.704
20
65.237
10
251.65
20
65.2
10
251.591
20
65.171
10
251.529
20
65.15
10
251.465
20
65.138
10
251.4
20
65.133
10
251.335
20
65.138
10
251.271
20
65.15
10
251.209
20
65.171
10
251.15
20
65.2
10
251.096
20
65.237
10
251.046
20
65.28
10
251.003
20
65.329
10
250.967
20
65.383
10
250.938
20
65.442
10
250.917
20
65.504
10
250.904
20
65.568
10
250.9
20
65.633
10
250.904
20
65.699
10
250.917
20
65.763
10
250.938
20
65.825
10
250.967
20
65.883
10
251.003
20
65.938
10
251.046
20
65.987
10
251.096
20
66.03
10
251.15
20
66.066
10
251.209
20
66.095
10
251.271
20
66.116
10
251.335
20
66.129
10
251.4
20
66.133
10
251.465
20
66.129
10
251.529
20
66.116
10
251.591
20
66.095
10
251.65
20
66.066
10
251.704
20
66.03
10
251.754
20
65.987
10
251.797
20
65.938
10
251.833
20
65.883
10
251.862
20
65.825
10
251.883
20
65.763
10
251.896
20
65.699
97
0
75
0
76
1
98
1
10
0
20
0
0
HATCH
5
16F
100
AcDbEntity
8
RASTER
100
AcDbHatch
10
0
20
0
30
0
210
0
220
0
230
1
2
SOLID
70
1
71
0
91
1
92
2
72
0
73
1
93
48
10
225.1
20
60.5
10
225.096
20
60.435
10
225.083
20
60.371
10
225.062
20
60.309
10
225.033
20
60.25
10
224.997
20
60.196
10
224.954
20
60.146
10
224.904
20
60.103
10
224.85
20
60.067
10
224.791
20
60.038
10
224.729
20
60.017
10
224.665
20
60.004
10
224.6
20
60
10
224.535
20
60.004
10
224.471
20
60.017
10
224.409
20
60.038
10
224.35
20
60.067
10
224.296
20
60.103
10
224.246
20
60.146
10
224.203
20
60.196
10
224.167
20
60.25
10
224.138
20
60.309
10
224.117
20
60.371
10
224.104
20
60.435
10
224.1
20
60.5
10
224.104
20
60.565
10
224.117
20
60.629
10
224.138
20
60.691
10
224.167
20
60.75
10
224.203
20
60.804
10
224.246
20
60.854
10
224.296
20
60.897
10
224.35
20
60.933
10
224.409
20
60.962
10
224.471
20
60.983
10
224.535
20
60.996
10
224.6
20
61
10
224.665
20
60.996
10
224.729
20
60.983
10
224.791
20
60.962
10
224.85
20
60.933
10
224.904
20
60.897
10
224.954
20
60.854
10
224.997
20
60.804
10
225.033
20
60.75
10
225.062
20
60.691
10
225.083
20
60.629
10
225.096
20
60.565
97
0
75
0
76
1
98
1
10
0
20
0
0
HATCH
5
170
100
AcDbEntity
8
RASTER
100
AcDbHatch
10
0
20
0
30
0
210
0
220
0
230
1
2
SOLID
70
1
71
0
91
1
92
2
72
0
73
1
93
48
10
251.9
20
60.5
10
251.896
20
60.435
10
251.883
20
60.371
10
251.862
20
60.309
10
251.833
20
60.25
10
251.797
20
60.196
10
251.754
20
60.146
10
251.704
20
60.103
10
251.65
20
60.067
10
251.591
20
60.038
10
251.529
20
60.017
10
251.465
20
60.004
10
251.4
20
60
10
251.335
20
60.004
10
251.271
20
60.017
10
251.209
20
60.038
10
251.15
20
60.067
10
251.096
20
60.103
10
251.046
20
60.146
10
251.003
20
60.196
10
250.967
20
60.25
10
250.938
20
60.309
10
250.917
20
60.371
10
250.904
20
60.435
10
250.9
20
60.5
10
250.904
20
60.565
10
250.917
20
60.629
10
250.938
20
60.691
10
250.967
20
60.75
10
251.003
20
60.804
10
251.046
20
60.854
10
251.096
20
60.897
10
251.15
20
60.933
10
251.209
20
60.962
10
251.271
20
60.983
10
251.335
20
60.996
10
251.4
20
61
10
251.465
20
60.996
10
251.529
20
60.983
10
251.591
20
60.962
10
251.65
20
60.933
10
251.704
20
60.897
10
251.754
20
60.854
10
251.797
20
60.804
10
251.833
20
60.75
10
251.862
20
60.691
10
251.883
20
60.629
10
251.896
20
60.565
97
0
75
0
76
1
98
1
10
0
20
0
0
HATCH
5
171
100
AcDbEntity
8
RASTER
100
AcDbHatch
10
0
20
0
30
0
210
0
220
0
230
1
2
SOLID
70
1
71
0
91
1
92
2
72
0
73
1
93
48
10
225.1
20
55.367
10
225.096
20
55.301
10
225.083
20
55.237
10
225.062
20
55.175
10
225.033
20
55.117
10
224.997
20
55.062
10
224.954
20
55.013
10
224.904
20
54.97
10
224.85
20
54.934
10
224.791
20
54.905
10
224.729
20
54.884
10
224.665
20
54.871
10
224.6
20
54.867
10
224.535
20
54.871
10
224.471
20
54.884
10
224.409
20
54.905
10
224.35
20
54.934
10
224.296
20
54.97
10
224.246
20
55.013
10
224.203
20
55.062
10
224.167
20
55.117
10
224.138
20
55.175
10
224.117
20
55.237
10
224.104
20
55.301
10
224.1
20
55.367
10
224.104
20
55.432
10
224.117
20
55.496
10
224.138
20
55.558
10
224.167
20
55.617
10
224.203
20
55.671
10
224.246
20
55.72
10
224.296
20
55.763
10
224.35
20
55.8
10
224.409
20
55.829
10
224.471
20
55.85
10
224.535
20
55.862
10
224.6
20
55.867
10
224.665
20
55.862
10
224.729
20
55.85
10
224.791
20
55.829
10
224.85
20
55.8
10
224.904
20
55.763
10
224.954
20
55.72
10
224.997
20
55.671
10
225.033
20
55.617
10
225.062
20
55.558
10
225.083
20
55.496
10
225.096
20
55.432
97
0
75
0
76
1
98
1
10
0
20
0
0
HATCH
5
172
100
AcDbEntity
8
RASTER
100
AcDbHatch
10
0
20
0
30
0
210
0
220
0
230
1
2
SOLID
70
1
71
0
91
1
92
2
72
0
73
1
93
48
10
251.9
20
55.367
10
251.896
20
55.301
10
251.883
20
55.237
10
251.862
20
55.175
10
251.833
20
55.117
10
251.797
20
55.062
10
251.754
20
55.013
10
251.704
20
54.97
10
251.65
20
54.934
10
251.591
20
54.905
10
251.529
20
54.884
10
251.465
20
54.871
10
251.4
20
54.867
10
251.335
20
54.871
10
251.271
20
54.884
10
251.209
20
54.905
10
251.15
20
54.934
10
251.096
20
54.97
10
251.046
20
55.013
10
251.003
20
55.062
10
250.967
20
55.117
10
250.938
20
55.175
10
250.917
20
55.237
10
250.904
20
55.301
10
250.9
20
55.367
10
250.904
20
55.432
10
250.917
20
55.496
10
250.938
20
55.558
10
250.967
20
55.617
10
251.003
20
55.671
10
251.046
20
55.72
10
251.096
20
55.763
10
251.15
20
55.8
10
251.209
20
55.829
10
251.271
20
55.85
10
251.335
20
55.862
10
251.4
20
55.867
10
251.465
20
55.862
10
251.529
20
55.85
10
251.591
20
55.829
10
251.65
20
55.8
10
251.704
20
55.763
10
251.754
20
55.72
10
251.797
20
55.671
10
251.833
20
55.617
10
251.862
20
55.558
10
251.883
20
55.496
10
251.896
20
55.432
97
0
75
0
76
1
98
1
10
0
20
0
0
LWPOLYLINE
5
173
100
AcDbEntity
8
CUT
100
AcDbPolyline
90
27
70
1
10
267
20
68
10
291
20
68
10
291
20
68
10
291
20
63
10
294
20
63
10
294
20
58
10
291
20
58
10
291
20
53
10
291
20
53
10
291
20
53
10
286.2
20
53
10
286.2
20
50
10
281.4
20
50
10
281.4
20
53
10
276.6
20
53
10
276.6
20
50
10
271.8
20
50
10
271.8
20
53
10
267
20
53
10
267
20
53
10
267
20
53
10
267
20
58
10
264
20
58
10
264
20
63
10
267
20
63
10
267
20
68
10
267
20
68
0
LWPOLYLINE
5
174
100
AcDbEntity
8
CUT
100
AcDbPolyline
90
4
70
1
10
271
20
63.767
10
287
20
63.767
10
287
20
62.367
10
271
20
62.367
0
LWPOLYLINE
5
175
100
AcDbEntity
8
CUT
100
AcDbPolyline
90
4
70
1
10
271
20
58.633
10
287
20
58.633
10
287
20
57.233
10
271
20
57.233
0
HATCH
5
176
100
AcDbEntity
8
RASTER
100
AcDbHatch
10
0
20
0
30
0
210
0
220
0
230
1
2
SOLID
70
1
71
0
91
1
92
2
72
0
73
1
93
4
10
267.6
20
67.6
10
270.4
20
67.6
10
270.4
20
53.4
10
267.6
20
53.4
97
0
75
0
76
1
98
1
10
0
20
0
0
HATCH
5
177
100
AcDbEntity
8
RASTER
100
AcDbHatch
10
0
20
0
30
0
210
0
220
0
230
1
2
SOLID
70
1
71
0
91
1
92
2
72
0
73
1
93
4
10
287.6
20
67.6
10
290.4
20
67.6
10
290.4
20
53.4
10
287.6
20
53.4
97
0
75
0
76
1
98
1
10
0
20
0
0
HATCH
5
178
100
AcDbEntity
8
RASTER
100
AcDbHatch
10
0
20
0
30
0
210
0
220
0
230
1
2
SOLID
70
1
71
0
91
1
92
2
72
0
73
1
93
48
10
273.1
20
65.633
10
273.096
20
65.568
10
273.083
20
65.504
10
273.062
20
65.442
10
273.033
20
65.383
10
272.997
20
65.329
10
272.954
20
65.28
10
272.904
20
65.237
10
272.85
20
65.2
10
272.791
20
65.171
10
272.729
20
65.15
10
272.665
20
65.138
10
272.6
20
65.133
10
272.535
20
65.138
10
272.471
20
65.15
10
272.409
20
65.171
10
272.35
20
65.2
10
272.296
20
65.237
10
272.246
20
65.28
10
272.203
20
65.329
10
272.167
20
65.383
10
272.138
20
65.442
10
272.117
20
65.504
10
272.104
20
65.568
10
272.1
20
65.633
10
272.104
20
65.699
10
272.117
20
65.763
10
272.138
20
65.825
10
272.167
20
65.883
10
272.203
20
65.938
10
272.246
20
65.987
10
272.296
20
66.03
10
272.35
20
66.066
10
272.409
20
66.095
10
272.471
20
66.116
10
272.535
20
66.129
10
272.6
20
66.133
10
272.665
20
66.129
10
272.729
20
66.116
10
272.791
20
66.095
10
272.85
20
66.066
10
272.904
20
66.03
10
272.954
20
65.987
10
272.997
20
65.938
10
273.033
20
65.883
10
273.062
20
65.825
10
273.083
20
65.763
10
273.096
20
65.699
97
0
75
0
76
1
98
1
10
0
20
0
0
HATCH
5
179
100
AcDbEntity
8
RASTER
100
AcDbHatch
10
0
20
0
30
0
210
0
220
0
230
1
2
SOLID
70
1
71
0
91
1
92
2
72
0
73
1
93
48
10
285.9
20
65.633
10
285.896
20
65.568
10
285.883
20
65.504
10
285.862
20
65.442
10
285.833
20
65.383
10
285.797
20
65.329
10
285.754
20
65.28
10
285.704
20
65.237
10
285.65
20
65.2
10
285.591
20
65.171
10
285.529
20
65.15
10
285.465
20
65.138
10
285.4
20
65.133
10
285.335
20
65.138
10
285.271
20
65.15
10
285.209
20
65.171
10
285.15
20
65.2
10
285.096
20
65.237
10
285.046
20
65.28
10
285.003
20
65.329
10
284.967
20
65.383
10
284.938
20
65.442
10
284.917
20
65.504
10
284.904
20
65.568
10
284.9
20
65.633
10
284.904
20
65.699
10
284.917
20
65.763
10
284.938
20
65.825
10
284.967
20
65.883
10
285.003
20
65.938
10
285.046
20
65.987
10
285.096
20
66.03
10
285.15
20
66.066
10
285.209
20
66.095
10
285.271
20
66.116
10
285.335
20
66.129
10
285.4
20
66.133
10
285.465
20
66.129
10
285.529
20
66.116
10
285.591
20
66.095
10
285.65
20
66.066
10
285.704
20
66.03
10
285.754
20
65.987
10
285.797
20
65.938
10
285.833
20
65.883
10
285.862
20
65.825
10
285.883
20
65.763
10
285.896
20
65.699
97
0
75
0
76
1
98
1
10
0
20
0
0
HATCH
5
17A
100
AcDbEntity
8
RASTER
100
AcDbHatch
10
0
20
0
30
0
210
0
220
0
230
1
2
SOLID
70
1
71
0
91
1
92
2
72
0
73
1
93
48
10
273.1
20
60.5
10
273.096
20
60.435
10
273.083
20
60.371
10
273.062
20
60.309
10
273.033
20
60.25
10
272.997
20
60.196
10
272.954
20
60.146
10
272.904
20
60.103
10
272.85
20
60.067
10
272.791
20
60.038
10
272.729
20
60.017
10
272.665
20
60.004
10
272.6
20
60
10
272.535
20
60.004
10
272.471
20
60.017
10
272.409
20
60.038
10
272.35
20
60.067
10
272.296
20
60.103
10
272.246
20
60.146
10
272.203
20
60.196
10
272.167
20
60.25
10
272.138
20
60.309
10
272.117
20
60.371
10
272.104
20
60.435
10
272.1
20
60.5
10
272.104
20
60.565
10
272.117
20
60.629
10
272.138
20
60.691
10
272.167
20
60.75
10
272.203
20
60.804
10
272.246
20
60.854
10
272.296
20
60.897
10
272.35
20
60.933
10
272.409
20
60.962
10
272.471
20
60.983
10
272.535
20
60.996
10
272.6
20
61
10
272.665
20
60.996
10
272.729
20
60.983
10
272.791
20
60.962
10
272.85
20
60.933
10
272.904
20
60.897
10
272.954
20
60.854
10
272.997
20
60.804
10
273.033
20
60.75
10
273.062
20
60.691
10
273.083
20
60.629
10
273.096
20
60.565
97
0
75
0
76
1
98
1
10
0
20
0
0
HATCH
5
17B
100
AcDbEntity
8
RASTER
100
AcDbHatch
10
0
20
0
30
0
210
0
220
0
230
1
2
SOLID
70
1
71
0
91
1
92
2
72
0
73
1
93
48
10
285.9
20
60.5
10
285.896
20
60.435
10
285.883
20
60.371
10
285.862
20
60.309
10
285.833
20
60.25
10
285.797
20
60.196
10
285.754
20
60.146
10
285.704
20
60.103
10
285.65
20
60.067
10
285.591
20
60.038
10
285.529
20
60.017
10
285.465
20
60.004
10
285.4
20
60
10
285.335
20
60.004
10
285.271
20
60.017
10
285.209
20
60.038
10
285.15
20
60.067
10
285.096
20
60.103
10
285.046
20
60.146
10
285.003
20
60.196
10
284.967
20
60.25
10
284.938
20
60.309
10
284.917
20
60.371
10
284.904
20
60.435
10
284.9
20
60.5
10
284.904
20
60.565
10
284.917
20
60.629
10
284.938
20
60.691
10
284.967
20
60.75
10
285.003
20
60.804
10
285.046
20
60.854
10
285.096
20
60.897
10
285.15
20
60.933
10
285.209
20
60.962
10
285.271
20
60.983
10
285.335
20
60.996
10
285.4
20
61
10
285.465
20
60.996
10
285.529
20
60.983
10
285.591
20
60.962
10
285.65
20
60.933
10
285.704
20
60.897
10
285.754
20
60.854
10
285.797
20
60.804
10
285.833
20
60.75
10
285.862
20
60.691
10
285.883
20
60.629
10
285.896
20
60.565
97
0
75
0
76
1
98
1
10
0
20
0
0
HATCH
5
17C
100
AcDbEntity
8
RASTER
100
AcDbHatch
10
0
20
0
30
0
210
0
220
0
230
1
2
SOLID
70
1
71
0
91
1
92
2
72
0
73
1
93
48
10
273.1
20
55.367
10
273.096
20
55.301
10
273.083
20
55.237
10
273.062
20
55.175
10
273.033
20
55.117
10
272.997
20
55.062
10
272.954
20
55.013
10
272.904
20
54.97
10
272.85
20
54.934
10
272.791
20
54.905
10
272.729
20
54.884
10
272.665
20
54.871
10
272.6
20
54.867
10
272.535
20
54.871
10
272.471
20
54.884
10
272.409
20
54.905
10
272.35
20
54.934
10
272.296
20
54.97
10
272.246
20
55.013
10
272.203
20
55.062
10
272.167
20
55.117
10
272.138
20
55.175
10
272.117
20
55.237
10
272.104
20
55.301
10
272.1
20
55.367
10
272.104
20
55.432
10
272.117
20
55.496
10
272.138
20
55.558
10
272.167
20
55.617
10
272.203
20
55.671
10
272.246
20
55.72
10
272.296
20
55.763
10
272.35
20
55.8
10
272.409
20
55.829
10
272.471
20
55.85
10
272.535
20
55.862
10
272.6
20
55.867
10
272.665
20
55.862
10
272.729
20
55.85
10
272.791
20
55.829
10
272.85
20
55.8
10
272.904
20
55.763
10
272.954
20
55.72
10
272.997
20
55.671
10
273.033
20
55.617
10
273.062
20
55.558
10
273.083
20
55.496
10
273.096
20
55.432
97
0
75
0
76
1
98
1
10
0
20
0
0
HATCH
5
17D
100
AcDbEntity
8
RASTER
100
AcDbHatch
10
0
20
0
30
0
210
0
220
0
230
1
2
SOLID
70
1
71
0
91
1
92
2
72
0
73
1
93
48
10
285.9
20
55.367
10
285.896
20
55.301
10
285.883
20
55.237
10
285.862
20
55.175
10
285.833
20
55.117
10
285.797
20
55.062
10
285.754
20
55.013
10
285.704
20
54.97
10
285.65
20
54.934
10
285.591
20
54.905
10
285.529
20
54.884
10
285.465
20
54.871
10
285.4
20
54.867
10
285.335
20
54.871
10
285.271
20
54.884
10
285.209
20
54.905
10
285.15
20
54.934
10
285.096
20
54.97
10
285.046
20
55.013
10
285.003
20
55.062
10
284.967
20
55.117
10
284.938
20
55.175
10
284.917
20
55.237
10
284.904
20
55.301
10
284.9
20
55.367
10
284.904
20
55.432
10
284.917
20
55.496
10
284.938
20
55.558
10
284.967
20
55.617
10
285.003
20
55.671
10
285.046
20
55.72
10
285.096
20
55.763
10
285.15
20
55.8
10
285.209
20
55.829
10
285.271
20
55.85
10
285.335
20
55.862
10
285.4
20
55.867
10
285.465
20
55.862
10
285.529
20
55.85
10
285.591
20
55.829
10
285.65
20
55.8
10
285.704
20
55.763
10
285.754
20
55.72
10
285.797
20
55.671
10
285.833
20
55.617
10
285.862
20
55.558
10
285.883
20
55.496
10
285.896
20
55.432
97
0
75
0
76
1
98
1
10
0
20
0
0
LWPOLYLINE
5
17E
100
AcDbEntity
8
CUT
100
AcDbPolyline
90
27
70
1
10
7
20
34
10
31
20
34
10
31
20
34
10
31
20
29
10
34
20
29
10
34
20
24
10
31
20
24
10
31
20
19
10
31
20
19
10
31
20
19
10
26.2
20
19
10
26.2
20
16
10
21.4
20
16
10
21.4
20
19
10
16.6
20
19
10
16.6
20
16
10
11.8
20
16
10
11.8
20
19
10
7
20
19
10
7
20
19
10
7
20
19
10
7
20
24
10
4
20
24
10
4
20
29
10
7
20
29
10
7
20
34
10
7
20
34
0
LWPOLYLINE
5
17F
100
AcDbEntity
8
CUT
100
AcDbPolyline
90
4
70
1
10
11
20
29.767
10
27
20
29.767
10
27
20
28.367
10
11
20
28.367
0
LWPOLYLINE
5
180
100
AcDbEntity
8
CUT
100
AcDbPolyline
90
4
70
1
10
11
20
24.633
10
27
20
24.633
10
27
20
23.233
10
11
20
23.233
0
HATCH
5
181
100
AcDbEntity
8
RASTER
100
AcDbHatch
10
0
20
0
30
0
210
0
220
0
230
1
2
SOLID
70
1
71
0
91
1
92
2
72
0
73
1
93
4
10
7.6
20
33.6
10
10.4
20
33.6
10
10.4
20
19.4
10
7.6
20
19.4
97
0
75
0
76
1
98
1
10
0
20
0
0
HATCH
5
182
100
AcDbEntity
8
RASTER
100
AcDbHatch
10
0
20
0
30
0
210
0
220
0
230
1
2
SOLID
70
1
71
0
91
1
92
2
72
0
73
1
93
4
10
27.6
20
33.6
10
30.4
20
33.6
10
30.4
20
19.4
10
27.6
20
19.4
97
0
75
0
76
1
98
1
10
0
20
0
0
HATCH
5
183
100
AcDbEntity
8
RASTER
100
AcDbHatch
10
0
20
0
30
0
210
0
220
0
230
1
2
SOLID
70
1
71
0
91
1
92
2
72
0
73
1
93
48
10
13.1
20
31.633
10
13.096
20
31.568
10
13.083
20
31.504
10
13.062
20
31.442
10
13.033
20
31.383
10
12.997
20
31.329
10
12.954
20
31.28
10
12.904
20
31.237
10
12.85
20
31.2
10
12.791
20
31.171
10
12.729
20
31.15
10
12.665
20
31.138
10
12.6
20
31.133
10
12.535
20
31.138
10
12.471
20
31.15
10
12.409
20
31.171
10
12.35
20
31.2
10
12.296
20
31.237
10
12.246
20
31.28
10
12.203
20
31.329
10
12.167
20
31.383
10
12.138
20
31.442
10
12.117
20
31.504
10
12.104
20
31.568
10
12.1
20
31.633
10
12.104
20
31.699
10
12.117
20
31.763
10
12.138
20
31.825
10
12.167
20
31.883
10
12.203
20
31.938
10
12.246
20
31.987
10
12.296
20
32.03
10
12.35
20
32.066
10
12.409
20
32.095
10
12.471
20
32.116
10
12.535
20
32.129
10
12.6
20
32.133
10
12.665
20
32.129
10
12.729
20
32.116
10
12.791
20
32.095
10
12.85
20
32.066
10
12.904
20
32.03
10
12.954
20
31.987
10
12.997
20
31.938
10
13.033
20
31.883
10
13.062
20
31.825
10
13.083
20
31.763
10
13.096
20
31.699
97
0
75
0
76
1
98
1
10
0
20
0
0
HATCH
5
184
100
AcDbEntity
8
RASTER
100
AcDbHatch
10
0
20
0
30
0
210
0
220
0
230
1
2
SOLID
70
1
71
0
91
1
92
2
72
0
73
1
93
48
10
25.9
20
31.633
10
25.896
20
31.568
10
25.883
20
31.504
10
25.862
20
31.442
10
25.833
20
31.383
10
25.797
20
31.329
10
25.754
20
31.28
10
25.704
20
31.237
10
25.65
20
31.2
10
25.591
20
31.171
10
25.529
20
31.15
10
25.465
20
31.138
10
25.4
20
31.133
10
25.335
20
31.138
10
25.271
20
31.15
10
25.209
20
31.171
10
25.15
20
31.2
10
25.096
20
31.237
10
25.046
20
31.28
10
25.003
20
31.329
10
24.967
20
31.383
10
24.938
20
31.442
10
24.917
20
31.504
10
24.904
20
31.568
10
24.9
20
31.633
10
24.904
20
31.699
10
24.917
20
31.763
10
24.938
20
31.825
10
24.967
20
31.883
10
25.003
20
31.938
10
25.046
20
31.987
10
25.096
20
32.03
10
25.15
20
32.066
10
25.209
20
32.095
10
25.271
20
32.116
10
25.335
20
32.129
10
25.4
20
32.133
10
25.465
20
32.129
10
25.529
20
32.116
10
25.591
20
32.095
10
25.65
20
32.066
10
25.704
20
32.03
10
25.754
20
31.987
10
25.797
20
31.938
10
25.833
20
31.883
10
25.862
20
31.825
10
25.883
20
31.763
10
25.896
20
31.699
97
0
75
0
76
1
98
1
10
0
20
0
0
HATCH
5
185
100
AcDbEntity
8
RASTER
100
AcDbHatch
10
0
20
0
30
0
210
0
220
0
230
1
2
SOLID
70
1
71
0
91
1
92
2
72
0
73
1
93
48
10
13.1
20
26.5
10
13.096
20
26.435
10
13.083
20
26.371
10
13.062
20
26.309
10
13.033
20
26.25
10
12.997
20
26.196
10
12.954
20
26.146
10
12.904
20
26.103
10
12.85
20
26.067
10
12.791
20
26.038
10
12.729
20
26.017
10
12.665
20
26.004
10
12.6
20
26
10
12.535
20
26.004
10
12.471
20
26.017
10
12.409
20
26.038
10
12.35
20
26.067
10
12.296
20
26.103
10
12.246
20
26.146
10
12.203
20
26.196
10
12.167
20
26.25
10
12.138
20
26.309
10
12.117
20
26.371
10
12.104
20
26.435
10
12.1
20
26.5
10
12.104
20
26.565
10
12.117
20
26.629
10
12.138
20
26.691
10
12.167
20
26.75
10
12.203
20
26.804
10
12.246
20
26.854
10
12.296
20
26.897
10
12.35
20
26.933
10
12.409
20
26.962
10
12.471
20
26.983
10
12.535
20
26.996
10
12.6
20
27
10
12.665
20
26.996
10
12.729
20
26.983
10
12.791
20
26.962
10
12.85
20
26.933
10
12.904
20
26.897
10
12.954
20
26.854
10
12.997
20
26.804
10
13.033
20
26.75
10
13.062
20
26.691
10
13.083
20
26.629
10
13.096
20
26.565
97
0
75
0
76
1
98
1
10
0
20
0
0
HATCH
5
186
100
AcDbEntity
8
RASTER
100
AcDbHatch
10
0
20
0
30
0
210
0
220
0
230
1
2
SOLID
70
1
71
0
91
1
92
2
72
0
73
1
93
48
10
25.9
20
26.5
10
25.896
20
26.435
10
25.883
20
26.371
10
25.862
20
26.309
10
25.833
20
26.25
10
25.797
20
26.196
10
25.754
20
26.146
10
25.704
20
26.103
10
25.65
20
26.067
10
25.591
20
26.038
10
25.529
20
26.017
10
25.465
20
26.004
10
25.4
20
26
10
25.335
20
26.004
10
25.271
20
26.017
10
25.209
20
26.038
10
25.15
20
26.067
10
25.096
20
26.103
10
25.046
20
26.146
10
25.003
20
26.196
10
24.967
20
26.25
10
24.938
20
26.309
10
24.917
20
26.371
10
24.904
20
26.435
10
24.9
20
26.5
10
24.904
20
26.565
10
24.917
20
26.629
10
24.938
20
26.691
10
24.967
20
26.75
10
25.003
20
26.804
10
25.046
20
26.854
10
25.096
20
26.897
10
25.15
20
26.933
10
25.209
20
26.962
10
25.271
20
26.983
10
25.335
20
26.996
10
25.4
20
27
10
25.465
20
26.996
10
25.529
20
26.983
10
25.591
20
26.962
10
25.65
20
26.933
10
25.704
20
26.897
10
25.754
20
26.854
10
25.797
20
26.804
10
25.833
20
26.75
10
25.862
20
26.691
10
25.883
20
26.629
10
25.896
20
26.565
97
0
75
0
76
1
98
1
10
0
20
0
0
HATCH
5
187
100
AcDbEntity
8
RASTER
100
AcDbHatch
10
0
20
0
30
0
210
0
220
0
230
1
2
SOLID
70
1
71
0
91
1
92
2
72
0
73
1
93
48
10
13.1
20
21.367
10
13.096
20
21.301
10
13.083
20
21.237
10
13.062
20
21.175
10
13.033
20
21.117
10
12.997
20
21.062
10
12.954
20
21.013
10
12.904
20
20.97
10
12.85
20
20.934
10
12.791
20
20.905
10
12.729
20
20.884
10
12.665
20
20.871
10
12.6
20
20.867
10
12.535
20
20.871
10
12.471
20
20.884
10
12.409
20
20.905
10
12.35
20
20.934
10
12.296
20
20.97
10
12.246
20
21.013
10
12.203
20
21.062
10
12.167
20
21.117
10
12.138
20
21.175
10
12.117
20
21.237
10
12.104
20
21.301
10
12.1
20
21.367
10
12.104
20
21.432
10
12.117
20
21.496
10
12.138
20
21.558
10
12.167
20
21.617
10
12.203
20
21.671
10
12.246
20
21.72
10
12.296
20
21.763
10
12.35
20
21.8
10
12.409
20
21.829
10
12.471
20
21.85
10
12.535
20
21.862
10
12.6
20
21.867
10
12.665
20
21.862
10
12.729
20
21.85
10
12.791
20
21.829
10
12.85
20
21.8
10
12.904
20
21.763
10
12.954
20
21.72
10
12.997
20
21.671
10
13.033
20
21.617
10
13.062
20
21.558
10
13.083
20
21.496
10
13.096
20
21.432
97
0
75
0
76
1
98
1
10
0
20
0
0
HATCH
5
188
100
AcDbEntity
8
RASTER
100
AcDbHatch
10
0
20
0
30
0
210
0
220
0
230
1
2
SOLID
70
1
71
0
91
1
92
2
72
0
73
1
93
48
10
25.9
20
21.367
10
25.896
20
21.301
10
25.883
20
21.237
10
25.862
20
21.175
10
25.833
20
21.117
10
25.797
20
21.062
10
25.754
20
21.013
10
25.704
20
20.97
10
25.65
20
20.934
10
25.591
20
20.905
10
25.529
20
20.884
10
25.465
20
20.871
10
25.4
20
20.867
10
25.335
20
20.871
10
25.271
20
20.884
10
25.209
20
20.905
10
25.15
20
20.934
10
25.096
20
20.97
10
25.046
20
21.013
10
25.003
20
21.062
10
24.967
20
21.117
10
24.938
20
21.175
10
24.917
20
21.237
10
24.904
20
21.301
10
24.9
20
21.367
10
24.904
20
21.432
10
24.917
20
21.496
10
24.938
20
21.558
10
24.967
20
21.617
10
25.003
20
21.671
10
25.046
20
21.72
10
25.096
20
21.763
10
25.15
20
21.8
10
25.209
20
21.829
10
25.271
20
21.85
10
25.335
20
21.862
10
25.4
20
21.867
10
25.465
20
21.862
10
25.529
20
21.85
10
25.591
20
21.829
10
25.65
20
21.8
10
25.704
20
21.763
10
25.754
20
21.72
10
25.797
20
21.671
10
25.833
20
21.617
10
25.862
20
21.558
10
25.883
20
21.496
10
25.896
20
21.432
97
0
75
0
76
1
98
1
10
0
20
0
0
LWPOLYLINE
5
189
100
AcDbEntity
8
CUT
100
AcDbPolyline
90
64
70
1
10
38
20
34
10
41
20
34
10
41
20
34
10
46.429
20
34
10
46.429
20
31
10
51.857
20
31
10
51.857
20
34
10
57.286
20
34
10
57.286
20
31
10
62.714
20
31
10
62.714
20
34
10
68.143
20
34
10
68.143
20
31
10
73.571
20
31
10
73.571
20
34
10
79
20
34
10
79
20
34
10
79
20
34
10
82
20
34
10
82
20
31
10
82
20
31
10
82
20
26.2
10
79
20
26.2
10
79
20
21.4
10
82
20
21.4
10
82
20
16.6
10
79
20
16.6
10
79
20
11.8
10
82
20
11.8
10
82
20
7
10
82
20
7
10
82
20
7
10
82
20
4
10
79
20
4
10
79
20
4
10
73.571
20
4
10
73.571
20
7
10
68.143
20
7
10
68.143
20
4
10
62.714
20
4
10
62.714
20
7
10
57.286
20
7
10
57.286
20
4
10
51.857
20
4
10
51.857
20
7
10
46.429
20
7
10
46.429
20
4
10
41
20
4
10
41
20
4
10
41
20
4
10
38
20
4
10
38
20
7
10
38
20
7
10
38
20
11.8
10
41
20
11.8
10
41
20
16.6
10
38
20
16.6
10
38
20
21.4
10
41
20
21.4
10
41
20
26.2
10
38
20
26.2
10
38
20
31
10
38
20
31
10
38
20
31
0
LWPOLYLINE
5
18A
100
AcDbEntity
8
CUT
100
AcDbPolyline
90
31
70
1
10
89
20
34
10
127
20
34
10
130
20
34
10
130
20
29
10
127
20
29
10
127
20
24
10
130
20
24
10
130
20
19
10
127
20
19
10
127
20
19
10
121.571
20
19
10
121.571
20
16
10
116.143
20
16
10
116.143
20
19
10
110.714
20
19
10
110.714
20
16
10
105.286
20
16
10
105.286
20
19
10
99.857
20
19
10
99.857
20
16
10
94.429
20
16
10
94.429
20
19
10
89
20
19
10
89
20
19
10
86
20
19
10
86
20
24
10
89
20
24
10
89
20
29
10
86
20
29
10
86
20
34
10
89
20
34
0
LWPOLYLINE
5
18B
100
AcDbEntity
8
CUT
100
AcDbPolyline
90
4
70
1
10
93
20
29.767
10
123
20
29.767
10
123
20
28.367
10
93
20
28.367
0
LWPOLYLINE
5
18C
100
AcDbEntity
8
CUT
100
AcDbPolyline
90
4
70
1
10
93
20
24.633
10
123
20
24.633
10
123
20
23.233
10
93
20
23.233
0
HATCH
5
18D
100
AcDbEntity
8
RASTER
100
AcDbHatch
10
0
20
0
30
0
210
0
220
0
230
1
2
SOLID
70
1
71
0
91
1
92
2
72
0
73
1
93
4
10
89.6
20
33.6
10
92.4
20
33.6
10
92.4
20
19.4
10
89.6
20
19.4
97
0
75
0
76
1
98
1
10
0
20
0
0
HATCH
5
18E
100
AcDbEntity
8
RASTER
100
AcDbHatch
10
0
20
0
30
0
210
0
220
0
230
1
2
SOLID
70
1
71
0
91
1
92
2
72
0
73
1
93
4
10
123.6
20
33.6
10
126.4
20
33.6
10
126.4
20
19.4
10
123.6
20
19.4
97
0
75
0
76
1
98
1
10
0
20
0
0
HATCH
5
18F
100
AcDbEntity
8
RASTER
100
AcDbHatch
10
0
20
0
30
0
210
0
220
0
230
1
2
SOLID
70
1
71
0
91
1
92
2
72
0
73
1
93
48
10
95.1
20
31.633
10
95.096
20
31.568
10
95.083
20
31.504
10
95.062
20
31.442
10
95.033
20
31.383
10
94.997
20
31.329
10
94.954
20
31.28
10
94.904
20
31.237
10
94.85
20
31.2
10
94.791
20
31.171
10
94.729
20
31.15
10
94.665
20
31.138
10
94.6
20
31.133
10
94.535
20
31.138
10
94.471
20
31.15
10
94.409
20
31.171
10
94.35
20
31.2
10
94.296
20
31.237
10
94.246
20
31.28
10
94.203
20
31.329
10
94.167
20
31.383
10
94.138
20
31.442
10
94.117
20
31.504
10
94.104
20
31.568
10
94.1
20
31.633
10
94.104
20
31.699
10
94.117
20
31.763
10
94.138
20
31.825
10
94.167
20
31.883
10
94.203
20
31.938
10
94.246
20
31.987
10
94.296
20
32.03
10
94.35
20
32.066
10
94.409
20
32.095
10
94.471
20
32.116
10
94.535
20
32.129
10
94.6
20
32.133
10
94.665
20
32.129
10
94.729
20
32.116
10
94.791
20
32.095
10
94.85
20
32.066
10
94.904
20
32.03
10
94.954
20
31.987
10
94.997
20
31.938
10
95.033
20
31.883
10
95.062
20
31.825
10
95.083
20
31.763
10
95.096
20
31.699
97
0
75
0
76
1
98
1
10
0
20
0
0
HATCH
5
190
100
AcDbEntity
8
RASTER
100
AcDbHatch
10
0
20
0
30
0
210
0
220
0
230
1
2
SOLID
70
1
71
0
91
1
92
2
72
0
73
1
93
48
10
121.9
20
31.633
10
121.896
20
31.568
10
121.883
20
31.504
10
121.862
20
31.442
10
121.833
20
31.383
10
121.797
20
31.329
10
121.754
20
31.28
10
121.704
20
31.237
10
121.65
20
31.2
10
121.591
20
31.171
10
121.529
20
31.15
10
121.465
20
31.138
10
121.4
20
31.133
10
121.335
20
31.138
10
121.271
20
31.15
10
121.209
20
31.171
10
121.15
20
31.2
10
121.096
20
31.237
10
121.046
20
31.28
10
121.003
20
31.329
10
120.967
20
31.383
10
120.938
20
31.442
10
120.917
20
31.504
10
120.904
20
31.568
10
120.9
20
31.633
10
120.904
20
31.699
10
120.917
20
31.763
10
120.938
20
31.825
10
120.967
20
31.883
10
121.003
20
31.938
10
121.046
20
31.987
10
121.096
20
32.03
10
121.15
20
32.066
10
121.209
20
32.095
10
121.271
20
32.116
10
121.335
20
32.129
10
121.4
20
32.133
10
121.465
20
32.129
10
121.529
20
32.116
10
121.591
20
32.095
10
121.65
20
32.066
10
121.704
20
32.03
10
121.754
20
31.987
10
121.797
20
31.938
10
121.833
20
31.883
10
121.862
20
31.825
10
121.883
20
31.763
10
121.896
20
31.699
97
0
75
0
76
1
98
1
10
0
20
0
0
HATCH
5
191
100
AcDbEntity
8
RASTER
100
AcDbHatch
10
0
20
0
30
0
210
0
220
0
230
1
2
SOLID
70
1
71
0
91
1
92
2
72
0
73
1
93
48
10
95.1
20
26.5
10
95.096
20
26.435
10
95.083
20
26.371
10
95.062
20
26.309
10
95.033
20
26.25
10
94.997
20
26.196
10
94.954
20
26.146
10
94.904
20
26.103
10
94.85
20
26.067
10
94.791
20
26.038
10
94.729
20
26.017
10
94.665
20
26.004
10
94.6
20
26
10
94.535
20
26.004
10
94.471
20
26.017
10
94.409
20
26.038
10
94.35
20
26.067
10
94.296
20
26.103
10
94.246
20
26.146
10
94.203
20
26.196
10
94.167
20
26.25
10
94.138
20
26.309
10
94.117
20
26.371
10
94.104
20
26.435
10
94.1
20
26.5
10
94.104
20
26.565
10
94.117
20
26.629
10
94.138
20
26.691
10
94.167
20
26.75
10
94.203
20
26.804
10
94.246
20
26.854
10
94.296
20
26.897
10
94.35
20
26.933
10
94.409
20
26.962
10
94.471
20
26.983
10
94.535
20
26.996
10
94.6
20
27
10
94.665
20
26.996
10
94.729
20
26.983
10
94.791
20
26.962
10
94.85
20
26.933
10
94.904
20
26.897
10
94.954
20
26.854
10
94.997
20
26.804
10
95.033
20
26.75
10
95.062
20
26.691
10
95.083
20
26.629
10
95.096
20
26.565
97
0
75
0
76
1
98
1
10
0
20
0
0
HATCH
5
192
100
AcDbEntity
8
RASTER
100
AcDbHatch
10
0
20
0
30
0
210
0
220
0
230
1
2
SOLID
70
1
71
0
91
1
92
2
72
0
73
1
93
48
10
121.9
20
26.5
10
121.896
20
26.435
10
121.883
20
26.371
10
121.862
20
26.309
10
121.833
20
26.25
10
121.797
20
26.196
10
121.754
20
26.146
10
121.704
20
26.103
10
121.65
20
26.067
10
121.591
20
26.038
10
121.529
20
26.017
10
121.465
20
26.004
10
121.4
20
26
10
121.335
20
26.004
10
121.271
20
26.017
10
121.209
20
26.038
10
121.15
20
26.067
10
121.096
20
26.103
10
121.046
20
26.146
10
121.003
20
26.196
10
120.967
20
26.25
10
120.938
20
26.309
10
120.917
20
26.371
10
120.904
20
26.435
10
120.9
20
26.5
10
120.904
20
26.565
10
120.917
20
26.629
10
120.938
20
26.691
10
120.967
20
26.75
10
121.003
20
26.804
10
121.046
20
26.854
10
121.096
20
26.897
10
121.15
20
26.933
10
121.209
20
26.962
10
121.271
20
26.983
10
121.335
20
26.996
10
121.4
20
27
10
121.465
20
26.996
10
121.529
20
26.983
10
121.591
20
26.962
10
121.65
20
26.933
10
121.704
20
26.897
10
121.754
20
26.854
10
121.797
20
26.804
10
121.833
20
26.75
10
121.862
20
26.691
10
121.883
20
26.629
10
121.896
20
26.565
97
0
75
0
76
1
98
1
10
0
20
0
0
HATCH
5
193
100
AcDbEntity
8
RASTER
100
AcDbHatch
10
0
20
0
30
0
210
0
220
0
230
1
2
SOLID
70
1
71
0
91
1
92
2
72
0
73
1
93
48
10
95.1
20
21.367
10
95.096
20
21.301
10
95.083
20
21.237
10
95.062
20
21.175
10
95.033
20
21.117
10
94.997
20
21.062
10
94.954
20
21.013
10
94.904
20
20.97
10
94.85
20
20.934
10
94.791
20
20.905
10
94.729
20
20.884
10
94.665
20
20.871
10
94.6
20
20.867
10
94.535
20
20.871
10
94.471
20
20.884
10
94.409
20
20.905
10
94.35
20
20.934
10
94.296
20
20.97
10
94.246
20
21.013
10
94.203
20
21.062
10
94.167
20
21.117
10
94.138
20
21.175
10
94.117
20
21.237
10
94.104
20
21.301
10
94.1
20
21.367
10
94.104
20
21.432
10
94.117
20
21.496
10
94.138
20
21.558
10
94.167
20
21.617
10
94.203
20
21.671
10
94.246
20
21.72
10
94.296
20
21.763
10
94.35
20
21.8
10
94.409
20
21.829
10
94.471
20
21.85
10
94.535
20
21.862
10
94.6
20
21.867
10
94.665
20
21.862
10
94.729
20
21.85
10
94.791
20
21.829
10
94.85
20
21.8
10
94.904
20
21.763
10
94.954
20
21.72
10
94.997
20
21.671
10
95.033
20
21.617
10
95.062
20
21.558
10
95.083
20
21.496
10
95.096
20
21.432
97
0
75
0
76
1
98
1
10
0
20
0
0
HATCH
5
194
100
AcDbEntity
8
RASTER
100
AcDbHatch
10
0
20
0
30
0
210
0
220
0
230
1
2
SOLID
70
1
71
0
91
1
92
2
72
0
73
1
93
48
10
121.9
20
21.367
10
121.896
20
21.301
10
121.883
20
21.237
10
121.862
20
21.175
10
121.833
20
21.117
10
121.797
20
21.062
10
121.754
20
21.013
10
121.704
20
20.97
10
121.65
20
20.934
10
121.591
20
20.905
10
121.529
20
20.884
10
121.465
20
20.871
10
121.4
20
20.867
10
121.335
20
20.871
10
121.271
20
20.884
10
121.209
20
20.905
10
121.15
20
20.934
10
121.096
20
20.97
10
121.046
20
21.013
10
121.003
20
21.062
10
120.967
20
21.117
10
120.938
20
21.175
10
120.917
20
21.237
10
120.904
20
21.301
10
120.9
20
21.367
10
120.904
20
21.432
10
120.917
20
21.496
10
120.938
20
21.558
10
120.967
20
21.617
10
121.003
20
21.671
10
121.046
20
21.72
10
121.096
20
21.763
10
121.15
20
21.8
10
121.209
20
21.829
10
121.271
20
21.85
10
121.335
20
21.862
10
121.4
20
21.867
10
121.465
20
21.862
10
121.529
20
21.85
10
121.591
20
21.829
10
121.65
20
21.8
10
121.704
20
21.763
10
121.754
20
21.72
10
121.797
20
21.671
10
121.833
20
21.617
10
121.862
20
21.558
10
121.883
20
21.496
10
121.896
20
21.432
97
0
75
0
76
1
98
1
10
0
20
0
0
LWPOLYLINE
5
195
100
AcDbEntity
8
CUT
100
AcDbPolyline
90
31
70
1
10
137
20
34
10
175
20
34
10
178
20
34
10
178
20
29
10
175
20
29
10
175
20
24
10
178
20
24
10
178
20
19
10
175
20
19
10
175
20
19
10
169.571
20
19
10
169.571
20
16
10
164.143
20
16
10
164.143
20
19
10
158.714
20
19
10
158.714
20
16
10
153.286
20
16
10
153.286
20
19
10
147.857
20
19
10
147.857
20
16
10
142.429
20
16
10
142.429
20
19
10
137
20
19
10
137
20
19
10
134
20
19
10
134
20
24
10
137
20
24
10
137
20
29
10
134
20
29
10
134
20
34
10
137
20
34
0
LWPOLYLINE
5
196
100
AcDbEntity
8
CUT
100
AcDbPolyline
90
4
70
1
10
141
20
29.767
10
171
20
29.767
10
171
20
28.367
10
141
20
28.367
0
LWPOLYLINE
5
197
100
AcDbEntity
8
CUT
100
AcDbPolyline
90
4
70
1
10
141
20
24.633
10
171
20
24.633
10
171
20
23.233
10
141
20
23.233
0
HATCH
5
198
100
AcDbEntity
8
RASTER
100
AcDbHatch
10
0
20
0
30
0
210
0
220
0
230
1
2
SOLID
70
1
71
0
91
1
92
2
72
0
73
1
93
4
10
137.6
20
33.6
10
140.4
20
33.6
10
140.4
20
19.4
10
137.6
20
19.4
97
0
75
0
76
1
98
1
10
0
20
0
0
HATCH
5
199
100
AcDbEntity
8
RASTER
100
AcDbHatch
10
0
20
0
30
0
210
0
220
0
230
1
2
SOLID
70
1
71
0
91
1
92
2
72
0
73
1
93
4
10
171.6
20
33.6
10
174.4
20
33.6
10
174.4
20
19.4
10
171.6
20
19.4
97
0
75
0
76
1
98
1
10
0
20
0
0
HATCH
5
19A
100
AcDbEntity
8
RASTER
100
AcDbHatch
10
0
20
0
30
0
210
0
220
0
230
1
2
SOLID
70
1
71
0
91
1
92
2
72
0
73
1
93
48
10
143.1
20
31.633
10
143.096
20
31.568
10
143.083
20
31.504
10
143.062
20
31.442
10
143.033
20
31.383
10
142.997
20
31.329
10
142.954
20
31.28
10
142.904
20
31.237
10
142.85
20
31.2
10
142.791
20
31.171
10
142.729
20
31.15
10
142.665
20
31.138
10
142.6
20
31.133
10
142.535
20
31.138
10
142.471
20
31.15
10
142.409
20
31.171
10
142.35
20
31.2
10
142.296
20
31.237
10
142.246
20
31.28
10
142.203
20
31.329
10
142.167
20
31.383
10
142.138
20
31.442
10
142.117
20
31.504
10
142.104
20
31.568
10
142.1
20
31.633
10
142.104
20
31.699
10
142.117
20
31.763
10
142.138
20
31.825
10
142.167
20
31.883
10
142.203
20
31.938
10
142.246
20
31.987
10
142.296
20
32.03
10
142.35
20
32.066
10
142.409
20
32.095
10
142.471
20
32.116
10
142.535
20
32.129
10
142.6
20
32.133
10
142.665
20
32.129
10
142.729
20
32.116
10
142.791
20
32.095
10
142.85
20
32.066
10
142.904
20
32.03
10
142.954
20
31.987
10
142.997
20
31.938
10
143.033
20
31.883
10
143.062
20
31.825
10
143.083
20
31.763
10
143.096
20
31.699
97
0
75
0
76
1
98
1
10
0
20
0
0
HATCH
5
19B
100
AcDbEntity
8
RASTER
100
AcDbHatch
10
0
20
0
30
0
210
0
220
0
230
1
2
SOLID
70
1
71
0
91
1
92
2
72
0
73
1
93
48
10
169.9
20
31.633
10
169.896
20
31.568
10
169.883
20
31.504
10
169.862
20
31.442
10
169.833
20
31.383
10
169.797
20
31.329
10
169.754
20
31.28
10
169.704
20
31.237
10
169.65
20
31.2
10
169.591
20
31.171
10
169.529
20
31.15
10
169.465
20
31.138
10
169.4
20
31.133
10
169.335
20
31.138
10
169.271
20
31.15
10
169.209
20
31.171
10
169.15
20
31.2
10
169.096
20
31.237
10
169.046
20
31.28
10
169.003
20
31.329
10
168.967
20
31.383
10
168.938
20
31.442
10
168.917
20
31.504
10
168.904
20
31.568
10
168.9
20
31.633
10
168.904
20
31.699
10
168.917
20
31.763
10
168.938
20
31.825
10
168.967
20
31.883
10
169.003
20
31.938
10
169.046
20
31.987
10
169.096
20
32.03
10
169.15
20
32.066
10
169.209
20
32.095
10
169.271
20
32.116
10
169.335
20
32.129
10
169.4
20
32.133
10
169.465
20
32.129
10
169.529
20
32.116
10
169.591
20
32.095
10
169.65
20
32.066
10
169.704
20
32.03
10
169.754
20
31.987
10
169.797
20
31.938
10
169.833
20
31.883
10
169.862
20
31.825
10
169.883
20
31.763
10
169.896
20
31.699
97
0
75
0
76
1
98
1
10
0
20
0
0
HATCH
5
19C
100
AcDbEntity
8
RASTER
100
AcDbHatch
10
0
20
0
30
0
210
0
220
0
230
1
2
SOLID
70
1
71
0
91
1
92
2
72
0
73
1
93
48
10
143.1
20
26.5
10
143.096
20
26.435
10
143.083
20
26.371
10
143.062
20
26.309
10
143.033
20
26.25
10
142.997
20
26.196
10
142.954
20
26.146
10
142.904
20
26.103
10
142.85
20
26.067
10
142.791
20
26.038
10
142.729
20
26.017
10
142.665
20
26.004
10
142.6
20
26
10
142.535
20
26.004
10
142.471
20
26.017
10
142.409
20
26.038
10
142.35
20
26.067
10
142.296
20
26.103
10
142.246
20
26.146
10
142.203
20
26.196
10
142.167
20
26.25
10
142.138
20
26.309
10
142.117
20
26.371
10
142.104
20
26.435
10
142.1
20
26.5
10
142.104
20
26.565
10
142.117
20
26.629
10
142.138
20
26.691
10
142.167
20
26.75
10
142.203
20
26.804
10
142.246
20
26.854
10
142.296
20
26.897
10
142.35
20
26.933
10
142.409
20
26.962
10
142.471
20
26.983
10
142.535
20
26.996
10
142.6
20
27
10
142.665
20
26.996
10
142.729
20
26.983
10
142.791
20
26.962
10
142.85
20
26.933
10
142.904
20
26.897
10
142.954
20
26.854
10
142.997
20
26.804
10
143.033
20
26.75
10
143.062
20
26.691
10
143.083
20
26.629
10
143.096
20
26.565
97
0
75
0
76
1
98
1
10
0
20
0
0
HATCH
5
19D
100
AcDbEntity
8
RASTER
100
AcDbHatch
10
0
20
0
30
0
210
0
220
0
230
1
2
SOLID
70
1
71
0
91
1
92
2
72
0
73
1
93
48
10
169.9
20
26.5
10
169.896
20
26.435
10
169.883
20
26.371
10
169.862
20
26.309
10
169.833
20
26.25
10
169.797
20
26.196
10
169.754
20
26.146
10
169.704
20
26.103
10
169.65
20
26.067
10
169.591
20
26.038
10
169.529
20
26.017
10
169.465
20
26.004
10
169.4
20
26
10
169.335
20
26.004
10
169.271
20
26.017
10
169.209
20
26.038
10
169.15
20
26.067
10
169.096
20
26.103
10
169.046
20
26.146
10
169.003
20
26.196
10
168.967
20
26.25
10
168.938
20
26.309
10
168.917
20
26.371
10
168.904
20
26.435
10
168.9
20
26.5
10
168.904
20
26.565
10
168.917
20
26.629
10
168.938
20
26.691
10
168.967
20
26.75
10
169.003
20
26.804
10
169.046
20
26.854
10
169.096
20
26.897
10
169.15
20
26.933
10
169.209
20
26.962
10
169.271
20
26.983
10
169.335
20
26.996
10
169.4
20
27
10
169.465
20
26.996
10
169.529
20
26.983
10
169.591
20
26.962
10
169.65
20
26.933
10
169.704
20
26.897
10
169.754
20
26.854
10
169.797
20
26.804
10
169.833
20
26.75
10
169.862
20
26.691
10
169.883
20
26.629
10
169.896
20
26.565
97
0
75
0
76
1
98
1
10
0
20
0
0
HATCH
5
19E
100
AcDbEntity
8
RASTER
100
AcDbHatch
10
0
20
0
30
0
210
0
220
0
230
1
2
SOLID
70
1
71
0
91
1
92
2
72
0
73
1
93
48
10
143.1
20
21.367
10
143.096
20
21.301
10
143.083
20
21.237
10
143.062
20
21.175
10
143.033
20
21.117
10
142.997
20
21.062
10
142.954
20
21.013
10
142.904
20
20.97
10
142.85
20
20.934
10
142.791
20
20.905
10
142.729
20
20.884
10
142.665
20
20.871
10
142.6
20
20.867
10
142.535
20
20.871
10
142.471
20
20.884
10
142.409
20
20.905
10
142.35
20
20.934
10
142.296
20
20.97
10
142.246
20
21.013
10
142.203
20
21.062
10
142.167
20
21.117
10
142.138
20
21.175
10
142.117
20
21.237
10
142.104
20
21.301
10
142.1
20
21.367
10
142.104
20
21.432
10
142.117
20
21.496
10
142.138
20
21.558
10
142.167
20
21.617
10
142.203
20
21.671
10
142.246
20
21.72
10
142.296
20
21.763
10
142.35
20
21.8
10
142.409
20
21.829
10
142.471
20
21.85
10
142.535
20
21.862
10
142.6
20
21.867
10
142.665
20
21.862
10
142.729
20
21.85
10
142.791
20
21.829
10
142.85
20
21.8
10
142.904
20
21.763
10
142.954
20
21.72
10
142.997
20
21.671
10
143.033
20
21.617
10
143.062
20
21.558
10
143.083
20
21.496
10
143.096
20
21.432
97
0
75
0
76
1
98
1
10
0
20
0
0
HATCH
5
19F
100
AcDbEntity
8
RASTER
100
AcDbHatch
10
0
20
0
30
0
210
0
220
0
230
1
2
SOLID
70
1
71
0
91
1
92
2
72
0
73
1
93
48
10
169.9
20
21.367
10
169.896
20
21.301
10
169.883
20
21.237
10
169.862
20
21.175
10
169.833
20
21.117
10
169.797
20
21.062
10
169.754
20
21.013
10
169.704
20
20.97
10
169.65
20
20.934
10
169.591
20
20.905
10
169.529
20
20.884
10
169.465
20
20.871
10
169.4
20
20.867
10
169.335
20
20.871
10
169.271
20
20.884
10
169.209
20
20.905
10
169.15
20
20.934
10
169.096
20
20.97
10
169.046
20
21.013
10
169.003
20
21.062
10
168.967
20
21.117
10
168.938
20
21.175
10
168.917
20
21.237
10
168.904
20
21.301
10
168.9
20
21.367
10
168.904
20
21.432
10
168.917
20
21.496
10
168.938
20
21.558
10
168.967
20
21.617
10
169.003
20
21.671
10
169.046
20
21.72
10
169.096
20
21.763
10
169.15
20
21.8
10
169.209
20
21.829
10
169.271
20
21.85
10
169.335
20
21.862
10
169.4
20
21.867
10
169.465
20
21.862
10
169.529
20
21.85
10
169.591
20
21.829
10
169.65
20
21.8
10
169.704
20
21.763
10
169.754
20
21.72
10
169.797
20
21.671
10
169.833
20
21.617
10
169.862
20
21.558
10
169.883
20
21.496
10
169.896
20
21.432
97
0
75
0
76
1
98
1
10
0
20
0
0
LWPOLYLINE
5
1A0
100
AcDbEntity
8
CUT
100
AcDbPolyline
90
27
70
1
10
185
20
34
10
209
20
34
10
209
20
34
10
209
20
29
10
212
20
29
10
212
20
24
10
209
20
24
10
209
20
19
10
209
20
19
10
209
20
19
10
204.2
20
19
10
204.2
20
16
10
199.4
20
16
10
199.4
20
19
10
194.6
20
19
10
194.6
20
16
10
189.8
20
16
10
189.8
20
19
10
185
20
19
10
185
20
19
10
185
20
19
10
185
20
24
10
182
20
24
10
182
20
29
10
185
20
29
10
185
20
34
10
185
20
34
0
LWPOLYLINE
5
1A1
100
AcDbEntity
8
CUT
100
AcDbPolyline
90
4
70
1
10
189
20
29.767
10
205
20
29.767
10
205
20
28.367
10
189
20
28.367
0
LWPOLYLINE
5
1A2
100
AcDbEntity
8
CUT
100
AcDbPolyline
90
4
70
1
10
189
20
24.633
10
205
20
24.633
10
205
20
23.233
10
189
20
23.233
0
HATCH
5
1A3
100
AcDbEntity
8
RASTER
100
AcDbHatch
10
0
20
0
30
0
210
0
220
0
230
1
2
SOLID
70
1
71
0
91
1
92
2
72
0
73
1
93
4
10
185.6
20
33.6
10
188.4
20
33.6
10
188.4
20
19.4
10
185.6
20
19.4
97
0
75
0
76
1
98
1
10
0
20
0
0
HATCH
5
1A4
100
AcDbEntity
8
RASTER
100
AcDbHatch
10
0
20
0
30
0
210
0
220
0
230
1
2
SOLID
70
1
71
0
91
1
92
2
72
0
73
1
93
4
10
205.6
20
33.6
10
208.4
20
33.6
10
208.4
20
19.4
10
205.6
20
19.4
97
0
75
0
76
1
98
1
10
0
20
0
0
HATCH
5
1A5
100
AcDbEntity
8
RASTER
100
AcDbHatch
10
0
20
0
30
0
210
0
220
0
230
1
2
SOLID
70
1
71
0
91
1
92
2
72
0
73
1
93
48
10
191.1
20
31.633
10
191.096
20
31.568
10
191.083
20
31.504
10
191.062
20
31.442
10
191.033
20
31.383
10
190.997
20
31.329
10
190.954
20
31.28
10
190.904
20
31.237
10
190.85
20
31.2
10
190.791
20
31.171
10
190.729
20
31.15
10
190.665
20
31.138
10
190.6
20
31.133
10
190.535
20
31.138
10
190.471
20
31.15
10
190.409
20
31.171
10
190.35
20
31.2
10
190.296
20
31.237
10
190.246
20
31.28
10
190.203
20
31.329
10
190.167
20
31.383
10
190.138
20
31.442
10
190.117
20
31.504
10
190.104
20
31.568
10
190.1
20
31.633
10
190.104
20
31.699
10
190.117
20
31.763
10
190.138
20
31.825
10
190.167
20
31.883
10
190.203
20
31.938
10
190.246
20
31.987
10
190.296
20
32.03
10
190.35
20
32.066
10
190.409
20
32.095
10
190.471
20
32.116
10
190.535
20
32.129
10
190.6
20
32.133
10
190.665
20
32.129
10
190.729
20
32.116
10
190.791
20
32.095
10
190.85
20
32.066
10
190.904
20
32.03
10
190.954
20
31.987
10
190.997
20
31.938
10
191.033
20
31.883
10
191.062
20
31.825
10
191.083
20
31.763
10
191.096
20
31.699
97
0
75
0
76
1
98
1
10
0
20
0
0
HATCH
5
1A6
100
AcDbEntity
8
RASTER
100
AcDbHatch
10
0
20
0
30
0
210
0
220
0
230
1
2
SOLID
70
1
71
0
91
1
92
2
72
0
73
1
93
48
10
203.9
20
31.633
10
203.896
20
31.568
10
203.883
20
31.504
10
203.862
20
31.442
10
203.833
20
31.383
10
203.797
20
31.329
10
203.754
20
31.28
10
203.704
20
31.237
10
203.65
20
31.2
10
203.591
20
31.171
10
203.529
20
31.15
10
203.465
20
31.138
10
203.4
20
31.133
10
203.335
20
31.138
10
203.271
20
31.15
10
203.209
20
31.171
10
203.15
20
31.2
10
203.096
20
31.237
10
203.046
20
31.28
10
203.003
20
31.329
10
202.967
20
31.383
10
202.938
20
31.442
10
202.917
20
31.504
10
202.904
20
31.568
10
202.9
20
31.633
10
202.904
20
31.699
10
202.917
20
31.763
10
202.938
20
31.825
10
202.967
20
31.883
10
203.003
20
31.938
10
203.046
20
31.987
10
203.096
20
32.03
10
203.15
20
32.066
10
203.209
20
32.095
10
203.271
20
32.116
10
203.335
20
32.129
10
203.4
20
32.133
10
203.465
20
32.129
10
203.529
20
32.116
10
203.591
20
32.095
10
203.65
20
32.066
10
203.704
20
32.03
10
203.754
20
31.987
10
203.797
20
31.938
10
203.833
20
31.883
10
203.862
20
31.825
10
203.883
20
31.763
10
203.896
20
31.699
97
0
75
0
76
1
98
1
10
0
20
0
0
HATCH
5
1A7
100
AcDbEntity
8
RASTER
100
AcDbHatch
10
0
20
0
30
0
210
0
220
0
230
1
2
SOLID
70
1
71
0
91
1
92
2
72
0
73
1
93
48
10
191.1
20
26.5
10
191.096
20
26.435
10
191.083
20
26.371
10
191.062
20
26.309
10
191.033
20
26.25
10
190.997
20
26.196
10
190.954
20
26.146
10
190.904
20
26.103
10
190.85
20
26.067
10
190.791
20
26.038
10
190.729
20
26.017
10
190.665
20
26.004
10
190.6
20
26
10
190.535
20
26.004
10
190.471
20
26.017
10
190.409
20
26.038
10
190.35
20
26.067
10
190.296
20
26.103
10
190.246
20
26.146
10
190.203
20
26.196
10
190.167
20
26.25
10
190.138
20
26.309
10
190.117
20
26.371
10
190.104
20
26.435
10
190.1
20
26.5
10
190.104
20
26.565
10
190.117
20
26.629
10
190.138
20
26.691
10
190.167
20
26.75
10
190.203
20
26.804
10
190.246
20
26.854
10
190.296
20
26.897
10
190.35
20
26.933
10
190.409
20
26.962
10
190.471
20
26.983
10
190.535
20
26.996
10
190.6
20
27
10
190.665
20
26.996
10
190.729
20
26.983
10
190.791
20
26.962
10
190.85
20
26.933
10
190.904
20
26.897
10
190.954
20
26.854
10
190.997
20
26.804
10
191.033
20
26.75
10
191.062
20
26.691
10
191.083
20
26.629
10
191.096
20
26.565
97
0
75
0
76
1
98
1
10
0
20
0
0
HATCH
5
1A8
100
AcDbEntity
8
RASTER
100
AcDbHatch
10
0
20
0
30
0
210
0
220
0
230
1
2
SOLID
70
1
71
0
91
1
92
2
72
0
73
1
93
48
10
203.9
20
26.5
10
203.896
20
26.435
10
203.883
20
26.371
10
203.862
20
26.309
10
203.833
20
26.25
10
203.797
20
26.196
10
203.754
20
26.146
10
203.704
20
26.103
10
203.65
20
26.067
10
203.591
20
26.038
10
203.529
20
26.017
10
203.465
20
26.004
10
203.4
20
26
10
203.335
20
26.004
10
203.271
20
26.017
10
203.209
20
26.038
10
203.15
20
26.067
10
203.096
20
26.103
10
203.046
20
26.146
10
203.003
20
26.196
10
202.967
20
26.25
10
202.938
20
26.309
10
202.917
20
26.371
10
202.904
20
26.435
10
202.9
20
26.5
10
202.904
20
26.565
10
202.917
20
26.629
10
202.938
20
26.691
10
202.967
20
26.75
10
203.003
20
26.804
10
203.046
20
26.854
10
203.096
20
26.897
10
203.15
20
26.933
10
203.209
20
26.962
10
203.271
20
26.983
10
203.335
20
26.996
10
203.4
20
27
10
203.465
20
26.996
10
203.529
20
26.983
10
203.591
20
26.962
10
203.65
20
26.933
10
203.704
20
26.897
10
203.754
20
26.854
10
203.797
20
26.804
10
203.833
20
26.75
10
203.862
20
26.691
10
203.883
20
26.629
10
203.896
20
26.565
97
0
75
0
76
1
98
1
10
0
20
0
0
HATCH
5
1A9
100
AcDbEntity
8
RASTER
100
AcDbHatch
10
0
20
0
30
0
210
0
220
0
230
1
2
SOLID
70
1
71
0
91
1
92
2
72
0
73
1
93
48
10
191.1
20
21.367
10
191.096
20
21.301
10
191.083
20
21.237
10
191.062
20
21.175
10
191.033
20
21.117
10
190.997
20
21.062
10
190.954
20
21.013
10
190.904
20
20.97
10
190.85
20
20.934
10
190.791
20
20.905
10
190.729
20
20.884
10
190.665
20
20.871
10
190.6
20
20.867
10
190.535
20
20.871
10
190.471
20
20.884
10
190.409
20
20.905
10
190.35
20
20.934
10
190.296
20
20.97
10
190.246
20
21.013
10
190.203
20
21.062
10
190.167
20
21.117
10
190.138
20
21.175
10
190.117
20
21.237
10
190.104
20
21.301
10
190.1
20
21.367
10
190.104
20
21.432
10
190.117
20
21.496
10
190.138
20
21.558
10
190.167
20
21.617
10
190.203
20
21.671
10
190.246
20
21.72
10
190.296
20
21.763
10
190.35
20
21.8
10
190.409
20
21.829
10
190.471
20
21.85
10
190.535
20
21.862
10
190.6
20
21.867
10
190.665
20
21.862
10
190.729
20
21.85
10
190.791
20
21.829
10
190.85
20
21.8
10
190.904
20
21.763
10
190.954
20
21.72
10
190.997
20
21.671
10
191.033
20
21.617
10
191.062
20
21.558
10
191.083
20
21.496
10
191.096
20
21.432
97
0
75
0
76
1
98
1
10
0
20
0
0
HATCH
5
1AA
100
AcDbEntity
8
RASTER
100
AcDbHatch
10
0
20
0
30
0
210
0
220
0
230
1
2
SOLID
70
1
71
0
91
1
92
2
72
0
73
1
93
48
10
203.9
20
21.367
10
203.896
20
21.301
10
203.883
20
21.237
10
203.862
20
21.175
10
203.833
20
21.117
10
203.797
20
21.062
10
203.754
20
21.013
10
203.704
20
20.97
10
203.65
20
20.934
10
203.591
20
20.905
10
203.529
20
20.884
10
203.465
20
20.871
10
203.4
20
20.867
10
203.335
20
20.871
10
203.271
20
20.884
10
203.209
20
20.905
10
203.15
20
20.934
10
203.096
20
20.97
10
203.046
20
21.013
10
203.003
20
21.062
10
202.967
20
21.117
10
202.938
20
21.175
10
202.917
20
21.237
10
202.904
20
21.301
10
202.9
20
21.367
10
202.904
20
21.432
10
202.917
20
21.496
10
202.938
20
21.558
10
202.967
20
21.617
10
203.003
20
21.671
10
203.046
20
21.72
10
203.096
20
21.763
10
203.15
20
21.8
10
203.209
20
21.829
10
203.271
20
21.85
10
203.335
20
21.862
10
203.4
20
21.867
10
203.465
20
21.862
10
203.529
20
21.85
10
203.591
20
21.829
10
203.65
20
21.8
10
203.704
20
21.763
10
203.754
20
21.72
10
203.797
20
21.671
10
203.833
20
21.617
10
203.862
20
21.558
10
203.883
20
21.496
10
203.896
20
21.432
97
0
75
0
76
1
98
1
10
0
20
0
0
LWPOLYLINE
5
1AB
100
AcDbEntity
8
CUT
100
AcDbPolyline
90
27
70
1
10
219
20
34
10
243
20
34
10
243
20
34
10
243
20
29
10
246
20
29
10
246
20
24
10
243
20
24
10
243
20
19
10
243
20
19
10
243
20
19
10
238.2
20
19
10
238.2
20
16
10
233.4
20
16
10
233.4
20
19
10
228.6
20
19
10
228.6
20
16
10
223.8
20
16
10
223.8
20
19
10
219
20
19
10
219
20
19
10
219
20
19
10
219
20
24
10
216
20
24
10
216
20
29
10
219
20
29
10
219
20
34
10
219
20
34
0
LWPOLYLINE
5
1AC
100
AcDbEntity
8
CUT
100
AcDbPolyline
90
4
70
1
10
223
20
29.767
10
239
20
29.767
10
239
20
28.367
10
223
20
28.367
0
LWPOLYLINE
5
1AD
100
AcDbEntity
8
CUT
100
AcDbPolyline
90
4
70
1
10
223
20
24.633
10
239
20
24.633
10
239
20
23.233
10
223
20
23.233
0
HATCH
5
1AE
100
AcDbEntity
8
RASTER
100
AcDbHatch
10
0
20
0
30
0
210
0
220
0
230
1
2
SOLID
70
1
71
0
91
1
92
2
72
0
73
1
93
4
10
219.6
20
33.6
10
222.4
20
33.6
10
222.4
20
19.4
10
219.6
20
19.4
97
0
75
0
76
1
98
1
10
0
20
0
0
HATCH
5
1AF
100
AcDbEntity
8
RASTER
100
AcDbHatch
10
0
20
0
30
0
210
0
220
0
230
1
2
SOLID
70
1
71
0
91
1
92
2
72
0
73
1
93
4
10
239.6
20
33.6
10
242.4
20
33.6
10
242.4
20
19.4
10
239.6
20
19.4
97
0
75
0
76
1
98
1
10
0
20
0
0
HATCH
5
1B0
100
AcDbEntity
8
RASTER
100
AcDbHatch
10
0
20
0
30
0
210
0
220
0
230
1
2
SOLID
70
1
71
0
91
1
92
2
72
0
73
1
93
48
10
225.1
20
31.633
10
225.096
20
31.568
10
225.083
20
31.504
10
225.062
20
31.442
10
225.033
20
31.383
10
224.997
20
31.329
10
224.954
20
31.28
10
224.904
20
31.237
10
224.85
20
31.2
10
224.791
20
31.171
10
224.729
20
31.15
10
224.665
20
31.138
10
224.6
20
31.133
10
224.535
20
31.138
10
224.471
20
31.15
10
224.409
20
31.171
10
224.35
20
31.2
10
224.296
20
31.237
10
224.246
20
31.28
10
224.203
20
31.329
10
224.167
20
31.383
10
224.138
20
31.442
10
224.117
20
31.504
10
224.104
20
31.568
10
224.1
20
31.633
10
224.104
20
31.699
10
224.117
20
31.763
10
224.138
20
31.825
10
224.167
20
31.883
10
224.203
20
31.938
10
224.246
20
31.987
10
224.296
20
32.03
10
224.35
20
32.066
10
224.409
20
32.095
10
224.471
20
32.116
10
224.535
20
32.129
10
224.6
20
32.133
10
224.665
20
32.129
10
224.729
20
32.116
10
224.791
20
32.095
10
224.85
20
32.066
10
224.904
20
32.03
10
224.954
20
31.987
10
224.997
20
31.938
10
225.033
20
31.883
10
225.062
20
31.825
10
225.083
20
31.763
10
225.096
20
31.699
97
0
75
0
76
1
98
1
10
0
20
0
0
HATCH
5
1B1
100
AcDbEntity
8
RASTER
100
AcDbHatch
10
0
20
0
30
0
210
0
220
0
230
1
2
SOLID
70
1
71
0
91
1
92
2
72
0
73
1
93
48
10
237.9
20
31.633
10
237.896
20
31.568
10
237.883
20
31.504
10
237.862
20
31.442
10
237.833
20
31.383
10
237.797
20
31.329
10
237.754
20
31.28
10
237.704
20
31.237
10
237.65
20
31.2
10
237.591
20
31.171
10
237.529
20
31.15
10
237.465
20
31.138
10
237.4
20
31.133
10
237.335
20
31.138
10
237.271
20
31.15
10
237.209
20
31.171
10
237.15
20
31.2
10
237.096
20
31.237
10
237.046
20
31.28
10
237.003
20
31.329
10
236.967
20
31.383
10
236.938
20
31.442
10
236.917
20
31.504
10
236.904
20
31.568
10
236.9
20
31.633
10
236.904
20
31.699
10
236.917
20
31.763
10
236.938
20
31.825
10
236.967
20
31.883
10
237.003
20
31.938
10
237.046
20
31.987
10
237.096
20
32.03
10
237.15
20
32.066
10
237.209
20
32.095
10
237.271
20
32.116
10
237.335
20
32.129
10
237.4
20
32.133
10
237.465
20
32.129
10
237.529
20
32.116
10
237.591
20
32.095
10
237.65
20
32.066
10
237.704
20
32.03
10
237.754
20
31.987
10
237.797
20
31.938
10
237.833
20
31.883
10
237.862
20
31.825
10
237.883
20
31.763
10
237.896
20
31.699
97
0
75
0
76
1
98
1
10
0
20
0
0
HATCH
5
1B2
100
AcDbEntity
8
RASTER
100
AcDbHatch
10
0
20
0
30
0
210
0
220
0
230
1
2
SOLID
70
1
71
0
91
1
92
2
72
0
73
1
93
48
10
225.1
20
26.5
10
225.096
20
26.435
10
225.083
20
26.371
10
225.062
20
26.309
10
225.033
20
26.25
10
224.997
20
26.196
10
224.954
20
26.146
10
224.904
20
26.103
10
224.85
20
26.067
10
224.791
20
26.038
10
224.729
20
26.017
10
224.665
20
26.004
10
224.6
20
26
10
224.535
20
26.004
10
224.471
20
26.017
10
224.409
20
26.038
10
224.35
20
26.067
10
224.296
20
26.103
10
224.246
20
26.146
10
224.203
20
26.196
10
224.167
20
26.25
10
224.138
20
26.309
10
224.117
20
26.371
10
224.104
20
26.435
10
224.1
20
26.5
10
224.104
20
26.565
10
224.117
20
26.629
10
224.138
20
26.691
10
224.167
20
26.75
10
224.203
20
26.804
10
224.246
20
26.854
10
224.296
20
26.897
10
224.35
20
26.933
10
224.409
20
26.962
10
224.471
20
26.983
10
224.535
20
26.996
10
224.6
20
27
10
224.665
20
26.996
10
224.729
20
26.983
10
224.791
20
26.962
10
224.85
20
26.933
10
224.904
20
26.897
10
224.954
20
26.854
10
224.997
20
26.804
10
225.033
20
26.75
10
225.062
20
26.691
10
225.083
20
26.629
10
225.096
20
26.565
97
0
75
0
76
1
98
1
10
0
20
0
0
HATCH
5
1B3
100
AcDbEntity
8
RASTER
100
AcDbHatch
10
0
20
0
30
0
210
0
220
0
230
1
2
SOLID
70
1
71
0
91
1
92
2
72
0
73
1
93
48
10
237.9
20
26.5
10
237.896
20
26.435
10
237.883
20
26.371
10
237.862
20
26.309
10
237.833
20
26.25
10
237.797
20
26.196
10
237.754
20
26.146
10
237.704
20
26.103
10
237.65
20
26.067
10
237.591
20
26.038
10
237.529
20
26.017
10
237.465
20
26.004
10
237.4
20
26
10
237.335
20
26.004
10
237.271
20
26.017
10
237.209
20
26.038
10
237.15
20
26.067
10
237.096
20
26.103
10
237.046
20
26.146
10
237.003
20
26.196
10
236.967
20
26.25
10
236.938
20
26.309
10
236.917
20
26.371
10
236.904
20
26.435
10
236.9
20
26.5
10
236.904
20
26.565
10
236.917
20
26.629
10
236.938
20
26.691
10
236.967
20
26.75
10
237.003
20
26.804
10
237.046
20
26.854
10
237.096
20
26.897
10
237.15
20
26.933
10
237.209
20
26.962
10
237.271
20
26.983
10
237.335
20
26.996
10
237.4
20
27
10
237.465
20
26.996
10
237.529
20
26.983
10
237.591
20
26.962
10
237.65
20
26.933
10
237.704
20
26.897
10
237.754
20
26.854
10
237.797
20
26.804
10
237.833
20
26.75
10
237.862
20
26.691
10
237.883
20
26.629
10
237.896
20
26.565
97
0
75
0
76
1
98
1
10
0
20
0
0
HATCH
5
1B4
100
AcDbEntity
8
RASTER
100
AcDbHatch
10
0
20
0
30
0
210
0
220
0
230
1
2
SOLID
70
1
71
0
91
1
92
2
72
0
73
1
93
48
10
225.1
20
21.367
10
225.096
20
21.301
10
225.083
20
21.237
10
225.062
20
21.175
10
225.033
20
21.117
10
224.997
20
21.062
10
224.954
20
21.013
10
224.904
20
20.97
10
224.85
20
20.934
10
224.791
20
20.905
10
224.729
20
20.884
10
224.665
20
20.871
10
224.6
20
20.867
10
224.535
20
20.871
10
224.471
20
20.884
10
224.409
20
20.905
10
224.35
20
20.934
10
224.296
20
20.97
10
224.246
20
21.013
10
224.203
20
21.062
10
224.167
20
21.117
10
224.138
20
21.175
10
224.117
20
21.237
10
224.104
20
21.301
10
224.1
20
21.367
10
224.104
20
21.432
10
224.117
20
21.496
10
224.138
20
21.558
10
224.167
20
21.617
10
224.203
20
21.671
10
224.246
20
21.72
10
224.296
20
21.763
10
224.35
20
21.8
10
224.409
20
21.829
10
224.471
20
21.85
10
224.535
20
21.862
10
224.6
20
21.867
10
224.665
20
21.862
10
224.729
20
21.85
10
224.791
20
21.829
10
224.85
20
21.8
10
224.904
20
21.763
10
224.954
20
21.72
10
224.997
20
21.671
10
225.033
20
21.617
10
225.062
20
21.558
10
225.083
20
21.496
10
225.096
20
21.432
97
0
75
0
76
1
98
1
10
0
20
0
0
HATCH
5
1B5
100
AcDbEntity
8
RASTER
100
AcDbHatch
10
0
20
0
30
0
210
0
220
0
230
1
2
SOLID
70
1
71
0
91
1
92
2
72
0
73
1
93
48
10
237.9
20
21.367
10
237.896
20
21.301
10
237.883
20
21.237
10
237.862
20
21.175
10
237.833
20
21.117
10
237.797
20
21.062
10
237.754
20
21.013
10
237.704
20
20.97
10
237.65
20
20.934
10
237.591
20
20.905
10
237.529
20
20.884
10
237.465
20
20.871
10
237.4
20
20.867
10
237.335
20
20.871
10
237.271
20
20.884
10
237.209
20
20.905
10
237.15
20
20.934
10
237.096
20
20.97
10
237.046
20
21.013
10
237.003
20
21.062
10
236.967
20
21.117
10
236.938
20
21.175
10
236.917
20
21.237
10
236.904
20
21.301
10
236.9
20
21.367
10
236.904
20
21.432
10
236.917
20
21.496
10
236.938
20
21.558
10
236.967
20
21.617
10
237.003
20
21.671
10
237.046
20
21.72
10
237.096
20
21.763
10
237.15
20
21.8
10
237.209
20
21.829
10
237.271
20
21.85
10
237.335
20
21.862
10
237.4
20
21.867
10
237.465
20
21.862
10
237.529
20
21.85
10
237.591
20
21.829
10
237.65
20
21.8
10
237.704
20
21.763
10
237.754
20
21.72
10
237.797
20
21.671
10
237.833
20
21.617
10
237.862
20
21.558
10
237.883
20
21.496
10
237.896
20
21.432
97
0
75
0
76
1
98
1
10
0
20
0
0
LWPOLYLINE
5
1B6
100
AcDbEntity
8
CUT
100
AcDbPolyline
90
64
70
1
10
250
20
34
10
253
20
34
10
253
20
34
10
258.429
20
34
10
258.429
20
31
10
263.857
20
31
10
263.857
20
34
10
269.286
20
34
10
269.286
20
31
10
274.714
20
31
10
274.714
20
34
10
280.143
20
34
10
280.143
20
31
10
285.571
20
31
10
285.571
20
34
10
291
20
34
10
291
20
34
10
291
20
34
10
294
20
34
10
294
20
31
10
294
20
31
10
294
20
26.2
10
291
20
26.2
10
291
20
21.4
10
294
20
21.4
10
294
20
16.6
10
291
20
16.6
10
291
20
11.8
10
294
20
11.8
10
294
20
7
10
294
20
7
10
294
20
7
10
294
20
4
10
291
20
4
10
291
20
4
10
285.571
20
4
10
285.571
20
7
10
280.143
20
7
10
280.143
20
4
10
274.714
20
4
10
274.714
20
7
10
269.286
20
7
10
269.286
20
4
10
263.857
20
4
10
263.857
20
7
10
258.429
20
7
10
258.429
20
4
10
253
20
4
10
253
20
4
10
253
20
4
10
250
20
4
10
250
20
7
10
250
20
7
10
250
20
11.8
10
253
20
11.8
10
253
20
16.6
10
250
20
16.6
10
250
20
21.4
10
253
20
21.4
10
253
20
26.2
10
250
20
26.2
10
250
20
31
10
250
20
31
10
250
20
31
0
ENDSEC
0
EOF
