0
SECTION
2
HEADER
9
$ACADVER
1
AC1009
9
$EXTMIN
10
0
20
0
9
$EXTMAX
10
168.034
20
29.964
0
ENDSEC
0
SECTION
2
TABLES
0
TABLE
2
LAYER
70
2
0
LAYER
2
CUT
70
0
62
1
6
CONTINUOUS
0
LAYER
2
RASTER
70
0
62
7
6
CONTINUOUS
0
ENDTAB
0
ENDSEC
0
SECTION
2
ENTITIES
0
POLYLINE
8
CUT
66
1
70
1
0
VERTEX
8
CUT
10
8.801
20
25.882
30
0
0
VERTEX
8
CUT
10
11.304
20
25.831
30
0
0
VERTEX
8
CUT
10
12.387
20
24.054
30
0
0
VERTEX
8
CUT
10
13.593
20
23.727
30
0
0
VERTEX
8
CUT
10
14.267
20
23.012
30
0
0
VERTEX
8
CUT
10
14.849
20
23.308
30
0
0
VERTEX
8
CUT
10
15.503
20
24.697
30
0
0
VERTEX
8
CUT
10
15.922
20
24.994
30
0
0
VERTEX
8
CUT
10
17.434
20
25.116
30
0
0
VERTEX
8
CUT
10
19.242
20
25.964
30
0
0
VERTEX
8
CUT
10
21.632
20
25.841
30
0
0
VERTEX
8
CUT
10
21.877
20
25.167
30
0
0
VERTEX
8
CUT
10
21.867
20
22.797
30
0
0
VERTEX
8
CUT
10
22.47
20
21.776
30
0
0
VERTEX
8
CUT
10
22.47
20
19.978
30
0
0
VERTEX
8
CUT
10
22.102
20
19.12
30
0
0
VERTEX
8
CUT
10
21.213
20
18.169
30
0
0
VERTEX
8
CUT
10
20.754
20
16.739
30
0
0
VERTEX
8
CUT
10
21.551
20
15.748
30
0
0
VERTEX
8
CUT
10
23.573
20
15.421
30
0
0
VERTEX
8
CUT
10
23.818
20
13.215
30
0
0
VERTEX
8
CUT
10
23.573
20
12.336
30
0
0
VERTEX
8
CUT
10
22.501
20
11.264
30
0
0
VERTEX
8
CUT
10
22.358
20
10.079
30
0
0
VERTEX
8
CUT
10
22.02
20
9.599
30
0
0
VERTEX
8
CUT
10
20.703
20
9.384
30
0
0
VERTEX
8
CUT
10
19.947
20
8.812
30
0
0
VERTEX
8
CUT
10
18.762
20
8.669
30
0
0
VERTEX
8
CUT
10
18.036
20
8.168
30
0
0
VERTEX
8
CUT
10
16.892
20
8.087
30
0
0
VERTEX
8
CUT
10
15.728
20
7.515
30
0
0
VERTEX
8
CUT
10
12.826
20
7.535
30
0
0
VERTEX
8
CUT
10
11.406
20
7.954
30
0
0
VERTEX
8
CUT
10
9.966
20
4.797
30
0
0
VERTEX
8
CUT
10
9.394
20
4.552
30
0
0
VERTEX
8
CUT
10
7.575
20
4.532
30
0
0
VERTEX
8
CUT
10
4.879
20
5.206
30
0
0
VERTEX
8
CUT
10
4.664
20
6.319
30
0
0
VERTEX
8
CUT
10
4.051
20
7.239
30
0
0
VERTEX
8
CUT
10
4
20
9.026
30
0
0
VERTEX
8
CUT
10
4.48
20
9.976
30
0
0
VERTEX
8
CUT
10
7.32
20
10.916
30
0
0
VERTEX
8
CUT
10
8.066
20
11.519
30
0
0
VERTEX
8
CUT
10
6.942
20
12.888
30
0
0
VERTEX
8
CUT
10
6.493
20
14.277
30
0
0
VERTEX
8
CUT
10
6.554
20
20.366
30
0
0
VERTEX
8
CUT
10
6.83
20
22.95
30
0
0
VERTEX
8
CUT
10
7.862
20
23.553
30
0
0
VERTEX
8
CUT
10
8.342
20
25.32
30
0
0
SEQEND
8
CUT
0
POLYLINE
8
RASTER
66
1
70
1
0
VERTEX
8
RASTER
10
9.854
20
24.932
30
0
0
VERTEX
8
RASTER
10
10.262
20
24.789
30
0
0
VERTEX
8
RASTER
10
10.671
20
24.278
30
0
0
VERTEX
8
RASTER
10
11.049
20
23.533
30
0
0
VERTEX
8
RASTER
10
11.386
20
22.337
30
0
0
VERTEX
8
RASTER
10
12.377
20
22.818
30
0
0
VERTEX
8
RASTER
10
12.612
20
22.746
30
0
0
VERTEX
8
RASTER
10
12.785
20
22.511
30
0
0
VERTEX
8
RASTER
10
12.785
20
22
30
0
0
VERTEX
8
RASTER
10
12.888
20
21.694
30
0
0
VERTEX
8
RASTER
10
12.683
20
20.672
30
0
0
VERTEX
8
RASTER
10
12.479
20
20.264
30
0
0
VERTEX
8
RASTER
10
12.918
20
20.09
30
0
0
VERTEX
8
RASTER
10
13.092
20
19.855
30
0
0
VERTEX
8
RASTER
10
13.092
20
19.242
30
0
0
VERTEX
8
RASTER
10
12.785
20
18.323
30
0
0
VERTEX
8
RASTER
10
12.857
20
18.088
30
0
0
VERTEX
8
RASTER
10
13.02
20
17.945
30
0
0
VERTEX
8
RASTER
10
13.398
20
19.14
30
0
0
VERTEX
8
RASTER
10
13.674
20
19.681
30
0
0
VERTEX
8
RASTER
10
14.011
20
19.957
30
0
0
VERTEX
8
RASTER
10
14.389
20
19.784
30
0
0
VERTEX
8
RASTER
10
14.522
20
20.672
30
0
0
VERTEX
8
RASTER
10
14.726
20
21.285
30
0
0
VERTEX
8
RASTER
10
15.104
20
21.929
30
0
0
VERTEX
8
RASTER
10
15.442
20
22
30
0
0
VERTEX
8
RASTER
10
15.717
20
21.868
30
0
0
VERTEX
8
RASTER
10
15.779
20
21.724
30
0
0
VERTEX
8
RASTER
10
15.922
20
21.724
30
0
0
VERTEX
8
RASTER
10
16.054
20
22.613
30
0
0
VERTEX
8
RASTER
10
16.739
20
23.87
30
0
0
VERTEX
8
RASTER
10
17.076
20
24.043
30
0
0
VERTEX
8
RASTER
10
17.209
20
23.972
30
0
0
VERTEX
8
RASTER
10
17.965
20
23.053
30
0
0
VERTEX
8
RASTER
10
18.271
20
23.563
30
0
0
VERTEX
8
RASTER
10
19.089
20
24.381
30
0
0
VERTEX
8
RASTER
10
19.732
20
24.759
30
0
0
VERTEX
8
RASTER
10
20.447
20
24.963
30
0
0
VERTEX
8
RASTER
10
20.58
20
24.891
30
0
0
VERTEX
8
RASTER
10
20.754
20
24.656
30
0
0
VERTEX
8
RASTER
10
20.754
20
23.533
30
0
0
VERTEX
8
RASTER
10
20.447
20
22.409
30
0
0
VERTEX
8
RASTER
10
20.039
20
21.592
30
0
0
VERTEX
8
RASTER
10
20.141
20
21.49
30
0
0
VERTEX
8
RASTER
10
20.958
20
21.387
30
0
0
VERTEX
8
RASTER
10
21.295
20
21.214
30
0
0
VERTEX
8
RASTER
10
21.367
20
20.774
30
0
0
VERTEX
8
RASTER
10
21.091
20
20.233
30
0
0
VERTEX
8
RASTER
10
20.825
20
19.988
30
0
0
VERTEX
8
RASTER
10
20.682
20
19.722
30
0
0
VERTEX
8
RASTER
10
19.804
20
19.068
30
0
0
VERTEX
8
RASTER
10
19.804
20
18.905
30
0
0
VERTEX
8
RASTER
10
20.039
20
18.629
30
0
0
VERTEX
8
RASTER
10
19.865
20
18.088
30
0
0
VERTEX
8
RASTER
10
19.354
20
17.577
30
0
0
VERTEX
8
RASTER
10
18.476
20
17.025
30
0
0
VERTEX
8
RASTER
10
18.435
20
16.923
30
0
0
VERTEX
8
RASTER
10
18.711
20
16.688
30
0
0
VERTEX
8
RASTER
10
18.711
20
16.382
30
0
0
VERTEX
8
RASTER
10
18.537
20
16.045
30
0
0
VERTEX
8
RASTER
10
17.209
20
14.982
30
0
0
VERTEX
8
RASTER
10
17.587
20
14.952
30
0
0
VERTEX
8
RASTER
10
17.791
20
15.054
30
0
0
VERTEX
8
RASTER
10
18.169
20
14.778
30
0
0
VERTEX
8
RASTER
10
19.323
20
15.462
30
0
0
VERTEX
8
RASTER
10
19.936
20
15.564
30
0
0
VERTEX
8
RASTER
10
20.243
20
15.258
30
0
0
VERTEX
8
RASTER
10
20.171
20
14.471
30
0
0
VERTEX
8
RASTER
10
22.184
20
14.543
30
0
0
VERTEX
8
RASTER
10
22.725
20
14.267
30
0
0
VERTEX
8
RASTER
10
22.797
20
13.828
30
0
0
VERTEX
8
RASTER
10
22.623
20
13.491
30
0
0
VERTEX
8
RASTER
10
21.806
20
12.673
30
0
0
VERTEX
8
RASTER
10
20.652
20
12.193
30
0
0
VERTEX
8
RASTER
10
21.193
20
11.611
30
0
0
VERTEX
8
RASTER
10
21.367
20
11.274
30
0
0
VERTEX
8
RASTER
10
21.295
20
10.835
30
0
0
VERTEX
8
RASTER
10
21.06
20
10.661
30
0
0
VERTEX
8
RASTER
10
20.652
20
10.559
30
0
0
VERTEX
8
RASTER
10
19.323
20
10.559
30
0
0
VERTEX
8
RASTER
10
19.221
20
10.457
30
0
0
VERTEX
8
RASTER
10
19.15
20
10.017
30
0
0
VERTEX
8
RASTER
10
18.915
20
9.844
30
0
0
VERTEX
8
RASTER
10
17.587
20
9.844
30
0
0
VERTEX
8
RASTER
10
17.383
20
9.946
30
0
0
VERTEX
8
RASTER
10
17.311
20
9.915
30
0
0
VERTEX
8
RASTER
10
17.383
20
9.742
30
0
0
VERTEX
8
RASTER
10
17.311
20
9.302
30
0
0
VERTEX
8
RASTER
10
16.872
20
9.129
30
0
0
VERTEX
8
RASTER
10
15.442
20
9.231
30
0
0
VERTEX
8
RASTER
10
15.309
20
8.751
30
0
0
VERTEX
8
RASTER
10
15.033
20
8.618
30
0
0
VERTEX
8
RASTER
10
13.705
20
8.618
30
0
0
VERTEX
8
RASTER
10
13.296
20
8.72
30
0
0
VERTEX
8
RASTER
10
12.551
20
9.098
30
0
0
VERTEX
8
RASTER
10
11.835
20
9.915
30
0
0
VERTEX
8
RASTER
10
10.262
20
9.302
30
0
0
VERTEX
8
RASTER
10
9.721
20
7.596
30
0
0
VERTEX
8
RASTER
10
9.036
20
6.033
30
0
0
VERTEX
8
RASTER
10
8.832
20
5.727
30
0
0
VERTEX
8
RASTER
10
8.495
20
5.553
30
0
0
VERTEX
8
RASTER
10
8.188
20
5.553
30
0
0
VERTEX
8
RASTER
10
7.851
20
5.727
30
0
0
VERTEX
8
RASTER
10
7.678
20
6.064
30
0
0
VERTEX
8
RASTER
10
7.678
20
6.268
30
0
0
VERTEX
8
RASTER
10
8.158
20
7.157
30
0
0
VERTEX
8
RASTER
10
7.545
20
6.707
30
0
0
VERTEX
8
RASTER
10
7.095
20
6.238
30
0
0
VERTEX
8
RASTER
10
6.554
20
5.962
30
0
0
VERTEX
8
RASTER
10
6.247
20
5.962
30
0
0
VERTEX
8
RASTER
10
5.972
20
6.095
30
0
0
VERTEX
8
RASTER
10
5.839
20
6.37
30
0
0
VERTEX
8
RASTER
10
5.91
20
6.912
30
0
0
VERTEX
8
RASTER
10
7.034
20
7.974
30
0
0
VERTEX
8
RASTER
10
6.758
20
8.005
30
0
0
VERTEX
8
RASTER
10
6.247
20
7.801
30
0
0
VERTEX
8
RASTER
10
5.839
20
7.801
30
0
0
VERTEX
8
RASTER
10
5.635
20
7.698
30
0
0
VERTEX
8
RASTER
10
5.195
20
7.974
30
0
0
VERTEX
8
RASTER
10
5.124
20
8.618
30
0
0
VERTEX
8
RASTER
10
5.195
20
8.751
30
0
0
VERTEX
8
RASTER
10
5.532
20
8.924
30
0
0
VERTEX
8
RASTER
10
7.678
20
9.537
30
0
0
VERTEX
8
RASTER
10
9.138
20
10.222
30
0
0
VERTEX
8
RASTER
10
9.414
20
10.967
30
0
0
VERTEX
8
RASTER
10
9.619
20
11.989
30
0
0
VERTEX
8
RASTER
10
9.619
20
12.602
30
0
0
VERTEX
8
RASTER
10
8.873
20
12.98
30
0
0
VERTEX
8
RASTER
10
8.26
20
13.593
30
0
0
VERTEX
8
RASTER
10
7.78
20
14.441
30
0
0
VERTEX
8
RASTER
10
7.575
20
15.156
30
0
0
VERTEX
8
RASTER
10
7.647
20
15.902
30
0
0
VERTEX
8
RASTER
10
8.086
20
16.075
30
0
0
VERTEX
8
RASTER
10
7.678
20
17.199
30
0
0
VERTEX
8
RASTER
10
7.678
20
17.71
30
0
0
VERTEX
8
RASTER
10
7.749
20
17.843
30
0
0
VERTEX
8
RASTER
10
8.188
20
18.016
30
0
0
VERTEX
8
RASTER
10
7.678
20
19.344
30
0
0
VERTEX
8
RASTER
10
7.678
20
19.855
30
0
0
VERTEX
8
RASTER
10
7.749
20
19.988
30
0
0
VERTEX
8
RASTER
10
8.188
20
20.162
30
0
0
VERTEX
8
RASTER
10
7.882
20
20.979
30
0
0
VERTEX
8
RASTER
10
7.81
20
21.724
30
0
0
VERTEX
8
RASTER
10
7.882
20
22
30
0
0
VERTEX
8
RASTER
10
8.086
20
22.205
30
0
0
VERTEX
8
RASTER
10
8.495
20
22.205
30
0
0
VERTEX
8
RASTER
10
9.179
20
21.929
30
0
0
VERTEX
8
RASTER
10
9.108
20
23.226
30
0
0
VERTEX
8
RASTER
10
9.312
20
24.043
30
0
0
VERTEX
8
RASTER
10
9.69
20
24.789
30
0
0
SEQEND
8
RASTER
0
POLYLINE
8
RASTER
66
1
70
1
0
VERTEX
8
RASTER
10
20.314
20
24.524
30
0
0
VERTEX
8
RASTER
10
19.191
20
23.972
30
0
0
VERTEX
8
RASTER
10
18.476
20
23.155
30
0
0
VERTEX
8
RASTER
10
18.098
20
22.409
30
0
0
VERTEX
8
RASTER
10
18.098
20
21.592
30
0
0
VERTEX
8
RASTER
10
18.2
20
21.387
30
0
0
VERTEX
8
RASTER
10
18.098
20
21.183
30
0
0
VERTEX
8
RASTER
10
18.128
20
20.907
30
0
0
VERTEX
8
RASTER
10
19.15
20
21.459
30
0
0
VERTEX
8
RASTER
10
19.763
20
21.97
30
0
0
VERTEX
8
RASTER
10
20.345
20
23.226
30
0
0
VERTEX
8
RASTER
10
20.243
20
23.431
30
0
0
VERTEX
8
RASTER
10
20.345
20
23.635
30
0
0
SEQEND
8
RASTER
0
POLYLINE
8
RASTER
66
1
70
1
0
VERTEX
8
RASTER
10
10.027
20
24.452
30
0
0
VERTEX
8
RASTER
10
9.823
20
24.146
30
0
0
VERTEX
8
RASTER
10
9.516
20
23.226
30
0
0
VERTEX
8
RASTER
10
9.414
20
22.307
30
0
0
VERTEX
8
RASTER
10
9.69
20
21.459
30
0
0
VERTEX
8
RASTER
10
10.16
20
21.112
30
0
0
VERTEX
8
RASTER
10
10.303
20
20.846
30
0
0
VERTEX
8
RASTER
10
10.436
20
20.774
30
0
0
VERTEX
8
RASTER
10
10.538
20
20.877
30
0
0
VERTEX
8
RASTER
10
10.671
20
21.459
30
0
0
VERTEX
8
RASTER
10
10.947
20
21.796
30
0
0
VERTEX
8
RASTER
10
11.018
20
22.378
30
0
0
VERTEX
8
RASTER
10
10.844
20
22.409
30
0
0
VERTEX
8
RASTER
10
10.742
20
23.226
30
0
0
VERTEX
8
RASTER
10
10.16
20
24.381
30
0
0
SEQEND
8
RASTER
0
POLYLINE
8
RASTER
66
1
70
1
0
VERTEX
8
RASTER
10
17.076
20
23.533
30
0
0
VERTEX
8
RASTER
10
16.943
20
23.461
30
0
0
VERTEX
8
RASTER
10
16.463
20
22.511
30
0
0
VERTEX
8
RASTER
10
16.259
20
21.796
30
0
0
VERTEX
8
RASTER
10
16.259
20
20.979
30
0
0
VERTEX
8
RASTER
10
16.902
20
18.966
30
0
0
VERTEX
8
RASTER
10
17.587
20
19.038
30
0
0
VERTEX
8
RASTER
10
17.791
20
19.14
30
0
0
VERTEX
8
RASTER
10
18.915
20
19.14
30
0
0
VERTEX
8
RASTER
10
20.069
20
19.722
30
0
0
VERTEX
8
RASTER
10
20.58
20
20.233
30
0
0
VERTEX
8
RASTER
10
20.989
20
20.846
30
0
0
VERTEX
8
RASTER
10
20.989
20
21.009
30
0
0
VERTEX
8
RASTER
10
20.856
20
21.081
30
0
0
VERTEX
8
RASTER
10
19.323
20
21.081
30
0
0
VERTEX
8
RASTER
10
18.271
20
20.601
30
0
0
VERTEX
8
RASTER
10
17.965
20
20.396
30
0
0
VERTEX
8
RASTER
10
17.72
20
20.029
30
0
0
VERTEX
8
RASTER
10
17.556
20
20.029
30
0
0
VERTEX
8
RASTER
10
17.515
20
20.131
30
0
0
VERTEX
8
RASTER
10
17.791
20
20.774
30
0
0
VERTEX
8
RASTER
10
17.791
20
22.102
30
0
0
VERTEX
8
RASTER
10
17.515
20
22.848
30
0
0
VERTEX
8
RASTER
10
17.209
20
23.461
30
0
0
SEQEND
8
RASTER
0
POLYLINE
8
RASTER
66
1
70
1
0
VERTEX
8
RASTER
10
12.173
20
22.409
30
0
0
VERTEX
8
RASTER
10
11.999
20
22.276
30
0
0
VERTEX
8
RASTER
10
12.04
20
22.133
30
0
0
VERTEX
8
RASTER
10
11.866
20
22.205
30
0
0
VERTEX
8
RASTER
10
11.325
20
21.827
30
0
0
VERTEX
8
RASTER
10
11.284
20
21.561
30
0
0
VERTEX
8
RASTER
10
10.814
20
21.009
30
0
0
VERTEX
8
RASTER
10
10.64
20
20.672
30
0
0
VERTEX
8
RASTER
10
10.507
20
19.681
30
0
0
VERTEX
8
RASTER
10
10.334
20
19.855
30
0
0
VERTEX
8
RASTER
10
10.334
20
20.059
30
0
0
VERTEX
8
RASTER
10
10.058
20
20.601
30
0
0
VERTEX
8
RASTER
10
9.547
20
21.214
30
0
0
VERTEX
8
RASTER
10
8.219
20
21.868
30
0
0
VERTEX
8
RASTER
10
8.188
20
21.183
30
0
0
VERTEX
8
RASTER
10
8.669
20
20.029
30
0
0
VERTEX
8
RASTER
10
8.975
20
19.722
30
0
0
VERTEX
8
RASTER
10
9.854
20
19.273
30
0
0
VERTEX
8
RASTER
10
10.405
20
18.701
30
0
0
VERTEX
8
RASTER
10
10.569
20
18.701
30
0
0
VERTEX
8
RASTER
10
10.712
20
18.966
30
0
0
VERTEX
8
RASTER
10
11.692
20
19.824
30
0
0
VERTEX
8
RASTER
10
12.173
20
20.468
30
0
0
VERTEX
8
RASTER
10
12.479
20
21.592
30
0
0
VERTEX
8
RASTER
10
12.479
20
22.307
30
0
0
VERTEX
8
RASTER
10
12.377
20
22.409
30
0
0
SEQEND
8
RASTER
0
POLYLINE
8
RASTER
66
1
70
1
0
VERTEX
8
RASTER
10
15.339
20
21.49
30
0
0
VERTEX
8
RASTER
10
14.829
20
20.366
30
0
0
VERTEX
8
RASTER
10
14.726
20
19.344
30
0
0
VERTEX
8
RASTER
10
15.339
20
17.812
30
0
0
VERTEX
8
RASTER
10
15.442
20
17.403
30
0
0
VERTEX
8
RASTER
10
15.37
20
16.923
30
0
0
VERTEX
8
RASTER
10
16.361
20
17.199
30
0
0
VERTEX
8
RASTER
10
17.791
20
17.199
30
0
0
VERTEX
8
RASTER
10
18.843
20
17.679
30
0
0
VERTEX
8
RASTER
10
19.456
20
18.19
30
0
0
VERTEX
8
RASTER
10
19.63
20
18.527
30
0
0
VERTEX
8
RASTER
10
19.528
20
18.629
30
0
0
VERTEX
8
RASTER
10
18.813
20
18.833
30
0
0
VERTEX
8
RASTER
10
17.791
20
18.833
30
0
0
VERTEX
8
RASTER
10
16.739
20
18.455
30
0
0
VERTEX
8
RASTER
10
16.289
20
18.047
30
0
0
VERTEX
8
RASTER
10
16.361
20
19.651
30
0
0
VERTEX
8
RASTER
10
16.259
20
20.059
30
0
0
VERTEX
8
RASTER
10
15.881
20
20.907
30
0
0
SEQEND
8
RASTER
0
POLYLINE
8
RASTER
66
1
70
1
0
VERTEX
8
RASTER
10
12.683
20
19.855
30
0
0
VERTEX
8
RASTER
10
11.938
20
19.579
30
0
0
VERTEX
8
RASTER
10
11.018
20
18.762
30
0
0
VERTEX
8
RASTER
10
10.64
20
18.118
30
0
0
VERTEX
8
RASTER
10
10.507
20
17.638
30
0
0
VERTEX
8
RASTER
10
10.16
20
18.455
30
0
0
VERTEX
8
RASTER
10
9.547
20
19.068
30
0
0
VERTEX
8
RASTER
10
8.393
20
19.651
30
0
0
VERTEX
8
RASTER
10
8.086
20
19.753
30
0
0
VERTEX
8
RASTER
10
7.984
20
19.651
30
0
0
VERTEX
8
RASTER
10
8.188
20
18.936
30
0
0
VERTEX
8
RASTER
10
8.771
20
17.883
30
0
0
VERTEX
8
RASTER
10
9.854
20
17.23
30
0
0
VERTEX
8
RASTER
10
10.507
20
16.515
30
0
0
VERTEX
8
RASTER
10
11.222
20
17.23
30
0
0
VERTEX
8
RASTER
10
11.488
20
17.373
30
0
0
VERTEX
8
RASTER
10
12.305
20
18.292
30
0
0
VERTEX
8
RASTER
10
12.785
20
19.651
30
0
0
SEQEND
8
RASTER
0
POLYLINE
8
RASTER
66
1
70
1
0
VERTEX
8
RASTER
10
14.083
20
19.518
30
0
0
VERTEX
8
RASTER
10
13.909
20
19.344
30
0
0
VERTEX
8
RASTER
10
13.501
20
18.118
30
0
0
VERTEX
8
RASTER
10
13.501
20
17.199
30
0
0
VERTEX
8
RASTER
10
14.011
20
15.871
30
0
0
VERTEX
8
RASTER
10
14.114
20
15.36
30
0
0
VERTEX
8
RASTER
10
14.042
20
15.084
30
0
0
VERTEX
8
RASTER
10
14.726
20
15.258
30
0
0
VERTEX
8
RASTER
10
16.565
20
15.258
30
0
0
VERTEX
8
RASTER
10
17.413
20
15.636
30
0
0
VERTEX
8
RASTER
10
18.23
20
16.351
30
0
0
VERTEX
8
RASTER
10
18.302
20
16.484
30
0
0
VERTEX
8
RASTER
10
18.098
20
16.688
30
0
0
VERTEX
8
RASTER
10
16.667
20
16.892
30
0
0
VERTEX
8
RASTER
10
15.513
20
16.515
30
0
0
VERTEX
8
RASTER
10
14.757
20
15.902
30
0
0
VERTEX
8
RASTER
10
14.726
20
16.177
30
0
0
VERTEX
8
RASTER
10
14.931
20
16.484
30
0
0
VERTEX
8
RASTER
10
14.931
20
17.812
30
0
0
VERTEX
8
RASTER
10
14.655
20
18.558
30
0
0
SEQEND
8
RASTER
0
POLYLINE
8
RASTER
66
1
70
1
0
VERTEX
8
RASTER
10
12.653
20
17.781
30
0
0
VERTEX
8
RASTER
10
12.551
20
17.74
30
0
0
VERTEX
8
RASTER
10
12.377
20
17.403
30
0
0
VERTEX
8
RASTER
10
12.173
20
16.79
30
0
0
VERTEX
8
RASTER
10
12.07
20
15.36
30
0
0
VERTEX
8
RASTER
10
12.448
20
14.41
30
0
0
VERTEX
8
RASTER
10
12.714
20
14.165
30
0
0
VERTEX
8
RASTER
10
12.857
20
13.899
30
0
0
VERTEX
8
RASTER
10
12.714
20
13.593
30
0
0
VERTEX
8
RASTER
10
11.999
20
12.673
30
0
0
VERTEX
8
RASTER
10
11.529
20
12.224
30
0
0
VERTEX
8
RASTER
10
11.386
20
11.958
30
0
0
VERTEX
8
RASTER
10
9.547
20
10.017
30
0
0
VERTEX
8
RASTER
10
8.699
20
9.537
30
0
0
VERTEX
8
RASTER
10
7.678
20
9.129
30
0
0
VERTEX
8
RASTER
10
5.532
20
8.516
30
0
0
VERTEX
8
RASTER
10
5.43
20
8.413
30
0
0
VERTEX
8
RASTER
10
5.461
20
8.138
30
0
0
VERTEX
8
RASTER
10
5.941
20
8.107
30
0
0
VERTEX
8
RASTER
10
6.35
20
8.209
30
0
0
VERTEX
8
RASTER
10
8.495
20
8.924
30
0
0
VERTEX
8
RASTER
10
10.027
20
9.639
30
0
0
VERTEX
8
RASTER
10
11.968
20
10.354
30
0
0
VERTEX
8
RASTER
10
12.142
20
10.324
30
0
0
VERTEX
8
RASTER
10
12.346
20
9.915
30
0
0
VERTEX
8
RASTER
10
12.857
20
9.404
30
0
0
VERTEX
8
RASTER
10
13.398
20
9.129
30
0
0
VERTEX
8
RASTER
10
14.318
20
8.924
30
0
0
VERTEX
8
RASTER
10
15.002
20
9.057
30
0
0
VERTEX
8
RASTER
10
14.859
20
9.466
30
0
0
VERTEX
8
RASTER
10
14.246
20
10.079
30
0
0
VERTEX
8
RASTER
10
13.429
20
10.589
30
0
0
VERTEX
8
RASTER
10
12.683
20
10.865
30
0
0
VERTEX
8
RASTER
10
13.429
20
11.448
30
0
0
VERTEX
8
RASTER
10
13.705
20
11.989
30
0
0
VERTEX
8
RASTER
10
13.909
20
12.602
30
0
0
VERTEX
8
RASTER
10
13.909
20
12.806
30
0
0
VERTEX
8
RASTER
10
13.705
20
13.011
30
0
0
VERTEX
8
RASTER
10
13.398
20
13.011
30
0
0
VERTEX
8
RASTER
10
13.061
20
12.837
30
0
0
VERTEX
8
RASTER
10
12.918
20
12.571
30
0
0
VERTEX
8
RASTER
10
12.551
20
12.224
30
0
0
VERTEX
8
RASTER
10
12.07
20
11.376
30
0
0
VERTEX
8
RASTER
10
12.04
20
10.794
30
0
0
VERTEX
8
RASTER
10
10.262
20
10.079
30
0
0
VERTEX
8
RASTER
10
11.386
20
11.243
30
0
0
VERTEX
8
RASTER
10
11.529
20
11.509
30
0
0
VERTEX
8
RASTER
10
12.816
20
12.98
30
0
0
VERTEX
8
RASTER
10
13.163
20
13.552
30
0
0
VERTEX
8
RASTER
10
14.114
20
13.317
30
0
0
VERTEX
8
RASTER
10
15.135
20
13.317
30
0
0
VERTEX
8
RASTER
10
15.881
20
13.593
30
0
0
VERTEX
8
RASTER
10
16.494
20
14.001
30
0
0
VERTEX
8
RASTER
10
16.974
20
14.543
30
0
0
VERTEX
8
RASTER
10
16.667
20
14.747
30
0
0
VERTEX
8
RASTER
10
16.259
20
14.849
30
0
0
VERTEX
8
RASTER
10
15.646
20
14.849
30
0
0
VERTEX
8
RASTER
10
15.442
20
14.952
30
0
0
VERTEX
8
RASTER
10
15.135
20
14.849
30
0
0
VERTEX
8
RASTER
10
14.624
20
14.849
30
0
0
VERTEX
8
RASTER
10
13.879
20
14.471
30
0
0
VERTEX
8
RASTER
10
13.327
20
13.961
30
0
0
VERTEX
8
RASTER
10
13.327
20
14.206
30
0
0
VERTEX
8
RASTER
10
13.705
20
15.156
30
0
0
VERTEX
8
RASTER
10
13.705
20
15.667
30
0
0
VERTEX
8
RASTER
10
13.368
20
16.76
30
0
0
VERTEX
8
RASTER
10
12.918
20
17.536
30
0
0
SEQEND
8
RASTER
0
POLYLINE
8
RASTER
66
1
70
1
0
VERTEX
8
RASTER
10
8.158
20
17.577
30
0
0
VERTEX
8
RASTER
10
8.015
20
17.475
30
0
0
VERTEX
8
RASTER
10
8.086
20
17.199
30
0
0
VERTEX
8
RASTER
10
8.291
20
16.586
30
0
0
VERTEX
8
RASTER
10
8.669
20
15.942
30
0
0
VERTEX
8
RASTER
10
9.751
20
15.186
30
0
0
VERTEX
8
RASTER
10
10.303
20
14.614
30
0
0
VERTEX
8
RASTER
10
10.467
20
14.614
30
0
0
VERTEX
8
RASTER
10
10.814
20
14.982
30
0
0
VERTEX
8
RASTER
10
11.59
20
15.534
30
0
0
VERTEX
8
RASTER
10
11.835
20
17.27
30
0
0
VERTEX
8
RASTER
10
10.814
20
16.412
30
0
0
VERTEX
8
RASTER
10
10.538
20
15.462
30
0
0
VERTEX
8
RASTER
10
10.436
20
15.36
30
0
0
VERTEX
8
RASTER
10
10.334
20
15.462
30
0
0
VERTEX
8
RASTER
10
10.334
20
15.973
30
0
0
VERTEX
8
RASTER
10
10.058
20
16.515
30
0
0
VERTEX
8
RASTER
10
9.547
20
17.025
30
0
0
VERTEX
8
RASTER
10
8.801
20
17.403
30
0
0
SEQEND
8
RASTER
0
POLYLINE
8
RASTER
66
1
70
1
0
VERTEX
8
RASTER
10
7.984
20
15.667
30
0
0
VERTEX
8
RASTER
10
7.882
20
15.564
30
0
0
VERTEX
8
RASTER
10
7.984
20
15.054
30
0
0
VERTEX
8
RASTER
10
8.566
20
13.899
30
0
0
VERTEX
8
RASTER
10
9.179
20
13.389
30
0
0
VERTEX
8
RASTER
10
10.058
20
13.041
30
0
0
VERTEX
8
RASTER
10
10.129
20
12.908
30
0
0
VERTEX
8
RASTER
10
10.027
20
12.704
30
0
0
VERTEX
8
RASTER
10
9.925
20
11.274
30
0
0
VERTEX
8
RASTER
10
9.721
20
10.661
30
0
0
VERTEX
8
RASTER
10
9.823
20
10.559
30
0
0
VERTEX
8
RASTER
10
10.16
20
10.835
30
0
0
VERTEX
8
RASTER
10
10.436
20
11.478
30
0
0
VERTEX
8
RASTER
10
10.436
20
12.193
30
0
0
VERTEX
8
RASTER
10
10.538
20
12.398
30
0
0
VERTEX
8
RASTER
10
10.569
20
12.98
30
0
0
VERTEX
8
RASTER
10
11.692
20
13.593
30
0
0
VERTEX
8
RASTER
10
12.07
20
14.134
30
0
0
VERTEX
8
RASTER
10
11.733
20
15.023
30
0
0
VERTEX
8
RASTER
10
11.56
20
15.054
30
0
0
VERTEX
8
RASTER
10
11.12
20
14.778
30
0
0
VERTEX
8
RASTER
10
10.712
20
14.369
30
0
0
VERTEX
8
RASTER
10
10.364
20
13.552
30
0
0
VERTEX
8
RASTER
10
10.232
20
13.726
30
0
0
VERTEX
8
RASTER
10
10.232
20
14.032
30
0
0
VERTEX
8
RASTER
10
10.058
20
14.369
30
0
0
VERTEX
8
RASTER
10
9.547
20
14.88
30
0
0
SEQEND
8
RASTER
0
POLYLINE
8
RASTER
66
1
70
1
0
VERTEX
8
RASTER
10
19.804
20
15.227
30
0
0
VERTEX
8
RASTER
10
18.782
20
14.778
30
0
0
VERTEX
8
RASTER
10
18.169
20
14.165
30
0
0
VERTEX
8
RASTER
10
17.383
20
12.193
30
0
0
VERTEX
8
RASTER
10
18.333
20
11.509
30
0
0
VERTEX
8
RASTER
10
18.578
20
11.243
30
0
0
VERTEX
8
RASTER
10
18.915
20
11.07
30
0
0
VERTEX
8
RASTER
10
19.221
20
10.967
30
0
0
VERTEX
8
RASTER
10
20.652
20
10.967
30
0
0
VERTEX
8
RASTER
10
20.927
20
11.1
30
0
0
VERTEX
8
RASTER
10
20.886
20
11.305
30
0
0
VERTEX
8
RASTER
10
20.682
20
11.611
30
0
0
VERTEX
8
RASTER
10
20.069
20
12.122
30
0
0
VERTEX
8
RASTER
10
19.119
20
12.5
30
0
0
VERTEX
8
RASTER
10
18.608
20
12.5
30
0
0
VERTEX
8
RASTER
10
18.404
20
12.398
30
0
0
VERTEX
8
RASTER
10
18.302
20
12.5
30
0
0
VERTEX
8
RASTER
10
18.741
20
12.776
30
0
0
VERTEX
8
RASTER
10
19.354
20
13.491
30
0
0
VERTEX
8
RASTER
10
19.732
20
14.339
30
0
0
VERTEX
8
RASTER
10
19.834
20
14.747
30
0
0
SEQEND
8
RASTER
0
POLYLINE
8
RASTER
66
1
70
1
0
VERTEX
8
RASTER
10
17.689
20
14.645
30
0
0
VERTEX
8
RASTER
10
16.228
20
13.245
30
0
0
VERTEX
8
RASTER
10
15.472
20
11.611
30
0
0
VERTEX
8
RASTER
10
16.494
20
10.896
30
0
0
VERTEX
8
RASTER
10
16.943
20
10.426
30
0
0
VERTEX
8
RASTER
10
17.28
20
10.252
30
0
0
VERTEX
8
RASTER
10
18.506
20
10.15
30
0
0
VERTEX
8
RASTER
10
18.782
20
10.283
30
0
0
VERTEX
8
RASTER
10
18.639
20
10.589
30
0
0
VERTEX
8
RASTER
10
18.333
20
10.998
30
0
0
VERTEX
8
RASTER
10
17.822
20
11.407
30
0
0
VERTEX
8
RASTER
10
16.872
20
11.887
30
0
0
VERTEX
8
RASTER
10
16.392
20
11.713
30
0
0
VERTEX
8
RASTER
10
16.535
20
12.02
30
0
0
VERTEX
8
RASTER
10
16.8
20
12.163
30
0
0
VERTEX
8
RASTER
10
17.209
20
12.571
30
0
0
VERTEX
8
RASTER
10
17.587
20
13.317
30
0
0
VERTEX
8
RASTER
10
17.791
20
14.032
30
0
0
VERTEX
8
RASTER
10
17.791
20
14.543
30
0
0
SEQEND
8
RASTER
0
POLYLINE
8
RASTER
66
1
70
1
0
VERTEX
8
RASTER
10
20.958
20
14.236
30
0
0
VERTEX
8
RASTER
10
20.447
20
14.134
30
0
0
VERTEX
8
RASTER
10
19.906
20
13.858
30
0
0
VERTEX
8
RASTER
10
19.252
20
12.837
30
0
0
VERTEX
8
RASTER
10
19.936
20
12.602
30
0
0
VERTEX
8
RASTER
10
20.447
20
12.602
30
0
0
VERTEX
8
RASTER
10
21.602
20
13.082
30
0
0
VERTEX
8
RASTER
10
22.317
20
13.797
30
0
0
VERTEX
8
RASTER
10
22.388
20
13.93
30
0
0
VERTEX
8
RASTER
10
22.317
20
14.063
30
0
0
VERTEX
8
RASTER
10
21.673
20
14.236
30
0
0
SEQEND
8
RASTER
0
POLYLINE
8
RASTER
66
1
70
1
0
VERTEX
8
RASTER
10
11.835
20
13.184
30
0
0
VERTEX
8
RASTER
10
10.916
20
12.633
30
0
0
VERTEX
8
RASTER
10
10.875
20
12.122
30
0
0
VERTEX
8
RASTER
10
11.018
20
12.122
30
0
0
VERTEX
8
RASTER
10
11.12
20
12.326
30
0
0
VERTEX
8
RASTER
10
11.795
20
12.98
30
0
0
SEQEND
8
RASTER
0
POLYLINE
8
RASTER
66
1
70
1
0
VERTEX
8
RASTER
10
15.646
20
13.113
30
0
0
VERTEX
8
RASTER
10
15.135
20
12.908
30
0
0
VERTEX
8
RASTER
10
14.348
20
12.776
30
0
0
VERTEX
8
RASTER
10
14.011
20
11.887
30
0
0
VERTEX
8
RASTER
10
13.531
20
10.998
30
0
0
VERTEX
8
RASTER
10
14.451
20
10.385
30
0
0
VERTEX
8
RASTER
10
14.798
20
10.017
30
0
0
VERTEX
8
RASTER
10
15.442
20
9.639
30
0
0
VERTEX
8
RASTER
10
15.748
20
9.537
30
0
0
VERTEX
8
RASTER
10
16.872
20
9.537
30
0
0
VERTEX
8
RASTER
10
16.974
20
9.742
30
0
0
VERTEX
8
RASTER
10
16.8
20
10.079
30
0
0
VERTEX
8
RASTER
10
16.289
20
10.589
30
0
0
VERTEX
8
RASTER
10
14.726
20
11.376
30
0
0
VERTEX
8
RASTER
10
15.268
20
11.958
30
0
0
VERTEX
8
RASTER
10
15.748
20
13.011
30
0
0
SEQEND
8
RASTER
0
POLYLINE
8
RASTER
66
1
70
1
0
VERTEX
8
RASTER
10
9.108
20
9.026
30
0
0
VERTEX
8
RASTER
10
7.851
20
8.24
30
0
0
VERTEX
8
RASTER
10
6.789
20
7.157
30
0
0
VERTEX
8
RASTER
10
6.217
20
6.707
30
0
0
VERTEX
8
RASTER
10
6.176
20
6.401
30
0
0
VERTEX
8
RASTER
10
6.421
20
6.299
30
0
0
VERTEX
8
RASTER
10
7.095
20
6.748
30
0
0
VERTEX
8
RASTER
10
7.81
20
7.463
30
0
0
VERTEX
8
RASTER
10
7.953
20
7.729
30
0
0
VERTEX
8
RASTER
10
9.138
20
8.894
30
0
0
SEQEND
8
RASTER
0
POLYLINE
8
RASTER
66
1
70
1
0
VERTEX
8
RASTER
10
9.721
20
9.026
30
0
0
VERTEX
8
RASTER
10
9.588
20
8.955
30
0
0
VERTEX
8
RASTER
10
9.077
20
8.24
30
0
0
VERTEX
8
RASTER
10
8.086
20
6.268
30
0
0
VERTEX
8
RASTER
10
8.158
20
6.033
30
0
0
VERTEX
8
RASTER
10
8.291
20
5.962
30
0
0
VERTEX
8
RASTER
10
8.526
20
6.033
30
0
0
VERTEX
8
RASTER
10
9.006
20
6.881
30
0
0
VERTEX
8
RASTER
10
9.516
20
8.107
30
0
0
VERTEX
8
RASTER
10
9.792
20
8.955
30
0
0
SEQEND
8
RASTER
0
POLYLINE
8
CUT
66
1
70
1
0
VERTEX
8
CUT
10
32.977
20
25.964
30
0
0
VERTEX
8
CUT
10
36.936
20
25.797
30
0
0
VERTEX
8
CUT
10
38.125
20
25.414
30
0
0
VERTEX
8
CUT
10
38.783
20
24.893
30
0
0
VERTEX
8
CUT
10
39.118
20
23.753
30
0
0
VERTEX
8
CUT
10
39
20
20.56
30
0
0
VERTEX
8
CUT
10
40.149
20
18.3
30
0
0
VERTEX
8
CUT
10
40.454
20
17.131
30
0
0
VERTEX
8
CUT
10
40.591
20
13.338
30
0
0
VERTEX
8
CUT
10
40.179
20
6.579
30
0
0
VERTEX
8
CUT
10
39.727
20
5.852
30
0
0
VERTEX
8
CUT
10
38.823
20
5.183
30
0
0
VERTEX
8
CUT
10
36.317
20
4.447
30
0
0
VERTEX
8
CUT
10
32.731
20
4.397
30
0
0
VERTEX
8
CUT
10
30.55
20
4.771
30
0
0
VERTEX
8
CUT
10
28.889
20
5.665
30
0
0
VERTEX
8
CUT
10
28.152
20
7.09
30
0
0
VERTEX
8
CUT
10
27.818
20
16.188
30
0
0
VERTEX
8
CUT
10
28.172
20
18.192
30
0
0
VERTEX
8
CUT
10
29.4
20
20.658
30
0
0
VERTEX
8
CUT
10
29.361
20
24.372
30
0
0
VERTEX
8
CUT
10
29.764
20
25.05
30
0
0
VERTEX
8
CUT
10
30.619
20
25.571
30
0
0
SEQEND
8
CUT
0
POLYLINE
8
RASTER
66
1
70
1
0
VERTEX
8
RASTER
10
33.154
20
24.903
30
0
0
VERTEX
8
RASTER
10
35.187
20
24.932
30
0
0
VERTEX
8
RASTER
10
35.384
20
24.834
30
0
0
VERTEX
8
RASTER
10
35.777
20
24.834
30
0
0
VERTEX
8
RASTER
10
36.858
20
24.539
30
0
0
VERTEX
8
RASTER
10
37.575
20
24.176
30
0
0
VERTEX
8
RASTER
10
37.771
20
23.979
30
0
0
VERTEX
8
RASTER
10
38.037
20
23.459
30
0
0
VERTEX
8
RASTER
10
38.135
20
22.771
30
0
0
VERTEX
8
RASTER
10
38.037
20
22.574
30
0
0
VERTEX
8
RASTER
10
38.037
20
22.083
30
0
0
VERTEX
8
RASTER
10
37.771
20
21.562
30
0
0
VERTEX
8
RASTER
10
37.447
20
21.199
30
0
0
VERTEX
8
RASTER
10
37.545
20
20.413
30
0
0
VERTEX
8
RASTER
10
38.106
20
19.204
30
0
0
VERTEX
8
RASTER
10
39.216
20
17.17
30
0
0
VERTEX
8
RASTER
10
39.511
20
15.795
30
0
0
VERTEX
8
RASTER
10
39.511
20
12.651
30
0
0
VERTEX
8
RASTER
10
39.412
20
12.454
30
0
0
VERTEX
8
RASTER
10
39.412
20
10.391
30
0
0
VERTEX
8
RASTER
10
39.314
20
10.194
30
0
0
VERTEX
8
RASTER
10
39.314
20
8.131
30
0
0
VERTEX
8
RASTER
10
39.216
20
7.64
30
0
0
VERTEX
8
RASTER
10
38.95
20
7.119
30
0
0
VERTEX
8
RASTER
10
38.263
20
6.431
30
0
0
VERTEX
8
RASTER
10
36.858
20
5.773
30
0
0
VERTEX
8
RASTER
10
35.58
20
5.478
30
0
0
VERTEX
8
RASTER
10
34.893
20
5.478
30
0
0
VERTEX
8
RASTER
10
34.696
20
5.38
30
0
0
VERTEX
8
RASTER
10
33.714
20
5.38
30
0
0
VERTEX
8
RASTER
10
33.517
20
5.478
30
0
0
VERTEX
8
RASTER
10
32.24
20
5.576
30
0
0
VERTEX
8
RASTER
10
31.257
20
5.871
30
0
0
VERTEX
8
RASTER
10
30.147
20
6.431
30
0
0
VERTEX
8
RASTER
10
29.557
20
7.021
30
0
0
VERTEX
8
RASTER
10
29.292
20
7.542
30
0
0
VERTEX
8
RASTER
10
29.096
20
8.328
30
0
0
VERTEX
8
RASTER
10
28.997
20
11.275
30
0
0
VERTEX
8
RASTER
10
28.899
20
11.472
30
0
0
VERTEX
8
RASTER
10
28.899
20
16.09
30
0
0
VERTEX
8
RASTER
10
29.292
20
17.465
30
0
0
VERTEX
8
RASTER
10
30.766
20
20.216
30
0
0
VERTEX
8
RASTER
10
30.962
20
20.904
30
0
0
VERTEX
8
RASTER
10
30.933
20
21.267
30
0
0
VERTEX
8
RASTER
10
30.638
20
21.562
30
0
0
VERTEX
8
RASTER
10
30.373
20
22.083
30
0
0
VERTEX
8
RASTER
10
30.275
20
23.164
30
0
0
VERTEX
8
RASTER
10
30.638
20
23.979
30
0
0
VERTEX
8
RASTER
10
31.031
20
24.274
30
0
0
VERTEX
8
RASTER
10
32.142
20
24.736
30
0
0
SEQEND
8
RASTER
0
POLYLINE
8
RASTER
66
1
70
1
0
VERTEX
8
RASTER
10
33.91
20
24.441
30
0
0
VERTEX
8
RASTER
10
33.714
20
24.343
30
0
0
VERTEX
8
RASTER
10
32.928
20
24.343
30
0
0
VERTEX
8
RASTER
10
31.847
20
24.048
30
0
0
VERTEX
8
RASTER
10
31.13
20
23.685
30
0
0
VERTEX
8
RASTER
10
30.864
20
23.164
30
0
0
VERTEX
8
RASTER
10
30.864
20
22.476
30
0
0
VERTEX
8
RASTER
10
30.962
20
22.181
30
0
0
VERTEX
8
RASTER
10
31.454
20
21.493
30
0
0
VERTEX
8
RASTER
10
31.454
20
20.609
30
0
0
VERTEX
8
RASTER
10
31.257
20
20.02
30
0
0
VERTEX
8
RASTER
10
30.638
20
18.772
30
0
0
VERTEX
8
RASTER
10
29.783
20
17.269
30
0
0
VERTEX
8
RASTER
10
29.489
20
16.286
30
0
0
VERTEX
8
RASTER
10
29.489
20
15.893
30
0
0
VERTEX
8
RASTER
10
29.39
20
15.697
30
0
0
VERTEX
8
RASTER
10
29.489
20
10.686
30
0
0
VERTEX
8
RASTER
10
29.587
20
10.489
30
0
0
VERTEX
8
RASTER
10
29.587
20
9.114
30
0
0
VERTEX
8
RASTER
10
29.685
20
8.917
30
0
0
VERTEX
8
RASTER
10
29.685
20
8.131
30
0
0
VERTEX
8
RASTER
10
29.783
20
7.738
30
0
0
VERTEX
8
RASTER
10
29.95
20
7.414
30
0
0
VERTEX
8
RASTER
10
30.442
20
6.923
30
0
0
VERTEX
8
RASTER
10
31.061
20
6.559
30
0
0
VERTEX
8
RASTER
10
32.24
20
6.166
30
0
0
VERTEX
8
RASTER
10
33.321
20
6.068
30
0
0
VERTEX
8
RASTER
10
33.517
20
5.969
30
0
0
VERTEX
8
RASTER
10
34.991
20
5.969
30
0
0
VERTEX
8
RASTER
10
36.858
20
6.362
30
0
0
VERTEX
8
RASTER
10
37.968
20
6.923
30
0
0
VERTEX
8
RASTER
10
38.459
20
7.414
30
0
0
VERTEX
8
RASTER
10
38.626
20
7.738
30
0
0
VERTEX
8
RASTER
10
38.725
20
8.033
30
0
0
VERTEX
8
RASTER
10
38.725
20
9.9
30
0
0
VERTEX
8
RASTER
10
38.823
20
10.096
30
0
0
VERTEX
8
RASTER
10
38.823
20
11.668
30
0
0
VERTEX
8
RASTER
10
38.921
20
11.865
30
0
0
VERTEX
8
RASTER
10
39.019
20
15.107
30
0
0
VERTEX
8
RASTER
10
38.921
20
15.304
30
0
0
VERTEX
8
RASTER
10
38.823
20
16.483
30
0
0
VERTEX
8
RASTER
10
38.528
20
17.367
30
0
0
VERTEX
8
RASTER
10
37.349
20
19.528
30
0
0
VERTEX
8
RASTER
10
36.956
20
20.707
30
0
0
VERTEX
8
RASTER
10
36.956
20
21.493
30
0
0
VERTEX
8
RASTER
10
37.28
20
21.857
30
0
0
VERTEX
8
RASTER
10
37.545
20
22.574
30
0
0
VERTEX
8
RASTER
10
37.545
20
23.164
30
0
0
VERTEX
8
RASTER
10
37.378
20
23.488
30
0
0
VERTEX
8
RASTER
10
37.084
20
23.783
30
0
0
VERTEX
8
RASTER
10
35.973
20
24.245
30
0
0
SEQEND
8
RASTER
0
POLYLINE
8
RASTER
66
1
70
1
0
VERTEX
8
RASTER
10
33.547
20
24.019
30
0
0
VERTEX
8
RASTER
10
34.794
20
24.048
30
0
0
VERTEX
8
RASTER
10
34.991
20
23.95
30
0
0
VERTEX
8
RASTER
10
35.58
20
23.95
30
0
0
VERTEX
8
RASTER
10
36.494
20
23.586
30
0
0
VERTEX
8
RASTER
10
36.661
20
23.262
30
0
0
VERTEX
8
RASTER
10
36.533
20
22.997
30
0
0
VERTEX
8
RASTER
10
36.298
20
22.84
30
0
0
VERTEX
8
RASTER
10
35.384
20
22.574
30
0
0
VERTEX
8
RASTER
10
33.124
20
22.574
30
0
0
VERTEX
8
RASTER
10
32.633
20
22.673
30
0
0
VERTEX
8
RASTER
10
32.014
20
22.938
30
0
0
VERTEX
8
RASTER
10
31.817
20
23.134
30
0
0
VERTEX
8
RASTER
10
31.749
20
23.262
30
0
0
VERTEX
8
RASTER
10
31.817
20
23.488
30
0
0
VERTEX
8
RASTER
10
32.436
20
23.852
30
0
0
SEQEND
8
RASTER
0
POLYLINE
8
RASTER
66
1
70
1
0
VERTEX
8
RASTER
10
33.222
20
23.557
30
0
0
VERTEX
8
RASTER
10
32.269
20
23.233
30
0
0
VERTEX
8
RASTER
10
32.535
20
23.066
30
0
0
VERTEX
8
RASTER
10
32.928
20
23.066
30
0
0
VERTEX
8
RASTER
10
33.124
20
22.967
30
0
0
VERTEX
8
RASTER
10
35.384
20
22.967
30
0
0
VERTEX
8
RASTER
10
35.875
20
23.066
30
0
0
VERTEX
8
RASTER
10
35.973
20
23.164
30
0
0
VERTEX
8
RASTER
10
35.905
20
23.292
30
0
0
VERTEX
8
RASTER
10
35.187
20
23.557
30
0
0
SEQEND
8
RASTER
0
POLYLINE
8
RASTER
66
1
70
1
0
VERTEX
8
RASTER
10
36.691
20
21.661
30
0
0
VERTEX
8
RASTER
10
36.759
20
21.592
30
0
0
VERTEX
8
RASTER
10
36.592
20
21.267
30
0
0
VERTEX
8
RASTER
10
35.679
20
20.904
30
0
0
VERTEX
8
RASTER
10
35.286
20
20.904
30
0
0
VERTEX
8
RASTER
10
35.089
20
20.806
30
0
0
VERTEX
8
RASTER
10
33.124
20
20.806
30
0
0
VERTEX
8
RASTER
10
32.928
20
20.904
30
0
0
VERTEX
8
RASTER
10
32.535
20
20.904
30
0
0
VERTEX
8
RASTER
10
31.817
20
21.169
30
0
0
VERTEX
8
RASTER
10
31.65
20
21.493
30
0
0
VERTEX
8
RASTER
10
31.847
20
21.592
30
0
0
VERTEX
8
RASTER
10
32.338
20
21.395
30
0
0
VERTEX
8
RASTER
10
33.321
20
21.297
30
0
0
VERTEX
8
RASTER
10
33.517
20
21.199
30
0
0
VERTEX
8
RASTER
10
34.991
20
21.199
30
0
0
VERTEX
8
RASTER
10
35.187
20
21.297
30
0
0
VERTEX
8
RASTER
10
36.072
20
21.395
30
0
0
SEQEND
8
RASTER
0
POLYLINE
8
RASTER
66
1
70
1
0
VERTEX
8
RASTER
10
30.304
20
17.141
30
0
0
VERTEX
8
RASTER
10
30.471
20
17.072
30
0
0
VERTEX
8
RASTER
10
30.078
20
15.598
30
0
0
VERTEX
8
RASTER
10
30.078
20
13.928
30
0
0
VERTEX
8
RASTER
10
30.176
20
13.731
30
0
0
VERTEX
8
RASTER
10
30.176
20
11.865
30
0
0
VERTEX
8
RASTER
10
30.275
20
11.668
30
0
0
VERTEX
8
RASTER
10
30.275
20
9.507
30
0
0
VERTEX
8
RASTER
10
30.373
20
9.31
30
0
0
VERTEX
8
RASTER
10
30.373
20
8.229
30
0
0
VERTEX
8
RASTER
10
30.54
20
7.905
30
0
0
VERTEX
8
RASTER
10
31.031
20
7.512
30
0
0
VERTEX
8
RASTER
10
31.552
20
7.247
30
0
0
VERTEX
8
RASTER
10
33.026
20
6.854
30
0
0
VERTEX
8
RASTER
10
34.234
20
6.785
30
0
0
VERTEX
8
RASTER
10
35.482
20
6.854
30
0
0
VERTEX
8
RASTER
10
36.366
20
7.05
30
0
0
VERTEX
8
RASTER
10
37.575
20
7.61
30
0
0
VERTEX
8
RASTER
10
37.87
20
7.905
30
0
0
VERTEX
8
RASTER
10
38.037
20
8.328
30
0
0
VERTEX
8
RASTER
10
38.037
20
9.507
30
0
0
VERTEX
8
RASTER
10
38.204
20
9.87
30
0
0
VERTEX
8
RASTER
10
38.233
20
8.229
30
0
0
VERTEX
8
RASTER
10
37.968
20
7.709
30
0
0
VERTEX
8
RASTER
10
37.673
20
7.414
30
0
0
VERTEX
8
RASTER
10
36.759
20
6.952
30
0
0
VERTEX
8
RASTER
10
35.679
20
6.657
30
0
0
VERTEX
8
RASTER
10
35.286
20
6.657
30
0
0
VERTEX
8
RASTER
10
35.089
20
6.559
30
0
0
VERTEX
8
RASTER
10
33.419
20
6.559
30
0
0
VERTEX
8
RASTER
10
33.222
20
6.657
30
0
0
VERTEX
8
RASTER
10
32.731
20
6.657
30
0
0
VERTEX
8
RASTER
10
31.454
20
7.05
30
0
0
VERTEX
8
RASTER
10
30.737
20
7.414
30
0
0
VERTEX
8
RASTER
10
30.343
20
7.807
30
0
0
VERTEX
8
RASTER
10
30.176
20
8.131
30
0
0
VERTEX
8
RASTER
10
30.176
20
8.917
30
0
0
VERTEX
8
RASTER
10
30.078
20
9.114
30
0
0
VERTEX
8
RASTER
10
30.078
20
11.079
30
0
0
VERTEX
8
RASTER
10
29.98
20
11.275
30
0
0
VERTEX
8
RASTER
10
29.98
20
13.142
30
0
0
VERTEX
8
RASTER
10
29.882
20
13.338
30
0
0
VERTEX
8
RASTER
10
29.882
20
15.795
30
0
0
SEQEND
8
RASTER
0
POLYLINE
8
RASTER
66
1
70
1
0
VERTEX
8
RASTER
10
38.263
20
11.049
30
0
0
VERTEX
8
RASTER
10
38.331
20
10.98
30
0
0
VERTEX
8
RASTER
10
38.331
20
10.096
30
0
0
VERTEX
8
RASTER
10
38.233
20
9.998
30
0
0
VERTEX
8
RASTER
10
38.135
20
10.096
30
0
0
VERTEX
8
RASTER
10
38.135
20
10.293
30
0
0
VERTEX
8
RASTER
10
38.233
20
10.489
30
0
0
SEQEND
8
RASTER
0
POLYLINE
8
CUT
66
1
70
1
0
VERTEX
8
CUT
10
49.896
20
25.964
30
0
0
VERTEX
8
CUT
10
53.294
20
25.953
30
0
0
VERTEX
8
CUT
10
58.24
20
24.282
30
0
0
VERTEX
8
CUT
10
58.879
20
23.239
30
0
0
VERTEX
8
CUT
10
59.53
20
19.964
30
0
0
VERTEX
8
CUT
10
62.939
20
19.56
30
0
0
VERTEX
8
CUT
10
66.012
20
16.465
30
0
0
VERTEX
8
CUT
10
66.382
20
15.601
30
0
0
VERTEX
8
CUT
10
66.315
20
12.798
30
0
0
VERTEX
8
CUT
10
64.184
20
7.975
30
0
0
VERTEX
8
CUT
10
59.9
20
7.437
30
0
0
VERTEX
8
CUT
10
56.367
20
7.493
30
0
0
VERTEX
8
CUT
10
53.451
20
10.409
30
0
0
VERTEX
8
CUT
10
51.017
20
10.779
30
0
0
VERTEX
8
CUT
10
45.993
20
12.932
30
0
0
VERTEX
8
CUT
10
44.591
20
18.708
30
0
0
VERTEX
8
CUT
10
44.614
20
21.714
30
0
0
VERTEX
8
CUT
10
45.376
20
22.745
30
0
0
SEQEND
8
CUT
0
POLYLINE
8
RASTER
66
1
70
1
0
VERTEX
8
RASTER
10
51.298
20
25.011
30
0
0
VERTEX
8
RASTER
10
51.489
20
25.044
30
0
0
VERTEX
8
RASTER
10
53.059
20
24.596
30
0
0
VERTEX
8
RASTER
10
56.76
20
23.362
30
0
0
VERTEX
8
RASTER
10
57.354
20
23.059
30
0
0
VERTEX
8
RASTER
10
57.769
20
22.241
30
0
0
VERTEX
8
RASTER
10
58.296
20
18.73
30
0
0
VERTEX
8
RASTER
10
61.358
20
18.652
30
0
0
VERTEX
8
RASTER
10
61.84
20
18.461
30
0
0
VERTEX
8
RASTER
10
62.737
20
17.676
30
0
0
VERTEX
8
RASTER
10
63.118
20
17.16
30
0
0
VERTEX
8
RASTER
10
64.756
20
15.545
30
0
0
VERTEX
8
RASTER
10
65.092
20
15.097
30
0
0
VERTEX
8
RASTER
10
65.283
20
14.727
30
0
0
VERTEX
8
RASTER
10
65.283
20
14.054
30
0
0
VERTEX
8
RASTER
10
63.074
20
8.973
30
0
0
VERTEX
8
RASTER
10
62.255
20
8.783
30
0
0
VERTEX
8
RASTER
10
59.563
20
8.671
30
0
0
VERTEX
8
RASTER
10
59.339
20
8.558
30
0
0
VERTEX
8
RASTER
10
57.32
20
8.558
30
0
0
VERTEX
8
RASTER
10
56.502
20
9.31
30
0
0
VERTEX
8
RASTER
10
56.345
20
9.601
30
0
0
VERTEX
8
RASTER
10
55.829
20
10.095
30
0
0
VERTEX
8
RASTER
10
55.672
20
10.386
30
0
0
VERTEX
8
RASTER
10
54.214
20
12.069
30
0
0
VERTEX
8
RASTER
10
54.034
20
12.069
30
0
0
VERTEX
8
RASTER
10
53.877
20
11.889
30
0
0
VERTEX
8
RASTER
10
53.283
20
11.586
30
0
0
VERTEX
8
RASTER
10
52.61
20
11.699
30
0
0
VERTEX
8
RASTER
10
47.9
20
13.493
30
0
0
VERTEX
8
RASTER
10
47.305
20
13.796
30
0
0
VERTEX
8
RASTER
10
47.081
20
14.02
30
0
0
VERTEX
8
RASTER
10
46.778
20
14.839
30
0
0
VERTEX
8
RASTER
10
46.105
20
18.203
30
0
0
VERTEX
8
RASTER
10
45.769
20
19.325
30
0
0
VERTEX
8
RASTER
10
45.657
20
20.558
30
0
0
VERTEX
8
RASTER
10
45.96
20
21.153
30
0
0
VERTEX
8
RASTER
10
46.296
20
21.489
30
0
0
VERTEX
8
RASTER
10
50.333
20
24.517
30
0
0
SEQEND
8
RASTER
0
POLYLINE
8
RASTER
66
1
70
1
0
VERTEX
8
RASTER
10
51.264
20
24.371
30
0
0
VERTEX
8
RASTER
10
46.632
20
20.928
30
0
0
VERTEX
8
RASTER
10
46.33
20
20.446
30
0
0
VERTEX
8
RASTER
10
46.33
20
20.222
30
0
0
VERTEX
8
RASTER
10
46.588
20
19.022
30
0
0
VERTEX
8
RASTER
10
46.857
20
19.179
30
0
0
VERTEX
8
RASTER
10
47.115
20
18.764
30
0
0
VERTEX
8
RASTER
10
47.003
20
18.652
30
0
0
VERTEX
8
RASTER
10
46.7
20
18.73
30
0
0
VERTEX
8
RASTER
10
46.666
20
18.428
30
0
0
VERTEX
8
RASTER
10
46.969
20
17.272
30
0
0
VERTEX
8
RASTER
10
47.193
20
17.272
30
0
0
VERTEX
8
RASTER
10
47.451
20
17.082
30
0
0
VERTEX
8
RASTER
10
47.305
20
16.891
30
0
0
VERTEX
8
RASTER
10
47.081
20
17.048
30
0
0
VERTEX
8
RASTER
10
47.003
20
16.97
30
0
0
VERTEX
8
RASTER
10
47.642
20
14.469
30
0
0
VERTEX
8
RASTER
10
47.9
20
14.278
30
0
0
VERTEX
8
RASTER
10
49.279
20
13.751
30
0
0
VERTEX
8
RASTER
10
49.279
20
13.863
30
0
0
VERTEX
8
RASTER
10
49.055
20
13.975
30
0
0
VERTEX
8
RASTER
10
49.212
20
14.2
30
0
0
VERTEX
8
RASTER
10
49.167
20
14.357
30
0
0
VERTEX
8
RASTER
10
49.694
20
14.166
30
0
0
VERTEX
8
RASTER
10
49.728
20
14.312
30
0
0
VERTEX
8
RASTER
10
49.503
20
14.312
30
0
0
VERTEX
8
RASTER
10
49.694
20
14.502
30
0
0
VERTEX
8
RASTER
10
49.885
20
14.469
30
0
0
VERTEX
8
RASTER
10
49.952
20
14.2
30
0
0
VERTEX
8
RASTER
10
50.109
20
14.357
30
0
0
VERTEX
8
RASTER
10
50.176
20
14.2
30
0
0
VERTEX
8
RASTER
10
50.367
20
14.278
30
0
0
VERTEX
8
RASTER
10
50.703
20
14.054
30
0
0
VERTEX
8
RASTER
10
50.894
20
14.132
30
0
0
VERTEX
8
RASTER
10
51.074
20
13.975
30
0
0
VERTEX
8
RASTER
10
51.231
20
14.02
30
0
0
VERTEX
8
RASTER
10
51.04
20
13.605
30
0
0
VERTEX
8
RASTER
10
51.118
20
13.459
30
0
0
VERTEX
8
RASTER
10
51.231
20
13.414
30
0
0
VERTEX
8
RASTER
10
51.455
20
13.571
30
0
0
VERTEX
8
RASTER
10
51.522
20
13.414
30
0
0
VERTEX
8
RASTER
10
51.713
20
13.493
30
0
0
VERTEX
8
RASTER
10
51.971
20
13.302
30
0
0
VERTEX
8
RASTER
10
51.971
20
13.459
30
0
0
VERTEX
8
RASTER
10
52.128
20
13.459
30
0
0
VERTEX
8
RASTER
10
52.24
20
12.966
30
0
0
VERTEX
8
RASTER
10
51.859
20
13.011
30
0
0
VERTEX
8
RASTER
10
52.016
20
12.899
30
0
0
VERTEX
8
RASTER
10
51.859
20
12.742
30
0
0
VERTEX
8
RASTER
10
53.059
20
12.371
30
0
0
VERTEX
8
RASTER
10
53.249
20
12.742
30
0
0
VERTEX
8
RASTER
10
53.171
20
13.717
30
0
0
VERTEX
8
RASTER
10
53.059
20
13.942
30
0
0
VERTEX
8
RASTER
10
53.059
20
14.39
30
0
0
VERTEX
8
RASTER
10
53.171
20
14.614
30
0
0
VERTEX
8
RASTER
10
52.946
20
14.727
30
0
0
VERTEX
8
RASTER
10
52.834
20
15.736
30
0
0
VERTEX
8
RASTER
10
52.913
20
15.814
30
0
0
VERTEX
8
RASTER
10
53.025
20
15.545
30
0
0
VERTEX
8
RASTER
10
53.395
20
15.96
30
0
0
VERTEX
8
RASTER
10
53.541
20
15.77
30
0
0
VERTEX
8
RASTER
10
53.698
20
15.77
30
0
0
VERTEX
8
RASTER
10
53.698
20
15.927
30
0
0
VERTEX
8
RASTER
10
53.541
20
16.039
30
0
0
VERTEX
8
RASTER
10
53.844
20
16.409
30
0
0
VERTEX
8
RASTER
10
53.653
20
16.487
30
0
0
VERTEX
8
RASTER
10
53.361
20
16.33
30
0
0
VERTEX
8
RASTER
10
53.361
20
16.106
30
0
0
VERTEX
8
RASTER
10
53.171
20
16.185
30
0
0
VERTEX
8
RASTER
10
53.137
20
15.994
30
0
0
VERTEX
8
RASTER
10
52.946
20
15.96
30
0
0
VERTEX
8
RASTER
10
52.913
20
16.151
30
0
0
VERTEX
8
RASTER
10
52.722
20
16.185
30
0
0
VERTEX
8
RASTER
10
52.756
20
16.6
30
0
0
VERTEX
8
RASTER
10
53.059
20
16.857
30
0
0
VERTEX
8
RASTER
10
53.361
20
16.779
30
0
0
VERTEX
8
RASTER
10
53.395
20
16.97
30
0
0
VERTEX
8
RASTER
10
53.283
20
17.194
30
0
0
VERTEX
8
RASTER
10
53.429
20
17.385
30
0
0
VERTEX
8
RASTER
10
53.653
20
17.385
30
0
0
VERTEX
8
RASTER
10
53.698
20
17.497
30
0
0
VERTEX
8
RASTER
10
53.541
20
17.452
30
0
0
VERTEX
8
RASTER
10
53.507
20
17.643
30
0
0
VERTEX
8
RASTER
10
53.732
20
17.979
30
0
0
VERTEX
8
RASTER
10
53.989
20
17.788
30
0
0
VERTEX
8
RASTER
10
54.18
20
17.418
30
0
0
VERTEX
8
RASTER
10
54.326
20
17.721
30
0
0
VERTEX
8
RASTER
10
54.55
20
17.833
30
0
0
VERTEX
8
RASTER
10
54.819
20
17.721
30
0
0
VERTEX
8
RASTER
10
54.932
20
17.452
30
0
0
VERTEX
8
RASTER
10
54.741
20
17.306
30
0
0
VERTEX
8
RASTER
10
55.156
20
16.891
30
0
0
VERTEX
8
RASTER
10
55.717
20
18.237
30
0
0
VERTEX
8
RASTER
10
56.053
20
18.573
30
0
0
VERTEX
8
RASTER
10
56.423
20
18.764
30
0
0
VERTEX
8
RASTER
10
57.511
20
18.798
30
0
0
VERTEX
8
RASTER
10
57.432
20
19.885
30
0
0
VERTEX
8
RASTER
10
57.354
20
20.031
30
0
0
VERTEX
8
RASTER
10
57.096
20
20.11
30
0
0
VERTEX
8
RASTER
10
57.32
20
20.334
30
0
0
VERTEX
8
RASTER
10
57.32
20
20.558
30
0
0
VERTEX
8
RASTER
10
57.242
20
20.637
30
0
0
VERTEX
8
RASTER
10
57.017
20
20.48
30
0
0
VERTEX
8
RASTER
10
56.569
20
20.704
30
0
0
VERTEX
8
RASTER
10
56.76
20
21.007
30
0
0
VERTEX
8
RASTER
10
56.569
20
21.422
30
0
0
VERTEX
8
RASTER
10
56.793
20
21.377
30
0
0
VERTEX
8
RASTER
10
57.062
20
21.085
30
0
0
VERTEX
8
RASTER
10
57.174
20
20.704
30
0
0
VERTEX
8
RASTER
10
57.208
20
21.456
30
0
0
VERTEX
8
RASTER
10
57.096
20
21.68
30
0
0
VERTEX
8
RASTER
10
57.096
20
22.128
30
0
0
VERTEX
8
RASTER
10
56.905
20
22.499
30
0
0
VERTEX
8
RASTER
10
56.423
20
22.801
30
0
0
VERTEX
8
RASTER
10
51.937
20
24.259
30
0
0
SEQEND
8
RASTER
0
POLYLINE
8
RASTER
66
1
70
1
0
VERTEX
8
RASTER
10
56.345
20
21.534
30
0
0
VERTEX
8
RASTER
10
56.423
20
21.119
30
0
0
VERTEX
8
RASTER
10
56.277
20
20.816
30
0
0
VERTEX
8
RASTER
10
56.199
20
20.895
30
0
0
VERTEX
8
RASTER
10
56.277
20
21.085
30
0
0
VERTEX
8
RASTER
10
56.087
20
21.231
30
0
0
VERTEX
8
RASTER
10
55.784
20
21.041
30
0
0
VERTEX
8
RASTER
10
55.941
20
21.265
30
0
0
SEQEND
8
RASTER
0
POLYLINE
8
RASTER
66
1
70
1
0
VERTEX
8
RASTER
10
53.765
20
18.506
30
0
0
VERTEX
8
RASTER
10
54.371
20
18.282
30
0
0
VERTEX
8
RASTER
10
54.404
20
18.091
30
0
0
VERTEX
8
RASTER
10
54.146
20
17.788
30
0
0
VERTEX
8
RASTER
10
54.068
20
17.867
30
0
0
VERTEX
8
RASTER
10
54.259
20
18.17
30
0
0
VERTEX
8
RASTER
10
54.068
20
18.203
30
0
0
VERTEX
8
RASTER
10
54.034
20
18.013
30
0
0
VERTEX
8
RASTER
10
53.877
20
18.013
30
0
0
VERTEX
8
RASTER
10
53.956
20
18.315
30
0
0
SEQEND
8
RASTER
0
POLYLINE
8
RASTER
66
1
70
1
0
VERTEX
8
RASTER
10
47.036
20
18.282
30
0
0
VERTEX
8
RASTER
10
47.227
20
18.315
30
0
0
VERTEX
8
RASTER
10
47.339
20
18.203
30
0
0
VERTEX
8
RASTER
10
47.339
20
17.867
30
0
0
VERTEX
8
RASTER
10
47.227
20
17.755
30
0
0
VERTEX
8
RASTER
10
46.969
20
17.833
30
0
0
VERTEX
8
RASTER
10
46.89
20
17.979
30
0
0
SEQEND
8
RASTER
0
POLYLINE
8
RASTER
66
1
70
1
0
VERTEX
8
RASTER
10
56.647
20
18.203
30
0
0
VERTEX
8
RASTER
10
56.345
20
18.057
30
0
0
VERTEX
8
RASTER
10
56.087
20
17.53
30
0
0
VERTEX
8
RASTER
10
56.087
20
17.306
30
0
0
VERTEX
8
RASTER
10
55.638
20
16.185
30
0
0
VERTEX
8
RASTER
10
55.75
20
15.848
30
0
0
VERTEX
8
RASTER
10
55.672
20
15.77
30
0
0
VERTEX
8
RASTER
10
55.56
20
15.927
30
0
0
VERTEX
8
RASTER
10
55.414
20
15.624
30
0
0
VERTEX
8
RASTER
10
54.629
20
13.381
30
0
0
VERTEX
8
RASTER
10
54.629
20
12.708
30
0
0
VERTEX
8
RASTER
10
54.819
20
12.338
30
0
0
VERTEX
8
RASTER
10
56.232
20
10.835
30
0
0
VERTEX
8
RASTER
10
57.399
20
9.31
30
0
0
VERTEX
8
RASTER
10
57.511
20
9.265
30
0
0
VERTEX
8
RASTER
10
57.735
20
9.534
30
0
0
VERTEX
8
RASTER
10
57.69
20
9.265
30
0
0
VERTEX
8
RASTER
10
57.993
20
9.231
30
0
0
VERTEX
8
RASTER
10
58.072
20
9.265
30
0
0
VERTEX
8
RASTER
10
57.993
20
9.568
30
0
0
VERTEX
8
RASTER
10
57.769
20
9.792
30
0
0
VERTEX
8
RASTER
10
58.251
20
10.768
30
0
0
VERTEX
8
RASTER
10
58.442
20
10.689
30
0
0
VERTEX
8
RASTER
10
58.554
20
10.801
30
0
0
VERTEX
8
RASTER
10
58.33
20
11.026
30
0
0
VERTEX
8
RASTER
10
58.745
20
11.284
30
0
0
VERTEX
8
RASTER
10
58.554
20
11.474
30
0
0
VERTEX
8
RASTER
10
58.588
20
11.665
30
0
0
VERTEX
8
RASTER
10
58.89
20
11.586
30
0
0
VERTEX
8
RASTER
10
59.003
20
11.699
30
0
0
VERTEX
8
RASTER
10
58.7
20
11.889
30
0
0
VERTEX
8
RASTER
10
59.754
20
14.2
30
0
0
VERTEX
8
RASTER
10
60.012
20
14.39
30
0
0
VERTEX
8
RASTER
10
60.573
20
14.39
30
0
0
VERTEX
8
RASTER
10
60.988
20
13.459
30
0
0
VERTEX
8
RASTER
10
61.246
20
13.493
30
0
0
VERTEX
8
RASTER
10
61.66
20
13.302
30
0
0
VERTEX
8
RASTER
10
61.391
20
13.527
30
0
0
VERTEX
8
RASTER
10
61.391
20
13.796
30
0
0
VERTEX
8
RASTER
10
61.66
20
13.751
30
0
0
VERTEX
8
RASTER
10
61.66
20
13.908
30
0
0
VERTEX
8
RASTER
10
61.358
20
14.054
30
0
0
VERTEX
8
RASTER
10
61.021
20
13.717
30
0
0
VERTEX
8
RASTER
10
60.943
20
14.02
30
0
0
VERTEX
8
RASTER
10
61.055
20
14.244
30
0
0
VERTEX
8
RASTER
10
61.47
20
14.278
30
0
0
VERTEX
8
RASTER
10
61.66
20
14.087
30
0
0
VERTEX
8
RASTER
10
61.918
20
14.278
30
0
0
VERTEX
8
RASTER
10
61.997
20
14.2
30
0
0
VERTEX
8
RASTER
10
61.84
20
14.02
30
0
0
VERTEX
8
RASTER
10
61.885
20
13.908
30
0
0
VERTEX
8
RASTER
10
62.109
20
13.908
30
0
0
VERTEX
8
RASTER
10
62.221
20
13.684
30
0
0
VERTEX
8
RASTER
10
62.446
20
13.571
30
0
0
VERTEX
8
RASTER
10
62.143
20
13.269
30
0
0
VERTEX
8
RASTER
10
62.221
20
13.123
30
0
0
VERTEX
8
RASTER
10
62.558
20
13.011
30
0
0
VERTEX
8
RASTER
10
62.479
20
12.82
30
0
0
VERTEX
8
RASTER
10
62.67
20
12.405
30
0
0
VERTEX
8
RASTER
10
62.479
20
12.259
30
0
0
VERTEX
8
RASTER
10
62.591
20
12.035
30
0
0
VERTEX
8
RASTER
10
62.513
20
11.889
30
0
0
VERTEX
8
RASTER
10
62.176
20
11.62
30
0
0
VERTEX
8
RASTER
10
62.221
20
12.001
30
0
0
VERTEX
8
RASTER
10
61.997
20
11.957
30
0
0
VERTEX
8
RASTER
10
61.952
20
11.665
30
0
0
VERTEX
8
RASTER
10
61.773
20
11.396
30
0
0
VERTEX
8
RASTER
10
61.616
20
11.396
30
0
0
VERTEX
8
RASTER
10
61.806
20
11.811
30
0
0
VERTEX
8
RASTER
10
61.728
20
11.889
30
0
0
VERTEX
8
RASTER
10
61.503
20
11.732
30
0
0
VERTEX
8
RASTER
10
61.436
20
11.889
30
0
0
VERTEX
8
RASTER
10
61.246
20
11.923
30
0
0
VERTEX
8
RASTER
10
61.246
20
12.259
30
0
0
VERTEX
8
RASTER
10
61.47
20
12.82
30
0
0
VERTEX
8
RASTER
10
61.279
20
12.899
30
0
0
VERTEX
8
RASTER
10
60.943
20
12.069
30
0
0
VERTEX
8
RASTER
10
61.133
20
11.811
30
0
0
VERTEX
8
RASTER
10
61.1
20
11.553
30
0
0
VERTEX
8
RASTER
10
61.324
20
11.441
30
0
0
VERTEX
8
RASTER
10
61.391
20
11.171
30
0
0
VERTEX
8
RASTER
10
61.66
20
10.992
30
0
0
VERTEX
8
RASTER
10
61.436
20
10.499
30
0
0
VERTEX
8
RASTER
10
61.358
20
10.577
30
0
0
VERTEX
8
RASTER
10
61.548
20
10.992
30
0
0
VERTEX
8
RASTER
10
61.279
20
10.835
30
0
0
VERTEX
8
RASTER
10
61.246
20
11.026
30
0
0
VERTEX
8
RASTER
10
61.1
20
10.947
30
0
0
VERTEX
8
RASTER
10
61.1
20
10.723
30
0
0
VERTEX
8
RASTER
10
60.943
20
10.768
30
0
0
VERTEX
8
RASTER
10
60.875
20
10.611
30
0
0
VERTEX
8
RASTER
10
60.797
20
10.689
30
0
0
VERTEX
8
RASTER
10
61.055
20
11.216
30
0
0
VERTEX
8
RASTER
10
61.212
20
11.284
30
0
0
VERTEX
8
RASTER
10
61.133
20
11.362
30
0
0
VERTEX
8
RASTER
10
60.831
20
11.216
30
0
0
VERTEX
8
RASTER
10
60.718
20
10.88
30
0
0
VERTEX
8
RASTER
10
60.573
20
10.801
30
0
0
VERTEX
8
RASTER
10
60.348
20
10.914
30
0
0
VERTEX
8
RASTER
10
60.158
20
10.656
30
0
0
VERTEX
8
RASTER
10
60.236
20
10.577
30
0
0
VERTEX
8
RASTER
10
60.651
20
10.656
30
0
0
VERTEX
8
RASTER
10
60.382
20
10.05
30
0
0
VERTEX
8
RASTER
10
60.763
20
9.938
30
0
0
VERTEX
8
RASTER
10
60.539
20
9.714
30
0
0
VERTEX
8
RASTER
10
60.382
20
9.938
30
0
0
VERTEX
8
RASTER
10
60.203
20
9.938
30
0
0
VERTEX
8
RASTER
10
60.046
20
9.646
30
0
0
VERTEX
8
RASTER
10
60.09
20
9.489
30
0
0
VERTEX
8
RASTER
10
59.821
20
9.601
30
0
0
VERTEX
8
RASTER
10
59.675
20
9.904
30
0
0
VERTEX
8
RASTER
10
59.53
20
9.826
30
0
0
VERTEX
8
RASTER
10
59.485
20
9.534
30
0
0
VERTEX
8
RASTER
10
59.148
20
9.377
30
0
0
VERTEX
8
RASTER
10
60.573
20
9.343
30
0
0
VERTEX
8
RASTER
10
60.797
20
9.456
30
0
0
VERTEX
8
RASTER
10
62.143
20
9.456
30
0
0
VERTEX
8
RASTER
10
62.625
20
9.646
30
0
0
VERTEX
8
RASTER
10
63.264
20
10.914
30
0
0
VERTEX
8
RASTER
10
64.61
20
14.166
30
0
0
VERTEX
8
RASTER
10
64.689
20
14.469
30
0
0
VERTEX
8
RASTER
10
64.307
20
15.097
30
0
0
VERTEX
8
RASTER
10
62.67
20
16.712
30
0
0
VERTEX
8
RASTER
10
62.513
20
17.003
30
0
0
VERTEX
8
RASTER
10
61.952
20
17.564
30
0
0
VERTEX
8
RASTER
10
61.358
20
17.979
30
0
0
VERTEX
8
RASTER
10
60.909
20
18.091
30
0
0
VERTEX
8
RASTER
10
58.105
20
18.091
30
0
0
VERTEX
8
RASTER
10
57.881
20
18.203
30
0
0
SEQEND
8
RASTER
0
POLYLINE
8
RASTER
66
1
70
1
0
VERTEX
8
RASTER
10
62.176
20
14.244
30
0
0
VERTEX
8
RASTER
10
62.479
20
14.278
30
0
0
VERTEX
8
RASTER
10
62.591
20
14.166
30
0
0
VERTEX
8
RASTER
10
62.513
20
14.02
30
0
0
VERTEX
8
RASTER
10
62.255
20
13.942
30
0
0
SEQEND
8
RASTER
0
POLYLINE
8
RASTER
66
1
70
1
0
VERTEX
8
RASTER
10
53.922
20
13.571
30
0
0
VERTEX
8
RASTER
10
53.429
20
13.347
30
0
0
VERTEX
8
RASTER
10
53.429
20
13.19
30
0
0
VERTEX
8
RASTER
10
53.732
20
13.269
30
0
0
VERTEX
8
RASTER
10
53.922
20
13.19
30
0
0
SEQEND
8
RASTER
0
POLYLINE
8
RASTER
66
1
70
1
0
VERTEX
8
RASTER
10
59.978
20
13.571
30
0
0
VERTEX
8
RASTER
10
59.788
20
13.381
30
0
0
VERTEX
8
RASTER
10
59.866
20
13.19
30
0
0
VERTEX
8
RASTER
10
59.709
20
12.854
30
0
0
VERTEX
8
RASTER
10
59.933
20
12.899
30
0
0
VERTEX
8
RASTER
10
60.09
20
13.302
30
0
0
VERTEX
8
RASTER
10
60.203
20
13.347
30
0
0
VERTEX
8
RASTER
10
60.203
20
12.674
30
0
0
VERTEX
8
RASTER
10
60.427
20
12.674
30
0
0
VERTEX
8
RASTER
10
60.988
20
12.405
30
0
0
VERTEX
8
RASTER
10
60.943
20
12.629
30
0
0
VERTEX
8
RASTER
10
60.494
20
12.742
30
0
0
VERTEX
8
RASTER
10
60.348
20
13.044
30
0
0
VERTEX
8
RASTER
10
60.539
20
13.302
30
0
0
VERTEX
8
RASTER
10
60.494
20
13.414
30
0
0
VERTEX
8
RASTER
10
60.315
20
13.571
30
0
0
VERTEX
8
RASTER
10
60.046
20
13.414
30
0
0
SEQEND
8
RASTER
0
POLYLINE
8
RASTER
66
1
70
1
0
VERTEX
8
RASTER
10
60.763
20
13.459
30
0
0
VERTEX
8
RASTER
10
60.685
20
13.381
30
0
0
VERTEX
8
RASTER
10
60.875
20
13.011
30
0
0
VERTEX
8
RASTER
10
61.055
20
13.011
30
0
0
VERTEX
8
RASTER
10
61.1
20
13.235
30
0
0
VERTEX
8
RASTER
10
60.831
20
13.302
30
0
0
SEQEND
8
RASTER
0
POLYLINE
8
RASTER
66
1
70
1
0
VERTEX
8
RASTER
10
53.81
20
13.123
30
0
0
VERTEX
8
RASTER
10
53.429
20
12.899
30
0
0
VERTEX
8
RASTER
10
53.619
20
12.596
30
0
0
VERTEX
8
RASTER
10
53.844
20
12.82
30
0
0
SEQEND
8
RASTER
0
POLYLINE
8
RASTER
66
1
70
1
0
VERTEX
8
RASTER
10
62.109
20
13.011
30
0
0
VERTEX
8
RASTER
10
61.997
20
12.629
30
0
0
VERTEX
8
RASTER
10
61.806
20
12.484
30
0
0
VERTEX
8
RASTER
10
61.84
20
12.405
30
0
0
VERTEX
8
RASTER
10
62.143
20
12.484
30
0
0
VERTEX
8
RASTER
10
62.333
20
12.293
30
0
0
VERTEX
8
RASTER
10
62.446
20
12.562
30
0
0
VERTEX
8
RASTER
10
62.255
20
12.708
30
0
0
VERTEX
8
RASTER
10
62.333
20
12.899
30
0
0
SEQEND
8
RASTER
0
POLYLINE
8
RASTER
66
1
70
1
0
VERTEX
8
RASTER
10
59.417
20
12.338
30
0
0
VERTEX
8
RASTER
10
59.373
20
12.069
30
0
0
VERTEX
8
RASTER
10
59.53
20
12.114
30
0
0
VERTEX
8
RASTER
10
59.866
20
11.957
30
0
0
VERTEX
8
RASTER
10
59.866
20
12.114
30
0
0
SEQEND
8
RASTER
0
POLYLINE
8
RASTER
66
1
70
1
0
VERTEX
8
RASTER
10
59.788
20
10.689
30
0
0
VERTEX
8
RASTER
10
59.642
20
10.611
30
0
0
VERTEX
8
RASTER
10
59.642
20
10.431
30
0
0
VERTEX
8
RASTER
10
60.09
20
10.162
30
0
0
VERTEX
8
RASTER
10
60.09
20
10.431
30
0
0
VERTEX
8
RASTER
10
59.933
20
10.386
30
0
0
SEQEND
8
RASTER
0
POLYLINE
8
CUT
66
1
70
1
0
VERTEX
8
CUT
10
77.617
20
25.964
30
0
0
VERTEX
8
CUT
10
81.604
20
25.89
30
0
0
VERTEX
8
CUT
10
83.893
20
24.734
30
0
0
VERTEX
8
CUT
10
85.369
20
23.134
30
0
0
VERTEX
8
CUT
10
86.784
20
20.858
30
0
0
VERTEX
8
CUT
10
88.125
20
17.031
30
0
0
VERTEX
8
CUT
10
88.384
20
11.875
30
0
0
VERTEX
8
CUT
10
87.707
20
8.614
30
0
0
VERTEX
8
CUT
10
85.615
20
5.784
30
0
0
VERTEX
8
CUT
10
82.465
20
4.258
30
0
0
VERTEX
8
CUT
10
78.294
20
4
30
0
0
VERTEX
8
CUT
10
74.603
20
4.861
30
0
0
VERTEX
8
CUT
10
71.957
20
7.015
30
0
0
VERTEX
8
CUT
10
70.554
20
10.042
30
0
0
VERTEX
8
CUT
10
70.382
20
15.849
30
0
0
VERTEX
8
CUT
10
71.342
20
19.566
30
0
0
VERTEX
8
CUT
10
73.889
20
23.786
30
0
0
VERTEX
8
CUT
10
75.858
20
25.386
30
0
0
SEQEND
8
CUT
0
POLYLINE
8
RASTER
66
1
70
1
0
VERTEX
8
RASTER
10
78.454
20
24.635
30
0
0
VERTEX
8
RASTER
10
80.263
20
24.672
30
0
0
VERTEX
8
RASTER
10
81.001
20
24.426
30
0
0
VERTEX
8
RASTER
10
82.514
20
23.601
30
0
0
VERTEX
8
RASTER
10
83.868
20
22.248
30
0
0
VERTEX
8
RASTER
10
84.729
20
21.017
30
0
0
VERTEX
8
RASTER
10
85.677
20
19.258
30
0
0
VERTEX
8
RASTER
10
86.538
20
17.043
30
0
0
VERTEX
8
RASTER
10
87.03
20
14.951
30
0
0
VERTEX
8
RASTER
10
87.03
20
11.998
30
0
0
VERTEX
8
RASTER
10
86.907
20
11.383
30
0
0
VERTEX
8
RASTER
10
86.292
20
9.537
30
0
0
VERTEX
8
RASTER
10
85.714
20
8.516
30
0
0
VERTEX
8
RASTER
10
84.237
20
6.916
30
0
0
VERTEX
8
RASTER
10
83.499
20
6.424
30
0
0
VERTEX
8
RASTER
10
82.355
20
5.846
30
0
0
VERTEX
8
RASTER
10
80.509
20
5.353
30
0
0
VERTEX
8
RASTER
10
78.294
20
5.353
30
0
0
VERTEX
8
RASTER
10
77.679
20
5.477
30
0
0
VERTEX
8
RASTER
10
76.202
20
5.969
30
0
0
VERTEX
8
RASTER
10
74.935
20
6.67
30
0
0
VERTEX
8
RASTER
10
73.827
20
7.531
30
0
0
VERTEX
8
RASTER
10
73.089
20
8.393
30
0
0
VERTEX
8
RASTER
10
72.019
20
10.522
30
0
0
VERTEX
8
RASTER
10
71.649
20
11.998
30
0
0
VERTEX
8
RASTER
10
71.649
20
14.705
30
0
0
VERTEX
8
RASTER
10
71.772
20
14.951
30
0
0
VERTEX
8
RASTER
10
71.895
20
16.182
30
0
0
VERTEX
8
RASTER
10
72.265
20
17.412
30
0
0
VERTEX
8
RASTER
10
73.335
20
19.91
30
0
0
VERTEX
8
RASTER
10
74.319
20
21.51
30
0
0
VERTEX
8
RASTER
10
75.673
20
23.109
30
0
0
VERTEX
8
RASTER
10
77.027
20
24.094
30
0
0
SEQEND
8
RASTER
0
POLYLINE
8
RASTER
66
1
70
1
0
VERTEX
8
RASTER
10
78.663
20
24.057
30
0
0
VERTEX
8
RASTER
10
77.925
20
23.811
30
0
0
VERTEX
8
RASTER
10
76.534
20
22.986
30
0
0
VERTEX
8
RASTER
10
75.55
20
22.002
30
0
0
VERTEX
8
RASTER
10
74.319
20
20.279
30
0
0
VERTEX
8
RASTER
10
73.372
20
18.397
30
0
0
VERTEX
8
RASTER
10
72.634
20
16.305
30
0
0
VERTEX
8
RASTER
10
72.388
20
15.074
30
0
0
VERTEX
8
RASTER
10
72.388
20
14.336
30
0
0
VERTEX
8
RASTER
10
72.265
20
14.09
30
0
0
VERTEX
8
RASTER
10
72.265
20
12.736
30
0
0
VERTEX
8
RASTER
10
72.388
20
12.49
30
0
0
VERTEX
8
RASTER
10
72.511
20
11.26
30
0
0
VERTEX
8
RASTER
10
72.757
20
10.522
30
0
0
VERTEX
8
RASTER
10
73.458
20
9.131
30
0
0
VERTEX
8
RASTER
10
74.566
20
7.778
30
0
0
VERTEX
8
RASTER
10
76.448
20
6.584
30
0
0
VERTEX
8
RASTER
10
78.048
20
6.092
30
0
0
VERTEX
8
RASTER
10
79.894
20
5.969
30
0
0
VERTEX
8
RASTER
10
80.14
20
6.092
30
0
0
VERTEX
8
RASTER
10
81.37
20
6.215
30
0
0
VERTEX
8
RASTER
10
82.108
20
6.461
30
0
0
VERTEX
8
RASTER
10
83.991
20
7.531
30
0
0
VERTEX
8
RASTER
10
84.729
20
8.27
30
0
0
VERTEX
8
RASTER
10
85.714
20
9.869
30
0
0
VERTEX
8
RASTER
10
86.169
20
11.137
30
0
0
VERTEX
8
RASTER
10
86.415
20
12.244
30
0
0
VERTEX
8
RASTER
10
86.415
20
14.459
30
0
0
VERTEX
8
RASTER
10
86.046
20
16.305
30
0
0
VERTEX
8
RASTER
10
85.308
20
18.397
30
0
0
VERTEX
8
RASTER
10
84.237
20
20.525
30
0
0
VERTEX
8
RASTER
10
83.007
20
22.248
30
0
0
VERTEX
8
RASTER
10
82.022
20
23.109
30
0
0
VERTEX
8
RASTER
10
80.509
20
23.934
30
0
0
VERTEX
8
RASTER
10
80.017
20
24.057
30
0
0
SEQEND
8
RASTER
0
POLYLINE
8
RASTER
66
1
70
1
0
VERTEX
8
RASTER
10
75.255
20
20.082
30
0
0
VERTEX
8
RASTER
10
75.464
20
19.996
30
0
0
VERTEX
8
RASTER
10
75.341
20
19.75
30
0
0
VERTEX
8
RASTER
10
75.587
20
19.012
30
0
0
VERTEX
8
RASTER
10
75.255
20
18.606
30
0
0
VERTEX
8
RASTER
10
74.762
20
18.433
30
0
0
VERTEX
8
RASTER
10
74.443
20
18.606
30
0
0
VERTEX
8
RASTER
10
74.356
20
19.135
30
0
0
VERTEX
8
RASTER
10
74.689
20
19.787
30
0
0
VERTEX
8
RASTER
10
74.972
20
19.996
30
0
0
VERTEX
8
RASTER
10
75.304
20
19.91
30
0
0
SEQEND
8
RASTER
0
POLYLINE
8
RASTER
66
1
70
1
0
VERTEX
8
RASTER
10
73.901
20
16.268
30
0
0
VERTEX
8
RASTER
10
74.233
20
16.305
30
0
0
VERTEX
8
RASTER
10
74.603
20
15.936
30
0
0
VERTEX
8
RASTER
10
74.603
20
15.32
30
0
0
VERTEX
8
RASTER
10
74.11
20
14.828
30
0
0
VERTEX
8
RASTER
10
73.704
20
15.037
30
0
0
VERTEX
8
RASTER
10
73.495
20
15.443
30
0
0
VERTEX
8
RASTER
10
73.495
20
15.69
30
0
0
SEQEND
8
RASTER
0
POLYLINE
8
RASTER
66
1
70
1
0
VERTEX
8
RASTER
10
79.192
20
16.022
30
0
0
VERTEX
8
RASTER
10
80.14
20
16.059
30
0
0
VERTEX
8
RASTER
10
80.546
20
15.849
30
0
0
VERTEX
8
RASTER
10
80.841
20
15.53
30
0
0
VERTEX
8
RASTER
10
81.124
20
14.705
30
0
0
VERTEX
8
RASTER
10
81.124
20
14.213
30
0
0
VERTEX
8
RASTER
10
80.792
20
13.315
30
0
0
VERTEX
8
RASTER
10
80.3
20
12.822
30
0
0
VERTEX
8
RASTER
10
79.894
20
12.613
30
0
0
VERTEX
8
RASTER
10
79.155
20
12.613
30
0
0
VERTEX
8
RASTER
10
78.577
20
12.896
30
0
0
VERTEX
8
RASTER
10
78.171
20
13.598
30
0
0
VERTEX
8
RASTER
10
78.171
20
14.705
30
0
0
VERTEX
8
RASTER
10
78.626
20
15.603
30
0
0
SEQEND
8
RASTER
0
POLYLINE
8
RASTER
66
1
70
1
0
VERTEX
8
RASTER
10
84.114
20
15.653
30
0
0
VERTEX
8
RASTER
10
84.446
20
15.69
30
0
0
VERTEX
8
RASTER
10
84.692
20
15.443
30
0
0
VERTEX
8
RASTER
10
84.692
20
14.951
30
0
0
VERTEX
8
RASTER
10
84.323
20
14.582
30
0
0
VERTEX
8
RASTER
10
84.04
20
14.668
30
0
0
VERTEX
8
RASTER
10
83.831
20
15.074
30
0
0
SEQEND
8
RASTER
0
POLYLINE
8
RASTER
66
1
70
1
0
VERTEX
8
RASTER
10
79.488
20
15.406
30
0
0
VERTEX
8
RASTER
10
79.401
20
15.32
30
0
0
VERTEX
8
RASTER
10
79.611
20
14.742
30
0
0
VERTEX
8
RASTER
10
79.771
20
14.951
30
0
0
SEQEND
8
RASTER
0
POLYLINE
8
RASTER
66
1
70
1
0
VERTEX
8
RASTER
10
80.017
20
14.828
30
0
0
VERTEX
8
RASTER
10
79.93
20
14.742
30
0
0
VERTEX
8
RASTER
10
80.349
20
14.545
30
0
0
VERTEX
8
RASTER
10
80.3
20
14.373
30
0
0
VERTEX
8
RASTER
10
80.423
20
14.25
30
0
0
VERTEX
8
RASTER
10
80.595
20
14.619
30
0
0
VERTEX
8
RASTER
10
80.841
20
14.619
30
0
0
VERTEX
8
RASTER
10
80.632
20
14.828
30
0
0
VERTEX
8
RASTER
10
80.472
20
14.742
30
0
0
SEQEND
8
RASTER
0
POLYLINE
8
RASTER
66
1
70
1
0
VERTEX
8
RASTER
10
79.364
20
14.545
30
0
0
VERTEX
8
RASTER
10
79.364
20
14.373
30
0
0
VERTEX
8
RASTER
10
79.069
20
14.299
30
0
0
VERTEX
8
RASTER
10
79.192
20
13.758
30
0
0
VERTEX
8
RASTER
10
79.315
20
13.93
30
0
0
VERTEX
8
RASTER
10
79.488
20
13.881
30
0
0
VERTEX
8
RASTER
10
79.438
20
14.176
30
0
0
VERTEX
8
RASTER
10
79.524
20
14.213
30
0
0
VERTEX
8
RASTER
10
79.684
20
13.881
30
0
0
VERTEX
8
RASTER
10
80.017
20
14.09
30
0
0
VERTEX
8
RASTER
10
80.226
20
13.758
30
0
0
VERTEX
8
RASTER
10
80.349
20
14.176
30
0
0
VERTEX
8
RASTER
10
80.177
20
14.127
30
0
0
SEQEND
8
RASTER
0
POLYLINE
8
RASTER
66
1
70
1
0
VERTEX
8
RASTER
10
73.901
20
12.33
30
0
0
VERTEX
8
RASTER
10
74.233
20
12.367
30
0
0
VERTEX
8
RASTER
10
75.132
20
11.912
30
0
0
VERTEX
8
RASTER
10
75.87
20
11.051
30
0
0
VERTEX
8
RASTER
10
76.325
20
9.906
30
0
0
VERTEX
8
RASTER
10
76.202
20
9.045
30
0
0
VERTEX
8
RASTER
10
75.87
20
8.639
30
0
0
VERTEX
8
RASTER
10
75.341
20
8.553
30
0
0
VERTEX
8
RASTER
10
74.689
20
8.885
30
0
0
VERTEX
8
RASTER
10
74.319
20
9.131
30
0
0
VERTEX
8
RASTER
10
73.827
20
9.746
30
0
0
VERTEX
8
RASTER
10
73.372
20
10.645
30
0
0
VERTEX
8
RASTER
10
73.249
20
11.383
30
0
0
VERTEX
8
RASTER
10
73.458
20
12.035
30
0
0
SEQEND
8
RASTER
0
POLYLINE
8
RASTER
66
1
70
1
0
VERTEX
8
RASTER
10
83.376
20
12.084
30
0
0
VERTEX
8
RASTER
10
84.077
20
12.121
30
0
0
VERTEX
8
RASTER
10
84.409
20
11.961
30
0
0
VERTEX
8
RASTER
10
84.692
20
11.506
30
0
0
VERTEX
8
RASTER
10
84.692
20
10.522
30
0
0
VERTEX
8
RASTER
10
84.114
20
9.254
30
0
0
VERTEX
8
RASTER
10
83.499
20
8.639
30
0
0
VERTEX
8
RASTER
10
82.847
20
8.307
30
0
0
VERTEX
8
RASTER
10
82.478
20
8.307
30
0
0
VERTEX
8
RASTER
10
81.825
20
8.762
30
0
0
VERTEX
8
RASTER
10
81.616
20
9.291
30
0
0
VERTEX
8
RASTER
10
81.616
20
9.906
30
0
0
VERTEX
8
RASTER
10
81.899
20
10.731
30
0
0
VERTEX
8
RASTER
10
82.072
20
10.681
30
0
0
VERTEX
8
RASTER
10
82.514
20
10.977
30
0
0
VERTEX
8
RASTER
10
82.687
20
10.805
30
0
0
VERTEX
8
RASTER
10
82.724
20
11.26
30
0
0
VERTEX
8
RASTER
10
82.933
20
11.42
30
0
0
VERTEX
8
RASTER
10
82.884
20
11.592
30
0
0
VERTEX
8
RASTER
10
83.056
20
11.592
30
0
0
VERTEX
8
RASTER
10
83.216
20
11.383
30
0
0
VERTEX
8
RASTER
10
83.339
20
11.506
30
0
0
VERTEX
8
RASTER
10
83.056
20
11.838
30
0
0
VERTEX
8
RASTER
10
82.933
20
11.789
30
0
0
VERTEX
8
RASTER
10
82.072
20
10.805
30
0
0
VERTEX
8
RASTER
10
81.985
20
10.891
30
0
0
VERTEX
8
RASTER
10
82.318
20
11.42
30
0
0
VERTEX
8
RASTER
10
82.933
20
11.912
30
0
0
VERTEX
8
RASTER
10
83.093
20
11.998
30
0
0
VERTEX
8
RASTER
10
83.302
20
11.912
30
0
0
SEQEND
8
RASTER
0
POLYLINE
8
RASTER
66
1
70
1
0
VERTEX
8
RASTER
10
78.331
20
7.778
30
0
0
VERTEX
8
RASTER
10
79.069
20
7.728
30
0
0
VERTEX
8
RASTER
10
79.401
20
7.322
30
0
0
VERTEX
8
RASTER
10
79.315
20
7.039
30
0
0
VERTEX
8
RASTER
10
78.909
20
6.83
30
0
0
VERTEX
8
RASTER
10
78.257
20
6.916
30
0
0
VERTEX
8
RASTER
10
78.011
20
7.162
30
0
0
VERTEX
8
RASTER
10
77.925
20
7.445
30
0
0
VERTEX
8
RASTER
10
78.011
20
7.605
30
0
0
SEQEND
8
RASTER
0
POLYLINE
8
CUT
66
1
70
1
0
VERTEX
8
CUT
10
98.693
20
25.964
30
0
0
VERTEX
8
CUT
10
101.565
20
25.886
30
0
0
VERTEX
8
CUT
10
108.04
20
23.083
30
0
0
VERTEX
8
CUT
10
108.567
20
22.048
30
0
0
VERTEX
8
CUT
10
108.372
20
19.069
30
0
0
VERTEX
8
CUT
10
109.192
20
19.078
30
0
0
VERTEX
8
CUT
10
109.866
20
19.674
30
0
0
VERTEX
8
CUT
10
110.521
20
19.801
30
0
0
VERTEX
8
CUT
10
112.415
20
19.743
30
0
0
VERTEX
8
CUT
10
113.099
20
19.254
30
0
0
VERTEX
8
CUT
10
113.158
20
13.16
30
0
0
VERTEX
8
CUT
10
112.513
20
10.191
30
0
0
VERTEX
8
CUT
10
110.599
20
7.222
30
0
0
VERTEX
8
CUT
10
108.245
20
5.571
30
0
0
VERTEX
8
CUT
10
104.104
20
4.731
30
0
0
VERTEX
8
CUT
10
100.773
20
4.78
30
0
0
VERTEX
8
CUT
10
100.051
20
5.425
30
0
0
VERTEX
8
CUT
10
99.582
20
7.398
30
0
0
VERTEX
8
CUT
10
93.751
20
9.966
30
0
0
VERTEX
8
CUT
10
92.511
20
10.777
30
0
0
VERTEX
8
CUT
10
92.384
20
13.717
30
0
0
VERTEX
8
CUT
10
93.751
20
17.037
30
0
0
VERTEX
8
CUT
10
93.907
20
19.127
30
0
0
VERTEX
8
CUT
10
95.949
20
20.993
30
0
0
VERTEX
8
CUT
10
98.117
20
25.368
30
0
0
SEQEND
8
CUT
0
POLYLINE
8
RASTER
66
1
70
1
0
VERTEX
8
RASTER
10
99.709
20
25.046
30
0
0
VERTEX
8
RASTER
10
100.07
20
25.075
30
0
0
VERTEX
8
RASTER
10
101.047
20
24.685
30
0
0
VERTEX
8
RASTER
10
106.321
20
22.438
30
0
0
VERTEX
8
RASTER
10
107.327
20
21.882
30
0
0
VERTEX
8
RASTER
10
107.591
20
21.266
30
0
0
VERTEX
8
RASTER
10
105.764
20
17.096
30
0
0
VERTEX
8
RASTER
10
106.516
20
17.457
30
0
0
VERTEX
8
RASTER
10
108.177
20
17.946
30
0
0
VERTEX
8
RASTER
10
109.446
20
18.043
30
0
0
VERTEX
8
RASTER
10
110.228
20
17.848
30
0
0
VERTEX
8
RASTER
10
110.452
20
18.014
30
0
0
VERTEX
8
RASTER
10
110.687
20
18.561
30
0
0
VERTEX
8
RASTER
10
110.911
20
18.727
30
0
0
VERTEX
8
RASTER
10
111.497
20
18.727
30
0
0
VERTEX
8
RASTER
10
112.015
20
18.463
30
0
0
VERTEX
8
RASTER
10
112.181
20
18.141
30
0
0
VERTEX
8
RASTER
10
112.181
20
17.555
30
0
0
VERTEX
8
RASTER
10
112.083
20
17.262
30
0
0
VERTEX
8
RASTER
10
111.82
20
16.744
30
0
0
VERTEX
8
RASTER
10
111.624
20
16.549
30
0
0
VERTEX
8
RASTER
10
112.083
20
15.602
30
0
0
VERTEX
8
RASTER
10
112.181
20
15.113
30
0
0
VERTEX
8
RASTER
10
112.181
20
14.039
30
0
0
VERTEX
8
RASTER
10
112.083
20
13.844
30
0
0
VERTEX
8
RASTER
10
111.986
20
12.867
30
0
0
VERTEX
8
RASTER
10
111.4
20
10.914
30
0
0
VERTEX
8
RASTER
10
110.941
20
10.005
30
0
0
VERTEX
8
RASTER
10
109.964
20
8.638
30
0
0
VERTEX
8
RASTER
10
108.89
20
7.564
30
0
0
VERTEX
8
RASTER
10
108.011
20
6.978
30
0
0
VERTEX
8
RASTER
10
106.907
20
6.421
30
0
0
VERTEX
8
RASTER
10
105.93
20
6.128
30
0
0
VERTEX
8
RASTER
10
104.954
20
6.03
30
0
0
VERTEX
8
RASTER
10
104.758
20
5.933
30
0
0
VERTEX
8
RASTER
10
104.172
20
5.933
30
0
0
VERTEX
8
RASTER
10
103.196
20
5.737
30
0
0
VERTEX
8
RASTER
10
101.828
20
5.737
30
0
0
VERTEX
8
RASTER
10
101.311
20
6.001
30
0
0
VERTEX
8
RASTER
10
100.949
20
6.616
30
0
0
VERTEX
8
RASTER
10
100.949
20
8.179
30
0
0
VERTEX
8
RASTER
10
100.881
20
8.306
30
0
0
VERTEX
8
RASTER
10
98.117
20
9.449
30
0
0
VERTEX
8
RASTER
10
95.314
20
10.748
30
0
0
VERTEX
8
RASTER
10
95.48
20
10.816
30
0
0
VERTEX
8
RASTER
10
95.773
20
10.718
30
0
0
VERTEX
8
RASTER
10
100.559
20
8.667
30
0
0
VERTEX
8
RASTER
10
100.92
20
8.697
30
0
0
VERTEX
8
RASTER
10
101.047
20
8.96
30
0
0
VERTEX
8
RASTER
10
101.145
20
9.253
30
0
0
VERTEX
8
RASTER
10
101.047
20
9.644
30
0
0
VERTEX
8
RASTER
10
101.047
20
10.425
30
0
0
VERTEX
8
RASTER
10
101.242
20
11.109
30
0
0
VERTEX
8
RASTER
10
101.242
20
11.5
30
0
0
VERTEX
8
RASTER
10
101.633
20
12.672
30
0
0
VERTEX
8
RASTER
10
102.121
20
13.551
30
0
0
VERTEX
8
RASTER
10
102.121
20
13.746
30
0
0
VERTEX
8
RASTER
10
102.053
20
13.873
30
0
0
VERTEX
8
RASTER
10
101.633
20
14.039
30
0
0
VERTEX
8
RASTER
10
100.656
20
14.039
30
0
0
VERTEX
8
RASTER
10
100.461
20
13.941
30
0
0
VERTEX
8
RASTER
10
100.07
20
13.941
30
0
0
VERTEX
8
RASTER
10
99.387
20
13.648
30
0
0
VERTEX
8
RASTER
10
99.162
20
13.717
30
0
0
VERTEX
8
RASTER
10
98.508
20
15.211
30
0
0
VERTEX
8
RASTER
10
98.283
20
16.061
30
0
0
VERTEX
8
RASTER
10
98.049
20
16.412
30
0
0
VERTEX
8
RASTER
10
97.726
20
16.578
30
0
0
VERTEX
8
RASTER
10
96.847
20
16.774
30
0
0
VERTEX
8
RASTER
10
96.359
20
16.774
30
0
0
VERTEX
8
RASTER
10
95.968
20
17.067
30
0
0
VERTEX
8
RASTER
10
95.548
20
16.998
30
0
0
VERTEX
8
RASTER
10
94.923
20
15.768
30
0
0
VERTEX
8
RASTER
10
94.572
20
15.24
30
0
0
VERTEX
8
RASTER
10
94.21
20
14.332
30
0
0
VERTEX
8
RASTER
10
93.82
20
13.648
30
0
0
VERTEX
8
RASTER
10
93.624
20
13.16
30
0
0
VERTEX
8
RASTER
10
93.624
20
12.867
30
0
0
VERTEX
8
RASTER
10
93.429
20
12.476
30
0
0
VERTEX
8
RASTER
10
93.429
20
12.183
30
0
0
VERTEX
8
RASTER
10
93.595
20
11.861
30
0
0
VERTEX
8
RASTER
10
93.888
20
11.568
30
0
0
VERTEX
8
RASTER
10
95.255
20
10.845
30
0
0
VERTEX
8
RASTER
10
94.894
20
10.914
30
0
0
VERTEX
8
RASTER
10
93.79
20
11.47
30
0
0
VERTEX
8
RASTER
10
93.497
20
11.763
30
0
0
VERTEX
8
RASTER
10
93.331
20
12.086
30
0
0
VERTEX
8
RASTER
10
93.331
20
12.672
30
0
0
VERTEX
8
RASTER
10
93.624
20
13.551
30
0
0
VERTEX
8
RASTER
10
95.48
20
17.262
30
0
0
VERTEX
8
RASTER
10
94.865
20
17.526
30
0
0
VERTEX
8
RASTER
10
94.796
20
18.043
30
0
0
VERTEX
8
RASTER
10
95.216
20
18.6
30
0
0
VERTEX
8
RASTER
10
95.412
20
18.698
30
0
0
VERTEX
8
RASTER
10
96.037
20
19.342
30
0
0
VERTEX
8
RASTER
10
96.584
20
19.674
30
0
0
VERTEX
8
RASTER
10
96.818
20
19.635
30
0
0
VERTEX
8
RASTER
10
99.26
20
24.616
30
0
0
VERTEX
8
RASTER
10
99.455
20
24.909
30
0
0
SEQEND
8
RASTER
0
POLYLINE
8
RASTER
66
1
70
1
0
VERTEX
8
RASTER
10
99.875
20
24.392
30
0
0
VERTEX
8
RASTER
10
99.709
20
24.265
30
0
0
VERTEX
8
RASTER
10
98.605
20
21.852
30
0
0
VERTEX
8
RASTER
10
98.898
20
21.657
30
0
0
VERTEX
8
RASTER
10
99.289
20
21.657
30
0
0
VERTEX
8
RASTER
10
100.656
20
20.973
30
0
0
VERTEX
8
RASTER
10
101.145
20
20.876
30
0
0
VERTEX
8
RASTER
10
101.369
20
21.042
30
0
0
VERTEX
8
RASTER
10
102.287
20
22.956
30
0
0
VERTEX
8
RASTER
10
102.58
20
23.288
30
0
0
VERTEX
8
RASTER
10
102.414
20
23.513
30
0
0
VERTEX
8
RASTER
10
100.461
20
24.294
30
0
0
SEQEND
8
RASTER
0
POLYLINE
8
RASTER
66
1
70
1
0
VERTEX
8
RASTER
10
100.1
20
23.679
30
0
0
VERTEX
8
RASTER
10
100.588
20
23.64
30
0
0
VERTEX
8
RASTER
10
100.881
20
23.444
30
0
0
VERTEX
8
RASTER
10
100.979
20
23.151
30
0
0
VERTEX
8
RASTER
10
101.115
20
23.054
30
0
0
VERTEX
8
RASTER
10
100.852
20
23.122
30
0
0
VERTEX
8
RASTER
10
100.295
20
22.604
30
0
0
VERTEX
8
RASTER
10
99.875
20
22.536
30
0
0
VERTEX
8
RASTER
10
99.68
20
22.341
30
0
0
VERTEX
8
RASTER
10
99.582
20
22.438
30
0
0
VERTEX
8
RASTER
10
99.777
20
22.829
30
0
0
VERTEX
8
RASTER
10
99.68
20
23.024
30
0
0
SEQEND
8
RASTER
0
POLYLINE
8
RASTER
66
1
70
1
0
VERTEX
8
RASTER
10
103.586
20
22.927
30
0
0
VERTEX
8
RASTER
10
103.293
20
22.634
30
0
0
VERTEX
8
RASTER
10
103.293
20
22.438
30
0
0
VERTEX
8
RASTER
10
102.317
20
20.29
30
0
0
VERTEX
8
RASTER
10
102.414
20
20.192
30
0
0
VERTEX
8
RASTER
10
102.707
20
20.192
30
0
0
VERTEX
8
RASTER
10
103.684
20
19.899
30
0
0
VERTEX
8
RASTER
10
104.563
20
19.411
30
0
0
VERTEX
8
RASTER
10
104.954
20
19.313
30
0
0
VERTEX
8
RASTER
10
105.247
20
19.606
30
0
0
VERTEX
8
RASTER
10
105.54
20
20.485
30
0
0
VERTEX
8
RASTER
10
105.51
20
20.905
30
0
0
VERTEX
8
RASTER
10
105.706
20
20.905
30
0
0
VERTEX
8
RASTER
10
105.764
20
21.432
30
0
0
VERTEX
8
RASTER
10
106.057
20
21.53
30
0
0
VERTEX
8
RASTER
10
106.223
20
21.852
30
0
0
VERTEX
8
RASTER
10
104.856
20
22.536
30
0
0
SEQEND
8
RASTER
0
POLYLINE
8
RASTER
66
1
70
1
0
VERTEX
8
RASTER
10
98.117
20
20.778
30
0
0
VERTEX
8
RASTER
10
97.824
20
20.485
30
0
0
VERTEX
8
RASTER
10
97.238
20
19.118
30
0
0
VERTEX
8
RASTER
10
97.238
20
18.825
30
0
0
VERTEX
8
RASTER
10
97.365
20
18.659
30
0
0
VERTEX
8
RASTER
10
97.502
20
18.698
30
0
0
VERTEX
8
RASTER
10
98.312
20
18.336
30
0
0
VERTEX
8
RASTER
10
98.576
20
18.366
30
0
0
VERTEX
8
RASTER
10
98.703
20
18.629
30
0
0
VERTEX
8
RASTER
10
98.801
20
18.532
30
0
0
VERTEX
8
RASTER
10
98.869
20
18.112
30
0
0
VERTEX
8
RASTER
10
99.064
20
17.916
30
0
0
VERTEX
8
RASTER
10
99.289
20
17.848
30
0
0
VERTEX
8
RASTER
10
99.553
20
18.073
30
0
0
VERTEX
8
RASTER
10
99.611
20
18.502
30
0
0
VERTEX
8
RASTER
10
99.904
20
18.698
30
0
0
VERTEX
8
RASTER
10
100.002
20
18.991
30
0
0
VERTEX
8
RASTER
10
100.432
20
19.147
30
0
0
VERTEX
8
RASTER
10
100.822
20
19.577
30
0
0
VERTEX
8
RASTER
10
100.686
20
19.733
30
0
0
VERTEX
8
RASTER
10
100.168
20
19.997
30
0
0
SEQEND
8
RASTER
0
POLYLINE
8
RASTER
66
1
70
1
0
VERTEX
8
RASTER
10
96.623
20
19.284
30
0
0
VERTEX
8
RASTER
10
96.33
20
19.147
30
0
0
VERTEX
8
RASTER
10
95.353
20
18.17
30
0
0
VERTEX
8
RASTER
10
95.216
20
17.877
30
0
0
VERTEX
8
RASTER
10
96.134
20
17.526
30
0
0
VERTEX
8
RASTER
10
96.33
20
17.135
30
0
0
VERTEX
8
RASTER
10
96.554
20
16.969
30
0
0
VERTEX
8
RASTER
10
97.336
20
16.969
30
0
0
VERTEX
8
RASTER
10
97.824
20
16.871
30
0
0
VERTEX
8
RASTER
10
98.342
20
16.608
30
0
0
VERTEX
8
RASTER
10
98.605
20
16.09
30
0
0
VERTEX
8
RASTER
10
98.898
20
14.82
30
0
0
VERTEX
8
RASTER
10
99.26
20
14.107
30
0
0
VERTEX
8
RASTER
10
99.68
20
14.039
30
0
0
VERTEX
8
RASTER
10
100.461
20
14.234
30
0
0
VERTEX
8
RASTER
10
101.731
20
14.234
30
0
0
VERTEX
8
RASTER
10
102.219
20
14.039
30
0
0
VERTEX
8
RASTER
10
102.444
20
14.205
30
0
0
VERTEX
8
RASTER
10
102.873
20
14.85
30
0
0
VERTEX
8
RASTER
10
102.61
20
15.016
30
0
0
VERTEX
8
RASTER
10
100.363
20
14.918
30
0
0
VERTEX
8
RASTER
10
100.041
20
15.084
30
0
0
VERTEX
8
RASTER
10
98.83
20
17.389
30
0
0
VERTEX
8
RASTER
10
97.209
20
18.307
30
0
0
VERTEX
8
RASTER
10
96.916
20
18.6
30
0
0
SEQEND
8
RASTER
0
POLYLINE
8
RASTER
66
1
70
1
0
VERTEX
8
RASTER
10
101.926
20
19.02
30
0
0
VERTEX
8
RASTER
10
101.701
20
18.854
30
0
0
VERTEX
8
RASTER
10
101.535
20
18.532
30
0
0
VERTEX
8
RASTER
10
100.686
20
16.51
30
0
0
VERTEX
8
RASTER
10
101.242
20
16.188
30
0
0
VERTEX
8
RASTER
10
103.196
20
15.406
30
0
0
VERTEX
8
RASTER
10
103.391
20
15.699
30
0
0
VERTEX
8
RASTER
10
103.391
20
15.992
30
0
0
VERTEX
8
RASTER
10
103.586
20
16.481
30
0
0
VERTEX
8
RASTER
10
103.518
20
16.901
30
0
0
VERTEX
8
RASTER
10
103.196
20
17.164
30
0
0
VERTEX
8
RASTER
10
103.264
20
17.428
30
0
0
VERTEX
8
RASTER
10
102.932
20
17.428
30
0
0
VERTEX
8
RASTER
10
102.805
20
17.164
30
0
0
VERTEX
8
RASTER
10
102.61
20
17.457
30
0
0
VERTEX
8
RASTER
10
102.483
20
17.096
30
0
0
VERTEX
8
RASTER
10
102.024
20
17.067
30
0
0
VERTEX
8
RASTER
10
101.828
20
17.164
30
0
0
VERTEX
8
RASTER
10
101.701
20
16.901
30
0
0
VERTEX
8
RASTER
10
101.535
20
16.871
30
0
0
VERTEX
8
RASTER
10
101.34
20
17.067
30
0
0
VERTEX
8
RASTER
10
101.565
20
17.819
30
0
0
VERTEX
8
RASTER
10
102.121
20
18.434
30
0
0
VERTEX
8
RASTER
10
102.707
20
18.239
30
0
0
VERTEX
8
RASTER
10
103
20
18.043
30
0
0
VERTEX
8
RASTER
10
103.264
20
18.014
30
0
0
VERTEX
8
RASTER
10
103.323
20
17.682
30
0
0
VERTEX
8
RASTER
10
103.586
20
17.75
30
0
0
VERTEX
8
RASTER
10
103.782
20
17.555
30
0
0
VERTEX
8
RASTER
10
104.299
20
17.623
30
0
0
VERTEX
8
RASTER
10
104.465
20
17.946
30
0
0
VERTEX
8
RASTER
10
103.977
20
18.239
30
0
0
VERTEX
8
RASTER
10
103.684
20
18.239
30
0
0
VERTEX
8
RASTER
10
103.391
20
18.434
30
0
0
SEQEND
8
RASTER
0
POLYLINE
8
RASTER
66
1
70
1
0
VERTEX
8
RASTER
10
111.204
20
18.239
30
0
0
VERTEX
8
RASTER
10
111.077
20
18.17
30
0
0
VERTEX
8
RASTER
10
110.814
20
17.555
30
0
0
VERTEX
8
RASTER
10
111.175
20
17.233
30
0
0
VERTEX
8
RASTER
10
111.4
20
17.164
30
0
0
VERTEX
8
RASTER
10
111.595
20
17.457
30
0
0
VERTEX
8
RASTER
10
111.693
20
17.848
30
0
0
VERTEX
8
RASTER
10
111.527
20
18.073
30
0
0
SEQEND
8
RASTER
0
POLYLINE
8
RASTER
66
1
70
1
0
VERTEX
8
RASTER
10
108.567
20
17.555
30
0
0
VERTEX
8
RASTER
10
108.372
20
17.457
30
0
0
VERTEX
8
RASTER
10
107.884
20
17.457
30
0
0
VERTEX
8
RASTER
10
106.907
20
17.164
30
0
0
VERTEX
8
RASTER
10
104.631
20
15.826
30
0
0
VERTEX
8
RASTER
10
103.557
20
14.85
30
0
0
VERTEX
8
RASTER
10
102.58
20
13.482
30
0
0
VERTEX
8
RASTER
10
101.731
20
11.695
30
0
0
VERTEX
8
RASTER
10
101.731
20
11.402
30
0
0
VERTEX
8
RASTER
10
101.535
20
10.914
30
0
0
VERTEX
8
RASTER
10
101.535
20
10.523
30
0
0
VERTEX
8
RASTER
10
101.34
20
9.839
30
0
0
VERTEX
8
RASTER
10
101.438
20
7.007
30
0
0
VERTEX
8
RASTER
10
101.701
20
6.392
30
0
0
VERTEX
8
RASTER
10
102.248
20
6.255
30
0
0
VERTEX
8
RASTER
10
103.489
20
6.323
30
0
0
VERTEX
8
RASTER
10
104.27
20
6.519
30
0
0
VERTEX
8
RASTER
10
105.247
20
6.519
30
0
0
VERTEX
8
RASTER
10
105.637
20
6.714
30
0
0
VERTEX
8
RASTER
10
105.93
20
6.714
30
0
0
VERTEX
8
RASTER
10
106.223
20
6.909
30
0
0
VERTEX
8
RASTER
10
106.419
20
6.909
30
0
0
VERTEX
8
RASTER
10
106.936
20
7.271
30
0
0
VERTEX
8
RASTER
10
107.034
20
7.466
30
0
0
VERTEX
8
RASTER
10
107.327
20
7.564
30
0
0
VERTEX
8
RASTER
10
107.464
20
7.817
30
0
0
VERTEX
8
RASTER
10
108.108
20
8.15
30
0
0
VERTEX
8
RASTER
10
108.636
20
8.599
30
0
0
VERTEX
8
RASTER
10
108.831
20
8.638
30
0
0
VERTEX
8
RASTER
10
108.665
20
8.374
30
0
0
VERTEX
8
RASTER
10
108.792
20
8.345
30
0
0
VERTEX
8
RASTER
10
109.671
20
9.224
30
0
0
VERTEX
8
RASTER
10
110.159
20
9.908
30
0
0
VERTEX
8
RASTER
10
110.423
20
10.816
30
0
0
VERTEX
8
RASTER
10
111.038
20
11.666
30
0
0
VERTEX
8
RASTER
10
111.204
20
12.086
30
0
0
VERTEX
8
RASTER
10
111.302
20
12.769
30
0
0
VERTEX
8
RASTER
10
111.693
20
14.039
30
0
0
VERTEX
8
RASTER
10
111.693
20
15.211
30
0
0
VERTEX
8
RASTER
10
111.429
20
16.022
30
0
0
VERTEX
8
RASTER
10
111.136
20
16.608
30
0
0
VERTEX
8
RASTER
10
110.843
20
16.901
30
0
0
VERTEX
8
RASTER
10
110.452
20
17.194
30
0
0
VERTEX
8
RASTER
10
109.544
20
17.555
30
0
0
VERTEX
8
RASTER
10
108.733
20
17.487
30
0
0
SEQEND
8
RASTER
0
POLYLINE
8
RASTER
66
1
70
1
0
VERTEX
8
RASTER
10
107.327
20
16.256
30
0
0
VERTEX
8
RASTER
10
107.561
20
16.217
30
0
0
VERTEX
8
RASTER
10
105.862
20
15.084
30
0
0
VERTEX
8
RASTER
10
105.764
20
14.889
30
0
0
VERTEX
8
RASTER
10
104.69
20
13.873
30
0
0
VERTEX
8
RASTER
10
104.661
20
14.039
30
0
0
VERTEX
8
RASTER
10
105.022
20
14.557
30
0
0
VERTEX
8
RASTER
10
105.608
20
14.947
30
0
0
VERTEX
8
RASTER
10
106.292
20
15.631
30
0
0
VERTEX
8
RASTER
10
107.268
20
16.119
30
0
0
SEQEND
8
RASTER
0
POLYLINE
8
RASTER
66
1
70
1
0
VERTEX
8
RASTER
10
109.085
20
14.107
30
0
0
VERTEX
8
RASTER
10
109.153
20
14.039
30
0
0
VERTEX
8
RASTER
10
108.89
20
13.619
30
0
0
VERTEX
8
RASTER
10
108.597
20
13.385
30
0
0
VERTEX
8
RASTER
10
108.636
20
13.58
30
0
0
SEQEND
8
RASTER
0
POLYLINE
8
RASTER
66
1
70
1
0
VERTEX
8
RASTER
10
110.941
20
14.107
30
0
0
VERTEX
8
RASTER
10
111.107
20
14.039
30
0
0
VERTEX
8
RASTER
10
110.911
20
13.551
30
0
0
VERTEX
8
RASTER
10
110.911
20
13.16
30
0
0
VERTEX
8
RASTER
10
110.452
20
12.056
30
0
0
VERTEX
8
RASTER
10
109.515
20
10.748
30
0
0
VERTEX
8
RASTER
10
108.987
20
10.259
30
0
0
VERTEX
8
RASTER
10
109.026
20
10.552
30
0
0
VERTEX
8
RASTER
10
109.573
20
11.275
30
0
0
VERTEX
8
RASTER
10
110.062
20
12.154
30
0
0
SEQEND
8
RASTER
0
POLYLINE
8
RASTER
66
1
70
1
0
VERTEX
8
RASTER
10
103.323
20
12.056
30
0
0
VERTEX
8
RASTER
10
102.444
20
10.162
30
0
0
VERTEX
8
RASTER
10
102.414
20
10.328
30
0
0
VERTEX
8
RASTER
10
102.61
20
10.914
30
0
0
VERTEX
8
RASTER
10
102.971
20
11.627
30
0
0
SEQEND
8
RASTER
0
POLYLINE
8
RASTER
66
1
70
1
0
VERTEX
8
RASTER
10
105.96
20
10.396
30
0
0
VERTEX
8
RASTER
10
106.028
20
10.328
30
0
0
VERTEX
8
RASTER
10
105.96
20
10.201
30
0
0
VERTEX
8
RASTER
10
105.667
20
9.81
30
0
0
VERTEX
8
RASTER
10
105.12
20
9.38
30
0
0
VERTEX
8
RASTER
10
104.983
20
9.126
30
0
0
VERTEX
8
RASTER
10
104.729
20
8.99
30
0
0
VERTEX
8
RASTER
10
104.104
20
8.345
30
0
0
VERTEX
8
RASTER
10
103.42
20
8.013
30
0
0
VERTEX
8
RASTER
10
103.557
20
8.306
30
0
0
VERTEX
8
RASTER
10
103.85
20
8.599
30
0
0
VERTEX
8
RASTER
10
104.104
20
8.736
30
0
0
VERTEX
8
RASTER
10
104.729
20
9.38
30
0
0
VERTEX
8
RASTER
10
104.983
20
9.517
30
0
0
VERTEX
8
RASTER
10
105.608
20
10.162
30
0
0
SEQEND
8
RASTER
0
POLYLINE
8
RASTER
66
1
70
1
0
VERTEX
8
RASTER
10
108.206
20
9.517
30
0
0
VERTEX
8
RASTER
10
108.274
20
9.449
30
0
0
VERTEX
8
RASTER
10
108.206
20
9.322
30
0
0
VERTEX
8
RASTER
10
107.913
20
8.931
30
0
0
VERTEX
8
RASTER
10
106.839
20
7.954
30
0
0
VERTEX
8
RASTER
10
105.149
20
7.105
30
0
0
VERTEX
8
RASTER
10
104.172
20
6.812
30
0
0
VERTEX
8
RASTER
10
104.006
20
6.841
30
0
0
VERTEX
8
RASTER
10
104.006
20
6.978
30
0
0
VERTEX
8
RASTER
10
104.436
20
7.231
30
0
0
VERTEX
8
RASTER
10
106.155
20
8.052
30
0
0
SEQEND
8
RASTER
0
POLYLINE
8
CUT
66
1
70
1
0
VERTEX
8
CUT
10
124.493
20
25.903
30
0
0
VERTEX
8
CUT
10
126.378
20
25.964
30
0
0
VERTEX
8
CUT
10
127.628
20
25.677
30
0
0
VERTEX
8
CUT
10
129.738
20
23.147
30
0
0
VERTEX
8
CUT
10
132.402
20
24.653
30
0
0
VERTEX
8
CUT
10
135.475
20
24.612
30
0
0
VERTEX
8
CUT
10
137.586
20
23.034
30
0
0
VERTEX
8
CUT
10
138.036
20
20.821
30
0
0
VERTEX
8
CUT
10
138.805
20
19.541
30
0
0
VERTEX
8
CUT
10
138.754
20
16.252
30
0
0
VERTEX
8
CUT
10
135.844
20
12.605
30
0
0
VERTEX
8
CUT
10
135.137
20
10.648
30
0
0
VERTEX
8
CUT
10
134.256
20
9.89
30
0
0
VERTEX
8
CUT
10
132.863
20
9.234
30
0
0
VERTEX
8
CUT
10
129.943
20
6.007
30
0
0
VERTEX
8
CUT
10
128.96
20
5.454
30
0
0
VERTEX
8
CUT
10
126.173
20
5.372
30
0
0
VERTEX
8
CUT
10
124.38
20
5.731
30
0
0
VERTEX
8
CUT
10
123.284
20
6.479
30
0
0
VERTEX
8
CUT
10
122.382
20
7.831
30
0
0
VERTEX
8
CUT
10
119.913
20
8.025
30
0
0
VERTEX
8
CUT
10
118.653
20
8.609
30
0
0
VERTEX
8
CUT
10
117.752
20
9.552
30
0
0
VERTEX
8
CUT
10
117.25
20
10.587
30
0
0
VERTEX
8
CUT
10
117.158
20
13.67
30
0
0
VERTEX
8
CUT
10
117.485
20
14.982
30
0
0
VERTEX
8
CUT
10
118.059
20
15.637
30
0
0
VERTEX
8
CUT
10
122.505
20
18.557
30
0
0
VERTEX
8
CUT
10
121.594
20
20.77
30
0
0
VERTEX
8
CUT
10
121.624
20
23.649
30
0
0
VERTEX
8
CUT
10
122.188
20
24.519
30
0
0
SEQEND
8
CUT
0
POLYLINE
8
RASTER
66
1
70
1
0
VERTEX
8
RASTER
10
125.384
20
24.806
30
0
0
VERTEX
8
RASTER
10
126.071
20
24.837
30
0
0
VERTEX
8
RASTER
10
126.818
20
24.458
30
0
0
VERTEX
8
RASTER
10
129.277
20
20.975
30
0
0
VERTEX
8
RASTER
10
132.494
20
23.126
30
0
0
VERTEX
8
RASTER
10
133.447
20
23.608
30
0
0
VERTEX
8
RASTER
10
134.266
20
23.608
30
0
0
VERTEX
8
RASTER
10
134.809
20
23.331
30
0
0
VERTEX
8
RASTER
10
135.014
20
23.126
30
0
0
VERTEX
8
RASTER
10
135.362
20
22.45
30
0
0
VERTEX
8
RASTER
10
136.008
20
22.378
30
0
0
VERTEX
8
RASTER
10
136.448
20
22.102
30
0
0
VERTEX
8
RASTER
10
136.827
20
21.354
30
0
0
VERTEX
8
RASTER
10
136.827
20
20.432
30
0
0
VERTEX
8
RASTER
10
136.653
20
19.991
30
0
0
VERTEX
8
RASTER
10
136.448
20
19.745
30
0
0
VERTEX
8
RASTER
10
137.166
20
19.438
30
0
0
VERTEX
8
RASTER
10
137.473
20
19.131
30
0
0
VERTEX
8
RASTER
10
137.852
20
18.178
30
0
0
VERTEX
8
RASTER
10
137.75
20
17.461
30
0
0
VERTEX
8
RASTER
10
137.268
20
16.611
30
0
0
VERTEX
8
RASTER
10
134.543
20
13.394
30
0
0
VERTEX
8
RASTER
10
134.471
20
12.646
30
0
0
VERTEX
8
RASTER
10
134.266
20
12.031
30
0
0
VERTEX
8
RASTER
10
133.99
20
11.591
30
0
0
VERTEX
8
RASTER
10
133.273
20
10.976
30
0
0
VERTEX
8
RASTER
10
131.879
20
10.423
30
0
0
VERTEX
8
RASTER
10
131.429
20
9.849
30
0
0
VERTEX
8
RASTER
10
130.855
20
9.296
30
0
0
VERTEX
8
RASTER
10
130.711
20
9.029
30
0
0
VERTEX
8
RASTER
10
129.933
20
8.271
30
0
0
VERTEX
8
RASTER
10
129.789
20
8.005
30
0
0
VERTEX
8
RASTER
10
128.662
20
6.878
30
0
0
VERTEX
8
RASTER
10
127.915
20
6.499
30
0
0
VERTEX
8
RASTER
10
126.48
20
6.499
30
0
0
VERTEX
8
RASTER
10
125.456
20
6.806
30
0
0
VERTEX
8
RASTER
10
124.606
20
7.288
30
0
0
VERTEX
8
RASTER
10
124.196
20
7.698
30
0
0
VERTEX
8
RASTER
10
123.817
20
8.343
30
0
0
VERTEX
8
RASTER
10
123.714
20
8.65
30
0
0
VERTEX
8
RASTER
10
123.683
20
9.849
30
0
0
VERTEX
8
RASTER
10
122.587
20
9.163
30
0
0
VERTEX
8
RASTER
10
121.87
20
8.958
30
0
0
VERTEX
8
RASTER
10
121.051
20
9.06
30
0
0
VERTEX
8
RASTER
10
119.893
20
9.542
30
0
0
VERTEX
8
RASTER
10
119.586
20
9.747
30
0
0
VERTEX
8
RASTER
10
118.766
20
10.669
30
0
0
VERTEX
8
RASTER
10
118.285
20
11.724
30
0
0
VERTEX
8
RASTER
10
118.285
20
12.236
30
0
0
VERTEX
8
RASTER
10
118.182
20
12.441
30
0
0
VERTEX
8
RASTER
10
118.387
20
13.568
30
0
0
VERTEX
8
RASTER
10
118.868
20
14.418
30
0
0
VERTEX
8
RASTER
10
124.81
20
18.209
30
0
0
VERTEX
8
RASTER
10
123.643
20
20.053
30
0
0
VERTEX
8
RASTER
10
123.069
20
20.811
30
0
0
VERTEX
8
RASTER
10
122.69
20
21.559
30
0
0
VERTEX
8
RASTER
10
122.587
20
22.276
30
0
0
VERTEX
8
RASTER
10
122.925
20
23.167
30
0
0
VERTEX
8
RASTER
10
123.171
20
23.434
30
0
0
VERTEX
8
RASTER
10
123.714
20
23.71
30
0
0
VERTEX
8
RASTER
10
124.298
20
23.741
30
0
0
VERTEX
8
RASTER
10
124.708
20
24.458
30
0
0
SEQEND
8
RASTER
0
POLYLINE
8
RASTER
66
1
70
1
0
VERTEX
8
RASTER
10
125.558
20
24.325
30
0
0
VERTEX
8
RASTER
10
125.015
20
24.048
30
0
0
VERTEX
8
RASTER
10
124.841
20
23.71
30
0
0
VERTEX
8
RASTER
10
124.913
20
23.27
30
0
0
VERTEX
8
RASTER
10
125.794
20
22.102
30
0
0
VERTEX
8
RASTER
10
127.269
20
19.889
30
0
0
VERTEX
8
RASTER
10
128.765
20
17.901
30
0
0
VERTEX
8
RASTER
10
129.625
20
16.508
30
0
0
VERTEX
8
RASTER
10
130.506
20
15.34
30
0
0
VERTEX
8
RASTER
10
131.265
20
14.152
30
0
0
VERTEX
8
RASTER
10
131.367
20
14.111
30
0
0
VERTEX
8
RASTER
10
131.777
20
14.726
30
0
0
VERTEX
8
RASTER
10
132.422
20
15.002
30
0
0
VERTEX
8
RASTER
10
133.006
20
15.033
30
0
0
VERTEX
8
RASTER
10
130.343
20
18.557
30
0
0
VERTEX
8
RASTER
10
126.613
20
23.946
30
0
0
VERTEX
8
RASTER
10
126.071
20
24.325
30
0
0
SEQEND
8
RASTER
0
POLYLINE
8
RASTER
66
1
70
1
0
VERTEX
8
RASTER
10
123.714
20
23.198
30
0
0
VERTEX
8
RASTER
10
123.376
20
23.024
30
0
0
VERTEX
8
RASTER
10
123.1
20
22.481
30
0
0
VERTEX
8
RASTER
10
123.1
20
21.866
30
0
0
VERTEX
8
RASTER
10
123.274
20
21.528
30
0
0
VERTEX
8
RASTER
10
126.921
20
16.16
30
0
0
VERTEX
8
RASTER
10
128.806
20
13.086
30
0
0
VERTEX
8
RASTER
10
129.216
20
13.803
30
0
0
VERTEX
8
RASTER
10
129.523
20
14.111
30
0
0
VERTEX
8
RASTER
10
130.547
20
14.521
30
0
0
VERTEX
8
RASTER
10
130.506
20
14.623
30
0
0
VERTEX
8
RASTER
10
128.294
20
17.533
30
0
0
VERTEX
8
RASTER
10
125.22
20
21.938
30
0
0
VERTEX
8
RASTER
10
125.077
20
21.897
30
0
0
VERTEX
8
RASTER
10
125.077
20
22.04
30
0
0
VERTEX
8
RASTER
10
124.872
20
21.794
30
0
0
VERTEX
8
RASTER
10
125.015
20
22.143
30
0
0
VERTEX
8
RASTER
10
124.81
20
21.999
30
0
0
VERTEX
8
RASTER
10
124.708
20
22.04
30
0
0
VERTEX
8
RASTER
10
124.093
20
22.757
30
0
0
VERTEX
8
RASTER
10
124.022
20
22.891
30
0
0
VERTEX
8
RASTER
10
124.124
20
22.993
30
0
0
VERTEX
8
RASTER
10
124.565
20
22.716
30
0
0
VERTEX
8
RASTER
10
124.565
20
22.819
30
0
0
VERTEX
8
RASTER
10
123.919
20
23.198
30
0
0
SEQEND
8
RASTER
0
POLYLINE
8
RASTER
66
1
70
1
0
VERTEX
8
RASTER
10
133.857
20
23.198
30
0
0
VERTEX
8
RASTER
10
133.447
20
23.095
30
0
0
VERTEX
8
RASTER
10
132.596
20
22.614
30
0
0
VERTEX
8
RASTER
10
129.728
20
20.667
30
0
0
VERTEX
8
RASTER
10
129.656
20
20.432
30
0
0
VERTEX
8
RASTER
10
129.933
20
19.991
30
0
0
VERTEX
8
RASTER
10
130.24
20
19.745
30
0
0
VERTEX
8
RASTER
10
131.06
20
20.36
30
0
0
VERTEX
8
RASTER
10
132.801
20
21.385
30
0
0
VERTEX
8
RASTER
10
132.934
20
21.456
30
0
0
VERTEX
8
RASTER
10
133.109
20
21.385
30
0
0
VERTEX
8
RASTER
10
133.211
20
21.528
30
0
0
VERTEX
8
RASTER
10
133.344
20
21.149
30
0
0
VERTEX
8
RASTER
10
134.604
20
21.938
30
0
0
VERTEX
8
RASTER
10
134.85
20
22.204
30
0
0
VERTEX
8
RASTER
10
134.707
20
22.614
30
0
0
VERTEX
8
RASTER
10
134.502
20
22.921
30
0
0
SEQEND
8
RASTER
0
POLYLINE
8
RASTER
66
1
70
1
0
VERTEX
8
RASTER
10
135.598
20
21.866
30
0
0
VERTEX
8
RASTER
10
134.645
20
21.385
30
0
0
VERTEX
8
RASTER
10
130.916
20
18.864
30
0
0
VERTEX
8
RASTER
10
130.957
20
18.557
30
0
0
VERTEX
8
RASTER
10
131.982
20
17.225
30
0
0
VERTEX
8
RASTER
10
132.146
20
17.225
30
0
0
VERTEX
8
RASTER
10
133.375
20
18.147
30
0
0
VERTEX
8
RASTER
10
133.447
20
18.28
30
0
0
VERTEX
8
RASTER
10
133.375
20
18.352
30
0
0
VERTEX
8
RASTER
10
132.965
20
18.004
30
0
0
VERTEX
8
RASTER
10
133.109
20
18.352
30
0
0
VERTEX
8
RASTER
10
132.863
20
18.209
30
0
0
VERTEX
8
RASTER
10
132.904
20
18.455
30
0
0
VERTEX
8
RASTER
10
132.453
20
18.414
30
0
0
VERTEX
8
RASTER
10
132.596
20
18.721
30
0
0
VERTEX
8
RASTER
10
133.006
20
19.028
30
0
0
VERTEX
8
RASTER
10
134.399
20
19.889
30
0
0
VERTEX
8
RASTER
10
134.502
20
19.848
30
0
0
VERTEX
8
RASTER
10
134.574
20
19.612
30
0
0
VERTEX
8
RASTER
10
134.953
20
19.684
30
0
0
VERTEX
8
RASTER
10
134.881
20
19.407
30
0
0
VERTEX
8
RASTER
10
134.953
20
19.336
30
0
0
VERTEX
8
RASTER
10
136.182
20
20.155
30
0
0
VERTEX
8
RASTER
10
136.315
20
20.432
30
0
0
VERTEX
8
RASTER
10
136.315
20
21.251
30
0
0
VERTEX
8
RASTER
10
136.039
20
21.794
30
0
0
SEQEND
8
RASTER
0
POLYLINE
8
RASTER
66
1
70
1
0
VERTEX
8
RASTER
10
136.213
20
19.202
30
0
0
VERTEX
8
RASTER
10
133.037
20
15.924
30
0
0
VERTEX
8
RASTER
10
133.416
20
15.279
30
0
0
VERTEX
8
RASTER
10
134.369
20
14.08
30
0
0
VERTEX
8
RASTER
10
134.707
20
14.357
30
0
0
VERTEX
8
RASTER
10
134.85
20
14.623
30
0
0
VERTEX
8
RASTER
10
135.322
20
15.074
30
0
0
VERTEX
8
RASTER
10
135.465
20
15.34
30
0
0
VERTEX
8
RASTER
10
136.52
20
16.539
30
0
0
VERTEX
8
RASTER
10
136.448
20
16.611
30
0
0
VERTEX
8
RASTER
10
136.346
20
16.406
30
0
0
VERTEX
8
RASTER
10
135.67
20
15.75
30
0
0
VERTEX
8
RASTER
10
135.424
20
15.75
30
0
0
VERTEX
8
RASTER
10
135.67
20
16.098
30
0
0
VERTEX
8
RASTER
10
135.322
20
15.955
30
0
0
VERTEX
8
RASTER
10
135.362
20
16.201
30
0
0
VERTEX
8
RASTER
10
135.117
20
16.16
30
0
0
VERTEX
8
RASTER
10
135.322
20
16.508
30
0
0
VERTEX
8
RASTER
10
136.141
20
17.328
30
0
0
VERTEX
8
RASTER
10
136.244
20
17.082
30
0
0
VERTEX
8
RASTER
10
136.346
20
17.225
30
0
0
VERTEX
8
RASTER
10
136.448
20
17.082
30
0
0
VERTEX
8
RASTER
10
136.797
20
17.123
30
0
0
VERTEX
8
RASTER
10
136.623
20
16.846
30
0
0
VERTEX
8
RASTER
10
136.756
20
16.815
30
0
0
VERTEX
8
RASTER
10
137.237
20
17.563
30
0
0
VERTEX
8
RASTER
10
137.34
20
18.076
30
0
0
VERTEX
8
RASTER
10
137.063
20
18.823
30
0
0
VERTEX
8
RASTER
10
136.623
20
19.202
30
0
0
SEQEND
8
RASTER
0
POLYLINE
8
RASTER
66
1
70
1
0
VERTEX
8
RASTER
10
124.431
20
17.358
30
0
0
VERTEX
8
RASTER
10
121.839
20
15.75
30
0
0
VERTEX
8
RASTER
10
120.61
20
14.93
30
0
0
VERTEX
8
RASTER
10
120.569
20
14.828
30
0
0
VERTEX
8
RASTER
10
121.286
20
14.521
30
0
0
VERTEX
8
RASTER
10
121.839
20
13.947
30
0
0
VERTEX
8
RASTER
10
122.003
20
13.947
30
0
0
VERTEX
8
RASTER
10
125.077
20
16.201
30
0
0
VERTEX
8
RASTER
10
125.148
20
16.436
30
0
0
VERTEX
8
RASTER
10
124.872
20
16.979
30
0
0
VERTEX
8
RASTER
10
124.667
20
17.287
30
0
0
SEQEND
8
RASTER
0
POLYLINE
8
RASTER
66
1
70
1
0
VERTEX
8
RASTER
10
132.525
20
16.744
30
0
0
VERTEX
8
RASTER
10
132.422
20
16.641
30
0
0
VERTEX
8
RASTER
10
132.494
20
16.508
30
0
0
VERTEX
8
RASTER
10
132.73
20
16.334
30
0
0
VERTEX
8
RASTER
10
133.109
20
16.672
30
0
0
VERTEX
8
RASTER
10
132.76
20
16.467
30
0
0
VERTEX
8
RASTER
10
132.555
20
16.57
30
0
0
SEQEND
8
RASTER
0
POLYLINE
8
RASTER
66
1
70
1
0
VERTEX
8
RASTER
10
125.937
20
15.279
30
0
0
VERTEX
8
RASTER
10
125.63
20
15.135
30
0
0
VERTEX
8
RASTER
10
122.587
20
12.953
30
0
0
VERTEX
8
RASTER
10
123.233
20
12.574
30
0
0
VERTEX
8
RASTER
10
123.643
20
12.062
30
0
0
VERTEX
8
RASTER
10
123.817
20
11.621
30
0
0
VERTEX
8
RASTER
10
123.847
20
10.833
30
0
0
VERTEX
8
RASTER
10
125.487
20
12.103
30
0
0
VERTEX
8
RASTER
10
126.552
20
13.086
30
0
0
VERTEX
8
RASTER
10
126.583
20
13.875
30
0
0
VERTEX
8
RASTER
10
126.48
20
14.387
30
0
0
VERTEX
8
RASTER
10
126.204
20
15.033
30
0
0
SEQEND
8
RASTER
0
POLYLINE
8
RASTER
66
1
70
1
0
VERTEX
8
RASTER
10
132.422
20
14.592
30
0
0
VERTEX
8
RASTER
10
132.084
20
14.418
30
0
0
VERTEX
8
RASTER
10
131.777
20
14.111
30
0
0
VERTEX
8
RASTER
10
131.705
20
13.465
30
0
0
VERTEX
8
RASTER
10
131.982
20
13.127
30
0
0
VERTEX
8
RASTER
10
132.422
20
13.056
30
0
0
VERTEX
8
RASTER
10
132.453
20
13.189
30
0
0
VERTEX
8
RASTER
10
132.115
20
13.568
30
0
0
VERTEX
8
RASTER
10
132.187
20
13.906
30
0
0
VERTEX
8
RASTER
10
132.627
20
14.183
30
0
0
VERTEX
8
RASTER
10
133.273
20
13.906
30
0
0
VERTEX
8
RASTER
10
133.549
20
13.363
30
0
0
VERTEX
8
RASTER
10
133.549
20
12.851
30
0
0
VERTEX
8
RASTER
10
133.375
20
12.41
30
0
0
VERTEX
8
RASTER
10
133.068
20
12
30
0
0
VERTEX
8
RASTER
10
132.32
20
11.519
30
0
0
VERTEX
8
RASTER
10
131.603
20
11.314
30
0
0
VERTEX
8
RASTER
10
130.886
20
11.416
30
0
0
VERTEX
8
RASTER
10
130.24
20
11.693
30
0
0
VERTEX
8
RASTER
10
129.933
20
12
30
0
0
VERTEX
8
RASTER
10
129.656
20
12.646
30
0
0
VERTEX
8
RASTER
10
129.83
20
13.189
30
0
0
VERTEX
8
RASTER
10
130.168
20
13.465
30
0
0
VERTEX
8
RASTER
10
130.711
20
13.394
30
0
0
VERTEX
8
RASTER
10
130.783
20
12.953
30
0
0
VERTEX
8
RASTER
10
130.578
20
12.646
30
0
0
VERTEX
8
RASTER
10
130.681
20
12.543
30
0
0
VERTEX
8
RASTER
10
130.916
20
12.615
30
0
0
VERTEX
8
RASTER
10
131.193
20
12.953
30
0
0
VERTEX
8
RASTER
10
131.121
20
13.701
30
0
0
VERTEX
8
RASTER
10
130.814
20
14.008
30
0
0
VERTEX
8
RASTER
10
130.373
20
14.08
30
0
0
VERTEX
8
RASTER
10
129.625
20
13.701
30
0
0
VERTEX
8
RASTER
10
129.246
20
13.056
30
0
0
VERTEX
8
RASTER
10
129.246
20
12.339
30
0
0
VERTEX
8
RASTER
10
129.523
20
11.796
30
0
0
VERTEX
8
RASTER
10
129.83
20
11.488
30
0
0
VERTEX
8
RASTER
10
130.886
20
11.007
30
0
0
VERTEX
8
RASTER
10
131.91
20
11.007
30
0
0
VERTEX
8
RASTER
10
132.32
20
11.109
30
0
0
VERTEX
8
RASTER
10
133.273
20
11.591
30
0
0
VERTEX
8
RASTER
10
133.58
20
11.898
30
0
0
VERTEX
8
RASTER
10
133.959
20
12.646
30
0
0
VERTEX
8
RASTER
10
133.959
20
13.465
30
0
0
VERTEX
8
RASTER
10
133.682
20
14.008
30
0
0
VERTEX
8
RASTER
10
133.273
20
14.418
30
0
0
VERTEX
8
RASTER
10
132.934
20
14.592
30
0
0
SEQEND
8
RASTER
0
POLYLINE
8
RASTER
66
1
70
1
0
VERTEX
8
RASTER
10
120.231
20
14.49
30
0
0
VERTEX
8
RASTER
10
119.688
20
14.316
30
0
0
VERTEX
8
RASTER
10
119.073
20
13.906
30
0
0
VERTEX
8
RASTER
10
118.694
20
12.953
30
0
0
VERTEX
8
RASTER
10
118.694
20
12.134
30
0
0
VERTEX
8
RASTER
10
118.797
20
11.724
30
0
0
VERTEX
8
RASTER
10
119.278
20
10.771
30
0
0
VERTEX
8
RASTER
10
119.995
20
10.054
30
0
0
VERTEX
8
RASTER
10
120.743
20
9.675
30
0
0
VERTEX
8
RASTER
10
121.46
20
9.47
30
0
0
VERTEX
8
RASTER
10
122.382
20
9.572
30
0
0
VERTEX
8
RASTER
10
123.028
20
9.951
30
0
0
VERTEX
8
RASTER
10
123.407
20
10.699
30
0
0
VERTEX
8
RASTER
10
123.407
20
11.621
30
0
0
VERTEX
8
RASTER
10
123.233
20
12.062
30
0
0
VERTEX
8
RASTER
10
122.823
20
12.472
30
0
0
VERTEX
8
RASTER
10
121.973
20
12.543
30
0
0
VERTEX
8
RASTER
10
121.635
20
12.267
30
0
0
VERTEX
8
RASTER
10
121.46
20
11.929
30
0
0
VERTEX
8
RASTER
10
121.46
20
11.416
30
0
0
VERTEX
8
RASTER
10
121.594
20
11.14
30
0
0
VERTEX
8
RASTER
10
121.737
20
11.14
30
0
0
VERTEX
8
RASTER
10
121.942
20
11.755
30
0
0
VERTEX
8
RASTER
10
122.28
20
11.929
30
0
0
VERTEX
8
RASTER
10
122.72
20
11.652
30
0
0
VERTEX
8
RASTER
10
122.864
20
11.181
30
0
0
VERTEX
8
RASTER
10
122.618
20
10.464
30
0
0
VERTEX
8
RASTER
10
122.413
20
10.259
30
0
0
VERTEX
8
RASTER
10
121.768
20
9.982
30
0
0
VERTEX
8
RASTER
10
121.255
20
9.982
30
0
0
VERTEX
8
RASTER
10
120.405
20
10.361
30
0
0
VERTEX
8
RASTER
10
119.688
20
10.976
30
0
0
VERTEX
8
RASTER
10
119.309
20
11.621
30
0
0
VERTEX
8
RASTER
10
119.104
20
12.236
30
0
0
VERTEX
8
RASTER
10
119.104
20
12.646
30
0
0
VERTEX
8
RASTER
10
119.381
20
13.394
30
0
0
VERTEX
8
RASTER
10
119.688
20
13.701
30
0
0
VERTEX
8
RASTER
10
120.026
20
13.875
30
0
0
VERTEX
8
RASTER
10
120.538
20
13.875
30
0
0
VERTEX
8
RASTER
10
120.876
20
13.701
30
0
0
VERTEX
8
RASTER
10
121.051
20
13.363
30
0
0
VERTEX
8
RASTER
10
121.051
20
12.953
30
0
0
VERTEX
8
RASTER
10
120.917
20
12.677
30
0
0
VERTEX
8
RASTER
10
120.467
20
12.513
30
0
0
VERTEX
8
RASTER
10
120.508
20
12.308
30
0
0
VERTEX
8
RASTER
10
120.641
20
12.236
30
0
0
VERTEX
8
RASTER
10
121.051
20
12.236
30
0
0
VERTEX
8
RASTER
10
121.43
20
12.472
30
0
0
VERTEX
8
RASTER
10
121.768
20
13.158
30
0
0
VERTEX
8
RASTER
10
121.696
20
13.496
30
0
0
VERTEX
8
RASTER
10
121.286
20
14.111
30
0
0
VERTEX
8
RASTER
10
120.743
20
14.387
30
0
0
SEQEND
8
RASTER
0
POLYLINE
8
RASTER
66
1
70
1
0
VERTEX
8
RASTER
10
125.589
20
13.435
30
0
0
VERTEX
8
RASTER
10
125.732
20
13.435
30
0
0
VERTEX
8
RASTER
10
125.691
20
13.291
30
0
0
VERTEX
8
RASTER
10
125.896
20
13.086
30
0
0
VERTEX
8
RASTER
10
125.999
20
13.23
30
0
0
VERTEX
8
RASTER
10
126.142
20
13.23
30
0
0
VERTEX
8
RASTER
10
125.937
20
12.779
30
0
0
VERTEX
8
RASTER
10
125.763
20
12.851
30
0
0
VERTEX
8
RASTER
10
125.528
20
12.677
30
0
0
VERTEX
8
RASTER
10
125.282
20
12.677
30
0
0
VERTEX
8
RASTER
10
125.323
20
12.922
30
0
0
VERTEX
8
RASTER
10
125.118
20
12.779
30
0
0
VERTEX
8
RASTER
10
124.872
20
12.779
30
0
0
VERTEX
8
RASTER
10
125.118
20
13.086
30
0
0
SEQEND
8
RASTER
0
POLYLINE
8
RASTER
66
1
70
1
0
VERTEX
8
RASTER
10
127.269
20
12.922
30
0
0
VERTEX
8
RASTER
10
126.552
20
12.369
30
0
0
VERTEX
8
RASTER
10
125.896
20
11.693
30
0
0
VERTEX
8
RASTER
10
125.63
20
11.55
30
0
0
VERTEX
8
RASTER
10
125.282
20
11.14
30
0
0
VERTEX
8
RASTER
10
125.763
20
11.007
30
0
0
VERTEX
8
RASTER
10
126.347
20
10.628
30
0
0
VERTEX
8
RASTER
10
126.45
20
10.833
30
0
0
VERTEX
8
RASTER
10
127.474
20
11.857
30
0
0
VERTEX
8
RASTER
10
127.781
20
11.898
30
0
0
VERTEX
8
RASTER
10
127.884
20
11.755
30
0
0
VERTEX
8
RASTER
10
127.812
20
12.236
30
0
0
VERTEX
8
RASTER
10
127.638
20
12.574
30
0
0
SEQEND
8
RASTER
0
POLYLINE
8
RASTER
66
1
70
1
0
VERTEX
8
RASTER
10
128.396
20
11.591
30
0
0
VERTEX
8
RASTER
10
127.433
20
10.628
30
0
0
VERTEX
8
RASTER
10
128.458
20
10.218
30
0
0
VERTEX
8
RASTER
10
128.97
20
9.603
30
0
0
VERTEX
8
RASTER
10
129.144
20
9.06
30
0
0
VERTEX
8
RASTER
10
129.318
20
8.886
30
0
0
VERTEX
8
RASTER
10
129.451
20
10.085
30
0
0
VERTEX
8
RASTER
10
129.246
20
10.699
30
0
0
VERTEX
8
RASTER
10
128.97
20
11.14
30
0
0
SEQEND
8
RASTER
0
POLYLINE
8
RASTER
66
1
70
1
0
VERTEX
8
RASTER
10
124.944
20
10.699
30
0
0
VERTEX
8
RASTER
10
124.401
20
10.32
30
0
0
VERTEX
8
RASTER
10
124.124
20
9.777
30
0
0
VERTEX
8
RASTER
10
124.124
20
8.958
30
0
0
VERTEX
8
RASTER
10
124.401
20
8.312
30
0
0
VERTEX
8
RASTER
10
125.118
20
7.595
30
0
0
VERTEX
8
RASTER
10
126.173
20
7.114
30
0
0
VERTEX
8
RASTER
10
127.228
20
6.94
30
0
0
VERTEX
8
RASTER
10
127.812
20
7.011
30
0
0
VERTEX
8
RASTER
10
128.355
20
7.288
30
0
0
VERTEX
8
RASTER
10
128.56
20
7.493
30
0
0
VERTEX
8
RASTER
10
128.837
20
8.036
30
0
0
VERTEX
8
RASTER
10
128.837
20
9.06
30
0
0
VERTEX
8
RASTER
10
128.56
20
9.603
30
0
0
VERTEX
8
RASTER
10
128.253
20
9.91
30
0
0
VERTEX
8
RASTER
10
127.71
20
10.187
30
0
0
VERTEX
8
RASTER
10
127.197
20
10.187
30
0
0
VERTEX
8
RASTER
10
126.716
20
9.951
30
0
0
VERTEX
8
RASTER
10
126.48
20
9.47
30
0
0
VERTEX
8
RASTER
10
126.48
20
9.163
30
0
0
VERTEX
8
RASTER
10
126.757
20
8.722
30
0
0
VERTEX
8
RASTER
10
127.064
20
8.579
30
0
0
VERTEX
8
RASTER
10
127.167
20
8.722
30
0
0
VERTEX
8
RASTER
10
126.89
20
9.06
30
0
0
VERTEX
8
RASTER
10
126.962
20
9.398
30
0
0
VERTEX
8
RASTER
10
127.197
20
9.572
30
0
0
VERTEX
8
RASTER
10
127.74
20
9.501
30
0
0
VERTEX
8
RASTER
10
127.945
20
9.296
30
0
0
VERTEX
8
RASTER
10
128.222
20
8.65
30
0
0
VERTEX
8
RASTER
10
128.222
20
8.343
30
0
0
VERTEX
8
RASTER
10
127.884
20
7.759
30
0
0
VERTEX
8
RASTER
10
127.095
20
7.421
30
0
0
VERTEX
8
RASTER
10
126.378
20
7.421
30
0
0
VERTEX
8
RASTER
10
125.63
20
7.698
30
0
0
VERTEX
8
RASTER
10
125.015
20
8.107
30
0
0
VERTEX
8
RASTER
10
124.81
20
8.312
30
0
0
VERTEX
8
RASTER
10
124.534
20
8.855
30
0
0
VERTEX
8
RASTER
10
124.462
20
9.234
30
0
0
VERTEX
8
RASTER
10
124.606
20
9.808
30
0
0
VERTEX
8
RASTER
10
125.148
20
10.187
30
0
0
VERTEX
8
RASTER
10
125.691
20
10.013
30
0
0
VERTEX
8
RASTER
10
125.866
20
9.777
30
0
0
VERTEX
8
RASTER
10
125.866
20
9.47
30
0
0
VERTEX
8
RASTER
10
125.487
20
9.091
30
0
0
VERTEX
8
RASTER
10
125.763
20
8.958
30
0
0
VERTEX
8
RASTER
10
125.896
20
9.029
30
0
0
VERTEX
8
RASTER
10
126.071
20
9.368
30
0
0
VERTEX
8
RASTER
10
126.071
20
9.675
30
0
0
VERTEX
8
RASTER
10
126.245
20
10.156
30
0
0
VERTEX
8
RASTER
10
126.101
20
10.423
30
0
0
VERTEX
8
RASTER
10
125.763
20
10.699
30
0
0
SEQEND
8
RASTER
0
POLYLINE
8
CUT
66
1
70
1
0
VERTEX
8
CUT
10
158.226
20
25.915
30
0
0
VERTEX
8
CUT
10
159.723
20
25.964
30
0
0
VERTEX
8
CUT
10
160.496
20
25.761
30
0
0
VERTEX
8
CUT
10
161.049
20
25.012
30
0
0
VERTEX
8
CUT
10
161.236
20
23.166
30
0
0
VERTEX
8
CUT
10
163.44
20
22.93
30
0
0
VERTEX
8
CUT
10
163.896
20
22.572
30
0
0
VERTEX
8
CUT
10
164.034
20
21.978
30
0
0
VERTEX
8
CUT
10
164.009
20
20.457
30
0
0
VERTEX
8
CUT
10
163.79
20
19.864
30
0
0
VERTEX
8
CUT
10
161.854
20
19.538
30
0
0
VERTEX
8
CUT
10
161.813
20
17.367
30
0
0
VERTEX
8
CUT
10
161.586
20
16.7
30
0
0
VERTEX
8
CUT
10
160.455
20
15.227
30
0
0
VERTEX
8
CUT
10
159.032
20
14.26
30
0
0
VERTEX
8
CUT
10
159.154
20
10.591
30
0
0
VERTEX
8
CUT
10
158.893
20
9.387
30
0
0
VERTEX
8
CUT
10
158.259
20
9.127
30
0
0
VERTEX
8
CUT
10
155.916
20
9.225
30
0
0
VERTEX
8
CUT
10
154.135
20
9.802
30
0
0
VERTEX
8
CUT
10
152.85
20
10.607
30
0
0
VERTEX
8
CUT
10
150.857
20
9.696
30
0
0
VERTEX
8
CUT
10
148.653
20
9.379
30
0
0
VERTEX
8
CUT
10
148.092
20
8.314
30
0
0
VERTEX
8
CUT
10
145.814
20
8.395
30
0
0
VERTEX
8
CUT
10
145.538
20
8.851
30
0
0
VERTEX
8
CUT
10
145.359
20
10.38
30
0
0
VERTEX
8
CUT
10
143.358
20
10.738
30
0
0
VERTEX
8
CUT
10
142.959
20
11.152
30
0
0
VERTEX
8
CUT
10
142.805
20
11.893
30
0
0
VERTEX
8
CUT
10
142.967
20
16.366
30
0
0
VERTEX
8
CUT
10
143.618
20
16.61
30
0
0
VERTEX
8
CUT
10
145.684
20
16.382
30
0
0
VERTEX
8
CUT
10
146.148
20
16.618
30
0
0
VERTEX
8
CUT
10
145.351
20
18.424
30
0
0
VERTEX
8
CUT
10
145.473
20
20.531
30
0
0
VERTEX
8
CUT
10
147.213
20
21.311
30
0
0
VERTEX
8
CUT
10
150.353
20
21.588
30
0
0
VERTEX
8
CUT
10
151.467
20
23.89
30
0
0
VERTEX
8
CUT
10
152.175
20
24.728
30
0
0
VERTEX
8
CUT
10
153.183
20
25.427
30
0
0
VERTEX
8
CUT
10
155.29
20
25.354
30
0
0
VERTEX
8
CUT
10
157.023
20
23.19
30
0
0
VERTEX
8
CUT
10
157.405
20
23.727
30
0
0
VERTEX
8
CUT
10
157.519
20
25.484
30
0
0
SEQEND
8
CUT
0
POLYLINE
8
RASTER
66
1
70
1
0
VERTEX
8
RASTER
10
158.934
20
25.045
30
0
0
VERTEX
8
RASTER
10
159.398
20
25.069
30
0
0
VERTEX
8
RASTER
10
159.666
20
24.931
30
0
0
VERTEX
8
RASTER
10
159.991
20
24.687
30
0
0
VERTEX
8
RASTER
10
160.211
20
24.256
30
0
0
VERTEX
8
RASTER
10
160.211
20
23.524
30
0
0
VERTEX
8
RASTER
10
160.13
20
23.199
30
0
0
VERTEX
8
RASTER
10
159.666
20
22.198
30
0
0
VERTEX
8
RASTER
10
159.097
20
21.271
30
0
0
VERTEX
8
RASTER
10
160.78
20
21.978
30
0
0
VERTEX
8
RASTER
10
161.838
20
22.222
30
0
0
VERTEX
8
RASTER
10
162.488
20
22.141
30
0
0
VERTEX
8
RASTER
10
162.92
20
21.922
30
0
0
VERTEX
8
RASTER
10
163.082
20
21.759
30
0
0
VERTEX
8
RASTER
10
163.22
20
21.409
30
0
0
VERTEX
8
RASTER
10
163.033
20
20.783
30
0
0
VERTEX
8
RASTER
10
162.757
20
20.49
30
0
0
VERTEX
8
RASTER
10
162.651
20
20.433
30
0
0
VERTEX
8
RASTER
10
162.22
20
20.49
30
0
0
VERTEX
8
RASTER
10
162.163
20
21.002
30
0
0
VERTEX
8
RASTER
10
162
20
21.084
30
0
0
VERTEX
8
RASTER
10
160.919
20
20.539
30
0
0
VERTEX
8
RASTER
10
159.341
20
19.433
30
0
0
VERTEX
8
RASTER
10
159.422
20
19.319
30
0
0
VERTEX
8
RASTER
10
159.56
20
19.376
30
0
0
VERTEX
8
RASTER
10
159.804
20
19.294
30
0
0
VERTEX
8
RASTER
10
160.561
20
18.912
30
0
0
VERTEX
8
RASTER
10
160.967
20
18.587
30
0
0
VERTEX
8
RASTER
10
161.024
20
18.237
30
0
0
VERTEX
8
RASTER
10
160.862
20
17.83
30
0
0
VERTEX
8
RASTER
10
160.561
20
17.236
30
0
0
VERTEX
8
RASTER
10
160.154
20
16.667
30
0
0
VERTEX
8
RASTER
10
159.341
20
15.854
30
0
0
VERTEX
8
RASTER
10
158.584
20
15.39
30
0
0
VERTEX
8
RASTER
10
157.934
20
15.146
30
0
0
VERTEX
8
RASTER
10
157.283
20
15.065
30
0
0
VERTEX
8
RASTER
10
157.201
20
14.983
30
0
0
VERTEX
8
RASTER
10
157.551
20
14.601
30
0
0
VERTEX
8
RASTER
10
157.934
20
13.845
30
0
0
VERTEX
8
RASTER
10
158.259
20
12.543
30
0
0
VERTEX
8
RASTER
10
158.259
20
10.998
30
0
0
VERTEX
8
RASTER
10
157.958
20
10.079
30
0
0
VERTEX
8
RASTER
10
157.689
20
9.941
30
0
0
VERTEX
8
RASTER
10
157.039
20
10.022
30
0
0
VERTEX
8
RASTER
10
155.331
20
10.51
30
0
0
VERTEX
8
RASTER
10
154.574
20
10.892
30
0
0
VERTEX
8
RASTER
10
153.598
20
11.787
30
0
0
VERTEX
8
RASTER
10
153.297
20
12.299
30
0
0
VERTEX
8
RASTER
10
153.078
20
12.926
30
0
0
VERTEX
8
RASTER
10
152.346
20
11.787
30
0
0
VERTEX
8
RASTER
10
151.532
20
11.218
30
0
0
VERTEX
8
RASTER
10
150.613
20
10.754
30
0
0
VERTEX
8
RASTER
10
148.986
20
10.347
30
0
0
VERTEX
8
RASTER
10
148.498
20
10.347
30
0
0
VERTEX
8
RASTER
10
148.116
20
10.729
30
0
0
VERTEX
8
RASTER
10
147.742
20
10.372
30
0
0
VERTEX
8
RASTER
10
147.522
20
10.022
30
0
0
VERTEX
8
RASTER
10
147.604
20
9.696
30
0
0
VERTEX
8
RASTER
10
147.547
20
9.347
30
0
0
VERTEX
8
RASTER
10
147.116
20
9.046
30
0
0
VERTEX
8
RASTER
10
146.685
20
9.184
30
0
0
VERTEX
8
RASTER
10
146.384
20
9.615
30
0
0
VERTEX
8
RASTER
10
146.384
20
10.185
30
0
0
VERTEX
8
RASTER
10
146.546
20
10.673
30
0
0
VERTEX
8
RASTER
10
147.091
20
11.592
30
0
0
VERTEX
8
RASTER
10
147.791
20
12.356
30
0
0
VERTEX
8
RASTER
10
147.986
20
12.682
30
0
0
VERTEX
8
RASTER
10
147.823
20
12.649
30
0
0
VERTEX
8
RASTER
10
146.896
20
12.031
30
0
0
VERTEX
8
RASTER
10
146.14
20
11.649
30
0
0
VERTEX
8
RASTER
10
145.326
20
11.405
30
0
0
VERTEX
8
RASTER
10
144.594
20
11.405
30
0
0
VERTEX
8
RASTER
10
144.082
20
11.624
30
0
0
VERTEX
8
RASTER
10
143.756
20
12.031
30
0
0
VERTEX
8
RASTER
10
143.618
20
12.462
30
0
0
VERTEX
8
RASTER
10
143.756
20
12.974
30
0
0
VERTEX
8
RASTER
10
143.887
20
13.17
30
0
0
VERTEX
8
RASTER
10
144.106
20
13.275
30
0
0
VERTEX
8
RASTER
10
144.35
20
13.357
30
0
0
VERTEX
8
RASTER
10
144.619
20
13.218
30
0
0
VERTEX
8
RASTER
10
144.895
20
12.682
30
0
0
VERTEX
8
RASTER
10
145.001
20
12.625
30
0
0
VERTEX
8
RASTER
10
146.001
20
13.251
30
0
0
VERTEX
8
RASTER
10
147.091
20
14.113
30
0
0
VERTEX
8
RASTER
10
146.628
20
14.007
30
0
0
VERTEX
8
RASTER
10
146.221
20
14.007
30
0
0
VERTEX
8
RASTER
10
146.058
20
13.926
30
0
0
VERTEX
8
RASTER
10
144.838
20
13.926
30
0
0
VERTEX
8
RASTER
10
143.919
20
14.308
30
0
0
VERTEX
8
RASTER
10
143.618
20
14.821
30
0
0
VERTEX
8
RASTER
10
143.618
20
15.227
30
0
0
VERTEX
8
RASTER
10
143.756
20
15.496
30
0
0
VERTEX
8
RASTER
10
144
20
15.74
30
0
0
VERTEX
8
RASTER
10
144.269
20
15.797
30
0
0
VERTEX
8
RASTER
10
144.537
20
15.659
30
0
0
VERTEX
8
RASTER
10
144.732
20
15.203
30
0
0
VERTEX
8
RASTER
10
144.838
20
15.146
30
0
0
VERTEX
8
RASTER
10
145.245
20
15.146
30
0
0
VERTEX
8
RASTER
10
146.465
20
15.471
30
0
0
VERTEX
8
RASTER
10
147.929
20
16.041
30
0
0
VERTEX
8
RASTER
10
148.336
20
16.285
30
0
0
VERTEX
8
RASTER
10
147.905
20
16.586
30
0
0
VERTEX
8
RASTER
10
147.254
20
17.236
30
0
0
VERTEX
8
RASTER
10
146.847
20
17.806
30
0
0
VERTEX
8
RASTER
10
146.546
20
18.318
30
0
0
VERTEX
8
RASTER
10
146.221
20
19.132
30
0
0
VERTEX
8
RASTER
10
146.278
20
19.644
30
0
0
VERTEX
8
RASTER
10
146.685
20
19.969
30
0
0
VERTEX
8
RASTER
10
147.197
20
20.189
30
0
0
VERTEX
8
RASTER
10
147.929
20
20.433
30
0
0
VERTEX
8
RASTER
10
148.742
20
20.596
30
0
0
VERTEX
8
RASTER
10
149.881
20
20.596
30
0
0
VERTEX
8
RASTER
10
150.694
20
20.352
30
0
0
VERTEX
8
RASTER
10
151.483
20
19.969
30
0
0
VERTEX
8
RASTER
10
151.427
20
21.084
30
0
0
VERTEX
8
RASTER
10
151.671
20
21.897
30
0
0
VERTEX
8
RASTER
10
152.053
20
22.654
30
0
0
VERTEX
8
RASTER
10
152.378
20
23.142
30
0
0
VERTEX
8
RASTER
10
153.273
20
24.118
30
0
0
VERTEX
8
RASTER
10
154.111
20
24.663
30
0
0
VERTEX
8
RASTER
10
154.46
20
24.524
30
0
0
VERTEX
8
RASTER
10
154.786
20
24.199
30
0
0
VERTEX
8
RASTER
10
155.599
20
23.06
30
0
0
VERTEX
8
RASTER
10
156.144
20
21.816
30
0
0
VERTEX
8
RASTER
10
156.225
20
21.49
30
0
0
VERTEX
8
RASTER
10
156.225
20
20.84
30
0
0
VERTEX
8
RASTER
10
156.307
20
20.758
30
0
0
VERTEX
8
RASTER
10
158.202
20
22.605
30
0
0
VERTEX
8
RASTER
10
158.853
20
23.499
30
0
0
VERTEX
8
RASTER
10
159.072
20
23.931
30
0
0
VERTEX
8
RASTER
10
159.048
20
24.069
30
0
0
VERTEX
8
RASTER
10
158.91
20
24.093
30
0
0
VERTEX
8
RASTER
10
158.747
20
24.012
30
0
0
VERTEX
8
RASTER
10
158.397
20
24.069
30
0
0
VERTEX
8
RASTER
10
158.259
20
24.256
30
0
0
VERTEX
8
RASTER
10
158.259
20
24.5
30
0
0
VERTEX
8
RASTER
10
158.478
20
24.85
30
0
0
SEQEND
8
RASTER
0
POLYLINE
8
RASTER
66
1
70
1
0
VERTEX
8
RASTER
10
154.111
20
24.256
30
0
0
VERTEX
8
RASTER
10
153.842
20
24.118
30
0
0
VERTEX
8
RASTER
10
152.948
20
23.223
30
0
0
VERTEX
8
RASTER
10
152.459
20
22.572
30
0
0
VERTEX
8
RASTER
10
151.996
20
21.653
30
0
0
VERTEX
8
RASTER
10
151.752
20
20.433
30
0
0
VERTEX
8
RASTER
10
151.833
20
20.27
30
0
0
VERTEX
8
RASTER
10
151.833
20
19.782
30
0
0
VERTEX
8
RASTER
10
152.134
20
19.026
30
0
0
VERTEX
8
RASTER
10
152.728
20
18.888
30
0
0
VERTEX
8
RASTER
10
153.053
20
18.725
30
0
0
VERTEX
8
RASTER
10
153.46
20
18.888
30
0
0
VERTEX
8
RASTER
10
153.948
20
18.888
30
0
0
VERTEX
8
RASTER
10
154.216
20
18.668
30
0
0
VERTEX
8
RASTER
10
154.412
20
18.294
30
0
0
VERTEX
8
RASTER
10
154.68
20
18.156
30
0
0
VERTEX
8
RASTER
10
154.924
20
18.156
30
0
0
VERTEX
8
RASTER
10
155.274
20
17.936
30
0
0
VERTEX
8
RASTER
10
155.518
20
17.611
30
0
0
VERTEX
8
RASTER
10
155.737
20
17.098
30
0
0
VERTEX
8
RASTER
10
155.656
20
16.61
30
0
0
VERTEX
8
RASTER
10
155.331
20
16.041
30
0
0
VERTEX
8
RASTER
10
156.063
20
15.634
30
0
0
VERTEX
8
RASTER
10
156.551
20
15.471
30
0
0
VERTEX
8
RASTER
10
157.364
20
15.471
30
0
0
VERTEX
8
RASTER
10
158.69
20
15.935
30
0
0
VERTEX
8
RASTER
10
159.178
20
16.26
30
0
0
VERTEX
8
RASTER
10
160.073
20
17.236
30
0
0
VERTEX
8
RASTER
10
160.618
20
18.237
30
0
0
VERTEX
8
RASTER
10
160.561
20
18.424
30
0
0
VERTEX
8
RASTER
10
159.91
20
18.831
30
0
0
VERTEX
8
RASTER
10
158.666
20
19.376
30
0
0
VERTEX
8
RASTER
10
158.015
20
19.538
30
0
0
VERTEX
8
RASTER
10
157.12
20
19.538
30
0
0
VERTEX
8
RASTER
10
156.551
20
19.376
30
0
0
VERTEX
8
RASTER
10
155.794
20
18.993
30
0
0
VERTEX
8
RASTER
10
154.948
20
18.261
30
0
0
VERTEX
8
RASTER
10
155.737
20
19.864
30
0
0
VERTEX
8
RASTER
10
155.876
20
20.783
30
0
0
VERTEX
8
RASTER
10
155.819
20
21.49
30
0
0
VERTEX
8
RASTER
10
155.493
20
22.466
30
0
0
VERTEX
8
RASTER
10
155.111
20
23.142
30
0
0
VERTEX
8
RASTER
10
154.704
20
23.711
30
0
0
SEQEND
8
RASTER
0
POLYLINE
8
RASTER
66
1
70
1
0
VERTEX
8
RASTER
10
148.986
20
20.27
30
0
0
VERTEX
8
RASTER
10
148.824
20
20.189
30
0
0
VERTEX
8
RASTER
10
148.092
20
20.108
30
0
0
VERTEX
8
RASTER
10
147.36
20
19.864
30
0
0
VERTEX
8
RASTER
10
146.603
20
19.481
30
0
0
VERTEX
8
RASTER
10
146.546
20
19.294
30
0
0
VERTEX
8
RASTER
10
146.628
20
19.05
30
0
0
VERTEX
8
RASTER
10
147.091
20
18.131
30
0
0
VERTEX
8
RASTER
10
147.417
20
17.643
30
0
0
VERTEX
8
RASTER
10
148.149
20
16.911
30
0
0
VERTEX
8
RASTER
10
148.474
20
16.667
30
0
0
VERTEX
8
RASTER
10
149.23
20
16.285
30
0
0
VERTEX
8
RASTER
10
149.8
20
16.122
30
0
0
VERTEX
8
RASTER
10
151.02
20
16.122
30
0
0
VERTEX
8
RASTER
10
151.126
20
16.179
30
0
0
VERTEX
8
RASTER
10
151.345
20
16.692
30
0
0
VERTEX
8
RASTER
10
151.345
20
16.936
30
0
0
VERTEX
8
RASTER
10
151.182
20
17.424
30
0
0
VERTEX
8
RASTER
10
151.264
20
17.912
30
0
0
VERTEX
8
RASTER
10
151.483
20
18.424
30
0
0
VERTEX
8
RASTER
10
151.858
20
18.782
30
0
0
VERTEX
8
RASTER
10
151.915
20
18.888
30
0
0
VERTEX
8
RASTER
10
151.858
20
18.993
30
0
0
VERTEX
8
RASTER
10
151.37
20
19.563
30
0
0
VERTEX
8
RASTER
10
150.369
20
20.108
30
0
0
VERTEX
8
RASTER
10
149.718
20
20.27
30
0
0
SEQEND
8
RASTER
0
POLYLINE
8
RASTER
66
1
70
1
0
VERTEX
8
RASTER
10
152.403
20
18.888
30
0
0
VERTEX
8
RASTER
10
151.89
20
18.668
30
0
0
VERTEX
8
RASTER
10
151.727
20
18.505
30
0
0
VERTEX
8
RASTER
10
151.427
20
17.83
30
0
0
VERTEX
8
RASTER
10
151.427
20
17.342
30
0
0
VERTEX
8
RASTER
10
151.752
20
16.773
30
0
0
VERTEX
8
RASTER
10
151.345
20
16.203
30
0
0
VERTEX
8
RASTER
10
151.345
20
15.471
30
0
0
VERTEX
8
RASTER
10
151.565
20
15.04
30
0
0
VERTEX
8
RASTER
10
151.915
20
14.821
30
0
0
VERTEX
8
RASTER
10
152.159
20
14.821
30
0
0
VERTEX
8
RASTER
10
152.647
20
15.146
30
0
0
VERTEX
8
RASTER
10
153.029
20
14.715
30
0
0
VERTEX
8
RASTER
10
153.297
20
14.577
30
0
0
VERTEX
8
RASTER
10
153.623
20
14.577
30
0
0
VERTEX
8
RASTER
10
153.972
20
14.715
30
0
0
VERTEX
8
RASTER
10
154.298
20
14.959
30
0
0
VERTEX
8
RASTER
10
154.517
20
15.39
30
0
0
VERTEX
8
RASTER
10
154.542
20
16.098
30
0
0
VERTEX
8
RASTER
10
154.924
20
16.122
30
0
0
VERTEX
8
RASTER
10
155.225
20
16.309
30
0
0
VERTEX
8
RASTER
10
155.493
20
16.773
30
0
0
VERTEX
8
RASTER
10
155.493
20
17.18
30
0
0
VERTEX
8
RASTER
10
155.192
20
17.692
30
0
0
VERTEX
8
RASTER
10
154.68
20
17.993
30
0
0
VERTEX
8
RASTER
10
154.298
20
18.017
30
0
0
VERTEX
8
RASTER
10
154.273
20
18.237
30
0
0
VERTEX
8
RASTER
10
154.054
20
18.587
30
0
0
VERTEX
8
RASTER
10
153.541
20
18.644
30
0
0
VERTEX
8
RASTER
10
153.159
20
18.343
30
0
0
VERTEX
8
RASTER
10
152.752
20
18.749
30
0
0
SEQEND
8
RASTER
0
POLYLINE
8
RASTER
66
1
70
1
0
VERTEX
8
RASTER
10
152.834
20
17.318
30
0
0
VERTEX
8
RASTER
10
153.053
20
17.342
30
0
0
VERTEX
8
RASTER
10
153.135
20
17.261
30
0
0
VERTEX
8
RASTER
10
152.809
20
16.773
30
0
0
VERTEX
8
RASTER
10
152.809
20
16.366
30
0
0
VERTEX
8
RASTER
10
152.972
20
16.203
30
0
0
VERTEX
8
RASTER
10
153.403
20
16.342
30
0
0
VERTEX
8
RASTER
10
153.842
20
16.797
30
0
0
VERTEX
8
RASTER
10
154.029
20
16.854
30
0
0
VERTEX
8
RASTER
10
154.111
20
16.773
30
0
0
VERTEX
8
RASTER
10
153.972
20
16.504
30
0
0
VERTEX
8
RASTER
10
153.728
20
16.26
30
0
0
VERTEX
8
RASTER
10
153.135
20
15.878
30
0
0
VERTEX
8
RASTER
10
152.891
20
15.878
30
0
0
VERTEX
8
RASTER
10
152.671
20
15.984
30
0
0
VERTEX
8
RASTER
10
152.565
20
16.203
30
0
0
VERTEX
8
RASTER
10
152.565
20
16.854
30
0
0
SEQEND
8
RASTER
0
POLYLINE
8
RASTER
66
1
70
1
0
VERTEX
8
RASTER
10
150.857
20
15.878
30
0
0
VERTEX
8
RASTER
10
149.775
20
15.333
30
0
0
VERTEX
8
RASTER
10
149.043
20
14.601
30
0
0
VERTEX
8
RASTER
10
148.58
20
13.763
30
0
0
VERTEX
8
RASTER
10
148.336
20
12.787
30
0
0
VERTEX
8
RASTER
10
148.336
20
11.567
30
0
0
VERTEX
8
RASTER
10
148.417
20
11.161
30
0
0
VERTEX
8
RASTER
10
148.661
20
10.754
30
0
0
VERTEX
8
RASTER
10
148.986
20
10.754
30
0
0
VERTEX
8
RASTER
10
150.044
20
10.998
30
0
0
VERTEX
8
RASTER
10
150.938
20
11.323
30
0
0
VERTEX
8
RASTER
10
151.614
20
11.706
30
0
0
VERTEX
8
RASTER
10
152.183
20
12.194
30
0
0
VERTEX
8
RASTER
10
152.891
20
13.357
30
0
0
VERTEX
8
RASTER
10
153.053
20
13.845
30
0
0
VERTEX
8
RASTER
10
153.078
20
14.276
30
0
0
VERTEX
8
RASTER
10
152.785
20
14.471
30
0
0
VERTEX
8
RASTER
10
152.565
20
14.739
30
0
0
VERTEX
8
RASTER
10
152.24
20
14.577
30
0
0
VERTEX
8
RASTER
10
151.833
20
14.577
30
0
0
VERTEX
8
RASTER
10
151.565
20
14.715
30
0
0
VERTEX
8
RASTER
10
151.182
20
15.146
30
0
0
VERTEX
8
RASTER
10
151.077
20
15.854
30
0
0
SEQEND
8
RASTER
0
POLYLINE
8
RASTER
66
1
70
1
0
VERTEX
8
RASTER
10
155.005
20
15.797
30
0
0
VERTEX
8
RASTER
10
154.9
20
15.74
30
0
0
VERTEX
8
RASTER
10
154.761
20
15.227
30
0
0
VERTEX
8
RASTER
10
154.46
20
14.715
30
0
0
VERTEX
8
RASTER
10
153.785
20
14.333
30
0
0
VERTEX
8
RASTER
10
153.436
20
14.276
30
0
0
VERTEX
8
RASTER
10
153.379
20
14.17
30
0
0
VERTEX
8
RASTER
10
153.322
20
13.902
30
0
0
VERTEX
8
RASTER
10
153.379
20
13.357
30
0
0
VERTEX
8
RASTER
10
153.623
20
12.625
30
0
0
VERTEX
8
RASTER
10
154.005
20
11.95
30
0
0
VERTEX
8
RASTER
10
154.493
20
11.462
30
0
0
VERTEX
8
RASTER
10
154.981
20
11.136
30
0
0
VERTEX
8
RASTER
10
156.388
20
10.591
30
0
0
VERTEX
8
RASTER
10
157.608
20
10.347
30
0
0
VERTEX
8
RASTER
10
157.771
20
10.51
30
0
0
VERTEX
8
RASTER
10
157.934
20
11.161
30
0
0
VERTEX
8
RASTER
10
157.934
20
12.381
30
0
0
VERTEX
8
RASTER
10
157.689
20
13.438
30
0
0
VERTEX
8
RASTER
10
157.145
20
14.438
30
0
0
VERTEX
8
RASTER
10
156.657
20
14.926
30
0
0
VERTEX
8
RASTER
10
156.087
20
15.333
30
0
0
VERTEX
8
RASTER
10
155.168
20
15.797
30
0
0
SEQEND
8
RASTER
0
ENDSEC
0
EOF
