  0
SECTION
  2
HEADER
  9
$ACADVER
  1
AC1015
  9
$ACADMAINTVER
 70
6
  9
$DWGCODEPAGE
  3
ANSI_1252
  9
$INSBASE
 10
0.0
 20
0.0
 30
0.0
  9
$EXTMIN
 10
1e+20
 20
1e+20
 30
1e+20
  9
$EXTMAX
 10
-1e+20
 20
-1e+20
 30
-1e+20
  9
$LIMMIN
 10
0.0
 20
0.0
  9
$LIMMAX
 10
420.0
 20
297.0
  9
$ORTHOMODE
 70
0
  9
$REGENMODE
 70
1
  9
$FILLMODE
 70
1
  9
$QTEXTMODE
 70
0
  9
$MIRRTEXT
 70
1
  9
$LTSCALE
 40
1.0
  9
$ATTMODE
 70
1
  9
$TEXTSIZE
 40
2.5
  9
$TRACEWID
 40
1.0
  9
$TEXTSTYLE
  7
Standard
  9
$CLAYER
  8
0
  9
$CELTYPE
  6
ByLayer
  9
$CECOLOR
 62
256
  9
$CELTSCALE
 40
1.0
  9
$DISPSILH
 70
0
  9
$DIMSCALE
 40
1.0
  9
$DIMASZ
 40
2.5
  9
$DIMEXO
 40
0.625
  9
$DIMDLI
 40
3.75
  9
$DIMRND
 40
0.0
  9
$DIMDLE
 40
0.0
  9
$DIMEXE
 40
1.25
  9
$DIMTP
 40
0.0
  9
$DIMTM
 40
0.0
  9
$DIMTXT
 40
2.5
  9
$DIMCEN
 40
2.5
  9
$DIMTSZ
 40
0.0
  9
$DIMTOL
 70
0
  9
$DIMLIM
 70
0
  9
$DIMTIH
 70
0
  9
$DIMTOH
 70
0
  9
$DIMSE1
 70
0
  9
$DIMSE2
 70
0
  9
$DIMTAD
 70
1
  9
$DIMZIN
 70
8
  9
$DIMBLK
  1

  9
$DIMASO
 70
1
  9
$DIMSHO
 70
1
  9
$DIMPOST
  1

  9
$DIMAPOST
  1

  9
$DIMALT
 70
0
  9
$DIMALTD
 70
3
  9
$DIMALTF
 40
0.03937007874
  9
$DIMLFAC
 40
1.0
  9
$DIMTOFL
 70
1
  9
$DIMTVP
 40
0.0
  9
$DIMTIX
 70
0
  9
$DIMSOXD
 70
0
  9
$DIMSAH
 70
0
  9
$DIMBLK1
  1

  9
$DIMBLK2
  1

  9
$DIMSTYLE
  2
ISO-25
  9
$DIMCLRD
 70
0
  9
$DIMCLRE
 70
0
  9
$DIMCLRT
 70
0
  9
$DIMTFAC
 40
1.0
  9
$DIMGAP
 40
0.625
  9
$DIMJUST
 70
0
  9
$DIMSD1
 70
0
  9
$DIMSD2
 70
0
  9
$DIMTOLJ
 70
0
  9
$DIMTZIN
 70
8
  9
$DIMALTZ
 70
0
  9
$DIMALTTZ
 70
0
  9
$DIMUPT
 70
0
  9
$DIMDEC
 70
2
  9
$DIMTDEC
 70
2
  9
$DIMALTU
 70
2
  9
$DIMALTTD
 70
3
  9
$DIMTXSTY
  7
Standard
  9
$DIMAUNIT
 70
0
  9
$DIMADEC
 70
0
  9
$DIMALTRND
 40
0.0
  9
$DIMAZIN
 70
0
  9
$DIMDSEP
 70
44
  9
$DIMATFIT
 70
3
  9
$DIMFRAC
 70
0
  9
$DIMLDRBLK
  1

  9
$DIMLUNIT
 70
2
  9
$DIMLWD
 70
-2
  9
$DIMLWE
 70
-2
  9
$DIMTMOVE
 70
0
  9
$LUNITS
 70
2
  9
$LUPREC
 70
4
  9
$SKETCHINC
 40
1.0
  9
$FILLETRAD
 40
10.0
  9
$AUNITS
 70
0
  9
$AUPREC
 70
2
  9
$MENU
  1
.
  9
$ELEVATION
 40
0.0
  9
$PELEVATION
 40
0.0
  9
$THICKNESS
 40
0.0
  9
$LIMCHECK
 70
0
  9
$CHAMFERA
 40
0.0
  9
$CHAMFERB
 40
0.0
  9
$CHAMFERC
 40
0.0
  9
$CHAMFERD
 40
0.0
  9
$SKPOLY
 70
0
  9
$TDCREATE
 40
2461297.5544212963
  9
$TDUCREATE
 40
2458532.153996898
  9
$TDUPDATE
 40
2461297.5544212963
  9
$TDUUPDATE
 40
2458532.1544311
  9
$TDINDWG
 40
0.0
  9
$TDUSRTIMER
 40
0.0
  9
$USRTIMER
 70
1
  9
$ANGBASE
 50
0.0
  9
$ANGDIR
 70
0
  9
$PDMODE
 70
0
  9
$PDSIZE
 40
0.0
  9
$PLINEWID
 40
0.0
  9
$SPLFRAME
 70
0
  9
$SPLINETYPE
 70
6
  9
$SPLINESEGS
 70
8
  9
$HANDSEED
  5
B8
  9
$SURFTAB1
 70
6
  9
$SURFTAB2
 70
6
  9
$SURFTYPE
 70
6
  9
$SURFU
 70
6
  9
$SURFV
 70
6
  9
$UCSBASE
  2

  9
$UCSNAME
  2

  9
$UCSORG
 10
0.0
 20
0.0
 30
0.0
  9
$UCSXDIR
 10
1.0
 20
0.0
 30
0.0
  9
$UCSYDIR
 10
0.0
 20
1.0
 30
0.0
  9
$UCSORTHOREF
  2

  9
$UCSORTHOVIEW
 70
0
  9
$UCSORGTOP
 10
0.0
 20
0.0
 30
0.0
  9
$UCSORGBOTTOM
 10
0.0
 20
0.0
 30
0.0
  9
$UCSORGLEFT
 10
0.0
 20
0.0
 30
0.0
  9
$UCSORGRIGHT
 10
0.0
 20
0.0
 30
0.0
  9
$UCSORGFRONT
 10
0.0
 20
0.0
 30
0.0
  9
$UCSORGBACK
 10
0.0
 20
0.0
 30
0.0
  9
$PUCSBASE
  2

  9
$PUCSNAME
  2

  9
$PUCSORG
 10
0.0
 20
0.0
 30
0.0
  9
$PUCSXDIR
 10
1.0
 20
0.0
 30
0.0
  9
$PUCSYDIR
 10
0.0
 20
1.0
 30
0.0
  9
$PUCSORTHOREF
  2

  9
$PUCSORTHOVIEW
 70
0
  9
$PUCSORGTOP
 10
0.0
 20
0.0
 30
0.0
  9
$PUCSORGBOTTOM
 10
0.0
 20
0.0
 30
0.0
  9
$PUCSORGLEFT
 10
0.0
 20
0.0
 30
0.0
  9
$PUCSORGRIGHT
 10
0.0
 20
0.0
 30
0.0
  9
$PUCSORGFRONT
 10
0.0
 20
0.0
 30
0.0
  9
$PUCSORGBACK
 10
0.0
 20
0.0
 30
0.0
  9
$USERI1
 70
0
  9
$USERI2
 70
0
  9
$USERI3
 70
0
  9
$USERI4
 70
0
  9
$USERI5
 70
0
  9
$USERR1
 40
0.0
  9
$USERR2
 40
0.0
  9
$USERR3
 40
0.0
  9
$USERR4
 40
0.0
  9
$USERR5
 40
0.0
  9
$WORLDVIEW
 70
1
  9
$SHADEDGE
 70
3
  9
$SHADEDIF
 70
70
  9
$TILEMODE
 70
1
  9
$MAXACTVP
 70
64
  9
$PINSBASE
 10
0.0
 20
0.0
 30
0.0
  9
$PLIMCHECK
 70
0
  9
$PEXTMIN
 10
1e+20
 20
1e+20
 30
1e+20
  9
$PEXTMAX
 10
-1e+20
 20
-1e+20
 30
-1e+20
  9
$PLIMMIN
 10
0.0
 20
0.0
  9
$PLIMMAX
 10
420.0
 20
297.0
  9
$UNITMODE
 70
0
  9
$VISRETAIN
 70
1
  9
$PLINEGEN
 70
0
  9
$PSLTSCALE
 70
1
  9
$TREEDEPTH
 70
3020
  9
$CMLSTYLE
  2
Standard
  9
$CMLJUST
 70
0
  9
$CMLSCALE
 40
20.0
  9
$PROXYGRAPHICS
 70
1
  9
$MEASUREMENT
 70
1
  9
$CELWEIGHT
370
-1
  9
$ENDCAPS
280
0
  9
$JOINSTYLE
280
0
  9
$LWDISPLAY
290
0
  9
$INSUNITS
 70
4
  9
$HYPERLINKBASE
  1

  9
$STYLESHEET
  1

  9
$XEDIT
290
1
  9
$CEPSNTYPE
380
0
  9
$PSTYLEMODE
290
1
  9
$FINGERPRINTGUID
  2
{5D301608-398D-4ABF-A4FA-460F9E019258}
  9
$VERSIONGUID
  2
{D42BB61B-D7BA-4848-A6C0-FC99799E5555}
  9
$EXTNAMES
290
1
  9
$PSVPSCALE
 40
0.0
  9
$OLESTARTUP
290
0
  0
ENDSEC
  0
SECTION
  2
CLASSES
  0
CLASS
  1
ACDBDICTIONARYWDFLT
  2
AcDbDictionaryWithDefault
  3
ObjectDBX Classes
 90
0
280
0
281
0
  0
CLASS
  1
SUN
  2
AcDbSun
  3
SCENEOE
 90
1153
280
0
281
0
  0
CLASS
  1
VISUALSTYLE
  2
AcDbVisualStyle
  3
ObjectDBX Classes
 90
4095
280
0
281
0
  0
CLASS
  1
MATERIAL
  2
AcDbMaterial
  3
ObjectDBX Classes
 90
1153
280
0
281
0
  0
CLASS
  1
SCALE
  2
AcDbScale
  3
ObjectDBX Classes
 90
1153
280
0
281
0
  0
CLASS
  1
TABLESTYLE
  2
AcDbTableStyle
  3
ObjectDBX Classes
 90
4095
280
0
281
0
  0
CLASS
  1
MLEADERSTYLE
  2
AcDbMLeaderStyle
  3
ACDB_MLEADERSTYLE_CLASS
 90
4095
280
0
281
0
  0
CLASS
  1
DICTIONARYVAR
  2
AcDbDictionaryVar
  3
ObjectDBX Classes
 90
0
280
0
281
0
  0
CLASS
  1
CELLSTYLEMAP
  2
AcDbCellStyleMap
  3
ObjectDBX Classes
 90
1152
280
0
281
0
  0
CLASS
  1
MENTALRAYRENDERSETTINGS
  2
AcDbMentalRayRenderSettings
  3
SCENEOE
 90
1024
280
0
281
0
  0
CLASS
  1
ACDBDETAILVIEWSTYLE
  2
AcDbDetailViewStyle
  3
ObjectDBX Classes
 90
1025
280
0
281
0
  0
CLASS
  1
ACDBSECTIONVIEWSTYLE
  2
AcDbSectionViewStyle
  3
ObjectDBX Classes
 90
1025
280
0
281
0
  0
CLASS
  1
RASTERVARIABLES
  2
AcDbRasterVariables
  3
ISM
 90
0
280
0
281
0
  0
CLASS
  1
ACDBPLACEHOLDER
  2
AcDbPlaceHolder
  3
ObjectDBX Classes
 90
0
280
0
281
0
  0
CLASS
  1
LAYOUT
  2
AcDbLayout
  3
ObjectDBX Classes
 90
0
280
0
281
0
  0
ENDSEC
  0
SECTION
  2
TABLES
  0
TABLE
  2
VPORT
  5
8
330
0
100
AcDbSymbolTable
 70
1
  0
VPORT
  5
23
330
8
100
AcDbSymbolTableRecord
100
AcDbViewportTableRecord
  2
*Active
 70
0
 10
0.0
 20
0.0
 11
1.0
 21
1.0
 12
0.0
 22
0.0
 13
0.0
 23
0.0
 14
0.5
 24
0.5
 15
0.5
 25
0.5
 16
0.0
 26
0.0
 36
1.0
 17
0.0
 27
0.0
 37
0.0
 40
1000.0
 41
1.34
 42
50.0
 43
0.0
 44
0.0
 50
0.0
 51
0.0
 71
0
 72
1000
 73
1
 74
3
 75
0
 76
0
 77
0
 78
0
281
0
 65
0
146
0.0
  0
ENDTAB
  0
TABLE
  2
LTYPE
  5
2
330
0
100
AcDbSymbolTable
 70
3
  0
LTYPE
  5
24
330
2
100
AcDbSymbolTableRecord
100
AcDbLinetypeTableRecord
  2
ByBlock
 70
0
  3

 72
65
 73
0
 40
0.0
  0
LTYPE
  5
25
330
2
100
AcDbSymbolTableRecord
100
AcDbLinetypeTableRecord
  2
ByLayer
 70
0
  3

 72
65
 73
0
 40
0.0
  0
LTYPE
  5
26
330
2
100
AcDbSymbolTableRecord
100
AcDbLinetypeTableRecord
  2
Continuous
 70
0
  3

 72
65
 73
0
 40
0.0
  0
ENDTAB
  0
TABLE
  2
LAYER
  5
1
330
0
100
AcDbSymbolTable
 70
4
  0
LAYER
  5
27
330
1
100
AcDbSymbolTableRecord
100
AcDbLayerTableRecord
  2
0
 70
0
 62
7
  6
Continuous
370
-3
390
13
  0
LAYER
  5
28
330
1
100
AcDbSymbolTableRecord
100
AcDbLayerTableRecord
  2
Defpoints
 70
0
 62
7
  6
Continuous
290
0
370
-3
390
13
  0
LAYER
  5
2F
330
1
100
AcDbSymbolTableRecord
100
AcDbLayerTableRecord
  2
CUT
 70
0
 62
1
  6
Continuous
370
-3
390
13
  0
LAYER
  5
30
330
1
100
AcDbSymbolTableRecord
100
AcDbLayerTableRecord
  2
RASTER
 70
0
 62
7
  6
Continuous
370
-3
390
13
  0
ENDTAB
  0
TABLE
  2
STYLE
  5
5
330
0
100
AcDbSymbolTable
 70
1
  0
STYLE
  5
29
330
5
100
AcDbSymbolTableRecord
100
AcDbTextStyleTableRecord
  2
Standard
 70
0
 40
0.0
 41
1.0
 50
0.0
 71
0
 42
2.5
  3
txt
  4

  0
ENDTAB
  0
TABLE
  2
VIEW
  5
7
330
0
100
AcDbSymbolTable
 70
0
  0
ENDTAB
  0
TABLE
  2
UCS
  5
6
330
0
100
AcDbSymbolTable
 70
0
  0
ENDTAB
  0
TABLE
  2
APPID
  5
3
330
0
100
AcDbSymbolTable
 70
3
  0
APPID
  5
2A
330
3
100
AcDbSymbolTableRecord
100
AcDbRegAppTableRecord
  2
ACAD
 70
0
  0
APPID
  5
B5
330
3
100
AcDbSymbolTableRecord
100
AcDbRegAppTableRecord
  2
HATCHBACKGROUNDCOLOR
 70
0
  0
APPID
  5
B6
330
3
100
AcDbSymbolTableRecord
100
AcDbRegAppTableRecord
  2
EZDXF
 70
0
  0
ENDTAB
  0
TABLE
  2
DIMSTYLE
  5
4
330
0
100
AcDbSymbolTable
 70
1
100
AcDbDimStyleTable
  0
DIMSTYLE
105
2B
330
4
100
AcDbSymbolTableRecord
100
AcDbDimStyleTableRecord
  2
Standard
 70
0
  3

  4

 40
1.0
 41
2.5
 42
0.625
 43
3.75
 44
1.25
 45
0.0
 46
0.0
 47
0.0
 48
0.0
140
2.5
141
2.5
142
0.0
143
0.03937007874
144
1.0
145
0.0
146
1.0
147
0.625
148
0.0
 71
0
 72
0
 73
0
 74
0
 75
0
 76
0
 77
1
 78
8
 79
3
170
0
171
3
172
1
173
0
174
0
175
0
176
0
177
0
178
0
179
2
271
2
272
2
273
2
274
3
275
0
276
0
277
2
278
44
279
0
280
0
281
0
282
0
283
0
284
8
285
0
286
0
288
0
289
3
371
-2
372
-2
  0
ENDTAB
  0
TABLE
  2
BLOCK_RECORD
  5
9
330
0
100
AcDbSymbolTable
 70
2
  0
BLOCK_RECORD
  5
17
330
9
100
AcDbSymbolTableRecord
100
AcDbBlockTableRecord
  2
*Model_Space
340
1A
  0
BLOCK_RECORD
  5
1B
330
9
100
AcDbSymbolTableRecord
100
AcDbBlockTableRecord
  2
*Paper_Space
340
1E
  0
ENDTAB
  0
ENDSEC
  0
SECTION
  2
BLOCKS
  0
BLOCK
  5
18
330
17
100
AcDbEntity
  8
0
100
AcDbBlockBegin
  2
*Model_Space
 70
0
 10
0.0
 20
0.0
 30
0.0
  3
*Model_Space
  1

  0
ENDBLK
  5
19
330
17
100
AcDbEntity
  8
0
100
AcDbBlockEnd
  0
BLOCK
  5
1C
330
1B
100
AcDbEntity
  8
0
100
AcDbBlockBegin
  2
*Paper_Space
 70
0
 10
0.0
 20
0.0
 30
0.0
  3
*Paper_Space
  1

  0
ENDBLK
  5
1D
330
1B
100
AcDbEntity
  8
0
100
AcDbBlockEnd
  0
ENDSEC
  0
SECTION
  2
ENTITIES
  0
LWPOLYLINE
  5
31
330
17
100
AcDbEntity
  8
CUT
100
AcDbPolyline
 90
36
 70
1
 10
6.8
 20
216.444
 10
67.801
 20
216.444
 10
70.641
 20
216.444
 10
70.641
 20
213.964
 10
67.841
 20
213.964
 10
67.841
 20
211.644
 10
70.641
 20
211.644
 10
70.641
 20
209.164
 10
67.801
 20
209.164
 10
62.295
 20
209.164
 10
62.295
 20
206.364
 10
56.67
 20
206.364
 10
56.67
 20
209.164
 10
51.204
 20
209.164
 10
51.204
 20
206.364
 10
45.579
 20
206.364
 10
45.579
 20
209.164
 10
40.113
 20
209.164
 10
40.113
 20
206.364
 10
34.488
 20
206.364
 10
34.488
 20
209.164
 10
29.022
 20
209.164
 10
29.022
 20
206.364
 10
23.397
 20
206.364
 10
23.397
 20
209.164
 10
17.931
 20
209.164
 10
17.931
 20
206.364
 10
12.306
 20
206.364
 10
12.306
 20
209.164
 10
6.8
 20
209.164
 10
3.96
 20
209.164
 10
3.96
 20
211.644
 10
6.76
 20
211.644
 10
6.76
 20
213.964
 10
3.96
 20
213.964
 10
3.96
 20
216.444
  0
LWPOLYLINE
  5
32
330
17
100
AcDbEntity
  8
CUT
100
AcDbPolyline
 90
4
 70
1
 10
11.84
 20
213.864
 10
62.761
 20
213.864
 10
62.761
 20
211.744
 10
11.84
 20
211.744
  0
HATCH
  5
33
330
17
100
AcDbEntity
  8
RASTER
 62
7
100
AcDbHatch
 10
0.0
 20
0.0
 30
0.0
210
0.0
220
0.0
230
1.0
  2
SOLID
 70
1
 71
0
 91
1
 92
3
 72
0
 73
1
 93
4
 10
7.4
 20
216.004
 10
11.2
 20
216.004
 10
11.2
 20
209.604
 10
7.4
 20
209.604
 97
0
 75
0
 76
1
 98
0
  0
HATCH
  5
34
330
17
100
AcDbEntity
  8
RASTER
 62
7
100
AcDbHatch
 10
0.0
 20
0.0
 30
0.0
210
0.0
220
0.0
230
1.0
  2
SOLID
 70
1
 71
0
 91
1
 92
3
 72
0
 73
1
 93
4
 10
63.401
 20
216.004
 10
67.201
 20
216.004
 10
67.201
 20
209.604
 10
63.401
 20
209.604
 97
0
 75
0
 76
1
 98
0
  0
HATCH
  5
35
330
17
100
AcDbEntity
  8
RASTER
 62
7
100
AcDbHatch
 10
0.0
 20
0.0
 30
0.0
210
0.0
220
0.0
230
1.0
  2
SOLID
 70
1
 71
0
 91
1
 92
3
 72
0
 73
1
 93
48
 10
13.9
 20
215.504
 10
13.896
 20
215.439
 10
13.883
 20
215.375
 10
13.862
 20
215.313
 10
13.833
 20
215.254
 10
13.797
 20
215.2
 10
13.754
 20
215.15
 10
13.704
 20
215.107
 10
13.65
 20
215.071
 10
13.591
 20
215.042
 10
13.529
 20
215.021
 10
13.465
 20
215.008
 10
13.4
 20
215.004
 10
13.335
 20
215.008
 10
13.271
 20
215.021
 10
13.209
 20
215.042
 10
13.15
 20
215.071
 10
13.096
 20
215.107
 10
13.046
 20
215.15
 10
13.003
 20
215.2
 10
12.967
 20
215.254
 10
12.938
 20
215.313
 10
12.917
 20
215.375
 10
12.904
 20
215.439
 10
12.9
 20
215.504
 10
12.904
 20
215.569
 10
12.917
 20
215.633
 10
12.938
 20
215.695
 10
12.967
 20
215.754
 10
13.003
 20
215.808
 10
13.046
 20
215.858
 10
13.096
 20
215.901
 10
13.15
 20
215.937
 10
13.209
 20
215.966
 10
13.271
 20
215.987
 10
13.335
 20
216.0
 10
13.4
 20
216.004
 10
13.465
 20
216.0
 10
13.529
 20
215.987
 10
13.591
 20
215.966
 10
13.65
 20
215.937
 10
13.704
 20
215.901
 10
13.754
 20
215.858
 10
13.797
 20
215.808
 10
13.833
 20
215.754
 10
13.862
 20
215.695
 10
13.883
 20
215.633
 10
13.896
 20
215.569
 97
0
 75
0
 76
1
 98
0
  0
HATCH
  5
36
330
17
100
AcDbEntity
  8
RASTER
 62
7
100
AcDbHatch
 10
0.0
 20
0.0
 30
0.0
210
0.0
220
0.0
230
1.0
  2
SOLID
 70
1
 71
0
 91
1
 92
3
 72
0
 73
1
 93
48
 10
61.701
 20
215.504
 10
61.697
 20
215.439
 10
61.684
 20
215.375
 10
61.663
 20
215.313
 10
61.634
 20
215.254
 10
61.598
 20
215.2
 10
61.555
 20
215.15
 10
61.505
 20
215.107
 10
61.451
 20
215.071
 10
61.392
 20
215.042
 10
61.33
 20
215.021
 10
61.266
 20
215.008
 10
61.201
 20
215.004
 10
61.136
 20
215.008
 10
61.072
 20
215.021
 10
61.01
 20
215.042
 10
60.951
 20
215.071
 10
60.897
 20
215.107
 10
60.847
 20
215.15
 10
60.804
 20
215.2
 10
60.768
 20
215.254
 10
60.739
 20
215.313
 10
60.718
 20
215.375
 10
60.705
 20
215.439
 10
60.701
 20
215.504
 10
60.705
 20
215.569
 10
60.718
 20
215.633
 10
60.739
 20
215.695
 10
60.768
 20
215.754
 10
60.804
 20
215.808
 10
60.847
 20
215.858
 10
60.897
 20
215.901
 10
60.951
 20
215.937
 10
61.01
 20
215.966
 10
61.072
 20
215.987
 10
61.136
 20
216.0
 10
61.201
 20
216.004
 10
61.266
 20
216.0
 10
61.33
 20
215.987
 10
61.392
 20
215.966
 10
61.451
 20
215.937
 10
61.505
 20
215.901
 10
61.555
 20
215.858
 10
61.598
 20
215.808
 10
61.634
 20
215.754
 10
61.663
 20
215.695
 10
61.684
 20
215.633
 10
61.697
 20
215.569
 97
0
 75
0
 76
1
 98
0
  0
HATCH
  5
37
330
17
100
AcDbEntity
  8
RASTER
 62
7
100
AcDbHatch
 10
0.0
 20
0.0
 30
0.0
210
0.0
220
0.0
230
1.0
  2
SOLID
 70
1
 71
0
 91
1
 92
3
 72
0
 73
1
 93
48
 10
13.9
 20
210.104
 10
13.896
 20
210.039
 10
13.883
 20
209.975
 10
13.862
 20
209.913
 10
13.833
 20
209.854
 10
13.797
 20
209.8
 10
13.754
 20
209.75
 10
13.704
 20
209.707
 10
13.65
 20
209.671
 10
13.591
 20
209.642
 10
13.529
 20
209.621
 10
13.465
 20
209.608
 10
13.4
 20
209.604
 10
13.335
 20
209.608
 10
13.271
 20
209.621
 10
13.209
 20
209.642
 10
13.15
 20
209.671
 10
13.096
 20
209.707
 10
13.046
 20
209.75
 10
13.003
 20
209.8
 10
12.967
 20
209.854
 10
12.938
 20
209.913
 10
12.917
 20
209.975
 10
12.904
 20
210.039
 10
12.9
 20
210.104
 10
12.904
 20
210.169
 10
12.917
 20
210.233
 10
12.938
 20
210.295
 10
12.967
 20
210.354
 10
13.003
 20
210.408
 10
13.046
 20
210.458
 10
13.096
 20
210.501
 10
13.15
 20
210.537
 10
13.209
 20
210.566
 10
13.271
 20
210.587
 10
13.335
 20
210.6
 10
13.4
 20
210.604
 10
13.465
 20
210.6
 10
13.529
 20
210.587
 10
13.591
 20
210.566
 10
13.65
 20
210.537
 10
13.704
 20
210.501
 10
13.754
 20
210.458
 10
13.797
 20
210.408
 10
13.833
 20
210.354
 10
13.862
 20
210.295
 10
13.883
 20
210.233
 10
13.896
 20
210.169
 97
0
 75
0
 76
1
 98
0
  0
HATCH
  5
38
330
17
100
AcDbEntity
  8
RASTER
 62
7
100
AcDbHatch
 10
0.0
 20
0.0
 30
0.0
210
0.0
220
0.0
230
1.0
  2
SOLID
 70
1
 71
0
 91
1
 92
3
 72
0
 73
1
 93
48
 10
61.701
 20
210.104
 10
61.697
 20
210.039
 10
61.684
 20
209.975
 10
61.663
 20
209.913
 10
61.634
 20
209.854
 10
61.598
 20
209.8
 10
61.555
 20
209.75
 10
61.505
 20
209.707
 10
61.451
 20
209.671
 10
61.392
 20
209.642
 10
61.33
 20
209.621
 10
61.266
 20
209.608
 10
61.201
 20
209.604
 10
61.136
 20
209.608
 10
61.072
 20
209.621
 10
61.01
 20
209.642
 10
60.951
 20
209.671
 10
60.897
 20
209.707
 10
60.847
 20
209.75
 10
60.804
 20
209.8
 10
60.768
 20
209.854
 10
60.739
 20
209.913
 10
60.718
 20
209.975
 10
60.705
 20
210.039
 10
60.701
 20
210.104
 10
60.705
 20
210.169
 10
60.718
 20
210.233
 10
60.739
 20
210.295
 10
60.768
 20
210.354
 10
60.804
 20
210.408
 10
60.847
 20
210.458
 10
60.897
 20
210.501
 10
60.951
 20
210.537
 10
61.01
 20
210.566
 10
61.072
 20
210.587
 10
61.136
 20
210.6
 10
61.201
 20
210.604
 10
61.266
 20
210.6
 10
61.33
 20
210.587
 10
61.392
 20
210.566
 10
61.451
 20
210.537
 10
61.505
 20
210.501
 10
61.555
 20
210.458
 10
61.598
 20
210.408
 10
61.634
 20
210.354
 10
61.663
 20
210.295
 10
61.684
 20
210.233
 10
61.697
 20
210.169
 97
0
 75
0
 76
1
 98
0
  0
LWPOLYLINE
  5
39
330
17
100
AcDbEntity
  8
CUT
100
AcDbPolyline
 90
36
 70
1
 10
77.401
 20
216.444
 10
138.402
 20
216.444
 10
141.242
 20
216.444
 10
141.242
 20
213.964
 10
138.442
 20
213.964
 10
138.442
 20
211.644
 10
141.242
 20
211.644
 10
141.242
 20
209.164
 10
138.402
 20
209.164
 10
132.896
 20
209.164
 10
132.896
 20
206.364
 10
127.271
 20
206.364
 10
127.271
 20
209.164
 10
121.805
 20
209.164
 10
121.805
 20
206.364
 10
116.18
 20
206.364
 10
116.18
 20
209.164
 10
110.714
 20
209.164
 10
110.714
 20
206.364
 10
105.089
 20
206.364
 10
105.089
 20
209.164
 10
99.623
 20
209.164
 10
99.623
 20
206.364
 10
93.998
 20
206.364
 10
93.998
 20
209.164
 10
88.532
 20
209.164
 10
88.532
 20
206.364
 10
82.907
 20
206.364
 10
82.907
 20
209.164
 10
77.401
 20
209.164
 10
74.561
 20
209.164
 10
74.561
 20
211.644
 10
77.361
 20
211.644
 10
77.361
 20
213.964
 10
74.561
 20
213.964
 10
74.561
 20
216.444
  0
LWPOLYLINE
  5
3A
330
17
100
AcDbEntity
  8
CUT
100
AcDbPolyline
 90
4
 70
1
 10
82.441
 20
213.864
 10
133.362
 20
213.864
 10
133.362
 20
211.744
 10
82.441
 20
211.744
  0
HATCH
  5
3B
330
17
100
AcDbEntity
  8
RASTER
 62
7
100
AcDbHatch
 10
0.0
 20
0.0
 30
0.0
210
0.0
220
0.0
230
1.0
  2
SOLID
 70
1
 71
0
 91
1
 92
3
 72
0
 73
1
 93
4
 10
78.001
 20
216.004
 10
81.801
 20
216.004
 10
81.801
 20
209.604
 10
78.001
 20
209.604
 97
0
 75
0
 76
1
 98
0
  0
HATCH
  5
3C
330
17
100
AcDbEntity
  8
RASTER
 62
7
100
AcDbHatch
 10
0.0
 20
0.0
 30
0.0
210
0.0
220
0.0
230
1.0
  2
SOLID
 70
1
 71
0
 91
1
 92
3
 72
0
 73
1
 93
4
 10
134.002
 20
216.004
 10
137.802
 20
216.004
 10
137.802
 20
209.604
 10
134.002
 20
209.604
 97
0
 75
0
 76
1
 98
0
  0
HATCH
  5
3D
330
17
100
AcDbEntity
  8
RASTER
 62
7
100
AcDbHatch
 10
0.0
 20
0.0
 30
0.0
210
0.0
220
0.0
230
1.0
  2
SOLID
 70
1
 71
0
 91
1
 92
3
 72
0
 73
1
 93
48
 10
84.501
 20
215.504
 10
84.497
 20
215.439
 10
84.484
 20
215.375
 10
84.463
 20
215.313
 10
84.434
 20
215.254
 10
84.398
 20
215.2
 10
84.355
 20
215.15
 10
84.305
 20
215.107
 10
84.251
 20
215.071
 10
84.192
 20
215.042
 10
84.13
 20
215.021
 10
84.066
 20
215.008
 10
84.001
 20
215.004
 10
83.936
 20
215.008
 10
83.872
 20
215.021
 10
83.81
 20
215.042
 10
83.751
 20
215.071
 10
83.697
 20
215.107
 10
83.647
 20
215.15
 10
83.604
 20
215.2
 10
83.568
 20
215.254
 10
83.539
 20
215.313
 10
83.518
 20
215.375
 10
83.505
 20
215.439
 10
83.501
 20
215.504
 10
83.505
 20
215.569
 10
83.518
 20
215.633
 10
83.539
 20
215.695
 10
83.568
 20
215.754
 10
83.604
 20
215.808
 10
83.647
 20
215.858
 10
83.697
 20
215.901
 10
83.751
 20
215.937
 10
83.81
 20
215.966
 10
83.872
 20
215.987
 10
83.936
 20
216.0
 10
84.001
 20
216.004
 10
84.066
 20
216.0
 10
84.13
 20
215.987
 10
84.192
 20
215.966
 10
84.251
 20
215.937
 10
84.305
 20
215.901
 10
84.355
 20
215.858
 10
84.398
 20
215.808
 10
84.434
 20
215.754
 10
84.463
 20
215.695
 10
84.484
 20
215.633
 10
84.497
 20
215.569
 97
0
 75
0
 76
1
 98
0
  0
HATCH
  5
3E
330
17
100
AcDbEntity
  8
RASTER
 62
7
100
AcDbHatch
 10
0.0
 20
0.0
 30
0.0
210
0.0
220
0.0
230
1.0
  2
SOLID
 70
1
 71
0
 91
1
 92
3
 72
0
 73
1
 93
48
 10
132.302
 20
215.504
 10
132.298
 20
215.439
 10
132.285
 20
215.375
 10
132.264
 20
215.313
 10
132.235
 20
215.254
 10
132.199
 20
215.2
 10
132.156
 20
215.15
 10
132.106
 20
215.107
 10
132.052
 20
215.071
 10
131.993
 20
215.042
 10
131.931
 20
215.021
 10
131.867
 20
215.008
 10
131.802
 20
215.004
 10
131.737
 20
215.008
 10
131.673
 20
215.021
 10
131.611
 20
215.042
 10
131.552
 20
215.071
 10
131.498
 20
215.107
 10
131.448
 20
215.15
 10
131.405
 20
215.2
 10
131.369
 20
215.254
 10
131.34
 20
215.313
 10
131.319
 20
215.375
 10
131.306
 20
215.439
 10
131.302
 20
215.504
 10
131.306
 20
215.569
 10
131.319
 20
215.633
 10
131.34
 20
215.695
 10
131.369
 20
215.754
 10
131.405
 20
215.808
 10
131.448
 20
215.858
 10
131.498
 20
215.901
 10
131.552
 20
215.937
 10
131.611
 20
215.966
 10
131.673
 20
215.987
 10
131.737
 20
216.0
 10
131.802
 20
216.004
 10
131.867
 20
216.0
 10
131.931
 20
215.987
 10
131.993
 20
215.966
 10
132.052
 20
215.937
 10
132.106
 20
215.901
 10
132.156
 20
215.858
 10
132.199
 20
215.808
 10
132.235
 20
215.754
 10
132.264
 20
215.695
 10
132.285
 20
215.633
 10
132.298
 20
215.569
 97
0
 75
0
 76
1
 98
0
  0
HATCH
  5
3F
330
17
100
AcDbEntity
  8
RASTER
 62
7
100
AcDbHatch
 10
0.0
 20
0.0
 30
0.0
210
0.0
220
0.0
230
1.0
  2
SOLID
 70
1
 71
0
 91
1
 92
3
 72
0
 73
1
 93
48
 10
84.501
 20
210.104
 10
84.497
 20
210.039
 10
84.484
 20
209.975
 10
84.463
 20
209.913
 10
84.434
 20
209.854
 10
84.398
 20
209.8
 10
84.355
 20
209.75
 10
84.305
 20
209.707
 10
84.251
 20
209.671
 10
84.192
 20
209.642
 10
84.13
 20
209.621
 10
84.066
 20
209.608
 10
84.001
 20
209.604
 10
83.936
 20
209.608
 10
83.872
 20
209.621
 10
83.81
 20
209.642
 10
83.751
 20
209.671
 10
83.697
 20
209.707
 10
83.647
 20
209.75
 10
83.604
 20
209.8
 10
83.568
 20
209.854
 10
83.539
 20
209.913
 10
83.518
 20
209.975
 10
83.505
 20
210.039
 10
83.501
 20
210.104
 10
83.505
 20
210.169
 10
83.518
 20
210.233
 10
83.539
 20
210.295
 10
83.568
 20
210.354
 10
83.604
 20
210.408
 10
83.647
 20
210.458
 10
83.697
 20
210.501
 10
83.751
 20
210.537
 10
83.81
 20
210.566
 10
83.872
 20
210.587
 10
83.936
 20
210.6
 10
84.001
 20
210.604
 10
84.066
 20
210.6
 10
84.13
 20
210.587
 10
84.192
 20
210.566
 10
84.251
 20
210.537
 10
84.305
 20
210.501
 10
84.355
 20
210.458
 10
84.398
 20
210.408
 10
84.434
 20
210.354
 10
84.463
 20
210.295
 10
84.484
 20
210.233
 10
84.497
 20
210.169
 97
0
 75
0
 76
1
 98
0
  0
HATCH
  5
40
330
17
100
AcDbEntity
  8
RASTER
 62
7
100
AcDbHatch
 10
0.0
 20
0.0
 30
0.0
210
0.0
220
0.0
230
1.0
  2
SOLID
 70
1
 71
0
 91
1
 92
3
 72
0
 73
1
 93
48
 10
132.302
 20
210.104
 10
132.298
 20
210.039
 10
132.285
 20
209.975
 10
132.264
 20
209.913
 10
132.235
 20
209.854
 10
132.199
 20
209.8
 10
132.156
 20
209.75
 10
132.106
 20
209.707
 10
132.052
 20
209.671
 10
131.993
 20
209.642
 10
131.931
 20
209.621
 10
131.867
 20
209.608
 10
131.802
 20
209.604
 10
131.737
 20
209.608
 10
131.673
 20
209.621
 10
131.611
 20
209.642
 10
131.552
 20
209.671
 10
131.498
 20
209.707
 10
131.448
 20
209.75
 10
131.405
 20
209.8
 10
131.369
 20
209.854
 10
131.34
 20
209.913
 10
131.319
 20
209.975
 10
131.306
 20
210.039
 10
131.302
 20
210.104
 10
131.306
 20
210.169
 10
131.319
 20
210.233
 10
131.34
 20
210.295
 10
131.369
 20
210.354
 10
131.405
 20
210.408
 10
131.448
 20
210.458
 10
131.498
 20
210.501
 10
131.552
 20
210.537
 10
131.611
 20
210.566
 10
131.673
 20
210.587
 10
131.737
 20
210.6
 10
131.802
 20
210.604
 10
131.867
 20
210.6
 10
131.931
 20
210.587
 10
131.993
 20
210.566
 10
132.052
 20
210.537
 10
132.106
 20
210.501
 10
132.156
 20
210.458
 10
132.199
 20
210.408
 10
132.235
 20
210.354
 10
132.264
 20
210.295
 10
132.285
 20
210.233
 10
132.298
 20
210.169
 97
0
 75
0
 76
1
 98
0
  0
LWPOLYLINE
  5
41
330
17
100
AcDbEntity
  8
CUT
100
AcDbPolyline
 90
24
 70
1
 10
147.962
 20
216.444
 10
189.043
 20
216.444
 10
189.043
 20
214.044
 10
191.843
 20
214.044
 10
191.843
 20
211.564
 10
189.043
 20
211.564
 10
189.043
 20
209.164
 10
183.186
 20
209.164
 10
183.186
 20
206.364
 10
177.248
 20
206.364
 10
177.248
 20
209.164
 10
171.471
 20
209.164
 10
171.471
 20
206.364
 10
165.534
 20
206.364
 10
165.534
 20
209.164
 10
159.757
 20
209.164
 10
159.757
 20
206.364
 10
153.819
 20
206.364
 10
153.819
 20
209.164
 10
147.962
 20
209.164
 10
147.962
 20
211.564
 10
145.162
 20
211.564
 10
145.162
 20
214.044
 10
147.962
 20
214.044
  0
LWPOLYLINE
  5
42
330
17
100
AcDbEntity
  8
CUT
100
AcDbPolyline
 90
4
 70
1
 10
153.042
 20
213.864
 10
183.963
 20
213.864
 10
183.963
 20
211.744
 10
153.042
 20
211.744
  0
HATCH
  5
43
330
17
100
AcDbEntity
  8
RASTER
 62
7
100
AcDbHatch
 10
0.0
 20
0.0
 30
0.0
210
0.0
220
0.0
230
1.0
  2
SOLID
 70
1
 71
0
 91
1
 92
3
 72
0
 73
1
 93
4
 10
148.602
 20
216.004
 10
152.402
 20
216.004
 10
152.402
 20
209.604
 10
148.602
 20
209.604
 97
0
 75
0
 76
1
 98
0
  0
HATCH
  5
44
330
17
100
AcDbEntity
  8
RASTER
 62
7
100
AcDbHatch
 10
0.0
 20
0.0
 30
0.0
210
0.0
220
0.0
230
1.0
  2
SOLID
 70
1
 71
0
 91
1
 92
3
 72
0
 73
1
 93
4
 10
184.603
 20
216.004
 10
188.403
 20
216.004
 10
188.403
 20
209.604
 10
184.603
 20
209.604
 97
0
 75
0
 76
1
 98
0
  0
HATCH
  5
45
330
17
100
AcDbEntity
  8
RASTER
 62
7
100
AcDbHatch
 10
0.0
 20
0.0
 30
0.0
210
0.0
220
0.0
230
1.0
  2
SOLID
 70
1
 71
0
 91
1
 92
3
 72
0
 73
1
 93
48
 10
155.102
 20
215.504
 10
155.098
 20
215.439
 10
155.085
 20
215.375
 10
155.064
 20
215.313
 10
155.035
 20
215.254
 10
154.999
 20
215.2
 10
154.956
 20
215.15
 10
154.906
 20
215.107
 10
154.852
 20
215.071
 10
154.793
 20
215.042
 10
154.731
 20
215.021
 10
154.667
 20
215.008
 10
154.602
 20
215.004
 10
154.537
 20
215.008
 10
154.473
 20
215.021
 10
154.411
 20
215.042
 10
154.352
 20
215.071
 10
154.298
 20
215.107
 10
154.248
 20
215.15
 10
154.205
 20
215.2
 10
154.169
 20
215.254
 10
154.14
 20
215.313
 10
154.119
 20
215.375
 10
154.106
 20
215.439
 10
154.102
 20
215.504
 10
154.106
 20
215.569
 10
154.119
 20
215.633
 10
154.14
 20
215.695
 10
154.169
 20
215.754
 10
154.205
 20
215.808
 10
154.248
 20
215.858
 10
154.298
 20
215.901
 10
154.352
 20
215.937
 10
154.411
 20
215.966
 10
154.473
 20
215.987
 10
154.537
 20
216.0
 10
154.602
 20
216.004
 10
154.667
 20
216.0
 10
154.731
 20
215.987
 10
154.793
 20
215.966
 10
154.852
 20
215.937
 10
154.906
 20
215.901
 10
154.956
 20
215.858
 10
154.999
 20
215.808
 10
155.035
 20
215.754
 10
155.064
 20
215.695
 10
155.085
 20
215.633
 10
155.098
 20
215.569
 97
0
 75
0
 76
1
 98
0
  0
HATCH
  5
46
330
17
100
AcDbEntity
  8
RASTER
 62
7
100
AcDbHatch
 10
0.0
 20
0.0
 30
0.0
210
0.0
220
0.0
230
1.0
  2
SOLID
 70
1
 71
0
 91
1
 92
3
 72
0
 73
1
 93
48
 10
182.903
 20
215.504
 10
182.899
 20
215.439
 10
182.886
 20
215.375
 10
182.865
 20
215.313
 10
182.836
 20
215.254
 10
182.8
 20
215.2
 10
182.757
 20
215.15
 10
182.707
 20
215.107
 10
182.653
 20
215.071
 10
182.594
 20
215.042
 10
182.532
 20
215.021
 10
182.468
 20
215.008
 10
182.403
 20
215.004
 10
182.338
 20
215.008
 10
182.274
 20
215.021
 10
182.212
 20
215.042
 10
182.153
 20
215.071
 10
182.099
 20
215.107
 10
182.049
 20
215.15
 10
182.006
 20
215.2
 10
181.97
 20
215.254
 10
181.941
 20
215.313
 10
181.92
 20
215.375
 10
181.907
 20
215.439
 10
181.903
 20
215.504
 10
181.907
 20
215.569
 10
181.92
 20
215.633
 10
181.941
 20
215.695
 10
181.97
 20
215.754
 10
182.006
 20
215.808
 10
182.049
 20
215.858
 10
182.099
 20
215.901
 10
182.153
 20
215.937
 10
182.212
 20
215.966
 10
182.274
 20
215.987
 10
182.338
 20
216.0
 10
182.403
 20
216.004
 10
182.468
 20
216.0
 10
182.532
 20
215.987
 10
182.594
 20
215.966
 10
182.653
 20
215.937
 10
182.707
 20
215.901
 10
182.757
 20
215.858
 10
182.8
 20
215.808
 10
182.836
 20
215.754
 10
182.865
 20
215.695
 10
182.886
 20
215.633
 10
182.899
 20
215.569
 97
0
 75
0
 76
1
 98
0
  0
HATCH
  5
47
330
17
100
AcDbEntity
  8
RASTER
 62
7
100
AcDbHatch
 10
0.0
 20
0.0
 30
0.0
210
0.0
220
0.0
230
1.0
  2
SOLID
 70
1
 71
0
 91
1
 92
3
 72
0
 73
1
 93
48
 10
155.102
 20
210.104
 10
155.098
 20
210.039
 10
155.085
 20
209.975
 10
155.064
 20
209.913
 10
155.035
 20
209.854
 10
154.999
 20
209.8
 10
154.956
 20
209.75
 10
154.906
 20
209.707
 10
154.852
 20
209.671
 10
154.793
 20
209.642
 10
154.731
 20
209.621
 10
154.667
 20
209.608
 10
154.602
 20
209.604
 10
154.537
 20
209.608
 10
154.473
 20
209.621
 10
154.411
 20
209.642
 10
154.352
 20
209.671
 10
154.298
 20
209.707
 10
154.248
 20
209.75
 10
154.205
 20
209.8
 10
154.169
 20
209.854
 10
154.14
 20
209.913
 10
154.119
 20
209.975
 10
154.106
 20
210.039
 10
154.102
 20
210.104
 10
154.106
 20
210.169
 10
154.119
 20
210.233
 10
154.14
 20
210.295
 10
154.169
 20
210.354
 10
154.205
 20
210.408
 10
154.248
 20
210.458
 10
154.298
 20
210.501
 10
154.352
 20
210.537
 10
154.411
 20
210.566
 10
154.473
 20
210.587
 10
154.537
 20
210.6
 10
154.602
 20
210.604
 10
154.667
 20
210.6
 10
154.731
 20
210.587
 10
154.793
 20
210.566
 10
154.852
 20
210.537
 10
154.906
 20
210.501
 10
154.956
 20
210.458
 10
154.999
 20
210.408
 10
155.035
 20
210.354
 10
155.064
 20
210.295
 10
155.085
 20
210.233
 10
155.098
 20
210.169
 97
0
 75
0
 76
1
 98
0
  0
HATCH
  5
48
330
17
100
AcDbEntity
  8
RASTER
 62
7
100
AcDbHatch
 10
0.0
 20
0.0
 30
0.0
210
0.0
220
0.0
230
1.0
  2
SOLID
 70
1
 71
0
 91
1
 92
3
 72
0
 73
1
 93
48
 10
182.903
 20
210.104
 10
182.899
 20
210.039
 10
182.886
 20
209.975
 10
182.865
 20
209.913
 10
182.836
 20
209.854
 10
182.8
 20
209.8
 10
182.757
 20
209.75
 10
182.707
 20
209.707
 10
182.653
 20
209.671
 10
182.594
 20
209.642
 10
182.532
 20
209.621
 10
182.468
 20
209.608
 10
182.403
 20
209.604
 10
182.338
 20
209.608
 10
182.274
 20
209.621
 10
182.212
 20
209.642
 10
182.153
 20
209.671
 10
182.099
 20
209.707
 10
182.049
 20
209.75
 10
182.006
 20
209.8
 10
181.97
 20
209.854
 10
181.941
 20
209.913
 10
181.92
 20
209.975
 10
181.907
 20
210.039
 10
181.903
 20
210.104
 10
181.907
 20
210.169
 10
181.92
 20
210.233
 10
181.941
 20
210.295
 10
181.97
 20
210.354
 10
182.006
 20
210.408
 10
182.049
 20
210.458
 10
182.099
 20
210.501
 10
182.153
 20
210.537
 10
182.212
 20
210.566
 10
182.274
 20
210.587
 10
182.338
 20
210.6
 10
182.403
 20
210.604
 10
182.468
 20
210.6
 10
182.532
 20
210.587
 10
182.594
 20
210.566
 10
182.653
 20
210.537
 10
182.707
 20
210.501
 10
182.757
 20
210.458
 10
182.8
 20
210.408
 10
182.836
 20
210.354
 10
182.865
 20
210.295
 10
182.886
 20
210.233
 10
182.899
 20
210.169
 97
0
 75
0
 76
1
 98
0
  0
LWPOLYLINE
  5
49
330
17
100
AcDbEntity
  8
CUT
100
AcDbPolyline
 90
24
 70
1
 10
198.563
 20
216.444
 10
239.644
 20
216.444
 10
239.644
 20
214.044
 10
242.444
 20
214.044
 10
242.444
 20
211.564
 10
239.644
 20
211.564
 10
239.644
 20
209.164
 10
233.787
 20
209.164
 10
233.787
 20
206.364
 10
227.849
 20
206.364
 10
227.849
 20
209.164
 10
222.072
 20
209.164
 10
222.072
 20
206.364
 10
216.135
 20
206.364
 10
216.135
 20
209.164
 10
210.358
 20
209.164
 10
210.358
 20
206.364
 10
204.42
 20
206.364
 10
204.42
 20
209.164
 10
198.563
 20
209.164
 10
198.563
 20
211.564
 10
195.763
 20
211.564
 10
195.763
 20
214.044
 10
198.563
 20
214.044
  0
LWPOLYLINE
  5
4A
330
17
100
AcDbEntity
  8
CUT
100
AcDbPolyline
 90
4
 70
1
 10
203.643
 20
213.864
 10
234.564
 20
213.864
 10
234.564
 20
211.744
 10
203.643
 20
211.744
  0
HATCH
  5
4B
330
17
100
AcDbEntity
  8
RASTER
 62
7
100
AcDbHatch
 10
0.0
 20
0.0
 30
0.0
210
0.0
220
0.0
230
1.0
  2
SOLID
 70
1
 71
0
 91
1
 92
3
 72
0
 73
1
 93
4
 10
199.203
 20
216.004
 10
203.003
 20
216.004
 10
203.003
 20
209.604
 10
199.203
 20
209.604
 97
0
 75
0
 76
1
 98
0
  0
HATCH
  5
4C
330
17
100
AcDbEntity
  8
RASTER
 62
7
100
AcDbHatch
 10
0.0
 20
0.0
 30
0.0
210
0.0
220
0.0
230
1.0
  2
SOLID
 70
1
 71
0
 91
1
 92
3
 72
0
 73
1
 93
4
 10
235.204
 20
216.004
 10
239.004
 20
216.004
 10
239.004
 20
209.604
 10
235.204
 20
209.604
 97
0
 75
0
 76
1
 98
0
  0
HATCH
  5
4D
330
17
100
AcDbEntity
  8
RASTER
 62
7
100
AcDbHatch
 10
0.0
 20
0.0
 30
0.0
210
0.0
220
0.0
230
1.0
  2
SOLID
 70
1
 71
0
 91
1
 92
3
 72
0
 73
1
 93
48
 10
205.703
 20
215.504
 10
205.699
 20
215.439
 10
205.686
 20
215.375
 10
205.665
 20
215.313
 10
205.636
 20
215.254
 10
205.6
 20
215.2
 10
205.557
 20
215.15
 10
205.507
 20
215.107
 10
205.453
 20
215.071
 10
205.394
 20
215.042
 10
205.332
 20
215.021
 10
205.268
 20
215.008
 10
205.203
 20
215.004
 10
205.138
 20
215.008
 10
205.074
 20
215.021
 10
205.012
 20
215.042
 10
204.953
 20
215.071
 10
204.899
 20
215.107
 10
204.849
 20
215.15
 10
204.806
 20
215.2
 10
204.77
 20
215.254
 10
204.741
 20
215.313
 10
204.72
 20
215.375
 10
204.707
 20
215.439
 10
204.703
 20
215.504
 10
204.707
 20
215.569
 10
204.72
 20
215.633
 10
204.741
 20
215.695
 10
204.77
 20
215.754
 10
204.806
 20
215.808
 10
204.849
 20
215.858
 10
204.899
 20
215.901
 10
204.953
 20
215.937
 10
205.012
 20
215.966
 10
205.074
 20
215.987
 10
205.138
 20
216.0
 10
205.203
 20
216.004
 10
205.268
 20
216.0
 10
205.332
 20
215.987
 10
205.394
 20
215.966
 10
205.453
 20
215.937
 10
205.507
 20
215.901
 10
205.557
 20
215.858
 10
205.6
 20
215.808
 10
205.636
 20
215.754
 10
205.665
 20
215.695
 10
205.686
 20
215.633
 10
205.699
 20
215.569
 97
0
 75
0
 76
1
 98
0
  0
HATCH
  5
4E
330
17
100
AcDbEntity
  8
RASTER
 62
7
100
AcDbHatch
 10
0.0
 20
0.0
 30
0.0
210
0.0
220
0.0
230
1.0
  2
SOLID
 70
1
 71
0
 91
1
 92
3
 72
0
 73
1
 93
48
 10
233.504
 20
215.504
 10
233.5
 20
215.439
 10
233.487
 20
215.375
 10
233.466
 20
215.313
 10
233.437
 20
215.254
 10
233.401
 20
215.2
 10
233.358
 20
215.15
 10
233.308
 20
215.107
 10
233.254
 20
215.071
 10
233.195
 20
215.042
 10
233.133
 20
215.021
 10
233.069
 20
215.008
 10
233.004
 20
215.004
 10
232.939
 20
215.008
 10
232.875
 20
215.021
 10
232.813
 20
215.042
 10
232.754
 20
215.071
 10
232.7
 20
215.107
 10
232.65
 20
215.15
 10
232.607
 20
215.2
 10
232.571
 20
215.254
 10
232.542
 20
215.313
 10
232.521
 20
215.375
 10
232.508
 20
215.439
 10
232.504
 20
215.504
 10
232.508
 20
215.569
 10
232.521
 20
215.633
 10
232.542
 20
215.695
 10
232.571
 20
215.754
 10
232.607
 20
215.808
 10
232.65
 20
215.858
 10
232.7
 20
215.901
 10
232.754
 20
215.937
 10
232.813
 20
215.966
 10
232.875
 20
215.987
 10
232.939
 20
216.0
 10
233.004
 20
216.004
 10
233.069
 20
216.0
 10
233.133
 20
215.987
 10
233.195
 20
215.966
 10
233.254
 20
215.937
 10
233.308
 20
215.901
 10
233.358
 20
215.858
 10
233.401
 20
215.808
 10
233.437
 20
215.754
 10
233.466
 20
215.695
 10
233.487
 20
215.633
 10
233.5
 20
215.569
 97
0
 75
0
 76
1
 98
0
  0
HATCH
  5
4F
330
17
100
AcDbEntity
  8
RASTER
 62
7
100
AcDbHatch
 10
0.0
 20
0.0
 30
0.0
210
0.0
220
0.0
230
1.0
  2
SOLID
 70
1
 71
0
 91
1
 92
3
 72
0
 73
1
 93
48
 10
205.703
 20
210.104
 10
205.699
 20
210.039
 10
205.686
 20
209.975
 10
205.665
 20
209.913
 10
205.636
 20
209.854
 10
205.6
 20
209.8
 10
205.557
 20
209.75
 10
205.507
 20
209.707
 10
205.453
 20
209.671
 10
205.394
 20
209.642
 10
205.332
 20
209.621
 10
205.268
 20
209.608
 10
205.203
 20
209.604
 10
205.138
 20
209.608
 10
205.074
 20
209.621
 10
205.012
 20
209.642
 10
204.953
 20
209.671
 10
204.899
 20
209.707
 10
204.849
 20
209.75
 10
204.806
 20
209.8
 10
204.77
 20
209.854
 10
204.741
 20
209.913
 10
204.72
 20
209.975
 10
204.707
 20
210.039
 10
204.703
 20
210.104
 10
204.707
 20
210.169
 10
204.72
 20
210.233
 10
204.741
 20
210.295
 10
204.77
 20
210.354
 10
204.806
 20
210.408
 10
204.849
 20
210.458
 10
204.899
 20
210.501
 10
204.953
 20
210.537
 10
205.012
 20
210.566
 10
205.074
 20
210.587
 10
205.138
 20
210.6
 10
205.203
 20
210.604
 10
205.268
 20
210.6
 10
205.332
 20
210.587
 10
205.394
 20
210.566
 10
205.453
 20
210.537
 10
205.507
 20
210.501
 10
205.557
 20
210.458
 10
205.6
 20
210.408
 10
205.636
 20
210.354
 10
205.665
 20
210.295
 10
205.686
 20
210.233
 10
205.699
 20
210.169
 97
0
 75
0
 76
1
 98
0
  0
HATCH
  5
50
330
17
100
AcDbEntity
  8
RASTER
 62
7
100
AcDbHatch
 10
0.0
 20
0.0
 30
0.0
210
0.0
220
0.0
230
1.0
  2
SOLID
 70
1
 71
0
 91
1
 92
3
 72
0
 73
1
 93
48
 10
233.504
 20
210.104
 10
233.5
 20
210.039
 10
233.487
 20
209.975
 10
233.466
 20
209.913
 10
233.437
 20
209.854
 10
233.401
 20
209.8
 10
233.358
 20
209.75
 10
233.308
 20
209.707
 10
233.254
 20
209.671
 10
233.195
 20
209.642
 10
233.133
 20
209.621
 10
233.069
 20
209.608
 10
233.004
 20
209.604
 10
232.939
 20
209.608
 10
232.875
 20
209.621
 10
232.813
 20
209.642
 10
232.754
 20
209.671
 10
232.7
 20
209.707
 10
232.65
 20
209.75
 10
232.607
 20
209.8
 10
232.571
 20
209.854
 10
232.542
 20
209.913
 10
232.521
 20
209.975
 10
232.508
 20
210.039
 10
232.504
 20
210.104
 10
232.508
 20
210.169
 10
232.521
 20
210.233
 10
232.542
 20
210.295
 10
232.571
 20
210.354
 10
232.607
 20
210.408
 10
232.65
 20
210.458
 10
232.7
 20
210.501
 10
232.754
 20
210.537
 10
232.813
 20
210.566
 10
232.875
 20
210.587
 10
232.939
 20
210.6
 10
233.004
 20
210.604
 10
233.069
 20
210.6
 10
233.133
 20
210.587
 10
233.195
 20
210.566
 10
233.254
 20
210.537
 10
233.308
 20
210.501
 10
233.358
 20
210.458
 10
233.401
 20
210.408
 10
233.437
 20
210.354
 10
233.466
 20
210.295
 10
233.487
 20
210.233
 10
233.5
 20
210.169
 97
0
 75
0
 76
1
 98
0
  0
LWPOLYLINE
  5
51
330
17
100
AcDbEntity
  8
CUT
100
AcDbPolyline
 90
76
 70
1
 10
3.96
 20
202.444
 10
6.8
 20
202.444
 10
12.386
 20
202.444
 10
12.386
 20
199.644
 10
17.851
 20
199.644
 10
17.851
 20
202.444
 10
23.477
 20
202.444
 10
23.477
 20
199.644
 10
28.942
 20
199.644
 10
28.942
 20
202.444
 10
34.568
 20
202.444
 10
34.568
 20
199.644
 10
40.033
 20
199.644
 10
40.033
 20
202.444
 10
45.659
 20
202.444
 10
45.659
 20
199.644
 10
51.124
 20
199.644
 10
51.124
 20
202.444
 10
56.75
 20
202.444
 10
56.75
 20
199.644
 10
62.215
 20
199.644
 10
62.215
 20
202.444
 10
67.801
 20
202.444
 10
70.641
 20
202.444
 10
70.641
 20
199.604
 10
70.641
 20
193.707
 10
67.841
 20
193.707
 10
67.841
 20
187.929
 10
70.641
 20
187.929
 10
70.641
 20
181.992
 10
67.841
 20
181.992
 10
67.841
 20
176.215
 10
70.641
 20
176.215
 10
70.641
 20
170.278
 10
67.841
 20
170.278
 10
67.841
 20
164.5
 10
70.641
 20
164.5
 10
70.641
 20
158.603
 10
70.641
 20
155.763
 10
67.801
 20
155.763
 10
62.215
 20
155.763
 10
62.215
 20
158.563
 10
56.75
 20
158.563
 10
56.75
 20
155.763
 10
51.124
 20
155.763
 10
51.124
 20
158.563
 10
45.659
 20
158.563
 10
45.659
 20
155.763
 10
40.033
 20
155.763
 10
40.033
 20
158.563
 10
34.568
 20
158.563
 10
34.568
 20
155.763
 10
28.942
 20
155.763
 10
28.942
 20
158.563
 10
23.477
 20
158.563
 10
23.477
 20
155.763
 10
17.851
 20
155.763
 10
17.851
 20
158.563
 10
12.386
 20
158.563
 10
12.386
 20
155.763
 10
6.8
 20
155.763
 10
3.96
 20
155.763
 10
3.96
 20
158.603
 10
3.96
 20
164.5
 10
6.76
 20
164.5
 10
6.76
 20
170.278
 10
3.96
 20
170.278
 10
3.96
 20
176.215
 10
6.76
 20
176.215
 10
6.76
 20
181.992
 10
3.96
 20
181.992
 10
3.96
 20
187.929
 10
6.76
 20
187.929
 10
6.76
 20
193.707
 10
3.96
 20
193.707
 10
3.96
 20
199.604
  0
LWPOLYLINE
  5
52
330
17
100
AcDbEntity
  8
CUT
100
AcDbPolyline
 90
36
 70
1
 10
77.401
 20
202.444
 10
138.402
 20
202.444
 10
141.242
 20
202.444
 10
141.242
 20
199.964
 10
138.442
 20
199.964
 10
138.442
 20
197.644
 10
141.242
 20
197.644
 10
141.242
 20
195.164
 10
138.402
 20
195.164
 10
132.896
 20
195.164
 10
132.896
 20
192.364
 10
127.271
 20
192.364
 10
127.271
 20
195.164
 10
121.805
 20
195.164
 10
121.805
 20
192.364
 10
116.18
 20
192.364
 10
116.18
 20
195.164
 10
110.714
 20
195.164
 10
110.714
 20
192.364
 10
105.089
 20
192.364
 10
105.089
 20
195.164
 10
99.623
 20
195.164
 10
99.623
 20
192.364
 10
93.998
 20
192.364
 10
93.998
 20
195.164
 10
88.532
 20
195.164
 10
88.532
 20
192.364
 10
82.907
 20
192.364
 10
82.907
 20
195.164
 10
77.401
 20
195.164
 10
74.561
 20
195.164
 10
74.561
 20
197.644
 10
77.361
 20
197.644
 10
77.361
 20
199.964
 10
74.561
 20
199.964
 10
74.561
 20
202.444
  0
LWPOLYLINE
  5
53
330
17
100
AcDbEntity
  8
CUT
100
AcDbPolyline
 90
4
 70
1
 10
82.441
 20
199.864
 10
133.362
 20
199.864
 10
133.362
 20
197.744
 10
82.441
 20
197.744
  0
HATCH
  5
54
330
17
100
AcDbEntity
  8
RASTER
 62
7
100
AcDbHatch
 10
0.0
 20
0.0
 30
0.0
210
0.0
220
0.0
230
1.0
  2
SOLID
 70
1
 71
0
 91
1
 92
3
 72
0
 73
1
 93
4
 10
78.001
 20
202.004
 10
81.801
 20
202.004
 10
81.801
 20
195.604
 10
78.001
 20
195.604
 97
0
 75
0
 76
1
 98
0
  0
HATCH
  5
55
330
17
100
AcDbEntity
  8
RASTER
 62
7
100
AcDbHatch
 10
0.0
 20
0.0
 30
0.0
210
0.0
220
0.0
230
1.0
  2
SOLID
 70
1
 71
0
 91
1
 92
3
 72
0
 73
1
 93
4
 10
134.002
 20
202.004
 10
137.802
 20
202.004
 10
137.802
 20
195.604
 10
134.002
 20
195.604
 97
0
 75
0
 76
1
 98
0
  0
HATCH
  5
56
330
17
100
AcDbEntity
  8
RASTER
 62
7
100
AcDbHatch
 10
0.0
 20
0.0
 30
0.0
210
0.0
220
0.0
230
1.0
  2
SOLID
 70
1
 71
0
 91
1
 92
3
 72
0
 73
1
 93
48
 10
84.501
 20
201.504
 10
84.497
 20
201.439
 10
84.484
 20
201.375
 10
84.463
 20
201.313
 10
84.434
 20
201.254
 10
84.398
 20
201.2
 10
84.355
 20
201.15
 10
84.305
 20
201.107
 10
84.251
 20
201.071
 10
84.192
 20
201.042
 10
84.13
 20
201.021
 10
84.066
 20
201.008
 10
84.001
 20
201.004
 10
83.936
 20
201.008
 10
83.872
 20
201.021
 10
83.81
 20
201.042
 10
83.751
 20
201.071
 10
83.697
 20
201.107
 10
83.647
 20
201.15
 10
83.604
 20
201.2
 10
83.568
 20
201.254
 10
83.539
 20
201.313
 10
83.518
 20
201.375
 10
83.505
 20
201.439
 10
83.501
 20
201.504
 10
83.505
 20
201.569
 10
83.518
 20
201.633
 10
83.539
 20
201.695
 10
83.568
 20
201.754
 10
83.604
 20
201.808
 10
83.647
 20
201.858
 10
83.697
 20
201.901
 10
83.751
 20
201.937
 10
83.81
 20
201.966
 10
83.872
 20
201.987
 10
83.936
 20
202.0
 10
84.001
 20
202.004
 10
84.066
 20
202.0
 10
84.13
 20
201.987
 10
84.192
 20
201.966
 10
84.251
 20
201.937
 10
84.305
 20
201.901
 10
84.355
 20
201.858
 10
84.398
 20
201.808
 10
84.434
 20
201.754
 10
84.463
 20
201.695
 10
84.484
 20
201.633
 10
84.497
 20
201.569
 97
0
 75
0
 76
1
 98
0
  0
HATCH
  5
57
330
17
100
AcDbEntity
  8
RASTER
 62
7
100
AcDbHatch
 10
0.0
 20
0.0
 30
0.0
210
0.0
220
0.0
230
1.0
  2
SOLID
 70
1
 71
0
 91
1
 92
3
 72
0
 73
1
 93
48
 10
132.302
 20
201.504
 10
132.298
 20
201.439
 10
132.285
 20
201.375
 10
132.264
 20
201.313
 10
132.235
 20
201.254
 10
132.199
 20
201.2
 10
132.156
 20
201.15
 10
132.106
 20
201.107
 10
132.052
 20
201.071
 10
131.993
 20
201.042
 10
131.931
 20
201.021
 10
131.867
 20
201.008
 10
131.802
 20
201.004
 10
131.737
 20
201.008
 10
131.673
 20
201.021
 10
131.611
 20
201.042
 10
131.552
 20
201.071
 10
131.498
 20
201.107
 10
131.448
 20
201.15
 10
131.405
 20
201.2
 10
131.369
 20
201.254
 10
131.34
 20
201.313
 10
131.319
 20
201.375
 10
131.306
 20
201.439
 10
131.302
 20
201.504
 10
131.306
 20
201.569
 10
131.319
 20
201.633
 10
131.34
 20
201.695
 10
131.369
 20
201.754
 10
131.405
 20
201.808
 10
131.448
 20
201.858
 10
131.498
 20
201.901
 10
131.552
 20
201.937
 10
131.611
 20
201.966
 10
131.673
 20
201.987
 10
131.737
 20
202.0
 10
131.802
 20
202.004
 10
131.867
 20
202.0
 10
131.931
 20
201.987
 10
131.993
 20
201.966
 10
132.052
 20
201.937
 10
132.106
 20
201.901
 10
132.156
 20
201.858
 10
132.199
 20
201.808
 10
132.235
 20
201.754
 10
132.264
 20
201.695
 10
132.285
 20
201.633
 10
132.298
 20
201.569
 97
0
 75
0
 76
1
 98
0
  0
HATCH
  5
58
330
17
100
AcDbEntity
  8
RASTER
 62
7
100
AcDbHatch
 10
0.0
 20
0.0
 30
0.0
210
0.0
220
0.0
230
1.0
  2
SOLID
 70
1
 71
0
 91
1
 92
3
 72
0
 73
1
 93
48
 10
84.501
 20
196.104
 10
84.497
 20
196.039
 10
84.484
 20
195.975
 10
84.463
 20
195.913
 10
84.434
 20
195.854
 10
84.398
 20
195.8
 10
84.355
 20
195.75
 10
84.305
 20
195.707
 10
84.251
 20
195.671
 10
84.192
 20
195.642
 10
84.13
 20
195.621
 10
84.066
 20
195.608
 10
84.001
 20
195.604
 10
83.936
 20
195.608
 10
83.872
 20
195.621
 10
83.81
 20
195.642
 10
83.751
 20
195.671
 10
83.697
 20
195.707
 10
83.647
 20
195.75
 10
83.604
 20
195.8
 10
83.568
 20
195.854
 10
83.539
 20
195.913
 10
83.518
 20
195.975
 10
83.505
 20
196.039
 10
83.501
 20
196.104
 10
83.505
 20
196.169
 10
83.518
 20
196.233
 10
83.539
 20
196.295
 10
83.568
 20
196.354
 10
83.604
 20
196.408
 10
83.647
 20
196.458
 10
83.697
 20
196.501
 10
83.751
 20
196.537
 10
83.81
 20
196.566
 10
83.872
 20
196.587
 10
83.936
 20
196.6
 10
84.001
 20
196.604
 10
84.066
 20
196.6
 10
84.13
 20
196.587
 10
84.192
 20
196.566
 10
84.251
 20
196.537
 10
84.305
 20
196.501
 10
84.355
 20
196.458
 10
84.398
 20
196.408
 10
84.434
 20
196.354
 10
84.463
 20
196.295
 10
84.484
 20
196.233
 10
84.497
 20
196.169
 97
0
 75
0
 76
1
 98
0
  0
HATCH
  5
59
330
17
100
AcDbEntity
  8
RASTER
 62
7
100
AcDbHatch
 10
0.0
 20
0.0
 30
0.0
210
0.0
220
0.0
230
1.0
  2
SOLID
 70
1
 71
0
 91
1
 92
3
 72
0
 73
1
 93
48
 10
132.302
 20
196.104
 10
132.298
 20
196.039
 10
132.285
 20
195.975
 10
132.264
 20
195.913
 10
132.235
 20
195.854
 10
132.199
 20
195.8
 10
132.156
 20
195.75
 10
132.106
 20
195.707
 10
132.052
 20
195.671
 10
131.993
 20
195.642
 10
131.931
 20
195.621
 10
131.867
 20
195.608
 10
131.802
 20
195.604
 10
131.737
 20
195.608
 10
131.673
 20
195.621
 10
131.611
 20
195.642
 10
131.552
 20
195.671
 10
131.498
 20
195.707
 10
131.448
 20
195.75
 10
131.405
 20
195.8
 10
131.369
 20
195.854
 10
131.34
 20
195.913
 10
131.319
 20
195.975
 10
131.306
 20
196.039
 10
131.302
 20
196.104
 10
131.306
 20
196.169
 10
131.319
 20
196.233
 10
131.34
 20
196.295
 10
131.369
 20
196.354
 10
131.405
 20
196.408
 10
131.448
 20
196.458
 10
131.498
 20
196.501
 10
131.552
 20
196.537
 10
131.611
 20
196.566
 10
131.673
 20
196.587
 10
131.737
 20
196.6
 10
131.802
 20
196.604
 10
131.867
 20
196.6
 10
131.931
 20
196.587
 10
131.993
 20
196.566
 10
132.052
 20
196.537
 10
132.106
 20
196.501
 10
132.156
 20
196.458
 10
132.199
 20
196.408
 10
132.235
 20
196.354
 10
132.264
 20
196.295
 10
132.285
 20
196.233
 10
132.298
 20
196.169
 97
0
 75
0
 76
1
 98
0
  0
LWPOLYLINE
  5
5A
330
17
100
AcDbEntity
  8
CUT
100
AcDbPolyline
 90
36
 70
1
 10
148.002
 20
202.444
 10
209.003
 20
202.444
 10
211.843
 20
202.444
 10
211.843
 20
199.964
 10
209.043
 20
199.964
 10
209.043
 20
197.644
 10
211.843
 20
197.644
 10
211.843
 20
195.164
 10
209.003
 20
195.164
 10
203.497
 20
195.164
 10
203.497
 20
192.364
 10
197.872
 20
192.364
 10
197.872
 20
195.164
 10
192.406
 20
195.164
 10
192.406
 20
192.364
 10
186.781
 20
192.364
 10
186.781
 20
195.164
 10
181.315
 20
195.164
 10
181.315
 20
192.364
 10
175.69
 20
192.364
 10
175.69
 20
195.164
 10
170.224
 20
195.164
 10
170.224
 20
192.364
 10
164.599
 20
192.364
 10
164.599
 20
195.164
 10
159.133
 20
195.164
 10
159.133
 20
192.364
 10
153.508
 20
192.364
 10
153.508
 20
195.164
 10
148.002
 20
195.164
 10
145.162
 20
195.164
 10
145.162
 20
197.644
 10
147.962
 20
197.644
 10
147.962
 20
199.964
 10
145.162
 20
199.964
 10
145.162
 20
202.444
  0
LWPOLYLINE
  5
5B
330
17
100
AcDbEntity
  8
CUT
100
AcDbPolyline
 90
4
 70
1
 10
153.042
 20
199.864
 10
203.963
 20
199.864
 10
203.963
 20
197.744
 10
153.042
 20
197.744
  0
HATCH
  5
5C
330
17
100
AcDbEntity
  8
RASTER
 62
7
100
AcDbHatch
 10
0.0
 20
0.0
 30
0.0
210
0.0
220
0.0
230
1.0
  2
SOLID
 70
1
 71
0
 91
1
 92
3
 72
0
 73
1
 93
4
 10
148.602
 20
202.004
 10
152.402
 20
202.004
 10
152.402
 20
195.604
 10
148.602
 20
195.604
 97
0
 75
0
 76
1
 98
0
  0
HATCH
  5
5D
330
17
100
AcDbEntity
  8
RASTER
 62
7
100
AcDbHatch
 10
0.0
 20
0.0
 30
0.0
210
0.0
220
0.0
230
1.0
  2
SOLID
 70
1
 71
0
 91
1
 92
3
 72
0
 73
1
 93
4
 10
204.603
 20
202.004
 10
208.403
 20
202.004
 10
208.403
 20
195.604
 10
204.603
 20
195.604
 97
0
 75
0
 76
1
 98
0
  0
HATCH
  5
5E
330
17
100
AcDbEntity
  8
RASTER
 62
7
100
AcDbHatch
 10
0.0
 20
0.0
 30
0.0
210
0.0
220
0.0
230
1.0
  2
SOLID
 70
1
 71
0
 91
1
 92
3
 72
0
 73
1
 93
48
 10
155.102
 20
201.504
 10
155.098
 20
201.439
 10
155.085
 20
201.375
 10
155.064
 20
201.313
 10
155.035
 20
201.254
 10
154.999
 20
201.2
 10
154.956
 20
201.15
 10
154.906
 20
201.107
 10
154.852
 20
201.071
 10
154.793
 20
201.042
 10
154.731
 20
201.021
 10
154.667
 20
201.008
 10
154.602
 20
201.004
 10
154.537
 20
201.008
 10
154.473
 20
201.021
 10
154.411
 20
201.042
 10
154.352
 20
201.071
 10
154.298
 20
201.107
 10
154.248
 20
201.15
 10
154.205
 20
201.2
 10
154.169
 20
201.254
 10
154.14
 20
201.313
 10
154.119
 20
201.375
 10
154.106
 20
201.439
 10
154.102
 20
201.504
 10
154.106
 20
201.569
 10
154.119
 20
201.633
 10
154.14
 20
201.695
 10
154.169
 20
201.754
 10
154.205
 20
201.808
 10
154.248
 20
201.858
 10
154.298
 20
201.901
 10
154.352
 20
201.937
 10
154.411
 20
201.966
 10
154.473
 20
201.987
 10
154.537
 20
202.0
 10
154.602
 20
202.004
 10
154.667
 20
202.0
 10
154.731
 20
201.987
 10
154.793
 20
201.966
 10
154.852
 20
201.937
 10
154.906
 20
201.901
 10
154.956
 20
201.858
 10
154.999
 20
201.808
 10
155.035
 20
201.754
 10
155.064
 20
201.695
 10
155.085
 20
201.633
 10
155.098
 20
201.569
 97
0
 75
0
 76
1
 98
0
  0
HATCH
  5
5F
330
17
100
AcDbEntity
  8
RASTER
 62
7
100
AcDbHatch
 10
0.0
 20
0.0
 30
0.0
210
0.0
220
0.0
230
1.0
  2
SOLID
 70
1
 71
0
 91
1
 92
3
 72
0
 73
1
 93
48
 10
202.903
 20
201.504
 10
202.899
 20
201.439
 10
202.886
 20
201.375
 10
202.865
 20
201.313
 10
202.836
 20
201.254
 10
202.8
 20
201.2
 10
202.757
 20
201.15
 10
202.707
 20
201.107
 10
202.653
 20
201.071
 10
202.594
 20
201.042
 10
202.532
 20
201.021
 10
202.468
 20
201.008
 10
202.403
 20
201.004
 10
202.338
 20
201.008
 10
202.274
 20
201.021
 10
202.212
 20
201.042
 10
202.153
 20
201.071
 10
202.099
 20
201.107
 10
202.049
 20
201.15
 10
202.006
 20
201.2
 10
201.97
 20
201.254
 10
201.941
 20
201.313
 10
201.92
 20
201.375
 10
201.907
 20
201.439
 10
201.903
 20
201.504
 10
201.907
 20
201.569
 10
201.92
 20
201.633
 10
201.941
 20
201.695
 10
201.97
 20
201.754
 10
202.006
 20
201.808
 10
202.049
 20
201.858
 10
202.099
 20
201.901
 10
202.153
 20
201.937
 10
202.212
 20
201.966
 10
202.274
 20
201.987
 10
202.338
 20
202.0
 10
202.403
 20
202.004
 10
202.468
 20
202.0
 10
202.532
 20
201.987
 10
202.594
 20
201.966
 10
202.653
 20
201.937
 10
202.707
 20
201.901
 10
202.757
 20
201.858
 10
202.8
 20
201.808
 10
202.836
 20
201.754
 10
202.865
 20
201.695
 10
202.886
 20
201.633
 10
202.899
 20
201.569
 97
0
 75
0
 76
1
 98
0
  0
HATCH
  5
60
330
17
100
AcDbEntity
  8
RASTER
 62
7
100
AcDbHatch
 10
0.0
 20
0.0
 30
0.0
210
0.0
220
0.0
230
1.0
  2
SOLID
 70
1
 71
0
 91
1
 92
3
 72
0
 73
1
 93
48
 10
155.102
 20
196.104
 10
155.098
 20
196.039
 10
155.085
 20
195.975
 10
155.064
 20
195.913
 10
155.035
 20
195.854
 10
154.999
 20
195.8
 10
154.956
 20
195.75
 10
154.906
 20
195.707
 10
154.852
 20
195.671
 10
154.793
 20
195.642
 10
154.731
 20
195.621
 10
154.667
 20
195.608
 10
154.602
 20
195.604
 10
154.537
 20
195.608
 10
154.473
 20
195.621
 10
154.411
 20
195.642
 10
154.352
 20
195.671
 10
154.298
 20
195.707
 10
154.248
 20
195.75
 10
154.205
 20
195.8
 10
154.169
 20
195.854
 10
154.14
 20
195.913
 10
154.119
 20
195.975
 10
154.106
 20
196.039
 10
154.102
 20
196.104
 10
154.106
 20
196.169
 10
154.119
 20
196.233
 10
154.14
 20
196.295
 10
154.169
 20
196.354
 10
154.205
 20
196.408
 10
154.248
 20
196.458
 10
154.298
 20
196.501
 10
154.352
 20
196.537
 10
154.411
 20
196.566
 10
154.473
 20
196.587
 10
154.537
 20
196.6
 10
154.602
 20
196.604
 10
154.667
 20
196.6
 10
154.731
 20
196.587
 10
154.793
 20
196.566
 10
154.852
 20
196.537
 10
154.906
 20
196.501
 10
154.956
 20
196.458
 10
154.999
 20
196.408
 10
155.035
 20
196.354
 10
155.064
 20
196.295
 10
155.085
 20
196.233
 10
155.098
 20
196.169
 97
0
 75
0
 76
1
 98
0
  0
HATCH
  5
61
330
17
100
AcDbEntity
  8
RASTER
 62
7
100
AcDbHatch
 10
0.0
 20
0.0
 30
0.0
210
0.0
220
0.0
230
1.0
  2
SOLID
 70
1
 71
0
 91
1
 92
3
 72
0
 73
1
 93
48
 10
202.903
 20
196.104
 10
202.899
 20
196.039
 10
202.886
 20
195.975
 10
202.865
 20
195.913
 10
202.836
 20
195.854
 10
202.8
 20
195.8
 10
202.757
 20
195.75
 10
202.707
 20
195.707
 10
202.653
 20
195.671
 10
202.594
 20
195.642
 10
202.532
 20
195.621
 10
202.468
 20
195.608
 10
202.403
 20
195.604
 10
202.338
 20
195.608
 10
202.274
 20
195.621
 10
202.212
 20
195.642
 10
202.153
 20
195.671
 10
202.099
 20
195.707
 10
202.049
 20
195.75
 10
202.006
 20
195.8
 10
201.97
 20
195.854
 10
201.941
 20
195.913
 10
201.92
 20
195.975
 10
201.907
 20
196.039
 10
201.903
 20
196.104
 10
201.907
 20
196.169
 10
201.92
 20
196.233
 10
201.941
 20
196.295
 10
201.97
 20
196.354
 10
202.006
 20
196.408
 10
202.049
 20
196.458
 10
202.099
 20
196.501
 10
202.153
 20
196.537
 10
202.212
 20
196.566
 10
202.274
 20
196.587
 10
202.338
 20
196.6
 10
202.403
 20
196.604
 10
202.468
 20
196.6
 10
202.532
 20
196.587
 10
202.594
 20
196.566
 10
202.653
 20
196.537
 10
202.707
 20
196.501
 10
202.757
 20
196.458
 10
202.8
 20
196.408
 10
202.836
 20
196.354
 10
202.865
 20
196.295
 10
202.886
 20
196.233
 10
202.899
 20
196.169
 97
0
 75
0
 76
1
 98
0
  0
LWPOLYLINE
  5
62
330
17
100
AcDbEntity
  8
CUT
100
AcDbPolyline
 90
24
 70
1
 10
218.563
 20
202.444
 10
259.644
 20
202.444
 10
259.644
 20
200.044
 10
262.444
 20
200.044
 10
262.444
 20
197.564
 10
259.644
 20
197.564
 10
259.644
 20
195.164
 10
253.787
 20
195.164
 10
253.787
 20
192.364
 10
247.849
 20
192.364
 10
247.849
 20
195.164
 10
242.072
 20
195.164
 10
242.072
 20
192.364
 10
236.135
 20
192.364
 10
236.135
 20
195.164
 10
230.358
 20
195.164
 10
230.358
 20
192.364
 10
224.42
 20
192.364
 10
224.42
 20
195.164
 10
218.563
 20
195.164
 10
218.563
 20
197.564
 10
215.763
 20
197.564
 10
215.763
 20
200.044
 10
218.563
 20
200.044
  0
LWPOLYLINE
  5
63
330
17
100
AcDbEntity
  8
CUT
100
AcDbPolyline
 90
4
 70
1
 10
223.643
 20
199.864
 10
254.564
 20
199.864
 10
254.564
 20
197.744
 10
223.643
 20
197.744
  0
HATCH
  5
64
330
17
100
AcDbEntity
  8
RASTER
 62
7
100
AcDbHatch
 10
0.0
 20
0.0
 30
0.0
210
0.0
220
0.0
230
1.0
  2
SOLID
 70
1
 71
0
 91
1
 92
3
 72
0
 73
1
 93
4
 10
219.203
 20
202.004
 10
223.003
 20
202.004
 10
223.003
 20
195.604
 10
219.203
 20
195.604
 97
0
 75
0
 76
1
 98
0
  0
HATCH
  5
65
330
17
100
AcDbEntity
  8
RASTER
 62
7
100
AcDbHatch
 10
0.0
 20
0.0
 30
0.0
210
0.0
220
0.0
230
1.0
  2
SOLID
 70
1
 71
0
 91
1
 92
3
 72
0
 73
1
 93
4
 10
255.204
 20
202.004
 10
259.004
 20
202.004
 10
259.004
 20
195.604
 10
255.204
 20
195.604
 97
0
 75
0
 76
1
 98
0
  0
HATCH
  5
66
330
17
100
AcDbEntity
  8
RASTER
 62
7
100
AcDbHatch
 10
0.0
 20
0.0
 30
0.0
210
0.0
220
0.0
230
1.0
  2
SOLID
 70
1
 71
0
 91
1
 92
3
 72
0
 73
1
 93
48
 10
225.703
 20
201.504
 10
225.699
 20
201.439
 10
225.686
 20
201.375
 10
225.665
 20
201.313
 10
225.636
 20
201.254
 10
225.6
 20
201.2
 10
225.557
 20
201.15
 10
225.507
 20
201.107
 10
225.453
 20
201.071
 10
225.394
 20
201.042
 10
225.332
 20
201.021
 10
225.268
 20
201.008
 10
225.203
 20
201.004
 10
225.138
 20
201.008
 10
225.074
 20
201.021
 10
225.012
 20
201.042
 10
224.953
 20
201.071
 10
224.899
 20
201.107
 10
224.849
 20
201.15
 10
224.806
 20
201.2
 10
224.77
 20
201.254
 10
224.741
 20
201.313
 10
224.72
 20
201.375
 10
224.707
 20
201.439
 10
224.703
 20
201.504
 10
224.707
 20
201.569
 10
224.72
 20
201.633
 10
224.741
 20
201.695
 10
224.77
 20
201.754
 10
224.806
 20
201.808
 10
224.849
 20
201.858
 10
224.899
 20
201.901
 10
224.953
 20
201.937
 10
225.012
 20
201.966
 10
225.074
 20
201.987
 10
225.138
 20
202.0
 10
225.203
 20
202.004
 10
225.268
 20
202.0
 10
225.332
 20
201.987
 10
225.394
 20
201.966
 10
225.453
 20
201.937
 10
225.507
 20
201.901
 10
225.557
 20
201.858
 10
225.6
 20
201.808
 10
225.636
 20
201.754
 10
225.665
 20
201.695
 10
225.686
 20
201.633
 10
225.699
 20
201.569
 97
0
 75
0
 76
1
 98
0
  0
HATCH
  5
67
330
17
100
AcDbEntity
  8
RASTER
 62
7
100
AcDbHatch
 10
0.0
 20
0.0
 30
0.0
210
0.0
220
0.0
230
1.0
  2
SOLID
 70
1
 71
0
 91
1
 92
3
 72
0
 73
1
 93
48
 10
253.504
 20
201.504
 10
253.5
 20
201.439
 10
253.487
 20
201.375
 10
253.466
 20
201.313
 10
253.437
 20
201.254
 10
253.401
 20
201.2
 10
253.358
 20
201.15
 10
253.308
 20
201.107
 10
253.254
 20
201.071
 10
253.195
 20
201.042
 10
253.133
 20
201.021
 10
253.069
 20
201.008
 10
253.004
 20
201.004
 10
252.939
 20
201.008
 10
252.875
 20
201.021
 10
252.813
 20
201.042
 10
252.754
 20
201.071
 10
252.7
 20
201.107
 10
252.65
 20
201.15
 10
252.607
 20
201.2
 10
252.571
 20
201.254
 10
252.542
 20
201.313
 10
252.521
 20
201.375
 10
252.508
 20
201.439
 10
252.504
 20
201.504
 10
252.508
 20
201.569
 10
252.521
 20
201.633
 10
252.542
 20
201.695
 10
252.571
 20
201.754
 10
252.607
 20
201.808
 10
252.65
 20
201.858
 10
252.7
 20
201.901
 10
252.754
 20
201.937
 10
252.813
 20
201.966
 10
252.875
 20
201.987
 10
252.939
 20
202.0
 10
253.004
 20
202.004
 10
253.069
 20
202.0
 10
253.133
 20
201.987
 10
253.195
 20
201.966
 10
253.254
 20
201.937
 10
253.308
 20
201.901
 10
253.358
 20
201.858
 10
253.401
 20
201.808
 10
253.437
 20
201.754
 10
253.466
 20
201.695
 10
253.487
 20
201.633
 10
253.5
 20
201.569
 97
0
 75
0
 76
1
 98
0
  0
HATCH
  5
68
330
17
100
AcDbEntity
  8
RASTER
 62
7
100
AcDbHatch
 10
0.0
 20
0.0
 30
0.0
210
0.0
220
0.0
230
1.0
  2
SOLID
 70
1
 71
0
 91
1
 92
3
 72
0
 73
1
 93
48
 10
225.703
 20
196.104
 10
225.699
 20
196.039
 10
225.686
 20
195.975
 10
225.665
 20
195.913
 10
225.636
 20
195.854
 10
225.6
 20
195.8
 10
225.557
 20
195.75
 10
225.507
 20
195.707
 10
225.453
 20
195.671
 10
225.394
 20
195.642
 10
225.332
 20
195.621
 10
225.268
 20
195.608
 10
225.203
 20
195.604
 10
225.138
 20
195.608
 10
225.074
 20
195.621
 10
225.012
 20
195.642
 10
224.953
 20
195.671
 10
224.899
 20
195.707
 10
224.849
 20
195.75
 10
224.806
 20
195.8
 10
224.77
 20
195.854
 10
224.741
 20
195.913
 10
224.72
 20
195.975
 10
224.707
 20
196.039
 10
224.703
 20
196.104
 10
224.707
 20
196.169
 10
224.72
 20
196.233
 10
224.741
 20
196.295
 10
224.77
 20
196.354
 10
224.806
 20
196.408
 10
224.849
 20
196.458
 10
224.899
 20
196.501
 10
224.953
 20
196.537
 10
225.012
 20
196.566
 10
225.074
 20
196.587
 10
225.138
 20
196.6
 10
225.203
 20
196.604
 10
225.268
 20
196.6
 10
225.332
 20
196.587
 10
225.394
 20
196.566
 10
225.453
 20
196.537
 10
225.507
 20
196.501
 10
225.557
 20
196.458
 10
225.6
 20
196.408
 10
225.636
 20
196.354
 10
225.665
 20
196.295
 10
225.686
 20
196.233
 10
225.699
 20
196.169
 97
0
 75
0
 76
1
 98
0
  0
HATCH
  5
69
330
17
100
AcDbEntity
  8
RASTER
 62
7
100
AcDbHatch
 10
0.0
 20
0.0
 30
0.0
210
0.0
220
0.0
230
1.0
  2
SOLID
 70
1
 71
0
 91
1
 92
3
 72
0
 73
1
 93
48
 10
253.504
 20
196.104
 10
253.5
 20
196.039
 10
253.487
 20
195.975
 10
253.466
 20
195.913
 10
253.437
 20
195.854
 10
253.401
 20
195.8
 10
253.358
 20
195.75
 10
253.308
 20
195.707
 10
253.254
 20
195.671
 10
253.195
 20
195.642
 10
253.133
 20
195.621
 10
253.069
 20
195.608
 10
253.004
 20
195.604
 10
252.939
 20
195.608
 10
252.875
 20
195.621
 10
252.813
 20
195.642
 10
252.754
 20
195.671
 10
252.7
 20
195.707
 10
252.65
 20
195.75
 10
252.607
 20
195.8
 10
252.571
 20
195.854
 10
252.542
 20
195.913
 10
252.521
 20
195.975
 10
252.508
 20
196.039
 10
252.504
 20
196.104
 10
252.508
 20
196.169
 10
252.521
 20
196.233
 10
252.542
 20
196.295
 10
252.571
 20
196.354
 10
252.607
 20
196.408
 10
252.65
 20
196.458
 10
252.7
 20
196.501
 10
252.754
 20
196.537
 10
252.813
 20
196.566
 10
252.875
 20
196.587
 10
252.939
 20
196.6
 10
253.004
 20
196.604
 10
253.069
 20
196.6
 10
253.133
 20
196.587
 10
253.195
 20
196.566
 10
253.254
 20
196.537
 10
253.308
 20
196.501
 10
253.358
 20
196.458
 10
253.401
 20
196.408
 10
253.437
 20
196.354
 10
253.466
 20
196.295
 10
253.487
 20
196.233
 10
253.5
 20
196.169
 97
0
 75
0
 76
1
 98
0
  0
LWPOLYLINE
  5
6A
330
17
100
AcDbEntity
  8
CUT
100
AcDbPolyline
 90
24
 70
1
 10
6.76
 20
151.843
 10
47.841
 20
151.843
 10
47.841
 20
149.443
 10
50.641
 20
149.443
 10
50.641
 20
146.963
 10
47.841
 20
146.963
 10
47.841
 20
144.563
 10
41.984
 20
144.563
 10
41.984
 20
141.763
 10
36.046
 20
141.763
 10
36.046
 20
144.563
 10
30.269
 20
144.563
 10
30.269
 20
141.763
 10
24.332
 20
141.763
 10
24.332
 20
144.563
 10
18.555
 20
144.563
 10
18.555
 20
141.763
 10
12.617
 20
141.763
 10
12.617
 20
144.563
 10
6.76
 20
144.563
 10
6.76
 20
146.963
 10
3.96
 20
146.963
 10
3.96
 20
149.443
 10
6.76
 20
149.443
  0
LWPOLYLINE
  5
6B
330
17
100
AcDbEntity
  8
CUT
100
AcDbPolyline
 90
4
 70
1
 10
11.84
 20
149.263
 10
42.761
 20
149.263
 10
42.761
 20
147.143
 10
11.84
 20
147.143
  0
HATCH
  5
6C
330
17
100
AcDbEntity
  8
RASTER
 62
7
100
AcDbHatch
 10
0.0
 20
0.0
 30
0.0
210
0.0
220
0.0
230
1.0
  2
SOLID
 70
1
 71
0
 91
1
 92
3
 72
0
 73
1
 93
4
 10
7.4
 20
151.403
 10
11.2
 20
151.403
 10
11.2
 20
145.003
 10
7.4
 20
145.003
 97
0
 75
0
 76
1
 98
0
  0
HATCH
  5
6D
330
17
100
AcDbEntity
  8
RASTER
 62
7
100
AcDbHatch
 10
0.0
 20
0.0
 30
0.0
210
0.0
220
0.0
230
1.0
  2
SOLID
 70
1
 71
0
 91
1
 92
3
 72
0
 73
1
 93
4
 10
43.401
 20
151.403
 10
47.201
 20
151.403
 10
47.201
 20
145.003
 10
43.401
 20
145.003
 97
0
 75
0
 76
1
 98
0
  0
HATCH
  5
6E
330
17
100
AcDbEntity
  8
RASTER
 62
7
100
AcDbHatch
 10
0.0
 20
0.0
 30
0.0
210
0.0
220
0.0
230
1.0
  2
SOLID
 70
1
 71
0
 91
1
 92
3
 72
0
 73
1
 93
48
 10
13.9
 20
150.903
 10
13.896
 20
150.838
 10
13.883
 20
150.774
 10
13.862
 20
150.712
 10
13.833
 20
150.653
 10
13.797
 20
150.599
 10
13.754
 20
150.549
 10
13.704
 20
150.506
 10
13.65
 20
150.47
 10
13.591
 20
150.441
 10
13.529
 20
150.42
 10
13.465
 20
150.407
 10
13.4
 20
150.403
 10
13.335
 20
150.407
 10
13.271
 20
150.42
 10
13.209
 20
150.441
 10
13.15
 20
150.47
 10
13.096
 20
150.506
 10
13.046
 20
150.549
 10
13.003
 20
150.599
 10
12.967
 20
150.653
 10
12.938
 20
150.712
 10
12.917
 20
150.774
 10
12.904
 20
150.838
 10
12.9
 20
150.903
 10
12.904
 20
150.968
 10
12.917
 20
151.032
 10
12.938
 20
151.094
 10
12.967
 20
151.153
 10
13.003
 20
151.207
 10
13.046
 20
151.257
 10
13.096
 20
151.3
 10
13.15
 20
151.336
 10
13.209
 20
151.365
 10
13.271
 20
151.386
 10
13.335
 20
151.399
 10
13.4
 20
151.403
 10
13.465
 20
151.399
 10
13.529
 20
151.386
 10
13.591
 20
151.365
 10
13.65
 20
151.336
 10
13.704
 20
151.3
 10
13.754
 20
151.257
 10
13.797
 20
151.207
 10
13.833
 20
151.153
 10
13.862
 20
151.094
 10
13.883
 20
151.032
 10
13.896
 20
150.968
 97
0
 75
0
 76
1
 98
0
  0
HATCH
  5
6F
330
17
100
AcDbEntity
  8
RASTER
 62
7
100
AcDbHatch
 10
0.0
 20
0.0
 30
0.0
210
0.0
220
0.0
230
1.0
  2
SOLID
 70
1
 71
0
 91
1
 92
3
 72
0
 73
1
 93
48
 10
41.701
 20
150.903
 10
41.697
 20
150.838
 10
41.684
 20
150.774
 10
41.663
 20
150.712
 10
41.634
 20
150.653
 10
41.598
 20
150.599
 10
41.555
 20
150.549
 10
41.505
 20
150.506
 10
41.451
 20
150.47
 10
41.392
 20
150.441
 10
41.33
 20
150.42
 10
41.266
 20
150.407
 10
41.201
 20
150.403
 10
41.136
 20
150.407
 10
41.072
 20
150.42
 10
41.01
 20
150.441
 10
40.951
 20
150.47
 10
40.897
 20
150.506
 10
40.847
 20
150.549
 10
40.804
 20
150.599
 10
40.768
 20
150.653
 10
40.739
 20
150.712
 10
40.718
 20
150.774
 10
40.705
 20
150.838
 10
40.701
 20
150.903
 10
40.705
 20
150.968
 10
40.718
 20
151.032
 10
40.739
 20
151.094
 10
40.768
 20
151.153
 10
40.804
 20
151.207
 10
40.847
 20
151.257
 10
40.897
 20
151.3
 10
40.951
 20
151.336
 10
41.01
 20
151.365
 10
41.072
 20
151.386
 10
41.136
 20
151.399
 10
41.201
 20
151.403
 10
41.266
 20
151.399
 10
41.33
 20
151.386
 10
41.392
 20
151.365
 10
41.451
 20
151.336
 10
41.505
 20
151.3
 10
41.555
 20
151.257
 10
41.598
 20
151.207
 10
41.634
 20
151.153
 10
41.663
 20
151.094
 10
41.684
 20
151.032
 10
41.697
 20
150.968
 97
0
 75
0
 76
1
 98
0
  0
HATCH
  5
70
330
17
100
AcDbEntity
  8
RASTER
 62
7
100
AcDbHatch
 10
0.0
 20
0.0
 30
0.0
210
0.0
220
0.0
230
1.0
  2
SOLID
 70
1
 71
0
 91
1
 92
3
 72
0
 73
1
 93
48
 10
13.9
 20
145.503
 10
13.896
 20
145.438
 10
13.883
 20
145.374
 10
13.862
 20
145.312
 10
13.833
 20
145.253
 10
13.797
 20
145.199
 10
13.754
 20
145.149
 10
13.704
 20
145.106
 10
13.65
 20
145.07
 10
13.591
 20
145.041
 10
13.529
 20
145.02
 10
13.465
 20
145.007
 10
13.4
 20
145.003
 10
13.335
 20
145.007
 10
13.271
 20
145.02
 10
13.209
 20
145.041
 10
13.15
 20
145.07
 10
13.096
 20
145.106
 10
13.046
 20
145.149
 10
13.003
 20
145.199
 10
12.967
 20
145.253
 10
12.938
 20
145.312
 10
12.917
 20
145.374
 10
12.904
 20
145.438
 10
12.9
 20
145.503
 10
12.904
 20
145.568
 10
12.917
 20
145.632
 10
12.938
 20
145.694
 10
12.967
 20
145.753
 10
13.003
 20
145.807
 10
13.046
 20
145.857
 10
13.096
 20
145.9
 10
13.15
 20
145.936
 10
13.209
 20
145.965
 10
13.271
 20
145.986
 10
13.335
 20
145.999
 10
13.4
 20
146.003
 10
13.465
 20
145.999
 10
13.529
 20
145.986
 10
13.591
 20
145.965
 10
13.65
 20
145.936
 10
13.704
 20
145.9
 10
13.754
 20
145.857
 10
13.797
 20
145.807
 10
13.833
 20
145.753
 10
13.862
 20
145.694
 10
13.883
 20
145.632
 10
13.896
 20
145.568
 97
0
 75
0
 76
1
 98
0
  0
HATCH
  5
71
330
17
100
AcDbEntity
  8
RASTER
 62
7
100
AcDbHatch
 10
0.0
 20
0.0
 30
0.0
210
0.0
220
0.0
230
1.0
  2
SOLID
 70
1
 71
0
 91
1
 92
3
 72
0
 73
1
 93
48
 10
41.701
 20
145.503
 10
41.697
 20
145.438
 10
41.684
 20
145.374
 10
41.663
 20
145.312
 10
41.634
 20
145.253
 10
41.598
 20
145.199
 10
41.555
 20
145.149
 10
41.505
 20
145.106
 10
41.451
 20
145.07
 10
41.392
 20
145.041
 10
41.33
 20
145.02
 10
41.266
 20
145.007
 10
41.201
 20
145.003
 10
41.136
 20
145.007
 10
41.072
 20
145.02
 10
41.01
 20
145.041
 10
40.951
 20
145.07
 10
40.897
 20
145.106
 10
40.847
 20
145.149
 10
40.804
 20
145.199
 10
40.768
 20
145.253
 10
40.739
 20
145.312
 10
40.718
 20
145.374
 10
40.705
 20
145.438
 10
40.701
 20
145.503
 10
40.705
 20
145.568
 10
40.718
 20
145.632
 10
40.739
 20
145.694
 10
40.768
 20
145.753
 10
40.804
 20
145.807
 10
40.847
 20
145.857
 10
40.897
 20
145.9
 10
40.951
 20
145.936
 10
41.01
 20
145.965
 10
41.072
 20
145.986
 10
41.136
 20
145.999
 10
41.201
 20
146.003
 10
41.266
 20
145.999
 10
41.33
 20
145.986
 10
41.392
 20
145.965
 10
41.451
 20
145.936
 10
41.505
 20
145.9
 10
41.555
 20
145.857
 10
41.598
 20
145.807
 10
41.634
 20
145.753
 10
41.663
 20
145.694
 10
41.684
 20
145.632
 10
41.697
 20
145.568
 97
0
 75
0
 76
1
 98
0
  0
LWPOLYLINE
  5
72
330
17
100
AcDbEntity
  8
CUT
100
AcDbPolyline
 90
76
 70
1
 10
54.561
 20
151.843
 10
57.401
 20
151.843
 10
62.987
 20
151.843
 10
62.987
 20
149.043
 10
68.452
 20
149.043
 10
68.452
 20
151.843
 10
74.078
 20
151.843
 10
74.078
 20
149.043
 10
79.543
 20
149.043
 10
79.543
 20
151.843
 10
85.169
 20
151.843
 10
85.169
 20
149.043
 10
90.634
 20
149.043
 10
90.634
 20
151.843
 10
96.26
 20
151.843
 10
96.26
 20
149.043
 10
101.725
 20
149.043
 10
101.725
 20
151.843
 10
107.351
 20
151.843
 10
107.351
 20
149.043
 10
112.816
 20
149.043
 10
112.816
 20
151.843
 10
118.402
 20
151.843
 10
121.242
 20
151.843
 10
121.242
 20
149.003
 10
121.242
 20
143.106
 10
118.442
 20
143.106
 10
118.442
 20
137.328
 10
121.242
 20
137.328
 10
121.242
 20
131.391
 10
118.442
 20
131.391
 10
118.442
 20
125.614
 10
121.242
 20
125.614
 10
121.242
 20
119.677
 10
118.442
 20
119.677
 10
118.442
 20
113.899
 10
121.242
 20
113.899
 10
121.242
 20
108.002
 10
121.242
 20
105.162
 10
118.402
 20
105.162
 10
112.816
 20
105.162
 10
112.816
 20
107.962
 10
107.351
 20
107.962
 10
107.351
 20
105.162
 10
101.725
 20
105.162
 10
101.725
 20
107.962
 10
96.26
 20
107.962
 10
96.26
 20
105.162
 10
90.634
 20
105.162
 10
90.634
 20
107.962
 10
85.169
 20
107.962
 10
85.169
 20
105.162
 10
79.543
 20
105.162
 10
79.543
 20
107.962
 10
74.078
 20
107.962
 10
74.078
 20
105.162
 10
68.452
 20
105.162
 10
68.452
 20
107.962
 10
62.987
 20
107.962
 10
62.987
 20
105.162
 10
57.401
 20
105.162
 10
54.561
 20
105.162
 10
54.561
 20
108.002
 10
54.561
 20
113.899
 10
57.361
 20
113.899
 10
57.361
 20
119.677
 10
54.561
 20
119.677
 10
54.561
 20
125.614
 10
57.361
 20
125.614
 10
57.361
 20
131.391
 10
54.561
 20
131.391
 10
54.561
 20
137.328
 10
57.361
 20
137.328
 10
57.361
 20
143.106
 10
54.561
 20
143.106
 10
54.561
 20
149.003
  0
LWPOLYLINE
  5
73
330
17
100
AcDbEntity
  8
CUT
100
AcDbPolyline
 90
36
 70
1
 10
128.002
 20
151.843
 10
189.003
 20
151.843
 10
191.843
 20
151.843
 10
191.843
 20
149.363
 10
189.043
 20
149.363
 10
189.043
 20
147.043
 10
191.843
 20
147.043
 10
191.843
 20
144.563
 10
189.003
 20
144.563
 10
183.497
 20
144.563
 10
183.497
 20
141.763
 10
177.872
 20
141.763
 10
177.872
 20
144.563
 10
172.406
 20
144.563
 10
172.406
 20
141.763
 10
166.781
 20
141.763
 10
166.781
 20
144.563
 10
161.315
 20
144.563
 10
161.315
 20
141.763
 10
155.69
 20
141.763
 10
155.69
 20
144.563
 10
150.224
 20
144.563
 10
150.224
 20
141.763
 10
144.599
 20
141.763
 10
144.599
 20
144.563
 10
139.133
 20
144.563
 10
139.133
 20
141.763
 10
133.508
 20
141.763
 10
133.508
 20
144.563
 10
128.002
 20
144.563
 10
125.162
 20
144.563
 10
125.162
 20
147.043
 10
127.962
 20
147.043
 10
127.962
 20
149.363
 10
125.162
 20
149.363
 10
125.162
 20
151.843
  0
LWPOLYLINE
  5
74
330
17
100
AcDbEntity
  8
CUT
100
AcDbPolyline
 90
4
 70
1
 10
133.042
 20
149.263
 10
183.963
 20
149.263
 10
183.963
 20
147.143
 10
133.042
 20
147.143
  0
HATCH
  5
75
330
17
100
AcDbEntity
  8
RASTER
 62
7
100
AcDbHatch
 10
0.0
 20
0.0
 30
0.0
210
0.0
220
0.0
230
1.0
  2
SOLID
 70
1
 71
0
 91
1
 92
3
 72
0
 73
1
 93
4
 10
128.602
 20
151.403
 10
132.402
 20
151.403
 10
132.402
 20
145.003
 10
128.602
 20
145.003
 97
0
 75
0
 76
1
 98
0
  0
HATCH
  5
76
330
17
100
AcDbEntity
  8
RASTER
 62
7
100
AcDbHatch
 10
0.0
 20
0.0
 30
0.0
210
0.0
220
0.0
230
1.0
  2
SOLID
 70
1
 71
0
 91
1
 92
3
 72
0
 73
1
 93
4
 10
184.603
 20
151.403
 10
188.403
 20
151.403
 10
188.403
 20
145.003
 10
184.603
 20
145.003
 97
0
 75
0
 76
1
 98
0
  0
HATCH
  5
77
330
17
100
AcDbEntity
  8
RASTER
 62
7
100
AcDbHatch
 10
0.0
 20
0.0
 30
0.0
210
0.0
220
0.0
230
1.0
  2
SOLID
 70
1
 71
0
 91
1
 92
3
 72
0
 73
1
 93
48
 10
135.102
 20
150.903
 10
135.098
 20
150.838
 10
135.085
 20
150.774
 10
135.064
 20
150.712
 10
135.035
 20
150.653
 10
134.999
 20
150.599
 10
134.956
 20
150.549
 10
134.906
 20
150.506
 10
134.852
 20
150.47
 10
134.793
 20
150.441
 10
134.731
 20
150.42
 10
134.667
 20
150.407
 10
134.602
 20
150.403
 10
134.537
 20
150.407
 10
134.473
 20
150.42
 10
134.411
 20
150.441
 10
134.352
 20
150.47
 10
134.298
 20
150.506
 10
134.248
 20
150.549
 10
134.205
 20
150.599
 10
134.169
 20
150.653
 10
134.14
 20
150.712
 10
134.119
 20
150.774
 10
134.106
 20
150.838
 10
134.102
 20
150.903
 10
134.106
 20
150.968
 10
134.119
 20
151.032
 10
134.14
 20
151.094
 10
134.169
 20
151.153
 10
134.205
 20
151.207
 10
134.248
 20
151.257
 10
134.298
 20
151.3
 10
134.352
 20
151.336
 10
134.411
 20
151.365
 10
134.473
 20
151.386
 10
134.537
 20
151.399
 10
134.602
 20
151.403
 10
134.667
 20
151.399
 10
134.731
 20
151.386
 10
134.793
 20
151.365
 10
134.852
 20
151.336
 10
134.906
 20
151.3
 10
134.956
 20
151.257
 10
134.999
 20
151.207
 10
135.035
 20
151.153
 10
135.064
 20
151.094
 10
135.085
 20
151.032
 10
135.098
 20
150.968
 97
0
 75
0
 76
1
 98
0
  0
HATCH
  5
78
330
17
100
AcDbEntity
  8
RASTER
 62
7
100
AcDbHatch
 10
0.0
 20
0.0
 30
0.0
210
0.0
220
0.0
230
1.0
  2
SOLID
 70
1
 71
0
 91
1
 92
3
 72
0
 73
1
 93
48
 10
182.903
 20
150.903
 10
182.899
 20
150.838
 10
182.886
 20
150.774
 10
182.865
 20
150.712
 10
182.836
 20
150.653
 10
182.8
 20
150.599
 10
182.757
 20
150.549
 10
182.707
 20
150.506
 10
182.653
 20
150.47
 10
182.594
 20
150.441
 10
182.532
 20
150.42
 10
182.468
 20
150.407
 10
182.403
 20
150.403
 10
182.338
 20
150.407
 10
182.274
 20
150.42
 10
182.212
 20
150.441
 10
182.153
 20
150.47
 10
182.099
 20
150.506
 10
182.049
 20
150.549
 10
182.006
 20
150.599
 10
181.97
 20
150.653
 10
181.941
 20
150.712
 10
181.92
 20
150.774
 10
181.907
 20
150.838
 10
181.903
 20
150.903
 10
181.907
 20
150.968
 10
181.92
 20
151.032
 10
181.941
 20
151.094
 10
181.97
 20
151.153
 10
182.006
 20
151.207
 10
182.049
 20
151.257
 10
182.099
 20
151.3
 10
182.153
 20
151.336
 10
182.212
 20
151.365
 10
182.274
 20
151.386
 10
182.338
 20
151.399
 10
182.403
 20
151.403
 10
182.468
 20
151.399
 10
182.532
 20
151.386
 10
182.594
 20
151.365
 10
182.653
 20
151.336
 10
182.707
 20
151.3
 10
182.757
 20
151.257
 10
182.8
 20
151.207
 10
182.836
 20
151.153
 10
182.865
 20
151.094
 10
182.886
 20
151.032
 10
182.899
 20
150.968
 97
0
 75
0
 76
1
 98
0
  0
HATCH
  5
79
330
17
100
AcDbEntity
  8
RASTER
 62
7
100
AcDbHatch
 10
0.0
 20
0.0
 30
0.0
210
0.0
220
0.0
230
1.0
  2
SOLID
 70
1
 71
0
 91
1
 92
3
 72
0
 73
1
 93
48
 10
135.102
 20
145.503
 10
135.098
 20
145.438
 10
135.085
 20
145.374
 10
135.064
 20
145.312
 10
135.035
 20
145.253
 10
134.999
 20
145.199
 10
134.956
 20
145.149
 10
134.906
 20
145.106
 10
134.852
 20
145.07
 10
134.793
 20
145.041
 10
134.731
 20
145.02
 10
134.667
 20
145.007
 10
134.602
 20
145.003
 10
134.537
 20
145.007
 10
134.473
 20
145.02
 10
134.411
 20
145.041
 10
134.352
 20
145.07
 10
134.298
 20
145.106
 10
134.248
 20
145.149
 10
134.205
 20
145.199
 10
134.169
 20
145.253
 10
134.14
 20
145.312
 10
134.119
 20
145.374
 10
134.106
 20
145.438
 10
134.102
 20
145.503
 10
134.106
 20
145.568
 10
134.119
 20
145.632
 10
134.14
 20
145.694
 10
134.169
 20
145.753
 10
134.205
 20
145.807
 10
134.248
 20
145.857
 10
134.298
 20
145.9
 10
134.352
 20
145.936
 10
134.411
 20
145.965
 10
134.473
 20
145.986
 10
134.537
 20
145.999
 10
134.602
 20
146.003
 10
134.667
 20
145.999
 10
134.731
 20
145.986
 10
134.793
 20
145.965
 10
134.852
 20
145.936
 10
134.906
 20
145.9
 10
134.956
 20
145.857
 10
134.999
 20
145.807
 10
135.035
 20
145.753
 10
135.064
 20
145.694
 10
135.085
 20
145.632
 10
135.098
 20
145.568
 97
0
 75
0
 76
1
 98
0
  0
HATCH
  5
7A
330
17
100
AcDbEntity
  8
RASTER
 62
7
100
AcDbHatch
 10
0.0
 20
0.0
 30
0.0
210
0.0
220
0.0
230
1.0
  2
SOLID
 70
1
 71
0
 91
1
 92
3
 72
0
 73
1
 93
48
 10
182.903
 20
145.503
 10
182.899
 20
145.438
 10
182.886
 20
145.374
 10
182.865
 20
145.312
 10
182.836
 20
145.253
 10
182.8
 20
145.199
 10
182.757
 20
145.149
 10
182.707
 20
145.106
 10
182.653
 20
145.07
 10
182.594
 20
145.041
 10
182.532
 20
145.02
 10
182.468
 20
145.007
 10
182.403
 20
145.003
 10
182.338
 20
145.007
 10
182.274
 20
145.02
 10
182.212
 20
145.041
 10
182.153
 20
145.07
 10
182.099
 20
145.106
 10
182.049
 20
145.149
 10
182.006
 20
145.199
 10
181.97
 20
145.253
 10
181.941
 20
145.312
 10
181.92
 20
145.374
 10
181.907
 20
145.438
 10
181.903
 20
145.503
 10
181.907
 20
145.568
 10
181.92
 20
145.632
 10
181.941
 20
145.694
 10
181.97
 20
145.753
 10
182.006
 20
145.807
 10
182.049
 20
145.857
 10
182.099
 20
145.9
 10
182.153
 20
145.936
 10
182.212
 20
145.965
 10
182.274
 20
145.986
 10
182.338
 20
145.999
 10
182.403
 20
146.003
 10
182.468
 20
145.999
 10
182.532
 20
145.986
 10
182.594
 20
145.965
 10
182.653
 20
145.936
 10
182.707
 20
145.9
 10
182.757
 20
145.857
 10
182.8
 20
145.807
 10
182.836
 20
145.753
 10
182.865
 20
145.694
 10
182.886
 20
145.632
 10
182.899
 20
145.568
 97
0
 75
0
 76
1
 98
0
  0
LWPOLYLINE
  5
7B
330
17
100
AcDbEntity
  8
CUT
100
AcDbPolyline
 90
36
 70
1
 10
198.603
 20
151.843
 10
259.604
 20
151.843
 10
262.444
 20
151.843
 10
262.444
 20
149.363
 10
259.644
 20
149.363
 10
259.644
 20
147.043
 10
262.444
 20
147.043
 10
262.444
 20
144.563
 10
259.604
 20
144.563
 10
254.098
 20
144.563
 10
254.098
 20
141.763
 10
248.473
 20
141.763
 10
248.473
 20
144.563
 10
243.007
 20
144.563
 10
243.007
 20
141.763
 10
237.382
 20
141.763
 10
237.382
 20
144.563
 10
231.916
 20
144.563
 10
231.916
 20
141.763
 10
226.291
 20
141.763
 10
226.291
 20
144.563
 10
220.825
 20
144.563
 10
220.825
 20
141.763
 10
215.2
 20
141.763
 10
215.2
 20
144.563
 10
209.734
 20
144.563
 10
209.734
 20
141.763
 10
204.109
 20
141.763
 10
204.109
 20
144.563
 10
198.603
 20
144.563
 10
195.763
 20
144.563
 10
195.763
 20
147.043
 10
198.563
 20
147.043
 10
198.563
 20
149.363
 10
195.763
 20
149.363
 10
195.763
 20
151.843
  0
LWPOLYLINE
  5
7C
330
17
100
AcDbEntity
  8
CUT
100
AcDbPolyline
 90
4
 70
1
 10
203.643
 20
149.263
 10
254.564
 20
149.263
 10
254.564
 20
147.143
 10
203.643
 20
147.143
  0
HATCH
  5
7D
330
17
100
AcDbEntity
  8
RASTER
 62
7
100
AcDbHatch
 10
0.0
 20
0.0
 30
0.0
210
0.0
220
0.0
230
1.0
  2
SOLID
 70
1
 71
0
 91
1
 92
3
 72
0
 73
1
 93
4
 10
199.203
 20
151.403
 10
203.003
 20
151.403
 10
203.003
 20
145.003
 10
199.203
 20
145.003
 97
0
 75
0
 76
1
 98
0
  0
HATCH
  5
7E
330
17
100
AcDbEntity
  8
RASTER
 62
7
100
AcDbHatch
 10
0.0
 20
0.0
 30
0.0
210
0.0
220
0.0
230
1.0
  2
SOLID
 70
1
 71
0
 91
1
 92
3
 72
0
 73
1
 93
4
 10
255.204
 20
151.403
 10
259.004
 20
151.403
 10
259.004
 20
145.003
 10
255.204
 20
145.003
 97
0
 75
0
 76
1
 98
0
  0
HATCH
  5
7F
330
17
100
AcDbEntity
  8
RASTER
 62
7
100
AcDbHatch
 10
0.0
 20
0.0
 30
0.0
210
0.0
220
0.0
230
1.0
  2
SOLID
 70
1
 71
0
 91
1
 92
3
 72
0
 73
1
 93
48
 10
205.703
 20
150.903
 10
205.699
 20
150.838
 10
205.686
 20
150.774
 10
205.665
 20
150.712
 10
205.636
 20
150.653
 10
205.6
 20
150.599
 10
205.557
 20
150.549
 10
205.507
 20
150.506
 10
205.453
 20
150.47
 10
205.394
 20
150.441
 10
205.332
 20
150.42
 10
205.268
 20
150.407
 10
205.203
 20
150.403
 10
205.138
 20
150.407
 10
205.074
 20
150.42
 10
205.012
 20
150.441
 10
204.953
 20
150.47
 10
204.899
 20
150.506
 10
204.849
 20
150.549
 10
204.806
 20
150.599
 10
204.77
 20
150.653
 10
204.741
 20
150.712
 10
204.72
 20
150.774
 10
204.707
 20
150.838
 10
204.703
 20
150.903
 10
204.707
 20
150.968
 10
204.72
 20
151.032
 10
204.741
 20
151.094
 10
204.77
 20
151.153
 10
204.806
 20
151.207
 10
204.849
 20
151.257
 10
204.899
 20
151.3
 10
204.953
 20
151.336
 10
205.012
 20
151.365
 10
205.074
 20
151.386
 10
205.138
 20
151.399
 10
205.203
 20
151.403
 10
205.268
 20
151.399
 10
205.332
 20
151.386
 10
205.394
 20
151.365
 10
205.453
 20
151.336
 10
205.507
 20
151.3
 10
205.557
 20
151.257
 10
205.6
 20
151.207
 10
205.636
 20
151.153
 10
205.665
 20
151.094
 10
205.686
 20
151.032
 10
205.699
 20
150.968
 97
0
 75
0
 76
1
 98
0
  0
HATCH
  5
80
330
17
100
AcDbEntity
  8
RASTER
 62
7
100
AcDbHatch
 10
0.0
 20
0.0
 30
0.0
210
0.0
220
0.0
230
1.0
  2
SOLID
 70
1
 71
0
 91
1
 92
3
 72
0
 73
1
 93
48
 10
253.504
 20
150.903
 10
253.5
 20
150.838
 10
253.487
 20
150.774
 10
253.466
 20
150.712
 10
253.437
 20
150.653
 10
253.401
 20
150.599
 10
253.358
 20
150.549
 10
253.308
 20
150.506
 10
253.254
 20
150.47
 10
253.195
 20
150.441
 10
253.133
 20
150.42
 10
253.069
 20
150.407
 10
253.004
 20
150.403
 10
252.939
 20
150.407
 10
252.875
 20
150.42
 10
252.813
 20
150.441
 10
252.754
 20
150.47
 10
252.7
 20
150.506
 10
252.65
 20
150.549
 10
252.607
 20
150.599
 10
252.571
 20
150.653
 10
252.542
 20
150.712
 10
252.521
 20
150.774
 10
252.508
 20
150.838
 10
252.504
 20
150.903
 10
252.508
 20
150.968
 10
252.521
 20
151.032
 10
252.542
 20
151.094
 10
252.571
 20
151.153
 10
252.607
 20
151.207
 10
252.65
 20
151.257
 10
252.7
 20
151.3
 10
252.754
 20
151.336
 10
252.813
 20
151.365
 10
252.875
 20
151.386
 10
252.939
 20
151.399
 10
253.004
 20
151.403
 10
253.069
 20
151.399
 10
253.133
 20
151.386
 10
253.195
 20
151.365
 10
253.254
 20
151.336
 10
253.308
 20
151.3
 10
253.358
 20
151.257
 10
253.401
 20
151.207
 10
253.437
 20
151.153
 10
253.466
 20
151.094
 10
253.487
 20
151.032
 10
253.5
 20
150.968
 97
0
 75
0
 76
1
 98
0
  0
HATCH
  5
81
330
17
100
AcDbEntity
  8
RASTER
 62
7
100
AcDbHatch
 10
0.0
 20
0.0
 30
0.0
210
0.0
220
0.0
230
1.0
  2
SOLID
 70
1
 71
0
 91
1
 92
3
 72
0
 73
1
 93
48
 10
205.703
 20
145.503
 10
205.699
 20
145.438
 10
205.686
 20
145.374
 10
205.665
 20
145.312
 10
205.636
 20
145.253
 10
205.6
 20
145.199
 10
205.557
 20
145.149
 10
205.507
 20
145.106
 10
205.453
 20
145.07
 10
205.394
 20
145.041
 10
205.332
 20
145.02
 10
205.268
 20
145.007
 10
205.203
 20
145.003
 10
205.138
 20
145.007
 10
205.074
 20
145.02
 10
205.012
 20
145.041
 10
204.953
 20
145.07
 10
204.899
 20
145.106
 10
204.849
 20
145.149
 10
204.806
 20
145.199
 10
204.77
 20
145.253
 10
204.741
 20
145.312
 10
204.72
 20
145.374
 10
204.707
 20
145.438
 10
204.703
 20
145.503
 10
204.707
 20
145.568
 10
204.72
 20
145.632
 10
204.741
 20
145.694
 10
204.77
 20
145.753
 10
204.806
 20
145.807
 10
204.849
 20
145.857
 10
204.899
 20
145.9
 10
204.953
 20
145.936
 10
205.012
 20
145.965
 10
205.074
 20
145.986
 10
205.138
 20
145.999
 10
205.203
 20
146.003
 10
205.268
 20
145.999
 10
205.332
 20
145.986
 10
205.394
 20
145.965
 10
205.453
 20
145.936
 10
205.507
 20
145.9
 10
205.557
 20
145.857
 10
205.6
 20
145.807
 10
205.636
 20
145.753
 10
205.665
 20
145.694
 10
205.686
 20
145.632
 10
205.699
 20
145.568
 97
0
 75
0
 76
1
 98
0
  0
HATCH
  5
82
330
17
100
AcDbEntity
  8
RASTER
 62
7
100
AcDbHatch
 10
0.0
 20
0.0
 30
0.0
210
0.0
220
0.0
230
1.0
  2
SOLID
 70
1
 71
0
 91
1
 92
3
 72
0
 73
1
 93
48
 10
253.504
 20
145.503
 10
253.5
 20
145.438
 10
253.487
 20
145.374
 10
253.466
 20
145.312
 10
253.437
 20
145.253
 10
253.401
 20
145.199
 10
253.358
 20
145.149
 10
253.308
 20
145.106
 10
253.254
 20
145.07
 10
253.195
 20
145.041
 10
253.133
 20
145.02
 10
253.069
 20
145.007
 10
253.004
 20
145.003
 10
252.939
 20
145.007
 10
252.875
 20
145.02
 10
252.813
 20
145.041
 10
252.754
 20
145.07
 10
252.7
 20
145.106
 10
252.65
 20
145.149
 10
252.607
 20
145.199
 10
252.571
 20
145.253
 10
252.542
 20
145.312
 10
252.521
 20
145.374
 10
252.508
 20
145.438
 10
252.504
 20
145.503
 10
252.508
 20
145.568
 10
252.521
 20
145.632
 10
252.542
 20
145.694
 10
252.571
 20
145.753
 10
252.607
 20
145.807
 10
252.65
 20
145.857
 10
252.7
 20
145.9
 10
252.754
 20
145.936
 10
252.813
 20
145.965
 10
252.875
 20
145.986
 10
252.939
 20
145.999
 10
253.004
 20
146.003
 10
253.069
 20
145.999
 10
253.133
 20
145.986
 10
253.195
 20
145.965
 10
253.254
 20
145.936
 10
253.308
 20
145.9
 10
253.358
 20
145.857
 10
253.401
 20
145.807
 10
253.437
 20
145.753
 10
253.466
 20
145.694
 10
253.487
 20
145.632
 10
253.5
 20
145.568
 97
0
 75
0
 76
1
 98
0
  0
LWPOLYLINE
  5
83
330
17
100
AcDbEntity
  8
CUT
100
AcDbPolyline
 90
24
 70
1
 10
6.76
 20
101.242
 10
47.841
 20
101.242
 10
47.841
 20
98.842
 10
50.641
 20
98.842
 10
50.641
 20
96.362
 10
47.841
 20
96.362
 10
47.841
 20
93.962
 10
41.984
 20
93.962
 10
41.984
 20
91.162
 10
36.046
 20
91.162
 10
36.046
 20
93.962
 10
30.269
 20
93.962
 10
30.269
 20
91.162
 10
24.332
 20
91.162
 10
24.332
 20
93.962
 10
18.555
 20
93.962
 10
18.555
 20
91.162
 10
12.617
 20
91.162
 10
12.617
 20
93.962
 10
6.76
 20
93.962
 10
6.76
 20
96.362
 10
3.96
 20
96.362
 10
3.96
 20
98.842
 10
6.76
 20
98.842
  0
LWPOLYLINE
  5
84
330
17
100
AcDbEntity
  8
CUT
100
AcDbPolyline
 90
4
 70
1
 10
11.84
 20
98.662
 10
42.761
 20
98.662
 10
42.761
 20
96.542
 10
11.84
 20
96.542
  0
HATCH
  5
85
330
17
100
AcDbEntity
  8
RASTER
 62
7
100
AcDbHatch
 10
0.0
 20
0.0
 30
0.0
210
0.0
220
0.0
230
1.0
  2
SOLID
 70
1
 71
0
 91
1
 92
3
 72
0
 73
1
 93
4
 10
7.4
 20
100.802
 10
11.2
 20
100.802
 10
11.2
 20
94.402
 10
7.4
 20
94.402
 97
0
 75
0
 76
1
 98
0
  0
HATCH
  5
86
330
17
100
AcDbEntity
  8
RASTER
 62
7
100
AcDbHatch
 10
0.0
 20
0.0
 30
0.0
210
0.0
220
0.0
230
1.0
  2
SOLID
 70
1
 71
0
 91
1
 92
3
 72
0
 73
1
 93
4
 10
43.401
 20
100.802
 10
47.201
 20
100.802
 10
47.201
 20
94.402
 10
43.401
 20
94.402
 97
0
 75
0
 76
1
 98
0
  0
HATCH
  5
87
330
17
100
AcDbEntity
  8
RASTER
 62
7
100
AcDbHatch
 10
0.0
 20
0.0
 30
0.0
210
0.0
220
0.0
230
1.0
  2
SOLID
 70
1
 71
0
 91
1
 92
3
 72
0
 73
1
 93
48
 10
13.9
 20
100.302
 10
13.896
 20
100.237
 10
13.883
 20
100.173
 10
13.862
 20
100.111
 10
13.833
 20
100.052
 10
13.797
 20
99.998
 10
13.754
 20
99.948
 10
13.704
 20
99.905
 10
13.65
 20
99.869
 10
13.591
 20
99.84
 10
13.529
 20
99.819
 10
13.465
 20
99.806
 10
13.4
 20
99.802
 10
13.335
 20
99.806
 10
13.271
 20
99.819
 10
13.209
 20
99.84
 10
13.15
 20
99.869
 10
13.096
 20
99.905
 10
13.046
 20
99.948
 10
13.003
 20
99.998
 10
12.967
 20
100.052
 10
12.938
 20
100.111
 10
12.917
 20
100.173
 10
12.904
 20
100.237
 10
12.9
 20
100.302
 10
12.904
 20
100.367
 10
12.917
 20
100.431
 10
12.938
 20
100.493
 10
12.967
 20
100.552
 10
13.003
 20
100.606
 10
13.046
 20
100.656
 10
13.096
 20
100.699
 10
13.15
 20
100.735
 10
13.209
 20
100.764
 10
13.271
 20
100.785
 10
13.335
 20
100.798
 10
13.4
 20
100.802
 10
13.465
 20
100.798
 10
13.529
 20
100.785
 10
13.591
 20
100.764
 10
13.65
 20
100.735
 10
13.704
 20
100.699
 10
13.754
 20
100.656
 10
13.797
 20
100.606
 10
13.833
 20
100.552
 10
13.862
 20
100.493
 10
13.883
 20
100.431
 10
13.896
 20
100.367
 97
0
 75
0
 76
1
 98
0
  0
HATCH
  5
88
330
17
100
AcDbEntity
  8
RASTER
 62
7
100
AcDbHatch
 10
0.0
 20
0.0
 30
0.0
210
0.0
220
0.0
230
1.0
  2
SOLID
 70
1
 71
0
 91
1
 92
3
 72
0
 73
1
 93
48
 10
41.701
 20
100.302
 10
41.697
 20
100.237
 10
41.684
 20
100.173
 10
41.663
 20
100.111
 10
41.634
 20
100.052
 10
41.598
 20
99.998
 10
41.555
 20
99.948
 10
41.505
 20
99.905
 10
41.451
 20
99.869
 10
41.392
 20
99.84
 10
41.33
 20
99.819
 10
41.266
 20
99.806
 10
41.201
 20
99.802
 10
41.136
 20
99.806
 10
41.072
 20
99.819
 10
41.01
 20
99.84
 10
40.951
 20
99.869
 10
40.897
 20
99.905
 10
40.847
 20
99.948
 10
40.804
 20
99.998
 10
40.768
 20
100.052
 10
40.739
 20
100.111
 10
40.718
 20
100.173
 10
40.705
 20
100.237
 10
40.701
 20
100.302
 10
40.705
 20
100.367
 10
40.718
 20
100.431
 10
40.739
 20
100.493
 10
40.768
 20
100.552
 10
40.804
 20
100.606
 10
40.847
 20
100.656
 10
40.897
 20
100.699
 10
40.951
 20
100.735
 10
41.01
 20
100.764
 10
41.072
 20
100.785
 10
41.136
 20
100.798
 10
41.201
 20
100.802
 10
41.266
 20
100.798
 10
41.33
 20
100.785
 10
41.392
 20
100.764
 10
41.451
 20
100.735
 10
41.505
 20
100.699
 10
41.555
 20
100.656
 10
41.598
 20
100.606
 10
41.634
 20
100.552
 10
41.663
 20
100.493
 10
41.684
 20
100.431
 10
41.697
 20
100.367
 97
0
 75
0
 76
1
 98
0
  0
HATCH
  5
89
330
17
100
AcDbEntity
  8
RASTER
 62
7
100
AcDbHatch
 10
0.0
 20
0.0
 30
0.0
210
0.0
220
0.0
230
1.0
  2
SOLID
 70
1
 71
0
 91
1
 92
3
 72
0
 73
1
 93
48
 10
13.9
 20
94.902
 10
13.896
 20
94.837
 10
13.883
 20
94.773
 10
13.862
 20
94.711
 10
13.833
 20
94.652
 10
13.797
 20
94.598
 10
13.754
 20
94.548
 10
13.704
 20
94.505
 10
13.65
 20
94.469
 10
13.591
 20
94.44
 10
13.529
 20
94.419
 10
13.465
 20
94.406
 10
13.4
 20
94.402
 10
13.335
 20
94.406
 10
13.271
 20
94.419
 10
13.209
 20
94.44
 10
13.15
 20
94.469
 10
13.096
 20
94.505
 10
13.046
 20
94.548
 10
13.003
 20
94.598
 10
12.967
 20
94.652
 10
12.938
 20
94.711
 10
12.917
 20
94.773
 10
12.904
 20
94.837
 10
12.9
 20
94.902
 10
12.904
 20
94.967
 10
12.917
 20
95.031
 10
12.938
 20
95.093
 10
12.967
 20
95.152
 10
13.003
 20
95.206
 10
13.046
 20
95.256
 10
13.096
 20
95.299
 10
13.15
 20
95.335
 10
13.209
 20
95.364
 10
13.271
 20
95.385
 10
13.335
 20
95.398
 10
13.4
 20
95.402
 10
13.465
 20
95.398
 10
13.529
 20
95.385
 10
13.591
 20
95.364
 10
13.65
 20
95.335
 10
13.704
 20
95.299
 10
13.754
 20
95.256
 10
13.797
 20
95.206
 10
13.833
 20
95.152
 10
13.862
 20
95.093
 10
13.883
 20
95.031
 10
13.896
 20
94.967
 97
0
 75
0
 76
1
 98
0
  0
HATCH
  5
8A
330
17
100
AcDbEntity
  8
RASTER
 62
7
100
AcDbHatch
 10
0.0
 20
0.0
 30
0.0
210
0.0
220
0.0
230
1.0
  2
SOLID
 70
1
 71
0
 91
1
 92
3
 72
0
 73
1
 93
48
 10
41.701
 20
94.902
 10
41.697
 20
94.837
 10
41.684
 20
94.773
 10
41.663
 20
94.711
 10
41.634
 20
94.652
 10
41.598
 20
94.598
 10
41.555
 20
94.548
 10
41.505
 20
94.505
 10
41.451
 20
94.469
 10
41.392
 20
94.44
 10
41.33
 20
94.419
 10
41.266
 20
94.406
 10
41.201
 20
94.402
 10
41.136
 20
94.406
 10
41.072
 20
94.419
 10
41.01
 20
94.44
 10
40.951
 20
94.469
 10
40.897
 20
94.505
 10
40.847
 20
94.548
 10
40.804
 20
94.598
 10
40.768
 20
94.652
 10
40.739
 20
94.711
 10
40.718
 20
94.773
 10
40.705
 20
94.837
 10
40.701
 20
94.902
 10
40.705
 20
94.967
 10
40.718
 20
95.031
 10
40.739
 20
95.093
 10
40.768
 20
95.152
 10
40.804
 20
95.206
 10
40.847
 20
95.256
 10
40.897
 20
95.299
 10
40.951
 20
95.335
 10
41.01
 20
95.364
 10
41.072
 20
95.385
 10
41.136
 20
95.398
 10
41.201
 20
95.402
 10
41.266
 20
95.398
 10
41.33
 20
95.385
 10
41.392
 20
95.364
 10
41.451
 20
95.335
 10
41.505
 20
95.299
 10
41.555
 20
95.256
 10
41.598
 20
95.206
 10
41.634
 20
95.152
 10
41.663
 20
95.093
 10
41.684
 20
95.031
 10
41.697
 20
94.967
 97
0
 75
0
 76
1
 98
0
  0
LWPOLYLINE
  5
8B
330
17
100
AcDbEntity
  8
CUT
100
AcDbPolyline
 90
24
 70
1
 10
57.361
 20
101.242
 10
98.442
 20
101.242
 10
98.442
 20
98.842
 10
101.242
 20
98.842
 10
101.242
 20
96.362
 10
98.442
 20
96.362
 10
98.442
 20
93.962
 10
92.585
 20
93.962
 10
92.585
 20
91.162
 10
86.647
 20
91.162
 10
86.647
 20
93.962
 10
80.87
 20
93.962
 10
80.87
 20
91.162
 10
74.933
 20
91.162
 10
74.933
 20
93.962
 10
69.156
 20
93.962
 10
69.156
 20
91.162
 10
63.218
 20
91.162
 10
63.218
 20
93.962
 10
57.361
 20
93.962
 10
57.361
 20
96.362
 10
54.561
 20
96.362
 10
54.561
 20
98.842
 10
57.361
 20
98.842
  0
LWPOLYLINE
  5
8C
330
17
100
AcDbEntity
  8
CUT
100
AcDbPolyline
 90
4
 70
1
 10
62.441
 20
98.662
 10
93.362
 20
98.662
 10
93.362
 20
96.542
 10
62.441
 20
96.542
  0
HATCH
  5
8D
330
17
100
AcDbEntity
  8
RASTER
 62
7
100
AcDbHatch
 10
0.0
 20
0.0
 30
0.0
210
0.0
220
0.0
230
1.0
  2
SOLID
 70
1
 71
0
 91
1
 92
3
 72
0
 73
1
 93
4
 10
58.001
 20
100.802
 10
61.801
 20
100.802
 10
61.801
 20
94.402
 10
58.001
 20
94.402
 97
0
 75
0
 76
1
 98
0
  0
HATCH
  5
8E
330
17
100
AcDbEntity
  8
RASTER
 62
7
100
AcDbHatch
 10
0.0
 20
0.0
 30
0.0
210
0.0
220
0.0
230
1.0
  2
SOLID
 70
1
 71
0
 91
1
 92
3
 72
0
 73
1
 93
4
 10
94.002
 20
100.802
 10
97.802
 20
100.802
 10
97.802
 20
94.402
 10
94.002
 20
94.402
 97
0
 75
0
 76
1
 98
0
  0
HATCH
  5
8F
330
17
100
AcDbEntity
  8
RASTER
 62
7
100
AcDbHatch
 10
0.0
 20
0.0
 30
0.0
210
0.0
220
0.0
230
1.0
  2
SOLID
 70
1
 71
0
 91
1
 92
3
 72
0
 73
1
 93
48
 10
64.501
 20
100.302
 10
64.497
 20
100.237
 10
64.484
 20
100.173
 10
64.463
 20
100.111
 10
64.434
 20
100.052
 10
64.398
 20
99.998
 10
64.355
 20
99.948
 10
64.305
 20
99.905
 10
64.251
 20
99.869
 10
64.192
 20
99.84
 10
64.13
 20
99.819
 10
64.066
 20
99.806
 10
64.001
 20
99.802
 10
63.936
 20
99.806
 10
63.872
 20
99.819
 10
63.81
 20
99.84
 10
63.751
 20
99.869
 10
63.697
 20
99.905
 10
63.647
 20
99.948
 10
63.604
 20
99.998
 10
63.568
 20
100.052
 10
63.539
 20
100.111
 10
63.518
 20
100.173
 10
63.505
 20
100.237
 10
63.501
 20
100.302
 10
63.505
 20
100.367
 10
63.518
 20
100.431
 10
63.539
 20
100.493
 10
63.568
 20
100.552
 10
63.604
 20
100.606
 10
63.647
 20
100.656
 10
63.697
 20
100.699
 10
63.751
 20
100.735
 10
63.81
 20
100.764
 10
63.872
 20
100.785
 10
63.936
 20
100.798
 10
64.001
 20
100.802
 10
64.066
 20
100.798
 10
64.13
 20
100.785
 10
64.192
 20
100.764
 10
64.251
 20
100.735
 10
64.305
 20
100.699
 10
64.355
 20
100.656
 10
64.398
 20
100.606
 10
64.434
 20
100.552
 10
64.463
 20
100.493
 10
64.484
 20
100.431
 10
64.497
 20
100.367
 97
0
 75
0
 76
1
 98
0
  0
HATCH
  5
90
330
17
100
AcDbEntity
  8
RASTER
 62
7
100
AcDbHatch
 10
0.0
 20
0.0
 30
0.0
210
0.0
220
0.0
230
1.0
  2
SOLID
 70
1
 71
0
 91
1
 92
3
 72
0
 73
1
 93
48
 10
92.302
 20
100.302
 10
92.298
 20
100.237
 10
92.285
 20
100.173
 10
92.264
 20
100.111
 10
92.235
 20
100.052
 10
92.199
 20
99.998
 10
92.156
 20
99.948
 10
92.106
 20
99.905
 10
92.052
 20
99.869
 10
91.993
 20
99.84
 10
91.931
 20
99.819
 10
91.867
 20
99.806
 10
91.802
 20
99.802
 10
91.737
 20
99.806
 10
91.673
 20
99.819
 10
91.611
 20
99.84
 10
91.552
 20
99.869
 10
91.498
 20
99.905
 10
91.448
 20
99.948
 10
91.405
 20
99.998
 10
91.369
 20
100.052
 10
91.34
 20
100.111
 10
91.319
 20
100.173
 10
91.306
 20
100.237
 10
91.302
 20
100.302
 10
91.306
 20
100.367
 10
91.319
 20
100.431
 10
91.34
 20
100.493
 10
91.369
 20
100.552
 10
91.405
 20
100.606
 10
91.448
 20
100.656
 10
91.498
 20
100.699
 10
91.552
 20
100.735
 10
91.611
 20
100.764
 10
91.673
 20
100.785
 10
91.737
 20
100.798
 10
91.802
 20
100.802
 10
91.867
 20
100.798
 10
91.931
 20
100.785
 10
91.993
 20
100.764
 10
92.052
 20
100.735
 10
92.106
 20
100.699
 10
92.156
 20
100.656
 10
92.199
 20
100.606
 10
92.235
 20
100.552
 10
92.264
 20
100.493
 10
92.285
 20
100.431
 10
92.298
 20
100.367
 97
0
 75
0
 76
1
 98
0
  0
HATCH
  5
91
330
17
100
AcDbEntity
  8
RASTER
 62
7
100
AcDbHatch
 10
0.0
 20
0.0
 30
0.0
210
0.0
220
0.0
230
1.0
  2
SOLID
 70
1
 71
0
 91
1
 92
3
 72
0
 73
1
 93
48
 10
64.501
 20
94.902
 10
64.497
 20
94.837
 10
64.484
 20
94.773
 10
64.463
 20
94.711
 10
64.434
 20
94.652
 10
64.398
 20
94.598
 10
64.355
 20
94.548
 10
64.305
 20
94.505
 10
64.251
 20
94.469
 10
64.192
 20
94.44
 10
64.13
 20
94.419
 10
64.066
 20
94.406
 10
64.001
 20
94.402
 10
63.936
 20
94.406
 10
63.872
 20
94.419
 10
63.81
 20
94.44
 10
63.751
 20
94.469
 10
63.697
 20
94.505
 10
63.647
 20
94.548
 10
63.604
 20
94.598
 10
63.568
 20
94.652
 10
63.539
 20
94.711
 10
63.518
 20
94.773
 10
63.505
 20
94.837
 10
63.501
 20
94.902
 10
63.505
 20
94.967
 10
63.518
 20
95.031
 10
63.539
 20
95.093
 10
63.568
 20
95.152
 10
63.604
 20
95.206
 10
63.647
 20
95.256
 10
63.697
 20
95.299
 10
63.751
 20
95.335
 10
63.81
 20
95.364
 10
63.872
 20
95.385
 10
63.936
 20
95.398
 10
64.001
 20
95.402
 10
64.066
 20
95.398
 10
64.13
 20
95.385
 10
64.192
 20
95.364
 10
64.251
 20
95.335
 10
64.305
 20
95.299
 10
64.355
 20
95.256
 10
64.398
 20
95.206
 10
64.434
 20
95.152
 10
64.463
 20
95.093
 10
64.484
 20
95.031
 10
64.497
 20
94.967
 97
0
 75
0
 76
1
 98
0
  0
HATCH
  5
92
330
17
100
AcDbEntity
  8
RASTER
 62
7
100
AcDbHatch
 10
0.0
 20
0.0
 30
0.0
210
0.0
220
0.0
230
1.0
  2
SOLID
 70
1
 71
0
 91
1
 92
3
 72
0
 73
1
 93
48
 10
92.302
 20
94.902
 10
92.298
 20
94.837
 10
92.285
 20
94.773
 10
92.264
 20
94.711
 10
92.235
 20
94.652
 10
92.199
 20
94.598
 10
92.156
 20
94.548
 10
92.106
 20
94.505
 10
92.052
 20
94.469
 10
91.993
 20
94.44
 10
91.931
 20
94.419
 10
91.867
 20
94.406
 10
91.802
 20
94.402
 10
91.737
 20
94.406
 10
91.673
 20
94.419
 10
91.611
 20
94.44
 10
91.552
 20
94.469
 10
91.498
 20
94.505
 10
91.448
 20
94.548
 10
91.405
 20
94.598
 10
91.369
 20
94.652
 10
91.34
 20
94.711
 10
91.319
 20
94.773
 10
91.306
 20
94.837
 10
91.302
 20
94.902
 10
91.306
 20
94.967
 10
91.319
 20
95.031
 10
91.34
 20
95.093
 10
91.369
 20
95.152
 10
91.405
 20
95.206
 10
91.448
 20
95.256
 10
91.498
 20
95.299
 10
91.552
 20
95.335
 10
91.611
 20
95.364
 10
91.673
 20
95.385
 10
91.737
 20
95.398
 10
91.802
 20
95.402
 10
91.867
 20
95.398
 10
91.931
 20
95.385
 10
91.993
 20
95.364
 10
92.052
 20
95.335
 10
92.106
 20
95.299
 10
92.156
 20
95.256
 10
92.199
 20
95.206
 10
92.235
 20
95.152
 10
92.264
 20
95.093
 10
92.285
 20
95.031
 10
92.298
 20
94.967
 97
0
 75
0
 76
1
 98
0
  0
LWPOLYLINE
  5
93
330
17
100
AcDbEntity
  8
CUT
100
AcDbPolyline
 90
76
 70
1
 10
105.162
 20
101.242
 10
108.002
 20
101.242
 10
113.588
 20
101.242
 10
113.588
 20
98.442
 10
119.053
 20
98.442
 10
119.053
 20
101.242
 10
124.679
 20
101.242
 10
124.679
 20
98.442
 10
130.144
 20
98.442
 10
130.144
 20
101.242
 10
135.77
 20
101.242
 10
135.77
 20
98.442
 10
141.235
 20
98.442
 10
141.235
 20
101.242
 10
146.861
 20
101.242
 10
146.861
 20
98.442
 10
152.326
 20
98.442
 10
152.326
 20
101.242
 10
157.952
 20
101.242
 10
157.952
 20
98.442
 10
163.417
 20
98.442
 10
163.417
 20
101.242
 10
169.003
 20
101.242
 10
171.843
 20
101.242
 10
171.843
 20
98.402
 10
171.843
 20
92.505
 10
169.043
 20
92.505
 10
169.043
 20
86.727
 10
171.843
 20
86.727
 10
171.843
 20
80.79
 10
169.043
 20
80.79
 10
169.043
 20
75.013
 10
171.843
 20
75.013
 10
171.843
 20
69.076
 10
169.043
 20
69.076
 10
169.043
 20
63.298
 10
171.843
 20
63.298
 10
171.843
 20
57.401
 10
171.843
 20
54.561
 10
169.003
 20
54.561
 10
163.417
 20
54.561
 10
163.417
 20
57.361
 10
157.952
 20
57.361
 10
157.952
 20
54.561
 10
152.326
 20
54.561
 10
152.326
 20
57.361
 10
146.861
 20
57.361
 10
146.861
 20
54.561
 10
141.235
 20
54.561
 10
141.235
 20
57.361
 10
135.77
 20
57.361
 10
135.77
 20
54.561
 10
130.144
 20
54.561
 10
130.144
 20
57.361
 10
124.679
 20
57.361
 10
124.679
 20
54.561
 10
119.053
 20
54.561
 10
119.053
 20
57.361
 10
113.588
 20
57.361
 10
113.588
 20
54.561
 10
108.002
 20
54.561
 10
105.162
 20
54.561
 10
105.162
 20
57.401
 10
105.162
 20
63.298
 10
107.962
 20
63.298
 10
107.962
 20
69.076
 10
105.162
 20
69.076
 10
105.162
 20
75.013
 10
107.962
 20
75.013
 10
107.962
 20
80.79
 10
105.162
 20
80.79
 10
105.162
 20
86.727
 10
107.962
 20
86.727
 10
107.962
 20
92.505
 10
105.162
 20
92.505
 10
105.162
 20
98.402
  0
LWPOLYLINE
  5
94
330
17
100
AcDbEntity
  8
CUT
100
AcDbPolyline
 90
36
 70
1
 10
178.603
 20
101.242
 10
239.604
 20
101.242
 10
242.444
 20
101.242
 10
242.444
 20
98.762
 10
239.644
 20
98.762
 10
239.644
 20
96.442
 10
242.444
 20
96.442
 10
242.444
 20
93.962
 10
239.604
 20
93.962
 10
234.098
 20
93.962
 10
234.098
 20
91.162
 10
228.473
 20
91.162
 10
228.473
 20
93.962
 10
223.007
 20
93.962
 10
223.007
 20
91.162
 10
217.382
 20
91.162
 10
217.382
 20
93.962
 10
211.916
 20
93.962
 10
211.916
 20
91.162
 10
206.291
 20
91.162
 10
206.291
 20
93.962
 10
200.825
 20
93.962
 10
200.825
 20
91.162
 10
195.2
 20
91.162
 10
195.2
 20
93.962
 10
189.734
 20
93.962
 10
189.734
 20
91.162
 10
184.109
 20
91.162
 10
184.109
 20
93.962
 10
178.603
 20
93.962
 10
175.763
 20
93.962
 10
175.763
 20
96.442
 10
178.563
 20
96.442
 10
178.563
 20
98.762
 10
175.763
 20
98.762
 10
175.763
 20
101.242
  0
LWPOLYLINE
  5
95
330
17
100
AcDbEntity
  8
CUT
100
AcDbPolyline
 90
4
 70
1
 10
183.643
 20
98.662
 10
234.564
 20
98.662
 10
234.564
 20
96.542
 10
183.643
 20
96.542
  0
HATCH
  5
96
330
17
100
AcDbEntity
  8
RASTER
 62
7
100
AcDbHatch
 10
0.0
 20
0.0
 30
0.0
210
0.0
220
0.0
230
1.0
  2
SOLID
 70
1
 71
0
 91
1
 92
3
 72
0
 73
1
 93
4
 10
179.203
 20
100.802
 10
183.003
 20
100.802
 10
183.003
 20
94.402
 10
179.203
 20
94.402
 97
0
 75
0
 76
1
 98
0
  0
HATCH
  5
97
330
17
100
AcDbEntity
  8
RASTER
 62
7
100
AcDbHatch
 10
0.0
 20
0.0
 30
0.0
210
0.0
220
0.0
230
1.0
  2
SOLID
 70
1
 71
0
 91
1
 92
3
 72
0
 73
1
 93
4
 10
235.204
 20
100.802
 10
239.004
 20
100.802
 10
239.004
 20
94.402
 10
235.204
 20
94.402
 97
0
 75
0
 76
1
 98
0
  0
HATCH
  5
98
330
17
100
AcDbEntity
  8
RASTER
 62
7
100
AcDbHatch
 10
0.0
 20
0.0
 30
0.0
210
0.0
220
0.0
230
1.0
  2
SOLID
 70
1
 71
0
 91
1
 92
3
 72
0
 73
1
 93
48
 10
185.703
 20
100.302
 10
185.699
 20
100.237
 10
185.686
 20
100.173
 10
185.665
 20
100.111
 10
185.636
 20
100.052
 10
185.6
 20
99.998
 10
185.557
 20
99.948
 10
185.507
 20
99.905
 10
185.453
 20
99.869
 10
185.394
 20
99.84
 10
185.332
 20
99.819
 10
185.268
 20
99.806
 10
185.203
 20
99.802
 10
185.138
 20
99.806
 10
185.074
 20
99.819
 10
185.012
 20
99.84
 10
184.953
 20
99.869
 10
184.899
 20
99.905
 10
184.849
 20
99.948
 10
184.806
 20
99.998
 10
184.77
 20
100.052
 10
184.741
 20
100.111
 10
184.72
 20
100.173
 10
184.707
 20
100.237
 10
184.703
 20
100.302
 10
184.707
 20
100.367
 10
184.72
 20
100.431
 10
184.741
 20
100.493
 10
184.77
 20
100.552
 10
184.806
 20
100.606
 10
184.849
 20
100.656
 10
184.899
 20
100.699
 10
184.953
 20
100.735
 10
185.012
 20
100.764
 10
185.074
 20
100.785
 10
185.138
 20
100.798
 10
185.203
 20
100.802
 10
185.268
 20
100.798
 10
185.332
 20
100.785
 10
185.394
 20
100.764
 10
185.453
 20
100.735
 10
185.507
 20
100.699
 10
185.557
 20
100.656
 10
185.6
 20
100.606
 10
185.636
 20
100.552
 10
185.665
 20
100.493
 10
185.686
 20
100.431
 10
185.699
 20
100.367
 97
0
 75
0
 76
1
 98
0
  0
HATCH
  5
99
330
17
100
AcDbEntity
  8
RASTER
 62
7
100
AcDbHatch
 10
0.0
 20
0.0
 30
0.0
210
0.0
220
0.0
230
1.0
  2
SOLID
 70
1
 71
0
 91
1
 92
3
 72
0
 73
1
 93
48
 10
233.504
 20
100.302
 10
233.5
 20
100.237
 10
233.487
 20
100.173
 10
233.466
 20
100.111
 10
233.437
 20
100.052
 10
233.401
 20
99.998
 10
233.358
 20
99.948
 10
233.308
 20
99.905
 10
233.254
 20
99.869
 10
233.195
 20
99.84
 10
233.133
 20
99.819
 10
233.069
 20
99.806
 10
233.004
 20
99.802
 10
232.939
 20
99.806
 10
232.875
 20
99.819
 10
232.813
 20
99.84
 10
232.754
 20
99.869
 10
232.7
 20
99.905
 10
232.65
 20
99.948
 10
232.607
 20
99.998
 10
232.571
 20
100.052
 10
232.542
 20
100.111
 10
232.521
 20
100.173
 10
232.508
 20
100.237
 10
232.504
 20
100.302
 10
232.508
 20
100.367
 10
232.521
 20
100.431
 10
232.542
 20
100.493
 10
232.571
 20
100.552
 10
232.607
 20
100.606
 10
232.65
 20
100.656
 10
232.7
 20
100.699
 10
232.754
 20
100.735
 10
232.813
 20
100.764
 10
232.875
 20
100.785
 10
232.939
 20
100.798
 10
233.004
 20
100.802
 10
233.069
 20
100.798
 10
233.133
 20
100.785
 10
233.195
 20
100.764
 10
233.254
 20
100.735
 10
233.308
 20
100.699
 10
233.358
 20
100.656
 10
233.401
 20
100.606
 10
233.437
 20
100.552
 10
233.466
 20
100.493
 10
233.487
 20
100.431
 10
233.5
 20
100.367
 97
0
 75
0
 76
1
 98
0
  0
HATCH
  5
9A
330
17
100
AcDbEntity
  8
RASTER
 62
7
100
AcDbHatch
 10
0.0
 20
0.0
 30
0.0
210
0.0
220
0.0
230
1.0
  2
SOLID
 70
1
 71
0
 91
1
 92
3
 72
0
 73
1
 93
48
 10
185.703
 20
94.902
 10
185.699
 20
94.837
 10
185.686
 20
94.773
 10
185.665
 20
94.711
 10
185.636
 20
94.652
 10
185.6
 20
94.598
 10
185.557
 20
94.548
 10
185.507
 20
94.505
 10
185.453
 20
94.469
 10
185.394
 20
94.44
 10
185.332
 20
94.419
 10
185.268
 20
94.406
 10
185.203
 20
94.402
 10
185.138
 20
94.406
 10
185.074
 20
94.419
 10
185.012
 20
94.44
 10
184.953
 20
94.469
 10
184.899
 20
94.505
 10
184.849
 20
94.548
 10
184.806
 20
94.598
 10
184.77
 20
94.652
 10
184.741
 20
94.711
 10
184.72
 20
94.773
 10
184.707
 20
94.837
 10
184.703
 20
94.902
 10
184.707
 20
94.967
 10
184.72
 20
95.031
 10
184.741
 20
95.093
 10
184.77
 20
95.152
 10
184.806
 20
95.206
 10
184.849
 20
95.256
 10
184.899
 20
95.299
 10
184.953
 20
95.335
 10
185.012
 20
95.364
 10
185.074
 20
95.385
 10
185.138
 20
95.398
 10
185.203
 20
95.402
 10
185.268
 20
95.398
 10
185.332
 20
95.385
 10
185.394
 20
95.364
 10
185.453
 20
95.335
 10
185.507
 20
95.299
 10
185.557
 20
95.256
 10
185.6
 20
95.206
 10
185.636
 20
95.152
 10
185.665
 20
95.093
 10
185.686
 20
95.031
 10
185.699
 20
94.967
 97
0
 75
0
 76
1
 98
0
  0
HATCH
  5
9B
330
17
100
AcDbEntity
  8
RASTER
 62
7
100
AcDbHatch
 10
0.0
 20
0.0
 30
0.0
210
0.0
220
0.0
230
1.0
  2
SOLID
 70
1
 71
0
 91
1
 92
3
 72
0
 73
1
 93
48
 10
233.504
 20
94.902
 10
233.5
 20
94.837
 10
233.487
 20
94.773
 10
233.466
 20
94.711
 10
233.437
 20
94.652
 10
233.401
 20
94.598
 10
233.358
 20
94.548
 10
233.308
 20
94.505
 10
233.254
 20
94.469
 10
233.195
 20
94.44
 10
233.133
 20
94.419
 10
233.069
 20
94.406
 10
233.004
 20
94.402
 10
232.939
 20
94.406
 10
232.875
 20
94.419
 10
232.813
 20
94.44
 10
232.754
 20
94.469
 10
232.7
 20
94.505
 10
232.65
 20
94.548
 10
232.607
 20
94.598
 10
232.571
 20
94.652
 10
232.542
 20
94.711
 10
232.521
 20
94.773
 10
232.508
 20
94.837
 10
232.504
 20
94.902
 10
232.508
 20
94.967
 10
232.521
 20
95.031
 10
232.542
 20
95.093
 10
232.571
 20
95.152
 10
232.607
 20
95.206
 10
232.65
 20
95.256
 10
232.7
 20
95.299
 10
232.754
 20
95.335
 10
232.813
 20
95.364
 10
232.875
 20
95.385
 10
232.939
 20
95.398
 10
233.004
 20
95.402
 10
233.069
 20
95.398
 10
233.133
 20
95.385
 10
233.195
 20
95.364
 10
233.254
 20
95.335
 10
233.308
 20
95.299
 10
233.358
 20
95.256
 10
233.401
 20
95.206
 10
233.437
 20
95.152
 10
233.466
 20
95.093
 10
233.487
 20
95.031
 10
233.5
 20
94.967
 97
0
 75
0
 76
1
 98
0
  0
LWPOLYLINE
  5
9C
330
17
100
AcDbEntity
  8
CUT
100
AcDbPolyline
 90
36
 70
1
 10
6.8
 20
50.641
 10
67.801
 20
50.641
 10
70.641
 20
50.641
 10
70.641
 20
48.161
 10
67.841
 20
48.161
 10
67.841
 20
45.841
 10
70.641
 20
45.841
 10
70.641
 20
43.361
 10
67.801
 20
43.361
 10
62.295
 20
43.361
 10
62.295
 20
40.561
 10
56.67
 20
40.561
 10
56.67
 20
43.361
 10
51.204
 20
43.361
 10
51.204
 20
40.561
 10
45.579
 20
40.561
 10
45.579
 20
43.361
 10
40.113
 20
43.361
 10
40.113
 20
40.561
 10
34.488
 20
40.561
 10
34.488
 20
43.361
 10
29.022
 20
43.361
 10
29.022
 20
40.561
 10
23.397
 20
40.561
 10
23.397
 20
43.361
 10
17.931
 20
43.361
 10
17.931
 20
40.561
 10
12.306
 20
40.561
 10
12.306
 20
43.361
 10
6.8
 20
43.361
 10
3.96
 20
43.361
 10
3.96
 20
45.841
 10
6.76
 20
45.841
 10
6.76
 20
48.161
 10
3.96
 20
48.161
 10
3.96
 20
50.641
  0
LWPOLYLINE
  5
9D
330
17
100
AcDbEntity
  8
CUT
100
AcDbPolyline
 90
4
 70
1
 10
11.84
 20
48.061
 10
62.761
 20
48.061
 10
62.761
 20
45.941
 10
11.84
 20
45.941
  0
HATCH
  5
9E
330
17
100
AcDbEntity
  8
RASTER
 62
7
100
AcDbHatch
 10
0.0
 20
0.0
 30
0.0
210
0.0
220
0.0
230
1.0
  2
SOLID
 70
1
 71
0
 91
1
 92
3
 72
0
 73
1
 93
4
 10
7.4
 20
50.201
 10
11.2
 20
50.201
 10
11.2
 20
43.801
 10
7.4
 20
43.801
 97
0
 75
0
 76
1
 98
0
  0
HATCH
  5
9F
330
17
100
AcDbEntity
  8
RASTER
 62
7
100
AcDbHatch
 10
0.0
 20
0.0
 30
0.0
210
0.0
220
0.0
230
1.0
  2
SOLID
 70
1
 71
0
 91
1
 92
3
 72
0
 73
1
 93
4
 10
63.401
 20
50.201
 10
67.201
 20
50.201
 10
67.201
 20
43.801
 10
63.401
 20
43.801
 97
0
 75
0
 76
1
 98
0
  0
HATCH
  5
A0
330
17
100
AcDbEntity
  8
RASTER
 62
7
100
AcDbHatch
 10
0.0
 20
0.0
 30
0.0
210
0.0
220
0.0
230
1.0
  2
SOLID
 70
1
 71
0
 91
1
 92
3
 72
0
 73
1
 93
48
 10
13.9
 20
49.701
 10
13.896
 20
49.636
 10
13.883
 20
49.572
 10
13.862
 20
49.51
 10
13.833
 20
49.451
 10
13.797
 20
49.397
 10
13.754
 20
49.347
 10
13.704
 20
49.304
 10
13.65
 20
49.268
 10
13.591
 20
49.239
 10
13.529
 20
49.218
 10
13.465
 20
49.205
 10
13.4
 20
49.201
 10
13.335
 20
49.205
 10
13.271
 20
49.218
 10
13.209
 20
49.239
 10
13.15
 20
49.268
 10
13.096
 20
49.304
 10
13.046
 20
49.347
 10
13.003
 20
49.397
 10
12.967
 20
49.451
 10
12.938
 20
49.51
 10
12.917
 20
49.572
 10
12.904
 20
49.636
 10
12.9
 20
49.701
 10
12.904
 20
49.766
 10
12.917
 20
49.83
 10
12.938
 20
49.892
 10
12.967
 20
49.951
 10
13.003
 20
50.005
 10
13.046
 20
50.055
 10
13.096
 20
50.098
 10
13.15
 20
50.134
 10
13.209
 20
50.163
 10
13.271
 20
50.184
 10
13.335
 20
50.197
 10
13.4
 20
50.201
 10
13.465
 20
50.197
 10
13.529
 20
50.184
 10
13.591
 20
50.163
 10
13.65
 20
50.134
 10
13.704
 20
50.098
 10
13.754
 20
50.055
 10
13.797
 20
50.005
 10
13.833
 20
49.951
 10
13.862
 20
49.892
 10
13.883
 20
49.83
 10
13.896
 20
49.766
 97
0
 75
0
 76
1
 98
0
  0
HATCH
  5
A1
330
17
100
AcDbEntity
  8
RASTER
 62
7
100
AcDbHatch
 10
0.0
 20
0.0
 30
0.0
210
0.0
220
0.0
230
1.0
  2
SOLID
 70
1
 71
0
 91
1
 92
3
 72
0
 73
1
 93
48
 10
61.701
 20
49.701
 10
61.697
 20
49.636
 10
61.684
 20
49.572
 10
61.663
 20
49.51
 10
61.634
 20
49.451
 10
61.598
 20
49.397
 10
61.555
 20
49.347
 10
61.505
 20
49.304
 10
61.451
 20
49.268
 10
61.392
 20
49.239
 10
61.33
 20
49.218
 10
61.266
 20
49.205
 10
61.201
 20
49.201
 10
61.136
 20
49.205
 10
61.072
 20
49.218
 10
61.01
 20
49.239
 10
60.951
 20
49.268
 10
60.897
 20
49.304
 10
60.847
 20
49.347
 10
60.804
 20
49.397
 10
60.768
 20
49.451
 10
60.739
 20
49.51
 10
60.718
 20
49.572
 10
60.705
 20
49.636
 10
60.701
 20
49.701
 10
60.705
 20
49.766
 10
60.718
 20
49.83
 10
60.739
 20
49.892
 10
60.768
 20
49.951
 10
60.804
 20
50.005
 10
60.847
 20
50.055
 10
60.897
 20
50.098
 10
60.951
 20
50.134
 10
61.01
 20
50.163
 10
61.072
 20
50.184
 10
61.136
 20
50.197
 10
61.201
 20
50.201
 10
61.266
 20
50.197
 10
61.33
 20
50.184
 10
61.392
 20
50.163
 10
61.451
 20
50.134
 10
61.505
 20
50.098
 10
61.555
 20
50.055
 10
61.598
 20
50.005
 10
61.634
 20
49.951
 10
61.663
 20
49.892
 10
61.684
 20
49.83
 10
61.697
 20
49.766
 97
0
 75
0
 76
1
 98
0
  0
HATCH
  5
A2
330
17
100
AcDbEntity
  8
RASTER
 62
7
100
AcDbHatch
 10
0.0
 20
0.0
 30
0.0
210
0.0
220
0.0
230
1.0
  2
SOLID
 70
1
 71
0
 91
1
 92
3
 72
0
 73
1
 93
48
 10
13.9
 20
44.301
 10
13.896
 20
44.236
 10
13.883
 20
44.172
 10
13.862
 20
44.11
 10
13.833
 20
44.051
 10
13.797
 20
43.997
 10
13.754
 20
43.947
 10
13.704
 20
43.904
 10
13.65
 20
43.868
 10
13.591
 20
43.839
 10
13.529
 20
43.818
 10
13.465
 20
43.805
 10
13.4
 20
43.801
 10
13.335
 20
43.805
 10
13.271
 20
43.818
 10
13.209
 20
43.839
 10
13.15
 20
43.868
 10
13.096
 20
43.904
 10
13.046
 20
43.947
 10
13.003
 20
43.997
 10
12.967
 20
44.051
 10
12.938
 20
44.11
 10
12.917
 20
44.172
 10
12.904
 20
44.236
 10
12.9
 20
44.301
 10
12.904
 20
44.366
 10
12.917
 20
44.43
 10
12.938
 20
44.492
 10
12.967
 20
44.551
 10
13.003
 20
44.605
 10
13.046
 20
44.655
 10
13.096
 20
44.698
 10
13.15
 20
44.734
 10
13.209
 20
44.763
 10
13.271
 20
44.784
 10
13.335
 20
44.797
 10
13.4
 20
44.801
 10
13.465
 20
44.797
 10
13.529
 20
44.784
 10
13.591
 20
44.763
 10
13.65
 20
44.734
 10
13.704
 20
44.698
 10
13.754
 20
44.655
 10
13.797
 20
44.605
 10
13.833
 20
44.551
 10
13.862
 20
44.492
 10
13.883
 20
44.43
 10
13.896
 20
44.366
 97
0
 75
0
 76
1
 98
0
  0
HATCH
  5
A3
330
17
100
AcDbEntity
  8
RASTER
 62
7
100
AcDbHatch
 10
0.0
 20
0.0
 30
0.0
210
0.0
220
0.0
230
1.0
  2
SOLID
 70
1
 71
0
 91
1
 92
3
 72
0
 73
1
 93
48
 10
61.701
 20
44.301
 10
61.697
 20
44.236
 10
61.684
 20
44.172
 10
61.663
 20
44.11
 10
61.634
 20
44.051
 10
61.598
 20
43.997
 10
61.555
 20
43.947
 10
61.505
 20
43.904
 10
61.451
 20
43.868
 10
61.392
 20
43.839
 10
61.33
 20
43.818
 10
61.266
 20
43.805
 10
61.201
 20
43.801
 10
61.136
 20
43.805
 10
61.072
 20
43.818
 10
61.01
 20
43.839
 10
60.951
 20
43.868
 10
60.897
 20
43.904
 10
60.847
 20
43.947
 10
60.804
 20
43.997
 10
60.768
 20
44.051
 10
60.739
 20
44.11
 10
60.718
 20
44.172
 10
60.705
 20
44.236
 10
60.701
 20
44.301
 10
60.705
 20
44.366
 10
60.718
 20
44.43
 10
60.739
 20
44.492
 10
60.768
 20
44.551
 10
60.804
 20
44.605
 10
60.847
 20
44.655
 10
60.897
 20
44.698
 10
60.951
 20
44.734
 10
61.01
 20
44.763
 10
61.072
 20
44.784
 10
61.136
 20
44.797
 10
61.201
 20
44.801
 10
61.266
 20
44.797
 10
61.33
 20
44.784
 10
61.392
 20
44.763
 10
61.451
 20
44.734
 10
61.505
 20
44.698
 10
61.555
 20
44.655
 10
61.598
 20
44.605
 10
61.634
 20
44.551
 10
61.663
 20
44.492
 10
61.684
 20
44.43
 10
61.697
 20
44.366
 97
0
 75
0
 76
1
 98
0
  0
LWPOLYLINE
  5
A4
330
17
100
AcDbEntity
  8
CUT
100
AcDbPolyline
 90
24
 70
1
 10
77.361
 20
50.641
 10
118.442
 20
50.641
 10
118.442
 20
48.241
 10
121.242
 20
48.241
 10
121.242
 20
45.761
 10
118.442
 20
45.761
 10
118.442
 20
43.361
 10
112.585
 20
43.361
 10
112.585
 20
40.561
 10
106.647
 20
40.561
 10
106.647
 20
43.361
 10
100.87
 20
43.361
 10
100.87
 20
40.561
 10
94.933
 20
40.561
 10
94.933
 20
43.361
 10
89.156
 20
43.361
 10
89.156
 20
40.561
 10
83.218
 20
40.561
 10
83.218
 20
43.361
 10
77.361
 20
43.361
 10
77.361
 20
45.761
 10
74.561
 20
45.761
 10
74.561
 20
48.241
 10
77.361
 20
48.241
  0
LWPOLYLINE
  5
A5
330
17
100
AcDbEntity
  8
CUT
100
AcDbPolyline
 90
4
 70
1
 10
82.441
 20
48.061
 10
113.362
 20
48.061
 10
113.362
 20
45.941
 10
82.441
 20
45.941
  0
HATCH
  5
A6
330
17
100
AcDbEntity
  8
RASTER
 62
7
100
AcDbHatch
 10
0.0
 20
0.0
 30
0.0
210
0.0
220
0.0
230
1.0
  2
SOLID
 70
1
 71
0
 91
1
 92
3
 72
0
 73
1
 93
4
 10
78.001
 20
50.201
 10
81.801
 20
50.201
 10
81.801
 20
43.801
 10
78.001
 20
43.801
 97
0
 75
0
 76
1
 98
0
  0
HATCH
  5
A7
330
17
100
AcDbEntity
  8
RASTER
 62
7
100
AcDbHatch
 10
0.0
 20
0.0
 30
0.0
210
0.0
220
0.0
230
1.0
  2
SOLID
 70
1
 71
0
 91
1
 92
3
 72
0
 73
1
 93
4
 10
114.002
 20
50.201
 10
117.802
 20
50.201
 10
117.802
 20
43.801
 10
114.002
 20
43.801
 97
0
 75
0
 76
1
 98
0
  0
HATCH
  5
A8
330
17
100
AcDbEntity
  8
RASTER
 62
7
100
AcDbHatch
 10
0.0
 20
0.0
 30
0.0
210
0.0
220
0.0
230
1.0
  2
SOLID
 70
1
 71
0
 91
1
 92
3
 72
0
 73
1
 93
48
 10
84.501
 20
49.701
 10
84.497
 20
49.636
 10
84.484
 20
49.572
 10
84.463
 20
49.51
 10
84.434
 20
49.451
 10
84.398
 20
49.397
 10
84.355
 20
49.347
 10
84.305
 20
49.304
 10
84.251
 20
49.268
 10
84.192
 20
49.239
 10
84.13
 20
49.218
 10
84.066
 20
49.205
 10
84.001
 20
49.201
 10
83.936
 20
49.205
 10
83.872
 20
49.218
 10
83.81
 20
49.239
 10
83.751
 20
49.268
 10
83.697
 20
49.304
 10
83.647
 20
49.347
 10
83.604
 20
49.397
 10
83.568
 20
49.451
 10
83.539
 20
49.51
 10
83.518
 20
49.572
 10
83.505
 20
49.636
 10
83.501
 20
49.701
 10
83.505
 20
49.766
 10
83.518
 20
49.83
 10
83.539
 20
49.892
 10
83.568
 20
49.951
 10
83.604
 20
50.005
 10
83.647
 20
50.055
 10
83.697
 20
50.098
 10
83.751
 20
50.134
 10
83.81
 20
50.163
 10
83.872
 20
50.184
 10
83.936
 20
50.197
 10
84.001
 20
50.201
 10
84.066
 20
50.197
 10
84.13
 20
50.184
 10
84.192
 20
50.163
 10
84.251
 20
50.134
 10
84.305
 20
50.098
 10
84.355
 20
50.055
 10
84.398
 20
50.005
 10
84.434
 20
49.951
 10
84.463
 20
49.892
 10
84.484
 20
49.83
 10
84.497
 20
49.766
 97
0
 75
0
 76
1
 98
0
  0
HATCH
  5
A9
330
17
100
AcDbEntity
  8
RASTER
 62
7
100
AcDbHatch
 10
0.0
 20
0.0
 30
0.0
210
0.0
220
0.0
230
1.0
  2
SOLID
 70
1
 71
0
 91
1
 92
3
 72
0
 73
1
 93
48
 10
112.302
 20
49.701
 10
112.298
 20
49.636
 10
112.285
 20
49.572
 10
112.264
 20
49.51
 10
112.235
 20
49.451
 10
112.199
 20
49.397
 10
112.156
 20
49.347
 10
112.106
 20
49.304
 10
112.052
 20
49.268
 10
111.993
 20
49.239
 10
111.931
 20
49.218
 10
111.867
 20
49.205
 10
111.802
 20
49.201
 10
111.737
 20
49.205
 10
111.673
 20
49.218
 10
111.611
 20
49.239
 10
111.552
 20
49.268
 10
111.498
 20
49.304
 10
111.448
 20
49.347
 10
111.405
 20
49.397
 10
111.369
 20
49.451
 10
111.34
 20
49.51
 10
111.319
 20
49.572
 10
111.306
 20
49.636
 10
111.302
 20
49.701
 10
111.306
 20
49.766
 10
111.319
 20
49.83
 10
111.34
 20
49.892
 10
111.369
 20
49.951
 10
111.405
 20
50.005
 10
111.448
 20
50.055
 10
111.498
 20
50.098
 10
111.552
 20
50.134
 10
111.611
 20
50.163
 10
111.673
 20
50.184
 10
111.737
 20
50.197
 10
111.802
 20
50.201
 10
111.867
 20
50.197
 10
111.931
 20
50.184
 10
111.993
 20
50.163
 10
112.052
 20
50.134
 10
112.106
 20
50.098
 10
112.156
 20
50.055
 10
112.199
 20
50.005
 10
112.235
 20
49.951
 10
112.264
 20
49.892
 10
112.285
 20
49.83
 10
112.298
 20
49.766
 97
0
 75
0
 76
1
 98
0
  0
HATCH
  5
AA
330
17
100
AcDbEntity
  8
RASTER
 62
7
100
AcDbHatch
 10
0.0
 20
0.0
 30
0.0
210
0.0
220
0.0
230
1.0
  2
SOLID
 70
1
 71
0
 91
1
 92
3
 72
0
 73
1
 93
48
 10
84.501
 20
44.301
 10
84.497
 20
44.236
 10
84.484
 20
44.172
 10
84.463
 20
44.11
 10
84.434
 20
44.051
 10
84.398
 20
43.997
 10
84.355
 20
43.947
 10
84.305
 20
43.904
 10
84.251
 20
43.868
 10
84.192
 20
43.839
 10
84.13
 20
43.818
 10
84.066
 20
43.805
 10
84.001
 20
43.801
 10
83.936
 20
43.805
 10
83.872
 20
43.818
 10
83.81
 20
43.839
 10
83.751
 20
43.868
 10
83.697
 20
43.904
 10
83.647
 20
43.947
 10
83.604
 20
43.997
 10
83.568
 20
44.051
 10
83.539
 20
44.11
 10
83.518
 20
44.172
 10
83.505
 20
44.236
 10
83.501
 20
44.301
 10
83.505
 20
44.366
 10
83.518
 20
44.43
 10
83.539
 20
44.492
 10
83.568
 20
44.551
 10
83.604
 20
44.605
 10
83.647
 20
44.655
 10
83.697
 20
44.698
 10
83.751
 20
44.734
 10
83.81
 20
44.763
 10
83.872
 20
44.784
 10
83.936
 20
44.797
 10
84.001
 20
44.801
 10
84.066
 20
44.797
 10
84.13
 20
44.784
 10
84.192
 20
44.763
 10
84.251
 20
44.734
 10
84.305
 20
44.698
 10
84.355
 20
44.655
 10
84.398
 20
44.605
 10
84.434
 20
44.551
 10
84.463
 20
44.492
 10
84.484
 20
44.43
 10
84.497
 20
44.366
 97
0
 75
0
 76
1
 98
0
  0
HATCH
  5
AB
330
17
100
AcDbEntity
  8
RASTER
 62
7
100
AcDbHatch
 10
0.0
 20
0.0
 30
0.0
210
0.0
220
0.0
230
1.0
  2
SOLID
 70
1
 71
0
 91
1
 92
3
 72
0
 73
1
 93
48
 10
112.302
 20
44.301
 10
112.298
 20
44.236
 10
112.285
 20
44.172
 10
112.264
 20
44.11
 10
112.235
 20
44.051
 10
112.199
 20
43.997
 10
112.156
 20
43.947
 10
112.106
 20
43.904
 10
112.052
 20
43.868
 10
111.993
 20
43.839
 10
111.931
 20
43.818
 10
111.867
 20
43.805
 10
111.802
 20
43.801
 10
111.737
 20
43.805
 10
111.673
 20
43.818
 10
111.611
 20
43.839
 10
111.552
 20
43.868
 10
111.498
 20
43.904
 10
111.448
 20
43.947
 10
111.405
 20
43.997
 10
111.369
 20
44.051
 10
111.34
 20
44.11
 10
111.319
 20
44.172
 10
111.306
 20
44.236
 10
111.302
 20
44.301
 10
111.306
 20
44.366
 10
111.319
 20
44.43
 10
111.34
 20
44.492
 10
111.369
 20
44.551
 10
111.405
 20
44.605
 10
111.448
 20
44.655
 10
111.498
 20
44.698
 10
111.552
 20
44.734
 10
111.611
 20
44.763
 10
111.673
 20
44.784
 10
111.737
 20
44.797
 10
111.802
 20
44.801
 10
111.867
 20
44.797
 10
111.931
 20
44.784
 10
111.993
 20
44.763
 10
112.052
 20
44.734
 10
112.106
 20
44.698
 10
112.156
 20
44.655
 10
112.199
 20
44.605
 10
112.235
 20
44.551
 10
112.264
 20
44.492
 10
112.285
 20
44.43
 10
112.298
 20
44.366
 97
0
 75
0
 76
1
 98
0
  0
LWPOLYLINE
  5
AC
330
17
100
AcDbEntity
  8
CUT
100
AcDbPolyline
 90
24
 70
1
 10
127.962
 20
50.641
 10
169.043
 20
50.641
 10
169.043
 20
48.241
 10
171.843
 20
48.241
 10
171.843
 20
45.761
 10
169.043
 20
45.761
 10
169.043
 20
43.361
 10
163.186
 20
43.361
 10
163.186
 20
40.561
 10
157.248
 20
40.561
 10
157.248
 20
43.361
 10
151.471
 20
43.361
 10
151.471
 20
40.561
 10
145.534
 20
40.561
 10
145.534
 20
43.361
 10
139.757
 20
43.361
 10
139.757
 20
40.561
 10
133.819
 20
40.561
 10
133.819
 20
43.361
 10
127.962
 20
43.361
 10
127.962
 20
45.761
 10
125.162
 20
45.761
 10
125.162
 20
48.241
 10
127.962
 20
48.241
  0
LWPOLYLINE
  5
AD
330
17
100
AcDbEntity
  8
CUT
100
AcDbPolyline
 90
4
 70
1
 10
133.042
 20
48.061
 10
163.963
 20
48.061
 10
163.963
 20
45.941
 10
133.042
 20
45.941
  0
HATCH
  5
AE
330
17
100
AcDbEntity
  8
RASTER
 62
7
100
AcDbHatch
 10
0.0
 20
0.0
 30
0.0
210
0.0
220
0.0
230
1.0
  2
SOLID
 70
1
 71
0
 91
1
 92
3
 72
0
 73
1
 93
4
 10
128.602
 20
50.201
 10
132.402
 20
50.201
 10
132.402
 20
43.801
 10
128.602
 20
43.801
 97
0
 75
0
 76
1
 98
0
  0
HATCH
  5
AF
330
17
100
AcDbEntity
  8
RASTER
 62
7
100
AcDbHatch
 10
0.0
 20
0.0
 30
0.0
210
0.0
220
0.0
230
1.0
  2
SOLID
 70
1
 71
0
 91
1
 92
3
 72
0
 73
1
 93
4
 10
164.603
 20
50.201
 10
168.403
 20
50.201
 10
168.403
 20
43.801
 10
164.603
 20
43.801
 97
0
 75
0
 76
1
 98
0
  0
HATCH
  5
B0
330
17
100
AcDbEntity
  8
RASTER
 62
7
100
AcDbHatch
 10
0.0
 20
0.0
 30
0.0
210
0.0
220
0.0
230
1.0
  2
SOLID
 70
1
 71
0
 91
1
 92
3
 72
0
 73
1
 93
48
 10
135.102
 20
49.701
 10
135.098
 20
49.636
 10
135.085
 20
49.572
 10
135.064
 20
49.51
 10
135.035
 20
49.451
 10
134.999
 20
49.397
 10
134.956
 20
49.347
 10
134.906
 20
49.304
 10
134.852
 20
49.268
 10
134.793
 20
49.239
 10
134.731
 20
49.218
 10
134.667
 20
49.205
 10
134.602
 20
49.201
 10
134.537
 20
49.205
 10
134.473
 20
49.218
 10
134.411
 20
49.239
 10
134.352
 20
49.268
 10
134.298
 20
49.304
 10
134.248
 20
49.347
 10
134.205
 20
49.397
 10
134.169
 20
49.451
 10
134.14
 20
49.51
 10
134.119
 20
49.572
 10
134.106
 20
49.636
 10
134.102
 20
49.701
 10
134.106
 20
49.766
 10
134.119
 20
49.83
 10
134.14
 20
49.892
 10
134.169
 20
49.951
 10
134.205
 20
50.005
 10
134.248
 20
50.055
 10
134.298
 20
50.098
 10
134.352
 20
50.134
 10
134.411
 20
50.163
 10
134.473
 20
50.184
 10
134.537
 20
50.197
 10
134.602
 20
50.201
 10
134.667
 20
50.197
 10
134.731
 20
50.184
 10
134.793
 20
50.163
 10
134.852
 20
50.134
 10
134.906
 20
50.098
 10
134.956
 20
50.055
 10
134.999
 20
50.005
 10
135.035
 20
49.951
 10
135.064
 20
49.892
 10
135.085
 20
49.83
 10
135.098
 20
49.766
 97
0
 75
0
 76
1
 98
0
  0
HATCH
  5
B1
330
17
100
AcDbEntity
  8
RASTER
 62
7
100
AcDbHatch
 10
0.0
 20
0.0
 30
0.0
210
0.0
220
0.0
230
1.0
  2
SOLID
 70
1
 71
0
 91
1
 92
3
 72
0
 73
1
 93
48
 10
162.903
 20
49.701
 10
162.899
 20
49.636
 10
162.886
 20
49.572
 10
162.865
 20
49.51
 10
162.836
 20
49.451
 10
162.8
 20
49.397
 10
162.757
 20
49.347
 10
162.707
 20
49.304
 10
162.653
 20
49.268
 10
162.594
 20
49.239
 10
162.532
 20
49.218
 10
162.468
 20
49.205
 10
162.403
 20
49.201
 10
162.338
 20
49.205
 10
162.274
 20
49.218
 10
162.212
 20
49.239
 10
162.153
 20
49.268
 10
162.099
 20
49.304
 10
162.049
 20
49.347
 10
162.006
 20
49.397
 10
161.97
 20
49.451
 10
161.941
 20
49.51
 10
161.92
 20
49.572
 10
161.907
 20
49.636
 10
161.903
 20
49.701
 10
161.907
 20
49.766
 10
161.92
 20
49.83
 10
161.941
 20
49.892
 10
161.97
 20
49.951
 10
162.006
 20
50.005
 10
162.049
 20
50.055
 10
162.099
 20
50.098
 10
162.153
 20
50.134
 10
162.212
 20
50.163
 10
162.274
 20
50.184
 10
162.338
 20
50.197
 10
162.403
 20
50.201
 10
162.468
 20
50.197
 10
162.532
 20
50.184
 10
162.594
 20
50.163
 10
162.653
 20
50.134
 10
162.707
 20
50.098
 10
162.757
 20
50.055
 10
162.8
 20
50.005
 10
162.836
 20
49.951
 10
162.865
 20
49.892
 10
162.886
 20
49.83
 10
162.899
 20
49.766
 97
0
 75
0
 76
1
 98
0
  0
HATCH
  5
B2
330
17
100
AcDbEntity
  8
RASTER
 62
7
100
AcDbHatch
 10
0.0
 20
0.0
 30
0.0
210
0.0
220
0.0
230
1.0
  2
SOLID
 70
1
 71
0
 91
1
 92
3
 72
0
 73
1
 93
48
 10
135.102
 20
44.301
 10
135.098
 20
44.236
 10
135.085
 20
44.172
 10
135.064
 20
44.11
 10
135.035
 20
44.051
 10
134.999
 20
43.997
 10
134.956
 20
43.947
 10
134.906
 20
43.904
 10
134.852
 20
43.868
 10
134.793
 20
43.839
 10
134.731
 20
43.818
 10
134.667
 20
43.805
 10
134.602
 20
43.801
 10
134.537
 20
43.805
 10
134.473
 20
43.818
 10
134.411
 20
43.839
 10
134.352
 20
43.868
 10
134.298
 20
43.904
 10
134.248
 20
43.947
 10
134.205
 20
43.997
 10
134.169
 20
44.051
 10
134.14
 20
44.11
 10
134.119
 20
44.172
 10
134.106
 20
44.236
 10
134.102
 20
44.301
 10
134.106
 20
44.366
 10
134.119
 20
44.43
 10
134.14
 20
44.492
 10
134.169
 20
44.551
 10
134.205
 20
44.605
 10
134.248
 20
44.655
 10
134.298
 20
44.698
 10
134.352
 20
44.734
 10
134.411
 20
44.763
 10
134.473
 20
44.784
 10
134.537
 20
44.797
 10
134.602
 20
44.801
 10
134.667
 20
44.797
 10
134.731
 20
44.784
 10
134.793
 20
44.763
 10
134.852
 20
44.734
 10
134.906
 20
44.698
 10
134.956
 20
44.655
 10
134.999
 20
44.605
 10
135.035
 20
44.551
 10
135.064
 20
44.492
 10
135.085
 20
44.43
 10
135.098
 20
44.366
 97
0
 75
0
 76
1
 98
0
  0
HATCH
  5
B3
330
17
100
AcDbEntity
  8
RASTER
 62
7
100
AcDbHatch
 10
0.0
 20
0.0
 30
0.0
210
0.0
220
0.0
230
1.0
  2
SOLID
 70
1
 71
0
 91
1
 92
3
 72
0
 73
1
 93
48
 10
162.903
 20
44.301
 10
162.899
 20
44.236
 10
162.886
 20
44.172
 10
162.865
 20
44.11
 10
162.836
 20
44.051
 10
162.8
 20
43.997
 10
162.757
 20
43.947
 10
162.707
 20
43.904
 10
162.653
 20
43.868
 10
162.594
 20
43.839
 10
162.532
 20
43.818
 10
162.468
 20
43.805
 10
162.403
 20
43.801
 10
162.338
 20
43.805
 10
162.274
 20
43.818
 10
162.212
 20
43.839
 10
162.153
 20
43.868
 10
162.099
 20
43.904
 10
162.049
 20
43.947
 10
162.006
 20
43.997
 10
161.97
 20
44.051
 10
161.941
 20
44.11
 10
161.92
 20
44.172
 10
161.907
 20
44.236
 10
161.903
 20
44.301
 10
161.907
 20
44.366
 10
161.92
 20
44.43
 10
161.941
 20
44.492
 10
161.97
 20
44.551
 10
162.006
 20
44.605
 10
162.049
 20
44.655
 10
162.099
 20
44.698
 10
162.153
 20
44.734
 10
162.212
 20
44.763
 10
162.274
 20
44.784
 10
162.338
 20
44.797
 10
162.403
 20
44.801
 10
162.468
 20
44.797
 10
162.532
 20
44.784
 10
162.594
 20
44.763
 10
162.653
 20
44.734
 10
162.707
 20
44.698
 10
162.757
 20
44.655
 10
162.8
 20
44.605
 10
162.836
 20
44.551
 10
162.865
 20
44.492
 10
162.886
 20
44.43
 10
162.899
 20
44.366
 97
0
 75
0
 76
1
 98
0
  0
LWPOLYLINE
  5
B4
330
17
100
AcDbEntity
  8
CUT
100
AcDbPolyline
 90
76
 70
1
 10
175.763
 20
50.641
 10
178.603
 20
50.641
 10
184.189
 20
50.641
 10
184.189
 20
47.841
 10
189.654
 20
47.841
 10
189.654
 20
50.641
 10
195.28
 20
50.641
 10
195.28
 20
47.841
 10
200.745
 20
47.841
 10
200.745
 20
50.641
 10
206.371
 20
50.641
 10
206.371
 20
47.841
 10
211.836
 20
47.841
 10
211.836
 20
50.641
 10
217.462
 20
50.641
 10
217.462
 20
47.841
 10
222.927
 20
47.841
 10
222.927
 20
50.641
 10
228.553
 20
50.641
 10
228.553
 20
47.841
 10
234.018
 20
47.841
 10
234.018
 20
50.641
 10
239.604
 20
50.641
 10
242.444
 20
50.641
 10
242.444
 20
47.801
 10
242.444
 20
41.904
 10
239.644
 20
41.904
 10
239.644
 20
36.126
 10
242.444
 20
36.126
 10
242.444
 20
30.189
 10
239.644
 20
30.189
 10
239.644
 20
24.412
 10
242.444
 20
24.412
 10
242.444
 20
18.475
 10
239.644
 20
18.475
 10
239.644
 20
12.697
 10
242.444
 20
12.697
 10
242.444
 20
6.8
 10
242.444
 20
3.96
 10
239.604
 20
3.96
 10
234.018
 20
3.96
 10
234.018
 20
6.76
 10
228.553
 20
6.76
 10
228.553
 20
3.96
 10
222.927
 20
3.96
 10
222.927
 20
6.76
 10
217.462
 20
6.76
 10
217.462
 20
3.96
 10
211.836
 20
3.96
 10
211.836
 20
6.76
 10
206.371
 20
6.76
 10
206.371
 20
3.96
 10
200.745
 20
3.96
 10
200.745
 20
6.76
 10
195.28
 20
6.76
 10
195.28
 20
3.96
 10
189.654
 20
3.96
 10
189.654
 20
6.76
 10
184.189
 20
6.76
 10
184.189
 20
3.96
 10
178.603
 20
3.96
 10
175.763
 20
3.96
 10
175.763
 20
6.8
 10
175.763
 20
12.697
 10
178.563
 20
12.697
 10
178.563
 20
18.475
 10
175.763
 20
18.475
 10
175.763
 20
24.412
 10
178.563
 20
24.412
 10
178.563
 20
30.189
 10
175.763
 20
30.189
 10
175.763
 20
36.126
 10
178.563
 20
36.126
 10
178.563
 20
41.904
 10
175.763
 20
41.904
 10
175.763
 20
47.801
  0
ENDSEC
  0
SECTION
  2
OBJECTS
  0
DICTIONARY
  5
A
330
0
100
AcDbDictionary
281
1
  3
ACAD_COLOR
350
B
  3
ACAD_GROUP
350
C
  3
ACAD_LAYOUT
350
D
  3
ACAD_MATERIAL
350
E
  3
ACAD_MLEADERSTYLE
350
F
  3
ACAD_MLINESTYLE
350
10
  3
ACAD_PLOTSETTINGS
350
11
  3
ACAD_PLOTSTYLENAME
350
12
  3
ACAD_SCALELIST
350
14
  3
ACAD_TABLESTYLE
350
15
  3
ACAD_VISUALSTYLE
350
16
  3
EZDXF_META
350
2D
  0
DICTIONARY
  5
B
330
A
100
AcDbDictionary
281
1
  0
DICTIONARY
  5
C
330
A
100
AcDbDictionary
281
1
  0
DICTIONARY
  5
D
330
A
100
AcDbDictionary
281
1
  3
Model
350
1A
  3
Layout1
350
1E
  0
DICTIONARY
  5
E
330
A
100
AcDbDictionary
281
1
  3
ByBlock
350
1F
  3
ByLayer
350
20
  3
Global
350
21
  0
DICTIONARY
  5
F
330
A
100
AcDbDictionary
281
1
  3
Standard
350
2C
  0
DICTIONARY
  5
10
330
A
100
AcDbDictionary
281
1
  3
Standard
350
22
  0
DICTIONARY
  5
11
330
A
100
AcDbDictionary
281
1
  0
ACDBDICTIONARYWDFLT
  5
12
330
A
100
AcDbDictionary
281
1
  3
Normal
350
13
100
AcDbDictionaryWithDefault
340
13
  0
ACDBPLACEHOLDER
  5
13
330
12
  0
DICTIONARY
  5
14
330
A
100
AcDbDictionary
281
1
  0
DICTIONARY
  5
15
330
A
100
AcDbDictionary
281
1
  0
DICTIONARY
  5
16
330
A
100
AcDbDictionary
281
1
  0
LAYOUT
  5
1A
330
D
100
AcDbPlotSettings
  1

  4
A3
  6

 40
7.5
 41
20.0
 42
7.5
 43
20.0
 44
420.0
 45
297.0
 46
0.0
 47
0.0
 48
0.0
 49
0.0
140
0.0
141
0.0
142
1.0
143
1.0
 70
1024
 72
1
 73
0
 74
5
  7

 75
16
 76
0
 77
2
 78
300
147
1.0
148
0.0
149
0.0
100
AcDbLayout
  1
Model
 70
1
 71
0
 10
0.0
 20
0.0
 11
420.0
 21
297.0
 12
0.0
 22
0.0
 32
0.0
 14
1e+20
 24
1e+20
 34
1e+20
 15
-1e+20
 25
-1e+20
 35
-1e+20
146
0.0
 13
0.0
 23
0.0
 33
0.0
 16
1.0
 26
0.0
 36
0.0
 17
0.0
 27
1.0
 37
0.0
 76
1
330
17
  0
LAYOUT
  5
1E
330
D
100
AcDbPlotSettings
  1

  4
A3
  6

 40
7.5
 41
20.0
 42
7.5
 43
20.0
 44
420.0
 45
297.0
 46
0.0
 47
0.0
 48
0.0
 49
0.0
140
0.0
141
0.0
142
1.0
143
1.0
 70
0
 72
1
 73
0
 74
5
  7

 75
16
 76
0
 77
2
 78
300
147
1.0
148
0.0
149
0.0
100
AcDbLayout
  1
Layout1
 70
1
 71
1
 10
0.0
 20
0.0
 11
420.0
 21
297.0
 12
0.0
 22
0.0
 32
0.0
 14
1e+20
 24
1e+20
 34
1e+20
 15
-1e+20
 25
-1e+20
 35
-1e+20
146
0.0
 13
0.0
 23
0.0
 33
0.0
 16
1.0
 26
0.0
 36
0.0
 17
0.0
 27
1.0
 37
0.0
 76
1
330
1B
  0
MATERIAL
  5
1F
102
{ACAD_REACTORS
330
E
102
}
330
E
100
AcDbMaterial
  1
ByBlock
  2

 70
0
 40
1.0
 71
1
 41
1.0
 91
-1023410177
 42
1.0
 72
1
  3

 73
1
 74
1
 75
1
 44
0.5
 73
0
 45
1.0
 46
1.0
 77
1
  4

 78
1
 79
1
170
1
 48
1.0
171
1
  6

172
1
173
1
174
1
140
1.0
141
1.0
175
1
  7

176
1
177
1
178
1
143
1.0
179
1
  8

270
1
271
1
272
1
145
1.0
146
1.0
273
1
  9

274
1
275
1
276
1
 42
1.0
 72
1
  3

 73
1
 74
1
 75
1
 94
63
  0
MATERIAL
  5
20
102
{ACAD_REACTORS
330
E
102
}
330
E
100
AcDbMaterial
  1
ByLayer
  2

 70
0
 40
1.0
 71
1
 41
1.0
 91
-1023410177
 42
1.0
 72
1
  3

 73
1
 74
1
 75
1
 44
0.5
 73
0
 45
1.0
 46
1.0
 77
1
  4

 78
1
 79
1
170
1
 48
1.0
171
1
  6

172
1
173
1
174
1
140
1.0
141
1.0
175
1
  7

176
1
177
1
178
1
143
1.0
179
1
  8

270
1
271
1
272
1
145
1.0
146
1.0
273
1
  9

274
1
275
1
276
1
 42
1.0
 72
1
  3

 73
1
 74
1
 75
1
 94
63
  0
MATERIAL
  5
21
102
{ACAD_REACTORS
330
E
102
}
330
E
100
AcDbMaterial
  1
Global
  2

 70
0
 40
1.0
 71
1
 41
1.0
 91
-1023410177
 42
1.0
 72
1
  3

 73
1
 74
1
 75
1
 44
0.5
 73
0
 45
1.0
 46
1.0
 77
1
  4

 78
1
 79
1
170
1
 48
1.0
171
1
  6

172
1
173
1
174
1
140
1.0
141
1.0
175
1
  7

176
1
177
1
178
1
143
1.0
179
1
  8

270
1
271
1
272
1
145
1.0
146
1.0
273
1
  9

274
1
275
1
276
1
 42
1.0
 72
1
  3

 73
1
 74
1
 75
1
 94
63
  0
MLINESTYLE
  5
22
102
{ACAD_REACTORS
330
10
102
}
330
10
100
AcDbMlineStyle
  2
Standard
 70
0
  3

 62
256
 51
90.0
 52
90.0
 71
2
 49
0.5
 62
256
  6
BYLAYER
 49
-0.5
 62
256
  6
BYLAYER
  0
MLEADERSTYLE
  5
2C
102
{ACAD_REACTORS
330
F
102
}
330
F
100
AcDbMLeaderStyle
179
2
170
2
171
1
172
0
 90
2
 40
0.0
 41
0.0
173
1
 91
-1056964608
 92
-2
290
1
 42
2.0
291
1
 43
8.0
  3
Standard
 44
4.0
300

342
29
174
1
175
1
176
0
178
1
 93
-1056964608
 45
4.0
292
0
297
0
 46
4.0
 94
-1056964608
 47
1.0
 49
1.0
140
1.0
294
1
141
0.0
177
0
142
1.0
295
0
296
0
143
3.75
271
0
272
9
273
9
  0
DICTIONARY
  5
2D
330
A
100
AcDbDictionary
280
1
281
1
  3
CREATED_BY_EZDXF
350
2E
  3
WRITTEN_BY_EZDXF
350
B7
  0
DICTIONARYVAR
  5
2E
330
2D
100
DictionaryVariables
280
0
  1
1.4.2 @ 2026-09-13T17:18:22.771763+00:00
  0
DICTIONARYVAR
  5
B7
330
2D
100
DictionaryVariables
280
0
  1
1.4.2 @ 2026-09-13T17:18:22.782116+00:00
  0
ENDSEC
  0
EOF
