0
SECTION
2
HEADER
9
$ACADVER
1
AC1009
9
$EXTMIN
10
0
20
0
9
$EXTMAX
10
176.69
20
31.441
0
ENDSEC
0
SECTION
2
TABLES
0
TABLE
2
LAYER
70
2
0
LAYER
2
CUT
70
0
62
1
6
CONTINUOUS
0
LAYER
2
RASTER
70
0
62
7
6
CONTINUOUS
0
ENDTAB
0
ENDSEC
0
SECTION
2
ENTITIES
0
POLYLINE
8
CUT
66
1
70
1
0
VERTEX
8
CUT
10
8.781
20
27.339
30
0
0
VERTEX
8
CUT
10
12.367
20
27.349
30
0
0
VERTEX
8
CUT
10
13.593
20
25.51
30
0
0
VERTEX
8
CUT
10
14.481
20
25.275
30
0
0
VERTEX
8
CUT
10
15.074
20
25.469
30
0
0
VERTEX
8
CUT
10
15.758
20
26.389
30
0
0
VERTEX
8
CUT
10
17.577
20
26.614
30
0
0
VERTEX
8
CUT
10
18.966
20
27.369
30
0
0
VERTEX
8
CUT
10
22.266
20
27.441
30
0
0
VERTEX
8
CUT
10
22.94
20
27.196
30
0
0
VERTEX
8
CUT
10
23.114
20
24.305
30
0
0
VERTEX
8
CUT
10
23.675
20
23.232
30
0
0
VERTEX
8
CUT
10
23.696
20
20.494
30
0
0
VERTEX
8
CUT
10
23.512
20
19.657
30
0
0
VERTEX
8
CUT
10
22.419
20
18.41
30
0
0
VERTEX
8
CUT
10
22.419
20
17.685
30
0
0
VERTEX
8
CUT
10
22.827
20
17.174
30
0
0
VERTEX
8
CUT
10
24.666
20
16.97
30
0
0
VERTEX
8
CUT
10
25.024
20
16.204
30
0
0
VERTEX
8
CUT
10
24.973
20
12.986
30
0
0
VERTEX
8
CUT
10
23.706
20
11.494
30
0
0
VERTEX
8
CUT
10
23.287
20
9.87
30
0
0
VERTEX
8
CUT
10
21.908
20
9.615
30
0
0
VERTEX
8
CUT
10
21.152
20
9.043
30
0
0
VERTEX
8
CUT
10
19.967
20
8.9
30
0
0
VERTEX
8
CUT
10
19.242
20
8.399
30
0
0
VERTEX
8
CUT
10
18.098
20
8.317
30
0
0
VERTEX
8
CUT
10
17.107
20
7.776
30
0
0
VERTEX
8
CUT
10
12.52
20
7.704
30
0
0
VERTEX
8
CUT
10
11.335
20
5.273
30
0
0
VERTEX
8
CUT
10
10.773
20
4.813
30
0
0
VERTEX
8
CUT
10
7.269
20
4.783
30
0
0
VERTEX
8
CUT
10
4.858
20
5.436
30
0
0
VERTEX
8
CUT
10
4.644
20
6.55
30
0
0
VERTEX
8
CUT
10
4
20
7.643
30
0
0
VERTEX
8
CUT
10
4
20
10.769
30
0
0
VERTEX
8
CUT
10
4.46
20
11.433
30
0
0
VERTEX
8
CUT
10
7.259
20
12.475
30
0
0
VERTEX
8
CUT
10
6.431
20
14.978
30
0
0
VERTEX
8
CUT
10
6.758
20
24.152
30
0
0
VERTEX
8
CUT
10
6.983
20
24.642
30
0
0
VERTEX
8
CUT
10
7.841
20
25.01
30
0
0
VERTEX
8
CUT
10
8.321
20
26.777
30
0
0
SEQEND
8
CUT
0
POLYLINE
8
RASTER
66
1
70
1
0
VERTEX
8
RASTER
10
10.446
20
25.776
30
0
0
VERTEX
8
RASTER
10
10.855
20
25.633
30
0
0
VERTEX
8
RASTER
10
11.263
20
25.122
30
0
0
VERTEX
8
RASTER
10
11.641
20
24.376
30
0
0
VERTEX
8
RASTER
10
11.978
20
23.181
30
0
0
VERTEX
8
RASTER
10
12.969
20
23.661
30
0
0
VERTEX
8
RASTER
10
13.204
20
23.59
30
0
0
VERTEX
8
RASTER
10
13.378
20
23.355
30
0
0
VERTEX
8
RASTER
10
13.378
20
22.844
30
0
0
VERTEX
8
RASTER
10
13.48
20
22.537
30
0
0
VERTEX
8
RASTER
10
13.276
20
21.516
30
0
0
VERTEX
8
RASTER
10
13.072
20
21.107
30
0
0
VERTEX
8
RASTER
10
13.511
20
20.934
30
0
0
VERTEX
8
RASTER
10
13.684
20
20.699
30
0
0
VERTEX
8
RASTER
10
13.684
20
20.086
30
0
0
VERTEX
8
RASTER
10
13.378
20
19.166
30
0
0
VERTEX
8
RASTER
10
13.449
20
18.931
30
0
0
VERTEX
8
RASTER
10
13.613
20
18.788
30
0
0
VERTEX
8
RASTER
10
13.991
20
19.984
30
0
0
VERTEX
8
RASTER
10
14.267
20
20.525
30
0
0
VERTEX
8
RASTER
10
14.604
20
20.801
30
0
0
VERTEX
8
RASTER
10
14.982
20
20.627
30
0
0
VERTEX
8
RASTER
10
15.115
20
21.516
30
0
0
VERTEX
8
RASTER
10
15.319
20
22.129
30
0
0
VERTEX
8
RASTER
10
15.697
20
22.772
30
0
0
VERTEX
8
RASTER
10
16.034
20
22.844
30
0
0
VERTEX
8
RASTER
10
16.31
20
22.711
30
0
0
VERTEX
8
RASTER
10
16.371
20
22.568
30
0
0
VERTEX
8
RASTER
10
16.514
20
22.568
30
0
0
VERTEX
8
RASTER
10
16.647
20
23.457
30
0
0
VERTEX
8
RASTER
10
17.331
20
24.713
30
0
0
VERTEX
8
RASTER
10
17.669
20
24.887
30
0
0
VERTEX
8
RASTER
10
17.801
20
24.816
30
0
0
VERTEX
8
RASTER
10
18.557
20
23.896
30
0
0
VERTEX
8
RASTER
10
18.864
20
24.407
30
0
0
VERTEX
8
RASTER
10
19.681
20
25.224
30
0
0
VERTEX
8
RASTER
10
20.325
20
25.602
30
0
0
VERTEX
8
RASTER
10
21.04
20
25.806
30
0
0
VERTEX
8
RASTER
10
21.173
20
25.735
30
0
0
VERTEX
8
RASTER
10
21.346
20
25.5
30
0
0
VERTEX
8
RASTER
10
21.346
20
24.376
30
0
0
VERTEX
8
RASTER
10
21.04
20
23.253
30
0
0
VERTEX
8
RASTER
10
20.631
20
22.435
30
0
0
VERTEX
8
RASTER
10
20.733
20
22.333
30
0
0
VERTEX
8
RASTER
10
21.551
20
22.231
30
0
0
VERTEX
8
RASTER
10
21.888
20
22.057
30
0
0
VERTEX
8
RASTER
10
21.959
20
21.618
30
0
0
VERTEX
8
RASTER
10
21.683
20
21.077
30
0
0
VERTEX
8
RASTER
10
21.418
20
20.831
30
0
0
VERTEX
8
RASTER
10
21.275
20
20.566
30
0
0
VERTEX
8
RASTER
10
20.396
20
19.912
30
0
0
VERTEX
8
RASTER
10
20.396
20
19.749
30
0
0
VERTEX
8
RASTER
10
20.631
20
19.473
30
0
0
VERTEX
8
RASTER
10
20.457
20
18.931
30
0
0
VERTEX
8
RASTER
10
19.947
20
18.421
30
0
0
VERTEX
8
RASTER
10
19.068
20
17.869
30
0
0
VERTEX
8
RASTER
10
19.027
20
17.767
30
0
0
VERTEX
8
RASTER
10
19.303
20
17.532
30
0
0
VERTEX
8
RASTER
10
19.303
20
17.225
30
0
0
VERTEX
8
RASTER
10
19.129
20
16.888
30
0
0
VERTEX
8
RASTER
10
17.801
20
15.826
30
0
0
VERTEX
8
RASTER
10
18.179
20
15.795
30
0
0
VERTEX
8
RASTER
10
18.384
20
15.897
30
0
0
VERTEX
8
RASTER
10
18.762
20
15.621
30
0
0
VERTEX
8
RASTER
10
19.916
20
16.306
30
0
0
VERTEX
8
RASTER
10
20.529
20
16.408
30
0
0
VERTEX
8
RASTER
10
20.835
20
16.102
30
0
0
VERTEX
8
RASTER
10
20.764
20
15.315
30
0
0
VERTEX
8
RASTER
10
22.776
20
15.387
30
0
0
VERTEX
8
RASTER
10
23.318
20
15.111
30
0
0
VERTEX
8
RASTER
10
23.389
20
14.671
30
0
0
VERTEX
8
RASTER
10
23.216
20
14.334
30
0
0
VERTEX
8
RASTER
10
22.398
20
13.517
30
0
0
VERTEX
8
RASTER
10
21.244
20
13.037
30
0
0
VERTEX
8
RASTER
10
21.785
20
12.455
30
0
0
VERTEX
8
RASTER
10
21.959
20
12.118
30
0
0
VERTEX
8
RASTER
10
21.888
20
11.678
30
0
0
VERTEX
8
RASTER
10
21.653
20
11.505
30
0
0
VERTEX
8
RASTER
10
21.244
20
11.402
30
0
0
VERTEX
8
RASTER
10
19.916
20
11.402
30
0
0
VERTEX
8
RASTER
10
19.814
20
11.3
30
0
0
VERTEX
8
RASTER
10
19.742
20
10.861
30
0
0
VERTEX
8
RASTER
10
19.507
20
10.687
30
0
0
VERTEX
8
RASTER
10
18.179
20
10.687
30
0
0
VERTEX
8
RASTER
10
17.975
20
10.789
30
0
0
VERTEX
8
RASTER
10
17.904
20
10.759
30
0
0
VERTEX
8
RASTER
10
17.975
20
10.585
30
0
0
VERTEX
8
RASTER
10
17.904
20
10.146
30
0
0
VERTEX
8
RASTER
10
17.464
20
9.972
30
0
0
VERTEX
8
RASTER
10
16.034
20
10.074
30
0
0
VERTEX
8
RASTER
10
15.901
20
9.594
30
0
0
VERTEX
8
RASTER
10
15.625
20
9.461
30
0
0
VERTEX
8
RASTER
10
14.297
20
9.461
30
0
0
VERTEX
8
RASTER
10
13.889
20
9.564
30
0
0
VERTEX
8
RASTER
10
13.143
20
9.942
30
0
0
VERTEX
8
RASTER
10
12.428
20
10.759
30
0
0
VERTEX
8
RASTER
10
10.855
20
10.146
30
0
0
VERTEX
8
RASTER
10
10.313
20
8.44
30
0
0
VERTEX
8
RASTER
10
9.629
20
6.877
30
0
0
VERTEX
8
RASTER
10
9.425
20
6.57
30
0
0
VERTEX
8
RASTER
10
9.087
20
6.397
30
0
0
VERTEX
8
RASTER
10
8.781
20
6.397
30
0
0
VERTEX
8
RASTER
10
8.444
20
6.57
30
0
0
VERTEX
8
RASTER
10
8.27
20
6.908
30
0
0
VERTEX
8
RASTER
10
8.27
20
7.112
30
0
0
VERTEX
8
RASTER
10
8.75
20
8.001
30
0
0
VERTEX
8
RASTER
10
8.137
20
7.551
30
0
0
VERTEX
8
RASTER
10
7.688
20
7.081
30
0
0
VERTEX
8
RASTER
10
7.146
20
6.805
30
0
0
VERTEX
8
RASTER
10
6.84
20
6.805
30
0
0
VERTEX
8
RASTER
10
6.564
20
6.938
30
0
0
VERTEX
8
RASTER
10
6.431
20
7.214
30
0
0
VERTEX
8
RASTER
10
6.503
20
7.755
30
0
0
VERTEX
8
RASTER
10
7.627
20
8.818
30
0
0
VERTEX
8
RASTER
10
7.351
20
8.848
30
0
0
VERTEX
8
RASTER
10
6.84
20
8.644
30
0
0
VERTEX
8
RASTER
10
6.431
20
8.644
30
0
0
VERTEX
8
RASTER
10
6.227
20
8.542
30
0
0
VERTEX
8
RASTER
10
5.788
20
8.818
30
0
0
VERTEX
8
RASTER
10
5.716
20
9.461
30
0
0
VERTEX
8
RASTER
10
5.788
20
9.594
30
0
0
VERTEX
8
RASTER
10
6.125
20
9.768
30
0
0
VERTEX
8
RASTER
10
8.27
20
10.381
30
0
0
VERTEX
8
RASTER
10
9.731
20
11.065
30
0
0
VERTEX
8
RASTER
10
10.007
20
11.811
30
0
0
VERTEX
8
RASTER
10
10.211
20
12.833
30
0
0
VERTEX
8
RASTER
10
10.211
20
13.446
30
0
0
VERTEX
8
RASTER
10
9.465
20
13.824
30
0
0
VERTEX
8
RASTER
10
8.852
20
14.436
30
0
0
VERTEX
8
RASTER
10
8.372
20
15.284
30
0
0
VERTEX
8
RASTER
10
8.168
20
15.999
30
0
0
VERTEX
8
RASTER
10
8.24
20
16.745
30
0
0
VERTEX
8
RASTER
10
8.679
20
16.919
30
0
0
VERTEX
8
RASTER
10
8.27
20
18.043
30
0
0
VERTEX
8
RASTER
10
8.27
20
18.553
30
0
0
VERTEX
8
RASTER
10
8.342
20
18.686
30
0
0
VERTEX
8
RASTER
10
8.781
20
18.86
30
0
0
VERTEX
8
RASTER
10
8.27
20
20.188
30
0
0
VERTEX
8
RASTER
10
8.27
20
20.699
30
0
0
VERTEX
8
RASTER
10
8.342
20
20.831
30
0
0
VERTEX
8
RASTER
10
8.781
20
21.005
30
0
0
VERTEX
8
RASTER
10
8.474
20
21.822
30
0
0
VERTEX
8
RASTER
10
8.403
20
22.568
30
0
0
VERTEX
8
RASTER
10
8.474
20
22.844
30
0
0
VERTEX
8
RASTER
10
8.679
20
23.048
30
0
0
VERTEX
8
RASTER
10
9.087
20
23.048
30
0
0
VERTEX
8
RASTER
10
9.772
20
22.772
30
0
0
VERTEX
8
RASTER
10
9.7
20
24.07
30
0
0
VERTEX
8
RASTER
10
9.905
20
24.887
30
0
0
VERTEX
8
RASTER
10
10.283
20
25.633
30
0
0
SEQEND
8
RASTER
0
POLYLINE
8
RASTER
66
1
70
1
0
VERTEX
8
RASTER
10
20.907
20
25.367
30
0
0
VERTEX
8
RASTER
10
19.783
20
24.816
30
0
0
VERTEX
8
RASTER
10
19.068
20
23.998
30
0
0
VERTEX
8
RASTER
10
18.69
20
23.253
30
0
0
VERTEX
8
RASTER
10
18.69
20
22.435
30
0
0
VERTEX
8
RASTER
10
18.792
20
22.231
30
0
0
VERTEX
8
RASTER
10
18.69
20
22.027
30
0
0
VERTEX
8
RASTER
10
18.721
20
21.751
30
0
0
VERTEX
8
RASTER
10
19.742
20
22.303
30
0
0
VERTEX
8
RASTER
10
20.355
20
22.813
30
0
0
VERTEX
8
RASTER
10
20.938
20
24.07
30
0
0
VERTEX
8
RASTER
10
20.835
20
24.274
30
0
0
VERTEX
8
RASTER
10
20.938
20
24.478
30
0
0
SEQEND
8
RASTER
0
POLYLINE
8
RASTER
66
1
70
1
0
VERTEX
8
RASTER
10
10.62
20
25.296
30
0
0
VERTEX
8
RASTER
10
10.415
20
24.989
30
0
0
VERTEX
8
RASTER
10
10.109
20
24.07
30
0
0
VERTEX
8
RASTER
10
10.007
20
23.15
30
0
0
VERTEX
8
RASTER
10
10.283
20
22.303
30
0
0
VERTEX
8
RASTER
10
10.753
20
21.955
30
0
0
VERTEX
8
RASTER
10
10.896
20
21.69
30
0
0
VERTEX
8
RASTER
10
11.028
20
21.618
30
0
0
VERTEX
8
RASTER
10
11.131
20
21.72
30
0
0
VERTEX
8
RASTER
10
11.263
20
22.303
30
0
0
VERTEX
8
RASTER
10
11.539
20
22.64
30
0
0
VERTEX
8
RASTER
10
11.611
20
23.222
30
0
0
VERTEX
8
RASTER
10
11.437
20
23.253
30
0
0
VERTEX
8
RASTER
10
11.335
20
24.07
30
0
0
VERTEX
8
RASTER
10
10.753
20
25.224
30
0
0
SEQEND
8
RASTER
0
POLYLINE
8
RASTER
66
1
70
1
0
VERTEX
8
RASTER
10
17.669
20
24.376
30
0
0
VERTEX
8
RASTER
10
17.536
20
24.305
30
0
0
VERTEX
8
RASTER
10
17.056
20
23.355
30
0
0
VERTEX
8
RASTER
10
16.851
20
22.64
30
0
0
VERTEX
8
RASTER
10
16.851
20
21.822
30
0
0
VERTEX
8
RASTER
10
17.495
20
19.81
30
0
0
VERTEX
8
RASTER
10
18.179
20
19.881
30
0
0
VERTEX
8
RASTER
10
18.384
20
19.984
30
0
0
VERTEX
8
RASTER
10
19.507
20
19.984
30
0
0
VERTEX
8
RASTER
10
20.662
20
20.566
30
0
0
VERTEX
8
RASTER
10
21.173
20
21.077
30
0
0
VERTEX
8
RASTER
10
21.581
20
21.69
30
0
0
VERTEX
8
RASTER
10
21.581
20
21.853
30
0
0
VERTEX
8
RASTER
10
21.448
20
21.925
30
0
0
VERTEX
8
RASTER
10
19.916
20
21.925
30
0
0
VERTEX
8
RASTER
10
18.864
20
21.444
30
0
0
VERTEX
8
RASTER
10
18.557
20
21.24
30
0
0
VERTEX
8
RASTER
10
18.312
20
20.872
30
0
0
VERTEX
8
RASTER
10
18.149
20
20.872
30
0
0
VERTEX
8
RASTER
10
18.108
20
20.974
30
0
0
VERTEX
8
RASTER
10
18.384
20
21.618
30
0
0
VERTEX
8
RASTER
10
18.384
20
22.946
30
0
0
VERTEX
8
RASTER
10
18.108
20
23.692
30
0
0
VERTEX
8
RASTER
10
17.801
20
24.305
30
0
0
SEQEND
8
RASTER
0
POLYLINE
8
RASTER
66
1
70
1
0
VERTEX
8
RASTER
10
12.765
20
23.253
30
0
0
VERTEX
8
RASTER
10
12.591
20
23.12
30
0
0
VERTEX
8
RASTER
10
12.632
20
22.977
30
0
0
VERTEX
8
RASTER
10
12.459
20
23.048
30
0
0
VERTEX
8
RASTER
10
11.917
20
22.67
30
0
0
VERTEX
8
RASTER
10
11.876
20
22.405
30
0
0
VERTEX
8
RASTER
10
11.406
20
21.853
30
0
0
VERTEX
8
RASTER
10
11.233
20
21.516
30
0
0
VERTEX
8
RASTER
10
11.1
20
20.525
30
0
0
VERTEX
8
RASTER
10
10.926
20
20.699
30
0
0
VERTEX
8
RASTER
10
10.926
20
20.903
30
0
0
VERTEX
8
RASTER
10
10.65
20
21.444
30
0
0
VERTEX
8
RASTER
10
10.14
20
22.057
30
0
0
VERTEX
8
RASTER
10
8.812
20
22.711
30
0
0
VERTEX
8
RASTER
10
8.781
20
22.027
30
0
0
VERTEX
8
RASTER
10
9.261
20
20.872
30
0
0
VERTEX
8
RASTER
10
9.568
20
20.566
30
0
0
VERTEX
8
RASTER
10
10.446
20
20.116
30
0
0
VERTEX
8
RASTER
10
10.998
20
19.544
30
0
0
VERTEX
8
RASTER
10
11.161
20
19.544
30
0
0
VERTEX
8
RASTER
10
11.304
20
19.81
30
0
0
VERTEX
8
RASTER
10
12.285
20
20.668
30
0
0
VERTEX
8
RASTER
10
12.765
20
21.312
30
0
0
VERTEX
8
RASTER
10
13.072
20
22.435
30
0
0
VERTEX
8
RASTER
10
13.072
20
23.15
30
0
0
VERTEX
8
RASTER
10
12.969
20
23.253
30
0
0
SEQEND
8
RASTER
0
POLYLINE
8
RASTER
66
1
70
1
0
VERTEX
8
RASTER
10
15.932
20
22.333
30
0
0
VERTEX
8
RASTER
10
15.421
20
21.209
30
0
0
VERTEX
8
RASTER
10
15.319
20
20.188
30
0
0
VERTEX
8
RASTER
10
15.932
20
18.656
30
0
0
VERTEX
8
RASTER
10
16.034
20
18.247
30
0
0
VERTEX
8
RASTER
10
15.963
20
17.767
30
0
0
VERTEX
8
RASTER
10
16.953
20
18.043
30
0
0
VERTEX
8
RASTER
10
18.384
20
18.043
30
0
0
VERTEX
8
RASTER
10
19.436
20
18.523
30
0
0
VERTEX
8
RASTER
10
20.049
20
19.034
30
0
0
VERTEX
8
RASTER
10
20.222
20
19.371
30
0
0
VERTEX
8
RASTER
10
20.12
20
19.473
30
0
0
VERTEX
8
RASTER
10
19.405
20
19.677
30
0
0
VERTEX
8
RASTER
10
18.384
20
19.677
30
0
0
VERTEX
8
RASTER
10
17.331
20
19.299
30
0
0
VERTEX
8
RASTER
10
16.882
20
18.89
30
0
0
VERTEX
8
RASTER
10
16.953
20
20.494
30
0
0
VERTEX
8
RASTER
10
16.851
20
20.903
30
0
0
VERTEX
8
RASTER
10
16.473
20
21.751
30
0
0
SEQEND
8
RASTER
0
POLYLINE
8
RASTER
66
1
70
1
0
VERTEX
8
RASTER
10
13.276
20
20.699
30
0
0
VERTEX
8
RASTER
10
12.53
20
20.423
30
0
0
VERTEX
8
RASTER
10
11.611
20
19.606
30
0
0
VERTEX
8
RASTER
10
11.233
20
18.962
30
0
0
VERTEX
8
RASTER
10
11.1
20
18.482
30
0
0
VERTEX
8
RASTER
10
10.753
20
19.299
30
0
0
VERTEX
8
RASTER
10
10.14
20
19.912
30
0
0
VERTEX
8
RASTER
10
8.985
20
20.494
30
0
0
VERTEX
8
RASTER
10
8.679
20
20.597
30
0
0
VERTEX
8
RASTER
10
8.577
20
20.494
30
0
0
VERTEX
8
RASTER
10
8.781
20
19.779
30
0
0
VERTEX
8
RASTER
10
9.363
20
18.727
30
0
0
VERTEX
8
RASTER
10
10.446
20
18.073
30
0
0
VERTEX
8
RASTER
10
11.1
20
17.358
30
0
0
VERTEX
8
RASTER
10
11.815
20
18.073
30
0
0
VERTEX
8
RASTER
10
12.081
20
18.216
30
0
0
VERTEX
8
RASTER
10
12.898
20
19.136
30
0
0
VERTEX
8
RASTER
10
13.378
20
20.494
30
0
0
SEQEND
8
RASTER
0
POLYLINE
8
RASTER
66
1
70
1
0
VERTEX
8
RASTER
10
14.675
20
20.362
30
0
0
VERTEX
8
RASTER
10
14.502
20
20.188
30
0
0
VERTEX
8
RASTER
10
14.093
20
18.962
30
0
0
VERTEX
8
RASTER
10
14.093
20
18.043
30
0
0
VERTEX
8
RASTER
10
14.604
20
16.715
30
0
0
VERTEX
8
RASTER
10
14.706
20
16.204
30
0
0
VERTEX
8
RASTER
10
14.635
20
15.928
30
0
0
VERTEX
8
RASTER
10
15.319
20
16.102
30
0
0
VERTEX
8
RASTER
10
17.158
20
16.102
30
0
0
VERTEX
8
RASTER
10
18.006
20
16.48
30
0
0
VERTEX
8
RASTER
10
18.823
20
17.195
30
0
0
VERTEX
8
RASTER
10
18.894
20
17.327
30
0
0
VERTEX
8
RASTER
10
18.69
20
17.532
30
0
0
VERTEX
8
RASTER
10
17.26
20
17.736
30
0
0
VERTEX
8
RASTER
10
16.106
20
17.358
30
0
0
VERTEX
8
RASTER
10
15.35
20
16.745
30
0
0
VERTEX
8
RASTER
10
15.319
20
17.021
30
0
0
VERTEX
8
RASTER
10
15.523
20
17.327
30
0
0
VERTEX
8
RASTER
10
15.523
20
18.656
30
0
0
VERTEX
8
RASTER
10
15.247
20
19.401
30
0
0
SEQEND
8
RASTER
0
POLYLINE
8
RASTER
66
1
70
1
0
VERTEX
8
RASTER
10
13.245
20
18.625
30
0
0
VERTEX
8
RASTER
10
13.143
20
18.584
30
0
0
VERTEX
8
RASTER
10
12.969
20
18.247
30
0
0
VERTEX
8
RASTER
10
12.765
20
17.634
30
0
0
VERTEX
8
RASTER
10
12.663
20
16.204
30
0
0
VERTEX
8
RASTER
10
13.041
20
15.254
30
0
0
VERTEX
8
RASTER
10
13.306
20
15.009
30
0
0
VERTEX
8
RASTER
10
13.449
20
14.743
30
0
0
VERTEX
8
RASTER
10
13.306
20
14.436
30
0
0
VERTEX
8
RASTER
10
12.591
20
13.517
30
0
0
VERTEX
8
RASTER
10
12.121
20
13.068
30
0
0
VERTEX
8
RASTER
10
11.978
20
12.802
30
0
0
VERTEX
8
RASTER
10
10.14
20
10.861
30
0
0
VERTEX
8
RASTER
10
9.292
20
10.381
30
0
0
VERTEX
8
RASTER
10
8.27
20
9.972
30
0
0
VERTEX
8
RASTER
10
6.125
20
9.359
30
0
0
VERTEX
8
RASTER
10
6.023
20
9.257
30
0
0
VERTEX
8
RASTER
10
6.053
20
8.981
30
0
0
VERTEX
8
RASTER
10
6.533
20
8.951
30
0
0
VERTEX
8
RASTER
10
6.942
20
9.053
30
0
0
VERTEX
8
RASTER
10
9.087
20
9.768
30
0
0
VERTEX
8
RASTER
10
10.62
20
10.483
30
0
0
VERTEX
8
RASTER
10
12.561
20
11.198
30
0
0
VERTEX
8
RASTER
10
12.734
20
11.167
30
0
0
VERTEX
8
RASTER
10
12.939
20
10.759
30
0
0
VERTEX
8
RASTER
10
13.449
20
10.248
30
0
0
VERTEX
8
RASTER
10
13.991
20
9.972
30
0
0
VERTEX
8
RASTER
10
14.91
20
9.768
30
0
0
VERTEX
8
RASTER
10
15.595
20
9.901
30
0
0
VERTEX
8
RASTER
10
15.452
20
10.309
30
0
0
VERTEX
8
RASTER
10
14.839
20
10.922
30
0
0
VERTEX
8
RASTER
10
14.022
20
11.433
30
0
0
VERTEX
8
RASTER
10
13.276
20
11.709
30
0
0
VERTEX
8
RASTER
10
14.022
20
12.291
30
0
0
VERTEX
8
RASTER
10
14.297
20
12.833
30
0
0
VERTEX
8
RASTER
10
14.502
20
13.446
30
0
0
VERTEX
8
RASTER
10
14.502
20
13.65
30
0
0
VERTEX
8
RASTER
10
14.297
20
13.854
30
0
0
VERTEX
8
RASTER
10
13.991
20
13.854
30
0
0
VERTEX
8
RASTER
10
13.654
20
13.681
30
0
0
VERTEX
8
RASTER
10
13.511
20
13.415
30
0
0
VERTEX
8
RASTER
10
13.143
20
13.068
30
0
0
VERTEX
8
RASTER
10
12.663
20
12.22
30
0
0
VERTEX
8
RASTER
10
12.632
20
11.637
30
0
0
VERTEX
8
RASTER
10
10.855
20
10.922
30
0
0
VERTEX
8
RASTER
10
11.978
20
12.087
30
0
0
VERTEX
8
RASTER
10
12.121
20
12.352
30
0
0
VERTEX
8
RASTER
10
13.409
20
13.824
30
0
0
VERTEX
8
RASTER
10
13.756
20
14.396
30
0
0
VERTEX
8
RASTER
10
14.706
20
14.161
30
0
0
VERTEX
8
RASTER
10
15.728
20
14.161
30
0
0
VERTEX
8
RASTER
10
16.473
20
14.436
30
0
0
VERTEX
8
RASTER
10
17.086
20
14.845
30
0
0
VERTEX
8
RASTER
10
17.566
20
15.387
30
0
0
VERTEX
8
RASTER
10
17.26
20
15.591
30
0
0
VERTEX
8
RASTER
10
16.851
20
15.693
30
0
0
VERTEX
8
RASTER
10
16.238
20
15.693
30
0
0
VERTEX
8
RASTER
10
16.034
20
15.795
30
0
0
VERTEX
8
RASTER
10
15.728
20
15.693
30
0
0
VERTEX
8
RASTER
10
15.217
20
15.693
30
0
0
VERTEX
8
RASTER
10
14.471
20
15.315
30
0
0
VERTEX
8
RASTER
10
13.919
20
14.804
30
0
0
VERTEX
8
RASTER
10
13.919
20
15.049
30
0
0
VERTEX
8
RASTER
10
14.297
20
15.999
30
0
0
VERTEX
8
RASTER
10
14.297
20
16.51
30
0
0
VERTEX
8
RASTER
10
13.96
20
17.603
30
0
0
VERTEX
8
RASTER
10
13.511
20
18.38
30
0
0
SEQEND
8
RASTER
0
POLYLINE
8
RASTER
66
1
70
1
0
VERTEX
8
RASTER
10
8.75
20
18.421
30
0
0
VERTEX
8
RASTER
10
8.607
20
18.318
30
0
0
VERTEX
8
RASTER
10
8.679
20
18.043
30
0
0
VERTEX
8
RASTER
10
8.883
20
17.43
30
0
0
VERTEX
8
RASTER
10
9.261
20
16.786
30
0
0
VERTEX
8
RASTER
10
10.344
20
16.03
30
0
0
VERTEX
8
RASTER
10
10.896
20
15.458
30
0
0
VERTEX
8
RASTER
10
11.059
20
15.458
30
0
0
VERTEX
8
RASTER
10
11.406
20
15.826
30
0
0
VERTEX
8
RASTER
10
12.183
20
16.377
30
0
0
VERTEX
8
RASTER
10
12.428
20
18.114
30
0
0
VERTEX
8
RASTER
10
11.406
20
17.256
30
0
0
VERTEX
8
RASTER
10
11.131
20
16.306
30
0
0
VERTEX
8
RASTER
10
11.028
20
16.204
30
0
0
VERTEX
8
RASTER
10
10.926
20
16.306
30
0
0
VERTEX
8
RASTER
10
10.926
20
16.817
30
0
0
VERTEX
8
RASTER
10
10.65
20
17.358
30
0
0
VERTEX
8
RASTER
10
10.14
20
17.869
30
0
0
VERTEX
8
RASTER
10
9.394
20
18.247
30
0
0
SEQEND
8
RASTER
0
POLYLINE
8
RASTER
66
1
70
1
0
VERTEX
8
RASTER
10
8.577
20
16.51
30
0
0
VERTEX
8
RASTER
10
8.474
20
16.408
30
0
0
VERTEX
8
RASTER
10
8.577
20
15.897
30
0
0
VERTEX
8
RASTER
10
9.159
20
14.743
30
0
0
VERTEX
8
RASTER
10
9.772
20
14.232
30
0
0
VERTEX
8
RASTER
10
10.65
20
13.885
30
0
0
VERTEX
8
RASTER
10
10.722
20
13.752
30
0
0
VERTEX
8
RASTER
10
10.62
20
13.548
30
0
0
VERTEX
8
RASTER
10
10.518
20
12.118
30
0
0
VERTEX
8
RASTER
10
10.313
20
11.505
30
0
0
VERTEX
8
RASTER
10
10.415
20
11.402
30
0
0
VERTEX
8
RASTER
10
10.753
20
11.678
30
0
0
VERTEX
8
RASTER
10
11.028
20
12.322
30
0
0
VERTEX
8
RASTER
10
11.028
20
13.037
30
0
0
VERTEX
8
RASTER
10
11.131
20
13.241
30
0
0
VERTEX
8
RASTER
10
11.161
20
13.824
30
0
0
VERTEX
8
RASTER
10
12.285
20
14.436
30
0
0
VERTEX
8
RASTER
10
12.663
20
14.978
30
0
0
VERTEX
8
RASTER
10
12.326
20
15.867
30
0
0
VERTEX
8
RASTER
10
12.152
20
15.897
30
0
0
VERTEX
8
RASTER
10
11.713
20
15.621
30
0
0
VERTEX
8
RASTER
10
11.304
20
15.213
30
0
0
VERTEX
8
RASTER
10
10.957
20
14.396
30
0
0
VERTEX
8
RASTER
10
10.824
20
14.569
30
0
0
VERTEX
8
RASTER
10
10.824
20
14.876
30
0
0
VERTEX
8
RASTER
10
10.65
20
15.213
30
0
0
VERTEX
8
RASTER
10
10.14
20
15.724
30
0
0
SEQEND
8
RASTER
0
POLYLINE
8
RASTER
66
1
70
1
0
VERTEX
8
RASTER
10
20.396
20
16.071
30
0
0
VERTEX
8
RASTER
10
19.375
20
15.621
30
0
0
VERTEX
8
RASTER
10
18.762
20
15.009
30
0
0
VERTEX
8
RASTER
10
17.975
20
13.037
30
0
0
VERTEX
8
RASTER
10
18.925
20
12.352
30
0
0
VERTEX
8
RASTER
10
19.17
20
12.087
30
0
0
VERTEX
8
RASTER
10
19.507
20
11.913
30
0
0
VERTEX
8
RASTER
10
19.814
20
11.811
30
0
0
VERTEX
8
RASTER
10
21.244
20
11.811
30
0
0
VERTEX
8
RASTER
10
21.52
20
11.944
30
0
0
VERTEX
8
RASTER
10
21.479
20
12.148
30
0
0
VERTEX
8
RASTER
10
21.275
20
12.455
30
0
0
VERTEX
8
RASTER
10
20.662
20
12.965
30
0
0
VERTEX
8
RASTER
10
19.712
20
13.343
30
0
0
VERTEX
8
RASTER
10
19.201
20
13.343
30
0
0
VERTEX
8
RASTER
10
18.997
20
13.241
30
0
0
VERTEX
8
RASTER
10
18.894
20
13.343
30
0
0
VERTEX
8
RASTER
10
19.334
20
13.619
30
0
0
VERTEX
8
RASTER
10
19.947
20
14.334
30
0
0
VERTEX
8
RASTER
10
20.325
20
15.182
30
0
0
VERTEX
8
RASTER
10
20.427
20
15.591
30
0
0
SEQEND
8
RASTER
0
POLYLINE
8
RASTER
66
1
70
1
0
VERTEX
8
RASTER
10
18.281
20
15.489
30
0
0
VERTEX
8
RASTER
10
16.821
20
14.089
30
0
0
VERTEX
8
RASTER
10
16.065
20
12.455
30
0
0
VERTEX
8
RASTER
10
17.086
20
11.74
30
0
0
VERTEX
8
RASTER
10
17.536
20
11.27
30
0
0
VERTEX
8
RASTER
10
17.873
20
11.096
30
0
0
VERTEX
8
RASTER
10
19.099
20
10.994
30
0
0
VERTEX
8
RASTER
10
19.375
20
11.127
30
0
0
VERTEX
8
RASTER
10
19.232
20
11.433
30
0
0
VERTEX
8
RASTER
10
18.925
20
11.842
30
0
0
VERTEX
8
RASTER
10
18.414
20
12.25
30
0
0
VERTEX
8
RASTER
10
17.464
20
12.73
30
0
0
VERTEX
8
RASTER
10
16.984
20
12.557
30
0
0
VERTEX
8
RASTER
10
17.127
20
12.863
30
0
0
VERTEX
8
RASTER
10
17.393
20
13.006
30
0
0
VERTEX
8
RASTER
10
17.801
20
13.415
30
0
0
VERTEX
8
RASTER
10
18.179
20
14.161
30
0
0
VERTEX
8
RASTER
10
18.384
20
14.876
30
0
0
VERTEX
8
RASTER
10
18.384
20
15.387
30
0
0
SEQEND
8
RASTER
0
POLYLINE
8
RASTER
66
1
70
1
0
VERTEX
8
RASTER
10
21.551
20
15.08
30
0
0
VERTEX
8
RASTER
10
21.04
20
14.978
30
0
0
VERTEX
8
RASTER
10
20.498
20
14.702
30
0
0
VERTEX
8
RASTER
10
19.844
20
13.681
30
0
0
VERTEX
8
RASTER
10
20.529
20
13.446
30
0
0
VERTEX
8
RASTER
10
21.04
20
13.446
30
0
0
VERTEX
8
RASTER
10
22.194
20
13.926
30
0
0
VERTEX
8
RASTER
10
22.909
20
14.641
30
0
0
VERTEX
8
RASTER
10
22.981
20
14.774
30
0
0
VERTEX
8
RASTER
10
22.909
20
14.906
30
0
0
VERTEX
8
RASTER
10
22.266
20
15.08
30
0
0
SEQEND
8
RASTER
0
POLYLINE
8
RASTER
66
1
70
1
0
VERTEX
8
RASTER
10
12.428
20
14.028
30
0
0
VERTEX
8
RASTER
10
11.509
20
13.476
30
0
0
VERTEX
8
RASTER
10
11.468
20
12.965
30
0
0
VERTEX
8
RASTER
10
11.611
20
12.965
30
0
0
VERTEX
8
RASTER
10
11.713
20
13.17
30
0
0
VERTEX
8
RASTER
10
12.387
20
13.824
30
0
0
SEQEND
8
RASTER
0
POLYLINE
8
RASTER
66
1
70
1
0
VERTEX
8
RASTER
10
16.238
20
13.956
30
0
0
VERTEX
8
RASTER
10
15.728
20
13.752
30
0
0
VERTEX
8
RASTER
10
14.941
20
13.619
30
0
0
VERTEX
8
RASTER
10
14.604
20
12.73
30
0
0
VERTEX
8
RASTER
10
14.124
20
11.842
30
0
0
VERTEX
8
RASTER
10
15.043
20
11.229
30
0
0
VERTEX
8
RASTER
10
15.39
20
10.861
30
0
0
VERTEX
8
RASTER
10
16.034
20
10.483
30
0
0
VERTEX
8
RASTER
10
16.341
20
10.381
30
0
0
VERTEX
8
RASTER
10
17.464
20
10.381
30
0
0
VERTEX
8
RASTER
10
17.566
20
10.585
30
0
0
VERTEX
8
RASTER
10
17.393
20
10.922
30
0
0
VERTEX
8
RASTER
10
16.882
20
11.433
30
0
0
VERTEX
8
RASTER
10
15.319
20
12.22
30
0
0
VERTEX
8
RASTER
10
15.86
20
12.802
30
0
0
VERTEX
8
RASTER
10
16.341
20
13.854
30
0
0
SEQEND
8
RASTER
0
POLYLINE
8
RASTER
66
1
70
1
0
VERTEX
8
RASTER
10
9.7
20
9.87
30
0
0
VERTEX
8
RASTER
10
8.444
20
9.083
30
0
0
VERTEX
8
RASTER
10
7.381
20
8.001
30
0
0
VERTEX
8
RASTER
10
6.809
20
7.551
30
0
0
VERTEX
8
RASTER
10
6.768
20
7.245
30
0
0
VERTEX
8
RASTER
10
7.014
20
7.142
30
0
0
VERTEX
8
RASTER
10
7.688
20
7.592
30
0
0
VERTEX
8
RASTER
10
8.403
20
8.307
30
0
0
VERTEX
8
RASTER
10
8.546
20
8.573
30
0
0
VERTEX
8
RASTER
10
9.731
20
9.737
30
0
0
SEQEND
8
RASTER
0
POLYLINE
8
RASTER
66
1
70
1
0
VERTEX
8
RASTER
10
10.313
20
9.87
30
0
0
VERTEX
8
RASTER
10
10.18
20
9.799
30
0
0
VERTEX
8
RASTER
10
9.67
20
9.083
30
0
0
VERTEX
8
RASTER
10
8.679
20
7.112
30
0
0
VERTEX
8
RASTER
10
8.75
20
6.877
30
0
0
VERTEX
8
RASTER
10
8.883
20
6.805
30
0
0
VERTEX
8
RASTER
10
9.118
20
6.877
30
0
0
VERTEX
8
RASTER
10
9.598
20
7.725
30
0
0
VERTEX
8
RASTER
10
10.109
20
8.951
30
0
0
VERTEX
8
RASTER
10
10.385
20
9.799
30
0
0
SEQEND
8
RASTER
0
POLYLINE
8
CUT
66
1
70
1
0
VERTEX
8
CUT
10
34.182
20
27.441
30
0
0
VERTEX
8
CUT
10
39.321
20
27.274
30
0
0
VERTEX
8
CUT
10
40.765
20
26.753
30
0
0
VERTEX
8
CUT
10
41.423
20
25.839
30
0
0
VERTEX
8
CUT
10
41.522
20
22.008
30
0
0
VERTEX
8
CUT
10
42.612
20
19.561
30
0
0
VERTEX
8
CUT
10
42.976
20
17.272
30
0
0
VERTEX
8
CUT
10
42.681
20
7.643
30
0
0
VERTEX
8
CUT
10
42.563
20
6.877
30
0
0
VERTEX
8
CUT
10
42.013
20
6.051
30
0
0
VERTEX
8
CUT
10
39.93
20
4.99
30
0
0
VERTEX
8
CUT
10
38.063
20
4.695
30
0
0
VERTEX
8
CUT
10
32.374
20
4.902
30
0
0
VERTEX
8
CUT
10
30.252
20
5.825
30
0
0
VERTEX
8
CUT
10
29.397
20
7.132
30
0
0
VERTEX
8
CUT
10
29.024
20
17.665
30
0
0
VERTEX
8
CUT
10
29.378
20
19.669
30
0
0
VERTEX
8
CUT
10
30.429
20
21.762
30
0
0
VERTEX
8
CUT
10
30.566
20
25.849
30
0
0
VERTEX
8
CUT
10
30.969
20
26.527
30
0
0
VERTEX
8
CUT
10
31.824
20
27.048
30
0
0
SEQEND
8
CUT
0
POLYLINE
8
RASTER
66
1
70
1
0
VERTEX
8
RASTER
10
34.949
20
25.79
30
0
0
VERTEX
8
RASTER
10
36.982
20
25.82
30
0
0
VERTEX
8
RASTER
10
37.179
20
25.722
30
0
0
VERTEX
8
RASTER
10
37.572
20
25.722
30
0
0
VERTEX
8
RASTER
10
38.653
20
25.427
30
0
0
VERTEX
8
RASTER
10
39.37
20
25.063
30
0
0
VERTEX
8
RASTER
10
39.566
20
24.867
30
0
0
VERTEX
8
RASTER
10
39.832
20
24.346
30
0
0
VERTEX
8
RASTER
10
39.93
20
23.658
30
0
0
VERTEX
8
RASTER
10
39.832
20
23.462
30
0
0
VERTEX
8
RASTER
10
39.832
20
22.97
30
0
0
VERTEX
8
RASTER
10
39.566
20
22.45
30
0
0
VERTEX
8
RASTER
10
39.242
20
22.086
30
0
0
VERTEX
8
RASTER
10
39.34
20
21.3
30
0
0
VERTEX
8
RASTER
10
39.9
20
20.092
30
0
0
VERTEX
8
RASTER
10
41.011
20
18.058
30
0
0
VERTEX
8
RASTER
10
41.305
20
16.682
30
0
0
VERTEX
8
RASTER
10
41.305
20
13.538
30
0
0
VERTEX
8
RASTER
10
41.207
20
13.342
30
0
0
VERTEX
8
RASTER
10
41.207
20
11.278
30
0
0
VERTEX
8
RASTER
10
41.109
20
11.082
30
0
0
VERTEX
8
RASTER
10
41.109
20
9.019
30
0
0
VERTEX
8
RASTER
10
41.011
20
8.527
30
0
0
VERTEX
8
RASTER
10
40.745
20
8.007
30
0
0
VERTEX
8
RASTER
10
40.058
20
7.319
30
0
0
VERTEX
8
RASTER
10
38.653
20
6.66
30
0
0
VERTEX
8
RASTER
10
37.375
20
6.366
30
0
0
VERTEX
8
RASTER
10
36.688
20
6.366
30
0
0
VERTEX
8
RASTER
10
36.491
20
6.267
30
0
0
VERTEX
8
RASTER
10
35.509
20
6.267
30
0
0
VERTEX
8
RASTER
10
35.312
20
6.366
30
0
0
VERTEX
8
RASTER
10
34.035
20
6.464
30
0
0
VERTEX
8
RASTER
10
33.052
20
6.759
30
0
0
VERTEX
8
RASTER
10
31.942
20
7.319
30
0
0
VERTEX
8
RASTER
10
31.352
20
7.908
30
0
0
VERTEX
8
RASTER
10
31.087
20
8.429
30
0
0
VERTEX
8
RASTER
10
30.891
20
9.215
30
0
0
VERTEX
8
RASTER
10
30.792
20
12.163
30
0
0
VERTEX
8
RASTER
10
30.694
20
12.359
30
0
0
VERTEX
8
RASTER
10
30.694
20
16.977
30
0
0
VERTEX
8
RASTER
10
31.087
20
18.353
30
0
0
VERTEX
8
RASTER
10
32.561
20
21.104
30
0
0
VERTEX
8
RASTER
10
32.757
20
21.791
30
0
0
VERTEX
8
RASTER
10
32.728
20
22.155
30
0
0
VERTEX
8
RASTER
10
32.433
20
22.45
30
0
0
VERTEX
8
RASTER
10
32.168
20
22.97
30
0
0
VERTEX
8
RASTER
10
32.07
20
24.051
30
0
0
VERTEX
8
RASTER
10
32.433
20
24.867
30
0
0
VERTEX
8
RASTER
10
32.826
20
25.162
30
0
0
VERTEX
8
RASTER
10
33.937
20
25.623
30
0
0
SEQEND
8
RASTER
0
POLYLINE
8
RASTER
66
1
70
1
0
VERTEX
8
RASTER
10
35.705
20
25.329
30
0
0
VERTEX
8
RASTER
10
35.509
20
25.23
30
0
0
VERTEX
8
RASTER
10
34.723
20
25.23
30
0
0
VERTEX
8
RASTER
10
33.642
20
24.936
30
0
0
VERTEX
8
RASTER
10
32.924
20
24.572
30
0
0
VERTEX
8
RASTER
10
32.659
20
24.051
30
0
0
VERTEX
8
RASTER
10
32.659
20
23.363
30
0
0
VERTEX
8
RASTER
10
32.757
20
23.069
30
0
0
VERTEX
8
RASTER
10
33.249
20
22.381
30
0
0
VERTEX
8
RASTER
10
33.249
20
21.497
30
0
0
VERTEX
8
RASTER
10
33.052
20
20.907
30
0
0
VERTEX
8
RASTER
10
32.433
20
19.659
30
0
0
VERTEX
8
RASTER
10
31.578
20
18.156
30
0
0
VERTEX
8
RASTER
10
31.284
20
17.174
30
0
0
VERTEX
8
RASTER
10
31.284
20
16.781
30
0
0
VERTEX
8
RASTER
10
31.185
20
16.584
30
0
0
VERTEX
8
RASTER
10
31.284
20
11.573
30
0
0
VERTEX
8
RASTER
10
31.382
20
11.377
30
0
0
VERTEX
8
RASTER
10
31.382
20
10.001
30
0
0
VERTEX
8
RASTER
10
31.48
20
9.805
30
0
0
VERTEX
8
RASTER
10
31.48
20
9.019
30
0
0
VERTEX
8
RASTER
10
31.578
20
8.625
30
0
0
VERTEX
8
RASTER
10
31.745
20
8.301
30
0
0
VERTEX
8
RASTER
10
32.237
20
7.81
30
0
0
VERTEX
8
RASTER
10
32.856
20
7.446
30
0
0
VERTEX
8
RASTER
10
34.035
20
7.053
30
0
0
VERTEX
8
RASTER
10
35.116
20
6.955
30
0
0
VERTEX
8
RASTER
10
35.312
20
6.857
30
0
0
VERTEX
8
RASTER
10
36.786
20
6.857
30
0
0
VERTEX
8
RASTER
10
38.653
20
7.25
30
0
0
VERTEX
8
RASTER
10
39.763
20
7.81
30
0
0
VERTEX
8
RASTER
10
40.254
20
8.301
30
0
0
VERTEX
8
RASTER
10
40.421
20
8.625
30
0
0
VERTEX
8
RASTER
10
40.519
20
8.92
30
0
0
VERTEX
8
RASTER
10
40.519
20
10.787
30
0
0
VERTEX
8
RASTER
10
40.618
20
10.984
30
0
0
VERTEX
8
RASTER
10
40.618
20
12.556
30
0
0
VERTEX
8
RASTER
10
40.716
20
12.752
30
0
0
VERTEX
8
RASTER
10
40.814
20
15.994
30
0
0
VERTEX
8
RASTER
10
40.716
20
16.191
30
0
0
VERTEX
8
RASTER
10
40.618
20
17.37
30
0
0
VERTEX
8
RASTER
10
40.323
20
18.254
30
0
0
VERTEX
8
RASTER
10
39.144
20
20.416
30
0
0
VERTEX
8
RASTER
10
38.751
20
21.595
30
0
0
VERTEX
8
RASTER
10
38.751
20
22.381
30
0
0
VERTEX
8
RASTER
10
39.075
20
22.744
30
0
0
VERTEX
8
RASTER
10
39.34
20
23.462
30
0
0
VERTEX
8
RASTER
10
39.34
20
24.051
30
0
0
VERTEX
8
RASTER
10
39.173
20
24.375
30
0
0
VERTEX
8
RASTER
10
38.879
20
24.67
30
0
0
VERTEX
8
RASTER
10
37.768
20
25.132
30
0
0
SEQEND
8
RASTER
0
POLYLINE
8
RASTER
66
1
70
1
0
VERTEX
8
RASTER
10
35.342
20
24.906
30
0
0
VERTEX
8
RASTER
10
36.589
20
24.936
30
0
0
VERTEX
8
RASTER
10
36.786
20
24.837
30
0
0
VERTEX
8
RASTER
10
37.375
20
24.837
30
0
0
VERTEX
8
RASTER
10
38.289
20
24.474
30
0
0
VERTEX
8
RASTER
10
38.456
20
24.15
30
0
0
VERTEX
8
RASTER
10
38.328
20
23.884
30
0
0
VERTEX
8
RASTER
10
38.093
20
23.727
30
0
0
VERTEX
8
RASTER
10
37.179
20
23.462
30
0
0
VERTEX
8
RASTER
10
34.919
20
23.462
30
0
0
VERTEX
8
RASTER
10
34.428
20
23.56
30
0
0
VERTEX
8
RASTER
10
33.809
20
23.825
30
0
0
VERTEX
8
RASTER
10
33.612
20
24.022
30
0
0
VERTEX
8
RASTER
10
33.543
20
24.15
30
0
0
VERTEX
8
RASTER
10
33.612
20
24.375
30
0
0
VERTEX
8
RASTER
10
34.231
20
24.739
30
0
0
SEQEND
8
RASTER
0
POLYLINE
8
RASTER
66
1
70
1
0
VERTEX
8
RASTER
10
35.017
20
24.444
30
0
0
VERTEX
8
RASTER
10
34.064
20
24.12
30
0
0
VERTEX
8
RASTER
10
34.33
20
23.953
30
0
0
VERTEX
8
RASTER
10
34.723
20
23.953
30
0
0
VERTEX
8
RASTER
10
34.919
20
23.855
30
0
0
VERTEX
8
RASTER
10
37.179
20
23.855
30
0
0
VERTEX
8
RASTER
10
37.67
20
23.953
30
0
0
VERTEX
8
RASTER
10
37.768
20
24.051
30
0
0
VERTEX
8
RASTER
10
37.7
20
24.179
30
0
0
VERTEX
8
RASTER
10
36.982
20
24.444
30
0
0
SEQEND
8
RASTER
0
POLYLINE
8
RASTER
66
1
70
1
0
VERTEX
8
RASTER
10
38.486
20
22.548
30
0
0
VERTEX
8
RASTER
10
38.554
20
22.479
30
0
0
VERTEX
8
RASTER
10
38.387
20
22.155
30
0
0
VERTEX
8
RASTER
10
37.474
20
21.791
30
0
0
VERTEX
8
RASTER
10
37.081
20
21.791
30
0
0
VERTEX
8
RASTER
10
36.884
20
21.693
30
0
0
VERTEX
8
RASTER
10
34.919
20
21.693
30
0
0
VERTEX
8
RASTER
10
34.723
20
21.791
30
0
0
VERTEX
8
RASTER
10
34.33
20
21.791
30
0
0
VERTEX
8
RASTER
10
33.612
20
22.057
30
0
0
VERTEX
8
RASTER
10
33.445
20
22.381
30
0
0
VERTEX
8
RASTER
10
33.642
20
22.479
30
0
0
VERTEX
8
RASTER
10
34.133
20
22.283
30
0
0
VERTEX
8
RASTER
10
35.116
20
22.184
30
0
0
VERTEX
8
RASTER
10
35.312
20
22.086
30
0
0
VERTEX
8
RASTER
10
36.786
20
22.086
30
0
0
VERTEX
8
RASTER
10
36.982
20
22.184
30
0
0
VERTEX
8
RASTER
10
37.867
20
22.283
30
0
0
SEQEND
8
RASTER
0
POLYLINE
8
RASTER
66
1
70
1
0
VERTEX
8
RASTER
10
32.099
20
18.028
30
0
0
VERTEX
8
RASTER
10
32.266
20
17.96
30
0
0
VERTEX
8
RASTER
10
31.873
20
16.486
30
0
0
VERTEX
8
RASTER
10
31.873
20
14.815
30
0
0
VERTEX
8
RASTER
10
31.971
20
14.619
30
0
0
VERTEX
8
RASTER
10
31.971
20
12.752
30
0
0
VERTEX
8
RASTER
10
32.07
20
12.556
30
0
0
VERTEX
8
RASTER
10
32.07
20
10.394
30
0
0
VERTEX
8
RASTER
10
32.168
20
10.198
30
0
0
VERTEX
8
RASTER
10
32.168
20
9.117
30
0
0
VERTEX
8
RASTER
10
32.335
20
8.793
30
0
0
VERTEX
8
RASTER
10
32.826
20
8.4
30
0
0
VERTEX
8
RASTER
10
33.347
20
8.134
30
0
0
VERTEX
8
RASTER
10
34.821
20
7.741
30
0
0
VERTEX
8
RASTER
10
36.029
20
7.672
30
0
0
VERTEX
8
RASTER
10
37.277
20
7.741
30
0
0
VERTEX
8
RASTER
10
38.161
20
7.938
30
0
0
VERTEX
8
RASTER
10
39.37
20
8.498
30
0
0
VERTEX
8
RASTER
10
39.665
20
8.793
30
0
0
VERTEX
8
RASTER
10
39.832
20
9.215
30
0
0
VERTEX
8
RASTER
10
39.832
20
10.394
30
0
0
VERTEX
8
RASTER
10
39.999
20
10.758
30
0
0
VERTEX
8
RASTER
10
40.028
20
9.117
30
0
0
VERTEX
8
RASTER
10
39.763
20
8.596
30
0
0
VERTEX
8
RASTER
10
39.468
20
8.301
30
0
0
VERTEX
8
RASTER
10
38.554
20
7.839
30
0
0
VERTEX
8
RASTER
10
37.474
20
7.545
30
0
0
VERTEX
8
RASTER
10
37.081
20
7.545
30
0
0
VERTEX
8
RASTER
10
36.884
20
7.446
30
0
0
VERTEX
8
RASTER
10
35.214
20
7.446
30
0
0
VERTEX
8
RASTER
10
35.017
20
7.545
30
0
0
VERTEX
8
RASTER
10
34.526
20
7.545
30
0
0
VERTEX
8
RASTER
10
33.249
20
7.938
30
0
0
VERTEX
8
RASTER
10
32.531
20
8.301
30
0
0
VERTEX
8
RASTER
10
32.138
20
8.694
30
0
0
VERTEX
8
RASTER
10
31.971
20
9.019
30
0
0
VERTEX
8
RASTER
10
31.971
20
9.805
30
0
0
VERTEX
8
RASTER
10
31.873
20
10.001
30
0
0
VERTEX
8
RASTER
10
31.873
20
11.966
30
0
0
VERTEX
8
RASTER
10
31.775
20
12.163
30
0
0
VERTEX
8
RASTER
10
31.775
20
14.029
30
0
0
VERTEX
8
RASTER
10
31.677
20
14.226
30
0
0
VERTEX
8
RASTER
10
31.677
20
16.682
30
0
0
SEQEND
8
RASTER
0
POLYLINE
8
RASTER
66
1
70
1
0
VERTEX
8
RASTER
10
40.058
20
11.937
30
0
0
VERTEX
8
RASTER
10
40.126
20
11.868
30
0
0
VERTEX
8
RASTER
10
40.126
20
10.984
30
0
0
VERTEX
8
RASTER
10
40.028
20
10.885
30
0
0
VERTEX
8
RASTER
10
39.93
20
10.984
30
0
0
VERTEX
8
RASTER
10
39.93
20
11.18
30
0
0
VERTEX
8
RASTER
10
40.028
20
11.377
30
0
0
SEQEND
8
RASTER
0
POLYLINE
8
CUT
66
1
70
1
0
VERTEX
8
CUT
10
52.28
20
27.385
30
0
0
VERTEX
8
CUT
10
56.643
20
27.441
30
0
0
VERTEX
8
CUT
10
61.97
20
25.703
30
0
0
VERTEX
8
CUT
10
62.609
20
24.66
30
0
0
VERTEX
8
CUT
10
63.26
20
21.385
30
0
0
VERTEX
8
CUT
10
66.669
20
20.981
30
0
0
VERTEX
8
CUT
10
69.742
20
17.886
30
0
0
VERTEX
8
CUT
10
70.135
20
16.708
30
0
0
VERTEX
8
CUT
10
70.045
20
12.873
30
0
0
VERTEX
8
CUT
10
67.914
20
8.05
30
0
0
VERTEX
8
CUT
10
63.63
20
7.512
30
0
0
VERTEX
8
CUT
10
58.752
20
7.568
30
0
0
VERTEX
8
CUT
10
55.836
20
10.484
30
0
0
VERTEX
8
CUT
10
53.402
20
10.854
30
0
0
VERTEX
8
CUT
10
48.378
20
13.007
30
0
0
VERTEX
8
CUT
10
46.976
20
18.783
30
0
0
VERTEX
8
CUT
10
46.998
20
23.134
30
0
0
VERTEX
8
CUT
10
47.761
20
24.166
30
0
0
SEQEND
8
CUT
0
POLYLINE
8
RASTER
66
1
70
1
0
VERTEX
8
RASTER
10
54.355
20
25.759
30
0
0
VERTEX
8
RASTER
10
54.546
20
25.792
30
0
0
VERTEX
8
RASTER
10
56.116
20
25.344
30
0
0
VERTEX
8
RASTER
10
59.817
20
24.11
30
0
0
VERTEX
8
RASTER
10
60.411
20
23.807
30
0
0
VERTEX
8
RASTER
10
60.826
20
22.989
30
0
0
VERTEX
8
RASTER
10
61.353
20
19.478
30
0
0
VERTEX
8
RASTER
10
64.415
20
19.4
30
0
0
VERTEX
8
RASTER
10
64.897
20
19.209
30
0
0
VERTEX
8
RASTER
10
65.794
20
18.424
30
0
0
VERTEX
8
RASTER
10
66.176
20
17.908
30
0
0
VERTEX
8
RASTER
10
67.813
20
16.293
30
0
0
VERTEX
8
RASTER
10
68.15
20
15.845
30
0
0
VERTEX
8
RASTER
10
68.34
20
15.475
30
0
0
VERTEX
8
RASTER
10
68.34
20
14.802
30
0
0
VERTEX
8
RASTER
10
66.131
20
9.721
30
0
0
VERTEX
8
RASTER
10
65.312
20
9.531
30
0
0
VERTEX
8
RASTER
10
62.621
20
9.419
30
0
0
VERTEX
8
RASTER
10
62.396
20
9.306
30
0
0
VERTEX
8
RASTER
10
60.378
20
9.306
30
0
0
VERTEX
8
RASTER
10
59.559
20
10.058
30
0
0
VERTEX
8
RASTER
10
59.402
20
10.349
30
0
0
VERTEX
8
RASTER
10
58.886
20
10.843
30
0
0
VERTEX
8
RASTER
10
58.729
20
11.134
30
0
0
VERTEX
8
RASTER
10
57.271
20
12.817
30
0
0
VERTEX
8
RASTER
10
57.092
20
12.817
30
0
0
VERTEX
8
RASTER
10
56.935
20
12.637
30
0
0
VERTEX
8
RASTER
10
56.34
20
12.334
30
0
0
VERTEX
8
RASTER
10
55.667
20
12.447
30
0
0
VERTEX
8
RASTER
10
50.957
20
14.241
30
0
0
VERTEX
8
RASTER
10
50.363
20
14.544
30
0
0
VERTEX
8
RASTER
10
50.138
20
14.768
30
0
0
VERTEX
8
RASTER
10
49.836
20
15.587
30
0
0
VERTEX
8
RASTER
10
49.163
20
18.951
30
0
0
VERTEX
8
RASTER
10
48.826
20
20.073
30
0
0
VERTEX
8
RASTER
10
48.714
20
21.306
30
0
0
VERTEX
8
RASTER
10
49.017
20
21.901
30
0
0
VERTEX
8
RASTER
10
49.353
20
22.237
30
0
0
VERTEX
8
RASTER
10
53.391
20
25.265
30
0
0
SEQEND
8
RASTER
0
POLYLINE
8
RASTER
66
1
70
1
0
VERTEX
8
RASTER
10
54.322
20
25.12
30
0
0
VERTEX
8
RASTER
10
49.69
20
21.677
30
0
0
VERTEX
8
RASTER
10
49.387
20
21.194
30
0
0
VERTEX
8
RASTER
10
49.387
20
20.97
30
0
0
VERTEX
8
RASTER
10
49.645
20
19.77
30
0
0
VERTEX
8
RASTER
10
49.914
20
19.927
30
0
0
VERTEX
8
RASTER
10
50.172
20
19.512
30
0
0
VERTEX
8
RASTER
10
50.06
20
19.4
30
0
0
VERTEX
8
RASTER
10
49.757
20
19.478
30
0
0
VERTEX
8
RASTER
10
49.723
20
19.176
30
0
0
VERTEX
8
RASTER
10
50.026
20
18.02
30
0
0
VERTEX
8
RASTER
10
50.251
20
18.02
30
0
0
VERTEX
8
RASTER
10
50.509
20
17.83
30
0
0
VERTEX
8
RASTER
10
50.363
20
17.639
30
0
0
VERTEX
8
RASTER
10
50.138
20
17.796
30
0
0
VERTEX
8
RASTER
10
50.06
20
17.718
30
0
0
VERTEX
8
RASTER
10
50.699
20
15.217
30
0
0
VERTEX
8
RASTER
10
50.957
20
15.026
30
0
0
VERTEX
8
RASTER
10
52.337
20
14.499
30
0
0
VERTEX
8
RASTER
10
52.337
20
14.611
30
0
0
VERTEX
8
RASTER
10
52.112
20
14.723
30
0
0
VERTEX
8
RASTER
10
52.269
20
14.948
30
0
0
VERTEX
8
RASTER
10
52.224
20
15.105
30
0
0
VERTEX
8
RASTER
10
52.752
20
14.914
30
0
0
VERTEX
8
RASTER
10
52.785
20
15.06
30
0
0
VERTEX
8
RASTER
10
52.561
20
15.06
30
0
0
VERTEX
8
RASTER
10
52.752
20
15.25
30
0
0
VERTEX
8
RASTER
10
52.942
20
15.217
30
0
0
VERTEX
8
RASTER
10
53.009
20
14.948
30
0
0
VERTEX
8
RASTER
10
53.166
20
15.105
30
0
0
VERTEX
8
RASTER
10
53.234
20
14.948
30
0
0
VERTEX
8
RASTER
10
53.424
20
15.026
30
0
0
VERTEX
8
RASTER
10
53.761
20
14.802
30
0
0
VERTEX
8
RASTER
10
53.952
20
14.88
30
0
0
VERTEX
8
RASTER
10
54.131
20
14.723
30
0
0
VERTEX
8
RASTER
10
54.288
20
14.768
30
0
0
VERTEX
8
RASTER
10
54.097
20
14.353
30
0
0
VERTEX
8
RASTER
10
54.176
20
14.207
30
0
0
VERTEX
8
RASTER
10
54.288
20
14.162
30
0
0
VERTEX
8
RASTER
10
54.512
20
14.32
30
0
0
VERTEX
8
RASTER
10
54.58
20
14.162
30
0
0
VERTEX
8
RASTER
10
54.77
20
14.241
30
0
0
VERTEX
8
RASTER
10
55.028
20
14.05
30
0
0
VERTEX
8
RASTER
10
55.028
20
14.207
30
0
0
VERTEX
8
RASTER
10
55.185
20
14.207
30
0
0
VERTEX
8
RASTER
10
55.297
20
13.714
30
0
0
VERTEX
8
RASTER
10
54.916
20
13.759
30
0
0
VERTEX
8
RASTER
10
55.073
20
13.647
30
0
0
VERTEX
8
RASTER
10
54.916
20
13.49
30
0
0
VERTEX
8
RASTER
10
56.116
20
13.12
30
0
0
VERTEX
8
RASTER
10
56.307
20
13.49
30
0
0
VERTEX
8
RASTER
10
56.228
20
14.465
30
0
0
VERTEX
8
RASTER
10
56.116
20
14.69
30
0
0
VERTEX
8
RASTER
10
56.116
20
15.138
30
0
0
VERTEX
8
RASTER
10
56.228
20
15.362
30
0
0
VERTEX
8
RASTER
10
56.004
20
15.475
30
0
0
VERTEX
8
RASTER
10
55.892
20
16.484
30
0
0
VERTEX
8
RASTER
10
55.97
20
16.562
30
0
0
VERTEX
8
RASTER
10
56.082
20
16.293
30
0
0
VERTEX
8
RASTER
10
56.452
20
16.708
30
0
0
VERTEX
8
RASTER
10
56.598
20
16.518
30
0
0
VERTEX
8
RASTER
10
56.755
20
16.518
30
0
0
VERTEX
8
RASTER
10
56.755
20
16.675
30
0
0
VERTEX
8
RASTER
10
56.598
20
16.787
30
0
0
VERTEX
8
RASTER
10
56.901
20
17.157
30
0
0
VERTEX
8
RASTER
10
56.71
20
17.235
30
0
0
VERTEX
8
RASTER
10
56.419
20
17.078
30
0
0
VERTEX
8
RASTER
10
56.419
20
16.854
30
0
0
VERTEX
8
RASTER
10
56.228
20
16.933
30
0
0
VERTEX
8
RASTER
10
56.194
20
16.742
30
0
0
VERTEX
8
RASTER
10
56.004
20
16.708
30
0
0
VERTEX
8
RASTER
10
55.97
20
16.899
30
0
0
VERTEX
8
RASTER
10
55.78
20
16.933
30
0
0
VERTEX
8
RASTER
10
55.813
20
17.348
30
0
0
VERTEX
8
RASTER
10
56.116
20
17.605
30
0
0
VERTEX
8
RASTER
10
56.419
20
17.527
30
0
0
VERTEX
8
RASTER
10
56.452
20
17.718
30
0
0
VERTEX
8
RASTER
10
56.34
20
17.942
30
0
0
VERTEX
8
RASTER
10
56.486
20
18.133
30
0
0
VERTEX
8
RASTER
10
56.71
20
18.133
30
0
0
VERTEX
8
RASTER
10
56.755
20
18.245
30
0
0
VERTEX
8
RASTER
10
56.598
20
18.2
30
0
0
VERTEX
8
RASTER
10
56.565
20
18.391
30
0
0
VERTEX
8
RASTER
10
56.789
20
18.727
30
0
0
VERTEX
8
RASTER
10
57.047
20
18.536
30
0
0
VERTEX
8
RASTER
10
57.237
20
18.166
30
0
0
VERTEX
8
RASTER
10
57.383
20
18.469
30
0
0
VERTEX
8
RASTER
10
57.608
20
18.581
30
0
0
VERTEX
8
RASTER
10
57.877
20
18.469
30
0
0
VERTEX
8
RASTER
10
57.989
20
18.2
30
0
0
VERTEX
8
RASTER
10
57.798
20
18.054
30
0
0
VERTEX
8
RASTER
10
58.213
20
17.639
30
0
0
VERTEX
8
RASTER
10
58.774
20
18.985
30
0
0
VERTEX
8
RASTER
10
59.11
20
19.321
30
0
0
VERTEX
8
RASTER
10
59.48
20
19.512
30
0
0
VERTEX
8
RASTER
10
60.568
20
19.546
30
0
0
VERTEX
8
RASTER
10
60.49
20
20.634
30
0
0
VERTEX
8
RASTER
10
60.411
20
20.779
30
0
0
VERTEX
8
RASTER
10
60.153
20
20.858
30
0
0
VERTEX
8
RASTER
10
60.378
20
21.082
30
0
0
VERTEX
8
RASTER
10
60.378
20
21.306
30
0
0
VERTEX
8
RASTER
10
60.299
20
21.385
30
0
0
VERTEX
8
RASTER
10
60.075
20
21.228
30
0
0
VERTEX
8
RASTER
10
59.626
20
21.452
30
0
0
VERTEX
8
RASTER
10
59.817
20
21.755
30
0
0
VERTEX
8
RASTER
10
59.626
20
22.17
30
0
0
VERTEX
8
RASTER
10
59.851
20
22.125
30
0
0
VERTEX
8
RASTER
10
60.12
20
21.834
30
0
0
VERTEX
8
RASTER
10
60.232
20
21.452
30
0
0
VERTEX
8
RASTER
10
60.266
20
22.204
30
0
0
VERTEX
8
RASTER
10
60.153
20
22.428
30
0
0
VERTEX
8
RASTER
10
60.153
20
22.877
30
0
0
VERTEX
8
RASTER
10
59.963
20
23.247
30
0
0
VERTEX
8
RASTER
10
59.48
20
23.549
30
0
0
VERTEX
8
RASTER
10
54.994
20
25.007
30
0
0
SEQEND
8
RASTER
0
POLYLINE
8
RASTER
66
1
70
1
0
VERTEX
8
RASTER
10
59.402
20
22.282
30
0
0
VERTEX
8
RASTER
10
59.48
20
21.867
30
0
0
VERTEX
8
RASTER
10
59.335
20
21.564
30
0
0
VERTEX
8
RASTER
10
59.256
20
21.643
30
0
0
VERTEX
8
RASTER
10
59.335
20
21.834
30
0
0
VERTEX
8
RASTER
10
59.144
20
21.979
30
0
0
VERTEX
8
RASTER
10
58.841
20
21.789
30
0
0
VERTEX
8
RASTER
10
58.998
20
22.013
30
0
0
SEQEND
8
RASTER
0
POLYLINE
8
RASTER
66
1
70
1
0
VERTEX
8
RASTER
10
56.823
20
19.254
30
0
0
VERTEX
8
RASTER
10
57.428
20
19.03
30
0
0
VERTEX
8
RASTER
10
57.462
20
18.839
30
0
0
VERTEX
8
RASTER
10
57.204
20
18.536
30
0
0
VERTEX
8
RASTER
10
57.125
20
18.615
30
0
0
VERTEX
8
RASTER
10
57.316
20
18.918
30
0
0
VERTEX
8
RASTER
10
57.125
20
18.951
30
0
0
VERTEX
8
RASTER
10
57.092
20
18.761
30
0
0
VERTEX
8
RASTER
10
56.935
20
18.761
30
0
0
VERTEX
8
RASTER
10
57.013
20
19.063
30
0
0
SEQEND
8
RASTER
0
POLYLINE
8
RASTER
66
1
70
1
0
VERTEX
8
RASTER
10
50.094
20
19.03
30
0
0
VERTEX
8
RASTER
10
50.284
20
19.063
30
0
0
VERTEX
8
RASTER
10
50.396
20
18.951
30
0
0
VERTEX
8
RASTER
10
50.396
20
18.615
30
0
0
VERTEX
8
RASTER
10
50.284
20
18.503
30
0
0
VERTEX
8
RASTER
10
50.026
20
18.581
30
0
0
VERTEX
8
RASTER
10
49.948
20
18.727
30
0
0
SEQEND
8
RASTER
0
POLYLINE
8
RASTER
66
1
70
1
0
VERTEX
8
RASTER
10
59.705
20
18.951
30
0
0
VERTEX
8
RASTER
10
59.402
20
18.805
30
0
0
VERTEX
8
RASTER
10
59.144
20
18.278
30
0
0
VERTEX
8
RASTER
10
59.144
20
18.054
30
0
0
VERTEX
8
RASTER
10
58.695
20
16.933
30
0
0
VERTEX
8
RASTER
10
58.808
20
16.596
30
0
0
VERTEX
8
RASTER
10
58.729
20
16.518
30
0
0
VERTEX
8
RASTER
10
58.617
20
16.675
30
0
0
VERTEX
8
RASTER
10
58.471
20
16.372
30
0
0
VERTEX
8
RASTER
10
57.686
20
14.129
30
0
0
VERTEX
8
RASTER
10
57.686
20
13.456
30
0
0
VERTEX
8
RASTER
10
57.877
20
13.086
30
0
0
VERTEX
8
RASTER
10
59.29
20
11.583
30
0
0
VERTEX
8
RASTER
10
60.456
20
10.058
30
0
0
VERTEX
8
RASTER
10
60.568
20
10.013
30
0
0
VERTEX
8
RASTER
10
60.793
20
10.282
30
0
0
VERTEX
8
RASTER
10
60.748
20
10.013
30
0
0
VERTEX
8
RASTER
10
61.051
20
9.979
30
0
0
VERTEX
8
RASTER
10
61.129
20
10.013
30
0
0
VERTEX
8
RASTER
10
61.051
20
10.316
30
0
0
VERTEX
8
RASTER
10
60.826
20
10.54
30
0
0
VERTEX
8
RASTER
10
61.309
20
11.516
30
0
0
VERTEX
8
RASTER
10
61.499
20
11.437
30
0
0
VERTEX
8
RASTER
10
61.611
20
11.549
30
0
0
VERTEX
8
RASTER
10
61.387
20
11.774
30
0
0
VERTEX
8
RASTER
10
61.802
20
12.032
30
0
0
VERTEX
8
RASTER
10
61.611
20
12.222
30
0
0
VERTEX
8
RASTER
10
61.645
20
12.413
30
0
0
VERTEX
8
RASTER
10
61.948
20
12.334
30
0
0
VERTEX
8
RASTER
10
62.06
20
12.447
30
0
0
VERTEX
8
RASTER
10
61.757
20
12.637
30
0
0
VERTEX
8
RASTER
10
62.811
20
14.948
30
0
0
VERTEX
8
RASTER
10
63.069
20
15.138
30
0
0
VERTEX
8
RASTER
10
63.63
20
15.138
30
0
0
VERTEX
8
RASTER
10
64.045
20
14.207
30
0
0
VERTEX
8
RASTER
10
64.303
20
14.241
30
0
0
VERTEX
8
RASTER
10
64.718
20
14.05
30
0
0
VERTEX
8
RASTER
10
64.449
20
14.275
30
0
0
VERTEX
8
RASTER
10
64.449
20
14.544
30
0
0
VERTEX
8
RASTER
10
64.718
20
14.499
30
0
0
VERTEX
8
RASTER
10
64.718
20
14.656
30
0
0
VERTEX
8
RASTER
10
64.415
20
14.802
30
0
0
VERTEX
8
RASTER
10
64.079
20
14.465
30
0
0
VERTEX
8
RASTER
10
64
20
14.768
30
0
0
VERTEX
8
RASTER
10
64.112
20
14.992
30
0
0
VERTEX
8
RASTER
10
64.527
20
15.026
30
0
0
VERTEX
8
RASTER
10
64.718
20
14.835
30
0
0
VERTEX
8
RASTER
10
64.976
20
15.026
30
0
0
VERTEX
8
RASTER
10
65.054
20
14.948
30
0
0
VERTEX
8
RASTER
10
64.897
20
14.768
30
0
0
VERTEX
8
RASTER
10
64.942
20
14.656
30
0
0
VERTEX
8
RASTER
10
65.166
20
14.656
30
0
0
VERTEX
8
RASTER
10
65.279
20
14.432
30
0
0
VERTEX
8
RASTER
10
65.503
20
14.32
30
0
0
VERTEX
8
RASTER
10
65.2
20
14.017
30
0
0
VERTEX
8
RASTER
10
65.279
20
13.871
30
0
0
VERTEX
8
RASTER
10
65.615
20
13.759
30
0
0
VERTEX
8
RASTER
10
65.537
20
13.568
30
0
0
VERTEX
8
RASTER
10
65.727
20
13.153
30
0
0
VERTEX
8
RASTER
10
65.537
20
13.007
30
0
0
VERTEX
8
RASTER
10
65.649
20
12.783
30
0
0
VERTEX
8
RASTER
10
65.57
20
12.637
30
0
0
VERTEX
8
RASTER
10
65.234
20
12.368
30
0
0
VERTEX
8
RASTER
10
65.279
20
12.749
30
0
0
VERTEX
8
RASTER
10
65.054
20
12.705
30
0
0
VERTEX
8
RASTER
10
65.009
20
12.413
30
0
0
VERTEX
8
RASTER
10
64.83
20
12.144
30
0
0
VERTEX
8
RASTER
10
64.673
20
12.144
30
0
0
VERTEX
8
RASTER
10
64.864
20
12.559
30
0
0
VERTEX
8
RASTER
10
64.785
20
12.637
30
0
0
VERTEX
8
RASTER
10
64.561
20
12.48
30
0
0
VERTEX
8
RASTER
10
64.494
20
12.637
30
0
0
VERTEX
8
RASTER
10
64.303
20
12.671
30
0
0
VERTEX
8
RASTER
10
64.303
20
13.007
30
0
0
VERTEX
8
RASTER
10
64.527
20
13.568
30
0
0
VERTEX
8
RASTER
10
64.337
20
13.647
30
0
0
VERTEX
8
RASTER
10
64
20
12.817
30
0
0
VERTEX
8
RASTER
10
64.191
20
12.559
30
0
0
VERTEX
8
RASTER
10
64.157
20
12.301
30
0
0
VERTEX
8
RASTER
10
64.381
20
12.189
30
0
0
VERTEX
8
RASTER
10
64.449
20
11.92
30
0
0
VERTEX
8
RASTER
10
64.718
20
11.74
30
0
0
VERTEX
8
RASTER
10
64.494
20
11.247
30
0
0
VERTEX
8
RASTER
10
64.415
20
11.325
30
0
0
VERTEX
8
RASTER
10
64.606
20
11.74
30
0
0
VERTEX
8
RASTER
10
64.337
20
11.583
30
0
0
VERTEX
8
RASTER
10
64.303
20
11.774
30
0
0
VERTEX
8
RASTER
10
64.157
20
11.695
30
0
0
VERTEX
8
RASTER
10
64.157
20
11.471
30
0
0
VERTEX
8
RASTER
10
64
20
11.516
30
0
0
VERTEX
8
RASTER
10
63.933
20
11.359
30
0
0
VERTEX
8
RASTER
10
63.854
20
11.437
30
0
0
VERTEX
8
RASTER
10
64.112
20
11.964
30
0
0
VERTEX
8
RASTER
10
64.269
20
12.032
30
0
0
VERTEX
8
RASTER
10
64.191
20
12.11
30
0
0
VERTEX
8
RASTER
10
63.888
20
11.964
30
0
0
VERTEX
8
RASTER
10
63.776
20
11.628
30
0
0
VERTEX
8
RASTER
10
63.63
20
11.549
30
0
0
VERTEX
8
RASTER
10
63.406
20
11.662
30
0
0
VERTEX
8
RASTER
10
63.215
20
11.404
30
0
0
VERTEX
8
RASTER
10
63.294
20
11.325
30
0
0
VERTEX
8
RASTER
10
63.709
20
11.404
30
0
0
VERTEX
8
RASTER
10
63.439
20
10.798
30
0
0
VERTEX
8
RASTER
10
63.821
20
10.686
30
0
0
VERTEX
8
RASTER
10
63.596
20
10.462
30
0
0
VERTEX
8
RASTER
10
63.439
20
10.686
30
0
0
VERTEX
8
RASTER
10
63.26
20
10.686
30
0
0
VERTEX
8
RASTER
10
63.103
20
10.394
30
0
0
VERTEX
8
RASTER
10
63.148
20
10.237
30
0
0
VERTEX
8
RASTER
10
62.879
20
10.349
30
0
0
VERTEX
8
RASTER
10
62.733
20
10.652
30
0
0
VERTEX
8
RASTER
10
62.587
20
10.574
30
0
0
VERTEX
8
RASTER
10
62.542
20
10.282
30
0
0
VERTEX
8
RASTER
10
62.206
20
10.125
30
0
0
VERTEX
8
RASTER
10
63.63
20
10.091
30
0
0
VERTEX
8
RASTER
10
63.854
20
10.204
30
0
0
VERTEX
8
RASTER
10
65.2
20
10.204
30
0
0
VERTEX
8
RASTER
10
65.682
20
10.394
30
0
0
VERTEX
8
RASTER
10
66.322
20
11.662
30
0
0
VERTEX
8
RASTER
10
67.667
20
14.914
30
0
0
VERTEX
8
RASTER
10
67.746
20
15.217
30
0
0
VERTEX
8
RASTER
10
67.365
20
15.845
30
0
0
VERTEX
8
RASTER
10
65.727
20
17.46
30
0
0
VERTEX
8
RASTER
10
65.57
20
17.751
30
0
0
VERTEX
8
RASTER
10
65.009
20
18.312
30
0
0
VERTEX
8
RASTER
10
64.415
20
18.727
30
0
0
VERTEX
8
RASTER
10
63.966
20
18.839
30
0
0
VERTEX
8
RASTER
10
61.163
20
18.839
30
0
0
VERTEX
8
RASTER
10
60.938
20
18.951
30
0
0
SEQEND
8
RASTER
0
POLYLINE
8
RASTER
66
1
70
1
0
VERTEX
8
RASTER
10
65.234
20
14.992
30
0
0
VERTEX
8
RASTER
10
65.537
20
15.026
30
0
0
VERTEX
8
RASTER
10
65.649
20
14.914
30
0
0
VERTEX
8
RASTER
10
65.57
20
14.768
30
0
0
VERTEX
8
RASTER
10
65.312
20
14.69
30
0
0
SEQEND
8
RASTER
0
POLYLINE
8
RASTER
66
1
70
1
0
VERTEX
8
RASTER
10
56.98
20
14.32
30
0
0
VERTEX
8
RASTER
10
56.486
20
14.095
30
0
0
VERTEX
8
RASTER
10
56.486
20
13.938
30
0
0
VERTEX
8
RASTER
10
56.789
20
14.017
30
0
0
VERTEX
8
RASTER
10
56.98
20
13.938
30
0
0
SEQEND
8
RASTER
0
POLYLINE
8
RASTER
66
1
70
1
0
VERTEX
8
RASTER
10
63.036
20
14.32
30
0
0
VERTEX
8
RASTER
10
62.845
20
14.129
30
0
0
VERTEX
8
RASTER
10
62.923
20
13.938
30
0
0
VERTEX
8
RASTER
10
62.766
20
13.602
30
0
0
VERTEX
8
RASTER
10
62.991
20
13.647
30
0
0
VERTEX
8
RASTER
10
63.148
20
14.05
30
0
0
VERTEX
8
RASTER
10
63.26
20
14.095
30
0
0
VERTEX
8
RASTER
10
63.26
20
13.422
30
0
0
VERTEX
8
RASTER
10
63.484
20
13.422
30
0
0
VERTEX
8
RASTER
10
64.045
20
13.153
30
0
0
VERTEX
8
RASTER
10
64
20
13.377
30
0
0
VERTEX
8
RASTER
10
63.552
20
13.49
30
0
0
VERTEX
8
RASTER
10
63.406
20
13.792
30
0
0
VERTEX
8
RASTER
10
63.596
20
14.05
30
0
0
VERTEX
8
RASTER
10
63.552
20
14.162
30
0
0
VERTEX
8
RASTER
10
63.372
20
14.32
30
0
0
VERTEX
8
RASTER
10
63.103
20
14.162
30
0
0
SEQEND
8
RASTER
0
POLYLINE
8
RASTER
66
1
70
1
0
VERTEX
8
RASTER
10
63.821
20
14.207
30
0
0
VERTEX
8
RASTER
10
63.742
20
14.129
30
0
0
VERTEX
8
RASTER
10
63.933
20
13.759
30
0
0
VERTEX
8
RASTER
10
64.112
20
13.759
30
0
0
VERTEX
8
RASTER
10
64.157
20
13.983
30
0
0
VERTEX
8
RASTER
10
63.888
20
14.05
30
0
0
SEQEND
8
RASTER
0
POLYLINE
8
RASTER
66
1
70
1
0
VERTEX
8
RASTER
10
56.867
20
13.871
30
0
0
VERTEX
8
RASTER
10
56.486
20
13.647
30
0
0
VERTEX
8
RASTER
10
56.677
20
13.344
30
0
0
VERTEX
8
RASTER
10
56.901
20
13.568
30
0
0
SEQEND
8
RASTER
0
POLYLINE
8
RASTER
66
1
70
1
0
VERTEX
8
RASTER
10
65.166
20
13.759
30
0
0
VERTEX
8
RASTER
10
65.054
20
13.377
30
0
0
VERTEX
8
RASTER
10
64.864
20
13.232
30
0
0
VERTEX
8
RASTER
10
64.897
20
13.153
30
0
0
VERTEX
8
RASTER
10
65.2
20
13.232
30
0
0
VERTEX
8
RASTER
10
65.391
20
13.041
30
0
0
VERTEX
8
RASTER
10
65.503
20
13.31
30
0
0
VERTEX
8
RASTER
10
65.312
20
13.456
30
0
0
VERTEX
8
RASTER
10
65.391
20
13.647
30
0
0
SEQEND
8
RASTER
0
POLYLINE
8
RASTER
66
1
70
1
0
VERTEX
8
RASTER
10
62.475
20
13.086
30
0
0
VERTEX
8
RASTER
10
62.43
20
12.817
30
0
0
VERTEX
8
RASTER
10
62.587
20
12.862
30
0
0
VERTEX
8
RASTER
10
62.923
20
12.705
30
0
0
VERTEX
8
RASTER
10
62.923
20
12.862
30
0
0
SEQEND
8
RASTER
0
POLYLINE
8
RASTER
66
1
70
1
0
VERTEX
8
RASTER
10
62.845
20
11.437
30
0
0
VERTEX
8
RASTER
10
62.699
20
11.359
30
0
0
VERTEX
8
RASTER
10
62.699
20
11.179
30
0
0
VERTEX
8
RASTER
10
63.148
20
10.91
30
0
0
VERTEX
8
RASTER
10
63.148
20
11.179
30
0
0
VERTEX
8
RASTER
10
62.991
20
11.134
30
0
0
SEQEND
8
RASTER
0
POLYLINE
8
CUT
66
1
70
1
0
VERTEX
8
CUT
10
81.456
20
27.441
30
0
0
VERTEX
8
CUT
10
86.501
20
27.441
30
0
0
VERTEX
8
CUT
10
88.704
20
26.567
30
0
0
VERTEX
8
CUT
10
91.14
20
23.959
30
0
0
VERTEX
8
CUT
10
92.986
20
20.144
30
0
0
VERTEX
8
CUT
10
93.699
20
16.551
30
0
0
VERTEX
8
CUT
10
93.699
20
11.875
30
0
0
VERTEX
8
CUT
10
93.33
20
9.538
30
0
0
VERTEX
8
CUT
10
92.703
20
7.95
30
0
0
VERTEX
8
CUT
10
91.46
20
6.24
30
0
0
VERTEX
8
CUT
10
88.556
20
4.468
30
0
0
VERTEX
8
CUT
10
85.824
20
4
30
0
0
VERTEX
8
CUT
10
82.133
20
4
30
0
0
VERTEX
8
CUT
10
79.401
20
4.468
30
0
0
VERTEX
8
CUT
10
76.62
20
6.117
30
0
0
VERTEX
8
CUT
10
75.587
20
7.298
30
0
0
VERTEX
8
CUT
10
74.602
20
9.267
30
0
0
VERTEX
8
CUT
10
74.135
20
11.999
30
0
0
VERTEX
8
CUT
10
74.135
20
16.305
30
0
0
VERTEX
8
CUT
10
75.082
20
20.772
30
0
0
VERTEX
8
CUT
10
76.239
20
23.184
30
0
0
VERTEX
8
CUT
10
77.728
20
25.263
30
0
0
VERTEX
8
CUT
10
79.696
20
26.863
30
0
0
SEQEND
8
CUT
0
POLYLINE
8
RASTER
66
1
70
1
0
VERTEX
8
RASTER
10
83.031
20
25.374
30
0
0
VERTEX
8
RASTER
10
84.84
20
25.411
30
0
0
VERTEX
8
RASTER
10
85.578
20
25.165
30
0
0
VERTEX
8
RASTER
10
87.092
20
24.34
30
0
0
VERTEX
8
RASTER
10
88.445
20
22.987
30
0
0
VERTEX
8
RASTER
10
89.306
20
21.756
30
0
0
VERTEX
8
RASTER
10
90.254
20
19.997
30
0
0
VERTEX
8
RASTER
10
91.115
20
17.782
30
0
0
VERTEX
8
RASTER
10
91.607
20
15.69
30
0
0
VERTEX
8
RASTER
10
91.607
20
12.737
30
0
0
VERTEX
8
RASTER
10
91.484
20
12.122
30
0
0
VERTEX
8
RASTER
10
90.869
20
10.276
30
0
0
VERTEX
8
RASTER
10
90.291
20
9.255
30
0
0
VERTEX
8
RASTER
10
88.814
20
7.655
30
0
0
VERTEX
8
RASTER
10
88.076
20
7.163
30
0
0
VERTEX
8
RASTER
10
86.932
20
6.584
30
0
0
VERTEX
8
RASTER
10
85.086
20
6.092
30
0
0
VERTEX
8
RASTER
10
82.871
20
6.092
30
0
0
VERTEX
8
RASTER
10
82.256
20
6.215
30
0
0
VERTEX
8
RASTER
10
80.779
20
6.707
30
0
0
VERTEX
8
RASTER
10
79.512
20
7.409
30
0
0
VERTEX
8
RASTER
10
78.404
20
8.27
30
0
0
VERTEX
8
RASTER
10
77.666
20
9.131
30
0
0
VERTEX
8
RASTER
10
76.596
20
11.26
30
0
0
VERTEX
8
RASTER
10
76.226
20
12.737
30
0
0
VERTEX
8
RASTER
10
76.226
20
15.444
30
0
0
VERTEX
8
RASTER
10
76.35
20
15.69
30
0
0
VERTEX
8
RASTER
10
76.473
20
16.92
30
0
0
VERTEX
8
RASTER
10
76.842
20
18.151
30
0
0
VERTEX
8
RASTER
10
77.912
20
20.649
30
0
0
VERTEX
8
RASTER
10
78.897
20
22.248
30
0
0
VERTEX
8
RASTER
10
80.25
20
23.848
30
0
0
VERTEX
8
RASTER
10
81.604
20
24.832
30
0
0
SEQEND
8
RASTER
0
POLYLINE
8
RASTER
66
1
70
1
0
VERTEX
8
RASTER
10
83.24
20
24.795
30
0
0
VERTEX
8
RASTER
10
82.502
20
24.549
30
0
0
VERTEX
8
RASTER
10
81.111
20
23.725
30
0
0
VERTEX
8
RASTER
10
80.127
20
22.741
30
0
0
VERTEX
8
RASTER
10
78.897
20
21.018
30
0
0
VERTEX
8
RASTER
10
77.949
20
19.135
30
0
0
VERTEX
8
RASTER
10
77.211
20
17.043
30
0
0
VERTEX
8
RASTER
10
76.965
20
15.813
30
0
0
VERTEX
8
RASTER
10
76.965
20
15.075
30
0
0
VERTEX
8
RASTER
10
76.842
20
14.829
30
0
0
VERTEX
8
RASTER
10
76.842
20
13.475
30
0
0
VERTEX
8
RASTER
10
76.965
20
13.229
30
0
0
VERTEX
8
RASTER
10
77.088
20
11.999
30
0
0
VERTEX
8
RASTER
10
77.334
20
11.26
30
0
0
VERTEX
8
RASTER
10
78.035
20
9.87
30
0
0
VERTEX
8
RASTER
10
79.143
20
8.516
30
0
0
VERTEX
8
RASTER
10
81.025
20
7.323
30
0
0
VERTEX
8
RASTER
10
82.625
20
6.83
30
0
0
VERTEX
8
RASTER
10
84.471
20
6.707
30
0
0
VERTEX
8
RASTER
10
84.717
20
6.83
30
0
0
VERTEX
8
RASTER
10
85.947
20
6.954
30
0
0
VERTEX
8
RASTER
10
86.686
20
7.2
30
0
0
VERTEX
8
RASTER
10
88.568
20
8.27
30
0
0
VERTEX
8
RASTER
10
89.306
20
9.008
30
0
0
VERTEX
8
RASTER
10
90.291
20
10.608
30
0
0
VERTEX
8
RASTER
10
90.746
20
11.875
30
0
0
VERTEX
8
RASTER
10
90.992
20
12.983
30
0
0
VERTEX
8
RASTER
10
90.992
20
15.198
30
0
0
VERTEX
8
RASTER
10
90.623
20
17.043
30
0
0
VERTEX
8
RASTER
10
89.885
20
19.135
30
0
0
VERTEX
8
RASTER
10
88.814
20
21.264
30
0
0
VERTEX
8
RASTER
10
87.584
20
22.987
30
0
0
VERTEX
8
RASTER
10
86.599
20
23.848
30
0
0
VERTEX
8
RASTER
10
85.086
20
24.672
30
0
0
VERTEX
8
RASTER
10
84.594
20
24.795
30
0
0
SEQEND
8
RASTER
0
POLYLINE
8
RASTER
66
1
70
1
0
VERTEX
8
RASTER
10
79.832
20
20.821
30
0
0
VERTEX
8
RASTER
10
80.041
20
20.735
30
0
0
VERTEX
8
RASTER
10
79.918
20
20.489
30
0
0
VERTEX
8
RASTER
10
80.164
20
19.751
30
0
0
VERTEX
8
RASTER
10
79.832
20
19.344
30
0
0
VERTEX
8
RASTER
10
79.34
20
19.172
30
0
0
VERTEX
8
RASTER
10
79.02
20
19.344
30
0
0
VERTEX
8
RASTER
10
78.934
20
19.874
30
0
0
VERTEX
8
RASTER
10
79.266
20
20.526
30
0
0
VERTEX
8
RASTER
10
79.549
20
20.735
30
0
0
VERTEX
8
RASTER
10
79.881
20
20.649
30
0
0
SEQEND
8
RASTER
0
POLYLINE
8
RASTER
66
1
70
1
0
VERTEX
8
RASTER
10
78.478
20
17.007
30
0
0
VERTEX
8
RASTER
10
78.81
20
17.043
30
0
0
VERTEX
8
RASTER
10
79.18
20
16.674
30
0
0
VERTEX
8
RASTER
10
79.18
20
16.059
30
0
0
VERTEX
8
RASTER
10
78.687
20
15.567
30
0
0
VERTEX
8
RASTER
10
78.281
20
15.776
30
0
0
VERTEX
8
RASTER
10
78.072
20
16.182
30
0
0
VERTEX
8
RASTER
10
78.072
20
16.428
30
0
0
SEQEND
8
RASTER
0
POLYLINE
8
RASTER
66
1
70
1
0
VERTEX
8
RASTER
10
83.769
20
16.76
30
0
0
VERTEX
8
RASTER
10
84.717
20
16.797
30
0
0
VERTEX
8
RASTER
10
85.123
20
16.588
30
0
0
VERTEX
8
RASTER
10
85.418
20
16.268
30
0
0
VERTEX
8
RASTER
10
85.701
20
15.444
30
0
0
VERTEX
8
RASTER
10
85.701
20
14.952
30
0
0
VERTEX
8
RASTER
10
85.369
20
14.053
30
0
0
VERTEX
8
RASTER
10
84.877
20
13.561
30
0
0
VERTEX
8
RASTER
10
84.471
20
13.352
30
0
0
VERTEX
8
RASTER
10
83.732
20
13.352
30
0
0
VERTEX
8
RASTER
10
83.154
20
13.635
30
0
0
VERTEX
8
RASTER
10
82.748
20
14.336
30
0
0
VERTEX
8
RASTER
10
82.748
20
15.444
30
0
0
VERTEX
8
RASTER
10
83.203
20
16.342
30
0
0
SEQEND
8
RASTER
0
POLYLINE
8
RASTER
66
1
70
1
0
VERTEX
8
RASTER
10
88.691
20
16.391
30
0
0
VERTEX
8
RASTER
10
89.023
20
16.428
30
0
0
VERTEX
8
RASTER
10
89.27
20
16.182
30
0
0
VERTEX
8
RASTER
10
89.27
20
15.69
30
0
0
VERTEX
8
RASTER
10
88.9
20
15.321
30
0
0
VERTEX
8
RASTER
10
88.617
20
15.407
30
0
0
VERTEX
8
RASTER
10
88.408
20
15.813
30
0
0
SEQEND
8
RASTER
0
POLYLINE
8
RASTER
66
1
70
1
0
VERTEX
8
RASTER
10
84.065
20
16.145
30
0
0
VERTEX
8
RASTER
10
83.979
20
16.059
30
0
0
VERTEX
8
RASTER
10
84.188
20
15.481
30
0
0
VERTEX
8
RASTER
10
84.348
20
15.69
30
0
0
SEQEND
8
RASTER
0
POLYLINE
8
RASTER
66
1
70
1
0
VERTEX
8
RASTER
10
84.594
20
15.567
30
0
0
VERTEX
8
RASTER
10
84.508
20
15.481
30
0
0
VERTEX
8
RASTER
10
84.926
20
15.284
30
0
0
VERTEX
8
RASTER
10
84.877
20
15.112
30
0
0
VERTEX
8
RASTER
10
85
20
14.989
30
0
0
VERTEX
8
RASTER
10
85.172
20
15.358
30
0
0
VERTEX
8
RASTER
10
85.418
20
15.358
30
0
0
VERTEX
8
RASTER
10
85.209
20
15.567
30
0
0
VERTEX
8
RASTER
10
85.049
20
15.481
30
0
0
SEQEND
8
RASTER
0
POLYLINE
8
RASTER
66
1
70
1
0
VERTEX
8
RASTER
10
83.942
20
15.284
30
0
0
VERTEX
8
RASTER
10
83.942
20
15.112
30
0
0
VERTEX
8
RASTER
10
83.646
20
15.038
30
0
0
VERTEX
8
RASTER
10
83.769
20
14.496
30
0
0
VERTEX
8
RASTER
10
83.892
20
14.669
30
0
0
VERTEX
8
RASTER
10
84.065
20
14.619
30
0
0
VERTEX
8
RASTER
10
84.015
20
14.915
30
0
0
VERTEX
8
RASTER
10
84.102
20
14.952
30
0
0
VERTEX
8
RASTER
10
84.262
20
14.619
30
0
0
VERTEX
8
RASTER
10
84.594
20
14.829
30
0
0
VERTEX
8
RASTER
10
84.803
20
14.496
30
0
0
VERTEX
8
RASTER
10
84.926
20
14.915
30
0
0
VERTEX
8
RASTER
10
84.754
20
14.866
30
0
0
SEQEND
8
RASTER
0
POLYLINE
8
RASTER
66
1
70
1
0
VERTEX
8
RASTER
10
78.478
20
13.069
30
0
0
VERTEX
8
RASTER
10
78.81
20
13.106
30
0
0
VERTEX
8
RASTER
10
79.709
20
12.651
30
0
0
VERTEX
8
RASTER
10
80.447
20
11.789
30
0
0
VERTEX
8
RASTER
10
80.902
20
10.645
30
0
0
VERTEX
8
RASTER
10
80.779
20
9.784
30
0
0
VERTEX
8
RASTER
10
80.447
20
9.378
30
0
0
VERTEX
8
RASTER
10
79.918
20
9.291
30
0
0
VERTEX
8
RASTER
10
79.266
20
9.624
30
0
0
VERTEX
8
RASTER
10
78.897
20
9.87
30
0
0
VERTEX
8
RASTER
10
78.404
20
10.485
30
0
0
VERTEX
8
RASTER
10
77.949
20
11.383
30
0
0
VERTEX
8
RASTER
10
77.826
20
12.122
30
0
0
VERTEX
8
RASTER
10
78.035
20
12.774
30
0
0
SEQEND
8
RASTER
0
POLYLINE
8
RASTER
66
1
70
1
0
VERTEX
8
RASTER
10
87.953
20
12.823
30
0
0
VERTEX
8
RASTER
10
88.654
20
12.86
30
0
0
VERTEX
8
RASTER
10
88.987
20
12.7
30
0
0
VERTEX
8
RASTER
10
89.27
20
12.245
30
0
0
VERTEX
8
RASTER
10
89.27
20
11.26
30
0
0
VERTEX
8
RASTER
10
88.691
20
9.993
30
0
0
VERTEX
8
RASTER
10
88.076
20
9.378
30
0
0
VERTEX
8
RASTER
10
87.424
20
9.045
30
0
0
VERTEX
8
RASTER
10
87.055
20
9.045
30
0
0
VERTEX
8
RASTER
10
86.403
20
9.501
30
0
0
VERTEX
8
RASTER
10
86.193
20
10.03
30
0
0
VERTEX
8
RASTER
10
86.193
20
10.645
30
0
0
VERTEX
8
RASTER
10
86.476
20
11.469
30
0
0
VERTEX
8
RASTER
10
86.649
20
11.42
30
0
0
VERTEX
8
RASTER
10
87.092
20
11.715
30
0
0
VERTEX
8
RASTER
10
87.264
20
11.543
30
0
0
VERTEX
8
RASTER
10
87.301
20
11.999
30
0
0
VERTEX
8
RASTER
10
87.51
20
12.158
30
0
0
VERTEX
8
RASTER
10
87.461
20
12.331
30
0
0
VERTEX
8
RASTER
10
87.633
20
12.331
30
0
0
VERTEX
8
RASTER
10
87.793
20
12.122
30
0
0
VERTEX
8
RASTER
10
87.916
20
12.245
30
0
0
VERTEX
8
RASTER
10
87.633
20
12.577
30
0
0
VERTEX
8
RASTER
10
87.51
20
12.528
30
0
0
VERTEX
8
RASTER
10
86.649
20
11.543
30
0
0
VERTEX
8
RASTER
10
86.563
20
11.629
30
0
0
VERTEX
8
RASTER
10
86.895
20
12.158
30
0
0
VERTEX
8
RASTER
10
87.51
20
12.651
30
0
0
VERTEX
8
RASTER
10
87.67
20
12.737
30
0
0
VERTEX
8
RASTER
10
87.879
20
12.651
30
0
0
SEQEND
8
RASTER
0
POLYLINE
8
RASTER
66
1
70
1
0
VERTEX
8
RASTER
10
82.908
20
8.516
30
0
0
VERTEX
8
RASTER
10
83.646
20
8.467
30
0
0
VERTEX
8
RASTER
10
83.979
20
8.061
30
0
0
VERTEX
8
RASTER
10
83.892
20
7.778
30
0
0
VERTEX
8
RASTER
10
83.486
20
7.569
30
0
0
VERTEX
8
RASTER
10
82.834
20
7.655
30
0
0
VERTEX
8
RASTER
10
82.588
20
7.901
30
0
0
VERTEX
8
RASTER
10
82.502
20
8.184
30
0
0
VERTEX
8
RASTER
10
82.588
20
8.344
30
0
0
SEQEND
8
RASTER
0
POLYLINE
8
CUT
66
1
70
1
0
VERTEX
8
CUT
10
104.009
20
27.431
30
0
0
VERTEX
8
CUT
10
107.749
20
27.441
30
0
0
VERTEX
8
CUT
10
113.336
20
25.117
30
0
0
VERTEX
8
CUT
10
114.918
20
24.159
30
0
0
VERTEX
8
CUT
10
115.23
20
21.317
30
0
0
VERTEX
8
CUT
10
118.737
20
21.239
30
0
0
VERTEX
8
CUT
10
119.586
20
20.722
30
0
0
VERTEX
8
CUT
10
119.645
20
13.455
30
0
0
VERTEX
8
CUT
10
119.079
20
10.701
30
0
0
VERTEX
8
CUT
10
117.535
20
8.044
30
0
0
VERTEX
8
CUT
10
115.123
20
6.062
30
0
0
VERTEX
8
CUT
10
113.57
20
5.466
30
0
0
VERTEX
8
CUT
10
110.591
20
5.026
30
0
0
VERTEX
8
CUT
10
106.245
20
5.036
30
0
0
VERTEX
8
CUT
10
105.366
20
5.72
30
0
0
VERTEX
8
CUT
10
104.897
20
7.693
30
0
0
VERTEX
8
CUT
10
99.067
20
10.261
30
0
0
VERTEX
8
CUT
10
97.826
20
11.072
30
0
0
VERTEX
8
CUT
10
97.699
20
15.184
30
0
0
VERTEX
8
CUT
10
99.067
20
18.504
30
0
0
VERTEX
8
CUT
10
99.223
20
20.595
30
0
0
VERTEX
8
CUT
10
101.264
20
22.46
30
0
0
VERTEX
8
CUT
10
103.432
20
26.835
30
0
0
SEQEND
8
CUT
0
POLYLINE
8
RASTER
66
1
70
1
0
VERTEX
8
RASTER
10
105.61
20
25.927
30
0
0
VERTEX
8
RASTER
10
105.972
20
25.956
30
0
0
VERTEX
8
RASTER
10
106.948
20
25.566
30
0
0
VERTEX
8
RASTER
10
112.222
20
23.319
30
0
0
VERTEX
8
RASTER
10
113.228
20
22.763
30
0
0
VERTEX
8
RASTER
10
113.492
20
22.147
30
0
0
VERTEX
8
RASTER
10
111.666
20
17.977
30
0
0
VERTEX
8
RASTER
10
112.418
20
18.338
30
0
0
VERTEX
8
RASTER
10
114.078
20
18.827
30
0
0
VERTEX
8
RASTER
10
115.348
20
18.924
30
0
0
VERTEX
8
RASTER
10
116.129
20
18.729
30
0
0
VERTEX
8
RASTER
10
116.354
20
18.895
30
0
0
VERTEX
8
RASTER
10
116.588
20
19.442
30
0
0
VERTEX
8
RASTER
10
116.813
20
19.608
30
0
0
VERTEX
8
RASTER
10
117.399
20
19.608
30
0
0
VERTEX
8
RASTER
10
117.916
20
19.344
30
0
0
VERTEX
8
RASTER
10
118.082
20
19.022
30
0
0
VERTEX
8
RASTER
10
118.082
20
18.436
30
0
0
VERTEX
8
RASTER
10
117.985
20
18.143
30
0
0
VERTEX
8
RASTER
10
117.721
20
17.625
30
0
0
VERTEX
8
RASTER
10
117.526
20
17.43
30
0
0
VERTEX
8
RASTER
10
117.985
20
16.483
30
0
0
VERTEX
8
RASTER
10
118.082
20
15.994
30
0
0
VERTEX
8
RASTER
10
118.082
20
14.92
30
0
0
VERTEX
8
RASTER
10
117.985
20
14.725
30
0
0
VERTEX
8
RASTER
10
117.887
20
13.748
30
0
0
VERTEX
8
RASTER
10
117.301
20
11.795
30
0
0
VERTEX
8
RASTER
10
116.842
20
10.886
30
0
0
VERTEX
8
RASTER
10
115.865
20
9.519
30
0
0
VERTEX
8
RASTER
10
114.791
20
8.445
30
0
0
VERTEX
8
RASTER
10
113.912
20
7.859
30
0
0
VERTEX
8
RASTER
10
112.808
20
7.302
30
0
0
VERTEX
8
RASTER
10
111.832
20
7.009
30
0
0
VERTEX
8
RASTER
10
110.855
20
6.911
30
0
0
VERTEX
8
RASTER
10
110.66
20
6.814
30
0
0
VERTEX
8
RASTER
10
110.074
20
6.814
30
0
0
VERTEX
8
RASTER
10
109.097
20
6.618
30
0
0
VERTEX
8
RASTER
10
107.73
20
6.618
30
0
0
VERTEX
8
RASTER
10
107.212
20
6.882
30
0
0
VERTEX
8
RASTER
10
106.851
20
7.497
30
0
0
VERTEX
8
RASTER
10
106.851
20
9.06
30
0
0
VERTEX
8
RASTER
10
106.782
20
9.187
30
0
0
VERTEX
8
RASTER
10
104.018
20
10.33
30
0
0
VERTEX
8
RASTER
10
101.215
20
11.629
30
0
0
VERTEX
8
RASTER
10
101.381
20
11.697
30
0
0
VERTEX
8
RASTER
10
101.674
20
11.599
30
0
0
VERTEX
8
RASTER
10
106.46
20
9.548
30
0
0
VERTEX
8
RASTER
10
106.821
20
9.578
30
0
0
VERTEX
8
RASTER
10
106.948
20
9.841
30
0
0
VERTEX
8
RASTER
10
107.046
20
10.134
30
0
0
VERTEX
8
RASTER
10
106.948
20
10.525
30
0
0
VERTEX
8
RASTER
10
106.948
20
11.306
30
0
0
VERTEX
8
RASTER
10
107.144
20
11.99
30
0
0
VERTEX
8
RASTER
10
107.144
20
12.381
30
0
0
VERTEX
8
RASTER
10
107.534
20
13.553
30
0
0
VERTEX
8
RASTER
10
108.023
20
14.432
30
0
0
VERTEX
8
RASTER
10
108.023
20
14.627
30
0
0
VERTEX
8
RASTER
10
107.954
20
14.754
30
0
0
VERTEX
8
RASTER
10
107.534
20
14.92
30
0
0
VERTEX
8
RASTER
10
106.558
20
14.92
30
0
0
VERTEX
8
RASTER
10
106.362
20
14.822
30
0
0
VERTEX
8
RASTER
10
105.972
20
14.822
30
0
0
VERTEX
8
RASTER
10
105.288
20
14.529
30
0
0
VERTEX
8
RASTER
10
105.063
20
14.598
30
0
0
VERTEX
8
RASTER
10
104.409
20
16.092
30
0
0
VERTEX
8
RASTER
10
104.184
20
16.942
30
0
0
VERTEX
8
RASTER
10
103.95
20
17.293
30
0
0
VERTEX
8
RASTER
10
103.628
20
17.459
30
0
0
VERTEX
8
RASTER
10
102.749
20
17.655
30
0
0
VERTEX
8
RASTER
10
102.26
20
17.655
30
0
0
VERTEX
8
RASTER
10
101.87
20
17.948
30
0
0
VERTEX
8
RASTER
10
101.45
20
17.879
30
0
0
VERTEX
8
RASTER
10
100.825
20
16.649
30
0
0
VERTEX
8
RASTER
10
100.473
20
16.121
30
0
0
VERTEX
8
RASTER
10
100.112
20
15.213
30
0
0
VERTEX
8
RASTER
10
99.721
20
14.529
30
0
0
VERTEX
8
RASTER
10
99.526
20
14.041
30
0
0
VERTEX
8
RASTER
10
99.526
20
13.748
30
0
0
VERTEX
8
RASTER
10
99.33
20
13.357
30
0
0
VERTEX
8
RASTER
10
99.33
20
13.064
30
0
0
VERTEX
8
RASTER
10
99.496
20
12.742
30
0
0
VERTEX
8
RASTER
10
99.789
20
12.449
30
0
0
VERTEX
8
RASTER
10
101.157
20
11.726
30
0
0
VERTEX
8
RASTER
10
100.795
20
11.795
30
0
0
VERTEX
8
RASTER
10
99.692
20
12.351
30
0
0
VERTEX
8
RASTER
10
99.399
20
12.644
30
0
0
VERTEX
8
RASTER
10
99.233
20
12.967
30
0
0
VERTEX
8
RASTER
10
99.233
20
13.553
30
0
0
VERTEX
8
RASTER
10
99.526
20
14.432
30
0
0
VERTEX
8
RASTER
10
101.381
20
18.143
30
0
0
VERTEX
8
RASTER
10
100.766
20
18.407
30
0
0
VERTEX
8
RASTER
10
100.698
20
18.924
30
0
0
VERTEX
8
RASTER
10
101.118
20
19.481
30
0
0
VERTEX
8
RASTER
10
101.313
20
19.579
30
0
0
VERTEX
8
RASTER
10
101.938
20
20.223
30
0
0
VERTEX
8
RASTER
10
102.485
20
20.555
30
0
0
VERTEX
8
RASTER
10
102.719
20
20.516
30
0
0
VERTEX
8
RASTER
10
105.161
20
25.497
30
0
0
VERTEX
8
RASTER
10
105.356
20
25.79
30
0
0
SEQEND
8
RASTER
0
POLYLINE
8
RASTER
66
1
70
1
0
VERTEX
8
RASTER
10
105.776
20
25.273
30
0
0
VERTEX
8
RASTER
10
105.61
20
25.146
30
0
0
VERTEX
8
RASTER
10
104.507
20
22.733
30
0
0
VERTEX
8
RASTER
10
104.8
20
22.538
30
0
0
VERTEX
8
RASTER
10
105.19
20
22.538
30
0
0
VERTEX
8
RASTER
10
106.558
20
21.854
30
0
0
VERTEX
8
RASTER
10
107.046
20
21.757
30
0
0
VERTEX
8
RASTER
10
107.271
20
21.923
30
0
0
VERTEX
8
RASTER
10
108.189
20
23.837
30
0
0
VERTEX
8
RASTER
10
108.482
20
24.169
30
0
0
VERTEX
8
RASTER
10
108.316
20
24.394
30
0
0
VERTEX
8
RASTER
10
106.362
20
25.175
30
0
0
SEQEND
8
RASTER
0
POLYLINE
8
RASTER
66
1
70
1
0
VERTEX
8
RASTER
10
106.001
20
24.56
30
0
0
VERTEX
8
RASTER
10
106.489
20
24.521
30
0
0
VERTEX
8
RASTER
10
106.782
20
24.325
30
0
0
VERTEX
8
RASTER
10
106.88
20
24.032
30
0
0
VERTEX
8
RASTER
10
107.017
20
23.935
30
0
0
VERTEX
8
RASTER
10
106.753
20
24.003
30
0
0
VERTEX
8
RASTER
10
106.196
20
23.485
30
0
0
VERTEX
8
RASTER
10
105.776
20
23.417
30
0
0
VERTEX
8
RASTER
10
105.581
20
23.222
30
0
0
VERTEX
8
RASTER
10
105.483
20
23.319
30
0
0
VERTEX
8
RASTER
10
105.679
20
23.71
30
0
0
VERTEX
8
RASTER
10
105.581
20
23.905
30
0
0
SEQEND
8
RASTER
0
POLYLINE
8
RASTER
66
1
70
1
0
VERTEX
8
RASTER
10
109.488
20
23.808
30
0
0
VERTEX
8
RASTER
10
109.195
20
23.515
30
0
0
VERTEX
8
RASTER
10
109.195
20
23.319
30
0
0
VERTEX
8
RASTER
10
108.218
20
21.171
30
0
0
VERTEX
8
RASTER
10
108.316
20
21.073
30
0
0
VERTEX
8
RASTER
10
108.609
20
21.073
30
0
0
VERTEX
8
RASTER
10
109.585
20
20.78
30
0
0
VERTEX
8
RASTER
10
110.464
20
20.292
30
0
0
VERTEX
8
RASTER
10
110.855
20
20.194
30
0
0
VERTEX
8
RASTER
10
111.148
20
20.487
30
0
0
VERTEX
8
RASTER
10
111.441
20
21.366
30
0
0
VERTEX
8
RASTER
10
111.412
20
21.786
30
0
0
VERTEX
8
RASTER
10
111.607
20
21.786
30
0
0
VERTEX
8
RASTER
10
111.666
20
22.313
30
0
0
VERTEX
8
RASTER
10
111.959
20
22.411
30
0
0
VERTEX
8
RASTER
10
112.125
20
22.733
30
0
0
VERTEX
8
RASTER
10
110.757
20
23.417
30
0
0
SEQEND
8
RASTER
0
POLYLINE
8
RASTER
66
1
70
1
0
VERTEX
8
RASTER
10
104.018
20
21.659
30
0
0
VERTEX
8
RASTER
10
103.725
20
21.366
30
0
0
VERTEX
8
RASTER
10
103.139
20
19.999
30
0
0
VERTEX
8
RASTER
10
103.139
20
19.706
30
0
0
VERTEX
8
RASTER
10
103.266
20
19.54
30
0
0
VERTEX
8
RASTER
10
103.403
20
19.579
30
0
0
VERTEX
8
RASTER
10
104.214
20
19.217
30
0
0
VERTEX
8
RASTER
10
104.477
20
19.247
30
0
0
VERTEX
8
RASTER
10
104.604
20
19.51
30
0
0
VERTEX
8
RASTER
10
104.702
20
19.413
30
0
0
VERTEX
8
RASTER
10
104.77
20
18.993
30
0
0
VERTEX
8
RASTER
10
104.966
20
18.797
30
0
0
VERTEX
8
RASTER
10
105.19
20
18.729
30
0
0
VERTEX
8
RASTER
10
105.454
20
18.954
30
0
0
VERTEX
8
RASTER
10
105.513
20
19.383
30
0
0
VERTEX
8
RASTER
10
105.806
20
19.579
30
0
0
VERTEX
8
RASTER
10
105.903
20
19.872
30
0
0
VERTEX
8
RASTER
10
106.333
20
20.028
30
0
0
VERTEX
8
RASTER
10
106.724
20
20.458
30
0
0
VERTEX
8
RASTER
10
106.587
20
20.614
30
0
0
VERTEX
8
RASTER
10
106.069
20
20.878
30
0
0
SEQEND
8
RASTER
0
POLYLINE
8
RASTER
66
1
70
1
0
VERTEX
8
RASTER
10
102.524
20
20.165
30
0
0
VERTEX
8
RASTER
10
102.231
20
20.028
30
0
0
VERTEX
8
RASTER
10
101.254
20
19.051
30
0
0
VERTEX
8
RASTER
10
101.118
20
18.758
30
0
0
VERTEX
8
RASTER
10
102.036
20
18.407
30
0
0
VERTEX
8
RASTER
10
102.231
20
18.016
30
0
0
VERTEX
8
RASTER
10
102.456
20
17.85
30
0
0
VERTEX
8
RASTER
10
103.237
20
17.85
30
0
0
VERTEX
8
RASTER
10
103.725
20
17.752
30
0
0
VERTEX
8
RASTER
10
104.243
20
17.489
30
0
0
VERTEX
8
RASTER
10
104.507
20
16.971
30
0
0
VERTEX
8
RASTER
10
104.8
20
15.701
30
0
0
VERTEX
8
RASTER
10
105.161
20
14.988
30
0
0
VERTEX
8
RASTER
10
105.581
20
14.92
30
0
0
VERTEX
8
RASTER
10
106.362
20
15.115
30
0
0
VERTEX
8
RASTER
10
107.632
20
15.115
30
0
0
VERTEX
8
RASTER
10
108.12
20
14.92
30
0
0
VERTEX
8
RASTER
10
108.345
20
15.086
30
0
0
VERTEX
8
RASTER
10
108.775
20
15.731
30
0
0
VERTEX
8
RASTER
10
108.511
20
15.897
30
0
0
VERTEX
8
RASTER
10
106.265
20
15.799
30
0
0
VERTEX
8
RASTER
10
105.942
20
15.965
30
0
0
VERTEX
8
RASTER
10
104.731
20
18.27
30
0
0
VERTEX
8
RASTER
10
103.11
20
19.188
30
0
0
VERTEX
8
RASTER
10
102.817
20
19.481
30
0
0
SEQEND
8
RASTER
0
POLYLINE
8
RASTER
66
1
70
1
0
VERTEX
8
RASTER
10
107.827
20
19.901
30
0
0
VERTEX
8
RASTER
10
107.603
20
19.735
30
0
0
VERTEX
8
RASTER
10
107.437
20
19.413
30
0
0
VERTEX
8
RASTER
10
106.587
20
17.391
30
0
0
VERTEX
8
RASTER
10
107.144
20
17.069
30
0
0
VERTEX
8
RASTER
10
109.097
20
16.287
30
0
0
VERTEX
8
RASTER
10
109.292
20
16.58
30
0
0
VERTEX
8
RASTER
10
109.292
20
16.873
30
0
0
VERTEX
8
RASTER
10
109.488
20
17.362
30
0
0
VERTEX
8
RASTER
10
109.419
20
17.782
30
0
0
VERTEX
8
RASTER
10
109.097
20
18.045
30
0
0
VERTEX
8
RASTER
10
109.165
20
18.309
30
0
0
VERTEX
8
RASTER
10
108.833
20
18.309
30
0
0
VERTEX
8
RASTER
10
108.706
20
18.045
30
0
0
VERTEX
8
RASTER
10
108.511
20
18.338
30
0
0
VERTEX
8
RASTER
10
108.384
20
17.977
30
0
0
VERTEX
8
RASTER
10
107.925
20
17.948
30
0
0
VERTEX
8
RASTER
10
107.73
20
18.045
30
0
0
VERTEX
8
RASTER
10
107.603
20
17.782
30
0
0
VERTEX
8
RASTER
10
107.437
20
17.752
30
0
0
VERTEX
8
RASTER
10
107.241
20
17.948
30
0
0
VERTEX
8
RASTER
10
107.466
20
18.7
30
0
0
VERTEX
8
RASTER
10
108.023
20
19.315
30
0
0
VERTEX
8
RASTER
10
108.609
20
19.12
30
0
0
VERTEX
8
RASTER
10
108.902
20
18.924
30
0
0
VERTEX
8
RASTER
10
109.165
20
18.895
30
0
0
VERTEX
8
RASTER
10
109.224
20
18.563
30
0
0
VERTEX
8
RASTER
10
109.488
20
18.631
30
0
0
VERTEX
8
RASTER
10
109.683
20
18.436
30
0
0
VERTEX
8
RASTER
10
110.201
20
18.504
30
0
0
VERTEX
8
RASTER
10
110.367
20
18.827
30
0
0
VERTEX
8
RASTER
10
109.878
20
19.12
30
0
0
VERTEX
8
RASTER
10
109.585
20
19.12
30
0
0
VERTEX
8
RASTER
10
109.292
20
19.315
30
0
0
SEQEND
8
RASTER
0
POLYLINE
8
RASTER
66
1
70
1
0
VERTEX
8
RASTER
10
117.106
20
19.12
30
0
0
VERTEX
8
RASTER
10
116.979
20
19.051
30
0
0
VERTEX
8
RASTER
10
116.715
20
18.436
30
0
0
VERTEX
8
RASTER
10
117.076
20
18.114
30
0
0
VERTEX
8
RASTER
10
117.301
20
18.045
30
0
0
VERTEX
8
RASTER
10
117.496
20
18.338
30
0
0
VERTEX
8
RASTER
10
117.594
20
18.729
30
0
0
VERTEX
8
RASTER
10
117.428
20
18.954
30
0
0
SEQEND
8
RASTER
0
POLYLINE
8
RASTER
66
1
70
1
0
VERTEX
8
RASTER
10
114.469
20
18.436
30
0
0
VERTEX
8
RASTER
10
114.273
20
18.338
30
0
0
VERTEX
8
RASTER
10
113.785
20
18.338
30
0
0
VERTEX
8
RASTER
10
112.808
20
18.045
30
0
0
VERTEX
8
RASTER
10
110.533
20
16.707
30
0
0
VERTEX
8
RASTER
10
109.458
20
15.731
30
0
0
VERTEX
8
RASTER
10
108.482
20
14.363
30
0
0
VERTEX
8
RASTER
10
107.632
20
12.576
30
0
0
VERTEX
8
RASTER
10
107.632
20
12.283
30
0
0
VERTEX
8
RASTER
10
107.437
20
11.795
30
0
0
VERTEX
8
RASTER
10
107.437
20
11.404
30
0
0
VERTEX
8
RASTER
10
107.241
20
10.72
30
0
0
VERTEX
8
RASTER
10
107.339
20
7.888
30
0
0
VERTEX
8
RASTER
10
107.603
20
7.273
30
0
0
VERTEX
8
RASTER
10
108.15
20
7.136
30
0
0
VERTEX
8
RASTER
10
109.39
20
7.204
30
0
0
VERTEX
8
RASTER
10
110.171
20
7.4
30
0
0
VERTEX
8
RASTER
10
111.148
20
7.4
30
0
0
VERTEX
8
RASTER
10
111.539
20
7.595
30
0
0
VERTEX
8
RASTER
10
111.832
20
7.595
30
0
0
VERTEX
8
RASTER
10
112.125
20
7.79
30
0
0
VERTEX
8
RASTER
10
112.32
20
7.79
30
0
0
VERTEX
8
RASTER
10
112.838
20
8.152
30
0
0
VERTEX
8
RASTER
10
112.935
20
8.347
30
0
0
VERTEX
8
RASTER
10
113.228
20
8.445
30
0
0
VERTEX
8
RASTER
10
113.365
20
8.699
30
0
0
VERTEX
8
RASTER
10
114.01
20
9.031
30
0
0
VERTEX
8
RASTER
10
114.537
20
9.48
30
0
0
VERTEX
8
RASTER
10
114.732
20
9.519
30
0
0
VERTEX
8
RASTER
10
114.566
20
9.255
30
0
0
VERTEX
8
RASTER
10
114.693
20
9.226
30
0
0
VERTEX
8
RASTER
10
115.572
20
10.105
30
0
0
VERTEX
8
RASTER
10
116.061
20
10.789
30
0
0
VERTEX
8
RASTER
10
116.324
20
11.697
30
0
0
VERTEX
8
RASTER
10
116.94
20
12.547
30
0
0
VERTEX
8
RASTER
10
117.106
20
12.967
30
0
0
VERTEX
8
RASTER
10
117.203
20
13.65
30
0
0
VERTEX
8
RASTER
10
117.594
20
14.92
30
0
0
VERTEX
8
RASTER
10
117.594
20
16.092
30
0
0
VERTEX
8
RASTER
10
117.33
20
16.903
30
0
0
VERTEX
8
RASTER
10
117.037
20
17.489
30
0
0
VERTEX
8
RASTER
10
116.744
20
17.782
30
0
0
VERTEX
8
RASTER
10
116.354
20
18.075
30
0
0
VERTEX
8
RASTER
10
115.445
20
18.436
30
0
0
VERTEX
8
RASTER
10
114.635
20
18.368
30
0
0
SEQEND
8
RASTER
0
POLYLINE
8
RASTER
66
1
70
1
0
VERTEX
8
RASTER
10
113.228
20
17.137
30
0
0
VERTEX
8
RASTER
10
113.463
20
17.098
30
0
0
VERTEX
8
RASTER
10
111.763
20
15.965
30
0
0
VERTEX
8
RASTER
10
111.666
20
15.77
30
0
0
VERTEX
8
RASTER
10
110.591
20
14.754
30
0
0
VERTEX
8
RASTER
10
110.562
20
14.92
30
0
0
VERTEX
8
RASTER
10
110.923
20
15.438
30
0
0
VERTEX
8
RASTER
10
111.509
20
15.828
30
0
0
VERTEX
8
RASTER
10
112.193
20
16.512
30
0
0
VERTEX
8
RASTER
10
113.17
20
17
30
0
0
SEQEND
8
RASTER
0
POLYLINE
8
RASTER
66
1
70
1
0
VERTEX
8
RASTER
10
114.986
20
14.988
30
0
0
VERTEX
8
RASTER
10
115.055
20
14.92
30
0
0
VERTEX
8
RASTER
10
114.791
20
14.5
30
0
0
VERTEX
8
RASTER
10
114.498
20
14.266
30
0
0
VERTEX
8
RASTER
10
114.537
20
14.461
30
0
0
SEQEND
8
RASTER
0
POLYLINE
8
RASTER
66
1
70
1
0
VERTEX
8
RASTER
10
116.842
20
14.988
30
0
0
VERTEX
8
RASTER
10
117.008
20
14.92
30
0
0
VERTEX
8
RASTER
10
116.813
20
14.432
30
0
0
VERTEX
8
RASTER
10
116.813
20
14.041
30
0
0
VERTEX
8
RASTER
10
116.354
20
12.937
30
0
0
VERTEX
8
RASTER
10
115.416
20
11.629
30
0
0
VERTEX
8
RASTER
10
114.889
20
11.14
30
0
0
VERTEX
8
RASTER
10
114.928
20
11.433
30
0
0
VERTEX
8
RASTER
10
115.475
20
12.156
30
0
0
VERTEX
8
RASTER
10
115.963
20
13.035
30
0
0
SEQEND
8
RASTER
0
POLYLINE
8
RASTER
66
1
70
1
0
VERTEX
8
RASTER
10
109.224
20
12.937
30
0
0
VERTEX
8
RASTER
10
108.345
20
11.043
30
0
0
VERTEX
8
RASTER
10
108.316
20
11.209
30
0
0
VERTEX
8
RASTER
10
108.511
20
11.795
30
0
0
VERTEX
8
RASTER
10
108.872
20
12.508
30
0
0
SEQEND
8
RASTER
0
POLYLINE
8
RASTER
66
1
70
1
0
VERTEX
8
RASTER
10
111.861
20
11.277
30
0
0
VERTEX
8
RASTER
10
111.929
20
11.209
30
0
0
VERTEX
8
RASTER
10
111.861
20
11.082
30
0
0
VERTEX
8
RASTER
10
111.568
20
10.691
30
0
0
VERTEX
8
RASTER
10
111.021
20
10.261
30
0
0
VERTEX
8
RASTER
10
110.884
20
10.007
30
0
0
VERTEX
8
RASTER
10
110.63
20
9.871
30
0
0
VERTEX
8
RASTER
10
110.005
20
9.226
30
0
0
VERTEX
8
RASTER
10
109.322
20
8.894
30
0
0
VERTEX
8
RASTER
10
109.458
20
9.187
30
0
0
VERTEX
8
RASTER
10
109.751
20
9.48
30
0
0
VERTEX
8
RASTER
10
110.005
20
9.617
30
0
0
VERTEX
8
RASTER
10
110.63
20
10.261
30
0
0
VERTEX
8
RASTER
10
110.884
20
10.398
30
0
0
VERTEX
8
RASTER
10
111.509
20
11.043
30
0
0
SEQEND
8
RASTER
0
POLYLINE
8
RASTER
66
1
70
1
0
VERTEX
8
RASTER
10
114.107
20
10.398
30
0
0
VERTEX
8
RASTER
10
114.176
20
10.33
30
0
0
VERTEX
8
RASTER
10
114.107
20
10.203
30
0
0
VERTEX
8
RASTER
10
113.814
20
9.812
30
0
0
VERTEX
8
RASTER
10
112.74
20
8.835
30
0
0
VERTEX
8
RASTER
10
111.05
20
7.986
30
0
0
VERTEX
8
RASTER
10
110.074
20
7.693
30
0
0
VERTEX
8
RASTER
10
109.908
20
7.722
30
0
0
VERTEX
8
RASTER
10
109.908
20
7.859
30
0
0
VERTEX
8
RASTER
10
110.337
20
8.113
30
0
0
VERTEX
8
RASTER
10
112.056
20
8.933
30
0
0
SEQEND
8
RASTER
0
POLYLINE
8
CUT
66
1
70
1
0
VERTEX
8
CUT
10
130.888
20
27.441
30
0
0
VERTEX
8
CUT
10
134.976
20
27.349
30
0
0
VERTEX
8
CUT
10
136.973
20
25.269
30
0
0
VERTEX
8
CUT
10
139.053
20
26.242
30
0
0
VERTEX
8
CUT
10
143.1
20
26.15
30
0
0
VERTEX
8
CUT
10
145.21
20
24.572
30
0
0
VERTEX
8
CUT
10
145.661
20
22.36
30
0
0
VERTEX
8
CUT
10
146.429
20
21.079
30
0
0
VERTEX
8
CUT
10
146.501
20
17.258
30
0
0
VERTEX
8
CUT
10
146.122
20
16.1
30
0
0
VERTEX
8
CUT
10
143.469
20
12.914
30
0
0
VERTEX
8
CUT
10
142.526
20
10.681
30
0
0
VERTEX
8
CUT
10
140.487
20
9.543
30
0
0
VERTEX
8
CUT
10
137.568
20
6.316
30
0
0
VERTEX
8
CUT
10
136.584
20
5.763
30
0
0
VERTEX
8
CUT
10
132.568
20
5.681
30
0
0
VERTEX
8
CUT
10
130.775
20
6.04
30
0
0
VERTEX
8
CUT
10
129.679
20
6.788
30
0
0
VERTEX
8
CUT
10
128.778
20
8.14
30
0
0
VERTEX
8
CUT
10
126.309
20
8.335
30
0
0
VERTEX
8
CUT
10
125.049
20
8.919
30
0
0
VERTEX
8
CUT
10
124.147
20
9.861
30
0
0
VERTEX
8
CUT
10
123.645
20
10.896
30
0
0
VERTEX
8
CUT
10
123.717
20
16.172
30
0
0
VERTEX
8
CUT
10
124.454
20
17.176
30
0
0
VERTEX
8
CUT
10
128.347
20
19.706
30
0
0
VERTEX
8
CUT
10
127.958
20
21.458
30
0
0
VERTEX
8
CUT
10
128.091
20
25.423
30
0
0
VERTEX
8
CUT
10
128.583
20
26.058
30
0
0
SEQEND
8
CUT
0
POLYLINE
8
RASTER
66
1
70
1
0
VERTEX
8
RASTER
10
132.394
20
25.73
30
0
0
VERTEX
8
RASTER
10
133.08
20
25.761
30
0
0
VERTEX
8
RASTER
10
133.828
20
25.382
30
0
0
VERTEX
8
RASTER
10
136.287
20
21.899
30
0
0
VERTEX
8
RASTER
10
139.504
20
24.05
30
0
0
VERTEX
8
RASTER
10
140.457
20
24.531
30
0
0
VERTEX
8
RASTER
10
141.276
20
24.531
30
0
0
VERTEX
8
RASTER
10
141.819
20
24.255
30
0
0
VERTEX
8
RASTER
10
142.024
20
24.05
30
0
0
VERTEX
8
RASTER
10
142.372
20
23.374
30
0
0
VERTEX
8
RASTER
10
143.018
20
23.302
30
0
0
VERTEX
8
RASTER
10
143.458
20
23.026
30
0
0
VERTEX
8
RASTER
10
143.837
20
22.278
30
0
0
VERTEX
8
RASTER
10
143.837
20
21.356
30
0
0
VERTEX
8
RASTER
10
143.663
20
20.915
30
0
0
VERTEX
8
RASTER
10
143.458
20
20.669
30
0
0
VERTEX
8
RASTER
10
144.175
20
20.362
30
0
0
VERTEX
8
RASTER
10
144.483
20
20.055
30
0
0
VERTEX
8
RASTER
10
144.862
20
19.102
30
0
0
VERTEX
8
RASTER
10
144.759
20
18.385
30
0
0
VERTEX
8
RASTER
10
144.278
20
17.534
30
0
0
VERTEX
8
RASTER
10
141.553
20
14.317
30
0
0
VERTEX
8
RASTER
10
141.481
20
13.57
30
0
0
VERTEX
8
RASTER
10
141.276
20
12.955
30
0
0
VERTEX
8
RASTER
10
141
20
12.514
30
0
0
VERTEX
8
RASTER
10
140.282
20
11.9
30
0
0
VERTEX
8
RASTER
10
138.889
20
11.347
30
0
0
VERTEX
8
RASTER
10
138.438
20
10.773
30
0
0
VERTEX
8
RASTER
10
137.865
20
10.22
30
0
0
VERTEX
8
RASTER
10
137.721
20
9.953
30
0
0
VERTEX
8
RASTER
10
136.943
20
9.195
30
0
0
VERTEX
8
RASTER
10
136.799
20
8.929
30
0
0
VERTEX
8
RASTER
10
135.672
20
7.802
30
0
0
VERTEX
8
RASTER
10
134.924
20
7.423
30
0
0
VERTEX
8
RASTER
10
133.49
20
7.423
30
0
0
VERTEX
8
RASTER
10
132.466
20
7.73
30
0
0
VERTEX
8
RASTER
10
131.615
20
8.212
30
0
0
VERTEX
8
RASTER
10
131.206
20
8.621
30
0
0
VERTEX
8
RASTER
10
130.827
20
9.267
30
0
0
VERTEX
8
RASTER
10
130.724
20
9.574
30
0
0
VERTEX
8
RASTER
10
130.693
20
10.773
30
0
0
VERTEX
8
RASTER
10
129.597
20
10.086
30
0
0
VERTEX
8
RASTER
10
128.88
20
9.882
30
0
0
VERTEX
8
RASTER
10
128.061
20
9.984
30
0
0
VERTEX
8
RASTER
10
126.903
20
10.465
30
0
0
VERTEX
8
RASTER
10
126.596
20
10.67
30
0
0
VERTEX
8
RASTER
10
125.776
20
11.592
30
0
0
VERTEX
8
RASTER
10
125.294
20
12.648
30
0
0
VERTEX
8
RASTER
10
125.294
20
13.16
30
0
0
VERTEX
8
RASTER
10
125.192
20
13.365
30
0
0
VERTEX
8
RASTER
10
125.397
20
14.492
30
0
0
VERTEX
8
RASTER
10
125.878
20
15.342
30
0
0
VERTEX
8
RASTER
10
131.82
20
19.133
30
0
0
VERTEX
8
RASTER
10
130.652
20
20.977
30
0
0
VERTEX
8
RASTER
10
130.079
20
21.735
30
0
0
VERTEX
8
RASTER
10
129.7
20
22.483
30
0
0
VERTEX
8
RASTER
10
129.597
20
23.2
30
0
0
VERTEX
8
RASTER
10
129.935
20
24.091
30
0
0
VERTEX
8
RASTER
10
130.181
20
24.357
30
0
0
VERTEX
8
RASTER
10
130.724
20
24.634
30
0
0
VERTEX
8
RASTER
10
131.308
20
24.665
30
0
0
VERTEX
8
RASTER
10
131.718
20
25.382
30
0
0
SEQEND
8
RASTER
0
POLYLINE
8
RASTER
66
1
70
1
0
VERTEX
8
RASTER
10
132.568
20
25.249
30
0
0
VERTEX
8
RASTER
10
132.025
20
24.972
30
0
0
VERTEX
8
RASTER
10
131.851
20
24.634
30
0
0
VERTEX
8
RASTER
10
131.923
20
24.193
30
0
0
VERTEX
8
RASTER
10
132.804
20
23.026
30
0
0
VERTEX
8
RASTER
10
134.279
20
20.813
30
0
0
VERTEX
8
RASTER
10
135.775
20
18.825
30
0
0
VERTEX
8
RASTER
10
136.635
20
17.432
30
0
0
VERTEX
8
RASTER
10
137.516
20
16.264
30
0
0
VERTEX
8
RASTER
10
138.275
20
15.076
30
0
0
VERTEX
8
RASTER
10
138.377
20
15.035
30
0
0
VERTEX
8
RASTER
10
138.787
20
15.649
30
0
0
VERTEX
8
RASTER
10
139.432
20
15.926
30
0
0
VERTEX
8
RASTER
10
140.016
20
15.957
30
0
0
VERTEX
8
RASTER
10
137.352
20
19.481
30
0
0
VERTEX
8
RASTER
10
133.623
20
24.87
30
0
0
VERTEX
8
RASTER
10
133.08
20
25.249
30
0
0
SEQEND
8
RASTER
0
POLYLINE
8
RASTER
66
1
70
1
0
VERTEX
8
RASTER
10
130.724
20
24.122
30
0
0
VERTEX
8
RASTER
10
130.386
20
23.948
30
0
0
VERTEX
8
RASTER
10
130.109
20
23.405
30
0
0
VERTEX
8
RASTER
10
130.109
20
22.79
30
0
0
VERTEX
8
RASTER
10
130.284
20
22.452
30
0
0
VERTEX
8
RASTER
10
133.931
20
17.084
30
0
0
VERTEX
8
RASTER
10
135.816
20
14.01
30
0
0
VERTEX
8
RASTER
10
136.226
20
14.727
30
0
0
VERTEX
8
RASTER
10
136.533
20
15.035
30
0
0
VERTEX
8
RASTER
10
137.557
20
15.444
30
0
0
VERTEX
8
RASTER
10
137.516
20
15.547
30
0
0
VERTEX
8
RASTER
10
135.304
20
18.456
30
0
0
VERTEX
8
RASTER
10
132.23
20
22.862
30
0
0
VERTEX
8
RASTER
10
132.087
20
22.821
30
0
0
VERTEX
8
RASTER
10
132.087
20
22.964
30
0
0
VERTEX
8
RASTER
10
131.882
20
22.718
30
0
0
VERTEX
8
RASTER
10
132.025
20
23.066
30
0
0
VERTEX
8
RASTER
10
131.82
20
22.923
30
0
0
VERTEX
8
RASTER
10
131.718
20
22.964
30
0
0
VERTEX
8
RASTER
10
131.103
20
23.681
30
0
0
VERTEX
8
RASTER
10
131.031
20
23.814
30
0
0
VERTEX
8
RASTER
10
131.134
20
23.917
30
0
0
VERTEX
8
RASTER
10
131.574
20
23.64
30
0
0
VERTEX
8
RASTER
10
131.574
20
23.743
30
0
0
VERTEX
8
RASTER
10
130.929
20
24.122
30
0
0
SEQEND
8
RASTER
0
POLYLINE
8
RASTER
66
1
70
1
0
VERTEX
8
RASTER
10
140.866
20
24.122
30
0
0
VERTEX
8
RASTER
10
140.457
20
24.019
30
0
0
VERTEX
8
RASTER
10
139.606
20
23.538
30
0
0
VERTEX
8
RASTER
10
136.738
20
21.591
30
0
0
VERTEX
8
RASTER
10
136.666
20
21.356
30
0
0
VERTEX
8
RASTER
10
136.943
20
20.915
30
0
0
VERTEX
8
RASTER
10
137.25
20
20.669
30
0
0
VERTEX
8
RASTER
10
138.07
20
21.284
30
0
0
VERTEX
8
RASTER
10
139.811
20
22.308
30
0
0
VERTEX
8
RASTER
10
139.944
20
22.38
30
0
0
VERTEX
8
RASTER
10
140.119
20
22.308
30
0
0
VERTEX
8
RASTER
10
140.221
20
22.452
30
0
0
VERTEX
8
RASTER
10
140.354
20
22.073
30
0
0
VERTEX
8
RASTER
10
141.614
20
22.862
30
0
0
VERTEX
8
RASTER
10
141.86
20
23.128
30
0
0
VERTEX
8
RASTER
10
141.717
20
23.538
30
0
0
VERTEX
8
RASTER
10
141.512
20
23.845
30
0
0
SEQEND
8
RASTER
0
POLYLINE
8
RASTER
66
1
70
1
0
VERTEX
8
RASTER
10
142.608
20
22.79
30
0
0
VERTEX
8
RASTER
10
141.655
20
22.308
30
0
0
VERTEX
8
RASTER
10
137.926
20
19.788
30
0
0
VERTEX
8
RASTER
10
137.967
20
19.481
30
0
0
VERTEX
8
RASTER
10
138.992
20
18.149
30
0
0
VERTEX
8
RASTER
10
139.156
20
18.149
30
0
0
VERTEX
8
RASTER
10
140.385
20
19.071
30
0
0
VERTEX
8
RASTER
10
140.457
20
19.204
30
0
0
VERTEX
8
RASTER
10
140.385
20
19.276
30
0
0
VERTEX
8
RASTER
10
139.975
20
18.928
30
0
0
VERTEX
8
RASTER
10
140.119
20
19.276
30
0
0
VERTEX
8
RASTER
10
139.873
20
19.133
30
0
0
VERTEX
8
RASTER
10
139.914
20
19.378
30
0
0
VERTEX
8
RASTER
10
139.463
20
19.337
30
0
0
VERTEX
8
RASTER
10
139.606
20
19.645
30
0
0
VERTEX
8
RASTER
10
140.016
20
19.952
30
0
0
VERTEX
8
RASTER
10
141.409
20
20.813
30
0
0
VERTEX
8
RASTER
10
141.512
20
20.772
30
0
0
VERTEX
8
RASTER
10
141.584
20
20.536
30
0
0
VERTEX
8
RASTER
10
141.963
20
20.608
30
0
0
VERTEX
8
RASTER
10
141.891
20
20.331
30
0
0
VERTEX
8
RASTER
10
141.963
20
20.259
30
0
0
VERTEX
8
RASTER
10
143.192
20
21.079
30
0
0
VERTEX
8
RASTER
10
143.325
20
21.356
30
0
0
VERTEX
8
RASTER
10
143.325
20
22.175
30
0
0
VERTEX
8
RASTER
10
143.049
20
22.718
30
0
0
SEQEND
8
RASTER
0
POLYLINE
8
RASTER
66
1
70
1
0
VERTEX
8
RASTER
10
143.223
20
20.126
30
0
0
VERTEX
8
RASTER
10
140.047
20
16.848
30
0
0
VERTEX
8
RASTER
10
140.426
20
16.203
30
0
0
VERTEX
8
RASTER
10
141.379
20
15.004
30
0
0
VERTEX
8
RASTER
10
141.717
20
15.28
30
0
0
VERTEX
8
RASTER
10
141.86
20
15.547
30
0
0
VERTEX
8
RASTER
10
142.331
20
15.998
30
0
0
VERTEX
8
RASTER
10
142.475
20
16.264
30
0
0
VERTEX
8
RASTER
10
143.53
20
17.463
30
0
0
VERTEX
8
RASTER
10
143.458
20
17.534
30
0
0
VERTEX
8
RASTER
10
143.356
20
17.329
30
0
0
VERTEX
8
RASTER
10
142.68
20
16.674
30
0
0
VERTEX
8
RASTER
10
142.434
20
16.674
30
0
0
VERTEX
8
RASTER
10
142.68
20
17.022
30
0
0
VERTEX
8
RASTER
10
142.331
20
16.879
30
0
0
VERTEX
8
RASTER
10
142.372
20
17.125
30
0
0
VERTEX
8
RASTER
10
142.127
20
17.084
30
0
0
VERTEX
8
RASTER
10
142.331
20
17.432
30
0
0
VERTEX
8
RASTER
10
143.151
20
18.251
30
0
0
VERTEX
8
RASTER
10
143.253
20
18.006
30
0
0
VERTEX
8
RASTER
10
143.356
20
18.149
30
0
0
VERTEX
8
RASTER
10
143.458
20
18.006
30
0
0
VERTEX
8
RASTER
10
143.807
20
18.047
30
0
0
VERTEX
8
RASTER
10
143.632
20
17.77
30
0
0
VERTEX
8
RASTER
10
143.766
20
17.739
30
0
0
VERTEX
8
RASTER
10
144.247
20
18.487
30
0
0
VERTEX
8
RASTER
10
144.35
20
18.999
30
0
0
VERTEX
8
RASTER
10
144.073
20
19.747
30
0
0
VERTEX
8
RASTER
10
143.632
20
20.126
30
0
0
SEQEND
8
RASTER
0
POLYLINE
8
RASTER
66
1
70
1
0
VERTEX
8
RASTER
10
131.441
20
18.282
30
0
0
VERTEX
8
RASTER
10
128.849
20
16.674
30
0
0
VERTEX
8
RASTER
10
127.62
20
15.854
30
0
0
VERTEX
8
RASTER
10
127.579
20
15.752
30
0
0
VERTEX
8
RASTER
10
128.296
20
15.444
30
0
0
VERTEX
8
RASTER
10
128.849
20
14.871
30
0
0
VERTEX
8
RASTER
10
129.013
20
14.871
30
0
0
VERTEX
8
RASTER
10
132.087
20
17.125
30
0
0
VERTEX
8
RASTER
10
132.158
20
17.36
30
0
0
VERTEX
8
RASTER
10
131.882
20
17.903
30
0
0
VERTEX
8
RASTER
10
131.677
20
18.21
30
0
0
SEQEND
8
RASTER
0
POLYLINE
8
RASTER
66
1
70
1
0
VERTEX
8
RASTER
10
139.535
20
17.668
30
0
0
VERTEX
8
RASTER
10
139.432
20
17.565
30
0
0
VERTEX
8
RASTER
10
139.504
20
17.432
30
0
0
VERTEX
8
RASTER
10
139.74
20
17.258
30
0
0
VERTEX
8
RASTER
10
140.119
20
17.596
30
0
0
VERTEX
8
RASTER
10
139.77
20
17.391
30
0
0
VERTEX
8
RASTER
10
139.565
20
17.493
30
0
0
SEQEND
8
RASTER
0
POLYLINE
8
RASTER
66
1
70
1
0
VERTEX
8
RASTER
10
132.947
20
16.203
30
0
0
VERTEX
8
RASTER
10
132.64
20
16.059
30
0
0
VERTEX
8
RASTER
10
129.597
20
13.877
30
0
0
VERTEX
8
RASTER
10
130.243
20
13.498
30
0
0
VERTEX
8
RASTER
10
130.652
20
12.986
30
0
0
VERTEX
8
RASTER
10
130.827
20
12.545
30
0
0
VERTEX
8
RASTER
10
130.857
20
11.756
30
0
0
VERTEX
8
RASTER
10
132.496
20
13.027
30
0
0
VERTEX
8
RASTER
10
133.562
20
14.01
30
0
0
VERTEX
8
RASTER
10
133.593
20
14.799
30
0
0
VERTEX
8
RASTER
10
133.49
20
15.311
30
0
0
VERTEX
8
RASTER
10
133.214
20
15.957
30
0
0
SEQEND
8
RASTER
0
POLYLINE
8
RASTER
66
1
70
1
0
VERTEX
8
RASTER
10
139.432
20
15.516
30
0
0
VERTEX
8
RASTER
10
139.094
20
15.342
30
0
0
VERTEX
8
RASTER
10
138.787
20
15.035
30
0
0
VERTEX
8
RASTER
10
138.715
20
14.389
30
0
0
VERTEX
8
RASTER
10
138.992
20
14.051
30
0
0
VERTEX
8
RASTER
10
139.432
20
13.979
30
0
0
VERTEX
8
RASTER
10
139.463
20
14.113
30
0
0
VERTEX
8
RASTER
10
139.125
20
14.492
30
0
0
VERTEX
8
RASTER
10
139.197
20
14.83
30
0
0
VERTEX
8
RASTER
10
139.637
20
15.106
30
0
0
VERTEX
8
RASTER
10
140.282
20
14.83
30
0
0
VERTEX
8
RASTER
10
140.559
20
14.287
30
0
0
VERTEX
8
RASTER
10
140.559
20
13.775
30
0
0
VERTEX
8
RASTER
10
140.385
20
13.334
30
0
0
VERTEX
8
RASTER
10
140.078
20
12.924
30
0
0
VERTEX
8
RASTER
10
139.33
20
12.443
30
0
0
VERTEX
8
RASTER
10
138.613
20
12.238
30
0
0
VERTEX
8
RASTER
10
137.895
20
12.34
30
0
0
VERTEX
8
RASTER
10
137.25
20
12.617
30
0
0
VERTEX
8
RASTER
10
136.943
20
12.924
30
0
0
VERTEX
8
RASTER
10
136.666
20
13.57
30
0
0
VERTEX
8
RASTER
10
136.84
20
14.113
30
0
0
VERTEX
8
RASTER
10
137.178
20
14.389
30
0
0
VERTEX
8
RASTER
10
137.721
20
14.317
30
0
0
VERTEX
8
RASTER
10
137.793
20
13.877
30
0
0
VERTEX
8
RASTER
10
137.588
20
13.57
30
0
0
VERTEX
8
RASTER
10
137.691
20
13.467
30
0
0
VERTEX
8
RASTER
10
137.926
20
13.539
30
0
0
VERTEX
8
RASTER
10
138.203
20
13.877
30
0
0
VERTEX
8
RASTER
10
138.131
20
14.625
30
0
0
VERTEX
8
RASTER
10
137.824
20
14.932
30
0
0
VERTEX
8
RASTER
10
137.383
20
15.004
30
0
0
VERTEX
8
RASTER
10
136.635
20
14.625
30
0
0
VERTEX
8
RASTER
10
136.256
20
13.979
30
0
0
VERTEX
8
RASTER
10
136.256
20
13.262
30
0
0
VERTEX
8
RASTER
10
136.533
20
12.719
30
0
0
VERTEX
8
RASTER
10
136.84
20
12.412
30
0
0
VERTEX
8
RASTER
10
137.895
20
11.93
30
0
0
VERTEX
8
RASTER
10
138.92
20
11.93
30
0
0
VERTEX
8
RASTER
10
139.33
20
12.033
30
0
0
VERTEX
8
RASTER
10
140.282
20
12.514
30
0
0
VERTEX
8
RASTER
10
140.59
20
12.822
30
0
0
VERTEX
8
RASTER
10
140.969
20
13.57
30
0
0
VERTEX
8
RASTER
10
140.969
20
14.389
30
0
0
VERTEX
8
RASTER
10
140.692
20
14.932
30
0
0
VERTEX
8
RASTER
10
140.282
20
15.342
30
0
0
VERTEX
8
RASTER
10
139.944
20
15.516
30
0
0
SEQEND
8
RASTER
0
POLYLINE
8
RASTER
66
1
70
1
0
VERTEX
8
RASTER
10
127.241
20
15.414
30
0
0
VERTEX
8
RASTER
10
126.698
20
15.24
30
0
0
VERTEX
8
RASTER
10
126.083
20
14.83
30
0
0
VERTEX
8
RASTER
10
125.704
20
13.877
30
0
0
VERTEX
8
RASTER
10
125.704
20
13.057
30
0
0
VERTEX
8
RASTER
10
125.807
20
12.648
30
0
0
VERTEX
8
RASTER
10
126.288
20
11.695
30
0
0
VERTEX
8
RASTER
10
127.005
20
10.978
30
0
0
VERTEX
8
RASTER
10
127.753
20
10.599
30
0
0
VERTEX
8
RASTER
10
128.47
20
10.394
30
0
0
VERTEX
8
RASTER
10
129.392
20
10.496
30
0
0
VERTEX
8
RASTER
10
130.038
20
10.875
30
0
0
VERTEX
8
RASTER
10
130.417
20
11.623
30
0
0
VERTEX
8
RASTER
10
130.417
20
12.545
30
0
0
VERTEX
8
RASTER
10
130.243
20
12.986
30
0
0
VERTEX
8
RASTER
10
129.833
20
13.395
30
0
0
VERTEX
8
RASTER
10
128.983
20
13.467
30
0
0
VERTEX
8
RASTER
10
128.644
20
13.191
30
0
0
VERTEX
8
RASTER
10
128.47
20
12.852
30
0
0
VERTEX
8
RASTER
10
128.47
20
12.34
30
0
0
VERTEX
8
RASTER
10
128.603
20
12.064
30
0
0
VERTEX
8
RASTER
10
128.747
20
12.064
30
0
0
VERTEX
8
RASTER
10
128.952
20
12.678
30
0
0
VERTEX
8
RASTER
10
129.29
20
12.852
30
0
0
VERTEX
8
RASTER
10
129.73
20
12.576
30
0
0
VERTEX
8
RASTER
10
129.874
20
12.105
30
0
0
VERTEX
8
RASTER
10
129.628
20
11.387
30
0
0
VERTEX
8
RASTER
10
129.423
20
11.183
30
0
0
VERTEX
8
RASTER
10
128.778
20
10.906
30
0
0
VERTEX
8
RASTER
10
128.265
20
10.906
30
0
0
VERTEX
8
RASTER
10
127.415
20
11.285
30
0
0
VERTEX
8
RASTER
10
126.698
20
11.9
30
0
0
VERTEX
8
RASTER
10
126.319
20
12.545
30
0
0
VERTEX
8
RASTER
10
126.114
20
13.16
30
0
0
VERTEX
8
RASTER
10
126.114
20
13.57
30
0
0
VERTEX
8
RASTER
10
126.391
20
14.317
30
0
0
VERTEX
8
RASTER
10
126.698
20
14.625
30
0
0
VERTEX
8
RASTER
10
127.036
20
14.799
30
0
0
VERTEX
8
RASTER
10
127.548
20
14.799
30
0
0
VERTEX
8
RASTER
10
127.886
20
14.625
30
0
0
VERTEX
8
RASTER
10
128.061
20
14.287
30
0
0
VERTEX
8
RASTER
10
128.061
20
13.877
30
0
0
VERTEX
8
RASTER
10
127.927
20
13.6
30
0
0
VERTEX
8
RASTER
10
127.477
20
13.436
30
0
0
VERTEX
8
RASTER
10
127.518
20
13.232
30
0
0
VERTEX
8
RASTER
10
127.651
20
13.16
30
0
0
VERTEX
8
RASTER
10
128.061
20
13.16
30
0
0
VERTEX
8
RASTER
10
128.44
20
13.395
30
0
0
VERTEX
8
RASTER
10
128.778
20
14.082
30
0
0
VERTEX
8
RASTER
10
128.706
20
14.42
30
0
0
VERTEX
8
RASTER
10
128.296
20
15.035
30
0
0
VERTEX
8
RASTER
10
127.753
20
15.311
30
0
0
SEQEND
8
RASTER
0
POLYLINE
8
RASTER
66
1
70
1
0
VERTEX
8
RASTER
10
132.599
20
14.358
30
0
0
VERTEX
8
RASTER
10
132.742
20
14.358
30
0
0
VERTEX
8
RASTER
10
132.701
20
14.215
30
0
0
VERTEX
8
RASTER
10
132.906
20
14.01
30
0
0
VERTEX
8
RASTER
10
133.009
20
14.154
30
0
0
VERTEX
8
RASTER
10
133.152
20
14.154
30
0
0
VERTEX
8
RASTER
10
132.947
20
13.703
30
0
0
VERTEX
8
RASTER
10
132.773
20
13.775
30
0
0
VERTEX
8
RASTER
10
132.537
20
13.6
30
0
0
VERTEX
8
RASTER
10
132.292
20
13.6
30
0
0
VERTEX
8
RASTER
10
132.333
20
13.846
30
0
0
VERTEX
8
RASTER
10
132.128
20
13.703
30
0
0
VERTEX
8
RASTER
10
131.882
20
13.703
30
0
0
VERTEX
8
RASTER
10
132.128
20
14.01
30
0
0
SEQEND
8
RASTER
0
POLYLINE
8
RASTER
66
1
70
1
0
VERTEX
8
RASTER
10
134.279
20
13.846
30
0
0
VERTEX
8
RASTER
10
133.562
20
13.293
30
0
0
VERTEX
8
RASTER
10
132.906
20
12.617
30
0
0
VERTEX
8
RASTER
10
132.64
20
12.473
30
0
0
VERTEX
8
RASTER
10
132.292
20
12.064
30
0
0
VERTEX
8
RASTER
10
132.773
20
11.93
30
0
0
VERTEX
8
RASTER
10
133.357
20
11.551
30
0
0
VERTEX
8
RASTER
10
133.459
20
11.756
30
0
0
VERTEX
8
RASTER
10
134.484
20
12.781
30
0
0
VERTEX
8
RASTER
10
134.791
20
12.822
30
0
0
VERTEX
8
RASTER
10
134.894
20
12.678
30
0
0
VERTEX
8
RASTER
10
134.822
20
13.16
30
0
0
VERTEX
8
RASTER
10
134.648
20
13.498
30
0
0
SEQEND
8
RASTER
0
POLYLINE
8
RASTER
66
1
70
1
0
VERTEX
8
RASTER
10
135.406
20
12.514
30
0
0
VERTEX
8
RASTER
10
134.443
20
11.551
30
0
0
VERTEX
8
RASTER
10
135.467
20
11.142
30
0
0
VERTEX
8
RASTER
10
135.98
20
10.527
30
0
0
VERTEX
8
RASTER
10
136.154
20
9.984
30
0
0
VERTEX
8
RASTER
10
136.328
20
9.81
30
0
0
VERTEX
8
RASTER
10
136.461
20
11.008
30
0
0
VERTEX
8
RASTER
10
136.256
20
11.623
30
0
0
VERTEX
8
RASTER
10
135.98
20
12.064
30
0
0
SEQEND
8
RASTER
0
POLYLINE
8
RASTER
66
1
70
1
0
VERTEX
8
RASTER
10
131.954
20
11.623
30
0
0
VERTEX
8
RASTER
10
131.411
20
11.244
30
0
0
VERTEX
8
RASTER
10
131.134
20
10.701
30
0
0
VERTEX
8
RASTER
10
131.134
20
9.882
30
0
0
VERTEX
8
RASTER
10
131.411
20
9.236
30
0
0
VERTEX
8
RASTER
10
132.128
20
8.519
30
0
0
VERTEX
8
RASTER
10
133.183
20
8.037
30
0
0
VERTEX
8
RASTER
10
134.238
20
7.863
30
0
0
VERTEX
8
RASTER
10
134.822
20
7.935
30
0
0
VERTEX
8
RASTER
10
135.365
20
8.212
30
0
0
VERTEX
8
RASTER
10
135.57
20
8.417
30
0
0
VERTEX
8
RASTER
10
135.847
20
8.959
30
0
0
VERTEX
8
RASTER
10
135.847
20
9.984
30
0
0
VERTEX
8
RASTER
10
135.57
20
10.527
30
0
0
VERTEX
8
RASTER
10
135.263
20
10.834
30
0
0
VERTEX
8
RASTER
10
134.72
20
11.111
30
0
0
VERTEX
8
RASTER
10
134.207
20
11.111
30
0
0
VERTEX
8
RASTER
10
133.726
20
10.875
30
0
0
VERTEX
8
RASTER
10
133.49
20
10.394
30
0
0
VERTEX
8
RASTER
10
133.49
20
10.086
30
0
0
VERTEX
8
RASTER
10
133.767
20
9.646
30
0
0
VERTEX
8
RASTER
10
134.074
20
9.502
30
0
0
VERTEX
8
RASTER
10
134.177
20
9.646
30
0
0
VERTEX
8
RASTER
10
133.9
20
9.984
30
0
0
VERTEX
8
RASTER
10
133.972
20
10.322
30
0
0
VERTEX
8
RASTER
10
134.207
20
10.496
30
0
0
VERTEX
8
RASTER
10
134.75
20
10.424
30
0
0
VERTEX
8
RASTER
10
134.955
20
10.22
30
0
0
VERTEX
8
RASTER
10
135.232
20
9.574
30
0
0
VERTEX
8
RASTER
10
135.232
20
9.267
30
0
0
VERTEX
8
RASTER
10
134.894
20
8.683
30
0
0
VERTEX
8
RASTER
10
134.105
20
8.345
30
0
0
VERTEX
8
RASTER
10
133.388
20
8.345
30
0
0
VERTEX
8
RASTER
10
132.64
20
8.621
30
0
0
VERTEX
8
RASTER
10
132.025
20
9.031
30
0
0
VERTEX
8
RASTER
10
131.82
20
9.236
30
0
0
VERTEX
8
RASTER
10
131.544
20
9.779
30
0
0
VERTEX
8
RASTER
10
131.472
20
10.158
30
0
0
VERTEX
8
RASTER
10
131.615
20
10.732
30
0
0
VERTEX
8
RASTER
10
132.158
20
11.111
30
0
0
VERTEX
8
RASTER
10
132.701
20
10.937
30
0
0
VERTEX
8
RASTER
10
132.876
20
10.701
30
0
0
VERTEX
8
RASTER
10
132.876
20
10.394
30
0
0
VERTEX
8
RASTER
10
132.496
20
10.015
30
0
0
VERTEX
8
RASTER
10
132.773
20
9.882
30
0
0
VERTEX
8
RASTER
10
132.906
20
9.953
30
0
0
VERTEX
8
RASTER
10
133.08
20
10.291
30
0
0
VERTEX
8
RASTER
10
133.08
20
10.599
30
0
0
VERTEX
8
RASTER
10
133.255
20
11.08
30
0
0
VERTEX
8
RASTER
10
133.111
20
11.347
30
0
0
VERTEX
8
RASTER
10
132.773
20
11.623
30
0
0
SEQEND
8
RASTER
0
POLYLINE
8
CUT
66
1
70
1
0
VERTEX
8
CUT
10
165.923
20
27.441
30
0
0
VERTEX
8
CUT
10
169.062
20
27.343
30
0
0
VERTEX
8
CUT
10
169.68
20
26.66
30
0
0
VERTEX
8
CUT
10
169.908
20
24.692
30
0
0
VERTEX
8
CUT
10
172.112
20
24.456
30
0
0
VERTEX
8
CUT
10
172.69
20
23.732
30
0
0
VERTEX
8
CUT
10
172.56
20
20.56
30
0
0
VERTEX
8
CUT
10
172.096
20
20.21
30
0
0
VERTEX
8
CUT
10
170.608
20
19.99
30
0
0
VERTEX
8
CUT
10
170.258
20
17.249
30
0
0
VERTEX
8
CUT
10
169.371
20
16.021
30
0
0
VERTEX
8
CUT
10
167.891
20
14.817
30
0
0
VERTEX
8
CUT
10
167.826
20
11.141
30
0
0
VERTEX
8
CUT
10
167.566
20
9.937
30
0
0
VERTEX
8
CUT
10
166.931
20
9.677
30
0
0
VERTEX
8
CUT
10
163.962
20
9.718
30
0
0
VERTEX
8
CUT
10
160.953
20
10.783
30
0
0
VERTEX
8
CUT
10
159.269
20
10.181
30
0
0
VERTEX
8
CUT
10
157.325
20
9.929
30
0
0
VERTEX
8
CUT
10
156.951
20
9.002
30
0
0
VERTEX
8
CUT
10
156.642
20
8.823
30
0
0
VERTEX
8
CUT
10
153.511
20
8.945
30
0
0
VERTEX
8
CUT
10
153.234
20
9.4
30
0
0
VERTEX
8
CUT
10
153.055
20
10.929
30
0
0
VERTEX
8
CUT
10
151.054
20
11.287
30
0
0
VERTEX
8
CUT
10
150.656
20
11.702
30
0
0
VERTEX
8
CUT
10
150.501
20
12.442
30
0
0
VERTEX
8
CUT
10
150.542
20
17.607
30
0
0
VERTEX
8
CUT
10
151.03
20
18.095
30
0
0
VERTEX
8
CUT
10
153.201
20
18.258
30
0
0
VERTEX
8
CUT
10
153.022
20
19.275
30
0
0
VERTEX
8
CUT
10
153.169
20
22.056
30
0
0
VERTEX
8
CUT
10
154.91
20
22.837
30
0
0
VERTEX
8
CUT
10
158.049
20
23.114
30
0
0
VERTEX
8
CUT
10
159.025
20
25.229
30
0
0
VERTEX
8
CUT
10
160.758
20
26.912
30
0
0
VERTEX
8
CUT
10
163.718
20
26.961
30
0
0
VERTEX
8
CUT
10
165.06
20
25.643
30
0
0
VERTEX
8
CUT
10
165.239
20
27.067
30
0
0
SEQEND
8
CUT
0
POLYLINE
8
RASTER
66
1
70
1
0
VERTEX
8
RASTER
10
167.118
20
26.083
30
0
0
VERTEX
8
RASTER
10
167.582
20
26.107
30
0
0
VERTEX
8
RASTER
10
167.85
20
25.969
30
0
0
VERTEX
8
RASTER
10
168.176
20
25.725
30
0
0
VERTEX
8
RASTER
10
168.395
20
25.294
30
0
0
VERTEX
8
RASTER
10
168.395
20
24.562
30
0
0
VERTEX
8
RASTER
10
168.314
20
24.236
30
0
0
VERTEX
8
RASTER
10
167.85
20
23.236
30
0
0
VERTEX
8
RASTER
10
167.281
20
22.309
30
0
0
VERTEX
8
RASTER
10
168.965
20
23.016
30
0
0
VERTEX
8
RASTER
10
170.022
20
23.26
30
0
0
VERTEX
8
RASTER
10
170.673
20
23.179
30
0
0
VERTEX
8
RASTER
10
171.104
20
22.959
30
0
0
VERTEX
8
RASTER
10
171.267
20
22.797
30
0
0
VERTEX
8
RASTER
10
171.405
20
22.447
30
0
0
VERTEX
8
RASTER
10
171.218
20
21.821
30
0
0
VERTEX
8
RASTER
10
170.941
20
21.528
30
0
0
VERTEX
8
RASTER
10
170.835
20
21.471
30
0
0
VERTEX
8
RASTER
10
170.404
20
21.528
30
0
0
VERTEX
8
RASTER
10
170.347
20
22.04
30
0
0
VERTEX
8
RASTER
10
170.185
20
22.122
30
0
0
VERTEX
8
RASTER
10
169.103
20
21.577
30
0
0
VERTEX
8
RASTER
10
167.525
20
20.47
30
0
0
VERTEX
8
RASTER
10
167.606
20
20.356
30
0
0
VERTEX
8
RASTER
10
167.745
20
20.413
30
0
0
VERTEX
8
RASTER
10
167.989
20
20.332
30
0
0
VERTEX
8
RASTER
10
168.745
20
19.95
30
0
0
VERTEX
8
RASTER
10
169.152
20
19.624
30
0
0
VERTEX
8
RASTER
10
169.209
20
19.275
30
0
0
VERTEX
8
RASTER
10
169.046
20
18.868
30
0
0
VERTEX
8
RASTER
10
168.745
20
18.274
30
0
0
VERTEX
8
RASTER
10
168.338
20
17.705
30
0
0
VERTEX
8
RASTER
10
167.525
20
16.892
30
0
0
VERTEX
8
RASTER
10
166.769
20
16.428
30
0
0
VERTEX
8
RASTER
10
166.118
20
16.184
30
0
0
VERTEX
8
RASTER
10
165.467
20
16.103
30
0
0
VERTEX
8
RASTER
10
165.386
20
16.021
30
0
0
VERTEX
8
RASTER
10
165.736
20
15.639
30
0
0
VERTEX
8
RASTER
10
166.118
20
14.882
30
0
0
VERTEX
8
RASTER
10
166.443
20
13.581
30
0
0
VERTEX
8
RASTER
10
166.443
20
12.036
30
0
0
VERTEX
8
RASTER
10
166.142
20
11.117
30
0
0
VERTEX
8
RASTER
10
165.874
20
10.978
30
0
0
VERTEX
8
RASTER
10
165.223
20
11.06
30
0
0
VERTEX
8
RASTER
10
163.515
20
11.548
30
0
0
VERTEX
8
RASTER
10
162.759
20
11.93
30
0
0
VERTEX
8
RASTER
10
161.783
20
12.825
30
0
0
VERTEX
8
RASTER
10
161.482
20
13.337
30
0
0
VERTEX
8
RASTER
10
161.262
20
13.963
30
0
0
VERTEX
8
RASTER
10
160.53
20
12.825
30
0
0
VERTEX
8
RASTER
10
159.717
20
12.255
30
0
0
VERTEX
8
RASTER
10
158.797
20
11.792
30
0
0
VERTEX
8
RASTER
10
157.171
20
11.385
30
0
0
VERTEX
8
RASTER
10
156.683
20
11.385
30
0
0
VERTEX
8
RASTER
10
156.3
20
11.767
30
0
0
VERTEX
8
RASTER
10
155.926
20
11.409
30
0
0
VERTEX
8
RASTER
10
155.707
20
11.06
30
0
0
VERTEX
8
RASTER
10
155.788
20
10.734
30
0
0
VERTEX
8
RASTER
10
155.731
20
10.385
30
0
0
VERTEX
8
RASTER
10
155.3
20
10.084
30
0
0
VERTEX
8
RASTER
10
154.869
20
10.222
30
0
0
VERTEX
8
RASTER
10
154.568
20
10.653
30
0
0
VERTEX
8
RASTER
10
154.568
20
11.222
30
0
0
VERTEX
8
RASTER
10
154.731
20
11.71
30
0
0
VERTEX
8
RASTER
10
155.276
20
12.629
30
0
0
VERTEX
8
RASTER
10
155.975
20
13.394
30
0
0
VERTEX
8
RASTER
10
156.17
20
13.719
30
0
0
VERTEX
8
RASTER
10
156.008
20
13.687
30
0
0
VERTEX
8
RASTER
10
155.08
20
13.069
30
0
0
VERTEX
8
RASTER
10
154.324
20
12.686
30
0
0
VERTEX
8
RASTER
10
153.511
20
12.442
30
0
0
VERTEX
8
RASTER
10
152.778
20
12.442
30
0
0
VERTEX
8
RASTER
10
152.266
20
12.662
30
0
0
VERTEX
8
RASTER
10
151.941
20
13.069
30
0
0
VERTEX
8
RASTER
10
151.802
20
13.5
30
0
0
VERTEX
8
RASTER
10
151.941
20
14.012
30
0
0
VERTEX
8
RASTER
10
152.071
20
14.207
30
0
0
VERTEX
8
RASTER
10
152.29
20
14.313
30
0
0
VERTEX
8
RASTER
10
152.534
20
14.394
30
0
0
VERTEX
8
RASTER
10
152.803
20
14.256
30
0
0
VERTEX
8
RASTER
10
153.079
20
13.719
30
0
0
VERTEX
8
RASTER
10
153.185
20
13.662
30
0
0
VERTEX
8
RASTER
10
154.186
20
14.289
30
0
0
VERTEX
8
RASTER
10
155.276
20
15.151
30
0
0
VERTEX
8
RASTER
10
154.812
20
15.045
30
0
0
VERTEX
8
RASTER
10
154.405
20
15.045
30
0
0
VERTEX
8
RASTER
10
154.243
20
14.964
30
0
0
VERTEX
8
RASTER
10
153.022
20
14.964
30
0
0
VERTEX
8
RASTER
10
152.103
20
15.346
30
0
0
VERTEX
8
RASTER
10
151.802
20
15.859
30
0
0
VERTEX
8
RASTER
10
151.802
20
16.265
30
0
0
VERTEX
8
RASTER
10
151.941
20
16.534
30
0
0
VERTEX
8
RASTER
10
152.185
20
16.778
30
0
0
VERTEX
8
RASTER
10
152.453
20
16.835
30
0
0
VERTEX
8
RASTER
10
152.722
20
16.696
30
0
0
VERTEX
8
RASTER
10
152.917
20
16.241
30
0
0
VERTEX
8
RASTER
10
153.022
20
16.184
30
0
0
VERTEX
8
RASTER
10
153.429
20
16.184
30
0
0
VERTEX
8
RASTER
10
154.649
20
16.509
30
0
0
VERTEX
8
RASTER
10
156.113
20
17.079
30
0
0
VERTEX
8
RASTER
10
156.52
20
17.323
30
0
0
VERTEX
8
RASTER
10
156.089
20
17.624
30
0
0
VERTEX
8
RASTER
10
155.438
20
18.274
30
0
0
VERTEX
8
RASTER
10
155.032
20
18.844
30
0
0
VERTEX
8
RASTER
10
154.731
20
19.356
30
0
0
VERTEX
8
RASTER
10
154.405
20
20.169
30
0
0
VERTEX
8
RASTER
10
154.462
20
20.682
30
0
0
VERTEX
8
RASTER
10
154.869
20
21.007
30
0
0
VERTEX
8
RASTER
10
155.381
20
21.227
30
0
0
VERTEX
8
RASTER
10
156.113
20
21.471
30
0
0
VERTEX
8
RASTER
10
156.927
20
21.633
30
0
0
VERTEX
8
RASTER
10
158.065
20
21.633
30
0
0
VERTEX
8
RASTER
10
158.879
20
21.389
30
0
0
VERTEX
8
RASTER
10
159.668
20
21.007
30
0
0
VERTEX
8
RASTER
10
159.611
20
22.122
30
0
0
VERTEX
8
RASTER
10
159.855
20
22.935
30
0
0
VERTEX
8
RASTER
10
160.237
20
23.691
30
0
0
VERTEX
8
RASTER
10
160.562
20
24.179
30
0
0
VERTEX
8
RASTER
10
161.457
20
25.155
30
0
0
VERTEX
8
RASTER
10
162.295
20
25.7
30
0
0
VERTEX
8
RASTER
10
162.645
20
25.562
30
0
0
VERTEX
8
RASTER
10
162.97
20
25.237
30
0
0
VERTEX
8
RASTER
10
163.783
20
24.098
30
0
0
VERTEX
8
RASTER
10
164.328
20
22.854
30
0
0
VERTEX
8
RASTER
10
164.41
20
22.528
30
0
0
VERTEX
8
RASTER
10
164.41
20
21.878
30
0
0
VERTEX
8
RASTER
10
164.491
20
21.796
30
0
0
VERTEX
8
RASTER
10
166.386
20
23.643
30
0
0
VERTEX
8
RASTER
10
167.037
20
24.537
30
0
0
VERTEX
8
RASTER
10
167.257
20
24.968
30
0
0
VERTEX
8
RASTER
10
167.232
20
25.107
30
0
0
VERTEX
8
RASTER
10
167.094
20
25.131
30
0
0
VERTEX
8
RASTER
10
166.931
20
25.05
30
0
0
VERTEX
8
RASTER
10
166.581
20
25.107
30
0
0
VERTEX
8
RASTER
10
166.443
20
25.294
30
0
0
VERTEX
8
RASTER
10
166.443
20
25.538
30
0
0
VERTEX
8
RASTER
10
166.663
20
25.887
30
0
0
SEQEND
8
RASTER
0
POLYLINE
8
RASTER
66
1
70
1
0
VERTEX
8
RASTER
10
162.295
20
25.294
30
0
0
VERTEX
8
RASTER
10
162.027
20
25.155
30
0
0
VERTEX
8
RASTER
10
161.132
20
24.261
30
0
0
VERTEX
8
RASTER
10
160.644
20
23.61
30
0
0
VERTEX
8
RASTER
10
160.18
20
22.691
30
0
0
VERTEX
8
RASTER
10
159.936
20
21.471
30
0
0
VERTEX
8
RASTER
10
160.018
20
21.308
30
0
0
VERTEX
8
RASTER
10
160.018
20
20.82
30
0
0
VERTEX
8
RASTER
10
160.318
20
20.064
30
0
0
VERTEX
8
RASTER
10
160.912
20
19.925
30
0
0
VERTEX
8
RASTER
10
161.238
20
19.763
30
0
0
VERTEX
8
RASTER
10
161.644
20
19.925
30
0
0
VERTEX
8
RASTER
10
162.132
20
19.925
30
0
0
VERTEX
8
RASTER
10
162.401
20
19.706
30
0
0
VERTEX
8
RASTER
10
162.596
20
19.332
30
0
0
VERTEX
8
RASTER
10
162.864
20
19.193
30
0
0
VERTEX
8
RASTER
10
163.108
20
19.193
30
0
0
VERTEX
8
RASTER
10
163.458
20
18.974
30
0
0
VERTEX
8
RASTER
10
163.702
20
18.648
30
0
0
VERTEX
8
RASTER
10
163.922
20
18.136
30
0
0
VERTEX
8
RASTER
10
163.84
20
17.648
30
0
0
VERTEX
8
RASTER
10
163.515
20
17.079
30
0
0
VERTEX
8
RASTER
10
164.247
20
16.672
30
0
0
VERTEX
8
RASTER
10
164.735
20
16.509
30
0
0
VERTEX
8
RASTER
10
165.548
20
16.509
30
0
0
VERTEX
8
RASTER
10
166.874
20
16.973
30
0
0
VERTEX
8
RASTER
10
167.362
20
17.298
30
0
0
VERTEX
8
RASTER
10
168.257
20
18.274
30
0
0
VERTEX
8
RASTER
10
168.802
20
19.275
30
0
0
VERTEX
8
RASTER
10
168.745
20
19.462
30
0
0
VERTEX
8
RASTER
10
168.094
20
19.868
30
0
0
VERTEX
8
RASTER
10
166.85
20
20.413
30
0
0
VERTEX
8
RASTER
10
166.199
20
20.576
30
0
0
VERTEX
8
RASTER
10
165.304
20
20.576
30
0
0
VERTEX
8
RASTER
10
164.735
20
20.413
30
0
0
VERTEX
8
RASTER
10
163.979
20
20.031
30
0
0
VERTEX
8
RASTER
10
163.133
20
19.299
30
0
0
VERTEX
8
RASTER
10
163.922
20
20.901
30
0
0
VERTEX
8
RASTER
10
164.06
20
21.821
30
0
0
VERTEX
8
RASTER
10
164.003
20
22.528
30
0
0
VERTEX
8
RASTER
10
163.678
20
23.504
30
0
0
VERTEX
8
RASTER
10
163.295
20
24.179
30
0
0
VERTEX
8
RASTER
10
162.889
20
24.749
30
0
0
SEQEND
8
RASTER
0
POLYLINE
8
RASTER
66
1
70
1
0
VERTEX
8
RASTER
10
157.171
20
21.308
30
0
0
VERTEX
8
RASTER
10
157.008
20
21.227
30
0
0
VERTEX
8
RASTER
10
156.276
20
21.145
30
0
0
VERTEX
8
RASTER
10
155.544
20
20.901
30
0
0
VERTEX
8
RASTER
10
154.788
20
20.519
30
0
0
VERTEX
8
RASTER
10
154.731
20
20.332
30
0
0
VERTEX
8
RASTER
10
154.812
20
20.088
30
0
0
VERTEX
8
RASTER
10
155.276
20
19.169
30
0
0
VERTEX
8
RASTER
10
155.601
20
18.681
30
0
0
VERTEX
8
RASTER
10
156.333
20
17.949
30
0
0
VERTEX
8
RASTER
10
156.658
20
17.705
30
0
0
VERTEX
8
RASTER
10
157.415
20
17.323
30
0
0
VERTEX
8
RASTER
10
157.984
20
17.16
30
0
0
VERTEX
8
RASTER
10
159.204
20
17.16
30
0
0
VERTEX
8
RASTER
10
159.31
20
17.217
30
0
0
VERTEX
8
RASTER
10
159.529
20
17.729
30
0
0
VERTEX
8
RASTER
10
159.529
20
17.973
30
0
0
VERTEX
8
RASTER
10
159.367
20
18.461
30
0
0
VERTEX
8
RASTER
10
159.448
20
18.949
30
0
0
VERTEX
8
RASTER
10
159.668
20
19.462
30
0
0
VERTEX
8
RASTER
10
160.042
20
19.82
30
0
0
VERTEX
8
RASTER
10
160.099
20
19.925
30
0
0
VERTEX
8
RASTER
10
160.042
20
20.031
30
0
0
VERTEX
8
RASTER
10
159.554
20
20.601
30
0
0
VERTEX
8
RASTER
10
158.553
20
21.145
30
0
0
VERTEX
8
RASTER
10
157.903
20
21.308
30
0
0
SEQEND
8
RASTER
0
POLYLINE
8
RASTER
66
1
70
1
0
VERTEX
8
RASTER
10
160.587
20
19.925
30
0
0
VERTEX
8
RASTER
10
160.074
20
19.706
30
0
0
VERTEX
8
RASTER
10
159.912
20
19.543
30
0
0
VERTEX
8
RASTER
10
159.611
20
18.868
30
0
0
VERTEX
8
RASTER
10
159.611
20
18.38
30
0
0
VERTEX
8
RASTER
10
159.936
20
17.811
30
0
0
VERTEX
8
RASTER
10
159.529
20
17.241
30
0
0
VERTEX
8
RASTER
10
159.529
20
16.509
30
0
0
VERTEX
8
RASTER
10
159.749
20
16.078
30
0
0
VERTEX
8
RASTER
10
160.099
20
15.859
30
0
0
VERTEX
8
RASTER
10
160.343
20
15.859
30
0
0
VERTEX
8
RASTER
10
160.831
20
16.184
30
0
0
VERTEX
8
RASTER
10
161.213
20
15.753
30
0
0
VERTEX
8
RASTER
10
161.482
20
15.615
30
0
0
VERTEX
8
RASTER
10
161.807
20
15.615
30
0
0
VERTEX
8
RASTER
10
162.157
20
15.753
30
0
0
VERTEX
8
RASTER
10
162.482
20
15.997
30
0
0
VERTEX
8
RASTER
10
162.702
20
16.428
30
0
0
VERTEX
8
RASTER
10
162.726
20
17.136
30
0
0
VERTEX
8
RASTER
10
163.108
20
17.16
30
0
0
VERTEX
8
RASTER
10
163.409
20
17.347
30
0
0
VERTEX
8
RASTER
10
163.678
20
17.811
30
0
0
VERTEX
8
RASTER
10
163.678
20
18.217
30
0
0
VERTEX
8
RASTER
10
163.377
20
18.73
30
0
0
VERTEX
8
RASTER
10
162.864
20
19.031
30
0
0
VERTEX
8
RASTER
10
162.482
20
19.055
30
0
0
VERTEX
8
RASTER
10
162.458
20
19.275
30
0
0
VERTEX
8
RASTER
10
162.238
20
19.624
30
0
0
VERTEX
8
RASTER
10
161.726
20
19.681
30
0
0
VERTEX
8
RASTER
10
161.343
20
19.38
30
0
0
VERTEX
8
RASTER
10
160.937
20
19.787
30
0
0
SEQEND
8
RASTER
0
POLYLINE
8
RASTER
66
1
70
1
0
VERTEX
8
RASTER
10
161.018
20
18.356
30
0
0
VERTEX
8
RASTER
10
161.238
20
18.38
30
0
0
VERTEX
8
RASTER
10
161.319
20
18.299
30
0
0
VERTEX
8
RASTER
10
160.994
20
17.811
30
0
0
VERTEX
8
RASTER
10
160.994
20
17.404
30
0
0
VERTEX
8
RASTER
10
161.156
20
17.241
30
0
0
VERTEX
8
RASTER
10
161.587
20
17.38
30
0
0
VERTEX
8
RASTER
10
162.027
20
17.835
30
0
0
VERTEX
8
RASTER
10
162.214
20
17.892
30
0
0
VERTEX
8
RASTER
10
162.295
20
17.811
30
0
0
VERTEX
8
RASTER
10
162.157
20
17.542
30
0
0
VERTEX
8
RASTER
10
161.913
20
17.298
30
0
0
VERTEX
8
RASTER
10
161.319
20
16.916
30
0
0
VERTEX
8
RASTER
10
161.075
20
16.916
30
0
0
VERTEX
8
RASTER
10
160.855
20
17.022
30
0
0
VERTEX
8
RASTER
10
160.75
20
17.241
30
0
0
VERTEX
8
RASTER
10
160.75
20
17.892
30
0
0
SEQEND
8
RASTER
0
POLYLINE
8
RASTER
66
1
70
1
0
VERTEX
8
RASTER
10
159.041
20
16.916
30
0
0
VERTEX
8
RASTER
10
157.96
20
16.371
30
0
0
VERTEX
8
RASTER
10
157.228
20
15.639
30
0
0
VERTEX
8
RASTER
10
156.764
20
14.801
30
0
0
VERTEX
8
RASTER
10
156.52
20
13.825
30
0
0
VERTEX
8
RASTER
10
156.52
20
12.605
30
0
0
VERTEX
8
RASTER
10
156.601
20
12.198
30
0
0
VERTEX
8
RASTER
10
156.845
20
11.792
30
0
0
VERTEX
8
RASTER
10
157.171
20
11.792
30
0
0
VERTEX
8
RASTER
10
158.228
20
12.036
30
0
0
VERTEX
8
RASTER
10
159.123
20
12.361
30
0
0
VERTEX
8
RASTER
10
159.798
20
12.743
30
0
0
VERTEX
8
RASTER
10
160.367
20
13.231
30
0
0
VERTEX
8
RASTER
10
161.075
20
14.394
30
0
0
VERTEX
8
RASTER
10
161.238
20
14.882
30
0
0
VERTEX
8
RASTER
10
161.262
20
15.314
30
0
0
VERTEX
8
RASTER
10
160.969
20
15.509
30
0
0
VERTEX
8
RASTER
10
160.75
20
15.777
30
0
0
VERTEX
8
RASTER
10
160.424
20
15.615
30
0
0
VERTEX
8
RASTER
10
160.018
20
15.615
30
0
0
VERTEX
8
RASTER
10
159.749
20
15.753
30
0
0
VERTEX
8
RASTER
10
159.367
20
16.184
30
0
0
VERTEX
8
RASTER
10
159.261
20
16.892
30
0
0
SEQEND
8
RASTER
0
POLYLINE
8
RASTER
66
1
70
1
0
VERTEX
8
RASTER
10
163.19
20
16.835
30
0
0
VERTEX
8
RASTER
10
163.084
20
16.778
30
0
0
VERTEX
8
RASTER
10
162.946
20
16.265
30
0
0
VERTEX
8
RASTER
10
162.645
20
15.753
30
0
0
VERTEX
8
RASTER
10
161.97
20
15.371
30
0
0
VERTEX
8
RASTER
10
161.62
20
15.314
30
0
0
VERTEX
8
RASTER
10
161.563
20
15.208
30
0
0
VERTEX
8
RASTER
10
161.506
20
14.939
30
0
0
VERTEX
8
RASTER
10
161.563
20
14.394
30
0
0
VERTEX
8
RASTER
10
161.807
20
13.662
30
0
0
VERTEX
8
RASTER
10
162.189
20
12.987
30
0
0
VERTEX
8
RASTER
10
162.677
20
12.499
30
0
0
VERTEX
8
RASTER
10
163.165
20
12.174
30
0
0
VERTEX
8
RASTER
10
164.572
20
11.629
30
0
0
VERTEX
8
RASTER
10
165.792
20
11.385
30
0
0
VERTEX
8
RASTER
10
165.955
20
11.548
30
0
0
VERTEX
8
RASTER
10
166.118
20
12.198
30
0
0
VERTEX
8
RASTER
10
166.118
20
13.418
30
0
0
VERTEX
8
RASTER
10
165.874
20
14.476
30
0
0
VERTEX
8
RASTER
10
165.329
20
15.476
30
0
0
VERTEX
8
RASTER
10
164.841
20
15.964
30
0
0
VERTEX
8
RASTER
10
164.271
20
16.371
30
0
0
VERTEX
8
RASTER
10
163.352
20
16.835
30
0
0
SEQEND
8
RASTER
0
ENDSEC
0
EOF
