0
SECTION
2
HEADER
9
$ACADVER
1
AC1009
9
$EXTMIN
10
0
20
0
9
$EXTMAX
10
156.525
20
28.007
0
ENDSEC
0
SECTION
2
TABLES
0
TABLE
2
LAYER
70
2
0
LAYER
2
CUT
70
0
62
1
6
CONTINUOUS
0
LAYER
2
RASTER
70
0
62
7
6
CONTINUOUS
0
ENDTAB
0
ENDSEC
0
SECTION
2
ENTITIES
0
POLYLINE
8
CUT
66
1
70
1
0
VERTEX
8
CUT
10
8.664
20
23.926
30
0
0
VERTEX
8
CUT
10
9.605
20
23.875
30
0
0
VERTEX
8
CUT
10
10.567
20
22.307
30
0
0
VERTEX
8
CUT
10
11.578
20
22.307
30
0
0
VERTEX
8
CUT
10
12.165
20
21.275
30
0
0
VERTEX
8
CUT
10
12.266
20
19.15
30
0
0
VERTEX
8
CUT
10
12.803
20
18.877
30
0
0
VERTEX
8
CUT
10
13.238
20
19.15
30
0
0
VERTEX
8
CUT
10
13.481
20
20.425
30
0
0
VERTEX
8
CUT
10
14.705
20
21.123
30
0
0
VERTEX
8
CUT
10
15.089
20
22.155
30
0
0
VERTEX
8
CUT
10
15.636
20
22.823
30
0
0
VERTEX
8
CUT
10
17.133
20
22.742
30
0
0
VERTEX
8
CUT
10
18.803
20
24.007
30
0
0
VERTEX
8
CUT
10
19.926
20
23.875
30
0
0
VERTEX
8
CUT
10
20.088
20
22.621
30
0
0
VERTEX
8
CUT
10
19.794
20
20.709
30
0
0
VERTEX
8
CUT
10
20.594
20
20.091
30
0
0
VERTEX
8
CUT
10
20.664
20
19.312
30
0
0
VERTEX
8
CUT
10
19.511
20
17.835
30
0
0
VERTEX
8
CUT
10
19.238
20
16.692
30
0
0
VERTEX
8
CUT
10
18.185
20
15.72
30
0
0
VERTEX
8
CUT
10
18.074
20
14.941
30
0
0
VERTEX
8
CUT
10
18.297
20
14.658
30
0
0
VERTEX
8
CUT
10
19.278
20
14.526
30
0
0
VERTEX
8
CUT
10
19.815
20
13.646
30
0
0
VERTEX
8
CUT
10
21.798
20
13.403
30
0
0
VERTEX
8
CUT
10
22.101
20
12.715
30
0
0
VERTEX
8
CUT
10
21.868
20
12.037
30
0
0
VERTEX
8
CUT
10
20.675
20
10.904
30
0
0
VERTEX
8
CUT
10
20.664
20
9.7
30
0
0
VERTEX
8
CUT
10
20.381
20
9.275
30
0
0
VERTEX
8
CUT
10
18.803
20
9.032
30
0
0
VERTEX
8
CUT
10
18.196
20
8.425
30
0
0
VERTEX
8
CUT
10
16.911
20
8.294
30
0
0
VERTEX
8
CUT
10
16.384
20
7.808
30
0
0
VERTEX
8
CUT
10
15.039
20
7.737
30
0
0
VERTEX
8
CUT
10
13.916
20
7.14
30
0
0
VERTEX
8
CUT
10
12.56
20
7.201
30
0
0
VERTEX
8
CUT
10
10.911
20
8.081
30
0
0
VERTEX
8
CUT
10
10.091
20
8.031
30
0
0
VERTEX
8
CUT
10
9.555
20
7.555
30
0
0
VERTEX
8
CUT
10
8.239
20
4.216
30
0
0
VERTEX
8
CUT
10
7.137
20
4.004
30
0
0
VERTEX
8
CUT
10
6.489
20
4.469
30
0
0
VERTEX
8
CUT
10
5.346
20
4.54
30
0
0
VERTEX
8
CUT
10
4.89
20
4.793
30
0
0
VERTEX
8
CUT
10
4.678
20
6.098
30
0
0
VERTEX
8
CUT
10
4.132
20
6.563
30
0
0
VERTEX
8
CUT
10
4
20
7.241
30
0
0
VERTEX
8
CUT
10
4.324
20
7.929
30
0
0
VERTEX
8
CUT
10
7.632
20
9.073
30
0
0
VERTEX
8
CUT
10
8.341
20
10.692
30
0
0
VERTEX
8
CUT
10
8.26
20
11.198
30
0
0
VERTEX
8
CUT
10
6.914
20
12.483
30
0
0
VERTEX
8
CUT
10
6.489
20
13.676
30
0
0
VERTEX
8
CUT
10
6.722
20
17.167
30
0
0
VERTEX
8
CUT
10
6.53
20
18.472
30
0
0
VERTEX
8
CUT
10
6.803
20
20.931
30
0
0
VERTEX
8
CUT
10
7.875
20
21.376
30
0
0
VERTEX
8
CUT
10
8.26
20
23.117
30
0
0
SEQEND
8
CUT
0
POLYLINE
8
RASTER
66
1
70
1
0
VERTEX
8
RASTER
10
8.988
20
23.602
30
0
0
VERTEX
8
RASTER
10
9.393
20
23.461
30
0
0
VERTEX
8
RASTER
10
9.798
20
22.955
30
0
0
VERTEX
8
RASTER
10
10.172
20
22.216
30
0
0
VERTEX
8
RASTER
10
10.506
20
21.032
30
0
0
VERTEX
8
RASTER
10
11.487
20
21.508
30
0
0
VERTEX
8
RASTER
10
11.72
20
21.437
30
0
0
VERTEX
8
RASTER
10
11.892
20
21.204
30
0
0
VERTEX
8
RASTER
10
11.892
20
20.698
30
0
0
VERTEX
8
RASTER
10
11.993
20
20.395
30
0
0
VERTEX
8
RASTER
10
11.791
20
19.383
30
0
0
VERTEX
8
RASTER
10
11.589
20
18.978
30
0
0
VERTEX
8
RASTER
10
12.024
20
18.806
30
0
0
VERTEX
8
RASTER
10
12.196
20
18.574
30
0
0
VERTEX
8
RASTER
10
12.196
20
17.967
30
0
0
VERTEX
8
RASTER
10
11.892
20
17.056
30
0
0
VERTEX
8
RASTER
10
11.963
20
16.823
30
0
0
VERTEX
8
RASTER
10
12.125
20
16.682
30
0
0
VERTEX
8
RASTER
10
12.499
20
17.865
30
0
0
VERTEX
8
RASTER
10
12.772
20
18.402
30
0
0
VERTEX
8
RASTER
10
13.106
20
18.675
30
0
0
VERTEX
8
RASTER
10
13.481
20
18.503
30
0
0
VERTEX
8
RASTER
10
13.713
20
19.687
30
0
0
VERTEX
8
RASTER
10
14.189
20
20.628
30
0
0
VERTEX
8
RASTER
10
14.523
20
20.698
30
0
0
VERTEX
8
RASTER
10
14.796
20
20.567
30
0
0
VERTEX
8
RASTER
10
14.857
20
20.425
30
0
0
VERTEX
8
RASTER
10
14.998
20
20.425
30
0
0
VERTEX
8
RASTER
10
15.13
20
21.305
30
0
0
VERTEX
8
RASTER
10
15.808
20
22.55
30
0
0
VERTEX
8
RASTER
10
16.142
20
22.722
30
0
0
VERTEX
8
RASTER
10
16.273
20
22.651
30
0
0
VERTEX
8
RASTER
10
17.022
20
21.741
30
0
0
VERTEX
8
RASTER
10
17.325
20
22.246
30
0
0
VERTEX
8
RASTER
10
18.135
20
23.056
30
0
0
VERTEX
8
RASTER
10
18.772
20
23.43
30
0
0
VERTEX
8
RASTER
10
19.481
20
23.633
30
0
0
VERTEX
8
RASTER
10
19.612
20
23.562
30
0
0
VERTEX
8
RASTER
10
19.784
20
23.329
30
0
0
VERTEX
8
RASTER
10
19.784
20
22.216
30
0
0
VERTEX
8
RASTER
10
19.481
20
21.103
30
0
0
VERTEX
8
RASTER
10
19.076
20
20.294
30
0
0
VERTEX
8
RASTER
10
19.177
20
20.192
30
0
0
VERTEX
8
RASTER
10
19.987
20
20.091
30
0
0
VERTEX
8
RASTER
10
20.32
20
19.919
30
0
0
VERTEX
8
RASTER
10
20.391
20
19.484
30
0
0
VERTEX
8
RASTER
10
20.118
20
18.948
30
0
0
VERTEX
8
RASTER
10
19.855
20
18.705
30
0
0
VERTEX
8
RASTER
10
19.713
20
18.442
30
0
0
VERTEX
8
RASTER
10
18.843
20
17.795
30
0
0
VERTEX
8
RASTER
10
18.843
20
17.633
30
0
0
VERTEX
8
RASTER
10
19.076
20
17.359
30
0
0
VERTEX
8
RASTER
10
18.904
20
16.823
30
0
0
VERTEX
8
RASTER
10
18.398
20
16.317
30
0
0
VERTEX
8
RASTER
10
17.528
20
15.771
30
0
0
VERTEX
8
RASTER
10
17.487
20
15.67
30
0
0
VERTEX
8
RASTER
10
17.761
20
15.437
30
0
0
VERTEX
8
RASTER
10
17.761
20
15.133
30
0
0
VERTEX
8
RASTER
10
17.589
20
14.8
30
0
0
VERTEX
8
RASTER
10
16.273
20
13.747
30
0
0
VERTEX
8
RASTER
10
16.648
20
13.717
30
0
0
VERTEX
8
RASTER
10
16.85
20
13.818
30
0
0
VERTEX
8
RASTER
10
17.224
20
13.545
30
0
0
VERTEX
8
RASTER
10
18.368
20
14.223
30
0
0
VERTEX
8
RASTER
10
18.975
20
14.324
30
0
0
VERTEX
8
RASTER
10
19.278
20
14.02
30
0
0
VERTEX
8
RASTER
10
19.207
20
13.241
30
0
0
VERTEX
8
RASTER
10
21.201
20
13.312
30
0
0
VERTEX
8
RASTER
10
21.737
20
13.039
30
0
0
VERTEX
8
RASTER
10
21.808
20
12.604
30
0
0
VERTEX
8
RASTER
10
21.636
20
12.27
30
0
0
VERTEX
8
RASTER
10
20.826
20
11.461
30
0
0
VERTEX
8
RASTER
10
19.683
20
10.985
30
0
0
VERTEX
8
RASTER
10
20.219
20
10.408
30
0
0
VERTEX
8
RASTER
10
20.391
20
10.074
30
0
0
VERTEX
8
RASTER
10
20.32
20
9.639
30
0
0
VERTEX
8
RASTER
10
20.088
20
9.467
30
0
0
VERTEX
8
RASTER
10
19.683
20
9.366
30
0
0
VERTEX
8
RASTER
10
18.368
20
9.366
30
0
0
VERTEX
8
RASTER
10
18.266
20
9.265
30
0
0
VERTEX
8
RASTER
10
18.196
20
8.83
30
0
0
VERTEX
8
RASTER
10
17.963
20
8.658
30
0
0
VERTEX
8
RASTER
10
16.648
20
8.658
30
0
0
VERTEX
8
RASTER
10
16.445
20
8.759
30
0
0
VERTEX
8
RASTER
10
16.374
20
8.729
30
0
0
VERTEX
8
RASTER
10
16.445
20
8.557
30
0
0
VERTEX
8
RASTER
10
16.374
20
8.122
30
0
0
VERTEX
8
RASTER
10
15.939
20
7.95
30
0
0
VERTEX
8
RASTER
10
14.523
20
8.051
30
0
0
VERTEX
8
RASTER
10
14.391
20
7.575
30
0
0
VERTEX
8
RASTER
10
14.118
20
7.444
30
0
0
VERTEX
8
RASTER
10
12.803
20
7.444
30
0
0
VERTEX
8
RASTER
10
12.398
20
7.545
30
0
0
VERTEX
8
RASTER
10
11.659
20
7.919
30
0
0
VERTEX
8
RASTER
10
10.951
20
8.729
30
0
0
VERTEX
8
RASTER
10
9.393
20
8.122
30
0
0
VERTEX
8
RASTER
10
8.857
20
6.432
30
0
0
VERTEX
8
RASTER
10
8.179
20
4.884
30
0
0
VERTEX
8
RASTER
10
7.976
20
4.58
30
0
0
VERTEX
8
RASTER
10
7.642
20
4.408
30
0
0
VERTEX
8
RASTER
10
7.339
20
4.408
30
0
0
VERTEX
8
RASTER
10
7.005
20
4.58
30
0
0
VERTEX
8
RASTER
10
6.833
20
4.914
30
0
0
VERTEX
8
RASTER
10
6.833
20
5.117
30
0
0
VERTEX
8
RASTER
10
7.309
20
5.997
30
0
0
VERTEX
8
RASTER
10
6.702
20
5.552
30
0
0
VERTEX
8
RASTER
10
6.256
20
5.086
30
0
0
VERTEX
8
RASTER
10
5.72
20
4.813
30
0
0
VERTEX
8
RASTER
10
5.417
20
4.813
30
0
0
VERTEX
8
RASTER
10
5.143
20
4.945
30
0
0
VERTEX
8
RASTER
10
5.012
20
5.218
30
0
0
VERTEX
8
RASTER
10
5.083
20
5.754
30
0
0
VERTEX
8
RASTER
10
6.196
20
6.806
30
0
0
VERTEX
8
RASTER
10
5.922
20
6.837
30
0
0
VERTEX
8
RASTER
10
5.417
20
6.634
30
0
0
VERTEX
8
RASTER
10
5.012
20
6.634
30
0
0
VERTEX
8
RASTER
10
4.809
20
6.533
30
0
0
VERTEX
8
RASTER
10
4.374
20
6.806
30
0
0
VERTEX
8
RASTER
10
4.304
20
7.444
30
0
0
VERTEX
8
RASTER
10
4.374
20
7.575
30
0
0
VERTEX
8
RASTER
10
4.708
20
7.747
30
0
0
VERTEX
8
RASTER
10
6.833
20
8.354
30
0
0
VERTEX
8
RASTER
10
8.28
20
9.032
30
0
0
VERTEX
8
RASTER
10
8.553
20
9.771
30
0
0
VERTEX
8
RASTER
10
8.755
20
10.783
30
0
0
VERTEX
8
RASTER
10
8.755
20
11.39
30
0
0
VERTEX
8
RASTER
10
8.017
20
11.764
30
0
0
VERTEX
8
RASTER
10
7.41
20
12.371
30
0
0
VERTEX
8
RASTER
10
6.934
20
13.211
30
0
0
VERTEX
8
RASTER
10
6.732
20
13.919
30
0
0
VERTEX
8
RASTER
10
6.803
20
14.658
30
0
0
VERTEX
8
RASTER
10
7.238
20
14.83
30
0
0
VERTEX
8
RASTER
10
6.833
20
15.943
30
0
0
VERTEX
8
RASTER
10
6.833
20
16.449
30
0
0
VERTEX
8
RASTER
10
6.904
20
16.58
30
0
0
VERTEX
8
RASTER
10
7.339
20
16.752
30
0
0
VERTEX
8
RASTER
10
6.833
20
18.068
30
0
0
VERTEX
8
RASTER
10
6.833
20
18.574
30
0
0
VERTEX
8
RASTER
10
6.904
20
18.705
30
0
0
VERTEX
8
RASTER
10
7.339
20
18.877
30
0
0
VERTEX
8
RASTER
10
7.035
20
19.687
30
0
0
VERTEX
8
RASTER
10
6.965
20
20.425
30
0
0
VERTEX
8
RASTER
10
7.035
20
20.698
30
0
0
VERTEX
8
RASTER
10
7.238
20
20.901
30
0
0
VERTEX
8
RASTER
10
7.642
20
20.901
30
0
0
VERTEX
8
RASTER
10
8.32
20
20.628
30
0
0
VERTEX
8
RASTER
10
8.25
20
21.913
30
0
0
VERTEX
8
RASTER
10
8.452
20
22.722
30
0
0
VERTEX
8
RASTER
10
8.826
20
23.461
30
0
0
SEQEND
8
RASTER
0
POLYLINE
8
RASTER
66
1
70
1
0
VERTEX
8
RASTER
10
19.349
20
23.198
30
0
0
VERTEX
8
RASTER
10
18.236
20
22.651
30
0
0
VERTEX
8
RASTER
10
17.528
20
21.842
30
0
0
VERTEX
8
RASTER
10
17.153
20
21.103
30
0
0
VERTEX
8
RASTER
10
17.153
20
20.294
30
0
0
VERTEX
8
RASTER
10
17.255
20
20.091
30
0
0
VERTEX
8
RASTER
10
17.153
20
19.889
30
0
0
VERTEX
8
RASTER
10
17.184
20
19.616
30
0
0
VERTEX
8
RASTER
10
18.196
20
20.162
30
0
0
VERTEX
8
RASTER
10
18.803
20
20.668
30
0
0
VERTEX
8
RASTER
10
19.379
20
21.913
30
0
0
VERTEX
8
RASTER
10
19.278
20
22.115
30
0
0
VERTEX
8
RASTER
10
19.379
20
22.317
30
0
0
SEQEND
8
RASTER
0
POLYLINE
8
RASTER
66
1
70
1
0
VERTEX
8
RASTER
10
9.16
20
23.127
30
0
0
VERTEX
8
RASTER
10
8.958
20
22.823
30
0
0
VERTEX
8
RASTER
10
8.654
20
21.913
30
0
0
VERTEX
8
RASTER
10
8.553
20
21.002
30
0
0
VERTEX
8
RASTER
10
8.826
20
20.162
30
0
0
VERTEX
8
RASTER
10
9.292
20
19.818
30
0
0
VERTEX
8
RASTER
10
9.433
20
19.555
30
0
0
VERTEX
8
RASTER
10
9.565
20
19.484
30
0
0
VERTEX
8
RASTER
10
9.666
20
19.585
30
0
0
VERTEX
8
RASTER
10
9.798
20
20.162
30
0
0
VERTEX
8
RASTER
10
10.071
20
20.496
30
0
0
VERTEX
8
RASTER
10
10.142
20
21.073
30
0
0
VERTEX
8
RASTER
10
9.97
20
21.103
30
0
0
VERTEX
8
RASTER
10
9.868
20
21.913
30
0
0
VERTEX
8
RASTER
10
9.292
20
23.056
30
0
0
SEQEND
8
RASTER
0
POLYLINE
8
RASTER
66
1
70
1
0
VERTEX
8
RASTER
10
16.142
20
22.216
30
0
0
VERTEX
8
RASTER
10
16.01
20
22.145
30
0
0
VERTEX
8
RASTER
10
15.535
20
21.204
30
0
0
VERTEX
8
RASTER
10
15.332
20
20.496
30
0
0
VERTEX
8
RASTER
10
15.332
20
19.687
30
0
0
VERTEX
8
RASTER
10
15.97
20
17.693
30
0
0
VERTEX
8
RASTER
10
16.648
20
17.764
30
0
0
VERTEX
8
RASTER
10
16.85
20
17.865
30
0
0
VERTEX
8
RASTER
10
17.963
20
17.865
30
0
0
VERTEX
8
RASTER
10
19.106
20
18.442
30
0
0
VERTEX
8
RASTER
10
19.612
20
18.948
30
0
0
VERTEX
8
RASTER
10
20.017
20
19.555
30
0
0
VERTEX
8
RASTER
10
20.017
20
19.717
30
0
0
VERTEX
8
RASTER
10
19.885
20
19.788
30
0
0
VERTEX
8
RASTER
10
18.368
20
19.788
30
0
0
VERTEX
8
RASTER
10
17.325
20
19.312
30
0
0
VERTEX
8
RASTER
10
17.022
20
19.11
30
0
0
VERTEX
8
RASTER
10
16.779
20
18.746
30
0
0
VERTEX
8
RASTER
10
16.617
20
18.746
30
0
0
VERTEX
8
RASTER
10
16.577
20
18.847
30
0
0
VERTEX
8
RASTER
10
16.85
20
19.484
30
0
0
VERTEX
8
RASTER
10
16.85
20
20.8
30
0
0
VERTEX
8
RASTER
10
16.577
20
21.538
30
0
0
VERTEX
8
RASTER
10
16.273
20
22.145
30
0
0
SEQEND
8
RASTER
0
POLYLINE
8
RASTER
66
1
70
1
0
VERTEX
8
RASTER
10
11.285
20
21.103
30
0
0
VERTEX
8
RASTER
10
11.113
20
20.972
30
0
0
VERTEX
8
RASTER
10
11.153
20
20.83
30
0
0
VERTEX
8
RASTER
10
10.981
20
20.901
30
0
0
VERTEX
8
RASTER
10
10.445
20
20.526
30
0
0
VERTEX
8
RASTER
10
10.405
20
20.263
30
0
0
VERTEX
8
RASTER
10
9.939
20
19.717
30
0
0
VERTEX
8
RASTER
10
9.767
20
19.383
30
0
0
VERTEX
8
RASTER
10
9.636
20
18.402
30
0
0
VERTEX
8
RASTER
10
9.464
20
18.574
30
0
0
VERTEX
8
RASTER
10
9.464
20
18.776
30
0
0
VERTEX
8
RASTER
10
9.191
20
19.312
30
0
0
VERTEX
8
RASTER
10
8.685
20
19.919
30
0
0
VERTEX
8
RASTER
10
7.369
20
20.567
30
0
0
VERTEX
8
RASTER
10
7.339
20
19.889
30
0
0
VERTEX
8
RASTER
10
7.815
20
18.746
30
0
0
VERTEX
8
RASTER
10
8.118
20
18.442
30
0
0
VERTEX
8
RASTER
10
8.988
20
17.997
30
0
0
VERTEX
8
RASTER
10
9.535
20
17.43
30
0
0
VERTEX
8
RASTER
10
9.696
20
17.43
30
0
0
VERTEX
8
RASTER
10
9.838
20
17.693
30
0
0
VERTEX
8
RASTER
10
10.809
20
18.543
30
0
0
VERTEX
8
RASTER
10
11.285
20
19.181
30
0
0
VERTEX
8
RASTER
10
11.589
20
20.294
30
0
0
VERTEX
8
RASTER
10
11.589
20
21.002
30
0
0
VERTEX
8
RASTER
10
11.487
20
21.103
30
0
0
SEQEND
8
RASTER
0
POLYLINE
8
RASTER
66
1
70
1
0
VERTEX
8
RASTER
10
14.422
20
20.192
30
0
0
VERTEX
8
RASTER
10
13.916
20
19.08
30
0
0
VERTEX
8
RASTER
10
13.815
20
18.068
30
0
0
VERTEX
8
RASTER
10
14.422
20
16.55
30
0
0
VERTEX
8
RASTER
10
14.523
20
16.145
30
0
0
VERTEX
8
RASTER
10
14.452
20
15.67
30
0
0
VERTEX
8
RASTER
10
15.433
20
15.943
30
0
0
VERTEX
8
RASTER
10
16.85
20
15.943
30
0
0
VERTEX
8
RASTER
10
17.892
20
16.418
30
0
0
VERTEX
8
RASTER
10
18.499
20
16.924
30
0
0
VERTEX
8
RASTER
10
18.671
20
17.258
30
0
0
VERTEX
8
RASTER
10
18.57
20
17.359
30
0
0
VERTEX
8
RASTER
10
17.862
20
17.562
30
0
0
VERTEX
8
RASTER
10
16.85
20
17.562
30
0
0
VERTEX
8
RASTER
10
15.808
20
17.187
30
0
0
VERTEX
8
RASTER
10
15.363
20
16.783
30
0
0
VERTEX
8
RASTER
10
15.433
20
18.371
30
0
0
VERTEX
8
RASTER
10
15.332
20
18.776
30
0
0
VERTEX
8
RASTER
10
14.958
20
19.616
30
0
0
SEQEND
8
RASTER
0
POLYLINE
8
RASTER
66
1
70
1
0
VERTEX
8
RASTER
10
11.791
20
18.574
30
0
0
VERTEX
8
RASTER
10
11.052
20
18.3
30
0
0
VERTEX
8
RASTER
10
10.142
20
17.491
30
0
0
VERTEX
8
RASTER
10
9.767
20
16.854
30
0
0
VERTEX
8
RASTER
10
9.636
20
16.378
30
0
0
VERTEX
8
RASTER
10
9.292
20
17.187
30
0
0
VERTEX
8
RASTER
10
8.685
20
17.795
30
0
0
VERTEX
8
RASTER
10
7.541
20
18.371
30
0
0
VERTEX
8
RASTER
10
7.238
20
18.472
30
0
0
VERTEX
8
RASTER
10
7.137
20
18.371
30
0
0
VERTEX
8
RASTER
10
7.339
20
17.663
30
0
0
VERTEX
8
RASTER
10
7.916
20
16.621
30
0
0
VERTEX
8
RASTER
10
8.988
20
15.973
30
0
0
VERTEX
8
RASTER
10
9.636
20
15.265
30
0
0
VERTEX
8
RASTER
10
10.344
20
15.973
30
0
0
VERTEX
8
RASTER
10
10.607
20
16.115
30
0
0
VERTEX
8
RASTER
10
11.417
20
17.026
30
0
0
VERTEX
8
RASTER
10
11.892
20
18.371
30
0
0
SEQEND
8
RASTER
0
POLYLINE
8
RASTER
66
1
70
1
0
VERTEX
8
RASTER
10
13.177
20
18.24
30
0
0
VERTEX
8
RASTER
10
13.005
20
18.068
30
0
0
VERTEX
8
RASTER
10
12.6
20
16.854
30
0
0
VERTEX
8
RASTER
10
12.6
20
15.943
30
0
0
VERTEX
8
RASTER
10
13.106
20
14.628
30
0
0
VERTEX
8
RASTER
10
13.207
20
14.122
30
0
0
VERTEX
8
RASTER
10
13.137
20
13.848
30
0
0
VERTEX
8
RASTER
10
13.815
20
14.02
30
0
0
VERTEX
8
RASTER
10
15.636
20
14.02
30
0
0
VERTEX
8
RASTER
10
16.476
20
14.395
30
0
0
VERTEX
8
RASTER
10
17.285
20
15.103
30
0
0
VERTEX
8
RASTER
10
17.356
20
15.235
30
0
0
VERTEX
8
RASTER
10
17.153
20
15.437
30
0
0
VERTEX
8
RASTER
10
15.737
20
15.639
30
0
0
VERTEX
8
RASTER
10
14.594
20
15.265
30
0
0
VERTEX
8
RASTER
10
13.845
20
14.658
30
0
0
VERTEX
8
RASTER
10
13.815
20
14.931
30
0
0
VERTEX
8
RASTER
10
14.017
20
15.235
30
0
0
VERTEX
8
RASTER
10
14.017
20
16.55
30
0
0
VERTEX
8
RASTER
10
13.784
20
17.228
30
0
0
SEQEND
8
RASTER
0
POLYLINE
8
RASTER
66
1
70
1
0
VERTEX
8
RASTER
10
11.761
20
16.52
30
0
0
VERTEX
8
RASTER
10
11.659
20
16.479
30
0
0
VERTEX
8
RASTER
10
11.487
20
16.145
30
0
0
VERTEX
8
RASTER
10
11.285
20
15.538
30
0
0
VERTEX
8
RASTER
10
11.184
20
14.122
30
0
0
VERTEX
8
RASTER
10
11.558
20
13.181
30
0
0
VERTEX
8
RASTER
10
11.821
20
12.938
30
0
0
VERTEX
8
RASTER
10
11.963
20
12.675
30
0
0
VERTEX
8
RASTER
10
11.821
20
12.371
30
0
0
VERTEX
8
RASTER
10
11.113
20
11.461
30
0
0
VERTEX
8
RASTER
10
10.648
20
11.015
30
0
0
VERTEX
8
RASTER
10
10.506
20
10.752
30
0
0
VERTEX
8
RASTER
10
8.685
20
8.83
30
0
0
VERTEX
8
RASTER
10
7.845
20
8.354
30
0
0
VERTEX
8
RASTER
10
6.833
20
7.95
30
0
0
VERTEX
8
RASTER
10
4.708
20
7.343
30
0
0
VERTEX
8
RASTER
10
4.607
20
7.241
30
0
0
VERTEX
8
RASTER
10
4.637
20
6.968
30
0
0
VERTEX
8
RASTER
10
5.113
20
6.938
30
0
0
VERTEX
8
RASTER
10
5.518
20
7.039
30
0
0
VERTEX
8
RASTER
10
7.642
20
7.747
30
0
0
VERTEX
8
RASTER
10
9.16
20
8.456
30
0
0
VERTEX
8
RASTER
10
11.083
20
9.164
30
0
0
VERTEX
8
RASTER
10
11.255
20
9.133
30
0
0
VERTEX
8
RASTER
10
11.457
20
8.729
30
0
0
VERTEX
8
RASTER
10
11.963
20
8.223
30
0
0
VERTEX
8
RASTER
10
12.499
20
7.95
30
0
0
VERTEX
8
RASTER
10
13.41
20
7.747
30
0
0
VERTEX
8
RASTER
10
14.088
20
7.879
30
0
0
VERTEX
8
RASTER
10
13.946
20
8.284
30
0
0
VERTEX
8
RASTER
10
13.339
20
8.891
30
0
0
VERTEX
8
RASTER
10
12.53
20
9.397
30
0
0
VERTEX
8
RASTER
10
11.791
20
9.67
30
0
0
VERTEX
8
RASTER
10
12.53
20
10.246
30
0
0
VERTEX
8
RASTER
10
12.803
20
10.783
30
0
0
VERTEX
8
RASTER
10
13.005
20
11.39
30
0
0
VERTEX
8
RASTER
10
12.975
20
11.663
30
0
0
VERTEX
8
RASTER
10
12.803
20
11.795
30
0
0
VERTEX
8
RASTER
10
12.499
20
11.795
30
0
0
VERTEX
8
RASTER
10
12.165
20
11.623
30
0
0
VERTEX
8
RASTER
10
12.024
20
11.359
30
0
0
VERTEX
8
RASTER
10
11.659
20
11.015
30
0
0
VERTEX
8
RASTER
10
11.184
20
10.176
30
0
0
VERTEX
8
RASTER
10
11.153
20
9.599
30
0
0
VERTEX
8
RASTER
10
9.393
20
8.891
30
0
0
VERTEX
8
RASTER
10
10.506
20
10.044
30
0
0
VERTEX
8
RASTER
10
10.648
20
10.307
30
0
0
VERTEX
8
RASTER
10
11.922
20
11.764
30
0
0
VERTEX
8
RASTER
10
12.266
20
12.331
30
0
0
VERTEX
8
RASTER
10
13.207
20
12.098
30
0
0
VERTEX
8
RASTER
10
14.219
20
12.098
30
0
0
VERTEX
8
RASTER
10
14.958
20
12.371
30
0
0
VERTEX
8
RASTER
10
15.565
20
12.776
30
0
0
VERTEX
8
RASTER
10
16.04
20
13.312
30
0
0
VERTEX
8
RASTER
10
15.737
20
13.515
30
0
0
VERTEX
8
RASTER
10
15.332
20
13.616
30
0
0
VERTEX
8
RASTER
10
14.725
20
13.616
30
0
0
VERTEX
8
RASTER
10
14.523
20
13.717
30
0
0
VERTEX
8
RASTER
10
14.219
20
13.616
30
0
0
VERTEX
8
RASTER
10
13.713
20
13.616
30
0
0
VERTEX
8
RASTER
10
12.975
20
13.241
30
0
0
VERTEX
8
RASTER
10
12.428
20
12.735
30
0
0
VERTEX
8
RASTER
10
12.428
20
12.978
30
0
0
VERTEX
8
RASTER
10
12.803
20
13.919
30
0
0
VERTEX
8
RASTER
10
12.803
20
14.425
30
0
0
VERTEX
8
RASTER
10
12.469
20
15.508
30
0
0
VERTEX
8
RASTER
10
12.024
20
16.277
30
0
0
SEQEND
8
RASTER
0
POLYLINE
8
RASTER
66
1
70
1
0
VERTEX
8
RASTER
10
7.309
20
16.317
30
0
0
VERTEX
8
RASTER
10
7.167
20
16.216
30
0
0
VERTEX
8
RASTER
10
7.238
20
15.943
30
0
0
VERTEX
8
RASTER
10
7.44
20
15.336
30
0
0
VERTEX
8
RASTER
10
7.815
20
14.698
30
0
0
VERTEX
8
RASTER
10
8.887
20
13.95
30
0
0
VERTEX
8
RASTER
10
9.433
20
13.383
30
0
0
VERTEX
8
RASTER
10
9.595
20
13.383
30
0
0
VERTEX
8
RASTER
10
9.939
20
13.747
30
0
0
VERTEX
8
RASTER
10
10.708
20
14.294
30
0
0
VERTEX
8
RASTER
10
10.951
20
16.014
30
0
0
VERTEX
8
RASTER
10
9.939
20
15.164
30
0
0
VERTEX
8
RASTER
10
9.666
20
14.223
30
0
0
VERTEX
8
RASTER
10
9.565
20
14.122
30
0
0
VERTEX
8
RASTER
10
9.464
20
14.223
30
0
0
VERTEX
8
RASTER
10
9.464
20
14.729
30
0
0
VERTEX
8
RASTER
10
9.191
20
15.265
30
0
0
VERTEX
8
RASTER
10
8.685
20
15.771
30
0
0
VERTEX
8
RASTER
10
7.946
20
16.145
30
0
0
SEQEND
8
RASTER
0
POLYLINE
8
RASTER
66
1
70
1
0
VERTEX
8
RASTER
10
7.137
20
14.425
30
0
0
VERTEX
8
RASTER
10
7.035
20
14.324
30
0
0
VERTEX
8
RASTER
10
7.137
20
13.818
30
0
0
VERTEX
8
RASTER
10
7.713
20
12.675
30
0
0
VERTEX
8
RASTER
10
8.32
20
12.169
30
0
0
VERTEX
8
RASTER
10
9.13
20
11.865
30
0
0
VERTEX
8
RASTER
10
9.261
20
11.693
30
0
0
VERTEX
8
RASTER
10
9.16
20
11.491
30
0
0
VERTEX
8
RASTER
10
9.059
20
10.074
30
0
0
VERTEX
8
RASTER
10
8.857
20
9.467
30
0
0
VERTEX
8
RASTER
10
8.958
20
9.366
30
0
0
VERTEX
8
RASTER
10
9.292
20
9.639
30
0
0
VERTEX
8
RASTER
10
9.565
20
10.277
30
0
0
VERTEX
8
RASTER
10
9.565
20
10.985
30
0
0
VERTEX
8
RASTER
10
9.666
20
11.187
30
0
0
VERTEX
8
RASTER
10
9.696
20
11.764
30
0
0
VERTEX
8
RASTER
10
10.809
20
12.371
30
0
0
VERTEX
8
RASTER
10
11.184
20
12.908
30
0
0
VERTEX
8
RASTER
10
10.85
20
13.788
30
0
0
VERTEX
8
RASTER
10
10.678
20
13.818
30
0
0
VERTEX
8
RASTER
10
10.243
20
13.545
30
0
0
VERTEX
8
RASTER
10
9.838
20
13.14
30
0
0
VERTEX
8
RASTER
10
9.494
20
12.331
30
0
0
VERTEX
8
RASTER
10
9.363
20
12.503
30
0
0
VERTEX
8
RASTER
10
9.363
20
12.806
30
0
0
VERTEX
8
RASTER
10
9.191
20
13.14
30
0
0
VERTEX
8
RASTER
10
8.685
20
13.646
30
0
0
SEQEND
8
RASTER
0
POLYLINE
8
RASTER
66
1
70
1
0
VERTEX
8
RASTER
10
18.843
20
13.99
30
0
0
VERTEX
8
RASTER
10
17.831
20
13.545
30
0
0
VERTEX
8
RASTER
10
17.224
20
12.938
30
0
0
VERTEX
8
RASTER
10
16.445
20
10.985
30
0
0
VERTEX
8
RASTER
10
17.386
20
10.307
30
0
0
VERTEX
8
RASTER
10
17.629
20
10.044
30
0
0
VERTEX
8
RASTER
10
17.963
20
9.872
30
0
0
VERTEX
8
RASTER
10
18.266
20
9.771
30
0
0
VERTEX
8
RASTER
10
19.683
20
9.771
30
0
0
VERTEX
8
RASTER
10
19.956
20
9.902
30
0
0
VERTEX
8
RASTER
10
19.916
20
10.105
30
0
0
VERTEX
8
RASTER
10
19.713
20
10.408
30
0
0
VERTEX
8
RASTER
10
19.106
20
10.914
30
0
0
VERTEX
8
RASTER
10
18.165
20
11.289
30
0
0
VERTEX
8
RASTER
10
17.659
20
11.289
30
0
0
VERTEX
8
RASTER
10
17.457
20
11.187
30
0
0
VERTEX
8
RASTER
10
17.356
20
11.289
30
0
0
VERTEX
8
RASTER
10
17.791
20
11.562
30
0
0
VERTEX
8
RASTER
10
18.398
20
12.27
30
0
0
VERTEX
8
RASTER
10
18.772
20
13.11
30
0
0
VERTEX
8
RASTER
10
18.874
20
13.515
30
0
0
SEQEND
8
RASTER
0
POLYLINE
8
RASTER
66
1
70
1
0
VERTEX
8
RASTER
10
16.749
20
13.413
30
0
0
VERTEX
8
RASTER
10
15.302
20
12.027
30
0
0
VERTEX
8
RASTER
10
14.553
20
10.408
30
0
0
VERTEX
8
RASTER
10
15.565
20
9.7
30
0
0
VERTEX
8
RASTER
10
16.01
20
9.235
30
0
0
VERTEX
8
RASTER
10
16.344
20
9.063
30
0
0
VERTEX
8
RASTER
10
17.558
20
8.961
30
0
0
VERTEX
8
RASTER
10
17.831
20
9.093
30
0
0
VERTEX
8
RASTER
10
17.69
20
9.397
30
0
0
VERTEX
8
RASTER
10
17.386
20
9.801
30
0
0
VERTEX
8
RASTER
10
16.88
20
10.206
30
0
0
VERTEX
8
RASTER
10
15.939
20
10.682
30
0
0
VERTEX
8
RASTER
10
15.464
20
10.51
30
0
0
VERTEX
8
RASTER
10
15.605
20
10.813
30
0
0
VERTEX
8
RASTER
10
15.868
20
10.955
30
0
0
VERTEX
8
RASTER
10
16.273
20
11.359
30
0
0
VERTEX
8
RASTER
10
16.648
20
12.098
30
0
0
VERTEX
8
RASTER
10
16.85
20
12.806
30
0
0
VERTEX
8
RASTER
10
16.85
20
13.312
30
0
0
SEQEND
8
RASTER
0
POLYLINE
8
RASTER
66
1
70
1
0
VERTEX
8
RASTER
10
19.987
20
13.009
30
0
0
VERTEX
8
RASTER
10
19.481
20
12.908
30
0
0
VERTEX
8
RASTER
10
18.944
20
12.634
30
0
0
VERTEX
8
RASTER
10
18.297
20
11.623
30
0
0
VERTEX
8
RASTER
10
18.975
20
11.39
30
0
0
VERTEX
8
RASTER
10
19.481
20
11.39
30
0
0
VERTEX
8
RASTER
10
20.624
20
11.865
30
0
0
VERTEX
8
RASTER
10
21.332
20
12.574
30
0
0
VERTEX
8
RASTER
10
21.403
20
12.705
30
0
0
VERTEX
8
RASTER
10
21.332
20
12.837
30
0
0
VERTEX
8
RASTER
10
20.695
20
13.009
30
0
0
SEQEND
8
RASTER
0
POLYLINE
8
RASTER
66
1
70
1
0
VERTEX
8
RASTER
10
10.951
20
11.967
30
0
0
VERTEX
8
RASTER
10
10.04
20
11.42
30
0
0
VERTEX
8
RASTER
10
10
20
10.914
30
0
0
VERTEX
8
RASTER
10
10.142
20
10.914
30
0
0
VERTEX
8
RASTER
10
10.243
20
11.117
30
0
0
VERTEX
8
RASTER
10
10.911
20
11.764
30
0
0
SEQEND
8
RASTER
0
POLYLINE
8
RASTER
66
1
70
1
0
VERTEX
8
RASTER
10
14.725
20
11.896
30
0
0
VERTEX
8
RASTER
10
14.219
20
11.693
30
0
0
VERTEX
8
RASTER
10
13.44
20
11.562
30
0
0
VERTEX
8
RASTER
10
13.106
20
10.682
30
0
0
VERTEX
8
RASTER
10
12.631
20
9.801
30
0
0
VERTEX
8
RASTER
10
13.541
20
9.194
30
0
0
VERTEX
8
RASTER
10
13.885
20
8.83
30
0
0
VERTEX
8
RASTER
10
14.523
20
8.456
30
0
0
VERTEX
8
RASTER
10
14.826
20
8.354
30
0
0
VERTEX
8
RASTER
10
15.939
20
8.354
30
0
0
VERTEX
8
RASTER
10
16.04
20
8.557
30
0
0
VERTEX
8
RASTER
10
15.868
20
8.891
30
0
0
VERTEX
8
RASTER
10
15.363
20
9.397
30
0
0
VERTEX
8
RASTER
10
13.815
20
10.176
30
0
0
VERTEX
8
RASTER
10
14.351
20
10.752
30
0
0
VERTEX
8
RASTER
10
14.826
20
11.795
30
0
0
SEQEND
8
RASTER
0
POLYLINE
8
RASTER
66
1
70
1
0
VERTEX
8
RASTER
10
8.25
20
7.848
30
0
0
VERTEX
8
RASTER
10
7.005
20
7.069
30
0
0
VERTEX
8
RASTER
10
5.953
20
5.997
30
0
0
VERTEX
8
RASTER
10
5.386
20
5.552
30
0
0
VERTEX
8
RASTER
10
5.346
20
5.248
30
0
0
VERTEX
8
RASTER
10
5.589
20
5.147
30
0
0
VERTEX
8
RASTER
10
6.256
20
5.592
30
0
0
VERTEX
8
RASTER
10
6.965
20
6.3
30
0
0
VERTEX
8
RASTER
10
7.106
20
6.563
30
0
0
VERTEX
8
RASTER
10
8.28
20
7.717
30
0
0
SEQEND
8
RASTER
0
POLYLINE
8
RASTER
66
1
70
1
0
VERTEX
8
RASTER
10
8.857
20
7.848
30
0
0
VERTEX
8
RASTER
10
8.725
20
7.778
30
0
0
VERTEX
8
RASTER
10
8.219
20
7.069
30
0
0
VERTEX
8
RASTER
10
7.238
20
5.117
30
0
0
VERTEX
8
RASTER
10
7.309
20
4.884
30
0
0
VERTEX
8
RASTER
10
7.44
20
4.813
30
0
0
VERTEX
8
RASTER
10
7.673
20
4.884
30
0
0
VERTEX
8
RASTER
10
8.148
20
5.724
30
0
0
VERTEX
8
RASTER
10
8.654
20
6.938
30
0
0
VERTEX
8
RASTER
10
8.927
20
7.778
30
0
0
SEQEND
8
RASTER
0
POLYLINE
8
CUT
66
1
70
1
0
VERTEX
8
CUT
10
31.185
20
23.911
30
0
0
VERTEX
8
CUT
10
31.645
20
24.007
30
0
0
VERTEX
8
CUT
10
32.238
20
23.643
30
0
0
VERTEX
8
CUT
10
33.924
20
23.413
30
0
0
VERTEX
8
CUT
10
34.747
20
23.088
30
0
0
VERTEX
8
CUT
10
35.35
20
22.542
30
0
0
VERTEX
8
CUT
10
35.58
20
21.048
30
0
0
VERTEX
8
CUT
10
35.139
20
19.076
30
0
0
VERTEX
8
CUT
10
36.624
20
16.156
30
0
0
VERTEX
8
CUT
10
37.016
20
13.963
30
0
0
VERTEX
8
CUT
10
36.624
20
6.313
30
0
0
VERTEX
8
CUT
10
36.135
20
5.557
30
0
0
VERTEX
8
CUT
10
35.417
20
5.03
30
0
0
VERTEX
8
CUT
10
32.995
20
4.006
30
0
0
VERTEX
8
CUT
10
29.941
20
4.016
30
0
0
VERTEX
8
CUT
10
27.7
20
5.03
30
0
0
VERTEX
8
CUT
10
27.039
20
5.519
30
0
0
VERTEX
8
CUT
10
26.58
20
6.208
30
0
0
VERTEX
8
CUT
10
26.293
20
8.027
30
0
0
VERTEX
8
CUT
10
26.101
20
14.346
30
0
0
VERTEX
8
CUT
10
26.494
20
16.252
30
0
0
VERTEX
8
CUT
10
27.987
20
19.162
30
0
0
VERTEX
8
CUT
10
27.537
20
20.953
30
0
0
VERTEX
8
CUT
10
27.633
20
22.293
30
0
0
VERTEX
8
CUT
10
28.035
20
22.848
30
0
0
VERTEX
8
CUT
10
28.686
20
23.251
30
0
0
VERTEX
8
CUT
10
30.783
20
23.643
30
0
0
SEQEND
8
CUT
0
POLYLINE
8
RASTER
66
1
70
1
0
VERTEX
8
RASTER
10
30.534
20
23.413
30
0
0
VERTEX
8
RASTER
10
32.516
20
23.442
30
0
0
VERTEX
8
RASTER
10
32.708
20
23.346
30
0
0
VERTEX
8
RASTER
10
33.091
20
23.346
30
0
0
VERTEX
8
RASTER
10
34.144
20
23.059
30
0
0
VERTEX
8
RASTER
10
34.843
20
22.705
30
0
0
VERTEX
8
RASTER
10
35.034
20
22.513
30
0
0
VERTEX
8
RASTER
10
35.293
20
22.006
30
0
0
VERTEX
8
RASTER
10
35.388
20
21.336
30
0
0
VERTEX
8
RASTER
10
35.293
20
21.144
30
0
0
VERTEX
8
RASTER
10
35.293
20
20.666
30
0
0
VERTEX
8
RASTER
10
35.034
20
20.158
30
0
0
VERTEX
8
RASTER
10
34.718
20
19.804
30
0
0
VERTEX
8
RASTER
10
34.814
20
19.038
30
0
0
VERTEX
8
RASTER
10
35.36
20
17.86
30
0
0
VERTEX
8
RASTER
10
36.442
20
15.878
30
0
0
VERTEX
8
RASTER
10
36.729
20
14.538
30
0
0
VERTEX
8
RASTER
10
36.729
20
11.474
30
0
0
VERTEX
8
RASTER
10
36.633
20
11.283
30
0
0
VERTEX
8
RASTER
10
36.633
20
9.272
30
0
0
VERTEX
8
RASTER
10
36.537
20
9.08
30
0
0
VERTEX
8
RASTER
10
36.537
20
7.07
30
0
0
VERTEX
8
RASTER
10
36.442
20
6.591
30
0
0
VERTEX
8
RASTER
10
36.183
20
6.084
30
0
0
VERTEX
8
RASTER
10
35.513
20
5.413
30
0
0
VERTEX
8
RASTER
10
34.144
20
4.772
30
0
0
VERTEX
8
RASTER
10
32.899
20
4.485
30
0
0
VERTEX
8
RASTER
10
32.229
20
4.485
30
0
0
VERTEX
8
RASTER
10
32.037
20
4.389
30
0
0
VERTEX
8
RASTER
10
31.08
20
4.389
30
0
0
VERTEX
8
RASTER
10
30.888
20
4.485
30
0
0
VERTEX
8
RASTER
10
29.644
20
4.58
30
0
0
VERTEX
8
RASTER
10
28.686
20
4.868
30
0
0
VERTEX
8
RASTER
10
27.604
20
5.413
30
0
0
VERTEX
8
RASTER
10
27.03
20
5.988
30
0
0
VERTEX
8
RASTER
10
26.771
20
6.495
30
0
0
VERTEX
8
RASTER
10
26.58
20
7.261
30
0
0
VERTEX
8
RASTER
10
26.484
20
10.134
30
0
0
VERTEX
8
RASTER
10
26.388
20
10.325
30
0
0
VERTEX
8
RASTER
10
26.388
20
14.825
30
0
0
VERTEX
8
RASTER
10
26.771
20
16.166
30
0
0
VERTEX
8
RASTER
10
28.208
20
18.846
30
0
0
VERTEX
8
RASTER
10
28.399
20
19.517
30
0
0
VERTEX
8
RASTER
10
28.37
20
19.871
30
0
0
VERTEX
8
RASTER
10
28.083
20
20.158
30
0
0
VERTEX
8
RASTER
10
27.825
20
20.666
30
0
0
VERTEX
8
RASTER
10
27.729
20
21.719
30
0
0
VERTEX
8
RASTER
10
28.083
20
22.513
30
0
0
VERTEX
8
RASTER
10
28.466
20
22.801
30
0
0
VERTEX
8
RASTER
10
29.548
20
23.251
30
0
0
SEQEND
8
RASTER
0
POLYLINE
8
RASTER
66
1
70
1
0
VERTEX
8
RASTER
10
31.271
20
22.963
30
0
0
VERTEX
8
RASTER
10
31.08
20
22.868
30
0
0
VERTEX
8
RASTER
10
30.314
20
22.868
30
0
0
VERTEX
8
RASTER
10
29.261
20
22.58
30
0
0
VERTEX
8
RASTER
10
28.562
20
22.226
30
0
0
VERTEX
8
RASTER
10
28.303
20
21.719
30
0
0
VERTEX
8
RASTER
10
28.303
20
21.048
30
0
0
VERTEX
8
RASTER
10
28.399
20
20.761
30
0
0
VERTEX
8
RASTER
10
28.878
20
20.091
30
0
0
VERTEX
8
RASTER
10
28.878
20
19.229
30
0
0
VERTEX
8
RASTER
10
28.686
20
18.655
30
0
0
VERTEX
8
RASTER
10
28.083
20
17.439
30
0
0
VERTEX
8
RASTER
10
27.25
20
15.974
30
0
0
VERTEX
8
RASTER
10
26.963
20
15.017
30
0
0
VERTEX
8
RASTER
10
26.963
20
14.634
30
0
0
VERTEX
8
RASTER
10
26.867
20
14.442
30
0
0
VERTEX
8
RASTER
10
26.963
20
9.559
30
0
0
VERTEX
8
RASTER
10
27.059
20
9.368
30
0
0
VERTEX
8
RASTER
10
27.059
20
8.027
30
0
0
VERTEX
8
RASTER
10
27.154
20
7.836
30
0
0
VERTEX
8
RASTER
10
27.154
20
7.07
30
0
0
VERTEX
8
RASTER
10
27.25
20
6.687
30
0
0
VERTEX
8
RASTER
10
27.413
20
6.371
30
0
0
VERTEX
8
RASTER
10
27.892
20
5.892
30
0
0
VERTEX
8
RASTER
10
28.495
20
5.538
30
0
0
VERTEX
8
RASTER
10
29.644
20
5.155
30
0
0
VERTEX
8
RASTER
10
30.697
20
5.059
30
0
0
VERTEX
8
RASTER
10
30.888
20
4.963
30
0
0
VERTEX
8
RASTER
10
32.325
20
4.963
30
0
0
VERTEX
8
RASTER
10
34.144
20
5.346
30
0
0
VERTEX
8
RASTER
10
35.226
20
5.892
30
0
0
VERTEX
8
RASTER
10
35.704
20
6.371
30
0
0
VERTEX
8
RASTER
10
35.867
20
6.687
30
0
0
VERTEX
8
RASTER
10
35.963
20
6.974
30
0
0
VERTEX
8
RASTER
10
35.963
20
8.793
30
0
0
VERTEX
8
RASTER
10
36.059
20
8.985
30
0
0
VERTEX
8
RASTER
10
36.059
20
10.517
30
0
0
VERTEX
8
RASTER
10
36.154
20
10.708
30
0
0
VERTEX
8
RASTER
10
36.25
20
13.868
30
0
0
VERTEX
8
RASTER
10
36.154
20
14.059
30
0
0
VERTEX
8
RASTER
10
36.059
20
15.208
30
0
0
VERTEX
8
RASTER
10
35.771
20
16.07
30
0
0
VERTEX
8
RASTER
10
34.622
20
18.176
30
0
0
VERTEX
8
RASTER
10
34.239
20
19.325
30
0
0
VERTEX
8
RASTER
10
34.239
20
20.091
30
0
0
VERTEX
8
RASTER
10
34.555
20
20.445
30
0
0
VERTEX
8
RASTER
10
34.814
20
21.144
30
0
0
VERTEX
8
RASTER
10
34.814
20
21.719
30
0
0
VERTEX
8
RASTER
10
34.651
20
22.035
30
0
0
VERTEX
8
RASTER
10
34.364
20
22.322
30
0
0
VERTEX
8
RASTER
10
33.282
20
22.772
30
0
0
SEQEND
8
RASTER
0
POLYLINE
8
RASTER
66
1
70
1
0
VERTEX
8
RASTER
10
30.917
20
22.552
30
0
0
VERTEX
8
RASTER
10
32.133
20
22.58
30
0
0
VERTEX
8
RASTER
10
32.325
20
22.485
30
0
0
VERTEX
8
RASTER
10
32.899
20
22.485
30
0
0
VERTEX
8
RASTER
10
33.789
20
22.13
30
0
0
VERTEX
8
RASTER
10
33.952
20
21.814
30
0
0
VERTEX
8
RASTER
10
33.828
20
21.556
30
0
0
VERTEX
8
RASTER
10
33.598
20
21.403
30
0
0
VERTEX
8
RASTER
10
32.708
20
21.144
30
0
0
VERTEX
8
RASTER
10
30.505
20
21.144
30
0
0
VERTEX
8
RASTER
10
30.027
20
21.24
30
0
0
VERTEX
8
RASTER
10
29.424
20
21.498
30
0
0
VERTEX
8
RASTER
10
29.232
20
21.69
30
0
0
VERTEX
8
RASTER
10
29.165
20
21.814
30
0
0
VERTEX
8
RASTER
10
29.232
20
22.035
30
0
0
VERTEX
8
RASTER
10
29.835
20
22.389
30
0
0
SEQEND
8
RASTER
0
POLYLINE
8
RASTER
66
1
70
1
0
VERTEX
8
RASTER
10
30.601
20
22.102
30
0
0
VERTEX
8
RASTER
10
29.672
20
21.786
30
0
0
VERTEX
8
RASTER
10
29.931
20
21.623
30
0
0
VERTEX
8
RASTER
10
30.314
20
21.623
30
0
0
VERTEX
8
RASTER
10
30.505
20
21.527
30
0
0
VERTEX
8
RASTER
10
32.708
20
21.527
30
0
0
VERTEX
8
RASTER
10
33.186
20
21.623
30
0
0
VERTEX
8
RASTER
10
33.282
20
21.719
30
0
0
VERTEX
8
RASTER
10
33.158
20
21.881
30
0
0
VERTEX
8
RASTER
10
32.516
20
22.102
30
0
0
SEQEND
8
RASTER
0
POLYLINE
8
RASTER
66
1
70
1
0
VERTEX
8
RASTER
10
33.981
20
20.254
30
0
0
VERTEX
8
RASTER
10
34.048
20
20.187
30
0
0
VERTEX
8
RASTER
10
33.885
20
19.871
30
0
0
VERTEX
8
RASTER
10
32.995
20
19.517
30
0
0
VERTEX
8
RASTER
10
32.612
20
19.517
30
0
0
VERTEX
8
RASTER
10
32.42
20
19.421
30
0
0
VERTEX
8
RASTER
10
30.505
20
19.421
30
0
0
VERTEX
8
RASTER
10
30.314
20
19.517
30
0
0
VERTEX
8
RASTER
10
29.931
20
19.517
30
0
0
VERTEX
8
RASTER
10
29.232
20
19.775
30
0
0
VERTEX
8
RASTER
10
29.069
20
20.091
30
0
0
VERTEX
8
RASTER
10
29.261
20
20.187
30
0
0
VERTEX
8
RASTER
10
29.739
20
19.995
30
0
0
VERTEX
8
RASTER
10
30.697
20
19.9
30
0
0
VERTEX
8
RASTER
10
30.888
20
19.804
30
0
0
VERTEX
8
RASTER
10
32.325
20
19.804
30
0
0
VERTEX
8
RASTER
10
32.516
20
19.9
30
0
0
VERTEX
8
RASTER
10
33.378
20
19.995
30
0
0
SEQEND
8
RASTER
0
POLYLINE
8
RASTER
66
1
70
1
0
VERTEX
8
RASTER
10
27.758
20
15.85
30
0
0
VERTEX
8
RASTER
10
27.92
20
15.783
30
0
0
VERTEX
8
RASTER
10
27.537
20
14.346
30
0
0
VERTEX
8
RASTER
10
27.537
20
12.719
30
0
0
VERTEX
8
RASTER
10
27.633
20
12.527
30
0
0
VERTEX
8
RASTER
10
27.633
20
10.708
30
0
0
VERTEX
8
RASTER
10
27.729
20
10.517
30
0
0
VERTEX
8
RASTER
10
27.729
20
8.41
30
0
0
VERTEX
8
RASTER
10
27.825
20
8.219
30
0
0
VERTEX
8
RASTER
10
27.825
20
7.166
30
0
0
VERTEX
8
RASTER
10
27.987
20
6.85
30
0
0
VERTEX
8
RASTER
10
28.466
20
6.467
30
0
0
VERTEX
8
RASTER
10
28.974
20
6.208
30
0
0
VERTEX
8
RASTER
10
30.41
20
5.825
30
0
0
VERTEX
8
RASTER
10
31.587
20
5.758
30
0
0
VERTEX
8
RASTER
10
32.803
20
5.825
30
0
0
VERTEX
8
RASTER
10
33.665
20
6.017
30
0
0
VERTEX
8
RASTER
10
34.843
20
6.562
30
0
0
VERTEX
8
RASTER
10
35.13
20
6.85
30
0
0
VERTEX
8
RASTER
10
35.293
20
7.261
30
0
0
VERTEX
8
RASTER
10
35.293
20
8.41
30
0
0
VERTEX
8
RASTER
10
35.455
20
8.764
30
0
0
VERTEX
8
RASTER
10
35.484
20
7.166
30
0
0
VERTEX
8
RASTER
10
35.226
20
6.658
30
0
0
VERTEX
8
RASTER
10
34.938
20
6.371
30
0
0
VERTEX
8
RASTER
10
34.048
20
5.921
30
0
0
VERTEX
8
RASTER
10
32.995
20
5.634
30
0
0
VERTEX
8
RASTER
10
32.612
20
5.634
30
0
0
VERTEX
8
RASTER
10
32.42
20
5.538
30
0
0
VERTEX
8
RASTER
10
30.793
20
5.538
30
0
0
VERTEX
8
RASTER
10
30.601
20
5.634
30
0
0
VERTEX
8
RASTER
10
30.122
20
5.634
30
0
0
VERTEX
8
RASTER
10
28.878
20
6.017
30
0
0
VERTEX
8
RASTER
10
28.179
20
6.371
30
0
0
VERTEX
8
RASTER
10
27.796
20
6.754
30
0
0
VERTEX
8
RASTER
10
27.633
20
7.07
30
0
0
VERTEX
8
RASTER
10
27.633
20
7.836
30
0
0
VERTEX
8
RASTER
10
27.537
20
8.027
30
0
0
VERTEX
8
RASTER
10
27.537
20
9.942
30
0
0
VERTEX
8
RASTER
10
27.442
20
10.134
30
0
0
VERTEX
8
RASTER
10
27.442
20
11.953
30
0
0
VERTEX
8
RASTER
10
27.346
20
12.144
30
0
0
VERTEX
8
RASTER
10
27.346
20
14.538
30
0
0
SEQEND
8
RASTER
0
POLYLINE
8
RASTER
66
1
70
1
0
VERTEX
8
RASTER
10
35.513
20
9.913
30
0
0
VERTEX
8
RASTER
10
35.58
20
9.846
30
0
0
VERTEX
8
RASTER
10
35.58
20
8.985
30
0
0
VERTEX
8
RASTER
10
35.484
20
8.889
30
0
0
VERTEX
8
RASTER
10
35.388
20
8.985
30
0
0
VERTEX
8
RASTER
10
35.388
20
9.176
30
0
0
VERTEX
8
RASTER
10
35.484
20
9.368
30
0
0
SEQEND
8
RASTER
0
POLYLINE
8
CUT
66
1
70
1
0
VERTEX
8
CUT
10
46.824
20
24.007
30
0
0
VERTEX
8
CUT
10
48.273
20
23.8
30
0
0
VERTEX
8
CUT
10
53.056
20
22.155
30
0
0
VERTEX
8
CUT
10
53.492
20
21.392
30
0
0
VERTEX
8
CUT
10
54.124
20
17.992
30
0
0
VERTEX
8
CUT
10
56.989
20
17.807
30
0
0
VERTEX
8
CUT
10
57.611
20
17.557
30
0
0
VERTEX
8
CUT
10
60.977
20
14.168
30
0
0
VERTEX
8
CUT
10
61.021
20
12.752
30
0
0
VERTEX
8
CUT
10
60.541
20
12.25
30
0
0
VERTEX
8
CUT
10
58.646
20
8.045
30
0
0
VERTEX
8
CUT
10
54.734
20
7.598
30
0
0
VERTEX
8
CUT
10
52.631
20
7.674
30
0
0
VERTEX
8
CUT
10
50.125
20
10.398
30
0
0
VERTEX
8
CUT
10
47.782
20
10.779
30
0
0
VERTEX
8
CUT
10
43.293
20
12.501
30
0
0
VERTEX
8
CUT
10
42.683
20
12.98
30
0
0
VERTEX
8
CUT
10
41.452
20
18.178
30
0
0
VERTEX
8
CUT
10
41.016
20
18.831
30
0
0
VERTEX
8
CUT
10
41.038
20
19.551
30
0
0
VERTEX
8
CUT
10
43.261
20
21.577
30
0
0
SEQEND
8
CUT
0
POLYLINE
8
RASTER
66
1
70
1
0
VERTEX
8
RASTER
10
47.031
20
23.8
30
0
0
VERTEX
8
RASTER
10
47.216
20
23.833
30
0
0
VERTEX
8
RASTER
10
48.741
20
23.397
30
0
0
VERTEX
8
RASTER
10
52.337
20
22.198
30
0
0
VERTEX
8
RASTER
10
52.914
20
21.904
30
0
0
VERTEX
8
RASTER
10
53.318
20
21.109
30
0
0
VERTEX
8
RASTER
10
53.83
20
17.698
30
0
0
VERTEX
8
RASTER
10
56.804
20
17.622
30
0
0
VERTEX
8
RASTER
10
57.273
20
17.437
30
0
0
VERTEX
8
RASTER
10
58.144
20
16.674
30
0
0
VERTEX
8
RASTER
10
58.515
20
16.173
30
0
0
VERTEX
8
RASTER
10
60.106
20
14.604
30
0
0
VERTEX
8
RASTER
10
60.433
20
14.168
30
0
0
VERTEX
8
RASTER
10
60.618
20
13.808
30
0
0
VERTEX
8
RASTER
10
60.618
20
13.155
30
0
0
VERTEX
8
RASTER
10
58.471
20
8.219
30
0
0
VERTEX
8
RASTER
10
57.676
20
8.034
30
0
0
VERTEX
8
RASTER
10
55.061
20
7.925
30
0
0
VERTEX
8
RASTER
10
54.843
20
7.816
30
0
0
VERTEX
8
RASTER
10
52.882
20
7.816
30
0
0
VERTEX
8
RASTER
10
52.086
20
8.546
30
0
0
VERTEX
8
RASTER
10
51.934
20
8.829
30
0
0
VERTEX
8
RASTER
10
51.433
20
9.308
30
0
0
VERTEX
8
RASTER
10
51.28
20
9.592
30
0
0
VERTEX
8
RASTER
10
49.864
20
11.226
30
0
0
VERTEX
8
RASTER
10
49.689
20
11.226
30
0
0
VERTEX
8
RASTER
10
49.537
20
11.052
30
0
0
VERTEX
8
RASTER
10
48.959
20
10.758
30
0
0
VERTEX
8
RASTER
10
48.305
20
10.867
30
0
0
VERTEX
8
RASTER
10
43.729
20
12.61
30
0
0
VERTEX
8
RASTER
10
43.152
20
12.904
30
0
0
VERTEX
8
RASTER
10
42.934
20
13.122
30
0
0
VERTEX
8
RASTER
10
42.64
20
13.917
30
0
0
VERTEX
8
RASTER
10
41.986
20
17.186
30
0
0
VERTEX
8
RASTER
10
41.659
20
18.276
30
0
0
VERTEX
8
RASTER
10
41.55
20
19.474
30
0
0
VERTEX
8
RASTER
10
41.844
20
20.052
30
0
0
VERTEX
8
RASTER
10
42.171
20
20.379
30
0
0
VERTEX
8
RASTER
10
46.094
20
23.321
30
0
0
SEQEND
8
RASTER
0
POLYLINE
8
RASTER
66
1
70
1
0
VERTEX
8
RASTER
10
46.998
20
23.179
30
0
0
VERTEX
8
RASTER
10
42.498
20
19.834
30
0
0
VERTEX
8
RASTER
10
42.204
20
19.365
30
0
0
VERTEX
8
RASTER
10
42.204
20
19.147
30
0
0
VERTEX
8
RASTER
10
42.454
20
17.982
30
0
0
VERTEX
8
RASTER
10
42.716
20
18.134
30
0
0
VERTEX
8
RASTER
10
42.966
20
17.731
30
0
0
VERTEX
8
RASTER
10
42.857
20
17.622
30
0
0
VERTEX
8
RASTER
10
42.563
20
17.698
30
0
0
VERTEX
8
RASTER
10
42.531
20
17.404
30
0
0
VERTEX
8
RASTER
10
42.825
20
16.282
30
0
0
VERTEX
8
RASTER
10
43.043
20
16.282
30
0
0
VERTEX
8
RASTER
10
43.293
20
16.097
30
0
0
VERTEX
8
RASTER
10
43.152
20
15.911
30
0
0
VERTEX
8
RASTER
10
42.934
20
16.064
30
0
0
VERTEX
8
RASTER
10
42.857
20
15.988
30
0
0
VERTEX
8
RASTER
10
43.479
20
13.558
30
0
0
VERTEX
8
RASTER
10
43.729
20
13.373
30
0
0
VERTEX
8
RASTER
10
45.069
20
12.861
30
0
0
VERTEX
8
RASTER
10
45.069
20
12.969
30
0
0
VERTEX
8
RASTER
10
44.851
20
13.078
30
0
0
VERTEX
8
RASTER
10
45.004
20
13.296
30
0
0
VERTEX
8
RASTER
10
44.96
20
13.449
30
0
0
VERTEX
8
RASTER
10
45.472
20
13.264
30
0
0
VERTEX
8
RASTER
10
45.505
20
13.405
30
0
0
VERTEX
8
RASTER
10
45.287
20
13.405
30
0
0
VERTEX
8
RASTER
10
45.472
20
13.591
30
0
0
VERTEX
8
RASTER
10
45.658
20
13.558
30
0
0
VERTEX
8
RASTER
10
45.723
20
13.296
30
0
0
VERTEX
8
RASTER
10
45.876
20
13.449
30
0
0
VERTEX
8
RASTER
10
45.941
20
13.296
30
0
0
VERTEX
8
RASTER
10
46.126
20
13.373
30
0
0
VERTEX
8
RASTER
10
46.453
20
13.155
30
0
0
VERTEX
8
RASTER
10
46.638
20
13.231
30
0
0
VERTEX
8
RASTER
10
46.813
20
13.078
30
0
0
VERTEX
8
RASTER
10
46.965
20
13.122
30
0
0
VERTEX
8
RASTER
10
46.78
20
12.719
30
0
0
VERTEX
8
RASTER
10
46.856
20
12.577
30
0
0
VERTEX
8
RASTER
10
46.965
20
12.534
30
0
0
VERTEX
8
RASTER
10
47.183
20
12.686
30
0
0
VERTEX
8
RASTER
10
47.249
20
12.534
30
0
0
VERTEX
8
RASTER
10
47.434
20
12.61
30
0
0
VERTEX
8
RASTER
10
47.684
20
12.425
30
0
0
VERTEX
8
RASTER
10
47.684
20
12.577
30
0
0
VERTEX
8
RASTER
10
47.837
20
12.577
30
0
0
VERTEX
8
RASTER
10
47.946
20
12.098
30
0
0
VERTEX
8
RASTER
10
47.575
20
12.141
30
0
0
VERTEX
8
RASTER
10
47.728
20
12.032
30
0
0
VERTEX
8
RASTER
10
47.575
20
11.88
30
0
0
VERTEX
8
RASTER
10
48.741
20
11.52
30
0
0
VERTEX
8
RASTER
10
48.926
20
11.88
30
0
0
VERTEX
8
RASTER
10
48.85
20
12.828
30
0
0
VERTEX
8
RASTER
10
48.741
20
13.046
30
0
0
VERTEX
8
RASTER
10
48.741
20
13.482
30
0
0
VERTEX
8
RASTER
10
48.85
20
13.699
30
0
0
VERTEX
8
RASTER
10
48.632
20
13.808
30
0
0
VERTEX
8
RASTER
10
48.523
20
14.789
30
0
0
VERTEX
8
RASTER
10
48.6
20
14.865
30
0
0
VERTEX
8
RASTER
10
48.709
20
14.604
30
0
0
VERTEX
8
RASTER
10
49.068
20
15.007
30
0
0
VERTEX
8
RASTER
10
49.21
20
14.822
30
0
0
VERTEX
8
RASTER
10
49.362
20
14.822
30
0
0
VERTEX
8
RASTER
10
49.362
20
14.974
30
0
0
VERTEX
8
RASTER
10
49.21
20
15.083
30
0
0
VERTEX
8
RASTER
10
49.504
20
15.443
30
0
0
VERTEX
8
RASTER
10
49.319
20
15.519
30
0
0
VERTEX
8
RASTER
10
49.035
20
15.367
30
0
0
VERTEX
8
RASTER
10
49.035
20
15.149
30
0
0
VERTEX
8
RASTER
10
48.85
20
15.225
30
0
0
VERTEX
8
RASTER
10
48.818
20
15.04
30
0
0
VERTEX
8
RASTER
10
48.632
20
15.007
30
0
0
VERTEX
8
RASTER
10
48.6
20
15.192
30
0
0
VERTEX
8
RASTER
10
48.414
20
15.225
30
0
0
VERTEX
8
RASTER
10
48.447
20
15.628
30
0
0
VERTEX
8
RASTER
10
48.741
20
15.879
30
0
0
VERTEX
8
RASTER
10
49.035
20
15.802
30
0
0
VERTEX
8
RASTER
10
49.068
20
15.988
30
0
0
VERTEX
8
RASTER
10
48.959
20
16.206
30
0
0
VERTEX
8
RASTER
10
49.101
20
16.391
30
0
0
VERTEX
8
RASTER
10
49.319
20
16.391
30
0
0
VERTEX
8
RASTER
10
49.362
20
16.5
30
0
0
VERTEX
8
RASTER
10
49.21
20
16.456
30
0
0
VERTEX
8
RASTER
10
49.177
20
16.641
30
0
0
VERTEX
8
RASTER
10
49.395
20
16.968
30
0
0
VERTEX
8
RASTER
10
49.646
20
16.783
30
0
0
VERTEX
8
RASTER
10
49.831
20
16.423
30
0
0
VERTEX
8
RASTER
10
49.972
20
16.718
30
0
0
VERTEX
8
RASTER
10
50.19
20
16.827
30
0
0
VERTEX
8
RASTER
10
50.452
20
16.718
30
0
0
VERTEX
8
RASTER
10
50.561
20
16.456
30
0
0
VERTEX
8
RASTER
10
50.376
20
16.315
30
0
0
VERTEX
8
RASTER
10
50.779
20
15.911
30
0
0
VERTEX
8
RASTER
10
51.324
20
17.219
30
0
0
VERTEX
8
RASTER
10
51.65
20
17.546
30
0
0
VERTEX
8
RASTER
10
52.01
20
17.731
30
0
0
VERTEX
8
RASTER
10
53.067
20
17.764
30
0
0
VERTEX
8
RASTER
10
52.991
20
18.821
30
0
0
VERTEX
8
RASTER
10
52.914
20
18.962
30
0
0
VERTEX
8
RASTER
10
52.664
20
19.038
30
0
0
VERTEX
8
RASTER
10
52.849
20
19.18
30
0
0
VERTEX
8
RASTER
10
52.882
20
19.474
30
0
0
VERTEX
8
RASTER
10
52.805
20
19.551
30
0
0
VERTEX
8
RASTER
10
52.588
20
19.398
30
0
0
VERTEX
8
RASTER
10
52.152
20
19.616
30
0
0
VERTEX
8
RASTER
10
52.337
20
19.91
30
0
0
VERTEX
8
RASTER
10
52.152
20
20.313
30
0
0
VERTEX
8
RASTER
10
52.37
20
20.27
30
0
0
VERTEX
8
RASTER
10
52.631
20
19.986
30
0
0
VERTEX
8
RASTER
10
52.74
20
19.616
30
0
0
VERTEX
8
RASTER
10
52.773
20
20.346
30
0
0
VERTEX
8
RASTER
10
52.664
20
20.564
30
0
0
VERTEX
8
RASTER
10
52.664
20
21
30
0
0
VERTEX
8
RASTER
10
52.479
20
21.359
30
0
0
VERTEX
8
RASTER
10
52.01
20
21.653
30
0
0
VERTEX
8
RASTER
10
47.652
20
23.07
30
0
0
SEQEND
8
RASTER
0
POLYLINE
8
RASTER
66
1
70
1
0
VERTEX
8
RASTER
10
51.934
20
20.422
30
0
0
VERTEX
8
RASTER
10
52.01
20
20.019
30
0
0
VERTEX
8
RASTER
10
51.868
20
19.725
30
0
0
VERTEX
8
RASTER
10
51.792
20
19.801
30
0
0
VERTEX
8
RASTER
10
51.868
20
19.986
30
0
0
VERTEX
8
RASTER
10
51.683
20
20.128
30
0
0
VERTEX
8
RASTER
10
51.389
20
19.943
30
0
0
VERTEX
8
RASTER
10
51.541
20
20.161
30
0
0
SEQEND
8
RASTER
0
POLYLINE
8
RASTER
66
1
70
1
0
VERTEX
8
RASTER
10
49.428
20
17.48
30
0
0
VERTEX
8
RASTER
10
50.016
20
17.262
30
0
0
VERTEX
8
RASTER
10
50.049
20
17.077
30
0
0
VERTEX
8
RASTER
10
49.798
20
16.783
30
0
0
VERTEX
8
RASTER
10
49.722
20
16.859
30
0
0
VERTEX
8
RASTER
10
49.907
20
17.153
30
0
0
VERTEX
8
RASTER
10
49.722
20
17.186
30
0
0
VERTEX
8
RASTER
10
49.689
20
17.001
30
0
0
VERTEX
8
RASTER
10
49.537
20
17.001
30
0
0
VERTEX
8
RASTER
10
49.613
20
17.295
30
0
0
SEQEND
8
RASTER
0
POLYLINE
8
RASTER
66
1
70
1
0
VERTEX
8
RASTER
10
42.89
20
17.262
30
0
0
VERTEX
8
RASTER
10
43.075
20
17.295
30
0
0
VERTEX
8
RASTER
10
43.184
20
17.186
30
0
0
VERTEX
8
RASTER
10
43.184
20
16.859
30
0
0
VERTEX
8
RASTER
10
43.075
20
16.75
30
0
0
VERTEX
8
RASTER
10
42.825
20
16.827
30
0
0
VERTEX
8
RASTER
10
42.749
20
16.968
30
0
0
SEQEND
8
RASTER
0
POLYLINE
8
RASTER
66
1
70
1
0
VERTEX
8
RASTER
10
52.228
20
17.186
30
0
0
VERTEX
8
RASTER
10
51.934
20
17.045
30
0
0
VERTEX
8
RASTER
10
51.683
20
16.532
30
0
0
VERTEX
8
RASTER
10
51.683
20
16.315
30
0
0
VERTEX
8
RASTER
10
51.247
20
15.225
30
0
0
VERTEX
8
RASTER
10
51.356
20
14.898
30
0
0
VERTEX
8
RASTER
10
51.28
20
14.822
30
0
0
VERTEX
8
RASTER
10
51.171
20
14.974
30
0
0
VERTEX
8
RASTER
10
51.029
20
14.68
30
0
0
VERTEX
8
RASTER
10
50.267
20
12.501
30
0
0
VERTEX
8
RASTER
10
50.267
20
11.847
30
0
0
VERTEX
8
RASTER
10
50.452
20
11.488
30
0
0
VERTEX
8
RASTER
10
51.825
20
10.028
30
0
0
VERTEX
8
RASTER
10
52.958
20
8.546
30
0
0
VERTEX
8
RASTER
10
53.067
20
8.502
30
0
0
VERTEX
8
RASTER
10
53.285
20
8.764
30
0
0
VERTEX
8
RASTER
10
53.241
20
8.502
30
0
0
VERTEX
8
RASTER
10
53.535
20
8.469
30
0
0
VERTEX
8
RASTER
10
53.612
20
8.502
30
0
0
VERTEX
8
RASTER
10
53.535
20
8.796
30
0
0
VERTEX
8
RASTER
10
53.318
20
9.014
30
0
0
VERTEX
8
RASTER
10
53.786
20
9.962
30
0
0
VERTEX
8
RASTER
10
53.971
20
9.886
30
0
0
VERTEX
8
RASTER
10
54.08
20
9.995
30
0
0
VERTEX
8
RASTER
10
53.862
20
10.213
30
0
0
VERTEX
8
RASTER
10
54.265
20
10.463
30
0
0
VERTEX
8
RASTER
10
54.08
20
10.649
30
0
0
VERTEX
8
RASTER
10
54.113
20
10.834
30
0
0
VERTEX
8
RASTER
10
54.407
20
10.758
30
0
0
VERTEX
8
RASTER
10
54.516
20
10.867
30
0
0
VERTEX
8
RASTER
10
54.222
20
11.052
30
0
0
VERTEX
8
RASTER
10
55.246
20
13.296
30
0
0
VERTEX
8
RASTER
10
55.497
20
13.482
30
0
0
VERTEX
8
RASTER
10
56.041
20
13.482
30
0
0
VERTEX
8
RASTER
10
56.445
20
12.577
30
0
0
VERTEX
8
RASTER
10
56.695
20
12.61
30
0
0
VERTEX
8
RASTER
10
57.098
20
12.425
30
0
0
VERTEX
8
RASTER
10
56.837
20
12.643
30
0
0
VERTEX
8
RASTER
10
56.837
20
12.904
30
0
0
VERTEX
8
RASTER
10
57.098
20
12.861
30
0
0
VERTEX
8
RASTER
10
57.098
20
13.013
30
0
0
VERTEX
8
RASTER
10
56.804
20
13.155
30
0
0
VERTEX
8
RASTER
10
56.477
20
12.828
30
0
0
VERTEX
8
RASTER
10
56.401
20
13.122
30
0
0
VERTEX
8
RASTER
10
56.51
20
13.34
30
0
0
VERTEX
8
RASTER
10
56.913
20
13.373
30
0
0
VERTEX
8
RASTER
10
57.098
20
13.187
30
0
0
VERTEX
8
RASTER
10
57.349
20
13.373
30
0
0
VERTEX
8
RASTER
10
57.425
20
13.296
30
0
0
VERTEX
8
RASTER
10
57.273
20
13.122
30
0
0
VERTEX
8
RASTER
10
57.316
20
13.013
30
0
0
VERTEX
8
RASTER
10
57.534
20
13.013
30
0
0
VERTEX
8
RASTER
10
57.643
20
12.795
30
0
0
VERTEX
8
RASTER
10
57.861
20
12.686
30
0
0
VERTEX
8
RASTER
10
57.567
20
12.392
30
0
0
VERTEX
8
RASTER
10
57.643
20
12.25
30
0
0
VERTEX
8
RASTER
10
57.97
20
12.141
30
0
0
VERTEX
8
RASTER
10
57.894
20
11.956
30
0
0
VERTEX
8
RASTER
10
58.079
20
11.553
30
0
0
VERTEX
8
RASTER
10
57.894
20
11.411
30
0
0
VERTEX
8
RASTER
10
58.003
20
11.193
30
0
0
VERTEX
8
RASTER
10
57.926
20
11.052
30
0
0
VERTEX
8
RASTER
10
57.6
20
10.79
30
0
0
VERTEX
8
RASTER
10
57.643
20
11.161
30
0
0
VERTEX
8
RASTER
10
57.425
20
11.117
30
0
0
VERTEX
8
RASTER
10
57.382
20
10.834
30
0
0
VERTEX
8
RASTER
10
57.207
20
10.572
30
0
0
VERTEX
8
RASTER
10
57.055
20
10.572
30
0
0
VERTEX
8
RASTER
10
57.24
20
10.976
30
0
0
VERTEX
8
RASTER
10
57.164
20
11.052
30
0
0
VERTEX
8
RASTER
10
56.946
20
10.899
30
0
0
VERTEX
8
RASTER
10
56.88
20
11.052
30
0
0
VERTEX
8
RASTER
10
56.695
20
11.084
30
0
0
VERTEX
8
RASTER
10
56.695
20
11.411
30
0
0
VERTEX
8
RASTER
10
56.913
20
11.956
30
0
0
VERTEX
8
RASTER
10
56.728
20
12.032
30
0
0
VERTEX
8
RASTER
10
56.401
20
11.226
30
0
0
VERTEX
8
RASTER
10
56.586
20
10.976
30
0
0
VERTEX
8
RASTER
10
56.554
20
10.725
30
0
0
VERTEX
8
RASTER
10
56.772
20
10.616
30
0
0
VERTEX
8
RASTER
10
56.837
20
10.354
30
0
0
VERTEX
8
RASTER
10
57.098
20
10.18
30
0
0
VERTEX
8
RASTER
10
56.88
20
9.701
30
0
0
VERTEX
8
RASTER
10
56.804
20
9.777
30
0
0
VERTEX
8
RASTER
10
56.989
20
10.18
30
0
0
VERTEX
8
RASTER
10
56.728
20
10.028
30
0
0
VERTEX
8
RASTER
10
56.695
20
10.213
30
0
0
VERTEX
8
RASTER
10
56.554
20
10.137
30
0
0
VERTEX
8
RASTER
10
56.554
20
9.919
30
0
0
VERTEX
8
RASTER
10
56.401
20
9.962
30
0
0
VERTEX
8
RASTER
10
56.336
20
9.81
30
0
0
VERTEX
8
RASTER
10
56.259
20
9.886
30
0
0
VERTEX
8
RASTER
10
56.51
20
10.398
30
0
0
VERTEX
8
RASTER
10
56.663
20
10.463
30
0
0
VERTEX
8
RASTER
10
56.586
20
10.54
30
0
0
VERTEX
8
RASTER
10
56.292
20
10.398
30
0
0
VERTEX
8
RASTER
10
56.183
20
10.071
30
0
0
VERTEX
8
RASTER
10
56.041
20
9.995
30
0
0
VERTEX
8
RASTER
10
55.824
20
10.104
30
0
0
VERTEX
8
RASTER
10
55.638
20
9.853
30
0
0
VERTEX
8
RASTER
10
55.715
20
9.777
30
0
0
VERTEX
8
RASTER
10
56.118
20
9.853
30
0
0
VERTEX
8
RASTER
10
56.15
20
9.777
30
0
0
VERTEX
8
RASTER
10
55.856
20
9.308
30
0
0
VERTEX
8
RASTER
10
56.227
20
9.199
30
0
0
VERTEX
8
RASTER
10
56.009
20
8.938
30
0
0
VERTEX
8
RASTER
10
55.747
20
9.199
30
0
0
VERTEX
8
RASTER
10
55.529
20
8.72
30
0
0
VERTEX
8
RASTER
10
55.311
20
8.829
30
0
0
VERTEX
8
RASTER
10
55.17
20
9.123
30
0
0
VERTEX
8
RASTER
10
55.028
20
9.047
30
0
0
VERTEX
8
RASTER
10
54.985
20
8.764
30
0
0
VERTEX
8
RASTER
10
54.658
20
8.611
30
0
0
VERTEX
8
RASTER
10
56.041
20
8.578
30
0
0
VERTEX
8
RASTER
10
56.259
20
8.687
30
0
0
VERTEX
8
RASTER
10
57.567
20
8.687
30
0
0
VERTEX
8
RASTER
10
58.035
20
8.873
30
0
0
VERTEX
8
RASTER
10
58.657
20
10.104
30
0
0
VERTEX
8
RASTER
10
59.964
20
13.264
30
0
0
VERTEX
8
RASTER
10
60.04
20
13.558
30
0
0
VERTEX
8
RASTER
10
59.67
20
14.168
30
0
0
VERTEX
8
RASTER
10
58.079
20
15.737
30
0
0
VERTEX
8
RASTER
10
57.926
20
16.02
30
0
0
VERTEX
8
RASTER
10
57.382
20
16.565
30
0
0
VERTEX
8
RASTER
10
56.804
20
16.968
30
0
0
VERTEX
8
RASTER
10
56.368
20
17.077
30
0
0
VERTEX
8
RASTER
10
53.644
20
17.077
30
0
0
VERTEX
8
RASTER
10
53.426
20
17.186
30
0
0
SEQEND
8
RASTER
0
POLYLINE
8
RASTER
66
1
70
1
0
VERTEX
8
RASTER
10
57.6
20
13.34
30
0
0
VERTEX
8
RASTER
10
57.894
20
13.373
30
0
0
VERTEX
8
RASTER
10
58.003
20
13.264
30
0
0
VERTEX
8
RASTER
10
57.926
20
13.122
30
0
0
VERTEX
8
RASTER
10
57.676
20
13.046
30
0
0
SEQEND
8
RASTER
0
POLYLINE
8
RASTER
66
1
70
1
0
VERTEX
8
RASTER
10
49.58
20
12.686
30
0
0
VERTEX
8
RASTER
10
49.101
20
12.468
30
0
0
VERTEX
8
RASTER
10
49.101
20
12.316
30
0
0
VERTEX
8
RASTER
10
49.395
20
12.392
30
0
0
VERTEX
8
RASTER
10
49.58
20
12.316
30
0
0
SEQEND
8
RASTER
0
POLYLINE
8
RASTER
66
1
70
1
0
VERTEX
8
RASTER
10
55.464
20
12.686
30
0
0
VERTEX
8
RASTER
10
55.279
20
12.501
30
0
0
VERTEX
8
RASTER
10
55.355
20
12.316
30
0
0
VERTEX
8
RASTER
10
55.203
20
11.989
30
0
0
VERTEX
8
RASTER
10
55.42
20
12.032
30
0
0
VERTEX
8
RASTER
10
55.573
20
12.425
30
0
0
VERTEX
8
RASTER
10
55.682
20
12.468
30
0
0
VERTEX
8
RASTER
10
55.682
20
11.815
30
0
0
VERTEX
8
RASTER
10
55.9
20
11.815
30
0
0
VERTEX
8
RASTER
10
56.445
20
11.553
30
0
0
VERTEX
8
RASTER
10
56.401
20
11.771
30
0
0
VERTEX
8
RASTER
10
55.965
20
11.88
30
0
0
VERTEX
8
RASTER
10
55.824
20
12.174
30
0
0
VERTEX
8
RASTER
10
56.009
20
12.425
30
0
0
VERTEX
8
RASTER
10
55.965
20
12.534
30
0
0
VERTEX
8
RASTER
10
55.791
20
12.686
30
0
0
VERTEX
8
RASTER
10
55.529
20
12.534
30
0
0
SEQEND
8
RASTER
0
POLYLINE
8
RASTER
66
1
70
1
0
VERTEX
8
RASTER
10
56.227
20
12.577
30
0
0
VERTEX
8
RASTER
10
56.15
20
12.501
30
0
0
VERTEX
8
RASTER
10
56.336
20
12.141
30
0
0
VERTEX
8
RASTER
10
56.51
20
12.141
30
0
0
VERTEX
8
RASTER
10
56.554
20
12.359
30
0
0
VERTEX
8
RASTER
10
56.292
20
12.425
30
0
0
SEQEND
8
RASTER
0
POLYLINE
8
RASTER
66
1
70
1
0
VERTEX
8
RASTER
10
49.471
20
12.25
30
0
0
VERTEX
8
RASTER
10
49.101
20
12.032
30
0
0
VERTEX
8
RASTER
10
49.286
20
11.738
30
0
0
VERTEX
8
RASTER
10
49.504
20
11.956
30
0
0
SEQEND
8
RASTER
0
POLYLINE
8
RASTER
66
1
70
1
0
VERTEX
8
RASTER
10
57.534
20
12.141
30
0
0
VERTEX
8
RASTER
10
57.425
20
11.771
30
0
0
VERTEX
8
RASTER
10
57.24
20
11.629
30
0
0
VERTEX
8
RASTER
10
57.273
20
11.553
30
0
0
VERTEX
8
RASTER
10
57.567
20
11.629
30
0
0
VERTEX
8
RASTER
10
57.752
20
11.444
30
0
0
VERTEX
8
RASTER
10
57.861
20
11.706
30
0
0
VERTEX
8
RASTER
10
57.676
20
11.847
30
0
0
VERTEX
8
RASTER
10
57.752
20
12.032
30
0
0
SEQEND
8
RASTER
0
POLYLINE
8
RASTER
66
1
70
1
0
VERTEX
8
RASTER
10
54.919
20
11.488
30
0
0
VERTEX
8
RASTER
10
54.876
20
11.226
30
0
0
VERTEX
8
RASTER
10
55.028
20
11.27
30
0
0
VERTEX
8
RASTER
10
55.355
20
11.117
30
0
0
VERTEX
8
RASTER
10
55.355
20
11.27
30
0
0
SEQEND
8
RASTER
0
POLYLINE
8
RASTER
66
1
70
1
0
VERTEX
8
RASTER
10
55.279
20
9.886
30
0
0
VERTEX
8
RASTER
10
55.137
20
9.81
30
0
0
VERTEX
8
RASTER
10
55.137
20
9.635
30
0
0
VERTEX
8
RASTER
10
55.573
20
9.374
30
0
0
VERTEX
8
RASTER
10
55.573
20
9.635
30
0
0
VERTEX
8
RASTER
10
55.42
20
9.592
30
0
0
SEQEND
8
RASTER
0
POLYLINE
8
CUT
66
1
70
1
0
VERTEX
8
CUT
10
70.858
20
23.84
30
0
0
VERTEX
8
CUT
10
74.344
20
24.007
30
0
0
VERTEX
8
CUT
10
75.156
20
23.147
30
0
0
VERTEX
8
CUT
10
76.266
20
22.706
30
0
0
VERTEX
8
CUT
10
79.024
20
18.659
30
0
0
VERTEX
8
CUT
10
80.325
20
14.946
30
0
0
VERTEX
8
CUT
10
80.516
20
11.079
30
0
0
VERTEX
8
CUT
10
79.728
20
8.285
30
0
0
VERTEX
8
CUT
10
78.403
20
6.387
30
0
0
VERTEX
8
CUT
10
75.299
20
4
30
0
0
VERTEX
8
CUT
10
70.166
20
4.071
30
0
0
VERTEX
8
CUT
10
66.549
20
7.139
30
0
0
VERTEX
8
CUT
10
65.188
20
10.076
30
0
0
VERTEX
8
CUT
10
65.021
20
13.8
30
0
0
VERTEX
8
CUT
10
65.952
20
17.406
30
0
0
VERTEX
8
CUT
10
67.981
20
20.987
30
0
0
SEQEND
8
CUT
0
POLYLINE
8
RASTER
66
1
70
1
0
VERTEX
8
RASTER
10
71.897
20
23.279
30
0
0
VERTEX
8
RASTER
10
73.652
20
23.315
30
0
0
VERTEX
8
RASTER
10
74.368
20
23.076
30
0
0
VERTEX
8
RASTER
10
75.836
20
22.276
30
0
0
VERTEX
8
RASTER
10
77.149
20
20.963
30
0
0
VERTEX
8
RASTER
10
77.985
20
19.769
30
0
0
VERTEX
8
RASTER
10
78.904
20
18.062
30
0
0
VERTEX
8
RASTER
10
79.74
20
15.913
30
0
0
VERTEX
8
RASTER
10
80.217
20
13.884
30
0
0
VERTEX
8
RASTER
10
80.217
20
11.019
30
0
0
VERTEX
8
RASTER
10
80.098
20
10.422
30
0
0
VERTEX
8
RASTER
10
79.501
20
8.631
30
0
0
VERTEX
8
RASTER
10
78.94
20
7.641
30
0
0
VERTEX
8
RASTER
10
77.508
20
6.089
30
0
0
VERTEX
8
RASTER
10
76.791
20
5.611
30
0
0
VERTEX
8
RASTER
10
75.681
20
5.05
30
0
0
VERTEX
8
RASTER
10
73.891
20
4.573
30
0
0
VERTEX
8
RASTER
10
71.742
20
4.573
30
0
0
VERTEX
8
RASTER
10
71.145
20
4.692
30
0
0
VERTEX
8
RASTER
10
69.712
20
5.17
30
0
0
VERTEX
8
RASTER
10
68.483
20
5.85
30
0
0
VERTEX
8
RASTER
10
67.408
20
6.686
30
0
0
VERTEX
8
RASTER
10
66.692
20
7.521
30
0
0
VERTEX
8
RASTER
10
65.654
20
9.586
30
0
0
VERTEX
8
RASTER
10
65.295
20
11.019
30
0
0
VERTEX
8
RASTER
10
65.295
20
13.645
30
0
0
VERTEX
8
RASTER
10
65.415
20
13.884
30
0
0
VERTEX
8
RASTER
10
65.534
20
15.078
30
0
0
VERTEX
8
RASTER
10
65.892
20
16.271
30
0
0
VERTEX
8
RASTER
10
66.931
20
18.695
30
0
0
VERTEX
8
RASTER
10
67.886
20
20.247
30
0
0
VERTEX
8
RASTER
10
69.199
20
21.799
30
0
0
VERTEX
8
RASTER
10
70.512
20
22.754
30
0
0
SEQEND
8
RASTER
0
POLYLINE
8
RASTER
66
1
70
1
0
VERTEX
8
RASTER
10
72.1
20
22.718
30
0
0
VERTEX
8
RASTER
10
71.3
20
22.443
30
0
0
VERTEX
8
RASTER
10
70.035
20
21.679
30
0
0
VERTEX
8
RASTER
10
69.08
20
20.724
30
0
0
VERTEX
8
RASTER
10
67.886
20
19.053
30
0
0
VERTEX
8
RASTER
10
66.967
20
17.226
30
0
0
VERTEX
8
RASTER
10
66.25
20
15.197
30
0
0
VERTEX
8
RASTER
10
66.012
20
14.003
30
0
0
VERTEX
8
RASTER
10
66.012
20
13.287
30
0
0
VERTEX
8
RASTER
10
65.892
20
13.048
30
0
0
VERTEX
8
RASTER
10
65.892
20
11.735
30
0
0
VERTEX
8
RASTER
10
66.012
20
11.496
30
0
0
VERTEX
8
RASTER
10
66.131
20
10.303
30
0
0
VERTEX
8
RASTER
10
66.37
20
9.586
30
0
0
VERTEX
8
RASTER
10
67.05
20
8.237
30
0
0
VERTEX
8
RASTER
10
68.125
20
6.924
30
0
0
VERTEX
8
RASTER
10
69.951
20
5.766
30
0
0
VERTEX
8
RASTER
10
71.503
20
5.289
30
0
0
VERTEX
8
RASTER
10
73.294
20
5.17
30
0
0
VERTEX
8
RASTER
10
73.532
20
5.289
30
0
0
VERTEX
8
RASTER
10
74.726
20
5.408
30
0
0
VERTEX
8
RASTER
10
75.442
20
5.647
30
0
0
VERTEX
8
RASTER
10
77.269
20
6.686
30
0
0
VERTEX
8
RASTER
10
77.985
20
7.402
30
0
0
VERTEX
8
RASTER
10
78.821
20
8.715
30
0
0
VERTEX
8
RASTER
10
79.382
20
10.183
30
0
0
VERTEX
8
RASTER
10
79.621
20
11.258
30
0
0
VERTEX
8
RASTER
10
79.621
20
13.406
30
0
0
VERTEX
8
RASTER
10
79.262
20
15.197
30
0
0
VERTEX
8
RASTER
10
78.546
20
17.226
30
0
0
VERTEX
8
RASTER
10
77.508
20
19.292
30
0
0
VERTEX
8
RASTER
10
76.314
20
20.963
30
0
0
VERTEX
8
RASTER
10
75.359
20
21.799
30
0
0
VERTEX
8
RASTER
10
73.891
20
22.598
30
0
0
VERTEX
8
RASTER
10
73.413
20
22.718
30
0
0
SEQEND
8
RASTER
0
POLYLINE
8
RASTER
66
1
70
1
0
VERTEX
8
RASTER
10
68.793
20
18.862
30
0
0
VERTEX
8
RASTER
10
68.996
20
18.778
30
0
0
VERTEX
8
RASTER
10
68.877
20
18.54
30
0
0
VERTEX
8
RASTER
10
69.115
20
17.823
30
0
0
VERTEX
8
RASTER
10
68.793
20
17.429
30
0
0
VERTEX
8
RASTER
10
68.316
20
17.262
30
0
0
VERTEX
8
RASTER
10
68.005
20
17.429
30
0
0
VERTEX
8
RASTER
10
67.922
20
17.943
30
0
0
VERTEX
8
RASTER
10
68.244
20
18.575
30
0
0
VERTEX
8
RASTER
10
68.519
20
18.778
30
0
0
VERTEX
8
RASTER
10
68.841
20
18.695
30
0
0
SEQEND
8
RASTER
0
POLYLINE
8
RASTER
66
1
70
1
0
VERTEX
8
RASTER
10
67.48
20
15.161
30
0
0
VERTEX
8
RASTER
10
67.802
20
15.197
30
0
0
VERTEX
8
RASTER
10
68.16
20
14.839
30
0
0
VERTEX
8
RASTER
10
68.16
20
14.242
30
0
0
VERTEX
8
RASTER
10
67.683
20
13.765
30
0
0
VERTEX
8
RASTER
10
67.289
20
13.968
30
0
0
VERTEX
8
RASTER
10
67.086
20
14.361
30
0
0
VERTEX
8
RASTER
10
67.086
20
14.6
30
0
0
SEQEND
8
RASTER
0
POLYLINE
8
RASTER
66
1
70
1
0
VERTEX
8
RASTER
10
72.613
20
14.923
30
0
0
VERTEX
8
RASTER
10
73.532
20
14.958
30
0
0
VERTEX
8
RASTER
10
73.926
20
14.755
30
0
0
VERTEX
8
RASTER
10
74.213
20
14.445
30
0
0
VERTEX
8
RASTER
10
74.487
20
13.645
30
0
0
VERTEX
8
RASTER
10
74.487
20
13.168
30
0
0
VERTEX
8
RASTER
10
74.165
20
12.296
30
0
0
VERTEX
8
RASTER
10
73.688
20
11.819
30
0
0
VERTEX
8
RASTER
10
73.294
20
11.616
30
0
0
VERTEX
8
RASTER
10
72.577
20
11.616
30
0
0
VERTEX
8
RASTER
10
72.016
20
11.89
30
0
0
VERTEX
8
RASTER
10
71.622
20
12.571
30
0
0
VERTEX
8
RASTER
10
71.622
20
13.645
30
0
0
VERTEX
8
RASTER
10
72.064
20
14.517
30
0
0
SEQEND
8
RASTER
0
POLYLINE
8
RASTER
66
1
70
1
0
VERTEX
8
RASTER
10
77.388
20
14.564
30
0
0
VERTEX
8
RASTER
10
77.711
20
14.6
30
0
0
VERTEX
8
RASTER
10
77.949
20
14.361
30
0
0
VERTEX
8
RASTER
10
77.949
20
13.884
30
0
0
VERTEX
8
RASTER
10
77.591
20
13.526
30
0
0
VERTEX
8
RASTER
10
77.317
20
13.609
30
0
0
VERTEX
8
RASTER
10
77.114
20
14.003
30
0
0
SEQEND
8
RASTER
0
POLYLINE
8
RASTER
66
1
70
1
0
VERTEX
8
RASTER
10
72.9
20
14.326
30
0
0
VERTEX
8
RASTER
10
72.816
20
14.242
30
0
0
VERTEX
8
RASTER
10
73.019
20
13.681
30
0
0
VERTEX
8
RASTER
10
73.174
20
13.884
30
0
0
SEQEND
8
RASTER
0
POLYLINE
8
RASTER
66
1
70
1
0
VERTEX
8
RASTER
10
73.413
20
13.765
30
0
0
VERTEX
8
RASTER
10
73.329
20
13.681
30
0
0
VERTEX
8
RASTER
10
73.735
20
13.49
30
0
0
VERTEX
8
RASTER
10
73.688
20
13.323
30
0
0
VERTEX
8
RASTER
10
73.807
20
13.204
30
0
0
VERTEX
8
RASTER
10
73.974
20
13.562
30
0
0
VERTEX
8
RASTER
10
74.213
20
13.562
30
0
0
VERTEX
8
RASTER
10
74.01
20
13.765
30
0
0
VERTEX
8
RASTER
10
73.855
20
13.681
30
0
0
SEQEND
8
RASTER
0
POLYLINE
8
RASTER
66
1
70
1
0
VERTEX
8
RASTER
10
72.78
20
13.49
30
0
0
VERTEX
8
RASTER
10
72.78
20
13.323
30
0
0
VERTEX
8
RASTER
10
72.494
20
13.251
30
0
0
VERTEX
8
RASTER
10
72.613
20
12.726
30
0
0
VERTEX
8
RASTER
10
72.733
20
12.893
30
0
0
VERTEX
8
RASTER
10
72.9
20
12.845
30
0
0
VERTEX
8
RASTER
10
72.852
20
13.132
30
0
0
VERTEX
8
RASTER
10
72.936
20
13.168
30
0
0
VERTEX
8
RASTER
10
73.091
20
12.845
30
0
0
VERTEX
8
RASTER
10
73.413
20
13.048
30
0
0
VERTEX
8
RASTER
10
73.616
20
12.726
30
0
0
VERTEX
8
RASTER
10
73.735
20
13.132
30
0
0
VERTEX
8
RASTER
10
73.568
20
13.084
30
0
0
SEQEND
8
RASTER
0
POLYLINE
8
RASTER
66
1
70
1
0
VERTEX
8
RASTER
10
67.48
20
11.341
30
0
0
VERTEX
8
RASTER
10
67.802
20
11.377
30
0
0
VERTEX
8
RASTER
10
68.674
20
10.935
30
0
0
VERTEX
8
RASTER
10
69.39
20
10.1
30
0
0
VERTEX
8
RASTER
10
69.832
20
8.99
30
0
0
VERTEX
8
RASTER
10
69.712
20
8.154
30
0
0
VERTEX
8
RASTER
10
69.39
20
7.76
30
0
0
VERTEX
8
RASTER
10
68.877
20
7.676
30
0
0
VERTEX
8
RASTER
10
68.244
20
7.999
30
0
0
VERTEX
8
RASTER
10
67.647
20
8.476
30
0
0
VERTEX
8
RASTER
10
67.408
20
8.834
30
0
0
VERTEX
8
RASTER
10
66.967
20
9.706
30
0
0
VERTEX
8
RASTER
10
66.847
20
10.422
30
0
0
VERTEX
8
RASTER
10
67.05
20
11.055
30
0
0
SEQEND
8
RASTER
0
POLYLINE
8
RASTER
66
1
70
1
0
VERTEX
8
RASTER
10
76.672
20
11.103
30
0
0
VERTEX
8
RASTER
10
77.352
20
11.138
30
0
0
VERTEX
8
RASTER
10
77.675
20
10.983
30
0
0
VERTEX
8
RASTER
10
77.949
20
10.541
30
0
0
VERTEX
8
RASTER
10
77.949
20
9.586
30
0
0
VERTEX
8
RASTER
10
77.388
20
8.357
30
0
0
VERTEX
8
RASTER
10
76.791
20
7.76
30
0
0
VERTEX
8
RASTER
10
76.159
20
7.438
30
0
0
VERTEX
8
RASTER
10
75.801
20
7.438
30
0
0
VERTEX
8
RASTER
10
75.168
20
7.879
30
0
0
VERTEX
8
RASTER
10
74.965
20
8.393
30
0
0
VERTEX
8
RASTER
10
74.965
20
8.99
30
0
0
VERTEX
8
RASTER
10
75.239
20
9.789
30
0
0
VERTEX
8
RASTER
10
75.407
20
9.742
30
0
0
VERTEX
8
RASTER
10
75.836
20
10.028
30
0
0
VERTEX
8
RASTER
10
76.003
20
9.861
30
0
0
VERTEX
8
RASTER
10
76.039
20
10.303
30
0
0
VERTEX
8
RASTER
10
76.242
20
10.458
30
0
0
VERTEX
8
RASTER
10
76.194
20
10.625
30
0
0
VERTEX
8
RASTER
10
76.362
20
10.625
30
0
0
VERTEX
8
RASTER
10
76.517
20
10.422
30
0
0
VERTEX
8
RASTER
10
76.636
20
10.541
30
0
0
VERTEX
8
RASTER
10
76.362
20
10.864
30
0
0
VERTEX
8
RASTER
10
76.242
20
10.816
30
0
0
VERTEX
8
RASTER
10
75.407
20
9.861
30
0
0
VERTEX
8
RASTER
10
75.323
20
9.945
30
0
0
VERTEX
8
RASTER
10
75.645
20
10.458
30
0
0
VERTEX
8
RASTER
10
76.314
20
10.983
30
0
0
VERTEX
8
RASTER
10
76.6
20
10.935
30
0
0
SEQEND
8
RASTER
0
POLYLINE
8
RASTER
66
1
70
1
0
VERTEX
8
RASTER
10
71.778
20
6.924
30
0
0
VERTEX
8
RASTER
10
72.494
20
6.877
30
0
0
VERTEX
8
RASTER
10
72.816
20
6.483
30
0
0
VERTEX
8
RASTER
10
72.733
20
6.208
30
0
0
VERTEX
8
RASTER
10
72.339
20
6.005
30
0
0
VERTEX
8
RASTER
10
71.706
20
6.089
30
0
0
VERTEX
8
RASTER
10
71.467
20
6.327
30
0
0
VERTEX
8
RASTER
10
71.384
20
6.602
30
0
0
VERTEX
8
RASTER
10
71.467
20
6.757
30
0
0
SEQEND
8
RASTER
0
POLYLINE
8
CUT
66
1
70
1
0
VERTEX
8
CUT
10
90.991
20
23.929
30
0
0
VERTEX
8
CUT
10
92.406
20
24.007
30
0
0
VERTEX
8
CUT
10
92.852
20
23.484
30
0
0
VERTEX
8
CUT
10
93.569
20
23.425
30
0
0
VERTEX
8
CUT
10
94.044
20
22.931
30
0
0
VERTEX
8
CUT
10
99.123
20
20.644
30
0
0
VERTEX
8
CUT
10
99.763
20
19.946
30
0
0
VERTEX
8
CUT
10
99.705
20
18.996
30
0
0
VERTEX
8
CUT
10
99.54
20
18.676
30
0
0
VERTEX
8
CUT
10
99.007
20
18.433
30
0
0
VERTEX
8
CUT
10
98.736
20
17.929
30
0
0
VERTEX
8
CUT
10
98.639
20
17.057
30
0
0
VERTEX
8
CUT
10
98.803
20
16.737
30
0
0
VERTEX
8
CUT
10
101.537
20
16.776
30
0
0
VERTEX
8
CUT
10
102.128
20
17.445
30
0
0
VERTEX
8
CUT
10
102.797
20
17.707
30
0
0
VERTEX
8
CUT
10
103.553
20
17.61
30
0
0
VERTEX
8
CUT
10
104.522
20
17.028
30
0
0
VERTEX
8
CUT
10
104.522
20
15.729
30
0
0
VERTEX
8
CUT
10
103.873
20
15.118
30
0
0
VERTEX
8
CUT
10
103.98
20
11.445
30
0
0
VERTEX
8
CUT
10
104.484
20
10.824
30
0
0
VERTEX
8
CUT
10
104.038
20
10.495
30
0
0
VERTEX
8
CUT
10
103.669
20
9.506
30
0
0
VERTEX
8
CUT
10
103.127
20
9.08
30
0
0
VERTEX
8
CUT
10
102.458
20
7.907
30
0
0
VERTEX
8
CUT
10
101.139
20
6.317
30
0
0
VERTEX
8
CUT
10
99.676
20
5.164
30
0
0
VERTEX
8
CUT
10
97.786
20
4.534
30
0
0
VERTEX
8
CUT
10
97.349
20
4.001
30
0
0
VERTEX
8
CUT
10
92.949
20
4.001
30
0
0
VERTEX
8
CUT
10
92.445
20
4.95
30
0
0
VERTEX
8
CUT
10
92.319
20
6.472
30
0
0
VERTEX
8
CUT
10
92.125
20
6.763
30
0
0
VERTEX
8
CUT
10
89.013
20
7.917
30
0
0
VERTEX
8
CUT
10
84.516
20
10.301
30
0
0
VERTEX
8
CUT
10
84.516
20
11.794
30
0
0
VERTEX
8
CUT
10
85.107
20
12.269
30
0
0
VERTEX
8
CUT
10
85.534
20
13.878
30
0
0
VERTEX
8
CUT
10
86.106
20
14.372
30
0
0
VERTEX
8
CUT
10
86.406
20
15.041
30
0
0
VERTEX
8
CUT
10
86.309
20
16.786
30
0
0
VERTEX
8
CUT
10
88.626
20
19.122
30
0
0
VERTEX
8
CUT
10
89.527
20
20.934
30
0
0
VERTEX
8
CUT
10
89.682
20
21.652
30
0
0
VERTEX
8
CUT
10
90.138
20
22.165
30
0
0
SEQEND
8
CUT
0
POLYLINE
8
RASTER
66
1
70
1
0
VERTEX
8
RASTER
10
91.398
20
23.522
30
0
0
VERTEX
8
RASTER
10
91.757
20
23.551
30
0
0
VERTEX
8
RASTER
10
92.726
20
23.164
30
0
0
VERTEX
8
RASTER
10
97.96
20
20.934
30
0
0
VERTEX
8
RASTER
10
98.959
20
20.382
30
0
0
VERTEX
8
RASTER
10
99.22
20
19.771
30
0
0
VERTEX
8
RASTER
10
97.408
20
15.632
30
0
0
VERTEX
8
RASTER
10
98.154
20
15.991
30
0
0
VERTEX
8
RASTER
10
99.802
20
16.475
30
0
0
VERTEX
8
RASTER
10
101.062
20
16.572
30
0
0
VERTEX
8
RASTER
10
101.837
20
16.379
30
0
0
VERTEX
8
RASTER
10
102.06
20
16.543
30
0
0
VERTEX
8
RASTER
10
102.293
20
17.086
30
0
0
VERTEX
8
RASTER
10
102.516
20
17.251
30
0
0
VERTEX
8
RASTER
10
103.097
20
17.251
30
0
0
VERTEX
8
RASTER
10
103.611
20
16.989
30
0
0
VERTEX
8
RASTER
10
103.776
20
16.669
30
0
0
VERTEX
8
RASTER
10
103.776
20
16.088
30
0
0
VERTEX
8
RASTER
10
103.679
20
15.797
30
0
0
VERTEX
8
RASTER
10
103.417
20
15.283
30
0
0
VERTEX
8
RASTER
10
103.223
20
15.089
30
0
0
VERTEX
8
RASTER
10
103.679
20
14.149
30
0
0
VERTEX
8
RASTER
10
103.776
20
13.665
30
0
0
VERTEX
8
RASTER
10
103.776
20
12.598
30
0
0
VERTEX
8
RASTER
10
103.679
20
12.404
30
0
0
VERTEX
8
RASTER
10
103.582
20
11.435
30
0
0
VERTEX
8
RASTER
10
103.001
20
9.496
30
0
0
VERTEX
8
RASTER
10
102.545
20
8.595
30
0
0
VERTEX
8
RASTER
10
101.576
20
7.238
30
0
0
VERTEX
8
RASTER
10
100.509
20
6.172
30
0
0
VERTEX
8
RASTER
10
99.637
20
5.59
30
0
0
VERTEX
8
RASTER
10
98.542
20
5.038
30
0
0
VERTEX
8
RASTER
10
97.572
20
4.747
30
0
0
VERTEX
8
RASTER
10
96.603
20
4.65
30
0
0
VERTEX
8
RASTER
10
96.409
20
4.553
30
0
0
VERTEX
8
RASTER
10
95.828
20
4.553
30
0
0
VERTEX
8
RASTER
10
94.858
20
4.359
30
0
0
VERTEX
8
RASTER
10
93.501
20
4.359
30
0
0
VERTEX
8
RASTER
10
92.988
20
4.621
30
0
0
VERTEX
8
RASTER
10
92.629
20
5.232
30
0
0
VERTEX
8
RASTER
10
92.629
20
6.782
30
0
0
VERTEX
8
RASTER
10
92.561
20
6.908
30
0
0
VERTEX
8
RASTER
10
89.818
20
8.043
30
0
0
VERTEX
8
RASTER
10
87.036
20
9.332
30
0
0
VERTEX
8
RASTER
10
87.201
20
9.4
30
0
0
VERTEX
8
RASTER
10
87.492
20
9.303
30
0
0
VERTEX
8
RASTER
10
92.241
20
7.267
30
0
0
VERTEX
8
RASTER
10
92.6
20
7.296
30
0
0
VERTEX
8
RASTER
10
92.726
20
7.558
30
0
0
VERTEX
8
RASTER
10
92.823
20
7.849
30
0
0
VERTEX
8
RASTER
10
92.726
20
8.236
30
0
0
VERTEX
8
RASTER
10
92.726
20
9.012
30
0
0
VERTEX
8
RASTER
10
92.92
20
9.69
30
0
0
VERTEX
8
RASTER
10
92.92
20
10.078
30
0
0
VERTEX
8
RASTER
10
93.307
20
11.241
30
0
0
VERTEX
8
RASTER
10
93.792
20
12.114
30
0
0
VERTEX
8
RASTER
10
93.792
20
12.307
30
0
0
VERTEX
8
RASTER
10
93.724
20
12.433
30
0
0
VERTEX
8
RASTER
10
93.307
20
12.598
30
0
0
VERTEX
8
RASTER
10
92.338
20
12.598
30
0
0
VERTEX
8
RASTER
10
92.144
20
12.501
30
0
0
VERTEX
8
RASTER
10
91.757
20
12.501
30
0
0
VERTEX
8
RASTER
10
91.078
20
12.211
30
0
0
VERTEX
8
RASTER
10
90.855
20
12.278
30
0
0
VERTEX
8
RASTER
10
90.496
20
12.986
30
0
0
VERTEX
8
RASTER
10
89.886
20
14.799
30
0
0
VERTEX
8
RASTER
10
89.43
20
15.118
30
0
0
VERTEX
8
RASTER
10
88.558
20
15.312
30
0
0
VERTEX
8
RASTER
10
88.073
20
15.312
30
0
0
VERTEX
8
RASTER
10
87.685
20
15.603
30
0
0
VERTEX
8
RASTER
10
87.269
20
15.535
30
0
0
VERTEX
8
RASTER
10
86.648
20
14.314
30
0
0
VERTEX
8
RASTER
10
86.299
20
13.791
30
0
0
VERTEX
8
RASTER
10
85.941
20
12.889
30
0
0
VERTEX
8
RASTER
10
85.553
20
12.211
30
0
0
VERTEX
8
RASTER
10
85.359
20
11.726
30
0
0
VERTEX
8
RASTER
10
85.359
20
11.435
30
0
0
VERTEX
8
RASTER
10
85.165
20
11.047
30
0
0
VERTEX
8
RASTER
10
85.165
20
10.757
30
0
0
VERTEX
8
RASTER
10
85.33
20
10.437
30
0
0
VERTEX
8
RASTER
10
85.621
20
10.146
30
0
0
VERTEX
8
RASTER
10
86.978
20
9.429
30
0
0
VERTEX
8
RASTER
10
86.619
20
9.496
30
0
0
VERTEX
8
RASTER
10
85.524
20
10.049
30
0
0
VERTEX
8
RASTER
10
85.233
20
10.34
30
0
0
VERTEX
8
RASTER
10
85.068
20
10.66
30
0
0
VERTEX
8
RASTER
10
85.068
20
11.241
30
0
0
VERTEX
8
RASTER
10
85.359
20
12.114
30
0
0
VERTEX
8
RASTER
10
87.201
20
15.797
30
0
0
VERTEX
8
RASTER
10
86.59
20
16.059
30
0
0
VERTEX
8
RASTER
10
86.522
20
16.572
30
0
0
VERTEX
8
RASTER
10
86.939
20
17.125
30
0
0
VERTEX
8
RASTER
10
87.133
20
17.222
30
0
0
VERTEX
8
RASTER
10
87.753
20
17.862
30
0
0
VERTEX
8
RASTER
10
88.296
20
18.191
30
0
0
VERTEX
8
RASTER
10
88.529
20
18.152
30
0
0
VERTEX
8
RASTER
10
90.952
20
23.096
30
0
0
VERTEX
8
RASTER
10
91.146
20
23.387
30
0
0
SEQEND
8
RASTER
0
POLYLINE
8
RASTER
66
1
70
1
0
VERTEX
8
RASTER
10
91.563
20
22.873
30
0
0
VERTEX
8
RASTER
10
91.437
20
22.805
30
0
0
VERTEX
8
RASTER
10
91.204
20
22.359
30
0
0
VERTEX
8
RASTER
10
90.303
20
20.353
30
0
0
VERTEX
8
RASTER
10
90.593
20
20.159
30
0
0
VERTEX
8
RASTER
10
90.981
20
20.159
30
0
0
VERTEX
8
RASTER
10
92.338
20
19.48
30
0
0
VERTEX
8
RASTER
10
92.823
20
19.383
30
0
0
VERTEX
8
RASTER
10
93.046
20
19.548
30
0
0
VERTEX
8
RASTER
10
93.957
20
21.448
30
0
0
VERTEX
8
RASTER
10
94.248
20
21.778
30
0
0
VERTEX
8
RASTER
10
94.083
20
22.001
30
0
0
VERTEX
8
RASTER
10
92.144
20
22.776
30
0
0
SEQEND
8
RASTER
0
POLYLINE
8
RASTER
66
1
70
1
0
VERTEX
8
RASTER
10
91.786
20
22.165
30
0
0
VERTEX
8
RASTER
10
92.27
20
22.127
30
0
0
VERTEX
8
RASTER
10
92.561
20
21.933
30
0
0
VERTEX
8
RASTER
10
92.658
20
21.642
30
0
0
VERTEX
8
RASTER
10
92.794
20
21.545
30
0
0
VERTEX
8
RASTER
10
92.464
20
21.584
30
0
0
VERTEX
8
RASTER
10
91.98
20
21.099
30
0
0
VERTEX
8
RASTER
10
91.563
20
21.031
30
0
0
VERTEX
8
RASTER
10
91.369
20
20.837
30
0
0
VERTEX
8
RASTER
10
91.272
20
20.934
30
0
0
VERTEX
8
RASTER
10
91.466
20
21.322
30
0
0
VERTEX
8
RASTER
10
91.369
20
21.516
30
0
0
SEQEND
8
RASTER
0
POLYLINE
8
RASTER
66
1
70
1
0
VERTEX
8
RASTER
10
95.246
20
21.419
30
0
0
VERTEX
8
RASTER
10
94.955
20
21.128
30
0
0
VERTEX
8
RASTER
10
94.955
20
20.934
30
0
0
VERTEX
8
RASTER
10
93.986
20
18.802
30
0
0
VERTEX
8
RASTER
10
94.083
20
18.705
30
0
0
VERTEX
8
RASTER
10
94.374
20
18.705
30
0
0
VERTEX
8
RASTER
10
95.343
20
18.414
30
0
0
VERTEX
8
RASTER
10
96.215
20
17.929
30
0
0
VERTEX
8
RASTER
10
96.603
20
17.833
30
0
0
VERTEX
8
RASTER
10
96.894
20
18.123
30
0
0
VERTEX
8
RASTER
10
97.185
20
18.996
30
0
0
VERTEX
8
RASTER
10
97.156
20
19.412
30
0
0
VERTEX
8
RASTER
10
97.349
20
19.412
30
0
0
VERTEX
8
RASTER
10
97.408
20
19.936
30
0
0
VERTEX
8
RASTER
10
97.698
20
20.033
30
0
0
VERTEX
8
RASTER
10
97.863
20
20.353
30
0
0
VERTEX
8
RASTER
10
96.506
20
21.031
30
0
0
SEQEND
8
RASTER
0
POLYLINE
8
RASTER
66
1
70
1
0
VERTEX
8
RASTER
10
89.818
20
19.286
30
0
0
VERTEX
8
RASTER
10
89.527
20
18.996
30
0
0
VERTEX
8
RASTER
10
88.946
20
17.639
30
0
0
VERTEX
8
RASTER
10
88.946
20
17.348
30
0
0
VERTEX
8
RASTER
10
89.072
20
17.183
30
0
0
VERTEX
8
RASTER
10
89.207
20
17.222
30
0
0
VERTEX
8
RASTER
10
90.012
20
16.863
30
0
0
VERTEX
8
RASTER
10
90.274
20
16.892
30
0
0
VERTEX
8
RASTER
10
90.4
20
17.154
30
0
0
VERTEX
8
RASTER
10
90.496
20
17.057
30
0
0
VERTEX
8
RASTER
10
90.564
20
16.64
30
0
0
VERTEX
8
RASTER
10
90.758
20
16.446
30
0
0
VERTEX
8
RASTER
10
90.981
20
16.379
30
0
0
VERTEX
8
RASTER
10
91.243
20
16.602
30
0
0
VERTEX
8
RASTER
10
91.301
20
17.028
30
0
0
VERTEX
8
RASTER
10
91.592
20
17.222
30
0
0
VERTEX
8
RASTER
10
91.689
20
17.513
30
0
0
VERTEX
8
RASTER
10
92.115
20
17.668
30
0
0
VERTEX
8
RASTER
10
92.503
20
18.094
30
0
0
VERTEX
8
RASTER
10
92.367
20
18.249
30
0
0
VERTEX
8
RASTER
10
91.854
20
18.511
30
0
0
SEQEND
8
RASTER
0
POLYLINE
8
RASTER
66
1
70
1
0
VERTEX
8
RASTER
10
88.335
20
17.803
30
0
0
VERTEX
8
RASTER
10
88.044
20
17.668
30
0
0
VERTEX
8
RASTER
10
86.978
20
16.602
30
0
0
VERTEX
8
RASTER
10
86.939
20
16.408
30
0
0
VERTEX
8
RASTER
10
87.85
20
16.059
30
0
0
VERTEX
8
RASTER
10
88.044
20
15.671
30
0
0
VERTEX
8
RASTER
10
88.267
20
15.506
30
0
0
VERTEX
8
RASTER
10
89.043
20
15.506
30
0
0
VERTEX
8
RASTER
10
89.527
20
15.409
30
0
0
VERTEX
8
RASTER
10
90.041
20
15.148
30
0
0
VERTEX
8
RASTER
10
90.303
20
14.634
30
0
0
VERTEX
8
RASTER
10
90.593
20
13.374
30
0
0
VERTEX
8
RASTER
10
90.952
20
12.666
30
0
0
VERTEX
8
RASTER
10
91.369
20
12.598
30
0
0
VERTEX
8
RASTER
10
92.144
20
12.792
30
0
0
VERTEX
8
RASTER
10
93.404
20
12.792
30
0
0
VERTEX
8
RASTER
10
93.889
20
12.598
30
0
0
VERTEX
8
RASTER
10
94.112
20
12.763
30
0
0
VERTEX
8
RASTER
10
94.538
20
13.403
30
0
0
VERTEX
8
RASTER
10
94.277
20
13.568
30
0
0
VERTEX
8
RASTER
10
92.047
20
13.471
30
0
0
VERTEX
8
RASTER
10
91.727
20
13.635
30
0
0
VERTEX
8
RASTER
10
90.526
20
15.923
30
0
0
VERTEX
8
RASTER
10
88.917
20
16.834
30
0
0
VERTEX
8
RASTER
10
88.626
20
17.125
30
0
0
SEQEND
8
RASTER
0
POLYLINE
8
RASTER
66
1
70
1
0
VERTEX
8
RASTER
10
93.598
20
17.542
30
0
0
VERTEX
8
RASTER
10
93.375
20
17.377
30
0
0
VERTEX
8
RASTER
10
93.211
20
17.057
30
0
0
VERTEX
8
RASTER
10
92.367
20
15.051
30
0
0
VERTEX
8
RASTER
10
92.92
20
14.731
30
0
0
VERTEX
8
RASTER
10
94.858
20
13.955
30
0
0
VERTEX
8
RASTER
10
95.052
20
14.246
30
0
0
VERTEX
8
RASTER
10
95.052
20
14.537
30
0
0
VERTEX
8
RASTER
10
95.246
20
15.022
30
0
0
VERTEX
8
RASTER
10
95.178
20
15.438
30
0
0
VERTEX
8
RASTER
10
94.858
20
15.7
30
0
0
VERTEX
8
RASTER
10
94.926
20
15.962
30
0
0
VERTEX
8
RASTER
10
94.597
20
15.962
30
0
0
VERTEX
8
RASTER
10
94.471
20
15.7
30
0
0
VERTEX
8
RASTER
10
94.277
20
15.991
30
0
0
VERTEX
8
RASTER
10
94.151
20
15.632
30
0
0
VERTEX
8
RASTER
10
93.695
20
15.603
30
0
0
VERTEX
8
RASTER
10
93.501
20
15.7
30
0
0
VERTEX
8
RASTER
10
93.375
20
15.438
30
0
0
VERTEX
8
RASTER
10
93.211
20
15.409
30
0
0
VERTEX
8
RASTER
10
93.017
20
15.603
30
0
0
VERTEX
8
RASTER
10
93.24
20
16.349
30
0
0
VERTEX
8
RASTER
10
93.792
20
16.96
30
0
0
VERTEX
8
RASTER
10
94.374
20
16.766
30
0
0
VERTEX
8
RASTER
10
94.664
20
16.572
30
0
0
VERTEX
8
RASTER
10
94.926
20
16.543
30
0
0
VERTEX
8
RASTER
10
94.984
20
16.214
30
0
0
VERTEX
8
RASTER
10
95.246
20
16.282
30
0
0
VERTEX
8
RASTER
10
95.44
20
16.088
30
0
0
VERTEX
8
RASTER
10
95.954
20
16.156
30
0
0
VERTEX
8
RASTER
10
96.118
20
16.475
30
0
0
VERTEX
8
RASTER
10
95.634
20
16.766
30
0
0
VERTEX
8
RASTER
10
95.343
20
16.766
30
0
0
VERTEX
8
RASTER
10
95.052
20
16.96
30
0
0
SEQEND
8
RASTER
0
POLYLINE
8
RASTER
66
1
70
1
0
VERTEX
8
RASTER
10
102.807
20
16.766
30
0
0
VERTEX
8
RASTER
10
102.681
20
16.698
30
0
0
VERTEX
8
RASTER
10
102.419
20
16.088
30
0
0
VERTEX
8
RASTER
10
102.778
20
15.768
30
0
0
VERTEX
8
RASTER
10
103.001
20
15.7
30
0
0
VERTEX
8
RASTER
10
103.194
20
15.991
30
0
0
VERTEX
8
RASTER
10
103.291
20
16.379
30
0
0
VERTEX
8
RASTER
10
103.127
20
16.602
30
0
0
SEQEND
8
RASTER
0
POLYLINE
8
RASTER
66
1
70
1
0
VERTEX
8
RASTER
10
100.19
20
16.088
30
0
0
VERTEX
8
RASTER
10
99.996
20
15.991
30
0
0
VERTEX
8
RASTER
10
99.511
20
15.991
30
0
0
VERTEX
8
RASTER
10
98.542
20
15.7
30
0
0
VERTEX
8
RASTER
10
96.283
20
14.372
30
0
0
VERTEX
8
RASTER
10
95.217
20
13.403
30
0
0
VERTEX
8
RASTER
10
94.248
20
12.046
30
0
0
VERTEX
8
RASTER
10
93.404
20
10.272
30
0
0
VERTEX
8
RASTER
10
93.404
20
9.981
30
0
0
VERTEX
8
RASTER
10
93.211
20
9.496
30
0
0
VERTEX
8
RASTER
10
93.211
20
9.109
30
0
0
VERTEX
8
RASTER
10
93.017
20
8.43
30
0
0
VERTEX
8
RASTER
10
93.114
20
5.619
30
0
0
VERTEX
8
RASTER
10
93.375
20
5.009
30
0
0
VERTEX
8
RASTER
10
93.918
20
4.873
30
0
0
VERTEX
8
RASTER
10
95.149
20
4.941
30
0
0
VERTEX
8
RASTER
10
95.925
20
5.135
30
0
0
VERTEX
8
RASTER
10
96.894
20
5.135
30
0
0
VERTEX
8
RASTER
10
97.282
20
5.328
30
0
0
VERTEX
8
RASTER
10
97.572
20
5.328
30
0
0
VERTEX
8
RASTER
10
97.863
20
5.522
30
0
0
VERTEX
8
RASTER
10
98.057
20
5.522
30
0
0
VERTEX
8
RASTER
10
98.571
20
5.881
30
0
0
VERTEX
8
RASTER
10
98.668
20
6.075
30
0
0
VERTEX
8
RASTER
10
98.959
20
6.172
30
0
0
VERTEX
8
RASTER
10
99.094
20
6.424
30
0
0
VERTEX
8
RASTER
10
99.734
20
6.753
30
0
0
VERTEX
8
RASTER
10
100.257
20
7.199
30
0
0
VERTEX
8
RASTER
10
100.451
20
7.238
30
0
0
VERTEX
8
RASTER
10
100.286
20
6.976
30
0
0
VERTEX
8
RASTER
10
100.412
20
6.947
30
0
0
VERTEX
8
RASTER
10
101.285
20
7.82
30
0
0
VERTEX
8
RASTER
10
101.77
20
8.498
30
0
0
VERTEX
8
RASTER
10
102.031
20
9.4
30
0
0
VERTEX
8
RASTER
10
102.642
20
10.243
30
0
0
VERTEX
8
RASTER
10
102.807
20
10.66
30
0
0
VERTEX
8
RASTER
10
102.904
20
11.338
30
0
0
VERTEX
8
RASTER
10
103.291
20
12.598
30
0
0
VERTEX
8
RASTER
10
103.291
20
13.761
30
0
0
VERTEX
8
RASTER
10
103.03
20
14.566
30
0
0
VERTEX
8
RASTER
10
102.739
20
15.148
30
0
0
VERTEX
8
RASTER
10
102.448
20
15.438
30
0
0
VERTEX
8
RASTER
10
102.06
20
15.729
30
0
0
VERTEX
8
RASTER
10
101.159
20
16.088
30
0
0
VERTEX
8
RASTER
10
100.354
20
16.02
30
0
0
SEQEND
8
RASTER
0
POLYLINE
8
RASTER
66
1
70
1
0
VERTEX
8
RASTER
10
98.959
20
14.799
30
0
0
VERTEX
8
RASTER
10
99.191
20
14.76
30
0
0
VERTEX
8
RASTER
10
97.505
20
13.635
30
0
0
VERTEX
8
RASTER
10
97.408
20
13.442
30
0
0
VERTEX
8
RASTER
10
96.341
20
12.433
30
0
0
VERTEX
8
RASTER
10
96.312
20
12.598
30
0
0
VERTEX
8
RASTER
10
96.671
20
13.112
30
0
0
VERTEX
8
RASTER
10
97.253
20
13.5
30
0
0
VERTEX
8
RASTER
10
97.931
20
14.178
30
0
0
VERTEX
8
RASTER
10
98.9
20
14.663
30
0
0
SEQEND
8
RASTER
0
POLYLINE
8
RASTER
66
1
70
1
0
VERTEX
8
RASTER
10
100.703
20
12.666
30
0
0
VERTEX
8
RASTER
10
100.771
20
12.598
30
0
0
VERTEX
8
RASTER
10
100.509
20
12.181
30
0
0
VERTEX
8
RASTER
10
100.219
20
11.949
30
0
0
VERTEX
8
RASTER
10
100.257
20
12.143
30
0
0
SEQEND
8
RASTER
0
POLYLINE
8
RASTER
66
1
70
1
0
VERTEX
8
RASTER
10
102.545
20
12.666
30
0
0
VERTEX
8
RASTER
10
102.71
20
12.598
30
0
0
VERTEX
8
RASTER
10
102.516
20
12.114
30
0
0
VERTEX
8
RASTER
10
102.516
20
11.726
30
0
0
VERTEX
8
RASTER
10
102.06
20
10.631
30
0
0
VERTEX
8
RASTER
10
101.13
20
9.332
30
0
0
VERTEX
8
RASTER
10
100.606
20
8.847
30
0
0
VERTEX
8
RASTER
10
100.645
20
9.138
30
0
0
VERTEX
8
RASTER
10
101.188
20
9.855
30
0
0
VERTEX
8
RASTER
10
101.673
20
10.728
30
0
0
SEQEND
8
RASTER
0
POLYLINE
8
RASTER
66
1
70
1
0
VERTEX
8
RASTER
10
94.984
20
10.631
30
0
0
VERTEX
8
RASTER
10
94.112
20
8.75
30
0
0
VERTEX
8
RASTER
10
94.083
20
8.915
30
0
0
VERTEX
8
RASTER
10
94.277
20
9.496
30
0
0
VERTEX
8
RASTER
10
94.635
20
10.204
30
0
0
SEQEND
8
RASTER
0
POLYLINE
8
RASTER
66
1
70
1
0
VERTEX
8
RASTER
10
97.601
20
8.983
30
0
0
VERTEX
8
RASTER
10
97.669
20
8.915
30
0
0
VERTEX
8
RASTER
10
97.601
20
8.789
30
0
0
VERTEX
8
RASTER
10
97.311
20
8.401
30
0
0
VERTEX
8
RASTER
10
96.768
20
7.975
30
0
0
VERTEX
8
RASTER
10
96.632
20
7.723
30
0
0
VERTEX
8
RASTER
10
96.38
20
7.587
30
0
0
VERTEX
8
RASTER
10
95.76
20
6.947
30
0
0
VERTEX
8
RASTER
10
95.081
20
6.618
30
0
0
VERTEX
8
RASTER
10
95.217
20
6.908
30
0
0
VERTEX
8
RASTER
10
95.508
20
7.199
30
0
0
VERTEX
8
RASTER
10
95.76
20
7.335
30
0
0
VERTEX
8
RASTER
10
96.38
20
7.975
30
0
0
VERTEX
8
RASTER
10
96.632
20
8.11
30
0
0
VERTEX
8
RASTER
10
97.253
20
8.75
30
0
0
SEQEND
8
RASTER
0
POLYLINE
8
RASTER
66
1
70
1
0
VERTEX
8
RASTER
10
99.831
20
8.11
30
0
0
VERTEX
8
RASTER
10
99.899
20
8.043
30
0
0
VERTEX
8
RASTER
10
99.831
20
7.917
30
0
0
VERTEX
8
RASTER
10
99.54
20
7.529
30
0
0
VERTEX
8
RASTER
10
98.474
20
6.56
30
0
0
VERTEX
8
RASTER
10
96.797
20
5.716
30
0
0
VERTEX
8
RASTER
10
95.828
20
5.425
30
0
0
VERTEX
8
RASTER
10
95.663
20
5.454
30
0
0
VERTEX
8
RASTER
10
95.663
20
5.59
30
0
0
VERTEX
8
RASTER
10
96.089
20
5.842
30
0
0
VERTEX
8
RASTER
10
97.795
20
6.656
30
0
0
SEQEND
8
RASTER
0
POLYLINE
8
CUT
66
1
70
1
0
VERTEX
8
CUT
10
115.924
20
24.007
30
0
0
VERTEX
8
CUT
10
116.82
20
23.987
30
0
0
VERTEX
8
CUT
10
117.537
20
23.708
30
0
0
VERTEX
8
CUT
10
119.261
20
21.347
30
0
0
VERTEX
8
CUT
10
119.589
20
21.178
30
0
0
VERTEX
8
CUT
10
121.074
20
21.248
30
0
0
VERTEX
8
CUT
10
123.464
20
22.742
30
0
0
VERTEX
8
CUT
10
124.968
20
22.772
30
0
0
VERTEX
8
CUT
10
126.034
20
21.746
30
0
0
VERTEX
8
CUT
10
126.801
20
21.517
30
0
0
VERTEX
8
CUT
10
127.08
20
21.198
30
0
0
VERTEX
8
CUT
10
127.379
20
20.501
30
0
0
VERTEX
8
CUT
10
127.479
20
19.006
30
0
0
VERTEX
8
CUT
10
128.525
20
18.16
30
0
0
VERTEX
8
CUT
10
128.465
20
15.948
30
0
0
VERTEX
8
CUT
10
127.837
20
15.58
30
0
0
VERTEX
8
CUT
10
125.287
20
12.552
30
0
0
VERTEX
8
CUT
10
124.709
20
10.739
30
0
0
VERTEX
8
CUT
10
123.584
20
9.673
30
0
0
VERTEX
8
CUT
10
122.478
20
9.384
30
0
0
VERTEX
8
CUT
10
119.549
20
6.136
30
0
0
VERTEX
8
CUT
10
118.633
20
5.658
30
0
0
VERTEX
8
CUT
10
117.378
20
5.619
30
0
0
VERTEX
8
CUT
10
115.694
20
6.027
30
0
0
VERTEX
8
CUT
10
114.808
20
6.635
30
0
0
VERTEX
8
CUT
10
113.991
20
8.009
30
0
0
VERTEX
8
CUT
10
111.64
20
8.149
30
0
0
VERTEX
8
CUT
10
110.903
20
8.408
30
0
0
VERTEX
8
CUT
10
109.927
20
9.025
30
0
0
VERTEX
8
CUT
10
108.522
20
10.509
30
0
0
VERTEX
8
CUT
10
108.622
20
13.179
30
0
0
VERTEX
8
CUT
10
114.409
20
17.154
30
0
0
VERTEX
8
CUT
10
114.409
20
18.289
30
0
0
VERTEX
8
CUT
10
113.134
20
20.401
30
0
0
VERTEX
8
CUT
10
113.134
20
21.816
30
0
0
VERTEX
8
CUT
10
114.121
20
23.12
30
0
0
SEQEND
8
CUT
0
POLYLINE
8
RASTER
66
1
70
1
0
VERTEX
8
RASTER
10
116.013
20
23.718
30
0
0
VERTEX
8
RASTER
10
116.681
20
23.748
30
0
0
VERTEX
8
RASTER
10
117.408
20
23.379
30
0
0
VERTEX
8
RASTER
10
119.798
20
19.993
30
0
0
VERTEX
8
RASTER
10
122.926
20
22.084
30
0
0
VERTEX
8
RASTER
10
123.853
20
22.553
30
0
0
VERTEX
8
RASTER
10
124.65
20
22.553
30
0
0
VERTEX
8
RASTER
10
125.178
20
22.284
30
0
0
VERTEX
8
RASTER
10
125.377
20
22.084
30
0
0
VERTEX
8
RASTER
10
125.715
20
21.427
30
0
0
VERTEX
8
RASTER
10
126.343
20
21.357
30
0
0
VERTEX
8
RASTER
10
126.771
20
21.088
30
0
0
VERTEX
8
RASTER
10
127.14
20
20.361
30
0
0
VERTEX
8
RASTER
10
127.14
20
19.465
30
0
0
VERTEX
8
RASTER
10
126.971
20
19.036
30
0
0
VERTEX
8
RASTER
10
126.771
20
18.797
30
0
0
VERTEX
8
RASTER
10
127.469
20
18.498
30
0
0
VERTEX
8
RASTER
10
127.767
20
18.2
30
0
0
VERTEX
8
RASTER
10
128.136
20
17.273
30
0
0
VERTEX
8
RASTER
10
128.036
20
16.576
30
0
0
VERTEX
8
RASTER
10
127.568
20
15.749
30
0
0
VERTEX
8
RASTER
10
124.919
20
12.621
30
0
0
VERTEX
8
RASTER
10
124.849
20
11.894
30
0
0
VERTEX
8
RASTER
10
124.65
20
11.296
30
0
0
VERTEX
8
RASTER
10
124.381
20
10.868
30
0
0
VERTEX
8
RASTER
10
123.683
20
10.27
30
0
0
VERTEX
8
RASTER
10
122.329
20
9.733
30
0
0
VERTEX
8
RASTER
10
121.89
20
9.175
30
0
0
VERTEX
8
RASTER
10
121.333
20
8.637
30
0
0
VERTEX
8
RASTER
10
121.193
20
8.378
30
0
0
VERTEX
8
RASTER
10
120.436
20
7.641
30
0
0
VERTEX
8
RASTER
10
120.297
20
7.382
30
0
0
VERTEX
8
RASTER
10
119.201
20
6.286
30
0
0
VERTEX
8
RASTER
10
118.474
20
5.917
30
0
0
VERTEX
8
RASTER
10
117.079
20
5.917
30
0
0
VERTEX
8
RASTER
10
116.083
20
6.216
30
0
0
VERTEX
8
RASTER
10
115.256
20
6.684
30
0
0
VERTEX
8
RASTER
10
114.858
20
7.083
30
0
0
VERTEX
8
RASTER
10
114.489
20
7.71
30
0
0
VERTEX
8
RASTER
10
114.39
20
8.009
30
0
0
VERTEX
8
RASTER
10
114.36
20
9.175
30
0
0
VERTEX
8
RASTER
10
113.294
20
8.507
30
0
0
VERTEX
8
RASTER
10
112.596
20
8.308
30
0
0
VERTEX
8
RASTER
10
111.8
20
8.408
30
0
0
VERTEX
8
RASTER
10
110.674
20
8.876
30
0
0
VERTEX
8
RASTER
10
110.076
20
9.374
30
0
0
VERTEX
8
RASTER
10
109.578
20
9.972
30
0
0
VERTEX
8
RASTER
10
109.11
20
10.998
30
0
0
VERTEX
8
RASTER
10
109.11
20
11.496
30
0
0
VERTEX
8
RASTER
10
109.01
20
11.695
30
0
0
VERTEX
8
RASTER
10
109.21
20
12.791
30
0
0
VERTEX
8
RASTER
10
109.678
20
13.617
30
0
0
VERTEX
8
RASTER
10
115.455
20
17.303
30
0
0
VERTEX
8
RASTER
10
114.32
20
19.096
30
0
0
VERTEX
8
RASTER
10
113.762
20
19.833
30
0
0
VERTEX
8
RASTER
10
113.393
20
20.56
30
0
0
VERTEX
8
RASTER
10
113.294
20
21.258
30
0
0
VERTEX
8
RASTER
10
113.463
20
21.786
30
0
0
VERTEX
8
RASTER
10
113.862
20
22.383
30
0
0
VERTEX
8
RASTER
10
114.39
20
22.652
30
0
0
VERTEX
8
RASTER
10
114.957
20
22.682
30
0
0
VERTEX
8
RASTER
10
115.356
20
23.379
30
0
0
SEQEND
8
RASTER
0
POLYLINE
8
RASTER
66
1
70
1
0
VERTEX
8
RASTER
10
116.183
20
23.25
30
0
0
VERTEX
8
RASTER
10
115.655
20
22.981
30
0
0
VERTEX
8
RASTER
10
115.485
20
22.652
30
0
0
VERTEX
8
RASTER
10
115.555
20
22.224
30
0
0
VERTEX
8
RASTER
10
116.412
20
21.088
30
0
0
VERTEX
8
RASTER
10
117.846
20
18.937
30
0
0
VERTEX
8
RASTER
10
119.3
20
17.004
30
0
0
VERTEX
8
RASTER
10
120.137
20
15.65
30
0
0
VERTEX
8
RASTER
10
120.994
20
14.514
30
0
0
VERTEX
8
RASTER
10
121.731
20
13.358
30
0
0
VERTEX
8
RASTER
10
121.831
20
13.319
30
0
0
VERTEX
8
RASTER
10
122.229
20
13.916
30
0
0
VERTEX
8
RASTER
10
122.857
20
14.185
30
0
0
VERTEX
8
RASTER
10
123.424
20
14.215
30
0
0
VERTEX
8
RASTER
10
120.834
20
17.642
30
0
0
VERTEX
8
RASTER
10
117.209
20
22.881
30
0
0
VERTEX
8
RASTER
10
116.681
20
23.25
30
0
0
SEQEND
8
RASTER
0
POLYLINE
8
RASTER
66
1
70
1
0
VERTEX
8
RASTER
10
114.39
20
22.154
30
0
0
VERTEX
8
RASTER
10
114.061
20
21.985
30
0
0
VERTEX
8
RASTER
10
113.792
20
21.457
30
0
0
VERTEX
8
RASTER
10
113.792
20
20.859
30
0
0
VERTEX
8
RASTER
10
113.961
20
20.531
30
0
0
VERTEX
8
RASTER
10
117.507
20
15.311
30
0
0
VERTEX
8
RASTER
10
119.34
20
12.322
30
0
0
VERTEX
8
RASTER
10
119.739
20
13.02
30
0
0
VERTEX
8
RASTER
10
120.038
20
13.319
30
0
0
VERTEX
8
RASTER
10
121.034
20
13.717
30
0
0
VERTEX
8
RASTER
10
120.994
20
13.817
30
0
0
VERTEX
8
RASTER
10
118.842
20
16.646
30
0
0
VERTEX
8
RASTER
10
115.854
20
20.929
30
0
0
VERTEX
8
RASTER
10
115.714
20
20.889
30
0
0
VERTEX
8
RASTER
10
115.714
20
21.029
30
0
0
VERTEX
8
RASTER
10
115.515
20
20.79
30
0
0
VERTEX
8
RASTER
10
115.655
20
21.128
30
0
0
VERTEX
8
RASTER
10
115.455
20
20.989
30
0
0
VERTEX
8
RASTER
10
115.356
20
21.029
30
0
0
VERTEX
8
RASTER
10
114.758
20
21.726
30
0
0
VERTEX
8
RASTER
10
114.688
20
21.855
30
0
0
VERTEX
8
RASTER
10
114.788
20
21.955
30
0
0
VERTEX
8
RASTER
10
115.216
20
21.686
30
0
0
VERTEX
8
RASTER
10
115.216
20
21.786
30
0
0
VERTEX
8
RASTER
10
114.589
20
22.154
30
0
0
SEQEND
8
RASTER
0
POLYLINE
8
RASTER
66
1
70
1
0
VERTEX
8
RASTER
10
124.251
20
22.154
30
0
0
VERTEX
8
RASTER
10
123.853
20
22.055
30
0
0
VERTEX
8
RASTER
10
123.026
20
21.586
30
0
0
VERTEX
8
RASTER
10
120.237
20
19.694
30
0
0
VERTEX
8
RASTER
10
120.167
20
19.465
30
0
0
VERTEX
8
RASTER
10
120.436
20
19.036
30
0
0
VERTEX
8
RASTER
10
120.735
20
18.797
30
0
0
VERTEX
8
RASTER
10
121.532
20
19.395
30
0
0
VERTEX
8
RASTER
10
123.225
20
20.391
30
0
0
VERTEX
8
RASTER
10
123.355
20
20.461
30
0
0
VERTEX
8
RASTER
10
123.524
20
20.391
30
0
0
VERTEX
8
RASTER
10
123.624
20
20.531
30
0
0
VERTEX
8
RASTER
10
123.753
20
20.162
30
0
0
VERTEX
8
RASTER
10
124.978
20
20.929
30
0
0
VERTEX
8
RASTER
10
125.217
20
21.188
30
0
0
VERTEX
8
RASTER
10
125.078
20
21.586
30
0
0
VERTEX
8
RASTER
10
124.879
20
21.885
30
0
0
SEQEND
8
RASTER
0
POLYLINE
8
RASTER
66
1
70
1
0
VERTEX
8
RASTER
10
125.945
20
20.859
30
0
0
VERTEX
8
RASTER
10
125.018
20
20.391
30
0
0
VERTEX
8
RASTER
10
121.392
20
17.941
30
0
0
VERTEX
8
RASTER
10
121.432
20
17.642
30
0
0
VERTEX
8
RASTER
10
122.428
20
16.347
30
0
0
VERTEX
8
RASTER
10
122.588
20
16.347
30
0
0
VERTEX
8
RASTER
10
123.783
20
17.243
30
0
0
VERTEX
8
RASTER
10
123.853
20
17.373
30
0
0
VERTEX
8
RASTER
10
123.783
20
17.443
30
0
0
VERTEX
8
RASTER
10
123.385
20
17.104
30
0
0
VERTEX
8
RASTER
10
123.524
20
17.443
30
0
0
VERTEX
8
RASTER
10
123.285
20
17.303
30
0
0
VERTEX
8
RASTER
10
123.325
20
17.542
30
0
0
VERTEX
8
RASTER
10
122.886
20
17.502
30
0
0
VERTEX
8
RASTER
10
123.026
20
17.801
30
0
0
VERTEX
8
RASTER
10
123.424
20
18.1
30
0
0
VERTEX
8
RASTER
10
124.779
20
18.937
30
0
0
VERTEX
8
RASTER
10
124.879
20
18.897
30
0
0
VERTEX
8
RASTER
10
124.948
20
18.668
30
0
0
VERTEX
8
RASTER
10
125.317
20
18.737
30
0
0
VERTEX
8
RASTER
10
125.247
20
18.469
30
0
0
VERTEX
8
RASTER
10
125.317
20
18.399
30
0
0
VERTEX
8
RASTER
10
126.512
20
19.196
30
0
0
VERTEX
8
RASTER
10
126.642
20
19.465
30
0
0
VERTEX
8
RASTER
10
126.642
20
20.262
30
0
0
VERTEX
8
RASTER
10
126.373
20
20.79
30
0
0
SEQEND
8
RASTER
0
POLYLINE
8
RASTER
66
1
70
1
0
VERTEX
8
RASTER
10
126.542
20
18.269
30
0
0
VERTEX
8
RASTER
10
123.454
20
15.082
30
0
0
VERTEX
8
RASTER
10
123.823
20
14.454
30
0
0
VERTEX
8
RASTER
10
124.749
20
13.289
30
0
0
VERTEX
8
RASTER
10
125.078
20
13.558
30
0
0
VERTEX
8
RASTER
10
125.217
20
13.817
30
0
0
VERTEX
8
RASTER
10
125.676
20
14.255
30
0
0
VERTEX
8
RASTER
10
125.815
20
14.514
30
0
0
VERTEX
8
RASTER
10
126.841
20
15.679
30
0
0
VERTEX
8
RASTER
10
126.771
20
15.749
30
0
0
VERTEX
8
RASTER
10
126.672
20
15.55
30
0
0
VERTEX
8
RASTER
10
126.014
20
14.912
30
0
0
VERTEX
8
RASTER
10
125.775
20
14.912
30
0
0
VERTEX
8
RASTER
10
126.014
20
15.251
30
0
0
VERTEX
8
RASTER
10
125.676
20
15.112
30
0
0
VERTEX
8
RASTER
10
125.715
20
15.351
30
0
0
VERTEX
8
RASTER
10
125.476
20
15.311
30
0
0
VERTEX
8
RASTER
10
125.676
20
15.65
30
0
0
VERTEX
8
RASTER
10
126.473
20
16.446
30
0
0
VERTEX
8
RASTER
10
126.572
20
16.207
30
0
0
VERTEX
8
RASTER
10
126.672
20
16.347
30
0
0
VERTEX
8
RASTER
10
126.771
20
16.207
30
0
0
VERTEX
8
RASTER
10
127.11
20
16.247
30
0
0
VERTEX
8
RASTER
10
126.941
20
15.978
30
0
0
VERTEX
8
RASTER
10
127.07
20
15.948
30
0
0
VERTEX
8
RASTER
10
127.538
20
16.676
30
0
0
VERTEX
8
RASTER
10
127.638
20
17.174
30
0
0
VERTEX
8
RASTER
10
127.369
20
17.901
30
0
0
VERTEX
8
RASTER
10
126.941
20
18.269
30
0
0
SEQEND
8
RASTER
0
POLYLINE
8
RASTER
66
1
70
1
0
VERTEX
8
RASTER
10
115.087
20
16.476
30
0
0
VERTEX
8
RASTER
10
112.567
20
14.912
30
0
0
VERTEX
8
RASTER
10
111.371
20
14.115
30
0
0
VERTEX
8
RASTER
10
111.331
20
14.016
30
0
0
VERTEX
8
RASTER
10
112.029
20
13.717
30
0
0
VERTEX
8
RASTER
10
112.567
20
13.159
30
0
0
VERTEX
8
RASTER
10
112.726
20
13.159
30
0
0
VERTEX
8
RASTER
10
115.714
20
15.351
30
0
0
VERTEX
8
RASTER
10
115.784
20
15.58
30
0
0
VERTEX
8
RASTER
10
115.515
20
16.108
30
0
0
VERTEX
8
RASTER
10
115.316
20
16.407
30
0
0
SEQEND
8
RASTER
0
POLYLINE
8
RASTER
66
1
70
1
0
VERTEX
8
RASTER
10
122.956
20
15.879
30
0
0
VERTEX
8
RASTER
10
122.857
20
15.779
30
0
0
VERTEX
8
RASTER
10
122.926
20
15.65
30
0
0
VERTEX
8
RASTER
10
123.155
20
15.48
30
0
0
VERTEX
8
RASTER
10
123.524
20
15.809
30
0
0
VERTEX
8
RASTER
10
123.185
20
15.61
30
0
0
VERTEX
8
RASTER
10
122.986
20
15.709
30
0
0
SEQEND
8
RASTER
0
POLYLINE
8
RASTER
66
1
70
1
0
VERTEX
8
RASTER
10
116.551
20
14.454
30
0
0
VERTEX
8
RASTER
10
116.252
20
14.315
30
0
0
VERTEX
8
RASTER
10
113.294
20
12.193
30
0
0
VERTEX
8
RASTER
10
113.921
20
11.824
30
0
0
VERTEX
8
RASTER
10
114.32
20
11.326
30
0
0
VERTEX
8
RASTER
10
114.489
20
10.898
30
0
0
VERTEX
8
RASTER
10
114.519
20
10.131
30
0
0
VERTEX
8
RASTER
10
116.113
20
11.366
30
0
0
VERTEX
8
RASTER
10
117.149
20
12.322
30
0
0
VERTEX
8
RASTER
10
117.179
20
13.089
30
0
0
VERTEX
8
RASTER
10
117.079
20
13.588
30
0
0
VERTEX
8
RASTER
10
116.81
20
14.215
30
0
0
SEQEND
8
RASTER
0
POLYLINE
8
RASTER
66
1
70
1
0
VERTEX
8
RASTER
10
122.857
20
13.787
30
0
0
VERTEX
8
RASTER
10
122.528
20
13.617
30
0
0
VERTEX
8
RASTER
10
122.229
20
13.319
30
0
0
VERTEX
8
RASTER
10
122.159
20
12.691
30
0
0
VERTEX
8
RASTER
10
122.428
20
12.362
30
0
0
VERTEX
8
RASTER
10
122.857
20
12.293
30
0
0
VERTEX
8
RASTER
10
122.886
20
12.422
30
0
0
VERTEX
8
RASTER
10
122.558
20
12.791
30
0
0
VERTEX
8
RASTER
10
122.558
20
12.99
30
0
0
VERTEX
8
RASTER
10
122.727
20
13.219
30
0
0
VERTEX
8
RASTER
10
123.155
20
13.388
30
0
0
VERTEX
8
RASTER
10
123.683
20
13.119
30
0
0
VERTEX
8
RASTER
10
123.952
20
12.591
30
0
0
VERTEX
8
RASTER
10
123.952
20
12.093
30
0
0
VERTEX
8
RASTER
10
123.783
20
11.665
30
0
0
VERTEX
8
RASTER
10
123.484
20
11.267
30
0
0
VERTEX
8
RASTER
10
122.757
20
10.798
30
0
0
VERTEX
8
RASTER
10
122.06
20
10.599
30
0
0
VERTEX
8
RASTER
10
121.362
20
10.699
30
0
0
VERTEX
8
RASTER
10
120.735
20
10.968
30
0
0
VERTEX
8
RASTER
10
120.436
20
11.267
30
0
0
VERTEX
8
RASTER
10
120.167
20
11.894
30
0
0
VERTEX
8
RASTER
10
120.336
20
12.422
30
0
0
VERTEX
8
RASTER
10
120.665
20
12.691
30
0
0
VERTEX
8
RASTER
10
121.193
20
12.621
30
0
0
VERTEX
8
RASTER
10
121.263
20
12.193
30
0
0
VERTEX
8
RASTER
10
121.064
20
11.894
30
0
0
VERTEX
8
RASTER
10
121.163
20
11.794
30
0
0
VERTEX
8
RASTER
10
121.392
20
11.864
30
0
0
VERTEX
8
RASTER
10
121.661
20
12.193
30
0
0
VERTEX
8
RASTER
10
121.592
20
12.92
30
0
0
VERTEX
8
RASTER
10
121.233
20
13.259
30
0
0
VERTEX
8
RASTER
10
120.864
20
13.289
30
0
0
VERTEX
8
RASTER
10
120.137
20
12.92
30
0
0
VERTEX
8
RASTER
10
119.769
20
12.293
30
0
0
VERTEX
8
RASTER
10
119.769
20
11.595
30
0
0
VERTEX
8
RASTER
10
120.038
20
11.067
30
0
0
VERTEX
8
RASTER
10
120.336
20
10.768
30
0
0
VERTEX
8
RASTER
10
121.362
20
10.3
30
0
0
VERTEX
8
RASTER
10
122.359
20
10.3
30
0
0
VERTEX
8
RASTER
10
122.757
20
10.4
30
0
0
VERTEX
8
RASTER
10
123.683
20
10.868
30
0
0
VERTEX
8
RASTER
10
123.982
20
11.167
30
0
0
VERTEX
8
RASTER
10
124.351
20
11.894
30
0
0
VERTEX
8
RASTER
10
124.351
20
12.691
30
0
0
VERTEX
8
RASTER
10
124.082
20
13.219
30
0
0
VERTEX
8
RASTER
10
123.683
20
13.617
30
0
0
VERTEX
8
RASTER
10
123.355
20
13.787
30
0
0
SEQEND
8
RASTER
0
POLYLINE
8
RASTER
66
1
70
1
0
VERTEX
8
RASTER
10
111.003
20
13.687
30
0
0
VERTEX
8
RASTER
10
110.136
20
13.358
30
0
0
VERTEX
8
RASTER
10
109.877
20
13.119
30
0
0
VERTEX
8
RASTER
10
109.508
20
12.193
30
0
0
VERTEX
8
RASTER
10
109.508
20
11.396
30
0
0
VERTEX
8
RASTER
10
109.608
20
10.998
30
0
0
VERTEX
8
RASTER
10
110.076
20
10.071
30
0
0
VERTEX
8
RASTER
10
110.774
20
9.374
30
0
0
VERTEX
8
RASTER
10
111.501
20
9.005
30
0
0
VERTEX
8
RASTER
10
112.198
20
8.806
30
0
0
VERTEX
8
RASTER
10
113.095
20
8.906
30
0
0
VERTEX
8
RASTER
10
113.722
20
9.274
30
0
0
VERTEX
8
RASTER
10
114.091
20
10.001
30
0
0
VERTEX
8
RASTER
10
114.091
20
10.898
30
0
0
VERTEX
8
RASTER
10
113.921
20
11.326
30
0
0
VERTEX
8
RASTER
10
113.523
20
11.725
30
0
0
VERTEX
8
RASTER
10
112.696
20
11.794
30
0
0
VERTEX
8
RASTER
10
112.367
20
11.526
30
0
0
VERTEX
8
RASTER
10
112.198
20
11.197
30
0
0
VERTEX
8
RASTER
10
112.198
20
10.699
30
0
0
VERTEX
8
RASTER
10
112.328
20
10.43
30
0
0
VERTEX
8
RASTER
10
112.467
20
10.43
30
0
0
VERTEX
8
RASTER
10
112.666
20
11.027
30
0
0
VERTEX
8
RASTER
10
112.995
20
11.197
30
0
0
VERTEX
8
RASTER
10
113.423
20
10.928
30
0
0
VERTEX
8
RASTER
10
113.563
20
10.47
30
0
0
VERTEX
8
RASTER
10
113.324
20
9.772
30
0
0
VERTEX
8
RASTER
10
113.124
20
9.573
30
0
0
VERTEX
8
RASTER
10
112.497
20
9.304
30
0
0
VERTEX
8
RASTER
10
111.999
20
9.304
30
0
0
VERTEX
8
RASTER
10
111.172
20
9.673
30
0
0
VERTEX
8
RASTER
10
110.475
20
10.27
30
0
0
VERTEX
8
RASTER
10
110.106
20
10.898
30
0
0
VERTEX
8
RASTER
10
109.907
20
11.496
30
0
0
VERTEX
8
RASTER
10
109.907
20
11.894
30
0
0
VERTEX
8
RASTER
10
110.176
20
12.621
30
0
0
VERTEX
8
RASTER
10
110.475
20
12.92
30
0
0
VERTEX
8
RASTER
10
110.803
20
13.089
30
0
0
VERTEX
8
RASTER
10
111.302
20
13.089
30
0
0
VERTEX
8
RASTER
10
111.63
20
12.92
30
0
0
VERTEX
8
RASTER
10
111.8
20
12.591
30
0
0
VERTEX
8
RASTER
10
111.8
20
12.193
30
0
0
VERTEX
8
RASTER
10
111.67
20
11.924
30
0
0
VERTEX
8
RASTER
10
111.232
20
11.765
30
0
0
VERTEX
8
RASTER
10
111.272
20
11.565
30
0
0
VERTEX
8
RASTER
10
111.401
20
11.496
30
0
0
VERTEX
8
RASTER
10
111.8
20
11.496
30
0
0
VERTEX
8
RASTER
10
112.168
20
11.725
30
0
0
VERTEX
8
RASTER
10
112.497
20
12.392
30
0
0
VERTEX
8
RASTER
10
112.497
20
12.591
30
0
0
VERTEX
8
RASTER
10
112.228
20
13.119
30
0
0
VERTEX
8
RASTER
10
112.029
20
13.319
30
0
0
VERTEX
8
RASTER
10
111.501
20
13.588
30
0
0
SEQEND
8
RASTER
0
POLYLINE
8
RASTER
66
1
70
1
0
VERTEX
8
RASTER
10
116.212
20
12.661
30
0
0
VERTEX
8
RASTER
10
116.352
20
12.661
30
0
0
VERTEX
8
RASTER
10
116.312
20
12.522
30
0
0
VERTEX
8
RASTER
10
116.511
20
12.322
30
0
0
VERTEX
8
RASTER
10
116.611
20
12.462
30
0
0
VERTEX
8
RASTER
10
116.75
20
12.462
30
0
0
VERTEX
8
RASTER
10
116.551
20
12.024
30
0
0
VERTEX
8
RASTER
10
116.382
20
12.093
30
0
0
VERTEX
8
RASTER
10
116.153
20
11.924
30
0
0
VERTEX
8
RASTER
10
115.914
20
11.924
30
0
0
VERTEX
8
RASTER
10
115.953
20
12.163
30
0
0
VERTEX
8
RASTER
10
115.754
20
12.024
30
0
0
VERTEX
8
RASTER
10
115.515
20
12.024
30
0
0
VERTEX
8
RASTER
10
115.754
20
12.322
30
0
0
SEQEND
8
RASTER
0
POLYLINE
8
RASTER
66
1
70
1
0
VERTEX
8
RASTER
10
117.846
20
12.163
30
0
0
VERTEX
8
RASTER
10
117.149
20
11.625
30
0
0
VERTEX
8
RASTER
10
116.511
20
10.968
30
0
0
VERTEX
8
RASTER
10
116.252
20
10.828
30
0
0
VERTEX
8
RASTER
10
115.914
20
10.43
30
0
0
VERTEX
8
RASTER
10
116.382
20
10.3
30
0
0
VERTEX
8
RASTER
10
116.95
20
9.932
30
0
0
VERTEX
8
RASTER
10
117.049
20
10.131
30
0
0
VERTEX
8
RASTER
10
118.045
20
11.127
30
0
0
VERTEX
8
RASTER
10
118.344
20
11.167
30
0
0
VERTEX
8
RASTER
10
118.444
20
11.027
30
0
0
VERTEX
8
RASTER
10
118.374
20
11.496
30
0
0
VERTEX
8
RASTER
10
118.205
20
11.824
30
0
0
SEQEND
8
RASTER
0
POLYLINE
8
RASTER
66
1
70
1
0
VERTEX
8
RASTER
10
118.942
20
10.868
30
0
0
VERTEX
8
RASTER
10
118.005
20
9.932
30
0
0
VERTEX
8
RASTER
10
119.002
20
9.533
30
0
0
VERTEX
8
RASTER
10
119.5
20
8.936
30
0
0
VERTEX
8
RASTER
10
119.669
20
8.408
30
0
0
VERTEX
8
RASTER
10
119.838
20
8.238
30
0
0
VERTEX
8
RASTER
10
119.968
20
9.404
30
0
0
VERTEX
8
RASTER
10
119.769
20
10.001
30
0
0
VERTEX
8
RASTER
10
119.5
20
10.43
30
0
0
SEQEND
8
RASTER
0
POLYLINE
8
RASTER
66
1
70
1
0
VERTEX
8
RASTER
10
115.585
20
10.001
30
0
0
VERTEX
8
RASTER
10
115.057
20
9.633
30
0
0
VERTEX
8
RASTER
10
114.788
20
9.105
30
0
0
VERTEX
8
RASTER
10
114.788
20
8.308
30
0
0
VERTEX
8
RASTER
10
115.057
20
7.68
30
0
0
VERTEX
8
RASTER
10
115.754
20
6.983
30
0
0
VERTEX
8
RASTER
10
116.78
20
6.515
30
0
0
VERTEX
8
RASTER
10
117.806
20
6.346
30
0
0
VERTEX
8
RASTER
10
118.374
20
6.415
30
0
0
VERTEX
8
RASTER
10
118.902
20
6.684
30
0
0
VERTEX
8
RASTER
10
119.101
20
6.884
30
0
0
VERTEX
8
RASTER
10
119.37
20
7.412
30
0
0
VERTEX
8
RASTER
10
119.37
20
8.408
30
0
0
VERTEX
8
RASTER
10
119.101
20
8.936
30
0
0
VERTEX
8
RASTER
10
118.802
20
9.234
30
0
0
VERTEX
8
RASTER
10
118.274
20
9.503
30
0
0
VERTEX
8
RASTER
10
117.776
20
9.503
30
0
0
VERTEX
8
RASTER
10
117.308
20
9.274
30
0
0
VERTEX
8
RASTER
10
117.079
20
8.806
30
0
0
VERTEX
8
RASTER
10
117.079
20
8.507
30
0
0
VERTEX
8
RASTER
10
117.348
20
8.079
30
0
0
VERTEX
8
RASTER
10
117.647
20
7.939
30
0
0
VERTEX
8
RASTER
10
117.746
20
8.079
30
0
0
VERTEX
8
RASTER
10
117.478
20
8.408
30
0
0
VERTEX
8
RASTER
10
117.547
20
8.736
30
0
0
VERTEX
8
RASTER
10
117.776
20
8.906
30
0
0
VERTEX
8
RASTER
10
118.304
20
8.836
30
0
0
VERTEX
8
RASTER
10
118.504
20
8.637
30
0
0
VERTEX
8
RASTER
10
118.772
20
8.009
30
0
0
VERTEX
8
RASTER
10
118.772
20
7.71
30
0
0
VERTEX
8
RASTER
10
118.444
20
7.143
30
0
0
VERTEX
8
RASTER
10
117.677
20
6.814
30
0
0
VERTEX
8
RASTER
10
116.979
20
6.814
30
0
0
VERTEX
8
RASTER
10
116.252
20
7.083
30
0
0
VERTEX
8
RASTER
10
115.655
20
7.481
30
0
0
VERTEX
8
RASTER
10
115.455
20
7.68
30
0
0
VERTEX
8
RASTER
10
115.186
20
8.208
30
0
0
VERTEX
8
RASTER
10
115.117
20
8.577
30
0
0
VERTEX
8
RASTER
10
115.256
20
9.135
30
0
0
VERTEX
8
RASTER
10
115.784
20
9.503
30
0
0
VERTEX
8
RASTER
10
116.312
20
9.334
30
0
0
VERTEX
8
RASTER
10
116.481
20
9.105
30
0
0
VERTEX
8
RASTER
10
116.481
20
8.806
30
0
0
VERTEX
8
RASTER
10
116.113
20
8.438
30
0
0
VERTEX
8
RASTER
10
116.382
20
8.308
30
0
0
VERTEX
8
RASTER
10
116.511
20
8.378
30
0
0
VERTEX
8
RASTER
10
116.681
20
8.707
30
0
0
VERTEX
8
RASTER
10
116.681
20
9.005
30
0
0
VERTEX
8
RASTER
10
116.85
20
9.474
30
0
0
VERTEX
8
RASTER
10
116.71
20
9.733
30
0
0
VERTEX
8
RASTER
10
116.382
20
10.001
30
0
0
SEQEND
8
RASTER
0
POLYLINE
8
CUT
66
1
70
1
0
VERTEX
8
CUT
10
147.934
20
24.007
30
0
0
VERTEX
8
CUT
10
148.803
20
23.903
30
0
0
VERTEX
8
CUT
10
149.416
20
23.242
30
0
0
VERTEX
8
CUT
10
149.345
20
21.097
30
0
0
VERTEX
8
CUT
10
151.736
20
21.097
30
0
0
VERTEX
8
CUT
10
152.47
20
20.635
30
0
0
VERTEX
8
CUT
10
152.525
20
19.814
30
0
0
VERTEX
8
CUT
10
151.824
20
19.081
30
0
0
VERTEX
8
CUT
10
151.346
20
19.033
30
0
0
VERTEX
8
CUT
10
150.477
20
19.312
30
0
0
VERTEX
8
CUT
10
149.472
20
18.642
30
0
0
VERTEX
8
CUT
10
149.512
20
18.156
30
0
0
VERTEX
8
CUT
10
150.118
20
17.725
30
0
0
VERTEX
8
CUT
10
150.277
20
17.406
30
0
0
VERTEX
8
CUT
10
150.054
20
16.386
30
0
0
VERTEX
8
CUT
10
148.946
20
14.864
30
0
0
VERTEX
8
CUT
10
147.121
20
13.66
30
0
0
VERTEX
8
CUT
10
147.583
20
11.444
30
0
0
VERTEX
8
CUT
10
147.583
20
10.088
30
0
0
VERTEX
8
CUT
10
147.312
20
9.004
30
0
0
VERTEX
8
CUT
10
146.706
20
8.733
30
0
0
VERTEX
8
CUT
10
144.498
20
9.236
30
0
0
VERTEX
8
CUT
10
143.486
20
9.738
30
0
0
VERTEX
8
CUT
10
142.553
20
10.639
30
0
0
VERTEX
8
CUT
10
142.162
20
10.806
30
0
0
VERTEX
8
CUT
10
140.002
20
9.538
30
0
0
VERTEX
8
CUT
10
138.671
20
9.196
30
0
0
VERTEX
8
CUT
10
137.276
20
9.076
30
0
0
VERTEX
8
CUT
10
137.076
20
8.319
30
0
0
VERTEX
8
CUT
10
136.757
20
8
30
0
0
VERTEX
8
CUT
10
135.817
20
8.048
30
0
0
VERTEX
8
CUT
10
135.498
20
8.526
30
0
0
VERTEX
8
CUT
10
135.538
20
10.16
30
0
0
VERTEX
8
CUT
10
133.84
20
10.216
30
0
0
VERTEX
8
CUT
10
133.043
20
10.694
30
0
0
VERTEX
8
CUT
10
132.835
20
11.683
30
0
0
VERTEX
8
CUT
10
133.298
20
12.783
30
0
0
VERTEX
8
CUT
10
132.525
20
13.923
30
0
0
VERTEX
8
CUT
10
133.059
20
14.728
30
0
0
VERTEX
8
CUT
10
133.33
20
14.856
30
0
0
VERTEX
8
CUT
10
133.904
20
14.824
30
0
0
VERTEX
8
CUT
10
134.278
20
14.481
30
0
0
VERTEX
8
CUT
10
134.669
20
14.393
30
0
0
VERTEX
8
CUT
10
136.678
20
15.095
30
0
0
VERTEX
8
CUT
10
136.638
20
15.645
30
0
0
VERTEX
8
CUT
10
135.928
20
16.53
30
0
0
VERTEX
8
CUT
10
135.394
20
17.59
30
0
0
VERTEX
8
CUT
10
135.394
20
18.69
30
0
0
VERTEX
8
CUT
10
136.351
20
19.248
30
0
0
VERTEX
8
CUT
10
137.682
20
19.591
30
0
0
VERTEX
8
CUT
10
140.273
20
19.551
30
0
0
VERTEX
8
CUT
10
140.656
20
20.842
30
0
0
VERTEX
8
CUT
10
141.254
20
21.918
30
0
0
VERTEX
8
CUT
10
142.099
20
22.907
30
0
0
VERTEX
8
CUT
10
143.143
20
23.616
30
0
0
VERTEX
8
CUT
10
143.613
20
23.577
30
0
0
VERTEX
8
CUT
10
144.06
20
23.226
30
0
0
VERTEX
8
CUT
10
145.136
20
21.671
30
0
0
VERTEX
8
CUT
10
145.518
20
20.699
30
0
0
VERTEX
8
CUT
10
146.013
20
20.587
30
0
0
VERTEX
8
CUT
10
147.296
20
21.855
30
0
0
VERTEX
8
CUT
10
147.424
20
22.285
30
0
0
VERTEX
8
CUT
10
147.129
20
22.947
30
0
0
VERTEX
8
CUT
10
147.176
20
23.489
30
0
0
VERTEX
8
CUT
10
147.368
20
23.776
30
0
0
SEQEND
8
CUT
0
POLYLINE
8
RASTER
66
1
70
1
0
VERTEX
8
RASTER
10
148.005
20
23.776
30
0
0
VERTEX
8
RASTER
10
148.46
20
23.8
30
0
0
VERTEX
8
RASTER
10
148.723
20
23.664
30
0
0
VERTEX
8
RASTER
10
149.042
20
23.425
30
0
0
VERTEX
8
RASTER
10
149.257
20
23.003
30
0
0
VERTEX
8
RASTER
10
149.257
20
22.285
30
0
0
VERTEX
8
RASTER
10
149.177
20
21.966
30
0
0
VERTEX
8
RASTER
10
148.723
20
20.986
30
0
0
VERTEX
8
RASTER
10
148.165
20
20.077
30
0
0
VERTEX
8
RASTER
10
149.815
20
20.771
30
0
0
VERTEX
8
RASTER
10
150.851
20
21.01
30
0
0
VERTEX
8
RASTER
10
151.489
20
20.93
30
0
0
VERTEX
8
RASTER
10
151.912
20
20.715
30
0
0
VERTEX
8
RASTER
10
152.071
20
20.555
30
0
0
VERTEX
8
RASTER
10
152.207
20
20.212
30
0
0
VERTEX
8
RASTER
10
152.071
20
19.71
30
0
0
VERTEX
8
RASTER
10
151.752
20
19.312
30
0
0
VERTEX
8
RASTER
10
151.649
20
19.256
30
0
0
VERTEX
8
RASTER
10
151.226
20
19.312
30
0
0
VERTEX
8
RASTER
10
151.17
20
19.814
30
0
0
VERTEX
8
RASTER
10
151.011
20
19.894
30
0
0
VERTEX
8
RASTER
10
149.951
20
19.36
30
0
0
VERTEX
8
RASTER
10
148.404
20
18.275
30
0
0
VERTEX
8
RASTER
10
148.484
20
18.164
30
0
0
VERTEX
8
RASTER
10
148.619
20
18.22
30
0
0
VERTEX
8
RASTER
10
148.858
20
18.14
30
0
0
VERTEX
8
RASTER
10
149.6
20
17.765
30
0
0
VERTEX
8
RASTER
10
149.998
20
17.446
30
0
0
VERTEX
8
RASTER
10
150.054
20
17.104
30
0
0
VERTEX
8
RASTER
10
149.895
20
16.705
30
0
0
VERTEX
8
RASTER
10
149.6
20
16.123
30
0
0
VERTEX
8
RASTER
10
149.201
20
15.565
30
0
0
VERTEX
8
RASTER
10
148.404
20
14.768
30
0
0
VERTEX
8
RASTER
10
147.663
20
14.313
30
0
0
VERTEX
8
RASTER
10
147.025
20
14.074
30
0
0
VERTEX
8
RASTER
10
146.387
20
13.995
30
0
0
VERTEX
8
RASTER
10
146.308
20
13.915
30
0
0
VERTEX
8
RASTER
10
146.65
20
13.54
30
0
0
VERTEX
8
RASTER
10
147.025
20
12.799
30
0
0
VERTEX
8
RASTER
10
147.344
20
11.523
30
0
0
VERTEX
8
RASTER
10
147.344
20
10.009
30
0
0
VERTEX
8
RASTER
10
147.049
20
9.108
30
0
0
VERTEX
8
RASTER
10
146.786
20
8.972
30
0
0
VERTEX
8
RASTER
10
146.148
20
9.052
30
0
0
VERTEX
8
RASTER
10
144.474
20
9.53
30
0
0
VERTEX
8
RASTER
10
143.733
20
9.905
30
0
0
VERTEX
8
RASTER
10
142.776
20
10.782
30
0
0
VERTEX
8
RASTER
10
142.481
20
11.284
30
0
0
VERTEX
8
RASTER
10
142.266
20
11.898
30
0
0
VERTEX
8
RASTER
10
141.548
20
10.782
30
0
0
VERTEX
8
RASTER
10
140.751
20
10.224
30
0
0
VERTEX
8
RASTER
10
139.85
20
9.77
30
0
0
VERTEX
8
RASTER
10
138.256
20
9.371
30
0
0
VERTEX
8
RASTER
10
137.778
20
9.371
30
0
0
VERTEX
8
RASTER
10
137.403
20
9.746
30
0
0
VERTEX
8
RASTER
10
137.036
20
9.395
30
0
0
VERTEX
8
RASTER
10
136.821
20
9.052
30
0
0
VERTEX
8
RASTER
10
136.901
20
8.733
30
0
0
VERTEX
8
RASTER
10
136.845
20
8.391
30
0
0
VERTEX
8
RASTER
10
136.423
20
8.096
30
0
0
VERTEX
8
RASTER
10
136
20
8.231
30
0
0
VERTEX
8
RASTER
10
135.705
20
8.654
30
0
0
VERTEX
8
RASTER
10
135.705
20
9.212
30
0
0
VERTEX
8
RASTER
10
135.865
20
9.69
30
0
0
VERTEX
8
RASTER
10
136.399
20
10.591
30
0
0
VERTEX
8
RASTER
10
137.084
20
11.34
30
0
0
VERTEX
8
RASTER
10
137.276
20
11.659
30
0
0
VERTEX
8
RASTER
10
137.116
20
11.627
30
0
0
VERTEX
8
RASTER
10
136.207
20
11.021
30
0
0
VERTEX
8
RASTER
10
135.466
20
10.647
30
0
0
VERTEX
8
RASTER
10
134.669
20
10.407
30
0
0
VERTEX
8
RASTER
10
133.951
20
10.407
30
0
0
VERTEX
8
RASTER
10
133.449
20
10.623
30
0
0
VERTEX
8
RASTER
10
133.13
20
11.021
30
0
0
VERTEX
8
RASTER
10
132.995
20
11.444
30
0
0
VERTEX
8
RASTER
10
133.13
20
11.946
30
0
0
VERTEX
8
RASTER
10
133.258
20
12.137
30
0
0
VERTEX
8
RASTER
10
133.473
20
12.241
30
0
0
VERTEX
8
RASTER
10
133.712
20
12.321
30
0
0
VERTEX
8
RASTER
10
133.975
20
12.185
30
0
0
VERTEX
8
RASTER
10
134.246
20
11.659
30
0
0
VERTEX
8
RASTER
10
134.35
20
11.603
30
0
0
VERTEX
8
RASTER
10
135.331
20
12.217
30
0
0
VERTEX
8
RASTER
10
136.399
20
13.062
30
0
0
VERTEX
8
RASTER
10
135.944
20
12.958
30
0
0
VERTEX
8
RASTER
10
135.546
20
12.958
30
0
0
VERTEX
8
RASTER
10
135.386
20
12.879
30
0
0
VERTEX
8
RASTER
10
134.191
20
12.879
30
0
0
VERTEX
8
RASTER
10
133.29
20
13.253
30
0
0
VERTEX
8
RASTER
10
132.995
20
13.755
30
0
0
VERTEX
8
RASTER
10
132.995
20
14.154
30
0
0
VERTEX
8
RASTER
10
133.13
20
14.417
30
0
0
VERTEX
8
RASTER
10
133.37
20
14.656
30
0
0
VERTEX
8
RASTER
10
133.633
20
14.712
30
0
0
VERTEX
8
RASTER
10
133.896
20
14.577
30
0
0
VERTEX
8
RASTER
10
134.087
20
14.13
30
0
0
VERTEX
8
RASTER
10
134.191
20
14.074
30
0
0
VERTEX
8
RASTER
10
134.589
20
14.074
30
0
0
VERTEX
8
RASTER
10
135.785
20
14.393
30
0
0
VERTEX
8
RASTER
10
137.22
20
14.951
30
0
0
VERTEX
8
RASTER
10
137.618
20
15.19
30
0
0
VERTEX
8
RASTER
10
137.196
20
15.485
30
0
0
VERTEX
8
RASTER
10
136.558
20
16.123
30
0
0
VERTEX
8
RASTER
10
136.16
20
16.681
30
0
0
VERTEX
8
RASTER
10
135.865
20
17.183
30
0
0
VERTEX
8
RASTER
10
135.546
20
17.98
30
0
0
VERTEX
8
RASTER
10
135.602
20
18.483
30
0
0
VERTEX
8
RASTER
10
136
20
18.802
30
0
0
VERTEX
8
RASTER
10
136.502
20
19.017
30
0
0
VERTEX
8
RASTER
10
137.22
20
19.256
30
0
0
VERTEX
8
RASTER
10
138.017
20
19.415
30
0
0
VERTEX
8
RASTER
10
139.133
20
19.415
30
0
0
VERTEX
8
RASTER
10
139.93
20
19.176
30
0
0
VERTEX
8
RASTER
10
140.703
20
18.802
30
0
0
VERTEX
8
RASTER
10
140.648
20
19.894
30
0
0
VERTEX
8
RASTER
10
140.887
20
20.691
30
0
0
VERTEX
8
RASTER
10
141.261
20
21.432
30
0
0
VERTEX
8
RASTER
10
141.58
20
21.91
30
0
0
VERTEX
8
RASTER
10
142.457
20
22.867
30
0
0
VERTEX
8
RASTER
10
143.278
20
23.401
30
0
0
VERTEX
8
RASTER
10
143.621
20
23.266
30
0
0
VERTEX
8
RASTER
10
143.94
20
22.947
30
0
0
VERTEX
8
RASTER
10
144.737
20
21.831
30
0
0
VERTEX
8
RASTER
10
145.271
20
20.611
30
0
0
VERTEX
8
RASTER
10
145.351
20
20.292
30
0
0
VERTEX
8
RASTER
10
145.351
20
19.654
30
0
0
VERTEX
8
RASTER
10
145.431
20
19.575
30
0
0
VERTEX
8
RASTER
10
147.288
20
21.384
30
0
0
VERTEX
8
RASTER
10
147.926
20
22.261
30
0
0
VERTEX
8
RASTER
10
148.141
20
22.684
30
0
0
VERTEX
8
RASTER
10
148.117
20
22.819
30
0
0
VERTEX
8
RASTER
10
147.982
20
22.843
30
0
0
VERTEX
8
RASTER
10
147.822
20
22.763
30
0
0
VERTEX
8
RASTER
10
147.479
20
22.819
30
0
0
VERTEX
8
RASTER
10
147.344
20
23.003
30
0
0
VERTEX
8
RASTER
10
147.344
20
23.242
30
0
0
VERTEX
8
RASTER
10
147.559
20
23.585
30
0
0
SEQEND
8
RASTER
0
POLYLINE
8
RASTER
66
1
70
1
0
VERTEX
8
RASTER
10
143.278
20
23.003
30
0
0
VERTEX
8
RASTER
10
143.015
20
22.867
30
0
0
VERTEX
8
RASTER
10
142.138
20
21.99
30
0
0
VERTEX
8
RASTER
10
141.66
20
21.352
30
0
0
VERTEX
8
RASTER
10
141.206
20
20.452
30
0
0
VERTEX
8
RASTER
10
140.967
20
19.256
30
0
0
VERTEX
8
RASTER
10
141.046
20
19.096
30
0
0
VERTEX
8
RASTER
10
141.046
20
18.618
30
0
0
VERTEX
8
RASTER
10
141.341
20
17.877
30
0
0
VERTEX
8
RASTER
10
141.923
20
17.741
30
0
0
VERTEX
8
RASTER
10
142.242
20
17.582
30
0
0
VERTEX
8
RASTER
10
142.641
20
17.741
30
0
0
VERTEX
8
RASTER
10
143.119
20
17.741
30
0
0
VERTEX
8
RASTER
10
143.382
20
17.526
30
0
0
VERTEX
8
RASTER
10
143.573
20
17.159
30
0
0
VERTEX
8
RASTER
10
143.836
20
17.024
30
0
0
VERTEX
8
RASTER
10
144.075
20
17.024
30
0
0
VERTEX
8
RASTER
10
144.418
20
16.809
30
0
0
VERTEX
8
RASTER
10
144.657
20
16.49
30
0
0
VERTEX
8
RASTER
10
144.873
20
15.988
30
0
0
VERTEX
8
RASTER
10
144.793
20
15.509
30
0
0
VERTEX
8
RASTER
10
144.474
20
14.951
30
0
0
VERTEX
8
RASTER
10
145.192
20
14.553
30
0
0
VERTEX
8
RASTER
10
145.67
20
14.393
30
0
0
VERTEX
8
RASTER
10
146.467
20
14.393
30
0
0
VERTEX
8
RASTER
10
147.766
20
14.848
30
0
0
VERTEX
8
RASTER
10
148.245
20
15.166
30
0
0
VERTEX
8
RASTER
10
148.882
20
15.804
30
0
0
VERTEX
8
RASTER
10
149.281
20
16.362
30
0
0
VERTEX
8
RASTER
10
149.656
20
17.104
30
0
0
VERTEX
8
RASTER
10
149.6
20
17.287
30
0
0
VERTEX
8
RASTER
10
148.858
20
17.741
30
0
0
VERTEX
8
RASTER
10
147.742
20
18.22
30
0
0
VERTEX
8
RASTER
10
147.105
20
18.379
30
0
0
VERTEX
8
RASTER
10
146.228
20
18.379
30
0
0
VERTEX
8
RASTER
10
145.67
20
18.22
30
0
0
VERTEX
8
RASTER
10
144.928
20
17.845
30
0
0
VERTEX
8
RASTER
10
144.099
20
17.127
30
0
0
VERTEX
8
RASTER
10
144.873
20
18.698
30
0
0
VERTEX
8
RASTER
10
145.008
20
19.599
30
0
0
VERTEX
8
RASTER
10
144.952
20
20.292
30
0
0
VERTEX
8
RASTER
10
144.633
20
21.249
30
0
0
VERTEX
8
RASTER
10
144.259
20
21.91
30
0
0
VERTEX
8
RASTER
10
143.86
20
22.468
30
0
0
SEQEND
8
RASTER
0
POLYLINE
8
RASTER
66
1
70
1
0
VERTEX
8
RASTER
10
138.256
20
19.096
30
0
0
VERTEX
8
RASTER
10
138.097
20
19.017
30
0
0
VERTEX
8
RASTER
10
137.379
20
18.937
30
0
0
VERTEX
8
RASTER
10
136.662
20
18.698
30
0
0
VERTEX
8
RASTER
10
135.92
20
18.323
30
0
0
VERTEX
8
RASTER
10
135.865
20
18.14
30
0
0
VERTEX
8
RASTER
10
135.944
20
17.901
30
0
0
VERTEX
8
RASTER
10
136.399
20
17
30
0
0
VERTEX
8
RASTER
10
136.718
20
16.522
30
0
0
VERTEX
8
RASTER
10
137.435
20
15.804
30
0
0
VERTEX
8
RASTER
10
137.754
20
15.565
30
0
0
VERTEX
8
RASTER
10
138.495
20
15.19
30
0
0
VERTEX
8
RASTER
10
139.053
20
15.031
30
0
0
VERTEX
8
RASTER
10
140.249
20
15.031
30
0
0
VERTEX
8
RASTER
10
140.353
20
15.087
30
0
0
VERTEX
8
RASTER
10
140.568
20
15.589
30
0
0
VERTEX
8
RASTER
10
140.568
20
15.828
30
0
0
VERTEX
8
RASTER
10
140.409
20
16.306
30
0
0
VERTEX
8
RASTER
10
140.488
20
16.785
30
0
0
VERTEX
8
RASTER
10
140.703
20
17.287
30
0
0
VERTEX
8
RASTER
10
141.07
20
17.638
30
0
0
VERTEX
8
RASTER
10
141.126
20
17.741
30
0
0
VERTEX
8
RASTER
10
141.07
20
17.845
30
0
0
VERTEX
8
RASTER
10
140.592
20
18.403
30
0
0
VERTEX
8
RASTER
10
139.611
20
18.937
30
0
0
VERTEX
8
RASTER
10
138.974
20
19.096
30
0
0
SEQEND
8
RASTER
0
POLYLINE
8
RASTER
66
1
70
1
0
VERTEX
8
RASTER
10
141.604
20
17.741
30
0
0
VERTEX
8
RASTER
10
141.102
20
17.526
30
0
0
VERTEX
8
RASTER
10
140.943
20
17.367
30
0
0
VERTEX
8
RASTER
10
140.648
20
16.705
30
0
0
VERTEX
8
RASTER
10
140.648
20
16.227
30
0
0
VERTEX
8
RASTER
10
140.967
20
15.669
30
0
0
VERTEX
8
RASTER
10
140.568
20
15.111
30
0
0
VERTEX
8
RASTER
10
140.568
20
14.393
30
0
0
VERTEX
8
RASTER
10
140.783
20
13.971
30
0
0
VERTEX
8
RASTER
10
141.126
20
13.755
30
0
0
VERTEX
8
RASTER
10
141.365
20
13.755
30
0
0
VERTEX
8
RASTER
10
141.843
20
14.074
30
0
0
VERTEX
8
RASTER
10
142.218
20
13.652
30
0
0
VERTEX
8
RASTER
10
142.481
20
13.516
30
0
0
VERTEX
8
RASTER
10
142.8
20
13.516
30
0
0
VERTEX
8
RASTER
10
143.143
20
13.652
30
0
0
VERTEX
8
RASTER
10
143.462
20
13.891
30
0
0
VERTEX
8
RASTER
10
143.677
20
14.313
30
0
0
VERTEX
8
RASTER
10
143.701
20
15.007
30
0
0
VERTEX
8
RASTER
10
144.075
20
15.031
30
0
0
VERTEX
8
RASTER
10
144.37
20
15.214
30
0
0
VERTEX
8
RASTER
10
144.633
20
15.669
30
0
0
VERTEX
8
RASTER
10
144.633
20
16.067
30
0
0
VERTEX
8
RASTER
10
144.339
20
16.569
30
0
0
VERTEX
8
RASTER
10
143.836
20
16.864
30
0
0
VERTEX
8
RASTER
10
143.462
20
16.888
30
0
0
VERTEX
8
RASTER
10
143.438
20
17.104
30
0
0
VERTEX
8
RASTER
10
143.223
20
17.446
30
0
0
VERTEX
8
RASTER
10
142.72
20
17.502
30
0
0
VERTEX
8
RASTER
10
142.346
20
17.207
30
0
0
VERTEX
8
RASTER
10
141.947
20
17.606
30
0
0
SEQEND
8
RASTER
0
POLYLINE
8
RASTER
66
1
70
1
0
VERTEX
8
RASTER
10
142.027
20
16.203
30
0
0
VERTEX
8
RASTER
10
142.242
20
16.227
30
0
0
VERTEX
8
RASTER
10
142.322
20
16.147
30
0
0
VERTEX
8
RASTER
10
142.003
20
15.669
30
0
0
VERTEX
8
RASTER
10
142.003
20
15.27
30
0
0
VERTEX
8
RASTER
10
142.162
20
15.111
30
0
0
VERTEX
8
RASTER
10
142.585
20
15.246
30
0
0
VERTEX
8
RASTER
10
143.015
20
15.693
30
0
0
VERTEX
8
RASTER
10
143.199
20
15.748
30
0
0
VERTEX
8
RASTER
10
143.278
20
15.669
30
0
0
VERTEX
8
RASTER
10
143.143
20
15.406
30
0
0
VERTEX
8
RASTER
10
142.904
20
15.166
30
0
0
VERTEX
8
RASTER
10
142.322
20
14.792
30
0
0
VERTEX
8
RASTER
10
142.083
20
14.792
30
0
0
VERTEX
8
RASTER
10
141.867
20
14.895
30
0
0
VERTEX
8
RASTER
10
141.764
20
15.111
30
0
0
VERTEX
8
RASTER
10
141.764
20
15.748
30
0
0
SEQEND
8
RASTER
0
POLYLINE
8
RASTER
66
1
70
1
0
VERTEX
8
RASTER
10
140.09
20
14.792
30
0
0
VERTEX
8
RASTER
10
139.029
20
14.258
30
0
0
VERTEX
8
RASTER
10
138.312
20
13.54
30
0
0
VERTEX
8
RASTER
10
137.858
20
12.719
30
0
0
VERTEX
8
RASTER
10
137.618
20
11.763
30
0
0
VERTEX
8
RASTER
10
137.618
20
10.567
30
0
0
VERTEX
8
RASTER
10
137.698
20
10.168
30
0
0
VERTEX
8
RASTER
10
137.937
20
9.77
30
0
0
VERTEX
8
RASTER
10
138.256
20
9.77
30
0
0
VERTEX
8
RASTER
10
139.292
20
10.009
30
0
0
VERTEX
8
RASTER
10
140.169
20
10.328
30
0
0
VERTEX
8
RASTER
10
140.831
20
10.702
30
0
0
VERTEX
8
RASTER
10
141.389
20
11.181
30
0
0
VERTEX
8
RASTER
10
142.083
20
12.321
30
0
0
VERTEX
8
RASTER
10
142.242
20
12.799
30
0
0
VERTEX
8
RASTER
10
142.266
20
13.221
30
0
0
VERTEX
8
RASTER
10
141.979
20
13.413
30
0
0
VERTEX
8
RASTER
10
141.764
20
13.676
30
0
0
VERTEX
8
RASTER
10
141.445
20
13.516
30
0
0
VERTEX
8
RASTER
10
141.046
20
13.516
30
0
0
VERTEX
8
RASTER
10
140.783
20
13.652
30
0
0
VERTEX
8
RASTER
10
140.409
20
14.074
30
0
0
VERTEX
8
RASTER
10
140.305
20
14.768
30
0
0
SEQEND
8
RASTER
0
POLYLINE
8
RASTER
66
1
70
1
0
VERTEX
8
RASTER
10
144.155
20
14.712
30
0
0
VERTEX
8
RASTER
10
144.052
20
14.656
30
0
0
VERTEX
8
RASTER
10
143.916
20
14.154
30
0
0
VERTEX
8
RASTER
10
143.621
20
13.652
30
0
0
VERTEX
8
RASTER
10
142.959
20
13.277
30
0
0
VERTEX
8
RASTER
10
142.617
20
13.221
30
0
0
VERTEX
8
RASTER
10
142.561
20
13.118
30
0
0
VERTEX
8
RASTER
10
142.505
20
12.855
30
0
0
VERTEX
8
RASTER
10
142.561
20
12.321
30
0
0
VERTEX
8
RASTER
10
142.8
20
11.603
30
0
0
VERTEX
8
RASTER
10
143.175
20
10.941
30
0
0
VERTEX
8
RASTER
10
143.653
20
10.463
30
0
0
VERTEX
8
RASTER
10
144.131
20
10.144
30
0
0
VERTEX
8
RASTER
10
145.51
20
9.61
30
0
0
VERTEX
8
RASTER
10
146.706
20
9.371
30
0
0
VERTEX
8
RASTER
10
146.866
20
9.53
30
0
0
VERTEX
8
RASTER
10
147.025
20
10.168
30
0
0
VERTEX
8
RASTER
10
147.025
20
11.364
30
0
0
VERTEX
8
RASTER
10
146.786
20
12.4
30
0
0
VERTEX
8
RASTER
10
146.252
20
13.381
30
0
0
VERTEX
8
RASTER
10
145.773
20
13.859
30
0
0
VERTEX
8
RASTER
10
145.215
20
14.258
30
0
0
VERTEX
8
RASTER
10
144.315
20
14.712
30
0
0
SEQEND
8
RASTER
0
ENDSEC
0
EOF
