  0
SECTION
  2
HEADER
  9
$ACADVER
  1
AC1015
  9
$ACADMAINTVER
 70
6
  9
$DWGCODEPAGE
  3
ANSI_1252
  9
$INSBASE
 10
0.0
 20
0.0
 30
0.0
  9
$EXTMIN
 10
1e+20
 20
1e+20
 30
1e+20
  9
$EXTMAX
 10
-1e+20
 20
-1e+20
 30
-1e+20
  9
$LIMMIN
 10
0.0
 20
0.0
  9
$LIMMAX
 10
420.0
 20
297.0
  9
$ORTHOMODE
 70
0
  9
$REGENMODE
 70
1
  9
$FILLMODE
 70
1
  9
$QTEXTMODE
 70
0
  9
$MIRRTEXT
 70
1
  9
$LTSCALE
 40
1.0
  9
$ATTMODE
 70
1
  9
$TEXTSIZE
 40
2.5
  9
$TRACEWID
 40
1.0
  9
$TEXTSTYLE
  7
Standard
  9
$CLAYER
  8
0
  9
$CELTYPE
  6
ByLayer
  9
$CECOLOR
 62
256
  9
$CELTSCALE
 40
1.0
  9
$DISPSILH
 70
0
  9
$DIMSCALE
 40
1.0
  9
$DIMASZ
 40
2.5
  9
$DIMEXO
 40
0.625
  9
$DIMDLI
 40
3.75
  9
$DIMRND
 40
0.0
  9
$DIMDLE
 40
0.0
  9
$DIMEXE
 40
1.25
  9
$DIMTP
 40
0.0
  9
$DIMTM
 40
0.0
  9
$DIMTXT
 40
2.5
  9
$DIMCEN
 40
2.5
  9
$DIMTSZ
 40
0.0
  9
$DIMTOL
 70
0
  9
$DIMLIM
 70
0
  9
$DIMTIH
 70
0
  9
$DIMTOH
 70
0
  9
$DIMSE1
 70
0
  9
$DIMSE2
 70
0
  9
$DIMTAD
 70
1
  9
$DIMZIN
 70
8
  9
$DIMBLK
  1

  9
$DIMASO
 70
1
  9
$DIMSHO
 70
1
  9
$DIMPOST
  1

  9
$DIMAPOST
  1

  9
$DIMALT
 70
0
  9
$DIMALTD
 70
3
  9
$DIMALTF
 40
0.03937007874
  9
$DIMLFAC
 40
1.0
  9
$DIMTOFL
 70
1
  9
$DIMTVP
 40
0.0
  9
$DIMTIX
 70
0
  9
$DIMSOXD
 70
0
  9
$DIMSAH
 70
0
  9
$DIMBLK1
  1

  9
$DIMBLK2
  1

  9
$DIMSTYLE
  2
ISO-25
  9
$DIMCLRD
 70
0
  9
$DIMCLRE
 70
0
  9
$DIMCLRT
 70
0
  9
$DIMTFAC
 40
1.0
  9
$DIMGAP
 40
0.625
  9
$DIMJUST
 70
0
  9
$DIMSD1
 70
0
  9
$DIMSD2
 70
0
  9
$DIMTOLJ
 70
0
  9
$DIMTZIN
 70
8
  9
$DIMALTZ
 70
0
  9
$DIMALTTZ
 70
0
  9
$DIMUPT
 70
0
  9
$DIMDEC
 70
2
  9
$DIMTDEC
 70
2
  9
$DIMALTU
 70
2
  9
$DIMALTTD
 70
3
  9
$DIMTXSTY
  7
Standard
  9
$DIMAUNIT
 70
0
  9
$DIMADEC
 70
0
  9
$DIMALTRND
 40
0.0
  9
$DIMAZIN
 70
0
  9
$DIMDSEP
 70
44
  9
$DIMATFIT
 70
3
  9
$DIMFRAC
 70
0
  9
$DIMLDRBLK
  1

  9
$DIMLUNIT
 70
2
  9
$DIMLWD
 70
-2
  9
$DIMLWE
 70
-2
  9
$DIMTMOVE
 70
0
  9
$LUNITS
 70
2
  9
$LUPREC
 70
4
  9
$SKETCHINC
 40
1.0
  9
$FILLETRAD
 40
10.0
  9
$AUNITS
 70
0
  9
$AUPREC
 70
2
  9
$MENU
  1
.
  9
$ELEVATION
 40
0.0
  9
$PELEVATION
 40
0.0
  9
$THICKNESS
 40
0.0
  9
$LIMCHECK
 70
0
  9
$CHAMFERA
 40
0.0
  9
$CHAMFERB
 40
0.0
  9
$CHAMFERC
 40
0.0
  9
$CHAMFERD
 40
0.0
  9
$SKPOLY
 70
0
  9
$TDCREATE
 40
2461295.9753935183
  9
$TDUCREATE
 40
2458532.153996898
  9
$TDUPDATE
 40
2461295.9753935183
  9
$TDUUPDATE
 40
2458532.1544311
  9
$TDINDWG
 40
0.0
  9
$TDUSRTIMER
 40
0.0
  9
$USRTIMER
 70
1
  9
$ANGBASE
 50
0.0
  9
$ANGDIR
 70
0
  9
$PDMODE
 70
0
  9
$PDSIZE
 40
0.0
  9
$PLINEWID
 40
0.0
  9
$SPLFRAME
 70
0
  9
$SPLINETYPE
 70
6
  9
$SPLINESEGS
 70
8
  9
$HANDSEED
  5
B8
  9
$SURFTAB1
 70
6
  9
$SURFTAB2
 70
6
  9
$SURFTYPE
 70
6
  9
$SURFU
 70
6
  9
$SURFV
 70
6
  9
$UCSBASE
  2

  9
$UCSNAME
  2

  9
$UCSORG
 10
0.0
 20
0.0
 30
0.0
  9
$UCSXDIR
 10
1.0
 20
0.0
 30
0.0
  9
$UCSYDIR
 10
0.0
 20
1.0
 30
0.0
  9
$UCSORTHOREF
  2

  9
$UCSORTHOVIEW
 70
0
  9
$UCSORGTOP
 10
0.0
 20
0.0
 30
0.0
  9
$UCSORGBOTTOM
 10
0.0
 20
0.0
 30
0.0
  9
$UCSORGLEFT
 10
0.0
 20
0.0
 30
0.0
  9
$UCSORGRIGHT
 10
0.0
 20
0.0
 30
0.0
  9
$UCSORGFRONT
 10
0.0
 20
0.0
 30
0.0
  9
$UCSORGBACK
 10
0.0
 20
0.0
 30
0.0
  9
$PUCSBASE
  2

  9
$PUCSNAME
  2

  9
$PUCSORG
 10
0.0
 20
0.0
 30
0.0
  9
$PUCSXDIR
 10
1.0
 20
0.0
 30
0.0
  9
$PUCSYDIR
 10
0.0
 20
1.0
 30
0.0
  9
$PUCSORTHOREF
  2

  9
$PUCSORTHOVIEW
 70
0
  9
$PUCSORGTOP
 10
0.0
 20
0.0
 30
0.0
  9
$PUCSORGBOTTOM
 10
0.0
 20
0.0
 30
0.0
  9
$PUCSORGLEFT
 10
0.0
 20
0.0
 30
0.0
  9
$PUCSORGRIGHT
 10
0.0
 20
0.0
 30
0.0
  9
$PUCSORGFRONT
 10
0.0
 20
0.0
 30
0.0
  9
$PUCSORGBACK
 10
0.0
 20
0.0
 30
0.0
  9
$USERI1
 70
0
  9
$USERI2
 70
0
  9
$USERI3
 70
0
  9
$USERI4
 70
0
  9
$USERI5
 70
0
  9
$USERR1
 40
0.0
  9
$USERR2
 40
0.0
  9
$USERR3
 40
0.0
  9
$USERR4
 40
0.0
  9
$USERR5
 40
0.0
  9
$WORLDVIEW
 70
1
  9
$SHADEDGE
 70
3
  9
$SHADEDIF
 70
70
  9
$TILEMODE
 70
1
  9
$MAXACTVP
 70
64
  9
$PINSBASE
 10
0.0
 20
0.0
 30
0.0
  9
$PLIMCHECK
 70
0
  9
$PEXTMIN
 10
1e+20
 20
1e+20
 30
1e+20
  9
$PEXTMAX
 10
-1e+20
 20
-1e+20
 30
-1e+20
  9
$PLIMMIN
 10
0.0
 20
0.0
  9
$PLIMMAX
 10
420.0
 20
297.0
  9
$UNITMODE
 70
0
  9
$VISRETAIN
 70
1
  9
$PLINEGEN
 70
0
  9
$PSLTSCALE
 70
1
  9
$TREEDEPTH
 70
3020
  9
$CMLSTYLE
  2
Standard
  9
$CMLJUST
 70
0
  9
$CMLSCALE
 40
20.0
  9
$PROXYGRAPHICS
 70
1
  9
$MEASUREMENT
 70
1
  9
$CELWEIGHT
370
-1
  9
$ENDCAPS
280
0
  9
$JOINSTYLE
280
0
  9
$LWDISPLAY
290
0
  9
$INSUNITS
 70
4
  9
$HYPERLINKBASE
  1

  9
$STYLESHEET
  1

  9
$XEDIT
290
1
  9
$CEPSNTYPE
380
0
  9
$PSTYLEMODE
290
1
  9
$FINGERPRINTGUID
  2
{F63B8C2D-9BAC-4497-B3FE-CEDB4167798D}
  9
$VERSIONGUID
  2
{ADD22CC9-ACE5-493B-AC02-D6EA42612984}
  9
$EXTNAMES
290
1
  9
$PSVPSCALE
 40
0.0
  9
$OLESTARTUP
290
0
  0
ENDSEC
  0
SECTION
  2
CLASSES
  0
CLASS
  1
ACDBDICTIONARYWDFLT
  2
AcDbDictionaryWithDefault
  3
ObjectDBX Classes
 90
0
280
0
281
0
  0
CLASS
  1
SUN
  2
AcDbSun
  3
SCENEOE
 90
1153
280
0
281
0
  0
CLASS
  1
VISUALSTYLE
  2
AcDbVisualStyle
  3
ObjectDBX Classes
 90
4095
280
0
281
0
  0
CLASS
  1
MATERIAL
  2
AcDbMaterial
  3
ObjectDBX Classes
 90
1153
280
0
281
0
  0
CLASS
  1
SCALE
  2
AcDbScale
  3
ObjectDBX Classes
 90
1153
280
0
281
0
  0
CLASS
  1
TABLESTYLE
  2
AcDbTableStyle
  3
ObjectDBX Classes
 90
4095
280
0
281
0
  0
CLASS
  1
MLEADERSTYLE
  2
AcDbMLeaderStyle
  3
ACDB_MLEADERSTYLE_CLASS
 90
4095
280
0
281
0
  0
CLASS
  1
DICTIONARYVAR
  2
AcDbDictionaryVar
  3
ObjectDBX Classes
 90
0
280
0
281
0
  0
CLASS
  1
CELLSTYLEMAP
  2
AcDbCellStyleMap
  3
ObjectDBX Classes
 90
1152
280
0
281
0
  0
CLASS
  1
MENTALRAYRENDERSETTINGS
  2
AcDbMentalRayRenderSettings
  3
SCENEOE
 90
1024
280
0
281
0
  0
CLASS
  1
ACDBDETAILVIEWSTYLE
  2
AcDbDetailViewStyle
  3
ObjectDBX Classes
 90
1025
280
0
281
0
  0
CLASS
  1
ACDBSECTIONVIEWSTYLE
  2
AcDbSectionViewStyle
  3
ObjectDBX Classes
 90
1025
280
0
281
0
  0
CLASS
  1
RASTERVARIABLES
  2
AcDbRasterVariables
  3
ISM
 90
0
280
0
281
0
  0
CLASS
  1
ACDBPLACEHOLDER
  2
AcDbPlaceHolder
  3
ObjectDBX Classes
 90
0
280
0
281
0
  0
CLASS
  1
LAYOUT
  2
AcDbLayout
  3
ObjectDBX Classes
 90
0
280
0
281
0
  0
ENDSEC
  0
SECTION
  2
TABLES
  0
TABLE
  2
VPORT
  5
8
330
0
100
AcDbSymbolTable
 70
1
  0
VPORT
  5
23
330
8
100
AcDbSymbolTableRecord
100
AcDbViewportTableRecord
  2
*Active
 70
0
 10
0.0
 20
0.0
 11
1.0
 21
1.0
 12
0.0
 22
0.0
 13
0.0
 23
0.0
 14
0.5
 24
0.5
 15
0.5
 25
0.5
 16
0.0
 26
0.0
 36
1.0
 17
0.0
 27
0.0
 37
0.0
 40
1000.0
 41
1.34
 42
50.0
 43
0.0
 44
0.0
 50
0.0
 51
0.0
 71
0
 72
1000
 73
1
 74
3
 75
0
 76
0
 77
0
 78
0
281
0
 65
0
146
0.0
  0
ENDTAB
  0
TABLE
  2
LTYPE
  5
2
330
0
100
AcDbSymbolTable
 70
3
  0
LTYPE
  5
24
330
2
100
AcDbSymbolTableRecord
100
AcDbLinetypeTableRecord
  2
ByBlock
 70
0
  3

 72
65
 73
0
 40
0.0
  0
LTYPE
  5
25
330
2
100
AcDbSymbolTableRecord
100
AcDbLinetypeTableRecord
  2
ByLayer
 70
0
  3

 72
65
 73
0
 40
0.0
  0
LTYPE
  5
26
330
2
100
AcDbSymbolTableRecord
100
AcDbLinetypeTableRecord
  2
Continuous
 70
0
  3

 72
65
 73
0
 40
0.0
  0
ENDTAB
  0
TABLE
  2
LAYER
  5
1
330
0
100
AcDbSymbolTable
 70
4
  0
LAYER
  5
27
330
1
100
AcDbSymbolTableRecord
100
AcDbLayerTableRecord
  2
0
 70
0
 62
7
  6
Continuous
370
-3
390
13
  0
LAYER
  5
28
330
1
100
AcDbSymbolTableRecord
100
AcDbLayerTableRecord
  2
Defpoints
 70
0
 62
7
  6
Continuous
290
0
370
-3
390
13
  0
LAYER
  5
2F
330
1
100
AcDbSymbolTableRecord
100
AcDbLayerTableRecord
  2
CUT
 70
0
 62
1
  6
Continuous
370
-3
390
13
  0
LAYER
  5
30
330
1
100
AcDbSymbolTableRecord
100
AcDbLayerTableRecord
  2
RASTER
 70
0
 62
7
  6
Continuous
370
-3
390
13
  0
ENDTAB
  0
TABLE
  2
STYLE
  5
5
330
0
100
AcDbSymbolTable
 70
1
  0
STYLE
  5
29
330
5
100
AcDbSymbolTableRecord
100
AcDbTextStyleTableRecord
  2
Standard
 70
0
 40
0.0
 41
1.0
 50
0.0
 71
0
 42
2.5
  3
txt
  4

  0
ENDTAB
  0
TABLE
  2
VIEW
  5
7
330
0
100
AcDbSymbolTable
 70
0
  0
ENDTAB
  0
TABLE
  2
UCS
  5
6
330
0
100
AcDbSymbolTable
 70
0
  0
ENDTAB
  0
TABLE
  2
APPID
  5
3
330
0
100
AcDbSymbolTable
 70
3
  0
APPID
  5
2A
330
3
100
AcDbSymbolTableRecord
100
AcDbRegAppTableRecord
  2
ACAD
 70
0
  0
APPID
  5
B5
330
3
100
AcDbSymbolTableRecord
100
AcDbRegAppTableRecord
  2
HATCHBACKGROUNDCOLOR
 70
0
  0
APPID
  5
B6
330
3
100
AcDbSymbolTableRecord
100
AcDbRegAppTableRecord
  2
EZDXF
 70
0
  0
ENDTAB
  0
TABLE
  2
DIMSTYLE
  5
4
330
0
100
AcDbSymbolTable
 70
1
100
AcDbDimStyleTable
  0
DIMSTYLE
105
2B
330
4
100
AcDbSymbolTableRecord
100
AcDbDimStyleTableRecord
  2
Standard
 70
0
  3

  4

 40
1.0
 41
2.5
 42
0.625
 43
3.75
 44
1.25
 45
0.0
 46
0.0
 47
0.0
 48
0.0
140
2.5
141
2.5
142
0.0
143
0.03937007874
144
1.0
145
0.0
146
1.0
147
0.625
148
0.0
 71
0
 72
0
 73
0
 74
0
 75
0
 76
0
 77
1
 78
8
 79
3
170
0
171
3
172
1
173
0
174
0
175
0
176
0
177
0
178
0
179
2
271
2
272
2
273
2
274
3
275
0
276
0
277
2
278
44
279
0
280
0
281
0
282
0
283
0
284
8
285
0
286
0
288
0
289
3
371
-2
372
-2
  0
ENDTAB
  0
TABLE
  2
BLOCK_RECORD
  5
9
330
0
100
AcDbSymbolTable
 70
2
  0
BLOCK_RECORD
  5
17
330
9
100
AcDbSymbolTableRecord
100
AcDbBlockTableRecord
  2
*Model_Space
340
1A
  0
BLOCK_RECORD
  5
1B
330
9
100
AcDbSymbolTableRecord
100
AcDbBlockTableRecord
  2
*Paper_Space
340
1E
  0
ENDTAB
  0
ENDSEC
  0
SECTION
  2
BLOCKS
  0
BLOCK
  5
18
330
17
100
AcDbEntity
  8
0
100
AcDbBlockBegin
  2
*Model_Space
 70
0
 10
0.0
 20
0.0
 30
0.0
  3
*Model_Space
  1

  0
ENDBLK
  5
19
330
17
100
AcDbEntity
  8
0
100
AcDbBlockEnd
  0
BLOCK
  5
1C
330
1B
100
AcDbEntity
  8
0
100
AcDbBlockBegin
  2
*Paper_Space
 70
0
 10
0.0
 20
0.0
 30
0.0
  3
*Paper_Space
  1

  0
ENDBLK
  5
1D
330
1B
100
AcDbEntity
  8
0
100
AcDbBlockEnd
  0
ENDSEC
  0
SECTION
  2
ENTITIES
  0
LWPOLYLINE
  5
31
330
17
100
AcDbEntity
  8
CUT
100
AcDbPolyline
 90
36
 70
1
 10
7.1
 20
231.224
 10
72.744
 20
231.224
 10
75.884
 20
231.224
 10
75.884
 20
228.844
 10
72.784
 20
228.844
 10
72.784
 20
226.624
 10
75.884
 20
226.624
 10
75.884
 20
224.244
 10
72.744
 20
224.244
 10
66.816
 20
224.244
 10
66.816
 20
221.144
 10
60.769
 20
221.144
 10
60.769
 20
224.244
 10
54.881
 20
224.244
 10
54.881
 20
221.144
 10
48.833
 20
221.144
 10
48.833
 20
224.244
 10
42.946
 20
224.244
 10
42.946
 20
221.144
 10
36.898
 20
221.144
 10
36.898
 20
224.244
 10
31.011
 20
224.244
 10
31.011
 20
221.144
 10
24.963
 20
221.144
 10
24.963
 20
224.244
 10
19.075
 20
224.244
 10
19.075
 20
221.144
 10
13.028
 20
221.144
 10
13.028
 20
224.244
 10
7.1
 20
224.244
 10
3.96
 20
224.244
 10
3.96
 20
226.624
 10
7.06
 20
226.624
 10
7.06
 20
228.844
 10
3.96
 20
228.844
 10
3.96
 20
231.224
  0
LWPOLYLINE
  5
32
330
17
100
AcDbEntity
  8
CUT
100
AcDbPolyline
 90
4
 70
1
 10
12.14
 20
228.794
 10
67.704
 20
228.794
 10
67.704
 20
226.674
 10
12.14
 20
226.674
  0
HATCH
  5
33
330
17
100
AcDbEntity
  8
RASTER
 62
7
100
AcDbHatch
 10
0.0
 20
0.0
 30
0.0
210
0.0
220
0.0
230
1.0
  2
SOLID
 70
1
 71
0
 91
1
 92
3
 72
0
 73
1
 93
4
 10
7.7
 20
230.784
 10
11.5
 20
230.784
 10
11.5
 20
224.684
 10
7.7
 20
224.684
 97
0
 75
0
 76
1
 98
0
  0
HATCH
  5
34
330
17
100
AcDbEntity
  8
RASTER
 62
7
100
AcDbHatch
 10
0.0
 20
0.0
 30
0.0
210
0.0
220
0.0
230
1.0
  2
SOLID
 70
1
 71
0
 91
1
 92
3
 72
0
 73
1
 93
4
 10
68.344
 20
230.784
 10
72.144
 20
230.784
 10
72.144
 20
224.684
 10
68.344
 20
224.684
 97
0
 75
0
 76
1
 98
0
  0
HATCH
  5
35
330
17
100
AcDbEntity
  8
RASTER
 62
7
100
AcDbHatch
 10
0.0
 20
0.0
 30
0.0
210
0.0
220
0.0
230
1.0
  2
SOLID
 70
1
 71
0
 91
1
 92
3
 72
0
 73
1
 93
48
 10
14.2
 20
230.434
 10
14.196
 20
230.369
 10
14.183
 20
230.305
 10
14.162
 20
230.243
 10
14.133
 20
230.184
 10
14.097
 20
230.13
 10
14.054
 20
230.08
 10
14.004
 20
230.037
 10
13.95
 20
230.001
 10
13.891
 20
229.972
 10
13.829
 20
229.951
 10
13.765
 20
229.938
 10
13.7
 20
229.934
 10
13.635
 20
229.938
 10
13.571
 20
229.951
 10
13.509
 20
229.972
 10
13.45
 20
230.001
 10
13.396
 20
230.037
 10
13.346
 20
230.08
 10
13.303
 20
230.13
 10
13.267
 20
230.184
 10
13.238
 20
230.243
 10
13.217
 20
230.305
 10
13.204
 20
230.369
 10
13.2
 20
230.434
 10
13.204
 20
230.499
 10
13.217
 20
230.563
 10
13.238
 20
230.625
 10
13.267
 20
230.684
 10
13.303
 20
230.738
 10
13.346
 20
230.788
 10
13.396
 20
230.831
 10
13.45
 20
230.867
 10
13.509
 20
230.896
 10
13.571
 20
230.917
 10
13.635
 20
230.93
 10
13.7
 20
230.934
 10
13.765
 20
230.93
 10
13.829
 20
230.917
 10
13.891
 20
230.896
 10
13.95
 20
230.867
 10
14.004
 20
230.831
 10
14.054
 20
230.788
 10
14.097
 20
230.738
 10
14.133
 20
230.684
 10
14.162
 20
230.625
 10
14.183
 20
230.563
 10
14.196
 20
230.499
 97
0
 75
0
 76
1
 98
0
  0
HATCH
  5
36
330
17
100
AcDbEntity
  8
RASTER
 62
7
100
AcDbHatch
 10
0.0
 20
0.0
 30
0.0
210
0.0
220
0.0
230
1.0
  2
SOLID
 70
1
 71
0
 91
1
 92
3
 72
0
 73
1
 93
48
 10
66.644
 20
230.434
 10
66.64
 20
230.369
 10
66.627
 20
230.305
 10
66.606
 20
230.243
 10
66.577
 20
230.184
 10
66.541
 20
230.13
 10
66.498
 20
230.08
 10
66.448
 20
230.037
 10
66.394
 20
230.001
 10
66.335
 20
229.972
 10
66.273
 20
229.951
 10
66.209
 20
229.938
 10
66.144
 20
229.934
 10
66.079
 20
229.938
 10
66.015
 20
229.951
 10
65.953
 20
229.972
 10
65.894
 20
230.001
 10
65.84
 20
230.037
 10
65.79
 20
230.08
 10
65.747
 20
230.13
 10
65.711
 20
230.184
 10
65.682
 20
230.243
 10
65.661
 20
230.305
 10
65.648
 20
230.369
 10
65.644
 20
230.434
 10
65.648
 20
230.499
 10
65.661
 20
230.563
 10
65.682
 20
230.625
 10
65.711
 20
230.684
 10
65.747
 20
230.738
 10
65.79
 20
230.788
 10
65.84
 20
230.831
 10
65.894
 20
230.867
 10
65.953
 20
230.896
 10
66.015
 20
230.917
 10
66.079
 20
230.93
 10
66.144
 20
230.934
 10
66.209
 20
230.93
 10
66.273
 20
230.917
 10
66.335
 20
230.896
 10
66.394
 20
230.867
 10
66.448
 20
230.831
 10
66.498
 20
230.788
 10
66.541
 20
230.738
 10
66.577
 20
230.684
 10
66.606
 20
230.625
 10
66.627
 20
230.563
 10
66.64
 20
230.499
 97
0
 75
0
 76
1
 98
0
  0
HATCH
  5
37
330
17
100
AcDbEntity
  8
RASTER
 62
7
100
AcDbHatch
 10
0.0
 20
0.0
 30
0.0
210
0.0
220
0.0
230
1.0
  2
SOLID
 70
1
 71
0
 91
1
 92
3
 72
0
 73
1
 93
48
 10
14.2
 20
225.034
 10
14.196
 20
224.969
 10
14.183
 20
224.905
 10
14.162
 20
224.843
 10
14.133
 20
224.784
 10
14.097
 20
224.73
 10
14.054
 20
224.68
 10
14.004
 20
224.637
 10
13.95
 20
224.601
 10
13.891
 20
224.572
 10
13.829
 20
224.551
 10
13.765
 20
224.538
 10
13.7
 20
224.534
 10
13.635
 20
224.538
 10
13.571
 20
224.551
 10
13.509
 20
224.572
 10
13.45
 20
224.601
 10
13.396
 20
224.637
 10
13.346
 20
224.68
 10
13.303
 20
224.73
 10
13.267
 20
224.784
 10
13.238
 20
224.843
 10
13.217
 20
224.905
 10
13.204
 20
224.969
 10
13.2
 20
225.034
 10
13.204
 20
225.099
 10
13.217
 20
225.163
 10
13.238
 20
225.225
 10
13.267
 20
225.284
 10
13.303
 20
225.338
 10
13.346
 20
225.388
 10
13.396
 20
225.431
 10
13.45
 20
225.467
 10
13.509
 20
225.496
 10
13.571
 20
225.517
 10
13.635
 20
225.53
 10
13.7
 20
225.534
 10
13.765
 20
225.53
 10
13.829
 20
225.517
 10
13.891
 20
225.496
 10
13.95
 20
225.467
 10
14.004
 20
225.431
 10
14.054
 20
225.388
 10
14.097
 20
225.338
 10
14.133
 20
225.284
 10
14.162
 20
225.225
 10
14.183
 20
225.163
 10
14.196
 20
225.099
 97
0
 75
0
 76
1
 98
0
  0
HATCH
  5
38
330
17
100
AcDbEntity
  8
RASTER
 62
7
100
AcDbHatch
 10
0.0
 20
0.0
 30
0.0
210
0.0
220
0.0
230
1.0
  2
SOLID
 70
1
 71
0
 91
1
 92
3
 72
0
 73
1
 93
48
 10
66.644
 20
225.034
 10
66.64
 20
224.969
 10
66.627
 20
224.905
 10
66.606
 20
224.843
 10
66.577
 20
224.784
 10
66.541
 20
224.73
 10
66.498
 20
224.68
 10
66.448
 20
224.637
 10
66.394
 20
224.601
 10
66.335
 20
224.572
 10
66.273
 20
224.551
 10
66.209
 20
224.538
 10
66.144
 20
224.534
 10
66.079
 20
224.538
 10
66.015
 20
224.551
 10
65.953
 20
224.572
 10
65.894
 20
224.601
 10
65.84
 20
224.637
 10
65.79
 20
224.68
 10
65.747
 20
224.73
 10
65.711
 20
224.784
 10
65.682
 20
224.843
 10
65.661
 20
224.905
 10
65.648
 20
224.969
 10
65.644
 20
225.034
 10
65.648
 20
225.099
 10
65.661
 20
225.163
 10
65.682
 20
225.225
 10
65.711
 20
225.284
 10
65.747
 20
225.338
 10
65.79
 20
225.388
 10
65.84
 20
225.431
 10
65.894
 20
225.467
 10
65.953
 20
225.496
 10
66.015
 20
225.517
 10
66.079
 20
225.53
 10
66.144
 20
225.534
 10
66.209
 20
225.53
 10
66.273
 20
225.517
 10
66.335
 20
225.496
 10
66.394
 20
225.467
 10
66.448
 20
225.431
 10
66.498
 20
225.388
 10
66.541
 20
225.338
 10
66.577
 20
225.284
 10
66.606
 20
225.225
 10
66.627
 20
225.163
 10
66.64
 20
225.099
 97
0
 75
0
 76
1
 98
0
  0
LWPOLYLINE
  5
39
330
17
100
AcDbEntity
  8
CUT
100
AcDbPolyline
 90
36
 70
1
 10
82.944
 20
231.224
 10
148.588
 20
231.224
 10
151.728
 20
231.224
 10
151.728
 20
228.844
 10
148.628
 20
228.844
 10
148.628
 20
226.624
 10
151.728
 20
226.624
 10
151.728
 20
224.244
 10
148.588
 20
224.244
 10
142.66
 20
224.244
 10
142.66
 20
221.144
 10
136.613
 20
221.144
 10
136.613
 20
224.244
 10
130.725
 20
224.244
 10
130.725
 20
221.144
 10
124.677
 20
221.144
 10
124.677
 20
224.244
 10
118.79
 20
224.244
 10
118.79
 20
221.144
 10
112.742
 20
221.144
 10
112.742
 20
224.244
 10
106.855
 20
224.244
 10
106.855
 20
221.144
 10
100.807
 20
221.144
 10
100.807
 20
224.244
 10
94.919
 20
224.244
 10
94.919
 20
221.144
 10
88.872
 20
221.144
 10
88.872
 20
224.244
 10
82.944
 20
224.244
 10
79.804
 20
224.244
 10
79.804
 20
226.624
 10
82.904
 20
226.624
 10
82.904
 20
228.844
 10
79.804
 20
228.844
 10
79.804
 20
231.224
  0
LWPOLYLINE
  5
3A
330
17
100
AcDbEntity
  8
CUT
100
AcDbPolyline
 90
4
 70
1
 10
87.984
 20
228.794
 10
143.548
 20
228.794
 10
143.548
 20
226.674
 10
87.984
 20
226.674
  0
HATCH
  5
3B
330
17
100
AcDbEntity
  8
RASTER
 62
7
100
AcDbHatch
 10
0.0
 20
0.0
 30
0.0
210
0.0
220
0.0
230
1.0
  2
SOLID
 70
1
 71
0
 91
1
 92
3
 72
0
 73
1
 93
4
 10
83.544
 20
230.784
 10
87.344
 20
230.784
 10
87.344
 20
224.684
 10
83.544
 20
224.684
 97
0
 75
0
 76
1
 98
0
  0
HATCH
  5
3C
330
17
100
AcDbEntity
  8
RASTER
 62
7
100
AcDbHatch
 10
0.0
 20
0.0
 30
0.0
210
0.0
220
0.0
230
1.0
  2
SOLID
 70
1
 71
0
 91
1
 92
3
 72
0
 73
1
 93
4
 10
144.188
 20
230.784
 10
147.988
 20
230.784
 10
147.988
 20
224.684
 10
144.188
 20
224.684
 97
0
 75
0
 76
1
 98
0
  0
HATCH
  5
3D
330
17
100
AcDbEntity
  8
RASTER
 62
7
100
AcDbHatch
 10
0.0
 20
0.0
 30
0.0
210
0.0
220
0.0
230
1.0
  2
SOLID
 70
1
 71
0
 91
1
 92
3
 72
0
 73
1
 93
48
 10
90.044
 20
230.434
 10
90.04
 20
230.369
 10
90.027
 20
230.305
 10
90.006
 20
230.243
 10
89.977
 20
230.184
 10
89.941
 20
230.13
 10
89.898
 20
230.08
 10
89.848
 20
230.037
 10
89.794
 20
230.001
 10
89.735
 20
229.972
 10
89.673
 20
229.951
 10
89.609
 20
229.938
 10
89.544
 20
229.934
 10
89.479
 20
229.938
 10
89.415
 20
229.951
 10
89.353
 20
229.972
 10
89.294
 20
230.001
 10
89.24
 20
230.037
 10
89.19
 20
230.08
 10
89.147
 20
230.13
 10
89.111
 20
230.184
 10
89.082
 20
230.243
 10
89.061
 20
230.305
 10
89.048
 20
230.369
 10
89.044
 20
230.434
 10
89.048
 20
230.499
 10
89.061
 20
230.563
 10
89.082
 20
230.625
 10
89.111
 20
230.684
 10
89.147
 20
230.738
 10
89.19
 20
230.788
 10
89.24
 20
230.831
 10
89.294
 20
230.867
 10
89.353
 20
230.896
 10
89.415
 20
230.917
 10
89.479
 20
230.93
 10
89.544
 20
230.934
 10
89.609
 20
230.93
 10
89.673
 20
230.917
 10
89.735
 20
230.896
 10
89.794
 20
230.867
 10
89.848
 20
230.831
 10
89.898
 20
230.788
 10
89.941
 20
230.738
 10
89.977
 20
230.684
 10
90.006
 20
230.625
 10
90.027
 20
230.563
 10
90.04
 20
230.499
 97
0
 75
0
 76
1
 98
0
  0
HATCH
  5
3E
330
17
100
AcDbEntity
  8
RASTER
 62
7
100
AcDbHatch
 10
0.0
 20
0.0
 30
0.0
210
0.0
220
0.0
230
1.0
  2
SOLID
 70
1
 71
0
 91
1
 92
3
 72
0
 73
1
 93
48
 10
142.488
 20
230.434
 10
142.484
 20
230.369
 10
142.471
 20
230.305
 10
142.45
 20
230.243
 10
142.421
 20
230.184
 10
142.385
 20
230.13
 10
142.342
 20
230.08
 10
142.292
 20
230.037
 10
142.238
 20
230.001
 10
142.179
 20
229.972
 10
142.117
 20
229.951
 10
142.053
 20
229.938
 10
141.988
 20
229.934
 10
141.923
 20
229.938
 10
141.859
 20
229.951
 10
141.797
 20
229.972
 10
141.738
 20
230.001
 10
141.684
 20
230.037
 10
141.634
 20
230.08
 10
141.591
 20
230.13
 10
141.555
 20
230.184
 10
141.526
 20
230.243
 10
141.505
 20
230.305
 10
141.492
 20
230.369
 10
141.488
 20
230.434
 10
141.492
 20
230.499
 10
141.505
 20
230.563
 10
141.526
 20
230.625
 10
141.555
 20
230.684
 10
141.591
 20
230.738
 10
141.634
 20
230.788
 10
141.684
 20
230.831
 10
141.738
 20
230.867
 10
141.797
 20
230.896
 10
141.859
 20
230.917
 10
141.923
 20
230.93
 10
141.988
 20
230.934
 10
142.053
 20
230.93
 10
142.117
 20
230.917
 10
142.179
 20
230.896
 10
142.238
 20
230.867
 10
142.292
 20
230.831
 10
142.342
 20
230.788
 10
142.385
 20
230.738
 10
142.421
 20
230.684
 10
142.45
 20
230.625
 10
142.471
 20
230.563
 10
142.484
 20
230.499
 97
0
 75
0
 76
1
 98
0
  0
HATCH
  5
3F
330
17
100
AcDbEntity
  8
RASTER
 62
7
100
AcDbHatch
 10
0.0
 20
0.0
 30
0.0
210
0.0
220
0.0
230
1.0
  2
SOLID
 70
1
 71
0
 91
1
 92
3
 72
0
 73
1
 93
48
 10
90.044
 20
225.034
 10
90.04
 20
224.969
 10
90.027
 20
224.905
 10
90.006
 20
224.843
 10
89.977
 20
224.784
 10
89.941
 20
224.73
 10
89.898
 20
224.68
 10
89.848
 20
224.637
 10
89.794
 20
224.601
 10
89.735
 20
224.572
 10
89.673
 20
224.551
 10
89.609
 20
224.538
 10
89.544
 20
224.534
 10
89.479
 20
224.538
 10
89.415
 20
224.551
 10
89.353
 20
224.572
 10
89.294
 20
224.601
 10
89.24
 20
224.637
 10
89.19
 20
224.68
 10
89.147
 20
224.73
 10
89.111
 20
224.784
 10
89.082
 20
224.843
 10
89.061
 20
224.905
 10
89.048
 20
224.969
 10
89.044
 20
225.034
 10
89.048
 20
225.099
 10
89.061
 20
225.163
 10
89.082
 20
225.225
 10
89.111
 20
225.284
 10
89.147
 20
225.338
 10
89.19
 20
225.388
 10
89.24
 20
225.431
 10
89.294
 20
225.467
 10
89.353
 20
225.496
 10
89.415
 20
225.517
 10
89.479
 20
225.53
 10
89.544
 20
225.534
 10
89.609
 20
225.53
 10
89.673
 20
225.517
 10
89.735
 20
225.496
 10
89.794
 20
225.467
 10
89.848
 20
225.431
 10
89.898
 20
225.388
 10
89.941
 20
225.338
 10
89.977
 20
225.284
 10
90.006
 20
225.225
 10
90.027
 20
225.163
 10
90.04
 20
225.099
 97
0
 75
0
 76
1
 98
0
  0
HATCH
  5
40
330
17
100
AcDbEntity
  8
RASTER
 62
7
100
AcDbHatch
 10
0.0
 20
0.0
 30
0.0
210
0.0
220
0.0
230
1.0
  2
SOLID
 70
1
 71
0
 91
1
 92
3
 72
0
 73
1
 93
48
 10
142.488
 20
225.034
 10
142.484
 20
224.969
 10
142.471
 20
224.905
 10
142.45
 20
224.843
 10
142.421
 20
224.784
 10
142.385
 20
224.73
 10
142.342
 20
224.68
 10
142.292
 20
224.637
 10
142.238
 20
224.601
 10
142.179
 20
224.572
 10
142.117
 20
224.551
 10
142.053
 20
224.538
 10
141.988
 20
224.534
 10
141.923
 20
224.538
 10
141.859
 20
224.551
 10
141.797
 20
224.572
 10
141.738
 20
224.601
 10
141.684
 20
224.637
 10
141.634
 20
224.68
 10
141.591
 20
224.73
 10
141.555
 20
224.784
 10
141.526
 20
224.843
 10
141.505
 20
224.905
 10
141.492
 20
224.969
 10
141.488
 20
225.034
 10
141.492
 20
225.099
 10
141.505
 20
225.163
 10
141.526
 20
225.225
 10
141.555
 20
225.284
 10
141.591
 20
225.338
 10
141.634
 20
225.388
 10
141.684
 20
225.431
 10
141.738
 20
225.467
 10
141.797
 20
225.496
 10
141.859
 20
225.517
 10
141.923
 20
225.53
 10
141.988
 20
225.534
 10
142.053
 20
225.53
 10
142.117
 20
225.517
 10
142.179
 20
225.496
 10
142.238
 20
225.467
 10
142.292
 20
225.431
 10
142.342
 20
225.388
 10
142.385
 20
225.338
 10
142.421
 20
225.284
 10
142.45
 20
225.225
 10
142.471
 20
225.163
 10
142.484
 20
225.099
 97
0
 75
0
 76
1
 98
0
  0
LWPOLYLINE
  5
41
330
17
100
AcDbEntity
  8
CUT
100
AcDbPolyline
 90
24
 70
1
 10
158.748
 20
231.224
 10
202.924
 20
231.224
 10
202.924
 20
228.924
 10
206.024
 20
228.924
 10
206.024
 20
226.544
 10
202.924
 20
226.544
 10
202.924
 20
224.244
 10
196.625
 20
224.244
 10
196.625
 20
221.144
 10
190.245
 20
221.144
 10
190.245
 20
224.244
 10
184.026
 20
224.244
 10
184.026
 20
221.144
 10
177.646
 20
221.144
 10
177.646
 20
224.244
 10
171.427
 20
224.244
 10
171.427
 20
221.144
 10
165.047
 20
221.144
 10
165.047
 20
224.244
 10
158.748
 20
224.244
 10
158.748
 20
226.544
 10
155.648
 20
226.544
 10
155.648
 20
228.924
 10
158.748
 20
228.924
  0
LWPOLYLINE
  5
42
330
17
100
AcDbEntity
  8
CUT
100
AcDbPolyline
 90
4
 70
1
 10
163.828
 20
228.794
 10
197.844
 20
228.794
 10
197.844
 20
226.674
 10
163.828
 20
226.674
  0
HATCH
  5
43
330
17
100
AcDbEntity
  8
RASTER
 62
7
100
AcDbHatch
 10
0.0
 20
0.0
 30
0.0
210
0.0
220
0.0
230
1.0
  2
SOLID
 70
1
 71
0
 91
1
 92
3
 72
0
 73
1
 93
4
 10
159.388
 20
230.784
 10
163.188
 20
230.784
 10
163.188
 20
224.684
 10
159.388
 20
224.684
 97
0
 75
0
 76
1
 98
0
  0
HATCH
  5
44
330
17
100
AcDbEntity
  8
RASTER
 62
7
100
AcDbHatch
 10
0.0
 20
0.0
 30
0.0
210
0.0
220
0.0
230
1.0
  2
SOLID
 70
1
 71
0
 91
1
 92
3
 72
0
 73
1
 93
4
 10
198.484
 20
230.784
 10
202.284
 20
230.784
 10
202.284
 20
224.684
 10
198.484
 20
224.684
 97
0
 75
0
 76
1
 98
0
  0
HATCH
  5
45
330
17
100
AcDbEntity
  8
RASTER
 62
7
100
AcDbHatch
 10
0.0
 20
0.0
 30
0.0
210
0.0
220
0.0
230
1.0
  2
SOLID
 70
1
 71
0
 91
1
 92
3
 72
0
 73
1
 93
48
 10
165.888
 20
230.434
 10
165.884
 20
230.369
 10
165.871
 20
230.305
 10
165.85
 20
230.243
 10
165.821
 20
230.184
 10
165.785
 20
230.13
 10
165.742
 20
230.08
 10
165.692
 20
230.037
 10
165.638
 20
230.001
 10
165.579
 20
229.972
 10
165.517
 20
229.951
 10
165.453
 20
229.938
 10
165.388
 20
229.934
 10
165.323
 20
229.938
 10
165.259
 20
229.951
 10
165.197
 20
229.972
 10
165.138
 20
230.001
 10
165.084
 20
230.037
 10
165.034
 20
230.08
 10
164.991
 20
230.13
 10
164.955
 20
230.184
 10
164.926
 20
230.243
 10
164.905
 20
230.305
 10
164.892
 20
230.369
 10
164.888
 20
230.434
 10
164.892
 20
230.499
 10
164.905
 20
230.563
 10
164.926
 20
230.625
 10
164.955
 20
230.684
 10
164.991
 20
230.738
 10
165.034
 20
230.788
 10
165.084
 20
230.831
 10
165.138
 20
230.867
 10
165.197
 20
230.896
 10
165.259
 20
230.917
 10
165.323
 20
230.93
 10
165.388
 20
230.934
 10
165.453
 20
230.93
 10
165.517
 20
230.917
 10
165.579
 20
230.896
 10
165.638
 20
230.867
 10
165.692
 20
230.831
 10
165.742
 20
230.788
 10
165.785
 20
230.738
 10
165.821
 20
230.684
 10
165.85
 20
230.625
 10
165.871
 20
230.563
 10
165.884
 20
230.499
 97
0
 75
0
 76
1
 98
0
  0
HATCH
  5
46
330
17
100
AcDbEntity
  8
RASTER
 62
7
100
AcDbHatch
 10
0.0
 20
0.0
 30
0.0
210
0.0
220
0.0
230
1.0
  2
SOLID
 70
1
 71
0
 91
1
 92
3
 72
0
 73
1
 93
48
 10
196.784
 20
230.434
 10
196.78
 20
230.369
 10
196.767
 20
230.305
 10
196.746
 20
230.243
 10
196.717
 20
230.184
 10
196.681
 20
230.13
 10
196.638
 20
230.08
 10
196.588
 20
230.037
 10
196.534
 20
230.001
 10
196.475
 20
229.972
 10
196.413
 20
229.951
 10
196.349
 20
229.938
 10
196.284
 20
229.934
 10
196.219
 20
229.938
 10
196.155
 20
229.951
 10
196.093
 20
229.972
 10
196.034
 20
230.001
 10
195.98
 20
230.037
 10
195.93
 20
230.08
 10
195.887
 20
230.13
 10
195.851
 20
230.184
 10
195.822
 20
230.243
 10
195.801
 20
230.305
 10
195.788
 20
230.369
 10
195.784
 20
230.434
 10
195.788
 20
230.499
 10
195.801
 20
230.563
 10
195.822
 20
230.625
 10
195.851
 20
230.684
 10
195.887
 20
230.738
 10
195.93
 20
230.788
 10
195.98
 20
230.831
 10
196.034
 20
230.867
 10
196.093
 20
230.896
 10
196.155
 20
230.917
 10
196.219
 20
230.93
 10
196.284
 20
230.934
 10
196.349
 20
230.93
 10
196.413
 20
230.917
 10
196.475
 20
230.896
 10
196.534
 20
230.867
 10
196.588
 20
230.831
 10
196.638
 20
230.788
 10
196.681
 20
230.738
 10
196.717
 20
230.684
 10
196.746
 20
230.625
 10
196.767
 20
230.563
 10
196.78
 20
230.499
 97
0
 75
0
 76
1
 98
0
  0
HATCH
  5
47
330
17
100
AcDbEntity
  8
RASTER
 62
7
100
AcDbHatch
 10
0.0
 20
0.0
 30
0.0
210
0.0
220
0.0
230
1.0
  2
SOLID
 70
1
 71
0
 91
1
 92
3
 72
0
 73
1
 93
48
 10
165.888
 20
225.034
 10
165.884
 20
224.969
 10
165.871
 20
224.905
 10
165.85
 20
224.843
 10
165.821
 20
224.784
 10
165.785
 20
224.73
 10
165.742
 20
224.68
 10
165.692
 20
224.637
 10
165.638
 20
224.601
 10
165.579
 20
224.572
 10
165.517
 20
224.551
 10
165.453
 20
224.538
 10
165.388
 20
224.534
 10
165.323
 20
224.538
 10
165.259
 20
224.551
 10
165.197
 20
224.572
 10
165.138
 20
224.601
 10
165.084
 20
224.637
 10
165.034
 20
224.68
 10
164.991
 20
224.73
 10
164.955
 20
224.784
 10
164.926
 20
224.843
 10
164.905
 20
224.905
 10
164.892
 20
224.969
 10
164.888
 20
225.034
 10
164.892
 20
225.099
 10
164.905
 20
225.163
 10
164.926
 20
225.225
 10
164.955
 20
225.284
 10
164.991
 20
225.338
 10
165.034
 20
225.388
 10
165.084
 20
225.431
 10
165.138
 20
225.467
 10
165.197
 20
225.496
 10
165.259
 20
225.517
 10
165.323
 20
225.53
 10
165.388
 20
225.534
 10
165.453
 20
225.53
 10
165.517
 20
225.517
 10
165.579
 20
225.496
 10
165.638
 20
225.467
 10
165.692
 20
225.431
 10
165.742
 20
225.388
 10
165.785
 20
225.338
 10
165.821
 20
225.284
 10
165.85
 20
225.225
 10
165.871
 20
225.163
 10
165.884
 20
225.099
 97
0
 75
0
 76
1
 98
0
  0
HATCH
  5
48
330
17
100
AcDbEntity
  8
RASTER
 62
7
100
AcDbHatch
 10
0.0
 20
0.0
 30
0.0
210
0.0
220
0.0
230
1.0
  2
SOLID
 70
1
 71
0
 91
1
 92
3
 72
0
 73
1
 93
48
 10
196.784
 20
225.034
 10
196.78
 20
224.969
 10
196.767
 20
224.905
 10
196.746
 20
224.843
 10
196.717
 20
224.784
 10
196.681
 20
224.73
 10
196.638
 20
224.68
 10
196.588
 20
224.637
 10
196.534
 20
224.601
 10
196.475
 20
224.572
 10
196.413
 20
224.551
 10
196.349
 20
224.538
 10
196.284
 20
224.534
 10
196.219
 20
224.538
 10
196.155
 20
224.551
 10
196.093
 20
224.572
 10
196.034
 20
224.601
 10
195.98
 20
224.637
 10
195.93
 20
224.68
 10
195.887
 20
224.73
 10
195.851
 20
224.784
 10
195.822
 20
224.843
 10
195.801
 20
224.905
 10
195.788
 20
224.969
 10
195.784
 20
225.034
 10
195.788
 20
225.099
 10
195.801
 20
225.163
 10
195.822
 20
225.225
 10
195.851
 20
225.284
 10
195.887
 20
225.338
 10
195.93
 20
225.388
 10
195.98
 20
225.431
 10
196.034
 20
225.467
 10
196.093
 20
225.496
 10
196.155
 20
225.517
 10
196.219
 20
225.53
 10
196.284
 20
225.534
 10
196.349
 20
225.53
 10
196.413
 20
225.517
 10
196.475
 20
225.496
 10
196.534
 20
225.467
 10
196.588
 20
225.431
 10
196.638
 20
225.388
 10
196.681
 20
225.338
 10
196.717
 20
225.284
 10
196.746
 20
225.225
 10
196.767
 20
225.163
 10
196.78
 20
225.099
 97
0
 75
0
 76
1
 98
0
  0
LWPOLYLINE
  5
49
330
17
100
AcDbEntity
  8
CUT
100
AcDbPolyline
 90
24
 70
1
 10
213.044
 20
231.224
 10
257.22
 20
231.224
 10
257.22
 20
228.924
 10
260.32
 20
228.924
 10
260.32
 20
226.544
 10
257.22
 20
226.544
 10
257.22
 20
224.244
 10
250.921
 20
224.244
 10
250.921
 20
221.144
 10
244.541
 20
221.144
 10
244.541
 20
224.244
 10
238.322
 20
224.244
 10
238.322
 20
221.144
 10
231.942
 20
221.144
 10
231.942
 20
224.244
 10
225.723
 20
224.244
 10
225.723
 20
221.144
 10
219.343
 20
221.144
 10
219.343
 20
224.244
 10
213.044
 20
224.244
 10
213.044
 20
226.544
 10
209.944
 20
226.544
 10
209.944
 20
228.924
 10
213.044
 20
228.924
  0
LWPOLYLINE
  5
4A
330
17
100
AcDbEntity
  8
CUT
100
AcDbPolyline
 90
4
 70
1
 10
218.124
 20
228.794
 10
252.14
 20
228.794
 10
252.14
 20
226.674
 10
218.124
 20
226.674
  0
HATCH
  5
4B
330
17
100
AcDbEntity
  8
RASTER
 62
7
100
AcDbHatch
 10
0.0
 20
0.0
 30
0.0
210
0.0
220
0.0
230
1.0
  2
SOLID
 70
1
 71
0
 91
1
 92
3
 72
0
 73
1
 93
4
 10
213.684
 20
230.784
 10
217.484
 20
230.784
 10
217.484
 20
224.684
 10
213.684
 20
224.684
 97
0
 75
0
 76
1
 98
0
  0
HATCH
  5
4C
330
17
100
AcDbEntity
  8
RASTER
 62
7
100
AcDbHatch
 10
0.0
 20
0.0
 30
0.0
210
0.0
220
0.0
230
1.0
  2
SOLID
 70
1
 71
0
 91
1
 92
3
 72
0
 73
1
 93
4
 10
252.78
 20
230.784
 10
256.58
 20
230.784
 10
256.58
 20
224.684
 10
252.78
 20
224.684
 97
0
 75
0
 76
1
 98
0
  0
HATCH
  5
4D
330
17
100
AcDbEntity
  8
RASTER
 62
7
100
AcDbHatch
 10
0.0
 20
0.0
 30
0.0
210
0.0
220
0.0
230
1.0
  2
SOLID
 70
1
 71
0
 91
1
 92
3
 72
0
 73
1
 93
48
 10
220.184
 20
230.434
 10
220.18
 20
230.369
 10
220.167
 20
230.305
 10
220.146
 20
230.243
 10
220.117
 20
230.184
 10
220.081
 20
230.13
 10
220.038
 20
230.08
 10
219.988
 20
230.037
 10
219.934
 20
230.001
 10
219.875
 20
229.972
 10
219.813
 20
229.951
 10
219.749
 20
229.938
 10
219.684
 20
229.934
 10
219.619
 20
229.938
 10
219.555
 20
229.951
 10
219.493
 20
229.972
 10
219.434
 20
230.001
 10
219.38
 20
230.037
 10
219.33
 20
230.08
 10
219.287
 20
230.13
 10
219.251
 20
230.184
 10
219.222
 20
230.243
 10
219.201
 20
230.305
 10
219.188
 20
230.369
 10
219.184
 20
230.434
 10
219.188
 20
230.499
 10
219.201
 20
230.563
 10
219.222
 20
230.625
 10
219.251
 20
230.684
 10
219.287
 20
230.738
 10
219.33
 20
230.788
 10
219.38
 20
230.831
 10
219.434
 20
230.867
 10
219.493
 20
230.896
 10
219.555
 20
230.917
 10
219.619
 20
230.93
 10
219.684
 20
230.934
 10
219.749
 20
230.93
 10
219.813
 20
230.917
 10
219.875
 20
230.896
 10
219.934
 20
230.867
 10
219.988
 20
230.831
 10
220.038
 20
230.788
 10
220.081
 20
230.738
 10
220.117
 20
230.684
 10
220.146
 20
230.625
 10
220.167
 20
230.563
 10
220.18
 20
230.499
 97
0
 75
0
 76
1
 98
0
  0
HATCH
  5
4E
330
17
100
AcDbEntity
  8
RASTER
 62
7
100
AcDbHatch
 10
0.0
 20
0.0
 30
0.0
210
0.0
220
0.0
230
1.0
  2
SOLID
 70
1
 71
0
 91
1
 92
3
 72
0
 73
1
 93
48
 10
251.08
 20
230.434
 10
251.076
 20
230.369
 10
251.063
 20
230.305
 10
251.042
 20
230.243
 10
251.013
 20
230.184
 10
250.977
 20
230.13
 10
250.934
 20
230.08
 10
250.884
 20
230.037
 10
250.83
 20
230.001
 10
250.771
 20
229.972
 10
250.709
 20
229.951
 10
250.645
 20
229.938
 10
250.58
 20
229.934
 10
250.515
 20
229.938
 10
250.451
 20
229.951
 10
250.389
 20
229.972
 10
250.33
 20
230.001
 10
250.276
 20
230.037
 10
250.226
 20
230.08
 10
250.183
 20
230.13
 10
250.147
 20
230.184
 10
250.118
 20
230.243
 10
250.097
 20
230.305
 10
250.084
 20
230.369
 10
250.08
 20
230.434
 10
250.084
 20
230.499
 10
250.097
 20
230.563
 10
250.118
 20
230.625
 10
250.147
 20
230.684
 10
250.183
 20
230.738
 10
250.226
 20
230.788
 10
250.276
 20
230.831
 10
250.33
 20
230.867
 10
250.389
 20
230.896
 10
250.451
 20
230.917
 10
250.515
 20
230.93
 10
250.58
 20
230.934
 10
250.645
 20
230.93
 10
250.709
 20
230.917
 10
250.771
 20
230.896
 10
250.83
 20
230.867
 10
250.884
 20
230.831
 10
250.934
 20
230.788
 10
250.977
 20
230.738
 10
251.013
 20
230.684
 10
251.042
 20
230.625
 10
251.063
 20
230.563
 10
251.076
 20
230.499
 97
0
 75
0
 76
1
 98
0
  0
HATCH
  5
4F
330
17
100
AcDbEntity
  8
RASTER
 62
7
100
AcDbHatch
 10
0.0
 20
0.0
 30
0.0
210
0.0
220
0.0
230
1.0
  2
SOLID
 70
1
 71
0
 91
1
 92
3
 72
0
 73
1
 93
48
 10
220.184
 20
225.034
 10
220.18
 20
224.969
 10
220.167
 20
224.905
 10
220.146
 20
224.843
 10
220.117
 20
224.784
 10
220.081
 20
224.73
 10
220.038
 20
224.68
 10
219.988
 20
224.637
 10
219.934
 20
224.601
 10
219.875
 20
224.572
 10
219.813
 20
224.551
 10
219.749
 20
224.538
 10
219.684
 20
224.534
 10
219.619
 20
224.538
 10
219.555
 20
224.551
 10
219.493
 20
224.572
 10
219.434
 20
224.601
 10
219.38
 20
224.637
 10
219.33
 20
224.68
 10
219.287
 20
224.73
 10
219.251
 20
224.784
 10
219.222
 20
224.843
 10
219.201
 20
224.905
 10
219.188
 20
224.969
 10
219.184
 20
225.034
 10
219.188
 20
225.099
 10
219.201
 20
225.163
 10
219.222
 20
225.225
 10
219.251
 20
225.284
 10
219.287
 20
225.338
 10
219.33
 20
225.388
 10
219.38
 20
225.431
 10
219.434
 20
225.467
 10
219.493
 20
225.496
 10
219.555
 20
225.517
 10
219.619
 20
225.53
 10
219.684
 20
225.534
 10
219.749
 20
225.53
 10
219.813
 20
225.517
 10
219.875
 20
225.496
 10
219.934
 20
225.467
 10
219.988
 20
225.431
 10
220.038
 20
225.388
 10
220.081
 20
225.338
 10
220.117
 20
225.284
 10
220.146
 20
225.225
 10
220.167
 20
225.163
 10
220.18
 20
225.099
 97
0
 75
0
 76
1
 98
0
  0
HATCH
  5
50
330
17
100
AcDbEntity
  8
RASTER
 62
7
100
AcDbHatch
 10
0.0
 20
0.0
 30
0.0
210
0.0
220
0.0
230
1.0
  2
SOLID
 70
1
 71
0
 91
1
 92
3
 72
0
 73
1
 93
48
 10
251.08
 20
225.034
 10
251.076
 20
224.969
 10
251.063
 20
224.905
 10
251.042
 20
224.843
 10
251.013
 20
224.784
 10
250.977
 20
224.73
 10
250.934
 20
224.68
 10
250.884
 20
224.637
 10
250.83
 20
224.601
 10
250.771
 20
224.572
 10
250.709
 20
224.551
 10
250.645
 20
224.538
 10
250.58
 20
224.534
 10
250.515
 20
224.538
 10
250.451
 20
224.551
 10
250.389
 20
224.572
 10
250.33
 20
224.601
 10
250.276
 20
224.637
 10
250.226
 20
224.68
 10
250.183
 20
224.73
 10
250.147
 20
224.784
 10
250.118
 20
224.843
 10
250.097
 20
224.905
 10
250.084
 20
224.969
 10
250.08
 20
225.034
 10
250.084
 20
225.099
 10
250.097
 20
225.163
 10
250.118
 20
225.225
 10
250.147
 20
225.284
 10
250.183
 20
225.338
 10
250.226
 20
225.388
 10
250.276
 20
225.431
 10
250.33
 20
225.467
 10
250.389
 20
225.496
 10
250.451
 20
225.517
 10
250.515
 20
225.53
 10
250.58
 20
225.534
 10
250.645
 20
225.53
 10
250.709
 20
225.517
 10
250.771
 20
225.496
 10
250.83
 20
225.467
 10
250.884
 20
225.431
 10
250.934
 20
225.388
 10
250.977
 20
225.338
 10
251.013
 20
225.284
 10
251.042
 20
225.225
 10
251.063
 20
225.163
 10
251.076
 20
225.099
 97
0
 75
0
 76
1
 98
0
  0
LWPOLYLINE
  5
51
330
17
100
AcDbEntity
  8
CUT
100
AcDbPolyline
 90
76
 70
1
 10
3.96
 20
217.224
 10
7.1
 20
217.224
 10
13.108
 20
217.224
 10
13.108
 20
214.124
 10
18.995
 20
214.124
 10
18.995
 20
217.224
 10
25.043
 20
217.224
 10
25.043
 20
214.124
 10
30.931
 20
214.124
 10
30.931
 20
217.224
 10
36.978
 20
217.224
 10
36.978
 20
214.124
 10
42.866
 20
214.124
 10
42.866
 20
217.224
 10
48.913
 20
217.224
 10
48.913
 20
214.124
 10
54.801
 20
214.124
 10
54.801
 20
217.224
 10
60.849
 20
217.224
 10
60.849
 20
214.124
 10
66.736
 20
214.124
 10
66.736
 20
217.224
 10
72.744
 20
217.224
 10
75.884
 20
217.224
 10
75.884
 20
214.084
 10
75.884
 20
207.745
 10
72.784
 20
207.745
 10
72.784
 20
201.525
 10
75.884
 20
201.525
 10
75.884
 20
195.146
 10
72.784
 20
195.146
 10
72.784
 20
188.926
 10
75.884
 20
188.926
 10
75.884
 20
182.547
 10
72.784
 20
182.547
 10
72.784
 20
176.327
 10
75.884
 20
176.327
 10
75.884
 20
169.988
 10
75.884
 20
166.848
 10
72.744
 20
166.848
 10
66.736
 20
166.848
 10
66.736
 20
169.948
 10
60.849
 20
169.948
 10
60.849
 20
166.848
 10
54.801
 20
166.848
 10
54.801
 20
169.948
 10
48.913
 20
169.948
 10
48.913
 20
166.848
 10
42.866
 20
166.848
 10
42.866
 20
169.948
 10
36.978
 20
169.948
 10
36.978
 20
166.848
 10
30.931
 20
166.848
 10
30.931
 20
169.948
 10
25.043
 20
169.948
 10
25.043
 20
166.848
 10
18.995
 20
166.848
 10
18.995
 20
169.948
 10
13.108
 20
169.948
 10
13.108
 20
166.848
 10
7.1
 20
166.848
 10
3.96
 20
166.848
 10
3.96
 20
169.988
 10
3.96
 20
176.327
 10
7.06
 20
176.327
 10
7.06
 20
182.547
 10
3.96
 20
182.547
 10
3.96
 20
188.926
 10
7.06
 20
188.926
 10
7.06
 20
195.146
 10
3.96
 20
195.146
 10
3.96
 20
201.525
 10
7.06
 20
201.525
 10
7.06
 20
207.745
 10
3.96
 20
207.745
 10
3.96
 20
214.084
  0
LWPOLYLINE
  5
52
330
17
100
AcDbEntity
  8
CUT
100
AcDbPolyline
 90
36
 70
1
 10
82.944
 20
217.224
 10
148.588
 20
217.224
 10
151.728
 20
217.224
 10
151.728
 20
214.844
 10
148.628
 20
214.844
 10
148.628
 20
212.624
 10
151.728
 20
212.624
 10
151.728
 20
210.244
 10
148.588
 20
210.244
 10
142.66
 20
210.244
 10
142.66
 20
207.144
 10
136.613
 20
207.144
 10
136.613
 20
210.244
 10
130.725
 20
210.244
 10
130.725
 20
207.144
 10
124.677
 20
207.144
 10
124.677
 20
210.244
 10
118.79
 20
210.244
 10
118.79
 20
207.144
 10
112.742
 20
207.144
 10
112.742
 20
210.244
 10
106.855
 20
210.244
 10
106.855
 20
207.144
 10
100.807
 20
207.144
 10
100.807
 20
210.244
 10
94.919
 20
210.244
 10
94.919
 20
207.144
 10
88.872
 20
207.144
 10
88.872
 20
210.244
 10
82.944
 20
210.244
 10
79.804
 20
210.244
 10
79.804
 20
212.624
 10
82.904
 20
212.624
 10
82.904
 20
214.844
 10
79.804
 20
214.844
 10
79.804
 20
217.224
  0
LWPOLYLINE
  5
53
330
17
100
AcDbEntity
  8
CUT
100
AcDbPolyline
 90
4
 70
1
 10
87.984
 20
214.794
 10
143.548
 20
214.794
 10
143.548
 20
212.674
 10
87.984
 20
212.674
  0
HATCH
  5
54
330
17
100
AcDbEntity
  8
RASTER
 62
7
100
AcDbHatch
 10
0.0
 20
0.0
 30
0.0
210
0.0
220
0.0
230
1.0
  2
SOLID
 70
1
 71
0
 91
1
 92
3
 72
0
 73
1
 93
4
 10
83.544
 20
216.784
 10
87.344
 20
216.784
 10
87.344
 20
210.684
 10
83.544
 20
210.684
 97
0
 75
0
 76
1
 98
0
  0
HATCH
  5
55
330
17
100
AcDbEntity
  8
RASTER
 62
7
100
AcDbHatch
 10
0.0
 20
0.0
 30
0.0
210
0.0
220
0.0
230
1.0
  2
SOLID
 70
1
 71
0
 91
1
 92
3
 72
0
 73
1
 93
4
 10
144.188
 20
216.784
 10
147.988
 20
216.784
 10
147.988
 20
210.684
 10
144.188
 20
210.684
 97
0
 75
0
 76
1
 98
0
  0
HATCH
  5
56
330
17
100
AcDbEntity
  8
RASTER
 62
7
100
AcDbHatch
 10
0.0
 20
0.0
 30
0.0
210
0.0
220
0.0
230
1.0
  2
SOLID
 70
1
 71
0
 91
1
 92
3
 72
0
 73
1
 93
48
 10
90.044
 20
216.434
 10
90.04
 20
216.369
 10
90.027
 20
216.305
 10
90.006
 20
216.243
 10
89.977
 20
216.184
 10
89.941
 20
216.13
 10
89.898
 20
216.08
 10
89.848
 20
216.037
 10
89.794
 20
216.001
 10
89.735
 20
215.972
 10
89.673
 20
215.951
 10
89.609
 20
215.938
 10
89.544
 20
215.934
 10
89.479
 20
215.938
 10
89.415
 20
215.951
 10
89.353
 20
215.972
 10
89.294
 20
216.001
 10
89.24
 20
216.037
 10
89.19
 20
216.08
 10
89.147
 20
216.13
 10
89.111
 20
216.184
 10
89.082
 20
216.243
 10
89.061
 20
216.305
 10
89.048
 20
216.369
 10
89.044
 20
216.434
 10
89.048
 20
216.499
 10
89.061
 20
216.563
 10
89.082
 20
216.625
 10
89.111
 20
216.684
 10
89.147
 20
216.738
 10
89.19
 20
216.788
 10
89.24
 20
216.831
 10
89.294
 20
216.867
 10
89.353
 20
216.896
 10
89.415
 20
216.917
 10
89.479
 20
216.93
 10
89.544
 20
216.934
 10
89.609
 20
216.93
 10
89.673
 20
216.917
 10
89.735
 20
216.896
 10
89.794
 20
216.867
 10
89.848
 20
216.831
 10
89.898
 20
216.788
 10
89.941
 20
216.738
 10
89.977
 20
216.684
 10
90.006
 20
216.625
 10
90.027
 20
216.563
 10
90.04
 20
216.499
 97
0
 75
0
 76
1
 98
0
  0
HATCH
  5
57
330
17
100
AcDbEntity
  8
RASTER
 62
7
100
AcDbHatch
 10
0.0
 20
0.0
 30
0.0
210
0.0
220
0.0
230
1.0
  2
SOLID
 70
1
 71
0
 91
1
 92
3
 72
0
 73
1
 93
48
 10
142.488
 20
216.434
 10
142.484
 20
216.369
 10
142.471
 20
216.305
 10
142.45
 20
216.243
 10
142.421
 20
216.184
 10
142.385
 20
216.13
 10
142.342
 20
216.08
 10
142.292
 20
216.037
 10
142.238
 20
216.001
 10
142.179
 20
215.972
 10
142.117
 20
215.951
 10
142.053
 20
215.938
 10
141.988
 20
215.934
 10
141.923
 20
215.938
 10
141.859
 20
215.951
 10
141.797
 20
215.972
 10
141.738
 20
216.001
 10
141.684
 20
216.037
 10
141.634
 20
216.08
 10
141.591
 20
216.13
 10
141.555
 20
216.184
 10
141.526
 20
216.243
 10
141.505
 20
216.305
 10
141.492
 20
216.369
 10
141.488
 20
216.434
 10
141.492
 20
216.499
 10
141.505
 20
216.563
 10
141.526
 20
216.625
 10
141.555
 20
216.684
 10
141.591
 20
216.738
 10
141.634
 20
216.788
 10
141.684
 20
216.831
 10
141.738
 20
216.867
 10
141.797
 20
216.896
 10
141.859
 20
216.917
 10
141.923
 20
216.93
 10
141.988
 20
216.934
 10
142.053
 20
216.93
 10
142.117
 20
216.917
 10
142.179
 20
216.896
 10
142.238
 20
216.867
 10
142.292
 20
216.831
 10
142.342
 20
216.788
 10
142.385
 20
216.738
 10
142.421
 20
216.684
 10
142.45
 20
216.625
 10
142.471
 20
216.563
 10
142.484
 20
216.499
 97
0
 75
0
 76
1
 98
0
  0
HATCH
  5
58
330
17
100
AcDbEntity
  8
RASTER
 62
7
100
AcDbHatch
 10
0.0
 20
0.0
 30
0.0
210
0.0
220
0.0
230
1.0
  2
SOLID
 70
1
 71
0
 91
1
 92
3
 72
0
 73
1
 93
48
 10
90.044
 20
211.034
 10
90.04
 20
210.969
 10
90.027
 20
210.905
 10
90.006
 20
210.843
 10
89.977
 20
210.784
 10
89.941
 20
210.73
 10
89.898
 20
210.68
 10
89.848
 20
210.637
 10
89.794
 20
210.601
 10
89.735
 20
210.572
 10
89.673
 20
210.551
 10
89.609
 20
210.538
 10
89.544
 20
210.534
 10
89.479
 20
210.538
 10
89.415
 20
210.551
 10
89.353
 20
210.572
 10
89.294
 20
210.601
 10
89.24
 20
210.637
 10
89.19
 20
210.68
 10
89.147
 20
210.73
 10
89.111
 20
210.784
 10
89.082
 20
210.843
 10
89.061
 20
210.905
 10
89.048
 20
210.969
 10
89.044
 20
211.034
 10
89.048
 20
211.099
 10
89.061
 20
211.163
 10
89.082
 20
211.225
 10
89.111
 20
211.284
 10
89.147
 20
211.338
 10
89.19
 20
211.388
 10
89.24
 20
211.431
 10
89.294
 20
211.467
 10
89.353
 20
211.496
 10
89.415
 20
211.517
 10
89.479
 20
211.53
 10
89.544
 20
211.534
 10
89.609
 20
211.53
 10
89.673
 20
211.517
 10
89.735
 20
211.496
 10
89.794
 20
211.467
 10
89.848
 20
211.431
 10
89.898
 20
211.388
 10
89.941
 20
211.338
 10
89.977
 20
211.284
 10
90.006
 20
211.225
 10
90.027
 20
211.163
 10
90.04
 20
211.099
 97
0
 75
0
 76
1
 98
0
  0
HATCH
  5
59
330
17
100
AcDbEntity
  8
RASTER
 62
7
100
AcDbHatch
 10
0.0
 20
0.0
 30
0.0
210
0.0
220
0.0
230
1.0
  2
SOLID
 70
1
 71
0
 91
1
 92
3
 72
0
 73
1
 93
48
 10
142.488
 20
211.034
 10
142.484
 20
210.969
 10
142.471
 20
210.905
 10
142.45
 20
210.843
 10
142.421
 20
210.784
 10
142.385
 20
210.73
 10
142.342
 20
210.68
 10
142.292
 20
210.637
 10
142.238
 20
210.601
 10
142.179
 20
210.572
 10
142.117
 20
210.551
 10
142.053
 20
210.538
 10
141.988
 20
210.534
 10
141.923
 20
210.538
 10
141.859
 20
210.551
 10
141.797
 20
210.572
 10
141.738
 20
210.601
 10
141.684
 20
210.637
 10
141.634
 20
210.68
 10
141.591
 20
210.73
 10
141.555
 20
210.784
 10
141.526
 20
210.843
 10
141.505
 20
210.905
 10
141.492
 20
210.969
 10
141.488
 20
211.034
 10
141.492
 20
211.099
 10
141.505
 20
211.163
 10
141.526
 20
211.225
 10
141.555
 20
211.284
 10
141.591
 20
211.338
 10
141.634
 20
211.388
 10
141.684
 20
211.431
 10
141.738
 20
211.467
 10
141.797
 20
211.496
 10
141.859
 20
211.517
 10
141.923
 20
211.53
 10
141.988
 20
211.534
 10
142.053
 20
211.53
 10
142.117
 20
211.517
 10
142.179
 20
211.496
 10
142.238
 20
211.467
 10
142.292
 20
211.431
 10
142.342
 20
211.388
 10
142.385
 20
211.338
 10
142.421
 20
211.284
 10
142.45
 20
211.225
 10
142.471
 20
211.163
 10
142.484
 20
211.099
 97
0
 75
0
 76
1
 98
0
  0
LWPOLYLINE
  5
5A
330
17
100
AcDbEntity
  8
CUT
100
AcDbPolyline
 90
36
 70
1
 10
158.788
 20
217.224
 10
224.432
 20
217.224
 10
227.572
 20
217.224
 10
227.572
 20
214.844
 10
224.472
 20
214.844
 10
224.472
 20
212.624
 10
227.572
 20
212.624
 10
227.572
 20
210.244
 10
224.432
 20
210.244
 10
218.504
 20
210.244
 10
218.504
 20
207.144
 10
212.457
 20
207.144
 10
212.457
 20
210.244
 10
206.569
 20
210.244
 10
206.569
 20
207.144
 10
200.521
 20
207.144
 10
200.521
 20
210.244
 10
194.634
 20
210.244
 10
194.634
 20
207.144
 10
188.586
 20
207.144
 10
188.586
 20
210.244
 10
182.699
 20
210.244
 10
182.699
 20
207.144
 10
176.651
 20
207.144
 10
176.651
 20
210.244
 10
170.763
 20
210.244
 10
170.763
 20
207.144
 10
164.716
 20
207.144
 10
164.716
 20
210.244
 10
158.788
 20
210.244
 10
155.648
 20
210.244
 10
155.648
 20
212.624
 10
158.748
 20
212.624
 10
158.748
 20
214.844
 10
155.648
 20
214.844
 10
155.648
 20
217.224
  0
LWPOLYLINE
  5
5B
330
17
100
AcDbEntity
  8
CUT
100
AcDbPolyline
 90
4
 70
1
 10
163.828
 20
214.794
 10
219.392
 20
214.794
 10
219.392
 20
212.674
 10
163.828
 20
212.674
  0
HATCH
  5
5C
330
17
100
AcDbEntity
  8
RASTER
 62
7
100
AcDbHatch
 10
0.0
 20
0.0
 30
0.0
210
0.0
220
0.0
230
1.0
  2
SOLID
 70
1
 71
0
 91
1
 92
3
 72
0
 73
1
 93
4
 10
159.388
 20
216.784
 10
163.188
 20
216.784
 10
163.188
 20
210.684
 10
159.388
 20
210.684
 97
0
 75
0
 76
1
 98
0
  0
HATCH
  5
5D
330
17
100
AcDbEntity
  8
RASTER
 62
7
100
AcDbHatch
 10
0.0
 20
0.0
 30
0.0
210
0.0
220
0.0
230
1.0
  2
SOLID
 70
1
 71
0
 91
1
 92
3
 72
0
 73
1
 93
4
 10
220.032
 20
216.784
 10
223.832
 20
216.784
 10
223.832
 20
210.684
 10
220.032
 20
210.684
 97
0
 75
0
 76
1
 98
0
  0
HATCH
  5
5E
330
17
100
AcDbEntity
  8
RASTER
 62
7
100
AcDbHatch
 10
0.0
 20
0.0
 30
0.0
210
0.0
220
0.0
230
1.0
  2
SOLID
 70
1
 71
0
 91
1
 92
3
 72
0
 73
1
 93
48
 10
165.888
 20
216.434
 10
165.884
 20
216.369
 10
165.871
 20
216.305
 10
165.85
 20
216.243
 10
165.821
 20
216.184
 10
165.785
 20
216.13
 10
165.742
 20
216.08
 10
165.692
 20
216.037
 10
165.638
 20
216.001
 10
165.579
 20
215.972
 10
165.517
 20
215.951
 10
165.453
 20
215.938
 10
165.388
 20
215.934
 10
165.323
 20
215.938
 10
165.259
 20
215.951
 10
165.197
 20
215.972
 10
165.138
 20
216.001
 10
165.084
 20
216.037
 10
165.034
 20
216.08
 10
164.991
 20
216.13
 10
164.955
 20
216.184
 10
164.926
 20
216.243
 10
164.905
 20
216.305
 10
164.892
 20
216.369
 10
164.888
 20
216.434
 10
164.892
 20
216.499
 10
164.905
 20
216.563
 10
164.926
 20
216.625
 10
164.955
 20
216.684
 10
164.991
 20
216.738
 10
165.034
 20
216.788
 10
165.084
 20
216.831
 10
165.138
 20
216.867
 10
165.197
 20
216.896
 10
165.259
 20
216.917
 10
165.323
 20
216.93
 10
165.388
 20
216.934
 10
165.453
 20
216.93
 10
165.517
 20
216.917
 10
165.579
 20
216.896
 10
165.638
 20
216.867
 10
165.692
 20
216.831
 10
165.742
 20
216.788
 10
165.785
 20
216.738
 10
165.821
 20
216.684
 10
165.85
 20
216.625
 10
165.871
 20
216.563
 10
165.884
 20
216.499
 97
0
 75
0
 76
1
 98
0
  0
HATCH
  5
5F
330
17
100
AcDbEntity
  8
RASTER
 62
7
100
AcDbHatch
 10
0.0
 20
0.0
 30
0.0
210
0.0
220
0.0
230
1.0
  2
SOLID
 70
1
 71
0
 91
1
 92
3
 72
0
 73
1
 93
48
 10
218.332
 20
216.434
 10
218.328
 20
216.369
 10
218.315
 20
216.305
 10
218.294
 20
216.243
 10
218.265
 20
216.184
 10
218.229
 20
216.13
 10
218.186
 20
216.08
 10
218.136
 20
216.037
 10
218.082
 20
216.001
 10
218.023
 20
215.972
 10
217.961
 20
215.951
 10
217.897
 20
215.938
 10
217.832
 20
215.934
 10
217.767
 20
215.938
 10
217.703
 20
215.951
 10
217.641
 20
215.972
 10
217.582
 20
216.001
 10
217.528
 20
216.037
 10
217.478
 20
216.08
 10
217.435
 20
216.13
 10
217.399
 20
216.184
 10
217.37
 20
216.243
 10
217.349
 20
216.305
 10
217.336
 20
216.369
 10
217.332
 20
216.434
 10
217.336
 20
216.499
 10
217.349
 20
216.563
 10
217.37
 20
216.625
 10
217.399
 20
216.684
 10
217.435
 20
216.738
 10
217.478
 20
216.788
 10
217.528
 20
216.831
 10
217.582
 20
216.867
 10
217.641
 20
216.896
 10
217.703
 20
216.917
 10
217.767
 20
216.93
 10
217.832
 20
216.934
 10
217.897
 20
216.93
 10
217.961
 20
216.917
 10
218.023
 20
216.896
 10
218.082
 20
216.867
 10
218.136
 20
216.831
 10
218.186
 20
216.788
 10
218.229
 20
216.738
 10
218.265
 20
216.684
 10
218.294
 20
216.625
 10
218.315
 20
216.563
 10
218.328
 20
216.499
 97
0
 75
0
 76
1
 98
0
  0
HATCH
  5
60
330
17
100
AcDbEntity
  8
RASTER
 62
7
100
AcDbHatch
 10
0.0
 20
0.0
 30
0.0
210
0.0
220
0.0
230
1.0
  2
SOLID
 70
1
 71
0
 91
1
 92
3
 72
0
 73
1
 93
48
 10
165.888
 20
211.034
 10
165.884
 20
210.969
 10
165.871
 20
210.905
 10
165.85
 20
210.843
 10
165.821
 20
210.784
 10
165.785
 20
210.73
 10
165.742
 20
210.68
 10
165.692
 20
210.637
 10
165.638
 20
210.601
 10
165.579
 20
210.572
 10
165.517
 20
210.551
 10
165.453
 20
210.538
 10
165.388
 20
210.534
 10
165.323
 20
210.538
 10
165.259
 20
210.551
 10
165.197
 20
210.572
 10
165.138
 20
210.601
 10
165.084
 20
210.637
 10
165.034
 20
210.68
 10
164.991
 20
210.73
 10
164.955
 20
210.784
 10
164.926
 20
210.843
 10
164.905
 20
210.905
 10
164.892
 20
210.969
 10
164.888
 20
211.034
 10
164.892
 20
211.099
 10
164.905
 20
211.163
 10
164.926
 20
211.225
 10
164.955
 20
211.284
 10
164.991
 20
211.338
 10
165.034
 20
211.388
 10
165.084
 20
211.431
 10
165.138
 20
211.467
 10
165.197
 20
211.496
 10
165.259
 20
211.517
 10
165.323
 20
211.53
 10
165.388
 20
211.534
 10
165.453
 20
211.53
 10
165.517
 20
211.517
 10
165.579
 20
211.496
 10
165.638
 20
211.467
 10
165.692
 20
211.431
 10
165.742
 20
211.388
 10
165.785
 20
211.338
 10
165.821
 20
211.284
 10
165.85
 20
211.225
 10
165.871
 20
211.163
 10
165.884
 20
211.099
 97
0
 75
0
 76
1
 98
0
  0
HATCH
  5
61
330
17
100
AcDbEntity
  8
RASTER
 62
7
100
AcDbHatch
 10
0.0
 20
0.0
 30
0.0
210
0.0
220
0.0
230
1.0
  2
SOLID
 70
1
 71
0
 91
1
 92
3
 72
0
 73
1
 93
48
 10
218.332
 20
211.034
 10
218.328
 20
210.969
 10
218.315
 20
210.905
 10
218.294
 20
210.843
 10
218.265
 20
210.784
 10
218.229
 20
210.73
 10
218.186
 20
210.68
 10
218.136
 20
210.637
 10
218.082
 20
210.601
 10
218.023
 20
210.572
 10
217.961
 20
210.551
 10
217.897
 20
210.538
 10
217.832
 20
210.534
 10
217.767
 20
210.538
 10
217.703
 20
210.551
 10
217.641
 20
210.572
 10
217.582
 20
210.601
 10
217.528
 20
210.637
 10
217.478
 20
210.68
 10
217.435
 20
210.73
 10
217.399
 20
210.784
 10
217.37
 20
210.843
 10
217.349
 20
210.905
 10
217.336
 20
210.969
 10
217.332
 20
211.034
 10
217.336
 20
211.099
 10
217.349
 20
211.163
 10
217.37
 20
211.225
 10
217.399
 20
211.284
 10
217.435
 20
211.338
 10
217.478
 20
211.388
 10
217.528
 20
211.431
 10
217.582
 20
211.467
 10
217.641
 20
211.496
 10
217.703
 20
211.517
 10
217.767
 20
211.53
 10
217.832
 20
211.534
 10
217.897
 20
211.53
 10
217.961
 20
211.517
 10
218.023
 20
211.496
 10
218.082
 20
211.467
 10
218.136
 20
211.431
 10
218.186
 20
211.388
 10
218.229
 20
211.338
 10
218.265
 20
211.284
 10
218.294
 20
211.225
 10
218.315
 20
211.163
 10
218.328
 20
211.099
 97
0
 75
0
 76
1
 98
0
  0
LWPOLYLINE
  5
62
330
17
100
AcDbEntity
  8
CUT
100
AcDbPolyline
 90
24
 70
1
 10
234.592
 20
217.224
 10
278.768
 20
217.224
 10
278.768
 20
214.924
 10
281.868
 20
214.924
 10
281.868
 20
212.544
 10
278.768
 20
212.544
 10
278.768
 20
210.244
 10
272.469
 20
210.244
 10
272.469
 20
207.144
 10
266.089
 20
207.144
 10
266.089
 20
210.244
 10
259.87
 20
210.244
 10
259.87
 20
207.144
 10
253.49
 20
207.144
 10
253.49
 20
210.244
 10
247.271
 20
210.244
 10
247.271
 20
207.144
 10
240.891
 20
207.144
 10
240.891
 20
210.244
 10
234.592
 20
210.244
 10
234.592
 20
212.544
 10
231.492
 20
212.544
 10
231.492
 20
214.924
 10
234.592
 20
214.924
  0
LWPOLYLINE
  5
63
330
17
100
AcDbEntity
  8
CUT
100
AcDbPolyline
 90
4
 70
1
 10
239.672
 20
214.794
 10
273.688
 20
214.794
 10
273.688
 20
212.674
 10
239.672
 20
212.674
  0
HATCH
  5
64
330
17
100
AcDbEntity
  8
RASTER
 62
7
100
AcDbHatch
 10
0.0
 20
0.0
 30
0.0
210
0.0
220
0.0
230
1.0
  2
SOLID
 70
1
 71
0
 91
1
 92
3
 72
0
 73
1
 93
4
 10
235.232
 20
216.784
 10
239.032
 20
216.784
 10
239.032
 20
210.684
 10
235.232
 20
210.684
 97
0
 75
0
 76
1
 98
0
  0
HATCH
  5
65
330
17
100
AcDbEntity
  8
RASTER
 62
7
100
AcDbHatch
 10
0.0
 20
0.0
 30
0.0
210
0.0
220
0.0
230
1.0
  2
SOLID
 70
1
 71
0
 91
1
 92
3
 72
0
 73
1
 93
4
 10
274.328
 20
216.784
 10
278.128
 20
216.784
 10
278.128
 20
210.684
 10
274.328
 20
210.684
 97
0
 75
0
 76
1
 98
0
  0
HATCH
  5
66
330
17
100
AcDbEntity
  8
RASTER
 62
7
100
AcDbHatch
 10
0.0
 20
0.0
 30
0.0
210
0.0
220
0.0
230
1.0
  2
SOLID
 70
1
 71
0
 91
1
 92
3
 72
0
 73
1
 93
48
 10
241.732
 20
216.434
 10
241.728
 20
216.369
 10
241.715
 20
216.305
 10
241.694
 20
216.243
 10
241.665
 20
216.184
 10
241.629
 20
216.13
 10
241.586
 20
216.08
 10
241.536
 20
216.037
 10
241.482
 20
216.001
 10
241.423
 20
215.972
 10
241.361
 20
215.951
 10
241.297
 20
215.938
 10
241.232
 20
215.934
 10
241.167
 20
215.938
 10
241.103
 20
215.951
 10
241.041
 20
215.972
 10
240.982
 20
216.001
 10
240.928
 20
216.037
 10
240.878
 20
216.08
 10
240.835
 20
216.13
 10
240.799
 20
216.184
 10
240.77
 20
216.243
 10
240.749
 20
216.305
 10
240.736
 20
216.369
 10
240.732
 20
216.434
 10
240.736
 20
216.499
 10
240.749
 20
216.563
 10
240.77
 20
216.625
 10
240.799
 20
216.684
 10
240.835
 20
216.738
 10
240.878
 20
216.788
 10
240.928
 20
216.831
 10
240.982
 20
216.867
 10
241.041
 20
216.896
 10
241.103
 20
216.917
 10
241.167
 20
216.93
 10
241.232
 20
216.934
 10
241.297
 20
216.93
 10
241.361
 20
216.917
 10
241.423
 20
216.896
 10
241.482
 20
216.867
 10
241.536
 20
216.831
 10
241.586
 20
216.788
 10
241.629
 20
216.738
 10
241.665
 20
216.684
 10
241.694
 20
216.625
 10
241.715
 20
216.563
 10
241.728
 20
216.499
 97
0
 75
0
 76
1
 98
0
  0
HATCH
  5
67
330
17
100
AcDbEntity
  8
RASTER
 62
7
100
AcDbHatch
 10
0.0
 20
0.0
 30
0.0
210
0.0
220
0.0
230
1.0
  2
SOLID
 70
1
 71
0
 91
1
 92
3
 72
0
 73
1
 93
48
 10
272.628
 20
216.434
 10
272.624
 20
216.369
 10
272.611
 20
216.305
 10
272.59
 20
216.243
 10
272.561
 20
216.184
 10
272.525
 20
216.13
 10
272.482
 20
216.08
 10
272.432
 20
216.037
 10
272.378
 20
216.001
 10
272.319
 20
215.972
 10
272.257
 20
215.951
 10
272.193
 20
215.938
 10
272.128
 20
215.934
 10
272.063
 20
215.938
 10
271.999
 20
215.951
 10
271.937
 20
215.972
 10
271.878
 20
216.001
 10
271.824
 20
216.037
 10
271.774
 20
216.08
 10
271.731
 20
216.13
 10
271.695
 20
216.184
 10
271.666
 20
216.243
 10
271.645
 20
216.305
 10
271.632
 20
216.369
 10
271.628
 20
216.434
 10
271.632
 20
216.499
 10
271.645
 20
216.563
 10
271.666
 20
216.625
 10
271.695
 20
216.684
 10
271.731
 20
216.738
 10
271.774
 20
216.788
 10
271.824
 20
216.831
 10
271.878
 20
216.867
 10
271.937
 20
216.896
 10
271.999
 20
216.917
 10
272.063
 20
216.93
 10
272.128
 20
216.934
 10
272.193
 20
216.93
 10
272.257
 20
216.917
 10
272.319
 20
216.896
 10
272.378
 20
216.867
 10
272.432
 20
216.831
 10
272.482
 20
216.788
 10
272.525
 20
216.738
 10
272.561
 20
216.684
 10
272.59
 20
216.625
 10
272.611
 20
216.563
 10
272.624
 20
216.499
 97
0
 75
0
 76
1
 98
0
  0
HATCH
  5
68
330
17
100
AcDbEntity
  8
RASTER
 62
7
100
AcDbHatch
 10
0.0
 20
0.0
 30
0.0
210
0.0
220
0.0
230
1.0
  2
SOLID
 70
1
 71
0
 91
1
 92
3
 72
0
 73
1
 93
48
 10
241.732
 20
211.034
 10
241.728
 20
210.969
 10
241.715
 20
210.905
 10
241.694
 20
210.843
 10
241.665
 20
210.784
 10
241.629
 20
210.73
 10
241.586
 20
210.68
 10
241.536
 20
210.637
 10
241.482
 20
210.601
 10
241.423
 20
210.572
 10
241.361
 20
210.551
 10
241.297
 20
210.538
 10
241.232
 20
210.534
 10
241.167
 20
210.538
 10
241.103
 20
210.551
 10
241.041
 20
210.572
 10
240.982
 20
210.601
 10
240.928
 20
210.637
 10
240.878
 20
210.68
 10
240.835
 20
210.73
 10
240.799
 20
210.784
 10
240.77
 20
210.843
 10
240.749
 20
210.905
 10
240.736
 20
210.969
 10
240.732
 20
211.034
 10
240.736
 20
211.099
 10
240.749
 20
211.163
 10
240.77
 20
211.225
 10
240.799
 20
211.284
 10
240.835
 20
211.338
 10
240.878
 20
211.388
 10
240.928
 20
211.431
 10
240.982
 20
211.467
 10
241.041
 20
211.496
 10
241.103
 20
211.517
 10
241.167
 20
211.53
 10
241.232
 20
211.534
 10
241.297
 20
211.53
 10
241.361
 20
211.517
 10
241.423
 20
211.496
 10
241.482
 20
211.467
 10
241.536
 20
211.431
 10
241.586
 20
211.388
 10
241.629
 20
211.338
 10
241.665
 20
211.284
 10
241.694
 20
211.225
 10
241.715
 20
211.163
 10
241.728
 20
211.099
 97
0
 75
0
 76
1
 98
0
  0
HATCH
  5
69
330
17
100
AcDbEntity
  8
RASTER
 62
7
100
AcDbHatch
 10
0.0
 20
0.0
 30
0.0
210
0.0
220
0.0
230
1.0
  2
SOLID
 70
1
 71
0
 91
1
 92
3
 72
0
 73
1
 93
48
 10
272.628
 20
211.034
 10
272.624
 20
210.969
 10
272.611
 20
210.905
 10
272.59
 20
210.843
 10
272.561
 20
210.784
 10
272.525
 20
210.73
 10
272.482
 20
210.68
 10
272.432
 20
210.637
 10
272.378
 20
210.601
 10
272.319
 20
210.572
 10
272.257
 20
210.551
 10
272.193
 20
210.538
 10
272.128
 20
210.534
 10
272.063
 20
210.538
 10
271.999
 20
210.551
 10
271.937
 20
210.572
 10
271.878
 20
210.601
 10
271.824
 20
210.637
 10
271.774
 20
210.68
 10
271.731
 20
210.73
 10
271.695
 20
210.784
 10
271.666
 20
210.843
 10
271.645
 20
210.905
 10
271.632
 20
210.969
 10
271.628
 20
211.034
 10
271.632
 20
211.099
 10
271.645
 20
211.163
 10
271.666
 20
211.225
 10
271.695
 20
211.284
 10
271.731
 20
211.338
 10
271.774
 20
211.388
 10
271.824
 20
211.431
 10
271.878
 20
211.467
 10
271.937
 20
211.496
 10
271.999
 20
211.517
 10
272.063
 20
211.53
 10
272.128
 20
211.534
 10
272.193
 20
211.53
 10
272.257
 20
211.517
 10
272.319
 20
211.496
 10
272.378
 20
211.467
 10
272.432
 20
211.431
 10
272.482
 20
211.388
 10
272.525
 20
211.338
 10
272.561
 20
211.284
 10
272.59
 20
211.225
 10
272.611
 20
211.163
 10
272.624
 20
211.099
 97
0
 75
0
 76
1
 98
0
  0
LWPOLYLINE
  5
6A
330
17
100
AcDbEntity
  8
CUT
100
AcDbPolyline
 90
24
 70
1
 10
7.06
 20
162.928
 10
51.236
 20
162.928
 10
51.236
 20
160.628
 10
54.336
 20
160.628
 10
54.336
 20
158.248
 10
51.236
 20
158.248
 10
51.236
 20
155.948
 10
44.937
 20
155.948
 10
44.937
 20
152.848
 10
38.557
 20
152.848
 10
38.557
 20
155.948
 10
32.338
 20
155.948
 10
32.338
 20
152.848
 10
25.958
 20
152.848
 10
25.958
 20
155.948
 10
19.739
 20
155.948
 10
19.739
 20
152.848
 10
13.359
 20
152.848
 10
13.359
 20
155.948
 10
7.06
 20
155.948
 10
7.06
 20
158.248
 10
3.96
 20
158.248
 10
3.96
 20
160.628
 10
7.06
 20
160.628
  0
LWPOLYLINE
  5
6B
330
17
100
AcDbEntity
  8
CUT
100
AcDbPolyline
 90
4
 70
1
 10
12.14
 20
160.498
 10
46.156
 20
160.498
 10
46.156
 20
158.378
 10
12.14
 20
158.378
  0
HATCH
  5
6C
330
17
100
AcDbEntity
  8
RASTER
 62
7
100
AcDbHatch
 10
0.0
 20
0.0
 30
0.0
210
0.0
220
0.0
230
1.0
  2
SOLID
 70
1
 71
0
 91
1
 92
3
 72
0
 73
1
 93
4
 10
7.7
 20
162.488
 10
11.5
 20
162.488
 10
11.5
 20
156.388
 10
7.7
 20
156.388
 97
0
 75
0
 76
1
 98
0
  0
HATCH
  5
6D
330
17
100
AcDbEntity
  8
RASTER
 62
7
100
AcDbHatch
 10
0.0
 20
0.0
 30
0.0
210
0.0
220
0.0
230
1.0
  2
SOLID
 70
1
 71
0
 91
1
 92
3
 72
0
 73
1
 93
4
 10
46.796
 20
162.488
 10
50.596
 20
162.488
 10
50.596
 20
156.388
 10
46.796
 20
156.388
 97
0
 75
0
 76
1
 98
0
  0
HATCH
  5
6E
330
17
100
AcDbEntity
  8
RASTER
 62
7
100
AcDbHatch
 10
0.0
 20
0.0
 30
0.0
210
0.0
220
0.0
230
1.0
  2
SOLID
 70
1
 71
0
 91
1
 92
3
 72
0
 73
1
 93
48
 10
14.2
 20
162.138
 10
14.196
 20
162.073
 10
14.183
 20
162.009
 10
14.162
 20
161.947
 10
14.133
 20
161.888
 10
14.097
 20
161.834
 10
14.054
 20
161.784
 10
14.004
 20
161.741
 10
13.95
 20
161.705
 10
13.891
 20
161.676
 10
13.829
 20
161.655
 10
13.765
 20
161.642
 10
13.7
 20
161.638
 10
13.635
 20
161.642
 10
13.571
 20
161.655
 10
13.509
 20
161.676
 10
13.45
 20
161.705
 10
13.396
 20
161.741
 10
13.346
 20
161.784
 10
13.303
 20
161.834
 10
13.267
 20
161.888
 10
13.238
 20
161.947
 10
13.217
 20
162.009
 10
13.204
 20
162.073
 10
13.2
 20
162.138
 10
13.204
 20
162.203
 10
13.217
 20
162.267
 10
13.238
 20
162.329
 10
13.267
 20
162.388
 10
13.303
 20
162.442
 10
13.346
 20
162.492
 10
13.396
 20
162.535
 10
13.45
 20
162.571
 10
13.509
 20
162.6
 10
13.571
 20
162.621
 10
13.635
 20
162.634
 10
13.7
 20
162.638
 10
13.765
 20
162.634
 10
13.829
 20
162.621
 10
13.891
 20
162.6
 10
13.95
 20
162.571
 10
14.004
 20
162.535
 10
14.054
 20
162.492
 10
14.097
 20
162.442
 10
14.133
 20
162.388
 10
14.162
 20
162.329
 10
14.183
 20
162.267
 10
14.196
 20
162.203
 97
0
 75
0
 76
1
 98
0
  0
HATCH
  5
6F
330
17
100
AcDbEntity
  8
RASTER
 62
7
100
AcDbHatch
 10
0.0
 20
0.0
 30
0.0
210
0.0
220
0.0
230
1.0
  2
SOLID
 70
1
 71
0
 91
1
 92
3
 72
0
 73
1
 93
48
 10
45.096
 20
162.138
 10
45.092
 20
162.073
 10
45.079
 20
162.009
 10
45.058
 20
161.947
 10
45.029
 20
161.888
 10
44.993
 20
161.834
 10
44.95
 20
161.784
 10
44.9
 20
161.741
 10
44.846
 20
161.705
 10
44.787
 20
161.676
 10
44.725
 20
161.655
 10
44.661
 20
161.642
 10
44.596
 20
161.638
 10
44.531
 20
161.642
 10
44.467
 20
161.655
 10
44.405
 20
161.676
 10
44.346
 20
161.705
 10
44.292
 20
161.741
 10
44.242
 20
161.784
 10
44.199
 20
161.834
 10
44.163
 20
161.888
 10
44.134
 20
161.947
 10
44.113
 20
162.009
 10
44.1
 20
162.073
 10
44.096
 20
162.138
 10
44.1
 20
162.203
 10
44.113
 20
162.267
 10
44.134
 20
162.329
 10
44.163
 20
162.388
 10
44.199
 20
162.442
 10
44.242
 20
162.492
 10
44.292
 20
162.535
 10
44.346
 20
162.571
 10
44.405
 20
162.6
 10
44.467
 20
162.621
 10
44.531
 20
162.634
 10
44.596
 20
162.638
 10
44.661
 20
162.634
 10
44.725
 20
162.621
 10
44.787
 20
162.6
 10
44.846
 20
162.571
 10
44.9
 20
162.535
 10
44.95
 20
162.492
 10
44.993
 20
162.442
 10
45.029
 20
162.388
 10
45.058
 20
162.329
 10
45.079
 20
162.267
 10
45.092
 20
162.203
 97
0
 75
0
 76
1
 98
0
  0
HATCH
  5
70
330
17
100
AcDbEntity
  8
RASTER
 62
7
100
AcDbHatch
 10
0.0
 20
0.0
 30
0.0
210
0.0
220
0.0
230
1.0
  2
SOLID
 70
1
 71
0
 91
1
 92
3
 72
0
 73
1
 93
48
 10
14.2
 20
156.738
 10
14.196
 20
156.673
 10
14.183
 20
156.609
 10
14.162
 20
156.547
 10
14.133
 20
156.488
 10
14.097
 20
156.434
 10
14.054
 20
156.384
 10
14.004
 20
156.341
 10
13.95
 20
156.305
 10
13.891
 20
156.276
 10
13.829
 20
156.255
 10
13.765
 20
156.242
 10
13.7
 20
156.238
 10
13.635
 20
156.242
 10
13.571
 20
156.255
 10
13.509
 20
156.276
 10
13.45
 20
156.305
 10
13.396
 20
156.341
 10
13.346
 20
156.384
 10
13.303
 20
156.434
 10
13.267
 20
156.488
 10
13.238
 20
156.547
 10
13.217
 20
156.609
 10
13.204
 20
156.673
 10
13.2
 20
156.738
 10
13.204
 20
156.803
 10
13.217
 20
156.867
 10
13.238
 20
156.929
 10
13.267
 20
156.988
 10
13.303
 20
157.042
 10
13.346
 20
157.092
 10
13.396
 20
157.135
 10
13.45
 20
157.171
 10
13.509
 20
157.2
 10
13.571
 20
157.221
 10
13.635
 20
157.234
 10
13.7
 20
157.238
 10
13.765
 20
157.234
 10
13.829
 20
157.221
 10
13.891
 20
157.2
 10
13.95
 20
157.171
 10
14.004
 20
157.135
 10
14.054
 20
157.092
 10
14.097
 20
157.042
 10
14.133
 20
156.988
 10
14.162
 20
156.929
 10
14.183
 20
156.867
 10
14.196
 20
156.803
 97
0
 75
0
 76
1
 98
0
  0
HATCH
  5
71
330
17
100
AcDbEntity
  8
RASTER
 62
7
100
AcDbHatch
 10
0.0
 20
0.0
 30
0.0
210
0.0
220
0.0
230
1.0
  2
SOLID
 70
1
 71
0
 91
1
 92
3
 72
0
 73
1
 93
48
 10
45.096
 20
156.738
 10
45.092
 20
156.673
 10
45.079
 20
156.609
 10
45.058
 20
156.547
 10
45.029
 20
156.488
 10
44.993
 20
156.434
 10
44.95
 20
156.384
 10
44.9
 20
156.341
 10
44.846
 20
156.305
 10
44.787
 20
156.276
 10
44.725
 20
156.255
 10
44.661
 20
156.242
 10
44.596
 20
156.238
 10
44.531
 20
156.242
 10
44.467
 20
156.255
 10
44.405
 20
156.276
 10
44.346
 20
156.305
 10
44.292
 20
156.341
 10
44.242
 20
156.384
 10
44.199
 20
156.434
 10
44.163
 20
156.488
 10
44.134
 20
156.547
 10
44.113
 20
156.609
 10
44.1
 20
156.673
 10
44.096
 20
156.738
 10
44.1
 20
156.803
 10
44.113
 20
156.867
 10
44.134
 20
156.929
 10
44.163
 20
156.988
 10
44.199
 20
157.042
 10
44.242
 20
157.092
 10
44.292
 20
157.135
 10
44.346
 20
157.171
 10
44.405
 20
157.2
 10
44.467
 20
157.221
 10
44.531
 20
157.234
 10
44.596
 20
157.238
 10
44.661
 20
157.234
 10
44.725
 20
157.221
 10
44.787
 20
157.2
 10
44.846
 20
157.171
 10
44.9
 20
157.135
 10
44.95
 20
157.092
 10
44.993
 20
157.042
 10
45.029
 20
156.988
 10
45.058
 20
156.929
 10
45.079
 20
156.867
 10
45.092
 20
156.803
 97
0
 75
0
 76
1
 98
0
  0
LWPOLYLINE
  5
72
330
17
100
AcDbEntity
  8
CUT
100
AcDbPolyline
 90
76
 70
1
 10
58.256
 20
162.928
 10
61.396
 20
162.928
 10
67.404
 20
162.928
 10
67.404
 20
159.828
 10
73.291
 20
159.828
 10
73.291
 20
162.928
 10
79.339
 20
162.928
 10
79.339
 20
159.828
 10
85.227
 20
159.828
 10
85.227
 20
162.928
 10
91.274
 20
162.928
 10
91.274
 20
159.828
 10
97.162
 20
159.828
 10
97.162
 20
162.928
 10
103.209
 20
162.928
 10
103.209
 20
159.828
 10
109.097
 20
159.828
 10
109.097
 20
162.928
 10
115.145
 20
162.928
 10
115.145
 20
159.828
 10
121.032
 20
159.828
 10
121.032
 20
162.928
 10
127.04
 20
162.928
 10
130.18
 20
162.928
 10
130.18
 20
159.788
 10
130.18
 20
153.449
 10
127.08
 20
153.449
 10
127.08
 20
147.229
 10
130.18
 20
147.229
 10
130.18
 20
140.85
 10
127.08
 20
140.85
 10
127.08
 20
134.63
 10
130.18
 20
134.63
 10
130.18
 20
128.251
 10
127.08
 20
128.251
 10
127.08
 20
122.031
 10
130.18
 20
122.031
 10
130.18
 20
115.692
 10
130.18
 20
112.552
 10
127.04
 20
112.552
 10
121.032
 20
112.552
 10
121.032
 20
115.652
 10
115.145
 20
115.652
 10
115.145
 20
112.552
 10
109.097
 20
112.552
 10
109.097
 20
115.652
 10
103.209
 20
115.652
 10
103.209
 20
112.552
 10
97.162
 20
112.552
 10
97.162
 20
115.652
 10
91.274
 20
115.652
 10
91.274
 20
112.552
 10
85.227
 20
112.552
 10
85.227
 20
115.652
 10
79.339
 20
115.652
 10
79.339
 20
112.552
 10
73.291
 20
112.552
 10
73.291
 20
115.652
 10
67.404
 20
115.652
 10
67.404
 20
112.552
 10
61.396
 20
112.552
 10
58.256
 20
112.552
 10
58.256
 20
115.692
 10
58.256
 20
122.031
 10
61.356
 20
122.031
 10
61.356
 20
128.251
 10
58.256
 20
128.251
 10
58.256
 20
134.63
 10
61.356
 20
134.63
 10
61.356
 20
140.85
 10
58.256
 20
140.85
 10
58.256
 20
147.229
 10
61.356
 20
147.229
 10
61.356
 20
153.449
 10
58.256
 20
153.449
 10
58.256
 20
159.788
  0
LWPOLYLINE
  5
73
330
17
100
AcDbEntity
  8
CUT
100
AcDbPolyline
 90
36
 70
1
 10
137.24
 20
162.928
 10
202.884
 20
162.928
 10
206.024
 20
162.928
 10
206.024
 20
160.548
 10
202.924
 20
160.548
 10
202.924
 20
158.328
 10
206.024
 20
158.328
 10
206.024
 20
155.948
 10
202.884
 20
155.948
 10
196.956
 20
155.948
 10
196.956
 20
152.848
 10
190.909
 20
152.848
 10
190.909
 20
155.948
 10
185.021
 20
155.948
 10
185.021
 20
152.848
 10
178.973
 20
152.848
 10
178.973
 20
155.948
 10
173.086
 20
155.948
 10
173.086
 20
152.848
 10
167.038
 20
152.848
 10
167.038
 20
155.948
 10
161.151
 20
155.948
 10
161.151
 20
152.848
 10
155.103
 20
152.848
 10
155.103
 20
155.948
 10
149.215
 20
155.948
 10
149.215
 20
152.848
 10
143.168
 20
152.848
 10
143.168
 20
155.948
 10
137.24
 20
155.948
 10
134.1
 20
155.948
 10
134.1
 20
158.328
 10
137.2
 20
158.328
 10
137.2
 20
160.548
 10
134.1
 20
160.548
 10
134.1
 20
162.928
  0
LWPOLYLINE
  5
74
330
17
100
AcDbEntity
  8
CUT
100
AcDbPolyline
 90
4
 70
1
 10
142.28
 20
160.498
 10
197.844
 20
160.498
 10
197.844
 20
158.378
 10
142.28
 20
158.378
  0
HATCH
  5
75
330
17
100
AcDbEntity
  8
RASTER
 62
7
100
AcDbHatch
 10
0.0
 20
0.0
 30
0.0
210
0.0
220
0.0
230
1.0
  2
SOLID
 70
1
 71
0
 91
1
 92
3
 72
0
 73
1
 93
4
 10
137.84
 20
162.488
 10
141.64
 20
162.488
 10
141.64
 20
156.388
 10
137.84
 20
156.388
 97
0
 75
0
 76
1
 98
0
  0
HATCH
  5
76
330
17
100
AcDbEntity
  8
RASTER
 62
7
100
AcDbHatch
 10
0.0
 20
0.0
 30
0.0
210
0.0
220
0.0
230
1.0
  2
SOLID
 70
1
 71
0
 91
1
 92
3
 72
0
 73
1
 93
4
 10
198.484
 20
162.488
 10
202.284
 20
162.488
 10
202.284
 20
156.388
 10
198.484
 20
156.388
 97
0
 75
0
 76
1
 98
0
  0
HATCH
  5
77
330
17
100
AcDbEntity
  8
RASTER
 62
7
100
AcDbHatch
 10
0.0
 20
0.0
 30
0.0
210
0.0
220
0.0
230
1.0
  2
SOLID
 70
1
 71
0
 91
1
 92
3
 72
0
 73
1
 93
48
 10
144.34
 20
162.138
 10
144.336
 20
162.073
 10
144.323
 20
162.009
 10
144.302
 20
161.947
 10
144.273
 20
161.888
 10
144.237
 20
161.834
 10
144.194
 20
161.784
 10
144.144
 20
161.741
 10
144.09
 20
161.705
 10
144.031
 20
161.676
 10
143.969
 20
161.655
 10
143.905
 20
161.642
 10
143.84
 20
161.638
 10
143.775
 20
161.642
 10
143.711
 20
161.655
 10
143.649
 20
161.676
 10
143.59
 20
161.705
 10
143.536
 20
161.741
 10
143.486
 20
161.784
 10
143.443
 20
161.834
 10
143.407
 20
161.888
 10
143.378
 20
161.947
 10
143.357
 20
162.009
 10
143.344
 20
162.073
 10
143.34
 20
162.138
 10
143.344
 20
162.203
 10
143.357
 20
162.267
 10
143.378
 20
162.329
 10
143.407
 20
162.388
 10
143.443
 20
162.442
 10
143.486
 20
162.492
 10
143.536
 20
162.535
 10
143.59
 20
162.571
 10
143.649
 20
162.6
 10
143.711
 20
162.621
 10
143.775
 20
162.634
 10
143.84
 20
162.638
 10
143.905
 20
162.634
 10
143.969
 20
162.621
 10
144.031
 20
162.6
 10
144.09
 20
162.571
 10
144.144
 20
162.535
 10
144.194
 20
162.492
 10
144.237
 20
162.442
 10
144.273
 20
162.388
 10
144.302
 20
162.329
 10
144.323
 20
162.267
 10
144.336
 20
162.203
 97
0
 75
0
 76
1
 98
0
  0
HATCH
  5
78
330
17
100
AcDbEntity
  8
RASTER
 62
7
100
AcDbHatch
 10
0.0
 20
0.0
 30
0.0
210
0.0
220
0.0
230
1.0
  2
SOLID
 70
1
 71
0
 91
1
 92
3
 72
0
 73
1
 93
48
 10
196.784
 20
162.138
 10
196.78
 20
162.073
 10
196.767
 20
162.009
 10
196.746
 20
161.947
 10
196.717
 20
161.888
 10
196.681
 20
161.834
 10
196.638
 20
161.784
 10
196.588
 20
161.741
 10
196.534
 20
161.705
 10
196.475
 20
161.676
 10
196.413
 20
161.655
 10
196.349
 20
161.642
 10
196.284
 20
161.638
 10
196.219
 20
161.642
 10
196.155
 20
161.655
 10
196.093
 20
161.676
 10
196.034
 20
161.705
 10
195.98
 20
161.741
 10
195.93
 20
161.784
 10
195.887
 20
161.834
 10
195.851
 20
161.888
 10
195.822
 20
161.947
 10
195.801
 20
162.009
 10
195.788
 20
162.073
 10
195.784
 20
162.138
 10
195.788
 20
162.203
 10
195.801
 20
162.267
 10
195.822
 20
162.329
 10
195.851
 20
162.388
 10
195.887
 20
162.442
 10
195.93
 20
162.492
 10
195.98
 20
162.535
 10
196.034
 20
162.571
 10
196.093
 20
162.6
 10
196.155
 20
162.621
 10
196.219
 20
162.634
 10
196.284
 20
162.638
 10
196.349
 20
162.634
 10
196.413
 20
162.621
 10
196.475
 20
162.6
 10
196.534
 20
162.571
 10
196.588
 20
162.535
 10
196.638
 20
162.492
 10
196.681
 20
162.442
 10
196.717
 20
162.388
 10
196.746
 20
162.329
 10
196.767
 20
162.267
 10
196.78
 20
162.203
 97
0
 75
0
 76
1
 98
0
  0
HATCH
  5
79
330
17
100
AcDbEntity
  8
RASTER
 62
7
100
AcDbHatch
 10
0.0
 20
0.0
 30
0.0
210
0.0
220
0.0
230
1.0
  2
SOLID
 70
1
 71
0
 91
1
 92
3
 72
0
 73
1
 93
48
 10
144.34
 20
156.738
 10
144.336
 20
156.673
 10
144.323
 20
156.609
 10
144.302
 20
156.547
 10
144.273
 20
156.488
 10
144.237
 20
156.434
 10
144.194
 20
156.384
 10
144.144
 20
156.341
 10
144.09
 20
156.305
 10
144.031
 20
156.276
 10
143.969
 20
156.255
 10
143.905
 20
156.242
 10
143.84
 20
156.238
 10
143.775
 20
156.242
 10
143.711
 20
156.255
 10
143.649
 20
156.276
 10
143.59
 20
156.305
 10
143.536
 20
156.341
 10
143.486
 20
156.384
 10
143.443
 20
156.434
 10
143.407
 20
156.488
 10
143.378
 20
156.547
 10
143.357
 20
156.609
 10
143.344
 20
156.673
 10
143.34
 20
156.738
 10
143.344
 20
156.803
 10
143.357
 20
156.867
 10
143.378
 20
156.929
 10
143.407
 20
156.988
 10
143.443
 20
157.042
 10
143.486
 20
157.092
 10
143.536
 20
157.135
 10
143.59
 20
157.171
 10
143.649
 20
157.2
 10
143.711
 20
157.221
 10
143.775
 20
157.234
 10
143.84
 20
157.238
 10
143.905
 20
157.234
 10
143.969
 20
157.221
 10
144.031
 20
157.2
 10
144.09
 20
157.171
 10
144.144
 20
157.135
 10
144.194
 20
157.092
 10
144.237
 20
157.042
 10
144.273
 20
156.988
 10
144.302
 20
156.929
 10
144.323
 20
156.867
 10
144.336
 20
156.803
 97
0
 75
0
 76
1
 98
0
  0
HATCH
  5
7A
330
17
100
AcDbEntity
  8
RASTER
 62
7
100
AcDbHatch
 10
0.0
 20
0.0
 30
0.0
210
0.0
220
0.0
230
1.0
  2
SOLID
 70
1
 71
0
 91
1
 92
3
 72
0
 73
1
 93
48
 10
196.784
 20
156.738
 10
196.78
 20
156.673
 10
196.767
 20
156.609
 10
196.746
 20
156.547
 10
196.717
 20
156.488
 10
196.681
 20
156.434
 10
196.638
 20
156.384
 10
196.588
 20
156.341
 10
196.534
 20
156.305
 10
196.475
 20
156.276
 10
196.413
 20
156.255
 10
196.349
 20
156.242
 10
196.284
 20
156.238
 10
196.219
 20
156.242
 10
196.155
 20
156.255
 10
196.093
 20
156.276
 10
196.034
 20
156.305
 10
195.98
 20
156.341
 10
195.93
 20
156.384
 10
195.887
 20
156.434
 10
195.851
 20
156.488
 10
195.822
 20
156.547
 10
195.801
 20
156.609
 10
195.788
 20
156.673
 10
195.784
 20
156.738
 10
195.788
 20
156.803
 10
195.801
 20
156.867
 10
195.822
 20
156.929
 10
195.851
 20
156.988
 10
195.887
 20
157.042
 10
195.93
 20
157.092
 10
195.98
 20
157.135
 10
196.034
 20
157.171
 10
196.093
 20
157.2
 10
196.155
 20
157.221
 10
196.219
 20
157.234
 10
196.284
 20
157.238
 10
196.349
 20
157.234
 10
196.413
 20
157.221
 10
196.475
 20
157.2
 10
196.534
 20
157.171
 10
196.588
 20
157.135
 10
196.638
 20
157.092
 10
196.681
 20
157.042
 10
196.717
 20
156.988
 10
196.746
 20
156.929
 10
196.767
 20
156.867
 10
196.78
 20
156.803
 97
0
 75
0
 76
1
 98
0
  0
LWPOLYLINE
  5
7B
330
17
100
AcDbEntity
  8
CUT
100
AcDbPolyline
 90
36
 70
1
 10
213.084
 20
162.928
 10
278.728
 20
162.928
 10
281.868
 20
162.928
 10
281.868
 20
160.548
 10
278.768
 20
160.548
 10
278.768
 20
158.328
 10
281.868
 20
158.328
 10
281.868
 20
155.948
 10
278.728
 20
155.948
 10
272.8
 20
155.948
 10
272.8
 20
152.848
 10
266.753
 20
152.848
 10
266.753
 20
155.948
 10
260.865
 20
155.948
 10
260.865
 20
152.848
 10
254.817
 20
152.848
 10
254.817
 20
155.948
 10
248.93
 20
155.948
 10
248.93
 20
152.848
 10
242.882
 20
152.848
 10
242.882
 20
155.948
 10
236.995
 20
155.948
 10
236.995
 20
152.848
 10
230.947
 20
152.848
 10
230.947
 20
155.948
 10
225.059
 20
155.948
 10
225.059
 20
152.848
 10
219.012
 20
152.848
 10
219.012
 20
155.948
 10
213.084
 20
155.948
 10
209.944
 20
155.948
 10
209.944
 20
158.328
 10
213.044
 20
158.328
 10
213.044
 20
160.548
 10
209.944
 20
160.548
 10
209.944
 20
162.928
  0
LWPOLYLINE
  5
7C
330
17
100
AcDbEntity
  8
CUT
100
AcDbPolyline
 90
4
 70
1
 10
218.124
 20
160.498
 10
273.688
 20
160.498
 10
273.688
 20
158.378
 10
218.124
 20
158.378
  0
HATCH
  5
7D
330
17
100
AcDbEntity
  8
RASTER
 62
7
100
AcDbHatch
 10
0.0
 20
0.0
 30
0.0
210
0.0
220
0.0
230
1.0
  2
SOLID
 70
1
 71
0
 91
1
 92
3
 72
0
 73
1
 93
4
 10
213.684
 20
162.488
 10
217.484
 20
162.488
 10
217.484
 20
156.388
 10
213.684
 20
156.388
 97
0
 75
0
 76
1
 98
0
  0
HATCH
  5
7E
330
17
100
AcDbEntity
  8
RASTER
 62
7
100
AcDbHatch
 10
0.0
 20
0.0
 30
0.0
210
0.0
220
0.0
230
1.0
  2
SOLID
 70
1
 71
0
 91
1
 92
3
 72
0
 73
1
 93
4
 10
274.328
 20
162.488
 10
278.128
 20
162.488
 10
278.128
 20
156.388
 10
274.328
 20
156.388
 97
0
 75
0
 76
1
 98
0
  0
HATCH
  5
7F
330
17
100
AcDbEntity
  8
RASTER
 62
7
100
AcDbHatch
 10
0.0
 20
0.0
 30
0.0
210
0.0
220
0.0
230
1.0
  2
SOLID
 70
1
 71
0
 91
1
 92
3
 72
0
 73
1
 93
48
 10
220.184
 20
162.138
 10
220.18
 20
162.073
 10
220.167
 20
162.009
 10
220.146
 20
161.947
 10
220.117
 20
161.888
 10
220.081
 20
161.834
 10
220.038
 20
161.784
 10
219.988
 20
161.741
 10
219.934
 20
161.705
 10
219.875
 20
161.676
 10
219.813
 20
161.655
 10
219.749
 20
161.642
 10
219.684
 20
161.638
 10
219.619
 20
161.642
 10
219.555
 20
161.655
 10
219.493
 20
161.676
 10
219.434
 20
161.705
 10
219.38
 20
161.741
 10
219.33
 20
161.784
 10
219.287
 20
161.834
 10
219.251
 20
161.888
 10
219.222
 20
161.947
 10
219.201
 20
162.009
 10
219.188
 20
162.073
 10
219.184
 20
162.138
 10
219.188
 20
162.203
 10
219.201
 20
162.267
 10
219.222
 20
162.329
 10
219.251
 20
162.388
 10
219.287
 20
162.442
 10
219.33
 20
162.492
 10
219.38
 20
162.535
 10
219.434
 20
162.571
 10
219.493
 20
162.6
 10
219.555
 20
162.621
 10
219.619
 20
162.634
 10
219.684
 20
162.638
 10
219.749
 20
162.634
 10
219.813
 20
162.621
 10
219.875
 20
162.6
 10
219.934
 20
162.571
 10
219.988
 20
162.535
 10
220.038
 20
162.492
 10
220.081
 20
162.442
 10
220.117
 20
162.388
 10
220.146
 20
162.329
 10
220.167
 20
162.267
 10
220.18
 20
162.203
 97
0
 75
0
 76
1
 98
0
  0
HATCH
  5
80
330
17
100
AcDbEntity
  8
RASTER
 62
7
100
AcDbHatch
 10
0.0
 20
0.0
 30
0.0
210
0.0
220
0.0
230
1.0
  2
SOLID
 70
1
 71
0
 91
1
 92
3
 72
0
 73
1
 93
48
 10
272.628
 20
162.138
 10
272.624
 20
162.073
 10
272.611
 20
162.009
 10
272.59
 20
161.947
 10
272.561
 20
161.888
 10
272.525
 20
161.834
 10
272.482
 20
161.784
 10
272.432
 20
161.741
 10
272.378
 20
161.705
 10
272.319
 20
161.676
 10
272.257
 20
161.655
 10
272.193
 20
161.642
 10
272.128
 20
161.638
 10
272.063
 20
161.642
 10
271.999
 20
161.655
 10
271.937
 20
161.676
 10
271.878
 20
161.705
 10
271.824
 20
161.741
 10
271.774
 20
161.784
 10
271.731
 20
161.834
 10
271.695
 20
161.888
 10
271.666
 20
161.947
 10
271.645
 20
162.009
 10
271.632
 20
162.073
 10
271.628
 20
162.138
 10
271.632
 20
162.203
 10
271.645
 20
162.267
 10
271.666
 20
162.329
 10
271.695
 20
162.388
 10
271.731
 20
162.442
 10
271.774
 20
162.492
 10
271.824
 20
162.535
 10
271.878
 20
162.571
 10
271.937
 20
162.6
 10
271.999
 20
162.621
 10
272.063
 20
162.634
 10
272.128
 20
162.638
 10
272.193
 20
162.634
 10
272.257
 20
162.621
 10
272.319
 20
162.6
 10
272.378
 20
162.571
 10
272.432
 20
162.535
 10
272.482
 20
162.492
 10
272.525
 20
162.442
 10
272.561
 20
162.388
 10
272.59
 20
162.329
 10
272.611
 20
162.267
 10
272.624
 20
162.203
 97
0
 75
0
 76
1
 98
0
  0
HATCH
  5
81
330
17
100
AcDbEntity
  8
RASTER
 62
7
100
AcDbHatch
 10
0.0
 20
0.0
 30
0.0
210
0.0
220
0.0
230
1.0
  2
SOLID
 70
1
 71
0
 91
1
 92
3
 72
0
 73
1
 93
48
 10
220.184
 20
156.738
 10
220.18
 20
156.673
 10
220.167
 20
156.609
 10
220.146
 20
156.547
 10
220.117
 20
156.488
 10
220.081
 20
156.434
 10
220.038
 20
156.384
 10
219.988
 20
156.341
 10
219.934
 20
156.305
 10
219.875
 20
156.276
 10
219.813
 20
156.255
 10
219.749
 20
156.242
 10
219.684
 20
156.238
 10
219.619
 20
156.242
 10
219.555
 20
156.255
 10
219.493
 20
156.276
 10
219.434
 20
156.305
 10
219.38
 20
156.341
 10
219.33
 20
156.384
 10
219.287
 20
156.434
 10
219.251
 20
156.488
 10
219.222
 20
156.547
 10
219.201
 20
156.609
 10
219.188
 20
156.673
 10
219.184
 20
156.738
 10
219.188
 20
156.803
 10
219.201
 20
156.867
 10
219.222
 20
156.929
 10
219.251
 20
156.988
 10
219.287
 20
157.042
 10
219.33
 20
157.092
 10
219.38
 20
157.135
 10
219.434
 20
157.171
 10
219.493
 20
157.2
 10
219.555
 20
157.221
 10
219.619
 20
157.234
 10
219.684
 20
157.238
 10
219.749
 20
157.234
 10
219.813
 20
157.221
 10
219.875
 20
157.2
 10
219.934
 20
157.171
 10
219.988
 20
157.135
 10
220.038
 20
157.092
 10
220.081
 20
157.042
 10
220.117
 20
156.988
 10
220.146
 20
156.929
 10
220.167
 20
156.867
 10
220.18
 20
156.803
 97
0
 75
0
 76
1
 98
0
  0
HATCH
  5
82
330
17
100
AcDbEntity
  8
RASTER
 62
7
100
AcDbHatch
 10
0.0
 20
0.0
 30
0.0
210
0.0
220
0.0
230
1.0
  2
SOLID
 70
1
 71
0
 91
1
 92
3
 72
0
 73
1
 93
48
 10
272.628
 20
156.738
 10
272.624
 20
156.673
 10
272.611
 20
156.609
 10
272.59
 20
156.547
 10
272.561
 20
156.488
 10
272.525
 20
156.434
 10
272.482
 20
156.384
 10
272.432
 20
156.341
 10
272.378
 20
156.305
 10
272.319
 20
156.276
 10
272.257
 20
156.255
 10
272.193
 20
156.242
 10
272.128
 20
156.238
 10
272.063
 20
156.242
 10
271.999
 20
156.255
 10
271.937
 20
156.276
 10
271.878
 20
156.305
 10
271.824
 20
156.341
 10
271.774
 20
156.384
 10
271.731
 20
156.434
 10
271.695
 20
156.488
 10
271.666
 20
156.547
 10
271.645
 20
156.609
 10
271.632
 20
156.673
 10
271.628
 20
156.738
 10
271.632
 20
156.803
 10
271.645
 20
156.867
 10
271.666
 20
156.929
 10
271.695
 20
156.988
 10
271.731
 20
157.042
 10
271.774
 20
157.092
 10
271.824
 20
157.135
 10
271.878
 20
157.171
 10
271.937
 20
157.2
 10
271.999
 20
157.221
 10
272.063
 20
157.234
 10
272.128
 20
157.238
 10
272.193
 20
157.234
 10
272.257
 20
157.221
 10
272.319
 20
157.2
 10
272.378
 20
157.171
 10
272.432
 20
157.135
 10
272.482
 20
157.092
 10
272.525
 20
157.042
 10
272.561
 20
156.988
 10
272.59
 20
156.929
 10
272.611
 20
156.867
 10
272.624
 20
156.803
 97
0
 75
0
 76
1
 98
0
  0
LWPOLYLINE
  5
83
330
17
100
AcDbEntity
  8
CUT
100
AcDbPolyline
 90
24
 70
1
 10
7.06
 20
108.632
 10
51.236
 20
108.632
 10
51.236
 20
106.332
 10
54.336
 20
106.332
 10
54.336
 20
103.952
 10
51.236
 20
103.952
 10
51.236
 20
101.652
 10
44.937
 20
101.652
 10
44.937
 20
98.552
 10
38.557
 20
98.552
 10
38.557
 20
101.652
 10
32.338
 20
101.652
 10
32.338
 20
98.552
 10
25.958
 20
98.552
 10
25.958
 20
101.652
 10
19.739
 20
101.652
 10
19.739
 20
98.552
 10
13.359
 20
98.552
 10
13.359
 20
101.652
 10
7.06
 20
101.652
 10
7.06
 20
103.952
 10
3.96
 20
103.952
 10
3.96
 20
106.332
 10
7.06
 20
106.332
  0
LWPOLYLINE
  5
84
330
17
100
AcDbEntity
  8
CUT
100
AcDbPolyline
 90
4
 70
1
 10
12.14
 20
106.202
 10
46.156
 20
106.202
 10
46.156
 20
104.082
 10
12.14
 20
104.082
  0
HATCH
  5
85
330
17
100
AcDbEntity
  8
RASTER
 62
7
100
AcDbHatch
 10
0.0
 20
0.0
 30
0.0
210
0.0
220
0.0
230
1.0
  2
SOLID
 70
1
 71
0
 91
1
 92
3
 72
0
 73
1
 93
4
 10
7.7
 20
108.192
 10
11.5
 20
108.192
 10
11.5
 20
102.092
 10
7.7
 20
102.092
 97
0
 75
0
 76
1
 98
0
  0
HATCH
  5
86
330
17
100
AcDbEntity
  8
RASTER
 62
7
100
AcDbHatch
 10
0.0
 20
0.0
 30
0.0
210
0.0
220
0.0
230
1.0
  2
SOLID
 70
1
 71
0
 91
1
 92
3
 72
0
 73
1
 93
4
 10
46.796
 20
108.192
 10
50.596
 20
108.192
 10
50.596
 20
102.092
 10
46.796
 20
102.092
 97
0
 75
0
 76
1
 98
0
  0
HATCH
  5
87
330
17
100
AcDbEntity
  8
RASTER
 62
7
100
AcDbHatch
 10
0.0
 20
0.0
 30
0.0
210
0.0
220
0.0
230
1.0
  2
SOLID
 70
1
 71
0
 91
1
 92
3
 72
0
 73
1
 93
48
 10
14.2
 20
107.842
 10
14.196
 20
107.777
 10
14.183
 20
107.713
 10
14.162
 20
107.651
 10
14.133
 20
107.592
 10
14.097
 20
107.538
 10
14.054
 20
107.488
 10
14.004
 20
107.445
 10
13.95
 20
107.409
 10
13.891
 20
107.38
 10
13.829
 20
107.359
 10
13.765
 20
107.346
 10
13.7
 20
107.342
 10
13.635
 20
107.346
 10
13.571
 20
107.359
 10
13.509
 20
107.38
 10
13.45
 20
107.409
 10
13.396
 20
107.445
 10
13.346
 20
107.488
 10
13.303
 20
107.538
 10
13.267
 20
107.592
 10
13.238
 20
107.651
 10
13.217
 20
107.713
 10
13.204
 20
107.777
 10
13.2
 20
107.842
 10
13.204
 20
107.907
 10
13.217
 20
107.971
 10
13.238
 20
108.033
 10
13.267
 20
108.092
 10
13.303
 20
108.146
 10
13.346
 20
108.196
 10
13.396
 20
108.239
 10
13.45
 20
108.275
 10
13.509
 20
108.304
 10
13.571
 20
108.325
 10
13.635
 20
108.338
 10
13.7
 20
108.342
 10
13.765
 20
108.338
 10
13.829
 20
108.325
 10
13.891
 20
108.304
 10
13.95
 20
108.275
 10
14.004
 20
108.239
 10
14.054
 20
108.196
 10
14.097
 20
108.146
 10
14.133
 20
108.092
 10
14.162
 20
108.033
 10
14.183
 20
107.971
 10
14.196
 20
107.907
 97
0
 75
0
 76
1
 98
0
  0
HATCH
  5
88
330
17
100
AcDbEntity
  8
RASTER
 62
7
100
AcDbHatch
 10
0.0
 20
0.0
 30
0.0
210
0.0
220
0.0
230
1.0
  2
SOLID
 70
1
 71
0
 91
1
 92
3
 72
0
 73
1
 93
48
 10
45.096
 20
107.842
 10
45.092
 20
107.777
 10
45.079
 20
107.713
 10
45.058
 20
107.651
 10
45.029
 20
107.592
 10
44.993
 20
107.538
 10
44.95
 20
107.488
 10
44.9
 20
107.445
 10
44.846
 20
107.409
 10
44.787
 20
107.38
 10
44.725
 20
107.359
 10
44.661
 20
107.346
 10
44.596
 20
107.342
 10
44.531
 20
107.346
 10
44.467
 20
107.359
 10
44.405
 20
107.38
 10
44.346
 20
107.409
 10
44.292
 20
107.445
 10
44.242
 20
107.488
 10
44.199
 20
107.538
 10
44.163
 20
107.592
 10
44.134
 20
107.651
 10
44.113
 20
107.713
 10
44.1
 20
107.777
 10
44.096
 20
107.842
 10
44.1
 20
107.907
 10
44.113
 20
107.971
 10
44.134
 20
108.033
 10
44.163
 20
108.092
 10
44.199
 20
108.146
 10
44.242
 20
108.196
 10
44.292
 20
108.239
 10
44.346
 20
108.275
 10
44.405
 20
108.304
 10
44.467
 20
108.325
 10
44.531
 20
108.338
 10
44.596
 20
108.342
 10
44.661
 20
108.338
 10
44.725
 20
108.325
 10
44.787
 20
108.304
 10
44.846
 20
108.275
 10
44.9
 20
108.239
 10
44.95
 20
108.196
 10
44.993
 20
108.146
 10
45.029
 20
108.092
 10
45.058
 20
108.033
 10
45.079
 20
107.971
 10
45.092
 20
107.907
 97
0
 75
0
 76
1
 98
0
  0
HATCH
  5
89
330
17
100
AcDbEntity
  8
RASTER
 62
7
100
AcDbHatch
 10
0.0
 20
0.0
 30
0.0
210
0.0
220
0.0
230
1.0
  2
SOLID
 70
1
 71
0
 91
1
 92
3
 72
0
 73
1
 93
48
 10
14.2
 20
102.442
 10
14.196
 20
102.377
 10
14.183
 20
102.313
 10
14.162
 20
102.251
 10
14.133
 20
102.192
 10
14.097
 20
102.138
 10
14.054
 20
102.088
 10
14.004
 20
102.045
 10
13.95
 20
102.009
 10
13.891
 20
101.98
 10
13.829
 20
101.959
 10
13.765
 20
101.946
 10
13.7
 20
101.942
 10
13.635
 20
101.946
 10
13.571
 20
101.959
 10
13.509
 20
101.98
 10
13.45
 20
102.009
 10
13.396
 20
102.045
 10
13.346
 20
102.088
 10
13.303
 20
102.138
 10
13.267
 20
102.192
 10
13.238
 20
102.251
 10
13.217
 20
102.313
 10
13.204
 20
102.377
 10
13.2
 20
102.442
 10
13.204
 20
102.507
 10
13.217
 20
102.571
 10
13.238
 20
102.633
 10
13.267
 20
102.692
 10
13.303
 20
102.746
 10
13.346
 20
102.796
 10
13.396
 20
102.839
 10
13.45
 20
102.875
 10
13.509
 20
102.904
 10
13.571
 20
102.925
 10
13.635
 20
102.938
 10
13.7
 20
102.942
 10
13.765
 20
102.938
 10
13.829
 20
102.925
 10
13.891
 20
102.904
 10
13.95
 20
102.875
 10
14.004
 20
102.839
 10
14.054
 20
102.796
 10
14.097
 20
102.746
 10
14.133
 20
102.692
 10
14.162
 20
102.633
 10
14.183
 20
102.571
 10
14.196
 20
102.507
 97
0
 75
0
 76
1
 98
0
  0
HATCH
  5
8A
330
17
100
AcDbEntity
  8
RASTER
 62
7
100
AcDbHatch
 10
0.0
 20
0.0
 30
0.0
210
0.0
220
0.0
230
1.0
  2
SOLID
 70
1
 71
0
 91
1
 92
3
 72
0
 73
1
 93
48
 10
45.096
 20
102.442
 10
45.092
 20
102.377
 10
45.079
 20
102.313
 10
45.058
 20
102.251
 10
45.029
 20
102.192
 10
44.993
 20
102.138
 10
44.95
 20
102.088
 10
44.9
 20
102.045
 10
44.846
 20
102.009
 10
44.787
 20
101.98
 10
44.725
 20
101.959
 10
44.661
 20
101.946
 10
44.596
 20
101.942
 10
44.531
 20
101.946
 10
44.467
 20
101.959
 10
44.405
 20
101.98
 10
44.346
 20
102.009
 10
44.292
 20
102.045
 10
44.242
 20
102.088
 10
44.199
 20
102.138
 10
44.163
 20
102.192
 10
44.134
 20
102.251
 10
44.113
 20
102.313
 10
44.1
 20
102.377
 10
44.096
 20
102.442
 10
44.1
 20
102.507
 10
44.113
 20
102.571
 10
44.134
 20
102.633
 10
44.163
 20
102.692
 10
44.199
 20
102.746
 10
44.242
 20
102.796
 10
44.292
 20
102.839
 10
44.346
 20
102.875
 10
44.405
 20
102.904
 10
44.467
 20
102.925
 10
44.531
 20
102.938
 10
44.596
 20
102.942
 10
44.661
 20
102.938
 10
44.725
 20
102.925
 10
44.787
 20
102.904
 10
44.846
 20
102.875
 10
44.9
 20
102.839
 10
44.95
 20
102.796
 10
44.993
 20
102.746
 10
45.029
 20
102.692
 10
45.058
 20
102.633
 10
45.079
 20
102.571
 10
45.092
 20
102.507
 97
0
 75
0
 76
1
 98
0
  0
LWPOLYLINE
  5
8B
330
17
100
AcDbEntity
  8
CUT
100
AcDbPolyline
 90
24
 70
1
 10
61.356
 20
108.632
 10
105.532
 20
108.632
 10
105.532
 20
106.332
 10
108.632
 20
106.332
 10
108.632
 20
103.952
 10
105.532
 20
103.952
 10
105.532
 20
101.652
 10
99.233
 20
101.652
 10
99.233
 20
98.552
 10
92.853
 20
98.552
 10
92.853
 20
101.652
 10
86.634
 20
101.652
 10
86.634
 20
98.552
 10
80.254
 20
98.552
 10
80.254
 20
101.652
 10
74.035
 20
101.652
 10
74.035
 20
98.552
 10
67.655
 20
98.552
 10
67.655
 20
101.652
 10
61.356
 20
101.652
 10
61.356
 20
103.952
 10
58.256
 20
103.952
 10
58.256
 20
106.332
 10
61.356
 20
106.332
  0
LWPOLYLINE
  5
8C
330
17
100
AcDbEntity
  8
CUT
100
AcDbPolyline
 90
4
 70
1
 10
66.436
 20
106.202
 10
100.452
 20
106.202
 10
100.452
 20
104.082
 10
66.436
 20
104.082
  0
HATCH
  5
8D
330
17
100
AcDbEntity
  8
RASTER
 62
7
100
AcDbHatch
 10
0.0
 20
0.0
 30
0.0
210
0.0
220
0.0
230
1.0
  2
SOLID
 70
1
 71
0
 91
1
 92
3
 72
0
 73
1
 93
4
 10
61.996
 20
108.192
 10
65.796
 20
108.192
 10
65.796
 20
102.092
 10
61.996
 20
102.092
 97
0
 75
0
 76
1
 98
0
  0
HATCH
  5
8E
330
17
100
AcDbEntity
  8
RASTER
 62
7
100
AcDbHatch
 10
0.0
 20
0.0
 30
0.0
210
0.0
220
0.0
230
1.0
  2
SOLID
 70
1
 71
0
 91
1
 92
3
 72
0
 73
1
 93
4
 10
101.092
 20
108.192
 10
104.892
 20
108.192
 10
104.892
 20
102.092
 10
101.092
 20
102.092
 97
0
 75
0
 76
1
 98
0
  0
HATCH
  5
8F
330
17
100
AcDbEntity
  8
RASTER
 62
7
100
AcDbHatch
 10
0.0
 20
0.0
 30
0.0
210
0.0
220
0.0
230
1.0
  2
SOLID
 70
1
 71
0
 91
1
 92
3
 72
0
 73
1
 93
48
 10
68.496
 20
107.842
 10
68.492
 20
107.777
 10
68.479
 20
107.713
 10
68.458
 20
107.651
 10
68.429
 20
107.592
 10
68.393
 20
107.538
 10
68.35
 20
107.488
 10
68.3
 20
107.445
 10
68.246
 20
107.409
 10
68.187
 20
107.38
 10
68.125
 20
107.359
 10
68.061
 20
107.346
 10
67.996
 20
107.342
 10
67.931
 20
107.346
 10
67.867
 20
107.359
 10
67.805
 20
107.38
 10
67.746
 20
107.409
 10
67.692
 20
107.445
 10
67.642
 20
107.488
 10
67.599
 20
107.538
 10
67.563
 20
107.592
 10
67.534
 20
107.651
 10
67.513
 20
107.713
 10
67.5
 20
107.777
 10
67.496
 20
107.842
 10
67.5
 20
107.907
 10
67.513
 20
107.971
 10
67.534
 20
108.033
 10
67.563
 20
108.092
 10
67.599
 20
108.146
 10
67.642
 20
108.196
 10
67.692
 20
108.239
 10
67.746
 20
108.275
 10
67.805
 20
108.304
 10
67.867
 20
108.325
 10
67.931
 20
108.338
 10
67.996
 20
108.342
 10
68.061
 20
108.338
 10
68.125
 20
108.325
 10
68.187
 20
108.304
 10
68.246
 20
108.275
 10
68.3
 20
108.239
 10
68.35
 20
108.196
 10
68.393
 20
108.146
 10
68.429
 20
108.092
 10
68.458
 20
108.033
 10
68.479
 20
107.971
 10
68.492
 20
107.907
 97
0
 75
0
 76
1
 98
0
  0
HATCH
  5
90
330
17
100
AcDbEntity
  8
RASTER
 62
7
100
AcDbHatch
 10
0.0
 20
0.0
 30
0.0
210
0.0
220
0.0
230
1.0
  2
SOLID
 70
1
 71
0
 91
1
 92
3
 72
0
 73
1
 93
48
 10
99.392
 20
107.842
 10
99.388
 20
107.777
 10
99.375
 20
107.713
 10
99.354
 20
107.651
 10
99.325
 20
107.592
 10
99.289
 20
107.538
 10
99.246
 20
107.488
 10
99.196
 20
107.445
 10
99.142
 20
107.409
 10
99.083
 20
107.38
 10
99.021
 20
107.359
 10
98.957
 20
107.346
 10
98.892
 20
107.342
 10
98.827
 20
107.346
 10
98.763
 20
107.359
 10
98.701
 20
107.38
 10
98.642
 20
107.409
 10
98.588
 20
107.445
 10
98.538
 20
107.488
 10
98.495
 20
107.538
 10
98.459
 20
107.592
 10
98.43
 20
107.651
 10
98.409
 20
107.713
 10
98.396
 20
107.777
 10
98.392
 20
107.842
 10
98.396
 20
107.907
 10
98.409
 20
107.971
 10
98.43
 20
108.033
 10
98.459
 20
108.092
 10
98.495
 20
108.146
 10
98.538
 20
108.196
 10
98.588
 20
108.239
 10
98.642
 20
108.275
 10
98.701
 20
108.304
 10
98.763
 20
108.325
 10
98.827
 20
108.338
 10
98.892
 20
108.342
 10
98.957
 20
108.338
 10
99.021
 20
108.325
 10
99.083
 20
108.304
 10
99.142
 20
108.275
 10
99.196
 20
108.239
 10
99.246
 20
108.196
 10
99.289
 20
108.146
 10
99.325
 20
108.092
 10
99.354
 20
108.033
 10
99.375
 20
107.971
 10
99.388
 20
107.907
 97
0
 75
0
 76
1
 98
0
  0
HATCH
  5
91
330
17
100
AcDbEntity
  8
RASTER
 62
7
100
AcDbHatch
 10
0.0
 20
0.0
 30
0.0
210
0.0
220
0.0
230
1.0
  2
SOLID
 70
1
 71
0
 91
1
 92
3
 72
0
 73
1
 93
48
 10
68.496
 20
102.442
 10
68.492
 20
102.377
 10
68.479
 20
102.313
 10
68.458
 20
102.251
 10
68.429
 20
102.192
 10
68.393
 20
102.138
 10
68.35
 20
102.088
 10
68.3
 20
102.045
 10
68.246
 20
102.009
 10
68.187
 20
101.98
 10
68.125
 20
101.959
 10
68.061
 20
101.946
 10
67.996
 20
101.942
 10
67.931
 20
101.946
 10
67.867
 20
101.959
 10
67.805
 20
101.98
 10
67.746
 20
102.009
 10
67.692
 20
102.045
 10
67.642
 20
102.088
 10
67.599
 20
102.138
 10
67.563
 20
102.192
 10
67.534
 20
102.251
 10
67.513
 20
102.313
 10
67.5
 20
102.377
 10
67.496
 20
102.442
 10
67.5
 20
102.507
 10
67.513
 20
102.571
 10
67.534
 20
102.633
 10
67.563
 20
102.692
 10
67.599
 20
102.746
 10
67.642
 20
102.796
 10
67.692
 20
102.839
 10
67.746
 20
102.875
 10
67.805
 20
102.904
 10
67.867
 20
102.925
 10
67.931
 20
102.938
 10
67.996
 20
102.942
 10
68.061
 20
102.938
 10
68.125
 20
102.925
 10
68.187
 20
102.904
 10
68.246
 20
102.875
 10
68.3
 20
102.839
 10
68.35
 20
102.796
 10
68.393
 20
102.746
 10
68.429
 20
102.692
 10
68.458
 20
102.633
 10
68.479
 20
102.571
 10
68.492
 20
102.507
 97
0
 75
0
 76
1
 98
0
  0
HATCH
  5
92
330
17
100
AcDbEntity
  8
RASTER
 62
7
100
AcDbHatch
 10
0.0
 20
0.0
 30
0.0
210
0.0
220
0.0
230
1.0
  2
SOLID
 70
1
 71
0
 91
1
 92
3
 72
0
 73
1
 93
48
 10
99.392
 20
102.442
 10
99.388
 20
102.377
 10
99.375
 20
102.313
 10
99.354
 20
102.251
 10
99.325
 20
102.192
 10
99.289
 20
102.138
 10
99.246
 20
102.088
 10
99.196
 20
102.045
 10
99.142
 20
102.009
 10
99.083
 20
101.98
 10
99.021
 20
101.959
 10
98.957
 20
101.946
 10
98.892
 20
101.942
 10
98.827
 20
101.946
 10
98.763
 20
101.959
 10
98.701
 20
101.98
 10
98.642
 20
102.009
 10
98.588
 20
102.045
 10
98.538
 20
102.088
 10
98.495
 20
102.138
 10
98.459
 20
102.192
 10
98.43
 20
102.251
 10
98.409
 20
102.313
 10
98.396
 20
102.377
 10
98.392
 20
102.442
 10
98.396
 20
102.507
 10
98.409
 20
102.571
 10
98.43
 20
102.633
 10
98.459
 20
102.692
 10
98.495
 20
102.746
 10
98.538
 20
102.796
 10
98.588
 20
102.839
 10
98.642
 20
102.875
 10
98.701
 20
102.904
 10
98.763
 20
102.925
 10
98.827
 20
102.938
 10
98.892
 20
102.942
 10
98.957
 20
102.938
 10
99.021
 20
102.925
 10
99.083
 20
102.904
 10
99.142
 20
102.875
 10
99.196
 20
102.839
 10
99.246
 20
102.796
 10
99.289
 20
102.746
 10
99.325
 20
102.692
 10
99.354
 20
102.633
 10
99.375
 20
102.571
 10
99.388
 20
102.507
 97
0
 75
0
 76
1
 98
0
  0
LWPOLYLINE
  5
93
330
17
100
AcDbEntity
  8
CUT
100
AcDbPolyline
 90
76
 70
1
 10
112.552
 20
108.632
 10
115.692
 20
108.632
 10
121.7
 20
108.632
 10
121.7
 20
105.532
 10
127.587
 20
105.532
 10
127.587
 20
108.632
 10
133.635
 20
108.632
 10
133.635
 20
105.532
 10
139.523
 20
105.532
 10
139.523
 20
108.632
 10
145.57
 20
108.632
 10
145.57
 20
105.532
 10
151.458
 20
105.532
 10
151.458
 20
108.632
 10
157.505
 20
108.632
 10
157.505
 20
105.532
 10
163.393
 20
105.532
 10
163.393
 20
108.632
 10
169.441
 20
108.632
 10
169.441
 20
105.532
 10
175.328
 20
105.532
 10
175.328
 20
108.632
 10
181.336
 20
108.632
 10
184.476
 20
108.632
 10
184.476
 20
105.492
 10
184.476
 20
99.153
 10
181.376
 20
99.153
 10
181.376
 20
92.933
 10
184.476
 20
92.933
 10
184.476
 20
86.554
 10
181.376
 20
86.554
 10
181.376
 20
80.334
 10
184.476
 20
80.334
 10
184.476
 20
73.955
 10
181.376
 20
73.955
 10
181.376
 20
67.735
 10
184.476
 20
67.735
 10
184.476
 20
61.396
 10
184.476
 20
58.256
 10
181.336
 20
58.256
 10
175.328
 20
58.256
 10
175.328
 20
61.356
 10
169.441
 20
61.356
 10
169.441
 20
58.256
 10
163.393
 20
58.256
 10
163.393
 20
61.356
 10
157.505
 20
61.356
 10
157.505
 20
58.256
 10
151.458
 20
58.256
 10
151.458
 20
61.356
 10
145.57
 20
61.356
 10
145.57
 20
58.256
 10
139.523
 20
58.256
 10
139.523
 20
61.356
 10
133.635
 20
61.356
 10
133.635
 20
58.256
 10
127.587
 20
58.256
 10
127.587
 20
61.356
 10
121.7
 20
61.356
 10
121.7
 20
58.256
 10
115.692
 20
58.256
 10
112.552
 20
58.256
 10
112.552
 20
61.396
 10
112.552
 20
67.735
 10
115.652
 20
67.735
 10
115.652
 20
73.955
 10
112.552
 20
73.955
 10
112.552
 20
80.334
 10
115.652
 20
80.334
 10
115.652
 20
86.554
 10
112.552
 20
86.554
 10
112.552
 20
92.933
 10
115.652
 20
92.933
 10
115.652
 20
99.153
 10
112.552
 20
99.153
 10
112.552
 20
105.492
  0
LWPOLYLINE
  5
94
330
17
100
AcDbEntity
  8
CUT
100
AcDbPolyline
 90
36
 70
1
 10
191.536
 20
108.632
 10
257.18
 20
108.632
 10
260.32
 20
108.632
 10
260.32
 20
106.252
 10
257.22
 20
106.252
 10
257.22
 20
104.032
 10
260.32
 20
104.032
 10
260.32
 20
101.652
 10
257.18
 20
101.652
 10
251.252
 20
101.652
 10
251.252
 20
98.552
 10
245.205
 20
98.552
 10
245.205
 20
101.652
 10
239.317
 20
101.652
 10
239.317
 20
98.552
 10
233.269
 20
98.552
 10
233.269
 20
101.652
 10
227.382
 20
101.652
 10
227.382
 20
98.552
 10
221.334
 20
98.552
 10
221.334
 20
101.652
 10
215.447
 20
101.652
 10
215.447
 20
98.552
 10
209.399
 20
98.552
 10
209.399
 20
101.652
 10
203.511
 20
101.652
 10
203.511
 20
98.552
 10
197.464
 20
98.552
 10
197.464
 20
101.652
 10
191.536
 20
101.652
 10
188.396
 20
101.652
 10
188.396
 20
104.032
 10
191.496
 20
104.032
 10
191.496
 20
106.252
 10
188.396
 20
106.252
 10
188.396
 20
108.632
  0
LWPOLYLINE
  5
95
330
17
100
AcDbEntity
  8
CUT
100
AcDbPolyline
 90
4
 70
1
 10
196.576
 20
106.202
 10
252.14
 20
106.202
 10
252.14
 20
104.082
 10
196.576
 20
104.082
  0
HATCH
  5
96
330
17
100
AcDbEntity
  8
RASTER
 62
7
100
AcDbHatch
 10
0.0
 20
0.0
 30
0.0
210
0.0
220
0.0
230
1.0
  2
SOLID
 70
1
 71
0
 91
1
 92
3
 72
0
 73
1
 93
4
 10
192.136
 20
108.192
 10
195.936
 20
108.192
 10
195.936
 20
102.092
 10
192.136
 20
102.092
 97
0
 75
0
 76
1
 98
0
  0
HATCH
  5
97
330
17
100
AcDbEntity
  8
RASTER
 62
7
100
AcDbHatch
 10
0.0
 20
0.0
 30
0.0
210
0.0
220
0.0
230
1.0
  2
SOLID
 70
1
 71
0
 91
1
 92
3
 72
0
 73
1
 93
4
 10
252.78
 20
108.192
 10
256.58
 20
108.192
 10
256.58
 20
102.092
 10
252.78
 20
102.092
 97
0
 75
0
 76
1
 98
0
  0
HATCH
  5
98
330
17
100
AcDbEntity
  8
RASTER
 62
7
100
AcDbHatch
 10
0.0
 20
0.0
 30
0.0
210
0.0
220
0.0
230
1.0
  2
SOLID
 70
1
 71
0
 91
1
 92
3
 72
0
 73
1
 93
48
 10
198.636
 20
107.842
 10
198.632
 20
107.777
 10
198.619
 20
107.713
 10
198.598
 20
107.651
 10
198.569
 20
107.592
 10
198.533
 20
107.538
 10
198.49
 20
107.488
 10
198.44
 20
107.445
 10
198.386
 20
107.409
 10
198.327
 20
107.38
 10
198.265
 20
107.359
 10
198.201
 20
107.346
 10
198.136
 20
107.342
 10
198.071
 20
107.346
 10
198.007
 20
107.359
 10
197.945
 20
107.38
 10
197.886
 20
107.409
 10
197.832
 20
107.445
 10
197.782
 20
107.488
 10
197.739
 20
107.538
 10
197.703
 20
107.592
 10
197.674
 20
107.651
 10
197.653
 20
107.713
 10
197.64
 20
107.777
 10
197.636
 20
107.842
 10
197.64
 20
107.907
 10
197.653
 20
107.971
 10
197.674
 20
108.033
 10
197.703
 20
108.092
 10
197.739
 20
108.146
 10
197.782
 20
108.196
 10
197.832
 20
108.239
 10
197.886
 20
108.275
 10
197.945
 20
108.304
 10
198.007
 20
108.325
 10
198.071
 20
108.338
 10
198.136
 20
108.342
 10
198.201
 20
108.338
 10
198.265
 20
108.325
 10
198.327
 20
108.304
 10
198.386
 20
108.275
 10
198.44
 20
108.239
 10
198.49
 20
108.196
 10
198.533
 20
108.146
 10
198.569
 20
108.092
 10
198.598
 20
108.033
 10
198.619
 20
107.971
 10
198.632
 20
107.907
 97
0
 75
0
 76
1
 98
0
  0
HATCH
  5
99
330
17
100
AcDbEntity
  8
RASTER
 62
7
100
AcDbHatch
 10
0.0
 20
0.0
 30
0.0
210
0.0
220
0.0
230
1.0
  2
SOLID
 70
1
 71
0
 91
1
 92
3
 72
0
 73
1
 93
48
 10
251.08
 20
107.842
 10
251.076
 20
107.777
 10
251.063
 20
107.713
 10
251.042
 20
107.651
 10
251.013
 20
107.592
 10
250.977
 20
107.538
 10
250.934
 20
107.488
 10
250.884
 20
107.445
 10
250.83
 20
107.409
 10
250.771
 20
107.38
 10
250.709
 20
107.359
 10
250.645
 20
107.346
 10
250.58
 20
107.342
 10
250.515
 20
107.346
 10
250.451
 20
107.359
 10
250.389
 20
107.38
 10
250.33
 20
107.409
 10
250.276
 20
107.445
 10
250.226
 20
107.488
 10
250.183
 20
107.538
 10
250.147
 20
107.592
 10
250.118
 20
107.651
 10
250.097
 20
107.713
 10
250.084
 20
107.777
 10
250.08
 20
107.842
 10
250.084
 20
107.907
 10
250.097
 20
107.971
 10
250.118
 20
108.033
 10
250.147
 20
108.092
 10
250.183
 20
108.146
 10
250.226
 20
108.196
 10
250.276
 20
108.239
 10
250.33
 20
108.275
 10
250.389
 20
108.304
 10
250.451
 20
108.325
 10
250.515
 20
108.338
 10
250.58
 20
108.342
 10
250.645
 20
108.338
 10
250.709
 20
108.325
 10
250.771
 20
108.304
 10
250.83
 20
108.275
 10
250.884
 20
108.239
 10
250.934
 20
108.196
 10
250.977
 20
108.146
 10
251.013
 20
108.092
 10
251.042
 20
108.033
 10
251.063
 20
107.971
 10
251.076
 20
107.907
 97
0
 75
0
 76
1
 98
0
  0
HATCH
  5
9A
330
17
100
AcDbEntity
  8
RASTER
 62
7
100
AcDbHatch
 10
0.0
 20
0.0
 30
0.0
210
0.0
220
0.0
230
1.0
  2
SOLID
 70
1
 71
0
 91
1
 92
3
 72
0
 73
1
 93
48
 10
198.636
 20
102.442
 10
198.632
 20
102.377
 10
198.619
 20
102.313
 10
198.598
 20
102.251
 10
198.569
 20
102.192
 10
198.533
 20
102.138
 10
198.49
 20
102.088
 10
198.44
 20
102.045
 10
198.386
 20
102.009
 10
198.327
 20
101.98
 10
198.265
 20
101.959
 10
198.201
 20
101.946
 10
198.136
 20
101.942
 10
198.071
 20
101.946
 10
198.007
 20
101.959
 10
197.945
 20
101.98
 10
197.886
 20
102.009
 10
197.832
 20
102.045
 10
197.782
 20
102.088
 10
197.739
 20
102.138
 10
197.703
 20
102.192
 10
197.674
 20
102.251
 10
197.653
 20
102.313
 10
197.64
 20
102.377
 10
197.636
 20
102.442
 10
197.64
 20
102.507
 10
197.653
 20
102.571
 10
197.674
 20
102.633
 10
197.703
 20
102.692
 10
197.739
 20
102.746
 10
197.782
 20
102.796
 10
197.832
 20
102.839
 10
197.886
 20
102.875
 10
197.945
 20
102.904
 10
198.007
 20
102.925
 10
198.071
 20
102.938
 10
198.136
 20
102.942
 10
198.201
 20
102.938
 10
198.265
 20
102.925
 10
198.327
 20
102.904
 10
198.386
 20
102.875
 10
198.44
 20
102.839
 10
198.49
 20
102.796
 10
198.533
 20
102.746
 10
198.569
 20
102.692
 10
198.598
 20
102.633
 10
198.619
 20
102.571
 10
198.632
 20
102.507
 97
0
 75
0
 76
1
 98
0
  0
HATCH
  5
9B
330
17
100
AcDbEntity
  8
RASTER
 62
7
100
AcDbHatch
 10
0.0
 20
0.0
 30
0.0
210
0.0
220
0.0
230
1.0
  2
SOLID
 70
1
 71
0
 91
1
 92
3
 72
0
 73
1
 93
48
 10
251.08
 20
102.442
 10
251.076
 20
102.377
 10
251.063
 20
102.313
 10
251.042
 20
102.251
 10
251.013
 20
102.192
 10
250.977
 20
102.138
 10
250.934
 20
102.088
 10
250.884
 20
102.045
 10
250.83
 20
102.009
 10
250.771
 20
101.98
 10
250.709
 20
101.959
 10
250.645
 20
101.946
 10
250.58
 20
101.942
 10
250.515
 20
101.946
 10
250.451
 20
101.959
 10
250.389
 20
101.98
 10
250.33
 20
102.009
 10
250.276
 20
102.045
 10
250.226
 20
102.088
 10
250.183
 20
102.138
 10
250.147
 20
102.192
 10
250.118
 20
102.251
 10
250.097
 20
102.313
 10
250.084
 20
102.377
 10
250.08
 20
102.442
 10
250.084
 20
102.507
 10
250.097
 20
102.571
 10
250.118
 20
102.633
 10
250.147
 20
102.692
 10
250.183
 20
102.746
 10
250.226
 20
102.796
 10
250.276
 20
102.839
 10
250.33
 20
102.875
 10
250.389
 20
102.904
 10
250.451
 20
102.925
 10
250.515
 20
102.938
 10
250.58
 20
102.942
 10
250.645
 20
102.938
 10
250.709
 20
102.925
 10
250.771
 20
102.904
 10
250.83
 20
102.875
 10
250.884
 20
102.839
 10
250.934
 20
102.796
 10
250.977
 20
102.746
 10
251.013
 20
102.692
 10
251.042
 20
102.633
 10
251.063
 20
102.571
 10
251.076
 20
102.507
 97
0
 75
0
 76
1
 98
0
  0
LWPOLYLINE
  5
9C
330
17
100
AcDbEntity
  8
CUT
100
AcDbPolyline
 90
36
 70
1
 10
7.1
 20
54.336
 10
72.744
 20
54.336
 10
75.884
 20
54.336
 10
75.884
 20
51.956
 10
72.784
 20
51.956
 10
72.784
 20
49.736
 10
75.884
 20
49.736
 10
75.884
 20
47.356
 10
72.744
 20
47.356
 10
66.816
 20
47.356
 10
66.816
 20
44.256
 10
60.769
 20
44.256
 10
60.769
 20
47.356
 10
54.881
 20
47.356
 10
54.881
 20
44.256
 10
48.833
 20
44.256
 10
48.833
 20
47.356
 10
42.946
 20
47.356
 10
42.946
 20
44.256
 10
36.898
 20
44.256
 10
36.898
 20
47.356
 10
31.011
 20
47.356
 10
31.011
 20
44.256
 10
24.963
 20
44.256
 10
24.963
 20
47.356
 10
19.075
 20
47.356
 10
19.075
 20
44.256
 10
13.028
 20
44.256
 10
13.028
 20
47.356
 10
7.1
 20
47.356
 10
3.96
 20
47.356
 10
3.96
 20
49.736
 10
7.06
 20
49.736
 10
7.06
 20
51.956
 10
3.96
 20
51.956
 10
3.96
 20
54.336
  0
LWPOLYLINE
  5
9D
330
17
100
AcDbEntity
  8
CUT
100
AcDbPolyline
 90
4
 70
1
 10
12.14
 20
51.906
 10
67.704
 20
51.906
 10
67.704
 20
49.786
 10
12.14
 20
49.786
  0
HATCH
  5
9E
330
17
100
AcDbEntity
  8
RASTER
 62
7
100
AcDbHatch
 10
0.0
 20
0.0
 30
0.0
210
0.0
220
0.0
230
1.0
  2
SOLID
 70
1
 71
0
 91
1
 92
3
 72
0
 73
1
 93
4
 10
7.7
 20
53.896
 10
11.5
 20
53.896
 10
11.5
 20
47.796
 10
7.7
 20
47.796
 97
0
 75
0
 76
1
 98
0
  0
HATCH
  5
9F
330
17
100
AcDbEntity
  8
RASTER
 62
7
100
AcDbHatch
 10
0.0
 20
0.0
 30
0.0
210
0.0
220
0.0
230
1.0
  2
SOLID
 70
1
 71
0
 91
1
 92
3
 72
0
 73
1
 93
4
 10
68.344
 20
53.896
 10
72.144
 20
53.896
 10
72.144
 20
47.796
 10
68.344
 20
47.796
 97
0
 75
0
 76
1
 98
0
  0
HATCH
  5
A0
330
17
100
AcDbEntity
  8
RASTER
 62
7
100
AcDbHatch
 10
0.0
 20
0.0
 30
0.0
210
0.0
220
0.0
230
1.0
  2
SOLID
 70
1
 71
0
 91
1
 92
3
 72
0
 73
1
 93
48
 10
14.2
 20
53.546
 10
14.196
 20
53.481
 10
14.183
 20
53.417
 10
14.162
 20
53.355
 10
14.133
 20
53.296
 10
14.097
 20
53.242
 10
14.054
 20
53.192
 10
14.004
 20
53.149
 10
13.95
 20
53.113
 10
13.891
 20
53.084
 10
13.829
 20
53.063
 10
13.765
 20
53.05
 10
13.7
 20
53.046
 10
13.635
 20
53.05
 10
13.571
 20
53.063
 10
13.509
 20
53.084
 10
13.45
 20
53.113
 10
13.396
 20
53.149
 10
13.346
 20
53.192
 10
13.303
 20
53.242
 10
13.267
 20
53.296
 10
13.238
 20
53.355
 10
13.217
 20
53.417
 10
13.204
 20
53.481
 10
13.2
 20
53.546
 10
13.204
 20
53.611
 10
13.217
 20
53.675
 10
13.238
 20
53.737
 10
13.267
 20
53.796
 10
13.303
 20
53.85
 10
13.346
 20
53.9
 10
13.396
 20
53.943
 10
13.45
 20
53.979
 10
13.509
 20
54.008
 10
13.571
 20
54.029
 10
13.635
 20
54.042
 10
13.7
 20
54.046
 10
13.765
 20
54.042
 10
13.829
 20
54.029
 10
13.891
 20
54.008
 10
13.95
 20
53.979
 10
14.004
 20
53.943
 10
14.054
 20
53.9
 10
14.097
 20
53.85
 10
14.133
 20
53.796
 10
14.162
 20
53.737
 10
14.183
 20
53.675
 10
14.196
 20
53.611
 97
0
 75
0
 76
1
 98
0
  0
HATCH
  5
A1
330
17
100
AcDbEntity
  8
RASTER
 62
7
100
AcDbHatch
 10
0.0
 20
0.0
 30
0.0
210
0.0
220
0.0
230
1.0
  2
SOLID
 70
1
 71
0
 91
1
 92
3
 72
0
 73
1
 93
48
 10
66.644
 20
53.546
 10
66.64
 20
53.481
 10
66.627
 20
53.417
 10
66.606
 20
53.355
 10
66.577
 20
53.296
 10
66.541
 20
53.242
 10
66.498
 20
53.192
 10
66.448
 20
53.149
 10
66.394
 20
53.113
 10
66.335
 20
53.084
 10
66.273
 20
53.063
 10
66.209
 20
53.05
 10
66.144
 20
53.046
 10
66.079
 20
53.05
 10
66.015
 20
53.063
 10
65.953
 20
53.084
 10
65.894
 20
53.113
 10
65.84
 20
53.149
 10
65.79
 20
53.192
 10
65.747
 20
53.242
 10
65.711
 20
53.296
 10
65.682
 20
53.355
 10
65.661
 20
53.417
 10
65.648
 20
53.481
 10
65.644
 20
53.546
 10
65.648
 20
53.611
 10
65.661
 20
53.675
 10
65.682
 20
53.737
 10
65.711
 20
53.796
 10
65.747
 20
53.85
 10
65.79
 20
53.9
 10
65.84
 20
53.943
 10
65.894
 20
53.979
 10
65.953
 20
54.008
 10
66.015
 20
54.029
 10
66.079
 20
54.042
 10
66.144
 20
54.046
 10
66.209
 20
54.042
 10
66.273
 20
54.029
 10
66.335
 20
54.008
 10
66.394
 20
53.979
 10
66.448
 20
53.943
 10
66.498
 20
53.9
 10
66.541
 20
53.85
 10
66.577
 20
53.796
 10
66.606
 20
53.737
 10
66.627
 20
53.675
 10
66.64
 20
53.611
 97
0
 75
0
 76
1
 98
0
  0
HATCH
  5
A2
330
17
100
AcDbEntity
  8
RASTER
 62
7
100
AcDbHatch
 10
0.0
 20
0.0
 30
0.0
210
0.0
220
0.0
230
1.0
  2
SOLID
 70
1
 71
0
 91
1
 92
3
 72
0
 73
1
 93
48
 10
14.2
 20
48.146
 10
14.196
 20
48.081
 10
14.183
 20
48.017
 10
14.162
 20
47.955
 10
14.133
 20
47.896
 10
14.097
 20
47.842
 10
14.054
 20
47.792
 10
14.004
 20
47.749
 10
13.95
 20
47.713
 10
13.891
 20
47.684
 10
13.829
 20
47.663
 10
13.765
 20
47.65
 10
13.7
 20
47.646
 10
13.635
 20
47.65
 10
13.571
 20
47.663
 10
13.509
 20
47.684
 10
13.45
 20
47.713
 10
13.396
 20
47.749
 10
13.346
 20
47.792
 10
13.303
 20
47.842
 10
13.267
 20
47.896
 10
13.238
 20
47.955
 10
13.217
 20
48.017
 10
13.204
 20
48.081
 10
13.2
 20
48.146
 10
13.204
 20
48.211
 10
13.217
 20
48.275
 10
13.238
 20
48.337
 10
13.267
 20
48.396
 10
13.303
 20
48.45
 10
13.346
 20
48.5
 10
13.396
 20
48.543
 10
13.45
 20
48.579
 10
13.509
 20
48.608
 10
13.571
 20
48.629
 10
13.635
 20
48.642
 10
13.7
 20
48.646
 10
13.765
 20
48.642
 10
13.829
 20
48.629
 10
13.891
 20
48.608
 10
13.95
 20
48.579
 10
14.004
 20
48.543
 10
14.054
 20
48.5
 10
14.097
 20
48.45
 10
14.133
 20
48.396
 10
14.162
 20
48.337
 10
14.183
 20
48.275
 10
14.196
 20
48.211
 97
0
 75
0
 76
1
 98
0
  0
HATCH
  5
A3
330
17
100
AcDbEntity
  8
RASTER
 62
7
100
AcDbHatch
 10
0.0
 20
0.0
 30
0.0
210
0.0
220
0.0
230
1.0
  2
SOLID
 70
1
 71
0
 91
1
 92
3
 72
0
 73
1
 93
48
 10
66.644
 20
48.146
 10
66.64
 20
48.081
 10
66.627
 20
48.017
 10
66.606
 20
47.955
 10
66.577
 20
47.896
 10
66.541
 20
47.842
 10
66.498
 20
47.792
 10
66.448
 20
47.749
 10
66.394
 20
47.713
 10
66.335
 20
47.684
 10
66.273
 20
47.663
 10
66.209
 20
47.65
 10
66.144
 20
47.646
 10
66.079
 20
47.65
 10
66.015
 20
47.663
 10
65.953
 20
47.684
 10
65.894
 20
47.713
 10
65.84
 20
47.749
 10
65.79
 20
47.792
 10
65.747
 20
47.842
 10
65.711
 20
47.896
 10
65.682
 20
47.955
 10
65.661
 20
48.017
 10
65.648
 20
48.081
 10
65.644
 20
48.146
 10
65.648
 20
48.211
 10
65.661
 20
48.275
 10
65.682
 20
48.337
 10
65.711
 20
48.396
 10
65.747
 20
48.45
 10
65.79
 20
48.5
 10
65.84
 20
48.543
 10
65.894
 20
48.579
 10
65.953
 20
48.608
 10
66.015
 20
48.629
 10
66.079
 20
48.642
 10
66.144
 20
48.646
 10
66.209
 20
48.642
 10
66.273
 20
48.629
 10
66.335
 20
48.608
 10
66.394
 20
48.579
 10
66.448
 20
48.543
 10
66.498
 20
48.5
 10
66.541
 20
48.45
 10
66.577
 20
48.396
 10
66.606
 20
48.337
 10
66.627
 20
48.275
 10
66.64
 20
48.211
 97
0
 75
0
 76
1
 98
0
  0
LWPOLYLINE
  5
A4
330
17
100
AcDbEntity
  8
CUT
100
AcDbPolyline
 90
24
 70
1
 10
82.904
 20
54.336
 10
127.08
 20
54.336
 10
127.08
 20
52.036
 10
130.18
 20
52.036
 10
130.18
 20
49.656
 10
127.08
 20
49.656
 10
127.08
 20
47.356
 10
120.781
 20
47.356
 10
120.781
 20
44.256
 10
114.401
 20
44.256
 10
114.401
 20
47.356
 10
108.182
 20
47.356
 10
108.182
 20
44.256
 10
101.802
 20
44.256
 10
101.802
 20
47.356
 10
95.583
 20
47.356
 10
95.583
 20
44.256
 10
89.203
 20
44.256
 10
89.203
 20
47.356
 10
82.904
 20
47.356
 10
82.904
 20
49.656
 10
79.804
 20
49.656
 10
79.804
 20
52.036
 10
82.904
 20
52.036
  0
LWPOLYLINE
  5
A5
330
17
100
AcDbEntity
  8
CUT
100
AcDbPolyline
 90
4
 70
1
 10
87.984
 20
51.906
 10
122.0
 20
51.906
 10
122.0
 20
49.786
 10
87.984
 20
49.786
  0
HATCH
  5
A6
330
17
100
AcDbEntity
  8
RASTER
 62
7
100
AcDbHatch
 10
0.0
 20
0.0
 30
0.0
210
0.0
220
0.0
230
1.0
  2
SOLID
 70
1
 71
0
 91
1
 92
3
 72
0
 73
1
 93
4
 10
83.544
 20
53.896
 10
87.344
 20
53.896
 10
87.344
 20
47.796
 10
83.544
 20
47.796
 97
0
 75
0
 76
1
 98
0
  0
HATCH
  5
A7
330
17
100
AcDbEntity
  8
RASTER
 62
7
100
AcDbHatch
 10
0.0
 20
0.0
 30
0.0
210
0.0
220
0.0
230
1.0
  2
SOLID
 70
1
 71
0
 91
1
 92
3
 72
0
 73
1
 93
4
 10
122.64
 20
53.896
 10
126.44
 20
53.896
 10
126.44
 20
47.796
 10
122.64
 20
47.796
 97
0
 75
0
 76
1
 98
0
  0
HATCH
  5
A8
330
17
100
AcDbEntity
  8
RASTER
 62
7
100
AcDbHatch
 10
0.0
 20
0.0
 30
0.0
210
0.0
220
0.0
230
1.0
  2
SOLID
 70
1
 71
0
 91
1
 92
3
 72
0
 73
1
 93
48
 10
90.044
 20
53.546
 10
90.04
 20
53.481
 10
90.027
 20
53.417
 10
90.006
 20
53.355
 10
89.977
 20
53.296
 10
89.941
 20
53.242
 10
89.898
 20
53.192
 10
89.848
 20
53.149
 10
89.794
 20
53.113
 10
89.735
 20
53.084
 10
89.673
 20
53.063
 10
89.609
 20
53.05
 10
89.544
 20
53.046
 10
89.479
 20
53.05
 10
89.415
 20
53.063
 10
89.353
 20
53.084
 10
89.294
 20
53.113
 10
89.24
 20
53.149
 10
89.19
 20
53.192
 10
89.147
 20
53.242
 10
89.111
 20
53.296
 10
89.082
 20
53.355
 10
89.061
 20
53.417
 10
89.048
 20
53.481
 10
89.044
 20
53.546
 10
89.048
 20
53.611
 10
89.061
 20
53.675
 10
89.082
 20
53.737
 10
89.111
 20
53.796
 10
89.147
 20
53.85
 10
89.19
 20
53.9
 10
89.24
 20
53.943
 10
89.294
 20
53.979
 10
89.353
 20
54.008
 10
89.415
 20
54.029
 10
89.479
 20
54.042
 10
89.544
 20
54.046
 10
89.609
 20
54.042
 10
89.673
 20
54.029
 10
89.735
 20
54.008
 10
89.794
 20
53.979
 10
89.848
 20
53.943
 10
89.898
 20
53.9
 10
89.941
 20
53.85
 10
89.977
 20
53.796
 10
90.006
 20
53.737
 10
90.027
 20
53.675
 10
90.04
 20
53.611
 97
0
 75
0
 76
1
 98
0
  0
HATCH
  5
A9
330
17
100
AcDbEntity
  8
RASTER
 62
7
100
AcDbHatch
 10
0.0
 20
0.0
 30
0.0
210
0.0
220
0.0
230
1.0
  2
SOLID
 70
1
 71
0
 91
1
 92
3
 72
0
 73
1
 93
48
 10
120.94
 20
53.546
 10
120.936
 20
53.481
 10
120.923
 20
53.417
 10
120.902
 20
53.355
 10
120.873
 20
53.296
 10
120.837
 20
53.242
 10
120.794
 20
53.192
 10
120.744
 20
53.149
 10
120.69
 20
53.113
 10
120.631
 20
53.084
 10
120.569
 20
53.063
 10
120.505
 20
53.05
 10
120.44
 20
53.046
 10
120.375
 20
53.05
 10
120.311
 20
53.063
 10
120.249
 20
53.084
 10
120.19
 20
53.113
 10
120.136
 20
53.149
 10
120.086
 20
53.192
 10
120.043
 20
53.242
 10
120.007
 20
53.296
 10
119.978
 20
53.355
 10
119.957
 20
53.417
 10
119.944
 20
53.481
 10
119.94
 20
53.546
 10
119.944
 20
53.611
 10
119.957
 20
53.675
 10
119.978
 20
53.737
 10
120.007
 20
53.796
 10
120.043
 20
53.85
 10
120.086
 20
53.9
 10
120.136
 20
53.943
 10
120.19
 20
53.979
 10
120.249
 20
54.008
 10
120.311
 20
54.029
 10
120.375
 20
54.042
 10
120.44
 20
54.046
 10
120.505
 20
54.042
 10
120.569
 20
54.029
 10
120.631
 20
54.008
 10
120.69
 20
53.979
 10
120.744
 20
53.943
 10
120.794
 20
53.9
 10
120.837
 20
53.85
 10
120.873
 20
53.796
 10
120.902
 20
53.737
 10
120.923
 20
53.675
 10
120.936
 20
53.611
 97
0
 75
0
 76
1
 98
0
  0
HATCH
  5
AA
330
17
100
AcDbEntity
  8
RASTER
 62
7
100
AcDbHatch
 10
0.0
 20
0.0
 30
0.0
210
0.0
220
0.0
230
1.0
  2
SOLID
 70
1
 71
0
 91
1
 92
3
 72
0
 73
1
 93
48
 10
90.044
 20
48.146
 10
90.04
 20
48.081
 10
90.027
 20
48.017
 10
90.006
 20
47.955
 10
89.977
 20
47.896
 10
89.941
 20
47.842
 10
89.898
 20
47.792
 10
89.848
 20
47.749
 10
89.794
 20
47.713
 10
89.735
 20
47.684
 10
89.673
 20
47.663
 10
89.609
 20
47.65
 10
89.544
 20
47.646
 10
89.479
 20
47.65
 10
89.415
 20
47.663
 10
89.353
 20
47.684
 10
89.294
 20
47.713
 10
89.24
 20
47.749
 10
89.19
 20
47.792
 10
89.147
 20
47.842
 10
89.111
 20
47.896
 10
89.082
 20
47.955
 10
89.061
 20
48.017
 10
89.048
 20
48.081
 10
89.044
 20
48.146
 10
89.048
 20
48.211
 10
89.061
 20
48.275
 10
89.082
 20
48.337
 10
89.111
 20
48.396
 10
89.147
 20
48.45
 10
89.19
 20
48.5
 10
89.24
 20
48.543
 10
89.294
 20
48.579
 10
89.353
 20
48.608
 10
89.415
 20
48.629
 10
89.479
 20
48.642
 10
89.544
 20
48.646
 10
89.609
 20
48.642
 10
89.673
 20
48.629
 10
89.735
 20
48.608
 10
89.794
 20
48.579
 10
89.848
 20
48.543
 10
89.898
 20
48.5
 10
89.941
 20
48.45
 10
89.977
 20
48.396
 10
90.006
 20
48.337
 10
90.027
 20
48.275
 10
90.04
 20
48.211
 97
0
 75
0
 76
1
 98
0
  0
HATCH
  5
AB
330
17
100
AcDbEntity
  8
RASTER
 62
7
100
AcDbHatch
 10
0.0
 20
0.0
 30
0.0
210
0.0
220
0.0
230
1.0
  2
SOLID
 70
1
 71
0
 91
1
 92
3
 72
0
 73
1
 93
48
 10
120.94
 20
48.146
 10
120.936
 20
48.081
 10
120.923
 20
48.017
 10
120.902
 20
47.955
 10
120.873
 20
47.896
 10
120.837
 20
47.842
 10
120.794
 20
47.792
 10
120.744
 20
47.749
 10
120.69
 20
47.713
 10
120.631
 20
47.684
 10
120.569
 20
47.663
 10
120.505
 20
47.65
 10
120.44
 20
47.646
 10
120.375
 20
47.65
 10
120.311
 20
47.663
 10
120.249
 20
47.684
 10
120.19
 20
47.713
 10
120.136
 20
47.749
 10
120.086
 20
47.792
 10
120.043
 20
47.842
 10
120.007
 20
47.896
 10
119.978
 20
47.955
 10
119.957
 20
48.017
 10
119.944
 20
48.081
 10
119.94
 20
48.146
 10
119.944
 20
48.211
 10
119.957
 20
48.275
 10
119.978
 20
48.337
 10
120.007
 20
48.396
 10
120.043
 20
48.45
 10
120.086
 20
48.5
 10
120.136
 20
48.543
 10
120.19
 20
48.579
 10
120.249
 20
48.608
 10
120.311
 20
48.629
 10
120.375
 20
48.642
 10
120.44
 20
48.646
 10
120.505
 20
48.642
 10
120.569
 20
48.629
 10
120.631
 20
48.608
 10
120.69
 20
48.579
 10
120.744
 20
48.543
 10
120.794
 20
48.5
 10
120.837
 20
48.45
 10
120.873
 20
48.396
 10
120.902
 20
48.337
 10
120.923
 20
48.275
 10
120.936
 20
48.211
 97
0
 75
0
 76
1
 98
0
  0
LWPOLYLINE
  5
AC
330
17
100
AcDbEntity
  8
CUT
100
AcDbPolyline
 90
24
 70
1
 10
137.2
 20
54.336
 10
181.376
 20
54.336
 10
181.376
 20
52.036
 10
184.476
 20
52.036
 10
184.476
 20
49.656
 10
181.376
 20
49.656
 10
181.376
 20
47.356
 10
175.077
 20
47.356
 10
175.077
 20
44.256
 10
168.697
 20
44.256
 10
168.697
 20
47.356
 10
162.478
 20
47.356
 10
162.478
 20
44.256
 10
156.098
 20
44.256
 10
156.098
 20
47.356
 10
149.879
 20
47.356
 10
149.879
 20
44.256
 10
143.499
 20
44.256
 10
143.499
 20
47.356
 10
137.2
 20
47.356
 10
137.2
 20
49.656
 10
134.1
 20
49.656
 10
134.1
 20
52.036
 10
137.2
 20
52.036
  0
LWPOLYLINE
  5
AD
330
17
100
AcDbEntity
  8
CUT
100
AcDbPolyline
 90
4
 70
1
 10
142.28
 20
51.906
 10
176.296
 20
51.906
 10
176.296
 20
49.786
 10
142.28
 20
49.786
  0
HATCH
  5
AE
330
17
100
AcDbEntity
  8
RASTER
 62
7
100
AcDbHatch
 10
0.0
 20
0.0
 30
0.0
210
0.0
220
0.0
230
1.0
  2
SOLID
 70
1
 71
0
 91
1
 92
3
 72
0
 73
1
 93
4
 10
137.84
 20
53.896
 10
141.64
 20
53.896
 10
141.64
 20
47.796
 10
137.84
 20
47.796
 97
0
 75
0
 76
1
 98
0
  0
HATCH
  5
AF
330
17
100
AcDbEntity
  8
RASTER
 62
7
100
AcDbHatch
 10
0.0
 20
0.0
 30
0.0
210
0.0
220
0.0
230
1.0
  2
SOLID
 70
1
 71
0
 91
1
 92
3
 72
0
 73
1
 93
4
 10
176.936
 20
53.896
 10
180.736
 20
53.896
 10
180.736
 20
47.796
 10
176.936
 20
47.796
 97
0
 75
0
 76
1
 98
0
  0
HATCH
  5
B0
330
17
100
AcDbEntity
  8
RASTER
 62
7
100
AcDbHatch
 10
0.0
 20
0.0
 30
0.0
210
0.0
220
0.0
230
1.0
  2
SOLID
 70
1
 71
0
 91
1
 92
3
 72
0
 73
1
 93
48
 10
144.34
 20
53.546
 10
144.336
 20
53.481
 10
144.323
 20
53.417
 10
144.302
 20
53.355
 10
144.273
 20
53.296
 10
144.237
 20
53.242
 10
144.194
 20
53.192
 10
144.144
 20
53.149
 10
144.09
 20
53.113
 10
144.031
 20
53.084
 10
143.969
 20
53.063
 10
143.905
 20
53.05
 10
143.84
 20
53.046
 10
143.775
 20
53.05
 10
143.711
 20
53.063
 10
143.649
 20
53.084
 10
143.59
 20
53.113
 10
143.536
 20
53.149
 10
143.486
 20
53.192
 10
143.443
 20
53.242
 10
143.407
 20
53.296
 10
143.378
 20
53.355
 10
143.357
 20
53.417
 10
143.344
 20
53.481
 10
143.34
 20
53.546
 10
143.344
 20
53.611
 10
143.357
 20
53.675
 10
143.378
 20
53.737
 10
143.407
 20
53.796
 10
143.443
 20
53.85
 10
143.486
 20
53.9
 10
143.536
 20
53.943
 10
143.59
 20
53.979
 10
143.649
 20
54.008
 10
143.711
 20
54.029
 10
143.775
 20
54.042
 10
143.84
 20
54.046
 10
143.905
 20
54.042
 10
143.969
 20
54.029
 10
144.031
 20
54.008
 10
144.09
 20
53.979
 10
144.144
 20
53.943
 10
144.194
 20
53.9
 10
144.237
 20
53.85
 10
144.273
 20
53.796
 10
144.302
 20
53.737
 10
144.323
 20
53.675
 10
144.336
 20
53.611
 97
0
 75
0
 76
1
 98
0
  0
HATCH
  5
B1
330
17
100
AcDbEntity
  8
RASTER
 62
7
100
AcDbHatch
 10
0.0
 20
0.0
 30
0.0
210
0.0
220
0.0
230
1.0
  2
SOLID
 70
1
 71
0
 91
1
 92
3
 72
0
 73
1
 93
48
 10
175.236
 20
53.546
 10
175.232
 20
53.481
 10
175.219
 20
53.417
 10
175.198
 20
53.355
 10
175.169
 20
53.296
 10
175.133
 20
53.242
 10
175.09
 20
53.192
 10
175.04
 20
53.149
 10
174.986
 20
53.113
 10
174.927
 20
53.084
 10
174.865
 20
53.063
 10
174.801
 20
53.05
 10
174.736
 20
53.046
 10
174.671
 20
53.05
 10
174.607
 20
53.063
 10
174.545
 20
53.084
 10
174.486
 20
53.113
 10
174.432
 20
53.149
 10
174.382
 20
53.192
 10
174.339
 20
53.242
 10
174.303
 20
53.296
 10
174.274
 20
53.355
 10
174.253
 20
53.417
 10
174.24
 20
53.481
 10
174.236
 20
53.546
 10
174.24
 20
53.611
 10
174.253
 20
53.675
 10
174.274
 20
53.737
 10
174.303
 20
53.796
 10
174.339
 20
53.85
 10
174.382
 20
53.9
 10
174.432
 20
53.943
 10
174.486
 20
53.979
 10
174.545
 20
54.008
 10
174.607
 20
54.029
 10
174.671
 20
54.042
 10
174.736
 20
54.046
 10
174.801
 20
54.042
 10
174.865
 20
54.029
 10
174.927
 20
54.008
 10
174.986
 20
53.979
 10
175.04
 20
53.943
 10
175.09
 20
53.9
 10
175.133
 20
53.85
 10
175.169
 20
53.796
 10
175.198
 20
53.737
 10
175.219
 20
53.675
 10
175.232
 20
53.611
 97
0
 75
0
 76
1
 98
0
  0
HATCH
  5
B2
330
17
100
AcDbEntity
  8
RASTER
 62
7
100
AcDbHatch
 10
0.0
 20
0.0
 30
0.0
210
0.0
220
0.0
230
1.0
  2
SOLID
 70
1
 71
0
 91
1
 92
3
 72
0
 73
1
 93
48
 10
144.34
 20
48.146
 10
144.336
 20
48.081
 10
144.323
 20
48.017
 10
144.302
 20
47.955
 10
144.273
 20
47.896
 10
144.237
 20
47.842
 10
144.194
 20
47.792
 10
144.144
 20
47.749
 10
144.09
 20
47.713
 10
144.031
 20
47.684
 10
143.969
 20
47.663
 10
143.905
 20
47.65
 10
143.84
 20
47.646
 10
143.775
 20
47.65
 10
143.711
 20
47.663
 10
143.649
 20
47.684
 10
143.59
 20
47.713
 10
143.536
 20
47.749
 10
143.486
 20
47.792
 10
143.443
 20
47.842
 10
143.407
 20
47.896
 10
143.378
 20
47.955
 10
143.357
 20
48.017
 10
143.344
 20
48.081
 10
143.34
 20
48.146
 10
143.344
 20
48.211
 10
143.357
 20
48.275
 10
143.378
 20
48.337
 10
143.407
 20
48.396
 10
143.443
 20
48.45
 10
143.486
 20
48.5
 10
143.536
 20
48.543
 10
143.59
 20
48.579
 10
143.649
 20
48.608
 10
143.711
 20
48.629
 10
143.775
 20
48.642
 10
143.84
 20
48.646
 10
143.905
 20
48.642
 10
143.969
 20
48.629
 10
144.031
 20
48.608
 10
144.09
 20
48.579
 10
144.144
 20
48.543
 10
144.194
 20
48.5
 10
144.237
 20
48.45
 10
144.273
 20
48.396
 10
144.302
 20
48.337
 10
144.323
 20
48.275
 10
144.336
 20
48.211
 97
0
 75
0
 76
1
 98
0
  0
HATCH
  5
B3
330
17
100
AcDbEntity
  8
RASTER
 62
7
100
AcDbHatch
 10
0.0
 20
0.0
 30
0.0
210
0.0
220
0.0
230
1.0
  2
SOLID
 70
1
 71
0
 91
1
 92
3
 72
0
 73
1
 93
48
 10
175.236
 20
48.146
 10
175.232
 20
48.081
 10
175.219
 20
48.017
 10
175.198
 20
47.955
 10
175.169
 20
47.896
 10
175.133
 20
47.842
 10
175.09
 20
47.792
 10
175.04
 20
47.749
 10
174.986
 20
47.713
 10
174.927
 20
47.684
 10
174.865
 20
47.663
 10
174.801
 20
47.65
 10
174.736
 20
47.646
 10
174.671
 20
47.65
 10
174.607
 20
47.663
 10
174.545
 20
47.684
 10
174.486
 20
47.713
 10
174.432
 20
47.749
 10
174.382
 20
47.792
 10
174.339
 20
47.842
 10
174.303
 20
47.896
 10
174.274
 20
47.955
 10
174.253
 20
48.017
 10
174.24
 20
48.081
 10
174.236
 20
48.146
 10
174.24
 20
48.211
 10
174.253
 20
48.275
 10
174.274
 20
48.337
 10
174.303
 20
48.396
 10
174.339
 20
48.45
 10
174.382
 20
48.5
 10
174.432
 20
48.543
 10
174.486
 20
48.579
 10
174.545
 20
48.608
 10
174.607
 20
48.629
 10
174.671
 20
48.642
 10
174.736
 20
48.646
 10
174.801
 20
48.642
 10
174.865
 20
48.629
 10
174.927
 20
48.608
 10
174.986
 20
48.579
 10
175.04
 20
48.543
 10
175.09
 20
48.5
 10
175.133
 20
48.45
 10
175.169
 20
48.396
 10
175.198
 20
48.337
 10
175.219
 20
48.275
 10
175.232
 20
48.211
 97
0
 75
0
 76
1
 98
0
  0
LWPOLYLINE
  5
B4
330
17
100
AcDbEntity
  8
CUT
100
AcDbPolyline
 90
76
 70
1
 10
188.396
 20
54.336
 10
191.536
 20
54.336
 10
197.544
 20
54.336
 10
197.544
 20
51.236
 10
203.431
 20
51.236
 10
203.431
 20
54.336
 10
209.479
 20
54.336
 10
209.479
 20
51.236
 10
215.367
 20
51.236
 10
215.367
 20
54.336
 10
221.414
 20
54.336
 10
221.414
 20
51.236
 10
227.302
 20
51.236
 10
227.302
 20
54.336
 10
233.349
 20
54.336
 10
233.349
 20
51.236
 10
239.237
 20
51.236
 10
239.237
 20
54.336
 10
245.285
 20
54.336
 10
245.285
 20
51.236
 10
251.172
 20
51.236
 10
251.172
 20
54.336
 10
257.18
 20
54.336
 10
260.32
 20
54.336
 10
260.32
 20
51.196
 10
260.32
 20
44.857
 10
257.22
 20
44.857
 10
257.22
 20
38.637
 10
260.32
 20
38.637
 10
260.32
 20
32.258
 10
257.22
 20
32.258
 10
257.22
 20
26.038
 10
260.32
 20
26.038
 10
260.32
 20
19.659
 10
257.22
 20
19.659
 10
257.22
 20
13.439
 10
260.32
 20
13.439
 10
260.32
 20
7.1
 10
260.32
 20
3.96
 10
257.18
 20
3.96
 10
251.172
 20
3.96
 10
251.172
 20
7.06
 10
245.285
 20
7.06
 10
245.285
 20
3.96
 10
239.237
 20
3.96
 10
239.237
 20
7.06
 10
233.349
 20
7.06
 10
233.349
 20
3.96
 10
227.302
 20
3.96
 10
227.302
 20
7.06
 10
221.414
 20
7.06
 10
221.414
 20
3.96
 10
215.367
 20
3.96
 10
215.367
 20
7.06
 10
209.479
 20
7.06
 10
209.479
 20
3.96
 10
203.431
 20
3.96
 10
203.431
 20
7.06
 10
197.544
 20
7.06
 10
197.544
 20
3.96
 10
191.536
 20
3.96
 10
188.396
 20
3.96
 10
188.396
 20
7.1
 10
188.396
 20
13.439
 10
191.496
 20
13.439
 10
191.496
 20
19.659
 10
188.396
 20
19.659
 10
188.396
 20
26.038
 10
191.496
 20
26.038
 10
191.496
 20
32.258
 10
188.396
 20
32.258
 10
188.396
 20
38.637
 10
191.496
 20
38.637
 10
191.496
 20
44.857
 10
188.396
 20
44.857
 10
188.396
 20
51.196
  0
ENDSEC
  0
SECTION
  2
OBJECTS
  0
DICTIONARY
  5
A
330
0
100
AcDbDictionary
281
1
  3
ACAD_COLOR
350
B
  3
ACAD_GROUP
350
C
  3
ACAD_LAYOUT
350
D
  3
ACAD_MATERIAL
350
E
  3
ACAD_MLEADERSTYLE
350
F
  3
ACAD_MLINESTYLE
350
10
  3
ACAD_PLOTSETTINGS
350
11
  3
ACAD_PLOTSTYLENAME
350
12
  3
ACAD_SCALELIST
350
14
  3
ACAD_TABLESTYLE
350
15
  3
ACAD_VISUALSTYLE
350
16
  3
EZDXF_META
350
2D
  0
DICTIONARY
  5
B
330
A
100
AcDbDictionary
281
1
  0
DICTIONARY
  5
C
330
A
100
AcDbDictionary
281
1
  0
DICTIONARY
  5
D
330
A
100
AcDbDictionary
281
1
  3
Model
350
1A
  3
Layout1
350
1E
  0
DICTIONARY
  5
E
330
A
100
AcDbDictionary
281
1
  3
ByBlock
350
1F
  3
ByLayer
350
20
  3
Global
350
21
  0
DICTIONARY
  5
F
330
A
100
AcDbDictionary
281
1
  3
Standard
350
2C
  0
DICTIONARY
  5
10
330
A
100
AcDbDictionary
281
1
  3
Standard
350
22
  0
DICTIONARY
  5
11
330
A
100
AcDbDictionary
281
1
  0
ACDBDICTIONARYWDFLT
  5
12
330
A
100
AcDbDictionary
281
1
  3
Normal
350
13
100
AcDbDictionaryWithDefault
340
13
  0
ACDBPLACEHOLDER
  5
13
330
12
  0
DICTIONARY
  5
14
330
A
100
AcDbDictionary
281
1
  0
DICTIONARY
  5
15
330
A
100
AcDbDictionary
281
1
  0
DICTIONARY
  5
16
330
A
100
AcDbDictionary
281
1
  0
LAYOUT
  5
1A
330
D
100
AcDbPlotSettings
  1

  4
A3
  6

 40
7.5
 41
20.0
 42
7.5
 43
20.0
 44
420.0
 45
297.0
 46
0.0
 47
0.0
 48
0.0
 49
0.0
140
0.0
141
0.0
142
1.0
143
1.0
 70
1024
 72
1
 73
0
 74
5
  7

 75
16
 76
0
 77
2
 78
300
147
1.0
148
0.0
149
0.0
100
AcDbLayout
  1
Model
 70
1
 71
0
 10
0.0
 20
0.0
 11
420.0
 21
297.0
 12
0.0
 22
0.0
 32
0.0
 14
1e+20
 24
1e+20
 34
1e+20
 15
-1e+20
 25
-1e+20
 35
-1e+20
146
0.0
 13
0.0
 23
0.0
 33
0.0
 16
1.0
 26
0.0
 36
0.0
 17
0.0
 27
1.0
 37
0.0
 76
1
330
17
  0
LAYOUT
  5
1E
330
D
100
AcDbPlotSettings
  1

  4
A3
  6

 40
7.5
 41
20.0
 42
7.5
 43
20.0
 44
420.0
 45
297.0
 46
0.0
 47
0.0
 48
0.0
 49
0.0
140
0.0
141
0.0
142
1.0
143
1.0
 70
0
 72
1
 73
0
 74
5
  7

 75
16
 76
0
 77
2
 78
300
147
1.0
148
0.0
149
0.0
100
AcDbLayout
  1
Layout1
 70
1
 71
1
 10
0.0
 20
0.0
 11
420.0
 21
297.0
 12
0.0
 22
0.0
 32
0.0
 14
1e+20
 24
1e+20
 34
1e+20
 15
-1e+20
 25
-1e+20
 35
-1e+20
146
0.0
 13
0.0
 23
0.0
 33
0.0
 16
1.0
 26
0.0
 36
0.0
 17
0.0
 27
1.0
 37
0.0
 76
1
330
1B
  0
MATERIAL
  5
1F
102
{ACAD_REACTORS
330
E
102
}
330
E
100
AcDbMaterial
  1
ByBlock
  2

 70
0
 40
1.0
 71
1
 41
1.0
 91
-1023410177
 42
1.0
 72
1
  3

 73
1
 74
1
 75
1
 44
0.5
 73
0
 45
1.0
 46
1.0
 77
1
  4

 78
1
 79
1
170
1
 48
1.0
171
1
  6

172
1
173
1
174
1
140
1.0
141
1.0
175
1
  7

176
1
177
1
178
1
143
1.0
179
1
  8

270
1
271
1
272
1
145
1.0
146
1.0
273
1
  9

274
1
275
1
276
1
 42
1.0
 72
1
  3

 73
1
 74
1
 75
1
 94
63
  0
MATERIAL
  5
20
102
{ACAD_REACTORS
330
E
102
}
330
E
100
AcDbMaterial
  1
ByLayer
  2

 70
0
 40
1.0
 71
1
 41
1.0
 91
-1023410177
 42
1.0
 72
1
  3

 73
1
 74
1
 75
1
 44
0.5
 73
0
 45
1.0
 46
1.0
 77
1
  4

 78
1
 79
1
170
1
 48
1.0
171
1
  6

172
1
173
1
174
1
140
1.0
141
1.0
175
1
  7

176
1
177
1
178
1
143
1.0
179
1
  8

270
1
271
1
272
1
145
1.0
146
1.0
273
1
  9

274
1
275
1
276
1
 42
1.0
 72
1
  3

 73
1
 74
1
 75
1
 94
63
  0
MATERIAL
  5
21
102
{ACAD_REACTORS
330
E
102
}
330
E
100
AcDbMaterial
  1
Global
  2

 70
0
 40
1.0
 71
1
 41
1.0
 91
-1023410177
 42
1.0
 72
1
  3

 73
1
 74
1
 75
1
 44
0.5
 73
0
 45
1.0
 46
1.0
 77
1
  4

 78
1
 79
1
170
1
 48
1.0
171
1
  6

172
1
173
1
174
1
140
1.0
141
1.0
175
1
  7

176
1
177
1
178
1
143
1.0
179
1
  8

270
1
271
1
272
1
145
1.0
146
1.0
273
1
  9

274
1
275
1
276
1
 42
1.0
 72
1
  3

 73
1
 74
1
 75
1
 94
63
  0
MLINESTYLE
  5
22
102
{ACAD_REACTORS
330
10
102
}
330
10
100
AcDbMlineStyle
  2
Standard
 70
0
  3

 62
256
 51
90.0
 52
90.0
 71
2
 49
0.5
 62
256
  6
BYLAYER
 49
-0.5
 62
256
  6
BYLAYER
  0
MLEADERSTYLE
  5
2C
102
{ACAD_REACTORS
330
F
102
}
330
F
100
AcDbMLeaderStyle
179
2
170
2
171
1
172
0
 90
2
 40
0.0
 41
0.0
173
1
 91
-1056964608
 92
-2
290
1
 42
2.0
291
1
 43
8.0
  3
Standard
 44
4.0
300

342
29
174
1
175
1
176
0
178
1
 93
-1056964608
 45
4.0
292
0
297
0
 46
4.0
 94
-1056964608
 47
1.0
 49
1.0
140
1.0
294
1
141
0.0
177
0
142
1.0
295
0
296
0
143
3.75
271
0
272
9
273
9
  0
DICTIONARY
  5
2D
330
A
100
AcDbDictionary
280
1
281
1
  3
CREATED_BY_EZDXF
350
2E
  3
WRITTEN_BY_EZDXF
350
B7
  0
DICTIONARYVAR
  5
2E
330
2D
100
DictionaryVariables
280
0
  1
1.4.2 @ 2026-09-12T03:24:34.774994+00:00
  0
DICTIONARYVAR
  5
B7
330
2D
100
DictionaryVariables
280
0
  1
1.4.2 @ 2026-09-12T03:24:34.781060+00:00
  0
ENDSEC
  0
EOF
