0
SECTION
2
HEADER
9
$ACADVER
1
AC1009
9
$EXTMIN
10
0
20
0
9
$EXTMAX
10
289.6
20
32.2
0
ENDSEC
0
SECTION
2
TABLES
0
TABLE
2
LAYER
70
2
0
LAYER
2
CUT
70
0
62
1
6
CONTINUOUS
0
LAYER
2
RASTER
70
0
62
7
6
CONTINUOUS
0
ENDTAB
0
ENDSEC
0
SECTION
2
ENTITIES
0
POLYLINE
8
CUT
66
1
70
1
0
VERTEX
8
CUT
10
4
20
26.2
30
0
0
VERTEX
8
CUT
10
4.031
20
26.669
30
0
0
VERTEX
8
CUT
10
4.125
20
27.075
30
0
0
VERTEX
8
CUT
10
4.281
20
27.419
30
0
0
VERTEX
8
CUT
10
4.5
20
27.7
30
0
0
VERTEX
8
CUT
10
4.781
20
27.919
30
0
0
VERTEX
8
CUT
10
5.125
20
28.075
30
0
0
VERTEX
8
CUT
10
5.531
20
28.169
30
0
0
VERTEX
8
CUT
10
6
20
28.2
30
0
0
VERTEX
8
CUT
10
26.2
20
28.2
30
0
0
VERTEX
8
CUT
10
26.669
20
28.169
30
0
0
VERTEX
8
CUT
10
27.075
20
28.075
30
0
0
VERTEX
8
CUT
10
27.419
20
27.919
30
0
0
VERTEX
8
CUT
10
27.7
20
27.7
30
0
0
VERTEX
8
CUT
10
27.919
20
27.419
30
0
0
VERTEX
8
CUT
10
28.075
20
27.075
30
0
0
VERTEX
8
CUT
10
28.169
20
26.669
30
0
0
VERTEX
8
CUT
10
28.2
20
26.2
30
0
0
VERTEX
8
CUT
10
28.2
20
19.25
30
0
0
VERTEX
8
CUT
10
23.7
20
19.25
30
0
0
VERTEX
8
CUT
10
23.7
20
12.95
30
0
0
VERTEX
8
CUT
10
28.2
20
12.95
30
0
0
VERTEX
8
CUT
10
28.2
20
6
30
0
0
VERTEX
8
CUT
10
28.169
20
5.531
30
0
0
VERTEX
8
CUT
10
28.075
20
5.125
30
0
0
VERTEX
8
CUT
10
27.919
20
4.781
30
0
0
VERTEX
8
CUT
10
27.7
20
4.5
30
0
0
VERTEX
8
CUT
10
27.419
20
4.281
30
0
0
VERTEX
8
CUT
10
27.075
20
4.125
30
0
0
VERTEX
8
CUT
10
26.669
20
4.031
30
0
0
VERTEX
8
CUT
10
26.2
20
4
30
0
0
VERTEX
8
CUT
10
6
20
4
30
0
0
VERTEX
8
CUT
10
5.531
20
4.031
30
0
0
VERTEX
8
CUT
10
5.125
20
4.125
30
0
0
VERTEX
8
CUT
10
4.781
20
4.281
30
0
0
VERTEX
8
CUT
10
4.5
20
4.5
30
0
0
VERTEX
8
CUT
10
4.281
20
4.781
30
0
0
VERTEX
8
CUT
10
4.125
20
5.125
30
0
0
VERTEX
8
CUT
10
4.031
20
5.531
30
0
0
VERTEX
8
CUT
10
4
20
6
30
0
0
SEQEND
8
CUT
0
POLYLINE
8
RASTER
66
1
70
1
0
VERTEX
8
RASTER
10
10.408
20
20.166
30
0
0
VERTEX
8
RASTER
10
10.415
20
20.261
30
0
0
VERTEX
8
RASTER
10
10.434
20
20.343
30
0
0
VERTEX
8
RASTER
10
10.465
20
20.413
30
0
0
VERTEX
8
RASTER
10
10.51
20
20.471
30
0
0
VERTEX
8
RASTER
10
10.567
20
20.515
30
0
0
VERTEX
8
RASTER
10
10.637
20
20.547
30
0
0
VERTEX
8
RASTER
10
10.719
20
20.566
30
0
0
VERTEX
8
RASTER
10
10.815
20
20.572
30
0
0
VERTEX
8
RASTER
10
25.451
20
20.572
30
0
0
VERTEX
8
RASTER
10
25.546
20
20.566
30
0
0
VERTEX
8
RASTER
10
25.629
20
20.547
30
0
0
VERTEX
8
RASTER
10
25.699
20
20.515
30
0
0
VERTEX
8
RASTER
10
25.756
20
20.471
30
0
0
VERTEX
8
RASTER
10
25.8
20
20.413
30
0
0
VERTEX
8
RASTER
10
25.832
20
20.343
30
0
0
VERTEX
8
RASTER
10
25.851
20
20.261
30
0
0
VERTEX
8
RASTER
10
25.857
20
20.166
30
0
0
VERTEX
8
RASTER
10
25.857
20
12.034
30
0
0
VERTEX
8
RASTER
10
25.851
20
11.939
30
0
0
VERTEX
8
RASTER
10
25.832
20
11.857
30
0
0
VERTEX
8
RASTER
10
25.8
20
11.787
30
0
0
VERTEX
8
RASTER
10
25.756
20
11.729
30
0
0
VERTEX
8
RASTER
10
25.699
20
11.685
30
0
0
VERTEX
8
RASTER
10
25.629
20
11.653
30
0
0
VERTEX
8
RASTER
10
25.546
20
11.634
30
0
0
VERTEX
8
RASTER
10
25.451
20
11.628
30
0
0
VERTEX
8
RASTER
10
10.815
20
11.628
30
0
0
VERTEX
8
RASTER
10
10.719
20
11.634
30
0
0
VERTEX
8
RASTER
10
10.637
20
11.653
30
0
0
VERTEX
8
RASTER
10
10.567
20
11.685
30
0
0
VERTEX
8
RASTER
10
10.51
20
11.729
30
0
0
VERTEX
8
RASTER
10
10.465
20
11.787
30
0
0
VERTEX
8
RASTER
10
10.434
20
11.857
30
0
0
VERTEX
8
RASTER
10
10.415
20
11.939
30
0
0
VERTEX
8
RASTER
10
10.408
20
12.034
30
0
0
SEQEND
8
RASTER
0
POLYLINE
8
RASTER
66
1
70
1
0
VERTEX
8
RASTER
10
13.03
20
19.962
30
0
0
VERTEX
8
RASTER
10
13.03
20
12.238
30
0
0
VERTEX
8
RASTER
10
13.478
20
12.238
30
0
0
VERTEX
8
RASTER
10
13.478
20
19.962
30
0
0
VERTEX
8
RASTER
10
13.03
20
19.962
30
0
0
SEQEND
8
RASTER
0
POLYLINE
8
RASTER
66
1
70
1
0
VERTEX
8
RASTER
10
15.876
20
19.962
30
0
0
VERTEX
8
RASTER
10
15.876
20
12.238
30
0
0
VERTEX
8
RASTER
10
16.324
20
12.238
30
0
0
VERTEX
8
RASTER
10
16.324
20
19.962
30
0
0
VERTEX
8
RASTER
10
15.876
20
19.962
30
0
0
SEQEND
8
RASTER
0
POLYLINE
8
RASTER
66
1
70
1
0
VERTEX
8
RASTER
10
18.722
20
19.962
30
0
0
VERTEX
8
RASTER
10
18.722
20
12.238
30
0
0
VERTEX
8
RASTER
10
19.17
20
12.238
30
0
0
VERTEX
8
RASTER
10
19.17
20
19.962
30
0
0
VERTEX
8
RASTER
10
18.722
20
19.962
30
0
0
SEQEND
8
RASTER
0
POLYLINE
8
RASTER
66
1
70
1
0
VERTEX
8
RASTER
10
21.568
20
19.962
30
0
0
VERTEX
8
RASTER
10
21.568
20
12.238
30
0
0
VERTEX
8
RASTER
10
22.015
20
12.238
30
0
0
VERTEX
8
RASTER
10
22.015
20
19.962
30
0
0
VERTEX
8
RASTER
10
21.568
20
19.962
30
0
0
SEQEND
8
RASTER
0
POLYLINE
8
RASTER
66
1
70
1
0
VERTEX
8
RASTER
10
24.414
20
19.962
30
0
0
VERTEX
8
RASTER
10
24.414
20
12.238
30
0
0
VERTEX
8
RASTER
10
24.861
20
12.238
30
0
0
VERTEX
8
RASTER
10
24.861
20
19.962
30
0
0
VERTEX
8
RASTER
10
24.414
20
19.962
30
0
0
SEQEND
8
RASTER
0
CIRCLE
8
RASTER
10
16.1
20
18.295
30
0
40
0.549
0
CIRCLE
8
RASTER
10
16.1
20
18.295
30
0
40
0.305
0
POLYLINE
8
RASTER
66
1
70
1
0
VERTEX
8
RASTER
10
15.856
20
17.564
30
0
0
VERTEX
8
RASTER
10
15.856
20
16.954
30
0
0
VERTEX
8
RASTER
10
14.758
20
16.954
30
0
0
VERTEX
8
RASTER
10
14.758
20
16.588
30
0
0
VERTEX
8
RASTER
10
15.856
20
16.588
30
0
0
VERTEX
8
RASTER
10
15.856
20
14.88
30
0
0
VERTEX
8
RASTER
10
15.714
20
14.851
30
0
0
VERTEX
8
RASTER
10
15.564
20
14.856
30
0
0
VERTEX
8
RASTER
10
15.412
20
14.891
30
0
0
VERTEX
8
RASTER
10
15.261
20
14.957
30
0
0
VERTEX
8
RASTER
10
15.116
20
15.051
30
0
0
VERTEX
8
RASTER
10
14.981
20
15.172
30
0
0
VERTEX
8
RASTER
10
14.861
20
15.319
30
0
0
VERTEX
8
RASTER
10
14.758
20
15.49
30
0
0
VERTEX
8
RASTER
10
14.149
20
15.002
30
0
0
VERTEX
8
RASTER
10
14.267
20
14.649
30
0
0
VERTEX
8
RASTER
10
14.436
20
14.324
30
0
0
VERTEX
8
RASTER
10
14.648
20
14.033
30
0
0
VERTEX
8
RASTER
10
14.896
20
13.783
30
0
0
VERTEX
8
RASTER
10
15.172
20
13.578
30
0
0
VERTEX
8
RASTER
10
15.469
20
13.424
30
0
0
VERTEX
8
RASTER
10
15.781
20
13.328
30
0
0
VERTEX
8
RASTER
10
16.1
20
13.295
30
0
0
VERTEX
8
RASTER
10
16.419
20
13.328
30
0
0
VERTEX
8
RASTER
10
16.731
20
13.424
30
0
0
VERTEX
8
RASTER
10
17.028
20
13.578
30
0
0
VERTEX
8
RASTER
10
17.304
20
13.783
30
0
0
VERTEX
8
RASTER
10
17.552
20
14.033
30
0
0
VERTEX
8
RASTER
10
17.764
20
14.324
30
0
0
VERTEX
8
RASTER
10
17.933
20
14.649
30
0
0
VERTEX
8
RASTER
10
18.051
20
15.002
30
0
0
VERTEX
8
RASTER
10
17.442
20
15.49
30
0
0
VERTEX
8
RASTER
10
17.339
20
15.319
30
0
0
VERTEX
8
RASTER
10
17.219
20
15.172
30
0
0
VERTEX
8
RASTER
10
17.084
20
15.051
30
0
0
VERTEX
8
RASTER
10
16.939
20
14.957
30
0
0
VERTEX
8
RASTER
10
16.788
20
14.891
30
0
0
VERTEX
8
RASTER
10
16.636
20
14.856
30
0
0
VERTEX
8
RASTER
10
16.486
20
14.851
30
0
0
VERTEX
8
RASTER
10
16.344
20
14.88
30
0
0
VERTEX
8
RASTER
10
16.344
20
16.588
30
0
0
VERTEX
8
RASTER
10
17.442
20
16.588
30
0
0
VERTEX
8
RASTER
10
17.442
20
16.954
30
0
0
VERTEX
8
RASTER
10
16.344
20
16.954
30
0
0
VERTEX
8
RASTER
10
16.344
20
17.564
30
0
0
VERTEX
8
RASTER
10
15.856
20
17.564
30
0
0
SEQEND
8
RASTER
0
CIRCLE
8
RASTER
10
10.408
20
21.385
30
0
40
1.016
0
CIRCLE
8
RASTER
10
10.408
20
10.815
30
0
40
1.016
0
CIRCLE
8
RASTER
10
25.857
20
21.385
30
0
40
1.016
0
CIRCLE
8
RASTER
10
25.857
20
10.815
30
0
40
1.016
0
POLYLINE
8
CUT
66
1
70
1
0
VERTEX
8
CUT
10
32.2
20
26.2
30
0
0
VERTEX
8
CUT
10
32.231
20
26.669
30
0
0
VERTEX
8
CUT
10
32.325
20
27.075
30
0
0
VERTEX
8
CUT
10
32.481
20
27.419
30
0
0
VERTEX
8
CUT
10
32.7
20
27.7
30
0
0
VERTEX
8
CUT
10
32.981
20
27.919
30
0
0
VERTEX
8
CUT
10
33.325
20
28.075
30
0
0
VERTEX
8
CUT
10
33.731
20
28.169
30
0
0
VERTEX
8
CUT
10
34.2
20
28.2
30
0
0
VERTEX
8
CUT
10
54.4
20
28.2
30
0
0
VERTEX
8
CUT
10
54.869
20
28.169
30
0
0
VERTEX
8
CUT
10
55.275
20
28.075
30
0
0
VERTEX
8
CUT
10
55.619
20
27.919
30
0
0
VERTEX
8
CUT
10
55.9
20
27.7
30
0
0
VERTEX
8
CUT
10
56.119
20
27.419
30
0
0
VERTEX
8
CUT
10
56.275
20
27.075
30
0
0
VERTEX
8
CUT
10
56.369
20
26.669
30
0
0
VERTEX
8
CUT
10
56.4
20
26.2
30
0
0
VERTEX
8
CUT
10
56.4
20
19.25
30
0
0
VERTEX
8
CUT
10
51.9
20
19.25
30
0
0
VERTEX
8
CUT
10
51.9
20
12.95
30
0
0
VERTEX
8
CUT
10
56.4
20
12.95
30
0
0
VERTEX
8
CUT
10
56.4
20
6
30
0
0
VERTEX
8
CUT
10
56.369
20
5.531
30
0
0
VERTEX
8
CUT
10
56.275
20
5.125
30
0
0
VERTEX
8
CUT
10
56.119
20
4.781
30
0
0
VERTEX
8
CUT
10
55.9
20
4.5
30
0
0
VERTEX
8
CUT
10
55.619
20
4.281
30
0
0
VERTEX
8
CUT
10
55.275
20
4.125
30
0
0
VERTEX
8
CUT
10
54.869
20
4.031
30
0
0
VERTEX
8
CUT
10
54.4
20
4
30
0
0
VERTEX
8
CUT
10
34.2
20
4
30
0
0
VERTEX
8
CUT
10
33.731
20
4.031
30
0
0
VERTEX
8
CUT
10
33.325
20
4.125
30
0
0
VERTEX
8
CUT
10
32.981
20
4.281
30
0
0
VERTEX
8
CUT
10
32.7
20
4.5
30
0
0
VERTEX
8
CUT
10
32.481
20
4.781
30
0
0
VERTEX
8
CUT
10
32.325
20
5.125
30
0
0
VERTEX
8
CUT
10
32.231
20
5.531
30
0
0
VERTEX
8
CUT
10
32.2
20
6
30
0
0
SEQEND
8
CUT
0
POLYLINE
8
RASTER
66
1
70
1
0
VERTEX
8
RASTER
10
38.608
20
20.166
30
0
0
VERTEX
8
RASTER
10
38.615
20
20.261
30
0
0
VERTEX
8
RASTER
10
38.634
20
20.343
30
0
0
VERTEX
8
RASTER
10
38.665
20
20.413
30
0
0
VERTEX
8
RASTER
10
38.71
20
20.471
30
0
0
VERTEX
8
RASTER
10
38.767
20
20.515
30
0
0
VERTEX
8
RASTER
10
38.837
20
20.547
30
0
0
VERTEX
8
RASTER
10
38.919
20
20.566
30
0
0
VERTEX
8
RASTER
10
39.015
20
20.572
30
0
0
VERTEX
8
RASTER
10
53.651
20
20.572
30
0
0
VERTEX
8
RASTER
10
53.746
20
20.566
30
0
0
VERTEX
8
RASTER
10
53.829
20
20.547
30
0
0
VERTEX
8
RASTER
10
53.899
20
20.515
30
0
0
VERTEX
8
RASTER
10
53.956
20
20.471
30
0
0
VERTEX
8
RASTER
10
54
20
20.413
30
0
0
VERTEX
8
RASTER
10
54.032
20
20.343
30
0
0
VERTEX
8
RASTER
10
54.051
20
20.261
30
0
0
VERTEX
8
RASTER
10
54.057
20
20.166
30
0
0
VERTEX
8
RASTER
10
54.057
20
12.034
30
0
0
VERTEX
8
RASTER
10
54.051
20
11.939
30
0
0
VERTEX
8
RASTER
10
54.032
20
11.857
30
0
0
VERTEX
8
RASTER
10
54
20
11.787
30
0
0
VERTEX
8
RASTER
10
53.956
20
11.729
30
0
0
VERTEX
8
RASTER
10
53.899
20
11.685
30
0
0
VERTEX
8
RASTER
10
53.829
20
11.653
30
0
0
VERTEX
8
RASTER
10
53.746
20
11.634
30
0
0
VERTEX
8
RASTER
10
53.651
20
11.628
30
0
0
VERTEX
8
RASTER
10
39.015
20
11.628
30
0
0
VERTEX
8
RASTER
10
38.919
20
11.634
30
0
0
VERTEX
8
RASTER
10
38.837
20
11.653
30
0
0
VERTEX
8
RASTER
10
38.767
20
11.685
30
0
0
VERTEX
8
RASTER
10
38.71
20
11.729
30
0
0
VERTEX
8
RASTER
10
38.665
20
11.787
30
0
0
VERTEX
8
RASTER
10
38.634
20
11.857
30
0
0
VERTEX
8
RASTER
10
38.615
20
11.939
30
0
0
VERTEX
8
RASTER
10
38.608
20
12.034
30
0
0
SEQEND
8
RASTER
0
POLYLINE
8
RASTER
66
1
70
1
0
VERTEX
8
RASTER
10
41.23
20
19.962
30
0
0
VERTEX
8
RASTER
10
41.23
20
12.238
30
0
0
VERTEX
8
RASTER
10
41.678
20
12.238
30
0
0
VERTEX
8
RASTER
10
41.678
20
19.962
30
0
0
VERTEX
8
RASTER
10
41.23
20
19.962
30
0
0
SEQEND
8
RASTER
0
POLYLINE
8
RASTER
66
1
70
1
0
VERTEX
8
RASTER
10
44.076
20
19.962
30
0
0
VERTEX
8
RASTER
10
44.076
20
12.238
30
0
0
VERTEX
8
RASTER
10
44.524
20
12.238
30
0
0
VERTEX
8
RASTER
10
44.524
20
19.962
30
0
0
VERTEX
8
RASTER
10
44.076
20
19.962
30
0
0
SEQEND
8
RASTER
0
POLYLINE
8
RASTER
66
1
70
1
0
VERTEX
8
RASTER
10
46.922
20
19.962
30
0
0
VERTEX
8
RASTER
10
46.922
20
12.238
30
0
0
VERTEX
8
RASTER
10
47.37
20
12.238
30
0
0
VERTEX
8
RASTER
10
47.37
20
19.962
30
0
0
VERTEX
8
RASTER
10
46.922
20
19.962
30
0
0
SEQEND
8
RASTER
0
POLYLINE
8
RASTER
66
1
70
1
0
VERTEX
8
RASTER
10
49.768
20
19.962
30
0
0
VERTEX
8
RASTER
10
49.768
20
12.238
30
0
0
VERTEX
8
RASTER
10
50.215
20
12.238
30
0
0
VERTEX
8
RASTER
10
50.215
20
19.962
30
0
0
VERTEX
8
RASTER
10
49.768
20
19.962
30
0
0
SEQEND
8
RASTER
0
POLYLINE
8
RASTER
66
1
70
1
0
VERTEX
8
RASTER
10
52.614
20
19.962
30
0
0
VERTEX
8
RASTER
10
52.614
20
12.238
30
0
0
VERTEX
8
RASTER
10
53.061
20
12.238
30
0
0
VERTEX
8
RASTER
10
53.061
20
19.962
30
0
0
VERTEX
8
RASTER
10
52.614
20
19.962
30
0
0
SEQEND
8
RASTER
0
CIRCLE
8
RASTER
10
44.3
20
18.295
30
0
40
0.549
0
CIRCLE
8
RASTER
10
44.3
20
18.295
30
0
40
0.305
0
POLYLINE
8
RASTER
66
1
70
1
0
VERTEX
8
RASTER
10
44.056
20
17.564
30
0
0
VERTEX
8
RASTER
10
44.056
20
16.954
30
0
0
VERTEX
8
RASTER
10
42.958
20
16.954
30
0
0
VERTEX
8
RASTER
10
42.958
20
16.588
30
0
0
VERTEX
8
RASTER
10
44.056
20
16.588
30
0
0
VERTEX
8
RASTER
10
44.056
20
14.88
30
0
0
VERTEX
8
RASTER
10
43.914
20
14.851
30
0
0
VERTEX
8
RASTER
10
43.764
20
14.856
30
0
0
VERTEX
8
RASTER
10
43.612
20
14.891
30
0
0
VERTEX
8
RASTER
10
43.461
20
14.957
30
0
0
VERTEX
8
RASTER
10
43.316
20
15.051
30
0
0
VERTEX
8
RASTER
10
43.181
20
15.172
30
0
0
VERTEX
8
RASTER
10
43.061
20
15.319
30
0
0
VERTEX
8
RASTER
10
42.958
20
15.49
30
0
0
VERTEX
8
RASTER
10
42.349
20
15.002
30
0
0
VERTEX
8
RASTER
10
42.467
20
14.649
30
0
0
VERTEX
8
RASTER
10
42.636
20
14.324
30
0
0
VERTEX
8
RASTER
10
42.848
20
14.033
30
0
0
VERTEX
8
RASTER
10
43.096
20
13.783
30
0
0
VERTEX
8
RASTER
10
43.372
20
13.578
30
0
0
VERTEX
8
RASTER
10
43.669
20
13.424
30
0
0
VERTEX
8
RASTER
10
43.981
20
13.328
30
0
0
VERTEX
8
RASTER
10
44.3
20
13.295
30
0
0
VERTEX
8
RASTER
10
44.619
20
13.328
30
0
0
VERTEX
8
RASTER
10
44.931
20
13.424
30
0
0
VERTEX
8
RASTER
10
45.228
20
13.578
30
0
0
VERTEX
8
RASTER
10
45.504
20
13.783
30
0
0
VERTEX
8
RASTER
10
45.752
20
14.033
30
0
0
VERTEX
8
RASTER
10
45.964
20
14.324
30
0
0
VERTEX
8
RASTER
10
46.133
20
14.649
30
0
0
VERTEX
8
RASTER
10
46.251
20
15.002
30
0
0
VERTEX
8
RASTER
10
45.642
20
15.49
30
0
0
VERTEX
8
RASTER
10
45.539
20
15.319
30
0
0
VERTEX
8
RASTER
10
45.419
20
15.172
30
0
0
VERTEX
8
RASTER
10
45.284
20
15.051
30
0
0
VERTEX
8
RASTER
10
45.139
20
14.957
30
0
0
VERTEX
8
RASTER
10
44.988
20
14.891
30
0
0
VERTEX
8
RASTER
10
44.836
20
14.856
30
0
0
VERTEX
8
RASTER
10
44.686
20
14.851
30
0
0
VERTEX
8
RASTER
10
44.544
20
14.88
30
0
0
VERTEX
8
RASTER
10
44.544
20
16.588
30
0
0
VERTEX
8
RASTER
10
45.642
20
16.588
30
0
0
VERTEX
8
RASTER
10
45.642
20
16.954
30
0
0
VERTEX
8
RASTER
10
44.544
20
16.954
30
0
0
VERTEX
8
RASTER
10
44.544
20
17.564
30
0
0
VERTEX
8
RASTER
10
44.056
20
17.564
30
0
0
SEQEND
8
RASTER
0
CIRCLE
8
RASTER
10
38.608
20
21.385
30
0
40
1.016
0
CIRCLE
8
RASTER
10
38.608
20
10.815
30
0
40
1.016
0
CIRCLE
8
RASTER
10
54.057
20
21.385
30
0
40
1.016
0
CIRCLE
8
RASTER
10
54.057
20
10.815
30
0
40
1.016
0
POLYLINE
8
CUT
66
1
70
1
0
VERTEX
8
CUT
10
60.4
20
26.2
30
0
0
VERTEX
8
CUT
10
60.431
20
26.669
30
0
0
VERTEX
8
CUT
10
60.525
20
27.075
30
0
0
VERTEX
8
CUT
10
60.681
20
27.419
30
0
0
VERTEX
8
CUT
10
60.9
20
27.7
30
0
0
VERTEX
8
CUT
10
61.181
20
27.919
30
0
0
VERTEX
8
CUT
10
61.525
20
28.075
30
0
0
VERTEX
8
CUT
10
61.931
20
28.169
30
0
0
VERTEX
8
CUT
10
62.4
20
28.2
30
0
0
VERTEX
8
CUT
10
82.6
20
28.2
30
0
0
VERTEX
8
CUT
10
83.069
20
28.169
30
0
0
VERTEX
8
CUT
10
83.475
20
28.075
30
0
0
VERTEX
8
CUT
10
83.819
20
27.919
30
0
0
VERTEX
8
CUT
10
84.1
20
27.7
30
0
0
VERTEX
8
CUT
10
84.319
20
27.419
30
0
0
VERTEX
8
CUT
10
84.475
20
27.075
30
0
0
VERTEX
8
CUT
10
84.569
20
26.669
30
0
0
VERTEX
8
CUT
10
84.6
20
26.2
30
0
0
VERTEX
8
CUT
10
84.6
20
19.25
30
0
0
VERTEX
8
CUT
10
80.1
20
19.25
30
0
0
VERTEX
8
CUT
10
80.1
20
12.95
30
0
0
VERTEX
8
CUT
10
84.6
20
12.95
30
0
0
VERTEX
8
CUT
10
84.6
20
6
30
0
0
VERTEX
8
CUT
10
84.569
20
5.531
30
0
0
VERTEX
8
CUT
10
84.475
20
5.125
30
0
0
VERTEX
8
CUT
10
84.319
20
4.781
30
0
0
VERTEX
8
CUT
10
84.1
20
4.5
30
0
0
VERTEX
8
CUT
10
83.819
20
4.281
30
0
0
VERTEX
8
CUT
10
83.475
20
4.125
30
0
0
VERTEX
8
CUT
10
83.069
20
4.031
30
0
0
VERTEX
8
CUT
10
82.6
20
4
30
0
0
VERTEX
8
CUT
10
62.4
20
4
30
0
0
VERTEX
8
CUT
10
61.931
20
4.031
30
0
0
VERTEX
8
CUT
10
61.525
20
4.125
30
0
0
VERTEX
8
CUT
10
61.181
20
4.281
30
0
0
VERTEX
8
CUT
10
60.9
20
4.5
30
0
0
VERTEX
8
CUT
10
60.681
20
4.781
30
0
0
VERTEX
8
CUT
10
60.525
20
5.125
30
0
0
VERTEX
8
CUT
10
60.431
20
5.531
30
0
0
VERTEX
8
CUT
10
60.4
20
6
30
0
0
SEQEND
8
CUT
0
POLYLINE
8
RASTER
66
1
70
1
0
VERTEX
8
RASTER
10
66.808
20
20.166
30
0
0
VERTEX
8
RASTER
10
66.815
20
20.261
30
0
0
VERTEX
8
RASTER
10
66.834
20
20.343
30
0
0
VERTEX
8
RASTER
10
66.865
20
20.413
30
0
0
VERTEX
8
RASTER
10
66.91
20
20.471
30
0
0
VERTEX
8
RASTER
10
66.967
20
20.515
30
0
0
VERTEX
8
RASTER
10
67.037
20
20.547
30
0
0
VERTEX
8
RASTER
10
67.119
20
20.566
30
0
0
VERTEX
8
RASTER
10
67.215
20
20.572
30
0
0
VERTEX
8
RASTER
10
81.851
20
20.572
30
0
0
VERTEX
8
RASTER
10
81.946
20
20.566
30
0
0
VERTEX
8
RASTER
10
82.029
20
20.547
30
0
0
VERTEX
8
RASTER
10
82.099
20
20.515
30
0
0
VERTEX
8
RASTER
10
82.156
20
20.471
30
0
0
VERTEX
8
RASTER
10
82.2
20
20.413
30
0
0
VERTEX
8
RASTER
10
82.232
20
20.343
30
0
0
VERTEX
8
RASTER
10
82.251
20
20.261
30
0
0
VERTEX
8
RASTER
10
82.257
20
20.166
30
0
0
VERTEX
8
RASTER
10
82.257
20
12.034
30
0
0
VERTEX
8
RASTER
10
82.251
20
11.939
30
0
0
VERTEX
8
RASTER
10
82.232
20
11.857
30
0
0
VERTEX
8
RASTER
10
82.2
20
11.787
30
0
0
VERTEX
8
RASTER
10
82.156
20
11.729
30
0
0
VERTEX
8
RASTER
10
82.099
20
11.685
30
0
0
VERTEX
8
RASTER
10
82.029
20
11.653
30
0
0
VERTEX
8
RASTER
10
81.946
20
11.634
30
0
0
VERTEX
8
RASTER
10
81.851
20
11.628
30
0
0
VERTEX
8
RASTER
10
67.215
20
11.628
30
0
0
VERTEX
8
RASTER
10
67.119
20
11.634
30
0
0
VERTEX
8
RASTER
10
67.037
20
11.653
30
0
0
VERTEX
8
RASTER
10
66.967
20
11.685
30
0
0
VERTEX
8
RASTER
10
66.91
20
11.729
30
0
0
VERTEX
8
RASTER
10
66.865
20
11.787
30
0
0
VERTEX
8
RASTER
10
66.834
20
11.857
30
0
0
VERTEX
8
RASTER
10
66.815
20
11.939
30
0
0
VERTEX
8
RASTER
10
66.808
20
12.034
30
0
0
SEQEND
8
RASTER
0
POLYLINE
8
RASTER
66
1
70
1
0
VERTEX
8
RASTER
10
69.43
20
19.962
30
0
0
VERTEX
8
RASTER
10
69.43
20
12.238
30
0
0
VERTEX
8
RASTER
10
69.878
20
12.238
30
0
0
VERTEX
8
RASTER
10
69.878
20
19.962
30
0
0
VERTEX
8
RASTER
10
69.43
20
19.962
30
0
0
SEQEND
8
RASTER
0
POLYLINE
8
RASTER
66
1
70
1
0
VERTEX
8
RASTER
10
72.276
20
19.962
30
0
0
VERTEX
8
RASTER
10
72.276
20
12.238
30
0
0
VERTEX
8
RASTER
10
72.724
20
12.238
30
0
0
VERTEX
8
RASTER
10
72.724
20
19.962
30
0
0
VERTEX
8
RASTER
10
72.276
20
19.962
30
0
0
SEQEND
8
RASTER
0
POLYLINE
8
RASTER
66
1
70
1
0
VERTEX
8
RASTER
10
75.122
20
19.962
30
0
0
VERTEX
8
RASTER
10
75.122
20
12.238
30
0
0
VERTEX
8
RASTER
10
75.57
20
12.238
30
0
0
VERTEX
8
RASTER
10
75.57
20
19.962
30
0
0
VERTEX
8
RASTER
10
75.122
20
19.962
30
0
0
SEQEND
8
RASTER
0
POLYLINE
8
RASTER
66
1
70
1
0
VERTEX
8
RASTER
10
77.968
20
19.962
30
0
0
VERTEX
8
RASTER
10
77.968
20
12.238
30
0
0
VERTEX
8
RASTER
10
78.415
20
12.238
30
0
0
VERTEX
8
RASTER
10
78.415
20
19.962
30
0
0
VERTEX
8
RASTER
10
77.968
20
19.962
30
0
0
SEQEND
8
RASTER
0
POLYLINE
8
RASTER
66
1
70
1
0
VERTEX
8
RASTER
10
80.814
20
19.962
30
0
0
VERTEX
8
RASTER
10
80.814
20
12.238
30
0
0
VERTEX
8
RASTER
10
81.261
20
12.238
30
0
0
VERTEX
8
RASTER
10
81.261
20
19.962
30
0
0
VERTEX
8
RASTER
10
80.814
20
19.962
30
0
0
SEQEND
8
RASTER
0
CIRCLE
8
RASTER
10
72.5
20
18.295
30
0
40
0.549
0
CIRCLE
8
RASTER
10
72.5
20
18.295
30
0
40
0.305
0
POLYLINE
8
RASTER
66
1
70
1
0
VERTEX
8
RASTER
10
72.256
20
17.564
30
0
0
VERTEX
8
RASTER
10
72.256
20
16.954
30
0
0
VERTEX
8
RASTER
10
71.158
20
16.954
30
0
0
VERTEX
8
RASTER
10
71.158
20
16.588
30
0
0
VERTEX
8
RASTER
10
72.256
20
16.588
30
0
0
VERTEX
8
RASTER
10
72.256
20
14.88
30
0
0
VERTEX
8
RASTER
10
72.114
20
14.851
30
0
0
VERTEX
8
RASTER
10
71.964
20
14.856
30
0
0
VERTEX
8
RASTER
10
71.812
20
14.891
30
0
0
VERTEX
8
RASTER
10
71.661
20
14.957
30
0
0
VERTEX
8
RASTER
10
71.516
20
15.051
30
0
0
VERTEX
8
RASTER
10
71.381
20
15.172
30
0
0
VERTEX
8
RASTER
10
71.261
20
15.319
30
0
0
VERTEX
8
RASTER
10
71.158
20
15.49
30
0
0
VERTEX
8
RASTER
10
70.549
20
15.002
30
0
0
VERTEX
8
RASTER
10
70.667
20
14.649
30
0
0
VERTEX
8
RASTER
10
70.836
20
14.324
30
0
0
VERTEX
8
RASTER
10
71.048
20
14.033
30
0
0
VERTEX
8
RASTER
10
71.296
20
13.783
30
0
0
VERTEX
8
RASTER
10
71.572
20
13.578
30
0
0
VERTEX
8
RASTER
10
71.869
20
13.424
30
0
0
VERTEX
8
RASTER
10
72.181
20
13.328
30
0
0
VERTEX
8
RASTER
10
72.5
20
13.295
30
0
0
VERTEX
8
RASTER
10
72.819
20
13.328
30
0
0
VERTEX
8
RASTER
10
73.131
20
13.424
30
0
0
VERTEX
8
RASTER
10
73.428
20
13.578
30
0
0
VERTEX
8
RASTER
10
73.704
20
13.783
30
0
0
VERTEX
8
RASTER
10
73.952
20
14.033
30
0
0
VERTEX
8
RASTER
10
74.164
20
14.324
30
0
0
VERTEX
8
RASTER
10
74.333
20
14.649
30
0
0
VERTEX
8
RASTER
10
74.451
20
15.002
30
0
0
VERTEX
8
RASTER
10
73.842
20
15.49
30
0
0
VERTEX
8
RASTER
10
73.739
20
15.319
30
0
0
VERTEX
8
RASTER
10
73.619
20
15.172
30
0
0
VERTEX
8
RASTER
10
73.484
20
15.051
30
0
0
VERTEX
8
RASTER
10
73.339
20
14.957
30
0
0
VERTEX
8
RASTER
10
73.188
20
14.891
30
0
0
VERTEX
8
RASTER
10
73.036
20
14.856
30
0
0
VERTEX
8
RASTER
10
72.886
20
14.851
30
0
0
VERTEX
8
RASTER
10
72.744
20
14.88
30
0
0
VERTEX
8
RASTER
10
72.744
20
16.588
30
0
0
VERTEX
8
RASTER
10
73.842
20
16.588
30
0
0
VERTEX
8
RASTER
10
73.842
20
16.954
30
0
0
VERTEX
8
RASTER
10
72.744
20
16.954
30
0
0
VERTEX
8
RASTER
10
72.744
20
17.564
30
0
0
VERTEX
8
RASTER
10
72.256
20
17.564
30
0
0
SEQEND
8
RASTER
0
CIRCLE
8
RASTER
10
66.808
20
21.385
30
0
40
1.016
0
CIRCLE
8
RASTER
10
66.808
20
10.815
30
0
40
1.016
0
CIRCLE
8
RASTER
10
82.257
20
21.385
30
0
40
1.016
0
CIRCLE
8
RASTER
10
82.257
20
10.815
30
0
40
1.016
0
POLYLINE
8
CUT
66
1
70
1
0
VERTEX
8
CUT
10
88.6
20
26.2
30
0
0
VERTEX
8
CUT
10
88.631
20
26.669
30
0
0
VERTEX
8
CUT
10
88.725
20
27.075
30
0
0
VERTEX
8
CUT
10
88.881
20
27.419
30
0
0
VERTEX
8
CUT
10
89.1
20
27.7
30
0
0
VERTEX
8
CUT
10
89.381
20
27.919
30
0
0
VERTEX
8
CUT
10
89.725
20
28.075
30
0
0
VERTEX
8
CUT
10
90.131
20
28.169
30
0
0
VERTEX
8
CUT
10
90.6
20
28.2
30
0
0
VERTEX
8
CUT
10
110.8
20
28.2
30
0
0
VERTEX
8
CUT
10
111.269
20
28.169
30
0
0
VERTEX
8
CUT
10
111.675
20
28.075
30
0
0
VERTEX
8
CUT
10
112.019
20
27.919
30
0
0
VERTEX
8
CUT
10
112.3
20
27.7
30
0
0
VERTEX
8
CUT
10
112.519
20
27.419
30
0
0
VERTEX
8
CUT
10
112.675
20
27.075
30
0
0
VERTEX
8
CUT
10
112.769
20
26.669
30
0
0
VERTEX
8
CUT
10
112.8
20
26.2
30
0
0
VERTEX
8
CUT
10
112.8
20
19.25
30
0
0
VERTEX
8
CUT
10
108.3
20
19.25
30
0
0
VERTEX
8
CUT
10
108.3
20
12.95
30
0
0
VERTEX
8
CUT
10
112.8
20
12.95
30
0
0
VERTEX
8
CUT
10
112.8
20
6
30
0
0
VERTEX
8
CUT
10
112.769
20
5.531
30
0
0
VERTEX
8
CUT
10
112.675
20
5.125
30
0
0
VERTEX
8
CUT
10
112.519
20
4.781
30
0
0
VERTEX
8
CUT
10
112.3
20
4.5
30
0
0
VERTEX
8
CUT
10
112.019
20
4.281
30
0
0
VERTEX
8
CUT
10
111.675
20
4.125
30
0
0
VERTEX
8
CUT
10
111.269
20
4.031
30
0
0
VERTEX
8
CUT
10
110.8
20
4
30
0
0
VERTEX
8
CUT
10
90.6
20
4
30
0
0
VERTEX
8
CUT
10
90.131
20
4.031
30
0
0
VERTEX
8
CUT
10
89.725
20
4.125
30
0
0
VERTEX
8
CUT
10
89.381
20
4.281
30
0
0
VERTEX
8
CUT
10
89.1
20
4.5
30
0
0
VERTEX
8
CUT
10
88.881
20
4.781
30
0
0
VERTEX
8
CUT
10
88.725
20
5.125
30
0
0
VERTEX
8
CUT
10
88.631
20
5.531
30
0
0
VERTEX
8
CUT
10
88.6
20
6
30
0
0
SEQEND
8
CUT
0
POLYLINE
8
RASTER
66
1
70
1
0
VERTEX
8
RASTER
10
95.008
20
20.166
30
0
0
VERTEX
8
RASTER
10
95.015
20
20.261
30
0
0
VERTEX
8
RASTER
10
95.034
20
20.343
30
0
0
VERTEX
8
RASTER
10
95.065
20
20.413
30
0
0
VERTEX
8
RASTER
10
95.11
20
20.471
30
0
0
VERTEX
8
RASTER
10
95.167
20
20.515
30
0
0
VERTEX
8
RASTER
10
95.237
20
20.547
30
0
0
VERTEX
8
RASTER
10
95.319
20
20.566
30
0
0
VERTEX
8
RASTER
10
95.415
20
20.572
30
0
0
VERTEX
8
RASTER
10
110.051
20
20.572
30
0
0
VERTEX
8
RASTER
10
110.146
20
20.566
30
0
0
VERTEX
8
RASTER
10
110.229
20
20.547
30
0
0
VERTEX
8
RASTER
10
110.299
20
20.515
30
0
0
VERTEX
8
RASTER
10
110.356
20
20.471
30
0
0
VERTEX
8
RASTER
10
110.4
20
20.413
30
0
0
VERTEX
8
RASTER
10
110.432
20
20.343
30
0
0
VERTEX
8
RASTER
10
110.451
20
20.261
30
0
0
VERTEX
8
RASTER
10
110.457
20
20.166
30
0
0
VERTEX
8
RASTER
10
110.457
20
12.034
30
0
0
VERTEX
8
RASTER
10
110.451
20
11.939
30
0
0
VERTEX
8
RASTER
10
110.432
20
11.857
30
0
0
VERTEX
8
RASTER
10
110.4
20
11.787
30
0
0
VERTEX
8
RASTER
10
110.356
20
11.729
30
0
0
VERTEX
8
RASTER
10
110.299
20
11.685
30
0
0
VERTEX
8
RASTER
10
110.229
20
11.653
30
0
0
VERTEX
8
RASTER
10
110.146
20
11.634
30
0
0
VERTEX
8
RASTER
10
110.051
20
11.628
30
0
0
VERTEX
8
RASTER
10
95.415
20
11.628
30
0
0
VERTEX
8
RASTER
10
95.319
20
11.634
30
0
0
VERTEX
8
RASTER
10
95.237
20
11.653
30
0
0
VERTEX
8
RASTER
10
95.167
20
11.685
30
0
0
VERTEX
8
RASTER
10
95.11
20
11.729
30
0
0
VERTEX
8
RASTER
10
95.065
20
11.787
30
0
0
VERTEX
8
RASTER
10
95.034
20
11.857
30
0
0
VERTEX
8
RASTER
10
95.015
20
11.939
30
0
0
VERTEX
8
RASTER
10
95.008
20
12.034
30
0
0
SEQEND
8
RASTER
0
POLYLINE
8
RASTER
66
1
70
1
0
VERTEX
8
RASTER
10
97.63
20
19.962
30
0
0
VERTEX
8
RASTER
10
97.63
20
12.238
30
0
0
VERTEX
8
RASTER
10
98.078
20
12.238
30
0
0
VERTEX
8
RASTER
10
98.078
20
19.962
30
0
0
VERTEX
8
RASTER
10
97.63
20
19.962
30
0
0
SEQEND
8
RASTER
0
POLYLINE
8
RASTER
66
1
70
1
0
VERTEX
8
RASTER
10
100.476
20
19.962
30
0
0
VERTEX
8
RASTER
10
100.476
20
12.238
30
0
0
VERTEX
8
RASTER
10
100.924
20
12.238
30
0
0
VERTEX
8
RASTER
10
100.924
20
19.962
30
0
0
VERTEX
8
RASTER
10
100.476
20
19.962
30
0
0
SEQEND
8
RASTER
0
POLYLINE
8
RASTER
66
1
70
1
0
VERTEX
8
RASTER
10
103.322
20
19.962
30
0
0
VERTEX
8
RASTER
10
103.322
20
12.238
30
0
0
VERTEX
8
RASTER
10
103.77
20
12.238
30
0
0
VERTEX
8
RASTER
10
103.77
20
19.962
30
0
0
VERTEX
8
RASTER
10
103.322
20
19.962
30
0
0
SEQEND
8
RASTER
0
POLYLINE
8
RASTER
66
1
70
1
0
VERTEX
8
RASTER
10
106.168
20
19.962
30
0
0
VERTEX
8
RASTER
10
106.168
20
12.238
30
0
0
VERTEX
8
RASTER
10
106.615
20
12.238
30
0
0
VERTEX
8
RASTER
10
106.615
20
19.962
30
0
0
VERTEX
8
RASTER
10
106.168
20
19.962
30
0
0
SEQEND
8
RASTER
0
POLYLINE
8
RASTER
66
1
70
1
0
VERTEX
8
RASTER
10
109.014
20
19.962
30
0
0
VERTEX
8
RASTER
10
109.014
20
12.238
30
0
0
VERTEX
8
RASTER
10
109.461
20
12.238
30
0
0
VERTEX
8
RASTER
10
109.461
20
19.962
30
0
0
VERTEX
8
RASTER
10
109.014
20
19.962
30
0
0
SEQEND
8
RASTER
0
CIRCLE
8
RASTER
10
100.7
20
18.295
30
0
40
0.549
0
CIRCLE
8
RASTER
10
100.7
20
18.295
30
0
40
0.305
0
POLYLINE
8
RASTER
66
1
70
1
0
VERTEX
8
RASTER
10
100.456
20
17.564
30
0
0
VERTEX
8
RASTER
10
100.456
20
16.954
30
0
0
VERTEX
8
RASTER
10
99.358
20
16.954
30
0
0
VERTEX
8
RASTER
10
99.358
20
16.588
30
0
0
VERTEX
8
RASTER
10
100.456
20
16.588
30
0
0
VERTEX
8
RASTER
10
100.456
20
14.88
30
0
0
VERTEX
8
RASTER
10
100.314
20
14.851
30
0
0
VERTEX
8
RASTER
10
100.164
20
14.856
30
0
0
VERTEX
8
RASTER
10
100.012
20
14.891
30
0
0
VERTEX
8
RASTER
10
99.861
20
14.957
30
0
0
VERTEX
8
RASTER
10
99.716
20
15.051
30
0
0
VERTEX
8
RASTER
10
99.581
20
15.172
30
0
0
VERTEX
8
RASTER
10
99.461
20
15.319
30
0
0
VERTEX
8
RASTER
10
99.358
20
15.49
30
0
0
VERTEX
8
RASTER
10
98.749
20
15.002
30
0
0
VERTEX
8
RASTER
10
98.867
20
14.649
30
0
0
VERTEX
8
RASTER
10
99.036
20
14.324
30
0
0
VERTEX
8
RASTER
10
99.248
20
14.033
30
0
0
VERTEX
8
RASTER
10
99.496
20
13.783
30
0
0
VERTEX
8
RASTER
10
99.772
20
13.578
30
0
0
VERTEX
8
RASTER
10
100.069
20
13.424
30
0
0
VERTEX
8
RASTER
10
100.381
20
13.328
30
0
0
VERTEX
8
RASTER
10
100.7
20
13.295
30
0
0
VERTEX
8
RASTER
10
101.019
20
13.328
30
0
0
VERTEX
8
RASTER
10
101.331
20
13.424
30
0
0
VERTEX
8
RASTER
10
101.628
20
13.578
30
0
0
VERTEX
8
RASTER
10
101.904
20
13.783
30
0
0
VERTEX
8
RASTER
10
102.152
20
14.033
30
0
0
VERTEX
8
RASTER
10
102.364
20
14.324
30
0
0
VERTEX
8
RASTER
10
102.533
20
14.649
30
0
0
VERTEX
8
RASTER
10
102.651
20
15.002
30
0
0
VERTEX
8
RASTER
10
102.042
20
15.49
30
0
0
VERTEX
8
RASTER
10
101.939
20
15.319
30
0
0
VERTEX
8
RASTER
10
101.819
20
15.172
30
0
0
VERTEX
8
RASTER
10
101.684
20
15.051
30
0
0
VERTEX
8
RASTER
10
101.539
20
14.957
30
0
0
VERTEX
8
RASTER
10
101.388
20
14.891
30
0
0
VERTEX
8
RASTER
10
101.236
20
14.856
30
0
0
VERTEX
8
RASTER
10
101.086
20
14.851
30
0
0
VERTEX
8
RASTER
10
100.944
20
14.88
30
0
0
VERTEX
8
RASTER
10
100.944
20
16.588
30
0
0
VERTEX
8
RASTER
10
102.042
20
16.588
30
0
0
VERTEX
8
RASTER
10
102.042
20
16.954
30
0
0
VERTEX
8
RASTER
10
100.944
20
16.954
30
0
0
VERTEX
8
RASTER
10
100.944
20
17.564
30
0
0
VERTEX
8
RASTER
10
100.456
20
17.564
30
0
0
SEQEND
8
RASTER
0
CIRCLE
8
RASTER
10
95.008
20
21.385
30
0
40
1.016
0
CIRCLE
8
RASTER
10
95.008
20
10.815
30
0
40
1.016
0
CIRCLE
8
RASTER
10
110.457
20
21.385
30
0
40
1.016
0
CIRCLE
8
RASTER
10
110.457
20
10.815
30
0
40
1.016
0
POLYLINE
8
CUT
66
1
70
1
0
VERTEX
8
CUT
10
116.8
20
26.2
30
0
0
VERTEX
8
CUT
10
116.831
20
26.669
30
0
0
VERTEX
8
CUT
10
116.925
20
27.075
30
0
0
VERTEX
8
CUT
10
117.081
20
27.419
30
0
0
VERTEX
8
CUT
10
117.3
20
27.7
30
0
0
VERTEX
8
CUT
10
117.581
20
27.919
30
0
0
VERTEX
8
CUT
10
117.925
20
28.075
30
0
0
VERTEX
8
CUT
10
118.331
20
28.169
30
0
0
VERTEX
8
CUT
10
118.8
20
28.2
30
0
0
VERTEX
8
CUT
10
139
20
28.2
30
0
0
VERTEX
8
CUT
10
139.469
20
28.169
30
0
0
VERTEX
8
CUT
10
139.875
20
28.075
30
0
0
VERTEX
8
CUT
10
140.219
20
27.919
30
0
0
VERTEX
8
CUT
10
140.5
20
27.7
30
0
0
VERTEX
8
CUT
10
140.719
20
27.419
30
0
0
VERTEX
8
CUT
10
140.875
20
27.075
30
0
0
VERTEX
8
CUT
10
140.969
20
26.669
30
0
0
VERTEX
8
CUT
10
141
20
26.2
30
0
0
VERTEX
8
CUT
10
141
20
19.25
30
0
0
VERTEX
8
CUT
10
136.5
20
19.25
30
0
0
VERTEX
8
CUT
10
136.5
20
12.95
30
0
0
VERTEX
8
CUT
10
141
20
12.95
30
0
0
VERTEX
8
CUT
10
141
20
6
30
0
0
VERTEX
8
CUT
10
140.969
20
5.531
30
0
0
VERTEX
8
CUT
10
140.875
20
5.125
30
0
0
VERTEX
8
CUT
10
140.719
20
4.781
30
0
0
VERTEX
8
CUT
10
140.5
20
4.5
30
0
0
VERTEX
8
CUT
10
140.219
20
4.281
30
0
0
VERTEX
8
CUT
10
139.875
20
4.125
30
0
0
VERTEX
8
CUT
10
139.469
20
4.031
30
0
0
VERTEX
8
CUT
10
139
20
4
30
0
0
VERTEX
8
CUT
10
118.8
20
4
30
0
0
VERTEX
8
CUT
10
118.331
20
4.031
30
0
0
VERTEX
8
CUT
10
117.925
20
4.125
30
0
0
VERTEX
8
CUT
10
117.581
20
4.281
30
0
0
VERTEX
8
CUT
10
117.3
20
4.5
30
0
0
VERTEX
8
CUT
10
117.081
20
4.781
30
0
0
VERTEX
8
CUT
10
116.925
20
5.125
30
0
0
VERTEX
8
CUT
10
116.831
20
5.531
30
0
0
VERTEX
8
CUT
10
116.8
20
6
30
0
0
SEQEND
8
CUT
0
POLYLINE
8
RASTER
66
1
70
1
0
VERTEX
8
RASTER
10
123.208
20
20.166
30
0
0
VERTEX
8
RASTER
10
123.215
20
20.261
30
0
0
VERTEX
8
RASTER
10
123.234
20
20.343
30
0
0
VERTEX
8
RASTER
10
123.265
20
20.413
30
0
0
VERTEX
8
RASTER
10
123.31
20
20.471
30
0
0
VERTEX
8
RASTER
10
123.367
20
20.515
30
0
0
VERTEX
8
RASTER
10
123.437
20
20.547
30
0
0
VERTEX
8
RASTER
10
123.519
20
20.566
30
0
0
VERTEX
8
RASTER
10
123.615
20
20.572
30
0
0
VERTEX
8
RASTER
10
138.251
20
20.572
30
0
0
VERTEX
8
RASTER
10
138.346
20
20.566
30
0
0
VERTEX
8
RASTER
10
138.429
20
20.547
30
0
0
VERTEX
8
RASTER
10
138.499
20
20.515
30
0
0
VERTEX
8
RASTER
10
138.556
20
20.471
30
0
0
VERTEX
8
RASTER
10
138.6
20
20.413
30
0
0
VERTEX
8
RASTER
10
138.632
20
20.343
30
0
0
VERTEX
8
RASTER
10
138.651
20
20.261
30
0
0
VERTEX
8
RASTER
10
138.657
20
20.166
30
0
0
VERTEX
8
RASTER
10
138.657
20
12.034
30
0
0
VERTEX
8
RASTER
10
138.651
20
11.939
30
0
0
VERTEX
8
RASTER
10
138.632
20
11.857
30
0
0
VERTEX
8
RASTER
10
138.6
20
11.787
30
0
0
VERTEX
8
RASTER
10
138.556
20
11.729
30
0
0
VERTEX
8
RASTER
10
138.499
20
11.685
30
0
0
VERTEX
8
RASTER
10
138.429
20
11.653
30
0
0
VERTEX
8
RASTER
10
138.346
20
11.634
30
0
0
VERTEX
8
RASTER
10
138.251
20
11.628
30
0
0
VERTEX
8
RASTER
10
123.615
20
11.628
30
0
0
VERTEX
8
RASTER
10
123.519
20
11.634
30
0
0
VERTEX
8
RASTER
10
123.437
20
11.653
30
0
0
VERTEX
8
RASTER
10
123.367
20
11.685
30
0
0
VERTEX
8
RASTER
10
123.31
20
11.729
30
0
0
VERTEX
8
RASTER
10
123.265
20
11.787
30
0
0
VERTEX
8
RASTER
10
123.234
20
11.857
30
0
0
VERTEX
8
RASTER
10
123.215
20
11.939
30
0
0
VERTEX
8
RASTER
10
123.208
20
12.034
30
0
0
SEQEND
8
RASTER
0
POLYLINE
8
RASTER
66
1
70
1
0
VERTEX
8
RASTER
10
125.83
20
19.962
30
0
0
VERTEX
8
RASTER
10
125.83
20
12.238
30
0
0
VERTEX
8
RASTER
10
126.278
20
12.238
30
0
0
VERTEX
8
RASTER
10
126.278
20
19.962
30
0
0
VERTEX
8
RASTER
10
125.83
20
19.962
30
0
0
SEQEND
8
RASTER
0
POLYLINE
8
RASTER
66
1
70
1
0
VERTEX
8
RASTER
10
128.676
20
19.962
30
0
0
VERTEX
8
RASTER
10
128.676
20
12.238
30
0
0
VERTEX
8
RASTER
10
129.124
20
12.238
30
0
0
VERTEX
8
RASTER
10
129.124
20
19.962
30
0
0
VERTEX
8
RASTER
10
128.676
20
19.962
30
0
0
SEQEND
8
RASTER
0
POLYLINE
8
RASTER
66
1
70
1
0
VERTEX
8
RASTER
10
131.522
20
19.962
30
0
0
VERTEX
8
RASTER
10
131.522
20
12.238
30
0
0
VERTEX
8
RASTER
10
131.97
20
12.238
30
0
0
VERTEX
8
RASTER
10
131.97
20
19.962
30
0
0
VERTEX
8
RASTER
10
131.522
20
19.962
30
0
0
SEQEND
8
RASTER
0
POLYLINE
8
RASTER
66
1
70
1
0
VERTEX
8
RASTER
10
134.368
20
19.962
30
0
0
VERTEX
8
RASTER
10
134.368
20
12.238
30
0
0
VERTEX
8
RASTER
10
134.815
20
12.238
30
0
0
VERTEX
8
RASTER
10
134.815
20
19.962
30
0
0
VERTEX
8
RASTER
10
134.368
20
19.962
30
0
0
SEQEND
8
RASTER
0
POLYLINE
8
RASTER
66
1
70
1
0
VERTEX
8
RASTER
10
137.214
20
19.962
30
0
0
VERTEX
8
RASTER
10
137.214
20
12.238
30
0
0
VERTEX
8
RASTER
10
137.661
20
12.238
30
0
0
VERTEX
8
RASTER
10
137.661
20
19.962
30
0
0
VERTEX
8
RASTER
10
137.214
20
19.962
30
0
0
SEQEND
8
RASTER
0
CIRCLE
8
RASTER
10
128.9
20
18.295
30
0
40
0.549
0
CIRCLE
8
RASTER
10
128.9
20
18.295
30
0
40
0.305
0
POLYLINE
8
RASTER
66
1
70
1
0
VERTEX
8
RASTER
10
128.656
20
17.564
30
0
0
VERTEX
8
RASTER
10
128.656
20
16.954
30
0
0
VERTEX
8
RASTER
10
127.558
20
16.954
30
0
0
VERTEX
8
RASTER
10
127.558
20
16.588
30
0
0
VERTEX
8
RASTER
10
128.656
20
16.588
30
0
0
VERTEX
8
RASTER
10
128.656
20
14.88
30
0
0
VERTEX
8
RASTER
10
128.514
20
14.851
30
0
0
VERTEX
8
RASTER
10
128.364
20
14.856
30
0
0
VERTEX
8
RASTER
10
128.212
20
14.891
30
0
0
VERTEX
8
RASTER
10
128.061
20
14.957
30
0
0
VERTEX
8
RASTER
10
127.916
20
15.051
30
0
0
VERTEX
8
RASTER
10
127.781
20
15.172
30
0
0
VERTEX
8
RASTER
10
127.661
20
15.319
30
0
0
VERTEX
8
RASTER
10
127.558
20
15.49
30
0
0
VERTEX
8
RASTER
10
126.949
20
15.002
30
0
0
VERTEX
8
RASTER
10
127.067
20
14.649
30
0
0
VERTEX
8
RASTER
10
127.236
20
14.324
30
0
0
VERTEX
8
RASTER
10
127.448
20
14.033
30
0
0
VERTEX
8
RASTER
10
127.696
20
13.783
30
0
0
VERTEX
8
RASTER
10
127.972
20
13.578
30
0
0
VERTEX
8
RASTER
10
128.269
20
13.424
30
0
0
VERTEX
8
RASTER
10
128.581
20
13.328
30
0
0
VERTEX
8
RASTER
10
128.9
20
13.295
30
0
0
VERTEX
8
RASTER
10
129.219
20
13.328
30
0
0
VERTEX
8
RASTER
10
129.531
20
13.424
30
0
0
VERTEX
8
RASTER
10
129.828
20
13.578
30
0
0
VERTEX
8
RASTER
10
130.104
20
13.783
30
0
0
VERTEX
8
RASTER
10
130.352
20
14.033
30
0
0
VERTEX
8
RASTER
10
130.564
20
14.324
30
0
0
VERTEX
8
RASTER
10
130.733
20
14.649
30
0
0
VERTEX
8
RASTER
10
130.851
20
15.002
30
0
0
VERTEX
8
RASTER
10
130.242
20
15.49
30
0
0
VERTEX
8
RASTER
10
130.139
20
15.319
30
0
0
VERTEX
8
RASTER
10
130.019
20
15.172
30
0
0
VERTEX
8
RASTER
10
129.884
20
15.051
30
0
0
VERTEX
8
RASTER
10
129.739
20
14.957
30
0
0
VERTEX
8
RASTER
10
129.588
20
14.891
30
0
0
VERTEX
8
RASTER
10
129.436
20
14.856
30
0
0
VERTEX
8
RASTER
10
129.286
20
14.851
30
0
0
VERTEX
8
RASTER
10
129.144
20
14.88
30
0
0
VERTEX
8
RASTER
10
129.144
20
16.588
30
0
0
VERTEX
8
RASTER
10
130.242
20
16.588
30
0
0
VERTEX
8
RASTER
10
130.242
20
16.954
30
0
0
VERTEX
8
RASTER
10
129.144
20
16.954
30
0
0
VERTEX
8
RASTER
10
129.144
20
17.564
30
0
0
VERTEX
8
RASTER
10
128.656
20
17.564
30
0
0
SEQEND
8
RASTER
0
CIRCLE
8
RASTER
10
123.208
20
21.385
30
0
40
1.016
0
CIRCLE
8
RASTER
10
123.208
20
10.815
30
0
40
1.016
0
CIRCLE
8
RASTER
10
138.657
20
21.385
30
0
40
1.016
0
CIRCLE
8
RASTER
10
138.657
20
10.815
30
0
40
1.016
0
POLYLINE
8
CUT
66
1
70
1
0
VERTEX
8
CUT
10
145
20
26.2
30
0
0
VERTEX
8
CUT
10
145.031
20
26.669
30
0
0
VERTEX
8
CUT
10
145.125
20
27.075
30
0
0
VERTEX
8
CUT
10
145.281
20
27.419
30
0
0
VERTEX
8
CUT
10
145.5
20
27.7
30
0
0
VERTEX
8
CUT
10
145.781
20
27.919
30
0
0
VERTEX
8
CUT
10
146.125
20
28.075
30
0
0
VERTEX
8
CUT
10
146.531
20
28.169
30
0
0
VERTEX
8
CUT
10
147
20
28.2
30
0
0
VERTEX
8
CUT
10
167.2
20
28.2
30
0
0
VERTEX
8
CUT
10
167.669
20
28.169
30
0
0
VERTEX
8
CUT
10
168.075
20
28.075
30
0
0
VERTEX
8
CUT
10
168.419
20
27.919
30
0
0
VERTEX
8
CUT
10
168.7
20
27.7
30
0
0
VERTEX
8
CUT
10
168.919
20
27.419
30
0
0
VERTEX
8
CUT
10
169.075
20
27.075
30
0
0
VERTEX
8
CUT
10
169.169
20
26.669
30
0
0
VERTEX
8
CUT
10
169.2
20
26.2
30
0
0
VERTEX
8
CUT
10
169.2
20
19.25
30
0
0
VERTEX
8
CUT
10
164.7
20
19.25
30
0
0
VERTEX
8
CUT
10
164.7
20
12.95
30
0
0
VERTEX
8
CUT
10
169.2
20
12.95
30
0
0
VERTEX
8
CUT
10
169.2
20
6
30
0
0
VERTEX
8
CUT
10
169.169
20
5.531
30
0
0
VERTEX
8
CUT
10
169.075
20
5.125
30
0
0
VERTEX
8
CUT
10
168.919
20
4.781
30
0
0
VERTEX
8
CUT
10
168.7
20
4.5
30
0
0
VERTEX
8
CUT
10
168.419
20
4.281
30
0
0
VERTEX
8
CUT
10
168.075
20
4.125
30
0
0
VERTEX
8
CUT
10
167.669
20
4.031
30
0
0
VERTEX
8
CUT
10
167.2
20
4
30
0
0
VERTEX
8
CUT
10
147
20
4
30
0
0
VERTEX
8
CUT
10
146.531
20
4.031
30
0
0
VERTEX
8
CUT
10
146.125
20
4.125
30
0
0
VERTEX
8
CUT
10
145.781
20
4.281
30
0
0
VERTEX
8
CUT
10
145.5
20
4.5
30
0
0
VERTEX
8
CUT
10
145.281
20
4.781
30
0
0
VERTEX
8
CUT
10
145.125
20
5.125
30
0
0
VERTEX
8
CUT
10
145.031
20
5.531
30
0
0
VERTEX
8
CUT
10
145
20
6
30
0
0
SEQEND
8
CUT
0
POLYLINE
8
RASTER
66
1
70
1
0
VERTEX
8
RASTER
10
151.408
20
20.166
30
0
0
VERTEX
8
RASTER
10
151.415
20
20.261
30
0
0
VERTEX
8
RASTER
10
151.434
20
20.343
30
0
0
VERTEX
8
RASTER
10
151.465
20
20.413
30
0
0
VERTEX
8
RASTER
10
151.51
20
20.471
30
0
0
VERTEX
8
RASTER
10
151.567
20
20.515
30
0
0
VERTEX
8
RASTER
10
151.637
20
20.547
30
0
0
VERTEX
8
RASTER
10
151.719
20
20.566
30
0
0
VERTEX
8
RASTER
10
151.815
20
20.572
30
0
0
VERTEX
8
RASTER
10
166.451
20
20.572
30
0
0
VERTEX
8
RASTER
10
166.546
20
20.566
30
0
0
VERTEX
8
RASTER
10
166.629
20
20.547
30
0
0
VERTEX
8
RASTER
10
166.699
20
20.515
30
0
0
VERTEX
8
RASTER
10
166.756
20
20.471
30
0
0
VERTEX
8
RASTER
10
166.8
20
20.413
30
0
0
VERTEX
8
RASTER
10
166.832
20
20.343
30
0
0
VERTEX
8
RASTER
10
166.851
20
20.261
30
0
0
VERTEX
8
RASTER
10
166.857
20
20.166
30
0
0
VERTEX
8
RASTER
10
166.857
20
12.034
30
0
0
VERTEX
8
RASTER
10
166.851
20
11.939
30
0
0
VERTEX
8
RASTER
10
166.832
20
11.857
30
0
0
VERTEX
8
RASTER
10
166.8
20
11.787
30
0
0
VERTEX
8
RASTER
10
166.756
20
11.729
30
0
0
VERTEX
8
RASTER
10
166.699
20
11.685
30
0
0
VERTEX
8
RASTER
10
166.629
20
11.653
30
0
0
VERTEX
8
RASTER
10
166.546
20
11.634
30
0
0
VERTEX
8
RASTER
10
166.451
20
11.628
30
0
0
VERTEX
8
RASTER
10
151.815
20
11.628
30
0
0
VERTEX
8
RASTER
10
151.719
20
11.634
30
0
0
VERTEX
8
RASTER
10
151.637
20
11.653
30
0
0
VERTEX
8
RASTER
10
151.567
20
11.685
30
0
0
VERTEX
8
RASTER
10
151.51
20
11.729
30
0
0
VERTEX
8
RASTER
10
151.465
20
11.787
30
0
0
VERTEX
8
RASTER
10
151.434
20
11.857
30
0
0
VERTEX
8
RASTER
10
151.415
20
11.939
30
0
0
VERTEX
8
RASTER
10
151.408
20
12.034
30
0
0
SEQEND
8
RASTER
0
POLYLINE
8
RASTER
66
1
70
1
0
VERTEX
8
RASTER
10
154.03
20
19.962
30
0
0
VERTEX
8
RASTER
10
154.03
20
12.238
30
0
0
VERTEX
8
RASTER
10
154.478
20
12.238
30
0
0
VERTEX
8
RASTER
10
154.478
20
19.962
30
0
0
VERTEX
8
RASTER
10
154.03
20
19.962
30
0
0
SEQEND
8
RASTER
0
POLYLINE
8
RASTER
66
1
70
1
0
VERTEX
8
RASTER
10
156.876
20
19.962
30
0
0
VERTEX
8
RASTER
10
156.876
20
12.238
30
0
0
VERTEX
8
RASTER
10
157.324
20
12.238
30
0
0
VERTEX
8
RASTER
10
157.324
20
19.962
30
0
0
VERTEX
8
RASTER
10
156.876
20
19.962
30
0
0
SEQEND
8
RASTER
0
POLYLINE
8
RASTER
66
1
70
1
0
VERTEX
8
RASTER
10
159.722
20
19.962
30
0
0
VERTEX
8
RASTER
10
159.722
20
12.238
30
0
0
VERTEX
8
RASTER
10
160.17
20
12.238
30
0
0
VERTEX
8
RASTER
10
160.17
20
19.962
30
0
0
VERTEX
8
RASTER
10
159.722
20
19.962
30
0
0
SEQEND
8
RASTER
0
POLYLINE
8
RASTER
66
1
70
1
0
VERTEX
8
RASTER
10
162.568
20
19.962
30
0
0
VERTEX
8
RASTER
10
162.568
20
12.238
30
0
0
VERTEX
8
RASTER
10
163.015
20
12.238
30
0
0
VERTEX
8
RASTER
10
163.015
20
19.962
30
0
0
VERTEX
8
RASTER
10
162.568
20
19.962
30
0
0
SEQEND
8
RASTER
0
POLYLINE
8
RASTER
66
1
70
1
0
VERTEX
8
RASTER
10
165.414
20
19.962
30
0
0
VERTEX
8
RASTER
10
165.414
20
12.238
30
0
0
VERTEX
8
RASTER
10
165.861
20
12.238
30
0
0
VERTEX
8
RASTER
10
165.861
20
19.962
30
0
0
VERTEX
8
RASTER
10
165.414
20
19.962
30
0
0
SEQEND
8
RASTER
0
CIRCLE
8
RASTER
10
157.1
20
18.295
30
0
40
0.549
0
CIRCLE
8
RASTER
10
157.1
20
18.295
30
0
40
0.305
0
POLYLINE
8
RASTER
66
1
70
1
0
VERTEX
8
RASTER
10
156.856
20
17.564
30
0
0
VERTEX
8
RASTER
10
156.856
20
16.954
30
0
0
VERTEX
8
RASTER
10
155.758
20
16.954
30
0
0
VERTEX
8
RASTER
10
155.758
20
16.588
30
0
0
VERTEX
8
RASTER
10
156.856
20
16.588
30
0
0
VERTEX
8
RASTER
10
156.856
20
14.88
30
0
0
VERTEX
8
RASTER
10
156.714
20
14.851
30
0
0
VERTEX
8
RASTER
10
156.564
20
14.856
30
0
0
VERTEX
8
RASTER
10
156.412
20
14.891
30
0
0
VERTEX
8
RASTER
10
156.261
20
14.957
30
0
0
VERTEX
8
RASTER
10
156.116
20
15.051
30
0
0
VERTEX
8
RASTER
10
155.981
20
15.172
30
0
0
VERTEX
8
RASTER
10
155.861
20
15.319
30
0
0
VERTEX
8
RASTER
10
155.758
20
15.49
30
0
0
VERTEX
8
RASTER
10
155.149
20
15.002
30
0
0
VERTEX
8
RASTER
10
155.267
20
14.649
30
0
0
VERTEX
8
RASTER
10
155.436
20
14.324
30
0
0
VERTEX
8
RASTER
10
155.648
20
14.033
30
0
0
VERTEX
8
RASTER
10
155.896
20
13.783
30
0
0
VERTEX
8
RASTER
10
156.172
20
13.578
30
0
0
VERTEX
8
RASTER
10
156.469
20
13.424
30
0
0
VERTEX
8
RASTER
10
156.781
20
13.328
30
0
0
VERTEX
8
RASTER
10
157.1
20
13.295
30
0
0
VERTEX
8
RASTER
10
157.419
20
13.328
30
0
0
VERTEX
8
RASTER
10
157.731
20
13.424
30
0
0
VERTEX
8
RASTER
10
158.028
20
13.578
30
0
0
VERTEX
8
RASTER
10
158.304
20
13.783
30
0
0
VERTEX
8
RASTER
10
158.552
20
14.033
30
0
0
VERTEX
8
RASTER
10
158.764
20
14.324
30
0
0
VERTEX
8
RASTER
10
158.933
20
14.649
30
0
0
VERTEX
8
RASTER
10
159.051
20
15.002
30
0
0
VERTEX
8
RASTER
10
158.442
20
15.49
30
0
0
VERTEX
8
RASTER
10
158.339
20
15.319
30
0
0
VERTEX
8
RASTER
10
158.219
20
15.172
30
0
0
VERTEX
8
RASTER
10
158.084
20
15.051
30
0
0
VERTEX
8
RASTER
10
157.939
20
14.957
30
0
0
VERTEX
8
RASTER
10
157.788
20
14.891
30
0
0
VERTEX
8
RASTER
10
157.636
20
14.856
30
0
0
VERTEX
8
RASTER
10
157.486
20
14.851
30
0
0
VERTEX
8
RASTER
10
157.344
20
14.88
30
0
0
VERTEX
8
RASTER
10
157.344
20
16.588
30
0
0
VERTEX
8
RASTER
10
158.442
20
16.588
30
0
0
VERTEX
8
RASTER
10
158.442
20
16.954
30
0
0
VERTEX
8
RASTER
10
157.344
20
16.954
30
0
0
VERTEX
8
RASTER
10
157.344
20
17.564
30
0
0
VERTEX
8
RASTER
10
156.856
20
17.564
30
0
0
SEQEND
8
RASTER
0
CIRCLE
8
RASTER
10
151.408
20
21.385
30
0
40
1.016
0
CIRCLE
8
RASTER
10
151.408
20
10.815
30
0
40
1.016
0
CIRCLE
8
RASTER
10
166.857
20
21.385
30
0
40
1.016
0
CIRCLE
8
RASTER
10
166.857
20
10.815
30
0
40
1.016
0
POLYLINE
8
CUT
66
1
70
1
0
VERTEX
8
CUT
10
173.2
20
26.2
30
0
0
VERTEX
8
CUT
10
173.231
20
26.669
30
0
0
VERTEX
8
CUT
10
173.325
20
27.075
30
0
0
VERTEX
8
CUT
10
173.481
20
27.419
30
0
0
VERTEX
8
CUT
10
173.7
20
27.7
30
0
0
VERTEX
8
CUT
10
173.981
20
27.919
30
0
0
VERTEX
8
CUT
10
174.325
20
28.075
30
0
0
VERTEX
8
CUT
10
174.731
20
28.169
30
0
0
VERTEX
8
CUT
10
175.2
20
28.2
30
0
0
VERTEX
8
CUT
10
195.4
20
28.2
30
0
0
VERTEX
8
CUT
10
195.869
20
28.169
30
0
0
VERTEX
8
CUT
10
196.275
20
28.075
30
0
0
VERTEX
8
CUT
10
196.619
20
27.919
30
0
0
VERTEX
8
CUT
10
196.9
20
27.7
30
0
0
VERTEX
8
CUT
10
197.119
20
27.419
30
0
0
VERTEX
8
CUT
10
197.275
20
27.075
30
0
0
VERTEX
8
CUT
10
197.369
20
26.669
30
0
0
VERTEX
8
CUT
10
197.4
20
26.2
30
0
0
VERTEX
8
CUT
10
197.4
20
19.25
30
0
0
VERTEX
8
CUT
10
192.9
20
19.25
30
0
0
VERTEX
8
CUT
10
192.9
20
12.95
30
0
0
VERTEX
8
CUT
10
197.4
20
12.95
30
0
0
VERTEX
8
CUT
10
197.4
20
6
30
0
0
VERTEX
8
CUT
10
197.369
20
5.531
30
0
0
VERTEX
8
CUT
10
197.275
20
5.125
30
0
0
VERTEX
8
CUT
10
197.119
20
4.781
30
0
0
VERTEX
8
CUT
10
196.9
20
4.5
30
0
0
VERTEX
8
CUT
10
196.619
20
4.281
30
0
0
VERTEX
8
CUT
10
196.275
20
4.125
30
0
0
VERTEX
8
CUT
10
195.869
20
4.031
30
0
0
VERTEX
8
CUT
10
195.4
20
4
30
0
0
VERTEX
8
CUT
10
175.2
20
4
30
0
0
VERTEX
8
CUT
10
174.731
20
4.031
30
0
0
VERTEX
8
CUT
10
174.325
20
4.125
30
0
0
VERTEX
8
CUT
10
173.981
20
4.281
30
0
0
VERTEX
8
CUT
10
173.7
20
4.5
30
0
0
VERTEX
8
CUT
10
173.481
20
4.781
30
0
0
VERTEX
8
CUT
10
173.325
20
5.125
30
0
0
VERTEX
8
CUT
10
173.231
20
5.531
30
0
0
VERTEX
8
CUT
10
173.2
20
6
30
0
0
SEQEND
8
CUT
0
POLYLINE
8
RASTER
66
1
70
1
0
VERTEX
8
RASTER
10
179.608
20
20.166
30
0
0
VERTEX
8
RASTER
10
179.615
20
20.261
30
0
0
VERTEX
8
RASTER
10
179.634
20
20.343
30
0
0
VERTEX
8
RASTER
10
179.665
20
20.413
30
0
0
VERTEX
8
RASTER
10
179.71
20
20.471
30
0
0
VERTEX
8
RASTER
10
179.767
20
20.515
30
0
0
VERTEX
8
RASTER
10
179.837
20
20.547
30
0
0
VERTEX
8
RASTER
10
179.919
20
20.566
30
0
0
VERTEX
8
RASTER
10
180.015
20
20.572
30
0
0
VERTEX
8
RASTER
10
194.651
20
20.572
30
0
0
VERTEX
8
RASTER
10
194.746
20
20.566
30
0
0
VERTEX
8
RASTER
10
194.829
20
20.547
30
0
0
VERTEX
8
RASTER
10
194.899
20
20.515
30
0
0
VERTEX
8
RASTER
10
194.956
20
20.471
30
0
0
VERTEX
8
RASTER
10
195
20
20.413
30
0
0
VERTEX
8
RASTER
10
195.032
20
20.343
30
0
0
VERTEX
8
RASTER
10
195.051
20
20.261
30
0
0
VERTEX
8
RASTER
10
195.057
20
20.166
30
0
0
VERTEX
8
RASTER
10
195.057
20
12.034
30
0
0
VERTEX
8
RASTER
10
195.051
20
11.939
30
0
0
VERTEX
8
RASTER
10
195.032
20
11.857
30
0
0
VERTEX
8
RASTER
10
195
20
11.787
30
0
0
VERTEX
8
RASTER
10
194.956
20
11.729
30
0
0
VERTEX
8
RASTER
10
194.899
20
11.685
30
0
0
VERTEX
8
RASTER
10
194.829
20
11.653
30
0
0
VERTEX
8
RASTER
10
194.746
20
11.634
30
0
0
VERTEX
8
RASTER
10
194.651
20
11.628
30
0
0
VERTEX
8
RASTER
10
180.015
20
11.628
30
0
0
VERTEX
8
RASTER
10
179.919
20
11.634
30
0
0
VERTEX
8
RASTER
10
179.837
20
11.653
30
0
0
VERTEX
8
RASTER
10
179.767
20
11.685
30
0
0
VERTEX
8
RASTER
10
179.71
20
11.729
30
0
0
VERTEX
8
RASTER
10
179.665
20
11.787
30
0
0
VERTEX
8
RASTER
10
179.634
20
11.857
30
0
0
VERTEX
8
RASTER
10
179.615
20
11.939
30
0
0
VERTEX
8
RASTER
10
179.608
20
12.034
30
0
0
SEQEND
8
RASTER
0
POLYLINE
8
RASTER
66
1
70
1
0
VERTEX
8
RASTER
10
182.23
20
19.962
30
0
0
VERTEX
8
RASTER
10
182.23
20
12.238
30
0
0
VERTEX
8
RASTER
10
182.678
20
12.238
30
0
0
VERTEX
8
RASTER
10
182.678
20
19.962
30
0
0
VERTEX
8
RASTER
10
182.23
20
19.962
30
0
0
SEQEND
8
RASTER
0
POLYLINE
8
RASTER
66
1
70
1
0
VERTEX
8
RASTER
10
185.076
20
19.962
30
0
0
VERTEX
8
RASTER
10
185.076
20
12.238
30
0
0
VERTEX
8
RASTER
10
185.524
20
12.238
30
0
0
VERTEX
8
RASTER
10
185.524
20
19.962
30
0
0
VERTEX
8
RASTER
10
185.076
20
19.962
30
0
0
SEQEND
8
RASTER
0
POLYLINE
8
RASTER
66
1
70
1
0
VERTEX
8
RASTER
10
187.922
20
19.962
30
0
0
VERTEX
8
RASTER
10
187.922
20
12.238
30
0
0
VERTEX
8
RASTER
10
188.37
20
12.238
30
0
0
VERTEX
8
RASTER
10
188.37
20
19.962
30
0
0
VERTEX
8
RASTER
10
187.922
20
19.962
30
0
0
SEQEND
8
RASTER
0
POLYLINE
8
RASTER
66
1
70
1
0
VERTEX
8
RASTER
10
190.768
20
19.962
30
0
0
VERTEX
8
RASTER
10
190.768
20
12.238
30
0
0
VERTEX
8
RASTER
10
191.215
20
12.238
30
0
0
VERTEX
8
RASTER
10
191.215
20
19.962
30
0
0
VERTEX
8
RASTER
10
190.768
20
19.962
30
0
0
SEQEND
8
RASTER
0
POLYLINE
8
RASTER
66
1
70
1
0
VERTEX
8
RASTER
10
193.614
20
19.962
30
0
0
VERTEX
8
RASTER
10
193.614
20
12.238
30
0
0
VERTEX
8
RASTER
10
194.061
20
12.238
30
0
0
VERTEX
8
RASTER
10
194.061
20
19.962
30
0
0
VERTEX
8
RASTER
10
193.614
20
19.962
30
0
0
SEQEND
8
RASTER
0
CIRCLE
8
RASTER
10
185.3
20
18.295
30
0
40
0.549
0
CIRCLE
8
RASTER
10
185.3
20
18.295
30
0
40
0.305
0
POLYLINE
8
RASTER
66
1
70
1
0
VERTEX
8
RASTER
10
185.056
20
17.564
30
0
0
VERTEX
8
RASTER
10
185.056
20
16.954
30
0
0
VERTEX
8
RASTER
10
183.958
20
16.954
30
0
0
VERTEX
8
RASTER
10
183.958
20
16.588
30
0
0
VERTEX
8
RASTER
10
185.056
20
16.588
30
0
0
VERTEX
8
RASTER
10
185.056
20
14.88
30
0
0
VERTEX
8
RASTER
10
184.914
20
14.851
30
0
0
VERTEX
8
RASTER
10
184.764
20
14.856
30
0
0
VERTEX
8
RASTER
10
184.612
20
14.891
30
0
0
VERTEX
8
RASTER
10
184.461
20
14.957
30
0
0
VERTEX
8
RASTER
10
184.316
20
15.051
30
0
0
VERTEX
8
RASTER
10
184.181
20
15.172
30
0
0
VERTEX
8
RASTER
10
184.061
20
15.319
30
0
0
VERTEX
8
RASTER
10
183.958
20
15.49
30
0
0
VERTEX
8
RASTER
10
183.349
20
15.002
30
0
0
VERTEX
8
RASTER
10
183.467
20
14.649
30
0
0
VERTEX
8
RASTER
10
183.636
20
14.324
30
0
0
VERTEX
8
RASTER
10
183.848
20
14.033
30
0
0
VERTEX
8
RASTER
10
184.096
20
13.783
30
0
0
VERTEX
8
RASTER
10
184.372
20
13.578
30
0
0
VERTEX
8
RASTER
10
184.669
20
13.424
30
0
0
VERTEX
8
RASTER
10
184.981
20
13.328
30
0
0
VERTEX
8
RASTER
10
185.3
20
13.295
30
0
0
VERTEX
8
RASTER
10
185.619
20
13.328
30
0
0
VERTEX
8
RASTER
10
185.931
20
13.424
30
0
0
VERTEX
8
RASTER
10
186.228
20
13.578
30
0
0
VERTEX
8
RASTER
10
186.504
20
13.783
30
0
0
VERTEX
8
RASTER
10
186.752
20
14.033
30
0
0
VERTEX
8
RASTER
10
186.964
20
14.324
30
0
0
VERTEX
8
RASTER
10
187.133
20
14.649
30
0
0
VERTEX
8
RASTER
10
187.251
20
15.002
30
0
0
VERTEX
8
RASTER
10
186.642
20
15.49
30
0
0
VERTEX
8
RASTER
10
186.539
20
15.319
30
0
0
VERTEX
8
RASTER
10
186.419
20
15.172
30
0
0
VERTEX
8
RASTER
10
186.284
20
15.051
30
0
0
VERTEX
8
RASTER
10
186.139
20
14.957
30
0
0
VERTEX
8
RASTER
10
185.988
20
14.891
30
0
0
VERTEX
8
RASTER
10
185.836
20
14.856
30
0
0
VERTEX
8
RASTER
10
185.686
20
14.851
30
0
0
VERTEX
8
RASTER
10
185.544
20
14.88
30
0
0
VERTEX
8
RASTER
10
185.544
20
16.588
30
0
0
VERTEX
8
RASTER
10
186.642
20
16.588
30
0
0
VERTEX
8
RASTER
10
186.642
20
16.954
30
0
0
VERTEX
8
RASTER
10
185.544
20
16.954
30
0
0
VERTEX
8
RASTER
10
185.544
20
17.564
30
0
0
VERTEX
8
RASTER
10
185.056
20
17.564
30
0
0
SEQEND
8
RASTER
0
CIRCLE
8
RASTER
10
179.608
20
21.385
30
0
40
1.016
0
CIRCLE
8
RASTER
10
179.608
20
10.815
30
0
40
1.016
0
CIRCLE
8
RASTER
10
195.057
20
21.385
30
0
40
1.016
0
CIRCLE
8
RASTER
10
195.057
20
10.815
30
0
40
1.016
0
POLYLINE
8
CUT
66
1
70
1
0
VERTEX
8
CUT
10
201.4
20
27
30
0
0
VERTEX
8
CUT
10
201.419
20
27.281
30
0
0
VERTEX
8
CUT
10
201.475
20
27.525
30
0
0
VERTEX
8
CUT
10
201.569
20
27.731
30
0
0
VERTEX
8
CUT
10
201.7
20
27.9
30
0
0
VERTEX
8
CUT
10
201.869
20
28.031
30
0
0
VERTEX
8
CUT
10
202.075
20
28.125
30
0
0
VERTEX
8
CUT
10
202.319
20
28.181
30
0
0
VERTEX
8
CUT
10
202.6
20
28.2
30
0
0
VERTEX
8
CUT
10
208.8
20
28.2
30
0
0
VERTEX
8
CUT
10
209.081
20
28.181
30
0
0
VERTEX
8
CUT
10
209.325
20
28.125
30
0
0
VERTEX
8
CUT
10
209.531
20
28.031
30
0
0
VERTEX
8
CUT
10
209.7
20
27.9
30
0
0
VERTEX
8
CUT
10
209.831
20
27.731
30
0
0
VERTEX
8
CUT
10
209.925
20
27.525
30
0
0
VERTEX
8
CUT
10
209.981
20
27.281
30
0
0
VERTEX
8
CUT
10
210
20
27
30
0
0
VERTEX
8
CUT
10
210
20
17.4
30
0
0
VERTEX
8
CUT
10
209.981
20
17.119
30
0
0
VERTEX
8
CUT
10
209.925
20
16.875
30
0
0
VERTEX
8
CUT
10
209.831
20
16.669
30
0
0
VERTEX
8
CUT
10
209.7
20
16.5
30
0
0
VERTEX
8
CUT
10
209.531
20
16.369
30
0
0
VERTEX
8
CUT
10
209.325
20
16.275
30
0
0
VERTEX
8
CUT
10
209.081
20
16.219
30
0
0
VERTEX
8
CUT
10
208.8
20
16.2
30
0
0
VERTEX
8
CUT
10
202.6
20
16.2
30
0
0
VERTEX
8
CUT
10
202.319
20
16.219
30
0
0
VERTEX
8
CUT
10
202.075
20
16.275
30
0
0
VERTEX
8
CUT
10
201.869
20
16.369
30
0
0
VERTEX
8
CUT
10
201.7
20
16.5
30
0
0
VERTEX
8
CUT
10
201.569
20
16.669
30
0
0
VERTEX
8
CUT
10
201.475
20
16.875
30
0
0
VERTEX
8
CUT
10
201.419
20
17.119
30
0
0
VERTEX
8
CUT
10
201.4
20
17.4
30
0
0
SEQEND
8
CUT
0
POLYLINE
8
RASTER
66
1
70
1
0
VERTEX
8
RASTER
10
203.98
20
27
30
0
0
VERTEX
8
RASTER
10
207.42
20
27
30
0
0
VERTEX
8
RASTER
10
207.42
20
25.8
30
0
0
VERTEX
8
RASTER
10
203.98
20
25.8
30
0
0
SEQEND
8
RASTER
0
POLYLINE
8
CUT
66
1
70
1
0
VERTEX
8
CUT
10
214
20
27
30
0
0
VERTEX
8
CUT
10
214.019
20
27.281
30
0
0
VERTEX
8
CUT
10
214.075
20
27.525
30
0
0
VERTEX
8
CUT
10
214.169
20
27.731
30
0
0
VERTEX
8
CUT
10
214.3
20
27.9
30
0
0
VERTEX
8
CUT
10
214.469
20
28.031
30
0
0
VERTEX
8
CUT
10
214.675
20
28.125
30
0
0
VERTEX
8
CUT
10
214.919
20
28.181
30
0
0
VERTEX
8
CUT
10
215.2
20
28.2
30
0
0
VERTEX
8
CUT
10
221.4
20
28.2
30
0
0
VERTEX
8
CUT
10
221.681
20
28.181
30
0
0
VERTEX
8
CUT
10
221.925
20
28.125
30
0
0
VERTEX
8
CUT
10
222.131
20
28.031
30
0
0
VERTEX
8
CUT
10
222.3
20
27.9
30
0
0
VERTEX
8
CUT
10
222.431
20
27.731
30
0
0
VERTEX
8
CUT
10
222.525
20
27.525
30
0
0
VERTEX
8
CUT
10
222.581
20
27.281
30
0
0
VERTEX
8
CUT
10
222.6
20
27
30
0
0
VERTEX
8
CUT
10
222.6
20
17.4
30
0
0
VERTEX
8
CUT
10
222.581
20
17.119
30
0
0
VERTEX
8
CUT
10
222.525
20
16.875
30
0
0
VERTEX
8
CUT
10
222.431
20
16.669
30
0
0
VERTEX
8
CUT
10
222.3
20
16.5
30
0
0
VERTEX
8
CUT
10
222.131
20
16.369
30
0
0
VERTEX
8
CUT
10
221.925
20
16.275
30
0
0
VERTEX
8
CUT
10
221.681
20
16.219
30
0
0
VERTEX
8
CUT
10
221.4
20
16.2
30
0
0
VERTEX
8
CUT
10
215.2
20
16.2
30
0
0
VERTEX
8
CUT
10
214.919
20
16.219
30
0
0
VERTEX
8
CUT
10
214.675
20
16.275
30
0
0
VERTEX
8
CUT
10
214.469
20
16.369
30
0
0
VERTEX
8
CUT
10
214.3
20
16.5
30
0
0
VERTEX
8
CUT
10
214.169
20
16.669
30
0
0
VERTEX
8
CUT
10
214.075
20
16.875
30
0
0
VERTEX
8
CUT
10
214.019
20
17.119
30
0
0
VERTEX
8
CUT
10
214
20
17.4
30
0
0
SEQEND
8
CUT
0
POLYLINE
8
RASTER
66
1
70
1
0
VERTEX
8
RASTER
10
216.58
20
27
30
0
0
VERTEX
8
RASTER
10
220.02
20
27
30
0
0
VERTEX
8
RASTER
10
220.02
20
25.8
30
0
0
VERTEX
8
RASTER
10
216.58
20
25.8
30
0
0
SEQEND
8
RASTER
0
POLYLINE
8
CUT
66
1
70
1
0
VERTEX
8
CUT
10
226.6
20
27
30
0
0
VERTEX
8
CUT
10
226.619
20
27.281
30
0
0
VERTEX
8
CUT
10
226.675
20
27.525
30
0
0
VERTEX
8
CUT
10
226.769
20
27.731
30
0
0
VERTEX
8
CUT
10
226.9
20
27.9
30
0
0
VERTEX
8
CUT
10
227.069
20
28.031
30
0
0
VERTEX
8
CUT
10
227.275
20
28.125
30
0
0
VERTEX
8
CUT
10
227.519
20
28.181
30
0
0
VERTEX
8
CUT
10
227.8
20
28.2
30
0
0
VERTEX
8
CUT
10
234
20
28.2
30
0
0
VERTEX
8
CUT
10
234.281
20
28.181
30
0
0
VERTEX
8
CUT
10
234.525
20
28.125
30
0
0
VERTEX
8
CUT
10
234.731
20
28.031
30
0
0
VERTEX
8
CUT
10
234.9
20
27.9
30
0
0
VERTEX
8
CUT
10
235.031
20
27.731
30
0
0
VERTEX
8
CUT
10
235.125
20
27.525
30
0
0
VERTEX
8
CUT
10
235.181
20
27.281
30
0
0
VERTEX
8
CUT
10
235.2
20
27
30
0
0
VERTEX
8
CUT
10
235.2
20
17.4
30
0
0
VERTEX
8
CUT
10
235.181
20
17.119
30
0
0
VERTEX
8
CUT
10
235.125
20
16.875
30
0
0
VERTEX
8
CUT
10
235.031
20
16.669
30
0
0
VERTEX
8
CUT
10
234.9
20
16.5
30
0
0
VERTEX
8
CUT
10
234.731
20
16.369
30
0
0
VERTEX
8
CUT
10
234.525
20
16.275
30
0
0
VERTEX
8
CUT
10
234.281
20
16.219
30
0
0
VERTEX
8
CUT
10
234
20
16.2
30
0
0
VERTEX
8
CUT
10
227.8
20
16.2
30
0
0
VERTEX
8
CUT
10
227.519
20
16.219
30
0
0
VERTEX
8
CUT
10
227.275
20
16.275
30
0
0
VERTEX
8
CUT
10
227.069
20
16.369
30
0
0
VERTEX
8
CUT
10
226.9
20
16.5
30
0
0
VERTEX
8
CUT
10
226.769
20
16.669
30
0
0
VERTEX
8
CUT
10
226.675
20
16.875
30
0
0
VERTEX
8
CUT
10
226.619
20
17.119
30
0
0
VERTEX
8
CUT
10
226.6
20
17.4
30
0
0
SEQEND
8
CUT
0
POLYLINE
8
RASTER
66
1
70
1
0
VERTEX
8
RASTER
10
229.18
20
27
30
0
0
VERTEX
8
RASTER
10
232.62
20
27
30
0
0
VERTEX
8
RASTER
10
232.62
20
25.8
30
0
0
VERTEX
8
RASTER
10
229.18
20
25.8
30
0
0
SEQEND
8
RASTER
0
POLYLINE
8
CUT
66
1
70
1
0
VERTEX
8
CUT
10
239.2
20
27
30
0
0
VERTEX
8
CUT
10
239.219
20
27.281
30
0
0
VERTEX
8
CUT
10
239.275
20
27.525
30
0
0
VERTEX
8
CUT
10
239.369
20
27.731
30
0
0
VERTEX
8
CUT
10
239.5
20
27.9
30
0
0
VERTEX
8
CUT
10
239.669
20
28.031
30
0
0
VERTEX
8
CUT
10
239.875
20
28.125
30
0
0
VERTEX
8
CUT
10
240.119
20
28.181
30
0
0
VERTEX
8
CUT
10
240.4
20
28.2
30
0
0
VERTEX
8
CUT
10
246.6
20
28.2
30
0
0
VERTEX
8
CUT
10
246.881
20
28.181
30
0
0
VERTEX
8
CUT
10
247.125
20
28.125
30
0
0
VERTEX
8
CUT
10
247.331
20
28.031
30
0
0
VERTEX
8
CUT
10
247.5
20
27.9
30
0
0
VERTEX
8
CUT
10
247.631
20
27.731
30
0
0
VERTEX
8
CUT
10
247.725
20
27.525
30
0
0
VERTEX
8
CUT
10
247.781
20
27.281
30
0
0
VERTEX
8
CUT
10
247.8
20
27
30
0
0
VERTEX
8
CUT
10
247.8
20
17.4
30
0
0
VERTEX
8
CUT
10
247.781
20
17.119
30
0
0
VERTEX
8
CUT
10
247.725
20
16.875
30
0
0
VERTEX
8
CUT
10
247.631
20
16.669
30
0
0
VERTEX
8
CUT
10
247.5
20
16.5
30
0
0
VERTEX
8
CUT
10
247.331
20
16.369
30
0
0
VERTEX
8
CUT
10
247.125
20
16.275
30
0
0
VERTEX
8
CUT
10
246.881
20
16.219
30
0
0
VERTEX
8
CUT
10
246.6
20
16.2
30
0
0
VERTEX
8
CUT
10
240.4
20
16.2
30
0
0
VERTEX
8
CUT
10
240.119
20
16.219
30
0
0
VERTEX
8
CUT
10
239.875
20
16.275
30
0
0
VERTEX
8
CUT
10
239.669
20
16.369
30
0
0
VERTEX
8
CUT
10
239.5
20
16.5
30
0
0
VERTEX
8
CUT
10
239.369
20
16.669
30
0
0
VERTEX
8
CUT
10
239.275
20
16.875
30
0
0
VERTEX
8
CUT
10
239.219
20
17.119
30
0
0
VERTEX
8
CUT
10
239.2
20
17.4
30
0
0
SEQEND
8
CUT
0
POLYLINE
8
RASTER
66
1
70
1
0
VERTEX
8
RASTER
10
241.78
20
27
30
0
0
VERTEX
8
RASTER
10
245.22
20
27
30
0
0
VERTEX
8
RASTER
10
245.22
20
25.8
30
0
0
VERTEX
8
RASTER
10
241.78
20
25.8
30
0
0
SEQEND
8
RASTER
0
POLYLINE
8
CUT
66
1
70
1
0
VERTEX
8
CUT
10
251.8
20
27
30
0
0
VERTEX
8
CUT
10
251.819
20
27.281
30
0
0
VERTEX
8
CUT
10
251.875
20
27.525
30
0
0
VERTEX
8
CUT
10
251.969
20
27.731
30
0
0
VERTEX
8
CUT
10
252.1
20
27.9
30
0
0
VERTEX
8
CUT
10
252.269
20
28.031
30
0
0
VERTEX
8
CUT
10
252.475
20
28.125
30
0
0
VERTEX
8
CUT
10
252.719
20
28.181
30
0
0
VERTEX
8
CUT
10
253
20
28.2
30
0
0
VERTEX
8
CUT
10
259.2
20
28.2
30
0
0
VERTEX
8
CUT
10
259.481
20
28.181
30
0
0
VERTEX
8
CUT
10
259.725
20
28.125
30
0
0
VERTEX
8
CUT
10
259.931
20
28.031
30
0
0
VERTEX
8
CUT
10
260.1
20
27.9
30
0
0
VERTEX
8
CUT
10
260.231
20
27.731
30
0
0
VERTEX
8
CUT
10
260.325
20
27.525
30
0
0
VERTEX
8
CUT
10
260.381
20
27.281
30
0
0
VERTEX
8
CUT
10
260.4
20
27
30
0
0
VERTEX
8
CUT
10
260.4
20
17.4
30
0
0
VERTEX
8
CUT
10
260.381
20
17.119
30
0
0
VERTEX
8
CUT
10
260.325
20
16.875
30
0
0
VERTEX
8
CUT
10
260.231
20
16.669
30
0
0
VERTEX
8
CUT
10
260.1
20
16.5
30
0
0
VERTEX
8
CUT
10
259.931
20
16.369
30
0
0
VERTEX
8
CUT
10
259.725
20
16.275
30
0
0
VERTEX
8
CUT
10
259.481
20
16.219
30
0
0
VERTEX
8
CUT
10
259.2
20
16.2
30
0
0
VERTEX
8
CUT
10
253
20
16.2
30
0
0
VERTEX
8
CUT
10
252.719
20
16.219
30
0
0
VERTEX
8
CUT
10
252.475
20
16.275
30
0
0
VERTEX
8
CUT
10
252.269
20
16.369
30
0
0
VERTEX
8
CUT
10
252.1
20
16.5
30
0
0
VERTEX
8
CUT
10
251.969
20
16.669
30
0
0
VERTEX
8
CUT
10
251.875
20
16.875
30
0
0
VERTEX
8
CUT
10
251.819
20
17.119
30
0
0
VERTEX
8
CUT
10
251.8
20
17.4
30
0
0
SEQEND
8
CUT
0
POLYLINE
8
RASTER
66
1
70
1
0
VERTEX
8
RASTER
10
254.38
20
27
30
0
0
VERTEX
8
RASTER
10
257.82
20
27
30
0
0
VERTEX
8
RASTER
10
257.82
20
25.8
30
0
0
VERTEX
8
RASTER
10
254.38
20
25.8
30
0
0
SEQEND
8
RASTER
0
POLYLINE
8
CUT
66
1
70
1
0
VERTEX
8
CUT
10
264.4
20
27
30
0
0
VERTEX
8
CUT
10
264.419
20
27.281
30
0
0
VERTEX
8
CUT
10
264.475
20
27.525
30
0
0
VERTEX
8
CUT
10
264.569
20
27.731
30
0
0
VERTEX
8
CUT
10
264.7
20
27.9
30
0
0
VERTEX
8
CUT
10
264.869
20
28.031
30
0
0
VERTEX
8
CUT
10
265.075
20
28.125
30
0
0
VERTEX
8
CUT
10
265.319
20
28.181
30
0
0
VERTEX
8
CUT
10
265.6
20
28.2
30
0
0
VERTEX
8
CUT
10
271.8
20
28.2
30
0
0
VERTEX
8
CUT
10
272.081
20
28.181
30
0
0
VERTEX
8
CUT
10
272.325
20
28.125
30
0
0
VERTEX
8
CUT
10
272.531
20
28.031
30
0
0
VERTEX
8
CUT
10
272.7
20
27.9
30
0
0
VERTEX
8
CUT
10
272.831
20
27.731
30
0
0
VERTEX
8
CUT
10
272.925
20
27.525
30
0
0
VERTEX
8
CUT
10
272.981
20
27.281
30
0
0
VERTEX
8
CUT
10
273
20
27
30
0
0
VERTEX
8
CUT
10
273
20
17.4
30
0
0
VERTEX
8
CUT
10
272.981
20
17.119
30
0
0
VERTEX
8
CUT
10
272.925
20
16.875
30
0
0
VERTEX
8
CUT
10
272.831
20
16.669
30
0
0
VERTEX
8
CUT
10
272.7
20
16.5
30
0
0
VERTEX
8
CUT
10
272.531
20
16.369
30
0
0
VERTEX
8
CUT
10
272.325
20
16.275
30
0
0
VERTEX
8
CUT
10
272.081
20
16.219
30
0
0
VERTEX
8
CUT
10
271.8
20
16.2
30
0
0
VERTEX
8
CUT
10
265.6
20
16.2
30
0
0
VERTEX
8
CUT
10
265.319
20
16.219
30
0
0
VERTEX
8
CUT
10
265.075
20
16.275
30
0
0
VERTEX
8
CUT
10
264.869
20
16.369
30
0
0
VERTEX
8
CUT
10
264.7
20
16.5
30
0
0
VERTEX
8
CUT
10
264.569
20
16.669
30
0
0
VERTEX
8
CUT
10
264.475
20
16.875
30
0
0
VERTEX
8
CUT
10
264.419
20
17.119
30
0
0
VERTEX
8
CUT
10
264.4
20
17.4
30
0
0
SEQEND
8
CUT
0
POLYLINE
8
RASTER
66
1
70
1
0
VERTEX
8
RASTER
10
266.98
20
27
30
0
0
VERTEX
8
RASTER
10
270.42
20
27
30
0
0
VERTEX
8
RASTER
10
270.42
20
25.8
30
0
0
VERTEX
8
RASTER
10
266.98
20
25.8
30
0
0
SEQEND
8
RASTER
0
POLYLINE
8
CUT
66
1
70
1
0
VERTEX
8
CUT
10
277
20
27
30
0
0
VERTEX
8
CUT
10
277.019
20
27.281
30
0
0
VERTEX
8
CUT
10
277.075
20
27.525
30
0
0
VERTEX
8
CUT
10
277.169
20
27.731
30
0
0
VERTEX
8
CUT
10
277.3
20
27.9
30
0
0
VERTEX
8
CUT
10
277.469
20
28.031
30
0
0
VERTEX
8
CUT
10
277.675
20
28.125
30
0
0
VERTEX
8
CUT
10
277.919
20
28.181
30
0
0
VERTEX
8
CUT
10
278.2
20
28.2
30
0
0
VERTEX
8
CUT
10
284.4
20
28.2
30
0
0
VERTEX
8
CUT
10
284.681
20
28.181
30
0
0
VERTEX
8
CUT
10
284.925
20
28.125
30
0
0
VERTEX
8
CUT
10
285.131
20
28.031
30
0
0
VERTEX
8
CUT
10
285.3
20
27.9
30
0
0
VERTEX
8
CUT
10
285.431
20
27.731
30
0
0
VERTEX
8
CUT
10
285.525
20
27.525
30
0
0
VERTEX
8
CUT
10
285.581
20
27.281
30
0
0
VERTEX
8
CUT
10
285.6
20
27
30
0
0
VERTEX
8
CUT
10
285.6
20
17.4
30
0
0
VERTEX
8
CUT
10
285.581
20
17.119
30
0
0
VERTEX
8
CUT
10
285.525
20
16.875
30
0
0
VERTEX
8
CUT
10
285.431
20
16.669
30
0
0
VERTEX
8
CUT
10
285.3
20
16.5
30
0
0
VERTEX
8
CUT
10
285.131
20
16.369
30
0
0
VERTEX
8
CUT
10
284.925
20
16.275
30
0
0
VERTEX
8
CUT
10
284.681
20
16.219
30
0
0
VERTEX
8
CUT
10
284.4
20
16.2
30
0
0
VERTEX
8
CUT
10
278.2
20
16.2
30
0
0
VERTEX
8
CUT
10
277.919
20
16.219
30
0
0
VERTEX
8
CUT
10
277.675
20
16.275
30
0
0
VERTEX
8
CUT
10
277.469
20
16.369
30
0
0
VERTEX
8
CUT
10
277.3
20
16.5
30
0
0
VERTEX
8
CUT
10
277.169
20
16.669
30
0
0
VERTEX
8
CUT
10
277.075
20
16.875
30
0
0
VERTEX
8
CUT
10
277.019
20
17.119
30
0
0
VERTEX
8
CUT
10
277
20
17.4
30
0
0
SEQEND
8
CUT
0
POLYLINE
8
RASTER
66
1
70
1
0
VERTEX
8
RASTER
10
279.58
20
27
30
0
0
VERTEX
8
RASTER
10
283.02
20
27
30
0
0
VERTEX
8
RASTER
10
283.02
20
25.8
30
0
0
VERTEX
8
RASTER
10
279.58
20
25.8
30
0
0
SEQEND
8
RASTER
0
ENDSEC
0
EOF
