0
SECTION
2
HEADER
9
$ACADVER
1
AC1009
9
$EXTMIN
10
0
20
0
9
$EXTMAX
10
218.2
20
32.2
0
ENDSEC
0
SECTION
2
TABLES
0
TABLE
2
LAYER
70
2
0
LAYER
2
CUT
70
0
62
1
6
CONTINUOUS
0
LAYER
2
RASTER
70
0
62
7
6
CONTINUOUS
0
ENDTAB
0
ENDSEC
0
SECTION
2
ENTITIES
0
POLYLINE
8
CUT
66
1
70
1
0
VERTEX
8
CUT
10
4
20
26.2
30
0
0
VERTEX
8
CUT
10
4.031
20
26.669
30
0
0
VERTEX
8
CUT
10
4.125
20
27.075
30
0
0
VERTEX
8
CUT
10
4.281
20
27.419
30
0
0
VERTEX
8
CUT
10
4.5
20
27.7
30
0
0
VERTEX
8
CUT
10
4.781
20
27.919
30
0
0
VERTEX
8
CUT
10
5.125
20
28.075
30
0
0
VERTEX
8
CUT
10
5.531
20
28.169
30
0
0
VERTEX
8
CUT
10
6
20
28.2
30
0
0
VERTEX
8
CUT
10
26.2
20
28.2
30
0
0
VERTEX
8
CUT
10
26.669
20
28.169
30
0
0
VERTEX
8
CUT
10
27.075
20
28.075
30
0
0
VERTEX
8
CUT
10
27.419
20
27.919
30
0
0
VERTEX
8
CUT
10
27.7
20
27.7
30
0
0
VERTEX
8
CUT
10
27.919
20
27.419
30
0
0
VERTEX
8
CUT
10
28.075
20
27.075
30
0
0
VERTEX
8
CUT
10
28.169
20
26.669
30
0
0
VERTEX
8
CUT
10
28.2
20
26.2
30
0
0
VERTEX
8
CUT
10
28.2
20
17.6
30
0
0
VERTEX
8
CUT
10
30.6
20
18.2
30
0
0
VERTEX
8
CUT
10
30.6
20
14
30
0
0
VERTEX
8
CUT
10
28.2
20
14.6
30
0
0
VERTEX
8
CUT
10
28.2
20
6
30
0
0
VERTEX
8
CUT
10
28.169
20
5.531
30
0
0
VERTEX
8
CUT
10
28.075
20
5.125
30
0
0
VERTEX
8
CUT
10
27.919
20
4.781
30
0
0
VERTEX
8
CUT
10
27.7
20
4.5
30
0
0
VERTEX
8
CUT
10
27.419
20
4.281
30
0
0
VERTEX
8
CUT
10
27.075
20
4.125
30
0
0
VERTEX
8
CUT
10
26.669
20
4.031
30
0
0
VERTEX
8
CUT
10
26.2
20
4
30
0
0
VERTEX
8
CUT
10
6
20
4
30
0
0
VERTEX
8
CUT
10
5.531
20
4.031
30
0
0
VERTEX
8
CUT
10
5.125
20
4.125
30
0
0
VERTEX
8
CUT
10
4.781
20
4.281
30
0
0
VERTEX
8
CUT
10
4.5
20
4.5
30
0
0
VERTEX
8
CUT
10
4.281
20
4.781
30
0
0
VERTEX
8
CUT
10
4.125
20
5.125
30
0
0
VERTEX
8
CUT
10
4.031
20
5.531
30
0
0
VERTEX
8
CUT
10
4
20
6
30
0
0
SEQEND
8
CUT
0
POLYLINE
8
RASTER
66
1
70
1
0
VERTEX
8
RASTER
10
10.408
20
20.166
30
0
0
VERTEX
8
RASTER
10
10.415
20
20.261
30
0
0
VERTEX
8
RASTER
10
10.434
20
20.343
30
0
0
VERTEX
8
RASTER
10
10.465
20
20.413
30
0
0
VERTEX
8
RASTER
10
10.51
20
20.471
30
0
0
VERTEX
8
RASTER
10
10.567
20
20.515
30
0
0
VERTEX
8
RASTER
10
10.637
20
20.547
30
0
0
VERTEX
8
RASTER
10
10.719
20
20.566
30
0
0
VERTEX
8
RASTER
10
10.815
20
20.572
30
0
0
VERTEX
8
RASTER
10
25.451
20
20.572
30
0
0
VERTEX
8
RASTER
10
25.546
20
20.566
30
0
0
VERTEX
8
RASTER
10
25.629
20
20.547
30
0
0
VERTEX
8
RASTER
10
25.699
20
20.515
30
0
0
VERTEX
8
RASTER
10
25.756
20
20.471
30
0
0
VERTEX
8
RASTER
10
25.8
20
20.413
30
0
0
VERTEX
8
RASTER
10
25.832
20
20.343
30
0
0
VERTEX
8
RASTER
10
25.851
20
20.261
30
0
0
VERTEX
8
RASTER
10
25.857
20
20.166
30
0
0
VERTEX
8
RASTER
10
25.857
20
12.034
30
0
0
VERTEX
8
RASTER
10
25.851
20
11.939
30
0
0
VERTEX
8
RASTER
10
25.832
20
11.857
30
0
0
VERTEX
8
RASTER
10
25.8
20
11.787
30
0
0
VERTEX
8
RASTER
10
25.756
20
11.729
30
0
0
VERTEX
8
RASTER
10
25.699
20
11.685
30
0
0
VERTEX
8
RASTER
10
25.629
20
11.653
30
0
0
VERTEX
8
RASTER
10
25.546
20
11.634
30
0
0
VERTEX
8
RASTER
10
25.451
20
11.628
30
0
0
VERTEX
8
RASTER
10
10.815
20
11.628
30
0
0
VERTEX
8
RASTER
10
10.719
20
11.634
30
0
0
VERTEX
8
RASTER
10
10.637
20
11.653
30
0
0
VERTEX
8
RASTER
10
10.567
20
11.685
30
0
0
VERTEX
8
RASTER
10
10.51
20
11.729
30
0
0
VERTEX
8
RASTER
10
10.465
20
11.787
30
0
0
VERTEX
8
RASTER
10
10.434
20
11.857
30
0
0
VERTEX
8
RASTER
10
10.415
20
11.939
30
0
0
VERTEX
8
RASTER
10
10.408
20
12.034
30
0
0
SEQEND
8
RASTER
0
POLYLINE
8
RASTER
66
1
70
1
0
VERTEX
8
RASTER
10
13.03
20
19.962
30
0
0
VERTEX
8
RASTER
10
13.03
20
12.238
30
0
0
VERTEX
8
RASTER
10
13.478
20
12.238
30
0
0
VERTEX
8
RASTER
10
13.478
20
19.962
30
0
0
VERTEX
8
RASTER
10
13.03
20
19.962
30
0
0
SEQEND
8
RASTER
0
POLYLINE
8
RASTER
66
1
70
1
0
VERTEX
8
RASTER
10
15.876
20
19.962
30
0
0
VERTEX
8
RASTER
10
15.876
20
12.238
30
0
0
VERTEX
8
RASTER
10
16.324
20
12.238
30
0
0
VERTEX
8
RASTER
10
16.324
20
19.962
30
0
0
VERTEX
8
RASTER
10
15.876
20
19.962
30
0
0
SEQEND
8
RASTER
0
POLYLINE
8
RASTER
66
1
70
1
0
VERTEX
8
RASTER
10
18.722
20
19.962
30
0
0
VERTEX
8
RASTER
10
18.722
20
12.238
30
0
0
VERTEX
8
RASTER
10
19.17
20
12.238
30
0
0
VERTEX
8
RASTER
10
19.17
20
19.962
30
0
0
VERTEX
8
RASTER
10
18.722
20
19.962
30
0
0
SEQEND
8
RASTER
0
POLYLINE
8
RASTER
66
1
70
1
0
VERTEX
8
RASTER
10
21.568
20
19.962
30
0
0
VERTEX
8
RASTER
10
21.568
20
12.238
30
0
0
VERTEX
8
RASTER
10
22.015
20
12.238
30
0
0
VERTEX
8
RASTER
10
22.015
20
19.962
30
0
0
VERTEX
8
RASTER
10
21.568
20
19.962
30
0
0
SEQEND
8
RASTER
0
POLYLINE
8
RASTER
66
1
70
1
0
VERTEX
8
RASTER
10
24.414
20
19.962
30
0
0
VERTEX
8
RASTER
10
24.414
20
12.238
30
0
0
VERTEX
8
RASTER
10
24.861
20
12.238
30
0
0
VERTEX
8
RASTER
10
24.861
20
19.962
30
0
0
VERTEX
8
RASTER
10
24.414
20
19.962
30
0
0
SEQEND
8
RASTER
0
CIRCLE
8
RASTER
10
16.1
20
18.295
30
0
40
0.549
0
CIRCLE
8
RASTER
10
16.1
20
18.295
30
0
40
0.305
0
POLYLINE
8
RASTER
66
1
70
1
0
VERTEX
8
RASTER
10
15.856
20
17.564
30
0
0
VERTEX
8
RASTER
10
15.856
20
16.954
30
0
0
VERTEX
8
RASTER
10
14.758
20
16.954
30
0
0
VERTEX
8
RASTER
10
14.758
20
16.588
30
0
0
VERTEX
8
RASTER
10
15.856
20
16.588
30
0
0
VERTEX
8
RASTER
10
15.856
20
14.88
30
0
0
VERTEX
8
RASTER
10
15.714
20
14.851
30
0
0
VERTEX
8
RASTER
10
15.564
20
14.856
30
0
0
VERTEX
8
RASTER
10
15.412
20
14.891
30
0
0
VERTEX
8
RASTER
10
15.261
20
14.957
30
0
0
VERTEX
8
RASTER
10
15.116
20
15.051
30
0
0
VERTEX
8
RASTER
10
14.981
20
15.172
30
0
0
VERTEX
8
RASTER
10
14.861
20
15.319
30
0
0
VERTEX
8
RASTER
10
14.758
20
15.49
30
0
0
VERTEX
8
RASTER
10
14.149
20
15.002
30
0
0
VERTEX
8
RASTER
10
14.267
20
14.649
30
0
0
VERTEX
8
RASTER
10
14.436
20
14.324
30
0
0
VERTEX
8
RASTER
10
14.648
20
14.033
30
0
0
VERTEX
8
RASTER
10
14.896
20
13.783
30
0
0
VERTEX
8
RASTER
10
15.172
20
13.578
30
0
0
VERTEX
8
RASTER
10
15.469
20
13.424
30
0
0
VERTEX
8
RASTER
10
15.781
20
13.328
30
0
0
VERTEX
8
RASTER
10
16.1
20
13.295
30
0
0
VERTEX
8
RASTER
10
16.419
20
13.328
30
0
0
VERTEX
8
RASTER
10
16.731
20
13.424
30
0
0
VERTEX
8
RASTER
10
17.028
20
13.578
30
0
0
VERTEX
8
RASTER
10
17.304
20
13.783
30
0
0
VERTEX
8
RASTER
10
17.552
20
14.033
30
0
0
VERTEX
8
RASTER
10
17.764
20
14.324
30
0
0
VERTEX
8
RASTER
10
17.933
20
14.649
30
0
0
VERTEX
8
RASTER
10
18.051
20
15.002
30
0
0
VERTEX
8
RASTER
10
17.442
20
15.49
30
0
0
VERTEX
8
RASTER
10
17.339
20
15.319
30
0
0
VERTEX
8
RASTER
10
17.219
20
15.172
30
0
0
VERTEX
8
RASTER
10
17.084
20
15.051
30
0
0
VERTEX
8
RASTER
10
16.939
20
14.957
30
0
0
VERTEX
8
RASTER
10
16.788
20
14.891
30
0
0
VERTEX
8
RASTER
10
16.636
20
14.856
30
0
0
VERTEX
8
RASTER
10
16.486
20
14.851
30
0
0
VERTEX
8
RASTER
10
16.344
20
14.88
30
0
0
VERTEX
8
RASTER
10
16.344
20
16.588
30
0
0
VERTEX
8
RASTER
10
17.442
20
16.588
30
0
0
VERTEX
8
RASTER
10
17.442
20
16.954
30
0
0
VERTEX
8
RASTER
10
16.344
20
16.954
30
0
0
VERTEX
8
RASTER
10
16.344
20
17.564
30
0
0
VERTEX
8
RASTER
10
15.856
20
17.564
30
0
0
SEQEND
8
RASTER
0
CIRCLE
8
RASTER
10
10.408
20
21.385
30
0
40
1.016
0
CIRCLE
8
RASTER
10
10.408
20
10.815
30
0
40
1.016
0
CIRCLE
8
RASTER
10
25.857
20
21.385
30
0
40
1.016
0
CIRCLE
8
RASTER
10
25.857
20
10.815
30
0
40
1.016
0
POLYLINE
8
CUT
66
1
70
1
0
VERTEX
8
CUT
10
34.6
20
26.2
30
0
0
VERTEX
8
CUT
10
34.631
20
26.669
30
0
0
VERTEX
8
CUT
10
34.725
20
27.075
30
0
0
VERTEX
8
CUT
10
34.881
20
27.419
30
0
0
VERTEX
8
CUT
10
35.1
20
27.7
30
0
0
VERTEX
8
CUT
10
35.381
20
27.919
30
0
0
VERTEX
8
CUT
10
35.725
20
28.075
30
0
0
VERTEX
8
CUT
10
36.131
20
28.169
30
0
0
VERTEX
8
CUT
10
36.6
20
28.2
30
0
0
VERTEX
8
CUT
10
56.8
20
28.2
30
0
0
VERTEX
8
CUT
10
57.269
20
28.169
30
0
0
VERTEX
8
CUT
10
57.675
20
28.075
30
0
0
VERTEX
8
CUT
10
58.019
20
27.919
30
0
0
VERTEX
8
CUT
10
58.3
20
27.7
30
0
0
VERTEX
8
CUT
10
58.519
20
27.419
30
0
0
VERTEX
8
CUT
10
58.675
20
27.075
30
0
0
VERTEX
8
CUT
10
58.769
20
26.669
30
0
0
VERTEX
8
CUT
10
58.8
20
26.2
30
0
0
VERTEX
8
CUT
10
58.8
20
17.6
30
0
0
VERTEX
8
CUT
10
61.2
20
18.2
30
0
0
VERTEX
8
CUT
10
61.2
20
14
30
0
0
VERTEX
8
CUT
10
58.8
20
14.6
30
0
0
VERTEX
8
CUT
10
58.8
20
6
30
0
0
VERTEX
8
CUT
10
58.769
20
5.531
30
0
0
VERTEX
8
CUT
10
58.675
20
5.125
30
0
0
VERTEX
8
CUT
10
58.519
20
4.781
30
0
0
VERTEX
8
CUT
10
58.3
20
4.5
30
0
0
VERTEX
8
CUT
10
58.019
20
4.281
30
0
0
VERTEX
8
CUT
10
57.675
20
4.125
30
0
0
VERTEX
8
CUT
10
57.269
20
4.031
30
0
0
VERTEX
8
CUT
10
56.8
20
4
30
0
0
VERTEX
8
CUT
10
36.6
20
4
30
0
0
VERTEX
8
CUT
10
36.131
20
4.031
30
0
0
VERTEX
8
CUT
10
35.725
20
4.125
30
0
0
VERTEX
8
CUT
10
35.381
20
4.281
30
0
0
VERTEX
8
CUT
10
35.1
20
4.5
30
0
0
VERTEX
8
CUT
10
34.881
20
4.781
30
0
0
VERTEX
8
CUT
10
34.725
20
5.125
30
0
0
VERTEX
8
CUT
10
34.631
20
5.531
30
0
0
VERTEX
8
CUT
10
34.6
20
6
30
0
0
SEQEND
8
CUT
0
POLYLINE
8
RASTER
66
1
70
1
0
VERTEX
8
RASTER
10
41.008
20
20.166
30
0
0
VERTEX
8
RASTER
10
41.015
20
20.261
30
0
0
VERTEX
8
RASTER
10
41.034
20
20.343
30
0
0
VERTEX
8
RASTER
10
41.065
20
20.413
30
0
0
VERTEX
8
RASTER
10
41.11
20
20.471
30
0
0
VERTEX
8
RASTER
10
41.167
20
20.515
30
0
0
VERTEX
8
RASTER
10
41.237
20
20.547
30
0
0
VERTEX
8
RASTER
10
41.319
20
20.566
30
0
0
VERTEX
8
RASTER
10
41.415
20
20.572
30
0
0
VERTEX
8
RASTER
10
56.051
20
20.572
30
0
0
VERTEX
8
RASTER
10
56.146
20
20.566
30
0
0
VERTEX
8
RASTER
10
56.229
20
20.547
30
0
0
VERTEX
8
RASTER
10
56.299
20
20.515
30
0
0
VERTEX
8
RASTER
10
56.356
20
20.471
30
0
0
VERTEX
8
RASTER
10
56.4
20
20.413
30
0
0
VERTEX
8
RASTER
10
56.432
20
20.343
30
0
0
VERTEX
8
RASTER
10
56.451
20
20.261
30
0
0
VERTEX
8
RASTER
10
56.457
20
20.166
30
0
0
VERTEX
8
RASTER
10
56.457
20
12.034
30
0
0
VERTEX
8
RASTER
10
56.451
20
11.939
30
0
0
VERTEX
8
RASTER
10
56.432
20
11.857
30
0
0
VERTEX
8
RASTER
10
56.4
20
11.787
30
0
0
VERTEX
8
RASTER
10
56.356
20
11.729
30
0
0
VERTEX
8
RASTER
10
56.299
20
11.685
30
0
0
VERTEX
8
RASTER
10
56.229
20
11.653
30
0
0
VERTEX
8
RASTER
10
56.146
20
11.634
30
0
0
VERTEX
8
RASTER
10
56.051
20
11.628
30
0
0
VERTEX
8
RASTER
10
41.415
20
11.628
30
0
0
VERTEX
8
RASTER
10
41.319
20
11.634
30
0
0
VERTEX
8
RASTER
10
41.237
20
11.653
30
0
0
VERTEX
8
RASTER
10
41.167
20
11.685
30
0
0
VERTEX
8
RASTER
10
41.11
20
11.729
30
0
0
VERTEX
8
RASTER
10
41.065
20
11.787
30
0
0
VERTEX
8
RASTER
10
41.034
20
11.857
30
0
0
VERTEX
8
RASTER
10
41.015
20
11.939
30
0
0
VERTEX
8
RASTER
10
41.008
20
12.034
30
0
0
SEQEND
8
RASTER
0
POLYLINE
8
RASTER
66
1
70
1
0
VERTEX
8
RASTER
10
43.63
20
19.962
30
0
0
VERTEX
8
RASTER
10
43.63
20
12.238
30
0
0
VERTEX
8
RASTER
10
44.078
20
12.238
30
0
0
VERTEX
8
RASTER
10
44.078
20
19.962
30
0
0
VERTEX
8
RASTER
10
43.63
20
19.962
30
0
0
SEQEND
8
RASTER
0
POLYLINE
8
RASTER
66
1
70
1
0
VERTEX
8
RASTER
10
46.476
20
19.962
30
0
0
VERTEX
8
RASTER
10
46.476
20
12.238
30
0
0
VERTEX
8
RASTER
10
46.924
20
12.238
30
0
0
VERTEX
8
RASTER
10
46.924
20
19.962
30
0
0
VERTEX
8
RASTER
10
46.476
20
19.962
30
0
0
SEQEND
8
RASTER
0
POLYLINE
8
RASTER
66
1
70
1
0
VERTEX
8
RASTER
10
49.322
20
19.962
30
0
0
VERTEX
8
RASTER
10
49.322
20
12.238
30
0
0
VERTEX
8
RASTER
10
49.77
20
12.238
30
0
0
VERTEX
8
RASTER
10
49.77
20
19.962
30
0
0
VERTEX
8
RASTER
10
49.322
20
19.962
30
0
0
SEQEND
8
RASTER
0
POLYLINE
8
RASTER
66
1
70
1
0
VERTEX
8
RASTER
10
52.168
20
19.962
30
0
0
VERTEX
8
RASTER
10
52.168
20
12.238
30
0
0
VERTEX
8
RASTER
10
52.615
20
12.238
30
0
0
VERTEX
8
RASTER
10
52.615
20
19.962
30
0
0
VERTEX
8
RASTER
10
52.168
20
19.962
30
0
0
SEQEND
8
RASTER
0
POLYLINE
8
RASTER
66
1
70
1
0
VERTEX
8
RASTER
10
55.014
20
19.962
30
0
0
VERTEX
8
RASTER
10
55.014
20
12.238
30
0
0
VERTEX
8
RASTER
10
55.461
20
12.238
30
0
0
VERTEX
8
RASTER
10
55.461
20
19.962
30
0
0
VERTEX
8
RASTER
10
55.014
20
19.962
30
0
0
SEQEND
8
RASTER
0
CIRCLE
8
RASTER
10
46.7
20
18.295
30
0
40
0.549
0
CIRCLE
8
RASTER
10
46.7
20
18.295
30
0
40
0.305
0
POLYLINE
8
RASTER
66
1
70
1
0
VERTEX
8
RASTER
10
46.456
20
17.564
30
0
0
VERTEX
8
RASTER
10
46.456
20
16.954
30
0
0
VERTEX
8
RASTER
10
45.358
20
16.954
30
0
0
VERTEX
8
RASTER
10
45.358
20
16.588
30
0
0
VERTEX
8
RASTER
10
46.456
20
16.588
30
0
0
VERTEX
8
RASTER
10
46.456
20
14.88
30
0
0
VERTEX
8
RASTER
10
46.314
20
14.851
30
0
0
VERTEX
8
RASTER
10
46.164
20
14.856
30
0
0
VERTEX
8
RASTER
10
46.012
20
14.891
30
0
0
VERTEX
8
RASTER
10
45.861
20
14.957
30
0
0
VERTEX
8
RASTER
10
45.716
20
15.051
30
0
0
VERTEX
8
RASTER
10
45.581
20
15.172
30
0
0
VERTEX
8
RASTER
10
45.461
20
15.319
30
0
0
VERTEX
8
RASTER
10
45.358
20
15.49
30
0
0
VERTEX
8
RASTER
10
44.749
20
15.002
30
0
0
VERTEX
8
RASTER
10
44.867
20
14.649
30
0
0
VERTEX
8
RASTER
10
45.036
20
14.324
30
0
0
VERTEX
8
RASTER
10
45.248
20
14.033
30
0
0
VERTEX
8
RASTER
10
45.496
20
13.783
30
0
0
VERTEX
8
RASTER
10
45.772
20
13.578
30
0
0
VERTEX
8
RASTER
10
46.069
20
13.424
30
0
0
VERTEX
8
RASTER
10
46.381
20
13.328
30
0
0
VERTEX
8
RASTER
10
46.7
20
13.295
30
0
0
VERTEX
8
RASTER
10
47.019
20
13.328
30
0
0
VERTEX
8
RASTER
10
47.331
20
13.424
30
0
0
VERTEX
8
RASTER
10
47.628
20
13.578
30
0
0
VERTEX
8
RASTER
10
47.904
20
13.783
30
0
0
VERTEX
8
RASTER
10
48.152
20
14.033
30
0
0
VERTEX
8
RASTER
10
48.364
20
14.324
30
0
0
VERTEX
8
RASTER
10
48.533
20
14.649
30
0
0
VERTEX
8
RASTER
10
48.651
20
15.002
30
0
0
VERTEX
8
RASTER
10
48.042
20
15.49
30
0
0
VERTEX
8
RASTER
10
47.939
20
15.319
30
0
0
VERTEX
8
RASTER
10
47.819
20
15.172
30
0
0
VERTEX
8
RASTER
10
47.684
20
15.051
30
0
0
VERTEX
8
RASTER
10
47.539
20
14.957
30
0
0
VERTEX
8
RASTER
10
47.388
20
14.891
30
0
0
VERTEX
8
RASTER
10
47.236
20
14.856
30
0
0
VERTEX
8
RASTER
10
47.086
20
14.851
30
0
0
VERTEX
8
RASTER
10
46.944
20
14.88
30
0
0
VERTEX
8
RASTER
10
46.944
20
16.588
30
0
0
VERTEX
8
RASTER
10
48.042
20
16.588
30
0
0
VERTEX
8
RASTER
10
48.042
20
16.954
30
0
0
VERTEX
8
RASTER
10
46.944
20
16.954
30
0
0
VERTEX
8
RASTER
10
46.944
20
17.564
30
0
0
VERTEX
8
RASTER
10
46.456
20
17.564
30
0
0
SEQEND
8
RASTER
0
CIRCLE
8
RASTER
10
41.008
20
21.385
30
0
40
1.016
0
CIRCLE
8
RASTER
10
41.008
20
10.815
30
0
40
1.016
0
CIRCLE
8
RASTER
10
56.457
20
21.385
30
0
40
1.016
0
CIRCLE
8
RASTER
10
56.457
20
10.815
30
0
40
1.016
0
POLYLINE
8
CUT
66
1
70
1
0
VERTEX
8
CUT
10
65.2
20
26.2
30
0
0
VERTEX
8
CUT
10
65.231
20
26.669
30
0
0
VERTEX
8
CUT
10
65.325
20
27.075
30
0
0
VERTEX
8
CUT
10
65.481
20
27.419
30
0
0
VERTEX
8
CUT
10
65.7
20
27.7
30
0
0
VERTEX
8
CUT
10
65.981
20
27.919
30
0
0
VERTEX
8
CUT
10
66.325
20
28.075
30
0
0
VERTEX
8
CUT
10
66.731
20
28.169
30
0
0
VERTEX
8
CUT
10
67.2
20
28.2
30
0
0
VERTEX
8
CUT
10
87.4
20
28.2
30
0
0
VERTEX
8
CUT
10
87.869
20
28.169
30
0
0
VERTEX
8
CUT
10
88.275
20
28.075
30
0
0
VERTEX
8
CUT
10
88.619
20
27.919
30
0
0
VERTEX
8
CUT
10
88.9
20
27.7
30
0
0
VERTEX
8
CUT
10
89.119
20
27.419
30
0
0
VERTEX
8
CUT
10
89.275
20
27.075
30
0
0
VERTEX
8
CUT
10
89.369
20
26.669
30
0
0
VERTEX
8
CUT
10
89.4
20
26.2
30
0
0
VERTEX
8
CUT
10
89.4
20
17.6
30
0
0
VERTEX
8
CUT
10
91.8
20
18.2
30
0
0
VERTEX
8
CUT
10
91.8
20
14
30
0
0
VERTEX
8
CUT
10
89.4
20
14.6
30
0
0
VERTEX
8
CUT
10
89.4
20
6
30
0
0
VERTEX
8
CUT
10
89.369
20
5.531
30
0
0
VERTEX
8
CUT
10
89.275
20
5.125
30
0
0
VERTEX
8
CUT
10
89.119
20
4.781
30
0
0
VERTEX
8
CUT
10
88.9
20
4.5
30
0
0
VERTEX
8
CUT
10
88.619
20
4.281
30
0
0
VERTEX
8
CUT
10
88.275
20
4.125
30
0
0
VERTEX
8
CUT
10
87.869
20
4.031
30
0
0
VERTEX
8
CUT
10
87.4
20
4
30
0
0
VERTEX
8
CUT
10
67.2
20
4
30
0
0
VERTEX
8
CUT
10
66.731
20
4.031
30
0
0
VERTEX
8
CUT
10
66.325
20
4.125
30
0
0
VERTEX
8
CUT
10
65.981
20
4.281
30
0
0
VERTEX
8
CUT
10
65.7
20
4.5
30
0
0
VERTEX
8
CUT
10
65.481
20
4.781
30
0
0
VERTEX
8
CUT
10
65.325
20
5.125
30
0
0
VERTEX
8
CUT
10
65.231
20
5.531
30
0
0
VERTEX
8
CUT
10
65.2
20
6
30
0
0
SEQEND
8
CUT
0
POLYLINE
8
RASTER
66
1
70
1
0
VERTEX
8
RASTER
10
71.608
20
20.166
30
0
0
VERTEX
8
RASTER
10
71.615
20
20.261
30
0
0
VERTEX
8
RASTER
10
71.634
20
20.343
30
0
0
VERTEX
8
RASTER
10
71.665
20
20.413
30
0
0
VERTEX
8
RASTER
10
71.71
20
20.471
30
0
0
VERTEX
8
RASTER
10
71.767
20
20.515
30
0
0
VERTEX
8
RASTER
10
71.837
20
20.547
30
0
0
VERTEX
8
RASTER
10
71.919
20
20.566
30
0
0
VERTEX
8
RASTER
10
72.015
20
20.572
30
0
0
VERTEX
8
RASTER
10
86.651
20
20.572
30
0
0
VERTEX
8
RASTER
10
86.746
20
20.566
30
0
0
VERTEX
8
RASTER
10
86.829
20
20.547
30
0
0
VERTEX
8
RASTER
10
86.899
20
20.515
30
0
0
VERTEX
8
RASTER
10
86.956
20
20.471
30
0
0
VERTEX
8
RASTER
10
87
20
20.413
30
0
0
VERTEX
8
RASTER
10
87.032
20
20.343
30
0
0
VERTEX
8
RASTER
10
87.051
20
20.261
30
0
0
VERTEX
8
RASTER
10
87.057
20
20.166
30
0
0
VERTEX
8
RASTER
10
87.057
20
12.034
30
0
0
VERTEX
8
RASTER
10
87.051
20
11.939
30
0
0
VERTEX
8
RASTER
10
87.032
20
11.857
30
0
0
VERTEX
8
RASTER
10
87
20
11.787
30
0
0
VERTEX
8
RASTER
10
86.956
20
11.729
30
0
0
VERTEX
8
RASTER
10
86.899
20
11.685
30
0
0
VERTEX
8
RASTER
10
86.829
20
11.653
30
0
0
VERTEX
8
RASTER
10
86.746
20
11.634
30
0
0
VERTEX
8
RASTER
10
86.651
20
11.628
30
0
0
VERTEX
8
RASTER
10
72.015
20
11.628
30
0
0
VERTEX
8
RASTER
10
71.919
20
11.634
30
0
0
VERTEX
8
RASTER
10
71.837
20
11.653
30
0
0
VERTEX
8
RASTER
10
71.767
20
11.685
30
0
0
VERTEX
8
RASTER
10
71.71
20
11.729
30
0
0
VERTEX
8
RASTER
10
71.665
20
11.787
30
0
0
VERTEX
8
RASTER
10
71.634
20
11.857
30
0
0
VERTEX
8
RASTER
10
71.615
20
11.939
30
0
0
VERTEX
8
RASTER
10
71.608
20
12.034
30
0
0
SEQEND
8
RASTER
0
POLYLINE
8
RASTER
66
1
70
1
0
VERTEX
8
RASTER
10
74.23
20
19.962
30
0
0
VERTEX
8
RASTER
10
74.23
20
12.238
30
0
0
VERTEX
8
RASTER
10
74.678
20
12.238
30
0
0
VERTEX
8
RASTER
10
74.678
20
19.962
30
0
0
VERTEX
8
RASTER
10
74.23
20
19.962
30
0
0
SEQEND
8
RASTER
0
POLYLINE
8
RASTER
66
1
70
1
0
VERTEX
8
RASTER
10
77.076
20
19.962
30
0
0
VERTEX
8
RASTER
10
77.076
20
12.238
30
0
0
VERTEX
8
RASTER
10
77.524
20
12.238
30
0
0
VERTEX
8
RASTER
10
77.524
20
19.962
30
0
0
VERTEX
8
RASTER
10
77.076
20
19.962
30
0
0
SEQEND
8
RASTER
0
POLYLINE
8
RASTER
66
1
70
1
0
VERTEX
8
RASTER
10
79.922
20
19.962
30
0
0
VERTEX
8
RASTER
10
79.922
20
12.238
30
0
0
VERTEX
8
RASTER
10
80.37
20
12.238
30
0
0
VERTEX
8
RASTER
10
80.37
20
19.962
30
0
0
VERTEX
8
RASTER
10
79.922
20
19.962
30
0
0
SEQEND
8
RASTER
0
POLYLINE
8
RASTER
66
1
70
1
0
VERTEX
8
RASTER
10
82.768
20
19.962
30
0
0
VERTEX
8
RASTER
10
82.768
20
12.238
30
0
0
VERTEX
8
RASTER
10
83.215
20
12.238
30
0
0
VERTEX
8
RASTER
10
83.215
20
19.962
30
0
0
VERTEX
8
RASTER
10
82.768
20
19.962
30
0
0
SEQEND
8
RASTER
0
POLYLINE
8
RASTER
66
1
70
1
0
VERTEX
8
RASTER
10
85.614
20
19.962
30
0
0
VERTEX
8
RASTER
10
85.614
20
12.238
30
0
0
VERTEX
8
RASTER
10
86.061
20
12.238
30
0
0
VERTEX
8
RASTER
10
86.061
20
19.962
30
0
0
VERTEX
8
RASTER
10
85.614
20
19.962
30
0
0
SEQEND
8
RASTER
0
CIRCLE
8
RASTER
10
77.3
20
18.295
30
0
40
0.549
0
CIRCLE
8
RASTER
10
77.3
20
18.295
30
0
40
0.305
0
POLYLINE
8
RASTER
66
1
70
1
0
VERTEX
8
RASTER
10
77.056
20
17.564
30
0
0
VERTEX
8
RASTER
10
77.056
20
16.954
30
0
0
VERTEX
8
RASTER
10
75.958
20
16.954
30
0
0
VERTEX
8
RASTER
10
75.958
20
16.588
30
0
0
VERTEX
8
RASTER
10
77.056
20
16.588
30
0
0
VERTEX
8
RASTER
10
77.056
20
14.88
30
0
0
VERTEX
8
RASTER
10
76.914
20
14.851
30
0
0
VERTEX
8
RASTER
10
76.764
20
14.856
30
0
0
VERTEX
8
RASTER
10
76.612
20
14.891
30
0
0
VERTEX
8
RASTER
10
76.461
20
14.957
30
0
0
VERTEX
8
RASTER
10
76.316
20
15.051
30
0
0
VERTEX
8
RASTER
10
76.181
20
15.172
30
0
0
VERTEX
8
RASTER
10
76.061
20
15.319
30
0
0
VERTEX
8
RASTER
10
75.958
20
15.49
30
0
0
VERTEX
8
RASTER
10
75.349
20
15.002
30
0
0
VERTEX
8
RASTER
10
75.467
20
14.649
30
0
0
VERTEX
8
RASTER
10
75.636
20
14.324
30
0
0
VERTEX
8
RASTER
10
75.848
20
14.033
30
0
0
VERTEX
8
RASTER
10
76.096
20
13.783
30
0
0
VERTEX
8
RASTER
10
76.372
20
13.578
30
0
0
VERTEX
8
RASTER
10
76.669
20
13.424
30
0
0
VERTEX
8
RASTER
10
76.981
20
13.328
30
0
0
VERTEX
8
RASTER
10
77.3
20
13.295
30
0
0
VERTEX
8
RASTER
10
77.619
20
13.328
30
0
0
VERTEX
8
RASTER
10
77.931
20
13.424
30
0
0
VERTEX
8
RASTER
10
78.228
20
13.578
30
0
0
VERTEX
8
RASTER
10
78.504
20
13.783
30
0
0
VERTEX
8
RASTER
10
78.752
20
14.033
30
0
0
VERTEX
8
RASTER
10
78.964
20
14.324
30
0
0
VERTEX
8
RASTER
10
79.133
20
14.649
30
0
0
VERTEX
8
RASTER
10
79.251
20
15.002
30
0
0
VERTEX
8
RASTER
10
78.642
20
15.49
30
0
0
VERTEX
8
RASTER
10
78.539
20
15.319
30
0
0
VERTEX
8
RASTER
10
78.419
20
15.172
30
0
0
VERTEX
8
RASTER
10
78.284
20
15.051
30
0
0
VERTEX
8
RASTER
10
78.139
20
14.957
30
0
0
VERTEX
8
RASTER
10
77.988
20
14.891
30
0
0
VERTEX
8
RASTER
10
77.836
20
14.856
30
0
0
VERTEX
8
RASTER
10
77.686
20
14.851
30
0
0
VERTEX
8
RASTER
10
77.544
20
14.88
30
0
0
VERTEX
8
RASTER
10
77.544
20
16.588
30
0
0
VERTEX
8
RASTER
10
78.642
20
16.588
30
0
0
VERTEX
8
RASTER
10
78.642
20
16.954
30
0
0
VERTEX
8
RASTER
10
77.544
20
16.954
30
0
0
VERTEX
8
RASTER
10
77.544
20
17.564
30
0
0
VERTEX
8
RASTER
10
77.056
20
17.564
30
0
0
SEQEND
8
RASTER
0
CIRCLE
8
RASTER
10
71.608
20
21.385
30
0
40
1.016
0
CIRCLE
8
RASTER
10
71.608
20
10.815
30
0
40
1.016
0
CIRCLE
8
RASTER
10
87.057
20
21.385
30
0
40
1.016
0
CIRCLE
8
RASTER
10
87.057
20
10.815
30
0
40
1.016
0
POLYLINE
8
CUT
66
1
70
1
0
VERTEX
8
CUT
10
95.8
20
26.2
30
0
0
VERTEX
8
CUT
10
95.831
20
26.669
30
0
0
VERTEX
8
CUT
10
95.925
20
27.075
30
0
0
VERTEX
8
CUT
10
96.081
20
27.419
30
0
0
VERTEX
8
CUT
10
96.3
20
27.7
30
0
0
VERTEX
8
CUT
10
96.581
20
27.919
30
0
0
VERTEX
8
CUT
10
96.925
20
28.075
30
0
0
VERTEX
8
CUT
10
97.331
20
28.169
30
0
0
VERTEX
8
CUT
10
97.8
20
28.2
30
0
0
VERTEX
8
CUT
10
118
20
28.2
30
0
0
VERTEX
8
CUT
10
118.469
20
28.169
30
0
0
VERTEX
8
CUT
10
118.875
20
28.075
30
0
0
VERTEX
8
CUT
10
119.219
20
27.919
30
0
0
VERTEX
8
CUT
10
119.5
20
27.7
30
0
0
VERTEX
8
CUT
10
119.719
20
27.419
30
0
0
VERTEX
8
CUT
10
119.875
20
27.075
30
0
0
VERTEX
8
CUT
10
119.969
20
26.669
30
0
0
VERTEX
8
CUT
10
120
20
26.2
30
0
0
VERTEX
8
CUT
10
120
20
17.6
30
0
0
VERTEX
8
CUT
10
122.4
20
18.2
30
0
0
VERTEX
8
CUT
10
122.4
20
14
30
0
0
VERTEX
8
CUT
10
120
20
14.6
30
0
0
VERTEX
8
CUT
10
120
20
6
30
0
0
VERTEX
8
CUT
10
119.969
20
5.531
30
0
0
VERTEX
8
CUT
10
119.875
20
5.125
30
0
0
VERTEX
8
CUT
10
119.719
20
4.781
30
0
0
VERTEX
8
CUT
10
119.5
20
4.5
30
0
0
VERTEX
8
CUT
10
119.219
20
4.281
30
0
0
VERTEX
8
CUT
10
118.875
20
4.125
30
0
0
VERTEX
8
CUT
10
118.469
20
4.031
30
0
0
VERTEX
8
CUT
10
118
20
4
30
0
0
VERTEX
8
CUT
10
97.8
20
4
30
0
0
VERTEX
8
CUT
10
97.331
20
4.031
30
0
0
VERTEX
8
CUT
10
96.925
20
4.125
30
0
0
VERTEX
8
CUT
10
96.581
20
4.281
30
0
0
VERTEX
8
CUT
10
96.3
20
4.5
30
0
0
VERTEX
8
CUT
10
96.081
20
4.781
30
0
0
VERTEX
8
CUT
10
95.925
20
5.125
30
0
0
VERTEX
8
CUT
10
95.831
20
5.531
30
0
0
VERTEX
8
CUT
10
95.8
20
6
30
0
0
SEQEND
8
CUT
0
POLYLINE
8
RASTER
66
1
70
1
0
VERTEX
8
RASTER
10
102.208
20
20.166
30
0
0
VERTEX
8
RASTER
10
102.215
20
20.261
30
0
0
VERTEX
8
RASTER
10
102.234
20
20.343
30
0
0
VERTEX
8
RASTER
10
102.265
20
20.413
30
0
0
VERTEX
8
RASTER
10
102.31
20
20.471
30
0
0
VERTEX
8
RASTER
10
102.367
20
20.515
30
0
0
VERTEX
8
RASTER
10
102.437
20
20.547
30
0
0
VERTEX
8
RASTER
10
102.519
20
20.566
30
0
0
VERTEX
8
RASTER
10
102.615
20
20.572
30
0
0
VERTEX
8
RASTER
10
117.251
20
20.572
30
0
0
VERTEX
8
RASTER
10
117.346
20
20.566
30
0
0
VERTEX
8
RASTER
10
117.429
20
20.547
30
0
0
VERTEX
8
RASTER
10
117.499
20
20.515
30
0
0
VERTEX
8
RASTER
10
117.556
20
20.471
30
0
0
VERTEX
8
RASTER
10
117.6
20
20.413
30
0
0
VERTEX
8
RASTER
10
117.632
20
20.343
30
0
0
VERTEX
8
RASTER
10
117.651
20
20.261
30
0
0
VERTEX
8
RASTER
10
117.657
20
20.166
30
0
0
VERTEX
8
RASTER
10
117.657
20
12.034
30
0
0
VERTEX
8
RASTER
10
117.651
20
11.939
30
0
0
VERTEX
8
RASTER
10
117.632
20
11.857
30
0
0
VERTEX
8
RASTER
10
117.6
20
11.787
30
0
0
VERTEX
8
RASTER
10
117.556
20
11.729
30
0
0
VERTEX
8
RASTER
10
117.499
20
11.685
30
0
0
VERTEX
8
RASTER
10
117.429
20
11.653
30
0
0
VERTEX
8
RASTER
10
117.346
20
11.634
30
0
0
VERTEX
8
RASTER
10
117.251
20
11.628
30
0
0
VERTEX
8
RASTER
10
102.615
20
11.628
30
0
0
VERTEX
8
RASTER
10
102.519
20
11.634
30
0
0
VERTEX
8
RASTER
10
102.437
20
11.653
30
0
0
VERTEX
8
RASTER
10
102.367
20
11.685
30
0
0
VERTEX
8
RASTER
10
102.31
20
11.729
30
0
0
VERTEX
8
RASTER
10
102.265
20
11.787
30
0
0
VERTEX
8
RASTER
10
102.234
20
11.857
30
0
0
VERTEX
8
RASTER
10
102.215
20
11.939
30
0
0
VERTEX
8
RASTER
10
102.208
20
12.034
30
0
0
SEQEND
8
RASTER
0
POLYLINE
8
RASTER
66
1
70
1
0
VERTEX
8
RASTER
10
104.83
20
19.962
30
0
0
VERTEX
8
RASTER
10
104.83
20
12.238
30
0
0
VERTEX
8
RASTER
10
105.278
20
12.238
30
0
0
VERTEX
8
RASTER
10
105.278
20
19.962
30
0
0
VERTEX
8
RASTER
10
104.83
20
19.962
30
0
0
SEQEND
8
RASTER
0
POLYLINE
8
RASTER
66
1
70
1
0
VERTEX
8
RASTER
10
107.676
20
19.962
30
0
0
VERTEX
8
RASTER
10
107.676
20
12.238
30
0
0
VERTEX
8
RASTER
10
108.124
20
12.238
30
0
0
VERTEX
8
RASTER
10
108.124
20
19.962
30
0
0
VERTEX
8
RASTER
10
107.676
20
19.962
30
0
0
SEQEND
8
RASTER
0
POLYLINE
8
RASTER
66
1
70
1
0
VERTEX
8
RASTER
10
110.522
20
19.962
30
0
0
VERTEX
8
RASTER
10
110.522
20
12.238
30
0
0
VERTEX
8
RASTER
10
110.97
20
12.238
30
0
0
VERTEX
8
RASTER
10
110.97
20
19.962
30
0
0
VERTEX
8
RASTER
10
110.522
20
19.962
30
0
0
SEQEND
8
RASTER
0
POLYLINE
8
RASTER
66
1
70
1
0
VERTEX
8
RASTER
10
113.368
20
19.962
30
0
0
VERTEX
8
RASTER
10
113.368
20
12.238
30
0
0
VERTEX
8
RASTER
10
113.815
20
12.238
30
0
0
VERTEX
8
RASTER
10
113.815
20
19.962
30
0
0
VERTEX
8
RASTER
10
113.368
20
19.962
30
0
0
SEQEND
8
RASTER
0
POLYLINE
8
RASTER
66
1
70
1
0
VERTEX
8
RASTER
10
116.214
20
19.962
30
0
0
VERTEX
8
RASTER
10
116.214
20
12.238
30
0
0
VERTEX
8
RASTER
10
116.661
20
12.238
30
0
0
VERTEX
8
RASTER
10
116.661
20
19.962
30
0
0
VERTEX
8
RASTER
10
116.214
20
19.962
30
0
0
SEQEND
8
RASTER
0
CIRCLE
8
RASTER
10
107.9
20
18.295
30
0
40
0.549
0
CIRCLE
8
RASTER
10
107.9
20
18.295
30
0
40
0.305
0
POLYLINE
8
RASTER
66
1
70
1
0
VERTEX
8
RASTER
10
107.656
20
17.564
30
0
0
VERTEX
8
RASTER
10
107.656
20
16.954
30
0
0
VERTEX
8
RASTER
10
106.558
20
16.954
30
0
0
VERTEX
8
RASTER
10
106.558
20
16.588
30
0
0
VERTEX
8
RASTER
10
107.656
20
16.588
30
0
0
VERTEX
8
RASTER
10
107.656
20
14.88
30
0
0
VERTEX
8
RASTER
10
107.514
20
14.851
30
0
0
VERTEX
8
RASTER
10
107.364
20
14.856
30
0
0
VERTEX
8
RASTER
10
107.212
20
14.891
30
0
0
VERTEX
8
RASTER
10
107.061
20
14.957
30
0
0
VERTEX
8
RASTER
10
106.916
20
15.051
30
0
0
VERTEX
8
RASTER
10
106.781
20
15.172
30
0
0
VERTEX
8
RASTER
10
106.661
20
15.319
30
0
0
VERTEX
8
RASTER
10
106.558
20
15.49
30
0
0
VERTEX
8
RASTER
10
105.949
20
15.002
30
0
0
VERTEX
8
RASTER
10
106.067
20
14.649
30
0
0
VERTEX
8
RASTER
10
106.236
20
14.324
30
0
0
VERTEX
8
RASTER
10
106.448
20
14.033
30
0
0
VERTEX
8
RASTER
10
106.696
20
13.783
30
0
0
VERTEX
8
RASTER
10
106.972
20
13.578
30
0
0
VERTEX
8
RASTER
10
107.269
20
13.424
30
0
0
VERTEX
8
RASTER
10
107.581
20
13.328
30
0
0
VERTEX
8
RASTER
10
107.9
20
13.295
30
0
0
VERTEX
8
RASTER
10
108.219
20
13.328
30
0
0
VERTEX
8
RASTER
10
108.531
20
13.424
30
0
0
VERTEX
8
RASTER
10
108.828
20
13.578
30
0
0
VERTEX
8
RASTER
10
109.104
20
13.783
30
0
0
VERTEX
8
RASTER
10
109.352
20
14.033
30
0
0
VERTEX
8
RASTER
10
109.564
20
14.324
30
0
0
VERTEX
8
RASTER
10
109.733
20
14.649
30
0
0
VERTEX
8
RASTER
10
109.851
20
15.002
30
0
0
VERTEX
8
RASTER
10
109.242
20
15.49
30
0
0
VERTEX
8
RASTER
10
109.139
20
15.319
30
0
0
VERTEX
8
RASTER
10
109.019
20
15.172
30
0
0
VERTEX
8
RASTER
10
108.884
20
15.051
30
0
0
VERTEX
8
RASTER
10
108.739
20
14.957
30
0
0
VERTEX
8
RASTER
10
108.588
20
14.891
30
0
0
VERTEX
8
RASTER
10
108.436
20
14.856
30
0
0
VERTEX
8
RASTER
10
108.286
20
14.851
30
0
0
VERTEX
8
RASTER
10
108.144
20
14.88
30
0
0
VERTEX
8
RASTER
10
108.144
20
16.588
30
0
0
VERTEX
8
RASTER
10
109.242
20
16.588
30
0
0
VERTEX
8
RASTER
10
109.242
20
16.954
30
0
0
VERTEX
8
RASTER
10
108.144
20
16.954
30
0
0
VERTEX
8
RASTER
10
108.144
20
17.564
30
0
0
VERTEX
8
RASTER
10
107.656
20
17.564
30
0
0
SEQEND
8
RASTER
0
CIRCLE
8
RASTER
10
102.208
20
21.385
30
0
40
1.016
0
CIRCLE
8
RASTER
10
102.208
20
10.815
30
0
40
1.016
0
CIRCLE
8
RASTER
10
117.657
20
21.385
30
0
40
1.016
0
CIRCLE
8
RASTER
10
117.657
20
10.815
30
0
40
1.016
0
POLYLINE
8
CUT
66
1
70
1
0
VERTEX
8
CUT
10
126.4
20
26.2
30
0
0
VERTEX
8
CUT
10
126.431
20
26.669
30
0
0
VERTEX
8
CUT
10
126.525
20
27.075
30
0
0
VERTEX
8
CUT
10
126.681
20
27.419
30
0
0
VERTEX
8
CUT
10
126.9
20
27.7
30
0
0
VERTEX
8
CUT
10
127.181
20
27.919
30
0
0
VERTEX
8
CUT
10
127.525
20
28.075
30
0
0
VERTEX
8
CUT
10
127.931
20
28.169
30
0
0
VERTEX
8
CUT
10
128.4
20
28.2
30
0
0
VERTEX
8
CUT
10
148.6
20
28.2
30
0
0
VERTEX
8
CUT
10
149.069
20
28.169
30
0
0
VERTEX
8
CUT
10
149.475
20
28.075
30
0
0
VERTEX
8
CUT
10
149.819
20
27.919
30
0
0
VERTEX
8
CUT
10
150.1
20
27.7
30
0
0
VERTEX
8
CUT
10
150.319
20
27.419
30
0
0
VERTEX
8
CUT
10
150.475
20
27.075
30
0
0
VERTEX
8
CUT
10
150.569
20
26.669
30
0
0
VERTEX
8
CUT
10
150.6
20
26.2
30
0
0
VERTEX
8
CUT
10
150.6
20
17.6
30
0
0
VERTEX
8
CUT
10
153
20
18.2
30
0
0
VERTEX
8
CUT
10
153
20
14
30
0
0
VERTEX
8
CUT
10
150.6
20
14.6
30
0
0
VERTEX
8
CUT
10
150.6
20
6
30
0
0
VERTEX
8
CUT
10
150.569
20
5.531
30
0
0
VERTEX
8
CUT
10
150.475
20
5.125
30
0
0
VERTEX
8
CUT
10
150.319
20
4.781
30
0
0
VERTEX
8
CUT
10
150.1
20
4.5
30
0
0
VERTEX
8
CUT
10
149.819
20
4.281
30
0
0
VERTEX
8
CUT
10
149.475
20
4.125
30
0
0
VERTEX
8
CUT
10
149.069
20
4.031
30
0
0
VERTEX
8
CUT
10
148.6
20
4
30
0
0
VERTEX
8
CUT
10
128.4
20
4
30
0
0
VERTEX
8
CUT
10
127.931
20
4.031
30
0
0
VERTEX
8
CUT
10
127.525
20
4.125
30
0
0
VERTEX
8
CUT
10
127.181
20
4.281
30
0
0
VERTEX
8
CUT
10
126.9
20
4.5
30
0
0
VERTEX
8
CUT
10
126.681
20
4.781
30
0
0
VERTEX
8
CUT
10
126.525
20
5.125
30
0
0
VERTEX
8
CUT
10
126.431
20
5.531
30
0
0
VERTEX
8
CUT
10
126.4
20
6
30
0
0
SEQEND
8
CUT
0
POLYLINE
8
RASTER
66
1
70
1
0
VERTEX
8
RASTER
10
132.808
20
20.166
30
0
0
VERTEX
8
RASTER
10
132.815
20
20.261
30
0
0
VERTEX
8
RASTER
10
132.834
20
20.343
30
0
0
VERTEX
8
RASTER
10
132.865
20
20.413
30
0
0
VERTEX
8
RASTER
10
132.91
20
20.471
30
0
0
VERTEX
8
RASTER
10
132.967
20
20.515
30
0
0
VERTEX
8
RASTER
10
133.037
20
20.547
30
0
0
VERTEX
8
RASTER
10
133.119
20
20.566
30
0
0
VERTEX
8
RASTER
10
133.215
20
20.572
30
0
0
VERTEX
8
RASTER
10
147.851
20
20.572
30
0
0
VERTEX
8
RASTER
10
147.946
20
20.566
30
0
0
VERTEX
8
RASTER
10
148.029
20
20.547
30
0
0
VERTEX
8
RASTER
10
148.099
20
20.515
30
0
0
VERTEX
8
RASTER
10
148.156
20
20.471
30
0
0
VERTEX
8
RASTER
10
148.2
20
20.413
30
0
0
VERTEX
8
RASTER
10
148.232
20
20.343
30
0
0
VERTEX
8
RASTER
10
148.251
20
20.261
30
0
0
VERTEX
8
RASTER
10
148.257
20
20.166
30
0
0
VERTEX
8
RASTER
10
148.257
20
12.034
30
0
0
VERTEX
8
RASTER
10
148.251
20
11.939
30
0
0
VERTEX
8
RASTER
10
148.232
20
11.857
30
0
0
VERTEX
8
RASTER
10
148.2
20
11.787
30
0
0
VERTEX
8
RASTER
10
148.156
20
11.729
30
0
0
VERTEX
8
RASTER
10
148.099
20
11.685
30
0
0
VERTEX
8
RASTER
10
148.029
20
11.653
30
0
0
VERTEX
8
RASTER
10
147.946
20
11.634
30
0
0
VERTEX
8
RASTER
10
147.851
20
11.628
30
0
0
VERTEX
8
RASTER
10
133.215
20
11.628
30
0
0
VERTEX
8
RASTER
10
133.119
20
11.634
30
0
0
VERTEX
8
RASTER
10
133.037
20
11.653
30
0
0
VERTEX
8
RASTER
10
132.967
20
11.685
30
0
0
VERTEX
8
RASTER
10
132.91
20
11.729
30
0
0
VERTEX
8
RASTER
10
132.865
20
11.787
30
0
0
VERTEX
8
RASTER
10
132.834
20
11.857
30
0
0
VERTEX
8
RASTER
10
132.815
20
11.939
30
0
0
VERTEX
8
RASTER
10
132.808
20
12.034
30
0
0
SEQEND
8
RASTER
0
POLYLINE
8
RASTER
66
1
70
1
0
VERTEX
8
RASTER
10
135.43
20
19.962
30
0
0
VERTEX
8
RASTER
10
135.43
20
12.238
30
0
0
VERTEX
8
RASTER
10
135.878
20
12.238
30
0
0
VERTEX
8
RASTER
10
135.878
20
19.962
30
0
0
VERTEX
8
RASTER
10
135.43
20
19.962
30
0
0
SEQEND
8
RASTER
0
POLYLINE
8
RASTER
66
1
70
1
0
VERTEX
8
RASTER
10
138.276
20
19.962
30
0
0
VERTEX
8
RASTER
10
138.276
20
12.238
30
0
0
VERTEX
8
RASTER
10
138.724
20
12.238
30
0
0
VERTEX
8
RASTER
10
138.724
20
19.962
30
0
0
VERTEX
8
RASTER
10
138.276
20
19.962
30
0
0
SEQEND
8
RASTER
0
POLYLINE
8
RASTER
66
1
70
1
0
VERTEX
8
RASTER
10
141.122
20
19.962
30
0
0
VERTEX
8
RASTER
10
141.122
20
12.238
30
0
0
VERTEX
8
RASTER
10
141.57
20
12.238
30
0
0
VERTEX
8
RASTER
10
141.57
20
19.962
30
0
0
VERTEX
8
RASTER
10
141.122
20
19.962
30
0
0
SEQEND
8
RASTER
0
POLYLINE
8
RASTER
66
1
70
1
0
VERTEX
8
RASTER
10
143.968
20
19.962
30
0
0
VERTEX
8
RASTER
10
143.968
20
12.238
30
0
0
VERTEX
8
RASTER
10
144.415
20
12.238
30
0
0
VERTEX
8
RASTER
10
144.415
20
19.962
30
0
0
VERTEX
8
RASTER
10
143.968
20
19.962
30
0
0
SEQEND
8
RASTER
0
POLYLINE
8
RASTER
66
1
70
1
0
VERTEX
8
RASTER
10
146.814
20
19.962
30
0
0
VERTEX
8
RASTER
10
146.814
20
12.238
30
0
0
VERTEX
8
RASTER
10
147.261
20
12.238
30
0
0
VERTEX
8
RASTER
10
147.261
20
19.962
30
0
0
VERTEX
8
RASTER
10
146.814
20
19.962
30
0
0
SEQEND
8
RASTER
0
CIRCLE
8
RASTER
10
138.5
20
18.295
30
0
40
0.549
0
CIRCLE
8
RASTER
10
138.5
20
18.295
30
0
40
0.305
0
POLYLINE
8
RASTER
66
1
70
1
0
VERTEX
8
RASTER
10
138.256
20
17.564
30
0
0
VERTEX
8
RASTER
10
138.256
20
16.954
30
0
0
VERTEX
8
RASTER
10
137.158
20
16.954
30
0
0
VERTEX
8
RASTER
10
137.158
20
16.588
30
0
0
VERTEX
8
RASTER
10
138.256
20
16.588
30
0
0
VERTEX
8
RASTER
10
138.256
20
14.88
30
0
0
VERTEX
8
RASTER
10
138.114
20
14.851
30
0
0
VERTEX
8
RASTER
10
137.964
20
14.856
30
0
0
VERTEX
8
RASTER
10
137.812
20
14.891
30
0
0
VERTEX
8
RASTER
10
137.661
20
14.957
30
0
0
VERTEX
8
RASTER
10
137.516
20
15.051
30
0
0
VERTEX
8
RASTER
10
137.381
20
15.172
30
0
0
VERTEX
8
RASTER
10
137.261
20
15.319
30
0
0
VERTEX
8
RASTER
10
137.158
20
15.49
30
0
0
VERTEX
8
RASTER
10
136.549
20
15.002
30
0
0
VERTEX
8
RASTER
10
136.667
20
14.649
30
0
0
VERTEX
8
RASTER
10
136.836
20
14.324
30
0
0
VERTEX
8
RASTER
10
137.048
20
14.033
30
0
0
VERTEX
8
RASTER
10
137.296
20
13.783
30
0
0
VERTEX
8
RASTER
10
137.572
20
13.578
30
0
0
VERTEX
8
RASTER
10
137.869
20
13.424
30
0
0
VERTEX
8
RASTER
10
138.181
20
13.328
30
0
0
VERTEX
8
RASTER
10
138.5
20
13.295
30
0
0
VERTEX
8
RASTER
10
138.819
20
13.328
30
0
0
VERTEX
8
RASTER
10
139.131
20
13.424
30
0
0
VERTEX
8
RASTER
10
139.428
20
13.578
30
0
0
VERTEX
8
RASTER
10
139.704
20
13.783
30
0
0
VERTEX
8
RASTER
10
139.952
20
14.033
30
0
0
VERTEX
8
RASTER
10
140.164
20
14.324
30
0
0
VERTEX
8
RASTER
10
140.333
20
14.649
30
0
0
VERTEX
8
RASTER
10
140.451
20
15.002
30
0
0
VERTEX
8
RASTER
10
139.842
20
15.49
30
0
0
VERTEX
8
RASTER
10
139.739
20
15.319
30
0
0
VERTEX
8
RASTER
10
139.619
20
15.172
30
0
0
VERTEX
8
RASTER
10
139.484
20
15.051
30
0
0
VERTEX
8
RASTER
10
139.339
20
14.957
30
0
0
VERTEX
8
RASTER
10
139.188
20
14.891
30
0
0
VERTEX
8
RASTER
10
139.036
20
14.856
30
0
0
VERTEX
8
RASTER
10
138.886
20
14.851
30
0
0
VERTEX
8
RASTER
10
138.744
20
14.88
30
0
0
VERTEX
8
RASTER
10
138.744
20
16.588
30
0
0
VERTEX
8
RASTER
10
139.842
20
16.588
30
0
0
VERTEX
8
RASTER
10
139.842
20
16.954
30
0
0
VERTEX
8
RASTER
10
138.744
20
16.954
30
0
0
VERTEX
8
RASTER
10
138.744
20
17.564
30
0
0
VERTEX
8
RASTER
10
138.256
20
17.564
30
0
0
SEQEND
8
RASTER
0
CIRCLE
8
RASTER
10
132.808
20
21.385
30
0
40
1.016
0
CIRCLE
8
RASTER
10
132.808
20
10.815
30
0
40
1.016
0
CIRCLE
8
RASTER
10
148.257
20
21.385
30
0
40
1.016
0
CIRCLE
8
RASTER
10
148.257
20
10.815
30
0
40
1.016
0
POLYLINE
8
CUT
66
1
70
1
0
VERTEX
8
CUT
10
157
20
26.2
30
0
0
VERTEX
8
CUT
10
157.031
20
26.669
30
0
0
VERTEX
8
CUT
10
157.125
20
27.075
30
0
0
VERTEX
8
CUT
10
157.281
20
27.419
30
0
0
VERTEX
8
CUT
10
157.5
20
27.7
30
0
0
VERTEX
8
CUT
10
157.781
20
27.919
30
0
0
VERTEX
8
CUT
10
158.125
20
28.075
30
0
0
VERTEX
8
CUT
10
158.531
20
28.169
30
0
0
VERTEX
8
CUT
10
159
20
28.2
30
0
0
VERTEX
8
CUT
10
179.2
20
28.2
30
0
0
VERTEX
8
CUT
10
179.669
20
28.169
30
0
0
VERTEX
8
CUT
10
180.075
20
28.075
30
0
0
VERTEX
8
CUT
10
180.419
20
27.919
30
0
0
VERTEX
8
CUT
10
180.7
20
27.7
30
0
0
VERTEX
8
CUT
10
180.919
20
27.419
30
0
0
VERTEX
8
CUT
10
181.075
20
27.075
30
0
0
VERTEX
8
CUT
10
181.169
20
26.669
30
0
0
VERTEX
8
CUT
10
181.2
20
26.2
30
0
0
VERTEX
8
CUT
10
181.2
20
17.6
30
0
0
VERTEX
8
CUT
10
183.6
20
18.2
30
0
0
VERTEX
8
CUT
10
183.6
20
14
30
0
0
VERTEX
8
CUT
10
181.2
20
14.6
30
0
0
VERTEX
8
CUT
10
181.2
20
6
30
0
0
VERTEX
8
CUT
10
181.169
20
5.531
30
0
0
VERTEX
8
CUT
10
181.075
20
5.125
30
0
0
VERTEX
8
CUT
10
180.919
20
4.781
30
0
0
VERTEX
8
CUT
10
180.7
20
4.5
30
0
0
VERTEX
8
CUT
10
180.419
20
4.281
30
0
0
VERTEX
8
CUT
10
180.075
20
4.125
30
0
0
VERTEX
8
CUT
10
179.669
20
4.031
30
0
0
VERTEX
8
CUT
10
179.2
20
4
30
0
0
VERTEX
8
CUT
10
159
20
4
30
0
0
VERTEX
8
CUT
10
158.531
20
4.031
30
0
0
VERTEX
8
CUT
10
158.125
20
4.125
30
0
0
VERTEX
8
CUT
10
157.781
20
4.281
30
0
0
VERTEX
8
CUT
10
157.5
20
4.5
30
0
0
VERTEX
8
CUT
10
157.281
20
4.781
30
0
0
VERTEX
8
CUT
10
157.125
20
5.125
30
0
0
VERTEX
8
CUT
10
157.031
20
5.531
30
0
0
VERTEX
8
CUT
10
157
20
6
30
0
0
SEQEND
8
CUT
0
POLYLINE
8
RASTER
66
1
70
1
0
VERTEX
8
RASTER
10
163.408
20
20.166
30
0
0
VERTEX
8
RASTER
10
163.415
20
20.261
30
0
0
VERTEX
8
RASTER
10
163.434
20
20.343
30
0
0
VERTEX
8
RASTER
10
163.465
20
20.413
30
0
0
VERTEX
8
RASTER
10
163.51
20
20.471
30
0
0
VERTEX
8
RASTER
10
163.567
20
20.515
30
0
0
VERTEX
8
RASTER
10
163.637
20
20.547
30
0
0
VERTEX
8
RASTER
10
163.719
20
20.566
30
0
0
VERTEX
8
RASTER
10
163.815
20
20.572
30
0
0
VERTEX
8
RASTER
10
178.451
20
20.572
30
0
0
VERTEX
8
RASTER
10
178.546
20
20.566
30
0
0
VERTEX
8
RASTER
10
178.629
20
20.547
30
0
0
VERTEX
8
RASTER
10
178.699
20
20.515
30
0
0
VERTEX
8
RASTER
10
178.756
20
20.471
30
0
0
VERTEX
8
RASTER
10
178.8
20
20.413
30
0
0
VERTEX
8
RASTER
10
178.832
20
20.343
30
0
0
VERTEX
8
RASTER
10
178.851
20
20.261
30
0
0
VERTEX
8
RASTER
10
178.857
20
20.166
30
0
0
VERTEX
8
RASTER
10
178.857
20
12.034
30
0
0
VERTEX
8
RASTER
10
178.851
20
11.939
30
0
0
VERTEX
8
RASTER
10
178.832
20
11.857
30
0
0
VERTEX
8
RASTER
10
178.8
20
11.787
30
0
0
VERTEX
8
RASTER
10
178.756
20
11.729
30
0
0
VERTEX
8
RASTER
10
178.699
20
11.685
30
0
0
VERTEX
8
RASTER
10
178.629
20
11.653
30
0
0
VERTEX
8
RASTER
10
178.546
20
11.634
30
0
0
VERTEX
8
RASTER
10
178.451
20
11.628
30
0
0
VERTEX
8
RASTER
10
163.815
20
11.628
30
0
0
VERTEX
8
RASTER
10
163.719
20
11.634
30
0
0
VERTEX
8
RASTER
10
163.637
20
11.653
30
0
0
VERTEX
8
RASTER
10
163.567
20
11.685
30
0
0
VERTEX
8
RASTER
10
163.51
20
11.729
30
0
0
VERTEX
8
RASTER
10
163.465
20
11.787
30
0
0
VERTEX
8
RASTER
10
163.434
20
11.857
30
0
0
VERTEX
8
RASTER
10
163.415
20
11.939
30
0
0
VERTEX
8
RASTER
10
163.408
20
12.034
30
0
0
SEQEND
8
RASTER
0
POLYLINE
8
RASTER
66
1
70
1
0
VERTEX
8
RASTER
10
166.03
20
19.962
30
0
0
VERTEX
8
RASTER
10
166.03
20
12.238
30
0
0
VERTEX
8
RASTER
10
166.478
20
12.238
30
0
0
VERTEX
8
RASTER
10
166.478
20
19.962
30
0
0
VERTEX
8
RASTER
10
166.03
20
19.962
30
0
0
SEQEND
8
RASTER
0
POLYLINE
8
RASTER
66
1
70
1
0
VERTEX
8
RASTER
10
168.876
20
19.962
30
0
0
VERTEX
8
RASTER
10
168.876
20
12.238
30
0
0
VERTEX
8
RASTER
10
169.324
20
12.238
30
0
0
VERTEX
8
RASTER
10
169.324
20
19.962
30
0
0
VERTEX
8
RASTER
10
168.876
20
19.962
30
0
0
SEQEND
8
RASTER
0
POLYLINE
8
RASTER
66
1
70
1
0
VERTEX
8
RASTER
10
171.722
20
19.962
30
0
0
VERTEX
8
RASTER
10
171.722
20
12.238
30
0
0
VERTEX
8
RASTER
10
172.17
20
12.238
30
0
0
VERTEX
8
RASTER
10
172.17
20
19.962
30
0
0
VERTEX
8
RASTER
10
171.722
20
19.962
30
0
0
SEQEND
8
RASTER
0
POLYLINE
8
RASTER
66
1
70
1
0
VERTEX
8
RASTER
10
174.568
20
19.962
30
0
0
VERTEX
8
RASTER
10
174.568
20
12.238
30
0
0
VERTEX
8
RASTER
10
175.015
20
12.238
30
0
0
VERTEX
8
RASTER
10
175.015
20
19.962
30
0
0
VERTEX
8
RASTER
10
174.568
20
19.962
30
0
0
SEQEND
8
RASTER
0
POLYLINE
8
RASTER
66
1
70
1
0
VERTEX
8
RASTER
10
177.414
20
19.962
30
0
0
VERTEX
8
RASTER
10
177.414
20
12.238
30
0
0
VERTEX
8
RASTER
10
177.861
20
12.238
30
0
0
VERTEX
8
RASTER
10
177.861
20
19.962
30
0
0
VERTEX
8
RASTER
10
177.414
20
19.962
30
0
0
SEQEND
8
RASTER
0
CIRCLE
8
RASTER
10
169.1
20
18.295
30
0
40
0.549
0
CIRCLE
8
RASTER
10
169.1
20
18.295
30
0
40
0.305
0
POLYLINE
8
RASTER
66
1
70
1
0
VERTEX
8
RASTER
10
168.856
20
17.564
30
0
0
VERTEX
8
RASTER
10
168.856
20
16.954
30
0
0
VERTEX
8
RASTER
10
167.758
20
16.954
30
0
0
VERTEX
8
RASTER
10
167.758
20
16.588
30
0
0
VERTEX
8
RASTER
10
168.856
20
16.588
30
0
0
VERTEX
8
RASTER
10
168.856
20
14.88
30
0
0
VERTEX
8
RASTER
10
168.714
20
14.851
30
0
0
VERTEX
8
RASTER
10
168.564
20
14.856
30
0
0
VERTEX
8
RASTER
10
168.412
20
14.891
30
0
0
VERTEX
8
RASTER
10
168.261
20
14.957
30
0
0
VERTEX
8
RASTER
10
168.116
20
15.051
30
0
0
VERTEX
8
RASTER
10
167.981
20
15.172
30
0
0
VERTEX
8
RASTER
10
167.861
20
15.319
30
0
0
VERTEX
8
RASTER
10
167.758
20
15.49
30
0
0
VERTEX
8
RASTER
10
167.149
20
15.002
30
0
0
VERTEX
8
RASTER
10
167.267
20
14.649
30
0
0
VERTEX
8
RASTER
10
167.436
20
14.324
30
0
0
VERTEX
8
RASTER
10
167.648
20
14.033
30
0
0
VERTEX
8
RASTER
10
167.896
20
13.783
30
0
0
VERTEX
8
RASTER
10
168.172
20
13.578
30
0
0
VERTEX
8
RASTER
10
168.469
20
13.424
30
0
0
VERTEX
8
RASTER
10
168.781
20
13.328
30
0
0
VERTEX
8
RASTER
10
169.1
20
13.295
30
0
0
VERTEX
8
RASTER
10
169.419
20
13.328
30
0
0
VERTEX
8
RASTER
10
169.731
20
13.424
30
0
0
VERTEX
8
RASTER
10
170.028
20
13.578
30
0
0
VERTEX
8
RASTER
10
170.304
20
13.783
30
0
0
VERTEX
8
RASTER
10
170.552
20
14.033
30
0
0
VERTEX
8
RASTER
10
170.764
20
14.324
30
0
0
VERTEX
8
RASTER
10
170.933
20
14.649
30
0
0
VERTEX
8
RASTER
10
171.051
20
15.002
30
0
0
VERTEX
8
RASTER
10
170.442
20
15.49
30
0
0
VERTEX
8
RASTER
10
170.339
20
15.319
30
0
0
VERTEX
8
RASTER
10
170.219
20
15.172
30
0
0
VERTEX
8
RASTER
10
170.084
20
15.051
30
0
0
VERTEX
8
RASTER
10
169.939
20
14.957
30
0
0
VERTEX
8
RASTER
10
169.788
20
14.891
30
0
0
VERTEX
8
RASTER
10
169.636
20
14.856
30
0
0
VERTEX
8
RASTER
10
169.486
20
14.851
30
0
0
VERTEX
8
RASTER
10
169.344
20
14.88
30
0
0
VERTEX
8
RASTER
10
169.344
20
16.588
30
0
0
VERTEX
8
RASTER
10
170.442
20
16.588
30
0
0
VERTEX
8
RASTER
10
170.442
20
16.954
30
0
0
VERTEX
8
RASTER
10
169.344
20
16.954
30
0
0
VERTEX
8
RASTER
10
169.344
20
17.564
30
0
0
VERTEX
8
RASTER
10
168.856
20
17.564
30
0
0
SEQEND
8
RASTER
0
CIRCLE
8
RASTER
10
163.408
20
21.385
30
0
40
1.016
0
CIRCLE
8
RASTER
10
163.408
20
10.815
30
0
40
1.016
0
CIRCLE
8
RASTER
10
178.857
20
21.385
30
0
40
1.016
0
CIRCLE
8
RASTER
10
178.857
20
10.815
30
0
40
1.016
0
POLYLINE
8
CUT
66
1
70
1
0
VERTEX
8
CUT
10
187.6
20
26.2
30
0
0
VERTEX
8
CUT
10
187.631
20
26.669
30
0
0
VERTEX
8
CUT
10
187.725
20
27.075
30
0
0
VERTEX
8
CUT
10
187.881
20
27.419
30
0
0
VERTEX
8
CUT
10
188.1
20
27.7
30
0
0
VERTEX
8
CUT
10
188.381
20
27.919
30
0
0
VERTEX
8
CUT
10
188.725
20
28.075
30
0
0
VERTEX
8
CUT
10
189.131
20
28.169
30
0
0
VERTEX
8
CUT
10
189.6
20
28.2
30
0
0
VERTEX
8
CUT
10
209.8
20
28.2
30
0
0
VERTEX
8
CUT
10
210.269
20
28.169
30
0
0
VERTEX
8
CUT
10
210.675
20
28.075
30
0
0
VERTEX
8
CUT
10
211.019
20
27.919
30
0
0
VERTEX
8
CUT
10
211.3
20
27.7
30
0
0
VERTEX
8
CUT
10
211.519
20
27.419
30
0
0
VERTEX
8
CUT
10
211.675
20
27.075
30
0
0
VERTEX
8
CUT
10
211.769
20
26.669
30
0
0
VERTEX
8
CUT
10
211.8
20
26.2
30
0
0
VERTEX
8
CUT
10
211.8
20
17.6
30
0
0
VERTEX
8
CUT
10
214.2
20
18.2
30
0
0
VERTEX
8
CUT
10
214.2
20
14
30
0
0
VERTEX
8
CUT
10
211.8
20
14.6
30
0
0
VERTEX
8
CUT
10
211.8
20
6
30
0
0
VERTEX
8
CUT
10
211.769
20
5.531
30
0
0
VERTEX
8
CUT
10
211.675
20
5.125
30
0
0
VERTEX
8
CUT
10
211.519
20
4.781
30
0
0
VERTEX
8
CUT
10
211.3
20
4.5
30
0
0
VERTEX
8
CUT
10
211.019
20
4.281
30
0
0
VERTEX
8
CUT
10
210.675
20
4.125
30
0
0
VERTEX
8
CUT
10
210.269
20
4.031
30
0
0
VERTEX
8
CUT
10
209.8
20
4
30
0
0
VERTEX
8
CUT
10
189.6
20
4
30
0
0
VERTEX
8
CUT
10
189.131
20
4.031
30
0
0
VERTEX
8
CUT
10
188.725
20
4.125
30
0
0
VERTEX
8
CUT
10
188.381
20
4.281
30
0
0
VERTEX
8
CUT
10
188.1
20
4.5
30
0
0
VERTEX
8
CUT
10
187.881
20
4.781
30
0
0
VERTEX
8
CUT
10
187.725
20
5.125
30
0
0
VERTEX
8
CUT
10
187.631
20
5.531
30
0
0
VERTEX
8
CUT
10
187.6
20
6
30
0
0
SEQEND
8
CUT
0
POLYLINE
8
RASTER
66
1
70
1
0
VERTEX
8
RASTER
10
194.008
20
20.166
30
0
0
VERTEX
8
RASTER
10
194.015
20
20.261
30
0
0
VERTEX
8
RASTER
10
194.034
20
20.343
30
0
0
VERTEX
8
RASTER
10
194.065
20
20.413
30
0
0
VERTEX
8
RASTER
10
194.11
20
20.471
30
0
0
VERTEX
8
RASTER
10
194.167
20
20.515
30
0
0
VERTEX
8
RASTER
10
194.237
20
20.547
30
0
0
VERTEX
8
RASTER
10
194.319
20
20.566
30
0
0
VERTEX
8
RASTER
10
194.415
20
20.572
30
0
0
VERTEX
8
RASTER
10
209.051
20
20.572
30
0
0
VERTEX
8
RASTER
10
209.146
20
20.566
30
0
0
VERTEX
8
RASTER
10
209.229
20
20.547
30
0
0
VERTEX
8
RASTER
10
209.299
20
20.515
30
0
0
VERTEX
8
RASTER
10
209.356
20
20.471
30
0
0
VERTEX
8
RASTER
10
209.4
20
20.413
30
0
0
VERTEX
8
RASTER
10
209.432
20
20.343
30
0
0
VERTEX
8
RASTER
10
209.451
20
20.261
30
0
0
VERTEX
8
RASTER
10
209.457
20
20.166
30
0
0
VERTEX
8
RASTER
10
209.457
20
12.034
30
0
0
VERTEX
8
RASTER
10
209.451
20
11.939
30
0
0
VERTEX
8
RASTER
10
209.432
20
11.857
30
0
0
VERTEX
8
RASTER
10
209.4
20
11.787
30
0
0
VERTEX
8
RASTER
10
209.356
20
11.729
30
0
0
VERTEX
8
RASTER
10
209.299
20
11.685
30
0
0
VERTEX
8
RASTER
10
209.229
20
11.653
30
0
0
VERTEX
8
RASTER
10
209.146
20
11.634
30
0
0
VERTEX
8
RASTER
10
209.051
20
11.628
30
0
0
VERTEX
8
RASTER
10
194.415
20
11.628
30
0
0
VERTEX
8
RASTER
10
194.319
20
11.634
30
0
0
VERTEX
8
RASTER
10
194.237
20
11.653
30
0
0
VERTEX
8
RASTER
10
194.167
20
11.685
30
0
0
VERTEX
8
RASTER
10
194.11
20
11.729
30
0
0
VERTEX
8
RASTER
10
194.065
20
11.787
30
0
0
VERTEX
8
RASTER
10
194.034
20
11.857
30
0
0
VERTEX
8
RASTER
10
194.015
20
11.939
30
0
0
VERTEX
8
RASTER
10
194.008
20
12.034
30
0
0
SEQEND
8
RASTER
0
POLYLINE
8
RASTER
66
1
70
1
0
VERTEX
8
RASTER
10
196.63
20
19.962
30
0
0
VERTEX
8
RASTER
10
196.63
20
12.238
30
0
0
VERTEX
8
RASTER
10
197.078
20
12.238
30
0
0
VERTEX
8
RASTER
10
197.078
20
19.962
30
0
0
VERTEX
8
RASTER
10
196.63
20
19.962
30
0
0
SEQEND
8
RASTER
0
POLYLINE
8
RASTER
66
1
70
1
0
VERTEX
8
RASTER
10
199.476
20
19.962
30
0
0
VERTEX
8
RASTER
10
199.476
20
12.238
30
0
0
VERTEX
8
RASTER
10
199.924
20
12.238
30
0
0
VERTEX
8
RASTER
10
199.924
20
19.962
30
0
0
VERTEX
8
RASTER
10
199.476
20
19.962
30
0
0
SEQEND
8
RASTER
0
POLYLINE
8
RASTER
66
1
70
1
0
VERTEX
8
RASTER
10
202.322
20
19.962
30
0
0
VERTEX
8
RASTER
10
202.322
20
12.238
30
0
0
VERTEX
8
RASTER
10
202.77
20
12.238
30
0
0
VERTEX
8
RASTER
10
202.77
20
19.962
30
0
0
VERTEX
8
RASTER
10
202.322
20
19.962
30
0
0
SEQEND
8
RASTER
0
POLYLINE
8
RASTER
66
1
70
1
0
VERTEX
8
RASTER
10
205.168
20
19.962
30
0
0
VERTEX
8
RASTER
10
205.168
20
12.238
30
0
0
VERTEX
8
RASTER
10
205.615
20
12.238
30
0
0
VERTEX
8
RASTER
10
205.615
20
19.962
30
0
0
VERTEX
8
RASTER
10
205.168
20
19.962
30
0
0
SEQEND
8
RASTER
0
POLYLINE
8
RASTER
66
1
70
1
0
VERTEX
8
RASTER
10
208.014
20
19.962
30
0
0
VERTEX
8
RASTER
10
208.014
20
12.238
30
0
0
VERTEX
8
RASTER
10
208.461
20
12.238
30
0
0
VERTEX
8
RASTER
10
208.461
20
19.962
30
0
0
VERTEX
8
RASTER
10
208.014
20
19.962
30
0
0
SEQEND
8
RASTER
0
CIRCLE
8
RASTER
10
199.7
20
18.295
30
0
40
0.549
0
CIRCLE
8
RASTER
10
199.7
20
18.295
30
0
40
0.305
0
POLYLINE
8
RASTER
66
1
70
1
0
VERTEX
8
RASTER
10
199.456
20
17.564
30
0
0
VERTEX
8
RASTER
10
199.456
20
16.954
30
0
0
VERTEX
8
RASTER
10
198.358
20
16.954
30
0
0
VERTEX
8
RASTER
10
198.358
20
16.588
30
0
0
VERTEX
8
RASTER
10
199.456
20
16.588
30
0
0
VERTEX
8
RASTER
10
199.456
20
14.88
30
0
0
VERTEX
8
RASTER
10
199.314
20
14.851
30
0
0
VERTEX
8
RASTER
10
199.164
20
14.856
30
0
0
VERTEX
8
RASTER
10
199.012
20
14.891
30
0
0
VERTEX
8
RASTER
10
198.861
20
14.957
30
0
0
VERTEX
8
RASTER
10
198.716
20
15.051
30
0
0
VERTEX
8
RASTER
10
198.581
20
15.172
30
0
0
VERTEX
8
RASTER
10
198.461
20
15.319
30
0
0
VERTEX
8
RASTER
10
198.358
20
15.49
30
0
0
VERTEX
8
RASTER
10
197.749
20
15.002
30
0
0
VERTEX
8
RASTER
10
197.867
20
14.649
30
0
0
VERTEX
8
RASTER
10
198.036
20
14.324
30
0
0
VERTEX
8
RASTER
10
198.248
20
14.033
30
0
0
VERTEX
8
RASTER
10
198.496
20
13.783
30
0
0
VERTEX
8
RASTER
10
198.772
20
13.578
30
0
0
VERTEX
8
RASTER
10
199.069
20
13.424
30
0
0
VERTEX
8
RASTER
10
199.381
20
13.328
30
0
0
VERTEX
8
RASTER
10
199.7
20
13.295
30
0
0
VERTEX
8
RASTER
10
200.019
20
13.328
30
0
0
VERTEX
8
RASTER
10
200.331
20
13.424
30
0
0
VERTEX
8
RASTER
10
200.628
20
13.578
30
0
0
VERTEX
8
RASTER
10
200.904
20
13.783
30
0
0
VERTEX
8
RASTER
10
201.152
20
14.033
30
0
0
VERTEX
8
RASTER
10
201.364
20
14.324
30
0
0
VERTEX
8
RASTER
10
201.533
20
14.649
30
0
0
VERTEX
8
RASTER
10
201.651
20
15.002
30
0
0
VERTEX
8
RASTER
10
201.042
20
15.49
30
0
0
VERTEX
8
RASTER
10
200.939
20
15.319
30
0
0
VERTEX
8
RASTER
10
200.819
20
15.172
30
0
0
VERTEX
8
RASTER
10
200.684
20
15.051
30
0
0
VERTEX
8
RASTER
10
200.539
20
14.957
30
0
0
VERTEX
8
RASTER
10
200.388
20
14.891
30
0
0
VERTEX
8
RASTER
10
200.236
20
14.856
30
0
0
VERTEX
8
RASTER
10
200.086
20
14.851
30
0
0
VERTEX
8
RASTER
10
199.944
20
14.88
30
0
0
VERTEX
8
RASTER
10
199.944
20
16.588
30
0
0
VERTEX
8
RASTER
10
201.042
20
16.588
30
0
0
VERTEX
8
RASTER
10
201.042
20
16.954
30
0
0
VERTEX
8
RASTER
10
199.944
20
16.954
30
0
0
VERTEX
8
RASTER
10
199.944
20
17.564
30
0
0
VERTEX
8
RASTER
10
199.456
20
17.564
30
0
0
SEQEND
8
RASTER
0
CIRCLE
8
RASTER
10
194.008
20
21.385
30
0
40
1.016
0
CIRCLE
8
RASTER
10
194.008
20
10.815
30
0
40
1.016
0
CIRCLE
8
RASTER
10
209.457
20
21.385
30
0
40
1.016
0
CIRCLE
8
RASTER
10
209.457
20
10.815
30
0
40
1.016
0
ENDSEC
0
EOF
