0
SECTION
2
HEADER
9
$ACADVER
1
AC1009
9
$EXTMIN
10
0
20
0
9
$EXTMAX
10
218.9
20
32.2
0
ENDSEC
0
SECTION
2
TABLES
0
TABLE
2
LAYER
70
2
0
LAYER
2
CUT
70
0
62
1
6
CONTINUOUS
0
LAYER
2
RASTER
70
0
62
7
6
CONTINUOUS
0
ENDTAB
0
ENDSEC
0
SECTION
2
ENTITIES
0
POLYLINE
8
CUT
66
1
70
1
0
VERTEX
8
CUT
10
4
20
26.2
30
0
0
VERTEX
8
CUT
10
4.031
20
26.669
30
0
0
VERTEX
8
CUT
10
4.125
20
27.075
30
0
0
VERTEX
8
CUT
10
4.281
20
27.419
30
0
0
VERTEX
8
CUT
10
4.5
20
27.7
30
0
0
VERTEX
8
CUT
10
4.781
20
27.919
30
0
0
VERTEX
8
CUT
10
5.125
20
28.075
30
0
0
VERTEX
8
CUT
10
5.531
20
28.169
30
0
0
VERTEX
8
CUT
10
6
20
28.2
30
0
0
VERTEX
8
CUT
10
26.2
20
28.2
30
0
0
VERTEX
8
CUT
10
26.669
20
28.169
30
0
0
VERTEX
8
CUT
10
27.075
20
28.075
30
0
0
VERTEX
8
CUT
10
27.419
20
27.919
30
0
0
VERTEX
8
CUT
10
27.7
20
27.7
30
0
0
VERTEX
8
CUT
10
27.919
20
27.419
30
0
0
VERTEX
8
CUT
10
28.075
20
27.075
30
0
0
VERTEX
8
CUT
10
28.169
20
26.669
30
0
0
VERTEX
8
CUT
10
28.2
20
26.2
30
0
0
VERTEX
8
CUT
10
28.2
20
19.1
30
0
0
VERTEX
8
CUT
10
30.7
20
19.1
30
0
0
VERTEX
8
CUT
10
30.7
20
13.1
30
0
0
VERTEX
8
CUT
10
28.2
20
13.1
30
0
0
VERTEX
8
CUT
10
28.2
20
6
30
0
0
VERTEX
8
CUT
10
28.169
20
5.531
30
0
0
VERTEX
8
CUT
10
28.075
20
5.125
30
0
0
VERTEX
8
CUT
10
27.919
20
4.781
30
0
0
VERTEX
8
CUT
10
27.7
20
4.5
30
0
0
VERTEX
8
CUT
10
27.419
20
4.281
30
0
0
VERTEX
8
CUT
10
27.075
20
4.125
30
0
0
VERTEX
8
CUT
10
26.669
20
4.031
30
0
0
VERTEX
8
CUT
10
26.2
20
4
30
0
0
VERTEX
8
CUT
10
6
20
4
30
0
0
VERTEX
8
CUT
10
5.531
20
4.031
30
0
0
VERTEX
8
CUT
10
5.125
20
4.125
30
0
0
VERTEX
8
CUT
10
4.781
20
4.281
30
0
0
VERTEX
8
CUT
10
4.5
20
4.5
30
0
0
VERTEX
8
CUT
10
4.281
20
4.781
30
0
0
VERTEX
8
CUT
10
4.125
20
5.125
30
0
0
VERTEX
8
CUT
10
4.031
20
5.531
30
0
0
VERTEX
8
CUT
10
4
20
6
30
0
0
SEQEND
8
CUT
0
POLYLINE
8
RASTER
66
1
70
1
0
VERTEX
8
RASTER
10
12.228
20
19.1
30
0
0
VERTEX
8
RASTER
10
30.45
20
19.1
30
0
0
VERTEX
8
RASTER
10
30.45
20
13.1
30
0
0
VERTEX
8
RASTER
10
12.228
20
13.1
30
0
0
SEQEND
8
RASTER
0
POLYLINE
8
RASTER
66
1
70
1
0
VERTEX
8
RASTER
10
13.778
20
18.6
30
0
0
VERTEX
8
RASTER
10
13.778
20
13.6
30
0
0
VERTEX
8
RASTER
10
14.478
20
13.6
30
0
0
VERTEX
8
RASTER
10
14.478
20
18.6
30
0
0
VERTEX
8
RASTER
10
13.778
20
18.6
30
0
0
SEQEND
8
RASTER
0
POLYLINE
8
RASTER
66
1
70
1
0
VERTEX
8
RASTER
10
15.678
20
18.6
30
0
0
VERTEX
8
RASTER
10
15.678
20
13.6
30
0
0
VERTEX
8
RASTER
10
16.378
20
13.6
30
0
0
VERTEX
8
RASTER
10
16.378
20
18.6
30
0
0
VERTEX
8
RASTER
10
15.678
20
18.6
30
0
0
SEQEND
8
RASTER
0
POLYLINE
8
RASTER
66
1
70
1
0
VERTEX
8
RASTER
10
17.578
20
18.6
30
0
0
VERTEX
8
RASTER
10
17.578
20
13.6
30
0
0
VERTEX
8
RASTER
10
18.278
20
13.6
30
0
0
VERTEX
8
RASTER
10
18.278
20
18.6
30
0
0
VERTEX
8
RASTER
10
17.578
20
18.6
30
0
0
SEQEND
8
RASTER
0
POLYLINE
8
RASTER
66
1
70
1
0
VERTEX
8
RASTER
10
19.478
20
18.6
30
0
0
VERTEX
8
RASTER
10
19.478
20
13.6
30
0
0
VERTEX
8
RASTER
10
20.178
20
13.6
30
0
0
VERTEX
8
RASTER
10
20.178
20
18.6
30
0
0
VERTEX
8
RASTER
10
19.478
20
18.6
30
0
0
SEQEND
8
RASTER
0
POLYLINE
8
RASTER
66
1
70
1
0
VERTEX
8
RASTER
10
21.378
20
18.6
30
0
0
VERTEX
8
RASTER
10
21.378
20
13.6
30
0
0
VERTEX
8
RASTER
10
22.078
20
13.6
30
0
0
VERTEX
8
RASTER
10
22.078
20
18.6
30
0
0
VERTEX
8
RASTER
10
21.378
20
18.6
30
0
0
SEQEND
8
RASTER
0
POLYLINE
8
RASTER
66
1
70
1
0
VERTEX
8
RASTER
10
23.278
20
18.6
30
0
0
VERTEX
8
RASTER
10
23.278
20
13.6
30
0
0
VERTEX
8
RASTER
10
23.978
20
13.6
30
0
0
VERTEX
8
RASTER
10
23.978
20
18.6
30
0
0
VERTEX
8
RASTER
10
23.278
20
18.6
30
0
0
SEQEND
8
RASTER
0
POLYLINE
8
RASTER
66
1
70
1
0
VERTEX
8
RASTER
10
25.178
20
18.6
30
0
0
VERTEX
8
RASTER
10
25.178
20
13.6
30
0
0
VERTEX
8
RASTER
10
25.878
20
13.6
30
0
0
VERTEX
8
RASTER
10
25.878
20
18.6
30
0
0
VERTEX
8
RASTER
10
25.178
20
18.6
30
0
0
SEQEND
8
RASTER
0
POLYLINE
8
RASTER
66
1
70
1
0
VERTEX
8
RASTER
10
27.078
20
18.6
30
0
0
VERTEX
8
RASTER
10
27.078
20
13.6
30
0
0
VERTEX
8
RASTER
10
27.778
20
13.6
30
0
0
VERTEX
8
RASTER
10
27.778
20
18.6
30
0
0
VERTEX
8
RASTER
10
27.078
20
18.6
30
0
0
SEQEND
8
RASTER
0
POLYLINE
8
RASTER
66
1
70
1
0
VERTEX
8
RASTER
10
28.978
20
18.6
30
0
0
VERTEX
8
RASTER
10
28.978
20
13.6
30
0
0
VERTEX
8
RASTER
10
29.678
20
13.6
30
0
0
VERTEX
8
RASTER
10
29.678
20
18.6
30
0
0
VERTEX
8
RASTER
10
28.978
20
18.6
30
0
0
SEQEND
8
RASTER
0
CIRCLE
8
RASTER
10
12.828
20
20.8
30
0
40
1.1
0
CIRCLE
8
RASTER
10
12.828
20
11.4
30
0
40
1.1
0
CIRCLE
8
RASTER
10
26.6
20
20.8
30
0
40
1.1
0
CIRCLE
8
RASTER
10
26.6
20
11.4
30
0
40
1.1
0
POLYLINE
8
CUT
66
1
70
1
0
VERTEX
8
CUT
10
34.7
20
26.2
30
0
0
VERTEX
8
CUT
10
34.731
20
26.669
30
0
0
VERTEX
8
CUT
10
34.825
20
27.075
30
0
0
VERTEX
8
CUT
10
34.981
20
27.419
30
0
0
VERTEX
8
CUT
10
35.2
20
27.7
30
0
0
VERTEX
8
CUT
10
35.481
20
27.919
30
0
0
VERTEX
8
CUT
10
35.825
20
28.075
30
0
0
VERTEX
8
CUT
10
36.231
20
28.169
30
0
0
VERTEX
8
CUT
10
36.7
20
28.2
30
0
0
VERTEX
8
CUT
10
56.9
20
28.2
30
0
0
VERTEX
8
CUT
10
57.369
20
28.169
30
0
0
VERTEX
8
CUT
10
57.775
20
28.075
30
0
0
VERTEX
8
CUT
10
58.119
20
27.919
30
0
0
VERTEX
8
CUT
10
58.4
20
27.7
30
0
0
VERTEX
8
CUT
10
58.619
20
27.419
30
0
0
VERTEX
8
CUT
10
58.775
20
27.075
30
0
0
VERTEX
8
CUT
10
58.869
20
26.669
30
0
0
VERTEX
8
CUT
10
58.9
20
26.2
30
0
0
VERTEX
8
CUT
10
58.9
20
19.1
30
0
0
VERTEX
8
CUT
10
61.4
20
19.1
30
0
0
VERTEX
8
CUT
10
61.4
20
13.1
30
0
0
VERTEX
8
CUT
10
58.9
20
13.1
30
0
0
VERTEX
8
CUT
10
58.9
20
6
30
0
0
VERTEX
8
CUT
10
58.869
20
5.531
30
0
0
VERTEX
8
CUT
10
58.775
20
5.125
30
0
0
VERTEX
8
CUT
10
58.619
20
4.781
30
0
0
VERTEX
8
CUT
10
58.4
20
4.5
30
0
0
VERTEX
8
CUT
10
58.119
20
4.281
30
0
0
VERTEX
8
CUT
10
57.775
20
4.125
30
0
0
VERTEX
8
CUT
10
57.369
20
4.031
30
0
0
VERTEX
8
CUT
10
56.9
20
4
30
0
0
VERTEX
8
CUT
10
36.7
20
4
30
0
0
VERTEX
8
CUT
10
36.231
20
4.031
30
0
0
VERTEX
8
CUT
10
35.825
20
4.125
30
0
0
VERTEX
8
CUT
10
35.481
20
4.281
30
0
0
VERTEX
8
CUT
10
35.2
20
4.5
30
0
0
VERTEX
8
CUT
10
34.981
20
4.781
30
0
0
VERTEX
8
CUT
10
34.825
20
5.125
30
0
0
VERTEX
8
CUT
10
34.731
20
5.531
30
0
0
VERTEX
8
CUT
10
34.7
20
6
30
0
0
SEQEND
8
CUT
0
POLYLINE
8
RASTER
66
1
70
1
0
VERTEX
8
RASTER
10
42.928
20
19.1
30
0
0
VERTEX
8
RASTER
10
61.15
20
19.1
30
0
0
VERTEX
8
RASTER
10
61.15
20
13.1
30
0
0
VERTEX
8
RASTER
10
42.928
20
13.1
30
0
0
SEQEND
8
RASTER
0
POLYLINE
8
RASTER
66
1
70
1
0
VERTEX
8
RASTER
10
44.478
20
18.6
30
0
0
VERTEX
8
RASTER
10
44.478
20
13.6
30
0
0
VERTEX
8
RASTER
10
45.178
20
13.6
30
0
0
VERTEX
8
RASTER
10
45.178
20
18.6
30
0
0
VERTEX
8
RASTER
10
44.478
20
18.6
30
0
0
SEQEND
8
RASTER
0
POLYLINE
8
RASTER
66
1
70
1
0
VERTEX
8
RASTER
10
46.378
20
18.6
30
0
0
VERTEX
8
RASTER
10
46.378
20
13.6
30
0
0
VERTEX
8
RASTER
10
47.078
20
13.6
30
0
0
VERTEX
8
RASTER
10
47.078
20
18.6
30
0
0
VERTEX
8
RASTER
10
46.378
20
18.6
30
0
0
SEQEND
8
RASTER
0
POLYLINE
8
RASTER
66
1
70
1
0
VERTEX
8
RASTER
10
48.278
20
18.6
30
0
0
VERTEX
8
RASTER
10
48.278
20
13.6
30
0
0
VERTEX
8
RASTER
10
48.978
20
13.6
30
0
0
VERTEX
8
RASTER
10
48.978
20
18.6
30
0
0
VERTEX
8
RASTER
10
48.278
20
18.6
30
0
0
SEQEND
8
RASTER
0
POLYLINE
8
RASTER
66
1
70
1
0
VERTEX
8
RASTER
10
50.178
20
18.6
30
0
0
VERTEX
8
RASTER
10
50.178
20
13.6
30
0
0
VERTEX
8
RASTER
10
50.878
20
13.6
30
0
0
VERTEX
8
RASTER
10
50.878
20
18.6
30
0
0
VERTEX
8
RASTER
10
50.178
20
18.6
30
0
0
SEQEND
8
RASTER
0
POLYLINE
8
RASTER
66
1
70
1
0
VERTEX
8
RASTER
10
52.078
20
18.6
30
0
0
VERTEX
8
RASTER
10
52.078
20
13.6
30
0
0
VERTEX
8
RASTER
10
52.778
20
13.6
30
0
0
VERTEX
8
RASTER
10
52.778
20
18.6
30
0
0
VERTEX
8
RASTER
10
52.078
20
18.6
30
0
0
SEQEND
8
RASTER
0
POLYLINE
8
RASTER
66
1
70
1
0
VERTEX
8
RASTER
10
53.978
20
18.6
30
0
0
VERTEX
8
RASTER
10
53.978
20
13.6
30
0
0
VERTEX
8
RASTER
10
54.678
20
13.6
30
0
0
VERTEX
8
RASTER
10
54.678
20
18.6
30
0
0
VERTEX
8
RASTER
10
53.978
20
18.6
30
0
0
SEQEND
8
RASTER
0
POLYLINE
8
RASTER
66
1
70
1
0
VERTEX
8
RASTER
10
55.878
20
18.6
30
0
0
VERTEX
8
RASTER
10
55.878
20
13.6
30
0
0
VERTEX
8
RASTER
10
56.578
20
13.6
30
0
0
VERTEX
8
RASTER
10
56.578
20
18.6
30
0
0
VERTEX
8
RASTER
10
55.878
20
18.6
30
0
0
SEQEND
8
RASTER
0
POLYLINE
8
RASTER
66
1
70
1
0
VERTEX
8
RASTER
10
57.778
20
18.6
30
0
0
VERTEX
8
RASTER
10
57.778
20
13.6
30
0
0
VERTEX
8
RASTER
10
58.478
20
13.6
30
0
0
VERTEX
8
RASTER
10
58.478
20
18.6
30
0
0
VERTEX
8
RASTER
10
57.778
20
18.6
30
0
0
SEQEND
8
RASTER
0
POLYLINE
8
RASTER
66
1
70
1
0
VERTEX
8
RASTER
10
59.678
20
18.6
30
0
0
VERTEX
8
RASTER
10
59.678
20
13.6
30
0
0
VERTEX
8
RASTER
10
60.378
20
13.6
30
0
0
VERTEX
8
RASTER
10
60.378
20
18.6
30
0
0
VERTEX
8
RASTER
10
59.678
20
18.6
30
0
0
SEQEND
8
RASTER
0
CIRCLE
8
RASTER
10
43.528
20
20.8
30
0
40
1.1
0
CIRCLE
8
RASTER
10
43.528
20
11.4
30
0
40
1.1
0
CIRCLE
8
RASTER
10
57.3
20
20.8
30
0
40
1.1
0
CIRCLE
8
RASTER
10
57.3
20
11.4
30
0
40
1.1
0
POLYLINE
8
CUT
66
1
70
1
0
VERTEX
8
CUT
10
65.4
20
26.2
30
0
0
VERTEX
8
CUT
10
65.431
20
26.669
30
0
0
VERTEX
8
CUT
10
65.525
20
27.075
30
0
0
VERTEX
8
CUT
10
65.681
20
27.419
30
0
0
VERTEX
8
CUT
10
65.9
20
27.7
30
0
0
VERTEX
8
CUT
10
66.181
20
27.919
30
0
0
VERTEX
8
CUT
10
66.525
20
28.075
30
0
0
VERTEX
8
CUT
10
66.931
20
28.169
30
0
0
VERTEX
8
CUT
10
67.4
20
28.2
30
0
0
VERTEX
8
CUT
10
87.6
20
28.2
30
0
0
VERTEX
8
CUT
10
88.069
20
28.169
30
0
0
VERTEX
8
CUT
10
88.475
20
28.075
30
0
0
VERTEX
8
CUT
10
88.819
20
27.919
30
0
0
VERTEX
8
CUT
10
89.1
20
27.7
30
0
0
VERTEX
8
CUT
10
89.319
20
27.419
30
0
0
VERTEX
8
CUT
10
89.475
20
27.075
30
0
0
VERTEX
8
CUT
10
89.569
20
26.669
30
0
0
VERTEX
8
CUT
10
89.6
20
26.2
30
0
0
VERTEX
8
CUT
10
89.6
20
19.1
30
0
0
VERTEX
8
CUT
10
92.1
20
19.1
30
0
0
VERTEX
8
CUT
10
92.1
20
13.1
30
0
0
VERTEX
8
CUT
10
89.6
20
13.1
30
0
0
VERTEX
8
CUT
10
89.6
20
6
30
0
0
VERTEX
8
CUT
10
89.569
20
5.531
30
0
0
VERTEX
8
CUT
10
89.475
20
5.125
30
0
0
VERTEX
8
CUT
10
89.319
20
4.781
30
0
0
VERTEX
8
CUT
10
89.1
20
4.5
30
0
0
VERTEX
8
CUT
10
88.819
20
4.281
30
0
0
VERTEX
8
CUT
10
88.475
20
4.125
30
0
0
VERTEX
8
CUT
10
88.069
20
4.031
30
0
0
VERTEX
8
CUT
10
87.6
20
4
30
0
0
VERTEX
8
CUT
10
67.4
20
4
30
0
0
VERTEX
8
CUT
10
66.931
20
4.031
30
0
0
VERTEX
8
CUT
10
66.525
20
4.125
30
0
0
VERTEX
8
CUT
10
66.181
20
4.281
30
0
0
VERTEX
8
CUT
10
65.9
20
4.5
30
0
0
VERTEX
8
CUT
10
65.681
20
4.781
30
0
0
VERTEX
8
CUT
10
65.525
20
5.125
30
0
0
VERTEX
8
CUT
10
65.431
20
5.531
30
0
0
VERTEX
8
CUT
10
65.4
20
6
30
0
0
SEQEND
8
CUT
0
POLYLINE
8
RASTER
66
1
70
1
0
VERTEX
8
RASTER
10
73.628
20
19.1
30
0
0
VERTEX
8
RASTER
10
91.85
20
19.1
30
0
0
VERTEX
8
RASTER
10
91.85
20
13.1
30
0
0
VERTEX
8
RASTER
10
73.628
20
13.1
30
0
0
SEQEND
8
RASTER
0
POLYLINE
8
RASTER
66
1
70
1
0
VERTEX
8
RASTER
10
75.178
20
18.6
30
0
0
VERTEX
8
RASTER
10
75.178
20
13.6
30
0
0
VERTEX
8
RASTER
10
75.878
20
13.6
30
0
0
VERTEX
8
RASTER
10
75.878
20
18.6
30
0
0
VERTEX
8
RASTER
10
75.178
20
18.6
30
0
0
SEQEND
8
RASTER
0
POLYLINE
8
RASTER
66
1
70
1
0
VERTEX
8
RASTER
10
77.078
20
18.6
30
0
0
VERTEX
8
RASTER
10
77.078
20
13.6
30
0
0
VERTEX
8
RASTER
10
77.778
20
13.6
30
0
0
VERTEX
8
RASTER
10
77.778
20
18.6
30
0
0
VERTEX
8
RASTER
10
77.078
20
18.6
30
0
0
SEQEND
8
RASTER
0
POLYLINE
8
RASTER
66
1
70
1
0
VERTEX
8
RASTER
10
78.978
20
18.6
30
0
0
VERTEX
8
RASTER
10
78.978
20
13.6
30
0
0
VERTEX
8
RASTER
10
79.678
20
13.6
30
0
0
VERTEX
8
RASTER
10
79.678
20
18.6
30
0
0
VERTEX
8
RASTER
10
78.978
20
18.6
30
0
0
SEQEND
8
RASTER
0
POLYLINE
8
RASTER
66
1
70
1
0
VERTEX
8
RASTER
10
80.878
20
18.6
30
0
0
VERTEX
8
RASTER
10
80.878
20
13.6
30
0
0
VERTEX
8
RASTER
10
81.578
20
13.6
30
0
0
VERTEX
8
RASTER
10
81.578
20
18.6
30
0
0
VERTEX
8
RASTER
10
80.878
20
18.6
30
0
0
SEQEND
8
RASTER
0
POLYLINE
8
RASTER
66
1
70
1
0
VERTEX
8
RASTER
10
82.778
20
18.6
30
0
0
VERTEX
8
RASTER
10
82.778
20
13.6
30
0
0
VERTEX
8
RASTER
10
83.478
20
13.6
30
0
0
VERTEX
8
RASTER
10
83.478
20
18.6
30
0
0
VERTEX
8
RASTER
10
82.778
20
18.6
30
0
0
SEQEND
8
RASTER
0
POLYLINE
8
RASTER
66
1
70
1
0
VERTEX
8
RASTER
10
84.678
20
18.6
30
0
0
VERTEX
8
RASTER
10
84.678
20
13.6
30
0
0
VERTEX
8
RASTER
10
85.378
20
13.6
30
0
0
VERTEX
8
RASTER
10
85.378
20
18.6
30
0
0
VERTEX
8
RASTER
10
84.678
20
18.6
30
0
0
SEQEND
8
RASTER
0
POLYLINE
8
RASTER
66
1
70
1
0
VERTEX
8
RASTER
10
86.578
20
18.6
30
0
0
VERTEX
8
RASTER
10
86.578
20
13.6
30
0
0
VERTEX
8
RASTER
10
87.278
20
13.6
30
0
0
VERTEX
8
RASTER
10
87.278
20
18.6
30
0
0
VERTEX
8
RASTER
10
86.578
20
18.6
30
0
0
SEQEND
8
RASTER
0
POLYLINE
8
RASTER
66
1
70
1
0
VERTEX
8
RASTER
10
88.478
20
18.6
30
0
0
VERTEX
8
RASTER
10
88.478
20
13.6
30
0
0
VERTEX
8
RASTER
10
89.178
20
13.6
30
0
0
VERTEX
8
RASTER
10
89.178
20
18.6
30
0
0
VERTEX
8
RASTER
10
88.478
20
18.6
30
0
0
SEQEND
8
RASTER
0
POLYLINE
8
RASTER
66
1
70
1
0
VERTEX
8
RASTER
10
90.378
20
18.6
30
0
0
VERTEX
8
RASTER
10
90.378
20
13.6
30
0
0
VERTEX
8
RASTER
10
91.078
20
13.6
30
0
0
VERTEX
8
RASTER
10
91.078
20
18.6
30
0
0
VERTEX
8
RASTER
10
90.378
20
18.6
30
0
0
SEQEND
8
RASTER
0
CIRCLE
8
RASTER
10
74.228
20
20.8
30
0
40
1.1
0
CIRCLE
8
RASTER
10
74.228
20
11.4
30
0
40
1.1
0
CIRCLE
8
RASTER
10
88
20
20.8
30
0
40
1.1
0
CIRCLE
8
RASTER
10
88
20
11.4
30
0
40
1.1
0
POLYLINE
8
CUT
66
1
70
1
0
VERTEX
8
CUT
10
96.1
20
26.2
30
0
0
VERTEX
8
CUT
10
96.131
20
26.669
30
0
0
VERTEX
8
CUT
10
96.225
20
27.075
30
0
0
VERTEX
8
CUT
10
96.381
20
27.419
30
0
0
VERTEX
8
CUT
10
96.6
20
27.7
30
0
0
VERTEX
8
CUT
10
96.881
20
27.919
30
0
0
VERTEX
8
CUT
10
97.225
20
28.075
30
0
0
VERTEX
8
CUT
10
97.631
20
28.169
30
0
0
VERTEX
8
CUT
10
98.1
20
28.2
30
0
0
VERTEX
8
CUT
10
118.3
20
28.2
30
0
0
VERTEX
8
CUT
10
118.769
20
28.169
30
0
0
VERTEX
8
CUT
10
119.175
20
28.075
30
0
0
VERTEX
8
CUT
10
119.519
20
27.919
30
0
0
VERTEX
8
CUT
10
119.8
20
27.7
30
0
0
VERTEX
8
CUT
10
120.019
20
27.419
30
0
0
VERTEX
8
CUT
10
120.175
20
27.075
30
0
0
VERTEX
8
CUT
10
120.269
20
26.669
30
0
0
VERTEX
8
CUT
10
120.3
20
26.2
30
0
0
VERTEX
8
CUT
10
120.3
20
19.1
30
0
0
VERTEX
8
CUT
10
122.8
20
19.1
30
0
0
VERTEX
8
CUT
10
122.8
20
13.1
30
0
0
VERTEX
8
CUT
10
120.3
20
13.1
30
0
0
VERTEX
8
CUT
10
120.3
20
6
30
0
0
VERTEX
8
CUT
10
120.269
20
5.531
30
0
0
VERTEX
8
CUT
10
120.175
20
5.125
30
0
0
VERTEX
8
CUT
10
120.019
20
4.781
30
0
0
VERTEX
8
CUT
10
119.8
20
4.5
30
0
0
VERTEX
8
CUT
10
119.519
20
4.281
30
0
0
VERTEX
8
CUT
10
119.175
20
4.125
30
0
0
VERTEX
8
CUT
10
118.769
20
4.031
30
0
0
VERTEX
8
CUT
10
118.3
20
4
30
0
0
VERTEX
8
CUT
10
98.1
20
4
30
0
0
VERTEX
8
CUT
10
97.631
20
4.031
30
0
0
VERTEX
8
CUT
10
97.225
20
4.125
30
0
0
VERTEX
8
CUT
10
96.881
20
4.281
30
0
0
VERTEX
8
CUT
10
96.6
20
4.5
30
0
0
VERTEX
8
CUT
10
96.381
20
4.781
30
0
0
VERTEX
8
CUT
10
96.225
20
5.125
30
0
0
VERTEX
8
CUT
10
96.131
20
5.531
30
0
0
VERTEX
8
CUT
10
96.1
20
6
30
0
0
SEQEND
8
CUT
0
POLYLINE
8
RASTER
66
1
70
1
0
VERTEX
8
RASTER
10
104.328
20
19.1
30
0
0
VERTEX
8
RASTER
10
122.55
20
19.1
30
0
0
VERTEX
8
RASTER
10
122.55
20
13.1
30
0
0
VERTEX
8
RASTER
10
104.328
20
13.1
30
0
0
SEQEND
8
RASTER
0
POLYLINE
8
RASTER
66
1
70
1
0
VERTEX
8
RASTER
10
105.878
20
18.6
30
0
0
VERTEX
8
RASTER
10
105.878
20
13.6
30
0
0
VERTEX
8
RASTER
10
106.578
20
13.6
30
0
0
VERTEX
8
RASTER
10
106.578
20
18.6
30
0
0
VERTEX
8
RASTER
10
105.878
20
18.6
30
0
0
SEQEND
8
RASTER
0
POLYLINE
8
RASTER
66
1
70
1
0
VERTEX
8
RASTER
10
107.778
20
18.6
30
0
0
VERTEX
8
RASTER
10
107.778
20
13.6
30
0
0
VERTEX
8
RASTER
10
108.478
20
13.6
30
0
0
VERTEX
8
RASTER
10
108.478
20
18.6
30
0
0
VERTEX
8
RASTER
10
107.778
20
18.6
30
0
0
SEQEND
8
RASTER
0
POLYLINE
8
RASTER
66
1
70
1
0
VERTEX
8
RASTER
10
109.678
20
18.6
30
0
0
VERTEX
8
RASTER
10
109.678
20
13.6
30
0
0
VERTEX
8
RASTER
10
110.378
20
13.6
30
0
0
VERTEX
8
RASTER
10
110.378
20
18.6
30
0
0
VERTEX
8
RASTER
10
109.678
20
18.6
30
0
0
SEQEND
8
RASTER
0
POLYLINE
8
RASTER
66
1
70
1
0
VERTEX
8
RASTER
10
111.578
20
18.6
30
0
0
VERTEX
8
RASTER
10
111.578
20
13.6
30
0
0
VERTEX
8
RASTER
10
112.278
20
13.6
30
0
0
VERTEX
8
RASTER
10
112.278
20
18.6
30
0
0
VERTEX
8
RASTER
10
111.578
20
18.6
30
0
0
SEQEND
8
RASTER
0
POLYLINE
8
RASTER
66
1
70
1
0
VERTEX
8
RASTER
10
113.478
20
18.6
30
0
0
VERTEX
8
RASTER
10
113.478
20
13.6
30
0
0
VERTEX
8
RASTER
10
114.178
20
13.6
30
0
0
VERTEX
8
RASTER
10
114.178
20
18.6
30
0
0
VERTEX
8
RASTER
10
113.478
20
18.6
30
0
0
SEQEND
8
RASTER
0
POLYLINE
8
RASTER
66
1
70
1
0
VERTEX
8
RASTER
10
115.378
20
18.6
30
0
0
VERTEX
8
RASTER
10
115.378
20
13.6
30
0
0
VERTEX
8
RASTER
10
116.078
20
13.6
30
0
0
VERTEX
8
RASTER
10
116.078
20
18.6
30
0
0
VERTEX
8
RASTER
10
115.378
20
18.6
30
0
0
SEQEND
8
RASTER
0
POLYLINE
8
RASTER
66
1
70
1
0
VERTEX
8
RASTER
10
117.278
20
18.6
30
0
0
VERTEX
8
RASTER
10
117.278
20
13.6
30
0
0
VERTEX
8
RASTER
10
117.978
20
13.6
30
0
0
VERTEX
8
RASTER
10
117.978
20
18.6
30
0
0
VERTEX
8
RASTER
10
117.278
20
18.6
30
0
0
SEQEND
8
RASTER
0
POLYLINE
8
RASTER
66
1
70
1
0
VERTEX
8
RASTER
10
119.178
20
18.6
30
0
0
VERTEX
8
RASTER
10
119.178
20
13.6
30
0
0
VERTEX
8
RASTER
10
119.878
20
13.6
30
0
0
VERTEX
8
RASTER
10
119.878
20
18.6
30
0
0
VERTEX
8
RASTER
10
119.178
20
18.6
30
0
0
SEQEND
8
RASTER
0
POLYLINE
8
RASTER
66
1
70
1
0
VERTEX
8
RASTER
10
121.078
20
18.6
30
0
0
VERTEX
8
RASTER
10
121.078
20
13.6
30
0
0
VERTEX
8
RASTER
10
121.778
20
13.6
30
0
0
VERTEX
8
RASTER
10
121.778
20
18.6
30
0
0
VERTEX
8
RASTER
10
121.078
20
18.6
30
0
0
SEQEND
8
RASTER
0
CIRCLE
8
RASTER
10
104.928
20
20.8
30
0
40
1.1
0
CIRCLE
8
RASTER
10
104.928
20
11.4
30
0
40
1.1
0
CIRCLE
8
RASTER
10
118.7
20
20.8
30
0
40
1.1
0
CIRCLE
8
RASTER
10
118.7
20
11.4
30
0
40
1.1
0
POLYLINE
8
CUT
66
1
70
1
0
VERTEX
8
CUT
10
126.8
20
26.2
30
0
0
VERTEX
8
CUT
10
126.831
20
26.669
30
0
0
VERTEX
8
CUT
10
126.925
20
27.075
30
0
0
VERTEX
8
CUT
10
127.081
20
27.419
30
0
0
VERTEX
8
CUT
10
127.3
20
27.7
30
0
0
VERTEX
8
CUT
10
127.581
20
27.919
30
0
0
VERTEX
8
CUT
10
127.925
20
28.075
30
0
0
VERTEX
8
CUT
10
128.331
20
28.169
30
0
0
VERTEX
8
CUT
10
128.8
20
28.2
30
0
0
VERTEX
8
CUT
10
149
20
28.2
30
0
0
VERTEX
8
CUT
10
149.469
20
28.169
30
0
0
VERTEX
8
CUT
10
149.875
20
28.075
30
0
0
VERTEX
8
CUT
10
150.219
20
27.919
30
0
0
VERTEX
8
CUT
10
150.5
20
27.7
30
0
0
VERTEX
8
CUT
10
150.719
20
27.419
30
0
0
VERTEX
8
CUT
10
150.875
20
27.075
30
0
0
VERTEX
8
CUT
10
150.969
20
26.669
30
0
0
VERTEX
8
CUT
10
151
20
26.2
30
0
0
VERTEX
8
CUT
10
151
20
19.1
30
0
0
VERTEX
8
CUT
10
153.5
20
19.1
30
0
0
VERTEX
8
CUT
10
153.5
20
13.1
30
0
0
VERTEX
8
CUT
10
151
20
13.1
30
0
0
VERTEX
8
CUT
10
151
20
6
30
0
0
VERTEX
8
CUT
10
150.969
20
5.531
30
0
0
VERTEX
8
CUT
10
150.875
20
5.125
30
0
0
VERTEX
8
CUT
10
150.719
20
4.781
30
0
0
VERTEX
8
CUT
10
150.5
20
4.5
30
0
0
VERTEX
8
CUT
10
150.219
20
4.281
30
0
0
VERTEX
8
CUT
10
149.875
20
4.125
30
0
0
VERTEX
8
CUT
10
149.469
20
4.031
30
0
0
VERTEX
8
CUT
10
149
20
4
30
0
0
VERTEX
8
CUT
10
128.8
20
4
30
0
0
VERTEX
8
CUT
10
128.331
20
4.031
30
0
0
VERTEX
8
CUT
10
127.925
20
4.125
30
0
0
VERTEX
8
CUT
10
127.581
20
4.281
30
0
0
VERTEX
8
CUT
10
127.3
20
4.5
30
0
0
VERTEX
8
CUT
10
127.081
20
4.781
30
0
0
VERTEX
8
CUT
10
126.925
20
5.125
30
0
0
VERTEX
8
CUT
10
126.831
20
5.531
30
0
0
VERTEX
8
CUT
10
126.8
20
6
30
0
0
SEQEND
8
CUT
0
POLYLINE
8
RASTER
66
1
70
1
0
VERTEX
8
RASTER
10
135.028
20
19.1
30
0
0
VERTEX
8
RASTER
10
153.25
20
19.1
30
0
0
VERTEX
8
RASTER
10
153.25
20
13.1
30
0
0
VERTEX
8
RASTER
10
135.028
20
13.1
30
0
0
SEQEND
8
RASTER
0
POLYLINE
8
RASTER
66
1
70
1
0
VERTEX
8
RASTER
10
136.578
20
18.6
30
0
0
VERTEX
8
RASTER
10
136.578
20
13.6
30
0
0
VERTEX
8
RASTER
10
137.278
20
13.6
30
0
0
VERTEX
8
RASTER
10
137.278
20
18.6
30
0
0
VERTEX
8
RASTER
10
136.578
20
18.6
30
0
0
SEQEND
8
RASTER
0
POLYLINE
8
RASTER
66
1
70
1
0
VERTEX
8
RASTER
10
138.478
20
18.6
30
0
0
VERTEX
8
RASTER
10
138.478
20
13.6
30
0
0
VERTEX
8
RASTER
10
139.178
20
13.6
30
0
0
VERTEX
8
RASTER
10
139.178
20
18.6
30
0
0
VERTEX
8
RASTER
10
138.478
20
18.6
30
0
0
SEQEND
8
RASTER
0
POLYLINE
8
RASTER
66
1
70
1
0
VERTEX
8
RASTER
10
140.378
20
18.6
30
0
0
VERTEX
8
RASTER
10
140.378
20
13.6
30
0
0
VERTEX
8
RASTER
10
141.078
20
13.6
30
0
0
VERTEX
8
RASTER
10
141.078
20
18.6
30
0
0
VERTEX
8
RASTER
10
140.378
20
18.6
30
0
0
SEQEND
8
RASTER
0
POLYLINE
8
RASTER
66
1
70
1
0
VERTEX
8
RASTER
10
142.278
20
18.6
30
0
0
VERTEX
8
RASTER
10
142.278
20
13.6
30
0
0
VERTEX
8
RASTER
10
142.978
20
13.6
30
0
0
VERTEX
8
RASTER
10
142.978
20
18.6
30
0
0
VERTEX
8
RASTER
10
142.278
20
18.6
30
0
0
SEQEND
8
RASTER
0
POLYLINE
8
RASTER
66
1
70
1
0
VERTEX
8
RASTER
10
144.178
20
18.6
30
0
0
VERTEX
8
RASTER
10
144.178
20
13.6
30
0
0
VERTEX
8
RASTER
10
144.878
20
13.6
30
0
0
VERTEX
8
RASTER
10
144.878
20
18.6
30
0
0
VERTEX
8
RASTER
10
144.178
20
18.6
30
0
0
SEQEND
8
RASTER
0
POLYLINE
8
RASTER
66
1
70
1
0
VERTEX
8
RASTER
10
146.078
20
18.6
30
0
0
VERTEX
8
RASTER
10
146.078
20
13.6
30
0
0
VERTEX
8
RASTER
10
146.778
20
13.6
30
0
0
VERTEX
8
RASTER
10
146.778
20
18.6
30
0
0
VERTEX
8
RASTER
10
146.078
20
18.6
30
0
0
SEQEND
8
RASTER
0
POLYLINE
8
RASTER
66
1
70
1
0
VERTEX
8
RASTER
10
147.978
20
18.6
30
0
0
VERTEX
8
RASTER
10
147.978
20
13.6
30
0
0
VERTEX
8
RASTER
10
148.678
20
13.6
30
0
0
VERTEX
8
RASTER
10
148.678
20
18.6
30
0
0
VERTEX
8
RASTER
10
147.978
20
18.6
30
0
0
SEQEND
8
RASTER
0
POLYLINE
8
RASTER
66
1
70
1
0
VERTEX
8
RASTER
10
149.878
20
18.6
30
0
0
VERTEX
8
RASTER
10
149.878
20
13.6
30
0
0
VERTEX
8
RASTER
10
150.578
20
13.6
30
0
0
VERTEX
8
RASTER
10
150.578
20
18.6
30
0
0
VERTEX
8
RASTER
10
149.878
20
18.6
30
0
0
SEQEND
8
RASTER
0
POLYLINE
8
RASTER
66
1
70
1
0
VERTEX
8
RASTER
10
151.778
20
18.6
30
0
0
VERTEX
8
RASTER
10
151.778
20
13.6
30
0
0
VERTEX
8
RASTER
10
152.478
20
13.6
30
0
0
VERTEX
8
RASTER
10
152.478
20
18.6
30
0
0
VERTEX
8
RASTER
10
151.778
20
18.6
30
0
0
SEQEND
8
RASTER
0
CIRCLE
8
RASTER
10
135.628
20
20.8
30
0
40
1.1
0
CIRCLE
8
RASTER
10
135.628
20
11.4
30
0
40
1.1
0
CIRCLE
8
RASTER
10
149.4
20
20.8
30
0
40
1.1
0
CIRCLE
8
RASTER
10
149.4
20
11.4
30
0
40
1.1
0
POLYLINE
8
CUT
66
1
70
1
0
VERTEX
8
CUT
10
157.5
20
26.2
30
0
0
VERTEX
8
CUT
10
157.531
20
26.669
30
0
0
VERTEX
8
CUT
10
157.625
20
27.075
30
0
0
VERTEX
8
CUT
10
157.781
20
27.419
30
0
0
VERTEX
8
CUT
10
158
20
27.7
30
0
0
VERTEX
8
CUT
10
158.281
20
27.919
30
0
0
VERTEX
8
CUT
10
158.625
20
28.075
30
0
0
VERTEX
8
CUT
10
159.031
20
28.169
30
0
0
VERTEX
8
CUT
10
159.5
20
28.2
30
0
0
VERTEX
8
CUT
10
179.7
20
28.2
30
0
0
VERTEX
8
CUT
10
180.169
20
28.169
30
0
0
VERTEX
8
CUT
10
180.575
20
28.075
30
0
0
VERTEX
8
CUT
10
180.919
20
27.919
30
0
0
VERTEX
8
CUT
10
181.2
20
27.7
30
0
0
VERTEX
8
CUT
10
181.419
20
27.419
30
0
0
VERTEX
8
CUT
10
181.575
20
27.075
30
0
0
VERTEX
8
CUT
10
181.669
20
26.669
30
0
0
VERTEX
8
CUT
10
181.7
20
26.2
30
0
0
VERTEX
8
CUT
10
181.7
20
19.1
30
0
0
VERTEX
8
CUT
10
184.2
20
19.1
30
0
0
VERTEX
8
CUT
10
184.2
20
13.1
30
0
0
VERTEX
8
CUT
10
181.7
20
13.1
30
0
0
VERTEX
8
CUT
10
181.7
20
6
30
0
0
VERTEX
8
CUT
10
181.669
20
5.531
30
0
0
VERTEX
8
CUT
10
181.575
20
5.125
30
0
0
VERTEX
8
CUT
10
181.419
20
4.781
30
0
0
VERTEX
8
CUT
10
181.2
20
4.5
30
0
0
VERTEX
8
CUT
10
180.919
20
4.281
30
0
0
VERTEX
8
CUT
10
180.575
20
4.125
30
0
0
VERTEX
8
CUT
10
180.169
20
4.031
30
0
0
VERTEX
8
CUT
10
179.7
20
4
30
0
0
VERTEX
8
CUT
10
159.5
20
4
30
0
0
VERTEX
8
CUT
10
159.031
20
4.031
30
0
0
VERTEX
8
CUT
10
158.625
20
4.125
30
0
0
VERTEX
8
CUT
10
158.281
20
4.281
30
0
0
VERTEX
8
CUT
10
158
20
4.5
30
0
0
VERTEX
8
CUT
10
157.781
20
4.781
30
0
0
VERTEX
8
CUT
10
157.625
20
5.125
30
0
0
VERTEX
8
CUT
10
157.531
20
5.531
30
0
0
VERTEX
8
CUT
10
157.5
20
6
30
0
0
SEQEND
8
CUT
0
POLYLINE
8
RASTER
66
1
70
1
0
VERTEX
8
RASTER
10
165.728
20
19.1
30
0
0
VERTEX
8
RASTER
10
183.95
20
19.1
30
0
0
VERTEX
8
RASTER
10
183.95
20
13.1
30
0
0
VERTEX
8
RASTER
10
165.728
20
13.1
30
0
0
SEQEND
8
RASTER
0
POLYLINE
8
RASTER
66
1
70
1
0
VERTEX
8
RASTER
10
167.278
20
18.6
30
0
0
VERTEX
8
RASTER
10
167.278
20
13.6
30
0
0
VERTEX
8
RASTER
10
167.978
20
13.6
30
0
0
VERTEX
8
RASTER
10
167.978
20
18.6
30
0
0
VERTEX
8
RASTER
10
167.278
20
18.6
30
0
0
SEQEND
8
RASTER
0
POLYLINE
8
RASTER
66
1
70
1
0
VERTEX
8
RASTER
10
169.178
20
18.6
30
0
0
VERTEX
8
RASTER
10
169.178
20
13.6
30
0
0
VERTEX
8
RASTER
10
169.878
20
13.6
30
0
0
VERTEX
8
RASTER
10
169.878
20
18.6
30
0
0
VERTEX
8
RASTER
10
169.178
20
18.6
30
0
0
SEQEND
8
RASTER
0
POLYLINE
8
RASTER
66
1
70
1
0
VERTEX
8
RASTER
10
171.078
20
18.6
30
0
0
VERTEX
8
RASTER
10
171.078
20
13.6
30
0
0
VERTEX
8
RASTER
10
171.778
20
13.6
30
0
0
VERTEX
8
RASTER
10
171.778
20
18.6
30
0
0
VERTEX
8
RASTER
10
171.078
20
18.6
30
0
0
SEQEND
8
RASTER
0
POLYLINE
8
RASTER
66
1
70
1
0
VERTEX
8
RASTER
10
172.978
20
18.6
30
0
0
VERTEX
8
RASTER
10
172.978
20
13.6
30
0
0
VERTEX
8
RASTER
10
173.678
20
13.6
30
0
0
VERTEX
8
RASTER
10
173.678
20
18.6
30
0
0
VERTEX
8
RASTER
10
172.978
20
18.6
30
0
0
SEQEND
8
RASTER
0
POLYLINE
8
RASTER
66
1
70
1
0
VERTEX
8
RASTER
10
174.878
20
18.6
30
0
0
VERTEX
8
RASTER
10
174.878
20
13.6
30
0
0
VERTEX
8
RASTER
10
175.578
20
13.6
30
0
0
VERTEX
8
RASTER
10
175.578
20
18.6
30
0
0
VERTEX
8
RASTER
10
174.878
20
18.6
30
0
0
SEQEND
8
RASTER
0
POLYLINE
8
RASTER
66
1
70
1
0
VERTEX
8
RASTER
10
176.778
20
18.6
30
0
0
VERTEX
8
RASTER
10
176.778
20
13.6
30
0
0
VERTEX
8
RASTER
10
177.478
20
13.6
30
0
0
VERTEX
8
RASTER
10
177.478
20
18.6
30
0
0
VERTEX
8
RASTER
10
176.778
20
18.6
30
0
0
SEQEND
8
RASTER
0
POLYLINE
8
RASTER
66
1
70
1
0
VERTEX
8
RASTER
10
178.678
20
18.6
30
0
0
VERTEX
8
RASTER
10
178.678
20
13.6
30
0
0
VERTEX
8
RASTER
10
179.378
20
13.6
30
0
0
VERTEX
8
RASTER
10
179.378
20
18.6
30
0
0
VERTEX
8
RASTER
10
178.678
20
18.6
30
0
0
SEQEND
8
RASTER
0
POLYLINE
8
RASTER
66
1
70
1
0
VERTEX
8
RASTER
10
180.578
20
18.6
30
0
0
VERTEX
8
RASTER
10
180.578
20
13.6
30
0
0
VERTEX
8
RASTER
10
181.278
20
13.6
30
0
0
VERTEX
8
RASTER
10
181.278
20
18.6
30
0
0
VERTEX
8
RASTER
10
180.578
20
18.6
30
0
0
SEQEND
8
RASTER
0
POLYLINE
8
RASTER
66
1
70
1
0
VERTEX
8
RASTER
10
182.478
20
18.6
30
0
0
VERTEX
8
RASTER
10
182.478
20
13.6
30
0
0
VERTEX
8
RASTER
10
183.178
20
13.6
30
0
0
VERTEX
8
RASTER
10
183.178
20
18.6
30
0
0
VERTEX
8
RASTER
10
182.478
20
18.6
30
0
0
SEQEND
8
RASTER
0
CIRCLE
8
RASTER
10
166.328
20
20.8
30
0
40
1.1
0
CIRCLE
8
RASTER
10
166.328
20
11.4
30
0
40
1.1
0
CIRCLE
8
RASTER
10
180.1
20
20.8
30
0
40
1.1
0
CIRCLE
8
RASTER
10
180.1
20
11.4
30
0
40
1.1
0
POLYLINE
8
CUT
66
1
70
1
0
VERTEX
8
CUT
10
188.2
20
26.2
30
0
0
VERTEX
8
CUT
10
188.231
20
26.669
30
0
0
VERTEX
8
CUT
10
188.325
20
27.075
30
0
0
VERTEX
8
CUT
10
188.481
20
27.419
30
0
0
VERTEX
8
CUT
10
188.7
20
27.7
30
0
0
VERTEX
8
CUT
10
188.981
20
27.919
30
0
0
VERTEX
8
CUT
10
189.325
20
28.075
30
0
0
VERTEX
8
CUT
10
189.731
20
28.169
30
0
0
VERTEX
8
CUT
10
190.2
20
28.2
30
0
0
VERTEX
8
CUT
10
210.4
20
28.2
30
0
0
VERTEX
8
CUT
10
210.869
20
28.169
30
0
0
VERTEX
8
CUT
10
211.275
20
28.075
30
0
0
VERTEX
8
CUT
10
211.619
20
27.919
30
0
0
VERTEX
8
CUT
10
211.9
20
27.7
30
0
0
VERTEX
8
CUT
10
212.119
20
27.419
30
0
0
VERTEX
8
CUT
10
212.275
20
27.075
30
0
0
VERTEX
8
CUT
10
212.369
20
26.669
30
0
0
VERTEX
8
CUT
10
212.4
20
26.2
30
0
0
VERTEX
8
CUT
10
212.4
20
19.1
30
0
0
VERTEX
8
CUT
10
214.9
20
19.1
30
0
0
VERTEX
8
CUT
10
214.9
20
13.1
30
0
0
VERTEX
8
CUT
10
212.4
20
13.1
30
0
0
VERTEX
8
CUT
10
212.4
20
6
30
0
0
VERTEX
8
CUT
10
212.369
20
5.531
30
0
0
VERTEX
8
CUT
10
212.275
20
5.125
30
0
0
VERTEX
8
CUT
10
212.119
20
4.781
30
0
0
VERTEX
8
CUT
10
211.9
20
4.5
30
0
0
VERTEX
8
CUT
10
211.619
20
4.281
30
0
0
VERTEX
8
CUT
10
211.275
20
4.125
30
0
0
VERTEX
8
CUT
10
210.869
20
4.031
30
0
0
VERTEX
8
CUT
10
210.4
20
4
30
0
0
VERTEX
8
CUT
10
190.2
20
4
30
0
0
VERTEX
8
CUT
10
189.731
20
4.031
30
0
0
VERTEX
8
CUT
10
189.325
20
4.125
30
0
0
VERTEX
8
CUT
10
188.981
20
4.281
30
0
0
VERTEX
8
CUT
10
188.7
20
4.5
30
0
0
VERTEX
8
CUT
10
188.481
20
4.781
30
0
0
VERTEX
8
CUT
10
188.325
20
5.125
30
0
0
VERTEX
8
CUT
10
188.231
20
5.531
30
0
0
VERTEX
8
CUT
10
188.2
20
6
30
0
0
SEQEND
8
CUT
0
POLYLINE
8
RASTER
66
1
70
1
0
VERTEX
8
RASTER
10
196.428
20
19.1
30
0
0
VERTEX
8
RASTER
10
214.65
20
19.1
30
0
0
VERTEX
8
RASTER
10
214.65
20
13.1
30
0
0
VERTEX
8
RASTER
10
196.428
20
13.1
30
0
0
SEQEND
8
RASTER
0
POLYLINE
8
RASTER
66
1
70
1
0
VERTEX
8
RASTER
10
197.978
20
18.6
30
0
0
VERTEX
8
RASTER
10
197.978
20
13.6
30
0
0
VERTEX
8
RASTER
10
198.678
20
13.6
30
0
0
VERTEX
8
RASTER
10
198.678
20
18.6
30
0
0
VERTEX
8
RASTER
10
197.978
20
18.6
30
0
0
SEQEND
8
RASTER
0
POLYLINE
8
RASTER
66
1
70
1
0
VERTEX
8
RASTER
10
199.878
20
18.6
30
0
0
VERTEX
8
RASTER
10
199.878
20
13.6
30
0
0
VERTEX
8
RASTER
10
200.578
20
13.6
30
0
0
VERTEX
8
RASTER
10
200.578
20
18.6
30
0
0
VERTEX
8
RASTER
10
199.878
20
18.6
30
0
0
SEQEND
8
RASTER
0
POLYLINE
8
RASTER
66
1
70
1
0
VERTEX
8
RASTER
10
201.778
20
18.6
30
0
0
VERTEX
8
RASTER
10
201.778
20
13.6
30
0
0
VERTEX
8
RASTER
10
202.478
20
13.6
30
0
0
VERTEX
8
RASTER
10
202.478
20
18.6
30
0
0
VERTEX
8
RASTER
10
201.778
20
18.6
30
0
0
SEQEND
8
RASTER
0
POLYLINE
8
RASTER
66
1
70
1
0
VERTEX
8
RASTER
10
203.678
20
18.6
30
0
0
VERTEX
8
RASTER
10
203.678
20
13.6
30
0
0
VERTEX
8
RASTER
10
204.378
20
13.6
30
0
0
VERTEX
8
RASTER
10
204.378
20
18.6
30
0
0
VERTEX
8
RASTER
10
203.678
20
18.6
30
0
0
SEQEND
8
RASTER
0
POLYLINE
8
RASTER
66
1
70
1
0
VERTEX
8
RASTER
10
205.578
20
18.6
30
0
0
VERTEX
8
RASTER
10
205.578
20
13.6
30
0
0
VERTEX
8
RASTER
10
206.278
20
13.6
30
0
0
VERTEX
8
RASTER
10
206.278
20
18.6
30
0
0
VERTEX
8
RASTER
10
205.578
20
18.6
30
0
0
SEQEND
8
RASTER
0
POLYLINE
8
RASTER
66
1
70
1
0
VERTEX
8
RASTER
10
207.478
20
18.6
30
0
0
VERTEX
8
RASTER
10
207.478
20
13.6
30
0
0
VERTEX
8
RASTER
10
208.178
20
13.6
30
0
0
VERTEX
8
RASTER
10
208.178
20
18.6
30
0
0
VERTEX
8
RASTER
10
207.478
20
18.6
30
0
0
SEQEND
8
RASTER
0
POLYLINE
8
RASTER
66
1
70
1
0
VERTEX
8
RASTER
10
209.378
20
18.6
30
0
0
VERTEX
8
RASTER
10
209.378
20
13.6
30
0
0
VERTEX
8
RASTER
10
210.078
20
13.6
30
0
0
VERTEX
8
RASTER
10
210.078
20
18.6
30
0
0
VERTEX
8
RASTER
10
209.378
20
18.6
30
0
0
SEQEND
8
RASTER
0
POLYLINE
8
RASTER
66
1
70
1
0
VERTEX
8
RASTER
10
211.278
20
18.6
30
0
0
VERTEX
8
RASTER
10
211.278
20
13.6
30
0
0
VERTEX
8
RASTER
10
211.978
20
13.6
30
0
0
VERTEX
8
RASTER
10
211.978
20
18.6
30
0
0
VERTEX
8
RASTER
10
211.278
20
18.6
30
0
0
SEQEND
8
RASTER
0
POLYLINE
8
RASTER
66
1
70
1
0
VERTEX
8
RASTER
10
213.178
20
18.6
30
0
0
VERTEX
8
RASTER
10
213.178
20
13.6
30
0
0
VERTEX
8
RASTER
10
213.878
20
13.6
30
0
0
VERTEX
8
RASTER
10
213.878
20
18.6
30
0
0
VERTEX
8
RASTER
10
213.178
20
18.6
30
0
0
SEQEND
8
RASTER
0
CIRCLE
8
RASTER
10
197.028
20
20.8
30
0
40
1.1
0
CIRCLE
8
RASTER
10
197.028
20
11.4
30
0
40
1.1
0
CIRCLE
8
RASTER
10
210.8
20
20.8
30
0
40
1.1
0
CIRCLE
8
RASTER
10
210.8
20
11.4
30
0
40
1.1
0
ENDSEC
0
EOF
