  0
SECTION
  2
HEADER
  9
$ACADVER
  1
AC1015
  9
$ACADMAINTVER
 70
6
  9
$DWGCODEPAGE
  3
ANSI_1252
  9
$INSBASE
 10
0.0
 20
0.0
 30
0.0
  9
$EXTMIN
 10
1e+20
 20
1e+20
 30
1e+20
  9
$EXTMAX
 10
-1e+20
 20
-1e+20
 30
-1e+20
  9
$LIMMIN
 10
0.0
 20
0.0
  9
$LIMMAX
 10
420.0
 20
297.0
  9
$ORTHOMODE
 70
0
  9
$REGENMODE
 70
1
  9
$FILLMODE
 70
1
  9
$QTEXTMODE
 70
0
  9
$MIRRTEXT
 70
1
  9
$LTSCALE
 40
1.0
  9
$ATTMODE
 70
1
  9
$TEXTSIZE
 40
2.5
  9
$TRACEWID
 40
1.0
  9
$TEXTSTYLE
  7
Standard
  9
$CLAYER
  8
0
  9
$CELTYPE
  6
ByLayer
  9
$CECOLOR
 62
256
  9
$CELTSCALE
 40
1.0
  9
$DISPSILH
 70
0
  9
$DIMSCALE
 40
1.0
  9
$DIMASZ
 40
2.5
  9
$DIMEXO
 40
0.625
  9
$DIMDLI
 40
3.75
  9
$DIMRND
 40
0.0
  9
$DIMDLE
 40
0.0
  9
$DIMEXE
 40
1.25
  9
$DIMTP
 40
0.0
  9
$DIMTM
 40
0.0
  9
$DIMTXT
 40
2.5
  9
$DIMCEN
 40
2.5
  9
$DIMTSZ
 40
0.0
  9
$DIMTOL
 70
0
  9
$DIMLIM
 70
0
  9
$DIMTIH
 70
0
  9
$DIMTOH
 70
0
  9
$DIMSE1
 70
0
  9
$DIMSE2
 70
0
  9
$DIMTAD
 70
1
  9
$DIMZIN
 70
8
  9
$DIMBLK
  1

  9
$DIMASO
 70
1
  9
$DIMSHO
 70
1
  9
$DIMPOST
  1

  9
$DIMAPOST
  1

  9
$DIMALT
 70
0
  9
$DIMALTD
 70
3
  9
$DIMALTF
 40
0.03937007874
  9
$DIMLFAC
 40
1.0
  9
$DIMTOFL
 70
1
  9
$DIMTVP
 40
0.0
  9
$DIMTIX
 70
0
  9
$DIMSOXD
 70
0
  9
$DIMSAH
 70
0
  9
$DIMBLK1
  1

  9
$DIMBLK2
  1

  9
$DIMSTYLE
  2
ISO-25
  9
$DIMCLRD
 70
0
  9
$DIMCLRE
 70
0
  9
$DIMCLRT
 70
0
  9
$DIMTFAC
 40
1.0
  9
$DIMGAP
 40
0.625
  9
$DIMJUST
 70
0
  9
$DIMSD1
 70
0
  9
$DIMSD2
 70
0
  9
$DIMTOLJ
 70
0
  9
$DIMTZIN
 70
8
  9
$DIMALTZ
 70
0
  9
$DIMALTTZ
 70
0
  9
$DIMUPT
 70
0
  9
$DIMDEC
 70
2
  9
$DIMTDEC
 70
2
  9
$DIMALTU
 70
2
  9
$DIMALTTD
 70
3
  9
$DIMTXSTY
  7
Standard
  9
$DIMAUNIT
 70
0
  9
$DIMADEC
 70
0
  9
$DIMALTRND
 40
0.0
  9
$DIMAZIN
 70
0
  9
$DIMDSEP
 70
44
  9
$DIMATFIT
 70
3
  9
$DIMFRAC
 70
0
  9
$DIMLDRBLK
  1

  9
$DIMLUNIT
 70
2
  9
$DIMLWD
 70
-2
  9
$DIMLWE
 70
-2
  9
$DIMTMOVE
 70
0
  9
$LUNITS
 70
2
  9
$LUPREC
 70
4
  9
$SKETCHINC
 40
1.0
  9
$FILLETRAD
 40
10.0
  9
$AUNITS
 70
0
  9
$AUPREC
 70
2
  9
$MENU
  1
.
  9
$ELEVATION
 40
0.0
  9
$PELEVATION
 40
0.0
  9
$THICKNESS
 40
0.0
  9
$LIMCHECK
 70
0
  9
$CHAMFERA
 40
0.0
  9
$CHAMFERB
 40
0.0
  9
$CHAMFERC
 40
0.0
  9
$CHAMFERD
 40
0.0
  9
$SKPOLY
 70
0
  9
$TDCREATE
 40
2461278.544351852
  9
$TDUCREATE
 40
2458532.153996898
  9
$TDUPDATE
 40
2461278.544351852
  9
$TDUUPDATE
 40
2458532.1544311
  9
$TDINDWG
 40
0.0
  9
$TDUSRTIMER
 40
0.0
  9
$USRTIMER
 70
1
  9
$ANGBASE
 50
0.0
  9
$ANGDIR
 70
0
  9
$PDMODE
 70
0
  9
$PDSIZE
 40
0.0
  9
$PLINEWID
 40
0.0
  9
$SPLFRAME
 70
0
  9
$SPLINETYPE
 70
6
  9
$SPLINESEGS
 70
8
  9
$HANDSEED
  5
5E
  9
$SURFTAB1
 70
6
  9
$SURFTAB2
 70
6
  9
$SURFTYPE
 70
6
  9
$SURFU
 70
6
  9
$SURFV
 70
6
  9
$UCSBASE
  2

  9
$UCSNAME
  2

  9
$UCSORG
 10
0.0
 20
0.0
 30
0.0
  9
$UCSXDIR
 10
1.0
 20
0.0
 30
0.0
  9
$UCSYDIR
 10
0.0
 20
1.0
 30
0.0
  9
$UCSORTHOREF
  2

  9
$UCSORTHOVIEW
 70
0
  9
$UCSORGTOP
 10
0.0
 20
0.0
 30
0.0
  9
$UCSORGBOTTOM
 10
0.0
 20
0.0
 30
0.0
  9
$UCSORGLEFT
 10
0.0
 20
0.0
 30
0.0
  9
$UCSORGRIGHT
 10
0.0
 20
0.0
 30
0.0
  9
$UCSORGFRONT
 10
0.0
 20
0.0
 30
0.0
  9
$UCSORGBACK
 10
0.0
 20
0.0
 30
0.0
  9
$PUCSBASE
  2

  9
$PUCSNAME
  2

  9
$PUCSORG
 10
0.0
 20
0.0
 30
0.0
  9
$PUCSXDIR
 10
1.0
 20
0.0
 30
0.0
  9
$PUCSYDIR
 10
0.0
 20
1.0
 30
0.0
  9
$PUCSORTHOREF
  2

  9
$PUCSORTHOVIEW
 70
0
  9
$PUCSORGTOP
 10
0.0
 20
0.0
 30
0.0
  9
$PUCSORGBOTTOM
 10
0.0
 20
0.0
 30
0.0
  9
$PUCSORGLEFT
 10
0.0
 20
0.0
 30
0.0
  9
$PUCSORGRIGHT
 10
0.0
 20
0.0
 30
0.0
  9
$PUCSORGFRONT
 10
0.0
 20
0.0
 30
0.0
  9
$PUCSORGBACK
 10
0.0
 20
0.0
 30
0.0
  9
$USERI1
 70
0
  9
$USERI2
 70
0
  9
$USERI3
 70
0
  9
$USERI4
 70
0
  9
$USERI5
 70
0
  9
$USERR1
 40
0.0
  9
$USERR2
 40
0.0
  9
$USERR3
 40
0.0
  9
$USERR4
 40
0.0
  9
$USERR5
 40
0.0
  9
$WORLDVIEW
 70
1
  9
$SHADEDGE
 70
3
  9
$SHADEDIF
 70
70
  9
$TILEMODE
 70
1
  9
$MAXACTVP
 70
64
  9
$PINSBASE
 10
0.0
 20
0.0
 30
0.0
  9
$PLIMCHECK
 70
0
  9
$PEXTMIN
 10
1e+20
 20
1e+20
 30
1e+20
  9
$PEXTMAX
 10
-1e+20
 20
-1e+20
 30
-1e+20
  9
$PLIMMIN
 10
0.0
 20
0.0
  9
$PLIMMAX
 10
420.0
 20
297.0
  9
$UNITMODE
 70
0
  9
$VISRETAIN
 70
1
  9
$PLINEGEN
 70
0
  9
$PSLTSCALE
 70
1
  9
$TREEDEPTH
 70
3020
  9
$CMLSTYLE
  2
Standard
  9
$CMLJUST
 70
0
  9
$CMLSCALE
 40
20.0
  9
$PROXYGRAPHICS
 70
1
  9
$MEASUREMENT
 70
1
  9
$CELWEIGHT
370
-1
  9
$ENDCAPS
280
0
  9
$JOINSTYLE
280
0
  9
$LWDISPLAY
290
0
  9
$INSUNITS
 70
4
  9
$HYPERLINKBASE
  1

  9
$STYLESHEET
  1

  9
$XEDIT
290
1
  9
$CEPSNTYPE
380
0
  9
$PSTYLEMODE
290
1
  9
$FINGERPRINTGUID
  2
{0F51B74A-AAF5-4F40-8C46-3669FE64FD66}
  9
$VERSIONGUID
  2
{CD806DF8-B620-44EB-B72D-5C366B33C156}
  9
$EXTNAMES
290
1
  9
$PSVPSCALE
 40
0.0
  9
$OLESTARTUP
290
0
  0
ENDSEC
  0
SECTION
  2
CLASSES
  0
CLASS
  1
ACDBDICTIONARYWDFLT
  2
AcDbDictionaryWithDefault
  3
ObjectDBX Classes
 90
0
280
0
281
0
  0
CLASS
  1
SUN
  2
AcDbSun
  3
SCENEOE
 90
1153
280
0
281
0
  0
CLASS
  1
VISUALSTYLE
  2
AcDbVisualStyle
  3
ObjectDBX Classes
 90
4095
280
0
281
0
  0
CLASS
  1
MATERIAL
  2
AcDbMaterial
  3
ObjectDBX Classes
 90
1153
280
0
281
0
  0
CLASS
  1
SCALE
  2
AcDbScale
  3
ObjectDBX Classes
 90
1153
280
0
281
0
  0
CLASS
  1
TABLESTYLE
  2
AcDbTableStyle
  3
ObjectDBX Classes
 90
4095
280
0
281
0
  0
CLASS
  1
MLEADERSTYLE
  2
AcDbMLeaderStyle
  3
ACDB_MLEADERSTYLE_CLASS
 90
4095
280
0
281
0
  0
CLASS
  1
DICTIONARYVAR
  2
AcDbDictionaryVar
  3
ObjectDBX Classes
 90
0
280
0
281
0
  0
CLASS
  1
CELLSTYLEMAP
  2
AcDbCellStyleMap
  3
ObjectDBX Classes
 90
1152
280
0
281
0
  0
CLASS
  1
MENTALRAYRENDERSETTINGS
  2
AcDbMentalRayRenderSettings
  3
SCENEOE
 90
1024
280
0
281
0
  0
CLASS
  1
ACDBDETAILVIEWSTYLE
  2
AcDbDetailViewStyle
  3
ObjectDBX Classes
 90
1025
280
0
281
0
  0
CLASS
  1
ACDBSECTIONVIEWSTYLE
  2
AcDbSectionViewStyle
  3
ObjectDBX Classes
 90
1025
280
0
281
0
  0
CLASS
  1
RASTERVARIABLES
  2
AcDbRasterVariables
  3
ISM
 90
0
280
0
281
0
  0
CLASS
  1
ACDBPLACEHOLDER
  2
AcDbPlaceHolder
  3
ObjectDBX Classes
 90
0
280
0
281
0
  0
CLASS
  1
LAYOUT
  2
AcDbLayout
  3
ObjectDBX Classes
 90
0
280
0
281
0
  0
ENDSEC
  0
SECTION
  2
TABLES
  0
TABLE
  2
VPORT
  5
8
330
0
100
AcDbSymbolTable
 70
1
  0
VPORT
  5
23
330
8
100
AcDbSymbolTableRecord
100
AcDbViewportTableRecord
  2
*Active
 70
0
 10
0.0
 20
0.0
 11
1.0
 21
1.0
 12
0.0
 22
0.0
 13
0.0
 23
0.0
 14
0.5
 24
0.5
 15
0.5
 25
0.5
 16
0.0
 26
0.0
 36
1.0
 17
0.0
 27
0.0
 37
0.0
 40
1000.0
 41
1.34
 42
50.0
 43
0.0
 44
0.0
 50
0.0
 51
0.0
 71
0
 72
1000
 73
1
 74
3
 75
0
 76
0
 77
0
 78
0
281
0
 65
0
146
0.0
  0
ENDTAB
  0
TABLE
  2
LTYPE
  5
2
330
0
100
AcDbSymbolTable
 70
3
  0
LTYPE
  5
24
330
2
100
AcDbSymbolTableRecord
100
AcDbLinetypeTableRecord
  2
ByBlock
 70
0
  3

 72
65
 73
0
 40
0.0
  0
LTYPE
  5
25
330
2
100
AcDbSymbolTableRecord
100
AcDbLinetypeTableRecord
  2
ByLayer
 70
0
  3

 72
65
 73
0
 40
0.0
  0
LTYPE
  5
26
330
2
100
AcDbSymbolTableRecord
100
AcDbLinetypeTableRecord
  2
Continuous
 70
0
  3

 72
65
 73
0
 40
0.0
  0
ENDTAB
  0
TABLE
  2
LAYER
  5
1
330
0
100
AcDbSymbolTable
 70
4
  0
LAYER
  5
27
330
1
100
AcDbSymbolTableRecord
100
AcDbLayerTableRecord
  2
0
 70
0
 62
7
  6
Continuous
370
-3
390
13
  0
LAYER
  5
28
330
1
100
AcDbSymbolTableRecord
100
AcDbLayerTableRecord
  2
Defpoints
 70
0
 62
7
  6
Continuous
290
0
370
-3
390
13
  0
LAYER
  5
2F
330
1
100
AcDbSymbolTableRecord
100
AcDbLayerTableRecord
  2
CUT
 70
0
 62
1
  6
Continuous
370
-3
390
13
  0
LAYER
  5
30
330
1
100
AcDbSymbolTableRecord
100
AcDbLayerTableRecord
  2
RASTER
 70
0
 62
7
  6
Continuous
370
-3
390
13
  0
ENDTAB
  0
TABLE
  2
STYLE
  5
5
330
0
100
AcDbSymbolTable
 70
1
  0
STYLE
  5
29
330
5
100
AcDbSymbolTableRecord
100
AcDbTextStyleTableRecord
  2
Standard
 70
0
 40
0.0
 41
1.0
 50
0.0
 71
0
 42
2.5
  3
txt
  4

  0
ENDTAB
  0
TABLE
  2
VIEW
  5
7
330
0
100
AcDbSymbolTable
 70
0
  0
ENDTAB
  0
TABLE
  2
UCS
  5
6
330
0
100
AcDbSymbolTable
 70
0
  0
ENDTAB
  0
TABLE
  2
APPID
  5
3
330
0
100
AcDbSymbolTable
 70
3
  0
APPID
  5
2A
330
3
100
AcDbSymbolTableRecord
100
AcDbRegAppTableRecord
  2
ACAD
 70
0
  0
APPID
  5
5B
330
3
100
AcDbSymbolTableRecord
100
AcDbRegAppTableRecord
  2
HATCHBACKGROUNDCOLOR
 70
0
  0
APPID
  5
5C
330
3
100
AcDbSymbolTableRecord
100
AcDbRegAppTableRecord
  2
EZDXF
 70
0
  0
ENDTAB
  0
TABLE
  2
DIMSTYLE
  5
4
330
0
100
AcDbSymbolTable
 70
1
100
AcDbDimStyleTable
  0
DIMSTYLE
105
2B
330
4
100
AcDbSymbolTableRecord
100
AcDbDimStyleTableRecord
  2
Standard
 70
0
  3

  4

 40
1.0
 41
2.5
 42
0.625
 43
3.75
 44
1.25
 45
0.0
 46
0.0
 47
0.0
 48
0.0
140
2.5
141
2.5
142
0.0
143
0.03937007874
144
1.0
145
0.0
146
1.0
147
0.625
148
0.0
 71
0
 72
0
 73
0
 74
0
 75
0
 76
0
 77
1
 78
8
 79
3
170
0
171
3
172
1
173
0
174
0
175
0
176
0
177
0
178
0
179
2
271
2
272
2
273
2
274
3
275
0
276
0
277
2
278
44
279
0
280
0
281
0
282
0
283
0
284
8
285
0
286
0
288
0
289
3
371
-2
372
-2
  0
ENDTAB
  0
TABLE
  2
BLOCK_RECORD
  5
9
330
0
100
AcDbSymbolTable
 70
2
  0
BLOCK_RECORD
  5
17
330
9
100
AcDbSymbolTableRecord
100
AcDbBlockTableRecord
  2
*Model_Space
340
1A
  0
BLOCK_RECORD
  5
1B
330
9
100
AcDbSymbolTableRecord
100
AcDbBlockTableRecord
  2
*Paper_Space
340
1E
  0
ENDTAB
  0
ENDSEC
  0
SECTION
  2
BLOCKS
  0
BLOCK
  5
18
330
17
100
AcDbEntity
  8
0
100
AcDbBlockBegin
  2
*Model_Space
 70
0
 10
0.0
 20
0.0
 30
0.0
  3
*Model_Space
  1

  0
ENDBLK
  5
19
330
17
100
AcDbEntity
  8
0
100
AcDbBlockEnd
  0
BLOCK
  5
1C
330
1B
100
AcDbEntity
  8
0
100
AcDbBlockBegin
  2
*Paper_Space
 70
0
 10
0.0
 20
0.0
 30
0.0
  3
*Paper_Space
  1

  0
ENDBLK
  5
1D
330
1B
100
AcDbEntity
  8
0
100
AcDbBlockEnd
  0
ENDSEC
  0
SECTION
  2
ENTITIES
  0
LWPOLYLINE
  5
31
330
17
100
AcDbEntity
  8
CUT
100
AcDbPolyline
 90
56
 70
1
 10
3.91
 20
26.202
 10
3.924
 20
26.528
 10
3.967
 20
26.829
 10
4.039
 20
27.104
 10
4.142
 20
27.352
 10
4.274
 20
27.572
 10
4.436
 20
27.764
 10
4.628
 20
27.926
 10
4.848
 20
28.058
 10
5.096
 20
28.161
 10
5.371
 20
28.233
 10
5.672
 20
28.276
 10
5.998
 20
28.29
 10
26.202
 20
28.29
 10
26.528
 20
28.276
 10
26.829
 20
28.233
 10
27.104
 20
28.161
 10
27.352
 20
28.058
 10
27.572
 20
27.926
 10
27.764
 20
27.764
 10
27.926
 20
27.572
 10
28.058
 20
27.352
 10
28.161
 20
27.104
 10
28.233
 20
26.829
 10
28.276
 20
26.528
 10
28.29
 20
26.202
 10
28.29
 20
20.69
 10
30.79
 20
20.69
 10
30.79
 20
11.51
 10
28.29
 20
11.51
 10
28.29
 20
5.998
 10
28.276
 20
5.672
 10
28.233
 20
5.371
 10
28.161
 20
5.096
 10
28.058
 20
4.848
 10
27.926
 20
4.628
 10
27.764
 20
4.436
 10
27.572
 20
4.274
 10
27.352
 20
4.142
 10
27.104
 20
4.039
 10
26.829
 20
3.967
 10
26.528
 20
3.924
 10
26.202
 20
3.91
 10
5.998
 20
3.91
 10
5.672
 20
3.924
 10
5.371
 20
3.967
 10
5.096
 20
4.039
 10
4.848
 20
4.142
 10
4.628
 20
4.274
 10
4.436
 20
4.436
 10
4.274
 20
4.628
 10
4.142
 20
4.848
 10
4.039
 20
5.096
 10
3.967
 20
5.371
 10
3.924
 20
5.672
 10
3.91
 20
5.998
  0
HATCH
  5
32
330
17
100
AcDbEntity
  8
RASTER
 62
7
100
AcDbHatch
 10
0.0
 20
0.0
 30
0.0
210
0.0
220
0.0
230
1.0
  2
SOLID
 70
1
 71
0
 91
10
 92
3
 72
0
 73
1
 93
4
 10
12.228
 20
20.6
 10
30.45
 20
20.6
 10
30.45
 20
11.6
 10
12.228
 20
11.6
 97
0
 92
3
 72
0
 73
1
 93
5
 10
13.778
 20
20.1
 10
13.778
 20
12.1
 10
14.478
 20
12.1
 10
14.478
 20
20.1
 10
13.778
 20
20.1
 97
0
 92
3
 72
0
 73
1
 93
5
 10
15.678
 20
20.1
 10
15.678
 20
12.1
 10
16.378
 20
12.1
 10
16.378
 20
20.1
 10
15.678
 20
20.1
 97
0
 92
3
 72
0
 73
1
 93
5
 10
17.578
 20
20.1
 10
17.578
 20
12.1
 10
18.278
 20
12.1
 10
18.278
 20
20.1
 10
17.578
 20
20.1
 97
0
 92
3
 72
0
 73
1
 93
5
 10
19.478
 20
20.1
 10
19.478
 20
12.1
 10
20.178
 20
12.1
 10
20.178
 20
20.1
 10
19.478
 20
20.1
 97
0
 92
3
 72
0
 73
1
 93
5
 10
21.378
 20
20.1
 10
21.378
 20
12.1
 10
22.078
 20
12.1
 10
22.078
 20
20.1
 10
21.378
 20
20.1
 97
0
 92
3
 72
0
 73
1
 93
5
 10
23.278
 20
20.1
 10
23.278
 20
12.1
 10
23.978
 20
12.1
 10
23.978
 20
20.1
 10
23.278
 20
20.1
 97
0
 92
3
 72
0
 73
1
 93
5
 10
25.178
 20
20.1
 10
25.178
 20
12.1
 10
25.878
 20
12.1
 10
25.878
 20
20.1
 10
25.178
 20
20.1
 97
0
 92
3
 72
0
 73
1
 93
5
 10
27.078
 20
20.1
 10
27.078
 20
12.1
 10
27.778
 20
12.1
 10
27.778
 20
20.1
 10
27.078
 20
20.1
 97
0
 92
3
 72
0
 73
1
 93
5
 10
28.978
 20
20.1
 10
28.978
 20
12.1
 10
29.678
 20
12.1
 10
29.678
 20
20.1
 10
28.978
 20
20.1
 97
0
 75
0
 76
1
 98
0
  0
HATCH
  5
33
330
17
100
AcDbEntity
  8
RASTER
 62
7
100
AcDbHatch
 10
0.0
 20
0.0
 30
0.0
210
0.0
220
0.0
230
1.0
  2
SOLID
 70
1
 71
0
 91
1
 92
3
 72
0
 73
1
 93
48
 10
14.428
 20
21.7
 10
14.419
 20
21.556
 10
14.391
 20
21.415
 10
14.344
 20
21.279
 10
14.281
 20
21.15
 10
14.201
 20
21.03
 10
14.106
 20
20.922
 10
13.998
 20
20.827
 10
13.878
 20
20.747
 10
13.749
 20
20.684
 10
13.613
 20
20.637
 10
13.472
 20
20.609
 10
13.328
 20
20.6
 10
13.184
 20
20.609
 10
13.043
 20
20.637
 10
12.907
 20
20.684
 10
12.778
 20
20.747
 10
12.658
 20
20.827
 10
12.55
 20
20.922
 10
12.455
 20
21.03
 10
12.375
 20
21.15
 10
12.312
 20
21.279
 10
12.265
 20
21.415
 10
12.237
 20
21.556
 10
12.228
 20
21.7
 10
12.237
 20
21.844
 10
12.265
 20
21.985
 10
12.312
 20
22.121
 10
12.375
 20
22.25
 10
12.455
 20
22.37
 10
12.55
 20
22.478
 10
12.658
 20
22.573
 10
12.778
 20
22.653
 10
12.907
 20
22.716
 10
13.043
 20
22.763
 10
13.184
 20
22.791
 10
13.328
 20
22.8
 10
13.472
 20
22.791
 10
13.613
 20
22.763
 10
13.749
 20
22.716
 10
13.878
 20
22.653
 10
13.998
 20
22.573
 10
14.106
 20
22.478
 10
14.201
 20
22.37
 10
14.281
 20
22.25
 10
14.344
 20
22.121
 10
14.391
 20
21.985
 10
14.419
 20
21.844
 97
0
 75
0
 76
1
 98
0
  0
HATCH
  5
34
330
17
100
AcDbEntity
  8
RASTER
 62
7
100
AcDbHatch
 10
0.0
 20
0.0
 30
0.0
210
0.0
220
0.0
230
1.0
  2
SOLID
 70
1
 71
0
 91
1
 92
3
 72
0
 73
1
 93
48
 10
14.428
 20
10.5
 10
14.419
 20
10.356
 10
14.391
 20
10.215
 10
14.344
 20
10.079
 10
14.281
 20
9.95
 10
14.201
 20
9.83
 10
14.106
 20
9.722
 10
13.998
 20
9.627
 10
13.878
 20
9.547
 10
13.749
 20
9.484
 10
13.613
 20
9.437
 10
13.472
 20
9.409
 10
13.328
 20
9.4
 10
13.184
 20
9.409
 10
13.043
 20
9.437
 10
12.907
 20
9.484
 10
12.778
 20
9.547
 10
12.658
 20
9.627
 10
12.55
 20
9.722
 10
12.455
 20
9.83
 10
12.375
 20
9.95
 10
12.312
 20
10.079
 10
12.265
 20
10.215
 10
12.237
 20
10.356
 10
12.228
 20
10.5
 10
12.237
 20
10.644
 10
12.265
 20
10.785
 10
12.312
 20
10.921
 10
12.375
 20
11.05
 10
12.455
 20
11.17
 10
12.55
 20
11.278
 10
12.658
 20
11.373
 10
12.778
 20
11.453
 10
12.907
 20
11.516
 10
13.043
 20
11.563
 10
13.184
 20
11.591
 10
13.328
 20
11.6
 10
13.472
 20
11.591
 10
13.613
 20
11.563
 10
13.749
 20
11.516
 10
13.878
 20
11.453
 10
13.998
 20
11.373
 10
14.106
 20
11.278
 10
14.201
 20
11.17
 10
14.281
 20
11.05
 10
14.344
 20
10.921
 10
14.391
 20
10.785
 10
14.419
 20
10.644
 97
0
 75
0
 76
1
 98
0
  0
HATCH
  5
35
330
17
100
AcDbEntity
  8
RASTER
 62
7
100
AcDbHatch
 10
0.0
 20
0.0
 30
0.0
210
0.0
220
0.0
230
1.0
  2
SOLID
 70
1
 71
0
 91
1
 92
3
 72
0
 73
1
 93
48
 10
27.7
 20
21.7
 10
27.691
 20
21.556
 10
27.663
 20
21.415
 10
27.616
 20
21.279
 10
27.553
 20
21.15
 10
27.473
 20
21.03
 10
27.378
 20
20.922
 10
27.27
 20
20.827
 10
27.15
 20
20.747
 10
27.021
 20
20.684
 10
26.885
 20
20.637
 10
26.744
 20
20.609
 10
26.6
 20
20.6
 10
26.456
 20
20.609
 10
26.315
 20
20.637
 10
26.179
 20
20.684
 10
26.05
 20
20.747
 10
25.93
 20
20.827
 10
25.822
 20
20.922
 10
25.727
 20
21.03
 10
25.647
 20
21.15
 10
25.584
 20
21.279
 10
25.537
 20
21.415
 10
25.509
 20
21.556
 10
25.5
 20
21.7
 10
25.509
 20
21.844
 10
25.537
 20
21.985
 10
25.584
 20
22.121
 10
25.647
 20
22.25
 10
25.727
 20
22.37
 10
25.822
 20
22.478
 10
25.93
 20
22.573
 10
26.05
 20
22.653
 10
26.179
 20
22.716
 10
26.315
 20
22.763
 10
26.456
 20
22.791
 10
26.6
 20
22.8
 10
26.744
 20
22.791
 10
26.885
 20
22.763
 10
27.021
 20
22.716
 10
27.15
 20
22.653
 10
27.27
 20
22.573
 10
27.378
 20
22.478
 10
27.473
 20
22.37
 10
27.553
 20
22.25
 10
27.616
 20
22.121
 10
27.663
 20
21.985
 10
27.691
 20
21.844
 97
0
 75
0
 76
1
 98
0
  0
HATCH
  5
36
330
17
100
AcDbEntity
  8
RASTER
 62
7
100
AcDbHatch
 10
0.0
 20
0.0
 30
0.0
210
0.0
220
0.0
230
1.0
  2
SOLID
 70
1
 71
0
 91
1
 92
3
 72
0
 73
1
 93
48
 10
27.7
 20
10.5
 10
27.691
 20
10.356
 10
27.663
 20
10.215
 10
27.616
 20
10.079
 10
27.553
 20
9.95
 10
27.473
 20
9.83
 10
27.378
 20
9.722
 10
27.27
 20
9.627
 10
27.15
 20
9.547
 10
27.021
 20
9.484
 10
26.885
 20
9.437
 10
26.744
 20
9.409
 10
26.6
 20
9.4
 10
26.456
 20
9.409
 10
26.315
 20
9.437
 10
26.179
 20
9.484
 10
26.05
 20
9.547
 10
25.93
 20
9.627
 10
25.822
 20
9.722
 10
25.727
 20
9.83
 10
25.647
 20
9.95
 10
25.584
 20
10.079
 10
25.537
 20
10.215
 10
25.509
 20
10.356
 10
25.5
 20
10.5
 10
25.509
 20
10.644
 10
25.537
 20
10.785
 10
25.584
 20
10.921
 10
25.647
 20
11.05
 10
25.727
 20
11.17
 10
25.822
 20
11.278
 10
25.93
 20
11.373
 10
26.05
 20
11.453
 10
26.179
 20
11.516
 10
26.315
 20
11.563
 10
26.456
 20
11.591
 10
26.6
 20
11.6
 10
26.744
 20
11.591
 10
26.885
 20
11.563
 10
27.021
 20
11.516
 10
27.15
 20
11.453
 10
27.27
 20
11.373
 10
27.378
 20
11.278
 10
27.473
 20
11.17
 10
27.553
 20
11.05
 10
27.616
 20
10.921
 10
27.663
 20
10.785
 10
27.691
 20
10.644
 97
0
 75
0
 76
1
 98
0
  0
LWPOLYLINE
  5
37
330
17
100
AcDbEntity
  8
CUT
100
AcDbPolyline
 90
56
 70
1
 10
34.61
 20
26.202
 10
34.624
 20
26.528
 10
34.667
 20
26.829
 10
34.739
 20
27.104
 10
34.842
 20
27.352
 10
34.974
 20
27.572
 10
35.136
 20
27.764
 10
35.328
 20
27.926
 10
35.548
 20
28.058
 10
35.796
 20
28.161
 10
36.071
 20
28.233
 10
36.372
 20
28.276
 10
36.698
 20
28.29
 10
56.902
 20
28.29
 10
57.228
 20
28.276
 10
57.529
 20
28.233
 10
57.804
 20
28.161
 10
58.052
 20
28.058
 10
58.272
 20
27.926
 10
58.464
 20
27.764
 10
58.626
 20
27.572
 10
58.758
 20
27.352
 10
58.861
 20
27.104
 10
58.933
 20
26.829
 10
58.976
 20
26.528
 10
58.99
 20
26.202
 10
58.99
 20
20.69
 10
61.49
 20
20.69
 10
61.49
 20
11.51
 10
58.99
 20
11.51
 10
58.99
 20
5.998
 10
58.976
 20
5.672
 10
58.933
 20
5.371
 10
58.861
 20
5.096
 10
58.758
 20
4.848
 10
58.626
 20
4.628
 10
58.464
 20
4.436
 10
58.272
 20
4.274
 10
58.052
 20
4.142
 10
57.804
 20
4.039
 10
57.529
 20
3.967
 10
57.228
 20
3.924
 10
56.902
 20
3.91
 10
36.698
 20
3.91
 10
36.372
 20
3.924
 10
36.071
 20
3.967
 10
35.796
 20
4.039
 10
35.548
 20
4.142
 10
35.328
 20
4.274
 10
35.136
 20
4.436
 10
34.974
 20
4.628
 10
34.842
 20
4.848
 10
34.739
 20
5.096
 10
34.667
 20
5.371
 10
34.624
 20
5.672
 10
34.61
 20
5.998
  0
HATCH
  5
38
330
17
100
AcDbEntity
  8
RASTER
 62
7
100
AcDbHatch
 10
0.0
 20
0.0
 30
0.0
210
0.0
220
0.0
230
1.0
  2
SOLID
 70
1
 71
0
 91
10
 92
3
 72
0
 73
1
 93
4
 10
42.928
 20
20.6
 10
61.15
 20
20.6
 10
61.15
 20
11.6
 10
42.928
 20
11.6
 97
0
 92
3
 72
0
 73
1
 93
5
 10
44.478
 20
20.1
 10
44.478
 20
12.1
 10
45.178
 20
12.1
 10
45.178
 20
20.1
 10
44.478
 20
20.1
 97
0
 92
3
 72
0
 73
1
 93
5
 10
46.378
 20
20.1
 10
46.378
 20
12.1
 10
47.078
 20
12.1
 10
47.078
 20
20.1
 10
46.378
 20
20.1
 97
0
 92
3
 72
0
 73
1
 93
5
 10
48.278
 20
20.1
 10
48.278
 20
12.1
 10
48.978
 20
12.1
 10
48.978
 20
20.1
 10
48.278
 20
20.1
 97
0
 92
3
 72
0
 73
1
 93
5
 10
50.178
 20
20.1
 10
50.178
 20
12.1
 10
50.878
 20
12.1
 10
50.878
 20
20.1
 10
50.178
 20
20.1
 97
0
 92
3
 72
0
 73
1
 93
5
 10
52.078
 20
20.1
 10
52.078
 20
12.1
 10
52.778
 20
12.1
 10
52.778
 20
20.1
 10
52.078
 20
20.1
 97
0
 92
3
 72
0
 73
1
 93
5
 10
53.978
 20
20.1
 10
53.978
 20
12.1
 10
54.678
 20
12.1
 10
54.678
 20
20.1
 10
53.978
 20
20.1
 97
0
 92
3
 72
0
 73
1
 93
5
 10
55.878
 20
20.1
 10
55.878
 20
12.1
 10
56.578
 20
12.1
 10
56.578
 20
20.1
 10
55.878
 20
20.1
 97
0
 92
3
 72
0
 73
1
 93
5
 10
57.778
 20
20.1
 10
57.778
 20
12.1
 10
58.478
 20
12.1
 10
58.478
 20
20.1
 10
57.778
 20
20.1
 97
0
 92
3
 72
0
 73
1
 93
5
 10
59.678
 20
20.1
 10
59.678
 20
12.1
 10
60.378
 20
12.1
 10
60.378
 20
20.1
 10
59.678
 20
20.1
 97
0
 75
0
 76
1
 98
0
  0
HATCH
  5
39
330
17
100
AcDbEntity
  8
RASTER
 62
7
100
AcDbHatch
 10
0.0
 20
0.0
 30
0.0
210
0.0
220
0.0
230
1.0
  2
SOLID
 70
1
 71
0
 91
1
 92
3
 72
0
 73
1
 93
48
 10
45.128
 20
21.7
 10
45.119
 20
21.556
 10
45.091
 20
21.415
 10
45.044
 20
21.279
 10
44.981
 20
21.15
 10
44.901
 20
21.03
 10
44.806
 20
20.922
 10
44.698
 20
20.827
 10
44.578
 20
20.747
 10
44.449
 20
20.684
 10
44.313
 20
20.637
 10
44.172
 20
20.609
 10
44.028
 20
20.6
 10
43.884
 20
20.609
 10
43.743
 20
20.637
 10
43.607
 20
20.684
 10
43.478
 20
20.747
 10
43.358
 20
20.827
 10
43.25
 20
20.922
 10
43.155
 20
21.03
 10
43.075
 20
21.15
 10
43.012
 20
21.279
 10
42.965
 20
21.415
 10
42.937
 20
21.556
 10
42.928
 20
21.7
 10
42.937
 20
21.844
 10
42.965
 20
21.985
 10
43.012
 20
22.121
 10
43.075
 20
22.25
 10
43.155
 20
22.37
 10
43.25
 20
22.478
 10
43.358
 20
22.573
 10
43.478
 20
22.653
 10
43.607
 20
22.716
 10
43.743
 20
22.763
 10
43.884
 20
22.791
 10
44.028
 20
22.8
 10
44.172
 20
22.791
 10
44.313
 20
22.763
 10
44.449
 20
22.716
 10
44.578
 20
22.653
 10
44.698
 20
22.573
 10
44.806
 20
22.478
 10
44.901
 20
22.37
 10
44.981
 20
22.25
 10
45.044
 20
22.121
 10
45.091
 20
21.985
 10
45.119
 20
21.844
 97
0
 75
0
 76
1
 98
0
  0
HATCH
  5
3A
330
17
100
AcDbEntity
  8
RASTER
 62
7
100
AcDbHatch
 10
0.0
 20
0.0
 30
0.0
210
0.0
220
0.0
230
1.0
  2
SOLID
 70
1
 71
0
 91
1
 92
3
 72
0
 73
1
 93
48
 10
45.128
 20
10.5
 10
45.119
 20
10.356
 10
45.091
 20
10.215
 10
45.044
 20
10.079
 10
44.981
 20
9.95
 10
44.901
 20
9.83
 10
44.806
 20
9.722
 10
44.698
 20
9.627
 10
44.578
 20
9.547
 10
44.449
 20
9.484
 10
44.313
 20
9.437
 10
44.172
 20
9.409
 10
44.028
 20
9.4
 10
43.884
 20
9.409
 10
43.743
 20
9.437
 10
43.607
 20
9.484
 10
43.478
 20
9.547
 10
43.358
 20
9.627
 10
43.25
 20
9.722
 10
43.155
 20
9.83
 10
43.075
 20
9.95
 10
43.012
 20
10.079
 10
42.965
 20
10.215
 10
42.937
 20
10.356
 10
42.928
 20
10.5
 10
42.937
 20
10.644
 10
42.965
 20
10.785
 10
43.012
 20
10.921
 10
43.075
 20
11.05
 10
43.155
 20
11.17
 10
43.25
 20
11.278
 10
43.358
 20
11.373
 10
43.478
 20
11.453
 10
43.607
 20
11.516
 10
43.743
 20
11.563
 10
43.884
 20
11.591
 10
44.028
 20
11.6
 10
44.172
 20
11.591
 10
44.313
 20
11.563
 10
44.449
 20
11.516
 10
44.578
 20
11.453
 10
44.698
 20
11.373
 10
44.806
 20
11.278
 10
44.901
 20
11.17
 10
44.981
 20
11.05
 10
45.044
 20
10.921
 10
45.091
 20
10.785
 10
45.119
 20
10.644
 97
0
 75
0
 76
1
 98
0
  0
HATCH
  5
3B
330
17
100
AcDbEntity
  8
RASTER
 62
7
100
AcDbHatch
 10
0.0
 20
0.0
 30
0.0
210
0.0
220
0.0
230
1.0
  2
SOLID
 70
1
 71
0
 91
1
 92
3
 72
0
 73
1
 93
48
 10
58.4
 20
21.7
 10
58.391
 20
21.556
 10
58.363
 20
21.415
 10
58.316
 20
21.279
 10
58.253
 20
21.15
 10
58.173
 20
21.03
 10
58.078
 20
20.922
 10
57.97
 20
20.827
 10
57.85
 20
20.747
 10
57.721
 20
20.684
 10
57.585
 20
20.637
 10
57.444
 20
20.609
 10
57.3
 20
20.6
 10
57.156
 20
20.609
 10
57.015
 20
20.637
 10
56.879
 20
20.684
 10
56.75
 20
20.747
 10
56.63
 20
20.827
 10
56.522
 20
20.922
 10
56.427
 20
21.03
 10
56.347
 20
21.15
 10
56.284
 20
21.279
 10
56.237
 20
21.415
 10
56.209
 20
21.556
 10
56.2
 20
21.7
 10
56.209
 20
21.844
 10
56.237
 20
21.985
 10
56.284
 20
22.121
 10
56.347
 20
22.25
 10
56.427
 20
22.37
 10
56.522
 20
22.478
 10
56.63
 20
22.573
 10
56.75
 20
22.653
 10
56.879
 20
22.716
 10
57.015
 20
22.763
 10
57.156
 20
22.791
 10
57.3
 20
22.8
 10
57.444
 20
22.791
 10
57.585
 20
22.763
 10
57.721
 20
22.716
 10
57.85
 20
22.653
 10
57.97
 20
22.573
 10
58.078
 20
22.478
 10
58.173
 20
22.37
 10
58.253
 20
22.25
 10
58.316
 20
22.121
 10
58.363
 20
21.985
 10
58.391
 20
21.844
 97
0
 75
0
 76
1
 98
0
  0
HATCH
  5
3C
330
17
100
AcDbEntity
  8
RASTER
 62
7
100
AcDbHatch
 10
0.0
 20
0.0
 30
0.0
210
0.0
220
0.0
230
1.0
  2
SOLID
 70
1
 71
0
 91
1
 92
3
 72
0
 73
1
 93
48
 10
58.4
 20
10.5
 10
58.391
 20
10.356
 10
58.363
 20
10.215
 10
58.316
 20
10.079
 10
58.253
 20
9.95
 10
58.173
 20
9.83
 10
58.078
 20
9.722
 10
57.97
 20
9.627
 10
57.85
 20
9.547
 10
57.721
 20
9.484
 10
57.585
 20
9.437
 10
57.444
 20
9.409
 10
57.3
 20
9.4
 10
57.156
 20
9.409
 10
57.015
 20
9.437
 10
56.879
 20
9.484
 10
56.75
 20
9.547
 10
56.63
 20
9.627
 10
56.522
 20
9.722
 10
56.427
 20
9.83
 10
56.347
 20
9.95
 10
56.284
 20
10.079
 10
56.237
 20
10.215
 10
56.209
 20
10.356
 10
56.2
 20
10.5
 10
56.209
 20
10.644
 10
56.237
 20
10.785
 10
56.284
 20
10.921
 10
56.347
 20
11.05
 10
56.427
 20
11.17
 10
56.522
 20
11.278
 10
56.63
 20
11.373
 10
56.75
 20
11.453
 10
56.879
 20
11.516
 10
57.015
 20
11.563
 10
57.156
 20
11.591
 10
57.3
 20
11.6
 10
57.444
 20
11.591
 10
57.585
 20
11.563
 10
57.721
 20
11.516
 10
57.85
 20
11.453
 10
57.97
 20
11.373
 10
58.078
 20
11.278
 10
58.173
 20
11.17
 10
58.253
 20
11.05
 10
58.316
 20
10.921
 10
58.363
 20
10.785
 10
58.391
 20
10.644
 97
0
 75
0
 76
1
 98
0
  0
LWPOLYLINE
  5
3D
330
17
100
AcDbEntity
  8
CUT
100
AcDbPolyline
 90
56
 70
1
 10
65.31
 20
26.202
 10
65.324
 20
26.528
 10
65.367
 20
26.829
 10
65.439
 20
27.104
 10
65.542
 20
27.352
 10
65.674
 20
27.572
 10
65.836
 20
27.764
 10
66.028
 20
27.926
 10
66.248
 20
28.058
 10
66.496
 20
28.161
 10
66.771
 20
28.233
 10
67.072
 20
28.276
 10
67.398
 20
28.29
 10
87.602
 20
28.29
 10
87.928
 20
28.276
 10
88.229
 20
28.233
 10
88.504
 20
28.161
 10
88.752
 20
28.058
 10
88.972
 20
27.926
 10
89.164
 20
27.764
 10
89.326
 20
27.572
 10
89.458
 20
27.352
 10
89.561
 20
27.104
 10
89.633
 20
26.829
 10
89.676
 20
26.528
 10
89.69
 20
26.202
 10
89.69
 20
20.69
 10
92.19
 20
20.69
 10
92.19
 20
11.51
 10
89.69
 20
11.51
 10
89.69
 20
5.998
 10
89.676
 20
5.672
 10
89.633
 20
5.371
 10
89.561
 20
5.096
 10
89.458
 20
4.848
 10
89.326
 20
4.628
 10
89.164
 20
4.436
 10
88.972
 20
4.274
 10
88.752
 20
4.142
 10
88.504
 20
4.039
 10
88.229
 20
3.967
 10
87.928
 20
3.924
 10
87.602
 20
3.91
 10
67.398
 20
3.91
 10
67.072
 20
3.924
 10
66.771
 20
3.967
 10
66.496
 20
4.039
 10
66.248
 20
4.142
 10
66.028
 20
4.274
 10
65.836
 20
4.436
 10
65.674
 20
4.628
 10
65.542
 20
4.848
 10
65.439
 20
5.096
 10
65.367
 20
5.371
 10
65.324
 20
5.672
 10
65.31
 20
5.998
  0
HATCH
  5
3E
330
17
100
AcDbEntity
  8
RASTER
 62
7
100
AcDbHatch
 10
0.0
 20
0.0
 30
0.0
210
0.0
220
0.0
230
1.0
  2
SOLID
 70
1
 71
0
 91
10
 92
3
 72
0
 73
1
 93
4
 10
73.628
 20
20.6
 10
91.85
 20
20.6
 10
91.85
 20
11.6
 10
73.628
 20
11.6
 97
0
 92
3
 72
0
 73
1
 93
5
 10
75.178
 20
20.1
 10
75.178
 20
12.1
 10
75.878
 20
12.1
 10
75.878
 20
20.1
 10
75.178
 20
20.1
 97
0
 92
3
 72
0
 73
1
 93
5
 10
77.078
 20
20.1
 10
77.078
 20
12.1
 10
77.778
 20
12.1
 10
77.778
 20
20.1
 10
77.078
 20
20.1
 97
0
 92
3
 72
0
 73
1
 93
5
 10
78.978
 20
20.1
 10
78.978
 20
12.1
 10
79.678
 20
12.1
 10
79.678
 20
20.1
 10
78.978
 20
20.1
 97
0
 92
3
 72
0
 73
1
 93
5
 10
80.878
 20
20.1
 10
80.878
 20
12.1
 10
81.578
 20
12.1
 10
81.578
 20
20.1
 10
80.878
 20
20.1
 97
0
 92
3
 72
0
 73
1
 93
5
 10
82.778
 20
20.1
 10
82.778
 20
12.1
 10
83.478
 20
12.1
 10
83.478
 20
20.1
 10
82.778
 20
20.1
 97
0
 92
3
 72
0
 73
1
 93
5
 10
84.678
 20
20.1
 10
84.678
 20
12.1
 10
85.378
 20
12.1
 10
85.378
 20
20.1
 10
84.678
 20
20.1
 97
0
 92
3
 72
0
 73
1
 93
5
 10
86.578
 20
20.1
 10
86.578
 20
12.1
 10
87.278
 20
12.1
 10
87.278
 20
20.1
 10
86.578
 20
20.1
 97
0
 92
3
 72
0
 73
1
 93
5
 10
88.478
 20
20.1
 10
88.478
 20
12.1
 10
89.178
 20
12.1
 10
89.178
 20
20.1
 10
88.478
 20
20.1
 97
0
 92
3
 72
0
 73
1
 93
5
 10
90.378
 20
20.1
 10
90.378
 20
12.1
 10
91.078
 20
12.1
 10
91.078
 20
20.1
 10
90.378
 20
20.1
 97
0
 75
0
 76
1
 98
0
  0
HATCH
  5
3F
330
17
100
AcDbEntity
  8
RASTER
 62
7
100
AcDbHatch
 10
0.0
 20
0.0
 30
0.0
210
0.0
220
0.0
230
1.0
  2
SOLID
 70
1
 71
0
 91
1
 92
3
 72
0
 73
1
 93
48
 10
75.828
 20
21.7
 10
75.819
 20
21.556
 10
75.791
 20
21.415
 10
75.744
 20
21.279
 10
75.681
 20
21.15
 10
75.601
 20
21.03
 10
75.506
 20
20.922
 10
75.398
 20
20.827
 10
75.278
 20
20.747
 10
75.149
 20
20.684
 10
75.013
 20
20.637
 10
74.872
 20
20.609
 10
74.728
 20
20.6
 10
74.584
 20
20.609
 10
74.443
 20
20.637
 10
74.307
 20
20.684
 10
74.178
 20
20.747
 10
74.058
 20
20.827
 10
73.95
 20
20.922
 10
73.855
 20
21.03
 10
73.775
 20
21.15
 10
73.712
 20
21.279
 10
73.665
 20
21.415
 10
73.637
 20
21.556
 10
73.628
 20
21.7
 10
73.637
 20
21.844
 10
73.665
 20
21.985
 10
73.712
 20
22.121
 10
73.775
 20
22.25
 10
73.855
 20
22.37
 10
73.95
 20
22.478
 10
74.058
 20
22.573
 10
74.178
 20
22.653
 10
74.307
 20
22.716
 10
74.443
 20
22.763
 10
74.584
 20
22.791
 10
74.728
 20
22.8
 10
74.872
 20
22.791
 10
75.013
 20
22.763
 10
75.149
 20
22.716
 10
75.278
 20
22.653
 10
75.398
 20
22.573
 10
75.506
 20
22.478
 10
75.601
 20
22.37
 10
75.681
 20
22.25
 10
75.744
 20
22.121
 10
75.791
 20
21.985
 10
75.819
 20
21.844
 97
0
 75
0
 76
1
 98
0
  0
HATCH
  5
40
330
17
100
AcDbEntity
  8
RASTER
 62
7
100
AcDbHatch
 10
0.0
 20
0.0
 30
0.0
210
0.0
220
0.0
230
1.0
  2
SOLID
 70
1
 71
0
 91
1
 92
3
 72
0
 73
1
 93
48
 10
75.828
 20
10.5
 10
75.819
 20
10.356
 10
75.791
 20
10.215
 10
75.744
 20
10.079
 10
75.681
 20
9.95
 10
75.601
 20
9.83
 10
75.506
 20
9.722
 10
75.398
 20
9.627
 10
75.278
 20
9.547
 10
75.149
 20
9.484
 10
75.013
 20
9.437
 10
74.872
 20
9.409
 10
74.728
 20
9.4
 10
74.584
 20
9.409
 10
74.443
 20
9.437
 10
74.307
 20
9.484
 10
74.178
 20
9.547
 10
74.058
 20
9.627
 10
73.95
 20
9.722
 10
73.855
 20
9.83
 10
73.775
 20
9.95
 10
73.712
 20
10.079
 10
73.665
 20
10.215
 10
73.637
 20
10.356
 10
73.628
 20
10.5
 10
73.637
 20
10.644
 10
73.665
 20
10.785
 10
73.712
 20
10.921
 10
73.775
 20
11.05
 10
73.855
 20
11.17
 10
73.95
 20
11.278
 10
74.058
 20
11.373
 10
74.178
 20
11.453
 10
74.307
 20
11.516
 10
74.443
 20
11.563
 10
74.584
 20
11.591
 10
74.728
 20
11.6
 10
74.872
 20
11.591
 10
75.013
 20
11.563
 10
75.149
 20
11.516
 10
75.278
 20
11.453
 10
75.398
 20
11.373
 10
75.506
 20
11.278
 10
75.601
 20
11.17
 10
75.681
 20
11.05
 10
75.744
 20
10.921
 10
75.791
 20
10.785
 10
75.819
 20
10.644
 97
0
 75
0
 76
1
 98
0
  0
HATCH
  5
41
330
17
100
AcDbEntity
  8
RASTER
 62
7
100
AcDbHatch
 10
0.0
 20
0.0
 30
0.0
210
0.0
220
0.0
230
1.0
  2
SOLID
 70
1
 71
0
 91
1
 92
3
 72
0
 73
1
 93
48
 10
89.1
 20
21.7
 10
89.091
 20
21.556
 10
89.063
 20
21.415
 10
89.016
 20
21.279
 10
88.953
 20
21.15
 10
88.873
 20
21.03
 10
88.778
 20
20.922
 10
88.67
 20
20.827
 10
88.55
 20
20.747
 10
88.421
 20
20.684
 10
88.285
 20
20.637
 10
88.144
 20
20.609
 10
88.0
 20
20.6
 10
87.856
 20
20.609
 10
87.715
 20
20.637
 10
87.579
 20
20.684
 10
87.45
 20
20.747
 10
87.33
 20
20.827
 10
87.222
 20
20.922
 10
87.127
 20
21.03
 10
87.047
 20
21.15
 10
86.984
 20
21.279
 10
86.937
 20
21.415
 10
86.909
 20
21.556
 10
86.9
 20
21.7
 10
86.909
 20
21.844
 10
86.937
 20
21.985
 10
86.984
 20
22.121
 10
87.047
 20
22.25
 10
87.127
 20
22.37
 10
87.222
 20
22.478
 10
87.33
 20
22.573
 10
87.45
 20
22.653
 10
87.579
 20
22.716
 10
87.715
 20
22.763
 10
87.856
 20
22.791
 10
88.0
 20
22.8
 10
88.144
 20
22.791
 10
88.285
 20
22.763
 10
88.421
 20
22.716
 10
88.55
 20
22.653
 10
88.67
 20
22.573
 10
88.778
 20
22.478
 10
88.873
 20
22.37
 10
88.953
 20
22.25
 10
89.016
 20
22.121
 10
89.063
 20
21.985
 10
89.091
 20
21.844
 97
0
 75
0
 76
1
 98
0
  0
HATCH
  5
42
330
17
100
AcDbEntity
  8
RASTER
 62
7
100
AcDbHatch
 10
0.0
 20
0.0
 30
0.0
210
0.0
220
0.0
230
1.0
  2
SOLID
 70
1
 71
0
 91
1
 92
3
 72
0
 73
1
 93
48
 10
89.1
 20
10.5
 10
89.091
 20
10.356
 10
89.063
 20
10.215
 10
89.016
 20
10.079
 10
88.953
 20
9.95
 10
88.873
 20
9.83
 10
88.778
 20
9.722
 10
88.67
 20
9.627
 10
88.55
 20
9.547
 10
88.421
 20
9.484
 10
88.285
 20
9.437
 10
88.144
 20
9.409
 10
88.0
 20
9.4
 10
87.856
 20
9.409
 10
87.715
 20
9.437
 10
87.579
 20
9.484
 10
87.45
 20
9.547
 10
87.33
 20
9.627
 10
87.222
 20
9.722
 10
87.127
 20
9.83
 10
87.047
 20
9.95
 10
86.984
 20
10.079
 10
86.937
 20
10.215
 10
86.909
 20
10.356
 10
86.9
 20
10.5
 10
86.909
 20
10.644
 10
86.937
 20
10.785
 10
86.984
 20
10.921
 10
87.047
 20
11.05
 10
87.127
 20
11.17
 10
87.222
 20
11.278
 10
87.33
 20
11.373
 10
87.45
 20
11.453
 10
87.579
 20
11.516
 10
87.715
 20
11.563
 10
87.856
 20
11.591
 10
88.0
 20
11.6
 10
88.144
 20
11.591
 10
88.285
 20
11.563
 10
88.421
 20
11.516
 10
88.55
 20
11.453
 10
88.67
 20
11.373
 10
88.778
 20
11.278
 10
88.873
 20
11.17
 10
88.953
 20
11.05
 10
89.016
 20
10.921
 10
89.063
 20
10.785
 10
89.091
 20
10.644
 97
0
 75
0
 76
1
 98
0
  0
LWPOLYLINE
  5
43
330
17
100
AcDbEntity
  8
CUT
100
AcDbPolyline
 90
56
 70
1
 10
96.01
 20
26.202
 10
96.024
 20
26.528
 10
96.067
 20
26.829
 10
96.139
 20
27.104
 10
96.242
 20
27.352
 10
96.374
 20
27.572
 10
96.536
 20
27.764
 10
96.728
 20
27.926
 10
96.948
 20
28.058
 10
97.196
 20
28.161
 10
97.471
 20
28.233
 10
97.772
 20
28.276
 10
98.098
 20
28.29
 10
118.302
 20
28.29
 10
118.628
 20
28.276
 10
118.929
 20
28.233
 10
119.204
 20
28.161
 10
119.452
 20
28.058
 10
119.672
 20
27.926
 10
119.864
 20
27.764
 10
120.026
 20
27.572
 10
120.158
 20
27.352
 10
120.261
 20
27.104
 10
120.333
 20
26.829
 10
120.376
 20
26.528
 10
120.39
 20
26.202
 10
120.39
 20
20.69
 10
122.89
 20
20.69
 10
122.89
 20
11.51
 10
120.39
 20
11.51
 10
120.39
 20
5.998
 10
120.376
 20
5.672
 10
120.333
 20
5.371
 10
120.261
 20
5.096
 10
120.158
 20
4.848
 10
120.026
 20
4.628
 10
119.864
 20
4.436
 10
119.672
 20
4.274
 10
119.452
 20
4.142
 10
119.204
 20
4.039
 10
118.929
 20
3.967
 10
118.628
 20
3.924
 10
118.302
 20
3.91
 10
98.098
 20
3.91
 10
97.772
 20
3.924
 10
97.471
 20
3.967
 10
97.196
 20
4.039
 10
96.948
 20
4.142
 10
96.728
 20
4.274
 10
96.536
 20
4.436
 10
96.374
 20
4.628
 10
96.242
 20
4.848
 10
96.139
 20
5.096
 10
96.067
 20
5.371
 10
96.024
 20
5.672
 10
96.01
 20
5.998
  0
HATCH
  5
44
330
17
100
AcDbEntity
  8
RASTER
 62
7
100
AcDbHatch
 10
0.0
 20
0.0
 30
0.0
210
0.0
220
0.0
230
1.0
  2
SOLID
 70
1
 71
0
 91
10
 92
3
 72
0
 73
1
 93
4
 10
104.328
 20
20.6
 10
122.55
 20
20.6
 10
122.55
 20
11.6
 10
104.328
 20
11.6
 97
0
 92
3
 72
0
 73
1
 93
5
 10
105.878
 20
20.1
 10
105.878
 20
12.1
 10
106.578
 20
12.1
 10
106.578
 20
20.1
 10
105.878
 20
20.1
 97
0
 92
3
 72
0
 73
1
 93
5
 10
107.778
 20
20.1
 10
107.778
 20
12.1
 10
108.478
 20
12.1
 10
108.478
 20
20.1
 10
107.778
 20
20.1
 97
0
 92
3
 72
0
 73
1
 93
5
 10
109.678
 20
20.1
 10
109.678
 20
12.1
 10
110.378
 20
12.1
 10
110.378
 20
20.1
 10
109.678
 20
20.1
 97
0
 92
3
 72
0
 73
1
 93
5
 10
111.578
 20
20.1
 10
111.578
 20
12.1
 10
112.278
 20
12.1
 10
112.278
 20
20.1
 10
111.578
 20
20.1
 97
0
 92
3
 72
0
 73
1
 93
5
 10
113.478
 20
20.1
 10
113.478
 20
12.1
 10
114.178
 20
12.1
 10
114.178
 20
20.1
 10
113.478
 20
20.1
 97
0
 92
3
 72
0
 73
1
 93
5
 10
115.378
 20
20.1
 10
115.378
 20
12.1
 10
116.078
 20
12.1
 10
116.078
 20
20.1
 10
115.378
 20
20.1
 97
0
 92
3
 72
0
 73
1
 93
5
 10
117.278
 20
20.1
 10
117.278
 20
12.1
 10
117.978
 20
12.1
 10
117.978
 20
20.1
 10
117.278
 20
20.1
 97
0
 92
3
 72
0
 73
1
 93
5
 10
119.178
 20
20.1
 10
119.178
 20
12.1
 10
119.878
 20
12.1
 10
119.878
 20
20.1
 10
119.178
 20
20.1
 97
0
 92
3
 72
0
 73
1
 93
5
 10
121.078
 20
20.1
 10
121.078
 20
12.1
 10
121.778
 20
12.1
 10
121.778
 20
20.1
 10
121.078
 20
20.1
 97
0
 75
0
 76
1
 98
0
  0
HATCH
  5
45
330
17
100
AcDbEntity
  8
RASTER
 62
7
100
AcDbHatch
 10
0.0
 20
0.0
 30
0.0
210
0.0
220
0.0
230
1.0
  2
SOLID
 70
1
 71
0
 91
1
 92
3
 72
0
 73
1
 93
48
 10
106.528
 20
21.7
 10
106.519
 20
21.556
 10
106.491
 20
21.415
 10
106.444
 20
21.279
 10
106.381
 20
21.15
 10
106.301
 20
21.03
 10
106.206
 20
20.922
 10
106.098
 20
20.827
 10
105.978
 20
20.747
 10
105.849
 20
20.684
 10
105.713
 20
20.637
 10
105.572
 20
20.609
 10
105.428
 20
20.6
 10
105.284
 20
20.609
 10
105.143
 20
20.637
 10
105.007
 20
20.684
 10
104.878
 20
20.747
 10
104.758
 20
20.827
 10
104.65
 20
20.922
 10
104.555
 20
21.03
 10
104.475
 20
21.15
 10
104.412
 20
21.279
 10
104.365
 20
21.415
 10
104.337
 20
21.556
 10
104.328
 20
21.7
 10
104.337
 20
21.844
 10
104.365
 20
21.985
 10
104.412
 20
22.121
 10
104.475
 20
22.25
 10
104.555
 20
22.37
 10
104.65
 20
22.478
 10
104.758
 20
22.573
 10
104.878
 20
22.653
 10
105.007
 20
22.716
 10
105.143
 20
22.763
 10
105.284
 20
22.791
 10
105.428
 20
22.8
 10
105.572
 20
22.791
 10
105.713
 20
22.763
 10
105.849
 20
22.716
 10
105.978
 20
22.653
 10
106.098
 20
22.573
 10
106.206
 20
22.478
 10
106.301
 20
22.37
 10
106.381
 20
22.25
 10
106.444
 20
22.121
 10
106.491
 20
21.985
 10
106.519
 20
21.844
 97
0
 75
0
 76
1
 98
0
  0
HATCH
  5
46
330
17
100
AcDbEntity
  8
RASTER
 62
7
100
AcDbHatch
 10
0.0
 20
0.0
 30
0.0
210
0.0
220
0.0
230
1.0
  2
SOLID
 70
1
 71
0
 91
1
 92
3
 72
0
 73
1
 93
48
 10
106.528
 20
10.5
 10
106.519
 20
10.356
 10
106.491
 20
10.215
 10
106.444
 20
10.079
 10
106.381
 20
9.95
 10
106.301
 20
9.83
 10
106.206
 20
9.722
 10
106.098
 20
9.627
 10
105.978
 20
9.547
 10
105.849
 20
9.484
 10
105.713
 20
9.437
 10
105.572
 20
9.409
 10
105.428
 20
9.4
 10
105.284
 20
9.409
 10
105.143
 20
9.437
 10
105.007
 20
9.484
 10
104.878
 20
9.547
 10
104.758
 20
9.627
 10
104.65
 20
9.722
 10
104.555
 20
9.83
 10
104.475
 20
9.95
 10
104.412
 20
10.079
 10
104.365
 20
10.215
 10
104.337
 20
10.356
 10
104.328
 20
10.5
 10
104.337
 20
10.644
 10
104.365
 20
10.785
 10
104.412
 20
10.921
 10
104.475
 20
11.05
 10
104.555
 20
11.17
 10
104.65
 20
11.278
 10
104.758
 20
11.373
 10
104.878
 20
11.453
 10
105.007
 20
11.516
 10
105.143
 20
11.563
 10
105.284
 20
11.591
 10
105.428
 20
11.6
 10
105.572
 20
11.591
 10
105.713
 20
11.563
 10
105.849
 20
11.516
 10
105.978
 20
11.453
 10
106.098
 20
11.373
 10
106.206
 20
11.278
 10
106.301
 20
11.17
 10
106.381
 20
11.05
 10
106.444
 20
10.921
 10
106.491
 20
10.785
 10
106.519
 20
10.644
 97
0
 75
0
 76
1
 98
0
  0
HATCH
  5
47
330
17
100
AcDbEntity
  8
RASTER
 62
7
100
AcDbHatch
 10
0.0
 20
0.0
 30
0.0
210
0.0
220
0.0
230
1.0
  2
SOLID
 70
1
 71
0
 91
1
 92
3
 72
0
 73
1
 93
48
 10
119.8
 20
21.7
 10
119.791
 20
21.556
 10
119.763
 20
21.415
 10
119.716
 20
21.279
 10
119.653
 20
21.15
 10
119.573
 20
21.03
 10
119.478
 20
20.922
 10
119.37
 20
20.827
 10
119.25
 20
20.747
 10
119.121
 20
20.684
 10
118.985
 20
20.637
 10
118.844
 20
20.609
 10
118.7
 20
20.6
 10
118.556
 20
20.609
 10
118.415
 20
20.637
 10
118.279
 20
20.684
 10
118.15
 20
20.747
 10
118.03
 20
20.827
 10
117.922
 20
20.922
 10
117.827
 20
21.03
 10
117.747
 20
21.15
 10
117.684
 20
21.279
 10
117.637
 20
21.415
 10
117.609
 20
21.556
 10
117.6
 20
21.7
 10
117.609
 20
21.844
 10
117.637
 20
21.985
 10
117.684
 20
22.121
 10
117.747
 20
22.25
 10
117.827
 20
22.37
 10
117.922
 20
22.478
 10
118.03
 20
22.573
 10
118.15
 20
22.653
 10
118.279
 20
22.716
 10
118.415
 20
22.763
 10
118.556
 20
22.791
 10
118.7
 20
22.8
 10
118.844
 20
22.791
 10
118.985
 20
22.763
 10
119.121
 20
22.716
 10
119.25
 20
22.653
 10
119.37
 20
22.573
 10
119.478
 20
22.478
 10
119.573
 20
22.37
 10
119.653
 20
22.25
 10
119.716
 20
22.121
 10
119.763
 20
21.985
 10
119.791
 20
21.844
 97
0
 75
0
 76
1
 98
0
  0
HATCH
  5
48
330
17
100
AcDbEntity
  8
RASTER
 62
7
100
AcDbHatch
 10
0.0
 20
0.0
 30
0.0
210
0.0
220
0.0
230
1.0
  2
SOLID
 70
1
 71
0
 91
1
 92
3
 72
0
 73
1
 93
48
 10
119.8
 20
10.5
 10
119.791
 20
10.356
 10
119.763
 20
10.215
 10
119.716
 20
10.079
 10
119.653
 20
9.95
 10
119.573
 20
9.83
 10
119.478
 20
9.722
 10
119.37
 20
9.627
 10
119.25
 20
9.547
 10
119.121
 20
9.484
 10
118.985
 20
9.437
 10
118.844
 20
9.409
 10
118.7
 20
9.4
 10
118.556
 20
9.409
 10
118.415
 20
9.437
 10
118.279
 20
9.484
 10
118.15
 20
9.547
 10
118.03
 20
9.627
 10
117.922
 20
9.722
 10
117.827
 20
9.83
 10
117.747
 20
9.95
 10
117.684
 20
10.079
 10
117.637
 20
10.215
 10
117.609
 20
10.356
 10
117.6
 20
10.5
 10
117.609
 20
10.644
 10
117.637
 20
10.785
 10
117.684
 20
10.921
 10
117.747
 20
11.05
 10
117.827
 20
11.17
 10
117.922
 20
11.278
 10
118.03
 20
11.373
 10
118.15
 20
11.453
 10
118.279
 20
11.516
 10
118.415
 20
11.563
 10
118.556
 20
11.591
 10
118.7
 20
11.6
 10
118.844
 20
11.591
 10
118.985
 20
11.563
 10
119.121
 20
11.516
 10
119.25
 20
11.453
 10
119.37
 20
11.373
 10
119.478
 20
11.278
 10
119.573
 20
11.17
 10
119.653
 20
11.05
 10
119.716
 20
10.921
 10
119.763
 20
10.785
 10
119.791
 20
10.644
 97
0
 75
0
 76
1
 98
0
  0
LWPOLYLINE
  5
49
330
17
100
AcDbEntity
  8
CUT
100
AcDbPolyline
 90
56
 70
1
 10
126.71
 20
26.202
 10
126.724
 20
26.528
 10
126.767
 20
26.829
 10
126.839
 20
27.104
 10
126.942
 20
27.352
 10
127.074
 20
27.572
 10
127.236
 20
27.764
 10
127.428
 20
27.926
 10
127.648
 20
28.058
 10
127.896
 20
28.161
 10
128.171
 20
28.233
 10
128.472
 20
28.276
 10
128.798
 20
28.29
 10
149.002
 20
28.29
 10
149.328
 20
28.276
 10
149.629
 20
28.233
 10
149.904
 20
28.161
 10
150.152
 20
28.058
 10
150.372
 20
27.926
 10
150.564
 20
27.764
 10
150.726
 20
27.572
 10
150.858
 20
27.352
 10
150.961
 20
27.104
 10
151.033
 20
26.829
 10
151.076
 20
26.528
 10
151.09
 20
26.202
 10
151.09
 20
20.69
 10
153.59
 20
20.69
 10
153.59
 20
11.51
 10
151.09
 20
11.51
 10
151.09
 20
5.998
 10
151.076
 20
5.672
 10
151.033
 20
5.371
 10
150.961
 20
5.096
 10
150.858
 20
4.848
 10
150.726
 20
4.628
 10
150.564
 20
4.436
 10
150.372
 20
4.274
 10
150.152
 20
4.142
 10
149.904
 20
4.039
 10
149.629
 20
3.967
 10
149.328
 20
3.924
 10
149.002
 20
3.91
 10
128.798
 20
3.91
 10
128.472
 20
3.924
 10
128.171
 20
3.967
 10
127.896
 20
4.039
 10
127.648
 20
4.142
 10
127.428
 20
4.274
 10
127.236
 20
4.436
 10
127.074
 20
4.628
 10
126.942
 20
4.848
 10
126.839
 20
5.096
 10
126.767
 20
5.371
 10
126.724
 20
5.672
 10
126.71
 20
5.998
  0
HATCH
  5
4A
330
17
100
AcDbEntity
  8
RASTER
 62
7
100
AcDbHatch
 10
0.0
 20
0.0
 30
0.0
210
0.0
220
0.0
230
1.0
  2
SOLID
 70
1
 71
0
 91
10
 92
3
 72
0
 73
1
 93
4
 10
135.028
 20
20.6
 10
153.25
 20
20.6
 10
153.25
 20
11.6
 10
135.028
 20
11.6
 97
0
 92
3
 72
0
 73
1
 93
5
 10
136.578
 20
20.1
 10
136.578
 20
12.1
 10
137.278
 20
12.1
 10
137.278
 20
20.1
 10
136.578
 20
20.1
 97
0
 92
3
 72
0
 73
1
 93
5
 10
138.478
 20
20.1
 10
138.478
 20
12.1
 10
139.178
 20
12.1
 10
139.178
 20
20.1
 10
138.478
 20
20.1
 97
0
 92
3
 72
0
 73
1
 93
5
 10
140.378
 20
20.1
 10
140.378
 20
12.1
 10
141.078
 20
12.1
 10
141.078
 20
20.1
 10
140.378
 20
20.1
 97
0
 92
3
 72
0
 73
1
 93
5
 10
142.278
 20
20.1
 10
142.278
 20
12.1
 10
142.978
 20
12.1
 10
142.978
 20
20.1
 10
142.278
 20
20.1
 97
0
 92
3
 72
0
 73
1
 93
5
 10
144.178
 20
20.1
 10
144.178
 20
12.1
 10
144.878
 20
12.1
 10
144.878
 20
20.1
 10
144.178
 20
20.1
 97
0
 92
3
 72
0
 73
1
 93
5
 10
146.078
 20
20.1
 10
146.078
 20
12.1
 10
146.778
 20
12.1
 10
146.778
 20
20.1
 10
146.078
 20
20.1
 97
0
 92
3
 72
0
 73
1
 93
5
 10
147.978
 20
20.1
 10
147.978
 20
12.1
 10
148.678
 20
12.1
 10
148.678
 20
20.1
 10
147.978
 20
20.1
 97
0
 92
3
 72
0
 73
1
 93
5
 10
149.878
 20
20.1
 10
149.878
 20
12.1
 10
150.578
 20
12.1
 10
150.578
 20
20.1
 10
149.878
 20
20.1
 97
0
 92
3
 72
0
 73
1
 93
5
 10
151.778
 20
20.1
 10
151.778
 20
12.1
 10
152.478
 20
12.1
 10
152.478
 20
20.1
 10
151.778
 20
20.1
 97
0
 75
0
 76
1
 98
0
  0
HATCH
  5
4B
330
17
100
AcDbEntity
  8
RASTER
 62
7
100
AcDbHatch
 10
0.0
 20
0.0
 30
0.0
210
0.0
220
0.0
230
1.0
  2
SOLID
 70
1
 71
0
 91
1
 92
3
 72
0
 73
1
 93
48
 10
137.228
 20
21.7
 10
137.219
 20
21.556
 10
137.191
 20
21.415
 10
137.144
 20
21.279
 10
137.081
 20
21.15
 10
137.001
 20
21.03
 10
136.906
 20
20.922
 10
136.798
 20
20.827
 10
136.678
 20
20.747
 10
136.549
 20
20.684
 10
136.413
 20
20.637
 10
136.272
 20
20.609
 10
136.128
 20
20.6
 10
135.984
 20
20.609
 10
135.843
 20
20.637
 10
135.707
 20
20.684
 10
135.578
 20
20.747
 10
135.458
 20
20.827
 10
135.35
 20
20.922
 10
135.255
 20
21.03
 10
135.175
 20
21.15
 10
135.112
 20
21.279
 10
135.065
 20
21.415
 10
135.037
 20
21.556
 10
135.028
 20
21.7
 10
135.037
 20
21.844
 10
135.065
 20
21.985
 10
135.112
 20
22.121
 10
135.175
 20
22.25
 10
135.255
 20
22.37
 10
135.35
 20
22.478
 10
135.458
 20
22.573
 10
135.578
 20
22.653
 10
135.707
 20
22.716
 10
135.843
 20
22.763
 10
135.984
 20
22.791
 10
136.128
 20
22.8
 10
136.272
 20
22.791
 10
136.413
 20
22.763
 10
136.549
 20
22.716
 10
136.678
 20
22.653
 10
136.798
 20
22.573
 10
136.906
 20
22.478
 10
137.001
 20
22.37
 10
137.081
 20
22.25
 10
137.144
 20
22.121
 10
137.191
 20
21.985
 10
137.219
 20
21.844
 97
0
 75
0
 76
1
 98
0
  0
HATCH
  5
4C
330
17
100
AcDbEntity
  8
RASTER
 62
7
100
AcDbHatch
 10
0.0
 20
0.0
 30
0.0
210
0.0
220
0.0
230
1.0
  2
SOLID
 70
1
 71
0
 91
1
 92
3
 72
0
 73
1
 93
48
 10
137.228
 20
10.5
 10
137.219
 20
10.356
 10
137.191
 20
10.215
 10
137.144
 20
10.079
 10
137.081
 20
9.95
 10
137.001
 20
9.83
 10
136.906
 20
9.722
 10
136.798
 20
9.627
 10
136.678
 20
9.547
 10
136.549
 20
9.484
 10
136.413
 20
9.437
 10
136.272
 20
9.409
 10
136.128
 20
9.4
 10
135.984
 20
9.409
 10
135.843
 20
9.437
 10
135.707
 20
9.484
 10
135.578
 20
9.547
 10
135.458
 20
9.627
 10
135.35
 20
9.722
 10
135.255
 20
9.83
 10
135.175
 20
9.95
 10
135.112
 20
10.079
 10
135.065
 20
10.215
 10
135.037
 20
10.356
 10
135.028
 20
10.5
 10
135.037
 20
10.644
 10
135.065
 20
10.785
 10
135.112
 20
10.921
 10
135.175
 20
11.05
 10
135.255
 20
11.17
 10
135.35
 20
11.278
 10
135.458
 20
11.373
 10
135.578
 20
11.453
 10
135.707
 20
11.516
 10
135.843
 20
11.563
 10
135.984
 20
11.591
 10
136.128
 20
11.6
 10
136.272
 20
11.591
 10
136.413
 20
11.563
 10
136.549
 20
11.516
 10
136.678
 20
11.453
 10
136.798
 20
11.373
 10
136.906
 20
11.278
 10
137.001
 20
11.17
 10
137.081
 20
11.05
 10
137.144
 20
10.921
 10
137.191
 20
10.785
 10
137.219
 20
10.644
 97
0
 75
0
 76
1
 98
0
  0
HATCH
  5
4D
330
17
100
AcDbEntity
  8
RASTER
 62
7
100
AcDbHatch
 10
0.0
 20
0.0
 30
0.0
210
0.0
220
0.0
230
1.0
  2
SOLID
 70
1
 71
0
 91
1
 92
3
 72
0
 73
1
 93
48
 10
150.5
 20
21.7
 10
150.491
 20
21.556
 10
150.463
 20
21.415
 10
150.416
 20
21.279
 10
150.353
 20
21.15
 10
150.273
 20
21.03
 10
150.178
 20
20.922
 10
150.07
 20
20.827
 10
149.95
 20
20.747
 10
149.821
 20
20.684
 10
149.685
 20
20.637
 10
149.544
 20
20.609
 10
149.4
 20
20.6
 10
149.256
 20
20.609
 10
149.115
 20
20.637
 10
148.979
 20
20.684
 10
148.85
 20
20.747
 10
148.73
 20
20.827
 10
148.622
 20
20.922
 10
148.527
 20
21.03
 10
148.447
 20
21.15
 10
148.384
 20
21.279
 10
148.337
 20
21.415
 10
148.309
 20
21.556
 10
148.3
 20
21.7
 10
148.309
 20
21.844
 10
148.337
 20
21.985
 10
148.384
 20
22.121
 10
148.447
 20
22.25
 10
148.527
 20
22.37
 10
148.622
 20
22.478
 10
148.73
 20
22.573
 10
148.85
 20
22.653
 10
148.979
 20
22.716
 10
149.115
 20
22.763
 10
149.256
 20
22.791
 10
149.4
 20
22.8
 10
149.544
 20
22.791
 10
149.685
 20
22.763
 10
149.821
 20
22.716
 10
149.95
 20
22.653
 10
150.07
 20
22.573
 10
150.178
 20
22.478
 10
150.273
 20
22.37
 10
150.353
 20
22.25
 10
150.416
 20
22.121
 10
150.463
 20
21.985
 10
150.491
 20
21.844
 97
0
 75
0
 76
1
 98
0
  0
HATCH
  5
4E
330
17
100
AcDbEntity
  8
RASTER
 62
7
100
AcDbHatch
 10
0.0
 20
0.0
 30
0.0
210
0.0
220
0.0
230
1.0
  2
SOLID
 70
1
 71
0
 91
1
 92
3
 72
0
 73
1
 93
48
 10
150.5
 20
10.5
 10
150.491
 20
10.356
 10
150.463
 20
10.215
 10
150.416
 20
10.079
 10
150.353
 20
9.95
 10
150.273
 20
9.83
 10
150.178
 20
9.722
 10
150.07
 20
9.627
 10
149.95
 20
9.547
 10
149.821
 20
9.484
 10
149.685
 20
9.437
 10
149.544
 20
9.409
 10
149.4
 20
9.4
 10
149.256
 20
9.409
 10
149.115
 20
9.437
 10
148.979
 20
9.484
 10
148.85
 20
9.547
 10
148.73
 20
9.627
 10
148.622
 20
9.722
 10
148.527
 20
9.83
 10
148.447
 20
9.95
 10
148.384
 20
10.079
 10
148.337
 20
10.215
 10
148.309
 20
10.356
 10
148.3
 20
10.5
 10
148.309
 20
10.644
 10
148.337
 20
10.785
 10
148.384
 20
10.921
 10
148.447
 20
11.05
 10
148.527
 20
11.17
 10
148.622
 20
11.278
 10
148.73
 20
11.373
 10
148.85
 20
11.453
 10
148.979
 20
11.516
 10
149.115
 20
11.563
 10
149.256
 20
11.591
 10
149.4
 20
11.6
 10
149.544
 20
11.591
 10
149.685
 20
11.563
 10
149.821
 20
11.516
 10
149.95
 20
11.453
 10
150.07
 20
11.373
 10
150.178
 20
11.278
 10
150.273
 20
11.17
 10
150.353
 20
11.05
 10
150.416
 20
10.921
 10
150.463
 20
10.785
 10
150.491
 20
10.644
 97
0
 75
0
 76
1
 98
0
  0
LWPOLYLINE
  5
4F
330
17
100
AcDbEntity
  8
CUT
100
AcDbPolyline
 90
56
 70
1
 10
157.41
 20
26.202
 10
157.424
 20
26.528
 10
157.467
 20
26.829
 10
157.539
 20
27.104
 10
157.642
 20
27.352
 10
157.774
 20
27.572
 10
157.936
 20
27.764
 10
158.128
 20
27.926
 10
158.348
 20
28.058
 10
158.596
 20
28.161
 10
158.871
 20
28.233
 10
159.172
 20
28.276
 10
159.498
 20
28.29
 10
179.702
 20
28.29
 10
180.028
 20
28.276
 10
180.329
 20
28.233
 10
180.604
 20
28.161
 10
180.852
 20
28.058
 10
181.072
 20
27.926
 10
181.264
 20
27.764
 10
181.426
 20
27.572
 10
181.558
 20
27.352
 10
181.661
 20
27.104
 10
181.733
 20
26.829
 10
181.776
 20
26.528
 10
181.79
 20
26.202
 10
181.79
 20
20.69
 10
184.29
 20
20.69
 10
184.29
 20
11.51
 10
181.79
 20
11.51
 10
181.79
 20
5.998
 10
181.776
 20
5.672
 10
181.733
 20
5.371
 10
181.661
 20
5.096
 10
181.558
 20
4.848
 10
181.426
 20
4.628
 10
181.264
 20
4.436
 10
181.072
 20
4.274
 10
180.852
 20
4.142
 10
180.604
 20
4.039
 10
180.329
 20
3.967
 10
180.028
 20
3.924
 10
179.702
 20
3.91
 10
159.498
 20
3.91
 10
159.172
 20
3.924
 10
158.871
 20
3.967
 10
158.596
 20
4.039
 10
158.348
 20
4.142
 10
158.128
 20
4.274
 10
157.936
 20
4.436
 10
157.774
 20
4.628
 10
157.642
 20
4.848
 10
157.539
 20
5.096
 10
157.467
 20
5.371
 10
157.424
 20
5.672
 10
157.41
 20
5.998
  0
HATCH
  5
50
330
17
100
AcDbEntity
  8
RASTER
 62
7
100
AcDbHatch
 10
0.0
 20
0.0
 30
0.0
210
0.0
220
0.0
230
1.0
  2
SOLID
 70
1
 71
0
 91
10
 92
3
 72
0
 73
1
 93
4
 10
165.728
 20
20.6
 10
183.95
 20
20.6
 10
183.95
 20
11.6
 10
165.728
 20
11.6
 97
0
 92
3
 72
0
 73
1
 93
5
 10
167.278
 20
20.1
 10
167.278
 20
12.1
 10
167.978
 20
12.1
 10
167.978
 20
20.1
 10
167.278
 20
20.1
 97
0
 92
3
 72
0
 73
1
 93
5
 10
169.178
 20
20.1
 10
169.178
 20
12.1
 10
169.878
 20
12.1
 10
169.878
 20
20.1
 10
169.178
 20
20.1
 97
0
 92
3
 72
0
 73
1
 93
5
 10
171.078
 20
20.1
 10
171.078
 20
12.1
 10
171.778
 20
12.1
 10
171.778
 20
20.1
 10
171.078
 20
20.1
 97
0
 92
3
 72
0
 73
1
 93
5
 10
172.978
 20
20.1
 10
172.978
 20
12.1
 10
173.678
 20
12.1
 10
173.678
 20
20.1
 10
172.978
 20
20.1
 97
0
 92
3
 72
0
 73
1
 93
5
 10
174.878
 20
20.1
 10
174.878
 20
12.1
 10
175.578
 20
12.1
 10
175.578
 20
20.1
 10
174.878
 20
20.1
 97
0
 92
3
 72
0
 73
1
 93
5
 10
176.778
 20
20.1
 10
176.778
 20
12.1
 10
177.478
 20
12.1
 10
177.478
 20
20.1
 10
176.778
 20
20.1
 97
0
 92
3
 72
0
 73
1
 93
5
 10
178.678
 20
20.1
 10
178.678
 20
12.1
 10
179.378
 20
12.1
 10
179.378
 20
20.1
 10
178.678
 20
20.1
 97
0
 92
3
 72
0
 73
1
 93
5
 10
180.578
 20
20.1
 10
180.578
 20
12.1
 10
181.278
 20
12.1
 10
181.278
 20
20.1
 10
180.578
 20
20.1
 97
0
 92
3
 72
0
 73
1
 93
5
 10
182.478
 20
20.1
 10
182.478
 20
12.1
 10
183.178
 20
12.1
 10
183.178
 20
20.1
 10
182.478
 20
20.1
 97
0
 75
0
 76
1
 98
0
  0
HATCH
  5
51
330
17
100
AcDbEntity
  8
RASTER
 62
7
100
AcDbHatch
 10
0.0
 20
0.0
 30
0.0
210
0.0
220
0.0
230
1.0
  2
SOLID
 70
1
 71
0
 91
1
 92
3
 72
0
 73
1
 93
48
 10
167.928
 20
21.7
 10
167.919
 20
21.556
 10
167.891
 20
21.415
 10
167.844
 20
21.279
 10
167.781
 20
21.15
 10
167.701
 20
21.03
 10
167.606
 20
20.922
 10
167.498
 20
20.827
 10
167.378
 20
20.747
 10
167.249
 20
20.684
 10
167.113
 20
20.637
 10
166.972
 20
20.609
 10
166.828
 20
20.6
 10
166.684
 20
20.609
 10
166.543
 20
20.637
 10
166.407
 20
20.684
 10
166.278
 20
20.747
 10
166.158
 20
20.827
 10
166.05
 20
20.922
 10
165.955
 20
21.03
 10
165.875
 20
21.15
 10
165.812
 20
21.279
 10
165.765
 20
21.415
 10
165.737
 20
21.556
 10
165.728
 20
21.7
 10
165.737
 20
21.844
 10
165.765
 20
21.985
 10
165.812
 20
22.121
 10
165.875
 20
22.25
 10
165.955
 20
22.37
 10
166.05
 20
22.478
 10
166.158
 20
22.573
 10
166.278
 20
22.653
 10
166.407
 20
22.716
 10
166.543
 20
22.763
 10
166.684
 20
22.791
 10
166.828
 20
22.8
 10
166.972
 20
22.791
 10
167.113
 20
22.763
 10
167.249
 20
22.716
 10
167.378
 20
22.653
 10
167.498
 20
22.573
 10
167.606
 20
22.478
 10
167.701
 20
22.37
 10
167.781
 20
22.25
 10
167.844
 20
22.121
 10
167.891
 20
21.985
 10
167.919
 20
21.844
 97
0
 75
0
 76
1
 98
0
  0
HATCH
  5
52
330
17
100
AcDbEntity
  8
RASTER
 62
7
100
AcDbHatch
 10
0.0
 20
0.0
 30
0.0
210
0.0
220
0.0
230
1.0
  2
SOLID
 70
1
 71
0
 91
1
 92
3
 72
0
 73
1
 93
48
 10
167.928
 20
10.5
 10
167.919
 20
10.356
 10
167.891
 20
10.215
 10
167.844
 20
10.079
 10
167.781
 20
9.95
 10
167.701
 20
9.83
 10
167.606
 20
9.722
 10
167.498
 20
9.627
 10
167.378
 20
9.547
 10
167.249
 20
9.484
 10
167.113
 20
9.437
 10
166.972
 20
9.409
 10
166.828
 20
9.4
 10
166.684
 20
9.409
 10
166.543
 20
9.437
 10
166.407
 20
9.484
 10
166.278
 20
9.547
 10
166.158
 20
9.627
 10
166.05
 20
9.722
 10
165.955
 20
9.83
 10
165.875
 20
9.95
 10
165.812
 20
10.079
 10
165.765
 20
10.215
 10
165.737
 20
10.356
 10
165.728
 20
10.5
 10
165.737
 20
10.644
 10
165.765
 20
10.785
 10
165.812
 20
10.921
 10
165.875
 20
11.05
 10
165.955
 20
11.17
 10
166.05
 20
11.278
 10
166.158
 20
11.373
 10
166.278
 20
11.453
 10
166.407
 20
11.516
 10
166.543
 20
11.563
 10
166.684
 20
11.591
 10
166.828
 20
11.6
 10
166.972
 20
11.591
 10
167.113
 20
11.563
 10
167.249
 20
11.516
 10
167.378
 20
11.453
 10
167.498
 20
11.373
 10
167.606
 20
11.278
 10
167.701
 20
11.17
 10
167.781
 20
11.05
 10
167.844
 20
10.921
 10
167.891
 20
10.785
 10
167.919
 20
10.644
 97
0
 75
0
 76
1
 98
0
  0
HATCH
  5
53
330
17
100
AcDbEntity
  8
RASTER
 62
7
100
AcDbHatch
 10
0.0
 20
0.0
 30
0.0
210
0.0
220
0.0
230
1.0
  2
SOLID
 70
1
 71
0
 91
1
 92
3
 72
0
 73
1
 93
48
 10
181.2
 20
21.7
 10
181.191
 20
21.556
 10
181.163
 20
21.415
 10
181.116
 20
21.279
 10
181.053
 20
21.15
 10
180.973
 20
21.03
 10
180.878
 20
20.922
 10
180.77
 20
20.827
 10
180.65
 20
20.747
 10
180.521
 20
20.684
 10
180.385
 20
20.637
 10
180.244
 20
20.609
 10
180.1
 20
20.6
 10
179.956
 20
20.609
 10
179.815
 20
20.637
 10
179.679
 20
20.684
 10
179.55
 20
20.747
 10
179.43
 20
20.827
 10
179.322
 20
20.922
 10
179.227
 20
21.03
 10
179.147
 20
21.15
 10
179.084
 20
21.279
 10
179.037
 20
21.415
 10
179.009
 20
21.556
 10
179.0
 20
21.7
 10
179.009
 20
21.844
 10
179.037
 20
21.985
 10
179.084
 20
22.121
 10
179.147
 20
22.25
 10
179.227
 20
22.37
 10
179.322
 20
22.478
 10
179.43
 20
22.573
 10
179.55
 20
22.653
 10
179.679
 20
22.716
 10
179.815
 20
22.763
 10
179.956
 20
22.791
 10
180.1
 20
22.8
 10
180.244
 20
22.791
 10
180.385
 20
22.763
 10
180.521
 20
22.716
 10
180.65
 20
22.653
 10
180.77
 20
22.573
 10
180.878
 20
22.478
 10
180.973
 20
22.37
 10
181.053
 20
22.25
 10
181.116
 20
22.121
 10
181.163
 20
21.985
 10
181.191
 20
21.844
 97
0
 75
0
 76
1
 98
0
  0
HATCH
  5
54
330
17
100
AcDbEntity
  8
RASTER
 62
7
100
AcDbHatch
 10
0.0
 20
0.0
 30
0.0
210
0.0
220
0.0
230
1.0
  2
SOLID
 70
1
 71
0
 91
1
 92
3
 72
0
 73
1
 93
48
 10
181.2
 20
10.5
 10
181.191
 20
10.356
 10
181.163
 20
10.215
 10
181.116
 20
10.079
 10
181.053
 20
9.95
 10
180.973
 20
9.83
 10
180.878
 20
9.722
 10
180.77
 20
9.627
 10
180.65
 20
9.547
 10
180.521
 20
9.484
 10
180.385
 20
9.437
 10
180.244
 20
9.409
 10
180.1
 20
9.4
 10
179.956
 20
9.409
 10
179.815
 20
9.437
 10
179.679
 20
9.484
 10
179.55
 20
9.547
 10
179.43
 20
9.627
 10
179.322
 20
9.722
 10
179.227
 20
9.83
 10
179.147
 20
9.95
 10
179.084
 20
10.079
 10
179.037
 20
10.215
 10
179.009
 20
10.356
 10
179.0
 20
10.5
 10
179.009
 20
10.644
 10
179.037
 20
10.785
 10
179.084
 20
10.921
 10
179.147
 20
11.05
 10
179.227
 20
11.17
 10
179.322
 20
11.278
 10
179.43
 20
11.373
 10
179.55
 20
11.453
 10
179.679
 20
11.516
 10
179.815
 20
11.563
 10
179.956
 20
11.591
 10
180.1
 20
11.6
 10
180.244
 20
11.591
 10
180.385
 20
11.563
 10
180.521
 20
11.516
 10
180.65
 20
11.453
 10
180.77
 20
11.373
 10
180.878
 20
11.278
 10
180.973
 20
11.17
 10
181.053
 20
11.05
 10
181.116
 20
10.921
 10
181.163
 20
10.785
 10
181.191
 20
10.644
 97
0
 75
0
 76
1
 98
0
  0
LWPOLYLINE
  5
55
330
17
100
AcDbEntity
  8
CUT
100
AcDbPolyline
 90
56
 70
1
 10
188.11
 20
26.202
 10
188.124
 20
26.528
 10
188.167
 20
26.829
 10
188.239
 20
27.104
 10
188.342
 20
27.352
 10
188.474
 20
27.572
 10
188.636
 20
27.764
 10
188.828
 20
27.926
 10
189.048
 20
28.058
 10
189.296
 20
28.161
 10
189.571
 20
28.233
 10
189.872
 20
28.276
 10
190.198
 20
28.29
 10
210.402
 20
28.29
 10
210.728
 20
28.276
 10
211.029
 20
28.233
 10
211.304
 20
28.161
 10
211.552
 20
28.058
 10
211.772
 20
27.926
 10
211.964
 20
27.764
 10
212.126
 20
27.572
 10
212.258
 20
27.352
 10
212.361
 20
27.104
 10
212.433
 20
26.829
 10
212.476
 20
26.528
 10
212.49
 20
26.202
 10
212.49
 20
20.69
 10
214.99
 20
20.69
 10
214.99
 20
11.51
 10
212.49
 20
11.51
 10
212.49
 20
5.998
 10
212.476
 20
5.672
 10
212.433
 20
5.371
 10
212.361
 20
5.096
 10
212.258
 20
4.848
 10
212.126
 20
4.628
 10
211.964
 20
4.436
 10
211.772
 20
4.274
 10
211.552
 20
4.142
 10
211.304
 20
4.039
 10
211.029
 20
3.967
 10
210.728
 20
3.924
 10
210.402
 20
3.91
 10
190.198
 20
3.91
 10
189.872
 20
3.924
 10
189.571
 20
3.967
 10
189.296
 20
4.039
 10
189.048
 20
4.142
 10
188.828
 20
4.274
 10
188.636
 20
4.436
 10
188.474
 20
4.628
 10
188.342
 20
4.848
 10
188.239
 20
5.096
 10
188.167
 20
5.371
 10
188.124
 20
5.672
 10
188.11
 20
5.998
  0
HATCH
  5
56
330
17
100
AcDbEntity
  8
RASTER
 62
7
100
AcDbHatch
 10
0.0
 20
0.0
 30
0.0
210
0.0
220
0.0
230
1.0
  2
SOLID
 70
1
 71
0
 91
10
 92
3
 72
0
 73
1
 93
4
 10
196.428
 20
20.6
 10
214.65
 20
20.6
 10
214.65
 20
11.6
 10
196.428
 20
11.6
 97
0
 92
3
 72
0
 73
1
 93
5
 10
197.978
 20
20.1
 10
197.978
 20
12.1
 10
198.678
 20
12.1
 10
198.678
 20
20.1
 10
197.978
 20
20.1
 97
0
 92
3
 72
0
 73
1
 93
5
 10
199.878
 20
20.1
 10
199.878
 20
12.1
 10
200.578
 20
12.1
 10
200.578
 20
20.1
 10
199.878
 20
20.1
 97
0
 92
3
 72
0
 73
1
 93
5
 10
201.778
 20
20.1
 10
201.778
 20
12.1
 10
202.478
 20
12.1
 10
202.478
 20
20.1
 10
201.778
 20
20.1
 97
0
 92
3
 72
0
 73
1
 93
5
 10
203.678
 20
20.1
 10
203.678
 20
12.1
 10
204.378
 20
12.1
 10
204.378
 20
20.1
 10
203.678
 20
20.1
 97
0
 92
3
 72
0
 73
1
 93
5
 10
205.578
 20
20.1
 10
205.578
 20
12.1
 10
206.278
 20
12.1
 10
206.278
 20
20.1
 10
205.578
 20
20.1
 97
0
 92
3
 72
0
 73
1
 93
5
 10
207.478
 20
20.1
 10
207.478
 20
12.1
 10
208.178
 20
12.1
 10
208.178
 20
20.1
 10
207.478
 20
20.1
 97
0
 92
3
 72
0
 73
1
 93
5
 10
209.378
 20
20.1
 10
209.378
 20
12.1
 10
210.078
 20
12.1
 10
210.078
 20
20.1
 10
209.378
 20
20.1
 97
0
 92
3
 72
0
 73
1
 93
5
 10
211.278
 20
20.1
 10
211.278
 20
12.1
 10
211.978
 20
12.1
 10
211.978
 20
20.1
 10
211.278
 20
20.1
 97
0
 92
3
 72
0
 73
1
 93
5
 10
213.178
 20
20.1
 10
213.178
 20
12.1
 10
213.878
 20
12.1
 10
213.878
 20
20.1
 10
213.178
 20
20.1
 97
0
 75
0
 76
1
 98
0
  0
HATCH
  5
57
330
17
100
AcDbEntity
  8
RASTER
 62
7
100
AcDbHatch
 10
0.0
 20
0.0
 30
0.0
210
0.0
220
0.0
230
1.0
  2
SOLID
 70
1
 71
0
 91
1
 92
3
 72
0
 73
1
 93
48
 10
198.628
 20
21.7
 10
198.619
 20
21.556
 10
198.591
 20
21.415
 10
198.544
 20
21.279
 10
198.481
 20
21.15
 10
198.401
 20
21.03
 10
198.306
 20
20.922
 10
198.198
 20
20.827
 10
198.078
 20
20.747
 10
197.949
 20
20.684
 10
197.813
 20
20.637
 10
197.672
 20
20.609
 10
197.528
 20
20.6
 10
197.384
 20
20.609
 10
197.243
 20
20.637
 10
197.107
 20
20.684
 10
196.978
 20
20.747
 10
196.858
 20
20.827
 10
196.75
 20
20.922
 10
196.655
 20
21.03
 10
196.575
 20
21.15
 10
196.512
 20
21.279
 10
196.465
 20
21.415
 10
196.437
 20
21.556
 10
196.428
 20
21.7
 10
196.437
 20
21.844
 10
196.465
 20
21.985
 10
196.512
 20
22.121
 10
196.575
 20
22.25
 10
196.655
 20
22.37
 10
196.75
 20
22.478
 10
196.858
 20
22.573
 10
196.978
 20
22.653
 10
197.107
 20
22.716
 10
197.243
 20
22.763
 10
197.384
 20
22.791
 10
197.528
 20
22.8
 10
197.672
 20
22.791
 10
197.813
 20
22.763
 10
197.949
 20
22.716
 10
198.078
 20
22.653
 10
198.198
 20
22.573
 10
198.306
 20
22.478
 10
198.401
 20
22.37
 10
198.481
 20
22.25
 10
198.544
 20
22.121
 10
198.591
 20
21.985
 10
198.619
 20
21.844
 97
0
 75
0
 76
1
 98
0
  0
HATCH
  5
58
330
17
100
AcDbEntity
  8
RASTER
 62
7
100
AcDbHatch
 10
0.0
 20
0.0
 30
0.0
210
0.0
220
0.0
230
1.0
  2
SOLID
 70
1
 71
0
 91
1
 92
3
 72
0
 73
1
 93
48
 10
198.628
 20
10.5
 10
198.619
 20
10.356
 10
198.591
 20
10.215
 10
198.544
 20
10.079
 10
198.481
 20
9.95
 10
198.401
 20
9.83
 10
198.306
 20
9.722
 10
198.198
 20
9.627
 10
198.078
 20
9.547
 10
197.949
 20
9.484
 10
197.813
 20
9.437
 10
197.672
 20
9.409
 10
197.528
 20
9.4
 10
197.384
 20
9.409
 10
197.243
 20
9.437
 10
197.107
 20
9.484
 10
196.978
 20
9.547
 10
196.858
 20
9.627
 10
196.75
 20
9.722
 10
196.655
 20
9.83
 10
196.575
 20
9.95
 10
196.512
 20
10.079
 10
196.465
 20
10.215
 10
196.437
 20
10.356
 10
196.428
 20
10.5
 10
196.437
 20
10.644
 10
196.465
 20
10.785
 10
196.512
 20
10.921
 10
196.575
 20
11.05
 10
196.655
 20
11.17
 10
196.75
 20
11.278
 10
196.858
 20
11.373
 10
196.978
 20
11.453
 10
197.107
 20
11.516
 10
197.243
 20
11.563
 10
197.384
 20
11.591
 10
197.528
 20
11.6
 10
197.672
 20
11.591
 10
197.813
 20
11.563
 10
197.949
 20
11.516
 10
198.078
 20
11.453
 10
198.198
 20
11.373
 10
198.306
 20
11.278
 10
198.401
 20
11.17
 10
198.481
 20
11.05
 10
198.544
 20
10.921
 10
198.591
 20
10.785
 10
198.619
 20
10.644
 97
0
 75
0
 76
1
 98
0
  0
HATCH
  5
59
330
17
100
AcDbEntity
  8
RASTER
 62
7
100
AcDbHatch
 10
0.0
 20
0.0
 30
0.0
210
0.0
220
0.0
230
1.0
  2
SOLID
 70
1
 71
0
 91
1
 92
3
 72
0
 73
1
 93
48
 10
211.9
 20
21.7
 10
211.891
 20
21.556
 10
211.863
 20
21.415
 10
211.816
 20
21.279
 10
211.753
 20
21.15
 10
211.673
 20
21.03
 10
211.578
 20
20.922
 10
211.47
 20
20.827
 10
211.35
 20
20.747
 10
211.221
 20
20.684
 10
211.085
 20
20.637
 10
210.944
 20
20.609
 10
210.8
 20
20.6
 10
210.656
 20
20.609
 10
210.515
 20
20.637
 10
210.379
 20
20.684
 10
210.25
 20
20.747
 10
210.13
 20
20.827
 10
210.022
 20
20.922
 10
209.927
 20
21.03
 10
209.847
 20
21.15
 10
209.784
 20
21.279
 10
209.737
 20
21.415
 10
209.709
 20
21.556
 10
209.7
 20
21.7
 10
209.709
 20
21.844
 10
209.737
 20
21.985
 10
209.784
 20
22.121
 10
209.847
 20
22.25
 10
209.927
 20
22.37
 10
210.022
 20
22.478
 10
210.13
 20
22.573
 10
210.25
 20
22.653
 10
210.379
 20
22.716
 10
210.515
 20
22.763
 10
210.656
 20
22.791
 10
210.8
 20
22.8
 10
210.944
 20
22.791
 10
211.085
 20
22.763
 10
211.221
 20
22.716
 10
211.35
 20
22.653
 10
211.47
 20
22.573
 10
211.578
 20
22.478
 10
211.673
 20
22.37
 10
211.753
 20
22.25
 10
211.816
 20
22.121
 10
211.863
 20
21.985
 10
211.891
 20
21.844
 97
0
 75
0
 76
1
 98
0
  0
HATCH
  5
5A
330
17
100
AcDbEntity
  8
RASTER
 62
7
100
AcDbHatch
 10
0.0
 20
0.0
 30
0.0
210
0.0
220
0.0
230
1.0
  2
SOLID
 70
1
 71
0
 91
1
 92
3
 72
0
 73
1
 93
48
 10
211.9
 20
10.5
 10
211.891
 20
10.356
 10
211.863
 20
10.215
 10
211.816
 20
10.079
 10
211.753
 20
9.95
 10
211.673
 20
9.83
 10
211.578
 20
9.722
 10
211.47
 20
9.627
 10
211.35
 20
9.547
 10
211.221
 20
9.484
 10
211.085
 20
9.437
 10
210.944
 20
9.409
 10
210.8
 20
9.4
 10
210.656
 20
9.409
 10
210.515
 20
9.437
 10
210.379
 20
9.484
 10
210.25
 20
9.547
 10
210.13
 20
9.627
 10
210.022
 20
9.722
 10
209.927
 20
9.83
 10
209.847
 20
9.95
 10
209.784
 20
10.079
 10
209.737
 20
10.215
 10
209.709
 20
10.356
 10
209.7
 20
10.5
 10
209.709
 20
10.644
 10
209.737
 20
10.785
 10
209.784
 20
10.921
 10
209.847
 20
11.05
 10
209.927
 20
11.17
 10
210.022
 20
11.278
 10
210.13
 20
11.373
 10
210.25
 20
11.453
 10
210.379
 20
11.516
 10
210.515
 20
11.563
 10
210.656
 20
11.591
 10
210.8
 20
11.6
 10
210.944
 20
11.591
 10
211.085
 20
11.563
 10
211.221
 20
11.516
 10
211.35
 20
11.453
 10
211.47
 20
11.373
 10
211.578
 20
11.278
 10
211.673
 20
11.17
 10
211.753
 20
11.05
 10
211.816
 20
10.921
 10
211.863
 20
10.785
 10
211.891
 20
10.644
 97
0
 75
0
 76
1
 98
0
  0
ENDSEC
  0
SECTION
  2
OBJECTS
  0
DICTIONARY
  5
A
330
0
100
AcDbDictionary
281
1
  3
ACAD_COLOR
350
B
  3
ACAD_GROUP
350
C
  3
ACAD_LAYOUT
350
D
  3
ACAD_MATERIAL
350
E
  3
ACAD_MLEADERSTYLE
350
F
  3
ACAD_MLINESTYLE
350
10
  3
ACAD_PLOTSETTINGS
350
11
  3
ACAD_PLOTSTYLENAME
350
12
  3
ACAD_SCALELIST
350
14
  3
ACAD_TABLESTYLE
350
15
  3
ACAD_VISUALSTYLE
350
16
  3
EZDXF_META
350
2D
  0
DICTIONARY
  5
B
330
A
100
AcDbDictionary
281
1
  0
DICTIONARY
  5
C
330
A
100
AcDbDictionary
281
1
  0
DICTIONARY
  5
D
330
A
100
AcDbDictionary
281
1
  3
Model
350
1A
  3
Layout1
350
1E
  0
DICTIONARY
  5
E
330
A
100
AcDbDictionary
281
1
  3
ByBlock
350
1F
  3
ByLayer
350
20
  3
Global
350
21
  0
DICTIONARY
  5
F
330
A
100
AcDbDictionary
281
1
  3
Standard
350
2C
  0
DICTIONARY
  5
10
330
A
100
AcDbDictionary
281
1
  3
Standard
350
22
  0
DICTIONARY
  5
11
330
A
100
AcDbDictionary
281
1
  0
ACDBDICTIONARYWDFLT
  5
12
330
A
100
AcDbDictionary
281
1
  3
Normal
350
13
100
AcDbDictionaryWithDefault
340
13
  0
ACDBPLACEHOLDER
  5
13
330
12
  0
DICTIONARY
  5
14
330
A
100
AcDbDictionary
281
1
  0
DICTIONARY
  5
15
330
A
100
AcDbDictionary
281
1
  0
DICTIONARY
  5
16
330
A
100
AcDbDictionary
281
1
  0
LAYOUT
  5
1A
330
D
100
AcDbPlotSettings
  1

  4
A3
  6

 40
7.5
 41
20.0
 42
7.5
 43
20.0
 44
420.0
 45
297.0
 46
0.0
 47
0.0
 48
0.0
 49
0.0
140
0.0
141
0.0
142
1.0
143
1.0
 70
1024
 72
1
 73
0
 74
5
  7

 75
16
 76
0
 77
2
 78
300
147
1.0
148
0.0
149
0.0
100
AcDbLayout
  1
Model
 70
1
 71
0
 10
0.0
 20
0.0
 11
420.0
 21
297.0
 12
0.0
 22
0.0
 32
0.0
 14
1e+20
 24
1e+20
 34
1e+20
 15
-1e+20
 25
-1e+20
 35
-1e+20
146
0.0
 13
0.0
 23
0.0
 33
0.0
 16
1.0
 26
0.0
 36
0.0
 17
0.0
 27
1.0
 37
0.0
 76
1
330
17
  0
LAYOUT
  5
1E
330
D
100
AcDbPlotSettings
  1

  4
A3
  6

 40
7.5
 41
20.0
 42
7.5
 43
20.0
 44
420.0
 45
297.0
 46
0.0
 47
0.0
 48
0.0
 49
0.0
140
0.0
141
0.0
142
1.0
143
1.0
 70
0
 72
1
 73
0
 74
5
  7

 75
16
 76
0
 77
2
 78
300
147
1.0
148
0.0
149
0.0
100
AcDbLayout
  1
Layout1
 70
1
 71
1
 10
0.0
 20
0.0
 11
420.0
 21
297.0
 12
0.0
 22
0.0
 32
0.0
 14
1e+20
 24
1e+20
 34
1e+20
 15
-1e+20
 25
-1e+20
 35
-1e+20
146
0.0
 13
0.0
 23
0.0
 33
0.0
 16
1.0
 26
0.0
 36
0.0
 17
0.0
 27
1.0
 37
0.0
 76
1
330
1B
  0
MATERIAL
  5
1F
102
{ACAD_REACTORS
330
E
102
}
330
E
100
AcDbMaterial
  1
ByBlock
  2

 70
0
 40
1.0
 71
1
 41
1.0
 91
-1023410177
 42
1.0
 72
1
  3

 73
1
 74
1
 75
1
 44
0.5
 73
0
 45
1.0
 46
1.0
 77
1
  4

 78
1
 79
1
170
1
 48
1.0
171
1
  6

172
1
173
1
174
1
140
1.0
141
1.0
175
1
  7

176
1
177
1
178
1
143
1.0
179
1
  8

270
1
271
1
272
1
145
1.0
146
1.0
273
1
  9

274
1
275
1
276
1
 42
1.0
 72
1
  3

 73
1
 74
1
 75
1
 94
63
  0
MATERIAL
  5
20
102
{ACAD_REACTORS
330
E
102
}
330
E
100
AcDbMaterial
  1
ByLayer
  2

 70
0
 40
1.0
 71
1
 41
1.0
 91
-1023410177
 42
1.0
 72
1
  3

 73
1
 74
1
 75
1
 44
0.5
 73
0
 45
1.0
 46
1.0
 77
1
  4

 78
1
 79
1
170
1
 48
1.0
171
1
  6

172
1
173
1
174
1
140
1.0
141
1.0
175
1
  7

176
1
177
1
178
1
143
1.0
179
1
  8

270
1
271
1
272
1
145
1.0
146
1.0
273
1
  9

274
1
275
1
276
1
 42
1.0
 72
1
  3

 73
1
 74
1
 75
1
 94
63
  0
MATERIAL
  5
21
102
{ACAD_REACTORS
330
E
102
}
330
E
100
AcDbMaterial
  1
Global
  2

 70
0
 40
1.0
 71
1
 41
1.0
 91
-1023410177
 42
1.0
 72
1
  3

 73
1
 74
1
 75
1
 44
0.5
 73
0
 45
1.0
 46
1.0
 77
1
  4

 78
1
 79
1
170
1
 48
1.0
171
1
  6

172
1
173
1
174
1
140
1.0
141
1.0
175
1
  7

176
1
177
1
178
1
143
1.0
179
1
  8

270
1
271
1
272
1
145
1.0
146
1.0
273
1
  9

274
1
275
1
276
1
 42
1.0
 72
1
  3

 73
1
 74
1
 75
1
 94
63
  0
MLINESTYLE
  5
22
102
{ACAD_REACTORS
330
10
102
}
330
10
100
AcDbMlineStyle
  2
Standard
 70
0
  3

 62
256
 51
90.0
 52
90.0
 71
2
 49
0.5
 62
256
  6
BYLAYER
 49
-0.5
 62
256
  6
BYLAYER
  0
MLEADERSTYLE
  5
2C
102
{ACAD_REACTORS
330
F
102
}
330
F
100
AcDbMLeaderStyle
179
2
170
2
171
1
172
0
 90
2
 40
0.0
 41
0.0
173
1
 91
-1056964608
 92
-2
290
1
 42
2.0
291
1
 43
8.0
  3
Standard
 44
4.0
300

342
29
174
1
175
1
176
0
178
1
 93
-1056964608
 45
4.0
292
0
297
0
 46
4.0
 94
-1056964608
 47
1.0
 49
1.0
140
1.0
294
1
141
0.0
177
0
142
1.0
295
0
296
0
143
3.75
271
0
272
9
273
9
  0
DICTIONARY
  5
2D
330
A
100
AcDbDictionary
280
1
281
1
  3
CREATED_BY_EZDXF
350
2E
  3
WRITTEN_BY_EZDXF
350
5D
  0
DICTIONARYVAR
  5
2E
330
2D
100
DictionaryVariables
280
0
  1
1.4.2 @ 2026-08-25T17:03:52.368433+00:00
  0
DICTIONARYVAR
  5
5D
330
2D
100
DictionaryVariables
280
0
  1
1.4.2 @ 2026-08-25T17:03:52.372714+00:00
  0
ENDSEC
  0
EOF
