0
SECTION
2
HEADER
9
$ACADVER
1
AC1009
9
$EXTMIN
10
0
20
0
9
$EXTMAX
10
291.8
20
110.4
0
ENDSEC
0
SECTION
2
TABLES
0
TABLE
2
LAYER
70
2
0
LAYER
2
CUT
70
0
62
1
6
CONTINUOUS
0
LAYER
2
RASTER
70
0
62
7
6
CONTINUOUS
0
ENDTAB
0
ENDSEC
0
SECTION
2
ENTITIES
0
POLYLINE
8
CUT
66
1
70
1
0
VERTEX
8
CUT
10
4
20
103.4
30
0
0
VERTEX
8
CUT
10
4.047
20
104.103
30
0
0
VERTEX
8
CUT
10
4.188
20
104.713
30
0
0
VERTEX
8
CUT
10
4.422
20
105.228
30
0
0
VERTEX
8
CUT
10
4.75
20
105.65
30
0
0
VERTEX
8
CUT
10
5.172
20
105.978
30
0
0
VERTEX
8
CUT
10
5.687
20
106.213
30
0
0
VERTEX
8
CUT
10
6.297
20
106.353
30
0
0
VERTEX
8
CUT
10
7
20
106.4
30
0
0
VERTEX
8
CUT
10
12.95
20
106.4
30
0
0
VERTEX
8
CUT
10
12.95
20
101.9
30
0
0
VERTEX
8
CUT
10
19.25
20
101.9
30
0
0
VERTEX
8
CUT
10
19.25
20
106.4
30
0
0
VERTEX
8
CUT
10
37.95
20
106.4
30
0
0
VERTEX
8
CUT
10
37.95
20
101.9
30
0
0
VERTEX
8
CUT
10
44.25
20
101.9
30
0
0
VERTEX
8
CUT
10
44.25
20
106.4
30
0
0
VERTEX
8
CUT
10
62.95
20
106.4
30
0
0
VERTEX
8
CUT
10
62.95
20
101.9
30
0
0
VERTEX
8
CUT
10
69.25
20
101.9
30
0
0
VERTEX
8
CUT
10
69.25
20
106.4
30
0
0
VERTEX
8
CUT
10
75.2
20
106.4
30
0
0
VERTEX
8
CUT
10
75.903
20
106.353
30
0
0
VERTEX
8
CUT
10
76.512
20
106.213
30
0
0
VERTEX
8
CUT
10
77.028
20
105.978
30
0
0
VERTEX
8
CUT
10
77.45
20
105.65
30
0
0
VERTEX
8
CUT
10
77.778
20
105.228
30
0
0
VERTEX
8
CUT
10
78.012
20
104.713
30
0
0
VERTEX
8
CUT
10
78.153
20
104.103
30
0
0
VERTEX
8
CUT
10
78.2
20
103.4
30
0
0
VERTEX
8
CUT
10
78.2
20
97.45
30
0
0
VERTEX
8
CUT
10
73.7
20
97.45
30
0
0
VERTEX
8
CUT
10
73.7
20
91.15
30
0
0
VERTEX
8
CUT
10
78.2
20
91.15
30
0
0
VERTEX
8
CUT
10
78.2
20
85.2
30
0
0
VERTEX
8
CUT
10
78.153
20
84.497
30
0
0
VERTEX
8
CUT
10
78.012
20
83.888
30
0
0
VERTEX
8
CUT
10
77.778
20
83.372
30
0
0
VERTEX
8
CUT
10
77.45
20
82.95
30
0
0
VERTEX
8
CUT
10
77.028
20
82.622
30
0
0
VERTEX
8
CUT
10
76.512
20
82.388
30
0
0
VERTEX
8
CUT
10
75.903
20
82.247
30
0
0
VERTEX
8
CUT
10
75.2
20
82.2
30
0
0
VERTEX
8
CUT
10
69.25
20
82.2
30
0
0
VERTEX
8
CUT
10
69.25
20
86.7
30
0
0
VERTEX
8
CUT
10
62.95
20
86.7
30
0
0
VERTEX
8
CUT
10
62.95
20
82.2
30
0
0
VERTEX
8
CUT
10
44.25
20
82.2
30
0
0
VERTEX
8
CUT
10
44.25
20
86.7
30
0
0
VERTEX
8
CUT
10
37.95
20
86.7
30
0
0
VERTEX
8
CUT
10
37.95
20
82.2
30
0
0
VERTEX
8
CUT
10
19.25
20
82.2
30
0
0
VERTEX
8
CUT
10
19.25
20
86.7
30
0
0
VERTEX
8
CUT
10
12.95
20
86.7
30
0
0
VERTEX
8
CUT
10
12.95
20
82.2
30
0
0
VERTEX
8
CUT
10
7
20
82.2
30
0
0
VERTEX
8
CUT
10
6.297
20
82.247
30
0
0
VERTEX
8
CUT
10
5.688
20
82.388
30
0
0
VERTEX
8
CUT
10
5.172
20
82.622
30
0
0
VERTEX
8
CUT
10
4.75
20
82.95
30
0
0
VERTEX
8
CUT
10
4.422
20
83.372
30
0
0
VERTEX
8
CUT
10
4.188
20
83.888
30
0
0
VERTEX
8
CUT
10
4.047
20
84.497
30
0
0
VERTEX
8
CUT
10
4
20
85.2
30
0
0
SEQEND
8
CUT
0
POLYLINE
8
RASTER
66
1
70
1
0
VERTEX
8
RASTER
10
5.6
20
102.8
30
0
0
VERTEX
8
RASTER
10
5.631
20
103.269
30
0
0
VERTEX
8
RASTER
10
5.725
20
103.675
30
0
0
VERTEX
8
RASTER
10
5.881
20
104.019
30
0
0
VERTEX
8
RASTER
10
6.1
20
104.3
30
0
0
VERTEX
8
RASTER
10
6.381
20
104.519
30
0
0
VERTEX
8
RASTER
10
6.725
20
104.675
30
0
0
VERTEX
8
RASTER
10
7.131
20
104.769
30
0
0
VERTEX
8
RASTER
10
7.6
20
104.8
30
0
0
VERTEX
8
RASTER
10
74.6
20
104.8
30
0
0
VERTEX
8
RASTER
10
75.069
20
104.769
30
0
0
VERTEX
8
RASTER
10
75.475
20
104.675
30
0
0
VERTEX
8
RASTER
10
75.819
20
104.519
30
0
0
VERTEX
8
RASTER
10
76.1
20
104.3
30
0
0
VERTEX
8
RASTER
10
76.319
20
104.019
30
0
0
VERTEX
8
RASTER
10
76.475
20
103.675
30
0
0
VERTEX
8
RASTER
10
76.569
20
103.269
30
0
0
VERTEX
8
RASTER
10
76.6
20
102.8
30
0
0
VERTEX
8
RASTER
10
76.6
20
85.8
30
0
0
VERTEX
8
RASTER
10
76.569
20
85.331
30
0
0
VERTEX
8
RASTER
10
76.475
20
84.925
30
0
0
VERTEX
8
RASTER
10
76.319
20
84.581
30
0
0
VERTEX
8
RASTER
10
76.1
20
84.3
30
0
0
VERTEX
8
RASTER
10
75.819
20
84.081
30
0
0
VERTEX
8
RASTER
10
75.475
20
83.925
30
0
0
VERTEX
8
RASTER
10
75.069
20
83.831
30
0
0
VERTEX
8
RASTER
10
74.6
20
83.8
30
0
0
VERTEX
8
RASTER
10
7.6
20
83.8
30
0
0
VERTEX
8
RASTER
10
7.131
20
83.831
30
0
0
VERTEX
8
RASTER
10
6.725
20
83.925
30
0
0
VERTEX
8
RASTER
10
6.381
20
84.081
30
0
0
VERTEX
8
RASTER
10
6.1
20
84.3
30
0
0
VERTEX
8
RASTER
10
5.881
20
84.581
30
0
0
VERTEX
8
RASTER
10
5.725
20
84.925
30
0
0
VERTEX
8
RASTER
10
5.631
20
85.331
30
0
0
VERTEX
8
RASTER
10
5.6
20
85.8
30
0
0
SEQEND
8
RASTER
0
POLYLINE
8
RASTER
66
1
70
1
0
VERTEX
8
RASTER
10
6.6
20
102.6
30
0
0
VERTEX
8
RASTER
10
6.6
20
86
30
0
0
VERTEX
8
RASTER
10
6.619
20
85.719
30
0
0
VERTEX
8
RASTER
10
6.675
20
85.475
30
0
0
VERTEX
8
RASTER
10
6.769
20
85.269
30
0
0
VERTEX
8
RASTER
10
6.9
20
85.1
30
0
0
VERTEX
8
RASTER
10
7.069
20
84.969
30
0
0
VERTEX
8
RASTER
10
7.275
20
84.875
30
0
0
VERTEX
8
RASTER
10
7.519
20
84.819
30
0
0
VERTEX
8
RASTER
10
7.8
20
84.8
30
0
0
VERTEX
8
RASTER
10
74.4
20
84.8
30
0
0
VERTEX
8
RASTER
10
74.681
20
84.819
30
0
0
VERTEX
8
RASTER
10
74.925
20
84.875
30
0
0
VERTEX
8
RASTER
10
75.131
20
84.969
30
0
0
VERTEX
8
RASTER
10
75.3
20
85.1
30
0
0
VERTEX
8
RASTER
10
75.431
20
85.269
30
0
0
VERTEX
8
RASTER
10
75.525
20
85.475
30
0
0
VERTEX
8
RASTER
10
75.581
20
85.719
30
0
0
VERTEX
8
RASTER
10
75.6
20
86
30
0
0
VERTEX
8
RASTER
10
75.6
20
102.6
30
0
0
VERTEX
8
RASTER
10
75.581
20
102.881
30
0
0
VERTEX
8
RASTER
10
75.525
20
103.125
30
0
0
VERTEX
8
RASTER
10
75.431
20
103.331
30
0
0
VERTEX
8
RASTER
10
75.3
20
103.5
30
0
0
VERTEX
8
RASTER
10
75.131
20
103.631
30
0
0
VERTEX
8
RASTER
10
74.925
20
103.725
30
0
0
VERTEX
8
RASTER
10
74.681
20
103.781
30
0
0
VERTEX
8
RASTER
10
74.4
20
103.8
30
0
0
VERTEX
8
RASTER
10
7.8
20
103.8
30
0
0
VERTEX
8
RASTER
10
7.519
20
103.781
30
0
0
VERTEX
8
RASTER
10
7.275
20
103.725
30
0
0
VERTEX
8
RASTER
10
7.069
20
103.631
30
0
0
VERTEX
8
RASTER
10
6.9
20
103.5
30
0
0
VERTEX
8
RASTER
10
6.769
20
103.331
30
0
0
VERTEX
8
RASTER
10
6.675
20
103.125
30
0
0
VERTEX
8
RASTER
10
6.619
20
102.881
30
0
0
VERTEX
8
RASTER
10
6.6
20
102.6
30
0
0
SEQEND
8
RASTER
0
POLYLINE
8
RASTER
66
1
70
1
0
VERTEX
8
RASTER
10
40.17
20
87.17
30
0
0
VERTEX
8
RASTER
10
40.301
20
88.113
30
0
0
VERTEX
8
RASTER
10
40.465
20
89.074
30
0
0
VERTEX
8
RASTER
10
40.666
20
90.042
30
0
0
VERTEX
8
RASTER
10
40.906
20
91.006
30
0
0
VERTEX
8
RASTER
10
41.19
20
91.956
30
0
0
VERTEX
8
RASTER
10
41.521
20
92.881
30
0
0
VERTEX
8
RASTER
10
41.903
20
93.769
30
0
0
VERTEX
8
RASTER
10
42.34
20
94.61
30
0
0
VERTEX
8
RASTER
10
43.115
20
94.3
30
0
0
VERTEX
8
RASTER
10
42.737
20
93.472
30
0
0
VERTEX
8
RASTER
10
42.413
20
92.619
30
0
0
VERTEX
8
RASTER
10
42.14
20
91.744
30
0
0
VERTEX
8
RASTER
10
41.914
20
90.851
30
0
0
VERTEX
8
RASTER
10
41.732
20
89.944
30
0
0
VERTEX
8
RASTER
10
41.589
20
89.025
30
0
0
VERTEX
8
RASTER
10
41.483
20
88.099
30
0
0
VERTEX
8
RASTER
10
41.41
20
87.17
30
0
0
SEQEND
8
RASTER
0
CIRCLE
8
RASTER
10
42.96
20
95.54
30
0
40
0.62
0
POLYLINE
8
RASTER
66
1
70
1
0
VERTEX
8
RASTER
10
38.153
20
97.289
30
0
0
VERTEX
8
RASTER
10
38.248
20
97.421
30
0
0
VERTEX
8
RASTER
10
38.417
20
97.515
30
0
0
VERTEX
8
RASTER
10
38.65
20
97.57
30
0
0
VERTEX
8
RASTER
10
38.938
20
97.587
30
0
0
VERTEX
8
RASTER
10
39.272
20
97.566
30
0
0
VERTEX
8
RASTER
10
39.643
20
97.507
30
0
0
VERTEX
8
RASTER
10
40.041
20
97.41
30
0
0
VERTEX
8
RASTER
10
40.458
20
97.276
30
0
0
VERTEX
8
RASTER
10
40.863
20
97.111
30
0
0
VERTEX
8
RASTER
10
41.231
20
96.929
30
0
0
VERTEX
8
RASTER
10
41.553
20
96.736
30
0
0
VERTEX
8
RASTER
10
41.822
20
96.537
30
0
0
VERTEX
8
RASTER
10
42.032
20
96.339
30
0
0
VERTEX
8
RASTER
10
42.175
20
96.147
30
0
0
VERTEX
8
RASTER
10
42.244
20
95.967
30
0
0
VERTEX
8
RASTER
10
42.232
20
95.805
30
0
0
VERTEX
8
RASTER
10
42.137
20
95.673
30
0
0
VERTEX
8
RASTER
10
41.968
20
95.58
30
0
0
VERTEX
8
RASTER
10
41.735
20
95.525
30
0
0
VERTEX
8
RASTER
10
41.447
20
95.507
30
0
0
VERTEX
8
RASTER
10
41.113
20
95.528
30
0
0
VERTEX
8
RASTER
10
40.742
20
95.587
30
0
0
VERTEX
8
RASTER
10
40.344
20
95.684
30
0
0
VERTEX
8
RASTER
10
39.928
20
95.819
30
0
0
VERTEX
8
RASTER
10
39.522
20
95.983
30
0
0
VERTEX
8
RASTER
10
39.155
20
96.165
30
0
0
VERTEX
8
RASTER
10
38.833
20
96.358
30
0
0
VERTEX
8
RASTER
10
38.563
20
96.557
30
0
0
VERTEX
8
RASTER
10
38.354
20
96.756
30
0
0
VERTEX
8
RASTER
10
38.211
20
96.948
30
0
0
VERTEX
8
RASTER
10
38.141
20
97.128
30
0
0
VERTEX
8
RASTER
10
38.153
20
97.289
30
0
0
SEQEND
8
RASTER
0
POLYLINE
8
RASTER
66
1
70
1
0
VERTEX
8
RASTER
10
41.211
20
100.347
30
0
0
VERTEX
8
RASTER
10
41.372
20
100.359
30
0
0
VERTEX
8
RASTER
10
41.552
20
100.289
30
0
0
VERTEX
8
RASTER
10
41.744
20
100.146
30
0
0
VERTEX
8
RASTER
10
41.943
20
99.937
30
0
0
VERTEX
8
RASTER
10
42.142
20
99.667
30
0
0
VERTEX
8
RASTER
10
42.335
20
99.345
30
0
0
VERTEX
8
RASTER
10
42.517
20
98.978
30
0
0
VERTEX
8
RASTER
10
42.681
20
98.572
30
0
0
VERTEX
8
RASTER
10
42.816
20
98.156
30
0
0
VERTEX
8
RASTER
10
42.913
20
97.758
30
0
0
VERTEX
8
RASTER
10
42.972
20
97.387
30
0
0
VERTEX
8
RASTER
10
42.993
20
97.053
30
0
0
VERTEX
8
RASTER
10
42.975
20
96.765
30
0
0
VERTEX
8
RASTER
10
42.92
20
96.532
30
0
0
VERTEX
8
RASTER
10
42.827
20
96.363
30
0
0
VERTEX
8
RASTER
10
42.695
20
96.268
30
0
0
VERTEX
8
RASTER
10
42.533
20
96.256
30
0
0
VERTEX
8
RASTER
10
42.353
20
96.325
30
0
0
VERTEX
8
RASTER
10
42.161
20
96.468
30
0
0
VERTEX
8
RASTER
10
41.963
20
96.678
30
0
0
VERTEX
8
RASTER
10
41.764
20
96.947
30
0
0
VERTEX
8
RASTER
10
41.571
20
97.269
30
0
0
VERTEX
8
RASTER
10
41.389
20
97.637
30
0
0
VERTEX
8
RASTER
10
41.224
20
98.042
30
0
0
VERTEX
8
RASTER
10
41.09
20
98.459
30
0
0
VERTEX
8
RASTER
10
40.993
20
98.857
30
0
0
VERTEX
8
RASTER
10
40.934
20
99.228
30
0
0
VERTEX
8
RASTER
10
40.913
20
99.562
30
0
0
VERTEX
8
RASTER
10
40.93
20
99.85
30
0
0
VERTEX
8
RASTER
10
40.985
20
100.083
30
0
0
VERTEX
8
RASTER
10
41.079
20
100.252
30
0
0
VERTEX
8
RASTER
10
41.211
20
100.347
30
0
0
SEQEND
8
RASTER
0
POLYLINE
8
RASTER
66
1
70
1
0
VERTEX
8
RASTER
10
45.518
20
99.97
30
0
0
VERTEX
8
RASTER
10
45.631
20
99.853
30
0
0
VERTEX
8
RASTER
10
45.693
20
99.671
30
0
0
VERTEX
8
RASTER
10
45.707
20
99.432
30
0
0
VERTEX
8
RASTER
10
45.674
20
99.145
30
0
0
VERTEX
8
RASTER
10
45.596
20
98.82
30
0
0
VERTEX
8
RASTER
10
45.473
20
98.465
30
0
0
VERTEX
8
RASTER
10
45.309
20
98.09
30
0
0
VERTEX
8
RASTER
10
45.104
20
97.703
30
0
0
VERTEX
8
RASTER
10
44.871
20
97.332
30
0
0
VERTEX
8
RASTER
10
44.629
20
97.002
30
0
0
VERTEX
8
RASTER
10
44.382
20
96.718
30
0
0
VERTEX
8
RASTER
10
44.14
20
96.488
30
0
0
VERTEX
8
RASTER
10
43.908
20
96.315
30
0
0
VERTEX
8
RASTER
10
43.694
20
96.208
30
0
0
VERTEX
8
RASTER
10
43.505
20
96.171
30
0
0
VERTEX
8
RASTER
10
43.348
20
96.211
30
0
0
VERTEX
8
RASTER
10
43.234
20
96.327
30
0
0
VERTEX
8
RASTER
10
43.172
20
96.51
30
0
0
VERTEX
8
RASTER
10
43.158
20
96.749
30
0
0
VERTEX
8
RASTER
10
43.191
20
97.036
30
0
0
VERTEX
8
RASTER
10
43.269
20
97.361
30
0
0
VERTEX
8
RASTER
10
43.392
20
97.716
30
0
0
VERTEX
8
RASTER
10
43.556
20
98.091
30
0
0
VERTEX
8
RASTER
10
43.761
20
98.478
30
0
0
VERTEX
8
RASTER
10
43.994
20
98.849
30
0
0
VERTEX
8
RASTER
10
44.236
20
99.179
30
0
0
VERTEX
8
RASTER
10
44.483
20
99.462
30
0
0
VERTEX
8
RASTER
10
44.725
20
99.693
30
0
0
VERTEX
8
RASTER
10
44.957
20
99.865
30
0
0
VERTEX
8
RASTER
10
45.171
20
99.973
30
0
0
VERTEX
8
RASTER
10
45.36
20
100.01
30
0
0
VERTEX
8
RASTER
10
45.518
20
99.97
30
0
0
SEQEND
8
RASTER
0
POLYLINE
8
RASTER
66
1
70
1
0
VERTEX
8
RASTER
10
47.997
20
96.428
30
0
0
VERTEX
8
RASTER
10
47.981
20
96.267
30
0
0
VERTEX
8
RASTER
10
47.882
20
96.102
30
0
0
VERTEX
8
RASTER
10
47.708
20
95.937
30
0
0
VERTEX
8
RASTER
10
47.467
20
95.778
30
0
0
VERTEX
8
RASTER
10
47.167
20
95.629
30
0
0
VERTEX
8
RASTER
10
46.816
20
95.495
30
0
0
VERTEX
8
RASTER
10
46.423
20
95.38
30
0
0
VERTEX
8
RASTER
10
45.995
20
95.288
30
0
0
VERTEX
8
RASTER
10
45.561
20
95.228
30
0
0
VERTEX
8
RASTER
10
45.152
20
95.201
30
0
0
VERTEX
8
RASTER
10
44.777
20
95.208
30
0
0
VERTEX
8
RASTER
10
44.444
20
95.245
30
0
0
VERTEX
8
RASTER
10
44.163
20
95.312
30
0
0
VERTEX
8
RASTER
10
43.944
20
95.407
30
0
0
VERTEX
8
RASTER
10
43.794
20
95.528
30
0
0
VERTEX
8
RASTER
10
43.723
20
95.675
30
0
0
VERTEX
8
RASTER
10
43.74
20
95.836
30
0
0
VERTEX
8
RASTER
10
43.839
20
96.001
30
0
0
VERTEX
8
RASTER
10
44.013
20
96.166
30
0
0
VERTEX
8
RASTER
10
44.254
20
96.325
30
0
0
VERTEX
8
RASTER
10
44.554
20
96.474
30
0
0
VERTEX
8
RASTER
10
44.904
20
96.608
30
0
0
VERTEX
8
RASTER
10
45.298
20
96.723
30
0
0
VERTEX
8
RASTER
10
45.726
20
96.815
30
0
0
VERTEX
8
RASTER
10
46.159
20
96.875
30
0
0
VERTEX
8
RASTER
10
46.568
20
96.901
30
0
0
VERTEX
8
RASTER
10
46.944
20
96.895
30
0
0
VERTEX
8
RASTER
10
47.276
20
96.858
30
0
0
VERTEX
8
RASTER
10
47.557
20
96.791
30
0
0
VERTEX
8
RASTER
10
47.777
20
96.696
30
0
0
VERTEX
8
RASTER
10
47.927
20
96.574
30
0
0
VERTEX
8
RASTER
10
47.997
20
96.428
30
0
0
SEQEND
8
RASTER
0
POLYLINE
8
RASTER
66
1
70
1
0
VERTEX
8
RASTER
10
46.878
20
92.252
30
0
0
VERTEX
8
RASTER
10
46.744
20
92.161
30
0
0
VERTEX
8
RASTER
10
46.554
20
92.131
30
0
0
VERTEX
8
RASTER
10
46.316
20
92.158
30
0
0
VERTEX
8
RASTER
10
46.039
20
92.241
30
0
0
VERTEX
8
RASTER
10
45.732
20
92.375
30
0
0
VERTEX
8
RASTER
10
45.404
20
92.557
30
0
0
VERTEX
8
RASTER
10
45.063
20
92.784
30
0
0
VERTEX
8
RASTER
10
44.718
20
93.053
30
0
0
VERTEX
8
RASTER
10
44.393
20
93.346
30
0
0
VERTEX
8
RASTER
10
44.11
20
93.643
30
0
0
VERTEX
8
RASTER
10
43.874
20
93.935
30
0
0
VERTEX
8
RASTER
10
43.688
20
94.213
30
0
0
VERTEX
8
RASTER
10
43.559
20
94.472
30
0
0
VERTEX
8
RASTER
10
43.49
20
94.701
30
0
0
VERTEX
8
RASTER
10
43.487
20
94.894
30
0
0
VERTEX
8
RASTER
10
43.554
20
95.042
30
0
0
VERTEX
8
RASTER
10
43.688
20
95.133
30
0
0
VERTEX
8
RASTER
10
43.878
20
95.163
30
0
0
VERTEX
8
RASTER
10
44.116
20
95.136
30
0
0
VERTEX
8
RASTER
10
44.393
20
95.053
30
0
0
VERTEX
8
RASTER
10
44.7
20
94.919
30
0
0
VERTEX
8
RASTER
10
45.028
20
94.737
30
0
0
VERTEX
8
RASTER
10
45.369
20
94.51
30
0
0
VERTEX
8
RASTER
10
45.714
20
94.241
30
0
0
VERTEX
8
RASTER
10
46.039
20
93.948
30
0
0
VERTEX
8
RASTER
10
46.322
20
93.651
30
0
0
VERTEX
8
RASTER
10
46.559
20
93.359
30
0
0
VERTEX
8
RASTER
10
46.744
20
93.08
30
0
0
VERTEX
8
RASTER
10
46.873
20
92.822
30
0
0
VERTEX
8
RASTER
10
46.942
20
92.593
30
0
0
VERTEX
8
RASTER
10
46.945
20
92.4
30
0
0
VERTEX
8
RASTER
10
46.878
20
92.252
30
0
0
SEQEND
8
RASTER
0
POLYLINE
8
CUT
66
1
70
1
0
VERTEX
8
CUT
10
82.2
20
103.4
30
0
0
VERTEX
8
CUT
10
82.247
20
104.103
30
0
0
VERTEX
8
CUT
10
82.387
20
104.713
30
0
0
VERTEX
8
CUT
10
82.622
20
105.228
30
0
0
VERTEX
8
CUT
10
82.95
20
105.65
30
0
0
VERTEX
8
CUT
10
83.372
20
105.978
30
0
0
VERTEX
8
CUT
10
83.887
20
106.213
30
0
0
VERTEX
8
CUT
10
84.497
20
106.353
30
0
0
VERTEX
8
CUT
10
85.2
20
106.4
30
0
0
VERTEX
8
CUT
10
91.15
20
106.4
30
0
0
VERTEX
8
CUT
10
91.15
20
101.9
30
0
0
VERTEX
8
CUT
10
97.45
20
101.9
30
0
0
VERTEX
8
CUT
10
97.45
20
106.4
30
0
0
VERTEX
8
CUT
10
116.15
20
106.4
30
0
0
VERTEX
8
CUT
10
116.15
20
101.9
30
0
0
VERTEX
8
CUT
10
122.45
20
101.9
30
0
0
VERTEX
8
CUT
10
122.45
20
106.4
30
0
0
VERTEX
8
CUT
10
128.4
20
106.4
30
0
0
VERTEX
8
CUT
10
129.103
20
106.353
30
0
0
VERTEX
8
CUT
10
129.712
20
106.213
30
0
0
VERTEX
8
CUT
10
130.228
20
105.978
30
0
0
VERTEX
8
CUT
10
130.65
20
105.65
30
0
0
VERTEX
8
CUT
10
130.978
20
105.228
30
0
0
VERTEX
8
CUT
10
131.212
20
104.713
30
0
0
VERTEX
8
CUT
10
131.353
20
104.103
30
0
0
VERTEX
8
CUT
10
131.4
20
103.4
30
0
0
VERTEX
8
CUT
10
131.4
20
97.45
30
0
0
VERTEX
8
CUT
10
126.9
20
97.45
30
0
0
VERTEX
8
CUT
10
126.9
20
91.15
30
0
0
VERTEX
8
CUT
10
131.4
20
91.15
30
0
0
VERTEX
8
CUT
10
131.4
20
85.2
30
0
0
VERTEX
8
CUT
10
131.353
20
84.497
30
0
0
VERTEX
8
CUT
10
131.212
20
83.888
30
0
0
VERTEX
8
CUT
10
130.978
20
83.372
30
0
0
VERTEX
8
CUT
10
130.65
20
82.95
30
0
0
VERTEX
8
CUT
10
130.228
20
82.622
30
0
0
VERTEX
8
CUT
10
129.712
20
82.388
30
0
0
VERTEX
8
CUT
10
129.103
20
82.247
30
0
0
VERTEX
8
CUT
10
128.4
20
82.2
30
0
0
VERTEX
8
CUT
10
122.45
20
82.2
30
0
0
VERTEX
8
CUT
10
122.45
20
86.7
30
0
0
VERTEX
8
CUT
10
116.15
20
86.7
30
0
0
VERTEX
8
CUT
10
116.15
20
82.2
30
0
0
VERTEX
8
CUT
10
109.4
20
82.2
30
0
0
VERTEX
8
CUT
10
108.697
20
82.153
30
0
0
VERTEX
8
CUT
10
108.087
20
82.013
30
0
0
VERTEX
8
CUT
10
107.572
20
81.778
30
0
0
VERTEX
8
CUT
10
107.15
20
81.45
30
0
0
VERTEX
8
CUT
10
106.822
20
81.028
30
0
0
VERTEX
8
CUT
10
106.587
20
80.513
30
0
0
VERTEX
8
CUT
10
106.447
20
79.903
30
0
0
VERTEX
8
CUT
10
106.4
20
79.2
30
0
0
VERTEX
8
CUT
10
106.4
20
72.45
30
0
0
VERTEX
8
CUT
10
101.9
20
72.45
30
0
0
VERTEX
8
CUT
10
101.9
20
66.15
30
0
0
VERTEX
8
CUT
10
106.4
20
66.15
30
0
0
VERTEX
8
CUT
10
106.4
20
60.2
30
0
0
VERTEX
8
CUT
10
106.353
20
59.497
30
0
0
VERTEX
8
CUT
10
106.212
20
58.888
30
0
0
VERTEX
8
CUT
10
105.978
20
58.372
30
0
0
VERTEX
8
CUT
10
105.65
20
57.95
30
0
0
VERTEX
8
CUT
10
105.228
20
57.622
30
0
0
VERTEX
8
CUT
10
104.712
20
57.388
30
0
0
VERTEX
8
CUT
10
104.103
20
57.247
30
0
0
VERTEX
8
CUT
10
103.4
20
57.2
30
0
0
VERTEX
8
CUT
10
97.45
20
57.2
30
0
0
VERTEX
8
CUT
10
97.45
20
61.7
30
0
0
VERTEX
8
CUT
10
91.15
20
61.7
30
0
0
VERTEX
8
CUT
10
91.15
20
57.2
30
0
0
VERTEX
8
CUT
10
85.2
20
57.2
30
0
0
VERTEX
8
CUT
10
84.497
20
57.247
30
0
0
VERTEX
8
CUT
10
83.887
20
57.388
30
0
0
VERTEX
8
CUT
10
83.372
20
57.622
30
0
0
VERTEX
8
CUT
10
82.95
20
57.95
30
0
0
VERTEX
8
CUT
10
82.622
20
58.372
30
0
0
VERTEX
8
CUT
10
82.387
20
58.888
30
0
0
VERTEX
8
CUT
10
82.247
20
59.497
30
0
0
VERTEX
8
CUT
10
82.2
20
60.2
30
0
0
SEQEND
8
CUT
0
POLYLINE
8
RASTER
66
1
70
1
0
VERTEX
8
RASTER
10
83.8
20
102.8
30
0
0
VERTEX
8
RASTER
10
83.831
20
103.269
30
0
0
VERTEX
8
RASTER
10
83.925
20
103.675
30
0
0
VERTEX
8
RASTER
10
84.081
20
104.019
30
0
0
VERTEX
8
RASTER
10
84.3
20
104.3
30
0
0
VERTEX
8
RASTER
10
84.581
20
104.519
30
0
0
VERTEX
8
RASTER
10
84.925
20
104.675
30
0
0
VERTEX
8
RASTER
10
85.331
20
104.769
30
0
0
VERTEX
8
RASTER
10
85.8
20
104.8
30
0
0
VERTEX
8
RASTER
10
127.8
20
104.8
30
0
0
VERTEX
8
RASTER
10
128.269
20
104.769
30
0
0
VERTEX
8
RASTER
10
128.675
20
104.675
30
0
0
VERTEX
8
RASTER
10
129.019
20
104.519
30
0
0
VERTEX
8
RASTER
10
129.3
20
104.3
30
0
0
VERTEX
8
RASTER
10
129.519
20
104.019
30
0
0
VERTEX
8
RASTER
10
129.675
20
103.675
30
0
0
VERTEX
8
RASTER
10
129.769
20
103.269
30
0
0
VERTEX
8
RASTER
10
129.8
20
102.8
30
0
0
VERTEX
8
RASTER
10
129.8
20
85.8
30
0
0
VERTEX
8
RASTER
10
129.769
20
85.331
30
0
0
VERTEX
8
RASTER
10
129.675
20
84.925
30
0
0
VERTEX
8
RASTER
10
129.519
20
84.581
30
0
0
VERTEX
8
RASTER
10
129.3
20
84.3
30
0
0
VERTEX
8
RASTER
10
129.019
20
84.081
30
0
0
VERTEX
8
RASTER
10
128.675
20
83.925
30
0
0
VERTEX
8
RASTER
10
128.269
20
83.831
30
0
0
VERTEX
8
RASTER
10
127.8
20
83.8
30
0
0
VERTEX
8
RASTER
10
106.8
20
83.8
30
0
0
VERTEX
8
RASTER
10
106.331
20
83.769
30
0
0
VERTEX
8
RASTER
10
105.925
20
83.675
30
0
0
VERTEX
8
RASTER
10
105.581
20
83.519
30
0
0
VERTEX
8
RASTER
10
105.3
20
83.3
30
0
0
VERTEX
8
RASTER
10
105.081
20
83.019
30
0
0
VERTEX
8
RASTER
10
104.925
20
82.675
30
0
0
VERTEX
8
RASTER
10
104.831
20
82.269
30
0
0
VERTEX
8
RASTER
10
104.8
20
81.8
30
0
0
VERTEX
8
RASTER
10
104.8
20
60.8
30
0
0
VERTEX
8
RASTER
10
104.769
20
60.331
30
0
0
VERTEX
8
RASTER
10
104.675
20
59.925
30
0
0
VERTEX
8
RASTER
10
104.519
20
59.581
30
0
0
VERTEX
8
RASTER
10
104.3
20
59.3
30
0
0
VERTEX
8
RASTER
10
104.019
20
59.081
30
0
0
VERTEX
8
RASTER
10
103.675
20
58.925
30
0
0
VERTEX
8
RASTER
10
103.269
20
58.831
30
0
0
VERTEX
8
RASTER
10
102.8
20
58.8
30
0
0
VERTEX
8
RASTER
10
85.8
20
58.8
30
0
0
VERTEX
8
RASTER
10
85.331
20
58.831
30
0
0
VERTEX
8
RASTER
10
84.925
20
58.925
30
0
0
VERTEX
8
RASTER
10
84.581
20
59.081
30
0
0
VERTEX
8
RASTER
10
84.3
20
59.3
30
0
0
VERTEX
8
RASTER
10
84.081
20
59.581
30
0
0
VERTEX
8
RASTER
10
83.925
20
59.925
30
0
0
VERTEX
8
RASTER
10
83.831
20
60.331
30
0
0
VERTEX
8
RASTER
10
83.8
20
60.8
30
0
0
SEQEND
8
RASTER
0
POLYLINE
8
RASTER
66
1
70
1
0
VERTEX
8
RASTER
10
84.8
20
102.6
30
0
0
VERTEX
8
RASTER
10
84.8
20
61
30
0
0
VERTEX
8
RASTER
10
84.819
20
60.719
30
0
0
VERTEX
8
RASTER
10
84.875
20
60.475
30
0
0
VERTEX
8
RASTER
10
84.969
20
60.269
30
0
0
VERTEX
8
RASTER
10
85.1
20
60.1
30
0
0
VERTEX
8
RASTER
10
85.269
20
59.969
30
0
0
VERTEX
8
RASTER
10
85.475
20
59.875
30
0
0
VERTEX
8
RASTER
10
85.719
20
59.819
30
0
0
VERTEX
8
RASTER
10
86
20
59.8
30
0
0
VERTEX
8
RASTER
10
102.6
20
59.8
30
0
0
VERTEX
8
RASTER
10
102.881
20
59.819
30
0
0
VERTEX
8
RASTER
10
103.125
20
59.875
30
0
0
VERTEX
8
RASTER
10
103.331
20
59.969
30
0
0
VERTEX
8
RASTER
10
103.5
20
60.1
30
0
0
VERTEX
8
RASTER
10
103.631
20
60.269
30
0
0
VERTEX
8
RASTER
10
103.725
20
60.475
30
0
0
VERTEX
8
RASTER
10
103.781
20
60.719
30
0
0
VERTEX
8
RASTER
10
103.8
20
61
30
0
0
VERTEX
8
RASTER
10
103.8
20
83.6
30
0
0
VERTEX
8
RASTER
10
103.819
20
83.881
30
0
0
VERTEX
8
RASTER
10
103.875
20
84.125
30
0
0
VERTEX
8
RASTER
10
103.969
20
84.331
30
0
0
VERTEX
8
RASTER
10
104.1
20
84.5
30
0
0
VERTEX
8
RASTER
10
104.269
20
84.631
30
0
0
VERTEX
8
RASTER
10
104.475
20
84.725
30
0
0
VERTEX
8
RASTER
10
104.719
20
84.781
30
0
0
VERTEX
8
RASTER
10
105
20
84.8
30
0
0
VERTEX
8
RASTER
10
127.6
20
84.8
30
0
0
VERTEX
8
RASTER
10
127.881
20
84.819
30
0
0
VERTEX
8
RASTER
10
128.125
20
84.875
30
0
0
VERTEX
8
RASTER
10
128.331
20
84.969
30
0
0
VERTEX
8
RASTER
10
128.5
20
85.1
30
0
0
VERTEX
8
RASTER
10
128.631
20
85.269
30
0
0
VERTEX
8
RASTER
10
128.725
20
85.475
30
0
0
VERTEX
8
RASTER
10
128.781
20
85.719
30
0
0
VERTEX
8
RASTER
10
128.8
20
86
30
0
0
VERTEX
8
RASTER
10
128.8
20
102.6
30
0
0
VERTEX
8
RASTER
10
128.781
20
102.881
30
0
0
VERTEX
8
RASTER
10
128.725
20
103.125
30
0
0
VERTEX
8
RASTER
10
128.631
20
103.331
30
0
0
VERTEX
8
RASTER
10
128.5
20
103.5
30
0
0
VERTEX
8
RASTER
10
128.331
20
103.631
30
0
0
VERTEX
8
RASTER
10
128.125
20
103.725
30
0
0
VERTEX
8
RASTER
10
127.881
20
103.781
30
0
0
VERTEX
8
RASTER
10
127.6
20
103.8
30
0
0
VERTEX
8
RASTER
10
86
20
103.8
30
0
0
VERTEX
8
RASTER
10
85.719
20
103.781
30
0
0
VERTEX
8
RASTER
10
85.475
20
103.725
30
0
0
VERTEX
8
RASTER
10
85.269
20
103.631
30
0
0
VERTEX
8
RASTER
10
85.1
20
103.5
30
0
0
VERTEX
8
RASTER
10
84.969
20
103.331
30
0
0
VERTEX
8
RASTER
10
84.875
20
103.125
30
0
0
VERTEX
8
RASTER
10
84.819
20
102.881
30
0
0
VERTEX
8
RASTER
10
84.8
20
102.6
30
0
0
SEQEND
8
RASTER
0
POLYLINE
8
RASTER
66
1
70
1
0
VERTEX
8
RASTER
10
93.37
20
87.17
30
0
0
VERTEX
8
RASTER
10
93.501
20
88.113
30
0
0
VERTEX
8
RASTER
10
93.665
20
89.074
30
0
0
VERTEX
8
RASTER
10
93.866
20
90.042
30
0
0
VERTEX
8
RASTER
10
94.106
20
91.006
30
0
0
VERTEX
8
RASTER
10
94.39
20
91.956
30
0
0
VERTEX
8
RASTER
10
94.721
20
92.881
30
0
0
VERTEX
8
RASTER
10
95.103
20
93.769
30
0
0
VERTEX
8
RASTER
10
95.54
20
94.61
30
0
0
VERTEX
8
RASTER
10
96.315
20
94.3
30
0
0
VERTEX
8
RASTER
10
95.937
20
93.472
30
0
0
VERTEX
8
RASTER
10
95.613
20
92.619
30
0
0
VERTEX
8
RASTER
10
95.34
20
91.744
30
0
0
VERTEX
8
RASTER
10
95.114
20
90.851
30
0
0
VERTEX
8
RASTER
10
94.932
20
89.944
30
0
0
VERTEX
8
RASTER
10
94.789
20
89.025
30
0
0
VERTEX
8
RASTER
10
94.683
20
88.099
30
0
0
VERTEX
8
RASTER
10
94.61
20
87.17
30
0
0
SEQEND
8
RASTER
0
CIRCLE
8
RASTER
10
96.16
20
95.54
30
0
40
0.62
0
POLYLINE
8
RASTER
66
1
70
1
0
VERTEX
8
RASTER
10
91.353
20
97.289
30
0
0
VERTEX
8
RASTER
10
91.448
20
97.421
30
0
0
VERTEX
8
RASTER
10
91.617
20
97.515
30
0
0
VERTEX
8
RASTER
10
91.85
20
97.57
30
0
0
VERTEX
8
RASTER
10
92.138
20
97.587
30
0
0
VERTEX
8
RASTER
10
92.472
20
97.566
30
0
0
VERTEX
8
RASTER
10
92.843
20
97.507
30
0
0
VERTEX
8
RASTER
10
93.241
20
97.41
30
0
0
VERTEX
8
RASTER
10
93.658
20
97.276
30
0
0
VERTEX
8
RASTER
10
94.063
20
97.111
30
0
0
VERTEX
8
RASTER
10
94.431
20
96.929
30
0
0
VERTEX
8
RASTER
10
94.753
20
96.736
30
0
0
VERTEX
8
RASTER
10
95.022
20
96.537
30
0
0
VERTEX
8
RASTER
10
95.232
20
96.339
30
0
0
VERTEX
8
RASTER
10
95.375
20
96.147
30
0
0
VERTEX
8
RASTER
10
95.444
20
95.967
30
0
0
VERTEX
8
RASTER
10
95.432
20
95.805
30
0
0
VERTEX
8
RASTER
10
95.337
20
95.673
30
0
0
VERTEX
8
RASTER
10
95.168
20
95.58
30
0
0
VERTEX
8
RASTER
10
94.935
20
95.525
30
0
0
VERTEX
8
RASTER
10
94.647
20
95.507
30
0
0
VERTEX
8
RASTER
10
94.313
20
95.528
30
0
0
VERTEX
8
RASTER
10
93.942
20
95.587
30
0
0
VERTEX
8
RASTER
10
93.544
20
95.684
30
0
0
VERTEX
8
RASTER
10
93.128
20
95.819
30
0
0
VERTEX
8
RASTER
10
92.722
20
95.983
30
0
0
VERTEX
8
RASTER
10
92.355
20
96.165
30
0
0
VERTEX
8
RASTER
10
92.033
20
96.358
30
0
0
VERTEX
8
RASTER
10
91.763
20
96.557
30
0
0
VERTEX
8
RASTER
10
91.554
20
96.756
30
0
0
VERTEX
8
RASTER
10
91.411
20
96.948
30
0
0
VERTEX
8
RASTER
10
91.341
20
97.128
30
0
0
VERTEX
8
RASTER
10
91.353
20
97.289
30
0
0
SEQEND
8
RASTER
0
POLYLINE
8
RASTER
66
1
70
1
0
VERTEX
8
RASTER
10
94.411
20
100.347
30
0
0
VERTEX
8
RASTER
10
94.572
20
100.359
30
0
0
VERTEX
8
RASTER
10
94.752
20
100.289
30
0
0
VERTEX
8
RASTER
10
94.944
20
100.146
30
0
0
VERTEX
8
RASTER
10
95.143
20
99.937
30
0
0
VERTEX
8
RASTER
10
95.342
20
99.667
30
0
0
VERTEX
8
RASTER
10
95.535
20
99.345
30
0
0
VERTEX
8
RASTER
10
95.717
20
98.978
30
0
0
VERTEX
8
RASTER
10
95.881
20
98.572
30
0
0
VERTEX
8
RASTER
10
96.016
20
98.156
30
0
0
VERTEX
8
RASTER
10
96.113
20
97.758
30
0
0
VERTEX
8
RASTER
10
96.172
20
97.387
30
0
0
VERTEX
8
RASTER
10
96.193
20
97.053
30
0
0
VERTEX
8
RASTER
10
96.175
20
96.765
30
0
0
VERTEX
8
RASTER
10
96.12
20
96.532
30
0
0
VERTEX
8
RASTER
10
96.027
20
96.363
30
0
0
VERTEX
8
RASTER
10
95.895
20
96.268
30
0
0
VERTEX
8
RASTER
10
95.733
20
96.256
30
0
0
VERTEX
8
RASTER
10
95.553
20
96.325
30
0
0
VERTEX
8
RASTER
10
95.361
20
96.468
30
0
0
VERTEX
8
RASTER
10
95.163
20
96.678
30
0
0
VERTEX
8
RASTER
10
94.964
20
96.947
30
0
0
VERTEX
8
RASTER
10
94.771
20
97.269
30
0
0
VERTEX
8
RASTER
10
94.589
20
97.637
30
0
0
VERTEX
8
RASTER
10
94.424
20
98.042
30
0
0
VERTEX
8
RASTER
10
94.29
20
98.459
30
0
0
VERTEX
8
RASTER
10
94.193
20
98.857
30
0
0
VERTEX
8
RASTER
10
94.134
20
99.228
30
0
0
VERTEX
8
RASTER
10
94.113
20
99.562
30
0
0
VERTEX
8
RASTER
10
94.13
20
99.85
30
0
0
VERTEX
8
RASTER
10
94.185
20
100.083
30
0
0
VERTEX
8
RASTER
10
94.279
20
100.252
30
0
0
VERTEX
8
RASTER
10
94.411
20
100.347
30
0
0
SEQEND
8
RASTER
0
POLYLINE
8
RASTER
66
1
70
1
0
VERTEX
8
RASTER
10
98.717
20
99.97
30
0
0
VERTEX
8
RASTER
10
98.831
20
99.853
30
0
0
VERTEX
8
RASTER
10
98.893
20
99.671
30
0
0
VERTEX
8
RASTER
10
98.907
20
99.432
30
0
0
VERTEX
8
RASTER
10
98.874
20
99.145
30
0
0
VERTEX
8
RASTER
10
98.796
20
98.82
30
0
0
VERTEX
8
RASTER
10
98.673
20
98.465
30
0
0
VERTEX
8
RASTER
10
98.509
20
98.09
30
0
0
VERTEX
8
RASTER
10
98.304
20
97.703
30
0
0
VERTEX
8
RASTER
10
98.071
20
97.332
30
0
0
VERTEX
8
RASTER
10
97.829
20
97.002
30
0
0
VERTEX
8
RASTER
10
97.582
20
96.718
30
0
0
VERTEX
8
RASTER
10
97.34
20
96.488
30
0
0
VERTEX
8
RASTER
10
97.108
20
96.315
30
0
0
VERTEX
8
RASTER
10
96.894
20
96.208
30
0
0
VERTEX
8
RASTER
10
96.705
20
96.171
30
0
0
VERTEX
8
RASTER
10
96.547
20
96.211
30
0
0
VERTEX
8
RASTER
10
96.434
20
96.327
30
0
0
VERTEX
8
RASTER
10
96.372
20
96.51
30
0
0
VERTEX
8
RASTER
10
96.358
20
96.749
30
0
0
VERTEX
8
RASTER
10
96.391
20
97.036
30
0
0
VERTEX
8
RASTER
10
96.469
20
97.361
30
0
0
VERTEX
8
RASTER
10
96.592
20
97.716
30
0
0
VERTEX
8
RASTER
10
96.756
20
98.091
30
0
0
VERTEX
8
RASTER
10
96.961
20
98.478
30
0
0
VERTEX
8
RASTER
10
97.194
20
98.849
30
0
0
VERTEX
8
RASTER
10
97.436
20
99.179
30
0
0
VERTEX
8
RASTER
10
97.683
20
99.462
30
0
0
VERTEX
8
RASTER
10
97.925
20
99.693
30
0
0
VERTEX
8
RASTER
10
98.157
20
99.865
30
0
0
VERTEX
8
RASTER
10
98.371
20
99.973
30
0
0
VERTEX
8
RASTER
10
98.56
20
100.01
30
0
0
VERTEX
8
RASTER
10
98.717
20
99.97
30
0
0
SEQEND
8
RASTER
0
POLYLINE
8
RASTER
66
1
70
1
0
VERTEX
8
RASTER
10
101.197
20
96.428
30
0
0
VERTEX
8
RASTER
10
101.181
20
96.267
30
0
0
VERTEX
8
RASTER
10
101.082
20
96.102
30
0
0
VERTEX
8
RASTER
10
100.908
20
95.937
30
0
0
VERTEX
8
RASTER
10
100.667
20
95.778
30
0
0
VERTEX
8
RASTER
10
100.367
20
95.629
30
0
0
VERTEX
8
RASTER
10
100.016
20
95.495
30
0
0
VERTEX
8
RASTER
10
99.623
20
95.38
30
0
0
VERTEX
8
RASTER
10
99.195
20
95.288
30
0
0
VERTEX
8
RASTER
10
98.761
20
95.228
30
0
0
VERTEX
8
RASTER
10
98.352
20
95.201
30
0
0
VERTEX
8
RASTER
10
97.977
20
95.208
30
0
0
VERTEX
8
RASTER
10
97.644
20
95.245
30
0
0
VERTEX
8
RASTER
10
97.363
20
95.312
30
0
0
VERTEX
8
RASTER
10
97.144
20
95.407
30
0
0
VERTEX
8
RASTER
10
96.994
20
95.528
30
0
0
VERTEX
8
RASTER
10
96.923
20
95.675
30
0
0
VERTEX
8
RASTER
10
96.94
20
95.836
30
0
0
VERTEX
8
RASTER
10
97.039
20
96.001
30
0
0
VERTEX
8
RASTER
10
97.213
20
96.166
30
0
0
VERTEX
8
RASTER
10
97.454
20
96.325
30
0
0
VERTEX
8
RASTER
10
97.754
20
96.474
30
0
0
VERTEX
8
RASTER
10
98.104
20
96.608
30
0
0
VERTEX
8
RASTER
10
98.498
20
96.723
30
0
0
VERTEX
8
RASTER
10
98.926
20
96.815
30
0
0
VERTEX
8
RASTER
10
99.359
20
96.875
30
0
0
VERTEX
8
RASTER
10
99.768
20
96.901
30
0
0
VERTEX
8
RASTER
10
100.144
20
96.895
30
0
0
VERTEX
8
RASTER
10
100.476
20
96.858
30
0
0
VERTEX
8
RASTER
10
100.757
20
96.791
30
0
0
VERTEX
8
RASTER
10
100.977
20
96.696
30
0
0
VERTEX
8
RASTER
10
101.127
20
96.574
30
0
0
VERTEX
8
RASTER
10
101.197
20
96.428
30
0
0
SEQEND
8
RASTER
0
POLYLINE
8
RASTER
66
1
70
1
0
VERTEX
8
RASTER
10
100.078
20
92.252
30
0
0
VERTEX
8
RASTER
10
99.944
20
92.161
30
0
0
VERTEX
8
RASTER
10
99.754
20
92.131
30
0
0
VERTEX
8
RASTER
10
99.516
20
92.158
30
0
0
VERTEX
8
RASTER
10
99.239
20
92.241
30
0
0
VERTEX
8
RASTER
10
98.932
20
92.375
30
0
0
VERTEX
8
RASTER
10
98.604
20
92.557
30
0
0
VERTEX
8
RASTER
10
98.263
20
92.784
30
0
0
VERTEX
8
RASTER
10
97.918
20
93.053
30
0
0
VERTEX
8
RASTER
10
97.593
20
93.346
30
0
0
VERTEX
8
RASTER
10
97.31
20
93.643
30
0
0
VERTEX
8
RASTER
10
97.074
20
93.935
30
0
0
VERTEX
8
RASTER
10
96.888
20
94.213
30
0
0
VERTEX
8
RASTER
10
96.759
20
94.472
30
0
0
VERTEX
8
RASTER
10
96.69
20
94.701
30
0
0
VERTEX
8
RASTER
10
96.687
20
94.894
30
0
0
VERTEX
8
RASTER
10
96.754
20
95.042
30
0
0
VERTEX
8
RASTER
10
96.888
20
95.133
30
0
0
VERTEX
8
RASTER
10
97.078
20
95.163
30
0
0
VERTEX
8
RASTER
10
97.316
20
95.136
30
0
0
VERTEX
8
RASTER
10
97.593
20
95.053
30
0
0
VERTEX
8
RASTER
10
97.9
20
94.919
30
0
0
VERTEX
8
RASTER
10
98.228
20
94.737
30
0
0
VERTEX
8
RASTER
10
98.569
20
94.51
30
0
0
VERTEX
8
RASTER
10
98.914
20
94.241
30
0
0
VERTEX
8
RASTER
10
99.239
20
93.948
30
0
0
VERTEX
8
RASTER
10
99.522
20
93.651
30
0
0
VERTEX
8
RASTER
10
99.759
20
93.359
30
0
0
VERTEX
8
RASTER
10
99.944
20
93.08
30
0
0
VERTEX
8
RASTER
10
100.073
20
92.822
30
0
0
VERTEX
8
RASTER
10
100.142
20
92.593
30
0
0
VERTEX
8
RASTER
10
100.145
20
92.4
30
0
0
VERTEX
8
RASTER
10
100.078
20
92.252
30
0
0
SEQEND
8
RASTER
0
POLYLINE
8
CUT
66
1
70
1
0
VERTEX
8
CUT
10
135.4
20
103.4
30
0
0
VERTEX
8
CUT
10
135.447
20
104.103
30
0
0
VERTEX
8
CUT
10
135.587
20
104.713
30
0
0
VERTEX
8
CUT
10
135.822
20
105.228
30
0
0
VERTEX
8
CUT
10
136.15
20
105.65
30
0
0
VERTEX
8
CUT
10
136.572
20
105.978
30
0
0
VERTEX
8
CUT
10
137.087
20
106.213
30
0
0
VERTEX
8
CUT
10
137.697
20
106.353
30
0
0
VERTEX
8
CUT
10
138.4
20
106.4
30
0
0
VERTEX
8
CUT
10
144.35
20
106.4
30
0
0
VERTEX
8
CUT
10
144.35
20
101.9
30
0
0
VERTEX
8
CUT
10
150.65
20
101.9
30
0
0
VERTEX
8
CUT
10
150.65
20
106.4
30
0
0
VERTEX
8
CUT
10
169.35
20
106.4
30
0
0
VERTEX
8
CUT
10
169.35
20
101.9
30
0
0
VERTEX
8
CUT
10
175.65
20
101.9
30
0
0
VERTEX
8
CUT
10
175.65
20
106.4
30
0
0
VERTEX
8
CUT
10
194.35
20
106.4
30
0
0
VERTEX
8
CUT
10
194.35
20
101.9
30
0
0
VERTEX
8
CUT
10
200.65
20
101.9
30
0
0
VERTEX
8
CUT
10
200.65
20
106.4
30
0
0
VERTEX
8
CUT
10
219.35
20
106.4
30
0
0
VERTEX
8
CUT
10
219.35
20
101.9
30
0
0
VERTEX
8
CUT
10
225.65
20
101.9
30
0
0
VERTEX
8
CUT
10
225.65
20
106.4
30
0
0
VERTEX
8
CUT
10
231.6
20
106.4
30
0
0
VERTEX
8
CUT
10
232.303
20
106.353
30
0
0
VERTEX
8
CUT
10
232.912
20
106.213
30
0
0
VERTEX
8
CUT
10
233.428
20
105.978
30
0
0
VERTEX
8
CUT
10
233.85
20
105.65
30
0
0
VERTEX
8
CUT
10
234.178
20
105.228
30
0
0
VERTEX
8
CUT
10
234.412
20
104.713
30
0
0
VERTEX
8
CUT
10
234.553
20
104.103
30
0
0
VERTEX
8
CUT
10
234.6
20
103.4
30
0
0
VERTEX
8
CUT
10
234.6
20
97.45
30
0
0
VERTEX
8
CUT
10
230.1
20
97.45
30
0
0
VERTEX
8
CUT
10
230.1
20
91.15
30
0
0
VERTEX
8
CUT
10
234.6
20
91.15
30
0
0
VERTEX
8
CUT
10
234.6
20
85.2
30
0
0
VERTEX
8
CUT
10
234.553
20
84.497
30
0
0
VERTEX
8
CUT
10
234.412
20
83.888
30
0
0
VERTEX
8
CUT
10
234.178
20
83.372
30
0
0
VERTEX
8
CUT
10
233.85
20
82.95
30
0
0
VERTEX
8
CUT
10
233.428
20
82.622
30
0
0
VERTEX
8
CUT
10
232.912
20
82.388
30
0
0
VERTEX
8
CUT
10
232.303
20
82.247
30
0
0
VERTEX
8
CUT
10
231.6
20
82.2
30
0
0
VERTEX
8
CUT
10
225.65
20
82.2
30
0
0
VERTEX
8
CUT
10
225.65
20
86.7
30
0
0
VERTEX
8
CUT
10
219.35
20
86.7
30
0
0
VERTEX
8
CUT
10
219.35
20
82.2
30
0
0
VERTEX
8
CUT
10
200.65
20
82.2
30
0
0
VERTEX
8
CUT
10
200.65
20
86.7
30
0
0
VERTEX
8
CUT
10
194.35
20
86.7
30
0
0
VERTEX
8
CUT
10
194.35
20
82.2
30
0
0
VERTEX
8
CUT
10
175.65
20
82.2
30
0
0
VERTEX
8
CUT
10
175.65
20
86.7
30
0
0
VERTEX
8
CUT
10
169.35
20
86.7
30
0
0
VERTEX
8
CUT
10
169.35
20
82.2
30
0
0
VERTEX
8
CUT
10
150.65
20
82.2
30
0
0
VERTEX
8
CUT
10
150.65
20
86.7
30
0
0
VERTEX
8
CUT
10
144.35
20
86.7
30
0
0
VERTEX
8
CUT
10
144.35
20
82.2
30
0
0
VERTEX
8
CUT
10
138.4
20
82.2
30
0
0
VERTEX
8
CUT
10
137.697
20
82.247
30
0
0
VERTEX
8
CUT
10
137.087
20
82.388
30
0
0
VERTEX
8
CUT
10
136.572
20
82.622
30
0
0
VERTEX
8
CUT
10
136.15
20
82.95
30
0
0
VERTEX
8
CUT
10
135.822
20
83.372
30
0
0
VERTEX
8
CUT
10
135.587
20
83.888
30
0
0
VERTEX
8
CUT
10
135.447
20
84.497
30
0
0
VERTEX
8
CUT
10
135.4
20
85.2
30
0
0
SEQEND
8
CUT
0
POLYLINE
8
RASTER
66
1
70
1
0
VERTEX
8
RASTER
10
137
20
102.8
30
0
0
VERTEX
8
RASTER
10
137.031
20
103.269
30
0
0
VERTEX
8
RASTER
10
137.125
20
103.675
30
0
0
VERTEX
8
RASTER
10
137.281
20
104.019
30
0
0
VERTEX
8
RASTER
10
137.5
20
104.3
30
0
0
VERTEX
8
RASTER
10
137.781
20
104.519
30
0
0
VERTEX
8
RASTER
10
138.125
20
104.675
30
0
0
VERTEX
8
RASTER
10
138.531
20
104.769
30
0
0
VERTEX
8
RASTER
10
139
20
104.8
30
0
0
VERTEX
8
RASTER
10
231
20
104.8
30
0
0
VERTEX
8
RASTER
10
231.469
20
104.769
30
0
0
VERTEX
8
RASTER
10
231.875
20
104.675
30
0
0
VERTEX
8
RASTER
10
232.219
20
104.519
30
0
0
VERTEX
8
RASTER
10
232.5
20
104.3
30
0
0
VERTEX
8
RASTER
10
232.719
20
104.019
30
0
0
VERTEX
8
RASTER
10
232.875
20
103.675
30
0
0
VERTEX
8
RASTER
10
232.969
20
103.269
30
0
0
VERTEX
8
RASTER
10
233
20
102.8
30
0
0
VERTEX
8
RASTER
10
233
20
85.8
30
0
0
VERTEX
8
RASTER
10
232.969
20
85.331
30
0
0
VERTEX
8
RASTER
10
232.875
20
84.925
30
0
0
VERTEX
8
RASTER
10
232.719
20
84.581
30
0
0
VERTEX
8
RASTER
10
232.5
20
84.3
30
0
0
VERTEX
8
RASTER
10
232.219
20
84.081
30
0
0
VERTEX
8
RASTER
10
231.875
20
83.925
30
0
0
VERTEX
8
RASTER
10
231.469
20
83.831
30
0
0
VERTEX
8
RASTER
10
231
20
83.8
30
0
0
VERTEX
8
RASTER
10
139
20
83.8
30
0
0
VERTEX
8
RASTER
10
138.531
20
83.831
30
0
0
VERTEX
8
RASTER
10
138.125
20
83.925
30
0
0
VERTEX
8
RASTER
10
137.781
20
84.081
30
0
0
VERTEX
8
RASTER
10
137.5
20
84.3
30
0
0
VERTEX
8
RASTER
10
137.281
20
84.581
30
0
0
VERTEX
8
RASTER
10
137.125
20
84.925
30
0
0
VERTEX
8
RASTER
10
137.031
20
85.331
30
0
0
VERTEX
8
RASTER
10
137
20
85.8
30
0
0
SEQEND
8
RASTER
0
POLYLINE
8
RASTER
66
1
70
1
0
VERTEX
8
RASTER
10
138
20
102.6
30
0
0
VERTEX
8
RASTER
10
138
20
86
30
0
0
VERTEX
8
RASTER
10
138.019
20
85.719
30
0
0
VERTEX
8
RASTER
10
138.075
20
85.475
30
0
0
VERTEX
8
RASTER
10
138.169
20
85.269
30
0
0
VERTEX
8
RASTER
10
138.3
20
85.1
30
0
0
VERTEX
8
RASTER
10
138.469
20
84.969
30
0
0
VERTEX
8
RASTER
10
138.675
20
84.875
30
0
0
VERTEX
8
RASTER
10
138.919
20
84.819
30
0
0
VERTEX
8
RASTER
10
139.2
20
84.8
30
0
0
VERTEX
8
RASTER
10
230.8
20
84.8
30
0
0
VERTEX
8
RASTER
10
231.081
20
84.819
30
0
0
VERTEX
8
RASTER
10
231.325
20
84.875
30
0
0
VERTEX
8
RASTER
10
231.531
20
84.969
30
0
0
VERTEX
8
RASTER
10
231.7
20
85.1
30
0
0
VERTEX
8
RASTER
10
231.831
20
85.269
30
0
0
VERTEX
8
RASTER
10
231.925
20
85.475
30
0
0
VERTEX
8
RASTER
10
231.981
20
85.719
30
0
0
VERTEX
8
RASTER
10
232
20
86
30
0
0
VERTEX
8
RASTER
10
232
20
102.6
30
0
0
VERTEX
8
RASTER
10
231.981
20
102.881
30
0
0
VERTEX
8
RASTER
10
231.925
20
103.125
30
0
0
VERTEX
8
RASTER
10
231.831
20
103.331
30
0
0
VERTEX
8
RASTER
10
231.7
20
103.5
30
0
0
VERTEX
8
RASTER
10
231.531
20
103.631
30
0
0
VERTEX
8
RASTER
10
231.325
20
103.725
30
0
0
VERTEX
8
RASTER
10
231.081
20
103.781
30
0
0
VERTEX
8
RASTER
10
230.8
20
103.8
30
0
0
VERTEX
8
RASTER
10
139.2
20
103.8
30
0
0
VERTEX
8
RASTER
10
138.919
20
103.781
30
0
0
VERTEX
8
RASTER
10
138.675
20
103.725
30
0
0
VERTEX
8
RASTER
10
138.469
20
103.631
30
0
0
VERTEX
8
RASTER
10
138.3
20
103.5
30
0
0
VERTEX
8
RASTER
10
138.169
20
103.331
30
0
0
VERTEX
8
RASTER
10
138.075
20
103.125
30
0
0
VERTEX
8
RASTER
10
138.019
20
102.881
30
0
0
VERTEX
8
RASTER
10
138
20
102.6
30
0
0
SEQEND
8
RASTER
0
POLYLINE
8
RASTER
66
1
70
1
0
VERTEX
8
RASTER
10
171.57
20
87.17
30
0
0
VERTEX
8
RASTER
10
171.701
20
88.113
30
0
0
VERTEX
8
RASTER
10
171.865
20
89.074
30
0
0
VERTEX
8
RASTER
10
172.066
20
90.042
30
0
0
VERTEX
8
RASTER
10
172.306
20
91.006
30
0
0
VERTEX
8
RASTER
10
172.59
20
91.956
30
0
0
VERTEX
8
RASTER
10
172.921
20
92.881
30
0
0
VERTEX
8
RASTER
10
173.303
20
93.769
30
0
0
VERTEX
8
RASTER
10
173.74
20
94.61
30
0
0
VERTEX
8
RASTER
10
174.515
20
94.3
30
0
0
VERTEX
8
RASTER
10
174.137
20
93.472
30
0
0
VERTEX
8
RASTER
10
173.813
20
92.619
30
0
0
VERTEX
8
RASTER
10
173.54
20
91.744
30
0
0
VERTEX
8
RASTER
10
173.314
20
90.851
30
0
0
VERTEX
8
RASTER
10
173.132
20
89.944
30
0
0
VERTEX
8
RASTER
10
172.989
20
89.025
30
0
0
VERTEX
8
RASTER
10
172.883
20
88.099
30
0
0
VERTEX
8
RASTER
10
172.81
20
87.17
30
0
0
SEQEND
8
RASTER
0
CIRCLE
8
RASTER
10
174.36
20
95.54
30
0
40
0.62
0
POLYLINE
8
RASTER
66
1
70
1
0
VERTEX
8
RASTER
10
169.553
20
97.289
30
0
0
VERTEX
8
RASTER
10
169.648
20
97.421
30
0
0
VERTEX
8
RASTER
10
169.817
20
97.515
30
0
0
VERTEX
8
RASTER
10
170.05
20
97.57
30
0
0
VERTEX
8
RASTER
10
170.338
20
97.587
30
0
0
VERTEX
8
RASTER
10
170.672
20
97.566
30
0
0
VERTEX
8
RASTER
10
171.043
20
97.507
30
0
0
VERTEX
8
RASTER
10
171.441
20
97.41
30
0
0
VERTEX
8
RASTER
10
171.858
20
97.276
30
0
0
VERTEX
8
RASTER
10
172.263
20
97.111
30
0
0
VERTEX
8
RASTER
10
172.631
20
96.929
30
0
0
VERTEX
8
RASTER
10
172.953
20
96.736
30
0
0
VERTEX
8
RASTER
10
173.222
20
96.537
30
0
0
VERTEX
8
RASTER
10
173.432
20
96.339
30
0
0
VERTEX
8
RASTER
10
173.575
20
96.147
30
0
0
VERTEX
8
RASTER
10
173.644
20
95.967
30
0
0
VERTEX
8
RASTER
10
173.632
20
95.805
30
0
0
VERTEX
8
RASTER
10
173.537
20
95.673
30
0
0
VERTEX
8
RASTER
10
173.368
20
95.58
30
0
0
VERTEX
8
RASTER
10
173.135
20
95.525
30
0
0
VERTEX
8
RASTER
10
172.847
20
95.507
30
0
0
VERTEX
8
RASTER
10
172.513
20
95.528
30
0
0
VERTEX
8
RASTER
10
172.142
20
95.587
30
0
0
VERTEX
8
RASTER
10
171.744
20
95.684
30
0
0
VERTEX
8
RASTER
10
171.328
20
95.819
30
0
0
VERTEX
8
RASTER
10
170.922
20
95.983
30
0
0
VERTEX
8
RASTER
10
170.555
20
96.165
30
0
0
VERTEX
8
RASTER
10
170.233
20
96.358
30
0
0
VERTEX
8
RASTER
10
169.963
20
96.557
30
0
0
VERTEX
8
RASTER
10
169.754
20
96.756
30
0
0
VERTEX
8
RASTER
10
169.611
20
96.948
30
0
0
VERTEX
8
RASTER
10
169.541
20
97.128
30
0
0
VERTEX
8
RASTER
10
169.553
20
97.289
30
0
0
SEQEND
8
RASTER
0
POLYLINE
8
RASTER
66
1
70
1
0
VERTEX
8
RASTER
10
172.611
20
100.347
30
0
0
VERTEX
8
RASTER
10
172.772
20
100.359
30
0
0
VERTEX
8
RASTER
10
172.952
20
100.289
30
0
0
VERTEX
8
RASTER
10
173.144
20
100.146
30
0
0
VERTEX
8
RASTER
10
173.343
20
99.937
30
0
0
VERTEX
8
RASTER
10
173.542
20
99.667
30
0
0
VERTEX
8
RASTER
10
173.735
20
99.345
30
0
0
VERTEX
8
RASTER
10
173.917
20
98.978
30
0
0
VERTEX
8
RASTER
10
174.081
20
98.572
30
0
0
VERTEX
8
RASTER
10
174.216
20
98.156
30
0
0
VERTEX
8
RASTER
10
174.313
20
97.758
30
0
0
VERTEX
8
RASTER
10
174.372
20
97.387
30
0
0
VERTEX
8
RASTER
10
174.393
20
97.053
30
0
0
VERTEX
8
RASTER
10
174.375
20
96.765
30
0
0
VERTEX
8
RASTER
10
174.32
20
96.532
30
0
0
VERTEX
8
RASTER
10
174.227
20
96.363
30
0
0
VERTEX
8
RASTER
10
174.095
20
96.268
30
0
0
VERTEX
8
RASTER
10
173.933
20
96.256
30
0
0
VERTEX
8
RASTER
10
173.753
20
96.325
30
0
0
VERTEX
8
RASTER
10
173.561
20
96.468
30
0
0
VERTEX
8
RASTER
10
173.363
20
96.678
30
0
0
VERTEX
8
RASTER
10
173.164
20
96.947
30
0
0
VERTEX
8
RASTER
10
172.971
20
97.269
30
0
0
VERTEX
8
RASTER
10
172.789
20
97.637
30
0
0
VERTEX
8
RASTER
10
172.624
20
98.042
30
0
0
VERTEX
8
RASTER
10
172.49
20
98.459
30
0
0
VERTEX
8
RASTER
10
172.393
20
98.857
30
0
0
VERTEX
8
RASTER
10
172.334
20
99.228
30
0
0
VERTEX
8
RASTER
10
172.313
20
99.562
30
0
0
VERTEX
8
RASTER
10
172.33
20
99.85
30
0
0
VERTEX
8
RASTER
10
172.385
20
100.083
30
0
0
VERTEX
8
RASTER
10
172.479
20
100.252
30
0
0
VERTEX
8
RASTER
10
172.611
20
100.347
30
0
0
SEQEND
8
RASTER
0
POLYLINE
8
RASTER
66
1
70
1
0
VERTEX
8
RASTER
10
176.917
20
99.97
30
0
0
VERTEX
8
RASTER
10
177.031
20
99.853
30
0
0
VERTEX
8
RASTER
10
177.093
20
99.671
30
0
0
VERTEX
8
RASTER
10
177.107
20
99.432
30
0
0
VERTEX
8
RASTER
10
177.074
20
99.145
30
0
0
VERTEX
8
RASTER
10
176.996
20
98.82
30
0
0
VERTEX
8
RASTER
10
176.873
20
98.465
30
0
0
VERTEX
8
RASTER
10
176.709
20
98.09
30
0
0
VERTEX
8
RASTER
10
176.504
20
97.703
30
0
0
VERTEX
8
RASTER
10
176.271
20
97.332
30
0
0
VERTEX
8
RASTER
10
176.029
20
97.002
30
0
0
VERTEX
8
RASTER
10
175.782
20
96.718
30
0
0
VERTEX
8
RASTER
10
175.54
20
96.488
30
0
0
VERTEX
8
RASTER
10
175.308
20
96.315
30
0
0
VERTEX
8
RASTER
10
175.094
20
96.208
30
0
0
VERTEX
8
RASTER
10
174.905
20
96.171
30
0
0
VERTEX
8
RASTER
10
174.747
20
96.211
30
0
0
VERTEX
8
RASTER
10
174.634
20
96.327
30
0
0
VERTEX
8
RASTER
10
174.572
20
96.51
30
0
0
VERTEX
8
RASTER
10
174.558
20
96.749
30
0
0
VERTEX
8
RASTER
10
174.591
20
97.036
30
0
0
VERTEX
8
RASTER
10
174.669
20
97.361
30
0
0
VERTEX
8
RASTER
10
174.792
20
97.716
30
0
0
VERTEX
8
RASTER
10
174.956
20
98.091
30
0
0
VERTEX
8
RASTER
10
175.161
20
98.478
30
0
0
VERTEX
8
RASTER
10
175.394
20
98.849
30
0
0
VERTEX
8
RASTER
10
175.636
20
99.179
30
0
0
VERTEX
8
RASTER
10
175.883
20
99.462
30
0
0
VERTEX
8
RASTER
10
176.125
20
99.693
30
0
0
VERTEX
8
RASTER
10
176.357
20
99.865
30
0
0
VERTEX
8
RASTER
10
176.571
20
99.973
30
0
0
VERTEX
8
RASTER
10
176.76
20
100.01
30
0
0
VERTEX
8
RASTER
10
176.917
20
99.97
30
0
0
SEQEND
8
RASTER
0
POLYLINE
8
RASTER
66
1
70
1
0
VERTEX
8
RASTER
10
179.397
20
96.428
30
0
0
VERTEX
8
RASTER
10
179.381
20
96.267
30
0
0
VERTEX
8
RASTER
10
179.282
20
96.102
30
0
0
VERTEX
8
RASTER
10
179.108
20
95.937
30
0
0
VERTEX
8
RASTER
10
178.867
20
95.778
30
0
0
VERTEX
8
RASTER
10
178.567
20
95.629
30
0
0
VERTEX
8
RASTER
10
178.216
20
95.495
30
0
0
VERTEX
8
RASTER
10
177.823
20
95.38
30
0
0
VERTEX
8
RASTER
10
177.395
20
95.288
30
0
0
VERTEX
8
RASTER
10
176.961
20
95.228
30
0
0
VERTEX
8
RASTER
10
176.552
20
95.201
30
0
0
VERTEX
8
RASTER
10
176.177
20
95.208
30
0
0
VERTEX
8
RASTER
10
175.844
20
95.245
30
0
0
VERTEX
8
RASTER
10
175.563
20
95.312
30
0
0
VERTEX
8
RASTER
10
175.344
20
95.407
30
0
0
VERTEX
8
RASTER
10
175.194
20
95.528
30
0
0
VERTEX
8
RASTER
10
175.123
20
95.675
30
0
0
VERTEX
8
RASTER
10
175.14
20
95.836
30
0
0
VERTEX
8
RASTER
10
175.239
20
96.001
30
0
0
VERTEX
8
RASTER
10
175.413
20
96.166
30
0
0
VERTEX
8
RASTER
10
175.654
20
96.325
30
0
0
VERTEX
8
RASTER
10
175.954
20
96.474
30
0
0
VERTEX
8
RASTER
10
176.304
20
96.608
30
0
0
VERTEX
8
RASTER
10
176.698
20
96.723
30
0
0
VERTEX
8
RASTER
10
177.126
20
96.815
30
0
0
VERTEX
8
RASTER
10
177.559
20
96.875
30
0
0
VERTEX
8
RASTER
10
177.968
20
96.901
30
0
0
VERTEX
8
RASTER
10
178.344
20
96.895
30
0
0
VERTEX
8
RASTER
10
178.676
20
96.858
30
0
0
VERTEX
8
RASTER
10
178.957
20
96.791
30
0
0
VERTEX
8
RASTER
10
179.177
20
96.696
30
0
0
VERTEX
8
RASTER
10
179.327
20
96.574
30
0
0
VERTEX
8
RASTER
10
179.397
20
96.428
30
0
0
SEQEND
8
RASTER
0
POLYLINE
8
RASTER
66
1
70
1
0
VERTEX
8
RASTER
10
178.278
20
92.252
30
0
0
VERTEX
8
RASTER
10
178.144
20
92.161
30
0
0
VERTEX
8
RASTER
10
177.954
20
92.131
30
0
0
VERTEX
8
RASTER
10
177.716
20
92.158
30
0
0
VERTEX
8
RASTER
10
177.439
20
92.241
30
0
0
VERTEX
8
RASTER
10
177.132
20
92.375
30
0
0
VERTEX
8
RASTER
10
176.804
20
92.557
30
0
0
VERTEX
8
RASTER
10
176.463
20
92.784
30
0
0
VERTEX
8
RASTER
10
176.118
20
93.053
30
0
0
VERTEX
8
RASTER
10
175.793
20
93.346
30
0
0
VERTEX
8
RASTER
10
175.51
20
93.643
30
0
0
VERTEX
8
RASTER
10
175.274
20
93.935
30
0
0
VERTEX
8
RASTER
10
175.088
20
94.213
30
0
0
VERTEX
8
RASTER
10
174.959
20
94.472
30
0
0
VERTEX
8
RASTER
10
174.89
20
94.701
30
0
0
VERTEX
8
RASTER
10
174.887
20
94.894
30
0
0
VERTEX
8
RASTER
10
174.954
20
95.042
30
0
0
VERTEX
8
RASTER
10
175.088
20
95.133
30
0
0
VERTEX
8
RASTER
10
175.278
20
95.163
30
0
0
VERTEX
8
RASTER
10
175.516
20
95.136
30
0
0
VERTEX
8
RASTER
10
175.793
20
95.053
30
0
0
VERTEX
8
RASTER
10
176.1
20
94.919
30
0
0
VERTEX
8
RASTER
10
176.428
20
94.737
30
0
0
VERTEX
8
RASTER
10
176.769
20
94.51
30
0
0
VERTEX
8
RASTER
10
177.114
20
94.241
30
0
0
VERTEX
8
RASTER
10
177.439
20
93.948
30
0
0
VERTEX
8
RASTER
10
177.722
20
93.651
30
0
0
VERTEX
8
RASTER
10
177.959
20
93.359
30
0
0
VERTEX
8
RASTER
10
178.144
20
93.08
30
0
0
VERTEX
8
RASTER
10
178.273
20
92.822
30
0
0
VERTEX
8
RASTER
10
178.342
20
92.593
30
0
0
VERTEX
8
RASTER
10
178.345
20
92.4
30
0
0
VERTEX
8
RASTER
10
178.278
20
92.252
30
0
0
SEQEND
8
RASTER
0
POLYLINE
8
CUT
66
1
70
1
0
VERTEX
8
CUT
10
238.6
20
103.4
30
0
0
VERTEX
8
CUT
10
238.647
20
104.103
30
0
0
VERTEX
8
CUT
10
238.787
20
104.713
30
0
0
VERTEX
8
CUT
10
239.022
20
105.228
30
0
0
VERTEX
8
CUT
10
239.35
20
105.65
30
0
0
VERTEX
8
CUT
10
239.772
20
105.978
30
0
0
VERTEX
8
CUT
10
240.287
20
106.213
30
0
0
VERTEX
8
CUT
10
240.897
20
106.353
30
0
0
VERTEX
8
CUT
10
241.6
20
106.4
30
0
0
VERTEX
8
CUT
10
247.55
20
106.4
30
0
0
VERTEX
8
CUT
10
247.55
20
101.9
30
0
0
VERTEX
8
CUT
10
253.85
20
101.9
30
0
0
VERTEX
8
CUT
10
253.85
20
106.4
30
0
0
VERTEX
8
CUT
10
272.55
20
106.4
30
0
0
VERTEX
8
CUT
10
272.55
20
101.9
30
0
0
VERTEX
8
CUT
10
278.85
20
101.9
30
0
0
VERTEX
8
CUT
10
278.85
20
106.4
30
0
0
VERTEX
8
CUT
10
284.8
20
106.4
30
0
0
VERTEX
8
CUT
10
285.503
20
106.353
30
0
0
VERTEX
8
CUT
10
286.112
20
106.213
30
0
0
VERTEX
8
CUT
10
286.628
20
105.978
30
0
0
VERTEX
8
CUT
10
287.05
20
105.65
30
0
0
VERTEX
8
CUT
10
287.378
20
105.228
30
0
0
VERTEX
8
CUT
10
287.612
20
104.713
30
0
0
VERTEX
8
CUT
10
287.753
20
104.103
30
0
0
VERTEX
8
CUT
10
287.8
20
103.4
30
0
0
VERTEX
8
CUT
10
287.8
20
97.45
30
0
0
VERTEX
8
CUT
10
283.3
20
97.45
30
0
0
VERTEX
8
CUT
10
283.3
20
91.15
30
0
0
VERTEX
8
CUT
10
287.8
20
91.15
30
0
0
VERTEX
8
CUT
10
287.8
20
72.45
30
0
0
VERTEX
8
CUT
10
283.3
20
72.45
30
0
0
VERTEX
8
CUT
10
283.3
20
66.15
30
0
0
VERTEX
8
CUT
10
287.8
20
66.15
30
0
0
VERTEX
8
CUT
10
287.8
20
60.2
30
0
0
VERTEX
8
CUT
10
287.753
20
59.497
30
0
0
VERTEX
8
CUT
10
287.612
20
58.888
30
0
0
VERTEX
8
CUT
10
287.378
20
58.372
30
0
0
VERTEX
8
CUT
10
287.05
20
57.95
30
0
0
VERTEX
8
CUT
10
286.628
20
57.622
30
0
0
VERTEX
8
CUT
10
286.112
20
57.388
30
0
0
VERTEX
8
CUT
10
285.503
20
57.247
30
0
0
VERTEX
8
CUT
10
284.8
20
57.2
30
0
0
VERTEX
8
CUT
10
278.85
20
57.2
30
0
0
VERTEX
8
CUT
10
278.85
20
61.7
30
0
0
VERTEX
8
CUT
10
272.55
20
61.7
30
0
0
VERTEX
8
CUT
10
272.55
20
57.2
30
0
0
VERTEX
8
CUT
10
253.85
20
57.2
30
0
0
VERTEX
8
CUT
10
253.85
20
61.7
30
0
0
VERTEX
8
CUT
10
247.55
20
61.7
30
0
0
VERTEX
8
CUT
10
247.55
20
57.2
30
0
0
VERTEX
8
CUT
10
241.6
20
57.2
30
0
0
VERTEX
8
CUT
10
240.897
20
57.247
30
0
0
VERTEX
8
CUT
10
240.287
20
57.388
30
0
0
VERTEX
8
CUT
10
239.772
20
57.622
30
0
0
VERTEX
8
CUT
10
239.35
20
57.95
30
0
0
VERTEX
8
CUT
10
239.022
20
58.372
30
0
0
VERTEX
8
CUT
10
238.787
20
58.888
30
0
0
VERTEX
8
CUT
10
238.647
20
59.497
30
0
0
VERTEX
8
CUT
10
238.6
20
60.2
30
0
0
SEQEND
8
CUT
0
POLYLINE
8
RASTER
66
1
70
1
0
VERTEX
8
RASTER
10
240.2
20
102.8
30
0
0
VERTEX
8
RASTER
10
240.231
20
103.269
30
0
0
VERTEX
8
RASTER
10
240.325
20
103.675
30
0
0
VERTEX
8
RASTER
10
240.481
20
104.019
30
0
0
VERTEX
8
RASTER
10
240.7
20
104.3
30
0
0
VERTEX
8
RASTER
10
240.981
20
104.519
30
0
0
VERTEX
8
RASTER
10
241.325
20
104.675
30
0
0
VERTEX
8
RASTER
10
241.731
20
104.769
30
0
0
VERTEX
8
RASTER
10
242.2
20
104.8
30
0
0
VERTEX
8
RASTER
10
284.2
20
104.8
30
0
0
VERTEX
8
RASTER
10
284.669
20
104.769
30
0
0
VERTEX
8
RASTER
10
285.075
20
104.675
30
0
0
VERTEX
8
RASTER
10
285.419
20
104.519
30
0
0
VERTEX
8
RASTER
10
285.7
20
104.3
30
0
0
VERTEX
8
RASTER
10
285.919
20
104.019
30
0
0
VERTEX
8
RASTER
10
286.075
20
103.675
30
0
0
VERTEX
8
RASTER
10
286.169
20
103.269
30
0
0
VERTEX
8
RASTER
10
286.2
20
102.8
30
0
0
VERTEX
8
RASTER
10
286.2
20
60.8
30
0
0
VERTEX
8
RASTER
10
286.169
20
60.331
30
0
0
VERTEX
8
RASTER
10
286.075
20
59.925
30
0
0
VERTEX
8
RASTER
10
285.919
20
59.581
30
0
0
VERTEX
8
RASTER
10
285.7
20
59.3
30
0
0
VERTEX
8
RASTER
10
285.419
20
59.081
30
0
0
VERTEX
8
RASTER
10
285.075
20
58.925
30
0
0
VERTEX
8
RASTER
10
284.669
20
58.831
30
0
0
VERTEX
8
RASTER
10
284.2
20
58.8
30
0
0
VERTEX
8
RASTER
10
242.2
20
58.8
30
0
0
VERTEX
8
RASTER
10
241.731
20
58.831
30
0
0
VERTEX
8
RASTER
10
241.325
20
58.925
30
0
0
VERTEX
8
RASTER
10
240.981
20
59.081
30
0
0
VERTEX
8
RASTER
10
240.7
20
59.3
30
0
0
VERTEX
8
RASTER
10
240.481
20
59.581
30
0
0
VERTEX
8
RASTER
10
240.325
20
59.925
30
0
0
VERTEX
8
RASTER
10
240.231
20
60.331
30
0
0
VERTEX
8
RASTER
10
240.2
20
60.8
30
0
0
SEQEND
8
RASTER
0
POLYLINE
8
RASTER
66
1
70
1
0
VERTEX
8
RASTER
10
241.2
20
102.6
30
0
0
VERTEX
8
RASTER
10
241.2
20
61
30
0
0
VERTEX
8
RASTER
10
241.219
20
60.719
30
0
0
VERTEX
8
RASTER
10
241.275
20
60.475
30
0
0
VERTEX
8
RASTER
10
241.369
20
60.269
30
0
0
VERTEX
8
RASTER
10
241.5
20
60.1
30
0
0
VERTEX
8
RASTER
10
241.669
20
59.969
30
0
0
VERTEX
8
RASTER
10
241.875
20
59.875
30
0
0
VERTEX
8
RASTER
10
242.119
20
59.819
30
0
0
VERTEX
8
RASTER
10
242.4
20
59.8
30
0
0
VERTEX
8
RASTER
10
284
20
59.8
30
0
0
VERTEX
8
RASTER
10
284.281
20
59.819
30
0
0
VERTEX
8
RASTER
10
284.525
20
59.875
30
0
0
VERTEX
8
RASTER
10
284.731
20
59.969
30
0
0
VERTEX
8
RASTER
10
284.9
20
60.1
30
0
0
VERTEX
8
RASTER
10
285.031
20
60.269
30
0
0
VERTEX
8
RASTER
10
285.125
20
60.475
30
0
0
VERTEX
8
RASTER
10
285.181
20
60.719
30
0
0
VERTEX
8
RASTER
10
285.2
20
61
30
0
0
VERTEX
8
RASTER
10
285.2
20
102.6
30
0
0
VERTEX
8
RASTER
10
285.181
20
102.881
30
0
0
VERTEX
8
RASTER
10
285.125
20
103.125
30
0
0
VERTEX
8
RASTER
10
285.031
20
103.331
30
0
0
VERTEX
8
RASTER
10
284.9
20
103.5
30
0
0
VERTEX
8
RASTER
10
284.731
20
103.631
30
0
0
VERTEX
8
RASTER
10
284.525
20
103.725
30
0
0
VERTEX
8
RASTER
10
284.281
20
103.781
30
0
0
VERTEX
8
RASTER
10
284
20
103.8
30
0
0
VERTEX
8
RASTER
10
242.4
20
103.8
30
0
0
VERTEX
8
RASTER
10
242.119
20
103.781
30
0
0
VERTEX
8
RASTER
10
241.875
20
103.725
30
0
0
VERTEX
8
RASTER
10
241.669
20
103.631
30
0
0
VERTEX
8
RASTER
10
241.5
20
103.5
30
0
0
VERTEX
8
RASTER
10
241.369
20
103.331
30
0
0
VERTEX
8
RASTER
10
241.275
20
103.125
30
0
0
VERTEX
8
RASTER
10
241.219
20
102.881
30
0
0
VERTEX
8
RASTER
10
241.2
20
102.6
30
0
0
SEQEND
8
RASTER
0
POLYLINE
8
RASTER
66
1
70
1
0
VERTEX
8
RASTER
10
249.77
20
87.17
30
0
0
VERTEX
8
RASTER
10
249.901
20
88.113
30
0
0
VERTEX
8
RASTER
10
250.065
20
89.074
30
0
0
VERTEX
8
RASTER
10
250.266
20
90.042
30
0
0
VERTEX
8
RASTER
10
250.506
20
91.006
30
0
0
VERTEX
8
RASTER
10
250.79
20
91.956
30
0
0
VERTEX
8
RASTER
10
251.121
20
92.881
30
0
0
VERTEX
8
RASTER
10
251.503
20
93.769
30
0
0
VERTEX
8
RASTER
10
251.94
20
94.61
30
0
0
VERTEX
8
RASTER
10
252.715
20
94.3
30
0
0
VERTEX
8
RASTER
10
252.337
20
93.472
30
0
0
VERTEX
8
RASTER
10
252.013
20
92.619
30
0
0
VERTEX
8
RASTER
10
251.74
20
91.744
30
0
0
VERTEX
8
RASTER
10
251.514
20
90.851
30
0
0
VERTEX
8
RASTER
10
251.332
20
89.944
30
0
0
VERTEX
8
RASTER
10
251.189
20
89.025
30
0
0
VERTEX
8
RASTER
10
251.083
20
88.099
30
0
0
VERTEX
8
RASTER
10
251.01
20
87.17
30
0
0
SEQEND
8
RASTER
0
CIRCLE
8
RASTER
10
252.56
20
95.54
30
0
40
0.62
0
POLYLINE
8
RASTER
66
1
70
1
0
VERTEX
8
RASTER
10
247.753
20
97.289
30
0
0
VERTEX
8
RASTER
10
247.848
20
97.421
30
0
0
VERTEX
8
RASTER
10
248.017
20
97.515
30
0
0
VERTEX
8
RASTER
10
248.25
20
97.57
30
0
0
VERTEX
8
RASTER
10
248.538
20
97.587
30
0
0
VERTEX
8
RASTER
10
248.872
20
97.566
30
0
0
VERTEX
8
RASTER
10
249.243
20
97.507
30
0
0
VERTEX
8
RASTER
10
249.641
20
97.41
30
0
0
VERTEX
8
RASTER
10
250.058
20
97.276
30
0
0
VERTEX
8
RASTER
10
250.463
20
97.111
30
0
0
VERTEX
8
RASTER
10
250.831
20
96.929
30
0
0
VERTEX
8
RASTER
10
251.153
20
96.736
30
0
0
VERTEX
8
RASTER
10
251.422
20
96.537
30
0
0
VERTEX
8
RASTER
10
251.632
20
96.339
30
0
0
VERTEX
8
RASTER
10
251.775
20
96.147
30
0
0
VERTEX
8
RASTER
10
251.844
20
95.967
30
0
0
VERTEX
8
RASTER
10
251.832
20
95.805
30
0
0
VERTEX
8
RASTER
10
251.737
20
95.673
30
0
0
VERTEX
8
RASTER
10
251.568
20
95.58
30
0
0
VERTEX
8
RASTER
10
251.335
20
95.525
30
0
0
VERTEX
8
RASTER
10
251.047
20
95.507
30
0
0
VERTEX
8
RASTER
10
250.713
20
95.528
30
0
0
VERTEX
8
RASTER
10
250.342
20
95.587
30
0
0
VERTEX
8
RASTER
10
249.944
20
95.684
30
0
0
VERTEX
8
RASTER
10
249.528
20
95.819
30
0
0
VERTEX
8
RASTER
10
249.122
20
95.983
30
0
0
VERTEX
8
RASTER
10
248.755
20
96.165
30
0
0
VERTEX
8
RASTER
10
248.433
20
96.358
30
0
0
VERTEX
8
RASTER
10
248.163
20
96.557
30
0
0
VERTEX
8
RASTER
10
247.954
20
96.756
30
0
0
VERTEX
8
RASTER
10
247.811
20
96.948
30
0
0
VERTEX
8
RASTER
10
247.741
20
97.128
30
0
0
VERTEX
8
RASTER
10
247.753
20
97.289
30
0
0
SEQEND
8
RASTER
0
POLYLINE
8
RASTER
66
1
70
1
0
VERTEX
8
RASTER
10
250.811
20
100.347
30
0
0
VERTEX
8
RASTER
10
250.972
20
100.359
30
0
0
VERTEX
8
RASTER
10
251.152
20
100.289
30
0
0
VERTEX
8
RASTER
10
251.344
20
100.146
30
0
0
VERTEX
8
RASTER
10
251.543
20
99.937
30
0
0
VERTEX
8
RASTER
10
251.742
20
99.667
30
0
0
VERTEX
8
RASTER
10
251.935
20
99.345
30
0
0
VERTEX
8
RASTER
10
252.117
20
98.978
30
0
0
VERTEX
8
RASTER
10
252.281
20
98.572
30
0
0
VERTEX
8
RASTER
10
252.416
20
98.156
30
0
0
VERTEX
8
RASTER
10
252.513
20
97.758
30
0
0
VERTEX
8
RASTER
10
252.572
20
97.387
30
0
0
VERTEX
8
RASTER
10
252.593
20
97.053
30
0
0
VERTEX
8
RASTER
10
252.575
20
96.765
30
0
0
VERTEX
8
RASTER
10
252.52
20
96.532
30
0
0
VERTEX
8
RASTER
10
252.427
20
96.363
30
0
0
VERTEX
8
RASTER
10
252.295
20
96.268
30
0
0
VERTEX
8
RASTER
10
252.133
20
96.256
30
0
0
VERTEX
8
RASTER
10
251.953
20
96.325
30
0
0
VERTEX
8
RASTER
10
251.761
20
96.468
30
0
0
VERTEX
8
RASTER
10
251.563
20
96.678
30
0
0
VERTEX
8
RASTER
10
251.364
20
96.947
30
0
0
VERTEX
8
RASTER
10
251.171
20
97.269
30
0
0
VERTEX
8
RASTER
10
250.989
20
97.637
30
0
0
VERTEX
8
RASTER
10
250.824
20
98.042
30
0
0
VERTEX
8
RASTER
10
250.69
20
98.459
30
0
0
VERTEX
8
RASTER
10
250.593
20
98.857
30
0
0
VERTEX
8
RASTER
10
250.534
20
99.228
30
0
0
VERTEX
8
RASTER
10
250.513
20
99.562
30
0
0
VERTEX
8
RASTER
10
250.53
20
99.85
30
0
0
VERTEX
8
RASTER
10
250.585
20
100.083
30
0
0
VERTEX
8
RASTER
10
250.679
20
100.252
30
0
0
VERTEX
8
RASTER
10
250.811
20
100.347
30
0
0
SEQEND
8
RASTER
0
POLYLINE
8
RASTER
66
1
70
1
0
VERTEX
8
RASTER
10
255.117
20
99.97
30
0
0
VERTEX
8
RASTER
10
255.231
20
99.853
30
0
0
VERTEX
8
RASTER
10
255.293
20
99.671
30
0
0
VERTEX
8
RASTER
10
255.307
20
99.432
30
0
0
VERTEX
8
RASTER
10
255.274
20
99.145
30
0
0
VERTEX
8
RASTER
10
255.196
20
98.82
30
0
0
VERTEX
8
RASTER
10
255.073
20
98.465
30
0
0
VERTEX
8
RASTER
10
254.909
20
98.09
30
0
0
VERTEX
8
RASTER
10
254.704
20
97.703
30
0
0
VERTEX
8
RASTER
10
254.471
20
97.332
30
0
0
VERTEX
8
RASTER
10
254.229
20
97.002
30
0
0
VERTEX
8
RASTER
10
253.982
20
96.718
30
0
0
VERTEX
8
RASTER
10
253.74
20
96.488
30
0
0
VERTEX
8
RASTER
10
253.508
20
96.315
30
0
0
VERTEX
8
RASTER
10
253.294
20
96.208
30
0
0
VERTEX
8
RASTER
10
253.105
20
96.171
30
0
0
VERTEX
8
RASTER
10
252.947
20
96.211
30
0
0
VERTEX
8
RASTER
10
252.834
20
96.327
30
0
0
VERTEX
8
RASTER
10
252.772
20
96.51
30
0
0
VERTEX
8
RASTER
10
252.758
20
96.749
30
0
0
VERTEX
8
RASTER
10
252.791
20
97.036
30
0
0
VERTEX
8
RASTER
10
252.869
20
97.361
30
0
0
VERTEX
8
RASTER
10
252.992
20
97.716
30
0
0
VERTEX
8
RASTER
10
253.156
20
98.091
30
0
0
VERTEX
8
RASTER
10
253.361
20
98.478
30
0
0
VERTEX
8
RASTER
10
253.594
20
98.849
30
0
0
VERTEX
8
RASTER
10
253.836
20
99.179
30
0
0
VERTEX
8
RASTER
10
254.083
20
99.462
30
0
0
VERTEX
8
RASTER
10
254.325
20
99.693
30
0
0
VERTEX
8
RASTER
10
254.557
20
99.865
30
0
0
VERTEX
8
RASTER
10
254.771
20
99.973
30
0
0
VERTEX
8
RASTER
10
254.96
20
100.01
30
0
0
VERTEX
8
RASTER
10
255.117
20
99.97
30
0
0
SEQEND
8
RASTER
0
POLYLINE
8
RASTER
66
1
70
1
0
VERTEX
8
RASTER
10
257.597
20
96.428
30
0
0
VERTEX
8
RASTER
10
257.581
20
96.267
30
0
0
VERTEX
8
RASTER
10
257.482
20
96.102
30
0
0
VERTEX
8
RASTER
10
257.308
20
95.937
30
0
0
VERTEX
8
RASTER
10
257.067
20
95.778
30
0
0
VERTEX
8
RASTER
10
256.767
20
95.629
30
0
0
VERTEX
8
RASTER
10
256.416
20
95.495
30
0
0
VERTEX
8
RASTER
10
256.023
20
95.38
30
0
0
VERTEX
8
RASTER
10
255.595
20
95.288
30
0
0
VERTEX
8
RASTER
10
255.161
20
95.228
30
0
0
VERTEX
8
RASTER
10
254.752
20
95.201
30
0
0
VERTEX
8
RASTER
10
254.377
20
95.208
30
0
0
VERTEX
8
RASTER
10
254.044
20
95.245
30
0
0
VERTEX
8
RASTER
10
253.763
20
95.312
30
0
0
VERTEX
8
RASTER
10
253.544
20
95.407
30
0
0
VERTEX
8
RASTER
10
253.394
20
95.528
30
0
0
VERTEX
8
RASTER
10
253.323
20
95.675
30
0
0
VERTEX
8
RASTER
10
253.34
20
95.836
30
0
0
VERTEX
8
RASTER
10
253.439
20
96.001
30
0
0
VERTEX
8
RASTER
10
253.613
20
96.166
30
0
0
VERTEX
8
RASTER
10
253.854
20
96.325
30
0
0
VERTEX
8
RASTER
10
254.154
20
96.474
30
0
0
VERTEX
8
RASTER
10
254.504
20
96.608
30
0
0
VERTEX
8
RASTER
10
254.898
20
96.723
30
0
0
VERTEX
8
RASTER
10
255.326
20
96.815
30
0
0
VERTEX
8
RASTER
10
255.759
20
96.875
30
0
0
VERTEX
8
RASTER
10
256.168
20
96.901
30
0
0
VERTEX
8
RASTER
10
256.544
20
96.895
30
0
0
VERTEX
8
RASTER
10
256.876
20
96.858
30
0
0
VERTEX
8
RASTER
10
257.157
20
96.791
30
0
0
VERTEX
8
RASTER
10
257.377
20
96.696
30
0
0
VERTEX
8
RASTER
10
257.527
20
96.574
30
0
0
VERTEX
8
RASTER
10
257.597
20
96.428
30
0
0
SEQEND
8
RASTER
0
POLYLINE
8
RASTER
66
1
70
1
0
VERTEX
8
RASTER
10
256.478
20
92.252
30
0
0
VERTEX
8
RASTER
10
256.344
20
92.161
30
0
0
VERTEX
8
RASTER
10
256.154
20
92.131
30
0
0
VERTEX
8
RASTER
10
255.916
20
92.158
30
0
0
VERTEX
8
RASTER
10
255.639
20
92.241
30
0
0
VERTEX
8
RASTER
10
255.332
20
92.375
30
0
0
VERTEX
8
RASTER
10
255.004
20
92.557
30
0
0
VERTEX
8
RASTER
10
254.663
20
92.784
30
0
0
VERTEX
8
RASTER
10
254.318
20
93.053
30
0
0
VERTEX
8
RASTER
10
253.993
20
93.346
30
0
0
VERTEX
8
RASTER
10
253.71
20
93.643
30
0
0
VERTEX
8
RASTER
10
253.474
20
93.935
30
0
0
VERTEX
8
RASTER
10
253.288
20
94.213
30
0
0
VERTEX
8
RASTER
10
253.159
20
94.472
30
0
0
VERTEX
8
RASTER
10
253.09
20
94.701
30
0
0
VERTEX
8
RASTER
10
253.087
20
94.894
30
0
0
VERTEX
8
RASTER
10
253.154
20
95.042
30
0
0
VERTEX
8
RASTER
10
253.288
20
95.133
30
0
0
VERTEX
8
RASTER
10
253.478
20
95.163
30
0
0
VERTEX
8
RASTER
10
253.716
20
95.136
30
0
0
VERTEX
8
RASTER
10
253.993
20
95.053
30
0
0
VERTEX
8
RASTER
10
254.3
20
94.919
30
0
0
VERTEX
8
RASTER
10
254.628
20
94.737
30
0
0
VERTEX
8
RASTER
10
254.969
20
94.51
30
0
0
VERTEX
8
RASTER
10
255.314
20
94.241
30
0
0
VERTEX
8
RASTER
10
255.639
20
93.948
30
0
0
VERTEX
8
RASTER
10
255.922
20
93.651
30
0
0
VERTEX
8
RASTER
10
256.159
20
93.359
30
0
0
VERTEX
8
RASTER
10
256.344
20
93.08
30
0
0
VERTEX
8
RASTER
10
256.473
20
92.822
30
0
0
VERTEX
8
RASTER
10
256.542
20
92.593
30
0
0
VERTEX
8
RASTER
10
256.545
20
92.4
30
0
0
VERTEX
8
RASTER
10
256.478
20
92.252
30
0
0
SEQEND
8
RASTER
0
POLYLINE
8
CUT
66
1
70
1
0
VERTEX
8
CUT
10
4
20
50.2
30
0
0
VERTEX
8
CUT
10
4.047
20
50.903
30
0
0
VERTEX
8
CUT
10
4.188
20
51.513
30
0
0
VERTEX
8
CUT
10
4.422
20
52.028
30
0
0
VERTEX
8
CUT
10
4.75
20
52.45
30
0
0
VERTEX
8
CUT
10
5.172
20
52.778
30
0
0
VERTEX
8
CUT
10
5.688
20
53.013
30
0
0
VERTEX
8
CUT
10
6.297
20
53.153
30
0
0
VERTEX
8
CUT
10
7
20
53.2
30
0
0
VERTEX
8
CUT
10
12.95
20
53.2
30
0
0
VERTEX
8
CUT
10
12.95
20
48.7
30
0
0
VERTEX
8
CUT
10
19.25
20
48.7
30
0
0
VERTEX
8
CUT
10
19.25
20
53.2
30
0
0
VERTEX
8
CUT
10
37.95
20
53.2
30
0
0
VERTEX
8
CUT
10
37.95
20
48.7
30
0
0
VERTEX
8
CUT
10
44.25
20
48.7
30
0
0
VERTEX
8
CUT
10
44.25
20
53.2
30
0
0
VERTEX
8
CUT
10
62.95
20
53.2
30
0
0
VERTEX
8
CUT
10
62.95
20
48.7
30
0
0
VERTEX
8
CUT
10
69.25
20
48.7
30
0
0
VERTEX
8
CUT
10
69.25
20
53.2
30
0
0
VERTEX
8
CUT
10
75.2
20
53.2
30
0
0
VERTEX
8
CUT
10
75.903
20
53.153
30
0
0
VERTEX
8
CUT
10
76.512
20
53.013
30
0
0
VERTEX
8
CUT
10
77.028
20
52.778
30
0
0
VERTEX
8
CUT
10
77.45
20
52.45
30
0
0
VERTEX
8
CUT
10
77.778
20
52.028
30
0
0
VERTEX
8
CUT
10
78.012
20
51.513
30
0
0
VERTEX
8
CUT
10
78.153
20
50.903
30
0
0
VERTEX
8
CUT
10
78.2
20
50.2
30
0
0
VERTEX
8
CUT
10
78.2
20
44.25
30
0
0
VERTEX
8
CUT
10
73.7
20
44.25
30
0
0
VERTEX
8
CUT
10
73.7
20
37.95
30
0
0
VERTEX
8
CUT
10
78.2
20
37.95
30
0
0
VERTEX
8
CUT
10
78.2
20
32
30
0
0
VERTEX
8
CUT
10
78.153
20
31.297
30
0
0
VERTEX
8
CUT
10
78.012
20
30.688
30
0
0
VERTEX
8
CUT
10
77.778
20
30.172
30
0
0
VERTEX
8
CUT
10
77.45
20
29.75
30
0
0
VERTEX
8
CUT
10
77.028
20
29.422
30
0
0
VERTEX
8
CUT
10
76.512
20
29.188
30
0
0
VERTEX
8
CUT
10
75.903
20
29.047
30
0
0
VERTEX
8
CUT
10
75.2
20
29
30
0
0
VERTEX
8
CUT
10
69.25
20
29
30
0
0
VERTEX
8
CUT
10
69.25
20
33.5
30
0
0
VERTEX
8
CUT
10
62.95
20
33.5
30
0
0
VERTEX
8
CUT
10
62.95
20
29
30
0
0
VERTEX
8
CUT
10
44.25
20
29
30
0
0
VERTEX
8
CUT
10
44.25
20
33.5
30
0
0
VERTEX
8
CUT
10
37.95
20
33.5
30
0
0
VERTEX
8
CUT
10
37.95
20
29
30
0
0
VERTEX
8
CUT
10
31.2
20
29
30
0
0
VERTEX
8
CUT
10
30.497
20
28.953
30
0
0
VERTEX
8
CUT
10
29.888
20
28.813
30
0
0
VERTEX
8
CUT
10
29.372
20
28.578
30
0
0
VERTEX
8
CUT
10
28.95
20
28.25
30
0
0
VERTEX
8
CUT
10
28.622
20
27.828
30
0
0
VERTEX
8
CUT
10
28.388
20
27.313
30
0
0
VERTEX
8
CUT
10
28.247
20
26.703
30
0
0
VERTEX
8
CUT
10
28.2
20
26
30
0
0
VERTEX
8
CUT
10
28.2
20
19.25
30
0
0
VERTEX
8
CUT
10
23.7
20
19.25
30
0
0
VERTEX
8
CUT
10
23.7
20
12.95
30
0
0
VERTEX
8
CUT
10
28.2
20
12.95
30
0
0
VERTEX
8
CUT
10
28.2
20
7
30
0
0
VERTEX
8
CUT
10
28.153
20
6.297
30
0
0
VERTEX
8
CUT
10
28.013
20
5.688
30
0
0
VERTEX
8
CUT
10
27.778
20
5.172
30
0
0
VERTEX
8
CUT
10
27.45
20
4.75
30
0
0
VERTEX
8
CUT
10
27.028
20
4.422
30
0
0
VERTEX
8
CUT
10
26.513
20
4.188
30
0
0
VERTEX
8
CUT
10
25.903
20
4.047
30
0
0
VERTEX
8
CUT
10
25.2
20
4
30
0
0
VERTEX
8
CUT
10
19.25
20
4
30
0
0
VERTEX
8
CUT
10
19.25
20
8.5
30
0
0
VERTEX
8
CUT
10
12.95
20
8.5
30
0
0
VERTEX
8
CUT
10
12.95
20
4
30
0
0
VERTEX
8
CUT
10
7
20
4
30
0
0
VERTEX
8
CUT
10
6.297
20
4.047
30
0
0
VERTEX
8
CUT
10
5.688
20
4.188
30
0
0
VERTEX
8
CUT
10
5.172
20
4.422
30
0
0
VERTEX
8
CUT
10
4.75
20
4.75
30
0
0
VERTEX
8
CUT
10
4.422
20
5.172
30
0
0
VERTEX
8
CUT
10
4.188
20
5.688
30
0
0
VERTEX
8
CUT
10
4.047
20
6.297
30
0
0
VERTEX
8
CUT
10
4
20
7
30
0
0
SEQEND
8
CUT
0
POLYLINE
8
RASTER
66
1
70
1
0
VERTEX
8
RASTER
10
5.6
20
49.6
30
0
0
VERTEX
8
RASTER
10
5.631
20
50.069
30
0
0
VERTEX
8
RASTER
10
5.725
20
50.475
30
0
0
VERTEX
8
RASTER
10
5.881
20
50.819
30
0
0
VERTEX
8
RASTER
10
6.1
20
51.1
30
0
0
VERTEX
8
RASTER
10
6.381
20
51.319
30
0
0
VERTEX
8
RASTER
10
6.725
20
51.475
30
0
0
VERTEX
8
RASTER
10
7.131
20
51.569
30
0
0
VERTEX
8
RASTER
10
7.6
20
51.6
30
0
0
VERTEX
8
RASTER
10
74.6
20
51.6
30
0
0
VERTEX
8
RASTER
10
75.069
20
51.569
30
0
0
VERTEX
8
RASTER
10
75.475
20
51.475
30
0
0
VERTEX
8
RASTER
10
75.819
20
51.319
30
0
0
VERTEX
8
RASTER
10
76.1
20
51.1
30
0
0
VERTEX
8
RASTER
10
76.319
20
50.819
30
0
0
VERTEX
8
RASTER
10
76.475
20
50.475
30
0
0
VERTEX
8
RASTER
10
76.569
20
50.069
30
0
0
VERTEX
8
RASTER
10
76.6
20
49.6
30
0
0
VERTEX
8
RASTER
10
76.6
20
32.6
30
0
0
VERTEX
8
RASTER
10
76.569
20
32.131
30
0
0
VERTEX
8
RASTER
10
76.475
20
31.725
30
0
0
VERTEX
8
RASTER
10
76.319
20
31.381
30
0
0
VERTEX
8
RASTER
10
76.1
20
31.1
30
0
0
VERTEX
8
RASTER
10
75.819
20
30.881
30
0
0
VERTEX
8
RASTER
10
75.475
20
30.725
30
0
0
VERTEX
8
RASTER
10
75.069
20
30.631
30
0
0
VERTEX
8
RASTER
10
74.6
20
30.6
30
0
0
VERTEX
8
RASTER
10
28.6
20
30.6
30
0
0
VERTEX
8
RASTER
10
28.131
20
30.569
30
0
0
VERTEX
8
RASTER
10
27.725
20
30.475
30
0
0
VERTEX
8
RASTER
10
27.381
20
30.319
30
0
0
VERTEX
8
RASTER
10
27.1
20
30.1
30
0
0
VERTEX
8
RASTER
10
26.881
20
29.819
30
0
0
VERTEX
8
RASTER
10
26.725
20
29.475
30
0
0
VERTEX
8
RASTER
10
26.631
20
29.069
30
0
0
VERTEX
8
RASTER
10
26.6
20
28.6
30
0
0
VERTEX
8
RASTER
10
26.6
20
7.6
30
0
0
VERTEX
8
RASTER
10
26.569
20
7.131
30
0
0
VERTEX
8
RASTER
10
26.475
20
6.725
30
0
0
VERTEX
8
RASTER
10
26.319
20
6.381
30
0
0
VERTEX
8
RASTER
10
26.1
20
6.1
30
0
0
VERTEX
8
RASTER
10
25.819
20
5.881
30
0
0
VERTEX
8
RASTER
10
25.475
20
5.725
30
0
0
VERTEX
8
RASTER
10
25.069
20
5.631
30
0
0
VERTEX
8
RASTER
10
24.6
20
5.6
30
0
0
VERTEX
8
RASTER
10
7.6
20
5.6
30
0
0
VERTEX
8
RASTER
10
7.131
20
5.631
30
0
0
VERTEX
8
RASTER
10
6.725
20
5.725
30
0
0
VERTEX
8
RASTER
10
6.381
20
5.881
30
0
0
VERTEX
8
RASTER
10
6.1
20
6.1
30
0
0
VERTEX
8
RASTER
10
5.881
20
6.381
30
0
0
VERTEX
8
RASTER
10
5.725
20
6.725
30
0
0
VERTEX
8
RASTER
10
5.631
20
7.131
30
0
0
VERTEX
8
RASTER
10
5.6
20
7.6
30
0
0
SEQEND
8
RASTER
0
POLYLINE
8
RASTER
66
1
70
1
0
VERTEX
8
RASTER
10
6.6
20
49.4
30
0
0
VERTEX
8
RASTER
10
6.6
20
7.8
30
0
0
VERTEX
8
RASTER
10
6.619
20
7.519
30
0
0
VERTEX
8
RASTER
10
6.675
20
7.275
30
0
0
VERTEX
8
RASTER
10
6.769
20
7.069
30
0
0
VERTEX
8
RASTER
10
6.9
20
6.9
30
0
0
VERTEX
8
RASTER
10
7.069
20
6.769
30
0
0
VERTEX
8
RASTER
10
7.275
20
6.675
30
0
0
VERTEX
8
RASTER
10
7.519
20
6.619
30
0
0
VERTEX
8
RASTER
10
7.8
20
6.6
30
0
0
VERTEX
8
RASTER
10
24.4
20
6.6
30
0
0
VERTEX
8
RASTER
10
24.681
20
6.619
30
0
0
VERTEX
8
RASTER
10
24.925
20
6.675
30
0
0
VERTEX
8
RASTER
10
25.131
20
6.769
30
0
0
VERTEX
8
RASTER
10
25.3
20
6.9
30
0
0
VERTEX
8
RASTER
10
25.431
20
7.069
30
0
0
VERTEX
8
RASTER
10
25.525
20
7.275
30
0
0
VERTEX
8
RASTER
10
25.581
20
7.519
30
0
0
VERTEX
8
RASTER
10
25.6
20
7.8
30
0
0
VERTEX
8
RASTER
10
25.6
20
30.4
30
0
0
VERTEX
8
RASTER
10
25.619
20
30.681
30
0
0
VERTEX
8
RASTER
10
25.675
20
30.925
30
0
0
VERTEX
8
RASTER
10
25.769
20
31.131
30
0
0
VERTEX
8
RASTER
10
25.9
20
31.3
30
0
0
VERTEX
8
RASTER
10
26.069
20
31.431
30
0
0
VERTEX
8
RASTER
10
26.275
20
31.525
30
0
0
VERTEX
8
RASTER
10
26.519
20
31.581
30
0
0
VERTEX
8
RASTER
10
26.8
20
31.6
30
0
0
VERTEX
8
RASTER
10
74.4
20
31.6
30
0
0
VERTEX
8
RASTER
10
74.681
20
31.619
30
0
0
VERTEX
8
RASTER
10
74.925
20
31.675
30
0
0
VERTEX
8
RASTER
10
75.131
20
31.769
30
0
0
VERTEX
8
RASTER
10
75.3
20
31.9
30
0
0
VERTEX
8
RASTER
10
75.431
20
32.069
30
0
0
VERTEX
8
RASTER
10
75.525
20
32.275
30
0
0
VERTEX
8
RASTER
10
75.581
20
32.519
30
0
0
VERTEX
8
RASTER
10
75.6
20
32.8
30
0
0
VERTEX
8
RASTER
10
75.6
20
49.4
30
0
0
VERTEX
8
RASTER
10
75.581
20
49.681
30
0
0
VERTEX
8
RASTER
10
75.525
20
49.925
30
0
0
VERTEX
8
RASTER
10
75.431
20
50.131
30
0
0
VERTEX
8
RASTER
10
75.3
20
50.3
30
0
0
VERTEX
8
RASTER
10
75.131
20
50.431
30
0
0
VERTEX
8
RASTER
10
74.925
20
50.525
30
0
0
VERTEX
8
RASTER
10
74.681
20
50.581
30
0
0
VERTEX
8
RASTER
10
74.4
20
50.6
30
0
0
VERTEX
8
RASTER
10
7.8
20
50.6
30
0
0
VERTEX
8
RASTER
10
7.519
20
50.581
30
0
0
VERTEX
8
RASTER
10
7.275
20
50.525
30
0
0
VERTEX
8
RASTER
10
7.069
20
50.431
30
0
0
VERTEX
8
RASTER
10
6.9
20
50.3
30
0
0
VERTEX
8
RASTER
10
6.769
20
50.131
30
0
0
VERTEX
8
RASTER
10
6.675
20
49.925
30
0
0
VERTEX
8
RASTER
10
6.619
20
49.681
30
0
0
VERTEX
8
RASTER
10
6.6
20
49.4
30
0
0
SEQEND
8
RASTER
0
POLYLINE
8
RASTER
66
1
70
1
0
VERTEX
8
RASTER
10
15.17
20
33.97
30
0
0
VERTEX
8
RASTER
10
15.301
20
34.913
30
0
0
VERTEX
8
RASTER
10
15.465
20
35.874
30
0
0
VERTEX
8
RASTER
10
15.666
20
36.842
30
0
0
VERTEX
8
RASTER
10
15.906
20
37.806
30
0
0
VERTEX
8
RASTER
10
16.19
20
38.756
30
0
0
VERTEX
8
RASTER
10
16.521
20
39.681
30
0
0
VERTEX
8
RASTER
10
16.903
20
40.569
30
0
0
VERTEX
8
RASTER
10
17.34
20
41.41
30
0
0
VERTEX
8
RASTER
10
18.115
20
41.1
30
0
0
VERTEX
8
RASTER
10
17.737
20
40.272
30
0
0
VERTEX
8
RASTER
10
17.413
20
39.419
30
0
0
VERTEX
8
RASTER
10
17.14
20
38.544
30
0
0
VERTEX
8
RASTER
10
16.914
20
37.651
30
0
0
VERTEX
8
RASTER
10
16.732
20
36.744
30
0
0
VERTEX
8
RASTER
10
16.589
20
35.825
30
0
0
VERTEX
8
RASTER
10
16.483
20
34.899
30
0
0
VERTEX
8
RASTER
10
16.41
20
33.97
30
0
0
SEQEND
8
RASTER
0
CIRCLE
8
RASTER
10
17.96
20
42.34
30
0
40
0.62
0
POLYLINE
8
RASTER
66
1
70
1
0
VERTEX
8
RASTER
10
13.153
20
44.089
30
0
0
VERTEX
8
RASTER
10
13.248
20
44.221
30
0
0
VERTEX
8
RASTER
10
13.417
20
44.315
30
0
0
VERTEX
8
RASTER
10
13.65
20
44.37
30
0
0
VERTEX
8
RASTER
10
13.938
20
44.387
30
0
0
VERTEX
8
RASTER
10
14.272
20
44.366
30
0
0
VERTEX
8
RASTER
10
14.643
20
44.307
30
0
0
VERTEX
8
RASTER
10
15.041
20
44.21
30
0
0
VERTEX
8
RASTER
10
15.458
20
44.076
30
0
0
VERTEX
8
RASTER
10
15.863
20
43.911
30
0
0
VERTEX
8
RASTER
10
16.231
20
43.729
30
0
0
VERTEX
8
RASTER
10
16.553
20
43.536
30
0
0
VERTEX
8
RASTER
10
16.822
20
43.337
30
0
0
VERTEX
8
RASTER
10
17.032
20
43.139
30
0
0
VERTEX
8
RASTER
10
17.175
20
42.947
30
0
0
VERTEX
8
RASTER
10
17.244
20
42.767
30
0
0
VERTEX
8
RASTER
10
17.232
20
42.605
30
0
0
VERTEX
8
RASTER
10
17.137
20
42.473
30
0
0
VERTEX
8
RASTER
10
16.968
20
42.38
30
0
0
VERTEX
8
RASTER
10
16.735
20
42.325
30
0
0
VERTEX
8
RASTER
10
16.447
20
42.307
30
0
0
VERTEX
8
RASTER
10
16.113
20
42.328
30
0
0
VERTEX
8
RASTER
10
15.742
20
42.387
30
0
0
VERTEX
8
RASTER
10
15.344
20
42.484
30
0
0
VERTEX
8
RASTER
10
14.928
20
42.619
30
0
0
VERTEX
8
RASTER
10
14.522
20
42.783
30
0
0
VERTEX
8
RASTER
10
14.155
20
42.965
30
0
0
VERTEX
8
RASTER
10
13.833
20
43.158
30
0
0
VERTEX
8
RASTER
10
13.563
20
43.357
30
0
0
VERTEX
8
RASTER
10
13.354
20
43.556
30
0
0
VERTEX
8
RASTER
10
13.211
20
43.748
30
0
0
VERTEX
8
RASTER
10
13.141
20
43.928
30
0
0
VERTEX
8
RASTER
10
13.153
20
44.089
30
0
0
SEQEND
8
RASTER
0
POLYLINE
8
RASTER
66
1
70
1
0
VERTEX
8
RASTER
10
16.211
20
47.147
30
0
0
VERTEX
8
RASTER
10
16.372
20
47.159
30
0
0
VERTEX
8
RASTER
10
16.552
20
47.089
30
0
0
VERTEX
8
RASTER
10
16.744
20
46.946
30
0
0
VERTEX
8
RASTER
10
16.943
20
46.737
30
0
0
VERTEX
8
RASTER
10
17.142
20
46.467
30
0
0
VERTEX
8
RASTER
10
17.335
20
46.145
30
0
0
VERTEX
8
RASTER
10
17.517
20
45.778
30
0
0
VERTEX
8
RASTER
10
17.681
20
45.372
30
0
0
VERTEX
8
RASTER
10
17.816
20
44.956
30
0
0
VERTEX
8
RASTER
10
17.913
20
44.558
30
0
0
VERTEX
8
RASTER
10
17.972
20
44.187
30
0
0
VERTEX
8
RASTER
10
17.993
20
43.853
30
0
0
VERTEX
8
RASTER
10
17.975
20
43.565
30
0
0
VERTEX
8
RASTER
10
17.92
20
43.332
30
0
0
VERTEX
8
RASTER
10
17.827
20
43.163
30
0
0
VERTEX
8
RASTER
10
17.695
20
43.068
30
0
0
VERTEX
8
RASTER
10
17.533
20
43.056
30
0
0
VERTEX
8
RASTER
10
17.353
20
43.125
30
0
0
VERTEX
8
RASTER
10
17.161
20
43.268
30
0
0
VERTEX
8
RASTER
10
16.963
20
43.478
30
0
0
VERTEX
8
RASTER
10
16.764
20
43.747
30
0
0
VERTEX
8
RASTER
10
16.571
20
44.069
30
0
0
VERTEX
8
RASTER
10
16.389
20
44.437
30
0
0
VERTEX
8
RASTER
10
16.224
20
44.842
30
0
0
VERTEX
8
RASTER
10
16.09
20
45.259
30
0
0
VERTEX
8
RASTER
10
15.993
20
45.657
30
0
0
VERTEX
8
RASTER
10
15.934
20
46.028
30
0
0
VERTEX
8
RASTER
10
15.913
20
46.362
30
0
0
VERTEX
8
RASTER
10
15.93
20
46.65
30
0
0
VERTEX
8
RASTER
10
15.985
20
46.883
30
0
0
VERTEX
8
RASTER
10
16.079
20
47.052
30
0
0
VERTEX
8
RASTER
10
16.211
20
47.147
30
0
0
SEQEND
8
RASTER
0
POLYLINE
8
RASTER
66
1
70
1
0
VERTEX
8
RASTER
10
20.518
20
46.77
30
0
0
VERTEX
8
RASTER
10
20.631
20
46.653
30
0
0
VERTEX
8
RASTER
10
20.693
20
46.471
30
0
0
VERTEX
8
RASTER
10
20.707
20
46.232
30
0
0
VERTEX
8
RASTER
10
20.674
20
45.945
30
0
0
VERTEX
8
RASTER
10
20.596
20
45.62
30
0
0
VERTEX
8
RASTER
10
20.473
20
45.265
30
0
0
VERTEX
8
RASTER
10
20.309
20
44.89
30
0
0
VERTEX
8
RASTER
10
20.104
20
44.503
30
0
0
VERTEX
8
RASTER
10
19.871
20
44.132
30
0
0
VERTEX
8
RASTER
10
19.629
20
43.802
30
0
0
VERTEX
8
RASTER
10
19.382
20
43.518
30
0
0
VERTEX
8
RASTER
10
19.14
20
43.288
30
0
0
VERTEX
8
RASTER
10
18.908
20
43.115
30
0
0
VERTEX
8
RASTER
10
18.694
20
43.008
30
0
0
VERTEX
8
RASTER
10
18.505
20
42.971
30
0
0
VERTEX
8
RASTER
10
18.348
20
43.011
30
0
0
VERTEX
8
RASTER
10
18.234
20
43.127
30
0
0
VERTEX
8
RASTER
10
18.172
20
43.31
30
0
0
VERTEX
8
RASTER
10
18.158
20
43.549
30
0
0
VERTEX
8
RASTER
10
18.191
20
43.836
30
0
0
VERTEX
8
RASTER
10
18.269
20
44.161
30
0
0
VERTEX
8
RASTER
10
18.392
20
44.516
30
0
0
VERTEX
8
RASTER
10
18.556
20
44.891
30
0
0
VERTEX
8
RASTER
10
18.761
20
45.278
30
0
0
VERTEX
8
RASTER
10
18.994
20
45.649
30
0
0
VERTEX
8
RASTER
10
19.236
20
45.979
30
0
0
VERTEX
8
RASTER
10
19.483
20
46.262
30
0
0
VERTEX
8
RASTER
10
19.725
20
46.493
30
0
0
VERTEX
8
RASTER
10
19.957
20
46.665
30
0
0
VERTEX
8
RASTER
10
20.171
20
46.773
30
0
0
VERTEX
8
RASTER
10
20.36
20
46.81
30
0
0
VERTEX
8
RASTER
10
20.518
20
46.77
30
0
0
SEQEND
8
RASTER
0
POLYLINE
8
RASTER
66
1
70
1
0
VERTEX
8
RASTER
10
22.997
20
43.228
30
0
0
VERTEX
8
RASTER
10
22.981
20
43.067
30
0
0
VERTEX
8
RASTER
10
22.882
20
42.902
30
0
0
VERTEX
8
RASTER
10
22.708
20
42.737
30
0
0
VERTEX
8
RASTER
10
22.467
20
42.578
30
0
0
VERTEX
8
RASTER
10
22.167
20
42.429
30
0
0
VERTEX
8
RASTER
10
21.816
20
42.295
30
0
0
VERTEX
8
RASTER
10
21.423
20
42.18
30
0
0
VERTEX
8
RASTER
10
20.995
20
42.088
30
0
0
VERTEX
8
RASTER
10
20.561
20
42.028
30
0
0
VERTEX
8
RASTER
10
20.152
20
42.001
30
0
0
VERTEX
8
RASTER
10
19.777
20
42.008
30
0
0
VERTEX
8
RASTER
10
19.444
20
42.045
30
0
0
VERTEX
8
RASTER
10
19.163
20
42.112
30
0
0
VERTEX
8
RASTER
10
18.944
20
42.207
30
0
0
VERTEX
8
RASTER
10
18.794
20
42.328
30
0
0
VERTEX
8
RASTER
10
18.723
20
42.475
30
0
0
VERTEX
8
RASTER
10
18.74
20
42.636
30
0
0
VERTEX
8
RASTER
10
18.839
20
42.801
30
0
0
VERTEX
8
RASTER
10
19.013
20
42.966
30
0
0
VERTEX
8
RASTER
10
19.254
20
43.125
30
0
0
VERTEX
8
RASTER
10
19.554
20
43.274
30
0
0
VERTEX
8
RASTER
10
19.904
20
43.408
30
0
0
VERTEX
8
RASTER
10
20.298
20
43.523
30
0
0
VERTEX
8
RASTER
10
20.726
20
43.615
30
0
0
VERTEX
8
RASTER
10
21.159
20
43.675
30
0
0
VERTEX
8
RASTER
10
21.568
20
43.701
30
0
0
VERTEX
8
RASTER
10
21.944
20
43.695
30
0
0
VERTEX
8
RASTER
10
22.276
20
43.658
30
0
0
VERTEX
8
RASTER
10
22.557
20
43.591
30
0
0
VERTEX
8
RASTER
10
22.777
20
43.496
30
0
0
VERTEX
8
RASTER
10
22.927
20
43.374
30
0
0
VERTEX
8
RASTER
10
22.997
20
43.228
30
0
0
SEQEND
8
RASTER
0
POLYLINE
8
RASTER
66
1
70
1
0
VERTEX
8
RASTER
10
21.878
20
39.052
30
0
0
VERTEX
8
RASTER
10
21.744
20
38.961
30
0
0
VERTEX
8
RASTER
10
21.554
20
38.931
30
0
0
VERTEX
8
RASTER
10
21.316
20
38.958
30
0
0
VERTEX
8
RASTER
10
21.039
20
39.041
30
0
0
VERTEX
8
RASTER
10
20.732
20
39.175
30
0
0
VERTEX
8
RASTER
10
20.404
20
39.357
30
0
0
VERTEX
8
RASTER
10
20.063
20
39.584
30
0
0
VERTEX
8
RASTER
10
19.718
20
39.853
30
0
0
VERTEX
8
RASTER
10
19.393
20
40.146
30
0
0
VERTEX
8
RASTER
10
19.11
20
40.443
30
0
0
VERTEX
8
RASTER
10
18.874
20
40.735
30
0
0
VERTEX
8
RASTER
10
18.688
20
41.013
30
0
0
VERTEX
8
RASTER
10
18.559
20
41.272
30
0
0
VERTEX
8
RASTER
10
18.49
20
41.501
30
0
0
VERTEX
8
RASTER
10
18.487
20
41.694
30
0
0
VERTEX
8
RASTER
10
18.554
20
41.842
30
0
0
VERTEX
8
RASTER
10
18.688
20
41.933
30
0
0
VERTEX
8
RASTER
10
18.878
20
41.963
30
0
0
VERTEX
8
RASTER
10
19.116
20
41.936
30
0
0
VERTEX
8
RASTER
10
19.393
20
41.853
30
0
0
VERTEX
8
RASTER
10
19.7
20
41.719
30
0
0
VERTEX
8
RASTER
10
20.028
20
41.537
30
0
0
VERTEX
8
RASTER
10
20.369
20
41.31
30
0
0
VERTEX
8
RASTER
10
20.714
20
41.041
30
0
0
VERTEX
8
RASTER
10
21.039
20
40.748
30
0
0
VERTEX
8
RASTER
10
21.322
20
40.451
30
0
0
VERTEX
8
RASTER
10
21.559
20
40.159
30
0
0
VERTEX
8
RASTER
10
21.744
20
39.88
30
0
0
VERTEX
8
RASTER
10
21.873
20
39.622
30
0
0
VERTEX
8
RASTER
10
21.942
20
39.393
30
0
0
VERTEX
8
RASTER
10
21.945
20
39.2
30
0
0
VERTEX
8
RASTER
10
21.878
20
39.052
30
0
0
SEQEND
8
RASTER
0
POLYLINE
8
CUT
66
1
70
1
0
VERTEX
8
CUT
10
82.2
20
50.2
30
0
0
VERTEX
8
CUT
10
82.247
20
50.903
30
0
0
VERTEX
8
CUT
10
82.387
20
51.513
30
0
0
VERTEX
8
CUT
10
82.622
20
52.028
30
0
0
VERTEX
8
CUT
10
82.95
20
52.45
30
0
0
VERTEX
8
CUT
10
83.372
20
52.778
30
0
0
VERTEX
8
CUT
10
83.887
20
53.013
30
0
0
VERTEX
8
CUT
10
84.497
20
53.153
30
0
0
VERTEX
8
CUT
10
85.2
20
53.2
30
0
0
VERTEX
8
CUT
10
91.15
20
53.2
30
0
0
VERTEX
8
CUT
10
91.15
20
48.7
30
0
0
VERTEX
8
CUT
10
97.45
20
48.7
30
0
0
VERTEX
8
CUT
10
97.45
20
53.2
30
0
0
VERTEX
8
CUT
10
116.15
20
53.2
30
0
0
VERTEX
8
CUT
10
116.15
20
48.7
30
0
0
VERTEX
8
CUT
10
122.45
20
48.7
30
0
0
VERTEX
8
CUT
10
122.45
20
53.2
30
0
0
VERTEX
8
CUT
10
128.4
20
53.2
30
0
0
VERTEX
8
CUT
10
129.103
20
53.153
30
0
0
VERTEX
8
CUT
10
129.712
20
53.013
30
0
0
VERTEX
8
CUT
10
130.228
20
52.778
30
0
0
VERTEX
8
CUT
10
130.65
20
52.45
30
0
0
VERTEX
8
CUT
10
130.978
20
52.028
30
0
0
VERTEX
8
CUT
10
131.212
20
51.513
30
0
0
VERTEX
8
CUT
10
131.353
20
50.903
30
0
0
VERTEX
8
CUT
10
131.4
20
50.2
30
0
0
VERTEX
8
CUT
10
131.4
20
44.25
30
0
0
VERTEX
8
CUT
10
126.9
20
44.25
30
0
0
VERTEX
8
CUT
10
126.9
20
37.95
30
0
0
VERTEX
8
CUT
10
131.4
20
37.95
30
0
0
VERTEX
8
CUT
10
131.4
20
31.2
30
0
0
VERTEX
8
CUT
10
131.447
20
30.497
30
0
0
VERTEX
8
CUT
10
131.587
20
29.888
30
0
0
VERTEX
8
CUT
10
131.822
20
29.372
30
0
0
VERTEX
8
CUT
10
132.15
20
28.95
30
0
0
VERTEX
8
CUT
10
132.572
20
28.622
30
0
0
VERTEX
8
CUT
10
133.087
20
28.388
30
0
0
VERTEX
8
CUT
10
133.697
20
28.247
30
0
0
VERTEX
8
CUT
10
134.4
20
28.2
30
0
0
VERTEX
8
CUT
10
141.15
20
28.2
30
0
0
VERTEX
8
CUT
10
141.15
20
23.7
30
0
0
VERTEX
8
CUT
10
147.45
20
23.7
30
0
0
VERTEX
8
CUT
10
147.45
20
28.2
30
0
0
VERTEX
8
CUT
10
153.4
20
28.2
30
0
0
VERTEX
8
CUT
10
154.103
20
28.153
30
0
0
VERTEX
8
CUT
10
154.712
20
28.013
30
0
0
VERTEX
8
CUT
10
155.228
20
27.778
30
0
0
VERTEX
8
CUT
10
155.65
20
27.45
30
0
0
VERTEX
8
CUT
10
155.978
20
27.028
30
0
0
VERTEX
8
CUT
10
156.212
20
26.513
30
0
0
VERTEX
8
CUT
10
156.353
20
25.903
30
0
0
VERTEX
8
CUT
10
156.4
20
25.2
30
0
0
VERTEX
8
CUT
10
156.4
20
19.25
30
0
0
VERTEX
8
CUT
10
151.9
20
19.25
30
0
0
VERTEX
8
CUT
10
151.9
20
12.95
30
0
0
VERTEX
8
CUT
10
156.4
20
12.95
30
0
0
VERTEX
8
CUT
10
156.4
20
7
30
0
0
VERTEX
8
CUT
10
156.353
20
6.297
30
0
0
VERTEX
8
CUT
10
156.212
20
5.688
30
0
0
VERTEX
8
CUT
10
155.978
20
5.172
30
0
0
VERTEX
8
CUT
10
155.65
20
4.75
30
0
0
VERTEX
8
CUT
10
155.228
20
4.422
30
0
0
VERTEX
8
CUT
10
154.712
20
4.188
30
0
0
VERTEX
8
CUT
10
154.103
20
4.047
30
0
0
VERTEX
8
CUT
10
153.4
20
4
30
0
0
VERTEX
8
CUT
10
147.45
20
4
30
0
0
VERTEX
8
CUT
10
147.45
20
8.5
30
0
0
VERTEX
8
CUT
10
141.15
20
8.5
30
0
0
VERTEX
8
CUT
10
141.15
20
4
30
0
0
VERTEX
8
CUT
10
122.45
20
4
30
0
0
VERTEX
8
CUT
10
122.45
20
8.5
30
0
0
VERTEX
8
CUT
10
116.15
20
8.5
30
0
0
VERTEX
8
CUT
10
116.15
20
4
30
0
0
VERTEX
8
CUT
10
110.2
20
4
30
0
0
VERTEX
8
CUT
10
109.497
20
4.047
30
0
0
VERTEX
8
CUT
10
108.887
20
4.188
30
0
0
VERTEX
8
CUT
10
108.372
20
4.422
30
0
0
VERTEX
8
CUT
10
107.95
20
4.75
30
0
0
VERTEX
8
CUT
10
107.622
20
5.172
30
0
0
VERTEX
8
CUT
10
107.387
20
5.688
30
0
0
VERTEX
8
CUT
10
107.247
20
6.297
30
0
0
VERTEX
8
CUT
10
107.2
20
7
30
0
0
VERTEX
8
CUT
10
107.2
20
12.95
30
0
0
VERTEX
8
CUT
10
111.7
20
12.95
30
0
0
VERTEX
8
CUT
10
111.7
20
19.25
30
0
0
VERTEX
8
CUT
10
107.2
20
19.25
30
0
0
VERTEX
8
CUT
10
107.2
20
26
30
0
0
VERTEX
8
CUT
10
107.153
20
26.703
30
0
0
VERTEX
8
CUT
10
107.012
20
27.313
30
0
0
VERTEX
8
CUT
10
106.778
20
27.828
30
0
0
VERTEX
8
CUT
10
106.45
20
28.25
30
0
0
VERTEX
8
CUT
10
106.028
20
28.578
30
0
0
VERTEX
8
CUT
10
105.512
20
28.813
30
0
0
VERTEX
8
CUT
10
104.903
20
28.953
30
0
0
VERTEX
8
CUT
10
104.2
20
29
30
0
0
VERTEX
8
CUT
10
97.45
20
29
30
0
0
VERTEX
8
CUT
10
97.45
20
33.5
30
0
0
VERTEX
8
CUT
10
91.15
20
33.5
30
0
0
VERTEX
8
CUT
10
91.15
20
29
30
0
0
VERTEX
8
CUT
10
85.2
20
29
30
0
0
VERTEX
8
CUT
10
84.497
20
29.047
30
0
0
VERTEX
8
CUT
10
83.887
20
29.188
30
0
0
VERTEX
8
CUT
10
83.372
20
29.422
30
0
0
VERTEX
8
CUT
10
82.95
20
29.75
30
0
0
VERTEX
8
CUT
10
82.622
20
30.172
30
0
0
VERTEX
8
CUT
10
82.387
20
30.688
30
0
0
VERTEX
8
CUT
10
82.247
20
31.297
30
0
0
VERTEX
8
CUT
10
82.2
20
32
30
0
0
SEQEND
8
CUT
0
POLYLINE
8
RASTER
66
1
70
1
0
VERTEX
8
RASTER
10
83.8
20
49.6
30
0
0
VERTEX
8
RASTER
10
83.831
20
50.069
30
0
0
VERTEX
8
RASTER
10
83.925
20
50.475
30
0
0
VERTEX
8
RASTER
10
84.081
20
50.819
30
0
0
VERTEX
8
RASTER
10
84.3
20
51.1
30
0
0
VERTEX
8
RASTER
10
84.581
20
51.319
30
0
0
VERTEX
8
RASTER
10
84.925
20
51.475
30
0
0
VERTEX
8
RASTER
10
85.331
20
51.569
30
0
0
VERTEX
8
RASTER
10
85.8
20
51.6
30
0
0
VERTEX
8
RASTER
10
127.8
20
51.6
30
0
0
VERTEX
8
RASTER
10
128.269
20
51.569
30
0
0
VERTEX
8
RASTER
10
128.675
20
51.475
30
0
0
VERTEX
8
RASTER
10
129.019
20
51.319
30
0
0
VERTEX
8
RASTER
10
129.3
20
51.1
30
0
0
VERTEX
8
RASTER
10
129.519
20
50.819
30
0
0
VERTEX
8
RASTER
10
129.675
20
50.475
30
0
0
VERTEX
8
RASTER
10
129.769
20
50.069
30
0
0
VERTEX
8
RASTER
10
129.8
20
49.6
30
0
0
VERTEX
8
RASTER
10
129.8
20
28.6
30
0
0
VERTEX
8
RASTER
10
129.831
20
28.131
30
0
0
VERTEX
8
RASTER
10
129.925
20
27.725
30
0
0
VERTEX
8
RASTER
10
130.081
20
27.381
30
0
0
VERTEX
8
RASTER
10
130.3
20
27.1
30
0
0
VERTEX
8
RASTER
10
130.581
20
26.881
30
0
0
VERTEX
8
RASTER
10
130.925
20
26.725
30
0
0
VERTEX
8
RASTER
10
131.331
20
26.631
30
0
0
VERTEX
8
RASTER
10
131.8
20
26.6
30
0
0
VERTEX
8
RASTER
10
152.8
20
26.6
30
0
0
VERTEX
8
RASTER
10
153.269
20
26.569
30
0
0
VERTEX
8
RASTER
10
153.675
20
26.475
30
0
0
VERTEX
8
RASTER
10
154.019
20
26.319
30
0
0
VERTEX
8
RASTER
10
154.3
20
26.1
30
0
0
VERTEX
8
RASTER
10
154.519
20
25.819
30
0
0
VERTEX
8
RASTER
10
154.675
20
25.475
30
0
0
VERTEX
8
RASTER
10
154.769
20
25.069
30
0
0
VERTEX
8
RASTER
10
154.8
20
24.6
30
0
0
VERTEX
8
RASTER
10
154.8
20
7.6
30
0
0
VERTEX
8
RASTER
10
154.769
20
7.131
30
0
0
VERTEX
8
RASTER
10
154.675
20
6.725
30
0
0
VERTEX
8
RASTER
10
154.519
20
6.381
30
0
0
VERTEX
8
RASTER
10
154.3
20
6.1
30
0
0
VERTEX
8
RASTER
10
154.019
20
5.881
30
0
0
VERTEX
8
RASTER
10
153.675
20
5.725
30
0
0
VERTEX
8
RASTER
10
153.269
20
5.631
30
0
0
VERTEX
8
RASTER
10
152.8
20
5.6
30
0
0
VERTEX
8
RASTER
10
110.8
20
5.6
30
0
0
VERTEX
8
RASTER
10
110.331
20
5.631
30
0
0
VERTEX
8
RASTER
10
109.925
20
5.725
30
0
0
VERTEX
8
RASTER
10
109.581
20
5.881
30
0
0
VERTEX
8
RASTER
10
109.3
20
6.1
30
0
0
VERTEX
8
RASTER
10
109.081
20
6.381
30
0
0
VERTEX
8
RASTER
10
108.925
20
6.725
30
0
0
VERTEX
8
RASTER
10
108.831
20
7.131
30
0
0
VERTEX
8
RASTER
10
108.8
20
7.6
30
0
0
VERTEX
8
RASTER
10
108.8
20
28.6
30
0
0
VERTEX
8
RASTER
10
108.769
20
29.069
30
0
0
VERTEX
8
RASTER
10
108.675
20
29.475
30
0
0
VERTEX
8
RASTER
10
108.519
20
29.819
30
0
0
VERTEX
8
RASTER
10
108.3
20
30.1
30
0
0
VERTEX
8
RASTER
10
108.019
20
30.319
30
0
0
VERTEX
8
RASTER
10
107.675
20
30.475
30
0
0
VERTEX
8
RASTER
10
107.269
20
30.569
30
0
0
VERTEX
8
RASTER
10
106.8
20
30.6
30
0
0
VERTEX
8
RASTER
10
85.8
20
30.6
30
0
0
VERTEX
8
RASTER
10
85.331
20
30.631
30
0
0
VERTEX
8
RASTER
10
84.925
20
30.725
30
0
0
VERTEX
8
RASTER
10
84.581
20
30.881
30
0
0
VERTEX
8
RASTER
10
84.3
20
31.1
30
0
0
VERTEX
8
RASTER
10
84.081
20
31.381
30
0
0
VERTEX
8
RASTER
10
83.925
20
31.725
30
0
0
VERTEX
8
RASTER
10
83.831
20
32.131
30
0
0
VERTEX
8
RASTER
10
83.8
20
32.6
30
0
0
SEQEND
8
RASTER
0
POLYLINE
8
RASTER
66
1
70
1
0
VERTEX
8
RASTER
10
84.8
20
49.4
30
0
0
VERTEX
8
RASTER
10
84.8
20
32.8
30
0
0
VERTEX
8
RASTER
10
84.819
20
32.519
30
0
0
VERTEX
8
RASTER
10
84.875
20
32.275
30
0
0
VERTEX
8
RASTER
10
84.969
20
32.069
30
0
0
VERTEX
8
RASTER
10
85.1
20
31.9
30
0
0
VERTEX
8
RASTER
10
85.269
20
31.769
30
0
0
VERTEX
8
RASTER
10
85.475
20
31.675
30
0
0
VERTEX
8
RASTER
10
85.719
20
31.619
30
0
0
VERTEX
8
RASTER
10
86
20
31.6
30
0
0
VERTEX
8
RASTER
10
108.6
20
31.6
30
0
0
VERTEX
8
RASTER
10
108.881
20
31.581
30
0
0
VERTEX
8
RASTER
10
109.125
20
31.525
30
0
0
VERTEX
8
RASTER
10
109.331
20
31.431
30
0
0
VERTEX
8
RASTER
10
109.5
20
31.3
30
0
0
VERTEX
8
RASTER
10
109.631
20
31.131
30
0
0
VERTEX
8
RASTER
10
109.725
20
30.925
30
0
0
VERTEX
8
RASTER
10
109.781
20
30.681
30
0
0
VERTEX
8
RASTER
10
109.8
20
30.4
30
0
0
VERTEX
8
RASTER
10
109.8
20
7.8
30
0
0
VERTEX
8
RASTER
10
109.819
20
7.519
30
0
0
VERTEX
8
RASTER
10
109.875
20
7.275
30
0
0
VERTEX
8
RASTER
10
109.969
20
7.069
30
0
0
VERTEX
8
RASTER
10
110.1
20
6.9
30
0
0
VERTEX
8
RASTER
10
110.269
20
6.769
30
0
0
VERTEX
8
RASTER
10
110.475
20
6.675
30
0
0
VERTEX
8
RASTER
10
110.719
20
6.619
30
0
0
VERTEX
8
RASTER
10
111
20
6.6
30
0
0
VERTEX
8
RASTER
10
152.6
20
6.6
30
0
0
VERTEX
8
RASTER
10
152.881
20
6.619
30
0
0
VERTEX
8
RASTER
10
153.125
20
6.675
30
0
0
VERTEX
8
RASTER
10
153.331
20
6.769
30
0
0
VERTEX
8
RASTER
10
153.5
20
6.9
30
0
0
VERTEX
8
RASTER
10
153.631
20
7.069
30
0
0
VERTEX
8
RASTER
10
153.725
20
7.275
30
0
0
VERTEX
8
RASTER
10
153.781
20
7.519
30
0
0
VERTEX
8
RASTER
10
153.8
20
7.8
30
0
0
VERTEX
8
RASTER
10
153.8
20
24.4
30
0
0
VERTEX
8
RASTER
10
153.781
20
24.681
30
0
0
VERTEX
8
RASTER
10
153.725
20
24.925
30
0
0
VERTEX
8
RASTER
10
153.631
20
25.131
30
0
0
VERTEX
8
RASTER
10
153.5
20
25.3
30
0
0
VERTEX
8
RASTER
10
153.331
20
25.431
30
0
0
VERTEX
8
RASTER
10
153.125
20
25.525
30
0
0
VERTEX
8
RASTER
10
152.881
20
25.581
30
0
0
VERTEX
8
RASTER
10
152.6
20
25.6
30
0
0
VERTEX
8
RASTER
10
130
20
25.6
30
0
0
VERTEX
8
RASTER
10
129.719
20
25.619
30
0
0
VERTEX
8
RASTER
10
129.475
20
25.675
30
0
0
VERTEX
8
RASTER
10
129.269
20
25.769
30
0
0
VERTEX
8
RASTER
10
129.1
20
25.9
30
0
0
VERTEX
8
RASTER
10
128.969
20
26.069
30
0
0
VERTEX
8
RASTER
10
128.875
20
26.275
30
0
0
VERTEX
8
RASTER
10
128.819
20
26.519
30
0
0
VERTEX
8
RASTER
10
128.8
20
26.8
30
0
0
VERTEX
8
RASTER
10
128.8
20
49.4
30
0
0
VERTEX
8
RASTER
10
128.781
20
49.681
30
0
0
VERTEX
8
RASTER
10
128.725
20
49.925
30
0
0
VERTEX
8
RASTER
10
128.631
20
50.131
30
0
0
VERTEX
8
RASTER
10
128.5
20
50.3
30
0
0
VERTEX
8
RASTER
10
128.331
20
50.431
30
0
0
VERTEX
8
RASTER
10
128.125
20
50.525
30
0
0
VERTEX
8
RASTER
10
127.881
20
50.581
30
0
0
VERTEX
8
RASTER
10
127.6
20
50.6
30
0
0
VERTEX
8
RASTER
10
86
20
50.6
30
0
0
VERTEX
8
RASTER
10
85.719
20
50.581
30
0
0
VERTEX
8
RASTER
10
85.475
20
50.525
30
0
0
VERTEX
8
RASTER
10
85.269
20
50.431
30
0
0
VERTEX
8
RASTER
10
85.1
20
50.3
30
0
0
VERTEX
8
RASTER
10
84.969
20
50.131
30
0
0
VERTEX
8
RASTER
10
84.875
20
49.925
30
0
0
VERTEX
8
RASTER
10
84.819
20
49.681
30
0
0
VERTEX
8
RASTER
10
84.8
20
49.4
30
0
0
SEQEND
8
RASTER
0
POLYLINE
8
RASTER
66
1
70
1
0
VERTEX
8
RASTER
10
118.37
20
33.97
30
0
0
VERTEX
8
RASTER
10
118.501
20
34.913
30
0
0
VERTEX
8
RASTER
10
118.665
20
35.874
30
0
0
VERTEX
8
RASTER
10
118.866
20
36.842
30
0
0
VERTEX
8
RASTER
10
119.106
20
37.806
30
0
0
VERTEX
8
RASTER
10
119.39
20
38.756
30
0
0
VERTEX
8
RASTER
10
119.721
20
39.681
30
0
0
VERTEX
8
RASTER
10
120.103
20
40.569
30
0
0
VERTEX
8
RASTER
10
120.54
20
41.41
30
0
0
VERTEX
8
RASTER
10
121.315
20
41.1
30
0
0
VERTEX
8
RASTER
10
120.937
20
40.272
30
0
0
VERTEX
8
RASTER
10
120.613
20
39.419
30
0
0
VERTEX
8
RASTER
10
120.34
20
38.544
30
0
0
VERTEX
8
RASTER
10
120.114
20
37.651
30
0
0
VERTEX
8
RASTER
10
119.932
20
36.744
30
0
0
VERTEX
8
RASTER
10
119.789
20
35.825
30
0
0
VERTEX
8
RASTER
10
119.683
20
34.899
30
0
0
VERTEX
8
RASTER
10
119.61
20
33.97
30
0
0
SEQEND
8
RASTER
0
CIRCLE
8
RASTER
10
121.16
20
42.34
30
0
40
0.62
0
POLYLINE
8
RASTER
66
1
70
1
0
VERTEX
8
RASTER
10
116.353
20
44.089
30
0
0
VERTEX
8
RASTER
10
116.448
20
44.221
30
0
0
VERTEX
8
RASTER
10
116.617
20
44.315
30
0
0
VERTEX
8
RASTER
10
116.85
20
44.37
30
0
0
VERTEX
8
RASTER
10
117.138
20
44.387
30
0
0
VERTEX
8
RASTER
10
117.472
20
44.366
30
0
0
VERTEX
8
RASTER
10
117.843
20
44.307
30
0
0
VERTEX
8
RASTER
10
118.241
20
44.21
30
0
0
VERTEX
8
RASTER
10
118.658
20
44.076
30
0
0
VERTEX
8
RASTER
10
119.063
20
43.911
30
0
0
VERTEX
8
RASTER
10
119.431
20
43.729
30
0
0
VERTEX
8
RASTER
10
119.753
20
43.536
30
0
0
VERTEX
8
RASTER
10
120.022
20
43.337
30
0
0
VERTEX
8
RASTER
10
120.232
20
43.139
30
0
0
VERTEX
8
RASTER
10
120.375
20
42.947
30
0
0
VERTEX
8
RASTER
10
120.444
20
42.767
30
0
0
VERTEX
8
RASTER
10
120.432
20
42.605
30
0
0
VERTEX
8
RASTER
10
120.337
20
42.473
30
0
0
VERTEX
8
RASTER
10
120.168
20
42.38
30
0
0
VERTEX
8
RASTER
10
119.935
20
42.325
30
0
0
VERTEX
8
RASTER
10
119.647
20
42.307
30
0
0
VERTEX
8
RASTER
10
119.313
20
42.328
30
0
0
VERTEX
8
RASTER
10
118.942
20
42.387
30
0
0
VERTEX
8
RASTER
10
118.544
20
42.484
30
0
0
VERTEX
8
RASTER
10
118.128
20
42.619
30
0
0
VERTEX
8
RASTER
10
117.722
20
42.783
30
0
0
VERTEX
8
RASTER
10
117.355
20
42.965
30
0
0
VERTEX
8
RASTER
10
117.033
20
43.158
30
0
0
VERTEX
8
RASTER
10
116.763
20
43.357
30
0
0
VERTEX
8
RASTER
10
116.554
20
43.556
30
0
0
VERTEX
8
RASTER
10
116.411
20
43.748
30
0
0
VERTEX
8
RASTER
10
116.341
20
43.928
30
0
0
VERTEX
8
RASTER
10
116.353
20
44.089
30
0
0
SEQEND
8
RASTER
0
POLYLINE
8
RASTER
66
1
70
1
0
VERTEX
8
RASTER
10
119.411
20
47.147
30
0
0
VERTEX
8
RASTER
10
119.572
20
47.159
30
0
0
VERTEX
8
RASTER
10
119.752
20
47.089
30
0
0
VERTEX
8
RASTER
10
119.944
20
46.946
30
0
0
VERTEX
8
RASTER
10
120.143
20
46.737
30
0
0
VERTEX
8
RASTER
10
120.342
20
46.467
30
0
0
VERTEX
8
RASTER
10
120.535
20
46.145
30
0
0
VERTEX
8
RASTER
10
120.717
20
45.778
30
0
0
VERTEX
8
RASTER
10
120.881
20
45.372
30
0
0
VERTEX
8
RASTER
10
121.016
20
44.956
30
0
0
VERTEX
8
RASTER
10
121.113
20
44.558
30
0
0
VERTEX
8
RASTER
10
121.172
20
44.187
30
0
0
VERTEX
8
RASTER
10
121.193
20
43.853
30
0
0
VERTEX
8
RASTER
10
121.175
20
43.565
30
0
0
VERTEX
8
RASTER
10
121.12
20
43.332
30
0
0
VERTEX
8
RASTER
10
121.027
20
43.163
30
0
0
VERTEX
8
RASTER
10
120.895
20
43.068
30
0
0
VERTEX
8
RASTER
10
120.733
20
43.056
30
0
0
VERTEX
8
RASTER
10
120.553
20
43.125
30
0
0
VERTEX
8
RASTER
10
120.361
20
43.268
30
0
0
VERTEX
8
RASTER
10
120.163
20
43.478
30
0
0
VERTEX
8
RASTER
10
119.964
20
43.747
30
0
0
VERTEX
8
RASTER
10
119.771
20
44.069
30
0
0
VERTEX
8
RASTER
10
119.589
20
44.437
30
0
0
VERTEX
8
RASTER
10
119.424
20
44.842
30
0
0
VERTEX
8
RASTER
10
119.29
20
45.259
30
0
0
VERTEX
8
RASTER
10
119.193
20
45.657
30
0
0
VERTEX
8
RASTER
10
119.134
20
46.028
30
0
0
VERTEX
8
RASTER
10
119.113
20
46.362
30
0
0
VERTEX
8
RASTER
10
119.13
20
46.65
30
0
0
VERTEX
8
RASTER
10
119.185
20
46.883
30
0
0
VERTEX
8
RASTER
10
119.279
20
47.052
30
0
0
VERTEX
8
RASTER
10
119.411
20
47.147
30
0
0
SEQEND
8
RASTER
0
POLYLINE
8
RASTER
66
1
70
1
0
VERTEX
8
RASTER
10
123.717
20
46.77
30
0
0
VERTEX
8
RASTER
10
123.831
20
46.653
30
0
0
VERTEX
8
RASTER
10
123.893
20
46.471
30
0
0
VERTEX
8
RASTER
10
123.907
20
46.232
30
0
0
VERTEX
8
RASTER
10
123.874
20
45.945
30
0
0
VERTEX
8
RASTER
10
123.796
20
45.62
30
0
0
VERTEX
8
RASTER
10
123.673
20
45.265
30
0
0
VERTEX
8
RASTER
10
123.509
20
44.89
30
0
0
VERTEX
8
RASTER
10
123.304
20
44.503
30
0
0
VERTEX
8
RASTER
10
123.071
20
44.132
30
0
0
VERTEX
8
RASTER
10
122.829
20
43.802
30
0
0
VERTEX
8
RASTER
10
122.582
20
43.518
30
0
0
VERTEX
8
RASTER
10
122.34
20
43.288
30
0
0
VERTEX
8
RASTER
10
122.108
20
43.115
30
0
0
VERTEX
8
RASTER
10
121.894
20
43.008
30
0
0
VERTEX
8
RASTER
10
121.705
20
42.971
30
0
0
VERTEX
8
RASTER
10
121.547
20
43.011
30
0
0
VERTEX
8
RASTER
10
121.434
20
43.127
30
0
0
VERTEX
8
RASTER
10
121.372
20
43.31
30
0
0
VERTEX
8
RASTER
10
121.358
20
43.549
30
0
0
VERTEX
8
RASTER
10
121.391
20
43.836
30
0
0
VERTEX
8
RASTER
10
121.469
20
44.161
30
0
0
VERTEX
8
RASTER
10
121.592
20
44.516
30
0
0
VERTEX
8
RASTER
10
121.756
20
44.891
30
0
0
VERTEX
8
RASTER
10
121.961
20
45.278
30
0
0
VERTEX
8
RASTER
10
122.194
20
45.649
30
0
0
VERTEX
8
RASTER
10
122.436
20
45.979
30
0
0
VERTEX
8
RASTER
10
122.683
20
46.262
30
0
0
VERTEX
8
RASTER
10
122.925
20
46.493
30
0
0
VERTEX
8
RASTER
10
123.157
20
46.665
30
0
0
VERTEX
8
RASTER
10
123.371
20
46.773
30
0
0
VERTEX
8
RASTER
10
123.56
20
46.81
30
0
0
VERTEX
8
RASTER
10
123.717
20
46.77
30
0
0
SEQEND
8
RASTER
0
POLYLINE
8
RASTER
66
1
70
1
0
VERTEX
8
RASTER
10
126.197
20
43.228
30
0
0
VERTEX
8
RASTER
10
126.181
20
43.067
30
0
0
VERTEX
8
RASTER
10
126.082
20
42.902
30
0
0
VERTEX
8
RASTER
10
125.908
20
42.737
30
0
0
VERTEX
8
RASTER
10
125.667
20
42.578
30
0
0
VERTEX
8
RASTER
10
125.367
20
42.429
30
0
0
VERTEX
8
RASTER
10
125.016
20
42.295
30
0
0
VERTEX
8
RASTER
10
124.623
20
42.18
30
0
0
VERTEX
8
RASTER
10
124.195
20
42.088
30
0
0
VERTEX
8
RASTER
10
123.761
20
42.028
30
0
0
VERTEX
8
RASTER
10
123.352
20
42.001
30
0
0
VERTEX
8
RASTER
10
122.977
20
42.008
30
0
0
VERTEX
8
RASTER
10
122.644
20
42.045
30
0
0
VERTEX
8
RASTER
10
122.363
20
42.112
30
0
0
VERTEX
8
RASTER
10
122.144
20
42.207
30
0
0
VERTEX
8
RASTER
10
121.994
20
42.328
30
0
0
VERTEX
8
RASTER
10
121.923
20
42.475
30
0
0
VERTEX
8
RASTER
10
121.94
20
42.636
30
0
0
VERTEX
8
RASTER
10
122.039
20
42.801
30
0
0
VERTEX
8
RASTER
10
122.213
20
42.966
30
0
0
VERTEX
8
RASTER
10
122.454
20
43.125
30
0
0
VERTEX
8
RASTER
10
122.754
20
43.274
30
0
0
VERTEX
8
RASTER
10
123.104
20
43.408
30
0
0
VERTEX
8
RASTER
10
123.498
20
43.523
30
0
0
VERTEX
8
RASTER
10
123.926
20
43.615
30
0
0
VERTEX
8
RASTER
10
124.359
20
43.675
30
0
0
VERTEX
8
RASTER
10
124.768
20
43.701
30
0
0
VERTEX
8
RASTER
10
125.144
20
43.695
30
0
0
VERTEX
8
RASTER
10
125.476
20
43.658
30
0
0
VERTEX
8
RASTER
10
125.757
20
43.591
30
0
0
VERTEX
8
RASTER
10
125.977
20
43.496
30
0
0
VERTEX
8
RASTER
10
126.127
20
43.374
30
0
0
VERTEX
8
RASTER
10
126.197
20
43.228
30
0
0
SEQEND
8
RASTER
0
POLYLINE
8
RASTER
66
1
70
1
0
VERTEX
8
RASTER
10
125.078
20
39.052
30
0
0
VERTEX
8
RASTER
10
124.944
20
38.961
30
0
0
VERTEX
8
RASTER
10
124.754
20
38.931
30
0
0
VERTEX
8
RASTER
10
124.516
20
38.958
30
0
0
VERTEX
8
RASTER
10
124.239
20
39.041
30
0
0
VERTEX
8
RASTER
10
123.932
20
39.175
30
0
0
VERTEX
8
RASTER
10
123.604
20
39.357
30
0
0
VERTEX
8
RASTER
10
123.263
20
39.584
30
0
0
VERTEX
8
RASTER
10
122.918
20
39.853
30
0
0
VERTEX
8
RASTER
10
122.593
20
40.146
30
0
0
VERTEX
8
RASTER
10
122.31
20
40.443
30
0
0
VERTEX
8
RASTER
10
122.074
20
40.735
30
0
0
VERTEX
8
RASTER
10
121.888
20
41.013
30
0
0
VERTEX
8
RASTER
10
121.759
20
41.272
30
0
0
VERTEX
8
RASTER
10
121.69
20
41.501
30
0
0
VERTEX
8
RASTER
10
121.687
20
41.694
30
0
0
VERTEX
8
RASTER
10
121.754
20
41.842
30
0
0
VERTEX
8
RASTER
10
121.888
20
41.933
30
0
0
VERTEX
8
RASTER
10
122.078
20
41.963
30
0
0
VERTEX
8
RASTER
10
122.316
20
41.936
30
0
0
VERTEX
8
RASTER
10
122.593
20
41.853
30
0
0
VERTEX
8
RASTER
10
122.9
20
41.719
30
0
0
VERTEX
8
RASTER
10
123.228
20
41.537
30
0
0
VERTEX
8
RASTER
10
123.569
20
41.31
30
0
0
VERTEX
8
RASTER
10
123.914
20
41.041
30
0
0
VERTEX
8
RASTER
10
124.239
20
40.748
30
0
0
VERTEX
8
RASTER
10
124.522
20
40.451
30
0
0
VERTEX
8
RASTER
10
124.759
20
40.159
30
0
0
VERTEX
8
RASTER
10
124.944
20
39.88
30
0
0
VERTEX
8
RASTER
10
125.073
20
39.622
30
0
0
VERTEX
8
RASTER
10
125.142
20
39.393
30
0
0
VERTEX
8
RASTER
10
125.145
20
39.2
30
0
0
VERTEX
8
RASTER
10
125.078
20
39.052
30
0
0
SEQEND
8
RASTER
0
POLYLINE
8
CUT
66
1
70
1
0
VERTEX
8
CUT
10
160.4
20
50.2
30
0
0
VERTEX
8
CUT
10
160.447
20
50.903
30
0
0
VERTEX
8
CUT
10
160.587
20
51.513
30
0
0
VERTEX
8
CUT
10
160.822
20
52.028
30
0
0
VERTEX
8
CUT
10
161.15
20
52.45
30
0
0
VERTEX
8
CUT
10
161.572
20
52.778
30
0
0
VERTEX
8
CUT
10
162.087
20
53.013
30
0
0
VERTEX
8
CUT
10
162.697
20
53.153
30
0
0
VERTEX
8
CUT
10
163.4
20
53.2
30
0
0
VERTEX
8
CUT
10
169.35
20
53.2
30
0
0
VERTEX
8
CUT
10
169.35
20
48.7
30
0
0
VERTEX
8
CUT
10
175.65
20
48.7
30
0
0
VERTEX
8
CUT
10
175.65
20
53.2
30
0
0
VERTEX
8
CUT
10
194.35
20
53.2
30
0
0
VERTEX
8
CUT
10
194.35
20
48.7
30
0
0
VERTEX
8
CUT
10
200.65
20
48.7
30
0
0
VERTEX
8
CUT
10
200.65
20
53.2
30
0
0
VERTEX
8
CUT
10
219.35
20
53.2
30
0
0
VERTEX
8
CUT
10
219.35
20
48.7
30
0
0
VERTEX
8
CUT
10
225.65
20
48.7
30
0
0
VERTEX
8
CUT
10
225.65
20
53.2
30
0
0
VERTEX
8
CUT
10
231.6
20
53.2
30
0
0
VERTEX
8
CUT
10
232.303
20
53.153
30
0
0
VERTEX
8
CUT
10
232.912
20
53.013
30
0
0
VERTEX
8
CUT
10
233.428
20
52.778
30
0
0
VERTEX
8
CUT
10
233.85
20
52.45
30
0
0
VERTEX
8
CUT
10
234.178
20
52.028
30
0
0
VERTEX
8
CUT
10
234.412
20
51.513
30
0
0
VERTEX
8
CUT
10
234.553
20
50.903
30
0
0
VERTEX
8
CUT
10
234.6
20
50.2
30
0
0
VERTEX
8
CUT
10
234.6
20
44.25
30
0
0
VERTEX
8
CUT
10
230.1
20
44.25
30
0
0
VERTEX
8
CUT
10
230.1
20
37.95
30
0
0
VERTEX
8
CUT
10
234.6
20
37.95
30
0
0
VERTEX
8
CUT
10
234.6
20
32
30
0
0
VERTEX
8
CUT
10
234.553
20
31.297
30
0
0
VERTEX
8
CUT
10
234.412
20
30.688
30
0
0
VERTEX
8
CUT
10
234.178
20
30.172
30
0
0
VERTEX
8
CUT
10
233.85
20
29.75
30
0
0
VERTEX
8
CUT
10
233.428
20
29.422
30
0
0
VERTEX
8
CUT
10
232.912
20
29.188
30
0
0
VERTEX
8
CUT
10
232.303
20
29.047
30
0
0
VERTEX
8
CUT
10
231.6
20
29
30
0
0
VERTEX
8
CUT
10
225.65
20
29
30
0
0
VERTEX
8
CUT
10
225.65
20
33.5
30
0
0
VERTEX
8
CUT
10
219.35
20
33.5
30
0
0
VERTEX
8
CUT
10
219.35
20
29
30
0
0
VERTEX
8
CUT
10
212.6
20
29
30
0
0
VERTEX
8
CUT
10
211.897
20
28.953
30
0
0
VERTEX
8
CUT
10
211.287
20
28.813
30
0
0
VERTEX
8
CUT
10
210.772
20
28.578
30
0
0
VERTEX
8
CUT
10
210.35
20
28.25
30
0
0
VERTEX
8
CUT
10
210.022
20
27.828
30
0
0
VERTEX
8
CUT
10
209.787
20
27.313
30
0
0
VERTEX
8
CUT
10
209.647
20
26.703
30
0
0
VERTEX
8
CUT
10
209.6
20
26
30
0
0
VERTEX
8
CUT
10
209.6
20
19.25
30
0
0
VERTEX
8
CUT
10
205.1
20
19.25
30
0
0
VERTEX
8
CUT
10
205.1
20
12.95
30
0
0
VERTEX
8
CUT
10
209.6
20
12.95
30
0
0
VERTEX
8
CUT
10
209.6
20
7
30
0
0
VERTEX
8
CUT
10
209.553
20
6.297
30
0
0
VERTEX
8
CUT
10
209.412
20
5.688
30
0
0
VERTEX
8
CUT
10
209.178
20
5.172
30
0
0
VERTEX
8
CUT
10
208.85
20
4.75
30
0
0
VERTEX
8
CUT
10
208.428
20
4.422
30
0
0
VERTEX
8
CUT
10
207.912
20
4.188
30
0
0
VERTEX
8
CUT
10
207.303
20
4.047
30
0
0
VERTEX
8
CUT
10
206.6
20
4
30
0
0
VERTEX
8
CUT
10
200.65
20
4
30
0
0
VERTEX
8
CUT
10
200.65
20
8.5
30
0
0
VERTEX
8
CUT
10
194.35
20
8.5
30
0
0
VERTEX
8
CUT
10
194.35
20
4
30
0
0
VERTEX
8
CUT
10
188.4
20
4
30
0
0
VERTEX
8
CUT
10
187.697
20
4.047
30
0
0
VERTEX
8
CUT
10
187.087
20
4.188
30
0
0
VERTEX
8
CUT
10
186.572
20
4.422
30
0
0
VERTEX
8
CUT
10
186.15
20
4.75
30
0
0
VERTEX
8
CUT
10
185.822
20
5.172
30
0
0
VERTEX
8
CUT
10
185.587
20
5.688
30
0
0
VERTEX
8
CUT
10
185.447
20
6.297
30
0
0
VERTEX
8
CUT
10
185.4
20
7
30
0
0
VERTEX
8
CUT
10
185.4
20
12.95
30
0
0
VERTEX
8
CUT
10
189.9
20
12.95
30
0
0
VERTEX
8
CUT
10
189.9
20
19.25
30
0
0
VERTEX
8
CUT
10
185.4
20
19.25
30
0
0
VERTEX
8
CUT
10
185.4
20
26
30
0
0
VERTEX
8
CUT
10
185.353
20
26.703
30
0
0
VERTEX
8
CUT
10
185.212
20
27.313
30
0
0
VERTEX
8
CUT
10
184.978
20
27.828
30
0
0
VERTEX
8
CUT
10
184.65
20
28.25
30
0
0
VERTEX
8
CUT
10
184.228
20
28.578
30
0
0
VERTEX
8
CUT
10
183.712
20
28.813
30
0
0
VERTEX
8
CUT
10
183.103
20
28.953
30
0
0
VERTEX
8
CUT
10
182.4
20
29
30
0
0
VERTEX
8
CUT
10
175.65
20
29
30
0
0
VERTEX
8
CUT
10
175.65
20
33.5
30
0
0
VERTEX
8
CUT
10
169.35
20
33.5
30
0
0
VERTEX
8
CUT
10
169.35
20
29
30
0
0
VERTEX
8
CUT
10
163.4
20
29
30
0
0
VERTEX
8
CUT
10
162.697
20
29.047
30
0
0
VERTEX
8
CUT
10
162.087
20
29.188
30
0
0
VERTEX
8
CUT
10
161.572
20
29.422
30
0
0
VERTEX
8
CUT
10
161.15
20
29.75
30
0
0
VERTEX
8
CUT
10
160.822
20
30.172
30
0
0
VERTEX
8
CUT
10
160.587
20
30.688
30
0
0
VERTEX
8
CUT
10
160.447
20
31.297
30
0
0
VERTEX
8
CUT
10
160.4
20
32
30
0
0
SEQEND
8
CUT
0
POLYLINE
8
RASTER
66
1
70
1
0
VERTEX
8
RASTER
10
162
20
49.6
30
0
0
VERTEX
8
RASTER
10
162.031
20
50.069
30
0
0
VERTEX
8
RASTER
10
162.125
20
50.475
30
0
0
VERTEX
8
RASTER
10
162.281
20
50.819
30
0
0
VERTEX
8
RASTER
10
162.5
20
51.1
30
0
0
VERTEX
8
RASTER
10
162.781
20
51.319
30
0
0
VERTEX
8
RASTER
10
163.125
20
51.475
30
0
0
VERTEX
8
RASTER
10
163.531
20
51.569
30
0
0
VERTEX
8
RASTER
10
164
20
51.6
30
0
0
VERTEX
8
RASTER
10
231
20
51.6
30
0
0
VERTEX
8
RASTER
10
231.469
20
51.569
30
0
0
VERTEX
8
RASTER
10
231.875
20
51.475
30
0
0
VERTEX
8
RASTER
10
232.219
20
51.319
30
0
0
VERTEX
8
RASTER
10
232.5
20
51.1
30
0
0
VERTEX
8
RASTER
10
232.719
20
50.819
30
0
0
VERTEX
8
RASTER
10
232.875
20
50.475
30
0
0
VERTEX
8
RASTER
10
232.969
20
50.069
30
0
0
VERTEX
8
RASTER
10
233
20
49.6
30
0
0
VERTEX
8
RASTER
10
233
20
32.6
30
0
0
VERTEX
8
RASTER
10
232.969
20
32.131
30
0
0
VERTEX
8
RASTER
10
232.875
20
31.725
30
0
0
VERTEX
8
RASTER
10
232.719
20
31.381
30
0
0
VERTEX
8
RASTER
10
232.5
20
31.1
30
0
0
VERTEX
8
RASTER
10
232.219
20
30.881
30
0
0
VERTEX
8
RASTER
10
231.875
20
30.725
30
0
0
VERTEX
8
RASTER
10
231.469
20
30.631
30
0
0
VERTEX
8
RASTER
10
231
20
30.6
30
0
0
VERTEX
8
RASTER
10
210
20
30.6
30
0
0
VERTEX
8
RASTER
10
209.531
20
30.569
30
0
0
VERTEX
8
RASTER
10
209.125
20
30.475
30
0
0
VERTEX
8
RASTER
10
208.781
20
30.319
30
0
0
VERTEX
8
RASTER
10
208.5
20
30.1
30
0
0
VERTEX
8
RASTER
10
208.281
20
29.819
30
0
0
VERTEX
8
RASTER
10
208.125
20
29.475
30
0
0
VERTEX
8
RASTER
10
208.031
20
29.069
30
0
0
VERTEX
8
RASTER
10
208
20
28.6
30
0
0
VERTEX
8
RASTER
10
208
20
7.6
30
0
0
VERTEX
8
RASTER
10
207.969
20
7.131
30
0
0
VERTEX
8
RASTER
10
207.875
20
6.725
30
0
0
VERTEX
8
RASTER
10
207.719
20
6.381
30
0
0
VERTEX
8
RASTER
10
207.5
20
6.1
30
0
0
VERTEX
8
RASTER
10
207.219
20
5.881
30
0
0
VERTEX
8
RASTER
10
206.875
20
5.725
30
0
0
VERTEX
8
RASTER
10
206.469
20
5.631
30
0
0
VERTEX
8
RASTER
10
206
20
5.6
30
0
0
VERTEX
8
RASTER
10
189
20
5.6
30
0
0
VERTEX
8
RASTER
10
188.531
20
5.631
30
0
0
VERTEX
8
RASTER
10
188.125
20
5.725
30
0
0
VERTEX
8
RASTER
10
187.781
20
5.881
30
0
0
VERTEX
8
RASTER
10
187.5
20
6.1
30
0
0
VERTEX
8
RASTER
10
187.281
20
6.381
30
0
0
VERTEX
8
RASTER
10
187.125
20
6.725
30
0
0
VERTEX
8
RASTER
10
187.031
20
7.131
30
0
0
VERTEX
8
RASTER
10
187
20
7.6
30
0
0
VERTEX
8
RASTER
10
187
20
28.6
30
0
0
VERTEX
8
RASTER
10
186.969
20
29.069
30
0
0
VERTEX
8
RASTER
10
186.875
20
29.475
30
0
0
VERTEX
8
RASTER
10
186.719
20
29.819
30
0
0
VERTEX
8
RASTER
10
186.5
20
30.1
30
0
0
VERTEX
8
RASTER
10
186.219
20
30.319
30
0
0
VERTEX
8
RASTER
10
185.875
20
30.475
30
0
0
VERTEX
8
RASTER
10
185.469
20
30.569
30
0
0
VERTEX
8
RASTER
10
185
20
30.6
30
0
0
VERTEX
8
RASTER
10
164
20
30.6
30
0
0
VERTEX
8
RASTER
10
163.531
20
30.631
30
0
0
VERTEX
8
RASTER
10
163.125
20
30.725
30
0
0
VERTEX
8
RASTER
10
162.781
20
30.881
30
0
0
VERTEX
8
RASTER
10
162.5
20
31.1
30
0
0
VERTEX
8
RASTER
10
162.281
20
31.381
30
0
0
VERTEX
8
RASTER
10
162.125
20
31.725
30
0
0
VERTEX
8
RASTER
10
162.031
20
32.131
30
0
0
VERTEX
8
RASTER
10
162
20
32.6
30
0
0
SEQEND
8
RASTER
0
POLYLINE
8
RASTER
66
1
70
1
0
VERTEX
8
RASTER
10
163
20
49.4
30
0
0
VERTEX
8
RASTER
10
163
20
32.8
30
0
0
VERTEX
8
RASTER
10
163.019
20
32.519
30
0
0
VERTEX
8
RASTER
10
163.075
20
32.275
30
0
0
VERTEX
8
RASTER
10
163.169
20
32.069
30
0
0
VERTEX
8
RASTER
10
163.3
20
31.9
30
0
0
VERTEX
8
RASTER
10
163.469
20
31.769
30
0
0
VERTEX
8
RASTER
10
163.675
20
31.675
30
0
0
VERTEX
8
RASTER
10
163.919
20
31.619
30
0
0
VERTEX
8
RASTER
10
164.2
20
31.6
30
0
0
VERTEX
8
RASTER
10
186.8
20
31.6
30
0
0
VERTEX
8
RASTER
10
187.081
20
31.581
30
0
0
VERTEX
8
RASTER
10
187.325
20
31.525
30
0
0
VERTEX
8
RASTER
10
187.531
20
31.431
30
0
0
VERTEX
8
RASTER
10
187.7
20
31.3
30
0
0
VERTEX
8
RASTER
10
187.831
20
31.131
30
0
0
VERTEX
8
RASTER
10
187.925
20
30.925
30
0
0
VERTEX
8
RASTER
10
187.981
20
30.681
30
0
0
VERTEX
8
RASTER
10
188
20
30.4
30
0
0
VERTEX
8
RASTER
10
188
20
7.8
30
0
0
VERTEX
8
RASTER
10
188.019
20
7.519
30
0
0
VERTEX
8
RASTER
10
188.075
20
7.275
30
0
0
VERTEX
8
RASTER
10
188.169
20
7.069
30
0
0
VERTEX
8
RASTER
10
188.3
20
6.9
30
0
0
VERTEX
8
RASTER
10
188.469
20
6.769
30
0
0
VERTEX
8
RASTER
10
188.675
20
6.675
30
0
0
VERTEX
8
RASTER
10
188.919
20
6.619
30
0
0
VERTEX
8
RASTER
10
189.2
20
6.6
30
0
0
VERTEX
8
RASTER
10
205.8
20
6.6
30
0
0
VERTEX
8
RASTER
10
206.081
20
6.619
30
0
0
VERTEX
8
RASTER
10
206.325
20
6.675
30
0
0
VERTEX
8
RASTER
10
206.531
20
6.769
30
0
0
VERTEX
8
RASTER
10
206.7
20
6.9
30
0
0
VERTEX
8
RASTER
10
206.831
20
7.069
30
0
0
VERTEX
8
RASTER
10
206.925
20
7.275
30
0
0
VERTEX
8
RASTER
10
206.981
20
7.519
30
0
0
VERTEX
8
RASTER
10
207
20
7.8
30
0
0
VERTEX
8
RASTER
10
207
20
30.4
30
0
0
VERTEX
8
RASTER
10
207.019
20
30.681
30
0
0
VERTEX
8
RASTER
10
207.075
20
30.925
30
0
0
VERTEX
8
RASTER
10
207.169
20
31.131
30
0
0
VERTEX
8
RASTER
10
207.3
20
31.3
30
0
0
VERTEX
8
RASTER
10
207.469
20
31.431
30
0
0
VERTEX
8
RASTER
10
207.675
20
31.525
30
0
0
VERTEX
8
RASTER
10
207.919
20
31.581
30
0
0
VERTEX
8
RASTER
10
208.2
20
31.6
30
0
0
VERTEX
8
RASTER
10
230.8
20
31.6
30
0
0
VERTEX
8
RASTER
10
231.081
20
31.619
30
0
0
VERTEX
8
RASTER
10
231.325
20
31.675
30
0
0
VERTEX
8
RASTER
10
231.531
20
31.769
30
0
0
VERTEX
8
RASTER
10
231.7
20
31.9
30
0
0
VERTEX
8
RASTER
10
231.831
20
32.069
30
0
0
VERTEX
8
RASTER
10
231.925
20
32.275
30
0
0
VERTEX
8
RASTER
10
231.981
20
32.519
30
0
0
VERTEX
8
RASTER
10
232
20
32.8
30
0
0
VERTEX
8
RASTER
10
232
20
49.4
30
0
0
VERTEX
8
RASTER
10
231.981
20
49.681
30
0
0
VERTEX
8
RASTER
10
231.925
20
49.925
30
0
0
VERTEX
8
RASTER
10
231.831
20
50.131
30
0
0
VERTEX
8
RASTER
10
231.7
20
50.3
30
0
0
VERTEX
8
RASTER
10
231.531
20
50.431
30
0
0
VERTEX
8
RASTER
10
231.325
20
50.525
30
0
0
VERTEX
8
RASTER
10
231.081
20
50.581
30
0
0
VERTEX
8
RASTER
10
230.8
20
50.6
30
0
0
VERTEX
8
RASTER
10
164.2
20
50.6
30
0
0
VERTEX
8
RASTER
10
163.919
20
50.581
30
0
0
VERTEX
8
RASTER
10
163.675
20
50.525
30
0
0
VERTEX
8
RASTER
10
163.469
20
50.431
30
0
0
VERTEX
8
RASTER
10
163.3
20
50.3
30
0
0
VERTEX
8
RASTER
10
163.169
20
50.131
30
0
0
VERTEX
8
RASTER
10
163.075
20
49.925
30
0
0
VERTEX
8
RASTER
10
163.019
20
49.681
30
0
0
VERTEX
8
RASTER
10
163
20
49.4
30
0
0
SEQEND
8
RASTER
0
POLYLINE
8
RASTER
66
1
70
1
0
VERTEX
8
RASTER
10
196.57
20
33.97
30
0
0
VERTEX
8
RASTER
10
196.701
20
34.913
30
0
0
VERTEX
8
RASTER
10
196.865
20
35.874
30
0
0
VERTEX
8
RASTER
10
197.066
20
36.842
30
0
0
VERTEX
8
RASTER
10
197.306
20
37.806
30
0
0
VERTEX
8
RASTER
10
197.59
20
38.756
30
0
0
VERTEX
8
RASTER
10
197.921
20
39.681
30
0
0
VERTEX
8
RASTER
10
198.303
20
40.569
30
0
0
VERTEX
8
RASTER
10
198.74
20
41.41
30
0
0
VERTEX
8
RASTER
10
199.515
20
41.1
30
0
0
VERTEX
8
RASTER
10
199.137
20
40.272
30
0
0
VERTEX
8
RASTER
10
198.813
20
39.419
30
0
0
VERTEX
8
RASTER
10
198.54
20
38.544
30
0
0
VERTEX
8
RASTER
10
198.314
20
37.651
30
0
0
VERTEX
8
RASTER
10
198.132
20
36.744
30
0
0
VERTEX
8
RASTER
10
197.989
20
35.825
30
0
0
VERTEX
8
RASTER
10
197.883
20
34.899
30
0
0
VERTEX
8
RASTER
10
197.81
20
33.97
30
0
0
SEQEND
8
RASTER
0
CIRCLE
8
RASTER
10
199.36
20
42.34
30
0
40
0.62
0
POLYLINE
8
RASTER
66
1
70
1
0
VERTEX
8
RASTER
10
194.553
20
44.089
30
0
0
VERTEX
8
RASTER
10
194.648
20
44.221
30
0
0
VERTEX
8
RASTER
10
194.817
20
44.315
30
0
0
VERTEX
8
RASTER
10
195.05
20
44.37
30
0
0
VERTEX
8
RASTER
10
195.338
20
44.387
30
0
0
VERTEX
8
RASTER
10
195.672
20
44.366
30
0
0
VERTEX
8
RASTER
10
196.043
20
44.307
30
0
0
VERTEX
8
RASTER
10
196.441
20
44.21
30
0
0
VERTEX
8
RASTER
10
196.858
20
44.076
30
0
0
VERTEX
8
RASTER
10
197.263
20
43.911
30
0
0
VERTEX
8
RASTER
10
197.631
20
43.729
30
0
0
VERTEX
8
RASTER
10
197.953
20
43.536
30
0
0
VERTEX
8
RASTER
10
198.222
20
43.337
30
0
0
VERTEX
8
RASTER
10
198.432
20
43.139
30
0
0
VERTEX
8
RASTER
10
198.575
20
42.947
30
0
0
VERTEX
8
RASTER
10
198.644
20
42.767
30
0
0
VERTEX
8
RASTER
10
198.632
20
42.605
30
0
0
VERTEX
8
RASTER
10
198.537
20
42.473
30
0
0
VERTEX
8
RASTER
10
198.368
20
42.38
30
0
0
VERTEX
8
RASTER
10
198.135
20
42.325
30
0
0
VERTEX
8
RASTER
10
197.847
20
42.307
30
0
0
VERTEX
8
RASTER
10
197.513
20
42.328
30
0
0
VERTEX
8
RASTER
10
197.142
20
42.387
30
0
0
VERTEX
8
RASTER
10
196.744
20
42.484
30
0
0
VERTEX
8
RASTER
10
196.328
20
42.619
30
0
0
VERTEX
8
RASTER
10
195.922
20
42.783
30
0
0
VERTEX
8
RASTER
10
195.555
20
42.965
30
0
0
VERTEX
8
RASTER
10
195.233
20
43.158
30
0
0
VERTEX
8
RASTER
10
194.963
20
43.357
30
0
0
VERTEX
8
RASTER
10
194.754
20
43.556
30
0
0
VERTEX
8
RASTER
10
194.611
20
43.748
30
0
0
VERTEX
8
RASTER
10
194.541
20
43.928
30
0
0
VERTEX
8
RASTER
10
194.553
20
44.089
30
0
0
SEQEND
8
RASTER
0
POLYLINE
8
RASTER
66
1
70
1
0
VERTEX
8
RASTER
10
197.611
20
47.147
30
0
0
VERTEX
8
RASTER
10
197.772
20
47.159
30
0
0
VERTEX
8
RASTER
10
197.952
20
47.089
30
0
0
VERTEX
8
RASTER
10
198.144
20
46.946
30
0
0
VERTEX
8
RASTER
10
198.343
20
46.737
30
0
0
VERTEX
8
RASTER
10
198.542
20
46.467
30
0
0
VERTEX
8
RASTER
10
198.735
20
46.145
30
0
0
VERTEX
8
RASTER
10
198.917
20
45.778
30
0
0
VERTEX
8
RASTER
10
199.081
20
45.372
30
0
0
VERTEX
8
RASTER
10
199.216
20
44.956
30
0
0
VERTEX
8
RASTER
10
199.313
20
44.558
30
0
0
VERTEX
8
RASTER
10
199.372
20
44.187
30
0
0
VERTEX
8
RASTER
10
199.393
20
43.853
30
0
0
VERTEX
8
RASTER
10
199.375
20
43.565
30
0
0
VERTEX
8
RASTER
10
199.32
20
43.332
30
0
0
VERTEX
8
RASTER
10
199.227
20
43.163
30
0
0
VERTEX
8
RASTER
10
199.095
20
43.068
30
0
0
VERTEX
8
RASTER
10
198.933
20
43.056
30
0
0
VERTEX
8
RASTER
10
198.753
20
43.125
30
0
0
VERTEX
8
RASTER
10
198.561
20
43.268
30
0
0
VERTEX
8
RASTER
10
198.363
20
43.478
30
0
0
VERTEX
8
RASTER
10
198.164
20
43.747
30
0
0
VERTEX
8
RASTER
10
197.971
20
44.069
30
0
0
VERTEX
8
RASTER
10
197.789
20
44.437
30
0
0
VERTEX
8
RASTER
10
197.624
20
44.842
30
0
0
VERTEX
8
RASTER
10
197.49
20
45.259
30
0
0
VERTEX
8
RASTER
10
197.393
20
45.657
30
0
0
VERTEX
8
RASTER
10
197.334
20
46.028
30
0
0
VERTEX
8
RASTER
10
197.313
20
46.362
30
0
0
VERTEX
8
RASTER
10
197.33
20
46.65
30
0
0
VERTEX
8
RASTER
10
197.385
20
46.883
30
0
0
VERTEX
8
RASTER
10
197.479
20
47.052
30
0
0
VERTEX
8
RASTER
10
197.611
20
47.147
30
0
0
SEQEND
8
RASTER
0
POLYLINE
8
RASTER
66
1
70
1
0
VERTEX
8
RASTER
10
201.917
20
46.77
30
0
0
VERTEX
8
RASTER
10
202.031
20
46.653
30
0
0
VERTEX
8
RASTER
10
202.093
20
46.471
30
0
0
VERTEX
8
RASTER
10
202.107
20
46.232
30
0
0
VERTEX
8
RASTER
10
202.074
20
45.945
30
0
0
VERTEX
8
RASTER
10
201.996
20
45.62
30
0
0
VERTEX
8
RASTER
10
201.873
20
45.265
30
0
0
VERTEX
8
RASTER
10
201.709
20
44.89
30
0
0
VERTEX
8
RASTER
10
201.504
20
44.503
30
0
0
VERTEX
8
RASTER
10
201.271
20
44.132
30
0
0
VERTEX
8
RASTER
10
201.029
20
43.802
30
0
0
VERTEX
8
RASTER
10
200.782
20
43.518
30
0
0
VERTEX
8
RASTER
10
200.54
20
43.288
30
0
0
VERTEX
8
RASTER
10
200.308
20
43.115
30
0
0
VERTEX
8
RASTER
10
200.094
20
43.008
30
0
0
VERTEX
8
RASTER
10
199.905
20
42.971
30
0
0
VERTEX
8
RASTER
10
199.747
20
43.011
30
0
0
VERTEX
8
RASTER
10
199.634
20
43.127
30
0
0
VERTEX
8
RASTER
10
199.572
20
43.31
30
0
0
VERTEX
8
RASTER
10
199.558
20
43.549
30
0
0
VERTEX
8
RASTER
10
199.591
20
43.836
30
0
0
VERTEX
8
RASTER
10
199.669
20
44.161
30
0
0
VERTEX
8
RASTER
10
199.792
20
44.516
30
0
0
VERTEX
8
RASTER
10
199.956
20
44.891
30
0
0
VERTEX
8
RASTER
10
200.161
20
45.278
30
0
0
VERTEX
8
RASTER
10
200.394
20
45.649
30
0
0
VERTEX
8
RASTER
10
200.636
20
45.979
30
0
0
VERTEX
8
RASTER
10
200.883
20
46.262
30
0
0
VERTEX
8
RASTER
10
201.125
20
46.493
30
0
0
VERTEX
8
RASTER
10
201.357
20
46.665
30
0
0
VERTEX
8
RASTER
10
201.571
20
46.773
30
0
0
VERTEX
8
RASTER
10
201.76
20
46.81
30
0
0
VERTEX
8
RASTER
10
201.917
20
46.77
30
0
0
SEQEND
8
RASTER
0
POLYLINE
8
RASTER
66
1
70
1
0
VERTEX
8
RASTER
10
204.397
20
43.228
30
0
0
VERTEX
8
RASTER
10
204.381
20
43.067
30
0
0
VERTEX
8
RASTER
10
204.282
20
42.902
30
0
0
VERTEX
8
RASTER
10
204.108
20
42.737
30
0
0
VERTEX
8
RASTER
10
203.867
20
42.578
30
0
0
VERTEX
8
RASTER
10
203.567
20
42.429
30
0
0
VERTEX
8
RASTER
10
203.216
20
42.295
30
0
0
VERTEX
8
RASTER
10
202.823
20
42.18
30
0
0
VERTEX
8
RASTER
10
202.395
20
42.088
30
0
0
VERTEX
8
RASTER
10
201.961
20
42.028
30
0
0
VERTEX
8
RASTER
10
201.552
20
42.001
30
0
0
VERTEX
8
RASTER
10
201.177
20
42.008
30
0
0
VERTEX
8
RASTER
10
200.844
20
42.045
30
0
0
VERTEX
8
RASTER
10
200.563
20
42.112
30
0
0
VERTEX
8
RASTER
10
200.344
20
42.207
30
0
0
VERTEX
8
RASTER
10
200.194
20
42.328
30
0
0
VERTEX
8
RASTER
10
200.123
20
42.475
30
0
0
VERTEX
8
RASTER
10
200.14
20
42.636
30
0
0
VERTEX
8
RASTER
10
200.239
20
42.801
30
0
0
VERTEX
8
RASTER
10
200.413
20
42.966
30
0
0
VERTEX
8
RASTER
10
200.654
20
43.125
30
0
0
VERTEX
8
RASTER
10
200.954
20
43.274
30
0
0
VERTEX
8
RASTER
10
201.304
20
43.408
30
0
0
VERTEX
8
RASTER
10
201.698
20
43.523
30
0
0
VERTEX
8
RASTER
10
202.126
20
43.615
30
0
0
VERTEX
8
RASTER
10
202.559
20
43.675
30
0
0
VERTEX
8
RASTER
10
202.968
20
43.701
30
0
0
VERTEX
8
RASTER
10
203.344
20
43.695
30
0
0
VERTEX
8
RASTER
10
203.676
20
43.658
30
0
0
VERTEX
8
RASTER
10
203.957
20
43.591
30
0
0
VERTEX
8
RASTER
10
204.177
20
43.496
30
0
0
VERTEX
8
RASTER
10
204.327
20
43.374
30
0
0
VERTEX
8
RASTER
10
204.397
20
43.228
30
0
0
SEQEND
8
RASTER
0
POLYLINE
8
RASTER
66
1
70
1
0
VERTEX
8
RASTER
10
203.278
20
39.052
30
0
0
VERTEX
8
RASTER
10
203.144
20
38.961
30
0
0
VERTEX
8
RASTER
10
202.954
20
38.931
30
0
0
VERTEX
8
RASTER
10
202.716
20
38.958
30
0
0
VERTEX
8
RASTER
10
202.439
20
39.041
30
0
0
VERTEX
8
RASTER
10
202.132
20
39.175
30
0
0
VERTEX
8
RASTER
10
201.804
20
39.357
30
0
0
VERTEX
8
RASTER
10
201.463
20
39.584
30
0
0
VERTEX
8
RASTER
10
201.118
20
39.853
30
0
0
VERTEX
8
RASTER
10
200.793
20
40.146
30
0
0
VERTEX
8
RASTER
10
200.51
20
40.443
30
0
0
VERTEX
8
RASTER
10
200.274
20
40.735
30
0
0
VERTEX
8
RASTER
10
200.088
20
41.013
30
0
0
VERTEX
8
RASTER
10
199.959
20
41.272
30
0
0
VERTEX
8
RASTER
10
199.89
20
41.501
30
0
0
VERTEX
8
RASTER
10
199.887
20
41.694
30
0
0
VERTEX
8
RASTER
10
199.954
20
41.842
30
0
0
VERTEX
8
RASTER
10
200.088
20
41.933
30
0
0
VERTEX
8
RASTER
10
200.278
20
41.963
30
0
0
VERTEX
8
RASTER
10
200.516
20
41.936
30
0
0
VERTEX
8
RASTER
10
200.793
20
41.853
30
0
0
VERTEX
8
RASTER
10
201.1
20
41.719
30
0
0
VERTEX
8
RASTER
10
201.428
20
41.537
30
0
0
VERTEX
8
RASTER
10
201.769
20
41.31
30
0
0
VERTEX
8
RASTER
10
202.114
20
41.041
30
0
0
VERTEX
8
RASTER
10
202.439
20
40.748
30
0
0
VERTEX
8
RASTER
10
202.722
20
40.451
30
0
0
VERTEX
8
RASTER
10
202.959
20
40.159
30
0
0
VERTEX
8
RASTER
10
203.144
20
39.88
30
0
0
VERTEX
8
RASTER
10
203.273
20
39.622
30
0
0
VERTEX
8
RASTER
10
203.342
20
39.393
30
0
0
VERTEX
8
RASTER
10
203.345
20
39.2
30
0
0
VERTEX
8
RASTER
10
203.278
20
39.052
30
0
0
SEQEND
8
RASTER
0
ENDSEC
0
EOF
