0
SECTION
2
HEADER
9
$ACADVER
1
AC1009
9
$EXTMIN
10
0
20
0
9
$EXTMAX
10
300
20
90.4
0
ENDSEC
0
SECTION
2
TABLES
0
TABLE
2
LAYER
70
2
0
LAYER
2
CUT
70
0
62
1
6
CONTINUOUS
0
LAYER
2
RASTER
70
0
62
7
6
CONTINUOUS
0
ENDTAB
0
ENDSEC
0
SECTION
2
ENTITIES
0
POLYLINE
8
CUT
66
1
70
1
0
VERTEX
8
CUT
10
4
20
83.4
30
0
0
VERTEX
8
CUT
10
4.047
20
84.103
30
0
0
VERTEX
8
CUT
10
4.188
20
84.713
30
0
0
VERTEX
8
CUT
10
4.422
20
85.228
30
0
0
VERTEX
8
CUT
10
4.75
20
85.65
30
0
0
VERTEX
8
CUT
10
5.172
20
85.978
30
0
0
VERTEX
8
CUT
10
5.687
20
86.213
30
0
0
VERTEX
8
CUT
10
6.297
20
86.353
30
0
0
VERTEX
8
CUT
10
7
20
86.4
30
0
0
VERTEX
8
CUT
10
11.95
20
86.4
30
0
0
VERTEX
8
CUT
10
11.95
20
81.9
30
0
0
VERTEX
8
CUT
10
15.25
20
81.9
30
0
0
VERTEX
8
CUT
10
15.25
20
86.4
30
0
0
VERTEX
8
CUT
10
31.95
20
86.4
30
0
0
VERTEX
8
CUT
10
31.95
20
81.9
30
0
0
VERTEX
8
CUT
10
35.25
20
81.9
30
0
0
VERTEX
8
CUT
10
35.25
20
86.4
30
0
0
VERTEX
8
CUT
10
51.95
20
86.4
30
0
0
VERTEX
8
CUT
10
51.95
20
81.9
30
0
0
VERTEX
8
CUT
10
55.25
20
81.9
30
0
0
VERTEX
8
CUT
10
55.25
20
86.4
30
0
0
VERTEX
8
CUT
10
60.2
20
86.4
30
0
0
VERTEX
8
CUT
10
60.903
20
86.353
30
0
0
VERTEX
8
CUT
10
61.512
20
86.213
30
0
0
VERTEX
8
CUT
10
62.028
20
85.978
30
0
0
VERTEX
8
CUT
10
62.45
20
85.65
30
0
0
VERTEX
8
CUT
10
62.778
20
85.228
30
0
0
VERTEX
8
CUT
10
63.012
20
84.713
30
0
0
VERTEX
8
CUT
10
63.153
20
84.103
30
0
0
VERTEX
8
CUT
10
63.2
20
83.4
30
0
0
VERTEX
8
CUT
10
63.2
20
78.45
30
0
0
VERTEX
8
CUT
10
58.7
20
78.45
30
0
0
VERTEX
8
CUT
10
58.7
20
75.15
30
0
0
VERTEX
8
CUT
10
63.2
20
75.15
30
0
0
VERTEX
8
CUT
10
63.2
20
70.2
30
0
0
VERTEX
8
CUT
10
63.153
20
69.497
30
0
0
VERTEX
8
CUT
10
63.013
20
68.888
30
0
0
VERTEX
8
CUT
10
62.778
20
68.372
30
0
0
VERTEX
8
CUT
10
62.45
20
67.95
30
0
0
VERTEX
8
CUT
10
62.028
20
67.622
30
0
0
VERTEX
8
CUT
10
61.513
20
67.388
30
0
0
VERTEX
8
CUT
10
60.903
20
67.247
30
0
0
VERTEX
8
CUT
10
60.2
20
67.2
30
0
0
VERTEX
8
CUT
10
55.25
20
67.2
30
0
0
VERTEX
8
CUT
10
55.25
20
71.7
30
0
0
VERTEX
8
CUT
10
51.95
20
71.7
30
0
0
VERTEX
8
CUT
10
51.95
20
67.2
30
0
0
VERTEX
8
CUT
10
35.25
20
67.2
30
0
0
VERTEX
8
CUT
10
35.25
20
71.7
30
0
0
VERTEX
8
CUT
10
31.95
20
71.7
30
0
0
VERTEX
8
CUT
10
31.95
20
67.2
30
0
0
VERTEX
8
CUT
10
15.25
20
67.2
30
0
0
VERTEX
8
CUT
10
15.25
20
71.7
30
0
0
VERTEX
8
CUT
10
11.95
20
71.7
30
0
0
VERTEX
8
CUT
10
11.95
20
67.2
30
0
0
VERTEX
8
CUT
10
7
20
67.2
30
0
0
VERTEX
8
CUT
10
6.297
20
67.247
30
0
0
VERTEX
8
CUT
10
5.688
20
67.388
30
0
0
VERTEX
8
CUT
10
5.172
20
67.622
30
0
0
VERTEX
8
CUT
10
4.75
20
67.95
30
0
0
VERTEX
8
CUT
10
4.422
20
68.372
30
0
0
VERTEX
8
CUT
10
4.188
20
68.888
30
0
0
VERTEX
8
CUT
10
4.047
20
69.497
30
0
0
VERTEX
8
CUT
10
4
20
70.2
30
0
0
SEQEND
8
CUT
0
POLYLINE
8
RASTER
66
1
70
1
0
VERTEX
8
RASTER
10
5.6
20
82.8
30
0
0
VERTEX
8
RASTER
10
5.631
20
83.269
30
0
0
VERTEX
8
RASTER
10
5.725
20
83.675
30
0
0
VERTEX
8
RASTER
10
5.881
20
84.019
30
0
0
VERTEX
8
RASTER
10
6.1
20
84.3
30
0
0
VERTEX
8
RASTER
10
6.381
20
84.519
30
0
0
VERTEX
8
RASTER
10
6.725
20
84.675
30
0
0
VERTEX
8
RASTER
10
7.131
20
84.769
30
0
0
VERTEX
8
RASTER
10
7.6
20
84.8
30
0
0
VERTEX
8
RASTER
10
59.6
20
84.8
30
0
0
VERTEX
8
RASTER
10
60.069
20
84.769
30
0
0
VERTEX
8
RASTER
10
60.475
20
84.675
30
0
0
VERTEX
8
RASTER
10
60.819
20
84.519
30
0
0
VERTEX
8
RASTER
10
61.1
20
84.3
30
0
0
VERTEX
8
RASTER
10
61.319
20
84.019
30
0
0
VERTEX
8
RASTER
10
61.475
20
83.675
30
0
0
VERTEX
8
RASTER
10
61.569
20
83.269
30
0
0
VERTEX
8
RASTER
10
61.6
20
82.8
30
0
0
VERTEX
8
RASTER
10
61.6
20
70.8
30
0
0
VERTEX
8
RASTER
10
61.569
20
70.331
30
0
0
VERTEX
8
RASTER
10
61.475
20
69.925
30
0
0
VERTEX
8
RASTER
10
61.319
20
69.581
30
0
0
VERTEX
8
RASTER
10
61.1
20
69.3
30
0
0
VERTEX
8
RASTER
10
60.819
20
69.081
30
0
0
VERTEX
8
RASTER
10
60.475
20
68.925
30
0
0
VERTEX
8
RASTER
10
60.069
20
68.831
30
0
0
VERTEX
8
RASTER
10
59.6
20
68.8
30
0
0
VERTEX
8
RASTER
10
7.6
20
68.8
30
0
0
VERTEX
8
RASTER
10
7.131
20
68.831
30
0
0
VERTEX
8
RASTER
10
6.725
20
68.925
30
0
0
VERTEX
8
RASTER
10
6.381
20
69.081
30
0
0
VERTEX
8
RASTER
10
6.1
20
69.3
30
0
0
VERTEX
8
RASTER
10
5.881
20
69.581
30
0
0
VERTEX
8
RASTER
10
5.725
20
69.925
30
0
0
VERTEX
8
RASTER
10
5.631
20
70.331
30
0
0
VERTEX
8
RASTER
10
5.6
20
70.8
30
0
0
SEQEND
8
RASTER
0
POLYLINE
8
RASTER
66
1
70
1
0
VERTEX
8
RASTER
10
6.6
20
82.6
30
0
0
VERTEX
8
RASTER
10
6.6
20
71
30
0
0
VERTEX
8
RASTER
10
6.619
20
70.719
30
0
0
VERTEX
8
RASTER
10
6.675
20
70.475
30
0
0
VERTEX
8
RASTER
10
6.769
20
70.269
30
0
0
VERTEX
8
RASTER
10
6.9
20
70.1
30
0
0
VERTEX
8
RASTER
10
7.069
20
69.969
30
0
0
VERTEX
8
RASTER
10
7.275
20
69.875
30
0
0
VERTEX
8
RASTER
10
7.519
20
69.819
30
0
0
VERTEX
8
RASTER
10
7.8
20
69.8
30
0
0
VERTEX
8
RASTER
10
59.4
20
69.8
30
0
0
VERTEX
8
RASTER
10
59.681
20
69.819
30
0
0
VERTEX
8
RASTER
10
59.925
20
69.875
30
0
0
VERTEX
8
RASTER
10
60.131
20
69.969
30
0
0
VERTEX
8
RASTER
10
60.3
20
70.1
30
0
0
VERTEX
8
RASTER
10
60.431
20
70.269
30
0
0
VERTEX
8
RASTER
10
60.525
20
70.475
30
0
0
VERTEX
8
RASTER
10
60.581
20
70.719
30
0
0
VERTEX
8
RASTER
10
60.6
20
71
30
0
0
VERTEX
8
RASTER
10
60.6
20
82.6
30
0
0
VERTEX
8
RASTER
10
60.581
20
82.881
30
0
0
VERTEX
8
RASTER
10
60.525
20
83.125
30
0
0
VERTEX
8
RASTER
10
60.431
20
83.331
30
0
0
VERTEX
8
RASTER
10
60.3
20
83.5
30
0
0
VERTEX
8
RASTER
10
60.131
20
83.631
30
0
0
VERTEX
8
RASTER
10
59.925
20
83.725
30
0
0
VERTEX
8
RASTER
10
59.681
20
83.781
30
0
0
VERTEX
8
RASTER
10
59.4
20
83.8
30
0
0
VERTEX
8
RASTER
10
7.8
20
83.8
30
0
0
VERTEX
8
RASTER
10
7.519
20
83.781
30
0
0
VERTEX
8
RASTER
10
7.275
20
83.725
30
0
0
VERTEX
8
RASTER
10
7.069
20
83.631
30
0
0
VERTEX
8
RASTER
10
6.9
20
83.5
30
0
0
VERTEX
8
RASTER
10
6.769
20
83.331
30
0
0
VERTEX
8
RASTER
10
6.675
20
83.125
30
0
0
VERTEX
8
RASTER
10
6.619
20
82.881
30
0
0
VERTEX
8
RASTER
10
6.6
20
82.6
30
0
0
SEQEND
8
RASTER
0
POLYLINE
8
RASTER
66
1
70
1
0
VERTEX
8
RASTER
10
32.856
20
71.096
30
0
0
VERTEX
8
RASTER
10
32.961
20
71.85
30
0
0
VERTEX
8
RASTER
10
33.092
20
72.619
30
0
0
VERTEX
8
RASTER
10
33.253
20
73.393
30
0
0
VERTEX
8
RASTER
10
33.445
20
74.165
30
0
0
VERTEX
8
RASTER
10
33.672
20
74.925
30
0
0
VERTEX
8
RASTER
10
33.937
20
75.665
30
0
0
VERTEX
8
RASTER
10
34.243
20
76.375
30
0
0
VERTEX
8
RASTER
10
34.592
20
77.048
30
0
0
VERTEX
8
RASTER
10
35.212
20
76.8
30
0
0
VERTEX
8
RASTER
10
34.909
20
76.138
30
0
0
VERTEX
8
RASTER
10
34.65
20
75.455
30
0
0
VERTEX
8
RASTER
10
34.432
20
74.755
30
0
0
VERTEX
8
RASTER
10
34.251
20
74.041
30
0
0
VERTEX
8
RASTER
10
34.105
20
73.315
30
0
0
VERTEX
8
RASTER
10
33.991
20
72.58
30
0
0
VERTEX
8
RASTER
10
33.907
20
71.84
30
0
0
VERTEX
8
RASTER
10
33.848
20
71.096
30
0
0
SEQEND
8
RASTER
0
CIRCLE
8
RASTER
10
35.088
20
77.792
30
0
40
0.496
0
POLYLINE
8
RASTER
66
1
70
1
0
VERTEX
8
RASTER
10
31.243
20
79.192
30
0
0
VERTEX
8
RASTER
10
31.319
20
79.297
30
0
0
VERTEX
8
RASTER
10
31.454
20
79.372
30
0
0
VERTEX
8
RASTER
10
31.64
20
79.416
30
0
0
VERTEX
8
RASTER
10
31.871
20
79.43
30
0
0
VERTEX
8
RASTER
10
32.138
20
79.413
30
0
0
VERTEX
8
RASTER
10
32.434
20
79.366
30
0
0
VERTEX
8
RASTER
10
32.753
20
79.288
30
0
0
VERTEX
8
RASTER
10
33.086
20
79.18
30
0
0
VERTEX
8
RASTER
10
33.411
20
79.049
30
0
0
VERTEX
8
RASTER
10
33.704
20
78.904
30
0
0
VERTEX
8
RASTER
10
33.962
20
78.749
30
0
0
VERTEX
8
RASTER
10
34.178
20
78.59
30
0
0
VERTEX
8
RASTER
10
34.345
20
78.431
30
0
0
VERTEX
8
RASTER
10
34.46
20
78.277
30
0
0
VERTEX
8
RASTER
10
34.515
20
78.134
30
0
0
VERTEX
8
RASTER
10
34.505
20
78.004
30
0
0
VERTEX
8
RASTER
10
34.43
20
77.899
30
0
0
VERTEX
8
RASTER
10
34.295
20
77.824
30
0
0
VERTEX
8
RASTER
10
34.108
20
77.78
30
0
0
VERTEX
8
RASTER
10
33.878
20
77.766
30
0
0
VERTEX
8
RASTER
10
33.61
20
77.783
30
0
0
VERTEX
8
RASTER
10
33.314
20
77.83
30
0
0
VERTEX
8
RASTER
10
32.995
20
77.907
30
0
0
VERTEX
8
RASTER
10
32.662
20
78.015
30
0
0
VERTEX
8
RASTER
10
32.338
20
78.147
30
0
0
VERTEX
8
RASTER
10
32.044
20
78.292
30
0
0
VERTEX
8
RASTER
10
31.786
20
78.447
30
0
0
VERTEX
8
RASTER
10
31.571
20
78.606
30
0
0
VERTEX
8
RASTER
10
31.403
20
78.764
30
0
0
VERTEX
8
RASTER
10
31.288
20
78.918
30
0
0
VERTEX
8
RASTER
10
31.233
20
79.062
30
0
0
VERTEX
8
RASTER
10
31.243
20
79.192
30
0
0
SEQEND
8
RASTER
0
POLYLINE
8
RASTER
66
1
70
1
0
VERTEX
8
RASTER
10
33.688
20
81.637
30
0
0
VERTEX
8
RASTER
10
33.818
20
81.647
30
0
0
VERTEX
8
RASTER
10
33.962
20
81.592
30
0
0
VERTEX
8
RASTER
10
34.116
20
81.477
30
0
0
VERTEX
8
RASTER
10
34.274
20
81.309
30
0
0
VERTEX
8
RASTER
10
34.433
20
81.094
30
0
0
VERTEX
8
RASTER
10
34.588
20
80.836
30
0
0
VERTEX
8
RASTER
10
34.733
20
80.542
30
0
0
VERTEX
8
RASTER
10
34.865
20
80.218
30
0
0
VERTEX
8
RASTER
10
34.973
20
79.885
30
0
0
VERTEX
8
RASTER
10
35.05
20
79.566
30
0
0
VERTEX
8
RASTER
10
35.097
20
79.27
30
0
0
VERTEX
8
RASTER
10
35.114
20
79.002
30
0
0
VERTEX
8
RASTER
10
35.1
20
78.772
30
0
0
VERTEX
8
RASTER
10
35.056
20
78.585
30
0
0
VERTEX
8
RASTER
10
34.981
20
78.45
30
0
0
VERTEX
8
RASTER
10
34.876
20
78.375
30
0
0
VERTEX
8
RASTER
10
34.746
20
78.365
30
0
0
VERTEX
8
RASTER
10
34.603
20
78.42
30
0
0
VERTEX
8
RASTER
10
34.449
20
78.535
30
0
0
VERTEX
8
RASTER
10
34.29
20
78.702
30
0
0
VERTEX
8
RASTER
10
34.131
20
78.918
30
0
0
VERTEX
8
RASTER
10
33.976
20
79.176
30
0
0
VERTEX
8
RASTER
10
33.831
20
79.469
30
0
0
VERTEX
8
RASTER
10
33.7
20
79.794
30
0
0
VERTEX
8
RASTER
10
33.592
20
80.127
30
0
0
VERTEX
8
RASTER
10
33.514
20
80.446
30
0
0
VERTEX
8
RASTER
10
33.467
20
80.742
30
0
0
VERTEX
8
RASTER
10
33.45
20
81.009
30
0
0
VERTEX
8
RASTER
10
33.464
20
81.24
30
0
0
VERTEX
8
RASTER
10
33.508
20
81.426
30
0
0
VERTEX
8
RASTER
10
33.583
20
81.561
30
0
0
VERTEX
8
RASTER
10
33.688
20
81.637
30
0
0
SEQEND
8
RASTER
0
POLYLINE
8
RASTER
66
1
70
1
0
VERTEX
8
RASTER
10
37.134
20
81.336
30
0
0
VERTEX
8
RASTER
10
37.225
20
81.243
30
0
0
VERTEX
8
RASTER
10
37.275
20
81.097
30
0
0
VERTEX
8
RASTER
10
37.286
20
80.906
30
0
0
VERTEX
8
RASTER
10
37.259
20
80.676
30
0
0
VERTEX
8
RASTER
10
37.197
20
80.416
30
0
0
VERTEX
8
RASTER
10
37.099
20
80.132
30
0
0
VERTEX
8
RASTER
10
36.967
20
79.832
30
0
0
VERTEX
8
RASTER
10
36.803
20
79.522
30
0
0
VERTEX
8
RASTER
10
36.617
20
79.226
30
0
0
VERTEX
8
RASTER
10
36.423
20
78.962
30
0
0
VERTEX
8
RASTER
10
36.226
20
78.735
30
0
0
VERTEX
8
RASTER
10
36.032
20
78.55
30
0
0
VERTEX
8
RASTER
10
35.846
20
78.412
30
0
0
VERTEX
8
RASTER
10
35.675
20
78.326
30
0
0
VERTEX
8
RASTER
10
35.524
20
78.297
30
0
0
VERTEX
8
RASTER
10
35.398
20
78.329
30
0
0
VERTEX
8
RASTER
10
35.307
20
78.422
30
0
0
VERTEX
8
RASTER
10
35.257
20
78.568
30
0
0
VERTEX
8
RASTER
10
35.246
20
78.759
30
0
0
VERTEX
8
RASTER
10
35.273
20
78.988
30
0
0
VERTEX
8
RASTER
10
35.335
20
79.249
30
0
0
VERTEX
8
RASTER
10
35.433
20
79.533
30
0
0
VERTEX
8
RASTER
10
35.565
20
79.833
30
0
0
VERTEX
8
RASTER
10
35.729
20
80.142
30
0
0
VERTEX
8
RASTER
10
35.915
20
80.439
30
0
0
VERTEX
8
RASTER
10
36.109
20
80.703
30
0
0
VERTEX
8
RASTER
10
36.306
20
80.93
30
0
0
VERTEX
8
RASTER
10
36.5
20
81.115
30
0
0
VERTEX
8
RASTER
10
36.686
20
81.252
30
0
0
VERTEX
8
RASTER
10
36.857
20
81.338
30
0
0
VERTEX
8
RASTER
10
37.008
20
81.368
30
0
0
VERTEX
8
RASTER
10
37.134
20
81.336
30
0
0
SEQEND
8
RASTER
0
POLYLINE
8
RASTER
66
1
70
1
0
VERTEX
8
RASTER
10
39.118
20
78.503
30
0
0
VERTEX
8
RASTER
10
39.105
20
78.373
30
0
0
VERTEX
8
RASTER
10
39.025
20
78.241
30
0
0
VERTEX
8
RASTER
10
38.886
20
78.11
30
0
0
VERTEX
8
RASTER
10
38.693
20
77.983
30
0
0
VERTEX
8
RASTER
10
38.453
20
77.863
30
0
0
VERTEX
8
RASTER
10
38.173
20
77.756
30
0
0
VERTEX
8
RASTER
10
37.858
20
77.664
30
0
0
VERTEX
8
RASTER
10
37.516
20
77.591
30
0
0
VERTEX
8
RASTER
10
37.169
20
77.542
30
0
0
VERTEX
8
RASTER
10
36.842
20
77.521
30
0
0
VERTEX
8
RASTER
10
36.542
20
77.526
30
0
0
VERTEX
8
RASTER
10
36.275
20
77.556
30
0
0
VERTEX
8
RASTER
10
36.051
20
77.61
30
0
0
VERTEX
8
RASTER
10
35.875
20
77.686
30
0
0
VERTEX
8
RASTER
10
35.755
20
77.783
30
0
0
VERTEX
8
RASTER
10
35.699
20
77.9
30
0
0
VERTEX
8
RASTER
10
35.712
20
78.029
30
0
0
VERTEX
8
RASTER
10
35.791
20
78.161
30
0
0
VERTEX
8
RASTER
10
35.93
20
78.293
30
0
0
VERTEX
8
RASTER
10
36.123
20
78.42
30
0
0
VERTEX
8
RASTER
10
36.363
20
78.539
30
0
0
VERTEX
8
RASTER
10
36.644
20
78.646
30
0
0
VERTEX
8
RASTER
10
36.958
20
78.739
30
0
0
VERTEX
8
RASTER
10
37.301
20
78.812
30
0
0
VERTEX
8
RASTER
10
37.647
20
78.86
30
0
0
VERTEX
8
RASTER
10
37.974
20
78.881
30
0
0
VERTEX
8
RASTER
10
38.275
20
78.876
30
0
0
VERTEX
8
RASTER
10
38.541
20
78.846
30
0
0
VERTEX
8
RASTER
10
38.766
20
78.792
30
0
0
VERTEX
8
RASTER
10
38.942
20
78.717
30
0
0
VERTEX
8
RASTER
10
39.061
20
78.619
30
0
0
VERTEX
8
RASTER
10
39.118
20
78.503
30
0
0
SEQEND
8
RASTER
0
POLYLINE
8
RASTER
66
1
70
1
0
VERTEX
8
RASTER
10
38.223
20
75.162
30
0
0
VERTEX
8
RASTER
10
38.115
20
75.089
30
0
0
VERTEX
8
RASTER
10
37.963
20
75.065
30
0
0
VERTEX
8
RASTER
10
37.773
20
75.087
30
0
0
VERTEX
8
RASTER
10
37.551
20
75.153
30
0
0
VERTEX
8
RASTER
10
37.306
20
75.26
30
0
0
VERTEX
8
RASTER
10
37.043
20
75.406
30
0
0
VERTEX
8
RASTER
10
36.77
20
75.587
30
0
0
VERTEX
8
RASTER
10
36.494
20
75.803
30
0
0
VERTEX
8
RASTER
10
36.234
20
76.037
30
0
0
VERTEX
8
RASTER
10
36.008
20
76.274
30
0
0
VERTEX
8
RASTER
10
35.819
20
76.508
30
0
0
VERTEX
8
RASTER
10
35.671
20
76.731
30
0
0
VERTEX
8
RASTER
10
35.567
20
76.937
30
0
0
VERTEX
8
RASTER
10
35.512
20
77.121
30
0
0
VERTEX
8
RASTER
10
35.51
20
77.275
30
0
0
VERTEX
8
RASTER
10
35.563
20
77.393
30
0
0
VERTEX
8
RASTER
10
35.67
20
77.467
30
0
0
VERTEX
8
RASTER
10
35.823
20
77.491
30
0
0
VERTEX
8
RASTER
10
36.013
20
77.468
30
0
0
VERTEX
8
RASTER
10
36.234
20
77.402
30
0
0
VERTEX
8
RASTER
10
36.48
20
77.295
30
0
0
VERTEX
8
RASTER
10
36.742
20
77.15
30
0
0
VERTEX
8
RASTER
10
37.015
20
76.968
30
0
0
VERTEX
8
RASTER
10
37.291
20
76.753
30
0
0
VERTEX
8
RASTER
10
37.551
20
76.518
30
0
0
VERTEX
8
RASTER
10
37.778
20
76.281
30
0
0
VERTEX
8
RASTER
10
37.967
20
76.048
30
0
0
VERTEX
8
RASTER
10
38.115
20
75.824
30
0
0
VERTEX
8
RASTER
10
38.218
20
75.618
30
0
0
VERTEX
8
RASTER
10
38.273
20
75.434
30
0
0
VERTEX
8
RASTER
10
38.276
20
75.28
30
0
0
VERTEX
8
RASTER
10
38.223
20
75.162
30
0
0
SEQEND
8
RASTER
0
POLYLINE
8
CUT
66
1
70
1
0
VERTEX
8
CUT
10
67.2
20
83.4
30
0
0
VERTEX
8
CUT
10
67.247
20
84.103
30
0
0
VERTEX
8
CUT
10
67.388
20
84.713
30
0
0
VERTEX
8
CUT
10
67.622
20
85.228
30
0
0
VERTEX
8
CUT
10
67.95
20
85.65
30
0
0
VERTEX
8
CUT
10
68.372
20
85.978
30
0
0
VERTEX
8
CUT
10
68.888
20
86.213
30
0
0
VERTEX
8
CUT
10
69.497
20
86.353
30
0
0
VERTEX
8
CUT
10
70.2
20
86.4
30
0
0
VERTEX
8
CUT
10
75.15
20
86.4
30
0
0
VERTEX
8
CUT
10
75.15
20
81.9
30
0
0
VERTEX
8
CUT
10
78.45
20
81.9
30
0
0
VERTEX
8
CUT
10
78.45
20
86.4
30
0
0
VERTEX
8
CUT
10
95.15
20
86.4
30
0
0
VERTEX
8
CUT
10
95.15
20
81.9
30
0
0
VERTEX
8
CUT
10
98.45
20
81.9
30
0
0
VERTEX
8
CUT
10
98.45
20
86.4
30
0
0
VERTEX
8
CUT
10
103.4
20
86.4
30
0
0
VERTEX
8
CUT
10
104.103
20
86.353
30
0
0
VERTEX
8
CUT
10
104.713
20
86.213
30
0
0
VERTEX
8
CUT
10
105.228
20
85.978
30
0
0
VERTEX
8
CUT
10
105.65
20
85.65
30
0
0
VERTEX
8
CUT
10
105.978
20
85.228
30
0
0
VERTEX
8
CUT
10
106.213
20
84.713
30
0
0
VERTEX
8
CUT
10
106.353
20
84.103
30
0
0
VERTEX
8
CUT
10
106.4
20
83.4
30
0
0
VERTEX
8
CUT
10
106.4
20
78.45
30
0
0
VERTEX
8
CUT
10
101.9
20
78.45
30
0
0
VERTEX
8
CUT
10
101.9
20
75.15
30
0
0
VERTEX
8
CUT
10
106.4
20
75.15
30
0
0
VERTEX
8
CUT
10
106.4
20
70.2
30
0
0
VERTEX
8
CUT
10
106.353
20
69.497
30
0
0
VERTEX
8
CUT
10
106.213
20
68.888
30
0
0
VERTEX
8
CUT
10
105.978
20
68.372
30
0
0
VERTEX
8
CUT
10
105.65
20
67.95
30
0
0
VERTEX
8
CUT
10
105.228
20
67.622
30
0
0
VERTEX
8
CUT
10
104.713
20
67.388
30
0
0
VERTEX
8
CUT
10
104.103
20
67.247
30
0
0
VERTEX
8
CUT
10
103.4
20
67.2
30
0
0
VERTEX
8
CUT
10
98.45
20
67.2
30
0
0
VERTEX
8
CUT
10
98.45
20
71.7
30
0
0
VERTEX
8
CUT
10
95.15
20
71.7
30
0
0
VERTEX
8
CUT
10
95.15
20
67.2
30
0
0
VERTEX
8
CUT
10
89.4
20
67.2
30
0
0
VERTEX
8
CUT
10
88.697
20
67.153
30
0
0
VERTEX
8
CUT
10
88.088
20
67.013
30
0
0
VERTEX
8
CUT
10
87.572
20
66.778
30
0
0
VERTEX
8
CUT
10
87.15
20
66.45
30
0
0
VERTEX
8
CUT
10
86.822
20
66.028
30
0
0
VERTEX
8
CUT
10
86.588
20
65.513
30
0
0
VERTEX
8
CUT
10
86.447
20
64.903
30
0
0
VERTEX
8
CUT
10
86.4
20
64.2
30
0
0
VERTEX
8
CUT
10
86.4
20
58.45
30
0
0
VERTEX
8
CUT
10
81.9
20
58.45
30
0
0
VERTEX
8
CUT
10
81.9
20
55.15
30
0
0
VERTEX
8
CUT
10
86.4
20
55.15
30
0
0
VERTEX
8
CUT
10
86.4
20
50.2
30
0
0
VERTEX
8
CUT
10
86.353
20
49.497
30
0
0
VERTEX
8
CUT
10
86.213
20
48.888
30
0
0
VERTEX
8
CUT
10
85.978
20
48.372
30
0
0
VERTEX
8
CUT
10
85.65
20
47.95
30
0
0
VERTEX
8
CUT
10
85.228
20
47.622
30
0
0
VERTEX
8
CUT
10
84.713
20
47.388
30
0
0
VERTEX
8
CUT
10
84.103
20
47.247
30
0
0
VERTEX
8
CUT
10
83.4
20
47.2
30
0
0
VERTEX
8
CUT
10
78.45
20
47.2
30
0
0
VERTEX
8
CUT
10
78.45
20
51.7
30
0
0
VERTEX
8
CUT
10
75.15
20
51.7
30
0
0
VERTEX
8
CUT
10
75.15
20
47.2
30
0
0
VERTEX
8
CUT
10
70.2
20
47.2
30
0
0
VERTEX
8
CUT
10
69.497
20
47.247
30
0
0
VERTEX
8
CUT
10
68.887
20
47.388
30
0
0
VERTEX
8
CUT
10
68.372
20
47.622
30
0
0
VERTEX
8
CUT
10
67.95
20
47.95
30
0
0
VERTEX
8
CUT
10
67.622
20
48.372
30
0
0
VERTEX
8
CUT
10
67.388
20
48.888
30
0
0
VERTEX
8
CUT
10
67.247
20
49.497
30
0
0
VERTEX
8
CUT
10
67.2
20
50.2
30
0
0
SEQEND
8
CUT
0
POLYLINE
8
RASTER
66
1
70
1
0
VERTEX
8
RASTER
10
68.8
20
82.8
30
0
0
VERTEX
8
RASTER
10
68.831
20
83.269
30
0
0
VERTEX
8
RASTER
10
68.925
20
83.675
30
0
0
VERTEX
8
RASTER
10
69.081
20
84.019
30
0
0
VERTEX
8
RASTER
10
69.3
20
84.3
30
0
0
VERTEX
8
RASTER
10
69.581
20
84.519
30
0
0
VERTEX
8
RASTER
10
69.925
20
84.675
30
0
0
VERTEX
8
RASTER
10
70.331
20
84.769
30
0
0
VERTEX
8
RASTER
10
70.8
20
84.8
30
0
0
VERTEX
8
RASTER
10
102.8
20
84.8
30
0
0
VERTEX
8
RASTER
10
103.269
20
84.769
30
0
0
VERTEX
8
RASTER
10
103.675
20
84.675
30
0
0
VERTEX
8
RASTER
10
104.019
20
84.519
30
0
0
VERTEX
8
RASTER
10
104.3
20
84.3
30
0
0
VERTEX
8
RASTER
10
104.519
20
84.019
30
0
0
VERTEX
8
RASTER
10
104.675
20
83.675
30
0
0
VERTEX
8
RASTER
10
104.769
20
83.269
30
0
0
VERTEX
8
RASTER
10
104.8
20
82.8
30
0
0
VERTEX
8
RASTER
10
104.8
20
70.8
30
0
0
VERTEX
8
RASTER
10
104.769
20
70.331
30
0
0
VERTEX
8
RASTER
10
104.675
20
69.925
30
0
0
VERTEX
8
RASTER
10
104.519
20
69.581
30
0
0
VERTEX
8
RASTER
10
104.3
20
69.3
30
0
0
VERTEX
8
RASTER
10
104.019
20
69.081
30
0
0
VERTEX
8
RASTER
10
103.675
20
68.925
30
0
0
VERTEX
8
RASTER
10
103.269
20
68.831
30
0
0
VERTEX
8
RASTER
10
102.8
20
68.8
30
0
0
VERTEX
8
RASTER
10
86.8
20
68.8
30
0
0
VERTEX
8
RASTER
10
86.331
20
68.769
30
0
0
VERTEX
8
RASTER
10
85.925
20
68.675
30
0
0
VERTEX
8
RASTER
10
85.581
20
68.519
30
0
0
VERTEX
8
RASTER
10
85.3
20
68.3
30
0
0
VERTEX
8
RASTER
10
85.081
20
68.019
30
0
0
VERTEX
8
RASTER
10
84.925
20
67.675
30
0
0
VERTEX
8
RASTER
10
84.831
20
67.269
30
0
0
VERTEX
8
RASTER
10
84.8
20
66.8
30
0
0
VERTEX
8
RASTER
10
84.8
20
50.8
30
0
0
VERTEX
8
RASTER
10
84.769
20
50.331
30
0
0
VERTEX
8
RASTER
10
84.675
20
49.925
30
0
0
VERTEX
8
RASTER
10
84.519
20
49.581
30
0
0
VERTEX
8
RASTER
10
84.3
20
49.3
30
0
0
VERTEX
8
RASTER
10
84.019
20
49.081
30
0
0
VERTEX
8
RASTER
10
83.675
20
48.925
30
0
0
VERTEX
8
RASTER
10
83.269
20
48.831
30
0
0
VERTEX
8
RASTER
10
82.8
20
48.8
30
0
0
VERTEX
8
RASTER
10
70.8
20
48.8
30
0
0
VERTEX
8
RASTER
10
70.331
20
48.831
30
0
0
VERTEX
8
RASTER
10
69.925
20
48.925
30
0
0
VERTEX
8
RASTER
10
69.581
20
49.081
30
0
0
VERTEX
8
RASTER
10
69.3
20
49.3
30
0
0
VERTEX
8
RASTER
10
69.081
20
49.581
30
0
0
VERTEX
8
RASTER
10
68.925
20
49.925
30
0
0
VERTEX
8
RASTER
10
68.831
20
50.331
30
0
0
VERTEX
8
RASTER
10
68.8
20
50.8
30
0
0
SEQEND
8
RASTER
0
POLYLINE
8
RASTER
66
1
70
1
0
VERTEX
8
RASTER
10
69.8
20
82.6
30
0
0
VERTEX
8
RASTER
10
69.8
20
51
30
0
0
VERTEX
8
RASTER
10
69.819
20
50.719
30
0
0
VERTEX
8
RASTER
10
69.875
20
50.475
30
0
0
VERTEX
8
RASTER
10
69.969
20
50.269
30
0
0
VERTEX
8
RASTER
10
70.1
20
50.1
30
0
0
VERTEX
8
RASTER
10
70.269
20
49.969
30
0
0
VERTEX
8
RASTER
10
70.475
20
49.875
30
0
0
VERTEX
8
RASTER
10
70.719
20
49.819
30
0
0
VERTEX
8
RASTER
10
71
20
49.8
30
0
0
VERTEX
8
RASTER
10
82.6
20
49.8
30
0
0
VERTEX
8
RASTER
10
82.881
20
49.819
30
0
0
VERTEX
8
RASTER
10
83.125
20
49.875
30
0
0
VERTEX
8
RASTER
10
83.331
20
49.969
30
0
0
VERTEX
8
RASTER
10
83.5
20
50.1
30
0
0
VERTEX
8
RASTER
10
83.631
20
50.269
30
0
0
VERTEX
8
RASTER
10
83.725
20
50.475
30
0
0
VERTEX
8
RASTER
10
83.781
20
50.719
30
0
0
VERTEX
8
RASTER
10
83.8
20
51
30
0
0
VERTEX
8
RASTER
10
83.8
20
68.6
30
0
0
VERTEX
8
RASTER
10
83.819
20
68.881
30
0
0
VERTEX
8
RASTER
10
83.875
20
69.125
30
0
0
VERTEX
8
RASTER
10
83.969
20
69.331
30
0
0
VERTEX
8
RASTER
10
84.1
20
69.5
30
0
0
VERTEX
8
RASTER
10
84.269
20
69.631
30
0
0
VERTEX
8
RASTER
10
84.475
20
69.725
30
0
0
VERTEX
8
RASTER
10
84.719
20
69.781
30
0
0
VERTEX
8
RASTER
10
85
20
69.8
30
0
0
VERTEX
8
RASTER
10
102.6
20
69.8
30
0
0
VERTEX
8
RASTER
10
102.881
20
69.819
30
0
0
VERTEX
8
RASTER
10
103.125
20
69.875
30
0
0
VERTEX
8
RASTER
10
103.331
20
69.969
30
0
0
VERTEX
8
RASTER
10
103.5
20
70.1
30
0
0
VERTEX
8
RASTER
10
103.631
20
70.269
30
0
0
VERTEX
8
RASTER
10
103.725
20
70.475
30
0
0
VERTEX
8
RASTER
10
103.781
20
70.719
30
0
0
VERTEX
8
RASTER
10
103.8
20
71
30
0
0
VERTEX
8
RASTER
10
103.8
20
82.6
30
0
0
VERTEX
8
RASTER
10
103.781
20
82.881
30
0
0
VERTEX
8
RASTER
10
103.725
20
83.125
30
0
0
VERTEX
8
RASTER
10
103.631
20
83.331
30
0
0
VERTEX
8
RASTER
10
103.5
20
83.5
30
0
0
VERTEX
8
RASTER
10
103.331
20
83.631
30
0
0
VERTEX
8
RASTER
10
103.125
20
83.725
30
0
0
VERTEX
8
RASTER
10
102.881
20
83.781
30
0
0
VERTEX
8
RASTER
10
102.6
20
83.8
30
0
0
VERTEX
8
RASTER
10
71
20
83.8
30
0
0
VERTEX
8
RASTER
10
70.719
20
83.781
30
0
0
VERTEX
8
RASTER
10
70.475
20
83.725
30
0
0
VERTEX
8
RASTER
10
70.269
20
83.631
30
0
0
VERTEX
8
RASTER
10
70.1
20
83.5
30
0
0
VERTEX
8
RASTER
10
69.969
20
83.331
30
0
0
VERTEX
8
RASTER
10
69.875
20
83.125
30
0
0
VERTEX
8
RASTER
10
69.819
20
82.881
30
0
0
VERTEX
8
RASTER
10
69.8
20
82.6
30
0
0
SEQEND
8
RASTER
0
POLYLINE
8
RASTER
66
1
70
1
0
VERTEX
8
RASTER
10
76.056
20
71.096
30
0
0
VERTEX
8
RASTER
10
76.161
20
71.85
30
0
0
VERTEX
8
RASTER
10
76.292
20
72.619
30
0
0
VERTEX
8
RASTER
10
76.453
20
73.393
30
0
0
VERTEX
8
RASTER
10
76.645
20
74.165
30
0
0
VERTEX
8
RASTER
10
76.872
20
74.925
30
0
0
VERTEX
8
RASTER
10
77.137
20
75.665
30
0
0
VERTEX
8
RASTER
10
77.443
20
76.375
30
0
0
VERTEX
8
RASTER
10
77.792
20
77.048
30
0
0
VERTEX
8
RASTER
10
78.412
20
76.8
30
0
0
VERTEX
8
RASTER
10
78.109
20
76.138
30
0
0
VERTEX
8
RASTER
10
77.85
20
75.455
30
0
0
VERTEX
8
RASTER
10
77.632
20
74.755
30
0
0
VERTEX
8
RASTER
10
77.451
20
74.041
30
0
0
VERTEX
8
RASTER
10
77.305
20
73.315
30
0
0
VERTEX
8
RASTER
10
77.191
20
72.58
30
0
0
VERTEX
8
RASTER
10
77.107
20
71.84
30
0
0
VERTEX
8
RASTER
10
77.048
20
71.096
30
0
0
SEQEND
8
RASTER
0
CIRCLE
8
RASTER
10
78.288
20
77.792
30
0
40
0.496
0
POLYLINE
8
RASTER
66
1
70
1
0
VERTEX
8
RASTER
10
74.443
20
79.192
30
0
0
VERTEX
8
RASTER
10
74.519
20
79.297
30
0
0
VERTEX
8
RASTER
10
74.654
20
79.372
30
0
0
VERTEX
8
RASTER
10
74.84
20
79.416
30
0
0
VERTEX
8
RASTER
10
75.071
20
79.43
30
0
0
VERTEX
8
RASTER
10
75.338
20
79.413
30
0
0
VERTEX
8
RASTER
10
75.634
20
79.366
30
0
0
VERTEX
8
RASTER
10
75.953
20
79.288
30
0
0
VERTEX
8
RASTER
10
76.286
20
79.18
30
0
0
VERTEX
8
RASTER
10
76.611
20
79.049
30
0
0
VERTEX
8
RASTER
10
76.904
20
78.904
30
0
0
VERTEX
8
RASTER
10
77.162
20
78.749
30
0
0
VERTEX
8
RASTER
10
77.378
20
78.59
30
0
0
VERTEX
8
RASTER
10
77.545
20
78.431
30
0
0
VERTEX
8
RASTER
10
77.66
20
78.277
30
0
0
VERTEX
8
RASTER
10
77.715
20
78.134
30
0
0
VERTEX
8
RASTER
10
77.705
20
78.004
30
0
0
VERTEX
8
RASTER
10
77.63
20
77.899
30
0
0
VERTEX
8
RASTER
10
77.495
20
77.824
30
0
0
VERTEX
8
RASTER
10
77.308
20
77.78
30
0
0
VERTEX
8
RASTER
10
77.078
20
77.766
30
0
0
VERTEX
8
RASTER
10
76.81
20
77.783
30
0
0
VERTEX
8
RASTER
10
76.514
20
77.83
30
0
0
VERTEX
8
RASTER
10
76.195
20
77.907
30
0
0
VERTEX
8
RASTER
10
75.862
20
78.015
30
0
0
VERTEX
8
RASTER
10
75.538
20
78.147
30
0
0
VERTEX
8
RASTER
10
75.244
20
78.292
30
0
0
VERTEX
8
RASTER
10
74.986
20
78.447
30
0
0
VERTEX
8
RASTER
10
74.771
20
78.606
30
0
0
VERTEX
8
RASTER
10
74.603
20
78.764
30
0
0
VERTEX
8
RASTER
10
74.488
20
78.918
30
0
0
VERTEX
8
RASTER
10
74.433
20
79.062
30
0
0
VERTEX
8
RASTER
10
74.443
20
79.192
30
0
0
SEQEND
8
RASTER
0
POLYLINE
8
RASTER
66
1
70
1
0
VERTEX
8
RASTER
10
76.888
20
81.637
30
0
0
VERTEX
8
RASTER
10
77.018
20
81.647
30
0
0
VERTEX
8
RASTER
10
77.162
20
81.592
30
0
0
VERTEX
8
RASTER
10
77.316
20
81.477
30
0
0
VERTEX
8
RASTER
10
77.474
20
81.309
30
0
0
VERTEX
8
RASTER
10
77.633
20
81.094
30
0
0
VERTEX
8
RASTER
10
77.788
20
80.836
30
0
0
VERTEX
8
RASTER
10
77.933
20
80.542
30
0
0
VERTEX
8
RASTER
10
78.065
20
80.218
30
0
0
VERTEX
8
RASTER
10
78.173
20
79.885
30
0
0
VERTEX
8
RASTER
10
78.25
20
79.566
30
0
0
VERTEX
8
RASTER
10
78.297
20
79.27
30
0
0
VERTEX
8
RASTER
10
78.314
20
79.002
30
0
0
VERTEX
8
RASTER
10
78.3
20
78.772
30
0
0
VERTEX
8
RASTER
10
78.256
20
78.585
30
0
0
VERTEX
8
RASTER
10
78.181
20
78.45
30
0
0
VERTEX
8
RASTER
10
78.076
20
78.375
30
0
0
VERTEX
8
RASTER
10
77.946
20
78.365
30
0
0
VERTEX
8
RASTER
10
77.803
20
78.42
30
0
0
VERTEX
8
RASTER
10
77.649
20
78.535
30
0
0
VERTEX
8
RASTER
10
77.49
20
78.702
30
0
0
VERTEX
8
RASTER
10
77.331
20
78.918
30
0
0
VERTEX
8
RASTER
10
77.176
20
79.176
30
0
0
VERTEX
8
RASTER
10
77.031
20
79.469
30
0
0
VERTEX
8
RASTER
10
76.9
20
79.794
30
0
0
VERTEX
8
RASTER
10
76.792
20
80.127
30
0
0
VERTEX
8
RASTER
10
76.714
20
80.446
30
0
0
VERTEX
8
RASTER
10
76.667
20
80.742
30
0
0
VERTEX
8
RASTER
10
76.65
20
81.009
30
0
0
VERTEX
8
RASTER
10
76.664
20
81.24
30
0
0
VERTEX
8
RASTER
10
76.708
20
81.426
30
0
0
VERTEX
8
RASTER
10
76.783
20
81.561
30
0
0
VERTEX
8
RASTER
10
76.888
20
81.637
30
0
0
SEQEND
8
RASTER
0
POLYLINE
8
RASTER
66
1
70
1
0
VERTEX
8
RASTER
10
80.334
20
81.336
30
0
0
VERTEX
8
RASTER
10
80.425
20
81.243
30
0
0
VERTEX
8
RASTER
10
80.475
20
81.097
30
0
0
VERTEX
8
RASTER
10
80.486
20
80.906
30
0
0
VERTEX
8
RASTER
10
80.459
20
80.676
30
0
0
VERTEX
8
RASTER
10
80.397
20
80.416
30
0
0
VERTEX
8
RASTER
10
80.299
20
80.132
30
0
0
VERTEX
8
RASTER
10
80.167
20
79.832
30
0
0
VERTEX
8
RASTER
10
80.003
20
79.522
30
0
0
VERTEX
8
RASTER
10
79.817
20
79.226
30
0
0
VERTEX
8
RASTER
10
79.623
20
78.962
30
0
0
VERTEX
8
RASTER
10
79.426
20
78.735
30
0
0
VERTEX
8
RASTER
10
79.232
20
78.55
30
0
0
VERTEX
8
RASTER
10
79.046
20
78.412
30
0
0
VERTEX
8
RASTER
10
78.875
20
78.326
30
0
0
VERTEX
8
RASTER
10
78.724
20
78.297
30
0
0
VERTEX
8
RASTER
10
78.598
20
78.329
30
0
0
VERTEX
8
RASTER
10
78.507
20
78.422
30
0
0
VERTEX
8
RASTER
10
78.457
20
78.568
30
0
0
VERTEX
8
RASTER
10
78.446
20
78.759
30
0
0
VERTEX
8
RASTER
10
78.473
20
78.988
30
0
0
VERTEX
8
RASTER
10
78.535
20
79.249
30
0
0
VERTEX
8
RASTER
10
78.633
20
79.533
30
0
0
VERTEX
8
RASTER
10
78.765
20
79.833
30
0
0
VERTEX
8
RASTER
10
78.929
20
80.142
30
0
0
VERTEX
8
RASTER
10
79.115
20
80.439
30
0
0
VERTEX
8
RASTER
10
79.309
20
80.703
30
0
0
VERTEX
8
RASTER
10
79.506
20
80.93
30
0
0
VERTEX
8
RASTER
10
79.7
20
81.115
30
0
0
VERTEX
8
RASTER
10
79.886
20
81.252
30
0
0
VERTEX
8
RASTER
10
80.057
20
81.338
30
0
0
VERTEX
8
RASTER
10
80.208
20
81.368
30
0
0
VERTEX
8
RASTER
10
80.334
20
81.336
30
0
0
SEQEND
8
RASTER
0
POLYLINE
8
RASTER
66
1
70
1
0
VERTEX
8
RASTER
10
82.318
20
78.503
30
0
0
VERTEX
8
RASTER
10
82.305
20
78.373
30
0
0
VERTEX
8
RASTER
10
82.225
20
78.241
30
0
0
VERTEX
8
RASTER
10
82.086
20
78.11
30
0
0
VERTEX
8
RASTER
10
81.893
20
77.983
30
0
0
VERTEX
8
RASTER
10
81.653
20
77.863
30
0
0
VERTEX
8
RASTER
10
81.373
20
77.756
30
0
0
VERTEX
8
RASTER
10
81.058
20
77.664
30
0
0
VERTEX
8
RASTER
10
80.716
20
77.591
30
0
0
VERTEX
8
RASTER
10
80.369
20
77.542
30
0
0
VERTEX
8
RASTER
10
80.042
20
77.521
30
0
0
VERTEX
8
RASTER
10
79.742
20
77.526
30
0
0
VERTEX
8
RASTER
10
79.475
20
77.556
30
0
0
VERTEX
8
RASTER
10
79.251
20
77.61
30
0
0
VERTEX
8
RASTER
10
79.075
20
77.686
30
0
0
VERTEX
8
RASTER
10
78.955
20
77.783
30
0
0
VERTEX
8
RASTER
10
78.899
20
77.9
30
0
0
VERTEX
8
RASTER
10
78.912
20
78.029
30
0
0
VERTEX
8
RASTER
10
78.991
20
78.161
30
0
0
VERTEX
8
RASTER
10
79.13
20
78.293
30
0
0
VERTEX
8
RASTER
10
79.323
20
78.42
30
0
0
VERTEX
8
RASTER
10
79.563
20
78.539
30
0
0
VERTEX
8
RASTER
10
79.844
20
78.646
30
0
0
VERTEX
8
RASTER
10
80.158
20
78.739
30
0
0
VERTEX
8
RASTER
10
80.501
20
78.812
30
0
0
VERTEX
8
RASTER
10
80.847
20
78.86
30
0
0
VERTEX
8
RASTER
10
81.174
20
78.881
30
0
0
VERTEX
8
RASTER
10
81.475
20
78.876
30
0
0
VERTEX
8
RASTER
10
81.741
20
78.846
30
0
0
VERTEX
8
RASTER
10
81.966
20
78.792
30
0
0
VERTEX
8
RASTER
10
82.142
20
78.717
30
0
0
VERTEX
8
RASTER
10
82.261
20
78.619
30
0
0
VERTEX
8
RASTER
10
82.318
20
78.503
30
0
0
SEQEND
8
RASTER
0
POLYLINE
8
RASTER
66
1
70
1
0
VERTEX
8
RASTER
10
81.423
20
75.162
30
0
0
VERTEX
8
RASTER
10
81.315
20
75.089
30
0
0
VERTEX
8
RASTER
10
81.163
20
75.065
30
0
0
VERTEX
8
RASTER
10
80.973
20
75.087
30
0
0
VERTEX
8
RASTER
10
80.751
20
75.153
30
0
0
VERTEX
8
RASTER
10
80.506
20
75.26
30
0
0
VERTEX
8
RASTER
10
80.243
20
75.406
30
0
0
VERTEX
8
RASTER
10
79.97
20
75.587
30
0
0
VERTEX
8
RASTER
10
79.694
20
75.803
30
0
0
VERTEX
8
RASTER
10
79.434
20
76.037
30
0
0
VERTEX
8
RASTER
10
79.208
20
76.274
30
0
0
VERTEX
8
RASTER
10
79.019
20
76.508
30
0
0
VERTEX
8
RASTER
10
78.871
20
76.731
30
0
0
VERTEX
8
RASTER
10
78.767
20
76.937
30
0
0
VERTEX
8
RASTER
10
78.712
20
77.121
30
0
0
VERTEX
8
RASTER
10
78.71
20
77.275
30
0
0
VERTEX
8
RASTER
10
78.763
20
77.393
30
0
0
VERTEX
8
RASTER
10
78.87
20
77.467
30
0
0
VERTEX
8
RASTER
10
79.023
20
77.491
30
0
0
VERTEX
8
RASTER
10
79.213
20
77.468
30
0
0
VERTEX
8
RASTER
10
79.434
20
77.402
30
0
0
VERTEX
8
RASTER
10
79.68
20
77.295
30
0
0
VERTEX
8
RASTER
10
79.942
20
77.15
30
0
0
VERTEX
8
RASTER
10
80.215
20
76.968
30
0
0
VERTEX
8
RASTER
10
80.491
20
76.753
30
0
0
VERTEX
8
RASTER
10
80.751
20
76.518
30
0
0
VERTEX
8
RASTER
10
80.978
20
76.281
30
0
0
VERTEX
8
RASTER
10
81.167
20
76.048
30
0
0
VERTEX
8
RASTER
10
81.315
20
75.824
30
0
0
VERTEX
8
RASTER
10
81.418
20
75.618
30
0
0
VERTEX
8
RASTER
10
81.473
20
75.434
30
0
0
VERTEX
8
RASTER
10
81.476
20
75.28
30
0
0
VERTEX
8
RASTER
10
81.423
20
75.162
30
0
0
SEQEND
8
RASTER
0
POLYLINE
8
CUT
66
1
70
1
0
VERTEX
8
CUT
10
110.4
20
83.4
30
0
0
VERTEX
8
CUT
10
110.447
20
84.103
30
0
0
VERTEX
8
CUT
10
110.588
20
84.713
30
0
0
VERTEX
8
CUT
10
110.822
20
85.228
30
0
0
VERTEX
8
CUT
10
111.15
20
85.65
30
0
0
VERTEX
8
CUT
10
111.572
20
85.978
30
0
0
VERTEX
8
CUT
10
112.088
20
86.213
30
0
0
VERTEX
8
CUT
10
112.697
20
86.353
30
0
0
VERTEX
8
CUT
10
113.4
20
86.4
30
0
0
VERTEX
8
CUT
10
118.35
20
86.4
30
0
0
VERTEX
8
CUT
10
118.35
20
81.9
30
0
0
VERTEX
8
CUT
10
121.65
20
81.9
30
0
0
VERTEX
8
CUT
10
121.65
20
86.4
30
0
0
VERTEX
8
CUT
10
138.35
20
86.4
30
0
0
VERTEX
8
CUT
10
138.35
20
81.9
30
0
0
VERTEX
8
CUT
10
141.65
20
81.9
30
0
0
VERTEX
8
CUT
10
141.65
20
86.4
30
0
0
VERTEX
8
CUT
10
158.35
20
86.4
30
0
0
VERTEX
8
CUT
10
158.35
20
81.9
30
0
0
VERTEX
8
CUT
10
161.65
20
81.9
30
0
0
VERTEX
8
CUT
10
161.65
20
86.4
30
0
0
VERTEX
8
CUT
10
178.35
20
86.4
30
0
0
VERTEX
8
CUT
10
178.35
20
81.9
30
0
0
VERTEX
8
CUT
10
181.65
20
81.9
30
0
0
VERTEX
8
CUT
10
181.65
20
86.4
30
0
0
VERTEX
8
CUT
10
186.6
20
86.4
30
0
0
VERTEX
8
CUT
10
187.303
20
86.353
30
0
0
VERTEX
8
CUT
10
187.913
20
86.213
30
0
0
VERTEX
8
CUT
10
188.428
20
85.978
30
0
0
VERTEX
8
CUT
10
188.85
20
85.65
30
0
0
VERTEX
8
CUT
10
189.178
20
85.228
30
0
0
VERTEX
8
CUT
10
189.413
20
84.713
30
0
0
VERTEX
8
CUT
10
189.553
20
84.103
30
0
0
VERTEX
8
CUT
10
189.6
20
83.4
30
0
0
VERTEX
8
CUT
10
189.6
20
78.45
30
0
0
VERTEX
8
CUT
10
185.1
20
78.45
30
0
0
VERTEX
8
CUT
10
185.1
20
75.15
30
0
0
VERTEX
8
CUT
10
189.6
20
75.15
30
0
0
VERTEX
8
CUT
10
189.6
20
70.2
30
0
0
VERTEX
8
CUT
10
189.553
20
69.497
30
0
0
VERTEX
8
CUT
10
189.413
20
68.888
30
0
0
VERTEX
8
CUT
10
189.178
20
68.372
30
0
0
VERTEX
8
CUT
10
188.85
20
67.95
30
0
0
VERTEX
8
CUT
10
188.428
20
67.622
30
0
0
VERTEX
8
CUT
10
187.913
20
67.388
30
0
0
VERTEX
8
CUT
10
187.303
20
67.247
30
0
0
VERTEX
8
CUT
10
186.6
20
67.2
30
0
0
VERTEX
8
CUT
10
181.65
20
67.2
30
0
0
VERTEX
8
CUT
10
181.65
20
71.7
30
0
0
VERTEX
8
CUT
10
178.35
20
71.7
30
0
0
VERTEX
8
CUT
10
178.35
20
67.2
30
0
0
VERTEX
8
CUT
10
161.65
20
67.2
30
0
0
VERTEX
8
CUT
10
161.65
20
71.7
30
0
0
VERTEX
8
CUT
10
158.35
20
71.7
30
0
0
VERTEX
8
CUT
10
158.35
20
67.2
30
0
0
VERTEX
8
CUT
10
141.65
20
67.2
30
0
0
VERTEX
8
CUT
10
141.65
20
71.7
30
0
0
VERTEX
8
CUT
10
138.35
20
71.7
30
0
0
VERTEX
8
CUT
10
138.35
20
67.2
30
0
0
VERTEX
8
CUT
10
121.65
20
67.2
30
0
0
VERTEX
8
CUT
10
121.65
20
71.7
30
0
0
VERTEX
8
CUT
10
118.35
20
71.7
30
0
0
VERTEX
8
CUT
10
118.35
20
67.2
30
0
0
VERTEX
8
CUT
10
113.4
20
67.2
30
0
0
VERTEX
8
CUT
10
112.697
20
67.247
30
0
0
VERTEX
8
CUT
10
112.088
20
67.388
30
0
0
VERTEX
8
CUT
10
111.572
20
67.622
30
0
0
VERTEX
8
CUT
10
111.15
20
67.95
30
0
0
VERTEX
8
CUT
10
110.822
20
68.372
30
0
0
VERTEX
8
CUT
10
110.588
20
68.888
30
0
0
VERTEX
8
CUT
10
110.447
20
69.497
30
0
0
VERTEX
8
CUT
10
110.4
20
70.2
30
0
0
SEQEND
8
CUT
0
POLYLINE
8
RASTER
66
1
70
1
0
VERTEX
8
RASTER
10
112
20
82.8
30
0
0
VERTEX
8
RASTER
10
112.031
20
83.269
30
0
0
VERTEX
8
RASTER
10
112.125
20
83.675
30
0
0
VERTEX
8
RASTER
10
112.281
20
84.019
30
0
0
VERTEX
8
RASTER
10
112.5
20
84.3
30
0
0
VERTEX
8
RASTER
10
112.781
20
84.519
30
0
0
VERTEX
8
RASTER
10
113.125
20
84.675
30
0
0
VERTEX
8
RASTER
10
113.531
20
84.769
30
0
0
VERTEX
8
RASTER
10
114
20
84.8
30
0
0
VERTEX
8
RASTER
10
186
20
84.8
30
0
0
VERTEX
8
RASTER
10
186.469
20
84.769
30
0
0
VERTEX
8
RASTER
10
186.875
20
84.675
30
0
0
VERTEX
8
RASTER
10
187.219
20
84.519
30
0
0
VERTEX
8
RASTER
10
187.5
20
84.3
30
0
0
VERTEX
8
RASTER
10
187.719
20
84.019
30
0
0
VERTEX
8
RASTER
10
187.875
20
83.675
30
0
0
VERTEX
8
RASTER
10
187.969
20
83.269
30
0
0
VERTEX
8
RASTER
10
188
20
82.8
30
0
0
VERTEX
8
RASTER
10
188
20
70.8
30
0
0
VERTEX
8
RASTER
10
187.969
20
70.331
30
0
0
VERTEX
8
RASTER
10
187.875
20
69.925
30
0
0
VERTEX
8
RASTER
10
187.719
20
69.581
30
0
0
VERTEX
8
RASTER
10
187.5
20
69.3
30
0
0
VERTEX
8
RASTER
10
187.219
20
69.081
30
0
0
VERTEX
8
RASTER
10
186.875
20
68.925
30
0
0
VERTEX
8
RASTER
10
186.469
20
68.831
30
0
0
VERTEX
8
RASTER
10
186
20
68.8
30
0
0
VERTEX
8
RASTER
10
114
20
68.8
30
0
0
VERTEX
8
RASTER
10
113.531
20
68.831
30
0
0
VERTEX
8
RASTER
10
113.125
20
68.925
30
0
0
VERTEX
8
RASTER
10
112.781
20
69.081
30
0
0
VERTEX
8
RASTER
10
112.5
20
69.3
30
0
0
VERTEX
8
RASTER
10
112.281
20
69.581
30
0
0
VERTEX
8
RASTER
10
112.125
20
69.925
30
0
0
VERTEX
8
RASTER
10
112.031
20
70.331
30
0
0
VERTEX
8
RASTER
10
112
20
70.8
30
0
0
SEQEND
8
RASTER
0
POLYLINE
8
RASTER
66
1
70
1
0
VERTEX
8
RASTER
10
113
20
82.6
30
0
0
VERTEX
8
RASTER
10
113
20
71
30
0
0
VERTEX
8
RASTER
10
113.019
20
70.719
30
0
0
VERTEX
8
RASTER
10
113.075
20
70.475
30
0
0
VERTEX
8
RASTER
10
113.169
20
70.269
30
0
0
VERTEX
8
RASTER
10
113.3
20
70.1
30
0
0
VERTEX
8
RASTER
10
113.469
20
69.969
30
0
0
VERTEX
8
RASTER
10
113.675
20
69.875
30
0
0
VERTEX
8
RASTER
10
113.919
20
69.819
30
0
0
VERTEX
8
RASTER
10
114.2
20
69.8
30
0
0
VERTEX
8
RASTER
10
185.8
20
69.8
30
0
0
VERTEX
8
RASTER
10
186.081
20
69.819
30
0
0
VERTEX
8
RASTER
10
186.325
20
69.875
30
0
0
VERTEX
8
RASTER
10
186.531
20
69.969
30
0
0
VERTEX
8
RASTER
10
186.7
20
70.1
30
0
0
VERTEX
8
RASTER
10
186.831
20
70.269
30
0
0
VERTEX
8
RASTER
10
186.925
20
70.475
30
0
0
VERTEX
8
RASTER
10
186.981
20
70.719
30
0
0
VERTEX
8
RASTER
10
187
20
71
30
0
0
VERTEX
8
RASTER
10
187
20
82.6
30
0
0
VERTEX
8
RASTER
10
186.981
20
82.881
30
0
0
VERTEX
8
RASTER
10
186.925
20
83.125
30
0
0
VERTEX
8
RASTER
10
186.831
20
83.331
30
0
0
VERTEX
8
RASTER
10
186.7
20
83.5
30
0
0
VERTEX
8
RASTER
10
186.531
20
83.631
30
0
0
VERTEX
8
RASTER
10
186.325
20
83.725
30
0
0
VERTEX
8
RASTER
10
186.081
20
83.781
30
0
0
VERTEX
8
RASTER
10
185.8
20
83.8
30
0
0
VERTEX
8
RASTER
10
114.2
20
83.8
30
0
0
VERTEX
8
RASTER
10
113.919
20
83.781
30
0
0
VERTEX
8
RASTER
10
113.675
20
83.725
30
0
0
VERTEX
8
RASTER
10
113.469
20
83.631
30
0
0
VERTEX
8
RASTER
10
113.3
20
83.5
30
0
0
VERTEX
8
RASTER
10
113.169
20
83.331
30
0
0
VERTEX
8
RASTER
10
113.075
20
83.125
30
0
0
VERTEX
8
RASTER
10
113.019
20
82.881
30
0
0
VERTEX
8
RASTER
10
113
20
82.6
30
0
0
SEQEND
8
RASTER
0
POLYLINE
8
RASTER
66
1
70
1
0
VERTEX
8
RASTER
10
139.256
20
71.096
30
0
0
VERTEX
8
RASTER
10
139.361
20
71.85
30
0
0
VERTEX
8
RASTER
10
139.492
20
72.619
30
0
0
VERTEX
8
RASTER
10
139.653
20
73.393
30
0
0
VERTEX
8
RASTER
10
139.845
20
74.165
30
0
0
VERTEX
8
RASTER
10
140.072
20
74.925
30
0
0
VERTEX
8
RASTER
10
140.337
20
75.665
30
0
0
VERTEX
8
RASTER
10
140.643
20
76.375
30
0
0
VERTEX
8
RASTER
10
140.992
20
77.048
30
0
0
VERTEX
8
RASTER
10
141.612
20
76.8
30
0
0
VERTEX
8
RASTER
10
141.309
20
76.138
30
0
0
VERTEX
8
RASTER
10
141.05
20
75.455
30
0
0
VERTEX
8
RASTER
10
140.832
20
74.755
30
0
0
VERTEX
8
RASTER
10
140.651
20
74.041
30
0
0
VERTEX
8
RASTER
10
140.505
20
73.315
30
0
0
VERTEX
8
RASTER
10
140.391
20
72.58
30
0
0
VERTEX
8
RASTER
10
140.307
20
71.84
30
0
0
VERTEX
8
RASTER
10
140.248
20
71.096
30
0
0
SEQEND
8
RASTER
0
CIRCLE
8
RASTER
10
141.488
20
77.792
30
0
40
0.496
0
POLYLINE
8
RASTER
66
1
70
1
0
VERTEX
8
RASTER
10
137.643
20
79.192
30
0
0
VERTEX
8
RASTER
10
137.719
20
79.297
30
0
0
VERTEX
8
RASTER
10
137.854
20
79.372
30
0
0
VERTEX
8
RASTER
10
138.04
20
79.416
30
0
0
VERTEX
8
RASTER
10
138.271
20
79.43
30
0
0
VERTEX
8
RASTER
10
138.538
20
79.413
30
0
0
VERTEX
8
RASTER
10
138.834
20
79.366
30
0
0
VERTEX
8
RASTER
10
139.153
20
79.288
30
0
0
VERTEX
8
RASTER
10
139.486
20
79.18
30
0
0
VERTEX
8
RASTER
10
139.811
20
79.049
30
0
0
VERTEX
8
RASTER
10
140.104
20
78.904
30
0
0
VERTEX
8
RASTER
10
140.362
20
78.749
30
0
0
VERTEX
8
RASTER
10
140.578
20
78.59
30
0
0
VERTEX
8
RASTER
10
140.745
20
78.431
30
0
0
VERTEX
8
RASTER
10
140.86
20
78.277
30
0
0
VERTEX
8
RASTER
10
140.915
20
78.134
30
0
0
VERTEX
8
RASTER
10
140.905
20
78.004
30
0
0
VERTEX
8
RASTER
10
140.83
20
77.899
30
0
0
VERTEX
8
RASTER
10
140.695
20
77.824
30
0
0
VERTEX
8
RASTER
10
140.508
20
77.78
30
0
0
VERTEX
8
RASTER
10
140.278
20
77.766
30
0
0
VERTEX
8
RASTER
10
140.01
20
77.783
30
0
0
VERTEX
8
RASTER
10
139.714
20
77.83
30
0
0
VERTEX
8
RASTER
10
139.395
20
77.907
30
0
0
VERTEX
8
RASTER
10
139.062
20
78.015
30
0
0
VERTEX
8
RASTER
10
138.738
20
78.147
30
0
0
VERTEX
8
RASTER
10
138.444
20
78.292
30
0
0
VERTEX
8
RASTER
10
138.186
20
78.447
30
0
0
VERTEX
8
RASTER
10
137.971
20
78.606
30
0
0
VERTEX
8
RASTER
10
137.803
20
78.764
30
0
0
VERTEX
8
RASTER
10
137.688
20
78.918
30
0
0
VERTEX
8
RASTER
10
137.633
20
79.062
30
0
0
VERTEX
8
RASTER
10
137.643
20
79.192
30
0
0
SEQEND
8
RASTER
0
POLYLINE
8
RASTER
66
1
70
1
0
VERTEX
8
RASTER
10
140.088
20
81.637
30
0
0
VERTEX
8
RASTER
10
140.218
20
81.647
30
0
0
VERTEX
8
RASTER
10
140.362
20
81.592
30
0
0
VERTEX
8
RASTER
10
140.516
20
81.477
30
0
0
VERTEX
8
RASTER
10
140.674
20
81.309
30
0
0
VERTEX
8
RASTER
10
140.833
20
81.094
30
0
0
VERTEX
8
RASTER
10
140.988
20
80.836
30
0
0
VERTEX
8
RASTER
10
141.133
20
80.542
30
0
0
VERTEX
8
RASTER
10
141.265
20
80.218
30
0
0
VERTEX
8
RASTER
10
141.373
20
79.885
30
0
0
VERTEX
8
RASTER
10
141.45
20
79.566
30
0
0
VERTEX
8
RASTER
10
141.497
20
79.27
30
0
0
VERTEX
8
RASTER
10
141.514
20
79.002
30
0
0
VERTEX
8
RASTER
10
141.5
20
78.772
30
0
0
VERTEX
8
RASTER
10
141.456
20
78.585
30
0
0
VERTEX
8
RASTER
10
141.381
20
78.45
30
0
0
VERTEX
8
RASTER
10
141.276
20
78.375
30
0
0
VERTEX
8
RASTER
10
141.146
20
78.365
30
0
0
VERTEX
8
RASTER
10
141.003
20
78.42
30
0
0
VERTEX
8
RASTER
10
140.849
20
78.535
30
0
0
VERTEX
8
RASTER
10
140.69
20
78.702
30
0
0
VERTEX
8
RASTER
10
140.531
20
78.918
30
0
0
VERTEX
8
RASTER
10
140.376
20
79.176
30
0
0
VERTEX
8
RASTER
10
140.231
20
79.469
30
0
0
VERTEX
8
RASTER
10
140.1
20
79.794
30
0
0
VERTEX
8
RASTER
10
139.992
20
80.127
30
0
0
VERTEX
8
RASTER
10
139.914
20
80.446
30
0
0
VERTEX
8
RASTER
10
139.867
20
80.742
30
0
0
VERTEX
8
RASTER
10
139.85
20
81.009
30
0
0
VERTEX
8
RASTER
10
139.864
20
81.24
30
0
0
VERTEX
8
RASTER
10
139.908
20
81.426
30
0
0
VERTEX
8
RASTER
10
139.983
20
81.561
30
0
0
VERTEX
8
RASTER
10
140.088
20
81.637
30
0
0
SEQEND
8
RASTER
0
POLYLINE
8
RASTER
66
1
70
1
0
VERTEX
8
RASTER
10
143.534
20
81.336
30
0
0
VERTEX
8
RASTER
10
143.625
20
81.243
30
0
0
VERTEX
8
RASTER
10
143.675
20
81.097
30
0
0
VERTEX
8
RASTER
10
143.686
20
80.906
30
0
0
VERTEX
8
RASTER
10
143.659
20
80.676
30
0
0
VERTEX
8
RASTER
10
143.597
20
80.416
30
0
0
VERTEX
8
RASTER
10
143.499
20
80.132
30
0
0
VERTEX
8
RASTER
10
143.367
20
79.832
30
0
0
VERTEX
8
RASTER
10
143.203
20
79.522
30
0
0
VERTEX
8
RASTER
10
143.017
20
79.226
30
0
0
VERTEX
8
RASTER
10
142.823
20
78.962
30
0
0
VERTEX
8
RASTER
10
142.626
20
78.735
30
0
0
VERTEX
8
RASTER
10
142.432
20
78.55
30
0
0
VERTEX
8
RASTER
10
142.246
20
78.412
30
0
0
VERTEX
8
RASTER
10
142.075
20
78.326
30
0
0
VERTEX
8
RASTER
10
141.924
20
78.297
30
0
0
VERTEX
8
RASTER
10
141.798
20
78.329
30
0
0
VERTEX
8
RASTER
10
141.707
20
78.422
30
0
0
VERTEX
8
RASTER
10
141.657
20
78.568
30
0
0
VERTEX
8
RASTER
10
141.646
20
78.759
30
0
0
VERTEX
8
RASTER
10
141.673
20
78.988
30
0
0
VERTEX
8
RASTER
10
141.735
20
79.249
30
0
0
VERTEX
8
RASTER
10
141.833
20
79.533
30
0
0
VERTEX
8
RASTER
10
141.965
20
79.833
30
0
0
VERTEX
8
RASTER
10
142.129
20
80.142
30
0
0
VERTEX
8
RASTER
10
142.315
20
80.439
30
0
0
VERTEX
8
RASTER
10
142.509
20
80.703
30
0
0
VERTEX
8
RASTER
10
142.706
20
80.93
30
0
0
VERTEX
8
RASTER
10
142.9
20
81.115
30
0
0
VERTEX
8
RASTER
10
143.086
20
81.252
30
0
0
VERTEX
8
RASTER
10
143.257
20
81.338
30
0
0
VERTEX
8
RASTER
10
143.408
20
81.368
30
0
0
VERTEX
8
RASTER
10
143.534
20
81.336
30
0
0
SEQEND
8
RASTER
0
POLYLINE
8
RASTER
66
1
70
1
0
VERTEX
8
RASTER
10
145.518
20
78.503
30
0
0
VERTEX
8
RASTER
10
145.505
20
78.373
30
0
0
VERTEX
8
RASTER
10
145.425
20
78.241
30
0
0
VERTEX
8
RASTER
10
145.286
20
78.11
30
0
0
VERTEX
8
RASTER
10
145.093
20
77.983
30
0
0
VERTEX
8
RASTER
10
144.853
20
77.863
30
0
0
VERTEX
8
RASTER
10
144.573
20
77.756
30
0
0
VERTEX
8
RASTER
10
144.258
20
77.664
30
0
0
VERTEX
8
RASTER
10
143.916
20
77.591
30
0
0
VERTEX
8
RASTER
10
143.569
20
77.542
30
0
0
VERTEX
8
RASTER
10
143.242
20
77.521
30
0
0
VERTEX
8
RASTER
10
142.942
20
77.526
30
0
0
VERTEX
8
RASTER
10
142.675
20
77.556
30
0
0
VERTEX
8
RASTER
10
142.451
20
77.61
30
0
0
VERTEX
8
RASTER
10
142.275
20
77.686
30
0
0
VERTEX
8
RASTER
10
142.155
20
77.783
30
0
0
VERTEX
8
RASTER
10
142.099
20
77.9
30
0
0
VERTEX
8
RASTER
10
142.112
20
78.029
30
0
0
VERTEX
8
RASTER
10
142.191
20
78.161
30
0
0
VERTEX
8
RASTER
10
142.33
20
78.293
30
0
0
VERTEX
8
RASTER
10
142.523
20
78.42
30
0
0
VERTEX
8
RASTER
10
142.763
20
78.539
30
0
0
VERTEX
8
RASTER
10
143.044
20
78.646
30
0
0
VERTEX
8
RASTER
10
143.358
20
78.739
30
0
0
VERTEX
8
RASTER
10
143.701
20
78.812
30
0
0
VERTEX
8
RASTER
10
144.047
20
78.86
30
0
0
VERTEX
8
RASTER
10
144.374
20
78.881
30
0
0
VERTEX
8
RASTER
10
144.675
20
78.876
30
0
0
VERTEX
8
RASTER
10
144.941
20
78.846
30
0
0
VERTEX
8
RASTER
10
145.166
20
78.792
30
0
0
VERTEX
8
RASTER
10
145.342
20
78.717
30
0
0
VERTEX
8
RASTER
10
145.461
20
78.619
30
0
0
VERTEX
8
RASTER
10
145.518
20
78.503
30
0
0
SEQEND
8
RASTER
0
POLYLINE
8
RASTER
66
1
70
1
0
VERTEX
8
RASTER
10
144.623
20
75.162
30
0
0
VERTEX
8
RASTER
10
144.515
20
75.089
30
0
0
VERTEX
8
RASTER
10
144.363
20
75.065
30
0
0
VERTEX
8
RASTER
10
144.173
20
75.087
30
0
0
VERTEX
8
RASTER
10
143.951
20
75.153
30
0
0
VERTEX
8
RASTER
10
143.706
20
75.26
30
0
0
VERTEX
8
RASTER
10
143.443
20
75.406
30
0
0
VERTEX
8
RASTER
10
143.17
20
75.587
30
0
0
VERTEX
8
RASTER
10
142.894
20
75.803
30
0
0
VERTEX
8
RASTER
10
142.634
20
76.037
30
0
0
VERTEX
8
RASTER
10
142.408
20
76.274
30
0
0
VERTEX
8
RASTER
10
142.219
20
76.508
30
0
0
VERTEX
8
RASTER
10
142.071
20
76.731
30
0
0
VERTEX
8
RASTER
10
141.967
20
76.937
30
0
0
VERTEX
8
RASTER
10
141.912
20
77.121
30
0
0
VERTEX
8
RASTER
10
141.91
20
77.275
30
0
0
VERTEX
8
RASTER
10
141.963
20
77.393
30
0
0
VERTEX
8
RASTER
10
142.07
20
77.467
30
0
0
VERTEX
8
RASTER
10
142.223
20
77.491
30
0
0
VERTEX
8
RASTER
10
142.413
20
77.468
30
0
0
VERTEX
8
RASTER
10
142.634
20
77.402
30
0
0
VERTEX
8
RASTER
10
142.88
20
77.295
30
0
0
VERTEX
8
RASTER
10
143.142
20
77.15
30
0
0
VERTEX
8
RASTER
10
143.415
20
76.968
30
0
0
VERTEX
8
RASTER
10
143.691
20
76.753
30
0
0
VERTEX
8
RASTER
10
143.951
20
76.518
30
0
0
VERTEX
8
RASTER
10
144.178
20
76.281
30
0
0
VERTEX
8
RASTER
10
144.367
20
76.048
30
0
0
VERTEX
8
RASTER
10
144.515
20
75.824
30
0
0
VERTEX
8
RASTER
10
144.618
20
75.618
30
0
0
VERTEX
8
RASTER
10
144.673
20
75.434
30
0
0
VERTEX
8
RASTER
10
144.676
20
75.28
30
0
0
VERTEX
8
RASTER
10
144.623
20
75.162
30
0
0
SEQEND
8
RASTER
0
POLYLINE
8
CUT
66
1
70
1
0
VERTEX
8
CUT
10
193.6
20
83.4
30
0
0
VERTEX
8
CUT
10
193.647
20
84.103
30
0
0
VERTEX
8
CUT
10
193.788
20
84.713
30
0
0
VERTEX
8
CUT
10
194.022
20
85.228
30
0
0
VERTEX
8
CUT
10
194.35
20
85.65
30
0
0
VERTEX
8
CUT
10
194.772
20
85.978
30
0
0
VERTEX
8
CUT
10
195.288
20
86.213
30
0
0
VERTEX
8
CUT
10
195.897
20
86.353
30
0
0
VERTEX
8
CUT
10
196.6
20
86.4
30
0
0
VERTEX
8
CUT
10
201.55
20
86.4
30
0
0
VERTEX
8
CUT
10
201.55
20
81.9
30
0
0
VERTEX
8
CUT
10
204.85
20
81.9
30
0
0
VERTEX
8
CUT
10
204.85
20
86.4
30
0
0
VERTEX
8
CUT
10
221.55
20
86.4
30
0
0
VERTEX
8
CUT
10
221.55
20
81.9
30
0
0
VERTEX
8
CUT
10
224.85
20
81.9
30
0
0
VERTEX
8
CUT
10
224.85
20
86.4
30
0
0
VERTEX
8
CUT
10
229.8
20
86.4
30
0
0
VERTEX
8
CUT
10
230.503
20
86.353
30
0
0
VERTEX
8
CUT
10
231.112
20
86.213
30
0
0
VERTEX
8
CUT
10
231.628
20
85.978
30
0
0
VERTEX
8
CUT
10
232.05
20
85.65
30
0
0
VERTEX
8
CUT
10
232.378
20
85.228
30
0
0
VERTEX
8
CUT
10
232.612
20
84.713
30
0
0
VERTEX
8
CUT
10
232.753
20
84.103
30
0
0
VERTEX
8
CUT
10
232.8
20
83.4
30
0
0
VERTEX
8
CUT
10
232.8
20
78.45
30
0
0
VERTEX
8
CUT
10
228.3
20
78.45
30
0
0
VERTEX
8
CUT
10
228.3
20
75.15
30
0
0
VERTEX
8
CUT
10
232.8
20
75.15
30
0
0
VERTEX
8
CUT
10
232.8
20
58.45
30
0
0
VERTEX
8
CUT
10
228.3
20
58.45
30
0
0
VERTEX
8
CUT
10
228.3
20
55.15
30
0
0
VERTEX
8
CUT
10
232.8
20
55.15
30
0
0
VERTEX
8
CUT
10
232.8
20
50.2
30
0
0
VERTEX
8
CUT
10
232.753
20
49.497
30
0
0
VERTEX
8
CUT
10
232.612
20
48.888
30
0
0
VERTEX
8
CUT
10
232.378
20
48.372
30
0
0
VERTEX
8
CUT
10
232.05
20
47.95
30
0
0
VERTEX
8
CUT
10
231.628
20
47.622
30
0
0
VERTEX
8
CUT
10
231.112
20
47.388
30
0
0
VERTEX
8
CUT
10
230.503
20
47.247
30
0
0
VERTEX
8
CUT
10
229.8
20
47.2
30
0
0
VERTEX
8
CUT
10
224.85
20
47.2
30
0
0
VERTEX
8
CUT
10
224.85
20
51.7
30
0
0
VERTEX
8
CUT
10
221.55
20
51.7
30
0
0
VERTEX
8
CUT
10
221.55
20
47.2
30
0
0
VERTEX
8
CUT
10
204.85
20
47.2
30
0
0
VERTEX
8
CUT
10
204.85
20
51.7
30
0
0
VERTEX
8
CUT
10
201.55
20
51.7
30
0
0
VERTEX
8
CUT
10
201.55
20
47.2
30
0
0
VERTEX
8
CUT
10
196.6
20
47.2
30
0
0
VERTEX
8
CUT
10
195.897
20
47.247
30
0
0
VERTEX
8
CUT
10
195.288
20
47.388
30
0
0
VERTEX
8
CUT
10
194.772
20
47.622
30
0
0
VERTEX
8
CUT
10
194.35
20
47.95
30
0
0
VERTEX
8
CUT
10
194.022
20
48.372
30
0
0
VERTEX
8
CUT
10
193.788
20
48.888
30
0
0
VERTEX
8
CUT
10
193.647
20
49.497
30
0
0
VERTEX
8
CUT
10
193.6
20
50.2
30
0
0
SEQEND
8
CUT
0
POLYLINE
8
RASTER
66
1
70
1
0
VERTEX
8
RASTER
10
195.2
20
82.8
30
0
0
VERTEX
8
RASTER
10
195.231
20
83.269
30
0
0
VERTEX
8
RASTER
10
195.325
20
83.675
30
0
0
VERTEX
8
RASTER
10
195.481
20
84.019
30
0
0
VERTEX
8
RASTER
10
195.7
20
84.3
30
0
0
VERTEX
8
RASTER
10
195.981
20
84.519
30
0
0
VERTEX
8
RASTER
10
196.325
20
84.675
30
0
0
VERTEX
8
RASTER
10
196.731
20
84.769
30
0
0
VERTEX
8
RASTER
10
197.2
20
84.8
30
0
0
VERTEX
8
RASTER
10
229.2
20
84.8
30
0
0
VERTEX
8
RASTER
10
229.669
20
84.769
30
0
0
VERTEX
8
RASTER
10
230.075
20
84.675
30
0
0
VERTEX
8
RASTER
10
230.419
20
84.519
30
0
0
VERTEX
8
RASTER
10
230.7
20
84.3
30
0
0
VERTEX
8
RASTER
10
230.919
20
84.019
30
0
0
VERTEX
8
RASTER
10
231.075
20
83.675
30
0
0
VERTEX
8
RASTER
10
231.169
20
83.269
30
0
0
VERTEX
8
RASTER
10
231.2
20
82.8
30
0
0
VERTEX
8
RASTER
10
231.2
20
50.8
30
0
0
VERTEX
8
RASTER
10
231.169
20
50.331
30
0
0
VERTEX
8
RASTER
10
231.075
20
49.925
30
0
0
VERTEX
8
RASTER
10
230.919
20
49.581
30
0
0
VERTEX
8
RASTER
10
230.7
20
49.3
30
0
0
VERTEX
8
RASTER
10
230.419
20
49.081
30
0
0
VERTEX
8
RASTER
10
230.075
20
48.925
30
0
0
VERTEX
8
RASTER
10
229.669
20
48.831
30
0
0
VERTEX
8
RASTER
10
229.2
20
48.8
30
0
0
VERTEX
8
RASTER
10
197.2
20
48.8
30
0
0
VERTEX
8
RASTER
10
196.731
20
48.831
30
0
0
VERTEX
8
RASTER
10
196.325
20
48.925
30
0
0
VERTEX
8
RASTER
10
195.981
20
49.081
30
0
0
VERTEX
8
RASTER
10
195.7
20
49.3
30
0
0
VERTEX
8
RASTER
10
195.481
20
49.581
30
0
0
VERTEX
8
RASTER
10
195.325
20
49.925
30
0
0
VERTEX
8
RASTER
10
195.231
20
50.331
30
0
0
VERTEX
8
RASTER
10
195.2
20
50.8
30
0
0
SEQEND
8
RASTER
0
POLYLINE
8
RASTER
66
1
70
1
0
VERTEX
8
RASTER
10
196.2
20
82.6
30
0
0
VERTEX
8
RASTER
10
196.2
20
51
30
0
0
VERTEX
8
RASTER
10
196.219
20
50.719
30
0
0
VERTEX
8
RASTER
10
196.275
20
50.475
30
0
0
VERTEX
8
RASTER
10
196.369
20
50.269
30
0
0
VERTEX
8
RASTER
10
196.5
20
50.1
30
0
0
VERTEX
8
RASTER
10
196.669
20
49.969
30
0
0
VERTEX
8
RASTER
10
196.875
20
49.875
30
0
0
VERTEX
8
RASTER
10
197.119
20
49.819
30
0
0
VERTEX
8
RASTER
10
197.4
20
49.8
30
0
0
VERTEX
8
RASTER
10
229
20
49.8
30
0
0
VERTEX
8
RASTER
10
229.281
20
49.819
30
0
0
VERTEX
8
RASTER
10
229.525
20
49.875
30
0
0
VERTEX
8
RASTER
10
229.731
20
49.969
30
0
0
VERTEX
8
RASTER
10
229.9
20
50.1
30
0
0
VERTEX
8
RASTER
10
230.031
20
50.269
30
0
0
VERTEX
8
RASTER
10
230.125
20
50.475
30
0
0
VERTEX
8
RASTER
10
230.181
20
50.719
30
0
0
VERTEX
8
RASTER
10
230.2
20
51
30
0
0
VERTEX
8
RASTER
10
230.2
20
82.6
30
0
0
VERTEX
8
RASTER
10
230.181
20
82.881
30
0
0
VERTEX
8
RASTER
10
230.125
20
83.125
30
0
0
VERTEX
8
RASTER
10
230.031
20
83.331
30
0
0
VERTEX
8
RASTER
10
229.9
20
83.5
30
0
0
VERTEX
8
RASTER
10
229.731
20
83.631
30
0
0
VERTEX
8
RASTER
10
229.525
20
83.725
30
0
0
VERTEX
8
RASTER
10
229.281
20
83.781
30
0
0
VERTEX
8
RASTER
10
229
20
83.8
30
0
0
VERTEX
8
RASTER
10
197.4
20
83.8
30
0
0
VERTEX
8
RASTER
10
197.119
20
83.781
30
0
0
VERTEX
8
RASTER
10
196.875
20
83.725
30
0
0
VERTEX
8
RASTER
10
196.669
20
83.631
30
0
0
VERTEX
8
RASTER
10
196.5
20
83.5
30
0
0
VERTEX
8
RASTER
10
196.369
20
83.331
30
0
0
VERTEX
8
RASTER
10
196.275
20
83.125
30
0
0
VERTEX
8
RASTER
10
196.219
20
82.881
30
0
0
VERTEX
8
RASTER
10
196.2
20
82.6
30
0
0
SEQEND
8
RASTER
0
POLYLINE
8
RASTER
66
1
70
1
0
VERTEX
8
RASTER
10
202.456
20
71.096
30
0
0
VERTEX
8
RASTER
10
202.561
20
71.85
30
0
0
VERTEX
8
RASTER
10
202.692
20
72.619
30
0
0
VERTEX
8
RASTER
10
202.853
20
73.393
30
0
0
VERTEX
8
RASTER
10
203.045
20
74.165
30
0
0
VERTEX
8
RASTER
10
203.272
20
74.925
30
0
0
VERTEX
8
RASTER
10
203.537
20
75.665
30
0
0
VERTEX
8
RASTER
10
203.843
20
76.375
30
0
0
VERTEX
8
RASTER
10
204.192
20
77.048
30
0
0
VERTEX
8
RASTER
10
204.812
20
76.8
30
0
0
VERTEX
8
RASTER
10
204.509
20
76.138
30
0
0
VERTEX
8
RASTER
10
204.25
20
75.455
30
0
0
VERTEX
8
RASTER
10
204.032
20
74.755
30
0
0
VERTEX
8
RASTER
10
203.851
20
74.041
30
0
0
VERTEX
8
RASTER
10
203.705
20
73.315
30
0
0
VERTEX
8
RASTER
10
203.591
20
72.58
30
0
0
VERTEX
8
RASTER
10
203.507
20
71.84
30
0
0
VERTEX
8
RASTER
10
203.448
20
71.096
30
0
0
SEQEND
8
RASTER
0
CIRCLE
8
RASTER
10
204.688
20
77.792
30
0
40
0.496
0
POLYLINE
8
RASTER
66
1
70
1
0
VERTEX
8
RASTER
10
200.843
20
79.192
30
0
0
VERTEX
8
RASTER
10
200.919
20
79.297
30
0
0
VERTEX
8
RASTER
10
201.054
20
79.372
30
0
0
VERTEX
8
RASTER
10
201.24
20
79.416
30
0
0
VERTEX
8
RASTER
10
201.471
20
79.43
30
0
0
VERTEX
8
RASTER
10
201.738
20
79.413
30
0
0
VERTEX
8
RASTER
10
202.034
20
79.366
30
0
0
VERTEX
8
RASTER
10
202.353
20
79.288
30
0
0
VERTEX
8
RASTER
10
202.686
20
79.18
30
0
0
VERTEX
8
RASTER
10
203.011
20
79.049
30
0
0
VERTEX
8
RASTER
10
203.304
20
78.904
30
0
0
VERTEX
8
RASTER
10
203.562
20
78.749
30
0
0
VERTEX
8
RASTER
10
203.778
20
78.59
30
0
0
VERTEX
8
RASTER
10
203.945
20
78.431
30
0
0
VERTEX
8
RASTER
10
204.06
20
78.277
30
0
0
VERTEX
8
RASTER
10
204.115
20
78.134
30
0
0
VERTEX
8
RASTER
10
204.105
20
78.004
30
0
0
VERTEX
8
RASTER
10
204.03
20
77.899
30
0
0
VERTEX
8
RASTER
10
203.895
20
77.824
30
0
0
VERTEX
8
RASTER
10
203.708
20
77.78
30
0
0
VERTEX
8
RASTER
10
203.478
20
77.766
30
0
0
VERTEX
8
RASTER
10
203.21
20
77.783
30
0
0
VERTEX
8
RASTER
10
202.914
20
77.83
30
0
0
VERTEX
8
RASTER
10
202.595
20
77.907
30
0
0
VERTEX
8
RASTER
10
202.262
20
78.015
30
0
0
VERTEX
8
RASTER
10
201.938
20
78.147
30
0
0
VERTEX
8
RASTER
10
201.644
20
78.292
30
0
0
VERTEX
8
RASTER
10
201.386
20
78.447
30
0
0
VERTEX
8
RASTER
10
201.171
20
78.606
30
0
0
VERTEX
8
RASTER
10
201.003
20
78.764
30
0
0
VERTEX
8
RASTER
10
200.888
20
78.918
30
0
0
VERTEX
8
RASTER
10
200.833
20
79.062
30
0
0
VERTEX
8
RASTER
10
200.843
20
79.192
30
0
0
SEQEND
8
RASTER
0
POLYLINE
8
RASTER
66
1
70
1
0
VERTEX
8
RASTER
10
203.288
20
81.637
30
0
0
VERTEX
8
RASTER
10
203.418
20
81.647
30
0
0
VERTEX
8
RASTER
10
203.562
20
81.592
30
0
0
VERTEX
8
RASTER
10
203.716
20
81.477
30
0
0
VERTEX
8
RASTER
10
203.874
20
81.309
30
0
0
VERTEX
8
RASTER
10
204.033
20
81.094
30
0
0
VERTEX
8
RASTER
10
204.188
20
80.836
30
0
0
VERTEX
8
RASTER
10
204.333
20
80.542
30
0
0
VERTEX
8
RASTER
10
204.465
20
80.218
30
0
0
VERTEX
8
RASTER
10
204.573
20
79.885
30
0
0
VERTEX
8
RASTER
10
204.65
20
79.566
30
0
0
VERTEX
8
RASTER
10
204.697
20
79.27
30
0
0
VERTEX
8
RASTER
10
204.714
20
79.002
30
0
0
VERTEX
8
RASTER
10
204.7
20
78.772
30
0
0
VERTEX
8
RASTER
10
204.656
20
78.585
30
0
0
VERTEX
8
RASTER
10
204.581
20
78.45
30
0
0
VERTEX
8
RASTER
10
204.476
20
78.375
30
0
0
VERTEX
8
RASTER
10
204.346
20
78.365
30
0
0
VERTEX
8
RASTER
10
204.203
20
78.42
30
0
0
VERTEX
8
RASTER
10
204.049
20
78.535
30
0
0
VERTEX
8
RASTER
10
203.89
20
78.702
30
0
0
VERTEX
8
RASTER
10
203.731
20
78.918
30
0
0
VERTEX
8
RASTER
10
203.576
20
79.176
30
0
0
VERTEX
8
RASTER
10
203.431
20
79.469
30
0
0
VERTEX
8
RASTER
10
203.3
20
79.794
30
0
0
VERTEX
8
RASTER
10
203.192
20
80.127
30
0
0
VERTEX
8
RASTER
10
203.114
20
80.446
30
0
0
VERTEX
8
RASTER
10
203.067
20
80.742
30
0
0
VERTEX
8
RASTER
10
203.05
20
81.009
30
0
0
VERTEX
8
RASTER
10
203.064
20
81.24
30
0
0
VERTEX
8
RASTER
10
203.108
20
81.426
30
0
0
VERTEX
8
RASTER
10
203.183
20
81.561
30
0
0
VERTEX
8
RASTER
10
203.288
20
81.637
30
0
0
SEQEND
8
RASTER
0
POLYLINE
8
RASTER
66
1
70
1
0
VERTEX
8
RASTER
10
206.734
20
81.336
30
0
0
VERTEX
8
RASTER
10
206.825
20
81.243
30
0
0
VERTEX
8
RASTER
10
206.875
20
81.097
30
0
0
VERTEX
8
RASTER
10
206.886
20
80.906
30
0
0
VERTEX
8
RASTER
10
206.859
20
80.676
30
0
0
VERTEX
8
RASTER
10
206.797
20
80.416
30
0
0
VERTEX
8
RASTER
10
206.699
20
80.132
30
0
0
VERTEX
8
RASTER
10
206.567
20
79.832
30
0
0
VERTEX
8
RASTER
10
206.403
20
79.522
30
0
0
VERTEX
8
RASTER
10
206.217
20
79.226
30
0
0
VERTEX
8
RASTER
10
206.023
20
78.962
30
0
0
VERTEX
8
RASTER
10
205.826
20
78.735
30
0
0
VERTEX
8
RASTER
10
205.632
20
78.55
30
0
0
VERTEX
8
RASTER
10
205.446
20
78.412
30
0
0
VERTEX
8
RASTER
10
205.275
20
78.326
30
0
0
VERTEX
8
RASTER
10
205.124
20
78.297
30
0
0
VERTEX
8
RASTER
10
204.998
20
78.329
30
0
0
VERTEX
8
RASTER
10
204.907
20
78.422
30
0
0
VERTEX
8
RASTER
10
204.857
20
78.568
30
0
0
VERTEX
8
RASTER
10
204.846
20
78.759
30
0
0
VERTEX
8
RASTER
10
204.873
20
78.988
30
0
0
VERTEX
8
RASTER
10
204.935
20
79.249
30
0
0
VERTEX
8
RASTER
10
205.033
20
79.533
30
0
0
VERTEX
8
RASTER
10
205.165
20
79.833
30
0
0
VERTEX
8
RASTER
10
205.329
20
80.142
30
0
0
VERTEX
8
RASTER
10
205.515
20
80.439
30
0
0
VERTEX
8
RASTER
10
205.709
20
80.703
30
0
0
VERTEX
8
RASTER
10
205.906
20
80.93
30
0
0
VERTEX
8
RASTER
10
206.1
20
81.115
30
0
0
VERTEX
8
RASTER
10
206.286
20
81.252
30
0
0
VERTEX
8
RASTER
10
206.457
20
81.338
30
0
0
VERTEX
8
RASTER
10
206.608
20
81.368
30
0
0
VERTEX
8
RASTER
10
206.734
20
81.336
30
0
0
SEQEND
8
RASTER
0
POLYLINE
8
RASTER
66
1
70
1
0
VERTEX
8
RASTER
10
208.718
20
78.503
30
0
0
VERTEX
8
RASTER
10
208.705
20
78.373
30
0
0
VERTEX
8
RASTER
10
208.625
20
78.241
30
0
0
VERTEX
8
RASTER
10
208.486
20
78.11
30
0
0
VERTEX
8
RASTER
10
208.293
20
77.983
30
0
0
VERTEX
8
RASTER
10
208.053
20
77.863
30
0
0
VERTEX
8
RASTER
10
207.773
20
77.756
30
0
0
VERTEX
8
RASTER
10
207.458
20
77.664
30
0
0
VERTEX
8
RASTER
10
207.116
20
77.591
30
0
0
VERTEX
8
RASTER
10
206.769
20
77.542
30
0
0
VERTEX
8
RASTER
10
206.442
20
77.521
30
0
0
VERTEX
8
RASTER
10
206.142
20
77.526
30
0
0
VERTEX
8
RASTER
10
205.875
20
77.556
30
0
0
VERTEX
8
RASTER
10
205.651
20
77.61
30
0
0
VERTEX
8
RASTER
10
205.475
20
77.686
30
0
0
VERTEX
8
RASTER
10
205.355
20
77.783
30
0
0
VERTEX
8
RASTER
10
205.299
20
77.9
30
0
0
VERTEX
8
RASTER
10
205.312
20
78.029
30
0
0
VERTEX
8
RASTER
10
205.391
20
78.161
30
0
0
VERTEX
8
RASTER
10
205.53
20
78.293
30
0
0
VERTEX
8
RASTER
10
205.723
20
78.42
30
0
0
VERTEX
8
RASTER
10
205.963
20
78.539
30
0
0
VERTEX
8
RASTER
10
206.244
20
78.646
30
0
0
VERTEX
8
RASTER
10
206.558
20
78.739
30
0
0
VERTEX
8
RASTER
10
206.901
20
78.812
30
0
0
VERTEX
8
RASTER
10
207.247
20
78.86
30
0
0
VERTEX
8
RASTER
10
207.574
20
78.881
30
0
0
VERTEX
8
RASTER
10
207.875
20
78.876
30
0
0
VERTEX
8
RASTER
10
208.141
20
78.846
30
0
0
VERTEX
8
RASTER
10
208.366
20
78.792
30
0
0
VERTEX
8
RASTER
10
208.542
20
78.717
30
0
0
VERTEX
8
RASTER
10
208.661
20
78.619
30
0
0
VERTEX
8
RASTER
10
208.718
20
78.503
30
0
0
SEQEND
8
RASTER
0
POLYLINE
8
RASTER
66
1
70
1
0
VERTEX
8
RASTER
10
207.823
20
75.162
30
0
0
VERTEX
8
RASTER
10
207.715
20
75.089
30
0
0
VERTEX
8
RASTER
10
207.563
20
75.065
30
0
0
VERTEX
8
RASTER
10
207.373
20
75.087
30
0
0
VERTEX
8
RASTER
10
207.151
20
75.153
30
0
0
VERTEX
8
RASTER
10
206.906
20
75.26
30
0
0
VERTEX
8
RASTER
10
206.643
20
75.406
30
0
0
VERTEX
8
RASTER
10
206.37
20
75.587
30
0
0
VERTEX
8
RASTER
10
206.094
20
75.803
30
0
0
VERTEX
8
RASTER
10
205.834
20
76.037
30
0
0
VERTEX
8
RASTER
10
205.608
20
76.274
30
0
0
VERTEX
8
RASTER
10
205.419
20
76.508
30
0
0
VERTEX
8
RASTER
10
205.271
20
76.731
30
0
0
VERTEX
8
RASTER
10
205.167
20
76.937
30
0
0
VERTEX
8
RASTER
10
205.112
20
77.121
30
0
0
VERTEX
8
RASTER
10
205.11
20
77.275
30
0
0
VERTEX
8
RASTER
10
205.163
20
77.393
30
0
0
VERTEX
8
RASTER
10
205.27
20
77.467
30
0
0
VERTEX
8
RASTER
10
205.423
20
77.491
30
0
0
VERTEX
8
RASTER
10
205.613
20
77.468
30
0
0
VERTEX
8
RASTER
10
205.834
20
77.402
30
0
0
VERTEX
8
RASTER
10
206.08
20
77.295
30
0
0
VERTEX
8
RASTER
10
206.342
20
77.15
30
0
0
VERTEX
8
RASTER
10
206.615
20
76.968
30
0
0
VERTEX
8
RASTER
10
206.891
20
76.753
30
0
0
VERTEX
8
RASTER
10
207.151
20
76.518
30
0
0
VERTEX
8
RASTER
10
207.378
20
76.281
30
0
0
VERTEX
8
RASTER
10
207.567
20
76.048
30
0
0
VERTEX
8
RASTER
10
207.715
20
75.824
30
0
0
VERTEX
8
RASTER
10
207.818
20
75.618
30
0
0
VERTEX
8
RASTER
10
207.873
20
75.434
30
0
0
VERTEX
8
RASTER
10
207.876
20
75.28
30
0
0
VERTEX
8
RASTER
10
207.823
20
75.162
30
0
0
SEQEND
8
RASTER
0
POLYLINE
8
CUT
66
1
70
1
0
VERTEX
8
CUT
10
236.8
20
83.4
30
0
0
VERTEX
8
CUT
10
236.847
20
84.103
30
0
0
VERTEX
8
CUT
10
236.988
20
84.713
30
0
0
VERTEX
8
CUT
10
237.222
20
85.228
30
0
0
VERTEX
8
CUT
10
237.55
20
85.65
30
0
0
VERTEX
8
CUT
10
237.972
20
85.978
30
0
0
VERTEX
8
CUT
10
238.488
20
86.213
30
0
0
VERTEX
8
CUT
10
239.097
20
86.353
30
0
0
VERTEX
8
CUT
10
239.8
20
86.4
30
0
0
VERTEX
8
CUT
10
244.75
20
86.4
30
0
0
VERTEX
8
CUT
10
244.75
20
81.9
30
0
0
VERTEX
8
CUT
10
248.05
20
81.9
30
0
0
VERTEX
8
CUT
10
248.05
20
86.4
30
0
0
VERTEX
8
CUT
10
264.75
20
86.4
30
0
0
VERTEX
8
CUT
10
264.75
20
81.9
30
0
0
VERTEX
8
CUT
10
268.05
20
81.9
30
0
0
VERTEX
8
CUT
10
268.05
20
86.4
30
0
0
VERTEX
8
CUT
10
284.75
20
86.4
30
0
0
VERTEX
8
CUT
10
284.75
20
81.9
30
0
0
VERTEX
8
CUT
10
288.05
20
81.9
30
0
0
VERTEX
8
CUT
10
288.05
20
86.4
30
0
0
VERTEX
8
CUT
10
293
20
86.4
30
0
0
VERTEX
8
CUT
10
293.703
20
86.353
30
0
0
VERTEX
8
CUT
10
294.313
20
86.213
30
0
0
VERTEX
8
CUT
10
294.828
20
85.978
30
0
0
VERTEX
8
CUT
10
295.25
20
85.65
30
0
0
VERTEX
8
CUT
10
295.578
20
85.228
30
0
0
VERTEX
8
CUT
10
295.813
20
84.713
30
0
0
VERTEX
8
CUT
10
295.953
20
84.103
30
0
0
VERTEX
8
CUT
10
296
20
83.4
30
0
0
VERTEX
8
CUT
10
296
20
78.45
30
0
0
VERTEX
8
CUT
10
291.5
20
78.45
30
0
0
VERTEX
8
CUT
10
291.5
20
75.15
30
0
0
VERTEX
8
CUT
10
296
20
75.15
30
0
0
VERTEX
8
CUT
10
296
20
70.2
30
0
0
VERTEX
8
CUT
10
295.953
20
69.497
30
0
0
VERTEX
8
CUT
10
295.813
20
68.888
30
0
0
VERTEX
8
CUT
10
295.578
20
68.372
30
0
0
VERTEX
8
CUT
10
295.25
20
67.95
30
0
0
VERTEX
8
CUT
10
294.828
20
67.622
30
0
0
VERTEX
8
CUT
10
294.313
20
67.388
30
0
0
VERTEX
8
CUT
10
293.703
20
67.247
30
0
0
VERTEX
8
CUT
10
293
20
67.2
30
0
0
VERTEX
8
CUT
10
288.05
20
67.2
30
0
0
VERTEX
8
CUT
10
288.05
20
71.7
30
0
0
VERTEX
8
CUT
10
284.75
20
71.7
30
0
0
VERTEX
8
CUT
10
284.75
20
67.2
30
0
0
VERTEX
8
CUT
10
268.05
20
67.2
30
0
0
VERTEX
8
CUT
10
268.05
20
71.7
30
0
0
VERTEX
8
CUT
10
264.75
20
71.7
30
0
0
VERTEX
8
CUT
10
264.75
20
67.2
30
0
0
VERTEX
8
CUT
10
259
20
67.2
30
0
0
VERTEX
8
CUT
10
258.297
20
67.153
30
0
0
VERTEX
8
CUT
10
257.688
20
67.013
30
0
0
VERTEX
8
CUT
10
257.172
20
66.778
30
0
0
VERTEX
8
CUT
10
256.75
20
66.45
30
0
0
VERTEX
8
CUT
10
256.422
20
66.028
30
0
0
VERTEX
8
CUT
10
256.188
20
65.513
30
0
0
VERTEX
8
CUT
10
256.047
20
64.903
30
0
0
VERTEX
8
CUT
10
256
20
64.2
30
0
0
VERTEX
8
CUT
10
256
20
58.45
30
0
0
VERTEX
8
CUT
10
251.5
20
58.45
30
0
0
VERTEX
8
CUT
10
251.5
20
55.15
30
0
0
VERTEX
8
CUT
10
256
20
55.15
30
0
0
VERTEX
8
CUT
10
256
20
50.2
30
0
0
VERTEX
8
CUT
10
255.953
20
49.497
30
0
0
VERTEX
8
CUT
10
255.813
20
48.888
30
0
0
VERTEX
8
CUT
10
255.578
20
48.372
30
0
0
VERTEX
8
CUT
10
255.25
20
47.95
30
0
0
VERTEX
8
CUT
10
254.828
20
47.622
30
0
0
VERTEX
8
CUT
10
254.313
20
47.388
30
0
0
VERTEX
8
CUT
10
253.703
20
47.247
30
0
0
VERTEX
8
CUT
10
253
20
47.2
30
0
0
VERTEX
8
CUT
10
248.05
20
47.2
30
0
0
VERTEX
8
CUT
10
248.05
20
51.7
30
0
0
VERTEX
8
CUT
10
244.75
20
51.7
30
0
0
VERTEX
8
CUT
10
244.75
20
47.2
30
0
0
VERTEX
8
CUT
10
239.8
20
47.2
30
0
0
VERTEX
8
CUT
10
239.097
20
47.247
30
0
0
VERTEX
8
CUT
10
238.488
20
47.388
30
0
0
VERTEX
8
CUT
10
237.972
20
47.622
30
0
0
VERTEX
8
CUT
10
237.55
20
47.95
30
0
0
VERTEX
8
CUT
10
237.222
20
48.372
30
0
0
VERTEX
8
CUT
10
236.988
20
48.888
30
0
0
VERTEX
8
CUT
10
236.847
20
49.497
30
0
0
VERTEX
8
CUT
10
236.8
20
50.2
30
0
0
SEQEND
8
CUT
0
POLYLINE
8
RASTER
66
1
70
1
0
VERTEX
8
RASTER
10
238.4
20
82.8
30
0
0
VERTEX
8
RASTER
10
238.431
20
83.269
30
0
0
VERTEX
8
RASTER
10
238.525
20
83.675
30
0
0
VERTEX
8
RASTER
10
238.681
20
84.019
30
0
0
VERTEX
8
RASTER
10
238.9
20
84.3
30
0
0
VERTEX
8
RASTER
10
239.181
20
84.519
30
0
0
VERTEX
8
RASTER
10
239.525
20
84.675
30
0
0
VERTEX
8
RASTER
10
239.931
20
84.769
30
0
0
VERTEX
8
RASTER
10
240.4
20
84.8
30
0
0
VERTEX
8
RASTER
10
292.4
20
84.8
30
0
0
VERTEX
8
RASTER
10
292.869
20
84.769
30
0
0
VERTEX
8
RASTER
10
293.275
20
84.675
30
0
0
VERTEX
8
RASTER
10
293.619
20
84.519
30
0
0
VERTEX
8
RASTER
10
293.9
20
84.3
30
0
0
VERTEX
8
RASTER
10
294.119
20
84.019
30
0
0
VERTEX
8
RASTER
10
294.275
20
83.675
30
0
0
VERTEX
8
RASTER
10
294.369
20
83.269
30
0
0
VERTEX
8
RASTER
10
294.4
20
82.8
30
0
0
VERTEX
8
RASTER
10
294.4
20
70.8
30
0
0
VERTEX
8
RASTER
10
294.369
20
70.331
30
0
0
VERTEX
8
RASTER
10
294.275
20
69.925
30
0
0
VERTEX
8
RASTER
10
294.119
20
69.581
30
0
0
VERTEX
8
RASTER
10
293.9
20
69.3
30
0
0
VERTEX
8
RASTER
10
293.619
20
69.081
30
0
0
VERTEX
8
RASTER
10
293.275
20
68.925
30
0
0
VERTEX
8
RASTER
10
292.869
20
68.831
30
0
0
VERTEX
8
RASTER
10
292.4
20
68.8
30
0
0
VERTEX
8
RASTER
10
256.4
20
68.8
30
0
0
VERTEX
8
RASTER
10
255.931
20
68.769
30
0
0
VERTEX
8
RASTER
10
255.525
20
68.675
30
0
0
VERTEX
8
RASTER
10
255.181
20
68.519
30
0
0
VERTEX
8
RASTER
10
254.9
20
68.3
30
0
0
VERTEX
8
RASTER
10
254.681
20
68.019
30
0
0
VERTEX
8
RASTER
10
254.525
20
67.675
30
0
0
VERTEX
8
RASTER
10
254.431
20
67.269
30
0
0
VERTEX
8
RASTER
10
254.4
20
66.8
30
0
0
VERTEX
8
RASTER
10
254.4
20
50.8
30
0
0
VERTEX
8
RASTER
10
254.369
20
50.331
30
0
0
VERTEX
8
RASTER
10
254.275
20
49.925
30
0
0
VERTEX
8
RASTER
10
254.119
20
49.581
30
0
0
VERTEX
8
RASTER
10
253.9
20
49.3
30
0
0
VERTEX
8
RASTER
10
253.619
20
49.081
30
0
0
VERTEX
8
RASTER
10
253.275
20
48.925
30
0
0
VERTEX
8
RASTER
10
252.869
20
48.831
30
0
0
VERTEX
8
RASTER
10
252.4
20
48.8
30
0
0
VERTEX
8
RASTER
10
240.4
20
48.8
30
0
0
VERTEX
8
RASTER
10
239.931
20
48.831
30
0
0
VERTEX
8
RASTER
10
239.525
20
48.925
30
0
0
VERTEX
8
RASTER
10
239.181
20
49.081
30
0
0
VERTEX
8
RASTER
10
238.9
20
49.3
30
0
0
VERTEX
8
RASTER
10
238.681
20
49.581
30
0
0
VERTEX
8
RASTER
10
238.525
20
49.925
30
0
0
VERTEX
8
RASTER
10
238.431
20
50.331
30
0
0
VERTEX
8
RASTER
10
238.4
20
50.8
30
0
0
SEQEND
8
RASTER
0
POLYLINE
8
RASTER
66
1
70
1
0
VERTEX
8
RASTER
10
239.4
20
82.6
30
0
0
VERTEX
8
RASTER
10
239.4
20
51
30
0
0
VERTEX
8
RASTER
10
239.419
20
50.719
30
0
0
VERTEX
8
RASTER
10
239.475
20
50.475
30
0
0
VERTEX
8
RASTER
10
239.569
20
50.269
30
0
0
VERTEX
8
RASTER
10
239.7
20
50.1
30
0
0
VERTEX
8
RASTER
10
239.869
20
49.969
30
0
0
VERTEX
8
RASTER
10
240.075
20
49.875
30
0
0
VERTEX
8
RASTER
10
240.319
20
49.819
30
0
0
VERTEX
8
RASTER
10
240.6
20
49.8
30
0
0
VERTEX
8
RASTER
10
252.2
20
49.8
30
0
0
VERTEX
8
RASTER
10
252.481
20
49.819
30
0
0
VERTEX
8
RASTER
10
252.725
20
49.875
30
0
0
VERTEX
8
RASTER
10
252.931
20
49.969
30
0
0
VERTEX
8
RASTER
10
253.1
20
50.1
30
0
0
VERTEX
8
RASTER
10
253.231
20
50.269
30
0
0
VERTEX
8
RASTER
10
253.325
20
50.475
30
0
0
VERTEX
8
RASTER
10
253.381
20
50.719
30
0
0
VERTEX
8
RASTER
10
253.4
20
51
30
0
0
VERTEX
8
RASTER
10
253.4
20
68.6
30
0
0
VERTEX
8
RASTER
10
253.419
20
68.881
30
0
0
VERTEX
8
RASTER
10
253.475
20
69.125
30
0
0
VERTEX
8
RASTER
10
253.569
20
69.331
30
0
0
VERTEX
8
RASTER
10
253.7
20
69.5
30
0
0
VERTEX
8
RASTER
10
253.869
20
69.631
30
0
0
VERTEX
8
RASTER
10
254.075
20
69.725
30
0
0
VERTEX
8
RASTER
10
254.319
20
69.781
30
0
0
VERTEX
8
RASTER
10
254.6
20
69.8
30
0
0
VERTEX
8
RASTER
10
292.2
20
69.8
30
0
0
VERTEX
8
RASTER
10
292.481
20
69.819
30
0
0
VERTEX
8
RASTER
10
292.725
20
69.875
30
0
0
VERTEX
8
RASTER
10
292.931
20
69.969
30
0
0
VERTEX
8
RASTER
10
293.1
20
70.1
30
0
0
VERTEX
8
RASTER
10
293.231
20
70.269
30
0
0
VERTEX
8
RASTER
10
293.325
20
70.475
30
0
0
VERTEX
8
RASTER
10
293.381
20
70.719
30
0
0
VERTEX
8
RASTER
10
293.4
20
71
30
0
0
VERTEX
8
RASTER
10
293.4
20
82.6
30
0
0
VERTEX
8
RASTER
10
293.381
20
82.881
30
0
0
VERTEX
8
RASTER
10
293.325
20
83.125
30
0
0
VERTEX
8
RASTER
10
293.231
20
83.331
30
0
0
VERTEX
8
RASTER
10
293.1
20
83.5
30
0
0
VERTEX
8
RASTER
10
292.931
20
83.631
30
0
0
VERTEX
8
RASTER
10
292.725
20
83.725
30
0
0
VERTEX
8
RASTER
10
292.481
20
83.781
30
0
0
VERTEX
8
RASTER
10
292.2
20
83.8
30
0
0
VERTEX
8
RASTER
10
240.6
20
83.8
30
0
0
VERTEX
8
RASTER
10
240.319
20
83.781
30
0
0
VERTEX
8
RASTER
10
240.075
20
83.725
30
0
0
VERTEX
8
RASTER
10
239.869
20
83.631
30
0
0
VERTEX
8
RASTER
10
239.7
20
83.5
30
0
0
VERTEX
8
RASTER
10
239.569
20
83.331
30
0
0
VERTEX
8
RASTER
10
239.475
20
83.125
30
0
0
VERTEX
8
RASTER
10
239.419
20
82.881
30
0
0
VERTEX
8
RASTER
10
239.4
20
82.6
30
0
0
SEQEND
8
RASTER
0
POLYLINE
8
RASTER
66
1
70
1
0
VERTEX
8
RASTER
10
245.656
20
71.096
30
0
0
VERTEX
8
RASTER
10
245.761
20
71.85
30
0
0
VERTEX
8
RASTER
10
245.892
20
72.619
30
0
0
VERTEX
8
RASTER
10
246.053
20
73.393
30
0
0
VERTEX
8
RASTER
10
246.245
20
74.165
30
0
0
VERTEX
8
RASTER
10
246.472
20
74.925
30
0
0
VERTEX
8
RASTER
10
246.737
20
75.665
30
0
0
VERTEX
8
RASTER
10
247.043
20
76.375
30
0
0
VERTEX
8
RASTER
10
247.392
20
77.048
30
0
0
VERTEX
8
RASTER
10
248.012
20
76.8
30
0
0
VERTEX
8
RASTER
10
247.709
20
76.138
30
0
0
VERTEX
8
RASTER
10
247.45
20
75.455
30
0
0
VERTEX
8
RASTER
10
247.232
20
74.755
30
0
0
VERTEX
8
RASTER
10
247.051
20
74.041
30
0
0
VERTEX
8
RASTER
10
246.905
20
73.315
30
0
0
VERTEX
8
RASTER
10
246.791
20
72.58
30
0
0
VERTEX
8
RASTER
10
246.707
20
71.84
30
0
0
VERTEX
8
RASTER
10
246.648
20
71.096
30
0
0
SEQEND
8
RASTER
0
CIRCLE
8
RASTER
10
247.888
20
77.792
30
0
40
0.496
0
POLYLINE
8
RASTER
66
1
70
1
0
VERTEX
8
RASTER
10
244.043
20
79.192
30
0
0
VERTEX
8
RASTER
10
244.119
20
79.297
30
0
0
VERTEX
8
RASTER
10
244.254
20
79.372
30
0
0
VERTEX
8
RASTER
10
244.44
20
79.416
30
0
0
VERTEX
8
RASTER
10
244.671
20
79.43
30
0
0
VERTEX
8
RASTER
10
244.938
20
79.413
30
0
0
VERTEX
8
RASTER
10
245.234
20
79.366
30
0
0
VERTEX
8
RASTER
10
245.553
20
79.288
30
0
0
VERTEX
8
RASTER
10
245.886
20
79.18
30
0
0
VERTEX
8
RASTER
10
246.211
20
79.049
30
0
0
VERTEX
8
RASTER
10
246.504
20
78.904
30
0
0
VERTEX
8
RASTER
10
246.762
20
78.749
30
0
0
VERTEX
8
RASTER
10
246.978
20
78.59
30
0
0
VERTEX
8
RASTER
10
247.145
20
78.431
30
0
0
VERTEX
8
RASTER
10
247.26
20
78.277
30
0
0
VERTEX
8
RASTER
10
247.315
20
78.134
30
0
0
VERTEX
8
RASTER
10
247.305
20
78.004
30
0
0
VERTEX
8
RASTER
10
247.23
20
77.899
30
0
0
VERTEX
8
RASTER
10
247.095
20
77.824
30
0
0
VERTEX
8
RASTER
10
246.908
20
77.78
30
0
0
VERTEX
8
RASTER
10
246.678
20
77.766
30
0
0
VERTEX
8
RASTER
10
246.41
20
77.783
30
0
0
VERTEX
8
RASTER
10
246.114
20
77.83
30
0
0
VERTEX
8
RASTER
10
245.795
20
77.907
30
0
0
VERTEX
8
RASTER
10
245.462
20
78.015
30
0
0
VERTEX
8
RASTER
10
245.138
20
78.147
30
0
0
VERTEX
8
RASTER
10
244.844
20
78.292
30
0
0
VERTEX
8
RASTER
10
244.586
20
78.447
30
0
0
VERTEX
8
RASTER
10
244.371
20
78.606
30
0
0
VERTEX
8
RASTER
10
244.203
20
78.764
30
0
0
VERTEX
8
RASTER
10
244.088
20
78.918
30
0
0
VERTEX
8
RASTER
10
244.033
20
79.062
30
0
0
VERTEX
8
RASTER
10
244.043
20
79.192
30
0
0
SEQEND
8
RASTER
0
POLYLINE
8
RASTER
66
1
70
1
0
VERTEX
8
RASTER
10
246.488
20
81.637
30
0
0
VERTEX
8
RASTER
10
246.618
20
81.647
30
0
0
VERTEX
8
RASTER
10
246.762
20
81.592
30
0
0
VERTEX
8
RASTER
10
246.916
20
81.477
30
0
0
VERTEX
8
RASTER
10
247.074
20
81.309
30
0
0
VERTEX
8
RASTER
10
247.233
20
81.094
30
0
0
VERTEX
8
RASTER
10
247.388
20
80.836
30
0
0
VERTEX
8
RASTER
10
247.533
20
80.542
30
0
0
VERTEX
8
RASTER
10
247.665
20
80.218
30
0
0
VERTEX
8
RASTER
10
247.773
20
79.885
30
0
0
VERTEX
8
RASTER
10
247.85
20
79.566
30
0
0
VERTEX
8
RASTER
10
247.897
20
79.27
30
0
0
VERTEX
8
RASTER
10
247.914
20
79.002
30
0
0
VERTEX
8
RASTER
10
247.9
20
78.772
30
0
0
VERTEX
8
RASTER
10
247.856
20
78.585
30
0
0
VERTEX
8
RASTER
10
247.781
20
78.45
30
0
0
VERTEX
8
RASTER
10
247.676
20
78.375
30
0
0
VERTEX
8
RASTER
10
247.546
20
78.365
30
0
0
VERTEX
8
RASTER
10
247.403
20
78.42
30
0
0
VERTEX
8
RASTER
10
247.249
20
78.535
30
0
0
VERTEX
8
RASTER
10
247.09
20
78.702
30
0
0
VERTEX
8
RASTER
10
246.931
20
78.918
30
0
0
VERTEX
8
RASTER
10
246.776
20
79.176
30
0
0
VERTEX
8
RASTER
10
246.631
20
79.469
30
0
0
VERTEX
8
RASTER
10
246.5
20
79.794
30
0
0
VERTEX
8
RASTER
10
246.392
20
80.127
30
0
0
VERTEX
8
RASTER
10
246.314
20
80.446
30
0
0
VERTEX
8
RASTER
10
246.267
20
80.742
30
0
0
VERTEX
8
RASTER
10
246.25
20
81.009
30
0
0
VERTEX
8
RASTER
10
246.264
20
81.24
30
0
0
VERTEX
8
RASTER
10
246.308
20
81.426
30
0
0
VERTEX
8
RASTER
10
246.383
20
81.561
30
0
0
VERTEX
8
RASTER
10
246.488
20
81.637
30
0
0
SEQEND
8
RASTER
0
POLYLINE
8
RASTER
66
1
70
1
0
VERTEX
8
RASTER
10
249.934
20
81.336
30
0
0
VERTEX
8
RASTER
10
250.025
20
81.243
30
0
0
VERTEX
8
RASTER
10
250.075
20
81.097
30
0
0
VERTEX
8
RASTER
10
250.086
20
80.906
30
0
0
VERTEX
8
RASTER
10
250.059
20
80.676
30
0
0
VERTEX
8
RASTER
10
249.997
20
80.416
30
0
0
VERTEX
8
RASTER
10
249.899
20
80.132
30
0
0
VERTEX
8
RASTER
10
249.767
20
79.832
30
0
0
VERTEX
8
RASTER
10
249.603
20
79.522
30
0
0
VERTEX
8
RASTER
10
249.417
20
79.226
30
0
0
VERTEX
8
RASTER
10
249.223
20
78.962
30
0
0
VERTEX
8
RASTER
10
249.026
20
78.735
30
0
0
VERTEX
8
RASTER
10
248.832
20
78.55
30
0
0
VERTEX
8
RASTER
10
248.646
20
78.412
30
0
0
VERTEX
8
RASTER
10
248.475
20
78.326
30
0
0
VERTEX
8
RASTER
10
248.324
20
78.297
30
0
0
VERTEX
8
RASTER
10
248.198
20
78.329
30
0
0
VERTEX
8
RASTER
10
248.107
20
78.422
30
0
0
VERTEX
8
RASTER
10
248.057
20
78.568
30
0
0
VERTEX
8
RASTER
10
248.046
20
78.759
30
0
0
VERTEX
8
RASTER
10
248.073
20
78.988
30
0
0
VERTEX
8
RASTER
10
248.135
20
79.249
30
0
0
VERTEX
8
RASTER
10
248.233
20
79.533
30
0
0
VERTEX
8
RASTER
10
248.365
20
79.833
30
0
0
VERTEX
8
RASTER
10
248.529
20
80.142
30
0
0
VERTEX
8
RASTER
10
248.715
20
80.439
30
0
0
VERTEX
8
RASTER
10
248.909
20
80.703
30
0
0
VERTEX
8
RASTER
10
249.106
20
80.93
30
0
0
VERTEX
8
RASTER
10
249.3
20
81.115
30
0
0
VERTEX
8
RASTER
10
249.486
20
81.252
30
0
0
VERTEX
8
RASTER
10
249.657
20
81.338
30
0
0
VERTEX
8
RASTER
10
249.808
20
81.368
30
0
0
VERTEX
8
RASTER
10
249.934
20
81.336
30
0
0
SEQEND
8
RASTER
0
POLYLINE
8
RASTER
66
1
70
1
0
VERTEX
8
RASTER
10
251.918
20
78.503
30
0
0
VERTEX
8
RASTER
10
251.905
20
78.373
30
0
0
VERTEX
8
RASTER
10
251.825
20
78.241
30
0
0
VERTEX
8
RASTER
10
251.686
20
78.11
30
0
0
VERTEX
8
RASTER
10
251.493
20
77.983
30
0
0
VERTEX
8
RASTER
10
251.253
20
77.863
30
0
0
VERTEX
8
RASTER
10
250.973
20
77.756
30
0
0
VERTEX
8
RASTER
10
250.658
20
77.664
30
0
0
VERTEX
8
RASTER
10
250.316
20
77.591
30
0
0
VERTEX
8
RASTER
10
249.969
20
77.542
30
0
0
VERTEX
8
RASTER
10
249.642
20
77.521
30
0
0
VERTEX
8
RASTER
10
249.342
20
77.526
30
0
0
VERTEX
8
RASTER
10
249.075
20
77.556
30
0
0
VERTEX
8
RASTER
10
248.851
20
77.61
30
0
0
VERTEX
8
RASTER
10
248.675
20
77.686
30
0
0
VERTEX
8
RASTER
10
248.555
20
77.783
30
0
0
VERTEX
8
RASTER
10
248.499
20
77.9
30
0
0
VERTEX
8
RASTER
10
248.512
20
78.029
30
0
0
VERTEX
8
RASTER
10
248.591
20
78.161
30
0
0
VERTEX
8
RASTER
10
248.73
20
78.293
30
0
0
VERTEX
8
RASTER
10
248.923
20
78.42
30
0
0
VERTEX
8
RASTER
10
249.163
20
78.539
30
0
0
VERTEX
8
RASTER
10
249.444
20
78.646
30
0
0
VERTEX
8
RASTER
10
249.758
20
78.739
30
0
0
VERTEX
8
RASTER
10
250.101
20
78.812
30
0
0
VERTEX
8
RASTER
10
250.447
20
78.86
30
0
0
VERTEX
8
RASTER
10
250.774
20
78.881
30
0
0
VERTEX
8
RASTER
10
251.075
20
78.876
30
0
0
VERTEX
8
RASTER
10
251.341
20
78.846
30
0
0
VERTEX
8
RASTER
10
251.566
20
78.792
30
0
0
VERTEX
8
RASTER
10
251.742
20
78.717
30
0
0
VERTEX
8
RASTER
10
251.861
20
78.619
30
0
0
VERTEX
8
RASTER
10
251.918
20
78.503
30
0
0
SEQEND
8
RASTER
0
POLYLINE
8
RASTER
66
1
70
1
0
VERTEX
8
RASTER
10
251.023
20
75.162
30
0
0
VERTEX
8
RASTER
10
250.915
20
75.089
30
0
0
VERTEX
8
RASTER
10
250.763
20
75.065
30
0
0
VERTEX
8
RASTER
10
250.573
20
75.087
30
0
0
VERTEX
8
RASTER
10
250.351
20
75.153
30
0
0
VERTEX
8
RASTER
10
250.106
20
75.26
30
0
0
VERTEX
8
RASTER
10
249.843
20
75.406
30
0
0
VERTEX
8
RASTER
10
249.57
20
75.587
30
0
0
VERTEX
8
RASTER
10
249.294
20
75.803
30
0
0
VERTEX
8
RASTER
10
249.034
20
76.037
30
0
0
VERTEX
8
RASTER
10
248.808
20
76.274
30
0
0
VERTEX
8
RASTER
10
248.619
20
76.508
30
0
0
VERTEX
8
RASTER
10
248.471
20
76.731
30
0
0
VERTEX
8
RASTER
10
248.367
20
76.937
30
0
0
VERTEX
8
RASTER
10
248.312
20
77.121
30
0
0
VERTEX
8
RASTER
10
248.31
20
77.275
30
0
0
VERTEX
8
RASTER
10
248.363
20
77.393
30
0
0
VERTEX
8
RASTER
10
248.47
20
77.467
30
0
0
VERTEX
8
RASTER
10
248.623
20
77.491
30
0
0
VERTEX
8
RASTER
10
248.813
20
77.468
30
0
0
VERTEX
8
RASTER
10
249.034
20
77.402
30
0
0
VERTEX
8
RASTER
10
249.28
20
77.295
30
0
0
VERTEX
8
RASTER
10
249.542
20
77.15
30
0
0
VERTEX
8
RASTER
10
249.815
20
76.968
30
0
0
VERTEX
8
RASTER
10
250.091
20
76.753
30
0
0
VERTEX
8
RASTER
10
250.351
20
76.518
30
0
0
VERTEX
8
RASTER
10
250.578
20
76.281
30
0
0
VERTEX
8
RASTER
10
250.767
20
76.048
30
0
0
VERTEX
8
RASTER
10
250.915
20
75.824
30
0
0
VERTEX
8
RASTER
10
251.018
20
75.618
30
0
0
VERTEX
8
RASTER
10
251.073
20
75.434
30
0
0
VERTEX
8
RASTER
10
251.076
20
75.28
30
0
0
VERTEX
8
RASTER
10
251.023
20
75.162
30
0
0
SEQEND
8
RASTER
0
POLYLINE
8
CUT
66
1
70
1
0
VERTEX
8
CUT
10
4
20
40.2
30
0
0
VERTEX
8
CUT
10
4.047
20
40.903
30
0
0
VERTEX
8
CUT
10
4.188
20
41.513
30
0
0
VERTEX
8
CUT
10
4.422
20
42.028
30
0
0
VERTEX
8
CUT
10
4.75
20
42.45
30
0
0
VERTEX
8
CUT
10
5.172
20
42.778
30
0
0
VERTEX
8
CUT
10
5.688
20
43.013
30
0
0
VERTEX
8
CUT
10
6.297
20
43.153
30
0
0
VERTEX
8
CUT
10
7
20
43.2
30
0
0
VERTEX
8
CUT
10
11.95
20
43.2
30
0
0
VERTEX
8
CUT
10
11.95
20
38.7
30
0
0
VERTEX
8
CUT
10
15.25
20
38.7
30
0
0
VERTEX
8
CUT
10
15.25
20
43.2
30
0
0
VERTEX
8
CUT
10
31.95
20
43.2
30
0
0
VERTEX
8
CUT
10
31.95
20
38.7
30
0
0
VERTEX
8
CUT
10
35.25
20
38.7
30
0
0
VERTEX
8
CUT
10
35.25
20
43.2
30
0
0
VERTEX
8
CUT
10
40.2
20
43.2
30
0
0
VERTEX
8
CUT
10
40.903
20
43.153
30
0
0
VERTEX
8
CUT
10
41.513
20
43.013
30
0
0
VERTEX
8
CUT
10
42.028
20
42.778
30
0
0
VERTEX
8
CUT
10
42.45
20
42.45
30
0
0
VERTEX
8
CUT
10
42.778
20
42.028
30
0
0
VERTEX
8
CUT
10
43.013
20
41.513
30
0
0
VERTEX
8
CUT
10
43.153
20
40.903
30
0
0
VERTEX
8
CUT
10
43.2
20
40.2
30
0
0
VERTEX
8
CUT
10
43.2
20
35.25
30
0
0
VERTEX
8
CUT
10
38.7
20
35.25
30
0
0
VERTEX
8
CUT
10
38.7
20
31.95
30
0
0
VERTEX
8
CUT
10
43.2
20
31.95
30
0
0
VERTEX
8
CUT
10
43.2
20
26.2
30
0
0
VERTEX
8
CUT
10
43.247
20
25.497
30
0
0
VERTEX
8
CUT
10
43.388
20
24.888
30
0
0
VERTEX
8
CUT
10
43.622
20
24.372
30
0
0
VERTEX
8
CUT
10
43.95
20
23.95
30
0
0
VERTEX
8
CUT
10
44.372
20
23.622
30
0
0
VERTEX
8
CUT
10
44.888
20
23.388
30
0
0
VERTEX
8
CUT
10
45.497
20
23.247
30
0
0
VERTEX
8
CUT
10
46.2
20
23.2
30
0
0
VERTEX
8
CUT
10
51.95
20
23.2
30
0
0
VERTEX
8
CUT
10
51.95
20
18.7
30
0
0
VERTEX
8
CUT
10
55.25
20
18.7
30
0
0
VERTEX
8
CUT
10
55.25
20
23.2
30
0
0
VERTEX
8
CUT
10
60.2
20
23.2
30
0
0
VERTEX
8
CUT
10
60.903
20
23.153
30
0
0
VERTEX
8
CUT
10
61.513
20
23.013
30
0
0
VERTEX
8
CUT
10
62.028
20
22.778
30
0
0
VERTEX
8
CUT
10
62.45
20
22.45
30
0
0
VERTEX
8
CUT
10
62.778
20
22.028
30
0
0
VERTEX
8
CUT
10
63.013
20
21.513
30
0
0
VERTEX
8
CUT
10
63.153
20
20.903
30
0
0
VERTEX
8
CUT
10
63.2
20
20.2
30
0
0
VERTEX
8
CUT
10
63.2
20
15.25
30
0
0
VERTEX
8
CUT
10
58.7
20
15.25
30
0
0
VERTEX
8
CUT
10
58.7
20
11.95
30
0
0
VERTEX
8
CUT
10
63.2
20
11.95
30
0
0
VERTEX
8
CUT
10
63.2
20
7
30
0
0
VERTEX
8
CUT
10
63.153
20
6.297
30
0
0
VERTEX
8
CUT
10
63.013
20
5.688
30
0
0
VERTEX
8
CUT
10
62.778
20
5.172
30
0
0
VERTEX
8
CUT
10
62.45
20
4.75
30
0
0
VERTEX
8
CUT
10
62.028
20
4.422
30
0
0
VERTEX
8
CUT
10
61.513
20
4.188
30
0
0
VERTEX
8
CUT
10
60.903
20
4.047
30
0
0
VERTEX
8
CUT
10
60.2
20
4
30
0
0
VERTEX
8
CUT
10
55.25
20
4
30
0
0
VERTEX
8
CUT
10
55.25
20
8.5
30
0
0
VERTEX
8
CUT
10
51.95
20
8.5
30
0
0
VERTEX
8
CUT
10
51.95
20
4
30
0
0
VERTEX
8
CUT
10
35.25
20
4
30
0
0
VERTEX
8
CUT
10
35.25
20
8.5
30
0
0
VERTEX
8
CUT
10
31.95
20
8.5
30
0
0
VERTEX
8
CUT
10
31.95
20
4
30
0
0
VERTEX
8
CUT
10
27
20
4
30
0
0
VERTEX
8
CUT
10
26.297
20
4.047
30
0
0
VERTEX
8
CUT
10
25.688
20
4.188
30
0
0
VERTEX
8
CUT
10
25.172
20
4.422
30
0
0
VERTEX
8
CUT
10
24.75
20
4.75
30
0
0
VERTEX
8
CUT
10
24.422
20
5.172
30
0
0
VERTEX
8
CUT
10
24.188
20
5.688
30
0
0
VERTEX
8
CUT
10
24.047
20
6.297
30
0
0
VERTEX
8
CUT
10
24
20
7
30
0
0
VERTEX
8
CUT
10
24
20
11.95
30
0
0
VERTEX
8
CUT
10
28.5
20
11.95
30
0
0
VERTEX
8
CUT
10
28.5
20
15.25
30
0
0
VERTEX
8
CUT
10
24
20
15.25
30
0
0
VERTEX
8
CUT
10
24
20
21
30
0
0
VERTEX
8
CUT
10
23.953
20
21.703
30
0
0
VERTEX
8
CUT
10
23.813
20
22.313
30
0
0
VERTEX
8
CUT
10
23.578
20
22.828
30
0
0
VERTEX
8
CUT
10
23.25
20
23.25
30
0
0
VERTEX
8
CUT
10
22.828
20
23.578
30
0
0
VERTEX
8
CUT
10
22.313
20
23.813
30
0
0
VERTEX
8
CUT
10
21.703
20
23.953
30
0
0
VERTEX
8
CUT
10
21
20
24
30
0
0
VERTEX
8
CUT
10
15.25
20
24
30
0
0
VERTEX
8
CUT
10
15.25
20
28.5
30
0
0
VERTEX
8
CUT
10
11.95
20
28.5
30
0
0
VERTEX
8
CUT
10
11.95
20
24
30
0
0
VERTEX
8
CUT
10
7
20
24
30
0
0
VERTEX
8
CUT
10
6.297
20
24.047
30
0
0
VERTEX
8
CUT
10
5.688
20
24.188
30
0
0
VERTEX
8
CUT
10
5.172
20
24.422
30
0
0
VERTEX
8
CUT
10
4.75
20
24.75
30
0
0
VERTEX
8
CUT
10
4.422
20
25.172
30
0
0
VERTEX
8
CUT
10
4.188
20
25.688
30
0
0
VERTEX
8
CUT
10
4.047
20
26.297
30
0
0
VERTEX
8
CUT
10
4
20
27
30
0
0
SEQEND
8
CUT
0
POLYLINE
8
RASTER
66
1
70
1
0
VERTEX
8
RASTER
10
5.6
20
39.6
30
0
0
VERTEX
8
RASTER
10
5.631
20
40.069
30
0
0
VERTEX
8
RASTER
10
5.725
20
40.475
30
0
0
VERTEX
8
RASTER
10
5.881
20
40.819
30
0
0
VERTEX
8
RASTER
10
6.1
20
41.1
30
0
0
VERTEX
8
RASTER
10
6.381
20
41.319
30
0
0
VERTEX
8
RASTER
10
6.725
20
41.475
30
0
0
VERTEX
8
RASTER
10
7.131
20
41.569
30
0
0
VERTEX
8
RASTER
10
7.6
20
41.6
30
0
0
VERTEX
8
RASTER
10
39.6
20
41.6
30
0
0
VERTEX
8
RASTER
10
40.069
20
41.569
30
0
0
VERTEX
8
RASTER
10
40.475
20
41.475
30
0
0
VERTEX
8
RASTER
10
40.819
20
41.319
30
0
0
VERTEX
8
RASTER
10
41.1
20
41.1
30
0
0
VERTEX
8
RASTER
10
41.319
20
40.819
30
0
0
VERTEX
8
RASTER
10
41.475
20
40.475
30
0
0
VERTEX
8
RASTER
10
41.569
20
40.069
30
0
0
VERTEX
8
RASTER
10
41.6
20
39.6
30
0
0
VERTEX
8
RASTER
10
41.6
20
23.6
30
0
0
VERTEX
8
RASTER
10
41.631
20
23.131
30
0
0
VERTEX
8
RASTER
10
41.725
20
22.725
30
0
0
VERTEX
8
RASTER
10
41.881
20
22.381
30
0
0
VERTEX
8
RASTER
10
42.1
20
22.1
30
0
0
VERTEX
8
RASTER
10
42.381
20
21.881
30
0
0
VERTEX
8
RASTER
10
42.725
20
21.725
30
0
0
VERTEX
8
RASTER
10
43.131
20
21.631
30
0
0
VERTEX
8
RASTER
10
43.6
20
21.6
30
0
0
VERTEX
8
RASTER
10
59.6
20
21.6
30
0
0
VERTEX
8
RASTER
10
60.069
20
21.569
30
0
0
VERTEX
8
RASTER
10
60.475
20
21.475
30
0
0
VERTEX
8
RASTER
10
60.819
20
21.319
30
0
0
VERTEX
8
RASTER
10
61.1
20
21.1
30
0
0
VERTEX
8
RASTER
10
61.319
20
20.819
30
0
0
VERTEX
8
RASTER
10
61.475
20
20.475
30
0
0
VERTEX
8
RASTER
10
61.569
20
20.069
30
0
0
VERTEX
8
RASTER
10
61.6
20
19.6
30
0
0
VERTEX
8
RASTER
10
61.6
20
7.6
30
0
0
VERTEX
8
RASTER
10
61.569
20
7.131
30
0
0
VERTEX
8
RASTER
10
61.475
20
6.725
30
0
0
VERTEX
8
RASTER
10
61.319
20
6.381
30
0
0
VERTEX
8
RASTER
10
61.1
20
6.1
30
0
0
VERTEX
8
RASTER
10
60.819
20
5.881
30
0
0
VERTEX
8
RASTER
10
60.475
20
5.725
30
0
0
VERTEX
8
RASTER
10
60.069
20
5.631
30
0
0
VERTEX
8
RASTER
10
59.6
20
5.6
30
0
0
VERTEX
8
RASTER
10
27.6
20
5.6
30
0
0
VERTEX
8
RASTER
10
27.131
20
5.631
30
0
0
VERTEX
8
RASTER
10
26.725
20
5.725
30
0
0
VERTEX
8
RASTER
10
26.381
20
5.881
30
0
0
VERTEX
8
RASTER
10
26.1
20
6.1
30
0
0
VERTEX
8
RASTER
10
25.881
20
6.381
30
0
0
VERTEX
8
RASTER
10
25.725
20
6.725
30
0
0
VERTEX
8
RASTER
10
25.631
20
7.131
30
0
0
VERTEX
8
RASTER
10
25.6
20
7.6
30
0
0
VERTEX
8
RASTER
10
25.6
20
23.6
30
0
0
VERTEX
8
RASTER
10
25.569
20
24.069
30
0
0
VERTEX
8
RASTER
10
25.475
20
24.475
30
0
0
VERTEX
8
RASTER
10
25.319
20
24.819
30
0
0
VERTEX
8
RASTER
10
25.1
20
25.1
30
0
0
VERTEX
8
RASTER
10
24.819
20
25.319
30
0
0
VERTEX
8
RASTER
10
24.475
20
25.475
30
0
0
VERTEX
8
RASTER
10
24.069
20
25.569
30
0
0
VERTEX
8
RASTER
10
23.6
20
25.6
30
0
0
VERTEX
8
RASTER
10
7.6
20
25.6
30
0
0
VERTEX
8
RASTER
10
7.131
20
25.631
30
0
0
VERTEX
8
RASTER
10
6.725
20
25.725
30
0
0
VERTEX
8
RASTER
10
6.381
20
25.881
30
0
0
VERTEX
8
RASTER
10
6.1
20
26.1
30
0
0
VERTEX
8
RASTER
10
5.881
20
26.381
30
0
0
VERTEX
8
RASTER
10
5.725
20
26.725
30
0
0
VERTEX
8
RASTER
10
5.631
20
27.131
30
0
0
VERTEX
8
RASTER
10
5.6
20
27.6
30
0
0
SEQEND
8
RASTER
0
POLYLINE
8
RASTER
66
1
70
1
0
VERTEX
8
RASTER
10
6.6
20
39.4
30
0
0
VERTEX
8
RASTER
10
6.6
20
27.8
30
0
0
VERTEX
8
RASTER
10
6.619
20
27.519
30
0
0
VERTEX
8
RASTER
10
6.675
20
27.275
30
0
0
VERTEX
8
RASTER
10
6.769
20
27.069
30
0
0
VERTEX
8
RASTER
10
6.9
20
26.9
30
0
0
VERTEX
8
RASTER
10
7.069
20
26.769
30
0
0
VERTEX
8
RASTER
10
7.275
20
26.675
30
0
0
VERTEX
8
RASTER
10
7.519
20
26.619
30
0
0
VERTEX
8
RASTER
10
7.8
20
26.6
30
0
0
VERTEX
8
RASTER
10
25.4
20
26.6
30
0
0
VERTEX
8
RASTER
10
25.681
20
26.581
30
0
0
VERTEX
8
RASTER
10
25.925
20
26.525
30
0
0
VERTEX
8
RASTER
10
26.131
20
26.431
30
0
0
VERTEX
8
RASTER
10
26.3
20
26.3
30
0
0
VERTEX
8
RASTER
10
26.431
20
26.131
30
0
0
VERTEX
8
RASTER
10
26.525
20
25.925
30
0
0
VERTEX
8
RASTER
10
26.581
20
25.681
30
0
0
VERTEX
8
RASTER
10
26.6
20
25.4
30
0
0
VERTEX
8
RASTER
10
26.6
20
7.8
30
0
0
VERTEX
8
RASTER
10
26.619
20
7.519
30
0
0
VERTEX
8
RASTER
10
26.675
20
7.275
30
0
0
VERTEX
8
RASTER
10
26.769
20
7.069
30
0
0
VERTEX
8
RASTER
10
26.9
20
6.9
30
0
0
VERTEX
8
RASTER
10
27.069
20
6.769
30
0
0
VERTEX
8
RASTER
10
27.275
20
6.675
30
0
0
VERTEX
8
RASTER
10
27.519
20
6.619
30
0
0
VERTEX
8
RASTER
10
27.8
20
6.6
30
0
0
VERTEX
8
RASTER
10
59.4
20
6.6
30
0
0
VERTEX
8
RASTER
10
59.681
20
6.619
30
0
0
VERTEX
8
RASTER
10
59.925
20
6.675
30
0
0
VERTEX
8
RASTER
10
60.131
20
6.769
30
0
0
VERTEX
8
RASTER
10
60.3
20
6.9
30
0
0
VERTEX
8
RASTER
10
60.431
20
7.069
30
0
0
VERTEX
8
RASTER
10
60.525
20
7.275
30
0
0
VERTEX
8
RASTER
10
60.581
20
7.519
30
0
0
VERTEX
8
RASTER
10
60.6
20
7.8
30
0
0
VERTEX
8
RASTER
10
60.6
20
19.4
30
0
0
VERTEX
8
RASTER
10
60.581
20
19.681
30
0
0
VERTEX
8
RASTER
10
60.525
20
19.925
30
0
0
VERTEX
8
RASTER
10
60.431
20
20.131
30
0
0
VERTEX
8
RASTER
10
60.3
20
20.3
30
0
0
VERTEX
8
RASTER
10
60.131
20
20.431
30
0
0
VERTEX
8
RASTER
10
59.925
20
20.525
30
0
0
VERTEX
8
RASTER
10
59.681
20
20.581
30
0
0
VERTEX
8
RASTER
10
59.4
20
20.6
30
0
0
VERTEX
8
RASTER
10
41.8
20
20.6
30
0
0
VERTEX
8
RASTER
10
41.519
20
20.619
30
0
0
VERTEX
8
RASTER
10
41.275
20
20.675
30
0
0
VERTEX
8
RASTER
10
41.069
20
20.769
30
0
0
VERTEX
8
RASTER
10
40.9
20
20.9
30
0
0
VERTEX
8
RASTER
10
40.769
20
21.069
30
0
0
VERTEX
8
RASTER
10
40.675
20
21.275
30
0
0
VERTEX
8
RASTER
10
40.619
20
21.519
30
0
0
VERTEX
8
RASTER
10
40.6
20
21.8
30
0
0
VERTEX
8
RASTER
10
40.6
20
39.4
30
0
0
VERTEX
8
RASTER
10
40.581
20
39.681
30
0
0
VERTEX
8
RASTER
10
40.525
20
39.925
30
0
0
VERTEX
8
RASTER
10
40.431
20
40.131
30
0
0
VERTEX
8
RASTER
10
40.3
20
40.3
30
0
0
VERTEX
8
RASTER
10
40.131
20
40.431
30
0
0
VERTEX
8
RASTER
10
39.925
20
40.525
30
0
0
VERTEX
8
RASTER
10
39.681
20
40.581
30
0
0
VERTEX
8
RASTER
10
39.4
20
40.6
30
0
0
VERTEX
8
RASTER
10
7.8
20
40.6
30
0
0
VERTEX
8
RASTER
10
7.519
20
40.581
30
0
0
VERTEX
8
RASTER
10
7.275
20
40.525
30
0
0
VERTEX
8
RASTER
10
7.069
20
40.431
30
0
0
VERTEX
8
RASTER
10
6.9
20
40.3
30
0
0
VERTEX
8
RASTER
10
6.769
20
40.131
30
0
0
VERTEX
8
RASTER
10
6.675
20
39.925
30
0
0
VERTEX
8
RASTER
10
6.619
20
39.681
30
0
0
VERTEX
8
RASTER
10
6.6
20
39.4
30
0
0
SEQEND
8
RASTER
0
POLYLINE
8
RASTER
66
1
70
1
0
VERTEX
8
RASTER
10
32.856
20
27.896
30
0
0
VERTEX
8
RASTER
10
32.961
20
28.65
30
0
0
VERTEX
8
RASTER
10
33.092
20
29.419
30
0
0
VERTEX
8
RASTER
10
33.253
20
30.193
30
0
0
VERTEX
8
RASTER
10
33.445
20
30.965
30
0
0
VERTEX
8
RASTER
10
33.672
20
31.725
30
0
0
VERTEX
8
RASTER
10
33.937
20
32.465
30
0
0
VERTEX
8
RASTER
10
34.243
20
33.175
30
0
0
VERTEX
8
RASTER
10
34.592
20
33.848
30
0
0
VERTEX
8
RASTER
10
35.212
20
33.6
30
0
0
VERTEX
8
RASTER
10
34.909
20
32.938
30
0
0
VERTEX
8
RASTER
10
34.65
20
32.255
30
0
0
VERTEX
8
RASTER
10
34.432
20
31.555
30
0
0
VERTEX
8
RASTER
10
34.251
20
30.841
30
0
0
VERTEX
8
RASTER
10
34.105
20
30.115
30
0
0
VERTEX
8
RASTER
10
33.991
20
29.38
30
0
0
VERTEX
8
RASTER
10
33.907
20
28.64
30
0
0
VERTEX
8
RASTER
10
33.848
20
27.896
30
0
0
SEQEND
8
RASTER
0
CIRCLE
8
RASTER
10
35.088
20
34.592
30
0
40
0.496
0
POLYLINE
8
RASTER
66
1
70
1
0
VERTEX
8
RASTER
10
31.243
20
35.992
30
0
0
VERTEX
8
RASTER
10
31.319
20
36.097
30
0
0
VERTEX
8
RASTER
10
31.454
20
36.172
30
0
0
VERTEX
8
RASTER
10
31.64
20
36.216
30
0
0
VERTEX
8
RASTER
10
31.871
20
36.23
30
0
0
VERTEX
8
RASTER
10
32.138
20
36.213
30
0
0
VERTEX
8
RASTER
10
32.434
20
36.166
30
0
0
VERTEX
8
RASTER
10
32.753
20
36.088
30
0
0
VERTEX
8
RASTER
10
33.086
20
35.98
30
0
0
VERTEX
8
RASTER
10
33.411
20
35.849
30
0
0
VERTEX
8
RASTER
10
33.704
20
35.704
30
0
0
VERTEX
8
RASTER
10
33.962
20
35.549
30
0
0
VERTEX
8
RASTER
10
34.178
20
35.39
30
0
0
VERTEX
8
RASTER
10
34.345
20
35.231
30
0
0
VERTEX
8
RASTER
10
34.46
20
35.077
30
0
0
VERTEX
8
RASTER
10
34.515
20
34.934
30
0
0
VERTEX
8
RASTER
10
34.505
20
34.804
30
0
0
VERTEX
8
RASTER
10
34.43
20
34.699
30
0
0
VERTEX
8
RASTER
10
34.295
20
34.624
30
0
0
VERTEX
8
RASTER
10
34.108
20
34.58
30
0
0
VERTEX
8
RASTER
10
33.878
20
34.566
30
0
0
VERTEX
8
RASTER
10
33.61
20
34.583
30
0
0
VERTEX
8
RASTER
10
33.314
20
34.63
30
0
0
VERTEX
8
RASTER
10
32.995
20
34.707
30
0
0
VERTEX
8
RASTER
10
32.662
20
34.815
30
0
0
VERTEX
8
RASTER
10
32.338
20
34.947
30
0
0
VERTEX
8
RASTER
10
32.044
20
35.092
30
0
0
VERTEX
8
RASTER
10
31.786
20
35.247
30
0
0
VERTEX
8
RASTER
10
31.571
20
35.406
30
0
0
VERTEX
8
RASTER
10
31.403
20
35.564
30
0
0
VERTEX
8
RASTER
10
31.288
20
35.718
30
0
0
VERTEX
8
RASTER
10
31.233
20
35.862
30
0
0
VERTEX
8
RASTER
10
31.243
20
35.992
30
0
0
SEQEND
8
RASTER
0
POLYLINE
8
RASTER
66
1
70
1
0
VERTEX
8
RASTER
10
33.688
20
38.437
30
0
0
VERTEX
8
RASTER
10
33.818
20
38.447
30
0
0
VERTEX
8
RASTER
10
33.962
20
38.392
30
0
0
VERTEX
8
RASTER
10
34.116
20
38.277
30
0
0
VERTEX
8
RASTER
10
34.274
20
38.109
30
0
0
VERTEX
8
RASTER
10
34.433
20
37.894
30
0
0
VERTEX
8
RASTER
10
34.588
20
37.636
30
0
0
VERTEX
8
RASTER
10
34.733
20
37.342
30
0
0
VERTEX
8
RASTER
10
34.865
20
37.018
30
0
0
VERTEX
8
RASTER
10
34.973
20
36.685
30
0
0
VERTEX
8
RASTER
10
35.05
20
36.366
30
0
0
VERTEX
8
RASTER
10
35.097
20
36.07
30
0
0
VERTEX
8
RASTER
10
35.114
20
35.802
30
0
0
VERTEX
8
RASTER
10
35.1
20
35.572
30
0
0
VERTEX
8
RASTER
10
35.056
20
35.385
30
0
0
VERTEX
8
RASTER
10
34.981
20
35.25
30
0
0
VERTEX
8
RASTER
10
34.876
20
35.175
30
0
0
VERTEX
8
RASTER
10
34.746
20
35.165
30
0
0
VERTEX
8
RASTER
10
34.603
20
35.22
30
0
0
VERTEX
8
RASTER
10
34.449
20
35.335
30
0
0
VERTEX
8
RASTER
10
34.29
20
35.502
30
0
0
VERTEX
8
RASTER
10
34.131
20
35.718
30
0
0
VERTEX
8
RASTER
10
33.976
20
35.976
30
0
0
VERTEX
8
RASTER
10
33.831
20
36.269
30
0
0
VERTEX
8
RASTER
10
33.7
20
36.594
30
0
0
VERTEX
8
RASTER
10
33.592
20
36.927
30
0
0
VERTEX
8
RASTER
10
33.514
20
37.246
30
0
0
VERTEX
8
RASTER
10
33.467
20
37.542
30
0
0
VERTEX
8
RASTER
10
33.45
20
37.809
30
0
0
VERTEX
8
RASTER
10
33.464
20
38.04
30
0
0
VERTEX
8
RASTER
10
33.508
20
38.226
30
0
0
VERTEX
8
RASTER
10
33.583
20
38.361
30
0
0
VERTEX
8
RASTER
10
33.688
20
38.437
30
0
0
SEQEND
8
RASTER
0
POLYLINE
8
RASTER
66
1
70
1
0
VERTEX
8
RASTER
10
37.134
20
38.136
30
0
0
VERTEX
8
RASTER
10
37.225
20
38.043
30
0
0
VERTEX
8
RASTER
10
37.275
20
37.897
30
0
0
VERTEX
8
RASTER
10
37.286
20
37.706
30
0
0
VERTEX
8
RASTER
10
37.259
20
37.476
30
0
0
VERTEX
8
RASTER
10
37.197
20
37.216
30
0
0
VERTEX
8
RASTER
10
37.099
20
36.932
30
0
0
VERTEX
8
RASTER
10
36.967
20
36.632
30
0
0
VERTEX
8
RASTER
10
36.803
20
36.322
30
0
0
VERTEX
8
RASTER
10
36.617
20
36.026
30
0
0
VERTEX
8
RASTER
10
36.423
20
35.762
30
0
0
VERTEX
8
RASTER
10
36.226
20
35.535
30
0
0
VERTEX
8
RASTER
10
36.032
20
35.35
30
0
0
VERTEX
8
RASTER
10
35.846
20
35.212
30
0
0
VERTEX
8
RASTER
10
35.675
20
35.126
30
0
0
VERTEX
8
RASTER
10
35.524
20
35.097
30
0
0
VERTEX
8
RASTER
10
35.398
20
35.129
30
0
0
VERTEX
8
RASTER
10
35.307
20
35.222
30
0
0
VERTEX
8
RASTER
10
35.257
20
35.368
30
0
0
VERTEX
8
RASTER
10
35.246
20
35.559
30
0
0
VERTEX
8
RASTER
10
35.273
20
35.788
30
0
0
VERTEX
8
RASTER
10
35.335
20
36.049
30
0
0
VERTEX
8
RASTER
10
35.433
20
36.333
30
0
0
VERTEX
8
RASTER
10
35.565
20
36.633
30
0
0
VERTEX
8
RASTER
10
35.729
20
36.942
30
0
0
VERTEX
8
RASTER
10
35.915
20
37.239
30
0
0
VERTEX
8
RASTER
10
36.109
20
37.503
30
0
0
VERTEX
8
RASTER
10
36.306
20
37.73
30
0
0
VERTEX
8
RASTER
10
36.5
20
37.915
30
0
0
VERTEX
8
RASTER
10
36.686
20
38.052
30
0
0
VERTEX
8
RASTER
10
36.857
20
38.138
30
0
0
VERTEX
8
RASTER
10
37.008
20
38.168
30
0
0
VERTEX
8
RASTER
10
37.134
20
38.136
30
0
0
SEQEND
8
RASTER
0
POLYLINE
8
RASTER
66
1
70
1
0
VERTEX
8
RASTER
10
39.118
20
35.303
30
0
0
VERTEX
8
RASTER
10
39.105
20
35.173
30
0
0
VERTEX
8
RASTER
10
39.025
20
35.041
30
0
0
VERTEX
8
RASTER
10
38.886
20
34.91
30
0
0
VERTEX
8
RASTER
10
38.693
20
34.783
30
0
0
VERTEX
8
RASTER
10
38.453
20
34.663
30
0
0
VERTEX
8
RASTER
10
38.173
20
34.556
30
0
0
VERTEX
8
RASTER
10
37.858
20
34.464
30
0
0
VERTEX
8
RASTER
10
37.516
20
34.391
30
0
0
VERTEX
8
RASTER
10
37.169
20
34.342
30
0
0
VERTEX
8
RASTER
10
36.842
20
34.321
30
0
0
VERTEX
8
RASTER
10
36.542
20
34.326
30
0
0
VERTEX
8
RASTER
10
36.275
20
34.356
30
0
0
VERTEX
8
RASTER
10
36.051
20
34.41
30
0
0
VERTEX
8
RASTER
10
35.875
20
34.486
30
0
0
VERTEX
8
RASTER
10
35.755
20
34.583
30
0
0
VERTEX
8
RASTER
10
35.699
20
34.7
30
0
0
VERTEX
8
RASTER
10
35.712
20
34.829
30
0
0
VERTEX
8
RASTER
10
35.791
20
34.961
30
0
0
VERTEX
8
RASTER
10
35.93
20
35.093
30
0
0
VERTEX
8
RASTER
10
36.123
20
35.22
30
0
0
VERTEX
8
RASTER
10
36.363
20
35.339
30
0
0
VERTEX
8
RASTER
10
36.644
20
35.446
30
0
0
VERTEX
8
RASTER
10
36.958
20
35.539
30
0
0
VERTEX
8
RASTER
10
37.301
20
35.612
30
0
0
VERTEX
8
RASTER
10
37.647
20
35.66
30
0
0
VERTEX
8
RASTER
10
37.974
20
35.681
30
0
0
VERTEX
8
RASTER
10
38.275
20
35.676
30
0
0
VERTEX
8
RASTER
10
38.541
20
35.646
30
0
0
VERTEX
8
RASTER
10
38.766
20
35.592
30
0
0
VERTEX
8
RASTER
10
38.942
20
35.517
30
0
0
VERTEX
8
RASTER
10
39.061
20
35.419
30
0
0
VERTEX
8
RASTER
10
39.118
20
35.303
30
0
0
SEQEND
8
RASTER
0
POLYLINE
8
RASTER
66
1
70
1
0
VERTEX
8
RASTER
10
38.223
20
31.962
30
0
0
VERTEX
8
RASTER
10
38.115
20
31.889
30
0
0
VERTEX
8
RASTER
10
37.963
20
31.865
30
0
0
VERTEX
8
RASTER
10
37.773
20
31.887
30
0
0
VERTEX
8
RASTER
10
37.551
20
31.953
30
0
0
VERTEX
8
RASTER
10
37.306
20
32.06
30
0
0
VERTEX
8
RASTER
10
37.043
20
32.206
30
0
0
VERTEX
8
RASTER
10
36.77
20
32.387
30
0
0
VERTEX
8
RASTER
10
36.494
20
32.603
30
0
0
VERTEX
8
RASTER
10
36.234
20
32.837
30
0
0
VERTEX
8
RASTER
10
36.008
20
33.074
30
0
0
VERTEX
8
RASTER
10
35.819
20
33.308
30
0
0
VERTEX
8
RASTER
10
35.671
20
33.531
30
0
0
VERTEX
8
RASTER
10
35.567
20
33.737
30
0
0
VERTEX
8
RASTER
10
35.512
20
33.921
30
0
0
VERTEX
8
RASTER
10
35.51
20
34.075
30
0
0
VERTEX
8
RASTER
10
35.563
20
34.193
30
0
0
VERTEX
8
RASTER
10
35.67
20
34.267
30
0
0
VERTEX
8
RASTER
10
35.823
20
34.291
30
0
0
VERTEX
8
RASTER
10
36.013
20
34.268
30
0
0
VERTEX
8
RASTER
10
36.234
20
34.202
30
0
0
VERTEX
8
RASTER
10
36.48
20
34.095
30
0
0
VERTEX
8
RASTER
10
36.742
20
33.95
30
0
0
VERTEX
8
RASTER
10
37.015
20
33.768
30
0
0
VERTEX
8
RASTER
10
37.291
20
33.553
30
0
0
VERTEX
8
RASTER
10
37.551
20
33.318
30
0
0
VERTEX
8
RASTER
10
37.778
20
33.081
30
0
0
VERTEX
8
RASTER
10
37.967
20
32.848
30
0
0
VERTEX
8
RASTER
10
38.115
20
32.624
30
0
0
VERTEX
8
RASTER
10
38.218
20
32.418
30
0
0
VERTEX
8
RASTER
10
38.273
20
32.234
30
0
0
VERTEX
8
RASTER
10
38.276
20
32.08
30
0
0
VERTEX
8
RASTER
10
38.223
20
31.962
30
0
0
SEQEND
8
RASTER
0
POLYLINE
8
CUT
66
1
70
1
0
VERTEX
8
CUT
10
67.2
20
40.2
30
0
0
VERTEX
8
CUT
10
67.247
20
40.903
30
0
0
VERTEX
8
CUT
10
67.388
20
41.513
30
0
0
VERTEX
8
CUT
10
67.622
20
42.028
30
0
0
VERTEX
8
CUT
10
67.95
20
42.45
30
0
0
VERTEX
8
CUT
10
68.372
20
42.778
30
0
0
VERTEX
8
CUT
10
68.888
20
43.013
30
0
0
VERTEX
8
CUT
10
69.497
20
43.153
30
0
0
VERTEX
8
CUT
10
70.2
20
43.2
30
0
0
VERTEX
8
CUT
10
75.15
20
43.2
30
0
0
VERTEX
8
CUT
10
75.15
20
38.7
30
0
0
VERTEX
8
CUT
10
78.45
20
38.7
30
0
0
VERTEX
8
CUT
10
78.45
20
43.2
30
0
0
VERTEX
8
CUT
10
95.15
20
43.2
30
0
0
VERTEX
8
CUT
10
95.15
20
38.7
30
0
0
VERTEX
8
CUT
10
98.45
20
38.7
30
0
0
VERTEX
8
CUT
10
98.45
20
43.2
30
0
0
VERTEX
8
CUT
10
115.15
20
43.2
30
0
0
VERTEX
8
CUT
10
115.15
20
38.7
30
0
0
VERTEX
8
CUT
10
118.45
20
38.7
30
0
0
VERTEX
8
CUT
10
118.45
20
43.2
30
0
0
VERTEX
8
CUT
10
123.4
20
43.2
30
0
0
VERTEX
8
CUT
10
124.103
20
43.153
30
0
0
VERTEX
8
CUT
10
124.712
20
43.013
30
0
0
VERTEX
8
CUT
10
125.228
20
42.778
30
0
0
VERTEX
8
CUT
10
125.65
20
42.45
30
0
0
VERTEX
8
CUT
10
125.978
20
42.028
30
0
0
VERTEX
8
CUT
10
126.212
20
41.513
30
0
0
VERTEX
8
CUT
10
126.353
20
40.903
30
0
0
VERTEX
8
CUT
10
126.4
20
40.2
30
0
0
VERTEX
8
CUT
10
126.4
20
35.25
30
0
0
VERTEX
8
CUT
10
121.9
20
35.25
30
0
0
VERTEX
8
CUT
10
121.9
20
31.95
30
0
0
VERTEX
8
CUT
10
126.4
20
31.95
30
0
0
VERTEX
8
CUT
10
126.4
20
27
30
0
0
VERTEX
8
CUT
10
126.353
20
26.297
30
0
0
VERTEX
8
CUT
10
126.213
20
25.688
30
0
0
VERTEX
8
CUT
10
125.978
20
25.172
30
0
0
VERTEX
8
CUT
10
125.65
20
24.75
30
0
0
VERTEX
8
CUT
10
125.228
20
24.422
30
0
0
VERTEX
8
CUT
10
124.713
20
24.188
30
0
0
VERTEX
8
CUT
10
124.103
20
24.047
30
0
0
VERTEX
8
CUT
10
123.4
20
24
30
0
0
VERTEX
8
CUT
10
118.45
20
24
30
0
0
VERTEX
8
CUT
10
118.45
20
28.5
30
0
0
VERTEX
8
CUT
10
115.15
20
28.5
30
0
0
VERTEX
8
CUT
10
115.15
20
24
30
0
0
VERTEX
8
CUT
10
109.4
20
24
30
0
0
VERTEX
8
CUT
10
108.697
20
23.953
30
0
0
VERTEX
8
CUT
10
108.088
20
23.813
30
0
0
VERTEX
8
CUT
10
107.572
20
23.578
30
0
0
VERTEX
8
CUT
10
107.15
20
23.25
30
0
0
VERTEX
8
CUT
10
106.822
20
22.828
30
0
0
VERTEX
8
CUT
10
106.588
20
22.313
30
0
0
VERTEX
8
CUT
10
106.447
20
21.703
30
0
0
VERTEX
8
CUT
10
106.4
20
21
30
0
0
VERTEX
8
CUT
10
106.4
20
15.25
30
0
0
VERTEX
8
CUT
10
101.9
20
15.25
30
0
0
VERTEX
8
CUT
10
101.9
20
11.95
30
0
0
VERTEX
8
CUT
10
106.4
20
11.95
30
0
0
VERTEX
8
CUT
10
106.4
20
7
30
0
0
VERTEX
8
CUT
10
106.353
20
6.297
30
0
0
VERTEX
8
CUT
10
106.213
20
5.688
30
0
0
VERTEX
8
CUT
10
105.978
20
5.172
30
0
0
VERTEX
8
CUT
10
105.65
20
4.75
30
0
0
VERTEX
8
CUT
10
105.228
20
4.422
30
0
0
VERTEX
8
CUT
10
104.713
20
4.188
30
0
0
VERTEX
8
CUT
10
104.103
20
4.047
30
0
0
VERTEX
8
CUT
10
103.4
20
4
30
0
0
VERTEX
8
CUT
10
98.45
20
4
30
0
0
VERTEX
8
CUT
10
98.45
20
8.5
30
0
0
VERTEX
8
CUT
10
95.15
20
8.5
30
0
0
VERTEX
8
CUT
10
95.15
20
4
30
0
0
VERTEX
8
CUT
10
90.2
20
4
30
0
0
VERTEX
8
CUT
10
89.497
20
4.047
30
0
0
VERTEX
8
CUT
10
88.887
20
4.188
30
0
0
VERTEX
8
CUT
10
88.372
20
4.422
30
0
0
VERTEX
8
CUT
10
87.95
20
4.75
30
0
0
VERTEX
8
CUT
10
87.622
20
5.172
30
0
0
VERTEX
8
CUT
10
87.387
20
5.688
30
0
0
VERTEX
8
CUT
10
87.247
20
6.297
30
0
0
VERTEX
8
CUT
10
87.2
20
7
30
0
0
VERTEX
8
CUT
10
87.2
20
11.95
30
0
0
VERTEX
8
CUT
10
91.7
20
11.95
30
0
0
VERTEX
8
CUT
10
91.7
20
15.25
30
0
0
VERTEX
8
CUT
10
87.2
20
15.25
30
0
0
VERTEX
8
CUT
10
87.2
20
21
30
0
0
VERTEX
8
CUT
10
87.153
20
21.703
30
0
0
VERTEX
8
CUT
10
87.012
20
22.313
30
0
0
VERTEX
8
CUT
10
86.778
20
22.828
30
0
0
VERTEX
8
CUT
10
86.45
20
23.25
30
0
0
VERTEX
8
CUT
10
86.028
20
23.578
30
0
0
VERTEX
8
CUT
10
85.512
20
23.813
30
0
0
VERTEX
8
CUT
10
84.903
20
23.953
30
0
0
VERTEX
8
CUT
10
84.2
20
24
30
0
0
VERTEX
8
CUT
10
78.45
20
24
30
0
0
VERTEX
8
CUT
10
78.45
20
28.5
30
0
0
VERTEX
8
CUT
10
75.15
20
28.5
30
0
0
VERTEX
8
CUT
10
75.15
20
24
30
0
0
VERTEX
8
CUT
10
70.2
20
24
30
0
0
VERTEX
8
CUT
10
69.497
20
24.047
30
0
0
VERTEX
8
CUT
10
68.887
20
24.188
30
0
0
VERTEX
8
CUT
10
68.372
20
24.422
30
0
0
VERTEX
8
CUT
10
67.95
20
24.75
30
0
0
VERTEX
8
CUT
10
67.622
20
25.172
30
0
0
VERTEX
8
CUT
10
67.388
20
25.688
30
0
0
VERTEX
8
CUT
10
67.247
20
26.297
30
0
0
VERTEX
8
CUT
10
67.2
20
27
30
0
0
SEQEND
8
CUT
0
POLYLINE
8
RASTER
66
1
70
1
0
VERTEX
8
RASTER
10
68.8
20
39.6
30
0
0
VERTEX
8
RASTER
10
68.831
20
40.069
30
0
0
VERTEX
8
RASTER
10
68.925
20
40.475
30
0
0
VERTEX
8
RASTER
10
69.081
20
40.819
30
0
0
VERTEX
8
RASTER
10
69.3
20
41.1
30
0
0
VERTEX
8
RASTER
10
69.581
20
41.319
30
0
0
VERTEX
8
RASTER
10
69.925
20
41.475
30
0
0
VERTEX
8
RASTER
10
70.331
20
41.569
30
0
0
VERTEX
8
RASTER
10
70.8
20
41.6
30
0
0
VERTEX
8
RASTER
10
122.8
20
41.6
30
0
0
VERTEX
8
RASTER
10
123.269
20
41.569
30
0
0
VERTEX
8
RASTER
10
123.675
20
41.475
30
0
0
VERTEX
8
RASTER
10
124.019
20
41.319
30
0
0
VERTEX
8
RASTER
10
124.3
20
41.1
30
0
0
VERTEX
8
RASTER
10
124.519
20
40.819
30
0
0
VERTEX
8
RASTER
10
124.675
20
40.475
30
0
0
VERTEX
8
RASTER
10
124.769
20
40.069
30
0
0
VERTEX
8
RASTER
10
124.8
20
39.6
30
0
0
VERTEX
8
RASTER
10
124.8
20
27.6
30
0
0
VERTEX
8
RASTER
10
124.769
20
27.131
30
0
0
VERTEX
8
RASTER
10
124.675
20
26.725
30
0
0
VERTEX
8
RASTER
10
124.519
20
26.381
30
0
0
VERTEX
8
RASTER
10
124.3
20
26.1
30
0
0
VERTEX
8
RASTER
10
124.019
20
25.881
30
0
0
VERTEX
8
RASTER
10
123.675
20
25.725
30
0
0
VERTEX
8
RASTER
10
123.269
20
25.631
30
0
0
VERTEX
8
RASTER
10
122.8
20
25.6
30
0
0
VERTEX
8
RASTER
10
106.8
20
25.6
30
0
0
VERTEX
8
RASTER
10
106.331
20
25.569
30
0
0
VERTEX
8
RASTER
10
105.925
20
25.475
30
0
0
VERTEX
8
RASTER
10
105.581
20
25.319
30
0
0
VERTEX
8
RASTER
10
105.3
20
25.1
30
0
0
VERTEX
8
RASTER
10
105.081
20
24.819
30
0
0
VERTEX
8
RASTER
10
104.925
20
24.475
30
0
0
VERTEX
8
RASTER
10
104.831
20
24.069
30
0
0
VERTEX
8
RASTER
10
104.8
20
23.6
30
0
0
VERTEX
8
RASTER
10
104.8
20
7.6
30
0
0
VERTEX
8
RASTER
10
104.769
20
7.131
30
0
0
VERTEX
8
RASTER
10
104.675
20
6.725
30
0
0
VERTEX
8
RASTER
10
104.519
20
6.381
30
0
0
VERTEX
8
RASTER
10
104.3
20
6.1
30
0
0
VERTEX
8
RASTER
10
104.019
20
5.881
30
0
0
VERTEX
8
RASTER
10
103.675
20
5.725
30
0
0
VERTEX
8
RASTER
10
103.269
20
5.631
30
0
0
VERTEX
8
RASTER
10
102.8
20
5.6
30
0
0
VERTEX
8
RASTER
10
90.8
20
5.6
30
0
0
VERTEX
8
RASTER
10
90.331
20
5.631
30
0
0
VERTEX
8
RASTER
10
89.925
20
5.725
30
0
0
VERTEX
8
RASTER
10
89.581
20
5.881
30
0
0
VERTEX
8
RASTER
10
89.3
20
6.1
30
0
0
VERTEX
8
RASTER
10
89.081
20
6.381
30
0
0
VERTEX
8
RASTER
10
88.925
20
6.725
30
0
0
VERTEX
8
RASTER
10
88.831
20
7.131
30
0
0
VERTEX
8
RASTER
10
88.8
20
7.6
30
0
0
VERTEX
8
RASTER
10
88.8
20
23.6
30
0
0
VERTEX
8
RASTER
10
88.769
20
24.069
30
0
0
VERTEX
8
RASTER
10
88.675
20
24.475
30
0
0
VERTEX
8
RASTER
10
88.519
20
24.819
30
0
0
VERTEX
8
RASTER
10
88.3
20
25.1
30
0
0
VERTEX
8
RASTER
10
88.019
20
25.319
30
0
0
VERTEX
8
RASTER
10
87.675
20
25.475
30
0
0
VERTEX
8
RASTER
10
87.269
20
25.569
30
0
0
VERTEX
8
RASTER
10
86.8
20
25.6
30
0
0
VERTEX
8
RASTER
10
70.8
20
25.6
30
0
0
VERTEX
8
RASTER
10
70.331
20
25.631
30
0
0
VERTEX
8
RASTER
10
69.925
20
25.725
30
0
0
VERTEX
8
RASTER
10
69.581
20
25.881
30
0
0
VERTEX
8
RASTER
10
69.3
20
26.1
30
0
0
VERTEX
8
RASTER
10
69.081
20
26.381
30
0
0
VERTEX
8
RASTER
10
68.925
20
26.725
30
0
0
VERTEX
8
RASTER
10
68.831
20
27.131
30
0
0
VERTEX
8
RASTER
10
68.8
20
27.6
30
0
0
SEQEND
8
RASTER
0
POLYLINE
8
RASTER
66
1
70
1
0
VERTEX
8
RASTER
10
69.8
20
39.4
30
0
0
VERTEX
8
RASTER
10
69.8
20
27.8
30
0
0
VERTEX
8
RASTER
10
69.819
20
27.519
30
0
0
VERTEX
8
RASTER
10
69.875
20
27.275
30
0
0
VERTEX
8
RASTER
10
69.969
20
27.069
30
0
0
VERTEX
8
RASTER
10
70.1
20
26.9
30
0
0
VERTEX
8
RASTER
10
70.269
20
26.769
30
0
0
VERTEX
8
RASTER
10
70.475
20
26.675
30
0
0
VERTEX
8
RASTER
10
70.719
20
26.619
30
0
0
VERTEX
8
RASTER
10
71
20
26.6
30
0
0
VERTEX
8
RASTER
10
88.6
20
26.6
30
0
0
VERTEX
8
RASTER
10
88.881
20
26.581
30
0
0
VERTEX
8
RASTER
10
89.125
20
26.525
30
0
0
VERTEX
8
RASTER
10
89.331
20
26.431
30
0
0
VERTEX
8
RASTER
10
89.5
20
26.3
30
0
0
VERTEX
8
RASTER
10
89.631
20
26.131
30
0
0
VERTEX
8
RASTER
10
89.725
20
25.925
30
0
0
VERTEX
8
RASTER
10
89.781
20
25.681
30
0
0
VERTEX
8
RASTER
10
89.8
20
25.4
30
0
0
VERTEX
8
RASTER
10
89.8
20
7.8
30
0
0
VERTEX
8
RASTER
10
89.819
20
7.519
30
0
0
VERTEX
8
RASTER
10
89.875
20
7.275
30
0
0
VERTEX
8
RASTER
10
89.969
20
7.069
30
0
0
VERTEX
8
RASTER
10
90.1
20
6.9
30
0
0
VERTEX
8
RASTER
10
90.269
20
6.769
30
0
0
VERTEX
8
RASTER
10
90.475
20
6.675
30
0
0
VERTEX
8
RASTER
10
90.719
20
6.619
30
0
0
VERTEX
8
RASTER
10
91
20
6.6
30
0
0
VERTEX
8
RASTER
10
102.6
20
6.6
30
0
0
VERTEX
8
RASTER
10
102.881
20
6.619
30
0
0
VERTEX
8
RASTER
10
103.125
20
6.675
30
0
0
VERTEX
8
RASTER
10
103.331
20
6.769
30
0
0
VERTEX
8
RASTER
10
103.5
20
6.9
30
0
0
VERTEX
8
RASTER
10
103.631
20
7.069
30
0
0
VERTEX
8
RASTER
10
103.725
20
7.275
30
0
0
VERTEX
8
RASTER
10
103.781
20
7.519
30
0
0
VERTEX
8
RASTER
10
103.8
20
7.8
30
0
0
VERTEX
8
RASTER
10
103.8
20
25.4
30
0
0
VERTEX
8
RASTER
10
103.819
20
25.681
30
0
0
VERTEX
8
RASTER
10
103.875
20
25.925
30
0
0
VERTEX
8
RASTER
10
103.969
20
26.131
30
0
0
VERTEX
8
RASTER
10
104.1
20
26.3
30
0
0
VERTEX
8
RASTER
10
104.269
20
26.431
30
0
0
VERTEX
8
RASTER
10
104.475
20
26.525
30
0
0
VERTEX
8
RASTER
10
104.719
20
26.581
30
0
0
VERTEX
8
RASTER
10
105
20
26.6
30
0
0
VERTEX
8
RASTER
10
122.6
20
26.6
30
0
0
VERTEX
8
RASTER
10
122.881
20
26.619
30
0
0
VERTEX
8
RASTER
10
123.125
20
26.675
30
0
0
VERTEX
8
RASTER
10
123.331
20
26.769
30
0
0
VERTEX
8
RASTER
10
123.5
20
26.9
30
0
0
VERTEX
8
RASTER
10
123.631
20
27.069
30
0
0
VERTEX
8
RASTER
10
123.725
20
27.275
30
0
0
VERTEX
8
RASTER
10
123.781
20
27.519
30
0
0
VERTEX
8
RASTER
10
123.8
20
27.8
30
0
0
VERTEX
8
RASTER
10
123.8
20
39.4
30
0
0
VERTEX
8
RASTER
10
123.781
20
39.681
30
0
0
VERTEX
8
RASTER
10
123.725
20
39.925
30
0
0
VERTEX
8
RASTER
10
123.631
20
40.131
30
0
0
VERTEX
8
RASTER
10
123.5
20
40.3
30
0
0
VERTEX
8
RASTER
10
123.331
20
40.431
30
0
0
VERTEX
8
RASTER
10
123.125
20
40.525
30
0
0
VERTEX
8
RASTER
10
122.881
20
40.581
30
0
0
VERTEX
8
RASTER
10
122.6
20
40.6
30
0
0
VERTEX
8
RASTER
10
71
20
40.6
30
0
0
VERTEX
8
RASTER
10
70.719
20
40.581
30
0
0
VERTEX
8
RASTER
10
70.475
20
40.525
30
0
0
VERTEX
8
RASTER
10
70.269
20
40.431
30
0
0
VERTEX
8
RASTER
10
70.1
20
40.3
30
0
0
VERTEX
8
RASTER
10
69.969
20
40.131
30
0
0
VERTEX
8
RASTER
10
69.875
20
39.925
30
0
0
VERTEX
8
RASTER
10
69.819
20
39.681
30
0
0
VERTEX
8
RASTER
10
69.8
20
39.4
30
0
0
SEQEND
8
RASTER
0
POLYLINE
8
RASTER
66
1
70
1
0
VERTEX
8
RASTER
10
96.056
20
27.896
30
0
0
VERTEX
8
RASTER
10
96.161
20
28.65
30
0
0
VERTEX
8
RASTER
10
96.292
20
29.419
30
0
0
VERTEX
8
RASTER
10
96.453
20
30.193
30
0
0
VERTEX
8
RASTER
10
96.645
20
30.965
30
0
0
VERTEX
8
RASTER
10
96.872
20
31.725
30
0
0
VERTEX
8
RASTER
10
97.137
20
32.465
30
0
0
VERTEX
8
RASTER
10
97.443
20
33.175
30
0
0
VERTEX
8
RASTER
10
97.792
20
33.848
30
0
0
VERTEX
8
RASTER
10
98.412
20
33.6
30
0
0
VERTEX
8
RASTER
10
98.109
20
32.938
30
0
0
VERTEX
8
RASTER
10
97.85
20
32.255
30
0
0
VERTEX
8
RASTER
10
97.632
20
31.555
30
0
0
VERTEX
8
RASTER
10
97.451
20
30.841
30
0
0
VERTEX
8
RASTER
10
97.305
20
30.115
30
0
0
VERTEX
8
RASTER
10
97.191
20
29.38
30
0
0
VERTEX
8
RASTER
10
97.107
20
28.64
30
0
0
VERTEX
8
RASTER
10
97.048
20
27.896
30
0
0
SEQEND
8
RASTER
0
CIRCLE
8
RASTER
10
98.288
20
34.592
30
0
40
0.496
0
POLYLINE
8
RASTER
66
1
70
1
0
VERTEX
8
RASTER
10
94.443
20
35.992
30
0
0
VERTEX
8
RASTER
10
94.519
20
36.097
30
0
0
VERTEX
8
RASTER
10
94.654
20
36.172
30
0
0
VERTEX
8
RASTER
10
94.84
20
36.216
30
0
0
VERTEX
8
RASTER
10
95.071
20
36.23
30
0
0
VERTEX
8
RASTER
10
95.338
20
36.213
30
0
0
VERTEX
8
RASTER
10
95.634
20
36.166
30
0
0
VERTEX
8
RASTER
10
95.953
20
36.088
30
0
0
VERTEX
8
RASTER
10
96.286
20
35.98
30
0
0
VERTEX
8
RASTER
10
96.611
20
35.849
30
0
0
VERTEX
8
RASTER
10
96.904
20
35.704
30
0
0
VERTEX
8
RASTER
10
97.162
20
35.549
30
0
0
VERTEX
8
RASTER
10
97.378
20
35.39
30
0
0
VERTEX
8
RASTER
10
97.545
20
35.231
30
0
0
VERTEX
8
RASTER
10
97.66
20
35.077
30
0
0
VERTEX
8
RASTER
10
97.715
20
34.934
30
0
0
VERTEX
8
RASTER
10
97.705
20
34.804
30
0
0
VERTEX
8
RASTER
10
97.63
20
34.699
30
0
0
VERTEX
8
RASTER
10
97.495
20
34.624
30
0
0
VERTEX
8
RASTER
10
97.308
20
34.58
30
0
0
VERTEX
8
RASTER
10
97.078
20
34.566
30
0
0
VERTEX
8
RASTER
10
96.81
20
34.583
30
0
0
VERTEX
8
RASTER
10
96.514
20
34.63
30
0
0
VERTEX
8
RASTER
10
96.195
20
34.707
30
0
0
VERTEX
8
RASTER
10
95.862
20
34.815
30
0
0
VERTEX
8
RASTER
10
95.538
20
34.947
30
0
0
VERTEX
8
RASTER
10
95.244
20
35.092
30
0
0
VERTEX
8
RASTER
10
94.986
20
35.247
30
0
0
VERTEX
8
RASTER
10
94.771
20
35.406
30
0
0
VERTEX
8
RASTER
10
94.603
20
35.564
30
0
0
VERTEX
8
RASTER
10
94.488
20
35.718
30
0
0
VERTEX
8
RASTER
10
94.433
20
35.862
30
0
0
VERTEX
8
RASTER
10
94.443
20
35.992
30
0
0
SEQEND
8
RASTER
0
POLYLINE
8
RASTER
66
1
70
1
0
VERTEX
8
RASTER
10
96.888
20
38.437
30
0
0
VERTEX
8
RASTER
10
97.018
20
38.447
30
0
0
VERTEX
8
RASTER
10
97.162
20
38.392
30
0
0
VERTEX
8
RASTER
10
97.316
20
38.277
30
0
0
VERTEX
8
RASTER
10
97.474
20
38.109
30
0
0
VERTEX
8
RASTER
10
97.633
20
37.894
30
0
0
VERTEX
8
RASTER
10
97.788
20
37.636
30
0
0
VERTEX
8
RASTER
10
97.933
20
37.342
30
0
0
VERTEX
8
RASTER
10
98.065
20
37.018
30
0
0
VERTEX
8
RASTER
10
98.173
20
36.685
30
0
0
VERTEX
8
RASTER
10
98.25
20
36.366
30
0
0
VERTEX
8
RASTER
10
98.297
20
36.07
30
0
0
VERTEX
8
RASTER
10
98.314
20
35.802
30
0
0
VERTEX
8
RASTER
10
98.3
20
35.572
30
0
0
VERTEX
8
RASTER
10
98.256
20
35.385
30
0
0
VERTEX
8
RASTER
10
98.181
20
35.25
30
0
0
VERTEX
8
RASTER
10
98.076
20
35.175
30
0
0
VERTEX
8
RASTER
10
97.946
20
35.165
30
0
0
VERTEX
8
RASTER
10
97.803
20
35.22
30
0
0
VERTEX
8
RASTER
10
97.649
20
35.335
30
0
0
VERTEX
8
RASTER
10
97.49
20
35.502
30
0
0
VERTEX
8
RASTER
10
97.331
20
35.718
30
0
0
VERTEX
8
RASTER
10
97.176
20
35.976
30
0
0
VERTEX
8
RASTER
10
97.031
20
36.269
30
0
0
VERTEX
8
RASTER
10
96.9
20
36.594
30
0
0
VERTEX
8
RASTER
10
96.792
20
36.927
30
0
0
VERTEX
8
RASTER
10
96.714
20
37.246
30
0
0
VERTEX
8
RASTER
10
96.667
20
37.542
30
0
0
VERTEX
8
RASTER
10
96.65
20
37.809
30
0
0
VERTEX
8
RASTER
10
96.664
20
38.04
30
0
0
VERTEX
8
RASTER
10
96.708
20
38.226
30
0
0
VERTEX
8
RASTER
10
96.783
20
38.361
30
0
0
VERTEX
8
RASTER
10
96.888
20
38.437
30
0
0
SEQEND
8
RASTER
0
POLYLINE
8
RASTER
66
1
70
1
0
VERTEX
8
RASTER
10
100.334
20
38.136
30
0
0
VERTEX
8
RASTER
10
100.425
20
38.043
30
0
0
VERTEX
8
RASTER
10
100.475
20
37.897
30
0
0
VERTEX
8
RASTER
10
100.486
20
37.706
30
0
0
VERTEX
8
RASTER
10
100.459
20
37.476
30
0
0
VERTEX
8
RASTER
10
100.397
20
37.216
30
0
0
VERTEX
8
RASTER
10
100.299
20
36.932
30
0
0
VERTEX
8
RASTER
10
100.167
20
36.632
30
0
0
VERTEX
8
RASTER
10
100.003
20
36.322
30
0
0
VERTEX
8
RASTER
10
99.817
20
36.026
30
0
0
VERTEX
8
RASTER
10
99.623
20
35.762
30
0
0
VERTEX
8
RASTER
10
99.426
20
35.535
30
0
0
VERTEX
8
RASTER
10
99.232
20
35.35
30
0
0
VERTEX
8
RASTER
10
99.046
20
35.212
30
0
0
VERTEX
8
RASTER
10
98.875
20
35.126
30
0
0
VERTEX
8
RASTER
10
98.724
20
35.097
30
0
0
VERTEX
8
RASTER
10
98.598
20
35.129
30
0
0
VERTEX
8
RASTER
10
98.507
20
35.222
30
0
0
VERTEX
8
RASTER
10
98.457
20
35.368
30
0
0
VERTEX
8
RASTER
10
98.446
20
35.559
30
0
0
VERTEX
8
RASTER
10
98.473
20
35.788
30
0
0
VERTEX
8
RASTER
10
98.535
20
36.049
30
0
0
VERTEX
8
RASTER
10
98.633
20
36.333
30
0
0
VERTEX
8
RASTER
10
98.765
20
36.633
30
0
0
VERTEX
8
RASTER
10
98.929
20
36.942
30
0
0
VERTEX
8
RASTER
10
99.115
20
37.239
30
0
0
VERTEX
8
RASTER
10
99.309
20
37.503
30
0
0
VERTEX
8
RASTER
10
99.506
20
37.73
30
0
0
VERTEX
8
RASTER
10
99.7
20
37.915
30
0
0
VERTEX
8
RASTER
10
99.886
20
38.052
30
0
0
VERTEX
8
RASTER
10
100.057
20
38.138
30
0
0
VERTEX
8
RASTER
10
100.208
20
38.168
30
0
0
VERTEX
8
RASTER
10
100.334
20
38.136
30
0
0
SEQEND
8
RASTER
0
POLYLINE
8
RASTER
66
1
70
1
0
VERTEX
8
RASTER
10
102.318
20
35.303
30
0
0
VERTEX
8
RASTER
10
102.305
20
35.173
30
0
0
VERTEX
8
RASTER
10
102.225
20
35.041
30
0
0
VERTEX
8
RASTER
10
102.086
20
34.91
30
0
0
VERTEX
8
RASTER
10
101.893
20
34.783
30
0
0
VERTEX
8
RASTER
10
101.653
20
34.663
30
0
0
VERTEX
8
RASTER
10
101.373
20
34.556
30
0
0
VERTEX
8
RASTER
10
101.058
20
34.464
30
0
0
VERTEX
8
RASTER
10
100.716
20
34.391
30
0
0
VERTEX
8
RASTER
10
100.369
20
34.342
30
0
0
VERTEX
8
RASTER
10
100.042
20
34.321
30
0
0
VERTEX
8
RASTER
10
99.742
20
34.326
30
0
0
VERTEX
8
RASTER
10
99.475
20
34.356
30
0
0
VERTEX
8
RASTER
10
99.251
20
34.41
30
0
0
VERTEX
8
RASTER
10
99.075
20
34.486
30
0
0
VERTEX
8
RASTER
10
98.955
20
34.583
30
0
0
VERTEX
8
RASTER
10
98.899
20
34.7
30
0
0
VERTEX
8
RASTER
10
98.912
20
34.829
30
0
0
VERTEX
8
RASTER
10
98.991
20
34.961
30
0
0
VERTEX
8
RASTER
10
99.13
20
35.093
30
0
0
VERTEX
8
RASTER
10
99.323
20
35.22
30
0
0
VERTEX
8
RASTER
10
99.563
20
35.339
30
0
0
VERTEX
8
RASTER
10
99.844
20
35.446
30
0
0
VERTEX
8
RASTER
10
100.158
20
35.539
30
0
0
VERTEX
8
RASTER
10
100.501
20
35.612
30
0
0
VERTEX
8
RASTER
10
100.847
20
35.66
30
0
0
VERTEX
8
RASTER
10
101.174
20
35.681
30
0
0
VERTEX
8
RASTER
10
101.475
20
35.676
30
0
0
VERTEX
8
RASTER
10
101.741
20
35.646
30
0
0
VERTEX
8
RASTER
10
101.966
20
35.592
30
0
0
VERTEX
8
RASTER
10
102.142
20
35.517
30
0
0
VERTEX
8
RASTER
10
102.261
20
35.419
30
0
0
VERTEX
8
RASTER
10
102.318
20
35.303
30
0
0
SEQEND
8
RASTER
0
POLYLINE
8
RASTER
66
1
70
1
0
VERTEX
8
RASTER
10
101.423
20
31.962
30
0
0
VERTEX
8
RASTER
10
101.315
20
31.889
30
0
0
VERTEX
8
RASTER
10
101.163
20
31.865
30
0
0
VERTEX
8
RASTER
10
100.973
20
31.887
30
0
0
VERTEX
8
RASTER
10
100.751
20
31.953
30
0
0
VERTEX
8
RASTER
10
100.506
20
32.06
30
0
0
VERTEX
8
RASTER
10
100.243
20
32.206
30
0
0
VERTEX
8
RASTER
10
99.97
20
32.387
30
0
0
VERTEX
8
RASTER
10
99.694
20
32.603
30
0
0
VERTEX
8
RASTER
10
99.434
20
32.837
30
0
0
VERTEX
8
RASTER
10
99.208
20
33.074
30
0
0
VERTEX
8
RASTER
10
99.019
20
33.308
30
0
0
VERTEX
8
RASTER
10
98.871
20
33.531
30
0
0
VERTEX
8
RASTER
10
98.767
20
33.737
30
0
0
VERTEX
8
RASTER
10
98.712
20
33.921
30
0
0
VERTEX
8
RASTER
10
98.71
20
34.075
30
0
0
VERTEX
8
RASTER
10
98.763
20
34.193
30
0
0
VERTEX
8
RASTER
10
98.87
20
34.267
30
0
0
VERTEX
8
RASTER
10
99.023
20
34.291
30
0
0
VERTEX
8
RASTER
10
99.213
20
34.268
30
0
0
VERTEX
8
RASTER
10
99.434
20
34.202
30
0
0
VERTEX
8
RASTER
10
99.68
20
34.095
30
0
0
VERTEX
8
RASTER
10
99.942
20
33.95
30
0
0
VERTEX
8
RASTER
10
100.215
20
33.768
30
0
0
VERTEX
8
RASTER
10
100.491
20
33.553
30
0
0
VERTEX
8
RASTER
10
100.751
20
33.318
30
0
0
VERTEX
8
RASTER
10
100.978
20
33.081
30
0
0
VERTEX
8
RASTER
10
101.167
20
32.848
30
0
0
VERTEX
8
RASTER
10
101.315
20
32.624
30
0
0
VERTEX
8
RASTER
10
101.418
20
32.418
30
0
0
VERTEX
8
RASTER
10
101.473
20
32.234
30
0
0
VERTEX
8
RASTER
10
101.476
20
32.08
30
0
0
VERTEX
8
RASTER
10
101.423
20
31.962
30
0
0
SEQEND
8
RASTER
0
ENDSEC
0
EOF
