0
SECTION
2
HEADER
9
$ACADVER
1
AC1009
9
$EXTMIN
10
0
20
0
9
$EXTMAX
10
162.337
20
29
0
ENDSEC
0
SECTION
2
TABLES
0
TABLE
2
LAYER
70
2
0
LAYER
2
CUT
70
0
62
1
6
CONTINUOUS
0
LAYER
2
RASTER
70
0
62
7
6
CONTINUOUS
0
ENDTAB
0
ENDSEC
0
SECTION
2
ENTITIES
0
POLYLINE
8
CUT
66
1
70
1
0
VERTEX
8
CUT
10
12.444
20
24.75
30
0
0
VERTEX
8
CUT
10
12.66
20
24.859
30
0
0
VERTEX
8
CUT
10
12.877
20
24.938
30
0
0
VERTEX
8
CUT
10
13.093
20
24.984
30
0
0
VERTEX
8
CUT
10
13.31
20
25
30
0
0
VERTEX
8
CUT
10
13.526
20
24.984
30
0
0
VERTEX
8
CUT
10
13.743
20
24.938
30
0
0
VERTEX
8
CUT
10
13.959
20
24.859
30
0
0
VERTEX
8
CUT
10
14.176
20
24.75
30
0
0
VERTEX
8
CUT
10
21.754
20
20.375
30
0
0
VERTEX
8
CUT
10
21.956
20
20.242
30
0
0
VERTEX
8
CUT
10
22.132
20
20.094
30
0
0
VERTEX
8
CUT
10
22.281
20
19.93
30
0
0
VERTEX
8
CUT
10
22.403
20
19.75
30
0
0
VERTEX
8
CUT
10
22.498
20
19.555
30
0
0
VERTEX
8
CUT
10
22.565
20
19.344
30
0
0
VERTEX
8
CUT
10
22.606
20
19.117
30
0
0
VERTEX
8
CUT
10
22.62
20
18.875
30
0
0
VERTEX
8
CUT
10
22.62
20
10.125
30
0
0
VERTEX
8
CUT
10
22.606
20
9.883
30
0
0
VERTEX
8
CUT
10
22.565
20
9.656
30
0
0
VERTEX
8
CUT
10
22.498
20
9.445
30
0
0
VERTEX
8
CUT
10
22.403
20
9.25
30
0
0
VERTEX
8
CUT
10
22.281
20
9.07
30
0
0
VERTEX
8
CUT
10
22.132
20
8.906
30
0
0
VERTEX
8
CUT
10
21.956
20
8.758
30
0
0
VERTEX
8
CUT
10
21.754
20
8.625
30
0
0
VERTEX
8
CUT
10
14.176
20
4.25
30
0
0
VERTEX
8
CUT
10
13.959
20
4.141
30
0
0
VERTEX
8
CUT
10
13.743
20
4.063
30
0
0
VERTEX
8
CUT
10
13.526
20
4.016
30
0
0
VERTEX
8
CUT
10
13.31
20
4
30
0
0
VERTEX
8
CUT
10
13.093
20
4.016
30
0
0
VERTEX
8
CUT
10
12.877
20
4.063
30
0
0
VERTEX
8
CUT
10
12.66
20
4.141
30
0
0
VERTEX
8
CUT
10
12.444
20
4.25
30
0
0
VERTEX
8
CUT
10
4.866
20
8.625
30
0
0
VERTEX
8
CUT
10
4.663
20
8.758
30
0
0
VERTEX
8
CUT
10
4.487
20
8.906
30
0
0
VERTEX
8
CUT
10
4.338
20
9.07
30
0
0
VERTEX
8
CUT
10
4.217
20
9.25
30
0
0
VERTEX
8
CUT
10
4.122
20
9.445
30
0
0
VERTEX
8
CUT
10
4.054
20
9.656
30
0
0
VERTEX
8
CUT
10
4.014
20
9.883
30
0
0
VERTEX
8
CUT
10
4
20
10.125
30
0
0
VERTEX
8
CUT
10
4
20
18.875
30
0
0
VERTEX
8
CUT
10
4.014
20
19.117
30
0
0
VERTEX
8
CUT
10
4.054
20
19.344
30
0
0
VERTEX
8
CUT
10
4.122
20
19.555
30
0
0
VERTEX
8
CUT
10
4.217
20
19.75
30
0
0
VERTEX
8
CUT
10
4.338
20
19.93
30
0
0
VERTEX
8
CUT
10
4.487
20
20.094
30
0
0
VERTEX
8
CUT
10
4.663
20
20.242
30
0
0
VERTEX
8
CUT
10
4.866
20
20.375
30
0
0
SEQEND
8
CUT
0
POLYLINE
8
RASTER
66
1
70
1
0
VERTEX
8
RASTER
10
13.31
20
24.35
30
0
0
VERTEX
8
RASTER
10
21.84
20
19.425
30
0
0
VERTEX
8
RASTER
10
21.84
20
9.575
30
0
0
VERTEX
8
RASTER
10
13.31
20
4.65
30
0
0
VERTEX
8
RASTER
10
4.779
20
9.575
30
0
0
VERTEX
8
RASTER
10
4.779
20
19.425
30
0
0
SEQEND
8
RASTER
0
POLYLINE
8
RASTER
66
1
70
1
0
VERTEX
8
RASTER
10
13.31
20
23.75
30
0
0
VERTEX
8
RASTER
10
5.299
20
19.125
30
0
0
VERTEX
8
RASTER
10
5.299
20
9.875
30
0
0
VERTEX
8
RASTER
10
13.31
20
5.25
30
0
0
VERTEX
8
RASTER
10
21.321
20
9.875
30
0
0
VERTEX
8
RASTER
10
21.321
20
19.125
30
0
0
VERTEX
8
RASTER
10
13.31
20
23.75
30
0
0
SEQEND
8
RASTER
0
POLYLINE
8
RASTER
66
1
70
1
0
VERTEX
8
RASTER
10
13.124
20
11.162
30
0
0
VERTEX
8
RASTER
10
13.495
20
11.162
30
0
0
VERTEX
8
RASTER
10
13.619
20
8.566
30
0
0
VERTEX
8
RASTER
10
13.001
20
8.566
30
0
0
SEQEND
8
RASTER
0
POLYLINE
8
RASTER
66
1
70
1
0
VERTEX
8
RASTER
10
13.928
20
19.321
30
0
0
VERTEX
8
RASTER
10
13.915
20
19.11
30
0
0
VERTEX
8
RASTER
10
13.879
20
18.912
30
0
0
VERTEX
8
RASTER
10
13.822
20
18.734
30
0
0
VERTEX
8
RASTER
10
13.747
20
18.578
30
0
0
VERTEX
8
RASTER
10
13.655
20
18.45
30
0
0
VERTEX
8
RASTER
10
13.55
20
18.353
30
0
0
VERTEX
8
RASTER
10
13.434
20
18.292
30
0
0
VERTEX
8
RASTER
10
13.31
20
18.271
30
0
0
VERTEX
8
RASTER
10
13.185
20
18.292
30
0
0
VERTEX
8
RASTER
10
13.069
20
18.353
30
0
0
VERTEX
8
RASTER
10
12.964
20
18.45
30
0
0
VERTEX
8
RASTER
10
12.873
20
18.578
30
0
0
VERTEX
8
RASTER
10
12.797
20
18.734
30
0
0
VERTEX
8
RASTER
10
12.74
20
18.912
30
0
0
VERTEX
8
RASTER
10
12.704
20
19.11
30
0
0
VERTEX
8
RASTER
10
12.692
20
19.321
30
0
0
VERTEX
8
RASTER
10
12.704
20
19.533
30
0
0
VERTEX
8
RASTER
10
12.74
20
19.73
30
0
0
VERTEX
8
RASTER
10
12.797
20
19.909
30
0
0
VERTEX
8
RASTER
10
12.873
20
20.064
30
0
0
VERTEX
8
RASTER
10
12.964
20
20.193
30
0
0
VERTEX
8
RASTER
10
13.069
20
20.29
30
0
0
VERTEX
8
RASTER
10
13.185
20
20.351
30
0
0
VERTEX
8
RASTER
10
13.31
20
20.372
30
0
0
VERTEX
8
RASTER
10
13.434
20
20.351
30
0
0
VERTEX
8
RASTER
10
13.55
20
20.29
30
0
0
VERTEX
8
RASTER
10
13.655
20
20.193
30
0
0
VERTEX
8
RASTER
10
13.747
20
20.064
30
0
0
VERTEX
8
RASTER
10
13.822
20
19.909
30
0
0
VERTEX
8
RASTER
10
13.879
20
19.73
30
0
0
VERTEX
8
RASTER
10
13.915
20
19.533
30
0
0
VERTEX
8
RASTER
10
13.928
20
19.321
30
0
0
SEQEND
8
RASTER
0
POLYLINE
8
RASTER
66
1
70
1
0
VERTEX
8
RASTER
10
12.91
20
17.56
30
0
0
VERTEX
8
RASTER
10
13.016
20
17.348
30
0
0
VERTEX
8
RASTER
10
13.092
20
17.137
30
0
0
VERTEX
8
RASTER
10
13.137
20
16.933
30
0
0
VERTEX
8
RASTER
10
13.152
20
16.741
30
0
0
VERTEX
8
RASTER
10
13.137
20
16.566
30
0
0
VERTEX
8
RASTER
10
13.091
20
16.415
30
0
0
VERTEX
8
RASTER
10
13.015
20
16.292
30
0
0
VERTEX
8
RASTER
10
12.908
20
16.203
30
0
0
VERTEX
8
RASTER
10
12.777
20
16.155
30
0
0
VERTEX
8
RASTER
10
12.633
20
16.15
30
0
0
VERTEX
8
RASTER
10
12.478
20
16.186
30
0
0
VERTEX
8
RASTER
10
12.32
20
16.26
30
0
0
VERTEX
8
RASTER
10
12.161
20
16.369
30
0
0
VERTEX
8
RASTER
10
12.007
20
16.511
30
0
0
VERTEX
8
RASTER
10
11.862
20
16.682
30
0
0
VERTEX
8
RASTER
10
11.732
20
16.88
30
0
0
VERTEX
8
RASTER
10
11.626
20
17.092
30
0
0
VERTEX
8
RASTER
10
11.55
20
17.302
30
0
0
VERTEX
8
RASTER
10
11.504
20
17.507
30
0
0
VERTEX
8
RASTER
10
11.489
20
17.699
30
0
0
VERTEX
8
RASTER
10
11.505
20
17.873
30
0
0
VERTEX
8
RASTER
10
11.55
20
18.025
30
0
0
VERTEX
8
RASTER
10
11.627
20
18.148
30
0
0
VERTEX
8
RASTER
10
11.734
20
18.237
30
0
0
VERTEX
8
RASTER
10
11.864
20
18.285
30
0
0
VERTEX
8
RASTER
10
12.009
20
18.289
30
0
0
VERTEX
8
RASTER
10
12.163
20
18.253
30
0
0
VERTEX
8
RASTER
10
12.322
20
18.179
30
0
0
VERTEX
8
RASTER
10
12.481
20
18.07
30
0
0
VERTEX
8
RASTER
10
12.635
20
17.929
30
0
0
VERTEX
8
RASTER
10
12.779
20
17.758
30
0
0
VERTEX
8
RASTER
10
12.91
20
17.56
30
0
0
SEQEND
8
RASTER
0
POLYLINE
8
RASTER
66
1
70
1
0
VERTEX
8
RASTER
10
14.888
20
16.88
30
0
0
VERTEX
8
RASTER
10
14.757
20
16.682
30
0
0
VERTEX
8
RASTER
10
14.613
20
16.511
30
0
0
VERTEX
8
RASTER
10
14.459
20
16.369
30
0
0
VERTEX
8
RASTER
10
14.3
20
16.26
30
0
0
VERTEX
8
RASTER
10
14.141
20
16.186
30
0
0
VERTEX
8
RASTER
10
13.987
20
16.15
30
0
0
VERTEX
8
RASTER
10
13.842
20
16.155
30
0
0
VERTEX
8
RASTER
10
13.712
20
16.203
30
0
0
VERTEX
8
RASTER
10
13.605
20
16.292
30
0
0
VERTEX
8
RASTER
10
13.528
20
16.415
30
0
0
VERTEX
8
RASTER
10
13.483
20
16.566
30
0
0
VERTEX
8
RASTER
10
13.467
20
16.741
30
0
0
VERTEX
8
RASTER
10
13.482
20
16.933
30
0
0
VERTEX
8
RASTER
10
13.528
20
17.137
30
0
0
VERTEX
8
RASTER
10
13.604
20
17.348
30
0
0
VERTEX
8
RASTER
10
13.71
20
17.56
30
0
0
VERTEX
8
RASTER
10
13.84
20
17.758
30
0
0
VERTEX
8
RASTER
10
13.985
20
17.929
30
0
0
VERTEX
8
RASTER
10
14.139
20
18.07
30
0
0
VERTEX
8
RASTER
10
14.298
20
18.179
30
0
0
VERTEX
8
RASTER
10
14.456
20
18.253
30
0
0
VERTEX
8
RASTER
10
14.611
20
18.289
30
0
0
VERTEX
8
RASTER
10
14.755
20
18.285
30
0
0
VERTEX
8
RASTER
10
14.886
20
18.237
30
0
0
VERTEX
8
RASTER
10
14.993
20
18.148
30
0
0
VERTEX
8
RASTER
10
15.069
20
18.025
30
0
0
VERTEX
8
RASTER
10
15.115
20
17.873
30
0
0
VERTEX
8
RASTER
10
15.13
20
17.699
30
0
0
VERTEX
8
RASTER
10
15.115
20
17.507
30
0
0
VERTEX
8
RASTER
10
15.07
20
17.302
30
0
0
VERTEX
8
RASTER
10
14.994
20
17.092
30
0
0
VERTEX
8
RASTER
10
14.888
20
16.88
30
0
0
SEQEND
8
RASTER
0
POLYLINE
8
RASTER
66
1
70
1
0
VERTEX
8
RASTER
10
12.91
20
15.211
30
0
0
VERTEX
8
RASTER
10
13.016
20
14.999
30
0
0
VERTEX
8
RASTER
10
13.092
20
14.788
30
0
0
VERTEX
8
RASTER
10
13.137
20
14.584
30
0
0
VERTEX
8
RASTER
10
13.152
20
14.392
30
0
0
VERTEX
8
RASTER
10
13.137
20
14.218
30
0
0
VERTEX
8
RASTER
10
13.091
20
14.066
30
0
0
VERTEX
8
RASTER
10
13.015
20
13.943
30
0
0
VERTEX
8
RASTER
10
12.908
20
13.854
30
0
0
VERTEX
8
RASTER
10
12.777
20
13.806
30
0
0
VERTEX
8
RASTER
10
12.633
20
13.801
30
0
0
VERTEX
8
RASTER
10
12.478
20
13.837
30
0
0
VERTEX
8
RASTER
10
12.32
20
13.911
30
0
0
VERTEX
8
RASTER
10
12.161
20
14.02
30
0
0
VERTEX
8
RASTER
10
12.007
20
14.162
30
0
0
VERTEX
8
RASTER
10
11.862
20
14.333
30
0
0
VERTEX
8
RASTER
10
11.732
20
14.531
30
0
0
VERTEX
8
RASTER
10
11.626
20
14.743
30
0
0
VERTEX
8
RASTER
10
11.55
20
14.954
30
0
0
VERTEX
8
RASTER
10
11.504
20
15.158
30
0
0
VERTEX
8
RASTER
10
11.489
20
15.35
30
0
0
VERTEX
8
RASTER
10
11.505
20
15.524
30
0
0
VERTEX
8
RASTER
10
11.55
20
15.676
30
0
0
VERTEX
8
RASTER
10
11.627
20
15.799
30
0
0
VERTEX
8
RASTER
10
11.734
20
15.888
30
0
0
VERTEX
8
RASTER
10
11.864
20
15.936
30
0
0
VERTEX
8
RASTER
10
12.009
20
15.94
30
0
0
VERTEX
8
RASTER
10
12.163
20
15.904
30
0
0
VERTEX
8
RASTER
10
12.322
20
15.83
30
0
0
VERTEX
8
RASTER
10
12.481
20
15.721
30
0
0
VERTEX
8
RASTER
10
12.635
20
15.58
30
0
0
VERTEX
8
RASTER
10
12.779
20
15.409
30
0
0
VERTEX
8
RASTER
10
12.91
20
15.211
30
0
0
SEQEND
8
RASTER
0
POLYLINE
8
RASTER
66
1
70
1
0
VERTEX
8
RASTER
10
14.888
20
14.531
30
0
0
VERTEX
8
RASTER
10
14.757
20
14.333
30
0
0
VERTEX
8
RASTER
10
14.613
20
14.162
30
0
0
VERTEX
8
RASTER
10
14.459
20
14.02
30
0
0
VERTEX
8
RASTER
10
14.3
20
13.911
30
0
0
VERTEX
8
RASTER
10
14.141
20
13.837
30
0
0
VERTEX
8
RASTER
10
13.987
20
13.801
30
0
0
VERTEX
8
RASTER
10
13.842
20
13.806
30
0
0
VERTEX
8
RASTER
10
13.712
20
13.854
30
0
0
VERTEX
8
RASTER
10
13.605
20
13.943
30
0
0
VERTEX
8
RASTER
10
13.528
20
14.066
30
0
0
VERTEX
8
RASTER
10
13.483
20
14.218
30
0
0
VERTEX
8
RASTER
10
13.467
20
14.392
30
0
0
VERTEX
8
RASTER
10
13.482
20
14.584
30
0
0
VERTEX
8
RASTER
10
13.528
20
14.788
30
0
0
VERTEX
8
RASTER
10
13.604
20
14.999
30
0
0
VERTEX
8
RASTER
10
13.71
20
15.211
30
0
0
VERTEX
8
RASTER
10
13.84
20
15.409
30
0
0
VERTEX
8
RASTER
10
13.985
20
15.58
30
0
0
VERTEX
8
RASTER
10
14.139
20
15.721
30
0
0
VERTEX
8
RASTER
10
14.298
20
15.83
30
0
0
VERTEX
8
RASTER
10
14.456
20
15.904
30
0
0
VERTEX
8
RASTER
10
14.611
20
15.94
30
0
0
VERTEX
8
RASTER
10
14.755
20
15.936
30
0
0
VERTEX
8
RASTER
10
14.886
20
15.888
30
0
0
VERTEX
8
RASTER
10
14.993
20
15.799
30
0
0
VERTEX
8
RASTER
10
15.069
20
15.676
30
0
0
VERTEX
8
RASTER
10
15.115
20
15.524
30
0
0
VERTEX
8
RASTER
10
15.13
20
15.35
30
0
0
VERTEX
8
RASTER
10
15.115
20
15.158
30
0
0
VERTEX
8
RASTER
10
15.07
20
14.954
30
0
0
VERTEX
8
RASTER
10
14.994
20
14.743
30
0
0
VERTEX
8
RASTER
10
14.888
20
14.531
30
0
0
SEQEND
8
RASTER
0
POLYLINE
8
RASTER
66
1
70
1
0
VERTEX
8
RASTER
10
12.91
20
12.862
30
0
0
VERTEX
8
RASTER
10
13.016
20
12.65
30
0
0
VERTEX
8
RASTER
10
13.092
20
12.439
30
0
0
VERTEX
8
RASTER
10
13.137
20
12.235
30
0
0
VERTEX
8
RASTER
10
13.152
20
12.043
30
0
0
VERTEX
8
RASTER
10
13.137
20
11.869
30
0
0
VERTEX
8
RASTER
10
13.091
20
11.717
30
0
0
VERTEX
8
RASTER
10
13.015
20
11.594
30
0
0
VERTEX
8
RASTER
10
12.908
20
11.505
30
0
0
VERTEX
8
RASTER
10
12.777
20
11.457
30
0
0
VERTEX
8
RASTER
10
12.633
20
11.453
30
0
0
VERTEX
8
RASTER
10
12.478
20
11.489
30
0
0
VERTEX
8
RASTER
10
12.32
20
11.562
30
0
0
VERTEX
8
RASTER
10
12.161
20
11.671
30
0
0
VERTEX
8
RASTER
10
12.007
20
11.813
30
0
0
VERTEX
8
RASTER
10
11.862
20
11.984
30
0
0
VERTEX
8
RASTER
10
11.732
20
12.182
30
0
0
VERTEX
8
RASTER
10
11.626
20
12.394
30
0
0
VERTEX
8
RASTER
10
11.55
20
12.605
30
0
0
VERTEX
8
RASTER
10
11.504
20
12.809
30
0
0
VERTEX
8
RASTER
10
11.489
20
13.001
30
0
0
VERTEX
8
RASTER
10
11.505
20
13.175
30
0
0
VERTEX
8
RASTER
10
11.55
20
13.327
30
0
0
VERTEX
8
RASTER
10
11.627
20
13.45
30
0
0
VERTEX
8
RASTER
10
11.734
20
13.539
30
0
0
VERTEX
8
RASTER
10
11.864
20
13.587
30
0
0
VERTEX
8
RASTER
10
12.009
20
13.591
30
0
0
VERTEX
8
RASTER
10
12.163
20
13.555
30
0
0
VERTEX
8
RASTER
10
12.322
20
13.482
30
0
0
VERTEX
8
RASTER
10
12.481
20
13.373
30
0
0
VERTEX
8
RASTER
10
12.635
20
13.231
30
0
0
VERTEX
8
RASTER
10
12.779
20
13.06
30
0
0
VERTEX
8
RASTER
10
12.91
20
12.862
30
0
0
SEQEND
8
RASTER
0
POLYLINE
8
RASTER
66
1
70
1
0
VERTEX
8
RASTER
10
14.888
20
12.182
30
0
0
VERTEX
8
RASTER
10
14.757
20
11.984
30
0
0
VERTEX
8
RASTER
10
14.613
20
11.813
30
0
0
VERTEX
8
RASTER
10
14.459
20
11.671
30
0
0
VERTEX
8
RASTER
10
14.3
20
11.562
30
0
0
VERTEX
8
RASTER
10
14.141
20
11.489
30
0
0
VERTEX
8
RASTER
10
13.987
20
11.453
30
0
0
VERTEX
8
RASTER
10
13.842
20
11.457
30
0
0
VERTEX
8
RASTER
10
13.712
20
11.505
30
0
0
VERTEX
8
RASTER
10
13.605
20
11.594
30
0
0
VERTEX
8
RASTER
10
13.528
20
11.717
30
0
0
VERTEX
8
RASTER
10
13.483
20
11.869
30
0
0
VERTEX
8
RASTER
10
13.467
20
12.043
30
0
0
VERTEX
8
RASTER
10
13.482
20
12.235
30
0
0
VERTEX
8
RASTER
10
13.528
20
12.439
30
0
0
VERTEX
8
RASTER
10
13.604
20
12.65
30
0
0
VERTEX
8
RASTER
10
13.71
20
12.862
30
0
0
VERTEX
8
RASTER
10
13.84
20
13.06
30
0
0
VERTEX
8
RASTER
10
13.985
20
13.231
30
0
0
VERTEX
8
RASTER
10
14.139
20
13.373
30
0
0
VERTEX
8
RASTER
10
14.298
20
13.482
30
0
0
VERTEX
8
RASTER
10
14.456
20
13.555
30
0
0
VERTEX
8
RASTER
10
14.611
20
13.591
30
0
0
VERTEX
8
RASTER
10
14.755
20
13.587
30
0
0
VERTEX
8
RASTER
10
14.886
20
13.539
30
0
0
VERTEX
8
RASTER
10
14.993
20
13.45
30
0
0
VERTEX
8
RASTER
10
15.069
20
13.327
30
0
0
VERTEX
8
RASTER
10
15.115
20
13.175
30
0
0
VERTEX
8
RASTER
10
15.13
20
13.001
30
0
0
VERTEX
8
RASTER
10
15.115
20
12.809
30
0
0
VERTEX
8
RASTER
10
15.07
20
12.605
30
0
0
VERTEX
8
RASTER
10
14.994
20
12.394
30
0
0
VERTEX
8
RASTER
10
14.888
20
12.182
30
0
0
SEQEND
8
RASTER
0
POLYLINE
8
CUT
66
1
70
1
0
VERTEX
8
CUT
10
35.063
20
24.75
30
0
0
VERTEX
8
CUT
10
35.28
20
24.859
30
0
0
VERTEX
8
CUT
10
35.496
20
24.938
30
0
0
VERTEX
8
CUT
10
35.713
20
24.984
30
0
0
VERTEX
8
CUT
10
35.929
20
25
30
0
0
VERTEX
8
CUT
10
36.146
20
24.984
30
0
0
VERTEX
8
CUT
10
36.362
20
24.938
30
0
0
VERTEX
8
CUT
10
36.579
20
24.859
30
0
0
VERTEX
8
CUT
10
36.795
20
24.75
30
0
0
VERTEX
8
CUT
10
44.373
20
20.375
30
0
0
VERTEX
8
CUT
10
44.576
20
20.242
30
0
0
VERTEX
8
CUT
10
44.752
20
20.094
30
0
0
VERTEX
8
CUT
10
44.901
20
19.93
30
0
0
VERTEX
8
CUT
10
45.023
20
19.75
30
0
0
VERTEX
8
CUT
10
45.117
20
19.555
30
0
0
VERTEX
8
CUT
10
45.185
20
19.344
30
0
0
VERTEX
8
CUT
10
45.226
20
19.117
30
0
0
VERTEX
8
CUT
10
45.239
20
18.875
30
0
0
VERTEX
8
CUT
10
45.239
20
10.125
30
0
0
VERTEX
8
CUT
10
45.226
20
9.883
30
0
0
VERTEX
8
CUT
10
45.185
20
9.656
30
0
0
VERTEX
8
CUT
10
45.117
20
9.445
30
0
0
VERTEX
8
CUT
10
45.023
20
9.25
30
0
0
VERTEX
8
CUT
10
44.901
20
9.07
30
0
0
VERTEX
8
CUT
10
44.752
20
8.906
30
0
0
VERTEX
8
CUT
10
44.576
20
8.758
30
0
0
VERTEX
8
CUT
10
44.373
20
8.625
30
0
0
VERTEX
8
CUT
10
36.795
20
4.25
30
0
0
VERTEX
8
CUT
10
36.579
20
4.141
30
0
0
VERTEX
8
CUT
10
36.362
20
4.063
30
0
0
VERTEX
8
CUT
10
36.146
20
4.016
30
0
0
VERTEX
8
CUT
10
35.929
20
4
30
0
0
VERTEX
8
CUT
10
35.713
20
4.016
30
0
0
VERTEX
8
CUT
10
35.496
20
4.063
30
0
0
VERTEX
8
CUT
10
35.28
20
4.141
30
0
0
VERTEX
8
CUT
10
35.063
20
4.25
30
0
0
VERTEX
8
CUT
10
27.486
20
8.625
30
0
0
VERTEX
8
CUT
10
27.283
20
8.758
30
0
0
VERTEX
8
CUT
10
27.107
20
8.906
30
0
0
VERTEX
8
CUT
10
26.958
20
9.07
30
0
0
VERTEX
8
CUT
10
26.836
20
9.25
30
0
0
VERTEX
8
CUT
10
26.741
20
9.445
30
0
0
VERTEX
8
CUT
10
26.674
20
9.656
30
0
0
VERTEX
8
CUT
10
26.633
20
9.883
30
0
0
VERTEX
8
CUT
10
26.62
20
10.125
30
0
0
VERTEX
8
CUT
10
26.62
20
18.875
30
0
0
VERTEX
8
CUT
10
26.633
20
19.117
30
0
0
VERTEX
8
CUT
10
26.674
20
19.344
30
0
0
VERTEX
8
CUT
10
26.741
20
19.555
30
0
0
VERTEX
8
CUT
10
26.836
20
19.75
30
0
0
VERTEX
8
CUT
10
26.958
20
19.93
30
0
0
VERTEX
8
CUT
10
27.107
20
20.094
30
0
0
VERTEX
8
CUT
10
27.283
20
20.242
30
0
0
VERTEX
8
CUT
10
27.486
20
20.375
30
0
0
SEQEND
8
CUT
0
POLYLINE
8
RASTER
66
1
70
1
0
VERTEX
8
RASTER
10
35.929
20
24.35
30
0
0
VERTEX
8
RASTER
10
44.46
20
19.425
30
0
0
VERTEX
8
RASTER
10
44.46
20
9.575
30
0
0
VERTEX
8
RASTER
10
35.929
20
4.65
30
0
0
VERTEX
8
RASTER
10
27.399
20
9.575
30
0
0
VERTEX
8
RASTER
10
27.399
20
19.425
30
0
0
SEQEND
8
RASTER
0
POLYLINE
8
RASTER
66
1
70
1
0
VERTEX
8
RASTER
10
35.929
20
23.75
30
0
0
VERTEX
8
RASTER
10
27.919
20
19.125
30
0
0
VERTEX
8
RASTER
10
27.919
20
9.875
30
0
0
VERTEX
8
RASTER
10
35.929
20
5.25
30
0
0
VERTEX
8
RASTER
10
43.94
20
9.875
30
0
0
VERTEX
8
RASTER
10
43.94
20
19.125
30
0
0
VERTEX
8
RASTER
10
35.929
20
23.75
30
0
0
SEQEND
8
RASTER
0
POLYLINE
8
RASTER
66
1
70
1
0
VERTEX
8
RASTER
10
34.446
20
16.973
30
0
0
VERTEX
8
RASTER
10
37.413
20
16.973
30
0
0
VERTEX
8
RASTER
10
37.471
20
16.715
30
0
0
VERTEX
8
RASTER
10
37.625
20
16.486
30
0
0
VERTEX
8
RASTER
10
37.843
20
16.268
30
0
0
VERTEX
8
RASTER
10
38.093
20
16.045
30
0
0
VERTEX
8
RASTER
10
38.342
20
15.799
30
0
0
VERTEX
8
RASTER
10
38.56
20
15.512
30
0
0
VERTEX
8
RASTER
10
38.714
20
15.167
30
0
0
VERTEX
8
RASTER
10
38.773
20
14.747
30
0
0
VERTEX
8
RASTER
10
38.773
20
10.05
30
0
0
VERTEX
8
RASTER
10
38.732
20
9.712
30
0
0
VERTEX
8
RASTER
10
38.607
20
9.439
30
0
0
VERTEX
8
RASTER
10
38.395
20
9.224
30
0
0
VERTEX
8
RASTER
10
38.093
20
9.061
30
0
0
VERTEX
8
RASTER
10
37.698
20
8.944
30
0
0
VERTEX
8
RASTER
10
37.208
20
8.867
30
0
0
VERTEX
8
RASTER
10
36.619
20
8.826
30
0
0
VERTEX
8
RASTER
10
35.929
20
8.813
30
0
0
VERTEX
8
RASTER
10
35.239
20
8.826
30
0
0
VERTEX
8
RASTER
10
34.651
20
8.867
30
0
0
VERTEX
8
RASTER
10
34.16
20
8.944
30
0
0
VERTEX
8
RASTER
10
33.766
20
9.061
30
0
0
VERTEX
8
RASTER
10
33.464
20
9.224
30
0
0
VERTEX
8
RASTER
10
33.252
20
9.439
30
0
0
VERTEX
8
RASTER
10
33.127
20
9.712
30
0
0
VERTEX
8
RASTER
10
33.086
20
10.05
30
0
0
VERTEX
8
RASTER
10
33.086
20
14.747
30
0
0
VERTEX
8
RASTER
10
33.144
20
15.167
30
0
0
VERTEX
8
RASTER
10
33.298
20
15.512
30
0
0
VERTEX
8
RASTER
10
33.516
20
15.799
30
0
0
VERTEX
8
RASTER
10
33.766
20
16.045
30
0
0
VERTEX
8
RASTER
10
34.016
20
16.268
30
0
0
VERTEX
8
RASTER
10
34.233
20
16.486
30
0
0
VERTEX
8
RASTER
10
34.387
20
16.715
30
0
0
VERTEX
8
RASTER
10
34.446
20
16.973
30
0
0
SEQEND
8
RASTER
0
POLYLINE
8
RASTER
66
1
70
1
0
VERTEX
8
RASTER
10
33.58
20
13.758
30
0
0
VERTEX
8
RASTER
10
33.58
20
12.028
30
0
0
VERTEX
8
RASTER
10
38.278
20
12.028
30
0
0
VERTEX
8
RASTER
10
38.278
20
13.758
30
0
0
VERTEX
8
RASTER
10
33.58
20
13.758
30
0
0
SEQEND
8
RASTER
0
POLYLINE
8
RASTER
66
1
70
1
0
VERTEX
8
RASTER
10
34.199
20
18.95
30
0
0
VERTEX
8
RASTER
10
34.202
20
19.008
30
0
0
VERTEX
8
RASTER
10
34.214
20
19.059
30
0
0
VERTEX
8
RASTER
10
34.233
20
19.101
30
0
0
VERTEX
8
RASTER
10
34.26
20
19.136
30
0
0
VERTEX
8
RASTER
10
34.295
20
19.163
30
0
0
VERTEX
8
RASTER
10
34.338
20
19.182
30
0
0
VERTEX
8
RASTER
10
34.388
20
19.194
30
0
0
VERTEX
8
RASTER
10
34.446
20
19.198
30
0
0
VERTEX
8
RASTER
10
37.413
20
19.198
30
0
0
VERTEX
8
RASTER
10
37.471
20
19.194
30
0
0
VERTEX
8
RASTER
10
37.521
20
19.182
30
0
0
VERTEX
8
RASTER
10
37.563
20
19.163
30
0
0
VERTEX
8
RASTER
10
37.598
20
19.136
30
0
0
VERTEX
8
RASTER
10
37.625
20
19.101
30
0
0
VERTEX
8
RASTER
10
37.645
20
19.059
30
0
0
VERTEX
8
RASTER
10
37.656
20
19.008
30
0
0
VERTEX
8
RASTER
10
37.66
20
18.95
30
0
0
VERTEX
8
RASTER
10
37.66
20
18.456
30
0
0
VERTEX
8
RASTER
10
37.656
20
18.398
30
0
0
VERTEX
8
RASTER
10
37.645
20
18.348
30
0
0
VERTEX
8
RASTER
10
37.625
20
18.305
30
0
0
VERTEX
8
RASTER
10
37.598
20
18.271
30
0
0
VERTEX
8
RASTER
10
37.563
20
18.244
30
0
0
VERTEX
8
RASTER
10
37.521
20
18.224
30
0
0
VERTEX
8
RASTER
10
37.471
20
18.213
30
0
0
VERTEX
8
RASTER
10
37.413
20
18.209
30
0
0
VERTEX
8
RASTER
10
34.446
20
18.209
30
0
0
VERTEX
8
RASTER
10
34.388
20
18.213
30
0
0
VERTEX
8
RASTER
10
34.338
20
18.224
30
0
0
VERTEX
8
RASTER
10
34.295
20
18.244
30
0
0
VERTEX
8
RASTER
10
34.26
20
18.271
30
0
0
VERTEX
8
RASTER
10
34.233
20
18.305
30
0
0
VERTEX
8
RASTER
10
34.214
20
18.348
30
0
0
VERTEX
8
RASTER
10
34.202
20
18.398
30
0
0
VERTEX
8
RASTER
10
34.199
20
18.456
30
0
0
SEQEND
8
RASTER
0
POLYLINE
8
RASTER
66
1
70
1
0
VERTEX
8
RASTER
10
34.446
20
18.085
30
0
0
VERTEX
8
RASTER
10
37.413
20
18.085
30
0
0
VERTEX
8
RASTER
10
37.413
20
17.22
30
0
0
VERTEX
8
RASTER
10
34.446
20
17.22
30
0
0
SEQEND
8
RASTER
0
POLYLINE
8
CUT
66
1
70
1
0
VERTEX
8
CUT
10
57.683
20
24.75
30
0
0
VERTEX
8
CUT
10
57.899
20
24.859
30
0
0
VERTEX
8
CUT
10
58.116
20
24.938
30
0
0
VERTEX
8
CUT
10
58.332
20
24.984
30
0
0
VERTEX
8
CUT
10
58.549
20
25
30
0
0
VERTEX
8
CUT
10
58.765
20
24.984
30
0
0
VERTEX
8
CUT
10
58.982
20
24.938
30
0
0
VERTEX
8
CUT
10
59.198
20
24.859
30
0
0
VERTEX
8
CUT
10
59.415
20
24.75
30
0
0
VERTEX
8
CUT
10
66.993
20
20.375
30
0
0
VERTEX
8
CUT
10
67.196
20
20.242
30
0
0
VERTEX
8
CUT
10
67.371
20
20.094
30
0
0
VERTEX
8
CUT
10
67.52
20
19.93
30
0
0
VERTEX
8
CUT
10
67.642
20
19.75
30
0
0
VERTEX
8
CUT
10
67.737
20
19.555
30
0
0
VERTEX
8
CUT
10
67.805
20
19.344
30
0
0
VERTEX
8
CUT
10
67.845
20
19.117
30
0
0
VERTEX
8
CUT
10
67.859
20
18.875
30
0
0
VERTEX
8
CUT
10
67.859
20
10.125
30
0
0
VERTEX
8
CUT
10
67.845
20
9.883
30
0
0
VERTEX
8
CUT
10
67.805
20
9.656
30
0
0
VERTEX
8
CUT
10
67.737
20
9.445
30
0
0
VERTEX
8
CUT
10
67.642
20
9.25
30
0
0
VERTEX
8
CUT
10
67.52
20
9.07
30
0
0
VERTEX
8
CUT
10
67.371
20
8.906
30
0
0
VERTEX
8
CUT
10
67.196
20
8.758
30
0
0
VERTEX
8
CUT
10
66.993
20
8.625
30
0
0
VERTEX
8
CUT
10
59.415
20
4.25
30
0
0
VERTEX
8
CUT
10
59.198
20
4.141
30
0
0
VERTEX
8
CUT
10
58.982
20
4.063
30
0
0
VERTEX
8
CUT
10
58.765
20
4.016
30
0
0
VERTEX
8
CUT
10
58.549
20
4
30
0
0
VERTEX
8
CUT
10
58.332
20
4.016
30
0
0
VERTEX
8
CUT
10
58.116
20
4.063
30
0
0
VERTEX
8
CUT
10
57.899
20
4.141
30
0
0
VERTEX
8
CUT
10
57.683
20
4.25
30
0
0
VERTEX
8
CUT
10
50.105
20
8.625
30
0
0
VERTEX
8
CUT
10
49.902
20
8.758
30
0
0
VERTEX
8
CUT
10
49.726
20
8.906
30
0
0
VERTEX
8
CUT
10
49.577
20
9.07
30
0
0
VERTEX
8
CUT
10
49.456
20
9.25
30
0
0
VERTEX
8
CUT
10
49.361
20
9.445
30
0
0
VERTEX
8
CUT
10
49.293
20
9.656
30
0
0
VERTEX
8
CUT
10
49.253
20
9.883
30
0
0
VERTEX
8
CUT
10
49.239
20
10.125
30
0
0
VERTEX
8
CUT
10
49.239
20
18.875
30
0
0
VERTEX
8
CUT
10
49.253
20
19.117
30
0
0
VERTEX
8
CUT
10
49.293
20
19.344
30
0
0
VERTEX
8
CUT
10
49.361
20
19.555
30
0
0
VERTEX
8
CUT
10
49.456
20
19.75
30
0
0
VERTEX
8
CUT
10
49.577
20
19.93
30
0
0
VERTEX
8
CUT
10
49.726
20
20.094
30
0
0
VERTEX
8
CUT
10
49.902
20
20.242
30
0
0
VERTEX
8
CUT
10
50.105
20
20.375
30
0
0
SEQEND
8
CUT
0
POLYLINE
8
RASTER
66
1
70
1
0
VERTEX
8
RASTER
10
58.549
20
24.35
30
0
0
VERTEX
8
RASTER
10
67.079
20
19.425
30
0
0
VERTEX
8
RASTER
10
67.079
20
9.575
30
0
0
VERTEX
8
RASTER
10
58.549
20
4.65
30
0
0
VERTEX
8
RASTER
10
50.019
20
9.575
30
0
0
VERTEX
8
RASTER
10
50.019
20
19.425
30
0
0
SEQEND
8
RASTER
0
POLYLINE
8
RASTER
66
1
70
1
0
VERTEX
8
RASTER
10
58.549
20
23.75
30
0
0
VERTEX
8
RASTER
10
50.538
20
19.125
30
0
0
VERTEX
8
RASTER
10
50.538
20
9.875
30
0
0
VERTEX
8
RASTER
10
58.549
20
5.25
30
0
0
VERTEX
8
RASTER
10
66.56
20
9.875
30
0
0
VERTEX
8
RASTER
10
66.56
20
19.125
30
0
0
VERTEX
8
RASTER
10
58.549
20
23.75
30
0
0
SEQEND
8
RASTER
0
POLYLINE
8
RASTER
66
1
70
1
0
VERTEX
8
RASTER
10
56.818
20
17.887
30
0
0
VERTEX
8
RASTER
10
58.969
20
16.651
30
0
0
VERTEX
8
RASTER
10
56.818
20
15.415
30
0
0
VERTEX
8
RASTER
10
54.667
20
16.651
30
0
0
SEQEND
8
RASTER
0
POLYLINE
8
RASTER
66
1
70
1
0
VERTEX
8
RASTER
10
54.516
20
16.391
30
0
0
VERTEX
8
RASTER
10
56.668
20
15.155
30
0
0
VERTEX
8
RASTER
10
56.668
20
12.683
30
0
0
VERTEX
8
RASTER
10
54.516
20
13.919
30
0
0
SEQEND
8
RASTER
0
POLYLINE
8
RASTER
66
1
70
1
0
VERTEX
8
RASTER
10
56.969
20
15.155
30
0
0
VERTEX
8
RASTER
10
59.12
20
16.391
30
0
0
VERTEX
8
RASTER
10
59.12
20
13.919
30
0
0
VERTEX
8
RASTER
10
56.969
20
12.683
30
0
0
SEQEND
8
RASTER
0
POLYLINE
8
RASTER
66
1
70
1
0
VERTEX
8
RASTER
10
60.527
20
14.797
30
0
0
VERTEX
8
RASTER
10
62.14
20
13.87
30
0
0
VERTEX
8
RASTER
10
60.527
20
12.942
30
0
0
VERTEX
8
RASTER
10
58.914
20
13.87
30
0
0
SEQEND
8
RASTER
0
POLYLINE
8
RASTER
66
1
70
1
0
VERTEX
8
RASTER
10
58.763
20
13.61
30
0
0
VERTEX
8
RASTER
10
60.376
20
12.683
30
0
0
VERTEX
8
RASTER
10
60.376
20
10.828
30
0
0
VERTEX
8
RASTER
10
58.763
20
11.756
30
0
0
SEQEND
8
RASTER
0
POLYLINE
8
RASTER
66
1
70
1
0
VERTEX
8
RASTER
10
60.677
20
12.683
30
0
0
VERTEX
8
RASTER
10
62.291
20
13.61
30
0
0
VERTEX
8
RASTER
10
62.291
20
11.756
30
0
0
VERTEX
8
RASTER
10
60.677
20
10.828
30
0
0
SEQEND
8
RASTER
0
POLYLINE
8
CUT
66
1
70
1
0
VERTEX
8
CUT
10
80.302
20
24.75
30
0
0
VERTEX
8
CUT
10
80.519
20
24.859
30
0
0
VERTEX
8
CUT
10
80.735
20
24.938
30
0
0
VERTEX
8
CUT
10
80.952
20
24.984
30
0
0
VERTEX
8
CUT
10
81.168
20
25
30
0
0
VERTEX
8
CUT
10
81.385
20
24.984
30
0
0
VERTEX
8
CUT
10
81.601
20
24.938
30
0
0
VERTEX
8
CUT
10
81.818
20
24.859
30
0
0
VERTEX
8
CUT
10
82.034
20
24.75
30
0
0
VERTEX
8
CUT
10
89.612
20
20.375
30
0
0
VERTEX
8
CUT
10
89.815
20
20.242
30
0
0
VERTEX
8
CUT
10
89.991
20
20.094
30
0
0
VERTEX
8
CUT
10
90.14
20
19.93
30
0
0
VERTEX
8
CUT
10
90.262
20
19.75
30
0
0
VERTEX
8
CUT
10
90.356
20
19.555
30
0
0
VERTEX
8
CUT
10
90.424
20
19.344
30
0
0
VERTEX
8
CUT
10
90.465
20
19.117
30
0
0
VERTEX
8
CUT
10
90.478
20
18.875
30
0
0
VERTEX
8
CUT
10
90.478
20
10.125
30
0
0
VERTEX
8
CUT
10
90.465
20
9.883
30
0
0
VERTEX
8
CUT
10
90.424
20
9.656
30
0
0
VERTEX
8
CUT
10
90.356
20
9.445
30
0
0
VERTEX
8
CUT
10
90.262
20
9.25
30
0
0
VERTEX
8
CUT
10
90.14
20
9.07
30
0
0
VERTEX
8
CUT
10
89.991
20
8.906
30
0
0
VERTEX
8
CUT
10
89.815
20
8.758
30
0
0
VERTEX
8
CUT
10
89.612
20
8.625
30
0
0
VERTEX
8
CUT
10
82.034
20
4.25
30
0
0
VERTEX
8
CUT
10
81.818
20
4.141
30
0
0
VERTEX
8
CUT
10
81.601
20
4.063
30
0
0
VERTEX
8
CUT
10
81.385
20
4.016
30
0
0
VERTEX
8
CUT
10
81.168
20
4
30
0
0
VERTEX
8
CUT
10
80.952
20
4.016
30
0
0
VERTEX
8
CUT
10
80.735
20
4.063
30
0
0
VERTEX
8
CUT
10
80.519
20
4.141
30
0
0
VERTEX
8
CUT
10
80.302
20
4.25
30
0
0
VERTEX
8
CUT
10
72.725
20
8.625
30
0
0
VERTEX
8
CUT
10
72.522
20
8.758
30
0
0
VERTEX
8
CUT
10
72.346
20
8.906
30
0
0
VERTEX
8
CUT
10
72.197
20
9.07
30
0
0
VERTEX
8
CUT
10
72.075
20
9.25
30
0
0
VERTEX
8
CUT
10
71.98
20
9.445
30
0
0
VERTEX
8
CUT
10
71.913
20
9.656
30
0
0
VERTEX
8
CUT
10
71.872
20
9.883
30
0
0
VERTEX
8
CUT
10
71.859
20
10.125
30
0
0
VERTEX
8
CUT
10
71.859
20
18.875
30
0
0
VERTEX
8
CUT
10
71.872
20
19.117
30
0
0
VERTEX
8
CUT
10
71.913
20
19.344
30
0
0
VERTEX
8
CUT
10
71.98
20
19.555
30
0
0
VERTEX
8
CUT
10
72.075
20
19.75
30
0
0
VERTEX
8
CUT
10
72.197
20
19.93
30
0
0
VERTEX
8
CUT
10
72.346
20
20.094
30
0
0
VERTEX
8
CUT
10
72.522
20
20.242
30
0
0
VERTEX
8
CUT
10
72.725
20
20.375
30
0
0
SEQEND
8
CUT
0
POLYLINE
8
RASTER
66
1
70
1
0
VERTEX
8
RASTER
10
81.168
20
24.35
30
0
0
VERTEX
8
RASTER
10
89.699
20
19.425
30
0
0
VERTEX
8
RASTER
10
89.699
20
9.575
30
0
0
VERTEX
8
RASTER
10
81.168
20
4.65
30
0
0
VERTEX
8
RASTER
10
72.638
20
9.575
30
0
0
VERTEX
8
RASTER
10
72.638
20
19.425
30
0
0
SEQEND
8
RASTER
0
POLYLINE
8
RASTER
66
1
70
1
0
VERTEX
8
RASTER
10
81.168
20
23.75
30
0
0
VERTEX
8
RASTER
10
73.158
20
19.125
30
0
0
VERTEX
8
RASTER
10
73.158
20
9.875
30
0
0
VERTEX
8
RASTER
10
81.168
20
5.25
30
0
0
VERTEX
8
RASTER
10
89.179
20
9.875
30
0
0
VERTEX
8
RASTER
10
89.179
20
19.125
30
0
0
VERTEX
8
RASTER
10
81.168
20
23.75
30
0
0
SEQEND
8
RASTER
0
POLYLINE
8
RASTER
66
1
70
1
0
VERTEX
8
RASTER
10
81.168
20
19.94
30
0
0
VERTEX
8
RASTER
10
81.977
20
19.774
30
0
0
VERTEX
8
RASTER
10
82.725
20
19.314
30
0
0
VERTEX
8
RASTER
10
83.398
20
18.61
30
0
0
VERTEX
8
RASTER
10
83.981
20
17.714
30
0
0
VERTEX
8
RASTER
10
84.459
20
16.68
30
0
0
VERTEX
8
RASTER
10
84.819
20
15.559
30
0
0
VERTEX
8
RASTER
10
85.046
20
14.402
30
0
0
VERTEX
8
RASTER
10
85.124
20
13.264
30
0
0
VERTEX
8
RASTER
10
85.046
20
12.368
30
0
0
VERTEX
8
RASTER
10
84.819
20
11.545
30
0
0
VERTEX
8
RASTER
10
84.459
20
10.808
30
0
0
VERTEX
8
RASTER
10
83.981
20
10.173
30
0
0
VERTEX
8
RASTER
10
83.398
20
9.654
30
0
0
VERTEX
8
RASTER
10
82.725
20
9.265
30
0
0
VERTEX
8
RASTER
10
81.977
20
9.021
30
0
0
VERTEX
8
RASTER
10
81.168
20
8.937
30
0
0
VERTEX
8
RASTER
10
80.36
20
9.021
30
0
0
VERTEX
8
RASTER
10
79.612
20
9.265
30
0
0
VERTEX
8
RASTER
10
78.939
20
9.654
30
0
0
VERTEX
8
RASTER
10
78.356
20
10.173
30
0
0
VERTEX
8
RASTER
10
77.877
20
10.808
30
0
0
VERTEX
8
RASTER
10
77.518
20
11.545
30
0
0
VERTEX
8
RASTER
10
77.291
20
12.368
30
0
0
VERTEX
8
RASTER
10
77.212
20
13.264
30
0
0
VERTEX
8
RASTER
10
77.291
20
14.402
30
0
0
VERTEX
8
RASTER
10
77.518
20
15.559
30
0
0
VERTEX
8
RASTER
10
77.877
20
16.68
30
0
0
VERTEX
8
RASTER
10
78.356
20
17.714
30
0
0
VERTEX
8
RASTER
10
78.939
20
18.61
30
0
0
VERTEX
8
RASTER
10
79.612
20
19.314
30
0
0
VERTEX
8
RASTER
10
80.36
20
19.774
30
0
0
VERTEX
8
RASTER
10
81.168
20
19.94
30
0
0
SEQEND
8
RASTER
0
CIRCLE
8
RASTER
10
79.932
20
16.725
30
0
40
0.396
0
CIRCLE
8
RASTER
10
82.157
20
15.242
30
0
40
0.494
0
CIRCLE
8
RASTER
10
79.438
20
13.264
30
0
40
0.433
0
CIRCLE
8
RASTER
10
82.405
20
11.78
30
0
40
0.371
0
CIRCLE
8
RASTER
10
80.674
20
10.544
30
0
40
0.309
0
CIRCLE
8
RASTER
10
82.899
20
17.714
30
0
40
0.272
0
POLYLINE
8
CUT
66
1
70
1
0
VERTEX
8
CUT
10
102.922
20
24.75
30
0
0
VERTEX
8
CUT
10
103.138
20
24.859
30
0
0
VERTEX
8
CUT
10
103.355
20
24.938
30
0
0
VERTEX
8
CUT
10
103.571
20
24.984
30
0
0
VERTEX
8
CUT
10
103.788
20
25
30
0
0
VERTEX
8
CUT
10
104.004
20
24.984
30
0
0
VERTEX
8
CUT
10
104.221
20
24.938
30
0
0
VERTEX
8
CUT
10
104.437
20
24.859
30
0
0
VERTEX
8
CUT
10
104.654
20
24.75
30
0
0
VERTEX
8
CUT
10
112.232
20
20.375
30
0
0
VERTEX
8
CUT
10
112.435
20
20.242
30
0
0
VERTEX
8
CUT
10
112.611
20
20.094
30
0
0
VERTEX
8
CUT
10
112.759
20
19.93
30
0
0
VERTEX
8
CUT
10
112.881
20
19.75
30
0
0
VERTEX
8
CUT
10
112.976
20
19.555
30
0
0
VERTEX
8
CUT
10
113.044
20
19.344
30
0
0
VERTEX
8
CUT
10
113.084
20
19.117
30
0
0
VERTEX
8
CUT
10
113.098
20
18.875
30
0
0
VERTEX
8
CUT
10
113.098
20
10.125
30
0
0
VERTEX
8
CUT
10
113.084
20
9.883
30
0
0
VERTEX
8
CUT
10
113.044
20
9.656
30
0
0
VERTEX
8
CUT
10
112.976
20
9.445
30
0
0
VERTEX
8
CUT
10
112.881
20
9.25
30
0
0
VERTEX
8
CUT
10
112.759
20
9.07
30
0
0
VERTEX
8
CUT
10
112.611
20
8.906
30
0
0
VERTEX
8
CUT
10
112.435
20
8.758
30
0
0
VERTEX
8
CUT
10
112.232
20
8.625
30
0
0
VERTEX
8
CUT
10
104.654
20
4.25
30
0
0
VERTEX
8
CUT
10
104.437
20
4.141
30
0
0
VERTEX
8
CUT
10
104.221
20
4.063
30
0
0
VERTEX
8
CUT
10
104.004
20
4.016
30
0
0
VERTEX
8
CUT
10
103.788
20
4
30
0
0
VERTEX
8
CUT
10
103.571
20
4.016
30
0
0
VERTEX
8
CUT
10
103.355
20
4.063
30
0
0
VERTEX
8
CUT
10
103.138
20
4.141
30
0
0
VERTEX
8
CUT
10
102.922
20
4.25
30
0
0
VERTEX
8
CUT
10
95.344
20
8.625
30
0
0
VERTEX
8
CUT
10
95.141
20
8.758
30
0
0
VERTEX
8
CUT
10
94.965
20
8.906
30
0
0
VERTEX
8
CUT
10
94.816
20
9.07
30
0
0
VERTEX
8
CUT
10
94.695
20
9.25
30
0
0
VERTEX
8
CUT
10
94.6
20
9.445
30
0
0
VERTEX
8
CUT
10
94.532
20
9.656
30
0
0
VERTEX
8
CUT
10
94.492
20
9.883
30
0
0
VERTEX
8
CUT
10
94.478
20
10.125
30
0
0
VERTEX
8
CUT
10
94.478
20
18.875
30
0
0
VERTEX
8
CUT
10
94.492
20
19.117
30
0
0
VERTEX
8
CUT
10
94.532
20
19.344
30
0
0
VERTEX
8
CUT
10
94.6
20
19.555
30
0
0
VERTEX
8
CUT
10
94.695
20
19.75
30
0
0
VERTEX
8
CUT
10
94.816
20
19.93
30
0
0
VERTEX
8
CUT
10
94.965
20
20.094
30
0
0
VERTEX
8
CUT
10
95.141
20
20.242
30
0
0
VERTEX
8
CUT
10
95.344
20
20.375
30
0
0
SEQEND
8
CUT
0
POLYLINE
8
RASTER
66
1
70
1
0
VERTEX
8
RASTER
10
103.788
20
24.35
30
0
0
VERTEX
8
RASTER
10
112.318
20
19.425
30
0
0
VERTEX
8
RASTER
10
112.318
20
9.575
30
0
0
VERTEX
8
RASTER
10
103.788
20
4.65
30
0
0
VERTEX
8
RASTER
10
95.258
20
9.575
30
0
0
VERTEX
8
RASTER
10
95.258
20
19.425
30
0
0
SEQEND
8
RASTER
0
POLYLINE
8
RASTER
66
1
70
1
0
VERTEX
8
RASTER
10
103.788
20
23.75
30
0
0
VERTEX
8
RASTER
10
95.777
20
19.125
30
0
0
VERTEX
8
RASTER
10
95.777
20
9.875
30
0
0
VERTEX
8
RASTER
10
103.788
20
5.25
30
0
0
VERTEX
8
RASTER
10
111.799
20
9.875
30
0
0
VERTEX
8
RASTER
10
111.799
20
19.125
30
0
0
VERTEX
8
RASTER
10
103.788
20
23.75
30
0
0
SEQEND
8
RASTER
0
POLYLINE
8
RASTER
66
1
70
1
0
VERTEX
8
RASTER
10
100.574
20
19.074
30
0
0
VERTEX
8
RASTER
10
100.58
20
19.161
30
0
0
VERTEX
8
RASTER
10
100.597
20
19.236
30
0
0
VERTEX
8
RASTER
10
100.626
20
19.3
30
0
0
VERTEX
8
RASTER
10
100.666
20
19.352
30
0
0
VERTEX
8
RASTER
10
100.719
20
19.393
30
0
0
VERTEX
8
RASTER
10
100.782
20
19.422
30
0
0
VERTEX
8
RASTER
10
100.858
20
19.439
30
0
0
VERTEX
8
RASTER
10
100.945
20
19.445
30
0
0
VERTEX
8
RASTER
10
103.17
20
19.445
30
0
0
VERTEX
8
RASTER
10
103.257
20
19.439
30
0
0
VERTEX
8
RASTER
10
103.332
20
19.422
30
0
0
VERTEX
8
RASTER
10
103.396
20
19.393
30
0
0
VERTEX
8
RASTER
10
103.448
20
19.352
30
0
0
VERTEX
8
RASTER
10
103.489
20
19.3
30
0
0
VERTEX
8
RASTER
10
103.518
20
19.236
30
0
0
VERTEX
8
RASTER
10
103.535
20
19.161
30
0
0
VERTEX
8
RASTER
10
103.541
20
19.074
30
0
0
VERTEX
8
RASTER
10
103.541
20
16.849
30
0
0
VERTEX
8
RASTER
10
103.535
20
16.762
30
0
0
VERTEX
8
RASTER
10
103.518
20
16.687
30
0
0
VERTEX
8
RASTER
10
103.489
20
16.623
30
0
0
VERTEX
8
RASTER
10
103.448
20
16.571
30
0
0
VERTEX
8
RASTER
10
103.396
20
16.53
30
0
0
VERTEX
8
RASTER
10
103.332
20
16.501
30
0
0
VERTEX
8
RASTER
10
103.257
20
16.484
30
0
0
VERTEX
8
RASTER
10
103.17
20
16.478
30
0
0
VERTEX
8
RASTER
10
100.945
20
16.478
30
0
0
VERTEX
8
RASTER
10
100.858
20
16.484
30
0
0
VERTEX
8
RASTER
10
100.782
20
16.501
30
0
0
VERTEX
8
RASTER
10
100.719
20
16.53
30
0
0
VERTEX
8
RASTER
10
100.666
20
16.571
30
0
0
VERTEX
8
RASTER
10
100.626
20
16.623
30
0
0
VERTEX
8
RASTER
10
100.597
20
16.687
30
0
0
VERTEX
8
RASTER
10
100.58
20
16.762
30
0
0
VERTEX
8
RASTER
10
100.574
20
16.849
30
0
0
SEQEND
8
RASTER
0
POLYLINE
8
RASTER
66
1
70
1
0
VERTEX
8
RASTER
10
104.035
20
19.074
30
0
0
VERTEX
8
RASTER
10
104.041
20
19.161
30
0
0
VERTEX
8
RASTER
10
104.058
20
19.236
30
0
0
VERTEX
8
RASTER
10
104.087
20
19.3
30
0
0
VERTEX
8
RASTER
10
104.128
20
19.352
30
0
0
VERTEX
8
RASTER
10
104.18
20
19.393
30
0
0
VERTEX
8
RASTER
10
104.244
20
19.422
30
0
0
VERTEX
8
RASTER
10
104.319
20
19.439
30
0
0
VERTEX
8
RASTER
10
104.406
20
19.445
30
0
0
VERTEX
8
RASTER
10
106.631
20
19.445
30
0
0
VERTEX
8
RASTER
10
106.718
20
19.439
30
0
0
VERTEX
8
RASTER
10
106.794
20
19.422
30
0
0
VERTEX
8
RASTER
10
106.857
20
19.393
30
0
0
VERTEX
8
RASTER
10
106.909
20
19.352
30
0
0
VERTEX
8
RASTER
10
106.95
20
19.3
30
0
0
VERTEX
8
RASTER
10
106.979
20
19.236
30
0
0
VERTEX
8
RASTER
10
106.996
20
19.161
30
0
0
VERTEX
8
RASTER
10
107.002
20
19.074
30
0
0
VERTEX
8
RASTER
10
107.002
20
16.849
30
0
0
VERTEX
8
RASTER
10
106.996
20
16.762
30
0
0
VERTEX
8
RASTER
10
106.979
20
16.687
30
0
0
VERTEX
8
RASTER
10
106.95
20
16.623
30
0
0
VERTEX
8
RASTER
10
106.909
20
16.571
30
0
0
VERTEX
8
RASTER
10
106.857
20
16.53
30
0
0
VERTEX
8
RASTER
10
106.794
20
16.501
30
0
0
VERTEX
8
RASTER
10
106.718
20
16.484
30
0
0
VERTEX
8
RASTER
10
106.631
20
16.478
30
0
0
VERTEX
8
RASTER
10
104.406
20
16.478
30
0
0
VERTEX
8
RASTER
10
104.319
20
16.484
30
0
0
VERTEX
8
RASTER
10
104.244
20
16.501
30
0
0
VERTEX
8
RASTER
10
104.18
20
16.53
30
0
0
VERTEX
8
RASTER
10
104.128
20
16.571
30
0
0
VERTEX
8
RASTER
10
104.087
20
16.623
30
0
0
VERTEX
8
RASTER
10
104.058
20
16.687
30
0
0
VERTEX
8
RASTER
10
104.041
20
16.762
30
0
0
VERTEX
8
RASTER
10
104.035
20
16.849
30
0
0
SEQEND
8
RASTER
0
POLYLINE
8
RASTER
66
1
70
1
0
VERTEX
8
RASTER
10
100.574
20
15.613
30
0
0
VERTEX
8
RASTER
10
100.58
20
15.7
30
0
0
VERTEX
8
RASTER
10
100.597
20
15.775
30
0
0
VERTEX
8
RASTER
10
100.626
20
15.839
30
0
0
VERTEX
8
RASTER
10
100.666
20
15.891
30
0
0
VERTEX
8
RASTER
10
100.719
20
15.931
30
0
0
VERTEX
8
RASTER
10
100.782
20
15.96
30
0
0
VERTEX
8
RASTER
10
100.858
20
15.978
30
0
0
VERTEX
8
RASTER
10
100.945
20
15.984
30
0
0
VERTEX
8
RASTER
10
103.17
20
15.984
30
0
0
VERTEX
8
RASTER
10
103.257
20
15.978
30
0
0
VERTEX
8
RASTER
10
103.332
20
15.96
30
0
0
VERTEX
8
RASTER
10
103.396
20
15.931
30
0
0
VERTEX
8
RASTER
10
103.448
20
15.891
30
0
0
VERTEX
8
RASTER
10
103.489
20
15.839
30
0
0
VERTEX
8
RASTER
10
103.518
20
15.775
30
0
0
VERTEX
8
RASTER
10
103.535
20
15.7
30
0
0
VERTEX
8
RASTER
10
103.541
20
15.613
30
0
0
VERTEX
8
RASTER
10
103.541
20
13.387
30
0
0
VERTEX
8
RASTER
10
103.535
20
13.3
30
0
0
VERTEX
8
RASTER
10
103.518
20
13.225
30
0
0
VERTEX
8
RASTER
10
103.489
20
13.161
30
0
0
VERTEX
8
RASTER
10
103.448
20
13.109
30
0
0
VERTEX
8
RASTER
10
103.396
20
13.069
30
0
0
VERTEX
8
RASTER
10
103.332
20
13.04
30
0
0
VERTEX
8
RASTER
10
103.257
20
13.022
30
0
0
VERTEX
8
RASTER
10
103.17
20
13.017
30
0
0
VERTEX
8
RASTER
10
100.945
20
13.017
30
0
0
VERTEX
8
RASTER
10
100.858
20
13.022
30
0
0
VERTEX
8
RASTER
10
100.782
20
13.04
30
0
0
VERTEX
8
RASTER
10
100.719
20
13.069
30
0
0
VERTEX
8
RASTER
10
100.666
20
13.109
30
0
0
VERTEX
8
RASTER
10
100.626
20
13.161
30
0
0
VERTEX
8
RASTER
10
100.597
20
13.225
30
0
0
VERTEX
8
RASTER
10
100.58
20
13.3
30
0
0
VERTEX
8
RASTER
10
100.574
20
13.387
30
0
0
SEQEND
8
RASTER
0
POLYLINE
8
RASTER
66
1
70
1
0
VERTEX
8
RASTER
10
104.035
20
15.613
30
0
0
VERTEX
8
RASTER
10
104.041
20
15.7
30
0
0
VERTEX
8
RASTER
10
104.058
20
15.775
30
0
0
VERTEX
8
RASTER
10
104.087
20
15.839
30
0
0
VERTEX
8
RASTER
10
104.128
20
15.891
30
0
0
VERTEX
8
RASTER
10
104.18
20
15.931
30
0
0
VERTEX
8
RASTER
10
104.244
20
15.96
30
0
0
VERTEX
8
RASTER
10
104.319
20
15.978
30
0
0
VERTEX
8
RASTER
10
104.406
20
15.984
30
0
0
VERTEX
8
RASTER
10
106.631
20
15.984
30
0
0
VERTEX
8
RASTER
10
106.718
20
15.978
30
0
0
VERTEX
8
RASTER
10
106.794
20
15.96
30
0
0
VERTEX
8
RASTER
10
106.857
20
15.931
30
0
0
VERTEX
8
RASTER
10
106.909
20
15.891
30
0
0
VERTEX
8
RASTER
10
106.95
20
15.839
30
0
0
VERTEX
8
RASTER
10
106.979
20
15.775
30
0
0
VERTEX
8
RASTER
10
106.996
20
15.7
30
0
0
VERTEX
8
RASTER
10
107.002
20
15.613
30
0
0
VERTEX
8
RASTER
10
107.002
20
13.387
30
0
0
VERTEX
8
RASTER
10
106.996
20
13.3
30
0
0
VERTEX
8
RASTER
10
106.979
20
13.225
30
0
0
VERTEX
8
RASTER
10
106.95
20
13.161
30
0
0
VERTEX
8
RASTER
10
106.909
20
13.109
30
0
0
VERTEX
8
RASTER
10
106.857
20
13.069
30
0
0
VERTEX
8
RASTER
10
106.794
20
13.04
30
0
0
VERTEX
8
RASTER
10
106.718
20
13.022
30
0
0
VERTEX
8
RASTER
10
106.631
20
13.017
30
0
0
VERTEX
8
RASTER
10
104.406
20
13.017
30
0
0
VERTEX
8
RASTER
10
104.319
20
13.022
30
0
0
VERTEX
8
RASTER
10
104.244
20
13.04
30
0
0
VERTEX
8
RASTER
10
104.18
20
13.069
30
0
0
VERTEX
8
RASTER
10
104.128
20
13.109
30
0
0
VERTEX
8
RASTER
10
104.087
20
13.161
30
0
0
VERTEX
8
RASTER
10
104.058
20
13.225
30
0
0
VERTEX
8
RASTER
10
104.041
20
13.3
30
0
0
VERTEX
8
RASTER
10
104.035
20
13.387
30
0
0
SEQEND
8
RASTER
0
POLYLINE
8
RASTER
66
1
70
1
0
VERTEX
8
RASTER
10
100.574
20
12.151
30
0
0
VERTEX
8
RASTER
10
100.58
20
12.238
30
0
0
VERTEX
8
RASTER
10
100.597
20
12.313
30
0
0
VERTEX
8
RASTER
10
100.626
20
12.377
30
0
0
VERTEX
8
RASTER
10
100.666
20
12.429
30
0
0
VERTEX
8
RASTER
10
100.719
20
12.47
30
0
0
VERTEX
8
RASTER
10
100.782
20
12.499
30
0
0
VERTEX
8
RASTER
10
100.858
20
12.516
30
0
0
VERTEX
8
RASTER
10
100.945
20
12.522
30
0
0
VERTEX
8
RASTER
10
103.17
20
12.522
30
0
0
VERTEX
8
RASTER
10
103.257
20
12.516
30
0
0
VERTEX
8
RASTER
10
103.332
20
12.499
30
0
0
VERTEX
8
RASTER
10
103.396
20
12.47
30
0
0
VERTEX
8
RASTER
10
103.448
20
12.429
30
0
0
VERTEX
8
RASTER
10
103.489
20
12.377
30
0
0
VERTEX
8
RASTER
10
103.518
20
12.313
30
0
0
VERTEX
8
RASTER
10
103.535
20
12.238
30
0
0
VERTEX
8
RASTER
10
103.541
20
12.151
30
0
0
VERTEX
8
RASTER
10
103.541
20
9.926
30
0
0
VERTEX
8
RASTER
10
103.535
20
9.839
30
0
0
VERTEX
8
RASTER
10
103.518
20
9.764
30
0
0
VERTEX
8
RASTER
10
103.489
20
9.7
30
0
0
VERTEX
8
RASTER
10
103.448
20
9.648
30
0
0
VERTEX
8
RASTER
10
103.396
20
9.607
30
0
0
VERTEX
8
RASTER
10
103.332
20
9.578
30
0
0
VERTEX
8
RASTER
10
103.257
20
9.561
30
0
0
VERTEX
8
RASTER
10
103.17
20
9.555
30
0
0
VERTEX
8
RASTER
10
100.945
20
9.555
30
0
0
VERTEX
8
RASTER
10
100.858
20
9.561
30
0
0
VERTEX
8
RASTER
10
100.782
20
9.578
30
0
0
VERTEX
8
RASTER
10
100.719
20
9.607
30
0
0
VERTEX
8
RASTER
10
100.666
20
9.648
30
0
0
VERTEX
8
RASTER
10
100.626
20
9.7
30
0
0
VERTEX
8
RASTER
10
100.597
20
9.764
30
0
0
VERTEX
8
RASTER
10
100.58
20
9.839
30
0
0
VERTEX
8
RASTER
10
100.574
20
9.926
30
0
0
SEQEND
8
RASTER
0
POLYLINE
8
RASTER
66
1
70
1
0
VERTEX
8
RASTER
10
104.035
20
12.151
30
0
0
VERTEX
8
RASTER
10
104.041
20
12.238
30
0
0
VERTEX
8
RASTER
10
104.058
20
12.313
30
0
0
VERTEX
8
RASTER
10
104.087
20
12.377
30
0
0
VERTEX
8
RASTER
10
104.128
20
12.429
30
0
0
VERTEX
8
RASTER
10
104.18
20
12.47
30
0
0
VERTEX
8
RASTER
10
104.244
20
12.499
30
0
0
VERTEX
8
RASTER
10
104.319
20
12.516
30
0
0
VERTEX
8
RASTER
10
104.406
20
12.522
30
0
0
VERTEX
8
RASTER
10
106.631
20
12.522
30
0
0
VERTEX
8
RASTER
10
106.718
20
12.516
30
0
0
VERTEX
8
RASTER
10
106.794
20
12.499
30
0
0
VERTEX
8
RASTER
10
106.857
20
12.47
30
0
0
VERTEX
8
RASTER
10
106.909
20
12.429
30
0
0
VERTEX
8
RASTER
10
106.95
20
12.377
30
0
0
VERTEX
8
RASTER
10
106.979
20
12.313
30
0
0
VERTEX
8
RASTER
10
106.996
20
12.238
30
0
0
VERTEX
8
RASTER
10
107.002
20
12.151
30
0
0
VERTEX
8
RASTER
10
107.002
20
9.926
30
0
0
VERTEX
8
RASTER
10
106.996
20
9.839
30
0
0
VERTEX
8
RASTER
10
106.979
20
9.764
30
0
0
VERTEX
8
RASTER
10
106.95
20
9.7
30
0
0
VERTEX
8
RASTER
10
106.909
20
9.648
30
0
0
VERTEX
8
RASTER
10
106.857
20
9.607
30
0
0
VERTEX
8
RASTER
10
106.794
20
9.578
30
0
0
VERTEX
8
RASTER
10
106.718
20
9.561
30
0
0
VERTEX
8
RASTER
10
106.631
20
9.555
30
0
0
VERTEX
8
RASTER
10
104.406
20
9.555
30
0
0
VERTEX
8
RASTER
10
104.319
20
9.561
30
0
0
VERTEX
8
RASTER
10
104.244
20
9.578
30
0
0
VERTEX
8
RASTER
10
104.18
20
9.607
30
0
0
VERTEX
8
RASTER
10
104.128
20
9.648
30
0
0
VERTEX
8
RASTER
10
104.087
20
9.7
30
0
0
VERTEX
8
RASTER
10
104.058
20
9.764
30
0
0
VERTEX
8
RASTER
10
104.041
20
9.839
30
0
0
VERTEX
8
RASTER
10
104.035
20
9.926
30
0
0
SEQEND
8
RASTER
0
POLYLINE
8
CUT
66
1
70
1
0
VERTEX
8
CUT
10
125.541
20
24.75
30
0
0
VERTEX
8
CUT
10
125.758
20
24.859
30
0
0
VERTEX
8
CUT
10
125.974
20
24.938
30
0
0
VERTEX
8
CUT
10
126.191
20
24.984
30
0
0
VERTEX
8
CUT
10
126.408
20
25
30
0
0
VERTEX
8
CUT
10
126.624
20
24.984
30
0
0
VERTEX
8
CUT
10
126.841
20
24.938
30
0
0
VERTEX
8
CUT
10
127.057
20
24.859
30
0
0
VERTEX
8
CUT
10
127.274
20
24.75
30
0
0
VERTEX
8
CUT
10
134.851
20
20.375
30
0
0
VERTEX
8
CUT
10
135.054
20
20.242
30
0
0
VERTEX
8
CUT
10
135.23
20
20.094
30
0
0
VERTEX
8
CUT
10
135.379
20
19.93
30
0
0
VERTEX
8
CUT
10
135.501
20
19.75
30
0
0
VERTEX
8
CUT
10
135.595
20
19.555
30
0
0
VERTEX
8
CUT
10
135.663
20
19.344
30
0
0
VERTEX
8
CUT
10
135.704
20
19.117
30
0
0
VERTEX
8
CUT
10
135.717
20
18.875
30
0
0
VERTEX
8
CUT
10
135.717
20
10.125
30
0
0
VERTEX
8
CUT
10
135.704
20
9.883
30
0
0
VERTEX
8
CUT
10
135.663
20
9.656
30
0
0
VERTEX
8
CUT
10
135.595
20
9.445
30
0
0
VERTEX
8
CUT
10
135.501
20
9.25
30
0
0
VERTEX
8
CUT
10
135.379
20
9.07
30
0
0
VERTEX
8
CUT
10
135.23
20
8.906
30
0
0
VERTEX
8
CUT
10
135.054
20
8.758
30
0
0
VERTEX
8
CUT
10
134.851
20
8.625
30
0
0
VERTEX
8
CUT
10
127.274
20
4.25
30
0
0
VERTEX
8
CUT
10
127.057
20
4.141
30
0
0
VERTEX
8
CUT
10
126.841
20
4.063
30
0
0
VERTEX
8
CUT
10
126.624
20
4.016
30
0
0
VERTEX
8
CUT
10
126.408
20
4
30
0
0
VERTEX
8
CUT
10
126.191
20
4.016
30
0
0
VERTEX
8
CUT
10
125.974
20
4.063
30
0
0
VERTEX
8
CUT
10
125.758
20
4.141
30
0
0
VERTEX
8
CUT
10
125.541
20
4.25
30
0
0
VERTEX
8
CUT
10
117.964
20
8.625
30
0
0
VERTEX
8
CUT
10
117.761
20
8.758
30
0
0
VERTEX
8
CUT
10
117.585
20
8.906
30
0
0
VERTEX
8
CUT
10
117.436
20
9.07
30
0
0
VERTEX
8
CUT
10
117.314
20
9.25
30
0
0
VERTEX
8
CUT
10
117.22
20
9.445
30
0
0
VERTEX
8
CUT
10
117.152
20
9.656
30
0
0
VERTEX
8
CUT
10
117.111
20
9.883
30
0
0
VERTEX
8
CUT
10
117.098
20
10.125
30
0
0
VERTEX
8
CUT
10
117.098
20
18.875
30
0
0
VERTEX
8
CUT
10
117.111
20
19.117
30
0
0
VERTEX
8
CUT
10
117.152
20
19.344
30
0
0
VERTEX
8
CUT
10
117.22
20
19.555
30
0
0
VERTEX
8
CUT
10
117.314
20
19.75
30
0
0
VERTEX
8
CUT
10
117.436
20
19.93
30
0
0
VERTEX
8
CUT
10
117.585
20
20.094
30
0
0
VERTEX
8
CUT
10
117.761
20
20.242
30
0
0
VERTEX
8
CUT
10
117.964
20
20.375
30
0
0
SEQEND
8
CUT
0
POLYLINE
8
RASTER
66
1
70
1
0
VERTEX
8
RASTER
10
126.408
20
24.35
30
0
0
VERTEX
8
RASTER
10
134.938
20
19.425
30
0
0
VERTEX
8
RASTER
10
134.938
20
9.575
30
0
0
VERTEX
8
RASTER
10
126.408
20
4.65
30
0
0
VERTEX
8
RASTER
10
117.877
20
9.575
30
0
0
VERTEX
8
RASTER
10
117.877
20
19.425
30
0
0
SEQEND
8
RASTER
0
POLYLINE
8
RASTER
66
1
70
1
0
VERTEX
8
RASTER
10
126.408
20
23.75
30
0
0
VERTEX
8
RASTER
10
118.397
20
19.125
30
0
0
VERTEX
8
RASTER
10
118.397
20
9.875
30
0
0
VERTEX
8
RASTER
10
126.408
20
5.25
30
0
0
VERTEX
8
RASTER
10
134.418
20
9.875
30
0
0
VERTEX
8
RASTER
10
134.418
20
19.125
30
0
0
VERTEX
8
RASTER
10
126.408
20
23.75
30
0
0
SEQEND
8
RASTER
0
POLYLINE
8
RASTER
66
1
70
1
0
VERTEX
8
RASTER
10
121.506
20
16.809
30
0
0
VERTEX
8
RASTER
10
121.454
20
16.913
30
0
0
VERTEX
8
RASTER
10
121.424
20
17.012
30
0
0
VERTEX
8
RASTER
10
121.415
20
17.105
30
0
0
VERTEX
8
RASTER
10
121.427
20
17.192
30
0
0
VERTEX
8
RASTER
10
121.46
20
17.274
30
0
0
VERTEX
8
RASTER
10
121.515
20
17.349
30
0
0
VERTEX
8
RASTER
10
121.59
20
17.42
30
0
0
VERTEX
8
RASTER
10
121.687
20
17.484
30
0
0
VERTEX
8
RASTER
10
122.329
20
17.855
30
0
0
VERTEX
8
RASTER
10
122.433
20
17.907
30
0
0
VERTEX
8
RASTER
10
122.532
20
17.937
30
0
0
VERTEX
8
RASTER
10
122.625
20
17.946
30
0
0
VERTEX
8
RASTER
10
122.712
20
17.934
30
0
0
VERTEX
8
RASTER
10
122.794
20
17.901
30
0
0
VERTEX
8
RASTER
10
122.87
20
17.846
30
0
0
VERTEX
8
RASTER
10
122.94
20
17.771
30
0
0
VERTEX
8
RASTER
10
123.005
20
17.674
30
0
0
VERTEX
8
RASTER
10
127.455
20
9.966
30
0
0
VERTEX
8
RASTER
10
127.506
20
9.862
30
0
0
VERTEX
8
RASTER
10
127.536
20
9.763
30
0
0
VERTEX
8
RASTER
10
127.546
20
9.67
30
0
0
VERTEX
8
RASTER
10
127.533
20
9.583
30
0
0
VERTEX
8
RASTER
10
127.5
20
9.501
30
0
0
VERTEX
8
RASTER
10
127.446
20
9.425
30
0
0
VERTEX
8
RASTER
10
127.371
20
9.355
30
0
0
VERTEX
8
RASTER
10
127.274
20
9.29
30
0
0
VERTEX
8
RASTER
10
126.632
20
8.919
30
0
0
VERTEX
8
RASTER
10
126.527
20
8.868
30
0
0
VERTEX
8
RASTER
10
126.429
20
8.838
30
0
0
VERTEX
8
RASTER
10
126.336
20
8.829
30
0
0
VERTEX
8
RASTER
10
126.249
20
8.841
30
0
0
VERTEX
8
RASTER
10
126.167
20
8.874
30
0
0
VERTEX
8
RASTER
10
126.091
20
8.929
30
0
0
VERTEX
8
RASTER
10
126.021
20
9.004
30
0
0
VERTEX
8
RASTER
10
125.956
20
9.1
30
0
0
SEQEND
8
RASTER
0
POLYLINE
8
RASTER
66
1
70
1
0
VERTEX
8
RASTER
10
121.934
20
17.056
30
0
0
VERTEX
8
RASTER
10
122.181
20
16.628
30
0
0
VERTEX
8
RASTER
10
122.824
20
16.999
30
0
0
VERTEX
8
RASTER
10
122.576
20
17.427
30
0
0
VERTEX
8
RASTER
10
121.934
20
17.056
30
0
0
SEQEND
8
RASTER
0
POLYLINE
8
RASTER
66
1
70
1
0
VERTEX
8
RASTER
10
126.137
20
9.776
30
0
0
VERTEX
8
RASTER
10
126.384
20
9.348
30
0
0
VERTEX
8
RASTER
10
127.027
20
9.719
30
0
0
VERTEX
8
RASTER
10
126.78
20
10.147
30
0
0
VERTEX
8
RASTER
10
126.137
20
9.776
30
0
0
SEQEND
8
RASTER
0
POLYLINE
8
RASTER
66
1
70
1
0
VERTEX
8
RASTER
10
123.433
20
17.922
30
0
0
VERTEX
8
RASTER
10
123.382
20
18.026
30
0
0
VERTEX
8
RASTER
10
123.351
20
18.124
30
0
0
VERTEX
8
RASTER
10
123.342
20
18.217
30
0
0
VERTEX
8
RASTER
10
123.354
20
18.305
30
0
0
VERTEX
8
RASTER
10
123.388
20
18.386
30
0
0
VERTEX
8
RASTER
10
123.442
20
18.462
30
0
0
VERTEX
8
RASTER
10
123.517
20
18.532
30
0
0
VERTEX
8
RASTER
10
123.614
20
18.597
30
0
0
VERTEX
8
RASTER
10
124.256
20
18.968
30
0
0
VERTEX
8
RASTER
10
124.36
20
19.019
30
0
0
VERTEX
8
RASTER
10
124.459
20
19.049
30
0
0
VERTEX
8
RASTER
10
124.552
20
19.058
30
0
0
VERTEX
8
RASTER
10
124.639
20
19.046
30
0
0
VERTEX
8
RASTER
10
124.721
20
19.013
30
0
0
VERTEX
8
RASTER
10
124.797
20
18.959
30
0
0
VERTEX
8
RASTER
10
124.867
20
18.883
30
0
0
VERTEX
8
RASTER
10
124.932
20
18.787
30
0
0
VERTEX
8
RASTER
10
129.382
20
11.078
30
0
0
VERTEX
8
RASTER
10
129.433
20
10.974
30
0
0
VERTEX
8
RASTER
10
129.464
20
10.876
30
0
0
VERTEX
8
RASTER
10
129.473
20
10.783
30
0
0
VERTEX
8
RASTER
10
129.461
20
10.695
30
0
0
VERTEX
8
RASTER
10
129.427
20
10.614
30
0
0
VERTEX
8
RASTER
10
129.373
20
10.538
30
0
0
VERTEX
8
RASTER
10
129.298
20
10.468
30
0
0
VERTEX
8
RASTER
10
129.201
20
10.403
30
0
0
VERTEX
8
RASTER
10
128.559
20
10.032
30
0
0
VERTEX
8
RASTER
10
128.455
20
9.981
30
0
0
VERTEX
8
RASTER
10
128.356
20
9.951
30
0
0
VERTEX
8
RASTER
10
128.263
20
9.942
30
0
0
VERTEX
8
RASTER
10
128.176
20
9.954
30
0
0
VERTEX
8
RASTER
10
128.094
20
9.987
30
0
0
VERTEX
8
RASTER
10
128.018
20
10.041
30
0
0
VERTEX
8
RASTER
10
127.948
20
10.117
30
0
0
VERTEX
8
RASTER
10
127.883
20
10.213
30
0
0
SEQEND
8
RASTER
0
POLYLINE
8
RASTER
66
1
70
1
0
VERTEX
8
RASTER
10
123.861
20
18.169
30
0
0
VERTEX
8
RASTER
10
124.108
20
17.741
30
0
0
VERTEX
8
RASTER
10
124.751
20
18.111
30
0
0
VERTEX
8
RASTER
10
124.503
20
18.54
30
0
0
VERTEX
8
RASTER
10
123.861
20
18.169
30
0
0
SEQEND
8
RASTER
0
POLYLINE
8
RASTER
66
1
70
1
0
VERTEX
8
RASTER
10
128.064
20
10.889
30
0
0
VERTEX
8
RASTER
10
128.312
20
10.46
30
0
0
VERTEX
8
RASTER
10
128.954
20
10.831
30
0
0
VERTEX
8
RASTER
10
128.707
20
11.259
30
0
0
VERTEX
8
RASTER
10
128.064
20
10.889
30
0
0
SEQEND
8
RASTER
0
POLYLINE
8
RASTER
66
1
70
1
0
VERTEX
8
RASTER
10
125.36
20
19.034
30
0
0
VERTEX
8
RASTER
10
125.309
20
19.138
30
0
0
VERTEX
8
RASTER
10
125.279
20
19.237
30
0
0
VERTEX
8
RASTER
10
125.269
20
19.33
30
0
0
VERTEX
8
RASTER
10
125.282
20
19.417
30
0
0
VERTEX
8
RASTER
10
125.315
20
19.499
30
0
0
VERTEX
8
RASTER
10
125.369
20
19.575
30
0
0
VERTEX
8
RASTER
10
125.444
20
19.645
30
0
0
VERTEX
8
RASTER
10
125.541
20
19.71
30
0
0
VERTEX
8
RASTER
10
126.183
20
20.081
30
0
0
VERTEX
8
RASTER
10
126.288
20
20.132
30
0
0
VERTEX
8
RASTER
10
126.386
20
20.162
30
0
0
VERTEX
8
RASTER
10
126.479
20
20.171
30
0
0
VERTEX
8
RASTER
10
126.566
20
20.159
30
0
0
VERTEX
8
RASTER
10
126.648
20
20.126
30
0
0
VERTEX
8
RASTER
10
126.724
20
20.071
30
0
0
VERTEX
8
RASTER
10
126.794
20
19.996
30
0
0
VERTEX
8
RASTER
10
126.859
20
19.9
30
0
0
VERTEX
8
RASTER
10
131.309
20
12.191
30
0
0
VERTEX
8
RASTER
10
131.361
20
12.087
30
0
0
VERTEX
8
RASTER
10
131.391
20
11.988
30
0
0
VERTEX
8
RASTER
10
131.4
20
11.895
30
0
0
VERTEX
8
RASTER
10
131.388
20
11.808
30
0
0
VERTEX
8
RASTER
10
131.355
20
11.726
30
0
0
VERTEX
8
RASTER
10
131.3
20
11.651
30
0
0
VERTEX
8
RASTER
10
131.225
20
11.58
30
0
0
VERTEX
8
RASTER
10
131.128
20
11.516
30
0
0
VERTEX
8
RASTER
10
130.486
20
11.145
30
0
0
VERTEX
8
RASTER
10
130.382
20
11.093
30
0
0
VERTEX
8
RASTER
10
130.283
20
11.063
30
0
0
VERTEX
8
RASTER
10
130.19
20
11.054
30
0
0
VERTEX
8
RASTER
10
130.103
20
11.066
30
0
0
VERTEX
8
RASTER
10
130.021
20
11.099
30
0
0
VERTEX
8
RASTER
10
129.945
20
11.154
30
0
0
VERTEX
8
RASTER
10
129.875
20
11.229
30
0
0
VERTEX
8
RASTER
10
129.81
20
11.326
30
0
0
SEQEND
8
RASTER
0
POLYLINE
8
RASTER
66
1
70
1
0
VERTEX
8
RASTER
10
125.788
20
19.281
30
0
0
VERTEX
8
RASTER
10
126.035
20
18.853
30
0
0
VERTEX
8
RASTER
10
126.678
20
19.224
30
0
0
VERTEX
8
RASTER
10
126.431
20
19.652
30
0
0
VERTEX
8
RASTER
10
125.788
20
19.281
30
0
0
SEQEND
8
RASTER
0
POLYLINE
8
RASTER
66
1
70
1
0
VERTEX
8
RASTER
10
129.991
20
12.001
30
0
0
VERTEX
8
RASTER
10
130.239
20
11.573
30
0
0
VERTEX
8
RASTER
10
130.881
20
11.944
30
0
0
VERTEX
8
RASTER
10
130.634
20
12.372
30
0
0
VERTEX
8
RASTER
10
129.991
20
12.001
30
0
0
SEQEND
8
RASTER
0
POLYLINE
8
CUT
66
1
70
1
0
VERTEX
8
CUT
10
148.161
20
24.75
30
0
0
VERTEX
8
CUT
10
148.378
20
24.859
30
0
0
VERTEX
8
CUT
10
148.594
20
24.938
30
0
0
VERTEX
8
CUT
10
148.811
20
24.984
30
0
0
VERTEX
8
CUT
10
149.027
20
25
30
0
0
VERTEX
8
CUT
10
149.244
20
24.984
30
0
0
VERTEX
8
CUT
10
149.46
20
24.938
30
0
0
VERTEX
8
CUT
10
149.677
20
24.859
30
0
0
VERTEX
8
CUT
10
149.893
20
24.75
30
0
0
VERTEX
8
CUT
10
157.471
20
20.375
30
0
0
VERTEX
8
CUT
10
157.674
20
20.242
30
0
0
VERTEX
8
CUT
10
157.85
20
20.094
30
0
0
VERTEX
8
CUT
10
157.999
20
19.93
30
0
0
VERTEX
8
CUT
10
158.12
20
19.75
30
0
0
VERTEX
8
CUT
10
158.215
20
19.555
30
0
0
VERTEX
8
CUT
10
158.283
20
19.344
30
0
0
VERTEX
8
CUT
10
158.323
20
19.117
30
0
0
VERTEX
8
CUT
10
158.337
20
18.875
30
0
0
VERTEX
8
CUT
10
158.337
20
10.125
30
0
0
VERTEX
8
CUT
10
158.323
20
9.883
30
0
0
VERTEX
8
CUT
10
158.283
20
9.656
30
0
0
VERTEX
8
CUT
10
158.215
20
9.445
30
0
0
VERTEX
8
CUT
10
158.12
20
9.25
30
0
0
VERTEX
8
CUT
10
157.999
20
9.07
30
0
0
VERTEX
8
CUT
10
157.85
20
8.906
30
0
0
VERTEX
8
CUT
10
157.674
20
8.758
30
0
0
VERTEX
8
CUT
10
157.471
20
8.625
30
0
0
VERTEX
8
CUT
10
149.893
20
4.25
30
0
0
VERTEX
8
CUT
10
149.677
20
4.141
30
0
0
VERTEX
8
CUT
10
149.46
20
4.063
30
0
0
VERTEX
8
CUT
10
149.244
20
4.016
30
0
0
VERTEX
8
CUT
10
149.027
20
4
30
0
0
VERTEX
8
CUT
10
148.811
20
4.016
30
0
0
VERTEX
8
CUT
10
148.594
20
4.063
30
0
0
VERTEX
8
CUT
10
148.378
20
4.141
30
0
0
VERTEX
8
CUT
10
148.161
20
4.25
30
0
0
VERTEX
8
CUT
10
140.583
20
8.625
30
0
0
VERTEX
8
CUT
10
140.38
20
8.758
30
0
0
VERTEX
8
CUT
10
140.204
20
8.906
30
0
0
VERTEX
8
CUT
10
140.056
20
9.07
30
0
0
VERTEX
8
CUT
10
139.934
20
9.25
30
0
0
VERTEX
8
CUT
10
139.839
20
9.445
30
0
0
VERTEX
8
CUT
10
139.771
20
9.656
30
0
0
VERTEX
8
CUT
10
139.731
20
9.883
30
0
0
VERTEX
8
CUT
10
139.717
20
10.125
30
0
0
VERTEX
8
CUT
10
139.717
20
18.875
30
0
0
VERTEX
8
CUT
10
139.731
20
19.117
30
0
0
VERTEX
8
CUT
10
139.771
20
19.344
30
0
0
VERTEX
8
CUT
10
139.839
20
19.555
30
0
0
VERTEX
8
CUT
10
139.934
20
19.75
30
0
0
VERTEX
8
CUT
10
140.056
20
19.93
30
0
0
VERTEX
8
CUT
10
140.204
20
20.094
30
0
0
VERTEX
8
CUT
10
140.38
20
20.242
30
0
0
VERTEX
8
CUT
10
140.583
20
20.375
30
0
0
SEQEND
8
CUT
0
POLYLINE
8
RASTER
66
1
70
1
0
VERTEX
8
RASTER
10
149.027
20
24.35
30
0
0
VERTEX
8
RASTER
10
157.557
20
19.425
30
0
0
VERTEX
8
RASTER
10
157.557
20
9.575
30
0
0
VERTEX
8
RASTER
10
149.027
20
4.65
30
0
0
VERTEX
8
RASTER
10
140.497
20
9.575
30
0
0
VERTEX
8
RASTER
10
140.497
20
19.425
30
0
0
SEQEND
8
RASTER
0
POLYLINE
8
RASTER
66
1
70
1
0
VERTEX
8
RASTER
10
149.027
20
23.75
30
0
0
VERTEX
8
RASTER
10
141.016
20
19.125
30
0
0
VERTEX
8
RASTER
10
141.016
20
9.875
30
0
0
VERTEX
8
RASTER
10
149.027
20
5.25
30
0
0
VERTEX
8
RASTER
10
157.038
20
9.875
30
0
0
VERTEX
8
RASTER
10
157.038
20
19.125
30
0
0
VERTEX
8
RASTER
10
149.027
20
23.75
30
0
0
SEQEND
8
RASTER
0
POLYLINE
8
RASTER
66
1
70
1
0
VERTEX
8
RASTER
10
150.511
20
18.209
30
0
0
VERTEX
8
RASTER
10
150.48
20
17.735
30
0
0
VERTEX
8
RASTER
10
150.394
20
17.294
30
0
0
VERTEX
8
RASTER
10
150.257
20
16.895
30
0
0
VERTEX
8
RASTER
10
150.076
20
16.548
30
0
0
VERTEX
8
RASTER
10
149.856
20
16.261
30
0
0
VERTEX
8
RASTER
10
149.604
20
16.044
30
0
0
VERTEX
8
RASTER
10
149.326
20
15.908
30
0
0
VERTEX
8
RASTER
10
149.027
20
15.86
30
0
0
VERTEX
8
RASTER
10
148.728
20
15.908
30
0
0
VERTEX
8
RASTER
10
148.45
20
16.044
30
0
0
VERTEX
8
RASTER
10
148.198
20
16.261
30
0
0
VERTEX
8
RASTER
10
147.978
20
16.548
30
0
0
VERTEX
8
RASTER
10
147.797
20
16.895
30
0
0
VERTEX
8
RASTER
10
147.66
20
17.294
30
0
0
VERTEX
8
RASTER
10
147.574
20
17.735
30
0
0
VERTEX
8
RASTER
10
147.544
20
18.209
30
0
0
VERTEX
8
RASTER
10
147.574
20
18.682
30
0
0
VERTEX
8
RASTER
10
147.66
20
19.123
30
0
0
VERTEX
8
RASTER
10
147.797
20
19.522
30
0
0
VERTEX
8
RASTER
10
147.978
20
19.87
30
0
0
VERTEX
8
RASTER
10
148.198
20
20.156
30
0
0
VERTEX
8
RASTER
10
148.45
20
20.373
30
0
0
VERTEX
8
RASTER
10
148.728
20
20.51
30
0
0
VERTEX
8
RASTER
10
149.027
20
20.558
30
0
0
VERTEX
8
RASTER
10
149.326
20
20.51
30
0
0
VERTEX
8
RASTER
10
149.604
20
20.373
30
0
0
VERTEX
8
RASTER
10
149.856
20
20.156
30
0
0
VERTEX
8
RASTER
10
150.076
20
19.87
30
0
0
VERTEX
8
RASTER
10
150.257
20
19.522
30
0
0
VERTEX
8
RASTER
10
150.394
20
19.123
30
0
0
VERTEX
8
RASTER
10
150.48
20
18.682
30
0
0
VERTEX
8
RASTER
10
150.511
20
18.209
30
0
0
SEQEND
8
RASTER
0
POLYLINE
8
RASTER
66
1
70
1
0
VERTEX
8
RASTER
10
153.013
20
14.235
30
0
0
VERTEX
8
RASTER
10
152.553
20
14.118
30
0
0
VERTEX
8
RASTER
10
152.107
20
14.064
30
0
0
VERTEX
8
RASTER
10
151.685
20
14.07
30
0
0
VERTEX
8
RASTER
10
151.299
20
14.135
30
0
0
VERTEX
8
RASTER
10
150.958
20
14.255
30
0
0
VERTEX
8
RASTER
10
150.674
20
14.428
30
0
0
VERTEX
8
RASTER
10
150.458
20
14.651
30
0
0
VERTEX
8
RASTER
10
150.32
20
14.92
30
0
0
VERTEX
8
RASTER
10
150.273
20
15.219
30
0
0
VERTEX
8
RASTER
10
150.317
20
15.526
30
0
0
VERTEX
8
RASTER
10
150.446
20
15.833
30
0
0
VERTEX
8
RASTER
10
150.651
20
16.13
30
0
0
VERTEX
8
RASTER
10
150.925
20
16.41
30
0
0
VERTEX
8
RASTER
10
151.262
20
16.664
30
0
0
VERTEX
8
RASTER
10
151.655
20
16.882
30
0
0
VERTEX
8
RASTER
10
152.096
20
17.057
30
0
0
VERTEX
8
RASTER
10
152.555
20
17.175
30
0
0
VERTEX
8
RASTER
10
153.001
20
17.229
30
0
0
VERTEX
8
RASTER
10
153.423
20
17.222
30
0
0
VERTEX
8
RASTER
10
153.81
20
17.157
30
0
0
VERTEX
8
RASTER
10
154.15
20
17.037
30
0
0
VERTEX
8
RASTER
10
154.434
20
16.864
30
0
0
VERTEX
8
RASTER
10
154.65
20
16.642
30
0
0
VERTEX
8
RASTER
10
154.788
20
16.372
30
0
0
VERTEX
8
RASTER
10
154.835
20
16.073
30
0
0
VERTEX
8
RASTER
10
154.791
20
15.766
30
0
0
VERTEX
8
RASTER
10
154.663
20
15.459
30
0
0
VERTEX
8
RASTER
10
154.458
20
15.162
30
0
0
VERTEX
8
RASTER
10
154.183
20
14.882
30
0
0
VERTEX
8
RASTER
10
153.846
20
14.629
30
0
0
VERTEX
8
RASTER
10
153.454
20
14.41
30
0
0
VERTEX
8
RASTER
10
153.013
20
14.235
30
0
0
SEQEND
8
RASTER
0
POLYLINE
8
RASTER
66
1
70
1
0
VERTEX
8
RASTER
10
150.007
20
10.628
30
0
0
VERTEX
8
RASTER
10
149.753
20
11.028
30
0
0
VERTEX
8
RASTER
10
149.564
20
11.436
30
0
0
VERTEX
8
RASTER
10
149.44
20
11.839
30
0
0
VERTEX
8
RASTER
10
149.382
20
12.227
30
0
0
VERTEX
8
RASTER
10
149.391
20
12.588
30
0
0
VERTEX
8
RASTER
10
149.468
20
12.911
30
0
0
VERTEX
8
RASTER
10
149.613
20
13.185
30
0
0
VERTEX
8
RASTER
10
149.826
20
13.4
30
0
0
VERTEX
8
RASTER
10
150.096
20
13.537
30
0
0
VERTEX
8
RASTER
10
150.402
20
13.59
30
0
0
VERTEX
8
RASTER
10
150.733
20
13.563
30
0
0
VERTEX
8
RASTER
10
151.079
20
13.46
30
0
0
VERTEX
8
RASTER
10
151.43
20
13.285
30
0
0
VERTEX
8
RASTER
10
151.775
20
13.043
30
0
0
VERTEX
8
RASTER
10
152.105
20
12.737
30
0
0
VERTEX
8
RASTER
10
152.407
20
12.372
30
0
0
VERTEX
8
RASTER
10
152.661
20
11.971
30
0
0
VERTEX
8
RASTER
10
152.85
20
11.563
30
0
0
VERTEX
8
RASTER
10
152.974
20
11.16
30
0
0
VERTEX
8
RASTER
10
153.032
20
10.772
30
0
0
VERTEX
8
RASTER
10
153.023
20
10.411
30
0
0
VERTEX
8
RASTER
10
152.946
20
10.088
30
0
0
VERTEX
8
RASTER
10
152.801
20
9.814
30
0
0
VERTEX
8
RASTER
10
152.588
20
9.599
30
0
0
VERTEX
8
RASTER
10
152.318
20
9.462
30
0
0
VERTEX
8
RASTER
10
152.012
20
9.409
30
0
0
VERTEX
8
RASTER
10
151.681
20
9.436
30
0
0
VERTEX
8
RASTER
10
151.335
20
9.539
30
0
0
VERTEX
8
RASTER
10
150.984
20
9.714
30
0
0
VERTEX
8
RASTER
10
150.639
20
9.956
30
0
0
VERTEX
8
RASTER
10
150.309
20
10.262
30
0
0
VERTEX
8
RASTER
10
150.007
20
10.628
30
0
0
SEQEND
8
RASTER
0
POLYLINE
8
RASTER
66
1
70
1
0
VERTEX
8
RASTER
10
145.647
20
12.372
30
0
0
VERTEX
8
RASTER
10
145.95
20
12.737
30
0
0
VERTEX
8
RASTER
10
146.279
20
13.043
30
0
0
VERTEX
8
RASTER
10
146.624
20
13.285
30
0
0
VERTEX
8
RASTER
10
146.975
20
13.46
30
0
0
VERTEX
8
RASTER
10
147.321
20
13.563
30
0
0
VERTEX
8
RASTER
10
147.652
20
13.59
30
0
0
VERTEX
8
RASTER
10
147.958
20
13.537
30
0
0
VERTEX
8
RASTER
10
148.228
20
13.4
30
0
0
VERTEX
8
RASTER
10
148.442
20
13.185
30
0
0
VERTEX
8
RASTER
10
148.586
20
12.911
30
0
0
VERTEX
8
RASTER
10
148.663
20
12.588
30
0
0
VERTEX
8
RASTER
10
148.672
20
12.227
30
0
0
VERTEX
8
RASTER
10
148.614
20
11.839
30
0
0
VERTEX
8
RASTER
10
148.49
20
11.436
30
0
0
VERTEX
8
RASTER
10
148.301
20
11.028
30
0
0
VERTEX
8
RASTER
10
148.047
20
10.628
30
0
0
VERTEX
8
RASTER
10
147.745
20
10.262
30
0
0
VERTEX
8
RASTER
10
147.416
20
9.956
30
0
0
VERTEX
8
RASTER
10
147.07
20
9.714
30
0
0
VERTEX
8
RASTER
10
146.719
20
9.539
30
0
0
VERTEX
8
RASTER
10
146.373
20
9.436
30
0
0
VERTEX
8
RASTER
10
146.042
20
9.409
30
0
0
VERTEX
8
RASTER
10
145.736
20
9.462
30
0
0
VERTEX
8
RASTER
10
145.466
20
9.599
30
0
0
VERTEX
8
RASTER
10
145.253
20
9.814
30
0
0
VERTEX
8
RASTER
10
145.108
20
10.088
30
0
0
VERTEX
8
RASTER
10
145.031
20
10.411
30
0
0
VERTEX
8
RASTER
10
145.022
20
10.772
30
0
0
VERTEX
8
RASTER
10
145.08
20
11.16
30
0
0
VERTEX
8
RASTER
10
145.204
20
11.563
30
0
0
VERTEX
8
RASTER
10
145.393
20
11.971
30
0
0
VERTEX
8
RASTER
10
145.647
20
12.372
30
0
0
SEQEND
8
RASTER
0
POLYLINE
8
RASTER
66
1
70
1
0
VERTEX
8
RASTER
10
145.958
20
17.057
30
0
0
VERTEX
8
RASTER
10
146.399
20
16.882
30
0
0
VERTEX
8
RASTER
10
146.792
20
16.664
30
0
0
VERTEX
8
RASTER
10
147.129
20
16.41
30
0
0
VERTEX
8
RASTER
10
147.404
20
16.13
30
0
0
VERTEX
8
RASTER
10
147.609
20
15.833
30
0
0
VERTEX
8
RASTER
10
147.737
20
15.526
30
0
0
VERTEX
8
RASTER
10
147.781
20
15.219
30
0
0
VERTEX
8
RASTER
10
147.734
20
14.92
30
0
0
VERTEX
8
RASTER
10
147.596
20
14.651
30
0
0
VERTEX
8
RASTER
10
147.38
20
14.428
30
0
0
VERTEX
8
RASTER
10
147.096
20
14.255
30
0
0
VERTEX
8
RASTER
10
146.755
20
14.135
30
0
0
VERTEX
8
RASTER
10
146.369
20
14.07
30
0
0
VERTEX
8
RASTER
10
145.947
20
14.064
30
0
0
VERTEX
8
RASTER
10
145.501
20
14.118
30
0
0
VERTEX
8
RASTER
10
145.041
20
14.235
30
0
0
VERTEX
8
RASTER
10
144.6
20
14.41
30
0
0
VERTEX
8
RASTER
10
144.208
20
14.629
30
0
0
VERTEX
8
RASTER
10
143.871
20
14.882
30
0
0
VERTEX
8
RASTER
10
143.596
20
15.162
30
0
0
VERTEX
8
RASTER
10
143.391
20
15.459
30
0
0
VERTEX
8
RASTER
10
143.263
20
15.766
30
0
0
VERTEX
8
RASTER
10
143.219
20
16.073
30
0
0
VERTEX
8
RASTER
10
143.266
20
16.372
30
0
0
VERTEX
8
RASTER
10
143.404
20
16.642
30
0
0
VERTEX
8
RASTER
10
143.62
20
16.864
30
0
0
VERTEX
8
RASTER
10
143.904
20
17.037
30
0
0
VERTEX
8
RASTER
10
144.244
20
17.157
30
0
0
VERTEX
8
RASTER
10
144.631
20
17.222
30
0
0
VERTEX
8
RASTER
10
145.053
20
17.229
30
0
0
VERTEX
8
RASTER
10
145.499
20
17.175
30
0
0
VERTEX
8
RASTER
10
145.958
20
17.057
30
0
0
SEQEND
8
RASTER
0
CIRCLE
8
RASTER
10
149.027
20
14.5
30
0
40
1.113
0
ENDSEC
0
EOF
