  0
SECTION
  2
HEADER
  9
$ACADVER
  1
AC1015
  9
$ACADMAINTVER
 70
6
  9
$DWGCODEPAGE
  3
ANSI_1252
  9
$INSBASE
 10
0.0
 20
0.0
 30
0.0
  9
$EXTMIN
 10
1e+20
 20
1e+20
 30
1e+20
  9
$EXTMAX
 10
-1e+20
 20
-1e+20
 30
-1e+20
  9
$LIMMIN
 10
0.0
 20
0.0
  9
$LIMMAX
 10
420.0
 20
297.0
  9
$ORTHOMODE
 70
0
  9
$REGENMODE
 70
1
  9
$FILLMODE
 70
1
  9
$QTEXTMODE
 70
0
  9
$MIRRTEXT
 70
1
  9
$LTSCALE
 40
1.0
  9
$ATTMODE
 70
1
  9
$TEXTSIZE
 40
2.5
  9
$TRACEWID
 40
1.0
  9
$TEXTSTYLE
  7
Standard
  9
$CLAYER
  8
0
  9
$CELTYPE
  6
ByLayer
  9
$CECOLOR
 62
256
  9
$CELTSCALE
 40
1.0
  9
$DISPSILH
 70
0
  9
$DIMSCALE
 40
1.0
  9
$DIMASZ
 40
2.5
  9
$DIMEXO
 40
0.625
  9
$DIMDLI
 40
3.75
  9
$DIMRND
 40
0.0
  9
$DIMDLE
 40
0.0
  9
$DIMEXE
 40
1.25
  9
$DIMTP
 40
0.0
  9
$DIMTM
 40
0.0
  9
$DIMTXT
 40
2.5
  9
$DIMCEN
 40
2.5
  9
$DIMTSZ
 40
0.0
  9
$DIMTOL
 70
0
  9
$DIMLIM
 70
0
  9
$DIMTIH
 70
0
  9
$DIMTOH
 70
0
  9
$DIMSE1
 70
0
  9
$DIMSE2
 70
0
  9
$DIMTAD
 70
1
  9
$DIMZIN
 70
8
  9
$DIMBLK
  1

  9
$DIMASO
 70
1
  9
$DIMSHO
 70
1
  9
$DIMPOST
  1

  9
$DIMAPOST
  1

  9
$DIMALT
 70
0
  9
$DIMALTD
 70
3
  9
$DIMALTF
 40
0.03937007874
  9
$DIMLFAC
 40
1.0
  9
$DIMTOFL
 70
1
  9
$DIMTVP
 40
0.0
  9
$DIMTIX
 70
0
  9
$DIMSOXD
 70
0
  9
$DIMSAH
 70
0
  9
$DIMBLK1
  1

  9
$DIMBLK2
  1

  9
$DIMSTYLE
  2
ISO-25
  9
$DIMCLRD
 70
0
  9
$DIMCLRE
 70
0
  9
$DIMCLRT
 70
0
  9
$DIMTFAC
 40
1.0
  9
$DIMGAP
 40
0.625
  9
$DIMJUST
 70
0
  9
$DIMSD1
 70
0
  9
$DIMSD2
 70
0
  9
$DIMTOLJ
 70
0
  9
$DIMTZIN
 70
8
  9
$DIMALTZ
 70
0
  9
$DIMALTTZ
 70
0
  9
$DIMUPT
 70
0
  9
$DIMDEC
 70
2
  9
$DIMTDEC
 70
2
  9
$DIMALTU
 70
2
  9
$DIMALTTD
 70
3
  9
$DIMTXSTY
  7
Standard
  9
$DIMAUNIT
 70
0
  9
$DIMADEC
 70
0
  9
$DIMALTRND
 40
0.0
  9
$DIMAZIN
 70
0
  9
$DIMDSEP
 70
44
  9
$DIMATFIT
 70
3
  9
$DIMFRAC
 70
0
  9
$DIMLDRBLK
  1

  9
$DIMLUNIT
 70
2
  9
$DIMLWD
 70
-2
  9
$DIMLWE
 70
-2
  9
$DIMTMOVE
 70
0
  9
$LUNITS
 70
2
  9
$LUPREC
 70
4
  9
$SKETCHINC
 40
1.0
  9
$FILLETRAD
 40
10.0
  9
$AUNITS
 70
0
  9
$AUPREC
 70
2
  9
$MENU
  1
.
  9
$ELEVATION
 40
0.0
  9
$PELEVATION
 40
0.0
  9
$THICKNESS
 40
0.0
  9
$LIMCHECK
 70
0
  9
$CHAMFERA
 40
0.0
  9
$CHAMFERB
 40
0.0
  9
$CHAMFERC
 40
0.0
  9
$CHAMFERD
 40
0.0
  9
$SKPOLY
 70
0
  9
$TDCREATE
 40
2461296.450648148
  9
$TDUCREATE
 40
2458532.153996898
  9
$TDUPDATE
 40
2461296.450648148
  9
$TDUUPDATE
 40
2458532.1544311
  9
$TDINDWG
 40
0.0
  9
$TDUSRTIMER
 40
0.0
  9
$USRTIMER
 70
1
  9
$ANGBASE
 50
0.0
  9
$ANGDIR
 70
0
  9
$PDMODE
 70
0
  9
$PDSIZE
 40
0.0
  9
$PLINEWID
 40
0.0
  9
$SPLFRAME
 70
0
  9
$SPLINETYPE
 70
6
  9
$SPLINESEGS
 70
8
  9
$HANDSEED
  5
3A
  9
$SURFTAB1
 70
6
  9
$SURFTAB2
 70
6
  9
$SURFTYPE
 70
6
  9
$SURFU
 70
6
  9
$SURFV
 70
6
  9
$UCSBASE
  2

  9
$UCSNAME
  2

  9
$UCSORG
 10
0.0
 20
0.0
 30
0.0
  9
$UCSXDIR
 10
1.0
 20
0.0
 30
0.0
  9
$UCSYDIR
 10
0.0
 20
1.0
 30
0.0
  9
$UCSORTHOREF
  2

  9
$UCSORTHOVIEW
 70
0
  9
$UCSORGTOP
 10
0.0
 20
0.0
 30
0.0
  9
$UCSORGBOTTOM
 10
0.0
 20
0.0
 30
0.0
  9
$UCSORGLEFT
 10
0.0
 20
0.0
 30
0.0
  9
$UCSORGRIGHT
 10
0.0
 20
0.0
 30
0.0
  9
$UCSORGFRONT
 10
0.0
 20
0.0
 30
0.0
  9
$UCSORGBACK
 10
0.0
 20
0.0
 30
0.0
  9
$PUCSBASE
  2

  9
$PUCSNAME
  2

  9
$PUCSORG
 10
0.0
 20
0.0
 30
0.0
  9
$PUCSXDIR
 10
1.0
 20
0.0
 30
0.0
  9
$PUCSYDIR
 10
0.0
 20
1.0
 30
0.0
  9
$PUCSORTHOREF
  2

  9
$PUCSORTHOVIEW
 70
0
  9
$PUCSORGTOP
 10
0.0
 20
0.0
 30
0.0
  9
$PUCSORGBOTTOM
 10
0.0
 20
0.0
 30
0.0
  9
$PUCSORGLEFT
 10
0.0
 20
0.0
 30
0.0
  9
$PUCSORGRIGHT
 10
0.0
 20
0.0
 30
0.0
  9
$PUCSORGFRONT
 10
0.0
 20
0.0
 30
0.0
  9
$PUCSORGBACK
 10
0.0
 20
0.0
 30
0.0
  9
$USERI1
 70
0
  9
$USERI2
 70
0
  9
$USERI3
 70
0
  9
$USERI4
 70
0
  9
$USERI5
 70
0
  9
$USERR1
 40
0.0
  9
$USERR2
 40
0.0
  9
$USERR3
 40
0.0
  9
$USERR4
 40
0.0
  9
$USERR5
 40
0.0
  9
$WORLDVIEW
 70
1
  9
$SHADEDGE
 70
3
  9
$SHADEDIF
 70
70
  9
$TILEMODE
 70
1
  9
$MAXACTVP
 70
64
  9
$PINSBASE
 10
0.0
 20
0.0
 30
0.0
  9
$PLIMCHECK
 70
0
  9
$PEXTMIN
 10
1e+20
 20
1e+20
 30
1e+20
  9
$PEXTMAX
 10
-1e+20
 20
-1e+20
 30
-1e+20
  9
$PLIMMIN
 10
0.0
 20
0.0
  9
$PLIMMAX
 10
420.0
 20
297.0
  9
$UNITMODE
 70
0
  9
$VISRETAIN
 70
1
  9
$PLINEGEN
 70
0
  9
$PSLTSCALE
 70
1
  9
$TREEDEPTH
 70
3020
  9
$CMLSTYLE
  2
Standard
  9
$CMLJUST
 70
0
  9
$CMLSCALE
 40
20.0
  9
$PROXYGRAPHICS
 70
1
  9
$MEASUREMENT
 70
1
  9
$CELWEIGHT
370
-1
  9
$ENDCAPS
280
0
  9
$JOINSTYLE
280
0
  9
$LWDISPLAY
290
0
  9
$INSUNITS
 70
4
  9
$HYPERLINKBASE
  1

  9
$STYLESHEET
  1

  9
$XEDIT
290
1
  9
$CEPSNTYPE
380
0
  9
$PSTYLEMODE
290
1
  9
$FINGERPRINTGUID
  2
{4DEAFCA5-B513-4B5E-86C0-B153F4DE5BC0}
  9
$VERSIONGUID
  2
{46FD1F41-1A7D-4B84-B6BF-843278B9E6C3}
  9
$EXTNAMES
290
1
  9
$PSVPSCALE
 40
0.0
  9
$OLESTARTUP
290
0
  0
ENDSEC
  0
SECTION
  2
CLASSES
  0
CLASS
  1
ACDBDICTIONARYWDFLT
  2
AcDbDictionaryWithDefault
  3
ObjectDBX Classes
 90
0
280
0
281
0
  0
CLASS
  1
SUN
  2
AcDbSun
  3
SCENEOE
 90
1153
280
0
281
0
  0
CLASS
  1
VISUALSTYLE
  2
AcDbVisualStyle
  3
ObjectDBX Classes
 90
4095
280
0
281
0
  0
CLASS
  1
MATERIAL
  2
AcDbMaterial
  3
ObjectDBX Classes
 90
1153
280
0
281
0
  0
CLASS
  1
SCALE
  2
AcDbScale
  3
ObjectDBX Classes
 90
1153
280
0
281
0
  0
CLASS
  1
TABLESTYLE
  2
AcDbTableStyle
  3
ObjectDBX Classes
 90
4095
280
0
281
0
  0
CLASS
  1
MLEADERSTYLE
  2
AcDbMLeaderStyle
  3
ACDB_MLEADERSTYLE_CLASS
 90
4095
280
0
281
0
  0
CLASS
  1
DICTIONARYVAR
  2
AcDbDictionaryVar
  3
ObjectDBX Classes
 90
0
280
0
281
0
  0
CLASS
  1
CELLSTYLEMAP
  2
AcDbCellStyleMap
  3
ObjectDBX Classes
 90
1152
280
0
281
0
  0
CLASS
  1
MENTALRAYRENDERSETTINGS
  2
AcDbMentalRayRenderSettings
  3
SCENEOE
 90
1024
280
0
281
0
  0
CLASS
  1
ACDBDETAILVIEWSTYLE
  2
AcDbDetailViewStyle
  3
ObjectDBX Classes
 90
1025
280
0
281
0
  0
CLASS
  1
ACDBSECTIONVIEWSTYLE
  2
AcDbSectionViewStyle
  3
ObjectDBX Classes
 90
1025
280
0
281
0
  0
CLASS
  1
RASTERVARIABLES
  2
AcDbRasterVariables
  3
ISM
 90
0
280
0
281
0
  0
CLASS
  1
ACDBPLACEHOLDER
  2
AcDbPlaceHolder
  3
ObjectDBX Classes
 90
0
280
0
281
0
  0
CLASS
  1
LAYOUT
  2
AcDbLayout
  3
ObjectDBX Classes
 90
0
280
0
281
0
  0
ENDSEC
  0
SECTION
  2
TABLES
  0
TABLE
  2
VPORT
  5
8
330
0
100
AcDbSymbolTable
 70
1
  0
VPORT
  5
23
330
8
100
AcDbSymbolTableRecord
100
AcDbViewportTableRecord
  2
*Active
 70
0
 10
0.0
 20
0.0
 11
1.0
 21
1.0
 12
0.0
 22
0.0
 13
0.0
 23
0.0
 14
0.5
 24
0.5
 15
0.5
 25
0.5
 16
0.0
 26
0.0
 36
1.0
 17
0.0
 27
0.0
 37
0.0
 40
1000.0
 41
1.34
 42
50.0
 43
0.0
 44
0.0
 50
0.0
 51
0.0
 71
0
 72
1000
 73
1
 74
3
 75
0
 76
0
 77
0
 78
0
281
0
 65
0
146
0.0
  0
ENDTAB
  0
TABLE
  2
LTYPE
  5
2
330
0
100
AcDbSymbolTable
 70
3
  0
LTYPE
  5
24
330
2
100
AcDbSymbolTableRecord
100
AcDbLinetypeTableRecord
  2
ByBlock
 70
0
  3

 72
65
 73
0
 40
0.0
  0
LTYPE
  5
25
330
2
100
AcDbSymbolTableRecord
100
AcDbLinetypeTableRecord
  2
ByLayer
 70
0
  3

 72
65
 73
0
 40
0.0
  0
LTYPE
  5
26
330
2
100
AcDbSymbolTableRecord
100
AcDbLinetypeTableRecord
  2
Continuous
 70
0
  3

 72
65
 73
0
 40
0.0
  0
ENDTAB
  0
TABLE
  2
LAYER
  5
1
330
0
100
AcDbSymbolTable
 70
4
  0
LAYER
  5
27
330
1
100
AcDbSymbolTableRecord
100
AcDbLayerTableRecord
  2
0
 70
0
 62
7
  6
Continuous
370
-3
390
13
  0
LAYER
  5
28
330
1
100
AcDbSymbolTableRecord
100
AcDbLayerTableRecord
  2
Defpoints
 70
0
 62
7
  6
Continuous
290
0
370
-3
390
13
  0
LAYER
  5
2F
330
1
100
AcDbSymbolTableRecord
100
AcDbLayerTableRecord
  2
CUT
 70
0
 62
1
  6
Continuous
370
-3
390
13
  0
LAYER
  5
30
330
1
100
AcDbSymbolTableRecord
100
AcDbLayerTableRecord
  2
RASTER
 70
0
 62
7
  6
Continuous
370
-3
390
13
  0
ENDTAB
  0
TABLE
  2
STYLE
  5
5
330
0
100
AcDbSymbolTable
 70
1
  0
STYLE
  5
29
330
5
100
AcDbSymbolTableRecord
100
AcDbTextStyleTableRecord
  2
Standard
 70
0
 40
0.0
 41
1.0
 50
0.0
 71
0
 42
2.5
  3
txt
  4

  0
ENDTAB
  0
TABLE
  2
VIEW
  5
7
330
0
100
AcDbSymbolTable
 70
0
  0
ENDTAB
  0
TABLE
  2
UCS
  5
6
330
0
100
AcDbSymbolTable
 70
0
  0
ENDTAB
  0
TABLE
  2
APPID
  5
3
330
0
100
AcDbSymbolTable
 70
3
  0
APPID
  5
2A
330
3
100
AcDbSymbolTableRecord
100
AcDbRegAppTableRecord
  2
ACAD
 70
0
  0
APPID
  5
37
330
3
100
AcDbSymbolTableRecord
100
AcDbRegAppTableRecord
  2
HATCHBACKGROUNDCOLOR
 70
0
  0
APPID
  5
38
330
3
100
AcDbSymbolTableRecord
100
AcDbRegAppTableRecord
  2
EZDXF
 70
0
  0
ENDTAB
  0
TABLE
  2
DIMSTYLE
  5
4
330
0
100
AcDbSymbolTable
 70
1
100
AcDbDimStyleTable
  0
DIMSTYLE
105
2B
330
4
100
AcDbSymbolTableRecord
100
AcDbDimStyleTableRecord
  2
Standard
 70
0
  3

  4

 40
1.0
 41
2.5
 42
0.625
 43
3.75
 44
1.25
 45
0.0
 46
0.0
 47
0.0
 48
0.0
140
2.5
141
2.5
142
0.0
143
0.03937007874
144
1.0
145
0.0
146
1.0
147
0.625
148
0.0
 71
0
 72
0
 73
0
 74
0
 75
0
 76
0
 77
1
 78
8
 79
3
170
0
171
3
172
1
173
0
174
0
175
0
176
0
177
0
178
0
179
2
271
2
272
2
273
2
274
3
275
0
276
0
277
2
278
44
279
0
280
0
281
0
282
0
283
0
284
8
285
0
286
0
288
0
289
3
371
-2
372
-2
  0
ENDTAB
  0
TABLE
  2
BLOCK_RECORD
  5
9
330
0
100
AcDbSymbolTable
 70
2
  0
BLOCK_RECORD
  5
17
330
9
100
AcDbSymbolTableRecord
100
AcDbBlockTableRecord
  2
*Model_Space
340
1A
  0
BLOCK_RECORD
  5
1B
330
9
100
AcDbSymbolTableRecord
100
AcDbBlockTableRecord
  2
*Paper_Space
340
1E
  0
ENDTAB
  0
ENDSEC
  0
SECTION
  2
BLOCKS
  0
BLOCK
  5
18
330
17
100
AcDbEntity
  8
0
100
AcDbBlockBegin
  2
*Model_Space
 70
0
 10
0.0
 20
0.0
 30
0.0
  3
*Model_Space
  1

  0
ENDBLK
  5
19
330
17
100
AcDbEntity
  8
0
100
AcDbBlockEnd
  0
BLOCK
  5
1C
330
1B
100
AcDbEntity
  8
0
100
AcDbBlockBegin
  2
*Paper_Space
 70
0
 10
0.0
 20
0.0
 30
0.0
  3
*Paper_Space
  1

  0
ENDBLK
  5
1D
330
1B
100
AcDbEntity
  8
0
100
AcDbBlockEnd
  0
ENDSEC
  0
SECTION
  2
ENTITIES
  0
LWPOLYLINE
  5
31
330
17
100
AcDbEntity
  8
CUT
100
AcDbPolyline
 90
31
 70
1
 10
7.5
 20
29.611
 10
19.138
 20
29.611
 10
19.138
 20
16.394
 10
18.717
 20
16.153
 10
18.365
 20
15.961
 10
18.012
 20
15.778
 10
17.659
 20
15.605
 10
17.306
 20
15.442
 10
16.953
 20
15.288
 10
16.601
 20
15.144
 10
16.247
 20
15.009
 10
15.894
 20
14.884
 10
15.638
 20
14.8
 10
15.638
 20
9.762
 10
15.087
 20
9.762
 10
15.087
 20
3.862
 10
7.913
 20
3.862
 10
7.913
 20
9.762
 10
7.363
 20
9.762
 10
7.363
 20
14.8
 10
7.106
 20
14.884
 10
6.753
 20
15.009
 10
6.399
 20
15.144
 10
6.047
 20
15.288
 10
5.694
 20
15.442
 10
5.341
 20
15.605
 10
4.988
 20
15.778
 10
4.635
 20
15.961
 10
4.283
 20
16.153
 10
3.863
 20
16.394
 10
3.863
 20
29.611
  0
HATCH
  5
32
330
17
100
AcDbEntity
  8
RASTER
 62
7
100
AcDbHatch
 10
0.0
 20
0.0
 30
0.0
210
0.0
220
0.0
230
1.0
  2
SOLID
 70
1
 71
0
 91
1
 92
3
 72
0
 73
1
 93
4
 10
4.0
 20
28.774
 10
19.0
 20
28.774
 10
19.0
 20
28.274
 10
4.0
 20
28.274
 97
0
 75
0
 76
1
 98
0
  0
HATCH
  5
33
330
17
100
AcDbEntity
  8
RASTER
 62
7
100
AcDbHatch
 10
0.0
 20
0.0
 30
0.0
210
0.0
220
0.0
230
1.0
  2
SOLID
 70
1
 71
0
 91
4
 92
3
 72
0
 73
1
 93
45
 10
11.19
 20
27.404
 10
11.746
 20
27.414
 10
12.418
 20
27.298
 10
12.829
 20
27.143
 10
13.255
 20
26.88
 10
13.501
 20
26.659
 10
13.83
 20
26.152
 10
14.069
 20
25.529
 10
14.158
 20
25.027
 10
14.094
 20
24.476
 10
13.683
 20
23.583
 10
13.665
 20
23.305
 10
13.764
 20
22.886
 10
13.69
 20
22.616
 10
13.567
 20
22.493
 10
13.38
 20
22.409
 10
12.659
 20
22.293
 10
12.558
 20
22.123
 10
12.632
 20
21.656
 10
12.59
 20
21.501
 10
12.278
 20
21.321
 10
11.672
 20
21.213
 10
11.303
 20
21.213
 10
10.877
 20
21.279
 10
10.466
 20
21.434
 10
10.368
 20
21.533
 10
10.343
 20
21.631
 10
10.417
 20
22.025
 10
10.385
 20
22.239
 10
10.228
 20
22.328
 10
9.615
 20
22.404
 10
9.342
 20
22.549
 10
9.236
 20
22.812
 10
9.253
 20
23.066
 10
9.335
 20
23.329
 10
9.295
 20
23.61
 10
8.997
 20
24.198
 10
8.842
 20
24.732
 10
8.842
 20
25.15
 10
8.931
 20
25.578
 10
9.17
 20
26.176
 10
9.426
 20
26.585
 10
9.854
 20
26.969
 10
10.252
 20
27.185
 10
10.678
 20
27.325
 97
0
 92
2
 72
0
 73
1
 93
15
 10
10.449
 20
24.158
 10
10.097
 20
24.067
 10
9.942
 20
23.952
 10
9.787
 20
23.688
 10
9.755
 20
23.504
 10
9.809
 20
23.312
 10
9.918
 20
23.174
 10
10.112
 20
23.073
 10
10.54
 20
23.083
 10
10.752
 20
23.142
 10
10.941
 20
23.273
 10
11.096
 20
23.56
 10
11.092
 20
23.831
 10
10.976
 20
24.035
 10
10.772
 20
24.151
 97
0
 92
2
 72
0
 73
1
 93
14
 10
12.246
 20
24.158
 10
12.059
 20
24.075
 10
11.904
 20
23.861
 10
11.904
 20
23.536
 10
12.034
 20
23.297
 10
12.297
 20
23.118
 10
12.681
 20
23.059
 10
12.888
 20
23.073
 10
13.107
 20
23.199
 10
13.208
 20
23.393
 10
13.223
 20
23.575
 10
13.082
 20
23.903
 10
12.927
 20
24.043
 10
12.74
 20
24.126
 97
0
 92
3
 72
0
 73
1
 93
70
 10
8.459
 20
21.991
 10
8.678
 20
21.983
 10
8.867
 20
21.902
 10
9.303
 20
21.452
 10
9.714
 20
21.174
 10
11.475
 20
20.426
 10
11.886
 20
20.556
 10
13.368
 20
21.215
 10
13.697
 20
21.452
 10
14.076
 20
21.86
 10
14.214
 20
21.944
 10
14.428
 20
22.0
 10
14.65
 20
21.951
 10
14.78
 20
21.737
 10
14.788
 20
21.449
 10
14.952
 20
21.319
 10
15.036
 20
21.181
 10
15.034
 20
20.928
 10
14.928
 20
20.787
 10
14.652
 20
20.669
 10
14.231
 20
20.672
 10
13.725
 20
20.588
 10
12.551
 20
20.088
 10
12.509
 20
20.007
 10
12.568
 20
19.919
 10
13.651
 20
19.451
 10
14.182
 20
19.343
 10
14.733
 20
19.328
 10
14.928
 20
19.227
 10
15.034
 20
19.087
 10
15.034
 20
18.836
 10
14.952
 20
18.696
 10
14.788
 20
18.565
 10
14.748
 20
18.186
 10
14.561
 20
18.029
 10
14.428
 20
18.014
 10
14.214
 20
18.071
 10
14.052
 20
18.179
 10
13.673
 20
18.587
 10
13.417
 20
18.774
 10
11.665
 20
19.557
 10
11.451
 20
19.589
 10
9.583
 20
18.774
 10
9.327
 20
18.587
 10
8.948
 20
18.179
 10
8.786
 20
18.071
 10
8.572
 20
18.014
 10
8.353
 20
18.066
 10
8.22
 20
18.277
 10
8.212
 20
18.565
 10
8.048
 20
18.696
 10
7.966
 20
18.836
 10
7.966
 20
19.087
 10
8.072
 20
19.227
 10
8.267
 20
19.328
 10
8.818
 20
19.343
 10
9.349
 20
19.451
 10
10.432
 20
19.919
 10
10.491
 20
20.007
 10
10.449
 20
20.088
 10
9.275
 20
20.588
 10
8.769
 20
20.672
 10
8.348
 20
20.669
 10
8.072
 20
20.787
 10
7.966
 20
20.928
 10
7.964
 20
21.181
 10
8.048
 20
21.319
 10
8.212
 20
21.449
 10
8.203
 20
21.631
 10
8.276
 20
21.877
 97
0
 75
0
 76
1
 98
0
  0
LWPOLYLINE
  5
34
330
17
100
AcDbEntity
  8
CUT
100
AcDbPolyline
 90
31
 70
1
 10
25.0
 20
29.611
 10
35.138
 20
29.611
 10
35.138
 20
18.404
 10
34.88
 20
18.218
 10
34.678
 20
18.077
 10
34.476
 20
17.941
 10
34.274
 20
17.81
 10
34.072
 20
17.684
 10
33.87
 20
17.563
 10
33.667
 20
17.447
 10
33.465
 20
17.336
 10
33.263
 20
17.23
 10
33.138
 20
17.167
 10
33.138
 20
12.114
 10
32.588
 20
12.114
 10
32.588
 20
6.214
 10
25.413
 20
6.214
 10
25.413
 20
12.114
 10
24.863
 20
12.114
 10
24.863
 20
17.167
 10
24.737
 20
17.23
 10
24.535
 20
17.336
 10
24.333
 20
17.447
 10
24.13
 20
17.563
 10
23.928
 20
17.684
 10
23.726
 20
17.81
 10
23.524
 20
17.941
 10
23.322
 20
18.077
 10
23.12
 20
18.218
 10
22.863
 20
18.404
 10
22.863
 20
29.611
  0
HATCH
  5
35
330
17
100
AcDbEntity
  8
RASTER
 62
7
100
AcDbHatch
 10
0.0
 20
0.0
 30
0.0
210
0.0
220
0.0
230
1.0
  2
SOLID
 70
1
 71
0
 91
1
 92
3
 72
0
 73
1
 93
4
 10
23.0
 20
28.774
 10
35.0
 20
28.774
 10
35.0
 20
28.274
 10
23.0
 20
28.274
 97
0
 75
0
 76
1
 98
0
  0
HATCH
  5
36
330
17
100
AcDbEntity
  8
RASTER
 62
7
100
AcDbHatch
 10
0.0
 20
0.0
 30
0.0
210
0.0
220
0.0
230
1.0
  2
SOLID
 70
1
 71
0
 91
4
 92
3
 72
0
 73
1
 93
45
 10
28.756
 20
27.446
 10
29.194
 20
27.454
 10
29.723
 20
27.363
 10
30.046
 20
27.241
 10
30.381
 20
27.034
 10
30.575
 20
26.859
 10
30.835
 20
26.46
 10
31.022
 20
25.97
 10
31.092
 20
25.575
 10
31.042
 20
25.141
 10
30.718
 20
24.438
 10
30.705
 20
24.219
 10
30.782
 20
23.89
 10
30.724
 20
23.677
 10
30.627
 20
23.58
 10
30.48
 20
23.514
 10
29.912
 20
23.423
 10
29.833
 20
23.289
 10
29.891
 20
22.921
 10
29.858
 20
22.799
 10
29.612
 20
22.658
 10
29.136
 20
22.572
 10
28.845
 20
22.572
 10
28.51
 20
22.625
 10
28.186
 20
22.747
 10
28.109
 20
22.824
 10
28.09
 20
22.902
 10
28.148
 20
23.212
 10
28.122
 20
23.38
 10
27.998
 20
23.45
 10
27.516
 20
23.51
 10
27.301
 20
23.624
 10
27.218
 20
23.831
 10
27.231
 20
24.031
 10
27.295
 20
24.238
 10
27.264
 20
24.459
 10
27.03
 20
24.922
 10
26.908
 20
25.342
 10
26.908
 20
25.672
 10
26.978
 20
26.009
 10
27.165
 20
26.48
 10
27.367
 20
26.801
 10
27.704
 20
27.103
 10
28.018
 20
27.274
 10
28.353
 20
27.384
 97
0
 92
2
 72
0
 73
1
 93
15
 10
28.173
 20
24.891
 10
27.896
 20
24.819
 10
27.774
 20
24.728
 10
27.652
 20
24.521
 10
27.627
 20
24.376
 10
27.669
 20
24.225
 10
27.754
 20
24.116
 10
27.907
 20
24.037
 10
28.245
 20
24.045
 10
28.411
 20
24.091
 10
28.56
 20
24.194
 10
28.682
 20
24.42
 10
28.678
 20
24.633
 10
28.587
 20
24.794
 10
28.427
 20
24.885
 97
0
 92
2
 72
0
 73
1
 93
14
 10
29.587
 20
24.891
 10
29.44
 20
24.825
 10
29.318
 20
24.657
 10
29.318
 20
24.401
 10
29.42
 20
24.213
 10
29.628
 20
24.072
 10
29.93
 20
24.025
 10
30.093
 20
24.037
 10
30.265
 20
24.136
 10
30.344
 20
24.289
 10
30.356
 20
24.432
 10
30.246
 20
24.69
 10
30.124
 20
24.8
 10
29.976
 20
24.866
 97
0
 92
3
 72
0
 73
1
 93
70
 10
26.606
 20
23.184
 10
26.778
 20
23.179
 10
26.927
 20
23.115
 10
27.27
 20
22.76
 10
27.594
 20
22.541
 10
28.981
 20
21.952
 10
29.304
 20
22.055
 10
30.47
 20
22.574
 10
30.73
 20
22.76
 10
31.028
 20
23.082
 10
31.137
 20
23.148
 10
31.305
 20
23.192
 10
31.48
 20
23.153
 10
31.582
 20
22.985
 10
31.588
 20
22.758
 10
31.718
 20
22.656
 10
31.784
 20
22.547
 10
31.782
 20
22.348
 10
31.698
 20
22.237
 10
31.482
 20
22.144
 10
31.15
 20
22.146
 10
30.751
 20
22.08
 10
29.827
 20
21.687
 10
29.794
 20
21.623
 10
29.841
 20
21.553
 10
30.693
 20
21.185
 10
31.112
 20
21.1
 10
31.545
 20
21.088
 10
31.698
 20
21.009
 10
31.782
 20
20.899
 10
31.782
 20
20.701
 10
31.718
 20
20.591
 10
31.588
 20
20.488
 10
31.557
 20
20.19
 10
31.41
 20
20.066
 10
31.305
 20
20.054
 10
31.137
 20
20.099
 10
31.009
 20
20.184
 10
30.711
 20
20.505
 10
30.509
 20
20.653
 10
29.13
 20
21.269
 10
28.961
 20
21.294
 10
27.491
 20
20.653
 10
27.289
 20
20.505
 10
26.991
 20
20.184
 10
26.863
 20
20.099
 10
26.695
 20
20.054
 10
26.522
 20
20.095
 10
26.418
 20
20.261
 10
26.412
 20
20.488
 10
26.282
 20
20.591
 10
26.218
 20
20.701
 10
26.218
 20
20.899
 10
26.302
 20
21.009
 10
26.455
 20
21.088
 10
26.888
 20
21.1
 10
27.307
 20
21.185
 10
28.159
 20
21.553
 10
28.206
 20
21.623
 10
28.173
 20
21.687
 10
27.249
 20
22.08
 10
26.85
 20
22.146
 10
26.518
 20
22.144
 10
26.302
 20
22.237
 10
26.218
 20
22.348
 10
26.216
 20
22.547
 10
26.282
 20
22.656
 10
26.412
 20
22.758
 10
26.404
 20
22.902
 10
26.462
 20
23.095
 97
0
 75
0
 76
1
 98
0
  0
ENDSEC
  0
SECTION
  2
OBJECTS
  0
DICTIONARY
  5
A
330
0
100
AcDbDictionary
281
1
  3
ACAD_COLOR
350
B
  3
ACAD_GROUP
350
C
  3
ACAD_LAYOUT
350
D
  3
ACAD_MATERIAL
350
E
  3
ACAD_MLEADERSTYLE
350
F
  3
ACAD_MLINESTYLE
350
10
  3
ACAD_PLOTSETTINGS
350
11
  3
ACAD_PLOTSTYLENAME
350
12
  3
ACAD_SCALELIST
350
14
  3
ACAD_TABLESTYLE
350
15
  3
ACAD_VISUALSTYLE
350
16
  3
EZDXF_META
350
2D
  0
DICTIONARY
  5
B
330
A
100
AcDbDictionary
281
1
  0
DICTIONARY
  5
C
330
A
100
AcDbDictionary
281
1
  0
DICTIONARY
  5
D
330
A
100
AcDbDictionary
281
1
  3
Model
350
1A
  3
Layout1
350
1E
  0
DICTIONARY
  5
E
330
A
100
AcDbDictionary
281
1
  3
ByBlock
350
1F
  3
ByLayer
350
20
  3
Global
350
21
  0
DICTIONARY
  5
F
330
A
100
AcDbDictionary
281
1
  3
Standard
350
2C
  0
DICTIONARY
  5
10
330
A
100
AcDbDictionary
281
1
  3
Standard
350
22
  0
DICTIONARY
  5
11
330
A
100
AcDbDictionary
281
1
  0
ACDBDICTIONARYWDFLT
  5
12
330
A
100
AcDbDictionary
281
1
  3
Normal
350
13
100
AcDbDictionaryWithDefault
340
13
  0
ACDBPLACEHOLDER
  5
13
330
12
  0
DICTIONARY
  5
14
330
A
100
AcDbDictionary
281
1
  0
DICTIONARY
  5
15
330
A
100
AcDbDictionary
281
1
  0
DICTIONARY
  5
16
330
A
100
AcDbDictionary
281
1
  0
LAYOUT
  5
1A
330
D
100
AcDbPlotSettings
  1

  4
A3
  6

 40
7.5
 41
20.0
 42
7.5
 43
20.0
 44
420.0
 45
297.0
 46
0.0
 47
0.0
 48
0.0
 49
0.0
140
0.0
141
0.0
142
1.0
143
1.0
 70
1024
 72
1
 73
0
 74
5
  7

 75
16
 76
0
 77
2
 78
300
147
1.0
148
0.0
149
0.0
100
AcDbLayout
  1
Model
 70
1
 71
0
 10
0.0
 20
0.0
 11
420.0
 21
297.0
 12
0.0
 22
0.0
 32
0.0
 14
1e+20
 24
1e+20
 34
1e+20
 15
-1e+20
 25
-1e+20
 35
-1e+20
146
0.0
 13
0.0
 23
0.0
 33
0.0
 16
1.0
 26
0.0
 36
0.0
 17
0.0
 27
1.0
 37
0.0
 76
1
330
17
  0
LAYOUT
  5
1E
330
D
100
AcDbPlotSettings
  1

  4
A3
  6

 40
7.5
 41
20.0
 42
7.5
 43
20.0
 44
420.0
 45
297.0
 46
0.0
 47
0.0
 48
0.0
 49
0.0
140
0.0
141
0.0
142
1.0
143
1.0
 70
0
 72
1
 73
0
 74
5
  7

 75
16
 76
0
 77
2
 78
300
147
1.0
148
0.0
149
0.0
100
AcDbLayout
  1
Layout1
 70
1
 71
1
 10
0.0
 20
0.0
 11
420.0
 21
297.0
 12
0.0
 22
0.0
 32
0.0
 14
1e+20
 24
1e+20
 34
1e+20
 15
-1e+20
 25
-1e+20
 35
-1e+20
146
0.0
 13
0.0
 23
0.0
 33
0.0
 16
1.0
 26
0.0
 36
0.0
 17
0.0
 27
1.0
 37
0.0
 76
1
330
1B
  0
MATERIAL
  5
1F
102
{ACAD_REACTORS
330
E
102
}
330
E
100
AcDbMaterial
  1
ByBlock
  2

 70
0
 40
1.0
 71
1
 41
1.0
 91
-1023410177
 42
1.0
 72
1
  3

 73
1
 74
1
 75
1
 44
0.5
 73
0
 45
1.0
 46
1.0
 77
1
  4

 78
1
 79
1
170
1
 48
1.0
171
1
  6

172
1
173
1
174
1
140
1.0
141
1.0
175
1
  7

176
1
177
1
178
1
143
1.0
179
1
  8

270
1
271
1
272
1
145
1.0
146
1.0
273
1
  9

274
1
275
1
276
1
 42
1.0
 72
1
  3

 73
1
 74
1
 75
1
 94
63
  0
MATERIAL
  5
20
102
{ACAD_REACTORS
330
E
102
}
330
E
100
AcDbMaterial
  1
ByLayer
  2

 70
0
 40
1.0
 71
1
 41
1.0
 91
-1023410177
 42
1.0
 72
1
  3

 73
1
 74
1
 75
1
 44
0.5
 73
0
 45
1.0
 46
1.0
 77
1
  4

 78
1
 79
1
170
1
 48
1.0
171
1
  6

172
1
173
1
174
1
140
1.0
141
1.0
175
1
  7

176
1
177
1
178
1
143
1.0
179
1
  8

270
1
271
1
272
1
145
1.0
146
1.0
273
1
  9

274
1
275
1
276
1
 42
1.0
 72
1
  3

 73
1
 74
1
 75
1
 94
63
  0
MATERIAL
  5
21
102
{ACAD_REACTORS
330
E
102
}
330
E
100
AcDbMaterial
  1
Global
  2

 70
0
 40
1.0
 71
1
 41
1.0
 91
-1023410177
 42
1.0
 72
1
  3

 73
1
 74
1
 75
1
 44
0.5
 73
0
 45
1.0
 46
1.0
 77
1
  4

 78
1
 79
1
170
1
 48
1.0
171
1
  6

172
1
173
1
174
1
140
1.0
141
1.0
175
1
  7

176
1
177
1
178
1
143
1.0
179
1
  8

270
1
271
1
272
1
145
1.0
146
1.0
273
1
  9

274
1
275
1
276
1
 42
1.0
 72
1
  3

 73
1
 74
1
 75
1
 94
63
  0
MLINESTYLE
  5
22
102
{ACAD_REACTORS
330
10
102
}
330
10
100
AcDbMlineStyle
  2
Standard
 70
0
  3

 62
256
 51
90.0
 52
90.0
 71
2
 49
0.5
 62
256
  6
BYLAYER
 49
-0.5
 62
256
  6
BYLAYER
  0
MLEADERSTYLE
  5
2C
102
{ACAD_REACTORS
330
F
102
}
330
F
100
AcDbMLeaderStyle
179
2
170
2
171
1
172
0
 90
2
 40
0.0
 41
0.0
173
1
 91
-1056964608
 92
-2
290
1
 42
2.0
291
1
 43
8.0
  3
Standard
 44
4.0
300

342
29
174
1
175
1
176
0
178
1
 93
-1056964608
 45
4.0
292
0
297
0
 46
4.0
 94
-1056964608
 47
1.0
 49
1.0
140
1.0
294
1
141
0.0
177
0
142
1.0
295
0
296
0
143
3.75
271
0
272
9
273
9
  0
DICTIONARY
  5
2D
330
A
100
AcDbDictionary
280
1
281
1
  3
CREATED_BY_EZDXF
350
2E
  3
WRITTEN_BY_EZDXF
350
39
  0
DICTIONARYVAR
  5
2E
330
2D
100
DictionaryVariables
280
0
  1
1.4.2 @ 2026-09-12T14:48:56.722919+00:00
  0
DICTIONARYVAR
  5
39
330
2D
100
DictionaryVariables
280
0
  1
1.4.2 @ 2026-09-12T14:48:56.724675+00:00
  0
ENDSEC
  0
EOF
