  0
SECTION
  2
HEADER
  9
$ACADVER
  1
AC1015
  9
$ACADMAINTVER
 70
6
  9
$DWGCODEPAGE
  3
ANSI_1252
  9
$INSBASE
 10
0.0
 20
0.0
 30
0.0
  9
$EXTMIN
 10
1e+20
 20
1e+20
 30
1e+20
  9
$EXTMAX
 10
-1e+20
 20
-1e+20
 30
-1e+20
  9
$LIMMIN
 10
0.0
 20
0.0
  9
$LIMMAX
 10
420.0
 20
297.0
  9
$ORTHOMODE
 70
0
  9
$REGENMODE
 70
1
  9
$FILLMODE
 70
1
  9
$QTEXTMODE
 70
0
  9
$MIRRTEXT
 70
1
  9
$LTSCALE
 40
1.0
  9
$ATTMODE
 70
1
  9
$TEXTSIZE
 40
2.5
  9
$TRACEWID
 40
1.0
  9
$TEXTSTYLE
  7
Standard
  9
$CLAYER
  8
0
  9
$CELTYPE
  6
ByLayer
  9
$CECOLOR
 62
256
  9
$CELTSCALE
 40
1.0
  9
$DISPSILH
 70
0
  9
$DIMSCALE
 40
1.0
  9
$DIMASZ
 40
2.5
  9
$DIMEXO
 40
0.625
  9
$DIMDLI
 40
3.75
  9
$DIMRND
 40
0.0
  9
$DIMDLE
 40
0.0
  9
$DIMEXE
 40
1.25
  9
$DIMTP
 40
0.0
  9
$DIMTM
 40
0.0
  9
$DIMTXT
 40
2.5
  9
$DIMCEN
 40
2.5
  9
$DIMTSZ
 40
0.0
  9
$DIMTOL
 70
0
  9
$DIMLIM
 70
0
  9
$DIMTIH
 70
0
  9
$DIMTOH
 70
0
  9
$DIMSE1
 70
0
  9
$DIMSE2
 70
0
  9
$DIMTAD
 70
1
  9
$DIMZIN
 70
8
  9
$DIMBLK
  1

  9
$DIMASO
 70
1
  9
$DIMSHO
 70
1
  9
$DIMPOST
  1

  9
$DIMAPOST
  1

  9
$DIMALT
 70
0
  9
$DIMALTD
 70
3
  9
$DIMALTF
 40
0.03937007874
  9
$DIMLFAC
 40
1.0
  9
$DIMTOFL
 70
1
  9
$DIMTVP
 40
0.0
  9
$DIMTIX
 70
0
  9
$DIMSOXD
 70
0
  9
$DIMSAH
 70
0
  9
$DIMBLK1
  1

  9
$DIMBLK2
  1

  9
$DIMSTYLE
  2
ISO-25
  9
$DIMCLRD
 70
0
  9
$DIMCLRE
 70
0
  9
$DIMCLRT
 70
0
  9
$DIMTFAC
 40
1.0
  9
$DIMGAP
 40
0.625
  9
$DIMJUST
 70
0
  9
$DIMSD1
 70
0
  9
$DIMSD2
 70
0
  9
$DIMTOLJ
 70
0
  9
$DIMTZIN
 70
8
  9
$DIMALTZ
 70
0
  9
$DIMALTTZ
 70
0
  9
$DIMUPT
 70
0
  9
$DIMDEC
 70
2
  9
$DIMTDEC
 70
2
  9
$DIMALTU
 70
2
  9
$DIMALTTD
 70
3
  9
$DIMTXSTY
  7
Standard
  9
$DIMAUNIT
 70
0
  9
$DIMADEC
 70
0
  9
$DIMALTRND
 40
0.0
  9
$DIMAZIN
 70
0
  9
$DIMDSEP
 70
44
  9
$DIMATFIT
 70
3
  9
$DIMFRAC
 70
0
  9
$DIMLDRBLK
  1

  9
$DIMLUNIT
 70
2
  9
$DIMLWD
 70
-2
  9
$DIMLWE
 70
-2
  9
$DIMTMOVE
 70
0
  9
$LUNITS
 70
2
  9
$LUPREC
 70
4
  9
$SKETCHINC
 40
1.0
  9
$FILLETRAD
 40
10.0
  9
$AUNITS
 70
0
  9
$AUPREC
 70
2
  9
$MENU
  1
.
  9
$ELEVATION
 40
0.0
  9
$PELEVATION
 40
0.0
  9
$THICKNESS
 40
0.0
  9
$LIMCHECK
 70
0
  9
$CHAMFERA
 40
0.0
  9
$CHAMFERB
 40
0.0
  9
$CHAMFERC
 40
0.0
  9
$CHAMFERD
 40
0.0
  9
$SKPOLY
 70
0
  9
$TDCREATE
 40
2461297.5544212963
  9
$TDUCREATE
 40
2458532.153996898
  9
$TDUPDATE
 40
2461297.5544212963
  9
$TDUUPDATE
 40
2458532.1544311
  9
$TDINDWG
 40
0.0
  9
$TDUSRTIMER
 40
0.0
  9
$USRTIMER
 70
1
  9
$ANGBASE
 50
0.0
  9
$ANGDIR
 70
0
  9
$PDMODE
 70
0
  9
$PDSIZE
 40
0.0
  9
$PLINEWID
 40
0.0
  9
$SPLFRAME
 70
0
  9
$SPLINETYPE
 70
6
  9
$SPLINESEGS
 70
8
  9
$HANDSEED
  5
55
  9
$SURFTAB1
 70
6
  9
$SURFTAB2
 70
6
  9
$SURFTYPE
 70
6
  9
$SURFU
 70
6
  9
$SURFV
 70
6
  9
$UCSBASE
  2

  9
$UCSNAME
  2

  9
$UCSORG
 10
0.0
 20
0.0
 30
0.0
  9
$UCSXDIR
 10
1.0
 20
0.0
 30
0.0
  9
$UCSYDIR
 10
0.0
 20
1.0
 30
0.0
  9
$UCSORTHOREF
  2

  9
$UCSORTHOVIEW
 70
0
  9
$UCSORGTOP
 10
0.0
 20
0.0
 30
0.0
  9
$UCSORGBOTTOM
 10
0.0
 20
0.0
 30
0.0
  9
$UCSORGLEFT
 10
0.0
 20
0.0
 30
0.0
  9
$UCSORGRIGHT
 10
0.0
 20
0.0
 30
0.0
  9
$UCSORGFRONT
 10
0.0
 20
0.0
 30
0.0
  9
$UCSORGBACK
 10
0.0
 20
0.0
 30
0.0
  9
$PUCSBASE
  2

  9
$PUCSNAME
  2

  9
$PUCSORG
 10
0.0
 20
0.0
 30
0.0
  9
$PUCSXDIR
 10
1.0
 20
0.0
 30
0.0
  9
$PUCSYDIR
 10
0.0
 20
1.0
 30
0.0
  9
$PUCSORTHOREF
  2

  9
$PUCSORTHOVIEW
 70
0
  9
$PUCSORGTOP
 10
0.0
 20
0.0
 30
0.0
  9
$PUCSORGBOTTOM
 10
0.0
 20
0.0
 30
0.0
  9
$PUCSORGLEFT
 10
0.0
 20
0.0
 30
0.0
  9
$PUCSORGRIGHT
 10
0.0
 20
0.0
 30
0.0
  9
$PUCSORGFRONT
 10
0.0
 20
0.0
 30
0.0
  9
$PUCSORGBACK
 10
0.0
 20
0.0
 30
0.0
  9
$USERI1
 70
0
  9
$USERI2
 70
0
  9
$USERI3
 70
0
  9
$USERI4
 70
0
  9
$USERI5
 70
0
  9
$USERR1
 40
0.0
  9
$USERR2
 40
0.0
  9
$USERR3
 40
0.0
  9
$USERR4
 40
0.0
  9
$USERR5
 40
0.0
  9
$WORLDVIEW
 70
1
  9
$SHADEDGE
 70
3
  9
$SHADEDIF
 70
70
  9
$TILEMODE
 70
1
  9
$MAXACTVP
 70
64
  9
$PINSBASE
 10
0.0
 20
0.0
 30
0.0
  9
$PLIMCHECK
 70
0
  9
$PEXTMIN
 10
1e+20
 20
1e+20
 30
1e+20
  9
$PEXTMAX
 10
-1e+20
 20
-1e+20
 30
-1e+20
  9
$PLIMMIN
 10
0.0
 20
0.0
  9
$PLIMMAX
 10
420.0
 20
297.0
  9
$UNITMODE
 70
0
  9
$VISRETAIN
 70
1
  9
$PLINEGEN
 70
0
  9
$PSLTSCALE
 70
1
  9
$TREEDEPTH
 70
3020
  9
$CMLSTYLE
  2
Standard
  9
$CMLJUST
 70
0
  9
$CMLSCALE
 40
20.0
  9
$PROXYGRAPHICS
 70
1
  9
$MEASUREMENT
 70
1
  9
$CELWEIGHT
370
-1
  9
$ENDCAPS
280
0
  9
$JOINSTYLE
280
0
  9
$LWDISPLAY
290
0
  9
$INSUNITS
 70
4
  9
$HYPERLINKBASE
  1

  9
$STYLESHEET
  1

  9
$XEDIT
290
1
  9
$CEPSNTYPE
380
0
  9
$PSTYLEMODE
290
1
  9
$FINGERPRINTGUID
  2
{15DF83A1-787C-41DC-840E-D02583B40A8F}
  9
$VERSIONGUID
  2
{08F206EC-96EA-4C47-B006-B8DDE14E0206}
  9
$EXTNAMES
290
1
  9
$PSVPSCALE
 40
0.0
  9
$OLESTARTUP
290
0
  0
ENDSEC
  0
SECTION
  2
CLASSES
  0
CLASS
  1
ACDBDICTIONARYWDFLT
  2
AcDbDictionaryWithDefault
  3
ObjectDBX Classes
 90
0
280
0
281
0
  0
CLASS
  1
SUN
  2
AcDbSun
  3
SCENEOE
 90
1153
280
0
281
0
  0
CLASS
  1
VISUALSTYLE
  2
AcDbVisualStyle
  3
ObjectDBX Classes
 90
4095
280
0
281
0
  0
CLASS
  1
MATERIAL
  2
AcDbMaterial
  3
ObjectDBX Classes
 90
1153
280
0
281
0
  0
CLASS
  1
SCALE
  2
AcDbScale
  3
ObjectDBX Classes
 90
1153
280
0
281
0
  0
CLASS
  1
TABLESTYLE
  2
AcDbTableStyle
  3
ObjectDBX Classes
 90
4095
280
0
281
0
  0
CLASS
  1
MLEADERSTYLE
  2
AcDbMLeaderStyle
  3
ACDB_MLEADERSTYLE_CLASS
 90
4095
280
0
281
0
  0
CLASS
  1
DICTIONARYVAR
  2
AcDbDictionaryVar
  3
ObjectDBX Classes
 90
0
280
0
281
0
  0
CLASS
  1
CELLSTYLEMAP
  2
AcDbCellStyleMap
  3
ObjectDBX Classes
 90
1152
280
0
281
0
  0
CLASS
  1
MENTALRAYRENDERSETTINGS
  2
AcDbMentalRayRenderSettings
  3
SCENEOE
 90
1024
280
0
281
0
  0
CLASS
  1
ACDBDETAILVIEWSTYLE
  2
AcDbDetailViewStyle
  3
ObjectDBX Classes
 90
1025
280
0
281
0
  0
CLASS
  1
ACDBSECTIONVIEWSTYLE
  2
AcDbSectionViewStyle
  3
ObjectDBX Classes
 90
1025
280
0
281
0
  0
CLASS
  1
RASTERVARIABLES
  2
AcDbRasterVariables
  3
ISM
 90
0
280
0
281
0
  0
CLASS
  1
ACDBPLACEHOLDER
  2
AcDbPlaceHolder
  3
ObjectDBX Classes
 90
0
280
0
281
0
  0
CLASS
  1
LAYOUT
  2
AcDbLayout
  3
ObjectDBX Classes
 90
0
280
0
281
0
  0
ENDSEC
  0
SECTION
  2
TABLES
  0
TABLE
  2
VPORT
  5
8
330
0
100
AcDbSymbolTable
 70
1
  0
VPORT
  5
23
330
8
100
AcDbSymbolTableRecord
100
AcDbViewportTableRecord
  2
*Active
 70
0
 10
0.0
 20
0.0
 11
1.0
 21
1.0
 12
0.0
 22
0.0
 13
0.0
 23
0.0
 14
0.5
 24
0.5
 15
0.5
 25
0.5
 16
0.0
 26
0.0
 36
1.0
 17
0.0
 27
0.0
 37
0.0
 40
1000.0
 41
1.34
 42
50.0
 43
0.0
 44
0.0
 50
0.0
 51
0.0
 71
0
 72
1000
 73
1
 74
3
 75
0
 76
0
 77
0
 78
0
281
0
 65
0
146
0.0
  0
ENDTAB
  0
TABLE
  2
LTYPE
  5
2
330
0
100
AcDbSymbolTable
 70
3
  0
LTYPE
  5
24
330
2
100
AcDbSymbolTableRecord
100
AcDbLinetypeTableRecord
  2
ByBlock
 70
0
  3

 72
65
 73
0
 40
0.0
  0
LTYPE
  5
25
330
2
100
AcDbSymbolTableRecord
100
AcDbLinetypeTableRecord
  2
ByLayer
 70
0
  3

 72
65
 73
0
 40
0.0
  0
LTYPE
  5
26
330
2
100
AcDbSymbolTableRecord
100
AcDbLinetypeTableRecord
  2
Continuous
 70
0
  3

 72
65
 73
0
 40
0.0
  0
ENDTAB
  0
TABLE
  2
LAYER
  5
1
330
0
100
AcDbSymbolTable
 70
4
  0
LAYER
  5
27
330
1
100
AcDbSymbolTableRecord
100
AcDbLayerTableRecord
  2
0
 70
0
 62
7
  6
Continuous
370
-3
390
13
  0
LAYER
  5
28
330
1
100
AcDbSymbolTableRecord
100
AcDbLayerTableRecord
  2
Defpoints
 70
0
 62
7
  6
Continuous
290
0
370
-3
390
13
  0
LAYER
  5
2F
330
1
100
AcDbSymbolTableRecord
100
AcDbLayerTableRecord
  2
CUT
 70
0
 62
1
  6
Continuous
370
-3
390
13
  0
LAYER
  5
30
330
1
100
AcDbSymbolTableRecord
100
AcDbLayerTableRecord
  2
RASTER
 70
0
 62
7
  6
Continuous
370
-3
390
13
  0
ENDTAB
  0
TABLE
  2
STYLE
  5
5
330
0
100
AcDbSymbolTable
 70
1
  0
STYLE
  5
29
330
5
100
AcDbSymbolTableRecord
100
AcDbTextStyleTableRecord
  2
Standard
 70
0
 40
0.0
 41
1.0
 50
0.0
 71
0
 42
2.5
  3
txt
  4

  0
ENDTAB
  0
TABLE
  2
VIEW
  5
7
330
0
100
AcDbSymbolTable
 70
0
  0
ENDTAB
  0
TABLE
  2
UCS
  5
6
330
0
100
AcDbSymbolTable
 70
0
  0
ENDTAB
  0
TABLE
  2
APPID
  5
3
330
0
100
AcDbSymbolTable
 70
3
  0
APPID
  5
2A
330
3
100
AcDbSymbolTableRecord
100
AcDbRegAppTableRecord
  2
ACAD
 70
0
  0
APPID
  5
52
330
3
100
AcDbSymbolTableRecord
100
AcDbRegAppTableRecord
  2
HATCHBACKGROUNDCOLOR
 70
0
  0
APPID
  5
53
330
3
100
AcDbSymbolTableRecord
100
AcDbRegAppTableRecord
  2
EZDXF
 70
0
  0
ENDTAB
  0
TABLE
  2
DIMSTYLE
  5
4
330
0
100
AcDbSymbolTable
 70
1
100
AcDbDimStyleTable
  0
DIMSTYLE
105
2B
330
4
100
AcDbSymbolTableRecord
100
AcDbDimStyleTableRecord
  2
Standard
 70
0
  3

  4

 40
1.0
 41
2.5
 42
0.625
 43
3.75
 44
1.25
 45
0.0
 46
0.0
 47
0.0
 48
0.0
140
2.5
141
2.5
142
0.0
143
0.03937007874
144
1.0
145
0.0
146
1.0
147
0.625
148
0.0
 71
0
 72
0
 73
0
 74
0
 75
0
 76
0
 77
1
 78
8
 79
3
170
0
171
3
172
1
173
0
174
0
175
0
176
0
177
0
178
0
179
2
271
2
272
2
273
2
274
3
275
0
276
0
277
2
278
44
279
0
280
0
281
0
282
0
283
0
284
8
285
0
286
0
288
0
289
3
371
-2
372
-2
  0
ENDTAB
  0
TABLE
  2
BLOCK_RECORD
  5
9
330
0
100
AcDbSymbolTable
 70
2
  0
BLOCK_RECORD
  5
17
330
9
100
AcDbSymbolTableRecord
100
AcDbBlockTableRecord
  2
*Model_Space
340
1A
  0
BLOCK_RECORD
  5
1B
330
9
100
AcDbSymbolTableRecord
100
AcDbBlockTableRecord
  2
*Paper_Space
340
1E
  0
ENDTAB
  0
ENDSEC
  0
SECTION
  2
BLOCKS
  0
BLOCK
  5
18
330
17
100
AcDbEntity
  8
0
100
AcDbBlockBegin
  2
*Model_Space
 70
0
 10
0.0
 20
0.0
 30
0.0
  3
*Model_Space
  1

  0
ENDBLK
  5
19
330
17
100
AcDbEntity
  8
0
100
AcDbBlockEnd
  0
BLOCK
  5
1C
330
1B
100
AcDbEntity
  8
0
100
AcDbBlockBegin
  2
*Paper_Space
 70
0
 10
0.0
 20
0.0
 30
0.0
  3
*Paper_Space
  1

  0
ENDBLK
  5
1D
330
1B
100
AcDbEntity
  8
0
100
AcDbBlockEnd
  0
ENDSEC
  0
SECTION
  2
ENTITIES
  0
LWPOLYLINE
  5
31
330
17
100
AcDbEntity
  8
CUT
100
AcDbPolyline
 90
36
 70
1
 10
6.8
 20
92.641
 10
67.801
 20
92.641
 10
70.641
 20
92.641
 10
70.641
 20
90.161
 10
67.841
 20
90.161
 10
67.841
 20
87.841
 10
70.641
 20
87.841
 10
70.641
 20
85.361
 10
67.801
 20
85.361
 10
62.295
 20
85.361
 10
62.295
 20
82.561
 10
56.67
 20
82.561
 10
56.67
 20
85.361
 10
51.204
 20
85.361
 10
51.204
 20
82.561
 10
45.579
 20
82.561
 10
45.579
 20
85.361
 10
40.113
 20
85.361
 10
40.113
 20
82.561
 10
34.488
 20
82.561
 10
34.488
 20
85.361
 10
29.022
 20
85.361
 10
29.022
 20
82.561
 10
23.397
 20
82.561
 10
23.397
 20
85.361
 10
17.931
 20
85.361
 10
17.931
 20
82.561
 10
12.306
 20
82.561
 10
12.306
 20
85.361
 10
6.8
 20
85.361
 10
3.96
 20
85.361
 10
3.96
 20
87.841
 10
6.76
 20
87.841
 10
6.76
 20
90.161
 10
3.96
 20
90.161
 10
3.96
 20
92.641
  0
LWPOLYLINE
  5
32
330
17
100
AcDbEntity
  8
CUT
100
AcDbPolyline
 90
4
 70
1
 10
11.84
 20
90.061
 10
62.761
 20
90.061
 10
62.761
 20
87.941
 10
11.84
 20
87.941
  0
HATCH
  5
33
330
17
100
AcDbEntity
  8
RASTER
 62
7
100
AcDbHatch
 10
0.0
 20
0.0
 30
0.0
210
0.0
220
0.0
230
1.0
  2
SOLID
 70
1
 71
0
 91
1
 92
3
 72
0
 73
1
 93
4
 10
7.4
 20
92.201
 10
11.2
 20
92.201
 10
11.2
 20
85.801
 10
7.4
 20
85.801
 97
0
 75
0
 76
1
 98
0
  0
HATCH
  5
34
330
17
100
AcDbEntity
  8
RASTER
 62
7
100
AcDbHatch
 10
0.0
 20
0.0
 30
0.0
210
0.0
220
0.0
230
1.0
  2
SOLID
 70
1
 71
0
 91
1
 92
3
 72
0
 73
1
 93
4
 10
63.401
 20
92.201
 10
67.201
 20
92.201
 10
67.201
 20
85.801
 10
63.401
 20
85.801
 97
0
 75
0
 76
1
 98
0
  0
HATCH
  5
35
330
17
100
AcDbEntity
  8
RASTER
 62
7
100
AcDbHatch
 10
0.0
 20
0.0
 30
0.0
210
0.0
220
0.0
230
1.0
  2
SOLID
 70
1
 71
0
 91
1
 92
3
 72
0
 73
1
 93
48
 10
13.9
 20
91.701
 10
13.896
 20
91.636
 10
13.883
 20
91.572
 10
13.862
 20
91.51
 10
13.833
 20
91.451
 10
13.797
 20
91.397
 10
13.754
 20
91.347
 10
13.704
 20
91.304
 10
13.65
 20
91.268
 10
13.591
 20
91.239
 10
13.529
 20
91.218
 10
13.465
 20
91.205
 10
13.4
 20
91.201
 10
13.335
 20
91.205
 10
13.271
 20
91.218
 10
13.209
 20
91.239
 10
13.15
 20
91.268
 10
13.096
 20
91.304
 10
13.046
 20
91.347
 10
13.003
 20
91.397
 10
12.967
 20
91.451
 10
12.938
 20
91.51
 10
12.917
 20
91.572
 10
12.904
 20
91.636
 10
12.9
 20
91.701
 10
12.904
 20
91.766
 10
12.917
 20
91.83
 10
12.938
 20
91.892
 10
12.967
 20
91.951
 10
13.003
 20
92.005
 10
13.046
 20
92.055
 10
13.096
 20
92.098
 10
13.15
 20
92.134
 10
13.209
 20
92.163
 10
13.271
 20
92.184
 10
13.335
 20
92.197
 10
13.4
 20
92.201
 10
13.465
 20
92.197
 10
13.529
 20
92.184
 10
13.591
 20
92.163
 10
13.65
 20
92.134
 10
13.704
 20
92.098
 10
13.754
 20
92.055
 10
13.797
 20
92.005
 10
13.833
 20
91.951
 10
13.862
 20
91.892
 10
13.883
 20
91.83
 10
13.896
 20
91.766
 97
0
 75
0
 76
1
 98
0
  0
HATCH
  5
36
330
17
100
AcDbEntity
  8
RASTER
 62
7
100
AcDbHatch
 10
0.0
 20
0.0
 30
0.0
210
0.0
220
0.0
230
1.0
  2
SOLID
 70
1
 71
0
 91
1
 92
3
 72
0
 73
1
 93
48
 10
61.701
 20
91.701
 10
61.697
 20
91.636
 10
61.684
 20
91.572
 10
61.663
 20
91.51
 10
61.634
 20
91.451
 10
61.598
 20
91.397
 10
61.555
 20
91.347
 10
61.505
 20
91.304
 10
61.451
 20
91.268
 10
61.392
 20
91.239
 10
61.33
 20
91.218
 10
61.266
 20
91.205
 10
61.201
 20
91.201
 10
61.136
 20
91.205
 10
61.072
 20
91.218
 10
61.01
 20
91.239
 10
60.951
 20
91.268
 10
60.897
 20
91.304
 10
60.847
 20
91.347
 10
60.804
 20
91.397
 10
60.768
 20
91.451
 10
60.739
 20
91.51
 10
60.718
 20
91.572
 10
60.705
 20
91.636
 10
60.701
 20
91.701
 10
60.705
 20
91.766
 10
60.718
 20
91.83
 10
60.739
 20
91.892
 10
60.768
 20
91.951
 10
60.804
 20
92.005
 10
60.847
 20
92.055
 10
60.897
 20
92.098
 10
60.951
 20
92.134
 10
61.01
 20
92.163
 10
61.072
 20
92.184
 10
61.136
 20
92.197
 10
61.201
 20
92.201
 10
61.266
 20
92.197
 10
61.33
 20
92.184
 10
61.392
 20
92.163
 10
61.451
 20
92.134
 10
61.505
 20
92.098
 10
61.555
 20
92.055
 10
61.598
 20
92.005
 10
61.634
 20
91.951
 10
61.663
 20
91.892
 10
61.684
 20
91.83
 10
61.697
 20
91.766
 97
0
 75
0
 76
1
 98
0
  0
HATCH
  5
37
330
17
100
AcDbEntity
  8
RASTER
 62
7
100
AcDbHatch
 10
0.0
 20
0.0
 30
0.0
210
0.0
220
0.0
230
1.0
  2
SOLID
 70
1
 71
0
 91
1
 92
3
 72
0
 73
1
 93
48
 10
13.9
 20
86.301
 10
13.896
 20
86.236
 10
13.883
 20
86.172
 10
13.862
 20
86.11
 10
13.833
 20
86.051
 10
13.797
 20
85.997
 10
13.754
 20
85.947
 10
13.704
 20
85.904
 10
13.65
 20
85.868
 10
13.591
 20
85.839
 10
13.529
 20
85.818
 10
13.465
 20
85.805
 10
13.4
 20
85.801
 10
13.335
 20
85.805
 10
13.271
 20
85.818
 10
13.209
 20
85.839
 10
13.15
 20
85.868
 10
13.096
 20
85.904
 10
13.046
 20
85.947
 10
13.003
 20
85.997
 10
12.967
 20
86.051
 10
12.938
 20
86.11
 10
12.917
 20
86.172
 10
12.904
 20
86.236
 10
12.9
 20
86.301
 10
12.904
 20
86.366
 10
12.917
 20
86.43
 10
12.938
 20
86.492
 10
12.967
 20
86.551
 10
13.003
 20
86.605
 10
13.046
 20
86.655
 10
13.096
 20
86.698
 10
13.15
 20
86.734
 10
13.209
 20
86.763
 10
13.271
 20
86.784
 10
13.335
 20
86.797
 10
13.4
 20
86.801
 10
13.465
 20
86.797
 10
13.529
 20
86.784
 10
13.591
 20
86.763
 10
13.65
 20
86.734
 10
13.704
 20
86.698
 10
13.754
 20
86.655
 10
13.797
 20
86.605
 10
13.833
 20
86.551
 10
13.862
 20
86.492
 10
13.883
 20
86.43
 10
13.896
 20
86.366
 97
0
 75
0
 76
1
 98
0
  0
HATCH
  5
38
330
17
100
AcDbEntity
  8
RASTER
 62
7
100
AcDbHatch
 10
0.0
 20
0.0
 30
0.0
210
0.0
220
0.0
230
1.0
  2
SOLID
 70
1
 71
0
 91
1
 92
3
 72
0
 73
1
 93
48
 10
61.701
 20
86.301
 10
61.697
 20
86.236
 10
61.684
 20
86.172
 10
61.663
 20
86.11
 10
61.634
 20
86.051
 10
61.598
 20
85.997
 10
61.555
 20
85.947
 10
61.505
 20
85.904
 10
61.451
 20
85.868
 10
61.392
 20
85.839
 10
61.33
 20
85.818
 10
61.266
 20
85.805
 10
61.201
 20
85.801
 10
61.136
 20
85.805
 10
61.072
 20
85.818
 10
61.01
 20
85.839
 10
60.951
 20
85.868
 10
60.897
 20
85.904
 10
60.847
 20
85.947
 10
60.804
 20
85.997
 10
60.768
 20
86.051
 10
60.739
 20
86.11
 10
60.718
 20
86.172
 10
60.705
 20
86.236
 10
60.701
 20
86.301
 10
60.705
 20
86.366
 10
60.718
 20
86.43
 10
60.739
 20
86.492
 10
60.768
 20
86.551
 10
60.804
 20
86.605
 10
60.847
 20
86.655
 10
60.897
 20
86.698
 10
60.951
 20
86.734
 10
61.01
 20
86.763
 10
61.072
 20
86.784
 10
61.136
 20
86.797
 10
61.201
 20
86.801
 10
61.266
 20
86.797
 10
61.33
 20
86.784
 10
61.392
 20
86.763
 10
61.451
 20
86.734
 10
61.505
 20
86.698
 10
61.555
 20
86.655
 10
61.598
 20
86.605
 10
61.634
 20
86.551
 10
61.663
 20
86.492
 10
61.684
 20
86.43
 10
61.697
 20
86.366
 97
0
 75
0
 76
1
 98
0
  0
LWPOLYLINE
  5
39
330
17
100
AcDbEntity
  8
CUT
100
AcDbPolyline
 90
36
 70
1
 10
6.8
 20
78.641
 10
67.801
 20
78.641
 10
70.641
 20
78.641
 10
70.641
 20
76.161
 10
67.841
 20
76.161
 10
67.841
 20
73.841
 10
70.641
 20
73.841
 10
70.641
 20
71.361
 10
67.801
 20
71.361
 10
62.295
 20
71.361
 10
62.295
 20
68.561
 10
56.67
 20
68.561
 10
56.67
 20
71.361
 10
51.204
 20
71.361
 10
51.204
 20
68.561
 10
45.579
 20
68.561
 10
45.579
 20
71.361
 10
40.113
 20
71.361
 10
40.113
 20
68.561
 10
34.488
 20
68.561
 10
34.488
 20
71.361
 10
29.022
 20
71.361
 10
29.022
 20
68.561
 10
23.397
 20
68.561
 10
23.397
 20
71.361
 10
17.931
 20
71.361
 10
17.931
 20
68.561
 10
12.306
 20
68.561
 10
12.306
 20
71.361
 10
6.8
 20
71.361
 10
3.96
 20
71.361
 10
3.96
 20
73.841
 10
6.76
 20
73.841
 10
6.76
 20
76.161
 10
3.96
 20
76.161
 10
3.96
 20
78.641
  0
LWPOLYLINE
  5
3A
330
17
100
AcDbEntity
  8
CUT
100
AcDbPolyline
 90
4
 70
1
 10
11.84
 20
76.061
 10
62.761
 20
76.061
 10
62.761
 20
73.941
 10
11.84
 20
73.941
  0
HATCH
  5
3B
330
17
100
AcDbEntity
  8
RASTER
 62
7
100
AcDbHatch
 10
0.0
 20
0.0
 30
0.0
210
0.0
220
0.0
230
1.0
  2
SOLID
 70
1
 71
0
 91
1
 92
3
 72
0
 73
1
 93
4
 10
7.4
 20
78.201
 10
11.2
 20
78.201
 10
11.2
 20
71.801
 10
7.4
 20
71.801
 97
0
 75
0
 76
1
 98
0
  0
HATCH
  5
3C
330
17
100
AcDbEntity
  8
RASTER
 62
7
100
AcDbHatch
 10
0.0
 20
0.0
 30
0.0
210
0.0
220
0.0
230
1.0
  2
SOLID
 70
1
 71
0
 91
1
 92
3
 72
0
 73
1
 93
4
 10
63.401
 20
78.201
 10
67.201
 20
78.201
 10
67.201
 20
71.801
 10
63.401
 20
71.801
 97
0
 75
0
 76
1
 98
0
  0
HATCH
  5
3D
330
17
100
AcDbEntity
  8
RASTER
 62
7
100
AcDbHatch
 10
0.0
 20
0.0
 30
0.0
210
0.0
220
0.0
230
1.0
  2
SOLID
 70
1
 71
0
 91
1
 92
3
 72
0
 73
1
 93
48
 10
13.9
 20
77.701
 10
13.896
 20
77.636
 10
13.883
 20
77.572
 10
13.862
 20
77.51
 10
13.833
 20
77.451
 10
13.797
 20
77.397
 10
13.754
 20
77.347
 10
13.704
 20
77.304
 10
13.65
 20
77.268
 10
13.591
 20
77.239
 10
13.529
 20
77.218
 10
13.465
 20
77.205
 10
13.4
 20
77.201
 10
13.335
 20
77.205
 10
13.271
 20
77.218
 10
13.209
 20
77.239
 10
13.15
 20
77.268
 10
13.096
 20
77.304
 10
13.046
 20
77.347
 10
13.003
 20
77.397
 10
12.967
 20
77.451
 10
12.938
 20
77.51
 10
12.917
 20
77.572
 10
12.904
 20
77.636
 10
12.9
 20
77.701
 10
12.904
 20
77.766
 10
12.917
 20
77.83
 10
12.938
 20
77.892
 10
12.967
 20
77.951
 10
13.003
 20
78.005
 10
13.046
 20
78.055
 10
13.096
 20
78.098
 10
13.15
 20
78.134
 10
13.209
 20
78.163
 10
13.271
 20
78.184
 10
13.335
 20
78.197
 10
13.4
 20
78.201
 10
13.465
 20
78.197
 10
13.529
 20
78.184
 10
13.591
 20
78.163
 10
13.65
 20
78.134
 10
13.704
 20
78.098
 10
13.754
 20
78.055
 10
13.797
 20
78.005
 10
13.833
 20
77.951
 10
13.862
 20
77.892
 10
13.883
 20
77.83
 10
13.896
 20
77.766
 97
0
 75
0
 76
1
 98
0
  0
HATCH
  5
3E
330
17
100
AcDbEntity
  8
RASTER
 62
7
100
AcDbHatch
 10
0.0
 20
0.0
 30
0.0
210
0.0
220
0.0
230
1.0
  2
SOLID
 70
1
 71
0
 91
1
 92
3
 72
0
 73
1
 93
48
 10
61.701
 20
77.701
 10
61.697
 20
77.636
 10
61.684
 20
77.572
 10
61.663
 20
77.51
 10
61.634
 20
77.451
 10
61.598
 20
77.397
 10
61.555
 20
77.347
 10
61.505
 20
77.304
 10
61.451
 20
77.268
 10
61.392
 20
77.239
 10
61.33
 20
77.218
 10
61.266
 20
77.205
 10
61.201
 20
77.201
 10
61.136
 20
77.205
 10
61.072
 20
77.218
 10
61.01
 20
77.239
 10
60.951
 20
77.268
 10
60.897
 20
77.304
 10
60.847
 20
77.347
 10
60.804
 20
77.397
 10
60.768
 20
77.451
 10
60.739
 20
77.51
 10
60.718
 20
77.572
 10
60.705
 20
77.636
 10
60.701
 20
77.701
 10
60.705
 20
77.766
 10
60.718
 20
77.83
 10
60.739
 20
77.892
 10
60.768
 20
77.951
 10
60.804
 20
78.005
 10
60.847
 20
78.055
 10
60.897
 20
78.098
 10
60.951
 20
78.134
 10
61.01
 20
78.163
 10
61.072
 20
78.184
 10
61.136
 20
78.197
 10
61.201
 20
78.201
 10
61.266
 20
78.197
 10
61.33
 20
78.184
 10
61.392
 20
78.163
 10
61.451
 20
78.134
 10
61.505
 20
78.098
 10
61.555
 20
78.055
 10
61.598
 20
78.005
 10
61.634
 20
77.951
 10
61.663
 20
77.892
 10
61.684
 20
77.83
 10
61.697
 20
77.766
 97
0
 75
0
 76
1
 98
0
  0
HATCH
  5
3F
330
17
100
AcDbEntity
  8
RASTER
 62
7
100
AcDbHatch
 10
0.0
 20
0.0
 30
0.0
210
0.0
220
0.0
230
1.0
  2
SOLID
 70
1
 71
0
 91
1
 92
3
 72
0
 73
1
 93
48
 10
13.9
 20
72.301
 10
13.896
 20
72.236
 10
13.883
 20
72.172
 10
13.862
 20
72.11
 10
13.833
 20
72.051
 10
13.797
 20
71.997
 10
13.754
 20
71.947
 10
13.704
 20
71.904
 10
13.65
 20
71.868
 10
13.591
 20
71.839
 10
13.529
 20
71.818
 10
13.465
 20
71.805
 10
13.4
 20
71.801
 10
13.335
 20
71.805
 10
13.271
 20
71.818
 10
13.209
 20
71.839
 10
13.15
 20
71.868
 10
13.096
 20
71.904
 10
13.046
 20
71.947
 10
13.003
 20
71.997
 10
12.967
 20
72.051
 10
12.938
 20
72.11
 10
12.917
 20
72.172
 10
12.904
 20
72.236
 10
12.9
 20
72.301
 10
12.904
 20
72.366
 10
12.917
 20
72.43
 10
12.938
 20
72.492
 10
12.967
 20
72.551
 10
13.003
 20
72.605
 10
13.046
 20
72.655
 10
13.096
 20
72.698
 10
13.15
 20
72.734
 10
13.209
 20
72.763
 10
13.271
 20
72.784
 10
13.335
 20
72.797
 10
13.4
 20
72.801
 10
13.465
 20
72.797
 10
13.529
 20
72.784
 10
13.591
 20
72.763
 10
13.65
 20
72.734
 10
13.704
 20
72.698
 10
13.754
 20
72.655
 10
13.797
 20
72.605
 10
13.833
 20
72.551
 10
13.862
 20
72.492
 10
13.883
 20
72.43
 10
13.896
 20
72.366
 97
0
 75
0
 76
1
 98
0
  0
HATCH
  5
40
330
17
100
AcDbEntity
  8
RASTER
 62
7
100
AcDbHatch
 10
0.0
 20
0.0
 30
0.0
210
0.0
220
0.0
230
1.0
  2
SOLID
 70
1
 71
0
 91
1
 92
3
 72
0
 73
1
 93
48
 10
61.701
 20
72.301
 10
61.697
 20
72.236
 10
61.684
 20
72.172
 10
61.663
 20
72.11
 10
61.634
 20
72.051
 10
61.598
 20
71.997
 10
61.555
 20
71.947
 10
61.505
 20
71.904
 10
61.451
 20
71.868
 10
61.392
 20
71.839
 10
61.33
 20
71.818
 10
61.266
 20
71.805
 10
61.201
 20
71.801
 10
61.136
 20
71.805
 10
61.072
 20
71.818
 10
61.01
 20
71.839
 10
60.951
 20
71.868
 10
60.897
 20
71.904
 10
60.847
 20
71.947
 10
60.804
 20
71.997
 10
60.768
 20
72.051
 10
60.739
 20
72.11
 10
60.718
 20
72.172
 10
60.705
 20
72.236
 10
60.701
 20
72.301
 10
60.705
 20
72.366
 10
60.718
 20
72.43
 10
60.739
 20
72.492
 10
60.768
 20
72.551
 10
60.804
 20
72.605
 10
60.847
 20
72.655
 10
60.897
 20
72.698
 10
60.951
 20
72.734
 10
61.01
 20
72.763
 10
61.072
 20
72.784
 10
61.136
 20
72.797
 10
61.201
 20
72.801
 10
61.266
 20
72.797
 10
61.33
 20
72.784
 10
61.392
 20
72.763
 10
61.451
 20
72.734
 10
61.505
 20
72.698
 10
61.555
 20
72.655
 10
61.598
 20
72.605
 10
61.634
 20
72.551
 10
61.663
 20
72.492
 10
61.684
 20
72.43
 10
61.697
 20
72.366
 97
0
 75
0
 76
1
 98
0
  0
LWPOLYLINE
  5
41
330
17
100
AcDbEntity
  8
CUT
100
AcDbPolyline
 90
24
 70
1
 10
6.76
 20
64.641
 10
47.841
 20
64.641
 10
47.841
 20
62.241
 10
50.641
 20
62.241
 10
50.641
 20
59.761
 10
47.841
 20
59.761
 10
47.841
 20
57.361
 10
41.984
 20
57.361
 10
41.984
 20
54.561
 10
36.046
 20
54.561
 10
36.046
 20
57.361
 10
30.269
 20
57.361
 10
30.269
 20
54.561
 10
24.332
 20
54.561
 10
24.332
 20
57.361
 10
18.555
 20
57.361
 10
18.555
 20
54.561
 10
12.617
 20
54.561
 10
12.617
 20
57.361
 10
6.76
 20
57.361
 10
6.76
 20
59.761
 10
3.96
 20
59.761
 10
3.96
 20
62.241
 10
6.76
 20
62.241
  0
LWPOLYLINE
  5
42
330
17
100
AcDbEntity
  8
CUT
100
AcDbPolyline
 90
4
 70
1
 10
11.84
 20
62.061
 10
42.761
 20
62.061
 10
42.761
 20
59.941
 10
11.84
 20
59.941
  0
HATCH
  5
43
330
17
100
AcDbEntity
  8
RASTER
 62
7
100
AcDbHatch
 10
0.0
 20
0.0
 30
0.0
210
0.0
220
0.0
230
1.0
  2
SOLID
 70
1
 71
0
 91
1
 92
3
 72
0
 73
1
 93
4
 10
7.4
 20
64.201
 10
11.2
 20
64.201
 10
11.2
 20
57.801
 10
7.4
 20
57.801
 97
0
 75
0
 76
1
 98
0
  0
HATCH
  5
44
330
17
100
AcDbEntity
  8
RASTER
 62
7
100
AcDbHatch
 10
0.0
 20
0.0
 30
0.0
210
0.0
220
0.0
230
1.0
  2
SOLID
 70
1
 71
0
 91
1
 92
3
 72
0
 73
1
 93
4
 10
43.401
 20
64.201
 10
47.201
 20
64.201
 10
47.201
 20
57.801
 10
43.401
 20
57.801
 97
0
 75
0
 76
1
 98
0
  0
HATCH
  5
45
330
17
100
AcDbEntity
  8
RASTER
 62
7
100
AcDbHatch
 10
0.0
 20
0.0
 30
0.0
210
0.0
220
0.0
230
1.0
  2
SOLID
 70
1
 71
0
 91
1
 92
3
 72
0
 73
1
 93
48
 10
13.9
 20
63.701
 10
13.896
 20
63.636
 10
13.883
 20
63.572
 10
13.862
 20
63.51
 10
13.833
 20
63.451
 10
13.797
 20
63.397
 10
13.754
 20
63.347
 10
13.704
 20
63.304
 10
13.65
 20
63.268
 10
13.591
 20
63.239
 10
13.529
 20
63.218
 10
13.465
 20
63.205
 10
13.4
 20
63.201
 10
13.335
 20
63.205
 10
13.271
 20
63.218
 10
13.209
 20
63.239
 10
13.15
 20
63.268
 10
13.096
 20
63.304
 10
13.046
 20
63.347
 10
13.003
 20
63.397
 10
12.967
 20
63.451
 10
12.938
 20
63.51
 10
12.917
 20
63.572
 10
12.904
 20
63.636
 10
12.9
 20
63.701
 10
12.904
 20
63.766
 10
12.917
 20
63.83
 10
12.938
 20
63.892
 10
12.967
 20
63.951
 10
13.003
 20
64.005
 10
13.046
 20
64.055
 10
13.096
 20
64.098
 10
13.15
 20
64.134
 10
13.209
 20
64.163
 10
13.271
 20
64.184
 10
13.335
 20
64.197
 10
13.4
 20
64.201
 10
13.465
 20
64.197
 10
13.529
 20
64.184
 10
13.591
 20
64.163
 10
13.65
 20
64.134
 10
13.704
 20
64.098
 10
13.754
 20
64.055
 10
13.797
 20
64.005
 10
13.833
 20
63.951
 10
13.862
 20
63.892
 10
13.883
 20
63.83
 10
13.896
 20
63.766
 97
0
 75
0
 76
1
 98
0
  0
HATCH
  5
46
330
17
100
AcDbEntity
  8
RASTER
 62
7
100
AcDbHatch
 10
0.0
 20
0.0
 30
0.0
210
0.0
220
0.0
230
1.0
  2
SOLID
 70
1
 71
0
 91
1
 92
3
 72
0
 73
1
 93
48
 10
41.701
 20
63.701
 10
41.697
 20
63.636
 10
41.684
 20
63.572
 10
41.663
 20
63.51
 10
41.634
 20
63.451
 10
41.598
 20
63.397
 10
41.555
 20
63.347
 10
41.505
 20
63.304
 10
41.451
 20
63.268
 10
41.392
 20
63.239
 10
41.33
 20
63.218
 10
41.266
 20
63.205
 10
41.201
 20
63.201
 10
41.136
 20
63.205
 10
41.072
 20
63.218
 10
41.01
 20
63.239
 10
40.951
 20
63.268
 10
40.897
 20
63.304
 10
40.847
 20
63.347
 10
40.804
 20
63.397
 10
40.768
 20
63.451
 10
40.739
 20
63.51
 10
40.718
 20
63.572
 10
40.705
 20
63.636
 10
40.701
 20
63.701
 10
40.705
 20
63.766
 10
40.718
 20
63.83
 10
40.739
 20
63.892
 10
40.768
 20
63.951
 10
40.804
 20
64.005
 10
40.847
 20
64.055
 10
40.897
 20
64.098
 10
40.951
 20
64.134
 10
41.01
 20
64.163
 10
41.072
 20
64.184
 10
41.136
 20
64.197
 10
41.201
 20
64.201
 10
41.266
 20
64.197
 10
41.33
 20
64.184
 10
41.392
 20
64.163
 10
41.451
 20
64.134
 10
41.505
 20
64.098
 10
41.555
 20
64.055
 10
41.598
 20
64.005
 10
41.634
 20
63.951
 10
41.663
 20
63.892
 10
41.684
 20
63.83
 10
41.697
 20
63.766
 97
0
 75
0
 76
1
 98
0
  0
HATCH
  5
47
330
17
100
AcDbEntity
  8
RASTER
 62
7
100
AcDbHatch
 10
0.0
 20
0.0
 30
0.0
210
0.0
220
0.0
230
1.0
  2
SOLID
 70
1
 71
0
 91
1
 92
3
 72
0
 73
1
 93
48
 10
13.9
 20
58.301
 10
13.896
 20
58.236
 10
13.883
 20
58.172
 10
13.862
 20
58.11
 10
13.833
 20
58.051
 10
13.797
 20
57.997
 10
13.754
 20
57.947
 10
13.704
 20
57.904
 10
13.65
 20
57.868
 10
13.591
 20
57.839
 10
13.529
 20
57.818
 10
13.465
 20
57.805
 10
13.4
 20
57.801
 10
13.335
 20
57.805
 10
13.271
 20
57.818
 10
13.209
 20
57.839
 10
13.15
 20
57.868
 10
13.096
 20
57.904
 10
13.046
 20
57.947
 10
13.003
 20
57.997
 10
12.967
 20
58.051
 10
12.938
 20
58.11
 10
12.917
 20
58.172
 10
12.904
 20
58.236
 10
12.9
 20
58.301
 10
12.904
 20
58.366
 10
12.917
 20
58.43
 10
12.938
 20
58.492
 10
12.967
 20
58.551
 10
13.003
 20
58.605
 10
13.046
 20
58.655
 10
13.096
 20
58.698
 10
13.15
 20
58.734
 10
13.209
 20
58.763
 10
13.271
 20
58.784
 10
13.335
 20
58.797
 10
13.4
 20
58.801
 10
13.465
 20
58.797
 10
13.529
 20
58.784
 10
13.591
 20
58.763
 10
13.65
 20
58.734
 10
13.704
 20
58.698
 10
13.754
 20
58.655
 10
13.797
 20
58.605
 10
13.833
 20
58.551
 10
13.862
 20
58.492
 10
13.883
 20
58.43
 10
13.896
 20
58.366
 97
0
 75
0
 76
1
 98
0
  0
HATCH
  5
48
330
17
100
AcDbEntity
  8
RASTER
 62
7
100
AcDbHatch
 10
0.0
 20
0.0
 30
0.0
210
0.0
220
0.0
230
1.0
  2
SOLID
 70
1
 71
0
 91
1
 92
3
 72
0
 73
1
 93
48
 10
41.701
 20
58.301
 10
41.697
 20
58.236
 10
41.684
 20
58.172
 10
41.663
 20
58.11
 10
41.634
 20
58.051
 10
41.598
 20
57.997
 10
41.555
 20
57.947
 10
41.505
 20
57.904
 10
41.451
 20
57.868
 10
41.392
 20
57.839
 10
41.33
 20
57.818
 10
41.266
 20
57.805
 10
41.201
 20
57.801
 10
41.136
 20
57.805
 10
41.072
 20
57.818
 10
41.01
 20
57.839
 10
40.951
 20
57.868
 10
40.897
 20
57.904
 10
40.847
 20
57.947
 10
40.804
 20
57.997
 10
40.768
 20
58.051
 10
40.739
 20
58.11
 10
40.718
 20
58.172
 10
40.705
 20
58.236
 10
40.701
 20
58.301
 10
40.705
 20
58.366
 10
40.718
 20
58.43
 10
40.739
 20
58.492
 10
40.768
 20
58.551
 10
40.804
 20
58.605
 10
40.847
 20
58.655
 10
40.897
 20
58.698
 10
40.951
 20
58.734
 10
41.01
 20
58.763
 10
41.072
 20
58.784
 10
41.136
 20
58.797
 10
41.201
 20
58.801
 10
41.266
 20
58.797
 10
41.33
 20
58.784
 10
41.392
 20
58.763
 10
41.451
 20
58.734
 10
41.505
 20
58.698
 10
41.555
 20
58.655
 10
41.598
 20
58.605
 10
41.634
 20
58.551
 10
41.663
 20
58.492
 10
41.684
 20
58.43
 10
41.697
 20
58.366
 97
0
 75
0
 76
1
 98
0
  0
LWPOLYLINE
  5
49
330
17
100
AcDbEntity
  8
CUT
100
AcDbPolyline
 90
24
 70
1
 10
57.361
 20
64.641
 10
98.442
 20
64.641
 10
98.442
 20
62.241
 10
101.242
 20
62.241
 10
101.242
 20
59.761
 10
98.442
 20
59.761
 10
98.442
 20
57.361
 10
92.585
 20
57.361
 10
92.585
 20
54.561
 10
86.647
 20
54.561
 10
86.647
 20
57.361
 10
80.87
 20
57.361
 10
80.87
 20
54.561
 10
74.933
 20
54.561
 10
74.933
 20
57.361
 10
69.156
 20
57.361
 10
69.156
 20
54.561
 10
63.218
 20
54.561
 10
63.218
 20
57.361
 10
57.361
 20
57.361
 10
57.361
 20
59.761
 10
54.561
 20
59.761
 10
54.561
 20
62.241
 10
57.361
 20
62.241
  0
LWPOLYLINE
  5
4A
330
17
100
AcDbEntity
  8
CUT
100
AcDbPolyline
 90
4
 70
1
 10
62.441
 20
62.061
 10
93.362
 20
62.061
 10
93.362
 20
59.941
 10
62.441
 20
59.941
  0
HATCH
  5
4B
330
17
100
AcDbEntity
  8
RASTER
 62
7
100
AcDbHatch
 10
0.0
 20
0.0
 30
0.0
210
0.0
220
0.0
230
1.0
  2
SOLID
 70
1
 71
0
 91
1
 92
3
 72
0
 73
1
 93
4
 10
58.001
 20
64.201
 10
61.801
 20
64.201
 10
61.801
 20
57.801
 10
58.001
 20
57.801
 97
0
 75
0
 76
1
 98
0
  0
HATCH
  5
4C
330
17
100
AcDbEntity
  8
RASTER
 62
7
100
AcDbHatch
 10
0.0
 20
0.0
 30
0.0
210
0.0
220
0.0
230
1.0
  2
SOLID
 70
1
 71
0
 91
1
 92
3
 72
0
 73
1
 93
4
 10
94.002
 20
64.201
 10
97.802
 20
64.201
 10
97.802
 20
57.801
 10
94.002
 20
57.801
 97
0
 75
0
 76
1
 98
0
  0
HATCH
  5
4D
330
17
100
AcDbEntity
  8
RASTER
 62
7
100
AcDbHatch
 10
0.0
 20
0.0
 30
0.0
210
0.0
220
0.0
230
1.0
  2
SOLID
 70
1
 71
0
 91
1
 92
3
 72
0
 73
1
 93
48
 10
64.501
 20
63.701
 10
64.497
 20
63.636
 10
64.484
 20
63.572
 10
64.463
 20
63.51
 10
64.434
 20
63.451
 10
64.398
 20
63.397
 10
64.355
 20
63.347
 10
64.305
 20
63.304
 10
64.251
 20
63.268
 10
64.192
 20
63.239
 10
64.13
 20
63.218
 10
64.066
 20
63.205
 10
64.001
 20
63.201
 10
63.936
 20
63.205
 10
63.872
 20
63.218
 10
63.81
 20
63.239
 10
63.751
 20
63.268
 10
63.697
 20
63.304
 10
63.647
 20
63.347
 10
63.604
 20
63.397
 10
63.568
 20
63.451
 10
63.539
 20
63.51
 10
63.518
 20
63.572
 10
63.505
 20
63.636
 10
63.501
 20
63.701
 10
63.505
 20
63.766
 10
63.518
 20
63.83
 10
63.539
 20
63.892
 10
63.568
 20
63.951
 10
63.604
 20
64.005
 10
63.647
 20
64.055
 10
63.697
 20
64.098
 10
63.751
 20
64.134
 10
63.81
 20
64.163
 10
63.872
 20
64.184
 10
63.936
 20
64.197
 10
64.001
 20
64.201
 10
64.066
 20
64.197
 10
64.13
 20
64.184
 10
64.192
 20
64.163
 10
64.251
 20
64.134
 10
64.305
 20
64.098
 10
64.355
 20
64.055
 10
64.398
 20
64.005
 10
64.434
 20
63.951
 10
64.463
 20
63.892
 10
64.484
 20
63.83
 10
64.497
 20
63.766
 97
0
 75
0
 76
1
 98
0
  0
HATCH
  5
4E
330
17
100
AcDbEntity
  8
RASTER
 62
7
100
AcDbHatch
 10
0.0
 20
0.0
 30
0.0
210
0.0
220
0.0
230
1.0
  2
SOLID
 70
1
 71
0
 91
1
 92
3
 72
0
 73
1
 93
48
 10
92.302
 20
63.701
 10
92.298
 20
63.636
 10
92.285
 20
63.572
 10
92.264
 20
63.51
 10
92.235
 20
63.451
 10
92.199
 20
63.397
 10
92.156
 20
63.347
 10
92.106
 20
63.304
 10
92.052
 20
63.268
 10
91.993
 20
63.239
 10
91.931
 20
63.218
 10
91.867
 20
63.205
 10
91.802
 20
63.201
 10
91.737
 20
63.205
 10
91.673
 20
63.218
 10
91.611
 20
63.239
 10
91.552
 20
63.268
 10
91.498
 20
63.304
 10
91.448
 20
63.347
 10
91.405
 20
63.397
 10
91.369
 20
63.451
 10
91.34
 20
63.51
 10
91.319
 20
63.572
 10
91.306
 20
63.636
 10
91.302
 20
63.701
 10
91.306
 20
63.766
 10
91.319
 20
63.83
 10
91.34
 20
63.892
 10
91.369
 20
63.951
 10
91.405
 20
64.005
 10
91.448
 20
64.055
 10
91.498
 20
64.098
 10
91.552
 20
64.134
 10
91.611
 20
64.163
 10
91.673
 20
64.184
 10
91.737
 20
64.197
 10
91.802
 20
64.201
 10
91.867
 20
64.197
 10
91.931
 20
64.184
 10
91.993
 20
64.163
 10
92.052
 20
64.134
 10
92.106
 20
64.098
 10
92.156
 20
64.055
 10
92.199
 20
64.005
 10
92.235
 20
63.951
 10
92.264
 20
63.892
 10
92.285
 20
63.83
 10
92.298
 20
63.766
 97
0
 75
0
 76
1
 98
0
  0
HATCH
  5
4F
330
17
100
AcDbEntity
  8
RASTER
 62
7
100
AcDbHatch
 10
0.0
 20
0.0
 30
0.0
210
0.0
220
0.0
230
1.0
  2
SOLID
 70
1
 71
0
 91
1
 92
3
 72
0
 73
1
 93
48
 10
64.501
 20
58.301
 10
64.497
 20
58.236
 10
64.484
 20
58.172
 10
64.463
 20
58.11
 10
64.434
 20
58.051
 10
64.398
 20
57.997
 10
64.355
 20
57.947
 10
64.305
 20
57.904
 10
64.251
 20
57.868
 10
64.192
 20
57.839
 10
64.13
 20
57.818
 10
64.066
 20
57.805
 10
64.001
 20
57.801
 10
63.936
 20
57.805
 10
63.872
 20
57.818
 10
63.81
 20
57.839
 10
63.751
 20
57.868
 10
63.697
 20
57.904
 10
63.647
 20
57.947
 10
63.604
 20
57.997
 10
63.568
 20
58.051
 10
63.539
 20
58.11
 10
63.518
 20
58.172
 10
63.505
 20
58.236
 10
63.501
 20
58.301
 10
63.505
 20
58.366
 10
63.518
 20
58.43
 10
63.539
 20
58.492
 10
63.568
 20
58.551
 10
63.604
 20
58.605
 10
63.647
 20
58.655
 10
63.697
 20
58.698
 10
63.751
 20
58.734
 10
63.81
 20
58.763
 10
63.872
 20
58.784
 10
63.936
 20
58.797
 10
64.001
 20
58.801
 10
64.066
 20
58.797
 10
64.13
 20
58.784
 10
64.192
 20
58.763
 10
64.251
 20
58.734
 10
64.305
 20
58.698
 10
64.355
 20
58.655
 10
64.398
 20
58.605
 10
64.434
 20
58.551
 10
64.463
 20
58.492
 10
64.484
 20
58.43
 10
64.497
 20
58.366
 97
0
 75
0
 76
1
 98
0
  0
HATCH
  5
50
330
17
100
AcDbEntity
  8
RASTER
 62
7
100
AcDbHatch
 10
0.0
 20
0.0
 30
0.0
210
0.0
220
0.0
230
1.0
  2
SOLID
 70
1
 71
0
 91
1
 92
3
 72
0
 73
1
 93
48
 10
92.302
 20
58.301
 10
92.298
 20
58.236
 10
92.285
 20
58.172
 10
92.264
 20
58.11
 10
92.235
 20
58.051
 10
92.199
 20
57.997
 10
92.156
 20
57.947
 10
92.106
 20
57.904
 10
92.052
 20
57.868
 10
91.993
 20
57.839
 10
91.931
 20
57.818
 10
91.867
 20
57.805
 10
91.802
 20
57.801
 10
91.737
 20
57.805
 10
91.673
 20
57.818
 10
91.611
 20
57.839
 10
91.552
 20
57.868
 10
91.498
 20
57.904
 10
91.448
 20
57.947
 10
91.405
 20
57.997
 10
91.369
 20
58.051
 10
91.34
 20
58.11
 10
91.319
 20
58.172
 10
91.306
 20
58.236
 10
91.302
 20
58.301
 10
91.306
 20
58.366
 10
91.319
 20
58.43
 10
91.34
 20
58.492
 10
91.369
 20
58.551
 10
91.405
 20
58.605
 10
91.448
 20
58.655
 10
91.498
 20
58.698
 10
91.552
 20
58.734
 10
91.611
 20
58.763
 10
91.673
 20
58.784
 10
91.737
 20
58.797
 10
91.802
 20
58.801
 10
91.867
 20
58.797
 10
91.931
 20
58.784
 10
91.993
 20
58.763
 10
92.052
 20
58.734
 10
92.106
 20
58.698
 10
92.156
 20
58.655
 10
92.199
 20
58.605
 10
92.235
 20
58.551
 10
92.264
 20
58.492
 10
92.285
 20
58.43
 10
92.298
 20
58.366
 97
0
 75
0
 76
1
 98
0
  0
LWPOLYLINE
  5
51
330
17
100
AcDbEntity
  8
CUT
100
AcDbPolyline
 90
76
 70
1
 10
3.96
 20
50.641
 10
6.8
 20
50.641
 10
12.386
 20
50.641
 10
12.386
 20
47.841
 10
17.851
 20
47.841
 10
17.851
 20
50.641
 10
23.477
 20
50.641
 10
23.477
 20
47.841
 10
28.942
 20
47.841
 10
28.942
 20
50.641
 10
34.568
 20
50.641
 10
34.568
 20
47.841
 10
40.033
 20
47.841
 10
40.033
 20
50.641
 10
45.659
 20
50.641
 10
45.659
 20
47.841
 10
51.124
 20
47.841
 10
51.124
 20
50.641
 10
56.75
 20
50.641
 10
56.75
 20
47.841
 10
62.215
 20
47.841
 10
62.215
 20
50.641
 10
67.801
 20
50.641
 10
70.641
 20
50.641
 10
70.641
 20
47.801
 10
70.641
 20
41.904
 10
67.841
 20
41.904
 10
67.841
 20
36.126
 10
70.641
 20
36.126
 10
70.641
 20
30.189
 10
67.841
 20
30.189
 10
67.841
 20
24.412
 10
70.641
 20
24.412
 10
70.641
 20
18.475
 10
67.841
 20
18.475
 10
67.841
 20
12.697
 10
70.641
 20
12.697
 10
70.641
 20
6.8
 10
70.641
 20
3.96
 10
67.801
 20
3.96
 10
62.215
 20
3.96
 10
62.215
 20
6.76
 10
56.75
 20
6.76
 10
56.75
 20
3.96
 10
51.124
 20
3.96
 10
51.124
 20
6.76
 10
45.659
 20
6.76
 10
45.659
 20
3.96
 10
40.033
 20
3.96
 10
40.033
 20
6.76
 10
34.568
 20
6.76
 10
34.568
 20
3.96
 10
28.942
 20
3.96
 10
28.942
 20
6.76
 10
23.477
 20
6.76
 10
23.477
 20
3.96
 10
17.851
 20
3.96
 10
17.851
 20
6.76
 10
12.386
 20
6.76
 10
12.386
 20
3.96
 10
6.8
 20
3.96
 10
3.96
 20
3.96
 10
3.96
 20
6.8
 10
3.96
 20
12.697
 10
6.76
 20
12.697
 10
6.76
 20
18.475
 10
3.96
 20
18.475
 10
3.96
 20
24.412
 10
6.76
 20
24.412
 10
6.76
 20
30.189
 10
3.96
 20
30.189
 10
3.96
 20
36.126
 10
6.76
 20
36.126
 10
6.76
 20
41.904
 10
3.96
 20
41.904
 10
3.96
 20
47.801
  0
ENDSEC
  0
SECTION
  2
OBJECTS
  0
DICTIONARY
  5
A
330
0
100
AcDbDictionary
281
1
  3
ACAD_COLOR
350
B
  3
ACAD_GROUP
350
C
  3
ACAD_LAYOUT
350
D
  3
ACAD_MATERIAL
350
E
  3
ACAD_MLEADERSTYLE
350
F
  3
ACAD_MLINESTYLE
350
10
  3
ACAD_PLOTSETTINGS
350
11
  3
ACAD_PLOTSTYLENAME
350
12
  3
ACAD_SCALELIST
350
14
  3
ACAD_TABLESTYLE
350
15
  3
ACAD_VISUALSTYLE
350
16
  3
EZDXF_META
350
2D
  0
DICTIONARY
  5
B
330
A
100
AcDbDictionary
281
1
  0
DICTIONARY
  5
C
330
A
100
AcDbDictionary
281
1
  0
DICTIONARY
  5
D
330
A
100
AcDbDictionary
281
1
  3
Model
350
1A
  3
Layout1
350
1E
  0
DICTIONARY
  5
E
330
A
100
AcDbDictionary
281
1
  3
ByBlock
350
1F
  3
ByLayer
350
20
  3
Global
350
21
  0
DICTIONARY
  5
F
330
A
100
AcDbDictionary
281
1
  3
Standard
350
2C
  0
DICTIONARY
  5
10
330
A
100
AcDbDictionary
281
1
  3
Standard
350
22
  0
DICTIONARY
  5
11
330
A
100
AcDbDictionary
281
1
  0
ACDBDICTIONARYWDFLT
  5
12
330
A
100
AcDbDictionary
281
1
  3
Normal
350
13
100
AcDbDictionaryWithDefault
340
13
  0
ACDBPLACEHOLDER
  5
13
330
12
  0
DICTIONARY
  5
14
330
A
100
AcDbDictionary
281
1
  0
DICTIONARY
  5
15
330
A
100
AcDbDictionary
281
1
  0
DICTIONARY
  5
16
330
A
100
AcDbDictionary
281
1
  0
LAYOUT
  5
1A
330
D
100
AcDbPlotSettings
  1

  4
A3
  6

 40
7.5
 41
20.0
 42
7.5
 43
20.0
 44
420.0
 45
297.0
 46
0.0
 47
0.0
 48
0.0
 49
0.0
140
0.0
141
0.0
142
1.0
143
1.0
 70
1024
 72
1
 73
0
 74
5
  7

 75
16
 76
0
 77
2
 78
300
147
1.0
148
0.0
149
0.0
100
AcDbLayout
  1
Model
 70
1
 71
0
 10
0.0
 20
0.0
 11
420.0
 21
297.0
 12
0.0
 22
0.0
 32
0.0
 14
1e+20
 24
1e+20
 34
1e+20
 15
-1e+20
 25
-1e+20
 35
-1e+20
146
0.0
 13
0.0
 23
0.0
 33
0.0
 16
1.0
 26
0.0
 36
0.0
 17
0.0
 27
1.0
 37
0.0
 76
1
330
17
  0
LAYOUT
  5
1E
330
D
100
AcDbPlotSettings
  1

  4
A3
  6

 40
7.5
 41
20.0
 42
7.5
 43
20.0
 44
420.0
 45
297.0
 46
0.0
 47
0.0
 48
0.0
 49
0.0
140
0.0
141
0.0
142
1.0
143
1.0
 70
0
 72
1
 73
0
 74
5
  7

 75
16
 76
0
 77
2
 78
300
147
1.0
148
0.0
149
0.0
100
AcDbLayout
  1
Layout1
 70
1
 71
1
 10
0.0
 20
0.0
 11
420.0
 21
297.0
 12
0.0
 22
0.0
 32
0.0
 14
1e+20
 24
1e+20
 34
1e+20
 15
-1e+20
 25
-1e+20
 35
-1e+20
146
0.0
 13
0.0
 23
0.0
 33
0.0
 16
1.0
 26
0.0
 36
0.0
 17
0.0
 27
1.0
 37
0.0
 76
1
330
1B
  0
MATERIAL
  5
1F
102
{ACAD_REACTORS
330
E
102
}
330
E
100
AcDbMaterial
  1
ByBlock
  2

 70
0
 40
1.0
 71
1
 41
1.0
 91
-1023410177
 42
1.0
 72
1
  3

 73
1
 74
1
 75
1
 44
0.5
 73
0
 45
1.0
 46
1.0
 77
1
  4

 78
1
 79
1
170
1
 48
1.0
171
1
  6

172
1
173
1
174
1
140
1.0
141
1.0
175
1
  7

176
1
177
1
178
1
143
1.0
179
1
  8

270
1
271
1
272
1
145
1.0
146
1.0
273
1
  9

274
1
275
1
276
1
 42
1.0
 72
1
  3

 73
1
 74
1
 75
1
 94
63
  0
MATERIAL
  5
20
102
{ACAD_REACTORS
330
E
102
}
330
E
100
AcDbMaterial
  1
ByLayer
  2

 70
0
 40
1.0
 71
1
 41
1.0
 91
-1023410177
 42
1.0
 72
1
  3

 73
1
 74
1
 75
1
 44
0.5
 73
0
 45
1.0
 46
1.0
 77
1
  4

 78
1
 79
1
170
1
 48
1.0
171
1
  6

172
1
173
1
174
1
140
1.0
141
1.0
175
1
  7

176
1
177
1
178
1
143
1.0
179
1
  8

270
1
271
1
272
1
145
1.0
146
1.0
273
1
  9

274
1
275
1
276
1
 42
1.0
 72
1
  3

 73
1
 74
1
 75
1
 94
63
  0
MATERIAL
  5
21
102
{ACAD_REACTORS
330
E
102
}
330
E
100
AcDbMaterial
  1
Global
  2

 70
0
 40
1.0
 71
1
 41
1.0
 91
-1023410177
 42
1.0
 72
1
  3

 73
1
 74
1
 75
1
 44
0.5
 73
0
 45
1.0
 46
1.0
 77
1
  4

 78
1
 79
1
170
1
 48
1.0
171
1
  6

172
1
173
1
174
1
140
1.0
141
1.0
175
1
  7

176
1
177
1
178
1
143
1.0
179
1
  8

270
1
271
1
272
1
145
1.0
146
1.0
273
1
  9

274
1
275
1
276
1
 42
1.0
 72
1
  3

 73
1
 74
1
 75
1
 94
63
  0
MLINESTYLE
  5
22
102
{ACAD_REACTORS
330
10
102
}
330
10
100
AcDbMlineStyle
  2
Standard
 70
0
  3

 62
256
 51
90.0
 52
90.0
 71
2
 49
0.5
 62
256
  6
BYLAYER
 49
-0.5
 62
256
  6
BYLAYER
  0
MLEADERSTYLE
  5
2C
102
{ACAD_REACTORS
330
F
102
}
330
F
100
AcDbMLeaderStyle
179
2
170
2
171
1
172
0
 90
2
 40
0.0
 41
0.0
173
1
 91
-1056964608
 92
-2
290
1
 42
2.0
291
1
 43
8.0
  3
Standard
 44
4.0
300

342
29
174
1
175
1
176
0
178
1
 93
-1056964608
 45
4.0
292
0
297
0
 46
4.0
 94
-1056964608
 47
1.0
 49
1.0
140
1.0
294
1
141
0.0
177
0
142
1.0
295
0
296
0
143
3.75
271
0
272
9
273
9
  0
DICTIONARY
  5
2D
330
A
100
AcDbDictionary
280
1
281
1
  3
CREATED_BY_EZDXF
350
2E
  3
WRITTEN_BY_EZDXF
350
54
  0
DICTIONARYVAR
  5
2E
330
2D
100
DictionaryVariables
280
0
  1
1.4.2 @ 2026-09-13T17:18:22.909134+00:00
  0
DICTIONARYVAR
  5
54
330
2D
100
DictionaryVariables
280
0
  1
1.4.2 @ 2026-09-13T17:18:22.912784+00:00
  0
ENDSEC
  0
EOF
