  0
SECTION
  2
HEADER
  9
$ACADVER
  1
AC1015
  9
$ACADMAINTVER
 70
6
  9
$DWGCODEPAGE
  3
ANSI_1252
  9
$INSBASE
 10
0.0
 20
0.0
 30
0.0
  9
$EXTMIN
 10
1e+20
 20
1e+20
 30
1e+20
  9
$EXTMAX
 10
-1e+20
 20
-1e+20
 30
-1e+20
  9
$LIMMIN
 10
0.0
 20
0.0
  9
$LIMMAX
 10
420.0
 20
297.0
  9
$ORTHOMODE
 70
0
  9
$REGENMODE
 70
1
  9
$FILLMODE
 70
1
  9
$QTEXTMODE
 70
0
  9
$MIRRTEXT
 70
1
  9
$LTSCALE
 40
1.0
  9
$ATTMODE
 70
1
  9
$TEXTSIZE
 40
2.5
  9
$TRACEWID
 40
1.0
  9
$TEXTSTYLE
  7
Standard
  9
$CLAYER
  8
0
  9
$CELTYPE
  6
ByLayer
  9
$CECOLOR
 62
256
  9
$CELTSCALE
 40
1.0
  9
$DISPSILH
 70
0
  9
$DIMSCALE
 40
1.0
  9
$DIMASZ
 40
2.5
  9
$DIMEXO
 40
0.625
  9
$DIMDLI
 40
3.75
  9
$DIMRND
 40
0.0
  9
$DIMDLE
 40
0.0
  9
$DIMEXE
 40
1.25
  9
$DIMTP
 40
0.0
  9
$DIMTM
 40
0.0
  9
$DIMTXT
 40
2.5
  9
$DIMCEN
 40
2.5
  9
$DIMTSZ
 40
0.0
  9
$DIMTOL
 70
0
  9
$DIMLIM
 70
0
  9
$DIMTIH
 70
0
  9
$DIMTOH
 70
0
  9
$DIMSE1
 70
0
  9
$DIMSE2
 70
0
  9
$DIMTAD
 70
1
  9
$DIMZIN
 70
8
  9
$DIMBLK
  1

  9
$DIMASO
 70
1
  9
$DIMSHO
 70
1
  9
$DIMPOST
  1

  9
$DIMAPOST
  1

  9
$DIMALT
 70
0
  9
$DIMALTD
 70
3
  9
$DIMALTF
 40
0.03937007874
  9
$DIMLFAC
 40
1.0
  9
$DIMTOFL
 70
1
  9
$DIMTVP
 40
0.0
  9
$DIMTIX
 70
0
  9
$DIMSOXD
 70
0
  9
$DIMSAH
 70
0
  9
$DIMBLK1
  1

  9
$DIMBLK2
  1

  9
$DIMSTYLE
  2
ISO-25
  9
$DIMCLRD
 70
0
  9
$DIMCLRE
 70
0
  9
$DIMCLRT
 70
0
  9
$DIMTFAC
 40
1.0
  9
$DIMGAP
 40
0.625
  9
$DIMJUST
 70
0
  9
$DIMSD1
 70
0
  9
$DIMSD2
 70
0
  9
$DIMTOLJ
 70
0
  9
$DIMTZIN
 70
8
  9
$DIMALTZ
 70
0
  9
$DIMALTTZ
 70
0
  9
$DIMUPT
 70
0
  9
$DIMDEC
 70
2
  9
$DIMTDEC
 70
2
  9
$DIMALTU
 70
2
  9
$DIMALTTD
 70
3
  9
$DIMTXSTY
  7
Standard
  9
$DIMAUNIT
 70
0
  9
$DIMADEC
 70
0
  9
$DIMALTRND
 40
0.0
  9
$DIMAZIN
 70
0
  9
$DIMDSEP
 70
44
  9
$DIMATFIT
 70
3
  9
$DIMFRAC
 70
0
  9
$DIMLDRBLK
  1

  9
$DIMLUNIT
 70
2
  9
$DIMLWD
 70
-2
  9
$DIMLWE
 70
-2
  9
$DIMTMOVE
 70
0
  9
$LUNITS
 70
2
  9
$LUPREC
 70
4
  9
$SKETCHINC
 40
1.0
  9
$FILLETRAD
 40
10.0
  9
$AUNITS
 70
0
  9
$AUPREC
 70
2
  9
$MENU
  1
.
  9
$ELEVATION
 40
0.0
  9
$PELEVATION
 40
0.0
  9
$THICKNESS
 40
0.0
  9
$LIMCHECK
 70
0
  9
$CHAMFERA
 40
0.0
  9
$CHAMFERB
 40
0.0
  9
$CHAMFERC
 40
0.0
  9
$CHAMFERD
 40
0.0
  9
$SKPOLY
 70
0
  9
$TDCREATE
 40
2461296.422974537
  9
$TDUCREATE
 40
2458532.153996898
  9
$TDUPDATE
 40
2461296.422974537
  9
$TDUUPDATE
 40
2458532.1544311
  9
$TDINDWG
 40
0.0
  9
$TDUSRTIMER
 40
0.0
  9
$USRTIMER
 70
1
  9
$ANGBASE
 50
0.0
  9
$ANGDIR
 70
0
  9
$PDMODE
 70
0
  9
$PDSIZE
 40
0.0
  9
$PLINEWID
 40
0.0
  9
$SPLFRAME
 70
0
  9
$SPLINETYPE
 70
6
  9
$SPLINESEGS
 70
8
  9
$HANDSEED
  5
55
  9
$SURFTAB1
 70
6
  9
$SURFTAB2
 70
6
  9
$SURFTYPE
 70
6
  9
$SURFU
 70
6
  9
$SURFV
 70
6
  9
$UCSBASE
  2

  9
$UCSNAME
  2

  9
$UCSORG
 10
0.0
 20
0.0
 30
0.0
  9
$UCSXDIR
 10
1.0
 20
0.0
 30
0.0
  9
$UCSYDIR
 10
0.0
 20
1.0
 30
0.0
  9
$UCSORTHOREF
  2

  9
$UCSORTHOVIEW
 70
0
  9
$UCSORGTOP
 10
0.0
 20
0.0
 30
0.0
  9
$UCSORGBOTTOM
 10
0.0
 20
0.0
 30
0.0
  9
$UCSORGLEFT
 10
0.0
 20
0.0
 30
0.0
  9
$UCSORGRIGHT
 10
0.0
 20
0.0
 30
0.0
  9
$UCSORGFRONT
 10
0.0
 20
0.0
 30
0.0
  9
$UCSORGBACK
 10
0.0
 20
0.0
 30
0.0
  9
$PUCSBASE
  2

  9
$PUCSNAME
  2

  9
$PUCSORG
 10
0.0
 20
0.0
 30
0.0
  9
$PUCSXDIR
 10
1.0
 20
0.0
 30
0.0
  9
$PUCSYDIR
 10
0.0
 20
1.0
 30
0.0
  9
$PUCSORTHOREF
  2

  9
$PUCSORTHOVIEW
 70
0
  9
$PUCSORGTOP
 10
0.0
 20
0.0
 30
0.0
  9
$PUCSORGBOTTOM
 10
0.0
 20
0.0
 30
0.0
  9
$PUCSORGLEFT
 10
0.0
 20
0.0
 30
0.0
  9
$PUCSORGRIGHT
 10
0.0
 20
0.0
 30
0.0
  9
$PUCSORGFRONT
 10
0.0
 20
0.0
 30
0.0
  9
$PUCSORGBACK
 10
0.0
 20
0.0
 30
0.0
  9
$USERI1
 70
0
  9
$USERI2
 70
0
  9
$USERI3
 70
0
  9
$USERI4
 70
0
  9
$USERI5
 70
0
  9
$USERR1
 40
0.0
  9
$USERR2
 40
0.0
  9
$USERR3
 40
0.0
  9
$USERR4
 40
0.0
  9
$USERR5
 40
0.0
  9
$WORLDVIEW
 70
1
  9
$SHADEDGE
 70
3
  9
$SHADEDIF
 70
70
  9
$TILEMODE
 70
1
  9
$MAXACTVP
 70
64
  9
$PINSBASE
 10
0.0
 20
0.0
 30
0.0
  9
$PLIMCHECK
 70
0
  9
$PEXTMIN
 10
1e+20
 20
1e+20
 30
1e+20
  9
$PEXTMAX
 10
-1e+20
 20
-1e+20
 30
-1e+20
  9
$PLIMMIN
 10
0.0
 20
0.0
  9
$PLIMMAX
 10
420.0
 20
297.0
  9
$UNITMODE
 70
0
  9
$VISRETAIN
 70
1
  9
$PLINEGEN
 70
0
  9
$PSLTSCALE
 70
1
  9
$TREEDEPTH
 70
3020
  9
$CMLSTYLE
  2
Standard
  9
$CMLJUST
 70
0
  9
$CMLSCALE
 40
20.0
  9
$PROXYGRAPHICS
 70
1
  9
$MEASUREMENT
 70
1
  9
$CELWEIGHT
370
-1
  9
$ENDCAPS
280
0
  9
$JOINSTYLE
280
0
  9
$LWDISPLAY
290
0
  9
$INSUNITS
 70
4
  9
$HYPERLINKBASE
  1

  9
$STYLESHEET
  1

  9
$XEDIT
290
1
  9
$CEPSNTYPE
380
0
  9
$PSTYLEMODE
290
1
  9
$FINGERPRINTGUID
  2
{8FD5A79D-93E2-4B14-AC1B-1F85C1E89571}
  9
$VERSIONGUID
  2
{D38D9EAA-C655-4B9E-B90F-05DFE8BA97A1}
  9
$EXTNAMES
290
1
  9
$PSVPSCALE
 40
0.0
  9
$OLESTARTUP
290
0
  0
ENDSEC
  0
SECTION
  2
CLASSES
  0
CLASS
  1
ACDBDICTIONARYWDFLT
  2
AcDbDictionaryWithDefault
  3
ObjectDBX Classes
 90
0
280
0
281
0
  0
CLASS
  1
SUN
  2
AcDbSun
  3
SCENEOE
 90
1153
280
0
281
0
  0
CLASS
  1
VISUALSTYLE
  2
AcDbVisualStyle
  3
ObjectDBX Classes
 90
4095
280
0
281
0
  0
CLASS
  1
MATERIAL
  2
AcDbMaterial
  3
ObjectDBX Classes
 90
1153
280
0
281
0
  0
CLASS
  1
SCALE
  2
AcDbScale
  3
ObjectDBX Classes
 90
1153
280
0
281
0
  0
CLASS
  1
TABLESTYLE
  2
AcDbTableStyle
  3
ObjectDBX Classes
 90
4095
280
0
281
0
  0
CLASS
  1
MLEADERSTYLE
  2
AcDbMLeaderStyle
  3
ACDB_MLEADERSTYLE_CLASS
 90
4095
280
0
281
0
  0
CLASS
  1
DICTIONARYVAR
  2
AcDbDictionaryVar
  3
ObjectDBX Classes
 90
0
280
0
281
0
  0
CLASS
  1
CELLSTYLEMAP
  2
AcDbCellStyleMap
  3
ObjectDBX Classes
 90
1152
280
0
281
0
  0
CLASS
  1
MENTALRAYRENDERSETTINGS
  2
AcDbMentalRayRenderSettings
  3
SCENEOE
 90
1024
280
0
281
0
  0
CLASS
  1
ACDBDETAILVIEWSTYLE
  2
AcDbDetailViewStyle
  3
ObjectDBX Classes
 90
1025
280
0
281
0
  0
CLASS
  1
ACDBSECTIONVIEWSTYLE
  2
AcDbSectionViewStyle
  3
ObjectDBX Classes
 90
1025
280
0
281
0
  0
CLASS
  1
RASTERVARIABLES
  2
AcDbRasterVariables
  3
ISM
 90
0
280
0
281
0
  0
CLASS
  1
ACDBPLACEHOLDER
  2
AcDbPlaceHolder
  3
ObjectDBX Classes
 90
0
280
0
281
0
  0
CLASS
  1
LAYOUT
  2
AcDbLayout
  3
ObjectDBX Classes
 90
0
280
0
281
0
  0
ENDSEC
  0
SECTION
  2
TABLES
  0
TABLE
  2
VPORT
  5
8
330
0
100
AcDbSymbolTable
 70
1
  0
VPORT
  5
23
330
8
100
AcDbSymbolTableRecord
100
AcDbViewportTableRecord
  2
*Active
 70
0
 10
0.0
 20
0.0
 11
1.0
 21
1.0
 12
0.0
 22
0.0
 13
0.0
 23
0.0
 14
0.5
 24
0.5
 15
0.5
 25
0.5
 16
0.0
 26
0.0
 36
1.0
 17
0.0
 27
0.0
 37
0.0
 40
1000.0
 41
1.34
 42
50.0
 43
0.0
 44
0.0
 50
0.0
 51
0.0
 71
0
 72
1000
 73
1
 74
3
 75
0
 76
0
 77
0
 78
0
281
0
 65
0
146
0.0
  0
ENDTAB
  0
TABLE
  2
LTYPE
  5
2
330
0
100
AcDbSymbolTable
 70
3
  0
LTYPE
  5
24
330
2
100
AcDbSymbolTableRecord
100
AcDbLinetypeTableRecord
  2
ByBlock
 70
0
  3

 72
65
 73
0
 40
0.0
  0
LTYPE
  5
25
330
2
100
AcDbSymbolTableRecord
100
AcDbLinetypeTableRecord
  2
ByLayer
 70
0
  3

 72
65
 73
0
 40
0.0
  0
LTYPE
  5
26
330
2
100
AcDbSymbolTableRecord
100
AcDbLinetypeTableRecord
  2
Continuous
 70
0
  3

 72
65
 73
0
 40
0.0
  0
ENDTAB
  0
TABLE
  2
LAYER
  5
1
330
0
100
AcDbSymbolTable
 70
4
  0
LAYER
  5
27
330
1
100
AcDbSymbolTableRecord
100
AcDbLayerTableRecord
  2
0
 70
0
 62
7
  6
Continuous
370
-3
390
13
  0
LAYER
  5
28
330
1
100
AcDbSymbolTableRecord
100
AcDbLayerTableRecord
  2
Defpoints
 70
0
 62
7
  6
Continuous
290
0
370
-3
390
13
  0
LAYER
  5
2F
330
1
100
AcDbSymbolTableRecord
100
AcDbLayerTableRecord
  2
CUT
 70
0
 62
1
  6
Continuous
370
-3
390
13
  0
LAYER
  5
30
330
1
100
AcDbSymbolTableRecord
100
AcDbLayerTableRecord
  2
RASTER
 70
0
 62
7
  6
Continuous
370
-3
390
13
  0
ENDTAB
  0
TABLE
  2
STYLE
  5
5
330
0
100
AcDbSymbolTable
 70
1
  0
STYLE
  5
29
330
5
100
AcDbSymbolTableRecord
100
AcDbTextStyleTableRecord
  2
Standard
 70
0
 40
0.0
 41
1.0
 50
0.0
 71
0
 42
2.5
  3
txt
  4

  0
ENDTAB
  0
TABLE
  2
VIEW
  5
7
330
0
100
AcDbSymbolTable
 70
0
  0
ENDTAB
  0
TABLE
  2
UCS
  5
6
330
0
100
AcDbSymbolTable
 70
0
  0
ENDTAB
  0
TABLE
  2
APPID
  5
3
330
0
100
AcDbSymbolTable
 70
3
  0
APPID
  5
2A
330
3
100
AcDbSymbolTableRecord
100
AcDbRegAppTableRecord
  2
ACAD
 70
0
  0
APPID
  5
52
330
3
100
AcDbSymbolTableRecord
100
AcDbRegAppTableRecord
  2
HATCHBACKGROUNDCOLOR
 70
0
  0
APPID
  5
53
330
3
100
AcDbSymbolTableRecord
100
AcDbRegAppTableRecord
  2
EZDXF
 70
0
  0
ENDTAB
  0
TABLE
  2
DIMSTYLE
  5
4
330
0
100
AcDbSymbolTable
 70
1
100
AcDbDimStyleTable
  0
DIMSTYLE
105
2B
330
4
100
AcDbSymbolTableRecord
100
AcDbDimStyleTableRecord
  2
Standard
 70
0
  3

  4

 40
1.0
 41
2.5
 42
0.625
 43
3.75
 44
1.25
 45
0.0
 46
0.0
 47
0.0
 48
0.0
140
2.5
141
2.5
142
0.0
143
0.03937007874
144
1.0
145
0.0
146
1.0
147
0.625
148
0.0
 71
0
 72
0
 73
0
 74
0
 75
0
 76
0
 77
1
 78
8
 79
3
170
0
171
3
172
1
173
0
174
0
175
0
176
0
177
0
178
0
179
2
271
2
272
2
273
2
274
3
275
0
276
0
277
2
278
44
279
0
280
0
281
0
282
0
283
0
284
8
285
0
286
0
288
0
289
3
371
-2
372
-2
  0
ENDTAB
  0
TABLE
  2
BLOCK_RECORD
  5
9
330
0
100
AcDbSymbolTable
 70
2
  0
BLOCK_RECORD
  5
17
330
9
100
AcDbSymbolTableRecord
100
AcDbBlockTableRecord
  2
*Model_Space
340
1A
  0
BLOCK_RECORD
  5
1B
330
9
100
AcDbSymbolTableRecord
100
AcDbBlockTableRecord
  2
*Paper_Space
340
1E
  0
ENDTAB
  0
ENDSEC
  0
SECTION
  2
BLOCKS
  0
BLOCK
  5
18
330
17
100
AcDbEntity
  8
0
100
AcDbBlockBegin
  2
*Model_Space
 70
0
 10
0.0
 20
0.0
 30
0.0
  3
*Model_Space
  1

  0
ENDBLK
  5
19
330
17
100
AcDbEntity
  8
0
100
AcDbBlockEnd
  0
BLOCK
  5
1C
330
1B
100
AcDbEntity
  8
0
100
AcDbBlockBegin
  2
*Paper_Space
 70
0
 10
0.0
 20
0.0
 30
0.0
  3
*Paper_Space
  1

  0
ENDBLK
  5
1D
330
1B
100
AcDbEntity
  8
0
100
AcDbBlockEnd
  0
ENDSEC
  0
SECTION
  2
ENTITIES
  0
LWPOLYLINE
  5
31
330
17
100
AcDbEntity
  8
CUT
100
AcDbPolyline
 90
32
 70
1
 10
7.1
 20
71.128
 10
55.932
 20
71.128
 10
59.072
 20
71.128
 10
59.072
 20
68.748
 10
55.972
 20
68.748
 10
55.972
 20
66.528
 10
59.072
 20
66.528
 10
59.072
 20
64.148
 10
55.932
 20
64.148
 10
50.546
 20
64.148
 10
50.546
 20
61.048
 10
45.04
 20
61.048
 10
45.04
 20
64.148
 10
39.695
 20
64.148
 10
39.695
 20
61.048
 10
34.189
 20
61.048
 10
34.189
 20
64.148
 10
28.843
 20
64.148
 10
28.843
 20
61.048
 10
23.337
 20
61.048
 10
23.337
 20
64.148
 10
17.992
 20
64.148
 10
17.992
 20
61.048
 10
12.486
 20
61.048
 10
12.486
 20
64.148
 10
7.1
 20
64.148
 10
3.96
 20
64.148
 10
3.96
 20
66.528
 10
7.06
 20
66.528
 10
7.06
 20
68.748
 10
3.96
 20
68.748
 10
3.96
 20
71.128
  0
LWPOLYLINE
  5
32
330
17
100
AcDbEntity
  8
CUT
100
AcDbPolyline
 90
4
 70
1
 10
12.14
 20
68.698
 10
50.892
 20
68.698
 10
50.892
 20
66.578
 10
12.14
 20
66.578
  0
HATCH
  5
33
330
17
100
AcDbEntity
  8
RASTER
 62
7
100
AcDbHatch
 10
0.0
 20
0.0
 30
0.0
210
0.0
220
0.0
230
1.0
  2
SOLID
 70
1
 71
0
 91
1
 92
3
 72
0
 73
1
 93
4
 10
7.7
 20
70.688
 10
11.5
 20
70.688
 10
11.5
 20
64.588
 10
7.7
 20
64.588
 97
0
 75
0
 76
1
 98
0
  0
HATCH
  5
34
330
17
100
AcDbEntity
  8
RASTER
 62
7
100
AcDbHatch
 10
0.0
 20
0.0
 30
0.0
210
0.0
220
0.0
230
1.0
  2
SOLID
 70
1
 71
0
 91
1
 92
3
 72
0
 73
1
 93
4
 10
51.532
 20
70.688
 10
55.332
 20
70.688
 10
55.332
 20
64.588
 10
51.532
 20
64.588
 97
0
 75
0
 76
1
 98
0
  0
HATCH
  5
35
330
17
100
AcDbEntity
  8
RASTER
 62
7
100
AcDbHatch
 10
0.0
 20
0.0
 30
0.0
210
0.0
220
0.0
230
1.0
  2
SOLID
 70
1
 71
0
 91
1
 92
3
 72
0
 73
1
 93
48
 10
14.2
 20
70.338
 10
14.196
 20
70.273
 10
14.183
 20
70.209
 10
14.162
 20
70.147
 10
14.133
 20
70.088
 10
14.097
 20
70.034
 10
14.054
 20
69.984
 10
14.004
 20
69.941
 10
13.95
 20
69.905
 10
13.891
 20
69.876
 10
13.829
 20
69.855
 10
13.765
 20
69.842
 10
13.7
 20
69.838
 10
13.635
 20
69.842
 10
13.571
 20
69.855
 10
13.509
 20
69.876
 10
13.45
 20
69.905
 10
13.396
 20
69.941
 10
13.346
 20
69.984
 10
13.303
 20
70.034
 10
13.267
 20
70.088
 10
13.238
 20
70.147
 10
13.217
 20
70.209
 10
13.204
 20
70.273
 10
13.2
 20
70.338
 10
13.204
 20
70.403
 10
13.217
 20
70.467
 10
13.238
 20
70.529
 10
13.267
 20
70.588
 10
13.303
 20
70.642
 10
13.346
 20
70.692
 10
13.396
 20
70.735
 10
13.45
 20
70.771
 10
13.509
 20
70.8
 10
13.571
 20
70.821
 10
13.635
 20
70.834
 10
13.7
 20
70.838
 10
13.765
 20
70.834
 10
13.829
 20
70.821
 10
13.891
 20
70.8
 10
13.95
 20
70.771
 10
14.004
 20
70.735
 10
14.054
 20
70.692
 10
14.097
 20
70.642
 10
14.133
 20
70.588
 10
14.162
 20
70.529
 10
14.183
 20
70.467
 10
14.196
 20
70.403
 97
0
 75
0
 76
1
 98
0
  0
HATCH
  5
36
330
17
100
AcDbEntity
  8
RASTER
 62
7
100
AcDbHatch
 10
0.0
 20
0.0
 30
0.0
210
0.0
220
0.0
230
1.0
  2
SOLID
 70
1
 71
0
 91
1
 92
3
 72
0
 73
1
 93
48
 10
49.832
 20
70.338
 10
49.828
 20
70.273
 10
49.815
 20
70.209
 10
49.794
 20
70.147
 10
49.765
 20
70.088
 10
49.729
 20
70.034
 10
49.686
 20
69.984
 10
49.636
 20
69.941
 10
49.582
 20
69.905
 10
49.523
 20
69.876
 10
49.461
 20
69.855
 10
49.397
 20
69.842
 10
49.332
 20
69.838
 10
49.267
 20
69.842
 10
49.203
 20
69.855
 10
49.141
 20
69.876
 10
49.082
 20
69.905
 10
49.028
 20
69.941
 10
48.978
 20
69.984
 10
48.935
 20
70.034
 10
48.899
 20
70.088
 10
48.87
 20
70.147
 10
48.849
 20
70.209
 10
48.836
 20
70.273
 10
48.832
 20
70.338
 10
48.836
 20
70.403
 10
48.849
 20
70.467
 10
48.87
 20
70.529
 10
48.899
 20
70.588
 10
48.935
 20
70.642
 10
48.978
 20
70.692
 10
49.028
 20
70.735
 10
49.082
 20
70.771
 10
49.141
 20
70.8
 10
49.203
 20
70.821
 10
49.267
 20
70.834
 10
49.332
 20
70.838
 10
49.397
 20
70.834
 10
49.461
 20
70.821
 10
49.523
 20
70.8
 10
49.582
 20
70.771
 10
49.636
 20
70.735
 10
49.686
 20
70.692
 10
49.729
 20
70.642
 10
49.765
 20
70.588
 10
49.794
 20
70.529
 10
49.815
 20
70.467
 10
49.828
 20
70.403
 97
0
 75
0
 76
1
 98
0
  0
HATCH
  5
37
330
17
100
AcDbEntity
  8
RASTER
 62
7
100
AcDbHatch
 10
0.0
 20
0.0
 30
0.0
210
0.0
220
0.0
230
1.0
  2
SOLID
 70
1
 71
0
 91
1
 92
3
 72
0
 73
1
 93
48
 10
14.2
 20
64.938
 10
14.196
 20
64.873
 10
14.183
 20
64.809
 10
14.162
 20
64.747
 10
14.133
 20
64.688
 10
14.097
 20
64.634
 10
14.054
 20
64.584
 10
14.004
 20
64.541
 10
13.95
 20
64.505
 10
13.891
 20
64.476
 10
13.829
 20
64.455
 10
13.765
 20
64.442
 10
13.7
 20
64.438
 10
13.635
 20
64.442
 10
13.571
 20
64.455
 10
13.509
 20
64.476
 10
13.45
 20
64.505
 10
13.396
 20
64.541
 10
13.346
 20
64.584
 10
13.303
 20
64.634
 10
13.267
 20
64.688
 10
13.238
 20
64.747
 10
13.217
 20
64.809
 10
13.204
 20
64.873
 10
13.2
 20
64.938
 10
13.204
 20
65.003
 10
13.217
 20
65.067
 10
13.238
 20
65.129
 10
13.267
 20
65.188
 10
13.303
 20
65.242
 10
13.346
 20
65.292
 10
13.396
 20
65.335
 10
13.45
 20
65.371
 10
13.509
 20
65.4
 10
13.571
 20
65.421
 10
13.635
 20
65.434
 10
13.7
 20
65.438
 10
13.765
 20
65.434
 10
13.829
 20
65.421
 10
13.891
 20
65.4
 10
13.95
 20
65.371
 10
14.004
 20
65.335
 10
14.054
 20
65.292
 10
14.097
 20
65.242
 10
14.133
 20
65.188
 10
14.162
 20
65.129
 10
14.183
 20
65.067
 10
14.196
 20
65.003
 97
0
 75
0
 76
1
 98
0
  0
HATCH
  5
38
330
17
100
AcDbEntity
  8
RASTER
 62
7
100
AcDbHatch
 10
0.0
 20
0.0
 30
0.0
210
0.0
220
0.0
230
1.0
  2
SOLID
 70
1
 71
0
 91
1
 92
3
 72
0
 73
1
 93
48
 10
49.832
 20
64.938
 10
49.828
 20
64.873
 10
49.815
 20
64.809
 10
49.794
 20
64.747
 10
49.765
 20
64.688
 10
49.729
 20
64.634
 10
49.686
 20
64.584
 10
49.636
 20
64.541
 10
49.582
 20
64.505
 10
49.523
 20
64.476
 10
49.461
 20
64.455
 10
49.397
 20
64.442
 10
49.332
 20
64.438
 10
49.267
 20
64.442
 10
49.203
 20
64.455
 10
49.141
 20
64.476
 10
49.082
 20
64.505
 10
49.028
 20
64.541
 10
48.978
 20
64.584
 10
48.935
 20
64.634
 10
48.899
 20
64.688
 10
48.87
 20
64.747
 10
48.849
 20
64.809
 10
48.836
 20
64.873
 10
48.832
 20
64.938
 10
48.836
 20
65.003
 10
48.849
 20
65.067
 10
48.87
 20
65.129
 10
48.899
 20
65.188
 10
48.935
 20
65.242
 10
48.978
 20
65.292
 10
49.028
 20
65.335
 10
49.082
 20
65.371
 10
49.141
 20
65.4
 10
49.203
 20
65.421
 10
49.267
 20
65.434
 10
49.332
 20
65.438
 10
49.397
 20
65.434
 10
49.461
 20
65.421
 10
49.523
 20
65.4
 10
49.582
 20
65.371
 10
49.636
 20
65.335
 10
49.686
 20
65.292
 10
49.729
 20
65.242
 10
49.765
 20
65.188
 10
49.794
 20
65.129
 10
49.815
 20
65.067
 10
49.828
 20
65.003
 97
0
 75
0
 76
1
 98
0
  0
LWPOLYLINE
  5
39
330
17
100
AcDbEntity
  8
CUT
100
AcDbPolyline
 90
32
 70
1
 10
7.1
 20
57.128
 10
55.932
 20
57.128
 10
59.072
 20
57.128
 10
59.072
 20
54.748
 10
55.972
 20
54.748
 10
55.972
 20
52.528
 10
59.072
 20
52.528
 10
59.072
 20
50.148
 10
55.932
 20
50.148
 10
50.546
 20
50.148
 10
50.546
 20
47.048
 10
45.04
 20
47.048
 10
45.04
 20
50.148
 10
39.695
 20
50.148
 10
39.695
 20
47.048
 10
34.189
 20
47.048
 10
34.189
 20
50.148
 10
28.843
 20
50.148
 10
28.843
 20
47.048
 10
23.337
 20
47.048
 10
23.337
 20
50.148
 10
17.992
 20
50.148
 10
17.992
 20
47.048
 10
12.486
 20
47.048
 10
12.486
 20
50.148
 10
7.1
 20
50.148
 10
3.96
 20
50.148
 10
3.96
 20
52.528
 10
7.06
 20
52.528
 10
7.06
 20
54.748
 10
3.96
 20
54.748
 10
3.96
 20
57.128
  0
LWPOLYLINE
  5
3A
330
17
100
AcDbEntity
  8
CUT
100
AcDbPolyline
 90
4
 70
1
 10
12.14
 20
54.698
 10
50.892
 20
54.698
 10
50.892
 20
52.578
 10
12.14
 20
52.578
  0
HATCH
  5
3B
330
17
100
AcDbEntity
  8
RASTER
 62
7
100
AcDbHatch
 10
0.0
 20
0.0
 30
0.0
210
0.0
220
0.0
230
1.0
  2
SOLID
 70
1
 71
0
 91
1
 92
3
 72
0
 73
1
 93
4
 10
7.7
 20
56.688
 10
11.5
 20
56.688
 10
11.5
 20
50.588
 10
7.7
 20
50.588
 97
0
 75
0
 76
1
 98
0
  0
HATCH
  5
3C
330
17
100
AcDbEntity
  8
RASTER
 62
7
100
AcDbHatch
 10
0.0
 20
0.0
 30
0.0
210
0.0
220
0.0
230
1.0
  2
SOLID
 70
1
 71
0
 91
1
 92
3
 72
0
 73
1
 93
4
 10
51.532
 20
56.688
 10
55.332
 20
56.688
 10
55.332
 20
50.588
 10
51.532
 20
50.588
 97
0
 75
0
 76
1
 98
0
  0
HATCH
  5
3D
330
17
100
AcDbEntity
  8
RASTER
 62
7
100
AcDbHatch
 10
0.0
 20
0.0
 30
0.0
210
0.0
220
0.0
230
1.0
  2
SOLID
 70
1
 71
0
 91
1
 92
3
 72
0
 73
1
 93
48
 10
14.2
 20
56.338
 10
14.196
 20
56.273
 10
14.183
 20
56.209
 10
14.162
 20
56.147
 10
14.133
 20
56.088
 10
14.097
 20
56.034
 10
14.054
 20
55.984
 10
14.004
 20
55.941
 10
13.95
 20
55.905
 10
13.891
 20
55.876
 10
13.829
 20
55.855
 10
13.765
 20
55.842
 10
13.7
 20
55.838
 10
13.635
 20
55.842
 10
13.571
 20
55.855
 10
13.509
 20
55.876
 10
13.45
 20
55.905
 10
13.396
 20
55.941
 10
13.346
 20
55.984
 10
13.303
 20
56.034
 10
13.267
 20
56.088
 10
13.238
 20
56.147
 10
13.217
 20
56.209
 10
13.204
 20
56.273
 10
13.2
 20
56.338
 10
13.204
 20
56.403
 10
13.217
 20
56.467
 10
13.238
 20
56.529
 10
13.267
 20
56.588
 10
13.303
 20
56.642
 10
13.346
 20
56.692
 10
13.396
 20
56.735
 10
13.45
 20
56.771
 10
13.509
 20
56.8
 10
13.571
 20
56.821
 10
13.635
 20
56.834
 10
13.7
 20
56.838
 10
13.765
 20
56.834
 10
13.829
 20
56.821
 10
13.891
 20
56.8
 10
13.95
 20
56.771
 10
14.004
 20
56.735
 10
14.054
 20
56.692
 10
14.097
 20
56.642
 10
14.133
 20
56.588
 10
14.162
 20
56.529
 10
14.183
 20
56.467
 10
14.196
 20
56.403
 97
0
 75
0
 76
1
 98
0
  0
HATCH
  5
3E
330
17
100
AcDbEntity
  8
RASTER
 62
7
100
AcDbHatch
 10
0.0
 20
0.0
 30
0.0
210
0.0
220
0.0
230
1.0
  2
SOLID
 70
1
 71
0
 91
1
 92
3
 72
0
 73
1
 93
48
 10
49.832
 20
56.338
 10
49.828
 20
56.273
 10
49.815
 20
56.209
 10
49.794
 20
56.147
 10
49.765
 20
56.088
 10
49.729
 20
56.034
 10
49.686
 20
55.984
 10
49.636
 20
55.941
 10
49.582
 20
55.905
 10
49.523
 20
55.876
 10
49.461
 20
55.855
 10
49.397
 20
55.842
 10
49.332
 20
55.838
 10
49.267
 20
55.842
 10
49.203
 20
55.855
 10
49.141
 20
55.876
 10
49.082
 20
55.905
 10
49.028
 20
55.941
 10
48.978
 20
55.984
 10
48.935
 20
56.034
 10
48.899
 20
56.088
 10
48.87
 20
56.147
 10
48.849
 20
56.209
 10
48.836
 20
56.273
 10
48.832
 20
56.338
 10
48.836
 20
56.403
 10
48.849
 20
56.467
 10
48.87
 20
56.529
 10
48.899
 20
56.588
 10
48.935
 20
56.642
 10
48.978
 20
56.692
 10
49.028
 20
56.735
 10
49.082
 20
56.771
 10
49.141
 20
56.8
 10
49.203
 20
56.821
 10
49.267
 20
56.834
 10
49.332
 20
56.838
 10
49.397
 20
56.834
 10
49.461
 20
56.821
 10
49.523
 20
56.8
 10
49.582
 20
56.771
 10
49.636
 20
56.735
 10
49.686
 20
56.692
 10
49.729
 20
56.642
 10
49.765
 20
56.588
 10
49.794
 20
56.529
 10
49.815
 20
56.467
 10
49.828
 20
56.403
 97
0
 75
0
 76
1
 98
0
  0
HATCH
  5
3F
330
17
100
AcDbEntity
  8
RASTER
 62
7
100
AcDbHatch
 10
0.0
 20
0.0
 30
0.0
210
0.0
220
0.0
230
1.0
  2
SOLID
 70
1
 71
0
 91
1
 92
3
 72
0
 73
1
 93
48
 10
14.2
 20
50.938
 10
14.196
 20
50.873
 10
14.183
 20
50.809
 10
14.162
 20
50.747
 10
14.133
 20
50.688
 10
14.097
 20
50.634
 10
14.054
 20
50.584
 10
14.004
 20
50.541
 10
13.95
 20
50.505
 10
13.891
 20
50.476
 10
13.829
 20
50.455
 10
13.765
 20
50.442
 10
13.7
 20
50.438
 10
13.635
 20
50.442
 10
13.571
 20
50.455
 10
13.509
 20
50.476
 10
13.45
 20
50.505
 10
13.396
 20
50.541
 10
13.346
 20
50.584
 10
13.303
 20
50.634
 10
13.267
 20
50.688
 10
13.238
 20
50.747
 10
13.217
 20
50.809
 10
13.204
 20
50.873
 10
13.2
 20
50.938
 10
13.204
 20
51.003
 10
13.217
 20
51.067
 10
13.238
 20
51.129
 10
13.267
 20
51.188
 10
13.303
 20
51.242
 10
13.346
 20
51.292
 10
13.396
 20
51.335
 10
13.45
 20
51.371
 10
13.509
 20
51.4
 10
13.571
 20
51.421
 10
13.635
 20
51.434
 10
13.7
 20
51.438
 10
13.765
 20
51.434
 10
13.829
 20
51.421
 10
13.891
 20
51.4
 10
13.95
 20
51.371
 10
14.004
 20
51.335
 10
14.054
 20
51.292
 10
14.097
 20
51.242
 10
14.133
 20
51.188
 10
14.162
 20
51.129
 10
14.183
 20
51.067
 10
14.196
 20
51.003
 97
0
 75
0
 76
1
 98
0
  0
HATCH
  5
40
330
17
100
AcDbEntity
  8
RASTER
 62
7
100
AcDbHatch
 10
0.0
 20
0.0
 30
0.0
210
0.0
220
0.0
230
1.0
  2
SOLID
 70
1
 71
0
 91
1
 92
3
 72
0
 73
1
 93
48
 10
49.832
 20
50.938
 10
49.828
 20
50.873
 10
49.815
 20
50.809
 10
49.794
 20
50.747
 10
49.765
 20
50.688
 10
49.729
 20
50.634
 10
49.686
 20
50.584
 10
49.636
 20
50.541
 10
49.582
 20
50.505
 10
49.523
 20
50.476
 10
49.461
 20
50.455
 10
49.397
 20
50.442
 10
49.332
 20
50.438
 10
49.267
 20
50.442
 10
49.203
 20
50.455
 10
49.141
 20
50.476
 10
49.082
 20
50.505
 10
49.028
 20
50.541
 10
48.978
 20
50.584
 10
48.935
 20
50.634
 10
48.899
 20
50.688
 10
48.87
 20
50.747
 10
48.849
 20
50.809
 10
48.836
 20
50.873
 10
48.832
 20
50.938
 10
48.836
 20
51.003
 10
48.849
 20
51.067
 10
48.87
 20
51.129
 10
48.899
 20
51.188
 10
48.935
 20
51.242
 10
48.978
 20
51.292
 10
49.028
 20
51.335
 10
49.082
 20
51.371
 10
49.141
 20
51.4
 10
49.203
 20
51.421
 10
49.267
 20
51.434
 10
49.332
 20
51.438
 10
49.397
 20
51.434
 10
49.461
 20
51.421
 10
49.523
 20
51.4
 10
49.582
 20
51.371
 10
49.636
 20
51.335
 10
49.686
 20
51.292
 10
49.729
 20
51.242
 10
49.765
 20
51.188
 10
49.794
 20
51.129
 10
49.815
 20
51.067
 10
49.828
 20
51.003
 97
0
 75
0
 76
1
 98
0
  0
LWPOLYLINE
  5
41
330
17
100
AcDbEntity
  8
CUT
100
AcDbPolyline
 90
20
 70
1
 10
66.092
 20
57.128
 10
99.06
 20
57.128
 10
99.06
 20
54.828
 10
102.16
 20
54.828
 10
102.16
 20
52.448
 10
99.06
 20
52.448
 10
99.06
 20
50.148
 10
92.482
 20
50.148
 10
92.482
 20
47.048
 10
85.825
 20
47.048
 10
85.825
 20
50.148
 10
79.327
 20
50.148
 10
79.327
 20
47.048
 10
72.67
 20
47.048
 10
72.67
 20
50.148
 10
66.092
 20
50.148
 10
66.092
 20
52.448
 10
62.992
 20
52.448
 10
62.992
 20
54.828
 10
66.092
 20
54.828
  0
LWPOLYLINE
  5
42
330
17
100
AcDbEntity
  8
CUT
100
AcDbPolyline
 90
4
 70
1
 10
71.172
 20
54.698
 10
93.98
 20
54.698
 10
93.98
 20
52.578
 10
71.172
 20
52.578
  0
HATCH
  5
43
330
17
100
AcDbEntity
  8
RASTER
 62
7
100
AcDbHatch
 10
0.0
 20
0.0
 30
0.0
210
0.0
220
0.0
230
1.0
  2
SOLID
 70
1
 71
0
 91
1
 92
3
 72
0
 73
1
 93
4
 10
66.732
 20
56.688
 10
70.532
 20
56.688
 10
70.532
 20
50.588
 10
66.732
 20
50.588
 97
0
 75
0
 76
1
 98
0
  0
HATCH
  5
44
330
17
100
AcDbEntity
  8
RASTER
 62
7
100
AcDbHatch
 10
0.0
 20
0.0
 30
0.0
210
0.0
220
0.0
230
1.0
  2
SOLID
 70
1
 71
0
 91
1
 92
3
 72
0
 73
1
 93
4
 10
94.62
 20
56.688
 10
98.42
 20
56.688
 10
98.42
 20
50.588
 10
94.62
 20
50.588
 97
0
 75
0
 76
1
 98
0
  0
HATCH
  5
45
330
17
100
AcDbEntity
  8
RASTER
 62
7
100
AcDbHatch
 10
0.0
 20
0.0
 30
0.0
210
0.0
220
0.0
230
1.0
  2
SOLID
 70
1
 71
0
 91
1
 92
3
 72
0
 73
1
 93
48
 10
73.232
 20
56.338
 10
73.228
 20
56.273
 10
73.215
 20
56.209
 10
73.194
 20
56.147
 10
73.165
 20
56.088
 10
73.129
 20
56.034
 10
73.086
 20
55.984
 10
73.036
 20
55.941
 10
72.982
 20
55.905
 10
72.923
 20
55.876
 10
72.861
 20
55.855
 10
72.797
 20
55.842
 10
72.732
 20
55.838
 10
72.667
 20
55.842
 10
72.603
 20
55.855
 10
72.541
 20
55.876
 10
72.482
 20
55.905
 10
72.428
 20
55.941
 10
72.378
 20
55.984
 10
72.335
 20
56.034
 10
72.299
 20
56.088
 10
72.27
 20
56.147
 10
72.249
 20
56.209
 10
72.236
 20
56.273
 10
72.232
 20
56.338
 10
72.236
 20
56.403
 10
72.249
 20
56.467
 10
72.27
 20
56.529
 10
72.299
 20
56.588
 10
72.335
 20
56.642
 10
72.378
 20
56.692
 10
72.428
 20
56.735
 10
72.482
 20
56.771
 10
72.541
 20
56.8
 10
72.603
 20
56.821
 10
72.667
 20
56.834
 10
72.732
 20
56.838
 10
72.797
 20
56.834
 10
72.861
 20
56.821
 10
72.923
 20
56.8
 10
72.982
 20
56.771
 10
73.036
 20
56.735
 10
73.086
 20
56.692
 10
73.129
 20
56.642
 10
73.165
 20
56.588
 10
73.194
 20
56.529
 10
73.215
 20
56.467
 10
73.228
 20
56.403
 97
0
 75
0
 76
1
 98
0
  0
HATCH
  5
46
330
17
100
AcDbEntity
  8
RASTER
 62
7
100
AcDbHatch
 10
0.0
 20
0.0
 30
0.0
210
0.0
220
0.0
230
1.0
  2
SOLID
 70
1
 71
0
 91
1
 92
3
 72
0
 73
1
 93
48
 10
92.92
 20
56.338
 10
92.916
 20
56.273
 10
92.903
 20
56.209
 10
92.882
 20
56.147
 10
92.853
 20
56.088
 10
92.817
 20
56.034
 10
92.774
 20
55.984
 10
92.724
 20
55.941
 10
92.67
 20
55.905
 10
92.611
 20
55.876
 10
92.549
 20
55.855
 10
92.485
 20
55.842
 10
92.42
 20
55.838
 10
92.355
 20
55.842
 10
92.291
 20
55.855
 10
92.229
 20
55.876
 10
92.17
 20
55.905
 10
92.116
 20
55.941
 10
92.066
 20
55.984
 10
92.023
 20
56.034
 10
91.987
 20
56.088
 10
91.958
 20
56.147
 10
91.937
 20
56.209
 10
91.924
 20
56.273
 10
91.92
 20
56.338
 10
91.924
 20
56.403
 10
91.937
 20
56.467
 10
91.958
 20
56.529
 10
91.987
 20
56.588
 10
92.023
 20
56.642
 10
92.066
 20
56.692
 10
92.116
 20
56.735
 10
92.17
 20
56.771
 10
92.229
 20
56.8
 10
92.291
 20
56.821
 10
92.355
 20
56.834
 10
92.42
 20
56.838
 10
92.485
 20
56.834
 10
92.549
 20
56.821
 10
92.611
 20
56.8
 10
92.67
 20
56.771
 10
92.724
 20
56.735
 10
92.774
 20
56.692
 10
92.817
 20
56.642
 10
92.853
 20
56.588
 10
92.882
 20
56.529
 10
92.903
 20
56.467
 10
92.916
 20
56.403
 97
0
 75
0
 76
1
 98
0
  0
HATCH
  5
47
330
17
100
AcDbEntity
  8
RASTER
 62
7
100
AcDbHatch
 10
0.0
 20
0.0
 30
0.0
210
0.0
220
0.0
230
1.0
  2
SOLID
 70
1
 71
0
 91
1
 92
3
 72
0
 73
1
 93
48
 10
73.232
 20
50.938
 10
73.228
 20
50.873
 10
73.215
 20
50.809
 10
73.194
 20
50.747
 10
73.165
 20
50.688
 10
73.129
 20
50.634
 10
73.086
 20
50.584
 10
73.036
 20
50.541
 10
72.982
 20
50.505
 10
72.923
 20
50.476
 10
72.861
 20
50.455
 10
72.797
 20
50.442
 10
72.732
 20
50.438
 10
72.667
 20
50.442
 10
72.603
 20
50.455
 10
72.541
 20
50.476
 10
72.482
 20
50.505
 10
72.428
 20
50.541
 10
72.378
 20
50.584
 10
72.335
 20
50.634
 10
72.299
 20
50.688
 10
72.27
 20
50.747
 10
72.249
 20
50.809
 10
72.236
 20
50.873
 10
72.232
 20
50.938
 10
72.236
 20
51.003
 10
72.249
 20
51.067
 10
72.27
 20
51.129
 10
72.299
 20
51.188
 10
72.335
 20
51.242
 10
72.378
 20
51.292
 10
72.428
 20
51.335
 10
72.482
 20
51.371
 10
72.541
 20
51.4
 10
72.603
 20
51.421
 10
72.667
 20
51.434
 10
72.732
 20
51.438
 10
72.797
 20
51.434
 10
72.861
 20
51.421
 10
72.923
 20
51.4
 10
72.982
 20
51.371
 10
73.036
 20
51.335
 10
73.086
 20
51.292
 10
73.129
 20
51.242
 10
73.165
 20
51.188
 10
73.194
 20
51.129
 10
73.215
 20
51.067
 10
73.228
 20
51.003
 97
0
 75
0
 76
1
 98
0
  0
HATCH
  5
48
330
17
100
AcDbEntity
  8
RASTER
 62
7
100
AcDbHatch
 10
0.0
 20
0.0
 30
0.0
210
0.0
220
0.0
230
1.0
  2
SOLID
 70
1
 71
0
 91
1
 92
3
 72
0
 73
1
 93
48
 10
92.92
 20
50.938
 10
92.916
 20
50.873
 10
92.903
 20
50.809
 10
92.882
 20
50.747
 10
92.853
 20
50.688
 10
92.817
 20
50.634
 10
92.774
 20
50.584
 10
92.724
 20
50.541
 10
92.67
 20
50.505
 10
92.611
 20
50.476
 10
92.549
 20
50.455
 10
92.485
 20
50.442
 10
92.42
 20
50.438
 10
92.355
 20
50.442
 10
92.291
 20
50.455
 10
92.229
 20
50.476
 10
92.17
 20
50.505
 10
92.116
 20
50.541
 10
92.066
 20
50.584
 10
92.023
 20
50.634
 10
91.987
 20
50.688
 10
91.958
 20
50.747
 10
91.937
 20
50.809
 10
91.924
 20
50.873
 10
91.92
 20
50.938
 10
91.924
 20
51.003
 10
91.937
 20
51.067
 10
91.958
 20
51.129
 10
91.987
 20
51.188
 10
92.023
 20
51.242
 10
92.066
 20
51.292
 10
92.116
 20
51.335
 10
92.17
 20
51.371
 10
92.229
 20
51.4
 10
92.291
 20
51.421
 10
92.355
 20
51.434
 10
92.42
 20
51.438
 10
92.485
 20
51.434
 10
92.549
 20
51.421
 10
92.611
 20
51.4
 10
92.67
 20
51.371
 10
92.724
 20
51.335
 10
92.774
 20
51.292
 10
92.817
 20
51.242
 10
92.853
 20
51.188
 10
92.882
 20
51.129
 10
92.903
 20
51.067
 10
92.916
 20
51.003
 97
0
 75
0
 76
1
 98
0
  0
LWPOLYLINE
  5
49
330
17
100
AcDbEntity
  8
CUT
100
AcDbPolyline
 90
20
 70
1
 10
7.06
 20
43.128
 10
40.028
 20
43.128
 10
40.028
 20
40.828
 10
43.128
 20
40.828
 10
43.128
 20
38.448
 10
40.028
 20
38.448
 10
40.028
 20
36.148
 10
33.45
 20
36.148
 10
33.45
 20
33.048
 10
26.793
 20
33.048
 10
26.793
 20
36.148
 10
20.295
 20
36.148
 10
20.295
 20
33.048
 10
13.638
 20
33.048
 10
13.638
 20
36.148
 10
7.06
 20
36.148
 10
7.06
 20
38.448
 10
3.96
 20
38.448
 10
3.96
 20
40.828
 10
7.06
 20
40.828
  0
LWPOLYLINE
  5
4A
330
17
100
AcDbEntity
  8
CUT
100
AcDbPolyline
 90
4
 70
1
 10
12.14
 20
40.698
 10
34.948
 20
40.698
 10
34.948
 20
38.578
 10
12.14
 20
38.578
  0
HATCH
  5
4B
330
17
100
AcDbEntity
  8
RASTER
 62
7
100
AcDbHatch
 10
0.0
 20
0.0
 30
0.0
210
0.0
220
0.0
230
1.0
  2
SOLID
 70
1
 71
0
 91
1
 92
3
 72
0
 73
1
 93
4
 10
7.7
 20
42.688
 10
11.5
 20
42.688
 10
11.5
 20
36.588
 10
7.7
 20
36.588
 97
0
 75
0
 76
1
 98
0
  0
HATCH
  5
4C
330
17
100
AcDbEntity
  8
RASTER
 62
7
100
AcDbHatch
 10
0.0
 20
0.0
 30
0.0
210
0.0
220
0.0
230
1.0
  2
SOLID
 70
1
 71
0
 91
1
 92
3
 72
0
 73
1
 93
4
 10
35.588
 20
42.688
 10
39.388
 20
42.688
 10
39.388
 20
36.588
 10
35.588
 20
36.588
 97
0
 75
0
 76
1
 98
0
  0
HATCH
  5
4D
330
17
100
AcDbEntity
  8
RASTER
 62
7
100
AcDbHatch
 10
0.0
 20
0.0
 30
0.0
210
0.0
220
0.0
230
1.0
  2
SOLID
 70
1
 71
0
 91
1
 92
3
 72
0
 73
1
 93
48
 10
14.2
 20
42.338
 10
14.196
 20
42.273
 10
14.183
 20
42.209
 10
14.162
 20
42.147
 10
14.133
 20
42.088
 10
14.097
 20
42.034
 10
14.054
 20
41.984
 10
14.004
 20
41.941
 10
13.95
 20
41.905
 10
13.891
 20
41.876
 10
13.829
 20
41.855
 10
13.765
 20
41.842
 10
13.7
 20
41.838
 10
13.635
 20
41.842
 10
13.571
 20
41.855
 10
13.509
 20
41.876
 10
13.45
 20
41.905
 10
13.396
 20
41.941
 10
13.346
 20
41.984
 10
13.303
 20
42.034
 10
13.267
 20
42.088
 10
13.238
 20
42.147
 10
13.217
 20
42.209
 10
13.204
 20
42.273
 10
13.2
 20
42.338
 10
13.204
 20
42.403
 10
13.217
 20
42.467
 10
13.238
 20
42.529
 10
13.267
 20
42.588
 10
13.303
 20
42.642
 10
13.346
 20
42.692
 10
13.396
 20
42.735
 10
13.45
 20
42.771
 10
13.509
 20
42.8
 10
13.571
 20
42.821
 10
13.635
 20
42.834
 10
13.7
 20
42.838
 10
13.765
 20
42.834
 10
13.829
 20
42.821
 10
13.891
 20
42.8
 10
13.95
 20
42.771
 10
14.004
 20
42.735
 10
14.054
 20
42.692
 10
14.097
 20
42.642
 10
14.133
 20
42.588
 10
14.162
 20
42.529
 10
14.183
 20
42.467
 10
14.196
 20
42.403
 97
0
 75
0
 76
1
 98
0
  0
HATCH
  5
4E
330
17
100
AcDbEntity
  8
RASTER
 62
7
100
AcDbHatch
 10
0.0
 20
0.0
 30
0.0
210
0.0
220
0.0
230
1.0
  2
SOLID
 70
1
 71
0
 91
1
 92
3
 72
0
 73
1
 93
48
 10
33.888
 20
42.338
 10
33.884
 20
42.273
 10
33.871
 20
42.209
 10
33.85
 20
42.147
 10
33.821
 20
42.088
 10
33.785
 20
42.034
 10
33.742
 20
41.984
 10
33.692
 20
41.941
 10
33.638
 20
41.905
 10
33.579
 20
41.876
 10
33.517
 20
41.855
 10
33.453
 20
41.842
 10
33.388
 20
41.838
 10
33.323
 20
41.842
 10
33.259
 20
41.855
 10
33.197
 20
41.876
 10
33.138
 20
41.905
 10
33.084
 20
41.941
 10
33.034
 20
41.984
 10
32.991
 20
42.034
 10
32.955
 20
42.088
 10
32.926
 20
42.147
 10
32.905
 20
42.209
 10
32.892
 20
42.273
 10
32.888
 20
42.338
 10
32.892
 20
42.403
 10
32.905
 20
42.467
 10
32.926
 20
42.529
 10
32.955
 20
42.588
 10
32.991
 20
42.642
 10
33.034
 20
42.692
 10
33.084
 20
42.735
 10
33.138
 20
42.771
 10
33.197
 20
42.8
 10
33.259
 20
42.821
 10
33.323
 20
42.834
 10
33.388
 20
42.838
 10
33.453
 20
42.834
 10
33.517
 20
42.821
 10
33.579
 20
42.8
 10
33.638
 20
42.771
 10
33.692
 20
42.735
 10
33.742
 20
42.692
 10
33.785
 20
42.642
 10
33.821
 20
42.588
 10
33.85
 20
42.529
 10
33.871
 20
42.467
 10
33.884
 20
42.403
 97
0
 75
0
 76
1
 98
0
  0
HATCH
  5
4F
330
17
100
AcDbEntity
  8
RASTER
 62
7
100
AcDbHatch
 10
0.0
 20
0.0
 30
0.0
210
0.0
220
0.0
230
1.0
  2
SOLID
 70
1
 71
0
 91
1
 92
3
 72
0
 73
1
 93
48
 10
14.2
 20
36.938
 10
14.196
 20
36.873
 10
14.183
 20
36.809
 10
14.162
 20
36.747
 10
14.133
 20
36.688
 10
14.097
 20
36.634
 10
14.054
 20
36.584
 10
14.004
 20
36.541
 10
13.95
 20
36.505
 10
13.891
 20
36.476
 10
13.829
 20
36.455
 10
13.765
 20
36.442
 10
13.7
 20
36.438
 10
13.635
 20
36.442
 10
13.571
 20
36.455
 10
13.509
 20
36.476
 10
13.45
 20
36.505
 10
13.396
 20
36.541
 10
13.346
 20
36.584
 10
13.303
 20
36.634
 10
13.267
 20
36.688
 10
13.238
 20
36.747
 10
13.217
 20
36.809
 10
13.204
 20
36.873
 10
13.2
 20
36.938
 10
13.204
 20
37.003
 10
13.217
 20
37.067
 10
13.238
 20
37.129
 10
13.267
 20
37.188
 10
13.303
 20
37.242
 10
13.346
 20
37.292
 10
13.396
 20
37.335
 10
13.45
 20
37.371
 10
13.509
 20
37.4
 10
13.571
 20
37.421
 10
13.635
 20
37.434
 10
13.7
 20
37.438
 10
13.765
 20
37.434
 10
13.829
 20
37.421
 10
13.891
 20
37.4
 10
13.95
 20
37.371
 10
14.004
 20
37.335
 10
14.054
 20
37.292
 10
14.097
 20
37.242
 10
14.133
 20
37.188
 10
14.162
 20
37.129
 10
14.183
 20
37.067
 10
14.196
 20
37.003
 97
0
 75
0
 76
1
 98
0
  0
HATCH
  5
50
330
17
100
AcDbEntity
  8
RASTER
 62
7
100
AcDbHatch
 10
0.0
 20
0.0
 30
0.0
210
0.0
220
0.0
230
1.0
  2
SOLID
 70
1
 71
0
 91
1
 92
3
 72
0
 73
1
 93
48
 10
33.888
 20
36.938
 10
33.884
 20
36.873
 10
33.871
 20
36.809
 10
33.85
 20
36.747
 10
33.821
 20
36.688
 10
33.785
 20
36.634
 10
33.742
 20
36.584
 10
33.692
 20
36.541
 10
33.638
 20
36.505
 10
33.579
 20
36.476
 10
33.517
 20
36.455
 10
33.453
 20
36.442
 10
33.388
 20
36.438
 10
33.323
 20
36.442
 10
33.259
 20
36.455
 10
33.197
 20
36.476
 10
33.138
 20
36.505
 10
33.084
 20
36.541
 10
33.034
 20
36.584
 10
32.991
 20
36.634
 10
32.955
 20
36.688
 10
32.926
 20
36.747
 10
32.905
 20
36.809
 10
32.892
 20
36.873
 10
32.888
 20
36.938
 10
32.892
 20
37.003
 10
32.905
 20
37.067
 10
32.926
 20
37.129
 10
32.955
 20
37.188
 10
32.991
 20
37.242
 10
33.034
 20
37.292
 10
33.084
 20
37.335
 10
33.138
 20
37.371
 10
33.197
 20
37.4
 10
33.259
 20
37.421
 10
33.323
 20
37.434
 10
33.388
 20
37.438
 10
33.453
 20
37.434
 10
33.517
 20
37.421
 10
33.579
 20
37.4
 10
33.638
 20
37.371
 10
33.692
 20
37.335
 10
33.742
 20
37.292
 10
33.785
 20
37.242
 10
33.821
 20
37.188
 10
33.85
 20
37.129
 10
33.871
 20
37.067
 10
33.884
 20
37.003
 97
0
 75
0
 76
1
 98
0
  0
LWPOLYLINE
  5
51
330
17
100
AcDbEntity
  8
CUT
100
AcDbPolyline
 90
60
 70
1
 10
47.048
 20
43.128
 10
50.188
 20
43.128
 10
55.654
 20
43.128
 10
55.654
 20
40.028
 10
61.0
 20
40.028
 10
61.0
 20
43.128
 10
66.505
 20
43.128
 10
66.505
 20
40.028
 10
71.851
 20
40.028
 10
71.851
 20
43.128
 10
77.357
 20
43.128
 10
77.357
 20
40.028
 10
82.703
 20
40.028
 10
82.703
 20
43.128
 10
88.208
 20
43.128
 10
88.208
 20
40.028
 10
93.554
 20
40.028
 10
93.554
 20
43.128
 10
99.02
 20
43.128
 10
102.16
 20
43.128
 10
102.16
 20
39.988
 10
102.16
 20
33.37
 10
99.06
 20
33.37
 10
99.06
 20
26.873
 10
102.16
 20
26.873
 10
102.16
 20
20.215
 10
99.06
 20
20.215
 10
99.06
 20
13.718
 10
102.16
 20
13.718
 10
102.16
 20
7.1
 10
102.16
 20
3.96
 10
99.02
 20
3.96
 10
93.554
 20
3.96
 10
93.554
 20
7.06
 10
88.208
 20
7.06
 10
88.208
 20
3.96
 10
82.703
 20
3.96
 10
82.703
 20
7.06
 10
77.357
 20
7.06
 10
77.357
 20
3.96
 10
71.851
 20
3.96
 10
71.851
 20
7.06
 10
66.505
 20
7.06
 10
66.505
 20
3.96
 10
61.0
 20
3.96
 10
61.0
 20
7.06
 10
55.654
 20
7.06
 10
55.654
 20
3.96
 10
50.188
 20
3.96
 10
47.048
 20
3.96
 10
47.048
 20
7.1
 10
47.048
 20
13.718
 10
50.148
 20
13.718
 10
50.148
 20
20.215
 10
47.048
 20
20.215
 10
47.048
 20
26.873
 10
50.148
 20
26.873
 10
50.148
 20
33.37
 10
47.048
 20
33.37
 10
47.048
 20
39.988
  0
ENDSEC
  0
SECTION
  2
OBJECTS
  0
DICTIONARY
  5
A
330
0
100
AcDbDictionary
281
1
  3
ACAD_COLOR
350
B
  3
ACAD_GROUP
350
C
  3
ACAD_LAYOUT
350
D
  3
ACAD_MATERIAL
350
E
  3
ACAD_MLEADERSTYLE
350
F
  3
ACAD_MLINESTYLE
350
10
  3
ACAD_PLOTSETTINGS
350
11
  3
ACAD_PLOTSTYLENAME
350
12
  3
ACAD_SCALELIST
350
14
  3
ACAD_TABLESTYLE
350
15
  3
ACAD_VISUALSTYLE
350
16
  3
EZDXF_META
350
2D
  0
DICTIONARY
  5
B
330
A
100
AcDbDictionary
281
1
  0
DICTIONARY
  5
C
330
A
100
AcDbDictionary
281
1
  0
DICTIONARY
  5
D
330
A
100
AcDbDictionary
281
1
  3
Model
350
1A
  3
Layout1
350
1E
  0
DICTIONARY
  5
E
330
A
100
AcDbDictionary
281
1
  3
ByBlock
350
1F
  3
ByLayer
350
20
  3
Global
350
21
  0
DICTIONARY
  5
F
330
A
100
AcDbDictionary
281
1
  3
Standard
350
2C
  0
DICTIONARY
  5
10
330
A
100
AcDbDictionary
281
1
  3
Standard
350
22
  0
DICTIONARY
  5
11
330
A
100
AcDbDictionary
281
1
  0
ACDBDICTIONARYWDFLT
  5
12
330
A
100
AcDbDictionary
281
1
  3
Normal
350
13
100
AcDbDictionaryWithDefault
340
13
  0
ACDBPLACEHOLDER
  5
13
330
12
  0
DICTIONARY
  5
14
330
A
100
AcDbDictionary
281
1
  0
DICTIONARY
  5
15
330
A
100
AcDbDictionary
281
1
  0
DICTIONARY
  5
16
330
A
100
AcDbDictionary
281
1
  0
LAYOUT
  5
1A
330
D
100
AcDbPlotSettings
  1

  4
A3
  6

 40
7.5
 41
20.0
 42
7.5
 43
20.0
 44
420.0
 45
297.0
 46
0.0
 47
0.0
 48
0.0
 49
0.0
140
0.0
141
0.0
142
1.0
143
1.0
 70
1024
 72
1
 73
0
 74
5
  7

 75
16
 76
0
 77
2
 78
300
147
1.0
148
0.0
149
0.0
100
AcDbLayout
  1
Model
 70
1
 71
0
 10
0.0
 20
0.0
 11
420.0
 21
297.0
 12
0.0
 22
0.0
 32
0.0
 14
1e+20
 24
1e+20
 34
1e+20
 15
-1e+20
 25
-1e+20
 35
-1e+20
146
0.0
 13
0.0
 23
0.0
 33
0.0
 16
1.0
 26
0.0
 36
0.0
 17
0.0
 27
1.0
 37
0.0
 76
1
330
17
  0
LAYOUT
  5
1E
330
D
100
AcDbPlotSettings
  1

  4
A3
  6

 40
7.5
 41
20.0
 42
7.5
 43
20.0
 44
420.0
 45
297.0
 46
0.0
 47
0.0
 48
0.0
 49
0.0
140
0.0
141
0.0
142
1.0
143
1.0
 70
0
 72
1
 73
0
 74
5
  7

 75
16
 76
0
 77
2
 78
300
147
1.0
148
0.0
149
0.0
100
AcDbLayout
  1
Layout1
 70
1
 71
1
 10
0.0
 20
0.0
 11
420.0
 21
297.0
 12
0.0
 22
0.0
 32
0.0
 14
1e+20
 24
1e+20
 34
1e+20
 15
-1e+20
 25
-1e+20
 35
-1e+20
146
0.0
 13
0.0
 23
0.0
 33
0.0
 16
1.0
 26
0.0
 36
0.0
 17
0.0
 27
1.0
 37
0.0
 76
1
330
1B
  0
MATERIAL
  5
1F
102
{ACAD_REACTORS
330
E
102
}
330
E
100
AcDbMaterial
  1
ByBlock
  2

 70
0
 40
1.0
 71
1
 41
1.0
 91
-1023410177
 42
1.0
 72
1
  3

 73
1
 74
1
 75
1
 44
0.5
 73
0
 45
1.0
 46
1.0
 77
1
  4

 78
1
 79
1
170
1
 48
1.0
171
1
  6

172
1
173
1
174
1
140
1.0
141
1.0
175
1
  7

176
1
177
1
178
1
143
1.0
179
1
  8

270
1
271
1
272
1
145
1.0
146
1.0
273
1
  9

274
1
275
1
276
1
 42
1.0
 72
1
  3

 73
1
 74
1
 75
1
 94
63
  0
MATERIAL
  5
20
102
{ACAD_REACTORS
330
E
102
}
330
E
100
AcDbMaterial
  1
ByLayer
  2

 70
0
 40
1.0
 71
1
 41
1.0
 91
-1023410177
 42
1.0
 72
1
  3

 73
1
 74
1
 75
1
 44
0.5
 73
0
 45
1.0
 46
1.0
 77
1
  4

 78
1
 79
1
170
1
 48
1.0
171
1
  6

172
1
173
1
174
1
140
1.0
141
1.0
175
1
  7

176
1
177
1
178
1
143
1.0
179
1
  8

270
1
271
1
272
1
145
1.0
146
1.0
273
1
  9

274
1
275
1
276
1
 42
1.0
 72
1
  3

 73
1
 74
1
 75
1
 94
63
  0
MATERIAL
  5
21
102
{ACAD_REACTORS
330
E
102
}
330
E
100
AcDbMaterial
  1
Global
  2

 70
0
 40
1.0
 71
1
 41
1.0
 91
-1023410177
 42
1.0
 72
1
  3

 73
1
 74
1
 75
1
 44
0.5
 73
0
 45
1.0
 46
1.0
 77
1
  4

 78
1
 79
1
170
1
 48
1.0
171
1
  6

172
1
173
1
174
1
140
1.0
141
1.0
175
1
  7

176
1
177
1
178
1
143
1.0
179
1
  8

270
1
271
1
272
1
145
1.0
146
1.0
273
1
  9

274
1
275
1
276
1
 42
1.0
 72
1
  3

 73
1
 74
1
 75
1
 94
63
  0
MLINESTYLE
  5
22
102
{ACAD_REACTORS
330
10
102
}
330
10
100
AcDbMlineStyle
  2
Standard
 70
0
  3

 62
256
 51
90.0
 52
90.0
 71
2
 49
0.5
 62
256
  6
BYLAYER
 49
-0.5
 62
256
  6
BYLAYER
  0
MLEADERSTYLE
  5
2C
102
{ACAD_REACTORS
330
F
102
}
330
F
100
AcDbMLeaderStyle
179
2
170
2
171
1
172
0
 90
2
 40
0.0
 41
0.0
173
1
 91
-1056964608
 92
-2
290
1
 42
2.0
291
1
 43
8.0
  3
Standard
 44
4.0
300

342
29
174
1
175
1
176
0
178
1
 93
-1056964608
 45
4.0
292
0
297
0
 46
4.0
 94
-1056964608
 47
1.0
 49
1.0
140
1.0
294
1
141
0.0
177
0
142
1.0
295
0
296
0
143
3.75
271
0
272
9
273
9
  0
DICTIONARY
  5
2D
330
A
100
AcDbDictionary
280
1
281
1
  3
CREATED_BY_EZDXF
350
2E
  3
WRITTEN_BY_EZDXF
350
54
  0
DICTIONARYVAR
  5
2E
330
2D
100
DictionaryVariables
280
0
  1
1.4.2 @ 2026-09-12T14:09:05.331819+00:00
  0
DICTIONARYVAR
  5
54
330
2D
100
DictionaryVariables
280
0
  1
1.4.2 @ 2026-09-12T14:09:05.334083+00:00
  0
ENDSEC
  0
EOF
