  0
SECTION
  2
HEADER
  9
$ACADVER
  1
AC1015
  9
$ACADMAINTVER
 70
6
  9
$DWGCODEPAGE
  3
ANSI_1252
  9
$INSBASE
 10
0.0
 20
0.0
 30
0.0
  9
$EXTMIN
 10
1e+20
 20
1e+20
 30
1e+20
  9
$EXTMAX
 10
-1e+20
 20
-1e+20
 30
-1e+20
  9
$LIMMIN
 10
0.0
 20
0.0
  9
$LIMMAX
 10
420.0
 20
297.0
  9
$ORTHOMODE
 70
0
  9
$REGENMODE
 70
1
  9
$FILLMODE
 70
1
  9
$QTEXTMODE
 70
0
  9
$MIRRTEXT
 70
1
  9
$LTSCALE
 40
1.0
  9
$ATTMODE
 70
1
  9
$TEXTSIZE
 40
2.5
  9
$TRACEWID
 40
1.0
  9
$TEXTSTYLE
  7
Standard
  9
$CLAYER
  8
0
  9
$CELTYPE
  6
ByLayer
  9
$CECOLOR
 62
256
  9
$CELTSCALE
 40
1.0
  9
$DISPSILH
 70
0
  9
$DIMSCALE
 40
1.0
  9
$DIMASZ
 40
2.5
  9
$DIMEXO
 40
0.625
  9
$DIMDLI
 40
3.75
  9
$DIMRND
 40
0.0
  9
$DIMDLE
 40
0.0
  9
$DIMEXE
 40
1.25
  9
$DIMTP
 40
0.0
  9
$DIMTM
 40
0.0
  9
$DIMTXT
 40
2.5
  9
$DIMCEN
 40
2.5
  9
$DIMTSZ
 40
0.0
  9
$DIMTOL
 70
0
  9
$DIMLIM
 70
0
  9
$DIMTIH
 70
0
  9
$DIMTOH
 70
0
  9
$DIMSE1
 70
0
  9
$DIMSE2
 70
0
  9
$DIMTAD
 70
1
  9
$DIMZIN
 70
8
  9
$DIMBLK
  1

  9
$DIMASO
 70
1
  9
$DIMSHO
 70
1
  9
$DIMPOST
  1

  9
$DIMAPOST
  1

  9
$DIMALT
 70
0
  9
$DIMALTD
 70
3
  9
$DIMALTF
 40
0.03937007874
  9
$DIMLFAC
 40
1.0
  9
$DIMTOFL
 70
1
  9
$DIMTVP
 40
0.0
  9
$DIMTIX
 70
0
  9
$DIMSOXD
 70
0
  9
$DIMSAH
 70
0
  9
$DIMBLK1
  1

  9
$DIMBLK2
  1

  9
$DIMSTYLE
  2
ISO-25
  9
$DIMCLRD
 70
0
  9
$DIMCLRE
 70
0
  9
$DIMCLRT
 70
0
  9
$DIMTFAC
 40
1.0
  9
$DIMGAP
 40
0.625
  9
$DIMJUST
 70
0
  9
$DIMSD1
 70
0
  9
$DIMSD2
 70
0
  9
$DIMTOLJ
 70
0
  9
$DIMTZIN
 70
8
  9
$DIMALTZ
 70
0
  9
$DIMALTTZ
 70
0
  9
$DIMUPT
 70
0
  9
$DIMDEC
 70
2
  9
$DIMTDEC
 70
2
  9
$DIMALTU
 70
2
  9
$DIMALTTD
 70
3
  9
$DIMTXSTY
  7
Standard
  9
$DIMAUNIT
 70
0
  9
$DIMADEC
 70
0
  9
$DIMALTRND
 40
0.0
  9
$DIMAZIN
 70
0
  9
$DIMDSEP
 70
44
  9
$DIMATFIT
 70
3
  9
$DIMFRAC
 70
0
  9
$DIMLDRBLK
  1

  9
$DIMLUNIT
 70
2
  9
$DIMLWD
 70
-2
  9
$DIMLWE
 70
-2
  9
$DIMTMOVE
 70
0
  9
$LUNITS
 70
2
  9
$LUPREC
 70
4
  9
$SKETCHINC
 40
1.0
  9
$FILLETRAD
 40
10.0
  9
$AUNITS
 70
0
  9
$AUPREC
 70
2
  9
$MENU
  1
.
  9
$ELEVATION
 40
0.0
  9
$PELEVATION
 40
0.0
  9
$THICKNESS
 40
0.0
  9
$LIMCHECK
 70
0
  9
$CHAMFERA
 40
0.0
  9
$CHAMFERB
 40
0.0
  9
$CHAMFERC
 40
0.0
  9
$CHAMFERD
 40
0.0
  9
$SKPOLY
 70
0
  9
$TDCREATE
 40
2461295.9753935183
  9
$TDUCREATE
 40
2458532.153996898
  9
$TDUPDATE
 40
2461295.9753935183
  9
$TDUUPDATE
 40
2458532.1544311
  9
$TDINDWG
 40
0.0
  9
$TDUSRTIMER
 40
0.0
  9
$USRTIMER
 70
1
  9
$ANGBASE
 50
0.0
  9
$ANGDIR
 70
0
  9
$PDMODE
 70
0
  9
$PDSIZE
 40
0.0
  9
$PLINEWID
 40
0.0
  9
$SPLFRAME
 70
0
  9
$SPLINETYPE
 70
6
  9
$SPLINESEGS
 70
8
  9
$HANDSEED
  5
55
  9
$SURFTAB1
 70
6
  9
$SURFTAB2
 70
6
  9
$SURFTYPE
 70
6
  9
$SURFU
 70
6
  9
$SURFV
 70
6
  9
$UCSBASE
  2

  9
$UCSNAME
  2

  9
$UCSORG
 10
0.0
 20
0.0
 30
0.0
  9
$UCSXDIR
 10
1.0
 20
0.0
 30
0.0
  9
$UCSYDIR
 10
0.0
 20
1.0
 30
0.0
  9
$UCSORTHOREF
  2

  9
$UCSORTHOVIEW
 70
0
  9
$UCSORGTOP
 10
0.0
 20
0.0
 30
0.0
  9
$UCSORGBOTTOM
 10
0.0
 20
0.0
 30
0.0
  9
$UCSORGLEFT
 10
0.0
 20
0.0
 30
0.0
  9
$UCSORGRIGHT
 10
0.0
 20
0.0
 30
0.0
  9
$UCSORGFRONT
 10
0.0
 20
0.0
 30
0.0
  9
$UCSORGBACK
 10
0.0
 20
0.0
 30
0.0
  9
$PUCSBASE
  2

  9
$PUCSNAME
  2

  9
$PUCSORG
 10
0.0
 20
0.0
 30
0.0
  9
$PUCSXDIR
 10
1.0
 20
0.0
 30
0.0
  9
$PUCSYDIR
 10
0.0
 20
1.0
 30
0.0
  9
$PUCSORTHOREF
  2

  9
$PUCSORTHOVIEW
 70
0
  9
$PUCSORGTOP
 10
0.0
 20
0.0
 30
0.0
  9
$PUCSORGBOTTOM
 10
0.0
 20
0.0
 30
0.0
  9
$PUCSORGLEFT
 10
0.0
 20
0.0
 30
0.0
  9
$PUCSORGRIGHT
 10
0.0
 20
0.0
 30
0.0
  9
$PUCSORGFRONT
 10
0.0
 20
0.0
 30
0.0
  9
$PUCSORGBACK
 10
0.0
 20
0.0
 30
0.0
  9
$USERI1
 70
0
  9
$USERI2
 70
0
  9
$USERI3
 70
0
  9
$USERI4
 70
0
  9
$USERI5
 70
0
  9
$USERR1
 40
0.0
  9
$USERR2
 40
0.0
  9
$USERR3
 40
0.0
  9
$USERR4
 40
0.0
  9
$USERR5
 40
0.0
  9
$WORLDVIEW
 70
1
  9
$SHADEDGE
 70
3
  9
$SHADEDIF
 70
70
  9
$TILEMODE
 70
1
  9
$MAXACTVP
 70
64
  9
$PINSBASE
 10
0.0
 20
0.0
 30
0.0
  9
$PLIMCHECK
 70
0
  9
$PEXTMIN
 10
1e+20
 20
1e+20
 30
1e+20
  9
$PEXTMAX
 10
-1e+20
 20
-1e+20
 30
-1e+20
  9
$PLIMMIN
 10
0.0
 20
0.0
  9
$PLIMMAX
 10
420.0
 20
297.0
  9
$UNITMODE
 70
0
  9
$VISRETAIN
 70
1
  9
$PLINEGEN
 70
0
  9
$PSLTSCALE
 70
1
  9
$TREEDEPTH
 70
3020
  9
$CMLSTYLE
  2
Standard
  9
$CMLJUST
 70
0
  9
$CMLSCALE
 40
20.0
  9
$PROXYGRAPHICS
 70
1
  9
$MEASUREMENT
 70
1
  9
$CELWEIGHT
370
-1
  9
$ENDCAPS
280
0
  9
$JOINSTYLE
280
0
  9
$LWDISPLAY
290
0
  9
$INSUNITS
 70
4
  9
$HYPERLINKBASE
  1

  9
$STYLESHEET
  1

  9
$XEDIT
290
1
  9
$CEPSNTYPE
380
0
  9
$PSTYLEMODE
290
1
  9
$FINGERPRINTGUID
  2
{A059F42C-EC32-42B8-B026-89AD2A64B3AE}
  9
$VERSIONGUID
  2
{C3140AAD-D0D4-4A04-A6AE-4B6E1918A824}
  9
$EXTNAMES
290
1
  9
$PSVPSCALE
 40
0.0
  9
$OLESTARTUP
290
0
  0
ENDSEC
  0
SECTION
  2
CLASSES
  0
CLASS
  1
ACDBDICTIONARYWDFLT
  2
AcDbDictionaryWithDefault
  3
ObjectDBX Classes
 90
0
280
0
281
0
  0
CLASS
  1
SUN
  2
AcDbSun
  3
SCENEOE
 90
1153
280
0
281
0
  0
CLASS
  1
VISUALSTYLE
  2
AcDbVisualStyle
  3
ObjectDBX Classes
 90
4095
280
0
281
0
  0
CLASS
  1
MATERIAL
  2
AcDbMaterial
  3
ObjectDBX Classes
 90
1153
280
0
281
0
  0
CLASS
  1
SCALE
  2
AcDbScale
  3
ObjectDBX Classes
 90
1153
280
0
281
0
  0
CLASS
  1
TABLESTYLE
  2
AcDbTableStyle
  3
ObjectDBX Classes
 90
4095
280
0
281
0
  0
CLASS
  1
MLEADERSTYLE
  2
AcDbMLeaderStyle
  3
ACDB_MLEADERSTYLE_CLASS
 90
4095
280
0
281
0
  0
CLASS
  1
DICTIONARYVAR
  2
AcDbDictionaryVar
  3
ObjectDBX Classes
 90
0
280
0
281
0
  0
CLASS
  1
CELLSTYLEMAP
  2
AcDbCellStyleMap
  3
ObjectDBX Classes
 90
1152
280
0
281
0
  0
CLASS
  1
MENTALRAYRENDERSETTINGS
  2
AcDbMentalRayRenderSettings
  3
SCENEOE
 90
1024
280
0
281
0
  0
CLASS
  1
ACDBDETAILVIEWSTYLE
  2
AcDbDetailViewStyle
  3
ObjectDBX Classes
 90
1025
280
0
281
0
  0
CLASS
  1
ACDBSECTIONVIEWSTYLE
  2
AcDbSectionViewStyle
  3
ObjectDBX Classes
 90
1025
280
0
281
0
  0
CLASS
  1
RASTERVARIABLES
  2
AcDbRasterVariables
  3
ISM
 90
0
280
0
281
0
  0
CLASS
  1
ACDBPLACEHOLDER
  2
AcDbPlaceHolder
  3
ObjectDBX Classes
 90
0
280
0
281
0
  0
CLASS
  1
LAYOUT
  2
AcDbLayout
  3
ObjectDBX Classes
 90
0
280
0
281
0
  0
ENDSEC
  0
SECTION
  2
TABLES
  0
TABLE
  2
VPORT
  5
8
330
0
100
AcDbSymbolTable
 70
1
  0
VPORT
  5
23
330
8
100
AcDbSymbolTableRecord
100
AcDbViewportTableRecord
  2
*Active
 70
0
 10
0.0
 20
0.0
 11
1.0
 21
1.0
 12
0.0
 22
0.0
 13
0.0
 23
0.0
 14
0.5
 24
0.5
 15
0.5
 25
0.5
 16
0.0
 26
0.0
 36
1.0
 17
0.0
 27
0.0
 37
0.0
 40
1000.0
 41
1.34
 42
50.0
 43
0.0
 44
0.0
 50
0.0
 51
0.0
 71
0
 72
1000
 73
1
 74
3
 75
0
 76
0
 77
0
 78
0
281
0
 65
0
146
0.0
  0
ENDTAB
  0
TABLE
  2
LTYPE
  5
2
330
0
100
AcDbSymbolTable
 70
3
  0
LTYPE
  5
24
330
2
100
AcDbSymbolTableRecord
100
AcDbLinetypeTableRecord
  2
ByBlock
 70
0
  3

 72
65
 73
0
 40
0.0
  0
LTYPE
  5
25
330
2
100
AcDbSymbolTableRecord
100
AcDbLinetypeTableRecord
  2
ByLayer
 70
0
  3

 72
65
 73
0
 40
0.0
  0
LTYPE
  5
26
330
2
100
AcDbSymbolTableRecord
100
AcDbLinetypeTableRecord
  2
Continuous
 70
0
  3

 72
65
 73
0
 40
0.0
  0
ENDTAB
  0
TABLE
  2
LAYER
  5
1
330
0
100
AcDbSymbolTable
 70
4
  0
LAYER
  5
27
330
1
100
AcDbSymbolTableRecord
100
AcDbLayerTableRecord
  2
0
 70
0
 62
7
  6
Continuous
370
-3
390
13
  0
LAYER
  5
28
330
1
100
AcDbSymbolTableRecord
100
AcDbLayerTableRecord
  2
Defpoints
 70
0
 62
7
  6
Continuous
290
0
370
-3
390
13
  0
LAYER
  5
2F
330
1
100
AcDbSymbolTableRecord
100
AcDbLayerTableRecord
  2
CUT
 70
0
 62
1
  6
Continuous
370
-3
390
13
  0
LAYER
  5
30
330
1
100
AcDbSymbolTableRecord
100
AcDbLayerTableRecord
  2
RASTER
 70
0
 62
7
  6
Continuous
370
-3
390
13
  0
ENDTAB
  0
TABLE
  2
STYLE
  5
5
330
0
100
AcDbSymbolTable
 70
1
  0
STYLE
  5
29
330
5
100
AcDbSymbolTableRecord
100
AcDbTextStyleTableRecord
  2
Standard
 70
0
 40
0.0
 41
1.0
 50
0.0
 71
0
 42
2.5
  3
txt
  4

  0
ENDTAB
  0
TABLE
  2
VIEW
  5
7
330
0
100
AcDbSymbolTable
 70
0
  0
ENDTAB
  0
TABLE
  2
UCS
  5
6
330
0
100
AcDbSymbolTable
 70
0
  0
ENDTAB
  0
TABLE
  2
APPID
  5
3
330
0
100
AcDbSymbolTable
 70
3
  0
APPID
  5
2A
330
3
100
AcDbSymbolTableRecord
100
AcDbRegAppTableRecord
  2
ACAD
 70
0
  0
APPID
  5
52
330
3
100
AcDbSymbolTableRecord
100
AcDbRegAppTableRecord
  2
HATCHBACKGROUNDCOLOR
 70
0
  0
APPID
  5
53
330
3
100
AcDbSymbolTableRecord
100
AcDbRegAppTableRecord
  2
EZDXF
 70
0
  0
ENDTAB
  0
TABLE
  2
DIMSTYLE
  5
4
330
0
100
AcDbSymbolTable
 70
1
100
AcDbDimStyleTable
  0
DIMSTYLE
105
2B
330
4
100
AcDbSymbolTableRecord
100
AcDbDimStyleTableRecord
  2
Standard
 70
0
  3

  4

 40
1.0
 41
2.5
 42
0.625
 43
3.75
 44
1.25
 45
0.0
 46
0.0
 47
0.0
 48
0.0
140
2.5
141
2.5
142
0.0
143
0.03937007874
144
1.0
145
0.0
146
1.0
147
0.625
148
0.0
 71
0
 72
0
 73
0
 74
0
 75
0
 76
0
 77
1
 78
8
 79
3
170
0
171
3
172
1
173
0
174
0
175
0
176
0
177
0
178
0
179
2
271
2
272
2
273
2
274
3
275
0
276
0
277
2
278
44
279
0
280
0
281
0
282
0
283
0
284
8
285
0
286
0
288
0
289
3
371
-2
372
-2
  0
ENDTAB
  0
TABLE
  2
BLOCK_RECORD
  5
9
330
0
100
AcDbSymbolTable
 70
2
  0
BLOCK_RECORD
  5
17
330
9
100
AcDbSymbolTableRecord
100
AcDbBlockTableRecord
  2
*Model_Space
340
1A
  0
BLOCK_RECORD
  5
1B
330
9
100
AcDbSymbolTableRecord
100
AcDbBlockTableRecord
  2
*Paper_Space
340
1E
  0
ENDTAB
  0
ENDSEC
  0
SECTION
  2
BLOCKS
  0
BLOCK
  5
18
330
17
100
AcDbEntity
  8
0
100
AcDbBlockBegin
  2
*Model_Space
 70
0
 10
0.0
 20
0.0
 30
0.0
  3
*Model_Space
  1

  0
ENDBLK
  5
19
330
17
100
AcDbEntity
  8
0
100
AcDbBlockEnd
  0
BLOCK
  5
1C
330
1B
100
AcDbEntity
  8
0
100
AcDbBlockBegin
  2
*Paper_Space
 70
0
 10
0.0
 20
0.0
 30
0.0
  3
*Paper_Space
  1

  0
ENDBLK
  5
1D
330
1B
100
AcDbEntity
  8
0
100
AcDbBlockEnd
  0
ENDSEC
  0
SECTION
  2
ENTITIES
  0
LWPOLYLINE
  5
31
330
17
100
AcDbEntity
  8
CUT
100
AcDbPolyline
 90
36
 70
1
 10
7.1
 20
96.336
 10
72.744
 20
96.336
 10
75.884
 20
96.336
 10
75.884
 20
93.956
 10
72.784
 20
93.956
 10
72.784
 20
91.736
 10
75.884
 20
91.736
 10
75.884
 20
89.356
 10
72.744
 20
89.356
 10
66.816
 20
89.356
 10
66.816
 20
86.256
 10
60.769
 20
86.256
 10
60.769
 20
89.356
 10
54.881
 20
89.356
 10
54.881
 20
86.256
 10
48.833
 20
86.256
 10
48.833
 20
89.356
 10
42.946
 20
89.356
 10
42.946
 20
86.256
 10
36.898
 20
86.256
 10
36.898
 20
89.356
 10
31.011
 20
89.356
 10
31.011
 20
86.256
 10
24.963
 20
86.256
 10
24.963
 20
89.356
 10
19.075
 20
89.356
 10
19.075
 20
86.256
 10
13.028
 20
86.256
 10
13.028
 20
89.356
 10
7.1
 20
89.356
 10
3.96
 20
89.356
 10
3.96
 20
91.736
 10
7.06
 20
91.736
 10
7.06
 20
93.956
 10
3.96
 20
93.956
 10
3.96
 20
96.336
  0
LWPOLYLINE
  5
32
330
17
100
AcDbEntity
  8
CUT
100
AcDbPolyline
 90
4
 70
1
 10
12.14
 20
93.906
 10
67.704
 20
93.906
 10
67.704
 20
91.786
 10
12.14
 20
91.786
  0
HATCH
  5
33
330
17
100
AcDbEntity
  8
RASTER
 62
7
100
AcDbHatch
 10
0.0
 20
0.0
 30
0.0
210
0.0
220
0.0
230
1.0
  2
SOLID
 70
1
 71
0
 91
1
 92
3
 72
0
 73
1
 93
4
 10
7.7
 20
95.896
 10
11.5
 20
95.896
 10
11.5
 20
89.796
 10
7.7
 20
89.796
 97
0
 75
0
 76
1
 98
0
  0
HATCH
  5
34
330
17
100
AcDbEntity
  8
RASTER
 62
7
100
AcDbHatch
 10
0.0
 20
0.0
 30
0.0
210
0.0
220
0.0
230
1.0
  2
SOLID
 70
1
 71
0
 91
1
 92
3
 72
0
 73
1
 93
4
 10
68.344
 20
95.896
 10
72.144
 20
95.896
 10
72.144
 20
89.796
 10
68.344
 20
89.796
 97
0
 75
0
 76
1
 98
0
  0
HATCH
  5
35
330
17
100
AcDbEntity
  8
RASTER
 62
7
100
AcDbHatch
 10
0.0
 20
0.0
 30
0.0
210
0.0
220
0.0
230
1.0
  2
SOLID
 70
1
 71
0
 91
1
 92
3
 72
0
 73
1
 93
48
 10
14.2
 20
95.546
 10
14.196
 20
95.481
 10
14.183
 20
95.417
 10
14.162
 20
95.355
 10
14.133
 20
95.296
 10
14.097
 20
95.242
 10
14.054
 20
95.192
 10
14.004
 20
95.149
 10
13.95
 20
95.113
 10
13.891
 20
95.084
 10
13.829
 20
95.063
 10
13.765
 20
95.05
 10
13.7
 20
95.046
 10
13.635
 20
95.05
 10
13.571
 20
95.063
 10
13.509
 20
95.084
 10
13.45
 20
95.113
 10
13.396
 20
95.149
 10
13.346
 20
95.192
 10
13.303
 20
95.242
 10
13.267
 20
95.296
 10
13.238
 20
95.355
 10
13.217
 20
95.417
 10
13.204
 20
95.481
 10
13.2
 20
95.546
 10
13.204
 20
95.611
 10
13.217
 20
95.675
 10
13.238
 20
95.737
 10
13.267
 20
95.796
 10
13.303
 20
95.85
 10
13.346
 20
95.9
 10
13.396
 20
95.943
 10
13.45
 20
95.979
 10
13.509
 20
96.008
 10
13.571
 20
96.029
 10
13.635
 20
96.042
 10
13.7
 20
96.046
 10
13.765
 20
96.042
 10
13.829
 20
96.029
 10
13.891
 20
96.008
 10
13.95
 20
95.979
 10
14.004
 20
95.943
 10
14.054
 20
95.9
 10
14.097
 20
95.85
 10
14.133
 20
95.796
 10
14.162
 20
95.737
 10
14.183
 20
95.675
 10
14.196
 20
95.611
 97
0
 75
0
 76
1
 98
0
  0
HATCH
  5
36
330
17
100
AcDbEntity
  8
RASTER
 62
7
100
AcDbHatch
 10
0.0
 20
0.0
 30
0.0
210
0.0
220
0.0
230
1.0
  2
SOLID
 70
1
 71
0
 91
1
 92
3
 72
0
 73
1
 93
48
 10
66.644
 20
95.546
 10
66.64
 20
95.481
 10
66.627
 20
95.417
 10
66.606
 20
95.355
 10
66.577
 20
95.296
 10
66.541
 20
95.242
 10
66.498
 20
95.192
 10
66.448
 20
95.149
 10
66.394
 20
95.113
 10
66.335
 20
95.084
 10
66.273
 20
95.063
 10
66.209
 20
95.05
 10
66.144
 20
95.046
 10
66.079
 20
95.05
 10
66.015
 20
95.063
 10
65.953
 20
95.084
 10
65.894
 20
95.113
 10
65.84
 20
95.149
 10
65.79
 20
95.192
 10
65.747
 20
95.242
 10
65.711
 20
95.296
 10
65.682
 20
95.355
 10
65.661
 20
95.417
 10
65.648
 20
95.481
 10
65.644
 20
95.546
 10
65.648
 20
95.611
 10
65.661
 20
95.675
 10
65.682
 20
95.737
 10
65.711
 20
95.796
 10
65.747
 20
95.85
 10
65.79
 20
95.9
 10
65.84
 20
95.943
 10
65.894
 20
95.979
 10
65.953
 20
96.008
 10
66.015
 20
96.029
 10
66.079
 20
96.042
 10
66.144
 20
96.046
 10
66.209
 20
96.042
 10
66.273
 20
96.029
 10
66.335
 20
96.008
 10
66.394
 20
95.979
 10
66.448
 20
95.943
 10
66.498
 20
95.9
 10
66.541
 20
95.85
 10
66.577
 20
95.796
 10
66.606
 20
95.737
 10
66.627
 20
95.675
 10
66.64
 20
95.611
 97
0
 75
0
 76
1
 98
0
  0
HATCH
  5
37
330
17
100
AcDbEntity
  8
RASTER
 62
7
100
AcDbHatch
 10
0.0
 20
0.0
 30
0.0
210
0.0
220
0.0
230
1.0
  2
SOLID
 70
1
 71
0
 91
1
 92
3
 72
0
 73
1
 93
48
 10
14.2
 20
90.146
 10
14.196
 20
90.081
 10
14.183
 20
90.017
 10
14.162
 20
89.955
 10
14.133
 20
89.896
 10
14.097
 20
89.842
 10
14.054
 20
89.792
 10
14.004
 20
89.749
 10
13.95
 20
89.713
 10
13.891
 20
89.684
 10
13.829
 20
89.663
 10
13.765
 20
89.65
 10
13.7
 20
89.646
 10
13.635
 20
89.65
 10
13.571
 20
89.663
 10
13.509
 20
89.684
 10
13.45
 20
89.713
 10
13.396
 20
89.749
 10
13.346
 20
89.792
 10
13.303
 20
89.842
 10
13.267
 20
89.896
 10
13.238
 20
89.955
 10
13.217
 20
90.017
 10
13.204
 20
90.081
 10
13.2
 20
90.146
 10
13.204
 20
90.211
 10
13.217
 20
90.275
 10
13.238
 20
90.337
 10
13.267
 20
90.396
 10
13.303
 20
90.45
 10
13.346
 20
90.5
 10
13.396
 20
90.543
 10
13.45
 20
90.579
 10
13.509
 20
90.608
 10
13.571
 20
90.629
 10
13.635
 20
90.642
 10
13.7
 20
90.646
 10
13.765
 20
90.642
 10
13.829
 20
90.629
 10
13.891
 20
90.608
 10
13.95
 20
90.579
 10
14.004
 20
90.543
 10
14.054
 20
90.5
 10
14.097
 20
90.45
 10
14.133
 20
90.396
 10
14.162
 20
90.337
 10
14.183
 20
90.275
 10
14.196
 20
90.211
 97
0
 75
0
 76
1
 98
0
  0
HATCH
  5
38
330
17
100
AcDbEntity
  8
RASTER
 62
7
100
AcDbHatch
 10
0.0
 20
0.0
 30
0.0
210
0.0
220
0.0
230
1.0
  2
SOLID
 70
1
 71
0
 91
1
 92
3
 72
0
 73
1
 93
48
 10
66.644
 20
90.146
 10
66.64
 20
90.081
 10
66.627
 20
90.017
 10
66.606
 20
89.955
 10
66.577
 20
89.896
 10
66.541
 20
89.842
 10
66.498
 20
89.792
 10
66.448
 20
89.749
 10
66.394
 20
89.713
 10
66.335
 20
89.684
 10
66.273
 20
89.663
 10
66.209
 20
89.65
 10
66.144
 20
89.646
 10
66.079
 20
89.65
 10
66.015
 20
89.663
 10
65.953
 20
89.684
 10
65.894
 20
89.713
 10
65.84
 20
89.749
 10
65.79
 20
89.792
 10
65.747
 20
89.842
 10
65.711
 20
89.896
 10
65.682
 20
89.955
 10
65.661
 20
90.017
 10
65.648
 20
90.081
 10
65.644
 20
90.146
 10
65.648
 20
90.211
 10
65.661
 20
90.275
 10
65.682
 20
90.337
 10
65.711
 20
90.396
 10
65.747
 20
90.45
 10
65.79
 20
90.5
 10
65.84
 20
90.543
 10
65.894
 20
90.579
 10
65.953
 20
90.608
 10
66.015
 20
90.629
 10
66.079
 20
90.642
 10
66.144
 20
90.646
 10
66.209
 20
90.642
 10
66.273
 20
90.629
 10
66.335
 20
90.608
 10
66.394
 20
90.579
 10
66.448
 20
90.543
 10
66.498
 20
90.5
 10
66.541
 20
90.45
 10
66.577
 20
90.396
 10
66.606
 20
90.337
 10
66.627
 20
90.275
 10
66.64
 20
90.211
 97
0
 75
0
 76
1
 98
0
  0
LWPOLYLINE
  5
39
330
17
100
AcDbEntity
  8
CUT
100
AcDbPolyline
 90
36
 70
1
 10
7.1
 20
82.336
 10
72.744
 20
82.336
 10
75.884
 20
82.336
 10
75.884
 20
79.956
 10
72.784
 20
79.956
 10
72.784
 20
77.736
 10
75.884
 20
77.736
 10
75.884
 20
75.356
 10
72.744
 20
75.356
 10
66.816
 20
75.356
 10
66.816
 20
72.256
 10
60.769
 20
72.256
 10
60.769
 20
75.356
 10
54.881
 20
75.356
 10
54.881
 20
72.256
 10
48.833
 20
72.256
 10
48.833
 20
75.356
 10
42.946
 20
75.356
 10
42.946
 20
72.256
 10
36.898
 20
72.256
 10
36.898
 20
75.356
 10
31.011
 20
75.356
 10
31.011
 20
72.256
 10
24.963
 20
72.256
 10
24.963
 20
75.356
 10
19.075
 20
75.356
 10
19.075
 20
72.256
 10
13.028
 20
72.256
 10
13.028
 20
75.356
 10
7.1
 20
75.356
 10
3.96
 20
75.356
 10
3.96
 20
77.736
 10
7.06
 20
77.736
 10
7.06
 20
79.956
 10
3.96
 20
79.956
 10
3.96
 20
82.336
  0
LWPOLYLINE
  5
3A
330
17
100
AcDbEntity
  8
CUT
100
AcDbPolyline
 90
4
 70
1
 10
12.14
 20
79.906
 10
67.704
 20
79.906
 10
67.704
 20
77.786
 10
12.14
 20
77.786
  0
HATCH
  5
3B
330
17
100
AcDbEntity
  8
RASTER
 62
7
100
AcDbHatch
 10
0.0
 20
0.0
 30
0.0
210
0.0
220
0.0
230
1.0
  2
SOLID
 70
1
 71
0
 91
1
 92
3
 72
0
 73
1
 93
4
 10
7.7
 20
81.896
 10
11.5
 20
81.896
 10
11.5
 20
75.796
 10
7.7
 20
75.796
 97
0
 75
0
 76
1
 98
0
  0
HATCH
  5
3C
330
17
100
AcDbEntity
  8
RASTER
 62
7
100
AcDbHatch
 10
0.0
 20
0.0
 30
0.0
210
0.0
220
0.0
230
1.0
  2
SOLID
 70
1
 71
0
 91
1
 92
3
 72
0
 73
1
 93
4
 10
68.344
 20
81.896
 10
72.144
 20
81.896
 10
72.144
 20
75.796
 10
68.344
 20
75.796
 97
0
 75
0
 76
1
 98
0
  0
HATCH
  5
3D
330
17
100
AcDbEntity
  8
RASTER
 62
7
100
AcDbHatch
 10
0.0
 20
0.0
 30
0.0
210
0.0
220
0.0
230
1.0
  2
SOLID
 70
1
 71
0
 91
1
 92
3
 72
0
 73
1
 93
48
 10
14.2
 20
81.546
 10
14.196
 20
81.481
 10
14.183
 20
81.417
 10
14.162
 20
81.355
 10
14.133
 20
81.296
 10
14.097
 20
81.242
 10
14.054
 20
81.192
 10
14.004
 20
81.149
 10
13.95
 20
81.113
 10
13.891
 20
81.084
 10
13.829
 20
81.063
 10
13.765
 20
81.05
 10
13.7
 20
81.046
 10
13.635
 20
81.05
 10
13.571
 20
81.063
 10
13.509
 20
81.084
 10
13.45
 20
81.113
 10
13.396
 20
81.149
 10
13.346
 20
81.192
 10
13.303
 20
81.242
 10
13.267
 20
81.296
 10
13.238
 20
81.355
 10
13.217
 20
81.417
 10
13.204
 20
81.481
 10
13.2
 20
81.546
 10
13.204
 20
81.611
 10
13.217
 20
81.675
 10
13.238
 20
81.737
 10
13.267
 20
81.796
 10
13.303
 20
81.85
 10
13.346
 20
81.9
 10
13.396
 20
81.943
 10
13.45
 20
81.979
 10
13.509
 20
82.008
 10
13.571
 20
82.029
 10
13.635
 20
82.042
 10
13.7
 20
82.046
 10
13.765
 20
82.042
 10
13.829
 20
82.029
 10
13.891
 20
82.008
 10
13.95
 20
81.979
 10
14.004
 20
81.943
 10
14.054
 20
81.9
 10
14.097
 20
81.85
 10
14.133
 20
81.796
 10
14.162
 20
81.737
 10
14.183
 20
81.675
 10
14.196
 20
81.611
 97
0
 75
0
 76
1
 98
0
  0
HATCH
  5
3E
330
17
100
AcDbEntity
  8
RASTER
 62
7
100
AcDbHatch
 10
0.0
 20
0.0
 30
0.0
210
0.0
220
0.0
230
1.0
  2
SOLID
 70
1
 71
0
 91
1
 92
3
 72
0
 73
1
 93
48
 10
66.644
 20
81.546
 10
66.64
 20
81.481
 10
66.627
 20
81.417
 10
66.606
 20
81.355
 10
66.577
 20
81.296
 10
66.541
 20
81.242
 10
66.498
 20
81.192
 10
66.448
 20
81.149
 10
66.394
 20
81.113
 10
66.335
 20
81.084
 10
66.273
 20
81.063
 10
66.209
 20
81.05
 10
66.144
 20
81.046
 10
66.079
 20
81.05
 10
66.015
 20
81.063
 10
65.953
 20
81.084
 10
65.894
 20
81.113
 10
65.84
 20
81.149
 10
65.79
 20
81.192
 10
65.747
 20
81.242
 10
65.711
 20
81.296
 10
65.682
 20
81.355
 10
65.661
 20
81.417
 10
65.648
 20
81.481
 10
65.644
 20
81.546
 10
65.648
 20
81.611
 10
65.661
 20
81.675
 10
65.682
 20
81.737
 10
65.711
 20
81.796
 10
65.747
 20
81.85
 10
65.79
 20
81.9
 10
65.84
 20
81.943
 10
65.894
 20
81.979
 10
65.953
 20
82.008
 10
66.015
 20
82.029
 10
66.079
 20
82.042
 10
66.144
 20
82.046
 10
66.209
 20
82.042
 10
66.273
 20
82.029
 10
66.335
 20
82.008
 10
66.394
 20
81.979
 10
66.448
 20
81.943
 10
66.498
 20
81.9
 10
66.541
 20
81.85
 10
66.577
 20
81.796
 10
66.606
 20
81.737
 10
66.627
 20
81.675
 10
66.64
 20
81.611
 97
0
 75
0
 76
1
 98
0
  0
HATCH
  5
3F
330
17
100
AcDbEntity
  8
RASTER
 62
7
100
AcDbHatch
 10
0.0
 20
0.0
 30
0.0
210
0.0
220
0.0
230
1.0
  2
SOLID
 70
1
 71
0
 91
1
 92
3
 72
0
 73
1
 93
48
 10
14.2
 20
76.146
 10
14.196
 20
76.081
 10
14.183
 20
76.017
 10
14.162
 20
75.955
 10
14.133
 20
75.896
 10
14.097
 20
75.842
 10
14.054
 20
75.792
 10
14.004
 20
75.749
 10
13.95
 20
75.713
 10
13.891
 20
75.684
 10
13.829
 20
75.663
 10
13.765
 20
75.65
 10
13.7
 20
75.646
 10
13.635
 20
75.65
 10
13.571
 20
75.663
 10
13.509
 20
75.684
 10
13.45
 20
75.713
 10
13.396
 20
75.749
 10
13.346
 20
75.792
 10
13.303
 20
75.842
 10
13.267
 20
75.896
 10
13.238
 20
75.955
 10
13.217
 20
76.017
 10
13.204
 20
76.081
 10
13.2
 20
76.146
 10
13.204
 20
76.211
 10
13.217
 20
76.275
 10
13.238
 20
76.337
 10
13.267
 20
76.396
 10
13.303
 20
76.45
 10
13.346
 20
76.5
 10
13.396
 20
76.543
 10
13.45
 20
76.579
 10
13.509
 20
76.608
 10
13.571
 20
76.629
 10
13.635
 20
76.642
 10
13.7
 20
76.646
 10
13.765
 20
76.642
 10
13.829
 20
76.629
 10
13.891
 20
76.608
 10
13.95
 20
76.579
 10
14.004
 20
76.543
 10
14.054
 20
76.5
 10
14.097
 20
76.45
 10
14.133
 20
76.396
 10
14.162
 20
76.337
 10
14.183
 20
76.275
 10
14.196
 20
76.211
 97
0
 75
0
 76
1
 98
0
  0
HATCH
  5
40
330
17
100
AcDbEntity
  8
RASTER
 62
7
100
AcDbHatch
 10
0.0
 20
0.0
 30
0.0
210
0.0
220
0.0
230
1.0
  2
SOLID
 70
1
 71
0
 91
1
 92
3
 72
0
 73
1
 93
48
 10
66.644
 20
76.146
 10
66.64
 20
76.081
 10
66.627
 20
76.017
 10
66.606
 20
75.955
 10
66.577
 20
75.896
 10
66.541
 20
75.842
 10
66.498
 20
75.792
 10
66.448
 20
75.749
 10
66.394
 20
75.713
 10
66.335
 20
75.684
 10
66.273
 20
75.663
 10
66.209
 20
75.65
 10
66.144
 20
75.646
 10
66.079
 20
75.65
 10
66.015
 20
75.663
 10
65.953
 20
75.684
 10
65.894
 20
75.713
 10
65.84
 20
75.749
 10
65.79
 20
75.792
 10
65.747
 20
75.842
 10
65.711
 20
75.896
 10
65.682
 20
75.955
 10
65.661
 20
76.017
 10
65.648
 20
76.081
 10
65.644
 20
76.146
 10
65.648
 20
76.211
 10
65.661
 20
76.275
 10
65.682
 20
76.337
 10
65.711
 20
76.396
 10
65.747
 20
76.45
 10
65.79
 20
76.5
 10
65.84
 20
76.543
 10
65.894
 20
76.579
 10
65.953
 20
76.608
 10
66.015
 20
76.629
 10
66.079
 20
76.642
 10
66.144
 20
76.646
 10
66.209
 20
76.642
 10
66.273
 20
76.629
 10
66.335
 20
76.608
 10
66.394
 20
76.579
 10
66.448
 20
76.543
 10
66.498
 20
76.5
 10
66.541
 20
76.45
 10
66.577
 20
76.396
 10
66.606
 20
76.337
 10
66.627
 20
76.275
 10
66.64
 20
76.211
 97
0
 75
0
 76
1
 98
0
  0
LWPOLYLINE
  5
41
330
17
100
AcDbEntity
  8
CUT
100
AcDbPolyline
 90
24
 70
1
 10
7.06
 20
68.336
 10
51.236
 20
68.336
 10
51.236
 20
66.036
 10
54.336
 20
66.036
 10
54.336
 20
63.656
 10
51.236
 20
63.656
 10
51.236
 20
61.356
 10
44.937
 20
61.356
 10
44.937
 20
58.256
 10
38.557
 20
58.256
 10
38.557
 20
61.356
 10
32.338
 20
61.356
 10
32.338
 20
58.256
 10
25.958
 20
58.256
 10
25.958
 20
61.356
 10
19.739
 20
61.356
 10
19.739
 20
58.256
 10
13.359
 20
58.256
 10
13.359
 20
61.356
 10
7.06
 20
61.356
 10
7.06
 20
63.656
 10
3.96
 20
63.656
 10
3.96
 20
66.036
 10
7.06
 20
66.036
  0
LWPOLYLINE
  5
42
330
17
100
AcDbEntity
  8
CUT
100
AcDbPolyline
 90
4
 70
1
 10
12.14
 20
65.906
 10
46.156
 20
65.906
 10
46.156
 20
63.786
 10
12.14
 20
63.786
  0
HATCH
  5
43
330
17
100
AcDbEntity
  8
RASTER
 62
7
100
AcDbHatch
 10
0.0
 20
0.0
 30
0.0
210
0.0
220
0.0
230
1.0
  2
SOLID
 70
1
 71
0
 91
1
 92
3
 72
0
 73
1
 93
4
 10
7.7
 20
67.896
 10
11.5
 20
67.896
 10
11.5
 20
61.796
 10
7.7
 20
61.796
 97
0
 75
0
 76
1
 98
0
  0
HATCH
  5
44
330
17
100
AcDbEntity
  8
RASTER
 62
7
100
AcDbHatch
 10
0.0
 20
0.0
 30
0.0
210
0.0
220
0.0
230
1.0
  2
SOLID
 70
1
 71
0
 91
1
 92
3
 72
0
 73
1
 93
4
 10
46.796
 20
67.896
 10
50.596
 20
67.896
 10
50.596
 20
61.796
 10
46.796
 20
61.796
 97
0
 75
0
 76
1
 98
0
  0
HATCH
  5
45
330
17
100
AcDbEntity
  8
RASTER
 62
7
100
AcDbHatch
 10
0.0
 20
0.0
 30
0.0
210
0.0
220
0.0
230
1.0
  2
SOLID
 70
1
 71
0
 91
1
 92
3
 72
0
 73
1
 93
48
 10
14.2
 20
67.546
 10
14.196
 20
67.481
 10
14.183
 20
67.417
 10
14.162
 20
67.355
 10
14.133
 20
67.296
 10
14.097
 20
67.242
 10
14.054
 20
67.192
 10
14.004
 20
67.149
 10
13.95
 20
67.113
 10
13.891
 20
67.084
 10
13.829
 20
67.063
 10
13.765
 20
67.05
 10
13.7
 20
67.046
 10
13.635
 20
67.05
 10
13.571
 20
67.063
 10
13.509
 20
67.084
 10
13.45
 20
67.113
 10
13.396
 20
67.149
 10
13.346
 20
67.192
 10
13.303
 20
67.242
 10
13.267
 20
67.296
 10
13.238
 20
67.355
 10
13.217
 20
67.417
 10
13.204
 20
67.481
 10
13.2
 20
67.546
 10
13.204
 20
67.611
 10
13.217
 20
67.675
 10
13.238
 20
67.737
 10
13.267
 20
67.796
 10
13.303
 20
67.85
 10
13.346
 20
67.9
 10
13.396
 20
67.943
 10
13.45
 20
67.979
 10
13.509
 20
68.008
 10
13.571
 20
68.029
 10
13.635
 20
68.042
 10
13.7
 20
68.046
 10
13.765
 20
68.042
 10
13.829
 20
68.029
 10
13.891
 20
68.008
 10
13.95
 20
67.979
 10
14.004
 20
67.943
 10
14.054
 20
67.9
 10
14.097
 20
67.85
 10
14.133
 20
67.796
 10
14.162
 20
67.737
 10
14.183
 20
67.675
 10
14.196
 20
67.611
 97
0
 75
0
 76
1
 98
0
  0
HATCH
  5
46
330
17
100
AcDbEntity
  8
RASTER
 62
7
100
AcDbHatch
 10
0.0
 20
0.0
 30
0.0
210
0.0
220
0.0
230
1.0
  2
SOLID
 70
1
 71
0
 91
1
 92
3
 72
0
 73
1
 93
48
 10
45.096
 20
67.546
 10
45.092
 20
67.481
 10
45.079
 20
67.417
 10
45.058
 20
67.355
 10
45.029
 20
67.296
 10
44.993
 20
67.242
 10
44.95
 20
67.192
 10
44.9
 20
67.149
 10
44.846
 20
67.113
 10
44.787
 20
67.084
 10
44.725
 20
67.063
 10
44.661
 20
67.05
 10
44.596
 20
67.046
 10
44.531
 20
67.05
 10
44.467
 20
67.063
 10
44.405
 20
67.084
 10
44.346
 20
67.113
 10
44.292
 20
67.149
 10
44.242
 20
67.192
 10
44.199
 20
67.242
 10
44.163
 20
67.296
 10
44.134
 20
67.355
 10
44.113
 20
67.417
 10
44.1
 20
67.481
 10
44.096
 20
67.546
 10
44.1
 20
67.611
 10
44.113
 20
67.675
 10
44.134
 20
67.737
 10
44.163
 20
67.796
 10
44.199
 20
67.85
 10
44.242
 20
67.9
 10
44.292
 20
67.943
 10
44.346
 20
67.979
 10
44.405
 20
68.008
 10
44.467
 20
68.029
 10
44.531
 20
68.042
 10
44.596
 20
68.046
 10
44.661
 20
68.042
 10
44.725
 20
68.029
 10
44.787
 20
68.008
 10
44.846
 20
67.979
 10
44.9
 20
67.943
 10
44.95
 20
67.9
 10
44.993
 20
67.85
 10
45.029
 20
67.796
 10
45.058
 20
67.737
 10
45.079
 20
67.675
 10
45.092
 20
67.611
 97
0
 75
0
 76
1
 98
0
  0
HATCH
  5
47
330
17
100
AcDbEntity
  8
RASTER
 62
7
100
AcDbHatch
 10
0.0
 20
0.0
 30
0.0
210
0.0
220
0.0
230
1.0
  2
SOLID
 70
1
 71
0
 91
1
 92
3
 72
0
 73
1
 93
48
 10
14.2
 20
62.146
 10
14.196
 20
62.081
 10
14.183
 20
62.017
 10
14.162
 20
61.955
 10
14.133
 20
61.896
 10
14.097
 20
61.842
 10
14.054
 20
61.792
 10
14.004
 20
61.749
 10
13.95
 20
61.713
 10
13.891
 20
61.684
 10
13.829
 20
61.663
 10
13.765
 20
61.65
 10
13.7
 20
61.646
 10
13.635
 20
61.65
 10
13.571
 20
61.663
 10
13.509
 20
61.684
 10
13.45
 20
61.713
 10
13.396
 20
61.749
 10
13.346
 20
61.792
 10
13.303
 20
61.842
 10
13.267
 20
61.896
 10
13.238
 20
61.955
 10
13.217
 20
62.017
 10
13.204
 20
62.081
 10
13.2
 20
62.146
 10
13.204
 20
62.211
 10
13.217
 20
62.275
 10
13.238
 20
62.337
 10
13.267
 20
62.396
 10
13.303
 20
62.45
 10
13.346
 20
62.5
 10
13.396
 20
62.543
 10
13.45
 20
62.579
 10
13.509
 20
62.608
 10
13.571
 20
62.629
 10
13.635
 20
62.642
 10
13.7
 20
62.646
 10
13.765
 20
62.642
 10
13.829
 20
62.629
 10
13.891
 20
62.608
 10
13.95
 20
62.579
 10
14.004
 20
62.543
 10
14.054
 20
62.5
 10
14.097
 20
62.45
 10
14.133
 20
62.396
 10
14.162
 20
62.337
 10
14.183
 20
62.275
 10
14.196
 20
62.211
 97
0
 75
0
 76
1
 98
0
  0
HATCH
  5
48
330
17
100
AcDbEntity
  8
RASTER
 62
7
100
AcDbHatch
 10
0.0
 20
0.0
 30
0.0
210
0.0
220
0.0
230
1.0
  2
SOLID
 70
1
 71
0
 91
1
 92
3
 72
0
 73
1
 93
48
 10
45.096
 20
62.146
 10
45.092
 20
62.081
 10
45.079
 20
62.017
 10
45.058
 20
61.955
 10
45.029
 20
61.896
 10
44.993
 20
61.842
 10
44.95
 20
61.792
 10
44.9
 20
61.749
 10
44.846
 20
61.713
 10
44.787
 20
61.684
 10
44.725
 20
61.663
 10
44.661
 20
61.65
 10
44.596
 20
61.646
 10
44.531
 20
61.65
 10
44.467
 20
61.663
 10
44.405
 20
61.684
 10
44.346
 20
61.713
 10
44.292
 20
61.749
 10
44.242
 20
61.792
 10
44.199
 20
61.842
 10
44.163
 20
61.896
 10
44.134
 20
61.955
 10
44.113
 20
62.017
 10
44.1
 20
62.081
 10
44.096
 20
62.146
 10
44.1
 20
62.211
 10
44.113
 20
62.275
 10
44.134
 20
62.337
 10
44.163
 20
62.396
 10
44.199
 20
62.45
 10
44.242
 20
62.5
 10
44.292
 20
62.543
 10
44.346
 20
62.579
 10
44.405
 20
62.608
 10
44.467
 20
62.629
 10
44.531
 20
62.642
 10
44.596
 20
62.646
 10
44.661
 20
62.642
 10
44.725
 20
62.629
 10
44.787
 20
62.608
 10
44.846
 20
62.579
 10
44.9
 20
62.543
 10
44.95
 20
62.5
 10
44.993
 20
62.45
 10
45.029
 20
62.396
 10
45.058
 20
62.337
 10
45.079
 20
62.275
 10
45.092
 20
62.211
 97
0
 75
0
 76
1
 98
0
  0
LWPOLYLINE
  5
49
330
17
100
AcDbEntity
  8
CUT
100
AcDbPolyline
 90
24
 70
1
 10
61.356
 20
68.336
 10
105.532
 20
68.336
 10
105.532
 20
66.036
 10
108.632
 20
66.036
 10
108.632
 20
63.656
 10
105.532
 20
63.656
 10
105.532
 20
61.356
 10
99.233
 20
61.356
 10
99.233
 20
58.256
 10
92.853
 20
58.256
 10
92.853
 20
61.356
 10
86.634
 20
61.356
 10
86.634
 20
58.256
 10
80.254
 20
58.256
 10
80.254
 20
61.356
 10
74.035
 20
61.356
 10
74.035
 20
58.256
 10
67.655
 20
58.256
 10
67.655
 20
61.356
 10
61.356
 20
61.356
 10
61.356
 20
63.656
 10
58.256
 20
63.656
 10
58.256
 20
66.036
 10
61.356
 20
66.036
  0
LWPOLYLINE
  5
4A
330
17
100
AcDbEntity
  8
CUT
100
AcDbPolyline
 90
4
 70
1
 10
66.436
 20
65.906
 10
100.452
 20
65.906
 10
100.452
 20
63.786
 10
66.436
 20
63.786
  0
HATCH
  5
4B
330
17
100
AcDbEntity
  8
RASTER
 62
7
100
AcDbHatch
 10
0.0
 20
0.0
 30
0.0
210
0.0
220
0.0
230
1.0
  2
SOLID
 70
1
 71
0
 91
1
 92
3
 72
0
 73
1
 93
4
 10
61.996
 20
67.896
 10
65.796
 20
67.896
 10
65.796
 20
61.796
 10
61.996
 20
61.796
 97
0
 75
0
 76
1
 98
0
  0
HATCH
  5
4C
330
17
100
AcDbEntity
  8
RASTER
 62
7
100
AcDbHatch
 10
0.0
 20
0.0
 30
0.0
210
0.0
220
0.0
230
1.0
  2
SOLID
 70
1
 71
0
 91
1
 92
3
 72
0
 73
1
 93
4
 10
101.092
 20
67.896
 10
104.892
 20
67.896
 10
104.892
 20
61.796
 10
101.092
 20
61.796
 97
0
 75
0
 76
1
 98
0
  0
HATCH
  5
4D
330
17
100
AcDbEntity
  8
RASTER
 62
7
100
AcDbHatch
 10
0.0
 20
0.0
 30
0.0
210
0.0
220
0.0
230
1.0
  2
SOLID
 70
1
 71
0
 91
1
 92
3
 72
0
 73
1
 93
48
 10
68.496
 20
67.546
 10
68.492
 20
67.481
 10
68.479
 20
67.417
 10
68.458
 20
67.355
 10
68.429
 20
67.296
 10
68.393
 20
67.242
 10
68.35
 20
67.192
 10
68.3
 20
67.149
 10
68.246
 20
67.113
 10
68.187
 20
67.084
 10
68.125
 20
67.063
 10
68.061
 20
67.05
 10
67.996
 20
67.046
 10
67.931
 20
67.05
 10
67.867
 20
67.063
 10
67.805
 20
67.084
 10
67.746
 20
67.113
 10
67.692
 20
67.149
 10
67.642
 20
67.192
 10
67.599
 20
67.242
 10
67.563
 20
67.296
 10
67.534
 20
67.355
 10
67.513
 20
67.417
 10
67.5
 20
67.481
 10
67.496
 20
67.546
 10
67.5
 20
67.611
 10
67.513
 20
67.675
 10
67.534
 20
67.737
 10
67.563
 20
67.796
 10
67.599
 20
67.85
 10
67.642
 20
67.9
 10
67.692
 20
67.943
 10
67.746
 20
67.979
 10
67.805
 20
68.008
 10
67.867
 20
68.029
 10
67.931
 20
68.042
 10
67.996
 20
68.046
 10
68.061
 20
68.042
 10
68.125
 20
68.029
 10
68.187
 20
68.008
 10
68.246
 20
67.979
 10
68.3
 20
67.943
 10
68.35
 20
67.9
 10
68.393
 20
67.85
 10
68.429
 20
67.796
 10
68.458
 20
67.737
 10
68.479
 20
67.675
 10
68.492
 20
67.611
 97
0
 75
0
 76
1
 98
0
  0
HATCH
  5
4E
330
17
100
AcDbEntity
  8
RASTER
 62
7
100
AcDbHatch
 10
0.0
 20
0.0
 30
0.0
210
0.0
220
0.0
230
1.0
  2
SOLID
 70
1
 71
0
 91
1
 92
3
 72
0
 73
1
 93
48
 10
99.392
 20
67.546
 10
99.388
 20
67.481
 10
99.375
 20
67.417
 10
99.354
 20
67.355
 10
99.325
 20
67.296
 10
99.289
 20
67.242
 10
99.246
 20
67.192
 10
99.196
 20
67.149
 10
99.142
 20
67.113
 10
99.083
 20
67.084
 10
99.021
 20
67.063
 10
98.957
 20
67.05
 10
98.892
 20
67.046
 10
98.827
 20
67.05
 10
98.763
 20
67.063
 10
98.701
 20
67.084
 10
98.642
 20
67.113
 10
98.588
 20
67.149
 10
98.538
 20
67.192
 10
98.495
 20
67.242
 10
98.459
 20
67.296
 10
98.43
 20
67.355
 10
98.409
 20
67.417
 10
98.396
 20
67.481
 10
98.392
 20
67.546
 10
98.396
 20
67.611
 10
98.409
 20
67.675
 10
98.43
 20
67.737
 10
98.459
 20
67.796
 10
98.495
 20
67.85
 10
98.538
 20
67.9
 10
98.588
 20
67.943
 10
98.642
 20
67.979
 10
98.701
 20
68.008
 10
98.763
 20
68.029
 10
98.827
 20
68.042
 10
98.892
 20
68.046
 10
98.957
 20
68.042
 10
99.021
 20
68.029
 10
99.083
 20
68.008
 10
99.142
 20
67.979
 10
99.196
 20
67.943
 10
99.246
 20
67.9
 10
99.289
 20
67.85
 10
99.325
 20
67.796
 10
99.354
 20
67.737
 10
99.375
 20
67.675
 10
99.388
 20
67.611
 97
0
 75
0
 76
1
 98
0
  0
HATCH
  5
4F
330
17
100
AcDbEntity
  8
RASTER
 62
7
100
AcDbHatch
 10
0.0
 20
0.0
 30
0.0
210
0.0
220
0.0
230
1.0
  2
SOLID
 70
1
 71
0
 91
1
 92
3
 72
0
 73
1
 93
48
 10
68.496
 20
62.146
 10
68.492
 20
62.081
 10
68.479
 20
62.017
 10
68.458
 20
61.955
 10
68.429
 20
61.896
 10
68.393
 20
61.842
 10
68.35
 20
61.792
 10
68.3
 20
61.749
 10
68.246
 20
61.713
 10
68.187
 20
61.684
 10
68.125
 20
61.663
 10
68.061
 20
61.65
 10
67.996
 20
61.646
 10
67.931
 20
61.65
 10
67.867
 20
61.663
 10
67.805
 20
61.684
 10
67.746
 20
61.713
 10
67.692
 20
61.749
 10
67.642
 20
61.792
 10
67.599
 20
61.842
 10
67.563
 20
61.896
 10
67.534
 20
61.955
 10
67.513
 20
62.017
 10
67.5
 20
62.081
 10
67.496
 20
62.146
 10
67.5
 20
62.211
 10
67.513
 20
62.275
 10
67.534
 20
62.337
 10
67.563
 20
62.396
 10
67.599
 20
62.45
 10
67.642
 20
62.5
 10
67.692
 20
62.543
 10
67.746
 20
62.579
 10
67.805
 20
62.608
 10
67.867
 20
62.629
 10
67.931
 20
62.642
 10
67.996
 20
62.646
 10
68.061
 20
62.642
 10
68.125
 20
62.629
 10
68.187
 20
62.608
 10
68.246
 20
62.579
 10
68.3
 20
62.543
 10
68.35
 20
62.5
 10
68.393
 20
62.45
 10
68.429
 20
62.396
 10
68.458
 20
62.337
 10
68.479
 20
62.275
 10
68.492
 20
62.211
 97
0
 75
0
 76
1
 98
0
  0
HATCH
  5
50
330
17
100
AcDbEntity
  8
RASTER
 62
7
100
AcDbHatch
 10
0.0
 20
0.0
 30
0.0
210
0.0
220
0.0
230
1.0
  2
SOLID
 70
1
 71
0
 91
1
 92
3
 72
0
 73
1
 93
48
 10
99.392
 20
62.146
 10
99.388
 20
62.081
 10
99.375
 20
62.017
 10
99.354
 20
61.955
 10
99.325
 20
61.896
 10
99.289
 20
61.842
 10
99.246
 20
61.792
 10
99.196
 20
61.749
 10
99.142
 20
61.713
 10
99.083
 20
61.684
 10
99.021
 20
61.663
 10
98.957
 20
61.65
 10
98.892
 20
61.646
 10
98.827
 20
61.65
 10
98.763
 20
61.663
 10
98.701
 20
61.684
 10
98.642
 20
61.713
 10
98.588
 20
61.749
 10
98.538
 20
61.792
 10
98.495
 20
61.842
 10
98.459
 20
61.896
 10
98.43
 20
61.955
 10
98.409
 20
62.017
 10
98.396
 20
62.081
 10
98.392
 20
62.146
 10
98.396
 20
62.211
 10
98.409
 20
62.275
 10
98.43
 20
62.337
 10
98.459
 20
62.396
 10
98.495
 20
62.45
 10
98.538
 20
62.5
 10
98.588
 20
62.543
 10
98.642
 20
62.579
 10
98.701
 20
62.608
 10
98.763
 20
62.629
 10
98.827
 20
62.642
 10
98.892
 20
62.646
 10
98.957
 20
62.642
 10
99.021
 20
62.629
 10
99.083
 20
62.608
 10
99.142
 20
62.579
 10
99.196
 20
62.543
 10
99.246
 20
62.5
 10
99.289
 20
62.45
 10
99.325
 20
62.396
 10
99.354
 20
62.337
 10
99.375
 20
62.275
 10
99.388
 20
62.211
 97
0
 75
0
 76
1
 98
0
  0
LWPOLYLINE
  5
51
330
17
100
AcDbEntity
  8
CUT
100
AcDbPolyline
 90
76
 70
1
 10
3.96
 20
54.336
 10
7.1
 20
54.336
 10
13.108
 20
54.336
 10
13.108
 20
51.236
 10
18.995
 20
51.236
 10
18.995
 20
54.336
 10
25.043
 20
54.336
 10
25.043
 20
51.236
 10
30.931
 20
51.236
 10
30.931
 20
54.336
 10
36.978
 20
54.336
 10
36.978
 20
51.236
 10
42.866
 20
51.236
 10
42.866
 20
54.336
 10
48.913
 20
54.336
 10
48.913
 20
51.236
 10
54.801
 20
51.236
 10
54.801
 20
54.336
 10
60.849
 20
54.336
 10
60.849
 20
51.236
 10
66.736
 20
51.236
 10
66.736
 20
54.336
 10
72.744
 20
54.336
 10
75.884
 20
54.336
 10
75.884
 20
51.196
 10
75.884
 20
44.857
 10
72.784
 20
44.857
 10
72.784
 20
38.637
 10
75.884
 20
38.637
 10
75.884
 20
32.258
 10
72.784
 20
32.258
 10
72.784
 20
26.038
 10
75.884
 20
26.038
 10
75.884
 20
19.659
 10
72.784
 20
19.659
 10
72.784
 20
13.439
 10
75.884
 20
13.439
 10
75.884
 20
7.1
 10
75.884
 20
3.96
 10
72.744
 20
3.96
 10
66.736
 20
3.96
 10
66.736
 20
7.06
 10
60.849
 20
7.06
 10
60.849
 20
3.96
 10
54.801
 20
3.96
 10
54.801
 20
7.06
 10
48.913
 20
7.06
 10
48.913
 20
3.96
 10
42.866
 20
3.96
 10
42.866
 20
7.06
 10
36.978
 20
7.06
 10
36.978
 20
3.96
 10
30.931
 20
3.96
 10
30.931
 20
7.06
 10
25.043
 20
7.06
 10
25.043
 20
3.96
 10
18.995
 20
3.96
 10
18.995
 20
7.06
 10
13.108
 20
7.06
 10
13.108
 20
3.96
 10
7.1
 20
3.96
 10
3.96
 20
3.96
 10
3.96
 20
7.1
 10
3.96
 20
13.439
 10
7.06
 20
13.439
 10
7.06
 20
19.659
 10
3.96
 20
19.659
 10
3.96
 20
26.038
 10
7.06
 20
26.038
 10
7.06
 20
32.258
 10
3.96
 20
32.258
 10
3.96
 20
38.637
 10
7.06
 20
38.637
 10
7.06
 20
44.857
 10
3.96
 20
44.857
 10
3.96
 20
51.196
  0
ENDSEC
  0
SECTION
  2
OBJECTS
  0
DICTIONARY
  5
A
330
0
100
AcDbDictionary
281
1
  3
ACAD_COLOR
350
B
  3
ACAD_GROUP
350
C
  3
ACAD_LAYOUT
350
D
  3
ACAD_MATERIAL
350
E
  3
ACAD_MLEADERSTYLE
350
F
  3
ACAD_MLINESTYLE
350
10
  3
ACAD_PLOTSETTINGS
350
11
  3
ACAD_PLOTSTYLENAME
350
12
  3
ACAD_SCALELIST
350
14
  3
ACAD_TABLESTYLE
350
15
  3
ACAD_VISUALSTYLE
350
16
  3
EZDXF_META
350
2D
  0
DICTIONARY
  5
B
330
A
100
AcDbDictionary
281
1
  0
DICTIONARY
  5
C
330
A
100
AcDbDictionary
281
1
  0
DICTIONARY
  5
D
330
A
100
AcDbDictionary
281
1
  3
Model
350
1A
  3
Layout1
350
1E
  0
DICTIONARY
  5
E
330
A
100
AcDbDictionary
281
1
  3
ByBlock
350
1F
  3
ByLayer
350
20
  3
Global
350
21
  0
DICTIONARY
  5
F
330
A
100
AcDbDictionary
281
1
  3
Standard
350
2C
  0
DICTIONARY
  5
10
330
A
100
AcDbDictionary
281
1
  3
Standard
350
22
  0
DICTIONARY
  5
11
330
A
100
AcDbDictionary
281
1
  0
ACDBDICTIONARYWDFLT
  5
12
330
A
100
AcDbDictionary
281
1
  3
Normal
350
13
100
AcDbDictionaryWithDefault
340
13
  0
ACDBPLACEHOLDER
  5
13
330
12
  0
DICTIONARY
  5
14
330
A
100
AcDbDictionary
281
1
  0
DICTIONARY
  5
15
330
A
100
AcDbDictionary
281
1
  0
DICTIONARY
  5
16
330
A
100
AcDbDictionary
281
1
  0
LAYOUT
  5
1A
330
D
100
AcDbPlotSettings
  1

  4
A3
  6

 40
7.5
 41
20.0
 42
7.5
 43
20.0
 44
420.0
 45
297.0
 46
0.0
 47
0.0
 48
0.0
 49
0.0
140
0.0
141
0.0
142
1.0
143
1.0
 70
1024
 72
1
 73
0
 74
5
  7

 75
16
 76
0
 77
2
 78
300
147
1.0
148
0.0
149
0.0
100
AcDbLayout
  1
Model
 70
1
 71
0
 10
0.0
 20
0.0
 11
420.0
 21
297.0
 12
0.0
 22
0.0
 32
0.0
 14
1e+20
 24
1e+20
 34
1e+20
 15
-1e+20
 25
-1e+20
 35
-1e+20
146
0.0
 13
0.0
 23
0.0
 33
0.0
 16
1.0
 26
0.0
 36
0.0
 17
0.0
 27
1.0
 37
0.0
 76
1
330
17
  0
LAYOUT
  5
1E
330
D
100
AcDbPlotSettings
  1

  4
A3
  6

 40
7.5
 41
20.0
 42
7.5
 43
20.0
 44
420.0
 45
297.0
 46
0.0
 47
0.0
 48
0.0
 49
0.0
140
0.0
141
0.0
142
1.0
143
1.0
 70
0
 72
1
 73
0
 74
5
  7

 75
16
 76
0
 77
2
 78
300
147
1.0
148
0.0
149
0.0
100
AcDbLayout
  1
Layout1
 70
1
 71
1
 10
0.0
 20
0.0
 11
420.0
 21
297.0
 12
0.0
 22
0.0
 32
0.0
 14
1e+20
 24
1e+20
 34
1e+20
 15
-1e+20
 25
-1e+20
 35
-1e+20
146
0.0
 13
0.0
 23
0.0
 33
0.0
 16
1.0
 26
0.0
 36
0.0
 17
0.0
 27
1.0
 37
0.0
 76
1
330
1B
  0
MATERIAL
  5
1F
102
{ACAD_REACTORS
330
E
102
}
330
E
100
AcDbMaterial
  1
ByBlock
  2

 70
0
 40
1.0
 71
1
 41
1.0
 91
-1023410177
 42
1.0
 72
1
  3

 73
1
 74
1
 75
1
 44
0.5
 73
0
 45
1.0
 46
1.0
 77
1
  4

 78
1
 79
1
170
1
 48
1.0
171
1
  6

172
1
173
1
174
1
140
1.0
141
1.0
175
1
  7

176
1
177
1
178
1
143
1.0
179
1
  8

270
1
271
1
272
1
145
1.0
146
1.0
273
1
  9

274
1
275
1
276
1
 42
1.0
 72
1
  3

 73
1
 74
1
 75
1
 94
63
  0
MATERIAL
  5
20
102
{ACAD_REACTORS
330
E
102
}
330
E
100
AcDbMaterial
  1
ByLayer
  2

 70
0
 40
1.0
 71
1
 41
1.0
 91
-1023410177
 42
1.0
 72
1
  3

 73
1
 74
1
 75
1
 44
0.5
 73
0
 45
1.0
 46
1.0
 77
1
  4

 78
1
 79
1
170
1
 48
1.0
171
1
  6

172
1
173
1
174
1
140
1.0
141
1.0
175
1
  7

176
1
177
1
178
1
143
1.0
179
1
  8

270
1
271
1
272
1
145
1.0
146
1.0
273
1
  9

274
1
275
1
276
1
 42
1.0
 72
1
  3

 73
1
 74
1
 75
1
 94
63
  0
MATERIAL
  5
21
102
{ACAD_REACTORS
330
E
102
}
330
E
100
AcDbMaterial
  1
Global
  2

 70
0
 40
1.0
 71
1
 41
1.0
 91
-1023410177
 42
1.0
 72
1
  3

 73
1
 74
1
 75
1
 44
0.5
 73
0
 45
1.0
 46
1.0
 77
1
  4

 78
1
 79
1
170
1
 48
1.0
171
1
  6

172
1
173
1
174
1
140
1.0
141
1.0
175
1
  7

176
1
177
1
178
1
143
1.0
179
1
  8

270
1
271
1
272
1
145
1.0
146
1.0
273
1
  9

274
1
275
1
276
1
 42
1.0
 72
1
  3

 73
1
 74
1
 75
1
 94
63
  0
MLINESTYLE
  5
22
102
{ACAD_REACTORS
330
10
102
}
330
10
100
AcDbMlineStyle
  2
Standard
 70
0
  3

 62
256
 51
90.0
 52
90.0
 71
2
 49
0.5
 62
256
  6
BYLAYER
 49
-0.5
 62
256
  6
BYLAYER
  0
MLEADERSTYLE
  5
2C
102
{ACAD_REACTORS
330
F
102
}
330
F
100
AcDbMLeaderStyle
179
2
170
2
171
1
172
0
 90
2
 40
0.0
 41
0.0
173
1
 91
-1056964608
 92
-2
290
1
 42
2.0
291
1
 43
8.0
  3
Standard
 44
4.0
300

342
29
174
1
175
1
176
0
178
1
 93
-1056964608
 45
4.0
292
0
297
0
 46
4.0
 94
-1056964608
 47
1.0
 49
1.0
140
1.0
294
1
141
0.0
177
0
142
1.0
295
0
296
0
143
3.75
271
0
272
9
273
9
  0
DICTIONARY
  5
2D
330
A
100
AcDbDictionary
280
1
281
1
  3
CREATED_BY_EZDXF
350
2E
  3
WRITTEN_BY_EZDXF
350
54
  0
DICTIONARYVAR
  5
2E
330
2D
100
DictionaryVariables
280
0
  1
1.4.2 @ 2026-09-12T03:24:34.850087+00:00
  0
DICTIONARYVAR
  5
54
330
2D
100
DictionaryVariables
280
0
  1
1.4.2 @ 2026-09-12T03:24:34.852251+00:00
  0
ENDSEC
  0
EOF
