  0
SECTION
  2
HEADER
  9
$ACADVER
  1
AC1015
  9
$ACADMAINTVER
 70
6
  9
$DWGCODEPAGE
  3
ANSI_1252
  9
$INSBASE
 10
0.0
 20
0.0
 30
0.0
  9
$EXTMIN
 10
1e+20
 20
1e+20
 30
1e+20
  9
$EXTMAX
 10
-1e+20
 20
-1e+20
 30
-1e+20
  9
$LIMMIN
 10
0.0
 20
0.0
  9
$LIMMAX
 10
420.0
 20
297.0
  9
$ORTHOMODE
 70
0
  9
$REGENMODE
 70
1
  9
$FILLMODE
 70
1
  9
$QTEXTMODE
 70
0
  9
$MIRRTEXT
 70
1
  9
$LTSCALE
 40
1.0
  9
$ATTMODE
 70
1
  9
$TEXTSIZE
 40
2.5
  9
$TRACEWID
 40
1.0
  9
$TEXTSTYLE
  7
Standard
  9
$CLAYER
  8
0
  9
$CELTYPE
  6
ByLayer
  9
$CECOLOR
 62
256
  9
$CELTSCALE
 40
1.0
  9
$DISPSILH
 70
0
  9
$DIMSCALE
 40
1.0
  9
$DIMASZ
 40
2.5
  9
$DIMEXO
 40
0.625
  9
$DIMDLI
 40
3.75
  9
$DIMRND
 40
0.0
  9
$DIMDLE
 40
0.0
  9
$DIMEXE
 40
1.25
  9
$DIMTP
 40
0.0
  9
$DIMTM
 40
0.0
  9
$DIMTXT
 40
2.5
  9
$DIMCEN
 40
2.5
  9
$DIMTSZ
 40
0.0
  9
$DIMTOL
 70
0
  9
$DIMLIM
 70
0
  9
$DIMTIH
 70
0
  9
$DIMTOH
 70
0
  9
$DIMSE1
 70
0
  9
$DIMSE2
 70
0
  9
$DIMTAD
 70
1
  9
$DIMZIN
 70
8
  9
$DIMBLK
  1

  9
$DIMASO
 70
1
  9
$DIMSHO
 70
1
  9
$DIMPOST
  1

  9
$DIMAPOST
  1

  9
$DIMALT
 70
0
  9
$DIMALTD
 70
3
  9
$DIMALTF
 40
0.03937007874
  9
$DIMLFAC
 40
1.0
  9
$DIMTOFL
 70
1
  9
$DIMTVP
 40
0.0
  9
$DIMTIX
 70
0
  9
$DIMSOXD
 70
0
  9
$DIMSAH
 70
0
  9
$DIMBLK1
  1

  9
$DIMBLK2
  1

  9
$DIMSTYLE
  2
ISO-25
  9
$DIMCLRD
 70
0
  9
$DIMCLRE
 70
0
  9
$DIMCLRT
 70
0
  9
$DIMTFAC
 40
1.0
  9
$DIMGAP
 40
0.625
  9
$DIMJUST
 70
0
  9
$DIMSD1
 70
0
  9
$DIMSD2
 70
0
  9
$DIMTOLJ
 70
0
  9
$DIMTZIN
 70
8
  9
$DIMALTZ
 70
0
  9
$DIMALTTZ
 70
0
  9
$DIMUPT
 70
0
  9
$DIMDEC
 70
2
  9
$DIMTDEC
 70
2
  9
$DIMALTU
 70
2
  9
$DIMALTTD
 70
3
  9
$DIMTXSTY
  7
Standard
  9
$DIMAUNIT
 70
0
  9
$DIMADEC
 70
0
  9
$DIMALTRND
 40
0.0
  9
$DIMAZIN
 70
0
  9
$DIMDSEP
 70
44
  9
$DIMATFIT
 70
3
  9
$DIMFRAC
 70
0
  9
$DIMLDRBLK
  1

  9
$DIMLUNIT
 70
2
  9
$DIMLWD
 70
-2
  9
$DIMLWE
 70
-2
  9
$DIMTMOVE
 70
0
  9
$LUNITS
 70
2
  9
$LUPREC
 70
4
  9
$SKETCHINC
 40
1.0
  9
$FILLETRAD
 40
10.0
  9
$AUNITS
 70
0
  9
$AUPREC
 70
2
  9
$MENU
  1
.
  9
$ELEVATION
 40
0.0
  9
$PELEVATION
 40
0.0
  9
$THICKNESS
 40
0.0
  9
$LIMCHECK
 70
0
  9
$CHAMFERA
 40
0.0
  9
$CHAMFERB
 40
0.0
  9
$CHAMFERC
 40
0.0
  9
$CHAMFERD
 40
0.0
  9
$SKPOLY
 70
0
  9
$TDCREATE
 40
2461278.5551620373
  9
$TDUCREATE
 40
2458532.153996898
  9
$TDUPDATE
 40
2461278.5551620373
  9
$TDUUPDATE
 40
2458532.1544311
  9
$TDINDWG
 40
0.0
  9
$TDUSRTIMER
 40
0.0
  9
$USRTIMER
 70
1
  9
$ANGBASE
 50
0.0
  9
$ANGDIR
 70
0
  9
$PDMODE
 70
0
  9
$PDSIZE
 40
0.0
  9
$PLINEWID
 40
0.0
  9
$SPLFRAME
 70
0
  9
$SPLINETYPE
 70
6
  9
$SPLINESEGS
 70
8
  9
$HANDSEED
  5
77
  9
$SURFTAB1
 70
6
  9
$SURFTAB2
 70
6
  9
$SURFTYPE
 70
6
  9
$SURFU
 70
6
  9
$SURFV
 70
6
  9
$UCSBASE
  2

  9
$UCSNAME
  2

  9
$UCSORG
 10
0.0
 20
0.0
 30
0.0
  9
$UCSXDIR
 10
1.0
 20
0.0
 30
0.0
  9
$UCSYDIR
 10
0.0
 20
1.0
 30
0.0
  9
$UCSORTHOREF
  2

  9
$UCSORTHOVIEW
 70
0
  9
$UCSORGTOP
 10
0.0
 20
0.0
 30
0.0
  9
$UCSORGBOTTOM
 10
0.0
 20
0.0
 30
0.0
  9
$UCSORGLEFT
 10
0.0
 20
0.0
 30
0.0
  9
$UCSORGRIGHT
 10
0.0
 20
0.0
 30
0.0
  9
$UCSORGFRONT
 10
0.0
 20
0.0
 30
0.0
  9
$UCSORGBACK
 10
0.0
 20
0.0
 30
0.0
  9
$PUCSBASE
  2

  9
$PUCSNAME
  2

  9
$PUCSORG
 10
0.0
 20
0.0
 30
0.0
  9
$PUCSXDIR
 10
1.0
 20
0.0
 30
0.0
  9
$PUCSYDIR
 10
0.0
 20
1.0
 30
0.0
  9
$PUCSORTHOREF
  2

  9
$PUCSORTHOVIEW
 70
0
  9
$PUCSORGTOP
 10
0.0
 20
0.0
 30
0.0
  9
$PUCSORGBOTTOM
 10
0.0
 20
0.0
 30
0.0
  9
$PUCSORGLEFT
 10
0.0
 20
0.0
 30
0.0
  9
$PUCSORGRIGHT
 10
0.0
 20
0.0
 30
0.0
  9
$PUCSORGFRONT
 10
0.0
 20
0.0
 30
0.0
  9
$PUCSORGBACK
 10
0.0
 20
0.0
 30
0.0
  9
$USERI1
 70
0
  9
$USERI2
 70
0
  9
$USERI3
 70
0
  9
$USERI4
 70
0
  9
$USERI5
 70
0
  9
$USERR1
 40
0.0
  9
$USERR2
 40
0.0
  9
$USERR3
 40
0.0
  9
$USERR4
 40
0.0
  9
$USERR5
 40
0.0
  9
$WORLDVIEW
 70
1
  9
$SHADEDGE
 70
3
  9
$SHADEDIF
 70
70
  9
$TILEMODE
 70
1
  9
$MAXACTVP
 70
64
  9
$PINSBASE
 10
0.0
 20
0.0
 30
0.0
  9
$PLIMCHECK
 70
0
  9
$PEXTMIN
 10
1e+20
 20
1e+20
 30
1e+20
  9
$PEXTMAX
 10
-1e+20
 20
-1e+20
 30
-1e+20
  9
$PLIMMIN
 10
0.0
 20
0.0
  9
$PLIMMAX
 10
420.0
 20
297.0
  9
$UNITMODE
 70
0
  9
$VISRETAIN
 70
1
  9
$PLINEGEN
 70
0
  9
$PSLTSCALE
 70
1
  9
$TREEDEPTH
 70
3020
  9
$CMLSTYLE
  2
Standard
  9
$CMLJUST
 70
0
  9
$CMLSCALE
 40
20.0
  9
$PROXYGRAPHICS
 70
1
  9
$MEASUREMENT
 70
1
  9
$CELWEIGHT
370
-1
  9
$ENDCAPS
280
0
  9
$JOINSTYLE
280
0
  9
$LWDISPLAY
290
0
  9
$INSUNITS
 70
4
  9
$HYPERLINKBASE
  1

  9
$STYLESHEET
  1

  9
$XEDIT
290
1
  9
$CEPSNTYPE
380
0
  9
$PSTYLEMODE
290
1
  9
$FINGERPRINTGUID
  2
{AF1F381C-F613-4E09-A811-28AF83149D1D}
  9
$VERSIONGUID
  2
{5863DE44-6D75-49E7-B7A4-08DD05877E73}
  9
$EXTNAMES
290
1
  9
$PSVPSCALE
 40
0.0
  9
$OLESTARTUP
290
0
  0
ENDSEC
  0
SECTION
  2
CLASSES
  0
CLASS
  1
ACDBDICTIONARYWDFLT
  2
AcDbDictionaryWithDefault
  3
ObjectDBX Classes
 90
0
280
0
281
0
  0
CLASS
  1
SUN
  2
AcDbSun
  3
SCENEOE
 90
1153
280
0
281
0
  0
CLASS
  1
VISUALSTYLE
  2
AcDbVisualStyle
  3
ObjectDBX Classes
 90
4095
280
0
281
0
  0
CLASS
  1
MATERIAL
  2
AcDbMaterial
  3
ObjectDBX Classes
 90
1153
280
0
281
0
  0
CLASS
  1
SCALE
  2
AcDbScale
  3
ObjectDBX Classes
 90
1153
280
0
281
0
  0
CLASS
  1
TABLESTYLE
  2
AcDbTableStyle
  3
ObjectDBX Classes
 90
4095
280
0
281
0
  0
CLASS
  1
MLEADERSTYLE
  2
AcDbMLeaderStyle
  3
ACDB_MLEADERSTYLE_CLASS
 90
4095
280
0
281
0
  0
CLASS
  1
DICTIONARYVAR
  2
AcDbDictionaryVar
  3
ObjectDBX Classes
 90
0
280
0
281
0
  0
CLASS
  1
CELLSTYLEMAP
  2
AcDbCellStyleMap
  3
ObjectDBX Classes
 90
1152
280
0
281
0
  0
CLASS
  1
MENTALRAYRENDERSETTINGS
  2
AcDbMentalRayRenderSettings
  3
SCENEOE
 90
1024
280
0
281
0
  0
CLASS
  1
ACDBDETAILVIEWSTYLE
  2
AcDbDetailViewStyle
  3
ObjectDBX Classes
 90
1025
280
0
281
0
  0
CLASS
  1
ACDBSECTIONVIEWSTYLE
  2
AcDbSectionViewStyle
  3
ObjectDBX Classes
 90
1025
280
0
281
0
  0
CLASS
  1
RASTERVARIABLES
  2
AcDbRasterVariables
  3
ISM
 90
0
280
0
281
0
  0
CLASS
  1
ACDBPLACEHOLDER
  2
AcDbPlaceHolder
  3
ObjectDBX Classes
 90
0
280
0
281
0
  0
CLASS
  1
LAYOUT
  2
AcDbLayout
  3
ObjectDBX Classes
 90
0
280
0
281
0
  0
ENDSEC
  0
SECTION
  2
TABLES
  0
TABLE
  2
VPORT
  5
8
330
0
100
AcDbSymbolTable
 70
1
  0
VPORT
  5
23
330
8
100
AcDbSymbolTableRecord
100
AcDbViewportTableRecord
  2
*Active
 70
0
 10
0.0
 20
0.0
 11
1.0
 21
1.0
 12
0.0
 22
0.0
 13
0.0
 23
0.0
 14
0.5
 24
0.5
 15
0.5
 25
0.5
 16
0.0
 26
0.0
 36
1.0
 17
0.0
 27
0.0
 37
0.0
 40
1000.0
 41
1.34
 42
50.0
 43
0.0
 44
0.0
 50
0.0
 51
0.0
 71
0
 72
1000
 73
1
 74
3
 75
0
 76
0
 77
0
 78
0
281
0
 65
0
146
0.0
  0
ENDTAB
  0
TABLE
  2
LTYPE
  5
2
330
0
100
AcDbSymbolTable
 70
3
  0
LTYPE
  5
24
330
2
100
AcDbSymbolTableRecord
100
AcDbLinetypeTableRecord
  2
ByBlock
 70
0
  3

 72
65
 73
0
 40
0.0
  0
LTYPE
  5
25
330
2
100
AcDbSymbolTableRecord
100
AcDbLinetypeTableRecord
  2
ByLayer
 70
0
  3

 72
65
 73
0
 40
0.0
  0
LTYPE
  5
26
330
2
100
AcDbSymbolTableRecord
100
AcDbLinetypeTableRecord
  2
Continuous
 70
0
  3

 72
65
 73
0
 40
0.0
  0
ENDTAB
  0
TABLE
  2
LAYER
  5
1
330
0
100
AcDbSymbolTable
 70
4
  0
LAYER
  5
27
330
1
100
AcDbSymbolTableRecord
100
AcDbLayerTableRecord
  2
0
 70
0
 62
7
  6
Continuous
370
-3
390
13
  0
LAYER
  5
28
330
1
100
AcDbSymbolTableRecord
100
AcDbLayerTableRecord
  2
Defpoints
 70
0
 62
7
  6
Continuous
290
0
370
-3
390
13
  0
LAYER
  5
2F
330
1
100
AcDbSymbolTableRecord
100
AcDbLayerTableRecord
  2
CUT
 70
0
 62
1
  6
Continuous
370
-3
390
13
  0
LAYER
  5
30
330
1
100
AcDbSymbolTableRecord
100
AcDbLayerTableRecord
  2
RASTER
 70
0
 62
7
  6
Continuous
370
-3
390
13
  0
ENDTAB
  0
TABLE
  2
STYLE
  5
5
330
0
100
AcDbSymbolTable
 70
1
  0
STYLE
  5
29
330
5
100
AcDbSymbolTableRecord
100
AcDbTextStyleTableRecord
  2
Standard
 70
0
 40
0.0
 41
1.0
 50
0.0
 71
0
 42
2.5
  3
txt
  4

  0
ENDTAB
  0
TABLE
  2
VIEW
  5
7
330
0
100
AcDbSymbolTable
 70
0
  0
ENDTAB
  0
TABLE
  2
UCS
  5
6
330
0
100
AcDbSymbolTable
 70
0
  0
ENDTAB
  0
TABLE
  2
APPID
  5
3
330
0
100
AcDbSymbolTable
 70
3
  0
APPID
  5
2A
330
3
100
AcDbSymbolTableRecord
100
AcDbRegAppTableRecord
  2
ACAD
 70
0
  0
APPID
  5
74
330
3
100
AcDbSymbolTableRecord
100
AcDbRegAppTableRecord
  2
HATCHBACKGROUNDCOLOR
 70
0
  0
APPID
  5
75
330
3
100
AcDbSymbolTableRecord
100
AcDbRegAppTableRecord
  2
EZDXF
 70
0
  0
ENDTAB
  0
TABLE
  2
DIMSTYLE
  5
4
330
0
100
AcDbSymbolTable
 70
1
100
AcDbDimStyleTable
  0
DIMSTYLE
105
2B
330
4
100
AcDbSymbolTableRecord
100
AcDbDimStyleTableRecord
  2
Standard
 70
0
  3

  4

 40
1.0
 41
2.5
 42
0.625
 43
3.75
 44
1.25
 45
0.0
 46
0.0
 47
0.0
 48
0.0
140
2.5
141
2.5
142
0.0
143
0.03937007874
144
1.0
145
0.0
146
1.0
147
0.625
148
0.0
 71
0
 72
0
 73
0
 74
0
 75
0
 76
0
 77
1
 78
8
 79
3
170
0
171
3
172
1
173
0
174
0
175
0
176
0
177
0
178
0
179
2
271
2
272
2
273
2
274
3
275
0
276
0
277
2
278
44
279
0
280
0
281
0
282
0
283
0
284
8
285
0
286
0
288
0
289
3
371
-2
372
-2
  0
ENDTAB
  0
TABLE
  2
BLOCK_RECORD
  5
9
330
0
100
AcDbSymbolTable
 70
2
  0
BLOCK_RECORD
  5
17
330
9
100
AcDbSymbolTableRecord
100
AcDbBlockTableRecord
  2
*Model_Space
340
1A
  0
BLOCK_RECORD
  5
1B
330
9
100
AcDbSymbolTableRecord
100
AcDbBlockTableRecord
  2
*Paper_Space
340
1E
  0
ENDTAB
  0
ENDSEC
  0
SECTION
  2
BLOCKS
  0
BLOCK
  5
18
330
17
100
AcDbEntity
  8
0
100
AcDbBlockBegin
  2
*Model_Space
 70
0
 10
0.0
 20
0.0
 30
0.0
  3
*Model_Space
  1

  0
ENDBLK
  5
19
330
17
100
AcDbEntity
  8
0
100
AcDbBlockEnd
  0
BLOCK
  5
1C
330
1B
100
AcDbEntity
  8
0
100
AcDbBlockBegin
  2
*Paper_Space
 70
0
 10
0.0
 20
0.0
 30
0.0
  3
*Paper_Space
  1

  0
ENDBLK
  5
1D
330
1B
100
AcDbEntity
  8
0
100
AcDbBlockEnd
  0
ENDSEC
  0
SECTION
  2
ENTITIES
  0
LWPOLYLINE
  5
31
330
17
100
AcDbEntity
  8
CUT
100
AcDbPolyline
 90
40
 70
1
 10
6.6
 20
199.848
 10
81.4
 20
199.848
 10
84.137
 20
199.848
 10
84.137
 20
193.773
 10
81.538
 20
193.773
 10
81.538
 20
188.248
 10
84.137
 20
188.248
 10
84.137
 20
182.173
 10
81.4
 20
182.173
 10
75.784
 20
182.173
 10
75.784
 20
179.573
 10
69.755
 20
179.573
 10
69.755
 20
182.173
 10
64.276
 20
182.173
 10
64.276
 20
179.573
 10
58.247
 20
179.573
 10
58.247
 20
182.173
 10
52.768
 20
182.173
 10
52.768
 20
179.573
 10
46.739
 20
179.573
 10
46.739
 20
182.173
 10
41.261
 20
182.173
 10
41.261
 20
179.573
 10
35.232
 20
179.573
 10
35.232
 20
182.173
 10
29.753
 20
182.173
 10
29.753
 20
179.573
 10
23.724
 20
179.573
 10
23.724
 20
182.173
 10
18.245
 20
182.173
 10
18.245
 20
179.573
 10
12.216
 20
179.573
 10
12.216
 20
182.173
 10
6.6
 20
182.173
 10
3.862
 20
182.173
 10
3.862
 20
188.248
 10
6.462
 20
188.248
 10
6.462
 20
193.773
 10
3.862
 20
193.773
 10
3.862
 20
199.848
  0
HATCH
  5
32
330
17
100
AcDbEntity
  8
RASTER
 62
7
100
AcDbHatch
 10
0.0
 20
0.0
 30
0.0
210
0.0
220
0.0
230
1.0
  2
SOLID
 70
1
 71
0
 91
1
 92
3
 72
0
 73
1
 93
4
 10
7.6
 20
195.81
 10
80.4
 20
195.81
 10
80.4
 20
195.21
 10
7.6
 20
195.21
 97
0
 75
0
 76
1
 98
0
  0
HATCH
  5
33
330
17
100
AcDbEntity
  8
RASTER
 62
7
100
AcDbHatch
 10
0.0
 20
0.0
 30
0.0
210
0.0
220
0.0
230
1.0
  2
SOLID
 70
1
 71
0
 91
1
 92
3
 72
0
 73
1
 93
4
 10
7.6
 20
191.61
 10
80.4
 20
191.61
 10
80.4
 20
191.01
 10
7.6
 20
191.01
 97
0
 75
0
 76
1
 98
0
  0
HATCH
  5
34
330
17
100
AcDbEntity
  8
RASTER
 62
7
100
AcDbHatch
 10
0.0
 20
0.0
 30
0.0
210
0.0
220
0.0
230
1.0
  2
SOLID
 70
1
 71
0
 91
1
 92
3
 72
0
 73
1
 93
4
 10
7.6
 20
187.41
 10
80.4
 20
187.41
 10
80.4
 20
186.81
 10
7.6
 20
186.81
 97
0
 75
0
 76
1
 98
0
  0
HATCH
  5
35
330
17
100
AcDbEntity
  8
RASTER
 62
7
100
AcDbHatch
 10
0.0
 20
0.0
 30
0.0
210
0.0
220
0.0
230
1.0
  2
SOLID
 70
1
 71
0
 91
1
 92
3
 72
0
 73
1
 93
4
 10
23.3
 20
199.71
 10
27.3
 20
199.71
 10
27.3
 20
182.31
 10
23.3
 20
182.31
 97
0
 75
0
 76
1
 98
0
  0
HATCH
  5
36
330
17
100
AcDbEntity
  8
RASTER
 62
7
100
AcDbHatch
 10
0.0
 20
0.0
 30
0.0
210
0.0
220
0.0
230
1.0
  2
SOLID
 70
1
 71
0
 91
1
 92
3
 72
0
 73
1
 93
4
 10
60.7
 20
199.71
 10
64.7
 20
199.71
 10
64.7
 20
182.31
 10
60.7
 20
182.31
 97
0
 75
0
 76
1
 98
0
  0
HATCH
  5
37
330
17
100
AcDbEntity
  8
RASTER
 62
7
100
AcDbHatch
 10
0.0
 20
0.0
 30
0.0
210
0.0
220
0.0
230
1.0
  2
SOLID
 70
1
 71
0
 91
1
 92
3
 72
0
 73
1
 93
48
 10
25.85
 20
196.23
 10
25.845
 20
196.158
 10
25.831
 20
196.088
 10
25.808
 20
196.02
 10
25.776
 20
195.955
 10
25.736
 20
195.895
 10
25.689
 20
195.841
 10
25.635
 20
195.794
 10
25.575
 20
195.754
 10
25.51
 20
195.722
 10
25.442
 20
195.699
 10
25.372
 20
195.685
 10
25.3
 20
195.68
 10
25.228
 20
195.685
 10
25.158
 20
195.699
 10
25.09
 20
195.722
 10
25.025
 20
195.754
 10
24.965
 20
195.794
 10
24.911
 20
195.841
 10
24.864
 20
195.895
 10
24.824
 20
195.955
 10
24.792
 20
196.02
 10
24.769
 20
196.088
 10
24.755
 20
196.158
 10
24.75
 20
196.23
 10
24.755
 20
196.302
 10
24.769
 20
196.372
 10
24.792
 20
196.44
 10
24.824
 20
196.505
 10
24.864
 20
196.565
 10
24.911
 20
196.619
 10
24.965
 20
196.666
 10
25.025
 20
196.706
 10
25.09
 20
196.738
 10
25.158
 20
196.761
 10
25.228
 20
196.775
 10
25.3
 20
196.78
 10
25.372
 20
196.775
 10
25.442
 20
196.761
 10
25.51
 20
196.738
 10
25.575
 20
196.706
 10
25.635
 20
196.666
 10
25.689
 20
196.619
 10
25.736
 20
196.565
 10
25.776
 20
196.505
 10
25.808
 20
196.44
 10
25.831
 20
196.372
 10
25.845
 20
196.302
 97
0
 75
0
 76
1
 98
0
  0
HATCH
  5
38
330
17
100
AcDbEntity
  8
RASTER
 62
7
100
AcDbHatch
 10
0.0
 20
0.0
 30
0.0
210
0.0
220
0.0
230
1.0
  2
SOLID
 70
1
 71
0
 91
1
 92
3
 72
0
 73
1
 93
48
 10
63.25
 20
196.23
 10
63.245
 20
196.158
 10
63.231
 20
196.088
 10
63.208
 20
196.02
 10
63.176
 20
195.955
 10
63.136
 20
195.895
 10
63.089
 20
195.841
 10
63.035
 20
195.794
 10
62.975
 20
195.754
 10
62.91
 20
195.722
 10
62.842
 20
195.699
 10
62.772
 20
195.685
 10
62.7
 20
195.68
 10
62.628
 20
195.685
 10
62.558
 20
195.699
 10
62.49
 20
195.722
 10
62.425
 20
195.754
 10
62.365
 20
195.794
 10
62.311
 20
195.841
 10
62.264
 20
195.895
 10
62.224
 20
195.955
 10
62.192
 20
196.02
 10
62.169
 20
196.088
 10
62.155
 20
196.158
 10
62.15
 20
196.23
 10
62.155
 20
196.302
 10
62.169
 20
196.372
 10
62.192
 20
196.44
 10
62.224
 20
196.505
 10
62.264
 20
196.565
 10
62.311
 20
196.619
 10
62.365
 20
196.666
 10
62.425
 20
196.706
 10
62.49
 20
196.738
 10
62.558
 20
196.761
 10
62.628
 20
196.775
 10
62.7
 20
196.78
 10
62.772
 20
196.775
 10
62.842
 20
196.761
 10
62.91
 20
196.738
 10
62.975
 20
196.706
 10
63.035
 20
196.666
 10
63.089
 20
196.619
 10
63.136
 20
196.565
 10
63.176
 20
196.505
 10
63.208
 20
196.44
 10
63.231
 20
196.372
 10
63.245
 20
196.302
 97
0
 75
0
 76
1
 98
0
  0
HATCH
  5
39
330
17
100
AcDbEntity
  8
RASTER
 62
7
100
AcDbHatch
 10
0.0
 20
0.0
 30
0.0
210
0.0
220
0.0
230
1.0
  2
SOLID
 70
1
 71
0
 91
1
 92
3
 72
0
 73
1
 93
48
 10
25.85
 20
191.01
 10
25.845
 20
190.938
 10
25.831
 20
190.868
 10
25.808
 20
190.8
 10
25.776
 20
190.735
 10
25.736
 20
190.675
 10
25.689
 20
190.621
 10
25.635
 20
190.574
 10
25.575
 20
190.534
 10
25.51
 20
190.502
 10
25.442
 20
190.479
 10
25.372
 20
190.465
 10
25.3
 20
190.46
 10
25.228
 20
190.465
 10
25.158
 20
190.479
 10
25.09
 20
190.502
 10
25.025
 20
190.534
 10
24.965
 20
190.574
 10
24.911
 20
190.621
 10
24.864
 20
190.675
 10
24.824
 20
190.735
 10
24.792
 20
190.8
 10
24.769
 20
190.868
 10
24.755
 20
190.938
 10
24.75
 20
191.01
 10
24.755
 20
191.082
 10
24.769
 20
191.152
 10
24.792
 20
191.22
 10
24.824
 20
191.285
 10
24.864
 20
191.345
 10
24.911
 20
191.399
 10
24.965
 20
191.446
 10
25.025
 20
191.486
 10
25.09
 20
191.518
 10
25.158
 20
191.541
 10
25.228
 20
191.555
 10
25.3
 20
191.56
 10
25.372
 20
191.555
 10
25.442
 20
191.541
 10
25.51
 20
191.518
 10
25.575
 20
191.486
 10
25.635
 20
191.446
 10
25.689
 20
191.399
 10
25.736
 20
191.345
 10
25.776
 20
191.285
 10
25.808
 20
191.22
 10
25.831
 20
191.152
 10
25.845
 20
191.082
 97
0
 75
0
 76
1
 98
0
  0
HATCH
  5
3A
330
17
100
AcDbEntity
  8
RASTER
 62
7
100
AcDbHatch
 10
0.0
 20
0.0
 30
0.0
210
0.0
220
0.0
230
1.0
  2
SOLID
 70
1
 71
0
 91
1
 92
3
 72
0
 73
1
 93
48
 10
63.25
 20
191.01
 10
63.245
 20
190.938
 10
63.231
 20
190.868
 10
63.208
 20
190.8
 10
63.176
 20
190.735
 10
63.136
 20
190.675
 10
63.089
 20
190.621
 10
63.035
 20
190.574
 10
62.975
 20
190.534
 10
62.91
 20
190.502
 10
62.842
 20
190.479
 10
62.772
 20
190.465
 10
62.7
 20
190.46
 10
62.628
 20
190.465
 10
62.558
 20
190.479
 10
62.49
 20
190.502
 10
62.425
 20
190.534
 10
62.365
 20
190.574
 10
62.311
 20
190.621
 10
62.264
 20
190.675
 10
62.224
 20
190.735
 10
62.192
 20
190.8
 10
62.169
 20
190.868
 10
62.155
 20
190.938
 10
62.15
 20
191.01
 10
62.155
 20
191.082
 10
62.169
 20
191.152
 10
62.192
 20
191.22
 10
62.224
 20
191.285
 10
62.264
 20
191.345
 10
62.311
 20
191.399
 10
62.365
 20
191.446
 10
62.425
 20
191.486
 10
62.49
 20
191.518
 10
62.558
 20
191.541
 10
62.628
 20
191.555
 10
62.7
 20
191.56
 10
62.772
 20
191.555
 10
62.842
 20
191.541
 10
62.91
 20
191.518
 10
62.975
 20
191.486
 10
63.035
 20
191.446
 10
63.089
 20
191.399
 10
63.136
 20
191.345
 10
63.176
 20
191.285
 10
63.208
 20
191.22
 10
63.231
 20
191.152
 10
63.245
 20
191.082
 97
0
 75
0
 76
1
 98
0
  0
HATCH
  5
3B
330
17
100
AcDbEntity
  8
RASTER
 62
7
100
AcDbHatch
 10
0.0
 20
0.0
 30
0.0
210
0.0
220
0.0
230
1.0
  2
SOLID
 70
1
 71
0
 91
1
 92
3
 72
0
 73
1
 93
48
 10
25.85
 20
185.79
 10
25.845
 20
185.718
 10
25.831
 20
185.648
 10
25.808
 20
185.58
 10
25.776
 20
185.515
 10
25.736
 20
185.455
 10
25.689
 20
185.401
 10
25.635
 20
185.354
 10
25.575
 20
185.314
 10
25.51
 20
185.282
 10
25.442
 20
185.259
 10
25.372
 20
185.245
 10
25.3
 20
185.24
 10
25.228
 20
185.245
 10
25.158
 20
185.259
 10
25.09
 20
185.282
 10
25.025
 20
185.314
 10
24.965
 20
185.354
 10
24.911
 20
185.401
 10
24.864
 20
185.455
 10
24.824
 20
185.515
 10
24.792
 20
185.58
 10
24.769
 20
185.648
 10
24.755
 20
185.718
 10
24.75
 20
185.79
 10
24.755
 20
185.862
 10
24.769
 20
185.932
 10
24.792
 20
186.0
 10
24.824
 20
186.065
 10
24.864
 20
186.125
 10
24.911
 20
186.179
 10
24.965
 20
186.226
 10
25.025
 20
186.266
 10
25.09
 20
186.298
 10
25.158
 20
186.321
 10
25.228
 20
186.335
 10
25.3
 20
186.34
 10
25.372
 20
186.335
 10
25.442
 20
186.321
 10
25.51
 20
186.298
 10
25.575
 20
186.266
 10
25.635
 20
186.226
 10
25.689
 20
186.179
 10
25.736
 20
186.125
 10
25.776
 20
186.065
 10
25.808
 20
186.0
 10
25.831
 20
185.932
 10
25.845
 20
185.862
 97
0
 75
0
 76
1
 98
0
  0
HATCH
  5
3C
330
17
100
AcDbEntity
  8
RASTER
 62
7
100
AcDbHatch
 10
0.0
 20
0.0
 30
0.0
210
0.0
220
0.0
230
1.0
  2
SOLID
 70
1
 71
0
 91
1
 92
3
 72
0
 73
1
 93
48
 10
63.25
 20
185.79
 10
63.245
 20
185.718
 10
63.231
 20
185.648
 10
63.208
 20
185.58
 10
63.176
 20
185.515
 10
63.136
 20
185.455
 10
63.089
 20
185.401
 10
63.035
 20
185.354
 10
62.975
 20
185.314
 10
62.91
 20
185.282
 10
62.842
 20
185.259
 10
62.772
 20
185.245
 10
62.7
 20
185.24
 10
62.628
 20
185.245
 10
62.558
 20
185.259
 10
62.49
 20
185.282
 10
62.425
 20
185.314
 10
62.365
 20
185.354
 10
62.311
 20
185.401
 10
62.264
 20
185.455
 10
62.224
 20
185.515
 10
62.192
 20
185.58
 10
62.169
 20
185.648
 10
62.155
 20
185.718
 10
62.15
 20
185.79
 10
62.155
 20
185.862
 10
62.169
 20
185.932
 10
62.192
 20
186.0
 10
62.224
 20
186.065
 10
62.264
 20
186.125
 10
62.311
 20
186.179
 10
62.365
 20
186.226
 10
62.425
 20
186.266
 10
62.49
 20
186.298
 10
62.558
 20
186.321
 10
62.628
 20
186.335
 10
62.7
 20
186.34
 10
62.772
 20
186.335
 10
62.842
 20
186.321
 10
62.91
 20
186.298
 10
62.975
 20
186.266
 10
63.035
 20
186.226
 10
63.089
 20
186.179
 10
63.136
 20
186.125
 10
63.176
 20
186.065
 10
63.208
 20
186.0
 10
63.231
 20
185.932
 10
63.245
 20
185.862
 97
0
 75
0
 76
1
 98
0
  0
HATCH
  5
3D
330
17
100
AcDbEntity
  8
RASTER
 62
7
100
AcDbHatch
 10
0.0
 20
0.0
 30
0.0
210
0.0
220
0.0
230
1.0
  2
SOLID
 70
1
 71
0
 91
3
 92
3
 72
0
 73
1
 93
36
 10
40.0
 20
193.81
 10
40.019
 20
194.091
 10
40.075
 20
194.335
 10
40.169
 20
194.541
 10
40.3
 20
194.71
 10
40.469
 20
194.841
 10
40.675
 20
194.935
 10
40.919
 20
194.991
 10
41.2
 20
195.01
 10
46.8
 20
195.01
 10
47.081
 20
194.991
 10
47.325
 20
194.935
 10
47.531
 20
194.841
 10
47.7
 20
194.71
 10
47.831
 20
194.541
 10
47.925
 20
194.335
 10
47.981
 20
194.091
 10
48.0
 20
193.81
 10
48.0
 20
188.21
 10
47.981
 20
187.929
 10
47.925
 20
187.685
 10
47.831
 20
187.479
 10
47.7
 20
187.31
 10
47.531
 20
187.179
 10
47.325
 20
187.085
 10
47.081
 20
187.029
 10
46.8
 20
187.01
 10
41.2
 20
187.01
 10
40.919
 20
187.029
 10
40.675
 20
187.085
 10
40.469
 20
187.179
 10
40.3
 20
187.31
 10
40.169
 20
187.479
 10
40.075
 20
187.685
 10
40.019
 20
187.929
 10
40.0
 20
188.21
 97
0
 92
3
 72
0
 73
1
 93
48
 10
45.1
 20
192.01
 10
45.091
 20
191.866
 10
45.063
 20
191.725
 10
45.016
 20
191.589
 10
44.953
 20
191.46
 10
44.873
 20
191.34
 10
44.778
 20
191.232
 10
44.67
 20
191.137
 10
44.55
 20
191.057
 10
44.421
 20
190.994
 10
44.285
 20
190.947
 10
44.144
 20
190.919
 10
44.0
 20
190.91
 10
43.856
 20
190.919
 10
43.715
 20
190.947
 10
43.579
 20
190.994
 10
43.45
 20
191.057
 10
43.33
 20
191.137
 10
43.222
 20
191.232
 10
43.127
 20
191.34
 10
43.047
 20
191.46
 10
42.984
 20
191.589
 10
42.937
 20
191.725
 10
42.909
 20
191.866
 10
42.9
 20
192.01
 10
42.909
 20
192.154
 10
42.937
 20
192.295
 10
42.984
 20
192.431
 10
43.047
 20
192.56
 10
43.127
 20
192.68
 10
43.222
 20
192.788
 10
43.33
 20
192.883
 10
43.45
 20
192.963
 10
43.579
 20
193.026
 10
43.715
 20
193.073
 10
43.856
 20
193.101
 10
44.0
 20
193.11
 10
44.144
 20
193.101
 10
44.285
 20
193.073
 10
44.421
 20
193.026
 10
44.55
 20
192.963
 10
44.67
 20
192.883
 10
44.778
 20
192.788
 10
44.873
 20
192.68
 10
44.953
 20
192.56
 10
45.016
 20
192.431
 10
45.063
 20
192.295
 10
45.091
 20
192.154
 97
0
 92
3
 72
0
 73
1
 93
5
 10
43.3
 20
191.41
 10
43.0
 20
188.41
 10
45.0
 20
188.41
 10
44.7
 20
191.41
 10
43.3
 20
191.41
 97
0
 75
0
 76
1
 98
0
  0
LWPOLYLINE
  5
3E
330
17
100
AcDbEntity
  8
CUT
100
AcDbPolyline
 90
92
 70
1
 10
90.6
 20
193.448
 10
90.612
 20
193.448
 10
90.612
 20
196.619
 10
90.722
 20
197.448
 10
91.045
 20
198.229
 10
91.56
 20
198.9
 10
92.231
 20
199.415
 10
93.012
 20
199.738
 10
93.841
 20
199.848
 10
102.319
 20
199.848
 10
103.148
 20
199.738
 10
103.929
 20
199.415
 10
104.6
 20
198.9
 10
105.115
 20
198.229
 10
105.438
 20
197.448
 10
105.547
 20
196.619
 10
105.547
 20
193.448
 10
105.56
 20
193.448
 10
120.52
 20
193.448
 10
120.532
 20
193.448
 10
120.532
 20
196.619
 10
120.642
 20
197.448
 10
120.965
 20
198.229
 10
121.48
 20
198.9
 10
122.151
 20
199.415
 10
122.932
 20
199.738
 10
123.761
 20
199.848
 10
132.239
 20
199.848
 10
133.068
 20
199.738
 10
133.849
 20
199.415
 10
134.52
 20
198.9
 10
135.035
 20
198.229
 10
135.358
 20
197.448
 10
135.467
 20
196.619
 10
135.467
 20
193.448
 10
135.48
 20
193.448
 10
150.44
 20
193.448
 10
150.453
 20
193.448
 10
150.453
 20
196.619
 10
150.562
 20
197.448
 10
150.885
 20
198.229
 10
151.4
 20
198.9
 10
152.071
 20
199.415
 10
152.852
 20
199.738
 10
153.681
 20
199.848
 10
162.159
 20
199.848
 10
162.988
 20
199.738
 10
163.769
 20
199.415
 10
164.44
 20
198.9
 10
164.955
 20
198.229
 10
165.278
 20
197.448
 10
165.387
 20
196.619
 10
165.387
 20
193.448
 10
165.4
 20
193.448
 10
168.137
 20
193.448
 10
168.137
 20
187.373
 10
165.537
 20
187.373
 10
165.537
 20
181.848
 10
168.137
 20
181.848
 10
168.137
 20
175.773
 10
165.4
 20
175.773
 10
159.784
 20
175.773
 10
159.784
 20
173.173
 10
153.755
 20
173.173
 10
153.755
 20
175.773
 10
148.276
 20
175.773
 10
148.276
 20
173.173
 10
142.247
 20
173.173
 10
142.247
 20
175.773
 10
136.768
 20
175.773
 10
136.768
 20
173.173
 10
130.739
 20
173.173
 10
130.739
 20
175.773
 10
125.261
 20
175.773
 10
125.261
 20
173.173
 10
119.232
 20
173.173
 10
119.232
 20
175.773
 10
113.753
 20
175.773
 10
113.753
 20
173.173
 10
107.724
 20
173.173
 10
107.724
 20
175.773
 10
102.245
 20
175.773
 10
102.245
 20
173.173
 10
96.216
 20
173.173
 10
96.216
 20
175.773
 10
90.6
 20
175.773
 10
87.862
 20
175.773
 10
87.862
 20
181.848
 10
90.462
 20
181.848
 10
90.462
 20
187.373
 10
87.862
 20
187.373
 10
87.862
 20
193.448
  0
CIRCLE
  5
3F
330
17
100
AcDbEntity
  8
CUT
100
AcDbCircle
 10
98.08
 20
196.61
 30
0.0
 40
1.513
  0
CIRCLE
  5
40
330
17
100
AcDbEntity
  8
CUT
100
AcDbCircle
 10
128.0
 20
196.61
 30
0.0
 40
1.513
  0
CIRCLE
  5
41
330
17
100
AcDbEntity
  8
CUT
100
AcDbCircle
 10
157.92
 20
196.61
 30
0.0
 40
1.513
  0
HATCH
  5
42
330
17
100
AcDbEntity
  8
RASTER
 62
7
100
AcDbHatch
 10
0.0
 20
0.0
 30
0.0
210
0.0
220
0.0
230
1.0
  2
SOLID
 70
1
 71
0
 91
1
 92
3
 72
0
 73
1
 93
4
 10
91.6
 20
189.41
 10
164.4
 20
189.41
 10
164.4
 20
188.81
 10
91.6
 20
188.81
 97
0
 75
0
 76
1
 98
0
  0
HATCH
  5
43
330
17
100
AcDbEntity
  8
RASTER
 62
7
100
AcDbHatch
 10
0.0
 20
0.0
 30
0.0
210
0.0
220
0.0
230
1.0
  2
SOLID
 70
1
 71
0
 91
1
 92
3
 72
0
 73
1
 93
4
 10
91.6
 20
185.21
 10
164.4
 20
185.21
 10
164.4
 20
184.61
 10
91.6
 20
184.61
 97
0
 75
0
 76
1
 98
0
  0
HATCH
  5
44
330
17
100
AcDbEntity
  8
RASTER
 62
7
100
AcDbHatch
 10
0.0
 20
0.0
 30
0.0
210
0.0
220
0.0
230
1.0
  2
SOLID
 70
1
 71
0
 91
1
 92
3
 72
0
 73
1
 93
4
 10
91.6
 20
181.01
 10
164.4
 20
181.01
 10
164.4
 20
180.41
 10
91.6
 20
180.41
 97
0
 75
0
 76
1
 98
0
  0
HATCH
  5
45
330
17
100
AcDbEntity
  8
RASTER
 62
7
100
AcDbHatch
 10
0.0
 20
0.0
 30
0.0
210
0.0
220
0.0
230
1.0
  2
SOLID
 70
1
 71
0
 91
1
 92
3
 72
0
 73
1
 93
4
 10
107.3
 20
193.31
 10
111.3
 20
193.31
 10
111.3
 20
175.91
 10
107.3
 20
175.91
 97
0
 75
0
 76
1
 98
0
  0
HATCH
  5
46
330
17
100
AcDbEntity
  8
RASTER
 62
7
100
AcDbHatch
 10
0.0
 20
0.0
 30
0.0
210
0.0
220
0.0
230
1.0
  2
SOLID
 70
1
 71
0
 91
1
 92
3
 72
0
 73
1
 93
4
 10
144.7
 20
193.31
 10
148.7
 20
193.31
 10
148.7
 20
175.91
 10
144.7
 20
175.91
 97
0
 75
0
 76
1
 98
0
  0
HATCH
  5
47
330
17
100
AcDbEntity
  8
RASTER
 62
7
100
AcDbHatch
 10
0.0
 20
0.0
 30
0.0
210
0.0
220
0.0
230
1.0
  2
SOLID
 70
1
 71
0
 91
1
 92
3
 72
0
 73
1
 93
48
 10
109.85
 20
189.83
 10
109.845
 20
189.758
 10
109.831
 20
189.688
 10
109.808
 20
189.62
 10
109.776
 20
189.555
 10
109.736
 20
189.495
 10
109.689
 20
189.441
 10
109.635
 20
189.394
 10
109.575
 20
189.354
 10
109.51
 20
189.322
 10
109.442
 20
189.299
 10
109.372
 20
189.285
 10
109.3
 20
189.28
 10
109.228
 20
189.285
 10
109.158
 20
189.299
 10
109.09
 20
189.322
 10
109.025
 20
189.354
 10
108.965
 20
189.394
 10
108.911
 20
189.441
 10
108.864
 20
189.495
 10
108.824
 20
189.555
 10
108.792
 20
189.62
 10
108.769
 20
189.688
 10
108.755
 20
189.758
 10
108.75
 20
189.83
 10
108.755
 20
189.902
 10
108.769
 20
189.972
 10
108.792
 20
190.04
 10
108.824
 20
190.105
 10
108.864
 20
190.165
 10
108.911
 20
190.219
 10
108.965
 20
190.266
 10
109.025
 20
190.306
 10
109.09
 20
190.338
 10
109.158
 20
190.361
 10
109.228
 20
190.375
 10
109.3
 20
190.38
 10
109.372
 20
190.375
 10
109.442
 20
190.361
 10
109.51
 20
190.338
 10
109.575
 20
190.306
 10
109.635
 20
190.266
 10
109.689
 20
190.219
 10
109.736
 20
190.165
 10
109.776
 20
190.105
 10
109.808
 20
190.04
 10
109.831
 20
189.972
 10
109.845
 20
189.902
 97
0
 75
0
 76
1
 98
0
  0
HATCH
  5
48
330
17
100
AcDbEntity
  8
RASTER
 62
7
100
AcDbHatch
 10
0.0
 20
0.0
 30
0.0
210
0.0
220
0.0
230
1.0
  2
SOLID
 70
1
 71
0
 91
1
 92
3
 72
0
 73
1
 93
48
 10
147.25
 20
189.83
 10
147.245
 20
189.758
 10
147.231
 20
189.688
 10
147.208
 20
189.62
 10
147.176
 20
189.555
 10
147.136
 20
189.495
 10
147.089
 20
189.441
 10
147.035
 20
189.394
 10
146.975
 20
189.354
 10
146.91
 20
189.322
 10
146.842
 20
189.299
 10
146.772
 20
189.285
 10
146.7
 20
189.28
 10
146.628
 20
189.285
 10
146.558
 20
189.299
 10
146.49
 20
189.322
 10
146.425
 20
189.354
 10
146.365
 20
189.394
 10
146.311
 20
189.441
 10
146.264
 20
189.495
 10
146.224
 20
189.555
 10
146.192
 20
189.62
 10
146.169
 20
189.688
 10
146.155
 20
189.758
 10
146.15
 20
189.83
 10
146.155
 20
189.902
 10
146.169
 20
189.972
 10
146.192
 20
190.04
 10
146.224
 20
190.105
 10
146.264
 20
190.165
 10
146.311
 20
190.219
 10
146.365
 20
190.266
 10
146.425
 20
190.306
 10
146.49
 20
190.338
 10
146.558
 20
190.361
 10
146.628
 20
190.375
 10
146.7
 20
190.38
 10
146.772
 20
190.375
 10
146.842
 20
190.361
 10
146.91
 20
190.338
 10
146.975
 20
190.306
 10
147.035
 20
190.266
 10
147.089
 20
190.219
 10
147.136
 20
190.165
 10
147.176
 20
190.105
 10
147.208
 20
190.04
 10
147.231
 20
189.972
 10
147.245
 20
189.902
 97
0
 75
0
 76
1
 98
0
  0
HATCH
  5
49
330
17
100
AcDbEntity
  8
RASTER
 62
7
100
AcDbHatch
 10
0.0
 20
0.0
 30
0.0
210
0.0
220
0.0
230
1.0
  2
SOLID
 70
1
 71
0
 91
1
 92
3
 72
0
 73
1
 93
48
 10
109.85
 20
184.61
 10
109.845
 20
184.538
 10
109.831
 20
184.468
 10
109.808
 20
184.4
 10
109.776
 20
184.335
 10
109.736
 20
184.275
 10
109.689
 20
184.221
 10
109.635
 20
184.174
 10
109.575
 20
184.134
 10
109.51
 20
184.102
 10
109.442
 20
184.079
 10
109.372
 20
184.065
 10
109.3
 20
184.06
 10
109.228
 20
184.065
 10
109.158
 20
184.079
 10
109.09
 20
184.102
 10
109.025
 20
184.134
 10
108.965
 20
184.174
 10
108.911
 20
184.221
 10
108.864
 20
184.275
 10
108.824
 20
184.335
 10
108.792
 20
184.4
 10
108.769
 20
184.468
 10
108.755
 20
184.538
 10
108.75
 20
184.61
 10
108.755
 20
184.682
 10
108.769
 20
184.752
 10
108.792
 20
184.82
 10
108.824
 20
184.885
 10
108.864
 20
184.945
 10
108.911
 20
184.999
 10
108.965
 20
185.046
 10
109.025
 20
185.086
 10
109.09
 20
185.118
 10
109.158
 20
185.141
 10
109.228
 20
185.155
 10
109.3
 20
185.16
 10
109.372
 20
185.155
 10
109.442
 20
185.141
 10
109.51
 20
185.118
 10
109.575
 20
185.086
 10
109.635
 20
185.046
 10
109.689
 20
184.999
 10
109.736
 20
184.945
 10
109.776
 20
184.885
 10
109.808
 20
184.82
 10
109.831
 20
184.752
 10
109.845
 20
184.682
 97
0
 75
0
 76
1
 98
0
  0
HATCH
  5
4A
330
17
100
AcDbEntity
  8
RASTER
 62
7
100
AcDbHatch
 10
0.0
 20
0.0
 30
0.0
210
0.0
220
0.0
230
1.0
  2
SOLID
 70
1
 71
0
 91
1
 92
3
 72
0
 73
1
 93
48
 10
147.25
 20
184.61
 10
147.245
 20
184.538
 10
147.231
 20
184.468
 10
147.208
 20
184.4
 10
147.176
 20
184.335
 10
147.136
 20
184.275
 10
147.089
 20
184.221
 10
147.035
 20
184.174
 10
146.975
 20
184.134
 10
146.91
 20
184.102
 10
146.842
 20
184.079
 10
146.772
 20
184.065
 10
146.7
 20
184.06
 10
146.628
 20
184.065
 10
146.558
 20
184.079
 10
146.49
 20
184.102
 10
146.425
 20
184.134
 10
146.365
 20
184.174
 10
146.311
 20
184.221
 10
146.264
 20
184.275
 10
146.224
 20
184.335
 10
146.192
 20
184.4
 10
146.169
 20
184.468
 10
146.155
 20
184.538
 10
146.15
 20
184.61
 10
146.155
 20
184.682
 10
146.169
 20
184.752
 10
146.192
 20
184.82
 10
146.224
 20
184.885
 10
146.264
 20
184.945
 10
146.311
 20
184.999
 10
146.365
 20
185.046
 10
146.425
 20
185.086
 10
146.49
 20
185.118
 10
146.558
 20
185.141
 10
146.628
 20
185.155
 10
146.7
 20
185.16
 10
146.772
 20
185.155
 10
146.842
 20
185.141
 10
146.91
 20
185.118
 10
146.975
 20
185.086
 10
147.035
 20
185.046
 10
147.089
 20
184.999
 10
147.136
 20
184.945
 10
147.176
 20
184.885
 10
147.208
 20
184.82
 10
147.231
 20
184.752
 10
147.245
 20
184.682
 97
0
 75
0
 76
1
 98
0
  0
HATCH
  5
4B
330
17
100
AcDbEntity
  8
RASTER
 62
7
100
AcDbHatch
 10
0.0
 20
0.0
 30
0.0
210
0.0
220
0.0
230
1.0
  2
SOLID
 70
1
 71
0
 91
1
 92
3
 72
0
 73
1
 93
48
 10
109.85
 20
179.39
 10
109.845
 20
179.318
 10
109.831
 20
179.248
 10
109.808
 20
179.18
 10
109.776
 20
179.115
 10
109.736
 20
179.055
 10
109.689
 20
179.001
 10
109.635
 20
178.954
 10
109.575
 20
178.914
 10
109.51
 20
178.882
 10
109.442
 20
178.859
 10
109.372
 20
178.845
 10
109.3
 20
178.84
 10
109.228
 20
178.845
 10
109.158
 20
178.859
 10
109.09
 20
178.882
 10
109.025
 20
178.914
 10
108.965
 20
178.954
 10
108.911
 20
179.001
 10
108.864
 20
179.055
 10
108.824
 20
179.115
 10
108.792
 20
179.18
 10
108.769
 20
179.248
 10
108.755
 20
179.318
 10
108.75
 20
179.39
 10
108.755
 20
179.462
 10
108.769
 20
179.532
 10
108.792
 20
179.6
 10
108.824
 20
179.665
 10
108.864
 20
179.725
 10
108.911
 20
179.779
 10
108.965
 20
179.826
 10
109.025
 20
179.866
 10
109.09
 20
179.898
 10
109.158
 20
179.921
 10
109.228
 20
179.935
 10
109.3
 20
179.94
 10
109.372
 20
179.935
 10
109.442
 20
179.921
 10
109.51
 20
179.898
 10
109.575
 20
179.866
 10
109.635
 20
179.826
 10
109.689
 20
179.779
 10
109.736
 20
179.725
 10
109.776
 20
179.665
 10
109.808
 20
179.6
 10
109.831
 20
179.532
 10
109.845
 20
179.462
 97
0
 75
0
 76
1
 98
0
  0
HATCH
  5
4C
330
17
100
AcDbEntity
  8
RASTER
 62
7
100
AcDbHatch
 10
0.0
 20
0.0
 30
0.0
210
0.0
220
0.0
230
1.0
  2
SOLID
 70
1
 71
0
 91
1
 92
3
 72
0
 73
1
 93
48
 10
147.25
 20
179.39
 10
147.245
 20
179.318
 10
147.231
 20
179.248
 10
147.208
 20
179.18
 10
147.176
 20
179.115
 10
147.136
 20
179.055
 10
147.089
 20
179.001
 10
147.035
 20
178.954
 10
146.975
 20
178.914
 10
146.91
 20
178.882
 10
146.842
 20
178.859
 10
146.772
 20
178.845
 10
146.7
 20
178.84
 10
146.628
 20
178.845
 10
146.558
 20
178.859
 10
146.49
 20
178.882
 10
146.425
 20
178.914
 10
146.365
 20
178.954
 10
146.311
 20
179.001
 10
146.264
 20
179.055
 10
146.224
 20
179.115
 10
146.192
 20
179.18
 10
146.169
 20
179.248
 10
146.155
 20
179.318
 10
146.15
 20
179.39
 10
146.155
 20
179.462
 10
146.169
 20
179.532
 10
146.192
 20
179.6
 10
146.224
 20
179.665
 10
146.264
 20
179.725
 10
146.311
 20
179.779
 10
146.365
 20
179.826
 10
146.425
 20
179.866
 10
146.49
 20
179.898
 10
146.558
 20
179.921
 10
146.628
 20
179.935
 10
146.7
 20
179.94
 10
146.772
 20
179.935
 10
146.842
 20
179.921
 10
146.91
 20
179.898
 10
146.975
 20
179.866
 10
147.035
 20
179.826
 10
147.089
 20
179.779
 10
147.136
 20
179.725
 10
147.176
 20
179.665
 10
147.208
 20
179.6
 10
147.231
 20
179.532
 10
147.245
 20
179.462
 97
0
 75
0
 76
1
 98
0
  0
LWPOLYLINE
  5
4D
330
17
100
AcDbEntity
  8
CUT
100
AcDbPolyline
 90
28
 70
1
 10
6.462
 20
169.448
 10
55.538
 20
169.448
 10
55.538
 20
163.648
 10
58.138
 20
163.648
 10
58.138
 20
157.573
 10
55.538
 20
157.573
 10
55.538
 20
151.773
 10
50.115
 20
151.773
 10
50.115
 20
149.173
 10
44.418
 20
149.173
 10
44.418
 20
151.773
 10
39.271
 20
151.773
 10
39.271
 20
149.173
 10
33.574
 20
149.173
 10
33.574
 20
151.773
 10
28.426
 20
151.773
 10
28.426
 20
149.173
 10
22.729
 20
149.173
 10
22.729
 20
151.773
 10
17.582
 20
151.773
 10
17.582
 20
149.173
 10
11.885
 20
149.173
 10
11.885
 20
151.773
 10
6.462
 20
151.773
 10
6.462
 20
157.573
 10
3.862
 20
157.573
 10
3.862
 20
163.648
 10
6.462
 20
163.648
  0
HATCH
  5
4E
330
17
100
AcDbEntity
  8
RASTER
 62
7
100
AcDbHatch
 10
0.0
 20
0.0
 30
0.0
210
0.0
220
0.0
230
1.0
  2
SOLID
 70
1
 71
0
 91
1
 92
3
 72
0
 73
1
 93
4
 10
7.6
 20
165.41
 10
54.4
 20
165.41
 10
54.4
 20
164.81
 10
7.6
 20
164.81
 97
0
 75
0
 76
1
 98
0
  0
HATCH
  5
4F
330
17
100
AcDbEntity
  8
RASTER
 62
7
100
AcDbHatch
 10
0.0
 20
0.0
 30
0.0
210
0.0
220
0.0
230
1.0
  2
SOLID
 70
1
 71
0
 91
1
 92
3
 72
0
 73
1
 93
4
 10
7.6
 20
161.21
 10
54.4
 20
161.21
 10
54.4
 20
160.61
 10
7.6
 20
160.61
 97
0
 75
0
 76
1
 98
0
  0
HATCH
  5
50
330
17
100
AcDbEntity
  8
RASTER
 62
7
100
AcDbHatch
 10
0.0
 20
0.0
 30
0.0
210
0.0
220
0.0
230
1.0
  2
SOLID
 70
1
 71
0
 91
1
 92
3
 72
0
 73
1
 93
4
 10
7.6
 20
157.01
 10
54.4
 20
157.01
 10
54.4
 20
156.41
 10
7.6
 20
156.41
 97
0
 75
0
 76
1
 98
0
  0
LWPOLYLINE
  5
51
330
17
100
AcDbEntity
  8
CUT
100
AcDbPolyline
 90
28
 70
1
 10
64.462
 20
169.448
 10
113.538
 20
169.448
 10
113.538
 20
163.648
 10
116.138
 20
163.648
 10
116.138
 20
157.573
 10
113.538
 20
157.573
 10
113.538
 20
151.773
 10
108.115
 20
151.773
 10
108.115
 20
149.173
 10
102.418
 20
149.173
 10
102.418
 20
151.773
 10
97.271
 20
151.773
 10
97.271
 20
149.173
 10
91.574
 20
149.173
 10
91.574
 20
151.773
 10
86.426
 20
151.773
 10
86.426
 20
149.173
 10
80.729
 20
149.173
 10
80.729
 20
151.773
 10
75.582
 20
151.773
 10
75.582
 20
149.173
 10
69.885
 20
149.173
 10
69.885
 20
151.773
 10
64.462
 20
151.773
 10
64.462
 20
157.573
 10
61.862
 20
157.573
 10
61.862
 20
163.648
 10
64.462
 20
163.648
  0
HATCH
  5
52
330
17
100
AcDbEntity
  8
RASTER
 62
7
100
AcDbHatch
 10
0.0
 20
0.0
 30
0.0
210
0.0
220
0.0
230
1.0
  2
SOLID
 70
1
 71
0
 91
1
 92
3
 72
0
 73
1
 93
4
 10
65.6
 20
165.41
 10
112.4
 20
165.41
 10
112.4
 20
164.81
 10
65.6
 20
164.81
 97
0
 75
0
 76
1
 98
0
  0
HATCH
  5
53
330
17
100
AcDbEntity
  8
RASTER
 62
7
100
AcDbHatch
 10
0.0
 20
0.0
 30
0.0
210
0.0
220
0.0
230
1.0
  2
SOLID
 70
1
 71
0
 91
1
 92
3
 72
0
 73
1
 93
4
 10
65.6
 20
161.21
 10
112.4
 20
161.21
 10
112.4
 20
160.61
 10
65.6
 20
160.61
 97
0
 75
0
 76
1
 98
0
  0
HATCH
  5
54
330
17
100
AcDbEntity
  8
RASTER
 62
7
100
AcDbHatch
 10
0.0
 20
0.0
 30
0.0
210
0.0
220
0.0
230
1.0
  2
SOLID
 70
1
 71
0
 91
1
 92
3
 72
0
 73
1
 93
4
 10
65.6
 20
157.01
 10
112.4
 20
157.01
 10
112.4
 20
156.41
 10
65.6
 20
156.41
 97
0
 75
0
 76
1
 98
0
  0
LWPOLYLINE
  5
55
330
17
100
AcDbEntity
  8
CUT
100
AcDbPolyline
 90
92
 70
1
 10
3.863
 20
145.448
 10
6.6
 20
145.448
 10
12.491
 20
145.448
 10
12.491
 20
142.848
 10
17.97
 20
142.848
 10
17.97
 20
145.448
 10
23.999
 20
145.448
 10
23.999
 20
142.848
 10
29.478
 20
142.848
 10
29.478
 20
145.448
 10
35.507
 20
145.448
 10
35.507
 20
142.848
 10
40.986
 20
142.848
 10
40.986
 20
145.448
 10
47.014
 20
145.448
 10
47.014
 20
142.848
 10
52.493
 20
142.848
 10
52.493
 20
145.448
 10
58.522
 20
145.448
 10
58.522
 20
142.848
 10
64.001
 20
142.848
 10
64.001
 20
145.448
 10
70.03
 20
145.448
 10
70.03
 20
142.848
 10
75.509
 20
142.848
 10
75.509
 20
145.448
 10
81.4
 20
145.448
 10
84.138
 20
145.448
 10
84.138
 20
142.71
 10
84.138
 20
137.15
 10
81.538
 20
137.15
 10
81.538
 20
132.003
 10
84.138
 20
132.003
 10
84.138
 20
126.306
 10
81.538
 20
126.306
 10
81.538
 20
121.159
 10
84.138
 20
121.159
 10
84.138
 20
115.461
 10
81.538
 20
115.461
 10
81.538
 20
110.314
 10
84.138
 20
110.314
 10
84.138
 20
104.617
 10
81.538
 20
104.617
 10
81.538
 20
99.47
 10
84.138
 20
99.47
 10
84.138
 20
93.91
 10
84.138
 20
91.173
 10
81.4
 20
91.173
 10
75.509
 20
91.173
 10
75.509
 20
93.773
 10
70.03
 20
93.773
 10
70.03
 20
91.173
 10
64.001
 20
91.173
 10
64.001
 20
93.773
 10
58.522
 20
93.773
 10
58.522
 20
91.173
 10
52.493
 20
91.173
 10
52.493
 20
93.773
 10
47.014
 20
93.773
 10
47.014
 20
91.173
 10
40.986
 20
91.173
 10
40.986
 20
93.773
 10
35.507
 20
93.773
 10
35.507
 20
91.173
 10
29.478
 20
91.173
 10
29.478
 20
93.773
 10
23.999
 20
93.773
 10
23.999
 20
91.173
 10
17.97
 20
91.173
 10
17.97
 20
93.773
 10
12.491
 20
93.773
 10
12.491
 20
91.173
 10
6.6
 20
91.173
 10
3.863
 20
91.173
 10
3.863
 20
93.91
 10
3.863
 20
99.47
 10
6.462
 20
99.47
 10
6.462
 20
104.617
 10
3.863
 20
104.617
 10
3.863
 20
110.314
 10
6.462
 20
110.314
 10
6.462
 20
115.461
 10
3.863
 20
115.461
 10
3.863
 20
121.159
 10
6.462
 20
121.159
 10
6.462
 20
126.306
 10
3.863
 20
126.306
 10
3.863
 20
132.003
 10
6.462
 20
132.003
 10
6.462
 20
137.15
 10
3.863
 20
137.15
 10
3.863
 20
142.71
  0
LWPOLYLINE
  5
56
330
17
100
AcDbEntity
  8
CUT
100
AcDbPolyline
 90
40
 70
1
 10
90.6
 20
145.448
 10
165.4
 20
145.448
 10
168.138
 20
145.448
 10
168.138
 20
142.039
 10
165.537
 20
142.039
 10
165.537
 20
139.181
 10
168.138
 20
139.181
 10
168.138
 20
135.773
 10
165.4
 20
135.773
 10
159.784
 20
135.773
 10
159.784
 20
133.173
 10
153.755
 20
133.173
 10
153.755
 20
135.773
 10
148.276
 20
135.773
 10
148.276
 20
133.173
 10
142.247
 20
133.173
 10
142.247
 20
135.773
 10
136.768
 20
135.773
 10
136.768
 20
133.173
 10
130.739
 20
133.173
 10
130.739
 20
135.773
 10
125.261
 20
135.773
 10
125.261
 20
133.173
 10
119.232
 20
133.173
 10
119.232
 20
135.773
 10
113.753
 20
135.773
 10
113.753
 20
133.173
 10
107.724
 20
133.173
 10
107.724
 20
135.773
 10
102.245
 20
135.773
 10
102.245
 20
133.173
 10
96.216
 20
133.173
 10
96.216
 20
135.773
 10
90.6
 20
135.773
 10
87.863
 20
135.773
 10
87.863
 20
139.181
 10
90.462
 20
139.181
 10
90.462
 20
142.039
 10
87.863
 20
142.039
 10
87.863
 20
145.448
  0
HATCH
  5
57
330
17
100
AcDbEntity
  8
RASTER
 62
7
100
AcDbHatch
 10
0.0
 20
0.0
 30
0.0
210
0.0
220
0.0
230
1.0
  2
SOLID
 70
1
 71
0
 91
1
 92
3
 72
0
 73
1
 93
4
 10
91.6
 20
142.11
 10
164.4
 20
142.11
 10
164.4
 20
141.51
 10
91.6
 20
141.51
 97
0
 75
0
 76
1
 98
0
  0
HATCH
  5
58
330
17
100
AcDbEntity
  8
RASTER
 62
7
100
AcDbHatch
 10
0.0
 20
0.0
 30
0.0
210
0.0
220
0.0
230
1.0
  2
SOLID
 70
1
 71
0
 91
1
 92
3
 72
0
 73
1
 93
4
 10
91.6
 20
138.61
 10
164.4
 20
138.61
 10
164.4
 20
138.01
 10
91.6
 20
138.01
 97
0
 75
0
 76
1
 98
0
  0
LWPOLYLINE
  5
59
330
17
100
AcDbEntity
  8
CUT
100
AcDbPolyline
 90
64
 70
1
 10
3.863
 20
81.048
 10
18.96
 20
81.048
 10
18.973
 20
81.048
 10
18.973
 20
84.219
 10
19.082
 20
85.048
 10
19.405
 20
85.829
 10
19.92
 20
86.5
 10
20.591
 20
87.015
 10
21.372
 20
87.338
 10
22.201
 20
87.448
 10
30.679
 20
87.448
 10
31.508
 20
87.338
 10
32.289
 20
87.015
 10
32.96
 20
86.5
 10
33.475
 20
85.829
 10
33.798
 20
85.048
 10
33.908
 20
84.219
 10
33.908
 20
81.048
 10
33.92
 20
81.048
 10
48.88
 20
81.048
 10
48.892
 20
81.048
 10
48.892
 20
84.219
 10
49.002
 20
85.048
 10
49.325
 20
85.829
 10
49.84
 20
86.5
 10
50.511
 20
87.015
 10
51.292
 20
87.338
 10
52.121
 20
87.448
 10
60.599
 20
87.448
 10
61.428
 20
87.338
 10
62.209
 20
87.015
 10
62.88
 20
86.5
 10
63.395
 20
85.829
 10
63.718
 20
85.048
 10
63.828
 20
84.219
 10
63.828
 20
81.048
 10
63.84
 20
81.048
 10
78.938
 20
81.048
 10
78.938
 20
78.372
 10
73.184
 20
78.372
 10
73.184
 20
75.773
 10
67.155
 20
75.773
 10
67.155
 20
78.372
 10
61.676
 20
78.372
 10
61.676
 20
75.773
 10
55.647
 20
75.773
 10
55.647
 20
78.372
 10
50.168
 20
78.372
 10
50.168
 20
75.773
 10
44.139
 20
75.773
 10
44.139
 20
78.372
 10
38.661
 20
78.372
 10
38.661
 20
75.773
 10
32.632
 20
75.773
 10
32.632
 20
78.372
 10
27.153
 20
78.372
 10
27.153
 20
75.773
 10
21.124
 20
75.773
 10
21.124
 20
78.372
 10
15.645
 20
78.372
 10
15.645
 20
75.773
 10
9.616
 20
75.773
 10
9.616
 20
78.372
 10
3.863
 20
78.372
  0
CIRCLE
  5
5A
330
17
100
AcDbEntity
  8
CUT
100
AcDbCircle
 10
26.44
 20
84.21
 30
0.0
 40
1.513
  0
CIRCLE
  5
5B
330
17
100
AcDbEntity
  8
CUT
100
AcDbCircle
 10
56.36
 20
84.21
 30
0.0
 40
1.513
  0
LWPOLYLINE
  5
5C
330
17
100
AcDbEntity
  8
CUT
100
AcDbPolyline
 90
28
 70
1
 10
85.262
 20
87.448
 10
134.337
 20
87.448
 10
134.337
 20
84.314
 10
136.937
 20
84.314
 10
136.937
 20
80.906
 10
134.337
 20
80.906
 10
134.337
 20
77.773
 10
128.915
 20
77.773
 10
128.915
 20
75.173
 10
123.218
 20
75.173
 10
123.218
 20
77.773
 10
118.071
 20
77.773
 10
118.071
 20
75.173
 10
112.374
 20
75.173
 10
112.374
 20
77.773
 10
107.226
 20
77.773
 10
107.226
 20
75.173
 10
101.529
 20
75.173
 10
101.529
 20
77.773
 10
96.382
 20
77.773
 10
96.382
 20
75.173
 10
90.685
 20
75.173
 10
90.685
 20
77.773
 10
85.262
 20
77.773
 10
85.262
 20
80.906
 10
82.663
 20
80.906
 10
82.663
 20
84.314
 10
85.262
 20
84.314
  0
HATCH
  5
5D
330
17
100
AcDbEntity
  8
RASTER
 62
7
100
AcDbHatch
 10
0.0
 20
0.0
 30
0.0
210
0.0
220
0.0
230
1.0
  2
SOLID
 70
1
 71
0
 91
1
 92
3
 72
0
 73
1
 93
4
 10
86.4
 20
83.91
 10
133.2
 20
83.91
 10
133.2
 20
83.51
 10
86.4
 20
83.51
 97
0
 75
0
 76
1
 98
0
  0
LWPOLYLINE
  5
5E
330
17
100
AcDbEntity
  8
CUT
100
AcDbPolyline
 90
28
 70
1
 10
6.462
 20
67.137
 10
55.538
 20
67.137
 10
55.538
 20
64.004
 10
58.138
 20
64.004
 10
58.138
 20
60.596
 10
55.538
 20
60.596
 10
55.538
 20
57.463
 10
50.115
 20
57.463
 10
50.115
 20
54.863
 10
44.418
 20
54.863
 10
44.418
 20
57.463
 10
39.271
 20
57.463
 10
39.271
 20
54.863
 10
33.574
 20
54.863
 10
33.574
 20
57.463
 10
28.426
 20
57.463
 10
28.426
 20
54.863
 10
22.729
 20
54.863
 10
22.729
 20
57.463
 10
17.582
 20
57.463
 10
17.582
 20
54.863
 10
11.885
 20
54.863
 10
11.885
 20
57.463
 10
6.462
 20
57.463
 10
6.462
 20
60.596
 10
3.862
 20
60.596
 10
3.862
 20
64.004
 10
6.462
 20
64.004
  0
HATCH
  5
5F
330
17
100
AcDbEntity
  8
RASTER
 62
7
100
AcDbHatch
 10
0.0
 20
0.0
 30
0.0
210
0.0
220
0.0
230
1.0
  2
SOLID
 70
1
 71
0
 91
1
 92
3
 72
0
 73
1
 93
4
 10
7.6
 20
63.6
 10
54.4
 20
63.6
 10
54.4
 20
63.2
 10
7.6
 20
63.2
 97
0
 75
0
 76
1
 98
0
  0
LWPOLYLINE
  5
60
330
17
100
AcDbEntity
  8
CUT
100
AcDbPolyline
 90
92
 70
1
 10
61.863
 20
67.137
 10
64.6
 20
67.137
 10
70.491
 20
67.137
 10
70.491
 20
64.537
 10
75.97
 20
64.537
 10
75.97
 20
67.137
 10
81.999
 20
67.137
 10
81.999
 20
64.537
 10
87.478
 20
64.537
 10
87.478
 20
67.137
 10
93.507
 20
67.137
 10
93.507
 20
64.537
 10
98.986
 20
64.537
 10
98.986
 20
67.137
 10
105.014
 20
67.137
 10
105.014
 20
64.537
 10
110.493
 20
64.537
 10
110.493
 20
67.137
 10
116.522
 20
67.137
 10
116.522
 20
64.537
 10
122.001
 20
64.537
 10
122.001
 20
67.137
 10
128.03
 20
67.137
 10
128.03
 20
64.537
 10
133.509
 20
64.537
 10
133.509
 20
67.137
 10
139.4
 20
67.137
 10
142.138
 20
67.137
 10
142.138
 20
64.4
 10
142.138
 20
58.84
 10
139.538
 20
58.84
 10
139.538
 20
53.693
 10
142.138
 20
53.693
 10
142.138
 20
47.996
 10
139.538
 20
47.996
 10
139.538
 20
42.849
 10
142.138
 20
42.849
 10
142.138
 20
37.151
 10
139.538
 20
37.151
 10
139.538
 20
32.004
 10
142.138
 20
32.004
 10
142.138
 20
26.307
 10
139.538
 20
26.307
 10
139.538
 20
21.16
 10
142.138
 20
21.16
 10
142.138
 20
15.6
 10
142.138
 20
12.863
 10
139.4
 20
12.863
 10
133.509
 20
12.863
 10
133.509
 20
15.463
 10
128.03
 20
15.463
 10
128.03
 20
12.863
 10
122.001
 20
12.863
 10
122.001
 20
15.463
 10
116.522
 20
15.463
 10
116.522
 20
12.863
 10
110.493
 20
12.863
 10
110.493
 20
15.463
 10
105.014
 20
15.463
 10
105.014
 20
12.863
 10
98.986
 20
12.863
 10
98.986
 20
15.463
 10
93.507
 20
15.463
 10
93.507
 20
12.863
 10
87.478
 20
12.863
 10
87.478
 20
15.463
 10
81.999
 20
15.463
 10
81.999
 20
12.863
 10
75.97
 20
12.863
 10
75.97
 20
15.463
 10
70.491
 20
15.463
 10
70.491
 20
12.863
 10
64.6
 20
12.863
 10
61.863
 20
12.863
 10
61.863
 20
15.6
 10
61.863
 20
21.16
 10
64.462
 20
21.16
 10
64.462
 20
26.307
 10
61.863
 20
26.307
 10
61.863
 20
32.004
 10
64.462
 20
32.004
 10
64.462
 20
37.151
 10
61.863
 20
37.151
 10
61.863
 20
42.849
 10
64.462
 20
42.849
 10
64.462
 20
47.996
 10
61.863
 20
47.996
 10
61.863
 20
53.693
 10
64.462
 20
53.693
 10
64.462
 20
58.84
 10
61.863
 20
58.84
 10
61.863
 20
64.4
  0
HATCH
  5
61
330
17
100
AcDbEntity
  8
RASTER
 62
7
100
AcDbHatch
 10
0.0
 20
0.0
 30
0.0
210
0.0
220
0.0
230
1.0
  2
SOLID
 70
1
 71
0
 91
1
 92
3
 72
0
 73
1
 93
4
 10
65.6
 20
59.7
 10
138.4
 20
59.7
 10
138.4
 20
59.1
 10
65.6
 20
59.1
 97
0
 75
0
 76
1
 98
0
  0
HATCH
  5
62
330
17
100
AcDbEntity
  8
RASTER
 62
7
100
AcDbHatch
 10
0.0
 20
0.0
 30
0.0
210
0.0
220
0.0
230
1.0
  2
SOLID
 70
1
 71
0
 91
1
 92
3
 72
0
 73
1
 93
4
 10
65.6
 20
54.7
 10
138.4
 20
54.7
 10
138.4
 20
54.1
 10
65.6
 20
54.1
 97
0
 75
0
 76
1
 98
0
  0
HATCH
  5
63
330
17
100
AcDbEntity
  8
RASTER
 62
7
100
AcDbHatch
 10
0.0
 20
0.0
 30
0.0
210
0.0
220
0.0
230
1.0
  2
SOLID
 70
1
 71
0
 91
1
 92
3
 72
0
 73
1
 93
4
 10
65.6
 20
49.7
 10
138.4
 20
49.7
 10
138.4
 20
49.1
 10
65.6
 20
49.1
 97
0
 75
0
 76
1
 98
0
  0
HATCH
  5
64
330
17
100
AcDbEntity
  8
RASTER
 62
7
100
AcDbHatch
 10
0.0
 20
0.0
 30
0.0
210
0.0
220
0.0
230
1.0
  2
SOLID
 70
1
 71
0
 91
1
 92
3
 72
0
 73
1
 93
4
 10
65.6
 20
44.7
 10
138.4
 20
44.7
 10
138.4
 20
44.1
 10
65.6
 20
44.1
 97
0
 75
0
 76
1
 98
0
  0
HATCH
  5
65
330
17
100
AcDbEntity
  8
RASTER
 62
7
100
AcDbHatch
 10
0.0
 20
0.0
 30
0.0
210
0.0
220
0.0
230
1.0
  2
SOLID
 70
1
 71
0
 91
1
 92
3
 72
0
 73
1
 93
4
 10
65.6
 20
39.7
 10
138.4
 20
39.7
 10
138.4
 20
39.1
 10
65.6
 20
39.1
 97
0
 75
0
 76
1
 98
0
  0
HATCH
  5
66
330
17
100
AcDbEntity
  8
RASTER
 62
7
100
AcDbHatch
 10
0.0
 20
0.0
 30
0.0
210
0.0
220
0.0
230
1.0
  2
SOLID
 70
1
 71
0
 91
1
 92
3
 72
0
 73
1
 93
4
 10
65.6
 20
34.7
 10
138.4
 20
34.7
 10
138.4
 20
34.1
 10
65.6
 20
34.1
 97
0
 75
0
 76
1
 98
0
  0
HATCH
  5
67
330
17
100
AcDbEntity
  8
RASTER
 62
7
100
AcDbHatch
 10
0.0
 20
0.0
 30
0.0
210
0.0
220
0.0
230
1.0
  2
SOLID
 70
1
 71
0
 91
1
 92
3
 72
0
 73
1
 93
4
 10
65.6
 20
29.7
 10
138.4
 20
29.7
 10
138.4
 20
29.1
 10
65.6
 20
29.1
 97
0
 75
0
 76
1
 98
0
  0
HATCH
  5
68
330
17
100
AcDbEntity
  8
RASTER
 62
7
100
AcDbHatch
 10
0.0
 20
0.0
 30
0.0
210
0.0
220
0.0
230
1.0
  2
SOLID
 70
1
 71
0
 91
1
 92
3
 72
0
 73
1
 93
4
 10
65.6
 20
24.7
 10
138.4
 20
24.7
 10
138.4
 20
24.1
 10
65.6
 20
24.1
 97
0
 75
0
 76
1
 98
0
  0
HATCH
  5
69
330
17
100
AcDbEntity
  8
RASTER
 62
7
100
AcDbHatch
 10
0.0
 20
0.0
 30
0.0
210
0.0
220
0.0
230
1.0
  2
SOLID
 70
1
 71
0
 91
1
 92
3
 72
0
 73
1
 93
4
 10
65.6
 20
19.7
 10
138.4
 20
19.7
 10
138.4
 20
19.1
 10
65.6
 20
19.1
 97
0
 75
0
 76
1
 98
0
  0
HATCH
  5
6A
330
17
100
AcDbEntity
  8
RASTER
 62
7
100
AcDbHatch
 10
0.0
 20
0.0
 30
0.0
210
0.0
220
0.0
230
1.0
  2
SOLID
 70
1
 71
0
 91
1
 92
3
 72
0
 73
1
 93
4
 10
80.0
 20
67.0
 10
84.0
 20
67.0
 10
84.0
 20
13.0
 10
80.0
 20
13.0
 97
0
 75
0
 76
1
 98
0
  0
HATCH
  5
6B
330
17
100
AcDbEntity
  8
RASTER
 62
7
100
AcDbHatch
 10
0.0
 20
0.0
 30
0.0
210
0.0
220
0.0
230
1.0
  2
SOLID
 70
1
 71
0
 91
1
 92
3
 72
0
 73
1
 93
4
 10
120.0
 20
67.0
 10
124.0
 20
67.0
 10
124.0
 20
13.0
 10
120.0
 20
13.0
 97
0
 75
0
 76
1
 98
0
  0
HATCH
  5
6C
330
17
100
AcDbEntity
  8
RASTER
 62
7
100
AcDbHatch
 10
0.0
 20
0.0
 30
0.0
210
0.0
220
0.0
230
1.0
  2
SOLID
 70
1
 71
0
 91
1
 92
3
 72
0
 73
1
 93
48
 10
82.55
 20
56.2
 10
82.545
 20
56.128
 10
82.531
 20
56.058
 10
82.508
 20
55.99
 10
82.476
 20
55.925
 10
82.436
 20
55.865
 10
82.389
 20
55.811
 10
82.335
 20
55.764
 10
82.275
 20
55.724
 10
82.21
 20
55.692
 10
82.142
 20
55.669
 10
82.072
 20
55.655
 10
82.0
 20
55.65
 10
81.928
 20
55.655
 10
81.858
 20
55.669
 10
81.79
 20
55.692
 10
81.725
 20
55.724
 10
81.665
 20
55.764
 10
81.611
 20
55.811
 10
81.564
 20
55.865
 10
81.524
 20
55.925
 10
81.492
 20
55.99
 10
81.469
 20
56.058
 10
81.455
 20
56.128
 10
81.45
 20
56.2
 10
81.455
 20
56.272
 10
81.469
 20
56.342
 10
81.492
 20
56.41
 10
81.524
 20
56.475
 10
81.564
 20
56.535
 10
81.611
 20
56.589
 10
81.665
 20
56.636
 10
81.725
 20
56.676
 10
81.79
 20
56.708
 10
81.858
 20
56.731
 10
81.928
 20
56.745
 10
82.0
 20
56.75
 10
82.072
 20
56.745
 10
82.142
 20
56.731
 10
82.21
 20
56.708
 10
82.275
 20
56.676
 10
82.335
 20
56.636
 10
82.389
 20
56.589
 10
82.436
 20
56.535
 10
82.476
 20
56.475
 10
82.508
 20
56.41
 10
82.531
 20
56.342
 10
82.545
 20
56.272
 97
0
 75
0
 76
1
 98
0
  0
HATCH
  5
6D
330
17
100
AcDbEntity
  8
RASTER
 62
7
100
AcDbHatch
 10
0.0
 20
0.0
 30
0.0
210
0.0
220
0.0
230
1.0
  2
SOLID
 70
1
 71
0
 91
1
 92
3
 72
0
 73
1
 93
48
 10
122.55
 20
56.2
 10
122.545
 20
56.128
 10
122.531
 20
56.058
 10
122.508
 20
55.99
 10
122.476
 20
55.925
 10
122.436
 20
55.865
 10
122.389
 20
55.811
 10
122.335
 20
55.764
 10
122.275
 20
55.724
 10
122.21
 20
55.692
 10
122.142
 20
55.669
 10
122.072
 20
55.655
 10
122.0
 20
55.65
 10
121.928
 20
55.655
 10
121.858
 20
55.669
 10
121.79
 20
55.692
 10
121.725
 20
55.724
 10
121.665
 20
55.764
 10
121.611
 20
55.811
 10
121.564
 20
55.865
 10
121.524
 20
55.925
 10
121.492
 20
55.99
 10
121.469
 20
56.058
 10
121.455
 20
56.128
 10
121.45
 20
56.2
 10
121.455
 20
56.272
 10
121.469
 20
56.342
 10
121.492
 20
56.41
 10
121.524
 20
56.475
 10
121.564
 20
56.535
 10
121.611
 20
56.589
 10
121.665
 20
56.636
 10
121.725
 20
56.676
 10
121.79
 20
56.708
 10
121.858
 20
56.731
 10
121.928
 20
56.745
 10
122.0
 20
56.75
 10
122.072
 20
56.745
 10
122.142
 20
56.731
 10
122.21
 20
56.708
 10
122.275
 20
56.676
 10
122.335
 20
56.636
 10
122.389
 20
56.589
 10
122.436
 20
56.535
 10
122.476
 20
56.475
 10
122.508
 20
56.41
 10
122.531
 20
56.342
 10
122.545
 20
56.272
 97
0
 75
0
 76
1
 98
0
  0
HATCH
  5
6E
330
17
100
AcDbEntity
  8
RASTER
 62
7
100
AcDbHatch
 10
0.0
 20
0.0
 30
0.0
210
0.0
220
0.0
230
1.0
  2
SOLID
 70
1
 71
0
 91
1
 92
3
 72
0
 73
1
 93
48
 10
82.55
 20
40.0
 10
82.545
 20
39.928
 10
82.531
 20
39.858
 10
82.508
 20
39.79
 10
82.476
 20
39.725
 10
82.436
 20
39.665
 10
82.389
 20
39.611
 10
82.335
 20
39.564
 10
82.275
 20
39.524
 10
82.21
 20
39.492
 10
82.142
 20
39.469
 10
82.072
 20
39.455
 10
82.0
 20
39.45
 10
81.928
 20
39.455
 10
81.858
 20
39.469
 10
81.79
 20
39.492
 10
81.725
 20
39.524
 10
81.665
 20
39.564
 10
81.611
 20
39.611
 10
81.564
 20
39.665
 10
81.524
 20
39.725
 10
81.492
 20
39.79
 10
81.469
 20
39.858
 10
81.455
 20
39.928
 10
81.45
 20
40.0
 10
81.455
 20
40.072
 10
81.469
 20
40.142
 10
81.492
 20
40.21
 10
81.524
 20
40.275
 10
81.564
 20
40.335
 10
81.611
 20
40.389
 10
81.665
 20
40.436
 10
81.725
 20
40.476
 10
81.79
 20
40.508
 10
81.858
 20
40.531
 10
81.928
 20
40.545
 10
82.0
 20
40.55
 10
82.072
 20
40.545
 10
82.142
 20
40.531
 10
82.21
 20
40.508
 10
82.275
 20
40.476
 10
82.335
 20
40.436
 10
82.389
 20
40.389
 10
82.436
 20
40.335
 10
82.476
 20
40.275
 10
82.508
 20
40.21
 10
82.531
 20
40.142
 10
82.545
 20
40.072
 97
0
 75
0
 76
1
 98
0
  0
HATCH
  5
6F
330
17
100
AcDbEntity
  8
RASTER
 62
7
100
AcDbHatch
 10
0.0
 20
0.0
 30
0.0
210
0.0
220
0.0
230
1.0
  2
SOLID
 70
1
 71
0
 91
1
 92
3
 72
0
 73
1
 93
48
 10
122.55
 20
40.0
 10
122.545
 20
39.928
 10
122.531
 20
39.858
 10
122.508
 20
39.79
 10
122.476
 20
39.725
 10
122.436
 20
39.665
 10
122.389
 20
39.611
 10
122.335
 20
39.564
 10
122.275
 20
39.524
 10
122.21
 20
39.492
 10
122.142
 20
39.469
 10
122.072
 20
39.455
 10
122.0
 20
39.45
 10
121.928
 20
39.455
 10
121.858
 20
39.469
 10
121.79
 20
39.492
 10
121.725
 20
39.524
 10
121.665
 20
39.564
 10
121.611
 20
39.611
 10
121.564
 20
39.665
 10
121.524
 20
39.725
 10
121.492
 20
39.79
 10
121.469
 20
39.858
 10
121.455
 20
39.928
 10
121.45
 20
40.0
 10
121.455
 20
40.072
 10
121.469
 20
40.142
 10
121.492
 20
40.21
 10
121.524
 20
40.275
 10
121.564
 20
40.335
 10
121.611
 20
40.389
 10
121.665
 20
40.436
 10
121.725
 20
40.476
 10
121.79
 20
40.508
 10
121.858
 20
40.531
 10
121.928
 20
40.545
 10
122.0
 20
40.55
 10
122.072
 20
40.545
 10
122.142
 20
40.531
 10
122.21
 20
40.508
 10
122.275
 20
40.476
 10
122.335
 20
40.436
 10
122.389
 20
40.389
 10
122.436
 20
40.335
 10
122.476
 20
40.275
 10
122.508
 20
40.21
 10
122.531
 20
40.142
 10
122.545
 20
40.072
 97
0
 75
0
 76
1
 98
0
  0
HATCH
  5
70
330
17
100
AcDbEntity
  8
RASTER
 62
7
100
AcDbHatch
 10
0.0
 20
0.0
 30
0.0
210
0.0
220
0.0
230
1.0
  2
SOLID
 70
1
 71
0
 91
1
 92
3
 72
0
 73
1
 93
48
 10
82.55
 20
23.8
 10
82.545
 20
23.728
 10
82.531
 20
23.658
 10
82.508
 20
23.59
 10
82.476
 20
23.525
 10
82.436
 20
23.465
 10
82.389
 20
23.411
 10
82.335
 20
23.364
 10
82.275
 20
23.324
 10
82.21
 20
23.292
 10
82.142
 20
23.269
 10
82.072
 20
23.255
 10
82.0
 20
23.25
 10
81.928
 20
23.255
 10
81.858
 20
23.269
 10
81.79
 20
23.292
 10
81.725
 20
23.324
 10
81.665
 20
23.364
 10
81.611
 20
23.411
 10
81.564
 20
23.465
 10
81.524
 20
23.525
 10
81.492
 20
23.59
 10
81.469
 20
23.658
 10
81.455
 20
23.728
 10
81.45
 20
23.8
 10
81.455
 20
23.872
 10
81.469
 20
23.942
 10
81.492
 20
24.01
 10
81.524
 20
24.075
 10
81.564
 20
24.135
 10
81.611
 20
24.189
 10
81.665
 20
24.236
 10
81.725
 20
24.276
 10
81.79
 20
24.308
 10
81.858
 20
24.331
 10
81.928
 20
24.345
 10
82.0
 20
24.35
 10
82.072
 20
24.345
 10
82.142
 20
24.331
 10
82.21
 20
24.308
 10
82.275
 20
24.276
 10
82.335
 20
24.236
 10
82.389
 20
24.189
 10
82.436
 20
24.135
 10
82.476
 20
24.075
 10
82.508
 20
24.01
 10
82.531
 20
23.942
 10
82.545
 20
23.872
 97
0
 75
0
 76
1
 98
0
  0
HATCH
  5
71
330
17
100
AcDbEntity
  8
RASTER
 62
7
100
AcDbHatch
 10
0.0
 20
0.0
 30
0.0
210
0.0
220
0.0
230
1.0
  2
SOLID
 70
1
 71
0
 91
1
 92
3
 72
0
 73
1
 93
48
 10
122.55
 20
23.8
 10
122.545
 20
23.728
 10
122.531
 20
23.658
 10
122.508
 20
23.59
 10
122.476
 20
23.525
 10
122.436
 20
23.465
 10
122.389
 20
23.411
 10
122.335
 20
23.364
 10
122.275
 20
23.324
 10
122.21
 20
23.292
 10
122.142
 20
23.269
 10
122.072
 20
23.255
 10
122.0
 20
23.25
 10
121.928
 20
23.255
 10
121.858
 20
23.269
 10
121.79
 20
23.292
 10
121.725
 20
23.324
 10
121.665
 20
23.364
 10
121.611
 20
23.411
 10
121.564
 20
23.465
 10
121.524
 20
23.525
 10
121.492
 20
23.59
 10
121.469
 20
23.658
 10
121.455
 20
23.728
 10
121.45
 20
23.8
 10
121.455
 20
23.872
 10
121.469
 20
23.942
 10
121.492
 20
24.01
 10
121.524
 20
24.075
 10
121.564
 20
24.135
 10
121.611
 20
24.189
 10
121.665
 20
24.236
 10
121.725
 20
24.276
 10
121.79
 20
24.308
 10
121.858
 20
24.331
 10
121.928
 20
24.345
 10
122.0
 20
24.35
 10
122.072
 20
24.345
 10
122.142
 20
24.331
 10
122.21
 20
24.308
 10
122.275
 20
24.276
 10
122.335
 20
24.236
 10
122.389
 20
24.189
 10
122.436
 20
24.135
 10
122.476
 20
24.075
 10
122.508
 20
24.01
 10
122.531
 20
23.942
 10
122.545
 20
23.872
 97
0
 75
0
 76
1
 98
0
  0
LWPOLYLINE
  5
72
330
17
100
AcDbEntity
  8
CUT
100
AcDbPolyline
 90
52
 70
1
 10
3.863
 20
8.603
 10
3.866
 20
8.677
 10
3.876
 20
8.75
 10
3.894
 20
8.819
 10
3.921
 20
8.884
 10
3.957
 20
8.944
 10
4.002
 20
8.998
 10
4.056
 20
9.043
 10
4.116
 20
9.079
 10
4.181
 20
9.106
 10
4.25
 20
9.124
 10
4.323
 20
9.134
 10
4.397
 20
9.137
 10
52.403
 20
9.137
 10
52.477
 20
9.134
 10
52.55
 20
9.124
 10
52.619
 20
9.106
 10
52.684
 20
9.079
 10
52.744
 20
9.043
 10
52.798
 20
8.998
 10
52.843
 20
8.944
 10
52.879
 20
8.884
 10
52.906
 20
8.819
 10
52.924
 20
8.75
 10
52.934
 20
8.677
 10
52.938
 20
8.603
 10
52.938
 20
4.397
 10
52.934
 20
4.323
 10
52.924
 20
4.25
 10
52.906
 20
4.181
 10
52.879
 20
4.116
 10
52.843
 20
4.056
 10
52.798
 20
4.002
 10
52.744
 20
3.957
 10
52.684
 20
3.921
 10
52.619
 20
3.894
 10
52.55
 20
3.876
 10
52.477
 20
3.866
 10
52.403
 20
3.863
 10
4.397
 20
3.863
 10
4.323
 20
3.866
 10
4.25
 20
3.876
 10
4.181
 20
3.894
 10
4.116
 20
3.921
 10
4.056
 20
3.957
 10
4.002
 20
4.002
 10
3.957
 20
4.056
 10
3.921
 20
4.116
 10
3.894
 20
4.181
 10
3.876
 20
4.25
 10
3.866
 20
4.323
 10
3.863
 20
4.397
  0
LWPOLYLINE
  5
73
330
17
100
AcDbEntity
  8
CUT
100
AcDbPolyline
 90
52
 70
1
 10
56.662
 20
8.603
 10
56.666
 20
8.677
 10
56.676
 20
8.75
 10
56.694
 20
8.819
 10
56.721
 20
8.884
 10
56.757
 20
8.944
 10
56.802
 20
8.998
 10
56.856
 20
9.043
 10
56.916
 20
9.079
 10
56.981
 20
9.106
 10
57.05
 20
9.124
 10
57.123
 20
9.134
 10
57.197
 20
9.137
 10
105.203
 20
9.137
 10
105.277
 20
9.134
 10
105.35
 20
9.124
 10
105.419
 20
9.106
 10
105.484
 20
9.079
 10
105.544
 20
9.043
 10
105.598
 20
8.998
 10
105.643
 20
8.944
 10
105.679
 20
8.884
 10
105.706
 20
8.819
 10
105.724
 20
8.75
 10
105.734
 20
8.677
 10
105.738
 20
8.603
 10
105.738
 20
4.397
 10
105.734
 20
4.323
 10
105.724
 20
4.25
 10
105.706
 20
4.181
 10
105.679
 20
4.116
 10
105.643
 20
4.056
 10
105.598
 20
4.002
 10
105.544
 20
3.957
 10
105.484
 20
3.921
 10
105.419
 20
3.894
 10
105.35
 20
3.876
 10
105.277
 20
3.866
 10
105.203
 20
3.863
 10
57.197
 20
3.863
 10
57.123
 20
3.866
 10
57.05
 20
3.876
 10
56.981
 20
3.894
 10
56.916
 20
3.921
 10
56.856
 20
3.957
 10
56.802
 20
4.002
 10
56.757
 20
4.056
 10
56.721
 20
4.116
 10
56.694
 20
4.181
 10
56.676
 20
4.25
 10
56.666
 20
4.323
 10
56.662
 20
4.397
  0
ENDSEC
  0
SECTION
  2
OBJECTS
  0
DICTIONARY
  5
A
330
0
100
AcDbDictionary
281
1
  3
ACAD_COLOR
350
B
  3
ACAD_GROUP
350
C
  3
ACAD_LAYOUT
350
D
  3
ACAD_MATERIAL
350
E
  3
ACAD_MLEADERSTYLE
350
F
  3
ACAD_MLINESTYLE
350
10
  3
ACAD_PLOTSETTINGS
350
11
  3
ACAD_PLOTSTYLENAME
350
12
  3
ACAD_SCALELIST
350
14
  3
ACAD_TABLESTYLE
350
15
  3
ACAD_VISUALSTYLE
350
16
  3
EZDXF_META
350
2D
  0
DICTIONARY
  5
B
330
A
100
AcDbDictionary
281
1
  0
DICTIONARY
  5
C
330
A
100
AcDbDictionary
281
1
  0
DICTIONARY
  5
D
330
A
100
AcDbDictionary
281
1
  3
Model
350
1A
  3
Layout1
350
1E
  0
DICTIONARY
  5
E
330
A
100
AcDbDictionary
281
1
  3
ByBlock
350
1F
  3
ByLayer
350
20
  3
Global
350
21
  0
DICTIONARY
  5
F
330
A
100
AcDbDictionary
281
1
  3
Standard
350
2C
  0
DICTIONARY
  5
10
330
A
100
AcDbDictionary
281
1
  3
Standard
350
22
  0
DICTIONARY
  5
11
330
A
100
AcDbDictionary
281
1
  0
ACDBDICTIONARYWDFLT
  5
12
330
A
100
AcDbDictionary
281
1
  3
Normal
350
13
100
AcDbDictionaryWithDefault
340
13
  0
ACDBPLACEHOLDER
  5
13
330
12
  0
DICTIONARY
  5
14
330
A
100
AcDbDictionary
281
1
  0
DICTIONARY
  5
15
330
A
100
AcDbDictionary
281
1
  0
DICTIONARY
  5
16
330
A
100
AcDbDictionary
281
1
  0
LAYOUT
  5
1A
330
D
100
AcDbPlotSettings
  1

  4
A3
  6

 40
7.5
 41
20.0
 42
7.5
 43
20.0
 44
420.0
 45
297.0
 46
0.0
 47
0.0
 48
0.0
 49
0.0
140
0.0
141
0.0
142
1.0
143
1.0
 70
1024
 72
1
 73
0
 74
5
  7

 75
16
 76
0
 77
2
 78
300
147
1.0
148
0.0
149
0.0
100
AcDbLayout
  1
Model
 70
1
 71
0
 10
0.0
 20
0.0
 11
420.0
 21
297.0
 12
0.0
 22
0.0
 32
0.0
 14
1e+20
 24
1e+20
 34
1e+20
 15
-1e+20
 25
-1e+20
 35
-1e+20
146
0.0
 13
0.0
 23
0.0
 33
0.0
 16
1.0
 26
0.0
 36
0.0
 17
0.0
 27
1.0
 37
0.0
 76
1
330
17
  0
LAYOUT
  5
1E
330
D
100
AcDbPlotSettings
  1

  4
A3
  6

 40
7.5
 41
20.0
 42
7.5
 43
20.0
 44
420.0
 45
297.0
 46
0.0
 47
0.0
 48
0.0
 49
0.0
140
0.0
141
0.0
142
1.0
143
1.0
 70
0
 72
1
 73
0
 74
5
  7

 75
16
 76
0
 77
2
 78
300
147
1.0
148
0.0
149
0.0
100
AcDbLayout
  1
Layout1
 70
1
 71
1
 10
0.0
 20
0.0
 11
420.0
 21
297.0
 12
0.0
 22
0.0
 32
0.0
 14
1e+20
 24
1e+20
 34
1e+20
 15
-1e+20
 25
-1e+20
 35
-1e+20
146
0.0
 13
0.0
 23
0.0
 33
0.0
 16
1.0
 26
0.0
 36
0.0
 17
0.0
 27
1.0
 37
0.0
 76
1
330
1B
  0
MATERIAL
  5
1F
102
{ACAD_REACTORS
330
E
102
}
330
E
100
AcDbMaterial
  1
ByBlock
  2

 70
0
 40
1.0
 71
1
 41
1.0
 91
-1023410177
 42
1.0
 72
1
  3

 73
1
 74
1
 75
1
 44
0.5
 73
0
 45
1.0
 46
1.0
 77
1
  4

 78
1
 79
1
170
1
 48
1.0
171
1
  6

172
1
173
1
174
1
140
1.0
141
1.0
175
1
  7

176
1
177
1
178
1
143
1.0
179
1
  8

270
1
271
1
272
1
145
1.0
146
1.0
273
1
  9

274
1
275
1
276
1
 42
1.0
 72
1
  3

 73
1
 74
1
 75
1
 94
63
  0
MATERIAL
  5
20
102
{ACAD_REACTORS
330
E
102
}
330
E
100
AcDbMaterial
  1
ByLayer
  2

 70
0
 40
1.0
 71
1
 41
1.0
 91
-1023410177
 42
1.0
 72
1
  3

 73
1
 74
1
 75
1
 44
0.5
 73
0
 45
1.0
 46
1.0
 77
1
  4

 78
1
 79
1
170
1
 48
1.0
171
1
  6

172
1
173
1
174
1
140
1.0
141
1.0
175
1
  7

176
1
177
1
178
1
143
1.0
179
1
  8

270
1
271
1
272
1
145
1.0
146
1.0
273
1
  9

274
1
275
1
276
1
 42
1.0
 72
1
  3

 73
1
 74
1
 75
1
 94
63
  0
MATERIAL
  5
21
102
{ACAD_REACTORS
330
E
102
}
330
E
100
AcDbMaterial
  1
Global
  2

 70
0
 40
1.0
 71
1
 41
1.0
 91
-1023410177
 42
1.0
 72
1
  3

 73
1
 74
1
 75
1
 44
0.5
 73
0
 45
1.0
 46
1.0
 77
1
  4

 78
1
 79
1
170
1
 48
1.0
171
1
  6

172
1
173
1
174
1
140
1.0
141
1.0
175
1
  7

176
1
177
1
178
1
143
1.0
179
1
  8

270
1
271
1
272
1
145
1.0
146
1.0
273
1
  9

274
1
275
1
276
1
 42
1.0
 72
1
  3

 73
1
 74
1
 75
1
 94
63
  0
MLINESTYLE
  5
22
102
{ACAD_REACTORS
330
10
102
}
330
10
100
AcDbMlineStyle
  2
Standard
 70
0
  3

 62
256
 51
90.0
 52
90.0
 71
2
 49
0.5
 62
256
  6
BYLAYER
 49
-0.5
 62
256
  6
BYLAYER
  0
MLEADERSTYLE
  5
2C
102
{ACAD_REACTORS
330
F
102
}
330
F
100
AcDbMLeaderStyle
179
2
170
2
171
1
172
0
 90
2
 40
0.0
 41
0.0
173
1
 91
-1056964608
 92
-2
290
1
 42
2.0
291
1
 43
8.0
  3
Standard
 44
4.0
300

342
29
174
1
175
1
176
0
178
1
 93
-1056964608
 45
4.0
292
0
297
0
 46
4.0
 94
-1056964608
 47
1.0
 49
1.0
140
1.0
294
1
141
0.0
177
0
142
1.0
295
0
296
0
143
3.75
271
0
272
9
273
9
  0
DICTIONARY
  5
2D
330
A
100
AcDbDictionary
280
1
281
1
  3
CREATED_BY_EZDXF
350
2E
  3
WRITTEN_BY_EZDXF
350
76
  0
DICTIONARYVAR
  5
2E
330
2D
100
DictionaryVariables
280
0
  1
1.4.2 @ 2026-08-25T17:19:26.864819+00:00
  0
DICTIONARYVAR
  5
76
330
2D
100
DictionaryVariables
280
0
  1
1.4.2 @ 2026-08-25T17:19:26.870760+00:00
  0
ENDSEC
  0
EOF
