  0
SECTION
  2
HEADER
  9
$ACADVER
  1
AC1015
  9
$ACADMAINTVER
 70
6
  9
$DWGCODEPAGE
  3
ANSI_1252
  9
$INSBASE
 10
0.0
 20
0.0
 30
0.0
  9
$EXTMIN
 10
1e+20
 20
1e+20
 30
1e+20
  9
$EXTMAX
 10
-1e+20
 20
-1e+20
 30
-1e+20
  9
$LIMMIN
 10
0.0
 20
0.0
  9
$LIMMAX
 10
420.0
 20
297.0
  9
$ORTHOMODE
 70
0
  9
$REGENMODE
 70
1
  9
$FILLMODE
 70
1
  9
$QTEXTMODE
 70
0
  9
$MIRRTEXT
 70
1
  9
$LTSCALE
 40
1.0
  9
$ATTMODE
 70
1
  9
$TEXTSIZE
 40
2.5
  9
$TRACEWID
 40
1.0
  9
$TEXTSTYLE
  7
Standard
  9
$CLAYER
  8
0
  9
$CELTYPE
  6
ByLayer
  9
$CECOLOR
 62
256
  9
$CELTSCALE
 40
1.0
  9
$DISPSILH
 70
0
  9
$DIMSCALE
 40
1.0
  9
$DIMASZ
 40
2.5
  9
$DIMEXO
 40
0.625
  9
$DIMDLI
 40
3.75
  9
$DIMRND
 40
0.0
  9
$DIMDLE
 40
0.0
  9
$DIMEXE
 40
1.25
  9
$DIMTP
 40
0.0
  9
$DIMTM
 40
0.0
  9
$DIMTXT
 40
2.5
  9
$DIMCEN
 40
2.5
  9
$DIMTSZ
 40
0.0
  9
$DIMTOL
 70
0
  9
$DIMLIM
 70
0
  9
$DIMTIH
 70
0
  9
$DIMTOH
 70
0
  9
$DIMSE1
 70
0
  9
$DIMSE2
 70
0
  9
$DIMTAD
 70
1
  9
$DIMZIN
 70
8
  9
$DIMBLK
  1

  9
$DIMASO
 70
1
  9
$DIMSHO
 70
1
  9
$DIMPOST
  1

  9
$DIMAPOST
  1

  9
$DIMALT
 70
0
  9
$DIMALTD
 70
3
  9
$DIMALTF
 40
0.03937007874
  9
$DIMLFAC
 40
1.0
  9
$DIMTOFL
 70
1
  9
$DIMTVP
 40
0.0
  9
$DIMTIX
 70
0
  9
$DIMSOXD
 70
0
  9
$DIMSAH
 70
0
  9
$DIMBLK1
  1

  9
$DIMBLK2
  1

  9
$DIMSTYLE
  2
ISO-25
  9
$DIMCLRD
 70
0
  9
$DIMCLRE
 70
0
  9
$DIMCLRT
 70
0
  9
$DIMTFAC
 40
1.0
  9
$DIMGAP
 40
0.625
  9
$DIMJUST
 70
0
  9
$DIMSD1
 70
0
  9
$DIMSD2
 70
0
  9
$DIMTOLJ
 70
0
  9
$DIMTZIN
 70
8
  9
$DIMALTZ
 70
0
  9
$DIMALTTZ
 70
0
  9
$DIMUPT
 70
0
  9
$DIMDEC
 70
2
  9
$DIMTDEC
 70
2
  9
$DIMALTU
 70
2
  9
$DIMALTTD
 70
3
  9
$DIMTXSTY
  7
Standard
  9
$DIMAUNIT
 70
0
  9
$DIMADEC
 70
0
  9
$DIMALTRND
 40
0.0
  9
$DIMAZIN
 70
0
  9
$DIMDSEP
 70
44
  9
$DIMATFIT
 70
3
  9
$DIMFRAC
 70
0
  9
$DIMLDRBLK
  1

  9
$DIMLUNIT
 70
2
  9
$DIMLWD
 70
-2
  9
$DIMLWE
 70
-2
  9
$DIMTMOVE
 70
0
  9
$LUNITS
 70
2
  9
$LUPREC
 70
4
  9
$SKETCHINC
 40
1.0
  9
$FILLETRAD
 40
10.0
  9
$AUNITS
 70
0
  9
$AUPREC
 70
2
  9
$MENU
  1
.
  9
$ELEVATION
 40
0.0
  9
$PELEVATION
 40
0.0
  9
$THICKNESS
 40
0.0
  9
$LIMCHECK
 70
0
  9
$CHAMFERA
 40
0.0
  9
$CHAMFERB
 40
0.0
  9
$CHAMFERC
 40
0.0
  9
$CHAMFERD
 40
0.0
  9
$SKPOLY
 70
0
  9
$TDCREATE
 40
2461294.8779513887
  9
$TDUCREATE
 40
2458532.153996898
  9
$TDUPDATE
 40
2461294.8779513887
  9
$TDUUPDATE
 40
2458532.1544311
  9
$TDINDWG
 40
0.0
  9
$TDUSRTIMER
 40
0.0
  9
$USRTIMER
 70
1
  9
$ANGBASE
 50
0.0
  9
$ANGDIR
 70
0
  9
$PDMODE
 70
0
  9
$PDSIZE
 40
0.0
  9
$PLINEWID
 40
0.0
  9
$SPLFRAME
 70
0
  9
$SPLINETYPE
 70
6
  9
$SPLINESEGS
 70
8
  9
$HANDSEED
  5
55
  9
$SURFTAB1
 70
6
  9
$SURFTAB2
 70
6
  9
$SURFTYPE
 70
6
  9
$SURFU
 70
6
  9
$SURFV
 70
6
  9
$UCSBASE
  2

  9
$UCSNAME
  2

  9
$UCSORG
 10
0.0
 20
0.0
 30
0.0
  9
$UCSXDIR
 10
1.0
 20
0.0
 30
0.0
  9
$UCSYDIR
 10
0.0
 20
1.0
 30
0.0
  9
$UCSORTHOREF
  2

  9
$UCSORTHOVIEW
 70
0
  9
$UCSORGTOP
 10
0.0
 20
0.0
 30
0.0
  9
$UCSORGBOTTOM
 10
0.0
 20
0.0
 30
0.0
  9
$UCSORGLEFT
 10
0.0
 20
0.0
 30
0.0
  9
$UCSORGRIGHT
 10
0.0
 20
0.0
 30
0.0
  9
$UCSORGFRONT
 10
0.0
 20
0.0
 30
0.0
  9
$UCSORGBACK
 10
0.0
 20
0.0
 30
0.0
  9
$PUCSBASE
  2

  9
$PUCSNAME
  2

  9
$PUCSORG
 10
0.0
 20
0.0
 30
0.0
  9
$PUCSXDIR
 10
1.0
 20
0.0
 30
0.0
  9
$PUCSYDIR
 10
0.0
 20
1.0
 30
0.0
  9
$PUCSORTHOREF
  2

  9
$PUCSORTHOVIEW
 70
0
  9
$PUCSORGTOP
 10
0.0
 20
0.0
 30
0.0
  9
$PUCSORGBOTTOM
 10
0.0
 20
0.0
 30
0.0
  9
$PUCSORGLEFT
 10
0.0
 20
0.0
 30
0.0
  9
$PUCSORGRIGHT
 10
0.0
 20
0.0
 30
0.0
  9
$PUCSORGFRONT
 10
0.0
 20
0.0
 30
0.0
  9
$PUCSORGBACK
 10
0.0
 20
0.0
 30
0.0
  9
$USERI1
 70
0
  9
$USERI2
 70
0
  9
$USERI3
 70
0
  9
$USERI4
 70
0
  9
$USERI5
 70
0
  9
$USERR1
 40
0.0
  9
$USERR2
 40
0.0
  9
$USERR3
 40
0.0
  9
$USERR4
 40
0.0
  9
$USERR5
 40
0.0
  9
$WORLDVIEW
 70
1
  9
$SHADEDGE
 70
3
  9
$SHADEDIF
 70
70
  9
$TILEMODE
 70
1
  9
$MAXACTVP
 70
64
  9
$PINSBASE
 10
0.0
 20
0.0
 30
0.0
  9
$PLIMCHECK
 70
0
  9
$PEXTMIN
 10
1e+20
 20
1e+20
 30
1e+20
  9
$PEXTMAX
 10
-1e+20
 20
-1e+20
 30
-1e+20
  9
$PLIMMIN
 10
0.0
 20
0.0
  9
$PLIMMAX
 10
420.0
 20
297.0
  9
$UNITMODE
 70
0
  9
$VISRETAIN
 70
1
  9
$PLINEGEN
 70
0
  9
$PSLTSCALE
 70
1
  9
$TREEDEPTH
 70
3020
  9
$CMLSTYLE
  2
Standard
  9
$CMLJUST
 70
0
  9
$CMLSCALE
 40
20.0
  9
$PROXYGRAPHICS
 70
1
  9
$MEASUREMENT
 70
1
  9
$CELWEIGHT
370
-1
  9
$ENDCAPS
280
0
  9
$JOINSTYLE
280
0
  9
$LWDISPLAY
290
0
  9
$INSUNITS
 70
4
  9
$HYPERLINKBASE
  1

  9
$STYLESHEET
  1

  9
$XEDIT
290
1
  9
$CEPSNTYPE
380
0
  9
$PSTYLEMODE
290
1
  9
$FINGERPRINTGUID
  2
{37944FBE-65D6-42DB-83F0-2F45FD986E20}
  9
$VERSIONGUID
  2
{5B1D39DD-15CE-4C9F-B547-7DCD0A3C232A}
  9
$EXTNAMES
290
1
  9
$PSVPSCALE
 40
0.0
  9
$OLESTARTUP
290
0
  0
ENDSEC
  0
SECTION
  2
CLASSES
  0
CLASS
  1
ACDBDICTIONARYWDFLT
  2
AcDbDictionaryWithDefault
  3
ObjectDBX Classes
 90
0
280
0
281
0
  0
CLASS
  1
SUN
  2
AcDbSun
  3
SCENEOE
 90
1153
280
0
281
0
  0
CLASS
  1
VISUALSTYLE
  2
AcDbVisualStyle
  3
ObjectDBX Classes
 90
4095
280
0
281
0
  0
CLASS
  1
MATERIAL
  2
AcDbMaterial
  3
ObjectDBX Classes
 90
1153
280
0
281
0
  0
CLASS
  1
SCALE
  2
AcDbScale
  3
ObjectDBX Classes
 90
1153
280
0
281
0
  0
CLASS
  1
TABLESTYLE
  2
AcDbTableStyle
  3
ObjectDBX Classes
 90
4095
280
0
281
0
  0
CLASS
  1
MLEADERSTYLE
  2
AcDbMLeaderStyle
  3
ACDB_MLEADERSTYLE_CLASS
 90
4095
280
0
281
0
  0
CLASS
  1
DICTIONARYVAR
  2
AcDbDictionaryVar
  3
ObjectDBX Classes
 90
0
280
0
281
0
  0
CLASS
  1
CELLSTYLEMAP
  2
AcDbCellStyleMap
  3
ObjectDBX Classes
 90
1152
280
0
281
0
  0
CLASS
  1
MENTALRAYRENDERSETTINGS
  2
AcDbMentalRayRenderSettings
  3
SCENEOE
 90
1024
280
0
281
0
  0
CLASS
  1
ACDBDETAILVIEWSTYLE
  2
AcDbDetailViewStyle
  3
ObjectDBX Classes
 90
1025
280
0
281
0
  0
CLASS
  1
ACDBSECTIONVIEWSTYLE
  2
AcDbSectionViewStyle
  3
ObjectDBX Classes
 90
1025
280
0
281
0
  0
CLASS
  1
RASTERVARIABLES
  2
AcDbRasterVariables
  3
ISM
 90
0
280
0
281
0
  0
CLASS
  1
ACDBPLACEHOLDER
  2
AcDbPlaceHolder
  3
ObjectDBX Classes
 90
0
280
0
281
0
  0
CLASS
  1
LAYOUT
  2
AcDbLayout
  3
ObjectDBX Classes
 90
0
280
0
281
0
  0
ENDSEC
  0
SECTION
  2
TABLES
  0
TABLE
  2
VPORT
  5
8
330
0
100
AcDbSymbolTable
 70
1
  0
VPORT
  5
23
330
8
100
AcDbSymbolTableRecord
100
AcDbViewportTableRecord
  2
*Active
 70
0
 10
0.0
 20
0.0
 11
1.0
 21
1.0
 12
0.0
 22
0.0
 13
0.0
 23
0.0
 14
0.5
 24
0.5
 15
0.5
 25
0.5
 16
0.0
 26
0.0
 36
1.0
 17
0.0
 27
0.0
 37
0.0
 40
1000.0
 41
1.34
 42
50.0
 43
0.0
 44
0.0
 50
0.0
 51
0.0
 71
0
 72
1000
 73
1
 74
3
 75
0
 76
0
 77
0
 78
0
281
0
 65
0
146
0.0
  0
ENDTAB
  0
TABLE
  2
LTYPE
  5
2
330
0
100
AcDbSymbolTable
 70
3
  0
LTYPE
  5
24
330
2
100
AcDbSymbolTableRecord
100
AcDbLinetypeTableRecord
  2
ByBlock
 70
0
  3

 72
65
 73
0
 40
0.0
  0
LTYPE
  5
25
330
2
100
AcDbSymbolTableRecord
100
AcDbLinetypeTableRecord
  2
ByLayer
 70
0
  3

 72
65
 73
0
 40
0.0
  0
LTYPE
  5
26
330
2
100
AcDbSymbolTableRecord
100
AcDbLinetypeTableRecord
  2
Continuous
 70
0
  3

 72
65
 73
0
 40
0.0
  0
ENDTAB
  0
TABLE
  2
LAYER
  5
1
330
0
100
AcDbSymbolTable
 70
4
  0
LAYER
  5
27
330
1
100
AcDbSymbolTableRecord
100
AcDbLayerTableRecord
  2
0
 70
0
 62
7
  6
Continuous
370
-3
390
13
  0
LAYER
  5
28
330
1
100
AcDbSymbolTableRecord
100
AcDbLayerTableRecord
  2
Defpoints
 70
0
 62
7
  6
Continuous
290
0
370
-3
390
13
  0
LAYER
  5
2F
330
1
100
AcDbSymbolTableRecord
100
AcDbLayerTableRecord
  2
CUT
 70
0
 62
1
  6
Continuous
370
-3
390
13
  0
LAYER
  5
30
330
1
100
AcDbSymbolTableRecord
100
AcDbLayerTableRecord
  2
RASTER
 70
0
 62
7
  6
Continuous
370
-3
390
13
  0
ENDTAB
  0
TABLE
  2
STYLE
  5
5
330
0
100
AcDbSymbolTable
 70
1
  0
STYLE
  5
29
330
5
100
AcDbSymbolTableRecord
100
AcDbTextStyleTableRecord
  2
Standard
 70
0
 40
0.0
 41
1.0
 50
0.0
 71
0
 42
2.5
  3
txt
  4

  0
ENDTAB
  0
TABLE
  2
VIEW
  5
7
330
0
100
AcDbSymbolTable
 70
0
  0
ENDTAB
  0
TABLE
  2
UCS
  5
6
330
0
100
AcDbSymbolTable
 70
0
  0
ENDTAB
  0
TABLE
  2
APPID
  5
3
330
0
100
AcDbSymbolTable
 70
3
  0
APPID
  5
2A
330
3
100
AcDbSymbolTableRecord
100
AcDbRegAppTableRecord
  2
ACAD
 70
0
  0
APPID
  5
52
330
3
100
AcDbSymbolTableRecord
100
AcDbRegAppTableRecord
  2
HATCHBACKGROUNDCOLOR
 70
0
  0
APPID
  5
53
330
3
100
AcDbSymbolTableRecord
100
AcDbRegAppTableRecord
  2
EZDXF
 70
0
  0
ENDTAB
  0
TABLE
  2
DIMSTYLE
  5
4
330
0
100
AcDbSymbolTable
 70
1
100
AcDbDimStyleTable
  0
DIMSTYLE
105
2B
330
4
100
AcDbSymbolTableRecord
100
AcDbDimStyleTableRecord
  2
Standard
 70
0
  3

  4

 40
1.0
 41
2.5
 42
0.625
 43
3.75
 44
1.25
 45
0.0
 46
0.0
 47
0.0
 48
0.0
140
2.5
141
2.5
142
0.0
143
0.03937007874
144
1.0
145
0.0
146
1.0
147
0.625
148
0.0
 71
0
 72
0
 73
0
 74
0
 75
0
 76
0
 77
1
 78
8
 79
3
170
0
171
3
172
1
173
0
174
0
175
0
176
0
177
0
178
0
179
2
271
2
272
2
273
2
274
3
275
0
276
0
277
2
278
44
279
0
280
0
281
0
282
0
283
0
284
8
285
0
286
0
288
0
289
3
371
-2
372
-2
  0
ENDTAB
  0
TABLE
  2
BLOCK_RECORD
  5
9
330
0
100
AcDbSymbolTable
 70
2
  0
BLOCK_RECORD
  5
17
330
9
100
AcDbSymbolTableRecord
100
AcDbBlockTableRecord
  2
*Model_Space
340
1A
  0
BLOCK_RECORD
  5
1B
330
9
100
AcDbSymbolTableRecord
100
AcDbBlockTableRecord
  2
*Paper_Space
340
1E
  0
ENDTAB
  0
ENDSEC
  0
SECTION
  2
BLOCKS
  0
BLOCK
  5
18
330
17
100
AcDbEntity
  8
0
100
AcDbBlockBegin
  2
*Model_Space
 70
0
 10
0.0
 20
0.0
 30
0.0
  3
*Model_Space
  1

  0
ENDBLK
  5
19
330
17
100
AcDbEntity
  8
0
100
AcDbBlockEnd
  0
BLOCK
  5
1C
330
1B
100
AcDbEntity
  8
0
100
AcDbBlockBegin
  2
*Paper_Space
 70
0
 10
0.0
 20
0.0
 30
0.0
  3
*Paper_Space
  1

  0
ENDBLK
  5
1D
330
1B
100
AcDbEntity
  8
0
100
AcDbBlockEnd
  0
ENDSEC
  0
SECTION
  2
ENTITIES
  0
LWPOLYLINE
  5
31
330
17
100
AcDbEntity
  8
CUT
100
AcDbPolyline
 90
36
 70
1
 10
7.1
 20
92.6
 10
67.14
 20
92.6
 10
70.28
 20
92.6
 10
70.28
 20
90.22
 10
67.18
 20
90.22
 10
67.18
 20
88.0
 10
70.28
 20
88.0
 10
70.28
 20
85.62
 10
67.14
 20
85.62
 10
61.722
 20
85.62
 10
61.722
 20
82.52
 10
56.184
 20
82.52
 10
56.184
 20
85.62
 10
50.805
 20
85.62
 10
50.805
 20
82.52
 10
45.267
 20
82.52
 10
45.267
 20
85.62
 10
39.889
 20
85.62
 10
39.889
 20
82.52
 10
34.351
 20
82.52
 10
34.351
 20
85.62
 10
28.973
 20
85.62
 10
28.973
 20
82.52
 10
23.435
 20
82.52
 10
23.435
 20
85.62
 10
18.056
 20
85.62
 10
18.056
 20
82.52
 10
12.518
 20
82.52
 10
12.518
 20
85.62
 10
7.1
 20
85.62
 10
3.96
 20
85.62
 10
3.96
 20
88.0
 10
7.06
 20
88.0
 10
7.06
 20
90.22
 10
3.96
 20
90.22
 10
3.96
 20
92.6
  0
LWPOLYLINE
  5
32
330
17
100
AcDbEntity
  8
CUT
100
AcDbPolyline
 90
4
 70
1
 10
12.14
 20
90.17
 10
62.1
 20
90.17
 10
62.1
 20
88.05
 10
12.14
 20
88.05
  0
HATCH
  5
33
330
17
100
AcDbEntity
  8
RASTER
 62
7
100
AcDbHatch
 10
0.0
 20
0.0
 30
0.0
210
0.0
220
0.0
230
1.0
  2
SOLID
 70
1
 71
0
 91
1
 92
3
 72
0
 73
1
 93
4
 10
7.7
 20
92.16
 10
11.5
 20
92.16
 10
11.5
 20
86.06
 10
7.7
 20
86.06
 97
0
 75
0
 76
1
 98
0
  0
HATCH
  5
34
330
17
100
AcDbEntity
  8
RASTER
 62
7
100
AcDbHatch
 10
0.0
 20
0.0
 30
0.0
210
0.0
220
0.0
230
1.0
  2
SOLID
 70
1
 71
0
 91
1
 92
3
 72
0
 73
1
 93
4
 10
62.74
 20
92.16
 10
66.54
 20
92.16
 10
66.54
 20
86.06
 10
62.74
 20
86.06
 97
0
 75
0
 76
1
 98
0
  0
HATCH
  5
35
330
17
100
AcDbEntity
  8
RASTER
 62
7
100
AcDbHatch
 10
0.0
 20
0.0
 30
0.0
210
0.0
220
0.0
230
1.0
  2
SOLID
 70
1
 71
0
 91
1
 92
3
 72
0
 73
1
 93
48
 10
14.2
 20
91.81
 10
14.196
 20
91.745
 10
14.183
 20
91.681
 10
14.162
 20
91.619
 10
14.133
 20
91.56
 10
14.097
 20
91.506
 10
14.054
 20
91.456
 10
14.004
 20
91.413
 10
13.95
 20
91.377
 10
13.891
 20
91.348
 10
13.829
 20
91.327
 10
13.765
 20
91.314
 10
13.7
 20
91.31
 10
13.635
 20
91.314
 10
13.571
 20
91.327
 10
13.509
 20
91.348
 10
13.45
 20
91.377
 10
13.396
 20
91.413
 10
13.346
 20
91.456
 10
13.303
 20
91.506
 10
13.267
 20
91.56
 10
13.238
 20
91.619
 10
13.217
 20
91.681
 10
13.204
 20
91.745
 10
13.2
 20
91.81
 10
13.204
 20
91.875
 10
13.217
 20
91.939
 10
13.238
 20
92.001
 10
13.267
 20
92.06
 10
13.303
 20
92.114
 10
13.346
 20
92.164
 10
13.396
 20
92.207
 10
13.45
 20
92.243
 10
13.509
 20
92.272
 10
13.571
 20
92.293
 10
13.635
 20
92.306
 10
13.7
 20
92.31
 10
13.765
 20
92.306
 10
13.829
 20
92.293
 10
13.891
 20
92.272
 10
13.95
 20
92.243
 10
14.004
 20
92.207
 10
14.054
 20
92.164
 10
14.097
 20
92.114
 10
14.133
 20
92.06
 10
14.162
 20
92.001
 10
14.183
 20
91.939
 10
14.196
 20
91.875
 97
0
 75
0
 76
1
 98
0
  0
HATCH
  5
36
330
17
100
AcDbEntity
  8
RASTER
 62
7
100
AcDbHatch
 10
0.0
 20
0.0
 30
0.0
210
0.0
220
0.0
230
1.0
  2
SOLID
 70
1
 71
0
 91
1
 92
3
 72
0
 73
1
 93
48
 10
61.04
 20
91.81
 10
61.036
 20
91.745
 10
61.023
 20
91.681
 10
61.002
 20
91.619
 10
60.973
 20
91.56
 10
60.937
 20
91.506
 10
60.894
 20
91.456
 10
60.844
 20
91.413
 10
60.79
 20
91.377
 10
60.731
 20
91.348
 10
60.669
 20
91.327
 10
60.605
 20
91.314
 10
60.54
 20
91.31
 10
60.475
 20
91.314
 10
60.411
 20
91.327
 10
60.349
 20
91.348
 10
60.29
 20
91.377
 10
60.236
 20
91.413
 10
60.186
 20
91.456
 10
60.143
 20
91.506
 10
60.107
 20
91.56
 10
60.078
 20
91.619
 10
60.057
 20
91.681
 10
60.044
 20
91.745
 10
60.04
 20
91.81
 10
60.044
 20
91.875
 10
60.057
 20
91.939
 10
60.078
 20
92.001
 10
60.107
 20
92.06
 10
60.143
 20
92.114
 10
60.186
 20
92.164
 10
60.236
 20
92.207
 10
60.29
 20
92.243
 10
60.349
 20
92.272
 10
60.411
 20
92.293
 10
60.475
 20
92.306
 10
60.54
 20
92.31
 10
60.605
 20
92.306
 10
60.669
 20
92.293
 10
60.731
 20
92.272
 10
60.79
 20
92.243
 10
60.844
 20
92.207
 10
60.894
 20
92.164
 10
60.937
 20
92.114
 10
60.973
 20
92.06
 10
61.002
 20
92.001
 10
61.023
 20
91.939
 10
61.036
 20
91.875
 97
0
 75
0
 76
1
 98
0
  0
HATCH
  5
37
330
17
100
AcDbEntity
  8
RASTER
 62
7
100
AcDbHatch
 10
0.0
 20
0.0
 30
0.0
210
0.0
220
0.0
230
1.0
  2
SOLID
 70
1
 71
0
 91
1
 92
3
 72
0
 73
1
 93
48
 10
14.2
 20
86.41
 10
14.196
 20
86.345
 10
14.183
 20
86.281
 10
14.162
 20
86.219
 10
14.133
 20
86.16
 10
14.097
 20
86.106
 10
14.054
 20
86.056
 10
14.004
 20
86.013
 10
13.95
 20
85.977
 10
13.891
 20
85.948
 10
13.829
 20
85.927
 10
13.765
 20
85.914
 10
13.7
 20
85.91
 10
13.635
 20
85.914
 10
13.571
 20
85.927
 10
13.509
 20
85.948
 10
13.45
 20
85.977
 10
13.396
 20
86.013
 10
13.346
 20
86.056
 10
13.303
 20
86.106
 10
13.267
 20
86.16
 10
13.238
 20
86.219
 10
13.217
 20
86.281
 10
13.204
 20
86.345
 10
13.2
 20
86.41
 10
13.204
 20
86.475
 10
13.217
 20
86.539
 10
13.238
 20
86.601
 10
13.267
 20
86.66
 10
13.303
 20
86.714
 10
13.346
 20
86.764
 10
13.396
 20
86.807
 10
13.45
 20
86.843
 10
13.509
 20
86.872
 10
13.571
 20
86.893
 10
13.635
 20
86.906
 10
13.7
 20
86.91
 10
13.765
 20
86.906
 10
13.829
 20
86.893
 10
13.891
 20
86.872
 10
13.95
 20
86.843
 10
14.004
 20
86.807
 10
14.054
 20
86.764
 10
14.097
 20
86.714
 10
14.133
 20
86.66
 10
14.162
 20
86.601
 10
14.183
 20
86.539
 10
14.196
 20
86.475
 97
0
 75
0
 76
1
 98
0
  0
HATCH
  5
38
330
17
100
AcDbEntity
  8
RASTER
 62
7
100
AcDbHatch
 10
0.0
 20
0.0
 30
0.0
210
0.0
220
0.0
230
1.0
  2
SOLID
 70
1
 71
0
 91
1
 92
3
 72
0
 73
1
 93
48
 10
61.04
 20
86.41
 10
61.036
 20
86.345
 10
61.023
 20
86.281
 10
61.002
 20
86.219
 10
60.973
 20
86.16
 10
60.937
 20
86.106
 10
60.894
 20
86.056
 10
60.844
 20
86.013
 10
60.79
 20
85.977
 10
60.731
 20
85.948
 10
60.669
 20
85.927
 10
60.605
 20
85.914
 10
60.54
 20
85.91
 10
60.475
 20
85.914
 10
60.411
 20
85.927
 10
60.349
 20
85.948
 10
60.29
 20
85.977
 10
60.236
 20
86.013
 10
60.186
 20
86.056
 10
60.143
 20
86.106
 10
60.107
 20
86.16
 10
60.078
 20
86.219
 10
60.057
 20
86.281
 10
60.044
 20
86.345
 10
60.04
 20
86.41
 10
60.044
 20
86.475
 10
60.057
 20
86.539
 10
60.078
 20
86.601
 10
60.107
 20
86.66
 10
60.143
 20
86.714
 10
60.186
 20
86.764
 10
60.236
 20
86.807
 10
60.29
 20
86.843
 10
60.349
 20
86.872
 10
60.411
 20
86.893
 10
60.475
 20
86.906
 10
60.54
 20
86.91
 10
60.605
 20
86.906
 10
60.669
 20
86.893
 10
60.731
 20
86.872
 10
60.79
 20
86.843
 10
60.844
 20
86.807
 10
60.894
 20
86.764
 10
60.937
 20
86.714
 10
60.973
 20
86.66
 10
61.002
 20
86.601
 10
61.023
 20
86.539
 10
61.036
 20
86.475
 97
0
 75
0
 76
1
 98
0
  0
LWPOLYLINE
  5
39
330
17
100
AcDbEntity
  8
CUT
100
AcDbPolyline
 90
36
 70
1
 10
7.1
 20
78.6
 10
67.14
 20
78.6
 10
70.28
 20
78.6
 10
70.28
 20
76.22
 10
67.18
 20
76.22
 10
67.18
 20
74.0
 10
70.28
 20
74.0
 10
70.28
 20
71.62
 10
67.14
 20
71.62
 10
61.722
 20
71.62
 10
61.722
 20
68.52
 10
56.184
 20
68.52
 10
56.184
 20
71.62
 10
50.805
 20
71.62
 10
50.805
 20
68.52
 10
45.267
 20
68.52
 10
45.267
 20
71.62
 10
39.889
 20
71.62
 10
39.889
 20
68.52
 10
34.351
 20
68.52
 10
34.351
 20
71.62
 10
28.973
 20
71.62
 10
28.973
 20
68.52
 10
23.435
 20
68.52
 10
23.435
 20
71.62
 10
18.056
 20
71.62
 10
18.056
 20
68.52
 10
12.518
 20
68.52
 10
12.518
 20
71.62
 10
7.1
 20
71.62
 10
3.96
 20
71.62
 10
3.96
 20
74.0
 10
7.06
 20
74.0
 10
7.06
 20
76.22
 10
3.96
 20
76.22
 10
3.96
 20
78.6
  0
LWPOLYLINE
  5
3A
330
17
100
AcDbEntity
  8
CUT
100
AcDbPolyline
 90
4
 70
1
 10
12.14
 20
76.17
 10
62.1
 20
76.17
 10
62.1
 20
74.05
 10
12.14
 20
74.05
  0
HATCH
  5
3B
330
17
100
AcDbEntity
  8
RASTER
 62
7
100
AcDbHatch
 10
0.0
 20
0.0
 30
0.0
210
0.0
220
0.0
230
1.0
  2
SOLID
 70
1
 71
0
 91
1
 92
3
 72
0
 73
1
 93
4
 10
7.7
 20
78.16
 10
11.5
 20
78.16
 10
11.5
 20
72.06
 10
7.7
 20
72.06
 97
0
 75
0
 76
1
 98
0
  0
HATCH
  5
3C
330
17
100
AcDbEntity
  8
RASTER
 62
7
100
AcDbHatch
 10
0.0
 20
0.0
 30
0.0
210
0.0
220
0.0
230
1.0
  2
SOLID
 70
1
 71
0
 91
1
 92
3
 72
0
 73
1
 93
4
 10
62.74
 20
78.16
 10
66.54
 20
78.16
 10
66.54
 20
72.06
 10
62.74
 20
72.06
 97
0
 75
0
 76
1
 98
0
  0
HATCH
  5
3D
330
17
100
AcDbEntity
  8
RASTER
 62
7
100
AcDbHatch
 10
0.0
 20
0.0
 30
0.0
210
0.0
220
0.0
230
1.0
  2
SOLID
 70
1
 71
0
 91
1
 92
3
 72
0
 73
1
 93
48
 10
14.2
 20
77.81
 10
14.196
 20
77.745
 10
14.183
 20
77.681
 10
14.162
 20
77.619
 10
14.133
 20
77.56
 10
14.097
 20
77.506
 10
14.054
 20
77.456
 10
14.004
 20
77.413
 10
13.95
 20
77.377
 10
13.891
 20
77.348
 10
13.829
 20
77.327
 10
13.765
 20
77.314
 10
13.7
 20
77.31
 10
13.635
 20
77.314
 10
13.571
 20
77.327
 10
13.509
 20
77.348
 10
13.45
 20
77.377
 10
13.396
 20
77.413
 10
13.346
 20
77.456
 10
13.303
 20
77.506
 10
13.267
 20
77.56
 10
13.238
 20
77.619
 10
13.217
 20
77.681
 10
13.204
 20
77.745
 10
13.2
 20
77.81
 10
13.204
 20
77.875
 10
13.217
 20
77.939
 10
13.238
 20
78.001
 10
13.267
 20
78.06
 10
13.303
 20
78.114
 10
13.346
 20
78.164
 10
13.396
 20
78.207
 10
13.45
 20
78.243
 10
13.509
 20
78.272
 10
13.571
 20
78.293
 10
13.635
 20
78.306
 10
13.7
 20
78.31
 10
13.765
 20
78.306
 10
13.829
 20
78.293
 10
13.891
 20
78.272
 10
13.95
 20
78.243
 10
14.004
 20
78.207
 10
14.054
 20
78.164
 10
14.097
 20
78.114
 10
14.133
 20
78.06
 10
14.162
 20
78.001
 10
14.183
 20
77.939
 10
14.196
 20
77.875
 97
0
 75
0
 76
1
 98
0
  0
HATCH
  5
3E
330
17
100
AcDbEntity
  8
RASTER
 62
7
100
AcDbHatch
 10
0.0
 20
0.0
 30
0.0
210
0.0
220
0.0
230
1.0
  2
SOLID
 70
1
 71
0
 91
1
 92
3
 72
0
 73
1
 93
48
 10
61.04
 20
77.81
 10
61.036
 20
77.745
 10
61.023
 20
77.681
 10
61.002
 20
77.619
 10
60.973
 20
77.56
 10
60.937
 20
77.506
 10
60.894
 20
77.456
 10
60.844
 20
77.413
 10
60.79
 20
77.377
 10
60.731
 20
77.348
 10
60.669
 20
77.327
 10
60.605
 20
77.314
 10
60.54
 20
77.31
 10
60.475
 20
77.314
 10
60.411
 20
77.327
 10
60.349
 20
77.348
 10
60.29
 20
77.377
 10
60.236
 20
77.413
 10
60.186
 20
77.456
 10
60.143
 20
77.506
 10
60.107
 20
77.56
 10
60.078
 20
77.619
 10
60.057
 20
77.681
 10
60.044
 20
77.745
 10
60.04
 20
77.81
 10
60.044
 20
77.875
 10
60.057
 20
77.939
 10
60.078
 20
78.001
 10
60.107
 20
78.06
 10
60.143
 20
78.114
 10
60.186
 20
78.164
 10
60.236
 20
78.207
 10
60.29
 20
78.243
 10
60.349
 20
78.272
 10
60.411
 20
78.293
 10
60.475
 20
78.306
 10
60.54
 20
78.31
 10
60.605
 20
78.306
 10
60.669
 20
78.293
 10
60.731
 20
78.272
 10
60.79
 20
78.243
 10
60.844
 20
78.207
 10
60.894
 20
78.164
 10
60.937
 20
78.114
 10
60.973
 20
78.06
 10
61.002
 20
78.001
 10
61.023
 20
77.939
 10
61.036
 20
77.875
 97
0
 75
0
 76
1
 98
0
  0
HATCH
  5
3F
330
17
100
AcDbEntity
  8
RASTER
 62
7
100
AcDbHatch
 10
0.0
 20
0.0
 30
0.0
210
0.0
220
0.0
230
1.0
  2
SOLID
 70
1
 71
0
 91
1
 92
3
 72
0
 73
1
 93
48
 10
14.2
 20
72.41
 10
14.196
 20
72.345
 10
14.183
 20
72.281
 10
14.162
 20
72.219
 10
14.133
 20
72.16
 10
14.097
 20
72.106
 10
14.054
 20
72.056
 10
14.004
 20
72.013
 10
13.95
 20
71.977
 10
13.891
 20
71.948
 10
13.829
 20
71.927
 10
13.765
 20
71.914
 10
13.7
 20
71.91
 10
13.635
 20
71.914
 10
13.571
 20
71.927
 10
13.509
 20
71.948
 10
13.45
 20
71.977
 10
13.396
 20
72.013
 10
13.346
 20
72.056
 10
13.303
 20
72.106
 10
13.267
 20
72.16
 10
13.238
 20
72.219
 10
13.217
 20
72.281
 10
13.204
 20
72.345
 10
13.2
 20
72.41
 10
13.204
 20
72.475
 10
13.217
 20
72.539
 10
13.238
 20
72.601
 10
13.267
 20
72.66
 10
13.303
 20
72.714
 10
13.346
 20
72.764
 10
13.396
 20
72.807
 10
13.45
 20
72.843
 10
13.509
 20
72.872
 10
13.571
 20
72.893
 10
13.635
 20
72.906
 10
13.7
 20
72.91
 10
13.765
 20
72.906
 10
13.829
 20
72.893
 10
13.891
 20
72.872
 10
13.95
 20
72.843
 10
14.004
 20
72.807
 10
14.054
 20
72.764
 10
14.097
 20
72.714
 10
14.133
 20
72.66
 10
14.162
 20
72.601
 10
14.183
 20
72.539
 10
14.196
 20
72.475
 97
0
 75
0
 76
1
 98
0
  0
HATCH
  5
40
330
17
100
AcDbEntity
  8
RASTER
 62
7
100
AcDbHatch
 10
0.0
 20
0.0
 30
0.0
210
0.0
220
0.0
230
1.0
  2
SOLID
 70
1
 71
0
 91
1
 92
3
 72
0
 73
1
 93
48
 10
61.04
 20
72.41
 10
61.036
 20
72.345
 10
61.023
 20
72.281
 10
61.002
 20
72.219
 10
60.973
 20
72.16
 10
60.937
 20
72.106
 10
60.894
 20
72.056
 10
60.844
 20
72.013
 10
60.79
 20
71.977
 10
60.731
 20
71.948
 10
60.669
 20
71.927
 10
60.605
 20
71.914
 10
60.54
 20
71.91
 10
60.475
 20
71.914
 10
60.411
 20
71.927
 10
60.349
 20
71.948
 10
60.29
 20
71.977
 10
60.236
 20
72.013
 10
60.186
 20
72.056
 10
60.143
 20
72.106
 10
60.107
 20
72.16
 10
60.078
 20
72.219
 10
60.057
 20
72.281
 10
60.044
 20
72.345
 10
60.04
 20
72.41
 10
60.044
 20
72.475
 10
60.057
 20
72.539
 10
60.078
 20
72.601
 10
60.107
 20
72.66
 10
60.143
 20
72.714
 10
60.186
 20
72.764
 10
60.236
 20
72.807
 10
60.29
 20
72.843
 10
60.349
 20
72.872
 10
60.411
 20
72.893
 10
60.475
 20
72.906
 10
60.54
 20
72.91
 10
60.605
 20
72.906
 10
60.669
 20
72.893
 10
60.731
 20
72.872
 10
60.79
 20
72.843
 10
60.844
 20
72.807
 10
60.894
 20
72.764
 10
60.937
 20
72.714
 10
60.973
 20
72.66
 10
61.002
 20
72.601
 10
61.023
 20
72.539
 10
61.036
 20
72.475
 97
0
 75
0
 76
1
 98
0
  0
LWPOLYLINE
  5
41
330
17
100
AcDbEntity
  8
CUT
100
AcDbPolyline
 90
24
 70
1
 10
7.06
 20
64.6
 10
47.5
 20
64.6
 10
47.5
 20
62.3
 10
50.6
 20
62.3
 10
50.6
 20
59.92
 10
47.5
 20
59.92
 10
47.5
 20
57.62
 10
41.734
 20
57.62
 10
41.734
 20
54.52
 10
35.889
 20
54.52
 10
35.889
 20
57.62
 10
30.203
 20
57.62
 10
30.203
 20
54.52
 10
24.357
 20
54.52
 10
24.357
 20
57.62
 10
18.671
 20
57.62
 10
18.671
 20
54.52
 10
12.826
 20
54.52
 10
12.826
 20
57.62
 10
7.06
 20
57.62
 10
7.06
 20
59.92
 10
3.96
 20
59.92
 10
3.96
 20
62.3
 10
7.06
 20
62.3
  0
LWPOLYLINE
  5
42
330
17
100
AcDbEntity
  8
CUT
100
AcDbPolyline
 90
4
 70
1
 10
12.14
 20
62.17
 10
42.42
 20
62.17
 10
42.42
 20
60.05
 10
12.14
 20
60.05
  0
HATCH
  5
43
330
17
100
AcDbEntity
  8
RASTER
 62
7
100
AcDbHatch
 10
0.0
 20
0.0
 30
0.0
210
0.0
220
0.0
230
1.0
  2
SOLID
 70
1
 71
0
 91
1
 92
3
 72
0
 73
1
 93
4
 10
7.7
 20
64.16
 10
11.5
 20
64.16
 10
11.5
 20
58.06
 10
7.7
 20
58.06
 97
0
 75
0
 76
1
 98
0
  0
HATCH
  5
44
330
17
100
AcDbEntity
  8
RASTER
 62
7
100
AcDbHatch
 10
0.0
 20
0.0
 30
0.0
210
0.0
220
0.0
230
1.0
  2
SOLID
 70
1
 71
0
 91
1
 92
3
 72
0
 73
1
 93
4
 10
43.06
 20
64.16
 10
46.86
 20
64.16
 10
46.86
 20
58.06
 10
43.06
 20
58.06
 97
0
 75
0
 76
1
 98
0
  0
HATCH
  5
45
330
17
100
AcDbEntity
  8
RASTER
 62
7
100
AcDbHatch
 10
0.0
 20
0.0
 30
0.0
210
0.0
220
0.0
230
1.0
  2
SOLID
 70
1
 71
0
 91
1
 92
3
 72
0
 73
1
 93
48
 10
14.2
 20
63.81
 10
14.196
 20
63.745
 10
14.183
 20
63.681
 10
14.162
 20
63.619
 10
14.133
 20
63.56
 10
14.097
 20
63.506
 10
14.054
 20
63.456
 10
14.004
 20
63.413
 10
13.95
 20
63.377
 10
13.891
 20
63.348
 10
13.829
 20
63.327
 10
13.765
 20
63.314
 10
13.7
 20
63.31
 10
13.635
 20
63.314
 10
13.571
 20
63.327
 10
13.509
 20
63.348
 10
13.45
 20
63.377
 10
13.396
 20
63.413
 10
13.346
 20
63.456
 10
13.303
 20
63.506
 10
13.267
 20
63.56
 10
13.238
 20
63.619
 10
13.217
 20
63.681
 10
13.204
 20
63.745
 10
13.2
 20
63.81
 10
13.204
 20
63.875
 10
13.217
 20
63.939
 10
13.238
 20
64.001
 10
13.267
 20
64.06
 10
13.303
 20
64.114
 10
13.346
 20
64.164
 10
13.396
 20
64.207
 10
13.45
 20
64.243
 10
13.509
 20
64.272
 10
13.571
 20
64.293
 10
13.635
 20
64.306
 10
13.7
 20
64.31
 10
13.765
 20
64.306
 10
13.829
 20
64.293
 10
13.891
 20
64.272
 10
13.95
 20
64.243
 10
14.004
 20
64.207
 10
14.054
 20
64.164
 10
14.097
 20
64.114
 10
14.133
 20
64.06
 10
14.162
 20
64.001
 10
14.183
 20
63.939
 10
14.196
 20
63.875
 97
0
 75
0
 76
1
 98
0
  0
HATCH
  5
46
330
17
100
AcDbEntity
  8
RASTER
 62
7
100
AcDbHatch
 10
0.0
 20
0.0
 30
0.0
210
0.0
220
0.0
230
1.0
  2
SOLID
 70
1
 71
0
 91
1
 92
3
 72
0
 73
1
 93
48
 10
41.36
 20
63.81
 10
41.356
 20
63.745
 10
41.343
 20
63.681
 10
41.322
 20
63.619
 10
41.293
 20
63.56
 10
41.257
 20
63.506
 10
41.214
 20
63.456
 10
41.164
 20
63.413
 10
41.11
 20
63.377
 10
41.051
 20
63.348
 10
40.989
 20
63.327
 10
40.925
 20
63.314
 10
40.86
 20
63.31
 10
40.795
 20
63.314
 10
40.731
 20
63.327
 10
40.669
 20
63.348
 10
40.61
 20
63.377
 10
40.556
 20
63.413
 10
40.506
 20
63.456
 10
40.463
 20
63.506
 10
40.427
 20
63.56
 10
40.398
 20
63.619
 10
40.377
 20
63.681
 10
40.364
 20
63.745
 10
40.36
 20
63.81
 10
40.364
 20
63.875
 10
40.377
 20
63.939
 10
40.398
 20
64.001
 10
40.427
 20
64.06
 10
40.463
 20
64.114
 10
40.506
 20
64.164
 10
40.556
 20
64.207
 10
40.61
 20
64.243
 10
40.669
 20
64.272
 10
40.731
 20
64.293
 10
40.795
 20
64.306
 10
40.86
 20
64.31
 10
40.925
 20
64.306
 10
40.989
 20
64.293
 10
41.051
 20
64.272
 10
41.11
 20
64.243
 10
41.164
 20
64.207
 10
41.214
 20
64.164
 10
41.257
 20
64.114
 10
41.293
 20
64.06
 10
41.322
 20
64.001
 10
41.343
 20
63.939
 10
41.356
 20
63.875
 97
0
 75
0
 76
1
 98
0
  0
HATCH
  5
47
330
17
100
AcDbEntity
  8
RASTER
 62
7
100
AcDbHatch
 10
0.0
 20
0.0
 30
0.0
210
0.0
220
0.0
230
1.0
  2
SOLID
 70
1
 71
0
 91
1
 92
3
 72
0
 73
1
 93
48
 10
14.2
 20
58.41
 10
14.196
 20
58.345
 10
14.183
 20
58.281
 10
14.162
 20
58.219
 10
14.133
 20
58.16
 10
14.097
 20
58.106
 10
14.054
 20
58.056
 10
14.004
 20
58.013
 10
13.95
 20
57.977
 10
13.891
 20
57.948
 10
13.829
 20
57.927
 10
13.765
 20
57.914
 10
13.7
 20
57.91
 10
13.635
 20
57.914
 10
13.571
 20
57.927
 10
13.509
 20
57.948
 10
13.45
 20
57.977
 10
13.396
 20
58.013
 10
13.346
 20
58.056
 10
13.303
 20
58.106
 10
13.267
 20
58.16
 10
13.238
 20
58.219
 10
13.217
 20
58.281
 10
13.204
 20
58.345
 10
13.2
 20
58.41
 10
13.204
 20
58.475
 10
13.217
 20
58.539
 10
13.238
 20
58.601
 10
13.267
 20
58.66
 10
13.303
 20
58.714
 10
13.346
 20
58.764
 10
13.396
 20
58.807
 10
13.45
 20
58.843
 10
13.509
 20
58.872
 10
13.571
 20
58.893
 10
13.635
 20
58.906
 10
13.7
 20
58.91
 10
13.765
 20
58.906
 10
13.829
 20
58.893
 10
13.891
 20
58.872
 10
13.95
 20
58.843
 10
14.004
 20
58.807
 10
14.054
 20
58.764
 10
14.097
 20
58.714
 10
14.133
 20
58.66
 10
14.162
 20
58.601
 10
14.183
 20
58.539
 10
14.196
 20
58.475
 97
0
 75
0
 76
1
 98
0
  0
HATCH
  5
48
330
17
100
AcDbEntity
  8
RASTER
 62
7
100
AcDbHatch
 10
0.0
 20
0.0
 30
0.0
210
0.0
220
0.0
230
1.0
  2
SOLID
 70
1
 71
0
 91
1
 92
3
 72
0
 73
1
 93
48
 10
41.36
 20
58.41
 10
41.356
 20
58.345
 10
41.343
 20
58.281
 10
41.322
 20
58.219
 10
41.293
 20
58.16
 10
41.257
 20
58.106
 10
41.214
 20
58.056
 10
41.164
 20
58.013
 10
41.11
 20
57.977
 10
41.051
 20
57.948
 10
40.989
 20
57.927
 10
40.925
 20
57.914
 10
40.86
 20
57.91
 10
40.795
 20
57.914
 10
40.731
 20
57.927
 10
40.669
 20
57.948
 10
40.61
 20
57.977
 10
40.556
 20
58.013
 10
40.506
 20
58.056
 10
40.463
 20
58.106
 10
40.427
 20
58.16
 10
40.398
 20
58.219
 10
40.377
 20
58.281
 10
40.364
 20
58.345
 10
40.36
 20
58.41
 10
40.364
 20
58.475
 10
40.377
 20
58.539
 10
40.398
 20
58.601
 10
40.427
 20
58.66
 10
40.463
 20
58.714
 10
40.506
 20
58.764
 10
40.556
 20
58.807
 10
40.61
 20
58.843
 10
40.669
 20
58.872
 10
40.731
 20
58.893
 10
40.795
 20
58.906
 10
40.86
 20
58.91
 10
40.925
 20
58.906
 10
40.989
 20
58.893
 10
41.051
 20
58.872
 10
41.11
 20
58.843
 10
41.164
 20
58.807
 10
41.214
 20
58.764
 10
41.257
 20
58.714
 10
41.293
 20
58.66
 10
41.322
 20
58.601
 10
41.343
 20
58.539
 10
41.356
 20
58.475
 97
0
 75
0
 76
1
 98
0
  0
LWPOLYLINE
  5
49
330
17
100
AcDbEntity
  8
CUT
100
AcDbPolyline
 90
24
 70
1
 10
57.62
 20
64.6
 10
98.06
 20
64.6
 10
98.06
 20
62.3
 10
101.16
 20
62.3
 10
101.16
 20
59.92
 10
98.06
 20
59.92
 10
98.06
 20
57.62
 10
92.294
 20
57.62
 10
92.294
 20
54.52
 10
86.449
 20
54.52
 10
86.449
 20
57.62
 10
80.763
 20
57.62
 10
80.763
 20
54.52
 10
74.917
 20
54.52
 10
74.917
 20
57.62
 10
69.231
 20
57.62
 10
69.231
 20
54.52
 10
63.386
 20
54.52
 10
63.386
 20
57.62
 10
57.62
 20
57.62
 10
57.62
 20
59.92
 10
54.52
 20
59.92
 10
54.52
 20
62.3
 10
57.62
 20
62.3
  0
LWPOLYLINE
  5
4A
330
17
100
AcDbEntity
  8
CUT
100
AcDbPolyline
 90
4
 70
1
 10
62.7
 20
62.17
 10
92.98
 20
62.17
 10
92.98
 20
60.05
 10
62.7
 20
60.05
  0
HATCH
  5
4B
330
17
100
AcDbEntity
  8
RASTER
 62
7
100
AcDbHatch
 10
0.0
 20
0.0
 30
0.0
210
0.0
220
0.0
230
1.0
  2
SOLID
 70
1
 71
0
 91
1
 92
3
 72
0
 73
1
 93
4
 10
58.26
 20
64.16
 10
62.06
 20
64.16
 10
62.06
 20
58.06
 10
58.26
 20
58.06
 97
0
 75
0
 76
1
 98
0
  0
HATCH
  5
4C
330
17
100
AcDbEntity
  8
RASTER
 62
7
100
AcDbHatch
 10
0.0
 20
0.0
 30
0.0
210
0.0
220
0.0
230
1.0
  2
SOLID
 70
1
 71
0
 91
1
 92
3
 72
0
 73
1
 93
4
 10
93.62
 20
64.16
 10
97.42
 20
64.16
 10
97.42
 20
58.06
 10
93.62
 20
58.06
 97
0
 75
0
 76
1
 98
0
  0
HATCH
  5
4D
330
17
100
AcDbEntity
  8
RASTER
 62
7
100
AcDbHatch
 10
0.0
 20
0.0
 30
0.0
210
0.0
220
0.0
230
1.0
  2
SOLID
 70
1
 71
0
 91
1
 92
3
 72
0
 73
1
 93
48
 10
64.76
 20
63.81
 10
64.756
 20
63.745
 10
64.743
 20
63.681
 10
64.722
 20
63.619
 10
64.693
 20
63.56
 10
64.657
 20
63.506
 10
64.614
 20
63.456
 10
64.564
 20
63.413
 10
64.51
 20
63.377
 10
64.451
 20
63.348
 10
64.389
 20
63.327
 10
64.325
 20
63.314
 10
64.26
 20
63.31
 10
64.195
 20
63.314
 10
64.131
 20
63.327
 10
64.069
 20
63.348
 10
64.01
 20
63.377
 10
63.956
 20
63.413
 10
63.906
 20
63.456
 10
63.863
 20
63.506
 10
63.827
 20
63.56
 10
63.798
 20
63.619
 10
63.777
 20
63.681
 10
63.764
 20
63.745
 10
63.76
 20
63.81
 10
63.764
 20
63.875
 10
63.777
 20
63.939
 10
63.798
 20
64.001
 10
63.827
 20
64.06
 10
63.863
 20
64.114
 10
63.906
 20
64.164
 10
63.956
 20
64.207
 10
64.01
 20
64.243
 10
64.069
 20
64.272
 10
64.131
 20
64.293
 10
64.195
 20
64.306
 10
64.26
 20
64.31
 10
64.325
 20
64.306
 10
64.389
 20
64.293
 10
64.451
 20
64.272
 10
64.51
 20
64.243
 10
64.564
 20
64.207
 10
64.614
 20
64.164
 10
64.657
 20
64.114
 10
64.693
 20
64.06
 10
64.722
 20
64.001
 10
64.743
 20
63.939
 10
64.756
 20
63.875
 97
0
 75
0
 76
1
 98
0
  0
HATCH
  5
4E
330
17
100
AcDbEntity
  8
RASTER
 62
7
100
AcDbHatch
 10
0.0
 20
0.0
 30
0.0
210
0.0
220
0.0
230
1.0
  2
SOLID
 70
1
 71
0
 91
1
 92
3
 72
0
 73
1
 93
48
 10
91.92
 20
63.81
 10
91.916
 20
63.745
 10
91.903
 20
63.681
 10
91.882
 20
63.619
 10
91.853
 20
63.56
 10
91.817
 20
63.506
 10
91.774
 20
63.456
 10
91.724
 20
63.413
 10
91.67
 20
63.377
 10
91.611
 20
63.348
 10
91.549
 20
63.327
 10
91.485
 20
63.314
 10
91.42
 20
63.31
 10
91.355
 20
63.314
 10
91.291
 20
63.327
 10
91.229
 20
63.348
 10
91.17
 20
63.377
 10
91.116
 20
63.413
 10
91.066
 20
63.456
 10
91.023
 20
63.506
 10
90.987
 20
63.56
 10
90.958
 20
63.619
 10
90.937
 20
63.681
 10
90.924
 20
63.745
 10
90.92
 20
63.81
 10
90.924
 20
63.875
 10
90.937
 20
63.939
 10
90.958
 20
64.001
 10
90.987
 20
64.06
 10
91.023
 20
64.114
 10
91.066
 20
64.164
 10
91.116
 20
64.207
 10
91.17
 20
64.243
 10
91.229
 20
64.272
 10
91.291
 20
64.293
 10
91.355
 20
64.306
 10
91.42
 20
64.31
 10
91.485
 20
64.306
 10
91.549
 20
64.293
 10
91.611
 20
64.272
 10
91.67
 20
64.243
 10
91.724
 20
64.207
 10
91.774
 20
64.164
 10
91.817
 20
64.114
 10
91.853
 20
64.06
 10
91.882
 20
64.001
 10
91.903
 20
63.939
 10
91.916
 20
63.875
 97
0
 75
0
 76
1
 98
0
  0
HATCH
  5
4F
330
17
100
AcDbEntity
  8
RASTER
 62
7
100
AcDbHatch
 10
0.0
 20
0.0
 30
0.0
210
0.0
220
0.0
230
1.0
  2
SOLID
 70
1
 71
0
 91
1
 92
3
 72
0
 73
1
 93
48
 10
64.76
 20
58.41
 10
64.756
 20
58.345
 10
64.743
 20
58.281
 10
64.722
 20
58.219
 10
64.693
 20
58.16
 10
64.657
 20
58.106
 10
64.614
 20
58.056
 10
64.564
 20
58.013
 10
64.51
 20
57.977
 10
64.451
 20
57.948
 10
64.389
 20
57.927
 10
64.325
 20
57.914
 10
64.26
 20
57.91
 10
64.195
 20
57.914
 10
64.131
 20
57.927
 10
64.069
 20
57.948
 10
64.01
 20
57.977
 10
63.956
 20
58.013
 10
63.906
 20
58.056
 10
63.863
 20
58.106
 10
63.827
 20
58.16
 10
63.798
 20
58.219
 10
63.777
 20
58.281
 10
63.764
 20
58.345
 10
63.76
 20
58.41
 10
63.764
 20
58.475
 10
63.777
 20
58.539
 10
63.798
 20
58.601
 10
63.827
 20
58.66
 10
63.863
 20
58.714
 10
63.906
 20
58.764
 10
63.956
 20
58.807
 10
64.01
 20
58.843
 10
64.069
 20
58.872
 10
64.131
 20
58.893
 10
64.195
 20
58.906
 10
64.26
 20
58.91
 10
64.325
 20
58.906
 10
64.389
 20
58.893
 10
64.451
 20
58.872
 10
64.51
 20
58.843
 10
64.564
 20
58.807
 10
64.614
 20
58.764
 10
64.657
 20
58.714
 10
64.693
 20
58.66
 10
64.722
 20
58.601
 10
64.743
 20
58.539
 10
64.756
 20
58.475
 97
0
 75
0
 76
1
 98
0
  0
HATCH
  5
50
330
17
100
AcDbEntity
  8
RASTER
 62
7
100
AcDbHatch
 10
0.0
 20
0.0
 30
0.0
210
0.0
220
0.0
230
1.0
  2
SOLID
 70
1
 71
0
 91
1
 92
3
 72
0
 73
1
 93
48
 10
91.92
 20
58.41
 10
91.916
 20
58.345
 10
91.903
 20
58.281
 10
91.882
 20
58.219
 10
91.853
 20
58.16
 10
91.817
 20
58.106
 10
91.774
 20
58.056
 10
91.724
 20
58.013
 10
91.67
 20
57.977
 10
91.611
 20
57.948
 10
91.549
 20
57.927
 10
91.485
 20
57.914
 10
91.42
 20
57.91
 10
91.355
 20
57.914
 10
91.291
 20
57.927
 10
91.229
 20
57.948
 10
91.17
 20
57.977
 10
91.116
 20
58.013
 10
91.066
 20
58.056
 10
91.023
 20
58.106
 10
90.987
 20
58.16
 10
90.958
 20
58.219
 10
90.937
 20
58.281
 10
90.924
 20
58.345
 10
90.92
 20
58.41
 10
90.924
 20
58.475
 10
90.937
 20
58.539
 10
90.958
 20
58.601
 10
90.987
 20
58.66
 10
91.023
 20
58.714
 10
91.066
 20
58.764
 10
91.116
 20
58.807
 10
91.17
 20
58.843
 10
91.229
 20
58.872
 10
91.291
 20
58.893
 10
91.355
 20
58.906
 10
91.42
 20
58.91
 10
91.485
 20
58.906
 10
91.549
 20
58.893
 10
91.611
 20
58.872
 10
91.67
 20
58.843
 10
91.724
 20
58.807
 10
91.774
 20
58.764
 10
91.817
 20
58.714
 10
91.853
 20
58.66
 10
91.882
 20
58.601
 10
91.903
 20
58.539
 10
91.916
 20
58.475
 97
0
 75
0
 76
1
 98
0
  0
LWPOLYLINE
  5
51
330
17
100
AcDbEntity
  8
CUT
100
AcDbPolyline
 90
76
 70
1
 10
3.96
 20
50.6
 10
7.1
 20
50.6
 10
12.598
 20
50.6
 10
12.598
 20
47.5
 10
17.976
 20
47.5
 10
17.976
 20
50.6
 10
23.515
 20
50.6
 10
23.515
 20
47.5
 10
28.893
 20
47.5
 10
28.893
 20
50.6
 10
34.431
 20
50.6
 10
34.431
 20
47.5
 10
39.809
 20
47.5
 10
39.809
 20
50.6
 10
45.347
 20
50.6
 10
45.347
 20
47.5
 10
50.725
 20
47.5
 10
50.725
 20
50.6
 10
56.264
 20
50.6
 10
56.264
 20
47.5
 10
61.642
 20
47.5
 10
61.642
 20
50.6
 10
67.14
 20
50.6
 10
70.28
 20
50.6
 10
70.28
 20
47.46
 10
70.28
 20
41.654
 10
67.18
 20
41.654
 10
67.18
 20
35.969
 10
70.28
 20
35.969
 10
70.28
 20
30.123
 10
67.18
 20
30.123
 10
67.18
 20
24.437
 10
70.28
 20
24.437
 10
70.28
 20
18.591
 10
67.18
 20
18.591
 10
67.18
 20
12.906
 10
70.28
 20
12.906
 10
70.28
 20
7.1
 10
70.28
 20
3.96
 10
67.14
 20
3.96
 10
61.642
 20
3.96
 10
61.642
 20
7.06
 10
56.264
 20
7.06
 10
56.264
 20
3.96
 10
50.725
 20
3.96
 10
50.725
 20
7.06
 10
45.347
 20
7.06
 10
45.347
 20
3.96
 10
39.809
 20
3.96
 10
39.809
 20
7.06
 10
34.431
 20
7.06
 10
34.431
 20
3.96
 10
28.893
 20
3.96
 10
28.893
 20
7.06
 10
23.515
 20
7.06
 10
23.515
 20
3.96
 10
17.976
 20
3.96
 10
17.976
 20
7.06
 10
12.598
 20
7.06
 10
12.598
 20
3.96
 10
7.1
 20
3.96
 10
3.96
 20
3.96
 10
3.96
 20
7.1
 10
3.96
 20
12.906
 10
7.06
 20
12.906
 10
7.06
 20
18.591
 10
3.96
 20
18.591
 10
3.96
 20
24.437
 10
7.06
 20
24.437
 10
7.06
 20
30.123
 10
3.96
 20
30.123
 10
3.96
 20
35.969
 10
7.06
 20
35.969
 10
7.06
 20
41.654
 10
3.96
 20
41.654
 10
3.96
 20
47.46
  0
ENDSEC
  0
SECTION
  2
OBJECTS
  0
DICTIONARY
  5
A
330
0
100
AcDbDictionary
281
1
  3
ACAD_COLOR
350
B
  3
ACAD_GROUP
350
C
  3
ACAD_LAYOUT
350
D
  3
ACAD_MATERIAL
350
E
  3
ACAD_MLEADERSTYLE
350
F
  3
ACAD_MLINESTYLE
350
10
  3
ACAD_PLOTSETTINGS
350
11
  3
ACAD_PLOTSTYLENAME
350
12
  3
ACAD_SCALELIST
350
14
  3
ACAD_TABLESTYLE
350
15
  3
ACAD_VISUALSTYLE
350
16
  3
EZDXF_META
350
2D
  0
DICTIONARY
  5
B
330
A
100
AcDbDictionary
281
1
  0
DICTIONARY
  5
C
330
A
100
AcDbDictionary
281
1
  0
DICTIONARY
  5
D
330
A
100
AcDbDictionary
281
1
  3
Model
350
1A
  3
Layout1
350
1E
  0
DICTIONARY
  5
E
330
A
100
AcDbDictionary
281
1
  3
ByBlock
350
1F
  3
ByLayer
350
20
  3
Global
350
21
  0
DICTIONARY
  5
F
330
A
100
AcDbDictionary
281
1
  3
Standard
350
2C
  0
DICTIONARY
  5
10
330
A
100
AcDbDictionary
281
1
  3
Standard
350
22
  0
DICTIONARY
  5
11
330
A
100
AcDbDictionary
281
1
  0
ACDBDICTIONARYWDFLT
  5
12
330
A
100
AcDbDictionary
281
1
  3
Normal
350
13
100
AcDbDictionaryWithDefault
340
13
  0
ACDBPLACEHOLDER
  5
13
330
12
  0
DICTIONARY
  5
14
330
A
100
AcDbDictionary
281
1
  0
DICTIONARY
  5
15
330
A
100
AcDbDictionary
281
1
  0
DICTIONARY
  5
16
330
A
100
AcDbDictionary
281
1
  0
LAYOUT
  5
1A
330
D
100
AcDbPlotSettings
  1

  4
A3
  6

 40
7.5
 41
20.0
 42
7.5
 43
20.0
 44
420.0
 45
297.0
 46
0.0
 47
0.0
 48
0.0
 49
0.0
140
0.0
141
0.0
142
1.0
143
1.0
 70
1024
 72
1
 73
0
 74
5
  7

 75
16
 76
0
 77
2
 78
300
147
1.0
148
0.0
149
0.0
100
AcDbLayout
  1
Model
 70
1
 71
0
 10
0.0
 20
0.0
 11
420.0
 21
297.0
 12
0.0
 22
0.0
 32
0.0
 14
1e+20
 24
1e+20
 34
1e+20
 15
-1e+20
 25
-1e+20
 35
-1e+20
146
0.0
 13
0.0
 23
0.0
 33
0.0
 16
1.0
 26
0.0
 36
0.0
 17
0.0
 27
1.0
 37
0.0
 76
1
330
17
  0
LAYOUT
  5
1E
330
D
100
AcDbPlotSettings
  1

  4
A3
  6

 40
7.5
 41
20.0
 42
7.5
 43
20.0
 44
420.0
 45
297.0
 46
0.0
 47
0.0
 48
0.0
 49
0.0
140
0.0
141
0.0
142
1.0
143
1.0
 70
0
 72
1
 73
0
 74
5
  7

 75
16
 76
0
 77
2
 78
300
147
1.0
148
0.0
149
0.0
100
AcDbLayout
  1
Layout1
 70
1
 71
1
 10
0.0
 20
0.0
 11
420.0
 21
297.0
 12
0.0
 22
0.0
 32
0.0
 14
1e+20
 24
1e+20
 34
1e+20
 15
-1e+20
 25
-1e+20
 35
-1e+20
146
0.0
 13
0.0
 23
0.0
 33
0.0
 16
1.0
 26
0.0
 36
0.0
 17
0.0
 27
1.0
 37
0.0
 76
1
330
1B
  0
MATERIAL
  5
1F
102
{ACAD_REACTORS
330
E
102
}
330
E
100
AcDbMaterial
  1
ByBlock
  2

 70
0
 40
1.0
 71
1
 41
1.0
 91
-1023410177
 42
1.0
 72
1
  3

 73
1
 74
1
 75
1
 44
0.5
 73
0
 45
1.0
 46
1.0
 77
1
  4

 78
1
 79
1
170
1
 48
1.0
171
1
  6

172
1
173
1
174
1
140
1.0
141
1.0
175
1
  7

176
1
177
1
178
1
143
1.0
179
1
  8

270
1
271
1
272
1
145
1.0
146
1.0
273
1
  9

274
1
275
1
276
1
 42
1.0
 72
1
  3

 73
1
 74
1
 75
1
 94
63
  0
MATERIAL
  5
20
102
{ACAD_REACTORS
330
E
102
}
330
E
100
AcDbMaterial
  1
ByLayer
  2

 70
0
 40
1.0
 71
1
 41
1.0
 91
-1023410177
 42
1.0
 72
1
  3

 73
1
 74
1
 75
1
 44
0.5
 73
0
 45
1.0
 46
1.0
 77
1
  4

 78
1
 79
1
170
1
 48
1.0
171
1
  6

172
1
173
1
174
1
140
1.0
141
1.0
175
1
  7

176
1
177
1
178
1
143
1.0
179
1
  8

270
1
271
1
272
1
145
1.0
146
1.0
273
1
  9

274
1
275
1
276
1
 42
1.0
 72
1
  3

 73
1
 74
1
 75
1
 94
63
  0
MATERIAL
  5
21
102
{ACAD_REACTORS
330
E
102
}
330
E
100
AcDbMaterial
  1
Global
  2

 70
0
 40
1.0
 71
1
 41
1.0
 91
-1023410177
 42
1.0
 72
1
  3

 73
1
 74
1
 75
1
 44
0.5
 73
0
 45
1.0
 46
1.0
 77
1
  4

 78
1
 79
1
170
1
 48
1.0
171
1
  6

172
1
173
1
174
1
140
1.0
141
1.0
175
1
  7

176
1
177
1
178
1
143
1.0
179
1
  8

270
1
271
1
272
1
145
1.0
146
1.0
273
1
  9

274
1
275
1
276
1
 42
1.0
 72
1
  3

 73
1
 74
1
 75
1
 94
63
  0
MLINESTYLE
  5
22
102
{ACAD_REACTORS
330
10
102
}
330
10
100
AcDbMlineStyle
  2
Standard
 70
0
  3

 62
256
 51
90.0
 52
90.0
 71
2
 49
0.5
 62
256
  6
BYLAYER
 49
-0.5
 62
256
  6
BYLAYER
  0
MLEADERSTYLE
  5
2C
102
{ACAD_REACTORS
330
F
102
}
330
F
100
AcDbMLeaderStyle
179
2
170
2
171
1
172
0
 90
2
 40
0.0
 41
0.0
173
1
 91
-1056964608
 92
-2
290
1
 42
2.0
291
1
 43
8.0
  3
Standard
 44
4.0
300

342
29
174
1
175
1
176
0
178
1
 93
-1056964608
 45
4.0
292
0
297
0
 46
4.0
 94
-1056964608
 47
1.0
 49
1.0
140
1.0
294
1
141
0.0
177
0
142
1.0
295
0
296
0
143
3.75
271
0
272
9
273
9
  0
DICTIONARY
  5
2D
330
A
100
AcDbDictionary
280
1
281
1
  3
CREATED_BY_EZDXF
350
2E
  3
WRITTEN_BY_EZDXF
350
54
  0
DICTIONARYVAR
  5
2E
330
2D
100
DictionaryVariables
280
0
  1
1.4.2 @ 2026-09-11T01:04:15.863570+00:00
  0
DICTIONARYVAR
  5
54
330
2D
100
DictionaryVariables
280
0
  1
1.4.2 @ 2026-09-11T01:04:15.865490+00:00
  0
ENDSEC
  0
EOF
