  0
SECTION
  2
HEADER
  9
$ACADVER
  1
AC1015
  9
$ACADMAINTVER
 70
6
  9
$DWGCODEPAGE
  3
ANSI_1252
  9
$INSBASE
 10
0.0
 20
0.0
 30
0.0
  9
$EXTMIN
 10
1e+20
 20
1e+20
 30
1e+20
  9
$EXTMAX
 10
-1e+20
 20
-1e+20
 30
-1e+20
  9
$LIMMIN
 10
0.0
 20
0.0
  9
$LIMMAX
 10
420.0
 20
297.0
  9
$ORTHOMODE
 70
0
  9
$REGENMODE
 70
1
  9
$FILLMODE
 70
1
  9
$QTEXTMODE
 70
0
  9
$MIRRTEXT
 70
1
  9
$LTSCALE
 40
1.0
  9
$ATTMODE
 70
1
  9
$TEXTSIZE
 40
2.5
  9
$TRACEWID
 40
1.0
  9
$TEXTSTYLE
  7
Standard
  9
$CLAYER
  8
0
  9
$CELTYPE
  6
ByLayer
  9
$CECOLOR
 62
256
  9
$CELTSCALE
 40
1.0
  9
$DISPSILH
 70
0
  9
$DIMSCALE
 40
1.0
  9
$DIMASZ
 40
2.5
  9
$DIMEXO
 40
0.625
  9
$DIMDLI
 40
3.75
  9
$DIMRND
 40
0.0
  9
$DIMDLE
 40
0.0
  9
$DIMEXE
 40
1.25
  9
$DIMTP
 40
0.0
  9
$DIMTM
 40
0.0
  9
$DIMTXT
 40
2.5
  9
$DIMCEN
 40
2.5
  9
$DIMTSZ
 40
0.0
  9
$DIMTOL
 70
0
  9
$DIMLIM
 70
0
  9
$DIMTIH
 70
0
  9
$DIMTOH
 70
0
  9
$DIMSE1
 70
0
  9
$DIMSE2
 70
0
  9
$DIMTAD
 70
1
  9
$DIMZIN
 70
8
  9
$DIMBLK
  1

  9
$DIMASO
 70
1
  9
$DIMSHO
 70
1
  9
$DIMPOST
  1

  9
$DIMAPOST
  1

  9
$DIMALT
 70
0
  9
$DIMALTD
 70
3
  9
$DIMALTF
 40
0.03937007874
  9
$DIMLFAC
 40
1.0
  9
$DIMTOFL
 70
1
  9
$DIMTVP
 40
0.0
  9
$DIMTIX
 70
0
  9
$DIMSOXD
 70
0
  9
$DIMSAH
 70
0
  9
$DIMBLK1
  1

  9
$DIMBLK2
  1

  9
$DIMSTYLE
  2
ISO-25
  9
$DIMCLRD
 70
0
  9
$DIMCLRE
 70
0
  9
$DIMCLRT
 70
0
  9
$DIMTFAC
 40
1.0
  9
$DIMGAP
 40
0.625
  9
$DIMJUST
 70
0
  9
$DIMSD1
 70
0
  9
$DIMSD2
 70
0
  9
$DIMTOLJ
 70
0
  9
$DIMTZIN
 70
8
  9
$DIMALTZ
 70
0
  9
$DIMALTTZ
 70
0
  9
$DIMUPT
 70
0
  9
$DIMDEC
 70
2
  9
$DIMTDEC
 70
2
  9
$DIMALTU
 70
2
  9
$DIMALTTD
 70
3
  9
$DIMTXSTY
  7
Standard
  9
$DIMAUNIT
 70
0
  9
$DIMADEC
 70
0
  9
$DIMALTRND
 40
0.0
  9
$DIMAZIN
 70
0
  9
$DIMDSEP
 70
44
  9
$DIMATFIT
 70
3
  9
$DIMFRAC
 70
0
  9
$DIMLDRBLK
  1

  9
$DIMLUNIT
 70
2
  9
$DIMLWD
 70
-2
  9
$DIMLWE
 70
-2
  9
$DIMTMOVE
 70
0
  9
$LUNITS
 70
2
  9
$LUPREC
 70
4
  9
$SKETCHINC
 40
1.0
  9
$FILLETRAD
 40
10.0
  9
$AUNITS
 70
0
  9
$AUPREC
 70
2
  9
$MENU
  1
.
  9
$ELEVATION
 40
0.0
  9
$PELEVATION
 40
0.0
  9
$THICKNESS
 40
0.0
  9
$LIMCHECK
 70
0
  9
$CHAMFERA
 40
0.0
  9
$CHAMFERB
 40
0.0
  9
$CHAMFERC
 40
0.0
  9
$CHAMFERD
 40
0.0
  9
$SKPOLY
 70
0
  9
$TDCREATE
 40
2461296.450659722
  9
$TDUCREATE
 40
2458532.153996898
  9
$TDUPDATE
 40
2461296.450659722
  9
$TDUUPDATE
 40
2458532.1544311
  9
$TDINDWG
 40
0.0
  9
$TDUSRTIMER
 40
0.0
  9
$USRTIMER
 70
1
  9
$ANGBASE
 50
0.0
  9
$ANGDIR
 70
0
  9
$PDMODE
 70
0
  9
$PDSIZE
 40
0.0
  9
$PLINEWID
 40
0.0
  9
$SPLFRAME
 70
0
  9
$SPLINETYPE
 70
6
  9
$SPLINESEGS
 70
8
  9
$HANDSEED
  5
3A
  9
$SURFTAB1
 70
6
  9
$SURFTAB2
 70
6
  9
$SURFTYPE
 70
6
  9
$SURFU
 70
6
  9
$SURFV
 70
6
  9
$UCSBASE
  2

  9
$UCSNAME
  2

  9
$UCSORG
 10
0.0
 20
0.0
 30
0.0
  9
$UCSXDIR
 10
1.0
 20
0.0
 30
0.0
  9
$UCSYDIR
 10
0.0
 20
1.0
 30
0.0
  9
$UCSORTHOREF
  2

  9
$UCSORTHOVIEW
 70
0
  9
$UCSORGTOP
 10
0.0
 20
0.0
 30
0.0
  9
$UCSORGBOTTOM
 10
0.0
 20
0.0
 30
0.0
  9
$UCSORGLEFT
 10
0.0
 20
0.0
 30
0.0
  9
$UCSORGRIGHT
 10
0.0
 20
0.0
 30
0.0
  9
$UCSORGFRONT
 10
0.0
 20
0.0
 30
0.0
  9
$UCSORGBACK
 10
0.0
 20
0.0
 30
0.0
  9
$PUCSBASE
  2

  9
$PUCSNAME
  2

  9
$PUCSORG
 10
0.0
 20
0.0
 30
0.0
  9
$PUCSXDIR
 10
1.0
 20
0.0
 30
0.0
  9
$PUCSYDIR
 10
0.0
 20
1.0
 30
0.0
  9
$PUCSORTHOREF
  2

  9
$PUCSORTHOVIEW
 70
0
  9
$PUCSORGTOP
 10
0.0
 20
0.0
 30
0.0
  9
$PUCSORGBOTTOM
 10
0.0
 20
0.0
 30
0.0
  9
$PUCSORGLEFT
 10
0.0
 20
0.0
 30
0.0
  9
$PUCSORGRIGHT
 10
0.0
 20
0.0
 30
0.0
  9
$PUCSORGFRONT
 10
0.0
 20
0.0
 30
0.0
  9
$PUCSORGBACK
 10
0.0
 20
0.0
 30
0.0
  9
$USERI1
 70
0
  9
$USERI2
 70
0
  9
$USERI3
 70
0
  9
$USERI4
 70
0
  9
$USERI5
 70
0
  9
$USERR1
 40
0.0
  9
$USERR2
 40
0.0
  9
$USERR3
 40
0.0
  9
$USERR4
 40
0.0
  9
$USERR5
 40
0.0
  9
$WORLDVIEW
 70
1
  9
$SHADEDGE
 70
3
  9
$SHADEDIF
 70
70
  9
$TILEMODE
 70
1
  9
$MAXACTVP
 70
64
  9
$PINSBASE
 10
0.0
 20
0.0
 30
0.0
  9
$PLIMCHECK
 70
0
  9
$PEXTMIN
 10
1e+20
 20
1e+20
 30
1e+20
  9
$PEXTMAX
 10
-1e+20
 20
-1e+20
 30
-1e+20
  9
$PLIMMIN
 10
0.0
 20
0.0
  9
$PLIMMAX
 10
420.0
 20
297.0
  9
$UNITMODE
 70
0
  9
$VISRETAIN
 70
1
  9
$PLINEGEN
 70
0
  9
$PSLTSCALE
 70
1
  9
$TREEDEPTH
 70
3020
  9
$CMLSTYLE
  2
Standard
  9
$CMLJUST
 70
0
  9
$CMLSCALE
 40
20.0
  9
$PROXYGRAPHICS
 70
1
  9
$MEASUREMENT
 70
1
  9
$CELWEIGHT
370
-1
  9
$ENDCAPS
280
0
  9
$JOINSTYLE
280
0
  9
$LWDISPLAY
290
0
  9
$INSUNITS
 70
4
  9
$HYPERLINKBASE
  1

  9
$STYLESHEET
  1

  9
$XEDIT
290
1
  9
$CEPSNTYPE
380
0
  9
$PSTYLEMODE
290
1
  9
$FINGERPRINTGUID
  2
{181674D1-6919-4498-8023-D9D1182BB78D}
  9
$VERSIONGUID
  2
{6CC20C38-0FB1-4820-9DBC-F9D232EFC77F}
  9
$EXTNAMES
290
1
  9
$PSVPSCALE
 40
0.0
  9
$OLESTARTUP
290
0
  0
ENDSEC
  0
SECTION
  2
CLASSES
  0
CLASS
  1
ACDBDICTIONARYWDFLT
  2
AcDbDictionaryWithDefault
  3
ObjectDBX Classes
 90
0
280
0
281
0
  0
CLASS
  1
SUN
  2
AcDbSun
  3
SCENEOE
 90
1153
280
0
281
0
  0
CLASS
  1
VISUALSTYLE
  2
AcDbVisualStyle
  3
ObjectDBX Classes
 90
4095
280
0
281
0
  0
CLASS
  1
MATERIAL
  2
AcDbMaterial
  3
ObjectDBX Classes
 90
1153
280
0
281
0
  0
CLASS
  1
SCALE
  2
AcDbScale
  3
ObjectDBX Classes
 90
1153
280
0
281
0
  0
CLASS
  1
TABLESTYLE
  2
AcDbTableStyle
  3
ObjectDBX Classes
 90
4095
280
0
281
0
  0
CLASS
  1
MLEADERSTYLE
  2
AcDbMLeaderStyle
  3
ACDB_MLEADERSTYLE_CLASS
 90
4095
280
0
281
0
  0
CLASS
  1
DICTIONARYVAR
  2
AcDbDictionaryVar
  3
ObjectDBX Classes
 90
0
280
0
281
0
  0
CLASS
  1
CELLSTYLEMAP
  2
AcDbCellStyleMap
  3
ObjectDBX Classes
 90
1152
280
0
281
0
  0
CLASS
  1
MENTALRAYRENDERSETTINGS
  2
AcDbMentalRayRenderSettings
  3
SCENEOE
 90
1024
280
0
281
0
  0
CLASS
  1
ACDBDETAILVIEWSTYLE
  2
AcDbDetailViewStyle
  3
ObjectDBX Classes
 90
1025
280
0
281
0
  0
CLASS
  1
ACDBSECTIONVIEWSTYLE
  2
AcDbSectionViewStyle
  3
ObjectDBX Classes
 90
1025
280
0
281
0
  0
CLASS
  1
RASTERVARIABLES
  2
AcDbRasterVariables
  3
ISM
 90
0
280
0
281
0
  0
CLASS
  1
ACDBPLACEHOLDER
  2
AcDbPlaceHolder
  3
ObjectDBX Classes
 90
0
280
0
281
0
  0
CLASS
  1
LAYOUT
  2
AcDbLayout
  3
ObjectDBX Classes
 90
0
280
0
281
0
  0
ENDSEC
  0
SECTION
  2
TABLES
  0
TABLE
  2
VPORT
  5
8
330
0
100
AcDbSymbolTable
 70
1
  0
VPORT
  5
23
330
8
100
AcDbSymbolTableRecord
100
AcDbViewportTableRecord
  2
*Active
 70
0
 10
0.0
 20
0.0
 11
1.0
 21
1.0
 12
0.0
 22
0.0
 13
0.0
 23
0.0
 14
0.5
 24
0.5
 15
0.5
 25
0.5
 16
0.0
 26
0.0
 36
1.0
 17
0.0
 27
0.0
 37
0.0
 40
1000.0
 41
1.34
 42
50.0
 43
0.0
 44
0.0
 50
0.0
 51
0.0
 71
0
 72
1000
 73
1
 74
3
 75
0
 76
0
 77
0
 78
0
281
0
 65
0
146
0.0
  0
ENDTAB
  0
TABLE
  2
LTYPE
  5
2
330
0
100
AcDbSymbolTable
 70
3
  0
LTYPE
  5
24
330
2
100
AcDbSymbolTableRecord
100
AcDbLinetypeTableRecord
  2
ByBlock
 70
0
  3

 72
65
 73
0
 40
0.0
  0
LTYPE
  5
25
330
2
100
AcDbSymbolTableRecord
100
AcDbLinetypeTableRecord
  2
ByLayer
 70
0
  3

 72
65
 73
0
 40
0.0
  0
LTYPE
  5
26
330
2
100
AcDbSymbolTableRecord
100
AcDbLinetypeTableRecord
  2
Continuous
 70
0
  3

 72
65
 73
0
 40
0.0
  0
ENDTAB
  0
TABLE
  2
LAYER
  5
1
330
0
100
AcDbSymbolTable
 70
4
  0
LAYER
  5
27
330
1
100
AcDbSymbolTableRecord
100
AcDbLayerTableRecord
  2
0
 70
0
 62
7
  6
Continuous
370
-3
390
13
  0
LAYER
  5
28
330
1
100
AcDbSymbolTableRecord
100
AcDbLayerTableRecord
  2
Defpoints
 70
0
 62
7
  6
Continuous
290
0
370
-3
390
13
  0
LAYER
  5
2F
330
1
100
AcDbSymbolTableRecord
100
AcDbLayerTableRecord
  2
CUT
 70
0
 62
1
  6
Continuous
370
-3
390
13
  0
LAYER
  5
30
330
1
100
AcDbSymbolTableRecord
100
AcDbLayerTableRecord
  2
RASTER
 70
0
 62
7
  6
Continuous
370
-3
390
13
  0
ENDTAB
  0
TABLE
  2
STYLE
  5
5
330
0
100
AcDbSymbolTable
 70
1
  0
STYLE
  5
29
330
5
100
AcDbSymbolTableRecord
100
AcDbTextStyleTableRecord
  2
Standard
 70
0
 40
0.0
 41
1.0
 50
0.0
 71
0
 42
2.5
  3
txt
  4

  0
ENDTAB
  0
TABLE
  2
VIEW
  5
7
330
0
100
AcDbSymbolTable
 70
0
  0
ENDTAB
  0
TABLE
  2
UCS
  5
6
330
0
100
AcDbSymbolTable
 70
0
  0
ENDTAB
  0
TABLE
  2
APPID
  5
3
330
0
100
AcDbSymbolTable
 70
3
  0
APPID
  5
2A
330
3
100
AcDbSymbolTableRecord
100
AcDbRegAppTableRecord
  2
ACAD
 70
0
  0
APPID
  5
37
330
3
100
AcDbSymbolTableRecord
100
AcDbRegAppTableRecord
  2
HATCHBACKGROUNDCOLOR
 70
0
  0
APPID
  5
38
330
3
100
AcDbSymbolTableRecord
100
AcDbRegAppTableRecord
  2
EZDXF
 70
0
  0
ENDTAB
  0
TABLE
  2
DIMSTYLE
  5
4
330
0
100
AcDbSymbolTable
 70
1
100
AcDbDimStyleTable
  0
DIMSTYLE
105
2B
330
4
100
AcDbSymbolTableRecord
100
AcDbDimStyleTableRecord
  2
Standard
 70
0
  3

  4

 40
1.0
 41
2.5
 42
0.625
 43
3.75
 44
1.25
 45
0.0
 46
0.0
 47
0.0
 48
0.0
140
2.5
141
2.5
142
0.0
143
0.03937007874
144
1.0
145
0.0
146
1.0
147
0.625
148
0.0
 71
0
 72
0
 73
0
 74
0
 75
0
 76
0
 77
1
 78
8
 79
3
170
0
171
3
172
1
173
0
174
0
175
0
176
0
177
0
178
0
179
2
271
2
272
2
273
2
274
3
275
0
276
0
277
2
278
44
279
0
280
0
281
0
282
0
283
0
284
8
285
0
286
0
288
0
289
3
371
-2
372
-2
  0
ENDTAB
  0
TABLE
  2
BLOCK_RECORD
  5
9
330
0
100
AcDbSymbolTable
 70
2
  0
BLOCK_RECORD
  5
17
330
9
100
AcDbSymbolTableRecord
100
AcDbBlockTableRecord
  2
*Model_Space
340
1A
  0
BLOCK_RECORD
  5
1B
330
9
100
AcDbSymbolTableRecord
100
AcDbBlockTableRecord
  2
*Paper_Space
340
1E
  0
ENDTAB
  0
ENDSEC
  0
SECTION
  2
BLOCKS
  0
BLOCK
  5
18
330
17
100
AcDbEntity
  8
0
100
AcDbBlockBegin
  2
*Model_Space
 70
0
 10
0.0
 20
0.0
 30
0.0
  3
*Model_Space
  1

  0
ENDBLK
  5
19
330
17
100
AcDbEntity
  8
0
100
AcDbBlockEnd
  0
BLOCK
  5
1C
330
1B
100
AcDbEntity
  8
0
100
AcDbBlockBegin
  2
*Paper_Space
 70
0
 10
0.0
 20
0.0
 30
0.0
  3
*Paper_Space
  1

  0
ENDBLK
  5
1D
330
1B
100
AcDbEntity
  8
0
100
AcDbBlockEnd
  0
ENDSEC
  0
SECTION
  2
ENTITIES
  0
LWPOLYLINE
  5
31
330
17
100
AcDbEntity
  8
CUT
100
AcDbPolyline
 90
31
 70
1
 10
10.2
 20
30.074
 10
19.04
 20
30.074
 10
19.04
 20
17.011
 10
18.399
 20
16.65
 10
17.778
 20
16.331
 10
17.156
 20
16.042
 10
16.535
 20
15.782
 10
15.913
 20
15.553
 10
15.291
 20
15.354
 10
14.67
 20
15.186
 10
14.048
 20
15.047
 10
13.426
 20
14.939
 10
12.84
 20
14.865
 10
12.84
 20
9.94
 10
14.99
 20
9.94
 10
14.99
 20
3.96
 10
8.01
 20
3.96
 10
8.01
 20
9.94
 10
10.16
 20
9.94
 10
10.16
 20
14.865
 10
9.574
 20
14.939
 10
8.952
 20
15.047
 10
8.33
 20
15.186
 10
7.709
 20
15.354
 10
7.087
 20
15.553
 10
6.465
 20
15.782
 10
5.844
 20
16.042
 10
5.222
 20
16.331
 10
4.601
 20
16.65
 10
3.96
 20
17.011
 10
3.96
 20
30.074
  0
HATCH
  5
32
330
17
100
AcDbEntity
  8
RASTER
 62
7
100
AcDbHatch
 10
0.0
 20
0.0
 30
0.0
210
0.0
220
0.0
230
1.0
  2
SOLID
 70
1
 71
0
 91
1
 92
3
 72
0
 73
1
 93
4
 10
4.0
 20
29.334
 10
19.0
 20
29.334
 10
19.0
 20
28.834
 10
4.0
 20
28.834
 97
0
 75
0
 76
1
 98
0
  0
HATCH
  5
33
330
17
100
AcDbEntity
  8
RASTER
 62
7
100
AcDbHatch
 10
0.0
 20
0.0
 30
0.0
210
0.0
220
0.0
230
1.0
  2
SOLID
 70
1
 71
0
 91
4
 92
3
 72
0
 73
1
 93
45
 10
11.19
 20
27.964
 10
11.746
 20
27.974
 10
12.418
 20
27.858
 10
12.829
 20
27.703
 10
13.255
 20
27.44
 10
13.501
 20
27.219
 10
13.83
 20
26.712
 10
14.069
 20
26.089
 10
14.158
 20
25.587
 10
14.094
 20
25.036
 10
13.683
 20
24.143
 10
13.665
 20
23.865
 10
13.764
 20
23.446
 10
13.69
 20
23.176
 10
13.567
 20
23.053
 10
13.38
 20
22.969
 10
12.659
 20
22.853
 10
12.558
 20
22.683
 10
12.632
 20
22.216
 10
12.59
 20
22.061
 10
12.278
 20
21.881
 10
11.672
 20
21.773
 10
11.303
 20
21.773
 10
10.877
 20
21.839
 10
10.466
 20
21.994
 10
10.368
 20
22.093
 10
10.343
 20
22.191
 10
10.417
 20
22.585
 10
10.385
 20
22.799
 10
10.228
 20
22.888
 10
9.615
 20
22.964
 10
9.342
 20
23.109
 10
9.236
 20
23.372
 10
9.253
 20
23.626
 10
9.335
 20
23.889
 10
9.295
 20
24.17
 10
8.997
 20
24.758
 10
8.842
 20
25.292
 10
8.842
 20
25.71
 10
8.931
 20
26.138
 10
9.17
 20
26.736
 10
9.426
 20
27.145
 10
9.854
 20
27.529
 10
10.252
 20
27.745
 10
10.678
 20
27.885
 97
0
 92
2
 72
0
 73
1
 93
15
 10
10.449
 20
24.718
 10
10.097
 20
24.627
 10
9.942
 20
24.512
 10
9.787
 20
24.248
 10
9.755
 20
24.064
 10
9.809
 20
23.872
 10
9.918
 20
23.734
 10
10.112
 20
23.633
 10
10.54
 20
23.643
 10
10.752
 20
23.702
 10
10.941
 20
23.833
 10
11.096
 20
24.12
 10
11.092
 20
24.391
 10
10.976
 20
24.595
 10
10.772
 20
24.711
 97
0
 92
2
 72
0
 73
1
 93
14
 10
12.246
 20
24.718
 10
12.059
 20
24.635
 10
11.904
 20
24.421
 10
11.904
 20
24.096
 10
12.034
 20
23.857
 10
12.297
 20
23.678
 10
12.681
 20
23.619
 10
12.888
 20
23.633
 10
13.107
 20
23.759
 10
13.208
 20
23.953
 10
13.223
 20
24.135
 10
13.082
 20
24.463
 10
12.927
 20
24.603
 10
12.74
 20
24.686
 97
0
 92
3
 72
0
 73
1
 93
70
 10
8.459
 20
22.551
 10
8.678
 20
22.543
 10
8.867
 20
22.462
 10
9.303
 20
22.012
 10
9.714
 20
21.734
 10
11.475
 20
20.986
 10
11.886
 20
21.116
 10
13.368
 20
21.775
 10
13.697
 20
22.012
 10
14.076
 20
22.42
 10
14.214
 20
22.504
 10
14.428
 20
22.56
 10
14.65
 20
22.511
 10
14.78
 20
22.297
 10
14.788
 20
22.009
 10
14.952
 20
21.879
 10
15.036
 20
21.741
 10
15.034
 20
21.488
 10
14.928
 20
21.347
 10
14.652
 20
21.229
 10
14.231
 20
21.232
 10
13.725
 20
21.148
 10
12.551
 20
20.648
 10
12.509
 20
20.567
 10
12.568
 20
20.479
 10
13.651
 20
20.011
 10
14.182
 20
19.903
 10
14.733
 20
19.888
 10
14.928
 20
19.787
 10
15.034
 20
19.647
 10
15.034
 20
19.396
 10
14.952
 20
19.256
 10
14.788
 20
19.125
 10
14.748
 20
18.746
 10
14.561
 20
18.589
 10
14.428
 20
18.574
 10
14.214
 20
18.631
 10
14.052
 20
18.739
 10
13.673
 20
19.147
 10
13.417
 20
19.334
 10
11.665
 20
20.117
 10
11.451
 20
20.149
 10
9.583
 20
19.334
 10
9.327
 20
19.147
 10
8.948
 20
18.739
 10
8.786
 20
18.631
 10
8.572
 20
18.574
 10
8.353
 20
18.626
 10
8.22
 20
18.837
 10
8.212
 20
19.125
 10
8.048
 20
19.256
 10
7.966
 20
19.396
 10
7.966
 20
19.647
 10
8.072
 20
19.787
 10
8.267
 20
19.888
 10
8.818
 20
19.903
 10
9.349
 20
20.011
 10
10.432
 20
20.479
 10
10.491
 20
20.567
 10
10.449
 20
20.648
 10
9.275
 20
21.148
 10
8.769
 20
21.232
 10
8.348
 20
21.229
 10
8.072
 20
21.347
 10
7.966
 20
21.488
 10
7.964
 20
21.741
 10
8.048
 20
21.879
 10
8.212
 20
22.009
 10
8.203
 20
22.191
 10
8.276
 20
22.437
 97
0
 75
0
 76
1
 98
0
  0
LWPOLYLINE
  5
34
330
17
100
AcDbEntity
  8
CUT
100
AcDbPolyline
 90
31
 70
1
 10
27.7
 20
30.074
 10
35.04
 20
30.074
 10
35.04
 20
19.013
 10
34.552
 20
18.67
 10
34.081
 20
18.365
 10
33.61
 20
18.087
 10
33.138
 20
17.836
 10
32.666
 20
17.612
 10
32.194
 20
17.415
 10
31.723
 20
17.245
 10
31.251
 20
17.102
 10
30.778
 20
16.986
 10
30.34
 20
16.904
 10
30.34
 20
11.977
 10
32.49
 20
11.977
 10
32.49
 20
5.997
 10
25.51
 20
5.997
 10
25.51
 20
11.977
 10
27.66
 20
11.977
 10
27.66
 20
16.904
 10
27.222
 20
16.986
 10
26.749
 20
17.102
 10
26.277
 20
17.245
 10
25.806
 20
17.415
 10
25.334
 20
17.612
 10
24.862
 20
17.836
 10
24.39
 20
18.087
 10
23.919
 20
18.365
 10
23.448
 20
18.67
 10
22.96
 20
19.013
 10
22.96
 20
30.074
  0
HATCH
  5
35
330
17
100
AcDbEntity
  8
RASTER
 62
7
100
AcDbHatch
 10
0.0
 20
0.0
 30
0.0
210
0.0
220
0.0
230
1.0
  2
SOLID
 70
1
 71
0
 91
1
 92
3
 72
0
 73
1
 93
4
 10
23.0
 20
29.334
 10
35.0
 20
29.334
 10
35.0
 20
28.834
 10
23.0
 20
28.834
 97
0
 75
0
 76
1
 98
0
  0
HATCH
  5
36
330
17
100
AcDbEntity
  8
RASTER
 62
7
100
AcDbHatch
 10
0.0
 20
0.0
 30
0.0
210
0.0
220
0.0
230
1.0
  2
SOLID
 70
1
 71
0
 91
4
 92
3
 72
0
 73
1
 93
45
 10
28.756
 20
28.006
 10
29.194
 20
28.014
 10
29.723
 20
27.923
 10
30.046
 20
27.801
 10
30.381
 20
27.594
 10
30.575
 20
27.419
 10
30.835
 20
27.02
 10
31.022
 20
26.53
 10
31.092
 20
26.135
 10
31.042
 20
25.701
 10
30.718
 20
24.998
 10
30.705
 20
24.779
 10
30.782
 20
24.45
 10
30.724
 20
24.237
 10
30.627
 20
24.14
 10
30.48
 20
24.074
 10
29.912
 20
23.983
 10
29.833
 20
23.849
 10
29.891
 20
23.481
 10
29.858
 20
23.359
 10
29.612
 20
23.218
 10
29.136
 20
23.132
 10
28.845
 20
23.132
 10
28.51
 20
23.185
 10
28.186
 20
23.307
 10
28.109
 20
23.384
 10
28.09
 20
23.462
 10
28.148
 20
23.772
 10
28.122
 20
23.94
 10
27.998
 20
24.01
 10
27.516
 20
24.07
 10
27.301
 20
24.184
 10
27.218
 20
24.391
 10
27.231
 20
24.591
 10
27.295
 20
24.798
 10
27.264
 20
25.019
 10
27.03
 20
25.482
 10
26.908
 20
25.902
 10
26.908
 20
26.232
 10
26.978
 20
26.569
 10
27.165
 20
27.04
 10
27.367
 20
27.361
 10
27.704
 20
27.663
 10
28.018
 20
27.834
 10
28.353
 20
27.944
 97
0
 92
2
 72
0
 73
1
 93
15
 10
28.173
 20
25.451
 10
27.896
 20
25.379
 10
27.774
 20
25.288
 10
27.652
 20
25.081
 10
27.627
 20
24.936
 10
27.669
 20
24.785
 10
27.754
 20
24.676
 10
27.907
 20
24.597
 10
28.245
 20
24.605
 10
28.411
 20
24.651
 10
28.56
 20
24.754
 10
28.682
 20
24.98
 10
28.678
 20
25.193
 10
28.587
 20
25.354
 10
28.427
 20
25.445
 97
0
 92
2
 72
0
 73
1
 93
14
 10
29.587
 20
25.451
 10
29.44
 20
25.385
 10
29.318
 20
25.217
 10
29.318
 20
24.961
 10
29.42
 20
24.773
 10
29.628
 20
24.632
 10
29.93
 20
24.585
 10
30.093
 20
24.597
 10
30.265
 20
24.696
 10
30.344
 20
24.849
 10
30.356
 20
24.992
 10
30.246
 20
25.25
 10
30.124
 20
25.36
 10
29.976
 20
25.426
 97
0
 92
3
 72
0
 73
1
 93
70
 10
26.606
 20
23.744
 10
26.778
 20
23.739
 10
26.927
 20
23.675
 10
27.27
 20
23.32
 10
27.594
 20
23.101
 10
28.981
 20
22.512
 10
29.304
 20
22.615
 10
30.47
 20
23.134
 10
30.73
 20
23.32
 10
31.028
 20
23.642
 10
31.137
 20
23.708
 10
31.305
 20
23.752
 10
31.48
 20
23.713
 10
31.582
 20
23.545
 10
31.588
 20
23.318
 10
31.718
 20
23.216
 10
31.784
 20
23.107
 10
31.782
 20
22.908
 10
31.698
 20
22.797
 10
31.482
 20
22.704
 10
31.15
 20
22.706
 10
30.751
 20
22.64
 10
29.827
 20
22.247
 10
29.794
 20
22.183
 10
29.841
 20
22.113
 10
30.693
 20
21.745
 10
31.112
 20
21.66
 10
31.545
 20
21.648
 10
31.698
 20
21.569
 10
31.782
 20
21.459
 10
31.782
 20
21.261
 10
31.718
 20
21.151
 10
31.588
 20
21.048
 10
31.557
 20
20.75
 10
31.41
 20
20.626
 10
31.305
 20
20.614
 10
31.137
 20
20.659
 10
31.009
 20
20.744
 10
30.711
 20
21.065
 10
30.509
 20
21.213
 10
29.13
 20
21.829
 10
28.961
 20
21.854
 10
27.491
 20
21.213
 10
27.289
 20
21.065
 10
26.991
 20
20.744
 10
26.863
 20
20.659
 10
26.695
 20
20.614
 10
26.522
 20
20.655
 10
26.418
 20
20.821
 10
26.412
 20
21.048
 10
26.282
 20
21.151
 10
26.218
 20
21.261
 10
26.218
 20
21.459
 10
26.302
 20
21.569
 10
26.455
 20
21.648
 10
26.888
 20
21.66
 10
27.307
 20
21.745
 10
28.159
 20
22.113
 10
28.206
 20
22.183
 10
28.173
 20
22.247
 10
27.249
 20
22.64
 10
26.85
 20
22.706
 10
26.518
 20
22.704
 10
26.302
 20
22.797
 10
26.218
 20
22.908
 10
26.216
 20
23.107
 10
26.282
 20
23.216
 10
26.412
 20
23.318
 10
26.404
 20
23.462
 10
26.462
 20
23.655
 97
0
 75
0
 76
1
 98
0
  0
ENDSEC
  0
SECTION
  2
OBJECTS
  0
DICTIONARY
  5
A
330
0
100
AcDbDictionary
281
1
  3
ACAD_COLOR
350
B
  3
ACAD_GROUP
350
C
  3
ACAD_LAYOUT
350
D
  3
ACAD_MATERIAL
350
E
  3
ACAD_MLEADERSTYLE
350
F
  3
ACAD_MLINESTYLE
350
10
  3
ACAD_PLOTSETTINGS
350
11
  3
ACAD_PLOTSTYLENAME
350
12
  3
ACAD_SCALELIST
350
14
  3
ACAD_TABLESTYLE
350
15
  3
ACAD_VISUALSTYLE
350
16
  3
EZDXF_META
350
2D
  0
DICTIONARY
  5
B
330
A
100
AcDbDictionary
281
1
  0
DICTIONARY
  5
C
330
A
100
AcDbDictionary
281
1
  0
DICTIONARY
  5
D
330
A
100
AcDbDictionary
281
1
  3
Model
350
1A
  3
Layout1
350
1E
  0
DICTIONARY
  5
E
330
A
100
AcDbDictionary
281
1
  3
ByBlock
350
1F
  3
ByLayer
350
20
  3
Global
350
21
  0
DICTIONARY
  5
F
330
A
100
AcDbDictionary
281
1
  3
Standard
350
2C
  0
DICTIONARY
  5
10
330
A
100
AcDbDictionary
281
1
  3
Standard
350
22
  0
DICTIONARY
  5
11
330
A
100
AcDbDictionary
281
1
  0
ACDBDICTIONARYWDFLT
  5
12
330
A
100
AcDbDictionary
281
1
  3
Normal
350
13
100
AcDbDictionaryWithDefault
340
13
  0
ACDBPLACEHOLDER
  5
13
330
12
  0
DICTIONARY
  5
14
330
A
100
AcDbDictionary
281
1
  0
DICTIONARY
  5
15
330
A
100
AcDbDictionary
281
1
  0
DICTIONARY
  5
16
330
A
100
AcDbDictionary
281
1
  0
LAYOUT
  5
1A
330
D
100
AcDbPlotSettings
  1

  4
A3
  6

 40
7.5
 41
20.0
 42
7.5
 43
20.0
 44
420.0
 45
297.0
 46
0.0
 47
0.0
 48
0.0
 49
0.0
140
0.0
141
0.0
142
1.0
143
1.0
 70
1024
 72
1
 73
0
 74
5
  7

 75
16
 76
0
 77
2
 78
300
147
1.0
148
0.0
149
0.0
100
AcDbLayout
  1
Model
 70
1
 71
0
 10
0.0
 20
0.0
 11
420.0
 21
297.0
 12
0.0
 22
0.0
 32
0.0
 14
1e+20
 24
1e+20
 34
1e+20
 15
-1e+20
 25
-1e+20
 35
-1e+20
146
0.0
 13
0.0
 23
0.0
 33
0.0
 16
1.0
 26
0.0
 36
0.0
 17
0.0
 27
1.0
 37
0.0
 76
1
330
17
  0
LAYOUT
  5
1E
330
D
100
AcDbPlotSettings
  1

  4
A3
  6

 40
7.5
 41
20.0
 42
7.5
 43
20.0
 44
420.0
 45
297.0
 46
0.0
 47
0.0
 48
0.0
 49
0.0
140
0.0
141
0.0
142
1.0
143
1.0
 70
0
 72
1
 73
0
 74
5
  7

 75
16
 76
0
 77
2
 78
300
147
1.0
148
0.0
149
0.0
100
AcDbLayout
  1
Layout1
 70
1
 71
1
 10
0.0
 20
0.0
 11
420.0
 21
297.0
 12
0.0
 22
0.0
 32
0.0
 14
1e+20
 24
1e+20
 34
1e+20
 15
-1e+20
 25
-1e+20
 35
-1e+20
146
0.0
 13
0.0
 23
0.0
 33
0.0
 16
1.0
 26
0.0
 36
0.0
 17
0.0
 27
1.0
 37
0.0
 76
1
330
1B
  0
MATERIAL
  5
1F
102
{ACAD_REACTORS
330
E
102
}
330
E
100
AcDbMaterial
  1
ByBlock
  2

 70
0
 40
1.0
 71
1
 41
1.0
 91
-1023410177
 42
1.0
 72
1
  3

 73
1
 74
1
 75
1
 44
0.5
 73
0
 45
1.0
 46
1.0
 77
1
  4

 78
1
 79
1
170
1
 48
1.0
171
1
  6

172
1
173
1
174
1
140
1.0
141
1.0
175
1
  7

176
1
177
1
178
1
143
1.0
179
1
  8

270
1
271
1
272
1
145
1.0
146
1.0
273
1
  9

274
1
275
1
276
1
 42
1.0
 72
1
  3

 73
1
 74
1
 75
1
 94
63
  0
MATERIAL
  5
20
102
{ACAD_REACTORS
330
E
102
}
330
E
100
AcDbMaterial
  1
ByLayer
  2

 70
0
 40
1.0
 71
1
 41
1.0
 91
-1023410177
 42
1.0
 72
1
  3

 73
1
 74
1
 75
1
 44
0.5
 73
0
 45
1.0
 46
1.0
 77
1
  4

 78
1
 79
1
170
1
 48
1.0
171
1
  6

172
1
173
1
174
1
140
1.0
141
1.0
175
1
  7

176
1
177
1
178
1
143
1.0
179
1
  8

270
1
271
1
272
1
145
1.0
146
1.0
273
1
  9

274
1
275
1
276
1
 42
1.0
 72
1
  3

 73
1
 74
1
 75
1
 94
63
  0
MATERIAL
  5
21
102
{ACAD_REACTORS
330
E
102
}
330
E
100
AcDbMaterial
  1
Global
  2

 70
0
 40
1.0
 71
1
 41
1.0
 91
-1023410177
 42
1.0
 72
1
  3

 73
1
 74
1
 75
1
 44
0.5
 73
0
 45
1.0
 46
1.0
 77
1
  4

 78
1
 79
1
170
1
 48
1.0
171
1
  6

172
1
173
1
174
1
140
1.0
141
1.0
175
1
  7

176
1
177
1
178
1
143
1.0
179
1
  8

270
1
271
1
272
1
145
1.0
146
1.0
273
1
  9

274
1
275
1
276
1
 42
1.0
 72
1
  3

 73
1
 74
1
 75
1
 94
63
  0
MLINESTYLE
  5
22
102
{ACAD_REACTORS
330
10
102
}
330
10
100
AcDbMlineStyle
  2
Standard
 70
0
  3

 62
256
 51
90.0
 52
90.0
 71
2
 49
0.5
 62
256
  6
BYLAYER
 49
-0.5
 62
256
  6
BYLAYER
  0
MLEADERSTYLE
  5
2C
102
{ACAD_REACTORS
330
F
102
}
330
F
100
AcDbMLeaderStyle
179
2
170
2
171
1
172
0
 90
2
 40
0.0
 41
0.0
173
1
 91
-1056964608
 92
-2
290
1
 42
2.0
291
1
 43
8.0
  3
Standard
 44
4.0
300

342
29
174
1
175
1
176
0
178
1
 93
-1056964608
 45
4.0
292
0
297
0
 46
4.0
 94
-1056964608
 47
1.0
 49
1.0
140
1.0
294
1
141
0.0
177
0
142
1.0
295
0
296
0
143
3.75
271
0
272
9
273
9
  0
DICTIONARY
  5
2D
330
A
100
AcDbDictionary
280
1
281
1
  3
CREATED_BY_EZDXF
350
2E
  3
WRITTEN_BY_EZDXF
350
39
  0
DICTIONARYVAR
  5
2E
330
2D
100
DictionaryVariables
280
0
  1
1.4.2 @ 2026-09-12T14:48:57.479748+00:00
  0
DICTIONARYVAR
  5
39
330
2D
100
DictionaryVariables
280
0
  1
1.4.2 @ 2026-09-12T14:48:57.481475+00:00
  0
ENDSEC
  0
EOF
