  0
SECTION
  2
HEADER
  9
$ACADVER
  1
AC1015
  9
$ACADMAINTVER
 70
6
  9
$DWGCODEPAGE
  3
ANSI_1252
  9
$INSBASE
 10
0.0
 20
0.0
 30
0.0
  9
$EXTMIN
 10
1e+20
 20
1e+20
 30
1e+20
  9
$EXTMAX
 10
-1e+20
 20
-1e+20
 30
-1e+20
  9
$LIMMIN
 10
0.0
 20
0.0
  9
$LIMMAX
 10
420.0
 20
297.0
  9
$ORTHOMODE
 70
0
  9
$REGENMODE
 70
1
  9
$FILLMODE
 70
1
  9
$QTEXTMODE
 70
0
  9
$MIRRTEXT
 70
1
  9
$LTSCALE
 40
1.0
  9
$ATTMODE
 70
1
  9
$TEXTSIZE
 40
2.5
  9
$TRACEWID
 40
1.0
  9
$TEXTSTYLE
  7
Standard
  9
$CLAYER
  8
0
  9
$CELTYPE
  6
ByLayer
  9
$CECOLOR
 62
256
  9
$CELTSCALE
 40
1.0
  9
$DISPSILH
 70
0
  9
$DIMSCALE
 40
1.0
  9
$DIMASZ
 40
2.5
  9
$DIMEXO
 40
0.625
  9
$DIMDLI
 40
3.75
  9
$DIMRND
 40
0.0
  9
$DIMDLE
 40
0.0
  9
$DIMEXE
 40
1.25
  9
$DIMTP
 40
0.0
  9
$DIMTM
 40
0.0
  9
$DIMTXT
 40
2.5
  9
$DIMCEN
 40
2.5
  9
$DIMTSZ
 40
0.0
  9
$DIMTOL
 70
0
  9
$DIMLIM
 70
0
  9
$DIMTIH
 70
0
  9
$DIMTOH
 70
0
  9
$DIMSE1
 70
0
  9
$DIMSE2
 70
0
  9
$DIMTAD
 70
1
  9
$DIMZIN
 70
8
  9
$DIMBLK
  1

  9
$DIMASO
 70
1
  9
$DIMSHO
 70
1
  9
$DIMPOST
  1

  9
$DIMAPOST
  1

  9
$DIMALT
 70
0
  9
$DIMALTD
 70
3
  9
$DIMALTF
 40
0.03937007874
  9
$DIMLFAC
 40
1.0
  9
$DIMTOFL
 70
1
  9
$DIMTVP
 40
0.0
  9
$DIMTIX
 70
0
  9
$DIMSOXD
 70
0
  9
$DIMSAH
 70
0
  9
$DIMBLK1
  1

  9
$DIMBLK2
  1

  9
$DIMSTYLE
  2
ISO-25
  9
$DIMCLRD
 70
0
  9
$DIMCLRE
 70
0
  9
$DIMCLRT
 70
0
  9
$DIMTFAC
 40
1.0
  9
$DIMGAP
 40
0.625
  9
$DIMJUST
 70
0
  9
$DIMSD1
 70
0
  9
$DIMSD2
 70
0
  9
$DIMTOLJ
 70
0
  9
$DIMTZIN
 70
8
  9
$DIMALTZ
 70
0
  9
$DIMALTTZ
 70
0
  9
$DIMUPT
 70
0
  9
$DIMDEC
 70
2
  9
$DIMTDEC
 70
2
  9
$DIMALTU
 70
2
  9
$DIMALTTD
 70
3
  9
$DIMTXSTY
  7
Standard
  9
$DIMAUNIT
 70
0
  9
$DIMADEC
 70
0
  9
$DIMALTRND
 40
0.0
  9
$DIMAZIN
 70
0
  9
$DIMDSEP
 70
44
  9
$DIMATFIT
 70
3
  9
$DIMFRAC
 70
0
  9
$DIMLDRBLK
  1

  9
$DIMLUNIT
 70
2
  9
$DIMLWD
 70
-2
  9
$DIMLWE
 70
-2
  9
$DIMTMOVE
 70
0
  9
$LUNITS
 70
2
  9
$LUPREC
 70
4
  9
$SKETCHINC
 40
1.0
  9
$FILLETRAD
 40
10.0
  9
$AUNITS
 70
0
  9
$AUPREC
 70
2
  9
$MENU
  1
.
  9
$ELEVATION
 40
0.0
  9
$PELEVATION
 40
0.0
  9
$THICKNESS
 40
0.0
  9
$LIMCHECK
 70
0
  9
$CHAMFERA
 40
0.0
  9
$CHAMFERB
 40
0.0
  9
$CHAMFERC
 40
0.0
  9
$CHAMFERD
 40
0.0
  9
$SKPOLY
 70
0
  9
$TDCREATE
 40
2461297.5544212963
  9
$TDUCREATE
 40
2458532.153996898
  9
$TDUPDATE
 40
2461297.5544212963
  9
$TDUUPDATE
 40
2458532.1544311
  9
$TDINDWG
 40
0.0
  9
$TDUSRTIMER
 40
0.0
  9
$USRTIMER
 70
1
  9
$ANGBASE
 50
0.0
  9
$ANGDIR
 70
0
  9
$PDMODE
 70
0
  9
$PDSIZE
 40
0.0
  9
$PLINEWID
 40
0.0
  9
$SPLFRAME
 70
0
  9
$SPLINETYPE
 70
6
  9
$SPLINESEGS
 70
8
  9
$HANDSEED
  5
81
  9
$SURFTAB1
 70
6
  9
$SURFTAB2
 70
6
  9
$SURFTYPE
 70
6
  9
$SURFU
 70
6
  9
$SURFV
 70
6
  9
$UCSBASE
  2

  9
$UCSNAME
  2

  9
$UCSORG
 10
0.0
 20
0.0
 30
0.0
  9
$UCSXDIR
 10
1.0
 20
0.0
 30
0.0
  9
$UCSYDIR
 10
0.0
 20
1.0
 30
0.0
  9
$UCSORTHOREF
  2

  9
$UCSORTHOVIEW
 70
0
  9
$UCSORGTOP
 10
0.0
 20
0.0
 30
0.0
  9
$UCSORGBOTTOM
 10
0.0
 20
0.0
 30
0.0
  9
$UCSORGLEFT
 10
0.0
 20
0.0
 30
0.0
  9
$UCSORGRIGHT
 10
0.0
 20
0.0
 30
0.0
  9
$UCSORGFRONT
 10
0.0
 20
0.0
 30
0.0
  9
$UCSORGBACK
 10
0.0
 20
0.0
 30
0.0
  9
$PUCSBASE
  2

  9
$PUCSNAME
  2

  9
$PUCSORG
 10
0.0
 20
0.0
 30
0.0
  9
$PUCSXDIR
 10
1.0
 20
0.0
 30
0.0
  9
$PUCSYDIR
 10
0.0
 20
1.0
 30
0.0
  9
$PUCSORTHOREF
  2

  9
$PUCSORTHOVIEW
 70
0
  9
$PUCSORGTOP
 10
0.0
 20
0.0
 30
0.0
  9
$PUCSORGBOTTOM
 10
0.0
 20
0.0
 30
0.0
  9
$PUCSORGLEFT
 10
0.0
 20
0.0
 30
0.0
  9
$PUCSORGRIGHT
 10
0.0
 20
0.0
 30
0.0
  9
$PUCSORGFRONT
 10
0.0
 20
0.0
 30
0.0
  9
$PUCSORGBACK
 10
0.0
 20
0.0
 30
0.0
  9
$USERI1
 70
0
  9
$USERI2
 70
0
  9
$USERI3
 70
0
  9
$USERI4
 70
0
  9
$USERI5
 70
0
  9
$USERR1
 40
0.0
  9
$USERR2
 40
0.0
  9
$USERR3
 40
0.0
  9
$USERR4
 40
0.0
  9
$USERR5
 40
0.0
  9
$WORLDVIEW
 70
1
  9
$SHADEDGE
 70
3
  9
$SHADEDIF
 70
70
  9
$TILEMODE
 70
1
  9
$MAXACTVP
 70
64
  9
$PINSBASE
 10
0.0
 20
0.0
 30
0.0
  9
$PLIMCHECK
 70
0
  9
$PEXTMIN
 10
1e+20
 20
1e+20
 30
1e+20
  9
$PEXTMAX
 10
-1e+20
 20
-1e+20
 30
-1e+20
  9
$PLIMMIN
 10
0.0
 20
0.0
  9
$PLIMMAX
 10
420.0
 20
297.0
  9
$UNITMODE
 70
0
  9
$VISRETAIN
 70
1
  9
$PLINEGEN
 70
0
  9
$PSLTSCALE
 70
1
  9
$TREEDEPTH
 70
3020
  9
$CMLSTYLE
  2
Standard
  9
$CMLJUST
 70
0
  9
$CMLSCALE
 40
20.0
  9
$PROXYGRAPHICS
 70
1
  9
$MEASUREMENT
 70
1
  9
$CELWEIGHT
370
-1
  9
$ENDCAPS
280
0
  9
$JOINSTYLE
280
0
  9
$LWDISPLAY
290
0
  9
$INSUNITS
 70
4
  9
$HYPERLINKBASE
  1

  9
$STYLESHEET
  1

  9
$XEDIT
290
1
  9
$CEPSNTYPE
380
0
  9
$PSTYLEMODE
290
1
  9
$FINGERPRINTGUID
  2
{DAE8A222-8334-41CB-A2C2-178B1E0FB8BC}
  9
$VERSIONGUID
  2
{5E9FFD63-0E9B-4F38-9478-18FD57BB76A3}
  9
$EXTNAMES
290
1
  9
$PSVPSCALE
 40
0.0
  9
$OLESTARTUP
290
0
  0
ENDSEC
  0
SECTION
  2
CLASSES
  0
CLASS
  1
ACDBDICTIONARYWDFLT
  2
AcDbDictionaryWithDefault
  3
ObjectDBX Classes
 90
0
280
0
281
0
  0
CLASS
  1
SUN
  2
AcDbSun
  3
SCENEOE
 90
1153
280
0
281
0
  0
CLASS
  1
VISUALSTYLE
  2
AcDbVisualStyle
  3
ObjectDBX Classes
 90
4095
280
0
281
0
  0
CLASS
  1
MATERIAL
  2
AcDbMaterial
  3
ObjectDBX Classes
 90
1153
280
0
281
0
  0
CLASS
  1
SCALE
  2
AcDbScale
  3
ObjectDBX Classes
 90
1153
280
0
281
0
  0
CLASS
  1
TABLESTYLE
  2
AcDbTableStyle
  3
ObjectDBX Classes
 90
4095
280
0
281
0
  0
CLASS
  1
MLEADERSTYLE
  2
AcDbMLeaderStyle
  3
ACDB_MLEADERSTYLE_CLASS
 90
4095
280
0
281
0
  0
CLASS
  1
DICTIONARYVAR
  2
AcDbDictionaryVar
  3
ObjectDBX Classes
 90
0
280
0
281
0
  0
CLASS
  1
CELLSTYLEMAP
  2
AcDbCellStyleMap
  3
ObjectDBX Classes
 90
1152
280
0
281
0
  0
CLASS
  1
MENTALRAYRENDERSETTINGS
  2
AcDbMentalRayRenderSettings
  3
SCENEOE
 90
1024
280
0
281
0
  0
CLASS
  1
ACDBDETAILVIEWSTYLE
  2
AcDbDetailViewStyle
  3
ObjectDBX Classes
 90
1025
280
0
281
0
  0
CLASS
  1
ACDBSECTIONVIEWSTYLE
  2
AcDbSectionViewStyle
  3
ObjectDBX Classes
 90
1025
280
0
281
0
  0
CLASS
  1
RASTERVARIABLES
  2
AcDbRasterVariables
  3
ISM
 90
0
280
0
281
0
  0
CLASS
  1
ACDBPLACEHOLDER
  2
AcDbPlaceHolder
  3
ObjectDBX Classes
 90
0
280
0
281
0
  0
CLASS
  1
LAYOUT
  2
AcDbLayout
  3
ObjectDBX Classes
 90
0
280
0
281
0
  0
ENDSEC
  0
SECTION
  2
TABLES
  0
TABLE
  2
VPORT
  5
8
330
0
100
AcDbSymbolTable
 70
1
  0
VPORT
  5
23
330
8
100
AcDbSymbolTableRecord
100
AcDbViewportTableRecord
  2
*Active
 70
0
 10
0.0
 20
0.0
 11
1.0
 21
1.0
 12
0.0
 22
0.0
 13
0.0
 23
0.0
 14
0.5
 24
0.5
 15
0.5
 25
0.5
 16
0.0
 26
0.0
 36
1.0
 17
0.0
 27
0.0
 37
0.0
 40
1000.0
 41
1.34
 42
50.0
 43
0.0
 44
0.0
 50
0.0
 51
0.0
 71
0
 72
1000
 73
1
 74
3
 75
0
 76
0
 77
0
 78
0
281
0
 65
0
146
0.0
  0
ENDTAB
  0
TABLE
  2
LTYPE
  5
2
330
0
100
AcDbSymbolTable
 70
3
  0
LTYPE
  5
24
330
2
100
AcDbSymbolTableRecord
100
AcDbLinetypeTableRecord
  2
ByBlock
 70
0
  3

 72
65
 73
0
 40
0.0
  0
LTYPE
  5
25
330
2
100
AcDbSymbolTableRecord
100
AcDbLinetypeTableRecord
  2
ByLayer
 70
0
  3

 72
65
 73
0
 40
0.0
  0
LTYPE
  5
26
330
2
100
AcDbSymbolTableRecord
100
AcDbLinetypeTableRecord
  2
Continuous
 70
0
  3

 72
65
 73
0
 40
0.0
  0
ENDTAB
  0
TABLE
  2
LAYER
  5
1
330
0
100
AcDbSymbolTable
 70
4
  0
LAYER
  5
27
330
1
100
AcDbSymbolTableRecord
100
AcDbLayerTableRecord
  2
0
 70
0
 62
7
  6
Continuous
370
-3
390
13
  0
LAYER
  5
28
330
1
100
AcDbSymbolTableRecord
100
AcDbLayerTableRecord
  2
Defpoints
 70
0
 62
7
  6
Continuous
290
0
370
-3
390
13
  0
LAYER
  5
2F
330
1
100
AcDbSymbolTableRecord
100
AcDbLayerTableRecord
  2
CUT
 70
0
 62
1
  6
Continuous
370
-3
390
13
  0
LAYER
  5
30
330
1
100
AcDbSymbolTableRecord
100
AcDbLayerTableRecord
  2
RASTER
 70
0
 62
7
  6
Continuous
370
-3
390
13
  0
ENDTAB
  0
TABLE
  2
STYLE
  5
5
330
0
100
AcDbSymbolTable
 70
1
  0
STYLE
  5
29
330
5
100
AcDbSymbolTableRecord
100
AcDbTextStyleTableRecord
  2
Standard
 70
0
 40
0.0
 41
1.0
 50
0.0
 71
0
 42
2.5
  3
txt
  4

  0
ENDTAB
  0
TABLE
  2
VIEW
  5
7
330
0
100
AcDbSymbolTable
 70
0
  0
ENDTAB
  0
TABLE
  2
UCS
  5
6
330
0
100
AcDbSymbolTable
 70
0
  0
ENDTAB
  0
TABLE
  2
APPID
  5
3
330
0
100
AcDbSymbolTable
 70
3
  0
APPID
  5
2A
330
3
100
AcDbSymbolTableRecord
100
AcDbRegAppTableRecord
  2
ACAD
 70
0
  0
APPID
  5
7E
330
3
100
AcDbSymbolTableRecord
100
AcDbRegAppTableRecord
  2
HATCHBACKGROUNDCOLOR
 70
0
  0
APPID
  5
7F
330
3
100
AcDbSymbolTableRecord
100
AcDbRegAppTableRecord
  2
EZDXF
 70
0
  0
ENDTAB
  0
TABLE
  2
DIMSTYLE
  5
4
330
0
100
AcDbSymbolTable
 70
1
100
AcDbDimStyleTable
  0
DIMSTYLE
105
2B
330
4
100
AcDbSymbolTableRecord
100
AcDbDimStyleTableRecord
  2
Standard
 70
0
  3

  4

 40
1.0
 41
2.5
 42
0.625
 43
3.75
 44
1.25
 45
0.0
 46
0.0
 47
0.0
 48
0.0
140
2.5
141
2.5
142
0.0
143
0.03937007874
144
1.0
145
0.0
146
1.0
147
0.625
148
0.0
 71
0
 72
0
 73
0
 74
0
 75
0
 76
0
 77
1
 78
8
 79
3
170
0
171
3
172
1
173
0
174
0
175
0
176
0
177
0
178
0
179
2
271
2
272
2
273
2
274
3
275
0
276
0
277
2
278
44
279
0
280
0
281
0
282
0
283
0
284
8
285
0
286
0
288
0
289
3
371
-2
372
-2
  0
ENDTAB
  0
TABLE
  2
BLOCK_RECORD
  5
9
330
0
100
AcDbSymbolTable
 70
2
  0
BLOCK_RECORD
  5
17
330
9
100
AcDbSymbolTableRecord
100
AcDbBlockTableRecord
  2
*Model_Space
340
1A
  0
BLOCK_RECORD
  5
1B
330
9
100
AcDbSymbolTableRecord
100
AcDbBlockTableRecord
  2
*Paper_Space
340
1E
  0
ENDTAB
  0
ENDSEC
  0
SECTION
  2
BLOCKS
  0
BLOCK
  5
18
330
17
100
AcDbEntity
  8
0
100
AcDbBlockBegin
  2
*Model_Space
 70
0
 10
0.0
 20
0.0
 30
0.0
  3
*Model_Space
  1

  0
ENDBLK
  5
19
330
17
100
AcDbEntity
  8
0
100
AcDbBlockEnd
  0
BLOCK
  5
1C
330
1B
100
AcDbEntity
  8
0
100
AcDbBlockBegin
  2
*Paper_Space
 70
0
 10
0.0
 20
0.0
 30
0.0
  3
*Paper_Space
  1

  0
ENDBLK
  5
1D
330
1B
100
AcDbEntity
  8
0
100
AcDbBlockEnd
  0
ENDSEC
  0
SECTION
  2
ENTITIES
  0
LWPOLYLINE
  5
31
330
17
100
AcDbEntity
  8
CUT
100
AcDbPolyline
 90
40
 70
1
 10
6.8
 20
119.75
 10
81.2
 20
119.75
 10
84.04
 20
119.75
 10
84.04
 20
113.937
 10
81.24
 20
113.937
 10
81.24
 20
108.283
 10
84.04
 20
108.283
 10
84.04
 20
102.47
 10
81.2
 20
102.47
 10
75.517
 20
102.47
 10
75.517
 20
99.67
 10
69.714
 20
99.67
 10
69.714
 20
102.47
 10
64.071
 20
102.47
 10
64.071
 20
99.67
 10
58.268
 20
99.67
 10
58.268
 20
102.47
 10
52.625
 20
102.47
 10
52.625
 20
99.67
 10
46.822
 20
99.67
 10
46.822
 20
102.47
 10
41.178
 20
102.47
 10
41.178
 20
99.67
 10
35.375
 20
99.67
 10
35.375
 20
102.47
 10
29.732
 20
102.47
 10
29.732
 20
99.67
 10
23.929
 20
99.67
 10
23.929
 20
102.47
 10
18.286
 20
102.47
 10
18.286
 20
99.67
 10
12.483
 20
99.67
 10
12.483
 20
102.47
 10
6.8
 20
102.47
 10
3.96
 20
102.47
 10
3.96
 20
108.283
 10
6.76
 20
108.283
 10
6.76
 20
113.937
 10
3.96
 20
113.937
 10
3.96
 20
119.75
  0
HATCH
  5
32
330
17
100
AcDbEntity
  8
RASTER
 62
7
100
AcDbHatch
 10
0.0
 20
0.0
 30
0.0
210
0.0
220
0.0
230
1.0
  2
SOLID
 70
1
 71
0
 91
1
 92
3
 72
0
 73
1
 93
4
 10
7.8
 20
115.81
 10
80.2
 20
115.81
 10
80.2
 20
115.21
 10
7.8
 20
115.21
 97
0
 75
0
 76
1
 98
0
  0
HATCH
  5
33
330
17
100
AcDbEntity
  8
RASTER
 62
7
100
AcDbHatch
 10
0.0
 20
0.0
 30
0.0
210
0.0
220
0.0
230
1.0
  2
SOLID
 70
1
 71
0
 91
1
 92
3
 72
0
 73
1
 93
4
 10
7.8
 20
111.61
 10
80.2
 20
111.61
 10
80.2
 20
111.01
 10
7.8
 20
111.01
 97
0
 75
0
 76
1
 98
0
  0
HATCH
  5
34
330
17
100
AcDbEntity
  8
RASTER
 62
7
100
AcDbHatch
 10
0.0
 20
0.0
 30
0.0
210
0.0
220
0.0
230
1.0
  2
SOLID
 70
1
 71
0
 91
1
 92
3
 72
0
 73
1
 93
4
 10
7.8
 20
107.41
 10
80.2
 20
107.41
 10
80.2
 20
106.81
 10
7.8
 20
106.81
 97
0
 75
0
 76
1
 98
0
  0
HATCH
  5
35
330
17
100
AcDbEntity
  8
RASTER
 62
7
100
AcDbHatch
 10
0.0
 20
0.0
 30
0.0
210
0.0
220
0.0
230
1.0
  2
SOLID
 70
1
 71
0
 91
1
 92
3
 72
0
 73
1
 93
4
 10
22.0
 20
119.71
 10
26.0
 20
119.71
 10
26.0
 20
102.51
 10
22.0
 20
102.51
 97
0
 75
0
 76
1
 98
0
  0
HATCH
  5
36
330
17
100
AcDbEntity
  8
RASTER
 62
7
100
AcDbHatch
 10
0.0
 20
0.0
 30
0.0
210
0.0
220
0.0
230
1.0
  2
SOLID
 70
1
 71
0
 91
1
 92
3
 72
0
 73
1
 93
48
 10
24.55
 20
116.27
 10
24.545
 20
116.198
 10
24.531
 20
116.128
 10
24.508
 20
116.06
 10
24.476
 20
115.995
 10
24.436
 20
115.935
 10
24.389
 20
115.881
 10
24.335
 20
115.834
 10
24.275
 20
115.794
 10
24.21
 20
115.762
 10
24.142
 20
115.739
 10
24.072
 20
115.725
 10
24.0
 20
115.72
 10
23.928
 20
115.725
 10
23.858
 20
115.739
 10
23.79
 20
115.762
 10
23.725
 20
115.794
 10
23.665
 20
115.834
 10
23.611
 20
115.881
 10
23.564
 20
115.935
 10
23.524
 20
115.995
 10
23.492
 20
116.06
 10
23.469
 20
116.128
 10
23.455
 20
116.198
 10
23.45
 20
116.27
 10
23.455
 20
116.342
 10
23.469
 20
116.412
 10
23.492
 20
116.48
 10
23.524
 20
116.545
 10
23.564
 20
116.605
 10
23.611
 20
116.659
 10
23.665
 20
116.706
 10
23.725
 20
116.746
 10
23.79
 20
116.778
 10
23.858
 20
116.801
 10
23.928
 20
116.815
 10
24.0
 20
116.82
 10
24.072
 20
116.815
 10
24.142
 20
116.801
 10
24.21
 20
116.778
 10
24.275
 20
116.746
 10
24.335
 20
116.706
 10
24.389
 20
116.659
 10
24.436
 20
116.605
 10
24.476
 20
116.545
 10
24.508
 20
116.48
 10
24.531
 20
116.412
 10
24.545
 20
116.342
 97
0
 75
0
 76
1
 98
0
  0
HATCH
  5
37
330
17
100
AcDbEntity
  8
RASTER
 62
7
100
AcDbHatch
 10
0.0
 20
0.0
 30
0.0
210
0.0
220
0.0
230
1.0
  2
SOLID
 70
1
 71
0
 91
1
 92
3
 72
0
 73
1
 93
48
 10
24.55
 20
111.11
 10
24.545
 20
111.038
 10
24.531
 20
110.968
 10
24.508
 20
110.9
 10
24.476
 20
110.835
 10
24.436
 20
110.775
 10
24.389
 20
110.721
 10
24.335
 20
110.674
 10
24.275
 20
110.634
 10
24.21
 20
110.602
 10
24.142
 20
110.579
 10
24.072
 20
110.565
 10
24.0
 20
110.56
 10
23.928
 20
110.565
 10
23.858
 20
110.579
 10
23.79
 20
110.602
 10
23.725
 20
110.634
 10
23.665
 20
110.674
 10
23.611
 20
110.721
 10
23.564
 20
110.775
 10
23.524
 20
110.835
 10
23.492
 20
110.9
 10
23.469
 20
110.968
 10
23.455
 20
111.038
 10
23.45
 20
111.11
 10
23.455
 20
111.182
 10
23.469
 20
111.252
 10
23.492
 20
111.32
 10
23.524
 20
111.385
 10
23.564
 20
111.445
 10
23.611
 20
111.499
 10
23.665
 20
111.546
 10
23.725
 20
111.586
 10
23.79
 20
111.618
 10
23.858
 20
111.641
 10
23.928
 20
111.655
 10
24.0
 20
111.66
 10
24.072
 20
111.655
 10
24.142
 20
111.641
 10
24.21
 20
111.618
 10
24.275
 20
111.586
 10
24.335
 20
111.546
 10
24.389
 20
111.499
 10
24.436
 20
111.445
 10
24.476
 20
111.385
 10
24.508
 20
111.32
 10
24.531
 20
111.252
 10
24.545
 20
111.182
 97
0
 75
0
 76
1
 98
0
  0
HATCH
  5
38
330
17
100
AcDbEntity
  8
RASTER
 62
7
100
AcDbHatch
 10
0.0
 20
0.0
 30
0.0
210
0.0
220
0.0
230
1.0
  2
SOLID
 70
1
 71
0
 91
1
 92
3
 72
0
 73
1
 93
48
 10
24.55
 20
105.95
 10
24.545
 20
105.878
 10
24.531
 20
105.808
 10
24.508
 20
105.74
 10
24.476
 20
105.675
 10
24.436
 20
105.615
 10
24.389
 20
105.561
 10
24.335
 20
105.514
 10
24.275
 20
105.474
 10
24.21
 20
105.442
 10
24.142
 20
105.419
 10
24.072
 20
105.405
 10
24.0
 20
105.4
 10
23.928
 20
105.405
 10
23.858
 20
105.419
 10
23.79
 20
105.442
 10
23.725
 20
105.474
 10
23.665
 20
105.514
 10
23.611
 20
105.561
 10
23.564
 20
105.615
 10
23.524
 20
105.675
 10
23.492
 20
105.74
 10
23.469
 20
105.808
 10
23.455
 20
105.878
 10
23.45
 20
105.95
 10
23.455
 20
106.022
 10
23.469
 20
106.092
 10
23.492
 20
106.16
 10
23.524
 20
106.225
 10
23.564
 20
106.285
 10
23.611
 20
106.339
 10
23.665
 20
106.386
 10
23.725
 20
106.426
 10
23.79
 20
106.458
 10
23.858
 20
106.481
 10
23.928
 20
106.495
 10
24.0
 20
106.5
 10
24.072
 20
106.495
 10
24.142
 20
106.481
 10
24.21
 20
106.458
 10
24.275
 20
106.426
 10
24.335
 20
106.386
 10
24.389
 20
106.339
 10
24.436
 20
106.285
 10
24.476
 20
106.225
 10
24.508
 20
106.16
 10
24.531
 20
106.092
 10
24.545
 20
106.022
 97
0
 75
0
 76
1
 98
0
  0
HATCH
  5
39
330
17
100
AcDbEntity
  8
RASTER
 62
7
100
AcDbHatch
 10
0.0
 20
0.0
 30
0.0
210
0.0
220
0.0
230
1.0
  2
SOLID
 70
1
 71
0
 91
1
 92
3
 72
0
 73
1
 93
4
 10
62.0
 20
119.71
 10
66.0
 20
119.71
 10
66.0
 20
102.51
 10
62.0
 20
102.51
 97
0
 75
0
 76
1
 98
0
  0
HATCH
  5
3A
330
17
100
AcDbEntity
  8
RASTER
 62
7
100
AcDbHatch
 10
0.0
 20
0.0
 30
0.0
210
0.0
220
0.0
230
1.0
  2
SOLID
 70
1
 71
0
 91
1
 92
3
 72
0
 73
1
 93
48
 10
64.55
 20
116.27
 10
64.545
 20
116.198
 10
64.531
 20
116.128
 10
64.508
 20
116.06
 10
64.476
 20
115.995
 10
64.436
 20
115.935
 10
64.389
 20
115.881
 10
64.335
 20
115.834
 10
64.275
 20
115.794
 10
64.21
 20
115.762
 10
64.142
 20
115.739
 10
64.072
 20
115.725
 10
64.0
 20
115.72
 10
63.928
 20
115.725
 10
63.858
 20
115.739
 10
63.79
 20
115.762
 10
63.725
 20
115.794
 10
63.665
 20
115.834
 10
63.611
 20
115.881
 10
63.564
 20
115.935
 10
63.524
 20
115.995
 10
63.492
 20
116.06
 10
63.469
 20
116.128
 10
63.455
 20
116.198
 10
63.45
 20
116.27
 10
63.455
 20
116.342
 10
63.469
 20
116.412
 10
63.492
 20
116.48
 10
63.524
 20
116.545
 10
63.564
 20
116.605
 10
63.611
 20
116.659
 10
63.665
 20
116.706
 10
63.725
 20
116.746
 10
63.79
 20
116.778
 10
63.858
 20
116.801
 10
63.928
 20
116.815
 10
64.0
 20
116.82
 10
64.072
 20
116.815
 10
64.142
 20
116.801
 10
64.21
 20
116.778
 10
64.275
 20
116.746
 10
64.335
 20
116.706
 10
64.389
 20
116.659
 10
64.436
 20
116.605
 10
64.476
 20
116.545
 10
64.508
 20
116.48
 10
64.531
 20
116.412
 10
64.545
 20
116.342
 97
0
 75
0
 76
1
 98
0
  0
HATCH
  5
3B
330
17
100
AcDbEntity
  8
RASTER
 62
7
100
AcDbHatch
 10
0.0
 20
0.0
 30
0.0
210
0.0
220
0.0
230
1.0
  2
SOLID
 70
1
 71
0
 91
1
 92
3
 72
0
 73
1
 93
48
 10
64.55
 20
111.11
 10
64.545
 20
111.038
 10
64.531
 20
110.968
 10
64.508
 20
110.9
 10
64.476
 20
110.835
 10
64.436
 20
110.775
 10
64.389
 20
110.721
 10
64.335
 20
110.674
 10
64.275
 20
110.634
 10
64.21
 20
110.602
 10
64.142
 20
110.579
 10
64.072
 20
110.565
 10
64.0
 20
110.56
 10
63.928
 20
110.565
 10
63.858
 20
110.579
 10
63.79
 20
110.602
 10
63.725
 20
110.634
 10
63.665
 20
110.674
 10
63.611
 20
110.721
 10
63.564
 20
110.775
 10
63.524
 20
110.835
 10
63.492
 20
110.9
 10
63.469
 20
110.968
 10
63.455
 20
111.038
 10
63.45
 20
111.11
 10
63.455
 20
111.182
 10
63.469
 20
111.252
 10
63.492
 20
111.32
 10
63.524
 20
111.385
 10
63.564
 20
111.445
 10
63.611
 20
111.499
 10
63.665
 20
111.546
 10
63.725
 20
111.586
 10
63.79
 20
111.618
 10
63.858
 20
111.641
 10
63.928
 20
111.655
 10
64.0
 20
111.66
 10
64.072
 20
111.655
 10
64.142
 20
111.641
 10
64.21
 20
111.618
 10
64.275
 20
111.586
 10
64.335
 20
111.546
 10
64.389
 20
111.499
 10
64.436
 20
111.445
 10
64.476
 20
111.385
 10
64.508
 20
111.32
 10
64.531
 20
111.252
 10
64.545
 20
111.182
 97
0
 75
0
 76
1
 98
0
  0
HATCH
  5
3C
330
17
100
AcDbEntity
  8
RASTER
 62
7
100
AcDbHatch
 10
0.0
 20
0.0
 30
0.0
210
0.0
220
0.0
230
1.0
  2
SOLID
 70
1
 71
0
 91
1
 92
3
 72
0
 73
1
 93
48
 10
64.55
 20
105.95
 10
64.545
 20
105.878
 10
64.531
 20
105.808
 10
64.508
 20
105.74
 10
64.476
 20
105.675
 10
64.436
 20
105.615
 10
64.389
 20
105.561
 10
64.335
 20
105.514
 10
64.275
 20
105.474
 10
64.21
 20
105.442
 10
64.142
 20
105.419
 10
64.072
 20
105.405
 10
64.0
 20
105.4
 10
63.928
 20
105.405
 10
63.858
 20
105.419
 10
63.79
 20
105.442
 10
63.725
 20
105.474
 10
63.665
 20
105.514
 10
63.611
 20
105.561
 10
63.564
 20
105.615
 10
63.524
 20
105.675
 10
63.492
 20
105.74
 10
63.469
 20
105.808
 10
63.455
 20
105.878
 10
63.45
 20
105.95
 10
63.455
 20
106.022
 10
63.469
 20
106.092
 10
63.492
 20
106.16
 10
63.524
 20
106.225
 10
63.564
 20
106.285
 10
63.611
 20
106.339
 10
63.665
 20
106.386
 10
63.725
 20
106.426
 10
63.79
 20
106.458
 10
63.858
 20
106.481
 10
63.928
 20
106.495
 10
64.0
 20
106.5
 10
64.072
 20
106.495
 10
64.142
 20
106.481
 10
64.21
 20
106.458
 10
64.275
 20
106.426
 10
64.335
 20
106.386
 10
64.389
 20
106.339
 10
64.436
 20
106.285
 10
64.476
 20
106.225
 10
64.508
 20
106.16
 10
64.531
 20
106.092
 10
64.545
 20
106.022
 97
0
 75
0
 76
1
 98
0
  0
HATCH
  5
3D
330
17
100
AcDbEntity
  8
RASTER
 62
7
100
AcDbHatch
 10
0.0
 20
0.0
 30
0.0
210
0.0
220
0.0
230
1.0
  2
SOLID
 70
1
 71
0
 91
3
 92
3
 72
0
 73
1
 93
36
 10
40.0
 20
113.91
 10
40.019
 20
114.191
 10
40.075
 20
114.435
 10
40.169
 20
114.641
 10
40.3
 20
114.81
 10
40.469
 20
114.941
 10
40.675
 20
115.035
 10
40.919
 20
115.091
 10
41.2
 20
115.11
 10
46.8
 20
115.11
 10
47.081
 20
115.091
 10
47.325
 20
115.035
 10
47.531
 20
114.941
 10
47.7
 20
114.81
 10
47.831
 20
114.641
 10
47.925
 20
114.435
 10
47.981
 20
114.191
 10
48.0
 20
113.91
 10
48.0
 20
108.31
 10
47.981
 20
108.029
 10
47.925
 20
107.785
 10
47.831
 20
107.579
 10
47.7
 20
107.41
 10
47.531
 20
107.279
 10
47.325
 20
107.185
 10
47.081
 20
107.129
 10
46.8
 20
107.11
 10
41.2
 20
107.11
 10
40.919
 20
107.129
 10
40.675
 20
107.185
 10
40.469
 20
107.279
 10
40.3
 20
107.41
 10
40.169
 20
107.579
 10
40.075
 20
107.785
 10
40.019
 20
108.029
 10
40.0
 20
108.31
 97
0
 92
2
 72
0
 73
1
 93
48
 10
45.1
 20
112.11
 10
45.091
 20
111.966
 10
45.063
 20
111.825
 10
45.016
 20
111.689
 10
44.953
 20
111.56
 10
44.873
 20
111.44
 10
44.778
 20
111.332
 10
44.67
 20
111.237
 10
44.55
 20
111.157
 10
44.421
 20
111.094
 10
44.285
 20
111.047
 10
44.144
 20
111.019
 10
44.0
 20
111.01
 10
43.856
 20
111.019
 10
43.715
 20
111.047
 10
43.579
 20
111.094
 10
43.45
 20
111.157
 10
43.33
 20
111.237
 10
43.222
 20
111.332
 10
43.127
 20
111.44
 10
43.047
 20
111.56
 10
42.984
 20
111.689
 10
42.937
 20
111.825
 10
42.909
 20
111.966
 10
42.9
 20
112.11
 10
42.909
 20
112.254
 10
42.937
 20
112.395
 10
42.984
 20
112.531
 10
43.047
 20
112.66
 10
43.127
 20
112.78
 10
43.222
 20
112.888
 10
43.33
 20
112.983
 10
43.45
 20
113.063
 10
43.579
 20
113.126
 10
43.715
 20
113.173
 10
43.856
 20
113.201
 10
44.0
 20
113.21
 10
44.144
 20
113.201
 10
44.285
 20
113.173
 10
44.421
 20
113.126
 10
44.55
 20
113.063
 10
44.67
 20
112.983
 10
44.778
 20
112.888
 10
44.873
 20
112.78
 10
44.953
 20
112.66
 10
45.016
 20
112.531
 10
45.063
 20
112.395
 10
45.091
 20
112.254
 97
0
 92
2
 72
0
 73
1
 93
5
 10
43.3
 20
111.51
 10
43.0
 20
108.51
 10
45.0
 20
108.51
 10
44.7
 20
111.51
 10
43.3
 20
111.51
 97
0
 75
0
 76
1
 98
0
  0
LWPOLYLINE
  5
3E
330
17
100
AcDbEntity
  8
CUT
100
AcDbPolyline
 90
92
 70
1
 10
90.8
 20
113.35
 10
90.79
 20
113.35
 10
90.79
 20
116.613
 10
90.897
 20
117.423
 10
91.21
 20
118.18
 10
91.709
 20
118.831
 10
92.36
 20
119.33
 10
93.117
 20
119.643
 10
93.927
 20
119.75
 10
102.553
 20
119.75
 10
103.363
 20
119.643
 10
104.12
 20
119.33
 10
104.771
 20
118.831
 10
105.27
 20
118.18
 10
105.583
 20
117.423
 10
105.69
 20
116.613
 10
105.69
 20
113.35
 10
105.68
 20
113.35
 10
120.56
 20
113.35
 10
120.55
 20
113.35
 10
120.55
 20
116.613
 10
120.657
 20
117.423
 10
120.97
 20
118.18
 10
121.469
 20
118.831
 10
122.12
 20
119.33
 10
122.877
 20
119.643
 10
123.687
 20
119.75
 10
132.313
 20
119.75
 10
133.123
 20
119.643
 10
133.88
 20
119.33
 10
134.531
 20
118.831
 10
135.03
 20
118.18
 10
135.343
 20
117.423
 10
135.45
 20
116.613
 10
135.45
 20
113.35
 10
135.44
 20
113.35
 10
150.32
 20
113.35
 10
150.31
 20
113.35
 10
150.31
 20
116.613
 10
150.417
 20
117.423
 10
150.73
 20
118.18
 10
151.229
 20
118.831
 10
151.88
 20
119.33
 10
152.637
 20
119.643
 10
153.447
 20
119.75
 10
162.073
 20
119.75
 10
162.883
 20
119.643
 10
163.64
 20
119.33
 10
164.291
 20
118.831
 10
164.79
 20
118.18
 10
165.103
 20
117.423
 10
165.21
 20
116.613
 10
165.21
 20
113.35
 10
165.2
 20
113.35
 10
168.04
 20
113.35
 10
168.04
 20
107.537
 10
165.24
 20
107.537
 10
165.24
 20
101.883
 10
168.04
 20
101.883
 10
168.04
 20
96.07
 10
165.2
 20
96.07
 10
159.517
 20
96.07
 10
159.517
 20
93.27
 10
153.714
 20
93.27
 10
153.714
 20
96.07
 10
148.071
 20
96.07
 10
148.071
 20
93.27
 10
142.268
 20
93.27
 10
142.268
 20
96.07
 10
136.625
 20
96.07
 10
136.625
 20
93.27
 10
130.822
 20
93.27
 10
130.822
 20
96.07
 10
125.178
 20
96.07
 10
125.178
 20
93.27
 10
119.375
 20
93.27
 10
119.375
 20
96.07
 10
113.732
 20
96.07
 10
113.732
 20
93.27
 10
107.929
 20
93.27
 10
107.929
 20
96.07
 10
102.286
 20
96.07
 10
102.286
 20
93.27
 10
96.483
 20
93.27
 10
96.483
 20
96.07
 10
90.8
 20
96.07
 10
87.96
 20
96.07
 10
87.96
 20
101.883
 10
90.76
 20
101.883
 10
90.76
 20
107.537
 10
87.96
 20
107.537
 10
87.96
 20
113.35
  0
HATCH
  5
3F
330
17
100
AcDbEntity
  8
RASTER
 62
7
100
AcDbHatch
 10
0.0
 20
0.0
 30
0.0
210
0.0
220
0.0
230
1.0
  2
SOLID
 70
1
 71
0
 91
1
 92
3
 72
0
 73
1
 93
4
 10
91.8
 20
109.41
 10
164.2
 20
109.41
 10
164.2
 20
108.81
 10
91.8
 20
108.81
 97
0
 75
0
 76
1
 98
0
  0
HATCH
  5
40
330
17
100
AcDbEntity
  8
RASTER
 62
7
100
AcDbHatch
 10
0.0
 20
0.0
 30
0.0
210
0.0
220
0.0
230
1.0
  2
SOLID
 70
1
 71
0
 91
1
 92
3
 72
0
 73
1
 93
4
 10
91.8
 20
105.21
 10
164.2
 20
105.21
 10
164.2
 20
104.61
 10
91.8
 20
104.61
 97
0
 75
0
 76
1
 98
0
  0
HATCH
  5
41
330
17
100
AcDbEntity
  8
RASTER
 62
7
100
AcDbHatch
 10
0.0
 20
0.0
 30
0.0
210
0.0
220
0.0
230
1.0
  2
SOLID
 70
1
 71
0
 91
1
 92
3
 72
0
 73
1
 93
4
 10
91.8
 20
101.01
 10
164.2
 20
101.01
 10
164.2
 20
100.41
 10
91.8
 20
100.41
 97
0
 75
0
 76
1
 98
0
  0
HATCH
  5
42
330
17
100
AcDbEntity
  8
RASTER
 62
7
100
AcDbHatch
 10
0.0
 20
0.0
 30
0.0
210
0.0
220
0.0
230
1.0
  2
SOLID
 70
1
 71
0
 91
1
 92
3
 72
0
 73
1
 93
4
 10
106.0
 20
113.31
 10
110.0
 20
113.31
 10
110.0
 20
96.11
 10
106.0
 20
96.11
 97
0
 75
0
 76
1
 98
0
  0
HATCH
  5
43
330
17
100
AcDbEntity
  8
RASTER
 62
7
100
AcDbHatch
 10
0.0
 20
0.0
 30
0.0
210
0.0
220
0.0
230
1.0
  2
SOLID
 70
1
 71
0
 91
1
 92
3
 72
0
 73
1
 93
48
 10
108.55
 20
109.87
 10
108.545
 20
109.798
 10
108.531
 20
109.728
 10
108.508
 20
109.66
 10
108.476
 20
109.595
 10
108.436
 20
109.535
 10
108.389
 20
109.481
 10
108.335
 20
109.434
 10
108.275
 20
109.394
 10
108.21
 20
109.362
 10
108.142
 20
109.339
 10
108.072
 20
109.325
 10
108.0
 20
109.32
 10
107.928
 20
109.325
 10
107.858
 20
109.339
 10
107.79
 20
109.362
 10
107.725
 20
109.394
 10
107.665
 20
109.434
 10
107.611
 20
109.481
 10
107.564
 20
109.535
 10
107.524
 20
109.595
 10
107.492
 20
109.66
 10
107.469
 20
109.728
 10
107.455
 20
109.798
 10
107.45
 20
109.87
 10
107.455
 20
109.942
 10
107.469
 20
110.012
 10
107.492
 20
110.08
 10
107.524
 20
110.145
 10
107.564
 20
110.205
 10
107.611
 20
110.259
 10
107.665
 20
110.306
 10
107.725
 20
110.346
 10
107.79
 20
110.378
 10
107.858
 20
110.401
 10
107.928
 20
110.415
 10
108.0
 20
110.42
 10
108.072
 20
110.415
 10
108.142
 20
110.401
 10
108.21
 20
110.378
 10
108.275
 20
110.346
 10
108.335
 20
110.306
 10
108.389
 20
110.259
 10
108.436
 20
110.205
 10
108.476
 20
110.145
 10
108.508
 20
110.08
 10
108.531
 20
110.012
 10
108.545
 20
109.942
 97
0
 75
0
 76
1
 98
0
  0
HATCH
  5
44
330
17
100
AcDbEntity
  8
RASTER
 62
7
100
AcDbHatch
 10
0.0
 20
0.0
 30
0.0
210
0.0
220
0.0
230
1.0
  2
SOLID
 70
1
 71
0
 91
1
 92
3
 72
0
 73
1
 93
48
 10
108.55
 20
104.71
 10
108.545
 20
104.638
 10
108.531
 20
104.568
 10
108.508
 20
104.5
 10
108.476
 20
104.435
 10
108.436
 20
104.375
 10
108.389
 20
104.321
 10
108.335
 20
104.274
 10
108.275
 20
104.234
 10
108.21
 20
104.202
 10
108.142
 20
104.179
 10
108.072
 20
104.165
 10
108.0
 20
104.16
 10
107.928
 20
104.165
 10
107.858
 20
104.179
 10
107.79
 20
104.202
 10
107.725
 20
104.234
 10
107.665
 20
104.274
 10
107.611
 20
104.321
 10
107.564
 20
104.375
 10
107.524
 20
104.435
 10
107.492
 20
104.5
 10
107.469
 20
104.568
 10
107.455
 20
104.638
 10
107.45
 20
104.71
 10
107.455
 20
104.782
 10
107.469
 20
104.852
 10
107.492
 20
104.92
 10
107.524
 20
104.985
 10
107.564
 20
105.045
 10
107.611
 20
105.099
 10
107.665
 20
105.146
 10
107.725
 20
105.186
 10
107.79
 20
105.218
 10
107.858
 20
105.241
 10
107.928
 20
105.255
 10
108.0
 20
105.26
 10
108.072
 20
105.255
 10
108.142
 20
105.241
 10
108.21
 20
105.218
 10
108.275
 20
105.186
 10
108.335
 20
105.146
 10
108.389
 20
105.099
 10
108.436
 20
105.045
 10
108.476
 20
104.985
 10
108.508
 20
104.92
 10
108.531
 20
104.852
 10
108.545
 20
104.782
 97
0
 75
0
 76
1
 98
0
  0
HATCH
  5
45
330
17
100
AcDbEntity
  8
RASTER
 62
7
100
AcDbHatch
 10
0.0
 20
0.0
 30
0.0
210
0.0
220
0.0
230
1.0
  2
SOLID
 70
1
 71
0
 91
1
 92
3
 72
0
 73
1
 93
48
 10
108.55
 20
99.55
 10
108.545
 20
99.478
 10
108.531
 20
99.408
 10
108.508
 20
99.34
 10
108.476
 20
99.275
 10
108.436
 20
99.215
 10
108.389
 20
99.161
 10
108.335
 20
99.114
 10
108.275
 20
99.074
 10
108.21
 20
99.042
 10
108.142
 20
99.019
 10
108.072
 20
99.005
 10
108.0
 20
99.0
 10
107.928
 20
99.005
 10
107.858
 20
99.019
 10
107.79
 20
99.042
 10
107.725
 20
99.074
 10
107.665
 20
99.114
 10
107.611
 20
99.161
 10
107.564
 20
99.215
 10
107.524
 20
99.275
 10
107.492
 20
99.34
 10
107.469
 20
99.408
 10
107.455
 20
99.478
 10
107.45
 20
99.55
 10
107.455
 20
99.622
 10
107.469
 20
99.692
 10
107.492
 20
99.76
 10
107.524
 20
99.825
 10
107.564
 20
99.885
 10
107.611
 20
99.939
 10
107.665
 20
99.986
 10
107.725
 20
100.026
 10
107.79
 20
100.058
 10
107.858
 20
100.081
 10
107.928
 20
100.095
 10
108.0
 20
100.1
 10
108.072
 20
100.095
 10
108.142
 20
100.081
 10
108.21
 20
100.058
 10
108.275
 20
100.026
 10
108.335
 20
99.986
 10
108.389
 20
99.939
 10
108.436
 20
99.885
 10
108.476
 20
99.825
 10
108.508
 20
99.76
 10
108.531
 20
99.692
 10
108.545
 20
99.622
 97
0
 75
0
 76
1
 98
0
  0
HATCH
  5
46
330
17
100
AcDbEntity
  8
RASTER
 62
7
100
AcDbHatch
 10
0.0
 20
0.0
 30
0.0
210
0.0
220
0.0
230
1.0
  2
SOLID
 70
1
 71
0
 91
1
 92
3
 72
0
 73
1
 93
4
 10
146.0
 20
113.31
 10
150.0
 20
113.31
 10
150.0
 20
96.11
 10
146.0
 20
96.11
 97
0
 75
0
 76
1
 98
0
  0
HATCH
  5
47
330
17
100
AcDbEntity
  8
RASTER
 62
7
100
AcDbHatch
 10
0.0
 20
0.0
 30
0.0
210
0.0
220
0.0
230
1.0
  2
SOLID
 70
1
 71
0
 91
1
 92
3
 72
0
 73
1
 93
48
 10
148.55
 20
109.87
 10
148.545
 20
109.798
 10
148.531
 20
109.728
 10
148.508
 20
109.66
 10
148.476
 20
109.595
 10
148.436
 20
109.535
 10
148.389
 20
109.481
 10
148.335
 20
109.434
 10
148.275
 20
109.394
 10
148.21
 20
109.362
 10
148.142
 20
109.339
 10
148.072
 20
109.325
 10
148.0
 20
109.32
 10
147.928
 20
109.325
 10
147.858
 20
109.339
 10
147.79
 20
109.362
 10
147.725
 20
109.394
 10
147.665
 20
109.434
 10
147.611
 20
109.481
 10
147.564
 20
109.535
 10
147.524
 20
109.595
 10
147.492
 20
109.66
 10
147.469
 20
109.728
 10
147.455
 20
109.798
 10
147.45
 20
109.87
 10
147.455
 20
109.942
 10
147.469
 20
110.012
 10
147.492
 20
110.08
 10
147.524
 20
110.145
 10
147.564
 20
110.205
 10
147.611
 20
110.259
 10
147.665
 20
110.306
 10
147.725
 20
110.346
 10
147.79
 20
110.378
 10
147.858
 20
110.401
 10
147.928
 20
110.415
 10
148.0
 20
110.42
 10
148.072
 20
110.415
 10
148.142
 20
110.401
 10
148.21
 20
110.378
 10
148.275
 20
110.346
 10
148.335
 20
110.306
 10
148.389
 20
110.259
 10
148.436
 20
110.205
 10
148.476
 20
110.145
 10
148.508
 20
110.08
 10
148.531
 20
110.012
 10
148.545
 20
109.942
 97
0
 75
0
 76
1
 98
0
  0
HATCH
  5
48
330
17
100
AcDbEntity
  8
RASTER
 62
7
100
AcDbHatch
 10
0.0
 20
0.0
 30
0.0
210
0.0
220
0.0
230
1.0
  2
SOLID
 70
1
 71
0
 91
1
 92
3
 72
0
 73
1
 93
48
 10
148.55
 20
104.71
 10
148.545
 20
104.638
 10
148.531
 20
104.568
 10
148.508
 20
104.5
 10
148.476
 20
104.435
 10
148.436
 20
104.375
 10
148.389
 20
104.321
 10
148.335
 20
104.274
 10
148.275
 20
104.234
 10
148.21
 20
104.202
 10
148.142
 20
104.179
 10
148.072
 20
104.165
 10
148.0
 20
104.16
 10
147.928
 20
104.165
 10
147.858
 20
104.179
 10
147.79
 20
104.202
 10
147.725
 20
104.234
 10
147.665
 20
104.274
 10
147.611
 20
104.321
 10
147.564
 20
104.375
 10
147.524
 20
104.435
 10
147.492
 20
104.5
 10
147.469
 20
104.568
 10
147.455
 20
104.638
 10
147.45
 20
104.71
 10
147.455
 20
104.782
 10
147.469
 20
104.852
 10
147.492
 20
104.92
 10
147.524
 20
104.985
 10
147.564
 20
105.045
 10
147.611
 20
105.099
 10
147.665
 20
105.146
 10
147.725
 20
105.186
 10
147.79
 20
105.218
 10
147.858
 20
105.241
 10
147.928
 20
105.255
 10
148.0
 20
105.26
 10
148.072
 20
105.255
 10
148.142
 20
105.241
 10
148.21
 20
105.218
 10
148.275
 20
105.186
 10
148.335
 20
105.146
 10
148.389
 20
105.099
 10
148.436
 20
105.045
 10
148.476
 20
104.985
 10
148.508
 20
104.92
 10
148.531
 20
104.852
 10
148.545
 20
104.782
 97
0
 75
0
 76
1
 98
0
  0
HATCH
  5
49
330
17
100
AcDbEntity
  8
RASTER
 62
7
100
AcDbHatch
 10
0.0
 20
0.0
 30
0.0
210
0.0
220
0.0
230
1.0
  2
SOLID
 70
1
 71
0
 91
1
 92
3
 72
0
 73
1
 93
48
 10
148.55
 20
99.55
 10
148.545
 20
99.478
 10
148.531
 20
99.408
 10
148.508
 20
99.34
 10
148.476
 20
99.275
 10
148.436
 20
99.215
 10
148.389
 20
99.161
 10
148.335
 20
99.114
 10
148.275
 20
99.074
 10
148.21
 20
99.042
 10
148.142
 20
99.019
 10
148.072
 20
99.005
 10
148.0
 20
99.0
 10
147.928
 20
99.005
 10
147.858
 20
99.019
 10
147.79
 20
99.042
 10
147.725
 20
99.074
 10
147.665
 20
99.114
 10
147.611
 20
99.161
 10
147.564
 20
99.215
 10
147.524
 20
99.275
 10
147.492
 20
99.34
 10
147.469
 20
99.408
 10
147.455
 20
99.478
 10
147.45
 20
99.55
 10
147.455
 20
99.622
 10
147.469
 20
99.692
 10
147.492
 20
99.76
 10
147.524
 20
99.825
 10
147.564
 20
99.885
 10
147.611
 20
99.939
 10
147.665
 20
99.986
 10
147.725
 20
100.026
 10
147.79
 20
100.058
 10
147.858
 20
100.081
 10
147.928
 20
100.095
 10
148.0
 20
100.1
 10
148.072
 20
100.095
 10
148.142
 20
100.081
 10
148.21
 20
100.058
 10
148.275
 20
100.026
 10
148.335
 20
99.986
 10
148.389
 20
99.939
 10
148.436
 20
99.885
 10
148.476
 20
99.825
 10
148.508
 20
99.76
 10
148.531
 20
99.692
 10
148.545
 20
99.622
 97
0
 75
0
 76
1
 98
0
  0
LWPOLYLINE
  5
4A
330
17
100
AcDbEntity
  8
CUT
100
AcDbPolyline
 90
20
 70
1
 10
6.76
 20
89.35
 10
28.24
 20
89.35
 10
28.24
 20
83.617
 10
31.04
 20
83.617
 10
31.04
 20
77.803
 10
28.24
 20
77.803
 10
28.24
 20
72.07
 10
23.96
 20
72.07
 10
23.96
 20
69.27
 10
19.6
 20
69.27
 10
19.6
 20
72.07
 10
15.4
 20
72.07
 10
15.4
 20
69.27
 10
11.04
 20
69.27
 10
11.04
 20
72.07
 10
6.76
 20
72.07
 10
6.76
 20
77.803
 10
3.96
 20
77.803
 10
3.96
 20
83.617
 10
6.76
 20
83.617
  0
HATCH
  5
4B
330
17
100
AcDbEntity
  8
RASTER
 62
7
100
AcDbHatch
 10
0.0
 20
0.0
 30
0.0
210
0.0
220
0.0
230
1.0
  2
SOLID
 70
1
 71
0
 91
1
 92
3
 72
0
 73
1
 93
4
 10
7.8
 20
85.41
 10
27.2
 20
85.41
 10
27.2
 20
84.81
 10
7.8
 20
84.81
 97
0
 75
0
 76
1
 98
0
  0
HATCH
  5
4C
330
17
100
AcDbEntity
  8
RASTER
 62
7
100
AcDbHatch
 10
0.0
 20
0.0
 30
0.0
210
0.0
220
0.0
230
1.0
  2
SOLID
 70
1
 71
0
 91
1
 92
3
 72
0
 73
1
 93
4
 10
7.8
 20
81.21
 10
27.2
 20
81.21
 10
27.2
 20
80.61
 10
7.8
 20
80.61
 97
0
 75
0
 76
1
 98
0
  0
HATCH
  5
4D
330
17
100
AcDbEntity
  8
RASTER
 62
7
100
AcDbHatch
 10
0.0
 20
0.0
 30
0.0
210
0.0
220
0.0
230
1.0
  2
SOLID
 70
1
 71
0
 91
1
 92
3
 72
0
 73
1
 93
4
 10
7.8
 20
77.01
 10
27.2
 20
77.01
 10
27.2
 20
76.41
 10
7.8
 20
76.41
 97
0
 75
0
 76
1
 98
0
  0
LWPOLYLINE
  5
4E
330
17
100
AcDbEntity
  8
CUT
100
AcDbPolyline
 90
20
 70
1
 10
37.76
 20
89.35
 10
59.24
 20
89.35
 10
59.24
 20
83.617
 10
62.04
 20
83.617
 10
62.04
 20
77.803
 10
59.24
 20
77.803
 10
59.24
 20
72.07
 10
54.96
 20
72.07
 10
54.96
 20
69.27
 10
50.6
 20
69.27
 10
50.6
 20
72.07
 10
46.4
 20
72.07
 10
46.4
 20
69.27
 10
42.04
 20
69.27
 10
42.04
 20
72.07
 10
37.76
 20
72.07
 10
37.76
 20
77.803
 10
34.96
 20
77.803
 10
34.96
 20
83.617
 10
37.76
 20
83.617
  0
HATCH
  5
4F
330
17
100
AcDbEntity
  8
RASTER
 62
7
100
AcDbHatch
 10
0.0
 20
0.0
 30
0.0
210
0.0
220
0.0
230
1.0
  2
SOLID
 70
1
 71
0
 91
1
 92
3
 72
0
 73
1
 93
4
 10
38.8
 20
85.41
 10
58.2
 20
85.41
 10
58.2
 20
84.81
 10
38.8
 20
84.81
 97
0
 75
0
 76
1
 98
0
  0
HATCH
  5
50
330
17
100
AcDbEntity
  8
RASTER
 62
7
100
AcDbHatch
 10
0.0
 20
0.0
 30
0.0
210
0.0
220
0.0
230
1.0
  2
SOLID
 70
1
 71
0
 91
1
 92
3
 72
0
 73
1
 93
4
 10
38.8
 20
81.21
 10
58.2
 20
81.21
 10
58.2
 20
80.61
 10
38.8
 20
80.61
 97
0
 75
0
 76
1
 98
0
  0
HATCH
  5
51
330
17
100
AcDbEntity
  8
RASTER
 62
7
100
AcDbHatch
 10
0.0
 20
0.0
 30
0.0
210
0.0
220
0.0
230
1.0
  2
SOLID
 70
1
 71
0
 91
1
 92
3
 72
0
 73
1
 93
4
 10
38.8
 20
77.01
 10
58.2
 20
77.01
 10
58.2
 20
76.41
 10
38.8
 20
76.41
 97
0
 75
0
 76
1
 98
0
  0
LWPOLYLINE
  5
52
330
17
100
AcDbEntity
  8
CUT
100
AcDbPolyline
 90
76
 70
1
 10
65.96
 20
89.35
 10
68.8
 20
89.35
 10
74.563
 20
89.35
 10
74.563
 20
86.55
 10
80.206
 20
86.55
 10
80.206
 20
89.35
 10
86.009
 20
89.35
 10
86.009
 20
86.55
 10
91.652
 20
86.55
 10
91.652
 20
89.35
 10
97.455
 20
89.35
 10
97.455
 20
86.55
 10
103.098
 20
86.55
 10
103.098
 20
89.35
 10
108.902
 20
89.35
 10
108.902
 20
86.55
 10
114.545
 20
86.55
 10
114.545
 20
89.35
 10
120.348
 20
89.35
 10
120.348
 20
86.55
 10
125.991
 20
86.55
 10
125.991
 20
89.35
 10
131.794
 20
89.35
 10
131.794
 20
86.55
 10
137.437
 20
86.55
 10
137.437
 20
89.35
 10
143.2
 20
89.35
 10
146.04
 20
89.35
 10
146.04
 20
86.51
 10
146.04
 20
82.19
 10
143.24
 20
82.19
 10
143.24
 20
77.99
 10
146.04
 20
77.99
 10
146.04
 20
73.63
 10
143.24
 20
73.63
 10
143.24
 20
69.43
 10
146.04
 20
69.43
 10
146.04
 20
65.11
 10
146.04
 20
62.27
 10
143.2
 20
62.27
 10
137.437
 20
62.27
 10
137.437
 20
65.07
 10
131.794
 20
65.07
 10
131.794
 20
62.27
 10
125.991
 20
62.27
 10
125.991
 20
65.07
 10
120.348
 20
65.07
 10
120.348
 20
62.27
 10
114.545
 20
62.27
 10
114.545
 20
65.07
 10
108.902
 20
65.07
 10
108.902
 20
62.27
 10
103.098
 20
62.27
 10
103.098
 20
65.07
 10
97.455
 20
65.07
 10
97.455
 20
62.27
 10
91.652
 20
62.27
 10
91.652
 20
65.07
 10
86.009
 20
65.07
 10
86.009
 20
62.27
 10
80.206
 20
62.27
 10
80.206
 20
65.07
 10
74.563
 20
65.07
 10
74.563
 20
62.27
 10
68.8
 20
62.27
 10
65.96
 20
62.27
 10
65.96
 20
65.11
 10
65.96
 20
69.43
 10
68.76
 20
69.43
 10
68.76
 20
73.63
 10
65.96
 20
73.63
 10
65.96
 20
77.99
 10
68.76
 20
77.99
 10
68.76
 20
82.19
 10
65.96
 20
82.19
 10
65.96
 20
86.51
  0
HATCH
  5
53
330
17
100
AcDbEntity
  8
RASTER
 62
7
100
AcDbHatch
 10
0.0
 20
0.0
 30
0.0
210
0.0
220
0.0
230
1.0
  2
SOLID
 70
1
 71
0
 91
1
 92
3
 72
0
 73
1
 93
4
 10
69.8
 20
81.81
 10
142.2
 20
81.81
 10
142.2
 20
81.21
 10
69.8
 20
81.21
 97
0
 75
0
 76
1
 98
0
  0
HATCH
  5
54
330
17
100
AcDbEntity
  8
RASTER
 62
7
100
AcDbHatch
 10
0.0
 20
0.0
 30
0.0
210
0.0
220
0.0
230
1.0
  2
SOLID
 70
1
 71
0
 91
1
 92
3
 72
0
 73
1
 93
4
 10
69.8
 20
76.81
 10
142.2
 20
76.81
 10
142.2
 20
76.21
 10
69.8
 20
76.21
 97
0
 75
0
 76
1
 98
0
  0
HATCH
  5
55
330
17
100
AcDbEntity
  8
RASTER
 62
7
100
AcDbHatch
 10
0.0
 20
0.0
 30
0.0
210
0.0
220
0.0
230
1.0
  2
SOLID
 70
1
 71
0
 91
1
 92
3
 72
0
 73
1
 93
4
 10
69.8
 20
71.81
 10
142.2
 20
71.81
 10
142.2
 20
71.21
 10
69.8
 20
71.21
 97
0
 75
0
 76
1
 98
0
  0
HATCH
  5
56
330
17
100
AcDbEntity
  8
RASTER
 62
7
100
AcDbHatch
 10
0.0
 20
0.0
 30
0.0
210
0.0
220
0.0
230
1.0
  2
SOLID
 70
1
 71
0
 91
1
 92
3
 72
0
 73
1
 93
4
 10
69.8
 20
66.81
 10
142.2
 20
66.81
 10
142.2
 20
66.21
 10
69.8
 20
66.21
 97
0
 75
0
 76
1
 98
0
  0
HATCH
  5
57
330
17
100
AcDbEntity
  8
RASTER
 62
7
100
AcDbHatch
 10
0.0
 20
0.0
 30
0.0
210
0.0
220
0.0
230
1.0
  2
SOLID
 70
1
 71
0
 91
1
 92
3
 72
0
 73
1
 93
4
 10
84.0
 20
89.31
 10
88.0
 20
89.31
 10
88.0
 20
62.31
 10
84.0
 20
62.31
 97
0
 75
0
 76
1
 98
0
  0
HATCH
  5
58
330
17
100
AcDbEntity
  8
RASTER
 62
7
100
AcDbHatch
 10
0.0
 20
0.0
 30
0.0
210
0.0
220
0.0
230
1.0
  2
SOLID
 70
1
 71
0
 91
1
 92
3
 72
0
 73
1
 93
48
 10
86.55
 20
83.91
 10
86.545
 20
83.838
 10
86.531
 20
83.768
 10
86.508
 20
83.7
 10
86.476
 20
83.635
 10
86.436
 20
83.575
 10
86.389
 20
83.521
 10
86.335
 20
83.474
 10
86.275
 20
83.434
 10
86.21
 20
83.402
 10
86.142
 20
83.379
 10
86.072
 20
83.365
 10
86.0
 20
83.36
 10
85.928
 20
83.365
 10
85.858
 20
83.379
 10
85.79
 20
83.402
 10
85.725
 20
83.434
 10
85.665
 20
83.474
 10
85.611
 20
83.521
 10
85.564
 20
83.575
 10
85.524
 20
83.635
 10
85.492
 20
83.7
 10
85.469
 20
83.768
 10
85.455
 20
83.838
 10
85.45
 20
83.91
 10
85.455
 20
83.982
 10
85.469
 20
84.052
 10
85.492
 20
84.12
 10
85.524
 20
84.185
 10
85.564
 20
84.245
 10
85.611
 20
84.299
 10
85.665
 20
84.346
 10
85.725
 20
84.386
 10
85.79
 20
84.418
 10
85.858
 20
84.441
 10
85.928
 20
84.455
 10
86.0
 20
84.46
 10
86.072
 20
84.455
 10
86.142
 20
84.441
 10
86.21
 20
84.418
 10
86.275
 20
84.386
 10
86.335
 20
84.346
 10
86.389
 20
84.299
 10
86.436
 20
84.245
 10
86.476
 20
84.185
 10
86.508
 20
84.12
 10
86.531
 20
84.052
 10
86.545
 20
83.982
 97
0
 75
0
 76
1
 98
0
  0
HATCH
  5
59
330
17
100
AcDbEntity
  8
RASTER
 62
7
100
AcDbHatch
 10
0.0
 20
0.0
 30
0.0
210
0.0
220
0.0
230
1.0
  2
SOLID
 70
1
 71
0
 91
1
 92
3
 72
0
 73
1
 93
48
 10
86.55
 20
75.81
 10
86.545
 20
75.738
 10
86.531
 20
75.668
 10
86.508
 20
75.6
 10
86.476
 20
75.535
 10
86.436
 20
75.475
 10
86.389
 20
75.421
 10
86.335
 20
75.374
 10
86.275
 20
75.334
 10
86.21
 20
75.302
 10
86.142
 20
75.279
 10
86.072
 20
75.265
 10
86.0
 20
75.26
 10
85.928
 20
75.265
 10
85.858
 20
75.279
 10
85.79
 20
75.302
 10
85.725
 20
75.334
 10
85.665
 20
75.374
 10
85.611
 20
75.421
 10
85.564
 20
75.475
 10
85.524
 20
75.535
 10
85.492
 20
75.6
 10
85.469
 20
75.668
 10
85.455
 20
75.738
 10
85.45
 20
75.81
 10
85.455
 20
75.882
 10
85.469
 20
75.952
 10
85.492
 20
76.02
 10
85.524
 20
76.085
 10
85.564
 20
76.145
 10
85.611
 20
76.199
 10
85.665
 20
76.246
 10
85.725
 20
76.286
 10
85.79
 20
76.318
 10
85.858
 20
76.341
 10
85.928
 20
76.355
 10
86.0
 20
76.36
 10
86.072
 20
76.355
 10
86.142
 20
76.341
 10
86.21
 20
76.318
 10
86.275
 20
76.286
 10
86.335
 20
76.246
 10
86.389
 20
76.199
 10
86.436
 20
76.145
 10
86.476
 20
76.085
 10
86.508
 20
76.02
 10
86.531
 20
75.952
 10
86.545
 20
75.882
 97
0
 75
0
 76
1
 98
0
  0
HATCH
  5
5A
330
17
100
AcDbEntity
  8
RASTER
 62
7
100
AcDbHatch
 10
0.0
 20
0.0
 30
0.0
210
0.0
220
0.0
230
1.0
  2
SOLID
 70
1
 71
0
 91
1
 92
3
 72
0
 73
1
 93
48
 10
86.55
 20
67.71
 10
86.545
 20
67.638
 10
86.531
 20
67.568
 10
86.508
 20
67.5
 10
86.476
 20
67.435
 10
86.436
 20
67.375
 10
86.389
 20
67.321
 10
86.335
 20
67.274
 10
86.275
 20
67.234
 10
86.21
 20
67.202
 10
86.142
 20
67.179
 10
86.072
 20
67.165
 10
86.0
 20
67.16
 10
85.928
 20
67.165
 10
85.858
 20
67.179
 10
85.79
 20
67.202
 10
85.725
 20
67.234
 10
85.665
 20
67.274
 10
85.611
 20
67.321
 10
85.564
 20
67.375
 10
85.524
 20
67.435
 10
85.492
 20
67.5
 10
85.469
 20
67.568
 10
85.455
 20
67.638
 10
85.45
 20
67.71
 10
85.455
 20
67.782
 10
85.469
 20
67.852
 10
85.492
 20
67.92
 10
85.524
 20
67.985
 10
85.564
 20
68.045
 10
85.611
 20
68.099
 10
85.665
 20
68.146
 10
85.725
 20
68.186
 10
85.79
 20
68.218
 10
85.858
 20
68.241
 10
85.928
 20
68.255
 10
86.0
 20
68.26
 10
86.072
 20
68.255
 10
86.142
 20
68.241
 10
86.21
 20
68.218
 10
86.275
 20
68.186
 10
86.335
 20
68.146
 10
86.389
 20
68.099
 10
86.436
 20
68.045
 10
86.476
 20
67.985
 10
86.508
 20
67.92
 10
86.531
 20
67.852
 10
86.545
 20
67.782
 97
0
 75
0
 76
1
 98
0
  0
HATCH
  5
5B
330
17
100
AcDbEntity
  8
RASTER
 62
7
100
AcDbHatch
 10
0.0
 20
0.0
 30
0.0
210
0.0
220
0.0
230
1.0
  2
SOLID
 70
1
 71
0
 91
1
 92
3
 72
0
 73
1
 93
4
 10
124.0
 20
89.31
 10
128.0
 20
89.31
 10
128.0
 20
62.31
 10
124.0
 20
62.31
 97
0
 75
0
 76
1
 98
0
  0
HATCH
  5
5C
330
17
100
AcDbEntity
  8
RASTER
 62
7
100
AcDbHatch
 10
0.0
 20
0.0
 30
0.0
210
0.0
220
0.0
230
1.0
  2
SOLID
 70
1
 71
0
 91
1
 92
3
 72
0
 73
1
 93
48
 10
126.55
 20
83.91
 10
126.545
 20
83.838
 10
126.531
 20
83.768
 10
126.508
 20
83.7
 10
126.476
 20
83.635
 10
126.436
 20
83.575
 10
126.389
 20
83.521
 10
126.335
 20
83.474
 10
126.275
 20
83.434
 10
126.21
 20
83.402
 10
126.142
 20
83.379
 10
126.072
 20
83.365
 10
126.0
 20
83.36
 10
125.928
 20
83.365
 10
125.858
 20
83.379
 10
125.79
 20
83.402
 10
125.725
 20
83.434
 10
125.665
 20
83.474
 10
125.611
 20
83.521
 10
125.564
 20
83.575
 10
125.524
 20
83.635
 10
125.492
 20
83.7
 10
125.469
 20
83.768
 10
125.455
 20
83.838
 10
125.45
 20
83.91
 10
125.455
 20
83.982
 10
125.469
 20
84.052
 10
125.492
 20
84.12
 10
125.524
 20
84.185
 10
125.564
 20
84.245
 10
125.611
 20
84.299
 10
125.665
 20
84.346
 10
125.725
 20
84.386
 10
125.79
 20
84.418
 10
125.858
 20
84.441
 10
125.928
 20
84.455
 10
126.0
 20
84.46
 10
126.072
 20
84.455
 10
126.142
 20
84.441
 10
126.21
 20
84.418
 10
126.275
 20
84.386
 10
126.335
 20
84.346
 10
126.389
 20
84.299
 10
126.436
 20
84.245
 10
126.476
 20
84.185
 10
126.508
 20
84.12
 10
126.531
 20
84.052
 10
126.545
 20
83.982
 97
0
 75
0
 76
1
 98
0
  0
HATCH
  5
5D
330
17
100
AcDbEntity
  8
RASTER
 62
7
100
AcDbHatch
 10
0.0
 20
0.0
 30
0.0
210
0.0
220
0.0
230
1.0
  2
SOLID
 70
1
 71
0
 91
1
 92
3
 72
0
 73
1
 93
48
 10
126.55
 20
75.81
 10
126.545
 20
75.738
 10
126.531
 20
75.668
 10
126.508
 20
75.6
 10
126.476
 20
75.535
 10
126.436
 20
75.475
 10
126.389
 20
75.421
 10
126.335
 20
75.374
 10
126.275
 20
75.334
 10
126.21
 20
75.302
 10
126.142
 20
75.279
 10
126.072
 20
75.265
 10
126.0
 20
75.26
 10
125.928
 20
75.265
 10
125.858
 20
75.279
 10
125.79
 20
75.302
 10
125.725
 20
75.334
 10
125.665
 20
75.374
 10
125.611
 20
75.421
 10
125.564
 20
75.475
 10
125.524
 20
75.535
 10
125.492
 20
75.6
 10
125.469
 20
75.668
 10
125.455
 20
75.738
 10
125.45
 20
75.81
 10
125.455
 20
75.882
 10
125.469
 20
75.952
 10
125.492
 20
76.02
 10
125.524
 20
76.085
 10
125.564
 20
76.145
 10
125.611
 20
76.199
 10
125.665
 20
76.246
 10
125.725
 20
76.286
 10
125.79
 20
76.318
 10
125.858
 20
76.341
 10
125.928
 20
76.355
 10
126.0
 20
76.36
 10
126.072
 20
76.355
 10
126.142
 20
76.341
 10
126.21
 20
76.318
 10
126.275
 20
76.286
 10
126.335
 20
76.246
 10
126.389
 20
76.199
 10
126.436
 20
76.145
 10
126.476
 20
76.085
 10
126.508
 20
76.02
 10
126.531
 20
75.952
 10
126.545
 20
75.882
 97
0
 75
0
 76
1
 98
0
  0
HATCH
  5
5E
330
17
100
AcDbEntity
  8
RASTER
 62
7
100
AcDbHatch
 10
0.0
 20
0.0
 30
0.0
210
0.0
220
0.0
230
1.0
  2
SOLID
 70
1
 71
0
 91
1
 92
3
 72
0
 73
1
 93
48
 10
126.55
 20
67.71
 10
126.545
 20
67.638
 10
126.531
 20
67.568
 10
126.508
 20
67.5
 10
126.476
 20
67.435
 10
126.436
 20
67.375
 10
126.389
 20
67.321
 10
126.335
 20
67.274
 10
126.275
 20
67.234
 10
126.21
 20
67.202
 10
126.142
 20
67.179
 10
126.072
 20
67.165
 10
126.0
 20
67.16
 10
125.928
 20
67.165
 10
125.858
 20
67.179
 10
125.79
 20
67.202
 10
125.725
 20
67.234
 10
125.665
 20
67.274
 10
125.611
 20
67.321
 10
125.564
 20
67.375
 10
125.524
 20
67.435
 10
125.492
 20
67.5
 10
125.469
 20
67.568
 10
125.455
 20
67.638
 10
125.45
 20
67.71
 10
125.455
 20
67.782
 10
125.469
 20
67.852
 10
125.492
 20
67.92
 10
125.524
 20
67.985
 10
125.564
 20
68.045
 10
125.611
 20
68.099
 10
125.665
 20
68.146
 10
125.725
 20
68.186
 10
125.79
 20
68.218
 10
125.858
 20
68.241
 10
125.928
 20
68.255
 10
126.0
 20
68.26
 10
126.072
 20
68.255
 10
126.142
 20
68.241
 10
126.21
 20
68.218
 10
126.275
 20
68.186
 10
126.335
 20
68.146
 10
126.389
 20
68.099
 10
126.436
 20
68.045
 10
126.476
 20
67.985
 10
126.508
 20
67.92
 10
126.531
 20
67.852
 10
126.545
 20
67.782
 97
0
 75
0
 76
1
 98
0
  0
LWPOLYLINE
  5
5F
330
17
100
AcDbEntity
  8
CUT
100
AcDbPolyline
 90
40
 70
1
 10
6.8
 20
58.35
 10
81.2
 20
58.35
 10
84.04
 20
58.35
 10
84.04
 20
55.203
 10
81.24
 20
55.203
 10
81.24
 20
52.217
 10
84.04
 20
52.217
 10
84.04
 20
49.07
 10
81.2
 20
49.07
 10
75.517
 20
49.07
 10
75.517
 20
46.27
 10
69.714
 20
46.27
 10
69.714
 20
49.07
 10
64.071
 20
49.07
 10
64.071
 20
46.27
 10
58.268
 20
46.27
 10
58.268
 20
49.07
 10
52.625
 20
49.07
 10
52.625
 20
46.27
 10
46.822
 20
46.27
 10
46.822
 20
49.07
 10
41.178
 20
49.07
 10
41.178
 20
46.27
 10
35.375
 20
46.27
 10
35.375
 20
49.07
 10
29.732
 20
49.07
 10
29.732
 20
46.27
 10
23.929
 20
46.27
 10
23.929
 20
49.07
 10
18.286
 20
49.07
 10
18.286
 20
46.27
 10
12.483
 20
46.27
 10
12.483
 20
49.07
 10
6.8
 20
49.07
 10
3.96
 20
49.07
 10
3.96
 20
52.217
 10
6.76
 20
52.217
 10
6.76
 20
55.203
 10
3.96
 20
55.203
 10
3.96
 20
58.35
  0
HATCH
  5
60
330
17
100
AcDbEntity
  8
RASTER
 62
7
100
AcDbHatch
 10
0.0
 20
0.0
 30
0.0
210
0.0
220
0.0
230
1.0
  2
SOLID
 70
1
 71
0
 91
1
 92
3
 72
0
 73
1
 93
4
 10
7.8
 20
55.11
 10
80.2
 20
55.11
 10
80.2
 20
54.51
 10
7.8
 20
54.51
 97
0
 75
0
 76
1
 98
0
  0
HATCH
  5
61
330
17
100
AcDbEntity
  8
RASTER
 62
7
100
AcDbHatch
 10
0.0
 20
0.0
 30
0.0
210
0.0
220
0.0
230
1.0
  2
SOLID
 70
1
 71
0
 91
1
 92
3
 72
0
 73
1
 93
4
 10
7.8
 20
51.61
 10
80.2
 20
51.61
 10
80.2
 20
51.01
 10
7.8
 20
51.01
 97
0
 75
0
 76
1
 98
0
  0
HATCH
  5
62
330
17
100
AcDbEntity
  8
RASTER
 62
7
100
AcDbHatch
 10
0.0
 20
0.0
 30
0.0
210
0.0
220
0.0
230
1.0
  2
SOLID
 70
1
 71
0
 91
1
 92
3
 72
0
 73
1
 93
4
 10
22.0
 20
58.31
 10
26.0
 20
58.31
 10
26.0
 20
49.11
 10
22.0
 20
49.11
 97
0
 75
0
 76
1
 98
0
  0
HATCH
  5
63
330
17
100
AcDbEntity
  8
RASTER
 62
7
100
AcDbHatch
 10
0.0
 20
0.0
 30
0.0
210
0.0
220
0.0
230
1.0
  2
SOLID
 70
1
 71
0
 91
1
 92
3
 72
0
 73
1
 93
48
 10
24.55
 20
56.47
 10
24.545
 20
56.398
 10
24.531
 20
56.328
 10
24.508
 20
56.26
 10
24.476
 20
56.195
 10
24.436
 20
56.135
 10
24.389
 20
56.081
 10
24.335
 20
56.034
 10
24.275
 20
55.994
 10
24.21
 20
55.962
 10
24.142
 20
55.939
 10
24.072
 20
55.925
 10
24.0
 20
55.92
 10
23.928
 20
55.925
 10
23.858
 20
55.939
 10
23.79
 20
55.962
 10
23.725
 20
55.994
 10
23.665
 20
56.034
 10
23.611
 20
56.081
 10
23.564
 20
56.135
 10
23.524
 20
56.195
 10
23.492
 20
56.26
 10
23.469
 20
56.328
 10
23.455
 20
56.398
 10
23.45
 20
56.47
 10
23.455
 20
56.542
 10
23.469
 20
56.612
 10
23.492
 20
56.68
 10
23.524
 20
56.745
 10
23.564
 20
56.805
 10
23.611
 20
56.859
 10
23.665
 20
56.906
 10
23.725
 20
56.946
 10
23.79
 20
56.978
 10
23.858
 20
57.001
 10
23.928
 20
57.015
 10
24.0
 20
57.02
 10
24.072
 20
57.015
 10
24.142
 20
57.001
 10
24.21
 20
56.978
 10
24.275
 20
56.946
 10
24.335
 20
56.906
 10
24.389
 20
56.859
 10
24.436
 20
56.805
 10
24.476
 20
56.745
 10
24.508
 20
56.68
 10
24.531
 20
56.612
 10
24.545
 20
56.542
 97
0
 75
0
 76
1
 98
0
  0
HATCH
  5
64
330
17
100
AcDbEntity
  8
RASTER
 62
7
100
AcDbHatch
 10
0.0
 20
0.0
 30
0.0
210
0.0
220
0.0
230
1.0
  2
SOLID
 70
1
 71
0
 91
1
 92
3
 72
0
 73
1
 93
48
 10
24.55
 20
53.71
 10
24.545
 20
53.638
 10
24.531
 20
53.568
 10
24.508
 20
53.5
 10
24.476
 20
53.435
 10
24.436
 20
53.375
 10
24.389
 20
53.321
 10
24.335
 20
53.274
 10
24.275
 20
53.234
 10
24.21
 20
53.202
 10
24.142
 20
53.179
 10
24.072
 20
53.165
 10
24.0
 20
53.16
 10
23.928
 20
53.165
 10
23.858
 20
53.179
 10
23.79
 20
53.202
 10
23.725
 20
53.234
 10
23.665
 20
53.274
 10
23.611
 20
53.321
 10
23.564
 20
53.375
 10
23.524
 20
53.435
 10
23.492
 20
53.5
 10
23.469
 20
53.568
 10
23.455
 20
53.638
 10
23.45
 20
53.71
 10
23.455
 20
53.782
 10
23.469
 20
53.852
 10
23.492
 20
53.92
 10
23.524
 20
53.985
 10
23.564
 20
54.045
 10
23.611
 20
54.099
 10
23.665
 20
54.146
 10
23.725
 20
54.186
 10
23.79
 20
54.218
 10
23.858
 20
54.241
 10
23.928
 20
54.255
 10
24.0
 20
54.26
 10
24.072
 20
54.255
 10
24.142
 20
54.241
 10
24.21
 20
54.218
 10
24.275
 20
54.186
 10
24.335
 20
54.146
 10
24.389
 20
54.099
 10
24.436
 20
54.045
 10
24.476
 20
53.985
 10
24.508
 20
53.92
 10
24.531
 20
53.852
 10
24.545
 20
53.782
 97
0
 75
0
 76
1
 98
0
  0
HATCH
  5
65
330
17
100
AcDbEntity
  8
RASTER
 62
7
100
AcDbHatch
 10
0.0
 20
0.0
 30
0.0
210
0.0
220
0.0
230
1.0
  2
SOLID
 70
1
 71
0
 91
1
 92
3
 72
0
 73
1
 93
48
 10
24.55
 20
50.95
 10
24.545
 20
50.878
 10
24.531
 20
50.808
 10
24.508
 20
50.74
 10
24.476
 20
50.675
 10
24.436
 20
50.615
 10
24.389
 20
50.561
 10
24.335
 20
50.514
 10
24.275
 20
50.474
 10
24.21
 20
50.442
 10
24.142
 20
50.419
 10
24.072
 20
50.405
 10
24.0
 20
50.4
 10
23.928
 20
50.405
 10
23.858
 20
50.419
 10
23.79
 20
50.442
 10
23.725
 20
50.474
 10
23.665
 20
50.514
 10
23.611
 20
50.561
 10
23.564
 20
50.615
 10
23.524
 20
50.675
 10
23.492
 20
50.74
 10
23.469
 20
50.808
 10
23.455
 20
50.878
 10
23.45
 20
50.95
 10
23.455
 20
51.022
 10
23.469
 20
51.092
 10
23.492
 20
51.16
 10
23.524
 20
51.225
 10
23.564
 20
51.285
 10
23.611
 20
51.339
 10
23.665
 20
51.386
 10
23.725
 20
51.426
 10
23.79
 20
51.458
 10
23.858
 20
51.481
 10
23.928
 20
51.495
 10
24.0
 20
51.5
 10
24.072
 20
51.495
 10
24.142
 20
51.481
 10
24.21
 20
51.458
 10
24.275
 20
51.426
 10
24.335
 20
51.386
 10
24.389
 20
51.339
 10
24.436
 20
51.285
 10
24.476
 20
51.225
 10
24.508
 20
51.16
 10
24.531
 20
51.092
 10
24.545
 20
51.022
 97
0
 75
0
 76
1
 98
0
  0
HATCH
  5
66
330
17
100
AcDbEntity
  8
RASTER
 62
7
100
AcDbHatch
 10
0.0
 20
0.0
 30
0.0
210
0.0
220
0.0
230
1.0
  2
SOLID
 70
1
 71
0
 91
1
 92
3
 72
0
 73
1
 93
4
 10
62.0
 20
58.31
 10
66.0
 20
58.31
 10
66.0
 20
49.11
 10
62.0
 20
49.11
 97
0
 75
0
 76
1
 98
0
  0
HATCH
  5
67
330
17
100
AcDbEntity
  8
RASTER
 62
7
100
AcDbHatch
 10
0.0
 20
0.0
 30
0.0
210
0.0
220
0.0
230
1.0
  2
SOLID
 70
1
 71
0
 91
1
 92
3
 72
0
 73
1
 93
48
 10
64.55
 20
56.47
 10
64.545
 20
56.398
 10
64.531
 20
56.328
 10
64.508
 20
56.26
 10
64.476
 20
56.195
 10
64.436
 20
56.135
 10
64.389
 20
56.081
 10
64.335
 20
56.034
 10
64.275
 20
55.994
 10
64.21
 20
55.962
 10
64.142
 20
55.939
 10
64.072
 20
55.925
 10
64.0
 20
55.92
 10
63.928
 20
55.925
 10
63.858
 20
55.939
 10
63.79
 20
55.962
 10
63.725
 20
55.994
 10
63.665
 20
56.034
 10
63.611
 20
56.081
 10
63.564
 20
56.135
 10
63.524
 20
56.195
 10
63.492
 20
56.26
 10
63.469
 20
56.328
 10
63.455
 20
56.398
 10
63.45
 20
56.47
 10
63.455
 20
56.542
 10
63.469
 20
56.612
 10
63.492
 20
56.68
 10
63.524
 20
56.745
 10
63.564
 20
56.805
 10
63.611
 20
56.859
 10
63.665
 20
56.906
 10
63.725
 20
56.946
 10
63.79
 20
56.978
 10
63.858
 20
57.001
 10
63.928
 20
57.015
 10
64.0
 20
57.02
 10
64.072
 20
57.015
 10
64.142
 20
57.001
 10
64.21
 20
56.978
 10
64.275
 20
56.946
 10
64.335
 20
56.906
 10
64.389
 20
56.859
 10
64.436
 20
56.805
 10
64.476
 20
56.745
 10
64.508
 20
56.68
 10
64.531
 20
56.612
 10
64.545
 20
56.542
 97
0
 75
0
 76
1
 98
0
  0
HATCH
  5
68
330
17
100
AcDbEntity
  8
RASTER
 62
7
100
AcDbHatch
 10
0.0
 20
0.0
 30
0.0
210
0.0
220
0.0
230
1.0
  2
SOLID
 70
1
 71
0
 91
1
 92
3
 72
0
 73
1
 93
48
 10
64.55
 20
53.71
 10
64.545
 20
53.638
 10
64.531
 20
53.568
 10
64.508
 20
53.5
 10
64.476
 20
53.435
 10
64.436
 20
53.375
 10
64.389
 20
53.321
 10
64.335
 20
53.274
 10
64.275
 20
53.234
 10
64.21
 20
53.202
 10
64.142
 20
53.179
 10
64.072
 20
53.165
 10
64.0
 20
53.16
 10
63.928
 20
53.165
 10
63.858
 20
53.179
 10
63.79
 20
53.202
 10
63.725
 20
53.234
 10
63.665
 20
53.274
 10
63.611
 20
53.321
 10
63.564
 20
53.375
 10
63.524
 20
53.435
 10
63.492
 20
53.5
 10
63.469
 20
53.568
 10
63.455
 20
53.638
 10
63.45
 20
53.71
 10
63.455
 20
53.782
 10
63.469
 20
53.852
 10
63.492
 20
53.92
 10
63.524
 20
53.985
 10
63.564
 20
54.045
 10
63.611
 20
54.099
 10
63.665
 20
54.146
 10
63.725
 20
54.186
 10
63.79
 20
54.218
 10
63.858
 20
54.241
 10
63.928
 20
54.255
 10
64.0
 20
54.26
 10
64.072
 20
54.255
 10
64.142
 20
54.241
 10
64.21
 20
54.218
 10
64.275
 20
54.186
 10
64.335
 20
54.146
 10
64.389
 20
54.099
 10
64.436
 20
54.045
 10
64.476
 20
53.985
 10
64.508
 20
53.92
 10
64.531
 20
53.852
 10
64.545
 20
53.782
 97
0
 75
0
 76
1
 98
0
  0
HATCH
  5
69
330
17
100
AcDbEntity
  8
RASTER
 62
7
100
AcDbHatch
 10
0.0
 20
0.0
 30
0.0
210
0.0
220
0.0
230
1.0
  2
SOLID
 70
1
 71
0
 91
1
 92
3
 72
0
 73
1
 93
48
 10
64.55
 20
50.95
 10
64.545
 20
50.878
 10
64.531
 20
50.808
 10
64.508
 20
50.74
 10
64.476
 20
50.675
 10
64.436
 20
50.615
 10
64.389
 20
50.561
 10
64.335
 20
50.514
 10
64.275
 20
50.474
 10
64.21
 20
50.442
 10
64.142
 20
50.419
 10
64.072
 20
50.405
 10
64.0
 20
50.4
 10
63.928
 20
50.405
 10
63.858
 20
50.419
 10
63.79
 20
50.442
 10
63.725
 20
50.474
 10
63.665
 20
50.514
 10
63.611
 20
50.561
 10
63.564
 20
50.615
 10
63.524
 20
50.675
 10
63.492
 20
50.74
 10
63.469
 20
50.808
 10
63.455
 20
50.878
 10
63.45
 20
50.95
 10
63.455
 20
51.022
 10
63.469
 20
51.092
 10
63.492
 20
51.16
 10
63.524
 20
51.225
 10
63.564
 20
51.285
 10
63.611
 20
51.339
 10
63.665
 20
51.386
 10
63.725
 20
51.426
 10
63.79
 20
51.458
 10
63.858
 20
51.481
 10
63.928
 20
51.495
 10
64.0
 20
51.5
 10
64.072
 20
51.495
 10
64.142
 20
51.481
 10
64.21
 20
51.458
 10
64.275
 20
51.426
 10
64.335
 20
51.386
 10
64.389
 20
51.339
 10
64.436
 20
51.285
 10
64.476
 20
51.225
 10
64.508
 20
51.16
 10
64.531
 20
51.092
 10
64.545
 20
51.022
 97
0
 75
0
 76
1
 98
0
  0
LWPOLYLINE
  5
6A
330
17
100
AcDbEntity
  8
CUT
100
AcDbPolyline
 90
68
 70
1
 10
87.96
 20
51.95
 10
90.8
 20
51.95
 10
105.68
 20
51.95
 10
105.67
 20
51.95
 10
105.67
 20
55.213
 10
105.777
 20
56.023
 10
106.09
 20
56.78
 10
106.589
 20
57.431
 10
107.24
 20
57.93
 10
107.997
 20
58.243
 10
108.807
 20
58.35
 10
117.433
 20
58.35
 10
118.243
 20
58.243
 10
119.0
 20
57.93
 10
119.651
 20
57.431
 10
120.15
 20
56.78
 10
120.463
 20
56.023
 10
120.57
 20
55.213
 10
120.57
 20
51.95
 10
120.56
 20
51.95
 10
135.44
 20
51.95
 10
135.43
 20
51.95
 10
135.43
 20
55.213
 10
135.537
 20
56.023
 10
135.85
 20
56.78
 10
136.349
 20
57.431
 10
137.0
 20
57.93
 10
137.757
 20
58.243
 10
138.567
 20
58.35
 10
147.193
 20
58.35
 10
148.003
 20
58.243
 10
148.76
 20
57.93
 10
149.411
 20
57.431
 10
149.91
 20
56.78
 10
150.223
 20
56.023
 10
150.33
 20
55.213
 10
150.33
 20
51.95
 10
150.32
 20
51.95
 10
165.2
 20
51.95
 10
168.04
 20
51.95
 10
168.04
 20
49.47
 10
165.2
 20
49.47
 10
159.517
 20
49.47
 10
159.517
 20
46.67
 10
153.714
 20
46.67
 10
153.714
 20
49.47
 10
148.071
 20
49.47
 10
148.071
 20
46.67
 10
142.268
 20
46.67
 10
142.268
 20
49.47
 10
136.625
 20
49.47
 10
136.625
 20
46.67
 10
130.822
 20
46.67
 10
130.822
 20
49.47
 10
125.178
 20
49.47
 10
125.178
 20
46.67
 10
119.375
 20
46.67
 10
119.375
 20
49.47
 10
113.732
 20
49.47
 10
113.732
 20
46.67
 10
107.929
 20
46.67
 10
107.929
 20
49.47
 10
102.286
 20
49.47
 10
102.286
 20
46.67
 10
96.483
 20
46.67
 10
96.483
 20
49.47
 10
90.8
 20
49.47
 10
87.96
 20
49.47
  0
LWPOLYLINE
  5
6B
330
17
100
AcDbEntity
  8
CUT
100
AcDbPolyline
 90
20
 70
1
 10
6.76
 20
38.04
 10
28.24
 20
38.04
 10
28.24
 20
34.973
 10
31.04
 20
34.973
 10
31.04
 20
31.827
 10
28.24
 20
31.827
 10
28.24
 20
28.76
 10
23.96
 20
28.76
 10
23.96
 20
25.96
 10
19.6
 20
25.96
 10
19.6
 20
28.76
 10
15.4
 20
28.76
 10
15.4
 20
25.96
 10
11.04
 20
25.96
 10
11.04
 20
28.76
 10
6.76
 20
28.76
 10
6.76
 20
31.827
 10
3.96
 20
31.827
 10
3.96
 20
34.973
 10
6.76
 20
34.973
  0
HATCH
  5
6C
330
17
100
AcDbEntity
  8
RASTER
 62
7
100
AcDbHatch
 10
0.0
 20
0.0
 30
0.0
210
0.0
220
0.0
230
1.0
  2
SOLID
 70
1
 71
0
 91
1
 92
3
 72
0
 73
1
 93
4
 10
7.8
 20
32.4
 10
27.2
 20
32.4
 10
27.2
 20
32.0
 10
7.8
 20
32.0
 97
0
 75
0
 76
1
 98
0
  0
LWPOLYLINE
  5
6D
330
17
100
AcDbEntity
  8
CUT
100
AcDbPolyline
 90
20
 70
1
 10
37.76
 20
38.04
 10
59.24
 20
38.04
 10
59.24
 20
34.973
 10
62.04
 20
34.973
 10
62.04
 20
31.827
 10
59.24
 20
31.827
 10
59.24
 20
28.76
 10
54.96
 20
28.76
 10
54.96
 20
25.96
 10
50.6
 20
25.96
 10
50.6
 20
28.76
 10
46.4
 20
28.76
 10
46.4
 20
25.96
 10
42.04
 20
25.96
 10
42.04
 20
28.76
 10
37.76
 20
28.76
 10
37.76
 20
31.827
 10
34.96
 20
31.827
 10
34.96
 20
34.973
 10
37.76
 20
34.973
  0
HATCH
  5
6E
330
17
100
AcDbEntity
  8
RASTER
 62
7
100
AcDbHatch
 10
0.0
 20
0.0
 30
0.0
210
0.0
220
0.0
230
1.0
  2
SOLID
 70
1
 71
0
 91
1
 92
3
 72
0
 73
1
 93
4
 10
38.8
 20
32.4
 10
58.2
 20
32.4
 10
58.2
 20
32.0
 10
38.8
 20
32.0
 97
0
 75
0
 76
1
 98
0
  0
LWPOLYLINE
  5
6F
330
17
100
AcDbEntity
  8
CUT
100
AcDbPolyline
 90
76
 70
1
 10
65.96
 20
38.04
 10
68.8
 20
38.04
 10
74.563
 20
38.04
 10
74.563
 20
35.24
 10
80.206
 20
35.24
 10
80.206
 20
38.04
 10
86.009
 20
38.04
 10
86.009
 20
35.24
 10
91.652
 20
35.24
 10
91.652
 20
38.04
 10
97.455
 20
38.04
 10
97.455
 20
35.24
 10
103.098
 20
35.24
 10
103.098
 20
38.04
 10
108.902
 20
38.04
 10
108.902
 20
35.24
 10
114.545
 20
35.24
 10
114.545
 20
38.04
 10
120.348
 20
38.04
 10
120.348
 20
35.24
 10
125.991
 20
35.24
 10
125.991
 20
38.04
 10
131.794
 20
38.04
 10
131.794
 20
35.24
 10
137.437
 20
35.24
 10
137.437
 20
38.04
 10
143.2
 20
38.04
 10
146.04
 20
38.04
 10
146.04
 20
35.2
 10
146.04
 20
30.88
 10
143.24
 20
30.88
 10
143.24
 20
26.68
 10
146.04
 20
26.68
 10
146.04
 20
22.32
 10
143.24
 20
22.32
 10
143.24
 20
18.12
 10
146.04
 20
18.12
 10
146.04
 20
13.8
 10
146.04
 20
10.96
 10
143.2
 20
10.96
 10
137.437
 20
10.96
 10
137.437
 20
13.76
 10
131.794
 20
13.76
 10
131.794
 20
10.96
 10
125.991
 20
10.96
 10
125.991
 20
13.76
 10
120.348
 20
13.76
 10
120.348
 20
10.96
 10
114.545
 20
10.96
 10
114.545
 20
13.76
 10
108.902
 20
13.76
 10
108.902
 20
10.96
 10
103.098
 20
10.96
 10
103.098
 20
13.76
 10
97.455
 20
13.76
 10
97.455
 20
10.96
 10
91.652
 20
10.96
 10
91.652
 20
13.76
 10
86.009
 20
13.76
 10
86.009
 20
10.96
 10
80.206
 20
10.96
 10
80.206
 20
13.76
 10
74.563
 20
13.76
 10
74.563
 20
10.96
 10
68.8
 20
10.96
 10
65.96
 20
10.96
 10
65.96
 20
13.8
 10
65.96
 20
18.12
 10
68.76
 20
18.12
 10
68.76
 20
22.32
 10
65.96
 20
22.32
 10
65.96
 20
26.68
 10
68.76
 20
26.68
 10
68.76
 20
30.88
 10
65.96
 20
30.88
 10
65.96
 20
35.2
  0
HATCH
  5
70
330
17
100
AcDbEntity
  8
RASTER
 62
7
100
AcDbHatch
 10
0.0
 20
0.0
 30
0.0
210
0.0
220
0.0
230
1.0
  2
SOLID
 70
1
 71
0
 91
1
 92
3
 72
0
 73
1
 93
4
 10
69.8
 20
30.5
 10
142.2
 20
30.5
 10
142.2
 20
29.9
 10
69.8
 20
29.9
 97
0
 75
0
 76
1
 98
0
  0
HATCH
  5
71
330
17
100
AcDbEntity
  8
RASTER
 62
7
100
AcDbHatch
 10
0.0
 20
0.0
 30
0.0
210
0.0
220
0.0
230
1.0
  2
SOLID
 70
1
 71
0
 91
1
 92
3
 72
0
 73
1
 93
4
 10
69.8
 20
25.5
 10
142.2
 20
25.5
 10
142.2
 20
24.9
 10
69.8
 20
24.9
 97
0
 75
0
 76
1
 98
0
  0
HATCH
  5
72
330
17
100
AcDbEntity
  8
RASTER
 62
7
100
AcDbHatch
 10
0.0
 20
0.0
 30
0.0
210
0.0
220
0.0
230
1.0
  2
SOLID
 70
1
 71
0
 91
1
 92
3
 72
0
 73
1
 93
4
 10
69.8
 20
20.5
 10
142.2
 20
20.5
 10
142.2
 20
19.9
 10
69.8
 20
19.9
 97
0
 75
0
 76
1
 98
0
  0
HATCH
  5
73
330
17
100
AcDbEntity
  8
RASTER
 62
7
100
AcDbHatch
 10
0.0
 20
0.0
 30
0.0
210
0.0
220
0.0
230
1.0
  2
SOLID
 70
1
 71
0
 91
1
 92
3
 72
0
 73
1
 93
4
 10
69.8
 20
15.5
 10
142.2
 20
15.5
 10
142.2
 20
14.9
 10
69.8
 20
14.9
 97
0
 75
0
 76
1
 98
0
  0
HATCH
  5
74
330
17
100
AcDbEntity
  8
RASTER
 62
7
100
AcDbHatch
 10
0.0
 20
0.0
 30
0.0
210
0.0
220
0.0
230
1.0
  2
SOLID
 70
1
 71
0
 91
1
 92
3
 72
0
 73
1
 93
4
 10
84.0
 20
38.0
 10
88.0
 20
38.0
 10
88.0
 20
11.0
 10
84.0
 20
11.0
 97
0
 75
0
 76
1
 98
0
  0
HATCH
  5
75
330
17
100
AcDbEntity
  8
RASTER
 62
7
100
AcDbHatch
 10
0.0
 20
0.0
 30
0.0
210
0.0
220
0.0
230
1.0
  2
SOLID
 70
1
 71
0
 91
1
 92
3
 72
0
 73
1
 93
48
 10
86.55
 20
32.6
 10
86.545
 20
32.528
 10
86.531
 20
32.458
 10
86.508
 20
32.39
 10
86.476
 20
32.325
 10
86.436
 20
32.265
 10
86.389
 20
32.211
 10
86.335
 20
32.164
 10
86.275
 20
32.124
 10
86.21
 20
32.092
 10
86.142
 20
32.069
 10
86.072
 20
32.055
 10
86.0
 20
32.05
 10
85.928
 20
32.055
 10
85.858
 20
32.069
 10
85.79
 20
32.092
 10
85.725
 20
32.124
 10
85.665
 20
32.164
 10
85.611
 20
32.211
 10
85.564
 20
32.265
 10
85.524
 20
32.325
 10
85.492
 20
32.39
 10
85.469
 20
32.458
 10
85.455
 20
32.528
 10
85.45
 20
32.6
 10
85.455
 20
32.672
 10
85.469
 20
32.742
 10
85.492
 20
32.81
 10
85.524
 20
32.875
 10
85.564
 20
32.935
 10
85.611
 20
32.989
 10
85.665
 20
33.036
 10
85.725
 20
33.076
 10
85.79
 20
33.108
 10
85.858
 20
33.131
 10
85.928
 20
33.145
 10
86.0
 20
33.15
 10
86.072
 20
33.145
 10
86.142
 20
33.131
 10
86.21
 20
33.108
 10
86.275
 20
33.076
 10
86.335
 20
33.036
 10
86.389
 20
32.989
 10
86.436
 20
32.935
 10
86.476
 20
32.875
 10
86.508
 20
32.81
 10
86.531
 20
32.742
 10
86.545
 20
32.672
 97
0
 75
0
 76
1
 98
0
  0
HATCH
  5
76
330
17
100
AcDbEntity
  8
RASTER
 62
7
100
AcDbHatch
 10
0.0
 20
0.0
 30
0.0
210
0.0
220
0.0
230
1.0
  2
SOLID
 70
1
 71
0
 91
1
 92
3
 72
0
 73
1
 93
48
 10
86.55
 20
24.5
 10
86.545
 20
24.428
 10
86.531
 20
24.358
 10
86.508
 20
24.29
 10
86.476
 20
24.225
 10
86.436
 20
24.165
 10
86.389
 20
24.111
 10
86.335
 20
24.064
 10
86.275
 20
24.024
 10
86.21
 20
23.992
 10
86.142
 20
23.969
 10
86.072
 20
23.955
 10
86.0
 20
23.95
 10
85.928
 20
23.955
 10
85.858
 20
23.969
 10
85.79
 20
23.992
 10
85.725
 20
24.024
 10
85.665
 20
24.064
 10
85.611
 20
24.111
 10
85.564
 20
24.165
 10
85.524
 20
24.225
 10
85.492
 20
24.29
 10
85.469
 20
24.358
 10
85.455
 20
24.428
 10
85.45
 20
24.5
 10
85.455
 20
24.572
 10
85.469
 20
24.642
 10
85.492
 20
24.71
 10
85.524
 20
24.775
 10
85.564
 20
24.835
 10
85.611
 20
24.889
 10
85.665
 20
24.936
 10
85.725
 20
24.976
 10
85.79
 20
25.008
 10
85.858
 20
25.031
 10
85.928
 20
25.045
 10
86.0
 20
25.05
 10
86.072
 20
25.045
 10
86.142
 20
25.031
 10
86.21
 20
25.008
 10
86.275
 20
24.976
 10
86.335
 20
24.936
 10
86.389
 20
24.889
 10
86.436
 20
24.835
 10
86.476
 20
24.775
 10
86.508
 20
24.71
 10
86.531
 20
24.642
 10
86.545
 20
24.572
 97
0
 75
0
 76
1
 98
0
  0
HATCH
  5
77
330
17
100
AcDbEntity
  8
RASTER
 62
7
100
AcDbHatch
 10
0.0
 20
0.0
 30
0.0
210
0.0
220
0.0
230
1.0
  2
SOLID
 70
1
 71
0
 91
1
 92
3
 72
0
 73
1
 93
48
 10
86.55
 20
16.4
 10
86.545
 20
16.328
 10
86.531
 20
16.258
 10
86.508
 20
16.19
 10
86.476
 20
16.125
 10
86.436
 20
16.065
 10
86.389
 20
16.011
 10
86.335
 20
15.964
 10
86.275
 20
15.924
 10
86.21
 20
15.892
 10
86.142
 20
15.869
 10
86.072
 20
15.855
 10
86.0
 20
15.85
 10
85.928
 20
15.855
 10
85.858
 20
15.869
 10
85.79
 20
15.892
 10
85.725
 20
15.924
 10
85.665
 20
15.964
 10
85.611
 20
16.011
 10
85.564
 20
16.065
 10
85.524
 20
16.125
 10
85.492
 20
16.19
 10
85.469
 20
16.258
 10
85.455
 20
16.328
 10
85.45
 20
16.4
 10
85.455
 20
16.472
 10
85.469
 20
16.542
 10
85.492
 20
16.61
 10
85.524
 20
16.675
 10
85.564
 20
16.735
 10
85.611
 20
16.789
 10
85.665
 20
16.836
 10
85.725
 20
16.876
 10
85.79
 20
16.908
 10
85.858
 20
16.931
 10
85.928
 20
16.945
 10
86.0
 20
16.95
 10
86.072
 20
16.945
 10
86.142
 20
16.931
 10
86.21
 20
16.908
 10
86.275
 20
16.876
 10
86.335
 20
16.836
 10
86.389
 20
16.789
 10
86.436
 20
16.735
 10
86.476
 20
16.675
 10
86.508
 20
16.61
 10
86.531
 20
16.542
 10
86.545
 20
16.472
 97
0
 75
0
 76
1
 98
0
  0
HATCH
  5
78
330
17
100
AcDbEntity
  8
RASTER
 62
7
100
AcDbHatch
 10
0.0
 20
0.0
 30
0.0
210
0.0
220
0.0
230
1.0
  2
SOLID
 70
1
 71
0
 91
1
 92
3
 72
0
 73
1
 93
4
 10
124.0
 20
38.0
 10
128.0
 20
38.0
 10
128.0
 20
11.0
 10
124.0
 20
11.0
 97
0
 75
0
 76
1
 98
0
  0
HATCH
  5
79
330
17
100
AcDbEntity
  8
RASTER
 62
7
100
AcDbHatch
 10
0.0
 20
0.0
 30
0.0
210
0.0
220
0.0
230
1.0
  2
SOLID
 70
1
 71
0
 91
1
 92
3
 72
0
 73
1
 93
48
 10
126.55
 20
32.6
 10
126.545
 20
32.528
 10
126.531
 20
32.458
 10
126.508
 20
32.39
 10
126.476
 20
32.325
 10
126.436
 20
32.265
 10
126.389
 20
32.211
 10
126.335
 20
32.164
 10
126.275
 20
32.124
 10
126.21
 20
32.092
 10
126.142
 20
32.069
 10
126.072
 20
32.055
 10
126.0
 20
32.05
 10
125.928
 20
32.055
 10
125.858
 20
32.069
 10
125.79
 20
32.092
 10
125.725
 20
32.124
 10
125.665
 20
32.164
 10
125.611
 20
32.211
 10
125.564
 20
32.265
 10
125.524
 20
32.325
 10
125.492
 20
32.39
 10
125.469
 20
32.458
 10
125.455
 20
32.528
 10
125.45
 20
32.6
 10
125.455
 20
32.672
 10
125.469
 20
32.742
 10
125.492
 20
32.81
 10
125.524
 20
32.875
 10
125.564
 20
32.935
 10
125.611
 20
32.989
 10
125.665
 20
33.036
 10
125.725
 20
33.076
 10
125.79
 20
33.108
 10
125.858
 20
33.131
 10
125.928
 20
33.145
 10
126.0
 20
33.15
 10
126.072
 20
33.145
 10
126.142
 20
33.131
 10
126.21
 20
33.108
 10
126.275
 20
33.076
 10
126.335
 20
33.036
 10
126.389
 20
32.989
 10
126.436
 20
32.935
 10
126.476
 20
32.875
 10
126.508
 20
32.81
 10
126.531
 20
32.742
 10
126.545
 20
32.672
 97
0
 75
0
 76
1
 98
0
  0
HATCH
  5
7A
330
17
100
AcDbEntity
  8
RASTER
 62
7
100
AcDbHatch
 10
0.0
 20
0.0
 30
0.0
210
0.0
220
0.0
230
1.0
  2
SOLID
 70
1
 71
0
 91
1
 92
3
 72
0
 73
1
 93
48
 10
126.55
 20
24.5
 10
126.545
 20
24.428
 10
126.531
 20
24.358
 10
126.508
 20
24.29
 10
126.476
 20
24.225
 10
126.436
 20
24.165
 10
126.389
 20
24.111
 10
126.335
 20
24.064
 10
126.275
 20
24.024
 10
126.21
 20
23.992
 10
126.142
 20
23.969
 10
126.072
 20
23.955
 10
126.0
 20
23.95
 10
125.928
 20
23.955
 10
125.858
 20
23.969
 10
125.79
 20
23.992
 10
125.725
 20
24.024
 10
125.665
 20
24.064
 10
125.611
 20
24.111
 10
125.564
 20
24.165
 10
125.524
 20
24.225
 10
125.492
 20
24.29
 10
125.469
 20
24.358
 10
125.455
 20
24.428
 10
125.45
 20
24.5
 10
125.455
 20
24.572
 10
125.469
 20
24.642
 10
125.492
 20
24.71
 10
125.524
 20
24.775
 10
125.564
 20
24.835
 10
125.611
 20
24.889
 10
125.665
 20
24.936
 10
125.725
 20
24.976
 10
125.79
 20
25.008
 10
125.858
 20
25.031
 10
125.928
 20
25.045
 10
126.0
 20
25.05
 10
126.072
 20
25.045
 10
126.142
 20
25.031
 10
126.21
 20
25.008
 10
126.275
 20
24.976
 10
126.335
 20
24.936
 10
126.389
 20
24.889
 10
126.436
 20
24.835
 10
126.476
 20
24.775
 10
126.508
 20
24.71
 10
126.531
 20
24.642
 10
126.545
 20
24.572
 97
0
 75
0
 76
1
 98
0
  0
HATCH
  5
7B
330
17
100
AcDbEntity
  8
RASTER
 62
7
100
AcDbHatch
 10
0.0
 20
0.0
 30
0.0
210
0.0
220
0.0
230
1.0
  2
SOLID
 70
1
 71
0
 91
1
 92
3
 72
0
 73
1
 93
48
 10
126.55
 20
16.4
 10
126.545
 20
16.328
 10
126.531
 20
16.258
 10
126.508
 20
16.19
 10
126.476
 20
16.125
 10
126.436
 20
16.065
 10
126.389
 20
16.011
 10
126.335
 20
15.964
 10
126.275
 20
15.924
 10
126.21
 20
15.892
 10
126.142
 20
15.869
 10
126.072
 20
15.855
 10
126.0
 20
15.85
 10
125.928
 20
15.855
 10
125.858
 20
15.869
 10
125.79
 20
15.892
 10
125.725
 20
15.924
 10
125.665
 20
15.964
 10
125.611
 20
16.011
 10
125.564
 20
16.065
 10
125.524
 20
16.125
 10
125.492
 20
16.19
 10
125.469
 20
16.258
 10
125.455
 20
16.328
 10
125.45
 20
16.4
 10
125.455
 20
16.472
 10
125.469
 20
16.542
 10
125.492
 20
16.61
 10
125.524
 20
16.675
 10
125.564
 20
16.735
 10
125.611
 20
16.789
 10
125.665
 20
16.836
 10
125.725
 20
16.876
 10
125.79
 20
16.908
 10
125.858
 20
16.931
 10
125.928
 20
16.945
 10
126.0
 20
16.95
 10
126.072
 20
16.945
 10
126.142
 20
16.931
 10
126.21
 20
16.908
 10
126.275
 20
16.876
 10
126.335
 20
16.836
 10
126.389
 20
16.789
 10
126.436
 20
16.735
 10
126.476
 20
16.675
 10
126.508
 20
16.61
 10
126.531
 20
16.542
 10
126.545
 20
16.472
 97
0
 75
0
 76
1
 98
0
  0
LWPOLYLINE
  5
7C
330
17
100
AcDbEntity
  8
CUT
100
AcDbPolyline
 90
52
 70
1
 10
149.96
 20
37.601
 10
149.963
 20
37.668
 10
149.972
 20
37.73
 10
149.987
 20
37.788
 10
150.009
 20
37.84
 10
150.037
 20
37.887
 10
150.072
 20
37.928
 10
150.113
 20
37.963
 10
150.16
 20
37.991
 10
150.212
 20
38.013
 10
150.27
 20
38.028
 10
150.332
 20
38.037
 10
150.399
 20
38.04
 10
162.441
 20
38.04
 10
162.508
 20
38.037
 10
162.57
 20
38.028
 10
162.628
 20
38.013
 10
162.68
 20
37.991
 10
162.727
 20
37.963
 10
162.768
 20
37.928
 10
162.803
 20
37.887
 10
162.831
 20
37.84
 10
162.853
 20
37.788
 10
162.868
 20
37.73
 10
162.877
 20
37.668
 10
162.88
 20
37.601
 10
162.88
 20
35.399
 10
162.877
 20
35.332
 10
162.868
 20
35.27
 10
162.853
 20
35.212
 10
162.831
 20
35.16
 10
162.803
 20
35.113
 10
162.768
 20
35.072
 10
162.727
 20
35.037
 10
162.68
 20
35.009
 10
162.628
 20
34.987
 10
162.57
 20
34.972
 10
162.508
 20
34.963
 10
162.441
 20
34.96
 10
150.399
 20
34.96
 10
150.332
 20
34.963
 10
150.27
 20
34.972
 10
150.212
 20
34.987
 10
150.16
 20
35.009
 10
150.113
 20
35.037
 10
150.072
 20
35.072
 10
150.037
 20
35.113
 10
150.009
 20
35.16
 10
149.987
 20
35.212
 10
149.972
 20
35.27
 10
149.963
 20
35.332
 10
149.96
 20
35.399
  0
LWPOLYLINE
  5
7D
330
17
100
AcDbEntity
  8
CUT
100
AcDbPolyline
 90
52
 70
1
 10
3.96
 20
6.601
 10
3.963
 20
6.668
 10
3.972
 20
6.73
 10
3.987
 20
6.788
 10
4.009
 20
6.84
 10
4.037
 20
6.887
 10
4.072
 20
6.928
 10
4.113
 20
6.963
 10
4.16
 20
6.991
 10
4.212
 20
7.013
 10
4.27
 20
7.028
 10
4.332
 20
7.037
 10
4.399
 20
7.04
 10
16.441
 20
7.04
 10
16.508
 20
7.037
 10
16.57
 20
7.028
 10
16.628
 20
7.013
 10
16.68
 20
6.991
 10
16.727
 20
6.963
 10
16.768
 20
6.928
 10
16.803
 20
6.887
 10
16.831
 20
6.84
 10
16.853
 20
6.788
 10
16.868
 20
6.73
 10
16.877
 20
6.668
 10
16.88
 20
6.601
 10
16.88
 20
4.399
 10
16.877
 20
4.332
 10
16.868
 20
4.27
 10
16.853
 20
4.212
 10
16.831
 20
4.16
 10
16.803
 20
4.113
 10
16.768
 20
4.072
 10
16.727
 20
4.037
 10
16.68
 20
4.009
 10
16.628
 20
3.987
 10
16.57
 20
3.972
 10
16.508
 20
3.963
 10
16.441
 20
3.96
 10
4.399
 20
3.96
 10
4.332
 20
3.963
 10
4.27
 20
3.972
 10
4.212
 20
3.987
 10
4.16
 20
4.009
 10
4.113
 20
4.037
 10
4.072
 20
4.072
 10
4.037
 20
4.113
 10
4.009
 20
4.16
 10
3.987
 20
4.212
 10
3.972
 20
4.27
 10
3.963
 20
4.332
 10
3.96
 20
4.399
  0
ENDSEC
  0
SECTION
  2
OBJECTS
  0
DICTIONARY
  5
A
330
0
100
AcDbDictionary
281
1
  3
ACAD_COLOR
350
B
  3
ACAD_GROUP
350
C
  3
ACAD_LAYOUT
350
D
  3
ACAD_MATERIAL
350
E
  3
ACAD_MLEADERSTYLE
350
F
  3
ACAD_MLINESTYLE
350
10
  3
ACAD_PLOTSETTINGS
350
11
  3
ACAD_PLOTSTYLENAME
350
12
  3
ACAD_SCALELIST
350
14
  3
ACAD_TABLESTYLE
350
15
  3
ACAD_VISUALSTYLE
350
16
  3
EZDXF_META
350
2D
  0
DICTIONARY
  5
B
330
A
100
AcDbDictionary
281
1
  0
DICTIONARY
  5
C
330
A
100
AcDbDictionary
281
1
  0
DICTIONARY
  5
D
330
A
100
AcDbDictionary
281
1
  3
Model
350
1A
  3
Layout1
350
1E
  0
DICTIONARY
  5
E
330
A
100
AcDbDictionary
281
1
  3
ByBlock
350
1F
  3
ByLayer
350
20
  3
Global
350
21
  0
DICTIONARY
  5
F
330
A
100
AcDbDictionary
281
1
  3
Standard
350
2C
  0
DICTIONARY
  5
10
330
A
100
AcDbDictionary
281
1
  3
Standard
350
22
  0
DICTIONARY
  5
11
330
A
100
AcDbDictionary
281
1
  0
ACDBDICTIONARYWDFLT
  5
12
330
A
100
AcDbDictionary
281
1
  3
Normal
350
13
100
AcDbDictionaryWithDefault
340
13
  0
ACDBPLACEHOLDER
  5
13
330
12
  0
DICTIONARY
  5
14
330
A
100
AcDbDictionary
281
1
  0
DICTIONARY
  5
15
330
A
100
AcDbDictionary
281
1
  0
DICTIONARY
  5
16
330
A
100
AcDbDictionary
281
1
  0
LAYOUT
  5
1A
330
D
100
AcDbPlotSettings
  1

  4
A3
  6

 40
7.5
 41
20.0
 42
7.5
 43
20.0
 44
420.0
 45
297.0
 46
0.0
 47
0.0
 48
0.0
 49
0.0
140
0.0
141
0.0
142
1.0
143
1.0
 70
1024
 72
1
 73
0
 74
5
  7

 75
16
 76
0
 77
2
 78
300
147
1.0
148
0.0
149
0.0
100
AcDbLayout
  1
Model
 70
1
 71
0
 10
0.0
 20
0.0
 11
420.0
 21
297.0
 12
0.0
 22
0.0
 32
0.0
 14
1e+20
 24
1e+20
 34
1e+20
 15
-1e+20
 25
-1e+20
 35
-1e+20
146
0.0
 13
0.0
 23
0.0
 33
0.0
 16
1.0
 26
0.0
 36
0.0
 17
0.0
 27
1.0
 37
0.0
 76
1
330
17
  0
LAYOUT
  5
1E
330
D
100
AcDbPlotSettings
  1

  4
A3
  6

 40
7.5
 41
20.0
 42
7.5
 43
20.0
 44
420.0
 45
297.0
 46
0.0
 47
0.0
 48
0.0
 49
0.0
140
0.0
141
0.0
142
1.0
143
1.0
 70
0
 72
1
 73
0
 74
5
  7

 75
16
 76
0
 77
2
 78
300
147
1.0
148
0.0
149
0.0
100
AcDbLayout
  1
Layout1
 70
1
 71
1
 10
0.0
 20
0.0
 11
420.0
 21
297.0
 12
0.0
 22
0.0
 32
0.0
 14
1e+20
 24
1e+20
 34
1e+20
 15
-1e+20
 25
-1e+20
 35
-1e+20
146
0.0
 13
0.0
 23
0.0
 33
0.0
 16
1.0
 26
0.0
 36
0.0
 17
0.0
 27
1.0
 37
0.0
 76
1
330
1B
  0
MATERIAL
  5
1F
102
{ACAD_REACTORS
330
E
102
}
330
E
100
AcDbMaterial
  1
ByBlock
  2

 70
0
 40
1.0
 71
1
 41
1.0
 91
-1023410177
 42
1.0
 72
1
  3

 73
1
 74
1
 75
1
 44
0.5
 73
0
 45
1.0
 46
1.0
 77
1
  4

 78
1
 79
1
170
1
 48
1.0
171
1
  6

172
1
173
1
174
1
140
1.0
141
1.0
175
1
  7

176
1
177
1
178
1
143
1.0
179
1
  8

270
1
271
1
272
1
145
1.0
146
1.0
273
1
  9

274
1
275
1
276
1
 42
1.0
 72
1
  3

 73
1
 74
1
 75
1
 94
63
  0
MATERIAL
  5
20
102
{ACAD_REACTORS
330
E
102
}
330
E
100
AcDbMaterial
  1
ByLayer
  2

 70
0
 40
1.0
 71
1
 41
1.0
 91
-1023410177
 42
1.0
 72
1
  3

 73
1
 74
1
 75
1
 44
0.5
 73
0
 45
1.0
 46
1.0
 77
1
  4

 78
1
 79
1
170
1
 48
1.0
171
1
  6

172
1
173
1
174
1
140
1.0
141
1.0
175
1
  7

176
1
177
1
178
1
143
1.0
179
1
  8

270
1
271
1
272
1
145
1.0
146
1.0
273
1
  9

274
1
275
1
276
1
 42
1.0
 72
1
  3

 73
1
 74
1
 75
1
 94
63
  0
MATERIAL
  5
21
102
{ACAD_REACTORS
330
E
102
}
330
E
100
AcDbMaterial
  1
Global
  2

 70
0
 40
1.0
 71
1
 41
1.0
 91
-1023410177
 42
1.0
 72
1
  3

 73
1
 74
1
 75
1
 44
0.5
 73
0
 45
1.0
 46
1.0
 77
1
  4

 78
1
 79
1
170
1
 48
1.0
171
1
  6

172
1
173
1
174
1
140
1.0
141
1.0
175
1
  7

176
1
177
1
178
1
143
1.0
179
1
  8

270
1
271
1
272
1
145
1.0
146
1.0
273
1
  9

274
1
275
1
276
1
 42
1.0
 72
1
  3

 73
1
 74
1
 75
1
 94
63
  0
MLINESTYLE
  5
22
102
{ACAD_REACTORS
330
10
102
}
330
10
100
AcDbMlineStyle
  2
Standard
 70
0
  3

 62
256
 51
90.0
 52
90.0
 71
2
 49
0.5
 62
256
  6
BYLAYER
 49
-0.5
 62
256
  6
BYLAYER
  0
MLEADERSTYLE
  5
2C
102
{ACAD_REACTORS
330
F
102
}
330
F
100
AcDbMLeaderStyle
179
2
170
2
171
1
172
0
 90
2
 40
0.0
 41
0.0
173
1
 91
-1056964608
 92
-2
290
1
 42
2.0
291
1
 43
8.0
  3
Standard
 44
4.0
300

342
29
174
1
175
1
176
0
178
1
 93
-1056964608
 45
4.0
292
0
297
0
 46
4.0
 94
-1056964608
 47
1.0
 49
1.0
140
1.0
294
1
141
0.0
177
0
142
1.0
295
0
296
0
143
3.75
271
0
272
9
273
9
  0
DICTIONARY
  5
2D
330
A
100
AcDbDictionary
280
1
281
1
  3
CREATED_BY_EZDXF
350
2E
  3
WRITTEN_BY_EZDXF
350
80
  0
DICTIONARYVAR
  5
2E
330
2D
100
DictionaryVariables
280
0
  1
1.4.2 @ 2026-09-13T17:18:22.924628+00:00
  0
DICTIONARYVAR
  5
80
330
2D
100
DictionaryVariables
280
0
  1
1.4.2 @ 2026-09-13T17:18:22.931973+00:00
  0
ENDSEC
  0
EOF
