  0
SECTION
  2
HEADER
  9
$ACADVER
  1
AC1015
  9
$ACADMAINTVER
 70
6
  9
$DWGCODEPAGE
  3
ANSI_1252
  9
$INSBASE
 10
0.0
 20
0.0
 30
0.0
  9
$EXTMIN
 10
1e+20
 20
1e+20
 30
1e+20
  9
$EXTMAX
 10
-1e+20
 20
-1e+20
 30
-1e+20
  9
$LIMMIN
 10
0.0
 20
0.0
  9
$LIMMAX
 10
420.0
 20
297.0
  9
$ORTHOMODE
 70
0
  9
$REGENMODE
 70
1
  9
$FILLMODE
 70
1
  9
$QTEXTMODE
 70
0
  9
$MIRRTEXT
 70
1
  9
$LTSCALE
 40
1.0
  9
$ATTMODE
 70
1
  9
$TEXTSIZE
 40
2.5
  9
$TRACEWID
 40
1.0
  9
$TEXTSTYLE
  7
Standard
  9
$CLAYER
  8
0
  9
$CELTYPE
  6
ByLayer
  9
$CECOLOR
 62
256
  9
$CELTSCALE
 40
1.0
  9
$DISPSILH
 70
0
  9
$DIMSCALE
 40
1.0
  9
$DIMASZ
 40
2.5
  9
$DIMEXO
 40
0.625
  9
$DIMDLI
 40
3.75
  9
$DIMRND
 40
0.0
  9
$DIMDLE
 40
0.0
  9
$DIMEXE
 40
1.25
  9
$DIMTP
 40
0.0
  9
$DIMTM
 40
0.0
  9
$DIMTXT
 40
2.5
  9
$DIMCEN
 40
2.5
  9
$DIMTSZ
 40
0.0
  9
$DIMTOL
 70
0
  9
$DIMLIM
 70
0
  9
$DIMTIH
 70
0
  9
$DIMTOH
 70
0
  9
$DIMSE1
 70
0
  9
$DIMSE2
 70
0
  9
$DIMTAD
 70
1
  9
$DIMZIN
 70
8
  9
$DIMBLK
  1

  9
$DIMASO
 70
1
  9
$DIMSHO
 70
1
  9
$DIMPOST
  1

  9
$DIMAPOST
  1

  9
$DIMALT
 70
0
  9
$DIMALTD
 70
3
  9
$DIMALTF
 40
0.03937007874
  9
$DIMLFAC
 40
1.0
  9
$DIMTOFL
 70
1
  9
$DIMTVP
 40
0.0
  9
$DIMTIX
 70
0
  9
$DIMSOXD
 70
0
  9
$DIMSAH
 70
0
  9
$DIMBLK1
  1

  9
$DIMBLK2
  1

  9
$DIMSTYLE
  2
ISO-25
  9
$DIMCLRD
 70
0
  9
$DIMCLRE
 70
0
  9
$DIMCLRT
 70
0
  9
$DIMTFAC
 40
1.0
  9
$DIMGAP
 40
0.625
  9
$DIMJUST
 70
0
  9
$DIMSD1
 70
0
  9
$DIMSD2
 70
0
  9
$DIMTOLJ
 70
0
  9
$DIMTZIN
 70
8
  9
$DIMALTZ
 70
0
  9
$DIMALTTZ
 70
0
  9
$DIMUPT
 70
0
  9
$DIMDEC
 70
2
  9
$DIMTDEC
 70
2
  9
$DIMALTU
 70
2
  9
$DIMALTTD
 70
3
  9
$DIMTXSTY
  7
Standard
  9
$DIMAUNIT
 70
0
  9
$DIMADEC
 70
0
  9
$DIMALTRND
 40
0.0
  9
$DIMAZIN
 70
0
  9
$DIMDSEP
 70
44
  9
$DIMATFIT
 70
3
  9
$DIMFRAC
 70
0
  9
$DIMLDRBLK
  1

  9
$DIMLUNIT
 70
2
  9
$DIMLWD
 70
-2
  9
$DIMLWE
 70
-2
  9
$DIMTMOVE
 70
0
  9
$LUNITS
 70
2
  9
$LUPREC
 70
4
  9
$SKETCHINC
 40
1.0
  9
$FILLETRAD
 40
10.0
  9
$AUNITS
 70
0
  9
$AUPREC
 70
2
  9
$MENU
  1
.
  9
$ELEVATION
 40
0.0
  9
$PELEVATION
 40
0.0
  9
$THICKNESS
 40
0.0
  9
$LIMCHECK
 70
0
  9
$CHAMFERA
 40
0.0
  9
$CHAMFERB
 40
0.0
  9
$CHAMFERC
 40
0.0
  9
$CHAMFERD
 40
0.0
  9
$SKPOLY
 70
0
  9
$TDCREATE
 40
2461294.7103125
  9
$TDUCREATE
 40
2458532.153996898
  9
$TDUPDATE
 40
2461294.7103125
  9
$TDUUPDATE
 40
2458532.1544311
  9
$TDINDWG
 40
0.0
  9
$TDUSRTIMER
 40
0.0
  9
$USRTIMER
 70
1
  9
$ANGBASE
 50
0.0
  9
$ANGDIR
 70
0
  9
$PDMODE
 70
0
  9
$PDSIZE
 40
0.0
  9
$PLINEWID
 40
0.0
  9
$SPLFRAME
 70
0
  9
$SPLINETYPE
 70
6
  9
$SPLINESEGS
 70
8
  9
$HANDSEED
  5
43
  9
$SURFTAB1
 70
6
  9
$SURFTAB2
 70
6
  9
$SURFTYPE
 70
6
  9
$SURFU
 70
6
  9
$SURFV
 70
6
  9
$UCSBASE
  2

  9
$UCSNAME
  2

  9
$UCSORG
 10
0.0
 20
0.0
 30
0.0
  9
$UCSXDIR
 10
1.0
 20
0.0
 30
0.0
  9
$UCSYDIR
 10
0.0
 20
1.0
 30
0.0
  9
$UCSORTHOREF
  2

  9
$UCSORTHOVIEW
 70
0
  9
$UCSORGTOP
 10
0.0
 20
0.0
 30
0.0
  9
$UCSORGBOTTOM
 10
0.0
 20
0.0
 30
0.0
  9
$UCSORGLEFT
 10
0.0
 20
0.0
 30
0.0
  9
$UCSORGRIGHT
 10
0.0
 20
0.0
 30
0.0
  9
$UCSORGFRONT
 10
0.0
 20
0.0
 30
0.0
  9
$UCSORGBACK
 10
0.0
 20
0.0
 30
0.0
  9
$PUCSBASE
  2

  9
$PUCSNAME
  2

  9
$PUCSORG
 10
0.0
 20
0.0
 30
0.0
  9
$PUCSXDIR
 10
1.0
 20
0.0
 30
0.0
  9
$PUCSYDIR
 10
0.0
 20
1.0
 30
0.0
  9
$PUCSORTHOREF
  2

  9
$PUCSORTHOVIEW
 70
0
  9
$PUCSORGTOP
 10
0.0
 20
0.0
 30
0.0
  9
$PUCSORGBOTTOM
 10
0.0
 20
0.0
 30
0.0
  9
$PUCSORGLEFT
 10
0.0
 20
0.0
 30
0.0
  9
$PUCSORGRIGHT
 10
0.0
 20
0.0
 30
0.0
  9
$PUCSORGFRONT
 10
0.0
 20
0.0
 30
0.0
  9
$PUCSORGBACK
 10
0.0
 20
0.0
 30
0.0
  9
$USERI1
 70
0
  9
$USERI2
 70
0
  9
$USERI3
 70
0
  9
$USERI4
 70
0
  9
$USERI5
 70
0
  9
$USERR1
 40
0.0
  9
$USERR2
 40
0.0
  9
$USERR3
 40
0.0
  9
$USERR4
 40
0.0
  9
$USERR5
 40
0.0
  9
$WORLDVIEW
 70
1
  9
$SHADEDGE
 70
3
  9
$SHADEDIF
 70
70
  9
$TILEMODE
 70
1
  9
$MAXACTVP
 70
64
  9
$PINSBASE
 10
0.0
 20
0.0
 30
0.0
  9
$PLIMCHECK
 70
0
  9
$PEXTMIN
 10
1e+20
 20
1e+20
 30
1e+20
  9
$PEXTMAX
 10
-1e+20
 20
-1e+20
 30
-1e+20
  9
$PLIMMIN
 10
0.0
 20
0.0
  9
$PLIMMAX
 10
420.0
 20
297.0
  9
$UNITMODE
 70
0
  9
$VISRETAIN
 70
1
  9
$PLINEGEN
 70
0
  9
$PSLTSCALE
 70
1
  9
$TREEDEPTH
 70
3020
  9
$CMLSTYLE
  2
Standard
  9
$CMLJUST
 70
0
  9
$CMLSCALE
 40
20.0
  9
$PROXYGRAPHICS
 70
1
  9
$MEASUREMENT
 70
1
  9
$CELWEIGHT
370
-1
  9
$ENDCAPS
280
0
  9
$JOINSTYLE
280
0
  9
$LWDISPLAY
290
0
  9
$INSUNITS
 70
4
  9
$HYPERLINKBASE
  1

  9
$STYLESHEET
  1

  9
$XEDIT
290
1
  9
$CEPSNTYPE
380
0
  9
$PSTYLEMODE
290
1
  9
$FINGERPRINTGUID
  2
{B6CACF37-7F77-45B0-9226-9077B53DB549}
  9
$VERSIONGUID
  2
{C035E01F-A176-4994-B109-4493027B9B0A}
  9
$EXTNAMES
290
1
  9
$PSVPSCALE
 40
0.0
  9
$OLESTARTUP
290
0
  0
ENDSEC
  0
SECTION
  2
CLASSES
  0
CLASS
  1
ACDBDICTIONARYWDFLT
  2
AcDbDictionaryWithDefault
  3
ObjectDBX Classes
 90
0
280
0
281
0
  0
CLASS
  1
SUN
  2
AcDbSun
  3
SCENEOE
 90
1153
280
0
281
0
  0
CLASS
  1
VISUALSTYLE
  2
AcDbVisualStyle
  3
ObjectDBX Classes
 90
4095
280
0
281
0
  0
CLASS
  1
MATERIAL
  2
AcDbMaterial
  3
ObjectDBX Classes
 90
1153
280
0
281
0
  0
CLASS
  1
SCALE
  2
AcDbScale
  3
ObjectDBX Classes
 90
1153
280
0
281
0
  0
CLASS
  1
TABLESTYLE
  2
AcDbTableStyle
  3
ObjectDBX Classes
 90
4095
280
0
281
0
  0
CLASS
  1
MLEADERSTYLE
  2
AcDbMLeaderStyle
  3
ACDB_MLEADERSTYLE_CLASS
 90
4095
280
0
281
0
  0
CLASS
  1
DICTIONARYVAR
  2
AcDbDictionaryVar
  3
ObjectDBX Classes
 90
0
280
0
281
0
  0
CLASS
  1
CELLSTYLEMAP
  2
AcDbCellStyleMap
  3
ObjectDBX Classes
 90
1152
280
0
281
0
  0
CLASS
  1
MENTALRAYRENDERSETTINGS
  2
AcDbMentalRayRenderSettings
  3
SCENEOE
 90
1024
280
0
281
0
  0
CLASS
  1
ACDBDETAILVIEWSTYLE
  2
AcDbDetailViewStyle
  3
ObjectDBX Classes
 90
1025
280
0
281
0
  0
CLASS
  1
ACDBSECTIONVIEWSTYLE
  2
AcDbSectionViewStyle
  3
ObjectDBX Classes
 90
1025
280
0
281
0
  0
CLASS
  1
RASTERVARIABLES
  2
AcDbRasterVariables
  3
ISM
 90
0
280
0
281
0
  0
CLASS
  1
ACDBPLACEHOLDER
  2
AcDbPlaceHolder
  3
ObjectDBX Classes
 90
0
280
0
281
0
  0
CLASS
  1
LAYOUT
  2
AcDbLayout
  3
ObjectDBX Classes
 90
0
280
0
281
0
  0
ENDSEC
  0
SECTION
  2
TABLES
  0
TABLE
  2
VPORT
  5
8
330
0
100
AcDbSymbolTable
 70
1
  0
VPORT
  5
23
330
8
100
AcDbSymbolTableRecord
100
AcDbViewportTableRecord
  2
*Active
 70
0
 10
0.0
 20
0.0
 11
1.0
 21
1.0
 12
0.0
 22
0.0
 13
0.0
 23
0.0
 14
0.5
 24
0.5
 15
0.5
 25
0.5
 16
0.0
 26
0.0
 36
1.0
 17
0.0
 27
0.0
 37
0.0
 40
1000.0
 41
1.34
 42
50.0
 43
0.0
 44
0.0
 50
0.0
 51
0.0
 71
0
 72
1000
 73
1
 74
3
 75
0
 76
0
 77
0
 78
0
281
0
 65
0
146
0.0
  0
ENDTAB
  0
TABLE
  2
LTYPE
  5
2
330
0
100
AcDbSymbolTable
 70
3
  0
LTYPE
  5
24
330
2
100
AcDbSymbolTableRecord
100
AcDbLinetypeTableRecord
  2
ByBlock
 70
0
  3

 72
65
 73
0
 40
0.0
  0
LTYPE
  5
25
330
2
100
AcDbSymbolTableRecord
100
AcDbLinetypeTableRecord
  2
ByLayer
 70
0
  3

 72
65
 73
0
 40
0.0
  0
LTYPE
  5
26
330
2
100
AcDbSymbolTableRecord
100
AcDbLinetypeTableRecord
  2
Continuous
 70
0
  3

 72
65
 73
0
 40
0.0
  0
ENDTAB
  0
TABLE
  2
LAYER
  5
1
330
0
100
AcDbSymbolTable
 70
4
  0
LAYER
  5
27
330
1
100
AcDbSymbolTableRecord
100
AcDbLayerTableRecord
  2
0
 70
0
 62
7
  6
Continuous
370
-3
390
13
  0
LAYER
  5
28
330
1
100
AcDbSymbolTableRecord
100
AcDbLayerTableRecord
  2
Defpoints
 70
0
 62
7
  6
Continuous
290
0
370
-3
390
13
  0
LAYER
  5
2F
330
1
100
AcDbSymbolTableRecord
100
AcDbLayerTableRecord
  2
CUT
 70
0
 62
1
  6
Continuous
370
-3
390
13
  0
LAYER
  5
30
330
1
100
AcDbSymbolTableRecord
100
AcDbLayerTableRecord
  2
RASTER
 70
0
 62
7
  6
Continuous
370
-3
390
13
  0
ENDTAB
  0
TABLE
  2
STYLE
  5
5
330
0
100
AcDbSymbolTable
 70
1
  0
STYLE
  5
29
330
5
100
AcDbSymbolTableRecord
100
AcDbTextStyleTableRecord
  2
Standard
 70
0
 40
0.0
 41
1.0
 50
0.0
 71
0
 42
2.5
  3
txt
  4

  0
ENDTAB
  0
TABLE
  2
VIEW
  5
7
330
0
100
AcDbSymbolTable
 70
0
  0
ENDTAB
  0
TABLE
  2
UCS
  5
6
330
0
100
AcDbSymbolTable
 70
0
  0
ENDTAB
  0
TABLE
  2
APPID
  5
3
330
0
100
AcDbSymbolTable
 70
3
  0
APPID
  5
2A
330
3
100
AcDbSymbolTableRecord
100
AcDbRegAppTableRecord
  2
ACAD
 70
0
  0
APPID
  5
40
330
3
100
AcDbSymbolTableRecord
100
AcDbRegAppTableRecord
  2
HATCHBACKGROUNDCOLOR
 70
0
  0
APPID
  5
41
330
3
100
AcDbSymbolTableRecord
100
AcDbRegAppTableRecord
  2
EZDXF
 70
0
  0
ENDTAB
  0
TABLE
  2
DIMSTYLE
  5
4
330
0
100
AcDbSymbolTable
 70
1
100
AcDbDimStyleTable
  0
DIMSTYLE
105
2B
330
4
100
AcDbSymbolTableRecord
100
AcDbDimStyleTableRecord
  2
Standard
 70
0
  3

  4

 40
1.0
 41
2.5
 42
0.625
 43
3.75
 44
1.25
 45
0.0
 46
0.0
 47
0.0
 48
0.0
140
2.5
141
2.5
142
0.0
143
0.03937007874
144
1.0
145
0.0
146
1.0
147
0.625
148
0.0
 71
0
 72
0
 73
0
 74
0
 75
0
 76
0
 77
1
 78
8
 79
3
170
0
171
3
172
1
173
0
174
0
175
0
176
0
177
0
178
0
179
2
271
2
272
2
273
2
274
3
275
0
276
0
277
2
278
44
279
0
280
0
281
0
282
0
283
0
284
8
285
0
286
0
288
0
289
3
371
-2
372
-2
  0
ENDTAB
  0
TABLE
  2
BLOCK_RECORD
  5
9
330
0
100
AcDbSymbolTable
 70
2
  0
BLOCK_RECORD
  5
17
330
9
100
AcDbSymbolTableRecord
100
AcDbBlockTableRecord
  2
*Model_Space
340
1A
  0
BLOCK_RECORD
  5
1B
330
9
100
AcDbSymbolTableRecord
100
AcDbBlockTableRecord
  2
*Paper_Space
340
1E
  0
ENDTAB
  0
ENDSEC
  0
SECTION
  2
BLOCKS
  0
BLOCK
  5
18
330
17
100
AcDbEntity
  8
0
100
AcDbBlockBegin
  2
*Model_Space
 70
0
 10
0.0
 20
0.0
 30
0.0
  3
*Model_Space
  1

  0
ENDBLK
  5
19
330
17
100
AcDbEntity
  8
0
100
AcDbBlockEnd
  0
BLOCK
  5
1C
330
1B
100
AcDbEntity
  8
0
100
AcDbBlockBegin
  2
*Paper_Space
 70
0
 10
0.0
 20
0.0
 30
0.0
  3
*Paper_Space
  1

  0
ENDBLK
  5
1D
330
1B
100
AcDbEntity
  8
0
100
AcDbBlockEnd
  0
ENDSEC
  0
SECTION
  2
ENTITIES
  0
LWPOLYLINE
  5
31
330
17
100
AcDbEntity
  8
CUT
100
AcDbPolyline
 90
436
 70
1
 10
53.162
 20
36.998
 10
53.24
 20
36.604
 10
53.24
 20
20.596
 10
53.162
 20
20.202
 10
52.936
 20
19.864
 10
52.598
 20
19.638
 10
52.204
 20
19.56
 10
50.696
 20
19.56
 10
50.302
 20
19.638
 10
49.964
 20
19.864
 10
49.738
 20
20.202
 10
49.66
 20
20.596
 10
49.66
 20
24.06
 10
48.732
 20
24.06
 10
48.943
 20
23.762
 10
49.041
 20
23.322
 10
48.96
 20
22.879
 10
48.714
 20
22.501
 10
48.342
 20
22.248
 10
47.9
 20
22.159
 10
47.458
 20
22.248
 10
47.086
 20
22.501
 10
46.84
 20
22.879
 10
46.759
 20
23.322
 10
46.857
 20
23.762
 10
47.068
 20
24.06
 10
43.332
 20
24.06
 10
43.543
 20
23.762
 10
43.641
 20
23.322
 10
43.56
 20
22.879
 10
43.314
 20
22.501
 10
42.942
 20
22.248
 10
42.5
 20
22.159
 10
42.058
 20
22.248
 10
41.686
 20
22.501
 10
41.44
 20
22.879
 10
41.359
 20
23.322
 10
41.457
 20
23.762
 10
41.668
 20
24.06
 10
40.74
 20
24.06
 10
40.74
 20
23.459
 10
40.74
 20
22.969
 10
40.74
 20
22.479
 10
40.743
 20
21.991
 10
40.766
 20
21.501
 10
40.778
 20
21.197
 10
40.791
 20
20.89
 10
40.78
 20
20.6
 10
40.764
 20
20.309
 10
40.722
 20
20.038
 10
40.674
 20
19.766
 10
40.599
 20
19.515
 10
40.519
 20
19.265
 10
40.314
 20
18.814
 10
40.067
 20
18.408
 10
39.785
 20
18.046
 10
39.471
 20
17.726
 10
39.124
 20
17.446
 10
38.742
 20
17.207
 10
38.325
 20
17.011
 10
37.871
 20
16.855
 10
37.628
 20
16.795
 10
37.386
 20
16.732
 10
37.125
 20
16.684
 10
36.865
 20
16.631
 10
36.586
 20
16.592
 10
36.306
 20
16.547
 10
36.005
 20
16.518
 10
35.703
 20
16.489
 10
35.212
 20
16.463
 10
34.721
 20
16.46
 10
34.231
 20
16.46
 10
33.741
 20
16.46
 10
33.14
 20
16.46
 10
33.14
 20
15.532
 10
33.438
 20
15.743
 10
33.878
 20
15.841
 10
34.321
 20
15.76
 10
34.699
 20
15.514
 10
34.952
 20
15.142
 10
35.041
 20
14.7
 10
34.952
 20
14.258
 10
34.699
 20
13.886
 10
34.321
 20
13.64
 10
33.878
 20
13.559
 10
33.438
 20
13.657
 10
33.14
 20
13.868
 10
33.14
 20
10.132
 10
33.438
 20
10.343
 10
33.878
 20
10.441
 10
34.321
 20
10.36
 10
34.699
 20
10.114
 10
34.952
 20
9.742
 10
35.041
 20
9.3
 10
34.952
 20
8.858
 10
34.699
 20
8.486
 10
34.321
 20
8.24
 10
33.878
 20
8.159
 10
33.438
 20
8.257
 10
33.14
 20
8.468
 10
33.14
 20
7.54
 10
36.604
 20
7.54
 10
36.998
 20
7.462
 10
37.336
 20
7.236
 10
37.562
 20
6.898
 10
37.64
 20
6.504
 10
37.64
 20
4.996
 10
37.562
 20
4.602
 10
37.336
 20
4.264
 10
36.998
 20
4.038
 10
36.604
 20
3.96
 10
20.596
 20
3.96
 10
20.202
 20
4.038
 10
19.864
 20
4.264
 10
19.638
 20
4.602
 10
19.56
 20
4.996
 10
19.56
 20
6.504
 10
19.638
 20
6.898
 10
19.864
 20
7.236
 10
20.202
 20
7.462
 10
20.596
 20
7.54
 10
24.06
 20
7.54
 10
24.06
 20
8.468
 10
23.762
 20
8.257
 10
23.322
 20
8.159
 10
22.879
 20
8.24
 10
22.501
 20
8.486
 10
22.248
 20
8.858
 10
22.159
 20
9.3
 10
22.248
 20
9.742
 10
22.501
 20
10.114
 10
22.879
 20
10.36
 10
23.322
 20
10.441
 10
23.762
 20
10.343
 10
24.06
 20
10.132
 10
24.06
 20
13.868
 10
23.762
 20
13.657
 10
23.322
 20
13.559
 10
22.879
 20
13.64
 10
22.501
 20
13.886
 10
22.248
 20
14.258
 10
22.159
 20
14.7
 10
22.248
 20
15.142
 10
22.501
 20
15.514
 10
22.879
 20
15.76
 10
23.322
 20
15.841
 10
23.762
 20
15.743
 10
24.06
 20
15.532
 10
24.06
 20
16.46
 10
23.459
 20
16.46
 10
22.969
 20
16.46
 10
22.48
 20
16.46
 10
21.991
 20
16.453
 10
21.5
 20
16.43
 10
21.195
 20
16.435
 10
20.889
 20
16.45
 10
20.603
 20
16.493
 10
20.32
 20
16.541
 10
20.058
 20
16.612
 10
19.799
 20
16.684
 10
19.562
 20
16.774
 10
19.327
 20
16.861
 10
18.895
 20
17.062
 10
18.502
 20
17.287
 10
18.146
 20
17.54
 10
17.828
 20
17.828
 10
17.532
 20
18.139
 10
17.273
 20
18.494
 10
17.049
 20
18.889
 10
16.853
 20
19.325
 10
16.771
 20
19.561
 10
16.686
 20
19.8
 10
16.618
 20
20.06
 10
16.55
 20
20.321
 10
16.503
 20
20.604
 10
16.461
 20
20.889
 10
16.444
 20
21.195
 10
16.435
 20
21.5
 10
16.454
 20
21.991
 10
16.46
 20
22.48
 10
16.46
 20
22.969
 10
16.46
 20
23.459
 10
16.46
 20
24.06
 10
15.532
 20
24.06
 10
15.743
 20
23.762
 10
15.841
 20
23.322
 10
15.76
 20
22.879
 10
15.514
 20
22.501
 10
15.142
 20
22.248
 10
14.7
 20
22.159
 10
14.258
 20
22.248
 10
13.886
 20
22.501
 10
13.64
 20
22.879
 10
13.559
 20
23.322
 10
13.657
 20
23.762
 10
13.868
 20
24.06
 10
10.132
 20
24.06
 10
10.343
 20
23.762
 10
10.441
 20
23.322
 10
10.36
 20
22.879
 10
10.114
 20
22.501
 10
9.742
 20
22.248
 10
9.3
 20
22.159
 10
8.858
 20
22.248
 10
8.486
 20
22.501
 10
8.24
 20
22.879
 10
8.159
 20
23.322
 10
8.257
 20
23.762
 10
8.468
 20
24.06
 10
7.54
 20
24.06
 10
7.54
 20
20.596
 10
7.462
 20
20.202
 10
7.236
 20
19.864
 10
6.898
 20
19.638
 10
6.504
 20
19.56
 10
4.996
 20
19.56
 10
4.602
 20
19.638
 10
4.264
 20
19.864
 10
4.038
 20
20.202
 10
3.96
 20
20.596
 10
3.96
 20
36.604
 10
4.038
 20
36.998
 10
4.264
 20
37.336
 10
4.602
 20
37.562
 10
4.996
 20
37.64
 10
6.504
 20
37.64
 10
6.898
 20
37.562
 10
7.236
 20
37.336
 10
7.462
 20
36.998
 10
7.54
 20
36.604
 10
7.54
 20
33.14
 10
8.468
 20
33.14
 10
8.257
 20
33.438
 10
8.159
 20
33.878
 10
8.24
 20
34.321
 10
8.486
 20
34.699
 10
8.858
 20
34.952
 10
9.3
 20
35.041
 10
9.742
 20
34.952
 10
10.114
 20
34.699
 10
10.36
 20
34.321
 10
10.441
 20
33.878
 10
10.343
 20
33.438
 10
10.132
 20
33.14
 10
13.868
 20
33.14
 10
13.657
 20
33.438
 10
13.559
 20
33.878
 10
13.64
 20
34.321
 10
13.886
 20
34.699
 10
14.258
 20
34.952
 10
14.7
 20
35.041
 10
15.142
 20
34.952
 10
15.514
 20
34.699
 10
15.76
 20
34.321
 10
15.841
 20
33.878
 10
15.743
 20
33.438
 10
15.532
 20
33.14
 10
16.46
 20
33.14
 10
16.46
 20
33.741
 10
16.46
 20
34.231
 10
16.46
 20
34.721
 10
16.463
 20
35.211
 10
16.486
 20
35.703
 10
16.518
 20
36.005
 10
16.55
 20
36.306
 10
16.598
 20
36.586
 10
16.641
 20
36.865
 10
16.697
 20
37.123
 10
16.747
 20
37.383
 10
16.81
 20
37.624
 10
16.868
 20
37.865
 10
17.018
 20
38.321
 10
17.205
 20
38.743
 10
17.436
 20
39.131
 10
17.714
 20
39.483
 10
18.039
 20
39.796
 10
18.407
 20
40.07
 10
18.818
 20
40.307
 10
19.27
 20
40.505
 10
19.52
 20
40.584
 10
19.769
 20
40.658
 10
20.04
 20
40.709
 10
20.31
 20
40.754
 10
20.6
 20
40.773
 10
20.89
 20
40.788
 10
21.197
 20
40.779
 10
21.501
 20
40.768
 10
21.991
 20
40.743
 10
22.479
 20
40.74
 10
22.969
 20
40.74
 10
23.459
 20
40.74
 10
24.06
 20
40.74
 10
24.06
 20
41.668
 10
23.762
 20
41.457
 10
23.322
 20
41.359
 10
22.879
 20
41.44
 10
22.501
 20
41.686
 10
22.248
 20
42.058
 10
22.159
 20
42.5
 10
22.248
 20
42.942
 10
22.501
 20
43.314
 10
22.879
 20
43.56
 10
23.322
 20
43.641
 10
23.762
 20
43.543
 10
24.06
 20
43.332
 10
24.06
 20
47.068
 10
23.762
 20
46.857
 10
23.322
 20
46.759
 10
22.879
 20
46.84
 10
22.501
 20
47.086
 10
22.248
 20
47.458
 10
22.159
 20
47.9
 10
22.248
 20
48.342
 10
22.501
 20
48.714
 10
22.879
 20
48.96
 10
23.322
 20
49.041
 10
23.762
 20
48.943
 10
24.06
 20
48.732
 10
24.06
 20
49.66
 10
20.596
 20
49.66
 10
20.202
 20
49.738
 10
19.864
 20
49.964
 10
19.638
 20
50.302
 10
19.56
 20
50.696
 10
19.56
 20
52.204
 10
19.638
 20
52.598
 10
19.864
 20
52.936
 10
20.202
 20
53.162
 10
20.596
 20
53.24
 10
36.604
 20
53.24
 10
36.998
 20
53.162
 10
37.336
 20
52.936
 10
37.562
 20
52.598
 10
37.64
 20
52.204
 10
37.64
 20
50.696
 10
37.562
 20
50.302
 10
37.336
 20
49.964
 10
36.998
 20
49.738
 10
36.604
 20
49.66
 10
33.14
 20
49.66
 10
33.14
 20
48.732
 10
33.438
 20
48.943
 10
33.878
 20
49.041
 10
34.321
 20
48.96
 10
34.699
 20
48.714
 10
34.952
 20
48.342
 10
35.041
 20
47.9
 10
34.952
 20
47.458
 10
34.699
 20
47.086
 10
34.321
 20
46.84
 10
33.878
 20
46.759
 10
33.438
 20
46.857
 10
33.14
 20
47.068
 10
33.14
 20
43.332
 10
33.438
 20
43.543
 10
33.878
 20
43.641
 10
34.321
 20
43.56
 10
34.699
 20
43.314
 10
34.952
 20
42.942
 10
35.041
 20
42.5
 10
34.952
 20
42.058
 10
34.699
 20
41.686
 10
34.321
 20
41.44
 10
33.878
 20
41.359
 10
33.438
 20
41.457
 10
33.14
 20
41.668
 10
33.14
 20
40.74
 10
33.741
 20
40.74
 10
34.231
 20
40.74
 10
34.721
 20
40.74
 10
35.212
 20
40.733
 10
35.701
 20
40.71
 10
36.003
 20
40.696
 10
36.305
 20
40.691
 10
36.589
 20
40.675
 10
36.875
 20
40.664
 10
37.144
 20
40.637
 10
37.416
 20
40.611
 10
37.67
 20
40.563
 10
37.928
 20
40.512
 10
38.401
 20
40.359
 10
38.837
 20
40.15
 10
39.231
 20
39.89
 10
39.585
 20
39.584
 10
39.881
 20
39.224
 10
40.136
 20
38.829
 10
40.345
 20
38.396
 10
40.504
 20
37.926
 10
40.56
 20
37.67
 10
40.612
 20
37.417
 10
40.643
 20
37.146
 10
40.673
 20
36.877
 10
40.685
 20
36.59
 10
40.701
 20
36.306
 10
40.704
 20
36.003
 10
40.715
 20
35.701
 10
40.733
 20
35.211
 10
40.74
 20
34.721
 10
40.74
 20
34.231
 10
40.74
 20
33.741
 10
40.74
 20
33.14
 10
41.668
 20
33.14
 10
41.457
 20
33.438
 10
41.359
 20
33.878
 10
41.44
 20
34.321
 10
41.686
 20
34.699
 10
42.058
 20
34.952
 10
42.5
 20
35.041
 10
42.942
 20
34.952
 10
43.314
 20
34.699
 10
43.56
 20
34.321
 10
43.641
 20
33.878
 10
43.543
 20
33.438
 10
43.332
 20
33.14
 10
47.068
 20
33.14
 10
46.857
 20
33.438
 10
46.759
 20
33.878
 10
46.84
 20
34.321
 10
47.086
 20
34.699
 10
47.458
 20
34.952
 10
47.9
 20
35.041
 10
48.342
 20
34.952
 10
48.714
 20
34.699
 10
48.96
 20
34.321
 10
49.041
 20
33.878
 10
48.943
 20
33.438
 10
48.732
 20
33.14
 10
49.66
 20
33.14
 10
49.66
 20
36.604
 10
49.738
 20
36.998
 10
49.964
 20
37.336
 10
50.302
 20
37.562
 10
50.696
 20
37.64
 10
52.204
 20
37.64
 10
52.598
 20
37.562
 10
52.936
 20
37.336
  0
HATCH
  5
32
330
17
100
AcDbEntity
  8
RASTER
 62
7
100
AcDbHatch
 10
0.0
 20
0.0
 30
0.0
210
0.0
220
0.0
230
1.0
  2
SOLID
 70
1
 71
0
 91
1
 92
3
 72
0
 73
1
 93
26
 10
19.126
 20
34.278
 10
19.204
 20
34.813
 10
19.362
 20
35.279
 10
19.582
 20
35.703
 10
19.843
 20
36.084
 10
20.133
 20
36.425
 10
20.445
 20
36.73
 10
20.78
 20
37.0
 10
21.141
 20
37.233
 10
21.533
 20
37.423
 10
21.959
 20
37.558
 10
22.421
 20
37.628
 10
22.94
 20
37.624
 10
22.944
 20
38.224
 10
22.379
 20
38.227
 10
21.824
 20
38.143
 10
21.312
 20
37.981
 10
20.848
 20
37.757
 10
20.428
 20
37.486
 10
20.047
 20
37.178
 10
19.694
 20
36.834
 10
19.366
 20
36.448
 10
19.067
 20
36.01
 10
18.81
 20
35.513
 10
18.621
 20
34.953
 10
18.533
 20
34.365
 97
0
 75
0
 76
1
 98
0
  0
HATCH
  5
33
330
17
100
AcDbEntity
  8
RASTER
 62
7
100
AcDbHatch
 10
0.0
 20
0.0
 30
0.0
210
0.0
220
0.0
230
1.0
  2
SOLID
 70
1
 71
0
 91
1
 92
3
 72
0
 73
1
 93
26
 10
34.139
 20
37.662
 10
34.618
 20
37.451
 10
35.027
 20
37.218
 10
35.395
 20
36.977
 10
35.737
 20
36.745
 10
36.066
 20
36.524
 10
36.394
 20
36.31
 10
36.727
 20
36.087
 10
37.061
 20
35.833
 10
37.386
 20
35.53
 10
37.682
 20
35.167
 10
37.922
 20
34.741
 10
38.091
 20
34.228
 10
38.66
 20
34.417
 10
38.471
 20
34.983
 10
38.178
 20
35.503
 10
37.825
 20
35.938
 10
37.449
 20
36.29
 10
37.077
 20
36.574
 10
36.726
 20
36.81
 10
36.397
 20
37.025
 10
36.073
 20
37.242
 10
35.728
 20
37.477
 10
35.339
 20
37.73
 10
34.886
 20
37.988
 10
34.381
 20
38.211
 97
0
 75
0
 76
1
 98
0
  0
HATCH
  5
34
330
17
100
AcDbEntity
  8
RASTER
 62
7
100
AcDbHatch
 10
0.0
 20
0.0
 30
0.0
210
0.0
220
0.0
230
1.0
  2
SOLID
 70
1
 71
0
 91
1
 92
3
 72
0
 73
1
 93
26
 10
38.074
 20
22.922
 10
37.996
 20
22.387
 10
37.838
 20
21.921
 10
37.618
 20
21.497
 10
37.357
 20
21.116
 10
37.067
 20
20.775
 10
36.755
 20
20.47
 10
36.42
 20
20.2
 10
36.059
 20
19.967
 10
35.667
 20
19.777
 10
35.241
 20
19.642
 10
34.779
 20
19.572
 10
34.26
 20
19.576
 10
34.256
 20
18.976
 10
34.821
 20
18.973
 10
35.376
 20
19.057
 10
35.888
 20
19.219
 10
36.352
 20
19.443
 10
36.772
 20
19.714
 10
37.153
 20
20.022
 10
37.506
 20
20.366
 10
37.834
 20
20.752
 10
38.133
 20
21.19
 10
38.39
 20
21.687
 10
38.579
 20
22.247
 10
38.667
 20
22.835
 97
0
 75
0
 76
1
 98
0
  0
HATCH
  5
35
330
17
100
AcDbEntity
  8
RASTER
 62
7
100
AcDbHatch
 10
0.0
 20
0.0
 30
0.0
210
0.0
220
0.0
230
1.0
  2
SOLID
 70
1
 71
0
 91
1
 92
3
 72
0
 73
1
 93
26
 10
23.061
 20
19.538
 10
22.582
 20
19.749
 10
22.173
 20
19.982
 10
21.805
 20
20.223
 10
21.463
 20
20.455
 10
21.134
 20
20.676
 10
20.806
 20
20.89
 10
20.473
 20
21.113
 10
20.139
 20
21.367
 10
19.814
 20
21.67
 10
19.518
 20
22.033
 10
19.278
 20
22.459
 10
19.109
 20
22.972
 10
18.54
 20
22.783
 10
18.729
 20
22.217
 10
19.022
 20
21.697
 10
19.375
 20
21.262
 10
19.751
 20
20.91
 10
20.123
 20
20.626
 10
20.474
 20
20.39
 10
20.803
 20
20.175
 10
21.127
 20
19.958
 10
21.472
 20
19.723
 10
21.861
 20
19.47
 10
22.314
 20
19.212
 10
22.819
 20
18.989
 97
0
 75
0
 76
1
 98
0
  0
HATCH
  5
36
330
17
100
AcDbEntity
  8
RASTER
 62
7
100
AcDbHatch
 10
0.0
 20
0.0
 30
0.0
210
0.0
220
0.0
230
1.0
  2
SOLID
 70
1
 71
0
 91
6
 92
3
 72
0
 73
1
 93
4
 10
24.1
 20
38.1
 10
33.1
 20
38.1
 10
33.1
 20
49.4
 10
24.1
 20
49.4
 97
0
 92
2
 72
0
 73
1
 93
5
 10
24.6
 20
39.8
 10
24.6
 20
40.2
 10
32.6
 20
40.2
 10
32.6
 20
39.8
 10
24.6
 20
39.8
 97
0
 92
2
 72
0
 73
1
 93
5
 10
24.6
 20
41.7
 10
24.6
 20
42.1
 10
32.6
 20
42.1
 10
32.6
 20
41.7
 10
24.6
 20
41.7
 97
0
 92
2
 72
0
 73
1
 93
5
 10
24.6
 20
43.6
 10
24.6
 20
44.0
 10
32.6
 20
44.0
 10
32.6
 20
43.6
 10
24.6
 20
43.6
 97
0
 92
2
 72
0
 73
1
 93
5
 10
24.6
 20
45.5
 10
24.6
 20
45.9
 10
32.6
 20
45.9
 10
32.6
 20
45.5
 10
24.6
 20
45.5
 97
0
 92
2
 72
0
 73
1
 93
5
 10
24.6
 20
47.4
 10
24.6
 20
47.8
 10
32.6
 20
47.8
 10
32.6
 20
47.4
 10
24.6
 20
47.4
 97
0
 75
0
 76
1
 98
0
  0
HATCH
  5
37
330
17
100
AcDbEntity
  8
RASTER
 62
7
100
AcDbHatch
 10
0.0
 20
0.0
 30
0.0
210
0.0
220
0.0
230
1.0
  2
SOLID
 70
1
 71
0
 91
8
 92
3
 72
0
 73
1
 93
4
 10
20.2
 20
50.0
 10
37.0
 20
50.0
 10
37.0
 20
52.6
 10
20.2
 20
52.6
 97
0
 92
2
 72
0
 73
1
 93
5
 10
22.7
 20
50.0
 10
22.7
 20
52.6
 10
23.1
 20
52.6
 10
23.1
 20
50.0
 10
22.7
 20
50.0
 97
0
 92
2
 72
0
 73
1
 93
5
 10
24.6
 20
50.0
 10
24.6
 20
52.6
 10
25.0
 20
52.6
 10
25.0
 20
50.0
 10
24.6
 20
50.0
 97
0
 92
2
 72
0
 73
1
 93
5
 10
26.5
 20
50.0
 10
26.5
 20
52.6
 10
26.9
 20
52.6
 10
26.9
 20
50.0
 10
26.5
 20
50.0
 97
0
 92
2
 72
0
 73
1
 93
5
 10
28.4
 20
50.0
 10
28.4
 20
52.6
 10
28.8
 20
52.6
 10
28.8
 20
50.0
 10
28.4
 20
50.0
 97
0
 92
2
 72
0
 73
1
 93
5
 10
30.3
 20
50.0
 10
30.3
 20
52.6
 10
30.7
 20
52.6
 10
30.7
 20
50.0
 10
30.3
 20
50.0
 97
0
 92
2
 72
0
 73
1
 93
5
 10
32.2
 20
50.0
 10
32.2
 20
52.6
 10
32.6
 20
52.6
 10
32.6
 20
50.0
 10
32.2
 20
50.0
 97
0
 92
2
 72
0
 73
1
 93
5
 10
34.1
 20
50.0
 10
34.1
 20
52.6
 10
34.5
 20
52.6
 10
34.5
 20
50.0
 10
34.1
 20
50.0
 97
0
 75
0
 76
1
 98
0
  0
HATCH
  5
38
330
17
100
AcDbEntity
  8
RASTER
 62
7
100
AcDbHatch
 10
0.0
 20
0.0
 30
0.0
210
0.0
220
0.0
230
1.0
  2
SOLID
 70
1
 71
0
 91
6
 92
3
 72
0
 73
1
 93
4
 10
38.1
 20
33.1
 10
38.1
 20
24.1
 10
49.4
 20
24.1
 10
49.4
 20
33.1
 97
0
 92
2
 72
0
 73
1
 93
5
 10
39.8
 20
32.6
 10
40.2
 20
32.6
 10
40.2
 20
24.6
 10
39.8
 20
24.6
 10
39.8
 20
32.6
 97
0
 92
2
 72
0
 73
1
 93
5
 10
41.7
 20
32.6
 10
42.1
 20
32.6
 10
42.1
 20
24.6
 10
41.7
 20
24.6
 10
41.7
 20
32.6
 97
0
 92
2
 72
0
 73
1
 93
5
 10
43.6
 20
32.6
 10
44.0
 20
32.6
 10
44.0
 20
24.6
 10
43.6
 20
24.6
 10
43.6
 20
32.6
 97
0
 92
2
 72
0
 73
1
 93
5
 10
45.5
 20
32.6
 10
45.9
 20
32.6
 10
45.9
 20
24.6
 10
45.5
 20
24.6
 10
45.5
 20
32.6
 97
0
 92
2
 72
0
 73
1
 93
5
 10
47.4
 20
32.6
 10
47.8
 20
32.6
 10
47.8
 20
24.6
 10
47.4
 20
24.6
 10
47.4
 20
32.6
 97
0
 75
0
 76
1
 98
0
  0
HATCH
  5
39
330
17
100
AcDbEntity
  8
RASTER
 62
7
100
AcDbHatch
 10
0.0
 20
0.0
 30
0.0
210
0.0
220
0.0
230
1.0
  2
SOLID
 70
1
 71
0
 91
8
 92
3
 72
0
 73
1
 93
4
 10
50.0
 20
37.0
 10
50.0
 20
20.2
 10
52.6
 20
20.2
 10
52.6
 20
37.0
 97
0
 92
2
 72
0
 73
1
 93
5
 10
50.0
 20
34.5
 10
52.6
 20
34.5
 10
52.6
 20
34.1
 10
50.0
 20
34.1
 10
50.0
 20
34.5
 97
0
 92
2
 72
0
 73
1
 93
5
 10
50.0
 20
32.6
 10
52.6
 20
32.6
 10
52.6
 20
32.2
 10
50.0
 20
32.2
 10
50.0
 20
32.6
 97
0
 92
2
 72
0
 73
1
 93
5
 10
50.0
 20
30.7
 10
52.6
 20
30.7
 10
52.6
 20
30.3
 10
50.0
 20
30.3
 10
50.0
 20
30.7
 97
0
 92
2
 72
0
 73
1
 93
5
 10
50.0
 20
28.8
 10
52.6
 20
28.8
 10
52.6
 20
28.4
 10
50.0
 20
28.4
 10
50.0
 20
28.8
 97
0
 92
2
 72
0
 73
1
 93
5
 10
50.0
 20
26.9
 10
52.6
 20
26.9
 10
52.6
 20
26.5
 10
50.0
 20
26.5
 10
50.0
 20
26.9
 97
0
 92
2
 72
0
 73
1
 93
5
 10
50.0
 20
25.0
 10
52.6
 20
25.0
 10
52.6
 20
24.6
 10
50.0
 20
24.6
 10
50.0
 20
25.0
 97
0
 92
2
 72
0
 73
1
 93
5
 10
50.0
 20
23.1
 10
52.6
 20
23.1
 10
52.6
 20
22.7
 10
50.0
 20
22.7
 10
50.0
 20
23.1
 97
0
 75
0
 76
1
 98
0
  0
HATCH
  5
3A
330
17
100
AcDbEntity
  8
RASTER
 62
7
100
AcDbHatch
 10
0.0
 20
0.0
 30
0.0
210
0.0
220
0.0
230
1.0
  2
SOLID
 70
1
 71
0
 91
6
 92
3
 72
0
 73
1
 93
4
 10
33.1
 20
19.1
 10
24.1
 20
19.1
 10
24.1
 20
7.8
 10
33.1
 20
7.8
 97
0
 92
2
 72
0
 73
1
 93
5
 10
32.6
 20
17.4
 10
32.6
 20
17.0
 10
24.6
 20
17.0
 10
24.6
 20
17.4
 10
32.6
 20
17.4
 97
0
 92
2
 72
0
 73
1
 93
5
 10
32.6
 20
15.5
 10
32.6
 20
15.1
 10
24.6
 20
15.1
 10
24.6
 20
15.5
 10
32.6
 20
15.5
 97
0
 92
2
 72
0
 73
1
 93
5
 10
32.6
 20
13.6
 10
32.6
 20
13.2
 10
24.6
 20
13.2
 10
24.6
 20
13.6
 10
32.6
 20
13.6
 97
0
 92
2
 72
0
 73
1
 93
5
 10
32.6
 20
11.7
 10
32.6
 20
11.3
 10
24.6
 20
11.3
 10
24.6
 20
11.7
 10
32.6
 20
11.7
 97
0
 92
2
 72
0
 73
1
 93
5
 10
32.6
 20
9.8
 10
32.6
 20
9.4
 10
24.6
 20
9.4
 10
24.6
 20
9.8
 10
32.6
 20
9.8
 97
0
 75
0
 76
1
 98
0
  0
HATCH
  5
3B
330
17
100
AcDbEntity
  8
RASTER
 62
7
100
AcDbHatch
 10
0.0
 20
0.0
 30
0.0
210
0.0
220
0.0
230
1.0
  2
SOLID
 70
1
 71
0
 91
8
 92
3
 72
0
 73
1
 93
4
 10
37.0
 20
7.2
 10
20.2
 20
7.2
 10
20.2
 20
4.6
 10
37.0
 20
4.6
 97
0
 92
2
 72
0
 73
1
 93
5
 10
34.5
 20
7.2
 10
34.5
 20
4.6
 10
34.1
 20
4.6
 10
34.1
 20
7.2
 10
34.5
 20
7.2
 97
0
 92
2
 72
0
 73
1
 93
5
 10
32.6
 20
7.2
 10
32.6
 20
4.6
 10
32.2
 20
4.6
 10
32.2
 20
7.2
 10
32.6
 20
7.2
 97
0
 92
2
 72
0
 73
1
 93
5
 10
30.7
 20
7.2
 10
30.7
 20
4.6
 10
30.3
 20
4.6
 10
30.3
 20
7.2
 10
30.7
 20
7.2
 97
0
 92
2
 72
0
 73
1
 93
5
 10
28.8
 20
7.2
 10
28.8
 20
4.6
 10
28.4
 20
4.6
 10
28.4
 20
7.2
 10
28.8
 20
7.2
 97
0
 92
2
 72
0
 73
1
 93
5
 10
26.9
 20
7.2
 10
26.9
 20
4.6
 10
26.5
 20
4.6
 10
26.5
 20
7.2
 10
26.9
 20
7.2
 97
0
 92
2
 72
0
 73
1
 93
5
 10
25.0
 20
7.2
 10
25.0
 20
4.6
 10
24.6
 20
4.6
 10
24.6
 20
7.2
 10
25.0
 20
7.2
 97
0
 92
2
 72
0
 73
1
 93
5
 10
23.1
 20
7.2
 10
23.1
 20
4.6
 10
22.7
 20
4.6
 10
22.7
 20
7.2
 10
23.1
 20
7.2
 97
0
 75
0
 76
1
 98
0
  0
HATCH
  5
3C
330
17
100
AcDbEntity
  8
RASTER
 62
7
100
AcDbHatch
 10
0.0
 20
0.0
 30
0.0
210
0.0
220
0.0
230
1.0
  2
SOLID
 70
1
 71
0
 91
6
 92
3
 72
0
 73
1
 93
4
 10
19.1
 20
24.1
 10
19.1
 20
33.1
 10
7.8
 20
33.1
 10
7.8
 20
24.1
 97
0
 92
2
 72
0
 73
1
 93
5
 10
17.4
 20
24.6
 10
17.0
 20
24.6
 10
17.0
 20
32.6
 10
17.4
 20
32.6
 10
17.4
 20
24.6
 97
0
 92
2
 72
0
 73
1
 93
5
 10
15.5
 20
24.6
 10
15.1
 20
24.6
 10
15.1
 20
32.6
 10
15.5
 20
32.6
 10
15.5
 20
24.6
 97
0
 92
2
 72
0
 73
1
 93
5
 10
13.6
 20
24.6
 10
13.2
 20
24.6
 10
13.2
 20
32.6
 10
13.6
 20
32.6
 10
13.6
 20
24.6
 97
0
 92
2
 72
0
 73
1
 93
5
 10
11.7
 20
24.6
 10
11.3
 20
24.6
 10
11.3
 20
32.6
 10
11.7
 20
32.6
 10
11.7
 20
24.6
 97
0
 92
2
 72
0
 73
1
 93
5
 10
9.8
 20
24.6
 10
9.4
 20
24.6
 10
9.4
 20
32.6
 10
9.8
 20
32.6
 10
9.8
 20
24.6
 97
0
 75
0
 76
1
 98
0
  0
HATCH
  5
3D
330
17
100
AcDbEntity
  8
RASTER
 62
7
100
AcDbHatch
 10
0.0
 20
0.0
 30
0.0
210
0.0
220
0.0
230
1.0
  2
SOLID
 70
1
 71
0
 91
8
 92
3
 72
0
 73
1
 93
4
 10
7.2
 20
20.2
 10
7.2
 20
37.0
 10
4.6
 20
37.0
 10
4.6
 20
20.2
 97
0
 92
2
 72
0
 73
1
 93
5
 10
7.2
 20
22.7
 10
4.6
 20
22.7
 10
4.6
 20
23.1
 10
7.2
 20
23.1
 10
7.2
 20
22.7
 97
0
 92
2
 72
0
 73
1
 93
5
 10
7.2
 20
24.6
 10
4.6
 20
24.6
 10
4.6
 20
25.0
 10
7.2
 20
25.0
 10
7.2
 20
24.6
 97
0
 92
2
 72
0
 73
1
 93
5
 10
7.2
 20
26.5
 10
4.6
 20
26.5
 10
4.6
 20
26.9
 10
7.2
 20
26.9
 10
7.2
 20
26.5
 97
0
 92
2
 72
0
 73
1
 93
5
 10
7.2
 20
28.4
 10
4.6
 20
28.4
 10
4.6
 20
28.8
 10
7.2
 20
28.8
 10
7.2
 20
28.4
 97
0
 92
2
 72
0
 73
1
 93
5
 10
7.2
 20
30.3
 10
4.6
 20
30.3
 10
4.6
 20
30.7
 10
7.2
 20
30.7
 10
7.2
 20
30.3
 97
0
 92
2
 72
0
 73
1
 93
5
 10
7.2
 20
32.2
 10
4.6
 20
32.2
 10
4.6
 20
32.6
 10
7.2
 20
32.6
 10
7.2
 20
32.2
 97
0
 92
2
 72
0
 73
1
 93
5
 10
7.2
 20
34.1
 10
4.6
 20
34.1
 10
4.6
 20
34.5
 10
7.2
 20
34.5
 10
7.2
 20
34.1
 97
0
 75
0
 76
1
 98
0
  0
HATCH
  5
3E
330
17
100
AcDbEntity
  8
RASTER
 62
7
100
AcDbHatch
 10
0.0
 20
0.0
 30
0.0
210
0.0
220
0.0
230
1.0
  2
SOLID
 70
1
 71
0
 91
2
 92
3
 72
0
 73
1
 93
48
 10
29.545
 20
32.38
 10
29.537
 20
32.257
 10
29.513
 20
32.135
 10
29.473
 20
32.018
 10
29.418
 20
31.908
 10
29.35
 20
31.805
 10
29.268
 20
31.712
 10
29.175
 20
31.63
 10
29.073
 20
31.562
 10
28.962
 20
31.507
 10
28.845
 20
31.467
 10
28.723
 20
31.443
 10
28.6
 20
31.435
 10
28.477
 20
31.443
 10
28.355
 20
31.467
 10
28.238
 20
31.507
 10
28.128
 20
31.562
 10
28.025
 20
31.63
 10
27.932
 20
31.712
 10
27.85
 20
31.805
 10
27.782
 20
31.908
 10
27.727
 20
32.018
 10
27.687
 20
32.135
 10
27.663
 20
32.257
 10
27.655
 20
32.38
 10
27.663
 20
32.503
 10
27.687
 20
32.625
 10
27.727
 20
32.742
 10
27.782
 20
32.853
 10
27.85
 20
32.955
 10
27.932
 20
33.048
 10
28.025
 20
33.13
 10
28.128
 20
33.198
 10
28.238
 20
33.253
 10
28.355
 20
33.293
 10
28.477
 20
33.317
 10
28.6
 20
33.325
 10
28.723
 20
33.317
 10
28.845
 20
33.293
 10
28.962
 20
33.253
 10
29.073
 20
33.198
 10
29.175
 20
33.13
 10
29.268
 20
33.048
 10
29.35
 20
32.955
 10
29.418
 20
32.853
 10
29.473
 20
32.742
 10
29.513
 20
32.625
 10
29.537
 20
32.503
 97
0
 92
2
 72
0
 73
1
 93
48
 10
29.125
 20
32.38
 10
29.121
 20
32.311
 10
29.107
 20
32.244
 10
29.085
 20
32.179
 10
29.055
 20
32.118
 10
29.017
 20
32.06
 10
28.971
 20
32.009
 10
28.92
 20
31.963
 10
28.863
 20
31.925
 10
28.801
 20
31.895
 10
28.736
 20
31.873
 10
28.669
 20
31.859
 10
28.6
 20
31.855
 10
28.531
 20
31.859
 10
28.464
 20
31.873
 10
28.399
 20
31.895
 10
28.338
 20
31.925
 10
28.28
 20
31.963
 10
28.229
 20
32.009
 10
28.183
 20
32.06
 10
28.145
 20
32.118
 10
28.115
 20
32.179
 10
28.093
 20
32.244
 10
28.079
 20
32.311
 10
28.075
 20
32.38
 10
28.079
 20
32.449
 10
28.093
 20
32.516
 10
28.115
 20
32.581
 10
28.145
 20
32.643
 10
28.183
 20
32.7
 10
28.229
 20
32.751
 10
28.28
 20
32.797
 10
28.338
 20
32.835
 10
28.399
 20
32.865
 10
28.464
 20
32.887
 10
28.531
 20
32.901
 10
28.6
 20
32.905
 10
28.669
 20
32.901
 10
28.736
 20
32.887
 10
28.801
 20
32.865
 10
28.863
 20
32.835
 10
28.92
 20
32.797
 10
28.971
 20
32.751
 10
29.017
 20
32.7
 10
29.055
 20
32.643
 10
29.085
 20
32.581
 10
29.107
 20
32.516
 10
29.121
 20
32.449
 97
0
 75
0
 76
1
 98
0
  0
HATCH
  5
3F
330
17
100
AcDbEntity
  8
RASTER
 62
7
100
AcDbHatch
 10
0.0
 20
0.0
 30
0.0
210
0.0
220
0.0
230
1.0
  2
SOLID
 70
1
 71
0
 91
1
 92
3
 72
0
 73
1
 93
45
 10
28.18
 20
31.12
 10
29.02
 20
31.12
 10
29.02
 20
30.07
 10
30.91
 20
30.07
 10
30.91
 20
29.44
 10
29.02
 20
29.44
 10
29.02
 20
26.5
 10
29.265
 20
26.45
 10
29.522
 20
26.457
 10
29.784
 20
26.518
 10
30.044
 20
26.631
 10
30.294
 20
26.793
 10
30.526
 20
27.002
 10
30.734
 20
27.255
 10
30.91
 20
27.55
 10
31.96
 20
26.71
 10
31.755
 20
26.101
 10
31.465
 20
25.542
 10
31.1
 20
25.041
 10
30.674
 20
24.61
 10
30.198
 20
24.257
 10
29.686
 20
23.993
 10
29.149
 20
23.827
 10
28.6
 20
23.77
 10
28.051
 20
23.827
 10
27.514
 20
23.993
 10
27.002
 20
24.257
 10
26.526
 20
24.61
 10
26.1
 20
25.041
 10
25.735
 20
25.542
 10
25.445
 20
26.101
 10
25.24
 20
26.71
 10
26.29
 20
27.55
 10
26.466
 20
27.255
 10
26.674
 20
27.002
 10
26.906
 20
26.793
 10
27.156
 20
26.631
 10
27.416
 20
26.518
 10
27.678
 20
26.457
 10
27.935
 20
26.45
 10
28.18
 20
26.5
 10
28.18
 20
29.44
 10
26.29
 20
29.44
 10
26.29
 20
30.07
 10
28.18
 20
30.07
 97
0
 75
0
 76
1
 98
0
  0
ENDSEC
  0
SECTION
  2
OBJECTS
  0
DICTIONARY
  5
A
330
0
100
AcDbDictionary
281
1
  3
ACAD_COLOR
350
B
  3
ACAD_GROUP
350
C
  3
ACAD_LAYOUT
350
D
  3
ACAD_MATERIAL
350
E
  3
ACAD_MLEADERSTYLE
350
F
  3
ACAD_MLINESTYLE
350
10
  3
ACAD_PLOTSETTINGS
350
11
  3
ACAD_PLOTSTYLENAME
350
12
  3
ACAD_SCALELIST
350
14
  3
ACAD_TABLESTYLE
350
15
  3
ACAD_VISUALSTYLE
350
16
  3
EZDXF_META
350
2D
  0
DICTIONARY
  5
B
330
A
100
AcDbDictionary
281
1
  0
DICTIONARY
  5
C
330
A
100
AcDbDictionary
281
1
  0
DICTIONARY
  5
D
330
A
100
AcDbDictionary
281
1
  3
Model
350
1A
  3
Layout1
350
1E
  0
DICTIONARY
  5
E
330
A
100
AcDbDictionary
281
1
  3
ByBlock
350
1F
  3
ByLayer
350
20
  3
Global
350
21
  0
DICTIONARY
  5
F
330
A
100
AcDbDictionary
281
1
  3
Standard
350
2C
  0
DICTIONARY
  5
10
330
A
100
AcDbDictionary
281
1
  3
Standard
350
22
  0
DICTIONARY
  5
11
330
A
100
AcDbDictionary
281
1
  0
ACDBDICTIONARYWDFLT
  5
12
330
A
100
AcDbDictionary
281
1
  3
Normal
350
13
100
AcDbDictionaryWithDefault
340
13
  0
ACDBPLACEHOLDER
  5
13
330
12
  0
DICTIONARY
  5
14
330
A
100
AcDbDictionary
281
1
  0
DICTIONARY
  5
15
330
A
100
AcDbDictionary
281
1
  0
DICTIONARY
  5
16
330
A
100
AcDbDictionary
281
1
  0
LAYOUT
  5
1A
330
D
100
AcDbPlotSettings
  1

  4
A3
  6

 40
7.5
 41
20.0
 42
7.5
 43
20.0
 44
420.0
 45
297.0
 46
0.0
 47
0.0
 48
0.0
 49
0.0
140
0.0
141
0.0
142
1.0
143
1.0
 70
1024
 72
1
 73
0
 74
5
  7

 75
16
 76
0
 77
2
 78
300
147
1.0
148
0.0
149
0.0
100
AcDbLayout
  1
Model
 70
1
 71
0
 10
0.0
 20
0.0
 11
420.0
 21
297.0
 12
0.0
 22
0.0
 32
0.0
 14
1e+20
 24
1e+20
 34
1e+20
 15
-1e+20
 25
-1e+20
 35
-1e+20
146
0.0
 13
0.0
 23
0.0
 33
0.0
 16
1.0
 26
0.0
 36
0.0
 17
0.0
 27
1.0
 37
0.0
 76
1
330
17
  0
LAYOUT
  5
1E
330
D
100
AcDbPlotSettings
  1

  4
A3
  6

 40
7.5
 41
20.0
 42
7.5
 43
20.0
 44
420.0
 45
297.0
 46
0.0
 47
0.0
 48
0.0
 49
0.0
140
0.0
141
0.0
142
1.0
143
1.0
 70
0
 72
1
 73
0
 74
5
  7

 75
16
 76
0
 77
2
 78
300
147
1.0
148
0.0
149
0.0
100
AcDbLayout
  1
Layout1
 70
1
 71
1
 10
0.0
 20
0.0
 11
420.0
 21
297.0
 12
0.0
 22
0.0
 32
0.0
 14
1e+20
 24
1e+20
 34
1e+20
 15
-1e+20
 25
-1e+20
 35
-1e+20
146
0.0
 13
0.0
 23
0.0
 33
0.0
 16
1.0
 26
0.0
 36
0.0
 17
0.0
 27
1.0
 37
0.0
 76
1
330
1B
  0
MATERIAL
  5
1F
102
{ACAD_REACTORS
330
E
102
}
330
E
100
AcDbMaterial
  1
ByBlock
  2

 70
0
 40
1.0
 71
1
 41
1.0
 91
-1023410177
 42
1.0
 72
1
  3

 73
1
 74
1
 75
1
 44
0.5
 73
0
 45
1.0
 46
1.0
 77
1
  4

 78
1
 79
1
170
1
 48
1.0
171
1
  6

172
1
173
1
174
1
140
1.0
141
1.0
175
1
  7

176
1
177
1
178
1
143
1.0
179
1
  8

270
1
271
1
272
1
145
1.0
146
1.0
273
1
  9

274
1
275
1
276
1
 42
1.0
 72
1
  3

 73
1
 74
1
 75
1
 94
63
  0
MATERIAL
  5
20
102
{ACAD_REACTORS
330
E
102
}
330
E
100
AcDbMaterial
  1
ByLayer
  2

 70
0
 40
1.0
 71
1
 41
1.0
 91
-1023410177
 42
1.0
 72
1
  3

 73
1
 74
1
 75
1
 44
0.5
 73
0
 45
1.0
 46
1.0
 77
1
  4

 78
1
 79
1
170
1
 48
1.0
171
1
  6

172
1
173
1
174
1
140
1.0
141
1.0
175
1
  7

176
1
177
1
178
1
143
1.0
179
1
  8

270
1
271
1
272
1
145
1.0
146
1.0
273
1
  9

274
1
275
1
276
1
 42
1.0
 72
1
  3

 73
1
 74
1
 75
1
 94
63
  0
MATERIAL
  5
21
102
{ACAD_REACTORS
330
E
102
}
330
E
100
AcDbMaterial
  1
Global
  2

 70
0
 40
1.0
 71
1
 41
1.0
 91
-1023410177
 42
1.0
 72
1
  3

 73
1
 74
1
 75
1
 44
0.5
 73
0
 45
1.0
 46
1.0
 77
1
  4

 78
1
 79
1
170
1
 48
1.0
171
1
  6

172
1
173
1
174
1
140
1.0
141
1.0
175
1
  7

176
1
177
1
178
1
143
1.0
179
1
  8

270
1
271
1
272
1
145
1.0
146
1.0
273
1
  9

274
1
275
1
276
1
 42
1.0
 72
1
  3

 73
1
 74
1
 75
1
 94
63
  0
MLINESTYLE
  5
22
102
{ACAD_REACTORS
330
10
102
}
330
10
100
AcDbMlineStyle
  2
Standard
 70
0
  3

 62
256
 51
90.0
 52
90.0
 71
2
 49
0.5
 62
256
  6
BYLAYER
 49
-0.5
 62
256
  6
BYLAYER
  0
MLEADERSTYLE
  5
2C
102
{ACAD_REACTORS
330
F
102
}
330
F
100
AcDbMLeaderStyle
179
2
170
2
171
1
172
0
 90
2
 40
0.0
 41
0.0
173
1
 91
-1056964608
 92
-2
290
1
 42
2.0
291
1
 43
8.0
  3
Standard
 44
4.0
300

342
29
174
1
175
1
176
0
178
1
 93
-1056964608
 45
4.0
292
0
297
0
 46
4.0
 94
-1056964608
 47
1.0
 49
1.0
140
1.0
294
1
141
0.0
177
0
142
1.0
295
0
296
0
143
3.75
271
0
272
9
273
9
  0
DICTIONARY
  5
2D
330
A
100
AcDbDictionary
280
1
281
1
  3
CREATED_BY_EZDXF
350
2E
  3
WRITTEN_BY_EZDXF
350
42
  0
DICTIONARYVAR
  5
2E
330
2D
100
DictionaryVariables
280
0
  1
1.4.2 @ 2026-09-10T21:02:51.303158+00:00
  0
DICTIONARYVAR
  5
42
330
2D
100
DictionaryVariables
280
0
  1
1.4.2 @ 2026-09-10T21:02:51.308985+00:00
  0
ENDSEC
  0
EOF
