  0
SECTION
  2
HEADER
  9
$ACADVER
  1
AC1015
  9
$ACADMAINTVER
 70
6
  9
$DWGCODEPAGE
  3
ANSI_1252
  9
$INSBASE
 10
0.0
 20
0.0
 30
0.0
  9
$EXTMIN
 10
1e+20
 20
1e+20
 30
1e+20
  9
$EXTMAX
 10
-1e+20
 20
-1e+20
 30
-1e+20
  9
$LIMMIN
 10
0.0
 20
0.0
  9
$LIMMAX
 10
420.0
 20
297.0
  9
$ORTHOMODE
 70
0
  9
$REGENMODE
 70
1
  9
$FILLMODE
 70
1
  9
$QTEXTMODE
 70
0
  9
$MIRRTEXT
 70
1
  9
$LTSCALE
 40
1.0
  9
$ATTMODE
 70
1
  9
$TEXTSIZE
 40
2.5
  9
$TRACEWID
 40
1.0
  9
$TEXTSTYLE
  7
Standard
  9
$CLAYER
  8
0
  9
$CELTYPE
  6
ByLayer
  9
$CECOLOR
 62
256
  9
$CELTSCALE
 40
1.0
  9
$DISPSILH
 70
0
  9
$DIMSCALE
 40
1.0
  9
$DIMASZ
 40
2.5
  9
$DIMEXO
 40
0.625
  9
$DIMDLI
 40
3.75
  9
$DIMRND
 40
0.0
  9
$DIMDLE
 40
0.0
  9
$DIMEXE
 40
1.25
  9
$DIMTP
 40
0.0
  9
$DIMTM
 40
0.0
  9
$DIMTXT
 40
2.5
  9
$DIMCEN
 40
2.5
  9
$DIMTSZ
 40
0.0
  9
$DIMTOL
 70
0
  9
$DIMLIM
 70
0
  9
$DIMTIH
 70
0
  9
$DIMTOH
 70
0
  9
$DIMSE1
 70
0
  9
$DIMSE2
 70
0
  9
$DIMTAD
 70
1
  9
$DIMZIN
 70
8
  9
$DIMBLK
  1

  9
$DIMASO
 70
1
  9
$DIMSHO
 70
1
  9
$DIMPOST
  1

  9
$DIMAPOST
  1

  9
$DIMALT
 70
0
  9
$DIMALTD
 70
3
  9
$DIMALTF
 40
0.03937007874
  9
$DIMLFAC
 40
1.0
  9
$DIMTOFL
 70
1
  9
$DIMTVP
 40
0.0
  9
$DIMTIX
 70
0
  9
$DIMSOXD
 70
0
  9
$DIMSAH
 70
0
  9
$DIMBLK1
  1

  9
$DIMBLK2
  1

  9
$DIMSTYLE
  2
ISO-25
  9
$DIMCLRD
 70
0
  9
$DIMCLRE
 70
0
  9
$DIMCLRT
 70
0
  9
$DIMTFAC
 40
1.0
  9
$DIMGAP
 40
0.625
  9
$DIMJUST
 70
0
  9
$DIMSD1
 70
0
  9
$DIMSD2
 70
0
  9
$DIMTOLJ
 70
0
  9
$DIMTZIN
 70
8
  9
$DIMALTZ
 70
0
  9
$DIMALTTZ
 70
0
  9
$DIMUPT
 70
0
  9
$DIMDEC
 70
2
  9
$DIMTDEC
 70
2
  9
$DIMALTU
 70
2
  9
$DIMALTTD
 70
3
  9
$DIMTXSTY
  7
Standard
  9
$DIMAUNIT
 70
0
  9
$DIMADEC
 70
0
  9
$DIMALTRND
 40
0.0
  9
$DIMAZIN
 70
0
  9
$DIMDSEP
 70
44
  9
$DIMATFIT
 70
3
  9
$DIMFRAC
 70
0
  9
$DIMLDRBLK
  1

  9
$DIMLUNIT
 70
2
  9
$DIMLWD
 70
-2
  9
$DIMLWE
 70
-2
  9
$DIMTMOVE
 70
0
  9
$LUNITS
 70
2
  9
$LUPREC
 70
4
  9
$SKETCHINC
 40
1.0
  9
$FILLETRAD
 40
10.0
  9
$AUNITS
 70
0
  9
$AUPREC
 70
2
  9
$MENU
  1
.
  9
$ELEVATION
 40
0.0
  9
$PELEVATION
 40
0.0
  9
$THICKNESS
 40
0.0
  9
$LIMCHECK
 70
0
  9
$CHAMFERA
 40
0.0
  9
$CHAMFERB
 40
0.0
  9
$CHAMFERC
 40
0.0
  9
$CHAMFERD
 40
0.0
  9
$SKPOLY
 70
0
  9
$TDCREATE
 40
2461296.4657175927
  9
$TDUCREATE
 40
2458532.153996898
  9
$TDUPDATE
 40
2461296.4657175927
  9
$TDUUPDATE
 40
2458532.1544311
  9
$TDINDWG
 40
0.0
  9
$TDUSRTIMER
 40
0.0
  9
$USRTIMER
 70
1
  9
$ANGBASE
 50
0.0
  9
$ANGDIR
 70
0
  9
$PDMODE
 70
0
  9
$PDSIZE
 40
0.0
  9
$PLINEWID
 40
0.0
  9
$SPLFRAME
 70
0
  9
$SPLINETYPE
 70
6
  9
$SPLINESEGS
 70
8
  9
$HANDSEED
  5
55
  9
$SURFTAB1
 70
6
  9
$SURFTAB2
 70
6
  9
$SURFTYPE
 70
6
  9
$SURFU
 70
6
  9
$SURFV
 70
6
  9
$UCSBASE
  2

  9
$UCSNAME
  2

  9
$UCSORG
 10
0.0
 20
0.0
 30
0.0
  9
$UCSXDIR
 10
1.0
 20
0.0
 30
0.0
  9
$UCSYDIR
 10
0.0
 20
1.0
 30
0.0
  9
$UCSORTHOREF
  2

  9
$UCSORTHOVIEW
 70
0
  9
$UCSORGTOP
 10
0.0
 20
0.0
 30
0.0
  9
$UCSORGBOTTOM
 10
0.0
 20
0.0
 30
0.0
  9
$UCSORGLEFT
 10
0.0
 20
0.0
 30
0.0
  9
$UCSORGRIGHT
 10
0.0
 20
0.0
 30
0.0
  9
$UCSORGFRONT
 10
0.0
 20
0.0
 30
0.0
  9
$UCSORGBACK
 10
0.0
 20
0.0
 30
0.0
  9
$PUCSBASE
  2

  9
$PUCSNAME
  2

  9
$PUCSORG
 10
0.0
 20
0.0
 30
0.0
  9
$PUCSXDIR
 10
1.0
 20
0.0
 30
0.0
  9
$PUCSYDIR
 10
0.0
 20
1.0
 30
0.0
  9
$PUCSORTHOREF
  2

  9
$PUCSORTHOVIEW
 70
0
  9
$PUCSORGTOP
 10
0.0
 20
0.0
 30
0.0
  9
$PUCSORGBOTTOM
 10
0.0
 20
0.0
 30
0.0
  9
$PUCSORGLEFT
 10
0.0
 20
0.0
 30
0.0
  9
$PUCSORGRIGHT
 10
0.0
 20
0.0
 30
0.0
  9
$PUCSORGFRONT
 10
0.0
 20
0.0
 30
0.0
  9
$PUCSORGBACK
 10
0.0
 20
0.0
 30
0.0
  9
$USERI1
 70
0
  9
$USERI2
 70
0
  9
$USERI3
 70
0
  9
$USERI4
 70
0
  9
$USERI5
 70
0
  9
$USERR1
 40
0.0
  9
$USERR2
 40
0.0
  9
$USERR3
 40
0.0
  9
$USERR4
 40
0.0
  9
$USERR5
 40
0.0
  9
$WORLDVIEW
 70
1
  9
$SHADEDGE
 70
3
  9
$SHADEDIF
 70
70
  9
$TILEMODE
 70
1
  9
$MAXACTVP
 70
64
  9
$PINSBASE
 10
0.0
 20
0.0
 30
0.0
  9
$PLIMCHECK
 70
0
  9
$PEXTMIN
 10
1e+20
 20
1e+20
 30
1e+20
  9
$PEXTMAX
 10
-1e+20
 20
-1e+20
 30
-1e+20
  9
$PLIMMIN
 10
0.0
 20
0.0
  9
$PLIMMAX
 10
420.0
 20
297.0
  9
$UNITMODE
 70
0
  9
$VISRETAIN
 70
1
  9
$PLINEGEN
 70
0
  9
$PSLTSCALE
 70
1
  9
$TREEDEPTH
 70
3020
  9
$CMLSTYLE
  2
Standard
  9
$CMLJUST
 70
0
  9
$CMLSCALE
 40
20.0
  9
$PROXYGRAPHICS
 70
1
  9
$MEASUREMENT
 70
1
  9
$CELWEIGHT
370
-1
  9
$ENDCAPS
280
0
  9
$JOINSTYLE
280
0
  9
$LWDISPLAY
290
0
  9
$INSUNITS
 70
4
  9
$HYPERLINKBASE
  1

  9
$STYLESHEET
  1

  9
$XEDIT
290
1
  9
$CEPSNTYPE
380
0
  9
$PSTYLEMODE
290
1
  9
$FINGERPRINTGUID
  2
{C4B70BA0-6DBF-4F38-B080-D8658F20442E}
  9
$VERSIONGUID
  2
{1C7B90CC-819D-4FC7-9ED8-4FB885F3D199}
  9
$EXTNAMES
290
1
  9
$PSVPSCALE
 40
0.0
  9
$OLESTARTUP
290
0
  0
ENDSEC
  0
SECTION
  2
CLASSES
  0
CLASS
  1
ACDBDICTIONARYWDFLT
  2
AcDbDictionaryWithDefault
  3
ObjectDBX Classes
 90
0
280
0
281
0
  0
CLASS
  1
SUN
  2
AcDbSun
  3
SCENEOE
 90
1153
280
0
281
0
  0
CLASS
  1
VISUALSTYLE
  2
AcDbVisualStyle
  3
ObjectDBX Classes
 90
4095
280
0
281
0
  0
CLASS
  1
MATERIAL
  2
AcDbMaterial
  3
ObjectDBX Classes
 90
1153
280
0
281
0
  0
CLASS
  1
SCALE
  2
AcDbScale
  3
ObjectDBX Classes
 90
1153
280
0
281
0
  0
CLASS
  1
TABLESTYLE
  2
AcDbTableStyle
  3
ObjectDBX Classes
 90
4095
280
0
281
0
  0
CLASS
  1
MLEADERSTYLE
  2
AcDbMLeaderStyle
  3
ACDB_MLEADERSTYLE_CLASS
 90
4095
280
0
281
0
  0
CLASS
  1
DICTIONARYVAR
  2
AcDbDictionaryVar
  3
ObjectDBX Classes
 90
0
280
0
281
0
  0
CLASS
  1
CELLSTYLEMAP
  2
AcDbCellStyleMap
  3
ObjectDBX Classes
 90
1152
280
0
281
0
  0
CLASS
  1
MENTALRAYRENDERSETTINGS
  2
AcDbMentalRayRenderSettings
  3
SCENEOE
 90
1024
280
0
281
0
  0
CLASS
  1
ACDBDETAILVIEWSTYLE
  2
AcDbDetailViewStyle
  3
ObjectDBX Classes
 90
1025
280
0
281
0
  0
CLASS
  1
ACDBSECTIONVIEWSTYLE
  2
AcDbSectionViewStyle
  3
ObjectDBX Classes
 90
1025
280
0
281
0
  0
CLASS
  1
RASTERVARIABLES
  2
AcDbRasterVariables
  3
ISM
 90
0
280
0
281
0
  0
CLASS
  1
ACDBPLACEHOLDER
  2
AcDbPlaceHolder
  3
ObjectDBX Classes
 90
0
280
0
281
0
  0
CLASS
  1
LAYOUT
  2
AcDbLayout
  3
ObjectDBX Classes
 90
0
280
0
281
0
  0
ENDSEC
  0
SECTION
  2
TABLES
  0
TABLE
  2
VPORT
  5
8
330
0
100
AcDbSymbolTable
 70
1
  0
VPORT
  5
23
330
8
100
AcDbSymbolTableRecord
100
AcDbViewportTableRecord
  2
*Active
 70
0
 10
0.0
 20
0.0
 11
1.0
 21
1.0
 12
0.0
 22
0.0
 13
0.0
 23
0.0
 14
0.5
 24
0.5
 15
0.5
 25
0.5
 16
0.0
 26
0.0
 36
1.0
 17
0.0
 27
0.0
 37
0.0
 40
1000.0
 41
1.34
 42
50.0
 43
0.0
 44
0.0
 50
0.0
 51
0.0
 71
0
 72
1000
 73
1
 74
3
 75
0
 76
0
 77
0
 78
0
281
0
 65
0
146
0.0
  0
ENDTAB
  0
TABLE
  2
LTYPE
  5
2
330
0
100
AcDbSymbolTable
 70
3
  0
LTYPE
  5
24
330
2
100
AcDbSymbolTableRecord
100
AcDbLinetypeTableRecord
  2
ByBlock
 70
0
  3

 72
65
 73
0
 40
0.0
  0
LTYPE
  5
25
330
2
100
AcDbSymbolTableRecord
100
AcDbLinetypeTableRecord
  2
ByLayer
 70
0
  3

 72
65
 73
0
 40
0.0
  0
LTYPE
  5
26
330
2
100
AcDbSymbolTableRecord
100
AcDbLinetypeTableRecord
  2
Continuous
 70
0
  3

 72
65
 73
0
 40
0.0
  0
ENDTAB
  0
TABLE
  2
LAYER
  5
1
330
0
100
AcDbSymbolTable
 70
4
  0
LAYER
  5
27
330
1
100
AcDbSymbolTableRecord
100
AcDbLayerTableRecord
  2
0
 70
0
 62
7
  6
Continuous
370
-3
390
13
  0
LAYER
  5
28
330
1
100
AcDbSymbolTableRecord
100
AcDbLayerTableRecord
  2
Defpoints
 70
0
 62
7
  6
Continuous
290
0
370
-3
390
13
  0
LAYER
  5
2F
330
1
100
AcDbSymbolTableRecord
100
AcDbLayerTableRecord
  2
CUT
 70
0
 62
1
  6
Continuous
370
-3
390
13
  0
LAYER
  5
30
330
1
100
AcDbSymbolTableRecord
100
AcDbLayerTableRecord
  2
RASTER
 70
0
 62
7
  6
Continuous
370
-3
390
13
  0
ENDTAB
  0
TABLE
  2
STYLE
  5
5
330
0
100
AcDbSymbolTable
 70
1
  0
STYLE
  5
29
330
5
100
AcDbSymbolTableRecord
100
AcDbTextStyleTableRecord
  2
Standard
 70
0
 40
0.0
 41
1.0
 50
0.0
 71
0
 42
2.5
  3
txt
  4

  0
ENDTAB
  0
TABLE
  2
VIEW
  5
7
330
0
100
AcDbSymbolTable
 70
0
  0
ENDTAB
  0
TABLE
  2
UCS
  5
6
330
0
100
AcDbSymbolTable
 70
0
  0
ENDTAB
  0
TABLE
  2
APPID
  5
3
330
0
100
AcDbSymbolTable
 70
3
  0
APPID
  5
2A
330
3
100
AcDbSymbolTableRecord
100
AcDbRegAppTableRecord
  2
ACAD
 70
0
  0
APPID
  5
52
330
3
100
AcDbSymbolTableRecord
100
AcDbRegAppTableRecord
  2
HATCHBACKGROUNDCOLOR
 70
0
  0
APPID
  5
53
330
3
100
AcDbSymbolTableRecord
100
AcDbRegAppTableRecord
  2
EZDXF
 70
0
  0
ENDTAB
  0
TABLE
  2
DIMSTYLE
  5
4
330
0
100
AcDbSymbolTable
 70
1
100
AcDbDimStyleTable
  0
DIMSTYLE
105
2B
330
4
100
AcDbSymbolTableRecord
100
AcDbDimStyleTableRecord
  2
Standard
 70
0
  3

  4

 40
1.0
 41
2.5
 42
0.625
 43
3.75
 44
1.25
 45
0.0
 46
0.0
 47
0.0
 48
0.0
140
2.5
141
2.5
142
0.0
143
0.03937007874
144
1.0
145
0.0
146
1.0
147
0.625
148
0.0
 71
0
 72
0
 73
0
 74
0
 75
0
 76
0
 77
1
 78
8
 79
3
170
0
171
3
172
1
173
0
174
0
175
0
176
0
177
0
178
0
179
2
271
2
272
2
273
2
274
3
275
0
276
0
277
2
278
44
279
0
280
0
281
0
282
0
283
0
284
8
285
0
286
0
288
0
289
3
371
-2
372
-2
  0
ENDTAB
  0
TABLE
  2
BLOCK_RECORD
  5
9
330
0
100
AcDbSymbolTable
 70
2
  0
BLOCK_RECORD
  5
17
330
9
100
AcDbSymbolTableRecord
100
AcDbBlockTableRecord
  2
*Model_Space
340
1A
  0
BLOCK_RECORD
  5
1B
330
9
100
AcDbSymbolTableRecord
100
AcDbBlockTableRecord
  2
*Paper_Space
340
1E
  0
ENDTAB
  0
ENDSEC
  0
SECTION
  2
BLOCKS
  0
BLOCK
  5
18
330
17
100
AcDbEntity
  8
0
100
AcDbBlockBegin
  2
*Model_Space
 70
0
 10
0.0
 20
0.0
 30
0.0
  3
*Model_Space
  1

  0
ENDBLK
  5
19
330
17
100
AcDbEntity
  8
0
100
AcDbBlockEnd
  0
BLOCK
  5
1C
330
1B
100
AcDbEntity
  8
0
100
AcDbBlockBegin
  2
*Paper_Space
 70
0
 10
0.0
 20
0.0
 30
0.0
  3
*Paper_Space
  1

  0
ENDBLK
  5
1D
330
1B
100
AcDbEntity
  8
0
100
AcDbBlockEnd
  0
ENDSEC
  0
SECTION
  2
ENTITIES
  0
LWPOLYLINE
  5
31
330
17
100
AcDbEntity
  8
CUT
100
AcDbPolyline
 90
36
 70
1
 10
7.1
 20
93.241
 10
68.101
 20
93.241
 10
71.241
 20
93.241
 10
71.241
 20
90.861
 10
68.141
 20
90.861
 10
68.141
 20
88.641
 10
71.241
 20
88.641
 10
71.241
 20
86.261
 10
68.101
 20
86.261
 10
62.595
 20
86.261
 10
62.595
 20
83.161
 10
56.97
 20
83.161
 10
56.97
 20
86.261
 10
51.504
 20
86.261
 10
51.504
 20
83.161
 10
45.879
 20
83.161
 10
45.879
 20
86.261
 10
40.413
 20
86.261
 10
40.413
 20
83.161
 10
34.788
 20
83.161
 10
34.788
 20
86.261
 10
29.322
 20
86.261
 10
29.322
 20
83.161
 10
23.697
 20
83.161
 10
23.697
 20
86.261
 10
18.231
 20
86.261
 10
18.231
 20
83.161
 10
12.606
 20
83.161
 10
12.606
 20
86.261
 10
7.1
 20
86.261
 10
3.96
 20
86.261
 10
3.96
 20
88.641
 10
7.06
 20
88.641
 10
7.06
 20
90.861
 10
3.96
 20
90.861
 10
3.96
 20
93.241
  0
LWPOLYLINE
  5
32
330
17
100
AcDbEntity
  8
CUT
100
AcDbPolyline
 90
4
 70
1
 10
12.14
 20
90.811
 10
63.061
 20
90.811
 10
63.061
 20
88.691
 10
12.14
 20
88.691
  0
HATCH
  5
33
330
17
100
AcDbEntity
  8
RASTER
 62
7
100
AcDbHatch
 10
0.0
 20
0.0
 30
0.0
210
0.0
220
0.0
230
1.0
  2
SOLID
 70
1
 71
0
 91
1
 92
3
 72
0
 73
1
 93
4
 10
7.7
 20
92.801
 10
11.5
 20
92.801
 10
11.5
 20
86.701
 10
7.7
 20
86.701
 97
0
 75
0
 76
1
 98
0
  0
HATCH
  5
34
330
17
100
AcDbEntity
  8
RASTER
 62
7
100
AcDbHatch
 10
0.0
 20
0.0
 30
0.0
210
0.0
220
0.0
230
1.0
  2
SOLID
 70
1
 71
0
 91
1
 92
3
 72
0
 73
1
 93
4
 10
63.701
 20
92.801
 10
67.501
 20
92.801
 10
67.501
 20
86.701
 10
63.701
 20
86.701
 97
0
 75
0
 76
1
 98
0
  0
HATCH
  5
35
330
17
100
AcDbEntity
  8
RASTER
 62
7
100
AcDbHatch
 10
0.0
 20
0.0
 30
0.0
210
0.0
220
0.0
230
1.0
  2
SOLID
 70
1
 71
0
 91
1
 92
3
 72
0
 73
1
 93
48
 10
14.2
 20
92.451
 10
14.196
 20
92.386
 10
14.183
 20
92.322
 10
14.162
 20
92.26
 10
14.133
 20
92.201
 10
14.097
 20
92.147
 10
14.054
 20
92.097
 10
14.004
 20
92.054
 10
13.95
 20
92.018
 10
13.891
 20
91.989
 10
13.829
 20
91.968
 10
13.765
 20
91.955
 10
13.7
 20
91.951
 10
13.635
 20
91.955
 10
13.571
 20
91.968
 10
13.509
 20
91.989
 10
13.45
 20
92.018
 10
13.396
 20
92.054
 10
13.346
 20
92.097
 10
13.303
 20
92.147
 10
13.267
 20
92.201
 10
13.238
 20
92.26
 10
13.217
 20
92.322
 10
13.204
 20
92.386
 10
13.2
 20
92.451
 10
13.204
 20
92.516
 10
13.217
 20
92.58
 10
13.238
 20
92.642
 10
13.267
 20
92.701
 10
13.303
 20
92.755
 10
13.346
 20
92.805
 10
13.396
 20
92.848
 10
13.45
 20
92.884
 10
13.509
 20
92.913
 10
13.571
 20
92.934
 10
13.635
 20
92.947
 10
13.7
 20
92.951
 10
13.765
 20
92.947
 10
13.829
 20
92.934
 10
13.891
 20
92.913
 10
13.95
 20
92.884
 10
14.004
 20
92.848
 10
14.054
 20
92.805
 10
14.097
 20
92.755
 10
14.133
 20
92.701
 10
14.162
 20
92.642
 10
14.183
 20
92.58
 10
14.196
 20
92.516
 97
0
 75
0
 76
1
 98
0
  0
HATCH
  5
36
330
17
100
AcDbEntity
  8
RASTER
 62
7
100
AcDbHatch
 10
0.0
 20
0.0
 30
0.0
210
0.0
220
0.0
230
1.0
  2
SOLID
 70
1
 71
0
 91
1
 92
3
 72
0
 73
1
 93
48
 10
62.001
 20
92.451
 10
61.997
 20
92.386
 10
61.984
 20
92.322
 10
61.963
 20
92.26
 10
61.934
 20
92.201
 10
61.898
 20
92.147
 10
61.855
 20
92.097
 10
61.805
 20
92.054
 10
61.751
 20
92.018
 10
61.692
 20
91.989
 10
61.63
 20
91.968
 10
61.566
 20
91.955
 10
61.501
 20
91.951
 10
61.436
 20
91.955
 10
61.372
 20
91.968
 10
61.31
 20
91.989
 10
61.251
 20
92.018
 10
61.197
 20
92.054
 10
61.147
 20
92.097
 10
61.104
 20
92.147
 10
61.068
 20
92.201
 10
61.039
 20
92.26
 10
61.018
 20
92.322
 10
61.005
 20
92.386
 10
61.001
 20
92.451
 10
61.005
 20
92.516
 10
61.018
 20
92.58
 10
61.039
 20
92.642
 10
61.068
 20
92.701
 10
61.104
 20
92.755
 10
61.147
 20
92.805
 10
61.197
 20
92.848
 10
61.251
 20
92.884
 10
61.31
 20
92.913
 10
61.372
 20
92.934
 10
61.436
 20
92.947
 10
61.501
 20
92.951
 10
61.566
 20
92.947
 10
61.63
 20
92.934
 10
61.692
 20
92.913
 10
61.751
 20
92.884
 10
61.805
 20
92.848
 10
61.855
 20
92.805
 10
61.898
 20
92.755
 10
61.934
 20
92.701
 10
61.963
 20
92.642
 10
61.984
 20
92.58
 10
61.997
 20
92.516
 97
0
 75
0
 76
1
 98
0
  0
HATCH
  5
37
330
17
100
AcDbEntity
  8
RASTER
 62
7
100
AcDbHatch
 10
0.0
 20
0.0
 30
0.0
210
0.0
220
0.0
230
1.0
  2
SOLID
 70
1
 71
0
 91
1
 92
3
 72
0
 73
1
 93
48
 10
14.2
 20
87.051
 10
14.196
 20
86.986
 10
14.183
 20
86.922
 10
14.162
 20
86.86
 10
14.133
 20
86.801
 10
14.097
 20
86.747
 10
14.054
 20
86.697
 10
14.004
 20
86.654
 10
13.95
 20
86.618
 10
13.891
 20
86.589
 10
13.829
 20
86.568
 10
13.765
 20
86.555
 10
13.7
 20
86.551
 10
13.635
 20
86.555
 10
13.571
 20
86.568
 10
13.509
 20
86.589
 10
13.45
 20
86.618
 10
13.396
 20
86.654
 10
13.346
 20
86.697
 10
13.303
 20
86.747
 10
13.267
 20
86.801
 10
13.238
 20
86.86
 10
13.217
 20
86.922
 10
13.204
 20
86.986
 10
13.2
 20
87.051
 10
13.204
 20
87.116
 10
13.217
 20
87.18
 10
13.238
 20
87.242
 10
13.267
 20
87.301
 10
13.303
 20
87.355
 10
13.346
 20
87.405
 10
13.396
 20
87.448
 10
13.45
 20
87.484
 10
13.509
 20
87.513
 10
13.571
 20
87.534
 10
13.635
 20
87.547
 10
13.7
 20
87.551
 10
13.765
 20
87.547
 10
13.829
 20
87.534
 10
13.891
 20
87.513
 10
13.95
 20
87.484
 10
14.004
 20
87.448
 10
14.054
 20
87.405
 10
14.097
 20
87.355
 10
14.133
 20
87.301
 10
14.162
 20
87.242
 10
14.183
 20
87.18
 10
14.196
 20
87.116
 97
0
 75
0
 76
1
 98
0
  0
HATCH
  5
38
330
17
100
AcDbEntity
  8
RASTER
 62
7
100
AcDbHatch
 10
0.0
 20
0.0
 30
0.0
210
0.0
220
0.0
230
1.0
  2
SOLID
 70
1
 71
0
 91
1
 92
3
 72
0
 73
1
 93
48
 10
62.001
 20
87.051
 10
61.997
 20
86.986
 10
61.984
 20
86.922
 10
61.963
 20
86.86
 10
61.934
 20
86.801
 10
61.898
 20
86.747
 10
61.855
 20
86.697
 10
61.805
 20
86.654
 10
61.751
 20
86.618
 10
61.692
 20
86.589
 10
61.63
 20
86.568
 10
61.566
 20
86.555
 10
61.501
 20
86.551
 10
61.436
 20
86.555
 10
61.372
 20
86.568
 10
61.31
 20
86.589
 10
61.251
 20
86.618
 10
61.197
 20
86.654
 10
61.147
 20
86.697
 10
61.104
 20
86.747
 10
61.068
 20
86.801
 10
61.039
 20
86.86
 10
61.018
 20
86.922
 10
61.005
 20
86.986
 10
61.001
 20
87.051
 10
61.005
 20
87.116
 10
61.018
 20
87.18
 10
61.039
 20
87.242
 10
61.068
 20
87.301
 10
61.104
 20
87.355
 10
61.147
 20
87.405
 10
61.197
 20
87.448
 10
61.251
 20
87.484
 10
61.31
 20
87.513
 10
61.372
 20
87.534
 10
61.436
 20
87.547
 10
61.501
 20
87.551
 10
61.566
 20
87.547
 10
61.63
 20
87.534
 10
61.692
 20
87.513
 10
61.751
 20
87.484
 10
61.805
 20
87.448
 10
61.855
 20
87.405
 10
61.898
 20
87.355
 10
61.934
 20
87.301
 10
61.963
 20
87.242
 10
61.984
 20
87.18
 10
61.997
 20
87.116
 97
0
 75
0
 76
1
 98
0
  0
LWPOLYLINE
  5
39
330
17
100
AcDbEntity
  8
CUT
100
AcDbPolyline
 90
36
 70
1
 10
7.1
 20
79.241
 10
68.101
 20
79.241
 10
71.241
 20
79.241
 10
71.241
 20
76.861
 10
68.141
 20
76.861
 10
68.141
 20
74.641
 10
71.241
 20
74.641
 10
71.241
 20
72.261
 10
68.101
 20
72.261
 10
62.595
 20
72.261
 10
62.595
 20
69.161
 10
56.97
 20
69.161
 10
56.97
 20
72.261
 10
51.504
 20
72.261
 10
51.504
 20
69.161
 10
45.879
 20
69.161
 10
45.879
 20
72.261
 10
40.413
 20
72.261
 10
40.413
 20
69.161
 10
34.788
 20
69.161
 10
34.788
 20
72.261
 10
29.322
 20
72.261
 10
29.322
 20
69.161
 10
23.697
 20
69.161
 10
23.697
 20
72.261
 10
18.231
 20
72.261
 10
18.231
 20
69.161
 10
12.606
 20
69.161
 10
12.606
 20
72.261
 10
7.1
 20
72.261
 10
3.96
 20
72.261
 10
3.96
 20
74.641
 10
7.06
 20
74.641
 10
7.06
 20
76.861
 10
3.96
 20
76.861
 10
3.96
 20
79.241
  0
LWPOLYLINE
  5
3A
330
17
100
AcDbEntity
  8
CUT
100
AcDbPolyline
 90
4
 70
1
 10
12.14
 20
76.811
 10
63.061
 20
76.811
 10
63.061
 20
74.691
 10
12.14
 20
74.691
  0
HATCH
  5
3B
330
17
100
AcDbEntity
  8
RASTER
 62
7
100
AcDbHatch
 10
0.0
 20
0.0
 30
0.0
210
0.0
220
0.0
230
1.0
  2
SOLID
 70
1
 71
0
 91
1
 92
3
 72
0
 73
1
 93
4
 10
7.7
 20
78.801
 10
11.5
 20
78.801
 10
11.5
 20
72.701
 10
7.7
 20
72.701
 97
0
 75
0
 76
1
 98
0
  0
HATCH
  5
3C
330
17
100
AcDbEntity
  8
RASTER
 62
7
100
AcDbHatch
 10
0.0
 20
0.0
 30
0.0
210
0.0
220
0.0
230
1.0
  2
SOLID
 70
1
 71
0
 91
1
 92
3
 72
0
 73
1
 93
4
 10
63.701
 20
78.801
 10
67.501
 20
78.801
 10
67.501
 20
72.701
 10
63.701
 20
72.701
 97
0
 75
0
 76
1
 98
0
  0
HATCH
  5
3D
330
17
100
AcDbEntity
  8
RASTER
 62
7
100
AcDbHatch
 10
0.0
 20
0.0
 30
0.0
210
0.0
220
0.0
230
1.0
  2
SOLID
 70
1
 71
0
 91
1
 92
3
 72
0
 73
1
 93
48
 10
14.2
 20
78.451
 10
14.196
 20
78.386
 10
14.183
 20
78.322
 10
14.162
 20
78.26
 10
14.133
 20
78.201
 10
14.097
 20
78.147
 10
14.054
 20
78.097
 10
14.004
 20
78.054
 10
13.95
 20
78.018
 10
13.891
 20
77.989
 10
13.829
 20
77.968
 10
13.765
 20
77.955
 10
13.7
 20
77.951
 10
13.635
 20
77.955
 10
13.571
 20
77.968
 10
13.509
 20
77.989
 10
13.45
 20
78.018
 10
13.396
 20
78.054
 10
13.346
 20
78.097
 10
13.303
 20
78.147
 10
13.267
 20
78.201
 10
13.238
 20
78.26
 10
13.217
 20
78.322
 10
13.204
 20
78.386
 10
13.2
 20
78.451
 10
13.204
 20
78.516
 10
13.217
 20
78.58
 10
13.238
 20
78.642
 10
13.267
 20
78.701
 10
13.303
 20
78.755
 10
13.346
 20
78.805
 10
13.396
 20
78.848
 10
13.45
 20
78.884
 10
13.509
 20
78.913
 10
13.571
 20
78.934
 10
13.635
 20
78.947
 10
13.7
 20
78.951
 10
13.765
 20
78.947
 10
13.829
 20
78.934
 10
13.891
 20
78.913
 10
13.95
 20
78.884
 10
14.004
 20
78.848
 10
14.054
 20
78.805
 10
14.097
 20
78.755
 10
14.133
 20
78.701
 10
14.162
 20
78.642
 10
14.183
 20
78.58
 10
14.196
 20
78.516
 97
0
 75
0
 76
1
 98
0
  0
HATCH
  5
3E
330
17
100
AcDbEntity
  8
RASTER
 62
7
100
AcDbHatch
 10
0.0
 20
0.0
 30
0.0
210
0.0
220
0.0
230
1.0
  2
SOLID
 70
1
 71
0
 91
1
 92
3
 72
0
 73
1
 93
48
 10
62.001
 20
78.451
 10
61.997
 20
78.386
 10
61.984
 20
78.322
 10
61.963
 20
78.26
 10
61.934
 20
78.201
 10
61.898
 20
78.147
 10
61.855
 20
78.097
 10
61.805
 20
78.054
 10
61.751
 20
78.018
 10
61.692
 20
77.989
 10
61.63
 20
77.968
 10
61.566
 20
77.955
 10
61.501
 20
77.951
 10
61.436
 20
77.955
 10
61.372
 20
77.968
 10
61.31
 20
77.989
 10
61.251
 20
78.018
 10
61.197
 20
78.054
 10
61.147
 20
78.097
 10
61.104
 20
78.147
 10
61.068
 20
78.201
 10
61.039
 20
78.26
 10
61.018
 20
78.322
 10
61.005
 20
78.386
 10
61.001
 20
78.451
 10
61.005
 20
78.516
 10
61.018
 20
78.58
 10
61.039
 20
78.642
 10
61.068
 20
78.701
 10
61.104
 20
78.755
 10
61.147
 20
78.805
 10
61.197
 20
78.848
 10
61.251
 20
78.884
 10
61.31
 20
78.913
 10
61.372
 20
78.934
 10
61.436
 20
78.947
 10
61.501
 20
78.951
 10
61.566
 20
78.947
 10
61.63
 20
78.934
 10
61.692
 20
78.913
 10
61.751
 20
78.884
 10
61.805
 20
78.848
 10
61.855
 20
78.805
 10
61.898
 20
78.755
 10
61.934
 20
78.701
 10
61.963
 20
78.642
 10
61.984
 20
78.58
 10
61.997
 20
78.516
 97
0
 75
0
 76
1
 98
0
  0
HATCH
  5
3F
330
17
100
AcDbEntity
  8
RASTER
 62
7
100
AcDbHatch
 10
0.0
 20
0.0
 30
0.0
210
0.0
220
0.0
230
1.0
  2
SOLID
 70
1
 71
0
 91
1
 92
3
 72
0
 73
1
 93
48
 10
14.2
 20
73.051
 10
14.196
 20
72.986
 10
14.183
 20
72.922
 10
14.162
 20
72.86
 10
14.133
 20
72.801
 10
14.097
 20
72.747
 10
14.054
 20
72.697
 10
14.004
 20
72.654
 10
13.95
 20
72.618
 10
13.891
 20
72.589
 10
13.829
 20
72.568
 10
13.765
 20
72.555
 10
13.7
 20
72.551
 10
13.635
 20
72.555
 10
13.571
 20
72.568
 10
13.509
 20
72.589
 10
13.45
 20
72.618
 10
13.396
 20
72.654
 10
13.346
 20
72.697
 10
13.303
 20
72.747
 10
13.267
 20
72.801
 10
13.238
 20
72.86
 10
13.217
 20
72.922
 10
13.204
 20
72.986
 10
13.2
 20
73.051
 10
13.204
 20
73.116
 10
13.217
 20
73.18
 10
13.238
 20
73.242
 10
13.267
 20
73.301
 10
13.303
 20
73.355
 10
13.346
 20
73.405
 10
13.396
 20
73.448
 10
13.45
 20
73.484
 10
13.509
 20
73.513
 10
13.571
 20
73.534
 10
13.635
 20
73.547
 10
13.7
 20
73.551
 10
13.765
 20
73.547
 10
13.829
 20
73.534
 10
13.891
 20
73.513
 10
13.95
 20
73.484
 10
14.004
 20
73.448
 10
14.054
 20
73.405
 10
14.097
 20
73.355
 10
14.133
 20
73.301
 10
14.162
 20
73.242
 10
14.183
 20
73.18
 10
14.196
 20
73.116
 97
0
 75
0
 76
1
 98
0
  0
HATCH
  5
40
330
17
100
AcDbEntity
  8
RASTER
 62
7
100
AcDbHatch
 10
0.0
 20
0.0
 30
0.0
210
0.0
220
0.0
230
1.0
  2
SOLID
 70
1
 71
0
 91
1
 92
3
 72
0
 73
1
 93
48
 10
62.001
 20
73.051
 10
61.997
 20
72.986
 10
61.984
 20
72.922
 10
61.963
 20
72.86
 10
61.934
 20
72.801
 10
61.898
 20
72.747
 10
61.855
 20
72.697
 10
61.805
 20
72.654
 10
61.751
 20
72.618
 10
61.692
 20
72.589
 10
61.63
 20
72.568
 10
61.566
 20
72.555
 10
61.501
 20
72.551
 10
61.436
 20
72.555
 10
61.372
 20
72.568
 10
61.31
 20
72.589
 10
61.251
 20
72.618
 10
61.197
 20
72.654
 10
61.147
 20
72.697
 10
61.104
 20
72.747
 10
61.068
 20
72.801
 10
61.039
 20
72.86
 10
61.018
 20
72.922
 10
61.005
 20
72.986
 10
61.001
 20
73.051
 10
61.005
 20
73.116
 10
61.018
 20
73.18
 10
61.039
 20
73.242
 10
61.068
 20
73.301
 10
61.104
 20
73.355
 10
61.147
 20
73.405
 10
61.197
 20
73.448
 10
61.251
 20
73.484
 10
61.31
 20
73.513
 10
61.372
 20
73.534
 10
61.436
 20
73.547
 10
61.501
 20
73.551
 10
61.566
 20
73.547
 10
61.63
 20
73.534
 10
61.692
 20
73.513
 10
61.751
 20
73.484
 10
61.805
 20
73.448
 10
61.855
 20
73.405
 10
61.898
 20
73.355
 10
61.934
 20
73.301
 10
61.963
 20
73.242
 10
61.984
 20
73.18
 10
61.997
 20
73.116
 97
0
 75
0
 76
1
 98
0
  0
LWPOLYLINE
  5
41
330
17
100
AcDbEntity
  8
CUT
100
AcDbPolyline
 90
24
 70
1
 10
7.06
 20
65.241
 10
48.141
 20
65.241
 10
48.141
 20
62.941
 10
51.241
 20
62.941
 10
51.241
 20
60.561
 10
48.141
 20
60.561
 10
48.141
 20
58.261
 10
42.284
 20
58.261
 10
42.284
 20
55.161
 10
36.346
 20
55.161
 10
36.346
 20
58.261
 10
30.569
 20
58.261
 10
30.569
 20
55.161
 10
24.632
 20
55.161
 10
24.632
 20
58.261
 10
18.855
 20
58.261
 10
18.855
 20
55.161
 10
12.917
 20
55.161
 10
12.917
 20
58.261
 10
7.06
 20
58.261
 10
7.06
 20
60.561
 10
3.96
 20
60.561
 10
3.96
 20
62.941
 10
7.06
 20
62.941
  0
LWPOLYLINE
  5
42
330
17
100
AcDbEntity
  8
CUT
100
AcDbPolyline
 90
4
 70
1
 10
12.14
 20
62.811
 10
43.061
 20
62.811
 10
43.061
 20
60.691
 10
12.14
 20
60.691
  0
HATCH
  5
43
330
17
100
AcDbEntity
  8
RASTER
 62
7
100
AcDbHatch
 10
0.0
 20
0.0
 30
0.0
210
0.0
220
0.0
230
1.0
  2
SOLID
 70
1
 71
0
 91
1
 92
3
 72
0
 73
1
 93
4
 10
7.7
 20
64.801
 10
11.5
 20
64.801
 10
11.5
 20
58.701
 10
7.7
 20
58.701
 97
0
 75
0
 76
1
 98
0
  0
HATCH
  5
44
330
17
100
AcDbEntity
  8
RASTER
 62
7
100
AcDbHatch
 10
0.0
 20
0.0
 30
0.0
210
0.0
220
0.0
230
1.0
  2
SOLID
 70
1
 71
0
 91
1
 92
3
 72
0
 73
1
 93
4
 10
43.701
 20
64.801
 10
47.501
 20
64.801
 10
47.501
 20
58.701
 10
43.701
 20
58.701
 97
0
 75
0
 76
1
 98
0
  0
HATCH
  5
45
330
17
100
AcDbEntity
  8
RASTER
 62
7
100
AcDbHatch
 10
0.0
 20
0.0
 30
0.0
210
0.0
220
0.0
230
1.0
  2
SOLID
 70
1
 71
0
 91
1
 92
3
 72
0
 73
1
 93
48
 10
14.2
 20
64.451
 10
14.196
 20
64.386
 10
14.183
 20
64.322
 10
14.162
 20
64.26
 10
14.133
 20
64.201
 10
14.097
 20
64.147
 10
14.054
 20
64.097
 10
14.004
 20
64.054
 10
13.95
 20
64.018
 10
13.891
 20
63.989
 10
13.829
 20
63.968
 10
13.765
 20
63.955
 10
13.7
 20
63.951
 10
13.635
 20
63.955
 10
13.571
 20
63.968
 10
13.509
 20
63.989
 10
13.45
 20
64.018
 10
13.396
 20
64.054
 10
13.346
 20
64.097
 10
13.303
 20
64.147
 10
13.267
 20
64.201
 10
13.238
 20
64.26
 10
13.217
 20
64.322
 10
13.204
 20
64.386
 10
13.2
 20
64.451
 10
13.204
 20
64.516
 10
13.217
 20
64.58
 10
13.238
 20
64.642
 10
13.267
 20
64.701
 10
13.303
 20
64.755
 10
13.346
 20
64.805
 10
13.396
 20
64.848
 10
13.45
 20
64.884
 10
13.509
 20
64.913
 10
13.571
 20
64.934
 10
13.635
 20
64.947
 10
13.7
 20
64.951
 10
13.765
 20
64.947
 10
13.829
 20
64.934
 10
13.891
 20
64.913
 10
13.95
 20
64.884
 10
14.004
 20
64.848
 10
14.054
 20
64.805
 10
14.097
 20
64.755
 10
14.133
 20
64.701
 10
14.162
 20
64.642
 10
14.183
 20
64.58
 10
14.196
 20
64.516
 97
0
 75
0
 76
1
 98
0
  0
HATCH
  5
46
330
17
100
AcDbEntity
  8
RASTER
 62
7
100
AcDbHatch
 10
0.0
 20
0.0
 30
0.0
210
0.0
220
0.0
230
1.0
  2
SOLID
 70
1
 71
0
 91
1
 92
3
 72
0
 73
1
 93
48
 10
42.001
 20
64.451
 10
41.997
 20
64.386
 10
41.984
 20
64.322
 10
41.963
 20
64.26
 10
41.934
 20
64.201
 10
41.898
 20
64.147
 10
41.855
 20
64.097
 10
41.805
 20
64.054
 10
41.751
 20
64.018
 10
41.692
 20
63.989
 10
41.63
 20
63.968
 10
41.566
 20
63.955
 10
41.501
 20
63.951
 10
41.436
 20
63.955
 10
41.372
 20
63.968
 10
41.31
 20
63.989
 10
41.251
 20
64.018
 10
41.197
 20
64.054
 10
41.147
 20
64.097
 10
41.104
 20
64.147
 10
41.068
 20
64.201
 10
41.039
 20
64.26
 10
41.018
 20
64.322
 10
41.005
 20
64.386
 10
41.001
 20
64.451
 10
41.005
 20
64.516
 10
41.018
 20
64.58
 10
41.039
 20
64.642
 10
41.068
 20
64.701
 10
41.104
 20
64.755
 10
41.147
 20
64.805
 10
41.197
 20
64.848
 10
41.251
 20
64.884
 10
41.31
 20
64.913
 10
41.372
 20
64.934
 10
41.436
 20
64.947
 10
41.501
 20
64.951
 10
41.566
 20
64.947
 10
41.63
 20
64.934
 10
41.692
 20
64.913
 10
41.751
 20
64.884
 10
41.805
 20
64.848
 10
41.855
 20
64.805
 10
41.898
 20
64.755
 10
41.934
 20
64.701
 10
41.963
 20
64.642
 10
41.984
 20
64.58
 10
41.997
 20
64.516
 97
0
 75
0
 76
1
 98
0
  0
HATCH
  5
47
330
17
100
AcDbEntity
  8
RASTER
 62
7
100
AcDbHatch
 10
0.0
 20
0.0
 30
0.0
210
0.0
220
0.0
230
1.0
  2
SOLID
 70
1
 71
0
 91
1
 92
3
 72
0
 73
1
 93
48
 10
14.2
 20
59.051
 10
14.196
 20
58.986
 10
14.183
 20
58.922
 10
14.162
 20
58.86
 10
14.133
 20
58.801
 10
14.097
 20
58.747
 10
14.054
 20
58.697
 10
14.004
 20
58.654
 10
13.95
 20
58.618
 10
13.891
 20
58.589
 10
13.829
 20
58.568
 10
13.765
 20
58.555
 10
13.7
 20
58.551
 10
13.635
 20
58.555
 10
13.571
 20
58.568
 10
13.509
 20
58.589
 10
13.45
 20
58.618
 10
13.396
 20
58.654
 10
13.346
 20
58.697
 10
13.303
 20
58.747
 10
13.267
 20
58.801
 10
13.238
 20
58.86
 10
13.217
 20
58.922
 10
13.204
 20
58.986
 10
13.2
 20
59.051
 10
13.204
 20
59.116
 10
13.217
 20
59.18
 10
13.238
 20
59.242
 10
13.267
 20
59.301
 10
13.303
 20
59.355
 10
13.346
 20
59.405
 10
13.396
 20
59.448
 10
13.45
 20
59.484
 10
13.509
 20
59.513
 10
13.571
 20
59.534
 10
13.635
 20
59.547
 10
13.7
 20
59.551
 10
13.765
 20
59.547
 10
13.829
 20
59.534
 10
13.891
 20
59.513
 10
13.95
 20
59.484
 10
14.004
 20
59.448
 10
14.054
 20
59.405
 10
14.097
 20
59.355
 10
14.133
 20
59.301
 10
14.162
 20
59.242
 10
14.183
 20
59.18
 10
14.196
 20
59.116
 97
0
 75
0
 76
1
 98
0
  0
HATCH
  5
48
330
17
100
AcDbEntity
  8
RASTER
 62
7
100
AcDbHatch
 10
0.0
 20
0.0
 30
0.0
210
0.0
220
0.0
230
1.0
  2
SOLID
 70
1
 71
0
 91
1
 92
3
 72
0
 73
1
 93
48
 10
42.001
 20
59.051
 10
41.997
 20
58.986
 10
41.984
 20
58.922
 10
41.963
 20
58.86
 10
41.934
 20
58.801
 10
41.898
 20
58.747
 10
41.855
 20
58.697
 10
41.805
 20
58.654
 10
41.751
 20
58.618
 10
41.692
 20
58.589
 10
41.63
 20
58.568
 10
41.566
 20
58.555
 10
41.501
 20
58.551
 10
41.436
 20
58.555
 10
41.372
 20
58.568
 10
41.31
 20
58.589
 10
41.251
 20
58.618
 10
41.197
 20
58.654
 10
41.147
 20
58.697
 10
41.104
 20
58.747
 10
41.068
 20
58.801
 10
41.039
 20
58.86
 10
41.018
 20
58.922
 10
41.005
 20
58.986
 10
41.001
 20
59.051
 10
41.005
 20
59.116
 10
41.018
 20
59.18
 10
41.039
 20
59.242
 10
41.068
 20
59.301
 10
41.104
 20
59.355
 10
41.147
 20
59.405
 10
41.197
 20
59.448
 10
41.251
 20
59.484
 10
41.31
 20
59.513
 10
41.372
 20
59.534
 10
41.436
 20
59.547
 10
41.501
 20
59.551
 10
41.566
 20
59.547
 10
41.63
 20
59.534
 10
41.692
 20
59.513
 10
41.751
 20
59.484
 10
41.805
 20
59.448
 10
41.855
 20
59.405
 10
41.898
 20
59.355
 10
41.934
 20
59.301
 10
41.963
 20
59.242
 10
41.984
 20
59.18
 10
41.997
 20
59.116
 97
0
 75
0
 76
1
 98
0
  0
LWPOLYLINE
  5
49
330
17
100
AcDbEntity
  8
CUT
100
AcDbPolyline
 90
24
 70
1
 10
58.261
 20
65.241
 10
99.342
 20
65.241
 10
99.342
 20
62.941
 10
102.442
 20
62.941
 10
102.442
 20
60.561
 10
99.342
 20
60.561
 10
99.342
 20
58.261
 10
93.485
 20
58.261
 10
93.485
 20
55.161
 10
87.547
 20
55.161
 10
87.547
 20
58.261
 10
81.77
 20
58.261
 10
81.77
 20
55.161
 10
75.833
 20
55.161
 10
75.833
 20
58.261
 10
70.056
 20
58.261
 10
70.056
 20
55.161
 10
64.118
 20
55.161
 10
64.118
 20
58.261
 10
58.261
 20
58.261
 10
58.261
 20
60.561
 10
55.161
 20
60.561
 10
55.161
 20
62.941
 10
58.261
 20
62.941
  0
LWPOLYLINE
  5
4A
330
17
100
AcDbEntity
  8
CUT
100
AcDbPolyline
 90
4
 70
1
 10
63.341
 20
62.811
 10
94.262
 20
62.811
 10
94.262
 20
60.691
 10
63.341
 20
60.691
  0
HATCH
  5
4B
330
17
100
AcDbEntity
  8
RASTER
 62
7
100
AcDbHatch
 10
0.0
 20
0.0
 30
0.0
210
0.0
220
0.0
230
1.0
  2
SOLID
 70
1
 71
0
 91
1
 92
3
 72
0
 73
1
 93
4
 10
58.901
 20
64.801
 10
62.701
 20
64.801
 10
62.701
 20
58.701
 10
58.901
 20
58.701
 97
0
 75
0
 76
1
 98
0
  0
HATCH
  5
4C
330
17
100
AcDbEntity
  8
RASTER
 62
7
100
AcDbHatch
 10
0.0
 20
0.0
 30
0.0
210
0.0
220
0.0
230
1.0
  2
SOLID
 70
1
 71
0
 91
1
 92
3
 72
0
 73
1
 93
4
 10
94.902
 20
64.801
 10
98.702
 20
64.801
 10
98.702
 20
58.701
 10
94.902
 20
58.701
 97
0
 75
0
 76
1
 98
0
  0
HATCH
  5
4D
330
17
100
AcDbEntity
  8
RASTER
 62
7
100
AcDbHatch
 10
0.0
 20
0.0
 30
0.0
210
0.0
220
0.0
230
1.0
  2
SOLID
 70
1
 71
0
 91
1
 92
3
 72
0
 73
1
 93
48
 10
65.401
 20
64.451
 10
65.397
 20
64.386
 10
65.384
 20
64.322
 10
65.363
 20
64.26
 10
65.334
 20
64.201
 10
65.298
 20
64.147
 10
65.255
 20
64.097
 10
65.205
 20
64.054
 10
65.151
 20
64.018
 10
65.092
 20
63.989
 10
65.03
 20
63.968
 10
64.966
 20
63.955
 10
64.901
 20
63.951
 10
64.836
 20
63.955
 10
64.772
 20
63.968
 10
64.71
 20
63.989
 10
64.651
 20
64.018
 10
64.597
 20
64.054
 10
64.547
 20
64.097
 10
64.504
 20
64.147
 10
64.468
 20
64.201
 10
64.439
 20
64.26
 10
64.418
 20
64.322
 10
64.405
 20
64.386
 10
64.401
 20
64.451
 10
64.405
 20
64.516
 10
64.418
 20
64.58
 10
64.439
 20
64.642
 10
64.468
 20
64.701
 10
64.504
 20
64.755
 10
64.547
 20
64.805
 10
64.597
 20
64.848
 10
64.651
 20
64.884
 10
64.71
 20
64.913
 10
64.772
 20
64.934
 10
64.836
 20
64.947
 10
64.901
 20
64.951
 10
64.966
 20
64.947
 10
65.03
 20
64.934
 10
65.092
 20
64.913
 10
65.151
 20
64.884
 10
65.205
 20
64.848
 10
65.255
 20
64.805
 10
65.298
 20
64.755
 10
65.334
 20
64.701
 10
65.363
 20
64.642
 10
65.384
 20
64.58
 10
65.397
 20
64.516
 97
0
 75
0
 76
1
 98
0
  0
HATCH
  5
4E
330
17
100
AcDbEntity
  8
RASTER
 62
7
100
AcDbHatch
 10
0.0
 20
0.0
 30
0.0
210
0.0
220
0.0
230
1.0
  2
SOLID
 70
1
 71
0
 91
1
 92
3
 72
0
 73
1
 93
48
 10
93.202
 20
64.451
 10
93.198
 20
64.386
 10
93.185
 20
64.322
 10
93.164
 20
64.26
 10
93.135
 20
64.201
 10
93.099
 20
64.147
 10
93.056
 20
64.097
 10
93.006
 20
64.054
 10
92.952
 20
64.018
 10
92.893
 20
63.989
 10
92.831
 20
63.968
 10
92.767
 20
63.955
 10
92.702
 20
63.951
 10
92.637
 20
63.955
 10
92.573
 20
63.968
 10
92.511
 20
63.989
 10
92.452
 20
64.018
 10
92.398
 20
64.054
 10
92.348
 20
64.097
 10
92.305
 20
64.147
 10
92.269
 20
64.201
 10
92.24
 20
64.26
 10
92.219
 20
64.322
 10
92.206
 20
64.386
 10
92.202
 20
64.451
 10
92.206
 20
64.516
 10
92.219
 20
64.58
 10
92.24
 20
64.642
 10
92.269
 20
64.701
 10
92.305
 20
64.755
 10
92.348
 20
64.805
 10
92.398
 20
64.848
 10
92.452
 20
64.884
 10
92.511
 20
64.913
 10
92.573
 20
64.934
 10
92.637
 20
64.947
 10
92.702
 20
64.951
 10
92.767
 20
64.947
 10
92.831
 20
64.934
 10
92.893
 20
64.913
 10
92.952
 20
64.884
 10
93.006
 20
64.848
 10
93.056
 20
64.805
 10
93.099
 20
64.755
 10
93.135
 20
64.701
 10
93.164
 20
64.642
 10
93.185
 20
64.58
 10
93.198
 20
64.516
 97
0
 75
0
 76
1
 98
0
  0
HATCH
  5
4F
330
17
100
AcDbEntity
  8
RASTER
 62
7
100
AcDbHatch
 10
0.0
 20
0.0
 30
0.0
210
0.0
220
0.0
230
1.0
  2
SOLID
 70
1
 71
0
 91
1
 92
3
 72
0
 73
1
 93
48
 10
65.401
 20
59.051
 10
65.397
 20
58.986
 10
65.384
 20
58.922
 10
65.363
 20
58.86
 10
65.334
 20
58.801
 10
65.298
 20
58.747
 10
65.255
 20
58.697
 10
65.205
 20
58.654
 10
65.151
 20
58.618
 10
65.092
 20
58.589
 10
65.03
 20
58.568
 10
64.966
 20
58.555
 10
64.901
 20
58.551
 10
64.836
 20
58.555
 10
64.772
 20
58.568
 10
64.71
 20
58.589
 10
64.651
 20
58.618
 10
64.597
 20
58.654
 10
64.547
 20
58.697
 10
64.504
 20
58.747
 10
64.468
 20
58.801
 10
64.439
 20
58.86
 10
64.418
 20
58.922
 10
64.405
 20
58.986
 10
64.401
 20
59.051
 10
64.405
 20
59.116
 10
64.418
 20
59.18
 10
64.439
 20
59.242
 10
64.468
 20
59.301
 10
64.504
 20
59.355
 10
64.547
 20
59.405
 10
64.597
 20
59.448
 10
64.651
 20
59.484
 10
64.71
 20
59.513
 10
64.772
 20
59.534
 10
64.836
 20
59.547
 10
64.901
 20
59.551
 10
64.966
 20
59.547
 10
65.03
 20
59.534
 10
65.092
 20
59.513
 10
65.151
 20
59.484
 10
65.205
 20
59.448
 10
65.255
 20
59.405
 10
65.298
 20
59.355
 10
65.334
 20
59.301
 10
65.363
 20
59.242
 10
65.384
 20
59.18
 10
65.397
 20
59.116
 97
0
 75
0
 76
1
 98
0
  0
HATCH
  5
50
330
17
100
AcDbEntity
  8
RASTER
 62
7
100
AcDbHatch
 10
0.0
 20
0.0
 30
0.0
210
0.0
220
0.0
230
1.0
  2
SOLID
 70
1
 71
0
 91
1
 92
3
 72
0
 73
1
 93
48
 10
93.202
 20
59.051
 10
93.198
 20
58.986
 10
93.185
 20
58.922
 10
93.164
 20
58.86
 10
93.135
 20
58.801
 10
93.099
 20
58.747
 10
93.056
 20
58.697
 10
93.006
 20
58.654
 10
92.952
 20
58.618
 10
92.893
 20
58.589
 10
92.831
 20
58.568
 10
92.767
 20
58.555
 10
92.702
 20
58.551
 10
92.637
 20
58.555
 10
92.573
 20
58.568
 10
92.511
 20
58.589
 10
92.452
 20
58.618
 10
92.398
 20
58.654
 10
92.348
 20
58.697
 10
92.305
 20
58.747
 10
92.269
 20
58.801
 10
92.24
 20
58.86
 10
92.219
 20
58.922
 10
92.206
 20
58.986
 10
92.202
 20
59.051
 10
92.206
 20
59.116
 10
92.219
 20
59.18
 10
92.24
 20
59.242
 10
92.269
 20
59.301
 10
92.305
 20
59.355
 10
92.348
 20
59.405
 10
92.398
 20
59.448
 10
92.452
 20
59.484
 10
92.511
 20
59.513
 10
92.573
 20
59.534
 10
92.637
 20
59.547
 10
92.702
 20
59.551
 10
92.767
 20
59.547
 10
92.831
 20
59.534
 10
92.893
 20
59.513
 10
92.952
 20
59.484
 10
93.006
 20
59.448
 10
93.056
 20
59.405
 10
93.099
 20
59.355
 10
93.135
 20
59.301
 10
93.164
 20
59.242
 10
93.185
 20
59.18
 10
93.198
 20
59.116
 97
0
 75
0
 76
1
 98
0
  0
LWPOLYLINE
  5
51
330
17
100
AcDbEntity
  8
CUT
100
AcDbPolyline
 90
76
 70
1
 10
3.96
 20
51.241
 10
7.1
 20
51.241
 10
12.686
 20
51.241
 10
12.686
 20
48.141
 10
18.151
 20
48.141
 10
18.151
 20
51.241
 10
23.777
 20
51.241
 10
23.777
 20
48.141
 10
29.242
 20
48.141
 10
29.242
 20
51.241
 10
34.868
 20
51.241
 10
34.868
 20
48.141
 10
40.333
 20
48.141
 10
40.333
 20
51.241
 10
45.959
 20
51.241
 10
45.959
 20
48.141
 10
51.424
 20
48.141
 10
51.424
 20
51.241
 10
57.05
 20
51.241
 10
57.05
 20
48.141
 10
62.515
 20
48.141
 10
62.515
 20
51.241
 10
68.101
 20
51.241
 10
71.241
 20
51.241
 10
71.241
 20
48.101
 10
71.241
 20
42.204
 10
68.141
 20
42.204
 10
68.141
 20
36.426
 10
71.241
 20
36.426
 10
71.241
 20
30.489
 10
68.141
 20
30.489
 10
68.141
 20
24.712
 10
71.241
 20
24.712
 10
71.241
 20
18.775
 10
68.141
 20
18.775
 10
68.141
 20
12.997
 10
71.241
 20
12.997
 10
71.241
 20
7.1
 10
71.241
 20
3.96
 10
68.101
 20
3.96
 10
62.515
 20
3.96
 10
62.515
 20
7.06
 10
57.05
 20
7.06
 10
57.05
 20
3.96
 10
51.424
 20
3.96
 10
51.424
 20
7.06
 10
45.959
 20
7.06
 10
45.959
 20
3.96
 10
40.333
 20
3.96
 10
40.333
 20
7.06
 10
34.868
 20
7.06
 10
34.868
 20
3.96
 10
29.242
 20
3.96
 10
29.242
 20
7.06
 10
23.777
 20
7.06
 10
23.777
 20
3.96
 10
18.151
 20
3.96
 10
18.151
 20
7.06
 10
12.686
 20
7.06
 10
12.686
 20
3.96
 10
7.1
 20
3.96
 10
3.96
 20
3.96
 10
3.96
 20
7.1
 10
3.96
 20
12.997
 10
7.06
 20
12.997
 10
7.06
 20
18.775
 10
3.96
 20
18.775
 10
3.96
 20
24.712
 10
7.06
 20
24.712
 10
7.06
 20
30.489
 10
3.96
 20
30.489
 10
3.96
 20
36.426
 10
7.06
 20
36.426
 10
7.06
 20
42.204
 10
3.96
 20
42.204
 10
3.96
 20
48.101
  0
ENDSEC
  0
SECTION
  2
OBJECTS
  0
DICTIONARY
  5
A
330
0
100
AcDbDictionary
281
1
  3
ACAD_COLOR
350
B
  3
ACAD_GROUP
350
C
  3
ACAD_LAYOUT
350
D
  3
ACAD_MATERIAL
350
E
  3
ACAD_MLEADERSTYLE
350
F
  3
ACAD_MLINESTYLE
350
10
  3
ACAD_PLOTSETTINGS
350
11
  3
ACAD_PLOTSTYLENAME
350
12
  3
ACAD_SCALELIST
350
14
  3
ACAD_TABLESTYLE
350
15
  3
ACAD_VISUALSTYLE
350
16
  3
EZDXF_META
350
2D
  0
DICTIONARY
  5
B
330
A
100
AcDbDictionary
281
1
  0
DICTIONARY
  5
C
330
A
100
AcDbDictionary
281
1
  0
DICTIONARY
  5
D
330
A
100
AcDbDictionary
281
1
  3
Model
350
1A
  3
Layout1
350
1E
  0
DICTIONARY
  5
E
330
A
100
AcDbDictionary
281
1
  3
ByBlock
350
1F
  3
ByLayer
350
20
  3
Global
350
21
  0
DICTIONARY
  5
F
330
A
100
AcDbDictionary
281
1
  3
Standard
350
2C
  0
DICTIONARY
  5
10
330
A
100
AcDbDictionary
281
1
  3
Standard
350
22
  0
DICTIONARY
  5
11
330
A
100
AcDbDictionary
281
1
  0
ACDBDICTIONARYWDFLT
  5
12
330
A
100
AcDbDictionary
281
1
  3
Normal
350
13
100
AcDbDictionaryWithDefault
340
13
  0
ACDBPLACEHOLDER
  5
13
330
12
  0
DICTIONARY
  5
14
330
A
100
AcDbDictionary
281
1
  0
DICTIONARY
  5
15
330
A
100
AcDbDictionary
281
1
  0
DICTIONARY
  5
16
330
A
100
AcDbDictionary
281
1
  0
LAYOUT
  5
1A
330
D
100
AcDbPlotSettings
  1

  4
A3
  6

 40
7.5
 41
20.0
 42
7.5
 43
20.0
 44
420.0
 45
297.0
 46
0.0
 47
0.0
 48
0.0
 49
0.0
140
0.0
141
0.0
142
1.0
143
1.0
 70
1024
 72
1
 73
0
 74
5
  7

 75
16
 76
0
 77
2
 78
300
147
1.0
148
0.0
149
0.0
100
AcDbLayout
  1
Model
 70
1
 71
0
 10
0.0
 20
0.0
 11
420.0
 21
297.0
 12
0.0
 22
0.0
 32
0.0
 14
1e+20
 24
1e+20
 34
1e+20
 15
-1e+20
 25
-1e+20
 35
-1e+20
146
0.0
 13
0.0
 23
0.0
 33
0.0
 16
1.0
 26
0.0
 36
0.0
 17
0.0
 27
1.0
 37
0.0
 76
1
330
17
  0
LAYOUT
  5
1E
330
D
100
AcDbPlotSettings
  1

  4
A3
  6

 40
7.5
 41
20.0
 42
7.5
 43
20.0
 44
420.0
 45
297.0
 46
0.0
 47
0.0
 48
0.0
 49
0.0
140
0.0
141
0.0
142
1.0
143
1.0
 70
0
 72
1
 73
0
 74
5
  7

 75
16
 76
0
 77
2
 78
300
147
1.0
148
0.0
149
0.0
100
AcDbLayout
  1
Layout1
 70
1
 71
1
 10
0.0
 20
0.0
 11
420.0
 21
297.0
 12
0.0
 22
0.0
 32
0.0
 14
1e+20
 24
1e+20
 34
1e+20
 15
-1e+20
 25
-1e+20
 35
-1e+20
146
0.0
 13
0.0
 23
0.0
 33
0.0
 16
1.0
 26
0.0
 36
0.0
 17
0.0
 27
1.0
 37
0.0
 76
1
330
1B
  0
MATERIAL
  5
1F
102
{ACAD_REACTORS
330
E
102
}
330
E
100
AcDbMaterial
  1
ByBlock
  2

 70
0
 40
1.0
 71
1
 41
1.0
 91
-1023410177
 42
1.0
 72
1
  3

 73
1
 74
1
 75
1
 44
0.5
 73
0
 45
1.0
 46
1.0
 77
1
  4

 78
1
 79
1
170
1
 48
1.0
171
1
  6

172
1
173
1
174
1
140
1.0
141
1.0
175
1
  7

176
1
177
1
178
1
143
1.0
179
1
  8

270
1
271
1
272
1
145
1.0
146
1.0
273
1
  9

274
1
275
1
276
1
 42
1.0
 72
1
  3

 73
1
 74
1
 75
1
 94
63
  0
MATERIAL
  5
20
102
{ACAD_REACTORS
330
E
102
}
330
E
100
AcDbMaterial
  1
ByLayer
  2

 70
0
 40
1.0
 71
1
 41
1.0
 91
-1023410177
 42
1.0
 72
1
  3

 73
1
 74
1
 75
1
 44
0.5
 73
0
 45
1.0
 46
1.0
 77
1
  4

 78
1
 79
1
170
1
 48
1.0
171
1
  6

172
1
173
1
174
1
140
1.0
141
1.0
175
1
  7

176
1
177
1
178
1
143
1.0
179
1
  8

270
1
271
1
272
1
145
1.0
146
1.0
273
1
  9

274
1
275
1
276
1
 42
1.0
 72
1
  3

 73
1
 74
1
 75
1
 94
63
  0
MATERIAL
  5
21
102
{ACAD_REACTORS
330
E
102
}
330
E
100
AcDbMaterial
  1
Global
  2

 70
0
 40
1.0
 71
1
 41
1.0
 91
-1023410177
 42
1.0
 72
1
  3

 73
1
 74
1
 75
1
 44
0.5
 73
0
 45
1.0
 46
1.0
 77
1
  4

 78
1
 79
1
170
1
 48
1.0
171
1
  6

172
1
173
1
174
1
140
1.0
141
1.0
175
1
  7

176
1
177
1
178
1
143
1.0
179
1
  8

270
1
271
1
272
1
145
1.0
146
1.0
273
1
  9

274
1
275
1
276
1
 42
1.0
 72
1
  3

 73
1
 74
1
 75
1
 94
63
  0
MLINESTYLE
  5
22
102
{ACAD_REACTORS
330
10
102
}
330
10
100
AcDbMlineStyle
  2
Standard
 70
0
  3

 62
256
 51
90.0
 52
90.0
 71
2
 49
0.5
 62
256
  6
BYLAYER
 49
-0.5
 62
256
  6
BYLAYER
  0
MLEADERSTYLE
  5
2C
102
{ACAD_REACTORS
330
F
102
}
330
F
100
AcDbMLeaderStyle
179
2
170
2
171
1
172
0
 90
2
 40
0.0
 41
0.0
173
1
 91
-1056964608
 92
-2
290
1
 42
2.0
291
1
 43
8.0
  3
Standard
 44
4.0
300

342
29
174
1
175
1
176
0
178
1
 93
-1056964608
 45
4.0
292
0
297
0
 46
4.0
 94
-1056964608
 47
1.0
 49
1.0
140
1.0
294
1
141
0.0
177
0
142
1.0
295
0
296
0
143
3.75
271
0
272
9
273
9
  0
DICTIONARY
  5
2D
330
A
100
AcDbDictionary
280
1
281
1
  3
CREATED_BY_EZDXF
350
2E
  3
WRITTEN_BY_EZDXF
350
54
  0
DICTIONARYVAR
  5
2E
330
2D
100
DictionaryVariables
280
0
  1
1.4.2 @ 2026-09-12T15:10:38.001407+00:00
  0
DICTIONARYVAR
  5
54
330
2D
100
DictionaryVariables
280
0
  1
1.4.2 @ 2026-09-12T15:10:38.007075+00:00
  0
ENDSEC
  0
EOF
