  0
SECTION
  2
HEADER
  9
$ACADVER
  1
AC1015
  9
$ACADMAINTVER
 70
6
  9
$DWGCODEPAGE
  3
ANSI_1252
  9
$INSBASE
 10
0.0
 20
0.0
 30
0.0
  9
$EXTMIN
 10
1e+20
 20
1e+20
 30
1e+20
  9
$EXTMAX
 10
-1e+20
 20
-1e+20
 30
-1e+20
  9
$LIMMIN
 10
0.0
 20
0.0
  9
$LIMMAX
 10
420.0
 20
297.0
  9
$ORTHOMODE
 70
0
  9
$REGENMODE
 70
1
  9
$FILLMODE
 70
1
  9
$QTEXTMODE
 70
0
  9
$MIRRTEXT
 70
1
  9
$LTSCALE
 40
1.0
  9
$ATTMODE
 70
1
  9
$TEXTSIZE
 40
2.5
  9
$TRACEWID
 40
1.0
  9
$TEXTSTYLE
  7
Standard
  9
$CLAYER
  8
0
  9
$CELTYPE
  6
ByLayer
  9
$CECOLOR
 62
256
  9
$CELTSCALE
 40
1.0
  9
$DISPSILH
 70
0
  9
$DIMSCALE
 40
1.0
  9
$DIMASZ
 40
2.5
  9
$DIMEXO
 40
0.625
  9
$DIMDLI
 40
3.75
  9
$DIMRND
 40
0.0
  9
$DIMDLE
 40
0.0
  9
$DIMEXE
 40
1.25
  9
$DIMTP
 40
0.0
  9
$DIMTM
 40
0.0
  9
$DIMTXT
 40
2.5
  9
$DIMCEN
 40
2.5
  9
$DIMTSZ
 40
0.0
  9
$DIMTOL
 70
0
  9
$DIMLIM
 70
0
  9
$DIMTIH
 70
0
  9
$DIMTOH
 70
0
  9
$DIMSE1
 70
0
  9
$DIMSE2
 70
0
  9
$DIMTAD
 70
1
  9
$DIMZIN
 70
8
  9
$DIMBLK
  1

  9
$DIMASO
 70
1
  9
$DIMSHO
 70
1
  9
$DIMPOST
  1

  9
$DIMAPOST
  1

  9
$DIMALT
 70
0
  9
$DIMALTD
 70
3
  9
$DIMALTF
 40
0.03937007874
  9
$DIMLFAC
 40
1.0
  9
$DIMTOFL
 70
1
  9
$DIMTVP
 40
0.0
  9
$DIMTIX
 70
0
  9
$DIMSOXD
 70
0
  9
$DIMSAH
 70
0
  9
$DIMBLK1
  1

  9
$DIMBLK2
  1

  9
$DIMSTYLE
  2
ISO-25
  9
$DIMCLRD
 70
0
  9
$DIMCLRE
 70
0
  9
$DIMCLRT
 70
0
  9
$DIMTFAC
 40
1.0
  9
$DIMGAP
 40
0.625
  9
$DIMJUST
 70
0
  9
$DIMSD1
 70
0
  9
$DIMSD2
 70
0
  9
$DIMTOLJ
 70
0
  9
$DIMTZIN
 70
8
  9
$DIMALTZ
 70
0
  9
$DIMALTTZ
 70
0
  9
$DIMUPT
 70
0
  9
$DIMDEC
 70
2
  9
$DIMTDEC
 70
2
  9
$DIMALTU
 70
2
  9
$DIMALTTD
 70
3
  9
$DIMTXSTY
  7
Standard
  9
$DIMAUNIT
 70
0
  9
$DIMADEC
 70
0
  9
$DIMALTRND
 40
0.0
  9
$DIMAZIN
 70
0
  9
$DIMDSEP
 70
44
  9
$DIMATFIT
 70
3
  9
$DIMFRAC
 70
0
  9
$DIMLDRBLK
  1

  9
$DIMLUNIT
 70
2
  9
$DIMLWD
 70
-2
  9
$DIMLWE
 70
-2
  9
$DIMTMOVE
 70
0
  9
$LUNITS
 70
2
  9
$LUPREC
 70
4
  9
$SKETCHINC
 40
1.0
  9
$FILLETRAD
 40
10.0
  9
$AUNITS
 70
0
  9
$AUPREC
 70
2
  9
$MENU
  1
.
  9
$ELEVATION
 40
0.0
  9
$PELEVATION
 40
0.0
  9
$THICKNESS
 40
0.0
  9
$LIMCHECK
 70
0
  9
$CHAMFERA
 40
0.0
  9
$CHAMFERB
 40
0.0
  9
$CHAMFERC
 40
0.0
  9
$CHAMFERD
 40
0.0
  9
$SKPOLY
 70
0
  9
$TDCREATE
 40
2461284.9872685187
  9
$TDUCREATE
 40
2458532.153996898
  9
$TDUPDATE
 40
2461284.9872685187
  9
$TDUUPDATE
 40
2458532.1544311
  9
$TDINDWG
 40
0.0
  9
$TDUSRTIMER
 40
0.0
  9
$USRTIMER
 70
1
  9
$ANGBASE
 50
0.0
  9
$ANGDIR
 70
0
  9
$PDMODE
 70
0
  9
$PDSIZE
 40
0.0
  9
$PLINEWID
 40
0.0
  9
$SPLFRAME
 70
0
  9
$SPLINETYPE
 70
6
  9
$SPLINESEGS
 70
8
  9
$HANDSEED
  5
43
  9
$SURFTAB1
 70
6
  9
$SURFTAB2
 70
6
  9
$SURFTYPE
 70
6
  9
$SURFU
 70
6
  9
$SURFV
 70
6
  9
$UCSBASE
  2

  9
$UCSNAME
  2

  9
$UCSORG
 10
0.0
 20
0.0
 30
0.0
  9
$UCSXDIR
 10
1.0
 20
0.0
 30
0.0
  9
$UCSYDIR
 10
0.0
 20
1.0
 30
0.0
  9
$UCSORTHOREF
  2

  9
$UCSORTHOVIEW
 70
0
  9
$UCSORGTOP
 10
0.0
 20
0.0
 30
0.0
  9
$UCSORGBOTTOM
 10
0.0
 20
0.0
 30
0.0
  9
$UCSORGLEFT
 10
0.0
 20
0.0
 30
0.0
  9
$UCSORGRIGHT
 10
0.0
 20
0.0
 30
0.0
  9
$UCSORGFRONT
 10
0.0
 20
0.0
 30
0.0
  9
$UCSORGBACK
 10
0.0
 20
0.0
 30
0.0
  9
$PUCSBASE
  2

  9
$PUCSNAME
  2

  9
$PUCSORG
 10
0.0
 20
0.0
 30
0.0
  9
$PUCSXDIR
 10
1.0
 20
0.0
 30
0.0
  9
$PUCSYDIR
 10
0.0
 20
1.0
 30
0.0
  9
$PUCSORTHOREF
  2

  9
$PUCSORTHOVIEW
 70
0
  9
$PUCSORGTOP
 10
0.0
 20
0.0
 30
0.0
  9
$PUCSORGBOTTOM
 10
0.0
 20
0.0
 30
0.0
  9
$PUCSORGLEFT
 10
0.0
 20
0.0
 30
0.0
  9
$PUCSORGRIGHT
 10
0.0
 20
0.0
 30
0.0
  9
$PUCSORGFRONT
 10
0.0
 20
0.0
 30
0.0
  9
$PUCSORGBACK
 10
0.0
 20
0.0
 30
0.0
  9
$USERI1
 70
0
  9
$USERI2
 70
0
  9
$USERI3
 70
0
  9
$USERI4
 70
0
  9
$USERI5
 70
0
  9
$USERR1
 40
0.0
  9
$USERR2
 40
0.0
  9
$USERR3
 40
0.0
  9
$USERR4
 40
0.0
  9
$USERR5
 40
0.0
  9
$WORLDVIEW
 70
1
  9
$SHADEDGE
 70
3
  9
$SHADEDIF
 70
70
  9
$TILEMODE
 70
1
  9
$MAXACTVP
 70
64
  9
$PINSBASE
 10
0.0
 20
0.0
 30
0.0
  9
$PLIMCHECK
 70
0
  9
$PEXTMIN
 10
1e+20
 20
1e+20
 30
1e+20
  9
$PEXTMAX
 10
-1e+20
 20
-1e+20
 30
-1e+20
  9
$PLIMMIN
 10
0.0
 20
0.0
  9
$PLIMMAX
 10
420.0
 20
297.0
  9
$UNITMODE
 70
0
  9
$VISRETAIN
 70
1
  9
$PLINEGEN
 70
0
  9
$PSLTSCALE
 70
1
  9
$TREEDEPTH
 70
3020
  9
$CMLSTYLE
  2
Standard
  9
$CMLJUST
 70
0
  9
$CMLSCALE
 40
20.0
  9
$PROXYGRAPHICS
 70
1
  9
$MEASUREMENT
 70
1
  9
$CELWEIGHT
370
-1
  9
$ENDCAPS
280
0
  9
$JOINSTYLE
280
0
  9
$LWDISPLAY
290
0
  9
$INSUNITS
 70
4
  9
$HYPERLINKBASE
  1

  9
$STYLESHEET
  1

  9
$XEDIT
290
1
  9
$CEPSNTYPE
380
0
  9
$PSTYLEMODE
290
1
  9
$FINGERPRINTGUID
  2
{C0609757-5816-4972-8D26-E46FC9CDDB7F}
  9
$VERSIONGUID
  2
{315137F6-1182-471C-91E5-D2ED99BB45EC}
  9
$EXTNAMES
290
1
  9
$PSVPSCALE
 40
0.0
  9
$OLESTARTUP
290
0
  0
ENDSEC
  0
SECTION
  2
CLASSES
  0
CLASS
  1
ACDBDICTIONARYWDFLT
  2
AcDbDictionaryWithDefault
  3
ObjectDBX Classes
 90
0
280
0
281
0
  0
CLASS
  1
SUN
  2
AcDbSun
  3
SCENEOE
 90
1153
280
0
281
0
  0
CLASS
  1
VISUALSTYLE
  2
AcDbVisualStyle
  3
ObjectDBX Classes
 90
4095
280
0
281
0
  0
CLASS
  1
MATERIAL
  2
AcDbMaterial
  3
ObjectDBX Classes
 90
1153
280
0
281
0
  0
CLASS
  1
SCALE
  2
AcDbScale
  3
ObjectDBX Classes
 90
1153
280
0
281
0
  0
CLASS
  1
TABLESTYLE
  2
AcDbTableStyle
  3
ObjectDBX Classes
 90
4095
280
0
281
0
  0
CLASS
  1
MLEADERSTYLE
  2
AcDbMLeaderStyle
  3
ACDB_MLEADERSTYLE_CLASS
 90
4095
280
0
281
0
  0
CLASS
  1
DICTIONARYVAR
  2
AcDbDictionaryVar
  3
ObjectDBX Classes
 90
0
280
0
281
0
  0
CLASS
  1
CELLSTYLEMAP
  2
AcDbCellStyleMap
  3
ObjectDBX Classes
 90
1152
280
0
281
0
  0
CLASS
  1
MENTALRAYRENDERSETTINGS
  2
AcDbMentalRayRenderSettings
  3
SCENEOE
 90
1024
280
0
281
0
  0
CLASS
  1
ACDBDETAILVIEWSTYLE
  2
AcDbDetailViewStyle
  3
ObjectDBX Classes
 90
1025
280
0
281
0
  0
CLASS
  1
ACDBSECTIONVIEWSTYLE
  2
AcDbSectionViewStyle
  3
ObjectDBX Classes
 90
1025
280
0
281
0
  0
CLASS
  1
RASTERVARIABLES
  2
AcDbRasterVariables
  3
ISM
 90
0
280
0
281
0
  0
CLASS
  1
ACDBPLACEHOLDER
  2
AcDbPlaceHolder
  3
ObjectDBX Classes
 90
0
280
0
281
0
  0
CLASS
  1
LAYOUT
  2
AcDbLayout
  3
ObjectDBX Classes
 90
0
280
0
281
0
  0
ENDSEC
  0
SECTION
  2
TABLES
  0
TABLE
  2
VPORT
  5
8
330
0
100
AcDbSymbolTable
 70
1
  0
VPORT
  5
23
330
8
100
AcDbSymbolTableRecord
100
AcDbViewportTableRecord
  2
*Active
 70
0
 10
0.0
 20
0.0
 11
1.0
 21
1.0
 12
0.0
 22
0.0
 13
0.0
 23
0.0
 14
0.5
 24
0.5
 15
0.5
 25
0.5
 16
0.0
 26
0.0
 36
1.0
 17
0.0
 27
0.0
 37
0.0
 40
1000.0
 41
1.34
 42
50.0
 43
0.0
 44
0.0
 50
0.0
 51
0.0
 71
0
 72
1000
 73
1
 74
3
 75
0
 76
0
 77
0
 78
0
281
0
 65
0
146
0.0
  0
ENDTAB
  0
TABLE
  2
LTYPE
  5
2
330
0
100
AcDbSymbolTable
 70
3
  0
LTYPE
  5
24
330
2
100
AcDbSymbolTableRecord
100
AcDbLinetypeTableRecord
  2
ByBlock
 70
0
  3

 72
65
 73
0
 40
0.0
  0
LTYPE
  5
25
330
2
100
AcDbSymbolTableRecord
100
AcDbLinetypeTableRecord
  2
ByLayer
 70
0
  3

 72
65
 73
0
 40
0.0
  0
LTYPE
  5
26
330
2
100
AcDbSymbolTableRecord
100
AcDbLinetypeTableRecord
  2
Continuous
 70
0
  3

 72
65
 73
0
 40
0.0
  0
ENDTAB
  0
TABLE
  2
LAYER
  5
1
330
0
100
AcDbSymbolTable
 70
4
  0
LAYER
  5
27
330
1
100
AcDbSymbolTableRecord
100
AcDbLayerTableRecord
  2
0
 70
0
 62
7
  6
Continuous
370
-3
390
13
  0
LAYER
  5
28
330
1
100
AcDbSymbolTableRecord
100
AcDbLayerTableRecord
  2
Defpoints
 70
0
 62
7
  6
Continuous
290
0
370
-3
390
13
  0
LAYER
  5
2F
330
1
100
AcDbSymbolTableRecord
100
AcDbLayerTableRecord
  2
CUT
 70
0
 62
1
  6
Continuous
370
-3
390
13
  0
LAYER
  5
30
330
1
100
AcDbSymbolTableRecord
100
AcDbLayerTableRecord
  2
RASTER
 70
0
 62
7
  6
Continuous
370
-3
390
13
  0
ENDTAB
  0
TABLE
  2
STYLE
  5
5
330
0
100
AcDbSymbolTable
 70
1
  0
STYLE
  5
29
330
5
100
AcDbSymbolTableRecord
100
AcDbTextStyleTableRecord
  2
Standard
 70
0
 40
0.0
 41
1.0
 50
0.0
 71
0
 42
2.5
  3
txt
  4

  0
ENDTAB
  0
TABLE
  2
VIEW
  5
7
330
0
100
AcDbSymbolTable
 70
0
  0
ENDTAB
  0
TABLE
  2
UCS
  5
6
330
0
100
AcDbSymbolTable
 70
0
  0
ENDTAB
  0
TABLE
  2
APPID
  5
3
330
0
100
AcDbSymbolTable
 70
3
  0
APPID
  5
2A
330
3
100
AcDbSymbolTableRecord
100
AcDbRegAppTableRecord
  2
ACAD
 70
0
  0
APPID
  5
40
330
3
100
AcDbSymbolTableRecord
100
AcDbRegAppTableRecord
  2
HATCHBACKGROUNDCOLOR
 70
0
  0
APPID
  5
41
330
3
100
AcDbSymbolTableRecord
100
AcDbRegAppTableRecord
  2
EZDXF
 70
0
  0
ENDTAB
  0
TABLE
  2
DIMSTYLE
  5
4
330
0
100
AcDbSymbolTable
 70
1
100
AcDbDimStyleTable
  0
DIMSTYLE
105
2B
330
4
100
AcDbSymbolTableRecord
100
AcDbDimStyleTableRecord
  2
Standard
 70
0
  3

  4

 40
1.0
 41
2.5
 42
0.625
 43
3.75
 44
1.25
 45
0.0
 46
0.0
 47
0.0
 48
0.0
140
2.5
141
2.5
142
0.0
143
0.03937007874
144
1.0
145
0.0
146
1.0
147
0.625
148
0.0
 71
0
 72
0
 73
0
 74
0
 75
0
 76
0
 77
1
 78
8
 79
3
170
0
171
3
172
1
173
0
174
0
175
0
176
0
177
0
178
0
179
2
271
2
272
2
273
2
274
3
275
0
276
0
277
2
278
44
279
0
280
0
281
0
282
0
283
0
284
8
285
0
286
0
288
0
289
3
371
-2
372
-2
  0
ENDTAB
  0
TABLE
  2
BLOCK_RECORD
  5
9
330
0
100
AcDbSymbolTable
 70
2
  0
BLOCK_RECORD
  5
17
330
9
100
AcDbSymbolTableRecord
100
AcDbBlockTableRecord
  2
*Model_Space
340
1A
  0
BLOCK_RECORD
  5
1B
330
9
100
AcDbSymbolTableRecord
100
AcDbBlockTableRecord
  2
*Paper_Space
340
1E
  0
ENDTAB
  0
ENDSEC
  0
SECTION
  2
BLOCKS
  0
BLOCK
  5
18
330
17
100
AcDbEntity
  8
0
100
AcDbBlockBegin
  2
*Model_Space
 70
0
 10
0.0
 20
0.0
 30
0.0
  3
*Model_Space
  1

  0
ENDBLK
  5
19
330
17
100
AcDbEntity
  8
0
100
AcDbBlockEnd
  0
BLOCK
  5
1C
330
1B
100
AcDbEntity
  8
0
100
AcDbBlockBegin
  2
*Paper_Space
 70
0
 10
0.0
 20
0.0
 30
0.0
  3
*Paper_Space
  1

  0
ENDBLK
  5
1D
330
1B
100
AcDbEntity
  8
0
100
AcDbBlockEnd
  0
ENDSEC
  0
SECTION
  2
ENTITIES
  0
LWPOLYLINE
  5
31
330
17
100
AcDbEntity
  8
CUT
100
AcDbPolyline
 90
436
 70
1
 10
53.253
 20
37.036
 10
53.338
 20
36.614
 10
53.338
 20
20.586
 10
53.253
 20
20.164
 10
53.006
 20
19.794
 10
52.636
 20
19.547
 10
52.214
 20
19.463
 10
50.686
 20
19.463
 10
50.264
 20
19.547
 10
49.894
 20
19.794
 10
49.647
 20
20.164
 10
49.563
 20
20.586
 10
49.563
 20
23.963
 10
48.921
 20
23.963
 10
49.034
 20
23.802
 10
49.14
 20
23.324
 10
49.053
 20
22.842
 10
48.785
 20
22.432
 10
48.38
 20
22.156
 10
47.9
 20
22.06
 10
47.42
 20
22.156
 10
47.015
 20
22.432
 10
46.747
 20
22.842
 10
46.66
 20
23.324
 10
46.766
 20
23.802
 10
46.879
 20
23.963
 10
43.521
 20
23.963
 10
43.634
 20
23.802
 10
43.74
 20
23.324
 10
43.653
 20
22.842
 10
43.385
 20
22.432
 10
42.98
 20
22.156
 10
42.5
 20
22.06
 10
42.02
 20
22.156
 10
41.615
 20
22.432
 10
41.347
 20
22.842
 10
41.26
 20
23.324
 10
41.366
 20
23.802
 10
41.479
 20
23.963
 10
40.838
 20
23.963
 10
40.838
 20
23.459
 10
40.838
 20
22.969
 10
40.838
 20
22.48
 10
40.84
 20
21.993
 10
40.864
 20
21.506
 10
40.875
 20
21.201
 10
40.888
 20
20.89
 10
40.877
 20
20.596
 10
40.861
 20
20.299
 10
40.818
 20
20.021
 10
40.769
 20
19.744
 10
40.692
 20
19.487
 10
40.611
 20
19.23
 10
40.4
 20
18.768
 10
40.147
 20
18.353
 10
39.859
 20
17.982
 10
39.536
 20
17.654
 10
39.181
 20
17.367
 10
38.789
 20
17.122
 10
38.361
 20
16.921
 10
37.898
 20
16.761
 10
37.652
 20
16.7
 10
37.407
 20
16.636
 10
37.144
 20
16.588
 10
36.882
 20
16.535
 10
36.6
 20
16.495
 10
36.318
 20
16.451
 10
36.015
 20
16.421
 10
35.71
 20
16.391
 10
35.214
 20
16.366
 10
34.721
 20
16.362
 10
34.231
 20
16.362
 10
33.741
 20
16.362
 10
33.238
 20
16.362
 10
33.238
 20
15.721
 10
33.398
 20
15.834
 10
33.876
 20
15.94
 10
34.358
 20
15.853
 10
34.768
 20
15.585
 10
35.044
 20
15.18
 10
35.14
 20
14.7
 10
35.044
 20
14.22
 10
34.768
 20
13.815
 10
34.358
 20
13.547
 10
33.876
 20
13.46
 10
33.398
 20
13.566
 10
33.238
 20
13.679
 10
33.238
 20
10.321
 10
33.398
 20
10.434
 10
33.876
 20
10.54
 10
34.358
 20
10.453
 10
34.768
 20
10.185
 10
35.044
 20
9.78
 10
35.14
 20
9.3
 10
35.044
 20
8.82
 10
34.768
 20
8.415
 10
34.358
 20
8.147
 10
33.876
 20
8.06
 10
33.398
 20
8.166
 10
33.238
 20
8.279
 10
33.238
 20
7.638
 10
36.614
 20
7.638
 10
37.036
 20
7.553
 10
37.406
 20
7.306
 10
37.653
 20
6.936
 10
37.738
 20
6.514
 10
37.738
 20
4.986
 10
37.653
 20
4.564
 10
37.406
 20
4.194
 10
37.036
 20
3.947
 10
36.614
 20
3.862
 10
20.586
 20
3.862
 10
20.164
 20
3.947
 10
19.794
 20
4.194
 10
19.547
 20
4.564
 10
19.463
 20
4.986
 10
19.463
 20
6.514
 10
19.547
 20
6.936
 10
19.794
 20
7.306
 10
20.164
 20
7.553
 10
20.586
 20
7.638
 10
23.963
 20
7.638
 10
23.963
 20
8.279
 10
23.802
 20
8.166
 10
23.324
 20
8.06
 10
22.842
 20
8.147
 10
22.432
 20
8.415
 10
22.156
 20
8.82
 10
22.06
 20
9.3
 10
22.156
 20
9.78
 10
22.432
 20
10.185
 10
22.842
 20
10.453
 10
23.324
 20
10.54
 10
23.802
 20
10.434
 10
23.963
 20
10.321
 10
23.963
 20
13.679
 10
23.802
 20
13.566
 10
23.324
 20
13.46
 10
22.842
 20
13.547
 10
22.432
 20
13.815
 10
22.156
 20
14.22
 10
22.06
 20
14.7
 10
22.156
 20
15.18
 10
22.432
 20
15.585
 10
22.842
 20
15.853
 10
23.324
 20
15.94
 10
23.802
 20
15.834
 10
23.963
 20
15.721
 10
23.963
 20
16.362
 10
23.459
 20
16.362
 10
22.969
 20
16.362
 10
22.48
 20
16.362
 10
21.994
 20
16.355
 10
21.502
 20
16.332
 10
21.192
 20
16.338
 10
20.879
 20
16.353
 10
20.588
 20
16.397
 10
20.299
 20
16.446
 10
20.032
 20
16.518
 10
19.769
 20
16.592
 10
19.527
 20
16.683
 10
19.29
 20
16.771
 10
18.85
 20
16.976
 10
18.45
 20
17.205
 10
18.085
 20
17.464
 10
17.76
 20
17.758
 10
17.457
 20
18.076
 10
17.191
 20
18.441
 10
16.962
 20
18.845
 10
16.762
 20
19.289
 10
16.679
 20
19.529
 10
16.593
 20
19.771
 10
16.524
 20
20.035
 10
16.455
 20
20.301
 10
16.407
 20
20.589
 10
16.363
 20
20.879
 10
16.346
 20
21.191
 10
16.337
 20
21.5
 10
16.356
 20
21.993
 10
16.363
 20
22.48
 10
16.363
 20
22.969
 10
16.363
 20
23.459
 10
16.363
 20
23.963
 10
15.721
 20
23.963
 10
15.834
 20
23.802
 10
15.94
 20
23.324
 10
15.853
 20
22.842
 10
15.585
 20
22.432
 10
15.18
 20
22.156
 10
14.7
 20
22.06
 10
14.22
 20
22.156
 10
13.815
 20
22.432
 10
13.547
 20
22.842
 10
13.46
 20
23.324
 10
13.566
 20
23.802
 10
13.679
 20
23.963
 10
10.321
 20
23.963
 10
10.434
 20
23.802
 10
10.54
 20
23.324
 10
10.453
 20
22.842
 10
10.185
 20
22.432
 10
9.78
 20
22.156
 10
9.3
 20
22.06
 10
8.82
 20
22.156
 10
8.415
 20
22.432
 10
8.147
 20
22.842
 10
8.06
 20
23.324
 10
8.166
 20
23.802
 10
8.279
 20
23.963
 10
7.638
 20
23.963
 10
7.638
 20
20.586
 10
7.553
 20
20.164
 10
7.306
 20
19.794
 10
6.936
 20
19.547
 10
6.514
 20
19.463
 10
4.986
 20
19.463
 10
4.564
 20
19.547
 10
4.194
 20
19.794
 10
3.947
 20
20.164
 10
3.863
 20
20.586
 10
3.863
 20
36.614
 10
3.947
 20
37.036
 10
4.194
 20
37.406
 10
4.564
 20
37.653
 10
4.986
 20
37.738
 10
6.514
 20
37.738
 10
6.936
 20
37.653
 10
7.306
 20
37.406
 10
7.553
 20
37.036
 10
7.638
 20
36.614
 10
7.638
 20
33.238
 10
8.279
 20
33.238
 10
8.166
 20
33.398
 10
8.06
 20
33.876
 10
8.147
 20
34.358
 10
8.415
 20
34.768
 10
8.82
 20
35.044
 10
9.3
 20
35.14
 10
9.78
 20
35.044
 10
10.185
 20
34.768
 10
10.453
 20
34.358
 10
10.54
 20
33.876
 10
10.434
 20
33.398
 10
10.321
 20
33.238
 10
13.679
 20
33.238
 10
13.566
 20
33.398
 10
13.46
 20
33.876
 10
13.547
 20
34.358
 10
13.815
 20
34.768
 10
14.22
 20
35.044
 10
14.7
 20
35.14
 10
15.18
 20
35.044
 10
15.585
 20
34.768
 10
15.853
 20
34.358
 10
15.94
 20
33.876
 10
15.834
 20
33.398
 10
15.721
 20
33.238
 10
16.363
 20
33.238
 10
16.363
 20
33.741
 10
16.363
 20
34.231
 10
16.363
 20
34.721
 10
16.365
 20
35.214
 10
16.389
 20
35.71
 10
16.421
 20
36.016
 10
16.453
 20
36.32
 10
16.502
 20
36.602
 10
16.545
 20
36.882
 10
16.602
 20
37.143
 10
16.652
 20
37.404
 10
16.716
 20
37.647
 10
16.775
 20
37.892
 10
16.927
 20
38.356
 10
17.118
 20
38.788
 10
17.356
 20
39.187
 10
17.642
 20
39.549
 10
17.976
 20
39.87
 10
18.354
 20
40.151
 10
18.774
 20
40.394
 10
19.236
 20
40.597
 10
19.491
 20
40.677
 10
19.746
 20
40.753
 10
20.023
 20
40.805
 10
20.299
 20
40.851
 10
20.595
 20
40.871
 10
20.889
 20
40.886
 10
21.2
 20
40.876
 10
21.505
 20
40.866
 10
21.994
 20
40.841
 10
22.48
 20
40.838
 10
22.969
 20
40.838
 10
23.459
 20
40.838
 10
23.963
 20
40.838
 10
23.963
 20
41.479
 10
23.802
 20
41.366
 10
23.324
 20
41.26
 10
22.842
 20
41.347
 10
22.432
 20
41.615
 10
22.156
 20
42.02
 10
22.06
 20
42.5
 10
22.156
 20
42.98
 10
22.432
 20
43.385
 10
22.842
 20
43.653
 10
23.324
 20
43.74
 10
23.802
 20
43.634
 10
23.963
 20
43.521
 10
23.963
 20
46.879
 10
23.802
 20
46.766
 10
23.324
 20
46.66
 10
22.842
 20
46.747
 10
22.432
 20
47.015
 10
22.156
 20
47.42
 10
22.06
 20
47.9
 10
22.156
 20
48.38
 10
22.432
 20
48.785
 10
22.842
 20
49.053
 10
23.324
 20
49.14
 10
23.802
 20
49.034
 10
23.963
 20
48.921
 10
23.963
 20
49.563
 10
20.586
 20
49.563
 10
20.164
 20
49.647
 10
19.794
 20
49.894
 10
19.547
 20
50.264
 10
19.463
 20
50.686
 10
19.463
 20
52.214
 10
19.547
 20
52.636
 10
19.794
 20
53.006
 10
20.164
 20
53.253
 10
20.586
 20
53.338
 10
36.614
 20
53.338
 10
37.036
 20
53.253
 10
37.406
 20
53.006
 10
37.653
 20
52.636
 10
37.738
 20
52.214
 10
37.738
 20
50.686
 10
37.653
 20
50.264
 10
37.406
 20
49.894
 10
37.036
 20
49.647
 10
36.614
 20
49.563
 10
33.238
 20
49.563
 10
33.238
 20
48.921
 10
33.398
 20
49.034
 10
33.876
 20
49.14
 10
34.358
 20
49.053
 10
34.768
 20
48.785
 10
35.044
 20
48.38
 10
35.14
 20
47.9
 10
35.044
 20
47.42
 10
34.768
 20
47.015
 10
34.358
 20
46.747
 10
33.876
 20
46.66
 10
33.398
 20
46.766
 10
33.238
 20
46.879
 10
33.238
 20
43.521
 10
33.398
 20
43.634
 10
33.876
 20
43.74
 10
34.358
 20
43.653
 10
34.768
 20
43.385
 10
35.044
 20
42.98
 10
35.14
 20
42.5
 10
35.044
 20
42.02
 10
34.768
 20
41.615
 10
34.358
 20
41.347
 10
33.876
 20
41.26
 10
33.398
 20
41.366
 10
33.238
 20
41.479
 10
33.238
 20
40.838
 10
33.741
 20
40.838
 10
34.231
 20
40.838
 10
34.722
 20
40.838
 10
35.215
 20
40.83
 10
35.706
 20
40.807
 10
36.006
 20
40.793
 10
36.309
 20
40.789
 10
36.593
 20
40.772
 10
36.882
 20
40.762
 10
37.154
 20
40.734
 10
37.429
 20
40.707
 10
37.688
 20
40.658
 10
37.952
 20
40.606
 10
38.438
 20
40.449
 10
38.885
 20
40.235
 10
39.29
 20
39.968
 10
39.655
 20
39.653
 10
39.96
 20
39.282
 10
40.221
 20
38.876
 10
40.435
 20
38.433
 10
40.598
 20
37.952
 10
40.655
 20
37.69
 10
40.709
 20
37.432
 10
40.74
 20
37.156
 10
40.77
 20
36.884
 10
40.782
 20
36.595
 10
40.799
 20
36.309
 10
40.801
 20
36.005
 10
40.812
 20
35.705
 10
40.831
 20
35.214
 10
40.838
 20
34.722
 10
40.838
 20
34.231
 10
40.838
 20
33.741
 10
40.838
 20
33.238
 10
41.479
 20
33.238
 10
41.366
 20
33.398
 10
41.26
 20
33.876
 10
41.347
 20
34.358
 10
41.615
 20
34.768
 10
42.02
 20
35.044
 10
42.5
 20
35.14
 10
42.98
 20
35.044
 10
43.385
 20
34.768
 10
43.653
 20
34.358
 10
43.74
 20
33.876
 10
43.634
 20
33.398
 10
43.521
 20
33.238
 10
46.879
 20
33.238
 10
46.766
 20
33.398
 10
46.66
 20
33.876
 10
46.747
 20
34.358
 10
47.015
 20
34.768
 10
47.42
 20
35.044
 10
47.9
 20
35.14
 10
48.38
 20
35.044
 10
48.785
 20
34.768
 10
49.053
 20
34.358
 10
49.14
 20
33.876
 10
49.034
 20
33.398
 10
48.921
 20
33.238
 10
49.563
 20
33.238
 10
49.563
 20
36.614
 10
49.647
 20
37.036
 10
49.894
 20
37.406
 10
50.264
 20
37.653
 10
50.686
 20
37.738
 10
52.214
 20
37.738
 10
52.636
 20
37.653
 10
53.006
 20
37.406
  0
HATCH
  5
32
330
17
100
AcDbEntity
  8
RASTER
 62
7
100
AcDbHatch
 10
0.0
 20
0.0
 30
0.0
210
0.0
220
0.0
230
1.0
  2
SOLID
 70
1
 71
0
 91
1
 92
3
 72
0
 73
1
 93
26
 10
19.126
 20
34.278
 10
19.204
 20
34.813
 10
19.362
 20
35.279
 10
19.582
 20
35.703
 10
19.843
 20
36.084
 10
20.133
 20
36.425
 10
20.445
 20
36.73
 10
20.78
 20
37.0
 10
21.141
 20
37.233
 10
21.533
 20
37.423
 10
21.959
 20
37.558
 10
22.421
 20
37.628
 10
22.94
 20
37.624
 10
22.944
 20
38.224
 10
22.379
 20
38.227
 10
21.824
 20
38.143
 10
21.312
 20
37.981
 10
20.848
 20
37.757
 10
20.428
 20
37.486
 10
20.047
 20
37.178
 10
19.694
 20
36.834
 10
19.366
 20
36.448
 10
19.067
 20
36.01
 10
18.81
 20
35.513
 10
18.621
 20
34.953
 10
18.533
 20
34.365
 97
0
 75
0
 76
1
 98
0
  0
HATCH
  5
33
330
17
100
AcDbEntity
  8
RASTER
 62
7
100
AcDbHatch
 10
0.0
 20
0.0
 30
0.0
210
0.0
220
0.0
230
1.0
  2
SOLID
 70
1
 71
0
 91
1
 92
3
 72
0
 73
1
 93
26
 10
34.139
 20
37.662
 10
34.618
 20
37.451
 10
35.027
 20
37.218
 10
35.395
 20
36.977
 10
35.737
 20
36.745
 10
36.066
 20
36.524
 10
36.394
 20
36.31
 10
36.727
 20
36.087
 10
37.061
 20
35.833
 10
37.386
 20
35.53
 10
37.682
 20
35.167
 10
37.922
 20
34.741
 10
38.091
 20
34.228
 10
38.66
 20
34.417
 10
38.471
 20
34.983
 10
38.178
 20
35.503
 10
37.825
 20
35.938
 10
37.449
 20
36.29
 10
37.077
 20
36.574
 10
36.726
 20
36.81
 10
36.397
 20
37.025
 10
36.073
 20
37.242
 10
35.728
 20
37.477
 10
35.339
 20
37.73
 10
34.886
 20
37.988
 10
34.381
 20
38.211
 97
0
 75
0
 76
1
 98
0
  0
HATCH
  5
34
330
17
100
AcDbEntity
  8
RASTER
 62
7
100
AcDbHatch
 10
0.0
 20
0.0
 30
0.0
210
0.0
220
0.0
230
1.0
  2
SOLID
 70
1
 71
0
 91
1
 92
3
 72
0
 73
1
 93
26
 10
38.074
 20
22.922
 10
37.996
 20
22.387
 10
37.838
 20
21.921
 10
37.618
 20
21.497
 10
37.357
 20
21.116
 10
37.067
 20
20.775
 10
36.755
 20
20.47
 10
36.42
 20
20.2
 10
36.059
 20
19.967
 10
35.667
 20
19.777
 10
35.241
 20
19.642
 10
34.779
 20
19.572
 10
34.26
 20
19.576
 10
34.256
 20
18.976
 10
34.821
 20
18.973
 10
35.376
 20
19.057
 10
35.888
 20
19.219
 10
36.352
 20
19.443
 10
36.772
 20
19.714
 10
37.153
 20
20.022
 10
37.506
 20
20.366
 10
37.834
 20
20.752
 10
38.133
 20
21.19
 10
38.39
 20
21.687
 10
38.579
 20
22.247
 10
38.667
 20
22.835
 97
0
 75
0
 76
1
 98
0
  0
HATCH
  5
35
330
17
100
AcDbEntity
  8
RASTER
 62
7
100
AcDbHatch
 10
0.0
 20
0.0
 30
0.0
210
0.0
220
0.0
230
1.0
  2
SOLID
 70
1
 71
0
 91
1
 92
3
 72
0
 73
1
 93
26
 10
23.061
 20
19.538
 10
22.582
 20
19.749
 10
22.173
 20
19.982
 10
21.805
 20
20.223
 10
21.463
 20
20.455
 10
21.134
 20
20.676
 10
20.806
 20
20.89
 10
20.473
 20
21.113
 10
20.139
 20
21.367
 10
19.814
 20
21.67
 10
19.518
 20
22.033
 10
19.278
 20
22.459
 10
19.109
 20
22.972
 10
18.54
 20
22.783
 10
18.729
 20
22.217
 10
19.022
 20
21.697
 10
19.375
 20
21.262
 10
19.751
 20
20.91
 10
20.123
 20
20.626
 10
20.474
 20
20.39
 10
20.803
 20
20.175
 10
21.127
 20
19.958
 10
21.472
 20
19.723
 10
21.861
 20
19.47
 10
22.314
 20
19.212
 10
22.819
 20
18.989
 97
0
 75
0
 76
1
 98
0
  0
HATCH
  5
36
330
17
100
AcDbEntity
  8
RASTER
 62
7
100
AcDbHatch
 10
0.0
 20
0.0
 30
0.0
210
0.0
220
0.0
230
1.0
  2
SOLID
 70
1
 71
0
 91
6
 92
3
 72
0
 73
1
 93
4
 10
24.1
 20
38.1
 10
33.1
 20
38.1
 10
33.1
 20
49.4
 10
24.1
 20
49.4
 97
0
 92
2
 72
0
 73
1
 93
5
 10
24.6
 20
39.8
 10
24.6
 20
40.2
 10
32.6
 20
40.2
 10
32.6
 20
39.8
 10
24.6
 20
39.8
 97
0
 92
2
 72
0
 73
1
 93
5
 10
24.6
 20
41.7
 10
24.6
 20
42.1
 10
32.6
 20
42.1
 10
32.6
 20
41.7
 10
24.6
 20
41.7
 97
0
 92
2
 72
0
 73
1
 93
5
 10
24.6
 20
43.6
 10
24.6
 20
44.0
 10
32.6
 20
44.0
 10
32.6
 20
43.6
 10
24.6
 20
43.6
 97
0
 92
2
 72
0
 73
1
 93
5
 10
24.6
 20
45.5
 10
24.6
 20
45.9
 10
32.6
 20
45.9
 10
32.6
 20
45.5
 10
24.6
 20
45.5
 97
0
 92
2
 72
0
 73
1
 93
5
 10
24.6
 20
47.4
 10
24.6
 20
47.8
 10
32.6
 20
47.8
 10
32.6
 20
47.4
 10
24.6
 20
47.4
 97
0
 75
0
 76
1
 98
0
  0
HATCH
  5
37
330
17
100
AcDbEntity
  8
RASTER
 62
7
100
AcDbHatch
 10
0.0
 20
0.0
 30
0.0
210
0.0
220
0.0
230
1.0
  2
SOLID
 70
1
 71
0
 91
8
 92
3
 72
0
 73
1
 93
4
 10
20.2
 20
50.0
 10
37.0
 20
50.0
 10
37.0
 20
52.6
 10
20.2
 20
52.6
 97
0
 92
2
 72
0
 73
1
 93
5
 10
22.7
 20
50.0
 10
22.7
 20
52.6
 10
23.1
 20
52.6
 10
23.1
 20
50.0
 10
22.7
 20
50.0
 97
0
 92
2
 72
0
 73
1
 93
5
 10
24.6
 20
50.0
 10
24.6
 20
52.6
 10
25.0
 20
52.6
 10
25.0
 20
50.0
 10
24.6
 20
50.0
 97
0
 92
2
 72
0
 73
1
 93
5
 10
26.5
 20
50.0
 10
26.5
 20
52.6
 10
26.9
 20
52.6
 10
26.9
 20
50.0
 10
26.5
 20
50.0
 97
0
 92
2
 72
0
 73
1
 93
5
 10
28.4
 20
50.0
 10
28.4
 20
52.6
 10
28.8
 20
52.6
 10
28.8
 20
50.0
 10
28.4
 20
50.0
 97
0
 92
2
 72
0
 73
1
 93
5
 10
30.3
 20
50.0
 10
30.3
 20
52.6
 10
30.7
 20
52.6
 10
30.7
 20
50.0
 10
30.3
 20
50.0
 97
0
 92
2
 72
0
 73
1
 93
5
 10
32.2
 20
50.0
 10
32.2
 20
52.6
 10
32.6
 20
52.6
 10
32.6
 20
50.0
 10
32.2
 20
50.0
 97
0
 92
2
 72
0
 73
1
 93
5
 10
34.1
 20
50.0
 10
34.1
 20
52.6
 10
34.5
 20
52.6
 10
34.5
 20
50.0
 10
34.1
 20
50.0
 97
0
 75
0
 76
1
 98
0
  0
HATCH
  5
38
330
17
100
AcDbEntity
  8
RASTER
 62
7
100
AcDbHatch
 10
0.0
 20
0.0
 30
0.0
210
0.0
220
0.0
230
1.0
  2
SOLID
 70
1
 71
0
 91
6
 92
3
 72
0
 73
1
 93
4
 10
38.1
 20
33.1
 10
38.1
 20
24.1
 10
49.4
 20
24.1
 10
49.4
 20
33.1
 97
0
 92
2
 72
0
 73
1
 93
5
 10
39.8
 20
32.6
 10
40.2
 20
32.6
 10
40.2
 20
24.6
 10
39.8
 20
24.6
 10
39.8
 20
32.6
 97
0
 92
2
 72
0
 73
1
 93
5
 10
41.7
 20
32.6
 10
42.1
 20
32.6
 10
42.1
 20
24.6
 10
41.7
 20
24.6
 10
41.7
 20
32.6
 97
0
 92
2
 72
0
 73
1
 93
5
 10
43.6
 20
32.6
 10
44.0
 20
32.6
 10
44.0
 20
24.6
 10
43.6
 20
24.6
 10
43.6
 20
32.6
 97
0
 92
2
 72
0
 73
1
 93
5
 10
45.5
 20
32.6
 10
45.9
 20
32.6
 10
45.9
 20
24.6
 10
45.5
 20
24.6
 10
45.5
 20
32.6
 97
0
 92
2
 72
0
 73
1
 93
5
 10
47.4
 20
32.6
 10
47.8
 20
32.6
 10
47.8
 20
24.6
 10
47.4
 20
24.6
 10
47.4
 20
32.6
 97
0
 75
0
 76
1
 98
0
  0
HATCH
  5
39
330
17
100
AcDbEntity
  8
RASTER
 62
7
100
AcDbHatch
 10
0.0
 20
0.0
 30
0.0
210
0.0
220
0.0
230
1.0
  2
SOLID
 70
1
 71
0
 91
8
 92
3
 72
0
 73
1
 93
4
 10
50.0
 20
37.0
 10
50.0
 20
20.2
 10
52.6
 20
20.2
 10
52.6
 20
37.0
 97
0
 92
2
 72
0
 73
1
 93
5
 10
50.0
 20
34.5
 10
52.6
 20
34.5
 10
52.6
 20
34.1
 10
50.0
 20
34.1
 10
50.0
 20
34.5
 97
0
 92
2
 72
0
 73
1
 93
5
 10
50.0
 20
32.6
 10
52.6
 20
32.6
 10
52.6
 20
32.2
 10
50.0
 20
32.2
 10
50.0
 20
32.6
 97
0
 92
2
 72
0
 73
1
 93
5
 10
50.0
 20
30.7
 10
52.6
 20
30.7
 10
52.6
 20
30.3
 10
50.0
 20
30.3
 10
50.0
 20
30.7
 97
0
 92
2
 72
0
 73
1
 93
5
 10
50.0
 20
28.8
 10
52.6
 20
28.8
 10
52.6
 20
28.4
 10
50.0
 20
28.4
 10
50.0
 20
28.8
 97
0
 92
2
 72
0
 73
1
 93
5
 10
50.0
 20
26.9
 10
52.6
 20
26.9
 10
52.6
 20
26.5
 10
50.0
 20
26.5
 10
50.0
 20
26.9
 97
0
 92
2
 72
0
 73
1
 93
5
 10
50.0
 20
25.0
 10
52.6
 20
25.0
 10
52.6
 20
24.6
 10
50.0
 20
24.6
 10
50.0
 20
25.0
 97
0
 92
2
 72
0
 73
1
 93
5
 10
50.0
 20
23.1
 10
52.6
 20
23.1
 10
52.6
 20
22.7
 10
50.0
 20
22.7
 10
50.0
 20
23.1
 97
0
 75
0
 76
1
 98
0
  0
HATCH
  5
3A
330
17
100
AcDbEntity
  8
RASTER
 62
7
100
AcDbHatch
 10
0.0
 20
0.0
 30
0.0
210
0.0
220
0.0
230
1.0
  2
SOLID
 70
1
 71
0
 91
6
 92
3
 72
0
 73
1
 93
4
 10
33.1
 20
19.1
 10
24.1
 20
19.1
 10
24.1
 20
7.8
 10
33.1
 20
7.8
 97
0
 92
2
 72
0
 73
1
 93
5
 10
32.6
 20
17.4
 10
32.6
 20
17.0
 10
24.6
 20
17.0
 10
24.6
 20
17.4
 10
32.6
 20
17.4
 97
0
 92
2
 72
0
 73
1
 93
5
 10
32.6
 20
15.5
 10
32.6
 20
15.1
 10
24.6
 20
15.1
 10
24.6
 20
15.5
 10
32.6
 20
15.5
 97
0
 92
2
 72
0
 73
1
 93
5
 10
32.6
 20
13.6
 10
32.6
 20
13.2
 10
24.6
 20
13.2
 10
24.6
 20
13.6
 10
32.6
 20
13.6
 97
0
 92
2
 72
0
 73
1
 93
5
 10
32.6
 20
11.7
 10
32.6
 20
11.3
 10
24.6
 20
11.3
 10
24.6
 20
11.7
 10
32.6
 20
11.7
 97
0
 92
2
 72
0
 73
1
 93
5
 10
32.6
 20
9.8
 10
32.6
 20
9.4
 10
24.6
 20
9.4
 10
24.6
 20
9.8
 10
32.6
 20
9.8
 97
0
 75
0
 76
1
 98
0
  0
HATCH
  5
3B
330
17
100
AcDbEntity
  8
RASTER
 62
7
100
AcDbHatch
 10
0.0
 20
0.0
 30
0.0
210
0.0
220
0.0
230
1.0
  2
SOLID
 70
1
 71
0
 91
8
 92
3
 72
0
 73
1
 93
4
 10
37.0
 20
7.2
 10
20.2
 20
7.2
 10
20.2
 20
4.6
 10
37.0
 20
4.6
 97
0
 92
2
 72
0
 73
1
 93
5
 10
34.5
 20
7.2
 10
34.5
 20
4.6
 10
34.1
 20
4.6
 10
34.1
 20
7.2
 10
34.5
 20
7.2
 97
0
 92
2
 72
0
 73
1
 93
5
 10
32.6
 20
7.2
 10
32.6
 20
4.6
 10
32.2
 20
4.6
 10
32.2
 20
7.2
 10
32.6
 20
7.2
 97
0
 92
2
 72
0
 73
1
 93
5
 10
30.7
 20
7.2
 10
30.7
 20
4.6
 10
30.3
 20
4.6
 10
30.3
 20
7.2
 10
30.7
 20
7.2
 97
0
 92
2
 72
0
 73
1
 93
5
 10
28.8
 20
7.2
 10
28.8
 20
4.6
 10
28.4
 20
4.6
 10
28.4
 20
7.2
 10
28.8
 20
7.2
 97
0
 92
2
 72
0
 73
1
 93
5
 10
26.9
 20
7.2
 10
26.9
 20
4.6
 10
26.5
 20
4.6
 10
26.5
 20
7.2
 10
26.9
 20
7.2
 97
0
 92
2
 72
0
 73
1
 93
5
 10
25.0
 20
7.2
 10
25.0
 20
4.6
 10
24.6
 20
4.6
 10
24.6
 20
7.2
 10
25.0
 20
7.2
 97
0
 92
2
 72
0
 73
1
 93
5
 10
23.1
 20
7.2
 10
23.1
 20
4.6
 10
22.7
 20
4.6
 10
22.7
 20
7.2
 10
23.1
 20
7.2
 97
0
 75
0
 76
1
 98
0
  0
HATCH
  5
3C
330
17
100
AcDbEntity
  8
RASTER
 62
7
100
AcDbHatch
 10
0.0
 20
0.0
 30
0.0
210
0.0
220
0.0
230
1.0
  2
SOLID
 70
1
 71
0
 91
6
 92
3
 72
0
 73
1
 93
4
 10
19.1
 20
24.1
 10
19.1
 20
33.1
 10
7.8
 20
33.1
 10
7.8
 20
24.1
 97
0
 92
2
 72
0
 73
1
 93
5
 10
17.4
 20
24.6
 10
17.0
 20
24.6
 10
17.0
 20
32.6
 10
17.4
 20
32.6
 10
17.4
 20
24.6
 97
0
 92
2
 72
0
 73
1
 93
5
 10
15.5
 20
24.6
 10
15.1
 20
24.6
 10
15.1
 20
32.6
 10
15.5
 20
32.6
 10
15.5
 20
24.6
 97
0
 92
2
 72
0
 73
1
 93
5
 10
13.6
 20
24.6
 10
13.2
 20
24.6
 10
13.2
 20
32.6
 10
13.6
 20
32.6
 10
13.6
 20
24.6
 97
0
 92
2
 72
0
 73
1
 93
5
 10
11.7
 20
24.6
 10
11.3
 20
24.6
 10
11.3
 20
32.6
 10
11.7
 20
32.6
 10
11.7
 20
24.6
 97
0
 92
2
 72
0
 73
1
 93
5
 10
9.8
 20
24.6
 10
9.4
 20
24.6
 10
9.4
 20
32.6
 10
9.8
 20
32.6
 10
9.8
 20
24.6
 97
0
 75
0
 76
1
 98
0
  0
HATCH
  5
3D
330
17
100
AcDbEntity
  8
RASTER
 62
7
100
AcDbHatch
 10
0.0
 20
0.0
 30
0.0
210
0.0
220
0.0
230
1.0
  2
SOLID
 70
1
 71
0
 91
8
 92
3
 72
0
 73
1
 93
4
 10
7.2
 20
20.2
 10
7.2
 20
37.0
 10
4.6
 20
37.0
 10
4.6
 20
20.2
 97
0
 92
2
 72
0
 73
1
 93
5
 10
7.2
 20
22.7
 10
4.6
 20
22.7
 10
4.6
 20
23.1
 10
7.2
 20
23.1
 10
7.2
 20
22.7
 97
0
 92
2
 72
0
 73
1
 93
5
 10
7.2
 20
24.6
 10
4.6
 20
24.6
 10
4.6
 20
25.0
 10
7.2
 20
25.0
 10
7.2
 20
24.6
 97
0
 92
2
 72
0
 73
1
 93
5
 10
7.2
 20
26.5
 10
4.6
 20
26.5
 10
4.6
 20
26.9
 10
7.2
 20
26.9
 10
7.2
 20
26.5
 97
0
 92
2
 72
0
 73
1
 93
5
 10
7.2
 20
28.4
 10
4.6
 20
28.4
 10
4.6
 20
28.8
 10
7.2
 20
28.8
 10
7.2
 20
28.4
 97
0
 92
2
 72
0
 73
1
 93
5
 10
7.2
 20
30.3
 10
4.6
 20
30.3
 10
4.6
 20
30.7
 10
7.2
 20
30.7
 10
7.2
 20
30.3
 97
0
 92
2
 72
0
 73
1
 93
5
 10
7.2
 20
32.2
 10
4.6
 20
32.2
 10
4.6
 20
32.6
 10
7.2
 20
32.6
 10
7.2
 20
32.2
 97
0
 92
2
 72
0
 73
1
 93
5
 10
7.2
 20
34.1
 10
4.6
 20
34.1
 10
4.6
 20
34.5
 10
7.2
 20
34.5
 10
7.2
 20
34.1
 97
0
 75
0
 76
1
 98
0
  0
HATCH
  5
3E
330
17
100
AcDbEntity
  8
RASTER
 62
7
100
AcDbHatch
 10
0.0
 20
0.0
 30
0.0
210
0.0
220
0.0
230
1.0
  2
SOLID
 70
1
 71
0
 91
2
 92
3
 72
0
 73
1
 93
48
 10
29.545
 20
32.38
 10
29.537
 20
32.257
 10
29.513
 20
32.135
 10
29.473
 20
32.018
 10
29.418
 20
31.908
 10
29.35
 20
31.805
 10
29.268
 20
31.712
 10
29.175
 20
31.63
 10
29.073
 20
31.562
 10
28.962
 20
31.507
 10
28.845
 20
31.467
 10
28.723
 20
31.443
 10
28.6
 20
31.435
 10
28.477
 20
31.443
 10
28.355
 20
31.467
 10
28.238
 20
31.507
 10
28.128
 20
31.562
 10
28.025
 20
31.63
 10
27.932
 20
31.712
 10
27.85
 20
31.805
 10
27.782
 20
31.908
 10
27.727
 20
32.018
 10
27.687
 20
32.135
 10
27.663
 20
32.257
 10
27.655
 20
32.38
 10
27.663
 20
32.503
 10
27.687
 20
32.625
 10
27.727
 20
32.742
 10
27.782
 20
32.853
 10
27.85
 20
32.955
 10
27.932
 20
33.048
 10
28.025
 20
33.13
 10
28.128
 20
33.198
 10
28.238
 20
33.253
 10
28.355
 20
33.293
 10
28.477
 20
33.317
 10
28.6
 20
33.325
 10
28.723
 20
33.317
 10
28.845
 20
33.293
 10
28.962
 20
33.253
 10
29.073
 20
33.198
 10
29.175
 20
33.13
 10
29.268
 20
33.048
 10
29.35
 20
32.955
 10
29.418
 20
32.853
 10
29.473
 20
32.742
 10
29.513
 20
32.625
 10
29.537
 20
32.503
 97
0
 92
2
 72
0
 73
1
 93
48
 10
29.125
 20
32.38
 10
29.121
 20
32.311
 10
29.107
 20
32.244
 10
29.085
 20
32.179
 10
29.055
 20
32.118
 10
29.017
 20
32.06
 10
28.971
 20
32.009
 10
28.92
 20
31.963
 10
28.863
 20
31.925
 10
28.801
 20
31.895
 10
28.736
 20
31.873
 10
28.669
 20
31.859
 10
28.6
 20
31.855
 10
28.531
 20
31.859
 10
28.464
 20
31.873
 10
28.399
 20
31.895
 10
28.338
 20
31.925
 10
28.28
 20
31.963
 10
28.229
 20
32.009
 10
28.183
 20
32.06
 10
28.145
 20
32.118
 10
28.115
 20
32.179
 10
28.093
 20
32.244
 10
28.079
 20
32.311
 10
28.075
 20
32.38
 10
28.079
 20
32.449
 10
28.093
 20
32.516
 10
28.115
 20
32.581
 10
28.145
 20
32.643
 10
28.183
 20
32.7
 10
28.229
 20
32.751
 10
28.28
 20
32.797
 10
28.338
 20
32.835
 10
28.399
 20
32.865
 10
28.464
 20
32.887
 10
28.531
 20
32.901
 10
28.6
 20
32.905
 10
28.669
 20
32.901
 10
28.736
 20
32.887
 10
28.801
 20
32.865
 10
28.863
 20
32.835
 10
28.92
 20
32.797
 10
28.971
 20
32.751
 10
29.017
 20
32.7
 10
29.055
 20
32.643
 10
29.085
 20
32.581
 10
29.107
 20
32.516
 10
29.121
 20
32.449
 97
0
 75
0
 76
1
 98
0
  0
HATCH
  5
3F
330
17
100
AcDbEntity
  8
RASTER
 62
7
100
AcDbHatch
 10
0.0
 20
0.0
 30
0.0
210
0.0
220
0.0
230
1.0
  2
SOLID
 70
1
 71
0
 91
1
 92
3
 72
0
 73
1
 93
45
 10
28.18
 20
31.12
 10
29.02
 20
31.12
 10
29.02
 20
30.07
 10
30.91
 20
30.07
 10
30.91
 20
29.44
 10
29.02
 20
29.44
 10
29.02
 20
26.5
 10
29.265
 20
26.45
 10
29.522
 20
26.457
 10
29.784
 20
26.518
 10
30.044
 20
26.631
 10
30.294
 20
26.793
 10
30.526
 20
27.002
 10
30.734
 20
27.255
 10
30.91
 20
27.55
 10
31.96
 20
26.71
 10
31.755
 20
26.101
 10
31.465
 20
25.542
 10
31.1
 20
25.041
 10
30.674
 20
24.61
 10
30.198
 20
24.257
 10
29.686
 20
23.993
 10
29.149
 20
23.827
 10
28.6
 20
23.77
 10
28.051
 20
23.827
 10
27.514
 20
23.993
 10
27.002
 20
24.257
 10
26.526
 20
24.61
 10
26.1
 20
25.041
 10
25.735
 20
25.542
 10
25.445
 20
26.101
 10
25.24
 20
26.71
 10
26.29
 20
27.55
 10
26.466
 20
27.255
 10
26.674
 20
27.002
 10
26.906
 20
26.793
 10
27.156
 20
26.631
 10
27.416
 20
26.518
 10
27.678
 20
26.457
 10
27.935
 20
26.45
 10
28.18
 20
26.5
 10
28.18
 20
29.44
 10
26.29
 20
29.44
 10
26.29
 20
30.07
 10
28.18
 20
30.07
 97
0
 75
0
 76
1
 98
0
  0
ENDSEC
  0
SECTION
  2
OBJECTS
  0
DICTIONARY
  5
A
330
0
100
AcDbDictionary
281
1
  3
ACAD_COLOR
350
B
  3
ACAD_GROUP
350
C
  3
ACAD_LAYOUT
350
D
  3
ACAD_MATERIAL
350
E
  3
ACAD_MLEADERSTYLE
350
F
  3
ACAD_MLINESTYLE
350
10
  3
ACAD_PLOTSETTINGS
350
11
  3
ACAD_PLOTSTYLENAME
350
12
  3
ACAD_SCALELIST
350
14
  3
ACAD_TABLESTYLE
350
15
  3
ACAD_VISUALSTYLE
350
16
  3
EZDXF_META
350
2D
  0
DICTIONARY
  5
B
330
A
100
AcDbDictionary
281
1
  0
DICTIONARY
  5
C
330
A
100
AcDbDictionary
281
1
  0
DICTIONARY
  5
D
330
A
100
AcDbDictionary
281
1
  3
Model
350
1A
  3
Layout1
350
1E
  0
DICTIONARY
  5
E
330
A
100
AcDbDictionary
281
1
  3
ByBlock
350
1F
  3
ByLayer
350
20
  3
Global
350
21
  0
DICTIONARY
  5
F
330
A
100
AcDbDictionary
281
1
  3
Standard
350
2C
  0
DICTIONARY
  5
10
330
A
100
AcDbDictionary
281
1
  3
Standard
350
22
  0
DICTIONARY
  5
11
330
A
100
AcDbDictionary
281
1
  0
ACDBDICTIONARYWDFLT
  5
12
330
A
100
AcDbDictionary
281
1
  3
Normal
350
13
100
AcDbDictionaryWithDefault
340
13
  0
ACDBPLACEHOLDER
  5
13
330
12
  0
DICTIONARY
  5
14
330
A
100
AcDbDictionary
281
1
  0
DICTIONARY
  5
15
330
A
100
AcDbDictionary
281
1
  0
DICTIONARY
  5
16
330
A
100
AcDbDictionary
281
1
  0
LAYOUT
  5
1A
330
D
100
AcDbPlotSettings
  1

  4
A3
  6

 40
7.5
 41
20.0
 42
7.5
 43
20.0
 44
420.0
 45
297.0
 46
0.0
 47
0.0
 48
0.0
 49
0.0
140
0.0
141
0.0
142
1.0
143
1.0
 70
1024
 72
1
 73
0
 74
5
  7

 75
16
 76
0
 77
2
 78
300
147
1.0
148
0.0
149
0.0
100
AcDbLayout
  1
Model
 70
1
 71
0
 10
0.0
 20
0.0
 11
420.0
 21
297.0
 12
0.0
 22
0.0
 32
0.0
 14
1e+20
 24
1e+20
 34
1e+20
 15
-1e+20
 25
-1e+20
 35
-1e+20
146
0.0
 13
0.0
 23
0.0
 33
0.0
 16
1.0
 26
0.0
 36
0.0
 17
0.0
 27
1.0
 37
0.0
 76
1
330
17
  0
LAYOUT
  5
1E
330
D
100
AcDbPlotSettings
  1

  4
A3
  6

 40
7.5
 41
20.0
 42
7.5
 43
20.0
 44
420.0
 45
297.0
 46
0.0
 47
0.0
 48
0.0
 49
0.0
140
0.0
141
0.0
142
1.0
143
1.0
 70
0
 72
1
 73
0
 74
5
  7

 75
16
 76
0
 77
2
 78
300
147
1.0
148
0.0
149
0.0
100
AcDbLayout
  1
Layout1
 70
1
 71
1
 10
0.0
 20
0.0
 11
420.0
 21
297.0
 12
0.0
 22
0.0
 32
0.0
 14
1e+20
 24
1e+20
 34
1e+20
 15
-1e+20
 25
-1e+20
 35
-1e+20
146
0.0
 13
0.0
 23
0.0
 33
0.0
 16
1.0
 26
0.0
 36
0.0
 17
0.0
 27
1.0
 37
0.0
 76
1
330
1B
  0
MATERIAL
  5
1F
102
{ACAD_REACTORS
330
E
102
}
330
E
100
AcDbMaterial
  1
ByBlock
  2

 70
0
 40
1.0
 71
1
 41
1.0
 91
-1023410177
 42
1.0
 72
1
  3

 73
1
 74
1
 75
1
 44
0.5
 73
0
 45
1.0
 46
1.0
 77
1
  4

 78
1
 79
1
170
1
 48
1.0
171
1
  6

172
1
173
1
174
1
140
1.0
141
1.0
175
1
  7

176
1
177
1
178
1
143
1.0
179
1
  8

270
1
271
1
272
1
145
1.0
146
1.0
273
1
  9

274
1
275
1
276
1
 42
1.0
 72
1
  3

 73
1
 74
1
 75
1
 94
63
  0
MATERIAL
  5
20
102
{ACAD_REACTORS
330
E
102
}
330
E
100
AcDbMaterial
  1
ByLayer
  2

 70
0
 40
1.0
 71
1
 41
1.0
 91
-1023410177
 42
1.0
 72
1
  3

 73
1
 74
1
 75
1
 44
0.5
 73
0
 45
1.0
 46
1.0
 77
1
  4

 78
1
 79
1
170
1
 48
1.0
171
1
  6

172
1
173
1
174
1
140
1.0
141
1.0
175
1
  7

176
1
177
1
178
1
143
1.0
179
1
  8

270
1
271
1
272
1
145
1.0
146
1.0
273
1
  9

274
1
275
1
276
1
 42
1.0
 72
1
  3

 73
1
 74
1
 75
1
 94
63
  0
MATERIAL
  5
21
102
{ACAD_REACTORS
330
E
102
}
330
E
100
AcDbMaterial
  1
Global
  2

 70
0
 40
1.0
 71
1
 41
1.0
 91
-1023410177
 42
1.0
 72
1
  3

 73
1
 74
1
 75
1
 44
0.5
 73
0
 45
1.0
 46
1.0
 77
1
  4

 78
1
 79
1
170
1
 48
1.0
171
1
  6

172
1
173
1
174
1
140
1.0
141
1.0
175
1
  7

176
1
177
1
178
1
143
1.0
179
1
  8

270
1
271
1
272
1
145
1.0
146
1.0
273
1
  9

274
1
275
1
276
1
 42
1.0
 72
1
  3

 73
1
 74
1
 75
1
 94
63
  0
MLINESTYLE
  5
22
102
{ACAD_REACTORS
330
10
102
}
330
10
100
AcDbMlineStyle
  2
Standard
 70
0
  3

 62
256
 51
90.0
 52
90.0
 71
2
 49
0.5
 62
256
  6
BYLAYER
 49
-0.5
 62
256
  6
BYLAYER
  0
MLEADERSTYLE
  5
2C
102
{ACAD_REACTORS
330
F
102
}
330
F
100
AcDbMLeaderStyle
179
2
170
2
171
1
172
0
 90
2
 40
0.0
 41
0.0
173
1
 91
-1056964608
 92
-2
290
1
 42
2.0
291
1
 43
8.0
  3
Standard
 44
4.0
300

342
29
174
1
175
1
176
0
178
1
 93
-1056964608
 45
4.0
292
0
297
0
 46
4.0
 94
-1056964608
 47
1.0
 49
1.0
140
1.0
294
1
141
0.0
177
0
142
1.0
295
0
296
0
143
3.75
271
0
272
9
273
9
  0
DICTIONARY
  5
2D
330
A
100
AcDbDictionary
280
1
281
1
  3
CREATED_BY_EZDXF
350
2E
  3
WRITTEN_BY_EZDXF
350
42
  0
DICTIONARYVAR
  5
2E
330
2D
100
DictionaryVariables
280
0
  1
1.4.2 @ 2026-09-01T03:41:40.698361+00:00
  0
DICTIONARYVAR
  5
42
330
2D
100
DictionaryVariables
280
0
  1
1.4.2 @ 2026-09-01T03:41:40.704392+00:00
  0
ENDSEC
  0
EOF
