0
SECTION
2
HEADER
9
$ACADVER
1
AC1009
9
$EXTMIN
10
0
20
0
9
$EXTMAX
10
600
20
400
0
ENDSEC
0
SECTION
2
TABLES
0
TABLE
2
LAYER
70
2
0
LAYER
2
CUT
70
0
62
1
6
CONTINUOUS
0
LAYER
2
RASTER
70
0
62
7
6
CONTINUOUS
0
ENDTAB
0
ENDSEC
0
SECTION
2
ENTITIES
0
POLYLINE
8
CUT
66
1
70
1
0
VERTEX
8
CUT
10
9
20
394.09
30
0
0
VERTEX
8
CUT
10
83
20
394.09
30
0
0
VERTEX
8
CUT
10
86.09
20
394.09
30
0
0
VERTEX
8
CUT
10
86.09
20
391.577
30
0
0
VERTEX
8
CUT
10
83.09
20
391.577
30
0
0
VERTEX
8
CUT
10
83.09
20
389.423
30
0
0
VERTEX
8
CUT
10
86.09
20
389.423
30
0
0
VERTEX
8
CUT
10
86.09
20
386.91
30
0
0
VERTEX
8
CUT
10
83.09
20
386.91
30
0
0
VERTEX
8
CUT
10
83.09
20
383.91
30
0
0
VERTEX
8
CUT
10
77.218
20
383.91
30
0
0
VERTEX
8
CUT
10
77.218
20
386.91
30
0
0
VERTEX
8
CUT
10
71.705
20
386.91
30
0
0
VERTEX
8
CUT
10
71.705
20
383.91
30
0
0
VERTEX
8
CUT
10
65.833
20
383.91
30
0
0
VERTEX
8
CUT
10
65.833
20
386.91
30
0
0
VERTEX
8
CUT
10
60.321
20
386.91
30
0
0
VERTEX
8
CUT
10
60.321
20
383.91
30
0
0
VERTEX
8
CUT
10
54.448
20
383.91
30
0
0
VERTEX
8
CUT
10
54.448
20
386.91
30
0
0
VERTEX
8
CUT
10
48.936
20
386.91
30
0
0
VERTEX
8
CUT
10
48.936
20
383.91
30
0
0
VERTEX
8
CUT
10
43.064
20
383.91
30
0
0
VERTEX
8
CUT
10
43.064
20
386.91
30
0
0
VERTEX
8
CUT
10
37.552
20
386.91
30
0
0
VERTEX
8
CUT
10
37.552
20
383.91
30
0
0
VERTEX
8
CUT
10
31.679
20
383.91
30
0
0
VERTEX
8
CUT
10
31.679
20
386.91
30
0
0
VERTEX
8
CUT
10
26.167
20
386.91
30
0
0
VERTEX
8
CUT
10
26.167
20
383.91
30
0
0
VERTEX
8
CUT
10
20.295
20
383.91
30
0
0
VERTEX
8
CUT
10
20.295
20
386.91
30
0
0
VERTEX
8
CUT
10
14.782
20
386.91
30
0
0
VERTEX
8
CUT
10
14.782
20
383.91
30
0
0
VERTEX
8
CUT
10
8.91
20
383.91
30
0
0
VERTEX
8
CUT
10
8.91
20
386.91
30
0
0
VERTEX
8
CUT
10
5.91
20
386.91
30
0
0
VERTEX
8
CUT
10
5.91
20
389.423
30
0
0
VERTEX
8
CUT
10
8.91
20
389.423
30
0
0
VERTEX
8
CUT
10
8.91
20
391.577
30
0
0
VERTEX
8
CUT
10
5.91
20
391.577
30
0
0
VERTEX
8
CUT
10
5.91
20
394.09
30
0
0
SEQEND
8
CUT
0
POLYLINE
8
RASTER
66
1
70
1
0
VERTEX
8
RASTER
10
10
20
390.8
30
0
0
VERTEX
8
RASTER
10
82
20
390.8
30
0
0
VERTEX
8
RASTER
10
82
20
390.2
30
0
0
VERTEX
8
RASTER
10
10
20
390.2
30
0
0
SEQEND
8
RASTER
0
POLYLINE
8
CUT
66
1
70
1
0
VERTEX
8
CUT
10
92.91
20
394.09
30
0
0
VERTEX
8
CUT
10
141.09
20
394.09
30
0
0
VERTEX
8
CUT
10
141.09
20
391.757
30
0
0
VERTEX
8
CUT
10
144.09
20
391.757
30
0
0
VERTEX
8
CUT
10
144.09
20
389.243
30
0
0
VERTEX
8
CUT
10
141.09
20
389.243
30
0
0
VERTEX
8
CUT
10
141.09
20
387
30
0
0
VERTEX
8
CUT
10
141.09
20
383.91
30
0
0
VERTEX
8
CUT
10
135.577
20
383.91
30
0
0
VERTEX
8
CUT
10
135.577
20
386.91
30
0
0
VERTEX
8
CUT
10
130.423
20
386.91
30
0
0
VERTEX
8
CUT
10
130.423
20
383.91
30
0
0
VERTEX
8
CUT
10
124.91
20
383.91
30
0
0
VERTEX
8
CUT
10
124.91
20
386.91
30
0
0
VERTEX
8
CUT
10
119.757
20
386.91
30
0
0
VERTEX
8
CUT
10
119.757
20
383.91
30
0
0
VERTEX
8
CUT
10
114.243
20
383.91
30
0
0
VERTEX
8
CUT
10
114.243
20
386.91
30
0
0
VERTEX
8
CUT
10
109.09
20
386.91
30
0
0
VERTEX
8
CUT
10
109.09
20
383.91
30
0
0
VERTEX
8
CUT
10
103.577
20
383.91
30
0
0
VERTEX
8
CUT
10
103.577
20
386.91
30
0
0
VERTEX
8
CUT
10
98.423
20
386.91
30
0
0
VERTEX
8
CUT
10
98.423
20
383.91
30
0
0
VERTEX
8
CUT
10
92.91
20
383.91
30
0
0
VERTEX
8
CUT
10
92.91
20
387
30
0
0
VERTEX
8
CUT
10
92.91
20
389.243
30
0
0
VERTEX
8
CUT
10
89.91
20
389.243
30
0
0
VERTEX
8
CUT
10
89.91
20
391.757
30
0
0
VERTEX
8
CUT
10
92.91
20
391.757
30
0
0
SEQEND
8
CUT
0
POLYLINE
8
RASTER
66
1
70
1
0
VERTEX
8
RASTER
10
94
20
390.6
30
0
0
VERTEX
8
RASTER
10
140
20
390.6
30
0
0
VERTEX
8
RASTER
10
140
20
390.2
30
0
0
VERTEX
8
RASTER
10
94
20
390.2
30
0
0
SEQEND
8
RASTER
0
POLYLINE
8
CUT
66
1
70
1
0
VERTEX
8
CUT
10
150.91
20
394.09
30
0
0
VERTEX
8
CUT
10
199.09
20
394.09
30
0
0
VERTEX
8
CUT
10
199.09
20
391.757
30
0
0
VERTEX
8
CUT
10
202.09
20
391.757
30
0
0
VERTEX
8
CUT
10
202.09
20
389.243
30
0
0
VERTEX
8
CUT
10
199.09
20
389.243
30
0
0
VERTEX
8
CUT
10
199.09
20
387
30
0
0
VERTEX
8
CUT
10
199.09
20
383.91
30
0
0
VERTEX
8
CUT
10
193.577
20
383.91
30
0
0
VERTEX
8
CUT
10
193.577
20
386.91
30
0
0
VERTEX
8
CUT
10
188.423
20
386.91
30
0
0
VERTEX
8
CUT
10
188.423
20
383.91
30
0
0
VERTEX
8
CUT
10
182.91
20
383.91
30
0
0
VERTEX
8
CUT
10
182.91
20
386.91
30
0
0
VERTEX
8
CUT
10
177.757
20
386.91
30
0
0
VERTEX
8
CUT
10
177.757
20
383.91
30
0
0
VERTEX
8
CUT
10
172.243
20
383.91
30
0
0
VERTEX
8
CUT
10
172.243
20
386.91
30
0
0
VERTEX
8
CUT
10
167.09
20
386.91
30
0
0
VERTEX
8
CUT
10
167.09
20
383.91
30
0
0
VERTEX
8
CUT
10
161.577
20
383.91
30
0
0
VERTEX
8
CUT
10
161.577
20
386.91
30
0
0
VERTEX
8
CUT
10
156.423
20
386.91
30
0
0
VERTEX
8
CUT
10
156.423
20
383.91
30
0
0
VERTEX
8
CUT
10
150.91
20
383.91
30
0
0
VERTEX
8
CUT
10
150.91
20
387
30
0
0
VERTEX
8
CUT
10
150.91
20
389.243
30
0
0
VERTEX
8
CUT
10
147.91
20
389.243
30
0
0
VERTEX
8
CUT
10
147.91
20
391.757
30
0
0
VERTEX
8
CUT
10
150.91
20
391.757
30
0
0
SEQEND
8
CUT
0
POLYLINE
8
RASTER
66
1
70
1
0
VERTEX
8
RASTER
10
152
20
390.6
30
0
0
VERTEX
8
RASTER
10
198
20
390.6
30
0
0
VERTEX
8
RASTER
10
198
20
390.2
30
0
0
VERTEX
8
RASTER
10
152
20
390.2
30
0
0
SEQEND
8
RASTER
0
POLYLINE
8
CUT
66
1
70
1
0
VERTEX
8
CUT
10
209
20
394.09
30
0
0
VERTEX
8
CUT
10
283
20
394.09
30
0
0
VERTEX
8
CUT
10
286.09
20
394.09
30
0
0
VERTEX
8
CUT
10
286.09
20
391.577
30
0
0
VERTEX
8
CUT
10
283.09
20
391.577
30
0
0
VERTEX
8
CUT
10
283.09
20
389.423
30
0
0
VERTEX
8
CUT
10
286.09
20
389.423
30
0
0
VERTEX
8
CUT
10
286.09
20
386.91
30
0
0
VERTEX
8
CUT
10
283.09
20
386.91
30
0
0
VERTEX
8
CUT
10
283.09
20
383.91
30
0
0
VERTEX
8
CUT
10
277.218
20
383.91
30
0
0
VERTEX
8
CUT
10
277.218
20
386.91
30
0
0
VERTEX
8
CUT
10
271.705
20
386.91
30
0
0
VERTEX
8
CUT
10
271.705
20
383.91
30
0
0
VERTEX
8
CUT
10
265.833
20
383.91
30
0
0
VERTEX
8
CUT
10
265.833
20
386.91
30
0
0
VERTEX
8
CUT
10
260.321
20
386.91
30
0
0
VERTEX
8
CUT
10
260.321
20
383.91
30
0
0
VERTEX
8
CUT
10
254.448
20
383.91
30
0
0
VERTEX
8
CUT
10
254.448
20
386.91
30
0
0
VERTEX
8
CUT
10
248.936
20
386.91
30
0
0
VERTEX
8
CUT
10
248.936
20
383.91
30
0
0
VERTEX
8
CUT
10
243.064
20
383.91
30
0
0
VERTEX
8
CUT
10
243.064
20
386.91
30
0
0
VERTEX
8
CUT
10
237.552
20
386.91
30
0
0
VERTEX
8
CUT
10
237.552
20
383.91
30
0
0
VERTEX
8
CUT
10
231.679
20
383.91
30
0
0
VERTEX
8
CUT
10
231.679
20
386.91
30
0
0
VERTEX
8
CUT
10
226.167
20
386.91
30
0
0
VERTEX
8
CUT
10
226.167
20
383.91
30
0
0
VERTEX
8
CUT
10
220.295
20
383.91
30
0
0
VERTEX
8
CUT
10
220.295
20
386.91
30
0
0
VERTEX
8
CUT
10
214.782
20
386.91
30
0
0
VERTEX
8
CUT
10
214.782
20
383.91
30
0
0
VERTEX
8
CUT
10
208.91
20
383.91
30
0
0
VERTEX
8
CUT
10
208.91
20
386.91
30
0
0
VERTEX
8
CUT
10
205.91
20
386.91
30
0
0
VERTEX
8
CUT
10
205.91
20
389.423
30
0
0
VERTEX
8
CUT
10
208.91
20
389.423
30
0
0
VERTEX
8
CUT
10
208.91
20
391.577
30
0
0
VERTEX
8
CUT
10
205.91
20
391.577
30
0
0
VERTEX
8
CUT
10
205.91
20
394.09
30
0
0
SEQEND
8
CUT
0
POLYLINE
8
RASTER
66
1
70
1
0
VERTEX
8
RASTER
10
210
20
390.8
30
0
0
VERTEX
8
RASTER
10
282
20
390.8
30
0
0
VERTEX
8
RASTER
10
282
20
390.2
30
0
0
VERTEX
8
RASTER
10
210
20
390.2
30
0
0
SEQEND
8
RASTER
0
POLYLINE
8
CUT
66
1
70
1
0
VERTEX
8
CUT
10
292.91
20
394.09
30
0
0
VERTEX
8
CUT
10
341.09
20
394.09
30
0
0
VERTEX
8
CUT
10
341.09
20
391.757
30
0
0
VERTEX
8
CUT
10
344.09
20
391.757
30
0
0
VERTEX
8
CUT
10
344.09
20
389.243
30
0
0
VERTEX
8
CUT
10
341.09
20
389.243
30
0
0
VERTEX
8
CUT
10
341.09
20
387
30
0
0
VERTEX
8
CUT
10
341.09
20
383.91
30
0
0
VERTEX
8
CUT
10
335.577
20
383.91
30
0
0
VERTEX
8
CUT
10
335.577
20
386.91
30
0
0
VERTEX
8
CUT
10
330.423
20
386.91
30
0
0
VERTEX
8
CUT
10
330.423
20
383.91
30
0
0
VERTEX
8
CUT
10
324.91
20
383.91
30
0
0
VERTEX
8
CUT
10
324.91
20
386.91
30
0
0
VERTEX
8
CUT
10
319.757
20
386.91
30
0
0
VERTEX
8
CUT
10
319.757
20
383.91
30
0
0
VERTEX
8
CUT
10
314.243
20
383.91
30
0
0
VERTEX
8
CUT
10
314.243
20
386.91
30
0
0
VERTEX
8
CUT
10
309.09
20
386.91
30
0
0
VERTEX
8
CUT
10
309.09
20
383.91
30
0
0
VERTEX
8
CUT
10
303.577
20
383.91
30
0
0
VERTEX
8
CUT
10
303.577
20
386.91
30
0
0
VERTEX
8
CUT
10
298.423
20
386.91
30
0
0
VERTEX
8
CUT
10
298.423
20
383.91
30
0
0
VERTEX
8
CUT
10
292.91
20
383.91
30
0
0
VERTEX
8
CUT
10
292.91
20
387
30
0
0
VERTEX
8
CUT
10
292.91
20
389.243
30
0
0
VERTEX
8
CUT
10
289.91
20
389.243
30
0
0
VERTEX
8
CUT
10
289.91
20
391.757
30
0
0
VERTEX
8
CUT
10
292.91
20
391.757
30
0
0
SEQEND
8
CUT
0
POLYLINE
8
RASTER
66
1
70
1
0
VERTEX
8
RASTER
10
294
20
390.6
30
0
0
VERTEX
8
RASTER
10
340
20
390.6
30
0
0
VERTEX
8
RASTER
10
340
20
390.2
30
0
0
VERTEX
8
RASTER
10
294
20
390.2
30
0
0
SEQEND
8
RASTER
0
POLYLINE
8
CUT
66
1
70
1
0
VERTEX
8
CUT
10
350.91
20
394.09
30
0
0
VERTEX
8
CUT
10
399.09
20
394.09
30
0
0
VERTEX
8
CUT
10
399.09
20
391.757
30
0
0
VERTEX
8
CUT
10
402.09
20
391.757
30
0
0
VERTEX
8
CUT
10
402.09
20
389.243
30
0
0
VERTEX
8
CUT
10
399.09
20
389.243
30
0
0
VERTEX
8
CUT
10
399.09
20
387
30
0
0
VERTEX
8
CUT
10
399.09
20
383.91
30
0
0
VERTEX
8
CUT
10
393.577
20
383.91
30
0
0
VERTEX
8
CUT
10
393.577
20
386.91
30
0
0
VERTEX
8
CUT
10
388.423
20
386.91
30
0
0
VERTEX
8
CUT
10
388.423
20
383.91
30
0
0
VERTEX
8
CUT
10
382.91
20
383.91
30
0
0
VERTEX
8
CUT
10
382.91
20
386.91
30
0
0
VERTEX
8
CUT
10
377.757
20
386.91
30
0
0
VERTEX
8
CUT
10
377.757
20
383.91
30
0
0
VERTEX
8
CUT
10
372.243
20
383.91
30
0
0
VERTEX
8
CUT
10
372.243
20
386.91
30
0
0
VERTEX
8
CUT
10
367.09
20
386.91
30
0
0
VERTEX
8
CUT
10
367.09
20
383.91
30
0
0
VERTEX
8
CUT
10
361.577
20
383.91
30
0
0
VERTEX
8
CUT
10
361.577
20
386.91
30
0
0
VERTEX
8
CUT
10
356.423
20
386.91
30
0
0
VERTEX
8
CUT
10
356.423
20
383.91
30
0
0
VERTEX
8
CUT
10
350.91
20
383.91
30
0
0
VERTEX
8
CUT
10
350.91
20
387
30
0
0
VERTEX
8
CUT
10
350.91
20
389.243
30
0
0
VERTEX
8
CUT
10
347.91
20
389.243
30
0
0
VERTEX
8
CUT
10
347.91
20
391.757
30
0
0
VERTEX
8
CUT
10
350.91
20
391.757
30
0
0
SEQEND
8
CUT
0
POLYLINE
8
RASTER
66
1
70
1
0
VERTEX
8
RASTER
10
352
20
390.6
30
0
0
VERTEX
8
RASTER
10
398
20
390.6
30
0
0
VERTEX
8
RASTER
10
398
20
390.2
30
0
0
VERTEX
8
RASTER
10
352
20
390.2
30
0
0
SEQEND
8
RASTER
0
POLYLINE
8
CUT
66
1
70
1
0
VERTEX
8
CUT
10
411.034
20
391.49
30
0
0
VERTEX
8
CUT
10
433.91
20
391.49
30
0
0
VERTEX
8
CUT
10
433.91
20
393.09
30
0
0
VERTEX
8
CUT
10
439.02
20
393.09
30
0
0
VERTEX
8
CUT
10
446.216
20
389.8
30
0
0
VERTEX
8
CUT
10
439.02
20
386.51
30
0
0
VERTEX
8
CUT
10
433.91
20
386.51
30
0
0
VERTEX
8
CUT
10
433.91
20
388.11
30
0
0
VERTEX
8
CUT
10
411.034
20
388.11
30
0
0
VERTEX
8
CUT
10
408.034
20
385.51
30
0
0
VERTEX
8
CUT
10
405.825
20
385.51
30
0
0
VERTEX
8
CUT
10
408.889
20
389.8
30
0
0
VERTEX
8
CUT
10
405.825
20
394.09
30
0
0
VERTEX
8
CUT
10
408.034
20
394.09
30
0
0
SEQEND
8
CUT
0
CIRCLE
8
CUT
10
420
20
389.8
30
0
40
1.56
0
CIRCLE
8
RASTER
10
420
20
389.8
30
0
40
3
0
CIRCLE
8
RASTER
10
420
20
389.8
30
0
40
2.4
0
POLYLINE
8
RASTER
66
1
70
1
0
VERTEX
8
RASTER
10
424
20
390.2
30
0
0
VERTEX
8
RASTER
10
433
20
390.2
30
0
0
VERTEX
8
RASTER
10
433
20
389.4
30
0
0
VERTEX
8
RASTER
10
424
20
389.4
30
0
0
SEQEND
8
RASTER
0
POLYLINE
8
RASTER
66
1
70
1
0
VERTEX
8
RASTER
10
444.64
20
389.8
30
0
0
VERTEX
8
RASTER
10
442.66
20
388.9
30
0
0
VERTEX
8
RASTER
10
441.4
20
389.8
30
0
0
VERTEX
8
RASTER
10
442.66
20
390.7
30
0
0
SEQEND
8
RASTER
0
POLYLINE
8
RASTER
66
1
70
1
0
VERTEX
8
RASTER
10
441.4
20
389.8
30
0
0
VERTEX
8
RASTER
10
441.798
20
389.307
30
0
0
VERTEX
8
RASTER
10
442.05
20
388.796
30
0
0
VERTEX
8
RASTER
10
442.163
20
388.297
30
0
0
VERTEX
8
RASTER
10
442.143
20
387.843
30
0
0
VERTEX
8
RASTER
10
441.996
20
387.464
30
0
0
VERTEX
8
RASTER
10
441.729
20
387.193
30
0
0
VERTEX
8
RASTER
10
441.348
20
387.061
30
0
0
VERTEX
8
RASTER
10
440.86
20
387.1
30
0
0
VERTEX
8
RASTER
10
440.572
20
387.207
30
0
0
VERTEX
8
RASTER
10
440.376
20
387.381
30
0
0
VERTEX
8
RASTER
10
440.265
20
387.606
30
0
0
VERTEX
8
RASTER
10
440.23
20
387.865
30
0
0
VERTEX
8
RASTER
10
440.262
20
388.141
30
0
0
VERTEX
8
RASTER
10
440.354
20
388.416
30
0
0
VERTEX
8
RASTER
10
440.496
20
388.675
30
0
0
VERTEX
8
RASTER
10
440.68
20
388.9
30
0
0
VERTEX
8
RASTER
10
439.96
20
389.26
30
0
0
VERTEX
8
RASTER
10
439.96
20
390.34
30
0
0
VERTEX
8
RASTER
10
440.68
20
390.7
30
0
0
VERTEX
8
RASTER
10
440.496
20
390.925
30
0
0
VERTEX
8
RASTER
10
440.354
20
391.184
30
0
0
VERTEX
8
RASTER
10
440.262
20
391.459
30
0
0
VERTEX
8
RASTER
10
440.23
20
391.735
30
0
0
VERTEX
8
RASTER
10
440.265
20
391.994
30
0
0
VERTEX
8
RASTER
10
440.376
20
392.219
30
0
0
VERTEX
8
RASTER
10
440.572
20
392.393
30
0
0
VERTEX
8
RASTER
10
440.86
20
392.5
30
0
0
VERTEX
8
RASTER
10
441.348
20
392.539
30
0
0
VERTEX
8
RASTER
10
441.729
20
392.407
30
0
0
VERTEX
8
RASTER
10
441.996
20
392.136
30
0
0
VERTEX
8
RASTER
10
442.143
20
391.758
30
0
0
VERTEX
8
RASTER
10
442.163
20
391.303
30
0
0
VERTEX
8
RASTER
10
442.05
20
390.804
30
0
0
VERTEX
8
RASTER
10
441.798
20
390.293
30
0
0
VERTEX
8
RASTER
10
441.4
20
389.8
30
0
0
SEQEND
8
RASTER
0
POLYLINE
8
RASTER
66
1
70
1
0
VERTEX
8
RASTER
10
439.78
20
390.34
30
0
0
VERTEX
8
RASTER
10
439.78
20
389.26
30
0
0
VERTEX
8
RASTER
10
439.24
20
389.26
30
0
0
VERTEX
8
RASTER
10
439.24
20
390.34
30
0
0
SEQEND
8
RASTER
0
POLYLINE
8
CUT
66
1
70
1
0
VERTEX
8
CUT
10
449.91
20
393.602
30
0
0
VERTEX
8
CUT
10
449.913
20
393.672
30
0
0
VERTEX
8
CUT
10
449.923
20
393.74
30
0
0
VERTEX
8
CUT
10
449.939
20
393.804
30
0
0
VERTEX
8
CUT
10
449.964
20
393.863
30
0
0
VERTEX
8
CUT
10
449.996
20
393.916
30
0
0
VERTEX
8
CUT
10
450.036
20
393.964
30
0
0
VERTEX
8
CUT
10
450.084
20
394.004
30
0
0
VERTEX
8
CUT
10
450.137
20
394.036
30
0
0
VERTEX
8
CUT
10
450.196
20
394.061
30
0
0
VERTEX
8
CUT
10
450.26
20
394.077
30
0
0
VERTEX
8
CUT
10
450.328
20
394.087
30
0
0
VERTEX
8
CUT
10
450.398
20
394.09
30
0
0
VERTEX
8
CUT
10
497.602
20
394.09
30
0
0
VERTEX
8
CUT
10
497.672
20
394.087
30
0
0
VERTEX
8
CUT
10
497.74
20
394.077
30
0
0
VERTEX
8
CUT
10
497.804
20
394.061
30
0
0
VERTEX
8
CUT
10
497.863
20
394.036
30
0
0
VERTEX
8
CUT
10
497.916
20
394.004
30
0
0
VERTEX
8
CUT
10
497.964
20
393.964
30
0
0
VERTEX
8
CUT
10
498.004
20
393.916
30
0
0
VERTEX
8
CUT
10
498.036
20
393.863
30
0
0
VERTEX
8
CUT
10
498.061
20
393.804
30
0
0
VERTEX
8
CUT
10
498.077
20
393.74
30
0
0
VERTEX
8
CUT
10
498.087
20
393.672
30
0
0
VERTEX
8
CUT
10
498.09
20
393.602
30
0
0
VERTEX
8
CUT
10
498.09
20
391.398
30
0
0
VERTEX
8
CUT
10
498.087
20
391.328
30
0
0
VERTEX
8
CUT
10
498.077
20
391.26
30
0
0
VERTEX
8
CUT
10
498.061
20
391.196
30
0
0
VERTEX
8
CUT
10
498.036
20
391.137
30
0
0
VERTEX
8
CUT
10
498.004
20
391.084
30
0
0
VERTEX
8
CUT
10
497.964
20
391.036
30
0
0
VERTEX
8
CUT
10
497.916
20
390.996
30
0
0
VERTEX
8
CUT
10
497.863
20
390.964
30
0
0
VERTEX
8
CUT
10
497.804
20
390.939
30
0
0
VERTEX
8
CUT
10
497.74
20
390.923
30
0
0
VERTEX
8
CUT
10
497.672
20
390.913
30
0
0
VERTEX
8
CUT
10
497.602
20
390.91
30
0
0
VERTEX
8
CUT
10
450.398
20
390.91
30
0
0
VERTEX
8
CUT
10
450.328
20
390.913
30
0
0
VERTEX
8
CUT
10
450.26
20
390.923
30
0
0
VERTEX
8
CUT
10
450.196
20
390.939
30
0
0
VERTEX
8
CUT
10
450.137
20
390.964
30
0
0
VERTEX
8
CUT
10
450.084
20
390.996
30
0
0
VERTEX
8
CUT
10
450.036
20
391.036
30
0
0
VERTEX
8
CUT
10
449.996
20
391.084
30
0
0
VERTEX
8
CUT
10
449.964
20
391.137
30
0
0
VERTEX
8
CUT
10
449.939
20
391.196
30
0
0
VERTEX
8
CUT
10
449.923
20
391.26
30
0
0
VERTEX
8
CUT
10
449.913
20
391.328
30
0
0
VERTEX
8
CUT
10
449.91
20
391.398
30
0
0
SEQEND
8
CUT
0
POLYLINE
8
CUT
66
1
70
1
0
VERTEX
8
CUT
10
501.91
20
393.602
30
0
0
VERTEX
8
CUT
10
501.913
20
393.672
30
0
0
VERTEX
8
CUT
10
501.923
20
393.74
30
0
0
VERTEX
8
CUT
10
501.939
20
393.804
30
0
0
VERTEX
8
CUT
10
501.964
20
393.863
30
0
0
VERTEX
8
CUT
10
501.996
20
393.916
30
0
0
VERTEX
8
CUT
10
502.036
20
393.964
30
0
0
VERTEX
8
CUT
10
502.084
20
394.004
30
0
0
VERTEX
8
CUT
10
502.137
20
394.036
30
0
0
VERTEX
8
CUT
10
502.196
20
394.061
30
0
0
VERTEX
8
CUT
10
502.26
20
394.077
30
0
0
VERTEX
8
CUT
10
502.328
20
394.087
30
0
0
VERTEX
8
CUT
10
502.398
20
394.09
30
0
0
VERTEX
8
CUT
10
549.602
20
394.09
30
0
0
VERTEX
8
CUT
10
549.672
20
394.087
30
0
0
VERTEX
8
CUT
10
549.74
20
394.077
30
0
0
VERTEX
8
CUT
10
549.804
20
394.061
30
0
0
VERTEX
8
CUT
10
549.863
20
394.036
30
0
0
VERTEX
8
CUT
10
549.916
20
394.004
30
0
0
VERTEX
8
CUT
10
549.964
20
393.964
30
0
0
VERTEX
8
CUT
10
550.004
20
393.916
30
0
0
VERTEX
8
CUT
10
550.036
20
393.863
30
0
0
VERTEX
8
CUT
10
550.061
20
393.804
30
0
0
VERTEX
8
CUT
10
550.077
20
393.74
30
0
0
VERTEX
8
CUT
10
550.087
20
393.672
30
0
0
VERTEX
8
CUT
10
550.09
20
393.602
30
0
0
VERTEX
8
CUT
10
550.09
20
391.398
30
0
0
VERTEX
8
CUT
10
550.087
20
391.328
30
0
0
VERTEX
8
CUT
10
550.077
20
391.26
30
0
0
VERTEX
8
CUT
10
550.061
20
391.196
30
0
0
VERTEX
8
CUT
10
550.036
20
391.137
30
0
0
VERTEX
8
CUT
10
550.004
20
391.084
30
0
0
VERTEX
8
CUT
10
549.964
20
391.036
30
0
0
VERTEX
8
CUT
10
549.916
20
390.996
30
0
0
VERTEX
8
CUT
10
549.863
20
390.964
30
0
0
VERTEX
8
CUT
10
549.804
20
390.939
30
0
0
VERTEX
8
CUT
10
549.74
20
390.923
30
0
0
VERTEX
8
CUT
10
549.672
20
390.913
30
0
0
VERTEX
8
CUT
10
549.602
20
390.91
30
0
0
VERTEX
8
CUT
10
502.398
20
390.91
30
0
0
VERTEX
8
CUT
10
502.328
20
390.913
30
0
0
VERTEX
8
CUT
10
502.26
20
390.923
30
0
0
VERTEX
8
CUT
10
502.196
20
390.939
30
0
0
VERTEX
8
CUT
10
502.137
20
390.964
30
0
0
VERTEX
8
CUT
10
502.084
20
390.996
30
0
0
VERTEX
8
CUT
10
502.036
20
391.036
30
0
0
VERTEX
8
CUT
10
501.996
20
391.084
30
0
0
VERTEX
8
CUT
10
501.964
20
391.137
30
0
0
VERTEX
8
CUT
10
501.939
20
391.196
30
0
0
VERTEX
8
CUT
10
501.923
20
391.26
30
0
0
VERTEX
8
CUT
10
501.913
20
391.328
30
0
0
VERTEX
8
CUT
10
501.91
20
391.398
30
0
0
SEQEND
8
CUT
0
ENDSEC
0
EOF
