  0
SECTION
  2
HEADER
  9
$ACADVER
  1
AC1015
  9
$ACADMAINTVER
 70
6
  9
$DWGCODEPAGE
  3
ANSI_1252
  9
$INSBASE
 10
0.0
 20
0.0
 30
0.0
  9
$EXTMIN
 10
1e+20
 20
1e+20
 30
1e+20
  9
$EXTMAX
 10
-1e+20
 20
-1e+20
 30
-1e+20
  9
$LIMMIN
 10
0.0
 20
0.0
  9
$LIMMAX
 10
420.0
 20
297.0
  9
$ORTHOMODE
 70
0
  9
$REGENMODE
 70
1
  9
$FILLMODE
 70
1
  9
$QTEXTMODE
 70
0
  9
$MIRRTEXT
 70
1
  9
$LTSCALE
 40
1.0
  9
$ATTMODE
 70
1
  9
$TEXTSIZE
 40
2.5
  9
$TRACEWID
 40
1.0
  9
$TEXTSTYLE
  7
Standard
  9
$CLAYER
  8
0
  9
$CELTYPE
  6
ByLayer
  9
$CECOLOR
 62
256
  9
$CELTSCALE
 40
1.0
  9
$DISPSILH
 70
0
  9
$DIMSCALE
 40
1.0
  9
$DIMASZ
 40
2.5
  9
$DIMEXO
 40
0.625
  9
$DIMDLI
 40
3.75
  9
$DIMRND
 40
0.0
  9
$DIMDLE
 40
0.0
  9
$DIMEXE
 40
1.25
  9
$DIMTP
 40
0.0
  9
$DIMTM
 40
0.0
  9
$DIMTXT
 40
2.5
  9
$DIMCEN
 40
2.5
  9
$DIMTSZ
 40
0.0
  9
$DIMTOL
 70
0
  9
$DIMLIM
 70
0
  9
$DIMTIH
 70
0
  9
$DIMTOH
 70
0
  9
$DIMSE1
 70
0
  9
$DIMSE2
 70
0
  9
$DIMTAD
 70
1
  9
$DIMZIN
 70
8
  9
$DIMBLK
  1

  9
$DIMASO
 70
1
  9
$DIMSHO
 70
1
  9
$DIMPOST
  1

  9
$DIMAPOST
  1

  9
$DIMALT
 70
0
  9
$DIMALTD
 70
3
  9
$DIMALTF
 40
0.03937007874
  9
$DIMLFAC
 40
1.0
  9
$DIMTOFL
 70
1
  9
$DIMTVP
 40
0.0
  9
$DIMTIX
 70
0
  9
$DIMSOXD
 70
0
  9
$DIMSAH
 70
0
  9
$DIMBLK1
  1

  9
$DIMBLK2
  1

  9
$DIMSTYLE
  2
ISO-25
  9
$DIMCLRD
 70
0
  9
$DIMCLRE
 70
0
  9
$DIMCLRT
 70
0
  9
$DIMTFAC
 40
1.0
  9
$DIMGAP
 40
0.625
  9
$DIMJUST
 70
0
  9
$DIMSD1
 70
0
  9
$DIMSD2
 70
0
  9
$DIMTOLJ
 70
0
  9
$DIMTZIN
 70
8
  9
$DIMALTZ
 70
0
  9
$DIMALTTZ
 70
0
  9
$DIMUPT
 70
0
  9
$DIMDEC
 70
2
  9
$DIMTDEC
 70
2
  9
$DIMALTU
 70
2
  9
$DIMALTTD
 70
3
  9
$DIMTXSTY
  7
Standard
  9
$DIMAUNIT
 70
0
  9
$DIMADEC
 70
0
  9
$DIMALTRND
 40
0.0
  9
$DIMAZIN
 70
0
  9
$DIMDSEP
 70
44
  9
$DIMATFIT
 70
3
  9
$DIMFRAC
 70
0
  9
$DIMLDRBLK
  1

  9
$DIMLUNIT
 70
2
  9
$DIMLWD
 70
-2
  9
$DIMLWE
 70
-2
  9
$DIMTMOVE
 70
0
  9
$LUNITS
 70
2
  9
$LUPREC
 70
4
  9
$SKETCHINC
 40
1.0
  9
$FILLETRAD
 40
10.0
  9
$AUNITS
 70
0
  9
$AUPREC
 70
2
  9
$MENU
  1
.
  9
$ELEVATION
 40
0.0
  9
$PELEVATION
 40
0.0
  9
$THICKNESS
 40
0.0
  9
$LIMCHECK
 70
0
  9
$CHAMFERA
 40
0.0
  9
$CHAMFERB
 40
0.0
  9
$CHAMFERC
 40
0.0
  9
$CHAMFERD
 40
0.0
  9
$SKPOLY
 70
0
  9
$TDCREATE
 40
2461294.7102662036
  9
$TDUCREATE
 40
2458532.153996898
  9
$TDUPDATE
 40
2461294.7102662036
  9
$TDUUPDATE
 40
2458532.1544311
  9
$TDINDWG
 40
0.0
  9
$TDUSRTIMER
 40
0.0
  9
$USRTIMER
 70
1
  9
$ANGBASE
 50
0.0
  9
$ANGDIR
 70
0
  9
$PDMODE
 70
0
  9
$PDSIZE
 40
0.0
  9
$PLINEWID
 40
0.0
  9
$SPLFRAME
 70
0
  9
$SPLINETYPE
 70
6
  9
$SPLINESEGS
 70
8
  9
$HANDSEED
  5
10F
  9
$SURFTAB1
 70
6
  9
$SURFTAB2
 70
6
  9
$SURFTYPE
 70
6
  9
$SURFU
 70
6
  9
$SURFV
 70
6
  9
$UCSBASE
  2

  9
$UCSNAME
  2

  9
$UCSORG
 10
0.0
 20
0.0
 30
0.0
  9
$UCSXDIR
 10
1.0
 20
0.0
 30
0.0
  9
$UCSYDIR
 10
0.0
 20
1.0
 30
0.0
  9
$UCSORTHOREF
  2

  9
$UCSORTHOVIEW
 70
0
  9
$UCSORGTOP
 10
0.0
 20
0.0
 30
0.0
  9
$UCSORGBOTTOM
 10
0.0
 20
0.0
 30
0.0
  9
$UCSORGLEFT
 10
0.0
 20
0.0
 30
0.0
  9
$UCSORGRIGHT
 10
0.0
 20
0.0
 30
0.0
  9
$UCSORGFRONT
 10
0.0
 20
0.0
 30
0.0
  9
$UCSORGBACK
 10
0.0
 20
0.0
 30
0.0
  9
$PUCSBASE
  2

  9
$PUCSNAME
  2

  9
$PUCSORG
 10
0.0
 20
0.0
 30
0.0
  9
$PUCSXDIR
 10
1.0
 20
0.0
 30
0.0
  9
$PUCSYDIR
 10
0.0
 20
1.0
 30
0.0
  9
$PUCSORTHOREF
  2

  9
$PUCSORTHOVIEW
 70
0
  9
$PUCSORGTOP
 10
0.0
 20
0.0
 30
0.0
  9
$PUCSORGBOTTOM
 10
0.0
 20
0.0
 30
0.0
  9
$PUCSORGLEFT
 10
0.0
 20
0.0
 30
0.0
  9
$PUCSORGRIGHT
 10
0.0
 20
0.0
 30
0.0
  9
$PUCSORGFRONT
 10
0.0
 20
0.0
 30
0.0
  9
$PUCSORGBACK
 10
0.0
 20
0.0
 30
0.0
  9
$USERI1
 70
0
  9
$USERI2
 70
0
  9
$USERI3
 70
0
  9
$USERI4
 70
0
  9
$USERI5
 70
0
  9
$USERR1
 40
0.0
  9
$USERR2
 40
0.0
  9
$USERR3
 40
0.0
  9
$USERR4
 40
0.0
  9
$USERR5
 40
0.0
  9
$WORLDVIEW
 70
1
  9
$SHADEDGE
 70
3
  9
$SHADEDIF
 70
70
  9
$TILEMODE
 70
1
  9
$MAXACTVP
 70
64
  9
$PINSBASE
 10
0.0
 20
0.0
 30
0.0
  9
$PLIMCHECK
 70
0
  9
$PEXTMIN
 10
1e+20
 20
1e+20
 30
1e+20
  9
$PEXTMAX
 10
-1e+20
 20
-1e+20
 30
-1e+20
  9
$PLIMMIN
 10
0.0
 20
0.0
  9
$PLIMMAX
 10
420.0
 20
297.0
  9
$UNITMODE
 70
0
  9
$VISRETAIN
 70
1
  9
$PLINEGEN
 70
0
  9
$PSLTSCALE
 70
1
  9
$TREEDEPTH
 70
3020
  9
$CMLSTYLE
  2
Standard
  9
$CMLJUST
 70
0
  9
$CMLSCALE
 40
20.0
  9
$PROXYGRAPHICS
 70
1
  9
$MEASUREMENT
 70
1
  9
$CELWEIGHT
370
-1
  9
$ENDCAPS
280
0
  9
$JOINSTYLE
280
0
  9
$LWDISPLAY
290
0
  9
$INSUNITS
 70
4
  9
$HYPERLINKBASE
  1

  9
$STYLESHEET
  1

  9
$XEDIT
290
1
  9
$CEPSNTYPE
380
0
  9
$PSTYLEMODE
290
1
  9
$FINGERPRINTGUID
  2
{CC98BCBF-C789-43A2-9F1F-9486ACDC4B20}
  9
$VERSIONGUID
  2
{1959BF99-B2A1-413F-9E41-8219FABF33F7}
  9
$EXTNAMES
290
1
  9
$PSVPSCALE
 40
0.0
  9
$OLESTARTUP
290
0
  0
ENDSEC
  0
SECTION
  2
CLASSES
  0
CLASS
  1
ACDBDICTIONARYWDFLT
  2
AcDbDictionaryWithDefault
  3
ObjectDBX Classes
 90
0
280
0
281
0
  0
CLASS
  1
SUN
  2
AcDbSun
  3
SCENEOE
 90
1153
280
0
281
0
  0
CLASS
  1
VISUALSTYLE
  2
AcDbVisualStyle
  3
ObjectDBX Classes
 90
4095
280
0
281
0
  0
CLASS
  1
MATERIAL
  2
AcDbMaterial
  3
ObjectDBX Classes
 90
1153
280
0
281
0
  0
CLASS
  1
SCALE
  2
AcDbScale
  3
ObjectDBX Classes
 90
1153
280
0
281
0
  0
CLASS
  1
TABLESTYLE
  2
AcDbTableStyle
  3
ObjectDBX Classes
 90
4095
280
0
281
0
  0
CLASS
  1
MLEADERSTYLE
  2
AcDbMLeaderStyle
  3
ACDB_MLEADERSTYLE_CLASS
 90
4095
280
0
281
0
  0
CLASS
  1
DICTIONARYVAR
  2
AcDbDictionaryVar
  3
ObjectDBX Classes
 90
0
280
0
281
0
  0
CLASS
  1
CELLSTYLEMAP
  2
AcDbCellStyleMap
  3
ObjectDBX Classes
 90
1152
280
0
281
0
  0
CLASS
  1
MENTALRAYRENDERSETTINGS
  2
AcDbMentalRayRenderSettings
  3
SCENEOE
 90
1024
280
0
281
0
  0
CLASS
  1
ACDBDETAILVIEWSTYLE
  2
AcDbDetailViewStyle
  3
ObjectDBX Classes
 90
1025
280
0
281
0
  0
CLASS
  1
ACDBSECTIONVIEWSTYLE
  2
AcDbSectionViewStyle
  3
ObjectDBX Classes
 90
1025
280
0
281
0
  0
CLASS
  1
RASTERVARIABLES
  2
AcDbRasterVariables
  3
ISM
 90
0
280
0
281
0
  0
CLASS
  1
ACDBPLACEHOLDER
  2
AcDbPlaceHolder
  3
ObjectDBX Classes
 90
0
280
0
281
0
  0
CLASS
  1
LAYOUT
  2
AcDbLayout
  3
ObjectDBX Classes
 90
0
280
0
281
0
  0
ENDSEC
  0
SECTION
  2
TABLES
  0
TABLE
  2
VPORT
  5
8
330
0
100
AcDbSymbolTable
 70
1
  0
VPORT
  5
23
330
8
100
AcDbSymbolTableRecord
100
AcDbViewportTableRecord
  2
*Active
 70
0
 10
0.0
 20
0.0
 11
1.0
 21
1.0
 12
0.0
 22
0.0
 13
0.0
 23
0.0
 14
0.5
 24
0.5
 15
0.5
 25
0.5
 16
0.0
 26
0.0
 36
1.0
 17
0.0
 27
0.0
 37
0.0
 40
1000.0
 41
1.34
 42
50.0
 43
0.0
 44
0.0
 50
0.0
 51
0.0
 71
0
 72
1000
 73
1
 74
3
 75
0
 76
0
 77
0
 78
0
281
0
 65
0
146
0.0
  0
ENDTAB
  0
TABLE
  2
LTYPE
  5
2
330
0
100
AcDbSymbolTable
 70
3
  0
LTYPE
  5
24
330
2
100
AcDbSymbolTableRecord
100
AcDbLinetypeTableRecord
  2
ByBlock
 70
0
  3

 72
65
 73
0
 40
0.0
  0
LTYPE
  5
25
330
2
100
AcDbSymbolTableRecord
100
AcDbLinetypeTableRecord
  2
ByLayer
 70
0
  3

 72
65
 73
0
 40
0.0
  0
LTYPE
  5
26
330
2
100
AcDbSymbolTableRecord
100
AcDbLinetypeTableRecord
  2
Continuous
 70
0
  3

 72
65
 73
0
 40
0.0
  0
ENDTAB
  0
TABLE
  2
LAYER
  5
1
330
0
100
AcDbSymbolTable
 70
4
  0
LAYER
  5
27
330
1
100
AcDbSymbolTableRecord
100
AcDbLayerTableRecord
  2
0
 70
0
 62
7
  6
Continuous
370
-3
390
13
  0
LAYER
  5
28
330
1
100
AcDbSymbolTableRecord
100
AcDbLayerTableRecord
  2
Defpoints
 70
0
 62
7
  6
Continuous
290
0
370
-3
390
13
  0
LAYER
  5
2F
330
1
100
AcDbSymbolTableRecord
100
AcDbLayerTableRecord
  2
CUT
 70
0
 62
1
  6
Continuous
370
-3
390
13
  0
LAYER
  5
30
330
1
100
AcDbSymbolTableRecord
100
AcDbLayerTableRecord
  2
RASTER
 70
0
 62
7
  6
Continuous
370
-3
390
13
  0
ENDTAB
  0
TABLE
  2
STYLE
  5
5
330
0
100
AcDbSymbolTable
 70
1
  0
STYLE
  5
29
330
5
100
AcDbSymbolTableRecord
100
AcDbTextStyleTableRecord
  2
Standard
 70
0
 40
0.0
 41
1.0
 50
0.0
 71
0
 42
2.5
  3
txt
  4

  0
ENDTAB
  0
TABLE
  2
VIEW
  5
7
330
0
100
AcDbSymbolTable
 70
0
  0
ENDTAB
  0
TABLE
  2
UCS
  5
6
330
0
100
AcDbSymbolTable
 70
0
  0
ENDTAB
  0
TABLE
  2
APPID
  5
3
330
0
100
AcDbSymbolTable
 70
3
  0
APPID
  5
2A
330
3
100
AcDbSymbolTableRecord
100
AcDbRegAppTableRecord
  2
ACAD
 70
0
  0
APPID
  5
10C
330
3
100
AcDbSymbolTableRecord
100
AcDbRegAppTableRecord
  2
HATCHBACKGROUNDCOLOR
 70
0
  0
APPID
  5
10D
330
3
100
AcDbSymbolTableRecord
100
AcDbRegAppTableRecord
  2
EZDXF
 70
0
  0
ENDTAB
  0
TABLE
  2
DIMSTYLE
  5
4
330
0
100
AcDbSymbolTable
 70
1
100
AcDbDimStyleTable
  0
DIMSTYLE
105
2B
330
4
100
AcDbSymbolTableRecord
100
AcDbDimStyleTableRecord
  2
Standard
 70
0
  3

  4

 40
1.0
 41
2.5
 42
0.625
 43
3.75
 44
1.25
 45
0.0
 46
0.0
 47
0.0
 48
0.0
140
2.5
141
2.5
142
0.0
143
0.03937007874
144
1.0
145
0.0
146
1.0
147
0.625
148
0.0
 71
0
 72
0
 73
0
 74
0
 75
0
 76
0
 77
1
 78
8
 79
3
170
0
171
3
172
1
173
0
174
0
175
0
176
0
177
0
178
0
179
2
271
2
272
2
273
2
274
3
275
0
276
0
277
2
278
44
279
0
280
0
281
0
282
0
283
0
284
8
285
0
286
0
288
0
289
3
371
-2
372
-2
  0
ENDTAB
  0
TABLE
  2
BLOCK_RECORD
  5
9
330
0
100
AcDbSymbolTable
 70
2
  0
BLOCK_RECORD
  5
17
330
9
100
AcDbSymbolTableRecord
100
AcDbBlockTableRecord
  2
*Model_Space
340
1A
  0
BLOCK_RECORD
  5
1B
330
9
100
AcDbSymbolTableRecord
100
AcDbBlockTableRecord
  2
*Paper_Space
340
1E
  0
ENDTAB
  0
ENDSEC
  0
SECTION
  2
BLOCKS
  0
BLOCK
  5
18
330
17
100
AcDbEntity
  8
0
100
AcDbBlockBegin
  2
*Model_Space
 70
0
 10
0.0
 20
0.0
 30
0.0
  3
*Model_Space
  1

  0
ENDBLK
  5
19
330
17
100
AcDbEntity
  8
0
100
AcDbBlockEnd
  0
BLOCK
  5
1C
330
1B
100
AcDbEntity
  8
0
100
AcDbBlockBegin
  2
*Paper_Space
 70
0
 10
0.0
 20
0.0
 30
0.0
  3
*Paper_Space
  1

  0
ENDBLK
  5
1D
330
1B
100
AcDbEntity
  8
0
100
AcDbBlockEnd
  0
ENDSEC
  0
SECTION
  2
ENTITIES
  0
LWPOLYLINE
  5
31
330
17
100
AcDbEntity
  8
CUT
100
AcDbPolyline
 90
218
 70
1
 10
236.408
 20
760.638
 10
236.148
 20
756.926
 10
235.836
 20
753.366
 10
235.463
 20
749.811
 10
235.027
 20
746.264
 10
234.53
 20
742.725
 10
233.97
 20
739.195
 10
233.35
 20
735.675
 10
232.667
 20
732.167
 10
231.924
 20
728.671
 10
231.12
 20
725.188
 10
230.255
 20
721.721
 10
229.33
 20
718.268
 10
228.345
 20
714.833
 10
227.3
 20
711.415
 10
226.195
 20
708.016
 10
225.032
 20
704.637
 10
223.809
 20
701.278
 10
222.528
 20
697.942
 10
221.189
 20
694.628
 10
219.793
 20
691.338
 10
218.339
 20
688.073
 10
216.828
 20
684.834
 10
215.261
 20
681.621
 10
213.639
 20
678.437
 10
211.961
 20
675.281
 10
210.228
 20
672.156
 10
208.441
 20
669.06
 10
206.6
 20
665.997
 10
204.706
 20
662.966
 10
202.759
 20
659.969
 10
200.761
 20
657.006
 10
198.71
 20
654.078
 10
196.61
 20
651.187
 10
194.459
 20
648.332
 10
192.258
 20
645.516
 10
190.009
 20
642.739
 10
187.711
 20
640.001
 10
185.366
 20
637.304
 10
182.975
 20
634.648
 10
180.537
 20
632.034
 10
178.054
 20
629.463
 10
175.527
 20
626.936
 10
172.956
 20
624.453
 10
170.342
 20
622.016
 10
167.686
 20
619.624
 10
164.989
 20
617.28
 10
162.251
 20
614.982
 10
159.473
 20
612.733
 10
156.657
 20
610.533
 10
153.802
 20
608.382
 10
150.911
 20
606.282
 10
147.983
 20
604.232
 10
145.02
 20
602.233
 10
142.022
 20
600.287
 10
138.991
 20
598.393
 10
135.928
 20
596.552
 10
132.832
 20
594.765
 10
129.706
 20
593.033
 10
126.551
 20
591.355
 10
123.366
 20
589.732
 10
120.154
 20
588.166
 10
116.915
 20
586.655
 10
113.649
 20
585.202
 10
110.359
 20
583.805
 10
107.046
 20
582.467
 10
103.709
 20
581.186
 10
100.35
 20
579.964
 10
96.971
 20
578.8
 10
93.572
 20
577.696
 10
90.154
 20
576.651
 10
86.718
 20
575.666
 10
83.266
 20
574.741
 10
79.798
 20
573.877
 10
76.316
 20
573.073
 10
72.82
 20
572.33
 10
69.311
 20
571.648
 10
65.792
 20
571.027
 10
62.262
 20
570.468
 10
58.722
 20
569.971
 10
55.175
 20
569.536
 10
51.62
 20
569.162
 10
48.06
 20
568.851
 10
44.495
 20
568.602
 10
40.925
 20
568.415
 10
37.354
 20
568.29
 10
33.78
 20
568.228
 10
30.206
 20
568.228
 10
26.633
 20
568.29
 10
23.061
 20
568.415
 10
19.363
 20
568.609
 10
19.363
 20
618.863
 10
15.32
 20
618.863
 10
14.193
 20
618.046
 10
12.836
 20
617.522
 10
11.391
 20
617.362
 10
9.953
 20
617.578
 10
8.618
 20
618.153
 10
7.475
 20
619.052
 10
6.599
 20
620.212
 10
6.049
 20
621.558
 10
5.861
 20
623.0
 10
6.049
 20
624.442
 10
6.599
 20
625.788
 10
7.475
 20
626.948
 10
8.618
 20
627.847
 10
9.953
 20
628.422
 10
11.391
 20
628.638
 10
12.836
 20
628.478
 10
14.193
 20
627.954
 10
15.32
 20
627.138
 10
19.363
 20
627.138
 10
19.363
 20
669.088
 10
23.8
 20
669.088
 10
24.981
 20
668.237
 10
26.282
 20
667.739
 10
27.667
 20
667.59
 10
29.045
 20
667.799
 10
30.323
 20
668.353
 10
31.418
 20
669.215
 10
32.256
 20
670.328
 10
32.782
 20
671.618
 10
32.961
 20
673.0
 10
32.782
 20
674.382
 10
32.256
 20
675.672
 10
31.418
 20
676.785
 10
30.323
 20
677.647
 10
29.045
 20
678.201
 10
27.667
 20
678.41
 10
26.282
 20
678.261
 10
24.981
 20
677.763
 10
23.8
 20
676.913
 10
19.363
 20
676.913
 10
19.363
 20
718.863
 10
15.32
 20
718.863
 10
14.193
 20
718.046
 10
12.836
 20
717.522
 10
11.391
 20
717.362
 10
9.953
 20
717.578
 10
8.618
 20
718.153
 10
7.475
 20
719.052
 10
6.599
 20
720.212
 10
6.049
 20
721.558
 10
5.861
 20
723.0
 10
6.049
 20
724.442
 10
6.599
 20
725.788
 10
7.475
 20
726.948
 10
8.618
 20
727.847
 10
9.953
 20
728.422
 10
11.391
 20
728.638
 10
12.836
 20
728.478
 10
14.193
 20
727.954
 10
15.32
 20
727.138
 10
19.363
 20
727.138
 10
19.363
 20
760.638
 10
78.087
 20
760.638
 10
78.087
 20
756.2
 10
77.237
 20
755.019
 10
76.739
 20
753.718
 10
76.59
 20
752.333
 10
76.799
 20
750.955
 10
77.353
 20
749.677
 10
78.215
 20
748.582
 10
79.328
 20
747.744
 10
80.618
 20
747.218
 10
82.0
 20
747.039
 10
83.382
 20
747.218
 10
84.672
 20
747.744
 10
85.785
 20
748.582
 10
86.647
 20
749.677
 10
87.201
 20
750.955
 10
87.41
 20
752.333
 10
87.261
 20
753.718
 10
86.763
 20
755.019
 10
85.913
 20
756.2
 10
85.913
 20
760.638
 10
127.862
 20
760.638
 10
127.863
 20
764.68
 10
127.046
 20
765.807
 10
126.522
 20
767.164
 10
126.362
 20
768.609
 10
126.578
 20
770.047
 10
127.153
 20
771.382
 10
128.052
 20
772.525
 10
129.212
 20
773.401
 10
130.558
 20
773.951
 10
132.0
 20
774.139
 10
133.442
 20
773.951
 10
134.788
 20
773.401
 10
135.948
 20
772.525
 10
136.847
 20
771.382
 10
137.422
 20
770.047
 10
137.638
 20
768.609
 10
137.478
 20
767.164
 10
136.954
 20
765.807
 10
136.138
 20
764.68
 10
136.138
 20
760.638
 10
178.087
 20
760.638
 10
178.087
 20
756.2
 10
177.237
 20
755.019
 10
176.739
 20
753.718
 10
176.59
 20
752.333
 10
176.799
 20
750.955
 10
177.353
 20
749.677
 10
178.215
 20
748.582
 10
179.328
 20
747.744
 10
180.618
 20
747.218
 10
182.0
 20
747.039
 10
183.382
 20
747.218
 10
184.672
 20
747.744
 10
185.785
 20
748.582
 10
186.647
 20
749.677
 10
187.201
 20
750.955
 10
187.41
 20
752.333
 10
187.261
 20
753.718
 10
186.763
 20
755.019
 10
185.913
 20
756.2
 10
185.913
 20
760.638
  0
HATCH
  5
32
330
17
100
AcDbEntity
  8
RASTER
 62
7
100
AcDbHatch
 10
0.0
 20
0.0
 30
0.0
210
0.0
220
0.0
230
1.0
  2
SOLID
 70
1
 71
0
 91
1
 92
3
 72
0
 73
1
 93
54
 10
36.97
 20
591.78
 10
37.082
 20
591.656
 10
37.155
 20
591.548
 10
37.187
 20
591.457
 10
37.18
 20
591.383
 10
37.132
 20
591.325
 10
37.045
 20
591.283
 10
36.917
 20
591.258
 10
36.75
 20
591.25
 10
34.0
 20
591.25
 10
33.816
 20
591.258
 10
33.639
 20
591.283
 10
33.468
 20
591.325
 10
33.305
 20
591.383
 10
33.148
 20
591.457
 10
32.999
 20
591.548
 10
32.856
 20
591.656
 10
32.72
 20
591.78
 10
27.03
 20
597.47
 10
26.914
 20
597.602
 10
26.831
 20
597.735
 10
26.782
 20
597.867
 10
26.765
 20
598.0
 10
26.782
 20
598.133
 10
26.831
 20
598.265
 10
26.914
 20
598.398
 10
27.03
 20
598.53
 10
32.72
 20
604.22
 10
32.856
 20
604.344
 10
32.999
 20
604.452
 10
33.148
 20
604.543
 10
33.305
 20
604.617
 10
33.468
 20
604.675
 10
33.639
 20
604.717
 10
33.816
 20
604.742
 10
34.0
 20
604.75
 10
36.75
 20
604.75
 10
36.917
 20
604.742
 10
37.045
 20
604.717
 10
37.132
 20
604.675
 10
37.18
 20
604.617
 10
37.187
 20
604.543
 10
37.155
 20
604.452
 10
37.082
 20
604.344
 10
36.97
 20
604.22
 10
31.28
 20
598.53
 10
31.164
 20
598.398
 10
31.081
 20
598.265
 10
31.032
 20
598.133
 10
31.015
 20
598.0
 10
31.032
 20
597.867
 10
31.081
 20
597.735
 10
31.164
 20
597.602
 10
31.28
 20
597.47
 97
0
 75
0
 76
1
 98
0
  0
HATCH
  5
33
330
17
100
AcDbEntity
  8
RASTER
 62
7
100
AcDbHatch
 10
0.0
 20
0.0
 30
0.0
210
0.0
220
0.0
230
1.0
  2
SOLID
 70
1
 71
0
 91
1
 92
3
 72
0
 73
1
 93
54
 10
62.799
 20
592.546
 10
62.928
 20
592.439
 10
63.015
 20
592.342
 10
63.061
 20
592.257
 10
63.064
 20
592.182
 10
63.025
 20
592.118
 10
62.944
 20
592.064
 10
62.821
 20
592.021
 10
62.657
 20
591.99
 10
59.934
 20
591.601
 10
59.751
 20
591.583
 10
59.572
 20
591.582
 10
59.398
 20
591.599
 10
59.228
 20
591.634
 10
59.062
 20
591.685
 10
58.901
 20
591.754
 10
58.744
 20
591.841
 10
58.592
 20
591.945
 10
52.155
 20
596.772
 10
52.022
 20
596.887
 10
51.921
 20
597.007
 10
51.853
 20
597.131
 10
51.818
 20
597.26
 10
51.815
 20
597.393
 10
51.846
 20
597.532
 10
51.909
 20
597.675
 10
52.005
 20
597.822
 10
56.833
 20
604.259
 10
56.95
 20
604.401
 10
57.076
 20
604.528
 10
57.211
 20
604.639
 10
57.356
 20
604.735
 10
57.51
 20
604.816
 10
57.672
 20
604.881
 10
57.844
 20
604.931
 10
58.025
 20
604.965
 10
60.748
 20
605.354
 10
60.915
 20
605.369
 10
61.044
 20
605.363
 10
61.137
 20
605.334
 10
61.192
 20
605.283
 10
61.21
 20
605.211
 10
61.191
 20
605.116
 10
61.134
 20
604.999
 10
61.04
 20
604.86
 10
56.213
 20
598.423
 10
56.116
 20
598.276
 10
56.053
 20
598.133
 10
56.023
 20
597.994
 10
56.025
 20
597.861
 10
56.06
 20
597.732
 10
56.128
 20
597.608
 10
56.229
 20
597.488
 10
56.363
 20
597.373
 97
0
 75
0
 76
1
 98
0
  0
HATCH
  5
34
330
17
100
AcDbEntity
  8
RASTER
 62
7
100
AcDbHatch
 10
0.0
 20
0.0
 30
0.0
210
0.0
220
0.0
230
1.0
  2
SOLID
 70
1
 71
0
 91
1
 92
3
 72
0
 73
1
 93
54
 10
88.487
 20
593.385
 10
88.63
 20
593.296
 10
88.729
 20
593.213
 10
88.785
 20
593.134
 10
88.799
 20
593.06
 10
88.769
 20
592.991
 10
88.696
 20
592.928
 10
88.58
 20
592.869
 10
88.422
 20
592.815
 10
85.777
 20
592.059
 10
85.598
 20
592.017
 10
85.421
 20
591.992
 10
85.246
 20
591.985
 10
85.073
 20
591.996
 10
84.902
 20
592.024
 10
84.733
 20
592.071
 10
84.566
 20
592.135
 10
84.401
 20
592.217
 10
77.367
 20
596.125
 10
77.219
 20
596.22
 10
77.103
 20
596.325
 10
77.019
 20
596.439
 10
76.967
 20
596.562
 10
76.946
 20
596.694
 10
76.957
 20
596.835
 10
77.001
 20
596.985
 10
77.076
 20
597.145
 10
80.983
 20
604.178
 10
81.08
 20
604.335
 10
81.188
 20
604.478
 10
81.307
 20
604.607
 10
81.437
 20
604.721
 10
81.578
 20
604.822
 10
81.73
 20
604.909
 10
81.894
 20
604.981
 10
82.069
 20
605.04
 10
84.713
 20
605.795
 10
84.876
 20
605.833
 10
85.006
 20
605.844
 10
85.101
 20
605.829
 10
85.163
 20
605.786
 10
85.19
 20
605.716
 10
85.184
 20
605.62
 10
85.144
 20
605.496
 10
85.07
 20
605.346
 10
81.162
 20
598.312
 10
81.087
 20
598.153
 10
81.044
 20
598.003
 10
81.033
 20
597.861
 10
81.053
 20
597.729
 10
81.105
 20
597.607
 10
81.19
 20
597.493
 10
81.306
 20
597.388
 10
81.454
 20
597.292
 97
0
 75
0
 76
1
 98
0
  0
HATCH
  5
35
330
17
100
AcDbEntity
  8
RASTER
 62
7
100
AcDbHatch
 10
0.0
 20
0.0
 30
0.0
210
0.0
220
0.0
230
1.0
  2
SOLID
 70
1
 71
0
 91
1
 92
3
 72
0
 73
1
 93
54
 10
114.227
 20
619.659
 10
114.383
 20
619.599
 10
114.496
 20
619.535
 10
114.566
 20
619.468
 10
114.592
 20
619.398
 10
114.576
 20
619.325
 10
114.516
 20
619.248
 10
114.413
 20
619.169
 10
114.267
 20
619.087
 10
111.808
 20
617.857
 10
111.639
 20
617.782
 10
111.47
 20
617.725
 10
111.299
 20
617.686
 10
111.127
 20
617.665
 10
110.953
 20
617.661
 10
110.778
 20
617.676
 10
110.602
 20
617.708
 10
110.425
 20
617.759
 10
102.792
 20
620.303
 10
102.629
 20
620.37
 10
102.496
 20
620.451
 10
102.392
 20
620.548
 10
102.318
 20
620.659
 10
102.273
 20
620.785
 10
102.259
 20
620.926
 10
102.273
 20
621.081
 10
102.318
 20
621.252
 10
104.862
 20
628.885
 10
104.928
 20
629.057
 10
105.008
 20
629.217
 10
105.101
 20
629.366
 10
105.208
 20
629.502
 10
105.328
 20
629.627
 10
105.462
 20
629.741
 10
105.609
 20
629.842
 10
105.77
 20
629.932
 10
108.23
 20
631.162
 10
108.383
 20
631.229
 10
108.508
 20
631.264
 10
108.605
 20
631.266
 10
108.674
 20
631.235
 10
108.714
 20
631.172
 10
108.725
 20
631.076
 10
108.709
 20
630.947
 10
108.663
 20
630.786
 10
106.119
 20
623.152
 10
106.075
 20
622.982
 10
106.06
 20
622.826
 10
106.075
 20
622.686
 10
106.119
 20
622.56
 10
106.193
 20
622.448
 10
106.297
 20
622.352
 10
106.43
 20
622.271
 10
106.593
 20
622.204
 97
0
 75
0
 76
1
 98
0
  0
HATCH
  5
36
330
17
100
AcDbEntity
  8
RASTER
 62
7
100
AcDbHatch
 10
0.0
 20
0.0
 30
0.0
210
0.0
220
0.0
230
1.0
  2
SOLID
 70
1
 71
0
 91
1
 92
3
 72
0
 73
1
 93
54
 10
139.585
 20
620.582
 10
139.748
 20
620.541
 10
139.868
 20
620.491
 10
139.945
 20
620.433
 10
139.981
 20
620.367
 10
139.973
 20
620.293
 10
139.924
 20
620.21
 10
139.831
 20
620.118
 10
139.696
 20
620.018
 10
137.408
 20
618.493
 10
137.251
 20
618.398
 10
137.089
 20
618.32
 10
136.925
 20
618.26
 10
136.756
 20
618.218
 10
136.585
 20
618.193
 10
136.41
 20
618.186
 10
136.231
 20
618.196
 10
136.049
 20
618.224
 10
128.159
 20
619.802
 10
127.989
 20
619.848
 10
127.847
 20
619.912
 10
127.732
 20
619.995
 10
127.644
 20
620.096
 10
127.585
 20
620.216
 10
127.552
 20
620.354
 10
127.548
 20
620.51
 10
127.571
 20
620.685
 10
129.149
 20
628.574
 10
129.193
 20
628.753
 10
129.252
 20
628.922
 10
129.326
 20
629.081
 10
129.415
 20
629.23
 10
129.519
 20
629.369
 10
129.638
 20
629.498
 10
129.771
 20
629.617
 10
129.92
 20
629.726
 10
132.208
 20
631.251
 10
132.352
 20
631.337
 10
132.472
 20
631.387
 10
132.568
 20
631.401
 10
132.639
 20
631.379
 10
132.687
 20
631.321
 10
132.71
 20
631.228
 10
132.71
 20
631.098
 10
132.685
 20
630.932
 10
131.107
 20
623.042
 10
131.084
 20
622.867
 10
131.089
 20
622.711
 10
131.121
 20
622.573
 10
131.181
 20
622.454
 10
131.268
 20
622.353
 10
131.383
 20
622.27
 10
131.525
 20
622.206
 10
131.695
 20
622.16
 97
0
 75
0
 76
1
 98
0
  0
HATCH
  5
37
330
17
100
AcDbEntity
  8
RASTER
 62
7
100
AcDbHatch
 10
0.0
 20
0.0
 30
0.0
210
0.0
220
0.0
230
1.0
  2
SOLID
 70
1
 71
0
 91
1
 92
3
 72
0
 73
1
 93
54
 10
164.912
 20
647.116
 10
165.08
 20
647.108
 10
165.207
 20
647.083
 10
165.295
 20
647.042
 10
165.342
 20
646.984
 10
165.349
 20
646.909
 10
165.317
 20
646.818
 10
165.244
 20
646.71
 10
165.132
 20
646.586
 10
163.187
 20
644.641
 10
163.051
 20
644.517
 10
162.908
 20
644.409
 10
162.759
 20
644.318
 10
162.602
 20
644.243
 10
162.438
 20
644.185
 10
162.268
 20
644.144
 10
162.091
 20
644.119
 10
161.907
 20
644.111
 10
153.861
 20
644.111
 10
153.685
 20
644.123
 10
153.533
 20
644.158
 10
153.404
 20
644.216
 10
153.298
 20
644.298
 10
153.216
 20
644.404
 10
153.158
 20
644.533
 10
153.123
 20
644.685
 10
153.111
 20
644.861
 10
153.111
 20
652.907
 10
153.119
 20
653.091
 10
153.144
 20
653.268
 10
153.185
 20
653.438
 10
153.243
 20
653.602
 10
153.318
 20
653.759
 10
153.409
 20
653.908
 10
153.517
 20
654.051
 10
153.641
 20
654.187
 10
155.586
 20
656.132
 10
155.71
 20
656.244
 10
155.818
 20
656.317
 10
155.909
 20
656.349
 10
155.984
 20
656.342
 10
156.042
 20
656.295
 10
156.083
 20
656.207
 10
156.108
 20
656.08
 10
156.116
 20
655.912
 10
156.116
 20
647.866
 10
156.128
 20
647.69
 10
156.163
 20
647.538
 10
156.222
 20
647.409
 10
156.304
 20
647.304
 10
156.409
 20
647.222
 10
156.538
 20
647.163
 10
156.69
 20
647.128
 10
156.866
 20
647.116
 97
0
 75
0
 76
1
 98
0
  0
HATCH
  5
38
330
17
100
AcDbEntity
  8
RASTER
 62
7
100
AcDbHatch
 10
0.0
 20
0.0
 30
0.0
210
0.0
220
0.0
230
1.0
  2
SOLID
 70
1
 71
0
 91
1
 92
3
 72
0
 73
1
 93
54
 10
189.786
 20
699.663
 10
189.947
 20
699.709
 10
190.076
 20
699.725
 10
190.172
 20
699.714
 10
190.235
 20
699.674
 10
190.266
 20
699.605
 10
190.264
 20
699.508
 10
190.229
 20
699.383
 10
190.162
 20
699.23
 10
188.932
 20
696.77
 10
188.842
 20
696.609
 10
188.741
 20
696.462
 10
188.627
 20
696.328
 10
188.502
 20
696.208
 10
188.366
 20
696.101
 10
188.217
 20
696.008
 10
188.057
 20
695.928
 10
187.885
 20
695.862
 10
180.252
 20
693.318
 10
180.081
 20
693.273
 10
179.926
 20
693.259
 10
179.785
 20
693.273
 10
179.659
 20
693.318
 10
179.548
 20
693.392
 10
179.451
 20
693.496
 10
179.37
 20
693.629
 10
179.303
 20
693.792
 10
176.759
 20
701.425
 10
176.708
 20
701.602
 10
176.676
 20
701.778
 10
176.661
 20
701.953
 10
176.665
 20
702.127
 10
176.686
 20
702.299
 10
176.725
 20
702.47
 10
176.782
 20
702.639
 10
176.857
 20
702.808
 10
178.087
 20
705.267
 10
178.169
 20
705.413
 10
178.248
 20
705.516
 10
178.325
 20
705.576
 10
178.398
 20
705.592
 10
178.468
 20
705.566
 10
178.535
 20
705.496
 10
178.599
 20
705.383
 10
178.659
 20
705.227
 10
181.204
 20
697.593
 10
181.271
 20
697.43
 10
181.352
 20
697.297
 10
181.448
 20
697.193
 10
181.56
 20
697.119
 10
181.686
 20
697.075
 10
181.826
 20
697.06
 10
181.982
 20
697.075
 10
182.152
 20
697.119
 97
0
 75
0
 76
1
 98
0
  0
HATCH
  5
39
330
17
100
AcDbEntity
  8
RASTER
 62
7
100
AcDbHatch
 10
0.0
 20
0.0
 30
0.0
210
0.0
220
0.0
230
1.0
  2
SOLID
 70
1
 71
0
 91
1
 92
3
 72
0
 73
1
 93
54
 10
189.932
 20
673.685
 10
190.098
 20
673.71
 10
190.228
 20
673.71
 10
190.321
 20
673.687
 10
190.379
 20
673.639
 10
190.401
 20
673.568
 10
190.387
 20
673.472
 10
190.337
 20
673.352
 10
190.251
 20
673.208
 10
188.726
 20
670.92
 10
188.617
 20
670.771
 10
188.498
 20
670.638
 10
188.369
 20
670.519
 10
188.23
 20
670.415
 10
188.081
 20
670.326
 10
187.922
 20
670.252
 10
187.753
 20
670.193
 10
187.574
 20
670.149
 10
179.685
 20
668.571
 10
179.51
 20
668.548
 10
179.354
 20
668.552
 10
179.216
 20
668.585
 10
179.096
 20
668.644
 10
178.995
 20
668.732
 10
178.912
 20
668.847
 10
178.848
 20
668.989
 10
178.802
 20
669.159
 10
177.224
 20
677.049
 10
177.196
 20
677.231
 10
177.186
 20
677.41
 10
177.193
 20
677.585
 10
177.218
 20
677.756
 10
177.26
 20
677.925
 10
177.32
 20
678.089
 10
177.398
 20
678.251
 10
177.493
 20
678.408
 10
179.018
 20
680.696
 10
179.118
 20
680.831
 10
179.21
 20
680.924
 10
179.293
 20
680.973
 10
179.367
 20
680.981
 10
179.433
 20
680.945
 10
179.491
 20
680.868
 10
179.541
 20
680.748
 10
179.582
 20
680.585
 10
181.16
 20
672.695
 10
181.206
 20
672.525
 10
181.27
 20
672.383
 10
181.353
 20
672.268
 10
181.454
 20
672.181
 10
181.573
 20
672.121
 10
181.711
 20
672.089
 10
181.867
 20
672.084
 10
182.042
 20
672.107
 97
0
 75
0
 76
1
 98
0
  0
HATCH
  5
3A
330
17
100
AcDbEntity
  8
RASTER
 62
7
100
AcDbHatch
 10
0.0
 20
0.0
 30
0.0
210
0.0
220
0.0
230
1.0
  2
SOLID
 70
1
 71
0
 91
1
 92
3
 72
0
 73
1
 93
54
 10
213.86
 20
752.04
 10
213.999
 20
752.134
 10
214.116
 20
752.191
 10
214.211
 20
752.21
 10
214.283
 20
752.192
 10
214.334
 20
752.137
 10
214.363
 20
752.044
 10
214.369
 20
751.915
 10
214.354
 20
751.748
 10
213.965
 20
749.025
 10
213.931
 20
748.844
 10
213.881
 20
748.672
 10
213.816
 20
748.51
 10
213.735
 20
748.356
 10
213.639
 20
748.211
 10
213.528
 20
748.076
 10
213.401
 20
747.95
 10
213.259
 20
747.833
 10
206.822
 20
743.005
 10
206.675
 20
742.909
 10
206.532
 20
742.846
 10
206.393
 20
742.815
 10
206.26
 20
742.818
 10
206.131
 20
742.853
 10
206.007
 20
742.921
 10
205.887
 20
743.022
 10
205.772
 20
743.155
 10
200.945
 20
749.592
 10
200.841
 20
749.744
 10
200.754
 20
749.901
 10
200.685
 20
750.062
 10
200.634
 20
750.228
 10
200.599
 20
750.398
 10
200.582
 20
750.572
 10
200.583
 20
750.751
 10
200.601
 20
750.934
 10
200.99
 20
753.657
 10
201.021
 20
753.821
 10
201.064
 20
753.944
 10
201.118
 20
754.025
 10
201.182
 20
754.064
 10
201.257
 20
754.061
 10
201.342
 20
754.015
 10
201.439
 20
753.928
 10
201.546
 20
753.799
 10
206.373
 20
747.363
 10
206.488
 20
747.229
 10
206.608
 20
747.128
 10
206.732
 20
747.06
 10
206.861
 20
747.025
 10
206.994
 20
747.023
 10
207.133
 20
747.053
 10
207.276
 20
747.116
 10
207.423
 20
747.213
 97
0
 75
0
 76
1
 98
0
  0
HATCH
  5
3B
330
17
100
AcDbEntity
  8
RASTER
 62
7
100
AcDbHatch
 10
0.0
 20
0.0
 30
0.0
210
0.0
220
0.0
230
1.0
  2
SOLID
 70
1
 71
0
 91
1
 92
3
 72
0
 73
1
 93
54
 10
214.346
 20
726.07
 10
214.496
 20
726.144
 10
214.62
 20
726.184
 10
214.716
 20
726.19
 10
214.786
 20
726.163
 10
214.829
 20
726.101
 10
214.844
 20
726.006
 10
214.833
 20
725.876
 10
214.795
 20
725.713
 10
214.04
 20
723.069
 10
213.981
 20
722.894
 10
213.909
 20
722.73
 10
213.822
 20
722.578
 10
213.721
 20
722.437
 10
213.607
 20
722.307
 10
213.478
 20
722.188
 10
213.335
 20
722.08
 10
213.178
 20
721.983
 10
206.145
 20
718.076
 10
205.985
 20
718.001
 10
205.835
 20
717.957
 10
205.694
 20
717.946
 10
205.562
 20
717.967
 10
205.439
 20
718.019
 10
205.325
 20
718.103
 10
205.22
 20
718.219
 10
205.125
 20
718.367
 10
201.217
 20
725.401
 10
201.135
 20
725.566
 10
201.071
 20
725.733
 10
201.024
 20
725.902
 10
200.996
 20
726.073
 10
200.985
 20
726.246
 10
200.992
 20
726.421
 10
201.017
 20
726.598
 10
201.059
 20
726.777
 10
201.815
 20
729.422
 10
201.869
 20
729.58
 10
201.928
 20
729.696
 10
201.991
 20
729.769
 10
202.06
 20
729.799
 10
202.134
 20
729.785
 10
202.213
 20
729.729
 10
202.296
 20
729.63
 10
202.385
 20
729.487
 10
206.292
 20
722.454
 10
206.388
 20
722.306
 10
206.493
 20
722.19
 10
206.607
 20
722.105
 10
206.729
 20
722.053
 10
206.861
 20
722.033
 10
207.003
 20
722.044
 10
207.153
 20
722.087
 10
207.312
 20
722.162
 97
0
 75
0
 76
1
 98
0
  0
HATCH
  5
3C
330
17
100
AcDbEntity
  8
RASTER
 62
7
100
AcDbHatch
 10
0.0
 20
0.0
 30
0.0
210
0.0
220
0.0
230
1.0
  2
SOLID
 70
1
 71
0
 91
3
 92
3
 72
0
 73
1
 93
86
 10
80.113
 20
607.741
 10
82.93
 20
607.782
 10
84.699
 20
607.238
 10
86.372
 20
606.326
 10
87.869
 20
604.965
 10
89.053
 20
602.883
 10
89.461
 20
601.251
 10
89.461
 20
599.346
 10
89.189
 20
598.393
 10
89.23
 20
598.026
 10
89.733
 20
598.937
 10
90.141
 20
600.57
 10
90.141
 20
601.795
 10
89.869
 20
603.156
 10
89.325
 20
604.652
 10
89.42
 20
605.237
 10
89.869
 20
605.469
 10
90.454
 20
605.237
 10
90.863
 20
604.693
 10
91.91
 20
602.475
 10
92.183
 20
601.251
 10
92.183
 20
598.665
 10
91.774
 20
597.032
 10
90.727
 20
594.951
 10
90.318
 20
594.406
 10
88.686
 20
592.91
 10
86.74
 20
591.862
 10
85.923
 20
591.59
 10
83.746
 20
591.317
 10
83.474
 20
591.454
 10
82.522
 20
591.454
 10
81.161
 20
591.862
 10
79.895
 20
592.501
 10
78.943
 20
593.182
 10
78.752
 20
593.535
 10
78.576
 20
593.495
 10
79.079
 20
592.637
 10
80.032
 20
591.685
 10
81.256
 20
590.868
 10
82.113
 20
590.501
 10
83.61
 20
590.093
 10
85.651
 20
590.093
 10
85.923
 20
590.229
 10
87.053
 20
590.134
 10
87.284
 20
589.685
 10
87.053
 20
589.236
 10
85.787
 20
588.596
 10
84.563
 20
588.46
 10
84.29
 20
588.324
 10
82.249
 20
588.324
 10
80.208
 20
588.868
 10
78.399
 20
589.78
 10
77.582
 20
590.324
 10
76.358
 20
591.549
 10
75.541
 20
592.773
 10
74.902
 20
594.175
 10
74.494
 20
595.672
 10
74.494
 20
597.985
 10
74.63
 20
598.665
 10
75.038
 20
599.89
 10
75.949
 20
601.563
 10
77.31
 20
602.924
 10
78.984
 20
603.836
 10
80.344
 20
604.244
 10
82.249
 20
604.244
 10
82.345
 20
604.339
 10
81.025
 20
604.652
 10
80.344
 20
604.652
 10
78.984
 20
604.38
 10
77.038
 20
603.605
 10
75.949
 20
602.924
 10
74.589
 20
601.563
 10
73.677
 20
600.026
 10
73.269
 20
598.937
 10
73.133
 20
598.121
 10
72.902
 20
597.808
 10
72.725
 20
597.713
 10
72.14
 20
597.808
 10
71.772
 20
598.529
 10
71.908
 20
600.026
 10
72.452
 20
601.795
 10
73.364
 20
603.468
 10
74.317
 20
604.693
 10
75.133
 20
605.51
 10
76.494
 20
606.462
 10
78.167
 20
607.238
 97
0
 92
2
 72
0
 73
1
 93
67
 10
81.433
 20
607.238
 10
81.161
 20
607.102
 10
79.528
 20
606.965
 10
77.895
 20
606.421
 10
76.494
 20
605.646
 10
75.405
 20
604.829
 10
74.181
 20
603.468
 10
73.133
 20
601.659
 10
72.589
 20
600.026
 10
72.452
 20
598.665
 10
72.548
 20
598.57
 10
72.725
 20
598.937
 10
72.997
 20
600.026
 10
73.636
 20
601.291
 10
74.317
 20
602.244
 10
75.405
 20
603.332
 10
76.63
 20
604.149
 10
78.031
 20
604.788
 10
79.664
 20
605.197
 10
81.569
 20
605.197
 10
82.249
 20
605.06
 10
83.066
 20
604.788
 10
84.195
 20
604.149
 10
85.148
 20
603.196
 10
85.787
 20
602.067
 10
86.059
 20
601.251
 10
86.195
 20
599.754
 10
85.923
 20
598.801
 10
85.42
 20
597.808
 10
84.74
 20
597.128
 10
83.746
 20
596.624
 10
82.794
 20
596.624
 10
82.209
 20
596.856
 10
81.664
 20
597.264
 10
81.297
 20
597.985
 10
81.297
 20
598.393
 10
81.528
 20
598.842
 10
81.841
 20
599.073
 10
82.522
 20
599.073
 10
83.025
 20
598.842
 10
83.066
 20
599.346
 10
82.698
 20
599.795
 10
82.249
 20
600.026
 10
81.705
 20
600.026
 10
80.984
 20
599.659
 10
80.481
 20
598.937
 10
80.344
 20
598.529
 10
80.344
 20
597.577
 10
80.481
 20
597.168
 10
80.984
 20
596.311
 10
81.392
 20
595.903
 10
82.794
 20
595.127
 10
83.202
 20
594.991
 10
85.243
 20
594.991
 10
86.059
 20
595.263
 10
87.189
 20
595.903
 10
87.597
 20
596.311
 10
88.141
 20
597.128
 10
88.645
 20
598.393
 10
88.645
 20
598.937
 10
88.781
 20
599.21
 10
88.781
 20
601.251
 10
88.373
 20
602.747
 10
87.869
 20
603.741
 10
87.189
 20
604.693
 10
85.692
 20
605.918
 10
83.338
 20
606.965
 97
0
 92
2
 72
0
 73
1
 93
86
 10
90.101
 20
604.611
 10
90.005
 20
604.516
 10
90.686
 20
602.339
 10
90.686
 20
600.026
 10
90.141
 20
598.257
 10
89.502
 20
597.128
 10
89.148
 20
596.801
 10
88.958
 20
596.447
 10
88.005
 20
595.631
 10
86.468
 20
594.719
 10
85.107
 20
594.311
 10
83.338
 20
594.311
 10
82.386
 20
594.583
 10
81.392
 20
595.087
 10
80.848
 20
595.495
 10
80.168
 20
596.311
 10
79.664
 20
597.849
 10
79.936
 20
599.21
 10
80.44
 20
600.067
 10
81.433
 20
600.57
 10
82.658
 20
600.57
 10
83.433
 20
600.121
 10
83.651
 20
599.795
 10
83.746
 20
598.801
 10
83.202
 20
598.257
 10
82.522
 20
598.257
 10
82.018
 20
598.488
 10
81.977
 20
598.121
 10
82.209
 20
597.672
 10
83.202
 20
597.168
 10
83.882
 20
597.305
 10
84.603
 20
597.672
 10
85.012
 20
598.08
 10
85.515
 20
599.073
 10
85.651
 20
599.482
 10
85.651
 20
600.706
 10
85.284
 20
601.7
 10
84.467
 20
602.652
 10
83.338
 20
603.292
 10
82.386
 20
603.564
 10
80.617
 20
603.564
 10
79.12
 20
603.156
 10
78.127
 20
602.652
 10
77.038
 20
601.836
 10
76.222
 20
600.747
 10
75.31
 20
598.665
 10
75.174
 20
597.985
 10
75.174
 20
595.536
 10
75.582
 20
594.175
 10
76.222
 20
592.91
 10
76.902
 20
591.957
 10
78.127
 20
590.732
 10
80.208
 20
589.549
 10
82.113
 20
589.004
 10
84.427
 20
589.004
 10
86.155
 20
589.453
 10
85.379
 20
589.549
 10
85.107
 20
589.413
 10
84.427
 20
589.413
 10
84.154
 20
589.549
 10
82.522
 20
589.685
 10
80.712
 20
590.46
 10
79.351
 20
591.413
 10
78.399
 20
592.501
 10
77.623
 20
594.039
 10
77.351
 20
594.991
 10
77.256
 20
595.985
 10
77.351
 20
596.896
 10
77.582
 20
597.4
 10
77.895
 20
595.944
 10
78.807
 20
594.27
 10
79.623
 20
593.454
 10
81.161
 20
592.542
 10
82.522
 20
592.134
 10
84.427
 20
591.998
 10
84.699
 20
592.134
 10
85.923
 20
592.27
 10
87.461
 20
592.91
 10
88.686
 20
593.726
 10
89.774
 20
594.814
 10
91.094
 20
597.168
 10
91.502
 20
598.529
 10
91.502
 20
599.073
 10
91.638
 20
599.346
 10
91.502
 20
601.387
 10
90.958
 20
603.156
 97
0
 75
0
 76
1
 98
0
  0
HATCH
  5
3D
330
17
100
AcDbEntity
  8
RASTER
 62
7
100
AcDbHatch
 10
0.0
 20
0.0
 30
0.0
210
0.0
220
0.0
230
1.0
  2
SOLID
 70
1
 71
0
 91
1
 92
3
 72
0
 73
1
 93
4
 10
36.3
 20
760.9
 10
36.3
 20
758.943
 10
36.7
 20
758.943
 10
36.7
 20
760.9
 97
0
 75
0
 76
1
 98
0
  0
HATCH
  5
3E
330
17
100
AcDbEntity
  8
RASTER
 62
7
100
AcDbHatch
 10
0.0
 20
0.0
 30
0.0
210
0.0
220
0.0
230
1.0
  2
SOLID
 70
1
 71
0
 91
1
 92
3
 72
0
 73
1
 93
4
 10
36.3
 20
756.987
 10
36.3
 20
755.422
 10
36.7
 20
755.422
 10
36.7
 20
756.987
 97
0
 75
0
 76
1
 98
0
  0
HATCH
  5
3F
330
17
100
AcDbEntity
  8
RASTER
 62
7
100
AcDbHatch
 10
0.0
 20
0.0
 30
0.0
210
0.0
220
0.0
230
1.0
  2
SOLID
 70
1
 71
0
 91
1
 92
3
 72
0
 73
1
 93
4
 10
36.3
 20
753.465
 10
36.3
 20
751.9
 10
36.7
 20
751.9
 10
36.7
 20
753.465
 97
0
 75
0
 76
1
 98
0
  0
HATCH
  5
40
330
17
100
AcDbEntity
  8
RASTER
 62
7
100
AcDbHatch
 10
0.0
 20
0.0
 30
0.0
210
0.0
220
0.0
230
1.0
  2
SOLID
 70
1
 71
0
 91
1
 92
3
 72
0
 73
1
 93
4
 10
38.444
 20
751.7
 10
40.0
 20
751.7
 10
40.0
 20
752.1
 10
38.444
 20
752.1
 97
0
 75
0
 76
1
 98
0
  0
HATCH
  5
41
330
17
100
AcDbEntity
  8
RASTER
 62
7
100
AcDbHatch
 10
0.0
 20
0.0
 30
0.0
210
0.0
220
0.0
230
1.0
  2
SOLID
 70
1
 71
0
 91
1
 92
3
 72
0
 73
1
 93
4
 10
40.803
 20
750.557
 10
40.51
 20
748.724
 10
40.905
 20
748.661
 10
41.197
 20
750.493
 97
0
 75
0
 76
1
 98
0
  0
HATCH
  5
42
330
17
100
AcDbEntity
  8
RASTER
 62
7
100
AcDbHatch
 10
0.0
 20
0.0
 30
0.0
210
0.0
220
0.0
230
1.0
  2
SOLID
 70
1
 71
0
 91
1
 92
3
 72
0
 73
1
 93
4
 10
38.8
 20
748.6
 10
37.2
 20
748.6
 10
37.2
 20
748.2
 10
38.8
 20
748.2
 97
0
 75
0
 76
1
 98
0
  0
HATCH
  5
43
330
17
100
AcDbEntity
  8
RASTER
 62
7
100
AcDbHatch
 10
0.0
 20
0.0
 30
0.0
210
0.0
220
0.0
230
1.0
  2
SOLID
 70
1
 71
0
 91
1
 92
3
 72
0
 73
1
 93
4
 10
35.2
 20
748.6
 10
33.6
 20
748.6
 10
33.6
 20
748.2
 10
35.2
 20
748.2
 97
0
 75
0
 76
1
 98
0
  0
HATCH
  5
44
330
17
100
AcDbEntity
  8
RASTER
 62
7
100
AcDbHatch
 10
0.0
 20
0.0
 30
0.0
210
0.0
220
0.0
230
1.0
  2
SOLID
 70
1
 71
0
 91
1
 92
3
 72
0
 73
1
 93
4
 10
31.6
 20
748.6
 10
30.0
 20
748.6
 10
30.0
 20
748.2
 10
31.6
 20
748.2
 97
0
 75
0
 76
1
 98
0
  0
HATCH
  5
45
330
17
100
AcDbEntity
  8
RASTER
 62
7
100
AcDbHatch
 10
0.0
 20
0.0
 30
0.0
210
0.0
220
0.0
230
1.0
  2
SOLID
 70
1
 71
0
 91
1
 92
3
 72
0
 73
1
 93
4
 10
28.0
 20
748.6
 10
26.4
 20
748.6
 10
26.4
 20
748.2
 10
28.0
 20
748.2
 97
0
 75
0
 76
1
 98
0
  0
HATCH
  5
46
330
17
100
AcDbEntity
  8
RASTER
 62
7
100
AcDbHatch
 10
0.0
 20
0.0
 30
0.0
210
0.0
220
0.0
230
1.0
  2
SOLID
 70
1
 71
0
 91
1
 92
3
 72
0
 73
1
 93
4
 10
24.485
 20
748.581
 10
23.161
 20
749.199
 10
22.992
 20
748.836
 10
24.315
 20
748.219
 97
0
 75
0
 76
1
 98
0
  0
HATCH
  5
47
330
17
100
AcDbEntity
  8
RASTER
 62
7
100
AcDbHatch
 10
0.0
 20
0.0
 30
0.0
210
0.0
220
0.0
230
1.0
  2
SOLID
 70
1
 71
0
 91
1
 92
3
 72
0
 73
1
 93
4
 10
23.141
 20
750.759
 10
24.141
 20
751.759
 10
23.859
 20
752.041
 10
22.859
 20
751.041
 97
0
 75
0
 76
1
 98
0
  0
HATCH
  5
48
330
17
100
AcDbEntity
  8
RASTER
 62
7
100
AcDbHatch
 10
0.0
 20
0.0
 30
0.0
210
0.0
220
0.0
230
1.0
  2
SOLID
 70
1
 71
0
 91
1
 92
3
 72
0
 73
1
 93
4
 10
25.944
 20
751.7
 10
27.5
 20
751.7
 10
27.5
 20
752.1
 10
25.944
 20
752.1
 97
0
 75
0
 76
1
 98
0
  0
HATCH
  5
49
330
17
100
AcDbEntity
  8
RASTER
 62
7
100
AcDbHatch
 10
0.0
 20
0.0
 30
0.0
210
0.0
220
0.0
230
1.0
  2
SOLID
 70
1
 71
0
 91
1
 92
3
 72
0
 73
1
 93
4
 10
27.7
 20
753.857
 10
27.7
 20
755.813
 10
27.3
 20
755.813
 10
27.3
 20
753.857
 97
0
 75
0
 76
1
 98
0
  0
HATCH
  5
4A
330
17
100
AcDbEntity
  8
RASTER
 62
7
100
AcDbHatch
 10
0.0
 20
0.0
 30
0.0
210
0.0
220
0.0
230
1.0
  2
SOLID
 70
1
 71
0
 91
1
 92
3
 72
0
 73
1
 93
4
 10
27.7
 20
757.77
 10
27.7
 20
759.335
 10
27.3
 20
759.335
 10
27.3
 20
757.77
 97
0
 75
0
 76
1
 98
0
  0
HATCH
  5
4B
330
17
100
AcDbEntity
  8
RASTER
 62
7
100
AcDbHatch
 10
0.0
 20
0.0
 30
0.0
210
0.0
220
0.0
230
1.0
  2
SOLID
 70
1
 71
0
 91
1
 92
3
 72
0
 73
1
 93
4
 10
59.983
 20
760.5
 10
59.914
 20
759.381
 10
59.896
 20
759.389
 10
59.902
 20
760.5
 97
0
 75
0
 76
1
 98
0
  0
HATCH
  5
4C
330
17
100
AcDbEntity
  8
RASTER
 62
7
100
AcDbHatch
 10
0.0
 20
0.0
 30
0.0
210
0.0
220
0.0
230
1.0
  2
SOLID
 70
1
 71
0
 91
1
 92
3
 72
0
 73
1
 93
32
 10
54.1
 20
750.627
 10
52.382
 20
749.946
 10
50.718
 20
749.307
 10
49.766
 20
747.758
 10
48.749
 20
746.166
 10
47.007
 20
745.703
 10
45.134
 20
745.625
 10
43.752
 20
744.574
 10
42.449
 20
743.148
 10
40.71
 20
742.865
 10
38.823
 20
743.334
 10
37.184
 20
742.929
 10
35.616
 20
741.809
 10
33.885
 20
741.66
 10
32.145
 20
742.571
 10
30.474
 20
742.847
 10
30.475
 20
742.867
 10
32.144
 20
742.694
 10
33.872
 20
741.882
 10
35.58
 20
742.118
 10
37.118
 20
743.313
 10
38.722
 20
743.773
 10
40.574
 20
743.338
 10
42.279
 20
743.633
 10
43.555
 20
745.049
 10
44.921
 20
746.068
 10
46.79
 20
746.098
 10
48.543
 20
746.496
 10
49.587
 20
748.013
 10
50.58
 20
749.482
 10
52.3
 20
750.038
 10
54.086
 20
750.642
 97
0
 75
0
 76
1
 98
0
  0
HATCH
  5
4D
330
17
100
AcDbEntity
  8
RASTER
 62
7
100
AcDbHatch
 10
0.0
 20
0.0
 30
0.0
210
0.0
220
0.0
230
1.0
  2
SOLID
 70
1
 71
0
 91
1
 92
3
 72
0
 73
1
 93
4
 10
20.808
 20
747.603
 10
19.5
 20
748.172
 10
19.5
 20
748.294
 10
20.816
 20
747.621
 97
0
 75
0
 76
1
 98
0
  0
HATCH
  5
4E
330
17
100
AcDbEntity
  8
RASTER
 62
7
100
AcDbHatch
 10
0.0
 20
0.0
 30
0.0
210
0.0
220
0.0
230
1.0
  2
SOLID
 70
1
 71
0
 91
1
 92
3
 72
0
 73
1
 93
24
 10
63.157
 20
755.929
 10
62.057
 20
754.78
 10
60.786
 20
753.782
 10
59.7
 20
752.702
 10
58.959
 20
751.372
 10
58.423
 20
749.834
 10
57.771
 20
748.332
 10
56.744
 20
747.15
 10
55.322
 20
746.399
 10
53.727
 20
745.916
 10
52.246
 20
745.37
 10
51.027
 20
744.501
 10
51.016
 20
744.517
 10
52.154
 20
745.496
 10
53.552
 20
746.135
 10
55.069
 20
746.688
 10
56.427
 20
747.481
 10
57.412
 20
748.675
 10
58.049
 20
750.161
 10
58.602
 20
751.659
 10
59.391
 20
752.929
 10
60.553
 20
753.937
 10
61.924
 20
754.861
 10
63.139
 20
755.939
 97
0
 75
0
 76
1
 98
0
  0
HATCH
  5
4F
330
17
100
AcDbEntity
  8
RASTER
 62
7
100
AcDbHatch
 10
0.0
 20
0.0
 30
0.0
210
0.0
220
0.0
230
1.0
  2
SOLID
 70
1
 71
0
 91
1
 92
3
 72
0
 73
1
 93
22
 10
35.681
 20
735.177
 10
34.016
 20
734.322
 10
32.277
 20
734.095
 10
30.55
 20
734.681
 10
28.866
 20
735.222
 10
27.126
 20
735.047
 10
25.307
 20
734.627
 10
23.574
 20
734.898
 10
22.035
 20
735.925
 10
20.511
 20
736.827
 10
19.5
 20
736.949
 10
19.5
 20
737.4
 10
20.658
 20
737.29
 10
22.167
 20
736.416
 10
23.684
 20
735.394
 10
25.391
 20
735.106
 10
27.182
 20
735.488
 10
28.897
 20
735.605
 10
30.561
 20
734.989
 10
32.276
 20
734.315
 10
34.01
 20
734.444
 10
35.679
 20
735.196
 97
0
 75
0
 76
1
 98
0
  0
HATCH
  5
50
330
17
100
AcDbEntity
  8
RASTER
 62
7
100
AcDbHatch
 10
0.0
 20
0.0
 30
0.0
210
0.0
220
0.0
230
1.0
  2
SOLID
 70
1
 71
0
 91
1
 92
3
 72
0
 73
1
 93
32
 10
68.965
 20
751.737
 10
68.91
 20
749.891
 10
68.585
 20
748.144
 10
67.259
 20
747.066
 10
65.575
 20
746.315
 10
64.568
 20
745.066
 10
64.185
 20
743.236
 10
63.423
 20
741.682
 10
61.804
 20
740.986
 10
60.016
 20
740.556
 10
58.861
 20
739.434
 10
58.133
 20
737.717
 10
56.991
 20
736.479
 10
55.196
 20
736.224
 10
53.387
 20
736.104
 10
52.108
 20
735.113
 10
52.098
 20
735.131
 10
53.33
 20
736.203
 10
55.087
 20
736.397
 10
56.829
 20
736.716
 10
57.92
 20
738.004
 10
58.603
 20
739.756
 10
59.721
 20
740.897
 10
61.483
 20
741.331
 10
63.089
 20
742.014
 10
63.854
 20
743.542
 10
64.255
 20
745.335
 10
65.296
 20
746.537
 10
67.028
 20
747.236
 10
68.416
 20
748.259
 10
68.813
 20
749.952
 10
68.947
 20
751.747
 97
0
 75
0
 76
1
 98
0
  0
HATCH
  5
51
330
17
100
AcDbEntity
  8
RASTER
 62
7
100
AcDbHatch
 10
0.0
 20
0.0
 30
0.0
210
0.0
220
0.0
230
1.0
  2
SOLID
 70
1
 71
0
 91
1
 92
3
 72
0
 73
1
 93
32
 10
45.391
 20
727.325
 10
43.687
 20
726.813
 10
41.758
 20
727.321
 10
39.963
 20
727.455
 10
38.355
 20
726.462
 10
36.699
 20
725.381
 10
34.901
 20
725.497
 10
33.101
 20
726.412
 10
31.363
 20
726.631
 10
29.586
 20
725.81
 10
27.766
 20
725.267
 10
26.055
 20
726.008
 10
24.462
 20
727.221
 10
22.75
 20
727.501
 10
20.832
 20
726.953
 10
19.5
 20
726.995
 10
19.5
 20
727.091
 10
20.866
 20
727.092
 10
22.789
 20
727.695
 10
24.502
 20
727.465
 10
26.091
 20
726.293
 10
27.794
 20
725.583
 10
29.603
 20
726.145
 10
31.368
 20
726.973
 10
33.093
 20
726.747
 10
34.882
 20
725.814
 10
36.671
 20
725.667
 10
38.322
 20
726.707
 10
39.929
 20
727.65
 10
41.728
 20
727.461
 10
43.666
 20
726.893
 10
45.385
 20
727.345
 97
0
 75
0
 76
1
 98
0
  0
HATCH
  5
52
330
17
100
AcDbEntity
  8
RASTER
 62
7
100
AcDbHatch
 10
0.0
 20
0.0
 30
0.0
210
0.0
220
0.0
230
1.0
  2
SOLID
 70
1
 71
0
 91
1
 92
3
 72
0
 73
1
 93
26
 10
76.613
 20
755.416
 10
76.569
 20
753.866
 10
76.382
 20
752.345
 10
75.914
 20
750.934
 10
75.122
 20
749.683
 10
74.072
 20
748.588
 10
72.913
 20
747.587
 10
71.808
 20
746.582
 10
70.879
 20
745.481
 10
70.152
 20
744.236
 10
69.557
 20
742.872
 10
68.961
 20
741.478
 10
68.22
 20
740.179
 10
68.205
 20
740.193
 10
68.853
 20
741.571
 10
69.358
 20
743.032
 10
69.869
 20
744.449
 10
70.529
 20
745.729
 10
71.412
 20
746.845
 10
72.495
 20
747.847
 10
73.661
 20
748.827
 10
74.745
 20
749.886
 10
75.598
 20
751.092
 10
76.15
 20
752.453
 10
76.438
 20
753.922
 10
76.595
 20
755.423
 97
0
 75
0
 76
1
 98
0
  0
HATCH
  5
53
330
17
100
AcDbEntity
  8
RASTER
 62
7
100
AcDbHatch
 10
0.0
 20
0.0
 30
0.0
210
0.0
220
0.0
230
1.0
  2
SOLID
 70
1
 71
0
 91
1
 92
3
 72
0
 73
1
 93
34
 10
60.167
 20
730.176
 10
58.541
 20
729.677
 10
56.759
 20
729.506
 10
55.034
 20
729.331
 10
53.512
 20
728.832
 10
52.213
 20
727.87
 10
51.031
 20
726.563
 10
49.806
 20
725.232
 10
48.409
 20
724.249
 10
46.805
 20
723.842
 10
45.06
 20
723.982
 10
43.292
 20
724.391
 10
41.601
 20
724.675
 10
40.02
 20
724.53
 10
38.513
 20
723.888
 10
37.005
 20
722.961
 10
35.442
 20
722.132
 10
35.44
 20
722.152
 10
36.997
 20
723.046
 10
38.493
 20
724.036
 10
39.986
 20
724.735
 10
41.55
 20
724.93
 10
43.224
 20
724.685
 10
44.975
 20
724.305
 10
46.703
 20
724.18
 10
48.294
 20
724.589
 10
49.683
 20
725.563
 10
50.905
 20
726.871
 10
52.089
 20
728.146
 10
53.398
 20
729.066
 10
54.936
 20
729.515
 10
56.685
 20
729.636
 10
58.496
 20
729.75
 10
60.156
 20
730.192
 97
0
 75
0
 76
1
 98
0
  0
HATCH
  5
54
330
17
100
AcDbEntity
  8
RASTER
 62
7
100
AcDbHatch
 10
0.0
 20
0.0
 30
0.0
210
0.0
220
0.0
230
1.0
  2
SOLID
 70
1
 71
0
 91
1
 92
3
 72
0
 73
1
 93
22
 10
74.293
 20
730.283
 10
73.407
 20
728.814
 10
72.485
 20
727.348
 10
71.307
 20
726.146
 10
69.839
 20
725.294
 10
68.248
 20
724.629
 10
66.757
 20
723.862
 10
65.468
 20
722.817
 10
64.29
 20
721.579
 10
63.027
 20
720.438
 10
61.548
 20
719.65
 10
61.538
 20
719.668
 10
62.965
 20
720.542
 10
64.176
 20
721.76
 10
65.31
 20
723.054
 10
66.566
 20
724.134
 10
68.039
 20
724.908
 10
69.633
 20
725.554
 10
71.124
 20
726.364
 10
72.344
 20
727.507
 10
73.324
 20
728.903
 10
74.279
 20
730.298
 97
0
 75
0
 76
1
 98
0
  0
HATCH
  5
55
330
17
100
AcDbEntity
  8
RASTER
 62
7
100
AcDbHatch
 10
0.0
 20
0.0
 30
0.0
210
0.0
220
0.0
230
1.0
  2
SOLID
 70
1
 71
0
 91
1
 92
3
 72
0
 73
1
 93
22
 10
53.488
 20
720.692
 10
51.736
 20
721.127
 10
50.198
 20
721.116
 10
48.946
 20
720.301
 10
47.851
 20
718.873
 10
46.695
 20
717.463
 10
45.32
 20
716.73
 10
43.729
 20
716.933
 10
42.053
 20
717.751
 10
40.449
 20
718.489
 10
38.985
 20
718.529
 10
38.983
 20
718.549
 10
40.43
 20
718.61
 10
42.015
 20
717.962
 10
43.67
 20
717.215
 10
45.243
 20
717.056
 10
46.605
 20
717.803
 10
47.757
 20
719.195
 10
48.857
 20
720.575
 10
50.127
 20
721.319
 10
51.693
 20
721.241
 10
53.481
 20
720.711
 97
0
 75
0
 76
1
 98
0
  0
HATCH
  5
56
330
17
100
AcDbEntity
  8
RASTER
 62
7
100
AcDbHatch
 10
0.0
 20
0.0
 30
0.0
210
0.0
220
0.0
230
1.0
  2
SOLID
 70
1
 71
0
 91
1
 92
3
 72
0
 73
1
 93
18
 10
92.45
 20
755.741
 10
91.971
 20
754.197
 10
91.103
 20
752.785
 10
90.001
 20
751.48
 10
88.879
 20
750.214
 10
87.937
 20
748.904
 10
87.285
 20
747.479
 10
86.908
 20
745.919
 10
86.675
 20
744.262
 10
86.657
 20
744.271
 10
86.732
 20
746.005
 10
86.972
 20
747.624
 10
87.53
 20
749.08
 10
88.435
 20
750.393
 10
89.585
 20
751.634
 10
90.777
 20
752.896
 10
91.784
 20
754.255
 10
92.431
 20
755.747
 97
0
 75
0
 76
1
 98
0
  0
HATCH
  5
57
330
17
100
AcDbEntity
  8
RASTER
 62
7
100
AcDbHatch
 10
0.0
 20
0.0
 30
0.0
210
0.0
220
0.0
230
1.0
  2
SOLID
 70
1
 71
0
 91
1
 92
3
 72
0
 73
1
 93
14
 10
84.514
 20
736.218
 10
83.585
 20
735.415
 10
82.639
 20
734.637
 10
81.688
 20
733.878
 10
80.748
 20
733.122
 10
79.839
 20
732.353
 10
78.982
 20
731.546
 10
78.967
 20
731.56
 10
79.686
 20
732.482
 10
80.491
 20
733.332
 10
81.389
 20
734.113
 10
82.375
 20
734.838
 10
83.424
 20
735.532
 10
84.498
 20
736.229
 97
0
 75
0
 76
1
 98
0
  0
HATCH
  5
58
330
17
100
AcDbEntity
  8
RASTER
 62
7
100
AcDbHatch
 10
0.0
 20
0.0
 30
0.0
210
0.0
220
0.0
230
1.0
  2
SOLID
 70
1
 71
0
 91
1
 92
3
 72
0
 73
1
 93
22
 10
77.908
 20
726.664
 10
76.662
 20
725.651
 10
74.965
 20
725.149
 10
73.193
 20
724.792
 10
71.724
 20
724.13
 10
70.71
 20
722.914
 10
69.992
 20
721.267
 10
69.217
 20
719.622
 10
68.072
 20
718.458
 10
66.47
 20
717.991
 10
64.594
 20
718.029
 10
64.584
 20
718.046
 10
66.379
 20
718.135
 10
67.903
 20
718.713
 10
68.981
 20
719.962
 10
69.706
 20
721.656
 10
70.4
 20
723.315
 10
71.42
 20
724.505
 10
72.924
 20
725.107
 10
74.761
 20
725.377
 10
76.545
 20
725.775
 10
77.893
 20
726.679
 97
0
 75
0
 76
1
 98
0
  0
HATCH
  5
59
330
17
100
AcDbEntity
  8
RASTER
 62
7
100
AcDbHatch
 10
0.0
 20
0.0
 30
0.0
210
0.0
220
0.0
230
1.0
  2
SOLID
 70
1
 71
0
 91
1
 92
3
 72
0
 73
1
 93
16
 10
56.674
 20
712.071
 10
55.247
 20
711.319
 10
53.862
 20
710.413
 10
52.47
 20
709.469
 10
51.021
 20
708.636
 10
49.487
 20
708.044
 10
47.87
 20
707.759
 10
46.197
 20
707.754
 10
46.193
 20
707.773
 10
47.821
 20
707.959
 10
49.395
 20
708.387
 10
50.897
 20
709.055
 10
52.336
 20
709.885
 10
53.746
 20
710.748
 10
55.174
 20
711.511
 10
56.667
 20
712.09
 97
0
 75
0
 76
1
 98
0
  0
HATCH
  5
5A
330
17
100
AcDbEntity
  8
RASTER
 62
7
100
AcDbHatch
 10
0.0
 20
0.0
 30
0.0
210
0.0
220
0.0
230
1.0
  2
SOLID
 70
1
 71
0
 91
1
 92
3
 72
0
 73
1
 93
22
 10
39.019
 20
710.092
 10
37.459
 20
709.68
 10
35.887
 20
709.237
 10
34.297
 20
708.836
 10
32.687
 20
708.555
 10
31.067
 20
708.45
 10
29.449
 20
708.549
 10
27.845
 20
708.838
 10
26.262
 20
709.269
 10
24.703
 20
709.77
 10
23.158
 20
710.264
 10
23.161
 20
710.284
 10
24.722
 20
709.936
 10
26.289
 20
709.568
 10
27.871
 20
709.242
 10
29.468
 20
709.021
 10
31.075
 20
708.946
 10
32.682
 20
709.027
 10
34.282
 20
709.241
 10
35.869
 20
709.536
 10
37.445
 20
709.847
 10
39.017
 20
710.112
 97
0
 75
0
 76
1
 98
0
  0
HATCH
  5
5B
330
17
100
AcDbEntity
  8
RASTER
 62
7
100
AcDbHatch
 10
0.0
 20
0.0
 30
0.0
210
0.0
220
0.0
230
1.0
  2
SOLID
 70
1
 71
0
 91
1
 92
3
 72
0
 73
1
 93
15
 10
97.178
 20
760.5
 10
97.159
 20
760.463
 10
96.294
 20
758.98
 10
95.718
 20
757.452
 10
95.556
 20
755.823
 10
95.608
 20
754.117
 10
95.489
 20
752.438
 10
94.913
 20
750.898
 10
94.894
 20
750.905
 10
95.357
 20
752.481
 10
95.366
 20
754.188
 10
95.218
 20
755.914
 10
95.3
 20
757.554
 10
95.819
 20
759.083
 10
96.619
 20
760.5
 97
0
 75
0
 76
1
 98
0
  0
HATCH
  5
5C
330
17
100
AcDbEntity
  8
RASTER
 62
7
100
AcDbHatch
 10
0.0
 20
0.0
 30
0.0
210
0.0
220
0.0
230
1.0
  2
SOLID
 70
1
 71
0
 91
1
 92
3
 72
0
 73
1
 93
24
 10
102.428
 20
747.7
 10
102.108
 20
746.13
 10
101.64
 20
744.609
 10
101.017
 20
743.147
 10
100.244
 20
741.754
 10
99.341
 20
740.43
 10
98.337
 20
739.168
 10
97.267
 20
737.957
 10
96.171
 20
736.779
 10
95.085
 20
735.613
 10
94.043
 20
734.437
 10
93.065
 20
733.233
 10
93.048
 20
733.244
 10
93.906
 20
734.522
 10
94.836
 20
735.761
 10
95.825
 20
736.974
 10
96.85
 20
738.181
 10
97.879
 20
739.402
 10
98.879
 20
740.653
 10
99.813
 20
741.951
 10
100.652
 20
743.305
 10
101.371
 20
744.718
 10
101.958
 20
746.188
 10
102.41
 20
747.707
 97
0
 75
0
 76
1
 98
0
  0
HATCH
  5
5D
330
17
100
AcDbEntity
  8
RASTER
 62
7
100
AcDbHatch
 10
0.0
 20
0.0
 30
0.0
210
0.0
220
0.0
230
1.0
  2
SOLID
 70
1
 71
0
 91
1
 92
3
 72
0
 73
1
 93
22
 10
84.542
 20
724.02
 10
83.636
 20
722.675
 10
82.906
 20
721.134
 10
82.217
 20
719.51
 10
81.417
 20
717.963
 10
80.385
 20
716.645
 10
79.071
 20
715.645
 10
77.513
 20
714.963
 10
75.813
 20
714.502
 10
74.106
 20
714.098
 10
72.516
 20
713.577
 10
72.505
 20
713.593
 10
74.017
 20
714.223
 10
75.648
 20
714.722
 10
77.284
 20
715.255
 10
78.797
 20
715.979
 10
80.089
 20
716.989
 10
81.128
 20
718.285
 10
81.964
 20
719.78
 10
82.714
 20
721.33
 10
83.526
 20
722.783
 10
84.527
 20
724.033
 97
0
 75
0
 76
1
 98
0
  0
HATCH
  5
5E
330
17
100
AcDbEntity
  8
RASTER
 62
7
100
AcDbHatch
 10
0.0
 20
0.0
 30
0.0
210
0.0
220
0.0
230
1.0
  2
SOLID
 70
1
 71
0
 91
1
 92
3
 72
0
 73
1
 93
18
 10
63.769
 20
710.242
 10
62.467
 20
709.457
 10
61.179
 20
708.625
 10
59.89
 20
707.775
 10
58.581
 20
706.939
 10
57.238
 20
706.157
 10
55.853
 20
705.463
 10
54.422
 20
704.884
 10
52.947
 20
704.433
 10
52.941
 20
704.452
 10
54.372
 20
705.036
 10
55.761
 20
705.726
 10
57.112
 20
706.493
 10
58.436
 20
707.298
 10
59.749
 20
708.104
 10
61.064
 20
708.88
 10
62.398
 20
709.601
 10
63.76
 20
710.259
 97
0
 75
0
 76
1
 98
0
  0
HATCH
  5
5F
330
17
100
AcDbEntity
  8
RASTER
 62
7
100
AcDbHatch
 10
0.0
 20
0.0
 30
0.0
210
0.0
220
0.0
230
1.0
  2
SOLID
 70
1
 71
0
 91
1
 92
3
 72
0
 73
1
 93
16
 10
43.963
 20
697.836
 10
42.34
 20
697.897
 10
40.725
 20
697.988
 10
39.123
 20
698.065
 10
37.535
 20
698.092
 10
35.957
 20
698.042
 10
34.382
 20
697.907
 10
32.806
 20
697.694
 10
32.805
 20
697.714
 10
34.378
 20
698.058
 10
35.943
 20
698.298
 10
37.512
 20
698.405
 10
39.094
 20
698.378
 10
40.696
 20
698.243
 10
42.319
 20
698.047
 10
43.96
 20
697.855
 97
0
 75
0
 76
1
 98
0
  0
HATCH
  5
60
330
17
100
AcDbEntity
  8
RASTER
 62
7
100
AcDbHatch
 10
0.0
 20
0.0
 30
0.0
210
0.0
220
0.0
230
1.0
  2
SOLID
 70
1
 71
0
 91
1
 92
3
 72
0
 73
1
 93
6
 10
21.447
 20
698.242
 10
19.944
 20
698.914
 10
19.5
 20
699.12
 10
19.5
 20
699.286
 10
19.964
 20
699.037
 10
21.45
 20
698.262
 97
0
 75
0
 76
1
 98
0
  0
HATCH
  5
61
330
17
100
AcDbEntity
  8
RASTER
 62
7
100
AcDbHatch
 10
0.0
 20
0.0
 30
0.0
210
0.0
220
0.0
230
1.0
  2
SOLID
 70
1
 71
0
 91
1
 92
3
 72
0
 73
1
 93
16
 10
114.718
 20
760.5
 10
114.627
 20
760.066
 10
113.792
 20
758.578
 10
112.705
 20
757.161
 10
111.71
 20
755.756
 10
111.091
 20
754.288
 10
110.945
 20
752.709
 10
111.146
 20
751.024
 10
111.126
 20
751.03
 10
110.823
 20
752.74
 10
110.871
 20
754.34
 10
111.401
 20
755.822
 10
112.32
 20
757.237
 10
113.35
 20
758.656
 10
114.149
 20
760.141
 10
114.222
 20
760.5
 97
0
 75
0
 76
1
 98
0
  0
HATCH
  5
62
330
17
100
AcDbEntity
  8
RASTER
 62
7
100
AcDbHatch
 10
0.0
 20
0.0
 30
0.0
210
0.0
220
0.0
230
1.0
  2
SOLID
 70
1
 71
0
 91
1
 92
3
 72
0
 73
1
 93
16
 10
108.826
 20
743.847
 10
108.475
 20
742.257
 10
108.105
 20
740.665
 10
107.678
 20
739.085
 10
107.166
 20
737.535
 10
106.551
 20
736.027
 10
105.826
 20
734.572
 10
104.997
 20
733.171
 10
104.979
 20
733.181
 10
105.636
 20
734.67
 10
106.22
 20
736.192
 10
106.754
 20
737.73
 10
107.261
 20
739.272
 10
107.764
 20
740.81
 10
108.277
 20
742.337
 10
108.808
 20
743.854
 97
0
 75
0
 76
1
 98
0
  0
HATCH
  5
63
330
17
100
AcDbEntity
  8
RASTER
 62
7
100
AcDbHatch
 10
0.0
 20
0.0
 30
0.0
210
0.0
220
0.0
230
1.0
  2
SOLID
 70
1
 71
0
 91
1
 92
3
 72
0
 73
1
 93
14
 10
92.188
 20
722.066
 10
91.184
 20
721.222
 10
90.071
 20
720.486
 10
88.894
 20
719.825
 10
87.704
 20
719.195
 10
86.556
 20
718.542
 10
85.495
 20
717.817
 10
85.481
 20
717.831
 10
86.433
 20
718.665
 10
87.497
 20
719.394
 10
88.654
 20
720.049
 10
89.858
 20
720.678
 10
91.053
 20
721.337
 10
92.172
 20
722.078
 97
0
 75
0
 76
1
 98
0
  0
HATCH
  5
64
330
17
100
AcDbEntity
  8
RASTER
 62
7
100
AcDbHatch
 10
0.0
 20
0.0
 30
0.0
210
0.0
220
0.0
230
1.0
  2
SOLID
 70
1
 71
0
 91
1
 92
3
 72
0
 73
1
 93
32
 10
81.276
 20
706.717
 10
80.094
 20
705.6
 10
78.933
 20
704.437
 10
77.765
 20
703.263
 10
76.561
 20
702.122
 10
75.297
 20
701.056
 10
73.956
 20
700.101
 10
72.535
 20
699.281
 10
71.039
 20
698.601
 10
69.483
 20
698.047
 10
67.891
 20
697.591
 10
66.284
 20
697.189
 10
64.687
 20
696.797
 10
63.114
 20
696.372
 10
61.574
 20
695.883
 10
60.066
 20
695.316
 10
60.059
 20
695.335
 10
61.531
 20
695.995
 10
63.033
 20
696.571
 10
64.568
 20
697.073
 10
66.13
 20
697.53
 10
67.705
 20
697.982
 10
69.272
 20
698.471
 10
70.809
 20
699.038
 10
72.297
 20
699.714
 10
73.72
 20
700.511
 10
75.074
 20
701.426
 10
76.362
 20
702.439
 10
77.6
 20
703.514
 10
78.813
 20
704.613
 10
80.025
 20
705.697
 10
81.264
 20
706.734
 97
0
 75
0
 76
1
 98
0
  0
HATCH
  5
65
330
17
100
AcDbEntity
  8
RASTER
 62
7
100
AcDbHatch
 10
0.0
 20
0.0
 30
0.0
210
0.0
220
0.0
230
1.0
  2
SOLID
 70
1
 71
0
 91
1
 92
3
 72
0
 73
1
 93
20
 10
53.108
 20
695.34
 10
51.741
 20
694.578
 10
50.267
 20
694.209
 10
48.71
 20
694.228
 10
47.119
 20
694.493
 10
45.546
 20
694.781
 10
44.022
 20
694.877
 10
42.555
 20
694.653
 10
41.121
 20
694.125
 10
39.689
 20
693.437
 10
39.687
 20
693.457
 10
41.103
 20
694.279
 10
42.518
 20
694.925
 10
43.967
 20
695.235
 10
45.476
 20
695.185
 10
47.042
 20
694.895
 10
48.635
 20
694.583
 10
50.205
 20
694.476
 10
51.703
 20
694.728
 10
53.102
 20
695.359
 97
0
 75
0
 76
1
 98
0
  0
HATCH
  5
66
330
17
100
AcDbEntity
  8
RASTER
 62
7
100
AcDbHatch
 10
0.0
 20
0.0
 30
0.0
210
0.0
220
0.0
230
1.0
  2
SOLID
 70
1
 71
0
 91
1
 92
3
 72
0
 73
1
 93
22
 10
35.507
 20
689.493
 10
33.841
 20
689.813
 10
32.19
 20
690.157
 10
30.551
 20
690.426
 10
28.915
 20
690.546
 10
27.273
 20
690.494
 10
25.614
 20
690.304
 10
23.936
 20
690.056
 10
22.248
 20
689.854
 10
20.564
 20
689.802
 10
19.5
 20
689.913
 10
19.5
 20
689.968
 10
20.58
 20
689.919
 10
22.272
 20
690.059
 10
23.963
 20
690.331
 10
25.639
 20
690.626
 10
27.292
 20
690.832
 10
28.927
 20
690.868
 10
30.555
 20
690.703
 10
32.189
 20
690.364
 10
33.839
 20
689.931
 10
35.506
 20
689.513
 97
0
 75
0
 76
1
 98
0
  0
HATCH
  5
67
330
17
100
AcDbEntity
  8
RASTER
 62
7
100
AcDbHatch
 10
0.0
 20
0.0
 30
0.0
210
0.0
220
0.0
230
1.0
  2
SOLID
 70
1
 71
0
 91
1
 92
3
 72
0
 73
1
 93
20
 10
120.637
 20
760.5
 10
120.45
 20
759.421
 10
120.024
 20
757.938
 10
119.473
 20
756.485
 10
118.854
 20
755.055
 10
118.23
 20
753.637
 10
117.656
 20
752.217
 10
117.173
 20
750.782
 10
116.796
 20
749.321
 10
116.516
 20
747.83
 10
116.496
 20
747.836
 10
116.642
 20
749.364
 10
116.896
 20
750.855
 10
117.28
 20
752.309
 10
117.789
 20
753.736
 10
118.39
 20
755.151
 10
119.029
 20
756.568
 10
119.642
 20
758.004
 10
120.167
 20
759.465
 10
120.435
 20
760.5
 97
0
 75
0
 76
1
 98
0
  0
HATCH
  5
68
330
17
100
AcDbEntity
  8
RASTER
 62
7
100
AcDbHatch
 10
0.0
 20
0.0
 30
0.0
210
0.0
220
0.0
230
1.0
  2
SOLID
 70
1
 71
0
 91
1
 92
3
 72
0
 73
1
 93
16
 10
112.992
 20
740.108
 10
112.27
 20
738.68
 10
111.464
 20
737.293
 10
110.597
 20
735.942
 10
109.696
 20
734.617
 10
108.793
 20
733.301
 10
107.916
 20
731.98
 10
107.089
 20
730.636
 10
107.071
 20
730.646
 10
107.714
 20
732.089
 10
108.44
 20
733.484
 10
109.257
 20
734.834
 10
110.154
 20
736.151
 10
111.102
 20
737.456
 10
112.059
 20
738.77
 10
112.974
 20
740.115
 97
0
 75
0
 76
1
 98
0
  0
HATCH
  5
69
330
17
100
AcDbEntity
  8
RASTER
 62
7
100
AcDbHatch
 10
0.0
 20
0.0
 30
0.0
210
0.0
220
0.0
230
1.0
  2
SOLID
 70
1
 71
0
 91
1
 92
3
 72
0
 73
1
 93
14
 10
101.367
 20
720.903
 10
100.764
 20
719.813
 10
100.074
 20
718.787
 10
99.285
 20
717.837
 10
98.399
 20
716.97
 10
97.427
 20
716.182
 10
96.389
 20
715.462
 10
96.374
 20
715.475
 10
97.297
 20
716.295
 10
98.183
 20
717.153
 10
99.035
 20
718.042
 10
99.852
 20
718.963
 10
100.628
 20
719.918
 10
101.351
 20
720.915
 97
0
 75
0
 76
1
 98
0
  0
HATCH
  5
6A
330
17
100
AcDbEntity
  8
RASTER
 62
7
100
AcDbHatch
 10
0.0
 20
0.0
 30
0.0
210
0.0
220
0.0
230
1.0
  2
SOLID
 70
1
 71
0
 91
1
 92
3
 72
0
 73
1
 93
20
 10
87.556
 20
705.549
 10
86.515
 20
704.25
 10
85.441
 20
702.969
 10
84.301
 20
701.756
 10
83.069
 20
700.654
 10
81.733
 20
699.693
 10
80.298
 20
698.881
 10
78.78
 20
698.207
 10
77.21
 20
697.639
 10
75.62
 20
697.128
 10
75.61
 20
697.146
 10
77.115
 20
697.796
 10
78.607
 20
698.485
 10
80.061
 20
699.245
 10
81.458
 20
700.099
 10
82.786
 20
701.055
 10
84.045
 20
702.106
 10
85.243
 20
703.229
 10
86.401
 20
704.394
 10
87.544
 20
705.565
 97
0
 75
0
 76
1
 98
0
  0
HATCH
  5
6B
330
17
100
AcDbEntity
  8
RASTER
 62
7
100
AcDbHatch
 10
0.0
 20
0.0
 30
0.0
210
0.0
220
0.0
230
1.0
  2
SOLID
 70
1
 71
0
 91
1
 92
3
 72
0
 73
1
 93
30
 10
66.748
 20
688.461
 10
65.329
 20
687.496
 10
63.897
 20
686.526
 10
62.434
 20
685.599
 10
60.927
 20
684.762
 10
59.367
 20
684.055
 10
57.753
 20
683.504
 10
56.092
 20
683.12
 10
54.394
 20
682.895
 10
52.672
 20
682.803
 10
50.942
 20
682.804
 10
49.216
 20
682.852
 10
47.504
 20
682.896
 10
45.813
 20
682.892
 10
44.141
 20
682.806
 10
44.138
 20
682.826
 10
45.796
 20
682.997
 10
47.473
 20
683.081
 10
49.167
 20
683.108
 10
50.876
 20
683.119
 10
52.59
 20
683.161
 10
54.298
 20
683.279
 10
55.987
 20
683.512
 10
57.644
 20
683.885
 10
59.259
 20
684.406
 10
60.827
 20
685.067
 10
62.349
 20
685.845
 10
63.832
 20
686.702
 10
65.291
 20
687.595
 10
66.741
 20
688.479
 97
0
 75
0
 76
1
 98
0
  0
HATCH
  5
6C
330
17
100
AcDbEntity
  8
RASTER
 62
7
100
AcDbHatch
 10
0.0
 20
0.0
 30
0.0
210
0.0
220
0.0
230
1.0
  2
SOLID
 70
1
 71
0
 91
1
 92
3
 72
0
 73
1
 93
14
 10
31.19
 20
685.954
 10
29.816
 20
686.176
 10
28.439
 20
686.135
 10
27.044
 20
685.856
 10
25.629
 20
685.445
 10
24.199
 20
685.059
 10
22.772
 20
684.852
 10
22.774
 20
684.872
 10
24.216
 20
685.248
 10
25.651
 20
685.758
 10
27.065
 20
686.214
 10
28.451
 20
686.448
 10
29.821
 20
686.365
 10
31.19
 20
685.974
 97
0
 75
0
 76
1
 98
0
  0
HATCH
  5
6D
330
17
100
AcDbEntity
  8
RASTER
 62
7
100
AcDbHatch
 10
0.0
 20
0.0
 30
0.0
210
0.0
220
0.0
230
1.0
  2
SOLID
 70
1
 71
0
 91
1
 92
3
 72
0
 73
1
 93
28
 10
121.156
 20
746.657
 10
121.029
 20
745.129
 10
120.911
 20
743.586
 10
120.755
 20
742.043
 10
120.516
 20
740.519
 10
120.157
 20
739.031
 10
119.655
 20
737.593
 10
119.006
 20
736.215
 10
118.222
 20
734.899
 10
117.333
 20
733.638
 10
116.378
 20
732.419
 10
115.401
 20
731.222
 10
114.447
 20
730.026
 10
113.551
 20
728.809
 10
113.534
 20
728.818
 10
114.328
 20
730.088
 10
115.184
 20
731.33
 10
116.074
 20
732.565
 10
116.957
 20
733.811
 10
117.795
 20
735.088
 10
118.55
 20
736.408
 10
119.196
 20
737.779
 10
119.72
 20
739.199
 10
120.127
 20
740.662
 10
120.437
 20
742.154
 10
120.681
 20
743.662
 10
120.9
 20
745.169
 10
121.137
 20
746.663
 97
0
 75
0
 76
1
 98
0
  0
HATCH
  5
6E
330
17
100
AcDbEntity
  8
RASTER
 62
7
100
AcDbHatch
 10
0.0
 20
0.0
 30
0.0
210
0.0
220
0.0
230
1.0
  2
SOLID
 70
1
 71
0
 91
1
 92
3
 72
0
 73
1
 93
22
 10
109.016
 20
714.419
 10
107.742
 20
713.442
 10
106.523
 20
712.439
 10
105.404
 20
711.363
 10
104.408
 20
710.188
 10
103.531
 20
708.906
 10
102.742
 20
707.534
 10
101.991
 20
706.11
 10
101.217
 20
704.688
 10
100.363
 20
703.327
 10
99.382
 20
702.083
 10
99.368
 20
702.097
 10
100.275
 20
703.417
 10
101.06
 20
704.843
 10
101.777
 20
706.314
 10
102.489
 20
707.768
 10
103.262
 20
709.147
 10
104.148
 20
710.414
 10
105.177
 20
711.554
 10
106.351
 20
712.578
 10
107.643
 20
713.52
 10
109.0
 20
714.431
 97
0
 75
0
 76
1
 98
0
  0
HATCH
  5
6F
330
17
100
AcDbEntity
  8
RASTER
 62
7
100
AcDbHatch
 10
0.0
 20
0.0
 30
0.0
210
0.0
220
0.0
230
1.0
  2
SOLID
 70
1
 71
0
 91
1
 92
3
 72
0
 73
1
 93
16
 10
93.2
 20
699.963
 10
91.616
 20
699.356
 10
89.968
 20
698.859
 10
88.402
 20
698.289
 10
87.018
 20
697.497
 10
85.842
 20
696.419
 10
84.818
 20
695.106
 10
83.832
 20
693.703
 10
83.821
 20
693.72
 10
84.694
 20
695.289
 10
85.622
 20
696.733
 10
86.74
 20
697.879
 10
88.117
 20
698.666
 10
89.732
 20
699.16
 10
91.476
 20
699.528
 10
93.187
 20
699.978
 97
0
 75
0
 76
1
 98
0
  0
HATCH
  5
70
330
17
100
AcDbEntity
  8
RASTER
 62
7
100
AcDbHatch
 10
0.0
 20
0.0
 30
0.0
210
0.0
220
0.0
230
1.0
  2
SOLID
 70
1
 71
0
 91
1
 92
3
 72
0
 73
1
 93
20
 10
77.649
 20
690.432
 10
76.449
 20
689.169
 10
75.181
 20
687.995
 10
73.824
 20
686.968
 10
72.366
 20
686.131
 10
70.809
 20
685.504
 10
69.168
 20
685.083
 10
67.465
 20
684.837
 10
65.729
 20
684.717
 10
63.991
 20
684.659
 10
63.984
 20
684.678
 10
65.675
 20
684.859
 10
67.365
 20
685.086
 10
69.03
 20
685.409
 10
70.647
 20
685.87
 10
72.197
 20
686.494
 10
73.669
 20
687.287
 10
75.06
 20
688.234
 10
76.377
 20
689.303
 10
77.639
 20
690.45
 97
0
 75
0
 76
1
 98
0
  0
HATCH
  5
71
330
17
100
AcDbEntity
  8
RASTER
 62
7
100
AcDbHatch
 10
0.0
 20
0.0
 30
0.0
210
0.0
220
0.0
230
1.0
  2
SOLID
 70
1
 71
0
 91
1
 92
3
 72
0
 73
1
 93
34
 10
49.988
 20
676.966
 10
48.443
 20
676.469
 10
46.911
 20
675.838
 10
45.374
 20
675.151
 10
43.816
 20
674.501
 10
42.23
 20
673.983
 10
40.614
 20
673.668
 10
38.976
 20
673.59
 10
37.327
 20
673.737
 10
35.68
 20
674.054
 10
34.043
 20
674.456
 10
32.421
 20
674.845
 10
30.81
 20
675.133
 10
29.204
 20
675.262
 10
27.593
 20
675.216
 10
25.968
 20
675.022
 10
24.328
 20
674.75
 10
24.33
 20
674.769
 10
25.973
 20
675.105
 10
27.599
 20
675.36
 10
29.21
 20
675.462
 10
30.813
 20
675.382
 10
32.42
 20
675.134
 10
34.037
 20
674.775
 10
35.667
 20
674.391
 10
37.309
 20
674.08
 10
38.953
 20
673.927
 10
40.587
 20
673.986
 10
42.2
 20
674.27
 10
43.786
 20
674.748
 10
45.347
 20
675.348
 10
46.889
 20
675.98
 10
48.429
 20
676.551
 10
49.984
 20
676.986
 97
0
 75
0
 76
1
 98
0
  0
HATCH
  5
72
330
17
100
AcDbEntity
  8
RASTER
 62
7
100
AcDbHatch
 10
0.0
 20
0.0
 30
0.0
210
0.0
220
0.0
230
1.0
  2
SOLID
 70
1
 71
0
 91
1
 92
3
 72
0
 73
1
 93
16
 10
134.977
 20
760.5
 10
134.896
 20
759.223
 10
134.666
 20
757.635
 10
134.305
 20
756.069
 10
133.832
 20
754.526
 10
133.276
 20
753.006
 10
132.682
 20
751.501
 10
132.092
 20
750.005
 10
132.073
 20
750.009
 10
132.568
 20
751.526
 10
133.072
 20
753.046
 10
133.543
 20
754.579
 10
133.942
 20
756.129
 10
134.241
 20
757.699
 10
134.425
 20
759.286
 10
134.48
 20
760.5
 97
0
 75
0
 76
1
 98
0
  0
HATCH
  5
73
330
17
100
AcDbEntity
  8
RASTER
 62
7
100
AcDbHatch
 10
0.0
 20
0.0
 30
0.0
210
0.0
220
0.0
230
1.0
  2
SOLID
 70
1
 71
0
 91
1
 92
3
 72
0
 73
1
 93
34
 10
127.299
 20
739.969
 10
126.344
 20
738.615
 10
125.444
 20
737.253
 10
124.666
 20
735.856
 10
124.045
 20
734.399
 10
123.586
 20
732.871
 10
123.259
 20
731.277
 10
123.005
 20
729.634
 10
122.749
 20
727.976
 10
122.411
 20
726.342
 10
121.924
 20
724.772
 10
121.243
 20
723.299
 10
120.352
 20
721.942
 10
119.271
 20
720.703
 10
118.047
 20
719.563
 10
116.75
 20
718.488
 10
115.454
 20
717.43
 10
115.437
 20
717.441
 10
116.673
 20
718.537
 10
117.911
 20
719.648
 10
119.079
 20
720.818
 10
120.11
 20
722.082
 10
120.959
 20
723.457
 10
121.608
 20
724.942
 10
122.074
 20
726.516
 10
122.403
 20
728.148
 10
122.663
 20
729.798
 10
122.933
 20
731.426
 10
123.289
 20
733.001
 10
123.788
 20
734.507
 10
124.458
 20
735.939
 10
125.295
 20
737.31
 10
126.258
 20
738.646
 10
127.28
 20
739.976
 97
0
 75
0
 76
1
 98
0
  0
HATCH
  5
74
330
17
100
AcDbEntity
  8
RASTER
 62
7
100
AcDbHatch
 10
0.0
 20
0.0
 30
0.0
210
0.0
220
0.0
230
1.0
  2
SOLID
 70
1
 71
0
 91
1
 92
3
 72
0
 73
1
 93
14
 10
112.756
 20
705.13
 10
112.007
 20
703.68
 10
111.124
 20
702.335
 10
110.085
 20
701.123
 10
108.888
 20
700.058
 10
107.555
 20
699.133
 10
106.123
 20
698.321
 10
106.109
 20
698.335
 10
107.383
 20
699.301
 10
108.596
 20
700.335
 10
109.745
 20
701.436
 10
110.823
 20
702.603
 10
111.825
 20
703.838
 10
112.74
 20
705.143
 97
0
 75
0
 76
1
 98
0
  0
HATCH
  5
75
330
17
100
AcDbEntity
  8
RASTER
 62
7
100
AcDbHatch
 10
0.0
 20
0.0
 30
0.0
210
0.0
220
0.0
230
1.0
  2
SOLID
 70
1
 71
0
 91
1
 92
3
 72
0
 73
1
 93
28
 10
93.3
 20
689.316
 10
92.285
 20
688.052
 10
91.148
 20
686.941
 10
89.869
 20
686.028
 10
88.457
 20
685.32
 10
86.943
 20
684.786
 10
85.374
 20
684.364
 10
83.803
 20
683.97
 10
82.279
 20
683.521
 10
80.834
 20
682.949
 10
79.479
 20
682.217
 10
78.202
 20
681.327
 10
76.976
 20
680.32
 10
75.758
 20
679.267
 10
75.75
 20
679.285
 10
76.924
 20
680.427
 10
78.106
 20
681.517
 10
79.341
 20
682.479
 10
80.661
 20
683.268
 10
82.079
 20
683.878
 10
83.585
 20
684.344
 10
85.15
 20
684.735
 10
86.727
 20
685.134
 10
88.261
 20
685.625
 10
89.706
 20
686.275
 10
91.027
 20
687.117
 10
92.216
 20
688.149
 10
93.288
 20
689.332
 97
0
 75
0
 76
1
 98
0
  0
HATCH
  5
76
330
17
100
AcDbEntity
  8
RASTER
 62
7
100
AcDbHatch
 10
0.0
 20
0.0
 30
0.0
210
0.0
220
0.0
230
1.0
  2
SOLID
 70
1
 71
0
 91
1
 92
3
 72
0
 73
1
 93
30
 10
68.824
 20
671.245
 10
67.202
 20
670.748
 10
65.549
 20
670.351
 10
63.873
 20
670.042
 10
62.183
 20
669.806
 10
60.486
 20
669.624
 10
58.789
 20
669.474
 10
57.098
 20
669.336
 10
55.419
 20
669.187
 10
53.752
 20
669.011
 10
52.099
 20
668.793
 10
50.457
 20
668.525
 10
48.825
 20
668.205
 10
47.198
 20
667.837
 10
45.572
 20
667.43
 10
45.569
 20
667.449
 10
47.182
 20
667.948
 10
48.793
 20
668.402
 10
50.409
 20
668.798
 10
52.034
 20
669.129
 10
53.672
 20
669.394
 10
55.326
 20
669.599
 10
56.997
 20
669.756
 10
58.683
 20
669.883
 10
60.381
 20
670.001
 10
62.087
 20
670.134
 10
63.791
 20
670.306
 10
65.487
 20
670.54
 10
67.165
 20
670.854
 10
68.817
 20
671.264
 97
0
 75
0
 76
1
 98
0
  0
HATCH
  5
77
330
17
100
AcDbEntity
  8
RASTER
 62
7
100
AcDbHatch
 10
0.0
 20
0.0
 30
0.0
210
0.0
220
0.0
230
1.0
  2
SOLID
 70
1
 71
0
 91
1
 92
3
 72
0
 73
1
 93
20
 10
33.345
 20
671.818
 10
31.749
 20
671.532
 10
30.144
 20
671.281
 10
28.533
 20
671.098
 10
26.92
 20
671.011
 10
25.308
 20
671.039
 10
23.704
 20
671.189
 10
22.112
 20
671.455
 10
20.534
 20
671.819
 10
19.5
 20
672.108
 10
19.5
 20
672.5
 10
20.581
 20
672.231
 10
22.154
 20
671.892
 10
23.74
 20
671.627
 10
25.335
 20
671.453
 10
26.938
 20
671.378
 10
28.544
 20
671.398
 10
30.148
 20
671.497
 10
31.749
 20
671.653
 10
33.345
 20
671.838
 97
0
 75
0
 76
1
 98
0
  0
HATCH
  5
78
330
17
100
AcDbEntity
  8
RASTER
 62
7
100
AcDbHatch
 10
0.0
 20
0.0
 30
0.0
210
0.0
220
0.0
230
1.0
  2
SOLID
 70
1
 71
0
 91
1
 92
3
 72
0
 73
1
 93
28
 10
142.769
 20
760.409
 10
142.791
 20
758.741
 10
142.724
 20
757.078
 10
142.555
 20
755.426
 10
142.281
 20
753.79
 10
141.903
 20
752.174
 10
141.428
 20
750.579
 10
140.869
 20
749.007
 10
140.244
 20
747.458
 10
139.573
 20
745.927
 10
138.878
 20
744.412
 10
138.181
 20
742.905
 10
137.501
 20
741.402
 10
136.855
 20
739.894
 10
136.836
 20
739.9
 10
137.399
 20
741.432
 10
138.0
 20
742.956
 10
138.627
 20
744.479
 10
139.265
 20
746.005
 10
139.896
 20
747.54
 10
140.499
 20
749.089
 10
141.057
 20
750.655
 10
141.551
 20
752.24
 10
141.968
 20
753.845
 10
142.299
 20
755.467
 10
142.537
 20
757.105
 10
142.686
 20
758.754
 10
142.749
 20
760.411
 97
0
 75
0
 76
1
 98
0
  0
HATCH
  5
79
330
17
100
AcDbEntity
  8
RASTER
 62
7
100
AcDbHatch
 10
0.0
 20
0.0
 30
0.0
210
0.0
220
0.0
230
1.0
  2
SOLID
 70
1
 71
0
 91
1
 92
3
 72
0
 73
1
 93
26
 10
133.832
 20
731.924
 10
133.446
 20
730.308
 10
132.979
 20
728.719
 10
132.419
 20
727.166
 10
131.763
 20
725.654
 10
131.007
 20
724.189
 10
130.157
 20
722.773
 10
129.221
 20
721.407
 10
128.211
 20
720.088
 10
127.142
 20
718.811
 10
126.032
 20
717.568
 10
124.899
 20
716.351
 10
123.761
 20
715.149
 10
123.744
 20
715.16
 10
124.782
 20
716.423
 10
125.82
 20
717.693
 10
126.848
 20
718.979
 10
127.851
 20
720.286
 10
128.819
 20
721.621
 10
129.738
 20
722.988
 10
130.598
 20
724.391
 10
131.391
 20
725.83
 10
132.111
 20
727.307
 10
132.754
 20
728.818
 10
133.32
 20
730.361
 10
133.813
 20
731.931
 97
0
 75
0
 76
1
 98
0
  0
HATCH
  5
7A
330
17
100
AcDbEntity
  8
RASTER
 62
7
100
AcDbHatch
 10
0.0
 20
0.0
 30
0.0
210
0.0
220
0.0
230
1.0
  2
SOLID
 70
1
 71
0
 91
1
 92
3
 72
0
 73
1
 93
18
 10
117.702
 20
704.713
 10
116.906
 20
703.384
 10
116.111
 20
702.047
 10
115.297
 20
700.716
 10
114.448
 20
699.407
 10
113.55
 20
698.134
 10
112.595
 20
696.907
 10
111.579
 20
695.733
 10
110.506
 20
694.613
 10
110.491
 20
694.628
 10
111.441
 20
695.867
 10
112.349
 20
697.139
 10
113.228
 20
698.429
 10
114.097
 20
699.72
 10
114.968
 20
701.002
 10
115.852
 20
702.265
 10
116.758
 20
703.506
 10
117.687
 20
704.725
 97
0
 75
0
 76
1
 98
0
  0
HATCH
  5
7B
330
17
100
AcDbEntity
  8
RASTER
 62
7
100
AcDbHatch
 10
0.0
 20
0.0
 30
0.0
210
0.0
220
0.0
230
1.0
  2
SOLID
 70
1
 71
0
 91
1
 92
3
 72
0
 73
1
 93
32
 10
102.84
 20
687.624
 10
101.75
 20
686.517
 10
100.598
 20
685.481
 10
99.384
 20
684.522
 10
98.11
 20
683.643
 10
96.782
 20
682.842
 10
95.406
 20
682.114
 10
93.994
 20
681.451
 10
92.555
 20
680.84
 10
91.1
 20
680.268
 10
89.641
 20
679.719
 10
88.187
 20
679.177
 10
86.747
 20
678.628
 10
85.328
 20
678.055
 10
83.933
 20
677.449
 10
82.565
 20
676.801
 10
82.556
 20
676.819
 10
83.891
 20
677.528
 10
85.252
 20
678.191
 10
86.639
 20
678.815
 10
88.05
 20
679.407
 10
89.479
 20
679.982
 10
90.919
 20
680.552
 10
92.362
 20
681.134
 10
93.797
 20
681.742
 10
95.213
 20
682.391
 10
96.601
 20
683.093
 10
97.951
 20
683.858
 10
99.253
 20
684.694
 10
100.502
 20
685.604
 10
101.694
 20
686.587
 10
102.828
 20
687.639
 97
0
 75
0
 76
1
 98
0
  0
HATCH
  5
7C
330
17
100
AcDbEntity
  8
RASTER
 62
7
100
AcDbHatch
 10
0.0
 20
0.0
 30
0.0
210
0.0
220
0.0
230
1.0
  2
SOLID
 70
1
 71
0
 91
1
 92
3
 72
0
 73
1
 93
30
 10
66.713
 20
669.484
 10
65.231
 20
668.836
 10
63.747
 20
668.178
 10
62.255
 20
667.526
 10
60.75
 20
666.899
 10
59.227
 20
666.317
 10
57.683
 20
665.796
 10
56.118
 20
665.351
 10
54.533
 20
664.99
 10
52.93
 20
664.715
 10
51.314
 20
664.524
 10
49.688
 20
664.406
 10
48.058
 20
664.347
 10
46.428
 20
664.329
 10
44.801
 20
664.333
 10
44.799
 20
664.353
 10
46.416
 20
664.418
 10
48.035
 20
664.501
 10
49.654
 20
664.618
 10
51.268
 20
664.784
 10
52.873
 20
665.012
 10
54.467
 20
665.308
 10
56.046
 20
665.676
 10
57.607
 20
666.113
 10
59.152
 20
666.61
 10
60.681
 20
667.155
 10
62.196
 20
667.733
 10
63.702
 20
668.327
 10
65.204
 20
668.921
 10
66.707
 20
669.503
 97
0
 75
0
 76
1
 98
0
  0
HATCH
  5
7D
330
17
100
AcDbEntity
  8
RASTER
 62
7
100
AcDbHatch
 10
0.0
 20
0.0
 30
0.0
210
0.0
220
0.0
230
1.0
  2
SOLID
 70
1
 71
0
 91
1
 92
3
 72
0
 73
1
 93
14
 10
37.562
 20
662.049
 10
36.179
 20
661.344
 10
34.776
 20
660.78
 10
33.356
 20
660.448
 10
31.929
 20
660.398
 10
30.504
 20
660.634
 10
29.091
 20
661.111
 10
29.092
 20
661.131
 10
30.508
 20
660.899
 10
31.929
 20
660.842
 10
33.35
 20
660.957
 10
34.765
 20
661.223
 10
36.169
 20
661.608
 10
37.561
 20
662.069
 97
0
 75
0
 76
1
 98
0
  0
HATCH
  5
7E
330
17
100
AcDbEntity
  8
RASTER
 62
7
100
AcDbHatch
 10
0.0
 20
0.0
 30
0.0
210
0.0
220
0.0
230
1.0
  2
SOLID
 70
1
 71
0
 91
1
 92
3
 72
0
 73
1
 93
14
 10
152.652
 20
752.116
 10
152.585
 20
750.715
 10
152.356
 20
749.341
 10
151.953
 20
748.002
 10
151.387
 20
746.702
 10
150.7
 20
745.437
 10
149.951
 20
744.195
 10
149.932
 20
744.2
 10
150.468
 20
745.491
 10
150.999
 20
746.788
 10
151.506
 20
748.096
 10
151.966
 20
749.418
 10
152.35
 20
750.758
 10
152.632
 20
752.12
 97
0
 75
0
 76
1
 98
0
  0
HATCH
  5
7F
330
17
100
AcDbEntity
  8
RASTER
 62
7
100
AcDbHatch
 10
0.0
 20
0.0
 30
0.0
210
0.0
220
0.0
230
1.0
  2
SOLID
 70
1
 71
0
 91
1
 92
3
 72
0
 73
1
 93
32
 10
141.4
 20
732.664
 10
141.062
 20
731.085
 10
140.695
 20
729.51
 10
140.283
 20
727.947
 10
139.812
 20
726.403
 10
139.27
 20
724.885
 10
138.652
 20
723.399
 10
137.955
 20
721.949
 10
137.18
 20
720.537
 10
136.336
 20
719.164
 10
135.433
 20
717.825
 10
134.483
 20
716.518
 10
133.503
 20
715.234
 10
132.508
 20
713.965
 10
131.513
 20
712.704
 10
130.531
 20
711.441
 10
130.514
 20
711.452
 10
131.411
 20
712.766
 10
132.323
 20
714.074
 10
133.241
 20
715.383
 10
134.154
 20
716.699
 10
135.049
 20
718.03
 10
135.913
 20
719.382
 10
136.736
 20
720.759
 10
137.507
 20
722.165
 10
138.22
 20
723.6
 10
138.873
 20
725.063
 10
139.466
 20
726.553
 10
140.004
 20
728.063
 10
140.495
 20
729.59
 10
140.95
 20
731.128
 10
141.381
 20
732.671
 97
0
 75
0
 76
1
 98
0
  0
HATCH
  5
80
330
17
100
AcDbEntity
  8
RASTER
 62
7
100
AcDbHatch
 10
0.0
 20
0.0
 30
0.0
210
0.0
220
0.0
230
1.0
  2
SOLID
 70
1
 71
0
 91
1
 92
3
 72
0
 73
1
 93
28
 10
124.103
 20
695.309
 10
123.012
 20
694.063
 10
121.82
 20
692.908
 10
120.551
 20
691.828
 10
119.241
 20
690.794
 10
117.928
 20
689.773
 10
116.644
 20
688.731
 10
115.413
 20
687.643
 10
114.243
 20
686.493
 10
113.129
 20
685.281
 10
112.052
 20
684.024
 10
110.981
 20
682.75
 10
109.884
 20
681.496
 10
108.731
 20
680.3
 10
108.718
 20
680.315
 10
109.801
 20
681.594
 10
110.829
 20
682.923
 10
111.838
 20
684.261
 10
112.864
 20
685.568
 10
113.939
 20
686.813
 10
115.086
 20
687.977
 10
116.312
 20
689.061
 10
117.611
 20
690.08
 10
118.957
 20
691.062
 10
120.316
 20
692.043
 10
121.648
 20
693.061
 10
122.916
 20
694.147
 10
124.088
 20
695.322
 97
0
 75
0
 76
1
 98
0
  0
HATCH
  5
81
330
17
100
AcDbEntity
  8
RASTER
 62
7
100
AcDbHatch
 10
0.0
 20
0.0
 30
0.0
210
0.0
220
0.0
230
1.0
  2
SOLID
 70
1
 71
0
 91
1
 92
3
 72
0
 73
1
 93
32
 10
100.542
 20
677.159
 10
99.271
 20
676.123
 10
97.908
 20
675.217
 10
96.461
 20
674.441
 10
94.947
 20
673.777
 10
93.39
 20
673.196
 10
91.815
 20
672.662
 10
90.249
 20
672.133
 10
88.713
 20
671.569
 10
87.221
 20
670.937
 10
85.781
 20
670.217
 10
84.389
 20
669.403
 10
83.035
 20
668.504
 10
81.703
 20
667.546
 10
80.373
 20
666.563
 10
79.024
 20
665.598
 10
79.016
 20
665.616
 10
80.335
 20
666.646
 10
81.634
 20
667.691
 10
82.937
 20
668.705
 10
84.264
 20
669.65
 10
85.633
 20
670.499
 10
87.056
 20
671.243
 10
88.536
 20
671.886
 10
90.067
 20
672.448
 10
91.637
 20
672.961
 10
93.222
 20
673.468
 10
94.799
 20
674.01
 10
96.339
 20
674.627
 10
97.818
 20
675.35
 10
99.219
 20
676.198
 10
100.531
 20
677.175
 97
0
 75
0
 76
1
 98
0
  0
HATCH
  5
82
330
17
100
AcDbEntity
  8
RASTER
 62
7
100
AcDbHatch
 10
0.0
 20
0.0
 30
0.0
210
0.0
220
0.0
230
1.0
  2
SOLID
 70
1
 71
0
 91
1
 92
3
 72
0
 73
1
 93
18
 10
72.765
 20
661.266
 10
71.199
 20
660.768
 10
69.621
 20
660.307
 10
68.033
 20
659.884
 10
66.436
 20
659.5
 10
64.832
 20
659.15
 10
63.222
 20
658.828
 10
61.612
 20
658.525
 10
60.003
 20
658.229
 10
59.998
 20
658.248
 10
61.575
 20
658.669
 10
63.154
 20
659.078
 10
64.74
 20
659.469
 10
66.332
 20
659.842
 10
67.933
 20
660.2
 10
69.539
 20
660.552
 10
71.149
 20
660.909
 10
72.758
 20
661.284
 97
0
 75
0
 76
1
 98
0
  0
HATCH
  5
83
330
17
100
AcDbEntity
  8
RASTER
 62
7
100
AcDbHatch
 10
0.0
 20
0.0
 30
0.0
210
0.0
220
0.0
230
1.0
  2
SOLID
 70
1
 71
0
 91
1
 92
3
 72
0
 73
1
 93
14
 10
50.353
 20
652.452
 10
49.011
 20
652.257
 10
47.656
 20
652.157
 10
46.289
 20
652.166
 10
44.916
 20
652.281
 10
43.539
 20
652.482
 10
42.166
 20
652.732
 10
42.165
 20
652.752
 10
43.516
 20
652.732
 10
44.871
 20
652.698
 10
46.233
 20
652.643
 10
47.602
 20
652.572
 10
48.976
 20
652.504
 10
50.35
 20
652.472
 97
0
 75
0
 76
1
 98
0
  0
HATCH
  5
84
330
17
100
AcDbEntity
  8
RASTER
 62
7
100
AcDbHatch
 10
0.0
 20
0.0
 30
0.0
210
0.0
220
0.0
230
1.0
  2
SOLID
 70
1
 71
0
 91
1
 92
3
 72
0
 73
1
 93
9
 10
24.091
 20
655.43
 10
22.561
 20
655.559
 10
21.029
 20
655.672
 10
19.5
 20
655.77
 10
19.5
 20
656.043
 10
19.524
 20
656.04
 10
21.048
 20
655.867
 10
22.57
 20
655.669
 10
24.093
 20
655.45
 97
0
 75
0
 76
1
 98
0
  0
HATCH
  5
85
330
17
100
AcDbEntity
  8
RASTER
 62
7
100
AcDbHatch
 10
0.0
 20
0.0
 30
0.0
210
0.0
220
0.0
230
1.0
  2
SOLID
 70
1
 71
0
 91
1
 92
3
 72
0
 73
1
 93
26
 10
154.497
 20
759.292
 10
154.699
 20
757.649
 10
154.859
 20
756.001
 10
154.94
 20
754.356
 10
154.91
 20
752.719
 10
154.749
 20
751.101
 10
154.445
 20
749.506
 10
154.001
 20
747.94
 10
153.431
 20
746.404
 10
152.76
 20
744.899
 10
152.019
 20
743.418
 10
151.246
 20
741.956
 10
150.479
 20
740.503
 10
150.46
 20
740.508
 10
151.134
 20
741.985
 10
151.821
 20
743.467
 10
152.486
 20
744.962
 10
153.1
 20
746.477
 10
153.633
 20
748.015
 10
154.064
 20
749.579
 10
154.379
 20
751.167
 10
154.576
 20
752.775
 10
154.663
 20
754.398
 10
154.657
 20
756.029
 10
154.585
 20
757.663
 10
154.477
 20
759.294
 97
0
 75
0
 76
1
 98
0
  0
HATCH
  5
86
330
17
100
AcDbEntity
  8
RASTER
 62
7
100
AcDbHatch
 10
0.0
 20
0.0
 30
0.0
210
0.0
220
0.0
230
1.0
  2
SOLID
 70
1
 71
0
 91
1
 92
3
 72
0
 73
1
 93
34
 10
152.687
 20
729.0
 10
151.852
 20
727.56
 10
151.061
 20
726.109
 10
150.333
 20
724.639
 10
149.679
 20
723.14
 10
149.102
 20
721.609
 10
148.594
 20
720.043
 10
148.142
 20
718.446
 10
147.723
 20
716.825
 10
147.311
 20
715.191
 10
146.877
 20
713.558
 10
146.393
 20
711.942
 10
145.832
 20
710.357
 10
145.175
 20
708.82
 10
144.408
 20
707.341
 10
143.525
 20
705.929
 10
142.531
 20
704.587
 10
142.514
 20
704.597
 10
143.438
 20
705.981
 10
144.252
 20
707.432
 10
144.955
 20
708.945
 10
145.555
 20
710.51
 10
146.067
 20
712.116
 10
146.515
 20
713.746
 10
146.925
 20
715.385
 10
147.327
 20
717.017
 10
147.751
 20
718.63
 10
148.223
 20
720.212
 10
148.764
 20
721.757
 10
149.388
 20
723.264
 10
150.099
 20
724.735
 10
150.893
 20
726.175
 10
151.757
 20
727.596
 10
152.668
 20
729.007
 97
0
 75
0
 76
1
 98
0
  0
HATCH
  5
87
330
17
100
AcDbEntity
  8
RASTER
 62
7
100
AcDbHatch
 10
0.0
 20
0.0
 30
0.0
210
0.0
220
0.0
230
1.0
  2
SOLID
 70
1
 71
0
 91
1
 92
3
 72
0
 73
1
 93
16
 10
135.364
 20
698.669
 10
134.665
 20
697.173
 10
133.939
 20
695.688
 10
133.164
 20
694.23
 10
132.323
 20
692.815
 10
131.409
 20
691.453
 10
130.423
 20
690.146
 10
129.373
 20
688.892
 10
129.358
 20
688.905
 10
130.244
 20
690.297
 10
131.095
 20
691.71
 10
131.931
 20
693.128
 10
132.768
 20
694.538
 10
133.615
 20
695.933
 10
134.476
 20
697.313
 10
135.348
 20
698.681
 97
0
 75
0
 76
1
 98
0
  0
HATCH
  5
88
330
17
100
AcDbEntity
  8
RASTER
 62
7
100
AcDbHatch
 10
0.0
 20
0.0
 30
0.0
210
0.0
220
0.0
230
1.0
  2
SOLID
 70
1
 71
0
 91
1
 92
3
 72
0
 73
1
 93
14
 10
116.859
 20
676.638
 10
115.691
 20
675.389
 10
114.415
 20
674.261
 10
113.026
 20
673.271
 10
111.536
 20
672.413
 10
109.972
 20
671.662
 10
108.372
 20
670.975
 10
108.36
 20
670.991
 10
109.839
 20
671.834
 10
111.311
 20
672.697
 10
112.764
 20
673.593
 10
114.183
 20
674.539
 10
115.549
 20
675.554
 10
116.846
 20
676.653
 97
0
 75
0
 76
1
 98
0
  0
HATCH
  5
89
330
17
100
AcDbEntity
  8
RASTER
 62
7
100
AcDbHatch
 10
0.0
 20
0.0
 30
0.0
210
0.0
220
0.0
230
1.0
  2
SOLID
 70
1
 71
0
 91
1
 92
3
 72
0
 73
1
 93
18
 10
95.441
 20
660.941
 10
93.845
 20
660.379
 10
92.245
 20
659.841
 10
90.65
 20
659.31
 10
89.068
 20
658.768
 10
87.505
 20
658.199
 10
85.967
 20
657.587
 10
84.456
 20
656.921
 10
82.973
 20
656.193
 10
82.965
 20
656.211
 10
84.383
 20
657.083
 10
85.835
 20
657.869
 10
87.331
 20
658.559
 10
88.875
 20
659.154
 10
90.467
 20
659.665
 10
92.099
 20
660.116
 10
93.76
 20
660.535
 10
95.431
 20
660.958
 97
0
 75
0
 76
1
 98
0
  0
HATCH
  5
8A
330
17
100
AcDbEntity
  8
RASTER
 62
7
100
AcDbHatch
 10
0.0
 20
0.0
 30
0.0
210
0.0
220
0.0
230
1.0
  2
SOLID
 70
1
 71
0
 91
1
 92
3
 72
0
 73
1
 93
18
 10
77.782
 20
654.524
 10
76.328
 20
654.014
 10
74.823
 20
653.649
 10
73.281
 20
653.402
 10
71.721
 20
653.23
 10
70.162
 20
653.082
 10
68.621
 20
652.902
 10
67.109
 20
652.646
 10
65.631
 20
652.284
 10
65.626
 20
652.304
 10
67.05
 20
652.848
 10
68.513
 20
653.257
 10
70.017
 20
653.538
 10
71.558
 20
653.721
 10
73.125
 20
653.854
 10
74.697
 20
653.998
 10
76.255
 20
654.21
 10
77.775
 20
654.542
 97
0
 75
0
 76
1
 98
0
  0
HATCH
  5
8B
330
17
100
AcDbEntity
  8
RASTER
 62
7
100
AcDbHatch
 10
0.0
 20
0.0
 30
0.0
210
0.0
220
0.0
230
1.0
  2
SOLID
 70
1
 71
0
 91
1
 92
3
 72
0
 73
1
 93
14
 10
49.25
 20
648.395
 10
47.887
 20
648.18
 10
46.512
 20
648.062
 10
45.126
 20
648.046
 10
43.735
 20
648.121
 10
42.344
 20
648.26
 10
40.956
 20
648.422
 10
40.954
 20
648.441
 10
42.327
 20
648.462
 10
43.704
 20
648.457
 10
45.086
 20
648.43
 10
46.473
 20
648.397
 10
47.861
 20
648.382
 10
49.248
 20
648.415
 97
0
 75
0
 76
1
 98
0
  0
HATCH
  5
8C
330
17
100
AcDbEntity
  8
RASTER
 62
7
100
AcDbHatch
 10
0.0
 20
0.0
 30
0.0
210
0.0
220
0.0
230
1.0
  2
SOLID
 70
1
 71
0
 91
1
 92
3
 72
0
 73
1
 93
10
 10
25.145
 20
644.631
 10
23.567
 20
644.728
 10
21.982
 20
644.743
 10
20.387
 20
644.688
 10
19.5
 20
644.631
 10
19.5
 20
644.962
 10
20.416
 20
645.0
 10
22.0
 20
644.98
 10
23.576
 20
644.863
 10
25.146
 20
644.651
 97
0
 75
0
 76
1
 98
0
  0
HATCH
  5
8D
330
17
100
AcDbEntity
  8
RASTER
 62
7
100
AcDbHatch
 10
0.0
 20
0.0
 30
0.0
210
0.0
220
0.0
230
1.0
  2
SOLID
 70
1
 71
0
 91
1
 92
3
 72
0
 73
1
 93
20
 10
163.662
 20
749.92
 10
163.412
 20
748.328
 10
163.308
 20
746.705
 10
163.321
 20
745.051
 10
163.408
 20
743.373
 10
163.512
 20
741.679
 10
163.573
 20
739.983
 10
163.532
 20
738.303
 10
163.344
 20
736.653
 10
162.978
 20
735.049
 10
162.959
 20
735.054
 10
163.162
 20
736.703
 10
163.207
 20
738.388
 10
163.139
 20
740.092
 10
163.021
 20
741.796
 10
162.915
 20
743.484
 10
162.884
 20
745.144
 10
162.978
 20
746.771
 10
163.227
 20
748.362
 10
163.642
 20
749.924
 97
0
 75
0
 76
1
 98
0
  0
HATCH
  5
8E
330
17
100
AcDbEntity
  8
RASTER
 62
7
100
AcDbHatch
 10
0.0
 20
0.0
 30
0.0
210
0.0
220
0.0
230
1.0
  2
SOLID
 70
1
 71
0
 91
1
 92
3
 72
0
 73
1
 93
26
 10
157.719
 20
730.249
 10
157.139
 20
728.801
 10
156.483
 20
727.383
 10
155.763
 20
725.993
 10
154.994
 20
724.627
 10
154.195
 20
723.278
 10
153.384
 20
721.94
 10
152.579
 20
720.605
 10
151.798
 20
719.265
 10
151.051
 20
717.913
 10
150.347
 20
716.544
 10
149.688
 20
715.154
 10
149.073
 20
713.741
 10
149.055
 20
713.75
 10
149.593
 20
715.2
 10
150.179
 20
716.624
 10
150.82
 20
718.02
 10
151.517
 20
719.391
 10
152.267
 20
720.74
 10
153.06
 20
722.076
 10
153.879
 20
723.406
 10
154.708
 20
724.739
 10
155.525
 20
726.083
 10
156.309
 20
727.447
 10
157.039
 20
728.836
 10
157.7
 20
730.255
 97
0
 75
0
 76
1
 98
0
  0
HATCH
  5
8F
330
17
100
AcDbEntity
  8
RASTER
 62
7
100
AcDbHatch
 10
0.0
 20
0.0
 30
0.0
210
0.0
220
0.0
230
1.0
  2
SOLID
 70
1
 71
0
 91
1
 92
3
 72
0
 73
1
 93
34
 10
144.963
 20
700.073
 10
144.197
 20
698.651
 10
143.454
 20
697.209
 10
142.719
 20
695.755
 10
141.974
 20
694.302
 10
141.201
 20
692.863
 10
140.384
 20
691.45
 10
139.507
 20
690.077
 10
138.562
 20
688.753
 10
137.544
 20
687.486
 10
136.457
 20
686.277
 10
135.306
 20
685.124
 10
134.103
 20
684.02
 10
132.865
 20
682.953
 10
131.607
 20
681.911
 10
130.347
 20
680.878
 10
129.101
 20
679.84
 10
129.087
 20
679.854
 10
130.28
 20
680.942
 10
131.486
 20
682.021
 10
132.694
 20
683.105
 10
133.888
 20
684.207
 10
135.053
 20
685.339
 10
136.175
 20
686.511
 10
137.243
 20
687.73
 10
138.252
 20
688.998
 10
139.2
 20
690.313
 10
140.091
 20
691.67
 10
140.934
 20
693.059
 10
141.743
 20
694.468
 10
142.532
 20
695.886
 10
143.319
 20
697.3
 10
144.119
 20
698.702
 10
144.946
 20
700.084
 97
0
 75
0
 76
1
 98
0
  0
HATCH
  5
90
330
17
100
AcDbEntity
  8
RASTER
 62
7
100
AcDbHatch
 10
0.0
 20
0.0
 30
0.0
210
0.0
220
0.0
230
1.0
  2
SOLID
 70
1
 71
0
 91
1
 92
3
 72
0
 73
1
 93
20
 10
113.347
 20
670.718
 10
112.456
 20
669.357
 10
111.606
 20
667.922
 10
110.731
 20
666.494
 10
109.772
 20
665.16
 10
108.679
 20
663.993
 10
107.428
 20
663.044
 10
106.019
 20
662.327
 10
104.478
 20
661.822
 10
102.849
 20
661.474
 10
102.838
 20
661.491
 10
104.384
 20
661.966
 10
105.849
 20
662.582
 10
107.199
 20
663.378
 10
108.415
 20
664.368
 10
109.503
 20
665.532
 10
110.49
 20
666.82
 10
111.421
 20
668.166
 10
112.35
 20
669.493
 10
113.334
 20
670.733
 97
0
 75
0
 76
1
 98
0
  0
HATCH
  5
91
330
17
100
AcDbEntity
  8
RASTER
 62
7
100
AcDbHatch
 10
0.0
 20
0.0
 30
0.0
210
0.0
220
0.0
230
1.0
  2
SOLID
 70
1
 71
0
 91
1
 92
3
 72
0
 73
1
 93
36
 10
91.662
 20
653.289
 10
90.329
 20
652.4
 10
88.996
 20
651.498
 10
87.657
 20
650.594
 10
86.308
 20
649.7
 10
84.941
 20
648.828
 10
83.553
 20
647.992
 10
82.14
 20
647.204
 10
80.7
 20
646.473
 10
79.23
 20
645.808
 10
77.732
 20
645.216
 10
76.207
 20
644.699
 10
74.656
 20
644.258
 10
73.085
 20
643.889
 10
71.496
 20
643.588
 10
69.894
 20
643.345
 10
68.284
 20
643.15
 10
66.67
 20
642.991
 10
66.665
 20
643.01
 10
68.255
 20
643.255
 10
69.839
 20
643.532
 10
71.416
 20
643.85
 10
72.98
 20
644.218
 10
74.529
 20
644.642
 10
76.06
 20
645.126
 10
77.569
 20
645.671
 10
79.056
 20
646.277
 10
80.52
 20
646.939
 10
81.961
 20
647.653
 10
83.381
 20
648.41
 10
84.782
 20
649.201
 10
86.169
 20
650.015
 10
87.544
 20
650.843
 10
88.913
 20
651.674
 10
90.281
 20
652.498
 10
91.653
 20
653.307
 97
0
 75
0
 76
1
 98
0
  0
HATCH
  5
92
330
17
100
AcDbEntity
  8
RASTER
 62
7
100
AcDbHatch
 10
0.0
 20
0.0
 30
0.0
210
0.0
220
0.0
230
1.0
  2
SOLID
 70
1
 71
0
 91
1
 92
3
 72
0
 73
1
 93
32
 10
55.695
 20
643.166
 10
54.031
 20
643.288
 10
52.374
 20
643.431
 10
50.732
 20
643.537
 10
49.11
 20
643.556
 10
47.509
 20
643.453
 10
45.924
 20
643.213
 10
44.35
 20
642.84
 10
42.78
 20
642.363
 10
41.205
 20
641.825
 10
39.619
 20
641.283
 10
38.021
 20
640.796
 10
36.408
 20
640.421
 10
34.784
 20
640.203
 10
33.154
 20
640.167
 10
31.524
 20
640.319
 10
31.524
 20
640.339
 10
33.153
 20
640.269
 10
34.78
 20
640.383
 10
36.4
 20
640.672
 10
38.006
 20
641.108
 10
39.599
 20
641.643
 10
41.177
 20
642.218
 10
42.746
 20
642.773
 10
44.311
 20
643.25
 10
45.882
 20
643.605
 10
47.466
 20
643.811
 10
49.07
 20
643.866
 10
50.696
 20
643.786
 10
52.346
 20
643.609
 10
54.014
 20
643.389
 10
55.692
 20
643.186
 97
0
 75
0
 76
1
 98
0
  0
HATCH
  5
93
330
17
100
AcDbEntity
  8
RASTER
 62
7
100
AcDbHatch
 10
0.0
 20
0.0
 30
0.0
210
0.0
220
0.0
230
1.0
  2
SOLID
 70
1
 71
0
 91
1
 92
3
 72
0
 73
1
 93
12
 10
27.337
 20
643.405
 10
25.74
 20
643.41
 10
24.14
 20
643.386
 10
22.535
 20
643.34
 10
20.925
 20
643.282
 10
19.5
 20
643.23
 10
19.5
 20
643.733
 10
20.965
 20
643.751
 10
22.564
 20
643.733
 10
24.157
 20
643.673
 10
25.748
 20
643.569
 10
27.338
 20
643.425
 97
0
 75
0
 76
1
 98
0
  0
HATCH
  5
94
330
17
100
AcDbEntity
  8
RASTER
 62
7
100
AcDbHatch
 10
0.0
 20
0.0
 30
0.0
210
0.0
220
0.0
230
1.0
  2
SOLID
 70
1
 71
0
 91
1
 92
3
 72
0
 73
1
 93
24
 10
167.512
 20
746.281
 10
167.256
 20
744.73
 10
167.028
 20
743.172
 10
166.82
 20
741.606
 10
166.625
 20
740.034
 10
166.432
 20
738.457
 10
166.232
 20
736.877
 10
166.016
 20
735.296
 10
165.774
 20
733.718
 10
165.497
 20
732.145
 10
165.179
 20
730.581
 10
164.814
 20
729.028
 10
164.795
 20
729.035
 10
165.062
 20
730.618
 10
165.289
 20
732.209
 10
165.489
 20
733.802
 10
165.676
 20
735.392
 10
165.863
 20
736.976
 10
166.062
 20
738.552
 10
166.282
 20
740.118
 10
166.531
 20
741.674
 10
166.815
 20
743.219
 10
167.136
 20
744.755
 10
167.492
 20
746.285
 97
0
 75
0
 76
1
 98
0
  0
HATCH
  5
95
330
17
100
AcDbEntity
  8
RASTER
 62
7
100
AcDbHatch
 10
0.0
 20
0.0
 30
0.0
210
0.0
220
0.0
230
1.0
  2
SOLID
 70
1
 71
0
 91
1
 92
3
 72
0
 73
1
 93
18
 10
162.95
 20
714.675
 10
162.084
 20
713.259
 10
161.204
 20
711.854
 10
160.315
 20
710.459
 10
159.425
 20
709.069
 10
158.54
 20
707.681
 10
157.67
 20
706.289
 10
156.824
 20
704.887
 10
156.011
 20
703.468
 10
155.994
 20
703.478
 10
156.678
 20
704.967
 10
157.412
 20
706.426
 10
158.207
 20
707.853
 10
159.063
 20
709.251
 10
159.978
 20
710.623
 10
160.94
 20
711.979
 10
161.932
 20
713.329
 10
162.932
 20
714.683
 97
0
 75
0
 76
1
 98
0
  0
HATCH
  5
96
330
17
100
AcDbEntity
  8
RASTER
 62
7
100
AcDbHatch
 10
0.0
 20
0.0
 30
0.0
210
0.0
220
0.0
230
1.0
  2
SOLID
 70
1
 71
0
 91
1
 92
3
 72
0
 73
1
 93
28
 10
144.776
 20
691.166
 10
144.019
 20
689.781
 10
143.263
 20
688.389
 10
142.492
 20
687.003
 10
141.691
 20
685.633
 10
140.848
 20
684.291
 10
139.951
 20
682.988
 10
138.993
 20
681.733
 10
137.971
 20
680.531
 10
136.885
 20
679.386
 10
135.74
 20
678.296
 10
134.544
 20
677.257
 10
133.309
 20
676.261
 10
132.047
 20
675.297
 10
132.033
 20
675.311
 10
133.213
 20
676.352
 10
134.37
 20
677.42
 10
135.495
 20
678.52
 10
136.581
 20
679.657
 10
137.625
 20
680.834
 10
138.623
 20
682.049
 10
139.577
 20
683.3
 10
140.491
 20
684.582
 10
141.373
 20
685.887
 10
142.23
 20
687.207
 10
143.073
 20
688.534
 10
143.913
 20
689.86
 10
144.759
 20
691.178
 97
0
 75
0
 76
1
 98
0
  0
HATCH
  5
97
330
17
100
AcDbEntity
  8
RASTER
 62
7
100
AcDbHatch
 10
0.0
 20
0.0
 30
0.0
210
0.0
220
0.0
230
1.0
  2
SOLID
 70
1
 71
0
 91
1
 92
3
 72
0
 73
1
 93
20
 10
125.568
 20
663.74
 10
124.518
 20
662.362
 10
123.428
 20
661.017
 10
122.273
 20
659.741
 10
121.034
 20
658.563
 10
119.701
 20
657.501
 10
118.276
 20
656.562
 10
116.771
 20
655.737
 10
115.206
 20
655.007
 10
113.607
 20
654.339
 10
113.596
 20
654.355
 10
115.134
 20
655.109
 10
116.643
 20
655.915
 10
118.105
 20
656.793
 10
119.505
 20
657.76
 10
120.834
 20
658.819
 10
122.094
 20
659.966
 10
123.29
 20
661.187
 10
124.437
 20
662.458
 10
125.555
 20
663.755
 97
0
 75
0
 76
1
 98
0
  0
HATCH
  5
98
330
17
100
AcDbEntity
  8
RASTER
 62
7
100
AcDbHatch
 10
0.0
 20
0.0
 30
0.0
210
0.0
220
0.0
230
1.0
  2
SOLID
 70
1
 71
0
 91
1
 92
3
 72
0
 73
1
 93
30
 10
109.519
 20
651.73
 10
108.099
 20
650.817
 10
106.653
 20
649.946
 10
105.183
 20
649.114
 10
103.692
 20
648.322
 10
102.183
 20
647.566
 10
100.657
 20
646.843
 10
99.119
 20
646.147
 10
97.572
 20
645.475
 10
96.019
 20
644.82
 10
94.463
 20
644.177
 10
92.907
 20
643.541
 10
91.352
 20
642.907
 10
89.8
 20
642.27
 10
88.251
 20
641.629
 10
88.243
 20
641.647
 10
89.756
 20
642.369
 10
91.272
 20
643.081
 10
92.793
 20
643.783
 10
94.319
 20
644.474
 10
95.851
 20
645.158
 10
97.386
 20
645.837
 10
98.924
 20
646.515
 10
100.463
 20
647.2
 10
101.998
 20
647.895
 10
103.528
 20
648.608
 10
105.048
 20
649.344
 10
106.553
 20
650.11
 10
108.041
 20
650.909
 10
109.508
 20
651.747
 97
0
 75
0
 76
1
 98
0
  0
HATCH
  5
99
330
17
100
AcDbEntity
  8
RASTER
 62
7
100
AcDbHatch
 10
0.0
 20
0.0
 30
0.0
210
0.0
220
0.0
230
1.0
  2
SOLID
 70
1
 71
0
 91
1
 92
3
 72
0
 73
1
 93
30
 10
83.384
 20
642.35
 10
81.984
 20
641.653
 10
80.58
 20
640.953
 10
79.172
 20
640.255
 10
77.758
 20
639.563
 10
76.334
 20
638.884
 10
74.901
 20
638.223
 10
73.456
 20
637.584
 10
71.998
 20
636.973
 10
70.528
 20
636.394
 10
69.044
 20
635.85
 10
67.547
 20
635.345
 10
66.037
 20
634.881
 10
64.516
 20
634.46
 10
62.983
 20
634.083
 10
62.978
 20
634.102
 10
64.495
 20
634.547
 10
66.0
 20
635.032
 10
67.493
 20
635.553
 10
68.975
 20
636.105
 10
70.446
 20
636.684
 10
71.906
 20
637.285
 10
73.358
 20
637.903
 10
74.802
 20
638.533
 10
76.239
 20
639.171
 10
77.672
 20
639.814
 10
79.1
 20
640.457
 10
80.527
 20
641.099
 10
81.952
 20
641.736
 10
83.377
 20
642.369
 97
0
 75
0
 76
1
 98
0
  0
HATCH
  5
9A
330
17
100
AcDbEntity
  8
RASTER
 62
7
100
AcDbHatch
 10
0.0
 20
0.0
 30
0.0
210
0.0
220
0.0
230
1.0
  2
SOLID
 70
1
 71
0
 91
1
 92
3
 72
0
 73
1
 93
14
 10
47.099
 20
634.379
 10
45.567
 20
634.161
 10
44.012
 20
634.195
 10
42.444
 20
634.463
 10
40.872
 20
634.907
 10
39.308
 20
635.44
 10
37.758
 20
635.954
 10
37.758
 20
635.974
 10
39.296
 20
635.67
 10
40.847
 20
635.292
 10
42.41
 20
634.904
 10
43.979
 20
634.579
 10
45.545
 20
634.391
 10
47.097
 20
634.399
 97
0
 75
0
 76
1
 98
0
  0
HATCH
  5
9B
330
17
100
AcDbEntity
  8
RASTER
 62
7
100
AcDbHatch
 10
0.0
 20
0.0
 30
0.0
210
0.0
220
0.0
230
1.0
  2
SOLID
 70
1
 71
0
 91
1
 92
3
 72
0
 73
1
 93
6
 10
22.475
 20
630.43
 10
20.769
 20
630.042
 10
19.5
 20
629.822
 10
19.5
 20
629.994
 10
20.777
 20
630.153
 10
22.476
 20
630.45
 97
0
 75
0
 76
1
 98
0
  0
HATCH
  5
9C
330
17
100
AcDbEntity
  8
RASTER
 62
7
100
AcDbHatch
 10
0.0
 20
0.0
 30
0.0
210
0.0
220
0.0
230
1.0
  2
SOLID
 70
1
 71
0
 91
1
 92
3
 72
0
 73
1
 93
22
 10
178.463
 20
753.226
 10
178.382
 20
751.63
 10
178.143
 20
750.055
 10
177.749
 20
748.506
 10
177.221
 20
746.984
 10
176.595
 20
745.486
 10
175.917
 20
744.006
 10
175.239
 20
742.534
 10
174.607
 20
741.06
 10
174.061
 20
739.572
 10
173.625
 20
738.062
 10
173.605
 20
738.066
 10
173.949
 20
739.599
 10
174.411
 20
741.104
 10
174.975
 20
742.591
 10
175.61
 20
744.068
 10
176.272
 20
745.548
 10
176.913
 20
747.039
 10
177.484
 20
748.551
 10
177.944
 20
750.086
 10
178.268
 20
751.646
 10
178.443
 20
753.229
 97
0
 75
0
 76
1
 98
0
  0
HATCH
  5
9D
330
17
100
AcDbEntity
  8
RASTER
 62
7
100
AcDbHatch
 10
0.0
 20
0.0
 30
0.0
210
0.0
220
0.0
230
1.0
  2
SOLID
 70
1
 71
0
 91
1
 92
3
 72
0
 73
1
 93
24
 10
173.069
 20
720.503
 10
172.365
 20
719.081
 10
171.646
 20
717.668
 10
170.917
 20
716.262
 10
170.182
 20
714.862
 10
169.445
 20
713.467
 10
168.711
 20
712.072
 10
167.984
 20
710.677
 10
167.267
 20
709.279
 10
166.563
 20
707.876
 10
165.876
 20
706.465
 10
165.205
 20
705.046
 10
165.187
 20
705.055
 10
165.763
 20
706.522
 10
166.362
 20
707.974
 10
166.991
 20
709.409
 10
167.653
 20
710.829
 10
168.352
 20
712.233
 10
169.084
 20
713.623
 10
169.847
 20
715.003
 10
170.635
 20
716.377
 10
171.438
 20
717.75
 10
172.247
 20
719.126
 10
173.05
 20
720.51
 97
0
 75
0
 76
1
 98
0
  0
HATCH
  5
9E
330
17
100
AcDbEntity
  8
RASTER
 62
7
100
AcDbHatch
 10
0.0
 20
0.0
 30
0.0
210
0.0
220
0.0
230
1.0
  2
SOLID
 70
1
 71
0
 91
1
 92
3
 72
0
 73
1
 93
30
 10
158.312
 20
691.207
 10
157.269
 20
689.89
 10
156.211
 20
688.588
 10
155.147
 20
687.293
 10
154.089
 20
685.998
 10
153.043
 20
684.697
 10
152.014
 20
683.386
 10
151.006
 20
682.059
 10
150.018
 20
680.718
 10
149.046
 20
679.361
 10
148.085
 20
677.993
 10
147.128
 20
676.619
 10
146.165
 20
675.245
 10
145.186
 20
673.88
 10
144.183
 20
672.532
 10
144.168
 20
672.545
 10
145.121
 20
673.937
 10
146.05
 20
675.343
 10
146.968
 20
676.752
 10
147.887
 20
678.155
 10
148.818
 20
679.544
 10
149.77
 20
680.912
 10
150.75
 20
682.255
 10
151.762
 20
683.574
 10
152.806
 20
684.87
 10
153.88
 20
686.147
 10
154.976
 20
687.412
 10
156.085
 20
688.673
 10
157.196
 20
689.938
 10
158.295
 20
691.218
 97
0
 75
0
 76
1
 98
0
  0
HATCH
  5
9F
330
17
100
AcDbEntity
  8
RASTER
 62
7
100
AcDbHatch
 10
0.0
 20
0.0
 30
0.0
210
0.0
220
0.0
230
1.0
  2
SOLID
 70
1
 71
0
 91
1
 92
3
 72
0
 73
1
 93
22
 10
134.238
 20
669.032
 10
132.962
 20
668.072
 10
131.673
 20
667.133
 10
130.382
 20
666.201
 10
129.099
 20
665.267
 10
127.833
 20
664.319
 10
126.591
 20
663.348
 10
125.375
 20
662.347
 10
124.187
 20
661.315
 10
123.023
 20
660.251
 10
121.878
 20
659.159
 10
121.866
 20
659.174
 10
122.949
 20
660.342
 10
124.057
 20
661.473
 10
125.199
 20
662.557
 10
126.383
 20
663.589
 10
127.613
 20
664.569
 10
128.886
 20
665.503
 10
130.196
 20
666.403
 10
131.533
 20
667.281
 10
132.881
 20
668.157
 10
134.224
 20
669.046
 97
0
 75
0
 76
1
 98
0
  0
HATCH
  5
A0
330
17
100
AcDbEntity
  8
RASTER
 62
7
100
AcDbHatch
 10
0.0
 20
0.0
 30
0.0
210
0.0
220
0.0
230
1.0
  2
SOLID
 70
1
 71
0
 91
1
 92
3
 72
0
 73
1
 93
30
 10
110.978
 20
648.958
 10
109.561
 20
648.242
 10
108.143
 20
647.532
 10
106.727
 20
646.825
 10
105.313
 20
646.119
 10
103.902
 20
645.413
 10
102.493
 20
644.706
 10
101.087
 20
643.995
 10
99.685
 20
643.281
 10
98.285
 20
642.561
 10
96.888
 20
641.835
 10
95.493
 20
641.104
 10
94.099
 20
640.367
 10
92.707
 20
639.623
 10
91.314
 20
638.875
 10
91.306
 20
638.893
 10
92.659
 20
639.729
 10
94.012
 20
640.554
 10
95.367
 20
641.365
 10
96.729
 20
642.156
 10
98.1
 20
642.925
 10
99.481
 20
643.671
 10
100.874
 20
644.393
 10
102.281
 20
645.092
 10
103.701
 20
645.77
 10
105.134
 20
646.429
 10
106.58
 20
647.074
 10
108.036
 20
647.709
 10
109.499
 20
648.341
 10
110.968
 20
648.975
 97
0
 75
0
 76
1
 98
0
  0
HATCH
  5
A1
330
17
100
AcDbEntity
  8
RASTER
 62
7
100
AcDbHatch
 10
0.0
 20
0.0
 30
0.0
210
0.0
220
0.0
230
1.0
  2
SOLID
 70
1
 71
0
 91
1
 92
3
 72
0
 73
1
 93
26
 10
82.746
 20
629.445
 10
81.139
 20
629.119
 10
79.521
 20
628.839
 10
77.905
 20
628.572
 10
76.299
 20
628.286
 10
74.713
 20
627.952
 10
73.148
 20
627.551
 10
71.604
 20
627.075
 10
70.076
 20
626.532
 10
68.558
 20
625.937
 10
67.041
 20
625.318
 10
65.517
 20
624.708
 10
63.977
 20
624.143
 10
63.973
 20
624.163
 10
65.484
 20
624.854
 10
66.979
 20
625.58
 10
68.468
 20
626.298
 10
69.962
 20
626.969
 10
71.472
 20
627.56
 10
73.006
 20
628.05
 10
74.571
 20
628.433
 10
76.167
 20
628.718
 10
77.792
 20
628.928
 10
79.437
 20
629.095
 10
81.091
 20
629.26
 10
82.74
 20
629.464
 97
0
 75
0
 76
1
 98
0
  0
HATCH
  5
A2
330
17
100
AcDbEntity
  8
RASTER
 62
7
100
AcDbHatch
 10
0.0
 20
0.0
 30
0.0
210
0.0
220
0.0
230
1.0
  2
SOLID
 70
1
 71
0
 91
1
 92
3
 72
0
 73
1
 93
16
 10
54.698
 20
628.163
 10
53.216
 20
627.601
 10
51.728
 20
627.039
 10
50.225
 20
626.53
 10
48.704
 20
626.12
 10
47.164
 20
625.842
 10
45.609
 20
625.71
 10
44.042
 20
625.716
 10
44.04
 20
625.736
 10
45.588
 20
625.933
 10
47.124
 20
626.229
 10
48.65
 20
626.596
 10
50.166
 20
627.005
 10
51.676
 20
627.424
 10
53.184
 20
627.823
 10
54.695
 20
628.183
 97
0
 75
0
 76
1
 98
0
  0
HATCH
  5
A3
330
17
100
AcDbEntity
  8
RASTER
 62
7
100
AcDbHatch
 10
0.0
 20
0.0
 30
0.0
210
0.0
220
0.0
230
1.0
  2
SOLID
 70
1
 71
0
 91
1
 92
3
 72
0
 73
1
 93
12
 10
26.721
 20
627.242
 10
25.103
 20
627.426
 10
23.488
 20
627.609
 10
21.874
 20
627.786
 10
20.26
 20
627.955
 10
19.5
 20
628.029
 10
19.5
 20
628.474
 10
20.294
 20
628.369
 10
21.897
 20
628.124
 10
23.502
 20
627.852
 10
25.11
 20
627.561
 10
26.722
 20
627.262
 97
0
 75
0
 76
1
 98
0
  0
HATCH
  5
A4
330
17
100
AcDbEntity
  8
RASTER
 62
7
100
AcDbHatch
 10
0.0
 20
0.0
 30
0.0
210
0.0
220
0.0
230
1.0
  2
SOLID
 70
1
 71
0
 91
2
 92
3
 72
0
 73
1
 93
48
 10
38.2
 20
580.958
 10
38.147
 20
580.148
 10
37.989
 20
579.353
 10
37.728
 20
578.585
 10
37.369
 20
577.858
 10
36.919
 20
577.183
 10
36.384
 20
576.574
 10
35.774
 20
576.039
 10
35.1
 20
575.588
 10
34.373
 20
575.23
 10
33.605
 20
574.969
 10
32.809
 20
574.811
 10
32.0
 20
574.758
 10
31.191
 20
574.811
 10
30.395
 20
574.969
 10
29.627
 20
575.23
 10
28.9
 20
575.588
 10
28.226
 20
576.039
 10
27.616
 20
576.574
 10
27.081
 20
577.183
 10
26.631
 20
577.858
 10
26.272
 20
578.585
 10
26.011
 20
579.353
 10
25.853
 20
580.148
 10
25.8
 20
580.958
 10
25.853
 20
581.767
 10
26.011
 20
582.562
 10
26.272
 20
583.33
 10
26.631
 20
584.058
 10
27.081
 20
584.732
 10
27.616
 20
585.342
 10
28.226
 20
585.876
 10
28.9
 20
586.327
 10
29.627
 20
586.686
 10
30.395
 20
586.946
 10
31.191
 20
587.105
 10
32.0
 20
587.158
 10
32.809
 20
587.105
 10
33.605
 20
586.946
 10
34.373
 20
586.686
 10
35.1
 20
586.327
 10
35.774
 20
585.876
 10
36.384
 20
585.342
 10
36.919
 20
584.732
 10
37.369
 20
584.058
 10
37.728
 20
583.33
 10
37.989
 20
582.562
 10
38.147
 20
581.767
 97
0
 92
2
 72
0
 73
1
 93
323
 10
33.272
 20
582.715
 10
33.959
 20
583.469
 10
33.871
 20
583.546
 10
33.779
 20
583.618
 10
33.684
 20
583.685
 10
33.585
 20
583.747
 10
33.482
 20
583.804
 10
33.376
 20
583.856
 10
33.265
 20
583.903
 10
33.151
 20
583.946
 10
33.035
 20
583.983
 10
32.919
 20
584.015
 10
32.804
 20
584.043
 10
32.689
 20
584.065
 10
32.575
 20
584.082
 10
32.461
 20
584.095
 10
32.348
 20
584.102
 10
32.234
 20
584.105
 10
32.134
 20
584.103
 10
32.034
 20
584.098
 10
31.935
 20
584.09
 10
31.836
 20
584.079
 10
31.737
 20
584.064
 10
31.639
 20
584.046
 10
31.541
 20
584.025
 10
31.443
 20
584.0
 10
31.347
 20
583.972
 10
31.254
 20
583.941
 10
31.163
 20
583.906
 10
31.075
 20
583.868
 10
30.99
 20
583.827
 10
30.907
 20
583.782
 10
30.826
 20
583.734
 10
30.749
 20
583.682
 10
30.674
 20
583.627
 10
30.603
 20
583.568
 10
30.536
 20
583.506
 10
30.472
 20
583.44
 10
30.413
 20
583.371
 10
30.356
 20
583.298
 10
30.304
 20
583.222
 10
30.255
 20
583.142
 10
30.211
 20
583.059
 10
30.172
 20
582.971
 10
30.14
 20
582.88
 10
30.114
 20
582.784
 10
30.093
 20
582.685
 10
30.078
 20
582.582
 10
30.069
 20
582.475
 10
30.067
 20
582.364
 10
30.069
 20
582.261
 10
30.075
 20
582.163
 10
30.085
 20
582.069
 10
30.1
 20
581.98
 10
30.119
 20
581.895
 10
30.142
 20
581.814
 10
30.169
 20
581.737
 10
30.2
 20
581.665
 10
30.235
 20
581.596
 10
30.272
 20
581.53
 10
30.312
 20
581.467
 10
30.354
 20
581.406
 10
30.399
 20
581.349
 10
30.446
 20
581.294
 10
30.496
 20
581.242
 10
30.548
 20
581.192
 10
30.602
 20
581.145
 10
30.658
 20
581.1
 10
30.716
 20
581.058
 10
30.775
 20
581.018
 10
30.836
 20
580.981
 10
30.899
 20
580.946
 10
30.963
 20
580.913
 10
31.029
 20
580.882
 10
31.096
 20
580.854
 10
31.163
 20
580.826
 10
31.23
 20
580.799
 10
31.297
 20
580.774
 10
31.364
 20
580.749
 10
31.431
 20
580.725
 10
31.498
 20
580.703
 10
31.565
 20
580.681
 10
31.633
 20
580.659
 10
31.701
 20
580.636
 10
31.768
 20
580.614
 10
31.835
 20
580.591
 10
31.9
 20
580.57
 10
31.965
 20
580.548
 10
32.029
 20
580.527
 10
32.092
 20
580.506
 10
32.154
 20
580.484
 10
32.213
 20
580.462
 10
32.271
 20
580.439
 10
32.326
 20
580.415
 10
32.38
 20
580.39
 10
32.431
 20
580.364
 10
32.48
 20
580.337
 10
32.527
 20
580.309
 10
32.572
 20
580.28
 10
32.615
 20
580.25
 10
32.655
 20
580.218
 10
32.693
 20
580.186
 10
32.728
 20
580.151
 10
32.761
 20
580.116
 10
32.792
 20
580.079
 10
32.82
 20
580.041
 10
32.846
 20
580.001
 10
32.868
 20
579.959
 10
32.887
 20
579.914
 10
32.902
 20
579.866
 10
32.914
 20
579.817
 10
32.922
 20
579.764
 10
32.927
 20
579.709
 10
32.929
 20
579.652
 10
32.928
 20
579.592
 10
32.923
 20
579.536
 10
32.916
 20
579.481
 10
32.905
 20
579.429
 10
32.891
 20
579.38
 10
32.875
 20
579.333
 10
32.855
 20
579.288
 10
32.833
 20
579.246
 10
32.808
 20
579.206
 10
32.781
 20
579.168
 10
32.752
 20
579.131
 10
32.722
 20
579.096
 10
32.69
 20
579.063
 10
32.655
 20
579.032
 10
32.62
 20
579.002
 10
32.582
 20
578.974
 10
32.542
 20
578.948
 10
32.502
 20
578.923
 10
32.46
 20
578.901
 10
32.417
 20
578.881
 10
32.373
 20
578.862
 10
32.328
 20
578.846
 10
32.282
 20
578.832
 10
32.234
 20
578.819
 10
32.186
 20
578.808
 10
32.139
 20
578.799
 10
32.091
 20
578.791
 10
32.044
 20
578.785
 10
31.997
 20
578.78
 10
31.95
 20
578.776
 10
31.904
 20
578.774
 10
31.858
 20
578.773
 10
31.77
 20
578.776
 10
31.681
 20
578.784
 10
31.592
 20
578.798
 10
31.503
 20
578.817
 10
31.413
 20
578.842
 10
31.323
 20
578.872
 10
31.233
 20
578.908
 10
31.142
 20
578.949
 10
31.053
 20
578.995
 10
30.969
 20
579.045
 10
30.89
 20
579.098
 10
30.815
 20
579.156
 10
30.744
 20
579.218
 10
30.678
 20
579.283
 10
30.617
 20
579.353
 10
30.56
 20
579.426
 10
29.807
 20
578.723
 10
29.898
 20
578.621
 10
29.995
 20
578.526
 10
30.099
 20
578.438
 10
30.209
 20
578.356
 10
30.325
 20
578.28
 10
30.447
 20
578.21
 10
30.576
 20
578.147
 10
30.711
 20
578.091
 10
30.85
 20
578.041
 10
30.989
 20
577.998
 10
31.129
 20
577.961
 10
31.27
 20
577.931
 10
31.411
 20
577.908
 10
31.554
 20
577.891
 10
31.697
 20
577.881
 10
31.841
 20
577.877
 10
31.949
 20
577.879
 10
32.056
 20
577.885
 10
32.162
 20
577.894
 10
32.266
 20
577.907
 10
32.369
 20
577.923
 10
32.47
 20
577.943
 10
32.571
 20
577.967
 10
32.67
 20
577.995
 10
32.766
 20
578.026
 10
32.86
 20
578.061
 10
32.951
 20
578.099
 10
33.038
 20
578.141
 10
33.122
 20
578.187
 10
33.203
 20
578.236
 10
33.281
 20
578.289
 10
33.356
 20
578.346
 10
33.427
 20
578.407
 10
33.495
 20
578.471
 10
33.559
 20
578.539
 10
33.62
 20
578.611
 10
33.676
 20
578.687
 10
33.729
 20
578.766
 10
33.779
 20
578.849
 10
33.825
 20
578.936
 10
33.866
 20
579.027
 10
33.902
 20
579.122
 10
33.932
 20
579.22
 10
33.956
 20
579.322
 10
33.976
 20
579.428
 10
33.989
 20
579.538
 10
33.998
 20
579.652
 10
34.0
 20
579.769
 10
33.998
 20
579.876
 10
33.99
 20
579.978
 10
33.977
 20
580.076
 10
33.96
 20
580.169
 10
33.937
 20
580.258
 10
33.909
 20
580.342
 10
33.875
 20
580.422
 10
33.837
 20
580.497
 10
33.795
 20
580.569
 10
33.75
 20
580.637
 10
33.702
 20
580.703
 10
33.651
 20
580.765
 10
33.597
 20
580.824
 10
33.541
 20
580.88
 10
33.481
 20
580.933
 10
33.419
 20
580.983
 10
33.354
 20
581.03
 10
33.288
 20
581.074
 10
33.22
 20
581.117
 10
33.151
 20
581.156
 10
33.08
 20
581.194
 10
33.008
 20
581.229
 10
32.934
 20
581.262
 10
32.858
 20
581.292
 10
32.782
 20
581.321
 10
32.706
 20
581.349
 10
32.632
 20
581.377
 10
32.558
 20
581.403
 10
32.484
 20
581.429
 10
32.411
 20
581.454
 10
32.339
 20
581.478
 10
32.268
 20
581.502
 10
32.206
 20
581.521
 10
32.145
 20
581.539
 10
32.085
 20
581.558
 10
32.027
 20
581.577
 10
31.97
 20
581.596
 10
31.915
 20
581.615
 10
31.86
 20
581.634
 10
31.807
 20
581.652
 10
31.756
 20
581.672
 10
31.707
 20
581.692
 10
31.659
 20
581.712
 10
31.614
 20
581.734
 10
31.57
 20
581.756
 10
31.529
 20
581.779
 10
31.489
 20
581.803
 10
31.452
 20
581.828
 10
31.416
 20
581.854
 10
31.382
 20
581.881
 10
31.351
 20
581.909
 10
31.321
 20
581.939
 10
31.293
 20
581.97
 10
31.267
 20
582.002
 10
31.243
 20
582.036
 10
31.222
 20
582.071
 10
31.202
 20
582.107
 10
31.185
 20
582.146
 10
31.171
 20
582.186
 10
31.159
 20
582.228
 10
31.15
 20
582.272
 10
31.143
 20
582.317
 10
31.139
 20
582.365
 10
31.138
 20
582.414
 10
31.139
 20
582.467
 10
31.144
 20
582.519
 10
31.151
 20
582.568
 10
31.162
 20
582.616
 10
31.175
 20
582.662
 10
31.192
 20
582.705
 10
31.212
 20
582.747
 10
31.234
 20
582.786
 10
31.259
 20
582.824
 10
31.286
 20
582.86
 10
31.314
 20
582.894
 10
31.344
 20
582.927
 10
31.376
 20
582.957
 10
31.409
 20
582.986
 10
31.444
 20
583.013
 10
31.481
 20
583.038
 10
31.519
 20
583.061
 10
31.558
 20
583.083
 10
31.599
 20
583.103
 10
31.64
 20
583.121
 10
31.682
 20
583.138
 10
31.726
 20
583.154
 10
31.77
 20
583.168
 10
31.816
 20
583.18
 10
31.862
 20
583.191
 10
31.908
 20
583.2
 10
31.954
 20
583.208
 10
32.0
 20
583.214
 10
32.046
 20
583.219
 10
32.092
 20
583.223
 10
32.138
 20
583.225
 10
32.184
 20
583.226
 10
32.261
 20
583.224
 10
32.339
 20
583.217
 10
32.416
 20
583.205
 10
32.493
 20
583.189
 10
32.57
 20
583.169
 10
32.646
 20
583.144
 10
32.723
 20
583.114
 10
32.799
 20
583.079
 10
32.874
 20
583.042
 10
32.943
 20
583.002
 10
33.009
 20
582.96
 10
33.07
 20
582.915
 10
33.127
 20
582.869
 10
33.18
 20
582.82
 10
33.228
 20
582.769
 10
33.272
 20
582.715
 97
0
 75
0
 76
1
 98
0
  0
HATCH
  5
A5
330
17
100
AcDbEntity
  8
RASTER
 62
7
100
AcDbHatch
 10
0.0
 20
0.0
 30
0.0
210
0.0
220
0.0
230
1.0
  2
SOLID
 70
1
 71
0
 91
1
 92
3
 72
0
 73
1
 93
82
 10
231.664
 20
751.28
 10
230.815
 20
744.535
 10
229.738
 20
737.822
 10
228.434
 20
731.15
 10
226.905
 20
724.525
 10
225.152
 20
717.956
 10
223.179
 20
711.45
 10
220.986
 20
705.015
 10
218.577
 20
698.658
 10
215.954
 20
692.386
 10
213.12
 20
686.206
 10
210.078
 20
680.125
 10
206.833
 20
674.151
 10
203.387
 20
668.291
 10
199.745
 20
662.55
 10
195.911
 20
656.936
 10
191.889
 20
651.455
 10
187.683
 20
646.113
 10
183.299
 20
640.916
 10
178.742
 20
635.871
 10
174.017
 20
630.983
 10
169.129
 20
626.258
 10
164.084
 20
621.701
 10
158.887
 20
617.317
 10
153.545
 20
613.111
 10
148.064
 20
609.089
 10
142.45
 20
605.255
 10
136.709
 20
601.613
 10
130.849
 20
598.167
 10
124.875
 20
594.922
 10
118.794
 20
591.88
 10
112.614
 20
589.046
 10
106.342
 20
586.423
 10
99.985
 20
584.014
 10
93.55
 20
581.821
 10
87.044
 20
579.848
 10
80.475
 20
578.095
 10
73.85
 20
576.566
 10
67.178
 20
575.262
 10
60.465
 20
574.185
 10
53.72
 20
573.336
 10
53.644
 20
574.031
 10
60.366
 20
574.878
 10
67.055
 20
575.952
 10
73.704
 20
577.251
 10
80.306
 20
578.775
 10
86.852
 20
580.521
 10
93.335
 20
582.488
 10
99.748
 20
584.673
 10
106.083
 20
587.074
 10
112.333
 20
589.687
 10
118.492
 20
592.511
 10
124.551
 20
595.542
 10
130.504
 20
598.776
 10
136.344
 20
602.21
 10
142.065
 20
605.84
 10
147.66
 20
609.661
 10
153.122
 20
613.669
 10
158.445
 20
617.859
 10
163.623
 20
622.228
 10
168.651
 20
626.769
 10
173.522
 20
631.478
 10
178.231
 20
636.349
 10
182.772
 20
641.377
 10
187.141
 20
646.555
 10
191.331
 20
651.878
 10
195.339
 20
657.34
 10
199.16
 20
662.935
 10
202.79
 20
668.656
 10
206.224
 20
674.496
 10
209.458
 20
680.449
 10
212.489
 20
686.508
 10
215.313
 20
692.667
 10
217.926
 20
698.917
 10
220.327
 20
705.252
 10
222.512
 20
711.665
 10
224.479
 20
718.148
 10
226.225
 20
724.694
 10
227.749
 20
731.296
 10
229.048
 20
737.945
 10
230.122
 20
744.634
 10
230.969
 20
751.356
 97
0
 75
0
 76
1
 98
0
  0
HATCH
  5
A6
330
17
100
AcDbEntity
  8
RASTER
 62
7
100
AcDbHatch
 10
0.0
 20
0.0
 30
0.0
210
0.0
220
0.0
230
1.0
  2
SOLID
 70
1
 71
0
 91
1
 92
3
 72
0
 73
1
 93
82
 10
230.372
 20
751.421
 10
229.528
 20
744.719
 10
228.458
 20
738.05
 10
227.162
 20
731.421
 10
225.643
 20
724.839
 10
223.902
 20
718.313
 10
221.941
 20
711.849
 10
219.763
 20
705.455
 10
217.369
 20
699.139
 10
214.763
 20
692.907
 10
211.948
 20
686.768
 10
208.926
 20
680.726
 10
205.701
 20
674.791
 10
202.278
 20
668.968
 10
198.659
 20
663.265
 10
194.85
 20
657.687
 10
190.854
 20
652.241
 10
186.676
 20
646.934
 10
182.32
 20
641.771
 10
177.792
 20
636.759
 10
173.098
 20
631.902
 10
168.241
 20
627.208
 10
163.229
 20
622.68
 10
158.066
 20
618.324
 10
152.759
 20
614.146
 10
147.313
 20
610.15
 10
141.735
 20
606.341
 10
136.032
 20
602.722
 10
130.209
 20
599.299
 10
124.274
 20
596.074
 10
118.232
 20
593.052
 10
112.093
 20
590.237
 10
105.861
 20
587.631
 10
99.545
 20
585.237
 10
93.151
 20
583.059
 10
86.687
 20
581.098
 10
80.161
 20
579.357
 10
73.579
 20
577.838
 10
66.95
 20
576.542
 10
60.281
 20
575.472
 10
53.579
 20
574.628
 10
53.525
 20
575.125
 10
60.21
 20
575.967
 10
66.863
 20
577.035
 10
73.475
 20
578.327
 10
80.04
 20
579.842
 10
86.55
 20
581.579
 10
92.998
 20
583.535
 10
99.376
 20
585.708
 10
105.676
 20
588.095
 10
111.892
 20
590.695
 10
118.016
 20
593.503
 10
124.042
 20
596.518
 10
129.963
 20
599.734
 10
135.771
 20
603.149
 10
141.46
 20
606.758
 10
147.024
 20
610.558
 10
152.456
 20
614.544
 10
157.75
 20
618.712
 10
162.9
 20
623.057
 10
167.9
 20
627.573
 10
172.744
 20
632.256
 10
177.427
 20
637.1
 10
181.943
 20
642.1
 10
186.288
 20
647.25
 10
190.456
 20
652.544
 10
194.442
 20
657.976
 10
198.242
 20
663.54
 10
201.851
 20
669.229
 10
205.266
 20
675.037
 10
208.482
 20
680.958
 10
211.497
 20
686.984
 10
214.305
 20
693.108
 10
216.905
 20
699.324
 10
219.292
 20
705.624
 10
221.465
 20
712.002
 10
223.421
 20
718.45
 10
225.158
 20
724.96
 10
226.673
 20
731.525
 10
227.965
 20
738.137
 10
229.033
 20
744.79
 10
229.875
 20
751.475
 97
0
 75
0
 76
1
 98
0
  0
HATCH
  5
A7
330
17
100
AcDbEntity
  8
RASTER
 62
7
100
AcDbHatch
 10
0.0
 20
0.0
 30
0.0
210
0.0
220
0.0
230
1.0
  2
SOLID
 70
1
 71
0
 91
1
 92
3
 72
0
 73
1
 93
4
 10
19.825
 20
735.675
 10
44.675
 20
735.675
 10
44.675
 20
735.325
 10
19.825
 20
735.325
 97
0
 75
0
 76
1
 98
0
  0
HATCH
  5
A8
330
17
100
AcDbEntity
  8
RASTER
 62
7
100
AcDbHatch
 10
0.0
 20
0.0
 30
0.0
210
0.0
220
0.0
230
1.0
  2
SOLID
 70
1
 71
0
 91
1
 92
3
 72
0
 73
1
 93
4
 10
19.825
 20
710.675
 10
44.675
 20
710.675
 10
44.675
 20
710.325
 10
19.825
 20
710.325
 97
0
 75
0
 76
1
 98
0
  0
HATCH
  5
A9
330
17
100
AcDbEntity
  8
RASTER
 62
7
100
AcDbHatch
 10
0.0
 20
0.0
 30
0.0
210
0.0
220
0.0
230
1.0
  2
SOLID
 70
1
 71
0
 91
1
 92
3
 72
0
 73
1
 93
4
 10
19.825
 20
685.675
 10
44.675
 20
685.675
 10
44.675
 20
685.325
 10
19.825
 20
685.325
 97
0
 75
0
 76
1
 98
0
  0
HATCH
  5
AA
330
17
100
AcDbEntity
  8
RASTER
 62
7
100
AcDbHatch
 10
0.0
 20
0.0
 30
0.0
210
0.0
220
0.0
230
1.0
  2
SOLID
 70
1
 71
0
 91
1
 92
3
 72
0
 73
1
 93
4
 10
19.825
 20
660.675
 10
44.675
 20
660.675
 10
44.675
 20
660.325
 10
19.825
 20
660.325
 97
0
 75
0
 76
1
 98
0
  0
HATCH
  5
AB
330
17
100
AcDbEntity
  8
RASTER
 62
7
100
AcDbHatch
 10
0.0
 20
0.0
 30
0.0
210
0.0
220
0.0
230
1.0
  2
SOLID
 70
1
 71
0
 91
1
 92
3
 72
0
 73
1
 93
4
 10
19.825
 20
635.675
 10
44.675
 20
635.675
 10
44.675
 20
635.325
 10
19.825
 20
635.325
 97
0
 75
0
 76
1
 98
0
  0
HATCH
  5
AC
330
17
100
AcDbEntity
  8
RASTER
 62
7
100
AcDbHatch
 10
0.0
 20
0.0
 30
0.0
210
0.0
220
0.0
230
1.0
  2
SOLID
 70
1
 71
0
 91
1
 92
3
 72
0
 73
1
 93
4
 10
19.825
 20
610.675
 10
44.675
 20
610.675
 10
44.675
 20
610.325
 10
19.825
 20
610.325
 97
0
 75
0
 76
1
 98
0
  0
HATCH
  5
AD
330
17
100
AcDbEntity
  8
RASTER
 62
7
100
AcDbHatch
 10
0.0
 20
0.0
 30
0.0
210
0.0
220
0.0
230
1.0
  2
SOLID
 70
1
 71
0
 91
1
 92
3
 72
0
 73
1
 93
4
 10
19.825
 20
585.675
 10
44.675
 20
585.675
 10
44.675
 20
585.325
 10
19.825
 20
585.325
 97
0
 75
0
 76
1
 98
0
  0
HATCH
  5
AE
330
17
100
AcDbEntity
  8
RASTER
 62
7
100
AcDbHatch
 10
0.0
 20
0.0
 30
0.0
210
0.0
220
0.0
230
1.0
  2
SOLID
 70
1
 71
0
 91
1
 92
3
 72
0
 73
1
 93
4
 10
44.325
 20
735.675
 10
69.675
 20
735.675
 10
69.675
 20
735.325
 10
44.325
 20
735.325
 97
0
 75
0
 76
1
 98
0
  0
HATCH
  5
AF
330
17
100
AcDbEntity
  8
RASTER
 62
7
100
AcDbHatch
 10
0.0
 20
0.0
 30
0.0
210
0.0
220
0.0
230
1.0
  2
SOLID
 70
1
 71
0
 91
1
 92
3
 72
0
 73
1
 93
4
 10
44.325
 20
710.675
 10
69.675
 20
710.675
 10
69.675
 20
710.325
 10
44.325
 20
710.325
 97
0
 75
0
 76
1
 98
0
  0
HATCH
  5
B0
330
17
100
AcDbEntity
  8
RASTER
 62
7
100
AcDbHatch
 10
0.0
 20
0.0
 30
0.0
210
0.0
220
0.0
230
1.0
  2
SOLID
 70
1
 71
0
 91
1
 92
3
 72
0
 73
1
 93
4
 10
44.325
 20
685.675
 10
69.675
 20
685.675
 10
69.675
 20
685.325
 10
44.325
 20
685.325
 97
0
 75
0
 76
1
 98
0
  0
HATCH
  5
B1
330
17
100
AcDbEntity
  8
RASTER
 62
7
100
AcDbHatch
 10
0.0
 20
0.0
 30
0.0
210
0.0
220
0.0
230
1.0
  2
SOLID
 70
1
 71
0
 91
1
 92
3
 72
0
 73
1
 93
4
 10
44.325
 20
660.675
 10
69.675
 20
660.675
 10
69.675
 20
660.325
 10
44.325
 20
660.325
 97
0
 75
0
 76
1
 98
0
  0
HATCH
  5
B2
330
17
100
AcDbEntity
  8
RASTER
 62
7
100
AcDbHatch
 10
0.0
 20
0.0
 30
0.0
210
0.0
220
0.0
230
1.0
  2
SOLID
 70
1
 71
0
 91
1
 92
3
 72
0
 73
1
 93
4
 10
44.325
 20
635.675
 10
69.675
 20
635.675
 10
69.675
 20
635.325
 10
44.325
 20
635.325
 97
0
 75
0
 76
1
 98
0
  0
HATCH
  5
B3
330
17
100
AcDbEntity
  8
RASTER
 62
7
100
AcDbHatch
 10
0.0
 20
0.0
 30
0.0
210
0.0
220
0.0
230
1.0
  2
SOLID
 70
1
 71
0
 91
1
 92
3
 72
0
 73
1
 93
4
 10
44.325
 20
610.675
 10
69.675
 20
610.675
 10
69.675
 20
610.325
 10
44.325
 20
610.325
 97
0
 75
0
 76
1
 98
0
  0
HATCH
  5
B4
330
17
100
AcDbEntity
  8
RASTER
 62
7
100
AcDbHatch
 10
0.0
 20
0.0
 30
0.0
210
0.0
220
0.0
230
1.0
  2
SOLID
 70
1
 71
0
 91
1
 92
3
 72
0
 73
1
 93
4
 10
44.325
 20
585.675
 10
69.675
 20
585.675
 10
69.675
 20
585.325
 10
44.325
 20
585.325
 97
0
 75
0
 76
1
 98
0
  0
HATCH
  5
B5
330
17
100
AcDbEntity
  8
RASTER
 62
7
100
AcDbHatch
 10
0.0
 20
0.0
 30
0.0
210
0.0
220
0.0
230
1.0
  2
SOLID
 70
1
 71
0
 91
1
 92
3
 72
0
 73
1
 93
4
 10
69.325
 20
735.675
 10
94.675
 20
735.675
 10
94.675
 20
735.325
 10
69.325
 20
735.325
 97
0
 75
0
 76
1
 98
0
  0
HATCH
  5
B6
330
17
100
AcDbEntity
  8
RASTER
 62
7
100
AcDbHatch
 10
0.0
 20
0.0
 30
0.0
210
0.0
220
0.0
230
1.0
  2
SOLID
 70
1
 71
0
 91
1
 92
3
 72
0
 73
1
 93
4
 10
69.325
 20
710.675
 10
94.675
 20
710.675
 10
94.675
 20
710.325
 10
69.325
 20
710.325
 97
0
 75
0
 76
1
 98
0
  0
HATCH
  5
B7
330
17
100
AcDbEntity
  8
RASTER
 62
7
100
AcDbHatch
 10
0.0
 20
0.0
 30
0.0
210
0.0
220
0.0
230
1.0
  2
SOLID
 70
1
 71
0
 91
1
 92
3
 72
0
 73
1
 93
4
 10
69.325
 20
685.675
 10
94.675
 20
685.675
 10
94.675
 20
685.325
 10
69.325
 20
685.325
 97
0
 75
0
 76
1
 98
0
  0
HATCH
  5
B8
330
17
100
AcDbEntity
  8
RASTER
 62
7
100
AcDbHatch
 10
0.0
 20
0.0
 30
0.0
210
0.0
220
0.0
230
1.0
  2
SOLID
 70
1
 71
0
 91
1
 92
3
 72
0
 73
1
 93
4
 10
69.325
 20
660.675
 10
94.675
 20
660.675
 10
94.675
 20
660.325
 10
69.325
 20
660.325
 97
0
 75
0
 76
1
 98
0
  0
HATCH
  5
B9
330
17
100
AcDbEntity
  8
RASTER
 62
7
100
AcDbHatch
 10
0.0
 20
0.0
 30
0.0
210
0.0
220
0.0
230
1.0
  2
SOLID
 70
1
 71
0
 91
1
 92
3
 72
0
 73
1
 93
4
 10
69.325
 20
635.675
 10
94.675
 20
635.675
 10
94.675
 20
635.325
 10
69.325
 20
635.325
 97
0
 75
0
 76
1
 98
0
  0
HATCH
  5
BA
330
17
100
AcDbEntity
  8
RASTER
 62
7
100
AcDbHatch
 10
0.0
 20
0.0
 30
0.0
210
0.0
220
0.0
230
1.0
  2
SOLID
 70
1
 71
0
 91
1
 92
3
 72
0
 73
1
 93
4
 10
69.325
 20
610.675
 10
94.675
 20
610.675
 10
94.675
 20
610.325
 10
69.325
 20
610.325
 97
0
 75
0
 76
1
 98
0
  0
HATCH
  5
BB
330
17
100
AcDbEntity
  8
RASTER
 62
7
100
AcDbHatch
 10
0.0
 20
0.0
 30
0.0
210
0.0
220
0.0
230
1.0
  2
SOLID
 70
1
 71
0
 91
1
 92
3
 72
0
 73
1
 93
4
 10
69.325
 20
585.675
 10
94.675
 20
585.675
 10
94.675
 20
585.325
 10
69.325
 20
585.325
 97
0
 75
0
 76
1
 98
0
  0
HATCH
  5
BC
330
17
100
AcDbEntity
  8
RASTER
 62
7
100
AcDbHatch
 10
0.0
 20
0.0
 30
0.0
210
0.0
220
0.0
230
1.0
  2
SOLID
 70
1
 71
0
 91
1
 92
3
 72
0
 73
1
 93
4
 10
94.325
 20
735.675
 10
119.675
 20
735.675
 10
119.675
 20
735.325
 10
94.325
 20
735.325
 97
0
 75
0
 76
1
 98
0
  0
HATCH
  5
BD
330
17
100
AcDbEntity
  8
RASTER
 62
7
100
AcDbHatch
 10
0.0
 20
0.0
 30
0.0
210
0.0
220
0.0
230
1.0
  2
SOLID
 70
1
 71
0
 91
1
 92
3
 72
0
 73
1
 93
4
 10
94.325
 20
710.675
 10
119.675
 20
710.675
 10
119.675
 20
710.325
 10
94.325
 20
710.325
 97
0
 75
0
 76
1
 98
0
  0
HATCH
  5
BE
330
17
100
AcDbEntity
  8
RASTER
 62
7
100
AcDbHatch
 10
0.0
 20
0.0
 30
0.0
210
0.0
220
0.0
230
1.0
  2
SOLID
 70
1
 71
0
 91
1
 92
3
 72
0
 73
1
 93
4
 10
94.325
 20
685.675
 10
119.675
 20
685.675
 10
119.675
 20
685.325
 10
94.325
 20
685.325
 97
0
 75
0
 76
1
 98
0
  0
HATCH
  5
BF
330
17
100
AcDbEntity
  8
RASTER
 62
7
100
AcDbHatch
 10
0.0
 20
0.0
 30
0.0
210
0.0
220
0.0
230
1.0
  2
SOLID
 70
1
 71
0
 91
1
 92
3
 72
0
 73
1
 93
4
 10
94.325
 20
660.675
 10
119.675
 20
660.675
 10
119.675
 20
660.325
 10
94.325
 20
660.325
 97
0
 75
0
 76
1
 98
0
  0
HATCH
  5
C0
330
17
100
AcDbEntity
  8
RASTER
 62
7
100
AcDbHatch
 10
0.0
 20
0.0
 30
0.0
210
0.0
220
0.0
230
1.0
  2
SOLID
 70
1
 71
0
 91
1
 92
3
 72
0
 73
1
 93
4
 10
94.325
 20
635.675
 10
119.675
 20
635.675
 10
119.675
 20
635.325
 10
94.325
 20
635.325
 97
0
 75
0
 76
1
 98
0
  0
HATCH
  5
C1
330
17
100
AcDbEntity
  8
RASTER
 62
7
100
AcDbHatch
 10
0.0
 20
0.0
 30
0.0
210
0.0
220
0.0
230
1.0
  2
SOLID
 70
1
 71
0
 91
1
 92
3
 72
0
 73
1
 93
4
 10
94.325
 20
610.675
 10
119.675
 20
610.675
 10
119.675
 20
610.325
 10
94.325
 20
610.325
 97
0
 75
0
 76
1
 98
0
  0
HATCH
  5
C2
330
17
100
AcDbEntity
  8
RASTER
 62
7
100
AcDbHatch
 10
0.0
 20
0.0
 30
0.0
210
0.0
220
0.0
230
1.0
  2
SOLID
 70
1
 71
0
 91
1
 92
3
 72
0
 73
1
 93
4
 10
128.325
 20
760.675
 10
135.825
 20
760.675
 10
135.825
 20
760.325
 10
128.325
 20
760.325
 97
0
 75
0
 76
1
 98
0
  0
HATCH
  5
C3
330
17
100
AcDbEntity
  8
RASTER
 62
7
100
AcDbHatch
 10
0.0
 20
0.0
 30
0.0
210
0.0
220
0.0
230
1.0
  2
SOLID
 70
1
 71
0
 91
1
 92
3
 72
0
 73
1
 93
4
 10
119.325
 20
735.675
 10
144.675
 20
735.675
 10
144.675
 20
735.325
 10
119.325
 20
735.325
 97
0
 75
0
 76
1
 98
0
  0
HATCH
  5
C4
330
17
100
AcDbEntity
  8
RASTER
 62
7
100
AcDbHatch
 10
0.0
 20
0.0
 30
0.0
210
0.0
220
0.0
230
1.0
  2
SOLID
 70
1
 71
0
 91
1
 92
3
 72
0
 73
1
 93
4
 10
119.325
 20
710.675
 10
144.675
 20
710.675
 10
144.675
 20
710.325
 10
119.325
 20
710.325
 97
0
 75
0
 76
1
 98
0
  0
HATCH
  5
C5
330
17
100
AcDbEntity
  8
RASTER
 62
7
100
AcDbHatch
 10
0.0
 20
0.0
 30
0.0
210
0.0
220
0.0
230
1.0
  2
SOLID
 70
1
 71
0
 91
1
 92
3
 72
0
 73
1
 93
4
 10
119.325
 20
685.675
 10
144.675
 20
685.675
 10
144.675
 20
685.325
 10
119.325
 20
685.325
 97
0
 75
0
 76
1
 98
0
  0
HATCH
  5
C6
330
17
100
AcDbEntity
  8
RASTER
 62
7
100
AcDbHatch
 10
0.0
 20
0.0
 30
0.0
210
0.0
220
0.0
230
1.0
  2
SOLID
 70
1
 71
0
 91
1
 92
3
 72
0
 73
1
 93
4
 10
119.325
 20
660.675
 10
144.675
 20
660.675
 10
144.675
 20
660.325
 10
119.325
 20
660.325
 97
0
 75
0
 76
1
 98
0
  0
HATCH
  5
C7
330
17
100
AcDbEntity
  8
RASTER
 62
7
100
AcDbHatch
 10
0.0
 20
0.0
 30
0.0
210
0.0
220
0.0
230
1.0
  2
SOLID
 70
1
 71
0
 91
1
 92
3
 72
0
 73
1
 93
4
 10
119.325
 20
635.675
 10
144.675
 20
635.675
 10
144.675
 20
635.325
 10
119.325
 20
635.325
 97
0
 75
0
 76
1
 98
0
  0
HATCH
  5
C8
330
17
100
AcDbEntity
  8
RASTER
 62
7
100
AcDbHatch
 10
0.0
 20
0.0
 30
0.0
210
0.0
220
0.0
230
1.0
  2
SOLID
 70
1
 71
0
 91
1
 92
3
 72
0
 73
1
 93
4
 10
119.325
 20
610.675
 10
144.675
 20
610.675
 10
144.675
 20
610.325
 10
119.325
 20
610.325
 97
0
 75
0
 76
1
 98
0
  0
HATCH
  5
C9
330
17
100
AcDbEntity
  8
RASTER
 62
7
100
AcDbHatch
 10
0.0
 20
0.0
 30
0.0
210
0.0
220
0.0
230
1.0
  2
SOLID
 70
1
 71
0
 91
1
 92
3
 72
0
 73
1
 93
4
 10
144.325
 20
735.675
 10
169.675
 20
735.675
 10
169.675
 20
735.325
 10
144.325
 20
735.325
 97
0
 75
0
 76
1
 98
0
  0
HATCH
  5
CA
330
17
100
AcDbEntity
  8
RASTER
 62
7
100
AcDbHatch
 10
0.0
 20
0.0
 30
0.0
210
0.0
220
0.0
230
1.0
  2
SOLID
 70
1
 71
0
 91
1
 92
3
 72
0
 73
1
 93
4
 10
144.325
 20
710.675
 10
169.675
 20
710.675
 10
169.675
 20
710.325
 10
144.325
 20
710.325
 97
0
 75
0
 76
1
 98
0
  0
HATCH
  5
CB
330
17
100
AcDbEntity
  8
RASTER
 62
7
100
AcDbHatch
 10
0.0
 20
0.0
 30
0.0
210
0.0
220
0.0
230
1.0
  2
SOLID
 70
1
 71
0
 91
1
 92
3
 72
0
 73
1
 93
4
 10
144.325
 20
685.675
 10
169.675
 20
685.675
 10
169.675
 20
685.325
 10
144.325
 20
685.325
 97
0
 75
0
 76
1
 98
0
  0
HATCH
  5
CC
330
17
100
AcDbEntity
  8
RASTER
 62
7
100
AcDbHatch
 10
0.0
 20
0.0
 30
0.0
210
0.0
220
0.0
230
1.0
  2
SOLID
 70
1
 71
0
 91
1
 92
3
 72
0
 73
1
 93
4
 10
144.325
 20
660.675
 10
169.675
 20
660.675
 10
169.675
 20
660.325
 10
144.325
 20
660.325
 97
0
 75
0
 76
1
 98
0
  0
HATCH
  5
CD
330
17
100
AcDbEntity
  8
RASTER
 62
7
100
AcDbHatch
 10
0.0
 20
0.0
 30
0.0
210
0.0
220
0.0
230
1.0
  2
SOLID
 70
1
 71
0
 91
1
 92
3
 72
0
 73
1
 93
4
 10
144.325
 20
635.675
 10
169.675
 20
635.675
 10
169.675
 20
635.325
 10
144.325
 20
635.325
 97
0
 75
0
 76
1
 98
0
  0
HATCH
  5
CE
330
17
100
AcDbEntity
  8
RASTER
 62
7
100
AcDbHatch
 10
0.0
 20
0.0
 30
0.0
210
0.0
220
0.0
230
1.0
  2
SOLID
 70
1
 71
0
 91
1
 92
3
 72
0
 73
1
 93
4
 10
169.325
 20
735.675
 10
194.675
 20
735.675
 10
194.675
 20
735.325
 10
169.325
 20
735.325
 97
0
 75
0
 76
1
 98
0
  0
HATCH
  5
CF
330
17
100
AcDbEntity
  8
RASTER
 62
7
100
AcDbHatch
 10
0.0
 20
0.0
 30
0.0
210
0.0
220
0.0
230
1.0
  2
SOLID
 70
1
 71
0
 91
1
 92
3
 72
0
 73
1
 93
4
 10
169.325
 20
710.675
 10
194.675
 20
710.675
 10
194.675
 20
710.325
 10
169.325
 20
710.325
 97
0
 75
0
 76
1
 98
0
  0
HATCH
  5
D0
330
17
100
AcDbEntity
  8
RASTER
 62
7
100
AcDbHatch
 10
0.0
 20
0.0
 30
0.0
210
0.0
220
0.0
230
1.0
  2
SOLID
 70
1
 71
0
 91
1
 92
3
 72
0
 73
1
 93
4
 10
169.325
 20
685.675
 10
194.675
 20
685.675
 10
194.675
 20
685.325
 10
169.325
 20
685.325
 97
0
 75
0
 76
1
 98
0
  0
HATCH
  5
D1
330
17
100
AcDbEntity
  8
RASTER
 62
7
100
AcDbHatch
 10
0.0
 20
0.0
 30
0.0
210
0.0
220
0.0
230
1.0
  2
SOLID
 70
1
 71
0
 91
1
 92
3
 72
0
 73
1
 93
4
 10
169.325
 20
660.675
 10
194.675
 20
660.675
 10
194.675
 20
660.325
 10
169.325
 20
660.325
 97
0
 75
0
 76
1
 98
0
  0
HATCH
  5
D2
330
17
100
AcDbEntity
  8
RASTER
 62
7
100
AcDbHatch
 10
0.0
 20
0.0
 30
0.0
210
0.0
220
0.0
230
1.0
  2
SOLID
 70
1
 71
0
 91
1
 92
3
 72
0
 73
1
 93
4
 10
194.325
 20
735.675
 10
219.675
 20
735.675
 10
219.675
 20
735.325
 10
194.325
 20
735.325
 97
0
 75
0
 76
1
 98
0
  0
HATCH
  5
D3
330
17
100
AcDbEntity
  8
RASTER
 62
7
100
AcDbHatch
 10
0.0
 20
0.0
 30
0.0
210
0.0
220
0.0
230
1.0
  2
SOLID
 70
1
 71
0
 91
1
 92
3
 72
0
 73
1
 93
4
 10
194.325
 20
710.675
 10
219.675
 20
710.675
 10
219.675
 20
710.325
 10
194.325
 20
710.325
 97
0
 75
0
 76
1
 98
0
  0
HATCH
  5
D4
330
17
100
AcDbEntity
  8
RASTER
 62
7
100
AcDbHatch
 10
0.0
 20
0.0
 30
0.0
210
0.0
220
0.0
230
1.0
  2
SOLID
 70
1
 71
0
 91
1
 92
3
 72
0
 73
1
 93
4
 10
19.325
 20
726.825
 10
19.675
 20
726.825
 10
19.675
 20
719.325
 10
19.325
 20
719.325
 97
0
 75
0
 76
1
 98
0
  0
HATCH
  5
D5
330
17
100
AcDbEntity
  8
RASTER
 62
7
100
AcDbHatch
 10
0.0
 20
0.0
 30
0.0
210
0.0
220
0.0
230
1.0
  2
SOLID
 70
1
 71
0
 91
1
 92
3
 72
0
 73
1
 93
4
 10
19.325
 20
626.825
 10
19.675
 20
626.825
 10
19.675
 20
619.325
 10
19.325
 20
619.325
 97
0
 75
0
 76
1
 98
0
  0
HATCH
  5
D6
330
17
100
AcDbEntity
  8
RASTER
 62
7
100
AcDbHatch
 10
0.0
 20
0.0
 30
0.0
210
0.0
220
0.0
230
1.0
  2
SOLID
 70
1
 71
0
 91
1
 92
3
 72
0
 73
1
 93
4
 10
44.325
 20
760.325
 10
44.675
 20
760.325
 10
44.675
 20
735.675
 10
44.325
 20
735.675
 97
0
 75
0
 76
1
 98
0
  0
HATCH
  5
D7
330
17
100
AcDbEntity
  8
RASTER
 62
7
100
AcDbHatch
 10
0.0
 20
0.0
 30
0.0
210
0.0
220
0.0
230
1.0
  2
SOLID
 70
1
 71
0
 91
1
 92
3
 72
0
 73
1
 93
4
 10
44.325
 20
735.325
 10
44.675
 20
735.325
 10
44.675
 20
710.675
 10
44.325
 20
710.675
 97
0
 75
0
 76
1
 98
0
  0
HATCH
  5
D8
330
17
100
AcDbEntity
  8
RASTER
 62
7
100
AcDbHatch
 10
0.0
 20
0.0
 30
0.0
210
0.0
220
0.0
230
1.0
  2
SOLID
 70
1
 71
0
 91
1
 92
3
 72
0
 73
1
 93
4
 10
44.325
 20
710.325
 10
44.675
 20
710.325
 10
44.675
 20
685.675
 10
44.325
 20
685.675
 97
0
 75
0
 76
1
 98
0
  0
HATCH
  5
D9
330
17
100
AcDbEntity
  8
RASTER
 62
7
100
AcDbHatch
 10
0.0
 20
0.0
 30
0.0
210
0.0
220
0.0
230
1.0
  2
SOLID
 70
1
 71
0
 91
1
 92
3
 72
0
 73
1
 93
4
 10
44.325
 20
685.325
 10
44.675
 20
685.325
 10
44.675
 20
660.675
 10
44.325
 20
660.675
 97
0
 75
0
 76
1
 98
0
  0
HATCH
  5
DA
330
17
100
AcDbEntity
  8
RASTER
 62
7
100
AcDbHatch
 10
0.0
 20
0.0
 30
0.0
210
0.0
220
0.0
230
1.0
  2
SOLID
 70
1
 71
0
 91
1
 92
3
 72
0
 73
1
 93
4
 10
44.325
 20
660.325
 10
44.675
 20
660.325
 10
44.675
 20
635.675
 10
44.325
 20
635.675
 97
0
 75
0
 76
1
 98
0
  0
HATCH
  5
DB
330
17
100
AcDbEntity
  8
RASTER
 62
7
100
AcDbHatch
 10
0.0
 20
0.0
 30
0.0
210
0.0
220
0.0
230
1.0
  2
SOLID
 70
1
 71
0
 91
1
 92
3
 72
0
 73
1
 93
4
 10
44.325
 20
635.325
 10
44.675
 20
635.325
 10
44.675
 20
610.675
 10
44.325
 20
610.675
 97
0
 75
0
 76
1
 98
0
  0
HATCH
  5
DC
330
17
100
AcDbEntity
  8
RASTER
 62
7
100
AcDbHatch
 10
0.0
 20
0.0
 30
0.0
210
0.0
220
0.0
230
1.0
  2
SOLID
 70
1
 71
0
 91
1
 92
3
 72
0
 73
1
 93
4
 10
44.325
 20
610.325
 10
44.675
 20
610.325
 10
44.675
 20
585.675
 10
44.325
 20
585.675
 97
0
 75
0
 76
1
 98
0
  0
HATCH
  5
DD
330
17
100
AcDbEntity
  8
RASTER
 62
7
100
AcDbHatch
 10
0.0
 20
0.0
 30
0.0
210
0.0
220
0.0
230
1.0
  2
SOLID
 70
1
 71
0
 91
1
 92
3
 72
0
 73
1
 93
4
 10
69.325
 20
760.325
 10
69.675
 20
760.325
 10
69.675
 20
735.675
 10
69.325
 20
735.675
 97
0
 75
0
 76
1
 98
0
  0
HATCH
  5
DE
330
17
100
AcDbEntity
  8
RASTER
 62
7
100
AcDbHatch
 10
0.0
 20
0.0
 30
0.0
210
0.0
220
0.0
230
1.0
  2
SOLID
 70
1
 71
0
 91
1
 92
3
 72
0
 73
1
 93
4
 10
69.325
 20
735.325
 10
69.675
 20
735.325
 10
69.675
 20
710.675
 10
69.325
 20
710.675
 97
0
 75
0
 76
1
 98
0
  0
HATCH
  5
DF
330
17
100
AcDbEntity
  8
RASTER
 62
7
100
AcDbHatch
 10
0.0
 20
0.0
 30
0.0
210
0.0
220
0.0
230
1.0
  2
SOLID
 70
1
 71
0
 91
1
 92
3
 72
0
 73
1
 93
4
 10
69.325
 20
710.325
 10
69.675
 20
710.325
 10
69.675
 20
685.675
 10
69.325
 20
685.675
 97
0
 75
0
 76
1
 98
0
  0
HATCH
  5
E0
330
17
100
AcDbEntity
  8
RASTER
 62
7
100
AcDbHatch
 10
0.0
 20
0.0
 30
0.0
210
0.0
220
0.0
230
1.0
  2
SOLID
 70
1
 71
0
 91
1
 92
3
 72
0
 73
1
 93
4
 10
69.325
 20
685.325
 10
69.675
 20
685.325
 10
69.675
 20
660.675
 10
69.325
 20
660.675
 97
0
 75
0
 76
1
 98
0
  0
HATCH
  5
E1
330
17
100
AcDbEntity
  8
RASTER
 62
7
100
AcDbHatch
 10
0.0
 20
0.0
 30
0.0
210
0.0
220
0.0
230
1.0
  2
SOLID
 70
1
 71
0
 91
1
 92
3
 72
0
 73
1
 93
4
 10
69.325
 20
660.325
 10
69.675
 20
660.325
 10
69.675
 20
635.675
 10
69.325
 20
635.675
 97
0
 75
0
 76
1
 98
0
  0
HATCH
  5
E2
330
17
100
AcDbEntity
  8
RASTER
 62
7
100
AcDbHatch
 10
0.0
 20
0.0
 30
0.0
210
0.0
220
0.0
230
1.0
  2
SOLID
 70
1
 71
0
 91
1
 92
3
 72
0
 73
1
 93
4
 10
69.325
 20
635.325
 10
69.675
 20
635.325
 10
69.675
 20
610.675
 10
69.325
 20
610.675
 97
0
 75
0
 76
1
 98
0
  0
HATCH
  5
E3
330
17
100
AcDbEntity
  8
RASTER
 62
7
100
AcDbHatch
 10
0.0
 20
0.0
 30
0.0
210
0.0
220
0.0
230
1.0
  2
SOLID
 70
1
 71
0
 91
1
 92
3
 72
0
 73
1
 93
4
 10
69.325
 20
610.325
 10
69.675
 20
610.325
 10
69.675
 20
585.675
 10
69.325
 20
585.675
 97
0
 75
0
 76
1
 98
0
  0
HATCH
  5
E4
330
17
100
AcDbEntity
  8
RASTER
 62
7
100
AcDbHatch
 10
0.0
 20
0.0
 30
0.0
210
0.0
220
0.0
230
1.0
  2
SOLID
 70
1
 71
0
 91
1
 92
3
 72
0
 73
1
 93
4
 10
94.325
 20
760.325
 10
94.675
 20
760.325
 10
94.675
 20
735.675
 10
94.325
 20
735.675
 97
0
 75
0
 76
1
 98
0
  0
HATCH
  5
E5
330
17
100
AcDbEntity
  8
RASTER
 62
7
100
AcDbHatch
 10
0.0
 20
0.0
 30
0.0
210
0.0
220
0.0
230
1.0
  2
SOLID
 70
1
 71
0
 91
1
 92
3
 72
0
 73
1
 93
4
 10
94.325
 20
735.325
 10
94.675
 20
735.325
 10
94.675
 20
710.675
 10
94.325
 20
710.675
 97
0
 75
0
 76
1
 98
0
  0
HATCH
  5
E6
330
17
100
AcDbEntity
  8
RASTER
 62
7
100
AcDbHatch
 10
0.0
 20
0.0
 30
0.0
210
0.0
220
0.0
230
1.0
  2
SOLID
 70
1
 71
0
 91
1
 92
3
 72
0
 73
1
 93
4
 10
94.325
 20
710.325
 10
94.675
 20
710.325
 10
94.675
 20
685.675
 10
94.325
 20
685.675
 97
0
 75
0
 76
1
 98
0
  0
HATCH
  5
E7
330
17
100
AcDbEntity
  8
RASTER
 62
7
100
AcDbHatch
 10
0.0
 20
0.0
 30
0.0
210
0.0
220
0.0
230
1.0
  2
SOLID
 70
1
 71
0
 91
1
 92
3
 72
0
 73
1
 93
4
 10
94.325
 20
685.325
 10
94.675
 20
685.325
 10
94.675
 20
660.675
 10
94.325
 20
660.675
 97
0
 75
0
 76
1
 98
0
  0
HATCH
  5
E8
330
17
100
AcDbEntity
  8
RASTER
 62
7
100
AcDbHatch
 10
0.0
 20
0.0
 30
0.0
210
0.0
220
0.0
230
1.0
  2
SOLID
 70
1
 71
0
 91
1
 92
3
 72
0
 73
1
 93
4
 10
94.325
 20
660.325
 10
94.675
 20
660.325
 10
94.675
 20
635.675
 10
94.325
 20
635.675
 97
0
 75
0
 76
1
 98
0
  0
HATCH
  5
E9
330
17
100
AcDbEntity
  8
RASTER
 62
7
100
AcDbHatch
 10
0.0
 20
0.0
 30
0.0
210
0.0
220
0.0
230
1.0
  2
SOLID
 70
1
 71
0
 91
1
 92
3
 72
0
 73
1
 93
4
 10
94.325
 20
635.325
 10
94.675
 20
635.325
 10
94.675
 20
610.675
 10
94.325
 20
610.675
 97
0
 75
0
 76
1
 98
0
  0
HATCH
  5
EA
330
17
100
AcDbEntity
  8
RASTER
 62
7
100
AcDbHatch
 10
0.0
 20
0.0
 30
0.0
210
0.0
220
0.0
230
1.0
  2
SOLID
 70
1
 71
0
 91
1
 92
3
 72
0
 73
1
 93
4
 10
94.325
 20
610.325
 10
94.675
 20
610.325
 10
94.675
 20
585.675
 10
94.325
 20
585.675
 97
0
 75
0
 76
1
 98
0
  0
HATCH
  5
EB
330
17
100
AcDbEntity
  8
RASTER
 62
7
100
AcDbHatch
 10
0.0
 20
0.0
 30
0.0
210
0.0
220
0.0
230
1.0
  2
SOLID
 70
1
 71
0
 91
1
 92
3
 72
0
 73
1
 93
4
 10
119.325
 20
760.325
 10
119.675
 20
760.325
 10
119.675
 20
735.675
 10
119.325
 20
735.675
 97
0
 75
0
 76
1
 98
0
  0
HATCH
  5
EC
330
17
100
AcDbEntity
  8
RASTER
 62
7
100
AcDbHatch
 10
0.0
 20
0.0
 30
0.0
210
0.0
220
0.0
230
1.0
  2
SOLID
 70
1
 71
0
 91
1
 92
3
 72
0
 73
1
 93
4
 10
119.325
 20
735.325
 10
119.675
 20
735.325
 10
119.675
 20
710.675
 10
119.325
 20
710.675
 97
0
 75
0
 76
1
 98
0
  0
HATCH
  5
ED
330
17
100
AcDbEntity
  8
RASTER
 62
7
100
AcDbHatch
 10
0.0
 20
0.0
 30
0.0
210
0.0
220
0.0
230
1.0
  2
SOLID
 70
1
 71
0
 91
1
 92
3
 72
0
 73
1
 93
4
 10
119.325
 20
710.325
 10
119.675
 20
710.325
 10
119.675
 20
685.675
 10
119.325
 20
685.675
 97
0
 75
0
 76
1
 98
0
  0
HATCH
  5
EE
330
17
100
AcDbEntity
  8
RASTER
 62
7
100
AcDbHatch
 10
0.0
 20
0.0
 30
0.0
210
0.0
220
0.0
230
1.0
  2
SOLID
 70
1
 71
0
 91
1
 92
3
 72
0
 73
1
 93
4
 10
119.325
 20
685.325
 10
119.675
 20
685.325
 10
119.675
 20
660.675
 10
119.325
 20
660.675
 97
0
 75
0
 76
1
 98
0
  0
HATCH
  5
EF
330
17
100
AcDbEntity
  8
RASTER
 62
7
100
AcDbHatch
 10
0.0
 20
0.0
 30
0.0
210
0.0
220
0.0
230
1.0
  2
SOLID
 70
1
 71
0
 91
1
 92
3
 72
0
 73
1
 93
4
 10
119.325
 20
660.325
 10
119.675
 20
660.325
 10
119.675
 20
635.675
 10
119.325
 20
635.675
 97
0
 75
0
 76
1
 98
0
  0
HATCH
  5
F0
330
17
100
AcDbEntity
  8
RASTER
 62
7
100
AcDbHatch
 10
0.0
 20
0.0
 30
0.0
210
0.0
220
0.0
230
1.0
  2
SOLID
 70
1
 71
0
 91
1
 92
3
 72
0
 73
1
 93
4
 10
119.325
 20
635.325
 10
119.675
 20
635.325
 10
119.675
 20
610.675
 10
119.325
 20
610.675
 97
0
 75
0
 76
1
 98
0
  0
HATCH
  5
F1
330
17
100
AcDbEntity
  8
RASTER
 62
7
100
AcDbHatch
 10
0.0
 20
0.0
 30
0.0
210
0.0
220
0.0
230
1.0
  2
SOLID
 70
1
 71
0
 91
1
 92
3
 72
0
 73
1
 93
4
 10
144.325
 20
760.325
 10
144.675
 20
760.325
 10
144.675
 20
735.675
 10
144.325
 20
735.675
 97
0
 75
0
 76
1
 98
0
  0
HATCH
  5
F2
330
17
100
AcDbEntity
  8
RASTER
 62
7
100
AcDbHatch
 10
0.0
 20
0.0
 30
0.0
210
0.0
220
0.0
230
1.0
  2
SOLID
 70
1
 71
0
 91
1
 92
3
 72
0
 73
1
 93
4
 10
144.325
 20
735.325
 10
144.675
 20
735.325
 10
144.675
 20
710.675
 10
144.325
 20
710.675
 97
0
 75
0
 76
1
 98
0
  0
HATCH
  5
F3
330
17
100
AcDbEntity
  8
RASTER
 62
7
100
AcDbHatch
 10
0.0
 20
0.0
 30
0.0
210
0.0
220
0.0
230
1.0
  2
SOLID
 70
1
 71
0
 91
1
 92
3
 72
0
 73
1
 93
4
 10
144.325
 20
710.325
 10
144.675
 20
710.325
 10
144.675
 20
685.675
 10
144.325
 20
685.675
 97
0
 75
0
 76
1
 98
0
  0
HATCH
  5
F4
330
17
100
AcDbEntity
  8
RASTER
 62
7
100
AcDbHatch
 10
0.0
 20
0.0
 30
0.0
210
0.0
220
0.0
230
1.0
  2
SOLID
 70
1
 71
0
 91
1
 92
3
 72
0
 73
1
 93
4
 10
144.325
 20
685.325
 10
144.675
 20
685.325
 10
144.675
 20
660.675
 10
144.325
 20
660.675
 97
0
 75
0
 76
1
 98
0
  0
HATCH
  5
F5
330
17
100
AcDbEntity
  8
RASTER
 62
7
100
AcDbHatch
 10
0.0
 20
0.0
 30
0.0
210
0.0
220
0.0
230
1.0
  2
SOLID
 70
1
 71
0
 91
1
 92
3
 72
0
 73
1
 93
4
 10
144.325
 20
660.325
 10
144.675
 20
660.325
 10
144.675
 20
635.675
 10
144.325
 20
635.675
 97
0
 75
0
 76
1
 98
0
  0
HATCH
  5
F6
330
17
100
AcDbEntity
  8
RASTER
 62
7
100
AcDbHatch
 10
0.0
 20
0.0
 30
0.0
210
0.0
220
0.0
230
1.0
  2
SOLID
 70
1
 71
0
 91
1
 92
3
 72
0
 73
1
 93
4
 10
144.325
 20
635.325
 10
144.675
 20
635.325
 10
144.675
 20
610.675
 10
144.325
 20
610.675
 97
0
 75
0
 76
1
 98
0
  0
HATCH
  5
F7
330
17
100
AcDbEntity
  8
RASTER
 62
7
100
AcDbHatch
 10
0.0
 20
0.0
 30
0.0
210
0.0
220
0.0
230
1.0
  2
SOLID
 70
1
 71
0
 91
1
 92
3
 72
0
 73
1
 93
4
 10
169.325
 20
760.325
 10
169.675
 20
760.325
 10
169.675
 20
735.675
 10
169.325
 20
735.675
 97
0
 75
0
 76
1
 98
0
  0
HATCH
  5
F8
330
17
100
AcDbEntity
  8
RASTER
 62
7
100
AcDbHatch
 10
0.0
 20
0.0
 30
0.0
210
0.0
220
0.0
230
1.0
  2
SOLID
 70
1
 71
0
 91
1
 92
3
 72
0
 73
1
 93
4
 10
169.325
 20
735.325
 10
169.675
 20
735.325
 10
169.675
 20
710.675
 10
169.325
 20
710.675
 97
0
 75
0
 76
1
 98
0
  0
HATCH
  5
F9
330
17
100
AcDbEntity
  8
RASTER
 62
7
100
AcDbHatch
 10
0.0
 20
0.0
 30
0.0
210
0.0
220
0.0
230
1.0
  2
SOLID
 70
1
 71
0
 91
1
 92
3
 72
0
 73
1
 93
4
 10
169.325
 20
710.325
 10
169.675
 20
710.325
 10
169.675
 20
685.675
 10
169.325
 20
685.675
 97
0
 75
0
 76
1
 98
0
  0
HATCH
  5
FA
330
17
100
AcDbEntity
  8
RASTER
 62
7
100
AcDbHatch
 10
0.0
 20
0.0
 30
0.0
210
0.0
220
0.0
230
1.0
  2
SOLID
 70
1
 71
0
 91
1
 92
3
 72
0
 73
1
 93
4
 10
169.325
 20
685.325
 10
169.675
 20
685.325
 10
169.675
 20
660.675
 10
169.325
 20
660.675
 97
0
 75
0
 76
1
 98
0
  0
HATCH
  5
FB
330
17
100
AcDbEntity
  8
RASTER
 62
7
100
AcDbHatch
 10
0.0
 20
0.0
 30
0.0
210
0.0
220
0.0
230
1.0
  2
SOLID
 70
1
 71
0
 91
1
 92
3
 72
0
 73
1
 93
4
 10
169.325
 20
660.325
 10
169.675
 20
660.325
 10
169.675
 20
635.675
 10
169.325
 20
635.675
 97
0
 75
0
 76
1
 98
0
  0
HATCH
  5
FC
330
17
100
AcDbEntity
  8
RASTER
 62
7
100
AcDbHatch
 10
0.0
 20
0.0
 30
0.0
210
0.0
220
0.0
230
1.0
  2
SOLID
 70
1
 71
0
 91
1
 92
3
 72
0
 73
1
 93
4
 10
194.325
 20
760.325
 10
194.675
 20
760.325
 10
194.675
 20
735.675
 10
194.325
 20
735.675
 97
0
 75
0
 76
1
 98
0
  0
HATCH
  5
FD
330
17
100
AcDbEntity
  8
RASTER
 62
7
100
AcDbHatch
 10
0.0
 20
0.0
 30
0.0
210
0.0
220
0.0
230
1.0
  2
SOLID
 70
1
 71
0
 91
1
 92
3
 72
0
 73
1
 93
4
 10
194.325
 20
735.325
 10
194.675
 20
735.325
 10
194.675
 20
710.675
 10
194.325
 20
710.675
 97
0
 75
0
 76
1
 98
0
  0
HATCH
  5
FE
330
17
100
AcDbEntity
  8
RASTER
 62
7
100
AcDbHatch
 10
0.0
 20
0.0
 30
0.0
210
0.0
220
0.0
230
1.0
  2
SOLID
 70
1
 71
0
 91
1
 92
3
 72
0
 73
1
 93
4
 10
194.325
 20
710.325
 10
194.675
 20
710.325
 10
194.675
 20
685.675
 10
194.325
 20
685.675
 97
0
 75
0
 76
1
 98
0
  0
HATCH
  5
FF
330
17
100
AcDbEntity
  8
RASTER
 62
7
100
AcDbHatch
 10
0.0
 20
0.0
 30
0.0
210
0.0
220
0.0
230
1.0
  2
SOLID
 70
1
 71
0
 91
1
 92
3
 72
0
 73
1
 93
4
 10
194.325
 20
685.325
 10
194.675
 20
685.325
 10
194.675
 20
660.675
 10
194.325
 20
660.675
 97
0
 75
0
 76
1
 98
0
  0
HATCH
  5
100
330
17
100
AcDbEntity
  8
RASTER
 62
7
100
AcDbHatch
 10
0.0
 20
0.0
 30
0.0
210
0.0
220
0.0
230
1.0
  2
SOLID
 70
1
 71
0
 91
1
 92
3
 72
0
 73
1
 93
4
 10
219.325
 20
760.325
 10
219.675
 20
760.325
 10
219.675
 20
735.675
 10
219.325
 20
735.675
 97
0
 75
0
 76
1
 98
0
  0
HATCH
  5
101
330
17
100
AcDbEntity
  8
RASTER
 62
7
100
AcDbHatch
 10
0.0
 20
0.0
 30
0.0
210
0.0
220
0.0
230
1.0
  2
SOLID
 70
1
 71
0
 91
1
 92
3
 72
0
 73
1
 93
4
 10
219.325
 20
735.325
 10
219.675
 20
735.325
 10
219.675
 20
710.675
 10
219.325
 20
710.675
 97
0
 75
0
 76
1
 98
0
  0
LWPOLYLINE
  5
102
330
17
100
AcDbEntity
  8
CUT
100
AcDbPolyline
 90
29
 70
1
 10
247.467
 20
774.138
 10
251.651
 20
774.044
 10
253.62
 20
771.994
 10
255.639
 20
772.94
 10
259.762
 20
772.846
 10
261.95
 20
771.21
 10
262.406
 20
768.969
 10
263.181
 20
767.677
 10
263.254
 20
763.796
 10
262.86
 20
762.591
 10
260.203
 20
759.401
 10
259.25
 20
757.143
 10
257.189
 20
755.993
 10
254.27
 20
752.766
 10
253.237
 20
752.185
 10
249.171
 20
752.102
 10
247.336
 20
752.469
 10
246.195
 20
753.248
 10
245.315
 20
754.567
 10
242.888
 20
754.758
 10
241.582
 20
755.364
 10
240.648
 20
756.341
 10
240.122
 20
757.424
 10
240.195
 20
762.777
 10
240.974
 20
763.836
 10
244.808
 20
766.329
 10
244.435
 20
768.004
 10
244.571
 20
772.031
 10
245.105
 20
772.722
  0
HATCH
  5
103
330
17
100
AcDbEntity
  8
RASTER
 62
7
100
AcDbHatch
 10
0.0
 20
0.0
 30
0.0
210
0.0
220
0.0
230
1.0
  2
SOLID
 70
1
 71
0
 91
15
 92
3
 72
0
 73
1
 93
62
 10
249.009
 20
772.289
 10
249.696
 20
772.32
 10
250.444
 20
771.941
 10
252.902
 20
768.458
 10
256.119
 20
770.609
 10
257.072
 20
771.09
 10
257.891
 20
771.09
 10
258.434
 20
770.814
 10
258.639
 20
770.609
 10
258.988
 20
769.933
 10
259.633
 20
769.861
 10
260.074
 20
769.585
 10
260.453
 20
768.837
 10
260.453
 20
767.915
 10
260.278
 20
767.474
 10
260.074
 20
767.228
 10
260.791
 20
766.921
 10
261.098
 20
766.614
 10
261.477
 20
765.661
 10
261.375
 20
764.944
 10
260.893
 20
764.093
 10
258.168
 20
760.876
 10
258.096
 20
760.129
 10
257.891
 20
759.514
 10
257.615
 20
759.073
 10
256.898
 20
758.459
 10
255.504
 20
757.906
 10
255.054
 20
757.332
 10
254.48
 20
756.779
 10
254.336
 20
756.512
 10
253.558
 20
755.754
 10
253.414
 20
755.488
 10
252.288
 20
754.361
 10
251.54
 20
753.982
 10
250.105
 20
753.982
 10
249.081
 20
754.289
 10
248.231
 20
754.771
 10
247.821
 20
755.18
 10
247.442
 20
755.826
 10
247.339
 20
756.133
 10
247.309
 20
757.332
 10
246.212
 20
756.645
 10
245.495
 20
756.441
 10
244.676
 20
756.543
 10
243.518
 20
757.024
 10
243.211
 20
757.229
 10
242.391
 20
758.151
 10
241.91
 20
759.207
 10
241.91
 20
759.719
 10
241.807
 20
759.924
 10
242.012
 20
761.051
 10
242.494
 20
761.901
 10
248.436
 20
765.692
 10
247.268
 20
767.536
 10
246.694
 20
768.294
 10
246.315
 20
769.042
 10
246.212
 20
769.759
 10
246.551
 20
770.65
 10
246.796
 20
770.916
 10
247.339
 20
771.193
 10
247.923
 20
771.224
 10
248.333
 20
771.941
 97
0
 92
2
 72
0
 73
1
 93
17
 10
249.183
 20
771.808
 10
248.64
 20
771.531
 10
248.466
 20
771.193
 10
248.538
 20
770.752
 10
249.419
 20
769.585
 10
250.894
 20
767.372
 10
252.39
 20
765.384
 10
253.251
 20
763.991
 10
254.132
 20
762.823
 10
254.89
 20
761.635
 10
254.992
 20
761.594
 10
255.402
 20
762.208
 10
256.047
 20
762.485
 10
256.631
 20
762.516
 10
253.968
 20
766.04
 10
250.239
 20
771.429
 10
249.696
 20
771.808
 97
0
 92
2
 72
0
 73
1
 93
25
 10
247.339
 20
770.681
 10
247.001
 20
770.507
 10
246.725
 20
769.964
 10
246.725
 20
769.349
 10
246.899
 20
769.011
 10
250.546
 20
763.643
 10
252.431
 20
760.569
 10
252.841
 20
761.286
 10
253.148
 20
761.594
 10
254.173
 20
762.003
 10
254.132
 20
762.106
 10
251.919
 20
765.015
 10
248.845
 20
769.421
 10
248.702
 20
769.38
 10
248.702
 20
769.523
 10
248.497
 20
769.277
 10
248.64
 20
769.625
 10
248.436
 20
769.482
 10
248.333
 20
769.523
 10
247.718
 20
770.24
 10
247.647
 20
770.373
 10
247.749
 20
770.476
 10
248.19
 20
770.199
 10
248.19
 20
770.302
 10
247.544
 20
770.681
 97
0
 92
2
 72
0
 73
1
 93
17
 10
257.482
 20
770.681
 10
257.072
 20
770.578
 10
256.222
 20
770.097
 10
253.353
 20
768.15
 10
253.281
 20
767.915
 10
253.558
 20
767.474
 10
253.865
 20
767.228
 10
254.685
 20
767.843
 10
256.426
 20
768.867
 10
256.56
 20
768.939
 10
256.734
 20
768.867
 10
256.836
 20
769.011
 10
256.969
 20
768.632
 10
258.229
 20
769.421
 10
258.475
 20
769.687
 10
258.332
 20
770.097
 10
258.127
 20
770.404
 97
0
 92
2
 72
0
 73
1
 93
26
 10
259.223
 20
769.349
 10
258.27
 20
768.867
 10
254.541
 20
766.347
 10
254.582
 20
766.04
 10
255.607
 20
764.708
 10
255.771
 20
764.708
 10
257.0
 20
765.63
 10
257.072
 20
765.763
 10
257.0
 20
765.835
 10
256.59
 20
765.487
 10
256.734
 20
765.835
 10
256.488
 20
765.692
 10
256.529
 20
765.937
 10
256.078
 20
765.896
 10
256.222
 20
766.204
 10
256.631
 20
766.511
 10
258.025
 20
767.372
 10
258.127
 20
767.331
 10
258.199
 20
767.095
 10
258.578
 20
767.167
 10
258.506
 20
766.89
 10
258.578
 20
766.818
 10
259.807
 20
767.638
 10
259.94
 20
767.915
 10
259.94
 20
768.734
 10
259.664
 20
769.277
 97
0
 92
2
 72
0
 73
1
 93
29
 10
259.838
 20
766.685
 10
256.662
 20
763.407
 10
257.041
 20
762.762
 10
257.994
 20
761.563
 10
258.332
 20
761.839
 10
258.475
 20
762.106
 10
258.947
 20
762.557
 10
259.09
 20
762.823
 10
260.145
 20
764.022
 10
260.074
 20
764.093
 10
259.971
 20
763.888
 10
259.295
 20
763.233
 10
259.049
 20
763.233
 10
259.295
 20
763.581
 10
258.947
 20
763.438
 10
258.988
 20
763.684
 10
258.742
 20
763.643
 10
258.947
 20
763.991
 10
259.766
 20
764.81
 10
259.869
 20
764.565
 10
259.971
 20
764.708
 10
260.074
 20
764.565
 10
260.422
 20
764.606
 10
260.248
 20
764.329
 10
260.381
 20
764.298
 10
260.862
 20
765.046
 10
260.965
 20
765.558
 10
260.688
 20
766.306
 10
260.248
 20
766.685
 97
0
 92
2
 72
0
 73
1
 93
11
 10
248.056
 20
764.841
 10
245.465
 20
763.233
 10
244.235
 20
762.413
 10
244.194
 20
762.311
 10
244.911
 20
762.003
 10
245.465
 20
761.43
 10
245.628
 20
761.43
 10
248.702
 20
763.684
 10
248.774
 20
763.919
 10
248.497
 20
764.462
 10
248.292
 20
764.769
 97
0
 92
2
 72
0
 73
1
 93
7
 10
256.15
 20
764.227
 10
256.047
 20
764.124
 10
256.119
 20
763.991
 10
256.355
 20
763.817
 10
256.734
 20
764.155
 10
256.385
 20
763.95
 10
256.181
 20
764.052
 97
0
 92
2
 72
0
 73
1
 93
12
 10
249.562
 20
762.762
 10
249.255
 20
762.618
 10
246.212
 20
760.436
 10
246.858
 20
760.057
 10
247.268
 20
759.545
 10
247.442
 20
759.104
 10
247.473
 20
758.315
 10
249.112
 20
759.586
 10
250.177
 20
760.569
 10
250.208
 20
761.358
 10
250.105
 20
761.87
 10
249.829
 20
762.516
 97
0
 92
2
 72
0
 73
1
 93
47
 10
256.047
 20
762.075
 10
255.709
 20
761.901
 10
255.402
 20
761.594
 10
255.33
 20
760.948
 10
255.607
 20
760.61
 10
256.047
 20
760.538
 10
256.078
 20
760.672
 10
255.74
 20
761.051
 10
255.812
 20
761.389
 10
256.252
 20
761.665
 10
256.898
 20
761.389
 10
257.174
 20
760.846
 10
257.174
 20
760.334
 10
257.0
 20
759.893
 10
256.693
 20
759.483
 10
255.945
 20
759.002
 10
255.228
 20
758.797
 10
254.511
 20
758.899
 10
253.865
 20
759.176
 10
253.558
 20
759.483
 10
253.281
 20
760.129
 10
253.455
 20
760.672
 10
253.794
 20
760.948
 10
254.336
 20
760.876
 10
254.408
 20
760.436
 10
254.203
 20
760.129
 10
254.306
 20
760.026
 10
254.541
 20
760.098
 10
254.818
 20
760.436
 10
254.746
 20
761.184
 10
254.439
 20
761.491
 10
253.998
 20
761.563
 10
253.251
 20
761.184
 10
252.872
 20
760.538
 10
252.872
 20
759.821
 10
253.148
 20
759.278
 10
253.455
 20
758.971
 10
254.511
 20
758.489
 10
255.535
 20
758.489
 10
255.945
 20
758.592
 10
256.898
 20
759.073
 10
257.205
 20
759.381
 10
257.584
 20
760.129
 10
257.584
 20
760.948
 10
257.307
 20
761.491
 10
256.898
 20
761.901
 10
256.56
 20
762.075
 97
0
 92
2
 72
0
 73
1
 93
52
 10
243.856
 20
761.973
 10
243.313
 20
761.799
 10
242.698
 20
761.389
 10
242.319
 20
760.436
 10
242.319
 20
759.616
 10
242.422
 20
759.207
 10
242.903
 20
758.254
 10
243.621
 20
757.537
 10
244.368
 20
757.158
 10
245.086
 20
756.953
 10
246.008
 20
757.055
 10
246.653
 20
757.434
 10
247.032
 20
758.182
 10
247.032
 20
759.104
 10
246.858
 20
759.545
 10
246.448
 20
759.954
 10
245.598
 20
760.026
 10
245.26
 20
759.75
 10
245.086
 20
759.411
 10
245.086
 20
758.899
 10
245.219
 20
758.623
 10
245.362
 20
758.623
 10
245.567
 20
759.237
 10
245.905
 20
759.411
 10
246.346
 20
759.135
 10
246.489
 20
758.664
 10
246.243
 20
757.946
 10
246.038
 20
757.742
 10
245.393
 20
757.465
 10
244.881
 20
757.465
 10
244.03
 20
757.844
 10
243.313
 20
758.459
 10
242.934
 20
759.104
 10
242.729
 20
759.719
 10
242.729
 20
760.129
 10
243.006
 20
760.876
 10
243.313
 20
761.184
 10
243.651
 20
761.358
 10
244.163
 20
761.358
 10
244.502
 20
761.184
 10
244.676
 20
760.846
 10
244.676
 20
760.436
 10
244.543
 20
760.159
 10
244.092
 20
759.995
 10
244.133
 20
759.791
 10
244.266
 20
759.719
 10
244.676
 20
759.719
 10
245.055
 20
759.954
 10
245.393
 20
760.641
 10
245.321
 20
760.979
 10
244.911
 20
761.594
 10
244.368
 20
761.87
 97
0
 92
2
 72
0
 73
1
 93
14
 10
249.214
 20
760.917
 10
249.358
 20
760.917
 10
249.317
 20
760.774
 10
249.521
 20
760.569
 10
249.624
 20
760.713
 10
249.767
 20
760.713
 10
249.562
 20
760.262
 10
249.388
 20
760.334
 10
249.153
 20
760.159
 10
248.907
 20
760.159
 10
248.948
 20
760.405
 10
248.743
 20
760.262
 10
248.497
 20
760.262
 10
248.743
 20
760.569
 97
0
 92
2
 72
0
 73
1
 93
13
 10
250.894
 20
760.405
 10
250.177
 20
759.852
 10
249.521
 20
759.176
 10
249.255
 20
759.032
 10
248.907
 20
758.623
 10
249.388
 20
758.489
 10
249.972
 20
758.11
 10
250.075
 20
758.315
 10
251.099
 20
759.34
 10
251.407
 20
759.381
 10
251.509
 20
759.237
 10
251.437
 20
759.719
 10
251.263
 20
760.057
 97
0
 92
2
 72
0
 73
1
 93
9
 10
252.021
 20
759.073
 10
251.058
 20
758.11
 10
252.083
 20
757.701
 10
252.595
 20
757.086
 10
252.769
 20
756.543
 10
252.943
 20
756.369
 10
253.076
 20
757.567
 10
252.872
 20
758.182
 10
252.595
 20
758.623
 97
0
 92
2
 72
0
 73
1
 93
51
 10
248.569
 20
758.182
 10
248.026
 20
757.803
 10
247.749
 20
757.26
 10
247.749
 20
756.441
 10
248.026
 20
755.795
 10
248.743
 20
755.078
 10
249.798
 20
754.596
 10
250.853
 20
754.422
 10
251.437
 20
754.494
 10
251.98
 20
754.771
 10
252.185
 20
754.976
 10
252.462
 20
755.518
 10
252.462
 20
756.543
 10
252.185
 20
757.086
 10
251.878
 20
757.393
 10
251.335
 20
757.67
 10
250.823
 20
757.67
 10
250.341
 20
757.434
 10
250.105
 20
756.953
 10
250.105
 20
756.645
 10
250.382
 20
756.205
 10
250.689
 20
756.061
 10
250.792
 20
756.205
 10
250.515
 20
756.543
 10
250.587
 20
756.881
 10
250.823
 20
757.055
 10
251.366
 20
756.983
 10
251.57
 20
756.779
 10
251.847
 20
756.133
 10
251.847
 20
755.826
 10
251.509
 20
755.242
 10
250.72
 20
754.904
 10
250.003
 20
754.904
 10
249.255
 20
755.18
 10
248.64
 20
755.59
 10
248.436
 20
755.795
 10
248.159
 20
756.338
 10
248.087
 20
756.717
 10
248.231
 20
757.291
 10
248.774
 20
757.67
 10
249.317
 20
757.496
 10
249.491
 20
757.26
 10
249.491
 20
756.953
 10
249.112
 20
756.574
 10
249.388
 20
756.441
 10
249.521
 20
756.512
 10
249.696
 20
756.85
 10
249.696
 20
757.158
 10
249.87
 20
757.639
 10
249.726
 20
757.906
 10
249.388
 20
758.182
 97
0
 75
0
 76
1
 98
0
  0
LWPOLYLINE
  5
104
330
17
100
AcDbEntity
  8
CUT
100
AcDbPolyline
 90
29
 70
1
 10
274.323
 20
774.138
 10
278.507
 20
774.044
 10
280.476
 20
771.994
 10
282.495
 20
772.94
 10
286.618
 20
772.846
 10
288.806
 20
771.21
 10
289.262
 20
768.969
 10
290.037
 20
767.677
 10
290.11
 20
763.796
 10
289.716
 20
762.591
 10
287.059
 20
759.401
 10
286.106
 20
757.143
 10
284.045
 20
755.993
 10
281.126
 20
752.766
 10
280.093
 20
752.185
 10
276.027
 20
752.102
 10
274.192
 20
752.469
 10
273.051
 20
753.248
 10
272.171
 20
754.567
 10
269.744
 20
754.758
 10
268.438
 20
755.364
 10
267.504
 20
756.341
 10
266.978
 20
757.424
 10
267.051
 20
762.777
 10
267.83
 20
763.836
 10
271.664
 20
766.329
 10
271.291
 20
768.004
 10
271.427
 20
772.031
 10
271.961
 20
772.722
  0
HATCH
  5
105
330
17
100
AcDbEntity
  8
RASTER
 62
7
100
AcDbHatch
 10
0.0
 20
0.0
 30
0.0
210
0.0
220
0.0
230
1.0
  2
SOLID
 70
1
 71
0
 91
15
 92
3
 72
0
 73
1
 93
62
 10
275.865
 20
772.289
 10
276.552
 20
772.32
 10
277.3
 20
771.941
 10
279.758
 20
768.458
 10
282.975
 20
770.609
 10
283.928
 20
771.09
 10
284.747
 20
771.09
 10
285.29
 20
770.814
 10
285.495
 20
770.609
 10
285.844
 20
769.933
 10
286.489
 20
769.861
 10
286.93
 20
769.585
 10
287.309
 20
768.837
 10
287.309
 20
767.915
 10
287.134
 20
767.474
 10
286.93
 20
767.228
 10
287.647
 20
766.921
 10
287.954
 20
766.614
 10
288.333
 20
765.661
 10
288.231
 20
764.944
 10
287.749
 20
764.093
 10
285.024
 20
760.876
 10
284.952
 20
760.129
 10
284.747
 20
759.514
 10
284.471
 20
759.073
 10
283.754
 20
758.459
 10
282.36
 20
757.906
 10
281.91
 20
757.332
 10
281.336
 20
756.779
 10
281.193
 20
756.512
 10
280.414
 20
755.754
 10
280.27
 20
755.488
 10
279.144
 20
754.361
 10
278.396
 20
753.982
 10
276.961
 20
753.982
 10
275.937
 20
754.289
 10
275.087
 20
754.771
 10
274.677
 20
755.18
 10
274.298
 20
755.826
 10
274.195
 20
756.133
 10
274.165
 20
757.332
 10
273.068
 20
756.645
 10
272.351
 20
756.441
 10
271.532
 20
756.543
 10
270.374
 20
757.024
 10
270.067
 20
757.229
 10
269.247
 20
758.151
 10
268.766
 20
759.207
 10
268.766
 20
759.719
 10
268.663
 20
759.924
 10
268.868
 20
761.051
 10
269.35
 20
761.901
 10
275.292
 20
765.692
 10
274.124
 20
767.536
 10
273.55
 20
768.294
 10
273.171
 20
769.042
 10
273.068
 20
769.759
 10
273.407
 20
770.65
 10
273.652
 20
770.916
 10
274.195
 20
771.193
 10
274.779
 20
771.224
 10
275.189
 20
771.941
 97
0
 92
2
 72
0
 73
1
 93
17
 10
276.039
 20
771.808
 10
275.496
 20
771.531
 10
275.322
 20
771.193
 10
275.394
 20
770.752
 10
276.275
 20
769.585
 10
277.75
 20
767.372
 10
279.246
 20
765.384
 10
280.107
 20
763.991
 10
280.988
 20
762.823
 10
281.746
 20
761.635
 10
281.848
 20
761.594
 10
282.258
 20
762.208
 10
282.903
 20
762.485
 10
283.487
 20
762.516
 10
280.824
 20
766.04
 10
277.095
 20
771.429
 10
276.552
 20
771.808
 97
0
 92
2
 72
0
 73
1
 93
25
 10
274.195
 20
770.681
 10
273.857
 20
770.507
 10
273.581
 20
769.964
 10
273.581
 20
769.349
 10
273.755
 20
769.011
 10
277.402
 20
763.643
 10
279.287
 20
760.569
 10
279.697
 20
761.286
 10
280.004
 20
761.594
 10
281.029
 20
762.003
 10
280.988
 20
762.106
 10
278.775
 20
765.015
 10
275.701
 20
769.421
 10
275.558
 20
769.38
 10
275.558
 20
769.523
 10
275.353
 20
769.277
 10
275.496
 20
769.625
 10
275.292
 20
769.482
 10
275.189
 20
769.523
 10
274.574
 20
770.24
 10
274.503
 20
770.373
 10
274.605
 20
770.476
 10
275.046
 20
770.199
 10
275.046
 20
770.302
 10
274.4
 20
770.681
 97
0
 92
2
 72
0
 73
1
 93
17
 10
284.338
 20
770.681
 10
283.928
 20
770.578
 10
283.078
 20
770.097
 10
280.209
 20
768.15
 10
280.137
 20
767.915
 10
280.414
 20
767.474
 10
280.721
 20
767.228
 10
281.541
 20
767.843
 10
283.282
 20
768.867
 10
283.416
 20
768.939
 10
283.59
 20
768.867
 10
283.692
 20
769.011
 10
283.825
 20
768.632
 10
285.086
 20
769.421
 10
285.331
 20
769.687
 10
285.188
 20
770.097
 10
284.983
 20
770.404
 97
0
 92
2
 72
0
 73
1
 93
26
 10
286.079
 20
769.349
 10
285.126
 20
768.867
 10
281.397
 20
766.347
 10
281.438
 20
766.04
 10
282.463
 20
764.708
 10
282.627
 20
764.708
 10
283.856
 20
765.63
 10
283.928
 20
765.763
 10
283.856
 20
765.835
 10
283.446
 20
765.487
 10
283.59
 20
765.835
 10
283.344
 20
765.692
 10
283.385
 20
765.937
 10
282.934
 20
765.896
 10
283.078
 20
766.204
 10
283.487
 20
766.511
 10
284.881
 20
767.372
 10
284.983
 20
767.331
 10
285.055
 20
767.095
 10
285.434
 20
767.167
 10
285.362
 20
766.89
 10
285.434
 20
766.818
 10
286.663
 20
767.638
 10
286.796
 20
767.915
 10
286.796
 20
768.734
 10
286.52
 20
769.277
 97
0
 92
2
 72
0
 73
1
 93
29
 10
286.694
 20
766.685
 10
283.518
 20
763.407
 10
283.897
 20
762.762
 10
284.85
 20
761.563
 10
285.188
 20
761.839
 10
285.331
 20
762.106
 10
285.803
 20
762.557
 10
285.946
 20
762.823
 10
287.001
 20
764.022
 10
286.93
 20
764.093
 10
286.827
 20
763.888
 10
286.151
 20
763.233
 10
285.905
 20
763.233
 10
286.151
 20
763.581
 10
285.803
 20
763.438
 10
285.844
 20
763.684
 10
285.598
 20
763.643
 10
285.803
 20
763.991
 10
286.622
 20
764.81
 10
286.725
 20
764.565
 10
286.827
 20
764.708
 10
286.93
 20
764.565
 10
287.278
 20
764.606
 10
287.104
 20
764.329
 10
287.237
 20
764.298
 10
287.718
 20
765.046
 10
287.821
 20
765.558
 10
287.544
 20
766.306
 10
287.104
 20
766.685
 97
0
 92
2
 72
0
 73
1
 93
11
 10
274.912
 20
764.841
 10
272.321
 20
763.233
 10
271.091
 20
762.413
 10
271.05
 20
762.311
 10
271.767
 20
762.003
 10
272.321
 20
761.43
 10
272.484
 20
761.43
 10
275.558
 20
763.684
 10
275.63
 20
763.919
 10
275.353
 20
764.462
 10
275.148
 20
764.769
 97
0
 92
2
 72
0
 73
1
 93
7
 10
283.006
 20
764.227
 10
282.903
 20
764.124
 10
282.975
 20
763.991
 10
283.211
 20
763.817
 10
283.59
 20
764.155
 10
283.241
 20
763.95
 10
283.037
 20
764.052
 97
0
 92
2
 72
0
 73
1
 93
12
 10
276.418
 20
762.762
 10
276.111
 20
762.618
 10
273.068
 20
760.436
 10
273.714
 20
760.057
 10
274.124
 20
759.545
 10
274.298
 20
759.104
 10
274.329
 20
758.315
 10
275.968
 20
759.586
 10
277.033
 20
760.569
 10
277.064
 20
761.358
 10
276.961
 20
761.87
 10
276.685
 20
762.516
 97
0
 92
2
 72
0
 73
1
 93
47
 10
282.903
 20
762.075
 10
282.565
 20
761.901
 10
282.258
 20
761.594
 10
282.186
 20
760.948
 10
282.463
 20
760.61
 10
282.903
 20
760.538
 10
282.934
 20
760.672
 10
282.596
 20
761.051
 10
282.668
 20
761.389
 10
283.108
 20
761.665
 10
283.754
 20
761.389
 10
284.03
 20
760.846
 10
284.03
 20
760.334
 10
283.856
 20
759.893
 10
283.549
 20
759.483
 10
282.801
 20
759.002
 10
282.084
 20
758.797
 10
281.367
 20
758.899
 10
280.721
 20
759.176
 10
280.414
 20
759.483
 10
280.137
 20
760.129
 10
280.311
 20
760.672
 10
280.65
 20
760.948
 10
281.193
 20
760.876
 10
281.264
 20
760.436
 10
281.059
 20
760.129
 10
281.162
 20
760.026
 10
281.397
 20
760.098
 10
281.674
 20
760.436
 10
281.602
 20
761.184
 10
281.295
 20
761.491
 10
280.854
 20
761.563
 10
280.107
 20
761.184
 10
279.728
 20
760.538
 10
279.728
 20
759.821
 10
280.004
 20
759.278
 10
280.311
 20
758.971
 10
281.367
 20
758.489
 10
282.391
 20
758.489
 10
282.801
 20
758.592
 10
283.754
 20
759.073
 10
284.061
 20
759.381
 10
284.44
 20
760.129
 10
284.44
 20
760.948
 10
284.163
 20
761.491
 10
283.754
 20
761.901
 10
283.416
 20
762.075
 97
0
 92
2
 72
0
 73
1
 93
52
 10
270.712
 20
761.973
 10
270.169
 20
761.799
 10
269.554
 20
761.389
 10
269.175
 20
760.436
 10
269.175
 20
759.616
 10
269.278
 20
759.207
 10
269.759
 20
758.254
 10
270.477
 20
757.537
 10
271.224
 20
757.158
 10
271.942
 20
756.953
 10
272.864
 20
757.055
 10
273.509
 20
757.434
 10
273.888
 20
758.182
 10
273.888
 20
759.104
 10
273.714
 20
759.545
 10
273.304
 20
759.954
 10
272.454
 20
760.026
 10
272.116
 20
759.75
 10
271.942
 20
759.411
 10
271.942
 20
758.899
 10
272.075
 20
758.623
 10
272.218
 20
758.623
 10
272.423
 20
759.237
 10
272.761
 20
759.411
 10
273.202
 20
759.135
 10
273.345
 20
758.664
 10
273.099
 20
757.946
 10
272.894
 20
757.742
 10
272.249
 20
757.465
 10
271.737
 20
757.465
 10
270.886
 20
757.844
 10
270.169
 20
758.459
 10
269.79
 20
759.104
 10
269.585
 20
759.719
 10
269.585
 20
760.129
 10
269.862
 20
760.876
 10
270.169
 20
761.184
 10
270.507
 20
761.358
 10
271.019
 20
761.358
 10
271.358
 20
761.184
 10
271.532
 20
760.846
 10
271.532
 20
760.436
 10
271.399
 20
760.159
 10
270.948
 20
759.995
 10
270.989
 20
759.791
 10
271.122
 20
759.719
 10
271.532
 20
759.719
 10
271.911
 20
759.954
 10
272.249
 20
760.641
 10
272.177
 20
760.979
 10
271.767
 20
761.594
 10
271.224
 20
761.87
 97
0
 92
2
 72
0
 73
1
 93
14
 10
276.07
 20
760.917
 10
276.214
 20
760.917
 10
276.173
 20
760.774
 10
276.377
 20
760.569
 10
276.48
 20
760.713
 10
276.623
 20
760.713
 10
276.418
 20
760.262
 10
276.244
 20
760.334
 10
276.009
 20
760.159
 10
275.763
 20
760.159
 10
275.804
 20
760.405
 10
275.599
 20
760.262
 10
275.353
 20
760.262
 10
275.599
 20
760.569
 97
0
 92
2
 72
0
 73
1
 93
13
 10
277.75
 20
760.405
 10
277.033
 20
759.852
 10
276.377
 20
759.176
 10
276.111
 20
759.032
 10
275.763
 20
758.623
 10
276.244
 20
758.489
 10
276.828
 20
758.11
 10
276.931
 20
758.315
 10
277.955
 20
759.34
 10
278.263
 20
759.381
 10
278.365
 20
759.237
 10
278.293
 20
759.719
 10
278.119
 20
760.057
 97
0
 92
2
 72
0
 73
1
 93
9
 10
278.877
 20
759.073
 10
277.914
 20
758.11
 10
278.939
 20
757.701
 10
279.451
 20
757.086
 10
279.625
 20
756.543
 10
279.799
 20
756.369
 10
279.932
 20
757.567
 10
279.728
 20
758.182
 10
279.451
 20
758.623
 97
0
 92
2
 72
0
 73
1
 93
51
 10
275.425
 20
758.182
 10
274.882
 20
757.803
 10
274.605
 20
757.26
 10
274.605
 20
756.441
 10
274.882
 20
755.795
 10
275.599
 20
755.078
 10
276.654
 20
754.596
 10
277.709
 20
754.422
 10
278.293
 20
754.494
 10
278.836
 20
754.771
 10
279.041
 20
754.976
 10
279.318
 20
755.518
 10
279.318
 20
756.543
 10
279.041
 20
757.086
 10
278.734
 20
757.393
 10
278.191
 20
757.67
 10
277.679
 20
757.67
 10
277.197
 20
757.434
 10
276.961
 20
756.953
 10
276.961
 20
756.645
 10
277.238
 20
756.205
 10
277.545
 20
756.061
 10
277.648
 20
756.205
 10
277.371
 20
756.543
 10
277.443
 20
756.881
 10
277.679
 20
757.055
 10
278.222
 20
756.983
 10
278.426
 20
756.779
 10
278.703
 20
756.133
 10
278.703
 20
755.826
 10
278.365
 20
755.242
 10
277.576
 20
754.904
 10
276.859
 20
754.904
 10
276.111
 20
755.18
 10
275.496
 20
755.59
 10
275.292
 20
755.795
 10
275.015
 20
756.338
 10
274.943
 20
756.717
 10
275.087
 20
757.291
 10
275.63
 20
757.67
 10
276.173
 20
757.496
 10
276.347
 20
757.26
 10
276.347
 20
756.953
 10
275.968
 20
756.574
 10
276.244
 20
756.441
 10
276.377
 20
756.512
 10
276.552
 20
756.85
 10
276.552
 20
757.158
 10
276.726
 20
757.639
 10
276.582
 20
757.906
 10
276.244
 20
758.182
 97
0
 75
0
 76
1
 98
0
  0
LWPOLYLINE
  5
106
330
17
100
AcDbEntity
  8
CUT
100
AcDbPolyline
 90
18
 70
1
 10
299.232
 20
774.081
 10
303.661
 20
774.138
 10
309.057
 20
772.377
 10
309.736
 20
771.27
 10
310.372
 20
768.069
 10
313.729
 20
767.671
 10
316.859
 20
764.519
 10
317.269
 20
763.288
 10
317.178
 20
759.401
 10
315.005
 20
754.483
 10
310.634
 20
753.933
 10
305.69
 20
753.99
 10
302.767
 20
756.914
 10
300.36
 20
757.28
 10
295.257
 20
759.467
 10
293.835
 20
765.326
 10
293.857
 20
769.739
 10
294.66
 20
770.825
  0
HATCH
  5
107
330
17
100
AcDbEntity
  8
RASTER
 62
7
100
AcDbHatch
 10
0.0
 20
0.0
 30
0.0
210
0.0
220
0.0
230
1.0
  2
SOLID
 70
1
 71
0
 91
14
 92
3
 72
0
 73
1
 93
39
 10
301.352
 20
772.318
 10
301.542
 20
772.351
 10
303.112
 20
771.903
 10
306.813
 20
770.669
 10
307.408
 20
770.366
 10
307.823
 20
769.548
 10
308.35
 20
766.037
 10
311.411
 20
765.959
 10
311.894
 20
765.768
 10
312.791
 20
764.983
 10
313.172
 20
764.467
 10
314.81
 20
762.852
 10
315.146
 20
762.404
 10
315.337
 20
762.034
 10
315.337
 20
761.361
 10
313.127
 20
756.28
 10
312.309
 20
756.09
 10
309.617
 20
755.978
 10
309.393
 20
755.865
 10
307.374
 20
755.865
 10
306.555
 20
756.617
 10
306.398
 20
756.908
 10
305.883
 20
757.402
 10
305.726
 20
757.693
 10
304.268
 20
759.376
 10
304.088
 20
759.376
 10
303.931
 20
759.196
 10
303.337
 20
758.893
 10
302.664
 20
759.006
 10
297.954
 20
760.8
 10
297.359
 20
761.103
 10
297.135
 20
761.327
 10
296.832
 20
762.146
 10
296.159
 20
765.51
 10
295.823
 20
766.632
 10
295.711
 20
767.865
 10
296.013
 20
768.46
 10
296.35
 20
768.796
 10
300.387
 20
771.824
 97
0
 92
2
 72
0
 73
1
 93
115
 10
301.318
 20
771.679
 10
296.686
 20
768.236
 10
296.383
 20
767.753
 10
296.383
 20
767.529
 10
296.641
 20
766.329
 10
296.911
 20
766.486
 10
297.169
 20
766.071
 10
297.056
 20
765.959
 10
296.754
 20
766.037
 10
296.72
 20
765.735
 10
297.023
 20
764.579
 10
297.247
 20
764.579
 10
297.505
 20
764.389
 10
297.359
 20
764.198
 10
297.135
 20
764.355
 10
297.056
 20
764.277
 10
297.696
 20
761.776
 10
297.954
 20
761.585
 10
299.333
 20
761.058
 10
299.333
 20
761.17
 10
299.109
 20
761.282
 10
299.266
 20
761.507
 10
299.221
 20
761.664
 10
299.748
 20
761.473
 10
299.782
 20
761.619
 10
299.557
 20
761.619
 10
299.748
 20
761.809
 10
299.939
 20
761.776
 10
300.006
 20
761.507
 10
300.163
 20
761.664
 10
300.23
 20
761.507
 10
300.421
 20
761.585
 10
300.757
 20
761.361
 10
300.948
 20
761.439
 10
301.127
 20
761.282
 10
301.284
 20
761.327
 10
301.094
 20
760.912
 10
301.172
 20
760.766
 10
301.284
 20
760.721
 10
301.509
 20
760.879
 10
301.576
 20
760.721
 10
301.767
 20
760.8
 10
302.025
 20
760.609
 10
302.025
 20
760.766
 10
302.182
 20
760.766
 10
302.294
 20
760.273
 10
301.912
 20
760.318
 10
302.069
 20
760.206
 10
301.912
 20
760.049
 10
303.112
 20
759.679
 10
303.303
 20
760.049
 10
303.225
 20
761.024
 10
303.112
 20
761.249
 10
303.112
 20
761.697
 10
303.225
 20
761.921
 10
303.0
 20
762.034
 10
302.888
 20
763.043
 10
302.967
 20
763.121
 10
303.079
 20
762.852
 10
303.449
 20
763.267
 10
303.595
 20
763.077
 10
303.752
 20
763.077
 10
303.752
 20
763.234
 10
303.595
 20
763.346
 10
303.897
 20
763.716
 10
303.707
 20
763.794
 10
303.415
 20
763.637
 10
303.415
 20
763.413
 10
303.225
 20
763.492
 10
303.191
 20
763.301
 10
303.0
 20
763.267
 10
302.967
 20
763.458
 10
302.776
 20
763.492
 10
302.81
 20
763.907
 10
303.112
 20
764.164
 10
303.415
 20
764.086
 10
303.449
 20
764.277
 10
303.337
 20
764.501
 10
303.483
 20
764.692
 10
303.707
 20
764.692
 10
303.752
 20
764.804
 10
303.595
 20
764.759
 10
303.561
 20
764.95
 10
303.785
 20
765.286
 10
304.043
 20
765.095
 10
304.234
 20
764.725
 10
304.38
 20
765.028
 10
304.604
 20
765.14
 10
304.873
 20
765.028
 10
304.985
 20
764.759
 10
304.795
 20
764.613
 10
305.21
 20
764.198
 10
305.77
 20
765.544
 10
306.107
 20
765.88
 10
306.477
 20
766.071
 10
307.565
 20
766.105
 10
307.486
 20
767.193
 10
307.408
 20
767.338
 10
307.15
 20
767.417
 10
307.374
 20
767.641
 10
307.374
 20
767.865
 10
307.296
 20
767.944
 10
307.071
 20
767.787
 10
306.623
 20
768.011
 10
306.813
 20
768.314
 10
306.623
 20
768.729
 10
306.847
 20
768.684
 10
307.116
 20
768.393
 10
307.228
 20
768.011
 10
307.262
 20
768.763
 10
307.15
 20
768.987
 10
307.15
 20
769.436
 10
306.959
 20
769.806
 10
306.477
 20
770.108
 10
301.991
 20
771.566
 97
0
 92
2
 72
0
 73
1
 93
8
 10
306.398
 20
768.841
 10
306.477
 20
768.426
 10
306.331
 20
768.123
 10
306.253
 20
768.202
 10
306.331
 20
768.393
 10
306.14
 20
768.538
 10
305.838
 20
768.348
 10
305.995
 20
768.572
 97
0
 92
2
 72
0
 73
1
 93
10
 10
303.819
 20
765.813
 10
304.425
 20
765.589
 10
304.458
 20
765.398
 10
304.2
 20
765.095
 10
304.122
 20
765.174
 10
304.312
 20
765.477
 10
304.122
 20
765.51
 10
304.088
 20
765.32
 10
303.931
 20
765.32
 10
304.01
 20
765.622
 97
0
 92
2
 72
0
 73
1
 93
7
 10
297.09
 20
765.589
 10
297.281
 20
765.622
 10
297.393
 20
765.51
 10
297.393
 20
765.174
 10
297.281
 20
765.062
 10
297.023
 20
765.14
 10
296.944
 20
765.286
 97
0
 92
2
 72
0
 73
1
 93
129
 10
306.701
 20
765.51
 10
306.398
 20
765.364
 10
306.14
 20
764.837
 10
306.14
 20
764.613
 10
305.692
 20
763.492
 10
305.804
 20
763.155
 10
305.726
 20
763.077
 10
305.613
 20
763.234
 10
305.468
 20
762.931
 10
304.683
 20
760.688
 10
304.683
 20
760.015
 10
304.873
 20
759.645
 10
306.286
 20
758.142
 10
307.453
 20
756.617
 10
307.565
 20
756.572
 10
307.789
 20
756.841
 10
307.744
 20
756.572
 10
308.047
 20
756.538
 10
308.126
 20
756.572
 10
308.047
 20
756.875
 10
307.823
 20
757.099
 10
308.305
 20
758.075
 10
308.496
 20
757.996
 10
308.608
 20
758.108
 10
308.383
 20
758.333
 10
308.798
 20
758.591
 10
308.608
 20
758.781
 10
308.641
 20
758.972
 10
308.944
 20
758.893
 10
309.056
 20
759.006
 10
308.754
 20
759.196
 10
309.808
 20
761.507
 10
310.066
 20
761.697
 10
310.626
 20
761.697
 10
311.041
 20
760.766
 10
311.299
 20
760.8
 10
311.714
 20
760.609
 10
311.445
 20
760.834
 10
311.445
 20
761.103
 10
311.714
 20
761.058
 10
311.714
 20
761.215
 10
311.411
 20
761.361
 10
311.075
 20
761.024
 10
310.997
 20
761.327
 10
311.109
 20
761.551
 10
311.524
 20
761.585
 10
311.714
 20
761.394
 10
311.972
 20
761.585
 10
312.051
 20
761.507
 10
311.894
 20
761.327
 10
311.939
 20
761.215
 10
312.163
 20
761.215
 10
312.275
 20
760.991
 10
312.499
 20
760.879
 10
312.197
 20
760.576
 10
312.275
 20
760.43
 10
312.611
 20
760.318
 10
312.533
 20
760.127
 10
312.724
 20
759.712
 10
312.533
 20
759.566
 10
312.645
 20
759.342
 10
312.567
 20
759.196
 10
312.23
 20
758.927
 10
312.275
 20
759.308
 10
312.051
 20
759.264
 10
312.006
 20
758.972
 10
311.826
 20
758.703
 10
311.669
 20
758.703
 10
311.86
 20
759.118
 10
311.782
 20
759.196
 10
311.557
 20
759.039
 10
311.49
 20
759.196
 10
311.299
 20
759.23
 10
311.299
 20
759.566
 10
311.524
 20
760.127
 10
311.333
 20
760.206
 10
310.997
 20
759.376
 10
311.187
 20
759.118
 10
311.154
 20
758.86
 10
311.378
 20
758.748
 10
311.445
 20
758.479
 10
311.714
 20
758.299
 10
311.49
 20
757.806
 10
311.411
 20
757.884
 10
311.602
 20
758.299
 10
311.333
 20
758.142
 10
311.299
 20
758.333
 10
311.154
 20
758.254
 10
311.154
 20
758.03
 10
310.997
 20
758.075
 10
310.929
 20
757.918
 10
310.851
 20
757.996
 10
311.109
 20
758.523
 10
311.266
 20
758.591
 10
311.187
 20
758.669
 10
310.884
 20
758.523
 10
310.772
 20
758.187
 10
310.626
 20
758.108
 10
310.402
 20
758.221
 10
310.211
 20
757.963
 10
310.29
 20
757.884
 10
310.705
 20
757.963
 10
310.436
 20
757.357
 10
310.817
 20
757.245
 10
310.593
 20
757.021
 10
310.436
 20
757.245
 10
310.256
 20
757.245
 10
310.099
 20
756.953
 10
310.144
 20
756.796
 10
309.875
 20
756.908
 10
309.729
 20
757.211
 10
309.583
 20
757.133
 10
309.539
 20
756.841
 10
309.202
 20
756.684
 10
310.626
 20
756.65
 10
310.851
 20
756.763
 10
312.197
 20
756.763
 10
312.679
 20
756.953
 10
313.318
 20
758.221
 10
314.664
 20
761.473
 10
314.742
 20
761.776
 10
314.361
 20
762.404
 10
312.724
 20
764.019
 10
312.567
 20
764.31
 10
312.006
 20
764.871
 10
311.411
 20
765.286
 10
310.963
 20
765.398
 10
308.159
 20
765.398
 10
307.935
 20
765.51
 97
0
 92
2
 72
0
 73
1
 93
5
 10
312.23
 20
761.551
 10
312.533
 20
761.585
 10
312.645
 20
761.473
 10
312.567
 20
761.327
 10
312.309
 20
761.249
 97
0
 92
2
 72
0
 73
1
 93
5
 10
303.976
 20
760.879
 10
303.483
 20
760.654
 10
303.483
 20
760.497
 10
303.785
 20
760.576
 10
303.976
 20
760.497
 97
0
 92
2
 72
0
 73
1
 93
17
 10
310.032
 20
760.879
 10
309.841
 20
760.688
 10
309.92
 20
760.497
 10
309.763
 20
760.161
 10
309.987
 20
760.206
 10
310.144
 20
760.609
 10
310.256
 20
760.654
 10
310.256
 20
759.981
 10
310.481
 20
759.981
 10
311.041
 20
759.712
 10
310.997
 20
759.936
 10
310.548
 20
760.049
 10
310.402
 20
760.351
 10
310.593
 20
760.609
 10
310.548
 20
760.721
 10
310.369
 20
760.879
 10
310.099
 20
760.721
 97
0
 92
2
 72
0
 73
1
 93
6
 10
310.817
 20
760.766
 10
310.739
 20
760.688
 10
310.929
 20
760.318
 10
311.109
 20
760.318
 10
311.154
 20
760.542
 10
310.884
 20
760.609
 97
0
 92
2
 72
0
 73
1
 93
4
 10
303.864
 20
760.43
 10
303.483
 20
760.206
 10
303.673
 20
759.903
 10
303.897
 20
760.127
 97
0
 92
2
 72
0
 73
1
 93
9
 10
312.163
 20
760.318
 10
312.051
 20
759.936
 10
311.86
 20
759.791
 10
311.894
 20
759.712
 10
312.197
 20
759.791
 10
312.387
 20
759.6
 10
312.499
 20
759.869
 10
312.309
 20
760.015
 10
312.387
 20
760.206
 97
0
 92
2
 72
0
 73
1
 93
5
 10
309.471
 20
759.645
 10
309.426
 20
759.376
 10
309.583
 20
759.421
 10
309.92
 20
759.264
 10
309.92
 20
759.421
 97
0
 92
2
 72
0
 73
1
 93
6
 10
309.841
 20
757.996
 10
309.696
 20
757.918
 10
309.696
 20
757.738
 10
310.144
 20
757.469
 10
310.144
 20
757.738
 10
309.987
 20
757.693
 97
0
 75
0
 76
1
 98
0
  0
LWPOLYLINE
  5
108
330
17
100
AcDbEntity
  8
CUT
100
AcDbPolyline
 90
18
 70
1
 10
326.391
 20
774.081
 10
330.819
 20
774.138
 10
336.216
 20
772.377
 10
336.895
 20
771.27
 10
337.531
 20
768.069
 10
340.888
 20
767.671
 10
344.018
 20
764.519
 10
344.428
 20
763.288
 10
344.337
 20
759.401
 10
342.164
 20
754.483
 10
337.793
 20
753.933
 10
332.849
 20
753.99
 10
329.926
 20
756.914
 10
327.519
 20
757.28
 10
322.416
 20
759.467
 10
320.994
 20
765.326
 10
321.016
 20
769.739
 10
321.819
 20
770.825
  0
HATCH
  5
109
330
17
100
AcDbEntity
  8
RASTER
 62
7
100
AcDbHatch
 10
0.0
 20
0.0
 30
0.0
210
0.0
220
0.0
230
1.0
  2
SOLID
 70
1
 71
0
 91
14
 92
3
 72
0
 73
1
 93
39
 10
328.511
 20
772.318
 10
328.701
 20
772.351
 10
330.271
 20
771.903
 10
333.972
 20
770.669
 10
334.567
 20
770.366
 10
334.982
 20
769.548
 10
335.509
 20
766.037
 10
338.57
 20
765.959
 10
339.053
 20
765.768
 10
339.95
 20
764.983
 10
340.331
 20
764.467
 10
341.969
 20
762.852
 10
342.305
 20
762.404
 10
342.496
 20
762.034
 10
342.496
 20
761.361
 10
340.286
 20
756.28
 10
339.468
 20
756.09
 10
336.776
 20
755.978
 10
336.552
 20
755.865
 10
334.533
 20
755.865
 10
333.714
 20
756.617
 10
333.557
 20
756.908
 10
333.041
 20
757.402
 10
332.884
 20
757.693
 10
331.426
 20
759.376
 10
331.247
 20
759.376
 10
331.09
 20
759.196
 10
330.496
 20
758.893
 10
329.823
 20
759.006
 10
325.112
 20
760.8
 10
324.518
 20
761.103
 10
324.294
 20
761.327
 10
323.991
 20
762.146
 10
323.318
 20
765.51
 10
322.982
 20
766.632
 10
322.869
 20
767.865
 10
323.172
 20
768.46
 10
323.509
 20
768.796
 10
327.546
 20
771.824
 97
0
 92
2
 72
0
 73
1
 93
115
 10
328.477
 20
771.679
 10
323.845
 20
768.236
 10
323.542
 20
767.753
 10
323.542
 20
767.529
 10
323.8
 20
766.329
 10
324.069
 20
766.486
 10
324.327
 20
766.071
 10
324.215
 20
765.959
 10
323.912
 20
766.037
 10
323.879
 20
765.735
 10
324.182
 20
764.579
 10
324.406
 20
764.579
 10
324.664
 20
764.389
 10
324.518
 20
764.198
 10
324.294
 20
764.355
 10
324.215
 20
764.277
 10
324.854
 20
761.776
 10
325.112
 20
761.585
 10
326.492
 20
761.058
 10
326.492
 20
761.17
 10
326.268
 20
761.282
 10
326.425
 20
761.507
 10
326.38
 20
761.664
 10
326.907
 20
761.473
 10
326.94
 20
761.619
 10
326.716
 20
761.619
 10
326.907
 20
761.809
 10
327.097
 20
761.776
 10
327.165
 20
761.507
 10
327.322
 20
761.664
 10
327.389
 20
761.507
 10
327.58
 20
761.585
 10
327.916
 20
761.361
 10
328.107
 20
761.439
 10
328.286
 20
761.282
 10
328.443
 20
761.327
 10
328.253
 20
760.912
 10
328.331
 20
760.766
 10
328.443
 20
760.721
 10
328.668
 20
760.879
 10
328.735
 20
760.721
 10
328.926
 20
760.8
 10
329.183
 20
760.609
 10
329.183
 20
760.766
 10
329.34
 20
760.766
 10
329.453
 20
760.273
 10
329.071
 20
760.318
 10
329.228
 20
760.206
 10
329.071
 20
760.049
 10
330.271
 20
759.679
 10
330.462
 20
760.049
 10
330.383
 20
761.024
 10
330.271
 20
761.249
 10
330.271
 20
761.697
 10
330.383
 20
761.921
 10
330.159
 20
762.034
 10
330.047
 20
763.043
 10
330.126
 20
763.121
 10
330.238
 20
762.852
 10
330.608
 20
763.267
 10
330.754
 20
763.077
 10
330.911
 20
763.077
 10
330.911
 20
763.234
 10
330.754
 20
763.346
 10
331.056
 20
763.716
 10
330.866
 20
763.794
 10
330.574
 20
763.637
 10
330.574
 20
763.413
 10
330.383
 20
763.492
 10
330.35
 20
763.301
 10
330.159
 20
763.267
 10
330.126
 20
763.458
 10
329.935
 20
763.492
 10
329.969
 20
763.907
 10
330.271
 20
764.164
 10
330.574
 20
764.086
 10
330.608
 20
764.277
 10
330.496
 20
764.501
 10
330.641
 20
764.692
 10
330.866
 20
764.692
 10
330.911
 20
764.804
 10
330.754
 20
764.759
 10
330.72
 20
764.95
 10
330.944
 20
765.286
 10
331.202
 20
765.095
 10
331.393
 20
764.725
 10
331.539
 20
765.028
 10
331.763
 20
765.14
 10
332.032
 20
765.028
 10
332.144
 20
764.759
 10
331.954
 20
764.613
 10
332.369
 20
764.198
 10
332.929
 20
765.544
 10
333.266
 20
765.88
 10
333.636
 20
766.071
 10
334.724
 20
766.105
 10
334.645
 20
767.193
 10
334.567
 20
767.338
 10
334.309
 20
767.417
 10
334.533
 20
767.641
 10
334.533
 20
767.865
 10
334.454
 20
767.944
 10
334.23
 20
767.787
 10
333.782
 20
768.011
 10
333.972
 20
768.314
 10
333.782
 20
768.729
 10
334.006
 20
768.684
 10
334.275
 20
768.393
 10
334.387
 20
768.011
 10
334.421
 20
768.763
 10
334.309
 20
768.987
 10
334.309
 20
769.436
 10
334.118
 20
769.806
 10
333.636
 20
770.108
 10
329.15
 20
771.566
 97
0
 92
2
 72
0
 73
1
 93
8
 10
333.557
 20
768.841
 10
333.636
 20
768.426
 10
333.49
 20
768.123
 10
333.411
 20
768.202
 10
333.49
 20
768.393
 10
333.299
 20
768.538
 10
332.997
 20
768.348
 10
333.154
 20
768.572
 97
0
 92
2
 72
0
 73
1
 93
10
 10
330.978
 20
765.813
 10
331.583
 20
765.589
 10
331.617
 20
765.398
 10
331.359
 20
765.095
 10
331.281
 20
765.174
 10
331.471
 20
765.477
 10
331.281
 20
765.51
 10
331.247
 20
765.32
 10
331.09
 20
765.32
 10
331.169
 20
765.622
 97
0
 92
2
 72
0
 73
1
 93
7
 10
324.249
 20
765.589
 10
324.44
 20
765.622
 10
324.552
 20
765.51
 10
324.552
 20
765.174
 10
324.44
 20
765.062
 10
324.182
 20
765.14
 10
324.103
 20
765.286
 97
0
 92
2
 72
0
 73
1
 93
129
 10
333.86
 20
765.51
 10
333.557
 20
765.364
 10
333.299
 20
764.837
 10
333.299
 20
764.613
 10
332.851
 20
763.492
 10
332.963
 20
763.155
 10
332.884
 20
763.077
 10
332.772
 20
763.234
 10
332.626
 20
762.931
 10
331.841
 20
760.688
 10
331.841
 20
760.015
 10
332.032
 20
759.645
 10
333.445
 20
758.142
 10
334.611
 20
756.617
 10
334.724
 20
756.572
 10
334.948
 20
756.841
 10
334.903
 20
756.572
 10
335.206
 20
756.538
 10
335.284
 20
756.572
 10
335.206
 20
756.875
 10
334.982
 20
757.099
 10
335.464
 20
758.075
 10
335.654
 20
757.996
 10
335.767
 20
758.108
 10
335.542
 20
758.333
 10
335.957
 20
758.591
 10
335.767
 20
758.781
 10
335.8
 20
758.972
 10
336.103
 20
758.893
 10
336.215
 20
759.006
 10
335.912
 20
759.196
 10
336.967
 20
761.507
 10
337.225
 20
761.697
 10
337.785
 20
761.697
 10
338.2
 20
760.766
 10
338.458
 20
760.8
 10
338.873
 20
760.609
 10
338.604
 20
760.834
 10
338.604
 20
761.103
 10
338.873
 20
761.058
 10
338.873
 20
761.215
 10
338.57
 20
761.361
 10
338.234
 20
761.024
 10
338.155
 20
761.327
 10
338.268
 20
761.551
 10
338.683
 20
761.585
 10
338.873
 20
761.394
 10
339.131
 20
761.585
 10
339.21
 20
761.507
 10
339.053
 20
761.327
 10
339.097
 20
761.215
 10
339.322
 20
761.215
 10
339.434
 20
760.991
 10
339.658
 20
760.879
 10
339.355
 20
760.576
 10
339.434
 20
760.43
 10
339.77
 20
760.318
 10
339.692
 20
760.127
 10
339.883
 20
759.712
 10
339.692
 20
759.566
 10
339.804
 20
759.342
 10
339.726
 20
759.196
 10
339.389
 20
758.927
 10
339.434
 20
759.308
 10
339.21
 20
759.264
 10
339.165
 20
758.972
 10
338.985
 20
758.703
 10
338.828
 20
758.703
 10
339.019
 20
759.118
 10
338.94
 20
759.196
 10
338.716
 20
759.039
 10
338.649
 20
759.196
 10
338.458
 20
759.23
 10
338.458
 20
759.566
 10
338.683
 20
760.127
 10
338.492
 20
760.206
 10
338.155
 20
759.376
 10
338.346
 20
759.118
 10
338.312
 20
758.86
 10
338.537
 20
758.748
 10
338.604
 20
758.479
 10
338.873
 20
758.299
 10
338.649
 20
757.806
 10
338.57
 20
757.884
 10
338.761
 20
758.299
 10
338.492
 20
758.142
 10
338.458
 20
758.333
 10
338.312
 20
758.254
 10
338.312
 20
758.03
 10
338.155
 20
758.075
 10
338.088
 20
757.918
 10
338.01
 20
757.996
 10
338.268
 20
758.523
 10
338.425
 20
758.591
 10
338.346
 20
758.669
 10
338.043
 20
758.523
 10
337.931
 20
758.187
 10
337.785
 20
758.108
 10
337.561
 20
758.221
 10
337.37
 20
757.963
 10
337.449
 20
757.884
 10
337.864
 20
757.963
 10
337.595
 20
757.357
 10
337.976
 20
757.245
 10
337.752
 20
757.021
 10
337.595
 20
757.245
 10
337.415
 20
757.245
 10
337.258
 20
756.953
 10
337.303
 20
756.796
 10
337.034
 20
756.908
 10
336.888
 20
757.211
 10
336.742
 20
757.133
 10
336.697
 20
756.841
 10
336.361
 20
756.684
 10
337.785
 20
756.65
 10
338.01
 20
756.763
 10
339.355
 20
756.763
 10
339.838
 20
756.953
 10
340.477
 20
758.221
 10
341.823
 20
761.473
 10
341.901
 20
761.776
 10
341.52
 20
762.404
 10
339.883
 20
764.019
 10
339.726
 20
764.31
 10
339.165
 20
764.871
 10
338.57
 20
765.286
 10
338.122
 20
765.398
 10
335.318
 20
765.398
 10
335.094
 20
765.51
 97
0
 92
2
 72
0
 73
1
 93
5
 10
339.389
 20
761.551
 10
339.692
 20
761.585
 10
339.804
 20
761.473
 10
339.726
 20
761.327
 10
339.468
 20
761.249
 97
0
 92
2
 72
0
 73
1
 93
5
 10
331.135
 20
760.879
 10
330.641
 20
760.654
 10
330.641
 20
760.497
 10
330.944
 20
760.576
 10
331.135
 20
760.497
 97
0
 92
2
 72
0
 73
1
 93
17
 10
337.191
 20
760.879
 10
337.0
 20
760.688
 10
337.079
 20
760.497
 10
336.922
 20
760.161
 10
337.146
 20
760.206
 10
337.303
 20
760.609
 10
337.415
 20
760.654
 10
337.415
 20
759.981
 10
337.64
 20
759.981
 10
338.2
 20
759.712
 10
338.155
 20
759.936
 10
337.707
 20
760.049
 10
337.561
 20
760.351
 10
337.752
 20
760.609
 10
337.707
 20
760.721
 10
337.527
 20
760.879
 10
337.258
 20
760.721
 97
0
 92
2
 72
0
 73
1
 93
6
 10
337.976
 20
760.766
 10
337.897
 20
760.688
 10
338.088
 20
760.318
 10
338.268
 20
760.318
 10
338.312
 20
760.542
 10
338.043
 20
760.609
 97
0
 92
2
 72
0
 73
1
 93
4
 10
331.023
 20
760.43
 10
330.641
 20
760.206
 10
330.832
 20
759.903
 10
331.056
 20
760.127
 97
0
 92
2
 72
0
 73
1
 93
9
 10
339.322
 20
760.318
 10
339.21
 20
759.936
 10
339.019
 20
759.791
 10
339.053
 20
759.712
 10
339.355
 20
759.791
 10
339.546
 20
759.6
 10
339.658
 20
759.869
 10
339.468
 20
760.015
 10
339.546
 20
760.206
 97
0
 92
2
 72
0
 73
1
 93
5
 10
336.63
 20
759.645
 10
336.585
 20
759.376
 10
336.742
 20
759.421
 10
337.079
 20
759.264
 10
337.079
 20
759.421
 97
0
 92
2
 72
0
 73
1
 93
6
 10
337.0
 20
757.996
 10
336.854
 20
757.918
 10
336.854
 20
757.738
 10
337.303
 20
757.469
 10
337.303
 20
757.738
 10
337.146
 20
757.693
 97
0
 75
0
 76
1
 98
0
  0
LWPOLYLINE
  5
10A
330
17
100
AcDbEntity
  8
CUT
100
AcDbPolyline
 90
18
 70
1
 10
353.55
 20
774.081
 10
357.978
 20
774.138
 10
363.375
 20
772.377
 10
364.054
 20
771.27
 10
364.69
 20
768.069
 10
368.047
 20
767.671
 10
371.177
 20
764.519
 10
371.587
 20
763.288
 10
371.496
 20
759.401
 10
369.323
 20
754.483
 10
364.952
 20
753.933
 10
360.008
 20
753.99
 10
357.085
 20
756.914
 10
354.678
 20
757.28
 10
349.574
 20
759.467
 10
348.152
 20
765.326
 10
348.175
 20
769.739
 10
348.977
 20
770.825
  0
HATCH
  5
10B
330
17
100
AcDbEntity
  8
RASTER
 62
7
100
AcDbHatch
 10
0.0
 20
0.0
 30
0.0
210
0.0
220
0.0
230
1.0
  2
SOLID
 70
1
 71
0
 91
14
 92
3
 72
0
 73
1
 93
39
 10
355.669
 20
772.318
 10
355.86
 20
772.351
 10
357.43
 20
771.903
 10
361.131
 20
770.669
 10
361.726
 20
770.366
 10
362.14
 20
769.548
 10
362.668
 20
766.037
 10
365.729
 20
765.959
 10
366.211
 20
765.768
 10
367.109
 20
764.983
 10
367.49
 20
764.467
 10
369.127
 20
762.852
 10
369.464
 20
762.404
 10
369.654
 20
762.034
 10
369.654
 20
761.361
 10
367.445
 20
756.28
 10
366.626
 20
756.09
 10
363.935
 20
755.978
 10
363.711
 20
755.865
 10
361.692
 20
755.865
 10
360.873
 20
756.617
 10
360.716
 20
756.908
 10
360.2
 20
757.402
 10
360.043
 20
757.693
 10
358.585
 20
759.376
 10
358.406
 20
759.376
 10
358.249
 20
759.196
 10
357.654
 20
758.893
 10
356.982
 20
759.006
 10
352.271
 20
760.8
 10
351.677
 20
761.103
 10
351.453
 20
761.327
 10
351.15
 20
762.146
 10
350.477
 20
765.51
 10
350.14
 20
766.632
 10
350.028
 20
767.865
 10
350.331
 20
768.46
 10
350.668
 20
768.796
 10
354.705
 20
771.824
 97
0
 92
2
 72
0
 73
1
 93
115
 10
355.636
 20
771.679
 10
351.004
 20
768.236
 10
350.701
 20
767.753
 10
350.701
 20
767.529
 10
350.959
 20
766.329
 10
351.228
 20
766.486
 10
351.486
 20
766.071
 10
351.374
 20
765.959
 10
351.071
 20
766.037
 10
351.038
 20
765.735
 10
351.34
 20
764.579
 10
351.565
 20
764.579
 10
351.823
 20
764.389
 10
351.677
 20
764.198
 10
351.453
 20
764.355
 10
351.374
 20
764.277
 10
352.013
 20
761.776
 10
352.271
 20
761.585
 10
353.651
 20
761.058
 10
353.651
 20
761.17
 10
353.426
 20
761.282
 10
353.583
 20
761.507
 10
353.539
 20
761.664
 10
354.066
 20
761.473
 10
354.099
 20
761.619
 10
353.875
 20
761.619
 10
354.066
 20
761.809
 10
354.256
 20
761.776
 10
354.324
 20
761.507
 10
354.481
 20
761.664
 10
354.548
 20
761.507
 10
354.739
 20
761.585
 10
355.075
 20
761.361
 10
355.266
 20
761.439
 10
355.445
 20
761.282
 10
355.602
 20
761.327
 10
355.411
 20
760.912
 10
355.49
 20
760.766
 10
355.602
 20
760.721
 10
355.826
 20
760.879
 10
355.894
 20
760.721
 10
356.084
 20
760.8
 10
356.342
 20
760.609
 10
356.342
 20
760.766
 10
356.499
 20
760.766
 10
356.611
 20
760.273
 10
356.23
 20
760.318
 10
356.387
 20
760.206
 10
356.23
 20
760.049
 10
357.43
 20
759.679
 10
357.621
 20
760.049
 10
357.542
 20
761.024
 10
357.43
 20
761.249
 10
357.43
 20
761.697
 10
357.542
 20
761.921
 10
357.318
 20
762.034
 10
357.206
 20
763.043
 10
357.284
 20
763.121
 10
357.397
 20
762.852
 10
357.767
 20
763.267
 10
357.912
 20
763.077
 10
358.069
 20
763.077
 10
358.069
 20
763.234
 10
357.912
 20
763.346
 10
358.215
 20
763.716
 10
358.025
 20
763.794
 10
357.733
 20
763.637
 10
357.733
 20
763.413
 10
357.542
 20
763.492
 10
357.509
 20
763.301
 10
357.318
 20
763.267
 10
357.284
 20
763.458
 10
357.094
 20
763.492
 10
357.127
 20
763.907
 10
357.43
 20
764.164
 10
357.733
 20
764.086
 10
357.767
 20
764.277
 10
357.654
 20
764.501
 10
357.8
 20
764.692
 10
358.025
 20
764.692
 10
358.069
 20
764.804
 10
357.912
 20
764.759
 10
357.879
 20
764.95
 10
358.103
 20
765.286
 10
358.361
 20
765.095
 10
358.552
 20
764.725
 10
358.697
 20
765.028
 10
358.922
 20
765.14
 10
359.191
 20
765.028
 10
359.303
 20
764.759
 10
359.112
 20
764.613
 10
359.527
 20
764.198
 10
360.088
 20
765.544
 10
360.425
 20
765.88
 10
360.795
 20
766.071
 10
361.883
 20
766.105
 10
361.804
 20
767.193
 10
361.726
 20
767.338
 10
361.468
 20
767.417
 10
361.692
 20
767.641
 10
361.692
 20
767.865
 10
361.613
 20
767.944
 10
361.389
 20
767.787
 10
360.94
 20
768.011
 10
361.131
 20
768.314
 10
360.94
 20
768.729
 10
361.165
 20
768.684
 10
361.434
 20
768.393
 10
361.546
 20
768.011
 10
361.58
 20
768.763
 10
361.468
 20
768.987
 10
361.468
 20
769.436
 10
361.277
 20
769.806
 10
360.795
 20
770.108
 10
356.309
 20
771.566
 97
0
 92
2
 72
0
 73
1
 93
8
 10
360.716
 20
768.841
 10
360.795
 20
768.426
 10
360.649
 20
768.123
 10
360.57
 20
768.202
 10
360.649
 20
768.393
 10
360.458
 20
768.538
 10
360.155
 20
768.348
 10
360.312
 20
768.572
 97
0
 92
2
 72
0
 73
1
 93
10
 10
358.137
 20
765.813
 10
358.742
 20
765.589
 10
358.776
 20
765.398
 10
358.518
 20
765.095
 10
358.44
 20
765.174
 10
358.63
 20
765.477
 10
358.44
 20
765.51
 10
358.406
 20
765.32
 10
358.249
 20
765.32
 10
358.327
 20
765.622
 97
0
 92
2
 72
0
 73
1
 93
7
 10
351.408
 20
765.589
 10
351.598
 20
765.622
 10
351.711
 20
765.51
 10
351.711
 20
765.174
 10
351.598
 20
765.062
 10
351.34
 20
765.14
 10
351.262
 20
765.286
 97
0
 92
2
 72
0
 73
1
 93
129
 10
361.019
 20
765.51
 10
360.716
 20
765.364
 10
360.458
 20
764.837
 10
360.458
 20
764.613
 10
360.01
 20
763.492
 10
360.122
 20
763.155
 10
360.043
 20
763.077
 10
359.931
 20
763.234
 10
359.785
 20
762.931
 10
359.0
 20
760.688
 10
359.0
 20
760.015
 10
359.191
 20
759.645
 10
360.604
 20
758.142
 10
361.77
 20
756.617
 10
361.883
 20
756.572
 10
362.107
 20
756.841
 10
362.062
 20
756.572
 10
362.365
 20
756.538
 10
362.443
 20
756.572
 10
362.365
 20
756.875
 10
362.14
 20
757.099
 10
362.623
 20
758.075
 10
362.813
 20
757.996
 10
362.926
 20
758.108
 10
362.701
 20
758.333
 10
363.116
 20
758.591
 10
362.926
 20
758.781
 10
362.959
 20
758.972
 10
363.262
 20
758.893
 10
363.374
 20
759.006
 10
363.071
 20
759.196
 10
364.126
 20
761.507
 10
364.383
 20
761.697
 10
364.944
 20
761.697
 10
365.359
 20
760.766
 10
365.617
 20
760.8
 10
366.032
 20
760.609
 10
365.763
 20
760.834
 10
365.763
 20
761.103
 10
366.032
 20
761.058
 10
366.032
 20
761.215
 10
365.729
 20
761.361
 10
365.393
 20
761.024
 10
365.314
 20
761.327
 10
365.426
 20
761.551
 10
365.841
 20
761.585
 10
366.032
 20
761.394
 10
366.29
 20
761.585
 10
366.369
 20
761.507
 10
366.211
 20
761.327
 10
366.256
 20
761.215
 10
366.481
 20
761.215
 10
366.593
 20
760.991
 10
366.817
 20
760.879
 10
366.514
 20
760.576
 10
366.593
 20
760.43
 10
366.929
 20
760.318
 10
366.851
 20
760.127
 10
367.041
 20
759.712
 10
366.851
 20
759.566
 10
366.963
 20
759.342
 10
366.884
 20
759.196
 10
366.548
 20
758.927
 10
366.593
 20
759.308
 10
366.369
 20
759.264
 10
366.324
 20
758.972
 10
366.144
 20
758.703
 10
365.987
 20
758.703
 10
366.178
 20
759.118
 10
366.099
 20
759.196
 10
365.875
 20
759.039
 10
365.808
 20
759.196
 10
365.617
 20
759.23
 10
365.617
 20
759.566
 10
365.841
 20
760.127
 10
365.651
 20
760.206
 10
365.314
 20
759.376
 10
365.505
 20
759.118
 10
365.471
 20
758.86
 10
365.696
 20
758.748
 10
365.763
 20
758.479
 10
366.032
 20
758.299
 10
365.808
 20
757.806
 10
365.729
 20
757.884
 10
365.92
 20
758.299
 10
365.651
 20
758.142
 10
365.617
 20
758.333
 10
365.471
 20
758.254
 10
365.471
 20
758.03
 10
365.314
 20
758.075
 10
365.247
 20
757.918
 10
365.169
 20
757.996
 10
365.426
 20
758.523
 10
365.583
 20
758.591
 10
365.505
 20
758.669
 10
365.202
 20
758.523
 10
365.09
 20
758.187
 10
364.944
 20
758.108
 10
364.72
 20
758.221
 10
364.529
 20
757.963
 10
364.608
 20
757.884
 10
365.023
 20
757.963
 10
364.754
 20
757.357
 10
365.135
 20
757.245
 10
364.911
 20
757.021
 10
364.754
 20
757.245
 10
364.574
 20
757.245
 10
364.417
 20
756.953
 10
364.462
 20
756.796
 10
364.193
 20
756.908
 10
364.047
 20
757.211
 10
363.901
 20
757.133
 10
363.856
 20
756.841
 10
363.52
 20
756.684
 10
364.944
 20
756.65
 10
365.169
 20
756.763
 10
366.514
 20
756.763
 10
366.997
 20
756.953
 10
367.636
 20
758.221
 10
368.982
 20
761.473
 10
369.06
 20
761.776
 10
368.679
 20
762.404
 10
367.041
 20
764.019
 10
366.884
 20
764.31
 10
366.324
 20
764.871
 10
365.729
 20
765.286
 10
365.281
 20
765.398
 10
362.477
 20
765.398
 10
362.253
 20
765.51
 97
0
 92
2
 72
0
 73
1
 93
5
 10
366.548
 20
761.551
 10
366.851
 20
761.585
 10
366.963
 20
761.473
 10
366.884
 20
761.327
 10
366.626
 20
761.249
 97
0
 92
2
 72
0
 73
1
 93
5
 10
358.294
 20
760.879
 10
357.8
 20
760.654
 10
357.8
 20
760.497
 10
358.103
 20
760.576
 10
358.294
 20
760.497
 97
0
 92
2
 72
0
 73
1
 93
17
 10
364.35
 20
760.879
 10
364.159
 20
760.688
 10
364.238
 20
760.497
 10
364.081
 20
760.161
 10
364.305
 20
760.206
 10
364.462
 20
760.609
 10
364.574
 20
760.654
 10
364.574
 20
759.981
 10
364.798
 20
759.981
 10
365.359
 20
759.712
 10
365.314
 20
759.936
 10
364.866
 20
760.049
 10
364.72
 20
760.351
 10
364.911
 20
760.609
 10
364.866
 20
760.721
 10
364.686
 20
760.879
 10
364.417
 20
760.721
 97
0
 92
2
 72
0
 73
1
 93
6
 10
365.135
 20
760.766
 10
365.056
 20
760.688
 10
365.247
 20
760.318
 10
365.426
 20
760.318
 10
365.471
 20
760.542
 10
365.202
 20
760.609
 97
0
 92
2
 72
0
 73
1
 93
4
 10
358.182
 20
760.43
 10
357.8
 20
760.206
 10
357.991
 20
759.903
 10
358.215
 20
760.127
 97
0
 92
2
 72
0
 73
1
 93
9
 10
366.481
 20
760.318
 10
366.369
 20
759.936
 10
366.178
 20
759.791
 10
366.211
 20
759.712
 10
366.514
 20
759.791
 10
366.705
 20
759.6
 10
366.817
 20
759.869
 10
366.626
 20
760.015
 10
366.705
 20
760.206
 97
0
 92
2
 72
0
 73
1
 93
5
 10
363.789
 20
759.645
 10
363.744
 20
759.376
 10
363.901
 20
759.421
 10
364.238
 20
759.264
 10
364.238
 20
759.421
 97
0
 92
2
 72
0
 73
1
 93
6
 10
364.159
 20
757.996
 10
364.013
 20
757.918
 10
364.013
 20
757.738
 10
364.462
 20
757.469
 10
364.462
 20
757.738
 10
364.305
 20
757.693
 97
0
 75
0
 76
1
 98
0
  0
ENDSEC
  0
SECTION
  2
OBJECTS
  0
DICTIONARY
  5
A
330
0
100
AcDbDictionary
281
1
  3
ACAD_COLOR
350
B
  3
ACAD_GROUP
350
C
  3
ACAD_LAYOUT
350
D
  3
ACAD_MATERIAL
350
E
  3
ACAD_MLEADERSTYLE
350
F
  3
ACAD_MLINESTYLE
350
10
  3
ACAD_PLOTSETTINGS
350
11
  3
ACAD_PLOTSTYLENAME
350
12
  3
ACAD_SCALELIST
350
14
  3
ACAD_TABLESTYLE
350
15
  3
ACAD_VISUALSTYLE
350
16
  3
EZDXF_META
350
2D
  0
DICTIONARY
  5
B
330
A
100
AcDbDictionary
281
1
  0
DICTIONARY
  5
C
330
A
100
AcDbDictionary
281
1
  0
DICTIONARY
  5
D
330
A
100
AcDbDictionary
281
1
  3
Model
350
1A
  3
Layout1
350
1E
  0
DICTIONARY
  5
E
330
A
100
AcDbDictionary
281
1
  3
ByBlock
350
1F
  3
ByLayer
350
20
  3
Global
350
21
  0
DICTIONARY
  5
F
330
A
100
AcDbDictionary
281
1
  3
Standard
350
2C
  0
DICTIONARY
  5
10
330
A
100
AcDbDictionary
281
1
  3
Standard
350
22
  0
DICTIONARY
  5
11
330
A
100
AcDbDictionary
281
1
  0
ACDBDICTIONARYWDFLT
  5
12
330
A
100
AcDbDictionary
281
1
  3
Normal
350
13
100
AcDbDictionaryWithDefault
340
13
  0
ACDBPLACEHOLDER
  5
13
330
12
  0
DICTIONARY
  5
14
330
A
100
AcDbDictionary
281
1
  0
DICTIONARY
  5
15
330
A
100
AcDbDictionary
281
1
  0
DICTIONARY
  5
16
330
A
100
AcDbDictionary
281
1
  0
LAYOUT
  5
1A
330
D
100
AcDbPlotSettings
  1

  4
A3
  6

 40
7.5
 41
20.0
 42
7.5
 43
20.0
 44
420.0
 45
297.0
 46
0.0
 47
0.0
 48
0.0
 49
0.0
140
0.0
141
0.0
142
1.0
143
1.0
 70
1024
 72
1
 73
0
 74
5
  7

 75
16
 76
0
 77
2
 78
300
147
1.0
148
0.0
149
0.0
100
AcDbLayout
  1
Model
 70
1
 71
0
 10
0.0
 20
0.0
 11
420.0
 21
297.0
 12
0.0
 22
0.0
 32
0.0
 14
1e+20
 24
1e+20
 34
1e+20
 15
-1e+20
 25
-1e+20
 35
-1e+20
146
0.0
 13
0.0
 23
0.0
 33
0.0
 16
1.0
 26
0.0
 36
0.0
 17
0.0
 27
1.0
 37
0.0
 76
1
330
17
  0
LAYOUT
  5
1E
330
D
100
AcDbPlotSettings
  1

  4
A3
  6

 40
7.5
 41
20.0
 42
7.5
 43
20.0
 44
420.0
 45
297.0
 46
0.0
 47
0.0
 48
0.0
 49
0.0
140
0.0
141
0.0
142
1.0
143
1.0
 70
0
 72
1
 73
0
 74
5
  7

 75
16
 76
0
 77
2
 78
300
147
1.0
148
0.0
149
0.0
100
AcDbLayout
  1
Layout1
 70
1
 71
1
 10
0.0
 20
0.0
 11
420.0
 21
297.0
 12
0.0
 22
0.0
 32
0.0
 14
1e+20
 24
1e+20
 34
1e+20
 15
-1e+20
 25
-1e+20
 35
-1e+20
146
0.0
 13
0.0
 23
0.0
 33
0.0
 16
1.0
 26
0.0
 36
0.0
 17
0.0
 27
1.0
 37
0.0
 76
1
330
1B
  0
MATERIAL
  5
1F
102
{ACAD_REACTORS
330
E
102
}
330
E
100
AcDbMaterial
  1
ByBlock
  2

 70
0
 40
1.0
 71
1
 41
1.0
 91
-1023410177
 42
1.0
 72
1
  3

 73
1
 74
1
 75
1
 44
0.5
 73
0
 45
1.0
 46
1.0
 77
1
  4

 78
1
 79
1
170
1
 48
1.0
171
1
  6

172
1
173
1
174
1
140
1.0
141
1.0
175
1
  7

176
1
177
1
178
1
143
1.0
179
1
  8

270
1
271
1
272
1
145
1.0
146
1.0
273
1
  9

274
1
275
1
276
1
 42
1.0
 72
1
  3

 73
1
 74
1
 75
1
 94
63
  0
MATERIAL
  5
20
102
{ACAD_REACTORS
330
E
102
}
330
E
100
AcDbMaterial
  1
ByLayer
  2

 70
0
 40
1.0
 71
1
 41
1.0
 91
-1023410177
 42
1.0
 72
1
  3

 73
1
 74
1
 75
1
 44
0.5
 73
0
 45
1.0
 46
1.0
 77
1
  4

 78
1
 79
1
170
1
 48
1.0
171
1
  6

172
1
173
1
174
1
140
1.0
141
1.0
175
1
  7

176
1
177
1
178
1
143
1.0
179
1
  8

270
1
271
1
272
1
145
1.0
146
1.0
273
1
  9

274
1
275
1
276
1
 42
1.0
 72
1
  3

 73
1
 74
1
 75
1
 94
63
  0
MATERIAL
  5
21
102
{ACAD_REACTORS
330
E
102
}
330
E
100
AcDbMaterial
  1
Global
  2

 70
0
 40
1.0
 71
1
 41
1.0
 91
-1023410177
 42
1.0
 72
1
  3

 73
1
 74
1
 75
1
 44
0.5
 73
0
 45
1.0
 46
1.0
 77
1
  4

 78
1
 79
1
170
1
 48
1.0
171
1
  6

172
1
173
1
174
1
140
1.0
141
1.0
175
1
  7

176
1
177
1
178
1
143
1.0
179
1
  8

270
1
271
1
272
1
145
1.0
146
1.0
273
1
  9

274
1
275
1
276
1
 42
1.0
 72
1
  3

 73
1
 74
1
 75
1
 94
63
  0
MLINESTYLE
  5
22
102
{ACAD_REACTORS
330
10
102
}
330
10
100
AcDbMlineStyle
  2
Standard
 70
0
  3

 62
256
 51
90.0
 52
90.0
 71
2
 49
0.5
 62
256
  6
BYLAYER
 49
-0.5
 62
256
  6
BYLAYER
  0
MLEADERSTYLE
  5
2C
102
{ACAD_REACTORS
330
F
102
}
330
F
100
AcDbMLeaderStyle
179
2
170
2
171
1
172
0
 90
2
 40
0.0
 41
0.0
173
1
 91
-1056964608
 92
-2
290
1
 42
2.0
291
1
 43
8.0
  3
Standard
 44
4.0
300

342
29
174
1
175
1
176
0
178
1
 93
-1056964608
 45
4.0
292
0
297
0
 46
4.0
 94
-1056964608
 47
1.0
 49
1.0
140
1.0
294
1
141
0.0
177
0
142
1.0
295
0
296
0
143
3.75
271
0
272
9
273
9
  0
DICTIONARY
  5
2D
330
A
100
AcDbDictionary
280
1
281
1
  3
CREATED_BY_EZDXF
350
2E
  3
WRITTEN_BY_EZDXF
350
10E
  0
DICTIONARYVAR
  5
2E
330
2D
100
DictionaryVariables
280
0
  1
1.4.2 @ 2026-09-10T21:02:47.786033+00:00
  0
DICTIONARYVAR
  5
10E
330
2D
100
DictionaryVariables
280
0
  1
1.4.2 @ 2026-09-10T21:02:47.828374+00:00
  0
ENDSEC
  0
EOF
