<svg xmlns="http://www.w3.org/2000/svg" xmlns:inkscape="http://www.inkscape.org/namespaces/inkscape" width="600mm" height="400mm" viewBox="0 0 600 400">
<title>Pastry Pirates — V3 · The Round Table — Cutting sheet 2 of 4 — 6 mm</title>
<desc>600 × 400 mm bed, 6 mm material. Every red line is already pushed 0.09 mm away from the wood that stays (kerf 0.18 mm), so cut exactly on the line. 5 parts. Units: mm. 25 mm squares, 6 mm material. KERF-COMPENSATED: cut lines offset 0.09 mm outward (kerf 0.18 mm). RASTER = black fill (engrave), CUT = red hairline (cut). Generated by physical-board/generate.mjs.</desc>
<g id="RASTER" class="layer-raster" inkscape:label="RASTER" inkscape:groupmode="layer" fill="#000000" fill-rule="nonzero" stroke="none">
<g class="piece" data-piece="trade-winds">
<path d="M27.915 163.704C27.478 163.947 27.328 163.828 27.465 163.347L28.221 160.703C28.358 160.223 28.645 159.861 29.082 159.618L36.116 155.71C36.553 155.468 36.893 155.565 37.135 156.002L41.043 163.035C41.286 163.472 41.338 163.931 41.201 164.412L40.446 167.056C40.308 167.537 40.118 167.559 39.875 167.122L35.968 160.088C35.725 159.651 35.385 159.554 34.948 159.797Z"/>
<path d="M28.4 189.675C28 189.975 27.836 189.877 27.906 189.382L28.295 186.66C28.366 186.165 28.601 185.767 29.001 185.467L35.438 180.64C35.838 180.34 36.188 180.39 36.488 180.79L41.316 187.227C41.616 187.627 41.73 188.074 41.66 188.569L41.271 191.291C41.2 191.786 41.015 191.834 40.715 191.434L35.887 184.997C35.587 184.597 35.237 184.547 34.837 184.847Z"/>
<path d="M52.328 111.32C51.838 111.418 51.732 111.259 52.009 110.843L53.534 108.554C53.812 108.138 54.196 107.881 54.686 107.783L62.576 106.205C63.066 106.107 63.36 106.303 63.458 106.794L65.036 114.683C65.134 115.174 65.045 115.627 64.767 116.043L63.242 118.331C62.964 118.747 62.777 118.71 62.679 118.22L61.101 110.33C61.003 109.84 60.708 109.644 60.218 109.742Z"/>
<path d="M52.475 137.298C52 137.456 51.875 137.312 52.099 136.864L53.328 134.405C53.552 133.958 53.901 133.655 54.375 133.497L62.008 130.952C62.483 130.794 62.799 130.952 62.957 131.427L65.501 139.06C65.66 139.534 65.627 139.995 65.403 140.442L64.173 142.902C63.95 143.349 63.759 143.335 63.601 142.861L61.056 135.228C60.898 134.754 60.582 134.596 60.108 134.754Z"/>
<path d="M77.348 84.751C76.848 84.751 76.775 84.574 77.129 84.22L79.073 82.276C79.427 81.922 79.853 81.746 80.353 81.746L88.399 81.746C88.899 81.746 89.149 81.996 89.149 82.496L89.149 90.541C89.149 91.041 88.973 91.468 88.619 91.822L86.674 93.766C86.321 94.12 86.144 94.047 86.144 93.547L86.144 85.501C86.144 85.001 85.894 84.751 85.394 84.751Z"/>
<path d="M102.675 58.216C102.185 58.118 102.148 57.93 102.564 57.653L104.852 56.128C105.268 55.85 105.721 55.761 106.211 55.859L114.101 57.437C114.591 57.535 114.787 57.829 114.689 58.319L113.111 66.209C113.013 66.699 112.756 67.083 112.34 67.36L110.052 68.886C109.636 69.163 109.477 69.057 109.575 68.566L111.153 60.677C111.251 60.186 111.055 59.892 110.565 59.794Z"/>
<path d="M128.034 57.294C127.559 57.136 127.546 56.945 127.993 56.722L130.453 55.492C130.9 55.268 131.361 55.235 131.835 55.393L139.468 57.938C139.942 58.096 140.101 58.412 139.942 58.886L137.398 66.52C137.24 66.994 136.937 67.343 136.49 67.566L134.03 68.796C133.583 69.02 133.439 68.895 133.597 68.42L136.141 60.787C136.299 60.313 136.141 59.997 135.667 59.838Z"/>
<path d="M153.773 31.02C153.336 30.777 153.358 30.587 153.839 30.449L156.483 29.694C156.964 29.556 157.423 29.609 157.86 29.852L164.893 33.759C165.33 34.002 165.427 34.342 165.184 34.779L161.277 41.813C161.034 42.25 160.672 42.537 160.192 42.674L157.547 43.43C157.067 43.567 156.948 43.417 157.19 42.98L161.098 35.947C161.341 35.51 161.244 35.17 160.807 34.927Z"/>
<path d="M179.461 30.18C179.061 29.88 179.108 29.695 179.603 29.624L182.326 29.235C182.821 29.165 183.268 29.279 183.668 29.579L190.105 34.407C190.505 34.707 190.555 35.057 190.255 35.457L185.427 41.894C185.127 42.294 184.73 42.529 184.235 42.6L181.513 42.989C181.018 43.059 180.92 42.895 181.22 42.495L186.048 36.058C186.348 35.658 186.298 35.308 185.898 35.008Z"/>
<path d="M205.291 29.415C204.937 29.061 205.01 28.885 205.51 28.885L208.26 28.885C208.76 28.885 209.187 29.061 209.541 29.415L215.23 35.104C215.583 35.458 215.583 35.811 215.23 36.165L209.541 41.854C209.187 42.208 208.76 42.385 208.26 42.385L205.51 42.385C205.01 42.385 204.937 42.208 205.291 41.854L210.98 36.165C211.333 35.811 211.333 35.458 210.98 35.104Z"/>
</g>
<g class="piece" data-piece="berths">
<path d="M214.36 179.895C214.634 179.895 214.77 180.031 214.77 180.305L214.77 195.065C214.77 195.338 214.634 195.475 214.36 195.475L206.16 195.475C205.887 195.475 205.75 195.338 205.75 195.065L205.75 180.305C205.75 180.031 205.887 179.895 206.16 179.895ZM214.155 182.539L206.365 182.539L206.365 182.99L214.155 182.99L214.155 182.539ZM214.155 185.409L206.365 185.409L206.365 185.86L214.155 185.86L214.155 185.409ZM214.155 188.279L206.365 188.279L206.365 188.73L214.155 188.73L214.155 188.279ZM214.155 191.149L206.365 191.149L206.365 191.6L214.155 191.6L214.155 191.149ZM214.155 194.019L206.365 194.019L206.365 194.47L214.155 194.47L214.155 194.019ZM213.028 185.635A0.553 0.553 0 1 0 211.921 185.635A0.553 0.553 0 1 0 213.028 185.635ZM212.782 185.635A0.308 0.308 0 1 1 212.167 185.635A0.308 0.308 0 1 1 212.782 185.635ZM211.736 185.389L211.121 185.389L211.121 184.282L210.752 184.282L210.752 185.389L209.03 185.389C208.907 185.02 209.153 184.528 209.645 184.282L209.153 183.667C208.169 183.913 207.431 184.774 207.431 185.635C207.431 186.496 208.169 187.357 209.153 187.603L209.645 186.988C209.153 186.742 208.907 186.25 209.03 185.881L210.752 185.881L210.752 186.988L211.121 186.988L211.121 185.881L211.736 185.881L211.736 185.389Z"/>
<circle cx="215.59" cy="179.895" r="1.025"/>
<circle cx="204.93" cy="179.895" r="1.025"/>
<circle cx="215.59" cy="195.475" r="1.025"/>
<circle cx="204.93" cy="195.475" r="1.025"/>
</g>
<g class="piece" data-piece="ripples">
<path d="M135.046 198.135L135.165 197.397L135.363 196.084L135.555 194.767L135.743 193.446L135.934 192.12L136.134 190.791L136.35 189.461L136.586 188.13L136.849 186.801L137.143 185.476L137.471 184.158L137.838 182.849L138.243 181.55L138.688 180.264L139.172 178.992L139.692 177.734L140.246 176.491L140.832 175.262L141.444 174.047L142.08 172.844L142.735 171.652L143.407 170.469L144.094 169.294L144.792 168.126L145.502 166.963L146.223 165.806L146.957 164.654L147.704 163.508L148.468 162.371L149.251 161.244L150.056 160.131L150.888 159.035L151.75 157.961L152.644 156.913L153.574 155.895L154.541 154.912L155.545 153.967L156.588 153.064L157.667 152.204L158.781 151.388L159.927 150.617L161.101 149.889L162.297 149.202L163.513 148.551L164.741 147.933L165.977 147.342L167.217 146.77L168.456 146.213L169.69 145.664L170.916 145.116L172.132 144.563L173.337 144.002L174.532 143.427L175.717 142.838L176.893 142.232L178.063 141.61L179.23 140.974L180.397 140.327L181.567 139.674L182.745 139.019L183.931 138.369L185.131 137.731L186.345 137.111L187.575 136.516L188.823 135.953L190.088 135.426L191.37 134.94L192.669 134.499L193.982 134.105L195.309 133.758L196.647 133.458L197.994 133.204L199.348 132.992L200.707 132.818L202.069 132.68L203.434 132.573L204.799 132.492L206.165 132.433L207.53 132.394L208.895 132.372L210.26 132.365L211.625 132.372L212.99 132.394L214.356 132.433L215.721 132.492L217.087 132.573L218.451 132.68L219.813 132.818L221.172 132.992L222.526 133.204L222.76 133.248L222.76 198.135ZM222.76 133.594L222.469 133.539L221.125 133.328L219.775 133.156L218.421 133.019L217.063 132.912L215.704 132.831L214.344 132.773L212.983 132.734L211.621 132.712L210.26 132.705L208.899 132.712L207.538 132.734L206.177 132.773L204.816 132.831L203.457 132.912L202.1 133.019L200.746 133.156L199.396 133.328L198.052 133.539L196.716 133.792L195.389 134.089L194.074 134.433L192.772 134.823L191.485 135.26L190.213 135.742L188.958 136.265L187.719 136.824L186.496 137.415L185.288 138.032L184.093 138.668L182.909 139.317L181.733 139.971L180.562 140.625L179.394 141.272L178.224 141.91L177.05 142.533L175.87 143.141L174.681 143.733L173.483 144.309L172.274 144.872L171.055 145.426L169.828 145.974L168.595 146.524L167.358 147.08L166.122 147.649L164.891 148.238L163.669 148.853L162.462 149.499L161.275 150.181L160.112 150.903L158.977 151.667L157.874 152.474L156.805 153.325L155.773 154.22L154.778 155.155L153.821 156.129L152.899 157.138L152.012 158.178L151.156 159.245L150.33 160.333L149.528 161.441L148.749 162.563L147.988 163.696L147.243 164.838L146.511 165.987L145.792 167.142L145.083 168.302L144.386 169.467L143.702 170.639L143.032 171.818L142.379 173.005L141.746 174.203L141.137 175.412L140.555 176.633L140.005 177.868L139.488 179.117L139.008 180.38L138.566 181.656L138.164 182.945L137.8 184.245L137.474 185.554L137.181 186.871L136.92 188.193L136.685 189.518L136.47 190.844L136.271 192.17L136.079 193.494L135.891 194.815L135.7 196.134L135.501 197.449L135.391 198.135L222.76 198.135Z"/>
<path d="M117.116 198.135L117.134 197.565L117.186 195.914L117.248 194.257L117.325 192.594L117.426 190.926L117.557 189.256L117.728 187.586L117.942 185.919L118.208 184.257L118.527 182.605L118.904 180.964L119.341 179.338L119.836 177.729L120.389 176.139L120.998 174.57L121.658 173.022L122.366 171.496L123.116 169.992L123.904 168.507L124.723 167.042L125.57 165.595L126.44 164.163L127.329 162.746L128.235 161.342L129.156 159.949L130.091 158.567L131.041 157.197L132.007 155.838L132.989 154.492L133.992 153.161L135.017 151.846L136.067 150.552L137.145 149.28L138.253 148.034L139.392 146.817L140.563 145.631L141.768 144.479L143.003 143.362L144.27 142.281L145.563 141.235L146.882 140.223L148.221 139.242L149.577 138.29L150.945 137.362L152.322 136.454L153.703 135.56L155.086 134.676L156.466 133.796L157.843 132.916L159.215 132.032L160.582 131.14L161.944 130.238L163.304 129.327L164.663 128.406L166.024 127.478L167.391 126.547L168.768 125.616L170.157 124.692L171.563 123.781L172.989 122.891L174.436 122.03L175.908 121.205L177.405 120.423L178.928 119.691L180.477 119.015L182.051 118.398L183.647 117.844L185.264 117.355L186.899 116.931L188.549 116.569L190.21 116.268L191.88 116.023L193.556 115.83L195.235 115.682L196.915 115.574L198.594 115.5L200.271 115.455L201.945 115.432L203.615 115.429L205.282 115.44L206.946 115.466L208.607 115.503L210.266 115.553L211.923 115.617L213.579 115.696L215.233 115.795L216.886 115.915L218.536 116.063L220.184 116.24L221.827 116.45L222.76 116.591L222.76 198.135ZM222.76 116.935L221.78 116.787L220.144 116.577L218.503 116.401L216.858 116.254L215.21 116.134L213.561 116.036L211.908 115.956L210.254 115.893L208.598 115.843L206.94 115.805L205.278 115.78L203.614 115.769L201.947 115.772L200.278 115.795L198.606 115.84L196.933 115.914L195.261 116.021L193.591 116.168L191.924 116.36L190.265 116.604L188.615 116.903L186.978 117.261L185.356 117.683L183.752 118.168L182.168 118.717L180.607 119.329L179.07 120L177.557 120.727L176.07 121.504L174.606 122.324L173.166 123.182L171.746 124.068L170.344 124.976L168.957 125.898L167.582 126.828L166.216 127.759L164.854 128.688L163.494 129.609L162.133 130.521L160.768 131.424L159.4 132.317L158.027 133.202L156.649 134.083L155.269 134.963L153.887 135.846L152.508 136.739L151.134 137.645L149.77 138.57L148.419 139.519L147.086 140.495L145.774 141.502L144.487 142.543L143.228 143.618L141.999 144.728L140.802 145.874L139.637 147.053L138.504 148.263L137.402 149.503L136.329 150.769L135.283 152.058L134.262 153.368L133.263 154.695L132.282 156.037L131.319 157.392L130.372 158.759L129.439 160.138L128.52 161.527L127.616 162.928L126.729 164.342L125.862 165.769L125.019 167.211L124.202 168.67L123.419 170.147L122.673 171.644L121.969 173.16L121.313 174.698L120.709 176.256L120.159 177.835L119.668 179.432L119.234 181.046L118.86 182.675L118.542 184.316L118.279 185.967L118.065 187.625L117.896 189.287L117.765 190.95L117.664 192.612L117.587 194.271L117.526 195.926L117.473 197.576L117.456 198.135L222.76 198.135Z"/>
<path d="M98.177 198.135L98.168 196.892L98.189 194.904L98.254 192.914L98.371 190.923L98.546 188.935L98.785 186.952L99.093 184.979L99.473 183.018L99.927 181.073L100.454 179.147L101.055 177.242L101.724 175.361L102.459 173.505L103.253 171.674L104.101 169.868L104.996 168.088L105.93 166.331L106.896 164.596L107.889 162.88L108.903 161.182L109.931 159.499L110.972 157.828L112.022 156.168L113.079 154.517L114.143 152.874L115.216 151.239L116.298 149.612L117.393 147.994L118.504 146.386L119.633 144.791L120.785 143.212L121.962 141.651L123.168 140.11L124.404 138.593L125.671 137.103L126.971 135.64L128.303 134.206L129.666 132.803L131.058 131.429L132.477 130.084L133.92 128.765L135.383 127.471L136.864 126.199L138.359 124.945L139.866 123.706L141.381 122.478L142.905 121.258L144.435 120.045L145.972 118.837L147.516 117.632L149.069 116.433L150.633 115.239L152.21 114.055L153.804 112.885L155.418 111.733L157.054 110.605L158.715 109.509L160.405 108.451L162.124 107.438L163.874 106.478L165.656 105.576L167.469 104.737L169.313 103.967L171.184 103.268L173.081 102.641L175 102.087L176.938 101.603L178.892 101.187L180.856 100.833L182.829 100.537L184.805 100.291L186.783 100.089L188.76 99.922L190.733 99.785L192.703 99.669L194.667 99.569L196.626 99.48L198.58 99.397L200.529 99.319L202.476 99.243L204.421 99.17L206.366 99.102L208.311 99.042L210.257 98.992L212.205 98.958L214.155 98.945L216.106 98.957L218.06 98.999L220.014 99.077L221.967 99.194L222.76 99.258L222.76 198.135ZM222.76 99.599L221.943 99.533L219.997 99.417L218.049 99.339L216.102 99.297L214.155 99.285L212.209 99.298L210.264 99.332L208.32 99.382L206.377 99.442L204.434 99.51L202.489 99.583L200.543 99.658L198.594 99.737L196.64 99.82L194.683 99.909L192.721 100.009L190.755 100.124L188.786 100.261L186.815 100.427L184.844 100.629L182.875 100.874L180.912 101.169L178.957 101.52L177.015 101.934L175.088 102.415L173.181 102.966L171.297 103.589L169.438 104.283L167.606 105.049L165.804 105.882L164.033 106.779L162.292 107.734L160.581 108.742L158.899 109.795L157.244 110.887L155.613 112.011L154.004 113.16L152.413 114.328L150.838 115.511L149.276 116.702L147.724 117.901L146.181 119.105L144.646 120.312L143.117 121.524L141.595 122.743L140.081 123.969L138.576 125.206L137.084 126.458L135.607 127.728L134.147 129.018L132.709 130.333L131.295 131.673L129.908 133.042L128.55 134.44L127.223 135.868L125.928 137.326L124.665 138.811L123.434 140.322L122.232 141.858L121.058 143.415L119.91 144.99L118.783 146.581L117.674 148.186L116.581 149.801L115.499 151.427L114.428 153.06L113.364 154.701L112.308 156.351L111.26 158.009L110.221 159.678L109.194 161.358L108.182 163.053L107.192 164.764L106.228 166.494L105.298 168.244L104.407 170.017L103.563 171.814L102.773 173.635L102.042 175.481L101.377 177.35L100.781 179.243L100.256 181.157L99.805 183.089L99.428 185.038L99.122 186.999L98.884 188.97L98.71 190.948L98.594 192.929L98.529 194.912L98.508 196.893L98.517 198.135L222.76 198.135Z"/>
<path d="M79.507 198.135L79.556 196.906L79.711 194.612L79.936 192.323L80.235 190.042L80.611 187.773L81.064 185.517L81.596 183.279L82.204 181.061L82.885 178.864L83.634 176.69L84.446 174.541L85.314 172.416L86.229 170.315L87.185 168.237L88.173 166.179L89.186 164.14L90.216 162.117L91.259 160.107L92.308 158.107L93.362 156.114L94.416 154.127L95.471 152.143L96.528 150.162L97.588 148.182L98.655 146.205L99.732 144.23L100.825 142.261L101.938 140.3L103.075 138.349L104.244 136.413L105.446 134.495L106.687 132.599L107.97 130.727L109.295 128.885L110.665 127.073L112.079 125.294L113.536 123.55L115.035 121.84L116.573 120.165L118.146 118.523L119.753 116.914L121.389 115.334L123.051 113.781L124.737 112.255L126.444 110.751L128.171 109.269L129.916 107.806L131.68 106.364L133.462 104.942L135.264 103.542L137.088 102.166L138.934 100.817L140.806 99.499L142.705 98.218L144.634 96.978L146.593 95.785L148.584 94.645L150.608 93.562L152.664 92.541L154.751 91.586L156.868 90.699L159.013 89.881L161.182 89.132L163.373 88.451L165.581 87.834L167.803 87.278L170.035 86.776L172.273 86.322L174.514 85.909L176.756 85.53L178.996 85.177L181.233 84.843L183.466 84.522L185.694 84.208L187.919 83.896L190.14 83.584L192.36 83.27L194.58 82.955L196.801 82.64L199.026 82.328L201.256 82.025L203.493 81.735L205.736 81.465L207.987 81.221L210.246 81.011L212.512 80.842L214.784 80.72L217.06 80.649L219.34 80.636L221.62 80.683L222.76 80.737L222.76 198.135ZM222.76 81.078L221.609 81.023L219.337 80.976L217.067 80.989L214.798 81.059L212.534 81.181L210.274 81.35L208.021 81.559L205.775 81.802L203.535 82.072L201.301 82.362L199.073 82.665L196.849 82.976L194.628 83.291L192.408 83.607L190.188 83.92L187.966 84.232L185.742 84.544L183.514 84.859L181.283 85.18L179.048 85.513L176.811 85.866L174.573 86.244L172.337 86.656L170.106 87.108L167.881 87.608L165.668 88.163L163.469 88.777L161.288 89.455L159.129 90.2L156.995 91.014L154.888 91.897L152.81 92.848L150.764 93.864L148.749 94.943L146.766 96.078L144.814 97.267L142.892 98.502L140.999 99.779L139.133 101.093L137.29 102.439L135.471 103.812L133.672 105.209L131.893 106.629L130.133 108.068L128.391 109.528L126.667 111.007L124.963 112.508L123.281 114.032L121.623 115.58L119.991 117.156L118.389 118.761L116.821 120.398L115.288 122.067L113.795 123.771L112.343 125.509L110.934 127.281L109.569 129.086L108.248 130.923L106.97 132.788L105.733 134.679L104.533 136.591L103.368 138.523L102.232 140.47L101.121 142.428L100.03 144.394L98.954 146.367L97.888 148.343L96.828 150.322L95.772 152.303L94.716 154.287L93.662 156.274L92.609 158.265L91.56 160.264L90.519 162.273L89.489 164.293L88.478 166.329L87.493 168.382L86.54 170.454L85.627 172.549L84.763 174.666L83.954 176.806L83.208 178.97L82.531 181.156L81.926 183.363L81.396 185.59L80.945 187.834L80.571 190.092L80.274 192.362L80.05 194.64L79.895 196.924L79.848 198.135L222.76 198.135Z"/>
<path d="M63.514 198.135L63.544 197.796L63.844 195.241L64.215 192.696L64.659 190.163L65.173 187.645L65.755 185.143L66.402 182.658L67.108 180.193L67.868 177.746L68.674 175.318L69.519 172.909L70.396 170.516L71.298 168.137L72.219 165.771L73.151 163.416L74.092 161.067L75.037 158.724L75.984 156.383L76.933 154.044L77.885 151.703L78.843 149.362L79.81 147.021L80.79 144.68L81.791 142.342L82.818 140.009L83.877 137.685L84.976 135.373L86.119 133.08L87.314 130.808L88.563 128.564L89.872 126.351L91.241 124.173L92.673 122.035L94.166 119.938L95.721 117.886L97.333 115.879L99.001 113.918L100.719 112.001L102.485 110.128L104.292 108.297L106.137 106.505L108.015 104.75L109.923 103.03L111.856 101.34L113.814 99.681L115.794 98.05L117.795 96.446L119.817 94.87L121.861 93.323L123.927 91.806L126.016 90.321L128.131 88.873L130.273 87.464L132.443 86.099L134.642 84.781L136.871 83.515L139.13 82.302L141.417 81.147L143.732 80.051L146.073 79.013L148.438 78.035L150.824 77.113L153.227 76.245L155.645 75.427L158.074 74.655L160.512 73.921L162.956 73.221L165.402 72.549L167.851 71.897L170.3 71.261L172.75 70.636L175.2 70.019L177.652 69.405L180.106 68.796L182.564 68.19L185.027 67.592L187.498 67.002L189.979 66.428L192.471 65.875L194.974 65.35L197.49 64.862L200.02 64.417L202.562 64.024L205.115 63.69L207.678 63.423L210.25 63.228L212.827 63.11L215.407 63.072L217.988 63.116L220.566 63.241L222.76 63.416L222.76 198.135ZM222.76 63.757L220.544 63.58L217.977 63.456L215.407 63.412L212.837 63.45L210.271 63.568L207.709 63.762L205.155 64.028L202.609 64.36L200.075 64.752L197.552 65.196L195.041 65.684L192.542 66.208L190.054 66.76L187.576 67.333L185.107 67.922L182.644 68.521L180.187 69.126L177.734 69.735L175.283 70.348L172.834 70.966L170.385 71.591L167.937 72.226L165.491 72.877L163.047 73.549L160.608 74.248L158.175 74.979L155.751 75.75L153.339 76.566L150.943 77.431L148.565 78.35L146.207 79.326L143.874 80.36L141.566 81.453L139.287 82.604L137.036 83.812L134.814 85.075L132.621 86.389L130.457 87.75L128.321 89.155L126.211 90.6L124.126 92.081L122.064 93.596L120.024 95.14L118.006 96.713L116.008 98.314L114.032 99.942L112.078 101.598L110.148 103.284L108.245 105.001L106.371 106.752L104.531 108.539L102.729 110.364L100.97 112.231L99.257 114.141L97.595 116.096L95.989 118.095L94.44 120.14L92.952 122.228L91.526 124.358L90.162 126.528L88.858 128.733L87.613 130.97L86.422 133.235L85.281 135.522L84.185 137.828L83.128 140.148L82.103 142.477L81.104 144.813L80.124 147.151L79.157 149.492L78.2 151.832L77.248 154.171L76.299 156.511L75.352 158.851L74.407 161.194L73.467 163.542L72.535 165.896L71.616 168.259L70.715 170.634L69.839 173.023L68.995 175.428L68.191 177.85L67.434 180.29L66.73 182.748L66.085 185.224L65.505 187.718L64.993 190.227L64.551 192.75L64.181 195.286L63.882 197.831L63.855 198.135L222.76 198.135Z"/>
</g>
<g class="piece" data-piece="edge-band">
<path d="M10.237 198.135L11.136 184.419L16.261 158.653L24.706 133.776L36.326 110.213L50.921 88.37L68.243 68.618L87.995 51.296L109.839 36.7L133.401 25.08L158.278 16.636L184.045 11.511L210.26 9.792L222.76 10.612L222.76 198.135ZM222.76 11.312L210.26 10.492L184.136 12.205L158.46 17.312L133.669 25.727L110.189 37.306L88.421 51.851L68.738 69.113L51.477 88.796L36.932 110.563L25.353 134.043L16.938 158.834L11.83 184.511L10.937 198.135L222.76 198.135Z"/>
<path d="M11.537 198.135L12.425 184.589L17.517 158.989L25.907 134.273L37.451 110.863L51.953 89.161L69.162 69.537L88.787 52.327L110.489 37.826L133.899 26.282L158.615 17.892L184.215 12.799L210.26 11.092L222.76 11.912L222.76 198.135ZM222.76 12.412L210.26 11.592L184.28 13.295L158.744 18.374L134.09 26.743L110.739 38.259L89.091 52.724L69.516 69.89L52.349 89.465L37.884 111.113L26.369 134.464L18 159.119L12.921 184.654L12.037 198.135L222.76 198.135Z"/>
</g>
<g class="piece" data-piece="quadrant-NW">
<path d="M22.585 147.96L47.935 147.96L47.935 148.31L22.585 148.31Z"/>
<path d="M22.585 172.96L47.935 172.96L47.935 173.31L22.585 173.31Z"/>
<path d="M47.585 97.96L72.935 97.96L72.935 98.31L47.585 98.31Z"/>
<path d="M47.585 122.96L72.935 122.96L72.935 123.31L47.585 123.31Z"/>
<path d="M47.585 147.96L72.935 147.96L72.935 148.31L47.585 148.31Z"/>
<path d="M47.585 172.96L72.935 172.96L72.935 173.31L47.585 173.31Z"/>
<path d="M72.585 72.96L97.935 72.96L97.935 73.31L72.585 73.31Z"/>
<path d="M72.585 97.96L97.935 97.96L97.935 98.31L72.585 98.31Z"/>
<path d="M72.585 122.96L97.935 122.96L97.935 123.31L72.585 123.31Z"/>
<path d="M72.585 147.96L97.935 147.96L97.935 148.31L72.585 148.31Z"/>
<path d="M72.585 172.96L97.935 172.96L97.935 173.31L72.585 173.31Z"/>
<path d="M97.585 47.96L122.935 47.96L122.935 48.31L97.585 48.31Z"/>
<path d="M97.585 72.96L122.935 72.96L122.935 73.31L97.585 73.31Z"/>
<path d="M97.585 97.96L122.935 97.96L122.935 98.31L97.585 98.31Z"/>
<path d="M97.585 122.96L122.935 122.96L122.935 123.31L97.585 123.31Z"/>
<path d="M97.585 147.96L122.935 147.96L122.935 148.31L97.585 148.31Z"/>
<path d="M97.585 172.96L122.935 172.96L122.935 173.31L97.585 173.31Z"/>
<path d="M106.585 197.96L114.085 197.96L114.085 198.31L106.585 198.31Z"/>
<path d="M122.585 47.96L147.935 47.96L147.935 48.31L122.585 48.31Z"/>
<path d="M122.585 72.96L147.935 72.96L147.935 73.31L122.585 73.31Z"/>
<path d="M122.585 97.96L147.935 97.96L147.935 98.31L122.585 98.31Z"/>
<path d="M122.585 122.96L147.935 122.96L147.935 123.31L122.585 123.31Z"/>
<path d="M122.585 147.96L147.935 147.96L147.935 148.31L122.585 148.31Z"/>
<path d="M122.585 172.96L147.935 172.96L147.935 173.31L122.585 173.31Z"/>
<path d="M147.585 22.96L172.935 22.96L172.935 23.31L147.585 23.31Z"/>
<path d="M147.585 47.96L172.935 47.96L172.935 48.31L147.585 48.31Z"/>
<path d="M147.585 72.96L172.935 72.96L172.935 73.31L147.585 73.31Z"/>
<path d="M147.585 97.96L172.935 97.96L172.935 98.31L147.585 98.31Z"/>
<path d="M147.585 122.96L172.935 122.96L172.935 123.31L147.585 123.31Z"/>
<path d="M147.585 147.96L172.935 147.96L172.935 148.31L147.585 148.31Z"/>
<path d="M147.585 172.96L172.935 172.96L172.935 173.31L147.585 173.31Z"/>
<path d="M172.585 22.96L197.935 22.96L197.935 23.31L172.585 23.31Z"/>
<path d="M172.585 47.96L197.935 47.96L197.935 48.31L172.585 48.31Z"/>
<path d="M172.585 72.96L197.935 72.96L197.935 73.31L172.585 73.31Z"/>
<path d="M172.585 97.96L197.935 97.96L197.935 98.31L172.585 98.31Z"/>
<path d="M172.585 122.96L197.935 122.96L197.935 123.31L172.585 123.31Z"/>
<path d="M172.585 147.96L197.935 147.96L197.935 148.31L172.585 148.31Z"/>
<path d="M172.585 172.96L197.935 172.96L197.935 173.31L172.585 173.31Z"/>
<path d="M197.585 22.96L222.585 22.96L222.585 23.31L197.585 23.31Z"/>
<path d="M197.585 47.96L222.585 47.96L222.585 48.31L197.585 48.31Z"/>
<path d="M197.585 72.96L222.585 72.96L222.585 73.31L197.585 73.31Z"/>
<path d="M197.585 97.96L222.585 97.96L222.585 98.31L197.585 98.31Z"/>
<path d="M197.585 122.96L222.585 122.96L222.585 123.31L197.585 123.31Z"/>
<path d="M197.585 147.96L222.585 147.96L222.585 148.31L197.585 148.31Z"/>
<path d="M197.585 172.96L222.585 172.96L222.585 173.31L197.585 173.31Z"/>
<path d="M198.085 197.96L222.585 197.96L222.585 198.31L198.085 198.31Z"/>
<path d="M22.585 148.31L22.935 148.31L22.935 172.96L22.585 172.96Z"/>
<path d="M47.585 148.31L47.935 148.31L47.935 172.96L47.585 172.96Z"/>
<path d="M22.585 173.31L22.935 173.31L22.935 197.96L22.585 197.96Z"/>
<path d="M47.585 173.31L47.935 173.31L47.935 197.96L47.585 197.96Z"/>
<path d="M47.585 98.31L47.935 98.31L47.935 122.96L47.585 122.96Z"/>
<path d="M72.585 98.31L72.935 98.31L72.935 122.96L72.585 122.96Z"/>
<path d="M47.585 123.31L47.935 123.31L47.935 147.96L47.585 147.96Z"/>
<path d="M72.585 123.31L72.935 123.31L72.935 147.96L72.585 147.96Z"/>
<path d="M72.585 148.31L72.935 148.31L72.935 172.96L72.585 172.96Z"/>
<path d="M72.585 173.31L72.935 173.31L72.935 197.96L72.585 197.96Z"/>
<path d="M72.585 73.31L72.935 73.31L72.935 97.96L72.585 97.96Z"/>
<path d="M97.585 73.31L97.935 73.31L97.935 97.96L97.585 97.96Z"/>
<path d="M97.585 98.31L97.935 98.31L97.935 122.96L97.585 122.96Z"/>
<path d="M97.585 123.31L97.935 123.31L97.935 147.96L97.585 147.96Z"/>
<path d="M97.585 148.31L97.935 148.31L97.935 172.96L97.585 172.96Z"/>
<path d="M97.585 173.31L97.935 173.31L97.935 197.96L97.585 197.96Z"/>
<path d="M97.585 48.31L97.935 48.31L97.935 72.96L97.585 72.96Z"/>
<path d="M122.585 48.31L122.935 48.31L122.935 72.96L122.585 72.96Z"/>
<path d="M122.585 73.31L122.935 73.31L122.935 97.96L122.585 97.96Z"/>
<path d="M122.585 98.31L122.935 98.31L122.935 122.96L122.585 122.96Z"/>
<path d="M122.585 123.31L122.935 123.31L122.935 147.96L122.585 147.96Z"/>
<path d="M122.585 148.31L122.935 148.31L122.935 172.96L122.585 172.96Z"/>
<path d="M122.585 173.31L122.935 173.31L122.935 197.96L122.585 197.96Z"/>
<path d="M147.585 48.31L147.935 48.31L147.935 72.96L147.585 72.96Z"/>
<path d="M147.585 73.31L147.935 73.31L147.935 97.96L147.585 97.96Z"/>
<path d="M147.585 98.31L147.935 98.31L147.935 122.96L147.585 122.96Z"/>
<path d="M147.585 123.31L147.935 123.31L147.935 147.96L147.585 147.96Z"/>
<path d="M147.585 148.31L147.935 148.31L147.935 172.96L147.585 172.96Z"/>
<path d="M147.585 173.31L147.935 173.31L147.935 197.96L147.585 197.96Z"/>
<path d="M147.585 23.31L147.935 23.31L147.935 47.96L147.585 47.96Z"/>
<path d="M172.585 23.31L172.935 23.31L172.935 47.96L172.585 47.96Z"/>
<path d="M172.585 48.31L172.935 48.31L172.935 72.96L172.585 72.96Z"/>
<path d="M172.585 73.31L172.935 73.31L172.935 97.96L172.585 97.96Z"/>
<path d="M172.585 98.31L172.935 98.31L172.935 122.96L172.585 122.96Z"/>
<path d="M172.585 123.31L172.935 123.31L172.935 147.96L172.585 147.96Z"/>
<path d="M172.585 148.31L172.935 148.31L172.935 172.96L172.585 172.96Z"/>
<path d="M172.585 173.31L172.935 173.31L172.935 197.96L172.585 197.96Z"/>
<path d="M197.585 23.31L197.935 23.31L197.935 47.96L197.585 47.96Z"/>
<path d="M197.585 48.31L197.935 48.31L197.935 72.96L197.585 72.96Z"/>
<path d="M197.585 73.31L197.935 73.31L197.935 97.96L197.585 97.96Z"/>
<path d="M197.585 98.31L197.935 98.31L197.935 122.96L197.585 122.96Z"/>
<path d="M197.585 123.31L197.935 123.31L197.935 147.96L197.585 147.96Z"/>
<path d="M197.585 148.31L197.935 148.31L197.935 172.96L197.585 172.96Z"/>
<path d="M197.585 173.31L197.935 173.31L197.935 197.96L197.585 197.96Z"/>
<path d="M222.585 56.81L222.935 56.81L222.935 64.31L222.585 64.31Z"/>
<path d="M222.585 156.81L222.935 156.81L222.935 164.31L222.585 164.31Z"/>
</g>
<g class="piece" data-piece="trade-winds">
<path d="M271.23 188.22C271.583 188.573 271.51 188.75 271.01 188.75L268.26 188.75C267.76 188.75 267.333 188.573 266.98 188.22L261.291 182.53C260.937 182.177 260.937 181.823 261.291 181.47L266.98 175.78C267.333 175.427 267.76 175.25 268.26 175.25L271.01 175.25C271.51 175.25 271.583 175.427 271.23 175.78L265.541 181.47C265.187 181.823 265.187 182.177 265.541 182.53Z"/>
<path d="M297.06 187.454C297.46 187.754 297.412 187.94 296.917 188.01L294.195 188.399C293.7 188.47 293.252 188.355 292.852 188.055L286.416 183.228C286.016 182.928 285.966 182.578 286.266 182.178L291.093 175.741C291.393 175.341 291.791 175.106 292.286 175.035L295.008 174.646C295.503 174.575 295.6 174.74 295.3 175.14L290.473 181.577C290.173 181.977 290.223 182.327 290.623 182.627Z"/>
<path d="M322.747 186.615C323.184 186.858 323.163 187.048 322.682 187.185L320.038 187.941C319.557 188.078 319.098 188.025 318.661 187.783L311.627 183.875C311.19 183.632 311.093 183.292 311.336 182.855L315.244 175.822C315.486 175.385 315.848 175.098 316.329 174.96L318.973 174.205C319.454 174.067 319.573 174.217 319.33 174.654L315.423 181.688C315.18 182.125 315.277 182.465 315.714 182.708Z"/>
<path d="M348.487 160.341C348.961 160.499 348.975 160.69 348.527 160.913L346.068 162.143C345.621 162.367 345.16 162.399 344.685 162.241L337.052 159.697C336.578 159.539 336.42 159.223 336.578 158.748L339.122 151.115C339.281 150.641 339.583 150.292 340.03 150.068L342.49 148.838C342.937 148.615 343.082 148.74 342.924 149.214L340.379 156.848C340.221 157.322 340.379 157.638 340.854 157.796Z"/>
<path d="M373.845 159.418C374.336 159.516 374.373 159.704 373.957 159.982L371.669 161.507C371.253 161.784 370.799 161.874 370.309 161.776L362.419 160.198C361.929 160.1 361.733 159.806 361.831 159.315L363.409 151.426C363.507 150.935 363.764 150.552 364.18 150.274L366.468 148.749C366.884 148.471 367.043 148.578 366.945 149.068L365.367 156.958C365.269 157.448 365.465 157.742 365.956 157.84Z"/>
<path d="M399.172 132.884C399.672 132.884 399.746 133.061 399.392 133.414L397.447 135.359C397.094 135.712 396.667 135.889 396.167 135.889L388.121 135.889C387.621 135.889 387.371 135.639 387.371 135.139L387.371 127.093C387.371 126.593 387.548 126.166 387.901 125.813L389.846 123.868C390.2 123.515 390.376 123.588 390.376 124.088L390.376 132.134C390.376 132.634 390.626 132.884 391.126 132.884Z"/>
<path d="M424.046 80.337C424.52 80.178 424.645 80.323 424.422 80.77L423.192 83.23C422.968 83.677 422.619 83.98 422.145 84.138L414.512 86.682C414.038 86.84 413.722 86.682 413.563 86.208L411.019 78.575C410.861 78.1 410.894 77.64 411.117 77.192L412.347 74.733C412.571 74.286 412.762 74.299 412.92 74.773L415.464 82.407C415.622 82.881 415.938 83.039 416.413 82.881Z"/>
<path d="M424.192 106.315C424.682 106.217 424.789 106.376 424.511 106.792L422.986 109.08C422.709 109.496 422.325 109.753 421.835 109.851L413.945 111.429C413.455 111.527 413.16 111.331 413.062 110.841L411.484 102.951C411.386 102.461 411.476 102.008 411.753 101.592L413.279 99.304C413.556 98.888 413.744 98.925 413.842 99.415L415.42 107.305C415.518 107.795 415.812 107.991 416.302 107.893Z"/>
<path d="M448.12 27.96C448.52 27.66 448.685 27.757 448.614 28.252L448.225 30.975C448.155 31.47 447.919 31.867 447.519 32.167L441.082 36.995C440.682 37.295 440.332 37.245 440.032 36.845L435.205 30.408C434.905 30.008 434.79 29.56 434.861 29.066L435.25 26.343C435.321 25.848 435.506 25.801 435.806 26.201L440.633 32.637C440.933 33.037 441.283 33.087 441.683 32.787Z"/>
<path d="M448.606 53.93C449.043 53.687 449.193 53.806 449.055 54.287L448.3 56.931C448.163 57.412 447.875 57.774 447.438 58.017L440.405 61.924C439.968 62.167 439.628 62.07 439.385 61.633L435.478 54.599C435.235 54.162 435.182 53.703 435.319 53.223L436.075 50.578C436.212 50.098 436.402 50.076 436.645 50.513L440.553 57.546C440.795 57.983 441.135 58.08 441.572 57.838Z"/>
</g>
<g class="piece" data-piece="berths">
<path d="M262.16 37.74C261.887 37.74 261.75 37.603 261.75 37.33L261.75 22.57C261.75 22.297 261.887 22.16 262.16 22.16L270.36 22.16C270.634 22.16 270.77 22.297 270.77 22.57L270.77 37.33C270.77 37.603 270.634 37.74 270.36 37.74ZM262.365 35.095L270.155 35.095L270.155 34.644L262.365 34.644L262.365 35.095ZM262.365 32.226L270.155 32.226L270.155 31.774L262.365 31.774L262.365 32.226ZM262.365 29.356L270.155 29.356L270.155 28.905L262.365 28.905L262.365 29.356ZM262.365 26.486L270.155 26.486L270.155 26.035L262.365 26.035L262.365 26.486ZM262.365 23.615L270.155 23.615L270.155 23.165L262.365 23.165L262.365 23.615ZM264.6 32A0.553 0.553 0 1 0 263.493 32A0.553 0.553 0 1 0 264.6 32ZM264.354 32A0.308 0.308 0 1 1 263.739 32A0.308 0.308 0 1 1 264.354 32ZM264.784 32.246L265.399 32.246L265.399 33.353L265.768 33.353L265.768 32.246L267.49 32.246C267.613 32.615 267.367 33.107 266.875 33.353L267.367 33.968C268.351 33.722 269.089 32.861 269.089 32C269.089 31.139 268.351 30.278 267.367 30.032L266.875 30.647C267.367 30.893 267.613 31.385 267.49 31.754L265.768 31.754L265.768 30.647L265.399 30.647L265.399 31.754L264.784 31.754L264.784 32.246Z"/>
<circle cx="260.93" cy="37.74" r="1.025"/>
<circle cx="271.59" cy="37.74" r="1.025"/>
<circle cx="260.93" cy="22.16" r="1.025"/>
<circle cx="271.59" cy="22.16" r="1.025"/>
</g>
<g class="piece" data-piece="ripples">
<path d="M344.36 19.5L344.145 20.736L343.849 22.089L343.499 23.429L343.1 24.754L342.658 26.065L342.18 27.361L341.67 28.643L341.136 29.911L340.584 31.168L340.018 32.415L339.442 33.652L338.859 34.882L338.272 36.107L337.679 37.325L337.082 38.539L336.478 39.749L335.865 40.953L335.24 42.15L334.601 43.34L333.943 44.519L333.263 45.687L332.56 46.84L331.829 47.977L331.071 49.095L330.285 50.193L329.47 51.27L328.629 52.326L327.764 53.359L326.877 54.373L325.972 55.368L325.053 56.347L324.124 57.313L323.19 58.269L322.253 59.22L321.316 60.169L320.383 61.12L319.454 62.075L318.529 63.037L317.61 64.008L316.693 64.989L315.776 65.978L314.857 66.974L313.932 67.973L312.996 68.973L312.044 69.967L311.074 70.95L310.079 71.915L309.057 72.855L308.005 73.763L306.92 74.632L305.801 75.456L304.647 76.23L303.46 76.95L302.24 77.612L300.99 78.216L299.713 78.761L298.412 79.249L297.093 79.682L295.758 80.065L294.413 80.404L293.06 80.703L291.704 80.969L290.347 81.21L288.991 81.431L287.639 81.638L286.292 81.836L284.95 82.03L283.612 82.222L282.279 82.415L280.949 82.609L279.621 82.804L278.294 82.997L276.967 83.185L275.638 83.366L274.307 83.535L272.973 83.687L271.635 83.819L270.295 83.926L268.951 84.005L267.606 84.054L266.26 84.07L264.914 84.054L263.569 84.005L262.226 83.926L260.885 83.819L259.548 83.687L258.214 83.535L256.882 83.366L255.553 83.185L254.226 82.997L253.76 82.929L253.76 19.5ZM253.76 19.5L253.76 82.585L254.274 82.66L255.6 82.848L256.927 83.029L258.254 83.197L259.584 83.349L260.915 83.48L262.249 83.587L263.585 83.665L264.922 83.714L266.26 83.73L267.598 83.714L268.935 83.665L270.271 83.587L271.605 83.48L272.937 83.349L274.266 83.197L275.594 83.029L276.92 82.848L278.246 82.66L279.572 82.467L280.9 82.273L282.23 82.079L283.564 81.886L284.901 81.693L286.243 81.5L287.589 81.301L288.938 81.095L290.29 80.875L291.641 80.635L292.991 80.37L294.335 80.073L295.67 79.737L296.993 79.357L298.3 78.928L299.586 78.445L300.849 77.906L302.084 77.31L303.29 76.655L304.464 75.943L305.605 75.178L306.713 74.362L307.788 73.501L308.831 72.601L309.846 71.668L310.834 70.709L311.801 69.73L312.749 68.739L313.683 67.742L314.608 66.743L315.527 65.747L316.444 64.757L317.362 63.775L318.283 62.802L319.209 61.839L320.139 60.882L321.074 59.931L322.01 58.981L322.947 58.031L323.88 57.076L324.807 56.113L325.722 55.137L326.623 54.146L327.505 53.138L328.366 52.11L329.202 51.062L330.011 49.992L330.792 48.901L331.546 47.79L332.271 46.66L332.971 45.513L333.647 44.351L334.303 43.176L334.94 41.991L335.563 40.797L336.174 39.596L336.777 38.388L337.374 37.176L337.965 35.959L338.552 34.736L339.134 33.508L339.709 32.273L340.274 31.029L340.824 29.777L341.355 28.514L341.862 27.239L342.338 25.952L342.777 24.651L343.172 23.337L343.518 22.01L343.811 20.671L344.015 19.5Z"/>
<path d="M361.833 19.5L361.619 20.42L361.18 22.055L360.693 23.674L360.165 25.277L359.603 26.865L359.016 28.438L358.411 29.998L357.794 31.547L357.172 33.087L356.549 34.62L355.928 36.147L355.31 37.672L354.697 39.194L354.087 40.716L353.478 42.238L352.867 43.759L352.25 45.28L351.623 46.798L350.98 48.312L350.317 49.82L349.63 51.319L348.915 52.807L348.168 54.281L347.388 55.739L346.573 57.179L345.724 58.599L344.84 59.999L343.924 61.378L342.978 62.736L342.004 64.076L341.007 65.397L339.989 66.702L338.954 67.993L337.904 69.274L336.842 70.544L335.769 71.808L334.686 73.066L333.594 74.318L332.49 75.565L331.374 76.805L330.243 78.037L329.094 79.258L327.924 80.463L326.729 81.649L325.506 82.809L324.252 83.937L322.964 85.029L321.64 86.079L320.28 87.08L318.882 88.03L317.447 88.922L315.977 89.757L314.474 90.531L312.941 91.246L311.383 91.902L309.803 92.504L308.206 93.055L306.597 93.56L304.98 94.027L303.359 94.462L301.737 94.873L300.118 95.265L298.504 95.647L296.896 96.025L295.295 96.403L293.7 96.786L292.112 97.176L290.528 97.575L288.946 97.982L287.366 98.396L285.784 98.814L284.199 99.231L282.609 99.642L281.011 100.043L279.405 100.426L277.791 100.786L276.167 101.116L274.534 101.412L272.893 101.669L271.244 101.884L269.589 102.055L267.929 102.179L266.266 102.258L264.601 102.293L262.936 102.285L261.271 102.239L259.608 102.157L257.947 102.044L256.288 101.902L254.631 101.737L253.76 101.639L253.76 19.5ZM253.76 19.5L253.76 101.297L254.667 101.399L256.319 101.564L257.973 101.705L259.628 101.818L261.284 101.899L262.941 101.945L264.598 101.953L266.254 101.918L267.908 101.84L269.559 101.716L271.204 101.547L272.844 101.333L274.477 101.077L276.103 100.782L277.72 100.453L279.329 100.095L280.93 99.713L282.525 99.313L284.113 98.902L285.698 98.485L287.279 98.067L288.861 97.653L290.444 97.246L292.03 96.846L293.62 96.456L295.216 96.072L296.818 95.694L298.426 95.316L300.039 94.935L301.655 94.543L303.273 94.133L304.889 93.7L306.499 93.235L308.1 92.732L309.687 92.184L311.256 91.587L312.803 90.935L314.324 90.226L315.815 89.458L317.273 88.63L318.696 87.744L320.083 86.803L321.434 85.809L322.749 84.766L324.028 83.681L325.275 82.559L326.492 81.405L327.682 80.224L328.848 79.023L329.994 77.806L331.122 76.577L332.236 75.339L333.338 74.093L334.429 72.843L335.511 71.587L336.582 70.325L337.642 69.057L338.69 67.779L339.722 66.491L340.737 65.19L341.731 63.873L342.701 62.539L343.643 61.187L344.555 59.814L345.434 58.421L346.28 57.008L347.09 55.575L347.867 54.124L348.61 52.656L349.322 51.175L350.007 49.681L350.668 48.177L351.309 46.666L351.936 45.151L352.552 43.632L353.163 42.111L353.772 40.59L354.382 39.068L354.995 37.544L355.613 36.02L356.234 34.492L356.857 32.96L357.479 31.421L358.094 29.874L358.698 28.317L359.283 26.749L359.843 25.167L360.369 23.571L360.853 21.961L361.29 20.337L361.484 19.5Z"/>
<path d="M378.117 19.5L377.826 20.719L377.334 22.631L376.818 24.53L376.286 26.418L375.744 28.297L375.2 30.169L374.657 32.035L374.119 33.898L373.588 35.761L373.065 37.625L372.548 39.491L372.035 41.36L371.522 43.233L371.003 45.109L370.473 46.988L369.926 48.866L369.355 50.743L368.753 52.615L368.115 54.478L367.436 56.33L366.71 58.166L365.935 59.984L365.108 61.78L364.228 63.553L363.297 65.298L362.315 67.017L361.284 68.706L360.209 70.368L359.092 72.001L357.937 73.608L356.75 75.19L355.533 76.749L354.29 78.287L353.024 79.804L351.738 81.304L350.431 82.787L349.106 84.253L347.762 85.702L346.398 87.134L345.012 88.545L343.602 89.934L342.165 91.297L340.7 92.631L339.205 93.931L337.677 95.193L336.115 96.413L334.518 97.588L332.886 98.714L331.221 99.79L329.524 100.813L327.797 101.783L326.044 102.703L324.268 103.573L322.473 104.399L320.663 105.183L318.843 105.932L317.016 106.652L315.186 107.349L313.356 108.03L311.528 108.701L309.703 109.367L307.883 110.034L306.067 110.706L304.255 111.384L302.444 112.07L300.634 112.763L298.821 113.461L297.004 114.161L295.178 114.858L293.343 115.547L291.495 116.219L289.634 116.867L287.756 117.485L285.863 118.065L283.953 118.598L282.028 119.08L280.087 119.505L278.134 119.868L276.169 120.166L274.195 120.399L272.215 120.567L270.23 120.67L268.243 120.713L266.257 120.698L264.272 120.629L262.29 120.513L260.313 120.353L258.341 120.156L256.374 119.925L254.413 119.664L253.76 119.569L253.76 19.5ZM253.76 19.5L253.76 119.225L254.46 119.328L256.416 119.587L258.378 119.818L260.344 120.015L262.314 120.173L264.288 120.29L266.264 120.358L268.241 120.373L270.218 120.331L272.192 120.228L274.161 120.061L276.124 119.829L278.077 119.532L280.02 119.171L281.95 118.749L283.866 118.27L285.767 117.738L287.653 117.161L289.525 116.545L291.381 115.898L293.225 115.228L295.058 114.54L296.882 113.844L298.699 113.144L300.512 112.445L302.323 111.752L304.135 111.065L305.949 110.387L307.766 109.715L309.586 109.048L311.411 108.382L313.238 107.711L315.066 107.031L316.893 106.335L318.716 105.617L320.531 104.87L322.335 104.088L324.122 103.266L325.89 102.4L327.635 101.484L329.353 100.519L331.041 99.501L332.697 98.432L334.32 97.311L335.909 96.142L337.464 94.928L338.985 93.671L340.474 92.377L341.934 91.048L343.365 89.69L344.771 88.305L346.154 86.897L347.515 85.47L348.856 84.024L350.178 82.561L351.481 81.081L352.765 79.585L354.027 78.071L355.267 76.538L356.48 74.984L357.663 73.407L358.813 71.806L359.926 70.179L360.996 68.525L362.022 66.844L362.999 65.134L363.926 63.397L364.801 61.634L365.624 59.846L366.395 58.037L367.118 56.209L367.795 54.364L368.431 52.507L369.03 50.641L369.6 48.769L370.146 46.894L370.675 45.018L371.194 43.143L371.707 41.27L372.22 39.4L372.738 37.533L373.261 35.668L373.792 33.805L374.33 31.94L374.873 30.074L375.418 28.203L375.959 26.325L376.49 24.439L377.005 22.544L377.496 20.637L377.768 19.5Z"/>
<path d="M394.622 19.5L394.469 20.484L394.11 22.705L393.742 24.921L393.37 27.134L392.995 29.346L392.621 31.558L392.247 33.772L391.871 35.989L391.491 38.211L391.102 40.436L390.7 42.665L390.276 44.897L389.825 47.13L389.339 49.36L388.811 51.586L388.232 53.803L387.598 56.007L386.902 58.195L386.14 60.362L385.309 62.504L384.408 64.618L383.436 66.701L382.395 68.749L381.287 70.763L380.116 72.74L378.887 74.68L377.605 76.586L376.277 78.456L374.907 80.295L373.501 82.103L372.065 83.884L370.604 85.64L369.12 87.374L367.617 89.087L366.097 90.781L364.56 92.458L363.007 94.117L361.436 95.757L359.845 97.378L358.234 98.977L356.6 100.552L354.94 102.1L353.252 103.617L351.535 105.101L349.787 106.548L348.008 107.956L346.197 109.323L344.356 110.646L342.486 111.927L340.589 113.165L338.668 114.363L336.725 115.521L334.765 116.645L332.79 117.738L330.804 118.805L328.808 119.849L326.806 120.877L324.8 121.892L322.789 122.899L320.776 123.899L318.758 124.896L316.736 125.89L314.707 126.88L312.67 127.863L310.622 128.838L308.561 129.798L306.483 130.737L304.388 131.65L302.273 132.528L300.137 133.363L297.978 134.148L295.797 134.875L293.593 135.538L291.369 136.129L289.126 136.646L286.866 137.084L284.592 137.442L282.307 137.719L280.014 137.919L277.717 138.043L275.417 138.095L273.118 138.082L270.822 138.01L268.531 137.886L266.246 137.716L263.968 137.507L261.698 137.265L259.435 136.997L257.18 136.707L254.93 136.397L253.76 136.227L253.76 19.5ZM253.76 19.5L253.76 135.883L254.978 136.06L257.224 136.37L259.477 136.66L261.736 136.927L264.002 137.168L266.274 137.377L268.553 137.546L270.837 137.671L273.124 137.742L275.414 137.755L277.704 137.703L279.991 137.58L282.272 137.381L284.545 137.105L286.808 136.749L289.056 136.313L291.287 135.799L293.501 135.21L295.694 134.551L297.866 133.827L300.017 133.045L302.146 132.213L304.255 131.337L306.346 130.427L308.419 129.489L310.477 128.53L312.523 127.557L314.559 126.574L316.586 125.585L318.608 124.591L320.625 123.595L322.638 122.594L324.647 121.589L326.652 120.574L328.652 119.547L330.644 118.504L332.627 117.44L334.598 116.349L336.554 115.228L338.491 114.072L340.406 112.879L342.297 111.644L344.161 110.368L345.996 109.049L347.8 107.687L349.573 106.284L351.316 104.841L353.027 103.362L354.71 101.849L356.366 100.305L357.997 98.734L359.604 97.138L361.191 95.52L362.76 93.883L364.311 92.227L365.845 90.553L367.363 88.861L368.863 87.151L370.344 85.421L371.802 83.669L373.235 81.892L374.636 80.089L376.002 78.256L377.326 76.392L378.602 74.495L379.826 72.562L380.992 70.594L382.094 68.59L383.13 66.552L384.097 64.479L384.994 62.376L385.821 60.244L386.58 58.087L387.273 55.909L387.904 53.713L388.481 51.504L389.008 49.285L389.493 47.06L389.943 44.832L390.365 42.604L390.768 40.377L391.156 38.153L391.536 35.932L391.912 33.715L392.286 31.501L392.66 29.289L393.034 27.077L393.407 24.865L393.775 22.65L394.133 20.431L394.277 19.5Z"/>
<path d="M411.282 19.5L411.27 19.684L411.08 22.217L410.872 24.75L410.648 27.284L410.407 29.821L410.146 32.359L409.861 34.9L409.548 37.443L409.201 39.986L408.814 42.528L408.379 45.066L407.891 47.598L407.342 50.121L406.725 52.629L406.037 55.121L405.271 57.59L404.426 60.034L403.501 62.449L402.494 64.831L401.408 67.177L400.246 69.487L399.012 71.758L397.712 73.991L396.353 76.186L394.94 78.345L393.483 80.469L391.987 82.562L390.461 84.626L388.909 86.665L387.338 88.683L385.751 90.682L384.153 92.665L382.545 94.636L380.927 96.594L379.3 98.542L377.662 100.478L376.01 102.403L374.342 104.315L372.654 106.21L370.943 108.086L369.206 109.94L367.439 111.767L365.639 113.564L363.805 115.328L361.935 117.056L360.028 118.744L358.085 120.391L356.107 121.997L354.096 123.561L352.054 125.084L349.983 126.567L347.886 128.014L345.765 129.426L343.625 130.807L341.466 132.159L339.291 133.487L337.101 134.791L334.897 136.075L332.679 137.338L330.446 138.581L328.198 139.803L325.932 141L323.649 142.17L321.345 143.308L319.019 144.409L316.669 145.466L314.295 146.472L311.895 147.421L309.469 148.307L307.018 149.123L304.543 149.864L302.045 150.525L299.527 151.105L296.991 151.602L294.44 152.015L291.878 152.347L289.309 152.602L286.735 152.783L284.159 152.897L281.584 152.95L279.013 152.951L276.447 152.907L273.887 152.826L271.335 152.716L268.789 152.583L266.25 152.433L263.716 152.271L261.187 152.099L258.662 151.92L256.139 151.733L253.76 151.549L253.76 19.5ZM253.76 19.5L253.76 151.208L256.164 151.394L258.686 151.581L261.211 151.76L263.739 151.932L266.271 152.094L268.808 152.244L271.351 152.377L273.9 152.487L276.455 152.567L279.016 152.611L281.581 152.61L284.148 152.557L286.715 152.443L289.28 152.263L291.84 152.01L294.391 151.679L296.931 151.267L299.456 150.773L301.963 150.195L304.45 149.536L306.916 148.798L309.357 147.986L311.774 147.103L314.166 146.157L316.533 145.154L318.876 144.1L321.197 143.002L323.496 141.867L325.775 140.699L328.037 139.503L330.282 138.283L332.512 137.042L334.727 135.78L336.929 134.498L339.116 133.196L341.287 131.87L343.442 130.52L345.579 129.142L347.695 127.732L349.787 126.289L351.853 124.809L353.89 123.29L355.896 121.731L357.868 120.13L359.805 118.487L361.706 116.803L363.571 115.081L365.401 113.322L367.196 111.529L368.96 109.705L370.694 107.855L372.402 105.982L374.087 104.09L375.753 102.181L377.403 100.258L379.04 98.323L380.666 96.377L382.282 94.42L383.889 92.451L385.486 90.469L387.07 88.473L388.64 86.458L390.189 84.422L391.712 82.362L393.205 80.274L394.658 78.156L396.066 76.004L397.421 73.816L398.716 71.592L399.944 69.329L401.102 67.03L402.183 64.693L403.185 62.321L404.107 59.918L404.948 57.484L405.71 55.025L406.396 52.544L407.01 50.044L407.558 47.53L408.045 45.005L408.478 42.474L408.864 39.937L409.211 37.399L409.523 34.86L409.808 32.323L410.069 29.787L410.31 27.253L410.534 24.721L410.741 22.19L410.931 19.66L410.942 19.5Z"/>
</g>
<g class="piece" data-piece="edge-band">
<path d="M466.283 19.5L465.384 33.215L460.259 58.982L451.814 83.859L440.195 107.421L425.599 129.265L408.277 149.017L388.525 166.339L366.681 180.935L343.119 192.554L318.242 200.999L292.475 206.124L266.26 207.842L253.76 207.023L253.76 19.5ZM253.76 19.5L253.76 206.323L266.26 207.142L292.384 205.43L318.061 200.323L342.851 191.907L366.331 180.328L388.099 165.784L407.782 148.522L425.044 128.839L439.589 107.071L451.168 83.591L459.583 58.801L464.69 33.124L465.583 19.5Z"/>
<path d="M464.983 19.5L464.095 33.046L459.003 58.645L450.613 83.362L439.069 106.771L424.568 128.474L407.358 148.098L387.734 165.308L366.031 179.809L342.622 191.353L317.906 199.743L292.306 204.835L266.26 206.542L253.76 205.723L253.76 19.5ZM253.76 19.5L253.76 205.223L266.26 206.042L292.24 204.34L317.776 199.26L342.43 190.891L365.781 179.376L387.43 164.911L407.004 147.744L424.171 128.169L438.636 106.521L450.151 83.17L458.52 58.516L463.6 32.98L464.483 19.5Z"/>
</g>
<g class="piece" data-piece="quadrant-SE">
<path d="M254.085 19.325L278.585 19.325L278.585 19.675L254.085 19.675Z"/>
<path d="M254.085 44.325L278.935 44.325L278.935 44.675L254.085 44.675Z"/>
<path d="M254.085 69.325L278.935 69.325L278.935 69.675L254.085 69.675Z"/>
<path d="M254.085 94.325L278.935 94.325L278.935 94.675L254.085 94.675Z"/>
<path d="M254.085 119.325L278.935 119.325L278.935 119.675L254.085 119.675Z"/>
<path d="M254.085 144.325L278.935 144.325L278.935 144.675L254.085 144.675Z"/>
<path d="M254.085 169.325L278.935 169.325L278.935 169.675L254.085 169.675Z"/>
<path d="M254.085 194.325L278.935 194.325L278.935 194.675L254.085 194.675Z"/>
<path d="M278.585 44.325L303.935 44.325L303.935 44.675L278.585 44.675Z"/>
<path d="M278.585 69.325L303.935 69.325L303.935 69.675L278.585 69.675Z"/>
<path d="M278.585 94.325L303.935 94.325L303.935 94.675L278.585 94.675Z"/>
<path d="M278.585 119.325L303.935 119.325L303.935 119.675L278.585 119.675Z"/>
<path d="M278.585 144.325L303.935 144.325L303.935 144.675L278.585 144.675Z"/>
<path d="M278.585 169.325L303.935 169.325L303.935 169.675L278.585 169.675Z"/>
<path d="M278.585 194.325L303.935 194.325L303.935 194.675L278.585 194.675Z"/>
<path d="M303.585 44.325L328.935 44.325L328.935 44.675L303.585 44.675Z"/>
<path d="M303.585 69.325L328.935 69.325L328.935 69.675L303.585 69.675Z"/>
<path d="M303.585 94.325L328.935 94.325L328.935 94.675L303.585 94.675Z"/>
<path d="M303.585 119.325L328.935 119.325L328.935 119.675L303.585 119.675Z"/>
<path d="M303.585 144.325L328.935 144.325L328.935 144.675L303.585 144.675Z"/>
<path d="M303.585 169.325L328.935 169.325L328.935 169.675L303.585 169.675Z"/>
<path d="M303.585 194.325L328.935 194.325L328.935 194.675L303.585 194.675Z"/>
<path d="M328.585 44.325L353.935 44.325L353.935 44.675L328.585 44.675Z"/>
<path d="M328.585 69.325L353.935 69.325L353.935 69.675L328.585 69.675Z"/>
<path d="M328.585 94.325L353.935 94.325L353.935 94.675L328.585 94.675Z"/>
<path d="M328.585 119.325L353.935 119.325L353.935 119.675L328.585 119.675Z"/>
<path d="M328.585 144.325L353.935 144.325L353.935 144.675L328.585 144.675Z"/>
<path d="M328.585 169.325L353.935 169.325L353.935 169.675L328.585 169.675Z"/>
<path d="M362.585 19.325L370.085 19.325L370.085 19.675L362.585 19.675Z"/>
<path d="M353.585 44.325L378.935 44.325L378.935 44.675L353.585 44.675Z"/>
<path d="M353.585 69.325L378.935 69.325L378.935 69.675L353.585 69.675Z"/>
<path d="M353.585 94.325L378.935 94.325L378.935 94.675L353.585 94.675Z"/>
<path d="M353.585 119.325L378.935 119.325L378.935 119.675L353.585 119.675Z"/>
<path d="M353.585 144.325L378.935 144.325L378.935 144.675L353.585 144.675Z"/>
<path d="M353.585 169.325L378.935 169.325L378.935 169.675L353.585 169.675Z"/>
<path d="M378.585 44.325L403.935 44.325L403.935 44.675L378.585 44.675Z"/>
<path d="M378.585 69.325L403.935 69.325L403.935 69.675L378.585 69.675Z"/>
<path d="M378.585 94.325L403.935 94.325L403.935 94.675L378.585 94.675Z"/>
<path d="M378.585 119.325L403.935 119.325L403.935 119.675L378.585 119.675Z"/>
<path d="M378.585 144.325L403.935 144.325L403.935 144.675L378.585 144.675Z"/>
<path d="M403.585 44.325L428.935 44.325L428.935 44.675L403.585 44.675Z"/>
<path d="M403.585 69.325L428.935 69.325L428.935 69.675L403.585 69.675Z"/>
<path d="M403.585 94.325L428.935 94.325L428.935 94.675L403.585 94.675Z"/>
<path d="M403.585 119.325L428.935 119.325L428.935 119.675L403.585 119.675Z"/>
<path d="M428.585 44.325L453.935 44.325L453.935 44.675L428.585 44.675Z"/>
<path d="M428.585 69.325L453.935 69.325L453.935 69.675L428.585 69.675Z"/>
<path d="M253.585 53.175L253.935 53.175L253.935 60.675L253.585 60.675Z"/>
<path d="M253.585 153.175L253.935 153.175L253.935 160.675L253.585 160.675Z"/>
<path d="M278.585 19.675L278.935 19.675L278.935 44.325L278.585 44.325Z"/>
<path d="M278.585 44.675L278.935 44.675L278.935 69.325L278.585 69.325Z"/>
<path d="M278.585 69.675L278.935 69.675L278.935 94.325L278.585 94.325Z"/>
<path d="M278.585 94.675L278.935 94.675L278.935 119.325L278.585 119.325Z"/>
<path d="M278.585 119.675L278.935 119.675L278.935 144.325L278.585 144.325Z"/>
<path d="M278.585 144.675L278.935 144.675L278.935 169.325L278.585 169.325Z"/>
<path d="M278.585 169.675L278.935 169.675L278.935 194.325L278.585 194.325Z"/>
<path d="M303.585 19.675L303.935 19.675L303.935 44.325L303.585 44.325Z"/>
<path d="M303.585 44.675L303.935 44.675L303.935 69.325L303.585 69.325Z"/>
<path d="M303.585 69.675L303.935 69.675L303.935 94.325L303.585 94.325Z"/>
<path d="M303.585 94.675L303.935 94.675L303.935 119.325L303.585 119.325Z"/>
<path d="M303.585 119.675L303.935 119.675L303.935 144.325L303.585 144.325Z"/>
<path d="M303.585 144.675L303.935 144.675L303.935 169.325L303.585 169.325Z"/>
<path d="M303.585 169.675L303.935 169.675L303.935 194.325L303.585 194.325Z"/>
<path d="M328.585 19.675L328.935 19.675L328.935 44.325L328.585 44.325Z"/>
<path d="M328.585 44.675L328.935 44.675L328.935 69.325L328.585 69.325Z"/>
<path d="M328.585 69.675L328.935 69.675L328.935 94.325L328.585 94.325Z"/>
<path d="M328.585 94.675L328.935 94.675L328.935 119.325L328.585 119.325Z"/>
<path d="M328.585 119.675L328.935 119.675L328.935 144.325L328.585 144.325Z"/>
<path d="M328.585 144.675L328.935 144.675L328.935 169.325L328.585 169.325Z"/>
<path d="M328.585 169.675L328.935 169.675L328.935 194.325L328.585 194.325Z"/>
<path d="M353.585 19.675L353.935 19.675L353.935 44.325L353.585 44.325Z"/>
<path d="M353.585 44.675L353.935 44.675L353.935 69.325L353.585 69.325Z"/>
<path d="M353.585 69.675L353.935 69.675L353.935 94.325L353.585 94.325Z"/>
<path d="M353.585 94.675L353.935 94.675L353.935 119.325L353.585 119.325Z"/>
<path d="M353.585 119.675L353.935 119.675L353.935 144.325L353.585 144.325Z"/>
<path d="M353.585 144.675L353.935 144.675L353.935 169.325L353.585 169.325Z"/>
<path d="M378.585 19.675L378.935 19.675L378.935 44.325L378.585 44.325Z"/>
<path d="M378.585 44.675L378.935 44.675L378.935 69.325L378.585 69.325Z"/>
<path d="M378.585 69.675L378.935 69.675L378.935 94.325L378.585 94.325Z"/>
<path d="M378.585 94.675L378.935 94.675L378.935 119.325L378.585 119.325Z"/>
<path d="M378.585 119.675L378.935 119.675L378.935 144.325L378.585 144.325Z"/>
<path d="M378.585 144.675L378.935 144.675L378.935 169.325L378.585 169.325Z"/>
<path d="M403.585 19.675L403.935 19.675L403.935 44.325L403.585 44.325Z"/>
<path d="M403.585 44.675L403.935 44.675L403.935 69.325L403.585 69.325Z"/>
<path d="M403.585 69.675L403.935 69.675L403.935 94.325L403.585 94.325Z"/>
<path d="M403.585 94.675L403.935 94.675L403.935 119.325L403.585 119.325Z"/>
<path d="M403.585 119.675L403.935 119.675L403.935 144.325L403.585 144.325Z"/>
<path d="M428.585 19.675L428.935 19.675L428.935 44.325L428.585 44.325Z"/>
<path d="M428.585 44.675L428.935 44.675L428.935 69.325L428.585 69.325Z"/>
<path d="M428.585 69.675L428.935 69.675L428.935 94.325L428.585 94.325Z"/>
<path d="M428.585 94.675L428.935 94.675L428.935 119.325L428.585 119.325Z"/>
<path d="M453.585 19.675L453.935 19.675L453.935 44.325L453.585 44.325Z"/>
<path d="M453.585 44.675L453.935 44.675L453.935 69.325L453.585 69.325Z"/>
</g>
<g class="piece" data-piece="island-4">
<path d="M476.28 9.433L476.154 8.81L476.103 8.51L476.077 8.263L476.076 8.065L476.095 7.909L476.13 7.79L476.176 7.698L476.167 7.71L476.161 7.714L476.267 7.67L476.403 7.639L476.575 7.625L476.792 7.633L477.058 7.663L477.376 7.714L477.796 7.785L478.756 7.855L479.658 7.783L480.407 7.719L481.151 7.719L481.951 7.719L482.751 7.719L483.551 7.719L484.351 7.719L485.151 7.719L485.951 7.719L486.751 7.719L487.551 7.719L488.351 7.719L489.151 7.719L489.951 7.719L490.751 7.719L491.551 7.719L492.351 7.719L493.151 7.719L493.995 7.719L494.755 7.668L495.376 7.706L496.043 7.847L496.851 8.07L497.837 8.265L498.98 8.242L500.039 7.88L500.823 7.511L501.386 7.336L501.901 7.305L502.527 7.392L503.317 7.559L504.239 7.701L505.138 7.719L505.951 7.719L506.751 7.719L507.551 7.719L508.351 7.719L509.151 7.719L509.951 7.719L510.751 7.719L511.551 7.719L512.351 7.719L513.151 7.719L513.951 7.719L514.751 7.719L515.551 7.719L516.351 7.719L517.151 7.719L517.951 7.719L518.8 7.719L519.698 7.651L520.502 7.529L521.162 7.475L521.341 7.487L521.49 7.521L521.611 7.57L521.706 7.628L521.777 7.689L521.828 7.75L521.865 7.811L521.941 7.991L522.053 8.216L522.141 8.401L522.236 8.599L522.334 8.806L522.433 9.021L522.528 9.246L522.616 9.483L522.69 9.737L522.827 10.399L522.875 11.046L522.851 11.798L522.851 12.619L522.851 13.419L522.851 14.219L522.851 15.019L522.851 15.819L522.851 16.619L522.851 17.419L522.851 18.219L522.851 19.019L522.851 19.819L522.851 20.619L522.851 21.419L522.851 22.219L522.851 23.019L522.851 23.819L522.851 24.619L522.851 25.339L522.761 26.074L522.669 26.981L522.713 27.995L522.943 28.989L523.259 29.858L523.487 30.497L523.523 30.909L523.395 31.398L523.072 32.157L522.751 33.118L522.602 34.156L522.648 35.144L522.772 35.986L522.851 36.691L522.851 37.419L522.851 38.219L522.851 39.019L522.851 39.819L522.851 40.619L522.851 41.419L522.851 42.219L522.851 43.019L522.851 43.819L522.851 44.619L522.851 45.419L522.851 46.219L522.851 47.019L522.851 47.819L522.851 48.619L522.851 49.419L522.851 50.217L522.85 50.938L522.767 51.605L522.616 52.329L522.542 52.635L522.464 52.917L522.387 53.19L522.314 53.449L522.247 53.688L522.188 53.9L522.131 54.081L522.069 54.248L522.019 54.36L521.984 54.412L521.934 54.464L521.862 54.516L521.766 54.563L521.641 54.599L521.479 54.618L521.272 54.611L520.55 54.503L519.687 54.365L518.784 54.319L517.951 54.319L517.151 54.319L516.351 54.319L515.551 54.319L514.751 54.319L513.951 54.319L513.151 54.319L512.351 54.319L511.551 54.319L510.751 54.319L509.951 54.319L509.151 54.319L508.351 54.319L507.551 54.319L506.751 54.319L505.951 54.319L505.109 54.319L504.199 54.378L503.336 54.525L502.628 54.642L502.059 54.657L501.523 54.552L500.855 54.282L499.937 53.881L498.776 53.662L497.666 53.828L496.781 54.094L496.063 54.304L495.45 54.404L494.821 54.4L494.017 54.319L493.151 54.319L492.351 54.319L491.551 54.319L490.751 54.319L489.951 54.319L489.151 54.319L488.351 54.319L487.551 54.319L486.751 54.319L485.951 54.319L485.151 54.319L484.351 54.319L483.551 54.319L482.751 54.319L481.951 54.319L481.151 54.319L480.398 54.319L479.611 54.262L478.671 54.243L477.722 54.38L477.333 54.463L477.044 54.512L476.808 54.534L476.62 54.531L476.475 54.508L476.364 54.471L476.281 54.425L476.292 54.435L476.293 54.435L476.25 54.321L476.222 54.177L476.211 53.995L476.22 53.769L476.251 53.493L476.299 53.166L476.361 52.74L476.403 51.783L476.315 50.898L476.251 50.162L476.251 49.419L476.251 48.619L476.251 47.819L476.251 47.019L476.251 46.219L476.251 45.419L476.251 44.619L476.251 43.819L476.251 43.019L476.251 42.219L476.251 41.419L476.251 40.619L476.251 39.819L476.251 39.019L476.251 38.219L476.251 37.419L476.251 36.585L476.212 35.839L476.264 35.214L476.417 34.523L476.636 33.681L476.792 32.664L476.698 31.527L476.308 30.511L475.966 29.775L475.826 29.244L475.821 28.724L475.935 28.07L476.116 27.25L476.249 26.312L476.251 25.42L476.251 24.619L476.251 23.819L476.251 23.019L476.251 22.219L476.251 21.419L476.251 20.619L476.251 19.819L476.251 19.019L476.251 18.219L476.251 17.419L476.251 16.619L476.251 15.819L476.251 15.019L476.251 14.219L476.251 13.419L476.251 12.619L476.251 11.766L476.179 10.874L476.092 10.27ZM477.405 9.445L477.21 10.313L477.273 10.751L477.351 11.722L477.351 12.619L477.351 13.419L477.351 14.219L477.351 15.019L477.351 15.819L477.351 16.619L477.351 17.419L477.351 18.219L477.351 19.019L477.351 19.819L477.351 20.619L477.351 21.419L477.351 22.219L477.351 23.019L477.351 23.819L477.351 24.619L477.351 25.422L477.349 26.39L477.2 27.447L477.014 28.283L476.922 28.814L476.925 29.097L477.005 29.401L477.322 30.082L477.781 31.279L477.898 32.703L477.715 33.903L477.487 34.78L477.354 35.379L477.315 35.856L477.351 36.556L477.351 37.419L477.351 38.219L477.351 39.019L477.351 39.819L477.351 40.619L477.351 41.419L477.351 42.219L477.351 43.019L477.351 43.819L477.351 44.619L477.351 45.419L477.351 46.219L477.351 47.019L477.351 47.819L477.351 48.619L477.351 49.419L477.351 50.114L477.411 50.796L477.505 51.753L477.458 52.843L477.387 53.325L477.342 53.634L477.318 53.853L477.312 53.984L477.315 54.035L477.313 54.022L477.292 53.965L477.146 53.714L476.904 53.512L476.807 53.459L476.737 53.436L476.717 53.433L476.767 53.433L476.9 53.421L477.125 53.382L477.529 53.296L478.603 53.142L479.661 53.162L480.438 53.219L481.151 53.219L481.951 53.219L482.751 53.219L483.551 53.219L484.351 53.219L485.151 53.219L485.951 53.219L486.751 53.219L487.551 53.219L488.351 53.219L489.151 53.219L489.951 53.219L490.751 53.219L491.551 53.219L492.351 53.219L493.151 53.219L494.073 53.219L494.88 53.301L495.364 53.303L495.82 53.229L496.468 53.04L497.425 52.752L498.798 52.546L500.263 52.823L501.282 53.268L501.837 53.493L502.151 53.554L502.524 53.544L503.155 53.441L504.07 53.284L505.073 53.219L505.951 53.219L506.751 53.219L507.551 53.219L508.351 53.219L509.151 53.219L509.951 53.219L510.751 53.219L511.551 53.219L512.351 53.219L513.151 53.219L513.951 53.219L514.751 53.219L515.551 53.219L516.351 53.219L517.151 53.219L517.951 53.219L518.813 53.219L519.802 53.269L520.719 53.416L521.371 53.514L521.432 53.516L521.423 53.517L521.371 53.532L521.295 53.569L521.209 53.631L521.125 53.719L521.053 53.826L521.051 53.831L521.09 53.725L521.133 53.587L521.188 53.392L521.254 53.153L521.328 52.89L521.405 52.621L521.476 52.36L521.542 52.087L521.681 51.425L521.75 50.869L521.751 50.216L521.751 49.419L521.751 48.619L521.751 47.819L521.751 47.019L521.751 46.219L521.751 45.419L521.751 44.619L521.751 43.819L521.751 43.019L521.751 42.219L521.751 41.419L521.751 40.619L521.751 39.819L521.751 39.019L521.751 38.219L521.751 37.419L521.751 36.753L521.681 36.127L521.552 35.249L521.499 34.103L521.676 32.864L522.043 31.767L522.351 31.042L522.41 30.815L522.403 30.733L522.224 30.23L521.887 29.302L521.619 28.144L521.567 26.95L521.668 25.952L521.751 25.272L521.751 24.619L521.751 23.819L521.751 23.019L521.751 22.219L521.751 21.419L521.751 20.619L521.751 19.819L521.751 19.019L521.751 18.219L521.751 17.419L521.751 16.619L521.751 15.819L521.751 15.019L521.751 14.219L521.751 13.419L521.751 12.619L521.751 11.78L521.774 11.069L521.736 10.552L521.622 10.004L521.571 9.829L521.505 9.651L521.426 9.465L521.338 9.271L521.243 9.072L521.149 8.875L521.064 8.698L520.941 8.45L520.882 8.312L520.931 8.392L520.992 8.465L521.055 8.52L521.114 8.555L521.159 8.574L521.181 8.579L521.17 8.578L520.63 8.622L519.822 8.745L518.841 8.819L517.951 8.819L517.151 8.819L516.351 8.819L515.551 8.819L514.751 8.819L513.951 8.819L513.151 8.819L512.351 8.819L511.551 8.819L510.751 8.819L509.951 8.819L509.151 8.819L508.351 8.819L507.551 8.819L506.751 8.819L505.951 8.819L505.127 8.819L504.144 8.799L503.12 8.642L502.338 8.476L501.859 8.41L501.585 8.426L501.222 8.539L500.453 8.901L499.174 9.338L497.74 9.368L496.597 9.141L495.782 8.916L495.228 8.799L494.758 8.77L494.032 8.819L493.151 8.819L492.351 8.819L491.551 8.819L490.751 8.819L489.951 8.819L489.151 8.819L488.351 8.819L487.551 8.819L486.751 8.819L485.951 8.819L485.151 8.819L484.351 8.819L483.551 8.819L482.751 8.819L481.951 8.819L481.151 8.819L480.454 8.819L479.749 8.879L478.76 8.958L477.663 8.879L477.197 8.799L476.908 8.753L476.711 8.731L476.602 8.727L476.57 8.729L476.6 8.723L476.669 8.694L476.925 8.531L477.115 8.28L477.159 8.191L477.176 8.135L477.176 8.132L477.176 8.203L477.193 8.359L477.236 8.608L477.405 9.445Z"/>
<path d="M479.018 16.554L479.271 15.289L479.355 16.554Z"/>
<path d="M478.427 16.639L478.765 15.627L479.018 16.639Z"/>
<path d="M479.524 16.639L479.861 15.711L480.114 16.639Z"/>
<path d="M484.802 10.948L485.009 9.916L485.077 10.948Z"/>
<path d="M484.321 11.017L484.596 10.191L484.802 11.017Z"/>
<path d="M485.215 11.017L485.49 10.26L485.697 11.017Z"/>
<path d="M482.3 26.963L482.553 25.699L482.638 26.963Z"/>
<path d="M481.71 27.048L482.047 26.036L482.3 27.048Z"/>
<path d="M482.806 27.048L483.144 26.12L483.397 27.048Z"/>
<path d="M507.137 12.043L507.365 10.904L507.441 12.043Z"/>
<path d="M506.606 12.119L506.91 11.207L507.137 12.119Z"/>
<path d="M507.593 12.119L507.897 11.283L508.124 12.119Z"/>
<path d="M513.944 28.46L514.194 27.208L514.278 28.46Z"/>
<path d="M513.359 28.544L513.693 27.542L513.944 28.544Z"/>
<path d="M514.445 28.544L514.779 27.625L515.029 28.544Z"/>
<path d="M511.801 10.843L512.002 9.837L512.069 10.843Z"/>
<path d="M511.331 10.91L511.599 10.105L511.801 10.91Z"/>
<path d="M512.203 10.91L512.471 10.172L512.673 10.91Z"/>
<path d="M485.778 53.335L486.011 52.171L486.089 53.335Z"/>
<path d="M485.235 53.412L485.546 52.481L485.778 53.412Z"/>
<path d="M486.244 53.412L486.555 52.559L486.788 53.412Z"/>
<path d="M477.924 46.691L478.173 45.442L478.257 46.691Z"/>
<path d="M477.341 46.774L477.674 45.775L477.924 46.774Z"/>
<path d="M478.423 46.774L478.756 45.858L479.006 46.774Z"/>
<path d="M489.257 52.889L489.516 51.593L489.603 52.889Z"/>
<path d="M488.652 52.976L488.998 51.939L489.257 52.976Z"/>
<path d="M489.776 52.976L490.121 52.025L490.381 52.976Z"/>
<path d="M509.848 53.395L510.058 52.345L510.128 53.395Z"/>
<path d="M509.358 53.465L509.638 52.625L509.848 53.465Z"/>
<path d="M510.268 53.465L510.548 52.695L510.757 53.465Z"/>
<path d="M520.591 41.381L520.826 40.21L520.904 41.381Z"/>
<path d="M520.045 41.459L520.357 40.522L520.591 41.459Z"/>
<path d="M521.06 41.459L521.372 40.601L521.606 41.459Z"/>
<path d="M511.066 53.151L511.322 51.872L511.407 53.151Z"/>
<path d="M510.47 53.236L510.811 52.213L511.066 53.236Z"/>
<path d="M511.578 53.236L511.919 52.298L512.175 53.236Z"/>
<path d="M484.301 23.269C484.551 21.269 485.051 19.019 486.051 17.269L486.676 17.519C485.801 19.269 485.426 21.269 485.301 23.269Z"/>
<circle cx="486.551" cy="16.519" r="0.5"/>
<path d="M482.675 15.108C482.793 14.783 483.625 14.788 484.533 15.119C485.441 15.45 486.082 15.981 485.964 16.305C485.846 16.629 485.014 16.624 484.106 16.294C483.197 15.963 482.557 15.432 482.675 15.108Z"/>
<path d="M485.14 12.642C485.465 12.524 485.996 13.165 486.326 14.073C486.657 14.981 486.662 15.813 486.337 15.931C486.013 16.049 485.482 15.409 485.151 14.501C484.821 13.592 484.816 12.76 485.14 12.642Z"/>
<path d="M488.614 12.946C488.913 13.119 488.763 13.937 488.28 14.774C487.797 15.611 487.163 16.15 486.864 15.977C486.565 15.805 486.714 14.986 487.197 14.149C487.681 13.312 488.315 12.774 488.614 12.946Z"/>
<path d="M490.613 15.802C490.673 16.142 489.95 16.554 488.999 16.722C488.047 16.89 487.227 16.75 487.167 16.41C487.107 16.07 487.83 15.659 488.781 15.491C489.733 15.323 490.553 15.462 490.613 15.802Z"/>
<path d="M489.711 19.17C489.489 19.435 488.709 19.145 487.969 18.524C487.228 17.903 486.808 17.185 487.03 16.92C487.252 16.656 488.032 16.945 488.772 17.566C489.513 18.188 489.933 18.906 489.711 19.17Z"/>
<path d="M516.801 50.019C516.601 49.019 517.501 48.019 518.401 48.119C519.301 48.019 520.101 48.719 519.901 49.619C519.801 50.219 518.801 50.419 518.201 50.319C517.501 50.419 516.901 50.419 516.801 50.019Z"/>
</g>
<g class="piece" data-piece="whirlpool-2">
<path d="M544.475 18.1L544.597 18.621L544.64 19.176L544.596 19.752L544.46 20.336L544.231 20.913L543.907 21.468L543.49 21.986L542.984 22.45L542.398 22.847L541.739 23.162L541.02 23.383L540.255 23.499L539.459 23.503L538.65 23.386L537.845 23.146L537.064 22.782L536.325 22.297L535.648 21.694L535.052 20.983L534.554 20.174L534.169 19.281L533.911 18.321L533.793 17.311L533.821 16.273L534.003 15.228L534.34 14.199L534.832 13.209L535.474 12.282L536.257 11.44L537.17 10.706L538.198 10.099L539.323 9.636L540.524 9.335L541.778 9.206L543.06 9.259L544.343 9.499L545.599 9.927L546.802 10.54L547.922 11.331L548.935 12.289L547.756 13.146L546.85 12.37L545.864 11.748L544.823 11.287L543.753 10.989L542.677 10.853L541.62 10.874L540.605 11.045L539.65 11.354L538.776 11.787L537.996 12.328L537.325 12.96L536.77 13.662L536.339 14.416L536.033 15.2L535.854 15.994L535.797 16.78L535.856 17.539L536.023 18.254L536.286 18.912L536.632 19.499L537.047 20.006L537.516 20.425L538.022 20.753L538.549 20.986L539.082 21.128L539.604 21.18L540.103 21.149L540.566 21.042L540.981 20.87L541.34 20.644L541.637 20.375L541.868 20.077L542.03 19.763L542.124 19.446L542.154 19.139L542.123 18.853L542.04 18.598L541.912 18.383L541.749 18.215L541.562 18.1Z"/>
<path d="M537.399 18.1L537.277 17.579L537.235 17.024L537.279 16.448L537.414 15.864L537.644 15.287L537.968 14.732L538.385 14.214L538.89 13.75L539.477 13.353L540.136 13.038L540.854 12.817L541.619 12.701L542.415 12.697L543.225 12.814L544.03 13.054L544.811 13.418L545.549 13.903L546.226 14.506L546.822 15.217L547.321 16.026L547.705 16.919L547.963 17.879L548.082 18.889L548.053 19.927L547.871 20.972L547.534 22.001L547.042 22.991L546.401 23.918L545.618 24.76L544.705 25.494L543.677 26.101L542.552 26.564L541.351 26.865L540.097 26.994L538.815 26.941L537.532 26.701L536.275 26.273L535.073 25.66L533.952 24.869L532.94 23.911L534.118 23.054L535.024 23.83L536.01 24.452L537.051 24.913L538.122 25.211L539.197 25.347L540.254 25.326L541.27 25.155L542.224 24.846L543.099 24.413L543.878 23.872L544.55 23.24L545.104 22.538L545.536 21.784L545.841 21L546.021 20.206L546.078 19.42L546.018 18.661L545.852 17.946L545.589 17.288L545.242 16.701L544.827 16.194L544.358 15.775L543.852 15.447L543.325 15.214L542.793 15.072L542.27 15.02L541.771 15.051L541.309 15.158L540.894 15.33L540.534 15.556L540.237 15.825L540.007 16.123L539.845 16.437L539.75 16.754L539.721 17.061L539.751 17.347L539.835 17.602L539.963 17.817L540.126 17.985L540.313 18.1Z"/>
<circle cx="540.937" cy="18.1" r="1.041"/>
</g>
<g class="piece" data-piece="whirlpool-3">
<path d="M572.675 18.1L572.797 18.621L572.84 19.176L572.796 19.752L572.66 20.336L572.431 20.913L572.107 21.468L571.69 21.986L571.184 22.45L570.598 22.847L569.939 23.162L569.22 23.383L568.455 23.499L567.659 23.503L566.85 23.386L566.045 23.146L565.264 22.782L564.525 22.297L563.848 21.694L563.252 20.983L562.754 20.174L562.369 19.281L562.111 18.321L561.993 17.311L562.021 16.273L562.203 15.228L562.54 14.199L563.032 13.209L563.674 12.282L564.457 11.44L565.37 10.706L566.398 10.099L567.523 9.636L568.724 9.335L569.978 9.206L571.26 9.259L572.543 9.499L573.799 9.927L575.002 10.54L576.122 11.331L577.135 12.289L575.956 13.146L575.05 12.37L574.064 11.748L573.023 11.287L571.953 10.989L570.877 10.853L569.82 10.874L568.805 11.045L567.85 11.354L566.976 11.787L566.196 12.328L565.525 12.96L564.97 13.662L564.539 14.416L564.233 15.2L564.054 15.994L563.997 16.78L564.056 17.539L564.223 18.254L564.486 18.912L564.832 19.499L565.247 20.006L565.716 20.425L566.222 20.753L566.749 20.986L567.282 21.128L567.804 21.18L568.303 21.149L568.766 21.042L569.181 20.87L569.54 20.644L569.837 20.375L570.068 20.077L570.23 19.763L570.324 19.446L570.354 19.139L570.323 18.853L570.24 18.598L570.112 18.383L569.949 18.215L569.762 18.1Z"/>
<path d="M565.599 18.1L565.477 17.579L565.435 17.024L565.479 16.448L565.614 15.864L565.844 15.287L566.168 14.732L566.585 14.214L567.09 13.75L567.677 13.353L568.336 13.038L569.054 12.817L569.819 12.701L570.615 12.697L571.425 12.814L572.23 13.054L573.011 13.418L573.749 13.903L574.426 14.506L575.022 15.217L575.521 16.026L575.905 16.919L576.163 17.879L576.282 18.889L576.253 19.927L576.071 20.972L575.734 22.001L575.242 22.991L574.601 23.918L573.818 24.76L572.905 25.494L571.877 26.101L570.752 26.564L569.551 26.865L568.297 26.994L567.015 26.941L565.732 26.701L564.475 26.273L563.273 25.66L562.152 24.869L561.14 23.911L562.318 23.054L563.224 23.83L564.21 24.452L565.251 24.913L566.322 25.211L567.397 25.347L568.454 25.326L569.47 25.155L570.424 24.846L571.299 24.413L572.078 23.872L572.75 23.24L573.304 22.538L573.736 21.784L574.041 21L574.221 20.206L574.278 19.42L574.218 18.661L574.052 17.946L573.789 17.288L573.442 16.701L573.027 16.194L572.558 15.775L572.052 15.447L571.525 15.214L570.993 15.072L570.47 15.02L569.971 15.051L569.509 15.158L569.094 15.33L568.734 15.556L568.437 15.825L568.207 16.123L568.045 16.437L567.95 16.754L567.921 17.061L567.951 17.347L568.035 17.602L568.163 17.817L568.326 17.985L568.513 18.1Z"/>
<circle cx="569.137" cy="18.1" r="1.041"/>
</g>
</g>
<g id="CUT" class="layer-cut" inkscape:label="CUT" inkscape:groupmode="layer" fill="none" stroke="#ff0000" stroke-width="0.1">
<g class="piece" data-piece="quadrant-NW">
<path d="M5.903 198.225L6.16 194.565L6.471 191.005L6.845 187.451L7.28 183.905L7.778 180.366L8.337 176.837L8.957 173.318L9.639 169.811L10.382 166.316L11.186 162.834L12.051 159.367L12.976 155.916L13.961 152.481L15.006 149.064L16.11 145.666L17.273 142.287L18.496 138.929L19.776 135.594L21.115 132.281L22.511 128.991L23.965 125.727L25.475 122.489L27.041 119.277L28.664 116.094L30.341 112.939L32.074 109.814L33.86 106.719L35.701 103.656L37.594 100.626L39.541 97.63L41.539 94.667L43.588 91.74L45.689 88.85L47.839 85.996L50.039 83.18L52.288 80.404L54.585 77.666L56.929 74.97L59.32 72.314L61.757 69.701L64.24 67.131L66.766 64.604L69.337 62.122L71.95 59.685L74.606 57.295L77.302 54.95L80.04 52.654L82.817 50.405L85.633 48.205L88.486 46.055L91.377 43.955L94.304 41.905L97.267 39.907L100.263 37.961L103.294 36.068L106.357 34.228L109.451 32.441L112.576 30.709L115.731 29.032L118.915 27.41L122.127 25.843L125.365 24.333L128.63 22.88L131.919 21.484L135.232 20.146L138.568 18.865L141.926 17.643L145.304 16.48L148.703 15.376L152.12 14.331L155.555 13.346L159.006 12.422L162.473 11.557L165.955 10.754L169.45 10.011L172.958 9.329L176.476 8.709L180.006 8.15L183.544 7.653L187.091 7.218L190.644 6.844L194.204 6.533L197.769 6.284L201.337 6.097L204.908 5.972L208.481 5.91L212.054 5.91L215.626 5.973L219.197 6.097L222.85 6.289L222.85 56.545L226.956 56.545L228.09 55.723L229.435 55.203L230.868 55.045L232.294 55.258L233.618 55.829L234.751 56.72L235.62 57.87L236.165 59.205L236.351 60.635L236.165 62.064L235.62 63.399L234.751 64.55L233.618 65.44L232.294 66.011L230.868 66.224L229.435 66.066L228.09 65.547L226.956 64.725L222.85 64.725L222.85 106.675L218.476 106.675L217.302 105.83L215.989 105.327L214.592 105.177L213.202 105.388L211.913 105.947L210.808 106.816L209.963 107.939L209.432 109.241L209.251 110.635L209.432 112.029L209.963 113.33L210.808 114.453L211.913 115.323L213.202 115.881L214.592 116.093L215.989 115.942L217.302 115.439L218.476 114.595L222.85 114.595L222.85 156.545L226.956 156.545L228.09 155.723L229.435 155.203L230.868 155.045L232.294 155.258L233.618 155.829L234.751 156.72L235.62 157.87L236.165 159.205L236.351 160.635L236.165 162.064L235.62 163.399L234.751 164.55L233.618 165.44L232.294 166.011L230.868 166.224L229.435 166.066L228.09 165.547L226.956 164.725L222.85 164.725L222.85 198.225L164.22 198.225L164.22 193.85L165.065 192.676L165.568 191.364L165.718 189.966L165.507 188.577L164.948 187.287L164.078 186.183L162.956 185.337L161.654 184.806L160.26 184.625L158.866 184.806L157.565 185.337L156.442 186.183L155.572 187.287L155.013 188.577L154.802 189.966L154.953 191.364L155.455 192.676L156.3 193.85L156.3 198.225L114.35 198.225L114.35 202.331L115.172 203.465L115.692 204.81L115.85 206.242L115.637 207.668L115.066 208.992L114.175 210.126L113.024 210.994L111.69 211.54L110.26 211.725L108.831 211.54L107.496 210.994L106.345 210.126L105.455 208.992L104.884 207.668L104.671 206.242L104.829 204.81L105.348 203.465L106.17 202.331L106.17 198.225L64.22 198.225L64.22 193.85L65.065 192.676L65.568 191.364L65.718 189.966L65.507 188.577L64.948 187.287L64.078 186.183L62.956 185.337L61.654 184.806L60.26 184.625L58.866 184.806L57.565 185.337L56.442 186.183L55.572 187.287L55.013 188.577L54.802 189.966L54.953 191.364L55.455 192.676L56.3 193.85L56.3 198.225Z"/>
</g>
<g class="piece" data-piece="quadrant-SE">
<path d="M470.617 19.41L470.361 23.07L470.049 26.63L469.676 30.183L469.24 33.73L468.743 37.268L468.184 40.797L467.563 44.316L466.881 47.824L466.138 51.319L465.334 54.801L464.47 58.268L463.545 61.719L462.56 65.154L461.515 68.571L460.411 71.969L459.247 75.348L458.025 78.705L456.744 82.041L455.406 85.354L454.009 88.643L452.556 91.907L451.046 95.146L449.479 98.357L447.857 101.541L446.179 104.696L444.447 107.821L442.66 110.915L440.82 113.978L438.926 117.008L436.98 120.005L434.982 122.967L432.932 125.894L430.832 128.785L428.681 131.639L426.481 134.454L424.232 137.231L421.935 139.968L419.591 142.665L417.2 145.32L414.763 147.933L412.281 150.504L409.754 153.03L407.184 155.512L404.57 157.949L401.915 160.34L399.218 162.684L396.481 164.981L393.704 167.23L390.888 169.429L388.034 171.58L385.143 173.68L382.216 175.729L379.254 177.727L376.257 179.673L373.227 181.567L370.164 183.407L367.069 185.193L363.944 186.926L360.789 188.603L357.605 190.225L354.394 191.791L351.155 193.301L347.891 194.755L344.602 196.151L341.288 197.489L337.953 198.77L334.595 199.992L331.216 201.155L327.818 202.259L324.401 203.303L320.966 204.288L317.514 205.213L314.047 206.077L310.566 206.881L307.071 207.624L303.563 208.305L300.044 208.926L296.515 209.485L292.976 209.982L289.43 210.417L285.876 210.79L282.316 211.102L278.752 211.351L275.184 211.538L271.613 211.662L268.04 211.725L264.467 211.725L260.894 211.662L257.323 211.537L253.67 211.346L253.67 161.09L249.564 161.09L248.43 161.912L247.085 162.431L245.652 162.59L244.227 162.376L242.903 161.805L241.769 160.915L240.901 159.764L240.355 158.43L240.169 157L240.355 155.57L240.901 154.236L241.769 153.085L242.903 152.195L244.227 151.624L245.652 151.41L247.085 151.569L248.43 152.088L249.564 152.91L253.67 152.91L253.67 110.96L258.045 110.96L259.218 111.805L260.531 112.307L261.929 112.458L263.318 112.247L264.608 111.688L265.712 110.818L266.558 109.695L267.089 108.394L267.269 107L267.089 105.606L266.558 104.305L265.712 103.182L264.608 102.312L263.318 101.753L261.929 101.542L260.531 101.693L259.218 102.195L258.045 103.04L253.67 103.04L253.67 61.09L249.564 61.09L248.43 61.912L247.085 62.431L245.652 62.59L244.227 62.376L242.903 61.805L241.769 60.915L240.901 59.764L240.355 58.43L240.169 57L240.355 55.57L240.901 54.236L241.769 53.085L242.903 52.195L244.227 51.624L245.652 51.41L247.085 51.569L248.43 52.088L249.564 52.91L253.67 52.91L253.67 19.41L312.3 19.41L312.3 23.784L311.455 24.958L310.953 26.271L310.802 27.668L311.013 29.058L311.572 30.348L312.442 31.452L313.565 32.297L314.866 32.828L316.26 33.009L317.654 32.828L318.956 32.297L320.078 31.452L320.948 30.348L321.507 29.058L321.718 27.668L321.568 26.271L321.065 24.958L320.22 23.784L320.22 19.41L362.17 19.41L362.17 15.304L361.348 14.17L360.829 12.825L360.671 11.392L360.884 9.966L361.455 8.643L362.345 7.509L363.496 6.64L364.831 6.095L366.26 5.909L367.69 6.095L369.024 6.64L370.175 7.509L371.066 8.643L371.637 9.966L371.85 11.392L371.692 12.825L371.172 14.17L370.35 15.304L370.35 19.41L412.3 19.41L412.3 23.784L411.455 24.958L410.953 26.271L410.802 27.668L411.013 29.058L411.572 30.348L412.442 31.452L413.565 32.297L414.866 32.828L416.26 33.009L417.654 32.828L418.956 32.297L420.078 31.452L420.948 30.348L421.507 29.058L421.718 27.668L421.568 26.271L421.065 24.958L420.22 23.784L420.22 19.41Z"/>
</g>
<g class="piece" data-piece="island-4">
<path d="M474.859 9.418L474.788 9.066L474.725 8.702L474.687 8.34L474.685 7.98L474.731 7.625L474.83 7.283L474.989 6.963L475.21 6.672L475.518 6.475L475.847 6.34L476.192 6.262L476.542 6.234L476.895 6.245L477.247 6.286L477.603 6.343L477.963 6.404L478.751 6.461L479.544 6.398L480.347 6.329L481.151 6.329L481.951 6.329L482.751 6.329L483.551 6.329L483.991 6.329L483.991 10.829L490.111 10.829L490.111 6.329L490.751 6.329L491.551 6.329L492.351 6.329L493.151 6.329L493.948 6.329L494.751 6.275L495.563 6.324L496.372 6.496L497.172 6.717L497.959 6.873L498.735 6.856L499.517 6.589L500.318 6.212L501.135 5.959L501.955 5.91L502.767 6.022L503.567 6.191L504.359 6.313L505.152 6.329L505.951 6.329L506.751 6.329L507.551 6.329L508.351 6.329L508.991 6.329L508.991 10.829L515.111 10.829L515.111 6.329L515.551 6.329L516.351 6.329L517.151 6.329L517.951 6.329L518.748 6.329L519.541 6.269L520.341 6.147L521.153 6.081L521.543 6.107L521.908 6.191L522.239 6.325L522.527 6.501L522.769 6.71L522.962 6.939L523.106 7.178L523.204 7.41L523.302 7.605L523.395 7.801L523.491 8.002L523.594 8.218L523.705 8.46L523.821 8.735L523.936 9.046L524.04 9.399L524.207 10.206L524.267 11.017L524.241 11.82L524.241 12.619L524.241 13.419L524.241 14.219L524.241 15.019L524.241 15.459L519.741 15.459L519.741 21.579L524.241 21.579L524.241 22.219L524.241 23.019L524.241 23.819L524.241 24.619L524.241 25.424L524.143 26.229L524.062 27.021L524.097 27.806L524.279 28.593L524.568 29.388L524.856 30.199L524.928 31.026L524.714 31.848L524.373 32.651L524.109 33.439L523.997 34.223L524.033 35.01L524.15 35.807L524.241 36.614L524.241 37.419L524.241 38.219L524.241 39.019L524.241 39.819L524.241 40.459L519.741 40.459L519.741 46.579L524.241 46.579L524.241 47.019L524.241 47.819L524.241 48.619L524.241 49.419L524.241 50.219L524.239 51.024L524.14 51.833L523.972 52.636L523.888 52.982L523.803 53.291L523.724 53.569L523.652 53.823L523.586 54.062L523.52 54.295L523.447 54.531L523.356 54.774L523.24 55.035L523.07 55.288L522.849 55.518L522.578 55.714L522.265 55.866L521.916 55.966L521.539 56.01L521.146 55.998L520.337 55.876L519.542 55.749L518.749 55.709L517.951 55.709L517.151 55.709L516.351 55.709L515.551 55.709L515.111 55.709L515.111 51.209L508.991 51.209L508.991 55.709L508.351 55.709L507.551 55.709L506.751 55.709L505.951 55.709L505.154 55.709L504.362 55.76L503.566 55.896L502.76 56.029L501.944 56.05L501.125 55.891L500.316 55.563L499.524 55.218L498.749 55.071L497.971 55.188L497.177 55.427L496.371 55.662L495.558 55.795L494.746 55.79L493.947 55.709L493.151 55.709L492.351 55.709L491.551 55.709L490.751 55.709L490.111 55.709L490.111 51.209L483.991 51.209L483.991 55.709L483.551 55.709L482.751 55.709L481.951 55.709L481.151 55.709L480.348 55.709L479.547 55.651L478.757 55.635L477.966 55.749L477.596 55.828L477.227 55.891L476.861 55.925L476.498 55.919L476.143 55.863L475.805 55.75L475.493 55.578L475.214 55.345L475.03 55.029L474.908 54.698L474.84 54.355L474.819 54.009L474.834 53.662L474.872 53.315L474.923 52.966L474.975 52.609L475.01 51.821L474.931 51.027L474.861 50.223L474.861 49.419L474.861 48.619L474.861 47.819L474.861 47.019L474.861 46.579L479.361 46.579L479.361 40.459L474.861 40.459L474.861 39.819L474.861 39.019L474.861 38.219L474.861 37.419L474.861 36.621L474.819 35.817L474.887 35.005L475.065 34.198L475.273 33.4L475.393 32.615L475.329 31.839L475.028 31.054L474.654 30.249L474.438 29.431L474.43 28.611L474.571 27.801L474.748 27.003L474.859 26.212L474.861 25.419L474.861 24.619L474.861 23.819L474.861 23.019L474.861 22.219L474.861 21.579L479.361 21.579L479.361 15.459L474.861 15.459L474.861 15.019L474.861 14.219L474.861 13.419L474.861 12.619L474.861 11.822L474.797 11.029L474.68 10.215Z"/>
</g>
<g class="piece" data-piece="whirlpool-2">
<path d="M528.747 7.998L528.761 7.672L528.804 7.371L528.877 7.096L528.979 6.848L529.111 6.628L529.273 6.436L529.465 6.274L529.686 6.142L529.934 6.039L530.208 5.967L530.509 5.924L530.835 5.91L551.039 5.91L551.365 5.924L551.666 5.967L551.941 6.039L552.189 6.142L552.409 6.274L552.601 6.436L552.763 6.628L552.896 6.848L552.998 7.096L553.07 7.371L553.113 7.672L553.127 7.998L553.127 28.202L553.113 28.528L553.07 28.829L552.998 29.104L552.896 29.352L552.763 29.572L552.601 29.764L552.409 29.926L552.189 30.058L551.941 30.161L551.666 30.233L551.365 30.276L551.039 30.29L530.835 30.29L530.509 30.276L530.208 30.233L529.934 30.161L529.686 30.058L529.465 29.926L529.273 29.764L529.111 29.572L528.979 29.352L528.877 29.104L528.804 28.829L528.761 28.528L528.747 28.202Z"/>
</g>
<g class="piece" data-piece="whirlpool-3">
<path d="M556.947 7.998L556.961 7.672L557.004 7.371L557.077 7.096L557.179 6.848L557.311 6.628L557.473 6.436L557.665 6.274L557.886 6.142L558.134 6.039L558.408 5.967L558.709 5.924L559.035 5.91L579.239 5.91L579.565 5.924L579.866 5.967L580.141 6.039L580.389 6.142L580.609 6.274L580.801 6.436L580.963 6.628L581.096 6.848L581.198 7.096L581.27 7.371L581.313 7.672L581.327 7.998L581.327 28.202L581.313 28.528L581.27 28.829L581.198 29.104L581.096 29.352L580.963 29.572L580.801 29.764L580.609 29.926L580.389 30.058L580.141 30.161L579.866 30.233L579.565 30.276L579.239 30.29L559.035 30.29L558.709 30.276L558.408 30.233L558.134 30.161L557.886 30.058L557.665 29.926L557.473 29.764L557.311 29.572L557.179 29.352L557.077 29.104L557.004 28.829L556.961 28.528L556.947 28.202Z"/>
</g>
</g>
</svg>
