0
SECTION
2
HEADER
9
$ACADVER
1
AC1015
9
$HANDSEED
5
FFFF
9
$INSUNITS
70
4
9
$EXTMIN
10
0
20
0
30
0
9
$EXTMAX
10
600
20
400
30
0
0
ENDSEC
0
SECTION
2
TABLES
0
TABLE
2
LAYER
5
100
100
AcDbSymbolTable
70
2
0
LAYER
5
101
100
AcDbSymbolTableRecord
100
AcDbLayerTableRecord
2
CUT
70
0
62
1
6
Continuous
370
-3
0
LAYER
5
102
100
AcDbSymbolTableRecord
100
AcDbLayerTableRecord
2
RASTER
70
0
62
7
6
Continuous
370
-3
0
ENDTAB
0
ENDSEC
0
SECTION
2
ENTITIES
0
LWPOLYLINE
5
103
100
AcDbEntity
8
CUT
100
AcDbPolyline
90
28
70
1
10
8.91
20
394.09
10
57.09
20
394.09
10
57.09
20
391.09
10
60.09
20
391.09
10
60.09
20
387.91
10
57.09
20
387.91
10
57.09
20
384.91
10
51.757
20
384.91
10
51.757
20
381.91
10
46.243
20
381.91
10
46.243
20
384.91
10
41.09
20
384.91
10
41.09
20
381.91
10
35.577
20
381.91
10
35.577
20
384.91
10
30.423
20
384.91
10
30.423
20
381.91
10
24.91
20
381.91
10
24.91
20
384.91
10
19.757
20
384.91
10
19.757
20
381.91
10
14.243
20
381.91
10
14.243
20
384.91
10
8.91
20
384.91
10
8.91
20
387.91
10
5.91
20
387.91
10
5.91
20
391.09
10
8.91
20
391.09
0
HATCH
5
104
100
AcDbEntity
8
RASTER
100
AcDbHatch
10
0
20
0
30
0
210
0
220
0
230
1
2
SOLID
70
1
71
0
91
1
92
2
72
0
73
1
93
4
10
10
20
390.6
10
56
20
390.6
10
56
20
390.2
10
10
20
390.2
97
0
75
0
76
1
98
1
10
0
20
0
0
LWPOLYLINE
5
105
100
AcDbEntity
8
CUT
100
AcDbPolyline
90
40
70
1
10
67
20
394.09
10
141
20
394.09
10
144.09
20
394.09
10
144.09
20
390.91
10
141.09
20
390.91
10
141.09
20
388.09
10
144.09
20
388.09
10
144.09
20
384.91
10
141
20
384.91
10
135.398
20
384.91
10
135.398
20
381.91
10
129.525
20
381.91
10
129.525
20
384.91
10
124.013
20
384.91
10
124.013
20
381.91
10
118.141
20
381.91
10
118.141
20
384.91
10
112.628
20
384.91
10
112.628
20
381.91
10
106.756
20
381.91
10
106.756
20
384.91
10
101.244
20
384.91
10
101.244
20
381.91
10
95.372
20
381.91
10
95.372
20
384.91
10
89.859
20
384.91
10
89.859
20
381.91
10
83.987
20
381.91
10
83.987
20
384.91
10
78.475
20
384.91
10
78.475
20
381.91
10
72.602
20
381.91
10
72.602
20
384.91
10
67
20
384.91
10
63.91
20
384.91
10
63.91
20
388.09
10
66.91
20
388.09
10
66.91
20
390.91
10
63.91
20
390.91
10
63.91
20
394.09
0
HATCH
5
106
100
AcDbEntity
8
RASTER
100
AcDbHatch
10
0
20
0
30
0
210
0
220
0
230
1
2
SOLID
70
1
71
0
91
1
92
2
72
0
73
1
93
4
10
68
20
390.8
10
140
20
390.8
10
140
20
390.2
10
68
20
390.2
97
0
75
0
76
1
98
1
10
0
20
0
0
HATCH
5
107
100
AcDbEntity
8
RASTER
100
AcDbHatch
10
0
20
0
30
0
210
0
220
0
230
1
2
SOLID
70
1
71
0
91
1
92
2
72
0
73
1
93
4
10
68
20
387.3
10
140
20
387.3
10
140
20
386.7
10
68
20
386.7
97
0
75
0
76
1
98
1
10
0
20
0
0
LWPOLYLINE
5
108
100
AcDbEntity
8
CUT
100
AcDbPolyline
90
28
70
1
10
150.91
20
394.09
10
199.09
20
394.09
10
199.09
20
391.09
10
202.09
20
391.09
10
202.09
20
387.91
10
199.09
20
387.91
10
199.09
20
384.91
10
193.757
20
384.91
10
193.757
20
381.91
10
188.243
20
381.91
10
188.243
20
384.91
10
183.09
20
384.91
10
183.09
20
381.91
10
177.577
20
381.91
10
177.577
20
384.91
10
172.423
20
384.91
10
172.423
20
381.91
10
166.91
20
381.91
10
166.91
20
384.91
10
161.757
20
384.91
10
161.757
20
381.91
10
156.243
20
381.91
10
156.243
20
384.91
10
150.91
20
384.91
10
150.91
20
387.91
10
147.91
20
387.91
10
147.91
20
391.09
10
150.91
20
391.09
0
HATCH
5
109
100
AcDbEntity
8
RASTER
100
AcDbHatch
10
0
20
0
30
0
210
0
220
0
230
1
2
SOLID
70
1
71
0
91
1
92
2
72
0
73
1
93
4
10
152
20
390.6
10
198
20
390.6
10
198
20
390.2
10
152
20
390.2
97
0
75
0
76
1
98
1
10
0
20
0
0
LWPOLYLINE
5
10A
100
AcDbEntity
8
CUT
100
AcDbPolyline
90
28
70
1
10
208.91
20
394.09
10
257.09
20
394.09
10
257.09
20
391.09
10
260.09
20
391.09
10
260.09
20
387.91
10
257.09
20
387.91
10
257.09
20
384.91
10
251.757
20
384.91
10
251.757
20
381.91
10
246.243
20
381.91
10
246.243
20
384.91
10
241.09
20
384.91
10
241.09
20
381.91
10
235.577
20
381.91
10
235.577
20
384.91
10
230.423
20
384.91
10
230.423
20
381.91
10
224.91
20
381.91
10
224.91
20
384.91
10
219.757
20
384.91
10
219.757
20
381.91
10
214.243
20
381.91
10
214.243
20
384.91
10
208.91
20
384.91
10
208.91
20
387.91
10
205.91
20
387.91
10
205.91
20
391.09
10
208.91
20
391.09
0
HATCH
5
10B
100
AcDbEntity
8
RASTER
100
AcDbHatch
10
0
20
0
30
0
210
0
220
0
230
1
2
SOLID
70
1
71
0
91
1
92
2
72
0
73
1
93
4
10
210
20
390.6
10
256
20
390.6
10
256
20
390.2
10
210
20
390.2
97
0
75
0
76
1
98
1
10
0
20
0
0
LWPOLYLINE
5
10C
100
AcDbEntity
8
CUT
100
AcDbPolyline
90
64
70
1
10
263.91
20
387.69
10
278.8
20
387.69
10
278.86
20
387.69
10
278.86
20
390.906
10
278.968
20
391.726
10
279.287
20
392.495
10
279.794
20
393.156
10
280.455
20
393.663
10
281.224
20
393.982
10
282.044
20
394.09
10
290.356
20
394.09
10
291.176
20
393.982
10
291.945
20
393.663
10
292.606
20
393.156
10
293.113
20
392.495
10
293.432
20
391.726
10
293.54
20
390.906
10
293.54
20
387.69
10
293.6
20
387.69
10
308.4
20
387.69
10
308.46
20
387.69
10
308.46
20
390.906
10
308.568
20
391.726
10
308.887
20
392.495
10
309.394
20
393.156
10
310.055
20
393.663
10
310.824
20
393.982
10
311.644
20
394.09
10
319.956
20
394.09
10
320.776
20
393.982
10
321.545
20
393.663
10
322.206
20
393.156
10
322.713
20
392.495
10
323.032
20
391.726
10
323.14
20
390.906
10
323.14
20
387.69
10
323.2
20
387.69
10
338.09
20
387.69
10
338.09
20
385.11
10
332.398
20
385.11
10
332.398
20
382.11
10
326.525
20
382.11
10
326.525
20
385.11
10
321.013
20
385.11
10
321.013
20
382.11
10
315.141
20
382.11
10
315.141
20
385.11
10
309.628
20
385.11
10
309.628
20
382.11
10
303.756
20
382.11
10
303.756
20
385.11
10
298.244
20
385.11
10
298.244
20
382.11
10
292.372
20
382.11
10
292.372
20
385.11
10
286.859
20
385.11
10
286.859
20
382.11
10
280.987
20
382.11
10
280.987
20
385.11
10
275.475
20
385.11
10
275.475
20
382.11
10
269.602
20
382.11
10
269.602
20
385.11
10
263.91
20
385.11
0
CIRCLE
5
10D
100
AcDbEntity
8
CUT
100
AcDbCircle
10
286.2
20
390.9
30
0
40
1.56
0
CIRCLE
5
10E
100
AcDbEntity
8
CUT
100
AcDbCircle
10
315.8
20
390.9
30
0
40
1.56
0
LWPOLYLINE
5
10F
100
AcDbEntity
8
CUT
100
AcDbPolyline
90
64
70
1
10
341.91
20
387.69
10
356.8
20
387.69
10
356.86
20
387.69
10
356.86
20
390.906
10
356.968
20
391.726
10
357.287
20
392.495
10
357.794
20
393.156
10
358.455
20
393.663
10
359.224
20
393.982
10
360.044
20
394.09
10
368.356
20
394.09
10
369.176
20
393.982
10
369.945
20
393.663
10
370.606
20
393.156
10
371.113
20
392.495
10
371.432
20
391.726
10
371.54
20
390.906
10
371.54
20
387.69
10
371.6
20
387.69
10
386.4
20
387.69
10
386.46
20
387.69
10
386.46
20
390.906
10
386.568
20
391.726
10
386.887
20
392.495
10
387.394
20
393.156
10
388.055
20
393.663
10
388.824
20
393.982
10
389.644
20
394.09
10
397.956
20
394.09
10
398.776
20
393.982
10
399.545
20
393.663
10
400.206
20
393.156
10
400.713
20
392.495
10
401.032
20
391.726
10
401.14
20
390.906
10
401.14
20
387.69
10
401.2
20
387.69
10
416.09
20
387.69
10
416.09
20
385.11
10
410.398
20
385.11
10
410.398
20
382.11
10
404.525
20
382.11
10
404.525
20
385.11
10
399.013
20
385.11
10
399.013
20
382.11
10
393.141
20
382.11
10
393.141
20
385.11
10
387.628
20
385.11
10
387.628
20
382.11
10
381.756
20
382.11
10
381.756
20
385.11
10
376.244
20
385.11
10
376.244
20
382.11
10
370.372
20
382.11
10
370.372
20
385.11
10
364.859
20
385.11
10
364.859
20
382.11
10
358.987
20
382.11
10
358.987
20
385.11
10
353.475
20
385.11
10
353.475
20
382.11
10
347.602
20
382.11
10
347.602
20
385.11
10
341.91
20
385.11
0
CIRCLE
5
110
100
AcDbEntity
8
CUT
100
AcDbCircle
10
364.2
20
390.9
30
0
40
1.56
0
CIRCLE
5
111
100
AcDbEntity
8
CUT
100
AcDbCircle
10
393.8
20
390.9
30
0
40
1.56
0
LWPOLYLINE
5
112
100
AcDbEntity
8
CUT
100
AcDbPolyline
90
64
70
1
10
419.91
20
387.69
10
434.8
20
387.69
10
434.86
20
387.69
10
434.86
20
390.906
10
434.968
20
391.726
10
435.287
20
392.495
10
435.794
20
393.156
10
436.455
20
393.663
10
437.224
20
393.982
10
438.044
20
394.09
10
446.356
20
394.09
10
447.176
20
393.982
10
447.945
20
393.663
10
448.606
20
393.156
10
449.113
20
392.495
10
449.432
20
391.726
10
449.54
20
390.906
10
449.54
20
387.69
10
449.6
20
387.69
10
464.4
20
387.69
10
464.46
20
387.69
10
464.46
20
390.906
10
464.568
20
391.726
10
464.887
20
392.495
10
465.394
20
393.156
10
466.055
20
393.663
10
466.824
20
393.982
10
467.644
20
394.09
10
475.956
20
394.09
10
476.776
20
393.982
10
477.545
20
393.663
10
478.206
20
393.156
10
478.713
20
392.495
10
479.032
20
391.726
10
479.14
20
390.906
10
479.14
20
387.69
10
479.2
20
387.69
10
494.09
20
387.69
10
494.09
20
385.11
10
488.398
20
385.11
10
488.398
20
382.11
10
482.525
20
382.11
10
482.525
20
385.11
10
477.013
20
385.11
10
477.013
20
382.11
10
471.141
20
382.11
10
471.141
20
385.11
10
465.628
20
385.11
10
465.628
20
382.11
10
459.756
20
382.11
10
459.756
20
385.11
10
454.244
20
385.11
10
454.244
20
382.11
10
448.372
20
382.11
10
448.372
20
385.11
10
442.859
20
385.11
10
442.859
20
382.11
10
436.987
20
382.11
10
436.987
20
385.11
10
431.475
20
385.11
10
431.475
20
382.11
10
425.602
20
382.11
10
425.602
20
385.11
10
419.91
20
385.11
0
CIRCLE
5
113
100
AcDbEntity
8
CUT
100
AcDbCircle
10
442.2
20
390.9
30
0
40
1.56
0
CIRCLE
5
114
100
AcDbEntity
8
CUT
100
AcDbCircle
10
471.8
20
390.9
30
0
40
1.56
0
LWPOLYLINE
5
115
100
AcDbEntity
8
CUT
100
AcDbPolyline
90
64
70
1
10
497.91
20
387.69
10
512.8
20
387.69
10
512.86
20
387.69
10
512.86
20
390.906
10
512.968
20
391.726
10
513.287
20
392.495
10
513.794
20
393.156
10
514.455
20
393.663
10
515.224
20
393.982
10
516.044
20
394.09
10
524.356
20
394.09
10
525.176
20
393.982
10
525.945
20
393.663
10
526.606
20
393.156
10
527.113
20
392.495
10
527.432
20
391.726
10
527.54
20
390.906
10
527.54
20
387.69
10
527.6
20
387.69
10
542.4
20
387.69
10
542.46
20
387.69
10
542.46
20
390.906
10
542.568
20
391.726
10
542.887
20
392.495
10
543.394
20
393.156
10
544.055
20
393.663
10
544.824
20
393.982
10
545.644
20
394.09
10
553.956
20
394.09
10
554.776
20
393.982
10
555.545
20
393.663
10
556.206
20
393.156
10
556.713
20
392.495
10
557.032
20
391.726
10
557.14
20
390.906
10
557.14
20
387.69
10
557.2
20
387.69
10
572.09
20
387.69
10
572.09
20
385.11
10
566.398
20
385.11
10
566.398
20
382.11
10
560.525
20
382.11
10
560.525
20
385.11
10
555.013
20
385.11
10
555.013
20
382.11
10
549.141
20
382.11
10
549.141
20
385.11
10
543.628
20
385.11
10
543.628
20
382.11
10
537.756
20
382.11
10
537.756
20
385.11
10
532.244
20
385.11
10
532.244
20
382.11
10
526.372
20
382.11
10
526.372
20
385.11
10
520.859
20
385.11
10
520.859
20
382.11
10
514.987
20
382.11
10
514.987
20
385.11
10
509.475
20
385.11
10
509.475
20
382.11
10
503.602
20
382.11
10
503.602
20
385.11
10
497.91
20
385.11
0
CIRCLE
5
116
100
AcDbEntity
8
CUT
100
AcDbCircle
10
520.2
20
390.9
30
0
40
1.56
0
CIRCLE
5
117
100
AcDbEntity
8
CUT
100
AcDbCircle
10
549.8
20
390.9
30
0
40
1.56
0
LWPOLYLINE
5
118
100
AcDbEntity
8
CUT
100
AcDbPolyline
90
6
70
1
10
59.015
20
373.589
10
59.015
20
373.411
10
32.5
20
368.909
10
5.985
20
373.411
10
5.985
20
373.589
10
32.5
20
378.091
0
CIRCLE
5
119
100
AcDbEntity
8
CUT
100
AcDbCircle
10
32.5
20
373.5
30
0
40
1.56
0
HATCH
5
11A
100
AcDbEntity
8
RASTER
100
AcDbHatch
10
0
20
0
30
0
210
0
220
0
230
1
2
SOLID
70
1
71
0
91
1
92
2
72
0
73
1
93
14
10
59
20
373.5
10
32.5
20
369
10
32.5
20
371.2
10
32.5
20
371.2
10
33.38
20
371.375
10
34.126
20
371.874
10
34.625
20
372.62
10
34.8
20
373.5
10
34.625
20
374.38
10
34.126
20
375.126
10
33.38
20
375.625
10
32.5
20
375.8
10
32.5
20
375.8
10
32.5
20
378
97
0
75
0
76
1
98
1
10
0
20
0
0
LWPOLYLINE
5
11B
100
AcDbEntity
8
CUT
100
AcDbPolyline
90
52
70
1
10
62.91
20
377.602
10
62.913
20
377.672
10
62.923
20
377.74
10
62.939
20
377.804
10
62.964
20
377.863
10
62.996
20
377.916
10
63.036
20
377.964
10
63.084
20
378.004
10
63.137
20
378.036
10
63.196
20
378.061
10
63.26
20
378.077
10
63.328
20
378.087
10
63.398
20
378.09
10
110.602
20
378.09
10
110.672
20
378.087
10
110.74
20
378.077
10
110.804
20
378.061
10
110.863
20
378.036
10
110.916
20
378.004
10
110.964
20
377.964
10
111.004
20
377.916
10
111.036
20
377.863
10
111.061
20
377.804
10
111.077
20
377.74
10
111.087
20
377.672
10
111.09
20
377.602
10
111.09
20
373.398
10
111.087
20
373.328
10
111.077
20
373.26
10
111.061
20
373.196
10
111.036
20
373.137
10
111.004
20
373.084
10
110.964
20
373.036
10
110.916
20
372.996
10
110.863
20
372.964
10
110.804
20
372.939
10
110.74
20
372.923
10
110.672
20
372.913
10
110.602
20
372.91
10
63.398
20
372.91
10
63.328
20
372.913
10
63.26
20
372.923
10
63.196
20
372.939
10
63.137
20
372.964
10
63.084
20
372.996
10
63.036
20
373.036
10
62.996
20
373.084
10
62.964
20
373.137
10
62.939
20
373.196
10
62.923
20
373.26
10
62.913
20
373.328
10
62.91
20
373.398
0
LWPOLYLINE
5
11C
100
AcDbEntity
8
CUT
100
AcDbPolyline
90
52
70
1
10
114.91
20
377.602
10
114.913
20
377.672
10
114.923
20
377.74
10
114.939
20
377.804
10
114.964
20
377.863
10
114.996
20
377.916
10
115.036
20
377.964
10
115.084
20
378.004
10
115.137
20
378.036
10
115.196
20
378.061
10
115.26
20
378.077
10
115.328
20
378.087
10
115.398
20
378.09
10
162.602
20
378.09
10
162.672
20
378.087
10
162.74
20
378.077
10
162.804
20
378.061
10
162.863
20
378.036
10
162.916
20
378.004
10
162.964
20
377.964
10
163.004
20
377.916
10
163.036
20
377.863
10
163.061
20
377.804
10
163.077
20
377.74
10
163.087
20
377.672
10
163.09
20
377.602
10
163.09
20
373.398
10
163.087
20
373.328
10
163.077
20
373.26
10
163.061
20
373.196
10
163.036
20
373.137
10
163.004
20
373.084
10
162.964
20
373.036
10
162.916
20
372.996
10
162.863
20
372.964
10
162.804
20
372.939
10
162.74
20
372.923
10
162.672
20
372.913
10
162.602
20
372.91
10
115.398
20
372.91
10
115.328
20
372.913
10
115.26
20
372.923
10
115.196
20
372.939
10
115.137
20
372.964
10
115.084
20
372.996
10
115.036
20
373.036
10
114.996
20
373.084
10
114.964
20
373.137
10
114.939
20
373.196
10
114.923
20
373.26
10
114.913
20
373.328
10
114.91
20
373.398
0
LWPOLYLINE
5
11D
100
AcDbEntity
8
CUT
100
AcDbPolyline
90
52
70
1
10
166.91
20
377.602
10
166.913
20
377.672
10
166.923
20
377.74
10
166.939
20
377.804
10
166.964
20
377.863
10
166.996
20
377.916
10
167.036
20
377.964
10
167.084
20
378.004
10
167.137
20
378.036
10
167.196
20
378.061
10
167.26
20
378.077
10
167.328
20
378.087
10
167.398
20
378.09
10
214.602
20
378.09
10
214.672
20
378.087
10
214.74
20
378.077
10
214.804
20
378.061
10
214.863
20
378.036
10
214.916
20
378.004
10
214.964
20
377.964
10
215.004
20
377.916
10
215.036
20
377.863
10
215.061
20
377.804
10
215.077
20
377.74
10
215.087
20
377.672
10
215.09
20
377.602
10
215.09
20
373.398
10
215.087
20
373.328
10
215.077
20
373.26
10
215.061
20
373.196
10
215.036
20
373.137
10
215.004
20
373.084
10
214.964
20
373.036
10
214.916
20
372.996
10
214.863
20
372.964
10
214.804
20
372.939
10
214.74
20
372.923
10
214.672
20
372.913
10
214.602
20
372.91
10
167.398
20
372.91
10
167.328
20
372.913
10
167.26
20
372.923
10
167.196
20
372.939
10
167.137
20
372.964
10
167.084
20
372.996
10
167.036
20
373.036
10
166.996
20
373.084
10
166.964
20
373.137
10
166.939
20
373.196
10
166.923
20
373.26
10
166.913
20
373.328
10
166.91
20
373.398
0
LWPOLYLINE
5
11E
100
AcDbEntity
8
CUT
100
AcDbPolyline
90
52
70
1
10
218.91
20
377.602
10
218.913
20
377.672
10
218.923
20
377.74
10
218.939
20
377.804
10
218.964
20
377.863
10
218.996
20
377.916
10
219.036
20
377.964
10
219.084
20
378.004
10
219.137
20
378.036
10
219.196
20
378.061
10
219.26
20
378.077
10
219.328
20
378.087
10
219.398
20
378.09
10
266.602
20
378.09
10
266.672
20
378.087
10
266.74
20
378.077
10
266.804
20
378.061
10
266.863
20
378.036
10
266.916
20
378.004
10
266.964
20
377.964
10
267.004
20
377.916
10
267.036
20
377.863
10
267.061
20
377.804
10
267.077
20
377.74
10
267.087
20
377.672
10
267.09
20
377.602
10
267.09
20
373.398
10
267.087
20
373.328
10
267.077
20
373.26
10
267.061
20
373.196
10
267.036
20
373.137
10
267.004
20
373.084
10
266.964
20
373.036
10
266.916
20
372.996
10
266.863
20
372.964
10
266.804
20
372.939
10
266.74
20
372.923
10
266.672
20
372.913
10
266.602
20
372.91
10
219.398
20
372.91
10
219.328
20
372.913
10
219.26
20
372.923
10
219.196
20
372.939
10
219.137
20
372.964
10
219.084
20
372.996
10
219.036
20
373.036
10
218.996
20
373.084
10
218.964
20
373.137
10
218.939
20
373.196
10
218.923
20
373.26
10
218.913
20
373.328
10
218.91
20
373.398
0
LWPOLYLINE
5
11F
100
AcDbEntity
8
CUT
100
AcDbPolyline
90
52
70
1
10
270.91
20
377.602
10
270.913
20
377.672
10
270.923
20
377.74
10
270.939
20
377.804
10
270.964
20
377.863
10
270.996
20
377.916
10
271.036
20
377.964
10
271.084
20
378.004
10
271.137
20
378.036
10
271.196
20
378.061
10
271.26
20
378.077
10
271.328
20
378.087
10
271.398
20
378.09
10
318.602
20
378.09
10
318.672
20
378.087
10
318.74
20
378.077
10
318.804
20
378.061
10
318.863
20
378.036
10
318.916
20
378.004
10
318.964
20
377.964
10
319.004
20
377.916
10
319.036
20
377.863
10
319.061
20
377.804
10
319.077
20
377.74
10
319.087
20
377.672
10
319.09
20
377.602
10
319.09
20
373.398
10
319.087
20
373.328
10
319.077
20
373.26
10
319.061
20
373.196
10
319.036
20
373.137
10
319.004
20
373.084
10
318.964
20
373.036
10
318.916
20
372.996
10
318.863
20
372.964
10
318.804
20
372.939
10
318.74
20
372.923
10
318.672
20
372.913
10
318.602
20
372.91
10
271.398
20
372.91
10
271.328
20
372.913
10
271.26
20
372.923
10
271.196
20
372.939
10
271.137
20
372.964
10
271.084
20
372.996
10
271.036
20
373.036
10
270.996
20
373.084
10
270.964
20
373.137
10
270.939
20
373.196
10
270.923
20
373.26
10
270.913
20
373.328
10
270.91
20
373.398
0
LWPOLYLINE
5
120
100
AcDbEntity
8
CUT
100
AcDbPolyline
90
52
70
1
10
322.91
20
377.602
10
322.913
20
377.672
10
322.923
20
377.74
10
322.939
20
377.804
10
322.964
20
377.863
10
322.996
20
377.916
10
323.036
20
377.964
10
323.084
20
378.004
10
323.137
20
378.036
10
323.196
20
378.061
10
323.26
20
378.077
10
323.328
20
378.087
10
323.398
20
378.09
10
370.602
20
378.09
10
370.672
20
378.087
10
370.74
20
378.077
10
370.804
20
378.061
10
370.863
20
378.036
10
370.916
20
378.004
10
370.964
20
377.964
10
371.004
20
377.916
10
371.036
20
377.863
10
371.061
20
377.804
10
371.077
20
377.74
10
371.087
20
377.672
10
371.09
20
377.602
10
371.09
20
373.398
10
371.087
20
373.328
10
371.077
20
373.26
10
371.061
20
373.196
10
371.036
20
373.137
10
371.004
20
373.084
10
370.964
20
373.036
10
370.916
20
372.996
10
370.863
20
372.964
10
370.804
20
372.939
10
370.74
20
372.923
10
370.672
20
372.913
10
370.602
20
372.91
10
323.398
20
372.91
10
323.328
20
372.913
10
323.26
20
372.923
10
323.196
20
372.939
10
323.137
20
372.964
10
323.084
20
372.996
10
323.036
20
373.036
10
322.996
20
373.084
10
322.964
20
373.137
10
322.939
20
373.196
10
322.923
20
373.26
10
322.913
20
373.328
10
322.91
20
373.398
0
LWPOLYLINE
5
121
100
AcDbEntity
8
CUT
100
AcDbPolyline
90
52
70
1
10
374.91
20
377.602
10
374.913
20
377.672
10
374.923
20
377.74
10
374.939
20
377.804
10
374.964
20
377.863
10
374.996
20
377.916
10
375.036
20
377.964
10
375.084
20
378.004
10
375.137
20
378.036
10
375.196
20
378.061
10
375.26
20
378.077
10
375.328
20
378.087
10
375.398
20
378.09
10
422.602
20
378.09
10
422.672
20
378.087
10
422.74
20
378.077
10
422.804
20
378.061
10
422.863
20
378.036
10
422.916
20
378.004
10
422.964
20
377.964
10
423.004
20
377.916
10
423.036
20
377.863
10
423.061
20
377.804
10
423.077
20
377.74
10
423.087
20
377.672
10
423.09
20
377.602
10
423.09
20
373.398
10
423.087
20
373.328
10
423.077
20
373.26
10
423.061
20
373.196
10
423.036
20
373.137
10
423.004
20
373.084
10
422.964
20
373.036
10
422.916
20
372.996
10
422.863
20
372.964
10
422.804
20
372.939
10
422.74
20
372.923
10
422.672
20
372.913
10
422.602
20
372.91
10
375.398
20
372.91
10
375.328
20
372.913
10
375.26
20
372.923
10
375.196
20
372.939
10
375.137
20
372.964
10
375.084
20
372.996
10
375.036
20
373.036
10
374.996
20
373.084
10
374.964
20
373.137
10
374.939
20
373.196
10
374.923
20
373.26
10
374.913
20
373.328
10
374.91
20
373.398
0
LWPOLYLINE
5
122
100
AcDbEntity
8
CUT
100
AcDbPolyline
90
52
70
1
10
426.91
20
377.602
10
426.913
20
377.672
10
426.923
20
377.74
10
426.939
20
377.804
10
426.964
20
377.863
10
426.996
20
377.916
10
427.036
20
377.964
10
427.084
20
378.004
10
427.137
20
378.036
10
427.196
20
378.061
10
427.26
20
378.077
10
427.328
20
378.087
10
427.398
20
378.09
10
474.602
20
378.09
10
474.672
20
378.087
10
474.74
20
378.077
10
474.804
20
378.061
10
474.863
20
378.036
10
474.916
20
378.004
10
474.964
20
377.964
10
475.004
20
377.916
10
475.036
20
377.863
10
475.061
20
377.804
10
475.077
20
377.74
10
475.087
20
377.672
10
475.09
20
377.602
10
475.09
20
373.398
10
475.087
20
373.328
10
475.077
20
373.26
10
475.061
20
373.196
10
475.036
20
373.137
10
475.004
20
373.084
10
474.964
20
373.036
10
474.916
20
372.996
10
474.863
20
372.964
10
474.804
20
372.939
10
474.74
20
372.923
10
474.672
20
372.913
10
474.602
20
372.91
10
427.398
20
372.91
10
427.328
20
372.913
10
427.26
20
372.923
10
427.196
20
372.939
10
427.137
20
372.964
10
427.084
20
372.996
10
427.036
20
373.036
10
426.996
20
373.084
10
426.964
20
373.137
10
426.939
20
373.196
10
426.923
20
373.26
10
426.913
20
373.328
10
426.91
20
373.398
0
ENDSEC
0
EOF
