0
SECTION
2
HEADER
9
$ACADVER
1
AC1009
9
$EXTMIN
10
0
20
0
9
$EXTMAX
10
600
20
400
0
ENDSEC
0
SECTION
2
TABLES
0
TABLE
2
LAYER
70
2
0
LAYER
2
CUT
70
0
62
1
6
CONTINUOUS
0
LAYER
2
RASTER
70
0
62
7
6
CONTINUOUS
0
ENDTAB
0
ENDSEC
0
SECTION
2
ENTITIES
0
POLYLINE
8
CUT
66
1
70
1
0
VERTEX
8
CUT
10
8.91
20
394.09
30
0
0
VERTEX
8
CUT
10
57.09
20
394.09
30
0
0
VERTEX
8
CUT
10
57.09
20
391.09
30
0
0
VERTEX
8
CUT
10
60.09
20
391.09
30
0
0
VERTEX
8
CUT
10
60.09
20
387.91
30
0
0
VERTEX
8
CUT
10
57.09
20
387.91
30
0
0
VERTEX
8
CUT
10
57.09
20
384.91
30
0
0
VERTEX
8
CUT
10
51.757
20
384.91
30
0
0
VERTEX
8
CUT
10
51.757
20
381.91
30
0
0
VERTEX
8
CUT
10
46.243
20
381.91
30
0
0
VERTEX
8
CUT
10
46.243
20
384.91
30
0
0
VERTEX
8
CUT
10
41.09
20
384.91
30
0
0
VERTEX
8
CUT
10
41.09
20
381.91
30
0
0
VERTEX
8
CUT
10
35.577
20
381.91
30
0
0
VERTEX
8
CUT
10
35.577
20
384.91
30
0
0
VERTEX
8
CUT
10
30.423
20
384.91
30
0
0
VERTEX
8
CUT
10
30.423
20
381.91
30
0
0
VERTEX
8
CUT
10
24.91
20
381.91
30
0
0
VERTEX
8
CUT
10
24.91
20
384.91
30
0
0
VERTEX
8
CUT
10
19.757
20
384.91
30
0
0
VERTEX
8
CUT
10
19.757
20
381.91
30
0
0
VERTEX
8
CUT
10
14.243
20
381.91
30
0
0
VERTEX
8
CUT
10
14.243
20
384.91
30
0
0
VERTEX
8
CUT
10
8.91
20
384.91
30
0
0
VERTEX
8
CUT
10
8.91
20
387.91
30
0
0
VERTEX
8
CUT
10
5.91
20
387.91
30
0
0
VERTEX
8
CUT
10
5.91
20
391.09
30
0
0
VERTEX
8
CUT
10
8.91
20
391.09
30
0
0
SEQEND
8
CUT
0
POLYLINE
8
RASTER
66
1
70
1
0
VERTEX
8
RASTER
10
10
20
390.6
30
0
0
VERTEX
8
RASTER
10
56
20
390.6
30
0
0
VERTEX
8
RASTER
10
56
20
390.2
30
0
0
VERTEX
8
RASTER
10
10
20
390.2
30
0
0
SEQEND
8
RASTER
0
POLYLINE
8
CUT
66
1
70
1
0
VERTEX
8
CUT
10
66.91
20
394.09
30
0
0
VERTEX
8
CUT
10
115.09
20
394.09
30
0
0
VERTEX
8
CUT
10
115.09
20
391.09
30
0
0
VERTEX
8
CUT
10
118.09
20
391.09
30
0
0
VERTEX
8
CUT
10
118.09
20
387.91
30
0
0
VERTEX
8
CUT
10
115.09
20
387.91
30
0
0
VERTEX
8
CUT
10
115.09
20
384.91
30
0
0
VERTEX
8
CUT
10
109.757
20
384.91
30
0
0
VERTEX
8
CUT
10
109.757
20
381.91
30
0
0
VERTEX
8
CUT
10
104.243
20
381.91
30
0
0
VERTEX
8
CUT
10
104.243
20
384.91
30
0
0
VERTEX
8
CUT
10
99.09
20
384.91
30
0
0
VERTEX
8
CUT
10
99.09
20
381.91
30
0
0
VERTEX
8
CUT
10
93.577
20
381.91
30
0
0
VERTEX
8
CUT
10
93.577
20
384.91
30
0
0
VERTEX
8
CUT
10
88.423
20
384.91
30
0
0
VERTEX
8
CUT
10
88.423
20
381.91
30
0
0
VERTEX
8
CUT
10
82.91
20
381.91
30
0
0
VERTEX
8
CUT
10
82.91
20
384.91
30
0
0
VERTEX
8
CUT
10
77.757
20
384.91
30
0
0
VERTEX
8
CUT
10
77.757
20
381.91
30
0
0
VERTEX
8
CUT
10
72.243
20
381.91
30
0
0
VERTEX
8
CUT
10
72.243
20
384.91
30
0
0
VERTEX
8
CUT
10
66.91
20
384.91
30
0
0
VERTEX
8
CUT
10
66.91
20
387.91
30
0
0
VERTEX
8
CUT
10
63.91
20
387.91
30
0
0
VERTEX
8
CUT
10
63.91
20
391.09
30
0
0
VERTEX
8
CUT
10
66.91
20
391.09
30
0
0
SEQEND
8
CUT
0
POLYLINE
8
RASTER
66
1
70
1
0
VERTEX
8
RASTER
10
68
20
390.6
30
0
0
VERTEX
8
RASTER
10
114
20
390.6
30
0
0
VERTEX
8
RASTER
10
114
20
390.2
30
0
0
VERTEX
8
RASTER
10
68
20
390.2
30
0
0
SEQEND
8
RASTER
0
POLYLINE
8
CUT
66
1
70
1
0
VERTEX
8
CUT
10
125
20
394.09
30
0
0
VERTEX
8
CUT
10
199
20
394.09
30
0
0
VERTEX
8
CUT
10
202.09
20
394.09
30
0
0
VERTEX
8
CUT
10
202.09
20
390.91
30
0
0
VERTEX
8
CUT
10
199.09
20
390.91
30
0
0
VERTEX
8
CUT
10
199.09
20
388.09
30
0
0
VERTEX
8
CUT
10
202.09
20
388.09
30
0
0
VERTEX
8
CUT
10
202.09
20
384.91
30
0
0
VERTEX
8
CUT
10
199
20
384.91
30
0
0
VERTEX
8
CUT
10
193.398
20
384.91
30
0
0
VERTEX
8
CUT
10
193.398
20
381.91
30
0
0
VERTEX
8
CUT
10
187.525
20
381.91
30
0
0
VERTEX
8
CUT
10
187.525
20
384.91
30
0
0
VERTEX
8
CUT
10
182.013
20
384.91
30
0
0
VERTEX
8
CUT
10
182.013
20
381.91
30
0
0
VERTEX
8
CUT
10
176.141
20
381.91
30
0
0
VERTEX
8
CUT
10
176.141
20
384.91
30
0
0
VERTEX
8
CUT
10
170.628
20
384.91
30
0
0
VERTEX
8
CUT
10
170.628
20
381.91
30
0
0
VERTEX
8
CUT
10
164.756
20
381.91
30
0
0
VERTEX
8
CUT
10
164.756
20
384.91
30
0
0
VERTEX
8
CUT
10
159.244
20
384.91
30
0
0
VERTEX
8
CUT
10
159.244
20
381.91
30
0
0
VERTEX
8
CUT
10
153.372
20
381.91
30
0
0
VERTEX
8
CUT
10
153.372
20
384.91
30
0
0
VERTEX
8
CUT
10
147.859
20
384.91
30
0
0
VERTEX
8
CUT
10
147.859
20
381.91
30
0
0
VERTEX
8
CUT
10
141.987
20
381.91
30
0
0
VERTEX
8
CUT
10
141.987
20
384.91
30
0
0
VERTEX
8
CUT
10
136.475
20
384.91
30
0
0
VERTEX
8
CUT
10
136.475
20
381.91
30
0
0
VERTEX
8
CUT
10
130.602
20
381.91
30
0
0
VERTEX
8
CUT
10
130.602
20
384.91
30
0
0
VERTEX
8
CUT
10
125
20
384.91
30
0
0
VERTEX
8
CUT
10
121.91
20
384.91
30
0
0
VERTEX
8
CUT
10
121.91
20
388.09
30
0
0
VERTEX
8
CUT
10
124.91
20
388.09
30
0
0
VERTEX
8
CUT
10
124.91
20
390.91
30
0
0
VERTEX
8
CUT
10
121.91
20
390.91
30
0
0
VERTEX
8
CUT
10
121.91
20
394.09
30
0
0
SEQEND
8
CUT
0
POLYLINE
8
RASTER
66
1
70
1
0
VERTEX
8
RASTER
10
126
20
390.8
30
0
0
VERTEX
8
RASTER
10
198
20
390.8
30
0
0
VERTEX
8
RASTER
10
198
20
390.2
30
0
0
VERTEX
8
RASTER
10
126
20
390.2
30
0
0
SEQEND
8
RASTER
0
POLYLINE
8
RASTER
66
1
70
1
0
VERTEX
8
RASTER
10
126
20
387.3
30
0
0
VERTEX
8
RASTER
10
198
20
387.3
30
0
0
VERTEX
8
RASTER
10
198
20
386.7
30
0
0
VERTEX
8
RASTER
10
126
20
386.7
30
0
0
SEQEND
8
RASTER
0
POLYLINE
8
CUT
66
1
70
1
0
VERTEX
8
CUT
10
208.91
20
394.09
30
0
0
VERTEX
8
CUT
10
257.09
20
394.09
30
0
0
VERTEX
8
CUT
10
257.09
20
391.09
30
0
0
VERTEX
8
CUT
10
260.09
20
391.09
30
0
0
VERTEX
8
CUT
10
260.09
20
387.91
30
0
0
VERTEX
8
CUT
10
257.09
20
387.91
30
0
0
VERTEX
8
CUT
10
257.09
20
384.91
30
0
0
VERTEX
8
CUT
10
251.757
20
384.91
30
0
0
VERTEX
8
CUT
10
251.757
20
381.91
30
0
0
VERTEX
8
CUT
10
246.243
20
381.91
30
0
0
VERTEX
8
CUT
10
246.243
20
384.91
30
0
0
VERTEX
8
CUT
10
241.09
20
384.91
30
0
0
VERTEX
8
CUT
10
241.09
20
381.91
30
0
0
VERTEX
8
CUT
10
235.577
20
381.91
30
0
0
VERTEX
8
CUT
10
235.577
20
384.91
30
0
0
VERTEX
8
CUT
10
230.423
20
384.91
30
0
0
VERTEX
8
CUT
10
230.423
20
381.91
30
0
0
VERTEX
8
CUT
10
224.91
20
381.91
30
0
0
VERTEX
8
CUT
10
224.91
20
384.91
30
0
0
VERTEX
8
CUT
10
219.757
20
384.91
30
0
0
VERTEX
8
CUT
10
219.757
20
381.91
30
0
0
VERTEX
8
CUT
10
214.243
20
381.91
30
0
0
VERTEX
8
CUT
10
214.243
20
384.91
30
0
0
VERTEX
8
CUT
10
208.91
20
384.91
30
0
0
VERTEX
8
CUT
10
208.91
20
387.91
30
0
0
VERTEX
8
CUT
10
205.91
20
387.91
30
0
0
VERTEX
8
CUT
10
205.91
20
391.09
30
0
0
VERTEX
8
CUT
10
208.91
20
391.09
30
0
0
SEQEND
8
CUT
0
POLYLINE
8
RASTER
66
1
70
1
0
VERTEX
8
RASTER
10
210
20
390.6
30
0
0
VERTEX
8
RASTER
10
256
20
390.6
30
0
0
VERTEX
8
RASTER
10
256
20
390.2
30
0
0
VERTEX
8
RASTER
10
210
20
390.2
30
0
0
SEQEND
8
RASTER
0
POLYLINE
8
CUT
66
1
70
1
0
VERTEX
8
CUT
10
266.91
20
394.09
30
0
0
VERTEX
8
CUT
10
315.09
20
394.09
30
0
0
VERTEX
8
CUT
10
315.09
20
391.09
30
0
0
VERTEX
8
CUT
10
318.09
20
391.09
30
0
0
VERTEX
8
CUT
10
318.09
20
387.91
30
0
0
VERTEX
8
CUT
10
315.09
20
387.91
30
0
0
VERTEX
8
CUT
10
315.09
20
384.91
30
0
0
VERTEX
8
CUT
10
309.757
20
384.91
30
0
0
VERTEX
8
CUT
10
309.757
20
381.91
30
0
0
VERTEX
8
CUT
10
304.243
20
381.91
30
0
0
VERTEX
8
CUT
10
304.243
20
384.91
30
0
0
VERTEX
8
CUT
10
299.09
20
384.91
30
0
0
VERTEX
8
CUT
10
299.09
20
381.91
30
0
0
VERTEX
8
CUT
10
293.577
20
381.91
30
0
0
VERTEX
8
CUT
10
293.577
20
384.91
30
0
0
VERTEX
8
CUT
10
288.423
20
384.91
30
0
0
VERTEX
8
CUT
10
288.423
20
381.91
30
0
0
VERTEX
8
CUT
10
282.91
20
381.91
30
0
0
VERTEX
8
CUT
10
282.91
20
384.91
30
0
0
VERTEX
8
CUT
10
277.757
20
384.91
30
0
0
VERTEX
8
CUT
10
277.757
20
381.91
30
0
0
VERTEX
8
CUT
10
272.243
20
381.91
30
0
0
VERTEX
8
CUT
10
272.243
20
384.91
30
0
0
VERTEX
8
CUT
10
266.91
20
384.91
30
0
0
VERTEX
8
CUT
10
266.91
20
387.91
30
0
0
VERTEX
8
CUT
10
263.91
20
387.91
30
0
0
VERTEX
8
CUT
10
263.91
20
391.09
30
0
0
VERTEX
8
CUT
10
266.91
20
391.09
30
0
0
SEQEND
8
CUT
0
POLYLINE
8
RASTER
66
1
70
1
0
VERTEX
8
RASTER
10
268
20
390.6
30
0
0
VERTEX
8
RASTER
10
314
20
390.6
30
0
0
VERTEX
8
RASTER
10
314
20
390.2
30
0
0
VERTEX
8
RASTER
10
268
20
390.2
30
0
0
SEQEND
8
RASTER
0
POLYLINE
8
CUT
66
1
70
1
0
VERTEX
8
CUT
10
321.91
20
387.69
30
0
0
VERTEX
8
CUT
10
336.8
20
387.69
30
0
0
VERTEX
8
CUT
10
336.86
20
387.69
30
0
0
VERTEX
8
CUT
10
336.86
20
390.906
30
0
0
VERTEX
8
CUT
10
336.968
20
391.726
30
0
0
VERTEX
8
CUT
10
337.287
20
392.495
30
0
0
VERTEX
8
CUT
10
337.794
20
393.156
30
0
0
VERTEX
8
CUT
10
338.455
20
393.663
30
0
0
VERTEX
8
CUT
10
339.224
20
393.982
30
0
0
VERTEX
8
CUT
10
340.044
20
394.09
30
0
0
VERTEX
8
CUT
10
348.356
20
394.09
30
0
0
VERTEX
8
CUT
10
349.176
20
393.982
30
0
0
VERTEX
8
CUT
10
349.945
20
393.663
30
0
0
VERTEX
8
CUT
10
350.606
20
393.156
30
0
0
VERTEX
8
CUT
10
351.113
20
392.495
30
0
0
VERTEX
8
CUT
10
351.432
20
391.726
30
0
0
VERTEX
8
CUT
10
351.54
20
390.906
30
0
0
VERTEX
8
CUT
10
351.54
20
387.69
30
0
0
VERTEX
8
CUT
10
351.6
20
387.69
30
0
0
VERTEX
8
CUT
10
366.4
20
387.69
30
0
0
VERTEX
8
CUT
10
366.46
20
387.69
30
0
0
VERTEX
8
CUT
10
366.46
20
390.906
30
0
0
VERTEX
8
CUT
10
366.568
20
391.726
30
0
0
VERTEX
8
CUT
10
366.887
20
392.495
30
0
0
VERTEX
8
CUT
10
367.394
20
393.156
30
0
0
VERTEX
8
CUT
10
368.055
20
393.663
30
0
0
VERTEX
8
CUT
10
368.824
20
393.982
30
0
0
VERTEX
8
CUT
10
369.644
20
394.09
30
0
0
VERTEX
8
CUT
10
377.956
20
394.09
30
0
0
VERTEX
8
CUT
10
378.776
20
393.982
30
0
0
VERTEX
8
CUT
10
379.545
20
393.663
30
0
0
VERTEX
8
CUT
10
380.206
20
393.156
30
0
0
VERTEX
8
CUT
10
380.713
20
392.495
30
0
0
VERTEX
8
CUT
10
381.032
20
391.726
30
0
0
VERTEX
8
CUT
10
381.14
20
390.906
30
0
0
VERTEX
8
CUT
10
381.14
20
387.69
30
0
0
VERTEX
8
CUT
10
381.2
20
387.69
30
0
0
VERTEX
8
CUT
10
396.09
20
387.69
30
0
0
VERTEX
8
CUT
10
396.09
20
385.11
30
0
0
VERTEX
8
CUT
10
390.398
20
385.11
30
0
0
VERTEX
8
CUT
10
390.398
20
382.11
30
0
0
VERTEX
8
CUT
10
384.525
20
382.11
30
0
0
VERTEX
8
CUT
10
384.525
20
385.11
30
0
0
VERTEX
8
CUT
10
379.013
20
385.11
30
0
0
VERTEX
8
CUT
10
379.013
20
382.11
30
0
0
VERTEX
8
CUT
10
373.141
20
382.11
30
0
0
VERTEX
8
CUT
10
373.141
20
385.11
30
0
0
VERTEX
8
CUT
10
367.628
20
385.11
30
0
0
VERTEX
8
CUT
10
367.628
20
382.11
30
0
0
VERTEX
8
CUT
10
361.756
20
382.11
30
0
0
VERTEX
8
CUT
10
361.756
20
385.11
30
0
0
VERTEX
8
CUT
10
356.244
20
385.11
30
0
0
VERTEX
8
CUT
10
356.244
20
382.11
30
0
0
VERTEX
8
CUT
10
350.372
20
382.11
30
0
0
VERTEX
8
CUT
10
350.372
20
385.11
30
0
0
VERTEX
8
CUT
10
344.859
20
385.11
30
0
0
VERTEX
8
CUT
10
344.859
20
382.11
30
0
0
VERTEX
8
CUT
10
338.987
20
382.11
30
0
0
VERTEX
8
CUT
10
338.987
20
385.11
30
0
0
VERTEX
8
CUT
10
333.475
20
385.11
30
0
0
VERTEX
8
CUT
10
333.475
20
382.11
30
0
0
VERTEX
8
CUT
10
327.602
20
382.11
30
0
0
VERTEX
8
CUT
10
327.602
20
385.11
30
0
0
VERTEX
8
CUT
10
321.91
20
385.11
30
0
0
SEQEND
8
CUT
0
CIRCLE
8
CUT
10
344.2
20
390.9
30
0
40
1.56
0
CIRCLE
8
CUT
10
373.8
20
390.9
30
0
40
1.56
0
POLYLINE
8
CUT
66
1
70
1
0
VERTEX
8
CUT
10
399.91
20
387.69
30
0
0
VERTEX
8
CUT
10
414.8
20
387.69
30
0
0
VERTEX
8
CUT
10
414.86
20
387.69
30
0
0
VERTEX
8
CUT
10
414.86
20
390.906
30
0
0
VERTEX
8
CUT
10
414.968
20
391.726
30
0
0
VERTEX
8
CUT
10
415.287
20
392.495
30
0
0
VERTEX
8
CUT
10
415.794
20
393.156
30
0
0
VERTEX
8
CUT
10
416.455
20
393.663
30
0
0
VERTEX
8
CUT
10
417.224
20
393.982
30
0
0
VERTEX
8
CUT
10
418.044
20
394.09
30
0
0
VERTEX
8
CUT
10
426.356
20
394.09
30
0
0
VERTEX
8
CUT
10
427.176
20
393.982
30
0
0
VERTEX
8
CUT
10
427.945
20
393.663
30
0
0
VERTEX
8
CUT
10
428.606
20
393.156
30
0
0
VERTEX
8
CUT
10
429.113
20
392.495
30
0
0
VERTEX
8
CUT
10
429.432
20
391.726
30
0
0
VERTEX
8
CUT
10
429.54
20
390.906
30
0
0
VERTEX
8
CUT
10
429.54
20
387.69
30
0
0
VERTEX
8
CUT
10
429.6
20
387.69
30
0
0
VERTEX
8
CUT
10
444.4
20
387.69
30
0
0
VERTEX
8
CUT
10
444.46
20
387.69
30
0
0
VERTEX
8
CUT
10
444.46
20
390.906
30
0
0
VERTEX
8
CUT
10
444.568
20
391.726
30
0
0
VERTEX
8
CUT
10
444.887
20
392.495
30
0
0
VERTEX
8
CUT
10
445.394
20
393.156
30
0
0
VERTEX
8
CUT
10
446.055
20
393.663
30
0
0
VERTEX
8
CUT
10
446.824
20
393.982
30
0
0
VERTEX
8
CUT
10
447.644
20
394.09
30
0
0
VERTEX
8
CUT
10
455.956
20
394.09
30
0
0
VERTEX
8
CUT
10
456.776
20
393.982
30
0
0
VERTEX
8
CUT
10
457.545
20
393.663
30
0
0
VERTEX
8
CUT
10
458.206
20
393.156
30
0
0
VERTEX
8
CUT
10
458.713
20
392.495
30
0
0
VERTEX
8
CUT
10
459.032
20
391.726
30
0
0
VERTEX
8
CUT
10
459.14
20
390.906
30
0
0
VERTEX
8
CUT
10
459.14
20
387.69
30
0
0
VERTEX
8
CUT
10
459.2
20
387.69
30
0
0
VERTEX
8
CUT
10
474.09
20
387.69
30
0
0
VERTEX
8
CUT
10
474.09
20
385.11
30
0
0
VERTEX
8
CUT
10
468.398
20
385.11
30
0
0
VERTEX
8
CUT
10
468.398
20
382.11
30
0
0
VERTEX
8
CUT
10
462.525
20
382.11
30
0
0
VERTEX
8
CUT
10
462.525
20
385.11
30
0
0
VERTEX
8
CUT
10
457.013
20
385.11
30
0
0
VERTEX
8
CUT
10
457.013
20
382.11
30
0
0
VERTEX
8
CUT
10
451.141
20
382.11
30
0
0
VERTEX
8
CUT
10
451.141
20
385.11
30
0
0
VERTEX
8
CUT
10
445.628
20
385.11
30
0
0
VERTEX
8
CUT
10
445.628
20
382.11
30
0
0
VERTEX
8
CUT
10
439.756
20
382.11
30
0
0
VERTEX
8
CUT
10
439.756
20
385.11
30
0
0
VERTEX
8
CUT
10
434.244
20
385.11
30
0
0
VERTEX
8
CUT
10
434.244
20
382.11
30
0
0
VERTEX
8
CUT
10
428.372
20
382.11
30
0
0
VERTEX
8
CUT
10
428.372
20
385.11
30
0
0
VERTEX
8
CUT
10
422.859
20
385.11
30
0
0
VERTEX
8
CUT
10
422.859
20
382.11
30
0
0
VERTEX
8
CUT
10
416.987
20
382.11
30
0
0
VERTEX
8
CUT
10
416.987
20
385.11
30
0
0
VERTEX
8
CUT
10
411.475
20
385.11
30
0
0
VERTEX
8
CUT
10
411.475
20
382.11
30
0
0
VERTEX
8
CUT
10
405.602
20
382.11
30
0
0
VERTEX
8
CUT
10
405.602
20
385.11
30
0
0
VERTEX
8
CUT
10
399.91
20
385.11
30
0
0
SEQEND
8
CUT
0
CIRCLE
8
CUT
10
422.2
20
390.9
30
0
40
1.56
0
CIRCLE
8
CUT
10
451.8
20
390.9
30
0
40
1.56
0
POLYLINE
8
CUT
66
1
70
1
0
VERTEX
8
CUT
10
477.91
20
387.69
30
0
0
VERTEX
8
CUT
10
492.8
20
387.69
30
0
0
VERTEX
8
CUT
10
492.86
20
387.69
30
0
0
VERTEX
8
CUT
10
492.86
20
390.906
30
0
0
VERTEX
8
CUT
10
492.968
20
391.726
30
0
0
VERTEX
8
CUT
10
493.287
20
392.495
30
0
0
VERTEX
8
CUT
10
493.794
20
393.156
30
0
0
VERTEX
8
CUT
10
494.455
20
393.663
30
0
0
VERTEX
8
CUT
10
495.224
20
393.982
30
0
0
VERTEX
8
CUT
10
496.044
20
394.09
30
0
0
VERTEX
8
CUT
10
504.356
20
394.09
30
0
0
VERTEX
8
CUT
10
505.176
20
393.982
30
0
0
VERTEX
8
CUT
10
505.945
20
393.663
30
0
0
VERTEX
8
CUT
10
506.606
20
393.156
30
0
0
VERTEX
8
CUT
10
507.113
20
392.495
30
0
0
VERTEX
8
CUT
10
507.432
20
391.726
30
0
0
VERTEX
8
CUT
10
507.54
20
390.906
30
0
0
VERTEX
8
CUT
10
507.54
20
387.69
30
0
0
VERTEX
8
CUT
10
507.6
20
387.69
30
0
0
VERTEX
8
CUT
10
522.4
20
387.69
30
0
0
VERTEX
8
CUT
10
522.46
20
387.69
30
0
0
VERTEX
8
CUT
10
522.46
20
390.906
30
0
0
VERTEX
8
CUT
10
522.568
20
391.726
30
0
0
VERTEX
8
CUT
10
522.887
20
392.495
30
0
0
VERTEX
8
CUT
10
523.394
20
393.156
30
0
0
VERTEX
8
CUT
10
524.055
20
393.663
30
0
0
VERTEX
8
CUT
10
524.824
20
393.982
30
0
0
VERTEX
8
CUT
10
525.644
20
394.09
30
0
0
VERTEX
8
CUT
10
533.956
20
394.09
30
0
0
VERTEX
8
CUT
10
534.776
20
393.982
30
0
0
VERTEX
8
CUT
10
535.545
20
393.663
30
0
0
VERTEX
8
CUT
10
536.206
20
393.156
30
0
0
VERTEX
8
CUT
10
536.713
20
392.495
30
0
0
VERTEX
8
CUT
10
537.032
20
391.726
30
0
0
VERTEX
8
CUT
10
537.14
20
390.906
30
0
0
VERTEX
8
CUT
10
537.14
20
387.69
30
0
0
VERTEX
8
CUT
10
537.2
20
387.69
30
0
0
VERTEX
8
CUT
10
552.09
20
387.69
30
0
0
VERTEX
8
CUT
10
552.09
20
385.11
30
0
0
VERTEX
8
CUT
10
546.398
20
385.11
30
0
0
VERTEX
8
CUT
10
546.398
20
382.11
30
0
0
VERTEX
8
CUT
10
540.525
20
382.11
30
0
0
VERTEX
8
CUT
10
540.525
20
385.11
30
0
0
VERTEX
8
CUT
10
535.013
20
385.11
30
0
0
VERTEX
8
CUT
10
535.013
20
382.11
30
0
0
VERTEX
8
CUT
10
529.141
20
382.11
30
0
0
VERTEX
8
CUT
10
529.141
20
385.11
30
0
0
VERTEX
8
CUT
10
523.628
20
385.11
30
0
0
VERTEX
8
CUT
10
523.628
20
382.11
30
0
0
VERTEX
8
CUT
10
517.756
20
382.11
30
0
0
VERTEX
8
CUT
10
517.756
20
385.11
30
0
0
VERTEX
8
CUT
10
512.244
20
385.11
30
0
0
VERTEX
8
CUT
10
512.244
20
382.11
30
0
0
VERTEX
8
CUT
10
506.372
20
382.11
30
0
0
VERTEX
8
CUT
10
506.372
20
385.11
30
0
0
VERTEX
8
CUT
10
500.859
20
385.11
30
0
0
VERTEX
8
CUT
10
500.859
20
382.11
30
0
0
VERTEX
8
CUT
10
494.987
20
382.11
30
0
0
VERTEX
8
CUT
10
494.987
20
385.11
30
0
0
VERTEX
8
CUT
10
489.475
20
385.11
30
0
0
VERTEX
8
CUT
10
489.475
20
382.11
30
0
0
VERTEX
8
CUT
10
483.602
20
382.11
30
0
0
VERTEX
8
CUT
10
483.602
20
385.11
30
0
0
VERTEX
8
CUT
10
477.91
20
385.11
30
0
0
SEQEND
8
CUT
0
CIRCLE
8
CUT
10
500.2
20
390.9
30
0
40
1.56
0
CIRCLE
8
CUT
10
529.8
20
390.9
30
0
40
1.56
0
POLYLINE
8
CUT
66
1
70
1
0
VERTEX
8
CUT
10
5.91
20
371.69
30
0
0
VERTEX
8
CUT
10
20.8
20
371.69
30
0
0
VERTEX
8
CUT
10
20.86
20
371.69
30
0
0
VERTEX
8
CUT
10
20.86
20
374.906
30
0
0
VERTEX
8
CUT
10
20.968
20
375.726
30
0
0
VERTEX
8
CUT
10
21.287
20
376.495
30
0
0
VERTEX
8
CUT
10
21.794
20
377.156
30
0
0
VERTEX
8
CUT
10
22.455
20
377.663
30
0
0
VERTEX
8
CUT
10
23.224
20
377.982
30
0
0
VERTEX
8
CUT
10
24.044
20
378.09
30
0
0
VERTEX
8
CUT
10
32.356
20
378.09
30
0
0
VERTEX
8
CUT
10
33.176
20
377.982
30
0
0
VERTEX
8
CUT
10
33.945
20
377.663
30
0
0
VERTEX
8
CUT
10
34.606
20
377.156
30
0
0
VERTEX
8
CUT
10
35.113
20
376.495
30
0
0
VERTEX
8
CUT
10
35.432
20
375.726
30
0
0
VERTEX
8
CUT
10
35.54
20
374.906
30
0
0
VERTEX
8
CUT
10
35.54
20
371.69
30
0
0
VERTEX
8
CUT
10
35.6
20
371.69
30
0
0
VERTEX
8
CUT
10
50.4
20
371.69
30
0
0
VERTEX
8
CUT
10
50.46
20
371.69
30
0
0
VERTEX
8
CUT
10
50.46
20
374.906
30
0
0
VERTEX
8
CUT
10
50.568
20
375.726
30
0
0
VERTEX
8
CUT
10
50.887
20
376.495
30
0
0
VERTEX
8
CUT
10
51.394
20
377.156
30
0
0
VERTEX
8
CUT
10
52.055
20
377.663
30
0
0
VERTEX
8
CUT
10
52.824
20
377.982
30
0
0
VERTEX
8
CUT
10
53.644
20
378.09
30
0
0
VERTEX
8
CUT
10
61.956
20
378.09
30
0
0
VERTEX
8
CUT
10
62.776
20
377.982
30
0
0
VERTEX
8
CUT
10
63.545
20
377.663
30
0
0
VERTEX
8
CUT
10
64.206
20
377.156
30
0
0
VERTEX
8
CUT
10
64.713
20
376.495
30
0
0
VERTEX
8
CUT
10
65.032
20
375.726
30
0
0
VERTEX
8
CUT
10
65.14
20
374.906
30
0
0
VERTEX
8
CUT
10
65.14
20
371.69
30
0
0
VERTEX
8
CUT
10
65.2
20
371.69
30
0
0
VERTEX
8
CUT
10
80.09
20
371.69
30
0
0
VERTEX
8
CUT
10
80.09
20
369.11
30
0
0
VERTEX
8
CUT
10
74.398
20
369.11
30
0
0
VERTEX
8
CUT
10
74.398
20
366.11
30
0
0
VERTEX
8
CUT
10
68.525
20
366.11
30
0
0
VERTEX
8
CUT
10
68.525
20
369.11
30
0
0
VERTEX
8
CUT
10
63.013
20
369.11
30
0
0
VERTEX
8
CUT
10
63.013
20
366.11
30
0
0
VERTEX
8
CUT
10
57.141
20
366.11
30
0
0
VERTEX
8
CUT
10
57.141
20
369.11
30
0
0
VERTEX
8
CUT
10
51.628
20
369.11
30
0
0
VERTEX
8
CUT
10
51.628
20
366.11
30
0
0
VERTEX
8
CUT
10
45.756
20
366.11
30
0
0
VERTEX
8
CUT
10
45.756
20
369.11
30
0
0
VERTEX
8
CUT
10
40.244
20
369.11
30
0
0
VERTEX
8
CUT
10
40.244
20
366.11
30
0
0
VERTEX
8
CUT
10
34.372
20
366.11
30
0
0
VERTEX
8
CUT
10
34.372
20
369.11
30
0
0
VERTEX
8
CUT
10
28.859
20
369.11
30
0
0
VERTEX
8
CUT
10
28.859
20
366.11
30
0
0
VERTEX
8
CUT
10
22.987
20
366.11
30
0
0
VERTEX
8
CUT
10
22.987
20
369.11
30
0
0
VERTEX
8
CUT
10
17.475
20
369.11
30
0
0
VERTEX
8
CUT
10
17.475
20
366.11
30
0
0
VERTEX
8
CUT
10
11.602
20
366.11
30
0
0
VERTEX
8
CUT
10
11.602
20
369.11
30
0
0
VERTEX
8
CUT
10
5.91
20
369.11
30
0
0
SEQEND
8
CUT
0
CIRCLE
8
CUT
10
28.2
20
374.9
30
0
40
1.56
0
CIRCLE
8
CUT
10
57.8
20
374.9
30
0
40
1.56
0
POLYLINE
8
CUT
66
1
70
1
0
VERTEX
8
CUT
10
106.251
20
374.29
30
0
0
VERTEX
8
CUT
10
106.727
20
375.014
30
0
0
VERTEX
8
CUT
10
107.296
20
375.687
30
0
0
VERTEX
8
CUT
10
107.986
20
376.241
30
0
0
VERTEX
8
CUT
10
108.77
20
376.652
30
0
0
VERTEX
8
CUT
10
109.619
20
376.905
30
0
0
VERTEX
8
CUT
10
110.5
20
376.99
30
0
0
VERTEX
8
CUT
10
111.381
20
376.905
30
0
0
VERTEX
8
CUT
10
112.23
20
376.652
30
0
0
VERTEX
8
CUT
10
113.014
20
376.241
30
0
0
VERTEX
8
CUT
10
113.704
20
375.687
30
0
0
VERTEX
8
CUT
10
114.273
20
375.014
30
0
0
VERTEX
8
CUT
10
114.749
20
374.29
30
0
0
VERTEX
8
CUT
10
124.41
20
374.29
30
0
0
VERTEX
8
CUT
10
124.41
20
375.89
30
0
0
VERTEX
8
CUT
10
126.477
20
375.89
30
0
0
VERTEX
8
CUT
10
130.512
20
378.109
30
0
0
VERTEX
8
CUT
10
133.142
20
375.795
30
0
0
VERTEX
8
CUT
10
130.707
20
373.945
30
0
0
VERTEX
8
CUT
10
137.02
20
372.488
30
0
0
VERTEX
8
CUT
10
137.02
20
372.312
30
0
0
VERTEX
8
CUT
10
130.707
20
370.855
30
0
0
VERTEX
8
CUT
10
133.142
20
369.005
30
0
0
VERTEX
8
CUT
10
130.512
20
366.691
30
0
0
VERTEX
8
CUT
10
126.477
20
368.91
30
0
0
VERTEX
8
CUT
10
124.41
20
368.91
30
0
0
VERTEX
8
CUT
10
124.41
20
370.51
30
0
0
VERTEX
8
CUT
10
114.749
20
370.51
30
0
0
VERTEX
8
CUT
10
114.273
20
369.786
30
0
0
VERTEX
8
CUT
10
113.704
20
369.113
30
0
0
VERTEX
8
CUT
10
113.014
20
368.559
30
0
0
VERTEX
8
CUT
10
112.23
20
368.148
30
0
0
VERTEX
8
CUT
10
111.381
20
367.895
30
0
0
VERTEX
8
CUT
10
110.5
20
367.81
30
0
0
VERTEX
8
CUT
10
109.619
20
367.895
30
0
0
VERTEX
8
CUT
10
108.77
20
368.148
30
0
0
VERTEX
8
CUT
10
107.986
20
368.559
30
0
0
VERTEX
8
CUT
10
107.296
20
369.113
30
0
0
VERTEX
8
CUT
10
106.727
20
369.786
30
0
0
VERTEX
8
CUT
10
106.251
20
370.51
30
0
0
VERTEX
8
CUT
10
96.59
20
370.51
30
0
0
VERTEX
8
CUT
10
96.59
20
368.91
30
0
0
VERTEX
8
CUT
10
94.523
20
368.91
30
0
0
VERTEX
8
CUT
10
90.488
20
366.691
30
0
0
VERTEX
8
CUT
10
87.858
20
369.005
30
0
0
VERTEX
8
CUT
10
90.293
20
370.855
30
0
0
VERTEX
8
CUT
10
83.98
20
372.312
30
0
0
VERTEX
8
CUT
10
83.98
20
372.488
30
0
0
VERTEX
8
CUT
10
90.293
20
373.945
30
0
0
VERTEX
8
CUT
10
87.858
20
375.795
30
0
0
VERTEX
8
CUT
10
90.488
20
378.109
30
0
0
VERTEX
8
CUT
10
94.523
20
375.89
30
0
0
VERTEX
8
CUT
10
96.59
20
375.89
30
0
0
VERTEX
8
CUT
10
96.59
20
374.29
30
0
0
SEQEND
8
CUT
0
CIRCLE
8
CUT
10
110.5
20
372.4
30
0
40
1.56
0
POLYLINE
8
CUT
66
1
70
1
0
VERTEX
8
CUT
10
140.91
20
377.602
30
0
0
VERTEX
8
CUT
10
140.913
20
377.672
30
0
0
VERTEX
8
CUT
10
140.923
20
377.74
30
0
0
VERTEX
8
CUT
10
140.939
20
377.804
30
0
0
VERTEX
8
CUT
10
140.964
20
377.863
30
0
0
VERTEX
8
CUT
10
140.996
20
377.916
30
0
0
VERTEX
8
CUT
10
141.036
20
377.964
30
0
0
VERTEX
8
CUT
10
141.084
20
378.004
30
0
0
VERTEX
8
CUT
10
141.137
20
378.036
30
0
0
VERTEX
8
CUT
10
141.196
20
378.061
30
0
0
VERTEX
8
CUT
10
141.26
20
378.077
30
0
0
VERTEX
8
CUT
10
141.328
20
378.087
30
0
0
VERTEX
8
CUT
10
141.398
20
378.09
30
0
0
VERTEX
8
CUT
10
188.602
20
378.09
30
0
0
VERTEX
8
CUT
10
188.672
20
378.087
30
0
0
VERTEX
8
CUT
10
188.74
20
378.077
30
0
0
VERTEX
8
CUT
10
188.804
20
378.061
30
0
0
VERTEX
8
CUT
10
188.863
20
378.036
30
0
0
VERTEX
8
CUT
10
188.916
20
378.004
30
0
0
VERTEX
8
CUT
10
188.964
20
377.964
30
0
0
VERTEX
8
CUT
10
189.004
20
377.916
30
0
0
VERTEX
8
CUT
10
189.036
20
377.863
30
0
0
VERTEX
8
CUT
10
189.061
20
377.804
30
0
0
VERTEX
8
CUT
10
189.077
20
377.74
30
0
0
VERTEX
8
CUT
10
189.087
20
377.672
30
0
0
VERTEX
8
CUT
10
189.09
20
377.602
30
0
0
VERTEX
8
CUT
10
189.09
20
373.398
30
0
0
VERTEX
8
CUT
10
189.087
20
373.328
30
0
0
VERTEX
8
CUT
10
189.077
20
373.26
30
0
0
VERTEX
8
CUT
10
189.061
20
373.196
30
0
0
VERTEX
8
CUT
10
189.036
20
373.137
30
0
0
VERTEX
8
CUT
10
189.004
20
373.084
30
0
0
VERTEX
8
CUT
10
188.964
20
373.036
30
0
0
VERTEX
8
CUT
10
188.916
20
372.996
30
0
0
VERTEX
8
CUT
10
188.863
20
372.964
30
0
0
VERTEX
8
CUT
10
188.804
20
372.939
30
0
0
VERTEX
8
CUT
10
188.74
20
372.923
30
0
0
VERTEX
8
CUT
10
188.672
20
372.913
30
0
0
VERTEX
8
CUT
10
188.602
20
372.91
30
0
0
VERTEX
8
CUT
10
141.398
20
372.91
30
0
0
VERTEX
8
CUT
10
141.328
20
372.913
30
0
0
VERTEX
8
CUT
10
141.26
20
372.923
30
0
0
VERTEX
8
CUT
10
141.196
20
372.939
30
0
0
VERTEX
8
CUT
10
141.137
20
372.964
30
0
0
VERTEX
8
CUT
10
141.084
20
372.996
30
0
0
VERTEX
8
CUT
10
141.036
20
373.036
30
0
0
VERTEX
8
CUT
10
140.996
20
373.084
30
0
0
VERTEX
8
CUT
10
140.964
20
373.137
30
0
0
VERTEX
8
CUT
10
140.939
20
373.196
30
0
0
VERTEX
8
CUT
10
140.923
20
373.26
30
0
0
VERTEX
8
CUT
10
140.913
20
373.328
30
0
0
VERTEX
8
CUT
10
140.91
20
373.398
30
0
0
SEQEND
8
CUT
0
POLYLINE
8
CUT
66
1
70
1
0
VERTEX
8
CUT
10
192.91
20
377.602
30
0
0
VERTEX
8
CUT
10
192.913
20
377.672
30
0
0
VERTEX
8
CUT
10
192.923
20
377.74
30
0
0
VERTEX
8
CUT
10
192.939
20
377.804
30
0
0
VERTEX
8
CUT
10
192.964
20
377.863
30
0
0
VERTEX
8
CUT
10
192.996
20
377.916
30
0
0
VERTEX
8
CUT
10
193.036
20
377.964
30
0
0
VERTEX
8
CUT
10
193.084
20
378.004
30
0
0
VERTEX
8
CUT
10
193.137
20
378.036
30
0
0
VERTEX
8
CUT
10
193.196
20
378.061
30
0
0
VERTEX
8
CUT
10
193.26
20
378.077
30
0
0
VERTEX
8
CUT
10
193.328
20
378.087
30
0
0
VERTEX
8
CUT
10
193.398
20
378.09
30
0
0
VERTEX
8
CUT
10
240.602
20
378.09
30
0
0
VERTEX
8
CUT
10
240.672
20
378.087
30
0
0
VERTEX
8
CUT
10
240.74
20
378.077
30
0
0
VERTEX
8
CUT
10
240.804
20
378.061
30
0
0
VERTEX
8
CUT
10
240.863
20
378.036
30
0
0
VERTEX
8
CUT
10
240.916
20
378.004
30
0
0
VERTEX
8
CUT
10
240.964
20
377.964
30
0
0
VERTEX
8
CUT
10
241.004
20
377.916
30
0
0
VERTEX
8
CUT
10
241.036
20
377.863
30
0
0
VERTEX
8
CUT
10
241.061
20
377.804
30
0
0
VERTEX
8
CUT
10
241.077
20
377.74
30
0
0
VERTEX
8
CUT
10
241.087
20
377.672
30
0
0
VERTEX
8
CUT
10
241.09
20
377.602
30
0
0
VERTEX
8
CUT
10
241.09
20
373.398
30
0
0
VERTEX
8
CUT
10
241.087
20
373.328
30
0
0
VERTEX
8
CUT
10
241.077
20
373.26
30
0
0
VERTEX
8
CUT
10
241.061
20
373.196
30
0
0
VERTEX
8
CUT
10
241.036
20
373.137
30
0
0
VERTEX
8
CUT
10
241.004
20
373.084
30
0
0
VERTEX
8
CUT
10
240.964
20
373.036
30
0
0
VERTEX
8
CUT
10
240.916
20
372.996
30
0
0
VERTEX
8
CUT
10
240.863
20
372.964
30
0
0
VERTEX
8
CUT
10
240.804
20
372.939
30
0
0
VERTEX
8
CUT
10
240.74
20
372.923
30
0
0
VERTEX
8
CUT
10
240.672
20
372.913
30
0
0
VERTEX
8
CUT
10
240.602
20
372.91
30
0
0
VERTEX
8
CUT
10
193.398
20
372.91
30
0
0
VERTEX
8
CUT
10
193.328
20
372.913
30
0
0
VERTEX
8
CUT
10
193.26
20
372.923
30
0
0
VERTEX
8
CUT
10
193.196
20
372.939
30
0
0
VERTEX
8
CUT
10
193.137
20
372.964
30
0
0
VERTEX
8
CUT
10
193.084
20
372.996
30
0
0
VERTEX
8
CUT
10
193.036
20
373.036
30
0
0
VERTEX
8
CUT
10
192.996
20
373.084
30
0
0
VERTEX
8
CUT
10
192.964
20
373.137
30
0
0
VERTEX
8
CUT
10
192.939
20
373.196
30
0
0
VERTEX
8
CUT
10
192.923
20
373.26
30
0
0
VERTEX
8
CUT
10
192.913
20
373.328
30
0
0
VERTEX
8
CUT
10
192.91
20
373.398
30
0
0
SEQEND
8
CUT
0
POLYLINE
8
CUT
66
1
70
1
0
VERTEX
8
CUT
10
244.91
20
377.602
30
0
0
VERTEX
8
CUT
10
244.913
20
377.672
30
0
0
VERTEX
8
CUT
10
244.923
20
377.74
30
0
0
VERTEX
8
CUT
10
244.939
20
377.804
30
0
0
VERTEX
8
CUT
10
244.964
20
377.863
30
0
0
VERTEX
8
CUT
10
244.996
20
377.916
30
0
0
VERTEX
8
CUT
10
245.036
20
377.964
30
0
0
VERTEX
8
CUT
10
245.084
20
378.004
30
0
0
VERTEX
8
CUT
10
245.137
20
378.036
30
0
0
VERTEX
8
CUT
10
245.196
20
378.061
30
0
0
VERTEX
8
CUT
10
245.26
20
378.077
30
0
0
VERTEX
8
CUT
10
245.328
20
378.087
30
0
0
VERTEX
8
CUT
10
245.398
20
378.09
30
0
0
VERTEX
8
CUT
10
292.602
20
378.09
30
0
0
VERTEX
8
CUT
10
292.672
20
378.087
30
0
0
VERTEX
8
CUT
10
292.74
20
378.077
30
0
0
VERTEX
8
CUT
10
292.804
20
378.061
30
0
0
VERTEX
8
CUT
10
292.863
20
378.036
30
0
0
VERTEX
8
CUT
10
292.916
20
378.004
30
0
0
VERTEX
8
CUT
10
292.964
20
377.964
30
0
0
VERTEX
8
CUT
10
293.004
20
377.916
30
0
0
VERTEX
8
CUT
10
293.036
20
377.863
30
0
0
VERTEX
8
CUT
10
293.061
20
377.804
30
0
0
VERTEX
8
CUT
10
293.077
20
377.74
30
0
0
VERTEX
8
CUT
10
293.087
20
377.672
30
0
0
VERTEX
8
CUT
10
293.09
20
377.602
30
0
0
VERTEX
8
CUT
10
293.09
20
373.398
30
0
0
VERTEX
8
CUT
10
293.087
20
373.328
30
0
0
VERTEX
8
CUT
10
293.077
20
373.26
30
0
0
VERTEX
8
CUT
10
293.061
20
373.196
30
0
0
VERTEX
8
CUT
10
293.036
20
373.137
30
0
0
VERTEX
8
CUT
10
293.004
20
373.084
30
0
0
VERTEX
8
CUT
10
292.964
20
373.036
30
0
0
VERTEX
8
CUT
10
292.916
20
372.996
30
0
0
VERTEX
8
CUT
10
292.863
20
372.964
30
0
0
VERTEX
8
CUT
10
292.804
20
372.939
30
0
0
VERTEX
8
CUT
10
292.74
20
372.923
30
0
0
VERTEX
8
CUT
10
292.672
20
372.913
30
0
0
VERTEX
8
CUT
10
292.602
20
372.91
30
0
0
VERTEX
8
CUT
10
245.398
20
372.91
30
0
0
VERTEX
8
CUT
10
245.328
20
372.913
30
0
0
VERTEX
8
CUT
10
245.26
20
372.923
30
0
0
VERTEX
8
CUT
10
245.196
20
372.939
30
0
0
VERTEX
8
CUT
10
245.137
20
372.964
30
0
0
VERTEX
8
CUT
10
245.084
20
372.996
30
0
0
VERTEX
8
CUT
10
245.036
20
373.036
30
0
0
VERTEX
8
CUT
10
244.996
20
373.084
30
0
0
VERTEX
8
CUT
10
244.964
20
373.137
30
0
0
VERTEX
8
CUT
10
244.939
20
373.196
30
0
0
VERTEX
8
CUT
10
244.923
20
373.26
30
0
0
VERTEX
8
CUT
10
244.913
20
373.328
30
0
0
VERTEX
8
CUT
10
244.91
20
373.398
30
0
0
SEQEND
8
CUT
0
POLYLINE
8
CUT
66
1
70
1
0
VERTEX
8
CUT
10
296.91
20
377.602
30
0
0
VERTEX
8
CUT
10
296.913
20
377.672
30
0
0
VERTEX
8
CUT
10
296.923
20
377.74
30
0
0
VERTEX
8
CUT
10
296.939
20
377.804
30
0
0
VERTEX
8
CUT
10
296.964
20
377.863
30
0
0
VERTEX
8
CUT
10
296.996
20
377.916
30
0
0
VERTEX
8
CUT
10
297.036
20
377.964
30
0
0
VERTEX
8
CUT
10
297.084
20
378.004
30
0
0
VERTEX
8
CUT
10
297.137
20
378.036
30
0
0
VERTEX
8
CUT
10
297.196
20
378.061
30
0
0
VERTEX
8
CUT
10
297.26
20
378.077
30
0
0
VERTEX
8
CUT
10
297.328
20
378.087
30
0
0
VERTEX
8
CUT
10
297.398
20
378.09
30
0
0
VERTEX
8
CUT
10
344.602
20
378.09
30
0
0
VERTEX
8
CUT
10
344.672
20
378.087
30
0
0
VERTEX
8
CUT
10
344.74
20
378.077
30
0
0
VERTEX
8
CUT
10
344.804
20
378.061
30
0
0
VERTEX
8
CUT
10
344.863
20
378.036
30
0
0
VERTEX
8
CUT
10
344.916
20
378.004
30
0
0
VERTEX
8
CUT
10
344.964
20
377.964
30
0
0
VERTEX
8
CUT
10
345.004
20
377.916
30
0
0
VERTEX
8
CUT
10
345.036
20
377.863
30
0
0
VERTEX
8
CUT
10
345.061
20
377.804
30
0
0
VERTEX
8
CUT
10
345.077
20
377.74
30
0
0
VERTEX
8
CUT
10
345.087
20
377.672
30
0
0
VERTEX
8
CUT
10
345.09
20
377.602
30
0
0
VERTEX
8
CUT
10
345.09
20
373.398
30
0
0
VERTEX
8
CUT
10
345.087
20
373.328
30
0
0
VERTEX
8
CUT
10
345.077
20
373.26
30
0
0
VERTEX
8
CUT
10
345.061
20
373.196
30
0
0
VERTEX
8
CUT
10
345.036
20
373.137
30
0
0
VERTEX
8
CUT
10
345.004
20
373.084
30
0
0
VERTEX
8
CUT
10
344.964
20
373.036
30
0
0
VERTEX
8
CUT
10
344.916
20
372.996
30
0
0
VERTEX
8
CUT
10
344.863
20
372.964
30
0
0
VERTEX
8
CUT
10
344.804
20
372.939
30
0
0
VERTEX
8
CUT
10
344.74
20
372.923
30
0
0
VERTEX
8
CUT
10
344.672
20
372.913
30
0
0
VERTEX
8
CUT
10
344.602
20
372.91
30
0
0
VERTEX
8
CUT
10
297.398
20
372.91
30
0
0
VERTEX
8
CUT
10
297.328
20
372.913
30
0
0
VERTEX
8
CUT
10
297.26
20
372.923
30
0
0
VERTEX
8
CUT
10
297.196
20
372.939
30
0
0
VERTEX
8
CUT
10
297.137
20
372.964
30
0
0
VERTEX
8
CUT
10
297.084
20
372.996
30
0
0
VERTEX
8
CUT
10
297.036
20
373.036
30
0
0
VERTEX
8
CUT
10
296.996
20
373.084
30
0
0
VERTEX
8
CUT
10
296.964
20
373.137
30
0
0
VERTEX
8
CUT
10
296.939
20
373.196
30
0
0
VERTEX
8
CUT
10
296.923
20
373.26
30
0
0
VERTEX
8
CUT
10
296.913
20
373.328
30
0
0
VERTEX
8
CUT
10
296.91
20
373.398
30
0
0
SEQEND
8
CUT
0
POLYLINE
8
CUT
66
1
70
1
0
VERTEX
8
CUT
10
348.91
20
377.602
30
0
0
VERTEX
8
CUT
10
348.913
20
377.672
30
0
0
VERTEX
8
CUT
10
348.923
20
377.74
30
0
0
VERTEX
8
CUT
10
348.939
20
377.804
30
0
0
VERTEX
8
CUT
10
348.964
20
377.863
30
0
0
VERTEX
8
CUT
10
348.996
20
377.916
30
0
0
VERTEX
8
CUT
10
349.036
20
377.964
30
0
0
VERTEX
8
CUT
10
349.084
20
378.004
30
0
0
VERTEX
8
CUT
10
349.137
20
378.036
30
0
0
VERTEX
8
CUT
10
349.196
20
378.061
30
0
0
VERTEX
8
CUT
10
349.26
20
378.077
30
0
0
VERTEX
8
CUT
10
349.328
20
378.087
30
0
0
VERTEX
8
CUT
10
349.398
20
378.09
30
0
0
VERTEX
8
CUT
10
396.602
20
378.09
30
0
0
VERTEX
8
CUT
10
396.672
20
378.087
30
0
0
VERTEX
8
CUT
10
396.74
20
378.077
30
0
0
VERTEX
8
CUT
10
396.804
20
378.061
30
0
0
VERTEX
8
CUT
10
396.863
20
378.036
30
0
0
VERTEX
8
CUT
10
396.916
20
378.004
30
0
0
VERTEX
8
CUT
10
396.964
20
377.964
30
0
0
VERTEX
8
CUT
10
397.004
20
377.916
30
0
0
VERTEX
8
CUT
10
397.036
20
377.863
30
0
0
VERTEX
8
CUT
10
397.061
20
377.804
30
0
0
VERTEX
8
CUT
10
397.077
20
377.74
30
0
0
VERTEX
8
CUT
10
397.087
20
377.672
30
0
0
VERTEX
8
CUT
10
397.09
20
377.602
30
0
0
VERTEX
8
CUT
10
397.09
20
373.398
30
0
0
VERTEX
8
CUT
10
397.087
20
373.328
30
0
0
VERTEX
8
CUT
10
397.077
20
373.26
30
0
0
VERTEX
8
CUT
10
397.061
20
373.196
30
0
0
VERTEX
8
CUT
10
397.036
20
373.137
30
0
0
VERTEX
8
CUT
10
397.004
20
373.084
30
0
0
VERTEX
8
CUT
10
396.964
20
373.036
30
0
0
VERTEX
8
CUT
10
396.916
20
372.996
30
0
0
VERTEX
8
CUT
10
396.863
20
372.964
30
0
0
VERTEX
8
CUT
10
396.804
20
372.939
30
0
0
VERTEX
8
CUT
10
396.74
20
372.923
30
0
0
VERTEX
8
CUT
10
396.672
20
372.913
30
0
0
VERTEX
8
CUT
10
396.602
20
372.91
30
0
0
VERTEX
8
CUT
10
349.398
20
372.91
30
0
0
VERTEX
8
CUT
10
349.328
20
372.913
30
0
0
VERTEX
8
CUT
10
349.26
20
372.923
30
0
0
VERTEX
8
CUT
10
349.196
20
372.939
30
0
0
VERTEX
8
CUT
10
349.137
20
372.964
30
0
0
VERTEX
8
CUT
10
349.084
20
372.996
30
0
0
VERTEX
8
CUT
10
349.036
20
373.036
30
0
0
VERTEX
8
CUT
10
348.996
20
373.084
30
0
0
VERTEX
8
CUT
10
348.964
20
373.137
30
0
0
VERTEX
8
CUT
10
348.939
20
373.196
30
0
0
VERTEX
8
CUT
10
348.923
20
373.26
30
0
0
VERTEX
8
CUT
10
348.913
20
373.328
30
0
0
VERTEX
8
CUT
10
348.91
20
373.398
30
0
0
SEQEND
8
CUT
0
POLYLINE
8
CUT
66
1
70
1
0
VERTEX
8
CUT
10
400.91
20
377.602
30
0
0
VERTEX
8
CUT
10
400.913
20
377.672
30
0
0
VERTEX
8
CUT
10
400.923
20
377.74
30
0
0
VERTEX
8
CUT
10
400.939
20
377.804
30
0
0
VERTEX
8
CUT
10
400.964
20
377.863
30
0
0
VERTEX
8
CUT
10
400.996
20
377.916
30
0
0
VERTEX
8
CUT
10
401.036
20
377.964
30
0
0
VERTEX
8
CUT
10
401.084
20
378.004
30
0
0
VERTEX
8
CUT
10
401.137
20
378.036
30
0
0
VERTEX
8
CUT
10
401.196
20
378.061
30
0
0
VERTEX
8
CUT
10
401.26
20
378.077
30
0
0
VERTEX
8
CUT
10
401.328
20
378.087
30
0
0
VERTEX
8
CUT
10
401.398
20
378.09
30
0
0
VERTEX
8
CUT
10
448.602
20
378.09
30
0
0
VERTEX
8
CUT
10
448.672
20
378.087
30
0
0
VERTEX
8
CUT
10
448.74
20
378.077
30
0
0
VERTEX
8
CUT
10
448.804
20
378.061
30
0
0
VERTEX
8
CUT
10
448.863
20
378.036
30
0
0
VERTEX
8
CUT
10
448.916
20
378.004
30
0
0
VERTEX
8
CUT
10
448.964
20
377.964
30
0
0
VERTEX
8
CUT
10
449.004
20
377.916
30
0
0
VERTEX
8
CUT
10
449.036
20
377.863
30
0
0
VERTEX
8
CUT
10
449.061
20
377.804
30
0
0
VERTEX
8
CUT
10
449.077
20
377.74
30
0
0
VERTEX
8
CUT
10
449.087
20
377.672
30
0
0
VERTEX
8
CUT
10
449.09
20
377.602
30
0
0
VERTEX
8
CUT
10
449.09
20
373.398
30
0
0
VERTEX
8
CUT
10
449.087
20
373.328
30
0
0
VERTEX
8
CUT
10
449.077
20
373.26
30
0
0
VERTEX
8
CUT
10
449.061
20
373.196
30
0
0
VERTEX
8
CUT
10
449.036
20
373.137
30
0
0
VERTEX
8
CUT
10
449.004
20
373.084
30
0
0
VERTEX
8
CUT
10
448.964
20
373.036
30
0
0
VERTEX
8
CUT
10
448.916
20
372.996
30
0
0
VERTEX
8
CUT
10
448.863
20
372.964
30
0
0
VERTEX
8
CUT
10
448.804
20
372.939
30
0
0
VERTEX
8
CUT
10
448.74
20
372.923
30
0
0
VERTEX
8
CUT
10
448.672
20
372.913
30
0
0
VERTEX
8
CUT
10
448.602
20
372.91
30
0
0
VERTEX
8
CUT
10
401.398
20
372.91
30
0
0
VERTEX
8
CUT
10
401.328
20
372.913
30
0
0
VERTEX
8
CUT
10
401.26
20
372.923
30
0
0
VERTEX
8
CUT
10
401.196
20
372.939
30
0
0
VERTEX
8
CUT
10
401.137
20
372.964
30
0
0
VERTEX
8
CUT
10
401.084
20
372.996
30
0
0
VERTEX
8
CUT
10
401.036
20
373.036
30
0
0
VERTEX
8
CUT
10
400.996
20
373.084
30
0
0
VERTEX
8
CUT
10
400.964
20
373.137
30
0
0
VERTEX
8
CUT
10
400.939
20
373.196
30
0
0
VERTEX
8
CUT
10
400.923
20
373.26
30
0
0
VERTEX
8
CUT
10
400.913
20
373.328
30
0
0
VERTEX
8
CUT
10
400.91
20
373.398
30
0
0
SEQEND
8
CUT
0
POLYLINE
8
CUT
66
1
70
1
0
VERTEX
8
CUT
10
452.91
20
377.602
30
0
0
VERTEX
8
CUT
10
452.913
20
377.672
30
0
0
VERTEX
8
CUT
10
452.923
20
377.74
30
0
0
VERTEX
8
CUT
10
452.939
20
377.804
30
0
0
VERTEX
8
CUT
10
452.964
20
377.863
30
0
0
VERTEX
8
CUT
10
452.996
20
377.916
30
0
0
VERTEX
8
CUT
10
453.036
20
377.964
30
0
0
VERTEX
8
CUT
10
453.084
20
378.004
30
0
0
VERTEX
8
CUT
10
453.137
20
378.036
30
0
0
VERTEX
8
CUT
10
453.196
20
378.061
30
0
0
VERTEX
8
CUT
10
453.26
20
378.077
30
0
0
VERTEX
8
CUT
10
453.328
20
378.087
30
0
0
VERTEX
8
CUT
10
453.398
20
378.09
30
0
0
VERTEX
8
CUT
10
500.602
20
378.09
30
0
0
VERTEX
8
CUT
10
500.672
20
378.087
30
0
0
VERTEX
8
CUT
10
500.74
20
378.077
30
0
0
VERTEX
8
CUT
10
500.804
20
378.061
30
0
0
VERTEX
8
CUT
10
500.863
20
378.036
30
0
0
VERTEX
8
CUT
10
500.916
20
378.004
30
0
0
VERTEX
8
CUT
10
500.964
20
377.964
30
0
0
VERTEX
8
CUT
10
501.004
20
377.916
30
0
0
VERTEX
8
CUT
10
501.036
20
377.863
30
0
0
VERTEX
8
CUT
10
501.061
20
377.804
30
0
0
VERTEX
8
CUT
10
501.077
20
377.74
30
0
0
VERTEX
8
CUT
10
501.087
20
377.672
30
0
0
VERTEX
8
CUT
10
501.09
20
377.602
30
0
0
VERTEX
8
CUT
10
501.09
20
373.398
30
0
0
VERTEX
8
CUT
10
501.087
20
373.328
30
0
0
VERTEX
8
CUT
10
501.077
20
373.26
30
0
0
VERTEX
8
CUT
10
501.061
20
373.196
30
0
0
VERTEX
8
CUT
10
501.036
20
373.137
30
0
0
VERTEX
8
CUT
10
501.004
20
373.084
30
0
0
VERTEX
8
CUT
10
500.964
20
373.036
30
0
0
VERTEX
8
CUT
10
500.916
20
372.996
30
0
0
VERTEX
8
CUT
10
500.863
20
372.964
30
0
0
VERTEX
8
CUT
10
500.804
20
372.939
30
0
0
VERTEX
8
CUT
10
500.74
20
372.923
30
0
0
VERTEX
8
CUT
10
500.672
20
372.913
30
0
0
VERTEX
8
CUT
10
500.602
20
372.91
30
0
0
VERTEX
8
CUT
10
453.398
20
372.91
30
0
0
VERTEX
8
CUT
10
453.328
20
372.913
30
0
0
VERTEX
8
CUT
10
453.26
20
372.923
30
0
0
VERTEX
8
CUT
10
453.196
20
372.939
30
0
0
VERTEX
8
CUT
10
453.137
20
372.964
30
0
0
VERTEX
8
CUT
10
453.084
20
372.996
30
0
0
VERTEX
8
CUT
10
453.036
20
373.036
30
0
0
VERTEX
8
CUT
10
452.996
20
373.084
30
0
0
VERTEX
8
CUT
10
452.964
20
373.137
30
0
0
VERTEX
8
CUT
10
452.939
20
373.196
30
0
0
VERTEX
8
CUT
10
452.923
20
373.26
30
0
0
VERTEX
8
CUT
10
452.913
20
373.328
30
0
0
VERTEX
8
CUT
10
452.91
20
373.398
30
0
0
SEQEND
8
CUT
0
POLYLINE
8
CUT
66
1
70
1
0
VERTEX
8
CUT
10
504.91
20
377.602
30
0
0
VERTEX
8
CUT
10
504.913
20
377.672
30
0
0
VERTEX
8
CUT
10
504.923
20
377.74
30
0
0
VERTEX
8
CUT
10
504.939
20
377.804
30
0
0
VERTEX
8
CUT
10
504.964
20
377.863
30
0
0
VERTEX
8
CUT
10
504.996
20
377.916
30
0
0
VERTEX
8
CUT
10
505.036
20
377.964
30
0
0
VERTEX
8
CUT
10
505.084
20
378.004
30
0
0
VERTEX
8
CUT
10
505.137
20
378.036
30
0
0
VERTEX
8
CUT
10
505.196
20
378.061
30
0
0
VERTEX
8
CUT
10
505.26
20
378.077
30
0
0
VERTEX
8
CUT
10
505.328
20
378.087
30
0
0
VERTEX
8
CUT
10
505.398
20
378.09
30
0
0
VERTEX
8
CUT
10
552.602
20
378.09
30
0
0
VERTEX
8
CUT
10
552.672
20
378.087
30
0
0
VERTEX
8
CUT
10
552.74
20
378.077
30
0
0
VERTEX
8
CUT
10
552.804
20
378.061
30
0
0
VERTEX
8
CUT
10
552.863
20
378.036
30
0
0
VERTEX
8
CUT
10
552.916
20
378.004
30
0
0
VERTEX
8
CUT
10
552.964
20
377.964
30
0
0
VERTEX
8
CUT
10
553.004
20
377.916
30
0
0
VERTEX
8
CUT
10
553.036
20
377.863
30
0
0
VERTEX
8
CUT
10
553.061
20
377.804
30
0
0
VERTEX
8
CUT
10
553.077
20
377.74
30
0
0
VERTEX
8
CUT
10
553.087
20
377.672
30
0
0
VERTEX
8
CUT
10
553.09
20
377.602
30
0
0
VERTEX
8
CUT
10
553.09
20
373.398
30
0
0
VERTEX
8
CUT
10
553.087
20
373.328
30
0
0
VERTEX
8
CUT
10
553.077
20
373.26
30
0
0
VERTEX
8
CUT
10
553.061
20
373.196
30
0
0
VERTEX
8
CUT
10
553.036
20
373.137
30
0
0
VERTEX
8
CUT
10
553.004
20
373.084
30
0
0
VERTEX
8
CUT
10
552.964
20
373.036
30
0
0
VERTEX
8
CUT
10
552.916
20
372.996
30
0
0
VERTEX
8
CUT
10
552.863
20
372.964
30
0
0
VERTEX
8
CUT
10
552.804
20
372.939
30
0
0
VERTEX
8
CUT
10
552.74
20
372.923
30
0
0
VERTEX
8
CUT
10
552.672
20
372.913
30
0
0
VERTEX
8
CUT
10
552.602
20
372.91
30
0
0
VERTEX
8
CUT
10
505.398
20
372.91
30
0
0
VERTEX
8
CUT
10
505.328
20
372.913
30
0
0
VERTEX
8
CUT
10
505.26
20
372.923
30
0
0
VERTEX
8
CUT
10
505.196
20
372.939
30
0
0
VERTEX
8
CUT
10
505.137
20
372.964
30
0
0
VERTEX
8
CUT
10
505.084
20
372.996
30
0
0
VERTEX
8
CUT
10
505.036
20
373.036
30
0
0
VERTEX
8
CUT
10
504.996
20
373.084
30
0
0
VERTEX
8
CUT
10
504.964
20
373.137
30
0
0
VERTEX
8
CUT
10
504.939
20
373.196
30
0
0
VERTEX
8
CUT
10
504.923
20
373.26
30
0
0
VERTEX
8
CUT
10
504.913
20
373.328
30
0
0
VERTEX
8
CUT
10
504.91
20
373.398
30
0
0
SEQEND
8
CUT
0
ENDSEC
0
EOF
