  0
SECTION
  2
HEADER
  9
$ACADVER
  1
AC1015
  9
$ACADMAINTVER
 70
6
  9
$DWGCODEPAGE
  3
ANSI_1252
  9
$INSBASE
 10
0.0
 20
0.0
 30
0.0
  9
$EXTMIN
 10
1e+20
 20
1e+20
 30
1e+20
  9
$EXTMAX
 10
-1e+20
 20
-1e+20
 30
-1e+20
  9
$LIMMIN
 10
0.0
 20
0.0
  9
$LIMMAX
 10
420.0
 20
297.0
  9
$ORTHOMODE
 70
0
  9
$REGENMODE
 70
1
  9
$FILLMODE
 70
1
  9
$QTEXTMODE
 70
0
  9
$MIRRTEXT
 70
1
  9
$LTSCALE
 40
1.0
  9
$ATTMODE
 70
1
  9
$TEXTSIZE
 40
2.5
  9
$TRACEWID
 40
1.0
  9
$TEXTSTYLE
  7
Standard
  9
$CLAYER
  8
0
  9
$CELTYPE
  6
ByLayer
  9
$CECOLOR
 62
256
  9
$CELTSCALE
 40
1.0
  9
$DISPSILH
 70
0
  9
$DIMSCALE
 40
1.0
  9
$DIMASZ
 40
2.5
  9
$DIMEXO
 40
0.625
  9
$DIMDLI
 40
3.75
  9
$DIMRND
 40
0.0
  9
$DIMDLE
 40
0.0
  9
$DIMEXE
 40
1.25
  9
$DIMTP
 40
0.0
  9
$DIMTM
 40
0.0
  9
$DIMTXT
 40
2.5
  9
$DIMCEN
 40
2.5
  9
$DIMTSZ
 40
0.0
  9
$DIMTOL
 70
0
  9
$DIMLIM
 70
0
  9
$DIMTIH
 70
0
  9
$DIMTOH
 70
0
  9
$DIMSE1
 70
0
  9
$DIMSE2
 70
0
  9
$DIMTAD
 70
1
  9
$DIMZIN
 70
8
  9
$DIMBLK
  1

  9
$DIMASO
 70
1
  9
$DIMSHO
 70
1
  9
$DIMPOST
  1

  9
$DIMAPOST
  1

  9
$DIMALT
 70
0
  9
$DIMALTD
 70
3
  9
$DIMALTF
 40
0.03937007874
  9
$DIMLFAC
 40
1.0
  9
$DIMTOFL
 70
1
  9
$DIMTVP
 40
0.0
  9
$DIMTIX
 70
0
  9
$DIMSOXD
 70
0
  9
$DIMSAH
 70
0
  9
$DIMBLK1
  1

  9
$DIMBLK2
  1

  9
$DIMSTYLE
  2
ISO-25
  9
$DIMCLRD
 70
0
  9
$DIMCLRE
 70
0
  9
$DIMCLRT
 70
0
  9
$DIMTFAC
 40
1.0
  9
$DIMGAP
 40
0.625
  9
$DIMJUST
 70
0
  9
$DIMSD1
 70
0
  9
$DIMSD2
 70
0
  9
$DIMTOLJ
 70
0
  9
$DIMTZIN
 70
8
  9
$DIMALTZ
 70
0
  9
$DIMALTTZ
 70
0
  9
$DIMUPT
 70
0
  9
$DIMDEC
 70
2
  9
$DIMTDEC
 70
2
  9
$DIMALTU
 70
2
  9
$DIMALTTD
 70
3
  9
$DIMTXSTY
  7
Standard
  9
$DIMAUNIT
 70
0
  9
$DIMADEC
 70
0
  9
$DIMALTRND
 40
0.0
  9
$DIMAZIN
 70
0
  9
$DIMDSEP
 70
44
  9
$DIMATFIT
 70
3
  9
$DIMFRAC
 70
0
  9
$DIMLDRBLK
  1

  9
$DIMLUNIT
 70
2
  9
$DIMLWD
 70
-2
  9
$DIMLWE
 70
-2
  9
$DIMTMOVE
 70
0
  9
$LUNITS
 70
2
  9
$LUPREC
 70
4
  9
$SKETCHINC
 40
1.0
  9
$FILLETRAD
 40
10.0
  9
$AUNITS
 70
0
  9
$AUPREC
 70
2
  9
$MENU
  1
.
  9
$ELEVATION
 40
0.0
  9
$PELEVATION
 40
0.0
  9
$THICKNESS
 40
0.0
  9
$LIMCHECK
 70
0
  9
$CHAMFERA
 40
0.0
  9
$CHAMFERB
 40
0.0
  9
$CHAMFERC
 40
0.0
  9
$CHAMFERD
 40
0.0
  9
$SKPOLY
 70
0
  9
$TDCREATE
 40
2461278.544351852
  9
$TDUCREATE
 40
2458532.153996898
  9
$TDUPDATE
 40
2461278.544351852
  9
$TDUUPDATE
 40
2458532.1544311
  9
$TDINDWG
 40
0.0
  9
$TDUSRTIMER
 40
0.0
  9
$USRTIMER
 70
1
  9
$ANGBASE
 50
0.0
  9
$ANGDIR
 70
0
  9
$PDMODE
 70
0
  9
$PDSIZE
 40
0.0
  9
$PLINEWID
 40
0.0
  9
$SPLFRAME
 70
0
  9
$SPLINETYPE
 70
6
  9
$SPLINESEGS
 70
8
  9
$HANDSEED
  5
68
  9
$SURFTAB1
 70
6
  9
$SURFTAB2
 70
6
  9
$SURFTYPE
 70
6
  9
$SURFU
 70
6
  9
$SURFV
 70
6
  9
$UCSBASE
  2

  9
$UCSNAME
  2

  9
$UCSORG
 10
0.0
 20
0.0
 30
0.0
  9
$UCSXDIR
 10
1.0
 20
0.0
 30
0.0
  9
$UCSYDIR
 10
0.0
 20
1.0
 30
0.0
  9
$UCSORTHOREF
  2

  9
$UCSORTHOVIEW
 70
0
  9
$UCSORGTOP
 10
0.0
 20
0.0
 30
0.0
  9
$UCSORGBOTTOM
 10
0.0
 20
0.0
 30
0.0
  9
$UCSORGLEFT
 10
0.0
 20
0.0
 30
0.0
  9
$UCSORGRIGHT
 10
0.0
 20
0.0
 30
0.0
  9
$UCSORGFRONT
 10
0.0
 20
0.0
 30
0.0
  9
$UCSORGBACK
 10
0.0
 20
0.0
 30
0.0
  9
$PUCSBASE
  2

  9
$PUCSNAME
  2

  9
$PUCSORG
 10
0.0
 20
0.0
 30
0.0
  9
$PUCSXDIR
 10
1.0
 20
0.0
 30
0.0
  9
$PUCSYDIR
 10
0.0
 20
1.0
 30
0.0
  9
$PUCSORTHOREF
  2

  9
$PUCSORTHOVIEW
 70
0
  9
$PUCSORGTOP
 10
0.0
 20
0.0
 30
0.0
  9
$PUCSORGBOTTOM
 10
0.0
 20
0.0
 30
0.0
  9
$PUCSORGLEFT
 10
0.0
 20
0.0
 30
0.0
  9
$PUCSORGRIGHT
 10
0.0
 20
0.0
 30
0.0
  9
$PUCSORGFRONT
 10
0.0
 20
0.0
 30
0.0
  9
$PUCSORGBACK
 10
0.0
 20
0.0
 30
0.0
  9
$USERI1
 70
0
  9
$USERI2
 70
0
  9
$USERI3
 70
0
  9
$USERI4
 70
0
  9
$USERI5
 70
0
  9
$USERR1
 40
0.0
  9
$USERR2
 40
0.0
  9
$USERR3
 40
0.0
  9
$USERR4
 40
0.0
  9
$USERR5
 40
0.0
  9
$WORLDVIEW
 70
1
  9
$SHADEDGE
 70
3
  9
$SHADEDIF
 70
70
  9
$TILEMODE
 70
1
  9
$MAXACTVP
 70
64
  9
$PINSBASE
 10
0.0
 20
0.0
 30
0.0
  9
$PLIMCHECK
 70
0
  9
$PEXTMIN
 10
1e+20
 20
1e+20
 30
1e+20
  9
$PEXTMAX
 10
-1e+20
 20
-1e+20
 30
-1e+20
  9
$PLIMMIN
 10
0.0
 20
0.0
  9
$PLIMMAX
 10
420.0
 20
297.0
  9
$UNITMODE
 70
0
  9
$VISRETAIN
 70
1
  9
$PLINEGEN
 70
0
  9
$PSLTSCALE
 70
1
  9
$TREEDEPTH
 70
3020
  9
$CMLSTYLE
  2
Standard
  9
$CMLJUST
 70
0
  9
$CMLSCALE
 40
20.0
  9
$PROXYGRAPHICS
 70
1
  9
$MEASUREMENT
 70
1
  9
$CELWEIGHT
370
-1
  9
$ENDCAPS
280
0
  9
$JOINSTYLE
280
0
  9
$LWDISPLAY
290
0
  9
$INSUNITS
 70
4
  9
$HYPERLINKBASE
  1

  9
$STYLESHEET
  1

  9
$XEDIT
290
1
  9
$CEPSNTYPE
380
0
  9
$PSTYLEMODE
290
1
  9
$FINGERPRINTGUID
  2
{478A16BF-3235-4906-A291-2278914C751E}
  9
$VERSIONGUID
  2
{994F9E8D-35C1-4A9F-B42F-58617C050365}
  9
$EXTNAMES
290
1
  9
$PSVPSCALE
 40
0.0
  9
$OLESTARTUP
290
0
  0
ENDSEC
  0
SECTION
  2
CLASSES
  0
CLASS
  1
ACDBDICTIONARYWDFLT
  2
AcDbDictionaryWithDefault
  3
ObjectDBX Classes
 90
0
280
0
281
0
  0
CLASS
  1
SUN
  2
AcDbSun
  3
SCENEOE
 90
1153
280
0
281
0
  0
CLASS
  1
VISUALSTYLE
  2
AcDbVisualStyle
  3
ObjectDBX Classes
 90
4095
280
0
281
0
  0
CLASS
  1
MATERIAL
  2
AcDbMaterial
  3
ObjectDBX Classes
 90
1153
280
0
281
0
  0
CLASS
  1
SCALE
  2
AcDbScale
  3
ObjectDBX Classes
 90
1153
280
0
281
0
  0
CLASS
  1
TABLESTYLE
  2
AcDbTableStyle
  3
ObjectDBX Classes
 90
4095
280
0
281
0
  0
CLASS
  1
MLEADERSTYLE
  2
AcDbMLeaderStyle
  3
ACDB_MLEADERSTYLE_CLASS
 90
4095
280
0
281
0
  0
CLASS
  1
DICTIONARYVAR
  2
AcDbDictionaryVar
  3
ObjectDBX Classes
 90
0
280
0
281
0
  0
CLASS
  1
CELLSTYLEMAP
  2
AcDbCellStyleMap
  3
ObjectDBX Classes
 90
1152
280
0
281
0
  0
CLASS
  1
MENTALRAYRENDERSETTINGS
  2
AcDbMentalRayRenderSettings
  3
SCENEOE
 90
1024
280
0
281
0
  0
CLASS
  1
ACDBDETAILVIEWSTYLE
  2
AcDbDetailViewStyle
  3
ObjectDBX Classes
 90
1025
280
0
281
0
  0
CLASS
  1
ACDBSECTIONVIEWSTYLE
  2
AcDbSectionViewStyle
  3
ObjectDBX Classes
 90
1025
280
0
281
0
  0
CLASS
  1
RASTERVARIABLES
  2
AcDbRasterVariables
  3
ISM
 90
0
280
0
281
0
  0
CLASS
  1
ACDBPLACEHOLDER
  2
AcDbPlaceHolder
  3
ObjectDBX Classes
 90
0
280
0
281
0
  0
CLASS
  1
LAYOUT
  2
AcDbLayout
  3
ObjectDBX Classes
 90
0
280
0
281
0
  0
ENDSEC
  0
SECTION
  2
TABLES
  0
TABLE
  2
VPORT
  5
8
330
0
100
AcDbSymbolTable
 70
1
  0
VPORT
  5
23
330
8
100
AcDbSymbolTableRecord
100
AcDbViewportTableRecord
  2
*Active
 70
0
 10
0.0
 20
0.0
 11
1.0
 21
1.0
 12
0.0
 22
0.0
 13
0.0
 23
0.0
 14
0.5
 24
0.5
 15
0.5
 25
0.5
 16
0.0
 26
0.0
 36
1.0
 17
0.0
 27
0.0
 37
0.0
 40
1000.0
 41
1.34
 42
50.0
 43
0.0
 44
0.0
 50
0.0
 51
0.0
 71
0
 72
1000
 73
1
 74
3
 75
0
 76
0
 77
0
 78
0
281
0
 65
0
146
0.0
  0
ENDTAB
  0
TABLE
  2
LTYPE
  5
2
330
0
100
AcDbSymbolTable
 70
3
  0
LTYPE
  5
24
330
2
100
AcDbSymbolTableRecord
100
AcDbLinetypeTableRecord
  2
ByBlock
 70
0
  3

 72
65
 73
0
 40
0.0
  0
LTYPE
  5
25
330
2
100
AcDbSymbolTableRecord
100
AcDbLinetypeTableRecord
  2
ByLayer
 70
0
  3

 72
65
 73
0
 40
0.0
  0
LTYPE
  5
26
330
2
100
AcDbSymbolTableRecord
100
AcDbLinetypeTableRecord
  2
Continuous
 70
0
  3

 72
65
 73
0
 40
0.0
  0
ENDTAB
  0
TABLE
  2
LAYER
  5
1
330
0
100
AcDbSymbolTable
 70
4
  0
LAYER
  5
27
330
1
100
AcDbSymbolTableRecord
100
AcDbLayerTableRecord
  2
0
 70
0
 62
7
  6
Continuous
370
-3
390
13
  0
LAYER
  5
28
330
1
100
AcDbSymbolTableRecord
100
AcDbLayerTableRecord
  2
Defpoints
 70
0
 62
7
  6
Continuous
290
0
370
-3
390
13
  0
LAYER
  5
2F
330
1
100
AcDbSymbolTableRecord
100
AcDbLayerTableRecord
  2
CUT
 70
0
 62
1
  6
Continuous
370
-3
390
13
  0
LAYER
  5
30
330
1
100
AcDbSymbolTableRecord
100
AcDbLayerTableRecord
  2
RASTER
 70
0
 62
7
  6
Continuous
370
-3
390
13
  0
ENDTAB
  0
TABLE
  2
STYLE
  5
5
330
0
100
AcDbSymbolTable
 70
1
  0
STYLE
  5
29
330
5
100
AcDbSymbolTableRecord
100
AcDbTextStyleTableRecord
  2
Standard
 70
0
 40
0.0
 41
1.0
 50
0.0
 71
0
 42
2.5
  3
txt
  4

  0
ENDTAB
  0
TABLE
  2
VIEW
  5
7
330
0
100
AcDbSymbolTable
 70
0
  0
ENDTAB
  0
TABLE
  2
UCS
  5
6
330
0
100
AcDbSymbolTable
 70
0
  0
ENDTAB
  0
TABLE
  2
APPID
  5
3
330
0
100
AcDbSymbolTable
 70
3
  0
APPID
  5
2A
330
3
100
AcDbSymbolTableRecord
100
AcDbRegAppTableRecord
  2
ACAD
 70
0
  0
APPID
  5
65
330
3
100
AcDbSymbolTableRecord
100
AcDbRegAppTableRecord
  2
HATCHBACKGROUNDCOLOR
 70
0
  0
APPID
  5
66
330
3
100
AcDbSymbolTableRecord
100
AcDbRegAppTableRecord
  2
EZDXF
 70
0
  0
ENDTAB
  0
TABLE
  2
DIMSTYLE
  5
4
330
0
100
AcDbSymbolTable
 70
1
100
AcDbDimStyleTable
  0
DIMSTYLE
105
2B
330
4
100
AcDbSymbolTableRecord
100
AcDbDimStyleTableRecord
  2
Standard
 70
0
  3

  4

 40
1.0
 41
2.5
 42
0.625
 43
3.75
 44
1.25
 45
0.0
 46
0.0
 47
0.0
 48
0.0
140
2.5
141
2.5
142
0.0
143
0.03937007874
144
1.0
145
0.0
146
1.0
147
0.625
148
0.0
 71
0
 72
0
 73
0
 74
0
 75
0
 76
0
 77
1
 78
8
 79
3
170
0
171
3
172
1
173
0
174
0
175
0
176
0
177
0
178
0
179
2
271
2
272
2
273
2
274
3
275
0
276
0
277
2
278
44
279
0
280
0
281
0
282
0
283
0
284
8
285
0
286
0
288
0
289
3
371
-2
372
-2
  0
ENDTAB
  0
TABLE
  2
BLOCK_RECORD
  5
9
330
0
100
AcDbSymbolTable
 70
2
  0
BLOCK_RECORD
  5
17
330
9
100
AcDbSymbolTableRecord
100
AcDbBlockTableRecord
  2
*Model_Space
340
1A
  0
BLOCK_RECORD
  5
1B
330
9
100
AcDbSymbolTableRecord
100
AcDbBlockTableRecord
  2
*Paper_Space
340
1E
  0
ENDTAB
  0
ENDSEC
  0
SECTION
  2
BLOCKS
  0
BLOCK
  5
18
330
17
100
AcDbEntity
  8
0
100
AcDbBlockBegin
  2
*Model_Space
 70
0
 10
0.0
 20
0.0
 30
0.0
  3
*Model_Space
  1

  0
ENDBLK
  5
19
330
17
100
AcDbEntity
  8
0
100
AcDbBlockEnd
  0
BLOCK
  5
1C
330
1B
100
AcDbEntity
  8
0
100
AcDbBlockBegin
  2
*Paper_Space
 70
0
 10
0.0
 20
0.0
 30
0.0
  3
*Paper_Space
  1

  0
ENDBLK
  5
1D
330
1B
100
AcDbEntity
  8
0
100
AcDbBlockEnd
  0
ENDSEC
  0
SECTION
  2
ENTITIES
  0
LWPOLYLINE
  5
31
330
17
100
AcDbEntity
  8
CUT
100
AcDbPolyline
 90
38
 70
1
 10
5.784
 20
31.09
 10
16.802
 20
31.09
 10
17.901
 20
31.052
 10
18.943
 20
30.937
 10
19.93
 20
30.748
 10
20.865
 20
30.484
 10
21.752
 20
30.148
 10
22.593
 20
29.739
 10
23.392
 20
29.26
 10
24.152
 20
28.712
 10
24.876
 20
28.096
 10
25.569
 20
27.414
 10
26.233
 20
26.666
 10
26.915
 20
25.8
 10
26.233
 20
24.934
 10
25.569
 20
24.186
 10
24.876
 20
23.504
 10
24.152
 20
22.888
 10
23.392
 20
22.34
 10
22.593
 20
21.861
 10
21.752
 20
21.452
 10
20.865
 20
21.116
 10
19.93
 20
20.852
 10
18.943
 20
20.663
 10
17.901
 20
20.548
 10
16.802
 20
20.51
 10
5.784
 20
20.51
 10
5.195
 20
20.729
 10
4.722
 20
21.324
 10
4.364
 20
22.198
 10
4.111
 20
23.281
 10
3.96
 20
24.505
 10
3.91
 20
25.8
 10
3.96
 20
27.095
 10
4.111
 20
28.319
 10
4.364
 20
29.402
 10
4.722
 20
30.276
 10
5.195
 20
30.871
  0
LWPOLYLINE
  5
32
330
17
100
AcDbEntity
  8
CUT
100
AcDbPolyline
 90
4
 70
1
 10
8.865
 20
29.21
 10
11.735
 20
29.21
 10
11.735
 20
22.39
 10
8.865
 20
22.39
  0
LWPOLYLINE
  5
33
330
17
100
AcDbEntity
  8
CUT
100
AcDbPolyline
 90
4
 70
1
 10
16.865
 20
29.21
 10
19.735
 20
29.21
 10
19.735
 20
22.39
 10
16.865
 20
22.39
  0
HATCH
  5
34
330
17
100
AcDbEntity
  8
RASTER
 62
7
100
AcDbHatch
 10
0.0
 20
0.0
 30
0.0
210
0.0
220
0.0
230
1.0
  2
SOLID
 70
1
 71
0
 91
1
 92
3
 72
0
 73
1
 93
4
 10
6.0
 20
29.02
 10
22.5
 20
29.02
 10
22.5
 20
28.58
 10
6.0
 20
28.58
 97
0
 75
0
 76
1
 98
0
  0
HATCH
  5
35
330
17
100
AcDbEntity
  8
RASTER
 62
7
100
AcDbHatch
 10
0.0
 20
0.0
 30
0.0
210
0.0
220
0.0
230
1.0
  2
SOLID
 70
1
 71
0
 91
1
 92
3
 72
0
 73
1
 93
4
 10
6.0
 20
26.02
 10
22.5
 20
26.02
 10
22.5
 20
25.58
 10
6.0
 20
25.58
 97
0
 75
0
 76
1
 98
0
  0
HATCH
  5
36
330
17
100
AcDbEntity
  8
RASTER
 62
7
100
AcDbHatch
 10
0.0
 20
0.0
 30
0.0
210
0.0
220
0.0
230
1.0
  2
SOLID
 70
1
 71
0
 91
1
 92
3
 72
0
 73
1
 93
4
 10
6.0
 20
23.02
 10
22.5
 20
23.02
 10
22.5
 20
22.58
 10
6.0
 20
22.58
 97
0
 75
0
 76
1
 98
0
  0
HATCH
  5
37
330
17
100
AcDbEntity
  8
RASTER
 62
7
100
AcDbHatch
 10
0.0
 20
0.0
 30
0.0
210
0.0
220
0.0
230
1.0
  2
SOLID
 70
1
 71
0
 91
1
 92
3
 72
0
 73
1
 93
4
 10
4.4
 20
26.1
 10
6.0
 20
26.1
 10
6.0
 20
25.5
 10
4.4
 20
25.5
 97
0
 75
0
 76
1
 98
0
  0
LWPOLYLINE
  5
38
330
17
100
AcDbEntity
  8
CUT
100
AcDbPolyline
 90
18
 70
1
 10
36.91
 20
31.09
 10
39.69
 20
31.09
 10
39.69
 20
29.09
 10
45.89
 20
29.09
 10
45.89
 20
15.948
 10
43.033
 20
14.315
 10
39.69
 20
13.529
 10
39.69
 20
10.09
 10
41.84
 20
10.09
 10
41.84
 20
3.91
 10
34.76
 20
3.91
 10
34.76
 20
10.09
 10
36.91
 20
10.09
 10
36.91
 20
13.524
 10
32.255
 20
14.316
 10
30.71
 20
15.964
 10
30.71
 20
29.09
 10
36.91
 20
29.09
  0
HATCH
  5
39
330
17
100
AcDbEntity
  8
RASTER
 62
7
100
AcDbHatch
 10
0.0
 20
0.0
 30
0.0
210
0.0
220
0.0
230
1.0
  2
SOLID
 70
1
 71
0
 91
1
 92
3
 72
0
 73
1
 93
4
 10
30.8
 20
28.4
 10
45.8
 20
28.4
 10
45.8
 20
27.9
 10
30.8
 20
27.9
 97
0
 75
0
 76
1
 98
0
  0
HATCH
  5
3A
330
17
100
AcDbEntity
  8
RASTER
 62
7
100
AcDbHatch
 10
0.0
 20
0.0
 30
0.0
210
0.0
220
0.0
230
1.0
  2
SOLID
 70
1
 71
0
 91
4
 92
3
 72
0
 73
1
 93
45
 10
37.983
 20
26.59
 10
38.551
 20
26.6
 10
39.237
 20
26.482
 10
39.657
 20
26.324
 10
40.092
 20
26.055
 10
40.343
 20
25.828
 10
40.68
 20
25.311
 10
40.924
 20
24.675
 10
41.014
 20
24.162
 10
40.949
 20
23.599
 10
40.529
 20
22.687
 10
40.512
 20
22.403
 10
40.612
 20
21.976
 10
40.537
 20
21.699
 10
40.411
 20
21.574
 10
40.22
 20
21.488
 10
39.484
 20
21.37
 10
39.381
 20
21.197
 10
39.456
 20
20.719
 10
39.413
 20
20.561
 10
39.094
 20
20.378
 10
38.476
 20
20.267
 10
38.099
 20
20.267
 10
37.664
 20
20.335
 10
37.245
 20
20.493
 10
37.144
 20
20.594
 10
37.119
 20
20.694
 10
37.194
 20
21.096
 10
37.162
 20
21.315
 10
37.001
 20
21.405
 10
36.375
 20
21.483
 10
36.096
 20
21.632
 10
35.988
 20
21.901
 10
36.006
 20
22.159
 10
36.088
 20
22.428
 10
36.048
 20
22.715
 10
35.744
 20
23.315
 10
35.586
 20
23.861
 10
35.586
 20
24.288
 10
35.676
 20
24.725
 10
35.92
 20
25.336
 10
36.181
 20
25.753
 10
36.619
 20
26.145
 10
37.026
 20
26.366
 10
37.461
 20
26.51
 97
0
 92
3
 72
0
 73
1
 93
15
 10
37.227
 20
23.275
 10
36.868
 20
23.182
 10
36.709
 20
23.064
 10
36.551
 20
22.795
 10
36.518
 20
22.607
 10
36.574
 20
22.411
 10
36.684
 20
22.27
 10
36.883
 20
22.167
 10
37.32
 20
22.177
 10
37.536
 20
22.237
 10
37.73
 20
22.37
 10
37.888
 20
22.665
 10
37.883
 20
22.941
 10
37.765
 20
23.15
 10
37.556
 20
23.268
 97
0
 92
3
 72
0
 73
1
 93
14
 10
39.061
 20
23.275
 10
38.87
 20
23.19
 10
38.712
 20
22.971
 10
38.712
 20
22.639
 10
38.845
 20
22.396
 10
39.114
 20
22.212
 10
39.506
 20
22.152
 10
39.717
 20
22.167
 10
39.941
 20
22.295
 10
40.044
 20
22.494
 10
40.059
 20
22.68
 10
39.916
 20
23.014
 10
39.758
 20
23.157
 10
39.567
 20
23.243
 97
0
 92
3
 72
0
 73
1
 93
70
 10
35.194
 20
21.061
 10
35.417
 20
21.054
 10
35.611
 20
20.971
 10
36.056
 20
20.511
 10
36.475
 20
20.227
 10
38.275
 20
19.463
 10
38.695
 20
19.596
 10
40.207
 20
20.27
 10
40.544
 20
20.511
 10
40.931
 20
20.928
 10
41.072
 20
21.013
 10
41.291
 20
21.071
 10
41.517
 20
21.021
 10
41.65
 20
20.802
 10
41.657
 20
20.508
 10
41.826
 20
20.375
 10
41.911
 20
20.234
 10
41.909
 20
19.975
 10
41.801
 20
19.832
 10
41.519
 20
19.712
 10
41.09
 20
19.714
 10
40.572
 20
19.629
 10
39.373
 20
19.119
 10
39.33
 20
19.036
 10
39.391
 20
18.945
 10
40.496
 20
18.468
 10
41.039
 20
18.357
 10
41.602
 20
18.342
 10
41.801
 20
18.239
 10
41.909
 20
18.096
 10
41.909
 20
17.839
 10
41.826
 20
17.696
 10
41.657
 20
17.563
 10
41.617
 20
17.176
 10
41.426
 20
17.015
 10
41.291
 20
17.0
 10
41.072
 20
17.058
 10
40.906
 20
17.168
 10
40.519
 20
17.586
 10
40.258
 20
17.777
 10
38.468
 20
18.576
 10
38.25
 20
18.608
 10
36.342
 20
17.777
 10
36.081
 20
17.586
 10
35.694
 20
17.168
 10
35.528
 20
17.058
 10
35.309
 20
17.0
 10
35.086
 20
17.053
 10
34.95
 20
17.269
 10
34.943
 20
17.563
 10
34.774
 20
17.696
 10
34.691
 20
17.839
 10
34.691
 20
18.096
 10
34.799
 20
18.239
 10
34.998
 20
18.342
 10
35.561
 20
18.357
 10
36.104
 20
18.468
 10
37.209
 20
18.945
 10
37.27
 20
19.036
 10
37.227
 20
19.119
 10
36.028
 20
19.629
 10
35.51
 20
19.714
 10
35.081
 20
19.712
 10
34.799
 20
19.832
 10
34.691
 20
19.975
 10
34.689
 20
20.234
 10
34.774
 20
20.375
 10
34.943
 20
20.508
 10
34.932
 20
20.694
 10
35.008
 20
20.946
 97
0
 75
0
 76
1
 98
0
  0
LWPOLYLINE
  5
3B
330
17
100
AcDbEntity
  8
CUT
100
AcDbPolyline
 90
18
 70
1
 10
54.41
 20
31.09
 10
57.19
 20
31.09
 10
57.19
 20
29.09
 10
61.89
 20
29.09
 10
61.89
 20
17.948
 10
59.04
 20
16.319
 10
57.19
 20
15.54
 10
57.19
 20
12.09
 10
59.34
 20
12.09
 10
59.34
 20
5.91
 10
52.26
 20
5.91
 10
52.26
 20
12.09
 10
54.41
 20
12.09
 10
54.41
 20
15.53
 10
51.252
 20
16.319
 10
49.71
 20
17.964
 10
49.71
 20
29.09
 10
54.41
 20
29.09
  0
HATCH
  5
3C
330
17
100
AcDbEntity
  8
RASTER
 62
7
100
AcDbHatch
 10
0.0
 20
0.0
 30
0.0
210
0.0
220
0.0
230
1.0
  2
SOLID
 70
1
 71
0
 91
1
 92
3
 72
0
 73
1
 93
4
 10
49.8
 20
28.4
 10
61.8
 20
28.4
 10
61.8
 20
27.9
 10
49.8
 20
27.9
 97
0
 75
0
 76
1
 98
0
  0
HATCH
  5
3D
330
17
100
AcDbEntity
  8
RASTER
 62
7
100
AcDbHatch
 10
0.0
 20
0.0
 30
0.0
210
0.0
220
0.0
230
1.0
  2
SOLID
 70
1
 71
0
 91
4
 92
3
 72
0
 73
1
 93
45
 10
55.549
 20
26.592
 10
55.999
 20
26.6
 10
56.542
 20
26.506
 10
56.874
 20
26.381
 10
57.219
 20
26.168
 10
57.417
 20
25.989
 10
57.684
 20
25.579
 10
57.877
 20
25.076
 10
57.949
 20
24.67
 10
57.897
 20
24.225
 10
57.565
 20
23.502
 10
57.551
 20
23.277
 10
57.63
 20
22.939
 10
57.571
 20
22.72
 10
57.471
 20
22.621
 10
57.32
 20
22.553
 10
56.737
 20
22.46
 10
56.655
 20
22.323
 10
56.715
 20
21.945
 10
56.681
 20
21.819
 10
56.429
 20
21.674
 10
55.939
 20
21.586
 10
55.641
 20
21.586
 10
55.297
 20
21.64
 10
54.964
 20
21.765
 10
54.885
 20
21.845
 10
54.865
 20
21.925
 10
54.925
 20
22.243
 10
54.899
 20
22.416
 10
54.771
 20
22.488
 10
54.276
 20
22.549
 10
54.055
 20
22.667
 10
53.97
 20
22.88
 10
53.984
 20
23.085
 10
54.049
 20
23.297
 10
54.017
 20
23.524
 10
53.777
 20
24.0
 10
53.651
 20
24.431
 10
53.651
 20
24.77
 10
53.723
 20
25.116
 10
53.916
 20
25.599
 10
54.123
 20
25.93
 10
54.469
 20
26.24
 10
54.791
 20
26.415
 10
55.135
 20
26.528
 97
0
 92
3
 72
0
 73
1
 93
15
 10
54.95
 20
23.968
 10
54.666
 20
23.894
 10
54.541
 20
23.801
 10
54.415
 20
23.588
 10
54.389
 20
23.439
 10
54.433
 20
23.283
 10
54.521
 20
23.172
 10
54.678
 20
23.09
 10
55.024
 20
23.098
 10
55.195
 20
23.146
 10
55.348
 20
23.252
 10
55.474
 20
23.484
 10
55.47
 20
23.703
 10
55.376
 20
23.868
 10
55.211
 20
23.962
 97
0
 92
3
 72
0
 73
1
 93
14
 10
56.403
 20
23.968
 10
56.252
 20
23.9
 10
56.126
 20
23.727
 10
56.126
 20
23.465
 10
56.232
 20
23.272
 10
56.445
 20
23.126
 10
56.755
 20
23.079
 10
56.922
 20
23.09
 10
57.099
 20
23.192
 10
57.181
 20
23.349
 10
57.193
 20
23.496
 10
57.079
 20
23.761
 10
56.954
 20
23.874
 10
56.803
 20
23.942
 97
0
 92
3
 72
0
 73
1
 93
70
 10
53.341
 20
22.215
 10
53.518
 20
22.209
 10
53.671
 20
22.143
 10
54.023
 20
21.779
 10
54.356
 20
21.555
 10
55.78
 20
20.95
 10
56.112
 20
21.055
 10
57.31
 20
21.588
 10
57.577
 20
21.779
 10
57.883
 20
22.11
 10
57.994
 20
22.177
 10
58.168
 20
22.223
 10
58.347
 20
22.183
 10
58.452
 20
22.01
 10
58.458
 20
21.777
 10
58.591
 20
21.672
 10
58.659
 20
21.561
 10
58.657
 20
21.356
 10
58.571
 20
21.242
 10
58.349
 20
21.147
 10
58.008
 20
21.149
 10
57.599
 20
21.081
 10
56.65
 20
20.677
 10
56.616
 20
20.612
 10
56.663
 20
20.54
 10
57.539
 20
20.162
 10
57.969
 20
20.074
 10
58.414
 20
20.062
 10
58.571
 20
19.981
 10
58.657
 20
19.867
 10
58.657
 20
19.665
 10
58.591
 20
19.551
 10
58.458
 20
19.446
 10
58.426
 20
19.139
 10
58.275
 20
19.012
 10
58.168
 20
19.0
 10
57.994
 20
19.046
 10
57.863
 20
19.133
 10
57.557
 20
19.464
 10
57.35
 20
19.615
 10
55.933
 20
20.247
 10
55.76
 20
20.273
 10
54.25
 20
19.615
 10
54.043
 20
19.464
 10
53.737
 20
19.133
 10
53.606
 20
19.046
 10
53.432
 20
19.0
 10
53.255
 20
19.042
 10
53.148
 20
19.213
 10
53.142
 20
19.446
 10
53.009
 20
19.551
 10
52.943
 20
19.665
 10
52.943
 20
19.867
 10
53.029
 20
19.981
 10
53.186
 20
20.062
 10
53.631
 20
20.074
 10
54.061
 20
20.162
 10
54.937
 20
20.54
 10
54.984
 20
20.612
 10
54.95
 20
20.677
 10
54.001
 20
21.081
 10
53.592
 20
21.149
 10
53.251
 20
21.147
 10
53.029
 20
21.242
 10
52.943
 20
21.356
 10
52.941
 20
21.561
 10
53.009
 20
21.672
 10
53.142
 20
21.777
 10
53.134
 20
21.925
 10
53.194
 20
22.124
 97
0
 75
0
 76
1
 98
0
  0
LWPOLYLINE
  5
3E
330
17
100
AcDbEntity
  8
CUT
100
AcDbPolyline
 90
38
 70
1
 10
67.584
 20
31.09
 10
78.602
 20
31.09
 10
79.701
 20
31.052
 10
80.743
 20
30.937
 10
81.73
 20
30.748
 10
82.665
 20
30.484
 10
83.552
 20
30.148
 10
84.393
 20
29.739
 10
85.192
 20
29.26
 10
85.952
 20
28.712
 10
86.676
 20
28.096
 10
87.369
 20
27.414
 10
88.033
 20
26.666
 10
88.715
 20
25.8
 10
88.033
 20
24.934
 10
87.369
 20
24.186
 10
86.676
 20
23.504
 10
85.952
 20
22.888
 10
85.192
 20
22.34
 10
84.393
 20
21.861
 10
83.552
 20
21.452
 10
82.665
 20
21.116
 10
81.73
 20
20.852
 10
80.743
 20
20.663
 10
79.701
 20
20.548
 10
78.602
 20
20.51
 10
67.584
 20
20.51
 10
66.995
 20
20.729
 10
66.522
 20
21.324
 10
66.164
 20
22.198
 10
65.911
 20
23.281
 10
65.76
 20
24.505
 10
65.71
 20
25.8
 10
65.76
 20
27.095
 10
65.911
 20
28.319
 10
66.164
 20
29.402
 10
66.522
 20
30.276
 10
66.995
 20
30.871
  0
LWPOLYLINE
  5
3F
330
17
100
AcDbEntity
  8
CUT
100
AcDbPolyline
 90
4
 70
1
 10
70.665
 20
29.21
 10
73.535
 20
29.21
 10
73.535
 20
22.39
 10
70.665
 20
22.39
  0
LWPOLYLINE
  5
40
330
17
100
AcDbEntity
  8
CUT
100
AcDbPolyline
 90
4
 70
1
 10
78.665
 20
29.21
 10
81.535
 20
29.21
 10
81.535
 20
22.39
 10
78.665
 20
22.39
  0
HATCH
  5
41
330
17
100
AcDbEntity
  8
RASTER
 62
7
100
AcDbHatch
 10
0.0
 20
0.0
 30
0.0
210
0.0
220
0.0
230
1.0
  2
SOLID
 70
1
 71
0
 91
1
 92
3
 72
0
 73
1
 93
4
 10
67.8
 20
29.02
 10
84.3
 20
29.02
 10
84.3
 20
28.58
 10
67.8
 20
28.58
 97
0
 75
0
 76
1
 98
0
  0
HATCH
  5
42
330
17
100
AcDbEntity
  8
RASTER
 62
7
100
AcDbHatch
 10
0.0
 20
0.0
 30
0.0
210
0.0
220
0.0
230
1.0
  2
SOLID
 70
1
 71
0
 91
1
 92
3
 72
0
 73
1
 93
4
 10
67.8
 20
26.02
 10
84.3
 20
26.02
 10
84.3
 20
25.58
 10
67.8
 20
25.58
 97
0
 75
0
 76
1
 98
0
  0
HATCH
  5
43
330
17
100
AcDbEntity
  8
RASTER
 62
7
100
AcDbHatch
 10
0.0
 20
0.0
 30
0.0
210
0.0
220
0.0
230
1.0
  2
SOLID
 70
1
 71
0
 91
1
 92
3
 72
0
 73
1
 93
4
 10
67.8
 20
23.02
 10
84.3
 20
23.02
 10
84.3
 20
22.58
 10
67.8
 20
22.58
 97
0
 75
0
 76
1
 98
0
  0
HATCH
  5
44
330
17
100
AcDbEntity
  8
RASTER
 62
7
100
AcDbHatch
 10
0.0
 20
0.0
 30
0.0
210
0.0
220
0.0
230
1.0
  2
SOLID
 70
1
 71
0
 91
1
 92
3
 72
0
 73
1
 93
4
 10
66.2
 20
26.1
 10
67.8
 20
26.1
 10
67.8
 20
25.5
 10
66.2
 20
25.5
 97
0
 75
0
 76
1
 98
0
  0
LWPOLYLINE
  5
45
330
17
100
AcDbEntity
  8
CUT
100
AcDbPolyline
 90
18
 70
1
 10
98.71
 20
31.09
 10
101.49
 20
31.09
 10
101.49
 20
29.09
 10
107.69
 20
29.09
 10
107.69
 20
15.948
 10
104.833
 20
14.315
 10
101.49
 20
13.529
 10
101.49
 20
10.09
 10
103.64
 20
10.09
 10
103.64
 20
3.91
 10
96.56
 20
3.91
 10
96.56
 20
10.09
 10
98.71
 20
10.09
 10
98.71
 20
13.524
 10
94.055
 20
14.316
 10
92.51
 20
15.964
 10
92.51
 20
29.09
 10
98.71
 20
29.09
  0
HATCH
  5
46
330
17
100
AcDbEntity
  8
RASTER
 62
7
100
AcDbHatch
 10
0.0
 20
0.0
 30
0.0
210
0.0
220
0.0
230
1.0
  2
SOLID
 70
1
 71
0
 91
1
 92
3
 72
0
 73
1
 93
4
 10
92.6
 20
28.4
 10
107.6
 20
28.4
 10
107.6
 20
27.9
 10
92.6
 20
27.9
 97
0
 75
0
 76
1
 98
0
  0
HATCH
  5
47
330
17
100
AcDbEntity
  8
RASTER
 62
7
100
AcDbHatch
 10
0.0
 20
0.0
 30
0.0
210
0.0
220
0.0
230
1.0
  2
SOLID
 70
1
 71
0
 91
4
 92
3
 72
0
 73
1
 93
45
 10
99.783
 20
26.59
 10
100.351
 20
26.6
 10
101.037
 20
26.482
 10
101.457
 20
26.324
 10
101.892
 20
26.055
 10
102.143
 20
25.828
 10
102.48
 20
25.311
 10
102.724
 20
24.675
 10
102.814
 20
24.162
 10
102.749
 20
23.599
 10
102.329
 20
22.687
 10
102.312
 20
22.403
 10
102.412
 20
21.976
 10
102.337
 20
21.699
 10
102.211
 20
21.574
 10
102.02
 20
21.488
 10
101.284
 20
21.37
 10
101.181
 20
21.197
 10
101.256
 20
20.719
 10
101.213
 20
20.561
 10
100.894
 20
20.378
 10
100.276
 20
20.267
 10
99.899
 20
20.267
 10
99.464
 20
20.335
 10
99.045
 20
20.493
 10
98.944
 20
20.594
 10
98.919
 20
20.694
 10
98.994
 20
21.096
 10
98.962
 20
21.315
 10
98.801
 20
21.405
 10
98.175
 20
21.483
 10
97.896
 20
21.632
 10
97.788
 20
21.901
 10
97.806
 20
22.159
 10
97.888
 20
22.428
 10
97.848
 20
22.715
 10
97.544
 20
23.315
 10
97.386
 20
23.861
 10
97.386
 20
24.288
 10
97.476
 20
24.725
 10
97.72
 20
25.336
 10
97.981
 20
25.753
 10
98.419
 20
26.145
 10
98.826
 20
26.366
 10
99.261
 20
26.51
 97
0
 92
3
 72
0
 73
1
 93
15
 10
99.027
 20
23.275
 10
98.668
 20
23.182
 10
98.509
 20
23.064
 10
98.351
 20
22.795
 10
98.318
 20
22.607
 10
98.374
 20
22.411
 10
98.484
 20
22.27
 10
98.683
 20
22.167
 10
99.12
 20
22.177
 10
99.336
 20
22.237
 10
99.53
 20
22.37
 10
99.688
 20
22.665
 10
99.683
 20
22.941
 10
99.565
 20
23.15
 10
99.356
 20
23.268
 97
0
 92
3
 72
0
 73
1
 93
14
 10
100.861
 20
23.275
 10
100.67
 20
23.19
 10
100.512
 20
22.971
 10
100.512
 20
22.639
 10
100.645
 20
22.396
 10
100.914
 20
22.212
 10
101.306
 20
22.152
 10
101.517
 20
22.167
 10
101.741
 20
22.295
 10
101.844
 20
22.494
 10
101.859
 20
22.68
 10
101.716
 20
23.014
 10
101.558
 20
23.157
 10
101.367
 20
23.243
 97
0
 92
3
 72
0
 73
1
 93
70
 10
96.994
 20
21.061
 10
97.217
 20
21.054
 10
97.411
 20
20.971
 10
97.856
 20
20.511
 10
98.275
 20
20.227
 10
100.075
 20
19.463
 10
100.495
 20
19.596
 10
102.007
 20
20.27
 10
102.344
 20
20.511
 10
102.731
 20
20.928
 10
102.872
 20
21.013
 10
103.091
 20
21.071
 10
103.317
 20
21.021
 10
103.45
 20
20.802
 10
103.457
 20
20.508
 10
103.626
 20
20.375
 10
103.711
 20
20.234
 10
103.709
 20
19.975
 10
103.601
 20
19.832
 10
103.319
 20
19.712
 10
102.89
 20
19.714
 10
102.372
 20
19.629
 10
101.173
 20
19.119
 10
101.13
 20
19.036
 10
101.191
 20
18.945
 10
102.296
 20
18.468
 10
102.839
 20
18.357
 10
103.402
 20
18.342
 10
103.601
 20
18.239
 10
103.709
 20
18.096
 10
103.709
 20
17.839
 10
103.626
 20
17.696
 10
103.457
 20
17.563
 10
103.417
 20
17.176
 10
103.226
 20
17.015
 10
103.091
 20
17.0
 10
102.872
 20
17.058
 10
102.706
 20
17.168
 10
102.319
 20
17.586
 10
102.058
 20
17.777
 10
100.268
 20
18.576
 10
100.05
 20
18.608
 10
98.142
 20
17.777
 10
97.881
 20
17.586
 10
97.494
 20
17.168
 10
97.328
 20
17.058
 10
97.109
 20
17.0
 10
96.886
 20
17.053
 10
96.75
 20
17.269
 10
96.743
 20
17.563
 10
96.574
 20
17.696
 10
96.491
 20
17.839
 10
96.491
 20
18.096
 10
96.599
 20
18.239
 10
96.798
 20
18.342
 10
97.361
 20
18.357
 10
97.904
 20
18.468
 10
99.009
 20
18.945
 10
99.07
 20
19.036
 10
99.027
 20
19.119
 10
97.828
 20
19.629
 10
97.31
 20
19.714
 10
96.881
 20
19.712
 10
96.599
 20
19.832
 10
96.491
 20
19.975
 10
96.489
 20
20.234
 10
96.574
 20
20.375
 10
96.743
 20
20.508
 10
96.732
 20
20.694
 10
96.808
 20
20.946
 97
0
 75
0
 76
1
 98
0
  0
LWPOLYLINE
  5
48
330
17
100
AcDbEntity
  8
CUT
100
AcDbPolyline
 90
18
 70
1
 10
116.21
 20
31.09
 10
118.99
 20
31.09
 10
118.99
 20
29.09
 10
123.69
 20
29.09
 10
123.69
 20
17.948
 10
120.84
 20
16.319
 10
118.99
 20
15.54
 10
118.99
 20
12.09
 10
121.14
 20
12.09
 10
121.14
 20
5.91
 10
114.06
 20
5.91
 10
114.06
 20
12.09
 10
116.21
 20
12.09
 10
116.21
 20
15.53
 10
113.052
 20
16.319
 10
111.51
 20
17.964
 10
111.51
 20
29.09
 10
116.21
 20
29.09
  0
HATCH
  5
49
330
17
100
AcDbEntity
  8
RASTER
 62
7
100
AcDbHatch
 10
0.0
 20
0.0
 30
0.0
210
0.0
220
0.0
230
1.0
  2
SOLID
 70
1
 71
0
 91
1
 92
3
 72
0
 73
1
 93
4
 10
111.6
 20
28.4
 10
123.6
 20
28.4
 10
123.6
 20
27.9
 10
111.6
 20
27.9
 97
0
 75
0
 76
1
 98
0
  0
HATCH
  5
4A
330
17
100
AcDbEntity
  8
RASTER
 62
7
100
AcDbHatch
 10
0.0
 20
0.0
 30
0.0
210
0.0
220
0.0
230
1.0
  2
SOLID
 70
1
 71
0
 91
4
 92
3
 72
0
 73
1
 93
45
 10
117.349
 20
26.592
 10
117.799
 20
26.6
 10
118.342
 20
26.506
 10
118.674
 20
26.381
 10
119.019
 20
26.168
 10
119.217
 20
25.989
 10
119.484
 20
25.579
 10
119.677
 20
25.076
 10
119.749
 20
24.67
 10
119.697
 20
24.225
 10
119.365
 20
23.502
 10
119.351
 20
23.277
 10
119.43
 20
22.939
 10
119.371
 20
22.72
 10
119.271
 20
22.621
 10
119.12
 20
22.553
 10
118.537
 20
22.46
 10
118.455
 20
22.323
 10
118.515
 20
21.945
 10
118.481
 20
21.819
 10
118.229
 20
21.674
 10
117.739
 20
21.586
 10
117.441
 20
21.586
 10
117.097
 20
21.64
 10
116.764
 20
21.765
 10
116.685
 20
21.845
 10
116.665
 20
21.925
 10
116.725
 20
22.243
 10
116.699
 20
22.416
 10
116.571
 20
22.488
 10
116.076
 20
22.549
 10
115.855
 20
22.667
 10
115.77
 20
22.88
 10
115.784
 20
23.085
 10
115.849
 20
23.297
 10
115.817
 20
23.524
 10
115.577
 20
24.0
 10
115.451
 20
24.431
 10
115.451
 20
24.77
 10
115.523
 20
25.116
 10
115.716
 20
25.599
 10
115.923
 20
25.93
 10
116.269
 20
26.24
 10
116.591
 20
26.415
 10
116.935
 20
26.528
 97
0
 92
3
 72
0
 73
1
 93
15
 10
116.75
 20
23.968
 10
116.466
 20
23.894
 10
116.341
 20
23.801
 10
116.215
 20
23.588
 10
116.189
 20
23.439
 10
116.233
 20
23.283
 10
116.321
 20
23.172
 10
116.478
 20
23.09
 10
116.824
 20
23.098
 10
116.995
 20
23.146
 10
117.148
 20
23.252
 10
117.274
 20
23.484
 10
117.27
 20
23.703
 10
117.176
 20
23.868
 10
117.011
 20
23.962
 97
0
 92
3
 72
0
 73
1
 93
14
 10
118.203
 20
23.968
 10
118.052
 20
23.9
 10
117.926
 20
23.727
 10
117.926
 20
23.465
 10
118.032
 20
23.272
 10
118.245
 20
23.126
 10
118.555
 20
23.079
 10
118.722
 20
23.09
 10
118.899
 20
23.192
 10
118.981
 20
23.349
 10
118.993
 20
23.496
 10
118.879
 20
23.761
 10
118.754
 20
23.874
 10
118.603
 20
23.942
 97
0
 92
3
 72
0
 73
1
 93
70
 10
115.141
 20
22.215
 10
115.318
 20
22.209
 10
115.471
 20
22.143
 10
115.823
 20
21.779
 10
116.156
 20
21.555
 10
117.58
 20
20.95
 10
117.912
 20
21.055
 10
119.11
 20
21.588
 10
119.377
 20
21.779
 10
119.683
 20
22.11
 10
119.794
 20
22.177
 10
119.968
 20
22.223
 10
120.147
 20
22.183
 10
120.252
 20
22.01
 10
120.258
 20
21.777
 10
120.391
 20
21.672
 10
120.459
 20
21.561
 10
120.457
 20
21.356
 10
120.371
 20
21.242
 10
120.149
 20
21.147
 10
119.808
 20
21.149
 10
119.399
 20
21.081
 10
118.45
 20
20.677
 10
118.416
 20
20.612
 10
118.463
 20
20.54
 10
119.339
 20
20.162
 10
119.769
 20
20.074
 10
120.214
 20
20.062
 10
120.371
 20
19.981
 10
120.457
 20
19.867
 10
120.457
 20
19.665
 10
120.391
 20
19.551
 10
120.258
 20
19.446
 10
120.226
 20
19.139
 10
120.075
 20
19.012
 10
119.968
 20
19.0
 10
119.794
 20
19.046
 10
119.663
 20
19.133
 10
119.357
 20
19.464
 10
119.15
 20
19.615
 10
117.733
 20
20.247
 10
117.56
 20
20.273
 10
116.05
 20
19.615
 10
115.843
 20
19.464
 10
115.537
 20
19.133
 10
115.406
 20
19.046
 10
115.232
 20
19.0
 10
115.055
 20
19.042
 10
114.948
 20
19.213
 10
114.942
 20
19.446
 10
114.809
 20
19.551
 10
114.743
 20
19.665
 10
114.743
 20
19.867
 10
114.829
 20
19.981
 10
114.986
 20
20.062
 10
115.431
 20
20.074
 10
115.861
 20
20.162
 10
116.737
 20
20.54
 10
116.784
 20
20.612
 10
116.75
 20
20.677
 10
115.801
 20
21.081
 10
115.392
 20
21.149
 10
115.051
 20
21.147
 10
114.829
 20
21.242
 10
114.743
 20
21.356
 10
114.741
 20
21.561
 10
114.809
 20
21.672
 10
114.942
 20
21.777
 10
114.934
 20
21.925
 10
114.994
 20
22.124
 97
0
 75
0
 76
1
 98
0
  0
LWPOLYLINE
  5
4B
330
17
100
AcDbEntity
  8
CUT
100
AcDbPolyline
 90
38
 70
1
 10
129.384
 20
31.09
 10
140.402
 20
31.09
 10
141.501
 20
31.052
 10
142.543
 20
30.937
 10
143.53
 20
30.748
 10
144.465
 20
30.484
 10
145.352
 20
30.148
 10
146.193
 20
29.739
 10
146.992
 20
29.26
 10
147.752
 20
28.712
 10
148.476
 20
28.096
 10
149.169
 20
27.414
 10
149.833
 20
26.666
 10
150.515
 20
25.8
 10
149.833
 20
24.934
 10
149.169
 20
24.186
 10
148.476
 20
23.504
 10
147.752
 20
22.888
 10
146.992
 20
22.34
 10
146.193
 20
21.861
 10
145.352
 20
21.452
 10
144.465
 20
21.116
 10
143.53
 20
20.852
 10
142.543
 20
20.663
 10
141.501
 20
20.548
 10
140.402
 20
20.51
 10
129.384
 20
20.51
 10
128.795
 20
20.729
 10
128.322
 20
21.324
 10
127.964
 20
22.198
 10
127.711
 20
23.281
 10
127.56
 20
24.505
 10
127.51
 20
25.8
 10
127.56
 20
27.095
 10
127.711
 20
28.319
 10
127.964
 20
29.402
 10
128.322
 20
30.276
 10
128.795
 20
30.871
  0
LWPOLYLINE
  5
4C
330
17
100
AcDbEntity
  8
CUT
100
AcDbPolyline
 90
4
 70
1
 10
132.465
 20
29.21
 10
135.335
 20
29.21
 10
135.335
 20
22.39
 10
132.465
 20
22.39
  0
LWPOLYLINE
  5
4D
330
17
100
AcDbEntity
  8
CUT
100
AcDbPolyline
 90
4
 70
1
 10
140.465
 20
29.21
 10
143.335
 20
29.21
 10
143.335
 20
22.39
 10
140.465
 20
22.39
  0
HATCH
  5
4E
330
17
100
AcDbEntity
  8
RASTER
 62
7
100
AcDbHatch
 10
0.0
 20
0.0
 30
0.0
210
0.0
220
0.0
230
1.0
  2
SOLID
 70
1
 71
0
 91
1
 92
3
 72
0
 73
1
 93
4
 10
129.6
 20
29.02
 10
146.1
 20
29.02
 10
146.1
 20
28.58
 10
129.6
 20
28.58
 97
0
 75
0
 76
1
 98
0
  0
HATCH
  5
4F
330
17
100
AcDbEntity
  8
RASTER
 62
7
100
AcDbHatch
 10
0.0
 20
0.0
 30
0.0
210
0.0
220
0.0
230
1.0
  2
SOLID
 70
1
 71
0
 91
1
 92
3
 72
0
 73
1
 93
4
 10
129.6
 20
26.02
 10
146.1
 20
26.02
 10
146.1
 20
25.58
 10
129.6
 20
25.58
 97
0
 75
0
 76
1
 98
0
  0
HATCH
  5
50
330
17
100
AcDbEntity
  8
RASTER
 62
7
100
AcDbHatch
 10
0.0
 20
0.0
 30
0.0
210
0.0
220
0.0
230
1.0
  2
SOLID
 70
1
 71
0
 91
1
 92
3
 72
0
 73
1
 93
4
 10
129.6
 20
23.02
 10
146.1
 20
23.02
 10
146.1
 20
22.58
 10
129.6
 20
22.58
 97
0
 75
0
 76
1
 98
0
  0
HATCH
  5
51
330
17
100
AcDbEntity
  8
RASTER
 62
7
100
AcDbHatch
 10
0.0
 20
0.0
 30
0.0
210
0.0
220
0.0
230
1.0
  2
SOLID
 70
1
 71
0
 91
1
 92
3
 72
0
 73
1
 93
4
 10
128.0
 20
26.1
 10
129.6
 20
26.1
 10
129.6
 20
25.5
 10
128.0
 20
25.5
 97
0
 75
0
 76
1
 98
0
  0
LWPOLYLINE
  5
52
330
17
100
AcDbEntity
  8
CUT
100
AcDbPolyline
 90
18
 70
1
 10
160.51
 20
31.09
 10
163.29
 20
31.09
 10
163.29
 20
29.09
 10
169.49
 20
29.09
 10
169.49
 20
15.948
 10
166.633
 20
14.315
 10
163.29
 20
13.529
 10
163.29
 20
10.09
 10
165.44
 20
10.09
 10
165.44
 20
3.91
 10
158.36
 20
3.91
 10
158.36
 20
10.09
 10
160.51
 20
10.09
 10
160.51
 20
13.524
 10
155.855
 20
14.316
 10
154.31
 20
15.964
 10
154.31
 20
29.09
 10
160.51
 20
29.09
  0
HATCH
  5
53
330
17
100
AcDbEntity
  8
RASTER
 62
7
100
AcDbHatch
 10
0.0
 20
0.0
 30
0.0
210
0.0
220
0.0
230
1.0
  2
SOLID
 70
1
 71
0
 91
1
 92
3
 72
0
 73
1
 93
4
 10
154.4
 20
28.4
 10
169.4
 20
28.4
 10
169.4
 20
27.9
 10
154.4
 20
27.9
 97
0
 75
0
 76
1
 98
0
  0
HATCH
  5
54
330
17
100
AcDbEntity
  8
RASTER
 62
7
100
AcDbHatch
 10
0.0
 20
0.0
 30
0.0
210
0.0
220
0.0
230
1.0
  2
SOLID
 70
1
 71
0
 91
4
 92
3
 72
0
 73
1
 93
45
 10
161.583
 20
26.59
 10
162.151
 20
26.6
 10
162.837
 20
26.482
 10
163.257
 20
26.324
 10
163.692
 20
26.055
 10
163.943
 20
25.828
 10
164.28
 20
25.311
 10
164.524
 20
24.675
 10
164.614
 20
24.162
 10
164.549
 20
23.599
 10
164.129
 20
22.687
 10
164.112
 20
22.403
 10
164.212
 20
21.976
 10
164.137
 20
21.699
 10
164.011
 20
21.574
 10
163.82
 20
21.488
 10
163.084
 20
21.37
 10
162.981
 20
21.197
 10
163.056
 20
20.719
 10
163.013
 20
20.561
 10
162.694
 20
20.378
 10
162.076
 20
20.267
 10
161.699
 20
20.267
 10
161.264
 20
20.335
 10
160.845
 20
20.493
 10
160.744
 20
20.594
 10
160.719
 20
20.694
 10
160.794
 20
21.096
 10
160.762
 20
21.315
 10
160.601
 20
21.405
 10
159.975
 20
21.483
 10
159.696
 20
21.632
 10
159.588
 20
21.901
 10
159.606
 20
22.159
 10
159.688
 20
22.428
 10
159.648
 20
22.715
 10
159.344
 20
23.315
 10
159.186
 20
23.861
 10
159.186
 20
24.288
 10
159.276
 20
24.725
 10
159.52
 20
25.336
 10
159.781
 20
25.753
 10
160.219
 20
26.145
 10
160.626
 20
26.366
 10
161.061
 20
26.51
 97
0
 92
3
 72
0
 73
1
 93
15
 10
160.827
 20
23.275
 10
160.468
 20
23.182
 10
160.309
 20
23.064
 10
160.151
 20
22.795
 10
160.118
 20
22.607
 10
160.174
 20
22.411
 10
160.284
 20
22.27
 10
160.483
 20
22.167
 10
160.92
 20
22.177
 10
161.136
 20
22.237
 10
161.33
 20
22.37
 10
161.488
 20
22.665
 10
161.483
 20
22.941
 10
161.365
 20
23.15
 10
161.156
 20
23.268
 97
0
 92
3
 72
0
 73
1
 93
14
 10
162.661
 20
23.275
 10
162.47
 20
23.19
 10
162.312
 20
22.971
 10
162.312
 20
22.639
 10
162.445
 20
22.396
 10
162.714
 20
22.212
 10
163.106
 20
22.152
 10
163.317
 20
22.167
 10
163.541
 20
22.295
 10
163.644
 20
22.494
 10
163.659
 20
22.68
 10
163.516
 20
23.014
 10
163.358
 20
23.157
 10
163.167
 20
23.243
 97
0
 92
3
 72
0
 73
1
 93
70
 10
158.794
 20
21.061
 10
159.017
 20
21.054
 10
159.211
 20
20.971
 10
159.656
 20
20.511
 10
160.075
 20
20.227
 10
161.875
 20
19.463
 10
162.295
 20
19.596
 10
163.807
 20
20.27
 10
164.144
 20
20.511
 10
164.531
 20
20.928
 10
164.672
 20
21.013
 10
164.891
 20
21.071
 10
165.117
 20
21.021
 10
165.25
 20
20.802
 10
165.257
 20
20.508
 10
165.426
 20
20.375
 10
165.511
 20
20.234
 10
165.509
 20
19.975
 10
165.401
 20
19.832
 10
165.119
 20
19.712
 10
164.69
 20
19.714
 10
164.172
 20
19.629
 10
162.973
 20
19.119
 10
162.93
 20
19.036
 10
162.991
 20
18.945
 10
164.096
 20
18.468
 10
164.639
 20
18.357
 10
165.202
 20
18.342
 10
165.401
 20
18.239
 10
165.509
 20
18.096
 10
165.509
 20
17.839
 10
165.426
 20
17.696
 10
165.257
 20
17.563
 10
165.217
 20
17.176
 10
165.026
 20
17.015
 10
164.891
 20
17.0
 10
164.672
 20
17.058
 10
164.506
 20
17.168
 10
164.119
 20
17.586
 10
163.858
 20
17.777
 10
162.068
 20
18.576
 10
161.85
 20
18.608
 10
159.942
 20
17.777
 10
159.681
 20
17.586
 10
159.294
 20
17.168
 10
159.128
 20
17.058
 10
158.909
 20
17.0
 10
158.686
 20
17.053
 10
158.55
 20
17.269
 10
158.543
 20
17.563
 10
158.374
 20
17.696
 10
158.291
 20
17.839
 10
158.291
 20
18.096
 10
158.399
 20
18.239
 10
158.598
 20
18.342
 10
159.161
 20
18.357
 10
159.704
 20
18.468
 10
160.809
 20
18.945
 10
160.87
 20
19.036
 10
160.827
 20
19.119
 10
159.628
 20
19.629
 10
159.11
 20
19.714
 10
158.681
 20
19.712
 10
158.399
 20
19.832
 10
158.291
 20
19.975
 10
158.289
 20
20.234
 10
158.374
 20
20.375
 10
158.543
 20
20.508
 10
158.532
 20
20.694
 10
158.608
 20
20.946
 97
0
 75
0
 76
1
 98
0
  0
LWPOLYLINE
  5
55
330
17
100
AcDbEntity
  8
CUT
100
AcDbPolyline
 90
18
 70
1
 10
178.01
 20
31.09
 10
180.79
 20
31.09
 10
180.79
 20
29.09
 10
185.49
 20
29.09
 10
185.49
 20
17.948
 10
182.64
 20
16.319
 10
180.79
 20
15.54
 10
180.79
 20
12.09
 10
182.94
 20
12.09
 10
182.94
 20
5.91
 10
175.86
 20
5.91
 10
175.86
 20
12.09
 10
178.01
 20
12.09
 10
178.01
 20
15.53
 10
174.852
 20
16.319
 10
173.31
 20
17.964
 10
173.31
 20
29.09
 10
178.01
 20
29.09
  0
HATCH
  5
56
330
17
100
AcDbEntity
  8
RASTER
 62
7
100
AcDbHatch
 10
0.0
 20
0.0
 30
0.0
210
0.0
220
0.0
230
1.0
  2
SOLID
 70
1
 71
0
 91
1
 92
3
 72
0
 73
1
 93
4
 10
173.4
 20
28.4
 10
185.4
 20
28.4
 10
185.4
 20
27.9
 10
173.4
 20
27.9
 97
0
 75
0
 76
1
 98
0
  0
HATCH
  5
57
330
17
100
AcDbEntity
  8
RASTER
 62
7
100
AcDbHatch
 10
0.0
 20
0.0
 30
0.0
210
0.0
220
0.0
230
1.0
  2
SOLID
 70
1
 71
0
 91
4
 92
3
 72
0
 73
1
 93
45
 10
179.149
 20
26.592
 10
179.599
 20
26.6
 10
180.142
 20
26.506
 10
180.474
 20
26.381
 10
180.819
 20
26.168
 10
181.017
 20
25.989
 10
181.284
 20
25.579
 10
181.477
 20
25.076
 10
181.549
 20
24.67
 10
181.497
 20
24.225
 10
181.165
 20
23.502
 10
181.151
 20
23.277
 10
181.23
 20
22.939
 10
181.171
 20
22.72
 10
181.071
 20
22.621
 10
180.92
 20
22.553
 10
180.337
 20
22.46
 10
180.255
 20
22.323
 10
180.315
 20
21.945
 10
180.281
 20
21.819
 10
180.029
 20
21.674
 10
179.539
 20
21.586
 10
179.241
 20
21.586
 10
178.897
 20
21.64
 10
178.564
 20
21.765
 10
178.485
 20
21.845
 10
178.465
 20
21.925
 10
178.525
 20
22.243
 10
178.499
 20
22.416
 10
178.371
 20
22.488
 10
177.876
 20
22.549
 10
177.655
 20
22.667
 10
177.57
 20
22.88
 10
177.584
 20
23.085
 10
177.649
 20
23.297
 10
177.617
 20
23.524
 10
177.377
 20
24.0
 10
177.251
 20
24.431
 10
177.251
 20
24.77
 10
177.323
 20
25.116
 10
177.516
 20
25.599
 10
177.723
 20
25.93
 10
178.069
 20
26.24
 10
178.391
 20
26.415
 10
178.735
 20
26.528
 97
0
 92
3
 72
0
 73
1
 93
15
 10
178.55
 20
23.968
 10
178.266
 20
23.894
 10
178.141
 20
23.801
 10
178.015
 20
23.588
 10
177.989
 20
23.439
 10
178.033
 20
23.283
 10
178.121
 20
23.172
 10
178.278
 20
23.09
 10
178.624
 20
23.098
 10
178.795
 20
23.146
 10
178.948
 20
23.252
 10
179.074
 20
23.484
 10
179.07
 20
23.703
 10
178.976
 20
23.868
 10
178.811
 20
23.962
 97
0
 92
3
 72
0
 73
1
 93
14
 10
180.003
 20
23.968
 10
179.852
 20
23.9
 10
179.726
 20
23.727
 10
179.726
 20
23.465
 10
179.832
 20
23.272
 10
180.045
 20
23.126
 10
180.355
 20
23.079
 10
180.522
 20
23.09
 10
180.699
 20
23.192
 10
180.781
 20
23.349
 10
180.793
 20
23.496
 10
180.679
 20
23.761
 10
180.554
 20
23.874
 10
180.403
 20
23.942
 97
0
 92
3
 72
0
 73
1
 93
70
 10
176.941
 20
22.215
 10
177.118
 20
22.209
 10
177.271
 20
22.143
 10
177.623
 20
21.779
 10
177.956
 20
21.555
 10
179.38
 20
20.95
 10
179.712
 20
21.055
 10
180.91
 20
21.588
 10
181.177
 20
21.779
 10
181.483
 20
22.11
 10
181.594
 20
22.177
 10
181.768
 20
22.223
 10
181.947
 20
22.183
 10
182.052
 20
22.01
 10
182.058
 20
21.777
 10
182.191
 20
21.672
 10
182.259
 20
21.561
 10
182.257
 20
21.356
 10
182.171
 20
21.242
 10
181.949
 20
21.147
 10
181.608
 20
21.149
 10
181.199
 20
21.081
 10
180.25
 20
20.677
 10
180.216
 20
20.612
 10
180.263
 20
20.54
 10
181.139
 20
20.162
 10
181.569
 20
20.074
 10
182.014
 20
20.062
 10
182.171
 20
19.981
 10
182.257
 20
19.867
 10
182.257
 20
19.665
 10
182.191
 20
19.551
 10
182.058
 20
19.446
 10
182.026
 20
19.139
 10
181.875
 20
19.012
 10
181.768
 20
19.0
 10
181.594
 20
19.046
 10
181.463
 20
19.133
 10
181.157
 20
19.464
 10
180.95
 20
19.615
 10
179.533
 20
20.247
 10
179.36
 20
20.273
 10
177.85
 20
19.615
 10
177.643
 20
19.464
 10
177.337
 20
19.133
 10
177.206
 20
19.046
 10
177.032
 20
19.0
 10
176.855
 20
19.042
 10
176.748
 20
19.213
 10
176.742
 20
19.446
 10
176.609
 20
19.551
 10
176.543
 20
19.665
 10
176.543
 20
19.867
 10
176.629
 20
19.981
 10
176.786
 20
20.062
 10
177.231
 20
20.074
 10
177.661
 20
20.162
 10
178.537
 20
20.54
 10
178.584
 20
20.612
 10
178.55
 20
20.677
 10
177.601
 20
21.081
 10
177.192
 20
21.149
 10
176.851
 20
21.147
 10
176.629
 20
21.242
 10
176.543
 20
21.356
 10
176.541
 20
21.561
 10
176.609
 20
21.672
 10
176.742
 20
21.777
 10
176.734
 20
21.925
 10
176.794
 20
22.124
 97
0
 75
0
 76
1
 98
0
  0
LWPOLYLINE
  5
58
330
17
100
AcDbEntity
  8
CUT
100
AcDbPolyline
 90
38
 70
1
 10
191.184
 20
31.09
 10
202.202
 20
31.09
 10
203.301
 20
31.052
 10
204.343
 20
30.937
 10
205.33
 20
30.748
 10
206.265
 20
30.484
 10
207.152
 20
30.148
 10
207.993
 20
29.739
 10
208.792
 20
29.26
 10
209.552
 20
28.712
 10
210.276
 20
28.096
 10
210.969
 20
27.414
 10
211.633
 20
26.666
 10
212.315
 20
25.8
 10
211.633
 20
24.934
 10
210.969
 20
24.186
 10
210.276
 20
23.504
 10
209.552
 20
22.888
 10
208.792
 20
22.34
 10
207.993
 20
21.861
 10
207.152
 20
21.452
 10
206.265
 20
21.116
 10
205.33
 20
20.852
 10
204.343
 20
20.663
 10
203.301
 20
20.548
 10
202.202
 20
20.51
 10
191.184
 20
20.51
 10
190.595
 20
20.729
 10
190.122
 20
21.324
 10
189.764
 20
22.198
 10
189.511
 20
23.281
 10
189.36
 20
24.505
 10
189.31
 20
25.8
 10
189.36
 20
27.095
 10
189.511
 20
28.319
 10
189.764
 20
29.402
 10
190.122
 20
30.276
 10
190.595
 20
30.871
  0
LWPOLYLINE
  5
59
330
17
100
AcDbEntity
  8
CUT
100
AcDbPolyline
 90
4
 70
1
 10
194.265
 20
29.21
 10
197.135
 20
29.21
 10
197.135
 20
22.39
 10
194.265
 20
22.39
  0
LWPOLYLINE
  5
5A
330
17
100
AcDbEntity
  8
CUT
100
AcDbPolyline
 90
4
 70
1
 10
202.265
 20
29.21
 10
205.135
 20
29.21
 10
205.135
 20
22.39
 10
202.265
 20
22.39
  0
HATCH
  5
5B
330
17
100
AcDbEntity
  8
RASTER
 62
7
100
AcDbHatch
 10
0.0
 20
0.0
 30
0.0
210
0.0
220
0.0
230
1.0
  2
SOLID
 70
1
 71
0
 91
1
 92
3
 72
0
 73
1
 93
4
 10
191.4
 20
29.02
 10
207.9
 20
29.02
 10
207.9
 20
28.58
 10
191.4
 20
28.58
 97
0
 75
0
 76
1
 98
0
  0
HATCH
  5
5C
330
17
100
AcDbEntity
  8
RASTER
 62
7
100
AcDbHatch
 10
0.0
 20
0.0
 30
0.0
210
0.0
220
0.0
230
1.0
  2
SOLID
 70
1
 71
0
 91
1
 92
3
 72
0
 73
1
 93
4
 10
191.4
 20
26.02
 10
207.9
 20
26.02
 10
207.9
 20
25.58
 10
191.4
 20
25.58
 97
0
 75
0
 76
1
 98
0
  0
HATCH
  5
5D
330
17
100
AcDbEntity
  8
RASTER
 62
7
100
AcDbHatch
 10
0.0
 20
0.0
 30
0.0
210
0.0
220
0.0
230
1.0
  2
SOLID
 70
1
 71
0
 91
1
 92
3
 72
0
 73
1
 93
4
 10
191.4
 20
23.02
 10
207.9
 20
23.02
 10
207.9
 20
22.58
 10
191.4
 20
22.58
 97
0
 75
0
 76
1
 98
0
  0
HATCH
  5
5E
330
17
100
AcDbEntity
  8
RASTER
 62
7
100
AcDbHatch
 10
0.0
 20
0.0
 30
0.0
210
0.0
220
0.0
230
1.0
  2
SOLID
 70
1
 71
0
 91
1
 92
3
 72
0
 73
1
 93
4
 10
189.8
 20
26.1
 10
191.4
 20
26.1
 10
191.4
 20
25.5
 10
189.8
 20
25.5
 97
0
 75
0
 76
1
 98
0
  0
LWPOLYLINE
  5
5F
330
17
100
AcDbEntity
  8
CUT
100
AcDbPolyline
 90
18
 70
1
 10
222.31
 20
31.09
 10
225.09
 20
31.09
 10
225.09
 20
29.09
 10
231.29
 20
29.09
 10
231.29
 20
15.948
 10
228.433
 20
14.315
 10
225.09
 20
13.529
 10
225.09
 20
10.09
 10
227.24
 20
10.09
 10
227.24
 20
3.91
 10
220.16
 20
3.91
 10
220.16
 20
10.09
 10
222.31
 20
10.09
 10
222.31
 20
13.524
 10
217.655
 20
14.316
 10
216.11
 20
15.964
 10
216.11
 20
29.09
 10
222.31
 20
29.09
  0
HATCH
  5
60
330
17
100
AcDbEntity
  8
RASTER
 62
7
100
AcDbHatch
 10
0.0
 20
0.0
 30
0.0
210
0.0
220
0.0
230
1.0
  2
SOLID
 70
1
 71
0
 91
1
 92
3
 72
0
 73
1
 93
4
 10
216.2
 20
28.4
 10
231.2
 20
28.4
 10
231.2
 20
27.9
 10
216.2
 20
27.9
 97
0
 75
0
 76
1
 98
0
  0
HATCH
  5
61
330
17
100
AcDbEntity
  8
RASTER
 62
7
100
AcDbHatch
 10
0.0
 20
0.0
 30
0.0
210
0.0
220
0.0
230
1.0
  2
SOLID
 70
1
 71
0
 91
4
 92
3
 72
0
 73
1
 93
45
 10
223.383
 20
26.59
 10
223.951
 20
26.6
 10
224.637
 20
26.482
 10
225.057
 20
26.324
 10
225.492
 20
26.055
 10
225.743
 20
25.828
 10
226.08
 20
25.311
 10
226.324
 20
24.675
 10
226.414
 20
24.162
 10
226.349
 20
23.599
 10
225.929
 20
22.687
 10
225.912
 20
22.403
 10
226.012
 20
21.976
 10
225.937
 20
21.699
 10
225.811
 20
21.574
 10
225.62
 20
21.488
 10
224.884
 20
21.37
 10
224.781
 20
21.197
 10
224.856
 20
20.719
 10
224.813
 20
20.561
 10
224.494
 20
20.378
 10
223.876
 20
20.267
 10
223.499
 20
20.267
 10
223.064
 20
20.335
 10
222.645
 20
20.493
 10
222.544
 20
20.594
 10
222.519
 20
20.694
 10
222.594
 20
21.096
 10
222.562
 20
21.315
 10
222.401
 20
21.405
 10
221.775
 20
21.483
 10
221.496
 20
21.632
 10
221.388
 20
21.901
 10
221.406
 20
22.159
 10
221.488
 20
22.428
 10
221.448
 20
22.715
 10
221.144
 20
23.315
 10
220.986
 20
23.861
 10
220.986
 20
24.288
 10
221.076
 20
24.725
 10
221.32
 20
25.336
 10
221.581
 20
25.753
 10
222.019
 20
26.145
 10
222.426
 20
26.366
 10
222.861
 20
26.51
 97
0
 92
3
 72
0
 73
1
 93
15
 10
222.627
 20
23.275
 10
222.268
 20
23.182
 10
222.109
 20
23.064
 10
221.951
 20
22.795
 10
221.918
 20
22.607
 10
221.974
 20
22.411
 10
222.084
 20
22.27
 10
222.283
 20
22.167
 10
222.72
 20
22.177
 10
222.936
 20
22.237
 10
223.13
 20
22.37
 10
223.288
 20
22.665
 10
223.283
 20
22.941
 10
223.165
 20
23.15
 10
222.956
 20
23.268
 97
0
 92
3
 72
0
 73
1
 93
14
 10
224.461
 20
23.275
 10
224.27
 20
23.19
 10
224.112
 20
22.971
 10
224.112
 20
22.639
 10
224.245
 20
22.396
 10
224.514
 20
22.212
 10
224.906
 20
22.152
 10
225.117
 20
22.167
 10
225.341
 20
22.295
 10
225.444
 20
22.494
 10
225.459
 20
22.68
 10
225.316
 20
23.014
 10
225.158
 20
23.157
 10
224.967
 20
23.243
 97
0
 92
3
 72
0
 73
1
 93
70
 10
220.594
 20
21.061
 10
220.817
 20
21.054
 10
221.011
 20
20.971
 10
221.456
 20
20.511
 10
221.875
 20
20.227
 10
223.675
 20
19.463
 10
224.095
 20
19.596
 10
225.607
 20
20.27
 10
225.944
 20
20.511
 10
226.331
 20
20.928
 10
226.472
 20
21.013
 10
226.691
 20
21.071
 10
226.917
 20
21.021
 10
227.05
 20
20.802
 10
227.057
 20
20.508
 10
227.226
 20
20.375
 10
227.311
 20
20.234
 10
227.309
 20
19.975
 10
227.201
 20
19.832
 10
226.919
 20
19.712
 10
226.49
 20
19.714
 10
225.972
 20
19.629
 10
224.773
 20
19.119
 10
224.73
 20
19.036
 10
224.791
 20
18.945
 10
225.896
 20
18.468
 10
226.439
 20
18.357
 10
227.002
 20
18.342
 10
227.201
 20
18.239
 10
227.309
 20
18.096
 10
227.309
 20
17.839
 10
227.226
 20
17.696
 10
227.057
 20
17.563
 10
227.017
 20
17.176
 10
226.826
 20
17.015
 10
226.691
 20
17.0
 10
226.472
 20
17.058
 10
226.306
 20
17.168
 10
225.919
 20
17.586
 10
225.658
 20
17.777
 10
223.868
 20
18.576
 10
223.65
 20
18.608
 10
221.742
 20
17.777
 10
221.481
 20
17.586
 10
221.094
 20
17.168
 10
220.928
 20
17.058
 10
220.709
 20
17.0
 10
220.486
 20
17.053
 10
220.35
 20
17.269
 10
220.343
 20
17.563
 10
220.174
 20
17.696
 10
220.091
 20
17.839
 10
220.091
 20
18.096
 10
220.199
 20
18.239
 10
220.398
 20
18.342
 10
220.961
 20
18.357
 10
221.504
 20
18.468
 10
222.609
 20
18.945
 10
222.67
 20
19.036
 10
222.627
 20
19.119
 10
221.428
 20
19.629
 10
220.91
 20
19.714
 10
220.481
 20
19.712
 10
220.199
 20
19.832
 10
220.091
 20
19.975
 10
220.089
 20
20.234
 10
220.174
 20
20.375
 10
220.343
 20
20.508
 10
220.332
 20
20.694
 10
220.408
 20
20.946
 97
0
 75
0
 76
1
 98
0
  0
LWPOLYLINE
  5
62
330
17
100
AcDbEntity
  8
CUT
100
AcDbPolyline
 90
18
 70
1
 10
239.81
 20
31.09
 10
242.59
 20
31.09
 10
242.59
 20
29.09
 10
247.29
 20
29.09
 10
247.29
 20
17.948
 10
244.44
 20
16.319
 10
242.59
 20
15.54
 10
242.59
 20
12.09
 10
244.74
 20
12.09
 10
244.74
 20
5.91
 10
237.66
 20
5.91
 10
237.66
 20
12.09
 10
239.81
 20
12.09
 10
239.81
 20
15.53
 10
236.652
 20
16.319
 10
235.11
 20
17.964
 10
235.11
 20
29.09
 10
239.81
 20
29.09
  0
HATCH
  5
63
330
17
100
AcDbEntity
  8
RASTER
 62
7
100
AcDbHatch
 10
0.0
 20
0.0
 30
0.0
210
0.0
220
0.0
230
1.0
  2
SOLID
 70
1
 71
0
 91
1
 92
3
 72
0
 73
1
 93
4
 10
235.2
 20
28.4
 10
247.2
 20
28.4
 10
247.2
 20
27.9
 10
235.2
 20
27.9
 97
0
 75
0
 76
1
 98
0
  0
HATCH
  5
64
330
17
100
AcDbEntity
  8
RASTER
 62
7
100
AcDbHatch
 10
0.0
 20
0.0
 30
0.0
210
0.0
220
0.0
230
1.0
  2
SOLID
 70
1
 71
0
 91
4
 92
3
 72
0
 73
1
 93
45
 10
240.949
 20
26.592
 10
241.399
 20
26.6
 10
241.942
 20
26.506
 10
242.274
 20
26.381
 10
242.619
 20
26.168
 10
242.817
 20
25.989
 10
243.084
 20
25.579
 10
243.277
 20
25.076
 10
243.349
 20
24.67
 10
243.297
 20
24.225
 10
242.965
 20
23.502
 10
242.951
 20
23.277
 10
243.03
 20
22.939
 10
242.971
 20
22.72
 10
242.871
 20
22.621
 10
242.72
 20
22.553
 10
242.137
 20
22.46
 10
242.055
 20
22.323
 10
242.115
 20
21.945
 10
242.081
 20
21.819
 10
241.829
 20
21.674
 10
241.339
 20
21.586
 10
241.041
 20
21.586
 10
240.697
 20
21.64
 10
240.364
 20
21.765
 10
240.285
 20
21.845
 10
240.265
 20
21.925
 10
240.325
 20
22.243
 10
240.299
 20
22.416
 10
240.171
 20
22.488
 10
239.676
 20
22.549
 10
239.455
 20
22.667
 10
239.37
 20
22.88
 10
239.384
 20
23.085
 10
239.449
 20
23.297
 10
239.417
 20
23.524
 10
239.177
 20
24.0
 10
239.051
 20
24.431
 10
239.051
 20
24.77
 10
239.123
 20
25.116
 10
239.316
 20
25.599
 10
239.523
 20
25.93
 10
239.869
 20
26.24
 10
240.191
 20
26.415
 10
240.535
 20
26.528
 97
0
 92
3
 72
0
 73
1
 93
15
 10
240.35
 20
23.968
 10
240.066
 20
23.894
 10
239.941
 20
23.801
 10
239.815
 20
23.588
 10
239.789
 20
23.439
 10
239.833
 20
23.283
 10
239.921
 20
23.172
 10
240.078
 20
23.09
 10
240.424
 20
23.098
 10
240.595
 20
23.146
 10
240.748
 20
23.252
 10
240.874
 20
23.484
 10
240.87
 20
23.703
 10
240.776
 20
23.868
 10
240.611
 20
23.962
 97
0
 92
3
 72
0
 73
1
 93
14
 10
241.803
 20
23.968
 10
241.652
 20
23.9
 10
241.526
 20
23.727
 10
241.526
 20
23.465
 10
241.632
 20
23.272
 10
241.845
 20
23.126
 10
242.155
 20
23.079
 10
242.322
 20
23.09
 10
242.499
 20
23.192
 10
242.581
 20
23.349
 10
242.593
 20
23.496
 10
242.479
 20
23.761
 10
242.354
 20
23.874
 10
242.203
 20
23.942
 97
0
 92
3
 72
0
 73
1
 93
70
 10
238.741
 20
22.215
 10
238.918
 20
22.209
 10
239.071
 20
22.143
 10
239.423
 20
21.779
 10
239.756
 20
21.555
 10
241.18
 20
20.95
 10
241.512
 20
21.055
 10
242.71
 20
21.588
 10
242.977
 20
21.779
 10
243.283
 20
22.11
 10
243.394
 20
22.177
 10
243.568
 20
22.223
 10
243.747
 20
22.183
 10
243.852
 20
22.01
 10
243.858
 20
21.777
 10
243.991
 20
21.672
 10
244.059
 20
21.561
 10
244.057
 20
21.356
 10
243.971
 20
21.242
 10
243.749
 20
21.147
 10
243.408
 20
21.149
 10
242.999
 20
21.081
 10
242.05
 20
20.677
 10
242.016
 20
20.612
 10
242.063
 20
20.54
 10
242.939
 20
20.162
 10
243.369
 20
20.074
 10
243.814
 20
20.062
 10
243.971
 20
19.981
 10
244.057
 20
19.867
 10
244.057
 20
19.665
 10
243.991
 20
19.551
 10
243.858
 20
19.446
 10
243.826
 20
19.139
 10
243.675
 20
19.012
 10
243.568
 20
19.0
 10
243.394
 20
19.046
 10
243.263
 20
19.133
 10
242.957
 20
19.464
 10
242.75
 20
19.615
 10
241.333
 20
20.247
 10
241.16
 20
20.273
 10
239.65
 20
19.615
 10
239.443
 20
19.464
 10
239.137
 20
19.133
 10
239.006
 20
19.046
 10
238.832
 20
19.0
 10
238.655
 20
19.042
 10
238.548
 20
19.213
 10
238.542
 20
19.446
 10
238.409
 20
19.551
 10
238.343
 20
19.665
 10
238.343
 20
19.867
 10
238.429
 20
19.981
 10
238.586
 20
20.062
 10
239.031
 20
20.074
 10
239.461
 20
20.162
 10
240.337
 20
20.54
 10
240.384
 20
20.612
 10
240.35
 20
20.677
 10
239.401
 20
21.081
 10
238.992
 20
21.149
 10
238.651
 20
21.147
 10
238.429
 20
21.242
 10
238.343
 20
21.356
 10
238.341
 20
21.561
 10
238.409
 20
21.672
 10
238.542
 20
21.777
 10
238.534
 20
21.925
 10
238.594
 20
22.124
 97
0
 75
0
 76
1
 98
0
  0
ENDSEC
  0
SECTION
  2
OBJECTS
  0
DICTIONARY
  5
A
330
0
100
AcDbDictionary
281
1
  3
ACAD_COLOR
350
B
  3
ACAD_GROUP
350
C
  3
ACAD_LAYOUT
350
D
  3
ACAD_MATERIAL
350
E
  3
ACAD_MLEADERSTYLE
350
F
  3
ACAD_MLINESTYLE
350
10
  3
ACAD_PLOTSETTINGS
350
11
  3
ACAD_PLOTSTYLENAME
350
12
  3
ACAD_SCALELIST
350
14
  3
ACAD_TABLESTYLE
350
15
  3
ACAD_VISUALSTYLE
350
16
  3
EZDXF_META
350
2D
  0
DICTIONARY
  5
B
330
A
100
AcDbDictionary
281
1
  0
DICTIONARY
  5
C
330
A
100
AcDbDictionary
281
1
  0
DICTIONARY
  5
D
330
A
100
AcDbDictionary
281
1
  3
Model
350
1A
  3
Layout1
350
1E
  0
DICTIONARY
  5
E
330
A
100
AcDbDictionary
281
1
  3
ByBlock
350
1F
  3
ByLayer
350
20
  3
Global
350
21
  0
DICTIONARY
  5
F
330
A
100
AcDbDictionary
281
1
  3
Standard
350
2C
  0
DICTIONARY
  5
10
330
A
100
AcDbDictionary
281
1
  3
Standard
350
22
  0
DICTIONARY
  5
11
330
A
100
AcDbDictionary
281
1
  0
ACDBDICTIONARYWDFLT
  5
12
330
A
100
AcDbDictionary
281
1
  3
Normal
350
13
100
AcDbDictionaryWithDefault
340
13
  0
ACDBPLACEHOLDER
  5
13
330
12
  0
DICTIONARY
  5
14
330
A
100
AcDbDictionary
281
1
  0
DICTIONARY
  5
15
330
A
100
AcDbDictionary
281
1
  0
DICTIONARY
  5
16
330
A
100
AcDbDictionary
281
1
  0
LAYOUT
  5
1A
330
D
100
AcDbPlotSettings
  1

  4
A3
  6

 40
7.5
 41
20.0
 42
7.5
 43
20.0
 44
420.0
 45
297.0
 46
0.0
 47
0.0
 48
0.0
 49
0.0
140
0.0
141
0.0
142
1.0
143
1.0
 70
1024
 72
1
 73
0
 74
5
  7

 75
16
 76
0
 77
2
 78
300
147
1.0
148
0.0
149
0.0
100
AcDbLayout
  1
Model
 70
1
 71
0
 10
0.0
 20
0.0
 11
420.0
 21
297.0
 12
0.0
 22
0.0
 32
0.0
 14
1e+20
 24
1e+20
 34
1e+20
 15
-1e+20
 25
-1e+20
 35
-1e+20
146
0.0
 13
0.0
 23
0.0
 33
0.0
 16
1.0
 26
0.0
 36
0.0
 17
0.0
 27
1.0
 37
0.0
 76
1
330
17
  0
LAYOUT
  5
1E
330
D
100
AcDbPlotSettings
  1

  4
A3
  6

 40
7.5
 41
20.0
 42
7.5
 43
20.0
 44
420.0
 45
297.0
 46
0.0
 47
0.0
 48
0.0
 49
0.0
140
0.0
141
0.0
142
1.0
143
1.0
 70
0
 72
1
 73
0
 74
5
  7

 75
16
 76
0
 77
2
 78
300
147
1.0
148
0.0
149
0.0
100
AcDbLayout
  1
Layout1
 70
1
 71
1
 10
0.0
 20
0.0
 11
420.0
 21
297.0
 12
0.0
 22
0.0
 32
0.0
 14
1e+20
 24
1e+20
 34
1e+20
 15
-1e+20
 25
-1e+20
 35
-1e+20
146
0.0
 13
0.0
 23
0.0
 33
0.0
 16
1.0
 26
0.0
 36
0.0
 17
0.0
 27
1.0
 37
0.0
 76
1
330
1B
  0
MATERIAL
  5
1F
102
{ACAD_REACTORS
330
E
102
}
330
E
100
AcDbMaterial
  1
ByBlock
  2

 70
0
 40
1.0
 71
1
 41
1.0
 91
-1023410177
 42
1.0
 72
1
  3

 73
1
 74
1
 75
1
 44
0.5
 73
0
 45
1.0
 46
1.0
 77
1
  4

 78
1
 79
1
170
1
 48
1.0
171
1
  6

172
1
173
1
174
1
140
1.0
141
1.0
175
1
  7

176
1
177
1
178
1
143
1.0
179
1
  8

270
1
271
1
272
1
145
1.0
146
1.0
273
1
  9

274
1
275
1
276
1
 42
1.0
 72
1
  3

 73
1
 74
1
 75
1
 94
63
  0
MATERIAL
  5
20
102
{ACAD_REACTORS
330
E
102
}
330
E
100
AcDbMaterial
  1
ByLayer
  2

 70
0
 40
1.0
 71
1
 41
1.0
 91
-1023410177
 42
1.0
 72
1
  3

 73
1
 74
1
 75
1
 44
0.5
 73
0
 45
1.0
 46
1.0
 77
1
  4

 78
1
 79
1
170
1
 48
1.0
171
1
  6

172
1
173
1
174
1
140
1.0
141
1.0
175
1
  7

176
1
177
1
178
1
143
1.0
179
1
  8

270
1
271
1
272
1
145
1.0
146
1.0
273
1
  9

274
1
275
1
276
1
 42
1.0
 72
1
  3

 73
1
 74
1
 75
1
 94
63
  0
MATERIAL
  5
21
102
{ACAD_REACTORS
330
E
102
}
330
E
100
AcDbMaterial
  1
Global
  2

 70
0
 40
1.0
 71
1
 41
1.0
 91
-1023410177
 42
1.0
 72
1
  3

 73
1
 74
1
 75
1
 44
0.5
 73
0
 45
1.0
 46
1.0
 77
1
  4

 78
1
 79
1
170
1
 48
1.0
171
1
  6

172
1
173
1
174
1
140
1.0
141
1.0
175
1
  7

176
1
177
1
178
1
143
1.0
179
1
  8

270
1
271
1
272
1
145
1.0
146
1.0
273
1
  9

274
1
275
1
276
1
 42
1.0
 72
1
  3

 73
1
 74
1
 75
1
 94
63
  0
MLINESTYLE
  5
22
102
{ACAD_REACTORS
330
10
102
}
330
10
100
AcDbMlineStyle
  2
Standard
 70
0
  3

 62
256
 51
90.0
 52
90.0
 71
2
 49
0.5
 62
256
  6
BYLAYER
 49
-0.5
 62
256
  6
BYLAYER
  0
MLEADERSTYLE
  5
2C
102
{ACAD_REACTORS
330
F
102
}
330
F
100
AcDbMLeaderStyle
179
2
170
2
171
1
172
0
 90
2
 40
0.0
 41
0.0
173
1
 91
-1056964608
 92
-2
290
1
 42
2.0
291
1
 43
8.0
  3
Standard
 44
4.0
300

342
29
174
1
175
1
176
0
178
1
 93
-1056964608
 45
4.0
292
0
297
0
 46
4.0
 94
-1056964608
 47
1.0
 49
1.0
140
1.0
294
1
141
0.0
177
0
142
1.0
295
0
296
0
143
3.75
271
0
272
9
273
9
  0
DICTIONARY
  5
2D
330
A
100
AcDbDictionary
280
1
281
1
  3
CREATED_BY_EZDXF
350
2E
  3
WRITTEN_BY_EZDXF
350
67
  0
DICTIONARYVAR
  5
2E
330
2D
100
DictionaryVariables
280
0
  1
1.4.2 @ 2026-08-25T17:03:52.493302+00:00
  0
DICTIONARYVAR
  5
67
330
2D
100
DictionaryVariables
280
0
  1
1.4.2 @ 2026-08-25T17:03:52.497494+00:00
  0
ENDSEC
  0
EOF
