0
SECTION
2
HEADER
9
$ACADVER
1
AC1009
9
$EXTMIN
10
0
20
0
9
$EXTMAX
10
77.6
20
22.4
0
ENDSEC
0
SECTION
2
TABLES
0
TABLE
2
LAYER
70
2
0
LAYER
2
CUT
70
0
62
1
6
CONTINUOUS
0
LAYER
2
RASTER
70
0
62
7
6
CONTINUOUS
0
ENDTAB
0
ENDSEC
0
SECTION
2
ENTITIES
0
CIRCLE
8
CUT
10
11.2
20
11.2
30
0
40
7.2
0
CIRCLE
8
RASTER
10
11.2
20
11.2
30
0
40
6.5
0
CIRCLE
8
RASTER
10
11.2
20
11.2
30
0
40
6
0
POLYLINE
8
RASTER
66
1
70
1
0
VERTEX
8
RASTER
10
7.2
20
10.4
30
0
0
VERTEX
8
RASTER
10
15.2
20
10.4
30
0
0
VERTEX
8
RASTER
10
14.2
20
8.6
30
0
0
VERTEX
8
RASTER
10
8.2
20
8.6
30
0
0
SEQEND
8
RASTER
0
POLYLINE
8
RASTER
66
1
70
1
0
VERTEX
8
RASTER
10
11
20
15.6
30
0
0
VERTEX
8
RASTER
10
11.4
20
15.6
30
0
0
VERTEX
8
RASTER
10
11.4
20
10.6
30
0
0
VERTEX
8
RASTER
10
11
20
10.6
30
0
0
SEQEND
8
RASTER
0
POLYLINE
8
RASTER
66
1
70
1
0
VERTEX
8
RASTER
10
11.6
20
15.2
30
0
0
VERTEX
8
RASTER
10
14.8
20
11
30
0
0
VERTEX
8
RASTER
10
11.6
20
11
30
0
0
SEQEND
8
RASTER
0
POLYLINE
8
RASTER
66
1
70
1
0
VERTEX
8
RASTER
10
10.8
20
14.2
30
0
0
VERTEX
8
RASTER
10
10.8
20
11
30
0
0
VERTEX
8
RASTER
10
8.4
20
11
30
0
0
SEQEND
8
RASTER
0
CIRCLE
8
RASTER
10
11.2
20
6.2
30
0
40
0.36
0
CIRCLE
8
CUT
10
29.6
20
11.2
30
0
40
7.2
0
CIRCLE
8
RASTER
10
29.6
20
11.2
30
0
40
6.5
0
CIRCLE
8
RASTER
10
29.6
20
11.2
30
0
40
6
0
POLYLINE
8
RASTER
66
1
70
1
0
VERTEX
8
RASTER
10
25.6
20
10.4
30
0
0
VERTEX
8
RASTER
10
33.6
20
10.4
30
0
0
VERTEX
8
RASTER
10
32.6
20
8.6
30
0
0
VERTEX
8
RASTER
10
26.6
20
8.6
30
0
0
SEQEND
8
RASTER
0
POLYLINE
8
RASTER
66
1
70
1
0
VERTEX
8
RASTER
10
29.4
20
15.6
30
0
0
VERTEX
8
RASTER
10
29.8
20
15.6
30
0
0
VERTEX
8
RASTER
10
29.8
20
10.6
30
0
0
VERTEX
8
RASTER
10
29.4
20
10.6
30
0
0
SEQEND
8
RASTER
0
POLYLINE
8
RASTER
66
1
70
1
0
VERTEX
8
RASTER
10
30
20
15.2
30
0
0
VERTEX
8
RASTER
10
33.2
20
11
30
0
0
VERTEX
8
RASTER
10
30
20
11
30
0
0
SEQEND
8
RASTER
0
POLYLINE
8
RASTER
66
1
70
1
0
VERTEX
8
RASTER
10
29.2
20
14.2
30
0
0
VERTEX
8
RASTER
10
29.2
20
11
30
0
0
VERTEX
8
RASTER
10
26.8
20
11
30
0
0
SEQEND
8
RASTER
0
POLYLINE
8
RASTER
66
1
70
1
0
VERTEX
8
RASTER
10
25.7
20
6.7
30
0
0
VERTEX
8
RASTER
10
26.6
20
6.7
30
0
0
VERTEX
8
RASTER
10
26.6
20
5.8
30
0
0
VERTEX
8
RASTER
10
25.7
20
5.8
30
0
0
SEQEND
8
RASTER
0
POLYLINE
8
RASTER
66
1
70
1
0
VERTEX
8
RASTER
10
26.8
20
6.7
30
0
0
VERTEX
8
RASTER
10
27.7
20
6.7
30
0
0
VERTEX
8
RASTER
10
27.7
20
5.8
30
0
0
VERTEX
8
RASTER
10
26.8
20
5.8
30
0
0
SEQEND
8
RASTER
0
POLYLINE
8
RASTER
66
1
70
1
0
VERTEX
8
RASTER
10
27.9
20
6.7
30
0
0
VERTEX
8
RASTER
10
28.8
20
6.7
30
0
0
VERTEX
8
RASTER
10
28.8
20
5.8
30
0
0
VERTEX
8
RASTER
10
27.9
20
5.8
30
0
0
SEQEND
8
RASTER
0
POLYLINE
8
RASTER
66
1
70
1
0
VERTEX
8
RASTER
10
29
20
6.7
30
0
0
VERTEX
8
RASTER
10
29.9
20
6.7
30
0
0
VERTEX
8
RASTER
10
29.9
20
5.8
30
0
0
VERTEX
8
RASTER
10
29
20
5.8
30
0
0
SEQEND
8
RASTER
0
POLYLINE
8
RASTER
66
1
70
1
0
VERTEX
8
RASTER
10
30.1
20
6.7
30
0
0
VERTEX
8
RASTER
10
31
20
6.7
30
0
0
VERTEX
8
RASTER
10
31
20
5.8
30
0
0
VERTEX
8
RASTER
10
30.1
20
5.8
30
0
0
SEQEND
8
RASTER
0
POLYLINE
8
RASTER
66
1
70
1
0
VERTEX
8
RASTER
10
31.2
20
6.7
30
0
0
VERTEX
8
RASTER
10
32.1
20
6.7
30
0
0
VERTEX
8
RASTER
10
32.1
20
5.8
30
0
0
VERTEX
8
RASTER
10
31.2
20
5.8
30
0
0
SEQEND
8
RASTER
0
POLYLINE
8
RASTER
66
1
70
1
0
VERTEX
8
RASTER
10
32.3
20
6.7
30
0
0
VERTEX
8
RASTER
10
33.2
20
6.7
30
0
0
VERTEX
8
RASTER
10
33.2
20
5.8
30
0
0
VERTEX
8
RASTER
10
32.3
20
5.8
30
0
0
SEQEND
8
RASTER
0
CIRCLE
8
CUT
10
48
20
11.2
30
0
40
7.2
0
CIRCLE
8
RASTER
10
48
20
11.2
30
0
40
6.5
0
CIRCLE
8
RASTER
10
48
20
11.2
30
0
40
6
0
POLYLINE
8
RASTER
66
1
70
1
0
VERTEX
8
RASTER
10
44
20
10.4
30
0
0
VERTEX
8
RASTER
10
52
20
10.4
30
0
0
VERTEX
8
RASTER
10
51
20
8.6
30
0
0
VERTEX
8
RASTER
10
45
20
8.6
30
0
0
SEQEND
8
RASTER
0
POLYLINE
8
RASTER
66
1
70
1
0
VERTEX
8
RASTER
10
47.8
20
15.6
30
0
0
VERTEX
8
RASTER
10
48.2
20
15.6
30
0
0
VERTEX
8
RASTER
10
48.2
20
10.6
30
0
0
VERTEX
8
RASTER
10
47.8
20
10.6
30
0
0
SEQEND
8
RASTER
0
POLYLINE
8
RASTER
66
1
70
1
0
VERTEX
8
RASTER
10
48.4
20
15.2
30
0
0
VERTEX
8
RASTER
10
51.6
20
11
30
0
0
VERTEX
8
RASTER
10
48.4
20
11
30
0
0
SEQEND
8
RASTER
0
POLYLINE
8
RASTER
66
1
70
1
0
VERTEX
8
RASTER
10
47.6
20
14.2
30
0
0
VERTEX
8
RASTER
10
47.6
20
11
30
0
0
VERTEX
8
RASTER
10
45.2
20
11
30
0
0
SEQEND
8
RASTER
0
CIRCLE
8
RASTER
10
44.55
20
6.25
30
0
40
0.32
0
CIRCLE
8
RASTER
10
45.65
20
6.25
30
0
40
0.32
0
CIRCLE
8
RASTER
10
46.75
20
6.25
30
0
40
0.32
0
CIRCLE
8
RASTER
10
47.85
20
6.25
30
0
40
0.32
0
CIRCLE
8
RASTER
10
48.95
20
6.25
30
0
40
0.32
0
CIRCLE
8
RASTER
10
50.05
20
6.25
30
0
40
0.32
0
CIRCLE
8
RASTER
10
51.15
20
6.25
30
0
40
0.32
0
CIRCLE
8
CUT
10
66.4
20
11.2
30
0
40
7.2
0
CIRCLE
8
RASTER
10
66.4
20
11.2
30
0
40
6.5
0
CIRCLE
8
RASTER
10
66.4
20
11.2
30
0
40
6
0
POLYLINE
8
RASTER
66
1
70
1
0
VERTEX
8
RASTER
10
62.4
20
10.4
30
0
0
VERTEX
8
RASTER
10
70.4
20
10.4
30
0
0
VERTEX
8
RASTER
10
69.4
20
8.6
30
0
0
VERTEX
8
RASTER
10
63.4
20
8.6
30
0
0
SEQEND
8
RASTER
0
POLYLINE
8
RASTER
66
1
70
1
0
VERTEX
8
RASTER
10
66.2
20
15.6
30
0
0
VERTEX
8
RASTER
10
66.6
20
15.6
30
0
0
VERTEX
8
RASTER
10
66.6
20
10.6
30
0
0
VERTEX
8
RASTER
10
66.2
20
10.6
30
0
0
SEQEND
8
RASTER
0
POLYLINE
8
RASTER
66
1
70
1
0
VERTEX
8
RASTER
10
66.8
20
15.2
30
0
0
VERTEX
8
RASTER
10
70
20
11
30
0
0
VERTEX
8
RASTER
10
66.8
20
11
30
0
0
SEQEND
8
RASTER
0
POLYLINE
8
RASTER
66
1
70
1
0
VERTEX
8
RASTER
10
66
20
14.2
30
0
0
VERTEX
8
RASTER
10
66
20
11
30
0
0
VERTEX
8
RASTER
10
63.6
20
11
30
0
0
SEQEND
8
RASTER
0
POLYLINE
8
RASTER
66
1
70
1
0
VERTEX
8
RASTER
10
62.5
20
6.7
30
0
0
VERTEX
8
RASTER
10
63.4
20
6.7
30
0
0
VERTEX
8
RASTER
10
63.4
20
5.8
30
0
0
VERTEX
8
RASTER
10
62.5
20
5.8
30
0
0
SEQEND
8
RASTER
0
POLYLINE
8
RASTER
66
1
70
1
0
VERTEX
8
RASTER
10
64.7
20
6.7
30
0
0
VERTEX
8
RASTER
10
65.6
20
6.7
30
0
0
VERTEX
8
RASTER
10
65.6
20
5.8
30
0
0
VERTEX
8
RASTER
10
64.7
20
5.8
30
0
0
SEQEND
8
RASTER
0
POLYLINE
8
RASTER
66
1
70
1
0
VERTEX
8
RASTER
10
66.9
20
6.7
30
0
0
VERTEX
8
RASTER
10
67.8
20
6.7
30
0
0
VERTEX
8
RASTER
10
67.8
20
5.8
30
0
0
VERTEX
8
RASTER
10
66.9
20
5.8
30
0
0
SEQEND
8
RASTER
0
POLYLINE
8
RASTER
66
1
70
1
0
VERTEX
8
RASTER
10
69.1
20
6.7
30
0
0
VERTEX
8
RASTER
10
70
20
6.7
30
0
0
VERTEX
8
RASTER
10
70
20
5.8
30
0
0
VERTEX
8
RASTER
10
69.1
20
5.8
30
0
0
SEQEND
8
RASTER
0
ENDSEC
0
EOF
