0
SECTION
2
HEADER
9
$ACADVER
1
AC1009
9
$EXTMIN
10
0
20
0
9
$EXTMAX
10
251.2
20
41
0
ENDSEC
0
SECTION
2
TABLES
0
TABLE
2
LAYER
70
2
0
LAYER
2
CUT
70
0
62
1
6
CONTINUOUS
0
LAYER
2
RASTER
70
0
62
7
6
CONTINUOUS
0
ENDTAB
0
ENDSEC
0
SECTION
2
ENTITIES
0
POLYLINE
8
CUT
66
1
70
1
0
VERTEX
8
CUT
10
5.8
20
37
30
0
0
VERTEX
8
CUT
10
16.8
20
37
30
0
0
VERTEX
8
CUT
10
18.419
20
36.914
30
0
0
VERTEX
8
CUT
10
19.909
20
36.66
30
0
0
VERTEX
8
CUT
10
21.282
20
36.241
30
0
0
VERTEX
8
CUT
10
22.55
20
35.66
30
0
0
VERTEX
8
CUT
10
23.724
20
34.922
30
0
0
VERTEX
8
CUT
10
24.816
20
34.03
30
0
0
VERTEX
8
CUT
10
25.837
20
32.988
30
0
0
VERTEX
8
CUT
10
26.8
20
31.8
30
0
0
VERTEX
8
CUT
10
25.837
20
30.612
30
0
0
VERTEX
8
CUT
10
24.816
20
29.57
30
0
0
VERTEX
8
CUT
10
23.724
20
28.678
30
0
0
VERTEX
8
CUT
10
22.55
20
27.94
30
0
0
VERTEX
8
CUT
10
21.282
20
27.359
30
0
0
VERTEX
8
CUT
10
19.909
20
26.94
30
0
0
VERTEX
8
CUT
10
18.419
20
26.686
30
0
0
VERTEX
8
CUT
10
16.8
20
26.6
30
0
0
VERTEX
8
CUT
10
5.8
20
26.6
30
0
0
VERTEX
8
CUT
10
5.013
20
27.047
30
0
0
VERTEX
8
CUT
10
4.45
20
28.225
30
0
0
VERTEX
8
CUT
10
4.113
20
29.891
30
0
0
VERTEX
8
CUT
10
4
20
31.8
30
0
0
VERTEX
8
CUT
10
4.113
20
33.709
30
0
0
VERTEX
8
CUT
10
4.45
20
35.375
30
0
0
VERTEX
8
CUT
10
5.012
20
36.553
30
0
0
VERTEX
8
CUT
10
5.8
20
37
30
0
0
SEQEND
8
CUT
0
POLYLINE
8
CUT
66
1
70
1
0
VERTEX
8
CUT
10
8.7
20
35.3
30
0
0
VERTEX
8
CUT
10
11.9
20
35.3
30
0
0
VERTEX
8
CUT
10
11.9
20
28.3
30
0
0
VERTEX
8
CUT
10
8.7
20
28.3
30
0
0
SEQEND
8
CUT
0
POLYLINE
8
CUT
66
1
70
1
0
VERTEX
8
CUT
10
16.7
20
35.3
30
0
0
VERTEX
8
CUT
10
19.9
20
35.3
30
0
0
VERTEX
8
CUT
10
19.9
20
28.3
30
0
0
VERTEX
8
CUT
10
16.7
20
28.3
30
0
0
SEQEND
8
CUT
0
POLYLINE
8
RASTER
66
1
70
1
0
VERTEX
8
RASTER
10
6
20
35.02
30
0
0
VERTEX
8
RASTER
10
22.5
20
35.02
30
0
0
VERTEX
8
RASTER
10
22.5
20
34.58
30
0
0
VERTEX
8
RASTER
10
6
20
34.58
30
0
0
SEQEND
8
RASTER
0
POLYLINE
8
RASTER
66
1
70
1
0
VERTEX
8
RASTER
10
6
20
32.02
30
0
0
VERTEX
8
RASTER
10
22.5
20
32.02
30
0
0
VERTEX
8
RASTER
10
22.5
20
31.58
30
0
0
VERTEX
8
RASTER
10
6
20
31.58
30
0
0
SEQEND
8
RASTER
0
POLYLINE
8
RASTER
66
1
70
1
0
VERTEX
8
RASTER
10
6
20
29.02
30
0
0
VERTEX
8
RASTER
10
22.5
20
29.02
30
0
0
VERTEX
8
RASTER
10
22.5
20
28.58
30
0
0
VERTEX
8
RASTER
10
6
20
28.58
30
0
0
SEQEND
8
RASTER
0
POLYLINE
8
RASTER
66
1
70
1
0
VERTEX
8
RASTER
10
4.4
20
32.1
30
0
0
VERTEX
8
RASTER
10
6
20
32.1
30
0
0
VERTEX
8
RASTER
10
6
20
31.5
30
0
0
VERTEX
8
RASTER
10
4.4
20
31.5
30
0
0
SEQEND
8
RASTER
0
POLYLINE
8
CUT
66
1
70
1
0
VERTEX
8
CUT
10
37
20
37
30
0
0
VERTEX
8
CUT
10
39.6
20
37
30
0
0
VERTEX
8
CUT
10
39.6
20
35
30
0
0
VERTEX
8
CUT
10
45.8
20
35
30
0
0
VERTEX
8
CUT
10
45.8
20
22
30
0
0
VERTEX
8
CUT
10
43
20
20.4
30
0
0
VERTEX
8
CUT
10
39.6
20
19.6
30
0
0
VERTEX
8
CUT
10
39.6
20
10
30
0
0
VERTEX
8
CUT
10
41.65
20
10
30
0
0
VERTEX
8
CUT
10
41.65
20
4
30
0
0
VERTEX
8
CUT
10
34.95
20
4
30
0
0
VERTEX
8
CUT
10
34.95
20
10
30
0
0
VERTEX
8
CUT
10
37
20
10
30
0
0
VERTEX
8
CUT
10
37
20
19.6
30
0
0
VERTEX
8
CUT
10
32.3
20
20.4
30
0
0
VERTEX
8
CUT
10
30.8
20
22
30
0
0
VERTEX
8
CUT
10
30.8
20
35
30
0
0
VERTEX
8
CUT
10
37
20
35
30
0
0
SEQEND
8
CUT
0
POLYLINE
8
RASTER
66
1
70
1
0
VERTEX
8
RASTER
10
30.8
20
34.4
30
0
0
VERTEX
8
RASTER
10
45.8
20
34.4
30
0
0
VERTEX
8
RASTER
10
45.8
20
33.9
30
0
0
VERTEX
8
RASTER
10
30.8
20
33.9
30
0
0
SEQEND
8
RASTER
0
POLYLINE
8
RASTER
66
1
70
1
0
VERTEX
8
RASTER
10
38.123
20
33.433
30
0
0
VERTEX
8
RASTER
10
38.667
20
33.446
30
0
0
VERTEX
8
RASTER
10
39.052
20
33.36
30
0
0
VERTEX
8
RASTER
10
39.309
20
33.274
30
0
0
VERTEX
8
RASTER
10
39.921
20
32.945
30
0
0
VERTEX
8
RASTER
10
40.392
20
32.474
30
0
0
VERTEX
8
RASTER
10
40.563
20
32.217
30
0
0
VERTEX
8
RASTER
10
40.721
20
31.862
30
0
0
VERTEX
8
RASTER
10
40.764
20
31.648
30
0
0
VERTEX
8
RASTER
10
40.764
20
30.963
30
0
0
VERTEX
8
RASTER
10
40.678
20
30.578
30
0
0
VERTEX
8
RASTER
10
40.85
20
30.236
30
0
0
VERTEX
8
RASTER
10
40.892
20
29.808
30
0
0
VERTEX
8
RASTER
10
40.734
20
29.495
30
0
0
VERTEX
8
RASTER
10
40.666
20
29.392
30
0
0
VERTEX
8
RASTER
10
40.336
20
29.208
30
0
0
VERTEX
8
RASTER
10
39.951
20
29.166
30
0
0
VERTEX
8
RASTER
10
39.737
20
29.251
30
0
0
VERTEX
8
RASTER
10
39.681
20
29.221
30
0
0
VERTEX
8
RASTER
10
39.621
20
28.468
30
0
0
VERTEX
8
RASTER
10
39.352
20
28.267
30
0
0
VERTEX
8
RASTER
10
39.065
20
28.297
30
0
0
VERTEX
8
RASTER
10
38.979
20
28.211
30
0
0
VERTEX
8
RASTER
10
38.71
20
28.096
30
0
0
VERTEX
8
RASTER
10
38.453
20
28.096
30
0
0
VERTEX
8
RASTER
10
38.367
20
28.138
30
0
0
VERTEX
8
RASTER
10
37.854
20
28.096
30
0
0
VERTEX
8
RASTER
10
37.554
20
28.267
30
0
0
VERTEX
8
RASTER
10
37.34
20
28.224
30
0
0
VERTEX
8
RASTER
10
37.113
20
28.297
30
0
0
VERTEX
8
RASTER
10
36.985
20
28.382
30
0
0
VERTEX
8
RASTER
10
36.869
20
28.652
30
0
0
VERTEX
8
RASTER
10
36.955
20
29.037
30
0
0
VERTEX
8
RASTER
10
36.882
20
29.221
30
0
0
VERTEX
8
RASTER
10
36.826
20
29.251
30
0
0
VERTEX
8
RASTER
10
36.612
20
29.166
30
0
0
VERTEX
8
RASTER
10
36.441
20
29.166
30
0
0
VERTEX
8
RASTER
10
36.227
20
29.208
30
0
0
VERTEX
8
RASTER
10
36
20
29.324
30
0
0
VERTEX
8
RASTER
10
35.829
20
29.495
30
0
0
VERTEX
8
RASTER
10
35.671
20
29.85
30
0
0
VERTEX
8
RASTER
10
35.714
20
30.193
30
0
0
VERTEX
8
RASTER
10
35.885
20
30.535
30
0
0
VERTEX
8
RASTER
10
35.842
20
30.92
30
0
0
VERTEX
8
RASTER
10
35.799
20
31.006
30
0
0
VERTEX
8
RASTER
10
35.799
20
31.562
30
0
0
VERTEX
8
RASTER
10
35.928
20
31.99
30
0
0
VERTEX
8
RASTER
10
36.129
20
32.388
30
0
0
VERTEX
8
RASTER
10
36.343
20
32.645
30
0
0
VERTEX
8
RASTER
10
36.942
20
33.073
30
0
0
VERTEX
8
RASTER
10
37.511
20
33.317
30
0
0
SEQEND
8
RASTER
0
POLYLINE
8
RASTER
66
1
70
1
0
VERTEX
8
RASTER
10
38.11
20
33.317
30
0
0
VERTEX
8
RASTER
10
37.682
20
33.232
30
0
0
VERTEX
8
RASTER
10
37.156
20
33.03
30
0
0
VERTEX
8
RASTER
10
36.771
20
32.816
30
0
0
VERTEX
8
RASTER
10
36.343
20
32.431
30
0
0
VERTEX
8
RASTER
10
36.172
20
32.174
30
0
0
VERTEX
8
RASTER
10
36.013
20
31.819
30
0
0
VERTEX
8
RASTER
10
35.928
20
31.391
30
0
0
VERTEX
8
RASTER
10
35.928
20
31.177
30
0
0
VERTEX
8
RASTER
10
35.97
20
31.092
30
0
0
VERTEX
8
RASTER
10
35.97
20
30.749
30
0
0
VERTEX
8
RASTER
10
36.043
20
30.719
30
0
0
VERTEX
8
RASTER
10
36.27
20
31.22
30
0
0
VERTEX
8
RASTER
10
36.326
20
31.764
30
0
0
VERTEX
8
RASTER
10
36.356
20
31.734
30
0
0
VERTEX
8
RASTER
10
36.356
20
31.263
30
0
0
VERTEX
8
RASTER
10
36.27
20
30.963
30
0
0
VERTEX
8
RASTER
10
35.885
20
30.278
30
0
0
VERTEX
8
RASTER
10
35.812
20
29.949
30
0
0
VERTEX
8
RASTER
10
35.842
20
29.765
30
0
0
VERTEX
8
RASTER
10
35.915
20
29.624
30
0
0
VERTEX
8
RASTER
10
36.026
20
29.478
30
0
0
VERTEX
8
RASTER
10
36.184
20
29.38
30
0
0
VERTEX
8
RASTER
10
36.484
20
29.294
30
0
0
VERTEX
8
RASTER
10
36.826
20
29.38
30
0
0
VERTEX
8
RASTER
10
37.083
20
29.38
30
0
0
VERTEX
8
RASTER
10
37.225
20
29.264
30
0
0
VERTEX
8
RASTER
10
37.254
20
29.208
30
0
0
VERTEX
8
RASTER
10
37.225
20
29.178
30
0
0
VERTEX
8
RASTER
10
37.011
20
29.281
30
0
0
VERTEX
8
RASTER
10
37.083
20
29.08
30
0
0
VERTEX
8
RASTER
10
37.04
20
28.909
30
0
0
VERTEX
8
RASTER
10
37.04
20
28.609
30
0
0
VERTEX
8
RASTER
10
37.113
20
28.468
30
0
0
VERTEX
8
RASTER
10
37.383
20
28.352
30
0
0
VERTEX
8
RASTER
10
37.541
20
28.408
30
0
0
VERTEX
8
RASTER
10
37.597
20
28.78
30
0
0
VERTEX
8
RASTER
10
37.67
20
28.853
30
0
0
VERTEX
8
RASTER
10
37.695
20
28.322
30
0
0
VERTEX
8
RASTER
10
37.896
20
28.224
30
0
0
VERTEX
8
RASTER
10
38.11
20
28.224
30
0
0
VERTEX
8
RASTER
10
38.239
20
28.31
30
0
0
VERTEX
8
RASTER
10
38.239
20
28.652
30
0
0
VERTEX
8
RASTER
10
38.312
20
28.81
30
0
0
VERTEX
8
RASTER
10
38.367
20
28.652
30
0
0
VERTEX
8
RASTER
10
38.397
20
28.254
30
0
0
VERTEX
8
RASTER
10
38.667
20
28.224
30
0
0
VERTEX
8
RASTER
10
38.936
20
28.34
30
0
0
VERTEX
8
RASTER
10
38.966
20
28.395
30
0
0
VERTEX
8
RASTER
10
38.966
20
28.609
30
0
0
VERTEX
8
RASTER
10
38.924
20
28.695
30
0
0
VERTEX
8
RASTER
10
38.924
20
28.823
30
0
0
VERTEX
8
RASTER
10
38.966
20
28.866
30
0
0
VERTEX
8
RASTER
10
39.052
20
28.695
30
0
0
VERTEX
8
RASTER
10
39.082
20
28.425
30
0
0
VERTEX
8
RASTER
10
39.309
20
28.395
30
0
0
VERTEX
8
RASTER
10
39.493
20
28.511
30
0
0
VERTEX
8
RASTER
10
39.566
20
28.695
30
0
0
VERTEX
8
RASTER
10
39.523
20
28.78
30
0
0
VERTEX
8
RASTER
10
39.523
20
29.166
30
0
0
VERTEX
8
RASTER
10
39.566
20
29.251
30
0
0
VERTEX
8
RASTER
10
39.523
20
29.294
30
0
0
VERTEX
8
RASTER
10
39.322
20
29.178
30
0
0
VERTEX
8
RASTER
10
39.339
20
29.264
30
0
0
VERTEX
8
RASTER
10
39.424
20
29.35
30
0
0
VERTEX
8
RASTER
10
39.737
20
29.38
30
0
0
VERTEX
8
RASTER
10
39.994
20
29.294
30
0
0
VERTEX
8
RASTER
10
40.122
20
29.294
30
0
0
VERTEX
8
RASTER
10
40.494
20
29.435
30
0
0
VERTEX
8
RASTER
10
40.606
20
29.538
30
0
0
VERTEX
8
RASTER
10
40.764
20
29.893
30
0
0
VERTEX
8
RASTER
10
40.764
20
30.022
30
0
0
VERTEX
8
RASTER
10
40.721
20
30.193
30
0
0
VERTEX
8
RASTER
10
40.434
20
30.676
30
0
0
VERTEX
8
RASTER
10
40.25
20
31.134
30
0
0
VERTEX
8
RASTER
10
40.208
20
31.306
30
0
0
VERTEX
8
RASTER
10
40.208
20
31.734
30
0
0
VERTEX
8
RASTER
10
40.22
20
31.764
30
0
0
VERTEX
8
RASTER
10
40.25
20
31.734
30
0
0
VERTEX
8
RASTER
10
40.293
20
31.263
30
0
0
VERTEX
8
RASTER
10
40.537
20
30.736
30
0
0
VERTEX
8
RASTER
10
40.593
20
30.749
30
0
0
VERTEX
8
RASTER
10
40.636
20
31.477
30
0
0
VERTEX
8
RASTER
10
40.55
20
31.862
30
0
0
VERTEX
8
RASTER
10
40.349
20
32.26
30
0
0
VERTEX
8
RASTER
10
40.22
20
32.474
30
0
0
VERTEX
8
RASTER
10
39.878
20
32.816
30
0
0
VERTEX
8
RASTER
10
39.266
20
33.146
30
0
0
VERTEX
8
RASTER
10
38.881
20
33.274
30
0
0
VERTEX
8
RASTER
10
38.667
20
33.317
30
0
0
SEQEND
8
RASTER
0
POLYLINE
8
RASTER
66
1
70
1
0
VERTEX
8
RASTER
10
37.139
20
31.421
30
0
0
VERTEX
8
RASTER
10
37.426
20
31.391
30
0
0
VERTEX
8
RASTER
10
37.61
20
31.276
30
0
0
VERTEX
8
RASTER
10
37.781
20
31.062
30
0
0
VERTEX
8
RASTER
10
37.854
20
30.878
30
0
0
VERTEX
8
RASTER
10
37.854
20
30.492
30
0
0
VERTEX
8
RASTER
10
37.738
20
30.223
30
0
0
VERTEX
8
RASTER
10
37.524
20
29.966
30
0
0
VERTEX
8
RASTER
10
37.199
20
29.82
30
0
0
VERTEX
8
RASTER
10
37.199
20
29.863
30
0
0
VERTEX
8
RASTER
10
37.353
20
29.923
30
0
0
VERTEX
8
RASTER
10
37.456
20
30.009
30
0
0
VERTEX
8
RASTER
10
37.212
20
29.936
30
0
0
VERTEX
8
RASTER
10
36.869
20
29.979
30
0
0
VERTEX
8
RASTER
10
36.6
20
30.137
30
0
0
VERTEX
8
RASTER
10
36.441
20
30.45
30
0
0
VERTEX
8
RASTER
10
36.441
20
30.792
30
0
0
VERTEX
8
RASTER
10
36.557
20
31.062
30
0
0
VERTEX
8
RASTER
10
36.814
20
31.318
30
0
0
SEQEND
8
RASTER
0
POLYLINE
8
RASTER
66
1
70
1
0
VERTEX
8
RASTER
10
39.279
20
31.421
30
0
0
VERTEX
8
RASTER
10
39.437
20
31.434
30
0
0
VERTEX
8
RASTER
10
39.608
20
31.391
30
0
0
VERTEX
8
RASTER
10
39.835
20
31.276
30
0
0
VERTEX
8
RASTER
10
39.964
20
31.147
30
0
0
VERTEX
8
RASTER
10
40.122
20
30.835
30
0
0
VERTEX
8
RASTER
10
40.152
20
30.608
30
0
0
VERTEX
8
RASTER
10
40.122
20
30.407
30
0
0
VERTEX
8
RASTER
10
40.006
20
30.18
30
0
0
VERTEX
8
RASTER
10
39.921
20
30.094
30
0
0
VERTEX
8
RASTER
10
39.523
20
29.936
30
0
0
VERTEX
8
RASTER
10
39.223
20
29.979
30
0
0
VERTEX
8
RASTER
10
39.193
20
29.949
30
0
0
VERTEX
8
RASTER
10
39.339
20
29.88
30
0
0
VERTEX
8
RASTER
10
39.309
20
29.85
30
0
0
VERTEX
8
RASTER
10
39.125
20
29.923
30
0
0
VERTEX
8
RASTER
10
38.979
20
30.034
30
0
0
VERTEX
8
RASTER
10
38.765
20
30.377
30
0
0
VERTEX
8
RASTER
10
38.71
20
30.578
30
0
0
VERTEX
8
RASTER
10
38.71
20
30.835
30
0
0
VERTEX
8
RASTER
10
38.868
20
31.19
30
0
0
VERTEX
8
RASTER
10
39.082
20
31.361
30
0
0
SEQEND
8
RASTER
0
POLYLINE
8
RASTER
66
1
70
1
0
VERTEX
8
RASTER
10
37.254
20
31.306
30
0
0
VERTEX
8
RASTER
10
36.985
20
31.19
30
0
0
VERTEX
8
RASTER
10
36.814
20
31.019
30
0
0
VERTEX
8
RASTER
10
36.741
20
30.835
30
0
0
VERTEX
8
RASTER
10
36.741
20
30.535
30
0
0
VERTEX
8
RASTER
10
36.856
20
30.308
30
0
0
VERTEX
8
RASTER
10
36.985
20
30.18
30
0
0
VERTEX
8
RASTER
10
37.126
20
30.107
30
0
0
VERTEX
8
RASTER
10
37.383
20
30.107
30
0
0
VERTEX
8
RASTER
10
37.524
20
30.18
30
0
0
VERTEX
8
RASTER
10
37.682
20
30.364
30
0
0
VERTEX
8
RASTER
10
37.768
20
30.664
30
0
0
VERTEX
8
RASTER
10
37.653
20
31.062
30
0
0
VERTEX
8
RASTER
10
37.481
20
31.233
30
0
0
SEQEND
8
RASTER
0
POLYLINE
8
RASTER
66
1
70
1
0
VERTEX
8
RASTER
10
39.266
20
31.306
30
0
0
VERTEX
8
RASTER
10
39.082
20
31.233
30
0
0
VERTEX
8
RASTER
10
38.954
20
31.104
30
0
0
VERTEX
8
RASTER
10
38.838
20
30.878
30
0
0
VERTEX
8
RASTER
10
38.838
20
30.535
30
0
0
VERTEX
8
RASTER
10
38.954
20
30.266
30
0
0
VERTEX
8
RASTER
10
39.039
20
30.18
30
0
0
VERTEX
8
RASTER
10
39.18
20
30.107
30
0
0
VERTEX
8
RASTER
10
39.437
20
30.107
30
0
0
VERTEX
8
RASTER
10
39.681
20
30.248
30
0
0
VERTEX
8
RASTER
10
39.767
20
30.377
30
0
0
VERTEX
8
RASTER
10
39.822
20
30.535
30
0
0
VERTEX
8
RASTER
10
39.822
20
30.878
30
0
0
VERTEX
8
RASTER
10
39.664
20
31.147
30
0
0
VERTEX
8
RASTER
10
39.48
20
31.263
30
0
0
SEQEND
8
RASTER
0
POLYLINE
8
RASTER
66
1
70
1
0
VERTEX
8
RASTER
10
39.81
20
31.164
30
0
0
VERTEX
8
RASTER
10
39.78
20
31.134
30
0
0
VERTEX
8
RASTER
10
39.908
20
30.92
30
0
0
VERTEX
8
RASTER
10
39.951
20
30.664
30
0
0
VERTEX
8
RASTER
10
39.852
20
30.334
30
0
0
VERTEX
8
RASTER
10
39.638
20
30.12
30
0
0
VERTEX
8
RASTER
10
39.651
20
30.064
30
0
0
VERTEX
8
RASTER
10
39.835
20
30.137
30
0
0
VERTEX
8
RASTER
10
39.964
20
30.266
30
0
0
VERTEX
8
RASTER
10
40.079
20
30.578
30
0
0
VERTEX
8
RASTER
10
39.994
20
30.92
30
0
0
SEQEND
8
RASTER
0
POLYLINE
8
RASTER
66
1
70
1
0
VERTEX
8
RASTER
10
36.728
20
31.079
30
0
0
VERTEX
8
RASTER
10
36.642
20
31.019
30
0
0
VERTEX
8
RASTER
10
36.527
20
30.792
30
0
0
VERTEX
8
RASTER
10
36.527
20
30.45
30
0
0
VERTEX
8
RASTER
10
36.685
20
30.18
30
0
0
VERTEX
8
RASTER
10
36.998
20
30.022
30
0
0
VERTEX
8
RASTER
10
37.011
20
30.077
30
0
0
VERTEX
8
RASTER
10
36.771
20
30.266
30
0
0
VERTEX
8
RASTER
10
36.655
20
30.492
30
0
0
VERTEX
8
RASTER
10
36.655
20
30.878
30
0
0
SEQEND
8
RASTER
0
POLYLINE
8
RASTER
66
1
70
1
0
VERTEX
8
RASTER
10
38.252
20
30.351
30
0
0
VERTEX
8
RASTER
10
38.38
20
30.334
30
0
0
VERTEX
8
RASTER
10
38.508
20
30.206
30
0
0
VERTEX
8
RASTER
10
38.667
20
29.893
30
0
0
VERTEX
8
RASTER
10
38.71
20
29.722
30
0
0
VERTEX
8
RASTER
10
38.637
20
29.581
30
0
0
VERTEX
8
RASTER
10
38.581
20
29.551
30
0
0
VERTEX
8
RASTER
10
38.44
20
29.581
30
0
0
VERTEX
8
RASTER
10
38.282
20
29.722
30
0
0
VERTEX
8
RASTER
10
38.209
20
29.624
30
0
0
VERTEX
8
RASTER
10
38.068
20
29.551
30
0
0
VERTEX
8
RASTER
10
37.952
20
29.564
30
0
0
VERTEX
8
RASTER
10
37.896
20
29.636
30
0
0
VERTEX
8
RASTER
10
37.896
20
29.765
30
0
0
VERTEX
8
RASTER
10
37.982
20
30.022
30
0
0
VERTEX
8
RASTER
10
38.055
20
30.163
30
0
0
SEQEND
8
RASTER
0
POLYLINE
8
RASTER
66
1
70
1
0
VERTEX
8
RASTER
10
38.282
20
30.278
30
0
0
VERTEX
8
RASTER
10
38.14
20
30.12
30
0
0
VERTEX
8
RASTER
10
37.982
20
29.722
30
0
0
VERTEX
8
RASTER
10
38.055
20
29.649
30
0
0
VERTEX
8
RASTER
10
38.14
20
29.692
30
0
0
VERTEX
8
RASTER
10
38.183
20
29.778
30
0
0
VERTEX
8
RASTER
10
38.324
20
29.808
30
0
0
VERTEX
8
RASTER
10
38.538
20
29.636
30
0
0
VERTEX
8
RASTER
10
38.581
20
29.679
30
0
0
VERTEX
8
RASTER
10
38.538
20
29.936
30
0
0
VERTEX
8
RASTER
10
38.423
20
30.163
30
0
0
SEQEND
8
RASTER
0
POLYLINE
8
RASTER
66
1
70
1
0
VERTEX
8
RASTER
10
34.902
20
30.658
30
0
0
VERTEX
8
RASTER
10
38.3
20
27.26
30
0
0
VERTEX
8
RASTER
10
41.698
20
30.658
30
0
0
VERTEX
8
RASTER
10
42.538
20
29.818
30
0
0
VERTEX
8
RASTER
10
39.14
20
26.42
30
0
0
VERTEX
8
RASTER
10
42.538
20
23.022
30
0
0
VERTEX
8
RASTER
10
41.698
20
22.182
30
0
0
VERTEX
8
RASTER
10
38.3
20
25.58
30
0
0
VERTEX
8
RASTER
10
34.902
20
22.182
30
0
0
VERTEX
8
RASTER
10
34.062
20
23.022
30
0
0
VERTEX
8
RASTER
10
37.46
20
26.42
30
0
0
VERTEX
8
RASTER
10
34.062
20
29.818
30
0
0
SEQEND
8
RASTER
0
CIRCLE
8
RASTER
10
42.58
20
22.14
30
0
40
0.737
0
CIRCLE
8
RASTER
10
34.02
20
22.14
30
0
40
0.737
0
CIRCLE
8
RASTER
10
34.02
20
30.7
30
0
40
0.737
0
CIRCLE
8
RASTER
10
42.58
20
30.7
30
0
40
0.737
0
CIRCLE
8
RASTER
10
38.3
20
23.4
30
0
40
0.36
0
POLYLINE
8
CUT
66
1
70
1
0
VERTEX
8
CUT
10
54.5
20
37
30
0
0
VERTEX
8
CUT
10
57.1
20
37
30
0
0
VERTEX
8
CUT
10
57.1
20
35
30
0
0
VERTEX
8
CUT
10
61.8
20
35
30
0
0
VERTEX
8
CUT
10
61.8
20
24
30
0
0
VERTEX
8
CUT
10
59
20
22.4
30
0
0
VERTEX
8
CUT
10
57.1
20
21.6
30
0
0
VERTEX
8
CUT
10
57.1
20
12
30
0
0
VERTEX
8
CUT
10
59.15
20
12
30
0
0
VERTEX
8
CUT
10
59.15
20
6
30
0
0
VERTEX
8
CUT
10
52.45
20
6
30
0
0
VERTEX
8
CUT
10
52.45
20
12
30
0
0
VERTEX
8
CUT
10
54.5
20
12
30
0
0
VERTEX
8
CUT
10
54.5
20
21.6
30
0
0
VERTEX
8
CUT
10
51.3
20
22.4
30
0
0
VERTEX
8
CUT
10
49.8
20
24
30
0
0
VERTEX
8
CUT
10
49.8
20
35
30
0
0
VERTEX
8
CUT
10
54.5
20
35
30
0
0
SEQEND
8
CUT
0
POLYLINE
8
RASTER
66
1
70
1
0
VERTEX
8
RASTER
10
49.8
20
34.4
30
0
0
VERTEX
8
RASTER
10
61.8
20
34.4
30
0
0
VERTEX
8
RASTER
10
61.8
20
33.9
30
0
0
VERTEX
8
RASTER
10
49.8
20
33.9
30
0
0
SEQEND
8
RASTER
0
POLYLINE
8
RASTER
66
1
70
1
0
VERTEX
8
RASTER
10
55.65
20
33.858
30
0
0
VERTEX
8
RASTER
10
56.11
20
33.869
30
0
0
VERTEX
8
RASTER
10
56.436
20
33.797
30
0
0
VERTEX
8
RASTER
10
56.654
20
33.724
30
0
0
VERTEX
8
RASTER
10
57.172
20
33.446
30
0
0
VERTEX
8
RASTER
10
57.57
20
33.047
30
0
0
VERTEX
8
RASTER
10
57.715
20
32.83
30
0
0
VERTEX
8
RASTER
10
57.849
20
32.529
30
0
0
VERTEX
8
RASTER
10
57.885
20
32.348
30
0
0
VERTEX
8
RASTER
10
57.885
20
31.769
30
0
0
VERTEX
8
RASTER
10
57.813
20
31.443
30
0
0
VERTEX
8
RASTER
10
57.957
20
31.153
30
0
0
VERTEX
8
RASTER
10
57.994
20
30.791
30
0
0
VERTEX
8
RASTER
10
57.86
20
30.527
30
0
0
VERTEX
8
RASTER
10
57.802
20
30.44
30
0
0
VERTEX
8
RASTER
10
57.523
20
30.284
30
0
0
VERTEX
8
RASTER
10
57.197
20
30.248
30
0
0
VERTEX
8
RASTER
10
57.016
20
30.32
30
0
0
VERTEX
8
RASTER
10
56.969
20
30.295
30
0
0
VERTEX
8
RASTER
10
56.918
20
29.658
30
0
0
VERTEX
8
RASTER
10
56.69
20
29.487
30
0
0
VERTEX
8
RASTER
10
56.447
20
29.513
30
0
0
VERTEX
8
RASTER
10
56.375
20
29.44
30
0
0
VERTEX
8
RASTER
10
56.147
20
29.342
30
0
0
VERTEX
8
RASTER
10
55.929
20
29.342
30
0
0
VERTEX
8
RASTER
10
55.857
20
29.379
30
0
0
VERTEX
8
RASTER
10
55.422
20
29.342
30
0
0
VERTEX
8
RASTER
10
55.169
20
29.487
30
0
0
VERTEX
8
RASTER
10
54.988
20
29.451
30
0
0
VERTEX
8
RASTER
10
54.796
20
29.513
30
0
0
VERTEX
8
RASTER
10
54.687
20
29.585
30
0
0
VERTEX
8
RASTER
10
54.589
20
29.813
30
0
0
VERTEX
8
RASTER
10
54.662
20
30.139
30
0
0
VERTEX
8
RASTER
10
54.6
20
30.295
30
0
0
VERTEX
8
RASTER
10
54.553
20
30.32
30
0
0
VERTEX
8
RASTER
10
54.372
20
30.248
30
0
0
VERTEX
8
RASTER
10
54.227
20
30.248
30
0
0
VERTEX
8
RASTER
10
54.046
20
30.284
30
0
0
VERTEX
8
RASTER
10
53.854
20
30.382
30
0
0
VERTEX
8
RASTER
10
53.709
20
30.527
30
0
0
VERTEX
8
RASTER
10
53.575
20
30.827
30
0
0
VERTEX
8
RASTER
10
53.612
20
31.117
30
0
0
VERTEX
8
RASTER
10
53.756
20
31.407
30
0
0
VERTEX
8
RASTER
10
53.72
20
31.733
30
0
0
VERTEX
8
RASTER
10
53.684
20
31.805
30
0
0
VERTEX
8
RASTER
10
53.684
20
32.276
30
0
0
VERTEX
8
RASTER
10
53.793
20
32.638
30
0
0
VERTEX
8
RASTER
10
53.963
20
32.975
30
0
0
VERTEX
8
RASTER
10
54.144
20
33.192
30
0
0
VERTEX
8
RASTER
10
54.651
20
33.554
30
0
0
VERTEX
8
RASTER
10
55.133
20
33.761
30
0
0
SEQEND
8
RASTER
0
POLYLINE
8
RASTER
66
1
70
1
0
VERTEX
8
RASTER
10
55.64
20
33.761
30
0
0
VERTEX
8
RASTER
10
55.277
20
33.688
30
0
0
VERTEX
8
RASTER
10
54.832
20
33.518
30
0
0
VERTEX
8
RASTER
10
54.506
20
33.337
30
0
0
VERTEX
8
RASTER
10
54.144
20
33.011
30
0
0
VERTEX
8
RASTER
10
53.999
20
32.794
30
0
0
VERTEX
8
RASTER
10
53.865
20
32.493
30
0
0
VERTEX
8
RASTER
10
53.793
20
32.131
30
0
0
VERTEX
8
RASTER
10
53.793
20
31.95
30
0
0
VERTEX
8
RASTER
10
53.829
20
31.877
30
0
0
VERTEX
8
RASTER
10
53.829
20
31.588
30
0
0
VERTEX
8
RASTER
10
53.89
20
31.562
30
0
0
VERTEX
8
RASTER
10
54.082
20
31.986
30
0
0
VERTEX
8
RASTER
10
54.129
20
32.446
30
0
0
VERTEX
8
RASTER
10
54.155
20
32.421
30
0
0
VERTEX
8
RASTER
10
54.155
20
32.022
30
0
0
VERTEX
8
RASTER
10
54.082
20
31.769
30
0
0
VERTEX
8
RASTER
10
53.756
20
31.189
30
0
0
VERTEX
8
RASTER
10
53.695
20
30.911
30
0
0
VERTEX
8
RASTER
10
53.72
20
30.755
30
0
0
VERTEX
8
RASTER
10
53.782
20
30.635
30
0
0
VERTEX
8
RASTER
10
53.876
20
30.512
30
0
0
VERTEX
8
RASTER
10
54.01
20
30.429
30
0
0
VERTEX
8
RASTER
10
54.263
20
30.356
30
0
0
VERTEX
8
RASTER
10
54.553
20
30.429
30
0
0
VERTEX
8
RASTER
10
54.77
20
30.429
30
0
0
VERTEX
8
RASTER
10
54.89
20
30.331
30
0
0
VERTEX
8
RASTER
10
54.915
20
30.284
30
0
0
VERTEX
8
RASTER
10
54.89
20
30.259
30
0
0
VERTEX
8
RASTER
10
54.709
20
30.346
30
0
0
VERTEX
8
RASTER
10
54.77
20
30.175
30
0
0
VERTEX
8
RASTER
10
54.734
20
30.031
30
0
0
VERTEX
8
RASTER
10
54.734
20
29.777
30
0
0
VERTEX
8
RASTER
10
54.796
20
29.658
30
0
0
VERTEX
8
RASTER
10
55.024
20
29.56
30
0
0
VERTEX
8
RASTER
10
55.158
20
29.607
30
0
0
VERTEX
8
RASTER
10
55.205
20
29.922
30
0
0
VERTEX
8
RASTER
10
55.267
20
29.983
30
0
0
VERTEX
8
RASTER
10
55.288
20
29.534
30
0
0
VERTEX
8
RASTER
10
55.459
20
29.451
30
0
0
VERTEX
8
RASTER
10
55.64
20
29.451
30
0
0
VERTEX
8
RASTER
10
55.748
20
29.524
30
0
0
VERTEX
8
RASTER
10
55.748
20
29.813
30
0
0
VERTEX
8
RASTER
10
55.81
20
29.947
30
0
0
VERTEX
8
RASTER
10
55.857
20
29.813
30
0
0
VERTEX
8
RASTER
10
55.882
20
29.476
30
0
0
VERTEX
8
RASTER
10
56.11
20
29.451
30
0
0
VERTEX
8
RASTER
10
56.339
20
29.549
30
0
0
VERTEX
8
RASTER
10
56.364
20
29.596
30
0
0
VERTEX
8
RASTER
10
56.364
20
29.777
30
0
0
VERTEX
8
RASTER
10
56.328
20
29.849
30
0
0
VERTEX
8
RASTER
10
56.328
20
29.958
30
0
0
VERTEX
8
RASTER
10
56.364
20
29.994
30
0
0
VERTEX
8
RASTER
10
56.436
20
29.849
30
0
0
VERTEX
8
RASTER
10
56.462
20
29.621
30
0
0
VERTEX
8
RASTER
10
56.654
20
29.596
30
0
0
VERTEX
8
RASTER
10
56.809
20
29.694
30
0
0
VERTEX
8
RASTER
10
56.871
20
29.849
30
0
0
VERTEX
8
RASTER
10
56.835
20
29.922
30
0
0
VERTEX
8
RASTER
10
56.835
20
30.248
30
0
0
VERTEX
8
RASTER
10
56.871
20
30.32
30
0
0
VERTEX
8
RASTER
10
56.835
20
30.356
30
0
0
VERTEX
8
RASTER
10
56.665
20
30.259
30
0
0
VERTEX
8
RASTER
10
56.679
20
30.331
30
0
0
VERTEX
8
RASTER
10
56.751
20
30.404
30
0
0
VERTEX
8
RASTER
10
57.016
20
30.429
30
0
0
VERTEX
8
RASTER
10
57.233
20
30.356
30
0
0
VERTEX
8
RASTER
10
57.342
20
30.356
30
0
0
VERTEX
8
RASTER
10
57.657
20
30.476
30
0
0
VERTEX
8
RASTER
10
57.751
20
30.563
30
0
0
VERTEX
8
RASTER
10
57.885
20
30.863
30
0
0
VERTEX
8
RASTER
10
57.885
20
30.972
30
0
0
VERTEX
8
RASTER
10
57.849
20
31.117
30
0
0
VERTEX
8
RASTER
10
57.606
20
31.526
30
0
0
VERTEX
8
RASTER
10
57.45
20
31.914
30
0
0
VERTEX
8
RASTER
10
57.414
20
32.059
30
0
0
VERTEX
8
RASTER
10
57.414
20
32.421
30
0
0
VERTEX
8
RASTER
10
57.425
20
32.446
30
0
0
VERTEX
8
RASTER
10
57.45
20
32.421
30
0
0
VERTEX
8
RASTER
10
57.487
20
32.022
30
0
0
VERTEX
8
RASTER
10
57.693
20
31.577
30
0
0
VERTEX
8
RASTER
10
57.74
20
31.588
30
0
0
VERTEX
8
RASTER
10
57.776
20
32.203
30
0
0
VERTEX
8
RASTER
10
57.704
20
32.529
30
0
0
VERTEX
8
RASTER
10
57.534
20
32.866
30
0
0
VERTEX
8
RASTER
10
57.425
20
33.047
30
0
0
VERTEX
8
RASTER
10
57.135
20
33.337
30
0
0
VERTEX
8
RASTER
10
56.617
20
33.616
30
0
0
VERTEX
8
RASTER
10
56.291
20
33.724
30
0
0
VERTEX
8
RASTER
10
56.11
20
33.761
30
0
0
SEQEND
8
RASTER
0
POLYLINE
8
RASTER
66
1
70
1
0
VERTEX
8
RASTER
10
54.818
20
32.156
30
0
0
VERTEX
8
RASTER
10
55.06
20
32.131
30
0
0
VERTEX
8
RASTER
10
55.216
20
32.033
30
0
0
VERTEX
8
RASTER
10
55.361
20
31.852
30
0
0
VERTEX
8
RASTER
10
55.422
20
31.696
30
0
0
VERTEX
8
RASTER
10
55.422
20
31.37
30
0
0
VERTEX
8
RASTER
10
55.325
20
31.142
30
0
0
VERTEX
8
RASTER
10
55.143
20
30.925
30
0
0
VERTEX
8
RASTER
10
54.868
20
30.802
30
0
0
VERTEX
8
RASTER
10
54.868
20
30.838
30
0
0
VERTEX
8
RASTER
10
54.999
20
30.889
30
0
0
VERTEX
8
RASTER
10
55.086
20
30.961
30
0
0
VERTEX
8
RASTER
10
54.879
20
30.9
30
0
0
VERTEX
8
RASTER
10
54.589
20
30.936
30
0
0
VERTEX
8
RASTER
10
54.361
20
31.07
30
0
0
VERTEX
8
RASTER
10
54.227
20
31.334
30
0
0
VERTEX
8
RASTER
10
54.227
20
31.624
30
0
0
VERTEX
8
RASTER
10
54.325
20
31.852
30
0
0
VERTEX
8
RASTER
10
54.542
20
32.069
30
0
0
SEQEND
8
RASTER
0
POLYLINE
8
RASTER
66
1
70
1
0
VERTEX
8
RASTER
10
56.628
20
32.156
30
0
0
VERTEX
8
RASTER
10
56.762
20
32.167
30
0
0
VERTEX
8
RASTER
10
56.907
20
32.131
30
0
0
VERTEX
8
RASTER
10
57.099
20
32.033
30
0
0
VERTEX
8
RASTER
10
57.208
20
31.925
30
0
0
VERTEX
8
RASTER
10
57.342
20
31.66
30
0
0
VERTEX
8
RASTER
10
57.367
20
31.468
30
0
0
VERTEX
8
RASTER
10
57.342
20
31.298
30
0
0
VERTEX
8
RASTER
10
57.244
20
31.106
30
0
0
VERTEX
8
RASTER
10
57.172
20
31.034
30
0
0
VERTEX
8
RASTER
10
56.835
20
30.9
30
0
0
VERTEX
8
RASTER
10
56.581
20
30.936
30
0
0
VERTEX
8
RASTER
10
56.556
20
30.911
30
0
0
VERTEX
8
RASTER
10
56.679
20
30.853
30
0
0
VERTEX
8
RASTER
10
56.654
20
30.827
30
0
0
VERTEX
8
RASTER
10
56.498
20
30.889
30
0
0
VERTEX
8
RASTER
10
56.375
20
30.983
30
0
0
VERTEX
8
RASTER
10
56.194
20
31.273
30
0
0
VERTEX
8
RASTER
10
56.147
20
31.443
30
0
0
VERTEX
8
RASTER
10
56.147
20
31.66
30
0
0
VERTEX
8
RASTER
10
56.281
20
31.961
30
0
0
VERTEX
8
RASTER
10
56.462
20
32.106
30
0
0
SEQEND
8
RASTER
0
POLYLINE
8
RASTER
66
1
70
1
0
VERTEX
8
RASTER
10
54.915
20
32.059
30
0
0
VERTEX
8
RASTER
10
54.687
20
31.961
30
0
0
VERTEX
8
RASTER
10
54.542
20
31.816
30
0
0
VERTEX
8
RASTER
10
54.481
20
31.66
30
0
0
VERTEX
8
RASTER
10
54.481
20
31.407
30
0
0
VERTEX
8
RASTER
10
54.579
20
31.215
30
0
0
VERTEX
8
RASTER
10
54.687
20
31.106
30
0
0
VERTEX
8
RASTER
10
54.807
20
31.045
30
0
0
VERTEX
8
RASTER
10
55.024
20
31.045
30
0
0
VERTEX
8
RASTER
10
55.143
20
31.106
30
0
0
VERTEX
8
RASTER
10
55.277
20
31.262
30
0
0
VERTEX
8
RASTER
10
55.35
20
31.515
30
0
0
VERTEX
8
RASTER
10
55.252
20
31.852
30
0
0
VERTEX
8
RASTER
10
55.107
20
31.997
30
0
0
SEQEND
8
RASTER
0
POLYLINE
8
RASTER
66
1
70
1
0
VERTEX
8
RASTER
10
56.617
20
32.059
30
0
0
VERTEX
8
RASTER
10
56.462
20
31.997
30
0
0
VERTEX
8
RASTER
10
56.353
20
31.888
30
0
0
VERTEX
8
RASTER
10
56.255
20
31.696
30
0
0
VERTEX
8
RASTER
10
56.255
20
31.407
30
0
0
VERTEX
8
RASTER
10
56.353
20
31.179
30
0
0
VERTEX
8
RASTER
10
56.425
20
31.106
30
0
0
VERTEX
8
RASTER
10
56.545
20
31.045
30
0
0
VERTEX
8
RASTER
10
56.762
20
31.045
30
0
0
VERTEX
8
RASTER
10
56.969
20
31.164
30
0
0
VERTEX
8
RASTER
10
57.041
20
31.273
30
0
0
VERTEX
8
RASTER
10
57.088
20
31.407
30
0
0
VERTEX
8
RASTER
10
57.088
20
31.696
30
0
0
VERTEX
8
RASTER
10
56.954
20
31.925
30
0
0
VERTEX
8
RASTER
10
56.798
20
32.022
30
0
0
SEQEND
8
RASTER
0
POLYLINE
8
RASTER
66
1
70
1
0
VERTEX
8
RASTER
10
57.077
20
31.939
30
0
0
VERTEX
8
RASTER
10
57.052
20
31.914
30
0
0
VERTEX
8
RASTER
10
57.161
20
31.733
30
0
0
VERTEX
8
RASTER
10
57.197
20
31.515
30
0
0
VERTEX
8
RASTER
10
57.114
20
31.236
30
0
0
VERTEX
8
RASTER
10
56.932
20
31.055
30
0
0
VERTEX
8
RASTER
10
56.943
20
31.008
30
0
0
VERTEX
8
RASTER
10
57.099
20
31.07
30
0
0
VERTEX
8
RASTER
10
57.208
20
31.179
30
0
0
VERTEX
8
RASTER
10
57.306
20
31.443
30
0
0
VERTEX
8
RASTER
10
57.233
20
31.733
30
0
0
SEQEND
8
RASTER
0
POLYLINE
8
RASTER
66
1
70
1
0
VERTEX
8
RASTER
10
54.47
20
31.867
30
0
0
VERTEX
8
RASTER
10
54.397
20
31.816
30
0
0
VERTEX
8
RASTER
10
54.3
20
31.624
30
0
0
VERTEX
8
RASTER
10
54.3
20
31.334
30
0
0
VERTEX
8
RASTER
10
54.434
20
31.106
30
0
0
VERTEX
8
RASTER
10
54.698
20
30.972
30
0
0
VERTEX
8
RASTER
10
54.709
20
31.019
30
0
0
VERTEX
8
RASTER
10
54.506
20
31.179
30
0
0
VERTEX
8
RASTER
10
54.408
20
31.37
30
0
0
VERTEX
8
RASTER
10
54.408
20
31.696
30
0
0
SEQEND
8
RASTER
0
POLYLINE
8
RASTER
66
1
70
1
0
VERTEX
8
RASTER
10
55.759
20
31.251
30
0
0
VERTEX
8
RASTER
10
55.868
20
31.236
30
0
0
VERTEX
8
RASTER
10
55.976
20
31.128
30
0
0
VERTEX
8
RASTER
10
56.11
20
30.863
30
0
0
VERTEX
8
RASTER
10
56.147
20
30.719
30
0
0
VERTEX
8
RASTER
10
56.085
20
30.599
30
0
0
VERTEX
8
RASTER
10
56.038
20
30.574
30
0
0
VERTEX
8
RASTER
10
55.918
20
30.599
30
0
0
VERTEX
8
RASTER
10
55.784
20
30.719
30
0
0
VERTEX
8
RASTER
10
55.723
20
30.635
30
0
0
VERTEX
8
RASTER
10
55.603
20
30.574
30
0
0
VERTEX
8
RASTER
10
55.506
20
30.585
30
0
0
VERTEX
8
RASTER
10
55.459
20
30.646
30
0
0
VERTEX
8
RASTER
10
55.459
20
30.755
30
0
0
VERTEX
8
RASTER
10
55.531
20
30.972
30
0
0
VERTEX
8
RASTER
10
55.593
20
31.092
30
0
0
SEQEND
8
RASTER
0
POLYLINE
8
RASTER
66
1
70
1
0
VERTEX
8
RASTER
10
55.784
20
31.189
30
0
0
VERTEX
8
RASTER
10
55.665
20
31.055
30
0
0
VERTEX
8
RASTER
10
55.531
20
30.719
30
0
0
VERTEX
8
RASTER
10
55.593
20
30.657
30
0
0
VERTEX
8
RASTER
10
55.665
20
30.693
30
0
0
VERTEX
8
RASTER
10
55.701
20
30.766
30
0
0
VERTEX
8
RASTER
10
55.821
20
30.791
30
0
0
VERTEX
8
RASTER
10
56.002
20
30.646
30
0
0
VERTEX
8
RASTER
10
56.038
20
30.682
30
0
0
VERTEX
8
RASTER
10
56.002
20
30.9
30
0
0
VERTEX
8
RASTER
10
55.904
20
31.092
30
0
0
SEQEND
8
RASTER
0
POLYLINE
8
RASTER
66
1
70
1
0
VERTEX
8
RASTER
10
53.081
20
31.131
30
0
0
VERTEX
8
RASTER
10
55.8
20
28.412
30
0
0
VERTEX
8
RASTER
10
58.519
20
31.131
30
0
0
VERTEX
8
RASTER
10
59.191
20
30.459
30
0
0
VERTEX
8
RASTER
10
56.472
20
27.74
30
0
0
VERTEX
8
RASTER
10
59.191
20
25.021
30
0
0
VERTEX
8
RASTER
10
58.519
20
24.349
30
0
0
VERTEX
8
RASTER
10
55.8
20
27.068
30
0
0
VERTEX
8
RASTER
10
53.081
20
24.349
30
0
0
VERTEX
8
RASTER
10
52.409
20
25.021
30
0
0
VERTEX
8
RASTER
10
55.128
20
27.74
30
0
0
VERTEX
8
RASTER
10
52.409
20
30.459
30
0
0
SEQEND
8
RASTER
0
CIRCLE
8
RASTER
10
59.224
20
24.316
30
0
40
0.589
0
CIRCLE
8
RASTER
10
52.376
20
24.316
30
0
40
0.589
0
CIRCLE
8
RASTER
10
52.376
20
31.164
30
0
40
0.589
0
CIRCLE
8
RASTER
10
59.224
20
31.164
30
0
40
0.589
0
CIRCLE
8
RASTER
10
55.8
20
25.4
30
0
40
0.36
0
POLYLINE
8
CUT
66
1
70
1
0
VERTEX
8
CUT
10
67.6
20
37
30
0
0
VERTEX
8
CUT
10
78.6
20
37
30
0
0
VERTEX
8
CUT
10
80.219
20
36.914
30
0
0
VERTEX
8
CUT
10
81.709
20
36.66
30
0
0
VERTEX
8
CUT
10
83.082
20
36.241
30
0
0
VERTEX
8
CUT
10
84.35
20
35.66
30
0
0
VERTEX
8
CUT
10
85.524
20
34.922
30
0
0
VERTEX
8
CUT
10
86.616
20
34.03
30
0
0
VERTEX
8
CUT
10
87.637
20
32.988
30
0
0
VERTEX
8
CUT
10
88.6
20
31.8
30
0
0
VERTEX
8
CUT
10
87.637
20
30.612
30
0
0
VERTEX
8
CUT
10
86.616
20
29.57
30
0
0
VERTEX
8
CUT
10
85.524
20
28.678
30
0
0
VERTEX
8
CUT
10
84.35
20
27.94
30
0
0
VERTEX
8
CUT
10
83.082
20
27.359
30
0
0
VERTEX
8
CUT
10
81.709
20
26.94
30
0
0
VERTEX
8
CUT
10
80.219
20
26.686
30
0
0
VERTEX
8
CUT
10
78.6
20
26.6
30
0
0
VERTEX
8
CUT
10
67.6
20
26.6
30
0
0
VERTEX
8
CUT
10
66.812
20
27.047
30
0
0
VERTEX
8
CUT
10
66.25
20
28.225
30
0
0
VERTEX
8
CUT
10
65.913
20
29.891
30
0
0
VERTEX
8
CUT
10
65.8
20
31.8
30
0
0
VERTEX
8
CUT
10
65.913
20
33.709
30
0
0
VERTEX
8
CUT
10
66.25
20
35.375
30
0
0
VERTEX
8
CUT
10
66.813
20
36.553
30
0
0
VERTEX
8
CUT
10
67.6
20
37
30
0
0
SEQEND
8
CUT
0
POLYLINE
8
CUT
66
1
70
1
0
VERTEX
8
CUT
10
70.5
20
35.3
30
0
0
VERTEX
8
CUT
10
73.7
20
35.3
30
0
0
VERTEX
8
CUT
10
73.7
20
28.3
30
0
0
VERTEX
8
CUT
10
70.5
20
28.3
30
0
0
SEQEND
8
CUT
0
POLYLINE
8
CUT
66
1
70
1
0
VERTEX
8
CUT
10
78.5
20
35.3
30
0
0
VERTEX
8
CUT
10
81.7
20
35.3
30
0
0
VERTEX
8
CUT
10
81.7
20
28.3
30
0
0
VERTEX
8
CUT
10
78.5
20
28.3
30
0
0
SEQEND
8
CUT
0
POLYLINE
8
RASTER
66
1
70
1
0
VERTEX
8
RASTER
10
67.8
20
35.02
30
0
0
VERTEX
8
RASTER
10
84.3
20
35.02
30
0
0
VERTEX
8
RASTER
10
84.3
20
34.58
30
0
0
VERTEX
8
RASTER
10
67.8
20
34.58
30
0
0
SEQEND
8
RASTER
0
POLYLINE
8
RASTER
66
1
70
1
0
VERTEX
8
RASTER
10
67.8
20
32.02
30
0
0
VERTEX
8
RASTER
10
84.3
20
32.02
30
0
0
VERTEX
8
RASTER
10
84.3
20
31.58
30
0
0
VERTEX
8
RASTER
10
67.8
20
31.58
30
0
0
SEQEND
8
RASTER
0
POLYLINE
8
RASTER
66
1
70
1
0
VERTEX
8
RASTER
10
67.8
20
29.02
30
0
0
VERTEX
8
RASTER
10
84.3
20
29.02
30
0
0
VERTEX
8
RASTER
10
84.3
20
28.58
30
0
0
VERTEX
8
RASTER
10
67.8
20
28.58
30
0
0
SEQEND
8
RASTER
0
POLYLINE
8
RASTER
66
1
70
1
0
VERTEX
8
RASTER
10
66.2
20
32.1
30
0
0
VERTEX
8
RASTER
10
67.8
20
32.1
30
0
0
VERTEX
8
RASTER
10
67.8
20
31.5
30
0
0
VERTEX
8
RASTER
10
66.2
20
31.5
30
0
0
SEQEND
8
RASTER
0
POLYLINE
8
CUT
66
1
70
1
0
VERTEX
8
CUT
10
98.8
20
37
30
0
0
VERTEX
8
CUT
10
101.4
20
37
30
0
0
VERTEX
8
CUT
10
101.4
20
35
30
0
0
VERTEX
8
CUT
10
107.6
20
35
30
0
0
VERTEX
8
CUT
10
107.6
20
22
30
0
0
VERTEX
8
CUT
10
104.8
20
20.4
30
0
0
VERTEX
8
CUT
10
101.4
20
19.6
30
0
0
VERTEX
8
CUT
10
101.4
20
10
30
0
0
VERTEX
8
CUT
10
103.45
20
10
30
0
0
VERTEX
8
CUT
10
103.45
20
4
30
0
0
VERTEX
8
CUT
10
96.75
20
4
30
0
0
VERTEX
8
CUT
10
96.75
20
10
30
0
0
VERTEX
8
CUT
10
98.8
20
10
30
0
0
VERTEX
8
CUT
10
98.8
20
19.6
30
0
0
VERTEX
8
CUT
10
94.1
20
20.4
30
0
0
VERTEX
8
CUT
10
92.6
20
22
30
0
0
VERTEX
8
CUT
10
92.6
20
35
30
0
0
VERTEX
8
CUT
10
98.8
20
35
30
0
0
SEQEND
8
CUT
0
POLYLINE
8
RASTER
66
1
70
1
0
VERTEX
8
RASTER
10
92.6
20
34.4
30
0
0
VERTEX
8
RASTER
10
107.6
20
34.4
30
0
0
VERTEX
8
RASTER
10
107.6
20
33.9
30
0
0
VERTEX
8
RASTER
10
92.6
20
33.9
30
0
0
SEQEND
8
RASTER
0
POLYLINE
8
RASTER
66
1
70
1
0
VERTEX
8
RASTER
10
99.923
20
33.433
30
0
0
VERTEX
8
RASTER
10
100.467
20
33.446
30
0
0
VERTEX
8
RASTER
10
100.852
20
33.36
30
0
0
VERTEX
8
RASTER
10
101.109
20
33.274
30
0
0
VERTEX
8
RASTER
10
101.721
20
32.945
30
0
0
VERTEX
8
RASTER
10
102.192
20
32.474
30
0
0
VERTEX
8
RASTER
10
102.363
20
32.217
30
0
0
VERTEX
8
RASTER
10
102.521
20
31.862
30
0
0
VERTEX
8
RASTER
10
102.564
20
31.648
30
0
0
VERTEX
8
RASTER
10
102.564
20
30.963
30
0
0
VERTEX
8
RASTER
10
102.478
20
30.578
30
0
0
VERTEX
8
RASTER
10
102.65
20
30.236
30
0
0
VERTEX
8
RASTER
10
102.692
20
29.808
30
0
0
VERTEX
8
RASTER
10
102.534
20
29.495
30
0
0
VERTEX
8
RASTER
10
102.466
20
29.392
30
0
0
VERTEX
8
RASTER
10
102.136
20
29.208
30
0
0
VERTEX
8
RASTER
10
101.751
20
29.166
30
0
0
VERTEX
8
RASTER
10
101.537
20
29.251
30
0
0
VERTEX
8
RASTER
10
101.481
20
29.221
30
0
0
VERTEX
8
RASTER
10
101.421
20
28.468
30
0
0
VERTEX
8
RASTER
10
101.152
20
28.267
30
0
0
VERTEX
8
RASTER
10
100.865
20
28.297
30
0
0
VERTEX
8
RASTER
10
100.779
20
28.211
30
0
0
VERTEX
8
RASTER
10
100.51
20
28.096
30
0
0
VERTEX
8
RASTER
10
100.253
20
28.096
30
0
0
VERTEX
8
RASTER
10
100.167
20
28.138
30
0
0
VERTEX
8
RASTER
10
99.654
20
28.096
30
0
0
VERTEX
8
RASTER
10
99.354
20
28.267
30
0
0
VERTEX
8
RASTER
10
99.14
20
28.224
30
0
0
VERTEX
8
RASTER
10
98.913
20
28.297
30
0
0
VERTEX
8
RASTER
10
98.785
20
28.382
30
0
0
VERTEX
8
RASTER
10
98.669
20
28.652
30
0
0
VERTEX
8
RASTER
10
98.755
20
29.037
30
0
0
VERTEX
8
RASTER
10
98.682
20
29.221
30
0
0
VERTEX
8
RASTER
10
98.626
20
29.251
30
0
0
VERTEX
8
RASTER
10
98.412
20
29.166
30
0
0
VERTEX
8
RASTER
10
98.241
20
29.166
30
0
0
VERTEX
8
RASTER
10
98.027
20
29.208
30
0
0
VERTEX
8
RASTER
10
97.8
20
29.324
30
0
0
VERTEX
8
RASTER
10
97.629
20
29.495
30
0
0
VERTEX
8
RASTER
10
97.471
20
29.85
30
0
0
VERTEX
8
RASTER
10
97.514
20
30.193
30
0
0
VERTEX
8
RASTER
10
97.685
20
30.535
30
0
0
VERTEX
8
RASTER
10
97.642
20
30.92
30
0
0
VERTEX
8
RASTER
10
97.599
20
31.006
30
0
0
VERTEX
8
RASTER
10
97.599
20
31.562
30
0
0
VERTEX
8
RASTER
10
97.728
20
31.99
30
0
0
VERTEX
8
RASTER
10
97.929
20
32.388
30
0
0
VERTEX
8
RASTER
10
98.143
20
32.645
30
0
0
VERTEX
8
RASTER
10
98.742
20
33.073
30
0
0
VERTEX
8
RASTER
10
99.311
20
33.317
30
0
0
SEQEND
8
RASTER
0
POLYLINE
8
RASTER
66
1
70
1
0
VERTEX
8
RASTER
10
99.91
20
33.317
30
0
0
VERTEX
8
RASTER
10
99.482
20
33.232
30
0
0
VERTEX
8
RASTER
10
98.956
20
33.03
30
0
0
VERTEX
8
RASTER
10
98.571
20
32.816
30
0
0
VERTEX
8
RASTER
10
98.143
20
32.431
30
0
0
VERTEX
8
RASTER
10
97.972
20
32.174
30
0
0
VERTEX
8
RASTER
10
97.813
20
31.819
30
0
0
VERTEX
8
RASTER
10
97.728
20
31.391
30
0
0
VERTEX
8
RASTER
10
97.728
20
31.177
30
0
0
VERTEX
8
RASTER
10
97.77
20
31.092
30
0
0
VERTEX
8
RASTER
10
97.77
20
30.749
30
0
0
VERTEX
8
RASTER
10
97.843
20
30.719
30
0
0
VERTEX
8
RASTER
10
98.07
20
31.22
30
0
0
VERTEX
8
RASTER
10
98.126
20
31.764
30
0
0
VERTEX
8
RASTER
10
98.156
20
31.734
30
0
0
VERTEX
8
RASTER
10
98.156
20
31.263
30
0
0
VERTEX
8
RASTER
10
98.07
20
30.963
30
0
0
VERTEX
8
RASTER
10
97.685
20
30.278
30
0
0
VERTEX
8
RASTER
10
97.612
20
29.949
30
0
0
VERTEX
8
RASTER
10
97.642
20
29.765
30
0
0
VERTEX
8
RASTER
10
97.715
20
29.624
30
0
0
VERTEX
8
RASTER
10
97.826
20
29.478
30
0
0
VERTEX
8
RASTER
10
97.984
20
29.38
30
0
0
VERTEX
8
RASTER
10
98.284
20
29.294
30
0
0
VERTEX
8
RASTER
10
98.626
20
29.38
30
0
0
VERTEX
8
RASTER
10
98.883
20
29.38
30
0
0
VERTEX
8
RASTER
10
99.025
20
29.264
30
0
0
VERTEX
8
RASTER
10
99.054
20
29.208
30
0
0
VERTEX
8
RASTER
10
99.025
20
29.178
30
0
0
VERTEX
8
RASTER
10
98.811
20
29.281
30
0
0
VERTEX
8
RASTER
10
98.883
20
29.08
30
0
0
VERTEX
8
RASTER
10
98.84
20
28.909
30
0
0
VERTEX
8
RASTER
10
98.84
20
28.609
30
0
0
VERTEX
8
RASTER
10
98.913
20
28.468
30
0
0
VERTEX
8
RASTER
10
99.183
20
28.352
30
0
0
VERTEX
8
RASTER
10
99.341
20
28.408
30
0
0
VERTEX
8
RASTER
10
99.397
20
28.78
30
0
0
VERTEX
8
RASTER
10
99.47
20
28.853
30
0
0
VERTEX
8
RASTER
10
99.495
20
28.322
30
0
0
VERTEX
8
RASTER
10
99.696
20
28.224
30
0
0
VERTEX
8
RASTER
10
99.91
20
28.224
30
0
0
VERTEX
8
RASTER
10
100.039
20
28.31
30
0
0
VERTEX
8
RASTER
10
100.039
20
28.652
30
0
0
VERTEX
8
RASTER
10
100.112
20
28.81
30
0
0
VERTEX
8
RASTER
10
100.167
20
28.652
30
0
0
VERTEX
8
RASTER
10
100.197
20
28.254
30
0
0
VERTEX
8
RASTER
10
100.467
20
28.224
30
0
0
VERTEX
8
RASTER
10
100.736
20
28.34
30
0
0
VERTEX
8
RASTER
10
100.766
20
28.395
30
0
0
VERTEX
8
RASTER
10
100.766
20
28.609
30
0
0
VERTEX
8
RASTER
10
100.724
20
28.695
30
0
0
VERTEX
8
RASTER
10
100.724
20
28.823
30
0
0
VERTEX
8
RASTER
10
100.766
20
28.866
30
0
0
VERTEX
8
RASTER
10
100.852
20
28.695
30
0
0
VERTEX
8
RASTER
10
100.882
20
28.425
30
0
0
VERTEX
8
RASTER
10
101.109
20
28.395
30
0
0
VERTEX
8
RASTER
10
101.293
20
28.511
30
0
0
VERTEX
8
RASTER
10
101.366
20
28.695
30
0
0
VERTEX
8
RASTER
10
101.323
20
28.78
30
0
0
VERTEX
8
RASTER
10
101.323
20
29.166
30
0
0
VERTEX
8
RASTER
10
101.366
20
29.251
30
0
0
VERTEX
8
RASTER
10
101.323
20
29.294
30
0
0
VERTEX
8
RASTER
10
101.122
20
29.178
30
0
0
VERTEX
8
RASTER
10
101.139
20
29.264
30
0
0
VERTEX
8
RASTER
10
101.224
20
29.35
30
0
0
VERTEX
8
RASTER
10
101.537
20
29.38
30
0
0
VERTEX
8
RASTER
10
101.794
20
29.294
30
0
0
VERTEX
8
RASTER
10
101.922
20
29.294
30
0
0
VERTEX
8
RASTER
10
102.294
20
29.435
30
0
0
VERTEX
8
RASTER
10
102.406
20
29.538
30
0
0
VERTEX
8
RASTER
10
102.564
20
29.893
30
0
0
VERTEX
8
RASTER
10
102.564
20
30.022
30
0
0
VERTEX
8
RASTER
10
102.521
20
30.193
30
0
0
VERTEX
8
RASTER
10
102.234
20
30.676
30
0
0
VERTEX
8
RASTER
10
102.05
20
31.134
30
0
0
VERTEX
8
RASTER
10
102.008
20
31.306
30
0
0
VERTEX
8
RASTER
10
102.008
20
31.734
30
0
0
VERTEX
8
RASTER
10
102.02
20
31.764
30
0
0
VERTEX
8
RASTER
10
102.05
20
31.734
30
0
0
VERTEX
8
RASTER
10
102.093
20
31.263
30
0
0
VERTEX
8
RASTER
10
102.337
20
30.736
30
0
0
VERTEX
8
RASTER
10
102.393
20
30.749
30
0
0
VERTEX
8
RASTER
10
102.436
20
31.477
30
0
0
VERTEX
8
RASTER
10
102.35
20
31.862
30
0
0
VERTEX
8
RASTER
10
102.149
20
32.26
30
0
0
VERTEX
8
RASTER
10
102.02
20
32.474
30
0
0
VERTEX
8
RASTER
10
101.678
20
32.816
30
0
0
VERTEX
8
RASTER
10
101.066
20
33.146
30
0
0
VERTEX
8
RASTER
10
100.681
20
33.274
30
0
0
VERTEX
8
RASTER
10
100.467
20
33.317
30
0
0
SEQEND
8
RASTER
0
POLYLINE
8
RASTER
66
1
70
1
0
VERTEX
8
RASTER
10
98.939
20
31.421
30
0
0
VERTEX
8
RASTER
10
99.226
20
31.391
30
0
0
VERTEX
8
RASTER
10
99.41
20
31.276
30
0
0
VERTEX
8
RASTER
10
99.581
20
31.062
30
0
0
VERTEX
8
RASTER
10
99.654
20
30.878
30
0
0
VERTEX
8
RASTER
10
99.654
20
30.492
30
0
0
VERTEX
8
RASTER
10
99.538
20
30.223
30
0
0
VERTEX
8
RASTER
10
99.324
20
29.966
30
0
0
VERTEX
8
RASTER
10
98.999
20
29.82
30
0
0
VERTEX
8
RASTER
10
98.999
20
29.863
30
0
0
VERTEX
8
RASTER
10
99.153
20
29.923
30
0
0
VERTEX
8
RASTER
10
99.256
20
30.009
30
0
0
VERTEX
8
RASTER
10
99.012
20
29.936
30
0
0
VERTEX
8
RASTER
10
98.669
20
29.979
30
0
0
VERTEX
8
RASTER
10
98.4
20
30.137
30
0
0
VERTEX
8
RASTER
10
98.241
20
30.45
30
0
0
VERTEX
8
RASTER
10
98.241
20
30.792
30
0
0
VERTEX
8
RASTER
10
98.357
20
31.062
30
0
0
VERTEX
8
RASTER
10
98.614
20
31.318
30
0
0
SEQEND
8
RASTER
0
POLYLINE
8
RASTER
66
1
70
1
0
VERTEX
8
RASTER
10
101.079
20
31.421
30
0
0
VERTEX
8
RASTER
10
101.237
20
31.434
30
0
0
VERTEX
8
RASTER
10
101.408
20
31.391
30
0
0
VERTEX
8
RASTER
10
101.635
20
31.276
30
0
0
VERTEX
8
RASTER
10
101.764
20
31.147
30
0
0
VERTEX
8
RASTER
10
101.922
20
30.835
30
0
0
VERTEX
8
RASTER
10
101.952
20
30.608
30
0
0
VERTEX
8
RASTER
10
101.922
20
30.407
30
0
0
VERTEX
8
RASTER
10
101.806
20
30.18
30
0
0
VERTEX
8
RASTER
10
101.721
20
30.094
30
0
0
VERTEX
8
RASTER
10
101.323
20
29.936
30
0
0
VERTEX
8
RASTER
10
101.023
20
29.979
30
0
0
VERTEX
8
RASTER
10
100.993
20
29.949
30
0
0
VERTEX
8
RASTER
10
101.139
20
29.88
30
0
0
VERTEX
8
RASTER
10
101.109
20
29.85
30
0
0
VERTEX
8
RASTER
10
100.925
20
29.923
30
0
0
VERTEX
8
RASTER
10
100.779
20
30.034
30
0
0
VERTEX
8
RASTER
10
100.565
20
30.377
30
0
0
VERTEX
8
RASTER
10
100.51
20
30.578
30
0
0
VERTEX
8
RASTER
10
100.51
20
30.835
30
0
0
VERTEX
8
RASTER
10
100.668
20
31.19
30
0
0
VERTEX
8
RASTER
10
100.882
20
31.361
30
0
0
SEQEND
8
RASTER
0
POLYLINE
8
RASTER
66
1
70
1
0
VERTEX
8
RASTER
10
99.054
20
31.306
30
0
0
VERTEX
8
RASTER
10
98.785
20
31.19
30
0
0
VERTEX
8
RASTER
10
98.614
20
31.019
30
0
0
VERTEX
8
RASTER
10
98.541
20
30.835
30
0
0
VERTEX
8
RASTER
10
98.541
20
30.535
30
0
0
VERTEX
8
RASTER
10
98.656
20
30.308
30
0
0
VERTEX
8
RASTER
10
98.785
20
30.18
30
0
0
VERTEX
8
RASTER
10
98.926
20
30.107
30
0
0
VERTEX
8
RASTER
10
99.183
20
30.107
30
0
0
VERTEX
8
RASTER
10
99.324
20
30.18
30
0
0
VERTEX
8
RASTER
10
99.482
20
30.364
30
0
0
VERTEX
8
RASTER
10
99.568
20
30.664
30
0
0
VERTEX
8
RASTER
10
99.453
20
31.062
30
0
0
VERTEX
8
RASTER
10
99.281
20
31.233
30
0
0
SEQEND
8
RASTER
0
POLYLINE
8
RASTER
66
1
70
1
0
VERTEX
8
RASTER
10
101.066
20
31.306
30
0
0
VERTEX
8
RASTER
10
100.882
20
31.233
30
0
0
VERTEX
8
RASTER
10
100.754
20
31.104
30
0
0
VERTEX
8
RASTER
10
100.638
20
30.878
30
0
0
VERTEX
8
RASTER
10
100.638
20
30.535
30
0
0
VERTEX
8
RASTER
10
100.754
20
30.266
30
0
0
VERTEX
8
RASTER
10
100.839
20
30.18
30
0
0
VERTEX
8
RASTER
10
100.98
20
30.107
30
0
0
VERTEX
8
RASTER
10
101.237
20
30.107
30
0
0
VERTEX
8
RASTER
10
101.481
20
30.248
30
0
0
VERTEX
8
RASTER
10
101.567
20
30.377
30
0
0
VERTEX
8
RASTER
10
101.622
20
30.535
30
0
0
VERTEX
8
RASTER
10
101.622
20
30.878
30
0
0
VERTEX
8
RASTER
10
101.464
20
31.147
30
0
0
VERTEX
8
RASTER
10
101.28
20
31.263
30
0
0
SEQEND
8
RASTER
0
POLYLINE
8
RASTER
66
1
70
1
0
VERTEX
8
RASTER
10
101.61
20
31.164
30
0
0
VERTEX
8
RASTER
10
101.58
20
31.134
30
0
0
VERTEX
8
RASTER
10
101.708
20
30.92
30
0
0
VERTEX
8
RASTER
10
101.751
20
30.664
30
0
0
VERTEX
8
RASTER
10
101.652
20
30.334
30
0
0
VERTEX
8
RASTER
10
101.438
20
30.12
30
0
0
VERTEX
8
RASTER
10
101.451
20
30.064
30
0
0
VERTEX
8
RASTER
10
101.635
20
30.137
30
0
0
VERTEX
8
RASTER
10
101.764
20
30.266
30
0
0
VERTEX
8
RASTER
10
101.879
20
30.578
30
0
0
VERTEX
8
RASTER
10
101.794
20
30.92
30
0
0
SEQEND
8
RASTER
0
POLYLINE
8
RASTER
66
1
70
1
0
VERTEX
8
RASTER
10
98.528
20
31.079
30
0
0
VERTEX
8
RASTER
10
98.442
20
31.019
30
0
0
VERTEX
8
RASTER
10
98.327
20
30.792
30
0
0
VERTEX
8
RASTER
10
98.327
20
30.45
30
0
0
VERTEX
8
RASTER
10
98.485
20
30.18
30
0
0
VERTEX
8
RASTER
10
98.798
20
30.022
30
0
0
VERTEX
8
RASTER
10
98.811
20
30.077
30
0
0
VERTEX
8
RASTER
10
98.571
20
30.266
30
0
0
VERTEX
8
RASTER
10
98.455
20
30.492
30
0
0
VERTEX
8
RASTER
10
98.455
20
30.878
30
0
0
SEQEND
8
RASTER
0
POLYLINE
8
RASTER
66
1
70
1
0
VERTEX
8
RASTER
10
100.052
20
30.351
30
0
0
VERTEX
8
RASTER
10
100.18
20
30.334
30
0
0
VERTEX
8
RASTER
10
100.308
20
30.206
30
0
0
VERTEX
8
RASTER
10
100.467
20
29.893
30
0
0
VERTEX
8
RASTER
10
100.51
20
29.722
30
0
0
VERTEX
8
RASTER
10
100.437
20
29.581
30
0
0
VERTEX
8
RASTER
10
100.381
20
29.551
30
0
0
VERTEX
8
RASTER
10
100.24
20
29.581
30
0
0
VERTEX
8
RASTER
10
100.082
20
29.722
30
0
0
VERTEX
8
RASTER
10
100.009
20
29.624
30
0
0
VERTEX
8
RASTER
10
99.868
20
29.551
30
0
0
VERTEX
8
RASTER
10
99.752
20
29.564
30
0
0
VERTEX
8
RASTER
10
99.696
20
29.636
30
0
0
VERTEX
8
RASTER
10
99.696
20
29.765
30
0
0
VERTEX
8
RASTER
10
99.782
20
30.022
30
0
0
VERTEX
8
RASTER
10
99.855
20
30.163
30
0
0
SEQEND
8
RASTER
0
POLYLINE
8
RASTER
66
1
70
1
0
VERTEX
8
RASTER
10
100.082
20
30.278
30
0
0
VERTEX
8
RASTER
10
99.94
20
30.12
30
0
0
VERTEX
8
RASTER
10
99.782
20
29.722
30
0
0
VERTEX
8
RASTER
10
99.855
20
29.649
30
0
0
VERTEX
8
RASTER
10
99.94
20
29.692
30
0
0
VERTEX
8
RASTER
10
99.983
20
29.778
30
0
0
VERTEX
8
RASTER
10
100.124
20
29.808
30
0
0
VERTEX
8
RASTER
10
100.338
20
29.636
30
0
0
VERTEX
8
RASTER
10
100.381
20
29.679
30
0
0
VERTEX
8
RASTER
10
100.338
20
29.936
30
0
0
VERTEX
8
RASTER
10
100.223
20
30.163
30
0
0
SEQEND
8
RASTER
0
POLYLINE
8
RASTER
66
1
70
1
0
VERTEX
8
RASTER
10
96.702
20
30.658
30
0
0
VERTEX
8
RASTER
10
100.1
20
27.26
30
0
0
VERTEX
8
RASTER
10
103.498
20
30.658
30
0
0
VERTEX
8
RASTER
10
104.338
20
29.818
30
0
0
VERTEX
8
RASTER
10
100.94
20
26.42
30
0
0
VERTEX
8
RASTER
10
104.338
20
23.022
30
0
0
VERTEX
8
RASTER
10
103.498
20
22.182
30
0
0
VERTEX
8
RASTER
10
100.1
20
25.58
30
0
0
VERTEX
8
RASTER
10
96.702
20
22.182
30
0
0
VERTEX
8
RASTER
10
95.862
20
23.022
30
0
0
VERTEX
8
RASTER
10
99.26
20
26.42
30
0
0
VERTEX
8
RASTER
10
95.862
20
29.818
30
0
0
SEQEND
8
RASTER
0
CIRCLE
8
RASTER
10
104.38
20
22.14
30
0
40
0.737
0
CIRCLE
8
RASTER
10
95.82
20
22.14
30
0
40
0.737
0
CIRCLE
8
RASTER
10
95.82
20
30.7
30
0
40
0.737
0
CIRCLE
8
RASTER
10
104.38
20
30.7
30
0
40
0.737
0
POLYLINE
8
RASTER
66
1
70
1
0
VERTEX
8
RASTER
10
94
20
23.9
30
0
0
VERTEX
8
RASTER
10
94.9
20
23.9
30
0
0
VERTEX
8
RASTER
10
94.9
20
23
30
0
0
VERTEX
8
RASTER
10
94
20
23
30
0
0
SEQEND
8
RASTER
0
POLYLINE
8
RASTER
66
1
70
1
0
VERTEX
8
RASTER
10
95.1
20
23.9
30
0
0
VERTEX
8
RASTER
10
96
20
23.9
30
0
0
VERTEX
8
RASTER
10
96
20
23
30
0
0
VERTEX
8
RASTER
10
95.1
20
23
30
0
0
SEQEND
8
RASTER
0
POLYLINE
8
RASTER
66
1
70
1
0
VERTEX
8
RASTER
10
96.2
20
23.9
30
0
0
VERTEX
8
RASTER
10
97.1
20
23.9
30
0
0
VERTEX
8
RASTER
10
97.1
20
23
30
0
0
VERTEX
8
RASTER
10
96.2
20
23
30
0
0
SEQEND
8
RASTER
0
POLYLINE
8
RASTER
66
1
70
1
0
VERTEX
8
RASTER
10
97.3
20
23.9
30
0
0
VERTEX
8
RASTER
10
98.2
20
23.9
30
0
0
VERTEX
8
RASTER
10
98.2
20
23
30
0
0
VERTEX
8
RASTER
10
97.3
20
23
30
0
0
SEQEND
8
RASTER
0
POLYLINE
8
RASTER
66
1
70
1
0
VERTEX
8
RASTER
10
98.4
20
23.9
30
0
0
VERTEX
8
RASTER
10
99.3
20
23.9
30
0
0
VERTEX
8
RASTER
10
99.3
20
23
30
0
0
VERTEX
8
RASTER
10
98.4
20
23
30
0
0
SEQEND
8
RASTER
0
POLYLINE
8
RASTER
66
1
70
1
0
VERTEX
8
RASTER
10
99.5
20
23.9
30
0
0
VERTEX
8
RASTER
10
100.4
20
23.9
30
0
0
VERTEX
8
RASTER
10
100.4
20
23
30
0
0
VERTEX
8
RASTER
10
99.5
20
23
30
0
0
SEQEND
8
RASTER
0
POLYLINE
8
RASTER
66
1
70
1
0
VERTEX
8
RASTER
10
100.6
20
23.9
30
0
0
VERTEX
8
RASTER
10
101.5
20
23.9
30
0
0
VERTEX
8
RASTER
10
101.5
20
23
30
0
0
VERTEX
8
RASTER
10
100.6
20
23
30
0
0
SEQEND
8
RASTER
0
POLYLINE
8
RASTER
66
1
70
1
0
VERTEX
8
RASTER
10
101.7
20
23.9
30
0
0
VERTEX
8
RASTER
10
102.6
20
23.9
30
0
0
VERTEX
8
RASTER
10
102.6
20
23
30
0
0
VERTEX
8
RASTER
10
101.7
20
23
30
0
0
SEQEND
8
RASTER
0
POLYLINE
8
RASTER
66
1
70
1
0
VERTEX
8
RASTER
10
102.8
20
23.9
30
0
0
VERTEX
8
RASTER
10
103.7
20
23.9
30
0
0
VERTEX
8
RASTER
10
103.7
20
23
30
0
0
VERTEX
8
RASTER
10
102.8
20
23
30
0
0
SEQEND
8
RASTER
0
POLYLINE
8
RASTER
66
1
70
1
0
VERTEX
8
RASTER
10
103.9
20
23.9
30
0
0
VERTEX
8
RASTER
10
104.8
20
23.9
30
0
0
VERTEX
8
RASTER
10
104.8
20
23
30
0
0
VERTEX
8
RASTER
10
103.9
20
23
30
0
0
SEQEND
8
RASTER
0
POLYLINE
8
RASTER
66
1
70
1
0
VERTEX
8
RASTER
10
105
20
23.9
30
0
0
VERTEX
8
RASTER
10
105.9
20
23.9
30
0
0
VERTEX
8
RASTER
10
105.9
20
23
30
0
0
VERTEX
8
RASTER
10
105
20
23
30
0
0
SEQEND
8
RASTER
0
POLYLINE
8
CUT
66
1
70
1
0
VERTEX
8
CUT
10
116.3
20
37
30
0
0
VERTEX
8
CUT
10
118.9
20
37
30
0
0
VERTEX
8
CUT
10
118.9
20
35
30
0
0
VERTEX
8
CUT
10
123.6
20
35
30
0
0
VERTEX
8
CUT
10
123.6
20
24
30
0
0
VERTEX
8
CUT
10
120.8
20
22.4
30
0
0
VERTEX
8
CUT
10
118.9
20
21.6
30
0
0
VERTEX
8
CUT
10
118.9
20
12
30
0
0
VERTEX
8
CUT
10
120.95
20
12
30
0
0
VERTEX
8
CUT
10
120.95
20
6
30
0
0
VERTEX
8
CUT
10
114.25
20
6
30
0
0
VERTEX
8
CUT
10
114.25
20
12
30
0
0
VERTEX
8
CUT
10
116.3
20
12
30
0
0
VERTEX
8
CUT
10
116.3
20
21.6
30
0
0
VERTEX
8
CUT
10
113.1
20
22.4
30
0
0
VERTEX
8
CUT
10
111.6
20
24
30
0
0
VERTEX
8
CUT
10
111.6
20
35
30
0
0
VERTEX
8
CUT
10
116.3
20
35
30
0
0
SEQEND
8
CUT
0
POLYLINE
8
RASTER
66
1
70
1
0
VERTEX
8
RASTER
10
111.6
20
34.4
30
0
0
VERTEX
8
RASTER
10
123.6
20
34.4
30
0
0
VERTEX
8
RASTER
10
123.6
20
33.9
30
0
0
VERTEX
8
RASTER
10
111.6
20
33.9
30
0
0
SEQEND
8
RASTER
0
POLYLINE
8
RASTER
66
1
70
1
0
VERTEX
8
RASTER
10
117.45
20
33.858
30
0
0
VERTEX
8
RASTER
10
117.91
20
33.869
30
0
0
VERTEX
8
RASTER
10
118.236
20
33.797
30
0
0
VERTEX
8
RASTER
10
118.454
20
33.724
30
0
0
VERTEX
8
RASTER
10
118.972
20
33.446
30
0
0
VERTEX
8
RASTER
10
119.37
20
33.047
30
0
0
VERTEX
8
RASTER
10
119.515
20
32.83
30
0
0
VERTEX
8
RASTER
10
119.649
20
32.529
30
0
0
VERTEX
8
RASTER
10
119.685
20
32.348
30
0
0
VERTEX
8
RASTER
10
119.685
20
31.769
30
0
0
VERTEX
8
RASTER
10
119.613
20
31.443
30
0
0
VERTEX
8
RASTER
10
119.757
20
31.153
30
0
0
VERTEX
8
RASTER
10
119.794
20
30.791
30
0
0
VERTEX
8
RASTER
10
119.66
20
30.527
30
0
0
VERTEX
8
RASTER
10
119.602
20
30.44
30
0
0
VERTEX
8
RASTER
10
119.323
20
30.284
30
0
0
VERTEX
8
RASTER
10
118.997
20
30.248
30
0
0
VERTEX
8
RASTER
10
118.816
20
30.32
30
0
0
VERTEX
8
RASTER
10
118.769
20
30.295
30
0
0
VERTEX
8
RASTER
10
118.718
20
29.658
30
0
0
VERTEX
8
RASTER
10
118.49
20
29.487
30
0
0
VERTEX
8
RASTER
10
118.247
20
29.513
30
0
0
VERTEX
8
RASTER
10
118.175
20
29.44
30
0
0
VERTEX
8
RASTER
10
117.947
20
29.342
30
0
0
VERTEX
8
RASTER
10
117.729
20
29.342
30
0
0
VERTEX
8
RASTER
10
117.657
20
29.379
30
0
0
VERTEX
8
RASTER
10
117.222
20
29.342
30
0
0
VERTEX
8
RASTER
10
116.969
20
29.487
30
0
0
VERTEX
8
RASTER
10
116.788
20
29.451
30
0
0
VERTEX
8
RASTER
10
116.596
20
29.513
30
0
0
VERTEX
8
RASTER
10
116.487
20
29.585
30
0
0
VERTEX
8
RASTER
10
116.389
20
29.813
30
0
0
VERTEX
8
RASTER
10
116.462
20
30.139
30
0
0
VERTEX
8
RASTER
10
116.4
20
30.295
30
0
0
VERTEX
8
RASTER
10
116.353
20
30.32
30
0
0
VERTEX
8
RASTER
10
116.172
20
30.248
30
0
0
VERTEX
8
RASTER
10
116.027
20
30.248
30
0
0
VERTEX
8
RASTER
10
115.846
20
30.284
30
0
0
VERTEX
8
RASTER
10
115.654
20
30.382
30
0
0
VERTEX
8
RASTER
10
115.509
20
30.527
30
0
0
VERTEX
8
RASTER
10
115.375
20
30.827
30
0
0
VERTEX
8
RASTER
10
115.412
20
31.117
30
0
0
VERTEX
8
RASTER
10
115.556
20
31.407
30
0
0
VERTEX
8
RASTER
10
115.52
20
31.733
30
0
0
VERTEX
8
RASTER
10
115.484
20
31.805
30
0
0
VERTEX
8
RASTER
10
115.484
20
32.276
30
0
0
VERTEX
8
RASTER
10
115.593
20
32.638
30
0
0
VERTEX
8
RASTER
10
115.763
20
32.975
30
0
0
VERTEX
8
RASTER
10
115.944
20
33.192
30
0
0
VERTEX
8
RASTER
10
116.451
20
33.554
30
0
0
VERTEX
8
RASTER
10
116.933
20
33.761
30
0
0
SEQEND
8
RASTER
0
POLYLINE
8
RASTER
66
1
70
1
0
VERTEX
8
RASTER
10
117.44
20
33.761
30
0
0
VERTEX
8
RASTER
10
117.077
20
33.688
30
0
0
VERTEX
8
RASTER
10
116.632
20
33.518
30
0
0
VERTEX
8
RASTER
10
116.306
20
33.337
30
0
0
VERTEX
8
RASTER
10
115.944
20
33.011
30
0
0
VERTEX
8
RASTER
10
115.799
20
32.794
30
0
0
VERTEX
8
RASTER
10
115.665
20
32.493
30
0
0
VERTEX
8
RASTER
10
115.593
20
32.131
30
0
0
VERTEX
8
RASTER
10
115.593
20
31.95
30
0
0
VERTEX
8
RASTER
10
115.629
20
31.877
30
0
0
VERTEX
8
RASTER
10
115.629
20
31.588
30
0
0
VERTEX
8
RASTER
10
115.69
20
31.562
30
0
0
VERTEX
8
RASTER
10
115.882
20
31.986
30
0
0
VERTEX
8
RASTER
10
115.929
20
32.446
30
0
0
VERTEX
8
RASTER
10
115.955
20
32.421
30
0
0
VERTEX
8
RASTER
10
115.955
20
32.022
30
0
0
VERTEX
8
RASTER
10
115.882
20
31.769
30
0
0
VERTEX
8
RASTER
10
115.556
20
31.189
30
0
0
VERTEX
8
RASTER
10
115.495
20
30.911
30
0
0
VERTEX
8
RASTER
10
115.52
20
30.755
30
0
0
VERTEX
8
RASTER
10
115.582
20
30.635
30
0
0
VERTEX
8
RASTER
10
115.676
20
30.512
30
0
0
VERTEX
8
RASTER
10
115.81
20
30.429
30
0
0
VERTEX
8
RASTER
10
116.063
20
30.356
30
0
0
VERTEX
8
RASTER
10
116.353
20
30.429
30
0
0
VERTEX
8
RASTER
10
116.57
20
30.429
30
0
0
VERTEX
8
RASTER
10
116.69
20
30.331
30
0
0
VERTEX
8
RASTER
10
116.715
20
30.284
30
0
0
VERTEX
8
RASTER
10
116.69
20
30.259
30
0
0
VERTEX
8
RASTER
10
116.509
20
30.346
30
0
0
VERTEX
8
RASTER
10
116.57
20
30.175
30
0
0
VERTEX
8
RASTER
10
116.534
20
30.031
30
0
0
VERTEX
8
RASTER
10
116.534
20
29.777
30
0
0
VERTEX
8
RASTER
10
116.596
20
29.658
30
0
0
VERTEX
8
RASTER
10
116.824
20
29.56
30
0
0
VERTEX
8
RASTER
10
116.958
20
29.607
30
0
0
VERTEX
8
RASTER
10
117.005
20
29.922
30
0
0
VERTEX
8
RASTER
10
117.067
20
29.983
30
0
0
VERTEX
8
RASTER
10
117.088
20
29.534
30
0
0
VERTEX
8
RASTER
10
117.259
20
29.451
30
0
0
VERTEX
8
RASTER
10
117.44
20
29.451
30
0
0
VERTEX
8
RASTER
10
117.548
20
29.524
30
0
0
VERTEX
8
RASTER
10
117.548
20
29.813
30
0
0
VERTEX
8
RASTER
10
117.61
20
29.947
30
0
0
VERTEX
8
RASTER
10
117.657
20
29.813
30
0
0
VERTEX
8
RASTER
10
117.682
20
29.476
30
0
0
VERTEX
8
RASTER
10
117.91
20
29.451
30
0
0
VERTEX
8
RASTER
10
118.139
20
29.549
30
0
0
VERTEX
8
RASTER
10
118.164
20
29.596
30
0
0
VERTEX
8
RASTER
10
118.164
20
29.777
30
0
0
VERTEX
8
RASTER
10
118.128
20
29.849
30
0
0
VERTEX
8
RASTER
10
118.128
20
29.958
30
0
0
VERTEX
8
RASTER
10
118.164
20
29.994
30
0
0
VERTEX
8
RASTER
10
118.236
20
29.849
30
0
0
VERTEX
8
RASTER
10
118.262
20
29.621
30
0
0
VERTEX
8
RASTER
10
118.454
20
29.596
30
0
0
VERTEX
8
RASTER
10
118.609
20
29.694
30
0
0
VERTEX
8
RASTER
10
118.671
20
29.849
30
0
0
VERTEX
8
RASTER
10
118.635
20
29.922
30
0
0
VERTEX
8
RASTER
10
118.635
20
30.248
30
0
0
VERTEX
8
RASTER
10
118.671
20
30.32
30
0
0
VERTEX
8
RASTER
10
118.635
20
30.356
30
0
0
VERTEX
8
RASTER
10
118.465
20
30.259
30
0
0
VERTEX
8
RASTER
10
118.479
20
30.331
30
0
0
VERTEX
8
RASTER
10
118.551
20
30.404
30
0
0
VERTEX
8
RASTER
10
118.816
20
30.429
30
0
0
VERTEX
8
RASTER
10
119.033
20
30.356
30
0
0
VERTEX
8
RASTER
10
119.142
20
30.356
30
0
0
VERTEX
8
RASTER
10
119.457
20
30.476
30
0
0
VERTEX
8
RASTER
10
119.551
20
30.563
30
0
0
VERTEX
8
RASTER
10
119.685
20
30.863
30
0
0
VERTEX
8
RASTER
10
119.685
20
30.972
30
0
0
VERTEX
8
RASTER
10
119.649
20
31.117
30
0
0
VERTEX
8
RASTER
10
119.406
20
31.526
30
0
0
VERTEX
8
RASTER
10
119.25
20
31.914
30
0
0
VERTEX
8
RASTER
10
119.214
20
32.059
30
0
0
VERTEX
8
RASTER
10
119.214
20
32.421
30
0
0
VERTEX
8
RASTER
10
119.225
20
32.446
30
0
0
VERTEX
8
RASTER
10
119.25
20
32.421
30
0
0
VERTEX
8
RASTER
10
119.287
20
32.022
30
0
0
VERTEX
8
RASTER
10
119.493
20
31.577
30
0
0
VERTEX
8
RASTER
10
119.54
20
31.588
30
0
0
VERTEX
8
RASTER
10
119.576
20
32.203
30
0
0
VERTEX
8
RASTER
10
119.504
20
32.529
30
0
0
VERTEX
8
RASTER
10
119.334
20
32.866
30
0
0
VERTEX
8
RASTER
10
119.225
20
33.047
30
0
0
VERTEX
8
RASTER
10
118.935
20
33.337
30
0
0
VERTEX
8
RASTER
10
118.417
20
33.616
30
0
0
VERTEX
8
RASTER
10
118.091
20
33.724
30
0
0
VERTEX
8
RASTER
10
117.91
20
33.761
30
0
0
SEQEND
8
RASTER
0
POLYLINE
8
RASTER
66
1
70
1
0
VERTEX
8
RASTER
10
116.618
20
32.156
30
0
0
VERTEX
8
RASTER
10
116.86
20
32.131
30
0
0
VERTEX
8
RASTER
10
117.016
20
32.033
30
0
0
VERTEX
8
RASTER
10
117.161
20
31.852
30
0
0
VERTEX
8
RASTER
10
117.222
20
31.696
30
0
0
VERTEX
8
RASTER
10
117.222
20
31.37
30
0
0
VERTEX
8
RASTER
10
117.125
20
31.142
30
0
0
VERTEX
8
RASTER
10
116.943
20
30.925
30
0
0
VERTEX
8
RASTER
10
116.668
20
30.802
30
0
0
VERTEX
8
RASTER
10
116.668
20
30.838
30
0
0
VERTEX
8
RASTER
10
116.799
20
30.889
30
0
0
VERTEX
8
RASTER
10
116.886
20
30.961
30
0
0
VERTEX
8
RASTER
10
116.679
20
30.9
30
0
0
VERTEX
8
RASTER
10
116.389
20
30.936
30
0
0
VERTEX
8
RASTER
10
116.161
20
31.07
30
0
0
VERTEX
8
RASTER
10
116.027
20
31.334
30
0
0
VERTEX
8
RASTER
10
116.027
20
31.624
30
0
0
VERTEX
8
RASTER
10
116.125
20
31.852
30
0
0
VERTEX
8
RASTER
10
116.342
20
32.069
30
0
0
SEQEND
8
RASTER
0
POLYLINE
8
RASTER
66
1
70
1
0
VERTEX
8
RASTER
10
118.428
20
32.156
30
0
0
VERTEX
8
RASTER
10
118.562
20
32.167
30
0
0
VERTEX
8
RASTER
10
118.707
20
32.131
30
0
0
VERTEX
8
RASTER
10
118.899
20
32.033
30
0
0
VERTEX
8
RASTER
10
119.008
20
31.925
30
0
0
VERTEX
8
RASTER
10
119.142
20
31.66
30
0
0
VERTEX
8
RASTER
10
119.167
20
31.468
30
0
0
VERTEX
8
RASTER
10
119.142
20
31.298
30
0
0
VERTEX
8
RASTER
10
119.044
20
31.106
30
0
0
VERTEX
8
RASTER
10
118.972
20
31.034
30
0
0
VERTEX
8
RASTER
10
118.635
20
30.9
30
0
0
VERTEX
8
RASTER
10
118.381
20
30.936
30
0
0
VERTEX
8
RASTER
10
118.356
20
30.911
30
0
0
VERTEX
8
RASTER
10
118.479
20
30.853
30
0
0
VERTEX
8
RASTER
10
118.454
20
30.827
30
0
0
VERTEX
8
RASTER
10
118.298
20
30.889
30
0
0
VERTEX
8
RASTER
10
118.175
20
30.983
30
0
0
VERTEX
8
RASTER
10
117.994
20
31.273
30
0
0
VERTEX
8
RASTER
10
117.947
20
31.443
30
0
0
VERTEX
8
RASTER
10
117.947
20
31.66
30
0
0
VERTEX
8
RASTER
10
118.081
20
31.961
30
0
0
VERTEX
8
RASTER
10
118.262
20
32.106
30
0
0
SEQEND
8
RASTER
0
POLYLINE
8
RASTER
66
1
70
1
0
VERTEX
8
RASTER
10
116.715
20
32.059
30
0
0
VERTEX
8
RASTER
10
116.487
20
31.961
30
0
0
VERTEX
8
RASTER
10
116.342
20
31.816
30
0
0
VERTEX
8
RASTER
10
116.281
20
31.66
30
0
0
VERTEX
8
RASTER
10
116.281
20
31.407
30
0
0
VERTEX
8
RASTER
10
116.379
20
31.215
30
0
0
VERTEX
8
RASTER
10
116.487
20
31.106
30
0
0
VERTEX
8
RASTER
10
116.607
20
31.045
30
0
0
VERTEX
8
RASTER
10
116.824
20
31.045
30
0
0
VERTEX
8
RASTER
10
116.943
20
31.106
30
0
0
VERTEX
8
RASTER
10
117.077
20
31.262
30
0
0
VERTEX
8
RASTER
10
117.15
20
31.515
30
0
0
VERTEX
8
RASTER
10
117.052
20
31.852
30
0
0
VERTEX
8
RASTER
10
116.907
20
31.997
30
0
0
SEQEND
8
RASTER
0
POLYLINE
8
RASTER
66
1
70
1
0
VERTEX
8
RASTER
10
118.417
20
32.059
30
0
0
VERTEX
8
RASTER
10
118.262
20
31.997
30
0
0
VERTEX
8
RASTER
10
118.153
20
31.888
30
0
0
VERTEX
8
RASTER
10
118.055
20
31.696
30
0
0
VERTEX
8
RASTER
10
118.055
20
31.407
30
0
0
VERTEX
8
RASTER
10
118.153
20
31.179
30
0
0
VERTEX
8
RASTER
10
118.225
20
31.106
30
0
0
VERTEX
8
RASTER
10
118.345
20
31.045
30
0
0
VERTEX
8
RASTER
10
118.562
20
31.045
30
0
0
VERTEX
8
RASTER
10
118.769
20
31.164
30
0
0
VERTEX
8
RASTER
10
118.841
20
31.273
30
0
0
VERTEX
8
RASTER
10
118.888
20
31.407
30
0
0
VERTEX
8
RASTER
10
118.888
20
31.696
30
0
0
VERTEX
8
RASTER
10
118.754
20
31.925
30
0
0
VERTEX
8
RASTER
10
118.598
20
32.022
30
0
0
SEQEND
8
RASTER
0
POLYLINE
8
RASTER
66
1
70
1
0
VERTEX
8
RASTER
10
118.877
20
31.939
30
0
0
VERTEX
8
RASTER
10
118.852
20
31.914
30
0
0
VERTEX
8
RASTER
10
118.961
20
31.733
30
0
0
VERTEX
8
RASTER
10
118.997
20
31.515
30
0
0
VERTEX
8
RASTER
10
118.914
20
31.236
30
0
0
VERTEX
8
RASTER
10
118.732
20
31.055
30
0
0
VERTEX
8
RASTER
10
118.743
20
31.008
30
0
0
VERTEX
8
RASTER
10
118.899
20
31.07
30
0
0
VERTEX
8
RASTER
10
119.008
20
31.179
30
0
0
VERTEX
8
RASTER
10
119.106
20
31.443
30
0
0
VERTEX
8
RASTER
10
119.033
20
31.733
30
0
0
SEQEND
8
RASTER
0
POLYLINE
8
RASTER
66
1
70
1
0
VERTEX
8
RASTER
10
116.27
20
31.867
30
0
0
VERTEX
8
RASTER
10
116.197
20
31.816
30
0
0
VERTEX
8
RASTER
10
116.1
20
31.624
30
0
0
VERTEX
8
RASTER
10
116.1
20
31.334
30
0
0
VERTEX
8
RASTER
10
116.234
20
31.106
30
0
0
VERTEX
8
RASTER
10
116.498
20
30.972
30
0
0
VERTEX
8
RASTER
10
116.509
20
31.019
30
0
0
VERTEX
8
RASTER
10
116.306
20
31.179
30
0
0
VERTEX
8
RASTER
10
116.208
20
31.37
30
0
0
VERTEX
8
RASTER
10
116.208
20
31.696
30
0
0
SEQEND
8
RASTER
0
POLYLINE
8
RASTER
66
1
70
1
0
VERTEX
8
RASTER
10
117.559
20
31.251
30
0
0
VERTEX
8
RASTER
10
117.668
20
31.236
30
0
0
VERTEX
8
RASTER
10
117.776
20
31.128
30
0
0
VERTEX
8
RASTER
10
117.91
20
30.863
30
0
0
VERTEX
8
RASTER
10
117.947
20
30.719
30
0
0
VERTEX
8
RASTER
10
117.885
20
30.599
30
0
0
VERTEX
8
RASTER
10
117.838
20
30.574
30
0
0
VERTEX
8
RASTER
10
117.718
20
30.599
30
0
0
VERTEX
8
RASTER
10
117.584
20
30.719
30
0
0
VERTEX
8
RASTER
10
117.523
20
30.635
30
0
0
VERTEX
8
RASTER
10
117.403
20
30.574
30
0
0
VERTEX
8
RASTER
10
117.306
20
30.585
30
0
0
VERTEX
8
RASTER
10
117.259
20
30.646
30
0
0
VERTEX
8
RASTER
10
117.259
20
30.755
30
0
0
VERTEX
8
RASTER
10
117.331
20
30.972
30
0
0
VERTEX
8
RASTER
10
117.393
20
31.092
30
0
0
SEQEND
8
RASTER
0
POLYLINE
8
RASTER
66
1
70
1
0
VERTEX
8
RASTER
10
117.584
20
31.189
30
0
0
VERTEX
8
RASTER
10
117.465
20
31.055
30
0
0
VERTEX
8
RASTER
10
117.331
20
30.719
30
0
0
VERTEX
8
RASTER
10
117.393
20
30.657
30
0
0
VERTEX
8
RASTER
10
117.465
20
30.693
30
0
0
VERTEX
8
RASTER
10
117.501
20
30.766
30
0
0
VERTEX
8
RASTER
10
117.621
20
30.791
30
0
0
VERTEX
8
RASTER
10
117.802
20
30.646
30
0
0
VERTEX
8
RASTER
10
117.838
20
30.682
30
0
0
VERTEX
8
RASTER
10
117.802
20
30.9
30
0
0
VERTEX
8
RASTER
10
117.704
20
31.092
30
0
0
SEQEND
8
RASTER
0
POLYLINE
8
RASTER
66
1
70
1
0
VERTEX
8
RASTER
10
114.881
20
31.131
30
0
0
VERTEX
8
RASTER
10
117.6
20
28.412
30
0
0
VERTEX
8
RASTER
10
120.319
20
31.131
30
0
0
VERTEX
8
RASTER
10
120.991
20
30.459
30
0
0
VERTEX
8
RASTER
10
118.272
20
27.74
30
0
0
VERTEX
8
RASTER
10
120.991
20
25.021
30
0
0
VERTEX
8
RASTER
10
120.319
20
24.349
30
0
0
VERTEX
8
RASTER
10
117.6
20
27.068
30
0
0
VERTEX
8
RASTER
10
114.881
20
24.349
30
0
0
VERTEX
8
RASTER
10
114.209
20
25.021
30
0
0
VERTEX
8
RASTER
10
116.928
20
27.74
30
0
0
VERTEX
8
RASTER
10
114.209
20
30.459
30
0
0
SEQEND
8
RASTER
0
CIRCLE
8
RASTER
10
121.024
20
24.316
30
0
40
0.589
0
CIRCLE
8
RASTER
10
114.176
20
24.316
30
0
40
0.589
0
CIRCLE
8
RASTER
10
114.176
20
31.164
30
0
40
0.589
0
CIRCLE
8
RASTER
10
121.024
20
31.164
30
0
40
0.589
0
POLYLINE
8
RASTER
66
1
70
1
0
VERTEX
8
RASTER
10
113
20
25.9
30
0
0
VERTEX
8
RASTER
10
113.9
20
25.9
30
0
0
VERTEX
8
RASTER
10
113.9
20
25
30
0
0
VERTEX
8
RASTER
10
113
20
25
30
0
0
SEQEND
8
RASTER
0
POLYLINE
8
RASTER
66
1
70
1
0
VERTEX
8
RASTER
10
114.1
20
25.9
30
0
0
VERTEX
8
RASTER
10
115
20
25.9
30
0
0
VERTEX
8
RASTER
10
115
20
25
30
0
0
VERTEX
8
RASTER
10
114.1
20
25
30
0
0
SEQEND
8
RASTER
0
POLYLINE
8
RASTER
66
1
70
1
0
VERTEX
8
RASTER
10
115.2
20
25.9
30
0
0
VERTEX
8
RASTER
10
116.1
20
25.9
30
0
0
VERTEX
8
RASTER
10
116.1
20
25
30
0
0
VERTEX
8
RASTER
10
115.2
20
25
30
0
0
SEQEND
8
RASTER
0
POLYLINE
8
RASTER
66
1
70
1
0
VERTEX
8
RASTER
10
116.3
20
25.9
30
0
0
VERTEX
8
RASTER
10
117.2
20
25.9
30
0
0
VERTEX
8
RASTER
10
117.2
20
25
30
0
0
VERTEX
8
RASTER
10
116.3
20
25
30
0
0
SEQEND
8
RASTER
0
POLYLINE
8
RASTER
66
1
70
1
0
VERTEX
8
RASTER
10
117.4
20
25.9
30
0
0
VERTEX
8
RASTER
10
118.3
20
25.9
30
0
0
VERTEX
8
RASTER
10
118.3
20
25
30
0
0
VERTEX
8
RASTER
10
117.4
20
25
30
0
0
SEQEND
8
RASTER
0
POLYLINE
8
RASTER
66
1
70
1
0
VERTEX
8
RASTER
10
118.5
20
25.9
30
0
0
VERTEX
8
RASTER
10
119.4
20
25.9
30
0
0
VERTEX
8
RASTER
10
119.4
20
25
30
0
0
VERTEX
8
RASTER
10
118.5
20
25
30
0
0
SEQEND
8
RASTER
0
POLYLINE
8
RASTER
66
1
70
1
0
VERTEX
8
RASTER
10
119.6
20
25.9
30
0
0
VERTEX
8
RASTER
10
120.5
20
25.9
30
0
0
VERTEX
8
RASTER
10
120.5
20
25
30
0
0
VERTEX
8
RASTER
10
119.6
20
25
30
0
0
SEQEND
8
RASTER
0
POLYLINE
8
RASTER
66
1
70
1
0
VERTEX
8
RASTER
10
120.7
20
25.9
30
0
0
VERTEX
8
RASTER
10
121.6
20
25.9
30
0
0
VERTEX
8
RASTER
10
121.6
20
25
30
0
0
VERTEX
8
RASTER
10
120.7
20
25
30
0
0
SEQEND
8
RASTER
0
POLYLINE
8
CUT
66
1
70
1
0
VERTEX
8
CUT
10
129.4
20
37
30
0
0
VERTEX
8
CUT
10
140.4
20
37
30
0
0
VERTEX
8
CUT
10
142.019
20
36.914
30
0
0
VERTEX
8
CUT
10
143.509
20
36.66
30
0
0
VERTEX
8
CUT
10
144.882
20
36.241
30
0
0
VERTEX
8
CUT
10
146.15
20
35.66
30
0
0
VERTEX
8
CUT
10
147.324
20
34.922
30
0
0
VERTEX
8
CUT
10
148.416
20
34.03
30
0
0
VERTEX
8
CUT
10
149.437
20
32.988
30
0
0
VERTEX
8
CUT
10
150.4
20
31.8
30
0
0
VERTEX
8
CUT
10
149.437
20
30.612
30
0
0
VERTEX
8
CUT
10
148.416
20
29.57
30
0
0
VERTEX
8
CUT
10
147.324
20
28.678
30
0
0
VERTEX
8
CUT
10
146.15
20
27.94
30
0
0
VERTEX
8
CUT
10
144.882
20
27.359
30
0
0
VERTEX
8
CUT
10
143.509
20
26.94
30
0
0
VERTEX
8
CUT
10
142.019
20
26.686
30
0
0
VERTEX
8
CUT
10
140.4
20
26.6
30
0
0
VERTEX
8
CUT
10
129.4
20
26.6
30
0
0
VERTEX
8
CUT
10
128.612
20
27.047
30
0
0
VERTEX
8
CUT
10
128.05
20
28.225
30
0
0
VERTEX
8
CUT
10
127.712
20
29.891
30
0
0
VERTEX
8
CUT
10
127.6
20
31.8
30
0
0
VERTEX
8
CUT
10
127.712
20
33.709
30
0
0
VERTEX
8
CUT
10
128.05
20
35.375
30
0
0
VERTEX
8
CUT
10
128.612
20
36.553
30
0
0
VERTEX
8
CUT
10
129.4
20
37
30
0
0
SEQEND
8
CUT
0
POLYLINE
8
CUT
66
1
70
1
0
VERTEX
8
CUT
10
132.3
20
35.3
30
0
0
VERTEX
8
CUT
10
135.5
20
35.3
30
0
0
VERTEX
8
CUT
10
135.5
20
28.3
30
0
0
VERTEX
8
CUT
10
132.3
20
28.3
30
0
0
SEQEND
8
CUT
0
POLYLINE
8
CUT
66
1
70
1
0
VERTEX
8
CUT
10
140.3
20
35.3
30
0
0
VERTEX
8
CUT
10
143.5
20
35.3
30
0
0
VERTEX
8
CUT
10
143.5
20
28.3
30
0
0
VERTEX
8
CUT
10
140.3
20
28.3
30
0
0
SEQEND
8
CUT
0
POLYLINE
8
RASTER
66
1
70
1
0
VERTEX
8
RASTER
10
129.6
20
35.02
30
0
0
VERTEX
8
RASTER
10
146.1
20
35.02
30
0
0
VERTEX
8
RASTER
10
146.1
20
34.58
30
0
0
VERTEX
8
RASTER
10
129.6
20
34.58
30
0
0
SEQEND
8
RASTER
0
POLYLINE
8
RASTER
66
1
70
1
0
VERTEX
8
RASTER
10
129.6
20
32.02
30
0
0
VERTEX
8
RASTER
10
146.1
20
32.02
30
0
0
VERTEX
8
RASTER
10
146.1
20
31.58
30
0
0
VERTEX
8
RASTER
10
129.6
20
31.58
30
0
0
SEQEND
8
RASTER
0
POLYLINE
8
RASTER
66
1
70
1
0
VERTEX
8
RASTER
10
129.6
20
29.02
30
0
0
VERTEX
8
RASTER
10
146.1
20
29.02
30
0
0
VERTEX
8
RASTER
10
146.1
20
28.58
30
0
0
VERTEX
8
RASTER
10
129.6
20
28.58
30
0
0
SEQEND
8
RASTER
0
POLYLINE
8
RASTER
66
1
70
1
0
VERTEX
8
RASTER
10
128
20
32.1
30
0
0
VERTEX
8
RASTER
10
129.6
20
32.1
30
0
0
VERTEX
8
RASTER
10
129.6
20
31.5
30
0
0
VERTEX
8
RASTER
10
128
20
31.5
30
0
0
SEQEND
8
RASTER
0
POLYLINE
8
CUT
66
1
70
1
0
VERTEX
8
CUT
10
160.6
20
37
30
0
0
VERTEX
8
CUT
10
163.2
20
37
30
0
0
VERTEX
8
CUT
10
163.2
20
35
30
0
0
VERTEX
8
CUT
10
169.4
20
35
30
0
0
VERTEX
8
CUT
10
169.4
20
22
30
0
0
VERTEX
8
CUT
10
166.6
20
20.4
30
0
0
VERTEX
8
CUT
10
163.2
20
19.6
30
0
0
VERTEX
8
CUT
10
163.2
20
10
30
0
0
VERTEX
8
CUT
10
165.25
20
10
30
0
0
VERTEX
8
CUT
10
165.25
20
4
30
0
0
VERTEX
8
CUT
10
158.55
20
4
30
0
0
VERTEX
8
CUT
10
158.55
20
10
30
0
0
VERTEX
8
CUT
10
160.6
20
10
30
0
0
VERTEX
8
CUT
10
160.6
20
19.6
30
0
0
VERTEX
8
CUT
10
155.9
20
20.4
30
0
0
VERTEX
8
CUT
10
154.4
20
22
30
0
0
VERTEX
8
CUT
10
154.4
20
35
30
0
0
VERTEX
8
CUT
10
160.6
20
35
30
0
0
SEQEND
8
CUT
0
POLYLINE
8
RASTER
66
1
70
1
0
VERTEX
8
RASTER
10
154.4
20
34.4
30
0
0
VERTEX
8
RASTER
10
169.4
20
34.4
30
0
0
VERTEX
8
RASTER
10
169.4
20
33.9
30
0
0
VERTEX
8
RASTER
10
154.4
20
33.9
30
0
0
SEQEND
8
RASTER
0
POLYLINE
8
RASTER
66
1
70
1
0
VERTEX
8
RASTER
10
161.723
20
33.433
30
0
0
VERTEX
8
RASTER
10
162.267
20
33.446
30
0
0
VERTEX
8
RASTER
10
162.652
20
33.36
30
0
0
VERTEX
8
RASTER
10
162.909
20
33.274
30
0
0
VERTEX
8
RASTER
10
163.521
20
32.945
30
0
0
VERTEX
8
RASTER
10
163.992
20
32.474
30
0
0
VERTEX
8
RASTER
10
164.163
20
32.217
30
0
0
VERTEX
8
RASTER
10
164.321
20
31.862
30
0
0
VERTEX
8
RASTER
10
164.364
20
31.648
30
0
0
VERTEX
8
RASTER
10
164.364
20
30.963
30
0
0
VERTEX
8
RASTER
10
164.278
20
30.578
30
0
0
VERTEX
8
RASTER
10
164.45
20
30.236
30
0
0
VERTEX
8
RASTER
10
164.492
20
29.808
30
0
0
VERTEX
8
RASTER
10
164.334
20
29.495
30
0
0
VERTEX
8
RASTER
10
164.266
20
29.392
30
0
0
VERTEX
8
RASTER
10
163.936
20
29.208
30
0
0
VERTEX
8
RASTER
10
163.551
20
29.166
30
0
0
VERTEX
8
RASTER
10
163.337
20
29.251
30
0
0
VERTEX
8
RASTER
10
163.281
20
29.221
30
0
0
VERTEX
8
RASTER
10
163.221
20
28.468
30
0
0
VERTEX
8
RASTER
10
162.952
20
28.267
30
0
0
VERTEX
8
RASTER
10
162.665
20
28.297
30
0
0
VERTEX
8
RASTER
10
162.579
20
28.211
30
0
0
VERTEX
8
RASTER
10
162.31
20
28.096
30
0
0
VERTEX
8
RASTER
10
162.053
20
28.096
30
0
0
VERTEX
8
RASTER
10
161.967
20
28.138
30
0
0
VERTEX
8
RASTER
10
161.454
20
28.096
30
0
0
VERTEX
8
RASTER
10
161.154
20
28.267
30
0
0
VERTEX
8
RASTER
10
160.94
20
28.224
30
0
0
VERTEX
8
RASTER
10
160.713
20
28.297
30
0
0
VERTEX
8
RASTER
10
160.585
20
28.382
30
0
0
VERTEX
8
RASTER
10
160.469
20
28.652
30
0
0
VERTEX
8
RASTER
10
160.555
20
29.037
30
0
0
VERTEX
8
RASTER
10
160.482
20
29.221
30
0
0
VERTEX
8
RASTER
10
160.426
20
29.251
30
0
0
VERTEX
8
RASTER
10
160.212
20
29.166
30
0
0
VERTEX
8
RASTER
10
160.041
20
29.166
30
0
0
VERTEX
8
RASTER
10
159.827
20
29.208
30
0
0
VERTEX
8
RASTER
10
159.6
20
29.324
30
0
0
VERTEX
8
RASTER
10
159.429
20
29.495
30
0
0
VERTEX
8
RASTER
10
159.271
20
29.85
30
0
0
VERTEX
8
RASTER
10
159.314
20
30.193
30
0
0
VERTEX
8
RASTER
10
159.485
20
30.535
30
0
0
VERTEX
8
RASTER
10
159.442
20
30.92
30
0
0
VERTEX
8
RASTER
10
159.399
20
31.006
30
0
0
VERTEX
8
RASTER
10
159.399
20
31.562
30
0
0
VERTEX
8
RASTER
10
159.528
20
31.99
30
0
0
VERTEX
8
RASTER
10
159.729
20
32.388
30
0
0
VERTEX
8
RASTER
10
159.943
20
32.645
30
0
0
VERTEX
8
RASTER
10
160.542
20
33.073
30
0
0
VERTEX
8
RASTER
10
161.111
20
33.317
30
0
0
SEQEND
8
RASTER
0
POLYLINE
8
RASTER
66
1
70
1
0
VERTEX
8
RASTER
10
161.71
20
33.317
30
0
0
VERTEX
8
RASTER
10
161.282
20
33.232
30
0
0
VERTEX
8
RASTER
10
160.756
20
33.03
30
0
0
VERTEX
8
RASTER
10
160.371
20
32.816
30
0
0
VERTEX
8
RASTER
10
159.943
20
32.431
30
0
0
VERTEX
8
RASTER
10
159.772
20
32.174
30
0
0
VERTEX
8
RASTER
10
159.613
20
31.819
30
0
0
VERTEX
8
RASTER
10
159.528
20
31.391
30
0
0
VERTEX
8
RASTER
10
159.528
20
31.177
30
0
0
VERTEX
8
RASTER
10
159.57
20
31.092
30
0
0
VERTEX
8
RASTER
10
159.57
20
30.749
30
0
0
VERTEX
8
RASTER
10
159.643
20
30.719
30
0
0
VERTEX
8
RASTER
10
159.87
20
31.22
30
0
0
VERTEX
8
RASTER
10
159.926
20
31.764
30
0
0
VERTEX
8
RASTER
10
159.956
20
31.734
30
0
0
VERTEX
8
RASTER
10
159.956
20
31.263
30
0
0
VERTEX
8
RASTER
10
159.87
20
30.963
30
0
0
VERTEX
8
RASTER
10
159.485
20
30.278
30
0
0
VERTEX
8
RASTER
10
159.412
20
29.949
30
0
0
VERTEX
8
RASTER
10
159.442
20
29.765
30
0
0
VERTEX
8
RASTER
10
159.515
20
29.624
30
0
0
VERTEX
8
RASTER
10
159.626
20
29.478
30
0
0
VERTEX
8
RASTER
10
159.784
20
29.38
30
0
0
VERTEX
8
RASTER
10
160.084
20
29.294
30
0
0
VERTEX
8
RASTER
10
160.426
20
29.38
30
0
0
VERTEX
8
RASTER
10
160.683
20
29.38
30
0
0
VERTEX
8
RASTER
10
160.825
20
29.264
30
0
0
VERTEX
8
RASTER
10
160.854
20
29.208
30
0
0
VERTEX
8
RASTER
10
160.825
20
29.178
30
0
0
VERTEX
8
RASTER
10
160.611
20
29.281
30
0
0
VERTEX
8
RASTER
10
160.683
20
29.08
30
0
0
VERTEX
8
RASTER
10
160.64
20
28.909
30
0
0
VERTEX
8
RASTER
10
160.64
20
28.609
30
0
0
VERTEX
8
RASTER
10
160.713
20
28.468
30
0
0
VERTEX
8
RASTER
10
160.983
20
28.352
30
0
0
VERTEX
8
RASTER
10
161.141
20
28.408
30
0
0
VERTEX
8
RASTER
10
161.197
20
28.78
30
0
0
VERTEX
8
RASTER
10
161.27
20
28.853
30
0
0
VERTEX
8
RASTER
10
161.295
20
28.322
30
0
0
VERTEX
8
RASTER
10
161.496
20
28.224
30
0
0
VERTEX
8
RASTER
10
161.71
20
28.224
30
0
0
VERTEX
8
RASTER
10
161.839
20
28.31
30
0
0
VERTEX
8
RASTER
10
161.839
20
28.652
30
0
0
VERTEX
8
RASTER
10
161.912
20
28.81
30
0
0
VERTEX
8
RASTER
10
161.967
20
28.652
30
0
0
VERTEX
8
RASTER
10
161.997
20
28.254
30
0
0
VERTEX
8
RASTER
10
162.267
20
28.224
30
0
0
VERTEX
8
RASTER
10
162.536
20
28.34
30
0
0
VERTEX
8
RASTER
10
162.566
20
28.395
30
0
0
VERTEX
8
RASTER
10
162.566
20
28.609
30
0
0
VERTEX
8
RASTER
10
162.524
20
28.695
30
0
0
VERTEX
8
RASTER
10
162.524
20
28.823
30
0
0
VERTEX
8
RASTER
10
162.566
20
28.866
30
0
0
VERTEX
8
RASTER
10
162.652
20
28.695
30
0
0
VERTEX
8
RASTER
10
162.682
20
28.425
30
0
0
VERTEX
8
RASTER
10
162.909
20
28.395
30
0
0
VERTEX
8
RASTER
10
163.093
20
28.511
30
0
0
VERTEX
8
RASTER
10
163.166
20
28.695
30
0
0
VERTEX
8
RASTER
10
163.123
20
28.78
30
0
0
VERTEX
8
RASTER
10
163.123
20
29.166
30
0
0
VERTEX
8
RASTER
10
163.166
20
29.251
30
0
0
VERTEX
8
RASTER
10
163.123
20
29.294
30
0
0
VERTEX
8
RASTER
10
162.922
20
29.178
30
0
0
VERTEX
8
RASTER
10
162.939
20
29.264
30
0
0
VERTEX
8
RASTER
10
163.024
20
29.35
30
0
0
VERTEX
8
RASTER
10
163.337
20
29.38
30
0
0
VERTEX
8
RASTER
10
163.594
20
29.294
30
0
0
VERTEX
8
RASTER
10
163.722
20
29.294
30
0
0
VERTEX
8
RASTER
10
164.094
20
29.435
30
0
0
VERTEX
8
RASTER
10
164.206
20
29.538
30
0
0
VERTEX
8
RASTER
10
164.364
20
29.893
30
0
0
VERTEX
8
RASTER
10
164.364
20
30.022
30
0
0
VERTEX
8
RASTER
10
164.321
20
30.193
30
0
0
VERTEX
8
RASTER
10
164.034
20
30.676
30
0
0
VERTEX
8
RASTER
10
163.85
20
31.134
30
0
0
VERTEX
8
RASTER
10
163.808
20
31.306
30
0
0
VERTEX
8
RASTER
10
163.808
20
31.734
30
0
0
VERTEX
8
RASTER
10
163.82
20
31.764
30
0
0
VERTEX
8
RASTER
10
163.85
20
31.734
30
0
0
VERTEX
8
RASTER
10
163.893
20
31.263
30
0
0
VERTEX
8
RASTER
10
164.137
20
30.736
30
0
0
VERTEX
8
RASTER
10
164.193
20
30.749
30
0
0
VERTEX
8
RASTER
10
164.236
20
31.477
30
0
0
VERTEX
8
RASTER
10
164.15
20
31.862
30
0
0
VERTEX
8
RASTER
10
163.949
20
32.26
30
0
0
VERTEX
8
RASTER
10
163.82
20
32.474
30
0
0
VERTEX
8
RASTER
10
163.478
20
32.816
30
0
0
VERTEX
8
RASTER
10
162.866
20
33.146
30
0
0
VERTEX
8
RASTER
10
162.481
20
33.274
30
0
0
VERTEX
8
RASTER
10
162.267
20
33.317
30
0
0
SEQEND
8
RASTER
0
POLYLINE
8
RASTER
66
1
70
1
0
VERTEX
8
RASTER
10
160.739
20
31.421
30
0
0
VERTEX
8
RASTER
10
161.026
20
31.391
30
0
0
VERTEX
8
RASTER
10
161.21
20
31.276
30
0
0
VERTEX
8
RASTER
10
161.381
20
31.062
30
0
0
VERTEX
8
RASTER
10
161.454
20
30.878
30
0
0
VERTEX
8
RASTER
10
161.454
20
30.492
30
0
0
VERTEX
8
RASTER
10
161.338
20
30.223
30
0
0
VERTEX
8
RASTER
10
161.124
20
29.966
30
0
0
VERTEX
8
RASTER
10
160.799
20
29.82
30
0
0
VERTEX
8
RASTER
10
160.799
20
29.863
30
0
0
VERTEX
8
RASTER
10
160.953
20
29.923
30
0
0
VERTEX
8
RASTER
10
161.056
20
30.009
30
0
0
VERTEX
8
RASTER
10
160.812
20
29.936
30
0
0
VERTEX
8
RASTER
10
160.469
20
29.979
30
0
0
VERTEX
8
RASTER
10
160.2
20
30.137
30
0
0
VERTEX
8
RASTER
10
160.041
20
30.45
30
0
0
VERTEX
8
RASTER
10
160.041
20
30.792
30
0
0
VERTEX
8
RASTER
10
160.157
20
31.062
30
0
0
VERTEX
8
RASTER
10
160.414
20
31.318
30
0
0
SEQEND
8
RASTER
0
POLYLINE
8
RASTER
66
1
70
1
0
VERTEX
8
RASTER
10
162.879
20
31.421
30
0
0
VERTEX
8
RASTER
10
163.037
20
31.434
30
0
0
VERTEX
8
RASTER
10
163.208
20
31.391
30
0
0
VERTEX
8
RASTER
10
163.435
20
31.276
30
0
0
VERTEX
8
RASTER
10
163.564
20
31.147
30
0
0
VERTEX
8
RASTER
10
163.722
20
30.835
30
0
0
VERTEX
8
RASTER
10
163.752
20
30.608
30
0
0
VERTEX
8
RASTER
10
163.722
20
30.407
30
0
0
VERTEX
8
RASTER
10
163.606
20
30.18
30
0
0
VERTEX
8
RASTER
10
163.521
20
30.094
30
0
0
VERTEX
8
RASTER
10
163.123
20
29.936
30
0
0
VERTEX
8
RASTER
10
162.823
20
29.979
30
0
0
VERTEX
8
RASTER
10
162.793
20
29.949
30
0
0
VERTEX
8
RASTER
10
162.939
20
29.88
30
0
0
VERTEX
8
RASTER
10
162.909
20
29.85
30
0
0
VERTEX
8
RASTER
10
162.725
20
29.923
30
0
0
VERTEX
8
RASTER
10
162.579
20
30.034
30
0
0
VERTEX
8
RASTER
10
162.365
20
30.377
30
0
0
VERTEX
8
RASTER
10
162.31
20
30.578
30
0
0
VERTEX
8
RASTER
10
162.31
20
30.835
30
0
0
VERTEX
8
RASTER
10
162.468
20
31.19
30
0
0
VERTEX
8
RASTER
10
162.682
20
31.361
30
0
0
SEQEND
8
RASTER
0
POLYLINE
8
RASTER
66
1
70
1
0
VERTEX
8
RASTER
10
160.854
20
31.306
30
0
0
VERTEX
8
RASTER
10
160.585
20
31.19
30
0
0
VERTEX
8
RASTER
10
160.414
20
31.019
30
0
0
VERTEX
8
RASTER
10
160.341
20
30.835
30
0
0
VERTEX
8
RASTER
10
160.341
20
30.535
30
0
0
VERTEX
8
RASTER
10
160.456
20
30.308
30
0
0
VERTEX
8
RASTER
10
160.585
20
30.18
30
0
0
VERTEX
8
RASTER
10
160.726
20
30.107
30
0
0
VERTEX
8
RASTER
10
160.983
20
30.107
30
0
0
VERTEX
8
RASTER
10
161.124
20
30.18
30
0
0
VERTEX
8
RASTER
10
161.282
20
30.364
30
0
0
VERTEX
8
RASTER
10
161.368
20
30.664
30
0
0
VERTEX
8
RASTER
10
161.253
20
31.062
30
0
0
VERTEX
8
RASTER
10
161.081
20
31.233
30
0
0
SEQEND
8
RASTER
0
POLYLINE
8
RASTER
66
1
70
1
0
VERTEX
8
RASTER
10
162.866
20
31.306
30
0
0
VERTEX
8
RASTER
10
162.682
20
31.233
30
0
0
VERTEX
8
RASTER
10
162.554
20
31.104
30
0
0
VERTEX
8
RASTER
10
162.438
20
30.878
30
0
0
VERTEX
8
RASTER
10
162.438
20
30.535
30
0
0
VERTEX
8
RASTER
10
162.554
20
30.266
30
0
0
VERTEX
8
RASTER
10
162.639
20
30.18
30
0
0
VERTEX
8
RASTER
10
162.78
20
30.107
30
0
0
VERTEX
8
RASTER
10
163.037
20
30.107
30
0
0
VERTEX
8
RASTER
10
163.281
20
30.248
30
0
0
VERTEX
8
RASTER
10
163.367
20
30.377
30
0
0
VERTEX
8
RASTER
10
163.422
20
30.535
30
0
0
VERTEX
8
RASTER
10
163.422
20
30.878
30
0
0
VERTEX
8
RASTER
10
163.264
20
31.147
30
0
0
VERTEX
8
RASTER
10
163.08
20
31.263
30
0
0
SEQEND
8
RASTER
0
POLYLINE
8
RASTER
66
1
70
1
0
VERTEX
8
RASTER
10
163.41
20
31.164
30
0
0
VERTEX
8
RASTER
10
163.38
20
31.134
30
0
0
VERTEX
8
RASTER
10
163.508
20
30.92
30
0
0
VERTEX
8
RASTER
10
163.551
20
30.664
30
0
0
VERTEX
8
RASTER
10
163.452
20
30.334
30
0
0
VERTEX
8
RASTER
10
163.238
20
30.12
30
0
0
VERTEX
8
RASTER
10
163.251
20
30.064
30
0
0
VERTEX
8
RASTER
10
163.435
20
30.137
30
0
0
VERTEX
8
RASTER
10
163.564
20
30.266
30
0
0
VERTEX
8
RASTER
10
163.679
20
30.578
30
0
0
VERTEX
8
RASTER
10
163.594
20
30.92
30
0
0
SEQEND
8
RASTER
0
POLYLINE
8
RASTER
66
1
70
1
0
VERTEX
8
RASTER
10
160.328
20
31.079
30
0
0
VERTEX
8
RASTER
10
160.242
20
31.019
30
0
0
VERTEX
8
RASTER
10
160.127
20
30.792
30
0
0
VERTEX
8
RASTER
10
160.127
20
30.45
30
0
0
VERTEX
8
RASTER
10
160.285
20
30.18
30
0
0
VERTEX
8
RASTER
10
160.598
20
30.022
30
0
0
VERTEX
8
RASTER
10
160.611
20
30.077
30
0
0
VERTEX
8
RASTER
10
160.371
20
30.266
30
0
0
VERTEX
8
RASTER
10
160.255
20
30.492
30
0
0
VERTEX
8
RASTER
10
160.255
20
30.878
30
0
0
SEQEND
8
RASTER
0
POLYLINE
8
RASTER
66
1
70
1
0
VERTEX
8
RASTER
10
161.852
20
30.351
30
0
0
VERTEX
8
RASTER
10
161.98
20
30.334
30
0
0
VERTEX
8
RASTER
10
162.108
20
30.206
30
0
0
VERTEX
8
RASTER
10
162.267
20
29.893
30
0
0
VERTEX
8
RASTER
10
162.31
20
29.722
30
0
0
VERTEX
8
RASTER
10
162.237
20
29.581
30
0
0
VERTEX
8
RASTER
10
162.181
20
29.551
30
0
0
VERTEX
8
RASTER
10
162.04
20
29.581
30
0
0
VERTEX
8
RASTER
10
161.882
20
29.722
30
0
0
VERTEX
8
RASTER
10
161.809
20
29.624
30
0
0
VERTEX
8
RASTER
10
161.668
20
29.551
30
0
0
VERTEX
8
RASTER
10
161.552
20
29.564
30
0
0
VERTEX
8
RASTER
10
161.496
20
29.636
30
0
0
VERTEX
8
RASTER
10
161.496
20
29.765
30
0
0
VERTEX
8
RASTER
10
161.582
20
30.022
30
0
0
VERTEX
8
RASTER
10
161.655
20
30.163
30
0
0
SEQEND
8
RASTER
0
POLYLINE
8
RASTER
66
1
70
1
0
VERTEX
8
RASTER
10
161.882
20
30.278
30
0
0
VERTEX
8
RASTER
10
161.74
20
30.12
30
0
0
VERTEX
8
RASTER
10
161.582
20
29.722
30
0
0
VERTEX
8
RASTER
10
161.655
20
29.649
30
0
0
VERTEX
8
RASTER
10
161.74
20
29.692
30
0
0
VERTEX
8
RASTER
10
161.783
20
29.778
30
0
0
VERTEX
8
RASTER
10
161.924
20
29.808
30
0
0
VERTEX
8
RASTER
10
162.138
20
29.636
30
0
0
VERTEX
8
RASTER
10
162.181
20
29.679
30
0
0
VERTEX
8
RASTER
10
162.138
20
29.936
30
0
0
VERTEX
8
RASTER
10
162.023
20
30.163
30
0
0
SEQEND
8
RASTER
0
POLYLINE
8
RASTER
66
1
70
1
0
VERTEX
8
RASTER
10
158.502
20
30.658
30
0
0
VERTEX
8
RASTER
10
161.9
20
27.26
30
0
0
VERTEX
8
RASTER
10
165.298
20
30.658
30
0
0
VERTEX
8
RASTER
10
166.138
20
29.818
30
0
0
VERTEX
8
RASTER
10
162.74
20
26.42
30
0
0
VERTEX
8
RASTER
10
166.138
20
23.022
30
0
0
VERTEX
8
RASTER
10
165.298
20
22.182
30
0
0
VERTEX
8
RASTER
10
161.9
20
25.58
30
0
0
VERTEX
8
RASTER
10
158.502
20
22.182
30
0
0
VERTEX
8
RASTER
10
157.662
20
23.022
30
0
0
VERTEX
8
RASTER
10
161.06
20
26.42
30
0
0
VERTEX
8
RASTER
10
157.662
20
29.818
30
0
0
SEQEND
8
RASTER
0
CIRCLE
8
RASTER
10
166.18
20
22.14
30
0
40
0.737
0
CIRCLE
8
RASTER
10
157.62
20
22.14
30
0
40
0.737
0
CIRCLE
8
RASTER
10
157.62
20
30.7
30
0
40
0.737
0
CIRCLE
8
RASTER
10
166.18
20
30.7
30
0
40
0.737
0
CIRCLE
8
RASTER
10
156.25
20
23.45
30
0
40
0.32
0
CIRCLE
8
RASTER
10
157.35
20
23.45
30
0
40
0.32
0
CIRCLE
8
RASTER
10
158.45
20
23.45
30
0
40
0.32
0
CIRCLE
8
RASTER
10
159.55
20
23.45
30
0
40
0.32
0
CIRCLE
8
RASTER
10
160.65
20
23.45
30
0
40
0.32
0
CIRCLE
8
RASTER
10
161.75
20
23.45
30
0
40
0.32
0
CIRCLE
8
RASTER
10
162.85
20
23.45
30
0
40
0.32
0
CIRCLE
8
RASTER
10
163.95
20
23.45
30
0
40
0.32
0
CIRCLE
8
RASTER
10
165.05
20
23.45
30
0
40
0.32
0
CIRCLE
8
RASTER
10
166.15
20
23.45
30
0
40
0.32
0
CIRCLE
8
RASTER
10
167.25
20
23.45
30
0
40
0.32
0
POLYLINE
8
CUT
66
1
70
1
0
VERTEX
8
CUT
10
178.1
20
37
30
0
0
VERTEX
8
CUT
10
180.7
20
37
30
0
0
VERTEX
8
CUT
10
180.7
20
35
30
0
0
VERTEX
8
CUT
10
185.4
20
35
30
0
0
VERTEX
8
CUT
10
185.4
20
24
30
0
0
VERTEX
8
CUT
10
182.6
20
22.4
30
0
0
VERTEX
8
CUT
10
180.7
20
21.6
30
0
0
VERTEX
8
CUT
10
180.7
20
12
30
0
0
VERTEX
8
CUT
10
182.75
20
12
30
0
0
VERTEX
8
CUT
10
182.75
20
6
30
0
0
VERTEX
8
CUT
10
176.05
20
6
30
0
0
VERTEX
8
CUT
10
176.05
20
12
30
0
0
VERTEX
8
CUT
10
178.1
20
12
30
0
0
VERTEX
8
CUT
10
178.1
20
21.6
30
0
0
VERTEX
8
CUT
10
174.9
20
22.4
30
0
0
VERTEX
8
CUT
10
173.4
20
24
30
0
0
VERTEX
8
CUT
10
173.4
20
35
30
0
0
VERTEX
8
CUT
10
178.1
20
35
30
0
0
SEQEND
8
CUT
0
POLYLINE
8
RASTER
66
1
70
1
0
VERTEX
8
RASTER
10
173.4
20
34.4
30
0
0
VERTEX
8
RASTER
10
185.4
20
34.4
30
0
0
VERTEX
8
RASTER
10
185.4
20
33.9
30
0
0
VERTEX
8
RASTER
10
173.4
20
33.9
30
0
0
SEQEND
8
RASTER
0
POLYLINE
8
RASTER
66
1
70
1
0
VERTEX
8
RASTER
10
179.25
20
33.858
30
0
0
VERTEX
8
RASTER
10
179.71
20
33.869
30
0
0
VERTEX
8
RASTER
10
180.036
20
33.797
30
0
0
VERTEX
8
RASTER
10
180.254
20
33.724
30
0
0
VERTEX
8
RASTER
10
180.772
20
33.446
30
0
0
VERTEX
8
RASTER
10
181.17
20
33.047
30
0
0
VERTEX
8
RASTER
10
181.315
20
32.83
30
0
0
VERTEX
8
RASTER
10
181.449
20
32.529
30
0
0
VERTEX
8
RASTER
10
181.485
20
32.348
30
0
0
VERTEX
8
RASTER
10
181.485
20
31.769
30
0
0
VERTEX
8
RASTER
10
181.413
20
31.443
30
0
0
VERTEX
8
RASTER
10
181.557
20
31.153
30
0
0
VERTEX
8
RASTER
10
181.594
20
30.791
30
0
0
VERTEX
8
RASTER
10
181.46
20
30.527
30
0
0
VERTEX
8
RASTER
10
181.402
20
30.44
30
0
0
VERTEX
8
RASTER
10
181.123
20
30.284
30
0
0
VERTEX
8
RASTER
10
180.797
20
30.248
30
0
0
VERTEX
8
RASTER
10
180.616
20
30.32
30
0
0
VERTEX
8
RASTER
10
180.569
20
30.295
30
0
0
VERTEX
8
RASTER
10
180.518
20
29.658
30
0
0
VERTEX
8
RASTER
10
180.29
20
29.487
30
0
0
VERTEX
8
RASTER
10
180.047
20
29.513
30
0
0
VERTEX
8
RASTER
10
179.975
20
29.44
30
0
0
VERTEX
8
RASTER
10
179.747
20
29.342
30
0
0
VERTEX
8
RASTER
10
179.529
20
29.342
30
0
0
VERTEX
8
RASTER
10
179.457
20
29.379
30
0
0
VERTEX
8
RASTER
10
179.022
20
29.342
30
0
0
VERTEX
8
RASTER
10
178.769
20
29.487
30
0
0
VERTEX
8
RASTER
10
178.588
20
29.451
30
0
0
VERTEX
8
RASTER
10
178.396
20
29.513
30
0
0
VERTEX
8
RASTER
10
178.287
20
29.585
30
0
0
VERTEX
8
RASTER
10
178.189
20
29.813
30
0
0
VERTEX
8
RASTER
10
178.262
20
30.139
30
0
0
VERTEX
8
RASTER
10
178.2
20
30.295
30
0
0
VERTEX
8
RASTER
10
178.153
20
30.32
30
0
0
VERTEX
8
RASTER
10
177.972
20
30.248
30
0
0
VERTEX
8
RASTER
10
177.827
20
30.248
30
0
0
VERTEX
8
RASTER
10
177.646
20
30.284
30
0
0
VERTEX
8
RASTER
10
177.454
20
30.382
30
0
0
VERTEX
8
RASTER
10
177.309
20
30.527
30
0
0
VERTEX
8
RASTER
10
177.175
20
30.827
30
0
0
VERTEX
8
RASTER
10
177.212
20
31.117
30
0
0
VERTEX
8
RASTER
10
177.356
20
31.407
30
0
0
VERTEX
8
RASTER
10
177.32
20
31.733
30
0
0
VERTEX
8
RASTER
10
177.284
20
31.805
30
0
0
VERTEX
8
RASTER
10
177.284
20
32.276
30
0
0
VERTEX
8
RASTER
10
177.393
20
32.638
30
0
0
VERTEX
8
RASTER
10
177.563
20
32.975
30
0
0
VERTEX
8
RASTER
10
177.744
20
33.192
30
0
0
VERTEX
8
RASTER
10
178.251
20
33.554
30
0
0
VERTEX
8
RASTER
10
178.733
20
33.761
30
0
0
SEQEND
8
RASTER
0
POLYLINE
8
RASTER
66
1
70
1
0
VERTEX
8
RASTER
10
179.24
20
33.761
30
0
0
VERTEX
8
RASTER
10
178.877
20
33.688
30
0
0
VERTEX
8
RASTER
10
178.432
20
33.518
30
0
0
VERTEX
8
RASTER
10
178.106
20
33.337
30
0
0
VERTEX
8
RASTER
10
177.744
20
33.011
30
0
0
VERTEX
8
RASTER
10
177.599
20
32.794
30
0
0
VERTEX
8
RASTER
10
177.465
20
32.493
30
0
0
VERTEX
8
RASTER
10
177.393
20
32.131
30
0
0
VERTEX
8
RASTER
10
177.393
20
31.95
30
0
0
VERTEX
8
RASTER
10
177.429
20
31.877
30
0
0
VERTEX
8
RASTER
10
177.429
20
31.588
30
0
0
VERTEX
8
RASTER
10
177.49
20
31.562
30
0
0
VERTEX
8
RASTER
10
177.682
20
31.986
30
0
0
VERTEX
8
RASTER
10
177.729
20
32.446
30
0
0
VERTEX
8
RASTER
10
177.755
20
32.421
30
0
0
VERTEX
8
RASTER
10
177.755
20
32.022
30
0
0
VERTEX
8
RASTER
10
177.682
20
31.769
30
0
0
VERTEX
8
RASTER
10
177.356
20
31.189
30
0
0
VERTEX
8
RASTER
10
177.295
20
30.911
30
0
0
VERTEX
8
RASTER
10
177.32
20
30.755
30
0
0
VERTEX
8
RASTER
10
177.382
20
30.635
30
0
0
VERTEX
8
RASTER
10
177.476
20
30.512
30
0
0
VERTEX
8
RASTER
10
177.61
20
30.429
30
0
0
VERTEX
8
RASTER
10
177.863
20
30.356
30
0
0
VERTEX
8
RASTER
10
178.153
20
30.429
30
0
0
VERTEX
8
RASTER
10
178.37
20
30.429
30
0
0
VERTEX
8
RASTER
10
178.49
20
30.331
30
0
0
VERTEX
8
RASTER
10
178.515
20
30.284
30
0
0
VERTEX
8
RASTER
10
178.49
20
30.259
30
0
0
VERTEX
8
RASTER
10
178.309
20
30.346
30
0
0
VERTEX
8
RASTER
10
178.37
20
30.175
30
0
0
VERTEX
8
RASTER
10
178.334
20
30.031
30
0
0
VERTEX
8
RASTER
10
178.334
20
29.777
30
0
0
VERTEX
8
RASTER
10
178.396
20
29.658
30
0
0
VERTEX
8
RASTER
10
178.624
20
29.56
30
0
0
VERTEX
8
RASTER
10
178.758
20
29.607
30
0
0
VERTEX
8
RASTER
10
178.805
20
29.922
30
0
0
VERTEX
8
RASTER
10
178.867
20
29.983
30
0
0
VERTEX
8
RASTER
10
178.888
20
29.534
30
0
0
VERTEX
8
RASTER
10
179.059
20
29.451
30
0
0
VERTEX
8
RASTER
10
179.24
20
29.451
30
0
0
VERTEX
8
RASTER
10
179.348
20
29.524
30
0
0
VERTEX
8
RASTER
10
179.348
20
29.813
30
0
0
VERTEX
8
RASTER
10
179.41
20
29.947
30
0
0
VERTEX
8
RASTER
10
179.457
20
29.813
30
0
0
VERTEX
8
RASTER
10
179.482
20
29.476
30
0
0
VERTEX
8
RASTER
10
179.71
20
29.451
30
0
0
VERTEX
8
RASTER
10
179.939
20
29.549
30
0
0
VERTEX
8
RASTER
10
179.964
20
29.596
30
0
0
VERTEX
8
RASTER
10
179.964
20
29.777
30
0
0
VERTEX
8
RASTER
10
179.928
20
29.849
30
0
0
VERTEX
8
RASTER
10
179.928
20
29.958
30
0
0
VERTEX
8
RASTER
10
179.964
20
29.994
30
0
0
VERTEX
8
RASTER
10
180.036
20
29.849
30
0
0
VERTEX
8
RASTER
10
180.062
20
29.621
30
0
0
VERTEX
8
RASTER
10
180.254
20
29.596
30
0
0
VERTEX
8
RASTER
10
180.409
20
29.694
30
0
0
VERTEX
8
RASTER
10
180.471
20
29.849
30
0
0
VERTEX
8
RASTER
10
180.435
20
29.922
30
0
0
VERTEX
8
RASTER
10
180.435
20
30.248
30
0
0
VERTEX
8
RASTER
10
180.471
20
30.32
30
0
0
VERTEX
8
RASTER
10
180.435
20
30.356
30
0
0
VERTEX
8
RASTER
10
180.265
20
30.259
30
0
0
VERTEX
8
RASTER
10
180.279
20
30.331
30
0
0
VERTEX
8
RASTER
10
180.351
20
30.404
30
0
0
VERTEX
8
RASTER
10
180.616
20
30.429
30
0
0
VERTEX
8
RASTER
10
180.833
20
30.356
30
0
0
VERTEX
8
RASTER
10
180.942
20
30.356
30
0
0
VERTEX
8
RASTER
10
181.257
20
30.476
30
0
0
VERTEX
8
RASTER
10
181.351
20
30.563
30
0
0
VERTEX
8
RASTER
10
181.485
20
30.863
30
0
0
VERTEX
8
RASTER
10
181.485
20
30.972
30
0
0
VERTEX
8
RASTER
10
181.449
20
31.117
30
0
0
VERTEX
8
RASTER
10
181.206
20
31.526
30
0
0
VERTEX
8
RASTER
10
181.05
20
31.914
30
0
0
VERTEX
8
RASTER
10
181.014
20
32.059
30
0
0
VERTEX
8
RASTER
10
181.014
20
32.421
30
0
0
VERTEX
8
RASTER
10
181.025
20
32.446
30
0
0
VERTEX
8
RASTER
10
181.05
20
32.421
30
0
0
VERTEX
8
RASTER
10
181.087
20
32.022
30
0
0
VERTEX
8
RASTER
10
181.293
20
31.577
30
0
0
VERTEX
8
RASTER
10
181.34
20
31.588
30
0
0
VERTEX
8
RASTER
10
181.376
20
32.203
30
0
0
VERTEX
8
RASTER
10
181.304
20
32.529
30
0
0
VERTEX
8
RASTER
10
181.134
20
32.866
30
0
0
VERTEX
8
RASTER
10
181.025
20
33.047
30
0
0
VERTEX
8
RASTER
10
180.735
20
33.337
30
0
0
VERTEX
8
RASTER
10
180.217
20
33.616
30
0
0
VERTEX
8
RASTER
10
179.891
20
33.724
30
0
0
VERTEX
8
RASTER
10
179.71
20
33.761
30
0
0
SEQEND
8
RASTER
0
POLYLINE
8
RASTER
66
1
70
1
0
VERTEX
8
RASTER
10
178.418
20
32.156
30
0
0
VERTEX
8
RASTER
10
178.66
20
32.131
30
0
0
VERTEX
8
RASTER
10
178.816
20
32.033
30
0
0
VERTEX
8
RASTER
10
178.961
20
31.852
30
0
0
VERTEX
8
RASTER
10
179.022
20
31.696
30
0
0
VERTEX
8
RASTER
10
179.022
20
31.37
30
0
0
VERTEX
8
RASTER
10
178.925
20
31.142
30
0
0
VERTEX
8
RASTER
10
178.743
20
30.925
30
0
0
VERTEX
8
RASTER
10
178.468
20
30.802
30
0
0
VERTEX
8
RASTER
10
178.468
20
30.838
30
0
0
VERTEX
8
RASTER
10
178.599
20
30.889
30
0
0
VERTEX
8
RASTER
10
178.686
20
30.961
30
0
0
VERTEX
8
RASTER
10
178.479
20
30.9
30
0
0
VERTEX
8
RASTER
10
178.189
20
30.936
30
0
0
VERTEX
8
RASTER
10
177.961
20
31.07
30
0
0
VERTEX
8
RASTER
10
177.827
20
31.334
30
0
0
VERTEX
8
RASTER
10
177.827
20
31.624
30
0
0
VERTEX
8
RASTER
10
177.925
20
31.852
30
0
0
VERTEX
8
RASTER
10
178.142
20
32.069
30
0
0
SEQEND
8
RASTER
0
POLYLINE
8
RASTER
66
1
70
1
0
VERTEX
8
RASTER
10
180.228
20
32.156
30
0
0
VERTEX
8
RASTER
10
180.362
20
32.167
30
0
0
VERTEX
8
RASTER
10
180.507
20
32.131
30
0
0
VERTEX
8
RASTER
10
180.699
20
32.033
30
0
0
VERTEX
8
RASTER
10
180.808
20
31.925
30
0
0
VERTEX
8
RASTER
10
180.942
20
31.66
30
0
0
VERTEX
8
RASTER
10
180.967
20
31.468
30
0
0
VERTEX
8
RASTER
10
180.942
20
31.298
30
0
0
VERTEX
8
RASTER
10
180.844
20
31.106
30
0
0
VERTEX
8
RASTER
10
180.772
20
31.034
30
0
0
VERTEX
8
RASTER
10
180.435
20
30.9
30
0
0
VERTEX
8
RASTER
10
180.181
20
30.936
30
0
0
VERTEX
8
RASTER
10
180.156
20
30.911
30
0
0
VERTEX
8
RASTER
10
180.279
20
30.853
30
0
0
VERTEX
8
RASTER
10
180.254
20
30.827
30
0
0
VERTEX
8
RASTER
10
180.098
20
30.889
30
0
0
VERTEX
8
RASTER
10
179.975
20
30.983
30
0
0
VERTEX
8
RASTER
10
179.794
20
31.273
30
0
0
VERTEX
8
RASTER
10
179.747
20
31.443
30
0
0
VERTEX
8
RASTER
10
179.747
20
31.66
30
0
0
VERTEX
8
RASTER
10
179.881
20
31.961
30
0
0
VERTEX
8
RASTER
10
180.062
20
32.106
30
0
0
SEQEND
8
RASTER
0
POLYLINE
8
RASTER
66
1
70
1
0
VERTEX
8
RASTER
10
178.515
20
32.059
30
0
0
VERTEX
8
RASTER
10
178.287
20
31.961
30
0
0
VERTEX
8
RASTER
10
178.142
20
31.816
30
0
0
VERTEX
8
RASTER
10
178.081
20
31.66
30
0
0
VERTEX
8
RASTER
10
178.081
20
31.407
30
0
0
VERTEX
8
RASTER
10
178.179
20
31.215
30
0
0
VERTEX
8
RASTER
10
178.287
20
31.106
30
0
0
VERTEX
8
RASTER
10
178.407
20
31.045
30
0
0
VERTEX
8
RASTER
10
178.624
20
31.045
30
0
0
VERTEX
8
RASTER
10
178.743
20
31.106
30
0
0
VERTEX
8
RASTER
10
178.877
20
31.262
30
0
0
VERTEX
8
RASTER
10
178.95
20
31.515
30
0
0
VERTEX
8
RASTER
10
178.852
20
31.852
30
0
0
VERTEX
8
RASTER
10
178.707
20
31.997
30
0
0
SEQEND
8
RASTER
0
POLYLINE
8
RASTER
66
1
70
1
0
VERTEX
8
RASTER
10
180.217
20
32.059
30
0
0
VERTEX
8
RASTER
10
180.062
20
31.997
30
0
0
VERTEX
8
RASTER
10
179.953
20
31.888
30
0
0
VERTEX
8
RASTER
10
179.855
20
31.696
30
0
0
VERTEX
8
RASTER
10
179.855
20
31.407
30
0
0
VERTEX
8
RASTER
10
179.953
20
31.179
30
0
0
VERTEX
8
RASTER
10
180.025
20
31.106
30
0
0
VERTEX
8
RASTER
10
180.145
20
31.045
30
0
0
VERTEX
8
RASTER
10
180.362
20
31.045
30
0
0
VERTEX
8
RASTER
10
180.569
20
31.164
30
0
0
VERTEX
8
RASTER
10
180.641
20
31.273
30
0
0
VERTEX
8
RASTER
10
180.688
20
31.407
30
0
0
VERTEX
8
RASTER
10
180.688
20
31.696
30
0
0
VERTEX
8
RASTER
10
180.554
20
31.925
30
0
0
VERTEX
8
RASTER
10
180.398
20
32.022
30
0
0
SEQEND
8
RASTER
0
POLYLINE
8
RASTER
66
1
70
1
0
VERTEX
8
RASTER
10
180.677
20
31.939
30
0
0
VERTEX
8
RASTER
10
180.652
20
31.914
30
0
0
VERTEX
8
RASTER
10
180.761
20
31.733
30
0
0
VERTEX
8
RASTER
10
180.797
20
31.515
30
0
0
VERTEX
8
RASTER
10
180.714
20
31.236
30
0
0
VERTEX
8
RASTER
10
180.532
20
31.055
30
0
0
VERTEX
8
RASTER
10
180.543
20
31.008
30
0
0
VERTEX
8
RASTER
10
180.699
20
31.07
30
0
0
VERTEX
8
RASTER
10
180.808
20
31.179
30
0
0
VERTEX
8
RASTER
10
180.906
20
31.443
30
0
0
VERTEX
8
RASTER
10
180.833
20
31.733
30
0
0
SEQEND
8
RASTER
0
POLYLINE
8
RASTER
66
1
70
1
0
VERTEX
8
RASTER
10
178.07
20
31.867
30
0
0
VERTEX
8
RASTER
10
177.997
20
31.816
30
0
0
VERTEX
8
RASTER
10
177.9
20
31.624
30
0
0
VERTEX
8
RASTER
10
177.9
20
31.334
30
0
0
VERTEX
8
RASTER
10
178.034
20
31.106
30
0
0
VERTEX
8
RASTER
10
178.298
20
30.972
30
0
0
VERTEX
8
RASTER
10
178.309
20
31.019
30
0
0
VERTEX
8
RASTER
10
178.106
20
31.179
30
0
0
VERTEX
8
RASTER
10
178.008
20
31.37
30
0
0
VERTEX
8
RASTER
10
178.008
20
31.696
30
0
0
SEQEND
8
RASTER
0
POLYLINE
8
RASTER
66
1
70
1
0
VERTEX
8
RASTER
10
179.359
20
31.251
30
0
0
VERTEX
8
RASTER
10
179.468
20
31.236
30
0
0
VERTEX
8
RASTER
10
179.576
20
31.128
30
0
0
VERTEX
8
RASTER
10
179.71
20
30.863
30
0
0
VERTEX
8
RASTER
10
179.747
20
30.719
30
0
0
VERTEX
8
RASTER
10
179.685
20
30.599
30
0
0
VERTEX
8
RASTER
10
179.638
20
30.574
30
0
0
VERTEX
8
RASTER
10
179.518
20
30.599
30
0
0
VERTEX
8
RASTER
10
179.384
20
30.719
30
0
0
VERTEX
8
RASTER
10
179.323
20
30.635
30
0
0
VERTEX
8
RASTER
10
179.203
20
30.574
30
0
0
VERTEX
8
RASTER
10
179.106
20
30.585
30
0
0
VERTEX
8
RASTER
10
179.059
20
30.646
30
0
0
VERTEX
8
RASTER
10
179.059
20
30.755
30
0
0
VERTEX
8
RASTER
10
179.131
20
30.972
30
0
0
VERTEX
8
RASTER
10
179.193
20
31.092
30
0
0
SEQEND
8
RASTER
0
POLYLINE
8
RASTER
66
1
70
1
0
VERTEX
8
RASTER
10
179.384
20
31.189
30
0
0
VERTEX
8
RASTER
10
179.265
20
31.055
30
0
0
VERTEX
8
RASTER
10
179.131
20
30.719
30
0
0
VERTEX
8
RASTER
10
179.193
20
30.657
30
0
0
VERTEX
8
RASTER
10
179.265
20
30.693
30
0
0
VERTEX
8
RASTER
10
179.301
20
30.766
30
0
0
VERTEX
8
RASTER
10
179.421
20
30.791
30
0
0
VERTEX
8
RASTER
10
179.602
20
30.646
30
0
0
VERTEX
8
RASTER
10
179.638
20
30.682
30
0
0
VERTEX
8
RASTER
10
179.602
20
30.9
30
0
0
VERTEX
8
RASTER
10
179.504
20
31.092
30
0
0
SEQEND
8
RASTER
0
POLYLINE
8
RASTER
66
1
70
1
0
VERTEX
8
RASTER
10
176.681
20
31.131
30
0
0
VERTEX
8
RASTER
10
179.4
20
28.412
30
0
0
VERTEX
8
RASTER
10
182.119
20
31.131
30
0
0
VERTEX
8
RASTER
10
182.791
20
30.459
30
0
0
VERTEX
8
RASTER
10
180.072
20
27.74
30
0
0
VERTEX
8
RASTER
10
182.791
20
25.021
30
0
0
VERTEX
8
RASTER
10
182.119
20
24.349
30
0
0
VERTEX
8
RASTER
10
179.4
20
27.068
30
0
0
VERTEX
8
RASTER
10
176.681
20
24.349
30
0
0
VERTEX
8
RASTER
10
176.009
20
25.021
30
0
0
VERTEX
8
RASTER
10
178.728
20
27.74
30
0
0
VERTEX
8
RASTER
10
176.009
20
30.459
30
0
0
SEQEND
8
RASTER
0
CIRCLE
8
RASTER
10
182.824
20
24.316
30
0
40
0.589
0
CIRCLE
8
RASTER
10
175.976
20
24.316
30
0
40
0.589
0
CIRCLE
8
RASTER
10
175.976
20
31.164
30
0
40
0.589
0
CIRCLE
8
RASTER
10
182.824
20
31.164
30
0
40
0.589
0
CIRCLE
8
RASTER
10
175.25
20
25.45
30
0
40
0.32
0
CIRCLE
8
RASTER
10
176.35
20
25.45
30
0
40
0.32
0
CIRCLE
8
RASTER
10
177.45
20
25.45
30
0
40
0.32
0
CIRCLE
8
RASTER
10
178.55
20
25.45
30
0
40
0.32
0
CIRCLE
8
RASTER
10
179.65
20
25.45
30
0
40
0.32
0
CIRCLE
8
RASTER
10
180.75
20
25.45
30
0
40
0.32
0
CIRCLE
8
RASTER
10
181.85
20
25.45
30
0
40
0.32
0
CIRCLE
8
RASTER
10
182.95
20
25.45
30
0
40
0.32
0
POLYLINE
8
CUT
66
1
70
1
0
VERTEX
8
CUT
10
191.2
20
37
30
0
0
VERTEX
8
CUT
10
202.2
20
37
30
0
0
VERTEX
8
CUT
10
203.819
20
36.914
30
0
0
VERTEX
8
CUT
10
205.309
20
36.66
30
0
0
VERTEX
8
CUT
10
206.682
20
36.241
30
0
0
VERTEX
8
CUT
10
207.95
20
35.66
30
0
0
VERTEX
8
CUT
10
209.124
20
34.922
30
0
0
VERTEX
8
CUT
10
210.216
20
34.03
30
0
0
VERTEX
8
CUT
10
211.237
20
32.988
30
0
0
VERTEX
8
CUT
10
212.2
20
31.8
30
0
0
VERTEX
8
CUT
10
211.237
20
30.612
30
0
0
VERTEX
8
CUT
10
210.216
20
29.57
30
0
0
VERTEX
8
CUT
10
209.124
20
28.678
30
0
0
VERTEX
8
CUT
10
207.95
20
27.94
30
0
0
VERTEX
8
CUT
10
206.682
20
27.359
30
0
0
VERTEX
8
CUT
10
205.309
20
26.94
30
0
0
VERTEX
8
CUT
10
203.819
20
26.686
30
0
0
VERTEX
8
CUT
10
202.2
20
26.6
30
0
0
VERTEX
8
CUT
10
191.2
20
26.6
30
0
0
VERTEX
8
CUT
10
190.413
20
27.047
30
0
0
VERTEX
8
CUT
10
189.85
20
28.225
30
0
0
VERTEX
8
CUT
10
189.513
20
29.891
30
0
0
VERTEX
8
CUT
10
189.4
20
31.8
30
0
0
VERTEX
8
CUT
10
189.513
20
33.709
30
0
0
VERTEX
8
CUT
10
189.85
20
35.375
30
0
0
VERTEX
8
CUT
10
190.413
20
36.553
30
0
0
VERTEX
8
CUT
10
191.2
20
37
30
0
0
SEQEND
8
CUT
0
POLYLINE
8
CUT
66
1
70
1
0
VERTEX
8
CUT
10
194.1
20
35.3
30
0
0
VERTEX
8
CUT
10
197.3
20
35.3
30
0
0
VERTEX
8
CUT
10
197.3
20
28.3
30
0
0
VERTEX
8
CUT
10
194.1
20
28.3
30
0
0
SEQEND
8
CUT
0
POLYLINE
8
CUT
66
1
70
1
0
VERTEX
8
CUT
10
202.1
20
35.3
30
0
0
VERTEX
8
CUT
10
205.3
20
35.3
30
0
0
VERTEX
8
CUT
10
205.3
20
28.3
30
0
0
VERTEX
8
CUT
10
202.1
20
28.3
30
0
0
SEQEND
8
CUT
0
POLYLINE
8
RASTER
66
1
70
1
0
VERTEX
8
RASTER
10
191.4
20
35.02
30
0
0
VERTEX
8
RASTER
10
207.9
20
35.02
30
0
0
VERTEX
8
RASTER
10
207.9
20
34.58
30
0
0
VERTEX
8
RASTER
10
191.4
20
34.58
30
0
0
SEQEND
8
RASTER
0
POLYLINE
8
RASTER
66
1
70
1
0
VERTEX
8
RASTER
10
191.4
20
32.02
30
0
0
VERTEX
8
RASTER
10
207.9
20
32.02
30
0
0
VERTEX
8
RASTER
10
207.9
20
31.58
30
0
0
VERTEX
8
RASTER
10
191.4
20
31.58
30
0
0
SEQEND
8
RASTER
0
POLYLINE
8
RASTER
66
1
70
1
0
VERTEX
8
RASTER
10
191.4
20
29.02
30
0
0
VERTEX
8
RASTER
10
207.9
20
29.02
30
0
0
VERTEX
8
RASTER
10
207.9
20
28.58
30
0
0
VERTEX
8
RASTER
10
191.4
20
28.58
30
0
0
SEQEND
8
RASTER
0
POLYLINE
8
RASTER
66
1
70
1
0
VERTEX
8
RASTER
10
189.8
20
32.1
30
0
0
VERTEX
8
RASTER
10
191.4
20
32.1
30
0
0
VERTEX
8
RASTER
10
191.4
20
31.5
30
0
0
VERTEX
8
RASTER
10
189.8
20
31.5
30
0
0
SEQEND
8
RASTER
0
POLYLINE
8
CUT
66
1
70
1
0
VERTEX
8
CUT
10
222.4
20
37
30
0
0
VERTEX
8
CUT
10
225
20
37
30
0
0
VERTEX
8
CUT
10
225
20
35
30
0
0
VERTEX
8
CUT
10
231.2
20
35
30
0
0
VERTEX
8
CUT
10
231.2
20
22
30
0
0
VERTEX
8
CUT
10
228.4
20
20.4
30
0
0
VERTEX
8
CUT
10
225
20
19.6
30
0
0
VERTEX
8
CUT
10
225
20
10
30
0
0
VERTEX
8
CUT
10
227.05
20
10
30
0
0
VERTEX
8
CUT
10
227.05
20
4
30
0
0
VERTEX
8
CUT
10
220.35
20
4
30
0
0
VERTEX
8
CUT
10
220.35
20
10
30
0
0
VERTEX
8
CUT
10
222.4
20
10
30
0
0
VERTEX
8
CUT
10
222.4
20
19.6
30
0
0
VERTEX
8
CUT
10
217.7
20
20.4
30
0
0
VERTEX
8
CUT
10
216.2
20
22
30
0
0
VERTEX
8
CUT
10
216.2
20
35
30
0
0
VERTEX
8
CUT
10
222.4
20
35
30
0
0
SEQEND
8
CUT
0
POLYLINE
8
RASTER
66
1
70
1
0
VERTEX
8
RASTER
10
216.2
20
34.4
30
0
0
VERTEX
8
RASTER
10
231.2
20
34.4
30
0
0
VERTEX
8
RASTER
10
231.2
20
33.9
30
0
0
VERTEX
8
RASTER
10
216.2
20
33.9
30
0
0
SEQEND
8
RASTER
0
POLYLINE
8
RASTER
66
1
70
1
0
VERTEX
8
RASTER
10
223.523
20
33.433
30
0
0
VERTEX
8
RASTER
10
224.067
20
33.446
30
0
0
VERTEX
8
RASTER
10
224.452
20
33.36
30
0
0
VERTEX
8
RASTER
10
224.709
20
33.274
30
0
0
VERTEX
8
RASTER
10
225.321
20
32.945
30
0
0
VERTEX
8
RASTER
10
225.792
20
32.474
30
0
0
VERTEX
8
RASTER
10
225.963
20
32.217
30
0
0
VERTEX
8
RASTER
10
226.121
20
31.862
30
0
0
VERTEX
8
RASTER
10
226.164
20
31.648
30
0
0
VERTEX
8
RASTER
10
226.164
20
30.963
30
0
0
VERTEX
8
RASTER
10
226.078
20
30.578
30
0
0
VERTEX
8
RASTER
10
226.25
20
30.236
30
0
0
VERTEX
8
RASTER
10
226.292
20
29.808
30
0
0
VERTEX
8
RASTER
10
226.134
20
29.495
30
0
0
VERTEX
8
RASTER
10
226.066
20
29.392
30
0
0
VERTEX
8
RASTER
10
225.736
20
29.208
30
0
0
VERTEX
8
RASTER
10
225.351
20
29.166
30
0
0
VERTEX
8
RASTER
10
225.137
20
29.251
30
0
0
VERTEX
8
RASTER
10
225.081
20
29.221
30
0
0
VERTEX
8
RASTER
10
225.021
20
28.468
30
0
0
VERTEX
8
RASTER
10
224.752
20
28.267
30
0
0
VERTEX
8
RASTER
10
224.465
20
28.297
30
0
0
VERTEX
8
RASTER
10
224.379
20
28.211
30
0
0
VERTEX
8
RASTER
10
224.11
20
28.096
30
0
0
VERTEX
8
RASTER
10
223.853
20
28.096
30
0
0
VERTEX
8
RASTER
10
223.767
20
28.138
30
0
0
VERTEX
8
RASTER
10
223.254
20
28.096
30
0
0
VERTEX
8
RASTER
10
222.954
20
28.267
30
0
0
VERTEX
8
RASTER
10
222.74
20
28.224
30
0
0
VERTEX
8
RASTER
10
222.513
20
28.297
30
0
0
VERTEX
8
RASTER
10
222.385
20
28.382
30
0
0
VERTEX
8
RASTER
10
222.269
20
28.652
30
0
0
VERTEX
8
RASTER
10
222.355
20
29.037
30
0
0
VERTEX
8
RASTER
10
222.282
20
29.221
30
0
0
VERTEX
8
RASTER
10
222.226
20
29.251
30
0
0
VERTEX
8
RASTER
10
222.012
20
29.166
30
0
0
VERTEX
8
RASTER
10
221.841
20
29.166
30
0
0
VERTEX
8
RASTER
10
221.627
20
29.208
30
0
0
VERTEX
8
RASTER
10
221.4
20
29.324
30
0
0
VERTEX
8
RASTER
10
221.229
20
29.495
30
0
0
VERTEX
8
RASTER
10
221.071
20
29.85
30
0
0
VERTEX
8
RASTER
10
221.114
20
30.193
30
0
0
VERTEX
8
RASTER
10
221.285
20
30.535
30
0
0
VERTEX
8
RASTER
10
221.242
20
30.92
30
0
0
VERTEX
8
RASTER
10
221.199
20
31.006
30
0
0
VERTEX
8
RASTER
10
221.199
20
31.562
30
0
0
VERTEX
8
RASTER
10
221.328
20
31.99
30
0
0
VERTEX
8
RASTER
10
221.529
20
32.388
30
0
0
VERTEX
8
RASTER
10
221.743
20
32.645
30
0
0
VERTEX
8
RASTER
10
222.342
20
33.073
30
0
0
VERTEX
8
RASTER
10
222.911
20
33.317
30
0
0
SEQEND
8
RASTER
0
POLYLINE
8
RASTER
66
1
70
1
0
VERTEX
8
RASTER
10
223.51
20
33.317
30
0
0
VERTEX
8
RASTER
10
223.082
20
33.232
30
0
0
VERTEX
8
RASTER
10
222.556
20
33.03
30
0
0
VERTEX
8
RASTER
10
222.171
20
32.816
30
0
0
VERTEX
8
RASTER
10
221.743
20
32.431
30
0
0
VERTEX
8
RASTER
10
221.572
20
32.174
30
0
0
VERTEX
8
RASTER
10
221.413
20
31.819
30
0
0
VERTEX
8
RASTER
10
221.328
20
31.391
30
0
0
VERTEX
8
RASTER
10
221.328
20
31.177
30
0
0
VERTEX
8
RASTER
10
221.37
20
31.092
30
0
0
VERTEX
8
RASTER
10
221.37
20
30.749
30
0
0
VERTEX
8
RASTER
10
221.443
20
30.719
30
0
0
VERTEX
8
RASTER
10
221.67
20
31.22
30
0
0
VERTEX
8
RASTER
10
221.726
20
31.764
30
0
0
VERTEX
8
RASTER
10
221.756
20
31.734
30
0
0
VERTEX
8
RASTER
10
221.756
20
31.263
30
0
0
VERTEX
8
RASTER
10
221.67
20
30.963
30
0
0
VERTEX
8
RASTER
10
221.285
20
30.278
30
0
0
VERTEX
8
RASTER
10
221.212
20
29.949
30
0
0
VERTEX
8
RASTER
10
221.242
20
29.765
30
0
0
VERTEX
8
RASTER
10
221.315
20
29.624
30
0
0
VERTEX
8
RASTER
10
221.426
20
29.478
30
0
0
VERTEX
8
RASTER
10
221.584
20
29.38
30
0
0
VERTEX
8
RASTER
10
221.884
20
29.294
30
0
0
VERTEX
8
RASTER
10
222.226
20
29.38
30
0
0
VERTEX
8
RASTER
10
222.483
20
29.38
30
0
0
VERTEX
8
RASTER
10
222.625
20
29.264
30
0
0
VERTEX
8
RASTER
10
222.654
20
29.208
30
0
0
VERTEX
8
RASTER
10
222.625
20
29.178
30
0
0
VERTEX
8
RASTER
10
222.411
20
29.281
30
0
0
VERTEX
8
RASTER
10
222.483
20
29.08
30
0
0
VERTEX
8
RASTER
10
222.44
20
28.909
30
0
0
VERTEX
8
RASTER
10
222.44
20
28.609
30
0
0
VERTEX
8
RASTER
10
222.513
20
28.468
30
0
0
VERTEX
8
RASTER
10
222.783
20
28.352
30
0
0
VERTEX
8
RASTER
10
222.941
20
28.408
30
0
0
VERTEX
8
RASTER
10
222.997
20
28.78
30
0
0
VERTEX
8
RASTER
10
223.07
20
28.853
30
0
0
VERTEX
8
RASTER
10
223.095
20
28.322
30
0
0
VERTEX
8
RASTER
10
223.296
20
28.224
30
0
0
VERTEX
8
RASTER
10
223.51
20
28.224
30
0
0
VERTEX
8
RASTER
10
223.639
20
28.31
30
0
0
VERTEX
8
RASTER
10
223.639
20
28.652
30
0
0
VERTEX
8
RASTER
10
223.712
20
28.81
30
0
0
VERTEX
8
RASTER
10
223.767
20
28.652
30
0
0
VERTEX
8
RASTER
10
223.797
20
28.254
30
0
0
VERTEX
8
RASTER
10
224.067
20
28.224
30
0
0
VERTEX
8
RASTER
10
224.336
20
28.34
30
0
0
VERTEX
8
RASTER
10
224.366
20
28.395
30
0
0
VERTEX
8
RASTER
10
224.366
20
28.609
30
0
0
VERTEX
8
RASTER
10
224.324
20
28.695
30
0
0
VERTEX
8
RASTER
10
224.324
20
28.823
30
0
0
VERTEX
8
RASTER
10
224.366
20
28.866
30
0
0
VERTEX
8
RASTER
10
224.452
20
28.695
30
0
0
VERTEX
8
RASTER
10
224.482
20
28.425
30
0
0
VERTEX
8
RASTER
10
224.709
20
28.395
30
0
0
VERTEX
8
RASTER
10
224.893
20
28.511
30
0
0
VERTEX
8
RASTER
10
224.966
20
28.695
30
0
0
VERTEX
8
RASTER
10
224.923
20
28.78
30
0
0
VERTEX
8
RASTER
10
224.923
20
29.166
30
0
0
VERTEX
8
RASTER
10
224.966
20
29.251
30
0
0
VERTEX
8
RASTER
10
224.923
20
29.294
30
0
0
VERTEX
8
RASTER
10
224.722
20
29.178
30
0
0
VERTEX
8
RASTER
10
224.739
20
29.264
30
0
0
VERTEX
8
RASTER
10
224.824
20
29.35
30
0
0
VERTEX
8
RASTER
10
225.137
20
29.38
30
0
0
VERTEX
8
RASTER
10
225.394
20
29.294
30
0
0
VERTEX
8
RASTER
10
225.522
20
29.294
30
0
0
VERTEX
8
RASTER
10
225.894
20
29.435
30
0
0
VERTEX
8
RASTER
10
226.006
20
29.538
30
0
0
VERTEX
8
RASTER
10
226.164
20
29.893
30
0
0
VERTEX
8
RASTER
10
226.164
20
30.022
30
0
0
VERTEX
8
RASTER
10
226.121
20
30.193
30
0
0
VERTEX
8
RASTER
10
225.834
20
30.676
30
0
0
VERTEX
8
RASTER
10
225.65
20
31.134
30
0
0
VERTEX
8
RASTER
10
225.608
20
31.306
30
0
0
VERTEX
8
RASTER
10
225.608
20
31.734
30
0
0
VERTEX
8
RASTER
10
225.62
20
31.764
30
0
0
VERTEX
8
RASTER
10
225.65
20
31.734
30
0
0
VERTEX
8
RASTER
10
225.693
20
31.263
30
0
0
VERTEX
8
RASTER
10
225.937
20
30.736
30
0
0
VERTEX
8
RASTER
10
225.993
20
30.749
30
0
0
VERTEX
8
RASTER
10
226.036
20
31.477
30
0
0
VERTEX
8
RASTER
10
225.95
20
31.862
30
0
0
VERTEX
8
RASTER
10
225.749
20
32.26
30
0
0
VERTEX
8
RASTER
10
225.62
20
32.474
30
0
0
VERTEX
8
RASTER
10
225.278
20
32.816
30
0
0
VERTEX
8
RASTER
10
224.666
20
33.146
30
0
0
VERTEX
8
RASTER
10
224.281
20
33.274
30
0
0
VERTEX
8
RASTER
10
224.067
20
33.317
30
0
0
SEQEND
8
RASTER
0
POLYLINE
8
RASTER
66
1
70
1
0
VERTEX
8
RASTER
10
222.539
20
31.421
30
0
0
VERTEX
8
RASTER
10
222.826
20
31.391
30
0
0
VERTEX
8
RASTER
10
223.01
20
31.276
30
0
0
VERTEX
8
RASTER
10
223.181
20
31.062
30
0
0
VERTEX
8
RASTER
10
223.254
20
30.878
30
0
0
VERTEX
8
RASTER
10
223.254
20
30.492
30
0
0
VERTEX
8
RASTER
10
223.138
20
30.223
30
0
0
VERTEX
8
RASTER
10
222.924
20
29.966
30
0
0
VERTEX
8
RASTER
10
222.599
20
29.82
30
0
0
VERTEX
8
RASTER
10
222.599
20
29.863
30
0
0
VERTEX
8
RASTER
10
222.753
20
29.923
30
0
0
VERTEX
8
RASTER
10
222.856
20
30.009
30
0
0
VERTEX
8
RASTER
10
222.612
20
29.936
30
0
0
VERTEX
8
RASTER
10
222.269
20
29.979
30
0
0
VERTEX
8
RASTER
10
222
20
30.137
30
0
0
VERTEX
8
RASTER
10
221.841
20
30.45
30
0
0
VERTEX
8
RASTER
10
221.841
20
30.792
30
0
0
VERTEX
8
RASTER
10
221.957
20
31.062
30
0
0
VERTEX
8
RASTER
10
222.214
20
31.318
30
0
0
SEQEND
8
RASTER
0
POLYLINE
8
RASTER
66
1
70
1
0
VERTEX
8
RASTER
10
224.679
20
31.421
30
0
0
VERTEX
8
RASTER
10
224.837
20
31.434
30
0
0
VERTEX
8
RASTER
10
225.008
20
31.391
30
0
0
VERTEX
8
RASTER
10
225.235
20
31.276
30
0
0
VERTEX
8
RASTER
10
225.364
20
31.147
30
0
0
VERTEX
8
RASTER
10
225.522
20
30.835
30
0
0
VERTEX
8
RASTER
10
225.552
20
30.608
30
0
0
VERTEX
8
RASTER
10
225.522
20
30.407
30
0
0
VERTEX
8
RASTER
10
225.406
20
30.18
30
0
0
VERTEX
8
RASTER
10
225.321
20
30.094
30
0
0
VERTEX
8
RASTER
10
224.923
20
29.936
30
0
0
VERTEX
8
RASTER
10
224.623
20
29.979
30
0
0
VERTEX
8
RASTER
10
224.593
20
29.949
30
0
0
VERTEX
8
RASTER
10
224.739
20
29.88
30
0
0
VERTEX
8
RASTER
10
224.709
20
29.85
30
0
0
VERTEX
8
RASTER
10
224.525
20
29.923
30
0
0
VERTEX
8
RASTER
10
224.379
20
30.034
30
0
0
VERTEX
8
RASTER
10
224.165
20
30.377
30
0
0
VERTEX
8
RASTER
10
224.11
20
30.578
30
0
0
VERTEX
8
RASTER
10
224.11
20
30.835
30
0
0
VERTEX
8
RASTER
10
224.268
20
31.19
30
0
0
VERTEX
8
RASTER
10
224.482
20
31.361
30
0
0
SEQEND
8
RASTER
0
POLYLINE
8
RASTER
66
1
70
1
0
VERTEX
8
RASTER
10
222.654
20
31.306
30
0
0
VERTEX
8
RASTER
10
222.385
20
31.19
30
0
0
VERTEX
8
RASTER
10
222.214
20
31.019
30
0
0
VERTEX
8
RASTER
10
222.141
20
30.835
30
0
0
VERTEX
8
RASTER
10
222.141
20
30.535
30
0
0
VERTEX
8
RASTER
10
222.256
20
30.308
30
0
0
VERTEX
8
RASTER
10
222.385
20
30.18
30
0
0
VERTEX
8
RASTER
10
222.526
20
30.107
30
0
0
VERTEX
8
RASTER
10
222.783
20
30.107
30
0
0
VERTEX
8
RASTER
10
222.924
20
30.18
30
0
0
VERTEX
8
RASTER
10
223.082
20
30.364
30
0
0
VERTEX
8
RASTER
10
223.168
20
30.664
30
0
0
VERTEX
8
RASTER
10
223.053
20
31.062
30
0
0
VERTEX
8
RASTER
10
222.881
20
31.233
30
0
0
SEQEND
8
RASTER
0
POLYLINE
8
RASTER
66
1
70
1
0
VERTEX
8
RASTER
10
224.666
20
31.306
30
0
0
VERTEX
8
RASTER
10
224.482
20
31.233
30
0
0
VERTEX
8
RASTER
10
224.354
20
31.104
30
0
0
VERTEX
8
RASTER
10
224.238
20
30.878
30
0
0
VERTEX
8
RASTER
10
224.238
20
30.535
30
0
0
VERTEX
8
RASTER
10
224.354
20
30.266
30
0
0
VERTEX
8
RASTER
10
224.439
20
30.18
30
0
0
VERTEX
8
RASTER
10
224.58
20
30.107
30
0
0
VERTEX
8
RASTER
10
224.837
20
30.107
30
0
0
VERTEX
8
RASTER
10
225.081
20
30.248
30
0
0
VERTEX
8
RASTER
10
225.167
20
30.377
30
0
0
VERTEX
8
RASTER
10
225.222
20
30.535
30
0
0
VERTEX
8
RASTER
10
225.222
20
30.878
30
0
0
VERTEX
8
RASTER
10
225.064
20
31.147
30
0
0
VERTEX
8
RASTER
10
224.88
20
31.263
30
0
0
SEQEND
8
RASTER
0
POLYLINE
8
RASTER
66
1
70
1
0
VERTEX
8
RASTER
10
225.21
20
31.164
30
0
0
VERTEX
8
RASTER
10
225.18
20
31.134
30
0
0
VERTEX
8
RASTER
10
225.308
20
30.92
30
0
0
VERTEX
8
RASTER
10
225.351
20
30.664
30
0
0
VERTEX
8
RASTER
10
225.252
20
30.334
30
0
0
VERTEX
8
RASTER
10
225.038
20
30.12
30
0
0
VERTEX
8
RASTER
10
225.051
20
30.064
30
0
0
VERTEX
8
RASTER
10
225.235
20
30.137
30
0
0
VERTEX
8
RASTER
10
225.364
20
30.266
30
0
0
VERTEX
8
RASTER
10
225.479
20
30.578
30
0
0
VERTEX
8
RASTER
10
225.394
20
30.92
30
0
0
SEQEND
8
RASTER
0
POLYLINE
8
RASTER
66
1
70
1
0
VERTEX
8
RASTER
10
222.128
20
31.079
30
0
0
VERTEX
8
RASTER
10
222.042
20
31.019
30
0
0
VERTEX
8
RASTER
10
221.927
20
30.792
30
0
0
VERTEX
8
RASTER
10
221.927
20
30.45
30
0
0
VERTEX
8
RASTER
10
222.085
20
30.18
30
0
0
VERTEX
8
RASTER
10
222.398
20
30.022
30
0
0
VERTEX
8
RASTER
10
222.411
20
30.077
30
0
0
VERTEX
8
RASTER
10
222.171
20
30.266
30
0
0
VERTEX
8
RASTER
10
222.055
20
30.492
30
0
0
VERTEX
8
RASTER
10
222.055
20
30.878
30
0
0
SEQEND
8
RASTER
0
POLYLINE
8
RASTER
66
1
70
1
0
VERTEX
8
RASTER
10
223.652
20
30.351
30
0
0
VERTEX
8
RASTER
10
223.78
20
30.334
30
0
0
VERTEX
8
RASTER
10
223.908
20
30.206
30
0
0
VERTEX
8
RASTER
10
224.067
20
29.893
30
0
0
VERTEX
8
RASTER
10
224.11
20
29.722
30
0
0
VERTEX
8
RASTER
10
224.037
20
29.581
30
0
0
VERTEX
8
RASTER
10
223.981
20
29.551
30
0
0
VERTEX
8
RASTER
10
223.84
20
29.581
30
0
0
VERTEX
8
RASTER
10
223.682
20
29.722
30
0
0
VERTEX
8
RASTER
10
223.609
20
29.624
30
0
0
VERTEX
8
RASTER
10
223.468
20
29.551
30
0
0
VERTEX
8
RASTER
10
223.352
20
29.564
30
0
0
VERTEX
8
RASTER
10
223.296
20
29.636
30
0
0
VERTEX
8
RASTER
10
223.296
20
29.765
30
0
0
VERTEX
8
RASTER
10
223.382
20
30.022
30
0
0
VERTEX
8
RASTER
10
223.455
20
30.163
30
0
0
SEQEND
8
RASTER
0
POLYLINE
8
RASTER
66
1
70
1
0
VERTEX
8
RASTER
10
223.682
20
30.278
30
0
0
VERTEX
8
RASTER
10
223.54
20
30.12
30
0
0
VERTEX
8
RASTER
10
223.382
20
29.722
30
0
0
VERTEX
8
RASTER
10
223.455
20
29.649
30
0
0
VERTEX
8
RASTER
10
223.54
20
29.692
30
0
0
VERTEX
8
RASTER
10
223.583
20
29.778
30
0
0
VERTEX
8
RASTER
10
223.724
20
29.808
30
0
0
VERTEX
8
RASTER
10
223.938
20
29.636
30
0
0
VERTEX
8
RASTER
10
223.981
20
29.679
30
0
0
VERTEX
8
RASTER
10
223.938
20
29.936
30
0
0
VERTEX
8
RASTER
10
223.823
20
30.163
30
0
0
SEQEND
8
RASTER
0
POLYLINE
8
RASTER
66
1
70
1
0
VERTEX
8
RASTER
10
220.302
20
30.658
30
0
0
VERTEX
8
RASTER
10
223.7
20
27.26
30
0
0
VERTEX
8
RASTER
10
227.098
20
30.658
30
0
0
VERTEX
8
RASTER
10
227.938
20
29.818
30
0
0
VERTEX
8
RASTER
10
224.54
20
26.42
30
0
0
VERTEX
8
RASTER
10
227.938
20
23.022
30
0
0
VERTEX
8
RASTER
10
227.098
20
22.182
30
0
0
VERTEX
8
RASTER
10
223.7
20
25.58
30
0
0
VERTEX
8
RASTER
10
220.302
20
22.182
30
0
0
VERTEX
8
RASTER
10
219.462
20
23.022
30
0
0
VERTEX
8
RASTER
10
222.86
20
26.42
30
0
0
VERTEX
8
RASTER
10
219.462
20
29.818
30
0
0
SEQEND
8
RASTER
0
CIRCLE
8
RASTER
10
227.98
20
22.14
30
0
40
0.737
0
CIRCLE
8
RASTER
10
219.42
20
22.14
30
0
40
0.737
0
CIRCLE
8
RASTER
10
219.42
20
30.7
30
0
40
0.737
0
CIRCLE
8
RASTER
10
227.98
20
30.7
30
0
40
0.737
0
POLYLINE
8
RASTER
66
1
70
1
0
VERTEX
8
RASTER
10
217.6
20
23.9
30
0
0
VERTEX
8
RASTER
10
218.5
20
23.9
30
0
0
VERTEX
8
RASTER
10
218.5
20
23
30
0
0
VERTEX
8
RASTER
10
217.6
20
23
30
0
0
SEQEND
8
RASTER
0
POLYLINE
8
RASTER
66
1
70
1
0
VERTEX
8
RASTER
10
219.8
20
23.9
30
0
0
VERTEX
8
RASTER
10
220.7
20
23.9
30
0
0
VERTEX
8
RASTER
10
220.7
20
23
30
0
0
VERTEX
8
RASTER
10
219.8
20
23
30
0
0
SEQEND
8
RASTER
0
POLYLINE
8
RASTER
66
1
70
1
0
VERTEX
8
RASTER
10
222
20
23.9
30
0
0
VERTEX
8
RASTER
10
222.9
20
23.9
30
0
0
VERTEX
8
RASTER
10
222.9
20
23
30
0
0
VERTEX
8
RASTER
10
222
20
23
30
0
0
SEQEND
8
RASTER
0
POLYLINE
8
RASTER
66
1
70
1
0
VERTEX
8
RASTER
10
224.2
20
23.9
30
0
0
VERTEX
8
RASTER
10
225.1
20
23.9
30
0
0
VERTEX
8
RASTER
10
225.1
20
23
30
0
0
VERTEX
8
RASTER
10
224.2
20
23
30
0
0
SEQEND
8
RASTER
0
POLYLINE
8
RASTER
66
1
70
1
0
VERTEX
8
RASTER
10
226.4
20
23.9
30
0
0
VERTEX
8
RASTER
10
227.3
20
23.9
30
0
0
VERTEX
8
RASTER
10
227.3
20
23
30
0
0
VERTEX
8
RASTER
10
226.4
20
23
30
0
0
SEQEND
8
RASTER
0
POLYLINE
8
RASTER
66
1
70
1
0
VERTEX
8
RASTER
10
228.6
20
23.9
30
0
0
VERTEX
8
RASTER
10
229.5
20
23.9
30
0
0
VERTEX
8
RASTER
10
229.5
20
23
30
0
0
VERTEX
8
RASTER
10
228.6
20
23
30
0
0
SEQEND
8
RASTER
0
POLYLINE
8
CUT
66
1
70
1
0
VERTEX
8
CUT
10
239.9
20
37
30
0
0
VERTEX
8
CUT
10
242.5
20
37
30
0
0
VERTEX
8
CUT
10
242.5
20
35
30
0
0
VERTEX
8
CUT
10
247.2
20
35
30
0
0
VERTEX
8
CUT
10
247.2
20
24
30
0
0
VERTEX
8
CUT
10
244.4
20
22.4
30
0
0
VERTEX
8
CUT
10
242.5
20
21.6
30
0
0
VERTEX
8
CUT
10
242.5
20
12
30
0
0
VERTEX
8
CUT
10
244.55
20
12
30
0
0
VERTEX
8
CUT
10
244.55
20
6
30
0
0
VERTEX
8
CUT
10
237.85
20
6
30
0
0
VERTEX
8
CUT
10
237.85
20
12
30
0
0
VERTEX
8
CUT
10
239.9
20
12
30
0
0
VERTEX
8
CUT
10
239.9
20
21.6
30
0
0
VERTEX
8
CUT
10
236.7
20
22.4
30
0
0
VERTEX
8
CUT
10
235.2
20
24
30
0
0
VERTEX
8
CUT
10
235.2
20
35
30
0
0
VERTEX
8
CUT
10
239.9
20
35
30
0
0
SEQEND
8
CUT
0
POLYLINE
8
RASTER
66
1
70
1
0
VERTEX
8
RASTER
10
235.2
20
34.4
30
0
0
VERTEX
8
RASTER
10
247.2
20
34.4
30
0
0
VERTEX
8
RASTER
10
247.2
20
33.9
30
0
0
VERTEX
8
RASTER
10
235.2
20
33.9
30
0
0
SEQEND
8
RASTER
0
POLYLINE
8
RASTER
66
1
70
1
0
VERTEX
8
RASTER
10
241.05
20
33.858
30
0
0
VERTEX
8
RASTER
10
241.51
20
33.869
30
0
0
VERTEX
8
RASTER
10
241.836
20
33.797
30
0
0
VERTEX
8
RASTER
10
242.054
20
33.724
30
0
0
VERTEX
8
RASTER
10
242.572
20
33.446
30
0
0
VERTEX
8
RASTER
10
242.97
20
33.047
30
0
0
VERTEX
8
RASTER
10
243.115
20
32.83
30
0
0
VERTEX
8
RASTER
10
243.249
20
32.529
30
0
0
VERTEX
8
RASTER
10
243.285
20
32.348
30
0
0
VERTEX
8
RASTER
10
243.285
20
31.769
30
0
0
VERTEX
8
RASTER
10
243.213
20
31.443
30
0
0
VERTEX
8
RASTER
10
243.357
20
31.153
30
0
0
VERTEX
8
RASTER
10
243.394
20
30.791
30
0
0
VERTEX
8
RASTER
10
243.26
20
30.527
30
0
0
VERTEX
8
RASTER
10
243.202
20
30.44
30
0
0
VERTEX
8
RASTER
10
242.923
20
30.284
30
0
0
VERTEX
8
RASTER
10
242.597
20
30.248
30
0
0
VERTEX
8
RASTER
10
242.416
20
30.32
30
0
0
VERTEX
8
RASTER
10
242.369
20
30.295
30
0
0
VERTEX
8
RASTER
10
242.318
20
29.658
30
0
0
VERTEX
8
RASTER
10
242.09
20
29.487
30
0
0
VERTEX
8
RASTER
10
241.847
20
29.513
30
0
0
VERTEX
8
RASTER
10
241.775
20
29.44
30
0
0
VERTEX
8
RASTER
10
241.547
20
29.342
30
0
0
VERTEX
8
RASTER
10
241.329
20
29.342
30
0
0
VERTEX
8
RASTER
10
241.257
20
29.379
30
0
0
VERTEX
8
RASTER
10
240.822
20
29.342
30
0
0
VERTEX
8
RASTER
10
240.569
20
29.487
30
0
0
VERTEX
8
RASTER
10
240.388
20
29.451
30
0
0
VERTEX
8
RASTER
10
240.196
20
29.513
30
0
0
VERTEX
8
RASTER
10
240.087
20
29.585
30
0
0
VERTEX
8
RASTER
10
239.989
20
29.813
30
0
0
VERTEX
8
RASTER
10
240.062
20
30.139
30
0
0
VERTEX
8
RASTER
10
240
20
30.295
30
0
0
VERTEX
8
RASTER
10
239.953
20
30.32
30
0
0
VERTEX
8
RASTER
10
239.772
20
30.248
30
0
0
VERTEX
8
RASTER
10
239.627
20
30.248
30
0
0
VERTEX
8
RASTER
10
239.446
20
30.284
30
0
0
VERTEX
8
RASTER
10
239.254
20
30.382
30
0
0
VERTEX
8
RASTER
10
239.109
20
30.527
30
0
0
VERTEX
8
RASTER
10
238.975
20
30.827
30
0
0
VERTEX
8
RASTER
10
239.012
20
31.117
30
0
0
VERTEX
8
RASTER
10
239.156
20
31.407
30
0
0
VERTEX
8
RASTER
10
239.12
20
31.733
30
0
0
VERTEX
8
RASTER
10
239.084
20
31.805
30
0
0
VERTEX
8
RASTER
10
239.084
20
32.276
30
0
0
VERTEX
8
RASTER
10
239.193
20
32.638
30
0
0
VERTEX
8
RASTER
10
239.363
20
32.975
30
0
0
VERTEX
8
RASTER
10
239.544
20
33.192
30
0
0
VERTEX
8
RASTER
10
240.051
20
33.554
30
0
0
VERTEX
8
RASTER
10
240.533
20
33.761
30
0
0
SEQEND
8
RASTER
0
POLYLINE
8
RASTER
66
1
70
1
0
VERTEX
8
RASTER
10
241.04
20
33.761
30
0
0
VERTEX
8
RASTER
10
240.677
20
33.688
30
0
0
VERTEX
8
RASTER
10
240.232
20
33.518
30
0
0
VERTEX
8
RASTER
10
239.906
20
33.337
30
0
0
VERTEX
8
RASTER
10
239.544
20
33.011
30
0
0
VERTEX
8
RASTER
10
239.399
20
32.794
30
0
0
VERTEX
8
RASTER
10
239.265
20
32.493
30
0
0
VERTEX
8
RASTER
10
239.193
20
32.131
30
0
0
VERTEX
8
RASTER
10
239.193
20
31.95
30
0
0
VERTEX
8
RASTER
10
239.229
20
31.877
30
0
0
VERTEX
8
RASTER
10
239.229
20
31.588
30
0
0
VERTEX
8
RASTER
10
239.29
20
31.562
30
0
0
VERTEX
8
RASTER
10
239.482
20
31.986
30
0
0
VERTEX
8
RASTER
10
239.529
20
32.446
30
0
0
VERTEX
8
RASTER
10
239.555
20
32.421
30
0
0
VERTEX
8
RASTER
10
239.555
20
32.022
30
0
0
VERTEX
8
RASTER
10
239.482
20
31.769
30
0
0
VERTEX
8
RASTER
10
239.156
20
31.189
30
0
0
VERTEX
8
RASTER
10
239.095
20
30.911
30
0
0
VERTEX
8
RASTER
10
239.12
20
30.755
30
0
0
VERTEX
8
RASTER
10
239.182
20
30.635
30
0
0
VERTEX
8
RASTER
10
239.276
20
30.512
30
0
0
VERTEX
8
RASTER
10
239.41
20
30.429
30
0
0
VERTEX
8
RASTER
10
239.663
20
30.356
30
0
0
VERTEX
8
RASTER
10
239.953
20
30.429
30
0
0
VERTEX
8
RASTER
10
240.17
20
30.429
30
0
0
VERTEX
8
RASTER
10
240.29
20
30.331
30
0
0
VERTEX
8
RASTER
10
240.315
20
30.284
30
0
0
VERTEX
8
RASTER
10
240.29
20
30.259
30
0
0
VERTEX
8
RASTER
10
240.109
20
30.346
30
0
0
VERTEX
8
RASTER
10
240.17
20
30.175
30
0
0
VERTEX
8
RASTER
10
240.134
20
30.031
30
0
0
VERTEX
8
RASTER
10
240.134
20
29.777
30
0
0
VERTEX
8
RASTER
10
240.196
20
29.658
30
0
0
VERTEX
8
RASTER
10
240.424
20
29.56
30
0
0
VERTEX
8
RASTER
10
240.558
20
29.607
30
0
0
VERTEX
8
RASTER
10
240.605
20
29.922
30
0
0
VERTEX
8
RASTER
10
240.667
20
29.983
30
0
0
VERTEX
8
RASTER
10
240.688
20
29.534
30
0
0
VERTEX
8
RASTER
10
240.859
20
29.451
30
0
0
VERTEX
8
RASTER
10
241.04
20
29.451
30
0
0
VERTEX
8
RASTER
10
241.148
20
29.524
30
0
0
VERTEX
8
RASTER
10
241.148
20
29.813
30
0
0
VERTEX
8
RASTER
10
241.21
20
29.947
30
0
0
VERTEX
8
RASTER
10
241.257
20
29.813
30
0
0
VERTEX
8
RASTER
10
241.282
20
29.476
30
0
0
VERTEX
8
RASTER
10
241.51
20
29.451
30
0
0
VERTEX
8
RASTER
10
241.739
20
29.549
30
0
0
VERTEX
8
RASTER
10
241.764
20
29.596
30
0
0
VERTEX
8
RASTER
10
241.764
20
29.777
30
0
0
VERTEX
8
RASTER
10
241.728
20
29.849
30
0
0
VERTEX
8
RASTER
10
241.728
20
29.958
30
0
0
VERTEX
8
RASTER
10
241.764
20
29.994
30
0
0
VERTEX
8
RASTER
10
241.836
20
29.849
30
0
0
VERTEX
8
RASTER
10
241.862
20
29.621
30
0
0
VERTEX
8
RASTER
10
242.054
20
29.596
30
0
0
VERTEX
8
RASTER
10
242.209
20
29.694
30
0
0
VERTEX
8
RASTER
10
242.271
20
29.849
30
0
0
VERTEX
8
RASTER
10
242.235
20
29.922
30
0
0
VERTEX
8
RASTER
10
242.235
20
30.248
30
0
0
VERTEX
8
RASTER
10
242.271
20
30.32
30
0
0
VERTEX
8
RASTER
10
242.235
20
30.356
30
0
0
VERTEX
8
RASTER
10
242.065
20
30.259
30
0
0
VERTEX
8
RASTER
10
242.079
20
30.331
30
0
0
VERTEX
8
RASTER
10
242.151
20
30.404
30
0
0
VERTEX
8
RASTER
10
242.416
20
30.429
30
0
0
VERTEX
8
RASTER
10
242.633
20
30.356
30
0
0
VERTEX
8
RASTER
10
242.742
20
30.356
30
0
0
VERTEX
8
RASTER
10
243.057
20
30.476
30
0
0
VERTEX
8
RASTER
10
243.151
20
30.563
30
0
0
VERTEX
8
RASTER
10
243.285
20
30.863
30
0
0
VERTEX
8
RASTER
10
243.285
20
30.972
30
0
0
VERTEX
8
RASTER
10
243.249
20
31.117
30
0
0
VERTEX
8
RASTER
10
243.006
20
31.526
30
0
0
VERTEX
8
RASTER
10
242.85
20
31.914
30
0
0
VERTEX
8
RASTER
10
242.814
20
32.059
30
0
0
VERTEX
8
RASTER
10
242.814
20
32.421
30
0
0
VERTEX
8
RASTER
10
242.825
20
32.446
30
0
0
VERTEX
8
RASTER
10
242.85
20
32.421
30
0
0
VERTEX
8
RASTER
10
242.887
20
32.022
30
0
0
VERTEX
8
RASTER
10
243.093
20
31.577
30
0
0
VERTEX
8
RASTER
10
243.14
20
31.588
30
0
0
VERTEX
8
RASTER
10
243.176
20
32.203
30
0
0
VERTEX
8
RASTER
10
243.104
20
32.529
30
0
0
VERTEX
8
RASTER
10
242.934
20
32.866
30
0
0
VERTEX
8
RASTER
10
242.825
20
33.047
30
0
0
VERTEX
8
RASTER
10
242.535
20
33.337
30
0
0
VERTEX
8
RASTER
10
242.017
20
33.616
30
0
0
VERTEX
8
RASTER
10
241.691
20
33.724
30
0
0
VERTEX
8
RASTER
10
241.51
20
33.761
30
0
0
SEQEND
8
RASTER
0
POLYLINE
8
RASTER
66
1
70
1
0
VERTEX
8
RASTER
10
240.218
20
32.156
30
0
0
VERTEX
8
RASTER
10
240.46
20
32.131
30
0
0
VERTEX
8
RASTER
10
240.616
20
32.033
30
0
0
VERTEX
8
RASTER
10
240.761
20
31.852
30
0
0
VERTEX
8
RASTER
10
240.822
20
31.696
30
0
0
VERTEX
8
RASTER
10
240.822
20
31.37
30
0
0
VERTEX
8
RASTER
10
240.725
20
31.142
30
0
0
VERTEX
8
RASTER
10
240.543
20
30.925
30
0
0
VERTEX
8
RASTER
10
240.268
20
30.802
30
0
0
VERTEX
8
RASTER
10
240.268
20
30.838
30
0
0
VERTEX
8
RASTER
10
240.399
20
30.889
30
0
0
VERTEX
8
RASTER
10
240.486
20
30.961
30
0
0
VERTEX
8
RASTER
10
240.279
20
30.9
30
0
0
VERTEX
8
RASTER
10
239.989
20
30.936
30
0
0
VERTEX
8
RASTER
10
239.761
20
31.07
30
0
0
VERTEX
8
RASTER
10
239.627
20
31.334
30
0
0
VERTEX
8
RASTER
10
239.627
20
31.624
30
0
0
VERTEX
8
RASTER
10
239.725
20
31.852
30
0
0
VERTEX
8
RASTER
10
239.942
20
32.069
30
0
0
SEQEND
8
RASTER
0
POLYLINE
8
RASTER
66
1
70
1
0
VERTEX
8
RASTER
10
242.028
20
32.156
30
0
0
VERTEX
8
RASTER
10
242.162
20
32.167
30
0
0
VERTEX
8
RASTER
10
242.307
20
32.131
30
0
0
VERTEX
8
RASTER
10
242.499
20
32.033
30
0
0
VERTEX
8
RASTER
10
242.608
20
31.925
30
0
0
VERTEX
8
RASTER
10
242.742
20
31.66
30
0
0
VERTEX
8
RASTER
10
242.767
20
31.468
30
0
0
VERTEX
8
RASTER
10
242.742
20
31.298
30
0
0
VERTEX
8
RASTER
10
242.644
20
31.106
30
0
0
VERTEX
8
RASTER
10
242.572
20
31.034
30
0
0
VERTEX
8
RASTER
10
242.235
20
30.9
30
0
0
VERTEX
8
RASTER
10
241.981
20
30.936
30
0
0
VERTEX
8
RASTER
10
241.956
20
30.911
30
0
0
VERTEX
8
RASTER
10
242.079
20
30.853
30
0
0
VERTEX
8
RASTER
10
242.054
20
30.827
30
0
0
VERTEX
8
RASTER
10
241.898
20
30.889
30
0
0
VERTEX
8
RASTER
10
241.775
20
30.983
30
0
0
VERTEX
8
RASTER
10
241.594
20
31.273
30
0
0
VERTEX
8
RASTER
10
241.547
20
31.443
30
0
0
VERTEX
8
RASTER
10
241.547
20
31.66
30
0
0
VERTEX
8
RASTER
10
241.681
20
31.961
30
0
0
VERTEX
8
RASTER
10
241.862
20
32.106
30
0
0
SEQEND
8
RASTER
0
POLYLINE
8
RASTER
66
1
70
1
0
VERTEX
8
RASTER
10
240.315
20
32.059
30
0
0
VERTEX
8
RASTER
10
240.087
20
31.961
30
0
0
VERTEX
8
RASTER
10
239.942
20
31.816
30
0
0
VERTEX
8
RASTER
10
239.881
20
31.66
30
0
0
VERTEX
8
RASTER
10
239.881
20
31.407
30
0
0
VERTEX
8
RASTER
10
239.979
20
31.215
30
0
0
VERTEX
8
RASTER
10
240.087
20
31.106
30
0
0
VERTEX
8
RASTER
10
240.207
20
31.045
30
0
0
VERTEX
8
RASTER
10
240.424
20
31.045
30
0
0
VERTEX
8
RASTER
10
240.543
20
31.106
30
0
0
VERTEX
8
RASTER
10
240.677
20
31.262
30
0
0
VERTEX
8
RASTER
10
240.75
20
31.515
30
0
0
VERTEX
8
RASTER
10
240.652
20
31.852
30
0
0
VERTEX
8
RASTER
10
240.507
20
31.997
30
0
0
SEQEND
8
RASTER
0
POLYLINE
8
RASTER
66
1
70
1
0
VERTEX
8
RASTER
10
242.017
20
32.059
30
0
0
VERTEX
8
RASTER
10
241.862
20
31.997
30
0
0
VERTEX
8
RASTER
10
241.753
20
31.888
30
0
0
VERTEX
8
RASTER
10
241.655
20
31.696
30
0
0
VERTEX
8
RASTER
10
241.655
20
31.407
30
0
0
VERTEX
8
RASTER
10
241.753
20
31.179
30
0
0
VERTEX
8
RASTER
10
241.825
20
31.106
30
0
0
VERTEX
8
RASTER
10
241.945
20
31.045
30
0
0
VERTEX
8
RASTER
10
242.162
20
31.045
30
0
0
VERTEX
8
RASTER
10
242.369
20
31.164
30
0
0
VERTEX
8
RASTER
10
242.441
20
31.273
30
0
0
VERTEX
8
RASTER
10
242.488
20
31.407
30
0
0
VERTEX
8
RASTER
10
242.488
20
31.696
30
0
0
VERTEX
8
RASTER
10
242.354
20
31.925
30
0
0
VERTEX
8
RASTER
10
242.198
20
32.022
30
0
0
SEQEND
8
RASTER
0
POLYLINE
8
RASTER
66
1
70
1
0
VERTEX
8
RASTER
10
242.477
20
31.939
30
0
0
VERTEX
8
RASTER
10
242.452
20
31.914
30
0
0
VERTEX
8
RASTER
10
242.561
20
31.733
30
0
0
VERTEX
8
RASTER
10
242.597
20
31.515
30
0
0
VERTEX
8
RASTER
10
242.514
20
31.236
30
0
0
VERTEX
8
RASTER
10
242.332
20
31.055
30
0
0
VERTEX
8
RASTER
10
242.343
20
31.008
30
0
0
VERTEX
8
RASTER
10
242.499
20
31.07
30
0
0
VERTEX
8
RASTER
10
242.608
20
31.179
30
0
0
VERTEX
8
RASTER
10
242.706
20
31.443
30
0
0
VERTEX
8
RASTER
10
242.633
20
31.733
30
0
0
SEQEND
8
RASTER
0
POLYLINE
8
RASTER
66
1
70
1
0
VERTEX
8
RASTER
10
239.87
20
31.867
30
0
0
VERTEX
8
RASTER
10
239.797
20
31.816
30
0
0
VERTEX
8
RASTER
10
239.7
20
31.624
30
0
0
VERTEX
8
RASTER
10
239.7
20
31.334
30
0
0
VERTEX
8
RASTER
10
239.834
20
31.106
30
0
0
VERTEX
8
RASTER
10
240.098
20
30.972
30
0
0
VERTEX
8
RASTER
10
240.109
20
31.019
30
0
0
VERTEX
8
RASTER
10
239.906
20
31.179
30
0
0
VERTEX
8
RASTER
10
239.808
20
31.37
30
0
0
VERTEX
8
RASTER
10
239.808
20
31.696
30
0
0
SEQEND
8
RASTER
0
POLYLINE
8
RASTER
66
1
70
1
0
VERTEX
8
RASTER
10
241.159
20
31.251
30
0
0
VERTEX
8
RASTER
10
241.268
20
31.236
30
0
0
VERTEX
8
RASTER
10
241.376
20
31.128
30
0
0
VERTEX
8
RASTER
10
241.51
20
30.863
30
0
0
VERTEX
8
RASTER
10
241.547
20
30.719
30
0
0
VERTEX
8
RASTER
10
241.485
20
30.599
30
0
0
VERTEX
8
RASTER
10
241.438
20
30.574
30
0
0
VERTEX
8
RASTER
10
241.318
20
30.599
30
0
0
VERTEX
8
RASTER
10
241.184
20
30.719
30
0
0
VERTEX
8
RASTER
10
241.123
20
30.635
30
0
0
VERTEX
8
RASTER
10
241.003
20
30.574
30
0
0
VERTEX
8
RASTER
10
240.906
20
30.585
30
0
0
VERTEX
8
RASTER
10
240.859
20
30.646
30
0
0
VERTEX
8
RASTER
10
240.859
20
30.755
30
0
0
VERTEX
8
RASTER
10
240.931
20
30.972
30
0
0
VERTEX
8
RASTER
10
240.993
20
31.092
30
0
0
SEQEND
8
RASTER
0
POLYLINE
8
RASTER
66
1
70
1
0
VERTEX
8
RASTER
10
241.184
20
31.189
30
0
0
VERTEX
8
RASTER
10
241.065
20
31.055
30
0
0
VERTEX
8
RASTER
10
240.931
20
30.719
30
0
0
VERTEX
8
RASTER
10
240.993
20
30.657
30
0
0
VERTEX
8
RASTER
10
241.065
20
30.693
30
0
0
VERTEX
8
RASTER
10
241.101
20
30.766
30
0
0
VERTEX
8
RASTER
10
241.221
20
30.791
30
0
0
VERTEX
8
RASTER
10
241.402
20
30.646
30
0
0
VERTEX
8
RASTER
10
241.438
20
30.682
30
0
0
VERTEX
8
RASTER
10
241.402
20
30.9
30
0
0
VERTEX
8
RASTER
10
241.304
20
31.092
30
0
0
SEQEND
8
RASTER
0
POLYLINE
8
RASTER
66
1
70
1
0
VERTEX
8
RASTER
10
238.481
20
31.131
30
0
0
VERTEX
8
RASTER
10
241.2
20
28.412
30
0
0
VERTEX
8
RASTER
10
243.919
20
31.131
30
0
0
VERTEX
8
RASTER
10
244.591
20
30.459
30
0
0
VERTEX
8
RASTER
10
241.872
20
27.74
30
0
0
VERTEX
8
RASTER
10
244.591
20
25.021
30
0
0
VERTEX
8
RASTER
10
243.919
20
24.349
30
0
0
VERTEX
8
RASTER
10
241.2
20
27.068
30
0
0
VERTEX
8
RASTER
10
238.481
20
24.349
30
0
0
VERTEX
8
RASTER
10
237.809
20
25.021
30
0
0
VERTEX
8
RASTER
10
240.528
20
27.74
30
0
0
VERTEX
8
RASTER
10
237.809
20
30.459
30
0
0
SEQEND
8
RASTER
0
CIRCLE
8
RASTER
10
244.624
20
24.316
30
0
40
0.589
0
CIRCLE
8
RASTER
10
237.776
20
24.316
30
0
40
0.589
0
CIRCLE
8
RASTER
10
237.776
20
31.164
30
0
40
0.589
0
CIRCLE
8
RASTER
10
244.624
20
31.164
30
0
40
0.589
0
POLYLINE
8
RASTER
66
1
70
1
0
VERTEX
8
RASTER
10
236.6
20
25.9
30
0
0
VERTEX
8
RASTER
10
237.5
20
25.9
30
0
0
VERTEX
8
RASTER
10
237.5
20
25
30
0
0
VERTEX
8
RASTER
10
236.6
20
25
30
0
0
SEQEND
8
RASTER
0
POLYLINE
8
RASTER
66
1
70
1
0
VERTEX
8
RASTER
10
238.8
20
25.9
30
0
0
VERTEX
8
RASTER
10
239.7
20
25.9
30
0
0
VERTEX
8
RASTER
10
239.7
20
25
30
0
0
VERTEX
8
RASTER
10
238.8
20
25
30
0
0
SEQEND
8
RASTER
0
POLYLINE
8
RASTER
66
1
70
1
0
VERTEX
8
RASTER
10
241
20
25.9
30
0
0
VERTEX
8
RASTER
10
241.9
20
25.9
30
0
0
VERTEX
8
RASTER
10
241.9
20
25
30
0
0
VERTEX
8
RASTER
10
241
20
25
30
0
0
SEQEND
8
RASTER
0
POLYLINE
8
RASTER
66
1
70
1
0
VERTEX
8
RASTER
10
243.2
20
25.9
30
0
0
VERTEX
8
RASTER
10
244.1
20
25.9
30
0
0
VERTEX
8
RASTER
10
244.1
20
25
30
0
0
VERTEX
8
RASTER
10
243.2
20
25
30
0
0
SEQEND
8
RASTER
0
ENDSEC
0
EOF
