  0
SECTION
  2
HEADER
  9
$ACADVER
  1
AC1015
  9
$ACADMAINTVER
 70
6
  9
$DWGCODEPAGE
  3
ANSI_1252
  9
$INSBASE
 10
0.0
 20
0.0
 30
0.0
  9
$EXTMIN
 10
1e+20
 20
1e+20
 30
1e+20
  9
$EXTMAX
 10
-1e+20
 20
-1e+20
 30
-1e+20
  9
$LIMMIN
 10
0.0
 20
0.0
  9
$LIMMAX
 10
420.0
 20
297.0
  9
$ORTHOMODE
 70
0
  9
$REGENMODE
 70
1
  9
$FILLMODE
 70
1
  9
$QTEXTMODE
 70
0
  9
$MIRRTEXT
 70
1
  9
$LTSCALE
 40
1.0
  9
$ATTMODE
 70
1
  9
$TEXTSIZE
 40
2.5
  9
$TRACEWID
 40
1.0
  9
$TEXTSTYLE
  7
Standard
  9
$CLAYER
  8
0
  9
$CELTYPE
  6
ByLayer
  9
$CECOLOR
 62
256
  9
$CELTSCALE
 40
1.0
  9
$DISPSILH
 70
0
  9
$DIMSCALE
 40
1.0
  9
$DIMASZ
 40
2.5
  9
$DIMEXO
 40
0.625
  9
$DIMDLI
 40
3.75
  9
$DIMRND
 40
0.0
  9
$DIMDLE
 40
0.0
  9
$DIMEXE
 40
1.25
  9
$DIMTP
 40
0.0
  9
$DIMTM
 40
0.0
  9
$DIMTXT
 40
2.5
  9
$DIMCEN
 40
2.5
  9
$DIMTSZ
 40
0.0
  9
$DIMTOL
 70
0
  9
$DIMLIM
 70
0
  9
$DIMTIH
 70
0
  9
$DIMTOH
 70
0
  9
$DIMSE1
 70
0
  9
$DIMSE2
 70
0
  9
$DIMTAD
 70
1
  9
$DIMZIN
 70
8
  9
$DIMBLK
  1

  9
$DIMASO
 70
1
  9
$DIMSHO
 70
1
  9
$DIMPOST
  1

  9
$DIMAPOST
  1

  9
$DIMALT
 70
0
  9
$DIMALTD
 70
3
  9
$DIMALTF
 40
0.03937007874
  9
$DIMLFAC
 40
1.0
  9
$DIMTOFL
 70
1
  9
$DIMTVP
 40
0.0
  9
$DIMTIX
 70
0
  9
$DIMSOXD
 70
0
  9
$DIMSAH
 70
0
  9
$DIMBLK1
  1

  9
$DIMBLK2
  1

  9
$DIMSTYLE
  2
ISO-25
  9
$DIMCLRD
 70
0
  9
$DIMCLRE
 70
0
  9
$DIMCLRT
 70
0
  9
$DIMTFAC
 40
1.0
  9
$DIMGAP
 40
0.625
  9
$DIMJUST
 70
0
  9
$DIMSD1
 70
0
  9
$DIMSD2
 70
0
  9
$DIMTOLJ
 70
0
  9
$DIMTZIN
 70
8
  9
$DIMALTZ
 70
0
  9
$DIMALTTZ
 70
0
  9
$DIMUPT
 70
0
  9
$DIMDEC
 70
2
  9
$DIMTDEC
 70
2
  9
$DIMALTU
 70
2
  9
$DIMALTTD
 70
3
  9
$DIMTXSTY
  7
Standard
  9
$DIMAUNIT
 70
0
  9
$DIMADEC
 70
0
  9
$DIMALTRND
 40
0.0
  9
$DIMAZIN
 70
0
  9
$DIMDSEP
 70
44
  9
$DIMATFIT
 70
3
  9
$DIMFRAC
 70
0
  9
$DIMLDRBLK
  1

  9
$DIMLUNIT
 70
2
  9
$DIMLWD
 70
-2
  9
$DIMLWE
 70
-2
  9
$DIMTMOVE
 70
0
  9
$LUNITS
 70
2
  9
$LUPREC
 70
4
  9
$SKETCHINC
 40
1.0
  9
$FILLETRAD
 40
10.0
  9
$AUNITS
 70
0
  9
$AUPREC
 70
2
  9
$MENU
  1
.
  9
$ELEVATION
 40
0.0
  9
$PELEVATION
 40
0.0
  9
$THICKNESS
 40
0.0
  9
$LIMCHECK
 70
0
  9
$CHAMFERA
 40
0.0
  9
$CHAMFERB
 40
0.0
  9
$CHAMFERC
 40
0.0
  9
$CHAMFERD
 40
0.0
  9
$SKPOLY
 70
0
  9
$TDCREATE
 40
2461296.3939467594
  9
$TDUCREATE
 40
2458532.153996898
  9
$TDUPDATE
 40
2461296.3939467594
  9
$TDUUPDATE
 40
2458532.1544311
  9
$TDINDWG
 40
0.0
  9
$TDUSRTIMER
 40
0.0
  9
$USRTIMER
 70
1
  9
$ANGBASE
 50
0.0
  9
$ANGDIR
 70
0
  9
$PDMODE
 70
0
  9
$PDSIZE
 40
0.0
  9
$PLINEWID
 40
0.0
  9
$SPLFRAME
 70
0
  9
$SPLINETYPE
 70
6
  9
$SPLINESEGS
 70
8
  9
$HANDSEED
  5
68
  9
$SURFTAB1
 70
6
  9
$SURFTAB2
 70
6
  9
$SURFTYPE
 70
6
  9
$SURFU
 70
6
  9
$SURFV
 70
6
  9
$UCSBASE
  2

  9
$UCSNAME
  2

  9
$UCSORG
 10
0.0
 20
0.0
 30
0.0
  9
$UCSXDIR
 10
1.0
 20
0.0
 30
0.0
  9
$UCSYDIR
 10
0.0
 20
1.0
 30
0.0
  9
$UCSORTHOREF
  2

  9
$UCSORTHOVIEW
 70
0
  9
$UCSORGTOP
 10
0.0
 20
0.0
 30
0.0
  9
$UCSORGBOTTOM
 10
0.0
 20
0.0
 30
0.0
  9
$UCSORGLEFT
 10
0.0
 20
0.0
 30
0.0
  9
$UCSORGRIGHT
 10
0.0
 20
0.0
 30
0.0
  9
$UCSORGFRONT
 10
0.0
 20
0.0
 30
0.0
  9
$UCSORGBACK
 10
0.0
 20
0.0
 30
0.0
  9
$PUCSBASE
  2

  9
$PUCSNAME
  2

  9
$PUCSORG
 10
0.0
 20
0.0
 30
0.0
  9
$PUCSXDIR
 10
1.0
 20
0.0
 30
0.0
  9
$PUCSYDIR
 10
0.0
 20
1.0
 30
0.0
  9
$PUCSORTHOREF
  2

  9
$PUCSORTHOVIEW
 70
0
  9
$PUCSORGTOP
 10
0.0
 20
0.0
 30
0.0
  9
$PUCSORGBOTTOM
 10
0.0
 20
0.0
 30
0.0
  9
$PUCSORGLEFT
 10
0.0
 20
0.0
 30
0.0
  9
$PUCSORGRIGHT
 10
0.0
 20
0.0
 30
0.0
  9
$PUCSORGFRONT
 10
0.0
 20
0.0
 30
0.0
  9
$PUCSORGBACK
 10
0.0
 20
0.0
 30
0.0
  9
$USERI1
 70
0
  9
$USERI2
 70
0
  9
$USERI3
 70
0
  9
$USERI4
 70
0
  9
$USERI5
 70
0
  9
$USERR1
 40
0.0
  9
$USERR2
 40
0.0
  9
$USERR3
 40
0.0
  9
$USERR4
 40
0.0
  9
$USERR5
 40
0.0
  9
$WORLDVIEW
 70
1
  9
$SHADEDGE
 70
3
  9
$SHADEDIF
 70
70
  9
$TILEMODE
 70
1
  9
$MAXACTVP
 70
64
  9
$PINSBASE
 10
0.0
 20
0.0
 30
0.0
  9
$PLIMCHECK
 70
0
  9
$PEXTMIN
 10
1e+20
 20
1e+20
 30
1e+20
  9
$PEXTMAX
 10
-1e+20
 20
-1e+20
 30
-1e+20
  9
$PLIMMIN
 10
0.0
 20
0.0
  9
$PLIMMAX
 10
420.0
 20
297.0
  9
$UNITMODE
 70
0
  9
$VISRETAIN
 70
1
  9
$PLINEGEN
 70
0
  9
$PSLTSCALE
 70
1
  9
$TREEDEPTH
 70
3020
  9
$CMLSTYLE
  2
Standard
  9
$CMLJUST
 70
0
  9
$CMLSCALE
 40
20.0
  9
$PROXYGRAPHICS
 70
1
  9
$MEASUREMENT
 70
1
  9
$CELWEIGHT
370
-1
  9
$ENDCAPS
280
0
  9
$JOINSTYLE
280
0
  9
$LWDISPLAY
290
0
  9
$INSUNITS
 70
4
  9
$HYPERLINKBASE
  1

  9
$STYLESHEET
  1

  9
$XEDIT
290
1
  9
$CEPSNTYPE
380
0
  9
$PSTYLEMODE
290
1
  9
$FINGERPRINTGUID
  2
{819673A6-5036-4A3D-B1E9-C90CDC77E692}
  9
$VERSIONGUID
  2
{A6477AB1-D4E4-4132-8DE6-11F827262923}
  9
$EXTNAMES
290
1
  9
$PSVPSCALE
 40
0.0
  9
$OLESTARTUP
290
0
  0
ENDSEC
  0
SECTION
  2
CLASSES
  0
CLASS
  1
ACDBDICTIONARYWDFLT
  2
AcDbDictionaryWithDefault
  3
ObjectDBX Classes
 90
0
280
0
281
0
  0
CLASS
  1
SUN
  2
AcDbSun
  3
SCENEOE
 90
1153
280
0
281
0
  0
CLASS
  1
VISUALSTYLE
  2
AcDbVisualStyle
  3
ObjectDBX Classes
 90
4095
280
0
281
0
  0
CLASS
  1
MATERIAL
  2
AcDbMaterial
  3
ObjectDBX Classes
 90
1153
280
0
281
0
  0
CLASS
  1
SCALE
  2
AcDbScale
  3
ObjectDBX Classes
 90
1153
280
0
281
0
  0
CLASS
  1
TABLESTYLE
  2
AcDbTableStyle
  3
ObjectDBX Classes
 90
4095
280
0
281
0
  0
CLASS
  1
MLEADERSTYLE
  2
AcDbMLeaderStyle
  3
ACDB_MLEADERSTYLE_CLASS
 90
4095
280
0
281
0
  0
CLASS
  1
DICTIONARYVAR
  2
AcDbDictionaryVar
  3
ObjectDBX Classes
 90
0
280
0
281
0
  0
CLASS
  1
CELLSTYLEMAP
  2
AcDbCellStyleMap
  3
ObjectDBX Classes
 90
1152
280
0
281
0
  0
CLASS
  1
MENTALRAYRENDERSETTINGS
  2
AcDbMentalRayRenderSettings
  3
SCENEOE
 90
1024
280
0
281
0
  0
CLASS
  1
ACDBDETAILVIEWSTYLE
  2
AcDbDetailViewStyle
  3
ObjectDBX Classes
 90
1025
280
0
281
0
  0
CLASS
  1
ACDBSECTIONVIEWSTYLE
  2
AcDbSectionViewStyle
  3
ObjectDBX Classes
 90
1025
280
0
281
0
  0
CLASS
  1
RASTERVARIABLES
  2
AcDbRasterVariables
  3
ISM
 90
0
280
0
281
0
  0
CLASS
  1
ACDBPLACEHOLDER
  2
AcDbPlaceHolder
  3
ObjectDBX Classes
 90
0
280
0
281
0
  0
CLASS
  1
LAYOUT
  2
AcDbLayout
  3
ObjectDBX Classes
 90
0
280
0
281
0
  0
ENDSEC
  0
SECTION
  2
TABLES
  0
TABLE
  2
VPORT
  5
8
330
0
100
AcDbSymbolTable
 70
1
  0
VPORT
  5
23
330
8
100
AcDbSymbolTableRecord
100
AcDbViewportTableRecord
  2
*Active
 70
0
 10
0.0
 20
0.0
 11
1.0
 21
1.0
 12
0.0
 22
0.0
 13
0.0
 23
0.0
 14
0.5
 24
0.5
 15
0.5
 25
0.5
 16
0.0
 26
0.0
 36
1.0
 17
0.0
 27
0.0
 37
0.0
 40
1000.0
 41
1.34
 42
50.0
 43
0.0
 44
0.0
 50
0.0
 51
0.0
 71
0
 72
1000
 73
1
 74
3
 75
0
 76
0
 77
0
 78
0
281
0
 65
0
146
0.0
  0
ENDTAB
  0
TABLE
  2
LTYPE
  5
2
330
0
100
AcDbSymbolTable
 70
3
  0
LTYPE
  5
24
330
2
100
AcDbSymbolTableRecord
100
AcDbLinetypeTableRecord
  2
ByBlock
 70
0
  3

 72
65
 73
0
 40
0.0
  0
LTYPE
  5
25
330
2
100
AcDbSymbolTableRecord
100
AcDbLinetypeTableRecord
  2
ByLayer
 70
0
  3

 72
65
 73
0
 40
0.0
  0
LTYPE
  5
26
330
2
100
AcDbSymbolTableRecord
100
AcDbLinetypeTableRecord
  2
Continuous
 70
0
  3

 72
65
 73
0
 40
0.0
  0
ENDTAB
  0
TABLE
  2
LAYER
  5
1
330
0
100
AcDbSymbolTable
 70
4
  0
LAYER
  5
27
330
1
100
AcDbSymbolTableRecord
100
AcDbLayerTableRecord
  2
0
 70
0
 62
7
  6
Continuous
370
-3
390
13
  0
LAYER
  5
28
330
1
100
AcDbSymbolTableRecord
100
AcDbLayerTableRecord
  2
Defpoints
 70
0
 62
7
  6
Continuous
290
0
370
-3
390
13
  0
LAYER
  5
2F
330
1
100
AcDbSymbolTableRecord
100
AcDbLayerTableRecord
  2
CUT
 70
0
 62
1
  6
Continuous
370
-3
390
13
  0
LAYER
  5
30
330
1
100
AcDbSymbolTableRecord
100
AcDbLayerTableRecord
  2
RASTER
 70
0
 62
7
  6
Continuous
370
-3
390
13
  0
ENDTAB
  0
TABLE
  2
STYLE
  5
5
330
0
100
AcDbSymbolTable
 70
1
  0
STYLE
  5
29
330
5
100
AcDbSymbolTableRecord
100
AcDbTextStyleTableRecord
  2
Standard
 70
0
 40
0.0
 41
1.0
 50
0.0
 71
0
 42
2.5
  3
txt
  4

  0
ENDTAB
  0
TABLE
  2
VIEW
  5
7
330
0
100
AcDbSymbolTable
 70
0
  0
ENDTAB
  0
TABLE
  2
UCS
  5
6
330
0
100
AcDbSymbolTable
 70
0
  0
ENDTAB
  0
TABLE
  2
APPID
  5
3
330
0
100
AcDbSymbolTable
 70
3
  0
APPID
  5
2A
330
3
100
AcDbSymbolTableRecord
100
AcDbRegAppTableRecord
  2
ACAD
 70
0
  0
APPID
  5
65
330
3
100
AcDbSymbolTableRecord
100
AcDbRegAppTableRecord
  2
HATCHBACKGROUNDCOLOR
 70
0
  0
APPID
  5
66
330
3
100
AcDbSymbolTableRecord
100
AcDbRegAppTableRecord
  2
EZDXF
 70
0
  0
ENDTAB
  0
TABLE
  2
DIMSTYLE
  5
4
330
0
100
AcDbSymbolTable
 70
1
100
AcDbDimStyleTable
  0
DIMSTYLE
105
2B
330
4
100
AcDbSymbolTableRecord
100
AcDbDimStyleTableRecord
  2
Standard
 70
0
  3

  4

 40
1.0
 41
2.5
 42
0.625
 43
3.75
 44
1.25
 45
0.0
 46
0.0
 47
0.0
 48
0.0
140
2.5
141
2.5
142
0.0
143
0.03937007874
144
1.0
145
0.0
146
1.0
147
0.625
148
0.0
 71
0
 72
0
 73
0
 74
0
 75
0
 76
0
 77
1
 78
8
 79
3
170
0
171
3
172
1
173
0
174
0
175
0
176
0
177
0
178
0
179
2
271
2
272
2
273
2
274
3
275
0
276
0
277
2
278
44
279
0
280
0
281
0
282
0
283
0
284
8
285
0
286
0
288
0
289
3
371
-2
372
-2
  0
ENDTAB
  0
TABLE
  2
BLOCK_RECORD
  5
9
330
0
100
AcDbSymbolTable
 70
2
  0
BLOCK_RECORD
  5
17
330
9
100
AcDbSymbolTableRecord
100
AcDbBlockTableRecord
  2
*Model_Space
340
1A
  0
BLOCK_RECORD
  5
1B
330
9
100
AcDbSymbolTableRecord
100
AcDbBlockTableRecord
  2
*Paper_Space
340
1E
  0
ENDTAB
  0
ENDSEC
  0
SECTION
  2
BLOCKS
  0
BLOCK
  5
18
330
17
100
AcDbEntity
  8
0
100
AcDbBlockBegin
  2
*Model_Space
 70
0
 10
0.0
 20
0.0
 30
0.0
  3
*Model_Space
  1

  0
ENDBLK
  5
19
330
17
100
AcDbEntity
  8
0
100
AcDbBlockEnd
  0
BLOCK
  5
1C
330
1B
100
AcDbEntity
  8
0
100
AcDbBlockBegin
  2
*Paper_Space
 70
0
 10
0.0
 20
0.0
 30
0.0
  3
*Paper_Space
  1

  0
ENDBLK
  5
1D
330
1B
100
AcDbEntity
  8
0
100
AcDbBlockEnd
  0
ENDSEC
  0
SECTION
  2
ENTITIES
  0
LWPOLYLINE
  5
31
330
17
100
AcDbEntity
  8
CUT
100
AcDbPolyline
 90
38
 70
1
 10
5.656
 20
31.037
 10
15.958
 20
31.037
 10
16.987
 20
31.002
 10
17.965
 20
30.894
 10
18.891
 20
30.716
 10
19.769
 20
30.469
 10
20.601
 20
30.153
 10
21.391
 20
29.769
 10
22.141
 20
29.32
 10
22.855
 20
28.805
 10
23.535
 20
28.228
 10
24.184
 20
27.587
 10
24.807
 20
26.886
 10
25.47
 20
26.043
 10
24.807
 20
25.2
 10
24.184
 20
24.499
 10
23.535
 20
23.859
 10
22.855
 20
23.281
 10
22.141
 20
22.766
 10
21.391
 20
22.317
 10
20.601
 20
21.933
 10
19.769
 20
21.617
 10
18.891
 20
21.37
 10
17.965
 20
21.192
 10
16.987
 20
21.085
 10
15.958
 20
21.049
 10
5.656
 20
21.049
 10
5.084
 20
21.262
 10
4.627
 20
21.836
 10
4.289
 20
22.662
 10
4.051
 20
23.681
 10
3.91
 20
24.829
 10
3.862
 20
26.043
 10
3.91
 20
27.257
 10
4.051
 20
28.406
 10
4.289
 20
29.424
 10
4.627
 20
30.251
 10
5.084
 20
30.824
  0
HATCH
  5
32
330
17
100
AcDbEntity
  8
RASTER
 62
7
100
AcDbHatch
 10
0.0
 20
0.0
 30
0.0
210
0.0
220
0.0
230
1.0
  2
SOLID
 70
1
 71
0
 91
1
 92
3
 72
0
 73
1
 93
4
 10
5.868
 20
29.051
 10
21.279
 20
29.051
 10
21.279
 20
28.64
 10
5.868
 20
28.64
 97
0
 75
0
 76
1
 98
0
  0
HATCH
  5
33
330
17
100
AcDbEntity
  8
RASTER
 62
7
100
AcDbHatch
 10
0.0
 20
0.0
 30
0.0
210
0.0
220
0.0
230
1.0
  2
SOLID
 70
1
 71
0
 91
1
 92
3
 72
0
 73
1
 93
4
 10
5.868
 20
26.249
 10
21.279
 20
26.249
 10
21.279
 20
25.838
 10
5.868
 20
25.838
 97
0
 75
0
 76
1
 98
0
  0
HATCH
  5
34
330
17
100
AcDbEntity
  8
RASTER
 62
7
100
AcDbHatch
 10
0.0
 20
0.0
 30
0.0
210
0.0
220
0.0
230
1.0
  2
SOLID
 70
1
 71
0
 91
1
 92
3
 72
0
 73
1
 93
4
 10
5.868
 20
23.447
 10
21.279
 20
23.447
 10
21.279
 20
23.036
 10
5.868
 20
23.036
 97
0
 75
0
 76
1
 98
0
  0
HATCH
  5
35
330
17
100
AcDbEntity
  8
RASTER
 62
7
100
AcDbHatch
 10
0.0
 20
0.0
 30
0.0
210
0.0
220
0.0
230
1.0
  2
SOLID
 70
1
 71
0
 91
1
 92
3
 72
0
 73
1
 93
4
 10
4.374
 20
26.323
 10
5.868
 20
26.323
 10
5.868
 20
25.763
 10
4.374
 20
25.763
 97
0
 75
0
 76
1
 98
0
  0
LWPOLYLINE
  5
36
330
17
100
AcDbEntity
  8
CUT
100
AcDbPolyline
 90
4
 70
1
 10
8.447
 20
29.406
 10
11.322
 20
29.406
 10
11.322
 20
22.681
 10
8.447
 20
22.681
  0
LWPOLYLINE
  5
37
330
17
100
AcDbEntity
  8
CUT
100
AcDbPolyline
 90
4
 70
1
 10
15.919
 20
29.406
 10
18.794
 20
29.406
 10
18.794
 20
22.681
 10
15.919
 20
22.681
  0
LWPOLYLINE
  5
38
330
17
100
AcDbEntity
  8
CUT
100
AcDbPolyline
 90
18
 70
1
 10
35.455
 20
30.94
 10
38.135
 20
30.94
 10
38.135
 20
28.94
 10
44.335
 20
28.94
 10
44.335
 20
15.877
 10
41.51
 20
14.262
 10
38.135
 20
13.468
 10
38.135
 20
9.94
 10
40.285
 20
9.94
 10
40.285
 20
3.96
 10
33.305
 20
3.96
 10
33.305
 20
9.94
 10
35.455
 20
9.94
 10
35.455
 20
13.466
 10
30.775
 20
14.263
 10
29.255
 20
15.884
 10
29.255
 20
28.94
 10
35.455
 20
28.94
  0
HATCH
  5
39
330
17
100
AcDbEntity
  8
RASTER
 62
7
100
AcDbHatch
 10
0.0
 20
0.0
 30
0.0
210
0.0
220
0.0
230
1.0
  2
SOLID
 70
1
 71
0
 91
1
 92
3
 72
0
 73
1
 93
4
 10
29.295
 20
28.3
 10
44.295
 20
28.3
 10
44.295
 20
27.8
 10
29.295
 20
27.8
 97
0
 75
0
 76
1
 98
0
  0
HATCH
  5
3A
330
17
100
AcDbEntity
  8
RASTER
 62
7
100
AcDbHatch
 10
0.0
 20
0.0
 30
0.0
210
0.0
220
0.0
230
1.0
  2
SOLID
 70
1
 71
0
 91
4
 92
3
 72
0
 73
1
 93
45
 10
36.479
 20
26.49
 10
37.047
 20
26.5
 10
37.733
 20
26.382
 10
38.152
 20
26.224
 10
38.587
 20
25.955
 10
38.838
 20
25.728
 10
39.175
 20
25.211
 10
39.419
 20
24.575
 10
39.509
 20
24.062
 10
39.444
 20
23.499
 10
39.024
 20
22.587
 10
39.007
 20
22.303
 10
39.107
 20
21.876
 10
39.032
 20
21.599
 10
38.906
 20
21.474
 10
38.715
 20
21.388
 10
37.979
 20
21.27
 10
37.876
 20
21.097
 10
37.951
 20
20.619
 10
37.908
 20
20.461
 10
37.589
 20
20.278
 10
36.971
 20
20.167
 10
36.594
 20
20.167
 10
36.159
 20
20.235
 10
35.74
 20
20.393
 10
35.639
 20
20.494
 10
35.614
 20
20.594
 10
35.689
 20
20.996
 10
35.657
 20
21.215
 10
35.496
 20
21.305
 10
34.87
 20
21.383
 10
34.591
 20
21.532
 10
34.483
 20
21.801
 10
34.501
 20
22.059
 10
34.584
 20
22.328
 10
34.543
 20
22.615
 10
34.239
 20
23.215
 10
34.081
 20
23.761
 10
34.081
 20
24.188
 10
34.172
 20
24.625
 10
34.415
 20
25.236
 10
34.677
 20
25.653
 10
35.114
 20
26.045
 10
35.521
 20
26.266
 10
35.956
 20
26.41
 97
0
 92
2
 72
0
 73
1
 93
15
 10
35.722
 20
23.175
 10
35.363
 20
23.082
 10
35.204
 20
22.964
 10
35.046
 20
22.695
 10
35.013
 20
22.507
 10
35.069
 20
22.311
 10
35.179
 20
22.17
 10
35.378
 20
22.067
 10
35.815
 20
22.077
 10
36.031
 20
22.137
 10
36.225
 20
22.27
 10
36.383
 20
22.565
 10
36.378
 20
22.841
 10
36.26
 20
23.05
 10
36.051
 20
23.168
 97
0
 92
2
 72
0
 73
1
 93
14
 10
37.557
 20
23.175
 10
37.366
 20
23.09
 10
37.207
 20
22.871
 10
37.207
 20
22.539
 10
37.341
 20
22.296
 10
37.609
 20
22.112
 10
38.001
 20
22.052
 10
38.213
 20
22.067
 10
38.436
 20
22.195
 10
38.539
 20
22.394
 10
38.554
 20
22.58
 10
38.411
 20
22.914
 10
38.253
 20
23.057
 10
38.062
 20
23.143
 97
0
 92
3
 72
0
 73
1
 93
70
 10
33.689
 20
20.961
 10
33.913
 20
20.954
 10
34.106
 20
20.871
 10
34.551
 20
20.411
 10
34.971
 20
20.127
 10
36.77
 20
19.363
 10
37.19
 20
19.496
 10
38.703
 20
20.17
 10
39.039
 20
20.411
 10
39.426
 20
20.828
 10
39.567
 20
20.913
 10
39.786
 20
20.971
 10
40.012
 20
20.921
 10
40.145
 20
20.702
 10
40.153
 20
20.408
 10
40.321
 20
20.275
 10
40.407
 20
20.134
 10
40.404
 20
19.875
 10
40.296
 20
19.732
 10
40.014
 20
19.612
 10
39.585
 20
19.614
 10
39.067
 20
19.529
 10
37.868
 20
19.019
 10
37.826
 20
18.936
 10
37.886
 20
18.845
 10
38.992
 20
18.368
 10
39.534
 20
18.257
 10
40.097
 20
18.242
 10
40.296
 20
18.139
 10
40.404
 20
17.996
 10
40.404
 20
17.739
 10
40.321
 20
17.596
 10
40.153
 20
17.463
 10
40.112
 20
17.076
 10
39.921
 20
16.915
 10
39.786
 20
16.9
 10
39.567
 20
16.958
 10
39.401
 20
17.068
 10
39.014
 20
17.486
 10
38.753
 20
17.677
 10
36.964
 20
18.476
 10
36.745
 20
18.508
 10
34.838
 20
17.677
 10
34.576
 20
17.486
 10
34.189
 20
17.068
 10
34.023
 20
16.958
 10
33.805
 20
16.9
 10
33.581
 20
16.953
 10
33.445
 20
17.169
 10
33.438
 20
17.463
 10
33.269
 20
17.596
 10
33.186
 20
17.739
 10
33.186
 20
17.996
 10
33.294
 20
18.139
 10
33.493
 20
18.242
 10
34.056
 20
18.257
 10
34.599
 20
18.368
 10
35.705
 20
18.845
 10
35.765
 20
18.936
 10
35.722
 20
19.019
 10
34.523
 20
19.529
 10
34.006
 20
19.614
 10
33.576
 20
19.612
 10
33.294
 20
19.732
 10
33.186
 20
19.875
 10
33.184
 20
20.134
 10
33.269
 20
20.275
 10
33.438
 20
20.408
 10
33.428
 20
20.594
 10
33.503
 20
20.846
 97
0
 75
0
 76
1
 98
0
  0
LWPOLYLINE
  5
3B
330
17
100
AcDbEntity
  8
CUT
100
AcDbPolyline
 90
18
 70
1
 10
52.955
 20
30.94
 10
55.635
 20
30.94
 10
55.635
 20
28.94
 10
60.335
 20
28.94
 10
60.335
 20
17.877
 10
57.513
 20
16.264
 10
55.635
 20
15.473
 10
55.635
 20
11.94
 10
57.785
 20
11.94
 10
57.785
 20
5.96
 10
50.805
 20
5.96
 10
50.805
 20
11.94
 10
52.955
 20
11.94
 10
52.955
 20
15.469
 10
49.774
 20
16.264
 10
48.255
 20
17.884
 10
48.255
 20
28.94
 10
52.955
 20
28.94
  0
HATCH
  5
3C
330
17
100
AcDbEntity
  8
RASTER
 62
7
100
AcDbHatch
 10
0.0
 20
0.0
 30
0.0
210
0.0
220
0.0
230
1.0
  2
SOLID
 70
1
 71
0
 91
1
 92
3
 72
0
 73
1
 93
4
 10
48.295
 20
28.3
 10
60.295
 20
28.3
 10
60.295
 20
27.8
 10
48.295
 20
27.8
 97
0
 75
0
 76
1
 98
0
  0
HATCH
  5
3D
330
17
100
AcDbEntity
  8
RASTER
 62
7
100
AcDbHatch
 10
0.0
 20
0.0
 30
0.0
210
0.0
220
0.0
230
1.0
  2
SOLID
 70
1
 71
0
 91
4
 92
3
 72
0
 73
1
 93
45
 10
54.045
 20
26.492
 10
54.494
 20
26.5
 10
55.037
 20
26.406
 10
55.37
 20
26.281
 10
55.714
 20
26.068
 10
55.913
 20
25.889
 10
56.179
 20
25.479
 10
56.372
 20
24.976
 10
56.444
 20
24.57
 10
56.392
 20
24.125
 10
56.06
 20
23.402
 10
56.046
 20
23.177
 10
56.126
 20
22.839
 10
56.066
 20
22.62
 10
55.966
 20
22.521
 10
55.815
 20
22.453
 10
55.232
 20
22.36
 10
55.151
 20
22.223
 10
55.21
 20
21.845
 10
55.177
 20
21.719
 10
54.924
 20
21.574
 10
54.434
 20
21.486
 10
54.136
 20
21.486
 10
53.792
 20
21.54
 10
53.46
 20
21.665
 10
53.38
 20
21.745
 10
53.36
 20
21.825
 10
53.42
 20
22.143
 10
53.394
 20
22.316
 10
53.267
 20
22.388
 10
52.771
 20
22.449
 10
52.55
 20
22.567
 10
52.465
 20
22.78
 10
52.479
 20
22.985
 10
52.544
 20
23.197
 10
52.513
 20
23.424
 10
52.272
 20
23.9
 10
52.147
 20
24.331
 10
52.147
 20
24.67
 10
52.218
 20
25.016
 10
52.411
 20
25.499
 10
52.618
 20
25.83
 10
52.964
 20
26.14
 10
53.287
 20
26.315
 10
53.631
 20
26.428
 97
0
 92
2
 72
0
 73
1
 93
15
 10
53.446
 20
23.868
 10
53.161
 20
23.794
 10
53.036
 20
23.701
 10
52.91
 20
23.488
 10
52.885
 20
23.339
 10
52.928
 20
23.183
 10
53.016
 20
23.072
 10
53.173
 20
22.99
 10
53.519
 20
22.998
 10
53.69
 20
23.046
 10
53.844
 20
23.152
 10
53.969
 20
23.384
 10
53.965
 20
23.603
 10
53.871
 20
23.768
 10
53.706
 20
23.862
 97
0
 92
2
 72
0
 73
1
 93
14
 10
54.898
 20
23.868
 10
54.747
 20
23.8
 10
54.621
 20
23.627
 10
54.621
 20
23.365
 10
54.727
 20
23.172
 10
54.94
 20
23.026
 10
55.25
 20
22.979
 10
55.417
 20
22.99
 10
55.594
 20
23.092
 10
55.676
 20
23.249
 10
55.688
 20
23.396
 10
55.574
 20
23.661
 10
55.449
 20
23.774
 10
55.298
 20
23.842
 97
0
 92
3
 72
0
 73
1
 93
70
 10
51.836
 20
22.115
 10
52.013
 20
22.109
 10
52.166
 20
22.043
 10
52.519
 20
21.679
 10
52.851
 20
21.455
 10
54.275
 20
20.85
 10
54.608
 20
20.955
 10
55.805
 20
21.488
 10
56.072
 20
21.679
 10
56.378
 20
22.01
 10
56.49
 20
22.077
 10
56.663
 20
22.123
 10
56.842
 20
22.083
 10
56.947
 20
21.91
 10
56.953
 20
21.677
 10
57.087
 20
21.572
 10
57.154
 20
21.461
 10
57.152
 20
21.256
 10
57.067
 20
21.142
 10
56.844
 20
21.047
 10
56.504
 20
21.049
 10
56.094
 20
20.981
 10
55.145
 20
20.577
 10
55.111
 20
20.512
 10
55.159
 20
20.44
 10
56.034
 20
20.062
 10
56.464
 20
19.974
 10
56.909
 20
19.962
 10
57.067
 20
19.881
 10
57.152
 20
19.767
 10
57.152
 20
19.565
 10
57.087
 20
19.451
 10
56.953
 20
19.346
 10
56.921
 20
19.039
 10
56.77
 20
18.912
 10
56.663
 20
18.9
 10
56.49
 20
18.946
 10
56.358
 20
19.033
 10
56.052
 20
19.364
 10
55.845
 20
19.515
 10
54.428
 20
20.147
 10
54.255
 20
20.173
 10
52.745
 20
19.515
 10
52.538
 20
19.364
 10
52.232
 20
19.033
 10
52.101
 20
18.946
 10
51.928
 20
18.9
 10
51.751
 20
18.942
 10
51.643
 20
19.113
 10
51.637
 20
19.346
 10
51.504
 20
19.451
 10
51.438
 20
19.565
 10
51.438
 20
19.767
 10
51.524
 20
19.881
 10
51.681
 20
19.962
 10
52.127
 20
19.974
 10
52.556
 20
20.062
 10
53.432
 20
20.44
 10
53.479
 20
20.512
 10
53.446
 20
20.577
 10
52.497
 20
20.981
 10
52.087
 20
21.049
 10
51.747
 20
21.047
 10
51.524
 20
21.142
 10
51.438
 20
21.256
 10
51.436
 20
21.461
 10
51.504
 20
21.572
 10
51.637
 20
21.677
 10
51.629
 20
21.825
 10
51.689
 20
22.024
 97
0
 75
0
 76
1
 98
0
  0
LWPOLYLINE
  5
3E
330
17
100
AcDbEntity
  8
CUT
100
AcDbPolyline
 90
38
 70
1
 10
65.952
 20
31.037
 10
76.253
 20
31.037
 10
77.282
 20
31.002
 10
78.26
 20
30.894
 10
79.186
 20
30.716
 10
80.064
 20
30.469
 10
80.897
 20
30.153
 10
81.686
 20
29.769
 10
82.437
 20
29.32
 10
83.15
 20
28.805
 10
83.83
 20
28.228
 10
84.479
 20
27.587
 10
85.102
 20
26.886
 10
85.765
 20
26.043
 10
85.102
 20
25.2
 10
84.479
 20
24.499
 10
83.83
 20
23.859
 10
83.15
 20
23.281
 10
82.437
 20
22.766
 10
81.686
 20
22.317
 10
80.897
 20
21.933
 10
80.064
 20
21.617
 10
79.186
 20
21.37
 10
78.26
 20
21.192
 10
77.282
 20
21.085
 10
76.253
 20
21.049
 10
65.952
 20
21.049
 10
65.379
 20
21.262
 10
64.923
 20
21.836
 10
64.584
 20
22.662
 10
64.346
 20
23.681
 10
64.205
 20
24.829
 10
64.158
 20
26.043
 10
64.205
 20
27.257
 10
64.346
 20
28.406
 10
64.584
 20
29.424
 10
64.923
 20
30.251
 10
65.379
 20
30.824
  0
HATCH
  5
3F
330
17
100
AcDbEntity
  8
RASTER
 62
7
100
AcDbHatch
 10
0.0
 20
0.0
 30
0.0
210
0.0
220
0.0
230
1.0
  2
SOLID
 70
1
 71
0
 91
1
 92
3
 72
0
 73
1
 93
4
 10
66.163
 20
29.051
 10
81.574
 20
29.051
 10
81.574
 20
28.64
 10
66.163
 20
28.64
 97
0
 75
0
 76
1
 98
0
  0
HATCH
  5
40
330
17
100
AcDbEntity
  8
RASTER
 62
7
100
AcDbHatch
 10
0.0
 20
0.0
 30
0.0
210
0.0
220
0.0
230
1.0
  2
SOLID
 70
1
 71
0
 91
1
 92
3
 72
0
 73
1
 93
4
 10
66.163
 20
26.249
 10
81.574
 20
26.249
 10
81.574
 20
25.838
 10
66.163
 20
25.838
 97
0
 75
0
 76
1
 98
0
  0
HATCH
  5
41
330
17
100
AcDbEntity
  8
RASTER
 62
7
100
AcDbHatch
 10
0.0
 20
0.0
 30
0.0
210
0.0
220
0.0
230
1.0
  2
SOLID
 70
1
 71
0
 91
1
 92
3
 72
0
 73
1
 93
4
 10
66.163
 20
23.447
 10
81.574
 20
23.447
 10
81.574
 20
23.036
 10
66.163
 20
23.036
 97
0
 75
0
 76
1
 98
0
  0
HATCH
  5
42
330
17
100
AcDbEntity
  8
RASTER
 62
7
100
AcDbHatch
 10
0.0
 20
0.0
 30
0.0
210
0.0
220
0.0
230
1.0
  2
SOLID
 70
1
 71
0
 91
1
 92
3
 72
0
 73
1
 93
4
 10
64.669
 20
26.323
 10
66.163
 20
26.323
 10
66.163
 20
25.763
 10
64.669
 20
25.763
 97
0
 75
0
 76
1
 98
0
  0
LWPOLYLINE
  5
43
330
17
100
AcDbEntity
  8
CUT
100
AcDbPolyline
 90
4
 70
1
 10
68.742
 20
29.406
 10
71.617
 20
29.406
 10
71.617
 20
22.681
 10
68.742
 20
22.681
  0
LWPOLYLINE
  5
44
330
17
100
AcDbEntity
  8
CUT
100
AcDbPolyline
 90
4
 70
1
 10
76.214
 20
29.406
 10
79.089
 20
29.406
 10
79.089
 20
22.681
 10
76.214
 20
22.681
  0
LWPOLYLINE
  5
45
330
17
100
AcDbEntity
  8
CUT
100
AcDbPolyline
 90
18
 70
1
 10
95.75
 20
30.94
 10
98.43
 20
30.94
 10
98.43
 20
28.94
 10
104.63
 20
28.94
 10
104.63
 20
15.877
 10
101.805
 20
14.262
 10
98.43
 20
13.468
 10
98.43
 20
9.94
 10
100.58
 20
9.94
 10
100.58
 20
3.96
 10
93.6
 20
3.96
 10
93.6
 20
9.94
 10
95.75
 20
9.94
 10
95.75
 20
13.466
 10
91.07
 20
14.263
 10
89.55
 20
15.884
 10
89.55
 20
28.94
 10
95.75
 20
28.94
  0
HATCH
  5
46
330
17
100
AcDbEntity
  8
RASTER
 62
7
100
AcDbHatch
 10
0.0
 20
0.0
 30
0.0
210
0.0
220
0.0
230
1.0
  2
SOLID
 70
1
 71
0
 91
1
 92
3
 72
0
 73
1
 93
4
 10
89.59
 20
28.3
 10
104.59
 20
28.3
 10
104.59
 20
27.8
 10
89.59
 20
27.8
 97
0
 75
0
 76
1
 98
0
  0
HATCH
  5
47
330
17
100
AcDbEntity
  8
RASTER
 62
7
100
AcDbHatch
 10
0.0
 20
0.0
 30
0.0
210
0.0
220
0.0
230
1.0
  2
SOLID
 70
1
 71
0
 91
4
 92
3
 72
0
 73
1
 93
45
 10
96.774
 20
26.49
 10
97.342
 20
26.5
 10
98.028
 20
26.382
 10
98.447
 20
26.224
 10
98.882
 20
25.955
 10
99.134
 20
25.728
 10
99.47
 20
25.211
 10
99.714
 20
24.575
 10
99.805
 20
24.062
 10
99.739
 20
23.499
 10
99.32
 20
22.587
 10
99.302
 20
22.303
 10
99.402
 20
21.876
 10
99.327
 20
21.599
 10
99.201
 20
21.474
 10
99.01
 20
21.388
 10
98.274
 20
21.27
 10
98.171
 20
21.097
 10
98.246
 20
20.619
 10
98.204
 20
20.461
 10
97.885
 20
20.278
 10
97.266
 20
20.167
 10
96.889
 20
20.167
 10
96.455
 20
20.235
 10
96.035
 20
20.393
 10
95.934
 20
20.494
 10
95.909
 20
20.594
 10
95.985
 20
20.996
 10
95.952
 20
21.215
 10
95.791
 20
21.305
 10
95.165
 20
21.383
 10
94.886
 20
21.532
 10
94.778
 20
21.801
 10
94.796
 20
22.059
 10
94.879
 20
22.328
 10
94.839
 20
22.615
 10
94.535
 20
23.215
 10
94.376
 20
23.761
 10
94.376
 20
24.188
 10
94.467
 20
24.625
 10
94.711
 20
25.236
 10
94.972
 20
25.653
 10
95.409
 20
26.045
 10
95.816
 20
26.266
 10
96.251
 20
26.41
 97
0
 92
2
 72
0
 73
1
 93
15
 10
96.017
 20
23.175
 10
95.658
 20
23.082
 10
95.5
 20
22.964
 10
95.341
 20
22.695
 10
95.309
 20
22.507
 10
95.364
 20
22.311
 10
95.474
 20
22.17
 10
95.673
 20
22.067
 10
96.11
 20
22.077
 10
96.326
 20
22.137
 10
96.52
 20
22.27
 10
96.678
 20
22.565
 10
96.673
 20
22.841
 10
96.555
 20
23.05
 10
96.347
 20
23.168
 97
0
 92
2
 72
0
 73
1
 93
14
 10
97.852
 20
23.175
 10
97.661
 20
23.09
 10
97.503
 20
22.871
 10
97.503
 20
22.539
 10
97.636
 20
22.296
 10
97.905
 20
22.112
 10
98.297
 20
22.052
 10
98.508
 20
22.067
 10
98.731
 20
22.195
 10
98.834
 20
22.394
 10
98.85
 20
22.58
 10
98.706
 20
22.914
 10
98.548
 20
23.057
 10
98.357
 20
23.143
 97
0
 92
3
 72
0
 73
1
 93
70
 10
93.984
 20
20.961
 10
94.208
 20
20.954
 10
94.401
 20
20.871
 10
94.846
 20
20.411
 10
95.266
 20
20.127
 10
97.065
 20
19.363
 10
97.485
 20
19.496
 10
98.998
 20
20.17
 10
99.335
 20
20.411
 10
99.722
 20
20.828
 10
99.862
 20
20.913
 10
100.081
 20
20.971
 10
100.307
 20
20.921
 10
100.44
 20
20.702
 10
100.448
 20
20.408
 10
100.616
 20
20.275
 10
100.702
 20
20.134
 10
100.699
 20
19.875
 10
100.591
 20
19.732
 10
100.31
 20
19.612
 10
99.88
 20
19.614
 10
99.362
 20
19.529
 10
98.163
 20
19.019
 10
98.121
 20
18.936
 10
98.181
 20
18.845
 10
99.287
 20
18.368
 10
99.83
 20
18.257
 10
100.393
 20
18.242
 10
100.591
 20
18.139
 10
100.699
 20
17.996
 10
100.699
 20
17.739
 10
100.616
 20
17.596
 10
100.448
 20
17.463
 10
100.408
 20
17.076
 10
100.217
 20
16.915
 10
100.081
 20
16.9
 10
99.862
 20
16.958
 10
99.696
 20
17.068
 10
99.309
 20
17.486
 10
99.048
 20
17.677
 10
97.259
 20
18.476
 10
97.04
 20
18.508
 10
95.133
 20
17.677
 10
94.871
 20
17.486
 10
94.484
 20
17.068
 10
94.318
 20
16.958
 10
94.1
 20
16.9
 10
93.876
 20
16.953
 10
93.74
 20
17.169
 10
93.733
 20
17.463
 10
93.565
 20
17.596
 10
93.482
 20
17.739
 10
93.482
 20
17.996
 10
93.59
 20
18.139
 10
93.788
 20
18.242
 10
94.351
 20
18.257
 10
94.894
 20
18.368
 10
96.0
 20
18.845
 10
96.06
 20
18.936
 10
96.017
 20
19.019
 10
94.819
 20
19.529
 10
94.301
 20
19.614
 10
93.871
 20
19.612
 10
93.59
 20
19.732
 10
93.482
 20
19.875
 10
93.479
 20
20.134
 10
93.565
 20
20.275
 10
93.733
 20
20.408
 10
93.723
 20
20.594
 10
93.798
 20
20.846
 97
0
 75
0
 76
1
 98
0
  0
LWPOLYLINE
  5
48
330
17
100
AcDbEntity
  8
CUT
100
AcDbPolyline
 90
18
 70
1
 10
113.25
 20
30.94
 10
115.93
 20
30.94
 10
115.93
 20
28.94
 10
120.63
 20
28.94
 10
120.63
 20
17.877
 10
117.808
 20
16.264
 10
115.93
 20
15.473
 10
115.93
 20
11.94
 10
118.08
 20
11.94
 10
118.08
 20
5.96
 10
111.1
 20
5.96
 10
111.1
 20
11.94
 10
113.25
 20
11.94
 10
113.25
 20
15.469
 10
110.069
 20
16.264
 10
108.55
 20
17.884
 10
108.55
 20
28.94
 10
113.25
 20
28.94
  0
HATCH
  5
49
330
17
100
AcDbEntity
  8
RASTER
 62
7
100
AcDbHatch
 10
0.0
 20
0.0
 30
0.0
210
0.0
220
0.0
230
1.0
  2
SOLID
 70
1
 71
0
 91
1
 92
3
 72
0
 73
1
 93
4
 10
108.59
 20
28.3
 10
120.59
 20
28.3
 10
120.59
 20
27.8
 10
108.59
 20
27.8
 97
0
 75
0
 76
1
 98
0
  0
HATCH
  5
4A
330
17
100
AcDbEntity
  8
RASTER
 62
7
100
AcDbHatch
 10
0.0
 20
0.0
 30
0.0
210
0.0
220
0.0
230
1.0
  2
SOLID
 70
1
 71
0
 91
4
 92
3
 72
0
 73
1
 93
45
 10
114.34
 20
26.492
 10
114.789
 20
26.5
 10
115.332
 20
26.406
 10
115.665
 20
26.281
 10
116.009
 20
26.068
 10
116.208
 20
25.889
 10
116.474
 20
25.479
 10
116.667
 20
24.976
 10
116.739
 20
24.57
 10
116.687
 20
24.125
 10
116.355
 20
23.402
 10
116.341
 20
23.177
 10
116.421
 20
22.839
 10
116.361
 20
22.62
 10
116.262
 20
22.521
 10
116.11
 20
22.453
 10
115.527
 20
22.36
 10
115.446
 20
22.223
 10
115.506
 20
21.845
 10
115.472
 20
21.719
 10
115.219
 20
21.574
 10
114.73
 20
21.486
 10
114.431
 20
21.486
 10
114.087
 20
21.54
 10
113.755
 20
21.665
 10
113.675
 20
21.745
 10
113.655
 20
21.825
 10
113.715
 20
22.143
 10
113.689
 20
22.316
 10
113.562
 20
22.388
 10
113.066
 20
22.449
 10
112.846
 20
22.567
 10
112.76
 20
22.78
 10
112.774
 20
22.985
 10
112.84
 20
23.197
 10
112.808
 20
23.424
 10
112.567
 20
23.9
 10
112.442
 20
24.331
 10
112.442
 20
24.67
 10
112.513
 20
25.016
 10
112.706
 20
25.499
 10
112.913
 20
25.83
 10
113.259
 20
26.14
 10
113.582
 20
26.315
 10
113.926
 20
26.428
 97
0
 92
2
 72
0
 73
1
 93
15
 10
113.741
 20
23.868
 10
113.456
 20
23.794
 10
113.331
 20
23.701
 10
113.206
 20
23.488
 10
113.18
 20
23.339
 10
113.224
 20
23.183
 10
113.311
 20
23.072
 10
113.468
 20
22.99
 10
113.814
 20
22.998
 10
113.986
 20
23.046
 10
114.139
 20
23.152
 10
114.264
 20
23.384
 10
114.26
 20
23.603
 10
114.167
 20
23.768
 10
114.001
 20
23.862
 97
0
 92
2
 72
0
 73
1
 93
14
 10
115.193
 20
23.868
 10
115.042
 20
23.8
 10
114.917
 20
23.627
 10
114.917
 20
23.365
 10
115.022
 20
23.172
 10
115.235
 20
23.026
 10
115.545
 20
22.979
 10
115.712
 20
22.99
 10
115.89
 20
23.092
 10
115.971
 20
23.249
 10
115.983
 20
23.396
 10
115.87
 20
23.661
 10
115.744
 20
23.774
 10
115.593
 20
23.842
 97
0
 92
3
 72
0
 73
1
 93
70
 10
112.131
 20
22.115
 10
112.308
 20
22.109
 10
112.462
 20
22.043
 10
112.814
 20
21.679
 10
113.146
 20
21.455
 10
114.571
 20
20.85
 10
114.903
 20
20.955
 10
116.1
 20
21.488
 10
116.367
 20
21.679
 10
116.673
 20
22.01
 10
116.785
 20
22.077
 10
116.958
 20
22.123
 10
117.137
 20
22.083
 10
117.242
 20
21.91
 10
117.248
 20
21.677
 10
117.382
 20
21.572
 10
117.449
 20
21.461
 10
117.447
 20
21.256
 10
117.362
 20
21.142
 10
117.139
 20
21.047
 10
116.799
 20
21.049
 10
116.389
 20
20.981
 10
115.44
 20
20.577
 10
115.406
 20
20.512
 10
115.454
 20
20.44
 10
116.329
 20
20.062
 10
116.759
 20
19.974
 10
117.205
 20
19.962
 10
117.362
 20
19.881
 10
117.447
 20
19.767
 10
117.447
 20
19.565
 10
117.382
 20
19.451
 10
117.248
 20
19.346
 10
117.217
 20
19.039
 10
117.065
 20
18.912
 10
116.958
 20
18.9
 10
116.785
 20
18.946
 10
116.654
 20
19.033
 10
116.347
 20
19.364
 10
116.14
 20
19.515
 10
114.724
 20
20.147
 10
114.551
 20
20.173
 10
113.041
 20
19.515
 10
112.834
 20
19.364
 10
112.527
 20
19.033
 10
112.396
 20
18.946
 10
112.223
 20
18.9
 10
112.046
 20
18.942
 10
111.938
 20
19.113
 10
111.932
 20
19.346
 10
111.799
 20
19.451
 10
111.733
 20
19.565
 10
111.733
 20
19.767
 10
111.819
 20
19.881
 10
111.976
 20
19.962
 10
112.422
 20
19.974
 10
112.852
 20
20.062
 10
113.727
 20
20.44
 10
113.775
 20
20.512
 10
113.741
 20
20.577
 10
112.792
 20
20.981
 10
112.382
 20
21.049
 10
112.042
 20
21.047
 10
111.819
 20
21.142
 10
111.733
 20
21.256
 10
111.731
 20
21.461
 10
111.799
 20
21.572
 10
111.932
 20
21.677
 10
111.924
 20
21.825
 10
111.984
 20
22.024
 97
0
 75
0
 76
1
 98
0
  0
LWPOLYLINE
  5
4B
330
17
100
AcDbEntity
  8
CUT
100
AcDbPolyline
 90
38
 70
1
 10
126.247
 20
31.037
 10
136.548
 20
31.037
 10
137.578
 20
31.002
 10
138.555
 20
30.894
 10
139.481
 20
30.716
 10
140.359
 20
30.469
 10
141.192
 20
30.153
 10
141.982
 20
29.769
 10
142.732
 20
29.32
 10
143.445
 20
28.805
 10
144.125
 20
28.228
 10
144.775
 20
27.587
 10
145.397
 20
26.886
 10
146.061
 20
26.043
 10
145.397
 20
25.2
 10
144.775
 20
24.499
 10
144.125
 20
23.859
 10
143.445
 20
23.281
 10
142.732
 20
22.766
 10
141.982
 20
22.317
 10
141.192
 20
21.933
 10
140.359
 20
21.617
 10
139.481
 20
21.37
 10
138.555
 20
21.192
 10
137.578
 20
21.085
 10
136.548
 20
21.049
 10
126.247
 20
21.049
 10
125.674
 20
21.262
 10
125.218
 20
21.836
 10
124.879
 20
22.662
 10
124.642
 20
23.681
 10
124.5
 20
24.829
 10
124.453
 20
26.043
 10
124.5
 20
27.257
 10
124.642
 20
28.406
 10
124.879
 20
29.424
 10
125.218
 20
30.251
 10
125.674
 20
30.824
  0
HATCH
  5
4C
330
17
100
AcDbEntity
  8
RASTER
 62
7
100
AcDbHatch
 10
0.0
 20
0.0
 30
0.0
210
0.0
220
0.0
230
1.0
  2
SOLID
 70
1
 71
0
 91
1
 92
3
 72
0
 73
1
 93
4
 10
126.458
 20
29.051
 10
141.869
 20
29.051
 10
141.869
 20
28.64
 10
126.458
 20
28.64
 97
0
 75
0
 76
1
 98
0
  0
HATCH
  5
4D
330
17
100
AcDbEntity
  8
RASTER
 62
7
100
AcDbHatch
 10
0.0
 20
0.0
 30
0.0
210
0.0
220
0.0
230
1.0
  2
SOLID
 70
1
 71
0
 91
1
 92
3
 72
0
 73
1
 93
4
 10
126.458
 20
26.249
 10
141.869
 20
26.249
 10
141.869
 20
25.838
 10
126.458
 20
25.838
 97
0
 75
0
 76
1
 98
0
  0
HATCH
  5
4E
330
17
100
AcDbEntity
  8
RASTER
 62
7
100
AcDbHatch
 10
0.0
 20
0.0
 30
0.0
210
0.0
220
0.0
230
1.0
  2
SOLID
 70
1
 71
0
 91
1
 92
3
 72
0
 73
1
 93
4
 10
126.458
 20
23.447
 10
141.869
 20
23.447
 10
141.869
 20
23.036
 10
126.458
 20
23.036
 97
0
 75
0
 76
1
 98
0
  0
HATCH
  5
4F
330
17
100
AcDbEntity
  8
RASTER
 62
7
100
AcDbHatch
 10
0.0
 20
0.0
 30
0.0
210
0.0
220
0.0
230
1.0
  2
SOLID
 70
1
 71
0
 91
1
 92
3
 72
0
 73
1
 93
4
 10
124.964
 20
26.323
 10
126.458
 20
26.323
 10
126.458
 20
25.763
 10
124.964
 20
25.763
 97
0
 75
0
 76
1
 98
0
  0
LWPOLYLINE
  5
50
330
17
100
AcDbEntity
  8
CUT
100
AcDbPolyline
 90
4
 70
1
 10
129.037
 20
29.406
 10
131.912
 20
29.406
 10
131.912
 20
22.681
 10
129.037
 20
22.681
  0
LWPOLYLINE
  5
51
330
17
100
AcDbEntity
  8
CUT
100
AcDbPolyline
 90
4
 70
1
 10
136.509
 20
29.406
 10
139.384
 20
29.406
 10
139.384
 20
22.681
 10
136.509
 20
22.681
  0
LWPOLYLINE
  5
52
330
17
100
AcDbEntity
  8
CUT
100
AcDbPolyline
 90
18
 70
1
 10
156.046
 20
30.94
 10
158.726
 20
30.94
 10
158.726
 20
28.94
 10
164.926
 20
28.94
 10
164.926
 20
15.877
 10
162.1
 20
14.262
 10
158.726
 20
13.468
 10
158.726
 20
9.94
 10
160.876
 20
9.94
 10
160.876
 20
3.96
 10
153.896
 20
3.96
 10
153.896
 20
9.94
 10
156.046
 20
9.94
 10
156.046
 20
13.466
 10
151.366
 20
14.263
 10
149.846
 20
15.884
 10
149.846
 20
28.94
 10
156.046
 20
28.94
  0
HATCH
  5
53
330
17
100
AcDbEntity
  8
RASTER
 62
7
100
AcDbHatch
 10
0.0
 20
0.0
 30
0.0
210
0.0
220
0.0
230
1.0
  2
SOLID
 70
1
 71
0
 91
1
 92
3
 72
0
 73
1
 93
4
 10
149.886
 20
28.3
 10
164.886
 20
28.3
 10
164.886
 20
27.8
 10
149.886
 20
27.8
 97
0
 75
0
 76
1
 98
0
  0
HATCH
  5
54
330
17
100
AcDbEntity
  8
RASTER
 62
7
100
AcDbHatch
 10
0.0
 20
0.0
 30
0.0
210
0.0
220
0.0
230
1.0
  2
SOLID
 70
1
 71
0
 91
4
 92
3
 72
0
 73
1
 93
45
 10
157.069
 20
26.49
 10
157.637
 20
26.5
 10
158.323
 20
26.382
 10
158.743
 20
26.224
 10
159.177
 20
25.955
 10
159.429
 20
25.728
 10
159.765
 20
25.211
 10
160.009
 20
24.575
 10
160.1
 20
24.062
 10
160.034
 20
23.499
 10
159.615
 20
22.587
 10
159.597
 20
22.303
 10
159.698
 20
21.876
 10
159.622
 20
21.599
 10
159.497
 20
21.474
 10
159.306
 20
21.388
 10
158.569
 20
21.27
 10
158.466
 20
21.097
 10
158.542
 20
20.619
 10
158.499
 20
20.461
 10
158.18
 20
20.278
 10
157.562
 20
20.167
 10
157.185
 20
20.167
 10
156.75
 20
20.235
 10
156.33
 20
20.393
 10
156.23
 20
20.494
 10
156.204
 20
20.594
 10
156.28
 20
20.996
 10
156.247
 20
21.215
 10
156.086
 20
21.305
 10
155.461
 20
21.383
 10
155.182
 20
21.532
 10
155.074
 20
21.801
 10
155.091
 20
22.059
 10
155.174
 20
22.328
 10
155.134
 20
22.615
 10
154.83
 20
23.215
 10
154.671
 20
23.761
 10
154.671
 20
24.188
 10
154.762
 20
24.625
 10
155.006
 20
25.236
 10
155.267
 20
25.653
 10
155.704
 20
26.045
 10
156.111
 20
26.266
 10
156.546
 20
26.41
 97
0
 92
2
 72
0
 73
1
 93
15
 10
156.313
 20
23.175
 10
155.953
 20
23.082
 10
155.795
 20
22.964
 10
155.636
 20
22.695
 10
155.604
 20
22.507
 10
155.659
 20
22.311
 10
155.77
 20
22.17
 10
155.968
 20
22.067
 10
156.405
 20
22.077
 10
156.622
 20
22.137
 10
156.815
 20
22.27
 10
156.973
 20
22.565
 10
156.968
 20
22.841
 10
156.85
 20
23.05
 10
156.642
 20
23.168
 97
0
 92
2
 72
0
 73
1
 93
14
 10
158.147
 20
23.175
 10
157.956
 20
23.09
 10
157.798
 20
22.871
 10
157.798
 20
22.539
 10
157.931
 20
22.296
 10
158.2
 20
22.112
 10
158.592
 20
22.052
 10
158.803
 20
22.067
 10
159.027
 20
22.195
 10
159.13
 20
22.394
 10
159.145
 20
22.58
 10
159.002
 20
22.914
 10
158.843
 20
23.057
 10
158.652
 20
23.143
 97
0
 92
3
 72
0
 73
1
 93
70
 10
154.279
 20
20.961
 10
154.503
 20
20.954
 10
154.697
 20
20.871
 10
155.141
 20
20.411
 10
155.561
 20
20.127
 10
157.36
 20
19.363
 10
157.78
 20
19.496
 10
159.293
 20
20.17
 10
159.63
 20
20.411
 10
160.017
 20
20.828
 10
160.158
 20
20.913
 10
160.376
 20
20.971
 10
160.602
 20
20.921
 10
160.736
 20
20.702
 10
160.743
 20
20.408
 10
160.911
 20
20.275
 10
160.997
 20
20.134
 10
160.994
 20
19.875
 10
160.886
 20
19.732
 10
160.605
 20
19.612
 10
160.175
 20
19.614
 10
159.657
 20
19.529
 10
158.459
 20
19.019
 10
158.416
 20
18.936
 10
158.476
 20
18.845
 10
159.582
 20
18.368
 10
160.125
 20
18.257
 10
160.688
 20
18.242
 10
160.886
 20
18.139
 10
160.994
 20
17.996
 10
160.994
 20
17.739
 10
160.911
 20
17.596
 10
160.743
 20
17.463
 10
160.703
 20
17.076
 10
160.512
 20
16.915
 10
160.376
 20
16.9
 10
160.158
 20
16.958
 10
159.992
 20
17.068
 10
159.605
 20
17.486
 10
159.343
 20
17.677
 10
157.554
 20
18.476
 10
157.335
 20
18.508
 10
155.428
 20
17.677
 10
155.167
 20
17.486
 10
154.78
 20
17.068
 10
154.614
 20
16.958
 10
154.395
 20
16.9
 10
154.171
 20
16.953
 10
154.036
 20
17.169
 10
154.028
 20
17.463
 10
153.86
 20
17.596
 10
153.777
 20
17.739
 10
153.777
 20
17.996
 10
153.885
 20
18.139
 10
154.083
 20
18.242
 10
154.646
 20
18.257
 10
155.189
 20
18.368
 10
156.295
 20
18.845
 10
156.355
 20
18.936
 10
156.313
 20
19.019
 10
155.114
 20
19.529
 10
154.596
 20
19.614
 10
154.166
 20
19.612
 10
153.885
 20
19.732
 10
153.777
 20
19.875
 10
153.774
 20
20.134
 10
153.86
 20
20.275
 10
154.028
 20
20.408
 10
154.018
 20
20.594
 10
154.093
 20
20.846
 97
0
 75
0
 76
1
 98
0
  0
LWPOLYLINE
  5
55
330
17
100
AcDbEntity
  8
CUT
100
AcDbPolyline
 90
18
 70
1
 10
173.546
 20
30.94
 10
176.226
 20
30.94
 10
176.226
 20
28.94
 10
180.926
 20
28.94
 10
180.926
 20
17.877
 10
178.103
 20
16.264
 10
176.226
 20
15.473
 10
176.226
 20
11.94
 10
178.376
 20
11.94
 10
178.376
 20
5.96
 10
171.396
 20
5.96
 10
171.396
 20
11.94
 10
173.546
 20
11.94
 10
173.546
 20
15.469
 10
170.364
 20
16.264
 10
168.846
 20
17.884
 10
168.846
 20
28.94
 10
173.546
 20
28.94
  0
HATCH
  5
56
330
17
100
AcDbEntity
  8
RASTER
 62
7
100
AcDbHatch
 10
0.0
 20
0.0
 30
0.0
210
0.0
220
0.0
230
1.0
  2
SOLID
 70
1
 71
0
 91
1
 92
3
 72
0
 73
1
 93
4
 10
168.886
 20
28.3
 10
180.886
 20
28.3
 10
180.886
 20
27.8
 10
168.886
 20
27.8
 97
0
 75
0
 76
1
 98
0
  0
HATCH
  5
57
330
17
100
AcDbEntity
  8
RASTER
 62
7
100
AcDbHatch
 10
0.0
 20
0.0
 30
0.0
210
0.0
220
0.0
230
1.0
  2
SOLID
 70
1
 71
0
 91
4
 92
3
 72
0
 73
1
 93
45
 10
174.635
 20
26.492
 10
175.085
 20
26.5
 10
175.628
 20
26.406
 10
175.96
 20
26.281
 10
176.304
 20
26.068
 10
176.503
 20
25.889
 10
176.77
 20
25.479
 10
176.963
 20
24.976
 10
177.034
 20
24.57
 10
176.983
 20
24.125
 10
176.65
 20
23.402
 10
176.636
 20
23.177
 10
176.716
 20
22.839
 10
176.656
 20
22.62
 10
176.557
 20
22.521
 10
176.406
 20
22.453
 10
175.823
 20
22.36
 10
175.741
 20
22.223
 10
175.801
 20
21.845
 10
175.767
 20
21.719
 10
175.514
 20
21.574
 10
175.025
 20
21.486
 10
174.726
 20
21.486
 10
174.382
 20
21.54
 10
174.05
 20
21.665
 10
173.97
 20
21.745
 10
173.951
 20
21.825
 10
174.01
 20
22.143
 10
173.984
 20
22.316
 10
173.857
 20
22.388
 10
173.362
 20
22.449
 10
173.141
 20
22.567
 10
173.055
 20
22.78
 10
173.069
 20
22.985
 10
173.135
 20
23.197
 10
173.103
 20
23.424
 10
172.862
 20
23.9
 10
172.737
 20
24.331
 10
172.737
 20
24.67
 10
172.809
 20
25.016
 10
173.002
 20
25.499
 10
173.208
 20
25.83
 10
173.555
 20
26.14
 10
173.877
 20
26.315
 10
174.221
 20
26.428
 97
0
 92
2
 72
0
 73
1
 93
15
 10
174.036
 20
23.868
 10
173.752
 20
23.794
 10
173.626
 20
23.701
 10
173.501
 20
23.488
 10
173.475
 20
23.339
 10
173.519
 20
23.183
 10
173.606
 20
23.072
 10
173.764
 20
22.99
 10
174.11
 20
22.998
 10
174.281
 20
23.046
 10
174.434
 20
23.152
 10
174.559
 20
23.384
 10
174.555
 20
23.603
 10
174.462
 20
23.768
 10
174.297
 20
23.862
 97
0
 92
2
 72
0
 73
1
 93
14
 10
175.488
 20
23.868
 10
175.337
 20
23.8
 10
175.212
 20
23.627
 10
175.212
 20
23.365
 10
175.317
 20
23.172
 10
175.53
 20
23.026
 10
175.841
 20
22.979
 10
176.008
 20
22.99
 10
176.185
 20
23.092
 10
176.266
 20
23.249
 10
176.278
 20
23.396
 10
176.165
 20
23.661
 10
176.04
 20
23.774
 10
175.888
 20
23.842
 97
0
 92
3
 72
0
 73
1
 93
70
 10
172.427
 20
22.115
 10
172.604
 20
22.109
 10
172.757
 20
22.043
 10
173.109
 20
21.679
 10
173.441
 20
21.455
 10
174.866
 20
20.85
 10
175.198
 20
20.955
 10
176.396
 20
21.488
 10
176.662
 20
21.679
 10
176.969
 20
22.01
 10
177.08
 20
22.077
 10
177.253
 20
22.123
 10
177.432
 20
22.083
 10
177.538
 20
21.91
 10
177.544
 20
21.677
 10
177.677
 20
21.572
 10
177.745
 20
21.461
 10
177.743
 20
21.256
 10
177.657
 20
21.142
 10
177.434
 20
21.047
 10
177.094
 20
21.049
 10
176.684
 20
20.981
 10
175.735
 20
20.577
 10
175.701
 20
20.512
 10
175.749
 20
20.44
 10
176.624
 20
20.062
 10
177.054
 20
19.974
 10
177.5
 20
19.962
 10
177.657
 20
19.881
 10
177.743
 20
19.767
 10
177.743
 20
19.565
 10
177.677
 20
19.451
 10
177.544
 20
19.346
 10
177.512
 20
19.039
 10
177.361
 20
18.912
 10
177.253
 20
18.9
 10
177.08
 20
18.946
 10
176.949
 20
19.033
 10
176.642
 20
19.364
 10
176.435
 20
19.515
 10
175.019
 20
20.147
 10
174.846
 20
20.173
 10
173.336
 20
19.515
 10
173.129
 20
19.364
 10
172.822
 20
19.033
 10
172.691
 20
18.946
 10
172.518
 20
18.9
 10
172.341
 20
18.942
 10
172.234
 20
19.113
 10
172.228
 20
19.346
 10
172.094
 20
19.451
 10
172.029
 20
19.565
 10
172.029
 20
19.767
 10
172.114
 20
19.881
 10
172.271
 20
19.962
 10
172.717
 20
19.974
 10
173.147
 20
20.062
 10
174.022
 20
20.44
 10
174.07
 20
20.512
 10
174.036
 20
20.577
 10
173.087
 20
20.981
 10
172.677
 20
21.049
 10
172.337
 20
21.047
 10
172.114
 20
21.142
 10
172.029
 20
21.256
 10
172.027
 20
21.461
 10
172.094
 20
21.572
 10
172.228
 20
21.677
 10
172.22
 20
21.825
 10
172.279
 20
22.024
 97
0
 75
0
 76
1
 98
0
  0
LWPOLYLINE
  5
58
330
17
100
AcDbEntity
  8
CUT
100
AcDbPolyline
 90
38
 70
1
 10
186.542
 20
31.037
 10
196.843
 20
31.037
 10
197.873
 20
31.002
 10
198.85
 20
30.894
 10
199.777
 20
30.716
 10
200.655
 20
30.469
 10
201.487
 20
30.153
 10
202.277
 20
29.769
 10
203.027
 20
29.32
 10
203.74
 20
28.805
 10
204.42
 20
28.228
 10
205.07
 20
27.587
 10
205.692
 20
26.886
 10
206.356
 20
26.043
 10
205.692
 20
25.2
 10
205.07
 20
24.499
 10
204.42
 20
23.859
 10
203.74
 20
23.281
 10
203.027
 20
22.766
 10
202.277
 20
22.317
 10
201.487
 20
21.933
 10
200.655
 20
21.617
 10
199.777
 20
21.37
 10
198.85
 20
21.192
 10
197.873
 20
21.085
 10
196.843
 20
21.049
 10
186.542
 20
21.049
 10
185.969
 20
21.262
 10
185.513
 20
21.836
 10
185.174
 20
22.662
 10
184.937
 20
23.681
 10
184.795
 20
24.829
 10
184.748
 20
26.043
 10
184.795
 20
27.257
 10
184.937
 20
28.406
 10
185.174
 20
29.424
 10
185.513
 20
30.251
 10
185.969
 20
30.824
  0
HATCH
  5
59
330
17
100
AcDbEntity
  8
RASTER
 62
7
100
AcDbHatch
 10
0.0
 20
0.0
 30
0.0
210
0.0
220
0.0
230
1.0
  2
SOLID
 70
1
 71
0
 91
1
 92
3
 72
0
 73
1
 93
4
 10
186.754
 20
29.051
 10
202.165
 20
29.051
 10
202.165
 20
28.64
 10
186.754
 20
28.64
 97
0
 75
0
 76
1
 98
0
  0
HATCH
  5
5A
330
17
100
AcDbEntity
  8
RASTER
 62
7
100
AcDbHatch
 10
0.0
 20
0.0
 30
0.0
210
0.0
220
0.0
230
1.0
  2
SOLID
 70
1
 71
0
 91
1
 92
3
 72
0
 73
1
 93
4
 10
186.754
 20
26.249
 10
202.165
 20
26.249
 10
202.165
 20
25.838
 10
186.754
 20
25.838
 97
0
 75
0
 76
1
 98
0
  0
HATCH
  5
5B
330
17
100
AcDbEntity
  8
RASTER
 62
7
100
AcDbHatch
 10
0.0
 20
0.0
 30
0.0
210
0.0
220
0.0
230
1.0
  2
SOLID
 70
1
 71
0
 91
1
 92
3
 72
0
 73
1
 93
4
 10
186.754
 20
23.447
 10
202.165
 20
23.447
 10
202.165
 20
23.036
 10
186.754
 20
23.036
 97
0
 75
0
 76
1
 98
0
  0
HATCH
  5
5C
330
17
100
AcDbEntity
  8
RASTER
 62
7
100
AcDbHatch
 10
0.0
 20
0.0
 30
0.0
210
0.0
220
0.0
230
1.0
  2
SOLID
 70
1
 71
0
 91
1
 92
3
 72
0
 73
1
 93
4
 10
185.259
 20
26.323
 10
186.754
 20
26.323
 10
186.754
 20
25.763
 10
185.259
 20
25.763
 97
0
 75
0
 76
1
 98
0
  0
LWPOLYLINE
  5
5D
330
17
100
AcDbEntity
  8
CUT
100
AcDbPolyline
 90
4
 70
1
 10
189.332
 20
29.406
 10
192.207
 20
29.406
 10
192.207
 20
22.681
 10
189.332
 20
22.681
  0
LWPOLYLINE
  5
5E
330
17
100
AcDbEntity
  8
CUT
100
AcDbPolyline
 90
4
 70
1
 10
196.804
 20
29.406
 10
199.679
 20
29.406
 10
199.679
 20
22.681
 10
196.804
 20
22.681
  0
LWPOLYLINE
  5
5F
330
17
100
AcDbEntity
  8
CUT
100
AcDbPolyline
 90
18
 70
1
 10
216.341
 20
30.94
 10
219.021
 20
30.94
 10
219.021
 20
28.94
 10
225.221
 20
28.94
 10
225.221
 20
15.877
 10
222.396
 20
14.262
 10
219.021
 20
13.468
 10
219.021
 20
9.94
 10
221.171
 20
9.94
 10
221.171
 20
3.96
 10
214.191
 20
3.96
 10
214.191
 20
9.94
 10
216.341
 20
9.94
 10
216.341
 20
13.466
 10
211.661
 20
14.263
 10
210.141
 20
15.884
 10
210.141
 20
28.94
 10
216.341
 20
28.94
  0
HATCH
  5
60
330
17
100
AcDbEntity
  8
RASTER
 62
7
100
AcDbHatch
 10
0.0
 20
0.0
 30
0.0
210
0.0
220
0.0
230
1.0
  2
SOLID
 70
1
 71
0
 91
1
 92
3
 72
0
 73
1
 93
4
 10
210.181
 20
28.3
 10
225.181
 20
28.3
 10
225.181
 20
27.8
 10
210.181
 20
27.8
 97
0
 75
0
 76
1
 98
0
  0
HATCH
  5
61
330
17
100
AcDbEntity
  8
RASTER
 62
7
100
AcDbHatch
 10
0.0
 20
0.0
 30
0.0
210
0.0
220
0.0
230
1.0
  2
SOLID
 70
1
 71
0
 91
4
 92
3
 72
0
 73
1
 93
45
 10
217.364
 20
26.49
 10
217.932
 20
26.5
 10
218.618
 20
26.382
 10
219.038
 20
26.224
 10
219.473
 20
25.955
 10
219.724
 20
25.728
 10
220.061
 20
25.211
 10
220.304
 20
24.575
 10
220.395
 20
24.062
 10
220.33
 20
23.499
 10
219.91
 20
22.587
 10
219.892
 20
22.303
 10
219.993
 20
21.876
 10
219.917
 20
21.599
 10
219.792
 20
21.474
 10
219.601
 20
21.388
 10
218.864
 20
21.27
 10
218.761
 20
21.097
 10
218.837
 20
20.619
 10
218.794
 20
20.461
 10
218.475
 20
20.278
 10
217.857
 20
20.167
 10
217.48
 20
20.167
 10
217.045
 20
20.235
 10
216.625
 20
20.393
 10
216.525
 20
20.494
 10
216.5
 20
20.594
 10
216.575
 20
20.996
 10
216.542
 20
21.215
 10
216.382
 20
21.305
 10
215.756
 20
21.383
 10
215.477
 20
21.532
 10
215.369
 20
21.801
 10
215.386
 20
22.059
 10
215.469
 20
22.328
 10
215.429
 20
22.615
 10
215.125
 20
23.215
 10
214.967
 20
23.761
 10
214.967
 20
24.188
 10
215.057
 20
24.625
 10
215.301
 20
25.236
 10
215.562
 20
25.653
 10
216.0
 20
26.045
 10
216.407
 20
26.266
 10
216.841
 20
26.41
 97
0
 92
2
 72
0
 73
1
 93
15
 10
216.608
 20
23.175
 10
216.248
 20
23.082
 10
216.09
 20
22.964
 10
215.932
 20
22.695
 10
215.899
 20
22.507
 10
215.954
 20
22.311
 10
216.065
 20
22.17
 10
216.263
 20
22.067
 10
216.701
 20
22.077
 10
216.917
 20
22.137
 10
217.11
 20
22.27
 10
217.269
 20
22.565
 10
217.264
 20
22.841
 10
217.146
 20
23.05
 10
216.937
 20
23.168
 97
0
 92
2
 72
0
 73
1
 93
14
 10
218.442
 20
23.175
 10
218.251
 20
23.09
 10
218.093
 20
22.871
 10
218.093
 20
22.539
 10
218.226
 20
22.296
 10
218.495
 20
22.112
 10
218.887
 20
22.052
 10
219.098
 20
22.067
 10
219.322
 20
22.195
 10
219.425
 20
22.394
 10
219.44
 20
22.58
 10
219.297
 20
22.914
 10
219.138
 20
23.057
 10
218.947
 20
23.143
 97
0
 92
3
 72
0
 73
1
 93
70
 10
214.575
 20
20.961
 10
214.798
 20
20.954
 10
214.992
 20
20.871
 10
215.437
 20
20.411
 10
215.856
 20
20.127
 10
217.656
 20
19.363
 10
218.075
 20
19.496
 10
219.588
 20
20.17
 10
219.925
 20
20.411
 10
220.312
 20
20.828
 10
220.453
 20
20.913
 10
220.671
 20
20.971
 10
220.898
 20
20.921
 10
221.031
 20
20.702
 10
221.038
 20
20.408
 10
221.207
 20
20.275
 10
221.292
 20
20.134
 10
221.29
 20
19.875
 10
221.182
 20
19.732
 10
220.9
 20
19.612
 10
220.47
 20
19.614
 10
219.953
 20
19.529
 10
218.754
 20
19.019
 10
218.711
 20
18.936
 10
218.771
 20
18.845
 10
219.877
 20
18.368
 10
220.42
 20
18.257
 10
220.983
 20
18.242
 10
221.182
 20
18.139
 10
221.29
 20
17.996
 10
221.29
 20
17.739
 10
221.207
 20
17.596
 10
221.038
 20
17.463
 10
220.998
 20
17.076
 10
220.807
 20
16.915
 10
220.671
 20
16.9
 10
220.453
 20
16.958
 10
220.287
 20
17.068
 10
219.9
 20
17.486
 10
219.638
 20
17.677
 10
217.849
 20
18.476
 10
217.631
 20
18.508
 10
215.723
 20
17.677
 10
215.462
 20
17.486
 10
215.075
 20
17.068
 10
214.909
 20
16.958
 10
214.69
 20
16.9
 10
214.467
 20
16.953
 10
214.331
 20
17.169
 10
214.323
 20
17.463
 10
214.155
 20
17.596
 10
214.072
 20
17.739
 10
214.072
 20
17.996
 10
214.18
 20
18.139
 10
214.379
 20
18.242
 10
214.942
 20
18.257
 10
215.484
 20
18.368
 10
216.59
 20
18.845
 10
216.65
 20
18.936
 10
216.608
 20
19.019
 10
215.409
 20
19.529
 10
214.891
 20
19.614
 10
214.462
 20
19.612
 10
214.18
 20
19.732
 10
214.072
 20
19.875
 10
214.069
 20
20.134
 10
214.155
 20
20.275
 10
214.323
 20
20.408
 10
214.313
 20
20.594
 10
214.389
 20
20.846
 97
0
 75
0
 76
1
 98
0
  0
LWPOLYLINE
  5
62
330
17
100
AcDbEntity
  8
CUT
100
AcDbPolyline
 90
18
 70
1
 10
233.841
 20
30.94
 10
236.521
 20
30.94
 10
236.521
 20
28.94
 10
241.221
 20
28.94
 10
241.221
 20
17.877
 10
238.399
 20
16.264
 10
236.521
 20
15.473
 10
236.521
 20
11.94
 10
238.671
 20
11.94
 10
238.671
 20
5.96
 10
231.691
 20
5.96
 10
231.691
 20
11.94
 10
233.841
 20
11.94
 10
233.841
 20
15.469
 10
230.66
 20
16.264
 10
229.141
 20
17.884
 10
229.141
 20
28.94
 10
233.841
 20
28.94
  0
HATCH
  5
63
330
17
100
AcDbEntity
  8
RASTER
 62
7
100
AcDbHatch
 10
0.0
 20
0.0
 30
0.0
210
0.0
220
0.0
230
1.0
  2
SOLID
 70
1
 71
0
 91
1
 92
3
 72
0
 73
1
 93
4
 10
229.181
 20
28.3
 10
241.181
 20
28.3
 10
241.181
 20
27.8
 10
229.181
 20
27.8
 97
0
 75
0
 76
1
 98
0
  0
HATCH
  5
64
330
17
100
AcDbEntity
  8
RASTER
 62
7
100
AcDbHatch
 10
0.0
 20
0.0
 30
0.0
210
0.0
220
0.0
230
1.0
  2
SOLID
 70
1
 71
0
 91
4
 92
3
 72
0
 73
1
 93
45
 10
234.93
 20
26.492
 10
235.38
 20
26.5
 10
235.923
 20
26.406
 10
236.255
 20
26.281
 10
236.599
 20
26.068
 10
236.798
 20
25.889
 10
237.065
 20
25.479
 10
237.258
 20
24.976
 10
237.329
 20
24.57
 10
237.278
 20
24.125
 10
236.946
 20
23.402
 10
236.932
 20
23.177
 10
237.011
 20
22.839
 10
236.951
 20
22.62
 10
236.852
 20
22.521
 10
236.701
 20
22.453
 10
236.118
 20
22.36
 10
236.036
 20
22.223
 10
236.096
 20
21.845
 10
236.062
 20
21.719
 10
235.809
 20
21.574
 10
235.32
 20
21.486
 10
235.022
 20
21.486
 10
234.677
 20
21.54
 10
234.345
 20
21.665
 10
234.266
 20
21.745
 10
234.246
 20
21.825
 10
234.305
 20
22.143
 10
234.28
 20
22.316
 10
234.152
 20
22.388
 10
233.657
 20
22.449
 10
233.436
 20
22.567
 10
233.35
 20
22.78
 10
233.364
 20
22.985
 10
233.43
 20
23.197
 10
233.398
 20
23.424
 10
233.157
 20
23.9
 10
233.032
 20
24.331
 10
233.032
 20
24.67
 10
233.104
 20
25.016
 10
233.297
 20
25.499
 10
233.504
 20
25.83
 10
233.85
 20
26.14
 10
234.172
 20
26.315
 10
234.516
 20
26.428
 97
0
 92
2
 72
0
 73
1
 93
15
 10
234.331
 20
23.868
 10
234.047
 20
23.794
 10
233.921
 20
23.701
 10
233.796
 20
23.488
 10
233.77
 20
23.339
 10
233.814
 20
23.183
 10
233.902
 20
23.072
 10
234.059
 20
22.99
 10
234.405
 20
22.998
 10
234.576
 20
23.046
 10
234.729
 20
23.152
 10
234.855
 20
23.384
 10
234.851
 20
23.603
 10
234.757
 20
23.768
 10
234.592
 20
23.862
 97
0
 92
2
 72
0
 73
1
 93
14
 10
235.784
 20
23.868
 10
235.632
 20
23.8
 10
235.507
 20
23.627
 10
235.507
 20
23.365
 10
235.613
 20
23.172
 10
235.825
 20
23.026
 10
236.136
 20
22.979
 10
236.303
 20
22.99
 10
236.48
 20
23.092
 10
236.562
 20
23.249
 10
236.573
 20
23.396
 10
236.46
 20
23.661
 10
236.335
 20
23.774
 10
236.184
 20
23.842
 97
0
 92
3
 72
0
 73
1
 93
70
 10
232.722
 20
22.115
 10
232.899
 20
22.109
 10
233.052
 20
22.043
 10
233.404
 20
21.679
 10
233.736
 20
21.455
 10
235.161
 20
20.85
 10
235.493
 20
20.955
 10
236.691
 20
21.488
 10
236.957
 20
21.679
 10
237.264
 20
22.01
 10
237.375
 20
22.077
 10
237.548
 20
22.123
 10
237.727
 20
22.083
 10
237.833
 20
21.91
 10
237.839
 20
21.677
 10
237.972
 20
21.572
 10
238.04
 20
21.461
 10
238.038
 20
21.256
 10
237.952
 20
21.142
 10
237.729
 20
21.047
 10
237.389
 20
21.049
 10
236.979
 20
20.981
 10
236.03
 20
20.577
 10
235.997
 20
20.512
 10
236.044
 20
20.44
 10
236.92
 20
20.062
 10
237.349
 20
19.974
 10
237.795
 20
19.962
 10
237.952
 20
19.881
 10
238.038
 20
19.767
 10
238.038
 20
19.565
 10
237.972
 20
19.451
 10
237.839
 20
19.346
 10
237.807
 20
19.039
 10
237.656
 20
18.912
 10
237.548
 20
18.9
 10
237.375
 20
18.946
 10
237.244
 20
19.033
 10
236.938
 20
19.364
 10
236.731
 20
19.515
 10
235.314
 20
20.147
 10
235.141
 20
20.173
 10
233.631
 20
19.515
 10
233.424
 20
19.364
 10
233.118
 20
19.033
 10
232.986
 20
18.946
 10
232.813
 20
18.9
 10
232.636
 20
18.942
 10
232.529
 20
19.113
 10
232.523
 20
19.346
 10
232.389
 20
19.451
 10
232.324
 20
19.565
 10
232.324
 20
19.767
 10
232.409
 20
19.881
 10
232.567
 20
19.962
 10
233.012
 20
19.974
 10
233.442
 20
20.062
 10
234.317
 20
20.44
 10
234.365
 20
20.512
 10
234.331
 20
20.577
 10
233.382
 20
20.981
 10
232.972
 20
21.049
 10
232.632
 20
21.047
 10
232.409
 20
21.142
 10
232.324
 20
21.256
 10
232.322
 20
21.461
 10
232.389
 20
21.572
 10
232.523
 20
21.677
 10
232.515
 20
21.825
 10
232.575
 20
22.024
 97
0
 75
0
 76
1
 98
0
  0
ENDSEC
  0
SECTION
  2
OBJECTS
  0
DICTIONARY
  5
A
330
0
100
AcDbDictionary
281
1
  3
ACAD_COLOR
350
B
  3
ACAD_GROUP
350
C
  3
ACAD_LAYOUT
350
D
  3
ACAD_MATERIAL
350
E
  3
ACAD_MLEADERSTYLE
350
F
  3
ACAD_MLINESTYLE
350
10
  3
ACAD_PLOTSETTINGS
350
11
  3
ACAD_PLOTSTYLENAME
350
12
  3
ACAD_SCALELIST
350
14
  3
ACAD_TABLESTYLE
350
15
  3
ACAD_VISUALSTYLE
350
16
  3
EZDXF_META
350
2D
  0
DICTIONARY
  5
B
330
A
100
AcDbDictionary
281
1
  0
DICTIONARY
  5
C
330
A
100
AcDbDictionary
281
1
  0
DICTIONARY
  5
D
330
A
100
AcDbDictionary
281
1
  3
Model
350
1A
  3
Layout1
350
1E
  0
DICTIONARY
  5
E
330
A
100
AcDbDictionary
281
1
  3
ByBlock
350
1F
  3
ByLayer
350
20
  3
Global
350
21
  0
DICTIONARY
  5
F
330
A
100
AcDbDictionary
281
1
  3
Standard
350
2C
  0
DICTIONARY
  5
10
330
A
100
AcDbDictionary
281
1
  3
Standard
350
22
  0
DICTIONARY
  5
11
330
A
100
AcDbDictionary
281
1
  0
ACDBDICTIONARYWDFLT
  5
12
330
A
100
AcDbDictionary
281
1
  3
Normal
350
13
100
AcDbDictionaryWithDefault
340
13
  0
ACDBPLACEHOLDER
  5
13
330
12
  0
DICTIONARY
  5
14
330
A
100
AcDbDictionary
281
1
  0
DICTIONARY
  5
15
330
A
100
AcDbDictionary
281
1
  0
DICTIONARY
  5
16
330
A
100
AcDbDictionary
281
1
  0
LAYOUT
  5
1A
330
D
100
AcDbPlotSettings
  1

  4
A3
  6

 40
7.5
 41
20.0
 42
7.5
 43
20.0
 44
420.0
 45
297.0
 46
0.0
 47
0.0
 48
0.0
 49
0.0
140
0.0
141
0.0
142
1.0
143
1.0
 70
1024
 72
1
 73
0
 74
5
  7

 75
16
 76
0
 77
2
 78
300
147
1.0
148
0.0
149
0.0
100
AcDbLayout
  1
Model
 70
1
 71
0
 10
0.0
 20
0.0
 11
420.0
 21
297.0
 12
0.0
 22
0.0
 32
0.0
 14
1e+20
 24
1e+20
 34
1e+20
 15
-1e+20
 25
-1e+20
 35
-1e+20
146
0.0
 13
0.0
 23
0.0
 33
0.0
 16
1.0
 26
0.0
 36
0.0
 17
0.0
 27
1.0
 37
0.0
 76
1
330
17
  0
LAYOUT
  5
1E
330
D
100
AcDbPlotSettings
  1

  4
A3
  6

 40
7.5
 41
20.0
 42
7.5
 43
20.0
 44
420.0
 45
297.0
 46
0.0
 47
0.0
 48
0.0
 49
0.0
140
0.0
141
0.0
142
1.0
143
1.0
 70
0
 72
1
 73
0
 74
5
  7

 75
16
 76
0
 77
2
 78
300
147
1.0
148
0.0
149
0.0
100
AcDbLayout
  1
Layout1
 70
1
 71
1
 10
0.0
 20
0.0
 11
420.0
 21
297.0
 12
0.0
 22
0.0
 32
0.0
 14
1e+20
 24
1e+20
 34
1e+20
 15
-1e+20
 25
-1e+20
 35
-1e+20
146
0.0
 13
0.0
 23
0.0
 33
0.0
 16
1.0
 26
0.0
 36
0.0
 17
0.0
 27
1.0
 37
0.0
 76
1
330
1B
  0
MATERIAL
  5
1F
102
{ACAD_REACTORS
330
E
102
}
330
E
100
AcDbMaterial
  1
ByBlock
  2

 70
0
 40
1.0
 71
1
 41
1.0
 91
-1023410177
 42
1.0
 72
1
  3

 73
1
 74
1
 75
1
 44
0.5
 73
0
 45
1.0
 46
1.0
 77
1
  4

 78
1
 79
1
170
1
 48
1.0
171
1
  6

172
1
173
1
174
1
140
1.0
141
1.0
175
1
  7

176
1
177
1
178
1
143
1.0
179
1
  8

270
1
271
1
272
1
145
1.0
146
1.0
273
1
  9

274
1
275
1
276
1
 42
1.0
 72
1
  3

 73
1
 74
1
 75
1
 94
63
  0
MATERIAL
  5
20
102
{ACAD_REACTORS
330
E
102
}
330
E
100
AcDbMaterial
  1
ByLayer
  2

 70
0
 40
1.0
 71
1
 41
1.0
 91
-1023410177
 42
1.0
 72
1
  3

 73
1
 74
1
 75
1
 44
0.5
 73
0
 45
1.0
 46
1.0
 77
1
  4

 78
1
 79
1
170
1
 48
1.0
171
1
  6

172
1
173
1
174
1
140
1.0
141
1.0
175
1
  7

176
1
177
1
178
1
143
1.0
179
1
  8

270
1
271
1
272
1
145
1.0
146
1.0
273
1
  9

274
1
275
1
276
1
 42
1.0
 72
1
  3

 73
1
 74
1
 75
1
 94
63
  0
MATERIAL
  5
21
102
{ACAD_REACTORS
330
E
102
}
330
E
100
AcDbMaterial
  1
Global
  2

 70
0
 40
1.0
 71
1
 41
1.0
 91
-1023410177
 42
1.0
 72
1
  3

 73
1
 74
1
 75
1
 44
0.5
 73
0
 45
1.0
 46
1.0
 77
1
  4

 78
1
 79
1
170
1
 48
1.0
171
1
  6

172
1
173
1
174
1
140
1.0
141
1.0
175
1
  7

176
1
177
1
178
1
143
1.0
179
1
  8

270
1
271
1
272
1
145
1.0
146
1.0
273
1
  9

274
1
275
1
276
1
 42
1.0
 72
1
  3

 73
1
 74
1
 75
1
 94
63
  0
MLINESTYLE
  5
22
102
{ACAD_REACTORS
330
10
102
}
330
10
100
AcDbMlineStyle
  2
Standard
 70
0
  3

 62
256
 51
90.0
 52
90.0
 71
2
 49
0.5
 62
256
  6
BYLAYER
 49
-0.5
 62
256
  6
BYLAYER
  0
MLEADERSTYLE
  5
2C
102
{ACAD_REACTORS
330
F
102
}
330
F
100
AcDbMLeaderStyle
179
2
170
2
171
1
172
0
 90
2
 40
0.0
 41
0.0
173
1
 91
-1056964608
 92
-2
290
1
 42
2.0
291
1
 43
8.0
  3
Standard
 44
4.0
300

342
29
174
1
175
1
176
0
178
1
 93
-1056964608
 45
4.0
292
0
297
0
 46
4.0
 94
-1056964608
 47
1.0
 49
1.0
140
1.0
294
1
141
0.0
177
0
142
1.0
295
0
296
0
143
3.75
271
0
272
9
273
9
  0
DICTIONARY
  5
2D
330
A
100
AcDbDictionary
280
1
281
1
  3
CREATED_BY_EZDXF
350
2E
  3
WRITTEN_BY_EZDXF
350
67
  0
DICTIONARYVAR
  5
2E
330
2D
100
DictionaryVariables
280
0
  1
1.4.2 @ 2026-09-12T13:27:17.624234+00:00
  0
DICTIONARYVAR
  5
67
330
2D
100
DictionaryVariables
280
0
  1
1.4.2 @ 2026-09-12T13:27:17.629782+00:00
  0
ENDSEC
  0
EOF
