0
SECTION
2
HEADER
9
$ACADVER
1
AC1009
9
$EXTMIN
10
0
20
0
9
$EXTMAX
10
92
20
26
0
ENDSEC
0
SECTION
2
TABLES
0
TABLE
2
LAYER
70
2
0
LAYER
2
CUT
70
0
62
1
6
CONTINUOUS
0
LAYER
2
RASTER
70
0
62
7
6
CONTINUOUS
0
ENDTAB
0
ENDSEC
0
SECTION
2
ENTITIES
0
CIRCLE
8
CUT
10
13
20
13
30
0
40
9
0
CIRCLE
8
RASTER
10
13
20
13
30
0
40
8.3
0
CIRCLE
8
RASTER
10
13
20
13
30
0
40
7.8
0
POLYLINE
8
RASTER
66
1
70
1
0
VERTEX
8
RASTER
10
8
20
12
30
0
0
VERTEX
8
RASTER
10
18
20
12
30
0
0
VERTEX
8
RASTER
10
16.75
20
9.75
30
0
0
VERTEX
8
RASTER
10
9.25
20
9.75
30
0
0
SEQEND
8
RASTER
0
POLYLINE
8
RASTER
66
1
70
1
0
VERTEX
8
RASTER
10
12.75
20
18.5
30
0
0
VERTEX
8
RASTER
10
13.25
20
18.5
30
0
0
VERTEX
8
RASTER
10
13.25
20
12.25
30
0
0
VERTEX
8
RASTER
10
12.75
20
12.25
30
0
0
SEQEND
8
RASTER
0
POLYLINE
8
RASTER
66
1
70
1
0
VERTEX
8
RASTER
10
13.5
20
18
30
0
0
VERTEX
8
RASTER
10
17.5
20
12.75
30
0
0
VERTEX
8
RASTER
10
13.5
20
12.75
30
0
0
SEQEND
8
RASTER
0
POLYLINE
8
RASTER
66
1
70
1
0
VERTEX
8
RASTER
10
12.5
20
16.75
30
0
0
VERTEX
8
RASTER
10
12.5
20
12.75
30
0
0
VERTEX
8
RASTER
10
9.5
20
12.75
30
0
0
SEQEND
8
RASTER
0
CIRCLE
8
RASTER
10
13
20
6.75
30
0
40
0.45
0
CIRCLE
8
CUT
10
35
20
13
30
0
40
9
0
CIRCLE
8
RASTER
10
35
20
13
30
0
40
8.3
0
CIRCLE
8
RASTER
10
35
20
13
30
0
40
7.8
0
POLYLINE
8
RASTER
66
1
70
1
0
VERTEX
8
RASTER
10
30
20
12
30
0
0
VERTEX
8
RASTER
10
40
20
12
30
0
0
VERTEX
8
RASTER
10
38.75
20
9.75
30
0
0
VERTEX
8
RASTER
10
31.25
20
9.75
30
0
0
SEQEND
8
RASTER
0
POLYLINE
8
RASTER
66
1
70
1
0
VERTEX
8
RASTER
10
34.75
20
18.5
30
0
0
VERTEX
8
RASTER
10
35.25
20
18.5
30
0
0
VERTEX
8
RASTER
10
35.25
20
12.25
30
0
0
VERTEX
8
RASTER
10
34.75
20
12.25
30
0
0
SEQEND
8
RASTER
0
POLYLINE
8
RASTER
66
1
70
1
0
VERTEX
8
RASTER
10
35.5
20
18
30
0
0
VERTEX
8
RASTER
10
39.5
20
12.75
30
0
0
VERTEX
8
RASTER
10
35.5
20
12.75
30
0
0
SEQEND
8
RASTER
0
POLYLINE
8
RASTER
66
1
70
1
0
VERTEX
8
RASTER
10
34.5
20
16.75
30
0
0
VERTEX
8
RASTER
10
34.5
20
12.75
30
0
0
VERTEX
8
RASTER
10
31.5
20
12.75
30
0
0
SEQEND
8
RASTER
0
POLYLINE
8
RASTER
66
1
70
1
0
VERTEX
8
RASTER
10
30
20
7.5
30
0
0
VERTEX
8
RASTER
10
30.9
20
7.5
30
0
0
VERTEX
8
RASTER
10
30.9
20
6.6
30
0
0
VERTEX
8
RASTER
10
30
20
6.6
30
0
0
SEQEND
8
RASTER
0
POLYLINE
8
RASTER
66
1
70
1
0
VERTEX
8
RASTER
10
31.1
20
7.5
30
0
0
VERTEX
8
RASTER
10
32
20
7.5
30
0
0
VERTEX
8
RASTER
10
32
20
6.6
30
0
0
VERTEX
8
RASTER
10
31.1
20
6.6
30
0
0
SEQEND
8
RASTER
0
POLYLINE
8
RASTER
66
1
70
1
0
VERTEX
8
RASTER
10
32.2
20
7.5
30
0
0
VERTEX
8
RASTER
10
33.1
20
7.5
30
0
0
VERTEX
8
RASTER
10
33.1
20
6.6
30
0
0
VERTEX
8
RASTER
10
32.2
20
6.6
30
0
0
SEQEND
8
RASTER
0
POLYLINE
8
RASTER
66
1
70
1
0
VERTEX
8
RASTER
10
33.3
20
7.5
30
0
0
VERTEX
8
RASTER
10
34.2
20
7.5
30
0
0
VERTEX
8
RASTER
10
34.2
20
6.6
30
0
0
VERTEX
8
RASTER
10
33.3
20
6.6
30
0
0
SEQEND
8
RASTER
0
POLYLINE
8
RASTER
66
1
70
1
0
VERTEX
8
RASTER
10
34.4
20
7.5
30
0
0
VERTEX
8
RASTER
10
35.3
20
7.5
30
0
0
VERTEX
8
RASTER
10
35.3
20
6.6
30
0
0
VERTEX
8
RASTER
10
34.4
20
6.6
30
0
0
SEQEND
8
RASTER
0
POLYLINE
8
RASTER
66
1
70
1
0
VERTEX
8
RASTER
10
35.5
20
7.5
30
0
0
VERTEX
8
RASTER
10
36.4
20
7.5
30
0
0
VERTEX
8
RASTER
10
36.4
20
6.6
30
0
0
VERTEX
8
RASTER
10
35.5
20
6.6
30
0
0
SEQEND
8
RASTER
0
POLYLINE
8
RASTER
66
1
70
1
0
VERTEX
8
RASTER
10
36.6
20
7.5
30
0
0
VERTEX
8
RASTER
10
37.5
20
7.5
30
0
0
VERTEX
8
RASTER
10
37.5
20
6.6
30
0
0
VERTEX
8
RASTER
10
36.6
20
6.6
30
0
0
SEQEND
8
RASTER
0
POLYLINE
8
RASTER
66
1
70
1
0
VERTEX
8
RASTER
10
37.7
20
7.5
30
0
0
VERTEX
8
RASTER
10
38.6
20
7.5
30
0
0
VERTEX
8
RASTER
10
38.6
20
6.6
30
0
0
VERTEX
8
RASTER
10
37.7
20
6.6
30
0
0
SEQEND
8
RASTER
0
POLYLINE
8
RASTER
66
1
70
1
0
VERTEX
8
RASTER
10
38.8
20
7.5
30
0
0
VERTEX
8
RASTER
10
39.7
20
7.5
30
0
0
VERTEX
8
RASTER
10
39.7
20
6.6
30
0
0
VERTEX
8
RASTER
10
38.8
20
6.6
30
0
0
SEQEND
8
RASTER
0
CIRCLE
8
CUT
10
57
20
13
30
0
40
9
0
CIRCLE
8
RASTER
10
57
20
13
30
0
40
8.3
0
CIRCLE
8
RASTER
10
57
20
13
30
0
40
7.8
0
POLYLINE
8
RASTER
66
1
70
1
0
VERTEX
8
RASTER
10
52
20
12
30
0
0
VERTEX
8
RASTER
10
62
20
12
30
0
0
VERTEX
8
RASTER
10
60.75
20
9.75
30
0
0
VERTEX
8
RASTER
10
53.25
20
9.75
30
0
0
SEQEND
8
RASTER
0
POLYLINE
8
RASTER
66
1
70
1
0
VERTEX
8
RASTER
10
56.75
20
18.5
30
0
0
VERTEX
8
RASTER
10
57.25
20
18.5
30
0
0
VERTEX
8
RASTER
10
57.25
20
12.25
30
0
0
VERTEX
8
RASTER
10
56.75
20
12.25
30
0
0
SEQEND
8
RASTER
0
POLYLINE
8
RASTER
66
1
70
1
0
VERTEX
8
RASTER
10
57.5
20
18
30
0
0
VERTEX
8
RASTER
10
61.5
20
12.75
30
0
0
VERTEX
8
RASTER
10
57.5
20
12.75
30
0
0
SEQEND
8
RASTER
0
POLYLINE
8
RASTER
66
1
70
1
0
VERTEX
8
RASTER
10
56.5
20
16.75
30
0
0
VERTEX
8
RASTER
10
56.5
20
12.75
30
0
0
VERTEX
8
RASTER
10
53.5
20
12.75
30
0
0
SEQEND
8
RASTER
0
CIRCLE
8
RASTER
10
52.45
20
7.05
30
0
40
0.32
0
CIRCLE
8
RASTER
10
53.55
20
7.05
30
0
40
0.32
0
CIRCLE
8
RASTER
10
54.65
20
7.05
30
0
40
0.32
0
CIRCLE
8
RASTER
10
55.75
20
7.05
30
0
40
0.32
0
CIRCLE
8
RASTER
10
56.85
20
7.05
30
0
40
0.32
0
CIRCLE
8
RASTER
10
57.95
20
7.05
30
0
40
0.32
0
CIRCLE
8
RASTER
10
59.05
20
7.05
30
0
40
0.32
0
CIRCLE
8
RASTER
10
60.15
20
7.05
30
0
40
0.32
0
CIRCLE
8
RASTER
10
61.25
20
7.05
30
0
40
0.32
0
CIRCLE
8
CUT
10
79
20
13
30
0
40
9
0
CIRCLE
8
RASTER
10
79
20
13
30
0
40
8.3
0
CIRCLE
8
RASTER
10
79
20
13
30
0
40
7.8
0
POLYLINE
8
RASTER
66
1
70
1
0
VERTEX
8
RASTER
10
74
20
12
30
0
0
VERTEX
8
RASTER
10
84
20
12
30
0
0
VERTEX
8
RASTER
10
82.75
20
9.75
30
0
0
VERTEX
8
RASTER
10
75.25
20
9.75
30
0
0
SEQEND
8
RASTER
0
POLYLINE
8
RASTER
66
1
70
1
0
VERTEX
8
RASTER
10
78.75
20
18.5
30
0
0
VERTEX
8
RASTER
10
79.25
20
18.5
30
0
0
VERTEX
8
RASTER
10
79.25
20
12.25
30
0
0
VERTEX
8
RASTER
10
78.75
20
12.25
30
0
0
SEQEND
8
RASTER
0
POLYLINE
8
RASTER
66
1
70
1
0
VERTEX
8
RASTER
10
79.5
20
18
30
0
0
VERTEX
8
RASTER
10
83.5
20
12.75
30
0
0
VERTEX
8
RASTER
10
79.5
20
12.75
30
0
0
SEQEND
8
RASTER
0
POLYLINE
8
RASTER
66
1
70
1
0
VERTEX
8
RASTER
10
78.5
20
16.75
30
0
0
VERTEX
8
RASTER
10
78.5
20
12.75
30
0
0
VERTEX
8
RASTER
10
75.5
20
12.75
30
0
0
SEQEND
8
RASTER
0
POLYLINE
8
RASTER
66
1
70
1
0
VERTEX
8
RASTER
10
74
20
7.5
30
0
0
VERTEX
8
RASTER
10
74.9
20
7.5
30
0
0
VERTEX
8
RASTER
10
74.9
20
6.6
30
0
0
VERTEX
8
RASTER
10
74
20
6.6
30
0
0
SEQEND
8
RASTER
0
POLYLINE
8
RASTER
66
1
70
1
0
VERTEX
8
RASTER
10
76.2
20
7.5
30
0
0
VERTEX
8
RASTER
10
77.1
20
7.5
30
0
0
VERTEX
8
RASTER
10
77.1
20
6.6
30
0
0
VERTEX
8
RASTER
10
76.2
20
6.6
30
0
0
SEQEND
8
RASTER
0
POLYLINE
8
RASTER
66
1
70
1
0
VERTEX
8
RASTER
10
78.4
20
7.5
30
0
0
VERTEX
8
RASTER
10
79.3
20
7.5
30
0
0
VERTEX
8
RASTER
10
79.3
20
6.6
30
0
0
VERTEX
8
RASTER
10
78.4
20
6.6
30
0
0
SEQEND
8
RASTER
0
POLYLINE
8
RASTER
66
1
70
1
0
VERTEX
8
RASTER
10
80.6
20
7.5
30
0
0
VERTEX
8
RASTER
10
81.5
20
7.5
30
0
0
VERTEX
8
RASTER
10
81.5
20
6.6
30
0
0
VERTEX
8
RASTER
10
80.6
20
6.6
30
0
0
SEQEND
8
RASTER
0
POLYLINE
8
RASTER
66
1
70
1
0
VERTEX
8
RASTER
10
82.8
20
7.5
30
0
0
VERTEX
8
RASTER
10
83.7
20
7.5
30
0
0
VERTEX
8
RASTER
10
83.7
20
6.6
30
0
0
VERTEX
8
RASTER
10
82.8
20
6.6
30
0
0
SEQEND
8
RASTER
0
ENDSEC
0
EOF
