  0
SECTION
  2
HEADER
  9
$ACADVER
  1
AC1015
  9
$ACADMAINTVER
 70
6
  9
$DWGCODEPAGE
  3
ANSI_1252
  9
$INSBASE
 10
0.0
 20
0.0
 30
0.0
  9
$EXTMIN
 10
1e+20
 20
1e+20
 30
1e+20
  9
$EXTMAX
 10
-1e+20
 20
-1e+20
 30
-1e+20
  9
$LIMMIN
 10
0.0
 20
0.0
  9
$LIMMAX
 10
420.0
 20
297.0
  9
$ORTHOMODE
 70
0
  9
$REGENMODE
 70
1
  9
$FILLMODE
 70
1
  9
$QTEXTMODE
 70
0
  9
$MIRRTEXT
 70
1
  9
$LTSCALE
 40
1.0
  9
$ATTMODE
 70
1
  9
$TEXTSIZE
 40
2.5
  9
$TRACEWID
 40
1.0
  9
$TEXTSTYLE
  7
Standard
  9
$CLAYER
  8
0
  9
$CELTYPE
  6
ByLayer
  9
$CECOLOR
 62
256
  9
$CELTSCALE
 40
1.0
  9
$DISPSILH
 70
0
  9
$DIMSCALE
 40
1.0
  9
$DIMASZ
 40
2.5
  9
$DIMEXO
 40
0.625
  9
$DIMDLI
 40
3.75
  9
$DIMRND
 40
0.0
  9
$DIMDLE
 40
0.0
  9
$DIMEXE
 40
1.25
  9
$DIMTP
 40
0.0
  9
$DIMTM
 40
0.0
  9
$DIMTXT
 40
2.5
  9
$DIMCEN
 40
2.5
  9
$DIMTSZ
 40
0.0
  9
$DIMTOL
 70
0
  9
$DIMLIM
 70
0
  9
$DIMTIH
 70
0
  9
$DIMTOH
 70
0
  9
$DIMSE1
 70
0
  9
$DIMSE2
 70
0
  9
$DIMTAD
 70
1
  9
$DIMZIN
 70
8
  9
$DIMBLK
  1

  9
$DIMASO
 70
1
  9
$DIMSHO
 70
1
  9
$DIMPOST
  1

  9
$DIMAPOST
  1

  9
$DIMALT
 70
0
  9
$DIMALTD
 70
3
  9
$DIMALTF
 40
0.03937007874
  9
$DIMLFAC
 40
1.0
  9
$DIMTOFL
 70
1
  9
$DIMTVP
 40
0.0
  9
$DIMTIX
 70
0
  9
$DIMSOXD
 70
0
  9
$DIMSAH
 70
0
  9
$DIMBLK1
  1

  9
$DIMBLK2
  1

  9
$DIMSTYLE
  2
ISO-25
  9
$DIMCLRD
 70
0
  9
$DIMCLRE
 70
0
  9
$DIMCLRT
 70
0
  9
$DIMTFAC
 40
1.0
  9
$DIMGAP
 40
0.625
  9
$DIMJUST
 70
0
  9
$DIMSD1
 70
0
  9
$DIMSD2
 70
0
  9
$DIMTOLJ
 70
0
  9
$DIMTZIN
 70
8
  9
$DIMALTZ
 70
0
  9
$DIMALTTZ
 70
0
  9
$DIMUPT
 70
0
  9
$DIMDEC
 70
2
  9
$DIMTDEC
 70
2
  9
$DIMALTU
 70
2
  9
$DIMALTTD
 70
3
  9
$DIMTXSTY
  7
Standard
  9
$DIMAUNIT
 70
0
  9
$DIMADEC
 70
0
  9
$DIMALTRND
 40
0.0
  9
$DIMAZIN
 70
0
  9
$DIMDSEP
 70
44
  9
$DIMATFIT
 70
3
  9
$DIMFRAC
 70
0
  9
$DIMLDRBLK
  1

  9
$DIMLUNIT
 70
2
  9
$DIMLWD
 70
-2
  9
$DIMLWE
 70
-2
  9
$DIMTMOVE
 70
0
  9
$LUNITS
 70
2
  9
$LUPREC
 70
4
  9
$SKETCHINC
 40
1.0
  9
$FILLETRAD
 40
10.0
  9
$AUNITS
 70
0
  9
$AUPREC
 70
2
  9
$MENU
  1
.
  9
$ELEVATION
 40
0.0
  9
$PELEVATION
 40
0.0
  9
$THICKNESS
 40
0.0
  9
$LIMCHECK
 70
0
  9
$CHAMFERA
 40
0.0
  9
$CHAMFERB
 40
0.0
  9
$CHAMFERC
 40
0.0
  9
$CHAMFERD
 40
0.0
  9
$SKPOLY
 70
0
  9
$TDCREATE
 40
2461296.4656944443
  9
$TDUCREATE
 40
2458532.153996898
  9
$TDUPDATE
 40
2461296.4656944443
  9
$TDUUPDATE
 40
2458532.1544311
  9
$TDINDWG
 40
0.0
  9
$TDUSRTIMER
 40
0.0
  9
$USRTIMER
 70
1
  9
$ANGBASE
 50
0.0
  9
$ANGDIR
 70
0
  9
$PDMODE
 70
0
  9
$PDSIZE
 40
0.0
  9
$PLINEWID
 40
0.0
  9
$SPLFRAME
 70
0
  9
$SPLINETYPE
 70
6
  9
$SPLINESEGS
 70
8
  9
$HANDSEED
  5
68
  9
$SURFTAB1
 70
6
  9
$SURFTAB2
 70
6
  9
$SURFTYPE
 70
6
  9
$SURFU
 70
6
  9
$SURFV
 70
6
  9
$UCSBASE
  2

  9
$UCSNAME
  2

  9
$UCSORG
 10
0.0
 20
0.0
 30
0.0
  9
$UCSXDIR
 10
1.0
 20
0.0
 30
0.0
  9
$UCSYDIR
 10
0.0
 20
1.0
 30
0.0
  9
$UCSORTHOREF
  2

  9
$UCSORTHOVIEW
 70
0
  9
$UCSORGTOP
 10
0.0
 20
0.0
 30
0.0
  9
$UCSORGBOTTOM
 10
0.0
 20
0.0
 30
0.0
  9
$UCSORGLEFT
 10
0.0
 20
0.0
 30
0.0
  9
$UCSORGRIGHT
 10
0.0
 20
0.0
 30
0.0
  9
$UCSORGFRONT
 10
0.0
 20
0.0
 30
0.0
  9
$UCSORGBACK
 10
0.0
 20
0.0
 30
0.0
  9
$PUCSBASE
  2

  9
$PUCSNAME
  2

  9
$PUCSORG
 10
0.0
 20
0.0
 30
0.0
  9
$PUCSXDIR
 10
1.0
 20
0.0
 30
0.0
  9
$PUCSYDIR
 10
0.0
 20
1.0
 30
0.0
  9
$PUCSORTHOREF
  2

  9
$PUCSORTHOVIEW
 70
0
  9
$PUCSORGTOP
 10
0.0
 20
0.0
 30
0.0
  9
$PUCSORGBOTTOM
 10
0.0
 20
0.0
 30
0.0
  9
$PUCSORGLEFT
 10
0.0
 20
0.0
 30
0.0
  9
$PUCSORGRIGHT
 10
0.0
 20
0.0
 30
0.0
  9
$PUCSORGFRONT
 10
0.0
 20
0.0
 30
0.0
  9
$PUCSORGBACK
 10
0.0
 20
0.0
 30
0.0
  9
$USERI1
 70
0
  9
$USERI2
 70
0
  9
$USERI3
 70
0
  9
$USERI4
 70
0
  9
$USERI5
 70
0
  9
$USERR1
 40
0.0
  9
$USERR2
 40
0.0
  9
$USERR3
 40
0.0
  9
$USERR4
 40
0.0
  9
$USERR5
 40
0.0
  9
$WORLDVIEW
 70
1
  9
$SHADEDGE
 70
3
  9
$SHADEDIF
 70
70
  9
$TILEMODE
 70
1
  9
$MAXACTVP
 70
64
  9
$PINSBASE
 10
0.0
 20
0.0
 30
0.0
  9
$PLIMCHECK
 70
0
  9
$PEXTMIN
 10
1e+20
 20
1e+20
 30
1e+20
  9
$PEXTMAX
 10
-1e+20
 20
-1e+20
 30
-1e+20
  9
$PLIMMIN
 10
0.0
 20
0.0
  9
$PLIMMAX
 10
420.0
 20
297.0
  9
$UNITMODE
 70
0
  9
$VISRETAIN
 70
1
  9
$PLINEGEN
 70
0
  9
$PSLTSCALE
 70
1
  9
$TREEDEPTH
 70
3020
  9
$CMLSTYLE
  2
Standard
  9
$CMLJUST
 70
0
  9
$CMLSCALE
 40
20.0
  9
$PROXYGRAPHICS
 70
1
  9
$MEASUREMENT
 70
1
  9
$CELWEIGHT
370
-1
  9
$ENDCAPS
280
0
  9
$JOINSTYLE
280
0
  9
$LWDISPLAY
290
0
  9
$INSUNITS
 70
4
  9
$HYPERLINKBASE
  1

  9
$STYLESHEET
  1

  9
$XEDIT
290
1
  9
$CEPSNTYPE
380
0
  9
$PSTYLEMODE
290
1
  9
$FINGERPRINTGUID
  2
{1DD37721-D639-4C83-B734-F7FB84B00DA8}
  9
$VERSIONGUID
  2
{B8D03255-ED6C-4944-A69F-E75170ED28FD}
  9
$EXTNAMES
290
1
  9
$PSVPSCALE
 40
0.0
  9
$OLESTARTUP
290
0
  0
ENDSEC
  0
SECTION
  2
CLASSES
  0
CLASS
  1
ACDBDICTIONARYWDFLT
  2
AcDbDictionaryWithDefault
  3
ObjectDBX Classes
 90
0
280
0
281
0
  0
CLASS
  1
SUN
  2
AcDbSun
  3
SCENEOE
 90
1153
280
0
281
0
  0
CLASS
  1
VISUALSTYLE
  2
AcDbVisualStyle
  3
ObjectDBX Classes
 90
4095
280
0
281
0
  0
CLASS
  1
MATERIAL
  2
AcDbMaterial
  3
ObjectDBX Classes
 90
1153
280
0
281
0
  0
CLASS
  1
SCALE
  2
AcDbScale
  3
ObjectDBX Classes
 90
1153
280
0
281
0
  0
CLASS
  1
TABLESTYLE
  2
AcDbTableStyle
  3
ObjectDBX Classes
 90
4095
280
0
281
0
  0
CLASS
  1
MLEADERSTYLE
  2
AcDbMLeaderStyle
  3
ACDB_MLEADERSTYLE_CLASS
 90
4095
280
0
281
0
  0
CLASS
  1
DICTIONARYVAR
  2
AcDbDictionaryVar
  3
ObjectDBX Classes
 90
0
280
0
281
0
  0
CLASS
  1
CELLSTYLEMAP
  2
AcDbCellStyleMap
  3
ObjectDBX Classes
 90
1152
280
0
281
0
  0
CLASS
  1
MENTALRAYRENDERSETTINGS
  2
AcDbMentalRayRenderSettings
  3
SCENEOE
 90
1024
280
0
281
0
  0
CLASS
  1
ACDBDETAILVIEWSTYLE
  2
AcDbDetailViewStyle
  3
ObjectDBX Classes
 90
1025
280
0
281
0
  0
CLASS
  1
ACDBSECTIONVIEWSTYLE
  2
AcDbSectionViewStyle
  3
ObjectDBX Classes
 90
1025
280
0
281
0
  0
CLASS
  1
RASTERVARIABLES
  2
AcDbRasterVariables
  3
ISM
 90
0
280
0
281
0
  0
CLASS
  1
ACDBPLACEHOLDER
  2
AcDbPlaceHolder
  3
ObjectDBX Classes
 90
0
280
0
281
0
  0
CLASS
  1
LAYOUT
  2
AcDbLayout
  3
ObjectDBX Classes
 90
0
280
0
281
0
  0
ENDSEC
  0
SECTION
  2
TABLES
  0
TABLE
  2
VPORT
  5
8
330
0
100
AcDbSymbolTable
 70
1
  0
VPORT
  5
23
330
8
100
AcDbSymbolTableRecord
100
AcDbViewportTableRecord
  2
*Active
 70
0
 10
0.0
 20
0.0
 11
1.0
 21
1.0
 12
0.0
 22
0.0
 13
0.0
 23
0.0
 14
0.5
 24
0.5
 15
0.5
 25
0.5
 16
0.0
 26
0.0
 36
1.0
 17
0.0
 27
0.0
 37
0.0
 40
1000.0
 41
1.34
 42
50.0
 43
0.0
 44
0.0
 50
0.0
 51
0.0
 71
0
 72
1000
 73
1
 74
3
 75
0
 76
0
 77
0
 78
0
281
0
 65
0
146
0.0
  0
ENDTAB
  0
TABLE
  2
LTYPE
  5
2
330
0
100
AcDbSymbolTable
 70
3
  0
LTYPE
  5
24
330
2
100
AcDbSymbolTableRecord
100
AcDbLinetypeTableRecord
  2
ByBlock
 70
0
  3

 72
65
 73
0
 40
0.0
  0
LTYPE
  5
25
330
2
100
AcDbSymbolTableRecord
100
AcDbLinetypeTableRecord
  2
ByLayer
 70
0
  3

 72
65
 73
0
 40
0.0
  0
LTYPE
  5
26
330
2
100
AcDbSymbolTableRecord
100
AcDbLinetypeTableRecord
  2
Continuous
 70
0
  3

 72
65
 73
0
 40
0.0
  0
ENDTAB
  0
TABLE
  2
LAYER
  5
1
330
0
100
AcDbSymbolTable
 70
4
  0
LAYER
  5
27
330
1
100
AcDbSymbolTableRecord
100
AcDbLayerTableRecord
  2
0
 70
0
 62
7
  6
Continuous
370
-3
390
13
  0
LAYER
  5
28
330
1
100
AcDbSymbolTableRecord
100
AcDbLayerTableRecord
  2
Defpoints
 70
0
 62
7
  6
Continuous
290
0
370
-3
390
13
  0
LAYER
  5
2F
330
1
100
AcDbSymbolTableRecord
100
AcDbLayerTableRecord
  2
CUT
 70
0
 62
1
  6
Continuous
370
-3
390
13
  0
LAYER
  5
30
330
1
100
AcDbSymbolTableRecord
100
AcDbLayerTableRecord
  2
RASTER
 70
0
 62
7
  6
Continuous
370
-3
390
13
  0
ENDTAB
  0
TABLE
  2
STYLE
  5
5
330
0
100
AcDbSymbolTable
 70
1
  0
STYLE
  5
29
330
5
100
AcDbSymbolTableRecord
100
AcDbTextStyleTableRecord
  2
Standard
 70
0
 40
0.0
 41
1.0
 50
0.0
 71
0
 42
2.5
  3
txt
  4

  0
ENDTAB
  0
TABLE
  2
VIEW
  5
7
330
0
100
AcDbSymbolTable
 70
0
  0
ENDTAB
  0
TABLE
  2
UCS
  5
6
330
0
100
AcDbSymbolTable
 70
0
  0
ENDTAB
  0
TABLE
  2
APPID
  5
3
330
0
100
AcDbSymbolTable
 70
3
  0
APPID
  5
2A
330
3
100
AcDbSymbolTableRecord
100
AcDbRegAppTableRecord
  2
ACAD
 70
0
  0
APPID
  5
65
330
3
100
AcDbSymbolTableRecord
100
AcDbRegAppTableRecord
  2
HATCHBACKGROUNDCOLOR
 70
0
  0
APPID
  5
66
330
3
100
AcDbSymbolTableRecord
100
AcDbRegAppTableRecord
  2
EZDXF
 70
0
  0
ENDTAB
  0
TABLE
  2
DIMSTYLE
  5
4
330
0
100
AcDbSymbolTable
 70
1
100
AcDbDimStyleTable
  0
DIMSTYLE
105
2B
330
4
100
AcDbSymbolTableRecord
100
AcDbDimStyleTableRecord
  2
Standard
 70
0
  3

  4

 40
1.0
 41
2.5
 42
0.625
 43
3.75
 44
1.25
 45
0.0
 46
0.0
 47
0.0
 48
0.0
140
2.5
141
2.5
142
0.0
143
0.03937007874
144
1.0
145
0.0
146
1.0
147
0.625
148
0.0
 71
0
 72
0
 73
0
 74
0
 75
0
 76
0
 77
1
 78
8
 79
3
170
0
171
3
172
1
173
0
174
0
175
0
176
0
177
0
178
0
179
2
271
2
272
2
273
2
274
3
275
0
276
0
277
2
278
44
279
0
280
0
281
0
282
0
283
0
284
8
285
0
286
0
288
0
289
3
371
-2
372
-2
  0
ENDTAB
  0
TABLE
  2
BLOCK_RECORD
  5
9
330
0
100
AcDbSymbolTable
 70
2
  0
BLOCK_RECORD
  5
17
330
9
100
AcDbSymbolTableRecord
100
AcDbBlockTableRecord
  2
*Model_Space
340
1A
  0
BLOCK_RECORD
  5
1B
330
9
100
AcDbSymbolTableRecord
100
AcDbBlockTableRecord
  2
*Paper_Space
340
1E
  0
ENDTAB
  0
ENDSEC
  0
SECTION
  2
BLOCKS
  0
BLOCK
  5
18
330
17
100
AcDbEntity
  8
0
100
AcDbBlockBegin
  2
*Model_Space
 70
0
 10
0.0
 20
0.0
 30
0.0
  3
*Model_Space
  1

  0
ENDBLK
  5
19
330
17
100
AcDbEntity
  8
0
100
AcDbBlockEnd
  0
BLOCK
  5
1C
330
1B
100
AcDbEntity
  8
0
100
AcDbBlockBegin
  2
*Paper_Space
 70
0
 10
0.0
 20
0.0
 30
0.0
  3
*Paper_Space
  1

  0
ENDBLK
  5
1D
330
1B
100
AcDbEntity
  8
0
100
AcDbBlockEnd
  0
ENDSEC
  0
SECTION
  2
ENTITIES
  0
LWPOLYLINE
  5
31
330
17
100
AcDbEntity
  8
CUT
100
AcDbPolyline
 90
38
 70
1
 10
5.656
 20
32.082
 10
15.958
 20
32.082
 10
16.987
 20
32.046
 10
17.965
 20
31.938
 10
18.891
 20
31.76
 10
19.769
 20
31.513
 10
20.601
 20
31.197
 10
21.391
 20
30.813
 10
22.141
 20
30.364
 10
22.855
 20
29.849
 10
23.535
 20
29.272
 10
24.184
 20
28.631
 10
24.807
 20
27.93
 10
25.47
 20
27.087
 10
24.807
 20
26.244
 10
24.184
 20
25.543
 10
23.535
 20
24.903
 10
22.855
 20
24.325
 10
22.141
 20
23.81
 10
21.391
 20
23.361
 10
20.601
 20
22.977
 10
19.769
 20
22.661
 10
18.891
 20
22.414
 10
17.965
 20
22.236
 10
16.987
 20
22.129
 10
15.958
 20
22.093
 10
5.656
 20
22.093
 10
5.084
 20
22.306
 10
4.627
 20
22.88
 10
4.289
 20
23.706
 10
4.051
 20
24.725
 10
3.91
 20
25.873
 10
3.862
 20
27.087
 10
3.91
 20
28.301
 10
4.051
 20
29.45
 10
4.289
 20
30.468
 10
4.627
 20
31.295
 10
5.084
 20
31.868
  0
HATCH
  5
32
330
17
100
AcDbEntity
  8
RASTER
 62
7
100
AcDbHatch
 10
0.0
 20
0.0
 30
0.0
210
0.0
220
0.0
230
1.0
  2
SOLID
 70
1
 71
0
 91
1
 92
3
 72
0
 73
1
 93
4
 10
5.868
 20
30.095
 10
21.279
 20
30.095
 10
21.279
 20
29.684
 10
5.868
 20
29.684
 97
0
 75
0
 76
1
 98
0
  0
HATCH
  5
33
330
17
100
AcDbEntity
  8
RASTER
 62
7
100
AcDbHatch
 10
0.0
 20
0.0
 30
0.0
210
0.0
220
0.0
230
1.0
  2
SOLID
 70
1
 71
0
 91
1
 92
3
 72
0
 73
1
 93
4
 10
5.868
 20
27.293
 10
21.279
 20
27.293
 10
21.279
 20
26.882
 10
5.868
 20
26.882
 97
0
 75
0
 76
1
 98
0
  0
HATCH
  5
34
330
17
100
AcDbEntity
  8
RASTER
 62
7
100
AcDbHatch
 10
0.0
 20
0.0
 30
0.0
210
0.0
220
0.0
230
1.0
  2
SOLID
 70
1
 71
0
 91
1
 92
3
 72
0
 73
1
 93
4
 10
5.868
 20
24.491
 10
21.279
 20
24.491
 10
21.279
 20
24.08
 10
5.868
 20
24.08
 97
0
 75
0
 76
1
 98
0
  0
HATCH
  5
35
330
17
100
AcDbEntity
  8
RASTER
 62
7
100
AcDbHatch
 10
0.0
 20
0.0
 30
0.0
210
0.0
220
0.0
230
1.0
  2
SOLID
 70
1
 71
0
 91
1
 92
3
 72
0
 73
1
 93
4
 10
4.374
 20
27.367
 10
5.868
 20
27.367
 10
5.868
 20
26.807
 10
4.374
 20
26.807
 97
0
 75
0
 76
1
 98
0
  0
LWPOLYLINE
  5
36
330
17
100
AcDbEntity
  8
CUT
100
AcDbPolyline
 90
4
 70
1
 10
8.447
 20
30.45
 10
11.322
 20
30.45
 10
11.322
 20
23.725
 10
8.447
 20
23.725
  0
LWPOLYLINE
  5
37
330
17
100
AcDbEntity
  8
CUT
100
AcDbPolyline
 90
4
 70
1
 10
15.919
 20
30.45
 10
18.794
 20
30.45
 10
18.794
 20
23.725
 10
15.919
 20
23.725
  0
LWPOLYLINE
  5
38
330
17
100
AcDbEntity
  8
CUT
100
AcDbPolyline
 90
34
 70
1
 10
34.755
 20
31.984
 10
38.835
 20
31.984
 10
38.835
 20
29.984
 10
44.335
 20
29.984
 10
44.335
 20
16.921
 10
43.764
 20
16.598
 10
43.213
 20
16.31
 10
42.662
 20
16.046
 10
42.111
 20
15.806
 10
41.559
 20
15.589
 10
41.008
 20
15.396
 10
40.456
 20
15.227
 10
39.905
 20
15.081
 10
39.353
 20
14.959
 10
38.835
 20
14.867
 10
38.835
 20
9.94
 10
40.285
 20
9.94
 10
40.285
 20
3.96
 10
33.305
 20
3.96
 10
33.305
 20
9.94
 10
34.755
 20
9.94
 10
34.755
 20
14.867
 10
34.237
 20
14.959
 10
33.686
 20
15.081
 10
33.134
 20
15.227
 10
32.583
 20
15.396
 10
32.031
 20
15.589
 10
31.48
 20
15.806
 10
30.929
 20
16.046
 10
30.377
 20
16.31
 10
29.826
 20
16.598
 10
29.255
 20
16.921
 10
29.255
 20
29.984
 10
34.755
 20
29.984
  0
HATCH
  5
39
330
17
100
AcDbEntity
  8
RASTER
 62
7
100
AcDbHatch
 10
0.0
 20
0.0
 30
0.0
210
0.0
220
0.0
230
1.0
  2
SOLID
 70
1
 71
0
 91
1
 92
3
 72
0
 73
1
 93
4
 10
29.295
 20
29.244
 10
44.295
 20
29.244
 10
44.295
 20
28.744
 10
29.295
 20
28.744
 97
0
 75
0
 76
1
 98
0
  0
HATCH
  5
3A
330
17
100
AcDbEntity
  8
RASTER
 62
7
100
AcDbHatch
 10
0.0
 20
0.0
 30
0.0
210
0.0
220
0.0
230
1.0
  2
SOLID
 70
1
 71
0
 91
4
 92
3
 72
0
 73
1
 93
45
 10
36.485
 20
27.874
 10
37.041
 20
27.884
 10
37.713
 20
27.768
 10
38.124
 20
27.613
 10
38.55
 20
27.35
 10
38.796
 20
27.129
 10
39.126
 20
26.622
 10
39.364
 20
25.999
 10
39.453
 20
25.497
 10
39.389
 20
24.946
 10
38.978
 20
24.053
 10
38.961
 20
23.775
 10
39.059
 20
23.356
 10
38.985
 20
23.086
 10
38.862
 20
22.963
 10
38.675
 20
22.879
 10
37.954
 20
22.763
 10
37.853
 20
22.593
 10
37.927
 20
22.126
 10
37.885
 20
21.971
 10
37.573
 20
21.791
 10
36.967
 20
21.683
 10
36.598
 20
21.683
 10
36.173
 20
21.749
 10
35.762
 20
21.904
 10
35.663
 20
22.003
 10
35.639
 20
22.101
 10
35.712
 20
22.495
 10
35.68
 20
22.709
 10
35.523
 20
22.798
 10
34.91
 20
22.874
 10
34.637
 20
23.019
 10
34.531
 20
23.282
 10
34.549
 20
23.536
 10
34.63
 20
23.799
 10
34.59
 20
24.08
 10
34.293
 20
24.668
 10
34.138
 20
25.202
 10
34.138
 20
25.62
 10
34.226
 20
26.048
 10
34.465
 20
26.646
 10
34.721
 20
27.055
 10
35.149
 20
27.439
 10
35.548
 20
27.655
 10
35.973
 20
27.795
 97
0
 92
2
 72
0
 73
1
 93
15
 10
35.744
 20
24.628
 10
35.393
 20
24.537
 10
35.238
 20
24.422
 10
35.083
 20
24.158
 10
35.051
 20
23.974
 10
35.105
 20
23.782
 10
35.213
 20
23.644
 10
35.407
 20
23.543
 10
35.836
 20
23.553
 10
36.047
 20
23.612
 10
36.237
 20
23.743
 10
36.392
 20
24.03
 10
36.387
 20
24.301
 10
36.271
 20
24.505
 10
36.067
 20
24.621
 97
0
 92
2
 72
0
 73
1
 93
14
 10
37.541
 20
24.628
 10
37.354
 20
24.545
 10
37.199
 20
24.331
 10
37.199
 20
24.006
 10
37.329
 20
23.767
 10
37.592
 20
23.588
 10
37.976
 20
23.529
 10
38.183
 20
23.543
 10
38.402
 20
23.669
 10
38.503
 20
23.863
 10
38.518
 20
24.045
 10
38.377
 20
24.373
 10
38.222
 20
24.513
 10
38.035
 20
24.596
 97
0
 92
3
 72
0
 73
1
 93
70
 10
33.754
 20
22.461
 10
33.973
 20
22.453
 10
34.162
 20
22.372
 10
34.598
 20
21.922
 10
35.009
 20
21.644
 10
36.771
 20
20.896
 10
37.182
 20
21.026
 10
38.663
 20
21.685
 10
38.993
 20
21.922
 10
39.372
 20
22.33
 10
39.509
 20
22.414
 10
39.723
 20
22.47
 10
39.945
 20
22.421
 10
40.075
 20
22.207
 10
40.083
 20
21.919
 10
40.248
 20
21.789
 10
40.331
 20
21.651
 10
40.329
 20
21.398
 10
40.223
 20
21.257
 10
39.947
 20
21.139
 10
39.527
 20
21.142
 10
39.02
 20
21.058
 10
37.846
 20
20.558
 10
37.804
 20
20.477
 10
37.863
 20
20.389
 10
38.946
 20
19.921
 10
39.477
 20
19.813
 10
40.029
 20
19.798
 10
40.223
 20
19.697
 10
40.329
 20
19.557
 10
40.329
 20
19.306
 10
40.248
 20
19.166
 10
40.083
 20
19.035
 10
40.043
 20
18.656
 10
39.856
 20
18.499
 10
39.723
 20
18.484
 10
39.509
 20
18.541
 10
39.347
 20
18.649
 10
38.968
 20
19.057
 10
38.712
 20
19.244
 10
36.96
 20
20.027
 10
36.746
 20
20.059
 10
34.878
 20
19.244
 10
34.622
 20
19.057
 10
34.243
 20
18.649
 10
34.081
 20
18.541
 10
33.867
 20
18.484
 10
33.648
 20
18.536
 10
33.515
 20
18.747
 10
33.508
 20
19.035
 10
33.343
 20
19.166
 10
33.262
 20
19.306
 10
33.262
 20
19.557
 10
33.367
 20
19.697
 10
33.562
 20
19.798
 10
34.113
 20
19.813
 10
34.645
 20
19.921
 10
35.727
 20
20.389
 10
35.786
 20
20.477
 10
35.744
 20
20.558
 10
34.571
 20
21.058
 10
34.064
 20
21.142
 10
33.643
 20
21.139
 10
33.367
 20
21.257
 10
33.262
 20
21.398
 10
33.259
 20
21.651
 10
33.343
 20
21.789
 10
33.508
 20
21.919
 10
33.498
 20
22.101
 10
33.572
 20
22.347
 97
0
 75
0
 76
1
 98
0
  0
LWPOLYLINE
  5
3B
330
17
100
AcDbEntity
  8
CUT
100
AcDbPolyline
 90
34
 70
1
 10
52.255
 20
31.984
 10
56.335
 20
31.984
 10
56.335
 20
29.984
 10
60.335
 20
29.984
 10
60.335
 20
18.923
 10
59.918
 20
18.627
 10
59.517
 20
18.363
 10
59.115
 20
18.117
 10
58.714
 20
17.892
 10
58.313
 20
17.686
 10
57.911
 20
17.499
 10
57.51
 20
17.333
 10
57.108
 20
17.185
 10
56.706
 20
17.058
 10
56.335
 20
16.958
 10
56.335
 20
12.028
 10
57.785
 20
12.028
 10
57.785
 20
6.048
 10
50.805
 20
6.048
 10
50.805
 20
12.028
 10
52.255
 20
12.028
 10
52.255
 20
16.958
 10
51.884
 20
17.058
 10
51.482
 20
17.185
 10
51.081
 20
17.333
 10
50.679
 20
17.499
 10
50.278
 20
17.686
 10
49.876
 20
17.892
 10
49.475
 20
18.117
 10
49.074
 20
18.363
 10
48.673
 20
18.627
 10
48.255
 20
18.923
 10
48.255
 20
29.984
 10
52.255
 20
29.984
  0
HATCH
  5
3C
330
17
100
AcDbEntity
  8
RASTER
 62
7
100
AcDbHatch
 10
0.0
 20
0.0
 30
0.0
210
0.0
220
0.0
230
1.0
  2
SOLID
 70
1
 71
0
 91
1
 92
3
 72
0
 73
1
 93
4
 10
48.295
 20
29.244
 10
60.295
 20
29.244
 10
60.295
 20
28.744
 10
48.295
 20
28.744
 97
0
 75
0
 76
1
 98
0
  0
HATCH
  5
3D
330
17
100
AcDbEntity
  8
RASTER
 62
7
100
AcDbHatch
 10
0.0
 20
0.0
 30
0.0
210
0.0
220
0.0
230
1.0
  2
SOLID
 70
1
 71
0
 91
4
 92
3
 72
0
 73
1
 93
45
 10
54.051
 20
27.916
 10
54.489
 20
27.924
 10
55.018
 20
27.833
 10
55.341
 20
27.711
 10
55.676
 20
27.504
 10
55.87
 20
27.329
 10
56.13
 20
26.93
 10
56.318
 20
26.44
 10
56.387
 20
26.045
 10
56.337
 20
25.611
 10
56.013
 20
24.908
 10
56.0
 20
24.689
 10
56.077
 20
24.36
 10
56.019
 20
24.147
 10
55.922
 20
24.05
 10
55.775
 20
23.984
 10
55.208
 20
23.893
 10
55.128
 20
23.759
 10
55.186
 20
23.391
 10
55.153
 20
23.269
 10
54.907
 20
23.128
 10
54.431
 20
23.042
 10
54.14
 20
23.042
 10
53.805
 20
23.095
 10
53.482
 20
23.217
 10
53.404
 20
23.294
 10
53.385
 20
23.372
 10
53.443
 20
23.682
 10
53.418
 20
23.85
 10
53.294
 20
23.92
 10
52.811
 20
23.98
 10
52.596
 20
24.094
 10
52.513
 20
24.301
 10
52.527
 20
24.501
 10
52.59
 20
24.708
 10
52.559
 20
24.929
 10
52.325
 20
25.392
 10
52.203
 20
25.812
 10
52.203
 20
26.142
 10
52.273
 20
26.479
 10
52.461
 20
26.95
 10
52.662
 20
27.271
 10
52.999
 20
27.573
 10
53.313
 20
27.744
 10
53.648
 20
27.854
 97
0
 92
2
 72
0
 73
1
 93
15
 10
53.468
 20
25.361
 10
53.191
 20
25.289
 10
53.069
 20
25.198
 10
52.947
 20
24.991
 10
52.922
 20
24.846
 10
52.964
 20
24.695
 10
53.05
 20
24.586
 10
53.203
 20
24.507
 10
53.54
 20
24.515
 10
53.706
 20
24.561
 10
53.855
 20
24.664
 10
53.978
 20
24.89
 10
53.974
 20
25.103
 10
53.883
 20
25.264
 10
53.722
 20
25.355
 97
0
 92
2
 72
0
 73
1
 93
14
 10
54.882
 20
25.361
 10
54.735
 20
25.295
 10
54.613
 20
25.127
 10
54.613
 20
24.871
 10
54.716
 20
24.683
 10
54.923
 20
24.542
 10
55.225
 20
24.495
 10
55.388
 20
24.507
 10
55.56
 20
24.606
 10
55.64
 20
24.759
 10
55.651
 20
24.902
 10
55.541
 20
25.16
 10
55.419
 20
25.27
 10
55.272
 20
25.336
 97
0
 92
3
 72
0
 73
1
 93
70
 10
51.901
 20
23.654
 10
52.073
 20
23.649
 10
52.222
 20
23.585
 10
52.565
 20
23.23
 10
52.889
 20
23.011
 10
54.276
 20
22.422
 10
54.599
 20
22.525
 10
55.766
 20
23.044
 10
56.025
 20
23.23
 10
56.323
 20
23.552
 10
56.432
 20
23.618
 10
56.6
 20
23.662
 10
56.775
 20
23.623
 10
56.877
 20
23.455
 10
56.883
 20
23.228
 10
57.013
 20
23.126
 10
57.079
 20
23.017
 10
57.077
 20
22.818
 10
56.994
 20
22.707
 10
56.777
 20
22.614
 10
56.445
 20
22.616
 10
56.046
 20
22.55
 10
55.122
 20
22.157
 10
55.089
 20
22.093
 10
55.136
 20
22.023
 10
55.988
 20
21.655
 10
56.407
 20
21.57
 10
56.841
 20
21.558
 10
56.994
 20
21.479
 10
57.077
 20
21.369
 10
57.077
 20
21.171
 10
57.013
 20
21.061
 10
56.883
 20
20.958
 10
56.852
 20
20.66
 10
56.705
 20
20.536
 10
56.6
 20
20.524
 10
56.432
 20
20.569
 10
56.304
 20
20.654
 10
56.006
 20
20.975
 10
55.804
 20
21.123
 10
54.425
 20
21.739
 10
54.256
 20
21.764
 10
52.786
 20
21.123
 10
52.585
 20
20.975
 10
52.286
 20
20.654
 10
52.158
 20
20.569
 10
51.99
 20
20.524
 10
51.818
 20
20.565
 10
51.713
 20
20.731
 10
51.707
 20
20.958
 10
51.577
 20
21.061
 10
51.513
 20
21.171
 10
51.513
 20
21.369
 10
51.597
 20
21.479
 10
51.75
 20
21.558
 10
52.184
 20
21.57
 10
52.602
 20
21.655
 10
53.454
 20
22.023
 10
53.501
 20
22.093
 10
53.468
 20
22.157
 10
52.544
 20
22.55
 10
52.145
 20
22.616
 10
51.814
 20
22.614
 10
51.597
 20
22.707
 10
51.513
 20
22.818
 10
51.511
 20
23.017
 10
51.577
 20
23.126
 10
51.707
 20
23.228
 10
51.699
 20
23.372
 10
51.758
 20
23.565
 97
0
 75
0
 76
1
 98
0
  0
LWPOLYLINE
  5
3E
330
17
100
AcDbEntity
  8
CUT
100
AcDbPolyline
 90
38
 70
1
 10
65.952
 20
32.082
 10
76.253
 20
32.082
 10
77.282
 20
32.046
 10
78.26
 20
31.938
 10
79.186
 20
31.76
 10
80.064
 20
31.513
 10
80.897
 20
31.197
 10
81.686
 20
30.813
 10
82.437
 20
30.364
 10
83.15
 20
29.849
 10
83.83
 20
29.272
 10
84.479
 20
28.631
 10
85.102
 20
27.93
 10
85.765
 20
27.087
 10
85.102
 20
26.244
 10
84.479
 20
25.543
 10
83.83
 20
24.903
 10
83.15
 20
24.325
 10
82.437
 20
23.81
 10
81.686
 20
23.361
 10
80.897
 20
22.977
 10
80.064
 20
22.661
 10
79.186
 20
22.414
 10
78.26
 20
22.236
 10
77.282
 20
22.129
 10
76.253
 20
22.093
 10
65.952
 20
22.093
 10
65.379
 20
22.306
 10
64.923
 20
22.88
 10
64.584
 20
23.706
 10
64.346
 20
24.725
 10
64.205
 20
25.873
 10
64.158
 20
27.087
 10
64.205
 20
28.301
 10
64.346
 20
29.45
 10
64.584
 20
30.468
 10
64.923
 20
31.295
 10
65.379
 20
31.868
  0
HATCH
  5
3F
330
17
100
AcDbEntity
  8
RASTER
 62
7
100
AcDbHatch
 10
0.0
 20
0.0
 30
0.0
210
0.0
220
0.0
230
1.0
  2
SOLID
 70
1
 71
0
 91
1
 92
3
 72
0
 73
1
 93
4
 10
66.163
 20
30.095
 10
81.574
 20
30.095
 10
81.574
 20
29.684
 10
66.163
 20
29.684
 97
0
 75
0
 76
1
 98
0
  0
HATCH
  5
40
330
17
100
AcDbEntity
  8
RASTER
 62
7
100
AcDbHatch
 10
0.0
 20
0.0
 30
0.0
210
0.0
220
0.0
230
1.0
  2
SOLID
 70
1
 71
0
 91
1
 92
3
 72
0
 73
1
 93
4
 10
66.163
 20
27.293
 10
81.574
 20
27.293
 10
81.574
 20
26.882
 10
66.163
 20
26.882
 97
0
 75
0
 76
1
 98
0
  0
HATCH
  5
41
330
17
100
AcDbEntity
  8
RASTER
 62
7
100
AcDbHatch
 10
0.0
 20
0.0
 30
0.0
210
0.0
220
0.0
230
1.0
  2
SOLID
 70
1
 71
0
 91
1
 92
3
 72
0
 73
1
 93
4
 10
66.163
 20
24.491
 10
81.574
 20
24.491
 10
81.574
 20
24.08
 10
66.163
 20
24.08
 97
0
 75
0
 76
1
 98
0
  0
HATCH
  5
42
330
17
100
AcDbEntity
  8
RASTER
 62
7
100
AcDbHatch
 10
0.0
 20
0.0
 30
0.0
210
0.0
220
0.0
230
1.0
  2
SOLID
 70
1
 71
0
 91
1
 92
3
 72
0
 73
1
 93
4
 10
64.669
 20
27.367
 10
66.163
 20
27.367
 10
66.163
 20
26.807
 10
64.669
 20
26.807
 97
0
 75
0
 76
1
 98
0
  0
LWPOLYLINE
  5
43
330
17
100
AcDbEntity
  8
CUT
100
AcDbPolyline
 90
4
 70
1
 10
68.742
 20
30.45
 10
71.617
 20
30.45
 10
71.617
 20
23.725
 10
68.742
 20
23.725
  0
LWPOLYLINE
  5
44
330
17
100
AcDbEntity
  8
CUT
100
AcDbPolyline
 90
4
 70
1
 10
76.214
 20
30.45
 10
79.089
 20
30.45
 10
79.089
 20
23.725
 10
76.214
 20
23.725
  0
LWPOLYLINE
  5
45
330
17
100
AcDbEntity
  8
CUT
100
AcDbPolyline
 90
34
 70
1
 10
95.05
 20
31.984
 10
99.13
 20
31.984
 10
99.13
 20
29.984
 10
104.63
 20
29.984
 10
104.63
 20
16.921
 10
104.06
 20
16.598
 10
103.508
 20
16.31
 10
102.957
 20
16.046
 10
102.406
 20
15.806
 10
101.854
 20
15.589
 10
101.303
 20
15.396
 10
100.751
 20
15.227
 10
100.2
 20
15.081
 10
99.648
 20
14.959
 10
99.13
 20
14.867
 10
99.13
 20
9.94
 10
100.58
 20
9.94
 10
100.58
 20
3.96
 10
93.6
 20
3.96
 10
93.6
 20
9.94
 10
95.05
 20
9.94
 10
95.05
 20
14.867
 10
94.533
 20
14.959
 10
93.981
 20
15.081
 10
93.429
 20
15.227
 10
92.878
 20
15.396
 10
92.326
 20
15.589
 10
91.775
 20
15.806
 10
91.224
 20
16.046
 10
90.672
 20
16.31
 10
90.121
 20
16.598
 10
89.55
 20
16.921
 10
89.55
 20
29.984
 10
95.05
 20
29.984
  0
HATCH
  5
46
330
17
100
AcDbEntity
  8
RASTER
 62
7
100
AcDbHatch
 10
0.0
 20
0.0
 30
0.0
210
0.0
220
0.0
230
1.0
  2
SOLID
 70
1
 71
0
 91
1
 92
3
 72
0
 73
1
 93
4
 10
89.59
 20
29.244
 10
104.59
 20
29.244
 10
104.59
 20
28.744
 10
89.59
 20
28.744
 97
0
 75
0
 76
1
 98
0
  0
HATCH
  5
47
330
17
100
AcDbEntity
  8
RASTER
 62
7
100
AcDbHatch
 10
0.0
 20
0.0
 30
0.0
210
0.0
220
0.0
230
1.0
  2
SOLID
 70
1
 71
0
 91
4
 92
3
 72
0
 73
1
 93
45
 10
96.78
 20
27.874
 10
97.336
 20
27.884
 10
98.008
 20
27.768
 10
98.419
 20
27.613
 10
98.845
 20
27.35
 10
99.091
 20
27.129
 10
99.421
 20
26.622
 10
99.659
 20
25.999
 10
99.748
 20
25.497
 10
99.684
 20
24.946
 10
99.273
 20
24.053
 10
99.256
 20
23.775
 10
99.354
 20
23.356
 10
99.28
 20
23.086
 10
99.157
 20
22.963
 10
98.97
 20
22.879
 10
98.249
 20
22.763
 10
98.149
 20
22.593
 10
98.222
 20
22.126
 10
98.181
 20
21.971
 10
97.868
 20
21.791
 10
97.263
 20
21.683
 10
96.894
 20
21.683
 10
96.468
 20
21.749
 10
96.057
 20
21.904
 10
95.958
 20
22.003
 10
95.934
 20
22.101
 10
96.008
 20
22.495
 10
95.976
 20
22.709
 10
95.818
 20
22.798
 10
95.205
 20
22.874
 10
94.932
 20
23.019
 10
94.827
 20
23.282
 10
94.844
 20
23.536
 10
94.925
 20
23.799
 10
94.886
 20
24.08
 10
94.588
 20
24.668
 10
94.433
 20
25.202
 10
94.433
 20
25.62
 10
94.521
 20
26.048
 10
94.76
 20
26.646
 10
95.016
 20
27.055
 10
95.444
 20
27.439
 10
95.843
 20
27.655
 10
96.269
 20
27.795
 97
0
 92
2
 72
0
 73
1
 93
15
 10
96.04
 20
24.628
 10
95.688
 20
24.537
 10
95.533
 20
24.422
 10
95.378
 20
24.158
 10
95.346
 20
23.974
 10
95.4
 20
23.782
 10
95.508
 20
23.644
 10
95.703
 20
23.543
 10
96.131
 20
23.553
 10
96.342
 20
23.612
 10
96.532
 20
23.743
 10
96.687
 20
24.03
 10
96.682
 20
24.301
 10
96.566
 20
24.505
 10
96.362
 20
24.621
 97
0
 92
2
 72
0
 73
1
 93
14
 10
97.836
 20
24.628
 10
97.649
 20
24.545
 10
97.494
 20
24.331
 10
97.494
 20
24.006
 10
97.624
 20
23.767
 10
97.888
 20
23.588
 10
98.272
 20
23.529
 10
98.478
 20
23.543
 10
98.697
 20
23.669
 10
98.798
 20
23.863
 10
98.813
 20
24.045
 10
98.673
 20
24.373
 10
98.518
 20
24.513
 10
98.331
 20
24.596
 97
0
 92
3
 72
0
 73
1
 93
70
 10
94.049
 20
22.461
 10
94.268
 20
22.453
 10
94.457
 20
22.372
 10
94.893
 20
21.922
 10
95.304
 20
21.644
 10
97.066
 20
20.896
 10
97.477
 20
21.026
 10
98.958
 20
21.685
 10
99.288
 20
21.922
 10
99.667
 20
22.33
 10
99.805
 20
22.414
 10
100.019
 20
22.47
 10
100.24
 20
22.421
 10
100.371
 20
22.207
 10
100.378
 20
21.919
 10
100.543
 20
21.789
 10
100.626
 20
21.651
 10
100.624
 20
21.398
 10
100.518
 20
21.257
 10
100.243
 20
21.139
 10
99.822
 20
21.142
 10
99.315
 20
21.058
 10
98.141
 20
20.558
 10
98.099
 20
20.477
 10
98.158
 20
20.389
 10
99.241
 20
19.921
 10
99.773
 20
19.813
 10
100.324
 20
19.798
 10
100.518
 20
19.697
 10
100.624
 20
19.557
 10
100.624
 20
19.306
 10
100.543
 20
19.166
 10
100.378
 20
19.035
 10
100.339
 20
18.656
 10
100.152
 20
18.499
 10
100.019
 20
18.484
 10
99.805
 20
18.541
 10
99.642
 20
18.649
 10
99.263
 20
19.057
 10
99.007
 20
19.244
 10
97.255
 20
20.027
 10
97.041
 20
20.059
 10
95.173
 20
19.244
 10
94.918
 20
19.057
 10
94.539
 20
18.649
 10
94.376
 20
18.541
 10
94.162
 20
18.484
 10
93.943
 20
18.536
 10
93.81
 20
18.747
 10
93.803
 20
19.035
 10
93.638
 20
19.166
 10
93.557
 20
19.306
 10
93.557
 20
19.557
 10
93.663
 20
19.697
 10
93.857
 20
19.798
 10
94.408
 20
19.813
 10
94.94
 20
19.921
 10
96.022
 20
20.389
 10
96.081
 20
20.477
 10
96.04
 20
20.558
 10
94.866
 20
21.058
 10
94.359
 20
21.142
 10
93.938
 20
21.139
 10
93.663
 20
21.257
 10
93.557
 20
21.398
 10
93.554
 20
21.651
 10
93.638
 20
21.789
 10
93.803
 20
21.919
 10
93.793
 20
22.101
 10
93.867
 20
22.347
 97
0
 75
0
 76
1
 98
0
  0
LWPOLYLINE
  5
48
330
17
100
AcDbEntity
  8
CUT
100
AcDbPolyline
 90
34
 70
1
 10
112.55
 20
31.984
 10
116.63
 20
31.984
 10
116.63
 20
29.984
 10
120.63
 20
29.984
 10
120.63
 20
18.923
 10
120.213
 20
18.627
 10
119.812
 20
18.363
 10
119.411
 20
18.117
 10
119.009
 20
17.892
 10
118.608
 20
17.686
 10
118.207
 20
17.499
 10
117.805
 20
17.333
 10
117.403
 20
17.185
 10
117.002
 20
17.058
 10
116.63
 20
16.958
 10
116.63
 20
12.028
 10
118.08
 20
12.028
 10
118.08
 20
6.048
 10
111.1
 20
6.048
 10
111.1
 20
12.028
 10
112.55
 20
12.028
 10
112.55
 20
16.958
 10
112.179
 20
17.058
 10
111.777
 20
17.185
 10
111.376
 20
17.333
 10
110.974
 20
17.499
 10
110.573
 20
17.686
 10
110.171
 20
17.892
 10
109.77
 20
18.117
 10
109.369
 20
18.363
 10
108.968
 20
18.627
 10
108.55
 20
18.923
 10
108.55
 20
29.984
 10
112.55
 20
29.984
  0
HATCH
  5
49
330
17
100
AcDbEntity
  8
RASTER
 62
7
100
AcDbHatch
 10
0.0
 20
0.0
 30
0.0
210
0.0
220
0.0
230
1.0
  2
SOLID
 70
1
 71
0
 91
1
 92
3
 72
0
 73
1
 93
4
 10
108.59
 20
29.244
 10
120.59
 20
29.244
 10
120.59
 20
28.744
 10
108.59
 20
28.744
 97
0
 75
0
 76
1
 98
0
  0
HATCH
  5
4A
330
17
100
AcDbEntity
  8
RASTER
 62
7
100
AcDbHatch
 10
0.0
 20
0.0
 30
0.0
210
0.0
220
0.0
230
1.0
  2
SOLID
 70
1
 71
0
 91
4
 92
3
 72
0
 73
1
 93
45
 10
114.346
 20
27.916
 10
114.784
 20
27.924
 10
115.313
 20
27.833
 10
115.636
 20
27.711
 10
115.972
 20
27.504
 10
116.165
 20
27.329
 10
116.425
 20
26.93
 10
116.613
 20
26.44
 10
116.683
 20
26.045
 10
116.632
 20
25.611
 10
116.309
 20
24.908
 10
116.295
 20
24.689
 10
116.373
 20
24.36
 10
116.314
 20
24.147
 10
116.218
 20
24.05
 10
116.07
 20
23.984
 10
115.503
 20
23.893
 10
115.423
 20
23.759
 10
115.481
 20
23.391
 10
115.449
 20
23.269
 10
115.203
 20
23.128
 10
114.726
 20
23.042
 10
114.435
 20
23.042
 10
114.1
 20
23.095
 10
113.777
 20
23.217
 10
113.699
 20
23.294
 10
113.68
 20
23.372
 10
113.738
 20
23.682
 10
113.713
 20
23.85
 10
113.589
 20
23.92
 10
113.107
 20
23.98
 10
112.891
 20
24.094
 10
112.808
 20
24.301
 10
112.822
 20
24.501
 10
112.886
 20
24.708
 10
112.855
 20
24.929
 10
112.62
 20
25.392
 10
112.498
 20
25.812
 10
112.498
 20
26.142
 10
112.568
 20
26.479
 10
112.756
 20
26.95
 10
112.957
 20
27.271
 10
113.294
 20
27.573
 10
113.608
 20
27.744
 10
113.943
 20
27.854
 97
0
 92
2
 72
0
 73
1
 93
15
 10
113.763
 20
25.361
 10
113.486
 20
25.289
 10
113.364
 20
25.198
 10
113.242
 20
24.991
 10
113.217
 20
24.846
 10
113.26
 20
24.695
 10
113.345
 20
24.586
 10
113.498
 20
24.507
 10
113.835
 20
24.515
 10
114.001
 20
24.561
 10
114.151
 20
24.664
 10
114.273
 20
24.89
 10
114.269
 20
25.103
 10
114.178
 20
25.264
 10
114.017
 20
25.355
 97
0
 92
2
 72
0
 73
1
 93
14
 10
115.177
 20
25.361
 10
115.03
 20
25.295
 10
114.908
 20
25.127
 10
114.908
 20
24.871
 10
115.011
 20
24.683
 10
115.218
 20
24.542
 10
115.52
 20
24.495
 10
115.683
 20
24.507
 10
115.855
 20
24.606
 10
115.935
 20
24.759
 10
115.946
 20
24.902
 10
115.836
 20
25.16
 10
115.714
 20
25.27
 10
115.567
 20
25.336
 97
0
 92
3
 72
0
 73
1
 93
70
 10
112.196
 20
23.654
 10
112.368
 20
23.649
 10
112.518
 20
23.585
 10
112.861
 20
23.23
 10
113.184
 20
23.011
 10
114.571
 20
22.422
 10
114.895
 20
22.525
 10
116.061
 20
23.044
 10
116.32
 20
23.23
 10
116.619
 20
23.552
 10
116.727
 20
23.618
 10
116.896
 20
23.662
 10
117.07
 20
23.623
 10
117.173
 20
23.455
 10
117.178
 20
23.228
 10
117.308
 20
23.126
 10
117.374
 20
23.017
 10
117.372
 20
22.818
 10
117.289
 20
22.707
 10
117.072
 20
22.614
 10
116.741
 20
22.616
 10
116.342
 20
22.55
 10
115.418
 20
22.157
 10
115.385
 20
22.093
 10
115.431
 20
22.023
 10
116.283
 20
21.655
 10
116.702
 20
21.57
 10
117.136
 20
21.558
 10
117.289
 20
21.479
 10
117.372
 20
21.369
 10
117.372
 20
21.171
 10
117.308
 20
21.061
 10
117.178
 20
20.958
 10
117.147
 20
20.66
 10
117.0
 20
20.536
 10
116.896
 20
20.524
 10
116.727
 20
20.569
 10
116.599
 20
20.654
 10
116.301
 20
20.975
 10
116.099
 20
21.123
 10
114.72
 20
21.739
 10
114.552
 20
21.764
 10
113.081
 20
21.123
 10
112.88
 20
20.975
 10
112.582
 20
20.654
 10
112.454
 20
20.569
 10
112.285
 20
20.524
 10
112.113
 20
20.565
 10
112.008
 20
20.731
 10
112.002
 20
20.958
 10
111.873
 20
21.061
 10
111.809
 20
21.171
 10
111.809
 20
21.369
 10
111.892
 20
21.479
 10
112.045
 20
21.558
 10
112.479
 20
21.57
 10
112.897
 20
21.655
 10
113.75
 20
22.023
 10
113.796
 20
22.093
 10
113.763
 20
22.157
 10
112.839
 20
22.55
 10
112.44
 20
22.616
 10
112.109
 20
22.614
 10
111.892
 20
22.707
 10
111.809
 20
22.818
 10
111.807
 20
23.017
 10
111.873
 20
23.126
 10
112.002
 20
23.228
 10
111.995
 20
23.372
 10
112.053
 20
23.565
 97
0
 75
0
 76
1
 98
0
  0
LWPOLYLINE
  5
4B
330
17
100
AcDbEntity
  8
CUT
100
AcDbPolyline
 90
38
 70
1
 10
126.247
 20
32.082
 10
136.548
 20
32.082
 10
137.578
 20
32.046
 10
138.555
 20
31.938
 10
139.481
 20
31.76
 10
140.359
 20
31.513
 10
141.192
 20
31.197
 10
141.982
 20
30.813
 10
142.732
 20
30.364
 10
143.445
 20
29.849
 10
144.125
 20
29.272
 10
144.775
 20
28.631
 10
145.397
 20
27.93
 10
146.061
 20
27.087
 10
145.397
 20
26.244
 10
144.775
 20
25.543
 10
144.125
 20
24.903
 10
143.445
 20
24.325
 10
142.732
 20
23.81
 10
141.982
 20
23.361
 10
141.192
 20
22.977
 10
140.359
 20
22.661
 10
139.481
 20
22.414
 10
138.555
 20
22.236
 10
137.578
 20
22.129
 10
136.548
 20
22.093
 10
126.247
 20
22.093
 10
125.674
 20
22.306
 10
125.218
 20
22.88
 10
124.879
 20
23.706
 10
124.642
 20
24.725
 10
124.5
 20
25.873
 10
124.453
 20
27.087
 10
124.5
 20
28.301
 10
124.642
 20
29.45
 10
124.879
 20
30.468
 10
125.218
 20
31.295
 10
125.674
 20
31.868
  0
HATCH
  5
4C
330
17
100
AcDbEntity
  8
RASTER
 62
7
100
AcDbHatch
 10
0.0
 20
0.0
 30
0.0
210
0.0
220
0.0
230
1.0
  2
SOLID
 70
1
 71
0
 91
1
 92
3
 72
0
 73
1
 93
4
 10
126.458
 20
30.095
 10
141.869
 20
30.095
 10
141.869
 20
29.684
 10
126.458
 20
29.684
 97
0
 75
0
 76
1
 98
0
  0
HATCH
  5
4D
330
17
100
AcDbEntity
  8
RASTER
 62
7
100
AcDbHatch
 10
0.0
 20
0.0
 30
0.0
210
0.0
220
0.0
230
1.0
  2
SOLID
 70
1
 71
0
 91
1
 92
3
 72
0
 73
1
 93
4
 10
126.458
 20
27.293
 10
141.869
 20
27.293
 10
141.869
 20
26.882
 10
126.458
 20
26.882
 97
0
 75
0
 76
1
 98
0
  0
HATCH
  5
4E
330
17
100
AcDbEntity
  8
RASTER
 62
7
100
AcDbHatch
 10
0.0
 20
0.0
 30
0.0
210
0.0
220
0.0
230
1.0
  2
SOLID
 70
1
 71
0
 91
1
 92
3
 72
0
 73
1
 93
4
 10
126.458
 20
24.491
 10
141.869
 20
24.491
 10
141.869
 20
24.08
 10
126.458
 20
24.08
 97
0
 75
0
 76
1
 98
0
  0
HATCH
  5
4F
330
17
100
AcDbEntity
  8
RASTER
 62
7
100
AcDbHatch
 10
0.0
 20
0.0
 30
0.0
210
0.0
220
0.0
230
1.0
  2
SOLID
 70
1
 71
0
 91
1
 92
3
 72
0
 73
1
 93
4
 10
124.964
 20
27.367
 10
126.458
 20
27.367
 10
126.458
 20
26.807
 10
124.964
 20
26.807
 97
0
 75
0
 76
1
 98
0
  0
LWPOLYLINE
  5
50
330
17
100
AcDbEntity
  8
CUT
100
AcDbPolyline
 90
4
 70
1
 10
129.037
 20
30.45
 10
131.912
 20
30.45
 10
131.912
 20
23.725
 10
129.037
 20
23.725
  0
LWPOLYLINE
  5
51
330
17
100
AcDbEntity
  8
CUT
100
AcDbPolyline
 90
4
 70
1
 10
136.509
 20
30.45
 10
139.384
 20
30.45
 10
139.384
 20
23.725
 10
136.509
 20
23.725
  0
LWPOLYLINE
  5
52
330
17
100
AcDbEntity
  8
CUT
100
AcDbPolyline
 90
34
 70
1
 10
155.346
 20
31.984
 10
159.426
 20
31.984
 10
159.426
 20
29.984
 10
164.926
 20
29.984
 10
164.926
 20
16.921
 10
164.355
 20
16.598
 10
163.804
 20
16.31
 10
163.252
 20
16.046
 10
162.701
 20
15.806
 10
162.15
 20
15.589
 10
161.598
 20
15.396
 10
161.047
 20
15.227
 10
160.495
 20
15.081
 10
159.943
 20
14.959
 10
159.426
 20
14.867
 10
159.426
 20
9.94
 10
160.876
 20
9.94
 10
160.876
 20
3.96
 10
153.896
 20
3.96
 10
153.896
 20
9.94
 10
155.346
 20
9.94
 10
155.346
 20
14.867
 10
154.828
 20
14.959
 10
154.276
 20
15.081
 10
153.725
 20
15.227
 10
153.173
 20
15.396
 10
152.622
 20
15.589
 10
152.07
 20
15.806
 10
151.519
 20
16.046
 10
150.968
 20
16.31
 10
150.416
 20
16.598
 10
149.846
 20
16.921
 10
149.846
 20
29.984
 10
155.346
 20
29.984
  0
HATCH
  5
53
330
17
100
AcDbEntity
  8
RASTER
 62
7
100
AcDbHatch
 10
0.0
 20
0.0
 30
0.0
210
0.0
220
0.0
230
1.0
  2
SOLID
 70
1
 71
0
 91
1
 92
3
 72
0
 73
1
 93
4
 10
149.886
 20
29.244
 10
164.886
 20
29.244
 10
164.886
 20
28.744
 10
149.886
 20
28.744
 97
0
 75
0
 76
1
 98
0
  0
HATCH
  5
54
330
17
100
AcDbEntity
  8
RASTER
 62
7
100
AcDbHatch
 10
0.0
 20
0.0
 30
0.0
210
0.0
220
0.0
230
1.0
  2
SOLID
 70
1
 71
0
 91
4
 92
3
 72
0
 73
1
 93
45
 10
157.076
 20
27.874
 10
157.632
 20
27.884
 10
158.303
 20
27.768
 10
158.714
 20
27.613
 10
159.14
 20
27.35
 10
159.386
 20
27.129
 10
159.716
 20
26.622
 10
159.955
 20
25.999
 10
160.043
 20
25.497
 10
159.979
 20
24.946
 10
159.568
 20
24.053
 10
159.551
 20
23.775
 10
159.649
 20
23.356
 10
159.576
 20
23.086
 10
159.453
 20
22.963
 10
159.266
 20
22.879
 10
158.545
 20
22.763
 10
158.444
 20
22.593
 10
158.518
 20
22.126
 10
158.476
 20
21.971
 10
158.163
 20
21.791
 10
157.558
 20
21.683
 10
157.189
 20
21.683
 10
156.763
 20
21.749
 10
156.352
 20
21.904
 10
156.254
 20
22.003
 10
156.229
 20
22.101
 10
156.303
 20
22.495
 10
156.271
 20
22.709
 10
156.113
 20
22.798
 10
155.501
 20
22.874
 10
155.228
 20
23.019
 10
155.122
 20
23.282
 10
155.139
 20
23.536
 10
155.22
 20
23.799
 10
155.181
 20
24.08
 10
154.883
 20
24.668
 10
154.728
 20
25.202
 10
154.728
 20
25.62
 10
154.817
 20
26.048
 10
155.055
 20
26.646
 10
155.311
 20
27.055
 10
155.739
 20
27.439
 10
156.138
 20
27.655
 10
156.564
 20
27.795
 97
0
 92
2
 72
0
 73
1
 93
15
 10
156.335
 20
24.628
 10
155.983
 20
24.537
 10
155.828
 20
24.422
 10
155.673
 20
24.158
 10
155.641
 20
23.974
 10
155.695
 20
23.782
 10
155.803
 20
23.644
 10
155.998
 20
23.543
 10
156.426
 20
23.553
 10
156.638
 20
23.612
 10
156.827
 20
23.743
 10
156.982
 20
24.03
 10
156.977
 20
24.301
 10
156.861
 20
24.505
 10
156.657
 20
24.621
 97
0
 92
2
 72
0
 73
1
 93
14
 10
158.131
 20
24.628
 10
157.944
 20
24.545
 10
157.789
 20
24.331
 10
157.789
 20
24.006
 10
157.92
 20
23.767
 10
158.183
 20
23.588
 10
158.567
 20
23.529
 10
158.773
 20
23.543
 10
158.992
 20
23.669
 10
159.093
 20
23.863
 10
159.108
 20
24.045
 10
158.968
 20
24.373
 10
158.813
 20
24.513
 10
158.626
 20
24.596
 97
0
 92
3
 72
0
 73
1
 93
70
 10
154.344
 20
22.461
 10
154.563
 20
22.453
 10
154.753
 20
22.372
 10
155.188
 20
21.922
 10
155.599
 20
21.644
 10
157.361
 20
20.896
 10
157.772
 20
21.026
 10
159.253
 20
21.685
 10
159.583
 20
21.922
 10
159.962
 20
22.33
 10
160.1
 20
22.414
 10
160.314
 20
22.47
 10
160.535
 20
22.421
 10
160.666
 20
22.207
 10
160.673
 20
21.919
 10
160.838
 20
21.789
 10
160.922
 20
21.651
 10
160.919
 20
21.398
 10
160.813
 20
21.257
 10
160.538
 20
21.139
 10
160.117
 20
21.142
 10
159.61
 20
21.058
 10
158.436
 20
20.558
 10
158.395
 20
20.477
 10
158.454
 20
20.389
 10
159.536
 20
19.921
 10
160.068
 20
19.813
 10
160.619
 20
19.798
 10
160.813
 20
19.697
 10
160.919
 20
19.557
 10
160.919
 20
19.306
 10
160.838
 20
19.166
 10
160.673
 20
19.035
 10
160.634
 20
18.656
 10
160.447
 20
18.499
 10
160.314
 20
18.484
 10
160.1
 20
18.541
 10
159.937
 20
18.649
 10
159.558
 20
19.057
 10
159.303
 20
19.244
 10
157.55
 20
20.027
 10
157.336
 20
20.059
 10
155.469
 20
19.244
 10
155.213
 20
19.057
 10
154.834
 20
18.649
 10
154.671
 20
18.541
 10
154.457
 20
18.484
 10
154.238
 20
18.536
 10
154.105
 20
18.747
 10
154.098
 20
19.035
 10
153.933
 20
19.166
 10
153.852
 20
19.306
 10
153.852
 20
19.557
 10
153.958
 20
19.697
 10
154.152
 20
19.798
 10
154.703
 20
19.813
 10
155.235
 20
19.921
 10
156.318
 20
20.389
 10
156.377
 20
20.477
 10
156.335
 20
20.558
 10
155.161
 20
21.058
 10
154.654
 20
21.142
 10
154.233
 20
21.139
 10
153.958
 20
21.257
 10
153.852
 20
21.398
 10
153.85
 20
21.651
 10
153.933
 20
21.789
 10
154.098
 20
21.919
 10
154.088
 20
22.101
 10
154.162
 20
22.347
 97
0
 75
0
 76
1
 98
0
  0
LWPOLYLINE
  5
55
330
17
100
AcDbEntity
  8
CUT
100
AcDbPolyline
 90
34
 70
1
 10
172.846
 20
31.984
 10
176.926
 20
31.984
 10
176.926
 20
29.984
 10
180.926
 20
29.984
 10
180.926
 20
18.923
 10
180.508
 20
18.627
 10
180.107
 20
18.363
 10
179.706
 20
18.117
 10
179.305
 20
17.892
 10
178.903
 20
17.686
 10
178.502
 20
17.499
 10
178.1
 20
17.333
 10
177.699
 20
17.185
 10
177.297
 20
17.058
 10
176.926
 20
16.958
 10
176.926
 20
12.028
 10
178.376
 20
12.028
 10
178.376
 20
6.048
 10
171.396
 20
6.048
 10
171.396
 20
12.028
 10
172.846
 20
12.028
 10
172.846
 20
16.958
 10
172.474
 20
17.058
 10
172.073
 20
17.185
 10
171.671
 20
17.333
 10
171.269
 20
17.499
 10
170.868
 20
17.686
 10
170.467
 20
17.892
 10
170.065
 20
18.117
 10
169.664
 20
18.363
 10
169.263
 20
18.627
 10
168.846
 20
18.923
 10
168.846
 20
29.984
 10
172.846
 20
29.984
  0
HATCH
  5
56
330
17
100
AcDbEntity
  8
RASTER
 62
7
100
AcDbHatch
 10
0.0
 20
0.0
 30
0.0
210
0.0
220
0.0
230
1.0
  2
SOLID
 70
1
 71
0
 91
1
 92
3
 72
0
 73
1
 93
4
 10
168.886
 20
29.244
 10
180.886
 20
29.244
 10
180.886
 20
28.744
 10
168.886
 20
28.744
 97
0
 75
0
 76
1
 98
0
  0
HATCH
  5
57
330
17
100
AcDbEntity
  8
RASTER
 62
7
100
AcDbHatch
 10
0.0
 20
0.0
 30
0.0
210
0.0
220
0.0
230
1.0
  2
SOLID
 70
1
 71
0
 91
4
 92
3
 72
0
 73
1
 93
45
 10
174.642
 20
27.916
 10
175.079
 20
27.924
 10
175.608
 20
27.833
 10
175.932
 20
27.711
 10
176.267
 20
27.504
 10
176.461
 20
27.329
 10
176.72
 20
26.93
 10
176.908
 20
26.44
 10
176.978
 20
26.045
 10
176.927
 20
25.611
 10
176.604
 20
24.908
 10
176.59
 20
24.689
 10
176.668
 20
24.36
 10
176.61
 20
24.147
 10
176.513
 20
24.05
 10
176.366
 20
23.984
 10
175.798
 20
23.893
 10
175.719
 20
23.759
 10
175.777
 20
23.391
 10
175.744
 20
23.269
 10
175.498
 20
23.128
 10
175.021
 20
23.042
 10
174.731
 20
23.042
 10
174.395
 20
23.095
 10
174.072
 20
23.217
 10
173.995
 20
23.294
 10
173.975
 20
23.372
 10
174.033
 20
23.682
 10
174.008
 20
23.85
 10
173.884
 20
23.92
 10
173.402
 20
23.98
 10
173.187
 20
24.094
 10
173.103
 20
24.301
 10
173.117
 20
24.501
 10
173.181
 20
24.708
 10
173.15
 20
24.929
 10
172.915
 20
25.392
 10
172.793
 20
25.812
 10
172.793
 20
26.142
 10
172.863
 20
26.479
 10
173.051
 20
26.95
 10
173.253
 20
27.271
 10
173.59
 20
27.573
 10
173.903
 20
27.744
 10
174.239
 20
27.854
 97
0
 92
2
 72
0
 73
1
 93
15
 10
174.058
 20
25.361
 10
173.781
 20
25.289
 10
173.659
 20
25.198
 10
173.537
 20
24.991
 10
173.512
 20
24.846
 10
173.555
 20
24.695
 10
173.64
 20
24.586
 10
173.793
 20
24.507
 10
174.13
 20
24.515
 10
174.297
 20
24.561
 10
174.446
 20
24.664
 10
174.568
 20
24.89
 10
174.564
 20
25.103
 10
174.473
 20
25.264
 10
174.312
 20
25.355
 97
0
 92
2
 72
0
 73
1
 93
14
 10
175.473
 20
25.361
 10
175.325
 20
25.295
 10
175.203
 20
25.127
 10
175.203
 20
24.871
 10
175.306
 20
24.683
 10
175.513
 20
24.542
 10
175.815
 20
24.495
 10
175.978
 20
24.507
 10
176.151
 20
24.606
 10
176.23
 20
24.759
 10
176.242
 20
24.902
 10
176.131
 20
25.16
 10
176.009
 20
25.27
 10
175.862
 20
25.336
 97
0
 92
3
 72
0
 73
1
 93
70
 10
172.491
 20
23.654
 10
172.664
 20
23.649
 10
172.813
 20
23.585
 10
173.156
 20
23.23
 10
173.479
 20
23.011
 10
174.866
 20
22.422
 10
175.19
 20
22.525
 10
176.356
 20
23.044
 10
176.615
 20
23.23
 10
176.914
 20
23.552
 10
177.022
 20
23.618
 10
177.191
 20
23.662
 10
177.365
 20
23.623
 10
177.468
 20
23.455
 10
177.474
 20
23.228
 10
177.603
 20
23.126
 10
177.669
 20
23.017
 10
177.667
 20
22.818
 10
177.584
 20
22.707
 10
177.367
 20
22.614
 10
177.036
 20
22.616
 10
176.637
 20
22.55
 10
175.713
 20
22.157
 10
175.68
 20
22.093
 10
175.726
 20
22.023
 10
176.579
 20
21.655
 10
176.997
 20
21.57
 10
177.431
 20
21.558
 10
177.584
 20
21.479
 10
177.667
 20
21.369
 10
177.667
 20
21.171
 10
177.603
 20
21.061
 10
177.474
 20
20.958
 10
177.443
 20
20.66
 10
177.295
 20
20.536
 10
177.191
 20
20.524
 10
177.022
 20
20.569
 10
176.894
 20
20.654
 10
176.596
 20
20.975
 10
176.395
 20
21.123
 10
175.015
 20
21.739
 10
174.847
 20
21.764
 10
173.377
 20
21.123
 10
173.175
 20
20.975
 10
172.877
 20
20.654
 10
172.749
 20
20.569
 10
172.58
 20
20.524
 10
172.408
 20
20.565
 10
172.303
 20
20.731
 10
172.298
 20
20.958
 10
172.168
 20
21.061
 10
172.104
 20
21.171
 10
172.104
 20
21.369
 10
172.187
 20
21.479
 10
172.34
 20
21.558
 10
172.774
 20
21.57
 10
173.193
 20
21.655
 10
174.045
 20
22.023
 10
174.091
 20
22.093
 10
174.058
 20
22.157
 10
173.134
 20
22.55
 10
172.735
 20
22.616
 10
172.404
 20
22.614
 10
172.187
 20
22.707
 10
172.104
 20
22.818
 10
172.102
 20
23.017
 10
172.168
 20
23.126
 10
172.298
 20
23.228
 10
172.29
 20
23.372
 10
172.348
 20
23.565
 97
0
 75
0
 76
1
 98
0
  0
LWPOLYLINE
  5
58
330
17
100
AcDbEntity
  8
CUT
100
AcDbPolyline
 90
38
 70
1
 10
186.542
 20
32.082
 10
196.843
 20
32.082
 10
197.873
 20
32.046
 10
198.85
 20
31.938
 10
199.777
 20
31.76
 10
200.655
 20
31.513
 10
201.487
 20
31.197
 10
202.277
 20
30.813
 10
203.027
 20
30.364
 10
203.74
 20
29.849
 10
204.42
 20
29.272
 10
205.07
 20
28.631
 10
205.692
 20
27.93
 10
206.356
 20
27.087
 10
205.692
 20
26.244
 10
205.07
 20
25.543
 10
204.42
 20
24.903
 10
203.74
 20
24.325
 10
203.027
 20
23.81
 10
202.277
 20
23.361
 10
201.487
 20
22.977
 10
200.655
 20
22.661
 10
199.777
 20
22.414
 10
198.85
 20
22.236
 10
197.873
 20
22.129
 10
196.843
 20
22.093
 10
186.542
 20
22.093
 10
185.969
 20
22.306
 10
185.513
 20
22.88
 10
185.174
 20
23.706
 10
184.937
 20
24.725
 10
184.795
 20
25.873
 10
184.748
 20
27.087
 10
184.795
 20
28.301
 10
184.937
 20
29.45
 10
185.174
 20
30.468
 10
185.513
 20
31.295
 10
185.969
 20
31.868
  0
HATCH
  5
59
330
17
100
AcDbEntity
  8
RASTER
 62
7
100
AcDbHatch
 10
0.0
 20
0.0
 30
0.0
210
0.0
220
0.0
230
1.0
  2
SOLID
 70
1
 71
0
 91
1
 92
3
 72
0
 73
1
 93
4
 10
186.754
 20
30.095
 10
202.165
 20
30.095
 10
202.165
 20
29.684
 10
186.754
 20
29.684
 97
0
 75
0
 76
1
 98
0
  0
HATCH
  5
5A
330
17
100
AcDbEntity
  8
RASTER
 62
7
100
AcDbHatch
 10
0.0
 20
0.0
 30
0.0
210
0.0
220
0.0
230
1.0
  2
SOLID
 70
1
 71
0
 91
1
 92
3
 72
0
 73
1
 93
4
 10
186.754
 20
27.293
 10
202.165
 20
27.293
 10
202.165
 20
26.882
 10
186.754
 20
26.882
 97
0
 75
0
 76
1
 98
0
  0
HATCH
  5
5B
330
17
100
AcDbEntity
  8
RASTER
 62
7
100
AcDbHatch
 10
0.0
 20
0.0
 30
0.0
210
0.0
220
0.0
230
1.0
  2
SOLID
 70
1
 71
0
 91
1
 92
3
 72
0
 73
1
 93
4
 10
186.754
 20
24.491
 10
202.165
 20
24.491
 10
202.165
 20
24.08
 10
186.754
 20
24.08
 97
0
 75
0
 76
1
 98
0
  0
HATCH
  5
5C
330
17
100
AcDbEntity
  8
RASTER
 62
7
100
AcDbHatch
 10
0.0
 20
0.0
 30
0.0
210
0.0
220
0.0
230
1.0
  2
SOLID
 70
1
 71
0
 91
1
 92
3
 72
0
 73
1
 93
4
 10
185.259
 20
27.367
 10
186.754
 20
27.367
 10
186.754
 20
26.807
 10
185.259
 20
26.807
 97
0
 75
0
 76
1
 98
0
  0
LWPOLYLINE
  5
5D
330
17
100
AcDbEntity
  8
CUT
100
AcDbPolyline
 90
4
 70
1
 10
189.332
 20
30.45
 10
192.207
 20
30.45
 10
192.207
 20
23.725
 10
189.332
 20
23.725
  0
LWPOLYLINE
  5
5E
330
17
100
AcDbEntity
  8
CUT
100
AcDbPolyline
 90
4
 70
1
 10
196.804
 20
30.45
 10
199.679
 20
30.45
 10
199.679
 20
23.725
 10
196.804
 20
23.725
  0
LWPOLYLINE
  5
5F
330
17
100
AcDbEntity
  8
CUT
100
AcDbPolyline
 90
34
 70
1
 10
215.641
 20
31.984
 10
219.721
 20
31.984
 10
219.721
 20
29.984
 10
225.221
 20
29.984
 10
225.221
 20
16.921
 10
224.65
 20
16.598
 10
224.099
 20
16.31
 10
223.547
 20
16.046
 10
222.996
 20
15.806
 10
222.445
 20
15.589
 10
221.893
 20
15.396
 10
221.342
 20
15.227
 10
220.79
 20
15.081
 10
220.239
 20
14.959
 10
219.721
 20
14.867
 10
219.721
 20
9.94
 10
221.171
 20
9.94
 10
221.171
 20
3.96
 10
214.191
 20
3.96
 10
214.191
 20
9.94
 10
215.641
 20
9.94
 10
215.641
 20
14.867
 10
215.123
 20
14.959
 10
214.571
 20
15.081
 10
214.02
 20
15.227
 10
213.468
 20
15.396
 10
212.917
 20
15.589
 10
212.365
 20
15.806
 10
211.814
 20
16.046
 10
211.263
 20
16.31
 10
210.712
 20
16.598
 10
210.141
 20
16.921
 10
210.141
 20
29.984
 10
215.641
 20
29.984
  0
HATCH
  5
60
330
17
100
AcDbEntity
  8
RASTER
 62
7
100
AcDbHatch
 10
0.0
 20
0.0
 30
0.0
210
0.0
220
0.0
230
1.0
  2
SOLID
 70
1
 71
0
 91
1
 92
3
 72
0
 73
1
 93
4
 10
210.181
 20
29.244
 10
225.181
 20
29.244
 10
225.181
 20
28.744
 10
210.181
 20
28.744
 97
0
 75
0
 76
1
 98
0
  0
HATCH
  5
61
330
17
100
AcDbEntity
  8
RASTER
 62
7
100
AcDbHatch
 10
0.0
 20
0.0
 30
0.0
210
0.0
220
0.0
230
1.0
  2
SOLID
 70
1
 71
0
 91
4
 92
3
 72
0
 73
1
 93
45
 10
217.371
 20
27.874
 10
217.927
 20
27.884
 10
218.599
 20
27.768
 10
219.01
 20
27.613
 10
219.435
 20
27.35
 10
219.681
 20
27.129
 10
220.011
 20
26.622
 10
220.25
 20
25.999
 10
220.338
 20
25.497
 10
220.274
 20
24.946
 10
219.863
 20
24.053
 10
219.846
 20
23.775
 10
219.945
 20
23.356
 10
219.871
 20
23.086
 10
219.748
 20
22.963
 10
219.561
 20
22.879
 10
218.84
 20
22.763
 10
218.739
 20
22.593
 10
218.813
 20
22.126
 10
218.771
 20
21.971
 10
218.458
 20
21.791
 10
217.853
 20
21.683
 10
217.484
 20
21.683
 10
217.058
 20
21.749
 10
216.647
 20
21.904
 10
216.549
 20
22.003
 10
216.524
 20
22.101
 10
216.598
 20
22.495
 10
216.566
 20
22.709
 10
216.409
 20
22.798
 10
215.796
 20
22.874
 10
215.523
 20
23.019
 10
215.417
 20
23.282
 10
215.434
 20
23.536
 10
215.515
 20
23.799
 10
215.476
 20
24.08
 10
215.178
 20
24.668
 10
215.023
 20
25.202
 10
215.023
 20
25.62
 10
215.112
 20
26.048
 10
215.35
 20
26.646
 10
215.606
 20
27.055
 10
216.035
 20
27.439
 10
216.433
 20
27.655
 10
216.859
 20
27.795
 97
0
 92
2
 72
0
 73
1
 93
15
 10
216.63
 20
24.628
 10
216.278
 20
24.537
 10
216.123
 20
24.422
 10
215.968
 20
24.158
 10
215.936
 20
23.974
 10
215.99
 20
23.782
 10
216.099
 20
23.644
 10
216.293
 20
23.543
 10
216.721
 20
23.553
 10
216.933
 20
23.612
 10
217.122
 20
23.743
 10
217.277
 20
24.03
 10
217.272
 20
24.301
 10
217.157
 20
24.505
 10
216.952
 20
24.621
 97
0
 92
2
 72
0
 73
1
 93
14
 10
218.426
 20
24.628
 10
218.239
 20
24.545
 10
218.084
 20
24.331
 10
218.084
 20
24.006
 10
218.215
 20
23.767
 10
218.478
 20
23.588
 10
218.862
 20
23.529
 10
219.069
 20
23.543
 10
219.288
 20
23.669
 10
219.389
 20
23.863
 10
219.403
 20
24.045
 10
219.263
 20
24.373
 10
219.108
 20
24.513
 10
218.921
 20
24.596
 97
0
 92
3
 72
0
 73
1
 93
70
 10
214.639
 20
22.461
 10
214.858
 20
22.453
 10
215.048
 20
22.372
 10
215.483
 20
21.922
 10
215.894
 20
21.644
 10
217.656
 20
20.896
 10
218.067
 20
21.026
 10
219.548
 20
21.685
 10
219.878
 20
21.922
 10
220.257
 20
22.33
 10
220.395
 20
22.414
 10
220.609
 20
22.47
 10
220.831
 20
22.421
 10
220.961
 20
22.207
 10
220.968
 20
21.919
 10
221.133
 20
21.789
 10
221.217
 20
21.651
 10
221.214
 20
21.398
 10
221.109
 20
21.257
 10
220.833
 20
21.139
 10
220.412
 20
21.142
 10
219.905
 20
21.058
 10
218.732
 20
20.558
 10
218.69
 20
20.477
 10
218.749
 20
20.389
 10
219.831
 20
19.921
 10
220.363
 20
19.813
 10
220.914
 20
19.798
 10
221.109
 20
19.697
 10
221.214
 20
19.557
 10
221.214
 20
19.306
 10
221.133
 20
19.166
 10
220.968
 20
19.035
 10
220.929
 20
18.656
 10
220.742
 20
18.499
 10
220.609
 20
18.484
 10
220.395
 20
18.541
 10
220.233
 20
18.649
 10
219.854
 20
19.057
 10
219.598
 20
19.244
 10
217.846
 20
20.027
 10
217.632
 20
20.059
 10
215.764
 20
19.244
 10
215.508
 20
19.057
 10
215.129
 20
18.649
 10
214.967
 20
18.541
 10
214.753
 20
18.484
 10
214.534
 20
18.536
 10
214.401
 20
18.747
 10
214.393
 20
19.035
 10
214.228
 20
19.166
 10
214.147
 20
19.306
 10
214.147
 20
19.557
 10
214.253
 20
19.697
 10
214.447
 20
19.798
 10
214.999
 20
19.813
 10
215.53
 20
19.921
 10
216.613
 20
20.389
 10
216.672
 20
20.477
 10
216.63
 20
20.558
 10
215.456
 20
21.058
 10
214.949
 20
21.142
 10
214.529
 20
21.139
 10
214.253
 20
21.257
 10
214.147
 20
21.398
 10
214.145
 20
21.651
 10
214.228
 20
21.789
 10
214.393
 20
21.919
 10
214.383
 20
22.101
 10
214.457
 20
22.347
 97
0
 75
0
 76
1
 98
0
  0
LWPOLYLINE
  5
62
330
17
100
AcDbEntity
  8
CUT
100
AcDbPolyline
 90
34
 70
1
 10
233.141
 20
31.984
 10
237.221
 20
31.984
 10
237.221
 20
29.984
 10
241.221
 20
29.984
 10
241.221
 20
18.923
 10
240.803
 20
18.627
 10
240.402
 20
18.363
 10
240.001
 20
18.117
 10
239.6
 20
17.892
 10
239.198
 20
17.686
 10
238.797
 20
17.499
 10
238.395
 20
17.333
 10
237.994
 20
17.185
 10
237.592
 20
17.058
 10
237.221
 20
16.958
 10
237.221
 20
12.028
 10
238.671
 20
12.028
 10
238.671
 20
6.048
 10
231.691
 20
6.048
 10
231.691
 20
12.028
 10
233.141
 20
12.028
 10
233.141
 20
16.958
 10
232.77
 20
17.058
 10
232.368
 20
17.185
 10
231.966
 20
17.333
 10
231.565
 20
17.499
 10
231.163
 20
17.686
 10
230.762
 20
17.892
 10
230.361
 20
18.117
 10
229.959
 20
18.363
 10
229.558
 20
18.627
 10
229.141
 20
18.923
 10
229.141
 20
29.984
 10
233.141
 20
29.984
  0
HATCH
  5
63
330
17
100
AcDbEntity
  8
RASTER
 62
7
100
AcDbHatch
 10
0.0
 20
0.0
 30
0.0
210
0.0
220
0.0
230
1.0
  2
SOLID
 70
1
 71
0
 91
1
 92
3
 72
0
 73
1
 93
4
 10
229.181
 20
29.244
 10
241.181
 20
29.244
 10
241.181
 20
28.744
 10
229.181
 20
28.744
 97
0
 75
0
 76
1
 98
0
  0
HATCH
  5
64
330
17
100
AcDbEntity
  8
RASTER
 62
7
100
AcDbHatch
 10
0.0
 20
0.0
 30
0.0
210
0.0
220
0.0
230
1.0
  2
SOLID
 70
1
 71
0
 91
4
 92
3
 72
0
 73
1
 93
45
 10
234.937
 20
27.916
 10
235.375
 20
27.924
 10
235.903
 20
27.833
 10
236.227
 20
27.711
 10
236.562
 20
27.504
 10
236.756
 20
27.329
 10
237.015
 20
26.93
 10
237.203
 20
26.44
 10
237.273
 20
26.045
 10
237.223
 20
25.611
 10
236.899
 20
24.908
 10
236.886
 20
24.689
 10
236.963
 20
24.36
 10
236.905
 20
24.147
 10
236.808
 20
24.05
 10
236.661
 20
23.984
 10
236.093
 20
23.893
 10
236.014
 20
23.759
 10
236.072
 20
23.391
 10
236.039
 20
23.269
 10
235.793
 20
23.128
 10
235.316
 20
23.042
 10
235.026
 20
23.042
 10
234.691
 20
23.095
 10
234.367
 20
23.217
 10
234.29
 20
23.294
 10
234.27
 20
23.372
 10
234.328
 20
23.682
 10
234.303
 20
23.85
 10
234.179
 20
23.92
 10
233.697
 20
23.98
 10
233.482
 20
24.094
 10
233.399
 20
24.301
 10
233.412
 20
24.501
 10
233.476
 20
24.708
 10
233.445
 20
24.929
 10
233.211
 20
25.392
 10
233.089
 20
25.812
 10
233.089
 20
26.142
 10
233.158
 20
26.479
 10
233.346
 20
26.95
 10
233.548
 20
27.271
 10
233.885
 20
27.573
 10
234.199
 20
27.744
 10
234.534
 20
27.854
 97
0
 92
2
 72
0
 73
1
 93
15
 10
234.354
 20
25.361
 10
234.077
 20
25.289
 10
233.955
 20
25.198
 10
233.833
 20
24.991
 10
233.807
 20
24.846
 10
233.85
 20
24.695
 10
233.935
 20
24.586
 10
234.088
 20
24.507
 10
234.425
 20
24.515
 10
234.592
 20
24.561
 10
234.741
 20
24.664
 10
234.863
 20
24.89
 10
234.859
 20
25.103
 10
234.768
 20
25.264
 10
234.607
 20
25.355
 97
0
 92
2
 72
0
 73
1
 93
14
 10
235.768
 20
25.361
 10
235.621
 20
25.295
 10
235.498
 20
25.127
 10
235.498
 20
24.871
 10
235.601
 20
24.683
 10
235.808
 20
24.542
 10
236.111
 20
24.495
 10
236.273
 20
24.507
 10
236.446
 20
24.606
 10
236.525
 20
24.759
 10
236.537
 20
24.902
 10
236.426
 20
25.16
 10
236.304
 20
25.27
 10
236.157
 20
25.336
 97
0
 92
3
 72
0
 73
1
 93
70
 10
232.786
 20
23.654
 10
232.959
 20
23.649
 10
233.108
 20
23.585
 10
233.451
 20
23.23
 10
233.774
 20
23.011
 10
235.161
 20
22.422
 10
235.485
 20
22.525
 10
236.651
 20
23.044
 10
236.911
 20
23.23
 10
237.209
 20
23.552
 10
237.318
 20
23.618
 10
237.486
 20
23.662
 10
237.66
 20
23.623
 10
237.763
 20
23.455
 10
237.769
 20
23.228
 10
237.899
 20
23.126
 10
237.965
 20
23.017
 10
237.963
 20
22.818
 10
237.879
 20
22.707
 10
237.662
 20
22.614
 10
237.331
 20
22.616
 10
236.932
 20
22.55
 10
236.008
 20
22.157
 10
235.975
 20
22.093
 10
236.022
 20
22.023
 10
236.874
 20
21.655
 10
237.292
 20
21.57
 10
237.726
 20
21.558
 10
237.879
 20
21.479
 10
237.963
 20
21.369
 10
237.963
 20
21.171
 10
237.899
 20
21.061
 10
237.769
 20
20.958
 10
237.738
 20
20.66
 10
237.591
 20
20.536
 10
237.486
 20
20.524
 10
237.318
 20
20.569
 10
237.19
 20
20.654
 10
236.891
 20
20.975
 10
236.69
 20
21.123
 10
235.311
 20
21.739
 10
235.142
 20
21.764
 10
233.672
 20
21.123
 10
233.47
 20
20.975
 10
233.172
 20
20.654
 10
233.044
 20
20.569
 10
232.876
 20
20.524
 10
232.703
 20
20.565
 10
232.599
 20
20.731
 10
232.593
 20
20.958
 10
232.463
 20
21.061
 10
232.399
 20
21.171
 10
232.399
 20
21.369
 10
232.482
 20
21.479
 10
232.635
 20
21.558
 10
233.069
 20
21.57
 10
233.488
 20
21.655
 10
234.34
 20
22.023
 10
234.387
 20
22.093
 10
234.354
 20
22.157
 10
233.43
 20
22.55
 10
233.031
 20
22.616
 10
232.699
 20
22.614
 10
232.482
 20
22.707
 10
232.399
 20
22.818
 10
232.397
 20
23.017
 10
232.463
 20
23.126
 10
232.593
 20
23.228
 10
232.585
 20
23.372
 10
232.643
 20
23.565
 97
0
 75
0
 76
1
 98
0
  0
ENDSEC
  0
SECTION
  2
OBJECTS
  0
DICTIONARY
  5
A
330
0
100
AcDbDictionary
281
1
  3
ACAD_COLOR
350
B
  3
ACAD_GROUP
350
C
  3
ACAD_LAYOUT
350
D
  3
ACAD_MATERIAL
350
E
  3
ACAD_MLEADERSTYLE
350
F
  3
ACAD_MLINESTYLE
350
10
  3
ACAD_PLOTSETTINGS
350
11
  3
ACAD_PLOTSTYLENAME
350
12
  3
ACAD_SCALELIST
350
14
  3
ACAD_TABLESTYLE
350
15
  3
ACAD_VISUALSTYLE
350
16
  3
EZDXF_META
350
2D
  0
DICTIONARY
  5
B
330
A
100
AcDbDictionary
281
1
  0
DICTIONARY
  5
C
330
A
100
AcDbDictionary
281
1
  0
DICTIONARY
  5
D
330
A
100
AcDbDictionary
281
1
  3
Model
350
1A
  3
Layout1
350
1E
  0
DICTIONARY
  5
E
330
A
100
AcDbDictionary
281
1
  3
ByBlock
350
1F
  3
ByLayer
350
20
  3
Global
350
21
  0
DICTIONARY
  5
F
330
A
100
AcDbDictionary
281
1
  3
Standard
350
2C
  0
DICTIONARY
  5
10
330
A
100
AcDbDictionary
281
1
  3
Standard
350
22
  0
DICTIONARY
  5
11
330
A
100
AcDbDictionary
281
1
  0
ACDBDICTIONARYWDFLT
  5
12
330
A
100
AcDbDictionary
281
1
  3
Normal
350
13
100
AcDbDictionaryWithDefault
340
13
  0
ACDBPLACEHOLDER
  5
13
330
12
  0
DICTIONARY
  5
14
330
A
100
AcDbDictionary
281
1
  0
DICTIONARY
  5
15
330
A
100
AcDbDictionary
281
1
  0
DICTIONARY
  5
16
330
A
100
AcDbDictionary
281
1
  0
LAYOUT
  5
1A
330
D
100
AcDbPlotSettings
  1

  4
A3
  6

 40
7.5
 41
20.0
 42
7.5
 43
20.0
 44
420.0
 45
297.0
 46
0.0
 47
0.0
 48
0.0
 49
0.0
140
0.0
141
0.0
142
1.0
143
1.0
 70
1024
 72
1
 73
0
 74
5
  7

 75
16
 76
0
 77
2
 78
300
147
1.0
148
0.0
149
0.0
100
AcDbLayout
  1
Model
 70
1
 71
0
 10
0.0
 20
0.0
 11
420.0
 21
297.0
 12
0.0
 22
0.0
 32
0.0
 14
1e+20
 24
1e+20
 34
1e+20
 15
-1e+20
 25
-1e+20
 35
-1e+20
146
0.0
 13
0.0
 23
0.0
 33
0.0
 16
1.0
 26
0.0
 36
0.0
 17
0.0
 27
1.0
 37
0.0
 76
1
330
17
  0
LAYOUT
  5
1E
330
D
100
AcDbPlotSettings
  1

  4
A3
  6

 40
7.5
 41
20.0
 42
7.5
 43
20.0
 44
420.0
 45
297.0
 46
0.0
 47
0.0
 48
0.0
 49
0.0
140
0.0
141
0.0
142
1.0
143
1.0
 70
0
 72
1
 73
0
 74
5
  7

 75
16
 76
0
 77
2
 78
300
147
1.0
148
0.0
149
0.0
100
AcDbLayout
  1
Layout1
 70
1
 71
1
 10
0.0
 20
0.0
 11
420.0
 21
297.0
 12
0.0
 22
0.0
 32
0.0
 14
1e+20
 24
1e+20
 34
1e+20
 15
-1e+20
 25
-1e+20
 35
-1e+20
146
0.0
 13
0.0
 23
0.0
 33
0.0
 16
1.0
 26
0.0
 36
0.0
 17
0.0
 27
1.0
 37
0.0
 76
1
330
1B
  0
MATERIAL
  5
1F
102
{ACAD_REACTORS
330
E
102
}
330
E
100
AcDbMaterial
  1
ByBlock
  2

 70
0
 40
1.0
 71
1
 41
1.0
 91
-1023410177
 42
1.0
 72
1
  3

 73
1
 74
1
 75
1
 44
0.5
 73
0
 45
1.0
 46
1.0
 77
1
  4

 78
1
 79
1
170
1
 48
1.0
171
1
  6

172
1
173
1
174
1
140
1.0
141
1.0
175
1
  7

176
1
177
1
178
1
143
1.0
179
1
  8

270
1
271
1
272
1
145
1.0
146
1.0
273
1
  9

274
1
275
1
276
1
 42
1.0
 72
1
  3

 73
1
 74
1
 75
1
 94
63
  0
MATERIAL
  5
20
102
{ACAD_REACTORS
330
E
102
}
330
E
100
AcDbMaterial
  1
ByLayer
  2

 70
0
 40
1.0
 71
1
 41
1.0
 91
-1023410177
 42
1.0
 72
1
  3

 73
1
 74
1
 75
1
 44
0.5
 73
0
 45
1.0
 46
1.0
 77
1
  4

 78
1
 79
1
170
1
 48
1.0
171
1
  6

172
1
173
1
174
1
140
1.0
141
1.0
175
1
  7

176
1
177
1
178
1
143
1.0
179
1
  8

270
1
271
1
272
1
145
1.0
146
1.0
273
1
  9

274
1
275
1
276
1
 42
1.0
 72
1
  3

 73
1
 74
1
 75
1
 94
63
  0
MATERIAL
  5
21
102
{ACAD_REACTORS
330
E
102
}
330
E
100
AcDbMaterial
  1
Global
  2

 70
0
 40
1.0
 71
1
 41
1.0
 91
-1023410177
 42
1.0
 72
1
  3

 73
1
 74
1
 75
1
 44
0.5
 73
0
 45
1.0
 46
1.0
 77
1
  4

 78
1
 79
1
170
1
 48
1.0
171
1
  6

172
1
173
1
174
1
140
1.0
141
1.0
175
1
  7

176
1
177
1
178
1
143
1.0
179
1
  8

270
1
271
1
272
1
145
1.0
146
1.0
273
1
  9

274
1
275
1
276
1
 42
1.0
 72
1
  3

 73
1
 74
1
 75
1
 94
63
  0
MLINESTYLE
  5
22
102
{ACAD_REACTORS
330
10
102
}
330
10
100
AcDbMlineStyle
  2
Standard
 70
0
  3

 62
256
 51
90.0
 52
90.0
 71
2
 49
0.5
 62
256
  6
BYLAYER
 49
-0.5
 62
256
  6
BYLAYER
  0
MLEADERSTYLE
  5
2C
102
{ACAD_REACTORS
330
F
102
}
330
F
100
AcDbMLeaderStyle
179
2
170
2
171
1
172
0
 90
2
 40
0.0
 41
0.0
173
1
 91
-1056964608
 92
-2
290
1
 42
2.0
291
1
 43
8.0
  3
Standard
 44
4.0
300

342
29
174
1
175
1
176
0
178
1
 93
-1056964608
 45
4.0
292
0
297
0
 46
4.0
 94
-1056964608
 47
1.0
 49
1.0
140
1.0
294
1
141
0.0
177
0
142
1.0
295
0
296
0
143
3.75
271
0
272
9
273
9
  0
DICTIONARY
  5
2D
330
A
100
AcDbDictionary
280
1
281
1
  3
CREATED_BY_EZDXF
350
2E
  3
WRITTEN_BY_EZDXF
350
67
  0
DICTIONARYVAR
  5
2E
330
2D
100
DictionaryVariables
280
0
  1
1.4.2 @ 2026-09-12T15:10:36.297023+00:00
  0
DICTIONARYVAR
  5
67
330
2D
100
DictionaryVariables
280
0
  1
1.4.2 @ 2026-09-12T15:10:36.309293+00:00
  0
ENDSEC
  0
EOF
