  0
SECTION
  2
HEADER
  9
$ACADVER
  1
AC1015
  9
$ACADMAINTVER
 70
6
  9
$DWGCODEPAGE
  3
ANSI_1252
  9
$INSBASE
 10
0.0
 20
0.0
 30
0.0
  9
$EXTMIN
 10
1e+20
 20
1e+20
 30
1e+20
  9
$EXTMAX
 10
-1e+20
 20
-1e+20
 30
-1e+20
  9
$LIMMIN
 10
0.0
 20
0.0
  9
$LIMMAX
 10
420.0
 20
297.0
  9
$ORTHOMODE
 70
0
  9
$REGENMODE
 70
1
  9
$FILLMODE
 70
1
  9
$QTEXTMODE
 70
0
  9
$MIRRTEXT
 70
1
  9
$LTSCALE
 40
1.0
  9
$ATTMODE
 70
1
  9
$TEXTSIZE
 40
2.5
  9
$TRACEWID
 40
1.0
  9
$TEXTSTYLE
  7
Standard
  9
$CLAYER
  8
0
  9
$CELTYPE
  6
ByLayer
  9
$CECOLOR
 62
256
  9
$CELTSCALE
 40
1.0
  9
$DISPSILH
 70
0
  9
$DIMSCALE
 40
1.0
  9
$DIMASZ
 40
2.5
  9
$DIMEXO
 40
0.625
  9
$DIMDLI
 40
3.75
  9
$DIMRND
 40
0.0
  9
$DIMDLE
 40
0.0
  9
$DIMEXE
 40
1.25
  9
$DIMTP
 40
0.0
  9
$DIMTM
 40
0.0
  9
$DIMTXT
 40
2.5
  9
$DIMCEN
 40
2.5
  9
$DIMTSZ
 40
0.0
  9
$DIMTOL
 70
0
  9
$DIMLIM
 70
0
  9
$DIMTIH
 70
0
  9
$DIMTOH
 70
0
  9
$DIMSE1
 70
0
  9
$DIMSE2
 70
0
  9
$DIMTAD
 70
1
  9
$DIMZIN
 70
8
  9
$DIMBLK
  1

  9
$DIMASO
 70
1
  9
$DIMSHO
 70
1
  9
$DIMPOST
  1

  9
$DIMAPOST
  1

  9
$DIMALT
 70
0
  9
$DIMALTD
 70
3
  9
$DIMALTF
 40
0.03937007874
  9
$DIMLFAC
 40
1.0
  9
$DIMTOFL
 70
1
  9
$DIMTVP
 40
0.0
  9
$DIMTIX
 70
0
  9
$DIMSOXD
 70
0
  9
$DIMSAH
 70
0
  9
$DIMBLK1
  1

  9
$DIMBLK2
  1

  9
$DIMSTYLE
  2
ISO-25
  9
$DIMCLRD
 70
0
  9
$DIMCLRE
 70
0
  9
$DIMCLRT
 70
0
  9
$DIMTFAC
 40
1.0
  9
$DIMGAP
 40
0.625
  9
$DIMJUST
 70
0
  9
$DIMSD1
 70
0
  9
$DIMSD2
 70
0
  9
$DIMTOLJ
 70
0
  9
$DIMTZIN
 70
8
  9
$DIMALTZ
 70
0
  9
$DIMALTTZ
 70
0
  9
$DIMUPT
 70
0
  9
$DIMDEC
 70
2
  9
$DIMTDEC
 70
2
  9
$DIMALTU
 70
2
  9
$DIMALTTD
 70
3
  9
$DIMTXSTY
  7
Standard
  9
$DIMAUNIT
 70
0
  9
$DIMADEC
 70
0
  9
$DIMALTRND
 40
0.0
  9
$DIMAZIN
 70
0
  9
$DIMDSEP
 70
44
  9
$DIMATFIT
 70
3
  9
$DIMFRAC
 70
0
  9
$DIMLDRBLK
  1

  9
$DIMLUNIT
 70
2
  9
$DIMLWD
 70
-2
  9
$DIMLWE
 70
-2
  9
$DIMTMOVE
 70
0
  9
$LUNITS
 70
2
  9
$LUPREC
 70
4
  9
$SKETCHINC
 40
1.0
  9
$FILLETRAD
 40
10.0
  9
$AUNITS
 70
0
  9
$AUPREC
 70
2
  9
$MENU
  1
.
  9
$ELEVATION
 40
0.0
  9
$PELEVATION
 40
0.0
  9
$THICKNESS
 40
0.0
  9
$LIMCHECK
 70
0
  9
$CHAMFERA
 40
0.0
  9
$CHAMFERB
 40
0.0
  9
$CHAMFERC
 40
0.0
  9
$CHAMFERD
 40
0.0
  9
$SKPOLY
 70
0
  9
$TDCREATE
 40
2461296.450648148
  9
$TDUCREATE
 40
2458532.153996898
  9
$TDUPDATE
 40
2461296.450648148
  9
$TDUUPDATE
 40
2458532.1544311
  9
$TDINDWG
 40
0.0
  9
$TDUSRTIMER
 40
0.0
  9
$USRTIMER
 70
1
  9
$ANGBASE
 50
0.0
  9
$ANGDIR
 70
0
  9
$PDMODE
 70
0
  9
$PDSIZE
 40
0.0
  9
$PLINEWID
 40
0.0
  9
$SPLFRAME
 70
0
  9
$SPLINETYPE
 70
6
  9
$SPLINESEGS
 70
8
  9
$HANDSEED
  5
68
  9
$SURFTAB1
 70
6
  9
$SURFTAB2
 70
6
  9
$SURFTYPE
 70
6
  9
$SURFU
 70
6
  9
$SURFV
 70
6
  9
$UCSBASE
  2

  9
$UCSNAME
  2

  9
$UCSORG
 10
0.0
 20
0.0
 30
0.0
  9
$UCSXDIR
 10
1.0
 20
0.0
 30
0.0
  9
$UCSYDIR
 10
0.0
 20
1.0
 30
0.0
  9
$UCSORTHOREF
  2

  9
$UCSORTHOVIEW
 70
0
  9
$UCSORGTOP
 10
0.0
 20
0.0
 30
0.0
  9
$UCSORGBOTTOM
 10
0.0
 20
0.0
 30
0.0
  9
$UCSORGLEFT
 10
0.0
 20
0.0
 30
0.0
  9
$UCSORGRIGHT
 10
0.0
 20
0.0
 30
0.0
  9
$UCSORGFRONT
 10
0.0
 20
0.0
 30
0.0
  9
$UCSORGBACK
 10
0.0
 20
0.0
 30
0.0
  9
$PUCSBASE
  2

  9
$PUCSNAME
  2

  9
$PUCSORG
 10
0.0
 20
0.0
 30
0.0
  9
$PUCSXDIR
 10
1.0
 20
0.0
 30
0.0
  9
$PUCSYDIR
 10
0.0
 20
1.0
 30
0.0
  9
$PUCSORTHOREF
  2

  9
$PUCSORTHOVIEW
 70
0
  9
$PUCSORGTOP
 10
0.0
 20
0.0
 30
0.0
  9
$PUCSORGBOTTOM
 10
0.0
 20
0.0
 30
0.0
  9
$PUCSORGLEFT
 10
0.0
 20
0.0
 30
0.0
  9
$PUCSORGRIGHT
 10
0.0
 20
0.0
 30
0.0
  9
$PUCSORGFRONT
 10
0.0
 20
0.0
 30
0.0
  9
$PUCSORGBACK
 10
0.0
 20
0.0
 30
0.0
  9
$USERI1
 70
0
  9
$USERI2
 70
0
  9
$USERI3
 70
0
  9
$USERI4
 70
0
  9
$USERI5
 70
0
  9
$USERR1
 40
0.0
  9
$USERR2
 40
0.0
  9
$USERR3
 40
0.0
  9
$USERR4
 40
0.0
  9
$USERR5
 40
0.0
  9
$WORLDVIEW
 70
1
  9
$SHADEDGE
 70
3
  9
$SHADEDIF
 70
70
  9
$TILEMODE
 70
1
  9
$MAXACTVP
 70
64
  9
$PINSBASE
 10
0.0
 20
0.0
 30
0.0
  9
$PLIMCHECK
 70
0
  9
$PEXTMIN
 10
1e+20
 20
1e+20
 30
1e+20
  9
$PEXTMAX
 10
-1e+20
 20
-1e+20
 30
-1e+20
  9
$PLIMMIN
 10
0.0
 20
0.0
  9
$PLIMMAX
 10
420.0
 20
297.0
  9
$UNITMODE
 70
0
  9
$VISRETAIN
 70
1
  9
$PLINEGEN
 70
0
  9
$PSLTSCALE
 70
1
  9
$TREEDEPTH
 70
3020
  9
$CMLSTYLE
  2
Standard
  9
$CMLJUST
 70
0
  9
$CMLSCALE
 40
20.0
  9
$PROXYGRAPHICS
 70
1
  9
$MEASUREMENT
 70
1
  9
$CELWEIGHT
370
-1
  9
$ENDCAPS
280
0
  9
$JOINSTYLE
280
0
  9
$LWDISPLAY
290
0
  9
$INSUNITS
 70
4
  9
$HYPERLINKBASE
  1

  9
$STYLESHEET
  1

  9
$XEDIT
290
1
  9
$CEPSNTYPE
380
0
  9
$PSTYLEMODE
290
1
  9
$FINGERPRINTGUID
  2
{B6675FE8-A885-410A-8C67-96310CEBC67D}
  9
$VERSIONGUID
  2
{69D0FA1E-005C-489C-8016-5F6D6039827A}
  9
$EXTNAMES
290
1
  9
$PSVPSCALE
 40
0.0
  9
$OLESTARTUP
290
0
  0
ENDSEC
  0
SECTION
  2
CLASSES
  0
CLASS
  1
ACDBDICTIONARYWDFLT
  2
AcDbDictionaryWithDefault
  3
ObjectDBX Classes
 90
0
280
0
281
0
  0
CLASS
  1
SUN
  2
AcDbSun
  3
SCENEOE
 90
1153
280
0
281
0
  0
CLASS
  1
VISUALSTYLE
  2
AcDbVisualStyle
  3
ObjectDBX Classes
 90
4095
280
0
281
0
  0
CLASS
  1
MATERIAL
  2
AcDbMaterial
  3
ObjectDBX Classes
 90
1153
280
0
281
0
  0
CLASS
  1
SCALE
  2
AcDbScale
  3
ObjectDBX Classes
 90
1153
280
0
281
0
  0
CLASS
  1
TABLESTYLE
  2
AcDbTableStyle
  3
ObjectDBX Classes
 90
4095
280
0
281
0
  0
CLASS
  1
MLEADERSTYLE
  2
AcDbMLeaderStyle
  3
ACDB_MLEADERSTYLE_CLASS
 90
4095
280
0
281
0
  0
CLASS
  1
DICTIONARYVAR
  2
AcDbDictionaryVar
  3
ObjectDBX Classes
 90
0
280
0
281
0
  0
CLASS
  1
CELLSTYLEMAP
  2
AcDbCellStyleMap
  3
ObjectDBX Classes
 90
1152
280
0
281
0
  0
CLASS
  1
MENTALRAYRENDERSETTINGS
  2
AcDbMentalRayRenderSettings
  3
SCENEOE
 90
1024
280
0
281
0
  0
CLASS
  1
ACDBDETAILVIEWSTYLE
  2
AcDbDetailViewStyle
  3
ObjectDBX Classes
 90
1025
280
0
281
0
  0
CLASS
  1
ACDBSECTIONVIEWSTYLE
  2
AcDbSectionViewStyle
  3
ObjectDBX Classes
 90
1025
280
0
281
0
  0
CLASS
  1
RASTERVARIABLES
  2
AcDbRasterVariables
  3
ISM
 90
0
280
0
281
0
  0
CLASS
  1
ACDBPLACEHOLDER
  2
AcDbPlaceHolder
  3
ObjectDBX Classes
 90
0
280
0
281
0
  0
CLASS
  1
LAYOUT
  2
AcDbLayout
  3
ObjectDBX Classes
 90
0
280
0
281
0
  0
ENDSEC
  0
SECTION
  2
TABLES
  0
TABLE
  2
VPORT
  5
8
330
0
100
AcDbSymbolTable
 70
1
  0
VPORT
  5
23
330
8
100
AcDbSymbolTableRecord
100
AcDbViewportTableRecord
  2
*Active
 70
0
 10
0.0
 20
0.0
 11
1.0
 21
1.0
 12
0.0
 22
0.0
 13
0.0
 23
0.0
 14
0.5
 24
0.5
 15
0.5
 25
0.5
 16
0.0
 26
0.0
 36
1.0
 17
0.0
 27
0.0
 37
0.0
 40
1000.0
 41
1.34
 42
50.0
 43
0.0
 44
0.0
 50
0.0
 51
0.0
 71
0
 72
1000
 73
1
 74
3
 75
0
 76
0
 77
0
 78
0
281
0
 65
0
146
0.0
  0
ENDTAB
  0
TABLE
  2
LTYPE
  5
2
330
0
100
AcDbSymbolTable
 70
3
  0
LTYPE
  5
24
330
2
100
AcDbSymbolTableRecord
100
AcDbLinetypeTableRecord
  2
ByBlock
 70
0
  3

 72
65
 73
0
 40
0.0
  0
LTYPE
  5
25
330
2
100
AcDbSymbolTableRecord
100
AcDbLinetypeTableRecord
  2
ByLayer
 70
0
  3

 72
65
 73
0
 40
0.0
  0
LTYPE
  5
26
330
2
100
AcDbSymbolTableRecord
100
AcDbLinetypeTableRecord
  2
Continuous
 70
0
  3

 72
65
 73
0
 40
0.0
  0
ENDTAB
  0
TABLE
  2
LAYER
  5
1
330
0
100
AcDbSymbolTable
 70
4
  0
LAYER
  5
27
330
1
100
AcDbSymbolTableRecord
100
AcDbLayerTableRecord
  2
0
 70
0
 62
7
  6
Continuous
370
-3
390
13
  0
LAYER
  5
28
330
1
100
AcDbSymbolTableRecord
100
AcDbLayerTableRecord
  2
Defpoints
 70
0
 62
7
  6
Continuous
290
0
370
-3
390
13
  0
LAYER
  5
2F
330
1
100
AcDbSymbolTableRecord
100
AcDbLayerTableRecord
  2
CUT
 70
0
 62
1
  6
Continuous
370
-3
390
13
  0
LAYER
  5
30
330
1
100
AcDbSymbolTableRecord
100
AcDbLayerTableRecord
  2
RASTER
 70
0
 62
7
  6
Continuous
370
-3
390
13
  0
ENDTAB
  0
TABLE
  2
STYLE
  5
5
330
0
100
AcDbSymbolTable
 70
1
  0
STYLE
  5
29
330
5
100
AcDbSymbolTableRecord
100
AcDbTextStyleTableRecord
  2
Standard
 70
0
 40
0.0
 41
1.0
 50
0.0
 71
0
 42
2.5
  3
txt
  4

  0
ENDTAB
  0
TABLE
  2
VIEW
  5
7
330
0
100
AcDbSymbolTable
 70
0
  0
ENDTAB
  0
TABLE
  2
UCS
  5
6
330
0
100
AcDbSymbolTable
 70
0
  0
ENDTAB
  0
TABLE
  2
APPID
  5
3
330
0
100
AcDbSymbolTable
 70
3
  0
APPID
  5
2A
330
3
100
AcDbSymbolTableRecord
100
AcDbRegAppTableRecord
  2
ACAD
 70
0
  0
APPID
  5
65
330
3
100
AcDbSymbolTableRecord
100
AcDbRegAppTableRecord
  2
HATCHBACKGROUNDCOLOR
 70
0
  0
APPID
  5
66
330
3
100
AcDbSymbolTableRecord
100
AcDbRegAppTableRecord
  2
EZDXF
 70
0
  0
ENDTAB
  0
TABLE
  2
DIMSTYLE
  5
4
330
0
100
AcDbSymbolTable
 70
1
100
AcDbDimStyleTable
  0
DIMSTYLE
105
2B
330
4
100
AcDbSymbolTableRecord
100
AcDbDimStyleTableRecord
  2
Standard
 70
0
  3

  4

 40
1.0
 41
2.5
 42
0.625
 43
3.75
 44
1.25
 45
0.0
 46
0.0
 47
0.0
 48
0.0
140
2.5
141
2.5
142
0.0
143
0.03937007874
144
1.0
145
0.0
146
1.0
147
0.625
148
0.0
 71
0
 72
0
 73
0
 74
0
 75
0
 76
0
 77
1
 78
8
 79
3
170
0
171
3
172
1
173
0
174
0
175
0
176
0
177
0
178
0
179
2
271
2
272
2
273
2
274
3
275
0
276
0
277
2
278
44
279
0
280
0
281
0
282
0
283
0
284
8
285
0
286
0
288
0
289
3
371
-2
372
-2
  0
ENDTAB
  0
TABLE
  2
BLOCK_RECORD
  5
9
330
0
100
AcDbSymbolTable
 70
2
  0
BLOCK_RECORD
  5
17
330
9
100
AcDbSymbolTableRecord
100
AcDbBlockTableRecord
  2
*Model_Space
340
1A
  0
BLOCK_RECORD
  5
1B
330
9
100
AcDbSymbolTableRecord
100
AcDbBlockTableRecord
  2
*Paper_Space
340
1E
  0
ENDTAB
  0
ENDSEC
  0
SECTION
  2
BLOCKS
  0
BLOCK
  5
18
330
17
100
AcDbEntity
  8
0
100
AcDbBlockBegin
  2
*Model_Space
 70
0
 10
0.0
 20
0.0
 30
0.0
  3
*Model_Space
  1

  0
ENDBLK
  5
19
330
17
100
AcDbEntity
  8
0
100
AcDbBlockEnd
  0
BLOCK
  5
1C
330
1B
100
AcDbEntity
  8
0
100
AcDbBlockBegin
  2
*Paper_Space
 70
0
 10
0.0
 20
0.0
 30
0.0
  3
*Paper_Space
  1

  0
ENDBLK
  5
1D
330
1B
100
AcDbEntity
  8
0
100
AcDbBlockEnd
  0
ENDSEC
  0
SECTION
  2
ENTITIES
  0
LWPOLYLINE
  5
31
330
17
100
AcDbEntity
  8
CUT
100
AcDbPolyline
 90
38
 70
1
 10
5.656
 20
30.172
 10
15.958
 20
30.172
 10
16.987
 20
30.136
 10
17.965
 20
30.028
 10
18.891
 20
29.85
 10
19.769
 20
29.603
 10
20.601
 20
29.287
 10
21.391
 20
28.903
 10
22.141
 20
28.454
 10
22.855
 20
27.939
 10
23.535
 20
27.362
 10
24.184
 20
26.721
 10
24.807
 20
26.02
 10
25.47
 20
25.177
 10
24.807
 20
24.334
 10
24.184
 20
23.633
 10
23.535
 20
22.993
 10
22.855
 20
22.415
 10
22.141
 20
21.9
 10
21.391
 20
21.451
 10
20.601
 20
21.067
 10
19.769
 20
20.751
 10
18.891
 20
20.504
 10
17.965
 20
20.326
 10
16.987
 20
20.219
 10
15.958
 20
20.183
 10
5.656
 20
20.183
 10
5.084
 20
20.396
 10
4.627
 20
20.97
 10
4.289
 20
21.796
 10
4.051
 20
22.815
 10
3.91
 20
23.963
 10
3.862
 20
25.177
 10
3.91
 20
26.391
 10
4.051
 20
27.54
 10
4.289
 20
28.558
 10
4.627
 20
29.385
 10
5.084
 20
29.958
  0
HATCH
  5
32
330
17
100
AcDbEntity
  8
RASTER
 62
7
100
AcDbHatch
 10
0.0
 20
0.0
 30
0.0
210
0.0
220
0.0
230
1.0
  2
SOLID
 70
1
 71
0
 91
1
 92
3
 72
0
 73
1
 93
4
 10
5.868
 20
28.185
 10
21.279
 20
28.185
 10
21.279
 20
27.774
 10
5.868
 20
27.774
 97
0
 75
0
 76
1
 98
0
  0
HATCH
  5
33
330
17
100
AcDbEntity
  8
RASTER
 62
7
100
AcDbHatch
 10
0.0
 20
0.0
 30
0.0
210
0.0
220
0.0
230
1.0
  2
SOLID
 70
1
 71
0
 91
1
 92
3
 72
0
 73
1
 93
4
 10
5.868
 20
25.383
 10
21.279
 20
25.383
 10
21.279
 20
24.972
 10
5.868
 20
24.972
 97
0
 75
0
 76
1
 98
0
  0
HATCH
  5
34
330
17
100
AcDbEntity
  8
RASTER
 62
7
100
AcDbHatch
 10
0.0
 20
0.0
 30
0.0
210
0.0
220
0.0
230
1.0
  2
SOLID
 70
1
 71
0
 91
1
 92
3
 72
0
 73
1
 93
4
 10
5.868
 20
22.581
 10
21.279
 20
22.581
 10
21.279
 20
22.17
 10
5.868
 20
22.17
 97
0
 75
0
 76
1
 98
0
  0
HATCH
  5
35
330
17
100
AcDbEntity
  8
RASTER
 62
7
100
AcDbHatch
 10
0.0
 20
0.0
 30
0.0
210
0.0
220
0.0
230
1.0
  2
SOLID
 70
1
 71
0
 91
1
 92
3
 72
0
 73
1
 93
4
 10
4.374
 20
25.457
 10
5.868
 20
25.457
 10
5.868
 20
24.897
 10
4.374
 20
24.897
 97
0
 75
0
 76
1
 98
0
  0
LWPOLYLINE
  5
36
330
17
100
AcDbEntity
  8
CUT
100
AcDbPolyline
 90
4
 70
1
 10
8.447
 20
28.54
 10
11.322
 20
28.54
 10
11.322
 20
21.815
 10
8.447
 20
21.815
  0
LWPOLYLINE
  5
37
330
17
100
AcDbEntity
  8
CUT
100
AcDbPolyline
 90
4
 70
1
 10
15.919
 20
28.54
 10
18.794
 20
28.54
 10
18.794
 20
21.815
 10
15.919
 20
21.815
  0
LWPOLYLINE
  5
38
330
17
100
AcDbEntity
  8
CUT
100
AcDbPolyline
 90
31
 70
1
 10
35.495
 20
30.074
 10
44.335
 20
30.074
 10
44.335
 20
17.011
 10
43.694
 20
16.65
 10
43.073
 20
16.331
 10
42.451
 20
16.042
 10
41.83
 20
15.782
 10
41.208
 20
15.553
 10
40.587
 20
15.354
 10
39.965
 20
15.186
 10
39.343
 20
15.047
 10
38.721
 20
14.939
 10
38.135
 20
14.865
 10
38.135
 20
9.94
 10
40.285
 20
9.94
 10
40.285
 20
3.96
 10
33.305
 20
3.96
 10
33.305
 20
9.94
 10
35.455
 20
9.94
 10
35.455
 20
14.865
 10
34.869
 20
14.939
 10
34.247
 20
15.047
 10
33.626
 20
15.186
 10
33.004
 20
15.354
 10
32.382
 20
15.553
 10
31.761
 20
15.782
 10
31.139
 20
16.042
 10
30.518
 20
16.331
 10
29.896
 20
16.65
 10
29.255
 20
17.011
 10
29.255
 20
30.074
  0
HATCH
  5
39
330
17
100
AcDbEntity
  8
RASTER
 62
7
100
AcDbHatch
 10
0.0
 20
0.0
 30
0.0
210
0.0
220
0.0
230
1.0
  2
SOLID
 70
1
 71
0
 91
1
 92
3
 72
0
 73
1
 93
4
 10
29.295
 20
29.334
 10
44.295
 20
29.334
 10
44.295
 20
28.834
 10
29.295
 20
28.834
 97
0
 75
0
 76
1
 98
0
  0
HATCH
  5
3A
330
17
100
AcDbEntity
  8
RASTER
 62
7
100
AcDbHatch
 10
0.0
 20
0.0
 30
0.0
210
0.0
220
0.0
230
1.0
  2
SOLID
 70
1
 71
0
 91
4
 92
3
 72
0
 73
1
 93
45
 10
36.485
 20
27.964
 10
37.041
 20
27.974
 10
37.713
 20
27.858
 10
38.124
 20
27.703
 10
38.55
 20
27.44
 10
38.796
 20
27.219
 10
39.126
 20
26.712
 10
39.364
 20
26.089
 10
39.453
 20
25.587
 10
39.389
 20
25.036
 10
38.978
 20
24.143
 10
38.961
 20
23.865
 10
39.059
 20
23.446
 10
38.985
 20
23.176
 10
38.862
 20
23.053
 10
38.675
 20
22.969
 10
37.954
 20
22.853
 10
37.853
 20
22.683
 10
37.927
 20
22.216
 10
37.885
 20
22.061
 10
37.573
 20
21.881
 10
36.967
 20
21.773
 10
36.598
 20
21.773
 10
36.173
 20
21.839
 10
35.762
 20
21.994
 10
35.663
 20
22.093
 10
35.639
 20
22.191
 10
35.712
 20
22.585
 10
35.68
 20
22.799
 10
35.523
 20
22.888
 10
34.91
 20
22.964
 10
34.637
 20
23.109
 10
34.531
 20
23.372
 10
34.549
 20
23.626
 10
34.63
 20
23.889
 10
34.59
 20
24.17
 10
34.293
 20
24.758
 10
34.138
 20
25.292
 10
34.138
 20
25.71
 10
34.226
 20
26.138
 10
34.465
 20
26.736
 10
34.721
 20
27.145
 10
35.149
 20
27.529
 10
35.548
 20
27.745
 10
35.973
 20
27.885
 97
0
 92
2
 72
0
 73
1
 93
15
 10
35.744
 20
24.718
 10
35.393
 20
24.627
 10
35.238
 20
24.512
 10
35.083
 20
24.248
 10
35.051
 20
24.064
 10
35.105
 20
23.872
 10
35.213
 20
23.734
 10
35.407
 20
23.633
 10
35.836
 20
23.643
 10
36.047
 20
23.702
 10
36.237
 20
23.833
 10
36.392
 20
24.12
 10
36.387
 20
24.391
 10
36.271
 20
24.595
 10
36.067
 20
24.711
 97
0
 92
2
 72
0
 73
1
 93
14
 10
37.541
 20
24.718
 10
37.354
 20
24.635
 10
37.199
 20
24.421
 10
37.199
 20
24.096
 10
37.329
 20
23.857
 10
37.592
 20
23.678
 10
37.976
 20
23.619
 10
38.183
 20
23.633
 10
38.402
 20
23.759
 10
38.503
 20
23.953
 10
38.518
 20
24.135
 10
38.377
 20
24.463
 10
38.222
 20
24.603
 10
38.035
 20
24.686
 97
0
 92
3
 72
0
 73
1
 93
70
 10
33.754
 20
22.551
 10
33.973
 20
22.543
 10
34.162
 20
22.462
 10
34.598
 20
22.012
 10
35.009
 20
21.734
 10
36.771
 20
20.986
 10
37.182
 20
21.116
 10
38.663
 20
21.775
 10
38.993
 20
22.012
 10
39.372
 20
22.42
 10
39.509
 20
22.504
 10
39.723
 20
22.56
 10
39.945
 20
22.511
 10
40.075
 20
22.297
 10
40.083
 20
22.009
 10
40.248
 20
21.879
 10
40.331
 20
21.741
 10
40.329
 20
21.488
 10
40.223
 20
21.347
 10
39.947
 20
21.229
 10
39.527
 20
21.232
 10
39.02
 20
21.148
 10
37.846
 20
20.648
 10
37.804
 20
20.567
 10
37.863
 20
20.479
 10
38.946
 20
20.011
 10
39.477
 20
19.903
 10
40.029
 20
19.888
 10
40.223
 20
19.787
 10
40.329
 20
19.647
 10
40.329
 20
19.396
 10
40.248
 20
19.256
 10
40.083
 20
19.125
 10
40.043
 20
18.746
 10
39.856
 20
18.589
 10
39.723
 20
18.574
 10
39.509
 20
18.631
 10
39.347
 20
18.739
 10
38.968
 20
19.147
 10
38.712
 20
19.334
 10
36.96
 20
20.117
 10
36.746
 20
20.149
 10
34.878
 20
19.334
 10
34.622
 20
19.147
 10
34.243
 20
18.739
 10
34.081
 20
18.631
 10
33.867
 20
18.574
 10
33.648
 20
18.626
 10
33.515
 20
18.837
 10
33.508
 20
19.125
 10
33.343
 20
19.256
 10
33.262
 20
19.396
 10
33.262
 20
19.647
 10
33.367
 20
19.787
 10
33.562
 20
19.888
 10
34.113
 20
19.903
 10
34.645
 20
20.011
 10
35.727
 20
20.479
 10
35.786
 20
20.567
 10
35.744
 20
20.648
 10
34.571
 20
21.148
 10
34.064
 20
21.232
 10
33.643
 20
21.229
 10
33.367
 20
21.347
 10
33.262
 20
21.488
 10
33.259
 20
21.741
 10
33.343
 20
21.879
 10
33.508
 20
22.009
 10
33.498
 20
22.191
 10
33.572
 20
22.437
 97
0
 75
0
 76
1
 98
0
  0
LWPOLYLINE
  5
3B
330
17
100
AcDbEntity
  8
CUT
100
AcDbPolyline
 90
31
 70
1
 10
52.995
 20
30.074
 10
60.335
 20
30.074
 10
60.335
 20
19.013
 10
59.848
 20
18.67
 10
59.376
 20
18.365
 10
58.905
 20
18.087
 10
58.433
 20
17.836
 10
57.961
 20
17.612
 10
57.49
 20
17.415
 10
57.018
 20
17.245
 10
56.546
 20
17.102
 10
56.074
 20
16.986
 10
55.635
 20
16.904
 10
55.635
 20
11.977
 10
57.785
 20
11.977
 10
57.785
 20
5.997
 10
50.805
 20
5.997
 10
50.805
 20
11.977
 10
52.955
 20
11.977
 10
52.955
 20
16.904
 10
52.517
 20
16.986
 10
52.045
 20
17.102
 10
51.573
 20
17.245
 10
51.101
 20
17.415
 10
50.629
 20
17.612
 10
50.157
 20
17.836
 10
49.686
 20
18.087
 10
49.214
 20
18.365
 10
48.743
 20
18.67
 10
48.255
 20
19.013
 10
48.255
 20
30.074
  0
HATCH
  5
3C
330
17
100
AcDbEntity
  8
RASTER
 62
7
100
AcDbHatch
 10
0.0
 20
0.0
 30
0.0
210
0.0
220
0.0
230
1.0
  2
SOLID
 70
1
 71
0
 91
1
 92
3
 72
0
 73
1
 93
4
 10
48.295
 20
29.334
 10
60.295
 20
29.334
 10
60.295
 20
28.834
 10
48.295
 20
28.834
 97
0
 75
0
 76
1
 98
0
  0
HATCH
  5
3D
330
17
100
AcDbEntity
  8
RASTER
 62
7
100
AcDbHatch
 10
0.0
 20
0.0
 30
0.0
210
0.0
220
0.0
230
1.0
  2
SOLID
 70
1
 71
0
 91
4
 92
3
 72
0
 73
1
 93
45
 10
54.051
 20
28.006
 10
54.489
 20
28.014
 10
55.018
 20
27.923
 10
55.341
 20
27.801
 10
55.676
 20
27.594
 10
55.87
 20
27.419
 10
56.13
 20
27.02
 10
56.318
 20
26.53
 10
56.387
 20
26.135
 10
56.337
 20
25.701
 10
56.013
 20
24.998
 10
56.0
 20
24.779
 10
56.077
 20
24.45
 10
56.019
 20
24.237
 10
55.922
 20
24.14
 10
55.775
 20
24.074
 10
55.208
 20
23.983
 10
55.128
 20
23.849
 10
55.186
 20
23.481
 10
55.153
 20
23.359
 10
54.907
 20
23.218
 10
54.431
 20
23.132
 10
54.14
 20
23.132
 10
53.805
 20
23.185
 10
53.482
 20
23.307
 10
53.404
 20
23.384
 10
53.385
 20
23.462
 10
53.443
 20
23.772
 10
53.418
 20
23.94
 10
53.294
 20
24.01
 10
52.811
 20
24.07
 10
52.596
 20
24.184
 10
52.513
 20
24.391
 10
52.527
 20
24.591
 10
52.59
 20
24.798
 10
52.559
 20
25.019
 10
52.325
 20
25.482
 10
52.203
 20
25.902
 10
52.203
 20
26.232
 10
52.273
 20
26.569
 10
52.461
 20
27.04
 10
52.662
 20
27.361
 10
52.999
 20
27.663
 10
53.313
 20
27.834
 10
53.648
 20
27.944
 97
0
 92
2
 72
0
 73
1
 93
15
 10
53.468
 20
25.451
 10
53.191
 20
25.379
 10
53.069
 20
25.288
 10
52.947
 20
25.081
 10
52.922
 20
24.936
 10
52.964
 20
24.785
 10
53.05
 20
24.676
 10
53.203
 20
24.597
 10
53.54
 20
24.605
 10
53.706
 20
24.651
 10
53.855
 20
24.754
 10
53.978
 20
24.98
 10
53.974
 20
25.193
 10
53.883
 20
25.354
 10
53.722
 20
25.445
 97
0
 92
2
 72
0
 73
1
 93
14
 10
54.882
 20
25.451
 10
54.735
 20
25.385
 10
54.613
 20
25.217
 10
54.613
 20
24.961
 10
54.716
 20
24.773
 10
54.923
 20
24.632
 10
55.225
 20
24.585
 10
55.388
 20
24.597
 10
55.56
 20
24.696
 10
55.64
 20
24.849
 10
55.651
 20
24.992
 10
55.541
 20
25.25
 10
55.419
 20
25.36
 10
55.272
 20
25.426
 97
0
 92
3
 72
0
 73
1
 93
70
 10
51.901
 20
23.744
 10
52.073
 20
23.739
 10
52.222
 20
23.675
 10
52.565
 20
23.32
 10
52.889
 20
23.101
 10
54.276
 20
22.512
 10
54.599
 20
22.615
 10
55.766
 20
23.134
 10
56.025
 20
23.32
 10
56.323
 20
23.642
 10
56.432
 20
23.708
 10
56.6
 20
23.752
 10
56.775
 20
23.713
 10
56.877
 20
23.545
 10
56.883
 20
23.318
 10
57.013
 20
23.216
 10
57.079
 20
23.107
 10
57.077
 20
22.908
 10
56.994
 20
22.797
 10
56.777
 20
22.704
 10
56.445
 20
22.706
 10
56.046
 20
22.64
 10
55.122
 20
22.247
 10
55.089
 20
22.183
 10
55.136
 20
22.113
 10
55.988
 20
21.745
 10
56.407
 20
21.66
 10
56.841
 20
21.648
 10
56.994
 20
21.569
 10
57.077
 20
21.459
 10
57.077
 20
21.261
 10
57.013
 20
21.151
 10
56.883
 20
21.048
 10
56.852
 20
20.75
 10
56.705
 20
20.626
 10
56.6
 20
20.614
 10
56.432
 20
20.659
 10
56.304
 20
20.744
 10
56.006
 20
21.065
 10
55.804
 20
21.213
 10
54.425
 20
21.829
 10
54.256
 20
21.854
 10
52.786
 20
21.213
 10
52.585
 20
21.065
 10
52.286
 20
20.744
 10
52.158
 20
20.659
 10
51.99
 20
20.614
 10
51.818
 20
20.655
 10
51.713
 20
20.821
 10
51.707
 20
21.048
 10
51.577
 20
21.151
 10
51.513
 20
21.261
 10
51.513
 20
21.459
 10
51.597
 20
21.569
 10
51.75
 20
21.648
 10
52.184
 20
21.66
 10
52.602
 20
21.745
 10
53.454
 20
22.113
 10
53.501
 20
22.183
 10
53.468
 20
22.247
 10
52.544
 20
22.64
 10
52.145
 20
22.706
 10
51.814
 20
22.704
 10
51.597
 20
22.797
 10
51.513
 20
22.908
 10
51.511
 20
23.107
 10
51.577
 20
23.216
 10
51.707
 20
23.318
 10
51.699
 20
23.462
 10
51.758
 20
23.655
 97
0
 75
0
 76
1
 98
0
  0
LWPOLYLINE
  5
3E
330
17
100
AcDbEntity
  8
CUT
100
AcDbPolyline
 90
38
 70
1
 10
65.952
 20
30.172
 10
76.253
 20
30.172
 10
77.282
 20
30.136
 10
78.26
 20
30.028
 10
79.186
 20
29.85
 10
80.064
 20
29.603
 10
80.897
 20
29.287
 10
81.686
 20
28.903
 10
82.437
 20
28.454
 10
83.15
 20
27.939
 10
83.83
 20
27.362
 10
84.479
 20
26.721
 10
85.102
 20
26.02
 10
85.765
 20
25.177
 10
85.102
 20
24.334
 10
84.479
 20
23.633
 10
83.83
 20
22.993
 10
83.15
 20
22.415
 10
82.437
 20
21.9
 10
81.686
 20
21.451
 10
80.897
 20
21.067
 10
80.064
 20
20.751
 10
79.186
 20
20.504
 10
78.26
 20
20.326
 10
77.282
 20
20.219
 10
76.253
 20
20.183
 10
65.952
 20
20.183
 10
65.379
 20
20.396
 10
64.923
 20
20.97
 10
64.584
 20
21.796
 10
64.346
 20
22.815
 10
64.205
 20
23.963
 10
64.158
 20
25.177
 10
64.205
 20
26.391
 10
64.346
 20
27.54
 10
64.584
 20
28.558
 10
64.923
 20
29.385
 10
65.379
 20
29.958
  0
HATCH
  5
3F
330
17
100
AcDbEntity
  8
RASTER
 62
7
100
AcDbHatch
 10
0.0
 20
0.0
 30
0.0
210
0.0
220
0.0
230
1.0
  2
SOLID
 70
1
 71
0
 91
1
 92
3
 72
0
 73
1
 93
4
 10
66.163
 20
28.185
 10
81.574
 20
28.185
 10
81.574
 20
27.774
 10
66.163
 20
27.774
 97
0
 75
0
 76
1
 98
0
  0
HATCH
  5
40
330
17
100
AcDbEntity
  8
RASTER
 62
7
100
AcDbHatch
 10
0.0
 20
0.0
 30
0.0
210
0.0
220
0.0
230
1.0
  2
SOLID
 70
1
 71
0
 91
1
 92
3
 72
0
 73
1
 93
4
 10
66.163
 20
25.383
 10
81.574
 20
25.383
 10
81.574
 20
24.972
 10
66.163
 20
24.972
 97
0
 75
0
 76
1
 98
0
  0
HATCH
  5
41
330
17
100
AcDbEntity
  8
RASTER
 62
7
100
AcDbHatch
 10
0.0
 20
0.0
 30
0.0
210
0.0
220
0.0
230
1.0
  2
SOLID
 70
1
 71
0
 91
1
 92
3
 72
0
 73
1
 93
4
 10
66.163
 20
22.581
 10
81.574
 20
22.581
 10
81.574
 20
22.17
 10
66.163
 20
22.17
 97
0
 75
0
 76
1
 98
0
  0
HATCH
  5
42
330
17
100
AcDbEntity
  8
RASTER
 62
7
100
AcDbHatch
 10
0.0
 20
0.0
 30
0.0
210
0.0
220
0.0
230
1.0
  2
SOLID
 70
1
 71
0
 91
1
 92
3
 72
0
 73
1
 93
4
 10
64.669
 20
25.457
 10
66.163
 20
25.457
 10
66.163
 20
24.897
 10
64.669
 20
24.897
 97
0
 75
0
 76
1
 98
0
  0
LWPOLYLINE
  5
43
330
17
100
AcDbEntity
  8
CUT
100
AcDbPolyline
 90
4
 70
1
 10
68.742
 20
28.54
 10
71.617
 20
28.54
 10
71.617
 20
21.815
 10
68.742
 20
21.815
  0
LWPOLYLINE
  5
44
330
17
100
AcDbEntity
  8
CUT
100
AcDbPolyline
 90
4
 70
1
 10
76.214
 20
28.54
 10
79.089
 20
28.54
 10
79.089
 20
21.815
 10
76.214
 20
21.815
  0
LWPOLYLINE
  5
45
330
17
100
AcDbEntity
  8
CUT
100
AcDbPolyline
 90
31
 70
1
 10
95.79
 20
30.074
 10
104.63
 20
30.074
 10
104.63
 20
17.011
 10
103.989
 20
16.65
 10
103.368
 20
16.331
 10
102.747
 20
16.042
 10
102.125
 20
15.782
 10
101.503
 20
15.553
 10
100.882
 20
15.354
 10
100.26
 20
15.186
 10
99.638
 20
15.047
 10
99.016
 20
14.939
 10
98.43
 20
14.865
 10
98.43
 20
9.94
 10
100.58
 20
9.94
 10
100.58
 20
3.96
 10
93.6
 20
3.96
 10
93.6
 20
9.94
 10
95.75
 20
9.94
 10
95.75
 20
14.865
 10
95.164
 20
14.939
 10
94.543
 20
15.047
 10
93.921
 20
15.186
 10
93.299
 20
15.354
 10
92.677
 20
15.553
 10
92.056
 20
15.782
 10
91.434
 20
16.042
 10
90.813
 20
16.331
 10
90.191
 20
16.65
 10
89.55
 20
17.011
 10
89.55
 20
30.074
  0
HATCH
  5
46
330
17
100
AcDbEntity
  8
RASTER
 62
7
100
AcDbHatch
 10
0.0
 20
0.0
 30
0.0
210
0.0
220
0.0
230
1.0
  2
SOLID
 70
1
 71
0
 91
1
 92
3
 72
0
 73
1
 93
4
 10
89.59
 20
29.334
 10
104.59
 20
29.334
 10
104.59
 20
28.834
 10
89.59
 20
28.834
 97
0
 75
0
 76
1
 98
0
  0
HATCH
  5
47
330
17
100
AcDbEntity
  8
RASTER
 62
7
100
AcDbHatch
 10
0.0
 20
0.0
 30
0.0
210
0.0
220
0.0
230
1.0
  2
SOLID
 70
1
 71
0
 91
4
 92
3
 72
0
 73
1
 93
45
 10
96.78
 20
27.964
 10
97.336
 20
27.974
 10
98.008
 20
27.858
 10
98.419
 20
27.703
 10
98.845
 20
27.44
 10
99.091
 20
27.219
 10
99.421
 20
26.712
 10
99.659
 20
26.089
 10
99.748
 20
25.587
 10
99.684
 20
25.036
 10
99.273
 20
24.143
 10
99.256
 20
23.865
 10
99.354
 20
23.446
 10
99.28
 20
23.176
 10
99.157
 20
23.053
 10
98.97
 20
22.969
 10
98.249
 20
22.853
 10
98.149
 20
22.683
 10
98.222
 20
22.216
 10
98.181
 20
22.061
 10
97.868
 20
21.881
 10
97.263
 20
21.773
 10
96.894
 20
21.773
 10
96.468
 20
21.839
 10
96.057
 20
21.994
 10
95.958
 20
22.093
 10
95.934
 20
22.191
 10
96.008
 20
22.585
 10
95.976
 20
22.799
 10
95.818
 20
22.888
 10
95.205
 20
22.964
 10
94.932
 20
23.109
 10
94.827
 20
23.372
 10
94.844
 20
23.626
 10
94.925
 20
23.889
 10
94.886
 20
24.17
 10
94.588
 20
24.758
 10
94.433
 20
25.292
 10
94.433
 20
25.71
 10
94.521
 20
26.138
 10
94.76
 20
26.736
 10
95.016
 20
27.145
 10
95.444
 20
27.529
 10
95.843
 20
27.745
 10
96.269
 20
27.885
 97
0
 92
2
 72
0
 73
1
 93
15
 10
96.04
 20
24.718
 10
95.688
 20
24.627
 10
95.533
 20
24.512
 10
95.378
 20
24.248
 10
95.346
 20
24.064
 10
95.4
 20
23.872
 10
95.508
 20
23.734
 10
95.703
 20
23.633
 10
96.131
 20
23.643
 10
96.342
 20
23.702
 10
96.532
 20
23.833
 10
96.687
 20
24.12
 10
96.682
 20
24.391
 10
96.566
 20
24.595
 10
96.362
 20
24.711
 97
0
 92
2
 72
0
 73
1
 93
14
 10
97.836
 20
24.718
 10
97.649
 20
24.635
 10
97.494
 20
24.421
 10
97.494
 20
24.096
 10
97.624
 20
23.857
 10
97.888
 20
23.678
 10
98.272
 20
23.619
 10
98.478
 20
23.633
 10
98.697
 20
23.759
 10
98.798
 20
23.953
 10
98.813
 20
24.135
 10
98.673
 20
24.463
 10
98.518
 20
24.603
 10
98.331
 20
24.686
 97
0
 92
3
 72
0
 73
1
 93
70
 10
94.049
 20
22.551
 10
94.268
 20
22.543
 10
94.457
 20
22.462
 10
94.893
 20
22.012
 10
95.304
 20
21.734
 10
97.066
 20
20.986
 10
97.477
 20
21.116
 10
98.958
 20
21.775
 10
99.288
 20
22.012
 10
99.667
 20
22.42
 10
99.805
 20
22.504
 10
100.019
 20
22.56
 10
100.24
 20
22.511
 10
100.371
 20
22.297
 10
100.378
 20
22.009
 10
100.543
 20
21.879
 10
100.626
 20
21.741
 10
100.624
 20
21.488
 10
100.518
 20
21.347
 10
100.243
 20
21.229
 10
99.822
 20
21.232
 10
99.315
 20
21.148
 10
98.141
 20
20.648
 10
98.099
 20
20.567
 10
98.158
 20
20.479
 10
99.241
 20
20.011
 10
99.773
 20
19.903
 10
100.324
 20
19.888
 10
100.518
 20
19.787
 10
100.624
 20
19.647
 10
100.624
 20
19.396
 10
100.543
 20
19.256
 10
100.378
 20
19.125
 10
100.339
 20
18.746
 10
100.152
 20
18.589
 10
100.019
 20
18.574
 10
99.805
 20
18.631
 10
99.642
 20
18.739
 10
99.263
 20
19.147
 10
99.007
 20
19.334
 10
97.255
 20
20.117
 10
97.041
 20
20.149
 10
95.173
 20
19.334
 10
94.918
 20
19.147
 10
94.539
 20
18.739
 10
94.376
 20
18.631
 10
94.162
 20
18.574
 10
93.943
 20
18.626
 10
93.81
 20
18.837
 10
93.803
 20
19.125
 10
93.638
 20
19.256
 10
93.557
 20
19.396
 10
93.557
 20
19.647
 10
93.663
 20
19.787
 10
93.857
 20
19.888
 10
94.408
 20
19.903
 10
94.94
 20
20.011
 10
96.022
 20
20.479
 10
96.081
 20
20.567
 10
96.04
 20
20.648
 10
94.866
 20
21.148
 10
94.359
 20
21.232
 10
93.938
 20
21.229
 10
93.663
 20
21.347
 10
93.557
 20
21.488
 10
93.554
 20
21.741
 10
93.638
 20
21.879
 10
93.803
 20
22.009
 10
93.793
 20
22.191
 10
93.867
 20
22.437
 97
0
 75
0
 76
1
 98
0
  0
LWPOLYLINE
  5
48
330
17
100
AcDbEntity
  8
CUT
100
AcDbPolyline
 90
31
 70
1
 10
113.29
 20
30.074
 10
120.63
 20
30.074
 10
120.63
 20
19.013
 10
120.143
 20
18.67
 10
119.671
 20
18.365
 10
119.2
 20
18.087
 10
118.728
 20
17.836
 10
118.257
 20
17.612
 10
117.785
 20
17.415
 10
117.313
 20
17.245
 10
116.841
 20
17.102
 10
116.369
 20
16.986
 10
115.93
 20
16.904
 10
115.93
 20
11.977
 10
118.08
 20
11.977
 10
118.08
 20
5.997
 10
111.1
 20
5.997
 10
111.1
 20
11.977
 10
113.25
 20
11.977
 10
113.25
 20
16.904
 10
112.812
 20
16.986
 10
112.34
 20
17.102
 10
111.868
 20
17.245
 10
111.396
 20
17.415
 10
110.924
 20
17.612
 10
110.452
 20
17.836
 10
109.981
 20
18.087
 10
109.509
 20
18.365
 10
109.038
 20
18.67
 10
108.55
 20
19.013
 10
108.55
 20
30.074
  0
HATCH
  5
49
330
17
100
AcDbEntity
  8
RASTER
 62
7
100
AcDbHatch
 10
0.0
 20
0.0
 30
0.0
210
0.0
220
0.0
230
1.0
  2
SOLID
 70
1
 71
0
 91
1
 92
3
 72
0
 73
1
 93
4
 10
108.59
 20
29.334
 10
120.59
 20
29.334
 10
120.59
 20
28.834
 10
108.59
 20
28.834
 97
0
 75
0
 76
1
 98
0
  0
HATCH
  5
4A
330
17
100
AcDbEntity
  8
RASTER
 62
7
100
AcDbHatch
 10
0.0
 20
0.0
 30
0.0
210
0.0
220
0.0
230
1.0
  2
SOLID
 70
1
 71
0
 91
4
 92
3
 72
0
 73
1
 93
45
 10
114.346
 20
28.006
 10
114.784
 20
28.014
 10
115.313
 20
27.923
 10
115.636
 20
27.801
 10
115.972
 20
27.594
 10
116.165
 20
27.419
 10
116.425
 20
27.02
 10
116.613
 20
26.53
 10
116.683
 20
26.135
 10
116.632
 20
25.701
 10
116.309
 20
24.998
 10
116.295
 20
24.779
 10
116.373
 20
24.45
 10
116.314
 20
24.237
 10
116.218
 20
24.14
 10
116.07
 20
24.074
 10
115.503
 20
23.983
 10
115.423
 20
23.849
 10
115.481
 20
23.481
 10
115.449
 20
23.359
 10
115.203
 20
23.218
 10
114.726
 20
23.132
 10
114.435
 20
23.132
 10
114.1
 20
23.185
 10
113.777
 20
23.307
 10
113.699
 20
23.384
 10
113.68
 20
23.462
 10
113.738
 20
23.772
 10
113.713
 20
23.94
 10
113.589
 20
24.01
 10
113.107
 20
24.07
 10
112.891
 20
24.184
 10
112.808
 20
24.391
 10
112.822
 20
24.591
 10
112.886
 20
24.798
 10
112.855
 20
25.019
 10
112.62
 20
25.482
 10
112.498
 20
25.902
 10
112.498
 20
26.232
 10
112.568
 20
26.569
 10
112.756
 20
27.04
 10
112.957
 20
27.361
 10
113.294
 20
27.663
 10
113.608
 20
27.834
 10
113.943
 20
27.944
 97
0
 92
2
 72
0
 73
1
 93
15
 10
113.763
 20
25.451
 10
113.486
 20
25.379
 10
113.364
 20
25.288
 10
113.242
 20
25.081
 10
113.217
 20
24.936
 10
113.26
 20
24.785
 10
113.345
 20
24.676
 10
113.498
 20
24.597
 10
113.835
 20
24.605
 10
114.001
 20
24.651
 10
114.151
 20
24.754
 10
114.273
 20
24.98
 10
114.269
 20
25.193
 10
114.178
 20
25.354
 10
114.017
 20
25.445
 97
0
 92
2
 72
0
 73
1
 93
14
 10
115.177
 20
25.451
 10
115.03
 20
25.385
 10
114.908
 20
25.217
 10
114.908
 20
24.961
 10
115.011
 20
24.773
 10
115.218
 20
24.632
 10
115.52
 20
24.585
 10
115.683
 20
24.597
 10
115.855
 20
24.696
 10
115.935
 20
24.849
 10
115.946
 20
24.992
 10
115.836
 20
25.25
 10
115.714
 20
25.36
 10
115.567
 20
25.426
 97
0
 92
3
 72
0
 73
1
 93
70
 10
112.196
 20
23.744
 10
112.368
 20
23.739
 10
112.518
 20
23.675
 10
112.861
 20
23.32
 10
113.184
 20
23.101
 10
114.571
 20
22.512
 10
114.895
 20
22.615
 10
116.061
 20
23.134
 10
116.32
 20
23.32
 10
116.619
 20
23.642
 10
116.727
 20
23.708
 10
116.896
 20
23.752
 10
117.07
 20
23.713
 10
117.173
 20
23.545
 10
117.178
 20
23.318
 10
117.308
 20
23.216
 10
117.374
 20
23.107
 10
117.372
 20
22.908
 10
117.289
 20
22.797
 10
117.072
 20
22.704
 10
116.741
 20
22.706
 10
116.342
 20
22.64
 10
115.418
 20
22.247
 10
115.385
 20
22.183
 10
115.431
 20
22.113
 10
116.283
 20
21.745
 10
116.702
 20
21.66
 10
117.136
 20
21.648
 10
117.289
 20
21.569
 10
117.372
 20
21.459
 10
117.372
 20
21.261
 10
117.308
 20
21.151
 10
117.178
 20
21.048
 10
117.147
 20
20.75
 10
117.0
 20
20.626
 10
116.896
 20
20.614
 10
116.727
 20
20.659
 10
116.599
 20
20.744
 10
116.301
 20
21.065
 10
116.099
 20
21.213
 10
114.72
 20
21.829
 10
114.552
 20
21.854
 10
113.081
 20
21.213
 10
112.88
 20
21.065
 10
112.582
 20
20.744
 10
112.454
 20
20.659
 10
112.285
 20
20.614
 10
112.113
 20
20.655
 10
112.008
 20
20.821
 10
112.002
 20
21.048
 10
111.873
 20
21.151
 10
111.809
 20
21.261
 10
111.809
 20
21.459
 10
111.892
 20
21.569
 10
112.045
 20
21.648
 10
112.479
 20
21.66
 10
112.897
 20
21.745
 10
113.75
 20
22.113
 10
113.796
 20
22.183
 10
113.763
 20
22.247
 10
112.839
 20
22.64
 10
112.44
 20
22.706
 10
112.109
 20
22.704
 10
111.892
 20
22.797
 10
111.809
 20
22.908
 10
111.807
 20
23.107
 10
111.873
 20
23.216
 10
112.002
 20
23.318
 10
111.995
 20
23.462
 10
112.053
 20
23.655
 97
0
 75
0
 76
1
 98
0
  0
LWPOLYLINE
  5
4B
330
17
100
AcDbEntity
  8
CUT
100
AcDbPolyline
 90
38
 70
1
 10
126.247
 20
30.172
 10
136.548
 20
30.172
 10
137.578
 20
30.136
 10
138.555
 20
30.028
 10
139.481
 20
29.85
 10
140.359
 20
29.603
 10
141.192
 20
29.287
 10
141.982
 20
28.903
 10
142.732
 20
28.454
 10
143.445
 20
27.939
 10
144.125
 20
27.362
 10
144.775
 20
26.721
 10
145.397
 20
26.02
 10
146.061
 20
25.177
 10
145.397
 20
24.334
 10
144.775
 20
23.633
 10
144.125
 20
22.993
 10
143.445
 20
22.415
 10
142.732
 20
21.9
 10
141.982
 20
21.451
 10
141.192
 20
21.067
 10
140.359
 20
20.751
 10
139.481
 20
20.504
 10
138.555
 20
20.326
 10
137.578
 20
20.219
 10
136.548
 20
20.183
 10
126.247
 20
20.183
 10
125.674
 20
20.396
 10
125.218
 20
20.97
 10
124.879
 20
21.796
 10
124.642
 20
22.815
 10
124.5
 20
23.963
 10
124.453
 20
25.177
 10
124.5
 20
26.391
 10
124.642
 20
27.54
 10
124.879
 20
28.558
 10
125.218
 20
29.385
 10
125.674
 20
29.958
  0
HATCH
  5
4C
330
17
100
AcDbEntity
  8
RASTER
 62
7
100
AcDbHatch
 10
0.0
 20
0.0
 30
0.0
210
0.0
220
0.0
230
1.0
  2
SOLID
 70
1
 71
0
 91
1
 92
3
 72
0
 73
1
 93
4
 10
126.458
 20
28.185
 10
141.869
 20
28.185
 10
141.869
 20
27.774
 10
126.458
 20
27.774
 97
0
 75
0
 76
1
 98
0
  0
HATCH
  5
4D
330
17
100
AcDbEntity
  8
RASTER
 62
7
100
AcDbHatch
 10
0.0
 20
0.0
 30
0.0
210
0.0
220
0.0
230
1.0
  2
SOLID
 70
1
 71
0
 91
1
 92
3
 72
0
 73
1
 93
4
 10
126.458
 20
25.383
 10
141.869
 20
25.383
 10
141.869
 20
24.972
 10
126.458
 20
24.972
 97
0
 75
0
 76
1
 98
0
  0
HATCH
  5
4E
330
17
100
AcDbEntity
  8
RASTER
 62
7
100
AcDbHatch
 10
0.0
 20
0.0
 30
0.0
210
0.0
220
0.0
230
1.0
  2
SOLID
 70
1
 71
0
 91
1
 92
3
 72
0
 73
1
 93
4
 10
126.458
 20
22.581
 10
141.869
 20
22.581
 10
141.869
 20
22.17
 10
126.458
 20
22.17
 97
0
 75
0
 76
1
 98
0
  0
HATCH
  5
4F
330
17
100
AcDbEntity
  8
RASTER
 62
7
100
AcDbHatch
 10
0.0
 20
0.0
 30
0.0
210
0.0
220
0.0
230
1.0
  2
SOLID
 70
1
 71
0
 91
1
 92
3
 72
0
 73
1
 93
4
 10
124.964
 20
25.457
 10
126.458
 20
25.457
 10
126.458
 20
24.897
 10
124.964
 20
24.897
 97
0
 75
0
 76
1
 98
0
  0
LWPOLYLINE
  5
50
330
17
100
AcDbEntity
  8
CUT
100
AcDbPolyline
 90
4
 70
1
 10
129.037
 20
28.54
 10
131.912
 20
28.54
 10
131.912
 20
21.815
 10
129.037
 20
21.815
  0
LWPOLYLINE
  5
51
330
17
100
AcDbEntity
  8
CUT
100
AcDbPolyline
 90
4
 70
1
 10
136.509
 20
28.54
 10
139.384
 20
28.54
 10
139.384
 20
21.815
 10
136.509
 20
21.815
  0
LWPOLYLINE
  5
52
330
17
100
AcDbEntity
  8
CUT
100
AcDbPolyline
 90
31
 70
1
 10
156.086
 20
30.074
 10
164.926
 20
30.074
 10
164.926
 20
17.011
 10
164.285
 20
16.65
 10
163.663
 20
16.331
 10
163.042
 20
16.042
 10
162.42
 20
15.782
 10
161.799
 20
15.553
 10
161.177
 20
15.354
 10
160.555
 20
15.186
 10
159.933
 20
15.047
 10
159.312
 20
14.939
 10
158.726
 20
14.865
 10
158.726
 20
9.94
 10
160.876
 20
9.94
 10
160.876
 20
3.96
 10
153.896
 20
3.96
 10
153.896
 20
9.94
 10
156.046
 20
9.94
 10
156.046
 20
14.865
 10
155.46
 20
14.939
 10
154.838
 20
15.047
 10
154.216
 20
15.186
 10
153.594
 20
15.354
 10
152.973
 20
15.553
 10
152.351
 20
15.782
 10
151.729
 20
16.042
 10
151.108
 20
16.331
 10
150.487
 20
16.65
 10
149.846
 20
17.011
 10
149.846
 20
30.074
  0
HATCH
  5
53
330
17
100
AcDbEntity
  8
RASTER
 62
7
100
AcDbHatch
 10
0.0
 20
0.0
 30
0.0
210
0.0
220
0.0
230
1.0
  2
SOLID
 70
1
 71
0
 91
1
 92
3
 72
0
 73
1
 93
4
 10
149.886
 20
29.334
 10
164.886
 20
29.334
 10
164.886
 20
28.834
 10
149.886
 20
28.834
 97
0
 75
0
 76
1
 98
0
  0
HATCH
  5
54
330
17
100
AcDbEntity
  8
RASTER
 62
7
100
AcDbHatch
 10
0.0
 20
0.0
 30
0.0
210
0.0
220
0.0
230
1.0
  2
SOLID
 70
1
 71
0
 91
4
 92
3
 72
0
 73
1
 93
45
 10
157.076
 20
27.964
 10
157.632
 20
27.974
 10
158.303
 20
27.858
 10
158.714
 20
27.703
 10
159.14
 20
27.44
 10
159.386
 20
27.219
 10
159.716
 20
26.712
 10
159.955
 20
26.089
 10
160.043
 20
25.587
 10
159.979
 20
25.036
 10
159.568
 20
24.143
 10
159.551
 20
23.865
 10
159.649
 20
23.446
 10
159.576
 20
23.176
 10
159.453
 20
23.053
 10
159.266
 20
22.969
 10
158.545
 20
22.853
 10
158.444
 20
22.683
 10
158.518
 20
22.216
 10
158.476
 20
22.061
 10
158.163
 20
21.881
 10
157.558
 20
21.773
 10
157.189
 20
21.773
 10
156.763
 20
21.839
 10
156.352
 20
21.994
 10
156.254
 20
22.093
 10
156.229
 20
22.191
 10
156.303
 20
22.585
 10
156.271
 20
22.799
 10
156.113
 20
22.888
 10
155.501
 20
22.964
 10
155.228
 20
23.109
 10
155.122
 20
23.372
 10
155.139
 20
23.626
 10
155.22
 20
23.889
 10
155.181
 20
24.17
 10
154.883
 20
24.758
 10
154.728
 20
25.292
 10
154.728
 20
25.71
 10
154.817
 20
26.138
 10
155.055
 20
26.736
 10
155.311
 20
27.145
 10
155.739
 20
27.529
 10
156.138
 20
27.745
 10
156.564
 20
27.885
 97
0
 92
2
 72
0
 73
1
 93
15
 10
156.335
 20
24.718
 10
155.983
 20
24.627
 10
155.828
 20
24.512
 10
155.673
 20
24.248
 10
155.641
 20
24.064
 10
155.695
 20
23.872
 10
155.803
 20
23.734
 10
155.998
 20
23.633
 10
156.426
 20
23.643
 10
156.638
 20
23.702
 10
156.827
 20
23.833
 10
156.982
 20
24.12
 10
156.977
 20
24.391
 10
156.861
 20
24.595
 10
156.657
 20
24.711
 97
0
 92
2
 72
0
 73
1
 93
14
 10
158.131
 20
24.718
 10
157.944
 20
24.635
 10
157.789
 20
24.421
 10
157.789
 20
24.096
 10
157.92
 20
23.857
 10
158.183
 20
23.678
 10
158.567
 20
23.619
 10
158.773
 20
23.633
 10
158.992
 20
23.759
 10
159.093
 20
23.953
 10
159.108
 20
24.135
 10
158.968
 20
24.463
 10
158.813
 20
24.603
 10
158.626
 20
24.686
 97
0
 92
3
 72
0
 73
1
 93
70
 10
154.344
 20
22.551
 10
154.563
 20
22.543
 10
154.753
 20
22.462
 10
155.188
 20
22.012
 10
155.599
 20
21.734
 10
157.361
 20
20.986
 10
157.772
 20
21.116
 10
159.253
 20
21.775
 10
159.583
 20
22.012
 10
159.962
 20
22.42
 10
160.1
 20
22.504
 10
160.314
 20
22.56
 10
160.535
 20
22.511
 10
160.666
 20
22.297
 10
160.673
 20
22.009
 10
160.838
 20
21.879
 10
160.922
 20
21.741
 10
160.919
 20
21.488
 10
160.813
 20
21.347
 10
160.538
 20
21.229
 10
160.117
 20
21.232
 10
159.61
 20
21.148
 10
158.436
 20
20.648
 10
158.395
 20
20.567
 10
158.454
 20
20.479
 10
159.536
 20
20.011
 10
160.068
 20
19.903
 10
160.619
 20
19.888
 10
160.813
 20
19.787
 10
160.919
 20
19.647
 10
160.919
 20
19.396
 10
160.838
 20
19.256
 10
160.673
 20
19.125
 10
160.634
 20
18.746
 10
160.447
 20
18.589
 10
160.314
 20
18.574
 10
160.1
 20
18.631
 10
159.937
 20
18.739
 10
159.558
 20
19.147
 10
159.303
 20
19.334
 10
157.55
 20
20.117
 10
157.336
 20
20.149
 10
155.469
 20
19.334
 10
155.213
 20
19.147
 10
154.834
 20
18.739
 10
154.671
 20
18.631
 10
154.457
 20
18.574
 10
154.238
 20
18.626
 10
154.105
 20
18.837
 10
154.098
 20
19.125
 10
153.933
 20
19.256
 10
153.852
 20
19.396
 10
153.852
 20
19.647
 10
153.958
 20
19.787
 10
154.152
 20
19.888
 10
154.703
 20
19.903
 10
155.235
 20
20.011
 10
156.318
 20
20.479
 10
156.377
 20
20.567
 10
156.335
 20
20.648
 10
155.161
 20
21.148
 10
154.654
 20
21.232
 10
154.233
 20
21.229
 10
153.958
 20
21.347
 10
153.852
 20
21.488
 10
153.85
 20
21.741
 10
153.933
 20
21.879
 10
154.098
 20
22.009
 10
154.088
 20
22.191
 10
154.162
 20
22.437
 97
0
 75
0
 76
1
 98
0
  0
LWPOLYLINE
  5
55
330
17
100
AcDbEntity
  8
CUT
100
AcDbPolyline
 90
31
 70
1
 10
173.586
 20
30.074
 10
180.926
 20
30.074
 10
180.926
 20
19.013
 10
180.438
 20
18.67
 10
179.967
 20
18.365
 10
179.495
 20
18.087
 10
179.024
 20
17.836
 10
178.552
 20
17.612
 10
178.08
 20
17.415
 10
177.608
 20
17.245
 10
177.136
 20
17.102
 10
176.664
 20
16.986
 10
176.226
 20
16.904
 10
176.226
 20
11.977
 10
178.376
 20
11.977
 10
178.376
 20
5.997
 10
171.396
 20
5.997
 10
171.396
 20
11.977
 10
173.546
 20
11.977
 10
173.546
 20
16.904
 10
173.107
 20
16.986
 10
172.635
 20
17.102
 10
172.163
 20
17.245
 10
171.691
 20
17.415
 10
171.219
 20
17.612
 10
170.748
 20
17.836
 10
170.276
 20
18.087
 10
169.805
 20
18.365
 10
169.333
 20
18.67
 10
168.846
 20
19.013
 10
168.846
 20
30.074
  0
HATCH
  5
56
330
17
100
AcDbEntity
  8
RASTER
 62
7
100
AcDbHatch
 10
0.0
 20
0.0
 30
0.0
210
0.0
220
0.0
230
1.0
  2
SOLID
 70
1
 71
0
 91
1
 92
3
 72
0
 73
1
 93
4
 10
168.886
 20
29.334
 10
180.886
 20
29.334
 10
180.886
 20
28.834
 10
168.886
 20
28.834
 97
0
 75
0
 76
1
 98
0
  0
HATCH
  5
57
330
17
100
AcDbEntity
  8
RASTER
 62
7
100
AcDbHatch
 10
0.0
 20
0.0
 30
0.0
210
0.0
220
0.0
230
1.0
  2
SOLID
 70
1
 71
0
 91
4
 92
3
 72
0
 73
1
 93
45
 10
174.642
 20
28.006
 10
175.079
 20
28.014
 10
175.608
 20
27.923
 10
175.932
 20
27.801
 10
176.267
 20
27.594
 10
176.461
 20
27.419
 10
176.72
 20
27.02
 10
176.908
 20
26.53
 10
176.978
 20
26.135
 10
176.927
 20
25.701
 10
176.604
 20
24.998
 10
176.59
 20
24.779
 10
176.668
 20
24.45
 10
176.61
 20
24.237
 10
176.513
 20
24.14
 10
176.366
 20
24.074
 10
175.798
 20
23.983
 10
175.719
 20
23.849
 10
175.777
 20
23.481
 10
175.744
 20
23.359
 10
175.498
 20
23.218
 10
175.021
 20
23.132
 10
174.731
 20
23.132
 10
174.395
 20
23.185
 10
174.072
 20
23.307
 10
173.995
 20
23.384
 10
173.975
 20
23.462
 10
174.033
 20
23.772
 10
174.008
 20
23.94
 10
173.884
 20
24.01
 10
173.402
 20
24.07
 10
173.187
 20
24.184
 10
173.103
 20
24.391
 10
173.117
 20
24.591
 10
173.181
 20
24.798
 10
173.15
 20
25.019
 10
172.915
 20
25.482
 10
172.793
 20
25.902
 10
172.793
 20
26.232
 10
172.863
 20
26.569
 10
173.051
 20
27.04
 10
173.253
 20
27.361
 10
173.59
 20
27.663
 10
173.903
 20
27.834
 10
174.239
 20
27.944
 97
0
 92
2
 72
0
 73
1
 93
15
 10
174.058
 20
25.451
 10
173.781
 20
25.379
 10
173.659
 20
25.288
 10
173.537
 20
25.081
 10
173.512
 20
24.936
 10
173.555
 20
24.785
 10
173.64
 20
24.676
 10
173.793
 20
24.597
 10
174.13
 20
24.605
 10
174.297
 20
24.651
 10
174.446
 20
24.754
 10
174.568
 20
24.98
 10
174.564
 20
25.193
 10
174.473
 20
25.354
 10
174.312
 20
25.445
 97
0
 92
2
 72
0
 73
1
 93
14
 10
175.473
 20
25.451
 10
175.325
 20
25.385
 10
175.203
 20
25.217
 10
175.203
 20
24.961
 10
175.306
 20
24.773
 10
175.513
 20
24.632
 10
175.815
 20
24.585
 10
175.978
 20
24.597
 10
176.151
 20
24.696
 10
176.23
 20
24.849
 10
176.242
 20
24.992
 10
176.131
 20
25.25
 10
176.009
 20
25.36
 10
175.862
 20
25.426
 97
0
 92
3
 72
0
 73
1
 93
70
 10
172.491
 20
23.744
 10
172.664
 20
23.739
 10
172.813
 20
23.675
 10
173.156
 20
23.32
 10
173.479
 20
23.101
 10
174.866
 20
22.512
 10
175.19
 20
22.615
 10
176.356
 20
23.134
 10
176.615
 20
23.32
 10
176.914
 20
23.642
 10
177.022
 20
23.708
 10
177.191
 20
23.752
 10
177.365
 20
23.713
 10
177.468
 20
23.545
 10
177.474
 20
23.318
 10
177.603
 20
23.216
 10
177.669
 20
23.107
 10
177.667
 20
22.908
 10
177.584
 20
22.797
 10
177.367
 20
22.704
 10
177.036
 20
22.706
 10
176.637
 20
22.64
 10
175.713
 20
22.247
 10
175.68
 20
22.183
 10
175.726
 20
22.113
 10
176.579
 20
21.745
 10
176.997
 20
21.66
 10
177.431
 20
21.648
 10
177.584
 20
21.569
 10
177.667
 20
21.459
 10
177.667
 20
21.261
 10
177.603
 20
21.151
 10
177.474
 20
21.048
 10
177.443
 20
20.75
 10
177.295
 20
20.626
 10
177.191
 20
20.614
 10
177.022
 20
20.659
 10
176.894
 20
20.744
 10
176.596
 20
21.065
 10
176.395
 20
21.213
 10
175.015
 20
21.829
 10
174.847
 20
21.854
 10
173.377
 20
21.213
 10
173.175
 20
21.065
 10
172.877
 20
20.744
 10
172.749
 20
20.659
 10
172.58
 20
20.614
 10
172.408
 20
20.655
 10
172.303
 20
20.821
 10
172.298
 20
21.048
 10
172.168
 20
21.151
 10
172.104
 20
21.261
 10
172.104
 20
21.459
 10
172.187
 20
21.569
 10
172.34
 20
21.648
 10
172.774
 20
21.66
 10
173.193
 20
21.745
 10
174.045
 20
22.113
 10
174.091
 20
22.183
 10
174.058
 20
22.247
 10
173.134
 20
22.64
 10
172.735
 20
22.706
 10
172.404
 20
22.704
 10
172.187
 20
22.797
 10
172.104
 20
22.908
 10
172.102
 20
23.107
 10
172.168
 20
23.216
 10
172.298
 20
23.318
 10
172.29
 20
23.462
 10
172.348
 20
23.655
 97
0
 75
0
 76
1
 98
0
  0
LWPOLYLINE
  5
58
330
17
100
AcDbEntity
  8
CUT
100
AcDbPolyline
 90
38
 70
1
 10
186.542
 20
30.172
 10
196.843
 20
30.172
 10
197.873
 20
30.136
 10
198.85
 20
30.028
 10
199.777
 20
29.85
 10
200.655
 20
29.603
 10
201.487
 20
29.287
 10
202.277
 20
28.903
 10
203.027
 20
28.454
 10
203.74
 20
27.939
 10
204.42
 20
27.362
 10
205.07
 20
26.721
 10
205.692
 20
26.02
 10
206.356
 20
25.177
 10
205.692
 20
24.334
 10
205.07
 20
23.633
 10
204.42
 20
22.993
 10
203.74
 20
22.415
 10
203.027
 20
21.9
 10
202.277
 20
21.451
 10
201.487
 20
21.067
 10
200.655
 20
20.751
 10
199.777
 20
20.504
 10
198.85
 20
20.326
 10
197.873
 20
20.219
 10
196.843
 20
20.183
 10
186.542
 20
20.183
 10
185.969
 20
20.396
 10
185.513
 20
20.97
 10
185.174
 20
21.796
 10
184.937
 20
22.815
 10
184.795
 20
23.963
 10
184.748
 20
25.177
 10
184.795
 20
26.391
 10
184.937
 20
27.54
 10
185.174
 20
28.558
 10
185.513
 20
29.385
 10
185.969
 20
29.958
  0
HATCH
  5
59
330
17
100
AcDbEntity
  8
RASTER
 62
7
100
AcDbHatch
 10
0.0
 20
0.0
 30
0.0
210
0.0
220
0.0
230
1.0
  2
SOLID
 70
1
 71
0
 91
1
 92
3
 72
0
 73
1
 93
4
 10
186.754
 20
28.185
 10
202.165
 20
28.185
 10
202.165
 20
27.774
 10
186.754
 20
27.774
 97
0
 75
0
 76
1
 98
0
  0
HATCH
  5
5A
330
17
100
AcDbEntity
  8
RASTER
 62
7
100
AcDbHatch
 10
0.0
 20
0.0
 30
0.0
210
0.0
220
0.0
230
1.0
  2
SOLID
 70
1
 71
0
 91
1
 92
3
 72
0
 73
1
 93
4
 10
186.754
 20
25.383
 10
202.165
 20
25.383
 10
202.165
 20
24.972
 10
186.754
 20
24.972
 97
0
 75
0
 76
1
 98
0
  0
HATCH
  5
5B
330
17
100
AcDbEntity
  8
RASTER
 62
7
100
AcDbHatch
 10
0.0
 20
0.0
 30
0.0
210
0.0
220
0.0
230
1.0
  2
SOLID
 70
1
 71
0
 91
1
 92
3
 72
0
 73
1
 93
4
 10
186.754
 20
22.581
 10
202.165
 20
22.581
 10
202.165
 20
22.17
 10
186.754
 20
22.17
 97
0
 75
0
 76
1
 98
0
  0
HATCH
  5
5C
330
17
100
AcDbEntity
  8
RASTER
 62
7
100
AcDbHatch
 10
0.0
 20
0.0
 30
0.0
210
0.0
220
0.0
230
1.0
  2
SOLID
 70
1
 71
0
 91
1
 92
3
 72
0
 73
1
 93
4
 10
185.259
 20
25.457
 10
186.754
 20
25.457
 10
186.754
 20
24.897
 10
185.259
 20
24.897
 97
0
 75
0
 76
1
 98
0
  0
LWPOLYLINE
  5
5D
330
17
100
AcDbEntity
  8
CUT
100
AcDbPolyline
 90
4
 70
1
 10
189.332
 20
28.54
 10
192.207
 20
28.54
 10
192.207
 20
21.815
 10
189.332
 20
21.815
  0
LWPOLYLINE
  5
5E
330
17
100
AcDbEntity
  8
CUT
100
AcDbPolyline
 90
4
 70
1
 10
196.804
 20
28.54
 10
199.679
 20
28.54
 10
199.679
 20
21.815
 10
196.804
 20
21.815
  0
LWPOLYLINE
  5
5F
330
17
100
AcDbEntity
  8
CUT
100
AcDbPolyline
 90
31
 70
1
 10
216.381
 20
30.074
 10
225.221
 20
30.074
 10
225.221
 20
17.011
 10
224.58
 20
16.65
 10
223.958
 20
16.331
 10
223.337
 20
16.042
 10
222.715
 20
15.782
 10
222.094
 20
15.553
 10
221.472
 20
15.354
 10
220.85
 20
15.186
 10
220.229
 20
15.047
 10
219.607
 20
14.939
 10
219.021
 20
14.865
 10
219.021
 20
9.94
 10
221.171
 20
9.94
 10
221.171
 20
3.96
 10
214.191
 20
3.96
 10
214.191
 20
9.94
 10
216.341
 20
9.94
 10
216.341
 20
14.865
 10
215.755
 20
14.939
 10
215.133
 20
15.047
 10
214.511
 20
15.186
 10
213.889
 20
15.354
 10
213.268
 20
15.553
 10
212.646
 20
15.782
 10
212.025
 20
16.042
 10
211.403
 20
16.331
 10
210.782
 20
16.65
 10
210.141
 20
17.011
 10
210.141
 20
30.074
  0
HATCH
  5
60
330
17
100
AcDbEntity
  8
RASTER
 62
7
100
AcDbHatch
 10
0.0
 20
0.0
 30
0.0
210
0.0
220
0.0
230
1.0
  2
SOLID
 70
1
 71
0
 91
1
 92
3
 72
0
 73
1
 93
4
 10
210.181
 20
29.334
 10
225.181
 20
29.334
 10
225.181
 20
28.834
 10
210.181
 20
28.834
 97
0
 75
0
 76
1
 98
0
  0
HATCH
  5
61
330
17
100
AcDbEntity
  8
RASTER
 62
7
100
AcDbHatch
 10
0.0
 20
0.0
 30
0.0
210
0.0
220
0.0
230
1.0
  2
SOLID
 70
1
 71
0
 91
4
 92
3
 72
0
 73
1
 93
45
 10
217.371
 20
27.964
 10
217.927
 20
27.974
 10
218.599
 20
27.858
 10
219.01
 20
27.703
 10
219.435
 20
27.44
 10
219.681
 20
27.219
 10
220.011
 20
26.712
 10
220.25
 20
26.089
 10
220.338
 20
25.587
 10
220.274
 20
25.036
 10
219.863
 20
24.143
 10
219.846
 20
23.865
 10
219.945
 20
23.446
 10
219.871
 20
23.176
 10
219.748
 20
23.053
 10
219.561
 20
22.969
 10
218.84
 20
22.853
 10
218.739
 20
22.683
 10
218.813
 20
22.216
 10
218.771
 20
22.061
 10
218.458
 20
21.881
 10
217.853
 20
21.773
 10
217.484
 20
21.773
 10
217.058
 20
21.839
 10
216.647
 20
21.994
 10
216.549
 20
22.093
 10
216.524
 20
22.191
 10
216.598
 20
22.585
 10
216.566
 20
22.799
 10
216.409
 20
22.888
 10
215.796
 20
22.964
 10
215.523
 20
23.109
 10
215.417
 20
23.372
 10
215.434
 20
23.626
 10
215.515
 20
23.889
 10
215.476
 20
24.17
 10
215.178
 20
24.758
 10
215.023
 20
25.292
 10
215.023
 20
25.71
 10
215.112
 20
26.138
 10
215.35
 20
26.736
 10
215.606
 20
27.145
 10
216.035
 20
27.529
 10
216.433
 20
27.745
 10
216.859
 20
27.885
 97
0
 92
2
 72
0
 73
1
 93
15
 10
216.63
 20
24.718
 10
216.278
 20
24.627
 10
216.123
 20
24.512
 10
215.968
 20
24.248
 10
215.936
 20
24.064
 10
215.99
 20
23.872
 10
216.099
 20
23.734
 10
216.293
 20
23.633
 10
216.721
 20
23.643
 10
216.933
 20
23.702
 10
217.122
 20
23.833
 10
217.277
 20
24.12
 10
217.272
 20
24.391
 10
217.157
 20
24.595
 10
216.952
 20
24.711
 97
0
 92
2
 72
0
 73
1
 93
14
 10
218.426
 20
24.718
 10
218.239
 20
24.635
 10
218.084
 20
24.421
 10
218.084
 20
24.096
 10
218.215
 20
23.857
 10
218.478
 20
23.678
 10
218.862
 20
23.619
 10
219.069
 20
23.633
 10
219.288
 20
23.759
 10
219.389
 20
23.953
 10
219.403
 20
24.135
 10
219.263
 20
24.463
 10
219.108
 20
24.603
 10
218.921
 20
24.686
 97
0
 92
3
 72
0
 73
1
 93
70
 10
214.639
 20
22.551
 10
214.858
 20
22.543
 10
215.048
 20
22.462
 10
215.483
 20
22.012
 10
215.894
 20
21.734
 10
217.656
 20
20.986
 10
218.067
 20
21.116
 10
219.548
 20
21.775
 10
219.878
 20
22.012
 10
220.257
 20
22.42
 10
220.395
 20
22.504
 10
220.609
 20
22.56
 10
220.831
 20
22.511
 10
220.961
 20
22.297
 10
220.968
 20
22.009
 10
221.133
 20
21.879
 10
221.217
 20
21.741
 10
221.214
 20
21.488
 10
221.109
 20
21.347
 10
220.833
 20
21.229
 10
220.412
 20
21.232
 10
219.905
 20
21.148
 10
218.732
 20
20.648
 10
218.69
 20
20.567
 10
218.749
 20
20.479
 10
219.831
 20
20.011
 10
220.363
 20
19.903
 10
220.914
 20
19.888
 10
221.109
 20
19.787
 10
221.214
 20
19.647
 10
221.214
 20
19.396
 10
221.133
 20
19.256
 10
220.968
 20
19.125
 10
220.929
 20
18.746
 10
220.742
 20
18.589
 10
220.609
 20
18.574
 10
220.395
 20
18.631
 10
220.233
 20
18.739
 10
219.854
 20
19.147
 10
219.598
 20
19.334
 10
217.846
 20
20.117
 10
217.632
 20
20.149
 10
215.764
 20
19.334
 10
215.508
 20
19.147
 10
215.129
 20
18.739
 10
214.967
 20
18.631
 10
214.753
 20
18.574
 10
214.534
 20
18.626
 10
214.401
 20
18.837
 10
214.393
 20
19.125
 10
214.228
 20
19.256
 10
214.147
 20
19.396
 10
214.147
 20
19.647
 10
214.253
 20
19.787
 10
214.447
 20
19.888
 10
214.999
 20
19.903
 10
215.53
 20
20.011
 10
216.613
 20
20.479
 10
216.672
 20
20.567
 10
216.63
 20
20.648
 10
215.456
 20
21.148
 10
214.949
 20
21.232
 10
214.529
 20
21.229
 10
214.253
 20
21.347
 10
214.147
 20
21.488
 10
214.145
 20
21.741
 10
214.228
 20
21.879
 10
214.393
 20
22.009
 10
214.383
 20
22.191
 10
214.457
 20
22.437
 97
0
 75
0
 76
1
 98
0
  0
LWPOLYLINE
  5
62
330
17
100
AcDbEntity
  8
CUT
100
AcDbPolyline
 90
31
 70
1
 10
233.881
 20
30.074
 10
241.221
 20
30.074
 10
241.221
 20
19.013
 10
240.733
 20
18.67
 10
240.262
 20
18.365
 10
239.79
 20
18.087
 10
239.319
 20
17.836
 10
238.847
 20
17.612
 10
238.375
 20
17.415
 10
237.903
 20
17.245
 10
237.431
 20
17.102
 10
236.959
 20
16.986
 10
236.521
 20
16.904
 10
236.521
 20
11.977
 10
238.671
 20
11.977
 10
238.671
 20
5.997
 10
231.691
 20
5.997
 10
231.691
 20
11.977
 10
233.841
 20
11.977
 10
233.841
 20
16.904
 10
233.402
 20
16.986
 10
232.93
 20
17.102
 10
232.458
 20
17.245
 10
231.986
 20
17.415
 10
231.515
 20
17.612
 10
231.043
 20
17.836
 10
230.571
 20
18.087
 10
230.1
 20
18.365
 10
229.628
 20
18.67
 10
229.141
 20
19.013
 10
229.141
 20
30.074
  0
HATCH
  5
63
330
17
100
AcDbEntity
  8
RASTER
 62
7
100
AcDbHatch
 10
0.0
 20
0.0
 30
0.0
210
0.0
220
0.0
230
1.0
  2
SOLID
 70
1
 71
0
 91
1
 92
3
 72
0
 73
1
 93
4
 10
229.181
 20
29.334
 10
241.181
 20
29.334
 10
241.181
 20
28.834
 10
229.181
 20
28.834
 97
0
 75
0
 76
1
 98
0
  0
HATCH
  5
64
330
17
100
AcDbEntity
  8
RASTER
 62
7
100
AcDbHatch
 10
0.0
 20
0.0
 30
0.0
210
0.0
220
0.0
230
1.0
  2
SOLID
 70
1
 71
0
 91
4
 92
3
 72
0
 73
1
 93
45
 10
234.937
 20
28.006
 10
235.375
 20
28.014
 10
235.903
 20
27.923
 10
236.227
 20
27.801
 10
236.562
 20
27.594
 10
236.756
 20
27.419
 10
237.015
 20
27.02
 10
237.203
 20
26.53
 10
237.273
 20
26.135
 10
237.223
 20
25.701
 10
236.899
 20
24.998
 10
236.886
 20
24.779
 10
236.963
 20
24.45
 10
236.905
 20
24.237
 10
236.808
 20
24.14
 10
236.661
 20
24.074
 10
236.093
 20
23.983
 10
236.014
 20
23.849
 10
236.072
 20
23.481
 10
236.039
 20
23.359
 10
235.793
 20
23.218
 10
235.316
 20
23.132
 10
235.026
 20
23.132
 10
234.691
 20
23.185
 10
234.367
 20
23.307
 10
234.29
 20
23.384
 10
234.27
 20
23.462
 10
234.328
 20
23.772
 10
234.303
 20
23.94
 10
234.179
 20
24.01
 10
233.697
 20
24.07
 10
233.482
 20
24.184
 10
233.399
 20
24.391
 10
233.412
 20
24.591
 10
233.476
 20
24.798
 10
233.445
 20
25.019
 10
233.211
 20
25.482
 10
233.089
 20
25.902
 10
233.089
 20
26.232
 10
233.158
 20
26.569
 10
233.346
 20
27.04
 10
233.548
 20
27.361
 10
233.885
 20
27.663
 10
234.199
 20
27.834
 10
234.534
 20
27.944
 97
0
 92
2
 72
0
 73
1
 93
15
 10
234.354
 20
25.451
 10
234.077
 20
25.379
 10
233.955
 20
25.288
 10
233.833
 20
25.081
 10
233.807
 20
24.936
 10
233.85
 20
24.785
 10
233.935
 20
24.676
 10
234.088
 20
24.597
 10
234.425
 20
24.605
 10
234.592
 20
24.651
 10
234.741
 20
24.754
 10
234.863
 20
24.98
 10
234.859
 20
25.193
 10
234.768
 20
25.354
 10
234.607
 20
25.445
 97
0
 92
2
 72
0
 73
1
 93
14
 10
235.768
 20
25.451
 10
235.621
 20
25.385
 10
235.498
 20
25.217
 10
235.498
 20
24.961
 10
235.601
 20
24.773
 10
235.808
 20
24.632
 10
236.111
 20
24.585
 10
236.273
 20
24.597
 10
236.446
 20
24.696
 10
236.525
 20
24.849
 10
236.537
 20
24.992
 10
236.426
 20
25.25
 10
236.304
 20
25.36
 10
236.157
 20
25.426
 97
0
 92
3
 72
0
 73
1
 93
70
 10
232.786
 20
23.744
 10
232.959
 20
23.739
 10
233.108
 20
23.675
 10
233.451
 20
23.32
 10
233.774
 20
23.101
 10
235.161
 20
22.512
 10
235.485
 20
22.615
 10
236.651
 20
23.134
 10
236.911
 20
23.32
 10
237.209
 20
23.642
 10
237.318
 20
23.708
 10
237.486
 20
23.752
 10
237.66
 20
23.713
 10
237.763
 20
23.545
 10
237.769
 20
23.318
 10
237.899
 20
23.216
 10
237.965
 20
23.107
 10
237.963
 20
22.908
 10
237.879
 20
22.797
 10
237.662
 20
22.704
 10
237.331
 20
22.706
 10
236.932
 20
22.64
 10
236.008
 20
22.247
 10
235.975
 20
22.183
 10
236.022
 20
22.113
 10
236.874
 20
21.745
 10
237.292
 20
21.66
 10
237.726
 20
21.648
 10
237.879
 20
21.569
 10
237.963
 20
21.459
 10
237.963
 20
21.261
 10
237.899
 20
21.151
 10
237.769
 20
21.048
 10
237.738
 20
20.75
 10
237.591
 20
20.626
 10
237.486
 20
20.614
 10
237.318
 20
20.659
 10
237.19
 20
20.744
 10
236.891
 20
21.065
 10
236.69
 20
21.213
 10
235.311
 20
21.829
 10
235.142
 20
21.854
 10
233.672
 20
21.213
 10
233.47
 20
21.065
 10
233.172
 20
20.744
 10
233.044
 20
20.659
 10
232.876
 20
20.614
 10
232.703
 20
20.655
 10
232.599
 20
20.821
 10
232.593
 20
21.048
 10
232.463
 20
21.151
 10
232.399
 20
21.261
 10
232.399
 20
21.459
 10
232.482
 20
21.569
 10
232.635
 20
21.648
 10
233.069
 20
21.66
 10
233.488
 20
21.745
 10
234.34
 20
22.113
 10
234.387
 20
22.183
 10
234.354
 20
22.247
 10
233.43
 20
22.64
 10
233.031
 20
22.706
 10
232.699
 20
22.704
 10
232.482
 20
22.797
 10
232.399
 20
22.908
 10
232.397
 20
23.107
 10
232.463
 20
23.216
 10
232.593
 20
23.318
 10
232.585
 20
23.462
 10
232.643
 20
23.655
 97
0
 75
0
 76
1
 98
0
  0
ENDSEC
  0
SECTION
  2
OBJECTS
  0
DICTIONARY
  5
A
330
0
100
AcDbDictionary
281
1
  3
ACAD_COLOR
350
B
  3
ACAD_GROUP
350
C
  3
ACAD_LAYOUT
350
D
  3
ACAD_MATERIAL
350
E
  3
ACAD_MLEADERSTYLE
350
F
  3
ACAD_MLINESTYLE
350
10
  3
ACAD_PLOTSETTINGS
350
11
  3
ACAD_PLOTSTYLENAME
350
12
  3
ACAD_SCALELIST
350
14
  3
ACAD_TABLESTYLE
350
15
  3
ACAD_VISUALSTYLE
350
16
  3
EZDXF_META
350
2D
  0
DICTIONARY
  5
B
330
A
100
AcDbDictionary
281
1
  0
DICTIONARY
  5
C
330
A
100
AcDbDictionary
281
1
  0
DICTIONARY
  5
D
330
A
100
AcDbDictionary
281
1
  3
Model
350
1A
  3
Layout1
350
1E
  0
DICTIONARY
  5
E
330
A
100
AcDbDictionary
281
1
  3
ByBlock
350
1F
  3
ByLayer
350
20
  3
Global
350
21
  0
DICTIONARY
  5
F
330
A
100
AcDbDictionary
281
1
  3
Standard
350
2C
  0
DICTIONARY
  5
10
330
A
100
AcDbDictionary
281
1
  3
Standard
350
22
  0
DICTIONARY
  5
11
330
A
100
AcDbDictionary
281
1
  0
ACDBDICTIONARYWDFLT
  5
12
330
A
100
AcDbDictionary
281
1
  3
Normal
350
13
100
AcDbDictionaryWithDefault
340
13
  0
ACDBPLACEHOLDER
  5
13
330
12
  0
DICTIONARY
  5
14
330
A
100
AcDbDictionary
281
1
  0
DICTIONARY
  5
15
330
A
100
AcDbDictionary
281
1
  0
DICTIONARY
  5
16
330
A
100
AcDbDictionary
281
1
  0
LAYOUT
  5
1A
330
D
100
AcDbPlotSettings
  1

  4
A3
  6

 40
7.5
 41
20.0
 42
7.5
 43
20.0
 44
420.0
 45
297.0
 46
0.0
 47
0.0
 48
0.0
 49
0.0
140
0.0
141
0.0
142
1.0
143
1.0
 70
1024
 72
1
 73
0
 74
5
  7

 75
16
 76
0
 77
2
 78
300
147
1.0
148
0.0
149
0.0
100
AcDbLayout
  1
Model
 70
1
 71
0
 10
0.0
 20
0.0
 11
420.0
 21
297.0
 12
0.0
 22
0.0
 32
0.0
 14
1e+20
 24
1e+20
 34
1e+20
 15
-1e+20
 25
-1e+20
 35
-1e+20
146
0.0
 13
0.0
 23
0.0
 33
0.0
 16
1.0
 26
0.0
 36
0.0
 17
0.0
 27
1.0
 37
0.0
 76
1
330
17
  0
LAYOUT
  5
1E
330
D
100
AcDbPlotSettings
  1

  4
A3
  6

 40
7.5
 41
20.0
 42
7.5
 43
20.0
 44
420.0
 45
297.0
 46
0.0
 47
0.0
 48
0.0
 49
0.0
140
0.0
141
0.0
142
1.0
143
1.0
 70
0
 72
1
 73
0
 74
5
  7

 75
16
 76
0
 77
2
 78
300
147
1.0
148
0.0
149
0.0
100
AcDbLayout
  1
Layout1
 70
1
 71
1
 10
0.0
 20
0.0
 11
420.0
 21
297.0
 12
0.0
 22
0.0
 32
0.0
 14
1e+20
 24
1e+20
 34
1e+20
 15
-1e+20
 25
-1e+20
 35
-1e+20
146
0.0
 13
0.0
 23
0.0
 33
0.0
 16
1.0
 26
0.0
 36
0.0
 17
0.0
 27
1.0
 37
0.0
 76
1
330
1B
  0
MATERIAL
  5
1F
102
{ACAD_REACTORS
330
E
102
}
330
E
100
AcDbMaterial
  1
ByBlock
  2

 70
0
 40
1.0
 71
1
 41
1.0
 91
-1023410177
 42
1.0
 72
1
  3

 73
1
 74
1
 75
1
 44
0.5
 73
0
 45
1.0
 46
1.0
 77
1
  4

 78
1
 79
1
170
1
 48
1.0
171
1
  6

172
1
173
1
174
1
140
1.0
141
1.0
175
1
  7

176
1
177
1
178
1
143
1.0
179
1
  8

270
1
271
1
272
1
145
1.0
146
1.0
273
1
  9

274
1
275
1
276
1
 42
1.0
 72
1
  3

 73
1
 74
1
 75
1
 94
63
  0
MATERIAL
  5
20
102
{ACAD_REACTORS
330
E
102
}
330
E
100
AcDbMaterial
  1
ByLayer
  2

 70
0
 40
1.0
 71
1
 41
1.0
 91
-1023410177
 42
1.0
 72
1
  3

 73
1
 74
1
 75
1
 44
0.5
 73
0
 45
1.0
 46
1.0
 77
1
  4

 78
1
 79
1
170
1
 48
1.0
171
1
  6

172
1
173
1
174
1
140
1.0
141
1.0
175
1
  7

176
1
177
1
178
1
143
1.0
179
1
  8

270
1
271
1
272
1
145
1.0
146
1.0
273
1
  9

274
1
275
1
276
1
 42
1.0
 72
1
  3

 73
1
 74
1
 75
1
 94
63
  0
MATERIAL
  5
21
102
{ACAD_REACTORS
330
E
102
}
330
E
100
AcDbMaterial
  1
Global
  2

 70
0
 40
1.0
 71
1
 41
1.0
 91
-1023410177
 42
1.0
 72
1
  3

 73
1
 74
1
 75
1
 44
0.5
 73
0
 45
1.0
 46
1.0
 77
1
  4

 78
1
 79
1
170
1
 48
1.0
171
1
  6

172
1
173
1
174
1
140
1.0
141
1.0
175
1
  7

176
1
177
1
178
1
143
1.0
179
1
  8

270
1
271
1
272
1
145
1.0
146
1.0
273
1
  9

274
1
275
1
276
1
 42
1.0
 72
1
  3

 73
1
 74
1
 75
1
 94
63
  0
MLINESTYLE
  5
22
102
{ACAD_REACTORS
330
10
102
}
330
10
100
AcDbMlineStyle
  2
Standard
 70
0
  3

 62
256
 51
90.0
 52
90.0
 71
2
 49
0.5
 62
256
  6
BYLAYER
 49
-0.5
 62
256
  6
BYLAYER
  0
MLEADERSTYLE
  5
2C
102
{ACAD_REACTORS
330
F
102
}
330
F
100
AcDbMLeaderStyle
179
2
170
2
171
1
172
0
 90
2
 40
0.0
 41
0.0
173
1
 91
-1056964608
 92
-2
290
1
 42
2.0
291
1
 43
8.0
  3
Standard
 44
4.0
300

342
29
174
1
175
1
176
0
178
1
 93
-1056964608
 45
4.0
292
0
297
0
 46
4.0
 94
-1056964608
 47
1.0
 49
1.0
140
1.0
294
1
141
0.0
177
0
142
1.0
295
0
296
0
143
3.75
271
0
272
9
273
9
  0
DICTIONARY
  5
2D
330
A
100
AcDbDictionary
280
1
281
1
  3
CREATED_BY_EZDXF
350
2E
  3
WRITTEN_BY_EZDXF
350
67
  0
DICTIONARYVAR
  5
2E
330
2D
100
DictionaryVariables
280
0
  1
1.4.2 @ 2026-09-12T14:48:56.738019+00:00
  0
DICTIONARYVAR
  5
67
330
2D
100
DictionaryVariables
280
0
  1
1.4.2 @ 2026-09-12T14:48:56.743911+00:00
  0
ENDSEC
  0
EOF
