0
SECTION
2
HEADER
9
$ACADVER
1
AC1015
9
$HANDSEED
5
FFFF
9
$INSUNITS
70
4
9
$EXTMIN
10
0
20
0
30
0
9
$EXTMAX
10
251.2
20
35
30
0
0
ENDSEC
0
SECTION
2
TABLES
0
TABLE
2
LAYER
5
100
100
AcDbSymbolTable
70
2
0
LAYER
5
101
100
AcDbSymbolTableRecord
100
AcDbLayerTableRecord
2
CUT
70
0
62
1
6
Continuous
370
-3
0
LAYER
5
102
100
AcDbSymbolTableRecord
100
AcDbLayerTableRecord
2
RASTER
70
0
62
7
6
Continuous
370
-3
0
ENDTAB
0
ENDSEC
0
SECTION
2
ENTITIES
0
LWPOLYLINE
5
103
100
AcDbEntity
8
CUT
100
AcDbPolyline
90
27
70
1
10
5.8
20
31
10
16.8
20
31
10
18.419
20
30.914
10
19.909
20
30.66
10
21.282
20
30.241
10
22.55
20
29.66
10
23.724
20
28.922
10
24.816
20
28.03
10
25.837
20
26.988
10
26.8
20
25.8
10
25.837
20
24.612
10
24.816
20
23.57
10
23.724
20
22.678
10
22.55
20
21.94
10
21.282
20
21.359
10
19.909
20
20.94
10
18.419
20
20.686
10
16.8
20
20.6
10
5.8
20
20.6
10
5.013
20
21.047
10
4.45
20
22.225
10
4.113
20
23.891
10
4
20
25.8
10
4.113
20
27.709
10
4.45
20
29.375
10
5.012
20
30.553
10
5.8
20
31
0
LWPOLYLINE
5
104
100
AcDbEntity
8
CUT
100
AcDbPolyline
90
4
70
1
10
8.7
20
29.3
10
11.9
20
29.3
10
11.9
20
22.3
10
8.7
20
22.3
0
LWPOLYLINE
5
105
100
AcDbEntity
8
CUT
100
AcDbPolyline
90
4
70
1
10
16.7
20
29.3
10
19.9
20
29.3
10
19.9
20
22.3
10
16.7
20
22.3
0
HATCH
5
106
100
AcDbEntity
8
RASTER
100
AcDbHatch
10
0
20
0
30
0
210
0
220
0
230
1
2
SOLID
70
1
71
0
91
1
92
2
72
0
73
1
93
4
10
6
20
29.02
10
22.5
20
29.02
10
22.5
20
28.58
10
6
20
28.58
97
0
75
0
76
1
98
1
10
0
20
0
0
HATCH
5
107
100
AcDbEntity
8
RASTER
100
AcDbHatch
10
0
20
0
30
0
210
0
220
0
230
1
2
SOLID
70
1
71
0
91
1
92
2
72
0
73
1
93
4
10
6
20
26.02
10
22.5
20
26.02
10
22.5
20
25.58
10
6
20
25.58
97
0
75
0
76
1
98
1
10
0
20
0
0
HATCH
5
108
100
AcDbEntity
8
RASTER
100
AcDbHatch
10
0
20
0
30
0
210
0
220
0
230
1
2
SOLID
70
1
71
0
91
1
92
2
72
0
73
1
93
4
10
6
20
23.02
10
22.5
20
23.02
10
22.5
20
22.58
10
6
20
22.58
97
0
75
0
76
1
98
1
10
0
20
0
0
HATCH
5
109
100
AcDbEntity
8
RASTER
100
AcDbHatch
10
0
20
0
30
0
210
0
220
0
230
1
2
SOLID
70
1
71
0
91
1
92
2
72
0
73
1
93
4
10
4.4
20
26.1
10
6
20
26.1
10
6
20
25.5
10
4.4
20
25.5
97
0
75
0
76
1
98
1
10
0
20
0
0
LWPOLYLINE
5
10A
100
AcDbEntity
8
CUT
100
AcDbPolyline
90
18
70
1
10
37
20
31
10
39.6
20
31
10
39.6
20
29
10
45.8
20
29
10
45.8
20
16
10
43
20
14.4
10
39.6
20
13.6
10
39.6
20
10
10
41.65
20
10
10
41.65
20
4
10
34.95
20
4
10
34.95
20
10
10
37
20
10
10
37
20
13.6
10
32.3
20
14.4
10
30.8
20
16
10
30.8
20
29
10
37
20
29
0
HATCH
5
10B
100
AcDbEntity
8
RASTER
100
AcDbHatch
10
0
20
0
30
0
210
0
220
0
230
1
2
SOLID
70
1
71
0
91
1
92
2
72
0
73
1
93
4
10
30.8
20
28.4
10
45.8
20
28.4
10
45.8
20
27.9
10
30.8
20
27.9
97
0
75
0
76
1
98
1
10
0
20
0
0
HATCH
5
10C
100
AcDbEntity
8
RASTER
100
AcDbHatch
10
0
20
0
30
0
210
0
220
0
230
1
2
SOLID
70
1
71
0
91
4
92
2
72
0
73
1
93
45
10
37.983
20
26.59
10
38.551
20
26.6
10
39.237
20
26.482
10
39.657
20
26.324
10
40.092
20
26.055
10
40.343
20
25.828
10
40.68
20
25.311
10
40.924
20
24.675
10
41.014
20
24.162
10
40.949
20
23.599
10
40.529
20
22.687
10
40.512
20
22.403
10
40.612
20
21.976
10
40.537
20
21.699
10
40.411
20
21.574
10
40.22
20
21.488
10
39.484
20
21.37
10
39.381
20
21.197
10
39.456
20
20.719
10
39.413
20
20.561
10
39.094
20
20.378
10
38.476
20
20.267
10
38.099
20
20.267
10
37.664
20
20.335
10
37.245
20
20.493
10
37.144
20
20.594
10
37.119
20
20.694
10
37.194
20
21.096
10
37.162
20
21.315
10
37.001
20
21.405
10
36.375
20
21.483
10
36.096
20
21.632
10
35.988
20
21.901
10
36.006
20
22.159
10
36.088
20
22.428
10
36.048
20
22.715
10
35.744
20
23.315
10
35.586
20
23.861
10
35.586
20
24.288
10
35.676
20
24.725
10
35.92
20
25.336
10
36.181
20
25.753
10
36.619
20
26.145
10
37.026
20
26.366
10
37.461
20
26.51
97
0
92
2
72
0
73
1
93
15
10
37.227
20
23.275
10
36.868
20
23.182
10
36.709
20
23.064
10
36.551
20
22.795
10
36.518
20
22.607
10
36.574
20
22.411
10
36.684
20
22.27
10
36.883
20
22.167
10
37.32
20
22.177
10
37.536
20
22.237
10
37.73
20
22.37
10
37.888
20
22.665
10
37.883
20
22.941
10
37.765
20
23.15
10
37.556
20
23.268
97
0
92
2
72
0
73
1
93
14
10
39.061
20
23.275
10
38.87
20
23.19
10
38.712
20
22.971
10
38.712
20
22.639
10
38.845
20
22.396
10
39.114
20
22.212
10
39.506
20
22.152
10
39.717
20
22.167
10
39.941
20
22.295
10
40.044
20
22.494
10
40.059
20
22.68
10
39.916
20
23.014
10
39.758
20
23.157
10
39.567
20
23.243
97
0
92
2
72
0
73
1
93
70
10
35.194
20
21.061
10
35.417
20
21.054
10
35.611
20
20.971
10
36.056
20
20.511
10
36.475
20
20.227
10
38.275
20
19.463
10
38.695
20
19.596
10
40.207
20
20.27
10
40.544
20
20.511
10
40.931
20
20.928
10
41.072
20
21.013
10
41.291
20
21.071
10
41.517
20
21.021
10
41.65
20
20.802
10
41.657
20
20.508
10
41.826
20
20.375
10
41.911
20
20.234
10
41.909
20
19.975
10
41.801
20
19.832
10
41.519
20
19.712
10
41.09
20
19.714
10
40.572
20
19.629
10
39.373
20
19.119
10
39.33
20
19.036
10
39.391
20
18.945
10
40.496
20
18.468
10
41.039
20
18.357
10
41.602
20
18.342
10
41.801
20
18.239
10
41.909
20
18.096
10
41.909
20
17.839
10
41.826
20
17.696
10
41.657
20
17.563
10
41.617
20
17.176
10
41.426
20
17.015
10
41.291
20
17
10
41.072
20
17.058
10
40.906
20
17.168
10
40.519
20
17.586
10
40.258
20
17.777
10
38.468
20
18.576
10
38.25
20
18.608
10
36.342
20
17.777
10
36.081
20
17.586
10
35.694
20
17.168
10
35.528
20
17.058
10
35.309
20
17
10
35.086
20
17.053
10
34.95
20
17.269
10
34.943
20
17.563
10
34.774
20
17.696
10
34.691
20
17.839
10
34.691
20
18.096
10
34.799
20
18.239
10
34.998
20
18.342
10
35.561
20
18.357
10
36.104
20
18.468
10
37.209
20
18.945
10
37.27
20
19.036
10
37.227
20
19.119
10
36.028
20
19.629
10
35.51
20
19.714
10
35.081
20
19.712
10
34.799
20
19.832
10
34.691
20
19.975
10
34.689
20
20.234
10
34.774
20
20.375
10
34.943
20
20.508
10
34.932
20
20.694
10
35.008
20
20.946
97
0
75
0
76
1
98
1
10
0
20
0
0
LWPOLYLINE
5
10D
100
AcDbEntity
8
CUT
100
AcDbPolyline
90
18
70
1
10
54.5
20
31
10
57.1
20
31
10
57.1
20
29
10
61.8
20
29
10
61.8
20
18
10
59
20
16.4
10
57.1
20
15.6
10
57.1
20
12
10
59.15
20
12
10
59.15
20
6
10
52.45
20
6
10
52.45
20
12
10
54.5
20
12
10
54.5
20
15.6
10
51.3
20
16.4
10
49.8
20
18
10
49.8
20
29
10
54.5
20
29
0
HATCH
5
10E
100
AcDbEntity
8
RASTER
100
AcDbHatch
10
0
20
0
30
0
210
0
220
0
230
1
2
SOLID
70
1
71
0
91
1
92
2
72
0
73
1
93
4
10
49.8
20
28.4
10
61.8
20
28.4
10
61.8
20
27.9
10
49.8
20
27.9
97
0
75
0
76
1
98
1
10
0
20
0
0
HATCH
5
10F
100
AcDbEntity
8
RASTER
100
AcDbHatch
10
0
20
0
30
0
210
0
220
0
230
1
2
SOLID
70
1
71
0
91
4
92
2
72
0
73
1
93
45
10
55.549
20
26.592
10
55.999
20
26.6
10
56.542
20
26.506
10
56.874
20
26.381
10
57.219
20
26.168
10
57.417
20
25.989
10
57.684
20
25.579
10
57.877
20
25.076
10
57.949
20
24.67
10
57.897
20
24.225
10
57.565
20
23.502
10
57.551
20
23.277
10
57.63
20
22.939
10
57.571
20
22.72
10
57.471
20
22.621
10
57.32
20
22.553
10
56.737
20
22.46
10
56.655
20
22.323
10
56.715
20
21.945
10
56.681
20
21.819
10
56.429
20
21.674
10
55.939
20
21.586
10
55.641
20
21.586
10
55.297
20
21.64
10
54.964
20
21.765
10
54.885
20
21.845
10
54.865
20
21.925
10
54.925
20
22.243
10
54.899
20
22.416
10
54.771
20
22.488
10
54.276
20
22.549
10
54.055
20
22.667
10
53.97
20
22.88
10
53.984
20
23.085
10
54.049
20
23.297
10
54.017
20
23.524
10
53.777
20
24
10
53.651
20
24.431
10
53.651
20
24.77
10
53.723
20
25.116
10
53.916
20
25.599
10
54.123
20
25.93
10
54.469
20
26.24
10
54.791
20
26.415
10
55.135
20
26.528
97
0
92
2
72
0
73
1
93
15
10
54.95
20
23.968
10
54.666
20
23.894
10
54.541
20
23.801
10
54.415
20
23.588
10
54.389
20
23.439
10
54.433
20
23.283
10
54.521
20
23.172
10
54.678
20
23.09
10
55.024
20
23.098
10
55.195
20
23.146
10
55.348
20
23.252
10
55.474
20
23.484
10
55.47
20
23.703
10
55.376
20
23.868
10
55.211
20
23.962
97
0
92
2
72
0
73
1
93
14
10
56.403
20
23.968
10
56.252
20
23.9
10
56.126
20
23.727
10
56.126
20
23.465
10
56.232
20
23.272
10
56.445
20
23.126
10
56.755
20
23.079
10
56.922
20
23.09
10
57.099
20
23.192
10
57.181
20
23.349
10
57.193
20
23.496
10
57.079
20
23.761
10
56.954
20
23.874
10
56.803
20
23.942
97
0
92
2
72
0
73
1
93
70
10
53.341
20
22.215
10
53.518
20
22.209
10
53.671
20
22.143
10
54.023
20
21.779
10
54.356
20
21.555
10
55.78
20
20.95
10
56.112
20
21.055
10
57.31
20
21.588
10
57.577
20
21.779
10
57.883
20
22.11
10
57.994
20
22.177
10
58.168
20
22.223
10
58.347
20
22.183
10
58.452
20
22.01
10
58.458
20
21.777
10
58.591
20
21.672
10
58.659
20
21.561
10
58.657
20
21.356
10
58.571
20
21.242
10
58.349
20
21.147
10
58.008
20
21.149
10
57.599
20
21.081
10
56.65
20
20.677
10
56.616
20
20.612
10
56.663
20
20.54
10
57.539
20
20.162
10
57.969
20
20.074
10
58.414
20
20.062
10
58.571
20
19.981
10
58.657
20
19.867
10
58.657
20
19.665
10
58.591
20
19.551
10
58.458
20
19.446
10
58.426
20
19.139
10
58.275
20
19.012
10
58.168
20
19
10
57.994
20
19.046
10
57.863
20
19.133
10
57.557
20
19.464
10
57.35
20
19.615
10
55.933
20
20.247
10
55.76
20
20.273
10
54.25
20
19.615
10
54.043
20
19.464
10
53.737
20
19.133
10
53.606
20
19.046
10
53.432
20
19
10
53.255
20
19.042
10
53.148
20
19.213
10
53.142
20
19.446
10
53.009
20
19.551
10
52.943
20
19.665
10
52.943
20
19.867
10
53.029
20
19.981
10
53.186
20
20.062
10
53.631
20
20.074
10
54.061
20
20.162
10
54.937
20
20.54
10
54.984
20
20.612
10
54.95
20
20.677
10
54.001
20
21.081
10
53.592
20
21.149
10
53.251
20
21.147
10
53.029
20
21.242
10
52.943
20
21.356
10
52.941
20
21.561
10
53.009
20
21.672
10
53.142
20
21.777
10
53.134
20
21.925
10
53.194
20
22.124
97
0
75
0
76
1
98
1
10
0
20
0
0
LWPOLYLINE
5
110
100
AcDbEntity
8
CUT
100
AcDbPolyline
90
27
70
1
10
67.6
20
31
10
78.6
20
31
10
80.219
20
30.914
10
81.709
20
30.66
10
83.082
20
30.241
10
84.35
20
29.66
10
85.524
20
28.922
10
86.616
20
28.03
10
87.637
20
26.988
10
88.6
20
25.8
10
87.637
20
24.612
10
86.616
20
23.57
10
85.524
20
22.678
10
84.35
20
21.94
10
83.082
20
21.359
10
81.709
20
20.94
10
80.219
20
20.686
10
78.6
20
20.6
10
67.6
20
20.6
10
66.812
20
21.047
10
66.25
20
22.225
10
65.913
20
23.891
10
65.8
20
25.8
10
65.913
20
27.709
10
66.25
20
29.375
10
66.813
20
30.553
10
67.6
20
31
0
LWPOLYLINE
5
111
100
AcDbEntity
8
CUT
100
AcDbPolyline
90
4
70
1
10
70.5
20
29.3
10
73.7
20
29.3
10
73.7
20
22.3
10
70.5
20
22.3
0
LWPOLYLINE
5
112
100
AcDbEntity
8
CUT
100
AcDbPolyline
90
4
70
1
10
78.5
20
29.3
10
81.7
20
29.3
10
81.7
20
22.3
10
78.5
20
22.3
0
HATCH
5
113
100
AcDbEntity
8
RASTER
100
AcDbHatch
10
0
20
0
30
0
210
0
220
0
230
1
2
SOLID
70
1
71
0
91
1
92
2
72
0
73
1
93
4
10
67.8
20
29.02
10
84.3
20
29.02
10
84.3
20
28.58
10
67.8
20
28.58
97
0
75
0
76
1
98
1
10
0
20
0
0
HATCH
5
114
100
AcDbEntity
8
RASTER
100
AcDbHatch
10
0
20
0
30
0
210
0
220
0
230
1
2
SOLID
70
1
71
0
91
1
92
2
72
0
73
1
93
4
10
67.8
20
26.02
10
84.3
20
26.02
10
84.3
20
25.58
10
67.8
20
25.58
97
0
75
0
76
1
98
1
10
0
20
0
0
HATCH
5
115
100
AcDbEntity
8
RASTER
100
AcDbHatch
10
0
20
0
30
0
210
0
220
0
230
1
2
SOLID
70
1
71
0
91
1
92
2
72
0
73
1
93
4
10
67.8
20
23.02
10
84.3
20
23.02
10
84.3
20
22.58
10
67.8
20
22.58
97
0
75
0
76
1
98
1
10
0
20
0
0
HATCH
5
116
100
AcDbEntity
8
RASTER
100
AcDbHatch
10
0
20
0
30
0
210
0
220
0
230
1
2
SOLID
70
1
71
0
91
1
92
2
72
0
73
1
93
4
10
66.2
20
26.1
10
67.8
20
26.1
10
67.8
20
25.5
10
66.2
20
25.5
97
0
75
0
76
1
98
1
10
0
20
0
0
LWPOLYLINE
5
117
100
AcDbEntity
8
CUT
100
AcDbPolyline
90
18
70
1
10
98.8
20
31
10
101.4
20
31
10
101.4
20
29
10
107.6
20
29
10
107.6
20
16
10
104.8
20
14.4
10
101.4
20
13.6
10
101.4
20
10
10
103.45
20
10
10
103.45
20
4
10
96.75
20
4
10
96.75
20
10
10
98.8
20
10
10
98.8
20
13.6
10
94.1
20
14.4
10
92.6
20
16
10
92.6
20
29
10
98.8
20
29
0
HATCH
5
118
100
AcDbEntity
8
RASTER
100
AcDbHatch
10
0
20
0
30
0
210
0
220
0
230
1
2
SOLID
70
1
71
0
91
1
92
2
72
0
73
1
93
4
10
92.6
20
28.4
10
107.6
20
28.4
10
107.6
20
27.9
10
92.6
20
27.9
97
0
75
0
76
1
98
1
10
0
20
0
0
HATCH
5
119
100
AcDbEntity
8
RASTER
100
AcDbHatch
10
0
20
0
30
0
210
0
220
0
230
1
2
SOLID
70
1
71
0
91
4
92
2
72
0
73
1
93
45
10
99.783
20
26.59
10
100.351
20
26.6
10
101.037
20
26.482
10
101.457
20
26.324
10
101.892
20
26.055
10
102.143
20
25.828
10
102.48
20
25.311
10
102.724
20
24.675
10
102.814
20
24.162
10
102.749
20
23.599
10
102.329
20
22.687
10
102.312
20
22.403
10
102.412
20
21.976
10
102.337
20
21.699
10
102.211
20
21.574
10
102.02
20
21.488
10
101.284
20
21.37
10
101.181
20
21.197
10
101.256
20
20.719
10
101.213
20
20.561
10
100.894
20
20.378
10
100.276
20
20.267
10
99.899
20
20.267
10
99.464
20
20.335
10
99.045
20
20.493
10
98.944
20
20.594
10
98.919
20
20.694
10
98.994
20
21.096
10
98.962
20
21.315
10
98.801
20
21.405
10
98.175
20
21.483
10
97.896
20
21.632
10
97.788
20
21.901
10
97.806
20
22.159
10
97.888
20
22.428
10
97.848
20
22.715
10
97.544
20
23.315
10
97.386
20
23.861
10
97.386
20
24.288
10
97.476
20
24.725
10
97.72
20
25.336
10
97.981
20
25.753
10
98.419
20
26.145
10
98.826
20
26.366
10
99.261
20
26.51
97
0
92
2
72
0
73
1
93
15
10
99.027
20
23.275
10
98.668
20
23.182
10
98.509
20
23.064
10
98.351
20
22.795
10
98.318
20
22.607
10
98.374
20
22.411
10
98.484
20
22.27
10
98.683
20
22.167
10
99.12
20
22.177
10
99.336
20
22.237
10
99.53
20
22.37
10
99.688
20
22.665
10
99.683
20
22.941
10
99.565
20
23.15
10
99.356
20
23.268
97
0
92
2
72
0
73
1
93
14
10
100.861
20
23.275
10
100.67
20
23.19
10
100.512
20
22.971
10
100.512
20
22.639
10
100.645
20
22.396
10
100.914
20
22.212
10
101.306
20
22.152
10
101.517
20
22.167
10
101.741
20
22.295
10
101.844
20
22.494
10
101.859
20
22.68
10
101.716
20
23.014
10
101.558
20
23.157
10
101.367
20
23.243
97
0
92
2
72
0
73
1
93
70
10
96.994
20
21.061
10
97.217
20
21.054
10
97.411
20
20.971
10
97.856
20
20.511
10
98.275
20
20.227
10
100.075
20
19.463
10
100.495
20
19.596
10
102.007
20
20.27
10
102.344
20
20.511
10
102.731
20
20.928
10
102.872
20
21.013
10
103.091
20
21.071
10
103.317
20
21.021
10
103.45
20
20.802
10
103.457
20
20.508
10
103.626
20
20.375
10
103.711
20
20.234
10
103.709
20
19.975
10
103.601
20
19.832
10
103.319
20
19.712
10
102.89
20
19.714
10
102.372
20
19.629
10
101.173
20
19.119
10
101.13
20
19.036
10
101.191
20
18.945
10
102.296
20
18.468
10
102.839
20
18.357
10
103.402
20
18.342
10
103.601
20
18.239
10
103.709
20
18.096
10
103.709
20
17.839
10
103.626
20
17.696
10
103.457
20
17.563
10
103.417
20
17.176
10
103.226
20
17.015
10
103.091
20
17
10
102.872
20
17.058
10
102.706
20
17.168
10
102.319
20
17.586
10
102.058
20
17.777
10
100.268
20
18.576
10
100.05
20
18.608
10
98.142
20
17.777
10
97.881
20
17.586
10
97.494
20
17.168
10
97.328
20
17.058
10
97.109
20
17
10
96.886
20
17.053
10
96.75
20
17.269
10
96.743
20
17.563
10
96.574
20
17.696
10
96.491
20
17.839
10
96.491
20
18.096
10
96.599
20
18.239
10
96.798
20
18.342
10
97.361
20
18.357
10
97.904
20
18.468
10
99.009
20
18.945
10
99.07
20
19.036
10
99.027
20
19.119
10
97.828
20
19.629
10
97.31
20
19.714
10
96.881
20
19.712
10
96.599
20
19.832
10
96.491
20
19.975
10
96.489
20
20.234
10
96.574
20
20.375
10
96.743
20
20.508
10
96.732
20
20.694
10
96.808
20
20.946
97
0
75
0
76
1
98
1
10
0
20
0
0
LWPOLYLINE
5
11A
100
AcDbEntity
8
CUT
100
AcDbPolyline
90
18
70
1
10
116.3
20
31
10
118.9
20
31
10
118.9
20
29
10
123.6
20
29
10
123.6
20
18
10
120.8
20
16.4
10
118.9
20
15.6
10
118.9
20
12
10
120.95
20
12
10
120.95
20
6
10
114.25
20
6
10
114.25
20
12
10
116.3
20
12
10
116.3
20
15.6
10
113.1
20
16.4
10
111.6
20
18
10
111.6
20
29
10
116.3
20
29
0
HATCH
5
11B
100
AcDbEntity
8
RASTER
100
AcDbHatch
10
0
20
0
30
0
210
0
220
0
230
1
2
SOLID
70
1
71
0
91
1
92
2
72
0
73
1
93
4
10
111.6
20
28.4
10
123.6
20
28.4
10
123.6
20
27.9
10
111.6
20
27.9
97
0
75
0
76
1
98
1
10
0
20
0
0
HATCH
5
11C
100
AcDbEntity
8
RASTER
100
AcDbHatch
10
0
20
0
30
0
210
0
220
0
230
1
2
SOLID
70
1
71
0
91
4
92
2
72
0
73
1
93
45
10
117.349
20
26.592
10
117.799
20
26.6
10
118.342
20
26.506
10
118.674
20
26.381
10
119.019
20
26.168
10
119.217
20
25.989
10
119.484
20
25.579
10
119.677
20
25.076
10
119.749
20
24.67
10
119.697
20
24.225
10
119.365
20
23.502
10
119.351
20
23.277
10
119.43
20
22.939
10
119.371
20
22.72
10
119.271
20
22.621
10
119.12
20
22.553
10
118.537
20
22.46
10
118.455
20
22.323
10
118.515
20
21.945
10
118.481
20
21.819
10
118.229
20
21.674
10
117.739
20
21.586
10
117.441
20
21.586
10
117.097
20
21.64
10
116.764
20
21.765
10
116.685
20
21.845
10
116.665
20
21.925
10
116.725
20
22.243
10
116.699
20
22.416
10
116.571
20
22.488
10
116.076
20
22.549
10
115.855
20
22.667
10
115.77
20
22.88
10
115.784
20
23.085
10
115.849
20
23.297
10
115.817
20
23.524
10
115.577
20
24
10
115.451
20
24.431
10
115.451
20
24.77
10
115.523
20
25.116
10
115.716
20
25.599
10
115.923
20
25.93
10
116.269
20
26.24
10
116.591
20
26.415
10
116.935
20
26.528
97
0
92
2
72
0
73
1
93
15
10
116.75
20
23.968
10
116.466
20
23.894
10
116.341
20
23.801
10
116.215
20
23.588
10
116.189
20
23.439
10
116.233
20
23.283
10
116.321
20
23.172
10
116.478
20
23.09
10
116.824
20
23.098
10
116.995
20
23.146
10
117.148
20
23.252
10
117.274
20
23.484
10
117.27
20
23.703
10
117.176
20
23.868
10
117.011
20
23.962
97
0
92
2
72
0
73
1
93
14
10
118.203
20
23.968
10
118.052
20
23.9
10
117.926
20
23.727
10
117.926
20
23.465
10
118.032
20
23.272
10
118.245
20
23.126
10
118.555
20
23.079
10
118.722
20
23.09
10
118.899
20
23.192
10
118.981
20
23.349
10
118.993
20
23.496
10
118.879
20
23.761
10
118.754
20
23.874
10
118.603
20
23.942
97
0
92
2
72
0
73
1
93
70
10
115.141
20
22.215
10
115.318
20
22.209
10
115.471
20
22.143
10
115.823
20
21.779
10
116.156
20
21.555
10
117.58
20
20.95
10
117.912
20
21.055
10
119.11
20
21.588
10
119.377
20
21.779
10
119.683
20
22.11
10
119.794
20
22.177
10
119.968
20
22.223
10
120.147
20
22.183
10
120.252
20
22.01
10
120.258
20
21.777
10
120.391
20
21.672
10
120.459
20
21.561
10
120.457
20
21.356
10
120.371
20
21.242
10
120.149
20
21.147
10
119.808
20
21.149
10
119.399
20
21.081
10
118.45
20
20.677
10
118.416
20
20.612
10
118.463
20
20.54
10
119.339
20
20.162
10
119.769
20
20.074
10
120.214
20
20.062
10
120.371
20
19.981
10
120.457
20
19.867
10
120.457
20
19.665
10
120.391
20
19.551
10
120.258
20
19.446
10
120.226
20
19.139
10
120.075
20
19.012
10
119.968
20
19
10
119.794
20
19.046
10
119.663
20
19.133
10
119.357
20
19.464
10
119.15
20
19.615
10
117.733
20
20.247
10
117.56
20
20.273
10
116.05
20
19.615
10
115.843
20
19.464
10
115.537
20
19.133
10
115.406
20
19.046
10
115.232
20
19
10
115.055
20
19.042
10
114.948
20
19.213
10
114.942
20
19.446
10
114.809
20
19.551
10
114.743
20
19.665
10
114.743
20
19.867
10
114.829
20
19.981
10
114.986
20
20.062
10
115.431
20
20.074
10
115.861
20
20.162
10
116.737
20
20.54
10
116.784
20
20.612
10
116.75
20
20.677
10
115.801
20
21.081
10
115.392
20
21.149
10
115.051
20
21.147
10
114.829
20
21.242
10
114.743
20
21.356
10
114.741
20
21.561
10
114.809
20
21.672
10
114.942
20
21.777
10
114.934
20
21.925
10
114.994
20
22.124
97
0
75
0
76
1
98
1
10
0
20
0
0
LWPOLYLINE
5
11D
100
AcDbEntity
8
CUT
100
AcDbPolyline
90
27
70
1
10
129.4
20
31
10
140.4
20
31
10
142.019
20
30.914
10
143.509
20
30.66
10
144.882
20
30.241
10
146.15
20
29.66
10
147.324
20
28.922
10
148.416
20
28.03
10
149.437
20
26.988
10
150.4
20
25.8
10
149.437
20
24.612
10
148.416
20
23.57
10
147.324
20
22.678
10
146.15
20
21.94
10
144.882
20
21.359
10
143.509
20
20.94
10
142.019
20
20.686
10
140.4
20
20.6
10
129.4
20
20.6
10
128.612
20
21.047
10
128.05
20
22.225
10
127.712
20
23.891
10
127.6
20
25.8
10
127.712
20
27.709
10
128.05
20
29.375
10
128.612
20
30.553
10
129.4
20
31
0
LWPOLYLINE
5
11E
100
AcDbEntity
8
CUT
100
AcDbPolyline
90
4
70
1
10
132.3
20
29.3
10
135.5
20
29.3
10
135.5
20
22.3
10
132.3
20
22.3
0
LWPOLYLINE
5
11F
100
AcDbEntity
8
CUT
100
AcDbPolyline
90
4
70
1
10
140.3
20
29.3
10
143.5
20
29.3
10
143.5
20
22.3
10
140.3
20
22.3
0
HATCH
5
120
100
AcDbEntity
8
RASTER
100
AcDbHatch
10
0
20
0
30
0
210
0
220
0
230
1
2
SOLID
70
1
71
0
91
1
92
2
72
0
73
1
93
4
10
129.6
20
29.02
10
146.1
20
29.02
10
146.1
20
28.58
10
129.6
20
28.58
97
0
75
0
76
1
98
1
10
0
20
0
0
HATCH
5
121
100
AcDbEntity
8
RASTER
100
AcDbHatch
10
0
20
0
30
0
210
0
220
0
230
1
2
SOLID
70
1
71
0
91
1
92
2
72
0
73
1
93
4
10
129.6
20
26.02
10
146.1
20
26.02
10
146.1
20
25.58
10
129.6
20
25.58
97
0
75
0
76
1
98
1
10
0
20
0
0
HATCH
5
122
100
AcDbEntity
8
RASTER
100
AcDbHatch
10
0
20
0
30
0
210
0
220
0
230
1
2
SOLID
70
1
71
0
91
1
92
2
72
0
73
1
93
4
10
129.6
20
23.02
10
146.1
20
23.02
10
146.1
20
22.58
10
129.6
20
22.58
97
0
75
0
76
1
98
1
10
0
20
0
0
HATCH
5
123
100
AcDbEntity
8
RASTER
100
AcDbHatch
10
0
20
0
30
0
210
0
220
0
230
1
2
SOLID
70
1
71
0
91
1
92
2
72
0
73
1
93
4
10
128
20
26.1
10
129.6
20
26.1
10
129.6
20
25.5
10
128
20
25.5
97
0
75
0
76
1
98
1
10
0
20
0
0
LWPOLYLINE
5
124
100
AcDbEntity
8
CUT
100
AcDbPolyline
90
18
70
1
10
160.6
20
31
10
163.2
20
31
10
163.2
20
29
10
169.4
20
29
10
169.4
20
16
10
166.6
20
14.4
10
163.2
20
13.6
10
163.2
20
10
10
165.25
20
10
10
165.25
20
4
10
158.55
20
4
10
158.55
20
10
10
160.6
20
10
10
160.6
20
13.6
10
155.9
20
14.4
10
154.4
20
16
10
154.4
20
29
10
160.6
20
29
0
HATCH
5
125
100
AcDbEntity
8
RASTER
100
AcDbHatch
10
0
20
0
30
0
210
0
220
0
230
1
2
SOLID
70
1
71
0
91
1
92
2
72
0
73
1
93
4
10
154.4
20
28.4
10
169.4
20
28.4
10
169.4
20
27.9
10
154.4
20
27.9
97
0
75
0
76
1
98
1
10
0
20
0
0
HATCH
5
126
100
AcDbEntity
8
RASTER
100
AcDbHatch
10
0
20
0
30
0
210
0
220
0
230
1
2
SOLID
70
1
71
0
91
4
92
2
72
0
73
1
93
45
10
161.583
20
26.59
10
162.151
20
26.6
10
162.837
20
26.482
10
163.257
20
26.324
10
163.692
20
26.055
10
163.943
20
25.828
10
164.28
20
25.311
10
164.524
20
24.675
10
164.614
20
24.162
10
164.549
20
23.599
10
164.129
20
22.687
10
164.112
20
22.403
10
164.212
20
21.976
10
164.137
20
21.699
10
164.011
20
21.574
10
163.82
20
21.488
10
163.084
20
21.37
10
162.981
20
21.197
10
163.056
20
20.719
10
163.013
20
20.561
10
162.694
20
20.378
10
162.076
20
20.267
10
161.699
20
20.267
10
161.264
20
20.335
10
160.845
20
20.493
10
160.744
20
20.594
10
160.719
20
20.694
10
160.794
20
21.096
10
160.762
20
21.315
10
160.601
20
21.405
10
159.975
20
21.483
10
159.696
20
21.632
10
159.588
20
21.901
10
159.606
20
22.159
10
159.688
20
22.428
10
159.648
20
22.715
10
159.344
20
23.315
10
159.186
20
23.861
10
159.186
20
24.288
10
159.276
20
24.725
10
159.52
20
25.336
10
159.781
20
25.753
10
160.219
20
26.145
10
160.626
20
26.366
10
161.061
20
26.51
97
0
92
2
72
0
73
1
93
15
10
160.827
20
23.275
10
160.468
20
23.182
10
160.309
20
23.064
10
160.151
20
22.795
10
160.118
20
22.607
10
160.174
20
22.411
10
160.284
20
22.27
10
160.483
20
22.167
10
160.92
20
22.177
10
161.136
20
22.237
10
161.33
20
22.37
10
161.488
20
22.665
10
161.483
20
22.941
10
161.365
20
23.15
10
161.156
20
23.268
97
0
92
2
72
0
73
1
93
14
10
162.661
20
23.275
10
162.47
20
23.19
10
162.312
20
22.971
10
162.312
20
22.639
10
162.445
20
22.396
10
162.714
20
22.212
10
163.106
20
22.152
10
163.317
20
22.167
10
163.541
20
22.295
10
163.644
20
22.494
10
163.659
20
22.68
10
163.516
20
23.014
10
163.358
20
23.157
10
163.167
20
23.243
97
0
92
2
72
0
73
1
93
70
10
158.794
20
21.061
10
159.017
20
21.054
10
159.211
20
20.971
10
159.656
20
20.511
10
160.075
20
20.227
10
161.875
20
19.463
10
162.295
20
19.596
10
163.807
20
20.27
10
164.144
20
20.511
10
164.531
20
20.928
10
164.672
20
21.013
10
164.891
20
21.071
10
165.117
20
21.021
10
165.25
20
20.802
10
165.257
20
20.508
10
165.426
20
20.375
10
165.511
20
20.234
10
165.509
20
19.975
10
165.401
20
19.832
10
165.119
20
19.712
10
164.69
20
19.714
10
164.172
20
19.629
10
162.973
20
19.119
10
162.93
20
19.036
10
162.991
20
18.945
10
164.096
20
18.468
10
164.639
20
18.357
10
165.202
20
18.342
10
165.401
20
18.239
10
165.509
20
18.096
10
165.509
20
17.839
10
165.426
20
17.696
10
165.257
20
17.563
10
165.217
20
17.176
10
165.026
20
17.015
10
164.891
20
17
10
164.672
20
17.058
10
164.506
20
17.168
10
164.119
20
17.586
10
163.858
20
17.777
10
162.068
20
18.576
10
161.85
20
18.608
10
159.942
20
17.777
10
159.681
20
17.586
10
159.294
20
17.168
10
159.128
20
17.058
10
158.909
20
17
10
158.686
20
17.053
10
158.55
20
17.269
10
158.543
20
17.563
10
158.374
20
17.696
10
158.291
20
17.839
10
158.291
20
18.096
10
158.399
20
18.239
10
158.598
20
18.342
10
159.161
20
18.357
10
159.704
20
18.468
10
160.809
20
18.945
10
160.87
20
19.036
10
160.827
20
19.119
10
159.628
20
19.629
10
159.11
20
19.714
10
158.681
20
19.712
10
158.399
20
19.832
10
158.291
20
19.975
10
158.289
20
20.234
10
158.374
20
20.375
10
158.543
20
20.508
10
158.532
20
20.694
10
158.608
20
20.946
97
0
75
0
76
1
98
1
10
0
20
0
0
LWPOLYLINE
5
127
100
AcDbEntity
8
CUT
100
AcDbPolyline
90
18
70
1
10
178.1
20
31
10
180.7
20
31
10
180.7
20
29
10
185.4
20
29
10
185.4
20
18
10
182.6
20
16.4
10
180.7
20
15.6
10
180.7
20
12
10
182.75
20
12
10
182.75
20
6
10
176.05
20
6
10
176.05
20
12
10
178.1
20
12
10
178.1
20
15.6
10
174.9
20
16.4
10
173.4
20
18
10
173.4
20
29
10
178.1
20
29
0
HATCH
5
128
100
AcDbEntity
8
RASTER
100
AcDbHatch
10
0
20
0
30
0
210
0
220
0
230
1
2
SOLID
70
1
71
0
91
1
92
2
72
0
73
1
93
4
10
173.4
20
28.4
10
185.4
20
28.4
10
185.4
20
27.9
10
173.4
20
27.9
97
0
75
0
76
1
98
1
10
0
20
0
0
HATCH
5
129
100
AcDbEntity
8
RASTER
100
AcDbHatch
10
0
20
0
30
0
210
0
220
0
230
1
2
SOLID
70
1
71
0
91
4
92
2
72
0
73
1
93
45
10
179.149
20
26.592
10
179.599
20
26.6
10
180.142
20
26.506
10
180.474
20
26.381
10
180.819
20
26.168
10
181.017
20
25.989
10
181.284
20
25.579
10
181.477
20
25.076
10
181.549
20
24.67
10
181.497
20
24.225
10
181.165
20
23.502
10
181.151
20
23.277
10
181.23
20
22.939
10
181.171
20
22.72
10
181.071
20
22.621
10
180.92
20
22.553
10
180.337
20
22.46
10
180.255
20
22.323
10
180.315
20
21.945
10
180.281
20
21.819
10
180.029
20
21.674
10
179.539
20
21.586
10
179.241
20
21.586
10
178.897
20
21.64
10
178.564
20
21.765
10
178.485
20
21.845
10
178.465
20
21.925
10
178.525
20
22.243
10
178.499
20
22.416
10
178.371
20
22.488
10
177.876
20
22.549
10
177.655
20
22.667
10
177.57
20
22.88
10
177.584
20
23.085
10
177.649
20
23.297
10
177.617
20
23.524
10
177.377
20
24
10
177.251
20
24.431
10
177.251
20
24.77
10
177.323
20
25.116
10
177.516
20
25.599
10
177.723
20
25.93
10
178.069
20
26.24
10
178.391
20
26.415
10
178.735
20
26.528
97
0
92
2
72
0
73
1
93
15
10
178.55
20
23.968
10
178.266
20
23.894
10
178.141
20
23.801
10
178.015
20
23.588
10
177.989
20
23.439
10
178.033
20
23.283
10
178.121
20
23.172
10
178.278
20
23.09
10
178.624
20
23.098
10
178.795
20
23.146
10
178.948
20
23.252
10
179.074
20
23.484
10
179.07
20
23.703
10
178.976
20
23.868
10
178.811
20
23.962
97
0
92
2
72
0
73
1
93
14
10
180.003
20
23.968
10
179.852
20
23.9
10
179.726
20
23.727
10
179.726
20
23.465
10
179.832
20
23.272
10
180.045
20
23.126
10
180.355
20
23.079
10
180.522
20
23.09
10
180.699
20
23.192
10
180.781
20
23.349
10
180.793
20
23.496
10
180.679
20
23.761
10
180.554
20
23.874
10
180.403
20
23.942
97
0
92
2
72
0
73
1
93
70
10
176.941
20
22.215
10
177.118
20
22.209
10
177.271
20
22.143
10
177.623
20
21.779
10
177.956
20
21.555
10
179.38
20
20.95
10
179.712
20
21.055
10
180.91
20
21.588
10
181.177
20
21.779
10
181.483
20
22.11
10
181.594
20
22.177
10
181.768
20
22.223
10
181.947
20
22.183
10
182.052
20
22.01
10
182.058
20
21.777
10
182.191
20
21.672
10
182.259
20
21.561
10
182.257
20
21.356
10
182.171
20
21.242
10
181.949
20
21.147
10
181.608
20
21.149
10
181.199
20
21.081
10
180.25
20
20.677
10
180.216
20
20.612
10
180.263
20
20.54
10
181.139
20
20.162
10
181.569
20
20.074
10
182.014
20
20.062
10
182.171
20
19.981
10
182.257
20
19.867
10
182.257
20
19.665
10
182.191
20
19.551
10
182.058
20
19.446
10
182.026
20
19.139
10
181.875
20
19.012
10
181.768
20
19
10
181.594
20
19.046
10
181.463
20
19.133
10
181.157
20
19.464
10
180.95
20
19.615
10
179.533
20
20.247
10
179.36
20
20.273
10
177.85
20
19.615
10
177.643
20
19.464
10
177.337
20
19.133
10
177.206
20
19.046
10
177.032
20
19
10
176.855
20
19.042
10
176.748
20
19.213
10
176.742
20
19.446
10
176.609
20
19.551
10
176.543
20
19.665
10
176.543
20
19.867
10
176.629
20
19.981
10
176.786
20
20.062
10
177.231
20
20.074
10
177.661
20
20.162
10
178.537
20
20.54
10
178.584
20
20.612
10
178.55
20
20.677
10
177.601
20
21.081
10
177.192
20
21.149
10
176.851
20
21.147
10
176.629
20
21.242
10
176.543
20
21.356
10
176.541
20
21.561
10
176.609
20
21.672
10
176.742
20
21.777
10
176.734
20
21.925
10
176.794
20
22.124
97
0
75
0
76
1
98
1
10
0
20
0
0
LWPOLYLINE
5
12A
100
AcDbEntity
8
CUT
100
AcDbPolyline
90
27
70
1
10
191.2
20
31
10
202.2
20
31
10
203.819
20
30.914
10
205.309
20
30.66
10
206.682
20
30.241
10
207.95
20
29.66
10
209.124
20
28.922
10
210.216
20
28.03
10
211.237
20
26.988
10
212.2
20
25.8
10
211.237
20
24.612
10
210.216
20
23.57
10
209.124
20
22.678
10
207.95
20
21.94
10
206.682
20
21.359
10
205.309
20
20.94
10
203.819
20
20.686
10
202.2
20
20.6
10
191.2
20
20.6
10
190.413
20
21.047
10
189.85
20
22.225
10
189.513
20
23.891
10
189.4
20
25.8
10
189.513
20
27.709
10
189.85
20
29.375
10
190.413
20
30.553
10
191.2
20
31
0
LWPOLYLINE
5
12B
100
AcDbEntity
8
CUT
100
AcDbPolyline
90
4
70
1
10
194.1
20
29.3
10
197.3
20
29.3
10
197.3
20
22.3
10
194.1
20
22.3
0
LWPOLYLINE
5
12C
100
AcDbEntity
8
CUT
100
AcDbPolyline
90
4
70
1
10
202.1
20
29.3
10
205.3
20
29.3
10
205.3
20
22.3
10
202.1
20
22.3
0
HATCH
5
12D
100
AcDbEntity
8
RASTER
100
AcDbHatch
10
0
20
0
30
0
210
0
220
0
230
1
2
SOLID
70
1
71
0
91
1
92
2
72
0
73
1
93
4
10
191.4
20
29.02
10
207.9
20
29.02
10
207.9
20
28.58
10
191.4
20
28.58
97
0
75
0
76
1
98
1
10
0
20
0
0
HATCH
5
12E
100
AcDbEntity
8
RASTER
100
AcDbHatch
10
0
20
0
30
0
210
0
220
0
230
1
2
SOLID
70
1
71
0
91
1
92
2
72
0
73
1
93
4
10
191.4
20
26.02
10
207.9
20
26.02
10
207.9
20
25.58
10
191.4
20
25.58
97
0
75
0
76
1
98
1
10
0
20
0
0
HATCH
5
12F
100
AcDbEntity
8
RASTER
100
AcDbHatch
10
0
20
0
30
0
210
0
220
0
230
1
2
SOLID
70
1
71
0
91
1
92
2
72
0
73
1
93
4
10
191.4
20
23.02
10
207.9
20
23.02
10
207.9
20
22.58
10
191.4
20
22.58
97
0
75
0
76
1
98
1
10
0
20
0
0
HATCH
5
130
100
AcDbEntity
8
RASTER
100
AcDbHatch
10
0
20
0
30
0
210
0
220
0
230
1
2
SOLID
70
1
71
0
91
1
92
2
72
0
73
1
93
4
10
189.8
20
26.1
10
191.4
20
26.1
10
191.4
20
25.5
10
189.8
20
25.5
97
0
75
0
76
1
98
1
10
0
20
0
0
LWPOLYLINE
5
131
100
AcDbEntity
8
CUT
100
AcDbPolyline
90
18
70
1
10
222.4
20
31
10
225
20
31
10
225
20
29
10
231.2
20
29
10
231.2
20
16
10
228.4
20
14.4
10
225
20
13.6
10
225
20
10
10
227.05
20
10
10
227.05
20
4
10
220.35
20
4
10
220.35
20
10
10
222.4
20
10
10
222.4
20
13.6
10
217.7
20
14.4
10
216.2
20
16
10
216.2
20
29
10
222.4
20
29
0
HATCH
5
132
100
AcDbEntity
8
RASTER
100
AcDbHatch
10
0
20
0
30
0
210
0
220
0
230
1
2
SOLID
70
1
71
0
91
1
92
2
72
0
73
1
93
4
10
216.2
20
28.4
10
231.2
20
28.4
10
231.2
20
27.9
10
216.2
20
27.9
97
0
75
0
76
1
98
1
10
0
20
0
0
HATCH
5
133
100
AcDbEntity
8
RASTER
100
AcDbHatch
10
0
20
0
30
0
210
0
220
0
230
1
2
SOLID
70
1
71
0
91
4
92
2
72
0
73
1
93
45
10
223.383
20
26.59
10
223.951
20
26.6
10
224.637
20
26.482
10
225.057
20
26.324
10
225.492
20
26.055
10
225.743
20
25.828
10
226.08
20
25.311
10
226.324
20
24.675
10
226.414
20
24.162
10
226.349
20
23.599
10
225.929
20
22.687
10
225.912
20
22.403
10
226.012
20
21.976
10
225.937
20
21.699
10
225.811
20
21.574
10
225.62
20
21.488
10
224.884
20
21.37
10
224.781
20
21.197
10
224.856
20
20.719
10
224.813
20
20.561
10
224.494
20
20.378
10
223.876
20
20.267
10
223.499
20
20.267
10
223.064
20
20.335
10
222.645
20
20.493
10
222.544
20
20.594
10
222.519
20
20.694
10
222.594
20
21.096
10
222.562
20
21.315
10
222.401
20
21.405
10
221.775
20
21.483
10
221.496
20
21.632
10
221.388
20
21.901
10
221.406
20
22.159
10
221.488
20
22.428
10
221.448
20
22.715
10
221.144
20
23.315
10
220.986
20
23.861
10
220.986
20
24.288
10
221.076
20
24.725
10
221.32
20
25.336
10
221.581
20
25.753
10
222.019
20
26.145
10
222.426
20
26.366
10
222.861
20
26.51
97
0
92
2
72
0
73
1
93
15
10
222.627
20
23.275
10
222.268
20
23.182
10
222.109
20
23.064
10
221.951
20
22.795
10
221.918
20
22.607
10
221.974
20
22.411
10
222.084
20
22.27
10
222.283
20
22.167
10
222.72
20
22.177
10
222.936
20
22.237
10
223.13
20
22.37
10
223.288
20
22.665
10
223.283
20
22.941
10
223.165
20
23.15
10
222.956
20
23.268
97
0
92
2
72
0
73
1
93
14
10
224.461
20
23.275
10
224.27
20
23.19
10
224.112
20
22.971
10
224.112
20
22.639
10
224.245
20
22.396
10
224.514
20
22.212
10
224.906
20
22.152
10
225.117
20
22.167
10
225.341
20
22.295
10
225.444
20
22.494
10
225.459
20
22.68
10
225.316
20
23.014
10
225.158
20
23.157
10
224.967
20
23.243
97
0
92
2
72
0
73
1
93
70
10
220.594
20
21.061
10
220.817
20
21.054
10
221.011
20
20.971
10
221.456
20
20.511
10
221.875
20
20.227
10
223.675
20
19.463
10
224.095
20
19.596
10
225.607
20
20.27
10
225.944
20
20.511
10
226.331
20
20.928
10
226.472
20
21.013
10
226.691
20
21.071
10
226.917
20
21.021
10
227.05
20
20.802
10
227.057
20
20.508
10
227.226
20
20.375
10
227.311
20
20.234
10
227.309
20
19.975
10
227.201
20
19.832
10
226.919
20
19.712
10
226.49
20
19.714
10
225.972
20
19.629
10
224.773
20
19.119
10
224.73
20
19.036
10
224.791
20
18.945
10
225.896
20
18.468
10
226.439
20
18.357
10
227.002
20
18.342
10
227.201
20
18.239
10
227.309
20
18.096
10
227.309
20
17.839
10
227.226
20
17.696
10
227.057
20
17.563
10
227.017
20
17.176
10
226.826
20
17.015
10
226.691
20
17
10
226.472
20
17.058
10
226.306
20
17.168
10
225.919
20
17.586
10
225.658
20
17.777
10
223.868
20
18.576
10
223.65
20
18.608
10
221.742
20
17.777
10
221.481
20
17.586
10
221.094
20
17.168
10
220.928
20
17.058
10
220.709
20
17
10
220.486
20
17.053
10
220.35
20
17.269
10
220.343
20
17.563
10
220.174
20
17.696
10
220.091
20
17.839
10
220.091
20
18.096
10
220.199
20
18.239
10
220.398
20
18.342
10
220.961
20
18.357
10
221.504
20
18.468
10
222.609
20
18.945
10
222.67
20
19.036
10
222.627
20
19.119
10
221.428
20
19.629
10
220.91
20
19.714
10
220.481
20
19.712
10
220.199
20
19.832
10
220.091
20
19.975
10
220.089
20
20.234
10
220.174
20
20.375
10
220.343
20
20.508
10
220.332
20
20.694
10
220.408
20
20.946
97
0
75
0
76
1
98
1
10
0
20
0
0
LWPOLYLINE
5
134
100
AcDbEntity
8
CUT
100
AcDbPolyline
90
18
70
1
10
239.9
20
31
10
242.5
20
31
10
242.5
20
29
10
247.2
20
29
10
247.2
20
18
10
244.4
20
16.4
10
242.5
20
15.6
10
242.5
20
12
10
244.55
20
12
10
244.55
20
6
10
237.85
20
6
10
237.85
20
12
10
239.9
20
12
10
239.9
20
15.6
10
236.7
20
16.4
10
235.2
20
18
10
235.2
20
29
10
239.9
20
29
0
HATCH
5
135
100
AcDbEntity
8
RASTER
100
AcDbHatch
10
0
20
0
30
0
210
0
220
0
230
1
2
SOLID
70
1
71
0
91
1
92
2
72
0
73
1
93
4
10
235.2
20
28.4
10
247.2
20
28.4
10
247.2
20
27.9
10
235.2
20
27.9
97
0
75
0
76
1
98
1
10
0
20
0
0
HATCH
5
136
100
AcDbEntity
8
RASTER
100
AcDbHatch
10
0
20
0
30
0
210
0
220
0
230
1
2
SOLID
70
1
71
0
91
4
92
2
72
0
73
1
93
45
10
240.949
20
26.592
10
241.399
20
26.6
10
241.942
20
26.506
10
242.274
20
26.381
10
242.619
20
26.168
10
242.817
20
25.989
10
243.084
20
25.579
10
243.277
20
25.076
10
243.349
20
24.67
10
243.297
20
24.225
10
242.965
20
23.502
10
242.951
20
23.277
10
243.03
20
22.939
10
242.971
20
22.72
10
242.871
20
22.621
10
242.72
20
22.553
10
242.137
20
22.46
10
242.055
20
22.323
10
242.115
20
21.945
10
242.081
20
21.819
10
241.829
20
21.674
10
241.339
20
21.586
10
241.041
20
21.586
10
240.697
20
21.64
10
240.364
20
21.765
10
240.285
20
21.845
10
240.265
20
21.925
10
240.325
20
22.243
10
240.299
20
22.416
10
240.171
20
22.488
10
239.676
20
22.549
10
239.455
20
22.667
10
239.37
20
22.88
10
239.384
20
23.085
10
239.449
20
23.297
10
239.417
20
23.524
10
239.177
20
24
10
239.051
20
24.431
10
239.051
20
24.77
10
239.123
20
25.116
10
239.316
20
25.599
10
239.523
20
25.93
10
239.869
20
26.24
10
240.191
20
26.415
10
240.535
20
26.528
97
0
92
2
72
0
73
1
93
15
10
240.35
20
23.968
10
240.066
20
23.894
10
239.941
20
23.801
10
239.815
20
23.588
10
239.789
20
23.439
10
239.833
20
23.283
10
239.921
20
23.172
10
240.078
20
23.09
10
240.424
20
23.098
10
240.595
20
23.146
10
240.748
20
23.252
10
240.874
20
23.484
10
240.87
20
23.703
10
240.776
20
23.868
10
240.611
20
23.962
97
0
92
2
72
0
73
1
93
14
10
241.803
20
23.968
10
241.652
20
23.9
10
241.526
20
23.727
10
241.526
20
23.465
10
241.632
20
23.272
10
241.845
20
23.126
10
242.155
20
23.079
10
242.322
20
23.09
10
242.499
20
23.192
10
242.581
20
23.349
10
242.593
20
23.496
10
242.479
20
23.761
10
242.354
20
23.874
10
242.203
20
23.942
97
0
92
2
72
0
73
1
93
70
10
238.741
20
22.215
10
238.918
20
22.209
10
239.071
20
22.143
10
239.423
20
21.779
10
239.756
20
21.555
10
241.18
20
20.95
10
241.512
20
21.055
10
242.71
20
21.588
10
242.977
20
21.779
10
243.283
20
22.11
10
243.394
20
22.177
10
243.568
20
22.223
10
243.747
20
22.183
10
243.852
20
22.01
10
243.858
20
21.777
10
243.991
20
21.672
10
244.059
20
21.561
10
244.057
20
21.356
10
243.971
20
21.242
10
243.749
20
21.147
10
243.408
20
21.149
10
242.999
20
21.081
10
242.05
20
20.677
10
242.016
20
20.612
10
242.063
20
20.54
10
242.939
20
20.162
10
243.369
20
20.074
10
243.814
20
20.062
10
243.971
20
19.981
10
244.057
20
19.867
10
244.057
20
19.665
10
243.991
20
19.551
10
243.858
20
19.446
10
243.826
20
19.139
10
243.675
20
19.012
10
243.568
20
19
10
243.394
20
19.046
10
243.263
20
19.133
10
242.957
20
19.464
10
242.75
20
19.615
10
241.333
20
20.247
10
241.16
20
20.273
10
239.65
20
19.615
10
239.443
20
19.464
10
239.137
20
19.133
10
239.006
20
19.046
10
238.832
20
19
10
238.655
20
19.042
10
238.548
20
19.213
10
238.542
20
19.446
10
238.409
20
19.551
10
238.343
20
19.665
10
238.343
20
19.867
10
238.429
20
19.981
10
238.586
20
20.062
10
239.031
20
20.074
10
239.461
20
20.162
10
240.337
20
20.54
10
240.384
20
20.612
10
240.35
20
20.677
10
239.401
20
21.081
10
238.992
20
21.149
10
238.651
20
21.147
10
238.429
20
21.242
10
238.343
20
21.356
10
238.341
20
21.561
10
238.409
20
21.672
10
238.542
20
21.777
10
238.534
20
21.925
10
238.594
20
22.124
97
0
75
0
76
1
98
1
10
0
20
0
0
ENDSEC
0
EOF
