0
SECTION
2
HEADER
9
$ACADVER
1
AC1009
9
$EXTMIN
10
0
20
0
9
$EXTMAX
10
240.5
20
38
0
ENDSEC
0
SECTION
2
TABLES
0
TABLE
2
LAYER
70
2
0
LAYER
2
CUT
70
0
62
1
6
CONTINUOUS
0
LAYER
2
RASTER
70
0
62
7
6
CONTINUOUS
0
ENDTAB
0
ENDSEC
0
SECTION
2
ENTITIES
0
POLYLINE
8
CUT
66
1
70
1
0
VERTEX
8
CUT
10
6.325
20
34
30
0
0
VERTEX
8
CUT
10
17.125
20
34
30
0
0
VERTEX
8
CUT
10
18.742
20
33.899
30
0
0
VERTEX
8
CUT
10
20.219
20
33.605
30
0
0
VERTEX
8
CUT
10
21.555
20
33.13
30
0
0
VERTEX
8
CUT
10
22.75
20
32.487
30
0
0
VERTEX
8
CUT
10
23.805
20
31.69
30
0
0
VERTEX
8
CUT
10
24.719
20
30.752
30
0
0
VERTEX
8
CUT
10
25.492
20
29.684
30
0
0
VERTEX
8
CUT
10
26.125
20
28.5
30
0
0
VERTEX
8
CUT
10
25.492
20
27.316
30
0
0
VERTEX
8
CUT
10
24.719
20
26.248
30
0
0
VERTEX
8
CUT
10
23.805
20
25.31
30
0
0
VERTEX
8
CUT
10
22.75
20
24.513
30
0
0
VERTEX
8
CUT
10
21.555
20
23.87
30
0
0
VERTEX
8
CUT
10
20.219
20
23.395
30
0
0
VERTEX
8
CUT
10
18.742
20
23.101
30
0
0
VERTEX
8
CUT
10
17.125
20
23
30
0
0
VERTEX
8
CUT
10
6.325
20
23
30
0
0
VERTEX
8
CUT
10
5.308
20
23.473
30
0
0
VERTEX
8
CUT
10
4.581
20
24.719
30
0
0
VERTEX
8
CUT
10
4.145
20
26.48
30
0
0
VERTEX
8
CUT
10
4
20
28.5
30
0
0
VERTEX
8
CUT
10
4.145
20
30.52
30
0
0
VERTEX
8
CUT
10
4.581
20
32.281
30
0
0
VERTEX
8
CUT
10
5.308
20
33.527
30
0
0
VERTEX
8
CUT
10
6.325
20
34
30
0
0
SEQEND
8
CUT
0
POLYLINE
8
CUT
66
1
70
1
0
VERTEX
8
CUT
10
8.125
20
30.1
30
0
0
VERTEX
8
CUT
10
13.625
20
30.1
30
0
0
VERTEX
8
CUT
10
13.625
20
26.9
30
0
0
VERTEX
8
CUT
10
8.125
20
26.9
30
0
0
SEQEND
8
CUT
0
POLYLINE
8
CUT
66
1
70
1
0
VERTEX
8
CUT
10
15.625
20
30.1
30
0
0
VERTEX
8
CUT
10
21.125
20
30.1
30
0
0
VERTEX
8
CUT
10
21.125
20
26.9
30
0
0
VERTEX
8
CUT
10
15.625
20
26.9
30
0
0
SEQEND
8
CUT
0
POLYLINE
8
RASTER
66
1
70
1
0
VERTEX
8
RASTER
10
6.625
20
31.83
30
0
0
VERTEX
8
RASTER
10
21.625
20
31.83
30
0
0
VERTEX
8
RASTER
10
21.625
20
31.33
30
0
0
VERTEX
8
RASTER
10
6.625
20
31.33
30
0
0
SEQEND
8
RASTER
0
POLYLINE
8
RASTER
66
1
70
1
0
VERTEX
8
RASTER
10
6.625
20
25.67
30
0
0
VERTEX
8
RASTER
10
21.625
20
25.67
30
0
0
VERTEX
8
RASTER
10
21.625
20
25.17
30
0
0
VERTEX
8
RASTER
10
6.625
20
25.17
30
0
0
SEQEND
8
RASTER
0
POLYLINE
8
RASTER
66
1
70
1
0
VERTEX
8
RASTER
10
5.325
20
28.8
30
0
0
VERTEX
8
RASTER
10
7.125
20
28.8
30
0
0
VERTEX
8
RASTER
10
7.125
20
28.2
30
0
0
VERTEX
8
RASTER
10
5.325
20
28.2
30
0
0
SEQEND
8
RASTER
0
POLYLINE
8
CUT
66
1
70
1
0
VERTEX
8
CUT
10
30.125
20
34
30
0
0
VERTEX
8
CUT
10
32.125
20
34
30
0
0
VERTEX
8
CUT
10
32.125
20
30
30
0
0
VERTEX
8
CUT
10
44.125
20
16
30
0
0
VERTEX
8
CUT
10
32.125
20
14
30
0
0
VERTEX
8
CUT
10
32.125
20
10
30
0
0
VERTEX
8
CUT
10
37.425
20
10
30
0
0
VERTEX
8
CUT
10
37.425
20
4
30
0
0
VERTEX
8
CUT
10
32.125
20
4
30
0
0
VERTEX
8
CUT
10
30.125
20
4
30
0
0
SEQEND
8
CUT
0
CIRCLE
8
RASTER
10
37.475
20
22
30
0
40
1.494
0
POLYLINE
8
CUT
66
1
70
1
0
VERTEX
8
CUT
10
48.125
20
34
30
0
0
VERTEX
8
CUT
10
50.125
20
34
30
0
0
VERTEX
8
CUT
10
50.125
20
32
30
0
0
VERTEX
8
CUT
10
59.125
20
19.5
30
0
0
VERTEX
8
CUT
10
50.125
20
18.5
30
0
0
VERTEX
8
CUT
10
50.125
20
16
30
0
0
VERTEX
8
CUT
10
55.425
20
16
30
0
0
VERTEX
8
CUT
10
55.425
20
10
30
0
0
VERTEX
8
CUT
10
50.125
20
10
30
0
0
VERTEX
8
CUT
10
48.125
20
10
30
0
0
SEQEND
8
CUT
0
CIRCLE
8
RASTER
10
54.325
20
25.25
30
0
40
1.08
0
POLYLINE
8
CUT
66
1
70
1
0
VERTEX
8
CUT
10
65.45
20
34
30
0
0
VERTEX
8
CUT
10
76.25
20
34
30
0
0
VERTEX
8
CUT
10
77.867
20
33.899
30
0
0
VERTEX
8
CUT
10
79.344
20
33.605
30
0
0
VERTEX
8
CUT
10
80.68
20
33.13
30
0
0
VERTEX
8
CUT
10
81.875
20
32.487
30
0
0
VERTEX
8
CUT
10
82.93
20
31.69
30
0
0
VERTEX
8
CUT
10
83.844
20
30.752
30
0
0
VERTEX
8
CUT
10
84.617
20
29.684
30
0
0
VERTEX
8
CUT
10
85.25
20
28.5
30
0
0
VERTEX
8
CUT
10
84.617
20
27.316
30
0
0
VERTEX
8
CUT
10
83.844
20
26.248
30
0
0
VERTEX
8
CUT
10
82.93
20
25.31
30
0
0
VERTEX
8
CUT
10
81.875
20
24.513
30
0
0
VERTEX
8
CUT
10
80.68
20
23.87
30
0
0
VERTEX
8
CUT
10
79.344
20
23.395
30
0
0
VERTEX
8
CUT
10
77.867
20
23.101
30
0
0
VERTEX
8
CUT
10
76.25
20
23
30
0
0
VERTEX
8
CUT
10
65.45
20
23
30
0
0
VERTEX
8
CUT
10
64.433
20
23.473
30
0
0
VERTEX
8
CUT
10
63.706
20
24.719
30
0
0
VERTEX
8
CUT
10
63.27
20
26.48
30
0
0
VERTEX
8
CUT
10
63.125
20
28.5
30
0
0
VERTEX
8
CUT
10
63.27
20
30.52
30
0
0
VERTEX
8
CUT
10
63.706
20
32.281
30
0
0
VERTEX
8
CUT
10
64.433
20
33.527
30
0
0
VERTEX
8
CUT
10
65.45
20
34
30
0
0
SEQEND
8
CUT
0
POLYLINE
8
CUT
66
1
70
1
0
VERTEX
8
CUT
10
67.25
20
30.1
30
0
0
VERTEX
8
CUT
10
72.75
20
30.1
30
0
0
VERTEX
8
CUT
10
72.75
20
26.9
30
0
0
VERTEX
8
CUT
10
67.25
20
26.9
30
0
0
SEQEND
8
CUT
0
POLYLINE
8
CUT
66
1
70
1
0
VERTEX
8
CUT
10
74.75
20
30.1
30
0
0
VERTEX
8
CUT
10
80.25
20
30.1
30
0
0
VERTEX
8
CUT
10
80.25
20
26.9
30
0
0
VERTEX
8
CUT
10
74.75
20
26.9
30
0
0
SEQEND
8
CUT
0
POLYLINE
8
RASTER
66
1
70
1
0
VERTEX
8
RASTER
10
65.75
20
31.83
30
0
0
VERTEX
8
RASTER
10
80.75
20
31.83
30
0
0
VERTEX
8
RASTER
10
80.75
20
31.33
30
0
0
VERTEX
8
RASTER
10
65.75
20
31.33
30
0
0
SEQEND
8
RASTER
0
POLYLINE
8
RASTER
66
1
70
1
0
VERTEX
8
RASTER
10
65.75
20
25.67
30
0
0
VERTEX
8
RASTER
10
80.75
20
25.67
30
0
0
VERTEX
8
RASTER
10
80.75
20
25.17
30
0
0
VERTEX
8
RASTER
10
65.75
20
25.17
30
0
0
SEQEND
8
RASTER
0
POLYLINE
8
RASTER
66
1
70
1
0
VERTEX
8
RASTER
10
64.45
20
28.8
30
0
0
VERTEX
8
RASTER
10
66.25
20
28.8
30
0
0
VERTEX
8
RASTER
10
66.25
20
28.2
30
0
0
VERTEX
8
RASTER
10
64.45
20
28.2
30
0
0
SEQEND
8
RASTER
0
POLYLINE
8
CUT
66
1
70
1
0
VERTEX
8
CUT
10
89.25
20
34
30
0
0
VERTEX
8
CUT
10
91.25
20
34
30
0
0
VERTEX
8
CUT
10
91.25
20
30
30
0
0
VERTEX
8
CUT
10
103.25
20
16
30
0
0
VERTEX
8
CUT
10
91.25
20
14
30
0
0
VERTEX
8
CUT
10
91.25
20
10
30
0
0
VERTEX
8
CUT
10
96.55
20
10
30
0
0
VERTEX
8
CUT
10
96.55
20
4
30
0
0
VERTEX
8
CUT
10
91.25
20
4
30
0
0
VERTEX
8
CUT
10
89.25
20
4
30
0
0
SEQEND
8
CUT
0
POLYLINE
8
RASTER
66
1
70
1
0
VERTEX
8
RASTER
10
92.95
20
25.8
30
0
0
VERTEX
8
RASTER
10
93.85
20
25.8
30
0
0
VERTEX
8
RASTER
10
93.85
20
24.9
30
0
0
VERTEX
8
RASTER
10
92.95
20
24.9
30
0
0
SEQEND
8
RASTER
0
POLYLINE
8
RASTER
66
1
70
1
0
VERTEX
8
RASTER
10
92.95
20
23.6
30
0
0
VERTEX
8
RASTER
10
93.85
20
23.6
30
0
0
VERTEX
8
RASTER
10
93.85
20
22.7
30
0
0
VERTEX
8
RASTER
10
92.95
20
22.7
30
0
0
SEQEND
8
RASTER
0
POLYLINE
8
RASTER
66
1
70
1
0
VERTEX
8
RASTER
10
94.05
20
23.6
30
0
0
VERTEX
8
RASTER
10
94.95
20
23.6
30
0
0
VERTEX
8
RASTER
10
94.95
20
22.7
30
0
0
VERTEX
8
RASTER
10
94.05
20
22.7
30
0
0
SEQEND
8
RASTER
0
POLYLINE
8
RASTER
66
1
70
1
0
VERTEX
8
RASTER
10
92.95
20
21.4
30
0
0
VERTEX
8
RASTER
10
93.85
20
21.4
30
0
0
VERTEX
8
RASTER
10
93.85
20
20.5
30
0
0
VERTEX
8
RASTER
10
92.95
20
20.5
30
0
0
SEQEND
8
RASTER
0
POLYLINE
8
RASTER
66
1
70
1
0
VERTEX
8
RASTER
10
94.05
20
21.4
30
0
0
VERTEX
8
RASTER
10
94.95
20
21.4
30
0
0
VERTEX
8
RASTER
10
94.95
20
20.5
30
0
0
VERTEX
8
RASTER
10
94.05
20
20.5
30
0
0
SEQEND
8
RASTER
0
POLYLINE
8
RASTER
66
1
70
1
0
VERTEX
8
RASTER
10
95.15
20
21.4
30
0
0
VERTEX
8
RASTER
10
96.05
20
21.4
30
0
0
VERTEX
8
RASTER
10
96.05
20
20.5
30
0
0
VERTEX
8
RASTER
10
95.15
20
20.5
30
0
0
SEQEND
8
RASTER
0
POLYLINE
8
RASTER
66
1
70
1
0
VERTEX
8
RASTER
10
96.25
20
21.4
30
0
0
VERTEX
8
RASTER
10
97.15
20
21.4
30
0
0
VERTEX
8
RASTER
10
97.15
20
20.5
30
0
0
VERTEX
8
RASTER
10
96.25
20
20.5
30
0
0
SEQEND
8
RASTER
0
POLYLINE
8
RASTER
66
1
70
1
0
VERTEX
8
RASTER
10
92.95
20
19.2
30
0
0
VERTEX
8
RASTER
10
93.85
20
19.2
30
0
0
VERTEX
8
RASTER
10
93.85
20
18.3
30
0
0
VERTEX
8
RASTER
10
92.95
20
18.3
30
0
0
SEQEND
8
RASTER
0
POLYLINE
8
RASTER
66
1
70
1
0
VERTEX
8
RASTER
10
94.05
20
19.2
30
0
0
VERTEX
8
RASTER
10
94.95
20
19.2
30
0
0
VERTEX
8
RASTER
10
94.95
20
18.3
30
0
0
VERTEX
8
RASTER
10
94.05
20
18.3
30
0
0
SEQEND
8
RASTER
0
POLYLINE
8
RASTER
66
1
70
1
0
VERTEX
8
RASTER
10
95.15
20
19.2
30
0
0
VERTEX
8
RASTER
10
96.05
20
19.2
30
0
0
VERTEX
8
RASTER
10
96.05
20
18.3
30
0
0
VERTEX
8
RASTER
10
95.15
20
18.3
30
0
0
SEQEND
8
RASTER
0
POLYLINE
8
RASTER
66
1
70
1
0
VERTEX
8
RASTER
10
96.25
20
19.2
30
0
0
VERTEX
8
RASTER
10
97.15
20
19.2
30
0
0
VERTEX
8
RASTER
10
97.15
20
18.3
30
0
0
VERTEX
8
RASTER
10
96.25
20
18.3
30
0
0
SEQEND
8
RASTER
0
POLYLINE
8
RASTER
66
1
70
1
0
VERTEX
8
RASTER
10
97.35
20
19.2
30
0
0
VERTEX
8
RASTER
10
98.25
20
19.2
30
0
0
VERTEX
8
RASTER
10
98.25
20
18.3
30
0
0
VERTEX
8
RASTER
10
97.35
20
18.3
30
0
0
SEQEND
8
RASTER
0
POLYLINE
8
RASTER
66
1
70
1
0
VERTEX
8
RASTER
10
92.95
20
17
30
0
0
VERTEX
8
RASTER
10
93.85
20
17
30
0
0
VERTEX
8
RASTER
10
93.85
20
16.1
30
0
0
VERTEX
8
RASTER
10
92.95
20
16.1
30
0
0
SEQEND
8
RASTER
0
POLYLINE
8
RASTER
66
1
70
1
0
VERTEX
8
RASTER
10
94.05
20
17
30
0
0
VERTEX
8
RASTER
10
94.95
20
17
30
0
0
VERTEX
8
RASTER
10
94.95
20
16.1
30
0
0
VERTEX
8
RASTER
10
94.05
20
16.1
30
0
0
SEQEND
8
RASTER
0
POLYLINE
8
CUT
66
1
70
1
0
VERTEX
8
CUT
10
107.25
20
34
30
0
0
VERTEX
8
CUT
10
109.25
20
34
30
0
0
VERTEX
8
CUT
10
109.25
20
32
30
0
0
VERTEX
8
CUT
10
118.25
20
19.5
30
0
0
VERTEX
8
CUT
10
109.25
20
18.5
30
0
0
VERTEX
8
CUT
10
109.25
20
16
30
0
0
VERTEX
8
CUT
10
114.55
20
16
30
0
0
VERTEX
8
CUT
10
114.55
20
10
30
0
0
VERTEX
8
CUT
10
109.25
20
10
30
0
0
VERTEX
8
CUT
10
107.25
20
10
30
0
0
SEQEND
8
CUT
0
POLYLINE
8
RASTER
66
1
70
1
0
VERTEX
8
RASTER
10
110.95
20
27.8
30
0
0
VERTEX
8
RASTER
10
111.85
20
27.8
30
0
0
VERTEX
8
RASTER
10
111.85
20
26.9
30
0
0
VERTEX
8
RASTER
10
110.95
20
26.9
30
0
0
SEQEND
8
RASTER
0
POLYLINE
8
RASTER
66
1
70
1
0
VERTEX
8
RASTER
10
110.95
20
25.6
30
0
0
VERTEX
8
RASTER
10
111.85
20
25.6
30
0
0
VERTEX
8
RASTER
10
111.85
20
24.7
30
0
0
VERTEX
8
RASTER
10
110.95
20
24.7
30
0
0
SEQEND
8
RASTER
0
POLYLINE
8
RASTER
66
1
70
1
0
VERTEX
8
RASTER
10
112.05
20
25.6
30
0
0
VERTEX
8
RASTER
10
112.95
20
25.6
30
0
0
VERTEX
8
RASTER
10
112.95
20
24.7
30
0
0
VERTEX
8
RASTER
10
112.05
20
24.7
30
0
0
SEQEND
8
RASTER
0
POLYLINE
8
RASTER
66
1
70
1
0
VERTEX
8
RASTER
10
110.95
20
23.4
30
0
0
VERTEX
8
RASTER
10
111.85
20
23.4
30
0
0
VERTEX
8
RASTER
10
111.85
20
22.5
30
0
0
VERTEX
8
RASTER
10
110.95
20
22.5
30
0
0
SEQEND
8
RASTER
0
POLYLINE
8
RASTER
66
1
70
1
0
VERTEX
8
RASTER
10
112.05
20
23.4
30
0
0
VERTEX
8
RASTER
10
112.95
20
23.4
30
0
0
VERTEX
8
RASTER
10
112.95
20
22.5
30
0
0
VERTEX
8
RASTER
10
112.05
20
22.5
30
0
0
SEQEND
8
RASTER
0
POLYLINE
8
RASTER
66
1
70
1
0
VERTEX
8
RASTER
10
113.15
20
23.4
30
0
0
VERTEX
8
RASTER
10
114.05
20
23.4
30
0
0
VERTEX
8
RASTER
10
114.05
20
22.5
30
0
0
VERTEX
8
RASTER
10
113.15
20
22.5
30
0
0
SEQEND
8
RASTER
0
POLYLINE
8
RASTER
66
1
70
1
0
VERTEX
8
RASTER
10
110.95
20
21.2
30
0
0
VERTEX
8
RASTER
10
111.85
20
21.2
30
0
0
VERTEX
8
RASTER
10
111.85
20
20.3
30
0
0
VERTEX
8
RASTER
10
110.95
20
20.3
30
0
0
SEQEND
8
RASTER
0
POLYLINE
8
RASTER
66
1
70
1
0
VERTEX
8
RASTER
10
112.05
20
21.2
30
0
0
VERTEX
8
RASTER
10
112.95
20
21.2
30
0
0
VERTEX
8
RASTER
10
112.95
20
20.3
30
0
0
VERTEX
8
RASTER
10
112.05
20
20.3
30
0
0
SEQEND
8
RASTER
0
POLYLINE
8
RASTER
66
1
70
1
0
VERTEX
8
RASTER
10
113.15
20
21.2
30
0
0
VERTEX
8
RASTER
10
114.05
20
21.2
30
0
0
VERTEX
8
RASTER
10
114.05
20
20.3
30
0
0
VERTEX
8
RASTER
10
113.15
20
20.3
30
0
0
SEQEND
8
RASTER
0
POLYLINE
8
CUT
66
1
70
1
0
VERTEX
8
CUT
10
124.575
20
34
30
0
0
VERTEX
8
CUT
10
135.375
20
34
30
0
0
VERTEX
8
CUT
10
136.992
20
33.899
30
0
0
VERTEX
8
CUT
10
138.469
20
33.605
30
0
0
VERTEX
8
CUT
10
139.805
20
33.13
30
0
0
VERTEX
8
CUT
10
141
20
32.487
30
0
0
VERTEX
8
CUT
10
142.055
20
31.69
30
0
0
VERTEX
8
CUT
10
142.969
20
30.752
30
0
0
VERTEX
8
CUT
10
143.742
20
29.684
30
0
0
VERTEX
8
CUT
10
144.375
20
28.5
30
0
0
VERTEX
8
CUT
10
143.742
20
27.316
30
0
0
VERTEX
8
CUT
10
142.969
20
26.248
30
0
0
VERTEX
8
CUT
10
142.055
20
25.31
30
0
0
VERTEX
8
CUT
10
141
20
24.513
30
0
0
VERTEX
8
CUT
10
139.805
20
23.87
30
0
0
VERTEX
8
CUT
10
138.469
20
23.395
30
0
0
VERTEX
8
CUT
10
136.992
20
23.101
30
0
0
VERTEX
8
CUT
10
135.375
20
23
30
0
0
VERTEX
8
CUT
10
124.575
20
23
30
0
0
VERTEX
8
CUT
10
123.558
20
23.473
30
0
0
VERTEX
8
CUT
10
122.831
20
24.719
30
0
0
VERTEX
8
CUT
10
122.395
20
26.48
30
0
0
VERTEX
8
CUT
10
122.25
20
28.5
30
0
0
VERTEX
8
CUT
10
122.395
20
30.52
30
0
0
VERTEX
8
CUT
10
122.831
20
32.281
30
0
0
VERTEX
8
CUT
10
123.558
20
33.527
30
0
0
VERTEX
8
CUT
10
124.575
20
34
30
0
0
SEQEND
8
CUT
0
POLYLINE
8
CUT
66
1
70
1
0
VERTEX
8
CUT
10
126.375
20
30.1
30
0
0
VERTEX
8
CUT
10
131.875
20
30.1
30
0
0
VERTEX
8
CUT
10
131.875
20
26.9
30
0
0
VERTEX
8
CUT
10
126.375
20
26.9
30
0
0
SEQEND
8
CUT
0
POLYLINE
8
CUT
66
1
70
1
0
VERTEX
8
CUT
10
133.875
20
30.1
30
0
0
VERTEX
8
CUT
10
139.375
20
30.1
30
0
0
VERTEX
8
CUT
10
139.375
20
26.9
30
0
0
VERTEX
8
CUT
10
133.875
20
26.9
30
0
0
SEQEND
8
CUT
0
POLYLINE
8
RASTER
66
1
70
1
0
VERTEX
8
RASTER
10
124.875
20
31.83
30
0
0
VERTEX
8
RASTER
10
139.875
20
31.83
30
0
0
VERTEX
8
RASTER
10
139.875
20
31.33
30
0
0
VERTEX
8
RASTER
10
124.875
20
31.33
30
0
0
SEQEND
8
RASTER
0
POLYLINE
8
RASTER
66
1
70
1
0
VERTEX
8
RASTER
10
124.875
20
25.67
30
0
0
VERTEX
8
RASTER
10
139.875
20
25.67
30
0
0
VERTEX
8
RASTER
10
139.875
20
25.17
30
0
0
VERTEX
8
RASTER
10
124.875
20
25.17
30
0
0
SEQEND
8
RASTER
0
POLYLINE
8
RASTER
66
1
70
1
0
VERTEX
8
RASTER
10
123.575
20
28.8
30
0
0
VERTEX
8
RASTER
10
125.375
20
28.8
30
0
0
VERTEX
8
RASTER
10
125.375
20
28.2
30
0
0
VERTEX
8
RASTER
10
123.575
20
28.2
30
0
0
SEQEND
8
RASTER
0
POLYLINE
8
CUT
66
1
70
1
0
VERTEX
8
CUT
10
148.375
20
34
30
0
0
VERTEX
8
CUT
10
150.375
20
34
30
0
0
VERTEX
8
CUT
10
150.375
20
30
30
0
0
VERTEX
8
CUT
10
162.375
20
16
30
0
0
VERTEX
8
CUT
10
150.375
20
14
30
0
0
VERTEX
8
CUT
10
150.375
20
10
30
0
0
VERTEX
8
CUT
10
155.675
20
10
30
0
0
VERTEX
8
CUT
10
155.675
20
4
30
0
0
VERTEX
8
CUT
10
150.375
20
4
30
0
0
VERTEX
8
CUT
10
148.375
20
4
30
0
0
SEQEND
8
CUT
0
CIRCLE
8
RASTER
10
152.525
20
25.35
30
0
40
0.32
0
CIRCLE
8
RASTER
10
152.525
20
24.25
30
0
40
0.32
0
CIRCLE
8
RASTER
10
153.625
20
24.25
30
0
40
0.32
0
CIRCLE
8
RASTER
10
152.525
20
23.15
30
0
40
0.32
0
CIRCLE
8
RASTER
10
153.625
20
23.15
30
0
40
0.32
0
CIRCLE
8
RASTER
10
152.525
20
22.05
30
0
40
0.32
0
CIRCLE
8
RASTER
10
153.625
20
22.05
30
0
40
0.32
0
CIRCLE
8
RASTER
10
154.725
20
22.05
30
0
40
0.32
0
CIRCLE
8
RASTER
10
152.525
20
20.95
30
0
40
0.32
0
CIRCLE
8
RASTER
10
153.625
20
20.95
30
0
40
0.32
0
CIRCLE
8
RASTER
10
154.725
20
20.95
30
0
40
0.32
0
CIRCLE
8
RASTER
10
155.825
20
20.95
30
0
40
0.32
0
CIRCLE
8
RASTER
10
152.525
20
19.85
30
0
40
0.32
0
CIRCLE
8
RASTER
10
153.625
20
19.85
30
0
40
0.32
0
CIRCLE
8
RASTER
10
154.725
20
19.85
30
0
40
0.32
0
CIRCLE
8
RASTER
10
155.825
20
19.85
30
0
40
0.32
0
CIRCLE
8
RASTER
10
156.925
20
19.85
30
0
40
0.32
0
CIRCLE
8
RASTER
10
152.525
20
18.75
30
0
40
0.32
0
CIRCLE
8
RASTER
10
153.625
20
18.75
30
0
40
0.32
0
CIRCLE
8
RASTER
10
154.725
20
18.75
30
0
40
0.32
0
CIRCLE
8
RASTER
10
155.825
20
18.75
30
0
40
0.32
0
CIRCLE
8
RASTER
10
156.925
20
18.75
30
0
40
0.32
0
CIRCLE
8
RASTER
10
152.525
20
17.65
30
0
40
0.32
0
CIRCLE
8
RASTER
10
153.625
20
17.65
30
0
40
0.32
0
CIRCLE
8
RASTER
10
154.725
20
17.65
30
0
40
0.32
0
CIRCLE
8
RASTER
10
155.825
20
17.65
30
0
40
0.32
0
CIRCLE
8
RASTER
10
156.925
20
17.65
30
0
40
0.32
0
CIRCLE
8
RASTER
10
158.025
20
17.65
30
0
40
0.32
0
CIRCLE
8
RASTER
10
152.525
20
16.55
30
0
40
0.32
0
CIRCLE
8
RASTER
10
153.625
20
16.55
30
0
40
0.32
0
POLYLINE
8
CUT
66
1
70
1
0
VERTEX
8
CUT
10
166.375
20
34
30
0
0
VERTEX
8
CUT
10
168.375
20
34
30
0
0
VERTEX
8
CUT
10
168.375
20
32
30
0
0
VERTEX
8
CUT
10
177.375
20
19.5
30
0
0
VERTEX
8
CUT
10
168.375
20
18.5
30
0
0
VERTEX
8
CUT
10
168.375
20
16
30
0
0
VERTEX
8
CUT
10
173.675
20
16
30
0
0
VERTEX
8
CUT
10
173.675
20
10
30
0
0
VERTEX
8
CUT
10
168.375
20
10
30
0
0
VERTEX
8
CUT
10
166.375
20
10
30
0
0
SEQEND
8
CUT
0
CIRCLE
8
RASTER
10
170.525
20
27.35
30
0
40
0.32
0
CIRCLE
8
RASTER
10
170.525
20
26.25
30
0
40
0.32
0
CIRCLE
8
RASTER
10
170.525
20
25.15
30
0
40
0.32
0
CIRCLE
8
RASTER
10
171.625
20
25.15
30
0
40
0.32
0
CIRCLE
8
RASTER
10
170.525
20
24.05
30
0
40
0.32
0
CIRCLE
8
RASTER
10
171.625
20
24.05
30
0
40
0.32
0
CIRCLE
8
RASTER
10
170.525
20
22.95
30
0
40
0.32
0
CIRCLE
8
RASTER
10
171.625
20
22.95
30
0
40
0.32
0
CIRCLE
8
RASTER
10
172.725
20
22.95
30
0
40
0.32
0
CIRCLE
8
RASTER
10
170.525
20
21.85
30
0
40
0.32
0
CIRCLE
8
RASTER
10
171.625
20
21.85
30
0
40
0.32
0
CIRCLE
8
RASTER
10
172.725
20
21.85
30
0
40
0.32
0
CIRCLE
8
RASTER
10
173.825
20
21.85
30
0
40
0.32
0
CIRCLE
8
RASTER
10
170.525
20
20.75
30
0
40
0.32
0
CIRCLE
8
RASTER
10
171.625
20
20.75
30
0
40
0.32
0
CIRCLE
8
RASTER
10
172.725
20
20.75
30
0
40
0.32
0
POLYLINE
8
CUT
66
1
70
1
0
VERTEX
8
CUT
10
183.7
20
34
30
0
0
VERTEX
8
CUT
10
194.5
20
34
30
0
0
VERTEX
8
CUT
10
196.117
20
33.899
30
0
0
VERTEX
8
CUT
10
197.594
20
33.605
30
0
0
VERTEX
8
CUT
10
198.93
20
33.13
30
0
0
VERTEX
8
CUT
10
200.125
20
32.487
30
0
0
VERTEX
8
CUT
10
201.18
20
31.69
30
0
0
VERTEX
8
CUT
10
202.094
20
30.752
30
0
0
VERTEX
8
CUT
10
202.867
20
29.684
30
0
0
VERTEX
8
CUT
10
203.5
20
28.5
30
0
0
VERTEX
8
CUT
10
202.867
20
27.316
30
0
0
VERTEX
8
CUT
10
202.094
20
26.248
30
0
0
VERTEX
8
CUT
10
201.18
20
25.31
30
0
0
VERTEX
8
CUT
10
200.125
20
24.513
30
0
0
VERTEX
8
CUT
10
198.93
20
23.87
30
0
0
VERTEX
8
CUT
10
197.594
20
23.395
30
0
0
VERTEX
8
CUT
10
196.117
20
23.101
30
0
0
VERTEX
8
CUT
10
194.5
20
23
30
0
0
VERTEX
8
CUT
10
183.7
20
23
30
0
0
VERTEX
8
CUT
10
182.683
20
23.473
30
0
0
VERTEX
8
CUT
10
181.956
20
24.719
30
0
0
VERTEX
8
CUT
10
181.52
20
26.48
30
0
0
VERTEX
8
CUT
10
181.375
20
28.5
30
0
0
VERTEX
8
CUT
10
181.52
20
30.52
30
0
0
VERTEX
8
CUT
10
181.956
20
32.281
30
0
0
VERTEX
8
CUT
10
182.683
20
33.527
30
0
0
VERTEX
8
CUT
10
183.7
20
34
30
0
0
SEQEND
8
CUT
0
POLYLINE
8
CUT
66
1
70
1
0
VERTEX
8
CUT
10
185.5
20
30.1
30
0
0
VERTEX
8
CUT
10
191
20
30.1
30
0
0
VERTEX
8
CUT
10
191
20
26.9
30
0
0
VERTEX
8
CUT
10
185.5
20
26.9
30
0
0
SEQEND
8
CUT
0
POLYLINE
8
CUT
66
1
70
1
0
VERTEX
8
CUT
10
193
20
30.1
30
0
0
VERTEX
8
CUT
10
198.5
20
30.1
30
0
0
VERTEX
8
CUT
10
198.5
20
26.9
30
0
0
VERTEX
8
CUT
10
193
20
26.9
30
0
0
SEQEND
8
CUT
0
POLYLINE
8
RASTER
66
1
70
1
0
VERTEX
8
RASTER
10
184
20
31.83
30
0
0
VERTEX
8
RASTER
10
199
20
31.83
30
0
0
VERTEX
8
RASTER
10
199
20
31.33
30
0
0
VERTEX
8
RASTER
10
184
20
31.33
30
0
0
SEQEND
8
RASTER
0
POLYLINE
8
RASTER
66
1
70
1
0
VERTEX
8
RASTER
10
184
20
25.67
30
0
0
VERTEX
8
RASTER
10
199
20
25.67
30
0
0
VERTEX
8
RASTER
10
199
20
25.17
30
0
0
VERTEX
8
RASTER
10
184
20
25.17
30
0
0
SEQEND
8
RASTER
0
POLYLINE
8
RASTER
66
1
70
1
0
VERTEX
8
RASTER
10
182.7
20
28.8
30
0
0
VERTEX
8
RASTER
10
184.5
20
28.8
30
0
0
VERTEX
8
RASTER
10
184.5
20
28.2
30
0
0
VERTEX
8
RASTER
10
182.7
20
28.2
30
0
0
SEQEND
8
RASTER
0
POLYLINE
8
CUT
66
1
70
1
0
VERTEX
8
CUT
10
207.5
20
34
30
0
0
VERTEX
8
CUT
10
209.5
20
34
30
0
0
VERTEX
8
CUT
10
209.5
20
30
30
0
0
VERTEX
8
CUT
10
221.5
20
16
30
0
0
VERTEX
8
CUT
10
209.5
20
14
30
0
0
VERTEX
8
CUT
10
209.5
20
10
30
0
0
VERTEX
8
CUT
10
214.8
20
10
30
0
0
VERTEX
8
CUT
10
214.8
20
4
30
0
0
VERTEX
8
CUT
10
209.5
20
4
30
0
0
VERTEX
8
CUT
10
207.5
20
4
30
0
0
SEQEND
8
CUT
0
POLYLINE
8
RASTER
66
1
70
1
0
VERTEX
8
RASTER
10
211.2
20
25.8
30
0
0
VERTEX
8
RASTER
10
212.1
20
25.8
30
0
0
VERTEX
8
RASTER
10
212.1
20
24.9
30
0
0
VERTEX
8
RASTER
10
211.2
20
24.9
30
0
0
SEQEND
8
RASTER
0
POLYLINE
8
RASTER
66
1
70
1
0
VERTEX
8
RASTER
10
212.3
20
24.7
30
0
0
VERTEX
8
RASTER
10
213.2
20
24.7
30
0
0
VERTEX
8
RASTER
10
213.2
20
23.8
30
0
0
VERTEX
8
RASTER
10
212.3
20
23.8
30
0
0
SEQEND
8
RASTER
0
POLYLINE
8
RASTER
66
1
70
1
0
VERTEX
8
RASTER
10
211.2
20
23.6
30
0
0
VERTEX
8
RASTER
10
212.1
20
23.6
30
0
0
VERTEX
8
RASTER
10
212.1
20
22.7
30
0
0
VERTEX
8
RASTER
10
211.2
20
22.7
30
0
0
SEQEND
8
RASTER
0
POLYLINE
8
RASTER
66
1
70
1
0
VERTEX
8
RASTER
10
212.3
20
22.5
30
0
0
VERTEX
8
RASTER
10
213.2
20
22.5
30
0
0
VERTEX
8
RASTER
10
213.2
20
21.6
30
0
0
VERTEX
8
RASTER
10
212.3
20
21.6
30
0
0
SEQEND
8
RASTER
0
POLYLINE
8
RASTER
66
1
70
1
0
VERTEX
8
RASTER
10
211.2
20
21.4
30
0
0
VERTEX
8
RASTER
10
212.1
20
21.4
30
0
0
VERTEX
8
RASTER
10
212.1
20
20.5
30
0
0
VERTEX
8
RASTER
10
211.2
20
20.5
30
0
0
SEQEND
8
RASTER
0
POLYLINE
8
RASTER
66
1
70
1
0
VERTEX
8
RASTER
10
213.4
20
21.4
30
0
0
VERTEX
8
RASTER
10
214.3
20
21.4
30
0
0
VERTEX
8
RASTER
10
214.3
20
20.5
30
0
0
VERTEX
8
RASTER
10
213.4
20
20.5
30
0
0
SEQEND
8
RASTER
0
POLYLINE
8
RASTER
66
1
70
1
0
VERTEX
8
RASTER
10
212.3
20
20.3
30
0
0
VERTEX
8
RASTER
10
213.2
20
20.3
30
0
0
VERTEX
8
RASTER
10
213.2
20
19.4
30
0
0
VERTEX
8
RASTER
10
212.3
20
19.4
30
0
0
SEQEND
8
RASTER
0
POLYLINE
8
RASTER
66
1
70
1
0
VERTEX
8
RASTER
10
214.5
20
20.3
30
0
0
VERTEX
8
RASTER
10
215.4
20
20.3
30
0
0
VERTEX
8
RASTER
10
215.4
20
19.4
30
0
0
VERTEX
8
RASTER
10
214.5
20
19.4
30
0
0
SEQEND
8
RASTER
0
POLYLINE
8
RASTER
66
1
70
1
0
VERTEX
8
RASTER
10
211.2
20
19.2
30
0
0
VERTEX
8
RASTER
10
212.1
20
19.2
30
0
0
VERTEX
8
RASTER
10
212.1
20
18.3
30
0
0
VERTEX
8
RASTER
10
211.2
20
18.3
30
0
0
SEQEND
8
RASTER
0
POLYLINE
8
RASTER
66
1
70
1
0
VERTEX
8
RASTER
10
213.4
20
19.2
30
0
0
VERTEX
8
RASTER
10
214.3
20
19.2
30
0
0
VERTEX
8
RASTER
10
214.3
20
18.3
30
0
0
VERTEX
8
RASTER
10
213.4
20
18.3
30
0
0
SEQEND
8
RASTER
0
POLYLINE
8
RASTER
66
1
70
1
0
VERTEX
8
RASTER
10
215.6
20
19.2
30
0
0
VERTEX
8
RASTER
10
216.5
20
19.2
30
0
0
VERTEX
8
RASTER
10
216.5
20
18.3
30
0
0
VERTEX
8
RASTER
10
215.6
20
18.3
30
0
0
SEQEND
8
RASTER
0
POLYLINE
8
RASTER
66
1
70
1
0
VERTEX
8
RASTER
10
212.3
20
18.1
30
0
0
VERTEX
8
RASTER
10
213.2
20
18.1
30
0
0
VERTEX
8
RASTER
10
213.2
20
17.2
30
0
0
VERTEX
8
RASTER
10
212.3
20
17.2
30
0
0
SEQEND
8
RASTER
0
POLYLINE
8
RASTER
66
1
70
1
0
VERTEX
8
RASTER
10
214.5
20
18.1
30
0
0
VERTEX
8
RASTER
10
215.4
20
18.1
30
0
0
VERTEX
8
RASTER
10
215.4
20
17.2
30
0
0
VERTEX
8
RASTER
10
214.5
20
17.2
30
0
0
SEQEND
8
RASTER
0
POLYLINE
8
RASTER
66
1
70
1
0
VERTEX
8
RASTER
10
216.7
20
18.1
30
0
0
VERTEX
8
RASTER
10
217.6
20
18.1
30
0
0
VERTEX
8
RASTER
10
217.6
20
17.2
30
0
0
VERTEX
8
RASTER
10
216.7
20
17.2
30
0
0
SEQEND
8
RASTER
0
POLYLINE
8
RASTER
66
1
70
1
0
VERTEX
8
RASTER
10
211.2
20
17
30
0
0
VERTEX
8
RASTER
10
212.1
20
17
30
0
0
VERTEX
8
RASTER
10
212.1
20
16.1
30
0
0
VERTEX
8
RASTER
10
211.2
20
16.1
30
0
0
SEQEND
8
RASTER
0
POLYLINE
8
CUT
66
1
70
1
0
VERTEX
8
CUT
10
225.5
20
34
30
0
0
VERTEX
8
CUT
10
227.5
20
34
30
0
0
VERTEX
8
CUT
10
227.5
20
32
30
0
0
VERTEX
8
CUT
10
236.5
20
19.5
30
0
0
VERTEX
8
CUT
10
227.5
20
18.5
30
0
0
VERTEX
8
CUT
10
227.5
20
16
30
0
0
VERTEX
8
CUT
10
232.8
20
16
30
0
0
VERTEX
8
CUT
10
232.8
20
10
30
0
0
VERTEX
8
CUT
10
227.5
20
10
30
0
0
VERTEX
8
CUT
10
225.5
20
10
30
0
0
SEQEND
8
CUT
0
POLYLINE
8
RASTER
66
1
70
1
0
VERTEX
8
RASTER
10
229.2
20
27.8
30
0
0
VERTEX
8
RASTER
10
230.1
20
27.8
30
0
0
VERTEX
8
RASTER
10
230.1
20
26.9
30
0
0
VERTEX
8
RASTER
10
229.2
20
26.9
30
0
0
SEQEND
8
RASTER
0
POLYLINE
8
RASTER
66
1
70
1
0
VERTEX
8
RASTER
10
229.2
20
25.6
30
0
0
VERTEX
8
RASTER
10
230.1
20
25.6
30
0
0
VERTEX
8
RASTER
10
230.1
20
24.7
30
0
0
VERTEX
8
RASTER
10
229.2
20
24.7
30
0
0
SEQEND
8
RASTER
0
POLYLINE
8
RASTER
66
1
70
1
0
VERTEX
8
RASTER
10
230.3
20
24.5
30
0
0
VERTEX
8
RASTER
10
231.2
20
24.5
30
0
0
VERTEX
8
RASTER
10
231.2
20
23.6
30
0
0
VERTEX
8
RASTER
10
230.3
20
23.6
30
0
0
SEQEND
8
RASTER
0
POLYLINE
8
RASTER
66
1
70
1
0
VERTEX
8
RASTER
10
229.2
20
23.4
30
0
0
VERTEX
8
RASTER
10
230.1
20
23.4
30
0
0
VERTEX
8
RASTER
10
230.1
20
22.5
30
0
0
VERTEX
8
RASTER
10
229.2
20
22.5
30
0
0
SEQEND
8
RASTER
0
POLYLINE
8
RASTER
66
1
70
1
0
VERTEX
8
RASTER
10
231.4
20
23.4
30
0
0
VERTEX
8
RASTER
10
232.3
20
23.4
30
0
0
VERTEX
8
RASTER
10
232.3
20
22.5
30
0
0
VERTEX
8
RASTER
10
231.4
20
22.5
30
0
0
SEQEND
8
RASTER
0
POLYLINE
8
RASTER
66
1
70
1
0
VERTEX
8
RASTER
10
230.3
20
22.3
30
0
0
VERTEX
8
RASTER
10
231.2
20
22.3
30
0
0
VERTEX
8
RASTER
10
231.2
20
21.4
30
0
0
VERTEX
8
RASTER
10
230.3
20
21.4
30
0
0
SEQEND
8
RASTER
0
POLYLINE
8
RASTER
66
1
70
1
0
VERTEX
8
RASTER
10
232.5
20
22.3
30
0
0
VERTEX
8
RASTER
10
233.4
20
22.3
30
0
0
VERTEX
8
RASTER
10
233.4
20
21.4
30
0
0
VERTEX
8
RASTER
10
232.5
20
21.4
30
0
0
SEQEND
8
RASTER
0
POLYLINE
8
RASTER
66
1
70
1
0
VERTEX
8
RASTER
10
229.2
20
21.2
30
0
0
VERTEX
8
RASTER
10
230.1
20
21.2
30
0
0
VERTEX
8
RASTER
10
230.1
20
20.3
30
0
0
VERTEX
8
RASTER
10
229.2
20
20.3
30
0
0
SEQEND
8
RASTER
0
POLYLINE
8
RASTER
66
1
70
1
0
VERTEX
8
RASTER
10
231.4
20
21.2
30
0
0
VERTEX
8
RASTER
10
232.3
20
21.2
30
0
0
VERTEX
8
RASTER
10
232.3
20
20.3
30
0
0
VERTEX
8
RASTER
10
231.4
20
20.3
30
0
0
SEQEND
8
RASTER
0
ENDSEC
0
EOF
