0
SECTION
2
HEADER
9
$ACADVER
1
AC1009
9
$EXTMIN
10
0
20
0
9
$EXTMAX
10
92
20
26
0
ENDSEC
0
SECTION
2
TABLES
0
TABLE
2
LAYER
70
2
0
LAYER
2
CUT
70
0
62
1
6
CONTINUOUS
0
LAYER
2
RASTER
70
0
62
7
6
CONTINUOUS
0
ENDTAB
0
ENDSEC
0
SECTION
2
ENTITIES
0
CIRCLE
8
CUT
10
13
20
13
30
0
40
9
0
CIRCLE
8
RASTER
10
13
20
13
30
0
40
8.3
0
CIRCLE
8
RASTER
10
13
20
13
30
0
40
7.8
0
POLYLINE
8
RASTER
66
1
70
1
0
VERTEX
8
RASTER
10
7.75
20
12
30
0
0
VERTEX
8
RASTER
10
18.25
20
12
30
0
0
VERTEX
8
RASTER
10
18.178
20
11.369
30
0
0
VERTEX
8
RASTER
10
17.957
20
10.793
30
0
0
VERTEX
8
RASTER
10
17.578
20
10.282
30
0
0
VERTEX
8
RASTER
10
17.031
20
9.844
30
0
0
VERTEX
8
RASTER
10
16.309
20
9.488
30
0
0
VERTEX
8
RASTER
10
15.402
20
9.223
30
0
0
VERTEX
8
RASTER
10
14.302
20
9.057
30
0
0
VERTEX
8
RASTER
10
13
20
9
30
0
0
VERTEX
8
RASTER
10
11.698
20
9.057
30
0
0
VERTEX
8
RASTER
10
10.598
20
9.223
30
0
0
VERTEX
8
RASTER
10
9.691
20
9.488
30
0
0
VERTEX
8
RASTER
10
8.969
20
9.844
30
0
0
VERTEX
8
RASTER
10
8.422
20
10.282
30
0
0
VERTEX
8
RASTER
10
8.043
20
10.793
30
0
0
VERTEX
8
RASTER
10
7.822
20
11.369
30
0
0
VERTEX
8
RASTER
10
7.75
20
12
30
0
0
SEQEND
8
RASTER
0
CIRCLE
8
RASTER
10
10.5
20
10.75
30
0
40
0.4
0
CIRCLE
8
RASTER
10
13
20
10.75
30
0
40
0.4
0
CIRCLE
8
RASTER
10
15.5
20
10.75
30
0
40
0.4
0
POLYLINE
8
RASTER
66
1
70
1
0
VERTEX
8
RASTER
10
12.75
20
19
30
0
0
VERTEX
8
RASTER
10
13.25
20
19
30
0
0
VERTEX
8
RASTER
10
13.25
20
12.25
30
0
0
VERTEX
8
RASTER
10
12.75
20
12.25
30
0
0
SEQEND
8
RASTER
0
POLYLINE
8
RASTER
66
1
70
1
0
VERTEX
8
RASTER
10
13.5
20
18.5
30
0
0
VERTEX
8
RASTER
10
14.604
20
17.75
30
0
0
VERTEX
8
RASTER
10
15.492
20
17.004
30
0
0
VERTEX
8
RASTER
10
16.181
20
16.263
30
0
0
VERTEX
8
RASTER
10
16.688
20
15.531
30
0
0
VERTEX
8
RASTER
10
17.03
20
14.811
30
0
0
VERTEX
8
RASTER
10
17.227
20
14.105
30
0
0
VERTEX
8
RASTER
10
17.294
20
13.417
30
0
0
VERTEX
8
RASTER
10
17.25
20
12.75
30
0
0
VERTEX
8
RASTER
10
13.5
20
12.75
30
0
0
SEQEND
8
RASTER
0
POLYLINE
8
RASTER
66
1
70
1
0
VERTEX
8
RASTER
10
12.5
20
17
30
0
0
VERTEX
8
RASTER
10
11.725
20
16.438
30
0
0
VERTEX
8
RASTER
10
11.078
20
15.879
30
0
0
VERTEX
8
RASTER
10
10.549
20
15.326
30
0
0
VERTEX
8
RASTER
10
10.125
20
14.781
30
0
0
VERTEX
8
RASTER
10
9.795
20
14.249
30
0
0
VERTEX
8
RASTER
10
9.547
20
13.73
30
0
0
VERTEX
8
RASTER
10
9.369
20
13.23
30
0
0
VERTEX
8
RASTER
10
9.25
20
12.75
30
0
0
VERTEX
8
RASTER
10
12.5
20
12.75
30
0
0
SEQEND
8
RASTER
0
CIRCLE
8
RASTER
10
13
20
6.75
30
0
40
0.45
0
CIRCLE
8
CUT
10
35
20
13
30
0
40
9
0
CIRCLE
8
RASTER
10
35
20
13
30
0
40
8.3
0
CIRCLE
8
RASTER
10
35
20
13
30
0
40
7.8
0
POLYLINE
8
RASTER
66
1
70
1
0
VERTEX
8
RASTER
10
29.75
20
12
30
0
0
VERTEX
8
RASTER
10
40.25
20
12
30
0
0
VERTEX
8
RASTER
10
40.178
20
11.369
30
0
0
VERTEX
8
RASTER
10
39.957
20
10.793
30
0
0
VERTEX
8
RASTER
10
39.578
20
10.282
30
0
0
VERTEX
8
RASTER
10
39.031
20
9.844
30
0
0
VERTEX
8
RASTER
10
38.309
20
9.488
30
0
0
VERTEX
8
RASTER
10
37.402
20
9.223
30
0
0
VERTEX
8
RASTER
10
36.302
20
9.057
30
0
0
VERTEX
8
RASTER
10
35
20
9
30
0
0
VERTEX
8
RASTER
10
33.698
20
9.057
30
0
0
VERTEX
8
RASTER
10
32.598
20
9.223
30
0
0
VERTEX
8
RASTER
10
31.691
20
9.488
30
0
0
VERTEX
8
RASTER
10
30.969
20
9.844
30
0
0
VERTEX
8
RASTER
10
30.422
20
10.282
30
0
0
VERTEX
8
RASTER
10
30.043
20
10.793
30
0
0
VERTEX
8
RASTER
10
29.822
20
11.369
30
0
0
VERTEX
8
RASTER
10
29.75
20
12
30
0
0
SEQEND
8
RASTER
0
CIRCLE
8
RASTER
10
32.5
20
10.75
30
0
40
0.4
0
CIRCLE
8
RASTER
10
35
20
10.75
30
0
40
0.4
0
CIRCLE
8
RASTER
10
37.5
20
10.75
30
0
40
0.4
0
POLYLINE
8
RASTER
66
1
70
1
0
VERTEX
8
RASTER
10
34.75
20
19
30
0
0
VERTEX
8
RASTER
10
35.25
20
19
30
0
0
VERTEX
8
RASTER
10
35.25
20
12.25
30
0
0
VERTEX
8
RASTER
10
34.75
20
12.25
30
0
0
SEQEND
8
RASTER
0
POLYLINE
8
RASTER
66
1
70
1
0
VERTEX
8
RASTER
10
35.5
20
18.5
30
0
0
VERTEX
8
RASTER
10
36.604
20
17.75
30
0
0
VERTEX
8
RASTER
10
37.492
20
17.004
30
0
0
VERTEX
8
RASTER
10
38.181
20
16.263
30
0
0
VERTEX
8
RASTER
10
38.688
20
15.531
30
0
0
VERTEX
8
RASTER
10
39.03
20
14.811
30
0
0
VERTEX
8
RASTER
10
39.227
20
14.105
30
0
0
VERTEX
8
RASTER
10
39.294
20
13.417
30
0
0
VERTEX
8
RASTER
10
39.25
20
12.75
30
0
0
VERTEX
8
RASTER
10
35.5
20
12.75
30
0
0
SEQEND
8
RASTER
0
POLYLINE
8
RASTER
66
1
70
1
0
VERTEX
8
RASTER
10
34.5
20
17
30
0
0
VERTEX
8
RASTER
10
33.725
20
16.438
30
0
0
VERTEX
8
RASTER
10
33.078
20
15.879
30
0
0
VERTEX
8
RASTER
10
32.549
20
15.326
30
0
0
VERTEX
8
RASTER
10
32.125
20
14.781
30
0
0
VERTEX
8
RASTER
10
31.795
20
14.249
30
0
0
VERTEX
8
RASTER
10
31.547
20
13.73
30
0
0
VERTEX
8
RASTER
10
31.369
20
13.23
30
0
0
VERTEX
8
RASTER
10
31.25
20
12.75
30
0
0
VERTEX
8
RASTER
10
34.5
20
12.75
30
0
0
SEQEND
8
RASTER
0
POLYLINE
8
RASTER
66
1
70
1
0
VERTEX
8
RASTER
10
30
20
7.5
30
0
0
VERTEX
8
RASTER
10
30.9
20
7.5
30
0
0
VERTEX
8
RASTER
10
30.9
20
6.6
30
0
0
VERTEX
8
RASTER
10
30
20
6.6
30
0
0
SEQEND
8
RASTER
0
POLYLINE
8
RASTER
66
1
70
1
0
VERTEX
8
RASTER
10
31.1
20
7.5
30
0
0
VERTEX
8
RASTER
10
32
20
7.5
30
0
0
VERTEX
8
RASTER
10
32
20
6.6
30
0
0
VERTEX
8
RASTER
10
31.1
20
6.6
30
0
0
SEQEND
8
RASTER
0
POLYLINE
8
RASTER
66
1
70
1
0
VERTEX
8
RASTER
10
32.2
20
7.5
30
0
0
VERTEX
8
RASTER
10
33.1
20
7.5
30
0
0
VERTEX
8
RASTER
10
33.1
20
6.6
30
0
0
VERTEX
8
RASTER
10
32.2
20
6.6
30
0
0
SEQEND
8
RASTER
0
POLYLINE
8
RASTER
66
1
70
1
0
VERTEX
8
RASTER
10
33.3
20
7.5
30
0
0
VERTEX
8
RASTER
10
34.2
20
7.5
30
0
0
VERTEX
8
RASTER
10
34.2
20
6.6
30
0
0
VERTEX
8
RASTER
10
33.3
20
6.6
30
0
0
SEQEND
8
RASTER
0
POLYLINE
8
RASTER
66
1
70
1
0
VERTEX
8
RASTER
10
34.4
20
7.5
30
0
0
VERTEX
8
RASTER
10
35.3
20
7.5
30
0
0
VERTEX
8
RASTER
10
35.3
20
6.6
30
0
0
VERTEX
8
RASTER
10
34.4
20
6.6
30
0
0
SEQEND
8
RASTER
0
POLYLINE
8
RASTER
66
1
70
1
0
VERTEX
8
RASTER
10
35.5
20
7.5
30
0
0
VERTEX
8
RASTER
10
36.4
20
7.5
30
0
0
VERTEX
8
RASTER
10
36.4
20
6.6
30
0
0
VERTEX
8
RASTER
10
35.5
20
6.6
30
0
0
SEQEND
8
RASTER
0
POLYLINE
8
RASTER
66
1
70
1
0
VERTEX
8
RASTER
10
36.6
20
7.5
30
0
0
VERTEX
8
RASTER
10
37.5
20
7.5
30
0
0
VERTEX
8
RASTER
10
37.5
20
6.6
30
0
0
VERTEX
8
RASTER
10
36.6
20
6.6
30
0
0
SEQEND
8
RASTER
0
POLYLINE
8
RASTER
66
1
70
1
0
VERTEX
8
RASTER
10
37.7
20
7.5
30
0
0
VERTEX
8
RASTER
10
38.6
20
7.5
30
0
0
VERTEX
8
RASTER
10
38.6
20
6.6
30
0
0
VERTEX
8
RASTER
10
37.7
20
6.6
30
0
0
SEQEND
8
RASTER
0
POLYLINE
8
RASTER
66
1
70
1
0
VERTEX
8
RASTER
10
38.8
20
7.5
30
0
0
VERTEX
8
RASTER
10
39.7
20
7.5
30
0
0
VERTEX
8
RASTER
10
39.7
20
6.6
30
0
0
VERTEX
8
RASTER
10
38.8
20
6.6
30
0
0
SEQEND
8
RASTER
0
CIRCLE
8
CUT
10
57
20
13
30
0
40
9
0
CIRCLE
8
RASTER
10
57
20
13
30
0
40
8.3
0
CIRCLE
8
RASTER
10
57
20
13
30
0
40
7.8
0
POLYLINE
8
RASTER
66
1
70
1
0
VERTEX
8
RASTER
10
51.75
20
12
30
0
0
VERTEX
8
RASTER
10
62.25
20
12
30
0
0
VERTEX
8
RASTER
10
62.178
20
11.369
30
0
0
VERTEX
8
RASTER
10
61.957
20
10.793
30
0
0
VERTEX
8
RASTER
10
61.578
20
10.282
30
0
0
VERTEX
8
RASTER
10
61.031
20
9.844
30
0
0
VERTEX
8
RASTER
10
60.309
20
9.488
30
0
0
VERTEX
8
RASTER
10
59.402
20
9.223
30
0
0
VERTEX
8
RASTER
10
58.302
20
9.057
30
0
0
VERTEX
8
RASTER
10
57
20
9
30
0
0
VERTEX
8
RASTER
10
55.698
20
9.057
30
0
0
VERTEX
8
RASTER
10
54.598
20
9.223
30
0
0
VERTEX
8
RASTER
10
53.691
20
9.488
30
0
0
VERTEX
8
RASTER
10
52.969
20
9.844
30
0
0
VERTEX
8
RASTER
10
52.422
20
10.282
30
0
0
VERTEX
8
RASTER
10
52.043
20
10.793
30
0
0
VERTEX
8
RASTER
10
51.822
20
11.369
30
0
0
VERTEX
8
RASTER
10
51.75
20
12
30
0
0
SEQEND
8
RASTER
0
CIRCLE
8
RASTER
10
54.5
20
10.75
30
0
40
0.4
0
CIRCLE
8
RASTER
10
57
20
10.75
30
0
40
0.4
0
CIRCLE
8
RASTER
10
59.5
20
10.75
30
0
40
0.4
0
POLYLINE
8
RASTER
66
1
70
1
0
VERTEX
8
RASTER
10
56.75
20
19
30
0
0
VERTEX
8
RASTER
10
57.25
20
19
30
0
0
VERTEX
8
RASTER
10
57.25
20
12.25
30
0
0
VERTEX
8
RASTER
10
56.75
20
12.25
30
0
0
SEQEND
8
RASTER
0
POLYLINE
8
RASTER
66
1
70
1
0
VERTEX
8
RASTER
10
57.5
20
18.5
30
0
0
VERTEX
8
RASTER
10
58.604
20
17.75
30
0
0
VERTEX
8
RASTER
10
59.492
20
17.004
30
0
0
VERTEX
8
RASTER
10
60.181
20
16.263
30
0
0
VERTEX
8
RASTER
10
60.688
20
15.531
30
0
0
VERTEX
8
RASTER
10
61.03
20
14.811
30
0
0
VERTEX
8
RASTER
10
61.227
20
14.105
30
0
0
VERTEX
8
RASTER
10
61.294
20
13.417
30
0
0
VERTEX
8
RASTER
10
61.25
20
12.75
30
0
0
VERTEX
8
RASTER
10
57.5
20
12.75
30
0
0
SEQEND
8
RASTER
0
POLYLINE
8
RASTER
66
1
70
1
0
VERTEX
8
RASTER
10
56.5
20
17
30
0
0
VERTEX
8
RASTER
10
55.725
20
16.438
30
0
0
VERTEX
8
RASTER
10
55.078
20
15.879
30
0
0
VERTEX
8
RASTER
10
54.549
20
15.326
30
0
0
VERTEX
8
RASTER
10
54.125
20
14.781
30
0
0
VERTEX
8
RASTER
10
53.795
20
14.249
30
0
0
VERTEX
8
RASTER
10
53.547
20
13.73
30
0
0
VERTEX
8
RASTER
10
53.369
20
13.23
30
0
0
VERTEX
8
RASTER
10
53.25
20
12.75
30
0
0
VERTEX
8
RASTER
10
56.5
20
12.75
30
0
0
SEQEND
8
RASTER
0
CIRCLE
8
RASTER
10
52.45
20
7.05
30
0
40
0.32
0
CIRCLE
8
RASTER
10
53.55
20
7.05
30
0
40
0.32
0
CIRCLE
8
RASTER
10
54.65
20
7.05
30
0
40
0.32
0
CIRCLE
8
RASTER
10
55.75
20
7.05
30
0
40
0.32
0
CIRCLE
8
RASTER
10
56.85
20
7.05
30
0
40
0.32
0
CIRCLE
8
RASTER
10
57.95
20
7.05
30
0
40
0.32
0
CIRCLE
8
RASTER
10
59.05
20
7.05
30
0
40
0.32
0
CIRCLE
8
RASTER
10
60.15
20
7.05
30
0
40
0.32
0
CIRCLE
8
RASTER
10
61.25
20
7.05
30
0
40
0.32
0
CIRCLE
8
CUT
10
79
20
13
30
0
40
9
0
CIRCLE
8
RASTER
10
79
20
13
30
0
40
8.3
0
CIRCLE
8
RASTER
10
79
20
13
30
0
40
7.8
0
POLYLINE
8
RASTER
66
1
70
1
0
VERTEX
8
RASTER
10
73.75
20
12
30
0
0
VERTEX
8
RASTER
10
84.25
20
12
30
0
0
VERTEX
8
RASTER
10
84.178
20
11.369
30
0
0
VERTEX
8
RASTER
10
83.957
20
10.793
30
0
0
VERTEX
8
RASTER
10
83.578
20
10.282
30
0
0
VERTEX
8
RASTER
10
83.031
20
9.844
30
0
0
VERTEX
8
RASTER
10
82.309
20
9.488
30
0
0
VERTEX
8
RASTER
10
81.402
20
9.223
30
0
0
VERTEX
8
RASTER
10
80.302
20
9.057
30
0
0
VERTEX
8
RASTER
10
79
20
9
30
0
0
VERTEX
8
RASTER
10
77.698
20
9.057
30
0
0
VERTEX
8
RASTER
10
76.598
20
9.223
30
0
0
VERTEX
8
RASTER
10
75.691
20
9.488
30
0
0
VERTEX
8
RASTER
10
74.969
20
9.844
30
0
0
VERTEX
8
RASTER
10
74.422
20
10.282
30
0
0
VERTEX
8
RASTER
10
74.043
20
10.793
30
0
0
VERTEX
8
RASTER
10
73.822
20
11.369
30
0
0
VERTEX
8
RASTER
10
73.75
20
12
30
0
0
SEQEND
8
RASTER
0
CIRCLE
8
RASTER
10
76.5
20
10.75
30
0
40
0.4
0
CIRCLE
8
RASTER
10
79
20
10.75
30
0
40
0.4
0
CIRCLE
8
RASTER
10
81.5
20
10.75
30
0
40
0.4
0
POLYLINE
8
RASTER
66
1
70
1
0
VERTEX
8
RASTER
10
78.75
20
19
30
0
0
VERTEX
8
RASTER
10
79.25
20
19
30
0
0
VERTEX
8
RASTER
10
79.25
20
12.25
30
0
0
VERTEX
8
RASTER
10
78.75
20
12.25
30
0
0
SEQEND
8
RASTER
0
POLYLINE
8
RASTER
66
1
70
1
0
VERTEX
8
RASTER
10
79.5
20
18.5
30
0
0
VERTEX
8
RASTER
10
80.604
20
17.75
30
0
0
VERTEX
8
RASTER
10
81.492
20
17.004
30
0
0
VERTEX
8
RASTER
10
82.181
20
16.263
30
0
0
VERTEX
8
RASTER
10
82.688
20
15.531
30
0
0
VERTEX
8
RASTER
10
83.03
20
14.811
30
0
0
VERTEX
8
RASTER
10
83.227
20
14.105
30
0
0
VERTEX
8
RASTER
10
83.294
20
13.417
30
0
0
VERTEX
8
RASTER
10
83.25
20
12.75
30
0
0
VERTEX
8
RASTER
10
79.5
20
12.75
30
0
0
SEQEND
8
RASTER
0
POLYLINE
8
RASTER
66
1
70
1
0
VERTEX
8
RASTER
10
78.5
20
17
30
0
0
VERTEX
8
RASTER
10
77.725
20
16.438
30
0
0
VERTEX
8
RASTER
10
77.078
20
15.879
30
0
0
VERTEX
8
RASTER
10
76.549
20
15.326
30
0
0
VERTEX
8
RASTER
10
76.125
20
14.781
30
0
0
VERTEX
8
RASTER
10
75.795
20
14.249
30
0
0
VERTEX
8
RASTER
10
75.547
20
13.73
30
0
0
VERTEX
8
RASTER
10
75.369
20
13.23
30
0
0
VERTEX
8
RASTER
10
75.25
20
12.75
30
0
0
VERTEX
8
RASTER
10
78.5
20
12.75
30
0
0
SEQEND
8
RASTER
0
POLYLINE
8
RASTER
66
1
70
1
0
VERTEX
8
RASTER
10
74
20
7.5
30
0
0
VERTEX
8
RASTER
10
74.9
20
7.5
30
0
0
VERTEX
8
RASTER
10
74.9
20
6.6
30
0
0
VERTEX
8
RASTER
10
74
20
6.6
30
0
0
SEQEND
8
RASTER
0
POLYLINE
8
RASTER
66
1
70
1
0
VERTEX
8
RASTER
10
76.2
20
7.5
30
0
0
VERTEX
8
RASTER
10
77.1
20
7.5
30
0
0
VERTEX
8
RASTER
10
77.1
20
6.6
30
0
0
VERTEX
8
RASTER
10
76.2
20
6.6
30
0
0
SEQEND
8
RASTER
0
POLYLINE
8
RASTER
66
1
70
1
0
VERTEX
8
RASTER
10
78.4
20
7.5
30
0
0
VERTEX
8
RASTER
10
79.3
20
7.5
30
0
0
VERTEX
8
RASTER
10
79.3
20
6.6
30
0
0
VERTEX
8
RASTER
10
78.4
20
6.6
30
0
0
SEQEND
8
RASTER
0
POLYLINE
8
RASTER
66
1
70
1
0
VERTEX
8
RASTER
10
80.6
20
7.5
30
0
0
VERTEX
8
RASTER
10
81.5
20
7.5
30
0
0
VERTEX
8
RASTER
10
81.5
20
6.6
30
0
0
VERTEX
8
RASTER
10
80.6
20
6.6
30
0
0
SEQEND
8
RASTER
0
POLYLINE
8
RASTER
66
1
70
1
0
VERTEX
8
RASTER
10
82.8
20
7.5
30
0
0
VERTEX
8
RASTER
10
83.7
20
7.5
30
0
0
VERTEX
8
RASTER
10
83.7
20
6.6
30
0
0
VERTEX
8
RASTER
10
82.8
20
6.6
30
0
0
SEQEND
8
RASTER
0
ENDSEC
0
EOF
