0
SECTION
2
HEADER
9
$ACADVER
1
AC1009
9
$EXTMIN
10
0
20
0
9
$EXTMAX
10
281.2
20
140.4
0
ENDSEC
0
SECTION
2
TABLES
0
TABLE
2
LAYER
70
2
0
LAYER
2
CUT
70
0
62
1
6
CONTINUOUS
0
LAYER
2
RASTER
70
0
62
7
6
CONTINUOUS
0
ENDTAB
0
ENDSEC
0
SECTION
2
ENTITIES
0
CIRCLE
8
CUT
10
52
20
88.4
30
0
40
48
0
CIRCLE
8
CUT
10
52
20
88.4
30
0
40
1.65
0
CIRCLE
8
RASTER
10
52
20
88.4
30
0
40
35.2
0
CIRCLE
8
RASTER
10
52
20
88.4
30
0
40
34.7
0
CIRCLE
8
CUT
10
140.6
20
99.8
30
0
40
35
0
CIRCLE
8
CUT
10
140.6
20
99.8
30
0
40
1.65
0
CIRCLE
8
RASTER
10
140.6
20
99.8
30
0
40
34
0
CIRCLE
8
RASTER
10
140.6
20
99.8
30
0
40
33.3
0
CIRCLE
8
RASTER
10
140.6
20
99.8
30
0
40
29.4
0
CIRCLE
8
RASTER
10
140.6
20
99.8
30
0
40
28.8
0
CIRCLE
8
RASTER
10
140.6
20
99.8
30
0
40
4.2
0
CIRCLE
8
RASTER
10
140.6
20
99.8
30
0
40
3.4
0
CIRCLE
8
RASTER
10
171.781
20
97.072
30
0
40
0.5
0
CIRCLE
8
RASTER
10
170.833
20
91.699
30
0
40
0.5
0
CIRCLE
8
RASTER
10
168.967
20
86.572
30
0
40
0.5
0
CIRCLE
8
RASTER
10
166.239
20
81.847
30
0
40
0.5
0
CIRCLE
8
RASTER
10
162.732
20
77.668
30
0
40
0.5
0
CIRCLE
8
RASTER
10
158.553
20
74.161
30
0
40
0.5
0
CIRCLE
8
RASTER
10
153.828
20
71.433
30
0
40
0.5
0
CIRCLE
8
RASTER
10
148.701
20
69.567
30
0
40
0.5
0
CIRCLE
8
RASTER
10
143.328
20
68.619
30
0
40
0.5
0
CIRCLE
8
RASTER
10
137.872
20
68.619
30
0
40
0.5
0
CIRCLE
8
RASTER
10
132.499
20
69.567
30
0
40
0.5
0
CIRCLE
8
RASTER
10
127.372
20
71.433
30
0
40
0.5
0
CIRCLE
8
RASTER
10
122.647
20
74.161
30
0
40
0.5
0
CIRCLE
8
RASTER
10
118.468
20
77.668
30
0
40
0.5
0
CIRCLE
8
RASTER
10
114.961
20
81.847
30
0
40
0.5
0
CIRCLE
8
RASTER
10
112.233
20
86.572
30
0
40
0.5
0
CIRCLE
8
RASTER
10
110.367
20
91.699
30
0
40
0.5
0
CIRCLE
8
RASTER
10
109.419
20
97.072
30
0
40
0.5
0
CIRCLE
8
RASTER
10
109.419
20
102.528
30
0
40
0.5
0
CIRCLE
8
RASTER
10
110.367
20
107.901
30
0
40
0.5
0
CIRCLE
8
RASTER
10
112.233
20
113.028
30
0
40
0.5
0
CIRCLE
8
RASTER
10
114.961
20
117.753
30
0
40
0.5
0
CIRCLE
8
RASTER
10
118.468
20
121.932
30
0
40
0.5
0
CIRCLE
8
RASTER
10
122.647
20
125.439
30
0
40
0.5
0
CIRCLE
8
RASTER
10
127.372
20
128.167
30
0
40
0.5
0
CIRCLE
8
RASTER
10
132.499
20
130.033
30
0
40
0.5
0
CIRCLE
8
RASTER
10
137.872
20
130.981
30
0
40
0.5
0
CIRCLE
8
RASTER
10
143.328
20
130.981
30
0
40
0.5
0
CIRCLE
8
RASTER
10
148.701
20
130.033
30
0
40
0.5
0
CIRCLE
8
RASTER
10
153.828
20
128.167
30
0
40
0.5
0
CIRCLE
8
RASTER
10
158.553
20
125.439
30
0
40
0.5
0
CIRCLE
8
RASTER
10
162.732
20
121.932
30
0
40
0.5
0
CIRCLE
8
RASTER
10
166.239
20
117.753
30
0
40
0.5
0
CIRCLE
8
RASTER
10
168.967
20
113.028
30
0
40
0.5
0
CIRCLE
8
RASTER
10
170.833
20
107.901
30
0
40
0.5
0
CIRCLE
8
RASTER
10
171.781
20
102.528
30
0
40
0.5
0
CIRCLE
8
RASTER
10
140.6
20
131.2
30
0
40
5.2
0
POLYLINE
8
RASTER
66
1
70
1
0
VERTEX
8
RASTER
10
138.666
20
133.42
30
0
0
VERTEX
8
RASTER
10
138.666
20
129.03
30
0
0
VERTEX
8
RASTER
10
139.447
20
129.03
30
0
0
VERTEX
8
RASTER
10
139.447
20
132.421
30
0
0
VERTEX
8
RASTER
10
139.459
20
132.421
30
0
0
VERTEX
8
RASTER
10
141.542
20
129.03
30
0
0
VERTEX
8
RASTER
10
142.534
20
129.03
30
0
0
VERTEX
8
RASTER
10
142.534
20
133.42
30
0
0
VERTEX
8
RASTER
10
141.753
20
133.42
30
0
0
VERTEX
8
RASTER
10
141.753
20
130.134
30
0
0
VERTEX
8
RASTER
10
141.741
20
130.134
30
0
0
VERTEX
8
RASTER
10
139.701
20
133.42
30
0
0
VERTEX
8
RASTER
10
138.666
20
133.42
30
0
0
SEQEND
8
RASTER
0
CIRCLE
8
RASTER
10
172
20
99.8
30
0
40
5.2
0
POLYLINE
8
RASTER
66
1
70
1
0
VERTEX
8
RASTER
10
170.593
20
102.02
30
0
0
VERTEX
8
RASTER
10
170.593
20
97.63
30
0
0
VERTEX
8
RASTER
10
173.612
20
97.63
30
0
0
VERTEX
8
RASTER
10
173.612
20
98.324
30
0
0
VERTEX
8
RASTER
10
171.374
20
98.324
30
0
0
VERTEX
8
RASTER
10
171.374
20
99.564
30
0
0
VERTEX
8
RASTER
10
173.389
20
99.564
30
0
0
VERTEX
8
RASTER
10
173.389
20
100.222
30
0
0
VERTEX
8
RASTER
10
171.374
20
100.222
30
0
0
VERTEX
8
RASTER
10
171.374
20
101.338
30
0
0
VERTEX
8
RASTER
10
173.5
20
101.338
30
0
0
VERTEX
8
RASTER
10
173.5
20
102.02
30
0
0
VERTEX
8
RASTER
10
170.593
20
102.02
30
0
0
SEQEND
8
RASTER
0
CIRCLE
8
RASTER
10
140.6
20
68.4
30
0
40
5.2
0
POLYLINE
8
RASTER
66
1
70
1
0
VERTEX
8
RASTER
10
141.542
20
69.702
30
0
0
VERTEX
8
RASTER
10
142.051
20
70.26
30
0
0
VERTEX
8
RASTER
10
141.986
20
70.317
30
0
0
VERTEX
8
RASTER
10
141.918
20
70.37
30
0
0
VERTEX
8
RASTER
10
141.848
20
70.42
30
0
0
VERTEX
8
RASTER
10
141.774
20
70.466
30
0
0
VERTEX
8
RASTER
10
141.698
20
70.508
30
0
0
VERTEX
8
RASTER
10
141.619
20
70.547
30
0
0
VERTEX
8
RASTER
10
141.537
20
70.582
30
0
0
VERTEX
8
RASTER
10
141.453
20
70.613
30
0
0
VERTEX
8
RASTER
10
141.367
20
70.641
30
0
0
VERTEX
8
RASTER
10
141.281
20
70.665
30
0
0
VERTEX
8
RASTER
10
141.196
20
70.685
30
0
0
VERTEX
8
RASTER
10
141.111
20
70.702
30
0
0
VERTEX
8
RASTER
10
141.026
20
70.715
30
0
0
VERTEX
8
RASTER
10
140.942
20
70.724
30
0
0
VERTEX
8
RASTER
10
140.857
20
70.729
30
0
0
VERTEX
8
RASTER
10
140.774
20
70.731
30
0
0
VERTEX
8
RASTER
10
140.699
20
70.73
30
0
0
VERTEX
8
RASTER
10
140.625
20
70.726
30
0
0
VERTEX
8
RASTER
10
140.552
20
70.72
30
0
0
VERTEX
8
RASTER
10
140.478
20
70.712
30
0
0
VERTEX
8
RASTER
10
140.405
20
70.701
30
0
0
VERTEX
8
RASTER
10
140.332
20
70.688
30
0
0
VERTEX
8
RASTER
10
140.26
20
70.672
30
0
0
VERTEX
8
RASTER
10
140.188
20
70.654
30
0
0
VERTEX
8
RASTER
10
140.117
20
70.633
30
0
0
VERTEX
8
RASTER
10
140.047
20
70.61
30
0
0
VERTEX
8
RASTER
10
139.98
20
70.584
30
0
0
VERTEX
8
RASTER
10
139.915
20
70.556
30
0
0
VERTEX
8
RASTER
10
139.852
20
70.525
30
0
0
VERTEX
8
RASTER
10
139.79
20
70.492
30
0
0
VERTEX
8
RASTER
10
139.731
20
70.456
30
0
0
VERTEX
8
RASTER
10
139.673
20
70.418
30
0
0
VERTEX
8
RASTER
10
139.618
20
70.377
30
0
0
VERTEX
8
RASTER
10
139.565
20
70.334
30
0
0
VERTEX
8
RASTER
10
139.516
20
70.288
30
0
0
VERTEX
8
RASTER
10
139.468
20
70.239
30
0
0
VERTEX
8
RASTER
10
139.424
20
70.188
30
0
0
VERTEX
8
RASTER
10
139.382
20
70.134
30
0
0
VERTEX
8
RASTER
10
139.344
20
70.077
30
0
0
VERTEX
8
RASTER
10
139.307
20
70.018
30
0
0
VERTEX
8
RASTER
10
139.275
20
69.956
30
0
0
VERTEX
8
RASTER
10
139.246
20
69.891
30
0
0
VERTEX
8
RASTER
10
139.222
20
69.824
30
0
0
VERTEX
8
RASTER
10
139.203
20
69.753
30
0
0
VERTEX
8
RASTER
10
139.187
20
69.68
30
0
0
VERTEX
8
RASTER
10
139.177
20
69.603
30
0
0
VERTEX
8
RASTER
10
139.17
20
69.524
30
0
0
VERTEX
8
RASTER
10
139.168
20
69.442
30
0
0
VERTEX
8
RASTER
10
139.169
20
69.366
30
0
0
VERTEX
8
RASTER
10
139.174
20
69.293
30
0
0
VERTEX
8
RASTER
10
139.182
20
69.223
30
0
0
VERTEX
8
RASTER
10
139.193
20
69.157
30
0
0
VERTEX
8
RASTER
10
139.207
20
69.094
30
0
0
VERTEX
8
RASTER
10
139.224
20
69.034
30
0
0
VERTEX
8
RASTER
10
139.244
20
68.977
30
0
0
VERTEX
8
RASTER
10
139.267
20
68.924
30
0
0
VERTEX
8
RASTER
10
139.293
20
68.873
30
0
0
VERTEX
8
RASTER
10
139.32
20
68.824
30
0
0
VERTEX
8
RASTER
10
139.35
20
68.777
30
0
0
VERTEX
8
RASTER
10
139.381
20
68.732
30
0
0
VERTEX
8
RASTER
10
139.414
20
68.69
30
0
0
VERTEX
8
RASTER
10
139.449
20
68.649
30
0
0
VERTEX
8
RASTER
10
139.486
20
68.61
30
0
0
VERTEX
8
RASTER
10
139.524
20
68.574
30
0
0
VERTEX
8
RASTER
10
139.564
20
68.539
30
0
0
VERTEX
8
RASTER
10
139.606
20
68.506
30
0
0
VERTEX
8
RASTER
10
139.649
20
68.474
30
0
0
VERTEX
8
RASTER
10
139.692
20
68.445
30
0
0
VERTEX
8
RASTER
10
139.738
20
68.417
30
0
0
VERTEX
8
RASTER
10
139.784
20
68.391
30
0
0
VERTEX
8
RASTER
10
139.832
20
68.367
30
0
0
VERTEX
8
RASTER
10
139.881
20
68.344
30
0
0
VERTEX
8
RASTER
10
139.93
20
68.323
30
0
0
VERTEX
8
RASTER
10
139.98
20
68.302
30
0
0
VERTEX
8
RASTER
10
140.03
20
68.283
30
0
0
VERTEX
8
RASTER
10
140.079
20
68.264
30
0
0
VERTEX
8
RASTER
10
140.129
20
68.245
30
0
0
VERTEX
8
RASTER
10
140.178
20
68.228
30
0
0
VERTEX
8
RASTER
10
140.228
20
68.211
30
0
0
VERTEX
8
RASTER
10
140.278
20
68.195
30
0
0
VERTEX
8
RASTER
10
140.328
20
68.178
30
0
0
VERTEX
8
RASTER
10
140.379
20
68.162
30
0
0
VERTEX
8
RASTER
10
140.428
20
68.145
30
0
0
VERTEX
8
RASTER
10
140.478
20
68.129
30
0
0
VERTEX
8
RASTER
10
140.526
20
68.113
30
0
0
VERTEX
8
RASTER
10
140.574
20
68.097
30
0
0
VERTEX
8
RASTER
10
140.621
20
68.081
30
0
0
VERTEX
8
RASTER
10
140.668
20
68.065
30
0
0
VERTEX
8
RASTER
10
140.714
20
68.049
30
0
0
VERTEX
8
RASTER
10
140.758
20
68.033
30
0
0
VERTEX
8
RASTER
10
140.801
20
68.016
30
0
0
VERTEX
8
RASTER
10
140.842
20
67.998
30
0
0
VERTEX
8
RASTER
10
140.881
20
67.979
30
0
0
VERTEX
8
RASTER
10
140.919
20
67.96
30
0
0
VERTEX
8
RASTER
10
140.956
20
67.94
30
0
0
VERTEX
8
RASTER
10
140.991
20
67.92
30
0
0
VERTEX
8
RASTER
10
141.024
20
67.898
30
0
0
VERTEX
8
RASTER
10
141.055
20
67.876
30
0
0
VERTEX
8
RASTER
10
141.085
20
67.852
30
0
0
VERTEX
8
RASTER
10
141.113
20
67.828
30
0
0
VERTEX
8
RASTER
10
141.139
20
67.803
30
0
0
VERTEX
8
RASTER
10
141.164
20
67.777
30
0
0
VERTEX
8
RASTER
10
141.187
20
67.749
30
0
0
VERTEX
8
RASTER
10
141.208
20
67.721
30
0
0
VERTEX
8
RASTER
10
141.226
20
67.692
30
0
0
VERTEX
8
RASTER
10
141.243
20
67.66
30
0
0
VERTEX
8
RASTER
10
141.257
20
67.627
30
0
0
VERTEX
8
RASTER
10
141.268
20
67.592
30
0
0
VERTEX
8
RASTER
10
141.277
20
67.555
30
0
0
VERTEX
8
RASTER
10
141.283
20
67.516
30
0
0
VERTEX
8
RASTER
10
141.287
20
67.475
30
0
0
VERTEX
8
RASTER
10
141.288
20
67.433
30
0
0
VERTEX
8
RASTER
10
141.287
20
67.389
30
0
0
VERTEX
8
RASTER
10
141.284
20
67.347
30
0
0
VERTEX
8
RASTER
10
141.278
20
67.306
30
0
0
VERTEX
8
RASTER
10
141.27
20
67.268
30
0
0
VERTEX
8
RASTER
10
141.26
20
67.231
30
0
0
VERTEX
8
RASTER
10
141.248
20
67.196
30
0
0
VERTEX
8
RASTER
10
141.234
20
67.163
30
0
0
VERTEX
8
RASTER
10
141.217
20
67.132
30
0
0
VERTEX
8
RASTER
10
141.198
20
67.103
30
0
0
VERTEX
8
RASTER
10
141.179
20
67.074
30
0
0
VERTEX
8
RASTER
10
141.157
20
67.047
30
0
0
VERTEX
8
RASTER
10
141.135
20
67.021
30
0
0
VERTEX
8
RASTER
10
141.111
20
66.997
30
0
0
VERTEX
8
RASTER
10
141.086
20
66.973
30
0
0
VERTEX
8
RASTER
10
141.059
20
66.951
30
0
0
VERTEX
8
RASTER
10
141.031
20
66.931
30
0
0
VERTEX
8
RASTER
10
141.002
20
66.911
30
0
0
VERTEX
8
RASTER
10
140.972
20
66.893
30
0
0
VERTEX
8
RASTER
10
140.941
20
66.877
30
0
0
VERTEX
8
RASTER
10
140.909
20
66.862
30
0
0
VERTEX
8
RASTER
10
140.877
20
66.848
30
0
0
VERTEX
8
RASTER
10
140.843
20
66.836
30
0
0
VERTEX
8
RASTER
10
140.809
20
66.825
30
0
0
VERTEX
8
RASTER
10
140.774
20
66.816
30
0
0
VERTEX
8
RASTER
10
140.738
20
66.808
30
0
0
VERTEX
8
RASTER
10
140.703
20
66.801
30
0
0
VERTEX
8
RASTER
10
140.668
20
66.795
30
0
0
VERTEX
8
RASTER
10
140.633
20
66.79
30
0
0
VERTEX
8
RASTER
10
140.598
20
66.787
30
0
0
VERTEX
8
RASTER
10
140.563
20
66.784
30
0
0
VERTEX
8
RASTER
10
140.529
20
66.782
30
0
0
VERTEX
8
RASTER
10
140.495
20
66.782
30
0
0
VERTEX
8
RASTER
10
140.429
20
66.784
30
0
0
VERTEX
8
RASTER
10
140.364
20
66.79
30
0
0
VERTEX
8
RASTER
10
140.298
20
66.8
30
0
0
VERTEX
8
RASTER
10
140.232
20
66.814
30
0
0
VERTEX
8
RASTER
10
140.165
20
66.833
30
0
0
VERTEX
8
RASTER
10
140.099
20
66.855
30
0
0
VERTEX
8
RASTER
10
140.032
20
66.881
30
0
0
VERTEX
8
RASTER
10
139.965
20
66.912
30
0
0
VERTEX
8
RASTER
10
139.899
20
66.946
30
0
0
VERTEX
8
RASTER
10
139.836
20
66.983
30
0
0
VERTEX
8
RASTER
10
139.777
20
67.023
30
0
0
VERTEX
8
RASTER
10
139.722
20
67.065
30
0
0
VERTEX
8
RASTER
10
139.67
20
67.111
30
0
0
VERTEX
8
RASTER
10
139.621
20
67.16
30
0
0
VERTEX
8
RASTER
10
139.576
20
67.211
30
0
0
VERTEX
8
RASTER
10
139.534
20
67.265
30
0
0
VERTEX
8
RASTER
10
138.976
20
66.745
30
0
0
VERTEX
8
RASTER
10
139.043
20
66.669
30
0
0
VERTEX
8
RASTER
10
139.115
20
66.599
30
0
0
VERTEX
8
RASTER
10
139.192
20
66.533
30
0
0
VERTEX
8
RASTER
10
139.273
20
66.473
30
0
0
VERTEX
8
RASTER
10
139.359
20
66.416
30
0
0
VERTEX
8
RASTER
10
139.45
20
66.365
30
0
0
VERTEX
8
RASTER
10
139.545
20
66.318
30
0
0
VERTEX
8
RASTER
10
139.645
20
66.277
30
0
0
VERTEX
8
RASTER
10
139.748
20
66.239
30
0
0
VERTEX
8
RASTER
10
139.851
20
66.207
30
0
0
VERTEX
8
RASTER
10
139.955
20
66.18
30
0
0
VERTEX
8
RASTER
10
140.059
20
66.158
30
0
0
VERTEX
8
RASTER
10
140.164
20
66.141
30
0
0
VERTEX
8
RASTER
10
140.269
20
66.128
30
0
0
VERTEX
8
RASTER
10
140.376
20
66.121
30
0
0
VERTEX
8
RASTER
10
140.482
20
66.118
30
0
0
VERTEX
8
RASTER
10
140.562
20
66.12
30
0
0
VERTEX
8
RASTER
10
140.641
20
66.124
30
0
0
VERTEX
8
RASTER
10
140.72
20
66.131
30
0
0
VERTEX
8
RASTER
10
140.797
20
66.14
30
0
0
VERTEX
8
RASTER
10
140.873
20
66.152
30
0
0
VERTEX
8
RASTER
10
140.948
20
66.167
30
0
0
VERTEX
8
RASTER
10
141.023
20
66.185
30
0
0
VERTEX
8
RASTER
10
141.096
20
66.205
30
0
0
VERTEX
8
RASTER
10
141.168
20
66.228
30
0
0
VERTEX
8
RASTER
10
141.237
20
66.254
30
0
0
VERTEX
8
RASTER
10
141.304
20
66.283
30
0
0
VERTEX
8
RASTER
10
141.369
20
66.314
30
0
0
VERTEX
8
RASTER
10
141.431
20
66.348
30
0
0
VERTEX
8
RASTER
10
141.491
20
66.384
30
0
0
VERTEX
8
RASTER
10
141.549
20
66.424
30
0
0
VERTEX
8
RASTER
10
141.604
20
66.466
30
0
0
VERTEX
8
RASTER
10
141.657
20
66.51
30
0
0
VERTEX
8
RASTER
10
141.707
20
66.558
30
0
0
VERTEX
8
RASTER
10
141.755
20
66.608
30
0
0
VERTEX
8
RASTER
10
141.8
20
66.662
30
0
0
VERTEX
8
RASTER
10
141.842
20
66.718
30
0
0
VERTEX
8
RASTER
10
141.881
20
66.777
30
0
0
VERTEX
8
RASTER
10
141.918
20
66.838
30
0
0
VERTEX
8
RASTER
10
141.952
20
66.903
30
0
0
VERTEX
8
RASTER
10
141.982
20
66.97
30
0
0
VERTEX
8
RASTER
10
142.009
20
67.04
30
0
0
VERTEX
8
RASTER
10
142.031
20
67.113
30
0
0
VERTEX
8
RASTER
10
142.049
20
67.189
30
0
0
VERTEX
8
RASTER
10
142.063
20
67.267
30
0
0
VERTEX
8
RASTER
10
142.074
20
67.349
30
0
0
VERTEX
8
RASTER
10
142.08
20
67.433
30
0
0
VERTEX
8
RASTER
10
142.082
20
67.52
30
0
0
VERTEX
8
RASTER
10
142.08
20
67.599
30
0
0
VERTEX
8
RASTER
10
142.074
20
67.674
30
0
0
VERTEX
8
RASTER
10
142.065
20
67.747
30
0
0
VERTEX
8
RASTER
10
142.052
20
67.816
30
0
0
VERTEX
8
RASTER
10
142.035
20
67.881
30
0
0
VERTEX
8
RASTER
10
142.014
20
67.944
30
0
0
VERTEX
8
RASTER
10
141.989
20
68.003
30
0
0
VERTEX
8
RASTER
10
141.961
20
68.059
30
0
0
VERTEX
8
RASTER
10
141.93
20
68.112
30
0
0
VERTEX
8
RASTER
10
141.896
20
68.163
30
0
0
VERTEX
8
RASTER
10
141.861
20
68.211
30
0
0
VERTEX
8
RASTER
10
141.823
20
68.257
30
0
0
VERTEX
8
RASTER
10
141.783
20
68.301
30
0
0
VERTEX
8
RASTER
10
141.741
20
68.343
30
0
0
VERTEX
8
RASTER
10
141.697
20
68.382
30
0
0
VERTEX
8
RASTER
10
141.651
20
68.419
30
0
0
VERTEX
8
RASTER
10
141.603
20
68.453
30
0
0
VERTEX
8
RASTER
10
141.554
20
68.486
30
0
0
VERTEX
8
RASTER
10
141.504
20
68.518
30
0
0
VERTEX
8
RASTER
10
141.453
20
68.547
30
0
0
VERTEX
8
RASTER
10
141.4
20
68.575
30
0
0
VERTEX
8
RASTER
10
141.346
20
68.601
30
0
0
VERTEX
8
RASTER
10
141.291
20
68.625
30
0
0
VERTEX
8
RASTER
10
141.236
20
68.648
30
0
0
VERTEX
8
RASTER
10
141.179
20
68.669
30
0
0
VERTEX
8
RASTER
10
141.123
20
68.69
30
0
0
VERTEX
8
RASTER
10
141.068
20
68.71
30
0
0
VERTEX
8
RASTER
10
141.013
20
68.73
30
0
0
VERTEX
8
RASTER
10
140.959
20
68.749
30
0
0
VERTEX
8
RASTER
10
140.905
20
68.768
30
0
0
VERTEX
8
RASTER
10
140.851
20
68.786
30
0
0
VERTEX
8
RASTER
10
140.798
20
68.803
30
0
0
VERTEX
8
RASTER
10
140.752
20
68.817
30
0
0
VERTEX
8
RASTER
10
140.707
20
68.831
30
0
0
VERTEX
8
RASTER
10
140.663
20
68.845
30
0
0
VERTEX
8
RASTER
10
140.62
20
68.859
30
0
0
VERTEX
8
RASTER
10
140.578
20
68.873
30
0
0
VERTEX
8
RASTER
10
140.537
20
68.887
30
0
0
VERTEX
8
RASTER
10
140.497
20
68.901
30
0
0
VERTEX
8
RASTER
10
140.457
20
68.915
30
0
0
VERTEX
8
RASTER
10
140.419
20
68.929
30
0
0
VERTEX
8
RASTER
10
140.383
20
68.944
30
0
0
VERTEX
8
RASTER
10
140.348
20
68.959
30
0
0
VERTEX
8
RASTER
10
140.314
20
68.975
30
0
0
VERTEX
8
RASTER
10
140.282
20
68.992
30
0
0
VERTEX
8
RASTER
10
140.251
20
69.009
30
0
0
VERTEX
8
RASTER
10
140.222
20
69.026
30
0
0
VERTEX
8
RASTER
10
140.194
20
69.045
30
0
0
VERTEX
8
RASTER
10
140.168
20
69.064
30
0
0
VERTEX
8
RASTER
10
140.143
20
69.084
30
0
0
VERTEX
8
RASTER
10
140.119
20
69.105
30
0
0
VERTEX
8
RASTER
10
140.097
20
69.127
30
0
0
VERTEX
8
RASTER
10
140.076
20
69.15
30
0
0
VERTEX
8
RASTER
10
140.057
20
69.174
30
0
0
VERTEX
8
RASTER
10
140.04
20
69.199
30
0
0
VERTEX
8
RASTER
10
140.023
20
69.225
30
0
0
VERTEX
8
RASTER
10
140.009
20
69.252
30
0
0
VERTEX
8
RASTER
10
139.996
20
69.28
30
0
0
VERTEX
8
RASTER
10
139.986
20
69.31
30
0
0
VERTEX
8
RASTER
10
139.977
20
69.341
30
0
0
VERTEX
8
RASTER
10
139.97
20
69.373
30
0
0
VERTEX
8
RASTER
10
139.965
20
69.407
30
0
0
VERTEX
8
RASTER
10
139.962
20
69.442
30
0
0
VERTEX
8
RASTER
10
139.961
20
69.479
30
0
0
VERTEX
8
RASTER
10
139.963
20
69.518
30
0
0
VERTEX
8
RASTER
10
139.966
20
69.556
30
0
0
VERTEX
8
RASTER
10
139.971
20
69.593
30
0
0
VERTEX
8
RASTER
10
139.979
20
69.628
30
0
0
VERTEX
8
RASTER
10
139.989
20
69.662
30
0
0
VERTEX
8
RASTER
10
140.002
20
69.694
30
0
0
VERTEX
8
RASTER
10
140.016
20
69.725
30
0
0
VERTEX
8
RASTER
10
140.033
20
69.755
30
0
0
VERTEX
8
RASTER
10
140.051
20
69.783
30
0
0
VERTEX
8
RASTER
10
140.071
20
69.809
30
0
0
VERTEX
8
RASTER
10
140.092
20
69.835
30
0
0
VERTEX
8
RASTER
10
140.114
20
69.859
30
0
0
VERTEX
8
RASTER
10
140.138
20
69.881
30
0
0
VERTEX
8
RASTER
10
140.162
20
69.902
30
0
0
VERTEX
8
RASTER
10
140.188
20
69.922
30
0
0
VERTEX
8
RASTER
10
140.216
20
69.941
30
0
0
VERTEX
8
RASTER
10
140.244
20
69.958
30
0
0
VERTEX
8
RASTER
10
140.273
20
69.974
30
0
0
VERTEX
8
RASTER
10
140.303
20
69.989
30
0
0
VERTEX
8
RASTER
10
140.333
20
70.003
30
0
0
VERTEX
8
RASTER
10
140.365
20
70.015
30
0
0
VERTEX
8
RASTER
10
140.397
20
70.027
30
0
0
VERTEX
8
RASTER
10
140.43
20
70.037
30
0
0
VERTEX
8
RASTER
10
140.464
20
70.046
30
0
0
VERTEX
8
RASTER
10
140.498
20
70.054
30
0
0
VERTEX
8
RASTER
10
140.532
20
70.061
30
0
0
VERTEX
8
RASTER
10
140.566
20
70.067
30
0
0
VERTEX
8
RASTER
10
140.6
20
70.072
30
0
0
VERTEX
8
RASTER
10
140.634
20
70.075
30
0
0
VERTEX
8
RASTER
10
140.668
20
70.078
30
0
0
VERTEX
8
RASTER
10
140.702
20
70.08
30
0
0
VERTEX
8
RASTER
10
140.736
20
70.08
30
0
0
VERTEX
8
RASTER
10
140.794
20
70.079
30
0
0
VERTEX
8
RASTER
10
140.851
20
70.073
30
0
0
VERTEX
8
RASTER
10
140.908
20
70.065
30
0
0
VERTEX
8
RASTER
10
140.965
20
70.053
30
0
0
VERTEX
8
RASTER
10
141.022
20
70.038
30
0
0
VERTEX
8
RASTER
10
141.079
20
70.019
30
0
0
VERTEX
8
RASTER
10
141.135
20
69.997
30
0
0
VERTEX
8
RASTER
10
141.192
20
69.972
30
0
0
VERTEX
8
RASTER
10
141.247
20
69.944
30
0
0
VERTEX
8
RASTER
10
141.299
20
69.914
30
0
0
VERTEX
8
RASTER
10
141.347
20
69.883
30
0
0
VERTEX
8
RASTER
10
141.393
20
69.85
30
0
0
VERTEX
8
RASTER
10
141.435
20
69.815
30
0
0
VERTEX
8
RASTER
10
141.474
20
69.779
30
0
0
VERTEX
8
RASTER
10
141.51
20
69.741
30
0
0
VERTEX
8
RASTER
10
141.542
20
69.702
30
0
0
SEQEND
8
RASTER
0
CIRCLE
8
RASTER
10
109.2
20
99.8
30
0
40
5.2
0
POLYLINE
8
RASTER
66
1
70
1
0
VERTEX
8
RASTER
10
106.125
20
102.02
30
0
0
VERTEX
8
RASTER
10
107.408
20
97.63
30
0
0
VERTEX
8
RASTER
10
108.165
20
97.63
30
0
0
VERTEX
8
RASTER
10
109.194
20
100.922
30
0
0
VERTEX
8
RASTER
10
109.206
20
100.922
30
0
0
VERTEX
8
RASTER
10
110.235
20
97.63
30
0
0
VERTEX
8
RASTER
10
110.992
20
97.63
30
0
0
VERTEX
8
RASTER
10
112.275
20
102.02
30
0
0
VERTEX
8
RASTER
10
111.444
20
102.02
30
0
0
VERTEX
8
RASTER
10
110.576
20
98.796
30
0
0
VERTEX
8
RASTER
10
110.564
20
98.796
30
0
0
VERTEX
8
RASTER
10
109.615
20
102.02
30
0
0
VERTEX
8
RASTER
10
108.809
20
102.02
30
0
0
VERTEX
8
RASTER
10
107.842
20
98.796
30
0
0
VERTEX
8
RASTER
10
107.83
20
98.796
30
0
0
VERTEX
8
RASTER
10
106.98
20
102.02
30
0
0
VERTEX
8
RASTER
10
106.125
20
102.02
30
0
0
SEQEND
8
RASTER
0
POLYLINE
8
RASTER
66
1
70
1
0
VERTEX
8
RASTER
10
145.833
20
95.133
30
0
0
VERTEX
8
RASTER
10
160.682
20
80.284
30
0
0
VERTEX
8
RASTER
10
160.116
20
79.718
30
0
0
VERTEX
8
RASTER
10
145.267
20
94.567
30
0
0
SEQEND
8
RASTER
0
POLYLINE
8
RASTER
66
1
70
1
0
VERTEX
8
RASTER
10
135.933
20
94.567
30
0
0
VERTEX
8
RASTER
10
121.084
20
79.718
30
0
0
VERTEX
8
RASTER
10
120.518
20
80.284
30
0
0
VERTEX
8
RASTER
10
135.367
20
95.133
30
0
0
SEQEND
8
RASTER
0
POLYLINE
8
RASTER
66
1
70
1
0
VERTEX
8
RASTER
10
135.367
20
104.467
30
0
0
VERTEX
8
RASTER
10
120.518
20
119.316
30
0
0
VERTEX
8
RASTER
10
121.084
20
119.882
30
0
0
VERTEX
8
RASTER
10
135.933
20
105.033
30
0
0
SEQEND
8
RASTER
0
POLYLINE
8
RASTER
66
1
70
1
0
VERTEX
8
RASTER
10
145.267
20
105.033
30
0
0
VERTEX
8
RASTER
10
160.116
20
119.882
30
0
0
VERTEX
8
RASTER
10
160.682
20
119.316
30
0
0
VERTEX
8
RASTER
10
145.833
20
104.467
30
0
0
SEQEND
8
RASTER
0
POLYLINE
8
RASTER
66
1
70
1
0
VERTEX
8
RASTER
10
160.202
20
89.812
30
0
0
VERTEX
8
RASTER
10
159.795
20
89.05
30
0
0
VERTEX
8
RASTER
10
159.358
20
88.305
30
0
0
VERTEX
8
RASTER
10
158.892
20
87.577
30
0
0
VERTEX
8
RASTER
10
158.398
20
86.869
30
0
0
VERTEX
8
RASTER
10
157.877
20
86.18
30
0
0
VERTEX
8
RASTER
10
157.329
20
85.512
30
0
0
VERTEX
8
RASTER
10
156.755
20
84.866
30
0
0
VERTEX
8
RASTER
10
156.156
20
84.244
30
0
0
VERTEX
8
RASTER
10
146.964
20
93.436
30
0
0
VERTEX
8
RASTER
10
147.209
20
93.691
30
0
0
VERTEX
8
RASTER
10
147.444
20
93.955
30
0
0
VERTEX
8
RASTER
10
147.668
20
94.228
30
0
0
VERTEX
8
RASTER
10
147.881
20
94.51
30
0
0
VERTEX
8
RASTER
10
148.083
20
94.8
30
0
0
VERTEX
8
RASTER
10
148.274
20
95.098
30
0
0
VERTEX
8
RASTER
10
148.452
20
95.402
30
0
0
VERTEX
8
RASTER
10
148.619
20
95.714
30
0
0
SEQEND
8
RASTER
0
POLYLINE
8
RASTER
66
1
70
1
0
VERTEX
8
RASTER
10
151.46
20
89.969
30
0
0
VERTEX
8
RASTER
10
154.82
20
89.969
30
0
0
VERTEX
8
RASTER
10
155.09
20
90.026
30
0
0
VERTEX
8
RASTER
10
155.274
20
90.176
30
0
0
VERTEX
8
RASTER
10
155.372
20
90.387
30
0
0
VERTEX
8
RASTER
10
155.39
20
90.629
30
0
0
VERTEX
8
RASTER
10
155.328
20
90.872
30
0
0
VERTEX
8
RASTER
10
155.191
20
91.083
30
0
0
VERTEX
8
RASTER
10
154.981
20
91.233
30
0
0
VERTEX
8
RASTER
10
154.7
20
91.289
30
0
0
VERTEX
8
RASTER
10
154.677
20
91.575
30
0
0
VERTEX
8
RASTER
10
154.539
20
91.799
30
0
0
VERTEX
8
RASTER
10
154.316
20
91.956
30
0
0
VERTEX
8
RASTER
10
154.04
20
92.039
30
0
0
VERTEX
8
RASTER
10
153.741
20
92.044
30
0
0
VERTEX
8
RASTER
10
153.451
20
91.964
30
0
0
VERTEX
8
RASTER
10
153.2
20
91.795
30
0
0
VERTEX
8
RASTER
10
153.02
20
91.529
30
0
0
VERTEX
8
RASTER
10
152.81
20
91.711
30
0
0
VERTEX
8
RASTER
10
152.557
20
91.809
30
0
0
VERTEX
8
RASTER
10
152.284
20
91.831
30
0
0
VERTEX
8
RASTER
10
152.015
20
91.784
30
0
0
VERTEX
8
RASTER
10
151.774
20
91.676
30
0
0
VERTEX
8
RASTER
10
151.585
20
91.512
30
0
0
VERTEX
8
RASTER
10
151.473
20
91.301
30
0
0
VERTEX
8
RASTER
10
151.46
20
91.049
30
0
0
VERTEX
8
RASTER
10
151.184
20
90.968
30
0
0
VERTEX
8
RASTER
10
150.987
20
90.83
30
0
0
VERTEX
8
RASTER
10
150.869
20
90.655
30
0
0
VERTEX
8
RASTER
10
150.83
20
90.464
30
0
0
VERTEX
8
RASTER
10
150.869
20
90.279
30
0
0
VERTEX
8
RASTER
10
150.987
20
90.121
30
0
0
VERTEX
8
RASTER
10
151.184
20
90.011
30
0
0
VERTEX
8
RASTER
10
151.46
20
89.969
30
0
0
SEQEND
8
RASTER
0
POLYLINE
8
RASTER
66
1
70
1
0
VERTEX
8
RASTER
10
130.612
20
80.198
30
0
0
VERTEX
8
RASTER
10
129.85
20
80.605
30
0
0
VERTEX
8
RASTER
10
129.105
20
81.042
30
0
0
VERTEX
8
RASTER
10
128.377
20
81.508
30
0
0
VERTEX
8
RASTER
10
127.669
20
82.002
30
0
0
VERTEX
8
RASTER
10
126.98
20
82.523
30
0
0
VERTEX
8
RASTER
10
126.312
20
83.071
30
0
0
VERTEX
8
RASTER
10
125.666
20
83.645
30
0
0
VERTEX
8
RASTER
10
125.044
20
84.244
30
0
0
VERTEX
8
RASTER
10
134.236
20
93.436
30
0
0
VERTEX
8
RASTER
10
134.491
20
93.191
30
0
0
VERTEX
8
RASTER
10
134.755
20
92.956
30
0
0
VERTEX
8
RASTER
10
135.028
20
92.732
30
0
0
VERTEX
8
RASTER
10
135.31
20
92.519
30
0
0
VERTEX
8
RASTER
10
135.6
20
92.317
30
0
0
VERTEX
8
RASTER
10
135.898
20
92.126
30
0
0
VERTEX
8
RASTER
10
136.202
20
91.948
30
0
0
VERTEX
8
RASTER
10
136.514
20
91.781
30
0
0
SEQEND
8
RASTER
0
POLYLINE
8
RASTER
66
1
70
1
0
VERTEX
8
RASTER
10
129.809
20
86.54
30
0
0
VERTEX
8
RASTER
10
133.169
20
86.54
30
0
0
VERTEX
8
RASTER
10
133.44
20
86.597
30
0
0
VERTEX
8
RASTER
10
133.623
20
86.746
30
0
0
VERTEX
8
RASTER
10
133.722
20
86.958
30
0
0
VERTEX
8
RASTER
10
133.739
20
87.2
30
0
0
VERTEX
8
RASTER
10
133.678
20
87.443
30
0
0
VERTEX
8
RASTER
10
133.541
20
87.654
30
0
0
VERTEX
8
RASTER
10
133.33
20
87.804
30
0
0
VERTEX
8
RASTER
10
133.049
20
87.86
30
0
0
VERTEX
8
RASTER
10
133.026
20
88.146
30
0
0
VERTEX
8
RASTER
10
132.888
20
88.37
30
0
0
VERTEX
8
RASTER
10
132.665
20
88.527
30
0
0
VERTEX
8
RASTER
10
132.389
20
88.61
30
0
0
VERTEX
8
RASTER
10
132.091
20
88.615
30
0
0
VERTEX
8
RASTER
10
131.801
20
88.535
30
0
0
VERTEX
8
RASTER
10
131.55
20
88.366
30
0
0
VERTEX
8
RASTER
10
131.369
20
88.1
30
0
0
VERTEX
8
RASTER
10
131.16
20
88.281
30
0
0
VERTEX
8
RASTER
10
130.906
20
88.38
30
0
0
VERTEX
8
RASTER
10
130.633
20
88.402
30
0
0
VERTEX
8
RASTER
10
130.364
20
88.355
30
0
0
VERTEX
8
RASTER
10
130.124
20
88.247
30
0
0
VERTEX
8
RASTER
10
129.935
20
88.083
30
0
0
VERTEX
8
RASTER
10
129.822
20
87.872
30
0
0
VERTEX
8
RASTER
10
129.809
20
87.62
30
0
0
VERTEX
8
RASTER
10
129.534
20
87.539
30
0
0
VERTEX
8
RASTER
10
129.337
20
87.401
30
0
0
VERTEX
8
RASTER
10
129.219
20
87.226
30
0
0
VERTEX
8
RASTER
10
129.179
20
87.035
30
0
0
VERTEX
8
RASTER
10
129.219
20
86.85
30
0
0
VERTEX
8
RASTER
10
129.337
20
86.692
30
0
0
VERTEX
8
RASTER
10
129.534
20
86.582
30
0
0
VERTEX
8
RASTER
10
129.809
20
86.54
30
0
0
SEQEND
8
RASTER
0
POLYLINE
8
RASTER
66
1
70
1
0
VERTEX
8
RASTER
10
120.998
20
109.788
30
0
0
VERTEX
8
RASTER
10
121.405
20
110.55
30
0
0
VERTEX
8
RASTER
10
121.842
20
111.295
30
0
0
VERTEX
8
RASTER
10
122.308
20
112.023
30
0
0
VERTEX
8
RASTER
10
122.802
20
112.731
30
0
0
VERTEX
8
RASTER
10
123.323
20
113.42
30
0
0
VERTEX
8
RASTER
10
123.871
20
114.088
30
0
0
VERTEX
8
RASTER
10
124.445
20
114.734
30
0
0
VERTEX
8
RASTER
10
125.044
20
115.356
30
0
0
VERTEX
8
RASTER
10
134.236
20
106.164
30
0
0
VERTEX
8
RASTER
10
133.991
20
105.909
30
0
0
VERTEX
8
RASTER
10
133.756
20
105.645
30
0
0
VERTEX
8
RASTER
10
133.532
20
105.372
30
0
0
VERTEX
8
RASTER
10
133.319
20
105.09
30
0
0
VERTEX
8
RASTER
10
133.117
20
104.8
30
0
0
VERTEX
8
RASTER
10
132.926
20
104.502
30
0
0
VERTEX
8
RASTER
10
132.748
20
104.198
30
0
0
VERTEX
8
RASTER
10
132.581
20
103.886
30
0
0
SEQEND
8
RASTER
0
POLYLINE
8
RASTER
66
1
70
1
0
VERTEX
8
RASTER
10
126.38
20
108.191
30
0
0
VERTEX
8
RASTER
10
129.74
20
108.191
30
0
0
VERTEX
8
RASTER
10
130.011
20
108.247
30
0
0
VERTEX
8
RASTER
10
130.194
20
108.397
30
0
0
VERTEX
8
RASTER
10
130.293
20
108.608
30
0
0
VERTEX
8
RASTER
10
130.31
20
108.851
30
0
0
VERTEX
8
RASTER
10
130.249
20
109.093
30
0
0
VERTEX
8
RASTER
10
130.111
20
109.304
30
0
0
VERTEX
8
RASTER
10
129.901
20
109.454
30
0
0
VERTEX
8
RASTER
10
129.62
20
109.511
30
0
0
VERTEX
8
RASTER
10
129.597
20
109.797
30
0
0
VERTEX
8
RASTER
10
129.459
20
110.021
30
0
0
VERTEX
8
RASTER
10
129.236
20
110.177
30
0
0
VERTEX
8
RASTER
10
128.96
20
110.261
30
0
0
VERTEX
8
RASTER
10
128.662
20
110.265
30
0
0
VERTEX
8
RASTER
10
128.371
20
110.186
30
0
0
VERTEX
8
RASTER
10
128.121
20
110.016
30
0
0
VERTEX
8
RASTER
10
127.94
20
109.751
30
0
0
VERTEX
8
RASTER
10
127.73
20
109.932
30
0
0
VERTEX
8
RASTER
10
127.477
20
110.03
30
0
0
VERTEX
8
RASTER
10
127.204
20
110.052
30
0
0
VERTEX
8
RASTER
10
126.935
20
110.006
30
0
0
VERTEX
8
RASTER
10
126.695
20
109.897
30
0
0
VERTEX
8
RASTER
10
126.506
20
109.734
30
0
0
VERTEX
8
RASTER
10
126.393
20
109.523
30
0
0
VERTEX
8
RASTER
10
126.38
20
109.271
30
0
0
VERTEX
8
RASTER
10
126.105
20
109.19
30
0
0
VERTEX
8
RASTER
10
125.908
20
109.051
30
0
0
VERTEX
8
RASTER
10
125.79
20
108.876
30
0
0
VERTEX
8
RASTER
10
125.75
20
108.686
30
0
0
VERTEX
8
RASTER
10
125.79
20
108.501
30
0
0
VERTEX
8
RASTER
10
125.908
20
108.343
30
0
0
VERTEX
8
RASTER
10
126.105
20
108.232
30
0
0
VERTEX
8
RASTER
10
126.38
20
108.191
30
0
0
SEQEND
8
RASTER
0
POLYLINE
8
RASTER
66
1
70
1
0
VERTEX
8
RASTER
10
150.588
20
119.402
30
0
0
VERTEX
8
RASTER
10
151.35
20
118.995
30
0
0
VERTEX
8
RASTER
10
152.095
20
118.558
30
0
0
VERTEX
8
RASTER
10
152.823
20
118.092
30
0
0
VERTEX
8
RASTER
10
153.531
20
117.598
30
0
0
VERTEX
8
RASTER
10
154.22
20
117.077
30
0
0
VERTEX
8
RASTER
10
154.888
20
116.529
30
0
0
VERTEX
8
RASTER
10
155.534
20
115.955
30
0
0
VERTEX
8
RASTER
10
156.156
20
115.356
30
0
0
VERTEX
8
RASTER
10
146.964
20
106.164
30
0
0
VERTEX
8
RASTER
10
146.709
20
106.409
30
0
0
VERTEX
8
RASTER
10
146.445
20
106.644
30
0
0
VERTEX
8
RASTER
10
146.172
20
106.868
30
0
0
VERTEX
8
RASTER
10
145.89
20
107.081
30
0
0
VERTEX
8
RASTER
10
145.6
20
107.283
30
0
0
VERTEX
8
RASTER
10
145.302
20
107.474
30
0
0
VERTEX
8
RASTER
10
144.998
20
107.652
30
0
0
VERTEX
8
RASTER
10
144.686
20
107.819
30
0
0
SEQEND
8
RASTER
0
POLYLINE
8
RASTER
66
1
70
1
0
VERTEX
8
RASTER
10
148.031
20
111.62
30
0
0
VERTEX
8
RASTER
10
151.391
20
111.62
30
0
0
VERTEX
8
RASTER
10
151.661
20
111.676
30
0
0
VERTEX
8
RASTER
10
151.844
20
111.826
30
0
0
VERTEX
8
RASTER
10
151.943
20
112.037
30
0
0
VERTEX
8
RASTER
10
151.961
20
112.28
30
0
0
VERTEX
8
RASTER
10
151.899
20
112.522
30
0
0
VERTEX
8
RASTER
10
151.762
20
112.734
30
0
0
VERTEX
8
RASTER
10
151.551
20
112.883
30
0
0
VERTEX
8
RASTER
10
151.271
20
112.94
30
0
0
VERTEX
8
RASTER
10
151.248
20
113.226
30
0
0
VERTEX
8
RASTER
10
151.109
20
113.45
30
0
0
VERTEX
8
RASTER
10
150.887
20
113.606
30
0
0
VERTEX
8
RASTER
10
150.611
20
113.69
30
0
0
VERTEX
8
RASTER
10
150.312
20
113.694
30
0
0
VERTEX
8
RASTER
10
150.022
20
113.615
30
0
0
VERTEX
8
RASTER
10
149.771
20
113.445
30
0
0
VERTEX
8
RASTER
10
149.591
20
113.18
30
0
0
VERTEX
8
RASTER
10
149.381
20
113.361
30
0
0
VERTEX
8
RASTER
10
149.128
20
113.459
30
0
0
VERTEX
8
RASTER
10
148.854
20
113.481
30
0
0
VERTEX
8
RASTER
10
148.586
20
113.435
30
0
0
VERTEX
8
RASTER
10
148.345
20
113.326
30
0
0
VERTEX
8
RASTER
10
148.156
20
113.163
30
0
0
VERTEX
8
RASTER
10
148.044
20
112.952
30
0
0
VERTEX
8
RASTER
10
148.031
20
112.7
30
0
0
VERTEX
8
RASTER
10
147.755
20
112.619
30
0
0
VERTEX
8
RASTER
10
147.558
20
112.48
30
0
0
VERTEX
8
RASTER
10
147.44
20
112.305
30
0
0
VERTEX
8
RASTER
10
147.401
20
112.115
30
0
0
VERTEX
8
RASTER
10
147.44
20
111.93
30
0
0
VERTEX
8
RASTER
10
147.558
20
111.772
30
0
0
VERTEX
8
RASTER
10
147.755
20
111.661
30
0
0
VERTEX
8
RASTER
10
148.031
20
111.62
30
0
0
SEQEND
8
RASTER
0
CIRCLE
8
RASTER
10
140.6
20
113.52
30
0
40
0.63
0
CIRCLE
8
RASTER
10
140.6
20
113.52
30
0
40
0.35
0
POLYLINE
8
RASTER
66
1
70
1
0
VERTEX
8
RASTER
10
140.32
20
112.68
30
0
0
VERTEX
8
RASTER
10
140.88
20
112.68
30
0
0
VERTEX
8
RASTER
10
140.88
20
111.98
30
0
0
VERTEX
8
RASTER
10
142.14
20
111.98
30
0
0
VERTEX
8
RASTER
10
142.14
20
111.56
30
0
0
VERTEX
8
RASTER
10
140.88
20
111.56
30
0
0
VERTEX
8
RASTER
10
140.88
20
109.6
30
0
0
VERTEX
8
RASTER
10
141.043
20
109.567
30
0
0
VERTEX
8
RASTER
10
141.215
20
109.572
30
0
0
VERTEX
8
RASTER
10
141.389
20
109.612
30
0
0
VERTEX
8
RASTER
10
141.563
20
109.688
30
0
0
VERTEX
8
RASTER
10
141.729
20
109.796
30
0
0
VERTEX
8
RASTER
10
141.884
20
109.935
30
0
0
VERTEX
8
RASTER
10
142.023
20
110.103
30
0
0
VERTEX
8
RASTER
10
142.14
20
110.3
30
0
0
VERTEX
8
RASTER
10
142.84
20
109.74
30
0
0
VERTEX
8
RASTER
10
142.704
20
109.334
30
0
0
VERTEX
8
RASTER
10
142.51
20
108.961
30
0
0
VERTEX
8
RASTER
10
142.267
20
108.628
30
0
0
VERTEX
8
RASTER
10
141.983
20
108.34
30
0
0
VERTEX
8
RASTER
10
141.666
20
108.105
30
0
0
VERTEX
8
RASTER
10
141.324
20
107.929
30
0
0
VERTEX
8
RASTER
10
140.966
20
107.818
30
0
0
VERTEX
8
RASTER
10
140.6
20
107.78
30
0
0
VERTEX
8
RASTER
10
140.234
20
107.818
30
0
0
VERTEX
8
RASTER
10
139.876
20
107.929
30
0
0
VERTEX
8
RASTER
10
139.534
20
108.105
30
0
0
VERTEX
8
RASTER
10
139.218
20
108.34
30
0
0
VERTEX
8
RASTER
10
138.933
20
108.628
30
0
0
VERTEX
8
RASTER
10
138.69
20
108.961
30
0
0
VERTEX
8
RASTER
10
138.496
20
109.334
30
0
0
VERTEX
8
RASTER
10
138.36
20
109.74
30
0
0
VERTEX
8
RASTER
10
139.06
20
110.3
30
0
0
VERTEX
8
RASTER
10
139.177
20
110.103
30
0
0
VERTEX
8
RASTER
10
139.316
20
109.935
30
0
0
VERTEX
8
RASTER
10
139.471
20
109.796
30
0
0
VERTEX
8
RASTER
10
139.638
20
109.688
30
0
0
VERTEX
8
RASTER
10
139.811
20
109.612
30
0
0
VERTEX
8
RASTER
10
139.985
20
109.572
30
0
0
VERTEX
8
RASTER
10
140.157
20
109.567
30
0
0
VERTEX
8
RASTER
10
140.32
20
109.6
30
0
0
VERTEX
8
RASTER
10
140.32
20
111.56
30
0
0
VERTEX
8
RASTER
10
139.06
20
111.56
30
0
0
VERTEX
8
RASTER
10
139.06
20
111.98
30
0
0
VERTEX
8
RASTER
10
140.32
20
111.98
30
0
0
SEQEND
8
RASTER
0
CIRCLE
8
CUT
10
229.2
20
88.4
30
0
40
48
0
CIRCLE
8
CUT
10
229.2
20
88.4
30
0
40
35.4
0
POLYLINE
8
CUT
66
1
70
1
0
VERTEX
8
CUT
10
227.6
20
134.9
30
0
0
VERTEX
8
CUT
10
230.8
20
134.9
30
0
0
VERTEX
8
CUT
10
230.8
20
127.9
30
0
0
VERTEX
8
CUT
10
227.6
20
127.9
30
0
0
SEQEND
8
CUT
0
CIRCLE
8
RASTER
10
229.2
20
88.4
30
0
40
47
0
CIRCLE
8
RASTER
10
229.2
20
88.4
30
0
40
46.4
0
POLYLINE
8
RASTER
66
1
70
1
0
VERTEX
8
RASTER
10
229.2
20
124.1
30
0
0
VERTEX
8
RASTER
10
228.7
20
125.2
30
0
0
VERTEX
8
RASTER
10
229.2
20
125.9
30
0
0
VERTEX
8
RASTER
10
229.7
20
125.2
30
0
0
SEQEND
8
RASTER
0
POLYLINE
8
RASTER
66
1
70
1
0
VERTEX
8
RASTER
10
229.2
20
125.9
30
0
0
VERTEX
8
RASTER
10
228.926
20
125.679
30
0
0
VERTEX
8
RASTER
10
228.642
20
125.539
30
0
0
VERTEX
8
RASTER
10
228.365
20
125.476
30
0
0
VERTEX
8
RASTER
10
228.113
20
125.488
30
0
0
VERTEX
8
RASTER
10
227.902
20
125.569
30
0
0
VERTEX
8
RASTER
10
227.752
20
125.717
30
0
0
VERTEX
8
RASTER
10
227.678
20
125.929
30
0
0
VERTEX
8
RASTER
10
227.7
20
126.2
30
0
0
VERTEX
8
RASTER
10
227.759
20
126.36
30
0
0
VERTEX
8
RASTER
10
227.856
20
126.469
30
0
0
VERTEX
8
RASTER
10
227.981
20
126.53
30
0
0
VERTEX
8
RASTER
10
228.125
20
126.55
30
0
0
VERTEX
8
RASTER
10
228.278
20
126.532
30
0
0
VERTEX
8
RASTER
10
228.431
20
126.481
30
0
0
VERTEX
8
RASTER
10
228.575
20
126.402
30
0
0
VERTEX
8
RASTER
10
228.7
20
126.3
30
0
0
VERTEX
8
RASTER
10
228.9
20
126.7
30
0
0
VERTEX
8
RASTER
10
229.5
20
126.7
30
0
0
VERTEX
8
RASTER
10
229.7
20
126.3
30
0
0
VERTEX
8
RASTER
10
229.825
20
126.402
30
0
0
VERTEX
8
RASTER
10
229.969
20
126.481
30
0
0
VERTEX
8
RASTER
10
230.122
20
126.532
30
0
0
VERTEX
8
RASTER
10
230.275
20
126.55
30
0
0
VERTEX
8
RASTER
10
230.419
20
126.53
30
0
0
VERTEX
8
RASTER
10
230.544
20
126.469
30
0
0
VERTEX
8
RASTER
10
230.641
20
126.36
30
0
0
VERTEX
8
RASTER
10
230.7
20
126.2
30
0
0
VERTEX
8
RASTER
10
230.722
20
125.929
30
0
0
VERTEX
8
RASTER
10
230.648
20
125.717
30
0
0
VERTEX
8
RASTER
10
230.498
20
125.569
30
0
0
VERTEX
8
RASTER
10
230.288
20
125.488
30
0
0
VERTEX
8
RASTER
10
230.035
20
125.476
30
0
0
VERTEX
8
RASTER
10
229.758
20
125.539
30
0
0
VERTEX
8
RASTER
10
229.474
20
125.679
30
0
0
VERTEX
8
RASTER
10
229.2
20
125.9
30
0
0
SEQEND
8
RASTER
0
POLYLINE
8
RASTER
66
1
70
1
0
VERTEX
8
RASTER
10
229.5
20
126.8
30
0
0
VERTEX
8
RASTER
10
228.9
20
126.8
30
0
0
VERTEX
8
RASTER
10
228.9
20
127.1
30
0
0
VERTEX
8
RASTER
10
229.5
20
127.1
30
0
0
SEQEND
8
RASTER
0
POLYLINE
8
RASTER
66
1
70
1
0
VERTEX
8
RASTER
10
220.648
20
45.124
30
0
0
VERTEX
8
RASTER
10
221.063
20
45.124
30
0
0
VERTEX
8
RASTER
10
221.474
20
43.564
30
0
0
VERTEX
8
RASTER
10
221.48
20
43.564
30
0
0
VERTEX
8
RASTER
10
221.948
20
45.124
30
0
0
VERTEX
8
RASTER
10
222.337
20
45.124
30
0
0
VERTEX
8
RASTER
10
222.796
20
43.564
30
0
0
VERTEX
8
RASTER
10
222.802
20
43.564
30
0
0
VERTEX
8
RASTER
10
223.223
20
45.124
30
0
0
VERTEX
8
RASTER
10
223.624
20
45.124
30
0
0
VERTEX
8
RASTER
10
223.004
20
43
30
0
0
VERTEX
8
RASTER
10
222.638
20
43
30
0
0
VERTEX
8
RASTER
10
222.14
20
44.593
30
0
0
VERTEX
8
RASTER
10
222.134
20
44.593
30
0
0
VERTEX
8
RASTER
10
221.635
20
43
30
0
0
VERTEX
8
RASTER
10
221.27
20
43
30
0
0
SEQEND
8
RASTER
0
POLYLINE
8
RASTER
66
1
70
1
0
VERTEX
8
RASTER
10
223.877
20
45.124
30
0
0
VERTEX
8
RASTER
10
224.254
20
45.124
30
0
0
VERTEX
8
RASTER
10
224.254
20
43
30
0
0
VERTEX
8
RASTER
10
223.877
20
43
30
0
0
SEQEND
8
RASTER
0
POLYLINE
8
RASTER
66
1
70
1
0
VERTEX
8
RASTER
10
224.723
20
45.124
30
0
0
VERTEX
8
RASTER
10
225.224
20
45.124
30
0
0
VERTEX
8
RASTER
10
226.211
20
43.534
30
0
0
VERTEX
8
RASTER
10
226.217
20
43.534
30
0
0
VERTEX
8
RASTER
10
226.217
20
45.124
30
0
0
VERTEX
8
RASTER
10
226.594
20
45.124
30
0
0
VERTEX
8
RASTER
10
226.594
20
43
30
0
0
VERTEX
8
RASTER
10
226.115
20
43
30
0
0
VERTEX
8
RASTER
10
225.106
20
44.641
30
0
0
VERTEX
8
RASTER
10
225.1
20
44.641
30
0
0
VERTEX
8
RASTER
10
225.1
20
43
30
0
0
VERTEX
8
RASTER
10
224.723
20
43
30
0
0
SEQEND
8
RASTER
0
POLYLINE
8
RASTER
66
1
70
1
0
VERTEX
8
RASTER
10
227.063
20
45.124
30
0
0
VERTEX
8
RASTER
10
227.816
20
45.124
30
0
0
VERTEX
8
RASTER
10
227.867
20
45.123
30
0
0
VERTEX
8
RASTER
10
227.919
20
45.121
30
0
0
VERTEX
8
RASTER
10
227.971
20
45.116
30
0
0
VERTEX
8
RASTER
10
228.023
20
45.111
30
0
0
VERTEX
8
RASTER
10
228.075
20
45.103
30
0
0
VERTEX
8
RASTER
10
228.128
20
45.094
30
0
0
VERTEX
8
RASTER
10
228.18
20
45.083
30
0
0
VERTEX
8
RASTER
10
228.233
20
45.07
30
0
0
VERTEX
8
RASTER
10
228.284
20
45.055
30
0
0
VERTEX
8
RASTER
10
228.335
20
45.039
30
0
0
VERTEX
8
RASTER
10
228.384
20
45.02
30
0
0
VERTEX
8
RASTER
10
228.432
20
44.998
30
0
0
VERTEX
8
RASTER
10
228.479
20
44.975
30
0
0
VERTEX
8
RASTER
10
228.524
20
44.949
30
0
0
VERTEX
8
RASTER
10
228.568
20
44.922
30
0
0
VERTEX
8
RASTER
10
228.611
20
44.892
30
0
0
VERTEX
8
RASTER
10
228.652
20
44.859
30
0
0
VERTEX
8
RASTER
10
228.691
20
44.824
30
0
0
VERTEX
8
RASTER
10
228.728
20
44.787
30
0
0
VERTEX
8
RASTER
10
228.763
20
44.748
30
0
0
VERTEX
8
RASTER
10
228.796
20
44.705
30
0
0
VERTEX
8
RASTER
10
228.827
20
44.661
30
0
0
VERTEX
8
RASTER
10
228.856
20
44.614
30
0
0
VERTEX
8
RASTER
10
228.884
20
44.565
30
0
0
VERTEX
8
RASTER
10
228.908
20
44.512
30
0
0
VERTEX
8
RASTER
10
228.929
20
44.457
30
0
0
VERTEX
8
RASTER
10
228.947
20
44.399
30
0
0
VERTEX
8
RASTER
10
228.962
20
44.338
30
0
0
VERTEX
8
RASTER
10
228.974
20
44.273
30
0
0
VERTEX
8
RASTER
10
228.982
20
44.206
30
0
0
VERTEX
8
RASTER
10
228.987
20
44.135
30
0
0
VERTEX
8
RASTER
10
228.989
20
44.062
30
0
0
VERTEX
8
RASTER
10
228.987
20
43.993
30
0
0
VERTEX
8
RASTER
10
228.982
20
43.927
30
0
0
VERTEX
8
RASTER
10
228.974
20
43.864
30
0
0
VERTEX
8
RASTER
10
228.962
20
43.803
30
0
0
VERTEX
8
RASTER
10
228.947
20
43.744
30
0
0
VERTEX
8
RASTER
10
228.929
20
43.687
30
0
0
VERTEX
8
RASTER
10
228.908
20
43.633
30
0
0
VERTEX
8
RASTER
10
228.884
20
43.582
30
0
0
VERTEX
8
RASTER
10
228.856
20
43.533
30
0
0
VERTEX
8
RASTER
10
228.827
20
43.486
30
0
0
VERTEX
8
RASTER
10
228.796
20
43.441
30
0
0
VERTEX
8
RASTER
10
228.763
20
43.399
30
0
0
VERTEX
8
RASTER
10
228.728
20
43.359
30
0
0
VERTEX
8
RASTER
10
228.691
20
43.321
30
0
0
VERTEX
8
RASTER
10
228.652
20
43.285
30
0
0
VERTEX
8
RASTER
10
228.611
20
43.252
30
0
0
VERTEX
8
RASTER
10
228.568
20
43.221
30
0
0
VERTEX
8
RASTER
10
228.524
20
43.192
30
0
0
VERTEX
8
RASTER
10
228.479
20
43.165
30
0
0
VERTEX
8
RASTER
10
228.432
20
43.14
30
0
0
VERTEX
8
RASTER
10
228.384
20
43.117
30
0
0
VERTEX
8
RASTER
10
228.335
20
43.096
30
0
0
VERTEX
8
RASTER
10
228.284
20
43.078
30
0
0
VERTEX
8
RASTER
10
228.233
20
43.062
30
0
0
VERTEX
8
RASTER
10
228.18
20
43.047
30
0
0
VERTEX
8
RASTER
10
228.128
20
43.035
30
0
0
VERTEX
8
RASTER
10
228.075
20
43.024
30
0
0
VERTEX
8
RASTER
10
228.023
20
43.015
30
0
0
VERTEX
8
RASTER
10
227.971
20
43.009
30
0
0
VERTEX
8
RASTER
10
227.919
20
43.004
30
0
0
VERTEX
8
RASTER
10
227.867
20
43.001
30
0
0
VERTEX
8
RASTER
10
227.816
20
43
30
0
0
VERTEX
8
RASTER
10
227.063
20
43
30
0
0
SEQEND
8
RASTER
0
POLYLINE
8
RASTER
66
1
70
1
0
VERTEX
8
RASTER
10
227.755
20
43.33
30
0
0
VERTEX
8
RASTER
10
227.792
20
43.331
30
0
0
VERTEX
8
RASTER
10
227.829
20
43.332
30
0
0
VERTEX
8
RASTER
10
227.866
20
43.335
30
0
0
VERTEX
8
RASTER
10
227.903
20
43.339
30
0
0
VERTEX
8
RASTER
10
227.939
20
43.343
30
0
0
VERTEX
8
RASTER
10
227.976
20
43.349
30
0
0
VERTEX
8
RASTER
10
228.013
20
43.356
30
0
0
VERTEX
8
RASTER
10
228.05
20
43.365
30
0
0
VERTEX
8
RASTER
10
228.086
20
43.374
30
0
0
VERTEX
8
RASTER
10
228.121
20
43.385
30
0
0
VERTEX
8
RASTER
10
228.156
20
43.397
30
0
0
VERTEX
8
RASTER
10
228.189
20
43.411
30
0
0
VERTEX
8
RASTER
10
228.222
20
43.426
30
0
0
VERTEX
8
RASTER
10
228.254
20
43.443
30
0
0
VERTEX
8
RASTER
10
228.285
20
43.462
30
0
0
VERTEX
8
RASTER
10
228.315
20
43.482
30
0
0
VERTEX
8
RASTER
10
228.344
20
43.503
30
0
0
VERTEX
8
RASTER
10
228.372
20
43.526
30
0
0
VERTEX
8
RASTER
10
228.398
20
43.552
30
0
0
VERTEX
8
RASTER
10
228.423
20
43.579
30
0
0
VERTEX
8
RASTER
10
228.446
20
43.607
30
0
0
VERTEX
8
RASTER
10
228.468
20
43.638
30
0
0
VERTEX
8
RASTER
10
228.489
20
43.671
30
0
0
VERTEX
8
RASTER
10
228.509
20
43.705
30
0
0
VERTEX
8
RASTER
10
228.526
20
43.741
30
0
0
VERTEX
8
RASTER
10
228.541
20
43.78
30
0
0
VERTEX
8
RASTER
10
228.554
20
43.821
30
0
0
VERTEX
8
RASTER
10
228.565
20
43.865
30
0
0
VERTEX
8
RASTER
10
228.573
20
43.911
30
0
0
VERTEX
8
RASTER
10
228.579
20
43.959
30
0
0
VERTEX
8
RASTER
10
228.582
20
44.009
30
0
0
VERTEX
8
RASTER
10
228.584
20
44.062
30
0
0
VERTEX
8
RASTER
10
228.582
20
44.118
30
0
0
VERTEX
8
RASTER
10
228.579
20
44.171
30
0
0
VERTEX
8
RASTER
10
228.573
20
44.221
30
0
0
VERTEX
8
RASTER
10
228.565
20
44.269
30
0
0
VERTEX
8
RASTER
10
228.554
20
44.314
30
0
0
VERTEX
8
RASTER
10
228.541
20
44.357
30
0
0
VERTEX
8
RASTER
10
228.526
20
44.397
30
0
0
VERTEX
8
RASTER
10
228.509
20
44.434
30
0
0
VERTEX
8
RASTER
10
228.489
20
44.469
30
0
0
VERTEX
8
RASTER
10
228.468
20
44.502
30
0
0
VERTEX
8
RASTER
10
228.446
20
44.533
30
0
0
VERTEX
8
RASTER
10
228.423
20
44.562
30
0
0
VERTEX
8
RASTER
10
228.398
20
44.589
30
0
0
VERTEX
8
RASTER
10
228.372
20
44.615
30
0
0
VERTEX
8
RASTER
10
228.344
20
44.638
30
0
0
VERTEX
8
RASTER
10
228.315
20
44.659
30
0
0
VERTEX
8
RASTER
10
228.285
20
44.678
30
0
0
VERTEX
8
RASTER
10
228.254
20
44.696
30
0
0
VERTEX
8
RASTER
10
228.222
20
44.713
30
0
0
VERTEX
8
RASTER
10
228.189
20
44.727
30
0
0
VERTEX
8
RASTER
10
228.156
20
44.74
30
0
0
VERTEX
8
RASTER
10
228.121
20
44.752
30
0
0
VERTEX
8
RASTER
10
228.086
20
44.762
30
0
0
VERTEX
8
RASTER
10
228.05
20
44.77
30
0
0
VERTEX
8
RASTER
10
228.013
20
44.777
30
0
0
VERTEX
8
RASTER
10
227.976
20
44.783
30
0
0
VERTEX
8
RASTER
10
227.939
20
44.788
30
0
0
VERTEX
8
RASTER
10
227.903
20
44.793
30
0
0
VERTEX
8
RASTER
10
227.866
20
44.796
30
0
0
VERTEX
8
RASTER
10
227.829
20
44.798
30
0
0
VERTEX
8
RASTER
10
227.792
20
44.8
30
0
0
VERTEX
8
RASTER
10
227.755
20
44.8
30
0
0
VERTEX
8
RASTER
10
227.441
20
44.8
30
0
0
VERTEX
8
RASTER
10
227.441
20
43.33
30
0
0
SEQEND
8
RASTER
0
POLYLINE
8
RASTER
66
1
70
1
0
VERTEX
8
RASTER
10
230.105
20
45.124
30
0
0
VERTEX
8
RASTER
10
230.605
20
45.124
30
0
0
VERTEX
8
RASTER
10
231.593
20
43.534
30
0
0
VERTEX
8
RASTER
10
231.599
20
43.534
30
0
0
VERTEX
8
RASTER
10
231.599
20
45.124
30
0
0
VERTEX
8
RASTER
10
231.977
20
45.124
30
0
0
VERTEX
8
RASTER
10
231.977
20
43
30
0
0
VERTEX
8
RASTER
10
231.497
20
43
30
0
0
VERTEX
8
RASTER
10
230.489
20
44.641
30
0
0
VERTEX
8
RASTER
10
230.483
20
44.641
30
0
0
VERTEX
8
RASTER
10
230.483
20
43
30
0
0
VERTEX
8
RASTER
10
230.105
20
43
30
0
0
SEQEND
8
RASTER
0
POLYLINE
8
RASTER
66
1
70
1
0
VERTEX
8
RASTER
10
232.343
20
44.068
30
0
0
VERTEX
8
RASTER
10
232.344
20
44.131
30
0
0
VERTEX
8
RASTER
10
232.348
20
44.192
30
0
0
VERTEX
8
RASTER
10
232.355
20
44.252
30
0
0
VERTEX
8
RASTER
10
232.364
20
44.311
30
0
0
VERTEX
8
RASTER
10
232.376
20
44.367
30
0
0
VERTEX
8
RASTER
10
232.391
20
44.423
30
0
0
VERTEX
8
RASTER
10
232.408
20
44.476
30
0
0
VERTEX
8
RASTER
10
232.428
20
44.529
30
0
0
VERTEX
8
RASTER
10
232.45
20
44.579
30
0
0
VERTEX
8
RASTER
10
232.475
20
44.627
30
0
0
VERTEX
8
RASTER
10
232.501
20
44.674
30
0
0
VERTEX
8
RASTER
10
232.53
20
44.719
30
0
0
VERTEX
8
RASTER
10
232.561
20
44.761
30
0
0
VERTEX
8
RASTER
10
232.593
20
44.802
30
0
0
VERTEX
8
RASTER
10
232.628
20
44.841
30
0
0
VERTEX
8
RASTER
10
232.665
20
44.878
30
0
0
VERTEX
8
RASTER
10
232.704
20
44.913
30
0
0
VERTEX
8
RASTER
10
232.744
20
44.946
30
0
0
VERTEX
8
RASTER
10
232.787
20
44.977
30
0
0
VERTEX
8
RASTER
10
232.831
20
45.006
30
0
0
VERTEX
8
RASTER
10
232.877
20
45.032
30
0
0
VERTEX
8
RASTER
10
232.924
20
45.057
30
0
0
VERTEX
8
RASTER
10
232.974
20
45.079
30
0
0
VERTEX
8
RASTER
10
233.025
20
45.1
30
0
0
VERTEX
8
RASTER
10
233.078
20
45.118
30
0
0
VERTEX
8
RASTER
10
233.132
20
45.134
30
0
0
VERTEX
8
RASTER
10
233.187
20
45.148
30
0
0
VERTEX
8
RASTER
10
233.243
20
45.159
30
0
0
VERTEX
8
RASTER
10
233.3
20
45.167
30
0
0
VERTEX
8
RASTER
10
233.359
20
45.173
30
0
0
VERTEX
8
RASTER
10
233.419
20
45.177
30
0
0
VERTEX
8
RASTER
10
233.48
20
45.178
30
0
0
VERTEX
8
RASTER
10
233.541
20
45.177
30
0
0
VERTEX
8
RASTER
10
233.602
20
45.173
30
0
0
VERTEX
8
RASTER
10
233.661
20
45.167
30
0
0
VERTEX
8
RASTER
10
233.719
20
45.159
30
0
0
VERTEX
8
RASTER
10
233.776
20
45.148
30
0
0
VERTEX
8
RASTER
10
233.831
20
45.134
30
0
0
VERTEX
8
RASTER
10
233.885
20
45.118
30
0
0
VERTEX
8
RASTER
10
233.938
20
45.1
30
0
0
VERTEX
8
RASTER
10
233.99
20
45.079
30
0
0
VERTEX
8
RASTER
10
234.04
20
45.057
30
0
0
VERTEX
8
RASTER
10
234.088
20
45.032
30
0
0
VERTEX
8
RASTER
10
234.134
20
45.006
30
0
0
VERTEX
8
RASTER
10
234.179
20
44.977
30
0
0
VERTEX
8
RASTER
10
234.221
20
44.946
30
0
0
VERTEX
8
RASTER
10
234.262
20
44.913
30
0
0
VERTEX
8
RASTER
10
234.301
20
44.878
30
0
0
VERTEX
8
RASTER
10
234.339
20
44.841
30
0
0
VERTEX
8
RASTER
10
234.374
20
44.802
30
0
0
VERTEX
8
RASTER
10
234.407
20
44.761
30
0
0
VERTEX
8
RASTER
10
234.438
20
44.719
30
0
0
VERTEX
8
RASTER
10
234.466
20
44.674
30
0
0
VERTEX
8
RASTER
10
234.493
20
44.627
30
0
0
VERTEX
8
RASTER
10
234.518
20
44.579
30
0
0
VERTEX
8
RASTER
10
234.54
20
44.529
30
0
0
VERTEX
8
RASTER
10
234.56
20
44.476
30
0
0
VERTEX
8
RASTER
10
234.577
20
44.423
30
0
0
VERTEX
8
RASTER
10
234.592
20
44.367
30
0
0
VERTEX
8
RASTER
10
234.604
20
44.311
30
0
0
VERTEX
8
RASTER
10
234.613
20
44.252
30
0
0
VERTEX
8
RASTER
10
234.62
20
44.192
30
0
0
VERTEX
8
RASTER
10
234.624
20
44.131
30
0
0
VERTEX
8
RASTER
10
234.626
20
44.068
30
0
0
VERTEX
8
RASTER
10
234.624
20
44.006
30
0
0
VERTEX
8
RASTER
10
234.62
20
43.946
30
0
0
VERTEX
8
RASTER
10
234.613
20
43.887
30
0
0
VERTEX
8
RASTER
10
234.604
20
43.83
30
0
0
VERTEX
8
RASTER
10
234.592
20
43.774
30
0
0
VERTEX
8
RASTER
10
234.577
20
43.719
30
0
0
VERTEX
8
RASTER
10
234.56
20
43.666
30
0
0
VERTEX
8
RASTER
10
234.54
20
43.614
30
0
0
VERTEX
8
RASTER
10
234.518
20
43.563
30
0
0
VERTEX
8
RASTER
10
234.493
20
43.514
30
0
0
VERTEX
8
RASTER
10
234.466
20
43.467
30
0
0
VERTEX
8
RASTER
10
234.438
20
43.422
30
0
0
VERTEX
8
RASTER
10
234.407
20
43.379
30
0
0
VERTEX
8
RASTER
10
234.374
20
43.337
30
0
0
VERTEX
8
RASTER
10
234.339
20
43.298
30
0
0
VERTEX
8
RASTER
10
234.301
20
43.26
30
0
0
VERTEX
8
RASTER
10
234.262
20
43.223
30
0
0
VERTEX
8
RASTER
10
234.221
20
43.189
30
0
0
VERTEX
8
RASTER
10
234.179
20
43.157
30
0
0
VERTEX
8
RASTER
10
234.134
20
43.128
30
0
0
VERTEX
8
RASTER
10
234.088
20
43.1
30
0
0
VERTEX
8
RASTER
10
234.04
20
43.074
30
0
0
VERTEX
8
RASTER
10
233.99
20
43.05
30
0
0
VERTEX
8
RASTER
10
233.938
20
43.029
30
0
0
VERTEX
8
RASTER
10
233.885
20
43.009
30
0
0
VERTEX
8
RASTER
10
233.831
20
42.992
30
0
0
VERTEX
8
RASTER
10
233.776
20
42.978
30
0
0
VERTEX
8
RASTER
10
233.719
20
42.967
30
0
0
VERTEX
8
RASTER
10
233.661
20
42.958
30
0
0
VERTEX
8
RASTER
10
233.602
20
42.951
30
0
0
VERTEX
8
RASTER
10
233.541
20
42.947
30
0
0
VERTEX
8
RASTER
10
233.48
20
42.946
30
0
0
VERTEX
8
RASTER
10
233.419
20
42.947
30
0
0
VERTEX
8
RASTER
10
233.359
20
42.951
30
0
0
VERTEX
8
RASTER
10
233.3
20
42.958
30
0
0
VERTEX
8
RASTER
10
233.243
20
42.967
30
0
0
VERTEX
8
RASTER
10
233.187
20
42.978
30
0
0
VERTEX
8
RASTER
10
233.132
20
42.992
30
0
0
VERTEX
8
RASTER
10
233.078
20
43.009
30
0
0
VERTEX
8
RASTER
10
233.025
20
43.029
30
0
0
VERTEX
8
RASTER
10
232.974
20
43.05
30
0
0
VERTEX
8
RASTER
10
232.924
20
43.074
30
0
0
VERTEX
8
RASTER
10
232.877
20
43.1
30
0
0
VERTEX
8
RASTER
10
232.831
20
43.128
30
0
0
VERTEX
8
RASTER
10
232.787
20
43.157
30
0
0
VERTEX
8
RASTER
10
232.744
20
43.189
30
0
0
VERTEX
8
RASTER
10
232.704
20
43.223
30
0
0
VERTEX
8
RASTER
10
232.665
20
43.26
30
0
0
VERTEX
8
RASTER
10
232.628
20
43.298
30
0
0
VERTEX
8
RASTER
10
232.593
20
43.337
30
0
0
VERTEX
8
RASTER
10
232.561
20
43.379
30
0
0
VERTEX
8
RASTER
10
232.53
20
43.422
30
0
0
VERTEX
8
RASTER
10
232.501
20
43.467
30
0
0
VERTEX
8
RASTER
10
232.475
20
43.514
30
0
0
VERTEX
8
RASTER
10
232.45
20
43.563
30
0
0
VERTEX
8
RASTER
10
232.428
20
43.614
30
0
0
VERTEX
8
RASTER
10
232.408
20
43.666
30
0
0
VERTEX
8
RASTER
10
232.391
20
43.719
30
0
0
VERTEX
8
RASTER
10
232.376
20
43.774
30
0
0
VERTEX
8
RASTER
10
232.364
20
43.83
30
0
0
VERTEX
8
RASTER
10
232.355
20
43.887
30
0
0
VERTEX
8
RASTER
10
232.348
20
43.946
30
0
0
VERTEX
8
RASTER
10
232.344
20
44.006
30
0
0
VERTEX
8
RASTER
10
232.343
20
44.068
30
0
0
SEQEND
8
RASTER
0
POLYLINE
8
RASTER
66
1
70
1
0
VERTEX
8
RASTER
10
232.754
20
44.068
30
0
0
VERTEX
8
RASTER
10
232.754
20
44.026
30
0
0
VERTEX
8
RASTER
10
232.757
20
43.984
30
0
0
VERTEX
8
RASTER
10
232.761
20
43.944
30
0
0
VERTEX
8
RASTER
10
232.767
20
43.904
30
0
0
VERTEX
8
RASTER
10
232.774
20
43.865
30
0
0
VERTEX
8
RASTER
10
232.783
20
43.828
30
0
0
VERTEX
8
RASTER
10
232.794
20
43.791
30
0
0
VERTEX
8
RASTER
10
232.806
20
43.755
30
0
0
VERTEX
8
RASTER
10
232.82
20
43.719
30
0
0
VERTEX
8
RASTER
10
232.835
20
43.686
30
0
0
VERTEX
8
RASTER
10
232.852
20
43.653
30
0
0
VERTEX
8
RASTER
10
232.87
20
43.621
30
0
0
VERTEX
8
RASTER
10
232.889
20
43.591
30
0
0
VERTEX
8
RASTER
10
232.91
20
43.562
30
0
0
VERTEX
8
RASTER
10
232.932
20
43.534
30
0
0
VERTEX
8
RASTER
10
232.956
20
43.507
30
0
0
VERTEX
8
RASTER
10
232.981
20
43.481
30
0
0
VERTEX
8
RASTER
10
233.007
20
43.457
30
0
0
VERTEX
8
RASTER
10
233.034
20
43.435
30
0
0
VERTEX
8
RASTER
10
233.063
20
43.414
30
0
0
VERTEX
8
RASTER
10
233.092
20
43.394
30
0
0
VERTEX
8
RASTER
10
233.123
20
43.376
30
0
0
VERTEX
8
RASTER
10
233.154
20
43.359
30
0
0
VERTEX
8
RASTER
10
233.187
20
43.344
30
0
0
VERTEX
8
RASTER
10
233.221
20
43.33
30
0
0
VERTEX
8
RASTER
10
233.256
20
43.318
30
0
0
VERTEX
8
RASTER
10
233.291
20
43.308
30
0
0
VERTEX
8
RASTER
10
233.328
20
43.3
30
0
0
VERTEX
8
RASTER
10
233.365
20
43.293
30
0
0
VERTEX
8
RASTER
10
233.403
20
43.289
30
0
0
VERTEX
8
RASTER
10
233.442
20
43.286
30
0
0
VERTEX
8
RASTER
10
233.483
20
43.285
30
0
0
VERTEX
8
RASTER
10
233.523
20
43.286
30
0
0
VERTEX
8
RASTER
10
233.562
20
43.289
30
0
0
VERTEX
8
RASTER
10
233.6
20
43.293
30
0
0
VERTEX
8
RASTER
10
233.638
20
43.3
30
0
0
VERTEX
8
RASTER
10
233.674
20
43.308
30
0
0
VERTEX
8
RASTER
10
233.71
20
43.318
30
0
0
VERTEX
8
RASTER
10
233.745
20
43.33
30
0
0
VERTEX
8
RASTER
10
233.779
20
43.344
30
0
0
VERTEX
8
RASTER
10
233.813
20
43.359
30
0
0
VERTEX
8
RASTER
10
233.845
20
43.376
30
0
0
VERTEX
8
RASTER
10
233.875
20
43.394
30
0
0
VERTEX
8
RASTER
10
233.905
20
43.414
30
0
0
VERTEX
8
RASTER
10
233.934
20
43.435
30
0
0
VERTEX
8
RASTER
10
233.961
20
43.457
30
0
0
VERTEX
8
RASTER
10
233.987
20
43.481
30
0
0
VERTEX
8
RASTER
10
234.012
20
43.507
30
0
0
VERTEX
8
RASTER
10
234.036
20
43.534
30
0
0
VERTEX
8
RASTER
10
234.058
20
43.562
30
0
0
VERTEX
8
RASTER
10
234.079
20
43.591
30
0
0
VERTEX
8
RASTER
10
234.098
20
43.621
30
0
0
VERTEX
8
RASTER
10
234.116
20
43.653
30
0
0
VERTEX
8
RASTER
10
234.133
20
43.686
30
0
0
VERTEX
8
RASTER
10
234.148
20
43.719
30
0
0
VERTEX
8
RASTER
10
234.162
20
43.755
30
0
0
VERTEX
8
RASTER
10
234.174
20
43.791
30
0
0
VERTEX
8
RASTER
10
234.185
20
43.828
30
0
0
VERTEX
8
RASTER
10
234.194
20
43.865
30
0
0
VERTEX
8
RASTER
10
234.201
20
43.904
30
0
0
VERTEX
8
RASTER
10
234.207
20
43.944
30
0
0
VERTEX
8
RASTER
10
234.211
20
43.984
30
0
0
VERTEX
8
RASTER
10
234.214
20
44.026
30
0
0
VERTEX
8
RASTER
10
234.215
20
44.068
30
0
0
VERTEX
8
RASTER
10
234.214
20
44.109
30
0
0
VERTEX
8
RASTER
10
234.211
20
44.149
30
0
0
VERTEX
8
RASTER
10
234.207
20
44.188
30
0
0
VERTEX
8
RASTER
10
234.201
20
44.227
30
0
0
VERTEX
8
RASTER
10
234.194
20
44.265
30
0
0
VERTEX
8
RASTER
10
234.185
20
44.302
30
0
0
VERTEX
8
RASTER
10
234.174
20
44.338
30
0
0
VERTEX
8
RASTER
10
234.162
20
44.374
30
0
0
VERTEX
8
RASTER
10
234.148
20
44.409
30
0
0
VERTEX
8
RASTER
10
234.133
20
44.442
30
0
0
VERTEX
8
RASTER
10
234.117
20
44.475
30
0
0
VERTEX
8
RASTER
10
234.099
20
44.506
30
0
0
VERTEX
8
RASTER
10
234.079
20
44.536
30
0
0
VERTEX
8
RASTER
10
234.059
20
44.565
30
0
0
VERTEX
8
RASTER
10
234.037
20
44.593
30
0
0
VERTEX
8
RASTER
10
234.014
20
44.62
30
0
0
VERTEX
8
RASTER
10
233.989
20
44.646
30
0
0
VERTEX
8
RASTER
10
233.963
20
44.67
30
0
0
VERTEX
8
RASTER
10
233.936
20
44.692
30
0
0
VERTEX
8
RASTER
10
233.908
20
44.714
30
0
0
VERTEX
8
RASTER
10
233.878
20
44.734
30
0
0
VERTEX
8
RASTER
10
233.848
20
44.752
30
0
0
VERTEX
8
RASTER
10
233.816
20
44.769
30
0
0
VERTEX
8
RASTER
10
233.783
20
44.785
30
0
0
VERTEX
8
RASTER
10
233.748
20
44.799
30
0
0
VERTEX
8
RASTER
10
233.713
20
44.811
30
0
0
VERTEX
8
RASTER
10
233.677
20
44.822
30
0
0
VERTEX
8
RASTER
10
233.64
20
44.83
30
0
0
VERTEX
8
RASTER
10
233.602
20
44.837
30
0
0
VERTEX
8
RASTER
10
233.563
20
44.841
30
0
0
VERTEX
8
RASTER
10
233.523
20
44.844
30
0
0
VERTEX
8
RASTER
10
233.483
20
44.845
30
0
0
VERTEX
8
RASTER
10
233.442
20
44.844
30
0
0
VERTEX
8
RASTER
10
233.402
20
44.841
30
0
0
VERTEX
8
RASTER
10
233.363
20
44.837
30
0
0
VERTEX
8
RASTER
10
233.325
20
44.83
30
0
0
VERTEX
8
RASTER
10
233.289
20
44.822
30
0
0
VERTEX
8
RASTER
10
233.253
20
44.811
30
0
0
VERTEX
8
RASTER
10
233.218
20
44.799
30
0
0
VERTEX
8
RASTER
10
233.184
20
44.785
30
0
0
VERTEX
8
RASTER
10
233.151
20
44.769
30
0
0
VERTEX
8
RASTER
10
233.12
20
44.752
30
0
0
VERTEX
8
RASTER
10
233.089
20
44.734
30
0
0
VERTEX
8
RASTER
10
233.06
20
44.714
30
0
0
VERTEX
8
RASTER
10
233.032
20
44.692
30
0
0
VERTEX
8
RASTER
10
233.005
20
44.67
30
0
0
VERTEX
8
RASTER
10
232.979
20
44.646
30
0
0
VERTEX
8
RASTER
10
232.955
20
44.62
30
0
0
VERTEX
8
RASTER
10
232.931
20
44.593
30
0
0
VERTEX
8
RASTER
10
232.909
20
44.565
30
0
0
VERTEX
8
RASTER
10
232.889
20
44.536
30
0
0
VERTEX
8
RASTER
10
232.869
20
44.506
30
0
0
VERTEX
8
RASTER
10
232.851
20
44.475
30
0
0
VERTEX
8
RASTER
10
232.835
20
44.442
30
0
0
VERTEX
8
RASTER
10
232.82
20
44.409
30
0
0
VERTEX
8
RASTER
10
232.806
20
44.374
30
0
0
VERTEX
8
RASTER
10
232.794
20
44.338
30
0
0
VERTEX
8
RASTER
10
232.783
20
44.302
30
0
0
VERTEX
8
RASTER
10
232.774
20
44.265
30
0
0
VERTEX
8
RASTER
10
232.767
20
44.227
30
0
0
VERTEX
8
RASTER
10
232.761
20
44.188
30
0
0
VERTEX
8
RASTER
10
232.757
20
44.149
30
0
0
VERTEX
8
RASTER
10
232.754
20
44.109
30
0
0
VERTEX
8
RASTER
10
232.754
20
44.068
30
0
0
SEQEND
8
RASTER
0
POLYLINE
8
RASTER
66
1
70
1
0
VERTEX
8
RASTER
10
234.776
20
45.124
30
0
0
VERTEX
8
RASTER
10
235.189
20
45.124
30
0
0
VERTEX
8
RASTER
10
235.6
20
43.564
30
0
0
VERTEX
8
RASTER
10
235.606
20
43.564
30
0
0
VERTEX
8
RASTER
10
236.075
20
45.124
30
0
0
VERTEX
8
RASTER
10
236.465
20
45.124
30
0
0
VERTEX
8
RASTER
10
236.924
20
43.564
30
0
0
VERTEX
8
RASTER
10
236.93
20
43.564
30
0
0
VERTEX
8
RASTER
10
237.349
20
45.124
30
0
0
VERTEX
8
RASTER
10
237.752
20
45.124
30
0
0
VERTEX
8
RASTER
10
237.13
20
43
30
0
0
VERTEX
8
RASTER
10
236.765
20
43
30
0
0
VERTEX
8
RASTER
10
236.266
20
44.593
30
0
0
VERTEX
8
RASTER
10
236.26
20
44.593
30
0
0
VERTEX
8
RASTER
10
235.763
20
43
30
0
0
VERTEX
8
RASTER
10
235.397
20
43
30
0
0
SEQEND
8
RASTER
0
POLYLINE
8
RASTER
66
1
70
1
0
VERTEX
8
RASTER
10
272
20
88.65
30
0
0
VERTEX
8
RASTER
10
274.4
20
88.65
30
0
0
VERTEX
8
RASTER
10
274.4
20
88.15
30
0
0
VERTEX
8
RASTER
10
272
20
88.15
30
0
0
SEQEND
8
RASTER
0
POLYLINE
8
RASTER
66
1
70
1
0
VERTEX
8
RASTER
10
270.606
20
77.564
30
0
0
VERTEX
8
RASTER
10
272.925
20
76.943
30
0
0
VERTEX
8
RASTER
10
272.795
20
76.46
30
0
0
VERTEX
8
RASTER
10
270.477
20
77.081
30
0
0
SEQEND
8
RASTER
0
POLYLINE
8
RASTER
66
1
70
1
0
VERTEX
8
RASTER
10
266.391
20
67.217
30
0
0
VERTEX
8
RASTER
10
268.469
20
66.017
30
0
0
VERTEX
8
RASTER
10
268.219
20
65.583
30
0
0
VERTEX
8
RASTER
10
266.141
20
66.783
30
0
0
SEQEND
8
RASTER
0
POLYLINE
8
RASTER
66
1
70
1
0
VERTEX
8
RASTER
10
259.641
20
58.313
30
0
0
VERTEX
8
RASTER
10
261.338
20
56.616
30
0
0
VERTEX
8
RASTER
10
260.984
20
56.262
30
0
0
VERTEX
8
RASTER
10
259.287
20
57.959
30
0
0
SEQEND
8
RASTER
0
POLYLINE
8
RASTER
66
1
70
1
0
VERTEX
8
RASTER
10
199.113
20
57.959
30
0
0
VERTEX
8
RASTER
10
197.416
20
56.262
30
0
0
VERTEX
8
RASTER
10
197.062
20
56.616
30
0
0
VERTEX
8
RASTER
10
198.759
20
58.313
30
0
0
SEQEND
8
RASTER
0
POLYLINE
8
RASTER
66
1
70
1
0
VERTEX
8
RASTER
10
192.259
20
66.783
30
0
0
VERTEX
8
RASTER
10
190.181
20
65.583
30
0
0
VERTEX
8
RASTER
10
189.931
20
66.017
30
0
0
VERTEX
8
RASTER
10
192.009
20
67.217
30
0
0
SEQEND
8
RASTER
0
POLYLINE
8
RASTER
66
1
70
1
0
VERTEX
8
RASTER
10
187.923
20
77.081
30
0
0
VERTEX
8
RASTER
10
185.605
20
76.46
30
0
0
VERTEX
8
RASTER
10
185.475
20
76.943
30
0
0
VERTEX
8
RASTER
10
187.794
20
77.564
30
0
0
SEQEND
8
RASTER
0
POLYLINE
8
RASTER
66
1
70
1
0
VERTEX
8
RASTER
10
186.4
20
88.15
30
0
0
VERTEX
8
RASTER
10
184
20
88.15
30
0
0
VERTEX
8
RASTER
10
184
20
88.65
30
0
0
VERTEX
8
RASTER
10
186.4
20
88.65
30
0
0
SEQEND
8
RASTER
0
POLYLINE
8
RASTER
66
1
70
1
0
VERTEX
8
RASTER
10
187.794
20
99.236
30
0
0
VERTEX
8
RASTER
10
185.475
20
99.857
30
0
0
VERTEX
8
RASTER
10
185.605
20
100.34
30
0
0
VERTEX
8
RASTER
10
187.923
20
99.719
30
0
0
SEQEND
8
RASTER
0
POLYLINE
8
RASTER
66
1
70
1
0
VERTEX
8
RASTER
10
192.009
20
109.583
30
0
0
VERTEX
8
RASTER
10
189.931
20
110.783
30
0
0
VERTEX
8
RASTER
10
190.181
20
111.217
30
0
0
VERTEX
8
RASTER
10
192.259
20
110.017
30
0
0
SEQEND
8
RASTER
0
POLYLINE
8
RASTER
66
1
70
1
0
VERTEX
8
RASTER
10
198.759
20
118.487
30
0
0
VERTEX
8
RASTER
10
197.062
20
120.184
30
0
0
VERTEX
8
RASTER
10
197.416
20
120.538
30
0
0
VERTEX
8
RASTER
10
199.113
20
118.841
30
0
0
SEQEND
8
RASTER
0
POLYLINE
8
RASTER
66
1
70
1
0
VERTEX
8
RASTER
10
207.583
20
125.341
30
0
0
VERTEX
8
RASTER
10
206.383
20
127.419
30
0
0
VERTEX
8
RASTER
10
206.817
20
127.669
30
0
0
VERTEX
8
RASTER
10
208.017
20
125.591
30
0
0
SEQEND
8
RASTER
0
POLYLINE
8
RASTER
66
1
70
1
0
VERTEX
8
RASTER
10
217.881
20
129.677
30
0
0
VERTEX
8
RASTER
10
217.26
20
131.995
30
0
0
VERTEX
8
RASTER
10
217.743
20
132.125
30
0
0
VERTEX
8
RASTER
10
218.364
20
129.806
30
0
0
SEQEND
8
RASTER
0
POLYLINE
8
RASTER
66
1
70
1
0
VERTEX
8
RASTER
10
228.95
20
131.2
30
0
0
VERTEX
8
RASTER
10
228.95
20
133.6
30
0
0
VERTEX
8
RASTER
10
229.45
20
133.6
30
0
0
VERTEX
8
RASTER
10
229.45
20
131.2
30
0
0
SEQEND
8
RASTER
0
POLYLINE
8
RASTER
66
1
70
1
0
VERTEX
8
RASTER
10
240.036
20
129.806
30
0
0
VERTEX
8
RASTER
10
240.657
20
132.125
30
0
0
VERTEX
8
RASTER
10
241.14
20
131.995
30
0
0
VERTEX
8
RASTER
10
240.519
20
129.677
30
0
0
SEQEND
8
RASTER
0
POLYLINE
8
RASTER
66
1
70
1
0
VERTEX
8
RASTER
10
250.383
20
125.591
30
0
0
VERTEX
8
RASTER
10
251.583
20
127.669
30
0
0
VERTEX
8
RASTER
10
252.017
20
127.419
30
0
0
VERTEX
8
RASTER
10
250.817
20
125.341
30
0
0
SEQEND
8
RASTER
0
POLYLINE
8
RASTER
66
1
70
1
0
VERTEX
8
RASTER
10
259.287
20
118.841
30
0
0
VERTEX
8
RASTER
10
260.984
20
120.538
30
0
0
VERTEX
8
RASTER
10
261.338
20
120.184
30
0
0
VERTEX
8
RASTER
10
259.641
20
118.487
30
0
0
SEQEND
8
RASTER
0
POLYLINE
8
RASTER
66
1
70
1
0
VERTEX
8
RASTER
10
266.141
20
110.017
30
0
0
VERTEX
8
RASTER
10
268.219
20
111.217
30
0
0
VERTEX
8
RASTER
10
268.469
20
110.783
30
0
0
VERTEX
8
RASTER
10
266.391
20
109.583
30
0
0
SEQEND
8
RASTER
0
POLYLINE
8
RASTER
66
1
70
1
0
VERTEX
8
RASTER
10
270.477
20
99.719
30
0
0
VERTEX
8
RASTER
10
272.795
20
100.34
30
0
0
VERTEX
8
RASTER
10
272.925
20
99.857
30
0
0
VERTEX
8
RASTER
10
270.606
20
99.236
30
0
0
SEQEND
8
RASTER
0
POLYLINE
8
CUT
66
1
70
1
0
VERTEX
8
CUT
10
9
20
33.8
30
0
0
VERTEX
8
CUT
10
32
20
33.8
30
0
0
VERTEX
8
CUT
10
32
20
35.4
30
0
0
VERTEX
8
CUT
10
37
20
35.4
30
0
0
VERTEX
8
CUT
10
44
20
32.2
30
0
0
VERTEX
8
CUT
10
37
20
29
30
0
0
VERTEX
8
CUT
10
32
20
29
30
0
0
VERTEX
8
CUT
10
32
20
30.6
30
0
0
VERTEX
8
CUT
10
9
20
30.6
30
0
0
VERTEX
8
CUT
10
6
20
28
30
0
0
VERTEX
8
CUT
10
4
20
28
30
0
0
VERTEX
8
CUT
10
7
20
32.2
30
0
0
VERTEX
8
CUT
10
4
20
36.4
30
0
0
VERTEX
8
CUT
10
6
20
36.4
30
0
0
SEQEND
8
CUT
0
CIRCLE
8
CUT
10
18
20
32.2
30
0
40
1.65
0
CIRCLE
8
RASTER
10
18
20
32.2
30
0
40
3
0
CIRCLE
8
RASTER
10
18
20
32.2
30
0
40
2.4
0
POLYLINE
8
RASTER
66
1
70
1
0
VERTEX
8
RASTER
10
22
20
32.6
30
0
0
VERTEX
8
RASTER
10
31
20
32.6
30
0
0
VERTEX
8
RASTER
10
31
20
31.8
30
0
0
VERTEX
8
RASTER
10
22
20
31.8
30
0
0
SEQEND
8
RASTER
0
POLYLINE
8
RASTER
66
1
70
1
0
VERTEX
8
RASTER
10
42.64
20
32.2
30
0
0
VERTEX
8
RASTER
10
40.66
20
31.3
30
0
0
VERTEX
8
RASTER
10
39.4
20
32.2
30
0
0
VERTEX
8
RASTER
10
40.66
20
33.1
30
0
0
SEQEND
8
RASTER
0
POLYLINE
8
RASTER
66
1
70
1
0
VERTEX
8
RASTER
10
39.4
20
32.2
30
0
0
VERTEX
8
RASTER
10
39.798
20
31.707
30
0
0
VERTEX
8
RASTER
10
40.05
20
31.196
30
0
0
VERTEX
8
RASTER
10
40.163
20
30.697
30
0
0
VERTEX
8
RASTER
10
40.143
20
30.243
30
0
0
VERTEX
8
RASTER
10
39.996
20
29.864
30
0
0
VERTEX
8
RASTER
10
39.729
20
29.593
30
0
0
VERTEX
8
RASTER
10
39.348
20
29.461
30
0
0
VERTEX
8
RASTER
10
38.86
20
29.5
30
0
0
VERTEX
8
RASTER
10
38.572
20
29.607
30
0
0
VERTEX
8
RASTER
10
38.376
20
29.781
30
0
0
VERTEX
8
RASTER
10
38.265
20
30.006
30
0
0
VERTEX
8
RASTER
10
38.23
20
30.265
30
0
0
VERTEX
8
RASTER
10
38.262
20
30.541
30
0
0
VERTEX
8
RASTER
10
38.354
20
30.816
30
0
0
VERTEX
8
RASTER
10
38.496
20
31.075
30
0
0
VERTEX
8
RASTER
10
38.68
20
31.3
30
0
0
VERTEX
8
RASTER
10
37.96
20
31.66
30
0
0
VERTEX
8
RASTER
10
37.96
20
32.74
30
0
0
VERTEX
8
RASTER
10
38.68
20
33.1
30
0
0
VERTEX
8
RASTER
10
38.496
20
33.325
30
0
0
VERTEX
8
RASTER
10
38.354
20
33.584
30
0
0
VERTEX
8
RASTER
10
38.262
20
33.859
30
0
0
VERTEX
8
RASTER
10
38.23
20
34.135
30
0
0
VERTEX
8
RASTER
10
38.265
20
34.394
30
0
0
VERTEX
8
RASTER
10
38.376
20
34.619
30
0
0
VERTEX
8
RASTER
10
38.572
20
34.793
30
0
0
VERTEX
8
RASTER
10
38.86
20
34.9
30
0
0
VERTEX
8
RASTER
10
39.348
20
34.939
30
0
0
VERTEX
8
RASTER
10
39.729
20
34.807
30
0
0
VERTEX
8
RASTER
10
39.996
20
34.536
30
0
0
VERTEX
8
RASTER
10
40.143
20
34.158
30
0
0
VERTEX
8
RASTER
10
40.163
20
33.703
30
0
0
VERTEX
8
RASTER
10
40.05
20
33.204
30
0
0
VERTEX
8
RASTER
10
39.798
20
32.693
30
0
0
VERTEX
8
RASTER
10
39.4
20
32.2
30
0
0
SEQEND
8
RASTER
0
POLYLINE
8
RASTER
66
1
70
1
0
VERTEX
8
RASTER
10
37.78
20
32.74
30
0
0
VERTEX
8
RASTER
10
37.78
20
31.66
30
0
0
VERTEX
8
RASTER
10
37.24
20
31.66
30
0
0
VERTEX
8
RASTER
10
37.24
20
32.74
30
0
0
SEQEND
8
RASTER
0
CIRCLE
8
CUT
10
52
20
32.4
30
0
40
4
0
CIRCLE
8
CUT
10
52
20
32.4
30
0
40
1.65
0
POLYLINE
8
CUT
66
1
70
1
0
VERTEX
8
CUT
10
84
20
36.4
30
0
0
VERTEX
8
CUT
10
86.6
20
36.4
30
0
0
VERTEX
8
CUT
10
86.6
20
7
30
0
0
VERTEX
8
CUT
10
88.6
20
7
30
0
0
VERTEX
8
CUT
10
88.6
20
4
30
0
0
VERTEX
8
CUT
10
82
20
4
30
0
0
VERTEX
8
CUT
10
82
20
7
30
0
0
VERTEX
8
CUT
10
84
20
7
30
0
0
VERTEX
8
CUT
10
84
20
26.4
30
0
0
VERTEX
8
CUT
10
60
20
26.4
30
0
0
VERTEX
8
CUT
10
65
20
31.4
30
0
0
VERTEX
8
CUT
10
60
20
36.4
30
0
0
SEQEND
8
CUT
0
POLYLINE
8
RASTER
66
1
70
1
0
VERTEX
8
RASTER
10
84.9
20
24.6
30
0
0
VERTEX
8
RASTER
10
85.7
20
24.6
30
0
0
VERTEX
8
RASTER
10
85.7
20
8.2
30
0
0
VERTEX
8
RASTER
10
84.9
20
8.2
30
0
0
SEQEND
8
RASTER
0
POLYLINE
8
RASTER
66
1
70
1
0
VERTEX
8
RASTER
10
61.763
20
32.495
30
0
0
VERTEX
8
RASTER
10
62.191
20
32.495
30
0
0
VERTEX
8
RASTER
10
62.616
20
30.883
30
0
0
VERTEX
8
RASTER
10
62.622
20
30.883
30
0
0
VERTEX
8
RASTER
10
63.106
20
32.495
30
0
0
VERTEX
8
RASTER
10
63.509
20
32.495
30
0
0
VERTEX
8
RASTER
10
63.983
20
30.883
30
0
0
VERTEX
8
RASTER
10
63.989
20
30.883
30
0
0
VERTEX
8
RASTER
10
64.423
20
32.495
30
0
0
VERTEX
8
RASTER
10
64.839
20
32.495
30
0
0
VERTEX
8
RASTER
10
64.197
20
30.3
30
0
0
VERTEX
8
RASTER
10
63.819
20
30.3
30
0
0
VERTEX
8
RASTER
10
63.304
20
31.946
30
0
0
VERTEX
8
RASTER
10
63.298
20
31.946
30
0
0
VERTEX
8
RASTER
10
62.783
20
30.3
30
0
0
VERTEX
8
RASTER
10
62.405
20
30.3
30
0
0
SEQEND
8
RASTER
0
POLYLINE
8
RASTER
66
1
70
1
0
VERTEX
8
RASTER
10
65.099
20
32.495
30
0
0
VERTEX
8
RASTER
10
65.49
20
32.495
30
0
0
VERTEX
8
RASTER
10
65.49
20
30.3
30
0
0
VERTEX
8
RASTER
10
65.099
20
30.3
30
0
0
SEQEND
8
RASTER
0
POLYLINE
8
RASTER
66
1
70
1
0
VERTEX
8
RASTER
10
65.973
20
32.495
30
0
0
VERTEX
8
RASTER
10
66.491
20
32.495
30
0
0
VERTEX
8
RASTER
10
67.511
20
30.852
30
0
0
VERTEX
8
RASTER
10
67.517
20
30.852
30
0
0
VERTEX
8
RASTER
10
67.517
20
32.495
30
0
0
VERTEX
8
RASTER
10
67.908
20
32.495
30
0
0
VERTEX
8
RASTER
10
67.908
20
30.3
30
0
0
VERTEX
8
RASTER
10
67.412
20
30.3
30
0
0
VERTEX
8
RASTER
10
66.37
20
31.996
30
0
0
VERTEX
8
RASTER
10
66.364
20
31.996
30
0
0
VERTEX
8
RASTER
10
66.364
20
30.3
30
0
0
VERTEX
8
RASTER
10
65.973
20
30.3
30
0
0
SEQEND
8
RASTER
0
POLYLINE
8
RASTER
66
1
70
1
0
VERTEX
8
RASTER
10
68.391
20
32.495
30
0
0
VERTEX
8
RASTER
10
69.169
20
32.495
30
0
0
VERTEX
8
RASTER
10
69.223
20
32.494
30
0
0
VERTEX
8
RASTER
10
69.276
20
32.491
30
0
0
VERTEX
8
RASTER
10
69.33
20
32.487
30
0
0
VERTEX
8
RASTER
10
69.384
20
32.481
30
0
0
VERTEX
8
RASTER
10
69.438
20
32.473
30
0
0
VERTEX
8
RASTER
10
69.492
20
32.463
30
0
0
VERTEX
8
RASTER
10
69.546
20
32.452
30
0
0
VERTEX
8
RASTER
10
69.6
20
32.439
30
0
0
VERTEX
8
RASTER
10
69.654
20
32.424
30
0
0
VERTEX
8
RASTER
10
69.706
20
32.407
30
0
0
VERTEX
8
RASTER
10
69.757
20
32.387
30
0
0
VERTEX
8
RASTER
10
69.806
20
32.365
30
0
0
VERTEX
8
RASTER
10
69.855
20
32.341
30
0
0
VERTEX
8
RASTER
10
69.901
20
32.314
30
0
0
VERTEX
8
RASTER
10
69.947
20
32.286
30
0
0
VERTEX
8
RASTER
10
69.991
20
32.255
30
0
0
VERTEX
8
RASTER
10
70.033
20
32.221
30
0
0
VERTEX
8
RASTER
10
70.074
20
32.185
30
0
0
VERTEX
8
RASTER
10
70.112
20
32.147
30
0
0
VERTEX
8
RASTER
10
70.148
20
32.106
30
0
0
VERTEX
8
RASTER
10
70.182
20
32.062
30
0
0
VERTEX
8
RASTER
10
70.215
20
32.016
30
0
0
VERTEX
8
RASTER
10
70.245
20
31.968
30
0
0
VERTEX
8
RASTER
10
70.273
20
31.917
30
0
0
VERTEX
8
RASTER
10
70.298
20
31.863
30
0
0
VERTEX
8
RASTER
10
70.32
20
31.806
30
0
0
VERTEX
8
RASTER
10
70.339
20
31.746
30
0
0
VERTEX
8
RASTER
10
70.354
20
31.682
30
0
0
VERTEX
8
RASTER
10
70.366
20
31.616
30
0
0
VERTEX
8
RASTER
10
70.375
20
31.546
30
0
0
VERTEX
8
RASTER
10
70.38
20
31.473
30
0
0
VERTEX
8
RASTER
10
70.381
20
31.397
30
0
0
VERTEX
8
RASTER
10
70.38
20
31.327
30
0
0
VERTEX
8
RASTER
10
70.375
20
31.258
30
0
0
VERTEX
8
RASTER
10
70.366
20
31.193
30
0
0
VERTEX
8
RASTER
10
70.354
20
31.129
30
0
0
VERTEX
8
RASTER
10
70.339
20
31.069
30
0
0
VERTEX
8
RASTER
10
70.32
20
31.01
30
0
0
VERTEX
8
RASTER
10
70.298
20
30.955
30
0
0
VERTEX
8
RASTER
10
70.273
20
30.901
30
0
0
VERTEX
8
RASTER
10
70.245
20
30.851
30
0
0
VERTEX
8
RASTER
10
70.215
20
30.802
30
0
0
VERTEX
8
RASTER
10
70.182
20
30.756
30
0
0
VERTEX
8
RASTER
10
70.148
20
30.712
30
0
0
VERTEX
8
RASTER
10
70.112
20
30.671
30
0
0
VERTEX
8
RASTER
10
70.074
20
30.632
30
0
0
VERTEX
8
RASTER
10
70.033
20
30.595
30
0
0
VERTEX
8
RASTER
10
69.991
20
30.56
30
0
0
VERTEX
8
RASTER
10
69.947
20
30.528
30
0
0
VERTEX
8
RASTER
10
69.901
20
30.498
30
0
0
VERTEX
8
RASTER
10
69.855
20
30.47
30
0
0
VERTEX
8
RASTER
10
69.806
20
30.445
30
0
0
VERTEX
8
RASTER
10
69.757
20
30.421
30
0
0
VERTEX
8
RASTER
10
69.706
20
30.4
30
0
0
VERTEX
8
RASTER
10
69.654
20
30.381
30
0
0
VERTEX
8
RASTER
10
69.6
20
30.364
30
0
0
VERTEX
8
RASTER
10
69.546
20
30.349
30
0
0
VERTEX
8
RASTER
10
69.492
20
30.336
30
0
0
VERTEX
8
RASTER
10
69.438
20
30.325
30
0
0
VERTEX
8
RASTER
10
69.384
20
30.316
30
0
0
VERTEX
8
RASTER
10
69.33
20
30.309
30
0
0
VERTEX
8
RASTER
10
69.276
20
30.304
30
0
0
VERTEX
8
RASTER
10
69.223
20
30.301
30
0
0
VERTEX
8
RASTER
10
69.169
20
30.3
30
0
0
VERTEX
8
RASTER
10
68.391
20
30.3
30
0
0
SEQEND
8
RASTER
0
POLYLINE
8
RASTER
66
1
70
1
0
VERTEX
8
RASTER
10
69.107
20
30.641
30
0
0
VERTEX
8
RASTER
10
69.145
20
30.642
30
0
0
VERTEX
8
RASTER
10
69.183
20
30.643
30
0
0
VERTEX
8
RASTER
10
69.221
20
30.646
30
0
0
VERTEX
8
RASTER
10
69.259
20
30.65
30
0
0
VERTEX
8
RASTER
10
69.297
20
30.655
30
0
0
VERTEX
8
RASTER
10
69.335
20
30.661
30
0
0
VERTEX
8
RASTER
10
69.373
20
30.668
30
0
0
VERTEX
8
RASTER
10
69.411
20
30.677
30
0
0
VERTEX
8
RASTER
10
69.449
20
30.686
30
0
0
VERTEX
8
RASTER
10
69.485
20
30.698
30
0
0
VERTEX
8
RASTER
10
69.521
20
30.71
30
0
0
VERTEX
8
RASTER
10
69.556
20
30.725
30
0
0
VERTEX
8
RASTER
10
69.59
20
30.741
30
0
0
VERTEX
8
RASTER
10
69.622
20
30.758
30
0
0
VERTEX
8
RASTER
10
69.654
20
30.777
30
0
0
VERTEX
8
RASTER
10
69.686
20
30.798
30
0
0
VERTEX
8
RASTER
10
69.715
20
30.82
30
0
0
VERTEX
8
RASTER
10
69.744
20
30.844
30
0
0
VERTEX
8
RASTER
10
69.771
20
30.87
30
0
0
VERTEX
8
RASTER
10
69.797
20
30.898
30
0
0
VERTEX
8
RASTER
10
69.821
20
30.928
30
0
0
VERTEX
8
RASTER
10
69.844
20
30.959
30
0
0
VERTEX
8
RASTER
10
69.865
20
30.993
30
0
0
VERTEX
8
RASTER
10
69.885
20
31.029
30
0
0
VERTEX
8
RASTER
10
69.904
20
31.066
30
0
0
VERTEX
8
RASTER
10
69.919
20
31.106
30
0
0
VERTEX
8
RASTER
10
69.933
20
31.149
30
0
0
VERTEX
8
RASTER
10
69.944
20
31.194
30
0
0
VERTEX
8
RASTER
10
69.952
20
31.241
30
0
0
VERTEX
8
RASTER
10
69.958
20
31.291
30
0
0
VERTEX
8
RASTER
10
69.962
20
31.343
30
0
0
VERTEX
8
RASTER
10
69.963
20
31.397
30
0
0
VERTEX
8
RASTER
10
69.962
20
31.455
30
0
0
VERTEX
8
RASTER
10
69.958
20
31.51
30
0
0
VERTEX
8
RASTER
10
69.952
20
31.562
30
0
0
VERTEX
8
RASTER
10
69.944
20
31.611
30
0
0
VERTEX
8
RASTER
10
69.933
20
31.658
30
0
0
VERTEX
8
RASTER
10
69.919
20
31.702
30
0
0
VERTEX
8
RASTER
10
69.904
20
31.743
30
0
0
VERTEX
8
RASTER
10
69.885
20
31.782
30
0
0
VERTEX
8
RASTER
10
69.865
20
31.818
30
0
0
VERTEX
8
RASTER
10
69.844
20
31.852
30
0
0
VERTEX
8
RASTER
10
69.821
20
31.884
30
0
0
VERTEX
8
RASTER
10
69.797
20
31.914
30
0
0
VERTEX
8
RASTER
10
69.771
20
31.942
30
0
0
VERTEX
8
RASTER
10
69.744
20
31.968
30
0
0
VERTEX
8
RASTER
10
69.715
20
31.992
30
0
0
VERTEX
8
RASTER
10
69.686
20
32.014
30
0
0
VERTEX
8
RASTER
10
69.654
20
32.034
30
0
0
VERTEX
8
RASTER
10
69.622
20
32.053
30
0
0
VERTEX
8
RASTER
10
69.59
20
32.07
30
0
0
VERTEX
8
RASTER
10
69.556
20
32.085
30
0
0
VERTEX
8
RASTER
10
69.521
20
32.098
30
0
0
VERTEX
8
RASTER
10
69.485
20
32.11
30
0
0
VERTEX
8
RASTER
10
69.449
20
32.12
30
0
0
VERTEX
8
RASTER
10
69.411
20
32.129
30
0
0
VERTEX
8
RASTER
10
69.373
20
32.136
30
0
0
VERTEX
8
RASTER
10
69.335
20
32.143
30
0
0
VERTEX
8
RASTER
10
69.297
20
32.148
30
0
0
VERTEX
8
RASTER
10
69.259
20
32.152
30
0
0
VERTEX
8
RASTER
10
69.221
20
32.156
30
0
0
VERTEX
8
RASTER
10
69.183
20
32.158
30
0
0
VERTEX
8
RASTER
10
69.145
20
32.16
30
0
0
VERTEX
8
RASTER
10
69.107
20
32.16
30
0
0
VERTEX
8
RASTER
10
68.782
20
32.16
30
0
0
VERTEX
8
RASTER
10
68.782
20
30.641
30
0
0
SEQEND
8
RASTER
0
POLYLINE
8
RASTER
66
1
70
1
0
VERTEX
8
RASTER
10
71.535
20
32.495
30
0
0
VERTEX
8
RASTER
10
72.052
20
32.495
30
0
0
VERTEX
8
RASTER
10
73.072
20
30.852
30
0
0
VERTEX
8
RASTER
10
73.078
20
30.852
30
0
0
VERTEX
8
RASTER
10
73.078
20
32.495
30
0
0
VERTEX
8
RASTER
10
73.469
20
32.495
30
0
0
VERTEX
8
RASTER
10
73.469
20
30.3
30
0
0
VERTEX
8
RASTER
10
72.973
20
30.3
30
0
0
VERTEX
8
RASTER
10
71.931
20
31.996
30
0
0
VERTEX
8
RASTER
10
71.925
20
31.996
30
0
0
VERTEX
8
RASTER
10
71.925
20
30.3
30
0
0
VERTEX
8
RASTER
10
71.535
20
30.3
30
0
0
SEQEND
8
RASTER
0
POLYLINE
8
RASTER
66
1
70
1
0
VERTEX
8
RASTER
10
73.847
20
31.404
30
0
0
VERTEX
8
RASTER
10
73.849
20
31.469
30
0
0
VERTEX
8
RASTER
10
73.853
20
31.532
30
0
0
VERTEX
8
RASTER
10
73.86
20
31.594
30
0
0
VERTEX
8
RASTER
10
73.869
20
31.654
30
0
0
VERTEX
8
RASTER
10
73.882
20
31.713
30
0
0
VERTEX
8
RASTER
10
73.897
20
31.77
30
0
0
VERTEX
8
RASTER
10
73.915
20
31.826
30
0
0
VERTEX
8
RASTER
10
73.936
20
31.879
30
0
0
VERTEX
8
RASTER
10
73.959
20
31.932
30
0
0
VERTEX
8
RASTER
10
73.984
20
31.982
30
0
0
VERTEX
8
RASTER
10
74.011
20
32.03
30
0
0
VERTEX
8
RASTER
10
74.041
20
32.076
30
0
0
VERTEX
8
RASTER
10
74.073
20
32.12
30
0
0
VERTEX
8
RASTER
10
74.106
20
32.162
30
0
0
VERTEX
8
RASTER
10
74.142
20
32.202
30
0
0
VERTEX
8
RASTER
10
74.181
20
32.241
30
0
0
VERTEX
8
RASTER
10
74.221
20
32.277
30
0
0
VERTEX
8
RASTER
10
74.262
20
32.311
30
0
0
VERTEX
8
RASTER
10
74.306
20
32.343
30
0
0
VERTEX
8
RASTER
10
74.352
20
32.372
30
0
0
VERTEX
8
RASTER
10
74.399
20
32.4
30
0
0
VERTEX
8
RASTER
10
74.448
20
32.425
30
0
0
VERTEX
8
RASTER
10
74.5
20
32.449
30
0
0
VERTEX
8
RASTER
10
74.553
20
32.47
30
0
0
VERTEX
8
RASTER
10
74.607
20
32.489
30
0
0
VERTEX
8
RASTER
10
74.663
20
32.505
30
0
0
VERTEX
8
RASTER
10
74.72
20
32.519
30
0
0
VERTEX
8
RASTER
10
74.778
20
32.53
30
0
0
VERTEX
8
RASTER
10
74.837
20
32.539
30
0
0
VERTEX
8
RASTER
10
74.897
20
32.546
30
0
0
VERTEX
8
RASTER
10
74.959
20
32.549
30
0
0
VERTEX
8
RASTER
10
75.022
20
32.551
30
0
0
VERTEX
8
RASTER
10
75.086
20
32.549
30
0
0
VERTEX
8
RASTER
10
75.148
20
32.546
30
0
0
VERTEX
8
RASTER
10
75.209
20
32.539
30
0
0
VERTEX
8
RASTER
10
75.269
20
32.53
30
0
0
VERTEX
8
RASTER
10
75.328
20
32.519
30
0
0
VERTEX
8
RASTER
10
75.385
20
32.505
30
0
0
VERTEX
8
RASTER
10
75.442
20
32.489
30
0
0
VERTEX
8
RASTER
10
75.496
20
32.47
30
0
0
VERTEX
8
RASTER
10
75.55
20
32.449
30
0
0
VERTEX
8
RASTER
10
75.601
20
32.425
30
0
0
VERTEX
8
RASTER
10
75.651
20
32.4
30
0
0
VERTEX
8
RASTER
10
75.699
20
32.372
30
0
0
VERTEX
8
RASTER
10
75.745
20
32.343
30
0
0
VERTEX
8
RASTER
10
75.789
20
32.311
30
0
0
VERTEX
8
RASTER
10
75.831
20
32.277
30
0
0
VERTEX
8
RASTER
10
75.872
20
32.241
30
0
0
VERTEX
8
RASTER
10
75.91
20
32.202
30
0
0
VERTEX
8
RASTER
10
75.946
20
32.162
30
0
0
VERTEX
8
RASTER
10
75.98
20
32.12
30
0
0
VERTEX
8
RASTER
10
76.012
20
32.076
30
0
0
VERTEX
8
RASTER
10
76.042
20
32.03
30
0
0
VERTEX
8
RASTER
10
76.069
20
31.982
30
0
0
VERTEX
8
RASTER
10
76.095
20
31.932
30
0
0
VERTEX
8
RASTER
10
76.118
20
31.879
30
0
0
VERTEX
8
RASTER
10
76.139
20
31.826
30
0
0
VERTEX
8
RASTER
10
76.157
20
31.77
30
0
0
VERTEX
8
RASTER
10
76.172
20
31.713
30
0
0
VERTEX
8
RASTER
10
76.184
20
31.654
30
0
0
VERTEX
8
RASTER
10
76.194
20
31.594
30
0
0
VERTEX
8
RASTER
10
76.201
20
31.532
30
0
0
VERTEX
8
RASTER
10
76.205
20
31.469
30
0
0
VERTEX
8
RASTER
10
76.206
20
31.404
30
0
0
VERTEX
8
RASTER
10
76.205
20
31.34
30
0
0
VERTEX
8
RASTER
10
76.201
20
31.278
30
0
0
VERTEX
8
RASTER
10
76.194
20
31.217
30
0
0
VERTEX
8
RASTER
10
76.184
20
31.158
30
0
0
VERTEX
8
RASTER
10
76.172
20
31.1
30
0
0
VERTEX
8
RASTER
10
76.157
20
31.043
30
0
0
VERTEX
8
RASTER
10
76.139
20
30.988
30
0
0
VERTEX
8
RASTER
10
76.118
20
30.934
30
0
0
VERTEX
8
RASTER
10
76.095
20
30.882
30
0
0
VERTEX
8
RASTER
10
76.069
20
30.831
30
0
0
VERTEX
8
RASTER
10
76.042
20
30.783
30
0
0
VERTEX
8
RASTER
10
76.012
20
30.736
30
0
0
VERTEX
8
RASTER
10
75.98
20
30.692
30
0
0
VERTEX
8
RASTER
10
75.946
20
30.649
30
0
0
VERTEX
8
RASTER
10
75.91
20
30.607
30
0
0
VERTEX
8
RASTER
10
75.872
20
30.568
30
0
0
VERTEX
8
RASTER
10
75.831
20
30.531
30
0
0
VERTEX
8
RASTER
10
75.789
20
30.496
30
0
0
VERTEX
8
RASTER
10
75.745
20
30.463
30
0
0
VERTEX
8
RASTER
10
75.699
20
30.432
30
0
0
VERTEX
8
RASTER
10
75.651
20
30.403
30
0
0
VERTEX
8
RASTER
10
75.601
20
30.376
30
0
0
VERTEX
8
RASTER
10
75.55
20
30.352
30
0
0
VERTEX
8
RASTER
10
75.496
20
30.329
30
0
0
VERTEX
8
RASTER
10
75.442
20
30.309
30
0
0
VERTEX
8
RASTER
10
75.385
20
30.292
30
0
0
VERTEX
8
RASTER
10
75.328
20
30.278
30
0
0
VERTEX
8
RASTER
10
75.269
20
30.266
30
0
0
VERTEX
8
RASTER
10
75.209
20
30.256
30
0
0
VERTEX
8
RASTER
10
75.148
20
30.25
30
0
0
VERTEX
8
RASTER
10
75.086
20
30.246
30
0
0
VERTEX
8
RASTER
10
75.022
20
30.244
30
0
0
VERTEX
8
RASTER
10
74.959
20
30.246
30
0
0
VERTEX
8
RASTER
10
74.897
20
30.25
30
0
0
VERTEX
8
RASTER
10
74.837
20
30.256
30
0
0
VERTEX
8
RASTER
10
74.778
20
30.266
30
0
0
VERTEX
8
RASTER
10
74.72
20
30.278
30
0
0
VERTEX
8
RASTER
10
74.663
20
30.292
30
0
0
VERTEX
8
RASTER
10
74.607
20
30.309
30
0
0
VERTEX
8
RASTER
10
74.553
20
30.329
30
0
0
VERTEX
8
RASTER
10
74.5
20
30.352
30
0
0
VERTEX
8
RASTER
10
74.448
20
30.376
30
0
0
VERTEX
8
RASTER
10
74.399
20
30.403
30
0
0
VERTEX
8
RASTER
10
74.352
20
30.432
30
0
0
VERTEX
8
RASTER
10
74.306
20
30.463
30
0
0
VERTEX
8
RASTER
10
74.262
20
30.496
30
0
0
VERTEX
8
RASTER
10
74.221
20
30.531
30
0
0
VERTEX
8
RASTER
10
74.181
20
30.568
30
0
0
VERTEX
8
RASTER
10
74.142
20
30.607
30
0
0
VERTEX
8
RASTER
10
74.106
20
30.649
30
0
0
VERTEX
8
RASTER
10
74.073
20
30.692
30
0
0
VERTEX
8
RASTER
10
74.041
20
30.736
30
0
0
VERTEX
8
RASTER
10
74.011
20
30.783
30
0
0
VERTEX
8
RASTER
10
73.984
20
30.831
30
0
0
VERTEX
8
RASTER
10
73.959
20
30.882
30
0
0
VERTEX
8
RASTER
10
73.936
20
30.934
30
0
0
VERTEX
8
RASTER
10
73.915
20
30.988
30
0
0
VERTEX
8
RASTER
10
73.897
20
31.043
30
0
0
VERTEX
8
RASTER
10
73.882
20
31.1
30
0
0
VERTEX
8
RASTER
10
73.869
20
31.158
30
0
0
VERTEX
8
RASTER
10
73.86
20
31.217
30
0
0
VERTEX
8
RASTER
10
73.853
20
31.278
30
0
0
VERTEX
8
RASTER
10
73.849
20
31.34
30
0
0
VERTEX
8
RASTER
10
73.847
20
31.404
30
0
0
SEQEND
8
RASTER
0
POLYLINE
8
RASTER
66
1
70
1
0
VERTEX
8
RASTER
10
74.272
20
31.404
30
0
0
VERTEX
8
RASTER
10
74.273
20
31.36
30
0
0
VERTEX
8
RASTER
10
74.275
20
31.317
30
0
0
VERTEX
8
RASTER
10
74.28
20
31.275
30
0
0
VERTEX
8
RASTER
10
74.286
20
31.234
30
0
0
VERTEX
8
RASTER
10
74.293
20
31.194
30
0
0
VERTEX
8
RASTER
10
74.302
20
31.155
30
0
0
VERTEX
8
RASTER
10
74.313
20
31.117
30
0
0
VERTEX
8
RASTER
10
74.326
20
31.08
30
0
0
VERTEX
8
RASTER
10
74.34
20
31.043
30
0
0
VERTEX
8
RASTER
10
74.356
20
31.008
30
0
0
VERTEX
8
RASTER
10
74.373
20
30.975
30
0
0
VERTEX
8
RASTER
10
74.392
20
30.942
30
0
0
VERTEX
8
RASTER
10
74.412
20
30.911
30
0
0
VERTEX
8
RASTER
10
74.434
20
30.881
30
0
0
VERTEX
8
RASTER
10
74.457
20
30.852
30
0
0
VERTEX
8
RASTER
10
74.481
20
30.824
30
0
0
VERTEX
8
RASTER
10
74.507
20
30.798
30
0
0
VERTEX
8
RASTER
10
74.534
20
30.773
30
0
0
VERTEX
8
RASTER
10
74.562
20
30.749
30
0
0
VERTEX
8
RASTER
10
74.591
20
30.727
30
0
0
VERTEX
8
RASTER
10
74.622
20
30.707
30
0
0
VERTEX
8
RASTER
10
74.653
20
30.688
30
0
0
VERTEX
8
RASTER
10
74.686
20
30.671
30
0
0
VERTEX
8
RASTER
10
74.72
20
30.655
30
0
0
VERTEX
8
RASTER
10
74.755
20
30.641
30
0
0
VERTEX
8
RASTER
10
74.791
20
30.629
30
0
0
VERTEX
8
RASTER
10
74.828
20
30.618
30
0
0
VERTEX
8
RASTER
10
74.865
20
30.61
30
0
0
VERTEX
8
RASTER
10
74.904
20
30.603
30
0
0
VERTEX
8
RASTER
10
74.943
20
30.598
30
0
0
VERTEX
8
RASTER
10
74.984
20
30.595
30
0
0
VERTEX
8
RASTER
10
75.025
20
30.594
30
0
0
VERTEX
8
RASTER
10
75.067
20
30.595
30
0
0
VERTEX
8
RASTER
10
75.107
20
30.598
30
0
0
VERTEX
8
RASTER
10
75.147
20
30.603
30
0
0
VERTEX
8
RASTER
10
75.186
20
30.61
30
0
0
VERTEX
8
RASTER
10
75.224
20
30.618
30
0
0
VERTEX
8
RASTER
10
75.261
20
30.629
30
0
0
VERTEX
8
RASTER
10
75.297
20
30.641
30
0
0
VERTEX
8
RASTER
10
75.332
20
30.655
30
0
0
VERTEX
8
RASTER
10
75.366
20
30.671
30
0
0
VERTEX
8
RASTER
10
75.399
20
30.688
30
0
0
VERTEX
8
RASTER
10
75.431
20
30.707
30
0
0
VERTEX
8
RASTER
10
75.462
20
30.727
30
0
0
VERTEX
8
RASTER
10
75.491
20
30.749
30
0
0
VERTEX
8
RASTER
10
75.52
20
30.773
30
0
0
VERTEX
8
RASTER
10
75.547
20
30.798
30
0
0
VERTEX
8
RASTER
10
75.572
20
30.824
30
0
0
VERTEX
8
RASTER
10
75.597
20
30.852
30
0
0
VERTEX
8
RASTER
10
75.62
20
30.881
30
0
0
VERTEX
8
RASTER
10
75.641
20
30.911
30
0
0
VERTEX
8
RASTER
10
75.662
20
30.942
30
0
0
VERTEX
8
RASTER
10
75.68
20
30.975
30
0
0
VERTEX
8
RASTER
10
75.697
20
31.008
30
0
0
VERTEX
8
RASTER
10
75.713
20
31.043
30
0
0
VERTEX
8
RASTER
10
75.727
20
31.08
30
0
0
VERTEX
8
RASTER
10
75.74
20
31.117
30
0
0
VERTEX
8
RASTER
10
75.751
20
31.155
30
0
0
VERTEX
8
RASTER
10
75.76
20
31.194
30
0
0
VERTEX
8
RASTER
10
75.768
20
31.234
30
0
0
VERTEX
8
RASTER
10
75.774
20
31.275
30
0
0
VERTEX
8
RASTER
10
75.778
20
31.317
30
0
0
VERTEX
8
RASTER
10
75.781
20
31.36
30
0
0
VERTEX
8
RASTER
10
75.782
20
31.404
30
0
0
VERTEX
8
RASTER
10
75.781
20
31.446
30
0
0
VERTEX
8
RASTER
10
75.778
20
31.487
30
0
0
VERTEX
8
RASTER
10
75.774
20
31.528
30
0
0
VERTEX
8
RASTER
10
75.768
20
31.568
30
0
0
VERTEX
8
RASTER
10
75.76
20
31.607
30
0
0
VERTEX
8
RASTER
10
75.751
20
31.645
30
0
0
VERTEX
8
RASTER
10
75.74
20
31.683
30
0
0
VERTEX
8
RASTER
10
75.727
20
31.72
30
0
0
VERTEX
8
RASTER
10
75.713
20
31.756
30
0
0
VERTEX
8
RASTER
10
75.697
20
31.79
30
0
0
VERTEX
8
RASTER
10
75.68
20
31.824
30
0
0
VERTEX
8
RASTER
10
75.662
20
31.856
30
0
0
VERTEX
8
RASTER
10
75.642
20
31.887
30
0
0
VERTEX
8
RASTER
10
75.621
20
31.917
30
0
0
VERTEX
8
RASTER
10
75.598
20
31.946
30
0
0
VERTEX
8
RASTER
10
75.574
20
31.974
30
0
0
VERTEX
8
RASTER
10
75.549
20
32
30
0
0
VERTEX
8
RASTER
10
75.522
20
32.025
30
0
0
VERTEX
8
RASTER
10
75.494
20
32.049
30
0
0
VERTEX
8
RASTER
10
75.465
20
32.071
30
0
0
VERTEX
8
RASTER
10
75.434
20
32.091
30
0
0
VERTEX
8
RASTER
10
75.402
20
32.111
30
0
0
VERTEX
8
RASTER
10
75.369
20
32.128
30
0
0
VERTEX
8
RASTER
10
75.335
20
32.144
30
0
0
VERTEX
8
RASTER
10
75.3
20
32.159
30
0
0
VERTEX
8
RASTER
10
75.264
20
32.172
30
0
0
VERTEX
8
RASTER
10
75.226
20
32.182
30
0
0
VERTEX
8
RASTER
10
75.188
20
32.191
30
0
0
VERTEX
8
RASTER
10
75.149
20
32.198
30
0
0
VERTEX
8
RASTER
10
75.109
20
32.203
30
0
0
VERTEX
8
RASTER
10
75.067
20
32.206
30
0
0
VERTEX
8
RASTER
10
75.025
20
32.207
30
0
0
VERTEX
8
RASTER
10
74.983
20
32.206
30
0
0
VERTEX
8
RASTER
10
74.942
20
32.203
30
0
0
VERTEX
8
RASTER
10
74.902
20
32.198
30
0
0
VERTEX
8
RASTER
10
74.863
20
32.191
30
0
0
VERTEX
8
RASTER
10
74.825
20
32.182
30
0
0
VERTEX
8
RASTER
10
74.788
20
32.172
30
0
0
VERTEX
8
RASTER
10
74.752
20
32.159
30
0
0
VERTEX
8
RASTER
10
74.717
20
32.144
30
0
0
VERTEX
8
RASTER
10
74.683
20
32.128
30
0
0
VERTEX
8
RASTER
10
74.65
20
32.111
30
0
0
VERTEX
8
RASTER
10
74.619
20
32.091
30
0
0
VERTEX
8
RASTER
10
74.589
20
32.071
30
0
0
VERTEX
8
RASTER
10
74.559
20
32.049
30
0
0
VERTEX
8
RASTER
10
74.532
20
32.025
30
0
0
VERTEX
8
RASTER
10
74.505
20
32
30
0
0
VERTEX
8
RASTER
10
74.48
20
31.974
30
0
0
VERTEX
8
RASTER
10
74.456
20
31.946
30
0
0
VERTEX
8
RASTER
10
74.433
20
31.917
30
0
0
VERTEX
8
RASTER
10
74.412
20
31.887
30
0
0
VERTEX
8
RASTER
10
74.392
20
31.856
30
0
0
VERTEX
8
RASTER
10
74.373
20
31.824
30
0
0
VERTEX
8
RASTER
10
74.356
20
31.79
30
0
0
VERTEX
8
RASTER
10
74.34
20
31.756
30
0
0
VERTEX
8
RASTER
10
74.326
20
31.72
30
0
0
VERTEX
8
RASTER
10
74.313
20
31.683
30
0
0
VERTEX
8
RASTER
10
74.302
20
31.645
30
0
0
VERTEX
8
RASTER
10
74.293
20
31.607
30
0
0
VERTEX
8
RASTER
10
74.286
20
31.568
30
0
0
VERTEX
8
RASTER
10
74.28
20
31.528
30
0
0
VERTEX
8
RASTER
10
74.275
20
31.487
30
0
0
VERTEX
8
RASTER
10
74.273
20
31.446
30
0
0
VERTEX
8
RASTER
10
74.272
20
31.404
30
0
0
SEQEND
8
RASTER
0
POLYLINE
8
RASTER
66
1
70
1
0
VERTEX
8
RASTER
10
76.361
20
32.495
30
0
0
VERTEX
8
RASTER
10
76.789
20
32.495
30
0
0
VERTEX
8
RASTER
10
77.214
20
30.883
30
0
0
VERTEX
8
RASTER
10
77.22
20
30.883
30
0
0
VERTEX
8
RASTER
10
77.704
20
32.495
30
0
0
VERTEX
8
RASTER
10
78.107
20
32.495
30
0
0
VERTEX
8
RASTER
10
78.581
20
30.883
30
0
0
VERTEX
8
RASTER
10
78.587
20
30.883
30
0
0
VERTEX
8
RASTER
10
79.021
20
32.495
30
0
0
VERTEX
8
RASTER
10
79.437
20
32.495
30
0
0
VERTEX
8
RASTER
10
78.795
20
30.3
30
0
0
VERTEX
8
RASTER
10
78.417
20
30.3
30
0
0
VERTEX
8
RASTER
10
77.902
20
31.946
30
0
0
VERTEX
8
RASTER
10
77.896
20
31.946
30
0
0
VERTEX
8
RASTER
10
77.381
20
30.3
30
0
0
VERTEX
8
RASTER
10
77.003
20
30.3
30
0
0
SEQEND
8
RASTER
0
ENDSEC
0
EOF
