0
SECTION
2
HEADER
9
$ACADVER
1
AC1009
9
$EXTMIN
10
0
20
0
9
$EXTMAX
10
281.6
20
140.4
0
ENDSEC
0
SECTION
2
TABLES
0
TABLE
2
LAYER
70
2
0
LAYER
2
CUT
70
0
62
1
6
CONTINUOUS
0
LAYER
2
RASTER
70
0
62
7
6
CONTINUOUS
0
ENDTAB
0
ENDSEC
0
SECTION
2
ENTITIES
0
CIRCLE
8
CUT
10
52
20
88.4
30
0
40
48
0
CIRCLE
8
CUT
10
52
20
88.4
30
0
40
1.65
0
CIRCLE
8
RASTER
10
52
20
88.4
30
0
40
35.2
0
CIRCLE
8
RASTER
10
52
20
88.4
30
0
40
34.7
0
CIRCLE
8
CUT
10
140.8
20
99.6
30
0
40
35
0
CIRCLE
8
CUT
10
140.8
20
99.6
30
0
40
1.65
0
CIRCLE
8
RASTER
10
140.8
20
99.6
30
0
40
4.2
0
CIRCLE
8
RASTER
10
140.8
20
99.6
30
0
40
3.4
0
POLYLINE
8
RASTER
66
1
70
1
0
VERTEX
8
RASTER
10
147.064
20
133.018
30
0
0
VERTEX
8
RASTER
10
148.727
20
132.663
30
0
0
VERTEX
8
RASTER
10
150.37
20
132.225
30
0
0
VERTEX
8
RASTER
10
151.989
20
131.706
30
0
0
VERTEX
8
RASTER
10
153.58
20
131.107
30
0
0
VERTEX
8
RASTER
10
155.139
20
130.429
30
0
0
VERTEX
8
RASTER
10
156.662
20
129.673
30
0
0
VERTEX
8
RASTER
10
158.145
20
128.843
30
0
0
VERTEX
8
RASTER
10
159.585
20
127.939
30
0
0
VERTEX
8
RASTER
10
160.978
20
126.965
30
0
0
VERTEX
8
RASTER
10
162.321
20
125.922
30
0
0
VERTEX
8
RASTER
10
163.61
20
124.813
30
0
0
VERTEX
8
RASTER
10
164.842
20
123.642
30
0
0
VERTEX
8
RASTER
10
166.013
20
122.41
30
0
0
VERTEX
8
RASTER
10
167.122
20
121.121
30
0
0
VERTEX
8
RASTER
10
168.165
20
119.778
30
0
0
VERTEX
8
RASTER
10
169.139
20
118.385
30
0
0
VERTEX
8
RASTER
10
170.043
20
116.945
30
0
0
VERTEX
8
RASTER
10
170.873
20
115.462
30
0
0
VERTEX
8
RASTER
10
171.629
20
113.939
30
0
0
VERTEX
8
RASTER
10
172.307
20
112.38
30
0
0
VERTEX
8
RASTER
10
172.906
20
110.789
30
0
0
VERTEX
8
RASTER
10
173.425
20
109.17
30
0
0
VERTEX
8
RASTER
10
173.863
20
107.527
30
0
0
VERTEX
8
RASTER
10
174.218
20
105.864
30
0
0
VERTEX
8
RASTER
10
173.53
20
105.736
30
0
0
VERTEX
8
RASTER
10
173.182
20
107.364
30
0
0
VERTEX
8
RASTER
10
172.754
20
108.973
30
0
0
VERTEX
8
RASTER
10
172.245
20
110.558
30
0
0
VERTEX
8
RASTER
10
171.658
20
112.117
30
0
0
VERTEX
8
RASTER
10
170.994
20
113.643
30
0
0
VERTEX
8
RASTER
10
170.254
20
115.135
30
0
0
VERTEX
8
RASTER
10
169.441
20
116.588
30
0
0
VERTEX
8
RASTER
10
168.556
20
117.998
30
0
0
VERTEX
8
RASTER
10
167.601
20
119.363
30
0
0
VERTEX
8
RASTER
10
166.58
20
120.678
30
0
0
VERTEX
8
RASTER
10
165.494
20
121.94
30
0
0
VERTEX
8
RASTER
10
164.347
20
123.147
30
0
0
VERTEX
8
RASTER
10
163.14
20
124.294
30
0
0
VERTEX
8
RASTER
10
161.878
20
125.38
30
0
0
VERTEX
8
RASTER
10
160.563
20
126.401
30
0
0
VERTEX
8
RASTER
10
159.198
20
127.356
30
0
0
VERTEX
8
RASTER
10
157.788
20
128.241
30
0
0
VERTEX
8
RASTER
10
156.335
20
129.054
30
0
0
VERTEX
8
RASTER
10
154.843
20
129.794
30
0
0
VERTEX
8
RASTER
10
153.317
20
130.458
30
0
0
VERTEX
8
RASTER
10
151.758
20
131.045
30
0
0
VERTEX
8
RASTER
10
150.173
20
131.554
30
0
0
VERTEX
8
RASTER
10
148.564
20
131.982
30
0
0
VERTEX
8
RASTER
10
146.936
20
132.33
30
0
0
SEQEND
8
RASTER
0
POLYLINE
8
RASTER
66
1
70
1
0
VERTEX
8
RASTER
10
147.064
20
128.325
30
0
0
VERTEX
8
RASTER
10
148.422
20
127.995
30
0
0
VERTEX
8
RASTER
10
149.764
20
127.6
30
0
0
VERTEX
8
RASTER
10
151.085
20
127.142
30
0
0
VERTEX
8
RASTER
10
152.382
20
126.622
30
0
0
VERTEX
8
RASTER
10
153.654
20
126.041
30
0
0
VERTEX
8
RASTER
10
154.896
20
125.4
30
0
0
VERTEX
8
RASTER
10
156.107
20
124.701
30
0
0
VERTEX
8
RASTER
10
157.283
20
123.945
30
0
0
VERTEX
8
RASTER
10
158.422
20
123.134
30
0
0
VERTEX
8
RASTER
10
159.521
20
122.269
30
0
0
VERTEX
8
RASTER
10
160.577
20
121.354
30
0
0
VERTEX
8
RASTER
10
161.589
20
120.389
30
0
0
VERTEX
8
RASTER
10
162.554
20
119.377
30
0
0
VERTEX
8
RASTER
10
163.469
20
118.321
30
0
0
VERTEX
8
RASTER
10
164.334
20
117.222
30
0
0
VERTEX
8
RASTER
10
165.145
20
116.083
30
0
0
VERTEX
8
RASTER
10
165.901
20
114.907
30
0
0
VERTEX
8
RASTER
10
166.6
20
113.696
30
0
0
VERTEX
8
RASTER
10
167.241
20
112.454
30
0
0
VERTEX
8
RASTER
10
167.822
20
111.182
30
0
0
VERTEX
8
RASTER
10
168.342
20
109.885
30
0
0
VERTEX
8
RASTER
10
168.8
20
108.564
30
0
0
VERTEX
8
RASTER
10
169.195
20
107.222
30
0
0
VERTEX
8
RASTER
10
169.525
20
105.864
30
0
0
VERTEX
8
RASTER
10
168.939
20
105.736
30
0
0
VERTEX
8
RASTER
10
168.615
20
107.067
30
0
0
VERTEX
8
RASTER
10
168.229
20
108.381
30
0
0
VERTEX
8
RASTER
10
167.78
20
109.675
30
0
0
VERTEX
8
RASTER
10
167.271
20
110.946
30
0
0
VERTEX
8
RASTER
10
166.702
20
112.192
30
0
0
VERTEX
8
RASTER
10
166.074
20
113.409
30
0
0
VERTEX
8
RASTER
10
165.389
20
114.595
30
0
0
VERTEX
8
RASTER
10
164.648
20
115.747
30
0
0
VERTEX
8
RASTER
10
163.853
20
116.862
30
0
0
VERTEX
8
RASTER
10
163.007
20
117.939
30
0
0
VERTEX
8
RASTER
10
162.11
20
118.974
30
0
0
VERTEX
8
RASTER
10
161.165
20
119.965
30
0
0
VERTEX
8
RASTER
10
160.174
20
120.91
30
0
0
VERTEX
8
RASTER
10
159.139
20
121.807
30
0
0
VERTEX
8
RASTER
10
158.062
20
122.653
30
0
0
VERTEX
8
RASTER
10
156.947
20
123.448
30
0
0
VERTEX
8
RASTER
10
155.795
20
124.189
30
0
0
VERTEX
8
RASTER
10
154.609
20
124.874
30
0
0
VERTEX
8
RASTER
10
153.392
20
125.502
30
0
0
VERTEX
8
RASTER
10
152.146
20
126.071
30
0
0
VERTEX
8
RASTER
10
150.875
20
126.58
30
0
0
VERTEX
8
RASTER
10
149.581
20
127.029
30
0
0
VERTEX
8
RASTER
10
148.267
20
127.415
30
0
0
VERTEX
8
RASTER
10
146.936
20
127.739
30
0
0
SEQEND
8
RASTER
0
POLYLINE
8
RASTER
66
1
70
1
0
VERTEX
8
RASTER
10
174.218
20
93.336
30
0
0
VERTEX
8
RASTER
10
173.863
20
91.673
30
0
0
VERTEX
8
RASTER
10
173.425
20
90.03
30
0
0
VERTEX
8
RASTER
10
172.906
20
88.411
30
0
0
VERTEX
8
RASTER
10
172.307
20
86.82
30
0
0
VERTEX
8
RASTER
10
171.629
20
85.261
30
0
0
VERTEX
8
RASTER
10
170.873
20
83.738
30
0
0
VERTEX
8
RASTER
10
170.043
20
82.255
30
0
0
VERTEX
8
RASTER
10
169.139
20
80.815
30
0
0
VERTEX
8
RASTER
10
168.165
20
79.422
30
0
0
VERTEX
8
RASTER
10
167.122
20
78.079
30
0
0
VERTEX
8
RASTER
10
166.013
20
76.79
30
0
0
VERTEX
8
RASTER
10
164.842
20
75.558
30
0
0
VERTEX
8
RASTER
10
163.61
20
74.387
30
0
0
VERTEX
8
RASTER
10
162.321
20
73.278
30
0
0
VERTEX
8
RASTER
10
160.978
20
72.235
30
0
0
VERTEX
8
RASTER
10
159.585
20
71.261
30
0
0
VERTEX
8
RASTER
10
158.145
20
70.357
30
0
0
VERTEX
8
RASTER
10
156.662
20
69.527
30
0
0
VERTEX
8
RASTER
10
155.139
20
68.771
30
0
0
VERTEX
8
RASTER
10
153.58
20
68.093
30
0
0
VERTEX
8
RASTER
10
151.989
20
67.494
30
0
0
VERTEX
8
RASTER
10
150.37
20
66.975
30
0
0
VERTEX
8
RASTER
10
148.727
20
66.537
30
0
0
VERTEX
8
RASTER
10
147.064
20
66.182
30
0
0
VERTEX
8
RASTER
10
146.936
20
66.87
30
0
0
VERTEX
8
RASTER
10
148.564
20
67.218
30
0
0
VERTEX
8
RASTER
10
150.173
20
67.646
30
0
0
VERTEX
8
RASTER
10
151.758
20
68.155
30
0
0
VERTEX
8
RASTER
10
153.317
20
68.742
30
0
0
VERTEX
8
RASTER
10
154.843
20
69.406
30
0
0
VERTEX
8
RASTER
10
156.335
20
70.146
30
0
0
VERTEX
8
RASTER
10
157.788
20
70.959
30
0
0
VERTEX
8
RASTER
10
159.198
20
71.844
30
0
0
VERTEX
8
RASTER
10
160.563
20
72.799
30
0
0
VERTEX
8
RASTER
10
161.878
20
73.82
30
0
0
VERTEX
8
RASTER
10
163.14
20
74.906
30
0
0
VERTEX
8
RASTER
10
164.347
20
76.053
30
0
0
VERTEX
8
RASTER
10
165.494
20
77.26
30
0
0
VERTEX
8
RASTER
10
166.58
20
78.522
30
0
0
VERTEX
8
RASTER
10
167.601
20
79.837
30
0
0
VERTEX
8
RASTER
10
168.556
20
81.202
30
0
0
VERTEX
8
RASTER
10
169.441
20
82.612
30
0
0
VERTEX
8
RASTER
10
170.254
20
84.065
30
0
0
VERTEX
8
RASTER
10
170.994
20
85.557
30
0
0
VERTEX
8
RASTER
10
171.658
20
87.083
30
0
0
VERTEX
8
RASTER
10
172.245
20
88.642
30
0
0
VERTEX
8
RASTER
10
172.754
20
90.227
30
0
0
VERTEX
8
RASTER
10
173.182
20
91.836
30
0
0
VERTEX
8
RASTER
10
173.53
20
93.464
30
0
0
SEQEND
8
RASTER
0
POLYLINE
8
RASTER
66
1
70
1
0
VERTEX
8
RASTER
10
169.525
20
93.336
30
0
0
VERTEX
8
RASTER
10
169.195
20
91.978
30
0
0
VERTEX
8
RASTER
10
168.8
20
90.636
30
0
0
VERTEX
8
RASTER
10
168.342
20
89.315
30
0
0
VERTEX
8
RASTER
10
167.822
20
88.018
30
0
0
VERTEX
8
RASTER
10
167.241
20
86.746
30
0
0
VERTEX
8
RASTER
10
166.6
20
85.504
30
0
0
VERTEX
8
RASTER
10
165.901
20
84.293
30
0
0
VERTEX
8
RASTER
10
165.145
20
83.117
30
0
0
VERTEX
8
RASTER
10
164.334
20
81.978
30
0
0
VERTEX
8
RASTER
10
163.469
20
80.879
30
0
0
VERTEX
8
RASTER
10
162.554
20
79.823
30
0
0
VERTEX
8
RASTER
10
161.589
20
78.811
30
0
0
VERTEX
8
RASTER
10
160.577
20
77.846
30
0
0
VERTEX
8
RASTER
10
159.521
20
76.931
30
0
0
VERTEX
8
RASTER
10
158.422
20
76.066
30
0
0
VERTEX
8
RASTER
10
157.283
20
75.255
30
0
0
VERTEX
8
RASTER
10
156.107
20
74.499
30
0
0
VERTEX
8
RASTER
10
154.896
20
73.8
30
0
0
VERTEX
8
RASTER
10
153.654
20
73.159
30
0
0
VERTEX
8
RASTER
10
152.382
20
72.578
30
0
0
VERTEX
8
RASTER
10
151.085
20
72.058
30
0
0
VERTEX
8
RASTER
10
149.764
20
71.6
30
0
0
VERTEX
8
RASTER
10
148.422
20
71.205
30
0
0
VERTEX
8
RASTER
10
147.064
20
70.875
30
0
0
VERTEX
8
RASTER
10
146.936
20
71.461
30
0
0
VERTEX
8
RASTER
10
148.267
20
71.785
30
0
0
VERTEX
8
RASTER
10
149.581
20
72.171
30
0
0
VERTEX
8
RASTER
10
150.875
20
72.62
30
0
0
VERTEX
8
RASTER
10
152.146
20
73.129
30
0
0
VERTEX
8
RASTER
10
153.392
20
73.698
30
0
0
VERTEX
8
RASTER
10
154.609
20
74.326
30
0
0
VERTEX
8
RASTER
10
155.795
20
75.011
30
0
0
VERTEX
8
RASTER
10
156.947
20
75.752
30
0
0
VERTEX
8
RASTER
10
158.062
20
76.547
30
0
0
VERTEX
8
RASTER
10
159.139
20
77.393
30
0
0
VERTEX
8
RASTER
10
160.174
20
78.29
30
0
0
VERTEX
8
RASTER
10
161.165
20
79.235
30
0
0
VERTEX
8
RASTER
10
162.11
20
80.226
30
0
0
VERTEX
8
RASTER
10
163.007
20
81.261
30
0
0
VERTEX
8
RASTER
10
163.853
20
82.338
30
0
0
VERTEX
8
RASTER
10
164.648
20
83.453
30
0
0
VERTEX
8
RASTER
10
165.389
20
84.605
30
0
0
VERTEX
8
RASTER
10
166.074
20
85.791
30
0
0
VERTEX
8
RASTER
10
166.702
20
87.008
30
0
0
VERTEX
8
RASTER
10
167.271
20
88.254
30
0
0
VERTEX
8
RASTER
10
167.78
20
89.525
30
0
0
VERTEX
8
RASTER
10
168.229
20
90.819
30
0
0
VERTEX
8
RASTER
10
168.615
20
92.133
30
0
0
VERTEX
8
RASTER
10
168.939
20
93.464
30
0
0
SEQEND
8
RASTER
0
POLYLINE
8
RASTER
66
1
70
1
0
VERTEX
8
RASTER
10
134.536
20
66.182
30
0
0
VERTEX
8
RASTER
10
132.873
20
66.537
30
0
0
VERTEX
8
RASTER
10
131.23
20
66.975
30
0
0
VERTEX
8
RASTER
10
129.611
20
67.494
30
0
0
VERTEX
8
RASTER
10
128.02
20
68.093
30
0
0
VERTEX
8
RASTER
10
126.461
20
68.771
30
0
0
VERTEX
8
RASTER
10
124.938
20
69.527
30
0
0
VERTEX
8
RASTER
10
123.455
20
70.357
30
0
0
VERTEX
8
RASTER
10
122.015
20
71.261
30
0
0
VERTEX
8
RASTER
10
120.622
20
72.235
30
0
0
VERTEX
8
RASTER
10
119.279
20
73.278
30
0
0
VERTEX
8
RASTER
10
117.99
20
74.387
30
0
0
VERTEX
8
RASTER
10
116.758
20
75.558
30
0
0
VERTEX
8
RASTER
10
115.587
20
76.79
30
0
0
VERTEX
8
RASTER
10
114.478
20
78.079
30
0
0
VERTEX
8
RASTER
10
113.435
20
79.422
30
0
0
VERTEX
8
RASTER
10
112.461
20
80.815
30
0
0
VERTEX
8
RASTER
10
111.557
20
82.255
30
0
0
VERTEX
8
RASTER
10
110.727
20
83.738
30
0
0
VERTEX
8
RASTER
10
109.971
20
85.261
30
0
0
VERTEX
8
RASTER
10
109.293
20
86.82
30
0
0
VERTEX
8
RASTER
10
108.694
20
88.411
30
0
0
VERTEX
8
RASTER
10
108.175
20
90.03
30
0
0
VERTEX
8
RASTER
10
107.737
20
91.673
30
0
0
VERTEX
8
RASTER
10
107.382
20
93.336
30
0
0
VERTEX
8
RASTER
10
108.07
20
93.464
30
0
0
VERTEX
8
RASTER
10
108.418
20
91.836
30
0
0
VERTEX
8
RASTER
10
108.846
20
90.227
30
0
0
VERTEX
8
RASTER
10
109.355
20
88.642
30
0
0
VERTEX
8
RASTER
10
109.942
20
87.083
30
0
0
VERTEX
8
RASTER
10
110.606
20
85.557
30
0
0
VERTEX
8
RASTER
10
111.346
20
84.065
30
0
0
VERTEX
8
RASTER
10
112.159
20
82.612
30
0
0
VERTEX
8
RASTER
10
113.044
20
81.202
30
0
0
VERTEX
8
RASTER
10
113.999
20
79.837
30
0
0
VERTEX
8
RASTER
10
115.02
20
78.522
30
0
0
VERTEX
8
RASTER
10
116.106
20
77.26
30
0
0
VERTEX
8
RASTER
10
117.253
20
76.053
30
0
0
VERTEX
8
RASTER
10
118.46
20
74.906
30
0
0
VERTEX
8
RASTER
10
119.722
20
73.82
30
0
0
VERTEX
8
RASTER
10
121.037
20
72.799
30
0
0
VERTEX
8
RASTER
10
122.402
20
71.844
30
0
0
VERTEX
8
RASTER
10
123.812
20
70.959
30
0
0
VERTEX
8
RASTER
10
125.265
20
70.146
30
0
0
VERTEX
8
RASTER
10
126.757
20
69.406
30
0
0
VERTEX
8
RASTER
10
128.283
20
68.742
30
0
0
VERTEX
8
RASTER
10
129.842
20
68.155
30
0
0
VERTEX
8
RASTER
10
131.427
20
67.646
30
0
0
VERTEX
8
RASTER
10
133.036
20
67.218
30
0
0
VERTEX
8
RASTER
10
134.664
20
66.87
30
0
0
SEQEND
8
RASTER
0
POLYLINE
8
RASTER
66
1
70
1
0
VERTEX
8
RASTER
10
134.536
20
70.875
30
0
0
VERTEX
8
RASTER
10
133.178
20
71.205
30
0
0
VERTEX
8
RASTER
10
131.836
20
71.6
30
0
0
VERTEX
8
RASTER
10
130.515
20
72.058
30
0
0
VERTEX
8
RASTER
10
129.218
20
72.578
30
0
0
VERTEX
8
RASTER
10
127.946
20
73.159
30
0
0
VERTEX
8
RASTER
10
126.704
20
73.8
30
0
0
VERTEX
8
RASTER
10
125.493
20
74.499
30
0
0
VERTEX
8
RASTER
10
124.317
20
75.255
30
0
0
VERTEX
8
RASTER
10
123.178
20
76.066
30
0
0
VERTEX
8
RASTER
10
122.079
20
76.931
30
0
0
VERTEX
8
RASTER
10
121.023
20
77.846
30
0
0
VERTEX
8
RASTER
10
120.011
20
78.811
30
0
0
VERTEX
8
RASTER
10
119.046
20
79.823
30
0
0
VERTEX
8
RASTER
10
118.131
20
80.879
30
0
0
VERTEX
8
RASTER
10
117.266
20
81.978
30
0
0
VERTEX
8
RASTER
10
116.455
20
83.117
30
0
0
VERTEX
8
RASTER
10
115.699
20
84.293
30
0
0
VERTEX
8
RASTER
10
115
20
85.504
30
0
0
VERTEX
8
RASTER
10
114.359
20
86.746
30
0
0
VERTEX
8
RASTER
10
113.778
20
88.018
30
0
0
VERTEX
8
RASTER
10
113.258
20
89.315
30
0
0
VERTEX
8
RASTER
10
112.8
20
90.636
30
0
0
VERTEX
8
RASTER
10
112.405
20
91.978
30
0
0
VERTEX
8
RASTER
10
112.075
20
93.336
30
0
0
VERTEX
8
RASTER
10
112.661
20
93.464
30
0
0
VERTEX
8
RASTER
10
112.985
20
92.133
30
0
0
VERTEX
8
RASTER
10
113.371
20
90.819
30
0
0
VERTEX
8
RASTER
10
113.82
20
89.525
30
0
0
VERTEX
8
RASTER
10
114.329
20
88.254
30
0
0
VERTEX
8
RASTER
10
114.898
20
87.008
30
0
0
VERTEX
8
RASTER
10
115.526
20
85.791
30
0
0
VERTEX
8
RASTER
10
116.211
20
84.605
30
0
0
VERTEX
8
RASTER
10
116.952
20
83.453
30
0
0
VERTEX
8
RASTER
10
117.747
20
82.338
30
0
0
VERTEX
8
RASTER
10
118.593
20
81.261
30
0
0
VERTEX
8
RASTER
10
119.49
20
80.226
30
0
0
VERTEX
8
RASTER
10
120.435
20
79.235
30
0
0
VERTEX
8
RASTER
10
121.426
20
78.29
30
0
0
VERTEX
8
RASTER
10
122.461
20
77.393
30
0
0
VERTEX
8
RASTER
10
123.538
20
76.547
30
0
0
VERTEX
8
RASTER
10
124.653
20
75.752
30
0
0
VERTEX
8
RASTER
10
125.805
20
75.011
30
0
0
VERTEX
8
RASTER
10
126.991
20
74.326
30
0
0
VERTEX
8
RASTER
10
128.208
20
73.698
30
0
0
VERTEX
8
RASTER
10
129.454
20
73.129
30
0
0
VERTEX
8
RASTER
10
130.725
20
72.62
30
0
0
VERTEX
8
RASTER
10
132.019
20
72.171
30
0
0
VERTEX
8
RASTER
10
133.333
20
71.785
30
0
0
VERTEX
8
RASTER
10
134.664
20
71.461
30
0
0
SEQEND
8
RASTER
0
POLYLINE
8
RASTER
66
1
70
1
0
VERTEX
8
RASTER
10
107.382
20
105.864
30
0
0
VERTEX
8
RASTER
10
107.737
20
107.527
30
0
0
VERTEX
8
RASTER
10
108.175
20
109.17
30
0
0
VERTEX
8
RASTER
10
108.694
20
110.789
30
0
0
VERTEX
8
RASTER
10
109.293
20
112.38
30
0
0
VERTEX
8
RASTER
10
109.971
20
113.939
30
0
0
VERTEX
8
RASTER
10
110.727
20
115.462
30
0
0
VERTEX
8
RASTER
10
111.557
20
116.945
30
0
0
VERTEX
8
RASTER
10
112.461
20
118.385
30
0
0
VERTEX
8
RASTER
10
113.435
20
119.778
30
0
0
VERTEX
8
RASTER
10
114.478
20
121.121
30
0
0
VERTEX
8
RASTER
10
115.587
20
122.41
30
0
0
VERTEX
8
RASTER
10
116.758
20
123.642
30
0
0
VERTEX
8
RASTER
10
117.99
20
124.813
30
0
0
VERTEX
8
RASTER
10
119.279
20
125.922
30
0
0
VERTEX
8
RASTER
10
120.622
20
126.965
30
0
0
VERTEX
8
RASTER
10
122.015
20
127.939
30
0
0
VERTEX
8
RASTER
10
123.455
20
128.843
30
0
0
VERTEX
8
RASTER
10
124.938
20
129.673
30
0
0
VERTEX
8
RASTER
10
126.461
20
130.429
30
0
0
VERTEX
8
RASTER
10
128.02
20
131.107
30
0
0
VERTEX
8
RASTER
10
129.611
20
131.706
30
0
0
VERTEX
8
RASTER
10
131.23
20
132.225
30
0
0
VERTEX
8
RASTER
10
132.873
20
132.663
30
0
0
VERTEX
8
RASTER
10
134.536
20
133.018
30
0
0
VERTEX
8
RASTER
10
134.664
20
132.33
30
0
0
VERTEX
8
RASTER
10
133.036
20
131.982
30
0
0
VERTEX
8
RASTER
10
131.427
20
131.554
30
0
0
VERTEX
8
RASTER
10
129.842
20
131.045
30
0
0
VERTEX
8
RASTER
10
128.283
20
130.458
30
0
0
VERTEX
8
RASTER
10
126.757
20
129.794
30
0
0
VERTEX
8
RASTER
10
125.265
20
129.054
30
0
0
VERTEX
8
RASTER
10
123.812
20
128.241
30
0
0
VERTEX
8
RASTER
10
122.402
20
127.356
30
0
0
VERTEX
8
RASTER
10
121.037
20
126.401
30
0
0
VERTEX
8
RASTER
10
119.722
20
125.38
30
0
0
VERTEX
8
RASTER
10
118.46
20
124.294
30
0
0
VERTEX
8
RASTER
10
117.253
20
123.147
30
0
0
VERTEX
8
RASTER
10
116.106
20
121.94
30
0
0
VERTEX
8
RASTER
10
115.02
20
120.678
30
0
0
VERTEX
8
RASTER
10
113.999
20
119.363
30
0
0
VERTEX
8
RASTER
10
113.044
20
117.998
30
0
0
VERTEX
8
RASTER
10
112.159
20
116.588
30
0
0
VERTEX
8
RASTER
10
111.346
20
115.135
30
0
0
VERTEX
8
RASTER
10
110.606
20
113.643
30
0
0
VERTEX
8
RASTER
10
109.942
20
112.117
30
0
0
VERTEX
8
RASTER
10
109.355
20
110.558
30
0
0
VERTEX
8
RASTER
10
108.846
20
108.973
30
0
0
VERTEX
8
RASTER
10
108.418
20
107.364
30
0
0
VERTEX
8
RASTER
10
108.07
20
105.736
30
0
0
SEQEND
8
RASTER
0
POLYLINE
8
RASTER
66
1
70
1
0
VERTEX
8
RASTER
10
112.075
20
105.864
30
0
0
VERTEX
8
RASTER
10
112.405
20
107.222
30
0
0
VERTEX
8
RASTER
10
112.8
20
108.564
30
0
0
VERTEX
8
RASTER
10
113.258
20
109.885
30
0
0
VERTEX
8
RASTER
10
113.778
20
111.182
30
0
0
VERTEX
8
RASTER
10
114.359
20
112.454
30
0
0
VERTEX
8
RASTER
10
115
20
113.696
30
0
0
VERTEX
8
RASTER
10
115.699
20
114.907
30
0
0
VERTEX
8
RASTER
10
116.455
20
116.083
30
0
0
VERTEX
8
RASTER
10
117.266
20
117.222
30
0
0
VERTEX
8
RASTER
10
118.131
20
118.321
30
0
0
VERTEX
8
RASTER
10
119.046
20
119.377
30
0
0
VERTEX
8
RASTER
10
120.011
20
120.389
30
0
0
VERTEX
8
RASTER
10
121.023
20
121.354
30
0
0
VERTEX
8
RASTER
10
122.079
20
122.269
30
0
0
VERTEX
8
RASTER
10
123.178
20
123.134
30
0
0
VERTEX
8
RASTER
10
124.317
20
123.945
30
0
0
VERTEX
8
RASTER
10
125.493
20
124.701
30
0
0
VERTEX
8
RASTER
10
126.704
20
125.4
30
0
0
VERTEX
8
RASTER
10
127.946
20
126.041
30
0
0
VERTEX
8
RASTER
10
129.218
20
126.622
30
0
0
VERTEX
8
RASTER
10
130.515
20
127.142
30
0
0
VERTEX
8
RASTER
10
131.836
20
127.6
30
0
0
VERTEX
8
RASTER
10
133.178
20
127.995
30
0
0
VERTEX
8
RASTER
10
134.536
20
128.325
30
0
0
VERTEX
8
RASTER
10
134.664
20
127.739
30
0
0
VERTEX
8
RASTER
10
133.333
20
127.415
30
0
0
VERTEX
8
RASTER
10
132.019
20
127.029
30
0
0
VERTEX
8
RASTER
10
130.725
20
126.58
30
0
0
VERTEX
8
RASTER
10
129.454
20
126.071
30
0
0
VERTEX
8
RASTER
10
128.208
20
125.502
30
0
0
VERTEX
8
RASTER
10
126.991
20
124.874
30
0
0
VERTEX
8
RASTER
10
125.805
20
124.189
30
0
0
VERTEX
8
RASTER
10
124.653
20
123.448
30
0
0
VERTEX
8
RASTER
10
123.538
20
122.653
30
0
0
VERTEX
8
RASTER
10
122.461
20
121.807
30
0
0
VERTEX
8
RASTER
10
121.426
20
120.91
30
0
0
VERTEX
8
RASTER
10
120.435
20
119.965
30
0
0
VERTEX
8
RASTER
10
119.49
20
118.974
30
0
0
VERTEX
8
RASTER
10
118.593
20
117.939
30
0
0
VERTEX
8
RASTER
10
117.747
20
116.862
30
0
0
VERTEX
8
RASTER
10
116.952
20
115.747
30
0
0
VERTEX
8
RASTER
10
116.211
20
114.595
30
0
0
VERTEX
8
RASTER
10
115.526
20
113.409
30
0
0
VERTEX
8
RASTER
10
114.898
20
112.192
30
0
0
VERTEX
8
RASTER
10
114.329
20
110.946
30
0
0
VERTEX
8
RASTER
10
113.82
20
109.675
30
0
0
VERTEX
8
RASTER
10
113.371
20
108.381
30
0
0
VERTEX
8
RASTER
10
112.985
20
107.067
30
0
0
VERTEX
8
RASTER
10
112.661
20
105.736
30
0
0
SEQEND
8
RASTER
0
CIRCLE
8
RASTER
10
171.033
20
91.499
30
0
40
0.5
0
CIRCLE
8
RASTER
10
169.167
20
86.372
30
0
40
0.5
0
CIRCLE
8
RASTER
10
166.439
20
81.647
30
0
40
0.5
0
CIRCLE
8
RASTER
10
158.753
20
73.961
30
0
40
0.5
0
CIRCLE
8
RASTER
10
154.028
20
71.233
30
0
40
0.5
0
CIRCLE
8
RASTER
10
148.901
20
69.367
30
0
40
0.5
0
CIRCLE
8
RASTER
10
132.699
20
69.367
30
0
40
0.5
0
CIRCLE
8
RASTER
10
127.572
20
71.233
30
0
40
0.5
0
CIRCLE
8
RASTER
10
122.847
20
73.961
30
0
40
0.5
0
CIRCLE
8
RASTER
10
115.161
20
81.647
30
0
40
0.5
0
CIRCLE
8
RASTER
10
112.433
20
86.372
30
0
40
0.5
0
CIRCLE
8
RASTER
10
110.567
20
91.499
30
0
40
0.5
0
CIRCLE
8
RASTER
10
110.567
20
107.701
30
0
40
0.5
0
CIRCLE
8
RASTER
10
112.433
20
112.828
30
0
40
0.5
0
CIRCLE
8
RASTER
10
115.161
20
117.553
30
0
40
0.5
0
CIRCLE
8
RASTER
10
122.847
20
125.239
30
0
40
0.5
0
CIRCLE
8
RASTER
10
127.572
20
127.967
30
0
40
0.5
0
CIRCLE
8
RASTER
10
132.699
20
129.833
30
0
40
0.5
0
CIRCLE
8
RASTER
10
148.901
20
129.833
30
0
40
0.5
0
CIRCLE
8
RASTER
10
154.028
20
127.967
30
0
40
0.5
0
CIRCLE
8
RASTER
10
158.753
20
125.239
30
0
40
0.5
0
CIRCLE
8
RASTER
10
166.439
20
117.553
30
0
40
0.5
0
CIRCLE
8
RASTER
10
169.167
20
112.828
30
0
40
0.5
0
CIRCLE
8
RASTER
10
171.033
20
107.701
30
0
40
0.5
0
CIRCLE
8
RASTER
10
140.8
20
131
30
0
40
5.4
0
POLYLINE
8
RASTER
66
1
70
1
0
VERTEX
8
RASTER
10
138.866
20
133.22
30
0
0
VERTEX
8
RASTER
10
138.866
20
128.83
30
0
0
VERTEX
8
RASTER
10
139.647
20
128.83
30
0
0
VERTEX
8
RASTER
10
139.647
20
132.221
30
0
0
VERTEX
8
RASTER
10
139.659
20
132.221
30
0
0
VERTEX
8
RASTER
10
141.742
20
128.83
30
0
0
VERTEX
8
RASTER
10
142.734
20
128.83
30
0
0
VERTEX
8
RASTER
10
142.734
20
133.22
30
0
0
VERTEX
8
RASTER
10
141.953
20
133.22
30
0
0
VERTEX
8
RASTER
10
141.953
20
129.934
30
0
0
VERTEX
8
RASTER
10
141.941
20
129.934
30
0
0
VERTEX
8
RASTER
10
139.901
20
133.22
30
0
0
VERTEX
8
RASTER
10
138.866
20
133.22
30
0
0
SEQEND
8
RASTER
0
CIRCLE
8
RASTER
10
172.2
20
99.6
30
0
40
5.4
0
POLYLINE
8
RASTER
66
1
70
1
0
VERTEX
8
RASTER
10
170.793
20
101.82
30
0
0
VERTEX
8
RASTER
10
170.793
20
97.43
30
0
0
VERTEX
8
RASTER
10
173.812
20
97.43
30
0
0
VERTEX
8
RASTER
10
173.812
20
98.124
30
0
0
VERTEX
8
RASTER
10
171.574
20
98.124
30
0
0
VERTEX
8
RASTER
10
171.574
20
99.364
30
0
0
VERTEX
8
RASTER
10
173.589
20
99.364
30
0
0
VERTEX
8
RASTER
10
173.589
20
100.022
30
0
0
VERTEX
8
RASTER
10
171.574
20
100.022
30
0
0
VERTEX
8
RASTER
10
171.574
20
101.138
30
0
0
VERTEX
8
RASTER
10
173.7
20
101.138
30
0
0
VERTEX
8
RASTER
10
173.7
20
101.82
30
0
0
VERTEX
8
RASTER
10
170.793
20
101.82
30
0
0
SEQEND
8
RASTER
0
CIRCLE
8
RASTER
10
140.8
20
68.2
30
0
40
5.4
0
POLYLINE
8
RASTER
66
1
70
1
0
VERTEX
8
RASTER
10
141.742
20
69.502
30
0
0
VERTEX
8
RASTER
10
142.251
20
70.06
30
0
0
VERTEX
8
RASTER
10
142.186
20
70.117
30
0
0
VERTEX
8
RASTER
10
142.118
20
70.17
30
0
0
VERTEX
8
RASTER
10
142.048
20
70.22
30
0
0
VERTEX
8
RASTER
10
141.974
20
70.266
30
0
0
VERTEX
8
RASTER
10
141.898
20
70.308
30
0
0
VERTEX
8
RASTER
10
141.819
20
70.347
30
0
0
VERTEX
8
RASTER
10
141.737
20
70.382
30
0
0
VERTEX
8
RASTER
10
141.653
20
70.413
30
0
0
VERTEX
8
RASTER
10
141.567
20
70.441
30
0
0
VERTEX
8
RASTER
10
141.481
20
70.465
30
0
0
VERTEX
8
RASTER
10
141.396
20
70.485
30
0
0
VERTEX
8
RASTER
10
141.311
20
70.502
30
0
0
VERTEX
8
RASTER
10
141.226
20
70.515
30
0
0
VERTEX
8
RASTER
10
141.142
20
70.524
30
0
0
VERTEX
8
RASTER
10
141.057
20
70.529
30
0
0
VERTEX
8
RASTER
10
140.974
20
70.531
30
0
0
VERTEX
8
RASTER
10
140.899
20
70.53
30
0
0
VERTEX
8
RASTER
10
140.825
20
70.526
30
0
0
VERTEX
8
RASTER
10
140.752
20
70.52
30
0
0
VERTEX
8
RASTER
10
140.678
20
70.512
30
0
0
VERTEX
8
RASTER
10
140.605
20
70.501
30
0
0
VERTEX
8
RASTER
10
140.532
20
70.488
30
0
0
VERTEX
8
RASTER
10
140.46
20
70.472
30
0
0
VERTEX
8
RASTER
10
140.388
20
70.454
30
0
0
VERTEX
8
RASTER
10
140.317
20
70.433
30
0
0
VERTEX
8
RASTER
10
140.247
20
70.41
30
0
0
VERTEX
8
RASTER
10
140.18
20
70.384
30
0
0
VERTEX
8
RASTER
10
140.115
20
70.356
30
0
0
VERTEX
8
RASTER
10
140.052
20
70.325
30
0
0
VERTEX
8
RASTER
10
139.99
20
70.292
30
0
0
VERTEX
8
RASTER
10
139.931
20
70.256
30
0
0
VERTEX
8
RASTER
10
139.873
20
70.218
30
0
0
VERTEX
8
RASTER
10
139.818
20
70.177
30
0
0
VERTEX
8
RASTER
10
139.765
20
70.134
30
0
0
VERTEX
8
RASTER
10
139.716
20
70.088
30
0
0
VERTEX
8
RASTER
10
139.669
20
70.039
30
0
0
VERTEX
8
RASTER
10
139.624
20
69.988
30
0
0
VERTEX
8
RASTER
10
139.582
20
69.934
30
0
0
VERTEX
8
RASTER
10
139.544
20
69.877
30
0
0
VERTEX
8
RASTER
10
139.507
20
69.818
30
0
0
VERTEX
8
RASTER
10
139.475
20
69.756
30
0
0
VERTEX
8
RASTER
10
139.446
20
69.691
30
0
0
VERTEX
8
RASTER
10
139.422
20
69.624
30
0
0
VERTEX
8
RASTER
10
139.403
20
69.553
30
0
0
VERTEX
8
RASTER
10
139.387
20
69.48
30
0
0
VERTEX
8
RASTER
10
139.377
20
69.403
30
0
0
VERTEX
8
RASTER
10
139.37
20
69.324
30
0
0
VERTEX
8
RASTER
10
139.368
20
69.242
30
0
0
VERTEX
8
RASTER
10
139.369
20
69.166
30
0
0
VERTEX
8
RASTER
10
139.374
20
69.093
30
0
0
VERTEX
8
RASTER
10
139.382
20
69.023
30
0
0
VERTEX
8
RASTER
10
139.393
20
68.957
30
0
0
VERTEX
8
RASTER
10
139.407
20
68.894
30
0
0
VERTEX
8
RASTER
10
139.424
20
68.834
30
0
0
VERTEX
8
RASTER
10
139.444
20
68.777
30
0
0
VERTEX
8
RASTER
10
139.467
20
68.724
30
0
0
VERTEX
8
RASTER
10
139.493
20
68.673
30
0
0
VERTEX
8
RASTER
10
139.52
20
68.624
30
0
0
VERTEX
8
RASTER
10
139.55
20
68.577
30
0
0
VERTEX
8
RASTER
10
139.581
20
68.532
30
0
0
VERTEX
8
RASTER
10
139.614
20
68.49
30
0
0
VERTEX
8
RASTER
10
139.649
20
68.449
30
0
0
VERTEX
8
RASTER
10
139.686
20
68.41
30
0
0
VERTEX
8
RASTER
10
139.724
20
68.374
30
0
0
VERTEX
8
RASTER
10
139.764
20
68.339
30
0
0
VERTEX
8
RASTER
10
139.806
20
68.306
30
0
0
VERTEX
8
RASTER
10
139.849
20
68.274
30
0
0
VERTEX
8
RASTER
10
139.892
20
68.245
30
0
0
VERTEX
8
RASTER
10
139.938
20
68.217
30
0
0
VERTEX
8
RASTER
10
139.984
20
68.191
30
0
0
VERTEX
8
RASTER
10
140.032
20
68.167
30
0
0
VERTEX
8
RASTER
10
140.081
20
68.144
30
0
0
VERTEX
8
RASTER
10
140.13
20
68.123
30
0
0
VERTEX
8
RASTER
10
140.18
20
68.102
30
0
0
VERTEX
8
RASTER
10
140.23
20
68.083
30
0
0
VERTEX
8
RASTER
10
140.279
20
68.064
30
0
0
VERTEX
8
RASTER
10
140.329
20
68.045
30
0
0
VERTEX
8
RASTER
10
140.378
20
68.028
30
0
0
VERTEX
8
RASTER
10
140.428
20
68.011
30
0
0
VERTEX
8
RASTER
10
140.478
20
67.995
30
0
0
VERTEX
8
RASTER
10
140.528
20
67.978
30
0
0
VERTEX
8
RASTER
10
140.579
20
67.962
30
0
0
VERTEX
8
RASTER
10
140.628
20
67.945
30
0
0
VERTEX
8
RASTER
10
140.678
20
67.929
30
0
0
VERTEX
8
RASTER
10
140.726
20
67.913
30
0
0
VERTEX
8
RASTER
10
140.774
20
67.897
30
0
0
VERTEX
8
RASTER
10
140.821
20
67.881
30
0
0
VERTEX
8
RASTER
10
140.868
20
67.865
30
0
0
VERTEX
8
RASTER
10
140.914
20
67.849
30
0
0
VERTEX
8
RASTER
10
140.958
20
67.833
30
0
0
VERTEX
8
RASTER
10
141.001
20
67.816
30
0
0
VERTEX
8
RASTER
10
141.042
20
67.798
30
0
0
VERTEX
8
RASTER
10
141.081
20
67.779
30
0
0
VERTEX
8
RASTER
10
141.119
20
67.76
30
0
0
VERTEX
8
RASTER
10
141.156
20
67.74
30
0
0
VERTEX
8
RASTER
10
141.191
20
67.72
30
0
0
VERTEX
8
RASTER
10
141.224
20
67.698
30
0
0
VERTEX
8
RASTER
10
141.255
20
67.676
30
0
0
VERTEX
8
RASTER
10
141.285
20
67.652
30
0
0
VERTEX
8
RASTER
10
141.313
20
67.628
30
0
0
VERTEX
8
RASTER
10
141.339
20
67.603
30
0
0
VERTEX
8
RASTER
10
141.364
20
67.577
30
0
0
VERTEX
8
RASTER
10
141.387
20
67.549
30
0
0
VERTEX
8
RASTER
10
141.408
20
67.521
30
0
0
VERTEX
8
RASTER
10
141.426
20
67.492
30
0
0
VERTEX
8
RASTER
10
141.443
20
67.46
30
0
0
VERTEX
8
RASTER
10
141.457
20
67.427
30
0
0
VERTEX
8
RASTER
10
141.468
20
67.392
30
0
0
VERTEX
8
RASTER
10
141.477
20
67.355
30
0
0
VERTEX
8
RASTER
10
141.483
20
67.316
30
0
0
VERTEX
8
RASTER
10
141.487
20
67.275
30
0
0
VERTEX
8
RASTER
10
141.488
20
67.233
30
0
0
VERTEX
8
RASTER
10
141.487
20
67.189
30
0
0
VERTEX
8
RASTER
10
141.484
20
67.147
30
0
0
VERTEX
8
RASTER
10
141.478
20
67.106
30
0
0
VERTEX
8
RASTER
10
141.47
20
67.068
30
0
0
VERTEX
8
RASTER
10
141.46
20
67.031
30
0
0
VERTEX
8
RASTER
10
141.448
20
66.996
30
0
0
VERTEX
8
RASTER
10
141.434
20
66.963
30
0
0
VERTEX
8
RASTER
10
141.417
20
66.932
30
0
0
VERTEX
8
RASTER
10
141.398
20
66.903
30
0
0
VERTEX
8
RASTER
10
141.379
20
66.874
30
0
0
VERTEX
8
RASTER
10
141.357
20
66.847
30
0
0
VERTEX
8
RASTER
10
141.335
20
66.821
30
0
0
VERTEX
8
RASTER
10
141.311
20
66.797
30
0
0
VERTEX
8
RASTER
10
141.286
20
66.773
30
0
0
VERTEX
8
RASTER
10
141.259
20
66.751
30
0
0
VERTEX
8
RASTER
10
141.231
20
66.731
30
0
0
VERTEX
8
RASTER
10
141.202
20
66.711
30
0
0
VERTEX
8
RASTER
10
141.172
20
66.693
30
0
0
VERTEX
8
RASTER
10
141.141
20
66.677
30
0
0
VERTEX
8
RASTER
10
141.109
20
66.662
30
0
0
VERTEX
8
RASTER
10
141.077
20
66.648
30
0
0
VERTEX
8
RASTER
10
141.043
20
66.636
30
0
0
VERTEX
8
RASTER
10
141.009
20
66.625
30
0
0
VERTEX
8
RASTER
10
140.974
20
66.616
30
0
0
VERTEX
8
RASTER
10
140.938
20
66.608
30
0
0
VERTEX
8
RASTER
10
140.903
20
66.601
30
0
0
VERTEX
8
RASTER
10
140.868
20
66.595
30
0
0
VERTEX
8
RASTER
10
140.833
20
66.59
30
0
0
VERTEX
8
RASTER
10
140.798
20
66.587
30
0
0
VERTEX
8
RASTER
10
140.763
20
66.584
30
0
0
VERTEX
8
RASTER
10
140.729
20
66.582
30
0
0
VERTEX
8
RASTER
10
140.695
20
66.582
30
0
0
VERTEX
8
RASTER
10
140.629
20
66.584
30
0
0
VERTEX
8
RASTER
10
140.564
20
66.59
30
0
0
VERTEX
8
RASTER
10
140.498
20
66.6
30
0
0
VERTEX
8
RASTER
10
140.432
20
66.614
30
0
0
VERTEX
8
RASTER
10
140.365
20
66.633
30
0
0
VERTEX
8
RASTER
10
140.299
20
66.655
30
0
0
VERTEX
8
RASTER
10
140.232
20
66.681
30
0
0
VERTEX
8
RASTER
10
140.165
20
66.712
30
0
0
VERTEX
8
RASTER
10
140.099
20
66.746
30
0
0
VERTEX
8
RASTER
10
140.036
20
66.783
30
0
0
VERTEX
8
RASTER
10
139.977
20
66.823
30
0
0
VERTEX
8
RASTER
10
139.922
20
66.865
30
0
0
VERTEX
8
RASTER
10
139.87
20
66.911
30
0
0
VERTEX
8
RASTER
10
139.821
20
66.96
30
0
0
VERTEX
8
RASTER
10
139.776
20
67.011
30
0
0
VERTEX
8
RASTER
10
139.734
20
67.065
30
0
0
VERTEX
8
RASTER
10
139.176
20
66.545
30
0
0
VERTEX
8
RASTER
10
139.243
20
66.469
30
0
0
VERTEX
8
RASTER
10
139.315
20
66.399
30
0
0
VERTEX
8
RASTER
10
139.392
20
66.333
30
0
0
VERTEX
8
RASTER
10
139.473
20
66.273
30
0
0
VERTEX
8
RASTER
10
139.559
20
66.216
30
0
0
VERTEX
8
RASTER
10
139.65
20
66.165
30
0
0
VERTEX
8
RASTER
10
139.745
20
66.118
30
0
0
VERTEX
8
RASTER
10
139.845
20
66.077
30
0
0
VERTEX
8
RASTER
10
139.948
20
66.039
30
0
0
VERTEX
8
RASTER
10
140.051
20
66.007
30
0
0
VERTEX
8
RASTER
10
140.155
20
65.98
30
0
0
VERTEX
8
RASTER
10
140.259
20
65.958
30
0
0
VERTEX
8
RASTER
10
140.364
20
65.941
30
0
0
VERTEX
8
RASTER
10
140.469
20
65.928
30
0
0
VERTEX
8
RASTER
10
140.576
20
65.921
30
0
0
VERTEX
8
RASTER
10
140.682
20
65.918
30
0
0
VERTEX
8
RASTER
10
140.762
20
65.92
30
0
0
VERTEX
8
RASTER
10
140.841
20
65.924
30
0
0
VERTEX
8
RASTER
10
140.92
20
65.931
30
0
0
VERTEX
8
RASTER
10
140.997
20
65.94
30
0
0
VERTEX
8
RASTER
10
141.073
20
65.952
30
0
0
VERTEX
8
RASTER
10
141.148
20
65.967
30
0
0
VERTEX
8
RASTER
10
141.223
20
65.985
30
0
0
VERTEX
8
RASTER
10
141.296
20
66.005
30
0
0
VERTEX
8
RASTER
10
141.368
20
66.028
30
0
0
VERTEX
8
RASTER
10
141.437
20
66.054
30
0
0
VERTEX
8
RASTER
10
141.504
20
66.083
30
0
0
VERTEX
8
RASTER
10
141.569
20
66.114
30
0
0
VERTEX
8
RASTER
10
141.631
20
66.148
30
0
0
VERTEX
8
RASTER
10
141.691
20
66.184
30
0
0
VERTEX
8
RASTER
10
141.749
20
66.224
30
0
0
VERTEX
8
RASTER
10
141.804
20
66.266
30
0
0
VERTEX
8
RASTER
10
141.857
20
66.31
30
0
0
VERTEX
8
RASTER
10
141.907
20
66.358
30
0
0
VERTEX
8
RASTER
10
141.955
20
66.408
30
0
0
VERTEX
8
RASTER
10
142
20
66.462
30
0
0
VERTEX
8
RASTER
10
142.042
20
66.518
30
0
0
VERTEX
8
RASTER
10
142.081
20
66.577
30
0
0
VERTEX
8
RASTER
10
142.118
20
66.638
30
0
0
VERTEX
8
RASTER
10
142.152
20
66.703
30
0
0
VERTEX
8
RASTER
10
142.182
20
66.77
30
0
0
VERTEX
8
RASTER
10
142.209
20
66.84
30
0
0
VERTEX
8
RASTER
10
142.231
20
66.913
30
0
0
VERTEX
8
RASTER
10
142.249
20
66.989
30
0
0
VERTEX
8
RASTER
10
142.263
20
67.067
30
0
0
VERTEX
8
RASTER
10
142.274
20
67.149
30
0
0
VERTEX
8
RASTER
10
142.28
20
67.233
30
0
0
VERTEX
8
RASTER
10
142.282
20
67.32
30
0
0
VERTEX
8
RASTER
10
142.28
20
67.399
30
0
0
VERTEX
8
RASTER
10
142.274
20
67.474
30
0
0
VERTEX
8
RASTER
10
142.265
20
67.547
30
0
0
VERTEX
8
RASTER
10
142.252
20
67.616
30
0
0
VERTEX
8
RASTER
10
142.235
20
67.681
30
0
0
VERTEX
8
RASTER
10
142.214
20
67.744
30
0
0
VERTEX
8
RASTER
10
142.189
20
67.803
30
0
0
VERTEX
8
RASTER
10
142.161
20
67.859
30
0
0
VERTEX
8
RASTER
10
142.13
20
67.912
30
0
0
VERTEX
8
RASTER
10
142.096
20
67.963
30
0
0
VERTEX
8
RASTER
10
142.061
20
68.011
30
0
0
VERTEX
8
RASTER
10
142.023
20
68.057
30
0
0
VERTEX
8
RASTER
10
141.983
20
68.101
30
0
0
VERTEX
8
RASTER
10
141.941
20
68.143
30
0
0
VERTEX
8
RASTER
10
141.897
20
68.182
30
0
0
VERTEX
8
RASTER
10
141.851
20
68.219
30
0
0
VERTEX
8
RASTER
10
141.803
20
68.253
30
0
0
VERTEX
8
RASTER
10
141.754
20
68.286
30
0
0
VERTEX
8
RASTER
10
141.704
20
68.318
30
0
0
VERTEX
8
RASTER
10
141.653
20
68.347
30
0
0
VERTEX
8
RASTER
10
141.6
20
68.375
30
0
0
VERTEX
8
RASTER
10
141.546
20
68.401
30
0
0
VERTEX
8
RASTER
10
141.491
20
68.425
30
0
0
VERTEX
8
RASTER
10
141.436
20
68.448
30
0
0
VERTEX
8
RASTER
10
141.379
20
68.469
30
0
0
VERTEX
8
RASTER
10
141.323
20
68.49
30
0
0
VERTEX
8
RASTER
10
141.268
20
68.51
30
0
0
VERTEX
8
RASTER
10
141.213
20
68.53
30
0
0
VERTEX
8
RASTER
10
141.159
20
68.549
30
0
0
VERTEX
8
RASTER
10
141.105
20
68.568
30
0
0
VERTEX
8
RASTER
10
141.051
20
68.586
30
0
0
VERTEX
8
RASTER
10
140.998
20
68.603
30
0
0
VERTEX
8
RASTER
10
140.952
20
68.617
30
0
0
VERTEX
8
RASTER
10
140.907
20
68.631
30
0
0
VERTEX
8
RASTER
10
140.863
20
68.645
30
0
0
VERTEX
8
RASTER
10
140.82
20
68.659
30
0
0
VERTEX
8
RASTER
10
140.778
20
68.673
30
0
0
VERTEX
8
RASTER
10
140.737
20
68.687
30
0
0
VERTEX
8
RASTER
10
140.697
20
68.701
30
0
0
VERTEX
8
RASTER
10
140.657
20
68.715
30
0
0
VERTEX
8
RASTER
10
140.619
20
68.729
30
0
0
VERTEX
8
RASTER
10
140.583
20
68.744
30
0
0
VERTEX
8
RASTER
10
140.548
20
68.759
30
0
0
VERTEX
8
RASTER
10
140.514
20
68.775
30
0
0
VERTEX
8
RASTER
10
140.482
20
68.792
30
0
0
VERTEX
8
RASTER
10
140.451
20
68.809
30
0
0
VERTEX
8
RASTER
10
140.422
20
68.826
30
0
0
VERTEX
8
RASTER
10
140.394
20
68.845
30
0
0
VERTEX
8
RASTER
10
140.368
20
68.864
30
0
0
VERTEX
8
RASTER
10
140.343
20
68.884
30
0
0
VERTEX
8
RASTER
10
140.319
20
68.905
30
0
0
VERTEX
8
RASTER
10
140.297
20
68.927
30
0
0
VERTEX
8
RASTER
10
140.276
20
68.95
30
0
0
VERTEX
8
RASTER
10
140.257
20
68.974
30
0
0
VERTEX
8
RASTER
10
140.24
20
68.999
30
0
0
VERTEX
8
RASTER
10
140.223
20
69.025
30
0
0
VERTEX
8
RASTER
10
140.209
20
69.052
30
0
0
VERTEX
8
RASTER
10
140.196
20
69.08
30
0
0
VERTEX
8
RASTER
10
140.186
20
69.11
30
0
0
VERTEX
8
RASTER
10
140.177
20
69.141
30
0
0
VERTEX
8
RASTER
10
140.17
20
69.173
30
0
0
VERTEX
8
RASTER
10
140.165
20
69.207
30
0
0
VERTEX
8
RASTER
10
140.162
20
69.242
30
0
0
VERTEX
8
RASTER
10
140.161
20
69.279
30
0
0
VERTEX
8
RASTER
10
140.163
20
69.318
30
0
0
VERTEX
8
RASTER
10
140.166
20
69.356
30
0
0
VERTEX
8
RASTER
10
140.171
20
69.393
30
0
0
VERTEX
8
RASTER
10
140.179
20
69.428
30
0
0
VERTEX
8
RASTER
10
140.189
20
69.462
30
0
0
VERTEX
8
RASTER
10
140.202
20
69.494
30
0
0
VERTEX
8
RASTER
10
140.216
20
69.525
30
0
0
VERTEX
8
RASTER
10
140.233
20
69.555
30
0
0
VERTEX
8
RASTER
10
140.251
20
69.583
30
0
0
VERTEX
8
RASTER
10
140.271
20
69.609
30
0
0
VERTEX
8
RASTER
10
140.292
20
69.635
30
0
0
VERTEX
8
RASTER
10
140.314
20
69.659
30
0
0
VERTEX
8
RASTER
10
140.338
20
69.681
30
0
0
VERTEX
8
RASTER
10
140.362
20
69.702
30
0
0
VERTEX
8
RASTER
10
140.388
20
69.722
30
0
0
VERTEX
8
RASTER
10
140.416
20
69.741
30
0
0
VERTEX
8
RASTER
10
140.444
20
69.758
30
0
0
VERTEX
8
RASTER
10
140.473
20
69.774
30
0
0
VERTEX
8
RASTER
10
140.503
20
69.789
30
0
0
VERTEX
8
RASTER
10
140.533
20
69.803
30
0
0
VERTEX
8
RASTER
10
140.565
20
69.815
30
0
0
VERTEX
8
RASTER
10
140.597
20
69.827
30
0
0
VERTEX
8
RASTER
10
140.63
20
69.837
30
0
0
VERTEX
8
RASTER
10
140.664
20
69.846
30
0
0
VERTEX
8
RASTER
10
140.698
20
69.854
30
0
0
VERTEX
8
RASTER
10
140.732
20
69.861
30
0
0
VERTEX
8
RASTER
10
140.766
20
69.867
30
0
0
VERTEX
8
RASTER
10
140.8
20
69.872
30
0
0
VERTEX
8
RASTER
10
140.834
20
69.875
30
0
0
VERTEX
8
RASTER
10
140.868
20
69.878
30
0
0
VERTEX
8
RASTER
10
140.902
20
69.88
30
0
0
VERTEX
8
RASTER
10
140.936
20
69.88
30
0
0
VERTEX
8
RASTER
10
140.994
20
69.879
30
0
0
VERTEX
8
RASTER
10
141.051
20
69.873
30
0
0
VERTEX
8
RASTER
10
141.108
20
69.865
30
0
0
VERTEX
8
RASTER
10
141.165
20
69.853
30
0
0
VERTEX
8
RASTER
10
141.222
20
69.838
30
0
0
VERTEX
8
RASTER
10
141.279
20
69.819
30
0
0
VERTEX
8
RASTER
10
141.335
20
69.797
30
0
0
VERTEX
8
RASTER
10
141.392
20
69.772
30
0
0
VERTEX
8
RASTER
10
141.447
20
69.744
30
0
0
VERTEX
8
RASTER
10
141.499
20
69.714
30
0
0
VERTEX
8
RASTER
10
141.547
20
69.683
30
0
0
VERTEX
8
RASTER
10
141.593
20
69.65
30
0
0
VERTEX
8
RASTER
10
141.635
20
69.615
30
0
0
VERTEX
8
RASTER
10
141.674
20
69.579
30
0
0
VERTEX
8
RASTER
10
141.71
20
69.541
30
0
0
VERTEX
8
RASTER
10
141.742
20
69.502
30
0
0
SEQEND
8
RASTER
0
CIRCLE
8
RASTER
10
109.4
20
99.6
30
0
40
5.4
0
POLYLINE
8
RASTER
66
1
70
1
0
VERTEX
8
RASTER
10
106.325
20
101.82
30
0
0
VERTEX
8
RASTER
10
107.608
20
97.43
30
0
0
VERTEX
8
RASTER
10
108.365
20
97.43
30
0
0
VERTEX
8
RASTER
10
109.394
20
100.722
30
0
0
VERTEX
8
RASTER
10
109.406
20
100.722
30
0
0
VERTEX
8
RASTER
10
110.435
20
97.43
30
0
0
VERTEX
8
RASTER
10
111.192
20
97.43
30
0
0
VERTEX
8
RASTER
10
112.475
20
101.82
30
0
0
VERTEX
8
RASTER
10
111.644
20
101.82
30
0
0
VERTEX
8
RASTER
10
110.776
20
98.596
30
0
0
VERTEX
8
RASTER
10
110.764
20
98.596
30
0
0
VERTEX
8
RASTER
10
109.815
20
101.82
30
0
0
VERTEX
8
RASTER
10
109.009
20
101.82
30
0
0
VERTEX
8
RASTER
10
108.042
20
98.596
30
0
0
VERTEX
8
RASTER
10
108.03
20
98.596
30
0
0
VERTEX
8
RASTER
10
107.18
20
101.82
30
0
0
VERTEX
8
RASTER
10
106.325
20
101.82
30
0
0
SEQEND
8
RASTER
0
POLYLINE
8
RASTER
66
1
70
1
0
VERTEX
8
RASTER
10
167.336
20
80.321
30
0
0
VERTEX
8
RASTER
10
167.081
20
79.975
30
0
0
VERTEX
8
RASTER
10
166.822
20
79.633
30
0
0
VERTEX
8
RASTER
10
166.558
20
79.294
30
0
0
VERTEX
8
RASTER
10
166.29
20
78.958
30
0
0
VERTEX
8
RASTER
10
166.018
20
78.626
30
0
0
VERTEX
8
RASTER
10
165.741
20
78.298
30
0
0
VERTEX
8
RASTER
10
165.46
20
77.973
30
0
0
VERTEX
8
RASTER
10
165.175
20
77.653
30
0
0
VERTEX
8
RASTER
10
164.886
20
77.335
30
0
0
VERTEX
8
RASTER
10
164.592
20
77.022
30
0
0
VERTEX
8
RASTER
10
164.295
20
76.712
30
0
0
VERTEX
8
RASTER
10
163.993
20
76.407
30
0
0
VERTEX
8
RASTER
10
163.688
20
76.105
30
0
0
VERTEX
8
RASTER
10
163.378
20
75.808
30
0
0
VERTEX
8
RASTER
10
163.065
20
75.514
30
0
0
VERTEX
8
RASTER
10
162.747
20
75.225
30
0
0
VERTEX
8
RASTER
10
162.427
20
74.94
30
0
0
VERTEX
8
RASTER
10
162.102
20
74.659
30
0
0
VERTEX
8
RASTER
10
161.774
20
74.382
30
0
0
VERTEX
8
RASTER
10
161.442
20
74.11
30
0
0
VERTEX
8
RASTER
10
161.106
20
73.842
30
0
0
VERTEX
8
RASTER
10
160.767
20
73.578
30
0
0
VERTEX
8
RASTER
10
160.425
20
73.319
30
0
0
VERTEX
8
RASTER
10
160.079
20
73.064
30
0
0
VERTEX
8
RASTER
10
143.856
20
95.393
30
0
0
VERTEX
8
RASTER
10
143.911
20
95.433
30
0
0
VERTEX
8
RASTER
10
143.966
20
95.475
30
0
0
VERTEX
8
RASTER
10
144.019
20
95.516
30
0
0
VERTEX
8
RASTER
10
144.072
20
95.559
30
0
0
VERTEX
8
RASTER
10
144.125
20
95.602
30
0
0
VERTEX
8
RASTER
10
144.177
20
95.646
30
0
0
VERTEX
8
RASTER
10
144.229
20
95.69
30
0
0
VERTEX
8
RASTER
10
144.279
20
95.736
30
0
0
VERTEX
8
RASTER
10
144.33
20
95.782
30
0
0
VERTEX
8
RASTER
10
144.379
20
95.828
30
0
0
VERTEX
8
RASTER
10
144.429
20
95.875
30
0
0
VERTEX
8
RASTER
10
144.477
20
95.923
30
0
0
VERTEX
8
RASTER
10
144.525
20
95.971
30
0
0
VERTEX
8
RASTER
10
144.572
20
96.021
30
0
0
VERTEX
8
RASTER
10
144.618
20
96.07
30
0
0
VERTEX
8
RASTER
10
144.664
20
96.121
30
0
0
VERTEX
8
RASTER
10
144.71
20
96.171
30
0
0
VERTEX
8
RASTER
10
144.754
20
96.223
30
0
0
VERTEX
8
RASTER
10
144.798
20
96.275
30
0
0
VERTEX
8
RASTER
10
144.841
20
96.328
30
0
0
VERTEX
8
RASTER
10
144.884
20
96.381
30
0
0
VERTEX
8
RASTER
10
144.925
20
96.434
30
0
0
VERTEX
8
RASTER
10
144.967
20
96.489
30
0
0
VERTEX
8
RASTER
10
145.007
20
96.544
30
0
0
SEQEND
8
RASTER
0
POLYLINE
8
RASTER
66
1
70
1
0
VERTEX
8
RASTER
10
157.505
20
83.899
30
0
0
VERTEX
8
RASTER
10
157.624
20
84.794
30
0
0
VERTEX
8
RASTER
10
157.515
20
85.441
30
0
0
VERTEX
8
RASTER
10
157.982
20
86.037
30
0
0
VERTEX
8
RASTER
10
158.122
20
86.683
30
0
0
VERTEX
8
RASTER
10
158.032
20
87.131
30
0
0
VERTEX
8
RASTER
10
157.664
20
87.777
30
0
0
VERTEX
8
RASTER
10
157.754
20
88.971
30
0
0
VERTEX
8
RASTER
10
156.849
20
89.915
30
0
0
VERTEX
8
RASTER
10
156.252
20
89.985
30
0
0
VERTEX
8
RASTER
10
155.854
20
89.915
30
0
0
VERTEX
8
RASTER
10
155.009
20
89.468
30
0
0
VERTEX
8
RASTER
10
154.363
20
90.044
30
0
0
VERTEX
8
RASTER
10
153.915
20
90.194
30
0
0
VERTEX
8
RASTER
10
153.617
20
90.124
30
0
0
VERTEX
8
RASTER
10
153.269
20
89.816
30
0
0
VERTEX
8
RASTER
10
153.12
20
89.567
30
0
0
VERTEX
8
RASTER
10
153.02
20
88.98
30
0
0
VERTEX
8
RASTER
10
152.822
20
88.98
30
0
0
VERTEX
8
RASTER
10
152.573
20
89.309
30
0
0
VERTEX
8
RASTER
10
152.126
20
89.537
30
0
0
VERTEX
8
RASTER
10
151.628
20
89.169
30
0
0
VERTEX
8
RASTER
10
151.559
20
88.971
30
0
0
VERTEX
8
RASTER
10
151.718
20
87.131
30
0
0
VERTEX
8
RASTER
10
151.081
20
86.634
30
0
0
VERTEX
8
RASTER
10
150.843
20
86.286
30
0
0
VERTEX
8
RASTER
10
150.793
20
85.888
30
0
0
VERTEX
8
RASTER
10
150.972
20
85.291
30
0
0
VERTEX
8
RASTER
10
150.654
20
84.744
30
0
0
VERTEX
8
RASTER
10
150.505
20
84.198
30
0
0
VERTEX
8
RASTER
10
150.594
20
83.452
30
0
0
VERTEX
8
RASTER
10
151.33
20
82.706
30
0
0
VERTEX
8
RASTER
10
152.026
20
82.577
30
0
0
VERTEX
8
RASTER
10
152.623
20
82.646
30
0
0
VERTEX
8
RASTER
10
153.17
20
82.288
30
0
0
VERTEX
8
RASTER
10
153.965
20
82.259
30
0
0
VERTEX
8
RASTER
10
154.661
20
82.716
30
0
0
VERTEX
8
RASTER
10
155.656
20
82.626
30
0
0
VERTEX
8
RASTER
10
156.451
20
82.766
30
0
0
VERTEX
8
RASTER
10
157.505
20
83.899
30
0
0
SEQEND
8
RASTER
0
POLYLINE
8
RASTER
66
1
70
1
0
VERTEX
8
RASTER
10
121.521
20
73.064
30
0
0
VERTEX
8
RASTER
10
121.175
20
73.319
30
0
0
VERTEX
8
RASTER
10
120.833
20
73.578
30
0
0
VERTEX
8
RASTER
10
120.494
20
73.842
30
0
0
VERTEX
8
RASTER
10
120.158
20
74.11
30
0
0
VERTEX
8
RASTER
10
119.826
20
74.382
30
0
0
VERTEX
8
RASTER
10
119.498
20
74.659
30
0
0
VERTEX
8
RASTER
10
119.173
20
74.94
30
0
0
VERTEX
8
RASTER
10
118.853
20
75.225
30
0
0
VERTEX
8
RASTER
10
118.535
20
75.514
30
0
0
VERTEX
8
RASTER
10
118.222
20
75.808
30
0
0
VERTEX
8
RASTER
10
117.912
20
76.105
30
0
0
VERTEX
8
RASTER
10
117.607
20
76.407
30
0
0
VERTEX
8
RASTER
10
117.305
20
76.712
30
0
0
VERTEX
8
RASTER
10
117.008
20
77.022
30
0
0
VERTEX
8
RASTER
10
116.714
20
77.335
30
0
0
VERTEX
8
RASTER
10
116.425
20
77.653
30
0
0
VERTEX
8
RASTER
10
116.14
20
77.973
30
0
0
VERTEX
8
RASTER
10
115.859
20
78.298
30
0
0
VERTEX
8
RASTER
10
115.582
20
78.626
30
0
0
VERTEX
8
RASTER
10
115.31
20
78.958
30
0
0
VERTEX
8
RASTER
10
115.042
20
79.294
30
0
0
VERTEX
8
RASTER
10
114.778
20
79.633
30
0
0
VERTEX
8
RASTER
10
114.519
20
79.975
30
0
0
VERTEX
8
RASTER
10
114.264
20
80.321
30
0
0
VERTEX
8
RASTER
10
136.593
20
96.544
30
0
0
VERTEX
8
RASTER
10
136.633
20
96.489
30
0
0
VERTEX
8
RASTER
10
136.675
20
96.434
30
0
0
VERTEX
8
RASTER
10
136.716
20
96.381
30
0
0
VERTEX
8
RASTER
10
136.759
20
96.328
30
0
0
VERTEX
8
RASTER
10
136.802
20
96.275
30
0
0
VERTEX
8
RASTER
10
136.846
20
96.223
30
0
0
VERTEX
8
RASTER
10
136.89
20
96.171
30
0
0
VERTEX
8
RASTER
10
136.936
20
96.121
30
0
0
VERTEX
8
RASTER
10
136.982
20
96.07
30
0
0
VERTEX
8
RASTER
10
137.028
20
96.021
30
0
0
VERTEX
8
RASTER
10
137.075
20
95.971
30
0
0
VERTEX
8
RASTER
10
137.123
20
95.923
30
0
0
VERTEX
8
RASTER
10
137.171
20
95.875
30
0
0
VERTEX
8
RASTER
10
137.221
20
95.828
30
0
0
VERTEX
8
RASTER
10
137.27
20
95.782
30
0
0
VERTEX
8
RASTER
10
137.321
20
95.736
30
0
0
VERTEX
8
RASTER
10
137.371
20
95.69
30
0
0
VERTEX
8
RASTER
10
137.423
20
95.646
30
0
0
VERTEX
8
RASTER
10
137.475
20
95.602
30
0
0
VERTEX
8
RASTER
10
137.528
20
95.559
30
0
0
VERTEX
8
RASTER
10
137.581
20
95.516
30
0
0
VERTEX
8
RASTER
10
137.634
20
95.475
30
0
0
VERTEX
8
RASTER
10
137.689
20
95.433
30
0
0
VERTEX
8
RASTER
10
137.744
20
95.393
30
0
0
SEQEND
8
RASTER
0
POLYLINE
8
RASTER
66
1
70
1
0
VERTEX
8
RASTER
10
125.099
20
82.895
30
0
0
VERTEX
8
RASTER
10
125.994
20
82.776
30
0
0
VERTEX
8
RASTER
10
126.641
20
82.885
30
0
0
VERTEX
8
RASTER
10
127.237
20
82.418
30
0
0
VERTEX
8
RASTER
10
127.883
20
82.278
30
0
0
VERTEX
8
RASTER
10
128.331
20
82.368
30
0
0
VERTEX
8
RASTER
10
128.977
20
82.736
30
0
0
VERTEX
8
RASTER
10
130.171
20
82.646
30
0
0
VERTEX
8
RASTER
10
131.115
20
83.551
30
0
0
VERTEX
8
RASTER
10
131.185
20
84.148
30
0
0
VERTEX
8
RASTER
10
131.115
20
84.546
30
0
0
VERTEX
8
RASTER
10
130.668
20
85.391
30
0
0
VERTEX
8
RASTER
10
131.244
20
86.037
30
0
0
VERTEX
8
RASTER
10
131.394
20
86.485
30
0
0
VERTEX
8
RASTER
10
131.324
20
86.783
30
0
0
VERTEX
8
RASTER
10
131.016
20
87.131
30
0
0
VERTEX
8
RASTER
10
130.767
20
87.28
30
0
0
VERTEX
8
RASTER
10
130.18
20
87.38
30
0
0
VERTEX
8
RASTER
10
130.18
20
87.578
30
0
0
VERTEX
8
RASTER
10
130.509
20
87.827
30
0
0
VERTEX
8
RASTER
10
130.737
20
88.274
30
0
0
VERTEX
8
RASTER
10
130.369
20
88.772
30
0
0
VERTEX
8
RASTER
10
130.171
20
88.841
30
0
0
VERTEX
8
RASTER
10
128.331
20
88.682
30
0
0
VERTEX
8
RASTER
10
127.834
20
89.319
30
0
0
VERTEX
8
RASTER
10
127.486
20
89.557
30
0
0
VERTEX
8
RASTER
10
127.088
20
89.607
30
0
0
VERTEX
8
RASTER
10
126.491
20
89.428
30
0
0
VERTEX
8
RASTER
10
125.944
20
89.746
30
0
0
VERTEX
8
RASTER
10
125.398
20
89.895
30
0
0
VERTEX
8
RASTER
10
124.652
20
89.806
30
0
0
VERTEX
8
RASTER
10
123.906
20
89.07
30
0
0
VERTEX
8
RASTER
10
123.777
20
88.374
30
0
0
VERTEX
8
RASTER
10
123.846
20
87.777
30
0
0
VERTEX
8
RASTER
10
123.488
20
87.23
30
0
0
VERTEX
8
RASTER
10
123.459
20
86.435
30
0
0
VERTEX
8
RASTER
10
123.916
20
85.739
30
0
0
VERTEX
8
RASTER
10
123.826
20
84.744
30
0
0
VERTEX
8
RASTER
10
123.966
20
83.949
30
0
0
VERTEX
8
RASTER
10
125.099
20
82.895
30
0
0
SEQEND
8
RASTER
0
POLYLINE
8
RASTER
66
1
70
1
0
VERTEX
8
RASTER
10
114.264
20
118.879
30
0
0
VERTEX
8
RASTER
10
114.519
20
119.225
30
0
0
VERTEX
8
RASTER
10
114.778
20
119.567
30
0
0
VERTEX
8
RASTER
10
115.042
20
119.906
30
0
0
VERTEX
8
RASTER
10
115.31
20
120.242
30
0
0
VERTEX
8
RASTER
10
115.582
20
120.574
30
0
0
VERTEX
8
RASTER
10
115.859
20
120.902
30
0
0
VERTEX
8
RASTER
10
116.14
20
121.227
30
0
0
VERTEX
8
RASTER
10
116.425
20
121.547
30
0
0
VERTEX
8
RASTER
10
116.714
20
121.865
30
0
0
VERTEX
8
RASTER
10
117.008
20
122.178
30
0
0
VERTEX
8
RASTER
10
117.305
20
122.488
30
0
0
VERTEX
8
RASTER
10
117.607
20
122.793
30
0
0
VERTEX
8
RASTER
10
117.912
20
123.095
30
0
0
VERTEX
8
RASTER
10
118.222
20
123.392
30
0
0
VERTEX
8
RASTER
10
118.535
20
123.686
30
0
0
VERTEX
8
RASTER
10
118.853
20
123.975
30
0
0
VERTEX
8
RASTER
10
119.173
20
124.26
30
0
0
VERTEX
8
RASTER
10
119.498
20
124.541
30
0
0
VERTEX
8
RASTER
10
119.826
20
124.818
30
0
0
VERTEX
8
RASTER
10
120.158
20
125.09
30
0
0
VERTEX
8
RASTER
10
120.494
20
125.358
30
0
0
VERTEX
8
RASTER
10
120.833
20
125.622
30
0
0
VERTEX
8
RASTER
10
121.175
20
125.881
30
0
0
VERTEX
8
RASTER
10
121.521
20
126.136
30
0
0
VERTEX
8
RASTER
10
137.744
20
103.807
30
0
0
VERTEX
8
RASTER
10
137.689
20
103.767
30
0
0
VERTEX
8
RASTER
10
137.634
20
103.725
30
0
0
VERTEX
8
RASTER
10
137.581
20
103.684
30
0
0
VERTEX
8
RASTER
10
137.528
20
103.641
30
0
0
VERTEX
8
RASTER
10
137.475
20
103.598
30
0
0
VERTEX
8
RASTER
10
137.423
20
103.554
30
0
0
VERTEX
8
RASTER
10
137.371
20
103.51
30
0
0
VERTEX
8
RASTER
10
137.321
20
103.464
30
0
0
VERTEX
8
RASTER
10
137.27
20
103.418
30
0
0
VERTEX
8
RASTER
10
137.221
20
103.372
30
0
0
VERTEX
8
RASTER
10
137.171
20
103.325
30
0
0
VERTEX
8
RASTER
10
137.123
20
103.277
30
0
0
VERTEX
8
RASTER
10
137.075
20
103.229
30
0
0
VERTEX
8
RASTER
10
137.028
20
103.179
30
0
0
VERTEX
8
RASTER
10
136.982
20
103.13
30
0
0
VERTEX
8
RASTER
10
136.936
20
103.079
30
0
0
VERTEX
8
RASTER
10
136.89
20
103.029
30
0
0
VERTEX
8
RASTER
10
136.846
20
102.977
30
0
0
VERTEX
8
RASTER
10
136.802
20
102.925
30
0
0
VERTEX
8
RASTER
10
136.759
20
102.872
30
0
0
VERTEX
8
RASTER
10
136.716
20
102.819
30
0
0
VERTEX
8
RASTER
10
136.675
20
102.766
30
0
0
VERTEX
8
RASTER
10
136.633
20
102.711
30
0
0
VERTEX
8
RASTER
10
136.593
20
102.656
30
0
0
SEQEND
8
RASTER
0
POLYLINE
8
RASTER
66
1
70
1
0
VERTEX
8
RASTER
10
124.095
20
115.301
30
0
0
VERTEX
8
RASTER
10
123.976
20
114.406
30
0
0
VERTEX
8
RASTER
10
124.085
20
113.759
30
0
0
VERTEX
8
RASTER
10
123.618
20
113.163
30
0
0
VERTEX
8
RASTER
10
123.478
20
112.517
30
0
0
VERTEX
8
RASTER
10
123.568
20
112.069
30
0
0
VERTEX
8
RASTER
10
123.936
20
111.423
30
0
0
VERTEX
8
RASTER
10
123.846
20
110.229
30
0
0
VERTEX
8
RASTER
10
124.751
20
109.285
30
0
0
VERTEX
8
RASTER
10
125.348
20
109.215
30
0
0
VERTEX
8
RASTER
10
125.746
20
109.285
30
0
0
VERTEX
8
RASTER
10
126.591
20
109.732
30
0
0
VERTEX
8
RASTER
10
127.237
20
109.156
30
0
0
VERTEX
8
RASTER
10
127.685
20
109.006
30
0
0
VERTEX
8
RASTER
10
127.983
20
109.076
30
0
0
VERTEX
8
RASTER
10
128.331
20
109.384
30
0
0
VERTEX
8
RASTER
10
128.48
20
109.633
30
0
0
VERTEX
8
RASTER
10
128.58
20
110.22
30
0
0
VERTEX
8
RASTER
10
128.778
20
110.22
30
0
0
VERTEX
8
RASTER
10
129.027
20
109.891
30
0
0
VERTEX
8
RASTER
10
129.474
20
109.663
30
0
0
VERTEX
8
RASTER
10
129.972
20
110.031
30
0
0
VERTEX
8
RASTER
10
130.041
20
110.229
30
0
0
VERTEX
8
RASTER
10
129.882
20
112.069
30
0
0
VERTEX
8
RASTER
10
130.519
20
112.566
30
0
0
VERTEX
8
RASTER
10
130.757
20
112.914
30
0
0
VERTEX
8
RASTER
10
130.807
20
113.312
30
0
0
VERTEX
8
RASTER
10
130.628
20
113.909
30
0
0
VERTEX
8
RASTER
10
130.946
20
114.456
30
0
0
VERTEX
8
RASTER
10
131.095
20
115.002
30
0
0
VERTEX
8
RASTER
10
131.006
20
115.748
30
0
0
VERTEX
8
RASTER
10
130.27
20
116.494
30
0
0
VERTEX
8
RASTER
10
129.574
20
116.623
30
0
0
VERTEX
8
RASTER
10
128.977
20
116.554
30
0
0
VERTEX
8
RASTER
10
128.43
20
116.912
30
0
0
VERTEX
8
RASTER
10
127.635
20
116.941
30
0
0
VERTEX
8
RASTER
10
126.939
20
116.484
30
0
0
VERTEX
8
RASTER
10
125.944
20
116.574
30
0
0
VERTEX
8
RASTER
10
125.149
20
116.434
30
0
0
VERTEX
8
RASTER
10
124.095
20
115.301
30
0
0
SEQEND
8
RASTER
0
POLYLINE
8
RASTER
66
1
70
1
0
VERTEX
8
RASTER
10
160.079
20
126.136
30
0
0
VERTEX
8
RASTER
10
160.425
20
125.881
30
0
0
VERTEX
8
RASTER
10
160.767
20
125.622
30
0
0
VERTEX
8
RASTER
10
161.106
20
125.358
30
0
0
VERTEX
8
RASTER
10
161.442
20
125.09
30
0
0
VERTEX
8
RASTER
10
161.774
20
124.818
30
0
0
VERTEX
8
RASTER
10
162.102
20
124.541
30
0
0
VERTEX
8
RASTER
10
162.427
20
124.26
30
0
0
VERTEX
8
RASTER
10
162.747
20
123.975
30
0
0
VERTEX
8
RASTER
10
163.065
20
123.686
30
0
0
VERTEX
8
RASTER
10
163.378
20
123.392
30
0
0
VERTEX
8
RASTER
10
163.688
20
123.095
30
0
0
VERTEX
8
RASTER
10
163.993
20
122.793
30
0
0
VERTEX
8
RASTER
10
164.295
20
122.488
30
0
0
VERTEX
8
RASTER
10
164.592
20
122.178
30
0
0
VERTEX
8
RASTER
10
164.886
20
121.865
30
0
0
VERTEX
8
RASTER
10
165.175
20
121.547
30
0
0
VERTEX
8
RASTER
10
165.46
20
121.227
30
0
0
VERTEX
8
RASTER
10
165.741
20
120.902
30
0
0
VERTEX
8
RASTER
10
166.018
20
120.574
30
0
0
VERTEX
8
RASTER
10
166.29
20
120.242
30
0
0
VERTEX
8
RASTER
10
166.558
20
119.906
30
0
0
VERTEX
8
RASTER
10
166.822
20
119.567
30
0
0
VERTEX
8
RASTER
10
167.081
20
119.225
30
0
0
VERTEX
8
RASTER
10
167.336
20
118.879
30
0
0
VERTEX
8
RASTER
10
145.007
20
102.656
30
0
0
VERTEX
8
RASTER
10
144.967
20
102.711
30
0
0
VERTEX
8
RASTER
10
144.925
20
102.766
30
0
0
VERTEX
8
RASTER
10
144.884
20
102.819
30
0
0
VERTEX
8
RASTER
10
144.841
20
102.872
30
0
0
VERTEX
8
RASTER
10
144.798
20
102.925
30
0
0
VERTEX
8
RASTER
10
144.754
20
102.977
30
0
0
VERTEX
8
RASTER
10
144.71
20
103.029
30
0
0
VERTEX
8
RASTER
10
144.664
20
103.079
30
0
0
VERTEX
8
RASTER
10
144.618
20
103.13
30
0
0
VERTEX
8
RASTER
10
144.572
20
103.179
30
0
0
VERTEX
8
RASTER
10
144.525
20
103.229
30
0
0
VERTEX
8
RASTER
10
144.477
20
103.277
30
0
0
VERTEX
8
RASTER
10
144.429
20
103.325
30
0
0
VERTEX
8
RASTER
10
144.379
20
103.372
30
0
0
VERTEX
8
RASTER
10
144.33
20
103.418
30
0
0
VERTEX
8
RASTER
10
144.279
20
103.464
30
0
0
VERTEX
8
RASTER
10
144.229
20
103.51
30
0
0
VERTEX
8
RASTER
10
144.177
20
103.554
30
0
0
VERTEX
8
RASTER
10
144.125
20
103.598
30
0
0
VERTEX
8
RASTER
10
144.072
20
103.641
30
0
0
VERTEX
8
RASTER
10
144.019
20
103.684
30
0
0
VERTEX
8
RASTER
10
143.966
20
103.725
30
0
0
VERTEX
8
RASTER
10
143.911
20
103.767
30
0
0
VERTEX
8
RASTER
10
143.856
20
103.807
30
0
0
SEQEND
8
RASTER
0
POLYLINE
8
RASTER
66
1
70
1
0
VERTEX
8
RASTER
10
156.501
20
116.305
30
0
0
VERTEX
8
RASTER
10
155.606
20
116.424
30
0
0
VERTEX
8
RASTER
10
154.959
20
116.315
30
0
0
VERTEX
8
RASTER
10
154.363
20
116.782
30
0
0
VERTEX
8
RASTER
10
153.717
20
116.922
30
0
0
VERTEX
8
RASTER
10
153.269
20
116.832
30
0
0
VERTEX
8
RASTER
10
152.623
20
116.464
30
0
0
VERTEX
8
RASTER
10
151.429
20
116.554
30
0
0
VERTEX
8
RASTER
10
150.485
20
115.649
30
0
0
VERTEX
8
RASTER
10
150.415
20
115.052
30
0
0
VERTEX
8
RASTER
10
150.485
20
114.654
30
0
0
VERTEX
8
RASTER
10
150.932
20
113.809
30
0
0
VERTEX
8
RASTER
10
150.356
20
113.163
30
0
0
VERTEX
8
RASTER
10
150.206
20
112.715
30
0
0
VERTEX
8
RASTER
10
150.276
20
112.417
30
0
0
VERTEX
8
RASTER
10
150.584
20
112.069
30
0
0
VERTEX
8
RASTER
10
150.833
20
111.92
30
0
0
VERTEX
8
RASTER
10
151.42
20
111.82
30
0
0
VERTEX
8
RASTER
10
151.42
20
111.622
30
0
0
VERTEX
8
RASTER
10
151.091
20
111.373
30
0
0
VERTEX
8
RASTER
10
150.863
20
110.926
30
0
0
VERTEX
8
RASTER
10
151.231
20
110.428
30
0
0
VERTEX
8
RASTER
10
151.429
20
110.359
30
0
0
VERTEX
8
RASTER
10
153.269
20
110.518
30
0
0
VERTEX
8
RASTER
10
153.766
20
109.881
30
0
0
VERTEX
8
RASTER
10
154.114
20
109.643
30
0
0
VERTEX
8
RASTER
10
154.512
20
109.593
30
0
0
VERTEX
8
RASTER
10
155.109
20
109.772
30
0
0
VERTEX
8
RASTER
10
155.656
20
109.454
30
0
0
VERTEX
8
RASTER
10
156.202
20
109.305
30
0
0
VERTEX
8
RASTER
10
156.948
20
109.394
30
0
0
VERTEX
8
RASTER
10
157.694
20
110.13
30
0
0
VERTEX
8
RASTER
10
157.823
20
110.826
30
0
0
VERTEX
8
RASTER
10
157.754
20
111.423
30
0
0
VERTEX
8
RASTER
10
158.112
20
111.97
30
0
0
VERTEX
8
RASTER
10
158.141
20
112.765
30
0
0
VERTEX
8
RASTER
10
157.684
20
113.461
30
0
0
VERTEX
8
RASTER
10
157.774
20
114.456
30
0
0
VERTEX
8
RASTER
10
157.634
20
115.251
30
0
0
VERTEX
8
RASTER
10
156.501
20
116.305
30
0
0
SEQEND
8
RASTER
0
CIRCLE
8
RASTER
10
140.8
20
112.62
30
0
40
0.63
0
CIRCLE
8
RASTER
10
140.8
20
112.62
30
0
40
0.35
0
POLYLINE
8
RASTER
66
1
70
1
0
VERTEX
8
RASTER
10
140.52
20
111.78
30
0
0
VERTEX
8
RASTER
10
141.08
20
111.78
30
0
0
VERTEX
8
RASTER
10
141.08
20
111.08
30
0
0
VERTEX
8
RASTER
10
142.34
20
111.08
30
0
0
VERTEX
8
RASTER
10
142.34
20
110.66
30
0
0
VERTEX
8
RASTER
10
141.08
20
110.66
30
0
0
VERTEX
8
RASTER
10
141.08
20
108.7
30
0
0
VERTEX
8
RASTER
10
141.243
20
108.667
30
0
0
VERTEX
8
RASTER
10
141.415
20
108.672
30
0
0
VERTEX
8
RASTER
10
141.589
20
108.712
30
0
0
VERTEX
8
RASTER
10
141.763
20
108.788
30
0
0
VERTEX
8
RASTER
10
141.929
20
108.896
30
0
0
VERTEX
8
RASTER
10
142.084
20
109.035
30
0
0
VERTEX
8
RASTER
10
142.223
20
109.203
30
0
0
VERTEX
8
RASTER
10
142.34
20
109.4
30
0
0
VERTEX
8
RASTER
10
143.04
20
108.84
30
0
0
VERTEX
8
RASTER
10
142.904
20
108.434
30
0
0
VERTEX
8
RASTER
10
142.71
20
108.061
30
0
0
VERTEX
8
RASTER
10
142.467
20
107.728
30
0
0
VERTEX
8
RASTER
10
142.183
20
107.44
30
0
0
VERTEX
8
RASTER
10
141.866
20
107.205
30
0
0
VERTEX
8
RASTER
10
141.524
20
107.029
30
0
0
VERTEX
8
RASTER
10
141.166
20
106.918
30
0
0
VERTEX
8
RASTER
10
140.8
20
106.88
30
0
0
VERTEX
8
RASTER
10
140.434
20
106.918
30
0
0
VERTEX
8
RASTER
10
140.076
20
107.029
30
0
0
VERTEX
8
RASTER
10
139.734
20
107.205
30
0
0
VERTEX
8
RASTER
10
139.418
20
107.44
30
0
0
VERTEX
8
RASTER
10
139.133
20
107.728
30
0
0
VERTEX
8
RASTER
10
138.89
20
108.061
30
0
0
VERTEX
8
RASTER
10
138.696
20
108.434
30
0
0
VERTEX
8
RASTER
10
138.56
20
108.84
30
0
0
VERTEX
8
RASTER
10
139.26
20
109.4
30
0
0
VERTEX
8
RASTER
10
139.377
20
109.203
30
0
0
VERTEX
8
RASTER
10
139.516
20
109.035
30
0
0
VERTEX
8
RASTER
10
139.671
20
108.896
30
0
0
VERTEX
8
RASTER
10
139.838
20
108.788
30
0
0
VERTEX
8
RASTER
10
140.011
20
108.712
30
0
0
VERTEX
8
RASTER
10
140.185
20
108.672
30
0
0
VERTEX
8
RASTER
10
140.357
20
108.667
30
0
0
VERTEX
8
RASTER
10
140.52
20
108.7
30
0
0
VERTEX
8
RASTER
10
140.52
20
110.66
30
0
0
VERTEX
8
RASTER
10
139.26
20
110.66
30
0
0
VERTEX
8
RASTER
10
139.26
20
111.08
30
0
0
VERTEX
8
RASTER
10
140.52
20
111.08
30
0
0
SEQEND
8
RASTER
0
CIRCLE
8
CUT
10
229.6
20
88.4
30
0
40
48
0
CIRCLE
8
CUT
10
229.6
20
88.4
30
0
40
35.4
0
POLYLINE
8
CUT
66
1
70
1
0
VERTEX
8
CUT
10
228
20
134.9
30
0
0
VERTEX
8
CUT
10
231.2
20
134.9
30
0
0
VERTEX
8
CUT
10
231.2
20
127.9
30
0
0
VERTEX
8
CUT
10
228
20
127.9
30
0
0
SEQEND
8
CUT
0
CIRCLE
8
RASTER
10
229.6
20
88.4
30
0
40
47
0
CIRCLE
8
RASTER
10
229.6
20
88.4
30
0
40
46.4
0
POLYLINE
8
RASTER
66
1
70
1
0
VERTEX
8
RASTER
10
229.6
20
124.1
30
0
0
VERTEX
8
RASTER
10
229.1
20
125.2
30
0
0
VERTEX
8
RASTER
10
229.6
20
125.9
30
0
0
VERTEX
8
RASTER
10
230.1
20
125.2
30
0
0
SEQEND
8
RASTER
0
POLYLINE
8
RASTER
66
1
70
1
0
VERTEX
8
RASTER
10
229.6
20
125.9
30
0
0
VERTEX
8
RASTER
10
229.326
20
125.679
30
0
0
VERTEX
8
RASTER
10
229.042
20
125.539
30
0
0
VERTEX
8
RASTER
10
228.765
20
125.476
30
0
0
VERTEX
8
RASTER
10
228.513
20
125.488
30
0
0
VERTEX
8
RASTER
10
228.302
20
125.569
30
0
0
VERTEX
8
RASTER
10
228.152
20
125.717
30
0
0
VERTEX
8
RASTER
10
228.078
20
125.929
30
0
0
VERTEX
8
RASTER
10
228.1
20
126.2
30
0
0
VERTEX
8
RASTER
10
228.159
20
126.36
30
0
0
VERTEX
8
RASTER
10
228.256
20
126.469
30
0
0
VERTEX
8
RASTER
10
228.381
20
126.53
30
0
0
VERTEX
8
RASTER
10
228.525
20
126.55
30
0
0
VERTEX
8
RASTER
10
228.678
20
126.532
30
0
0
VERTEX
8
RASTER
10
228.831
20
126.481
30
0
0
VERTEX
8
RASTER
10
228.975
20
126.402
30
0
0
VERTEX
8
RASTER
10
229.1
20
126.3
30
0
0
VERTEX
8
RASTER
10
229.3
20
126.7
30
0
0
VERTEX
8
RASTER
10
229.9
20
126.7
30
0
0
VERTEX
8
RASTER
10
230.1
20
126.3
30
0
0
VERTEX
8
RASTER
10
230.225
20
126.402
30
0
0
VERTEX
8
RASTER
10
230.369
20
126.481
30
0
0
VERTEX
8
RASTER
10
230.522
20
126.532
30
0
0
VERTEX
8
RASTER
10
230.675
20
126.55
30
0
0
VERTEX
8
RASTER
10
230.819
20
126.53
30
0
0
VERTEX
8
RASTER
10
230.944
20
126.469
30
0
0
VERTEX
8
RASTER
10
231.041
20
126.36
30
0
0
VERTEX
8
RASTER
10
231.1
20
126.2
30
0
0
VERTEX
8
RASTER
10
231.122
20
125.929
30
0
0
VERTEX
8
RASTER
10
231.048
20
125.717
30
0
0
VERTEX
8
RASTER
10
230.898
20
125.569
30
0
0
VERTEX
8
RASTER
10
230.688
20
125.488
30
0
0
VERTEX
8
RASTER
10
230.435
20
125.476
30
0
0
VERTEX
8
RASTER
10
230.158
20
125.539
30
0
0
VERTEX
8
RASTER
10
229.874
20
125.679
30
0
0
VERTEX
8
RASTER
10
229.6
20
125.9
30
0
0
SEQEND
8
RASTER
0
POLYLINE
8
RASTER
66
1
70
1
0
VERTEX
8
RASTER
10
229.9
20
126.8
30
0
0
VERTEX
8
RASTER
10
229.3
20
126.8
30
0
0
VERTEX
8
RASTER
10
229.3
20
127.1
30
0
0
VERTEX
8
RASTER
10
229.9
20
127.1
30
0
0
SEQEND
8
RASTER
0
POLYLINE
8
RASTER
66
1
70
1
0
VERTEX
8
RASTER
10
221.049
20
47.524
30
0
0
VERTEX
8
RASTER
10
221.463
20
47.524
30
0
0
VERTEX
8
RASTER
10
221.874
20
45.964
30
0
0
VERTEX
8
RASTER
10
221.88
20
45.964
30
0
0
VERTEX
8
RASTER
10
222.348
20
47.524
30
0
0
VERTEX
8
RASTER
10
222.737
20
47.524
30
0
0
VERTEX
8
RASTER
10
223.197
20
45.964
30
0
0
VERTEX
8
RASTER
10
223.203
20
45.964
30
0
0
VERTEX
8
RASTER
10
223.623
20
47.524
30
0
0
VERTEX
8
RASTER
10
224.025
20
47.524
30
0
0
VERTEX
8
RASTER
10
223.404
20
45.4
30
0
0
VERTEX
8
RASTER
10
223.038
20
45.4
30
0
0
VERTEX
8
RASTER
10
222.54
20
46.993
30
0
0
VERTEX
8
RASTER
10
222.534
20
46.993
30
0
0
VERTEX
8
RASTER
10
222.035
20
45.4
30
0
0
VERTEX
8
RASTER
10
221.67
20
45.4
30
0
0
SEQEND
8
RASTER
0
POLYLINE
8
RASTER
66
1
70
1
0
VERTEX
8
RASTER
10
224.277
20
47.524
30
0
0
VERTEX
8
RASTER
10
224.654
20
47.524
30
0
0
VERTEX
8
RASTER
10
224.654
20
45.4
30
0
0
VERTEX
8
RASTER
10
224.277
20
45.4
30
0
0
SEQEND
8
RASTER
0
POLYLINE
8
RASTER
66
1
70
1
0
VERTEX
8
RASTER
10
225.123
20
47.524
30
0
0
VERTEX
8
RASTER
10
225.624
20
47.524
30
0
0
VERTEX
8
RASTER
10
226.611
20
45.934
30
0
0
VERTEX
8
RASTER
10
226.617
20
45.934
30
0
0
VERTEX
8
RASTER
10
226.617
20
47.524
30
0
0
VERTEX
8
RASTER
10
226.995
20
47.524
30
0
0
VERTEX
8
RASTER
10
226.995
20
45.4
30
0
0
VERTEX
8
RASTER
10
226.515
20
45.4
30
0
0
VERTEX
8
RASTER
10
225.507
20
47.041
30
0
0
VERTEX
8
RASTER
10
225.501
20
47.041
30
0
0
VERTEX
8
RASTER
10
225.501
20
45.4
30
0
0
VERTEX
8
RASTER
10
225.123
20
45.4
30
0
0
SEQEND
8
RASTER
0
POLYLINE
8
RASTER
66
1
70
1
0
VERTEX
8
RASTER
10
227.463
20
47.524
30
0
0
VERTEX
8
RASTER
10
228.216
20
47.524
30
0
0
VERTEX
8
RASTER
10
228.267
20
47.523
30
0
0
VERTEX
8
RASTER
10
228.319
20
47.521
30
0
0
VERTEX
8
RASTER
10
228.371
20
47.516
30
0
0
VERTEX
8
RASTER
10
228.423
20
47.511
30
0
0
VERTEX
8
RASTER
10
228.475
20
47.503
30
0
0
VERTEX
8
RASTER
10
228.528
20
47.494
30
0
0
VERTEX
8
RASTER
10
228.58
20
47.483
30
0
0
VERTEX
8
RASTER
10
228.633
20
47.47
30
0
0
VERTEX
8
RASTER
10
228.684
20
47.455
30
0
0
VERTEX
8
RASTER
10
228.735
20
47.439
30
0
0
VERTEX
8
RASTER
10
228.784
20
47.42
30
0
0
VERTEX
8
RASTER
10
228.832
20
47.398
30
0
0
VERTEX
8
RASTER
10
228.879
20
47.375
30
0
0
VERTEX
8
RASTER
10
228.924
20
47.349
30
0
0
VERTEX
8
RASTER
10
228.968
20
47.322
30
0
0
VERTEX
8
RASTER
10
229.011
20
47.292
30
0
0
VERTEX
8
RASTER
10
229.052
20
47.259
30
0
0
VERTEX
8
RASTER
10
229.091
20
47.224
30
0
0
VERTEX
8
RASTER
10
229.128
20
47.187
30
0
0
VERTEX
8
RASTER
10
229.163
20
47.148
30
0
0
VERTEX
8
RASTER
10
229.196
20
47.105
30
0
0
VERTEX
8
RASTER
10
229.227
20
47.061
30
0
0
VERTEX
8
RASTER
10
229.256
20
47.014
30
0
0
VERTEX
8
RASTER
10
229.284
20
46.965
30
0
0
VERTEX
8
RASTER
10
229.308
20
46.912
30
0
0
VERTEX
8
RASTER
10
229.329
20
46.857
30
0
0
VERTEX
8
RASTER
10
229.347
20
46.799
30
0
0
VERTEX
8
RASTER
10
229.362
20
46.738
30
0
0
VERTEX
8
RASTER
10
229.374
20
46.673
30
0
0
VERTEX
8
RASTER
10
229.382
20
46.606
30
0
0
VERTEX
8
RASTER
10
229.387
20
46.535
30
0
0
VERTEX
8
RASTER
10
229.389
20
46.462
30
0
0
VERTEX
8
RASTER
10
229.387
20
46.393
30
0
0
VERTEX
8
RASTER
10
229.382
20
46.327
30
0
0
VERTEX
8
RASTER
10
229.374
20
46.264
30
0
0
VERTEX
8
RASTER
10
229.362
20
46.203
30
0
0
VERTEX
8
RASTER
10
229.347
20
46.144
30
0
0
VERTEX
8
RASTER
10
229.329
20
46.087
30
0
0
VERTEX
8
RASTER
10
229.308
20
46.033
30
0
0
VERTEX
8
RASTER
10
229.284
20
45.982
30
0
0
VERTEX
8
RASTER
10
229.256
20
45.933
30
0
0
VERTEX
8
RASTER
10
229.227
20
45.886
30
0
0
VERTEX
8
RASTER
10
229.196
20
45.841
30
0
0
VERTEX
8
RASTER
10
229.163
20
45.799
30
0
0
VERTEX
8
RASTER
10
229.128
20
45.759
30
0
0
VERTEX
8
RASTER
10
229.091
20
45.721
30
0
0
VERTEX
8
RASTER
10
229.052
20
45.685
30
0
0
VERTEX
8
RASTER
10
229.011
20
45.652
30
0
0
VERTEX
8
RASTER
10
228.968
20
45.621
30
0
0
VERTEX
8
RASTER
10
228.924
20
45.592
30
0
0
VERTEX
8
RASTER
10
228.879
20
45.565
30
0
0
VERTEX
8
RASTER
10
228.832
20
45.54
30
0
0
VERTEX
8
RASTER
10
228.784
20
45.517
30
0
0
VERTEX
8
RASTER
10
228.735
20
45.496
30
0
0
VERTEX
8
RASTER
10
228.684
20
45.478
30
0
0
VERTEX
8
RASTER
10
228.633
20
45.462
30
0
0
VERTEX
8
RASTER
10
228.58
20
45.447
30
0
0
VERTEX
8
RASTER
10
228.528
20
45.435
30
0
0
VERTEX
8
RASTER
10
228.475
20
45.424
30
0
0
VERTEX
8
RASTER
10
228.423
20
45.415
30
0
0
VERTEX
8
RASTER
10
228.371
20
45.409
30
0
0
VERTEX
8
RASTER
10
228.319
20
45.404
30
0
0
VERTEX
8
RASTER
10
228.267
20
45.401
30
0
0
VERTEX
8
RASTER
10
228.216
20
45.4
30
0
0
VERTEX
8
RASTER
10
227.463
20
45.4
30
0
0
SEQEND
8
RASTER
0
POLYLINE
8
RASTER
66
1
70
1
0
VERTEX
8
RASTER
10
228.156
20
45.73
30
0
0
VERTEX
8
RASTER
10
228.192
20
45.731
30
0
0
VERTEX
8
RASTER
10
228.229
20
45.732
30
0
0
VERTEX
8
RASTER
10
228.266
20
45.735
30
0
0
VERTEX
8
RASTER
10
228.302
20
45.739
30
0
0
VERTEX
8
RASTER
10
228.339
20
45.743
30
0
0
VERTEX
8
RASTER
10
228.376
20
45.749
30
0
0
VERTEX
8
RASTER
10
228.413
20
45.756
30
0
0
VERTEX
8
RASTER
10
228.45
20
45.765
30
0
0
VERTEX
8
RASTER
10
228.486
20
45.774
30
0
0
VERTEX
8
RASTER
10
228.521
20
45.785
30
0
0
VERTEX
8
RASTER
10
228.556
20
45.797
30
0
0
VERTEX
8
RASTER
10
228.589
20
45.811
30
0
0
VERTEX
8
RASTER
10
228.622
20
45.826
30
0
0
VERTEX
8
RASTER
10
228.654
20
45.843
30
0
0
VERTEX
8
RASTER
10
228.685
20
45.862
30
0
0
VERTEX
8
RASTER
10
228.715
20
45.882
30
0
0
VERTEX
8
RASTER
10
228.744
20
45.903
30
0
0
VERTEX
8
RASTER
10
228.772
20
45.926
30
0
0
VERTEX
8
RASTER
10
228.798
20
45.952
30
0
0
VERTEX
8
RASTER
10
228.823
20
45.979
30
0
0
VERTEX
8
RASTER
10
228.846
20
46.007
30
0
0
VERTEX
8
RASTER
10
228.868
20
46.038
30
0
0
VERTEX
8
RASTER
10
228.889
20
46.071
30
0
0
VERTEX
8
RASTER
10
228.909
20
46.105
30
0
0
VERTEX
8
RASTER
10
228.926
20
46.141
30
0
0
VERTEX
8
RASTER
10
228.941
20
46.18
30
0
0
VERTEX
8
RASTER
10
228.954
20
46.221
30
0
0
VERTEX
8
RASTER
10
228.965
20
46.265
30
0
0
VERTEX
8
RASTER
10
228.973
20
46.311
30
0
0
VERTEX
8
RASTER
10
228.979
20
46.359
30
0
0
VERTEX
8
RASTER
10
228.982
20
46.409
30
0
0
VERTEX
8
RASTER
10
228.984
20
46.462
30
0
0
VERTEX
8
RASTER
10
228.982
20
46.518
30
0
0
VERTEX
8
RASTER
10
228.979
20
46.571
30
0
0
VERTEX
8
RASTER
10
228.973
20
46.621
30
0
0
VERTEX
8
RASTER
10
228.965
20
46.669
30
0
0
VERTEX
8
RASTER
10
228.954
20
46.714
30
0
0
VERTEX
8
RASTER
10
228.941
20
46.757
30
0
0
VERTEX
8
RASTER
10
228.926
20
46.797
30
0
0
VERTEX
8
RASTER
10
228.909
20
46.834
30
0
0
VERTEX
8
RASTER
10
228.889
20
46.869
30
0
0
VERTEX
8
RASTER
10
228.868
20
46.902
30
0
0
VERTEX
8
RASTER
10
228.846
20
46.933
30
0
0
VERTEX
8
RASTER
10
228.823
20
46.962
30
0
0
VERTEX
8
RASTER
10
228.798
20
46.989
30
0
0
VERTEX
8
RASTER
10
228.772
20
47.015
30
0
0
VERTEX
8
RASTER
10
228.744
20
47.038
30
0
0
VERTEX
8
RASTER
10
228.715
20
47.059
30
0
0
VERTEX
8
RASTER
10
228.685
20
47.078
30
0
0
VERTEX
8
RASTER
10
228.654
20
47.096
30
0
0
VERTEX
8
RASTER
10
228.622
20
47.113
30
0
0
VERTEX
8
RASTER
10
228.589
20
47.127
30
0
0
VERTEX
8
RASTER
10
228.556
20
47.14
30
0
0
VERTEX
8
RASTER
10
228.521
20
47.152
30
0
0
VERTEX
8
RASTER
10
228.486
20
47.162
30
0
0
VERTEX
8
RASTER
10
228.45
20
47.17
30
0
0
VERTEX
8
RASTER
10
228.413
20
47.177
30
0
0
VERTEX
8
RASTER
10
228.376
20
47.183
30
0
0
VERTEX
8
RASTER
10
228.339
20
47.188
30
0
0
VERTEX
8
RASTER
10
228.302
20
47.192
30
0
0
VERTEX
8
RASTER
10
228.266
20
47.196
30
0
0
VERTEX
8
RASTER
10
228.229
20
47.198
30
0
0
VERTEX
8
RASTER
10
228.192
20
47.2
30
0
0
VERTEX
8
RASTER
10
228.156
20
47.2
30
0
0
VERTEX
8
RASTER
10
227.841
20
47.2
30
0
0
VERTEX
8
RASTER
10
227.841
20
45.73
30
0
0
SEQEND
8
RASTER
0
POLYLINE
8
RASTER
66
1
70
1
0
VERTEX
8
RASTER
10
230.505
20
47.524
30
0
0
VERTEX
8
RASTER
10
231.005
20
47.524
30
0
0
VERTEX
8
RASTER
10
231.993
20
45.934
30
0
0
VERTEX
8
RASTER
10
231.999
20
45.934
30
0
0
VERTEX
8
RASTER
10
231.999
20
47.524
30
0
0
VERTEX
8
RASTER
10
232.377
20
47.524
30
0
0
VERTEX
8
RASTER
10
232.377
20
45.4
30
0
0
VERTEX
8
RASTER
10
231.897
20
45.4
30
0
0
VERTEX
8
RASTER
10
230.889
20
47.041
30
0
0
VERTEX
8
RASTER
10
230.883
20
47.041
30
0
0
VERTEX
8
RASTER
10
230.883
20
45.4
30
0
0
VERTEX
8
RASTER
10
230.505
20
45.4
30
0
0
SEQEND
8
RASTER
0
POLYLINE
8
RASTER
66
1
70
1
0
VERTEX
8
RASTER
10
232.743
20
46.468
30
0
0
VERTEX
8
RASTER
10
232.744
20
46.531
30
0
0
VERTEX
8
RASTER
10
232.748
20
46.592
30
0
0
VERTEX
8
RASTER
10
232.755
20
46.652
30
0
0
VERTEX
8
RASTER
10
232.764
20
46.711
30
0
0
VERTEX
8
RASTER
10
232.776
20
46.767
30
0
0
VERTEX
8
RASTER
10
232.791
20
46.823
30
0
0
VERTEX
8
RASTER
10
232.808
20
46.876
30
0
0
VERTEX
8
RASTER
10
232.828
20
46.929
30
0
0
VERTEX
8
RASTER
10
232.85
20
46.979
30
0
0
VERTEX
8
RASTER
10
232.875
20
47.027
30
0
0
VERTEX
8
RASTER
10
232.901
20
47.074
30
0
0
VERTEX
8
RASTER
10
232.93
20
47.119
30
0
0
VERTEX
8
RASTER
10
232.961
20
47.161
30
0
0
VERTEX
8
RASTER
10
232.993
20
47.202
30
0
0
VERTEX
8
RASTER
10
233.028
20
47.241
30
0
0
VERTEX
8
RASTER
10
233.065
20
47.278
30
0
0
VERTEX
8
RASTER
10
233.104
20
47.313
30
0
0
VERTEX
8
RASTER
10
233.144
20
47.346
30
0
0
VERTEX
8
RASTER
10
233.187
20
47.377
30
0
0
VERTEX
8
RASTER
10
233.231
20
47.406
30
0
0
VERTEX
8
RASTER
10
233.277
20
47.432
30
0
0
VERTEX
8
RASTER
10
233.324
20
47.457
30
0
0
VERTEX
8
RASTER
10
233.374
20
47.479
30
0
0
VERTEX
8
RASTER
10
233.425
20
47.5
30
0
0
VERTEX
8
RASTER
10
233.478
20
47.518
30
0
0
VERTEX
8
RASTER
10
233.532
20
47.534
30
0
0
VERTEX
8
RASTER
10
233.587
20
47.548
30
0
0
VERTEX
8
RASTER
10
233.643
20
47.559
30
0
0
VERTEX
8
RASTER
10
233.7
20
47.567
30
0
0
VERTEX
8
RASTER
10
233.759
20
47.573
30
0
0
VERTEX
8
RASTER
10
233.819
20
47.577
30
0
0
VERTEX
8
RASTER
10
233.88
20
47.578
30
0
0
VERTEX
8
RASTER
10
233.941
20
47.577
30
0
0
VERTEX
8
RASTER
10
234.002
20
47.573
30
0
0
VERTEX
8
RASTER
10
234.061
20
47.567
30
0
0
VERTEX
8
RASTER
10
234.119
20
47.559
30
0
0
VERTEX
8
RASTER
10
234.176
20
47.548
30
0
0
VERTEX
8
RASTER
10
234.231
20
47.534
30
0
0
VERTEX
8
RASTER
10
234.285
20
47.518
30
0
0
VERTEX
8
RASTER
10
234.338
20
47.5
30
0
0
VERTEX
8
RASTER
10
234.39
20
47.479
30
0
0
VERTEX
8
RASTER
10
234.44
20
47.457
30
0
0
VERTEX
8
RASTER
10
234.488
20
47.432
30
0
0
VERTEX
8
RASTER
10
234.534
20
47.406
30
0
0
VERTEX
8
RASTER
10
234.579
20
47.377
30
0
0
VERTEX
8
RASTER
10
234.621
20
47.346
30
0
0
VERTEX
8
RASTER
10
234.662
20
47.313
30
0
0
VERTEX
8
RASTER
10
234.701
20
47.278
30
0
0
VERTEX
8
RASTER
10
234.739
20
47.241
30
0
0
VERTEX
8
RASTER
10
234.774
20
47.202
30
0
0
VERTEX
8
RASTER
10
234.807
20
47.161
30
0
0
VERTEX
8
RASTER
10
234.838
20
47.119
30
0
0
VERTEX
8
RASTER
10
234.866
20
47.074
30
0
0
VERTEX
8
RASTER
10
234.893
20
47.027
30
0
0
VERTEX
8
RASTER
10
234.918
20
46.979
30
0
0
VERTEX
8
RASTER
10
234.94
20
46.929
30
0
0
VERTEX
8
RASTER
10
234.96
20
46.876
30
0
0
VERTEX
8
RASTER
10
234.977
20
46.823
30
0
0
VERTEX
8
RASTER
10
234.992
20
46.767
30
0
0
VERTEX
8
RASTER
10
235.004
20
46.711
30
0
0
VERTEX
8
RASTER
10
235.013
20
46.652
30
0
0
VERTEX
8
RASTER
10
235.02
20
46.592
30
0
0
VERTEX
8
RASTER
10
235.024
20
46.531
30
0
0
VERTEX
8
RASTER
10
235.026
20
46.468
30
0
0
VERTEX
8
RASTER
10
235.024
20
46.406
30
0
0
VERTEX
8
RASTER
10
235.02
20
46.346
30
0
0
VERTEX
8
RASTER
10
235.013
20
46.287
30
0
0
VERTEX
8
RASTER
10
235.004
20
46.23
30
0
0
VERTEX
8
RASTER
10
234.992
20
46.174
30
0
0
VERTEX
8
RASTER
10
234.977
20
46.119
30
0
0
VERTEX
8
RASTER
10
234.96
20
46.066
30
0
0
VERTEX
8
RASTER
10
234.94
20
46.014
30
0
0
VERTEX
8
RASTER
10
234.918
20
45.963
30
0
0
VERTEX
8
RASTER
10
234.893
20
45.914
30
0
0
VERTEX
8
RASTER
10
234.866
20
45.867
30
0
0
VERTEX
8
RASTER
10
234.838
20
45.822
30
0
0
VERTEX
8
RASTER
10
234.807
20
45.779
30
0
0
VERTEX
8
RASTER
10
234.774
20
45.737
30
0
0
VERTEX
8
RASTER
10
234.739
20
45.698
30
0
0
VERTEX
8
RASTER
10
234.701
20
45.66
30
0
0
VERTEX
8
RASTER
10
234.662
20
45.623
30
0
0
VERTEX
8
RASTER
10
234.621
20
45.589
30
0
0
VERTEX
8
RASTER
10
234.579
20
45.557
30
0
0
VERTEX
8
RASTER
10
234.534
20
45.528
30
0
0
VERTEX
8
RASTER
10
234.488
20
45.5
30
0
0
VERTEX
8
RASTER
10
234.44
20
45.474
30
0
0
VERTEX
8
RASTER
10
234.39
20
45.45
30
0
0
VERTEX
8
RASTER
10
234.338
20
45.429
30
0
0
VERTEX
8
RASTER
10
234.285
20
45.409
30
0
0
VERTEX
8
RASTER
10
234.231
20
45.392
30
0
0
VERTEX
8
RASTER
10
234.176
20
45.378
30
0
0
VERTEX
8
RASTER
10
234.119
20
45.367
30
0
0
VERTEX
8
RASTER
10
234.061
20
45.358
30
0
0
VERTEX
8
RASTER
10
234.002
20
45.351
30
0
0
VERTEX
8
RASTER
10
233.941
20
45.347
30
0
0
VERTEX
8
RASTER
10
233.88
20
45.346
30
0
0
VERTEX
8
RASTER
10
233.819
20
45.347
30
0
0
VERTEX
8
RASTER
10
233.759
20
45.351
30
0
0
VERTEX
8
RASTER
10
233.7
20
45.358
30
0
0
VERTEX
8
RASTER
10
233.643
20
45.367
30
0
0
VERTEX
8
RASTER
10
233.587
20
45.378
30
0
0
VERTEX
8
RASTER
10
233.532
20
45.392
30
0
0
VERTEX
8
RASTER
10
233.478
20
45.409
30
0
0
VERTEX
8
RASTER
10
233.425
20
45.429
30
0
0
VERTEX
8
RASTER
10
233.374
20
45.45
30
0
0
VERTEX
8
RASTER
10
233.324
20
45.474
30
0
0
VERTEX
8
RASTER
10
233.277
20
45.5
30
0
0
VERTEX
8
RASTER
10
233.231
20
45.528
30
0
0
VERTEX
8
RASTER
10
233.187
20
45.557
30
0
0
VERTEX
8
RASTER
10
233.144
20
45.589
30
0
0
VERTEX
8
RASTER
10
233.104
20
45.623
30
0
0
VERTEX
8
RASTER
10
233.065
20
45.66
30
0
0
VERTEX
8
RASTER
10
233.028
20
45.698
30
0
0
VERTEX
8
RASTER
10
232.993
20
45.737
30
0
0
VERTEX
8
RASTER
10
232.961
20
45.779
30
0
0
VERTEX
8
RASTER
10
232.93
20
45.822
30
0
0
VERTEX
8
RASTER
10
232.901
20
45.867
30
0
0
VERTEX
8
RASTER
10
232.875
20
45.914
30
0
0
VERTEX
8
RASTER
10
232.85
20
45.963
30
0
0
VERTEX
8
RASTER
10
232.828
20
46.014
30
0
0
VERTEX
8
RASTER
10
232.808
20
46.066
30
0
0
VERTEX
8
RASTER
10
232.791
20
46.119
30
0
0
VERTEX
8
RASTER
10
232.776
20
46.174
30
0
0
VERTEX
8
RASTER
10
232.764
20
46.23
30
0
0
VERTEX
8
RASTER
10
232.755
20
46.287
30
0
0
VERTEX
8
RASTER
10
232.748
20
46.346
30
0
0
VERTEX
8
RASTER
10
232.744
20
46.406
30
0
0
VERTEX
8
RASTER
10
232.743
20
46.468
30
0
0
SEQEND
8
RASTER
0
POLYLINE
8
RASTER
66
1
70
1
0
VERTEX
8
RASTER
10
233.154
20
46.468
30
0
0
VERTEX
8
RASTER
10
233.154
20
46.426
30
0
0
VERTEX
8
RASTER
10
233.157
20
46.384
30
0
0
VERTEX
8
RASTER
10
233.161
20
46.344
30
0
0
VERTEX
8
RASTER
10
233.167
20
46.304
30
0
0
VERTEX
8
RASTER
10
233.174
20
46.265
30
0
0
VERTEX
8
RASTER
10
233.183
20
46.228
30
0
0
VERTEX
8
RASTER
10
233.194
20
46.191
30
0
0
VERTEX
8
RASTER
10
233.206
20
46.155
30
0
0
VERTEX
8
RASTER
10
233.22
20
46.119
30
0
0
VERTEX
8
RASTER
10
233.235
20
46.086
30
0
0
VERTEX
8
RASTER
10
233.252
20
46.053
30
0
0
VERTEX
8
RASTER
10
233.27
20
46.021
30
0
0
VERTEX
8
RASTER
10
233.289
20
45.991
30
0
0
VERTEX
8
RASTER
10
233.31
20
45.962
30
0
0
VERTEX
8
RASTER
10
233.332
20
45.934
30
0
0
VERTEX
8
RASTER
10
233.356
20
45.907
30
0
0
VERTEX
8
RASTER
10
233.381
20
45.881
30
0
0
VERTEX
8
RASTER
10
233.407
20
45.857
30
0
0
VERTEX
8
RASTER
10
233.434
20
45.835
30
0
0
VERTEX
8
RASTER
10
233.462
20
45.814
30
0
0
VERTEX
8
RASTER
10
233.492
20
45.794
30
0
0
VERTEX
8
RASTER
10
233.523
20
45.776
30
0
0
VERTEX
8
RASTER
10
233.554
20
45.759
30
0
0
VERTEX
8
RASTER
10
233.587
20
45.744
30
0
0
VERTEX
8
RASTER
10
233.621
20
45.73
30
0
0
VERTEX
8
RASTER
10
233.656
20
45.718
30
0
0
VERTEX
8
RASTER
10
233.691
20
45.708
30
0
0
VERTEX
8
RASTER
10
233.728
20
45.7
30
0
0
VERTEX
8
RASTER
10
233.765
20
45.693
30
0
0
VERTEX
8
RASTER
10
233.803
20
45.689
30
0
0
VERTEX
8
RASTER
10
233.842
20
45.686
30
0
0
VERTEX
8
RASTER
10
233.883
20
45.685
30
0
0
VERTEX
8
RASTER
10
233.923
20
45.686
30
0
0
VERTEX
8
RASTER
10
233.962
20
45.689
30
0
0
VERTEX
8
RASTER
10
234
20
45.693
30
0
0
VERTEX
8
RASTER
10
234.038
20
45.7
30
0
0
VERTEX
8
RASTER
10
234.074
20
45.708
30
0
0
VERTEX
8
RASTER
10
234.11
20
45.718
30
0
0
VERTEX
8
RASTER
10
234.145
20
45.73
30
0
0
VERTEX
8
RASTER
10
234.18
20
45.744
30
0
0
VERTEX
8
RASTER
10
234.213
20
45.759
30
0
0
VERTEX
8
RASTER
10
234.245
20
45.776
30
0
0
VERTEX
8
RASTER
10
234.275
20
45.794
30
0
0
VERTEX
8
RASTER
10
234.305
20
45.814
30
0
0
VERTEX
8
RASTER
10
234.334
20
45.835
30
0
0
VERTEX
8
RASTER
10
234.361
20
45.857
30
0
0
VERTEX
8
RASTER
10
234.387
20
45.881
30
0
0
VERTEX
8
RASTER
10
234.412
20
45.907
30
0
0
VERTEX
8
RASTER
10
234.436
20
45.934
30
0
0
VERTEX
8
RASTER
10
234.458
20
45.962
30
0
0
VERTEX
8
RASTER
10
234.479
20
45.991
30
0
0
VERTEX
8
RASTER
10
234.498
20
46.021
30
0
0
VERTEX
8
RASTER
10
234.516
20
46.053
30
0
0
VERTEX
8
RASTER
10
234.533
20
46.086
30
0
0
VERTEX
8
RASTER
10
234.548
20
46.119
30
0
0
VERTEX
8
RASTER
10
234.562
20
46.155
30
0
0
VERTEX
8
RASTER
10
234.574
20
46.191
30
0
0
VERTEX
8
RASTER
10
234.585
20
46.228
30
0
0
VERTEX
8
RASTER
10
234.594
20
46.265
30
0
0
VERTEX
8
RASTER
10
234.601
20
46.304
30
0
0
VERTEX
8
RASTER
10
234.607
20
46.344
30
0
0
VERTEX
8
RASTER
10
234.611
20
46.384
30
0
0
VERTEX
8
RASTER
10
234.614
20
46.426
30
0
0
VERTEX
8
RASTER
10
234.615
20
46.468
30
0
0
VERTEX
8
RASTER
10
234.614
20
46.509
30
0
0
VERTEX
8
RASTER
10
234.611
20
46.549
30
0
0
VERTEX
8
RASTER
10
234.607
20
46.588
30
0
0
VERTEX
8
RASTER
10
234.601
20
46.627
30
0
0
VERTEX
8
RASTER
10
234.594
20
46.665
30
0
0
VERTEX
8
RASTER
10
234.585
20
46.702
30
0
0
VERTEX
8
RASTER
10
234.574
20
46.738
30
0
0
VERTEX
8
RASTER
10
234.562
20
46.774
30
0
0
VERTEX
8
RASTER
10
234.548
20
46.809
30
0
0
VERTEX
8
RASTER
10
234.533
20
46.842
30
0
0
VERTEX
8
RASTER
10
234.517
20
46.875
30
0
0
VERTEX
8
RASTER
10
234.499
20
46.906
30
0
0
VERTEX
8
RASTER
10
234.479
20
46.936
30
0
0
VERTEX
8
RASTER
10
234.459
20
46.965
30
0
0
VERTEX
8
RASTER
10
234.437
20
46.993
30
0
0
VERTEX
8
RASTER
10
234.414
20
47.02
30
0
0
VERTEX
8
RASTER
10
234.389
20
47.046
30
0
0
VERTEX
8
RASTER
10
234.363
20
47.07
30
0
0
VERTEX
8
RASTER
10
234.336
20
47.092
30
0
0
VERTEX
8
RASTER
10
234.308
20
47.114
30
0
0
VERTEX
8
RASTER
10
234.278
20
47.134
30
0
0
VERTEX
8
RASTER
10
234.248
20
47.152
30
0
0
VERTEX
8
RASTER
10
234.216
20
47.169
30
0
0
VERTEX
8
RASTER
10
234.183
20
47.185
30
0
0
VERTEX
8
RASTER
10
234.148
20
47.199
30
0
0
VERTEX
8
RASTER
10
234.113
20
47.211
30
0
0
VERTEX
8
RASTER
10
234.077
20
47.222
30
0
0
VERTEX
8
RASTER
10
234.04
20
47.23
30
0
0
VERTEX
8
RASTER
10
234.002
20
47.237
30
0
0
VERTEX
8
RASTER
10
233.963
20
47.241
30
0
0
VERTEX
8
RASTER
10
233.923
20
47.244
30
0
0
VERTEX
8
RASTER
10
233.883
20
47.245
30
0
0
VERTEX
8
RASTER
10
233.842
20
47.244
30
0
0
VERTEX
8
RASTER
10
233.802
20
47.241
30
0
0
VERTEX
8
RASTER
10
233.763
20
47.237
30
0
0
VERTEX
8
RASTER
10
233.725
20
47.23
30
0
0
VERTEX
8
RASTER
10
233.689
20
47.222
30
0
0
VERTEX
8
RASTER
10
233.653
20
47.211
30
0
0
VERTEX
8
RASTER
10
233.618
20
47.199
30
0
0
VERTEX
8
RASTER
10
233.584
20
47.185
30
0
0
VERTEX
8
RASTER
10
233.551
20
47.169
30
0
0
VERTEX
8
RASTER
10
233.52
20
47.152
30
0
0
VERTEX
8
RASTER
10
233.489
20
47.134
30
0
0
VERTEX
8
RASTER
10
233.46
20
47.114
30
0
0
VERTEX
8
RASTER
10
233.432
20
47.092
30
0
0
VERTEX
8
RASTER
10
233.405
20
47.07
30
0
0
VERTEX
8
RASTER
10
233.379
20
47.046
30
0
0
VERTEX
8
RASTER
10
233.355
20
47.02
30
0
0
VERTEX
8
RASTER
10
233.331
20
46.993
30
0
0
VERTEX
8
RASTER
10
233.309
20
46.965
30
0
0
VERTEX
8
RASTER
10
233.289
20
46.936
30
0
0
VERTEX
8
RASTER
10
233.269
20
46.906
30
0
0
VERTEX
8
RASTER
10
233.251
20
46.875
30
0
0
VERTEX
8
RASTER
10
233.235
20
46.842
30
0
0
VERTEX
8
RASTER
10
233.22
20
46.809
30
0
0
VERTEX
8
RASTER
10
233.206
20
46.774
30
0
0
VERTEX
8
RASTER
10
233.194
20
46.738
30
0
0
VERTEX
8
RASTER
10
233.183
20
46.702
30
0
0
VERTEX
8
RASTER
10
233.174
20
46.665
30
0
0
VERTEX
8
RASTER
10
233.167
20
46.627
30
0
0
VERTEX
8
RASTER
10
233.161
20
46.588
30
0
0
VERTEX
8
RASTER
10
233.157
20
46.549
30
0
0
VERTEX
8
RASTER
10
233.154
20
46.509
30
0
0
VERTEX
8
RASTER
10
233.154
20
46.468
30
0
0
SEQEND
8
RASTER
0
POLYLINE
8
RASTER
66
1
70
1
0
VERTEX
8
RASTER
10
235.176
20
47.524
30
0
0
VERTEX
8
RASTER
10
235.59
20
47.524
30
0
0
VERTEX
8
RASTER
10
236.001
20
45.964
30
0
0
VERTEX
8
RASTER
10
236.007
20
45.964
30
0
0
VERTEX
8
RASTER
10
236.475
20
47.524
30
0
0
VERTEX
8
RASTER
10
236.865
20
47.524
30
0
0
VERTEX
8
RASTER
10
237.324
20
45.964
30
0
0
VERTEX
8
RASTER
10
237.33
20
45.964
30
0
0
VERTEX
8
RASTER
10
237.749
20
47.524
30
0
0
VERTEX
8
RASTER
10
238.152
20
47.524
30
0
0
VERTEX
8
RASTER
10
237.531
20
45.4
30
0
0
VERTEX
8
RASTER
10
237.165
20
45.4
30
0
0
VERTEX
8
RASTER
10
236.666
20
46.993
30
0
0
VERTEX
8
RASTER
10
236.66
20
46.993
30
0
0
VERTEX
8
RASTER
10
236.163
20
45.4
30
0
0
VERTEX
8
RASTER
10
235.797
20
45.4
30
0
0
SEQEND
8
RASTER
0
POLYLINE
8
RASTER
66
1
70
1
0
VERTEX
8
RASTER
10
272.4
20
88.65
30
0
0
VERTEX
8
RASTER
10
274.8
20
88.65
30
0
0
VERTEX
8
RASTER
10
274.8
20
88.15
30
0
0
VERTEX
8
RASTER
10
272.4
20
88.15
30
0
0
SEQEND
8
RASTER
0
POLYLINE
8
RASTER
66
1
70
1
0
VERTEX
8
RASTER
10
271.006
20
77.564
30
0
0
VERTEX
8
RASTER
10
273.325
20
76.943
30
0
0
VERTEX
8
RASTER
10
273.195
20
76.46
30
0
0
VERTEX
8
RASTER
10
270.877
20
77.081
30
0
0
SEQEND
8
RASTER
0
POLYLINE
8
RASTER
66
1
70
1
0
VERTEX
8
RASTER
10
266.791
20
67.217
30
0
0
VERTEX
8
RASTER
10
268.869
20
66.017
30
0
0
VERTEX
8
RASTER
10
268.619
20
65.583
30
0
0
VERTEX
8
RASTER
10
266.541
20
66.783
30
0
0
SEQEND
8
RASTER
0
POLYLINE
8
RASTER
66
1
70
1
0
VERTEX
8
RASTER
10
260.041
20
58.313
30
0
0
VERTEX
8
RASTER
10
261.738
20
56.616
30
0
0
VERTEX
8
RASTER
10
261.384
20
56.262
30
0
0
VERTEX
8
RASTER
10
259.687
20
57.959
30
0
0
SEQEND
8
RASTER
0
POLYLINE
8
RASTER
66
1
70
1
0
VERTEX
8
RASTER
10
199.513
20
57.959
30
0
0
VERTEX
8
RASTER
10
197.816
20
56.262
30
0
0
VERTEX
8
RASTER
10
197.462
20
56.616
30
0
0
VERTEX
8
RASTER
10
199.159
20
58.313
30
0
0
SEQEND
8
RASTER
0
POLYLINE
8
RASTER
66
1
70
1
0
VERTEX
8
RASTER
10
192.659
20
66.783
30
0
0
VERTEX
8
RASTER
10
190.581
20
65.583
30
0
0
VERTEX
8
RASTER
10
190.331
20
66.017
30
0
0
VERTEX
8
RASTER
10
192.409
20
67.217
30
0
0
SEQEND
8
RASTER
0
POLYLINE
8
RASTER
66
1
70
1
0
VERTEX
8
RASTER
10
188.323
20
77.081
30
0
0
VERTEX
8
RASTER
10
186.005
20
76.46
30
0
0
VERTEX
8
RASTER
10
185.875
20
76.943
30
0
0
VERTEX
8
RASTER
10
188.194
20
77.564
30
0
0
SEQEND
8
RASTER
0
POLYLINE
8
RASTER
66
1
70
1
0
VERTEX
8
RASTER
10
186.8
20
88.15
30
0
0
VERTEX
8
RASTER
10
184.4
20
88.15
30
0
0
VERTEX
8
RASTER
10
184.4
20
88.65
30
0
0
VERTEX
8
RASTER
10
186.8
20
88.65
30
0
0
SEQEND
8
RASTER
0
POLYLINE
8
RASTER
66
1
70
1
0
VERTEX
8
RASTER
10
188.194
20
99.236
30
0
0
VERTEX
8
RASTER
10
185.875
20
99.857
30
0
0
VERTEX
8
RASTER
10
186.005
20
100.34
30
0
0
VERTEX
8
RASTER
10
188.323
20
99.719
30
0
0
SEQEND
8
RASTER
0
POLYLINE
8
RASTER
66
1
70
1
0
VERTEX
8
RASTER
10
192.409
20
109.583
30
0
0
VERTEX
8
RASTER
10
190.331
20
110.783
30
0
0
VERTEX
8
RASTER
10
190.581
20
111.217
30
0
0
VERTEX
8
RASTER
10
192.659
20
110.017
30
0
0
SEQEND
8
RASTER
0
POLYLINE
8
RASTER
66
1
70
1
0
VERTEX
8
RASTER
10
199.159
20
118.487
30
0
0
VERTEX
8
RASTER
10
197.462
20
120.184
30
0
0
VERTEX
8
RASTER
10
197.816
20
120.538
30
0
0
VERTEX
8
RASTER
10
199.513
20
118.841
30
0
0
SEQEND
8
RASTER
0
POLYLINE
8
RASTER
66
1
70
1
0
VERTEX
8
RASTER
10
207.983
20
125.341
30
0
0
VERTEX
8
RASTER
10
206.783
20
127.419
30
0
0
VERTEX
8
RASTER
10
207.217
20
127.669
30
0
0
VERTEX
8
RASTER
10
208.417
20
125.591
30
0
0
SEQEND
8
RASTER
0
POLYLINE
8
RASTER
66
1
70
1
0
VERTEX
8
RASTER
10
218.281
20
129.677
30
0
0
VERTEX
8
RASTER
10
217.66
20
131.995
30
0
0
VERTEX
8
RASTER
10
218.143
20
132.125
30
0
0
VERTEX
8
RASTER
10
218.764
20
129.806
30
0
0
SEQEND
8
RASTER
0
POLYLINE
8
RASTER
66
1
70
1
0
VERTEX
8
RASTER
10
229.35
20
131.2
30
0
0
VERTEX
8
RASTER
10
229.35
20
133.6
30
0
0
VERTEX
8
RASTER
10
229.85
20
133.6
30
0
0
VERTEX
8
RASTER
10
229.85
20
131.2
30
0
0
SEQEND
8
RASTER
0
POLYLINE
8
RASTER
66
1
70
1
0
VERTEX
8
RASTER
10
240.436
20
129.806
30
0
0
VERTEX
8
RASTER
10
241.057
20
132.125
30
0
0
VERTEX
8
RASTER
10
241.54
20
131.995
30
0
0
VERTEX
8
RASTER
10
240.919
20
129.677
30
0
0
SEQEND
8
RASTER
0
POLYLINE
8
RASTER
66
1
70
1
0
VERTEX
8
RASTER
10
250.783
20
125.591
30
0
0
VERTEX
8
RASTER
10
251.983
20
127.669
30
0
0
VERTEX
8
RASTER
10
252.417
20
127.419
30
0
0
VERTEX
8
RASTER
10
251.217
20
125.341
30
0
0
SEQEND
8
RASTER
0
POLYLINE
8
RASTER
66
1
70
1
0
VERTEX
8
RASTER
10
259.687
20
118.841
30
0
0
VERTEX
8
RASTER
10
261.384
20
120.538
30
0
0
VERTEX
8
RASTER
10
261.738
20
120.184
30
0
0
VERTEX
8
RASTER
10
260.041
20
118.487
30
0
0
SEQEND
8
RASTER
0
POLYLINE
8
RASTER
66
1
70
1
0
VERTEX
8
RASTER
10
266.541
20
110.017
30
0
0
VERTEX
8
RASTER
10
268.619
20
111.217
30
0
0
VERTEX
8
RASTER
10
268.869
20
110.783
30
0
0
VERTEX
8
RASTER
10
266.791
20
109.583
30
0
0
SEQEND
8
RASTER
0
POLYLINE
8
RASTER
66
1
70
1
0
VERTEX
8
RASTER
10
270.877
20
99.719
30
0
0
VERTEX
8
RASTER
10
273.195
20
100.34
30
0
0
VERTEX
8
RASTER
10
273.325
20
99.857
30
0
0
VERTEX
8
RASTER
10
271.006
20
99.236
30
0
0
SEQEND
8
RASTER
0
POLYLINE
8
CUT
66
1
70
1
0
VERTEX
8
CUT
10
9
20
32.5
30
0
0
VERTEX
8
CUT
10
32
20
32.5
30
0
0
VERTEX
8
CUT
10
32
20
34.1
30
0
0
VERTEX
8
CUT
10
34
20
34.1
30
0
0
VERTEX
8
CUT
10
38
20
36.4
30
0
0
VERTEX
8
CUT
10
40.5
20
34.1
30
0
0
VERTEX
8
CUT
10
38
20
32.3
30
0
0
VERTEX
8
CUT
10
44.5
20
30.9
30
0
0
VERTEX
8
CUT
10
38
20
29.5
30
0
0
VERTEX
8
CUT
10
40.5
20
27.7
30
0
0
VERTEX
8
CUT
10
38
20
25.4
30
0
0
VERTEX
8
CUT
10
34
20
27.7
30
0
0
VERTEX
8
CUT
10
32
20
27.7
30
0
0
VERTEX
8
CUT
10
32
20
29.3
30
0
0
VERTEX
8
CUT
10
9
20
29.3
30
0
0
VERTEX
8
CUT
10
6
20
26.7
30
0
0
VERTEX
8
CUT
10
4
20
26.7
30
0
0
VERTEX
8
CUT
10
7
20
30.9
30
0
0
VERTEX
8
CUT
10
4
20
35.1
30
0
0
VERTEX
8
CUT
10
6
20
35.1
30
0
0
SEQEND
8
CUT
0
CIRCLE
8
CUT
10
18
20
30.9
30
0
40
1.65
0
CIRCLE
8
CUT
10
52.5
20
32.4
30
0
40
4
0
CIRCLE
8
CUT
10
52.5
20
32.4
30
0
40
1.65
0
POLYLINE
8
CUT
66
1
70
1
0
VERTEX
8
CUT
10
90.5
20
36.4
30
0
0
VERTEX
8
CUT
10
93.1
20
36.4
30
0
0
VERTEX
8
CUT
10
93.1
20
7
30
0
0
VERTEX
8
CUT
10
95.1
20
7
30
0
0
VERTEX
8
CUT
10
95.1
20
4
30
0
0
VERTEX
8
CUT
10
88.5
20
4
30
0
0
VERTEX
8
CUT
10
88.5
20
7
30
0
0
VERTEX
8
CUT
10
90.5
20
7
30
0
0
VERTEX
8
CUT
10
90.5
20
26.4
30
0
0
VERTEX
8
CUT
10
60.5
20
26.4
30
0
0
VERTEX
8
CUT
10
65.5
20
31.4
30
0
0
VERTEX
8
CUT
10
60.5
20
36.4
30
0
0
SEQEND
8
CUT
0
POLYLINE
8
RASTER
66
1
70
1
0
VERTEX
8
RASTER
10
91.4
20
24.6
30
0
0
VERTEX
8
RASTER
10
92.2
20
24.6
30
0
0
VERTEX
8
RASTER
10
92.2
20
8.2
30
0
0
VERTEX
8
RASTER
10
91.4
20
8.2
30
0
0
SEQEND
8
RASTER
0
POLYLINE
8
RASTER
66
1
70
1
0
VERTEX
8
RASTER
10
69.019
20
32.382
30
0
0
VERTEX
8
RASTER
10
69.405
20
32.382
30
0
0
VERTEX
8
RASTER
10
69.789
20
30.926
30
0
0
VERTEX
8
RASTER
10
69.794
20
30.926
30
0
0
VERTEX
8
RASTER
10
70.231
20
32.382
30
0
0
VERTEX
8
RASTER
10
70.595
20
32.382
30
0
0
VERTEX
8
RASTER
10
71.023
20
30.926
30
0
0
VERTEX
8
RASTER
10
71.029
20
30.926
30
0
0
VERTEX
8
RASTER
10
71.421
20
32.382
30
0
0
VERTEX
8
RASTER
10
71.796
20
32.382
30
0
0
VERTEX
8
RASTER
10
71.217
20
30.4
30
0
0
VERTEX
8
RASTER
10
70.875
20
30.4
30
0
0
VERTEX
8
RASTER
10
70.41
20
31.887
30
0
0
VERTEX
8
RASTER
10
70.405
20
31.887
30
0
0
VERTEX
8
RASTER
10
69.94
20
30.4
30
0
0
VERTEX
8
RASTER
10
69.598
20
30.4
30
0
0
SEQEND
8
RASTER
0
POLYLINE
8
RASTER
66
1
70
1
0
VERTEX
8
RASTER
10
72.031
20
32.382
30
0
0
VERTEX
8
RASTER
10
72.384
20
32.382
30
0
0
VERTEX
8
RASTER
10
72.384
20
30.4
30
0
0
VERTEX
8
RASTER
10
72.031
20
30.4
30
0
0
SEQEND
8
RASTER
0
POLYLINE
8
RASTER
66
1
70
1
0
VERTEX
8
RASTER
10
72.821
20
32.382
30
0
0
VERTEX
8
RASTER
10
73.289
20
32.382
30
0
0
VERTEX
8
RASTER
10
74.21
20
30.898
30
0
0
VERTEX
8
RASTER
10
74.215
20
30.898
30
0
0
VERTEX
8
RASTER
10
74.215
20
32.382
30
0
0
VERTEX
8
RASTER
10
74.568
20
32.382
30
0
0
VERTEX
8
RASTER
10
74.568
20
30.4
30
0
0
VERTEX
8
RASTER
10
74.12
20
30.4
30
0
0
VERTEX
8
RASTER
10
73.179
20
31.932
30
0
0
VERTEX
8
RASTER
10
73.174
20
31.932
30
0
0
VERTEX
8
RASTER
10
73.174
20
30.4
30
0
0
VERTEX
8
RASTER
10
72.821
20
30.4
30
0
0
SEQEND
8
RASTER
0
POLYLINE
8
RASTER
66
1
70
1
0
VERTEX
8
RASTER
10
75.005
20
32.382
30
0
0
VERTEX
8
RASTER
10
75.708
20
32.382
30
0
0
VERTEX
8
RASTER
10
75.756
20
32.382
30
0
0
VERTEX
8
RASTER
10
75.805
20
32.379
30
0
0
VERTEX
8
RASTER
10
75.853
20
32.375
30
0
0
VERTEX
8
RASTER
10
75.902
20
32.37
30
0
0
VERTEX
8
RASTER
10
75.95
20
32.363
30
0
0
VERTEX
8
RASTER
10
75.999
20
32.354
30
0
0
VERTEX
8
RASTER
10
76.048
20
32.344
30
0
0
VERTEX
8
RASTER
10
76.097
20
32.332
30
0
0
VERTEX
8
RASTER
10
76.145
20
32.318
30
0
0
VERTEX
8
RASTER
10
76.193
20
32.303
30
0
0
VERTEX
8
RASTER
10
76.238
20
32.285
30
0
0
VERTEX
8
RASTER
10
76.283
20
32.265
30
0
0
VERTEX
8
RASTER
10
76.327
20
32.243
30
0
0
VERTEX
8
RASTER
10
76.369
20
32.219
30
0
0
VERTEX
8
RASTER
10
76.41
20
32.193
30
0
0
VERTEX
8
RASTER
10
76.45
20
32.165
30
0
0
VERTEX
8
RASTER
10
76.488
20
32.135
30
0
0
VERTEX
8
RASTER
10
76.525
20
32.103
30
0
0
VERTEX
8
RASTER
10
76.559
20
32.068
30
0
0
VERTEX
8
RASTER
10
76.592
20
32.031
30
0
0
VERTEX
8
RASTER
10
76.623
20
31.992
30
0
0
VERTEX
8
RASTER
10
76.652
20
31.95
30
0
0
VERTEX
8
RASTER
10
76.679
20
31.906
30
0
0
VERTEX
8
RASTER
10
76.705
20
31.86
30
0
0
VERTEX
8
RASTER
10
76.728
20
31.812
30
0
0
VERTEX
8
RASTER
10
76.747
20
31.76
30
0
0
VERTEX
8
RASTER
10
76.764
20
31.706
30
0
0
VERTEX
8
RASTER
10
76.778
20
31.648
30
0
0
VERTEX
8
RASTER
10
76.789
20
31.588
30
0
0
VERTEX
8
RASTER
10
76.796
20
31.526
30
0
0
VERTEX
8
RASTER
10
76.801
20
31.46
30
0
0
VERTEX
8
RASTER
10
76.803
20
31.391
30
0
0
VERTEX
8
RASTER
10
76.801
20
31.327
30
0
0
VERTEX
8
RASTER
10
76.796
20
31.266
30
0
0
VERTEX
8
RASTER
10
76.789
20
31.206
30
0
0
VERTEX
8
RASTER
10
76.778
20
31.149
30
0
0
VERTEX
8
RASTER
10
76.764
20
31.094
30
0
0
VERTEX
8
RASTER
10
76.747
20
31.042
30
0
0
VERTEX
8
RASTER
10
76.728
20
30.991
30
0
0
VERTEX
8
RASTER
10
76.705
20
30.943
30
0
0
VERTEX
8
RASTER
10
76.679
20
30.897
30
0
0
VERTEX
8
RASTER
10
76.652
20
30.854
30
0
0
VERTEX
8
RASTER
10
76.623
20
30.812
30
0
0
VERTEX
8
RASTER
10
76.592
20
30.772
30
0
0
VERTEX
8
RASTER
10
76.559
20
30.735
30
0
0
VERTEX
8
RASTER
10
76.525
20
30.7
30
0
0
VERTEX
8
RASTER
10
76.488
20
30.666
30
0
0
VERTEX
8
RASTER
10
76.45
20
30.635
30
0
0
VERTEX
8
RASTER
10
76.41
20
30.606
30
0
0
VERTEX
8
RASTER
10
76.369
20
30.579
30
0
0
VERTEX
8
RASTER
10
76.327
20
30.554
30
0
0
VERTEX
8
RASTER
10
76.283
20
30.531
30
0
0
VERTEX
8
RASTER
10
76.238
20
30.509
30
0
0
VERTEX
8
RASTER
10
76.193
20
30.49
30
0
0
VERTEX
8
RASTER
10
76.145
20
30.473
30
0
0
VERTEX
8
RASTER
10
76.097
20
30.457
30
0
0
VERTEX
8
RASTER
10
76.048
20
30.444
30
0
0
VERTEX
8
RASTER
10
75.999
20
30.432
30
0
0
VERTEX
8
RASTER
10
75.95
20
30.422
30
0
0
VERTEX
8
RASTER
10
75.902
20
30.414
30
0
0
VERTEX
8
RASTER
10
75.853
20
30.408
30
0
0
VERTEX
8
RASTER
10
75.805
20
30.404
30
0
0
VERTEX
8
RASTER
10
75.756
20
30.401
30
0
0
VERTEX
8
RASTER
10
75.708
20
30.4
30
0
0
VERTEX
8
RASTER
10
75.005
20
30.4
30
0
0
SEQEND
8
RASTER
0
POLYLINE
8
RASTER
66
1
70
1
0
VERTEX
8
RASTER
10
75.652
20
30.708
30
0
0
VERTEX
8
RASTER
10
75.686
20
30.709
30
0
0
VERTEX
8
RASTER
10
75.72
20
30.71
30
0
0
VERTEX
8
RASTER
10
75.755
20
30.713
30
0
0
VERTEX
8
RASTER
10
75.789
20
30.716
30
0
0
VERTEX
8
RASTER
10
75.823
20
30.721
30
0
0
VERTEX
8
RASTER
10
75.858
20
30.726
30
0
0
VERTEX
8
RASTER
10
75.892
20
30.733
30
0
0
VERTEX
8
RASTER
10
75.926
20
30.74
30
0
0
VERTEX
8
RASTER
10
75.96
20
30.749
30
0
0
VERTEX
8
RASTER
10
75.993
20
30.759
30
0
0
VERTEX
8
RASTER
10
76.025
20
30.771
30
0
0
VERTEX
8
RASTER
10
76.057
20
30.784
30
0
0
VERTEX
8
RASTER
10
76.087
20
30.798
30
0
0
VERTEX
8
RASTER
10
76.117
20
30.814
30
0
0
VERTEX
8
RASTER
10
76.146
20
30.831
30
0
0
VERTEX
8
RASTER
10
76.174
20
30.849
30
0
0
VERTEX
8
RASTER
10
76.201
20
30.87
30
0
0
VERTEX
8
RASTER
10
76.227
20
30.891
30
0
0
VERTEX
8
RASTER
10
76.251
20
30.915
30
0
0
VERTEX
8
RASTER
10
76.274
20
30.94
30
0
0
VERTEX
8
RASTER
10
76.296
20
30.967
30
0
0
VERTEX
8
RASTER
10
76.317
20
30.996
30
0
0
VERTEX
8
RASTER
10
76.336
20
31.026
30
0
0
VERTEX
8
RASTER
10
76.355
20
31.058
30
0
0
VERTEX
8
RASTER
10
76.371
20
31.092
30
0
0
VERTEX
8
RASTER
10
76.385
20
31.128
30
0
0
VERTEX
8
RASTER
10
76.397
20
31.167
30
0
0
VERTEX
8
RASTER
10
76.407
20
31.207
30
0
0
VERTEX
8
RASTER
10
76.415
20
31.25
30
0
0
VERTEX
8
RASTER
10
76.42
20
31.295
30
0
0
VERTEX
8
RASTER
10
76.424
20
31.342
30
0
0
VERTEX
8
RASTER
10
76.425
20
31.391
30
0
0
VERTEX
8
RASTER
10
76.424
20
31.443
30
0
0
VERTEX
8
RASTER
10
76.42
20
31.493
30
0
0
VERTEX
8
RASTER
10
76.415
20
31.54
30
0
0
VERTEX
8
RASTER
10
76.407
20
31.584
30
0
0
VERTEX
8
RASTER
10
76.397
20
31.627
30
0
0
VERTEX
8
RASTER
10
76.385
20
31.666
30
0
0
VERTEX
8
RASTER
10
76.371
20
31.704
30
0
0
VERTEX
8
RASTER
10
76.355
20
31.738
30
0
0
VERTEX
8
RASTER
10
76.336
20
31.771
30
0
0
VERTEX
8
RASTER
10
76.317
20
31.802
30
0
0
VERTEX
8
RASTER
10
76.296
20
31.831
30
0
0
VERTEX
8
RASTER
10
76.274
20
31.858
30
0
0
VERTEX
8
RASTER
10
76.251
20
31.883
30
0
0
VERTEX
8
RASTER
10
76.227
20
31.907
30
0
0
VERTEX
8
RASTER
10
76.201
20
31.929
30
0
0
VERTEX
8
RASTER
10
76.174
20
31.948
30
0
0
VERTEX
8
RASTER
10
76.146
20
31.967
30
0
0
VERTEX
8
RASTER
10
76.117
20
31.983
30
0
0
VERTEX
8
RASTER
10
76.087
20
31.998
30
0
0
VERTEX
8
RASTER
10
76.057
20
32.012
30
0
0
VERTEX
8
RASTER
10
76.025
20
32.024
30
0
0
VERTEX
8
RASTER
10
75.993
20
32.035
30
0
0
VERTEX
8
RASTER
10
75.96
20
32.044
30
0
0
VERTEX
8
RASTER
10
75.926
20
32.052
30
0
0
VERTEX
8
RASTER
10
75.892
20
32.059
30
0
0
VERTEX
8
RASTER
10
75.858
20
32.064
30
0
0
VERTEX
8
RASTER
10
75.823
20
32.069
30
0
0
VERTEX
8
RASTER
10
75.789
20
32.073
30
0
0
VERTEX
8
RASTER
10
75.755
20
32.076
30
0
0
VERTEX
8
RASTER
10
75.72
20
32.078
30
0
0
VERTEX
8
RASTER
10
75.686
20
32.08
30
0
0
VERTEX
8
RASTER
10
75.652
20
32.08
30
0
0
VERTEX
8
RASTER
10
75.358
20
32.08
30
0
0
VERTEX
8
RASTER
10
75.358
20
30.708
30
0
0
SEQEND
8
RASTER
0
POLYLINE
8
RASTER
66
1
70
1
0
VERTEX
8
RASTER
10
77.844
20
32.382
30
0
0
VERTEX
8
RASTER
10
78.312
20
32.382
30
0
0
VERTEX
8
RASTER
10
79.233
20
30.898
30
0
0
VERTEX
8
RASTER
10
79.239
20
30.898
30
0
0
VERTEX
8
RASTER
10
79.239
20
32.382
30
0
0
VERTEX
8
RASTER
10
79.591
20
32.382
30
0
0
VERTEX
8
RASTER
10
79.591
20
30.4
30
0
0
VERTEX
8
RASTER
10
79.143
20
30.4
30
0
0
VERTEX
8
RASTER
10
78.203
20
31.932
30
0
0
VERTEX
8
RASTER
10
78.197
20
31.932
30
0
0
VERTEX
8
RASTER
10
78.197
20
30.4
30
0
0
VERTEX
8
RASTER
10
77.844
20
30.4
30
0
0
SEQEND
8
RASTER
0
POLYLINE
8
RASTER
66
1
70
1
0
VERTEX
8
RASTER
10
79.933
20
31.397
30
0
0
VERTEX
8
RASTER
10
79.934
20
31.456
30
0
0
VERTEX
8
RASTER
10
79.938
20
31.513
30
0
0
VERTEX
8
RASTER
10
79.944
20
31.569
30
0
0
VERTEX
8
RASTER
10
79.953
20
31.623
30
0
0
VERTEX
8
RASTER
10
79.964
20
31.676
30
0
0
VERTEX
8
RASTER
10
79.978
20
31.728
30
0
0
VERTEX
8
RASTER
10
79.994
20
31.778
30
0
0
VERTEX
8
RASTER
10
80.013
20
31.827
30
0
0
VERTEX
8
RASTER
10
80.034
20
31.874
30
0
0
VERTEX
8
RASTER
10
80.057
20
31.919
30
0
0
VERTEX
8
RASTER
10
80.081
20
31.962
30
0
0
VERTEX
8
RASTER
10
80.108
20
32.004
30
0
0
VERTEX
8
RASTER
10
80.137
20
32.044
30
0
0
VERTEX
8
RASTER
10
80.167
20
32.082
30
0
0
VERTEX
8
RASTER
10
80.2
20
32.118
30
0
0
VERTEX
8
RASTER
10
80.234
20
32.153
30
0
0
VERTEX
8
RASTER
10
80.27
20
32.185
30
0
0
VERTEX
8
RASTER
10
80.308
20
32.216
30
0
0
VERTEX
8
RASTER
10
80.348
20
32.245
30
0
0
VERTEX
8
RASTER
10
80.389
20
32.272
30
0
0
VERTEX
8
RASTER
10
80.432
20
32.297
30
0
0
VERTEX
8
RASTER
10
80.476
20
32.32
30
0
0
VERTEX
8
RASTER
10
80.522
20
32.341
30
0
0
VERTEX
8
RASTER
10
80.57
20
32.36
30
0
0
VERTEX
8
RASTER
10
80.619
20
32.377
30
0
0
VERTEX
8
RASTER
10
80.669
20
32.392
30
0
0
VERTEX
8
RASTER
10
80.721
20
32.404
30
0
0
VERTEX
8
RASTER
10
80.773
20
32.415
30
0
0
VERTEX
8
RASTER
10
80.827
20
32.423
30
0
0
VERTEX
8
RASTER
10
80.882
20
32.428
30
0
0
VERTEX
8
RASTER
10
80.937
20
32.432
30
0
0
VERTEX
8
RASTER
10
80.994
20
32.433
30
0
0
VERTEX
8
RASTER
10
81.052
20
32.432
30
0
0
VERTEX
8
RASTER
10
81.108
20
32.428
30
0
0
VERTEX
8
RASTER
10
81.163
20
32.423
30
0
0
VERTEX
8
RASTER
10
81.218
20
32.415
30
0
0
VERTEX
8
RASTER
10
81.27
20
32.404
30
0
0
VERTEX
8
RASTER
10
81.322
20
32.392
30
0
0
VERTEX
8
RASTER
10
81.373
20
32.377
30
0
0
VERTEX
8
RASTER
10
81.423
20
32.36
30
0
0
VERTEX
8
RASTER
10
81.471
20
32.341
30
0
0
VERTEX
8
RASTER
10
81.517
20
32.32
30
0
0
VERTEX
8
RASTER
10
81.562
20
32.297
30
0
0
VERTEX
8
RASTER
10
81.605
20
32.272
30
0
0
VERTEX
8
RASTER
10
81.647
20
32.245
30
0
0
VERTEX
8
RASTER
10
81.687
20
32.216
30
0
0
VERTEX
8
RASTER
10
81.725
20
32.185
30
0
0
VERTEX
8
RASTER
10
81.761
20
32.153
30
0
0
VERTEX
8
RASTER
10
81.796
20
32.118
30
0
0
VERTEX
8
RASTER
10
81.829
20
32.082
30
0
0
VERTEX
8
RASTER
10
81.86
20
32.044
30
0
0
VERTEX
8
RASTER
10
81.888
20
32.004
30
0
0
VERTEX
8
RASTER
10
81.915
20
31.962
30
0
0
VERTEX
8
RASTER
10
81.94
20
31.919
30
0
0
VERTEX
8
RASTER
10
81.963
20
31.874
30
0
0
VERTEX
8
RASTER
10
81.984
20
31.827
30
0
0
VERTEX
8
RASTER
10
82.003
20
31.778
30
0
0
VERTEX
8
RASTER
10
82.019
20
31.728
30
0
0
VERTEX
8
RASTER
10
82.033
20
31.676
30
0
0
VERTEX
8
RASTER
10
82.044
20
31.623
30
0
0
VERTEX
8
RASTER
10
82.053
20
31.569
30
0
0
VERTEX
8
RASTER
10
82.059
20
31.513
30
0
0
VERTEX
8
RASTER
10
82.063
20
31.456
30
0
0
VERTEX
8
RASTER
10
82.064
20
31.397
30
0
0
VERTEX
8
RASTER
10
82.063
20
31.339
30
0
0
VERTEX
8
RASTER
10
82.059
20
31.283
30
0
0
VERTEX
8
RASTER
10
82.053
20
31.228
30
0
0
VERTEX
8
RASTER
10
82.044
20
31.175
30
0
0
VERTEX
8
RASTER
10
82.033
20
31.122
30
0
0
VERTEX
8
RASTER
10
82.019
20
31.071
30
0
0
VERTEX
8
RASTER
10
82.003
20
31.021
30
0
0
VERTEX
8
RASTER
10
81.984
20
30.973
30
0
0
VERTEX
8
RASTER
10
81.963
20
30.925
30
0
0
VERTEX
8
RASTER
10
81.94
20
30.88
30
0
0
VERTEX
8
RASTER
10
81.915
20
30.836
30
0
0
VERTEX
8
RASTER
10
81.888
20
30.794
30
0
0
VERTEX
8
RASTER
10
81.86
20
30.754
30
0
0
VERTEX
8
RASTER
10
81.829
20
30.715
30
0
0
VERTEX
8
RASTER
10
81.796
20
30.678
30
0
0
VERTEX
8
RASTER
10
81.761
20
30.642
30
0
0
VERTEX
8
RASTER
10
81.725
20
30.609
30
0
0
VERTEX
8
RASTER
10
81.687
20
30.577
30
0
0
VERTEX
8
RASTER
10
81.647
20
30.547
30
0
0
VERTEX
8
RASTER
10
81.605
20
30.519
30
0
0
VERTEX
8
RASTER
10
81.562
20
30.493
30
0
0
VERTEX
8
RASTER
10
81.517
20
30.469
30
0
0
VERTEX
8
RASTER
10
81.471
20
30.447
30
0
0
VERTEX
8
RASTER
10
81.423
20
30.427
30
0
0
VERTEX
8
RASTER
10
81.373
20
30.409
30
0
0
VERTEX
8
RASTER
10
81.322
20
30.393
30
0
0
VERTEX
8
RASTER
10
81.27
20
30.38
30
0
0
VERTEX
8
RASTER
10
81.218
20
30.369
30
0
0
VERTEX
8
RASTER
10
81.163
20
30.36
30
0
0
VERTEX
8
RASTER
10
81.108
20
30.354
30
0
0
VERTEX
8
RASTER
10
81.052
20
30.351
30
0
0
VERTEX
8
RASTER
10
80.994
20
30.35
30
0
0
VERTEX
8
RASTER
10
80.937
20
30.351
30
0
0
VERTEX
8
RASTER
10
80.882
20
30.354
30
0
0
VERTEX
8
RASTER
10
80.827
20
30.36
30
0
0
VERTEX
8
RASTER
10
80.773
20
30.369
30
0
0
VERTEX
8
RASTER
10
80.721
20
30.38
30
0
0
VERTEX
8
RASTER
10
80.669
20
30.393
30
0
0
VERTEX
8
RASTER
10
80.619
20
30.409
30
0
0
VERTEX
8
RASTER
10
80.57
20
30.427
30
0
0
VERTEX
8
RASTER
10
80.522
20
30.447
30
0
0
VERTEX
8
RASTER
10
80.476
20
30.469
30
0
0
VERTEX
8
RASTER
10
80.432
20
30.493
30
0
0
VERTEX
8
RASTER
10
80.389
20
30.519
30
0
0
VERTEX
8
RASTER
10
80.348
20
30.547
30
0
0
VERTEX
8
RASTER
10
80.308
20
30.577
30
0
0
VERTEX
8
RASTER
10
80.27
20
30.609
30
0
0
VERTEX
8
RASTER
10
80.234
20
30.642
30
0
0
VERTEX
8
RASTER
10
80.2
20
30.678
30
0
0
VERTEX
8
RASTER
10
80.167
20
30.715
30
0
0
VERTEX
8
RASTER
10
80.137
20
30.754
30
0
0
VERTEX
8
RASTER
10
80.108
20
30.794
30
0
0
VERTEX
8
RASTER
10
80.081
20
30.836
30
0
0
VERTEX
8
RASTER
10
80.057
20
30.88
30
0
0
VERTEX
8
RASTER
10
80.034
20
30.925
30
0
0
VERTEX
8
RASTER
10
80.013
20
30.973
30
0
0
VERTEX
8
RASTER
10
79.994
20
31.021
30
0
0
VERTEX
8
RASTER
10
79.978
20
31.071
30
0
0
VERTEX
8
RASTER
10
79.964
20
31.122
30
0
0
VERTEX
8
RASTER
10
79.953
20
31.175
30
0
0
VERTEX
8
RASTER
10
79.944
20
31.228
30
0
0
VERTEX
8
RASTER
10
79.938
20
31.283
30
0
0
VERTEX
8
RASTER
10
79.934
20
31.339
30
0
0
VERTEX
8
RASTER
10
79.933
20
31.397
30
0
0
SEQEND
8
RASTER
0
POLYLINE
8
RASTER
66
1
70
1
0
VERTEX
8
RASTER
10
80.317
20
31.397
30
0
0
VERTEX
8
RASTER
10
80.317
20
31.357
30
0
0
VERTEX
8
RASTER
10
80.32
20
31.319
30
0
0
VERTEX
8
RASTER
10
80.323
20
31.281
30
0
0
VERTEX
8
RASTER
10
80.329
20
31.244
30
0
0
VERTEX
8
RASTER
10
80.336
20
31.208
30
0
0
VERTEX
8
RASTER
10
80.344
20
31.172
30
0
0
VERTEX
8
RASTER
10
80.354
20
31.138
30
0
0
VERTEX
8
RASTER
10
80.366
20
31.104
30
0
0
VERTEX
8
RASTER
10
80.379
20
31.071
30
0
0
VERTEX
8
RASTER
10
80.393
20
31.04
30
0
0
VERTEX
8
RASTER
10
80.408
20
31.009
30
0
0
VERTEX
8
RASTER
10
80.425
20
30.98
30
0
0
VERTEX
8
RASTER
10
80.443
20
30.952
30
0
0
VERTEX
8
RASTER
10
80.463
20
30.924
30
0
0
VERTEX
8
RASTER
10
80.484
20
30.898
30
0
0
VERTEX
8
RASTER
10
80.506
20
30.873
30
0
0
VERTEX
8
RASTER
10
80.529
20
30.849
30
0
0
VERTEX
8
RASTER
10
80.553
20
30.827
30
0
0
VERTEX
8
RASTER
10
80.579
20
30.806
30
0
0
VERTEX
8
RASTER
10
80.605
20
30.786
30
0
0
VERTEX
8
RASTER
10
80.632
20
30.768
30
0
0
VERTEX
8
RASTER
10
80.661
20
30.751
30
0
0
VERTEX
8
RASTER
10
80.691
20
30.735
30
0
0
VERTEX
8
RASTER
10
80.721
20
30.721
30
0
0
VERTEX
8
RASTER
10
80.753
20
30.708
30
0
0
VERTEX
8
RASTER
10
80.785
20
30.697
30
0
0
VERTEX
8
RASTER
10
80.818
20
30.687
30
0
0
VERTEX
8
RASTER
10
80.852
20
30.68
30
0
0
VERTEX
8
RASTER
10
80.887
20
30.674
30
0
0
VERTEX
8
RASTER
10
80.923
20
30.669
30
0
0
VERTEX
8
RASTER
10
80.96
20
30.667
30
0
0
VERTEX
8
RASTER
10
80.997
20
30.666
30
0
0
VERTEX
8
RASTER
10
81.034
20
30.667
30
0
0
VERTEX
8
RASTER
10
81.071
20
30.669
30
0
0
VERTEX
8
RASTER
10
81.107
20
30.674
30
0
0
VERTEX
8
RASTER
10
81.142
20
30.68
30
0
0
VERTEX
8
RASTER
10
81.176
20
30.687
30
0
0
VERTEX
8
RASTER
10
81.21
20
30.697
30
0
0
VERTEX
8
RASTER
10
81.242
20
30.708
30
0
0
VERTEX
8
RASTER
10
81.274
20
30.721
30
0
0
VERTEX
8
RASTER
10
81.305
20
30.735
30
0
0
VERTEX
8
RASTER
10
81.335
20
30.751
30
0
0
VERTEX
8
RASTER
10
81.364
20
30.768
30
0
0
VERTEX
8
RASTER
10
81.391
20
30.786
30
0
0
VERTEX
8
RASTER
10
81.418
20
30.806
30
0
0
VERTEX
8
RASTER
10
81.444
20
30.827
30
0
0
VERTEX
8
RASTER
10
81.468
20
30.849
30
0
0
VERTEX
8
RASTER
10
81.491
20
30.873
30
0
0
VERTEX
8
RASTER
10
81.513
20
30.898
30
0
0
VERTEX
8
RASTER
10
81.534
20
30.924
30
0
0
VERTEX
8
RASTER
10
81.554
20
30.952
30
0
0
VERTEX
8
RASTER
10
81.572
20
30.98
30
0
0
VERTEX
8
RASTER
10
81.589
20
31.009
30
0
0
VERTEX
8
RASTER
10
81.604
20
31.04
30
0
0
VERTEX
8
RASTER
10
81.618
20
31.071
30
0
0
VERTEX
8
RASTER
10
81.631
20
31.104
30
0
0
VERTEX
8
RASTER
10
81.643
20
31.138
30
0
0
VERTEX
8
RASTER
10
81.653
20
31.172
30
0
0
VERTEX
8
RASTER
10
81.661
20
31.208
30
0
0
VERTEX
8
RASTER
10
81.668
20
31.244
30
0
0
VERTEX
8
RASTER
10
81.673
20
31.281
30
0
0
VERTEX
8
RASTER
10
81.677
20
31.319
30
0
0
VERTEX
8
RASTER
10
81.679
20
31.357
30
0
0
VERTEX
8
RASTER
10
81.68
20
31.397
30
0
0
VERTEX
8
RASTER
10
81.679
20
31.435
30
0
0
VERTEX
8
RASTER
10
81.677
20
31.472
30
0
0
VERTEX
8
RASTER
10
81.673
20
31.509
30
0
0
VERTEX
8
RASTER
10
81.668
20
31.545
30
0
0
VERTEX
8
RASTER
10
81.661
20
31.581
30
0
0
VERTEX
8
RASTER
10
81.653
20
31.615
30
0
0
VERTEX
8
RASTER
10
81.643
20
31.649
30
0
0
VERTEX
8
RASTER
10
81.631
20
31.682
30
0
0
VERTEX
8
RASTER
10
81.618
20
31.715
30
0
0
VERTEX
8
RASTER
10
81.604
20
31.746
30
0
0
VERTEX
8
RASTER
10
81.589
20
31.776
30
0
0
VERTEX
8
RASTER
10
81.572
20
31.806
30
0
0
VERTEX
8
RASTER
10
81.554
20
31.834
30
0
0
VERTEX
8
RASTER
10
81.535
20
31.861
30
0
0
VERTEX
8
RASTER
10
81.514
20
31.887
30
0
0
VERTEX
8
RASTER
10
81.493
20
31.912
30
0
0
VERTEX
8
RASTER
10
81.47
20
31.936
30
0
0
VERTEX
8
RASTER
10
81.446
20
31.958
30
0
0
VERTEX
8
RASTER
10
81.42
20
31.98
30
0
0
VERTEX
8
RASTER
10
81.394
20
31.999
30
0
0
VERTEX
8
RASTER
10
81.366
20
32.018
30
0
0
VERTEX
8
RASTER
10
81.338
20
32.035
30
0
0
VERTEX
8
RASTER
10
81.308
20
32.051
30
0
0
VERTEX
8
RASTER
10
81.277
20
32.066
30
0
0
VERTEX
8
RASTER
10
81.245
20
32.079
30
0
0
VERTEX
8
RASTER
10
81.212
20
32.09
30
0
0
VERTEX
8
RASTER
10
81.179
20
32.1
30
0
0
VERTEX
8
RASTER
10
81.144
20
32.108
30
0
0
VERTEX
8
RASTER
10
81.109
20
32.114
30
0
0
VERTEX
8
RASTER
10
81.072
20
32.118
30
0
0
VERTEX
8
RASTER
10
81.035
20
32.121
30
0
0
VERTEX
8
RASTER
10
80.997
20
32.122
30
0
0
VERTEX
8
RASTER
10
80.959
20
32.121
30
0
0
VERTEX
8
RASTER
10
80.922
20
32.118
30
0
0
VERTEX
8
RASTER
10
80.886
20
32.114
30
0
0
VERTEX
8
RASTER
10
80.85
20
32.108
30
0
0
VERTEX
8
RASTER
10
80.816
20
32.1
30
0
0
VERTEX
8
RASTER
10
80.783
20
32.091
30
0
0
VERTEX
8
RASTER
10
80.75
20
32.079
30
0
0
VERTEX
8
RASTER
10
80.718
20
32.066
30
0
0
VERTEX
8
RASTER
10
80.688
20
32.051
30
0
0
VERTEX
8
RASTER
10
80.658
20
32.035
30
0
0
VERTEX
8
RASTER
10
80.63
20
32.018
30
0
0
VERTEX
8
RASTER
10
80.603
20
31.999
30
0
0
VERTEX
8
RASTER
10
80.576
20
31.98
30
0
0
VERTEX
8
RASTER
10
80.551
20
31.958
30
0
0
VERTEX
8
RASTER
10
80.527
20
31.936
30
0
0
VERTEX
8
RASTER
10
80.504
20
31.912
30
0
0
VERTEX
8
RASTER
10
80.482
20
31.887
30
0
0
VERTEX
8
RASTER
10
80.462
20
31.861
30
0
0
VERTEX
8
RASTER
10
80.443
20
31.834
30
0
0
VERTEX
8
RASTER
10
80.425
20
31.806
30
0
0
VERTEX
8
RASTER
10
80.408
20
31.776
30
0
0
VERTEX
8
RASTER
10
80.393
20
31.746
30
0
0
VERTEX
8
RASTER
10
80.378
20
31.715
30
0
0
VERTEX
8
RASTER
10
80.366
20
31.682
30
0
0
VERTEX
8
RASTER
10
80.354
20
31.649
30
0
0
VERTEX
8
RASTER
10
80.344
20
31.615
30
0
0
VERTEX
8
RASTER
10
80.336
20
31.581
30
0
0
VERTEX
8
RASTER
10
80.329
20
31.545
30
0
0
VERTEX
8
RASTER
10
80.323
20
31.509
30
0
0
VERTEX
8
RASTER
10
80.32
20
31.472
30
0
0
VERTEX
8
RASTER
10
80.317
20
31.435
30
0
0
VERTEX
8
RASTER
10
80.317
20
31.397
30
0
0
SEQEND
8
RASTER
0
POLYLINE
8
RASTER
66
1
70
1
0
VERTEX
8
RASTER
10
82.204
20
32.382
30
0
0
VERTEX
8
RASTER
10
82.59
20
32.382
30
0
0
VERTEX
8
RASTER
10
82.974
20
30.926
30
0
0
VERTEX
8
RASTER
10
82.979
20
30.926
30
0
0
VERTEX
8
RASTER
10
83.416
20
32.382
30
0
0
VERTEX
8
RASTER
10
83.78
20
32.382
30
0
0
VERTEX
8
RASTER
10
84.209
20
30.926
30
0
0
VERTEX
8
RASTER
10
84.214
20
30.926
30
0
0
VERTEX
8
RASTER
10
84.606
20
32.382
30
0
0
VERTEX
8
RASTER
10
84.981
20
32.382
30
0
0
VERTEX
8
RASTER
10
84.402
20
30.4
30
0
0
VERTEX
8
RASTER
10
84.06
20
30.4
30
0
0
VERTEX
8
RASTER
10
83.595
20
31.887
30
0
0
VERTEX
8
RASTER
10
83.59
20
31.887
30
0
0
VERTEX
8
RASTER
10
83.125
20
30.4
30
0
0
VERTEX
8
RASTER
10
82.783
20
30.4
30
0
0
SEQEND
8
RASTER
0
ENDSEC
0
EOF
