0
SECTION
2
HEADER
9
$ACADVER
1
AC1009
9
$EXTMIN
10
0
20
0
9
$EXTMAX
10
279
20
88
0
ENDSEC
0
SECTION
2
TABLES
0
TABLE
2
LAYER
70
2
0
LAYER
2
CUT
70
0
62
1
6
CONTINUOUS
0
LAYER
2
RASTER
70
0
62
7
6
CONTINUOUS
0
ENDTAB
0
ENDSEC
0
SECTION
2
ENTITIES
0
CIRCLE
8
CUT
10
44
20
44
30
0
40
40
0
CIRCLE
8
CUT
10
44
20
44
30
0
40
1.65
0
CIRCLE
8
RASTER
10
44
20
44
30
0
40
39
0
CIRCLE
8
RASTER
10
44
20
44
30
0
40
37.6
0
CIRCLE
8
RASTER
10
44
20
44
30
0
40
5.5
0
CIRCLE
8
RASTER
10
44
20
44
30
0
40
4.5
0
POLYLINE
8
RASTER
66
1
70
1
0
VERTEX
8
RASTER
10
52.839
20
35.868
30
0
0
VERTEX
8
RASTER
10
68.678
20
20.029
30
0
0
VERTEX
8
RASTER
10
67.971
20
19.322
30
0
0
VERTEX
8
RASTER
10
52.132
20
35.161
30
0
0
SEQEND
8
RASTER
0
POLYLINE
8
RASTER
66
1
70
1
0
VERTEX
8
RASTER
10
35.868
20
35.161
30
0
0
VERTEX
8
RASTER
10
20.029
20
19.322
30
0
0
VERTEX
8
RASTER
10
19.322
20
20.029
30
0
0
VERTEX
8
RASTER
10
35.161
20
35.868
30
0
0
SEQEND
8
RASTER
0
POLYLINE
8
RASTER
66
1
70
1
0
VERTEX
8
RASTER
10
35.161
20
52.132
30
0
0
VERTEX
8
RASTER
10
19.322
20
67.971
30
0
0
VERTEX
8
RASTER
10
20.029
20
68.678
30
0
0
VERTEX
8
RASTER
10
35.868
20
52.839
30
0
0
SEQEND
8
RASTER
0
POLYLINE
8
RASTER
66
1
70
1
0
VERTEX
8
RASTER
10
52.132
20
52.839
30
0
0
VERTEX
8
RASTER
10
67.971
20
68.678
30
0
0
VERTEX
8
RASTER
10
68.678
20
67.971
30
0
0
VERTEX
8
RASTER
10
52.839
20
52.132
30
0
0
SEQEND
8
RASTER
0
POLYLINE
8
RASTER
66
1
70
1
0
VERTEX
8
RASTER
10
40.7
20
72.62
30
0
0
VERTEX
8
RASTER
10
42.02
20
72.62
30
0
0
VERTEX
8
RASTER
10
42.02
20
71.3
30
0
0
VERTEX
8
RASTER
10
40.7
20
71.3
30
0
0
SEQEND
8
RASTER
0
POLYLINE
8
RASTER
66
1
70
1
0
VERTEX
8
RASTER
10
45.98
20
72.62
30
0
0
VERTEX
8
RASTER
10
47.3
20
72.62
30
0
0
VERTEX
8
RASTER
10
47.3
20
71.3
30
0
0
VERTEX
8
RASTER
10
45.98
20
71.3
30
0
0
SEQEND
8
RASTER
0
POLYLINE
8
RASTER
66
1
70
1
0
VERTEX
8
RASTER
10
40.7
20
71.3
30
0
0
VERTEX
8
RASTER
10
43.34
20
71.3
30
0
0
VERTEX
8
RASTER
10
43.34
20
69.98
30
0
0
VERTEX
8
RASTER
10
40.7
20
69.98
30
0
0
SEQEND
8
RASTER
0
POLYLINE
8
RASTER
66
1
70
1
0
VERTEX
8
RASTER
10
45.98
20
71.3
30
0
0
VERTEX
8
RASTER
10
47.3
20
71.3
30
0
0
VERTEX
8
RASTER
10
47.3
20
69.98
30
0
0
VERTEX
8
RASTER
10
45.98
20
69.98
30
0
0
SEQEND
8
RASTER
0
POLYLINE
8
RASTER
66
1
70
1
0
VERTEX
8
RASTER
10
40.7
20
69.98
30
0
0
VERTEX
8
RASTER
10
42.02
20
69.98
30
0
0
VERTEX
8
RASTER
10
42.02
20
68.66
30
0
0
VERTEX
8
RASTER
10
40.7
20
68.66
30
0
0
SEQEND
8
RASTER
0
POLYLINE
8
RASTER
66
1
70
1
0
VERTEX
8
RASTER
10
43.34
20
69.98
30
0
0
VERTEX
8
RASTER
10
44.66
20
69.98
30
0
0
VERTEX
8
RASTER
10
44.66
20
68.66
30
0
0
VERTEX
8
RASTER
10
43.34
20
68.66
30
0
0
SEQEND
8
RASTER
0
POLYLINE
8
RASTER
66
1
70
1
0
VERTEX
8
RASTER
10
45.98
20
69.98
30
0
0
VERTEX
8
RASTER
10
47.3
20
69.98
30
0
0
VERTEX
8
RASTER
10
47.3
20
68.66
30
0
0
VERTEX
8
RASTER
10
45.98
20
68.66
30
0
0
SEQEND
8
RASTER
0
POLYLINE
8
RASTER
66
1
70
1
0
VERTEX
8
RASTER
10
40.7
20
68.66
30
0
0
VERTEX
8
RASTER
10
42.02
20
68.66
30
0
0
VERTEX
8
RASTER
10
42.02
20
67.34
30
0
0
VERTEX
8
RASTER
10
40.7
20
67.34
30
0
0
SEQEND
8
RASTER
0
POLYLINE
8
RASTER
66
1
70
1
0
VERTEX
8
RASTER
10
44.66
20
68.66
30
0
0
VERTEX
8
RASTER
10
47.3
20
68.66
30
0
0
VERTEX
8
RASTER
10
47.3
20
67.34
30
0
0
VERTEX
8
RASTER
10
44.66
20
67.34
30
0
0
SEQEND
8
RASTER
0
POLYLINE
8
RASTER
66
1
70
1
0
VERTEX
8
RASTER
10
40.7
20
67.34
30
0
0
VERTEX
8
RASTER
10
42.02
20
67.34
30
0
0
VERTEX
8
RASTER
10
42.02
20
66.02
30
0
0
VERTEX
8
RASTER
10
40.7
20
66.02
30
0
0
SEQEND
8
RASTER
0
POLYLINE
8
RASTER
66
1
70
1
0
VERTEX
8
RASTER
10
45.98
20
67.34
30
0
0
VERTEX
8
RASTER
10
47.3
20
67.34
30
0
0
VERTEX
8
RASTER
10
47.3
20
66.02
30
0
0
VERTEX
8
RASTER
10
45.98
20
66.02
30
0
0
SEQEND
8
RASTER
0
POLYLINE
8
RASTER
66
1
70
1
0
VERTEX
8
RASTER
10
40.7
20
66.02
30
0
0
VERTEX
8
RASTER
10
42.02
20
66.02
30
0
0
VERTEX
8
RASTER
10
42.02
20
64.7
30
0
0
VERTEX
8
RASTER
10
40.7
20
64.7
30
0
0
SEQEND
8
RASTER
0
POLYLINE
8
RASTER
66
1
70
1
0
VERTEX
8
RASTER
10
45.98
20
66.02
30
0
0
VERTEX
8
RASTER
10
47.3
20
66.02
30
0
0
VERTEX
8
RASTER
10
47.3
20
64.7
30
0
0
VERTEX
8
RASTER
10
45.98
20
64.7
30
0
0
SEQEND
8
RASTER
0
POLYLINE
8
RASTER
66
1
70
1
0
VERTEX
8
RASTER
10
40.7
20
64.7
30
0
0
VERTEX
8
RASTER
10
42.02
20
64.7
30
0
0
VERTEX
8
RASTER
10
42.02
20
63.38
30
0
0
VERTEX
8
RASTER
10
40.7
20
63.38
30
0
0
SEQEND
8
RASTER
0
POLYLINE
8
RASTER
66
1
70
1
0
VERTEX
8
RASTER
10
45.98
20
64.7
30
0
0
VERTEX
8
RASTER
10
47.3
20
64.7
30
0
0
VERTEX
8
RASTER
10
47.3
20
63.38
30
0
0
VERTEX
8
RASTER
10
45.98
20
63.38
30
0
0
SEQEND
8
RASTER
0
POLYLINE
8
RASTER
66
1
70
1
0
VERTEX
8
RASTER
10
64.7
20
48.62
30
0
0
VERTEX
8
RASTER
10
71.3
20
48.62
30
0
0
VERTEX
8
RASTER
10
71.3
20
47.3
30
0
0
VERTEX
8
RASTER
10
64.7
20
47.3
30
0
0
SEQEND
8
RASTER
0
POLYLINE
8
RASTER
66
1
70
1
0
VERTEX
8
RASTER
10
64.7
20
47.3
30
0
0
VERTEX
8
RASTER
10
66.02
20
47.3
30
0
0
VERTEX
8
RASTER
10
66.02
20
45.98
30
0
0
VERTEX
8
RASTER
10
64.7
20
45.98
30
0
0
SEQEND
8
RASTER
0
POLYLINE
8
RASTER
66
1
70
1
0
VERTEX
8
RASTER
10
64.7
20
45.98
30
0
0
VERTEX
8
RASTER
10
66.02
20
45.98
30
0
0
VERTEX
8
RASTER
10
66.02
20
44.66
30
0
0
VERTEX
8
RASTER
10
64.7
20
44.66
30
0
0
SEQEND
8
RASTER
0
POLYLINE
8
RASTER
66
1
70
1
0
VERTEX
8
RASTER
10
64.7
20
44.66
30
0
0
VERTEX
8
RASTER
10
69.98
20
44.66
30
0
0
VERTEX
8
RASTER
10
69.98
20
43.34
30
0
0
VERTEX
8
RASTER
10
64.7
20
43.34
30
0
0
SEQEND
8
RASTER
0
POLYLINE
8
RASTER
66
1
70
1
0
VERTEX
8
RASTER
10
64.7
20
43.34
30
0
0
VERTEX
8
RASTER
10
66.02
20
43.34
30
0
0
VERTEX
8
RASTER
10
66.02
20
42.02
30
0
0
VERTEX
8
RASTER
10
64.7
20
42.02
30
0
0
SEQEND
8
RASTER
0
POLYLINE
8
RASTER
66
1
70
1
0
VERTEX
8
RASTER
10
64.7
20
42.02
30
0
0
VERTEX
8
RASTER
10
66.02
20
42.02
30
0
0
VERTEX
8
RASTER
10
66.02
20
40.7
30
0
0
VERTEX
8
RASTER
10
64.7
20
40.7
30
0
0
SEQEND
8
RASTER
0
POLYLINE
8
RASTER
66
1
70
1
0
VERTEX
8
RASTER
10
64.7
20
40.7
30
0
0
VERTEX
8
RASTER
10
71.3
20
40.7
30
0
0
VERTEX
8
RASTER
10
71.3
20
39.38
30
0
0
VERTEX
8
RASTER
10
64.7
20
39.38
30
0
0
SEQEND
8
RASTER
0
POLYLINE
8
RASTER
66
1
70
1
0
VERTEX
8
RASTER
10
42.02
20
24.62
30
0
0
VERTEX
8
RASTER
10
47.3
20
24.62
30
0
0
VERTEX
8
RASTER
10
47.3
20
23.3
30
0
0
VERTEX
8
RASTER
10
42.02
20
23.3
30
0
0
SEQEND
8
RASTER
0
POLYLINE
8
RASTER
66
1
70
1
0
VERTEX
8
RASTER
10
40.7
20
23.3
30
0
0
VERTEX
8
RASTER
10
42.02
20
23.3
30
0
0
VERTEX
8
RASTER
10
42.02
20
21.98
30
0
0
VERTEX
8
RASTER
10
40.7
20
21.98
30
0
0
SEQEND
8
RASTER
0
POLYLINE
8
RASTER
66
1
70
1
0
VERTEX
8
RASTER
10
40.7
20
21.98
30
0
0
VERTEX
8
RASTER
10
42.02
20
21.98
30
0
0
VERTEX
8
RASTER
10
42.02
20
20.66
30
0
0
VERTEX
8
RASTER
10
40.7
20
20.66
30
0
0
SEQEND
8
RASTER
0
POLYLINE
8
RASTER
66
1
70
1
0
VERTEX
8
RASTER
10
42.02
20
20.66
30
0
0
VERTEX
8
RASTER
10
45.98
20
20.66
30
0
0
VERTEX
8
RASTER
10
45.98
20
19.34
30
0
0
VERTEX
8
RASTER
10
42.02
20
19.34
30
0
0
SEQEND
8
RASTER
0
POLYLINE
8
RASTER
66
1
70
1
0
VERTEX
8
RASTER
10
45.98
20
19.34
30
0
0
VERTEX
8
RASTER
10
47.3
20
19.34
30
0
0
VERTEX
8
RASTER
10
47.3
20
18.02
30
0
0
VERTEX
8
RASTER
10
45.98
20
18.02
30
0
0
SEQEND
8
RASTER
0
POLYLINE
8
RASTER
66
1
70
1
0
VERTEX
8
RASTER
10
45.98
20
18.02
30
0
0
VERTEX
8
RASTER
10
47.3
20
18.02
30
0
0
VERTEX
8
RASTER
10
47.3
20
16.7
30
0
0
VERTEX
8
RASTER
10
45.98
20
16.7
30
0
0
SEQEND
8
RASTER
0
POLYLINE
8
RASTER
66
1
70
1
0
VERTEX
8
RASTER
10
40.7
20
16.7
30
0
0
VERTEX
8
RASTER
10
45.98
20
16.7
30
0
0
VERTEX
8
RASTER
10
45.98
20
15.38
30
0
0
VERTEX
8
RASTER
10
40.7
20
15.38
30
0
0
SEQEND
8
RASTER
0
POLYLINE
8
RASTER
66
1
70
1
0
VERTEX
8
RASTER
10
16.7
20
48.62
30
0
0
VERTEX
8
RASTER
10
18.02
20
48.62
30
0
0
VERTEX
8
RASTER
10
18.02
20
47.3
30
0
0
VERTEX
8
RASTER
10
16.7
20
47.3
30
0
0
SEQEND
8
RASTER
0
POLYLINE
8
RASTER
66
1
70
1
0
VERTEX
8
RASTER
10
21.98
20
48.62
30
0
0
VERTEX
8
RASTER
10
23.3
20
48.62
30
0
0
VERTEX
8
RASTER
10
23.3
20
47.3
30
0
0
VERTEX
8
RASTER
10
21.98
20
47.3
30
0
0
SEQEND
8
RASTER
0
POLYLINE
8
RASTER
66
1
70
1
0
VERTEX
8
RASTER
10
16.7
20
47.3
30
0
0
VERTEX
8
RASTER
10
18.02
20
47.3
30
0
0
VERTEX
8
RASTER
10
18.02
20
45.98
30
0
0
VERTEX
8
RASTER
10
16.7
20
45.98
30
0
0
SEQEND
8
RASTER
0
POLYLINE
8
RASTER
66
1
70
1
0
VERTEX
8
RASTER
10
21.98
20
47.3
30
0
0
VERTEX
8
RASTER
10
23.3
20
47.3
30
0
0
VERTEX
8
RASTER
10
23.3
20
45.98
30
0
0
VERTEX
8
RASTER
10
21.98
20
45.98
30
0
0
SEQEND
8
RASTER
0
POLYLINE
8
RASTER
66
1
70
1
0
VERTEX
8
RASTER
10
16.7
20
45.98
30
0
0
VERTEX
8
RASTER
10
18.02
20
45.98
30
0
0
VERTEX
8
RASTER
10
18.02
20
44.66
30
0
0
VERTEX
8
RASTER
10
16.7
20
44.66
30
0
0
SEQEND
8
RASTER
0
POLYLINE
8
RASTER
66
1
70
1
0
VERTEX
8
RASTER
10
21.98
20
45.98
30
0
0
VERTEX
8
RASTER
10
23.3
20
45.98
30
0
0
VERTEX
8
RASTER
10
23.3
20
44.66
30
0
0
VERTEX
8
RASTER
10
21.98
20
44.66
30
0
0
SEQEND
8
RASTER
0
POLYLINE
8
RASTER
66
1
70
1
0
VERTEX
8
RASTER
10
16.7
20
44.66
30
0
0
VERTEX
8
RASTER
10
18.02
20
44.66
30
0
0
VERTEX
8
RASTER
10
18.02
20
43.34
30
0
0
VERTEX
8
RASTER
10
16.7
20
43.34
30
0
0
SEQEND
8
RASTER
0
POLYLINE
8
RASTER
66
1
70
1
0
VERTEX
8
RASTER
10
19.34
20
44.66
30
0
0
VERTEX
8
RASTER
10
20.66
20
44.66
30
0
0
VERTEX
8
RASTER
10
20.66
20
43.34
30
0
0
VERTEX
8
RASTER
10
19.34
20
43.34
30
0
0
SEQEND
8
RASTER
0
POLYLINE
8
RASTER
66
1
70
1
0
VERTEX
8
RASTER
10
21.98
20
44.66
30
0
0
VERTEX
8
RASTER
10
23.3
20
44.66
30
0
0
VERTEX
8
RASTER
10
23.3
20
43.34
30
0
0
VERTEX
8
RASTER
10
21.98
20
43.34
30
0
0
SEQEND
8
RASTER
0
POLYLINE
8
RASTER
66
1
70
1
0
VERTEX
8
RASTER
10
16.7
20
43.34
30
0
0
VERTEX
8
RASTER
10
18.02
20
43.34
30
0
0
VERTEX
8
RASTER
10
18.02
20
42.02
30
0
0
VERTEX
8
RASTER
10
16.7
20
42.02
30
0
0
SEQEND
8
RASTER
0
POLYLINE
8
RASTER
66
1
70
1
0
VERTEX
8
RASTER
10
19.34
20
43.34
30
0
0
VERTEX
8
RASTER
10
20.66
20
43.34
30
0
0
VERTEX
8
RASTER
10
20.66
20
42.02
30
0
0
VERTEX
8
RASTER
10
19.34
20
42.02
30
0
0
SEQEND
8
RASTER
0
POLYLINE
8
RASTER
66
1
70
1
0
VERTEX
8
RASTER
10
21.98
20
43.34
30
0
0
VERTEX
8
RASTER
10
23.3
20
43.34
30
0
0
VERTEX
8
RASTER
10
23.3
20
42.02
30
0
0
VERTEX
8
RASTER
10
21.98
20
42.02
30
0
0
SEQEND
8
RASTER
0
POLYLINE
8
RASTER
66
1
70
1
0
VERTEX
8
RASTER
10
16.7
20
42.02
30
0
0
VERTEX
8
RASTER
10
19.34
20
42.02
30
0
0
VERTEX
8
RASTER
10
19.34
20
40.7
30
0
0
VERTEX
8
RASTER
10
16.7
20
40.7
30
0
0
SEQEND
8
RASTER
0
POLYLINE
8
RASTER
66
1
70
1
0
VERTEX
8
RASTER
10
20.66
20
42.02
30
0
0
VERTEX
8
RASTER
10
23.3
20
42.02
30
0
0
VERTEX
8
RASTER
10
23.3
20
40.7
30
0
0
VERTEX
8
RASTER
10
20.66
20
40.7
30
0
0
SEQEND
8
RASTER
0
POLYLINE
8
RASTER
66
1
70
1
0
VERTEX
8
RASTER
10
16.7
20
40.7
30
0
0
VERTEX
8
RASTER
10
18.02
20
40.7
30
0
0
VERTEX
8
RASTER
10
18.02
20
39.38
30
0
0
VERTEX
8
RASTER
10
16.7
20
39.38
30
0
0
SEQEND
8
RASTER
0
POLYLINE
8
RASTER
66
1
70
1
0
VERTEX
8
RASTER
10
21.98
20
40.7
30
0
0
VERTEX
8
RASTER
10
23.3
20
40.7
30
0
0
VERTEX
8
RASTER
10
23.3
20
39.38
30
0
0
VERTEX
8
RASTER
10
21.98
20
39.38
30
0
0
SEQEND
8
RASTER
0
POLYLINE
8
CUT
66
1
70
1
0
VERTEX
8
CUT
10
88
20
79
30
0
0
VERTEX
8
CUT
10
119
20
79
30
0
0
VERTEX
8
CUT
10
119
20
84
30
0
0
VERTEX
8
CUT
10
130
20
76
30
0
0
VERTEX
8
CUT
10
119
20
68
30
0
0
VERTEX
8
CUT
10
119
20
73
30
0
0
VERTEX
8
CUT
10
88
20
73
30
0
0
VERTEX
8
CUT
10
92
20
76
30
0
0
SEQEND
8
CUT
0
CIRCLE
8
CUT
10
100
20
76
30
0
40
1.65
0
POLYLINE
8
RASTER
66
1
70
1
0
VERTEX
8
RASTER
10
98.88
20
78.52
30
0
0
VERTEX
8
RASTER
10
99.6
20
78.52
30
0
0
VERTEX
8
RASTER
10
99.6
20
77.8
30
0
0
VERTEX
8
RASTER
10
98.88
20
77.8
30
0
0
SEQEND
8
RASTER
0
POLYLINE
8
RASTER
66
1
70
1
0
VERTEX
8
RASTER
10
101.76
20
78.52
30
0
0
VERTEX
8
RASTER
10
102.48
20
78.52
30
0
0
VERTEX
8
RASTER
10
102.48
20
77.8
30
0
0
VERTEX
8
RASTER
10
101.76
20
77.8
30
0
0
SEQEND
8
RASTER
0
POLYLINE
8
RASTER
66
1
70
1
0
VERTEX
8
RASTER
10
98.88
20
77.8
30
0
0
VERTEX
8
RASTER
10
100.32
20
77.8
30
0
0
VERTEX
8
RASTER
10
100.32
20
77.08
30
0
0
VERTEX
8
RASTER
10
98.88
20
77.08
30
0
0
SEQEND
8
RASTER
0
POLYLINE
8
RASTER
66
1
70
1
0
VERTEX
8
RASTER
10
101.76
20
77.8
30
0
0
VERTEX
8
RASTER
10
102.48
20
77.8
30
0
0
VERTEX
8
RASTER
10
102.48
20
77.08
30
0
0
VERTEX
8
RASTER
10
101.76
20
77.08
30
0
0
SEQEND
8
RASTER
0
POLYLINE
8
RASTER
66
1
70
1
0
VERTEX
8
RASTER
10
98.88
20
77.08
30
0
0
VERTEX
8
RASTER
10
99.6
20
77.08
30
0
0
VERTEX
8
RASTER
10
99.6
20
76.36
30
0
0
VERTEX
8
RASTER
10
98.88
20
76.36
30
0
0
SEQEND
8
RASTER
0
POLYLINE
8
RASTER
66
1
70
1
0
VERTEX
8
RASTER
10
100.32
20
77.08
30
0
0
VERTEX
8
RASTER
10
101.04
20
77.08
30
0
0
VERTEX
8
RASTER
10
101.04
20
76.36
30
0
0
VERTEX
8
RASTER
10
100.32
20
76.36
30
0
0
SEQEND
8
RASTER
0
POLYLINE
8
RASTER
66
1
70
1
0
VERTEX
8
RASTER
10
101.76
20
77.08
30
0
0
VERTEX
8
RASTER
10
102.48
20
77.08
30
0
0
VERTEX
8
RASTER
10
102.48
20
76.36
30
0
0
VERTEX
8
RASTER
10
101.76
20
76.36
30
0
0
SEQEND
8
RASTER
0
POLYLINE
8
RASTER
66
1
70
1
0
VERTEX
8
RASTER
10
98.88
20
76.36
30
0
0
VERTEX
8
RASTER
10
99.6
20
76.36
30
0
0
VERTEX
8
RASTER
10
99.6
20
75.64
30
0
0
VERTEX
8
RASTER
10
98.88
20
75.64
30
0
0
SEQEND
8
RASTER
0
POLYLINE
8
RASTER
66
1
70
1
0
VERTEX
8
RASTER
10
101.04
20
76.36
30
0
0
VERTEX
8
RASTER
10
102.48
20
76.36
30
0
0
VERTEX
8
RASTER
10
102.48
20
75.64
30
0
0
VERTEX
8
RASTER
10
101.04
20
75.64
30
0
0
SEQEND
8
RASTER
0
POLYLINE
8
RASTER
66
1
70
1
0
VERTEX
8
RASTER
10
98.88
20
75.64
30
0
0
VERTEX
8
RASTER
10
99.6
20
75.64
30
0
0
VERTEX
8
RASTER
10
99.6
20
74.92
30
0
0
VERTEX
8
RASTER
10
98.88
20
74.92
30
0
0
SEQEND
8
RASTER
0
POLYLINE
8
RASTER
66
1
70
1
0
VERTEX
8
RASTER
10
101.76
20
75.64
30
0
0
VERTEX
8
RASTER
10
102.48
20
75.64
30
0
0
VERTEX
8
RASTER
10
102.48
20
74.92
30
0
0
VERTEX
8
RASTER
10
101.76
20
74.92
30
0
0
SEQEND
8
RASTER
0
POLYLINE
8
RASTER
66
1
70
1
0
VERTEX
8
RASTER
10
98.88
20
74.92
30
0
0
VERTEX
8
RASTER
10
99.6
20
74.92
30
0
0
VERTEX
8
RASTER
10
99.6
20
74.2
30
0
0
VERTEX
8
RASTER
10
98.88
20
74.2
30
0
0
SEQEND
8
RASTER
0
POLYLINE
8
RASTER
66
1
70
1
0
VERTEX
8
RASTER
10
101.76
20
74.92
30
0
0
VERTEX
8
RASTER
10
102.48
20
74.92
30
0
0
VERTEX
8
RASTER
10
102.48
20
74.2
30
0
0
VERTEX
8
RASTER
10
101.76
20
74.2
30
0
0
SEQEND
8
RASTER
0
POLYLINE
8
RASTER
66
1
70
1
0
VERTEX
8
RASTER
10
98.88
20
74.2
30
0
0
VERTEX
8
RASTER
10
99.6
20
74.2
30
0
0
VERTEX
8
RASTER
10
99.6
20
73.48
30
0
0
VERTEX
8
RASTER
10
98.88
20
73.48
30
0
0
SEQEND
8
RASTER
0
POLYLINE
8
RASTER
66
1
70
1
0
VERTEX
8
RASTER
10
101.76
20
74.2
30
0
0
VERTEX
8
RASTER
10
102.48
20
74.2
30
0
0
VERTEX
8
RASTER
10
102.48
20
73.48
30
0
0
VERTEX
8
RASTER
10
101.76
20
73.48
30
0
0
SEQEND
8
RASTER
0
POLYLINE
8
RASTER
66
1
70
1
0
VERTEX
8
RASTER
10
103.92
20
78.52
30
0
0
VERTEX
8
RASTER
10
106.08
20
78.52
30
0
0
VERTEX
8
RASTER
10
106.08
20
77.8
30
0
0
VERTEX
8
RASTER
10
103.92
20
77.8
30
0
0
SEQEND
8
RASTER
0
POLYLINE
8
RASTER
66
1
70
1
0
VERTEX
8
RASTER
10
103.2
20
77.8
30
0
0
VERTEX
8
RASTER
10
103.92
20
77.8
30
0
0
VERTEX
8
RASTER
10
103.92
20
77.08
30
0
0
VERTEX
8
RASTER
10
103.2
20
77.08
30
0
0
SEQEND
8
RASTER
0
POLYLINE
8
RASTER
66
1
70
1
0
VERTEX
8
RASTER
10
106.08
20
77.8
30
0
0
VERTEX
8
RASTER
10
106.8
20
77.8
30
0
0
VERTEX
8
RASTER
10
106.8
20
77.08
30
0
0
VERTEX
8
RASTER
10
106.08
20
77.08
30
0
0
SEQEND
8
RASTER
0
POLYLINE
8
RASTER
66
1
70
1
0
VERTEX
8
RASTER
10
103.2
20
77.08
30
0
0
VERTEX
8
RASTER
10
103.92
20
77.08
30
0
0
VERTEX
8
RASTER
10
103.92
20
76.36
30
0
0
VERTEX
8
RASTER
10
103.2
20
76.36
30
0
0
SEQEND
8
RASTER
0
POLYLINE
8
RASTER
66
1
70
1
0
VERTEX
8
RASTER
10
106.08
20
77.08
30
0
0
VERTEX
8
RASTER
10
106.8
20
77.08
30
0
0
VERTEX
8
RASTER
10
106.8
20
76.36
30
0
0
VERTEX
8
RASTER
10
106.08
20
76.36
30
0
0
SEQEND
8
RASTER
0
POLYLINE
8
RASTER
66
1
70
1
0
VERTEX
8
RASTER
10
103.2
20
76.36
30
0
0
VERTEX
8
RASTER
10
103.92
20
76.36
30
0
0
VERTEX
8
RASTER
10
103.92
20
75.64
30
0
0
VERTEX
8
RASTER
10
103.2
20
75.64
30
0
0
SEQEND
8
RASTER
0
POLYLINE
8
RASTER
66
1
70
1
0
VERTEX
8
RASTER
10
106.08
20
76.36
30
0
0
VERTEX
8
RASTER
10
106.8
20
76.36
30
0
0
VERTEX
8
RASTER
10
106.8
20
75.64
30
0
0
VERTEX
8
RASTER
10
106.08
20
75.64
30
0
0
SEQEND
8
RASTER
0
POLYLINE
8
RASTER
66
1
70
1
0
VERTEX
8
RASTER
10
103.2
20
75.64
30
0
0
VERTEX
8
RASTER
10
103.92
20
75.64
30
0
0
VERTEX
8
RASTER
10
103.92
20
74.92
30
0
0
VERTEX
8
RASTER
10
103.2
20
74.92
30
0
0
SEQEND
8
RASTER
0
POLYLINE
8
RASTER
66
1
70
1
0
VERTEX
8
RASTER
10
106.08
20
75.64
30
0
0
VERTEX
8
RASTER
10
106.8
20
75.64
30
0
0
VERTEX
8
RASTER
10
106.8
20
74.92
30
0
0
VERTEX
8
RASTER
10
106.08
20
74.92
30
0
0
SEQEND
8
RASTER
0
POLYLINE
8
RASTER
66
1
70
1
0
VERTEX
8
RASTER
10
103.2
20
74.92
30
0
0
VERTEX
8
RASTER
10
103.92
20
74.92
30
0
0
VERTEX
8
RASTER
10
103.92
20
74.2
30
0
0
VERTEX
8
RASTER
10
103.2
20
74.2
30
0
0
SEQEND
8
RASTER
0
POLYLINE
8
RASTER
66
1
70
1
0
VERTEX
8
RASTER
10
106.08
20
74.92
30
0
0
VERTEX
8
RASTER
10
106.8
20
74.92
30
0
0
VERTEX
8
RASTER
10
106.8
20
74.2
30
0
0
VERTEX
8
RASTER
10
106.08
20
74.2
30
0
0
SEQEND
8
RASTER
0
POLYLINE
8
RASTER
66
1
70
1
0
VERTEX
8
RASTER
10
103.92
20
74.2
30
0
0
VERTEX
8
RASTER
10
106.08
20
74.2
30
0
0
VERTEX
8
RASTER
10
106.08
20
73.48
30
0
0
VERTEX
8
RASTER
10
103.92
20
73.48
30
0
0
SEQEND
8
RASTER
0
POLYLINE
8
RASTER
66
1
70
1
0
VERTEX
8
RASTER
10
107.52
20
78.52
30
0
0
VERTEX
8
RASTER
10
108.24
20
78.52
30
0
0
VERTEX
8
RASTER
10
108.24
20
77.8
30
0
0
VERTEX
8
RASTER
10
107.52
20
77.8
30
0
0
SEQEND
8
RASTER
0
POLYLINE
8
RASTER
66
1
70
1
0
VERTEX
8
RASTER
10
110.4
20
78.52
30
0
0
VERTEX
8
RASTER
10
111.12
20
78.52
30
0
0
VERTEX
8
RASTER
10
111.12
20
77.8
30
0
0
VERTEX
8
RASTER
10
110.4
20
77.8
30
0
0
SEQEND
8
RASTER
0
POLYLINE
8
RASTER
66
1
70
1
0
VERTEX
8
RASTER
10
107.52
20
77.8
30
0
0
VERTEX
8
RASTER
10
108.24
20
77.8
30
0
0
VERTEX
8
RASTER
10
108.24
20
77.08
30
0
0
VERTEX
8
RASTER
10
107.52
20
77.08
30
0
0
SEQEND
8
RASTER
0
POLYLINE
8
RASTER
66
1
70
1
0
VERTEX
8
RASTER
10
110.4
20
77.8
30
0
0
VERTEX
8
RASTER
10
111.12
20
77.8
30
0
0
VERTEX
8
RASTER
10
111.12
20
77.08
30
0
0
VERTEX
8
RASTER
10
110.4
20
77.08
30
0
0
SEQEND
8
RASTER
0
POLYLINE
8
RASTER
66
1
70
1
0
VERTEX
8
RASTER
10
107.52
20
77.08
30
0
0
VERTEX
8
RASTER
10
108.24
20
77.08
30
0
0
VERTEX
8
RASTER
10
108.24
20
76.36
30
0
0
VERTEX
8
RASTER
10
107.52
20
76.36
30
0
0
SEQEND
8
RASTER
0
POLYLINE
8
RASTER
66
1
70
1
0
VERTEX
8
RASTER
10
110.4
20
77.08
30
0
0
VERTEX
8
RASTER
10
111.12
20
77.08
30
0
0
VERTEX
8
RASTER
10
111.12
20
76.36
30
0
0
VERTEX
8
RASTER
10
110.4
20
76.36
30
0
0
SEQEND
8
RASTER
0
POLYLINE
8
RASTER
66
1
70
1
0
VERTEX
8
RASTER
10
107.52
20
76.36
30
0
0
VERTEX
8
RASTER
10
108.24
20
76.36
30
0
0
VERTEX
8
RASTER
10
108.24
20
75.64
30
0
0
VERTEX
8
RASTER
10
107.52
20
75.64
30
0
0
SEQEND
8
RASTER
0
POLYLINE
8
RASTER
66
1
70
1
0
VERTEX
8
RASTER
10
108.96
20
76.36
30
0
0
VERTEX
8
RASTER
10
109.68
20
76.36
30
0
0
VERTEX
8
RASTER
10
109.68
20
75.64
30
0
0
VERTEX
8
RASTER
10
108.96
20
75.64
30
0
0
SEQEND
8
RASTER
0
POLYLINE
8
RASTER
66
1
70
1
0
VERTEX
8
RASTER
10
110.4
20
76.36
30
0
0
VERTEX
8
RASTER
10
111.12
20
76.36
30
0
0
VERTEX
8
RASTER
10
111.12
20
75.64
30
0
0
VERTEX
8
RASTER
10
110.4
20
75.64
30
0
0
SEQEND
8
RASTER
0
POLYLINE
8
RASTER
66
1
70
1
0
VERTEX
8
RASTER
10
107.52
20
75.64
30
0
0
VERTEX
8
RASTER
10
108.24
20
75.64
30
0
0
VERTEX
8
RASTER
10
108.24
20
74.92
30
0
0
VERTEX
8
RASTER
10
107.52
20
74.92
30
0
0
SEQEND
8
RASTER
0
POLYLINE
8
RASTER
66
1
70
1
0
VERTEX
8
RASTER
10
108.96
20
75.64
30
0
0
VERTEX
8
RASTER
10
109.68
20
75.64
30
0
0
VERTEX
8
RASTER
10
109.68
20
74.92
30
0
0
VERTEX
8
RASTER
10
108.96
20
74.92
30
0
0
SEQEND
8
RASTER
0
POLYLINE
8
RASTER
66
1
70
1
0
VERTEX
8
RASTER
10
110.4
20
75.64
30
0
0
VERTEX
8
RASTER
10
111.12
20
75.64
30
0
0
VERTEX
8
RASTER
10
111.12
20
74.92
30
0
0
VERTEX
8
RASTER
10
110.4
20
74.92
30
0
0
SEQEND
8
RASTER
0
POLYLINE
8
RASTER
66
1
70
1
0
VERTEX
8
RASTER
10
107.52
20
74.92
30
0
0
VERTEX
8
RASTER
10
108.96
20
74.92
30
0
0
VERTEX
8
RASTER
10
108.96
20
74.2
30
0
0
VERTEX
8
RASTER
10
107.52
20
74.2
30
0
0
SEQEND
8
RASTER
0
POLYLINE
8
RASTER
66
1
70
1
0
VERTEX
8
RASTER
10
109.68
20
74.92
30
0
0
VERTEX
8
RASTER
10
111.12
20
74.92
30
0
0
VERTEX
8
RASTER
10
111.12
20
74.2
30
0
0
VERTEX
8
RASTER
10
109.68
20
74.2
30
0
0
SEQEND
8
RASTER
0
POLYLINE
8
RASTER
66
1
70
1
0
VERTEX
8
RASTER
10
107.52
20
74.2
30
0
0
VERTEX
8
RASTER
10
108.24
20
74.2
30
0
0
VERTEX
8
RASTER
10
108.24
20
73.48
30
0
0
VERTEX
8
RASTER
10
107.52
20
73.48
30
0
0
SEQEND
8
RASTER
0
POLYLINE
8
RASTER
66
1
70
1
0
VERTEX
8
RASTER
10
110.4
20
74.2
30
0
0
VERTEX
8
RASTER
10
111.12
20
74.2
30
0
0
VERTEX
8
RASTER
10
111.12
20
73.48
30
0
0
VERTEX
8
RASTER
10
110.4
20
73.48
30
0
0
SEQEND
8
RASTER
0
POLYLINE
8
CUT
66
1
70
1
0
VERTEX
8
CUT
10
134
20
79.2
30
0
0
VERTEX
8
CUT
10
158
20
79.2
30
0
0
VERTEX
8
CUT
10
158
20
84
30
0
0
VERTEX
8
CUT
10
168
20
76
30
0
0
VERTEX
8
CUT
10
158
20
68
30
0
0
VERTEX
8
CUT
10
158
20
72.8
30
0
0
VERTEX
8
CUT
10
134
20
72.8
30
0
0
SEQEND
8
CUT
0
POLYLINE
8
RASTER
66
1
70
1
0
VERTEX
8
RASTER
10
134
20
79.2
30
0
0
VERTEX
8
RASTER
10
158
20
79.2
30
0
0
VERTEX
8
RASTER
10
158
20
84
30
0
0
VERTEX
8
RASTER
10
168
20
76
30
0
0
VERTEX
8
RASTER
10
158
20
68
30
0
0
VERTEX
8
RASTER
10
158
20
72.8
30
0
0
VERTEX
8
RASTER
10
134
20
72.8
30
0
0
SEQEND
8
RASTER
0
POLYLINE
8
RASTER
66
1
70
1
0
VERTEX
8
RASTER
10
135.4
20
77.8
30
0
0
VERTEX
8
RASTER
10
135.4
20
74.2
30
0
0
VERTEX
8
RASTER
10
156.6
20
74.2
30
0
0
VERTEX
8
RASTER
10
156.6
20
71.4
30
0
0
VERTEX
8
RASTER
10
164.6
20
76
30
0
0
VERTEX
8
RASTER
10
156.6
20
80.6
30
0
0
VERTEX
8
RASTER
10
156.6
20
77.8
30
0
0
VERTEX
8
RASTER
10
135.4
20
77.8
30
0
0
SEQEND
8
RASTER
0
CIRCLE
8
CUT
10
144
20
76
30
0
40
1.65
0
CIRCLE
8
CUT
10
176.5
20
79.5
30
0
40
4.5
0
CIRCLE
8
CUT
10
176.5
20
79.5
30
0
40
1.65
0
CIRCLE
8
CUT
10
189.5
20
79.5
30
0
40
4.5
0
CIRCLE
8
CUT
10
189.5
20
79.5
30
0
40
1.65
0
CIRCLE
8
CUT
10
222
20
60
30
0
40
24
0
CIRCLE
8
CUT
10
222
20
60
30
0
40
1.65
0
CIRCLE
8
RASTER
10
222
20
60
30
0
40
23
0
CIRCLE
8
RASTER
10
222
20
60
30
0
40
21.8
0
CIRCLE
8
RASTER
10
222
20
60
30
0
40
4.5
0
CIRCLE
8
RASTER
10
222
20
60
30
0
40
3.6
0
POLYLINE
8
RASTER
66
1
70
1
0
VERTEX
8
RASTER
10
221.6
20
66.72
30
0
0
VERTEX
8
RASTER
10
221.6
20
79.92
30
0
0
VERTEX
8
RASTER
10
222.4
20
79.92
30
0
0
VERTEX
8
RASTER
10
222.4
20
66.72
30
0
0
SEQEND
8
RASTER
0
POLYLINE
8
RASTER
66
1
70
1
0
VERTEX
8
RASTER
10
228.267
20
62.457
30
0
0
VERTEX
8
RASTER
10
240.821
20
66.536
30
0
0
VERTEX
8
RASTER
10
241.069
20
65.775
30
0
0
VERTEX
8
RASTER
10
228.515
20
61.696
30
0
0
SEQEND
8
RASTER
0
POLYLINE
8
RASTER
66
1
70
1
0
VERTEX
8
RASTER
10
226.274
20
54.799
30
0
0
VERTEX
8
RASTER
10
234.032
20
44.119
30
0
0
VERTEX
8
RASTER
10
233.385
20
43.649
30
0
0
VERTEX
8
RASTER
10
225.626
20
54.328
30
0
0
SEQEND
8
RASTER
0
POLYLINE
8
RASTER
66
1
70
1
0
VERTEX
8
RASTER
10
218.374
20
54.328
30
0
0
VERTEX
8
RASTER
10
210.615
20
43.649
30
0
0
VERTEX
8
RASTER
10
209.968
20
44.119
30
0
0
VERTEX
8
RASTER
10
217.726
20
54.799
30
0
0
SEQEND
8
RASTER
0
POLYLINE
8
RASTER
66
1
70
1
0
VERTEX
8
RASTER
10
215.485
20
61.696
30
0
0
VERTEX
8
RASTER
10
202.931
20
65.775
30
0
0
VERTEX
8
RASTER
10
203.179
20
66.536
30
0
0
VERTEX
8
RASTER
10
215.733
20
62.457
30
0
0
SEQEND
8
RASTER
0
POLYLINE
8
RASTER
66
1
70
1
0
VERTEX
8
RASTER
10
204.198
20
67.192
30
0
0
VERTEX
8
RASTER
10
205.111
20
69.132
30
0
0
VERTEX
8
RASTER
10
206.234
20
70.958
30
0
0
VERTEX
8
RASTER
10
207.554
20
72.647
30
0
0
VERTEX
8
RASTER
10
209.053
20
74.178
30
0
0
VERTEX
8
RASTER
10
210.715
20
75.533
30
0
0
VERTEX
8
RASTER
10
212.516
20
76.694
30
0
0
VERTEX
8
RASTER
10
214.436
20
77.647
30
0
0
VERTEX
8
RASTER
10
216.451
20
78.381
30
0
0
VERTEX
8
RASTER
10
218.534
20
78.885
30
0
0
VERTEX
8
RASTER
10
220.661
20
79.153
30
0
0
VERTEX
8
RASTER
10
221.431
20
68.14
30
0
0
VERTEX
8
RASTER
10
220.527
20
68.026
30
0
0
VERTEX
8
RASTER
10
219.642
20
67.812
30
0
0
VERTEX
8
RASTER
10
218.785
20
67.5
30
0
0
VERTEX
8
RASTER
10
217.969
20
67.095
30
0
0
VERTEX
8
RASTER
10
217.204
20
66.602
30
0
0
VERTEX
8
RASTER
10
216.498
20
66.026
30
0
0
VERTEX
8
RASTER
10
215.86
20
65.375
30
0
0
VERTEX
8
RASTER
10
215.299
20
64.657
30
0
0
VERTEX
8
RASTER
10
214.822
20
63.881
30
0
0
VERTEX
8
RASTER
10
214.434
20
63.057
30
0
0
SEQEND
8
RASTER
0
POLYLINE
8
RASTER
66
1
70
1
0
VERTEX
8
RASTER
10
211.943
20
70.203
30
0
0
VERTEX
8
RASTER
10
215.975
20
70.203
30
0
0
VERTEX
8
RASTER
10
216.3
20
70.271
30
0
0
VERTEX
8
RASTER
10
216.52
20
70.451
30
0
0
VERTEX
8
RASTER
10
216.638
20
70.705
30
0
0
VERTEX
8
RASTER
10
216.659
20
70.995
30
0
0
VERTEX
8
RASTER
10
216.585
20
71.286
30
0
0
VERTEX
8
RASTER
10
216.421
20
71.54
30
0
0
VERTEX
8
RASTER
10
216.168
20
71.719
30
0
0
VERTEX
8
RASTER
10
215.831
20
71.787
30
0
0
VERTEX
8
RASTER
10
215.804
20
72.13
30
0
0
VERTEX
8
RASTER
10
215.638
20
72.399
30
0
0
VERTEX
8
RASTER
10
215.37
20
72.587
30
0
0
VERTEX
8
RASTER
10
215.039
20
72.687
30
0
0
VERTEX
8
RASTER
10
214.681
20
72.693
30
0
0
VERTEX
8
RASTER
10
214.333
20
72.597
30
0
0
VERTEX
8
RASTER
10
214.032
20
72.394
30
0
0
VERTEX
8
RASTER
10
213.815
20
72.075
30
0
0
VERTEX
8
RASTER
10
213.563
20
72.293
30
0
0
VERTEX
8
RASTER
10
213.259
20
72.411
30
0
0
VERTEX
8
RASTER
10
212.932
20
72.437
30
0
0
VERTEX
8
RASTER
10
212.609
20
72.381
30
0
0
VERTEX
8
RASTER
10
212.32
20
72.251
30
0
0
VERTEX
8
RASTER
10
212.094
20
72.055
30
0
0
VERTEX
8
RASTER
10
211.959
20
71.802
30
0
0
VERTEX
8
RASTER
10
211.943
20
71.499
30
0
0
VERTEX
8
RASTER
10
211.612
20
71.402
30
0
0
VERTEX
8
RASTER
10
211.376
20
71.236
30
0
0
VERTEX
8
RASTER
10
211.234
20
71.026
30
0
0
VERTEX
8
RASTER
10
211.187
20
70.797
30
0
0
VERTEX
8
RASTER
10
211.234
20
70.575
30
0
0
VERTEX
8
RASTER
10
211.376
20
70.386
30
0
0
VERTEX
8
RASTER
10
211.612
20
70.253
30
0
0
VERTEX
8
RASTER
10
211.943
20
70.203
30
0
0
SEQEND
8
RASTER
0
POLYLINE
8
CUT
66
1
70
1
0
VERTEX
8
CUT
10
250
20
81
30
0
0
VERTEX
8
CUT
10
268
20
81
30
0
0
VERTEX
8
CUT
10
268
20
84
30
0
0
VERTEX
8
CUT
10
275
20
79
30
0
0
VERTEX
8
CUT
10
268
20
74
30
0
0
VERTEX
8
CUT
10
268
20
77
30
0
0
VERTEX
8
CUT
10
250
20
77
30
0
0
VERTEX
8
CUT
10
253
20
79
30
0
0
SEQEND
8
CUT
0
CIRCLE
8
CUT
10
257
20
79
30
0
40
1.65
0
ENDSEC
0
EOF
