  0
SECTION
  2
HEADER
  9
$ACADVER
  1
AC1015
  9
$ACADMAINTVER
 70
6
  9
$DWGCODEPAGE
  3
ANSI_1252
  9
$INSBASE
 10
0.0
 20
0.0
 30
0.0
  9
$EXTMIN
 10
1e+20
 20
1e+20
 30
1e+20
  9
$EXTMAX
 10
-1e+20
 20
-1e+20
 30
-1e+20
  9
$LIMMIN
 10
0.0
 20
0.0
  9
$LIMMAX
 10
420.0
 20
297.0
  9
$ORTHOMODE
 70
0
  9
$REGENMODE
 70
1
  9
$FILLMODE
 70
1
  9
$QTEXTMODE
 70
0
  9
$MIRRTEXT
 70
1
  9
$LTSCALE
 40
1.0
  9
$ATTMODE
 70
1
  9
$TEXTSIZE
 40
2.5
  9
$TRACEWID
 40
1.0
  9
$TEXTSTYLE
  7
Standard
  9
$CLAYER
  8
0
  9
$CELTYPE
  6
ByLayer
  9
$CECOLOR
 62
256
  9
$CELTSCALE
 40
1.0
  9
$DISPSILH
 70
0
  9
$DIMSCALE
 40
1.0
  9
$DIMASZ
 40
2.5
  9
$DIMEXO
 40
0.625
  9
$DIMDLI
 40
3.75
  9
$DIMRND
 40
0.0
  9
$DIMDLE
 40
0.0
  9
$DIMEXE
 40
1.25
  9
$DIMTP
 40
0.0
  9
$DIMTM
 40
0.0
  9
$DIMTXT
 40
2.5
  9
$DIMCEN
 40
2.5
  9
$DIMTSZ
 40
0.0
  9
$DIMTOL
 70
0
  9
$DIMLIM
 70
0
  9
$DIMTIH
 70
0
  9
$DIMTOH
 70
0
  9
$DIMSE1
 70
0
  9
$DIMSE2
 70
0
  9
$DIMTAD
 70
1
  9
$DIMZIN
 70
8
  9
$DIMBLK
  1

  9
$DIMASO
 70
1
  9
$DIMSHO
 70
1
  9
$DIMPOST
  1

  9
$DIMAPOST
  1

  9
$DIMALT
 70
0
  9
$DIMALTD
 70
3
  9
$DIMALTF
 40
0.03937007874
  9
$DIMLFAC
 40
1.0
  9
$DIMTOFL
 70
1
  9
$DIMTVP
 40
0.0
  9
$DIMTIX
 70
0
  9
$DIMSOXD
 70
0
  9
$DIMSAH
 70
0
  9
$DIMBLK1
  1

  9
$DIMBLK2
  1

  9
$DIMSTYLE
  2
ISO-25
  9
$DIMCLRD
 70
0
  9
$DIMCLRE
 70
0
  9
$DIMCLRT
 70
0
  9
$DIMTFAC
 40
1.0
  9
$DIMGAP
 40
0.625
  9
$DIMJUST
 70
0
  9
$DIMSD1
 70
0
  9
$DIMSD2
 70
0
  9
$DIMTOLJ
 70
0
  9
$DIMTZIN
 70
8
  9
$DIMALTZ
 70
0
  9
$DIMALTTZ
 70
0
  9
$DIMUPT
 70
0
  9
$DIMDEC
 70
2
  9
$DIMTDEC
 70
2
  9
$DIMALTU
 70
2
  9
$DIMALTTD
 70
3
  9
$DIMTXSTY
  7
Standard
  9
$DIMAUNIT
 70
0
  9
$DIMADEC
 70
0
  9
$DIMALTRND
 40
0.0
  9
$DIMAZIN
 70
0
  9
$DIMDSEP
 70
44
  9
$DIMATFIT
 70
3
  9
$DIMFRAC
 70
0
  9
$DIMLDRBLK
  1

  9
$DIMLUNIT
 70
2
  9
$DIMLWD
 70
-2
  9
$DIMLWE
 70
-2
  9
$DIMTMOVE
 70
0
  9
$LUNITS
 70
2
  9
$LUPREC
 70
4
  9
$SKETCHINC
 40
1.0
  9
$FILLETRAD
 40
10.0
  9
$AUNITS
 70
0
  9
$AUPREC
 70
2
  9
$MENU
  1
.
  9
$ELEVATION
 40
0.0
  9
$PELEVATION
 40
0.0
  9
$THICKNESS
 40
0.0
  9
$LIMCHECK
 70
0
  9
$CHAMFERA
 40
0.0
  9
$CHAMFERB
 40
0.0
  9
$CHAMFERC
 40
0.0
  9
$CHAMFERD
 40
0.0
  9
$SKPOLY
 70
0
  9
$TDCREATE
 40
2461278.577546296
  9
$TDUCREATE
 40
2458532.153996898
  9
$TDUPDATE
 40
2461278.577546296
  9
$TDUUPDATE
 40
2458532.1544311
  9
$TDINDWG
 40
0.0
  9
$TDUSRTIMER
 40
0.0
  9
$USRTIMER
 70
1
  9
$ANGBASE
 50
0.0
  9
$ANGDIR
 70
0
  9
$PDMODE
 70
0
  9
$PDSIZE
 40
0.0
  9
$PLINEWID
 40
0.0
  9
$SPLFRAME
 70
0
  9
$SPLINETYPE
 70
6
  9
$SPLINESEGS
 70
8
  9
$HANDSEED
  5
91
  9
$SURFTAB1
 70
6
  9
$SURFTAB2
 70
6
  9
$SURFTYPE
 70
6
  9
$SURFU
 70
6
  9
$SURFV
 70
6
  9
$UCSBASE
  2

  9
$UCSNAME
  2

  9
$UCSORG
 10
0.0
 20
0.0
 30
0.0
  9
$UCSXDIR
 10
1.0
 20
0.0
 30
0.0
  9
$UCSYDIR
 10
0.0
 20
1.0
 30
0.0
  9
$UCSORTHOREF
  2

  9
$UCSORTHOVIEW
 70
0
  9
$UCSORGTOP
 10
0.0
 20
0.0
 30
0.0
  9
$UCSORGBOTTOM
 10
0.0
 20
0.0
 30
0.0
  9
$UCSORGLEFT
 10
0.0
 20
0.0
 30
0.0
  9
$UCSORGRIGHT
 10
0.0
 20
0.0
 30
0.0
  9
$UCSORGFRONT
 10
0.0
 20
0.0
 30
0.0
  9
$UCSORGBACK
 10
0.0
 20
0.0
 30
0.0
  9
$PUCSBASE
  2

  9
$PUCSNAME
  2

  9
$PUCSORG
 10
0.0
 20
0.0
 30
0.0
  9
$PUCSXDIR
 10
1.0
 20
0.0
 30
0.0
  9
$PUCSYDIR
 10
0.0
 20
1.0
 30
0.0
  9
$PUCSORTHOREF
  2

  9
$PUCSORTHOVIEW
 70
0
  9
$PUCSORGTOP
 10
0.0
 20
0.0
 30
0.0
  9
$PUCSORGBOTTOM
 10
0.0
 20
0.0
 30
0.0
  9
$PUCSORGLEFT
 10
0.0
 20
0.0
 30
0.0
  9
$PUCSORGRIGHT
 10
0.0
 20
0.0
 30
0.0
  9
$PUCSORGFRONT
 10
0.0
 20
0.0
 30
0.0
  9
$PUCSORGBACK
 10
0.0
 20
0.0
 30
0.0
  9
$USERI1
 70
0
  9
$USERI2
 70
0
  9
$USERI3
 70
0
  9
$USERI4
 70
0
  9
$USERI5
 70
0
  9
$USERR1
 40
0.0
  9
$USERR2
 40
0.0
  9
$USERR3
 40
0.0
  9
$USERR4
 40
0.0
  9
$USERR5
 40
0.0
  9
$WORLDVIEW
 70
1
  9
$SHADEDGE
 70
3
  9
$SHADEDIF
 70
70
  9
$TILEMODE
 70
1
  9
$MAXACTVP
 70
64
  9
$PINSBASE
 10
0.0
 20
0.0
 30
0.0
  9
$PLIMCHECK
 70
0
  9
$PEXTMIN
 10
1e+20
 20
1e+20
 30
1e+20
  9
$PEXTMAX
 10
-1e+20
 20
-1e+20
 30
-1e+20
  9
$PLIMMIN
 10
0.0
 20
0.0
  9
$PLIMMAX
 10
420.0
 20
297.0
  9
$UNITMODE
 70
0
  9
$VISRETAIN
 70
1
  9
$PLINEGEN
 70
0
  9
$PSLTSCALE
 70
1
  9
$TREEDEPTH
 70
3020
  9
$CMLSTYLE
  2
Standard
  9
$CMLJUST
 70
0
  9
$CMLSCALE
 40
20.0
  9
$PROXYGRAPHICS
 70
1
  9
$MEASUREMENT
 70
1
  9
$CELWEIGHT
370
-1
  9
$ENDCAPS
280
0
  9
$JOINSTYLE
280
0
  9
$LWDISPLAY
290
0
  9
$INSUNITS
 70
4
  9
$HYPERLINKBASE
  1

  9
$STYLESHEET
  1

  9
$XEDIT
290
1
  9
$CEPSNTYPE
380
0
  9
$PSTYLEMODE
290
1
  9
$FINGERPRINTGUID
  2
{B47ED1B3-6ACD-4446-BDFA-82B3EF4C2E09}
  9
$VERSIONGUID
  2
{7FED790E-352E-4363-9172-748292689962}
  9
$EXTNAMES
290
1
  9
$PSVPSCALE
 40
0.0
  9
$OLESTARTUP
290
0
  0
ENDSEC
  0
SECTION
  2
CLASSES
  0
CLASS
  1
ACDBDICTIONARYWDFLT
  2
AcDbDictionaryWithDefault
  3
ObjectDBX Classes
 90
0
280
0
281
0
  0
CLASS
  1
SUN
  2
AcDbSun
  3
SCENEOE
 90
1153
280
0
281
0
  0
CLASS
  1
VISUALSTYLE
  2
AcDbVisualStyle
  3
ObjectDBX Classes
 90
4095
280
0
281
0
  0
CLASS
  1
MATERIAL
  2
AcDbMaterial
  3
ObjectDBX Classes
 90
1153
280
0
281
0
  0
CLASS
  1
SCALE
  2
AcDbScale
  3
ObjectDBX Classes
 90
1153
280
0
281
0
  0
CLASS
  1
TABLESTYLE
  2
AcDbTableStyle
  3
ObjectDBX Classes
 90
4095
280
0
281
0
  0
CLASS
  1
MLEADERSTYLE
  2
AcDbMLeaderStyle
  3
ACDB_MLEADERSTYLE_CLASS
 90
4095
280
0
281
0
  0
CLASS
  1
DICTIONARYVAR
  2
AcDbDictionaryVar
  3
ObjectDBX Classes
 90
0
280
0
281
0
  0
CLASS
  1
CELLSTYLEMAP
  2
AcDbCellStyleMap
  3
ObjectDBX Classes
 90
1152
280
0
281
0
  0
CLASS
  1
MENTALRAYRENDERSETTINGS
  2
AcDbMentalRayRenderSettings
  3
SCENEOE
 90
1024
280
0
281
0
  0
CLASS
  1
ACDBDETAILVIEWSTYLE
  2
AcDbDetailViewStyle
  3
ObjectDBX Classes
 90
1025
280
0
281
0
  0
CLASS
  1
ACDBSECTIONVIEWSTYLE
  2
AcDbSectionViewStyle
  3
ObjectDBX Classes
 90
1025
280
0
281
0
  0
CLASS
  1
RASTERVARIABLES
  2
AcDbRasterVariables
  3
ISM
 90
0
280
0
281
0
  0
CLASS
  1
ACDBPLACEHOLDER
  2
AcDbPlaceHolder
  3
ObjectDBX Classes
 90
0
280
0
281
0
  0
CLASS
  1
LAYOUT
  2
AcDbLayout
  3
ObjectDBX Classes
 90
0
280
0
281
0
  0
ENDSEC
  0
SECTION
  2
TABLES
  0
TABLE
  2
VPORT
  5
8
330
0
100
AcDbSymbolTable
 70
1
  0
VPORT
  5
23
330
8
100
AcDbSymbolTableRecord
100
AcDbViewportTableRecord
  2
*Active
 70
0
 10
0.0
 20
0.0
 11
1.0
 21
1.0
 12
0.0
 22
0.0
 13
0.0
 23
0.0
 14
0.5
 24
0.5
 15
0.5
 25
0.5
 16
0.0
 26
0.0
 36
1.0
 17
0.0
 27
0.0
 37
0.0
 40
1000.0
 41
1.34
 42
50.0
 43
0.0
 44
0.0
 50
0.0
 51
0.0
 71
0
 72
1000
 73
1
 74
3
 75
0
 76
0
 77
0
 78
0
281
0
 65
0
146
0.0
  0
ENDTAB
  0
TABLE
  2
LTYPE
  5
2
330
0
100
AcDbSymbolTable
 70
3
  0
LTYPE
  5
24
330
2
100
AcDbSymbolTableRecord
100
AcDbLinetypeTableRecord
  2
ByBlock
 70
0
  3

 72
65
 73
0
 40
0.0
  0
LTYPE
  5
25
330
2
100
AcDbSymbolTableRecord
100
AcDbLinetypeTableRecord
  2
ByLayer
 70
0
  3

 72
65
 73
0
 40
0.0
  0
LTYPE
  5
26
330
2
100
AcDbSymbolTableRecord
100
AcDbLinetypeTableRecord
  2
Continuous
 70
0
  3

 72
65
 73
0
 40
0.0
  0
ENDTAB
  0
TABLE
  2
LAYER
  5
1
330
0
100
AcDbSymbolTable
 70
4
  0
LAYER
  5
27
330
1
100
AcDbSymbolTableRecord
100
AcDbLayerTableRecord
  2
0
 70
0
 62
7
  6
Continuous
370
-3
390
13
  0
LAYER
  5
28
330
1
100
AcDbSymbolTableRecord
100
AcDbLayerTableRecord
  2
Defpoints
 70
0
 62
7
  6
Continuous
290
0
370
-3
390
13
  0
LAYER
  5
2F
330
1
100
AcDbSymbolTableRecord
100
AcDbLayerTableRecord
  2
CUT
 70
0
 62
1
  6
Continuous
370
-3
390
13
  0
LAYER
  5
30
330
1
100
AcDbSymbolTableRecord
100
AcDbLayerTableRecord
  2
RASTER
 70
0
 62
7
  6
Continuous
370
-3
390
13
  0
ENDTAB
  0
TABLE
  2
STYLE
  5
5
330
0
100
AcDbSymbolTable
 70
1
  0
STYLE
  5
29
330
5
100
AcDbSymbolTableRecord
100
AcDbTextStyleTableRecord
  2
Standard
 70
0
 40
0.0
 41
1.0
 50
0.0
 71
0
 42
2.5
  3
txt
  4

  0
ENDTAB
  0
TABLE
  2
VIEW
  5
7
330
0
100
AcDbSymbolTable
 70
0
  0
ENDTAB
  0
TABLE
  2
UCS
  5
6
330
0
100
AcDbSymbolTable
 70
0
  0
ENDTAB
  0
TABLE
  2
APPID
  5
3
330
0
100
AcDbSymbolTable
 70
3
  0
APPID
  5
2A
330
3
100
AcDbSymbolTableRecord
100
AcDbRegAppTableRecord
  2
ACAD
 70
0
  0
APPID
  5
8E
330
3
100
AcDbSymbolTableRecord
100
AcDbRegAppTableRecord
  2
HATCHBACKGROUNDCOLOR
 70
0
  0
APPID
  5
8F
330
3
100
AcDbSymbolTableRecord
100
AcDbRegAppTableRecord
  2
EZDXF
 70
0
  0
ENDTAB
  0
TABLE
  2
DIMSTYLE
  5
4
330
0
100
AcDbSymbolTable
 70
1
100
AcDbDimStyleTable
  0
DIMSTYLE
105
2B
330
4
100
AcDbSymbolTableRecord
100
AcDbDimStyleTableRecord
  2
Standard
 70
0
  3

  4

 40
1.0
 41
2.5
 42
0.625
 43
3.75
 44
1.25
 45
0.0
 46
0.0
 47
0.0
 48
0.0
140
2.5
141
2.5
142
0.0
143
0.03937007874
144
1.0
145
0.0
146
1.0
147
0.625
148
0.0
 71
0
 72
0
 73
0
 74
0
 75
0
 76
0
 77
1
 78
8
 79
3
170
0
171
3
172
1
173
0
174
0
175
0
176
0
177
0
178
0
179
2
271
2
272
2
273
2
274
3
275
0
276
0
277
2
278
44
279
0
280
0
281
0
282
0
283
0
284
8
285
0
286
0
288
0
289
3
371
-2
372
-2
  0
ENDTAB
  0
TABLE
  2
BLOCK_RECORD
  5
9
330
0
100
AcDbSymbolTable
 70
2
  0
BLOCK_RECORD
  5
17
330
9
100
AcDbSymbolTableRecord
100
AcDbBlockTableRecord
  2
*Model_Space
340
1A
  0
BLOCK_RECORD
  5
1B
330
9
100
AcDbSymbolTableRecord
100
AcDbBlockTableRecord
  2
*Paper_Space
340
1E
  0
ENDTAB
  0
ENDSEC
  0
SECTION
  2
BLOCKS
  0
BLOCK
  5
18
330
17
100
AcDbEntity
  8
0
100
AcDbBlockBegin
  2
*Model_Space
 70
0
 10
0.0
 20
0.0
 30
0.0
  3
*Model_Space
  1

  0
ENDBLK
  5
19
330
17
100
AcDbEntity
  8
0
100
AcDbBlockEnd
  0
BLOCK
  5
1C
330
1B
100
AcDbEntity
  8
0
100
AcDbBlockBegin
  2
*Paper_Space
 70
0
 10
0.0
 20
0.0
 30
0.0
  3
*Paper_Space
  1

  0
ENDBLK
  5
1D
330
1B
100
AcDbEntity
  8
0
100
AcDbBlockEnd
  0
ENDSEC
  0
SECTION
  2
ENTITIES
  0
CIRCLE
  5
31
330
17
100
AcDbEntity
  8
CUT
100
AcDbCircle
 10
52.0
 20
88.0
 30
0.0
 40
48.04
  0
CIRCLE
  5
32
330
17
100
AcDbEntity
  8
CUT
100
AcDbCircle
 10
52.0
 20
88.0
 30
0.0
 40
1.61
  0
HATCH
  5
33
330
17
100
AcDbEntity
  8
RASTER
 62
7
100
AcDbHatch
 10
0.0
 20
0.0
 30
0.0
210
0.0
220
0.0
230
1.0
  2
SOLID
 70
1
 71
0
 91
2
 92
3
 72
0
 73
1
 93
48
 10
87.2
 20
88.0
 10
86.899
 20
83.405
 10
86.001
 20
78.89
 10
84.521
 20
74.53
 10
82.484
 20
70.4
 10
79.926
 20
66.572
 10
76.89
 20
63.11
 10
73.428
 20
60.074
 10
69.6
 20
57.516
 10
65.47
 20
55.479
 10
61.11
 20
53.999
 10
56.595
 20
53.101
 10
52.0
 20
52.8
 10
47.405
 20
53.101
 10
42.89
 20
53.999
 10
38.53
 20
55.479
 10
34.4
 20
57.516
 10
30.572
 20
60.074
 10
27.11
 20
63.11
 10
24.074
 20
66.572
 10
21.516
 20
70.4
 10
19.479
 20
74.53
 10
17.999
 20
78.89
 10
17.101
 20
83.405
 10
16.8
 20
88.0
 10
17.101
 20
92.595
 10
17.999
 20
97.11
 10
19.479
 20
101.47
 10
21.516
 20
105.6
 10
24.074
 20
109.428
 10
27.11
 20
112.89
 10
30.572
 20
115.926
 10
34.4
 20
118.484
 10
38.53
 20
120.521
 10
42.89
 20
122.001
 10
47.405
 20
122.899
 10
52.0
 20
123.2
 10
56.595
 20
122.899
 10
61.11
 20
122.001
 10
65.47
 20
120.521
 10
69.6
 20
118.484
 10
73.428
 20
115.926
 10
76.89
 20
112.89
 10
79.926
 20
109.428
 10
82.484
 20
105.6
 10
84.521
 20
101.47
 10
86.001
 20
97.11
 10
86.899
 20
92.595
 97
0
 92
3
 72
0
 73
1
 93
48
 10
86.7
 20
88.0
 10
86.403
 20
83.471
 10
85.518
 20
79.019
 10
84.059
 20
74.721
 10
82.051
 20
70.65
 10
79.529
 20
66.876
 10
76.537
 20
63.463
 10
73.124
 20
60.471
 10
69.35
 20
57.949
 10
65.279
 20
55.941
 10
60.981
 20
54.482
 10
56.529
 20
53.597
 10
52.0
 20
53.3
 10
47.471
 20
53.597
 10
43.019
 20
54.482
 10
38.721
 20
55.941
 10
34.65
 20
57.949
 10
30.876
 20
60.471
 10
27.463
 20
63.463
 10
24.471
 20
66.876
 10
21.949
 20
70.65
 10
19.941
 20
74.721
 10
18.482
 20
79.019
 10
17.597
 20
83.471
 10
17.3
 20
88.0
 10
17.597
 20
92.529
 10
18.482
 20
96.981
 10
19.941
 20
101.279
 10
21.949
 20
105.35
 10
24.471
 20
109.124
 10
27.463
 20
112.537
 10
30.876
 20
115.529
 10
34.65
 20
118.051
 10
38.721
 20
120.059
 10
43.019
 20
121.518
 10
47.471
 20
122.403
 10
52.0
 20
122.7
 10
56.529
 20
122.403
 10
60.981
 20
121.518
 10
65.279
 20
120.059
 10
69.35
 20
118.051
 10
73.124
 20
115.529
 10
76.537
 20
112.537
 10
79.529
 20
109.124
 10
82.051
 20
105.35
 10
84.059
 20
101.279
 10
85.518
 20
96.981
 10
86.403
 20
92.529
 97
0
 75
0
 76
1
 98
0
  0
CIRCLE
  5
34
330
17
100
AcDbEntity
  8
CUT
100
AcDbCircle
 10
140.8
 20
99.2
 30
0.0
 40
35.04
  0
CIRCLE
  5
35
330
17
100
AcDbEntity
  8
CUT
100
AcDbCircle
 10
140.8
 20
99.2
 30
0.0
 40
1.61
  0
HATCH
  5
36
330
17
100
AcDbEntity
  8
RASTER
 62
7
100
AcDbHatch
 10
0.0
 20
0.0
 30
0.0
210
0.0
220
0.0
230
1.0
  2
SOLID
 70
1
 71
0
 91
2
 92
3
 72
0
 73
1
 93
48
 10
145.0
 20
99.2
 10
144.964
 20
98.652
 10
144.857
 20
98.113
 10
144.68
 20
97.593
 10
144.437
 20
97.1
 10
144.132
 20
96.643
 10
143.77
 20
96.23
 10
143.357
 20
95.868
 10
142.9
 20
95.563
 10
142.407
 20
95.32
 10
141.887
 20
95.143
 10
141.348
 20
95.036
 10
140.8
 20
95.0
 10
140.252
 20
95.036
 10
139.713
 20
95.143
 10
139.193
 20
95.32
 10
138.7
 20
95.563
 10
138.243
 20
95.868
 10
137.83
 20
96.23
 10
137.468
 20
96.643
 10
137.163
 20
97.1
 10
136.92
 20
97.593
 10
136.743
 20
98.113
 10
136.636
 20
98.652
 10
136.6
 20
99.2
 10
136.636
 20
99.748
 10
136.743
 20
100.287
 10
136.92
 20
100.807
 10
137.163
 20
101.3
 10
137.468
 20
101.757
 10
137.83
 20
102.17
 10
138.243
 20
102.532
 10
138.7
 20
102.837
 10
139.193
 20
103.08
 10
139.713
 20
103.257
 10
140.252
 20
103.364
 10
140.8
 20
103.4
 10
141.348
 20
103.364
 10
141.887
 20
103.257
 10
142.407
 20
103.08
 10
142.9
 20
102.837
 10
143.357
 20
102.532
 10
143.77
 20
102.17
 10
144.132
 20
101.757
 10
144.437
 20
101.3
 10
144.68
 20
100.807
 10
144.857
 20
100.287
 10
144.964
 20
99.748
 97
0
 92
3
 72
0
 73
1
 93
48
 10
144.2
 20
99.2
 10
144.171
 20
98.756
 10
144.084
 20
98.32
 10
143.941
 20
97.899
 10
143.744
 20
97.5
 10
143.497
 20
97.13
 10
143.204
 20
96.796
 10
142.87
 20
96.503
 10
142.5
 20
96.256
 10
142.101
 20
96.059
 10
141.68
 20
95.916
 10
141.244
 20
95.829
 10
140.8
 20
95.8
 10
140.356
 20
95.829
 10
139.92
 20
95.916
 10
139.499
 20
96.059
 10
139.1
 20
96.256
 10
138.73
 20
96.503
 10
138.396
 20
96.796
 10
138.103
 20
97.13
 10
137.856
 20
97.5
 10
137.659
 20
97.899
 10
137.516
 20
98.32
 10
137.429
 20
98.756
 10
137.4
 20
99.2
 10
137.429
 20
99.644
 10
137.516
 20
100.08
 10
137.659
 20
100.501
 10
137.856
 20
100.9
 10
138.103
 20
101.27
 10
138.396
 20
101.604
 10
138.73
 20
101.897
 10
139.1
 20
102.144
 10
139.499
 20
102.341
 10
139.92
 20
102.484
 10
140.356
 20
102.571
 10
140.8
 20
102.6
 10
141.244
 20
102.571
 10
141.68
 20
102.484
 10
142.101
 20
102.341
 10
142.5
 20
102.144
 10
142.87
 20
101.897
 10
143.204
 20
101.604
 10
143.497
 20
101.27
 10
143.744
 20
100.9
 10
143.941
 20
100.501
 10
144.084
 20
100.08
 10
144.171
 20
99.644
 97
0
 75
0
 76
1
 98
0
  0
HATCH
  5
37
330
17
100
AcDbEntity
  8
RASTER
 62
7
100
AcDbHatch
 10
0.0
 20
0.0
 30
0.0
210
0.0
220
0.0
230
1.0
  2
SOLID
 70
1
 71
0
 91
1
 92
3
 72
0
 73
1
 93
50
 10
147.064
 20
132.618
 10
148.727
 20
132.263
 10
150.37
 20
131.825
 10
151.989
 20
131.306
 10
153.58
 20
130.707
 10
155.139
 20
130.029
 10
156.662
 20
129.273
 10
158.145
 20
128.443
 10
159.585
 20
127.539
 10
160.978
 20
126.565
 10
162.321
 20
125.522
 10
163.61
 20
124.413
 10
164.842
 20
123.242
 10
166.013
 20
122.01
 10
167.122
 20
120.721
 10
168.165
 20
119.378
 10
169.139
 20
117.985
 10
170.043
 20
116.545
 10
170.873
 20
115.062
 10
171.629
 20
113.539
 10
172.307
 20
111.98
 10
172.906
 20
110.389
 10
173.425
 20
108.77
 10
173.863
 20
107.127
 10
174.218
 20
105.464
 10
173.53
 20
105.336
 10
173.182
 20
106.964
 10
172.754
 20
108.573
 10
172.245
 20
110.158
 10
171.658
 20
111.717
 10
170.994
 20
113.243
 10
170.254
 20
114.735
 10
169.441
 20
116.188
 10
168.556
 20
117.598
 10
167.601
 20
118.963
 10
166.58
 20
120.278
 10
165.494
 20
121.54
 10
164.347
 20
122.747
 10
163.14
 20
123.894
 10
161.878
 20
124.98
 10
160.563
 20
126.001
 10
159.198
 20
126.956
 10
157.788
 20
127.841
 10
156.335
 20
128.654
 10
154.843
 20
129.394
 10
153.317
 20
130.058
 10
151.758
 20
130.645
 10
150.173
 20
131.154
 10
148.564
 20
131.582
 10
146.936
 20
131.93
 97
0
 75
0
 76
1
 98
0
  0
HATCH
  5
38
330
17
100
AcDbEntity
  8
RASTER
 62
7
100
AcDbHatch
 10
0.0
 20
0.0
 30
0.0
210
0.0
220
0.0
230
1.0
  2
SOLID
 70
1
 71
0
 91
1
 92
3
 72
0
 73
1
 93
50
 10
147.064
 20
127.925
 10
148.422
 20
127.595
 10
149.764
 20
127.2
 10
151.085
 20
126.742
 10
152.382
 20
126.222
 10
153.654
 20
125.641
 10
154.896
 20
125.0
 10
156.107
 20
124.301
 10
157.283
 20
123.545
 10
158.422
 20
122.734
 10
159.521
 20
121.869
 10
160.577
 20
120.954
 10
161.589
 20
119.989
 10
162.554
 20
118.977
 10
163.469
 20
117.921
 10
164.334
 20
116.822
 10
165.145
 20
115.683
 10
165.901
 20
114.507
 10
166.6
 20
113.296
 10
167.241
 20
112.054
 10
167.822
 20
110.782
 10
168.342
 20
109.485
 10
168.8
 20
108.164
 10
169.195
 20
106.822
 10
169.525
 20
105.464
 10
168.939
 20
105.336
 10
168.615
 20
106.667
 10
168.229
 20
107.981
 10
167.78
 20
109.275
 10
167.271
 20
110.546
 10
166.702
 20
111.792
 10
166.074
 20
113.009
 10
165.389
 20
114.195
 10
164.648
 20
115.347
 10
163.853
 20
116.462
 10
163.007
 20
117.539
 10
162.11
 20
118.574
 10
161.165
 20
119.565
 10
160.174
 20
120.51
 10
159.139
 20
121.407
 10
158.062
 20
122.253
 10
156.947
 20
123.048
 10
155.795
 20
123.789
 10
154.609
 20
124.474
 10
153.392
 20
125.102
 10
152.146
 20
125.671
 10
150.875
 20
126.18
 10
149.581
 20
126.629
 10
148.267
 20
127.015
 10
146.936
 20
127.339
 97
0
 75
0
 76
1
 98
0
  0
HATCH
  5
39
330
17
100
AcDbEntity
  8
RASTER
 62
7
100
AcDbHatch
 10
0.0
 20
0.0
 30
0.0
210
0.0
220
0.0
230
1.0
  2
SOLID
 70
1
 71
0
 91
1
 92
3
 72
0
 73
1
 93
50
 10
174.218
 20
92.936
 10
173.863
 20
91.273
 10
173.425
 20
89.63
 10
172.906
 20
88.011
 10
172.307
 20
86.42
 10
171.629
 20
84.861
 10
170.873
 20
83.338
 10
170.043
 20
81.855
 10
169.139
 20
80.415
 10
168.165
 20
79.022
 10
167.122
 20
77.679
 10
166.013
 20
76.39
 10
164.842
 20
75.158
 10
163.61
 20
73.987
 10
162.321
 20
72.878
 10
160.978
 20
71.835
 10
159.585
 20
70.861
 10
158.145
 20
69.957
 10
156.662
 20
69.127
 10
155.139
 20
68.371
 10
153.58
 20
67.693
 10
151.989
 20
67.094
 10
150.37
 20
66.575
 10
148.727
 20
66.137
 10
147.064
 20
65.782
 10
146.936
 20
66.47
 10
148.564
 20
66.818
 10
150.173
 20
67.246
 10
151.758
 20
67.755
 10
153.317
 20
68.342
 10
154.843
 20
69.006
 10
156.335
 20
69.746
 10
157.788
 20
70.559
 10
159.198
 20
71.444
 10
160.563
 20
72.399
 10
161.878
 20
73.42
 10
163.14
 20
74.506
 10
164.347
 20
75.653
 10
165.494
 20
76.86
 10
166.58
 20
78.122
 10
167.601
 20
79.437
 10
168.556
 20
80.802
 10
169.441
 20
82.212
 10
170.254
 20
83.665
 10
170.994
 20
85.157
 10
171.658
 20
86.683
 10
172.245
 20
88.242
 10
172.754
 20
89.827
 10
173.182
 20
91.436
 10
173.53
 20
93.064
 97
0
 75
0
 76
1
 98
0
  0
HATCH
  5
3A
330
17
100
AcDbEntity
  8
RASTER
 62
7
100
AcDbHatch
 10
0.0
 20
0.0
 30
0.0
210
0.0
220
0.0
230
1.0
  2
SOLID
 70
1
 71
0
 91
1
 92
3
 72
0
 73
1
 93
50
 10
169.525
 20
92.936
 10
169.195
 20
91.578
 10
168.8
 20
90.236
 10
168.342
 20
88.915
 10
167.822
 20
87.618
 10
167.241
 20
86.346
 10
166.6
 20
85.104
 10
165.901
 20
83.893
 10
165.145
 20
82.717
 10
164.334
 20
81.578
 10
163.469
 20
80.479
 10
162.554
 20
79.423
 10
161.589
 20
78.411
 10
160.577
 20
77.446
 10
159.521
 20
76.531
 10
158.422
 20
75.666
 10
157.283
 20
74.855
 10
156.107
 20
74.099
 10
154.896
 20
73.4
 10
153.654
 20
72.759
 10
152.382
 20
72.178
 10
151.085
 20
71.658
 10
149.764
 20
71.2
 10
148.422
 20
70.805
 10
147.064
 20
70.475
 10
146.936
 20
71.061
 10
148.267
 20
71.385
 10
149.581
 20
71.771
 10
150.875
 20
72.22
 10
152.146
 20
72.729
 10
153.392
 20
73.298
 10
154.609
 20
73.926
 10
155.795
 20
74.611
 10
156.947
 20
75.352
 10
158.062
 20
76.147
 10
159.139
 20
76.993
 10
160.174
 20
77.89
 10
161.165
 20
78.835
 10
162.11
 20
79.826
 10
163.007
 20
80.861
 10
163.853
 20
81.938
 10
164.648
 20
83.053
 10
165.389
 20
84.205
 10
166.074
 20
85.391
 10
166.702
 20
86.608
 10
167.271
 20
87.854
 10
167.78
 20
89.125
 10
168.229
 20
90.419
 10
168.615
 20
91.733
 10
168.939
 20
93.064
 97
0
 75
0
 76
1
 98
0
  0
HATCH
  5
3B
330
17
100
AcDbEntity
  8
RASTER
 62
7
100
AcDbHatch
 10
0.0
 20
0.0
 30
0.0
210
0.0
220
0.0
230
1.0
  2
SOLID
 70
1
 71
0
 91
1
 92
3
 72
0
 73
1
 93
50
 10
134.536
 20
65.782
 10
132.873
 20
66.137
 10
131.23
 20
66.575
 10
129.611
 20
67.094
 10
128.02
 20
67.693
 10
126.461
 20
68.371
 10
124.938
 20
69.127
 10
123.455
 20
69.957
 10
122.015
 20
70.861
 10
120.622
 20
71.835
 10
119.279
 20
72.878
 10
117.99
 20
73.987
 10
116.758
 20
75.158
 10
115.587
 20
76.39
 10
114.478
 20
77.679
 10
113.435
 20
79.022
 10
112.461
 20
80.415
 10
111.557
 20
81.855
 10
110.727
 20
83.338
 10
109.971
 20
84.861
 10
109.293
 20
86.42
 10
108.694
 20
88.011
 10
108.175
 20
89.63
 10
107.737
 20
91.273
 10
107.382
 20
92.936
 10
108.07
 20
93.064
 10
108.418
 20
91.436
 10
108.846
 20
89.827
 10
109.355
 20
88.242
 10
109.942
 20
86.683
 10
110.606
 20
85.157
 10
111.346
 20
83.665
 10
112.159
 20
82.212
 10
113.044
 20
80.802
 10
113.999
 20
79.437
 10
115.02
 20
78.122
 10
116.106
 20
76.86
 10
117.253
 20
75.653
 10
118.46
 20
74.506
 10
119.722
 20
73.42
 10
121.037
 20
72.399
 10
122.402
 20
71.444
 10
123.812
 20
70.559
 10
125.265
 20
69.746
 10
126.757
 20
69.006
 10
128.283
 20
68.342
 10
129.842
 20
67.755
 10
131.427
 20
67.246
 10
133.036
 20
66.818
 10
134.664
 20
66.47
 97
0
 75
0
 76
1
 98
0
  0
HATCH
  5
3C
330
17
100
AcDbEntity
  8
RASTER
 62
7
100
AcDbHatch
 10
0.0
 20
0.0
 30
0.0
210
0.0
220
0.0
230
1.0
  2
SOLID
 70
1
 71
0
 91
1
 92
3
 72
0
 73
1
 93
50
 10
134.536
 20
70.475
 10
133.178
 20
70.805
 10
131.836
 20
71.2
 10
130.515
 20
71.658
 10
129.218
 20
72.178
 10
127.946
 20
72.759
 10
126.704
 20
73.4
 10
125.493
 20
74.099
 10
124.317
 20
74.855
 10
123.178
 20
75.666
 10
122.079
 20
76.531
 10
121.023
 20
77.446
 10
120.011
 20
78.411
 10
119.046
 20
79.423
 10
118.131
 20
80.479
 10
117.266
 20
81.578
 10
116.455
 20
82.717
 10
115.699
 20
83.893
 10
115.0
 20
85.104
 10
114.359
 20
86.346
 10
113.778
 20
87.618
 10
113.258
 20
88.915
 10
112.8
 20
90.236
 10
112.405
 20
91.578
 10
112.075
 20
92.936
 10
112.661
 20
93.064
 10
112.985
 20
91.733
 10
113.371
 20
90.419
 10
113.82
 20
89.125
 10
114.329
 20
87.854
 10
114.898
 20
86.608
 10
115.526
 20
85.391
 10
116.211
 20
84.205
 10
116.952
 20
83.053
 10
117.747
 20
81.938
 10
118.593
 20
80.861
 10
119.49
 20
79.826
 10
120.435
 20
78.835
 10
121.426
 20
77.89
 10
122.461
 20
76.993
 10
123.538
 20
76.147
 10
124.653
 20
75.352
 10
125.805
 20
74.611
 10
126.991
 20
73.926
 10
128.208
 20
73.298
 10
129.454
 20
72.729
 10
130.725
 20
72.22
 10
132.019
 20
71.771
 10
133.333
 20
71.385
 10
134.664
 20
71.061
 97
0
 75
0
 76
1
 98
0
  0
HATCH
  5
3D
330
17
100
AcDbEntity
  8
RASTER
 62
7
100
AcDbHatch
 10
0.0
 20
0.0
 30
0.0
210
0.0
220
0.0
230
1.0
  2
SOLID
 70
1
 71
0
 91
1
 92
3
 72
0
 73
1
 93
50
 10
107.382
 20
105.464
 10
107.737
 20
107.127
 10
108.175
 20
108.77
 10
108.694
 20
110.389
 10
109.293
 20
111.98
 10
109.971
 20
113.539
 10
110.727
 20
115.062
 10
111.557
 20
116.545
 10
112.461
 20
117.985
 10
113.435
 20
119.378
 10
114.478
 20
120.721
 10
115.587
 20
122.01
 10
116.758
 20
123.242
 10
117.99
 20
124.413
 10
119.279
 20
125.522
 10
120.622
 20
126.565
 10
122.015
 20
127.539
 10
123.455
 20
128.443
 10
124.938
 20
129.273
 10
126.461
 20
130.029
 10
128.02
 20
130.707
 10
129.611
 20
131.306
 10
131.23
 20
131.825
 10
132.873
 20
132.263
 10
134.536
 20
132.618
 10
134.664
 20
131.93
 10
133.036
 20
131.582
 10
131.427
 20
131.154
 10
129.842
 20
130.645
 10
128.283
 20
130.058
 10
126.757
 20
129.394
 10
125.265
 20
128.654
 10
123.812
 20
127.841
 10
122.402
 20
126.956
 10
121.037
 20
126.001
 10
119.722
 20
124.98
 10
118.46
 20
123.894
 10
117.253
 20
122.747
 10
116.106
 20
121.54
 10
115.02
 20
120.278
 10
113.999
 20
118.963
 10
113.044
 20
117.598
 10
112.159
 20
116.188
 10
111.346
 20
114.735
 10
110.606
 20
113.243
 10
109.942
 20
111.717
 10
109.355
 20
110.158
 10
108.846
 20
108.573
 10
108.418
 20
106.964
 10
108.07
 20
105.336
 97
0
 75
0
 76
1
 98
0
  0
HATCH
  5
3E
330
17
100
AcDbEntity
  8
RASTER
 62
7
100
AcDbHatch
 10
0.0
 20
0.0
 30
0.0
210
0.0
220
0.0
230
1.0
  2
SOLID
 70
1
 71
0
 91
1
 92
3
 72
0
 73
1
 93
50
 10
112.075
 20
105.464
 10
112.405
 20
106.822
 10
112.8
 20
108.164
 10
113.258
 20
109.485
 10
113.778
 20
110.782
 10
114.359
 20
112.054
 10
115.0
 20
113.296
 10
115.699
 20
114.507
 10
116.455
 20
115.683
 10
117.266
 20
116.822
 10
118.131
 20
117.921
 10
119.046
 20
118.977
 10
120.011
 20
119.989
 10
121.023
 20
120.954
 10
122.079
 20
121.869
 10
123.178
 20
122.734
 10
124.317
 20
123.545
 10
125.493
 20
124.301
 10
126.704
 20
125.0
 10
127.946
 20
125.641
 10
129.218
 20
126.222
 10
130.515
 20
126.742
 10
131.836
 20
127.2
 10
133.178
 20
127.595
 10
134.536
 20
127.925
 10
134.664
 20
127.339
 10
133.333
 20
127.015
 10
132.019
 20
126.629
 10
130.725
 20
126.18
 10
129.454
 20
125.671
 10
128.208
 20
125.102
 10
126.991
 20
124.474
 10
125.805
 20
123.789
 10
124.653
 20
123.048
 10
123.538
 20
122.253
 10
122.461
 20
121.407
 10
121.426
 20
120.51
 10
120.435
 20
119.565
 10
119.49
 20
118.574
 10
118.593
 20
117.539
 10
117.747
 20
116.462
 10
116.952
 20
115.347
 10
116.211
 20
114.195
 10
115.526
 20
113.009
 10
114.898
 20
111.792
 10
114.329
 20
110.546
 10
113.82
 20
109.275
 10
113.371
 20
107.981
 10
112.985
 20
106.667
 10
112.661
 20
105.336
 97
0
 75
0
 76
1
 98
0
  0
HATCH
  5
3F
330
17
100
AcDbEntity
  8
RASTER
 62
7
100
AcDbHatch
 10
0.0
 20
0.0
 30
0.0
210
0.0
220
0.0
230
1.0
  2
SOLID
 70
1
 71
0
 91
1
 92
3
 72
0
 73
1
 93
48
 10
171.533
 20
91.099
 10
171.529
 20
91.034
 10
171.516
 20
90.97
 10
171.495
 20
90.908
 10
171.466
 20
90.849
 10
171.43
 20
90.795
 10
171.387
 20
90.745
 10
171.338
 20
90.702
 10
171.283
 20
90.666
 10
171.225
 20
90.637
 10
171.163
 20
90.616
 10
171.099
 20
90.603
 10
171.033
 20
90.599
 10
170.968
 20
90.603
 10
170.904
 20
90.616
 10
170.842
 20
90.637
 10
170.783
 20
90.666
 10
170.729
 20
90.702
 10
170.68
 20
90.745
 10
170.637
 20
90.795
 10
170.6
 20
90.849
 10
170.572
 20
90.908
 10
170.551
 20
90.97
 10
170.538
 20
91.034
 10
170.533
 20
91.099
 10
170.538
 20
91.164
 10
170.551
 20
91.228
 10
170.572
 20
91.29
 10
170.6
 20
91.349
 10
170.637
 20
91.403
 10
170.68
 20
91.453
 10
170.729
 20
91.496
 10
170.783
 20
91.532
 10
170.842
 20
91.561
 10
170.904
 20
91.582
 10
170.968
 20
91.595
 10
171.033
 20
91.599
 10
171.099
 20
91.595
 10
171.163
 20
91.582
 10
171.225
 20
91.561
 10
171.283
 20
91.532
 10
171.338
 20
91.496
 10
171.387
 20
91.453
 10
171.43
 20
91.403
 10
171.466
 20
91.349
 10
171.495
 20
91.29
 10
171.516
 20
91.228
 10
171.529
 20
91.164
 97
0
 75
0
 76
1
 98
0
  0
HATCH
  5
40
330
17
100
AcDbEntity
  8
RASTER
 62
7
100
AcDbHatch
 10
0.0
 20
0.0
 30
0.0
210
0.0
220
0.0
230
1.0
  2
SOLID
 70
1
 71
0
 91
1
 92
3
 72
0
 73
1
 93
48
 10
169.667
 20
85.972
 10
169.663
 20
85.907
 10
169.65
 20
85.843
 10
169.629
 20
85.781
 10
169.6
 20
85.722
 10
169.564
 20
85.668
 10
169.521
 20
85.618
 10
169.472
 20
85.575
 10
169.417
 20
85.539
 10
169.359
 20
85.51
 10
169.297
 20
85.489
 10
169.233
 20
85.476
 10
169.167
 20
85.472
 10
169.102
 20
85.476
 10
169.038
 20
85.489
 10
168.976
 20
85.51
 10
168.917
 20
85.539
 10
168.863
 20
85.575
 10
168.814
 20
85.618
 10
168.771
 20
85.668
 10
168.734
 20
85.722
 10
168.705
 20
85.781
 10
168.684
 20
85.843
 10
168.672
 20
85.907
 10
168.667
 20
85.972
 10
168.672
 20
86.037
 10
168.684
 20
86.101
 10
168.705
 20
86.163
 10
168.734
 20
86.222
 10
168.771
 20
86.276
 10
168.814
 20
86.326
 10
168.863
 20
86.369
 10
168.917
 20
86.405
 10
168.976
 20
86.434
 10
169.038
 20
86.455
 10
169.102
 20
86.468
 10
169.167
 20
86.472
 10
169.233
 20
86.468
 10
169.297
 20
86.455
 10
169.359
 20
86.434
 10
169.417
 20
86.405
 10
169.472
 20
86.369
 10
169.521
 20
86.326
 10
169.564
 20
86.276
 10
169.6
 20
86.222
 10
169.629
 20
86.163
 10
169.65
 20
86.101
 10
169.663
 20
86.037
 97
0
 75
0
 76
1
 98
0
  0
HATCH
  5
41
330
17
100
AcDbEntity
  8
RASTER
 62
7
100
AcDbHatch
 10
0.0
 20
0.0
 30
0.0
210
0.0
220
0.0
230
1.0
  2
SOLID
 70
1
 71
0
 91
1
 92
3
 72
0
 73
1
 93
48
 10
166.939
 20
81.247
 10
166.935
 20
81.182
 10
166.922
 20
81.118
 10
166.901
 20
81.056
 10
166.872
 20
80.997
 10
166.836
 20
80.943
 10
166.793
 20
80.894
 10
166.744
 20
80.85
 10
166.689
 20
80.814
 10
166.631
 20
80.785
 10
166.569
 20
80.764
 10
166.505
 20
80.751
 10
166.439
 20
80.747
 10
166.374
 20
80.751
 10
166.31
 20
80.764
 10
166.248
 20
80.785
 10
166.189
 20
80.814
 10
166.135
 20
80.85
 10
166.086
 20
80.894
 10
166.043
 20
80.943
 10
166.006
 20
80.997
 10
165.978
 20
81.056
 10
165.956
 20
81.118
 10
165.944
 20
81.182
 10
165.939
 20
81.247
 10
165.944
 20
81.312
 10
165.956
 20
81.376
 10
165.978
 20
81.438
 10
166.006
 20
81.497
 10
166.043
 20
81.551
 10
166.086
 20
81.601
 10
166.135
 20
81.644
 10
166.189
 20
81.68
 10
166.248
 20
81.709
 10
166.31
 20
81.73
 10
166.374
 20
81.743
 10
166.439
 20
81.747
 10
166.505
 20
81.743
 10
166.569
 20
81.73
 10
166.631
 20
81.709
 10
166.689
 20
81.68
 10
166.744
 20
81.644
 10
166.793
 20
81.601
 10
166.836
 20
81.551
 10
166.872
 20
81.497
 10
166.901
 20
81.438
 10
166.922
 20
81.376
 10
166.935
 20
81.312
 97
0
 75
0
 76
1
 98
0
  0
HATCH
  5
42
330
17
100
AcDbEntity
  8
RASTER
 62
7
100
AcDbHatch
 10
0.0
 20
0.0
 30
0.0
210
0.0
220
0.0
230
1.0
  2
SOLID
 70
1
 71
0
 91
1
 92
3
 72
0
 73
1
 93
48
 10
159.253
 20
73.561
 10
159.249
 20
73.495
 10
159.236
 20
73.431
 10
159.215
 20
73.369
 10
159.186
 20
73.311
 10
159.15
 20
73.256
 10
159.106
 20
73.207
 10
159.057
 20
73.164
 10
159.003
 20
73.128
 10
158.944
 20
73.099
 10
158.882
 20
73.078
 10
158.818
 20
73.065
 10
158.753
 20
73.061
 10
158.688
 20
73.065
 10
158.624
 20
73.078
 10
158.562
 20
73.099
 10
158.503
 20
73.128
 10
158.449
 20
73.164
 10
158.399
 20
73.207
 10
158.356
 20
73.256
 10
158.32
 20
73.311
 10
158.291
 20
73.369
 10
158.27
 20
73.431
 10
158.257
 20
73.495
 10
158.253
 20
73.561
 10
158.257
 20
73.626
 10
158.27
 20
73.69
 10
158.291
 20
73.752
 10
158.32
 20
73.811
 10
158.356
 20
73.865
 10
158.399
 20
73.914
 10
158.449
 20
73.957
 10
158.503
 20
73.994
 10
158.562
 20
74.022
 10
158.624
 20
74.044
 10
158.688
 20
74.056
 10
158.753
 20
74.061
 10
158.818
 20
74.056
 10
158.882
 20
74.044
 10
158.944
 20
74.022
 10
159.003
 20
73.994
 10
159.057
 20
73.957
 10
159.106
 20
73.914
 10
159.15
 20
73.865
 10
159.186
 20
73.811
 10
159.215
 20
73.752
 10
159.236
 20
73.69
 10
159.249
 20
73.626
 97
0
 75
0
 76
1
 98
0
  0
HATCH
  5
43
330
17
100
AcDbEntity
  8
RASTER
 62
7
100
AcDbHatch
 10
0.0
 20
0.0
 30
0.0
210
0.0
220
0.0
230
1.0
  2
SOLID
 70
1
 71
0
 91
1
 92
3
 72
0
 73
1
 93
48
 10
154.528
 20
70.833
 10
154.524
 20
70.767
 10
154.511
 20
70.703
 10
154.49
 20
70.641
 10
154.461
 20
70.583
 10
154.425
 20
70.528
 10
154.382
 20
70.479
 10
154.332
 20
70.436
 10
154.278
 20
70.4
 10
154.219
 20
70.371
 10
154.157
 20
70.35
 10
154.093
 20
70.337
 10
154.028
 20
70.333
 10
153.963
 20
70.337
 10
153.899
 20
70.35
 10
153.837
 20
70.371
 10
153.778
 20
70.4
 10
153.724
 20
70.436
 10
153.674
 20
70.479
 10
153.631
 20
70.528
 10
153.595
 20
70.583
 10
153.566
 20
70.641
 10
153.545
 20
70.703
 10
153.532
 20
70.767
 10
153.528
 20
70.833
 10
153.532
 20
70.898
 10
153.545
 20
70.962
 10
153.566
 20
71.024
 10
153.595
 20
71.083
 10
153.631
 20
71.137
 10
153.674
 20
71.186
 10
153.724
 20
71.229
 10
153.778
 20
71.266
 10
153.837
 20
71.295
 10
153.899
 20
71.316
 10
153.963
 20
71.328
 10
154.028
 20
71.333
 10
154.093
 20
71.328
 10
154.157
 20
71.316
 10
154.219
 20
71.295
 10
154.278
 20
71.266
 10
154.332
 20
71.229
 10
154.382
 20
71.186
 10
154.425
 20
71.137
 10
154.461
 20
71.083
 10
154.49
 20
71.024
 10
154.511
 20
70.962
 10
154.524
 20
70.898
 97
0
 75
0
 76
1
 98
0
  0
HATCH
  5
44
330
17
100
AcDbEntity
  8
RASTER
 62
7
100
AcDbHatch
 10
0.0
 20
0.0
 30
0.0
210
0.0
220
0.0
230
1.0
  2
SOLID
 70
1
 71
0
 91
1
 92
3
 72
0
 73
1
 93
48
 10
149.401
 20
68.967
 10
149.397
 20
68.901
 10
149.384
 20
68.837
 10
149.363
 20
68.775
 10
149.334
 20
68.717
 10
149.298
 20
68.662
 10
149.255
 20
68.613
 10
149.205
 20
68.57
 10
149.151
 20
68.534
 10
149.092
 20
68.505
 10
149.03
 20
68.484
 10
148.966
 20
68.471
 10
148.901
 20
68.467
 10
148.836
 20
68.471
 10
148.772
 20
68.484
 10
148.71
 20
68.505
 10
148.651
 20
68.534
 10
148.597
 20
68.57
 10
148.547
 20
68.613
 10
148.504
 20
68.662
 10
148.468
 20
68.717
 10
148.439
 20
68.775
 10
148.418
 20
68.837
 10
148.405
 20
68.901
 10
148.401
 20
68.967
 10
148.405
 20
69.032
 10
148.418
 20
69.096
 10
148.439
 20
69.158
 10
148.468
 20
69.217
 10
148.504
 20
69.271
 10
148.547
 20
69.32
 10
148.597
 20
69.363
 10
148.651
 20
69.4
 10
148.71
 20
69.428
 10
148.772
 20
69.449
 10
148.836
 20
69.462
 10
148.901
 20
69.467
 10
148.966
 20
69.462
 10
149.03
 20
69.449
 10
149.092
 20
69.428
 10
149.151
 20
69.4
 10
149.205
 20
69.363
 10
149.255
 20
69.32
 10
149.298
 20
69.271
 10
149.334
 20
69.217
 10
149.363
 20
69.158
 10
149.384
 20
69.096
 10
149.397
 20
69.032
 97
0
 75
0
 76
1
 98
0
  0
HATCH
  5
45
330
17
100
AcDbEntity
  8
RASTER
 62
7
100
AcDbHatch
 10
0.0
 20
0.0
 30
0.0
210
0.0
220
0.0
230
1.0
  2
SOLID
 70
1
 71
0
 91
1
 92
3
 72
0
 73
1
 93
48
 10
133.199
 20
68.967
 10
133.195
 20
68.901
 10
133.182
 20
68.837
 10
133.161
 20
68.775
 10
133.132
 20
68.717
 10
133.096
 20
68.662
 10
133.053
 20
68.613
 10
133.003
 20
68.57
 10
132.949
 20
68.534
 10
132.89
 20
68.505
 10
132.828
 20
68.484
 10
132.764
 20
68.471
 10
132.699
 20
68.467
 10
132.634
 20
68.471
 10
132.57
 20
68.484
 10
132.508
 20
68.505
 10
132.449
 20
68.534
 10
132.395
 20
68.57
 10
132.345
 20
68.613
 10
132.302
 20
68.662
 10
132.266
 20
68.717
 10
132.237
 20
68.775
 10
132.216
 20
68.837
 10
132.203
 20
68.901
 10
132.199
 20
68.967
 10
132.203
 20
69.032
 10
132.216
 20
69.096
 10
132.237
 20
69.158
 10
132.266
 20
69.217
 10
132.302
 20
69.271
 10
132.345
 20
69.32
 10
132.395
 20
69.363
 10
132.449
 20
69.4
 10
132.508
 20
69.428
 10
132.57
 20
69.449
 10
132.634
 20
69.462
 10
132.699
 20
69.467
 10
132.764
 20
69.462
 10
132.828
 20
69.449
 10
132.89
 20
69.428
 10
132.949
 20
69.4
 10
133.003
 20
69.363
 10
133.053
 20
69.32
 10
133.096
 20
69.271
 10
133.132
 20
69.217
 10
133.161
 20
69.158
 10
133.182
 20
69.096
 10
133.195
 20
69.032
 97
0
 75
0
 76
1
 98
0
  0
HATCH
  5
46
330
17
100
AcDbEntity
  8
RASTER
 62
7
100
AcDbHatch
 10
0.0
 20
0.0
 30
0.0
210
0.0
220
0.0
230
1.0
  2
SOLID
 70
1
 71
0
 91
1
 92
3
 72
0
 73
1
 93
48
 10
128.072
 20
70.833
 10
128.068
 20
70.767
 10
128.055
 20
70.703
 10
128.034
 20
70.641
 10
128.005
 20
70.583
 10
127.969
 20
70.528
 10
127.926
 20
70.479
 10
127.876
 20
70.436
 10
127.822
 20
70.4
 10
127.763
 20
70.371
 10
127.701
 20
70.35
 10
127.637
 20
70.337
 10
127.572
 20
70.333
 10
127.507
 20
70.337
 10
127.443
 20
70.35
 10
127.381
 20
70.371
 10
127.322
 20
70.4
 10
127.268
 20
70.436
 10
127.218
 20
70.479
 10
127.175
 20
70.528
 10
127.139
 20
70.583
 10
127.11
 20
70.641
 10
127.089
 20
70.703
 10
127.076
 20
70.767
 10
127.072
 20
70.833
 10
127.076
 20
70.898
 10
127.089
 20
70.962
 10
127.11
 20
71.024
 10
127.139
 20
71.083
 10
127.175
 20
71.137
 10
127.218
 20
71.186
 10
127.268
 20
71.229
 10
127.322
 20
71.266
 10
127.381
 20
71.295
 10
127.443
 20
71.316
 10
127.507
 20
71.328
 10
127.572
 20
71.333
 10
127.637
 20
71.328
 10
127.701
 20
71.316
 10
127.763
 20
71.295
 10
127.822
 20
71.266
 10
127.876
 20
71.229
 10
127.926
 20
71.186
 10
127.969
 20
71.137
 10
128.005
 20
71.083
 10
128.034
 20
71.024
 10
128.055
 20
70.962
 10
128.068
 20
70.898
 97
0
 75
0
 76
1
 98
0
  0
HATCH
  5
47
330
17
100
AcDbEntity
  8
RASTER
 62
7
100
AcDbHatch
 10
0.0
 20
0.0
 30
0.0
210
0.0
220
0.0
230
1.0
  2
SOLID
 70
1
 71
0
 91
1
 92
3
 72
0
 73
1
 93
48
 10
123.347
 20
73.561
 10
123.343
 20
73.495
 10
123.33
 20
73.431
 10
123.309
 20
73.369
 10
123.28
 20
73.311
 10
123.244
 20
73.256
 10
123.201
 20
73.207
 10
123.151
 20
73.164
 10
123.097
 20
73.128
 10
123.038
 20
73.099
 10
122.976
 20
73.078
 10
122.912
 20
73.065
 10
122.847
 20
73.061
 10
122.782
 20
73.065
 10
122.718
 20
73.078
 10
122.656
 20
73.099
 10
122.597
 20
73.128
 10
122.543
 20
73.164
 10
122.494
 20
73.207
 10
122.45
 20
73.256
 10
122.414
 20
73.311
 10
122.385
 20
73.369
 10
122.364
 20
73.431
 10
122.351
 20
73.495
 10
122.347
 20
73.561
 10
122.351
 20
73.626
 10
122.364
 20
73.69
 10
122.385
 20
73.752
 10
122.414
 20
73.811
 10
122.45
 20
73.865
 10
122.494
 20
73.914
 10
122.543
 20
73.957
 10
122.597
 20
73.994
 10
122.656
 20
74.022
 10
122.718
 20
74.044
 10
122.782
 20
74.056
 10
122.847
 20
74.061
 10
122.912
 20
74.056
 10
122.976
 20
74.044
 10
123.038
 20
74.022
 10
123.097
 20
73.994
 10
123.151
 20
73.957
 10
123.201
 20
73.914
 10
123.244
 20
73.865
 10
123.28
 20
73.811
 10
123.309
 20
73.752
 10
123.33
 20
73.69
 10
123.343
 20
73.626
 97
0
 75
0
 76
1
 98
0
  0
HATCH
  5
48
330
17
100
AcDbEntity
  8
RASTER
 62
7
100
AcDbHatch
 10
0.0
 20
0.0
 30
0.0
210
0.0
220
0.0
230
1.0
  2
SOLID
 70
1
 71
0
 91
1
 92
3
 72
0
 73
1
 93
48
 10
115.661
 20
81.247
 10
115.656
 20
81.182
 10
115.644
 20
81.118
 10
115.622
 20
81.056
 10
115.594
 20
80.997
 10
115.557
 20
80.943
 10
115.514
 20
80.894
 10
115.465
 20
80.85
 10
115.411
 20
80.814
 10
115.352
 20
80.785
 10
115.29
 20
80.764
 10
115.226
 20
80.751
 10
115.161
 20
80.747
 10
115.095
 20
80.751
 10
115.031
 20
80.764
 10
114.969
 20
80.785
 10
114.911
 20
80.814
 10
114.856
 20
80.85
 10
114.807
 20
80.894
 10
114.764
 20
80.943
 10
114.728
 20
80.997
 10
114.699
 20
81.056
 10
114.678
 20
81.118
 10
114.665
 20
81.182
 10
114.661
 20
81.247
 10
114.665
 20
81.312
 10
114.678
 20
81.376
 10
114.699
 20
81.438
 10
114.728
 20
81.497
 10
114.764
 20
81.551
 10
114.807
 20
81.601
 10
114.856
 20
81.644
 10
114.911
 20
81.68
 10
114.969
 20
81.709
 10
115.031
 20
81.73
 10
115.095
 20
81.743
 10
115.161
 20
81.747
 10
115.226
 20
81.743
 10
115.29
 20
81.73
 10
115.352
 20
81.709
 10
115.411
 20
81.68
 10
115.465
 20
81.644
 10
115.514
 20
81.601
 10
115.557
 20
81.551
 10
115.594
 20
81.497
 10
115.622
 20
81.438
 10
115.644
 20
81.376
 10
115.656
 20
81.312
 97
0
 75
0
 76
1
 98
0
  0
HATCH
  5
49
330
17
100
AcDbEntity
  8
RASTER
 62
7
100
AcDbHatch
 10
0.0
 20
0.0
 30
0.0
210
0.0
220
0.0
230
1.0
  2
SOLID
 70
1
 71
0
 91
1
 92
3
 72
0
 73
1
 93
48
 10
112.933
 20
85.972
 10
112.928
 20
85.907
 10
112.916
 20
85.843
 10
112.895
 20
85.781
 10
112.866
 20
85.722
 10
112.829
 20
85.668
 10
112.786
 20
85.618
 10
112.737
 20
85.575
 10
112.683
 20
85.539
 10
112.624
 20
85.51
 10
112.562
 20
85.489
 10
112.498
 20
85.476
 10
112.433
 20
85.472
 10
112.367
 20
85.476
 10
112.303
 20
85.489
 10
112.241
 20
85.51
 10
112.183
 20
85.539
 10
112.128
 20
85.575
 10
112.079
 20
85.618
 10
112.036
 20
85.668
 10
112.0
 20
85.722
 10
111.971
 20
85.781
 10
111.95
 20
85.843
 10
111.937
 20
85.907
 10
111.933
 20
85.972
 10
111.937
 20
86.037
 10
111.95
 20
86.101
 10
111.971
 20
86.163
 10
112.0
 20
86.222
 10
112.036
 20
86.276
 10
112.079
 20
86.326
 10
112.128
 20
86.369
 10
112.183
 20
86.405
 10
112.241
 20
86.434
 10
112.303
 20
86.455
 10
112.367
 20
86.468
 10
112.433
 20
86.472
 10
112.498
 20
86.468
 10
112.562
 20
86.455
 10
112.624
 20
86.434
 10
112.683
 20
86.405
 10
112.737
 20
86.369
 10
112.786
 20
86.326
 10
112.829
 20
86.276
 10
112.866
 20
86.222
 10
112.895
 20
86.163
 10
112.916
 20
86.101
 10
112.928
 20
86.037
 97
0
 75
0
 76
1
 98
0
  0
HATCH
  5
4A
330
17
100
AcDbEntity
  8
RASTER
 62
7
100
AcDbHatch
 10
0.0
 20
0.0
 30
0.0
210
0.0
220
0.0
230
1.0
  2
SOLID
 70
1
 71
0
 91
1
 92
3
 72
0
 73
1
 93
48
 10
111.067
 20
91.099
 10
111.062
 20
91.034
 10
111.049
 20
90.97
 10
111.028
 20
90.908
 10
111.0
 20
90.849
 10
110.963
 20
90.795
 10
110.92
 20
90.745
 10
110.871
 20
90.702
 10
110.817
 20
90.666
 10
110.758
 20
90.637
 10
110.696
 20
90.616
 10
110.632
 20
90.603
 10
110.567
 20
90.599
 10
110.501
 20
90.603
 10
110.437
 20
90.616
 10
110.375
 20
90.637
 10
110.317
 20
90.666
 10
110.262
 20
90.702
 10
110.213
 20
90.745
 10
110.17
 20
90.795
 10
110.134
 20
90.849
 10
110.105
 20
90.908
 10
110.084
 20
90.97
 10
110.071
 20
91.034
 10
110.067
 20
91.099
 10
110.071
 20
91.164
 10
110.084
 20
91.228
 10
110.105
 20
91.29
 10
110.134
 20
91.349
 10
110.17
 20
91.403
 10
110.213
 20
91.453
 10
110.262
 20
91.496
 10
110.317
 20
91.532
 10
110.375
 20
91.561
 10
110.437
 20
91.582
 10
110.501
 20
91.595
 10
110.567
 20
91.599
 10
110.632
 20
91.595
 10
110.696
 20
91.582
 10
110.758
 20
91.561
 10
110.817
 20
91.532
 10
110.871
 20
91.496
 10
110.92
 20
91.453
 10
110.963
 20
91.403
 10
111.0
 20
91.349
 10
111.028
 20
91.29
 10
111.049
 20
91.228
 10
111.062
 20
91.164
 97
0
 75
0
 76
1
 98
0
  0
HATCH
  5
4B
330
17
100
AcDbEntity
  8
RASTER
 62
7
100
AcDbHatch
 10
0.0
 20
0.0
 30
0.0
210
0.0
220
0.0
230
1.0
  2
SOLID
 70
1
 71
0
 91
1
 92
3
 72
0
 73
1
 93
48
 10
111.067
 20
107.301
 10
111.062
 20
107.236
 10
111.049
 20
107.172
 10
111.028
 20
107.11
 10
111.0
 20
107.051
 10
110.963
 20
106.997
 10
110.92
 20
106.947
 10
110.871
 20
106.904
 10
110.817
 20
106.868
 10
110.758
 20
106.839
 10
110.696
 20
106.818
 10
110.632
 20
106.805
 10
110.567
 20
106.801
 10
110.501
 20
106.805
 10
110.437
 20
106.818
 10
110.375
 20
106.839
 10
110.317
 20
106.868
 10
110.262
 20
106.904
 10
110.213
 20
106.947
 10
110.17
 20
106.997
 10
110.134
 20
107.051
 10
110.105
 20
107.11
 10
110.084
 20
107.172
 10
110.071
 20
107.236
 10
110.067
 20
107.301
 10
110.071
 20
107.366
 10
110.084
 20
107.43
 10
110.105
 20
107.492
 10
110.134
 20
107.551
 10
110.17
 20
107.605
 10
110.213
 20
107.655
 10
110.262
 20
107.698
 10
110.317
 20
107.734
 10
110.375
 20
107.763
 10
110.437
 20
107.784
 10
110.501
 20
107.797
 10
110.567
 20
107.801
 10
110.632
 20
107.797
 10
110.696
 20
107.784
 10
110.758
 20
107.763
 10
110.817
 20
107.734
 10
110.871
 20
107.698
 10
110.92
 20
107.655
 10
110.963
 20
107.605
 10
111.0
 20
107.551
 10
111.028
 20
107.492
 10
111.049
 20
107.43
 10
111.062
 20
107.366
 97
0
 75
0
 76
1
 98
0
  0
HATCH
  5
4C
330
17
100
AcDbEntity
  8
RASTER
 62
7
100
AcDbHatch
 10
0.0
 20
0.0
 30
0.0
210
0.0
220
0.0
230
1.0
  2
SOLID
 70
1
 71
0
 91
1
 92
3
 72
0
 73
1
 93
48
 10
112.933
 20
112.428
 10
112.928
 20
112.363
 10
112.916
 20
112.299
 10
112.895
 20
112.237
 10
112.866
 20
112.178
 10
112.829
 20
112.124
 10
112.786
 20
112.074
 10
112.737
 20
112.031
 10
112.683
 20
111.995
 10
112.624
 20
111.966
 10
112.562
 20
111.945
 10
112.498
 20
111.932
 10
112.433
 20
111.928
 10
112.367
 20
111.932
 10
112.303
 20
111.945
 10
112.241
 20
111.966
 10
112.183
 20
111.995
 10
112.128
 20
112.031
 10
112.079
 20
112.074
 10
112.036
 20
112.124
 10
112.0
 20
112.178
 10
111.971
 20
112.237
 10
111.95
 20
112.299
 10
111.937
 20
112.363
 10
111.933
 20
112.428
 10
111.937
 20
112.493
 10
111.95
 20
112.557
 10
111.971
 20
112.619
 10
112.0
 20
112.678
 10
112.036
 20
112.732
 10
112.079
 20
112.782
 10
112.128
 20
112.825
 10
112.183
 20
112.861
 10
112.241
 20
112.89
 10
112.303
 20
112.911
 10
112.367
 20
112.924
 10
112.433
 20
112.928
 10
112.498
 20
112.924
 10
112.562
 20
112.911
 10
112.624
 20
112.89
 10
112.683
 20
112.861
 10
112.737
 20
112.825
 10
112.786
 20
112.782
 10
112.829
 20
112.732
 10
112.866
 20
112.678
 10
112.895
 20
112.619
 10
112.916
 20
112.557
 10
112.928
 20
112.493
 97
0
 75
0
 76
1
 98
0
  0
HATCH
  5
4D
330
17
100
AcDbEntity
  8
RASTER
 62
7
100
AcDbHatch
 10
0.0
 20
0.0
 30
0.0
210
0.0
220
0.0
230
1.0
  2
SOLID
 70
1
 71
0
 91
1
 92
3
 72
0
 73
1
 93
48
 10
115.661
 20
117.153
 10
115.656
 20
117.088
 10
115.644
 20
117.024
 10
115.622
 20
116.962
 10
115.594
 20
116.903
 10
115.557
 20
116.849
 10
115.514
 20
116.799
 10
115.465
 20
116.756
 10
115.411
 20
116.72
 10
115.352
 20
116.691
 10
115.29
 20
116.67
 10
115.226
 20
116.657
 10
115.161
 20
116.653
 10
115.095
 20
116.657
 10
115.031
 20
116.67
 10
114.969
 20
116.691
 10
114.911
 20
116.72
 10
114.856
 20
116.756
 10
114.807
 20
116.799
 10
114.764
 20
116.849
 10
114.728
 20
116.903
 10
114.699
 20
116.962
 10
114.678
 20
117.024
 10
114.665
 20
117.088
 10
114.661
 20
117.153
 10
114.665
 20
117.218
 10
114.678
 20
117.282
 10
114.699
 20
117.344
 10
114.728
 20
117.403
 10
114.764
 20
117.457
 10
114.807
 20
117.506
 10
114.856
 20
117.55
 10
114.911
 20
117.586
 10
114.969
 20
117.615
 10
115.031
 20
117.636
 10
115.095
 20
117.649
 10
115.161
 20
117.653
 10
115.226
 20
117.649
 10
115.29
 20
117.636
 10
115.352
 20
117.615
 10
115.411
 20
117.586
 10
115.465
 20
117.55
 10
115.514
 20
117.506
 10
115.557
 20
117.457
 10
115.594
 20
117.403
 10
115.622
 20
117.344
 10
115.644
 20
117.282
 10
115.656
 20
117.218
 97
0
 75
0
 76
1
 98
0
  0
HATCH
  5
4E
330
17
100
AcDbEntity
  8
RASTER
 62
7
100
AcDbHatch
 10
0.0
 20
0.0
 30
0.0
210
0.0
220
0.0
230
1.0
  2
SOLID
 70
1
 71
0
 91
1
 92
3
 72
0
 73
1
 93
48
 10
123.347
 20
124.839
 10
123.343
 20
124.774
 10
123.33
 20
124.71
 10
123.309
 20
124.648
 10
123.28
 20
124.589
 10
123.244
 20
124.535
 10
123.201
 20
124.486
 10
123.151
 20
124.443
 10
123.097
 20
124.406
 10
123.038
 20
124.378
 10
122.976
 20
124.356
 10
122.912
 20
124.344
 10
122.847
 20
124.339
 10
122.782
 20
124.344
 10
122.718
 20
124.356
 10
122.656
 20
124.378
 10
122.597
 20
124.406
 10
122.543
 20
124.443
 10
122.494
 20
124.486
 10
122.45
 20
124.535
 10
122.414
 20
124.589
 10
122.385
 20
124.648
 10
122.364
 20
124.71
 10
122.351
 20
124.774
 10
122.347
 20
124.839
 10
122.351
 20
124.905
 10
122.364
 20
124.969
 10
122.385
 20
125.031
 10
122.414
 20
125.089
 10
122.45
 20
125.144
 10
122.494
 20
125.193
 10
122.543
 20
125.236
 10
122.597
 20
125.272
 10
122.656
 20
125.301
 10
122.718
 20
125.322
 10
122.782
 20
125.335
 10
122.847
 20
125.339
 10
122.912
 20
125.335
 10
122.976
 20
125.322
 10
123.038
 20
125.301
 10
123.097
 20
125.272
 10
123.151
 20
125.236
 10
123.201
 20
125.193
 10
123.244
 20
125.144
 10
123.28
 20
125.089
 10
123.309
 20
125.031
 10
123.33
 20
124.969
 10
123.343
 20
124.905
 97
0
 75
0
 76
1
 98
0
  0
HATCH
  5
4F
330
17
100
AcDbEntity
  8
RASTER
 62
7
100
AcDbHatch
 10
0.0
 20
0.0
 30
0.0
210
0.0
220
0.0
230
1.0
  2
SOLID
 70
1
 71
0
 91
1
 92
3
 72
0
 73
1
 93
48
 10
128.072
 20
127.567
 10
128.068
 20
127.502
 10
128.055
 20
127.438
 10
128.034
 20
127.376
 10
128.005
 20
127.317
 10
127.969
 20
127.263
 10
127.926
 20
127.214
 10
127.876
 20
127.171
 10
127.822
 20
127.134
 10
127.763
 20
127.105
 10
127.701
 20
127.084
 10
127.637
 20
127.072
 10
127.572
 20
127.067
 10
127.507
 20
127.072
 10
127.443
 20
127.084
 10
127.381
 20
127.105
 10
127.322
 20
127.134
 10
127.268
 20
127.171
 10
127.218
 20
127.214
 10
127.175
 20
127.263
 10
127.139
 20
127.317
 10
127.11
 20
127.376
 10
127.089
 20
127.438
 10
127.076
 20
127.502
 10
127.072
 20
127.567
 10
127.076
 20
127.633
 10
127.089
 20
127.697
 10
127.11
 20
127.759
 10
127.139
 20
127.817
 10
127.175
 20
127.872
 10
127.218
 20
127.921
 10
127.268
 20
127.964
 10
127.322
 20
128.0
 10
127.381
 20
128.029
 10
127.443
 20
128.05
 10
127.507
 20
128.063
 10
127.572
 20
128.067
 10
127.637
 20
128.063
 10
127.701
 20
128.05
 10
127.763
 20
128.029
 10
127.822
 20
128.0
 10
127.876
 20
127.964
 10
127.926
 20
127.921
 10
127.969
 20
127.872
 10
128.005
 20
127.817
 10
128.034
 20
127.759
 10
128.055
 20
127.697
 10
128.068
 20
127.633
 97
0
 75
0
 76
1
 98
0
  0
HATCH
  5
50
330
17
100
AcDbEntity
  8
RASTER
 62
7
100
AcDbHatch
 10
0.0
 20
0.0
 30
0.0
210
0.0
220
0.0
230
1.0
  2
SOLID
 70
1
 71
0
 91
1
 92
3
 72
0
 73
1
 93
48
 10
133.199
 20
129.433
 10
133.195
 20
129.368
 10
133.182
 20
129.304
 10
133.161
 20
129.242
 10
133.132
 20
129.183
 10
133.096
 20
129.129
 10
133.053
 20
129.08
 10
133.003
 20
129.037
 10
132.949
 20
129.0
 10
132.89
 20
128.972
 10
132.828
 20
128.951
 10
132.764
 20
128.938
 10
132.699
 20
128.933
 10
132.634
 20
128.938
 10
132.57
 20
128.951
 10
132.508
 20
128.972
 10
132.449
 20
129.0
 10
132.395
 20
129.037
 10
132.345
 20
129.08
 10
132.302
 20
129.129
 10
132.266
 20
129.183
 10
132.237
 20
129.242
 10
132.216
 20
129.304
 10
132.203
 20
129.368
 10
132.199
 20
129.433
 10
132.203
 20
129.499
 10
132.216
 20
129.563
 10
132.237
 20
129.625
 10
132.266
 20
129.683
 10
132.302
 20
129.738
 10
132.345
 20
129.787
 10
132.395
 20
129.83
 10
132.449
 20
129.866
 10
132.508
 20
129.895
 10
132.57
 20
129.916
 10
132.634
 20
129.929
 10
132.699
 20
129.933
 10
132.764
 20
129.929
 10
132.828
 20
129.916
 10
132.89
 20
129.895
 10
132.949
 20
129.866
 10
133.003
 20
129.83
 10
133.053
 20
129.787
 10
133.096
 20
129.738
 10
133.132
 20
129.683
 10
133.161
 20
129.625
 10
133.182
 20
129.563
 10
133.195
 20
129.499
 97
0
 75
0
 76
1
 98
0
  0
HATCH
  5
51
330
17
100
AcDbEntity
  8
RASTER
 62
7
100
AcDbHatch
 10
0.0
 20
0.0
 30
0.0
210
0.0
220
0.0
230
1.0
  2
SOLID
 70
1
 71
0
 91
1
 92
3
 72
0
 73
1
 93
48
 10
149.401
 20
129.433
 10
149.397
 20
129.368
 10
149.384
 20
129.304
 10
149.363
 20
129.242
 10
149.334
 20
129.183
 10
149.298
 20
129.129
 10
149.255
 20
129.08
 10
149.205
 20
129.037
 10
149.151
 20
129.0
 10
149.092
 20
128.972
 10
149.03
 20
128.951
 10
148.966
 20
128.938
 10
148.901
 20
128.933
 10
148.836
 20
128.938
 10
148.772
 20
128.951
 10
148.71
 20
128.972
 10
148.651
 20
129.0
 10
148.597
 20
129.037
 10
148.547
 20
129.08
 10
148.504
 20
129.129
 10
148.468
 20
129.183
 10
148.439
 20
129.242
 10
148.418
 20
129.304
 10
148.405
 20
129.368
 10
148.401
 20
129.433
 10
148.405
 20
129.499
 10
148.418
 20
129.563
 10
148.439
 20
129.625
 10
148.468
 20
129.683
 10
148.504
 20
129.738
 10
148.547
 20
129.787
 10
148.597
 20
129.83
 10
148.651
 20
129.866
 10
148.71
 20
129.895
 10
148.772
 20
129.916
 10
148.836
 20
129.929
 10
148.901
 20
129.933
 10
148.966
 20
129.929
 10
149.03
 20
129.916
 10
149.092
 20
129.895
 10
149.151
 20
129.866
 10
149.205
 20
129.83
 10
149.255
 20
129.787
 10
149.298
 20
129.738
 10
149.334
 20
129.683
 10
149.363
 20
129.625
 10
149.384
 20
129.563
 10
149.397
 20
129.499
 97
0
 75
0
 76
1
 98
0
  0
HATCH
  5
52
330
17
100
AcDbEntity
  8
RASTER
 62
7
100
AcDbHatch
 10
0.0
 20
0.0
 30
0.0
210
0.0
220
0.0
230
1.0
  2
SOLID
 70
1
 71
0
 91
1
 92
3
 72
0
 73
1
 93
48
 10
154.528
 20
127.567
 10
154.524
 20
127.502
 10
154.511
 20
127.438
 10
154.49
 20
127.376
 10
154.461
 20
127.317
 10
154.425
 20
127.263
 10
154.382
 20
127.214
 10
154.332
 20
127.171
 10
154.278
 20
127.134
 10
154.219
 20
127.105
 10
154.157
 20
127.084
 10
154.093
 20
127.072
 10
154.028
 20
127.067
 10
153.963
 20
127.072
 10
153.899
 20
127.084
 10
153.837
 20
127.105
 10
153.778
 20
127.134
 10
153.724
 20
127.171
 10
153.674
 20
127.214
 10
153.631
 20
127.263
 10
153.595
 20
127.317
 10
153.566
 20
127.376
 10
153.545
 20
127.438
 10
153.532
 20
127.502
 10
153.528
 20
127.567
 10
153.532
 20
127.633
 10
153.545
 20
127.697
 10
153.566
 20
127.759
 10
153.595
 20
127.817
 10
153.631
 20
127.872
 10
153.674
 20
127.921
 10
153.724
 20
127.964
 10
153.778
 20
128.0
 10
153.837
 20
128.029
 10
153.899
 20
128.05
 10
153.963
 20
128.063
 10
154.028
 20
128.067
 10
154.093
 20
128.063
 10
154.157
 20
128.05
 10
154.219
 20
128.029
 10
154.278
 20
128.0
 10
154.332
 20
127.964
 10
154.382
 20
127.921
 10
154.425
 20
127.872
 10
154.461
 20
127.817
 10
154.49
 20
127.759
 10
154.511
 20
127.697
 10
154.524
 20
127.633
 97
0
 75
0
 76
1
 98
0
  0
HATCH
  5
53
330
17
100
AcDbEntity
  8
RASTER
 62
7
100
AcDbHatch
 10
0.0
 20
0.0
 30
0.0
210
0.0
220
0.0
230
1.0
  2
SOLID
 70
1
 71
0
 91
1
 92
3
 72
0
 73
1
 93
48
 10
159.253
 20
124.839
 10
159.249
 20
124.774
 10
159.236
 20
124.71
 10
159.215
 20
124.648
 10
159.186
 20
124.589
 10
159.15
 20
124.535
 10
159.106
 20
124.486
 10
159.057
 20
124.443
 10
159.003
 20
124.406
 10
158.944
 20
124.378
 10
158.882
 20
124.356
 10
158.818
 20
124.344
 10
158.753
 20
124.339
 10
158.688
 20
124.344
 10
158.624
 20
124.356
 10
158.562
 20
124.378
 10
158.503
 20
124.406
 10
158.449
 20
124.443
 10
158.399
 20
124.486
 10
158.356
 20
124.535
 10
158.32
 20
124.589
 10
158.291
 20
124.648
 10
158.27
 20
124.71
 10
158.257
 20
124.774
 10
158.253
 20
124.839
 10
158.257
 20
124.905
 10
158.27
 20
124.969
 10
158.291
 20
125.031
 10
158.32
 20
125.089
 10
158.356
 20
125.144
 10
158.399
 20
125.193
 10
158.449
 20
125.236
 10
158.503
 20
125.272
 10
158.562
 20
125.301
 10
158.624
 20
125.322
 10
158.688
 20
125.335
 10
158.753
 20
125.339
 10
158.818
 20
125.335
 10
158.882
 20
125.322
 10
158.944
 20
125.301
 10
159.003
 20
125.272
 10
159.057
 20
125.236
 10
159.106
 20
125.193
 10
159.15
 20
125.144
 10
159.186
 20
125.089
 10
159.215
 20
125.031
 10
159.236
 20
124.969
 10
159.249
 20
124.905
 97
0
 75
0
 76
1
 98
0
  0
HATCH
  5
54
330
17
100
AcDbEntity
  8
RASTER
 62
7
100
AcDbHatch
 10
0.0
 20
0.0
 30
0.0
210
0.0
220
0.0
230
1.0
  2
SOLID
 70
1
 71
0
 91
1
 92
3
 72
0
 73
1
 93
48
 10
166.939
 20
117.153
 10
166.935
 20
117.088
 10
166.922
 20
117.024
 10
166.901
 20
116.962
 10
166.872
 20
116.903
 10
166.836
 20
116.849
 10
166.793
 20
116.799
 10
166.744
 20
116.756
 10
166.689
 20
116.72
 10
166.631
 20
116.691
 10
166.569
 20
116.67
 10
166.505
 20
116.657
 10
166.439
 20
116.653
 10
166.374
 20
116.657
 10
166.31
 20
116.67
 10
166.248
 20
116.691
 10
166.189
 20
116.72
 10
166.135
 20
116.756
 10
166.086
 20
116.799
 10
166.043
 20
116.849
 10
166.006
 20
116.903
 10
165.978
 20
116.962
 10
165.956
 20
117.024
 10
165.944
 20
117.088
 10
165.939
 20
117.153
 10
165.944
 20
117.218
 10
165.956
 20
117.282
 10
165.978
 20
117.344
 10
166.006
 20
117.403
 10
166.043
 20
117.457
 10
166.086
 20
117.506
 10
166.135
 20
117.55
 10
166.189
 20
117.586
 10
166.248
 20
117.615
 10
166.31
 20
117.636
 10
166.374
 20
117.649
 10
166.439
 20
117.653
 10
166.505
 20
117.649
 10
166.569
 20
117.636
 10
166.631
 20
117.615
 10
166.689
 20
117.586
 10
166.744
 20
117.55
 10
166.793
 20
117.506
 10
166.836
 20
117.457
 10
166.872
 20
117.403
 10
166.901
 20
117.344
 10
166.922
 20
117.282
 10
166.935
 20
117.218
 97
0
 75
0
 76
1
 98
0
  0
HATCH
  5
55
330
17
100
AcDbEntity
  8
RASTER
 62
7
100
AcDbHatch
 10
0.0
 20
0.0
 30
0.0
210
0.0
220
0.0
230
1.0
  2
SOLID
 70
1
 71
0
 91
1
 92
3
 72
0
 73
1
 93
48
 10
169.667
 20
112.428
 10
169.663
 20
112.363
 10
169.65
 20
112.299
 10
169.629
 20
112.237
 10
169.6
 20
112.178
 10
169.564
 20
112.124
 10
169.521
 20
112.074
 10
169.472
 20
112.031
 10
169.417
 20
111.995
 10
169.359
 20
111.966
 10
169.297
 20
111.945
 10
169.233
 20
111.932
 10
169.167
 20
111.928
 10
169.102
 20
111.932
 10
169.038
 20
111.945
 10
168.976
 20
111.966
 10
168.917
 20
111.995
 10
168.863
 20
112.031
 10
168.814
 20
112.074
 10
168.771
 20
112.124
 10
168.734
 20
112.178
 10
168.705
 20
112.237
 10
168.684
 20
112.299
 10
168.672
 20
112.363
 10
168.667
 20
112.428
 10
168.672
 20
112.493
 10
168.684
 20
112.557
 10
168.705
 20
112.619
 10
168.734
 20
112.678
 10
168.771
 20
112.732
 10
168.814
 20
112.782
 10
168.863
 20
112.825
 10
168.917
 20
112.861
 10
168.976
 20
112.89
 10
169.038
 20
112.911
 10
169.102
 20
112.924
 10
169.167
 20
112.928
 10
169.233
 20
112.924
 10
169.297
 20
112.911
 10
169.359
 20
112.89
 10
169.417
 20
112.861
 10
169.472
 20
112.825
 10
169.521
 20
112.782
 10
169.564
 20
112.732
 10
169.6
 20
112.678
 10
169.629
 20
112.619
 10
169.65
 20
112.557
 10
169.663
 20
112.493
 97
0
 75
0
 76
1
 98
0
  0
HATCH
  5
56
330
17
100
AcDbEntity
  8
RASTER
 62
7
100
AcDbHatch
 10
0.0
 20
0.0
 30
0.0
210
0.0
220
0.0
230
1.0
  2
SOLID
 70
1
 71
0
 91
1
 92
3
 72
0
 73
1
 93
48
 10
171.533
 20
107.301
 10
171.529
 20
107.236
 10
171.516
 20
107.172
 10
171.495
 20
107.11
 10
171.466
 20
107.051
 10
171.43
 20
106.997
 10
171.387
 20
106.947
 10
171.338
 20
106.904
 10
171.283
 20
106.868
 10
171.225
 20
106.839
 10
171.163
 20
106.818
 10
171.099
 20
106.805
 10
171.033
 20
106.801
 10
170.968
 20
106.805
 10
170.904
 20
106.818
 10
170.842
 20
106.839
 10
170.783
 20
106.868
 10
170.729
 20
106.904
 10
170.68
 20
106.947
 10
170.637
 20
106.997
 10
170.6
 20
107.051
 10
170.572
 20
107.11
 10
170.551
 20
107.172
 10
170.538
 20
107.236
 10
170.533
 20
107.301
 10
170.538
 20
107.366
 10
170.551
 20
107.43
 10
170.572
 20
107.492
 10
170.6
 20
107.551
 10
170.637
 20
107.605
 10
170.68
 20
107.655
 10
170.729
 20
107.698
 10
170.783
 20
107.734
 10
170.842
 20
107.763
 10
170.904
 20
107.784
 10
170.968
 20
107.797
 10
171.033
 20
107.801
 10
171.099
 20
107.797
 10
171.163
 20
107.784
 10
171.225
 20
107.763
 10
171.283
 20
107.734
 10
171.338
 20
107.698
 10
171.387
 20
107.655
 10
171.43
 20
107.605
 10
171.466
 20
107.551
 10
171.495
 20
107.492
 10
171.516
 20
107.43
 10
171.529
 20
107.366
 97
0
 75
0
 76
1
 98
0
  0
HATCH
  5
57
330
17
100
AcDbEntity
  8
RASTER
 62
7
100
AcDbHatch
 10
0.0
 20
0.0
 30
0.0
210
0.0
220
0.0
230
1.0
  2
SOLID
 70
1
 71
0
 91
2
 92
3
 72
0
 73
1
 93
48
 10
146.2
 20
130.6
 10
146.154
 20
129.895
 10
146.016
 20
129.202
 10
145.789
 20
128.534
 10
145.477
 20
127.9
 10
145.084
 20
127.313
 10
144.618
 20
126.782
 10
144.087
 20
126.316
 10
143.5
 20
125.923
 10
142.866
 20
125.611
 10
142.198
 20
125.384
 10
141.505
 20
125.246
 10
140.8
 20
125.2
 10
140.095
 20
125.246
 10
139.402
 20
125.384
 10
138.734
 20
125.611
 10
138.1
 20
125.923
 10
137.513
 20
126.316
 10
136.982
 20
126.782
 10
136.516
 20
127.313
 10
136.123
 20
127.9
 10
135.811
 20
128.534
 10
135.584
 20
129.202
 10
135.446
 20
129.895
 10
135.4
 20
130.6
 10
135.446
 20
131.305
 10
135.584
 20
131.998
 10
135.811
 20
132.666
 10
136.123
 20
133.3
 10
136.516
 20
133.887
 10
136.982
 20
134.418
 10
137.513
 20
134.884
 10
138.1
 20
135.277
 10
138.734
 20
135.589
 10
139.402
 20
135.816
 10
140.095
 20
135.954
 10
140.8
 20
136.0
 10
141.505
 20
135.954
 10
142.198
 20
135.816
 10
142.866
 20
135.589
 10
143.5
 20
135.277
 10
144.087
 20
134.884
 10
144.618
 20
134.418
 10
145.084
 20
133.887
 10
145.477
 20
133.3
 10
145.789
 20
132.666
 10
146.016
 20
131.998
 10
146.154
 20
131.305
 97
0
 92
3
 72
0
 73
1
 93
13
 10
138.866
 20
132.82
 10
138.866
 20
128.43
 10
139.647
 20
128.43
 10
139.647
 20
131.821
 10
139.659
 20
131.821
 10
141.742
 20
128.43
 10
142.734
 20
128.43
 10
142.734
 20
132.82
 10
141.953
 20
132.82
 10
141.953
 20
129.534
 10
141.941
 20
129.534
 10
139.901
 20
132.82
 10
138.866
 20
132.82
 97
0
 75
0
 76
1
 98
0
  0
HATCH
  5
58
330
17
100
AcDbEntity
  8
RASTER
 62
7
100
AcDbHatch
 10
0.0
 20
0.0
 30
0.0
210
0.0
220
0.0
230
1.0
  2
SOLID
 70
1
 71
0
 91
2
 92
3
 72
0
 73
1
 93
48
 10
177.6
 20
99.2
 10
177.554
 20
98.495
 10
177.416
 20
97.802
 10
177.189
 20
97.134
 10
176.877
 20
96.5
 10
176.484
 20
95.913
 10
176.018
 20
95.382
 10
175.487
 20
94.916
 10
174.9
 20
94.523
 10
174.266
 20
94.211
 10
173.598
 20
93.984
 10
172.905
 20
93.846
 10
172.2
 20
93.8
 10
171.495
 20
93.846
 10
170.802
 20
93.984
 10
170.134
 20
94.211
 10
169.5
 20
94.523
 10
168.913
 20
94.916
 10
168.382
 20
95.382
 10
167.916
 20
95.913
 10
167.523
 20
96.5
 10
167.211
 20
97.134
 10
166.984
 20
97.802
 10
166.846
 20
98.495
 10
166.8
 20
99.2
 10
166.846
 20
99.905
 10
166.984
 20
100.598
 10
167.211
 20
101.266
 10
167.523
 20
101.9
 10
167.916
 20
102.487
 10
168.382
 20
103.018
 10
168.913
 20
103.484
 10
169.5
 20
103.877
 10
170.134
 20
104.189
 10
170.802
 20
104.416
 10
171.495
 20
104.554
 10
172.2
 20
104.6
 10
172.905
 20
104.554
 10
173.598
 20
104.416
 10
174.266
 20
104.189
 10
174.9
 20
103.877
 10
175.487
 20
103.484
 10
176.018
 20
103.018
 10
176.484
 20
102.487
 10
176.877
 20
101.9
 10
177.189
 20
101.266
 10
177.416
 20
100.598
 10
177.554
 20
99.905
 97
0
 92
3
 72
0
 73
1
 93
13
 10
170.793
 20
101.42
 10
170.793
 20
97.03
 10
173.812
 20
97.03
 10
173.812
 20
97.724
 10
171.574
 20
97.724
 10
171.574
 20
98.964
 10
173.589
 20
98.964
 10
173.589
 20
99.622
 10
171.574
 20
99.622
 10
171.574
 20
100.738
 10
173.7
 20
100.738
 10
173.7
 20
101.42
 10
170.793
 20
101.42
 97
0
 75
0
 76
1
 98
0
  0
HATCH
  5
59
330
17
100
AcDbEntity
  8
RASTER
 62
7
100
AcDbHatch
 10
0.0
 20
0.0
 30
0.0
210
0.0
220
0.0
230
1.0
  2
SOLID
 70
1
 71
0
 91
2
 92
3
 72
0
 73
1
 93
48
 10
146.2
 20
67.8
 10
146.154
 20
67.095
 10
146.016
 20
66.402
 10
145.789
 20
65.734
 10
145.477
 20
65.1
 10
145.084
 20
64.513
 10
144.618
 20
63.982
 10
144.087
 20
63.516
 10
143.5
 20
63.123
 10
142.866
 20
62.811
 10
142.198
 20
62.584
 10
141.505
 20
62.446
 10
140.8
 20
62.4
 10
140.095
 20
62.446
 10
139.402
 20
62.584
 10
138.734
 20
62.811
 10
138.1
 20
63.123
 10
137.513
 20
63.516
 10
136.982
 20
63.982
 10
136.516
 20
64.513
 10
136.123
 20
65.1
 10
135.811
 20
65.734
 10
135.584
 20
66.402
 10
135.446
 20
67.095
 10
135.4
 20
67.8
 10
135.446
 20
68.505
 10
135.584
 20
69.198
 10
135.811
 20
69.866
 10
136.123
 20
70.5
 10
136.516
 20
71.087
 10
136.982
 20
71.618
 10
137.513
 20
72.084
 10
138.1
 20
72.477
 10
138.734
 20
72.789
 10
139.402
 20
73.016
 10
140.095
 20
73.154
 10
140.8
 20
73.2
 10
141.505
 20
73.154
 10
142.198
 20
73.016
 10
142.866
 20
72.789
 10
143.5
 20
72.477
 10
144.087
 20
72.084
 10
144.618
 20
71.618
 10
145.084
 20
71.087
 10
145.477
 20
70.5
 10
145.789
 20
69.866
 10
146.016
 20
69.198
 10
146.154
 20
68.505
 97
0
 92
3
 72
0
 73
1
 93
323
 10
141.742
 20
69.102
 10
142.251
 20
69.66
 10
142.186
 20
69.717
 10
142.118
 20
69.77
 10
142.048
 20
69.82
 10
141.974
 20
69.866
 10
141.898
 20
69.908
 10
141.819
 20
69.947
 10
141.737
 20
69.982
 10
141.653
 20
70.013
 10
141.567
 20
70.041
 10
141.481
 20
70.065
 10
141.396
 20
70.085
 10
141.311
 20
70.102
 10
141.226
 20
70.115
 10
141.142
 20
70.124
 10
141.057
 20
70.129
 10
140.974
 20
70.131
 10
140.899
 20
70.13
 10
140.825
 20
70.126
 10
140.752
 20
70.12
 10
140.678
 20
70.112
 10
140.605
 20
70.101
 10
140.532
 20
70.088
 10
140.46
 20
70.072
 10
140.388
 20
70.054
 10
140.317
 20
70.033
 10
140.247
 20
70.01
 10
140.18
 20
69.984
 10
140.115
 20
69.956
 10
140.052
 20
69.925
 10
139.99
 20
69.892
 10
139.931
 20
69.856
 10
139.873
 20
69.818
 10
139.818
 20
69.777
 10
139.765
 20
69.734
 10
139.716
 20
69.688
 10
139.669
 20
69.639
 10
139.624
 20
69.588
 10
139.582
 20
69.534
 10
139.544
 20
69.477
 10
139.507
 20
69.418
 10
139.475
 20
69.356
 10
139.446
 20
69.291
 10
139.422
 20
69.224
 10
139.403
 20
69.153
 10
139.387
 20
69.08
 10
139.377
 20
69.003
 10
139.37
 20
68.924
 10
139.368
 20
68.842
 10
139.369
 20
68.766
 10
139.374
 20
68.693
 10
139.382
 20
68.623
 10
139.393
 20
68.557
 10
139.407
 20
68.494
 10
139.424
 20
68.434
 10
139.444
 20
68.377
 10
139.467
 20
68.324
 10
139.493
 20
68.273
 10
139.52
 20
68.224
 10
139.55
 20
68.177
 10
139.581
 20
68.132
 10
139.614
 20
68.09
 10
139.649
 20
68.049
 10
139.686
 20
68.01
 10
139.724
 20
67.974
 10
139.764
 20
67.939
 10
139.806
 20
67.906
 10
139.849
 20
67.874
 10
139.892
 20
67.845
 10
139.938
 20
67.817
 10
139.984
 20
67.791
 10
140.032
 20
67.767
 10
140.081
 20
67.744
 10
140.13
 20
67.723
 10
140.18
 20
67.702
 10
140.23
 20
67.683
 10
140.279
 20
67.664
 10
140.329
 20
67.645
 10
140.378
 20
67.628
 10
140.428
 20
67.611
 10
140.478
 20
67.595
 10
140.528
 20
67.578
 10
140.579
 20
67.562
 10
140.628
 20
67.545
 10
140.678
 20
67.529
 10
140.726
 20
67.513
 10
140.774
 20
67.497
 10
140.821
 20
67.481
 10
140.868
 20
67.465
 10
140.914
 20
67.449
 10
140.958
 20
67.433
 10
141.001
 20
67.416
 10
141.042
 20
67.398
 10
141.081
 20
67.379
 10
141.119
 20
67.36
 10
141.156
 20
67.34
 10
141.191
 20
67.32
 10
141.224
 20
67.298
 10
141.255
 20
67.276
 10
141.285
 20
67.252
 10
141.313
 20
67.228
 10
141.339
 20
67.203
 10
141.364
 20
67.177
 10
141.387
 20
67.149
 10
141.408
 20
67.121
 10
141.426
 20
67.092
 10
141.443
 20
67.06
 10
141.457
 20
67.027
 10
141.468
 20
66.992
 10
141.477
 20
66.955
 10
141.483
 20
66.916
 10
141.487
 20
66.875
 10
141.488
 20
66.833
 10
141.487
 20
66.789
 10
141.484
 20
66.747
 10
141.478
 20
66.706
 10
141.47
 20
66.668
 10
141.46
 20
66.631
 10
141.448
 20
66.596
 10
141.434
 20
66.563
 10
141.417
 20
66.532
 10
141.398
 20
66.503
 10
141.379
 20
66.474
 10
141.357
 20
66.447
 10
141.335
 20
66.421
 10
141.311
 20
66.397
 10
141.286
 20
66.373
 10
141.259
 20
66.351
 10
141.231
 20
66.331
 10
141.202
 20
66.311
 10
141.172
 20
66.293
 10
141.141
 20
66.277
 10
141.109
 20
66.262
 10
141.077
 20
66.248
 10
141.043
 20
66.236
 10
141.009
 20
66.225
 10
140.974
 20
66.216
 10
140.938
 20
66.208
 10
140.903
 20
66.201
 10
140.868
 20
66.195
 10
140.833
 20
66.19
 10
140.798
 20
66.187
 10
140.763
 20
66.184
 10
140.729
 20
66.182
 10
140.695
 20
66.182
 10
140.629
 20
66.184
 10
140.564
 20
66.19
 10
140.498
 20
66.2
 10
140.432
 20
66.214
 10
140.365
 20
66.233
 10
140.299
 20
66.255
 10
140.232
 20
66.281
 10
140.165
 20
66.312
 10
140.099
 20
66.346
 10
140.036
 20
66.383
 10
139.977
 20
66.423
 10
139.922
 20
66.465
 10
139.87
 20
66.511
 10
139.821
 20
66.56
 10
139.776
 20
66.611
 10
139.734
 20
66.665
 10
139.176
 20
66.145
 10
139.243
 20
66.069
 10
139.315
 20
65.999
 10
139.392
 20
65.933
 10
139.473
 20
65.873
 10
139.559
 20
65.816
 10
139.65
 20
65.765
 10
139.745
 20
65.718
 10
139.845
 20
65.677
 10
139.948
 20
65.639
 10
140.051
 20
65.607
 10
140.155
 20
65.58
 10
140.259
 20
65.558
 10
140.364
 20
65.541
 10
140.469
 20
65.528
 10
140.576
 20
65.521
 10
140.682
 20
65.518
 10
140.762
 20
65.52
 10
140.841
 20
65.524
 10
140.92
 20
65.531
 10
140.997
 20
65.54
 10
141.073
 20
65.552
 10
141.148
 20
65.567
 10
141.223
 20
65.585
 10
141.296
 20
65.605
 10
141.368
 20
65.628
 10
141.437
 20
65.654
 10
141.504
 20
65.683
 10
141.569
 20
65.714
 10
141.631
 20
65.748
 10
141.691
 20
65.784
 10
141.749
 20
65.824
 10
141.804
 20
65.866
 10
141.857
 20
65.91
 10
141.907
 20
65.958
 10
141.955
 20
66.008
 10
142.0
 20
66.062
 10
142.042
 20
66.118
 10
142.081
 20
66.177
 10
142.118
 20
66.238
 10
142.152
 20
66.303
 10
142.182
 20
66.37
 10
142.209
 20
66.44
 10
142.231
 20
66.513
 10
142.249
 20
66.589
 10
142.263
 20
66.667
 10
142.274
 20
66.749
 10
142.28
 20
66.833
 10
142.282
 20
66.92
 10
142.28
 20
66.999
 10
142.274
 20
67.074
 10
142.265
 20
67.147
 10
142.252
 20
67.216
 10
142.235
 20
67.281
 10
142.214
 20
67.344
 10
142.189
 20
67.403
 10
142.161
 20
67.459
 10
142.13
 20
67.512
 10
142.096
 20
67.563
 10
142.061
 20
67.611
 10
142.023
 20
67.657
 10
141.983
 20
67.701
 10
141.941
 20
67.743
 10
141.897
 20
67.782
 10
141.851
 20
67.819
 10
141.803
 20
67.853
 10
141.754
 20
67.886
 10
141.704
 20
67.918
 10
141.653
 20
67.947
 10
141.6
 20
67.975
 10
141.546
 20
68.001
 10
141.491
 20
68.025
 10
141.436
 20
68.048
 10
141.379
 20
68.069
 10
141.323
 20
68.09
 10
141.268
 20
68.11
 10
141.213
 20
68.13
 10
141.159
 20
68.149
 10
141.105
 20
68.168
 10
141.051
 20
68.186
 10
140.998
 20
68.203
 10
140.952
 20
68.217
 10
140.907
 20
68.231
 10
140.863
 20
68.245
 10
140.82
 20
68.259
 10
140.778
 20
68.273
 10
140.737
 20
68.287
 10
140.697
 20
68.301
 10
140.657
 20
68.315
 10
140.619
 20
68.329
 10
140.583
 20
68.344
 10
140.548
 20
68.359
 10
140.514
 20
68.375
 10
140.482
 20
68.392
 10
140.451
 20
68.409
 10
140.422
 20
68.426
 10
140.394
 20
68.445
 10
140.368
 20
68.464
 10
140.343
 20
68.484
 10
140.319
 20
68.505
 10
140.297
 20
68.527
 10
140.276
 20
68.55
 10
140.257
 20
68.574
 10
140.24
 20
68.599
 10
140.223
 20
68.625
 10
140.209
 20
68.652
 10
140.196
 20
68.68
 10
140.186
 20
68.71
 10
140.177
 20
68.741
 10
140.17
 20
68.773
 10
140.165
 20
68.807
 10
140.162
 20
68.842
 10
140.161
 20
68.879
 10
140.163
 20
68.918
 10
140.166
 20
68.956
 10
140.171
 20
68.993
 10
140.179
 20
69.028
 10
140.189
 20
69.062
 10
140.202
 20
69.094
 10
140.216
 20
69.125
 10
140.233
 20
69.155
 10
140.251
 20
69.183
 10
140.271
 20
69.209
 10
140.292
 20
69.235
 10
140.314
 20
69.259
 10
140.338
 20
69.281
 10
140.362
 20
69.302
 10
140.388
 20
69.322
 10
140.416
 20
69.341
 10
140.444
 20
69.358
 10
140.473
 20
69.374
 10
140.503
 20
69.389
 10
140.533
 20
69.403
 10
140.565
 20
69.415
 10
140.597
 20
69.427
 10
140.63
 20
69.437
 10
140.664
 20
69.446
 10
140.698
 20
69.454
 10
140.732
 20
69.461
 10
140.766
 20
69.467
 10
140.8
 20
69.472
 10
140.834
 20
69.475
 10
140.868
 20
69.478
 10
140.902
 20
69.48
 10
140.936
 20
69.48
 10
140.994
 20
69.479
 10
141.051
 20
69.473
 10
141.108
 20
69.465
 10
141.165
 20
69.453
 10
141.222
 20
69.438
 10
141.279
 20
69.419
 10
141.335
 20
69.397
 10
141.392
 20
69.372
 10
141.447
 20
69.344
 10
141.499
 20
69.314
 10
141.547
 20
69.283
 10
141.593
 20
69.25
 10
141.635
 20
69.215
 10
141.674
 20
69.179
 10
141.71
 20
69.141
 10
141.742
 20
69.102
 97
0
 75
0
 76
1
 98
0
  0
HATCH
  5
5A
330
17
100
AcDbEntity
  8
RASTER
 62
7
100
AcDbHatch
 10
0.0
 20
0.0
 30
0.0
210
0.0
220
0.0
230
1.0
  2
SOLID
 70
1
 71
0
 91
2
 92
3
 72
0
 73
1
 93
48
 10
114.8
 20
99.2
 10
114.754
 20
98.495
 10
114.616
 20
97.802
 10
114.389
 20
97.134
 10
114.077
 20
96.5
 10
113.684
 20
95.913
 10
113.218
 20
95.382
 10
112.687
 20
94.916
 10
112.1
 20
94.523
 10
111.466
 20
94.211
 10
110.798
 20
93.984
 10
110.105
 20
93.846
 10
109.4
 20
93.8
 10
108.695
 20
93.846
 10
108.002
 20
93.984
 10
107.334
 20
94.211
 10
106.7
 20
94.523
 10
106.113
 20
94.916
 10
105.582
 20
95.382
 10
105.116
 20
95.913
 10
104.723
 20
96.5
 10
104.411
 20
97.134
 10
104.184
 20
97.802
 10
104.046
 20
98.495
 10
104.0
 20
99.2
 10
104.046
 20
99.905
 10
104.184
 20
100.598
 10
104.411
 20
101.266
 10
104.723
 20
101.9
 10
105.116
 20
102.487
 10
105.582
 20
103.018
 10
106.113
 20
103.484
 10
106.7
 20
103.877
 10
107.334
 20
104.189
 10
108.002
 20
104.416
 10
108.695
 20
104.554
 10
109.4
 20
104.6
 10
110.105
 20
104.554
 10
110.798
 20
104.416
 10
111.466
 20
104.189
 10
112.1
 20
103.877
 10
112.687
 20
103.484
 10
113.218
 20
103.018
 10
113.684
 20
102.487
 10
114.077
 20
101.9
 10
114.389
 20
101.266
 10
114.616
 20
100.598
 10
114.754
 20
99.905
 97
0
 92
3
 72
0
 73
1
 93
17
 10
106.325
 20
101.42
 10
107.608
 20
97.03
 10
108.365
 20
97.03
 10
109.394
 20
100.322
 10
109.406
 20
100.322
 10
110.435
 20
97.03
 10
111.192
 20
97.03
 10
112.475
 20
101.42
 10
111.644
 20
101.42
 10
110.776
 20
98.196
 10
110.764
 20
98.196
 10
109.815
 20
101.42
 10
109.009
 20
101.42
 10
108.042
 20
98.196
 10
108.03
 20
98.196
 10
107.18
 20
101.42
 10
106.325
 20
101.42
 97
0
 75
0
 76
1
 98
0
  0
HATCH
  5
5B
330
17
100
AcDbEntity
  8
RASTER
 62
7
100
AcDbHatch
 10
0.0
 20
0.0
 30
0.0
210
0.0
220
0.0
230
1.0
  2
SOLID
 70
1
 71
0
 91
9
 92
3
 72
0
 73
1
 93
50
 10
167.336
 20
79.921
 10
167.081
 20
79.575
 10
166.822
 20
79.233
 10
166.558
 20
78.894
 10
166.29
 20
78.558
 10
166.018
 20
78.226
 10
165.741
 20
77.898
 10
165.46
 20
77.573
 10
165.175
 20
77.253
 10
164.886
 20
76.935
 10
164.592
 20
76.622
 10
164.295
 20
76.312
 10
163.993
 20
76.007
 10
163.688
 20
75.705
 10
163.378
 20
75.408
 10
163.065
 20
75.114
 10
162.747
 20
74.825
 10
162.427
 20
74.54
 10
162.102
 20
74.259
 10
161.774
 20
73.982
 10
161.442
 20
73.71
 10
161.106
 20
73.442
 10
160.767
 20
73.178
 10
160.425
 20
72.919
 10
160.079
 20
72.664
 10
143.856
 20
94.993
 10
143.911
 20
95.033
 10
143.966
 20
95.075
 10
144.019
 20
95.116
 10
144.072
 20
95.159
 10
144.125
 20
95.202
 10
144.177
 20
95.246
 10
144.229
 20
95.29
 10
144.279
 20
95.336
 10
144.33
 20
95.382
 10
144.379
 20
95.428
 10
144.429
 20
95.475
 10
144.477
 20
95.523
 10
144.525
 20
95.571
 10
144.572
 20
95.621
 10
144.618
 20
95.67
 10
144.664
 20
95.721
 10
144.71
 20
95.771
 10
144.754
 20
95.823
 10
144.798
 20
95.875
 10
144.841
 20
95.928
 10
144.884
 20
95.981
 10
144.925
 20
96.034
 10
144.967
 20
96.089
 10
145.007
 20
96.144
 97
0
 92
3
 72
0
 73
1
 93
56
 10
159.266
 20
80.656
 10
159.455
 20
81.081
 10
159.527
 20
81.633
 10
159.716
 20
81.793
 10
159.863
 20
81.984
 10
159.956
 20
82.218
 10
159.977
 20
82.356
 10
159.954
 20
82.664
 10
159.767
 20
83.089
 10
159.903
 20
83.482
 10
159.912
 20
83.896
 10
159.841
 20
84.141
 10
159.674
 20
84.428
 10
159.387
 20
84.714
 10
159.153
 20
84.855
 10
158.834
 20
84.95
 10
158.335
 20
84.925
 10
158.027
 20
84.802
 10
157.814
 20
84.651
 10
156.847
 20
83.707
 10
156.748
 20
83.79
 10
156.327
 20
84.521
 10
156.274
 20
84.536
 10
156.235
 20
84.502
 10
156.095
 20
84.119
 10
155.987
 20
84.028
 10
155.919
 20
84.098
 10
155.736
 20
84.576
 10
155.66
 20
84.612
 10
155.638
 20
84.566
 10
155.749
 20
82.951
 10
155.796
 20
82.893
 10
155.857
 20
82.908
 10
156.025
 20
83.248
 10
156.136
 20
83.391
 10
156.208
 20
83.365
 10
156.267
 20
83.184
 10
156.231
 20
83.11
 10
155.509
 20
82.409
 10
155.29
 20
82.122
 10
155.113
 20
81.708
 10
155.082
 20
81.304
 10
155.113
 20
81.049
 10
155.239
 20
80.73
 10
155.456
 20
80.443
 10
155.764
 20
80.218
 10
156.242
 20
80.078
 10
156.677
 20
80.105
 10
157.113
 20
80.271
 10
157.336
 20
80.131
 10
157.634
 20
80.016
 10
157.942
 20
79.978
 10
158.25
 20
79.986
 10
158.569
 20
80.078
 10
158.845
 20
80.224
 10
159.266
 20
80.656
 97
0
 92
3
 72
0
 73
1
 93
323
 10
159.48
 20
76.755
 10
159.469
 20
76.998
 10
159.441
 20
76.996
 10
159.414
 20
76.993
 10
159.386
 20
76.988
 10
159.359
 20
76.982
 10
159.332
 20
76.974
 10
159.305
 20
76.965
 10
159.278
 20
76.955
 10
159.252
 20
76.942
 10
159.226
 20
76.929
 10
159.201
 20
76.915
 10
159.177
 20
76.9
 10
159.154
 20
76.885
 10
159.132
 20
76.868
 10
159.11
 20
76.851
 10
159.09
 20
76.833
 10
159.07
 20
76.814
 10
159.054
 20
76.797
 10
159.038
 20
76.78
 10
159.022
 20
76.761
 10
159.007
 20
76.743
 10
158.993
 20
76.723
 10
158.98
 20
76.704
 10
158.967
 20
76.684
 10
158.954
 20
76.663
 10
158.943
 20
76.642
 10
158.932
 20
76.621
 10
158.923
 20
76.6
 10
158.914
 20
76.579
 10
158.907
 20
76.557
 10
158.9
 20
76.536
 10
158.895
 20
76.514
 10
158.891
 20
76.492
 10
158.887
 20
76.47
 10
158.885
 20
76.448
 10
158.884
 20
76.426
 10
158.885
 20
76.404
 10
158.886
 20
76.383
 10
158.889
 20
76.361
 10
158.893
 20
76.339
 10
158.898
 20
76.317
 10
158.905
 20
76.296
 10
158.913
 20
76.274
 10
158.923
 20
76.254
 10
158.935
 20
76.233
 10
158.948
 20
76.213
 10
158.963
 20
76.193
 10
158.98
 20
76.173
 10
158.998
 20
76.154
 10
159.016
 20
76.137
 10
159.033
 20
76.121
 10
159.051
 20
76.107
 10
159.069
 20
76.095
 10
159.086
 20
76.084
 10
159.104
 20
76.074
 10
159.121
 20
76.065
 10
159.139
 20
76.059
 10
159.156
 20
76.053
 10
159.174
 20
76.048
 10
159.191
 20
76.044
 10
159.208
 20
76.041
 10
159.226
 20
76.039
 10
159.243
 20
76.037
 10
159.26
 20
76.037
 10
159.277
 20
76.037
 10
159.294
 20
76.039
 10
159.311
 20
76.04
 10
159.328
 20
76.043
 10
159.345
 20
76.046
 10
159.362
 20
76.05
 10
159.378
 20
76.055
 10
159.395
 20
76.06
 10
159.411
 20
76.066
 10
159.427
 20
76.073
 10
159.443
 20
76.079
 10
159.459
 20
76.086
 10
159.475
 20
76.093
 10
159.49
 20
76.1
 10
159.505
 20
76.108
 10
159.521
 20
76.115
 10
159.536
 20
76.123
 10
159.551
 20
76.131
 10
159.566
 20
76.138
 10
159.581
 20
76.146
 10
159.596
 20
76.153
 10
159.611
 20
76.161
 10
159.626
 20
76.168
 10
159.64
 20
76.175
 10
159.654
 20
76.182
 10
159.668
 20
76.189
 10
159.682
 20
76.195
 10
159.696
 20
76.201
 10
159.709
 20
76.206
 10
159.723
 20
76.211
 10
159.736
 20
76.216
 10
159.748
 20
76.219
 10
159.761
 20
76.223
 10
159.774
 20
76.225
 10
159.786
 20
76.227
 10
159.798
 20
76.229
 10
159.81
 20
76.23
 10
159.822
 20
76.23
 10
159.833
 20
76.229
 10
159.845
 20
76.228
 10
159.856
 20
76.227
 10
159.867
 20
76.224
 10
159.878
 20
76.221
 10
159.889
 20
76.216
 10
159.899
 20
76.211
 10
159.91
 20
76.205
 10
159.92
 20
76.197
 10
159.93
 20
76.189
 10
159.94
 20
76.179
 10
159.95
 20
76.169
 10
159.959
 20
76.159
 10
159.967
 20
76.148
 10
159.974
 20
76.138
 10
159.98
 20
76.127
 10
159.985
 20
76.116
 10
159.989
 20
76.105
 10
159.992
 20
76.095
 10
159.995
 20
76.084
 10
159.997
 20
76.073
 10
159.998
 20
76.062
 10
159.999
 20
76.051
 10
159.999
 20
76.04
 10
159.999
 20
76.028
 10
159.997
 20
76.017
 10
159.996
 20
76.006
 10
159.994
 20
75.995
 10
159.991
 20
75.984
 10
159.988
 20
75.973
 10
159.984
 20
75.963
 10
159.979
 20
75.952
 10
159.975
 20
75.942
 10
159.969
 20
75.931
 10
159.963
 20
75.921
 10
159.957
 20
75.911
 10
159.951
 20
75.902
 10
159.944
 20
75.892
 10
159.937
 20
75.883
 10
159.93
 20
75.875
 10
159.923
 20
75.866
 10
159.915
 20
75.858
 10
159.907
 20
75.85
 10
159.892
 20
75.836
 10
159.876
 20
75.822
 10
159.858
 20
75.809
 10
159.84
 20
75.797
 10
159.821
 20
75.786
 10
159.8
 20
75.776
 10
159.779
 20
75.767
 10
159.757
 20
75.759
 10
159.734
 20
75.751
 10
159.711
 20
75.746
 10
159.689
 20
75.741
 10
159.666
 20
75.738
 10
159.644
 20
75.737
 10
159.622
 20
75.737
 10
159.6
 20
75.738
 10
159.578
 20
75.741
 10
159.569
 20
75.495
 10
159.602
 20
75.493
 10
159.634
 20
75.494
 10
159.667
 20
75.496
 10
159.699
 20
75.501
 10
159.732
 20
75.508
 10
159.764
 20
75.517
 10
159.797
 20
75.528
 10
159.829
 20
75.541
 10
159.861
 20
75.556
 10
159.892
 20
75.572
 10
159.922
 20
75.59
 10
159.95
 20
75.608
 10
159.978
 20
75.628
 10
160.005
 20
75.649
 10
160.031
 20
75.672
 10
160.056
 20
75.696
 10
160.074
 20
75.714
 10
160.091
 20
75.733
 10
160.107
 20
75.753
 10
160.123
 20
75.772
 10
160.137
 20
75.793
 10
160.151
 20
75.813
 10
160.164
 20
75.834
 10
160.176
 20
75.856
 10
160.187
 20
75.877
 10
160.197
 20
75.899
 10
160.206
 20
75.921
 10
160.214
 20
75.943
 10
160.22
 20
75.965
 10
160.225
 20
75.987
 10
160.23
 20
76.009
 10
160.233
 20
76.031
 10
160.235
 20
76.053
 10
160.235
 20
76.076
 10
160.234
 20
76.098
 10
160.233
 20
76.12
 10
160.229
 20
76.143
 10
160.225
 20
76.165
 10
160.219
 20
76.187
 10
160.212
 20
76.21
 10
160.204
 20
76.232
 10
160.194
 20
76.254
 10
160.182
 20
76.276
 10
160.169
 20
76.297
 10
160.155
 20
76.318
 10
160.138
 20
76.339
 10
160.121
 20
76.36
 10
160.101
 20
76.38
 10
160.083
 20
76.398
 10
160.064
 20
76.414
 10
160.046
 20
76.428
 10
160.027
 20
76.441
 10
160.008
 20
76.452
 10
159.989
 20
76.462
 10
159.97
 20
76.469
 10
159.951
 20
76.476
 10
159.931
 20
76.481
 10
159.912
 20
76.485
 10
159.893
 20
76.488
 10
159.874
 20
76.489
 10
159.855
 20
76.49
 10
159.836
 20
76.49
 10
159.817
 20
76.489
 10
159.798
 20
76.487
 10
159.779
 20
76.484
 10
159.76
 20
76.48
 10
159.742
 20
76.476
 10
159.723
 20
76.471
 10
159.705
 20
76.465
 10
159.687
 20
76.459
 10
159.669
 20
76.452
 10
159.651
 20
76.445
 10
159.633
 20
76.437
 10
159.616
 20
76.429
 10
159.598
 20
76.421
 10
159.581
 20
76.413
 10
159.565
 20
76.405
 10
159.548
 20
76.396
 10
159.532
 20
76.388
 10
159.516
 20
76.38
 10
159.502
 20
76.373
 10
159.489
 20
76.366
 10
159.475
 20
76.359
 10
159.462
 20
76.352
 10
159.45
 20
76.346
 10
159.437
 20
76.34
 10
159.425
 20
76.334
 10
159.412
 20
76.328
 10
159.401
 20
76.322
 10
159.389
 20
76.318
 10
159.377
 20
76.313
 10
159.366
 20
76.309
 10
159.355
 20
76.305
 10
159.344
 20
76.302
 10
159.333
 20
76.3
 10
159.323
 20
76.298
 10
159.312
 20
76.296
 10
159.302
 20
76.295
 10
159.292
 20
76.294
 10
159.282
 20
76.294
 10
159.272
 20
76.295
 10
159.262
 20
76.296
 10
159.252
 20
76.297
 10
159.243
 20
76.3
 10
159.233
 20
76.302
 10
159.224
 20
76.306
 10
159.215
 20
76.31
 10
159.206
 20
76.316
 10
159.197
 20
76.321
 10
159.188
 20
76.328
 10
159.179
 20
76.335
 10
159.171
 20
76.343
 10
159.162
 20
76.353
 10
159.154
 20
76.362
 10
159.147
 20
76.372
 10
159.141
 20
76.382
 10
159.135
 20
76.392
 10
159.131
 20
76.402
 10
159.127
 20
76.412
 10
159.124
 20
76.423
 10
159.122
 20
76.433
 10
159.12
 20
76.444
 10
159.119
 20
76.454
 10
159.119
 20
76.465
 10
159.119
 20
76.475
 10
159.12
 20
76.486
 10
159.121
 20
76.496
 10
159.123
 20
76.507
 10
159.126
 20
76.517
 10
159.129
 20
76.528
 10
159.132
 20
76.538
 10
159.136
 20
76.548
 10
159.14
 20
76.558
 10
159.145
 20
76.568
 10
159.15
 20
76.578
 10
159.156
 20
76.587
 10
159.162
 20
76.597
 10
159.168
 20
76.606
 10
159.174
 20
76.616
 10
159.181
 20
76.624
 10
159.188
 20
76.633
 10
159.195
 20
76.641
 10
159.203
 20
76.65
 10
159.21
 20
76.657
 10
159.224
 20
76.67
 10
159.238
 20
76.682
 10
159.253
 20
76.693
 10
159.269
 20
76.703
 10
159.285
 20
76.713
 10
159.302
 20
76.722
 10
159.32
 20
76.73
 10
159.339
 20
76.737
 10
159.358
 20
76.743
 10
159.376
 20
76.748
 10
159.395
 20
76.752
 10
159.412
 20
76.755
 10
159.43
 20
76.756
 10
159.447
 20
76.757
 10
159.464
 20
76.757
 10
159.48
 20
76.755
 97
0
 92
3
 72
0
 73
1
 93
9
 10
159.93
 20
77.312
 10
160.776
 20
76.467
 10
160.954
 20
76.645
 10
160.108
 20
77.49
 10
160.415
 20
77.797
 10
160.26
 20
77.953
 10
159.468
 20
77.161
 10
159.623
 20
77.005
 10
159.93
 20
77.312
 97
0
 92
3
 72
0
 73
1
 93
129
 10
160.825
 20
77.523
 10
160.855
 20
77.495
 10
160.885
 20
77.468
 10
160.916
 20
77.443
 10
160.948
 20
77.421
 10
160.98
 20
77.4
 10
161.012
 20
77.381
 10
161.046
 20
77.364
 10
161.08
 20
77.349
 10
161.114
 20
77.336
 10
161.149
 20
77.324
 10
161.183
 20
77.315
 10
161.218
 20
77.307
 10
161.253
 20
77.301
 10
161.288
 20
77.297
 10
161.323
 20
77.294
 10
161.358
 20
77.294
 10
161.394
 20
77.295
 10
161.429
 20
77.298
 10
161.464
 20
77.303
 10
161.499
 20
77.31
 10
161.534
 20
77.318
 10
161.568
 20
77.329
 10
161.603
 20
77.341
 10
161.637
 20
77.355
 10
161.671
 20
77.37
 10
161.704
 20
77.388
 10
161.737
 20
77.407
 10
161.769
 20
77.428
 10
161.8
 20
77.451
 10
161.831
 20
77.476
 10
161.861
 20
77.502
 10
161.89
 20
77.53
 10
161.919
 20
77.56
 10
161.945
 20
77.59
 10
161.97
 20
77.621
 10
161.993
 20
77.653
 10
162.015
 20
77.685
 10
162.034
 20
77.718
 10
162.052
 20
77.751
 10
162.068
 20
77.785
 10
162.082
 20
77.82
 10
162.094
 20
77.854
 10
162.105
 20
77.889
 10
162.113
 20
77.924
 10
162.12
 20
77.959
 10
162.125
 20
77.994
 10
162.128
 20
78.03
 10
162.13
 20
78.065
 10
162.129
 20
78.101
 10
162.127
 20
78.136
 10
162.123
 20
78.171
 10
162.117
 20
78.206
 10
162.11
 20
78.241
 10
162.1
 20
78.276
 10
162.089
 20
78.31
 10
162.075
 20
78.345
 10
162.06
 20
78.379
 10
162.043
 20
78.412
 10
162.024
 20
78.445
 10
162.004
 20
78.477
 10
161.981
 20
78.508
 10
161.956
 20
78.539
 10
161.93
 20
78.569
 10
161.901
 20
78.599
 10
161.871
 20
78.628
 10
161.84
 20
78.655
 10
161.809
 20
78.68
 10
161.777
 20
78.703
 10
161.745
 20
78.725
 10
161.712
 20
78.744
 10
161.678
 20
78.761
 10
161.644
 20
78.776
 10
161.61
 20
78.789
 10
161.575
 20
78.8
 10
161.541
 20
78.81
 10
161.506
 20
78.817
 10
161.472
 20
78.823
 10
161.437
 20
78.827
 10
161.402
 20
78.828
 10
161.367
 20
78.828
 10
161.332
 20
78.826
 10
161.297
 20
78.823
 10
161.262
 20
78.817
 10
161.228
 20
78.81
 10
161.194
 20
78.8
 10
161.159
 20
78.789
 10
161.125
 20
78.776
 10
161.091
 20
78.762
 10
161.057
 20
78.745
 10
161.024
 20
78.727
 10
160.992
 20
78.707
 10
160.96
 20
78.686
 10
160.929
 20
78.662
 10
160.898
 20
78.637
 10
160.868
 20
78.611
 10
160.838
 20
78.582
 10
160.81
 20
78.553
 10
160.783
 20
78.523
 10
160.759
 20
78.493
 10
160.736
 20
78.461
 10
160.714
 20
78.43
 10
160.695
 20
78.397
 10
160.677
 20
78.365
 10
160.661
 20
78.331
 10
160.646
 20
78.297
 10
160.633
 20
78.263
 10
160.623
 20
78.229
 10
160.613
 20
78.195
 10
160.606
 20
78.161
 10
160.601
 20
78.126
 10
160.597
 20
78.092
 10
160.595
 20
78.057
 10
160.596
 20
78.022
 10
160.597
 20
77.987
 10
160.601
 20
77.953
 10
160.607
 20
77.918
 10
160.615
 20
77.884
 10
160.624
 20
77.849
 10
160.635
 20
77.815
 10
160.648
 20
77.78
 10
160.664
 20
77.746
 10
160.681
 20
77.713
 10
160.7
 20
77.68
 10
160.721
 20
77.647
 10
160.744
 20
77.615
 10
160.769
 20
77.584
 10
160.796
 20
77.553
 10
160.825
 20
77.523
 97
0
 92
3
 72
0
 73
1
 93
129
 10
161.019
 20
77.717
 10
161.0
 20
77.736
 10
160.982
 20
77.756
 10
160.966
 20
77.777
 10
160.95
 20
77.798
 10
160.936
 20
77.819
 10
160.923
 20
77.841
 10
160.911
 20
77.863
 10
160.9
 20
77.886
 10
160.89
 20
77.909
 10
160.881
 20
77.932
 10
160.873
 20
77.955
 10
160.867
 20
77.978
 10
160.862
 20
78.001
 10
160.858
 20
78.024
 10
160.855
 20
78.048
 10
160.854
 20
78.072
 10
160.853
 20
78.095
 10
160.854
 20
78.119
 10
160.856
 20
78.142
 10
160.859
 20
78.166
 10
160.863
 20
78.189
 10
160.869
 20
78.212
 10
160.876
 20
78.235
 10
160.884
 20
78.258
 10
160.893
 20
78.28
 10
160.904
 20
78.302
 10
160.916
 20
78.324
 10
160.929
 20
78.345
 10
160.944
 20
78.366
 10
160.96
 20
78.387
 10
160.978
 20
78.407
 10
160.996
 20
78.427
 10
161.016
 20
78.445
 10
161.036
 20
78.463
 10
161.057
 20
78.479
 10
161.078
 20
78.494
 10
161.099
 20
78.507
 10
161.121
 20
78.519
 10
161.143
 20
78.53
 10
161.166
 20
78.54
 10
161.189
 20
78.548
 10
161.212
 20
78.555
 10
161.235
 20
78.561
 10
161.259
 20
78.565
 10
161.282
 20
78.568
 10
161.306
 20
78.571
 10
161.329
 20
78.571
 10
161.353
 20
78.571
 10
161.376
 20
78.569
 10
161.4
 20
78.566
 10
161.423
 20
78.562
 10
161.447
 20
78.557
 10
161.47
 20
78.551
 10
161.493
 20
78.543
 10
161.516
 20
78.535
 10
161.539
 20
78.525
 10
161.561
 20
78.514
 10
161.584
 20
78.502
 10
161.605
 20
78.489
 10
161.627
 20
78.474
 10
161.648
 20
78.459
 10
161.668
 20
78.442
 10
161.688
 20
78.424
 10
161.708
 20
78.405
 10
161.727
 20
78.385
 10
161.746
 20
78.364
 10
161.763
 20
78.343
 10
161.779
 20
78.322
 10
161.794
 20
78.3
 10
161.807
 20
78.278
 10
161.82
 20
78.256
 10
161.831
 20
78.233
 10
161.841
 20
78.21
 10
161.85
 20
78.187
 10
161.857
 20
78.163
 10
161.863
 20
78.14
 10
161.869
 20
78.117
 10
161.873
 20
78.093
 10
161.875
 20
78.069
 10
161.877
 20
78.045
 10
161.877
 20
78.022
 10
161.876
 20
77.998
 10
161.874
 20
77.974
 10
161.87
 20
77.951
 10
161.866
 20
77.928
 10
161.86
 20
77.905
 10
161.853
 20
77.882
 10
161.844
 20
77.859
 10
161.835
 20
77.836
 10
161.824
 20
77.814
 10
161.811
 20
77.792
 10
161.798
 20
77.771
 10
161.783
 20
77.751
 10
161.767
 20
77.73
 10
161.75
 20
77.711
 10
161.732
 20
77.691
 10
161.712
 20
77.673
 10
161.693
 20
77.656
 10
161.673
 20
77.64
 10
161.652
 20
77.625
 10
161.631
 20
77.612
 10
161.609
 20
77.6
 10
161.587
 20
77.589
 10
161.565
 20
77.58
 10
161.542
 20
77.571
 10
161.519
 20
77.564
 10
161.496
 20
77.558
 10
161.473
 20
77.554
 10
161.45
 20
77.551
 10
161.426
 20
77.548
 10
161.403
 20
77.547
 10
161.379
 20
77.548
 10
161.355
 20
77.549
 10
161.331
 20
77.552
 10
161.308
 20
77.556
 10
161.284
 20
77.561
 10
161.261
 20
77.567
 10
161.238
 20
77.575
 10
161.215
 20
77.584
 10
161.192
 20
77.594
 10
161.169
 20
77.605
 10
161.146
 20
77.617
 10
161.124
 20
77.631
 10
161.102
 20
77.646
 10
161.081
 20
77.662
 10
161.06
 20
77.679
 10
161.039
 20
77.697
 10
161.019
 20
77.717
 97
0
 92
3
 72
0
 73
1
 93
57
 10
161.576
 20
79.269
 10
162.577
 20
78.268
 10
162.756
 20
78.446
 10
162.331
 20
78.871
 10
162.462
 20
79.001
 10
163.118
 20
78.808
 10
163.333
 20
79.023
 10
162.621
 20
79.2
 10
162.64
 20
79.233
 10
162.657
 20
79.265
 10
162.67
 20
79.298
 10
162.681
 20
79.33
 10
162.689
 20
79.363
 10
162.694
 20
79.395
 10
162.697
 20
79.428
 10
162.696
 20
79.46
 10
162.693
 20
79.493
 10
162.686
 20
79.524
 10
162.677
 20
79.555
 10
162.664
 20
79.585
 10
162.648
 20
79.615
 10
162.628
 20
79.644
 10
162.606
 20
79.672
 10
162.58
 20
79.699
 10
162.56
 20
79.718
 10
162.54
 20
79.736
 10
162.52
 20
79.751
 10
162.499
 20
79.765
 10
162.479
 20
79.777
 10
162.458
 20
79.787
 10
162.436
 20
79.796
 10
162.415
 20
79.803
 10
162.393
 20
79.808
 10
162.372
 20
79.812
 10
162.35
 20
79.815
 10
162.329
 20
79.816
 10
162.307
 20
79.816
 10
162.286
 20
79.815
 10
162.264
 20
79.813
 10
162.243
 20
79.809
 10
162.222
 20
79.804
 10
162.2
 20
79.798
 10
162.179
 20
79.791
 10
162.159
 20
79.783
 10
162.138
 20
79.774
 10
162.117
 20
79.763
 10
162.097
 20
79.752
 10
162.076
 20
79.74
 10
162.056
 20
79.727
 10
162.036
 20
79.713
 10
162.017
 20
79.698
 10
161.997
 20
79.683
 10
161.979
 20
79.668
 10
161.96
 20
79.652
 10
161.942
 20
79.635
 10
161.924
 20
79.617
 10
161.576
 20
79.269
 97
0
 92
3
 72
0
 73
1
 93
68
 10
162.331
 20
79.162
 10
162.186
 20
79.016
 10
161.904
 20
79.298
 10
162.066
 20
79.459
 10
162.074
 20
79.467
 10
162.083
 20
79.476
 10
162.092
 20
79.484
 10
162.101
 20
79.492
 10
162.111
 20
79.5
 10
162.121
 20
79.508
 10
162.131
 20
79.516
 10
162.141
 20
79.523
 10
162.152
 20
79.531
 10
162.162
 20
79.537
 10
162.173
 20
79.544
 10
162.183
 20
79.549
 10
162.194
 20
79.554
 10
162.205
 20
79.559
 10
162.216
 20
79.563
 10
162.227
 20
79.566
 10
162.238
 20
79.569
 10
162.249
 20
79.572
 10
162.26
 20
79.573
 10
162.271
 20
79.574
 10
162.282
 20
79.574
 10
162.293
 20
79.574
 10
162.304
 20
79.573
 10
162.315
 20
79.571
 10
162.326
 20
79.569
 10
162.337
 20
79.565
 10
162.348
 20
79.561
 10
162.359
 20
79.555
 10
162.369
 20
79.549
 10
162.38
 20
79.541
 10
162.39
 20
79.532
 10
162.401
 20
79.523
 10
162.411
 20
79.511
 10
162.421
 20
79.5
 10
162.43
 20
79.488
 10
162.437
 20
79.476
 10
162.443
 20
79.465
 10
162.448
 20
79.453
 10
162.452
 20
79.441
 10
162.455
 20
79.429
 10
162.457
 20
79.416
 10
162.458
 20
79.404
 10
162.459
 20
79.392
 10
162.458
 20
79.381
 10
162.457
 20
79.369
 10
162.455
 20
79.357
 10
162.453
 20
79.345
 10
162.449
 20
79.334
 10
162.445
 20
79.322
 10
162.441
 20
79.311
 10
162.436
 20
79.3
 10
162.43
 20
79.288
 10
162.424
 20
79.277
 10
162.417
 20
79.266
 10
162.41
 20
79.255
 10
162.402
 20
79.244
 10
162.394
 20
79.233
 10
162.385
 20
79.222
 10
162.377
 20
79.212
 10
162.368
 20
79.202
 10
162.359
 20
79.191
 10
162.35
 20
79.181
 10
162.341
 20
79.172
 10
162.331
 20
79.162
 97
0
 92
3
 72
0
 73
1
 93
17
 10
162.466
 20
80.159
 10
163.467
 20
79.158
 10
163.637
 20
79.327
 10
162.832
 20
80.132
 10
162.835
 20
80.135
 10
163.939
 20
79.63
 10
164.064
 20
79.755
 10
163.563
 20
80.863
 10
163.566
 20
80.866
 10
164.371
 20
80.061
 10
164.547
 20
80.238
 10
163.546
 20
81.239
 10
163.266
 20
80.959
 10
163.72
 20
79.991
 10
163.716
 20
79.986
 10
162.744
 20
80.438
 10
162.466
 20
80.159
 97
0
 75
0
 76
1
 98
0
  0
HATCH
  5
5C
330
17
100
AcDbEntity
  8
RASTER
 62
7
100
AcDbHatch
 10
0.0
 20
0.0
 30
0.0
210
0.0
220
0.0
230
1.0
  2
SOLID
 70
1
 71
0
 91
9
 92
3
 72
0
 73
1
 93
50
 10
121.521
 20
72.664
 10
121.175
 20
72.919
 10
120.833
 20
73.178
 10
120.494
 20
73.442
 10
120.158
 20
73.71
 10
119.826
 20
73.982
 10
119.498
 20
74.259
 10
119.173
 20
74.54
 10
118.853
 20
74.825
 10
118.535
 20
75.114
 10
118.222
 20
75.408
 10
117.912
 20
75.705
 10
117.607
 20
76.007
 10
117.305
 20
76.312
 10
117.008
 20
76.622
 10
116.714
 20
76.935
 10
116.425
 20
77.253
 10
116.14
 20
77.573
 10
115.859
 20
77.898
 10
115.582
 20
78.226
 10
115.31
 20
78.558
 10
115.042
 20
78.894
 10
114.778
 20
79.233
 10
114.519
 20
79.575
 10
114.264
 20
79.921
 10
136.593
 20
96.144
 10
136.633
 20
96.089
 10
136.675
 20
96.034
 10
136.716
 20
95.981
 10
136.759
 20
95.928
 10
136.802
 20
95.875
 10
136.846
 20
95.823
 10
136.89
 20
95.771
 10
136.936
 20
95.721
 10
136.982
 20
95.67
 10
137.028
 20
95.621
 10
137.075
 20
95.571
 10
137.123
 20
95.523
 10
137.171
 20
95.475
 10
137.221
 20
95.428
 10
137.27
 20
95.382
 10
137.321
 20
95.336
 10
137.371
 20
95.29
 10
137.423
 20
95.246
 10
137.475
 20
95.202
 10
137.528
 20
95.159
 10
137.581
 20
95.116
 10
137.634
 20
95.075
 10
137.689
 20
95.033
 10
137.744
 20
94.993
 97
0
 92
3
 72
0
 73
1
 93
56
 10
122.256
 20
80.734
 10
122.681
 20
80.545
 10
123.233
 20
80.473
 10
123.393
 20
80.284
 10
123.584
 20
80.137
 10
123.818
 20
80.044
 10
123.956
 20
80.023
 10
124.264
 20
80.046
 10
124.689
 20
80.233
 10
125.082
 20
80.097
 10
125.496
 20
80.088
 10
125.741
 20
80.159
 10
126.028
 20
80.326
 10
126.314
 20
80.613
 10
126.455
 20
80.847
 10
126.55
 20
81.166
 10
126.525
 20
81.665
 10
126.402
 20
81.973
 10
126.251
 20
82.186
 10
125.307
 20
83.153
 10
125.39
 20
83.252
 10
126.121
 20
83.673
 10
126.136
 20
83.726
 10
126.102
 20
83.765
 10
125.719
 20
83.905
 10
125.628
 20
84.013
 10
125.698
 20
84.081
 10
126.176
 20
84.264
 10
126.212
 20
84.34
 10
126.166
 20
84.362
 10
124.551
 20
84.251
 10
124.493
 20
84.204
 10
124.508
 20
84.143
 10
124.848
 20
83.975
 10
124.991
 20
83.864
 10
124.965
 20
83.792
 10
124.784
 20
83.733
 10
124.71
 20
83.769
 10
124.009
 20
84.491
 10
123.722
 20
84.71
 10
123.308
 20
84.887
 10
122.904
 20
84.918
 10
122.649
 20
84.887
 10
122.33
 20
84.761
 10
122.043
 20
84.544
 10
121.818
 20
84.236
 10
121.678
 20
83.758
 10
121.705
 20
83.323
 10
121.871
 20
82.887
 10
121.731
 20
82.664
 10
121.616
 20
82.366
 10
121.578
 20
82.058
 10
121.586
 20
81.75
 10
121.678
 20
81.431
 10
121.824
 20
81.155
 10
122.256
 20
80.734
 97
0
 92
3
 72
0
 73
1
 93
323
 10
118.355
 20
80.52
 10
118.598
 20
80.531
 10
118.596
 20
80.559
 10
118.593
 20
80.586
 10
118.588
 20
80.614
 10
118.582
 20
80.641
 10
118.574
 20
80.668
 10
118.565
 20
80.695
 10
118.555
 20
80.722
 10
118.542
 20
80.748
 10
118.529
 20
80.774
 10
118.515
 20
80.799
 10
118.5
 20
80.823
 10
118.485
 20
80.846
 10
118.468
 20
80.868
 10
118.451
 20
80.89
 10
118.433
 20
80.91
 10
118.414
 20
80.93
 10
118.397
 20
80.946
 10
118.38
 20
80.962
 10
118.361
 20
80.978
 10
118.343
 20
80.993
 10
118.323
 20
81.007
 10
118.304
 20
81.02
 10
118.284
 20
81.033
 10
118.263
 20
81.046
 10
118.242
 20
81.057
 10
118.221
 20
81.068
 10
118.2
 20
81.077
 10
118.179
 20
81.086
 10
118.157
 20
81.093
 10
118.136
 20
81.1
 10
118.114
 20
81.105
 10
118.092
 20
81.109
 10
118.07
 20
81.113
 10
118.048
 20
81.115
 10
118.026
 20
81.116
 10
118.004
 20
81.115
 10
117.983
 20
81.114
 10
117.961
 20
81.111
 10
117.939
 20
81.107
 10
117.917
 20
81.102
 10
117.896
 20
81.095
 10
117.874
 20
81.087
 10
117.854
 20
81.077
 10
117.833
 20
81.065
 10
117.813
 20
81.052
 10
117.793
 20
81.037
 10
117.773
 20
81.02
 10
117.754
 20
81.002
 10
117.737
 20
80.984
 10
117.721
 20
80.967
 10
117.707
 20
80.949
 10
117.695
 20
80.931
 10
117.684
 20
80.914
 10
117.674
 20
80.896
 10
117.665
 20
80.879
 10
117.659
 20
80.861
 10
117.653
 20
80.844
 10
117.648
 20
80.826
 10
117.644
 20
80.809
 10
117.641
 20
80.792
 10
117.639
 20
80.774
 10
117.637
 20
80.757
 10
117.637
 20
80.74
 10
117.637
 20
80.723
 10
117.639
 20
80.706
 10
117.64
 20
80.689
 10
117.643
 20
80.672
 10
117.646
 20
80.655
 10
117.65
 20
80.638
 10
117.655
 20
80.622
 10
117.66
 20
80.605
 10
117.666
 20
80.589
 10
117.673
 20
80.573
 10
117.679
 20
80.557
 10
117.686
 20
80.541
 10
117.693
 20
80.525
 10
117.7
 20
80.51
 10
117.708
 20
80.495
 10
117.715
 20
80.479
 10
117.723
 20
80.464
 10
117.731
 20
80.449
 10
117.738
 20
80.434
 10
117.746
 20
80.419
 10
117.753
 20
80.404
 10
117.761
 20
80.389
 10
117.768
 20
80.374
 10
117.775
 20
80.36
 10
117.782
 20
80.346
 10
117.789
 20
80.332
 10
117.795
 20
80.318
 10
117.801
 20
80.304
 10
117.806
 20
80.291
 10
117.811
 20
80.277
 10
117.816
 20
80.264
 10
117.819
 20
80.252
 10
117.823
 20
80.239
 10
117.825
 20
80.226
 10
117.827
 20
80.214
 10
117.829
 20
80.202
 10
117.83
 20
80.19
 10
117.83
 20
80.178
 10
117.829
 20
80.167
 10
117.828
 20
80.155
 10
117.827
 20
80.144
 10
117.824
 20
80.133
 10
117.821
 20
80.122
 10
117.816
 20
80.111
 10
117.811
 20
80.101
 10
117.805
 20
80.09
 10
117.797
 20
80.08
 10
117.789
 20
80.07
 10
117.779
 20
80.06
 10
117.769
 20
80.05
 10
117.759
 20
80.041
 10
117.748
 20
80.033
 10
117.738
 20
80.026
 10
117.727
 20
80.02
 10
117.716
 20
80.015
 10
117.705
 20
80.011
 10
117.695
 20
80.008
 10
117.684
 20
80.005
 10
117.673
 20
80.003
 10
117.662
 20
80.002
 10
117.651
 20
80.001
 10
117.64
 20
80.001
 10
117.628
 20
80.001
 10
117.617
 20
80.003
 10
117.606
 20
80.004
 10
117.595
 20
80.006
 10
117.584
 20
80.009
 10
117.573
 20
80.012
 10
117.563
 20
80.016
 10
117.552
 20
80.021
 10
117.542
 20
80.025
 10
117.531
 20
80.031
 10
117.521
 20
80.037
 10
117.511
 20
80.043
 10
117.502
 20
80.049
 10
117.492
 20
80.056
 10
117.483
 20
80.063
 10
117.475
 20
80.07
 10
117.466
 20
80.077
 10
117.458
 20
80.085
 10
117.45
 20
80.093
 10
117.436
 20
80.108
 10
117.422
 20
80.124
 10
117.409
 20
80.142
 10
117.397
 20
80.16
 10
117.386
 20
80.179
 10
117.376
 20
80.2
 10
117.367
 20
80.221
 10
117.359
 20
80.243
 10
117.351
 20
80.266
 10
117.346
 20
80.289
 10
117.341
 20
80.311
 10
117.338
 20
80.334
 10
117.337
 20
80.356
 10
117.337
 20
80.378
 10
117.338
 20
80.4
 10
117.341
 20
80.422
 10
117.095
 20
80.431
 10
117.093
 20
80.398
 10
117.094
 20
80.366
 10
117.096
 20
80.333
 10
117.101
 20
80.301
 10
117.108
 20
80.268
 10
117.117
 20
80.236
 10
117.128
 20
80.203
 10
117.141
 20
80.171
 10
117.156
 20
80.139
 10
117.172
 20
80.108
 10
117.19
 20
80.078
 10
117.208
 20
80.05
 10
117.228
 20
80.022
 10
117.249
 20
79.995
 10
117.272
 20
79.969
 10
117.296
 20
79.944
 10
117.314
 20
79.926
 10
117.333
 20
79.909
 10
117.353
 20
79.893
 10
117.372
 20
79.877
 10
117.393
 20
79.863
 10
117.413
 20
79.849
 10
117.434
 20
79.836
 10
117.456
 20
79.824
 10
117.477
 20
79.813
 10
117.499
 20
79.803
 10
117.521
 20
79.794
 10
117.543
 20
79.786
 10
117.565
 20
79.78
 10
117.587
 20
79.775
 10
117.609
 20
79.77
 10
117.631
 20
79.767
 10
117.653
 20
79.765
 10
117.676
 20
79.765
 10
117.698
 20
79.766
 10
117.72
 20
79.767
 10
117.743
 20
79.771
 10
117.765
 20
79.775
 10
117.787
 20
79.781
 10
117.81
 20
79.788
 10
117.832
 20
79.796
 10
117.854
 20
79.806
 10
117.876
 20
79.818
 10
117.897
 20
79.831
 10
117.918
 20
79.845
 10
117.939
 20
79.862
 10
117.96
 20
79.879
 10
117.98
 20
79.899
 10
117.998
 20
79.917
 10
118.014
 20
79.936
 10
118.028
 20
79.954
 10
118.041
 20
79.973
 10
118.052
 20
79.992
 10
118.062
 20
80.011
 10
118.069
 20
80.03
 10
118.076
 20
80.049
 10
118.081
 20
80.069
 10
118.085
 20
80.088
 10
118.088
 20
80.107
 10
118.089
 20
80.126
 10
118.09
 20
80.145
 10
118.09
 20
80.164
 10
118.089
 20
80.183
 10
118.087
 20
80.202
 10
118.084
 20
80.221
 10
118.08
 20
80.24
 10
118.076
 20
80.258
 10
118.071
 20
80.277
 10
118.065
 20
80.295
 10
118.059
 20
80.313
 10
118.052
 20
80.331
 10
118.045
 20
80.349
 10
118.037
 20
80.367
 10
118.029
 20
80.384
 10
118.021
 20
80.402
 10
118.013
 20
80.419
 10
118.005
 20
80.435
 10
117.996
 20
80.452
 10
117.988
 20
80.468
 10
117.98
 20
80.484
 10
117.973
 20
80.498
 10
117.966
 20
80.511
 10
117.959
 20
80.525
 10
117.952
 20
80.538
 10
117.946
 20
80.55
 10
117.94
 20
80.563
 10
117.934
 20
80.575
 10
117.928
 20
80.588
 10
117.922
 20
80.599
 10
117.918
 20
80.611
 10
117.913
 20
80.623
 10
117.909
 20
80.634
 10
117.905
 20
80.645
 10
117.902
 20
80.656
 10
117.9
 20
80.667
 10
117.898
 20
80.677
 10
117.896
 20
80.688
 10
117.895
 20
80.698
 10
117.894
 20
80.708
 10
117.894
 20
80.718
 10
117.895
 20
80.728
 10
117.896
 20
80.738
 10
117.897
 20
80.748
 10
117.9
 20
80.757
 10
117.902
 20
80.767
 10
117.906
 20
80.776
 10
117.91
 20
80.785
 10
117.916
 20
80.794
 10
117.921
 20
80.803
 10
117.928
 20
80.812
 10
117.935
 20
80.821
 10
117.943
 20
80.829
 10
117.953
 20
80.838
 10
117.962
 20
80.846
 10
117.972
 20
80.853
 10
117.982
 20
80.859
 10
117.992
 20
80.865
 10
118.002
 20
80.869
 10
118.012
 20
80.873
 10
118.023
 20
80.876
 10
118.033
 20
80.878
 10
118.044
 20
80.88
 10
118.054
 20
80.881
 10
118.065
 20
80.881
 10
118.075
 20
80.881
 10
118.086
 20
80.88
 10
118.096
 20
80.879
 10
118.107
 20
80.877
 10
118.117
 20
80.874
 10
118.128
 20
80.871
 10
118.138
 20
80.868
 10
118.148
 20
80.864
 10
118.158
 20
80.86
 10
118.168
 20
80.855
 10
118.178
 20
80.85
 10
118.187
 20
80.844
 10
118.197
 20
80.838
 10
118.206
 20
80.832
 10
118.216
 20
80.826
 10
118.224
 20
80.819
 10
118.233
 20
80.812
 10
118.241
 20
80.805
 10
118.25
 20
80.797
 10
118.257
 20
80.79
 10
118.27
 20
80.776
 10
118.282
 20
80.762
 10
118.293
 20
80.747
 10
118.303
 20
80.731
 10
118.313
 20
80.715
 10
118.322
 20
80.698
 10
118.33
 20
80.68
 10
118.337
 20
80.661
 10
118.343
 20
80.642
 10
118.348
 20
80.624
 10
118.352
 20
80.605
 10
118.355
 20
80.588
 10
118.356
 20
80.57
 10
118.357
 20
80.553
 10
118.357
 20
80.536
 10
118.355
 20
80.52
 97
0
 92
3
 72
0
 73
1
 93
9
 10
118.912
 20
80.07
 10
118.067
 20
79.224
 10
118.245
 20
79.046
 10
119.09
 20
79.892
 10
119.397
 20
79.585
 10
119.553
 20
79.74
 10
118.761
 20
80.532
 10
118.605
 20
80.377
 10
118.912
 20
80.07
 97
0
 92
3
 72
0
 73
1
 93
129
 10
119.123
 20
79.175
 10
119.095
 20
79.145
 10
119.068
 20
79.115
 10
119.043
 20
79.084
 10
119.021
 20
79.052
 10
119.0
 20
79.02
 10
118.981
 20
78.988
 10
118.964
 20
78.954
 10
118.949
 20
78.92
 10
118.936
 20
78.886
 10
118.924
 20
78.851
 10
118.915
 20
78.817
 10
118.907
 20
78.782
 10
118.901
 20
78.747
 10
118.897
 20
78.712
 10
118.894
 20
78.677
 10
118.894
 20
78.642
 10
118.895
 20
78.606
 10
118.898
 20
78.571
 10
118.903
 20
78.536
 10
118.91
 20
78.501
 10
118.918
 20
78.466
 10
118.929
 20
78.432
 10
118.941
 20
78.397
 10
118.955
 20
78.363
 10
118.97
 20
78.329
 10
118.988
 20
78.296
 10
119.007
 20
78.263
 10
119.028
 20
78.231
 10
119.051
 20
78.2
 10
119.076
 20
78.169
 10
119.102
 20
78.139
 10
119.13
 20
78.11
 10
119.16
 20
78.081
 10
119.19
 20
78.055
 10
119.221
 20
78.03
 10
119.253
 20
78.007
 10
119.285
 20
77.985
 10
119.318
 20
77.966
 10
119.351
 20
77.948
 10
119.385
 20
77.932
 10
119.42
 20
77.918
 10
119.454
 20
77.906
 10
119.489
 20
77.895
 10
119.524
 20
77.887
 10
119.559
 20
77.88
 10
119.594
 20
77.875
 10
119.63
 20
77.872
 10
119.665
 20
77.87
 10
119.701
 20
77.871
 10
119.736
 20
77.873
 10
119.771
 20
77.877
 10
119.806
 20
77.883
 10
119.841
 20
77.89
 10
119.876
 20
77.9
 10
119.91
 20
77.911
 10
119.945
 20
77.925
 10
119.979
 20
77.94
 10
120.012
 20
77.957
 10
120.045
 20
77.976
 10
120.077
 20
77.996
 10
120.108
 20
78.019
 10
120.139
 20
78.044
 10
120.169
 20
78.07
 10
120.199
 20
78.099
 10
120.228
 20
78.129
 10
120.255
 20
78.16
 10
120.28
 20
78.191
 10
120.303
 20
78.223
 10
120.325
 20
78.255
 10
120.344
 20
78.288
 10
120.361
 20
78.322
 10
120.376
 20
78.356
 10
120.389
 20
78.39
 10
120.4
 20
78.425
 10
120.41
 20
78.459
 10
120.417
 20
78.494
 10
120.423
 20
78.528
 10
120.427
 20
78.563
 10
120.428
 20
78.598
 10
120.428
 20
78.633
 10
120.426
 20
78.668
 10
120.423
 20
78.703
 10
120.417
 20
78.738
 10
120.41
 20
78.772
 10
120.4
 20
78.806
 10
120.389
 20
78.841
 10
120.376
 20
78.875
 10
120.362
 20
78.909
 10
120.345
 20
78.943
 10
120.327
 20
78.976
 10
120.307
 20
79.008
 10
120.286
 20
79.04
 10
120.262
 20
79.071
 10
120.237
 20
79.102
 10
120.211
 20
79.132
 10
120.182
 20
79.162
 10
120.153
 20
79.19
 10
120.123
 20
79.217
 10
120.093
 20
79.241
 10
120.061
 20
79.264
 10
120.03
 20
79.286
 10
119.997
 20
79.305
 10
119.965
 20
79.323
 10
119.931
 20
79.339
 10
119.897
 20
79.354
 10
119.863
 20
79.367
 10
119.829
 20
79.377
 10
119.795
 20
79.387
 10
119.761
 20
79.394
 10
119.726
 20
79.399
 10
119.692
 20
79.403
 10
119.657
 20
79.405
 10
119.622
 20
79.404
 10
119.587
 20
79.403
 10
119.553
 20
79.399
 10
119.518
 20
79.393
 10
119.484
 20
79.385
 10
119.449
 20
79.376
 10
119.415
 20
79.365
 10
119.38
 20
79.352
 10
119.346
 20
79.336
 10
119.313
 20
79.319
 10
119.28
 20
79.3
 10
119.247
 20
79.279
 10
119.215
 20
79.256
 10
119.184
 20
79.231
 10
119.153
 20
79.204
 10
119.123
 20
79.175
 97
0
 92
3
 72
0
 73
1
 93
129
 10
119.317
 20
78.981
 10
119.336
 20
79.0
 10
119.356
 20
79.018
 10
119.377
 20
79.034
 10
119.398
 20
79.05
 10
119.419
 20
79.064
 10
119.441
 20
79.077
 10
119.463
 20
79.089
 10
119.486
 20
79.1
 10
119.509
 20
79.11
 10
119.532
 20
79.119
 10
119.555
 20
79.127
 10
119.578
 20
79.133
 10
119.601
 20
79.138
 10
119.624
 20
79.142
 10
119.648
 20
79.145
 10
119.672
 20
79.146
 10
119.695
 20
79.147
 10
119.719
 20
79.146
 10
119.742
 20
79.144
 10
119.766
 20
79.141
 10
119.789
 20
79.137
 10
119.812
 20
79.131
 10
119.835
 20
79.124
 10
119.858
 20
79.116
 10
119.88
 20
79.107
 10
119.902
 20
79.096
 10
119.924
 20
79.084
 10
119.945
 20
79.071
 10
119.966
 20
79.056
 10
119.987
 20
79.04
 10
120.007
 20
79.022
 10
120.027
 20
79.004
 10
120.045
 20
78.984
 10
120.063
 20
78.964
 10
120.079
 20
78.943
 10
120.094
 20
78.922
 10
120.107
 20
78.901
 10
120.119
 20
78.879
 10
120.13
 20
78.857
 10
120.14
 20
78.834
 10
120.148
 20
78.811
 10
120.155
 20
78.788
 10
120.161
 20
78.765
 10
120.165
 20
78.741
 10
120.168
 20
78.718
 10
120.171
 20
78.694
 10
120.171
 20
78.671
 10
120.171
 20
78.647
 10
120.169
 20
78.624
 10
120.166
 20
78.6
 10
120.162
 20
78.577
 10
120.157
 20
78.553
 10
120.151
 20
78.53
 10
120.143
 20
78.507
 10
120.135
 20
78.484
 10
120.125
 20
78.461
 10
120.114
 20
78.439
 10
120.102
 20
78.416
 10
120.089
 20
78.395
 10
120.074
 20
78.373
 10
120.059
 20
78.352
 10
120.042
 20
78.332
 10
120.024
 20
78.312
 10
120.005
 20
78.292
 10
119.985
 20
78.273
 10
119.964
 20
78.254
 10
119.943
 20
78.237
 10
119.922
 20
78.221
 10
119.9
 20
78.206
 10
119.878
 20
78.193
 10
119.856
 20
78.18
 10
119.833
 20
78.169
 10
119.81
 20
78.159
 10
119.787
 20
78.15
 10
119.763
 20
78.143
 10
119.74
 20
78.137
 10
119.717
 20
78.131
 10
119.693
 20
78.127
 10
119.669
 20
78.125
 10
119.645
 20
78.123
 10
119.622
 20
78.123
 10
119.598
 20
78.124
 10
119.574
 20
78.126
 10
119.551
 20
78.13
 10
119.528
 20
78.134
 10
119.505
 20
78.14
 10
119.482
 20
78.147
 10
119.459
 20
78.156
 10
119.436
 20
78.165
 10
119.414
 20
78.176
 10
119.392
 20
78.189
 10
119.371
 20
78.202
 10
119.351
 20
78.217
 10
119.33
 20
78.233
 10
119.311
 20
78.25
 10
119.291
 20
78.268
 10
119.273
 20
78.288
 10
119.256
 20
78.307
 10
119.24
 20
78.327
 10
119.225
 20
78.348
 10
119.212
 20
78.369
 10
119.2
 20
78.391
 10
119.189
 20
78.413
 10
119.18
 20
78.435
 10
119.171
 20
78.458
 10
119.164
 20
78.481
 10
119.158
 20
78.504
 10
119.154
 20
78.527
 10
119.151
 20
78.55
 10
119.148
 20
78.574
 10
119.147
 20
78.597
 10
119.148
 20
78.621
 10
119.149
 20
78.645
 10
119.152
 20
78.669
 10
119.156
 20
78.692
 10
119.161
 20
78.716
 10
119.167
 20
78.739
 10
119.175
 20
78.762
 10
119.184
 20
78.785
 10
119.194
 20
78.808
 10
119.205
 20
78.831
 10
119.217
 20
78.854
 10
119.231
 20
78.876
 10
119.246
 20
78.898
 10
119.262
 20
78.919
 10
119.279
 20
78.94
 10
119.297
 20
78.961
 10
119.317
 20
78.981
 97
0
 92
3
 72
0
 73
1
 93
57
 10
120.869
 20
78.424
 10
119.868
 20
77.423
 10
120.046
 20
77.244
 10
120.471
 20
77.669
 10
120.601
 20
77.538
 10
120.408
 20
76.882
 10
120.623
 20
76.667
 10
120.8
 20
77.379
 10
120.833
 20
77.36
 10
120.865
 20
77.343
 10
120.898
 20
77.33
 10
120.93
 20
77.319
 10
120.963
 20
77.311
 10
120.995
 20
77.306
 10
121.028
 20
77.303
 10
121.06
 20
77.304
 10
121.093
 20
77.307
 10
121.124
 20
77.314
 10
121.155
 20
77.323
 10
121.185
 20
77.336
 10
121.215
 20
77.352
 10
121.244
 20
77.372
 10
121.272
 20
77.394
 10
121.299
 20
77.42
 10
121.318
 20
77.44
 10
121.336
 20
77.46
 10
121.351
 20
77.48
 10
121.365
 20
77.501
 10
121.377
 20
77.521
 10
121.387
 20
77.542
 10
121.396
 20
77.564
 10
121.403
 20
77.585
 10
121.408
 20
77.607
 10
121.412
 20
77.628
 10
121.415
 20
77.65
 10
121.416
 20
77.671
 10
121.416
 20
77.693
 10
121.415
 20
77.714
 10
121.413
 20
77.736
 10
121.409
 20
77.757
 10
121.404
 20
77.778
 10
121.398
 20
77.8
 10
121.391
 20
77.821
 10
121.383
 20
77.841
 10
121.374
 20
77.862
 10
121.363
 20
77.883
 10
121.352
 20
77.903
 10
121.34
 20
77.924
 10
121.327
 20
77.944
 10
121.313
 20
77.964
 10
121.298
 20
77.983
 10
121.283
 20
78.003
 10
121.268
 20
78.021
 10
121.252
 20
78.04
 10
121.235
 20
78.058
 10
121.217
 20
78.076
 10
120.869
 20
78.424
 97
0
 92
3
 72
0
 73
1
 93
68
 10
120.762
 20
77.669
 10
120.616
 20
77.814
 10
120.898
 20
78.096
 10
121.059
 20
77.934
 10
121.067
 20
77.926
 10
121.076
 20
77.917
 10
121.084
 20
77.908
 10
121.092
 20
77.899
 10
121.1
 20
77.889
 10
121.108
 20
77.879
 10
121.116
 20
77.869
 10
121.123
 20
77.859
 10
121.131
 20
77.848
 10
121.137
 20
77.838
 10
121.144
 20
77.827
 10
121.149
 20
77.817
 10
121.154
 20
77.806
 10
121.159
 20
77.795
 10
121.163
 20
77.784
 10
121.166
 20
77.773
 10
121.169
 20
77.762
 10
121.172
 20
77.751
 10
121.173
 20
77.74
 10
121.174
 20
77.729
 10
121.174
 20
77.718
 10
121.174
 20
77.707
 10
121.173
 20
77.696
 10
121.171
 20
77.685
 10
121.169
 20
77.674
 10
121.165
 20
77.663
 10
121.161
 20
77.652
 10
121.155
 20
77.641
 10
121.149
 20
77.631
 10
121.141
 20
77.62
 10
121.132
 20
77.61
 10
121.123
 20
77.599
 10
121.111
 20
77.589
 10
121.1
 20
77.579
 10
121.088
 20
77.57
 10
121.076
 20
77.563
 10
121.065
 20
77.557
 10
121.053
 20
77.552
 10
121.041
 20
77.548
 10
121.029
 20
77.545
 10
121.016
 20
77.543
 10
121.004
 20
77.542
 10
120.992
 20
77.541
 10
120.981
 20
77.542
 10
120.969
 20
77.543
 10
120.957
 20
77.545
 10
120.945
 20
77.547
 10
120.934
 20
77.551
 10
120.922
 20
77.555
 10
120.911
 20
77.559
 10
120.9
 20
77.564
 10
120.888
 20
77.57
 10
120.877
 20
77.576
 10
120.866
 20
77.583
 10
120.855
 20
77.59
 10
120.844
 20
77.598
 10
120.833
 20
77.606
 10
120.822
 20
77.615
 10
120.812
 20
77.623
 10
120.802
 20
77.632
 10
120.791
 20
77.641
 10
120.781
 20
77.65
 10
120.772
 20
77.659
 10
120.762
 20
77.669
 97
0
 92
3
 72
0
 73
1
 93
17
 10
121.759
 20
77.534
 10
120.758
 20
76.533
 10
120.927
 20
76.363
 10
121.732
 20
77.168
 10
121.735
 20
77.165
 10
121.23
 20
76.061
 10
121.355
 20
75.936
 10
122.463
 20
76.437
 10
122.466
 20
76.434
 10
121.661
 20
75.629
 10
121.838
 20
75.453
 10
122.839
 20
76.454
 10
122.559
 20
76.734
 10
121.591
 20
76.28
 10
121.586
 20
76.284
 10
122.038
 20
77.256
 10
121.759
 20
77.534
 97
0
 75
0
 76
1
 98
0
  0
HATCH
  5
5D
330
17
100
AcDbEntity
  8
RASTER
 62
7
100
AcDbHatch
 10
0.0
 20
0.0
 30
0.0
210
0.0
220
0.0
230
1.0
  2
SOLID
 70
1
 71
0
 91
9
 92
3
 72
0
 73
1
 93
50
 10
114.264
 20
118.479
 10
114.519
 20
118.825
 10
114.778
 20
119.167
 10
115.042
 20
119.506
 10
115.31
 20
119.842
 10
115.582
 20
120.174
 10
115.859
 20
120.502
 10
116.14
 20
120.827
 10
116.425
 20
121.147
 10
116.714
 20
121.465
 10
117.008
 20
121.778
 10
117.305
 20
122.088
 10
117.607
 20
122.393
 10
117.912
 20
122.695
 10
118.222
 20
122.992
 10
118.535
 20
123.286
 10
118.853
 20
123.575
 10
119.173
 20
123.86
 10
119.498
 20
124.141
 10
119.826
 20
124.418
 10
120.158
 20
124.69
 10
120.494
 20
124.958
 10
120.833
 20
125.222
 10
121.175
 20
125.481
 10
121.521
 20
125.736
 10
137.744
 20
103.407
 10
137.689
 20
103.367
 10
137.634
 20
103.325
 10
137.581
 20
103.284
 10
137.528
 20
103.241
 10
137.475
 20
103.198
 10
137.423
 20
103.154
 10
137.371
 20
103.11
 10
137.321
 20
103.064
 10
137.27
 20
103.018
 10
137.221
 20
102.972
 10
137.171
 20
102.925
 10
137.123
 20
102.877
 10
137.075
 20
102.829
 10
137.028
 20
102.779
 10
136.982
 20
102.73
 10
136.936
 20
102.679
 10
136.89
 20
102.629
 10
136.846
 20
102.577
 10
136.802
 20
102.525
 10
136.759
 20
102.472
 10
136.716
 20
102.419
 10
136.675
 20
102.366
 10
136.633
 20
102.311
 10
136.593
 20
102.256
 97
0
 92
3
 72
0
 73
1
 93
56
 10
122.334
 20
117.744
 10
122.145
 20
117.319
 10
122.073
 20
116.767
 10
121.884
 20
116.607
 10
121.737
 20
116.416
 10
121.644
 20
116.182
 10
121.623
 20
116.044
 10
121.646
 20
115.736
 10
121.833
 20
115.311
 10
121.697
 20
114.918
 10
121.688
 20
114.504
 10
121.759
 20
114.259
 10
121.926
 20
113.972
 10
122.213
 20
113.686
 10
122.447
 20
113.545
 10
122.766
 20
113.45
 10
123.265
 20
113.475
 10
123.573
 20
113.598
 10
123.786
 20
113.749
 10
124.753
 20
114.693
 10
124.852
 20
114.61
 10
125.273
 20
113.879
 10
125.326
 20
113.864
 10
125.365
 20
113.898
 10
125.505
 20
114.281
 10
125.613
 20
114.372
 10
125.681
 20
114.302
 10
125.864
 20
113.824
 10
125.94
 20
113.788
 10
125.962
 20
113.834
 10
125.851
 20
115.449
 10
125.804
 20
115.507
 10
125.743
 20
115.492
 10
125.575
 20
115.152
 10
125.464
 20
115.009
 10
125.392
 20
115.035
 10
125.333
 20
115.216
 10
125.369
 20
115.29
 10
126.091
 20
115.991
 10
126.31
 20
116.278
 10
126.487
 20
116.692
 10
126.518
 20
117.096
 10
126.487
 20
117.351
 10
126.361
 20
117.67
 10
126.144
 20
117.957
 10
125.836
 20
118.182
 10
125.358
 20
118.322
 10
124.923
 20
118.295
 10
124.487
 20
118.129
 10
124.264
 20
118.269
 10
123.966
 20
118.384
 10
123.658
 20
118.422
 10
123.35
 20
118.414
 10
123.031
 20
118.322
 10
122.755
 20
118.176
 10
122.334
 20
117.744
 97
0
 92
3
 72
0
 73
1
 93
323
 10
122.12
 20
121.645
 10
122.131
 20
121.402
 10
122.159
 20
121.404
 10
122.186
 20
121.407
 10
122.214
 20
121.412
 10
122.241
 20
121.418
 10
122.268
 20
121.426
 10
122.295
 20
121.435
 10
122.322
 20
121.445
 10
122.348
 20
121.458
 10
122.374
 20
121.471
 10
122.399
 20
121.485
 10
122.423
 20
121.5
 10
122.446
 20
121.515
 10
122.468
 20
121.532
 10
122.49
 20
121.549
 10
122.51
 20
121.567
 10
122.53
 20
121.586
 10
122.546
 20
121.603
 10
122.562
 20
121.62
 10
122.578
 20
121.639
 10
122.593
 20
121.657
 10
122.607
 20
121.677
 10
122.62
 20
121.696
 10
122.633
 20
121.716
 10
122.646
 20
121.737
 10
122.657
 20
121.758
 10
122.668
 20
121.779
 10
122.677
 20
121.8
 10
122.686
 20
121.821
 10
122.693
 20
121.843
 10
122.7
 20
121.864
 10
122.705
 20
121.886
 10
122.709
 20
121.908
 10
122.713
 20
121.93
 10
122.715
 20
121.952
 10
122.716
 20
121.974
 10
122.715
 20
121.996
 10
122.714
 20
122.017
 10
122.711
 20
122.039
 10
122.707
 20
122.061
 10
122.702
 20
122.083
 10
122.695
 20
122.104
 10
122.687
 20
122.126
 10
122.677
 20
122.146
 10
122.665
 20
122.167
 10
122.652
 20
122.187
 10
122.637
 20
122.207
 10
122.62
 20
122.227
 10
122.602
 20
122.246
 10
122.584
 20
122.263
 10
122.567
 20
122.279
 10
122.549
 20
122.293
 10
122.531
 20
122.305
 10
122.514
 20
122.316
 10
122.496
 20
122.326
 10
122.479
 20
122.335
 10
122.461
 20
122.341
 10
122.444
 20
122.347
 10
122.426
 20
122.352
 10
122.409
 20
122.356
 10
122.392
 20
122.359
 10
122.374
 20
122.361
 10
122.357
 20
122.363
 10
122.34
 20
122.363
 10
122.323
 20
122.363
 10
122.306
 20
122.361
 10
122.289
 20
122.36
 10
122.272
 20
122.357
 10
122.255
 20
122.354
 10
122.238
 20
122.35
 10
122.222
 20
122.345
 10
122.205
 20
122.34
 10
122.189
 20
122.334
 10
122.173
 20
122.327
 10
122.157
 20
122.321
 10
122.141
 20
122.314
 10
122.125
 20
122.307
 10
122.11
 20
122.3
 10
122.095
 20
122.292
 10
122.079
 20
122.285
 10
122.064
 20
122.277
 10
122.049
 20
122.269
 10
122.034
 20
122.262
 10
122.019
 20
122.254
 10
122.004
 20
122.247
 10
121.989
 20
122.239
 10
121.974
 20
122.232
 10
121.96
 20
122.225
 10
121.946
 20
122.218
 10
121.932
 20
122.211
 10
121.918
 20
122.205
 10
121.904
 20
122.199
 10
121.891
 20
122.194
 10
121.877
 20
122.189
 10
121.864
 20
122.184
 10
121.852
 20
122.181
 10
121.839
 20
122.177
 10
121.826
 20
122.175
 10
121.814
 20
122.173
 10
121.802
 20
122.171
 10
121.79
 20
122.17
 10
121.778
 20
122.17
 10
121.767
 20
122.171
 10
121.755
 20
122.172
 10
121.744
 20
122.173
 10
121.733
 20
122.176
 10
121.722
 20
122.179
 10
121.711
 20
122.184
 10
121.701
 20
122.189
 10
121.69
 20
122.195
 10
121.68
 20
122.203
 10
121.67
 20
122.211
 10
121.66
 20
122.221
 10
121.65
 20
122.231
 10
121.641
 20
122.241
 10
121.633
 20
122.252
 10
121.626
 20
122.262
 10
121.62
 20
122.273
 10
121.615
 20
122.284
 10
121.611
 20
122.295
 10
121.608
 20
122.305
 10
121.605
 20
122.316
 10
121.603
 20
122.327
 10
121.602
 20
122.338
 10
121.601
 20
122.349
 10
121.601
 20
122.36
 10
121.601
 20
122.372
 10
121.603
 20
122.383
 10
121.604
 20
122.394
 10
121.606
 20
122.405
 10
121.609
 20
122.416
 10
121.612
 20
122.427
 10
121.616
 20
122.437
 10
121.621
 20
122.448
 10
121.625
 20
122.458
 10
121.631
 20
122.469
 10
121.637
 20
122.479
 10
121.643
 20
122.489
 10
121.649
 20
122.498
 10
121.656
 20
122.508
 10
121.663
 20
122.517
 10
121.67
 20
122.525
 10
121.677
 20
122.534
 10
121.685
 20
122.542
 10
121.693
 20
122.55
 10
121.708
 20
122.564
 10
121.724
 20
122.578
 10
121.742
 20
122.591
 10
121.76
 20
122.603
 10
121.779
 20
122.614
 10
121.8
 20
122.624
 10
121.821
 20
122.633
 10
121.843
 20
122.641
 10
121.866
 20
122.649
 10
121.889
 20
122.654
 10
121.911
 20
122.659
 10
121.934
 20
122.662
 10
121.956
 20
122.663
 10
121.978
 20
122.663
 10
122.0
 20
122.662
 10
122.022
 20
122.659
 10
122.031
 20
122.905
 10
121.998
 20
122.907
 10
121.966
 20
122.906
 10
121.933
 20
122.904
 10
121.901
 20
122.899
 10
121.868
 20
122.892
 10
121.836
 20
122.883
 10
121.803
 20
122.872
 10
121.771
 20
122.859
 10
121.739
 20
122.844
 10
121.708
 20
122.828
 10
121.678
 20
122.81
 10
121.65
 20
122.792
 10
121.622
 20
122.772
 10
121.595
 20
122.751
 10
121.569
 20
122.728
 10
121.544
 20
122.704
 10
121.526
 20
122.686
 10
121.509
 20
122.667
 10
121.493
 20
122.647
 10
121.477
 20
122.628
 10
121.463
 20
122.607
 10
121.449
 20
122.587
 10
121.436
 20
122.566
 10
121.424
 20
122.544
 10
121.413
 20
122.523
 10
121.403
 20
122.501
 10
121.394
 20
122.479
 10
121.386
 20
122.457
 10
121.38
 20
122.435
 10
121.375
 20
122.413
 10
121.37
 20
122.391
 10
121.367
 20
122.369
 10
121.365
 20
122.347
 10
121.365
 20
122.324
 10
121.366
 20
122.302
 10
121.367
 20
122.28
 10
121.371
 20
122.257
 10
121.375
 20
122.235
 10
121.381
 20
122.213
 10
121.388
 20
122.19
 10
121.396
 20
122.168
 10
121.406
 20
122.146
 10
121.418
 20
122.124
 10
121.431
 20
122.103
 10
121.445
 20
122.082
 10
121.462
 20
122.061
 10
121.479
 20
122.04
 10
121.499
 20
122.02
 10
121.517
 20
122.002
 10
121.536
 20
121.986
 10
121.554
 20
121.972
 10
121.573
 20
121.959
 10
121.592
 20
121.948
 10
121.611
 20
121.938
 10
121.63
 20
121.931
 10
121.649
 20
121.924
 10
121.669
 20
121.919
 10
121.688
 20
121.915
 10
121.707
 20
121.912
 10
121.726
 20
121.911
 10
121.745
 20
121.91
 10
121.764
 20
121.91
 10
121.783
 20
121.911
 10
121.802
 20
121.913
 10
121.821
 20
121.916
 10
121.84
 20
121.92
 10
121.858
 20
121.924
 10
121.877
 20
121.929
 10
121.895
 20
121.935
 10
121.913
 20
121.941
 10
121.931
 20
121.948
 10
121.949
 20
121.955
 10
121.967
 20
121.963
 10
121.984
 20
121.971
 10
122.002
 20
121.979
 10
122.019
 20
121.987
 10
122.035
 20
121.995
 10
122.052
 20
122.004
 10
122.068
 20
122.012
 10
122.084
 20
122.02
 10
122.098
 20
122.027
 10
122.111
 20
122.034
 10
122.125
 20
122.041
 10
122.138
 20
122.048
 10
122.15
 20
122.054
 10
122.163
 20
122.06
 10
122.175
 20
122.066
 10
122.188
 20
122.072
 10
122.199
 20
122.078
 10
122.211
 20
122.082
 10
122.223
 20
122.087
 10
122.234
 20
122.091
 10
122.245
 20
122.095
 10
122.256
 20
122.098
 10
122.267
 20
122.1
 10
122.277
 20
122.102
 10
122.288
 20
122.104
 10
122.298
 20
122.105
 10
122.308
 20
122.106
 10
122.318
 20
122.106
 10
122.328
 20
122.105
 10
122.338
 20
122.104
 10
122.348
 20
122.103
 10
122.357
 20
122.1
 10
122.367
 20
122.098
 10
122.376
 20
122.094
 10
122.385
 20
122.09
 10
122.394
 20
122.084
 10
122.403
 20
122.079
 10
122.412
 20
122.072
 10
122.421
 20
122.065
 10
122.429
 20
122.057
 10
122.438
 20
122.047
 10
122.446
 20
122.038
 10
122.453
 20
122.028
 10
122.459
 20
122.018
 10
122.465
 20
122.008
 10
122.469
 20
121.998
 10
122.473
 20
121.988
 10
122.476
 20
121.977
 10
122.478
 20
121.967
 10
122.48
 20
121.956
 10
122.481
 20
121.946
 10
122.481
 20
121.935
 10
122.481
 20
121.925
 10
122.48
 20
121.914
 10
122.479
 20
121.904
 10
122.477
 20
121.893
 10
122.474
 20
121.883
 10
122.471
 20
121.872
 10
122.468
 20
121.862
 10
122.464
 20
121.852
 10
122.46
 20
121.842
 10
122.455
 20
121.832
 10
122.45
 20
121.822
 10
122.444
 20
121.813
 10
122.438
 20
121.803
 10
122.432
 20
121.794
 10
122.426
 20
121.784
 10
122.419
 20
121.776
 10
122.412
 20
121.767
 10
122.405
 20
121.759
 10
122.397
 20
121.75
 10
122.39
 20
121.743
 10
122.376
 20
121.73
 10
122.362
 20
121.718
 10
122.347
 20
121.707
 10
122.331
 20
121.697
 10
122.315
 20
121.687
 10
122.298
 20
121.678
 10
122.28
 20
121.67
 10
122.261
 20
121.663
 10
122.242
 20
121.657
 10
122.224
 20
121.652
 10
122.205
 20
121.648
 10
122.188
 20
121.645
 10
122.17
 20
121.644
 10
122.153
 20
121.643
 10
122.136
 20
121.643
 10
122.12
 20
121.645
 97
0
 92
3
 72
0
 73
1
 93
9
 10
121.67
 20
121.088
 10
120.824
 20
121.933
 10
120.646
 20
121.755
 10
121.492
 20
120.91
 10
121.185
 20
120.603
 10
121.34
 20
120.447
 10
122.132
 20
121.239
 10
121.977
 20
121.395
 10
121.67
 20
121.088
 97
0
 92
3
 72
0
 73
1
 93
129
 10
120.775
 20
120.877
 10
120.745
 20
120.905
 10
120.715
 20
120.932
 10
120.684
 20
120.957
 10
120.652
 20
120.979
 10
120.62
 20
121.0
 10
120.588
 20
121.019
 10
120.554
 20
121.036
 10
120.52
 20
121.051
 10
120.486
 20
121.064
 10
120.451
 20
121.076
 10
120.417
 20
121.085
 10
120.382
 20
121.093
 10
120.347
 20
121.099
 10
120.312
 20
121.103
 10
120.277
 20
121.106
 10
120.242
 20
121.106
 10
120.206
 20
121.105
 10
120.171
 20
121.102
 10
120.136
 20
121.097
 10
120.101
 20
121.09
 10
120.066
 20
121.082
 10
120.032
 20
121.071
 10
119.997
 20
121.059
 10
119.963
 20
121.045
 10
119.929
 20
121.03
 10
119.896
 20
121.012
 10
119.863
 20
120.993
 10
119.831
 20
120.972
 10
119.8
 20
120.949
 10
119.769
 20
120.924
 10
119.739
 20
120.898
 10
119.71
 20
120.87
 10
119.681
 20
120.84
 10
119.655
 20
120.81
 10
119.63
 20
120.779
 10
119.607
 20
120.747
 10
119.585
 20
120.715
 10
119.566
 20
120.682
 10
119.548
 20
120.649
 10
119.532
 20
120.615
 10
119.518
 20
120.58
 10
119.506
 20
120.546
 10
119.495
 20
120.511
 10
119.487
 20
120.476
 10
119.48
 20
120.441
 10
119.475
 20
120.406
 10
119.472
 20
120.37
 10
119.47
 20
120.335
 10
119.471
 20
120.299
 10
119.473
 20
120.264
 10
119.477
 20
120.229
 10
119.483
 20
120.194
 10
119.49
 20
120.159
 10
119.5
 20
120.124
 10
119.511
 20
120.09
 10
119.525
 20
120.055
 10
119.54
 20
120.021
 10
119.557
 20
119.988
 10
119.576
 20
119.955
 10
119.596
 20
119.923
 10
119.619
 20
119.892
 10
119.644
 20
119.861
 10
119.67
 20
119.831
 10
119.699
 20
119.801
 10
119.729
 20
119.772
 10
119.76
 20
119.745
 10
119.791
 20
119.72
 10
119.823
 20
119.697
 10
119.855
 20
119.675
 10
119.888
 20
119.656
 10
119.922
 20
119.639
 10
119.956
 20
119.624
 10
119.99
 20
119.611
 10
120.025
 20
119.6
 10
120.059
 20
119.59
 10
120.094
 20
119.583
 10
120.128
 20
119.577
 10
120.163
 20
119.573
 10
120.198
 20
119.572
 10
120.233
 20
119.572
 10
120.268
 20
119.574
 10
120.303
 20
119.577
 10
120.338
 20
119.583
 10
120.372
 20
119.59
 10
120.406
 20
119.6
 10
120.441
 20
119.611
 10
120.475
 20
119.624
 10
120.509
 20
119.638
 10
120.543
 20
119.655
 10
120.576
 20
119.673
 10
120.608
 20
119.693
 10
120.64
 20
119.714
 10
120.671
 20
119.738
 10
120.702
 20
119.763
 10
120.732
 20
119.789
 10
120.762
 20
119.818
 10
120.79
 20
119.847
 10
120.817
 20
119.877
 10
120.841
 20
119.907
 10
120.864
 20
119.939
 10
120.886
 20
119.97
 10
120.905
 20
120.003
 10
120.923
 20
120.035
 10
120.939
 20
120.069
 10
120.954
 20
120.103
 10
120.967
 20
120.137
 10
120.977
 20
120.171
 10
120.987
 20
120.205
 10
120.994
 20
120.239
 10
120.999
 20
120.274
 10
121.003
 20
120.308
 10
121.005
 20
120.343
 10
121.004
 20
120.378
 10
121.003
 20
120.413
 10
120.999
 20
120.447
 10
120.993
 20
120.482
 10
120.985
 20
120.516
 10
120.976
 20
120.551
 10
120.965
 20
120.585
 10
120.952
 20
120.62
 10
120.936
 20
120.654
 10
120.919
 20
120.687
 10
120.9
 20
120.72
 10
120.879
 20
120.753
 10
120.856
 20
120.785
 10
120.831
 20
120.816
 10
120.804
 20
120.847
 10
120.775
 20
120.877
 97
0
 92
3
 72
0
 73
1
 93
129
 10
120.581
 20
120.683
 10
120.6
 20
120.664
 10
120.618
 20
120.644
 10
120.634
 20
120.623
 10
120.65
 20
120.602
 10
120.664
 20
120.581
 10
120.677
 20
120.559
 10
120.689
 20
120.537
 10
120.7
 20
120.514
 10
120.71
 20
120.491
 10
120.719
 20
120.468
 10
120.727
 20
120.445
 10
120.733
 20
120.422
 10
120.738
 20
120.399
 10
120.742
 20
120.376
 10
120.745
 20
120.352
 10
120.746
 20
120.328
 10
120.747
 20
120.305
 10
120.746
 20
120.281
 10
120.744
 20
120.258
 10
120.741
 20
120.234
 10
120.737
 20
120.211
 10
120.731
 20
120.188
 10
120.724
 20
120.165
 10
120.716
 20
120.142
 10
120.707
 20
120.12
 10
120.696
 20
120.098
 10
120.684
 20
120.076
 10
120.671
 20
120.055
 10
120.656
 20
120.034
 10
120.64
 20
120.013
 10
120.622
 20
119.993
 10
120.604
 20
119.973
 10
120.584
 20
119.955
 10
120.564
 20
119.937
 10
120.543
 20
119.921
 10
120.522
 20
119.906
 10
120.501
 20
119.893
 10
120.479
 20
119.881
 10
120.457
 20
119.87
 10
120.434
 20
119.86
 10
120.411
 20
119.852
 10
120.388
 20
119.845
 10
120.365
 20
119.839
 10
120.341
 20
119.835
 10
120.318
 20
119.832
 10
120.294
 20
119.829
 10
120.271
 20
119.829
 10
120.247
 20
119.829
 10
120.224
 20
119.831
 10
120.2
 20
119.834
 10
120.177
 20
119.838
 10
120.153
 20
119.843
 10
120.13
 20
119.849
 10
120.107
 20
119.857
 10
120.084
 20
119.865
 10
120.061
 20
119.875
 10
120.039
 20
119.886
 10
120.016
 20
119.898
 10
119.995
 20
119.911
 10
119.973
 20
119.926
 10
119.952
 20
119.941
 10
119.932
 20
119.958
 10
119.912
 20
119.976
 10
119.892
 20
119.995
 10
119.873
 20
120.015
 10
119.854
 20
120.036
 10
119.837
 20
120.057
 10
119.821
 20
120.078
 10
119.806
 20
120.1
 10
119.793
 20
120.122
 10
119.78
 20
120.144
 10
119.769
 20
120.167
 10
119.759
 20
120.19
 10
119.75
 20
120.213
 10
119.743
 20
120.237
 10
119.737
 20
120.26
 10
119.731
 20
120.283
 10
119.727
 20
120.307
 10
119.725
 20
120.331
 10
119.723
 20
120.355
 10
119.723
 20
120.378
 10
119.724
 20
120.402
 10
119.726
 20
120.426
 10
119.73
 20
120.449
 10
119.734
 20
120.472
 10
119.74
 20
120.495
 10
119.747
 20
120.518
 10
119.756
 20
120.541
 10
119.765
 20
120.564
 10
119.776
 20
120.586
 10
119.789
 20
120.608
 10
119.802
 20
120.629
 10
119.817
 20
120.649
 10
119.833
 20
120.67
 10
119.85
 20
120.689
 10
119.868
 20
120.709
 10
119.888
 20
120.727
 10
119.907
 20
120.744
 10
119.927
 20
120.76
 10
119.948
 20
120.775
 10
119.969
 20
120.788
 10
119.991
 20
120.8
 10
120.013
 20
120.811
 10
120.035
 20
120.82
 10
120.058
 20
120.829
 10
120.081
 20
120.836
 10
120.104
 20
120.842
 10
120.127
 20
120.846
 10
120.15
 20
120.849
 10
120.174
 20
120.852
 10
120.197
 20
120.853
 10
120.221
 20
120.852
 10
120.245
 20
120.851
 10
120.269
 20
120.848
 10
120.292
 20
120.844
 10
120.316
 20
120.839
 10
120.339
 20
120.833
 10
120.362
 20
120.825
 10
120.385
 20
120.816
 10
120.408
 20
120.806
 10
120.431
 20
120.795
 10
120.454
 20
120.783
 10
120.476
 20
120.769
 10
120.498
 20
120.754
 10
120.519
 20
120.738
 10
120.54
 20
120.721
 10
120.561
 20
120.703
 10
120.581
 20
120.683
 97
0
 92
3
 72
0
 73
1
 93
57
 10
120.024
 20
119.131
 10
119.023
 20
120.132
 10
118.844
 20
119.954
 10
119.269
 20
119.529
 10
119.138
 20
119.399
 10
118.482
 20
119.592
 10
118.267
 20
119.377
 10
118.979
 20
119.2
 10
118.96
 20
119.167
 10
118.943
 20
119.135
 10
118.93
 20
119.102
 10
118.919
 20
119.07
 10
118.911
 20
119.037
 10
118.906
 20
119.005
 10
118.903
 20
118.972
 10
118.904
 20
118.94
 10
118.907
 20
118.907
 10
118.914
 20
118.876
 10
118.923
 20
118.845
 10
118.936
 20
118.815
 10
118.952
 20
118.785
 10
118.972
 20
118.756
 10
118.994
 20
118.728
 10
119.02
 20
118.701
 10
119.04
 20
118.682
 10
119.06
 20
118.664
 10
119.08
 20
118.649
 10
119.101
 20
118.635
 10
119.121
 20
118.623
 10
119.142
 20
118.613
 10
119.164
 20
118.604
 10
119.185
 20
118.597
 10
119.207
 20
118.592
 10
119.228
 20
118.588
 10
119.25
 20
118.585
 10
119.271
 20
118.584
 10
119.293
 20
118.584
 10
119.314
 20
118.585
 10
119.336
 20
118.587
 10
119.357
 20
118.591
 10
119.378
 20
118.596
 10
119.4
 20
118.602
 10
119.421
 20
118.609
 10
119.441
 20
118.617
 10
119.462
 20
118.626
 10
119.483
 20
118.637
 10
119.503
 20
118.648
 10
119.524
 20
118.66
 10
119.544
 20
118.673
 10
119.564
 20
118.687
 10
119.583
 20
118.702
 10
119.603
 20
118.717
 10
119.621
 20
118.732
 10
119.64
 20
118.748
 10
119.658
 20
118.765
 10
119.676
 20
118.783
 10
120.024
 20
119.131
 97
0
 92
3
 72
0
 73
1
 93
68
 10
119.269
 20
119.238
 10
119.414
 20
119.384
 10
119.696
 20
119.102
 10
119.534
 20
118.941
 10
119.526
 20
118.933
 10
119.517
 20
118.924
 10
119.508
 20
118.916
 10
119.499
 20
118.908
 10
119.489
 20
118.9
 10
119.479
 20
118.892
 10
119.469
 20
118.884
 10
119.459
 20
118.877
 10
119.448
 20
118.869
 10
119.438
 20
118.863
 10
119.427
 20
118.856
 10
119.417
 20
118.851
 10
119.406
 20
118.846
 10
119.395
 20
118.841
 10
119.384
 20
118.837
 10
119.373
 20
118.834
 10
119.362
 20
118.831
 10
119.351
 20
118.828
 10
119.34
 20
118.827
 10
119.329
 20
118.826
 10
119.318
 20
118.826
 10
119.307
 20
118.826
 10
119.296
 20
118.827
 10
119.285
 20
118.829
 10
119.274
 20
118.831
 10
119.263
 20
118.835
 10
119.252
 20
118.839
 10
119.241
 20
118.845
 10
119.231
 20
118.851
 10
119.22
 20
118.859
 10
119.21
 20
118.868
 10
119.199
 20
118.877
 10
119.189
 20
118.889
 10
119.179
 20
118.9
 10
119.17
 20
118.912
 10
119.163
 20
118.924
 10
119.157
 20
118.935
 10
119.152
 20
118.947
 10
119.148
 20
118.959
 10
119.145
 20
118.971
 10
119.143
 20
118.984
 10
119.142
 20
118.996
 10
119.141
 20
119.008
 10
119.142
 20
119.019
 10
119.143
 20
119.031
 10
119.145
 20
119.043
 10
119.147
 20
119.055
 10
119.151
 20
119.066
 10
119.155
 20
119.078
 10
119.159
 20
119.089
 10
119.164
 20
119.1
 10
119.17
 20
119.112
 10
119.176
 20
119.123
 10
119.183
 20
119.134
 10
119.19
 20
119.145
 10
119.198
 20
119.156
 10
119.206
 20
119.167
 10
119.215
 20
119.178
 10
119.223
 20
119.188
 10
119.232
 20
119.198
 10
119.241
 20
119.209
 10
119.25
 20
119.219
 10
119.259
 20
119.228
 10
119.269
 20
119.238
 97
0
 92
3
 72
0
 73
1
 93
17
 10
119.134
 20
118.241
 10
118.133
 20
119.242
 10
117.963
 20
119.073
 10
118.768
 20
118.268
 10
118.765
 20
118.265
 10
117.661
 20
118.77
 10
117.536
 20
118.645
 10
118.037
 20
117.537
 10
118.034
 20
117.534
 10
117.229
 20
118.339
 10
117.053
 20
118.162
 10
118.054
 20
117.161
 10
118.334
 20
117.441
 10
117.88
 20
118.409
 10
117.884
 20
118.414
 10
118.856
 20
117.962
 10
119.134
 20
118.241
 97
0
 75
0
 76
1
 98
0
  0
HATCH
  5
5E
330
17
100
AcDbEntity
  8
RASTER
 62
7
100
AcDbHatch
 10
0.0
 20
0.0
 30
0.0
210
0.0
220
0.0
230
1.0
  2
SOLID
 70
1
 71
0
 91
9
 92
3
 72
0
 73
1
 93
50
 10
160.079
 20
125.736
 10
160.425
 20
125.481
 10
160.767
 20
125.222
 10
161.106
 20
124.958
 10
161.442
 20
124.69
 10
161.774
 20
124.418
 10
162.102
 20
124.141
 10
162.427
 20
123.86
 10
162.747
 20
123.575
 10
163.065
 20
123.286
 10
163.378
 20
122.992
 10
163.688
 20
122.695
 10
163.993
 20
122.393
 10
164.295
 20
122.088
 10
164.592
 20
121.778
 10
164.886
 20
121.465
 10
165.175
 20
121.147
 10
165.46
 20
120.827
 10
165.741
 20
120.502
 10
166.018
 20
120.174
 10
166.29
 20
119.842
 10
166.558
 20
119.506
 10
166.822
 20
119.167
 10
167.081
 20
118.825
 10
167.336
 20
118.479
 10
145.007
 20
102.256
 10
144.967
 20
102.311
 10
144.925
 20
102.366
 10
144.884
 20
102.419
 10
144.841
 20
102.472
 10
144.798
 20
102.525
 10
144.754
 20
102.577
 10
144.71
 20
102.629
 10
144.664
 20
102.679
 10
144.618
 20
102.73
 10
144.572
 20
102.779
 10
144.525
 20
102.829
 10
144.477
 20
102.877
 10
144.429
 20
102.925
 10
144.379
 20
102.972
 10
144.33
 20
103.018
 10
144.279
 20
103.064
 10
144.229
 20
103.11
 10
144.177
 20
103.154
 10
144.125
 20
103.198
 10
144.072
 20
103.241
 10
144.019
 20
103.284
 10
143.966
 20
103.325
 10
143.911
 20
103.367
 10
143.856
 20
103.407
 97
0
 92
3
 72
0
 73
1
 93
56
 10
159.344
 20
117.666
 10
158.919
 20
117.855
 10
158.367
 20
117.927
 10
158.207
 20
118.116
 10
158.016
 20
118.263
 10
157.782
 20
118.356
 10
157.644
 20
118.377
 10
157.336
 20
118.354
 10
156.911
 20
118.167
 10
156.518
 20
118.303
 10
156.104
 20
118.312
 10
155.859
 20
118.241
 10
155.572
 20
118.074
 10
155.286
 20
117.787
 10
155.145
 20
117.553
 10
155.05
 20
117.234
 10
155.075
 20
116.735
 10
155.198
 20
116.427
 10
155.349
 20
116.214
 10
156.293
 20
115.247
 10
156.21
 20
115.148
 10
155.479
 20
114.727
 10
155.464
 20
114.674
 10
155.498
 20
114.635
 10
155.881
 20
114.495
 10
155.972
 20
114.387
 10
155.902
 20
114.319
 10
155.424
 20
114.136
 10
155.388
 20
114.06
 10
155.434
 20
114.038
 10
157.049
 20
114.149
 10
157.107
 20
114.196
 10
157.092
 20
114.257
 10
156.752
 20
114.425
 10
156.609
 20
114.536
 10
156.635
 20
114.608
 10
156.816
 20
114.667
 10
156.89
 20
114.631
 10
157.591
 20
113.909
 10
157.878
 20
113.69
 10
158.292
 20
113.513
 10
158.696
 20
113.482
 10
158.951
 20
113.513
 10
159.27
 20
113.639
 10
159.557
 20
113.856
 10
159.782
 20
114.164
 10
159.922
 20
114.642
 10
159.895
 20
115.077
 10
159.729
 20
115.513
 10
159.869
 20
115.736
 10
159.984
 20
116.034
 10
160.022
 20
116.342
 10
160.014
 20
116.65
 10
159.922
 20
116.969
 10
159.776
 20
117.245
 10
159.344
 20
117.666
 97
0
 92
3
 72
0
 73
1
 93
323
 10
163.245
 20
117.88
 10
163.002
 20
117.869
 10
163.004
 20
117.841
 10
163.007
 20
117.814
 10
163.012
 20
117.786
 10
163.018
 20
117.759
 10
163.026
 20
117.732
 10
163.035
 20
117.705
 10
163.045
 20
117.678
 10
163.058
 20
117.652
 10
163.071
 20
117.626
 10
163.085
 20
117.601
 10
163.1
 20
117.577
 10
163.115
 20
117.554
 10
163.132
 20
117.532
 10
163.149
 20
117.51
 10
163.167
 20
117.49
 10
163.186
 20
117.47
 10
163.203
 20
117.454
 10
163.22
 20
117.438
 10
163.239
 20
117.422
 10
163.257
 20
117.407
 10
163.277
 20
117.393
 10
163.296
 20
117.38
 10
163.316
 20
117.367
 10
163.337
 20
117.354
 10
163.358
 20
117.343
 10
163.379
 20
117.332
 10
163.4
 20
117.323
 10
163.421
 20
117.314
 10
163.443
 20
117.307
 10
163.464
 20
117.3
 10
163.486
 20
117.295
 10
163.508
 20
117.291
 10
163.53
 20
117.287
 10
163.552
 20
117.285
 10
163.574
 20
117.284
 10
163.596
 20
117.285
 10
163.617
 20
117.286
 10
163.639
 20
117.289
 10
163.661
 20
117.293
 10
163.683
 20
117.298
 10
163.704
 20
117.305
 10
163.726
 20
117.313
 10
163.746
 20
117.323
 10
163.767
 20
117.335
 10
163.787
 20
117.348
 10
163.807
 20
117.363
 10
163.827
 20
117.38
 10
163.846
 20
117.398
 10
163.863
 20
117.416
 10
163.879
 20
117.433
 10
163.893
 20
117.451
 10
163.905
 20
117.469
 10
163.916
 20
117.486
 10
163.926
 20
117.504
 10
163.935
 20
117.521
 10
163.941
 20
117.539
 10
163.947
 20
117.556
 10
163.952
 20
117.574
 10
163.956
 20
117.591
 10
163.959
 20
117.608
 10
163.961
 20
117.626
 10
163.963
 20
117.643
 10
163.963
 20
117.66
 10
163.963
 20
117.677
 10
163.961
 20
117.694
 10
163.96
 20
117.711
 10
163.957
 20
117.728
 10
163.954
 20
117.745
 10
163.95
 20
117.762
 10
163.945
 20
117.778
 10
163.94
 20
117.795
 10
163.934
 20
117.811
 10
163.927
 20
117.827
 10
163.921
 20
117.843
 10
163.914
 20
117.859
 10
163.907
 20
117.875
 10
163.9
 20
117.89
 10
163.892
 20
117.905
 10
163.885
 20
117.921
 10
163.877
 20
117.936
 10
163.869
 20
117.951
 10
163.862
 20
117.966
 10
163.854
 20
117.981
 10
163.847
 20
117.996
 10
163.839
 20
118.011
 10
163.832
 20
118.026
 10
163.825
 20
118.04
 10
163.818
 20
118.054
 10
163.811
 20
118.068
 10
163.805
 20
118.082
 10
163.799
 20
118.096
 10
163.794
 20
118.109
 10
163.789
 20
118.123
 10
163.784
 20
118.136
 10
163.781
 20
118.148
 10
163.777
 20
118.161
 10
163.775
 20
118.174
 10
163.773
 20
118.186
 10
163.771
 20
118.198
 10
163.77
 20
118.21
 10
163.77
 20
118.222
 10
163.771
 20
118.233
 10
163.772
 20
118.245
 10
163.773
 20
118.256
 10
163.776
 20
118.267
 10
163.779
 20
118.278
 10
163.784
 20
118.289
 10
163.789
 20
118.299
 10
163.795
 20
118.31
 10
163.803
 20
118.32
 10
163.811
 20
118.33
 10
163.821
 20
118.34
 10
163.831
 20
118.35
 10
163.841
 20
118.359
 10
163.852
 20
118.367
 10
163.862
 20
118.374
 10
163.873
 20
118.38
 10
163.884
 20
118.385
 10
163.895
 20
118.389
 10
163.905
 20
118.392
 10
163.916
 20
118.395
 10
163.927
 20
118.397
 10
163.938
 20
118.398
 10
163.949
 20
118.399
 10
163.96
 20
118.399
 10
163.972
 20
118.399
 10
163.983
 20
118.397
 10
163.994
 20
118.396
 10
164.005
 20
118.394
 10
164.016
 20
118.391
 10
164.027
 20
118.388
 10
164.037
 20
118.384
 10
164.048
 20
118.379
 10
164.058
 20
118.375
 10
164.069
 20
118.369
 10
164.079
 20
118.363
 10
164.089
 20
118.357
 10
164.098
 20
118.351
 10
164.108
 20
118.344
 10
164.117
 20
118.337
 10
164.125
 20
118.33
 10
164.134
 20
118.323
 10
164.142
 20
118.315
 10
164.15
 20
118.307
 10
164.164
 20
118.292
 10
164.178
 20
118.276
 10
164.191
 20
118.258
 10
164.203
 20
118.24
 10
164.214
 20
118.221
 10
164.224
 20
118.2
 10
164.233
 20
118.179
 10
164.241
 20
118.157
 10
164.249
 20
118.134
 10
164.254
 20
118.111
 10
164.259
 20
118.089
 10
164.262
 20
118.066
 10
164.263
 20
118.044
 10
164.263
 20
118.022
 10
164.262
 20
118.0
 10
164.259
 20
117.978
 10
164.505
 20
117.969
 10
164.507
 20
118.002
 10
164.506
 20
118.034
 10
164.504
 20
118.067
 10
164.499
 20
118.099
 10
164.492
 20
118.132
 10
164.483
 20
118.164
 10
164.472
 20
118.197
 10
164.459
 20
118.229
 10
164.444
 20
118.261
 10
164.428
 20
118.292
 10
164.41
 20
118.322
 10
164.392
 20
118.35
 10
164.372
 20
118.378
 10
164.351
 20
118.405
 10
164.328
 20
118.431
 10
164.304
 20
118.456
 10
164.286
 20
118.474
 10
164.267
 20
118.491
 10
164.247
 20
118.507
 10
164.228
 20
118.523
 10
164.207
 20
118.537
 10
164.187
 20
118.551
 10
164.166
 20
118.564
 10
164.144
 20
118.576
 10
164.123
 20
118.587
 10
164.101
 20
118.597
 10
164.079
 20
118.606
 10
164.057
 20
118.614
 10
164.035
 20
118.62
 10
164.013
 20
118.625
 10
163.991
 20
118.63
 10
163.969
 20
118.633
 10
163.947
 20
118.635
 10
163.924
 20
118.635
 10
163.902
 20
118.634
 10
163.88
 20
118.633
 10
163.857
 20
118.629
 10
163.835
 20
118.625
 10
163.813
 20
118.619
 10
163.79
 20
118.612
 10
163.768
 20
118.604
 10
163.746
 20
118.594
 10
163.724
 20
118.582
 10
163.703
 20
118.569
 10
163.682
 20
118.555
 10
163.661
 20
118.538
 10
163.64
 20
118.521
 10
163.62
 20
118.501
 10
163.602
 20
118.483
 10
163.586
 20
118.464
 10
163.572
 20
118.446
 10
163.559
 20
118.427
 10
163.548
 20
118.408
 10
163.538
 20
118.389
 10
163.531
 20
118.37
 10
163.524
 20
118.351
 10
163.519
 20
118.331
 10
163.515
 20
118.312
 10
163.512
 20
118.293
 10
163.511
 20
118.274
 10
163.51
 20
118.255
 10
163.51
 20
118.236
 10
163.511
 20
118.217
 10
163.513
 20
118.198
 10
163.516
 20
118.179
 10
163.52
 20
118.16
 10
163.524
 20
118.142
 10
163.529
 20
118.123
 10
163.535
 20
118.105
 10
163.541
 20
118.087
 10
163.548
 20
118.069
 10
163.555
 20
118.051
 10
163.563
 20
118.033
 10
163.571
 20
118.016
 10
163.579
 20
117.998
 10
163.587
 20
117.981
 10
163.595
 20
117.965
 10
163.604
 20
117.948
 10
163.612
 20
117.932
 10
163.62
 20
117.916
 10
163.627
 20
117.902
 10
163.634
 20
117.889
 10
163.641
 20
117.875
 10
163.648
 20
117.862
 10
163.654
 20
117.85
 10
163.66
 20
117.837
 10
163.666
 20
117.825
 10
163.672
 20
117.812
 10
163.678
 20
117.801
 10
163.682
 20
117.789
 10
163.687
 20
117.777
 10
163.691
 20
117.766
 10
163.695
 20
117.755
 10
163.698
 20
117.744
 10
163.7
 20
117.733
 10
163.702
 20
117.723
 10
163.704
 20
117.712
 10
163.705
 20
117.702
 10
163.706
 20
117.692
 10
163.706
 20
117.682
 10
163.705
 20
117.672
 10
163.704
 20
117.662
 10
163.703
 20
117.652
 10
163.7
 20
117.643
 10
163.698
 20
117.633
 10
163.694
 20
117.624
 10
163.69
 20
117.615
 10
163.684
 20
117.606
 10
163.679
 20
117.597
 10
163.672
 20
117.588
 10
163.665
 20
117.579
 10
163.657
 20
117.571
 10
163.647
 20
117.562
 10
163.638
 20
117.554
 10
163.628
 20
117.547
 10
163.618
 20
117.541
 10
163.608
 20
117.535
 10
163.598
 20
117.531
 10
163.588
 20
117.527
 10
163.577
 20
117.524
 10
163.567
 20
117.522
 10
163.556
 20
117.52
 10
163.546
 20
117.519
 10
163.535
 20
117.519
 10
163.525
 20
117.519
 10
163.514
 20
117.52
 10
163.504
 20
117.521
 10
163.493
 20
117.523
 10
163.483
 20
117.526
 10
163.472
 20
117.529
 10
163.462
 20
117.532
 10
163.452
 20
117.536
 10
163.442
 20
117.54
 10
163.432
 20
117.545
 10
163.422
 20
117.55
 10
163.413
 20
117.556
 10
163.403
 20
117.562
 10
163.394
 20
117.568
 10
163.384
 20
117.574
 10
163.376
 20
117.581
 10
163.367
 20
117.588
 10
163.359
 20
117.595
 10
163.35
 20
117.603
 10
163.343
 20
117.61
 10
163.33
 20
117.624
 10
163.318
 20
117.638
 10
163.307
 20
117.653
 10
163.297
 20
117.669
 10
163.287
 20
117.685
 10
163.278
 20
117.702
 10
163.27
 20
117.72
 10
163.263
 20
117.739
 10
163.257
 20
117.758
 10
163.252
 20
117.776
 10
163.248
 20
117.795
 10
163.245
 20
117.812
 10
163.244
 20
117.83
 10
163.243
 20
117.847
 10
163.243
 20
117.864
 10
163.245
 20
117.88
 97
0
 92
3
 72
0
 73
1
 93
9
 10
162.688
 20
118.33
 10
163.533
 20
119.176
 10
163.355
 20
119.354
 10
162.51
 20
118.508
 10
162.203
 20
118.815
 10
162.047
 20
118.66
 10
162.839
 20
117.868
 10
162.995
 20
118.023
 10
162.688
 20
118.33
 97
0
 92
3
 72
0
 73
1
 93
129
 10
162.477
 20
119.225
 10
162.505
 20
119.255
 10
162.532
 20
119.285
 10
162.557
 20
119.316
 10
162.579
 20
119.348
 10
162.6
 20
119.38
 10
162.619
 20
119.412
 10
162.636
 20
119.446
 10
162.651
 20
119.48
 10
162.664
 20
119.514
 10
162.676
 20
119.549
 10
162.685
 20
119.583
 10
162.693
 20
119.618
 10
162.699
 20
119.653
 10
162.703
 20
119.688
 10
162.706
 20
119.723
 10
162.706
 20
119.758
 10
162.705
 20
119.794
 10
162.702
 20
119.829
 10
162.697
 20
119.864
 10
162.69
 20
119.899
 10
162.682
 20
119.934
 10
162.671
 20
119.968
 10
162.659
 20
120.003
 10
162.645
 20
120.037
 10
162.63
 20
120.071
 10
162.612
 20
120.104
 10
162.593
 20
120.137
 10
162.572
 20
120.169
 10
162.549
 20
120.2
 10
162.524
 20
120.231
 10
162.498
 20
120.261
 10
162.47
 20
120.29
 10
162.44
 20
120.319
 10
162.41
 20
120.345
 10
162.379
 20
120.37
 10
162.347
 20
120.393
 10
162.315
 20
120.415
 10
162.282
 20
120.434
 10
162.249
 20
120.452
 10
162.215
 20
120.468
 10
162.18
 20
120.482
 10
162.146
 20
120.494
 10
162.111
 20
120.505
 10
162.076
 20
120.513
 10
162.041
 20
120.52
 10
162.006
 20
120.525
 10
161.97
 20
120.528
 10
161.935
 20
120.53
 10
161.899
 20
120.529
 10
161.864
 20
120.527
 10
161.829
 20
120.523
 10
161.794
 20
120.517
 10
161.759
 20
120.51
 10
161.724
 20
120.5
 10
161.69
 20
120.489
 10
161.655
 20
120.475
 10
161.621
 20
120.46
 10
161.588
 20
120.443
 10
161.555
 20
120.424
 10
161.523
 20
120.404
 10
161.492
 20
120.381
 10
161.461
 20
120.356
 10
161.431
 20
120.33
 10
161.401
 20
120.301
 10
161.372
 20
120.271
 10
161.345
 20
120.24
 10
161.32
 20
120.209
 10
161.297
 20
120.177
 10
161.275
 20
120.145
 10
161.256
 20
120.112
 10
161.239
 20
120.078
 10
161.224
 20
120.044
 10
161.211
 20
120.01
 10
161.2
 20
119.975
 10
161.19
 20
119.941
 10
161.183
 20
119.906
 10
161.177
 20
119.872
 10
161.173
 20
119.837
 10
161.172
 20
119.802
 10
161.172
 20
119.767
 10
161.174
 20
119.732
 10
161.177
 20
119.697
 10
161.183
 20
119.662
 10
161.19
 20
119.628
 10
161.2
 20
119.594
 10
161.211
 20
119.559
 10
161.224
 20
119.525
 10
161.238
 20
119.491
 10
161.255
 20
119.457
 10
161.273
 20
119.424
 10
161.293
 20
119.392
 10
161.314
 20
119.36
 10
161.338
 20
119.329
 10
161.363
 20
119.298
 10
161.389
 20
119.268
 10
161.418
 20
119.238
 10
161.447
 20
119.21
 10
161.477
 20
119.183
 10
161.507
 20
119.159
 10
161.539
 20
119.136
 10
161.57
 20
119.114
 10
161.603
 20
119.095
 10
161.635
 20
119.077
 10
161.669
 20
119.061
 10
161.703
 20
119.046
 10
161.737
 20
119.033
 10
161.771
 20
119.023
 10
161.805
 20
119.013
 10
161.839
 20
119.006
 10
161.874
 20
119.001
 10
161.908
 20
118.997
 10
161.943
 20
118.995
 10
161.978
 20
118.996
 10
162.013
 20
118.997
 10
162.047
 20
119.001
 10
162.082
 20
119.007
 10
162.116
 20
119.015
 10
162.151
 20
119.024
 10
162.185
 20
119.035
 10
162.22
 20
119.048
 10
162.254
 20
119.064
 10
162.287
 20
119.081
 10
162.32
 20
119.1
 10
162.353
 20
119.121
 10
162.385
 20
119.144
 10
162.416
 20
119.169
 10
162.447
 20
119.196
 10
162.477
 20
119.225
 97
0
 92
3
 72
0
 73
1
 93
129
 10
162.283
 20
119.419
 10
162.264
 20
119.4
 10
162.244
 20
119.382
 10
162.223
 20
119.366
 10
162.202
 20
119.35
 10
162.181
 20
119.336
 10
162.159
 20
119.323
 10
162.137
 20
119.311
 10
162.114
 20
119.3
 10
162.091
 20
119.29
 10
162.068
 20
119.281
 10
162.045
 20
119.273
 10
162.022
 20
119.267
 10
161.999
 20
119.262
 10
161.976
 20
119.258
 10
161.952
 20
119.255
 10
161.928
 20
119.254
 10
161.905
 20
119.253
 10
161.881
 20
119.254
 10
161.858
 20
119.256
 10
161.834
 20
119.259
 10
161.811
 20
119.263
 10
161.788
 20
119.269
 10
161.765
 20
119.276
 10
161.742
 20
119.284
 10
161.72
 20
119.293
 10
161.698
 20
119.304
 10
161.676
 20
119.316
 10
161.655
 20
119.329
 10
161.634
 20
119.344
 10
161.613
 20
119.36
 10
161.593
 20
119.378
 10
161.573
 20
119.396
 10
161.555
 20
119.416
 10
161.537
 20
119.436
 10
161.521
 20
119.457
 10
161.506
 20
119.478
 10
161.493
 20
119.499
 10
161.481
 20
119.521
 10
161.47
 20
119.543
 10
161.46
 20
119.566
 10
161.452
 20
119.589
 10
161.445
 20
119.612
 10
161.439
 20
119.635
 10
161.435
 20
119.659
 10
161.432
 20
119.682
 10
161.429
 20
119.706
 10
161.429
 20
119.729
 10
161.429
 20
119.753
 10
161.431
 20
119.776
 10
161.434
 20
119.8
 10
161.438
 20
119.823
 10
161.443
 20
119.847
 10
161.449
 20
119.87
 10
161.457
 20
119.893
 10
161.465
 20
119.916
 10
161.475
 20
119.939
 10
161.486
 20
119.961
 10
161.498
 20
119.984
 10
161.511
 20
120.005
 10
161.526
 20
120.027
 10
161.541
 20
120.048
 10
161.558
 20
120.068
 10
161.576
 20
120.088
 10
161.595
 20
120.108
 10
161.615
 20
120.127
 10
161.636
 20
120.146
 10
161.657
 20
120.163
 10
161.678
 20
120.179
 10
161.7
 20
120.194
 10
161.722
 20
120.207
 10
161.744
 20
120.22
 10
161.767
 20
120.231
 10
161.79
 20
120.241
 10
161.813
 20
120.25
 10
161.837
 20
120.257
 10
161.86
 20
120.263
 10
161.883
 20
120.269
 10
161.907
 20
120.273
 10
161.931
 20
120.275
 10
161.955
 20
120.277
 10
161.978
 20
120.277
 10
162.002
 20
120.276
 10
162.026
 20
120.274
 10
162.049
 20
120.27
 10
162.072
 20
120.266
 10
162.095
 20
120.26
 10
162.118
 20
120.253
 10
162.141
 20
120.244
 10
162.164
 20
120.235
 10
162.186
 20
120.224
 10
162.208
 20
120.211
 10
162.229
 20
120.198
 10
162.249
 20
120.183
 10
162.27
 20
120.167
 10
162.289
 20
120.15
 10
162.309
 20
120.132
 10
162.327
 20
120.112
 10
162.344
 20
120.093
 10
162.36
 20
120.073
 10
162.375
 20
120.052
 10
162.388
 20
120.031
 10
162.4
 20
120.009
 10
162.411
 20
119.987
 10
162.42
 20
119.965
 10
162.429
 20
119.942
 10
162.436
 20
119.919
 10
162.442
 20
119.896
 10
162.446
 20
119.873
 10
162.449
 20
119.85
 10
162.452
 20
119.826
 10
162.453
 20
119.803
 10
162.452
 20
119.779
 10
162.451
 20
119.755
 10
162.448
 20
119.731
 10
162.444
 20
119.708
 10
162.439
 20
119.684
 10
162.433
 20
119.661
 10
162.425
 20
119.638
 10
162.416
 20
119.615
 10
162.406
 20
119.592
 10
162.395
 20
119.569
 10
162.383
 20
119.546
 10
162.369
 20
119.524
 10
162.354
 20
119.502
 10
162.338
 20
119.481
 10
162.321
 20
119.46
 10
162.303
 20
119.439
 10
162.283
 20
119.419
 97
0
 92
3
 72
0
 73
1
 93
57
 10
160.731
 20
119.976
 10
161.732
 20
120.977
 10
161.554
 20
121.156
 10
161.129
 20
120.731
 10
160.999
 20
120.862
 10
161.192
 20
121.518
 10
160.977
 20
121.733
 10
160.8
 20
121.021
 10
160.767
 20
121.04
 10
160.735
 20
121.057
 10
160.702
 20
121.07
 10
160.67
 20
121.081
 10
160.637
 20
121.089
 10
160.605
 20
121.094
 10
160.572
 20
121.097
 10
160.54
 20
121.096
 10
160.507
 20
121.093
 10
160.476
 20
121.086
 10
160.445
 20
121.077
 10
160.415
 20
121.064
 10
160.385
 20
121.048
 10
160.356
 20
121.028
 10
160.328
 20
121.006
 10
160.301
 20
120.98
 10
160.282
 20
120.96
 10
160.264
 20
120.94
 10
160.249
 20
120.92
 10
160.235
 20
120.899
 10
160.223
 20
120.879
 10
160.213
 20
120.858
 10
160.204
 20
120.836
 10
160.197
 20
120.815
 10
160.192
 20
120.793
 10
160.188
 20
120.772
 10
160.185
 20
120.75
 10
160.184
 20
120.729
 10
160.184
 20
120.707
 10
160.185
 20
120.686
 10
160.187
 20
120.664
 10
160.191
 20
120.643
 10
160.196
 20
120.622
 10
160.202
 20
120.6
 10
160.209
 20
120.579
 10
160.217
 20
120.559
 10
160.226
 20
120.538
 10
160.237
 20
120.517
 10
160.248
 20
120.497
 10
160.26
 20
120.476
 10
160.273
 20
120.456
 10
160.287
 20
120.436
 10
160.302
 20
120.417
 10
160.317
 20
120.397
 10
160.332
 20
120.379
 10
160.348
 20
120.36
 10
160.365
 20
120.342
 10
160.383
 20
120.324
 10
160.731
 20
119.976
 97
0
 92
3
 72
0
 73
1
 93
68
 10
160.838
 20
120.731
 10
160.984
 20
120.586
 10
160.702
 20
120.304
 10
160.541
 20
120.466
 10
160.533
 20
120.474
 10
160.524
 20
120.483
 10
160.516
 20
120.492
 10
160.508
 20
120.501
 10
160.5
 20
120.511
 10
160.492
 20
120.521
 10
160.484
 20
120.531
 10
160.477
 20
120.541
 10
160.469
 20
120.552
 10
160.463
 20
120.562
 10
160.456
 20
120.573
 10
160.451
 20
120.583
 10
160.446
 20
120.594
 10
160.441
 20
120.605
 10
160.437
 20
120.616
 10
160.434
 20
120.627
 10
160.431
 20
120.638
 10
160.428
 20
120.649
 10
160.427
 20
120.66
 10
160.426
 20
120.671
 10
160.426
 20
120.682
 10
160.426
 20
120.693
 10
160.427
 20
120.704
 10
160.429
 20
120.715
 10
160.431
 20
120.726
 10
160.435
 20
120.737
 10
160.439
 20
120.748
 10
160.445
 20
120.759
 10
160.451
 20
120.769
 10
160.459
 20
120.78
 10
160.468
 20
120.79
 10
160.477
 20
120.801
 10
160.489
 20
120.811
 10
160.5
 20
120.821
 10
160.512
 20
120.83
 10
160.524
 20
120.837
 10
160.535
 20
120.843
 10
160.547
 20
120.848
 10
160.559
 20
120.852
 10
160.571
 20
120.855
 10
160.584
 20
120.857
 10
160.596
 20
120.858
 10
160.608
 20
120.859
 10
160.619
 20
120.858
 10
160.631
 20
120.857
 10
160.643
 20
120.855
 10
160.655
 20
120.853
 10
160.666
 20
120.849
 10
160.678
 20
120.845
 10
160.689
 20
120.841
 10
160.7
 20
120.836
 10
160.712
 20
120.83
 10
160.723
 20
120.824
 10
160.734
 20
120.817
 10
160.745
 20
120.81
 10
160.756
 20
120.802
 10
160.767
 20
120.794
 10
160.778
 20
120.785
 10
160.788
 20
120.777
 10
160.798
 20
120.768
 10
160.809
 20
120.759
 10
160.819
 20
120.75
 10
160.828
 20
120.741
 10
160.838
 20
120.731
 97
0
 92
3
 72
0
 73
1
 93
17
 10
159.841
 20
120.866
 10
160.842
 20
121.867
 10
160.673
 20
122.037
 10
159.868
 20
121.232
 10
159.865
 20
121.235
 10
160.37
 20
122.339
 10
160.245
 20
122.464
 10
159.137
 20
121.963
 10
159.134
 20
121.966
 10
159.939
 20
122.771
 10
159.762
 20
122.947
 10
158.761
 20
121.946
 10
159.041
 20
121.666
 10
160.009
 20
122.12
 10
160.014
 20
122.116
 10
159.562
 20
121.144
 10
159.841
 20
120.866
 97
0
 75
0
 76
1
 98
0
  0
CIRCLE
  5
5F
330
17
100
AcDbEntity
  8
CUT
100
AcDbCircle
 10
229.6
 20
88.0
 30
0.0
 40
48.04
  0
CIRCLE
  5
60
330
17
100
AcDbEntity
  8
CUT
100
AcDbCircle
 10
229.6
 20
88.0
 30
0.0
 40
35.36
  0
LWPOLYLINE
  5
61
330
17
100
AcDbEntity
  8
CUT
100
AcDbPolyline
 90
4
 70
1
 10
228.315
 20
134.46
 10
230.885
 20
134.46
 10
230.885
 20
127.54
 10
228.315
 20
127.54
  0
HATCH
  5
62
330
17
100
AcDbEntity
  8
RASTER
 62
7
100
AcDbHatch
 10
0.0
 20
0.0
 30
0.0
210
0.0
220
0.0
230
1.0
  2
SOLID
 70
1
 71
0
 91
2
 92
3
 72
0
 73
1
 93
48
 10
276.6
 20
88.0
 10
276.198
 20
81.865
 10
274.999
 20
75.836
 10
273.022
 20
70.014
 10
270.303
 20
64.5
 10
266.888
 20
59.388
 10
262.834
 20
54.766
 10
258.212
 20
50.712
 10
253.1
 20
47.297
 10
247.586
 20
44.578
 10
241.764
 20
42.601
 10
235.735
 20
41.402
 10
229.6
 20
41.0
 10
223.465
 20
41.402
 10
217.436
 20
42.601
 10
211.614
 20
44.578
 10
206.1
 20
47.297
 10
200.988
 20
50.712
 10
196.366
 20
54.766
 10
192.312
 20
59.388
 10
188.897
 20
64.5
 10
186.178
 20
70.014
 10
184.201
 20
75.836
 10
183.002
 20
81.865
 10
182.6
 20
88.0
 10
183.002
 20
94.135
 10
184.201
 20
100.164
 10
186.178
 20
105.986
 10
188.897
 20
111.5
 10
192.312
 20
116.612
 10
196.366
 20
121.234
 10
200.988
 20
125.288
 10
206.1
 20
128.703
 10
211.614
 20
131.422
 10
217.436
 20
133.399
 10
223.465
 20
134.598
 10
229.6
 20
135.0
 10
235.735
 20
134.598
 10
241.764
 20
133.399
 10
247.586
 20
131.422
 10
253.1
 20
128.703
 10
258.212
 20
125.288
 10
262.834
 20
121.234
 10
266.888
 20
116.612
 10
270.303
 20
111.5
 10
273.022
 20
105.986
 10
274.999
 20
100.164
 10
276.198
 20
94.135
 97
0
 92
3
 72
0
 73
1
 93
48
 10
276.0
 20
88.0
 10
275.603
 20
81.944
 10
274.419
 20
75.991
 10
272.468
 20
70.243
 10
269.784
 20
64.8
 10
266.412
 20
59.753
 10
262.41
 20
55.19
 10
257.847
 20
51.188
 10
252.8
 20
47.816
 10
247.357
 20
45.132
 10
241.609
 20
43.181
 10
235.656
 20
41.997
 10
229.6
 20
41.6
 10
223.544
 20
41.997
 10
217.591
 20
43.181
 10
211.843
 20
45.132
 10
206.4
 20
47.816
 10
201.353
 20
51.188
 10
196.79
 20
55.19
 10
192.788
 20
59.753
 10
189.416
 20
64.8
 10
186.732
 20
70.243
 10
184.781
 20
75.991
 10
183.597
 20
81.944
 10
183.2
 20
88.0
 10
183.597
 20
94.056
 10
184.781
 20
100.009
 10
186.732
 20
105.757
 10
189.416
 20
111.2
 10
192.788
 20
116.247
 10
196.79
 20
120.81
 10
201.353
 20
124.812
 10
206.4
 20
128.184
 10
211.843
 20
130.868
 10
217.591
 20
132.819
 10
223.544
 20
134.003
 10
229.6
 20
134.4
 10
235.656
 20
134.003
 10
241.609
 20
132.819
 10
247.357
 20
130.868
 10
252.8
 20
128.184
 10
257.847
 20
124.812
 10
262.41
 20
120.81
 10
266.412
 20
116.247
 10
269.784
 20
111.2
 10
272.468
 20
105.757
 10
274.419
 20
100.009
 10
275.603
 20
94.056
 97
0
 75
0
 76
1
 98
0
  0
HATCH
  5
63
330
17
100
AcDbEntity
  8
RASTER
 62
7
100
AcDbHatch
 10
0.0
 20
0.0
 30
0.0
210
0.0
220
0.0
230
1.0
  2
SOLID
 70
1
 71
0
 91
1
 92
3
 72
0
 73
1
 93
4
 10
229.6
 20
123.7
 10
229.1
 20
124.8
 10
229.6
 20
125.5
 10
230.1
 20
124.8
 97
0
 75
0
 76
1
 98
0
  0
HATCH
  5
64
330
17
100
AcDbEntity
  8
RASTER
 62
7
100
AcDbHatch
 10
0.0
 20
0.0
 30
0.0
210
0.0
220
0.0
230
1.0
  2
SOLID
 70
1
 71
0
 91
1
 92
3
 72
0
 73
1
 93
36
 10
229.6
 20
125.5
 10
229.326
 20
125.279
 10
229.042
 20
125.139
 10
228.765
 20
125.076
 10
228.513
 20
125.088
 10
228.302
 20
125.169
 10
228.152
 20
125.317
 10
228.078
 20
125.529
 10
228.1
 20
125.8
 10
228.159
 20
125.96
 10
228.256
 20
126.069
 10
228.381
 20
126.13
 10
228.525
 20
126.15
 10
228.678
 20
126.132
 10
228.831
 20
126.081
 10
228.975
 20
126.002
 10
229.1
 20
125.9
 10
229.3
 20
126.3
 10
229.9
 20
126.3
 10
230.1
 20
125.9
 10
230.225
 20
126.002
 10
230.369
 20
126.081
 10
230.522
 20
126.132
 10
230.675
 20
126.15
 10
230.819
 20
126.13
 10
230.944
 20
126.069
 10
231.041
 20
125.96
 10
231.1
 20
125.8
 10
231.122
 20
125.529
 10
231.048
 20
125.317
 10
230.898
 20
125.169
 10
230.688
 20
125.088
 10
230.435
 20
125.076
 10
230.158
 20
125.139
 10
229.874
 20
125.279
 10
229.6
 20
125.5
 97
0
 75
0
 76
1
 98
0
  0
HATCH
  5
65
330
17
100
AcDbEntity
  8
RASTER
 62
7
100
AcDbHatch
 10
0.0
 20
0.0
 30
0.0
210
0.0
220
0.0
230
1.0
  2
SOLID
 70
1
 71
0
 91
1
 92
3
 72
0
 73
1
 93
4
 10
229.9
 20
126.4
 10
229.3
 20
126.4
 10
229.3
 20
126.7
 10
229.9
 20
126.7
 97
0
 75
0
 76
1
 98
0
  0
HATCH
  5
66
330
17
100
AcDbEntity
  8
RASTER
 62
7
100
AcDbHatch
 10
0.0
 20
0.0
 30
0.0
210
0.0
220
0.0
230
1.0
  2
SOLID
 70
1
 71
0
 91
1
 92
3
 72
0
 73
1
 93
16
 10
221.049
 20
47.124
 10
221.463
 20
47.124
 10
221.874
 20
45.564
 10
221.88
 20
45.564
 10
222.348
 20
47.124
 10
222.737
 20
47.124
 10
223.197
 20
45.564
 10
223.203
 20
45.564
 10
223.623
 20
47.124
 10
224.025
 20
47.124
 10
223.404
 20
45.0
 10
223.038
 20
45.0
 10
222.54
 20
46.593
 10
222.534
 20
46.593
 10
222.035
 20
45.0
 10
221.67
 20
45.0
 97
0
 75
0
 76
1
 98
0
  0
HATCH
  5
67
330
17
100
AcDbEntity
  8
RASTER
 62
7
100
AcDbHatch
 10
0.0
 20
0.0
 30
0.0
210
0.0
220
0.0
230
1.0
  2
SOLID
 70
1
 71
0
 91
1
 92
3
 72
0
 73
1
 93
4
 10
224.277
 20
47.124
 10
224.654
 20
47.124
 10
224.654
 20
45.0
 10
224.277
 20
45.0
 97
0
 75
0
 76
1
 98
0
  0
HATCH
  5
68
330
17
100
AcDbEntity
  8
RASTER
 62
7
100
AcDbHatch
 10
0.0
 20
0.0
 30
0.0
210
0.0
220
0.0
230
1.0
  2
SOLID
 70
1
 71
0
 91
1
 92
3
 72
0
 73
1
 93
12
 10
225.123
 20
47.124
 10
225.624
 20
47.124
 10
226.611
 20
45.534
 10
226.617
 20
45.534
 10
226.617
 20
47.124
 10
226.995
 20
47.124
 10
226.995
 20
45.0
 10
226.515
 20
45.0
 10
225.507
 20
46.641
 10
225.501
 20
46.641
 10
225.501
 20
45.0
 10
225.123
 20
45.0
 97
0
 75
0
 76
1
 98
0
  0
HATCH
  5
69
330
17
100
AcDbEntity
  8
RASTER
 62
7
100
AcDbHatch
 10
0.0
 20
0.0
 30
0.0
210
0.0
220
0.0
230
1.0
  2
SOLID
 70
1
 71
0
 91
2
 92
3
 72
0
 73
1
 93
67
 10
227.463
 20
47.124
 10
228.216
 20
47.124
 10
228.267
 20
47.123
 10
228.319
 20
47.121
 10
228.371
 20
47.116
 10
228.423
 20
47.111
 10
228.475
 20
47.103
 10
228.528
 20
47.094
 10
228.58
 20
47.083
 10
228.633
 20
47.07
 10
228.684
 20
47.055
 10
228.735
 20
47.039
 10
228.784
 20
47.02
 10
228.832
 20
46.998
 10
228.879
 20
46.975
 10
228.924
 20
46.949
 10
228.968
 20
46.922
 10
229.011
 20
46.892
 10
229.052
 20
46.859
 10
229.091
 20
46.824
 10
229.128
 20
46.787
 10
229.163
 20
46.748
 10
229.196
 20
46.705
 10
229.227
 20
46.661
 10
229.256
 20
46.614
 10
229.284
 20
46.565
 10
229.308
 20
46.512
 10
229.329
 20
46.457
 10
229.347
 20
46.399
 10
229.362
 20
46.338
 10
229.374
 20
46.273
 10
229.382
 20
46.206
 10
229.387
 20
46.135
 10
229.389
 20
46.062
 10
229.387
 20
45.993
 10
229.382
 20
45.927
 10
229.374
 20
45.864
 10
229.362
 20
45.803
 10
229.347
 20
45.744
 10
229.329
 20
45.687
 10
229.308
 20
45.633
 10
229.284
 20
45.582
 10
229.256
 20
45.533
 10
229.227
 20
45.486
 10
229.196
 20
45.441
 10
229.163
 20
45.399
 10
229.128
 20
45.359
 10
229.091
 20
45.321
 10
229.052
 20
45.285
 10
229.011
 20
45.252
 10
228.968
 20
45.221
 10
228.924
 20
45.192
 10
228.879
 20
45.165
 10
228.832
 20
45.14
 10
228.784
 20
45.117
 10
228.735
 20
45.096
 10
228.684
 20
45.078
 10
228.633
 20
45.061
 10
228.58
 20
45.047
 10
228.528
 20
45.035
 10
228.475
 20
45.024
 10
228.423
 20
45.015
 10
228.371
 20
45.009
 10
228.319
 20
45.004
 10
228.267
 20
45.001
 10
228.216
 20
45.0
 10
227.463
 20
45.0
 97
0
 92
3
 72
0
 73
1
 93
67
 10
228.156
 20
45.33
 10
228.192
 20
45.331
 10
228.229
 20
45.332
 10
228.266
 20
45.335
 10
228.302
 20
45.339
 10
228.339
 20
45.343
 10
228.376
 20
45.349
 10
228.413
 20
45.356
 10
228.45
 20
45.364
 10
228.486
 20
45.374
 10
228.521
 20
45.385
 10
228.556
 20
45.397
 10
228.589
 20
45.411
 10
228.622
 20
45.426
 10
228.654
 20
45.443
 10
228.685
 20
45.462
 10
228.715
 20
45.482
 10
228.744
 20
45.503
 10
228.772
 20
45.526
 10
228.798
 20
45.552
 10
228.823
 20
45.579
 10
228.846
 20
45.607
 10
228.868
 20
45.638
 10
228.889
 20
45.671
 10
228.909
 20
45.705
 10
228.926
 20
45.741
 10
228.941
 20
45.78
 10
228.954
 20
45.821
 10
228.965
 20
45.865
 10
228.973
 20
45.911
 10
228.979
 20
45.959
 10
228.982
 20
46.009
 10
228.984
 20
46.062
 10
228.982
 20
46.118
 10
228.979
 20
46.171
 10
228.973
 20
46.221
 10
228.965
 20
46.269
 10
228.954
 20
46.314
 10
228.941
 20
46.357
 10
228.926
 20
46.397
 10
228.909
 20
46.434
 10
228.889
 20
46.469
 10
228.868
 20
46.502
 10
228.846
 20
46.533
 10
228.823
 20
46.562
 10
228.798
 20
46.589
 10
228.772
 20
46.615
 10
228.744
 20
46.638
 10
228.715
 20
46.659
 10
228.685
 20
46.678
 10
228.654
 20
46.696
 10
228.622
 20
46.713
 10
228.589
 20
46.727
 10
228.556
 20
46.74
 10
228.521
 20
46.752
 10
228.486
 20
46.762
 10
228.45
 20
46.77
 10
228.413
 20
46.777
 10
228.376
 20
46.783
 10
228.339
 20
46.788
 10
228.302
 20
46.792
 10
228.266
 20
46.796
 10
228.229
 20
46.798
 10
228.192
 20
46.8
 10
228.156
 20
46.8
 10
227.841
 20
46.8
 10
227.841
 20
45.33
 97
0
 75
0
 76
1
 98
0
  0
HATCH
  5
6A
330
17
100
AcDbEntity
  8
RASTER
 62
7
100
AcDbHatch
 10
0.0
 20
0.0
 30
0.0
210
0.0
220
0.0
230
1.0
  2
SOLID
 70
1
 71
0
 91
1
 92
3
 72
0
 73
1
 93
12
 10
230.505
 20
47.124
 10
231.005
 20
47.124
 10
231.993
 20
45.534
 10
231.999
 20
45.534
 10
231.999
 20
47.124
 10
232.377
 20
47.124
 10
232.377
 20
45.0
 10
231.897
 20
45.0
 10
230.889
 20
46.641
 10
230.883
 20
46.641
 10
230.883
 20
45.0
 10
230.505
 20
45.0
 97
0
 75
0
 76
1
 98
0
  0
HATCH
  5
6B
330
17
100
AcDbEntity
  8
RASTER
 62
7
100
AcDbHatch
 10
0.0
 20
0.0
 30
0.0
210
0.0
220
0.0
230
1.0
  2
SOLID
 70
1
 71
0
 91
2
 92
3
 72
0
 73
1
 93
129
 10
232.743
 20
46.068
 10
232.744
 20
46.131
 10
232.748
 20
46.192
 10
232.755
 20
46.252
 10
232.764
 20
46.311
 10
232.776
 20
46.367
 10
232.791
 20
46.423
 10
232.808
 20
46.476
 10
232.828
 20
46.529
 10
232.85
 20
46.579
 10
232.875
 20
46.627
 10
232.901
 20
46.674
 10
232.93
 20
46.719
 10
232.961
 20
46.761
 10
232.993
 20
46.802
 10
233.028
 20
46.841
 10
233.065
 20
46.878
 10
233.104
 20
46.913
 10
233.144
 20
46.946
 10
233.187
 20
46.977
 10
233.231
 20
47.006
 10
233.277
 20
47.032
 10
233.324
 20
47.057
 10
233.374
 20
47.079
 10
233.425
 20
47.1
 10
233.478
 20
47.118
 10
233.532
 20
47.134
 10
233.587
 20
47.148
 10
233.643
 20
47.159
 10
233.7
 20
47.167
 10
233.759
 20
47.173
 10
233.819
 20
47.177
 10
233.88
 20
47.178
 10
233.941
 20
47.177
 10
234.002
 20
47.173
 10
234.061
 20
47.167
 10
234.119
 20
47.159
 10
234.176
 20
47.148
 10
234.231
 20
47.134
 10
234.285
 20
47.118
 10
234.338
 20
47.1
 10
234.39
 20
47.079
 10
234.44
 20
47.057
 10
234.488
 20
47.032
 10
234.534
 20
47.006
 10
234.579
 20
46.977
 10
234.621
 20
46.946
 10
234.662
 20
46.913
 10
234.701
 20
46.878
 10
234.739
 20
46.841
 10
234.774
 20
46.802
 10
234.807
 20
46.761
 10
234.838
 20
46.719
 10
234.866
 20
46.674
 10
234.893
 20
46.627
 10
234.918
 20
46.579
 10
234.94
 20
46.529
 10
234.96
 20
46.476
 10
234.977
 20
46.423
 10
234.992
 20
46.367
 10
235.004
 20
46.311
 10
235.013
 20
46.252
 10
235.02
 20
46.192
 10
235.024
 20
46.131
 10
235.026
 20
46.068
 10
235.024
 20
46.006
 10
235.02
 20
45.946
 10
235.013
 20
45.887
 10
235.004
 20
45.83
 10
234.992
 20
45.774
 10
234.977
 20
45.719
 10
234.96
 20
45.666
 10
234.94
 20
45.614
 10
234.918
 20
45.563
 10
234.893
 20
45.514
 10
234.866
 20
45.467
 10
234.838
 20
45.422
 10
234.807
 20
45.379
 10
234.774
 20
45.337
 10
234.739
 20
45.298
 10
234.701
 20
45.26
 10
234.662
 20
45.223
 10
234.621
 20
45.189
 10
234.579
 20
45.157
 10
234.534
 20
45.128
 10
234.488
 20
45.1
 10
234.44
 20
45.074
 10
234.39
 20
45.05
 10
234.338
 20
45.029
 10
234.285
 20
45.009
 10
234.231
 20
44.992
 10
234.176
 20
44.978
 10
234.119
 20
44.967
 10
234.061
 20
44.958
 10
234.002
 20
44.951
 10
233.941
 20
44.947
 10
233.88
 20
44.946
 10
233.819
 20
44.947
 10
233.759
 20
44.951
 10
233.7
 20
44.958
 10
233.643
 20
44.967
 10
233.587
 20
44.978
 10
233.532
 20
44.992
 10
233.478
 20
45.009
 10
233.425
 20
45.029
 10
233.374
 20
45.05
 10
233.324
 20
45.074
 10
233.277
 20
45.1
 10
233.231
 20
45.128
 10
233.187
 20
45.157
 10
233.144
 20
45.189
 10
233.104
 20
45.223
 10
233.065
 20
45.26
 10
233.028
 20
45.298
 10
232.993
 20
45.337
 10
232.961
 20
45.379
 10
232.93
 20
45.422
 10
232.901
 20
45.467
 10
232.875
 20
45.514
 10
232.85
 20
45.563
 10
232.828
 20
45.614
 10
232.808
 20
45.666
 10
232.791
 20
45.719
 10
232.776
 20
45.774
 10
232.764
 20
45.83
 10
232.755
 20
45.887
 10
232.748
 20
45.946
 10
232.744
 20
46.006
 10
232.743
 20
46.068
 97
0
 92
3
 72
0
 73
1
 93
129
 10
233.154
 20
46.068
 10
233.154
 20
46.026
 10
233.157
 20
45.984
 10
233.161
 20
45.944
 10
233.167
 20
45.904
 10
233.174
 20
45.865
 10
233.183
 20
45.828
 10
233.194
 20
45.791
 10
233.206
 20
45.755
 10
233.22
 20
45.719
 10
233.235
 20
45.686
 10
233.252
 20
45.653
 10
233.27
 20
45.621
 10
233.289
 20
45.591
 10
233.31
 20
45.562
 10
233.332
 20
45.534
 10
233.356
 20
45.507
 10
233.381
 20
45.481
 10
233.407
 20
45.457
 10
233.434
 20
45.435
 10
233.462
 20
45.414
 10
233.492
 20
45.394
 10
233.523
 20
45.376
 10
233.554
 20
45.359
 10
233.587
 20
45.344
 10
233.621
 20
45.33
 10
233.656
 20
45.318
 10
233.691
 20
45.308
 10
233.728
 20
45.3
 10
233.765
 20
45.293
 10
233.803
 20
45.289
 10
233.842
 20
45.286
 10
233.883
 20
45.285
 10
233.923
 20
45.286
 10
233.962
 20
45.289
 10
234.0
 20
45.293
 10
234.038
 20
45.3
 10
234.074
 20
45.308
 10
234.11
 20
45.318
 10
234.145
 20
45.33
 10
234.18
 20
45.344
 10
234.213
 20
45.359
 10
234.245
 20
45.376
 10
234.275
 20
45.394
 10
234.305
 20
45.414
 10
234.334
 20
45.435
 10
234.361
 20
45.457
 10
234.387
 20
45.481
 10
234.412
 20
45.507
 10
234.436
 20
45.534
 10
234.458
 20
45.562
 10
234.479
 20
45.591
 10
234.498
 20
45.621
 10
234.516
 20
45.653
 10
234.533
 20
45.686
 10
234.548
 20
45.719
 10
234.562
 20
45.755
 10
234.574
 20
45.791
 10
234.585
 20
45.828
 10
234.594
 20
45.865
 10
234.601
 20
45.904
 10
234.607
 20
45.944
 10
234.611
 20
45.984
 10
234.614
 20
46.026
 10
234.615
 20
46.068
 10
234.614
 20
46.109
 10
234.611
 20
46.149
 10
234.607
 20
46.188
 10
234.601
 20
46.227
 10
234.594
 20
46.265
 10
234.585
 20
46.302
 10
234.574
 20
46.338
 10
234.562
 20
46.374
 10
234.548
 20
46.409
 10
234.533
 20
46.442
 10
234.517
 20
46.475
 10
234.499
 20
46.506
 10
234.479
 20
46.536
 10
234.459
 20
46.565
 10
234.437
 20
46.593
 10
234.414
 20
46.62
 10
234.389
 20
46.646
 10
234.363
 20
46.67
 10
234.336
 20
46.692
 10
234.308
 20
46.714
 10
234.278
 20
46.734
 10
234.248
 20
46.752
 10
234.216
 20
46.769
 10
234.183
 20
46.785
 10
234.148
 20
46.799
 10
234.113
 20
46.811
 10
234.077
 20
46.822
 10
234.04
 20
46.83
 10
234.002
 20
46.837
 10
233.963
 20
46.841
 10
233.923
 20
46.844
 10
233.883
 20
46.845
 10
233.842
 20
46.844
 10
233.802
 20
46.841
 10
233.763
 20
46.837
 10
233.725
 20
46.83
 10
233.689
 20
46.822
 10
233.653
 20
46.811
 10
233.618
 20
46.799
 10
233.584
 20
46.785
 10
233.551
 20
46.769
 10
233.52
 20
46.752
 10
233.489
 20
46.734
 10
233.46
 20
46.714
 10
233.432
 20
46.692
 10
233.405
 20
46.67
 10
233.379
 20
46.646
 10
233.355
 20
46.62
 10
233.331
 20
46.593
 10
233.309
 20
46.565
 10
233.289
 20
46.536
 10
233.269
 20
46.506
 10
233.251
 20
46.475
 10
233.235
 20
46.442
 10
233.22
 20
46.409
 10
233.206
 20
46.374
 10
233.194
 20
46.338
 10
233.183
 20
46.302
 10
233.174
 20
46.265
 10
233.167
 20
46.227
 10
233.161
 20
46.188
 10
233.157
 20
46.149
 10
233.154
 20
46.109
 10
233.154
 20
46.068
 97
0
 75
0
 76
1
 98
0
  0
HATCH
  5
6C
330
17
100
AcDbEntity
  8
RASTER
 62
7
100
AcDbHatch
 10
0.0
 20
0.0
 30
0.0
210
0.0
220
0.0
230
1.0
  2
SOLID
 70
1
 71
0
 91
1
 92
3
 72
0
 73
1
 93
16
 10
235.176
 20
47.124
 10
235.59
 20
47.124
 10
236.001
 20
45.564
 10
236.007
 20
45.564
 10
236.475
 20
47.124
 10
236.865
 20
47.124
 10
237.324
 20
45.564
 10
237.33
 20
45.564
 10
237.749
 20
47.124
 10
238.152
 20
47.124
 10
237.531
 20
45.0
 10
237.165
 20
45.0
 10
236.666
 20
46.593
 10
236.66
 20
46.593
 10
236.163
 20
45.0
 10
235.797
 20
45.0
 97
0
 75
0
 76
1
 98
0
  0
HATCH
  5
6D
330
17
100
AcDbEntity
  8
RASTER
 62
7
100
AcDbHatch
 10
0.0
 20
0.0
 30
0.0
210
0.0
220
0.0
230
1.0
  2
SOLID
 70
1
 71
0
 91
1
 92
3
 72
0
 73
1
 93
4
 10
272.4
 20
88.25
 10
274.8
 20
88.25
 10
274.8
 20
87.75
 10
272.4
 20
87.75
 97
0
 75
0
 76
1
 98
0
  0
HATCH
  5
6E
330
17
100
AcDbEntity
  8
RASTER
 62
7
100
AcDbHatch
 10
0.0
 20
0.0
 30
0.0
210
0.0
220
0.0
230
1.0
  2
SOLID
 70
1
 71
0
 91
1
 92
3
 72
0
 73
1
 93
4
 10
271.006
 20
77.164
 10
273.325
 20
76.543
 10
273.195
 20
76.06
 10
270.877
 20
76.681
 97
0
 75
0
 76
1
 98
0
  0
HATCH
  5
6F
330
17
100
AcDbEntity
  8
RASTER
 62
7
100
AcDbHatch
 10
0.0
 20
0.0
 30
0.0
210
0.0
220
0.0
230
1.0
  2
SOLID
 70
1
 71
0
 91
1
 92
3
 72
0
 73
1
 93
4
 10
266.791
 20
66.817
 10
268.869
 20
65.617
 10
268.619
 20
65.183
 10
266.541
 20
66.383
 97
0
 75
0
 76
1
 98
0
  0
HATCH
  5
70
330
17
100
AcDbEntity
  8
RASTER
 62
7
100
AcDbHatch
 10
0.0
 20
0.0
 30
0.0
210
0.0
220
0.0
230
1.0
  2
SOLID
 70
1
 71
0
 91
1
 92
3
 72
0
 73
1
 93
4
 10
260.041
 20
57.913
 10
261.738
 20
56.216
 10
261.384
 20
55.862
 10
259.687
 20
57.559
 97
0
 75
0
 76
1
 98
0
  0
HATCH
  5
71
330
17
100
AcDbEntity
  8
RASTER
 62
7
100
AcDbHatch
 10
0.0
 20
0.0
 30
0.0
210
0.0
220
0.0
230
1.0
  2
SOLID
 70
1
 71
0
 91
1
 92
3
 72
0
 73
1
 93
4
 10
199.513
 20
57.559
 10
197.816
 20
55.862
 10
197.462
 20
56.216
 10
199.159
 20
57.913
 97
0
 75
0
 76
1
 98
0
  0
HATCH
  5
72
330
17
100
AcDbEntity
  8
RASTER
 62
7
100
AcDbHatch
 10
0.0
 20
0.0
 30
0.0
210
0.0
220
0.0
230
1.0
  2
SOLID
 70
1
 71
0
 91
1
 92
3
 72
0
 73
1
 93
4
 10
192.659
 20
66.383
 10
190.581
 20
65.183
 10
190.331
 20
65.617
 10
192.409
 20
66.817
 97
0
 75
0
 76
1
 98
0
  0
HATCH
  5
73
330
17
100
AcDbEntity
  8
RASTER
 62
7
100
AcDbHatch
 10
0.0
 20
0.0
 30
0.0
210
0.0
220
0.0
230
1.0
  2
SOLID
 70
1
 71
0
 91
1
 92
3
 72
0
 73
1
 93
4
 10
188.323
 20
76.681
 10
186.005
 20
76.06
 10
185.875
 20
76.543
 10
188.194
 20
77.164
 97
0
 75
0
 76
1
 98
0
  0
HATCH
  5
74
330
17
100
AcDbEntity
  8
RASTER
 62
7
100
AcDbHatch
 10
0.0
 20
0.0
 30
0.0
210
0.0
220
0.0
230
1.0
  2
SOLID
 70
1
 71
0
 91
1
 92
3
 72
0
 73
1
 93
4
 10
186.8
 20
87.75
 10
184.4
 20
87.75
 10
184.4
 20
88.25
 10
186.8
 20
88.25
 97
0
 75
0
 76
1
 98
0
  0
HATCH
  5
75
330
17
100
AcDbEntity
  8
RASTER
 62
7
100
AcDbHatch
 10
0.0
 20
0.0
 30
0.0
210
0.0
220
0.0
230
1.0
  2
SOLID
 70
1
 71
0
 91
1
 92
3
 72
0
 73
1
 93
4
 10
188.194
 20
98.836
 10
185.875
 20
99.457
 10
186.005
 20
99.94
 10
188.323
 20
99.319
 97
0
 75
0
 76
1
 98
0
  0
HATCH
  5
76
330
17
100
AcDbEntity
  8
RASTER
 62
7
100
AcDbHatch
 10
0.0
 20
0.0
 30
0.0
210
0.0
220
0.0
230
1.0
  2
SOLID
 70
1
 71
0
 91
1
 92
3
 72
0
 73
1
 93
4
 10
192.409
 20
109.183
 10
190.331
 20
110.383
 10
190.581
 20
110.817
 10
192.659
 20
109.617
 97
0
 75
0
 76
1
 98
0
  0
HATCH
  5
77
330
17
100
AcDbEntity
  8
RASTER
 62
7
100
AcDbHatch
 10
0.0
 20
0.0
 30
0.0
210
0.0
220
0.0
230
1.0
  2
SOLID
 70
1
 71
0
 91
1
 92
3
 72
0
 73
1
 93
4
 10
199.159
 20
118.087
 10
197.462
 20
119.784
 10
197.816
 20
120.138
 10
199.513
 20
118.441
 97
0
 75
0
 76
1
 98
0
  0
HATCH
  5
78
330
17
100
AcDbEntity
  8
RASTER
 62
7
100
AcDbHatch
 10
0.0
 20
0.0
 30
0.0
210
0.0
220
0.0
230
1.0
  2
SOLID
 70
1
 71
0
 91
1
 92
3
 72
0
 73
1
 93
4
 10
207.983
 20
124.941
 10
206.783
 20
127.019
 10
207.217
 20
127.269
 10
208.417
 20
125.191
 97
0
 75
0
 76
1
 98
0
  0
HATCH
  5
79
330
17
100
AcDbEntity
  8
RASTER
 62
7
100
AcDbHatch
 10
0.0
 20
0.0
 30
0.0
210
0.0
220
0.0
230
1.0
  2
SOLID
 70
1
 71
0
 91
1
 92
3
 72
0
 73
1
 93
4
 10
218.281
 20
129.277
 10
217.66
 20
131.595
 10
218.143
 20
131.725
 10
218.764
 20
129.406
 97
0
 75
0
 76
1
 98
0
  0
HATCH
  5
7A
330
17
100
AcDbEntity
  8
RASTER
 62
7
100
AcDbHatch
 10
0.0
 20
0.0
 30
0.0
210
0.0
220
0.0
230
1.0
  2
SOLID
 70
1
 71
0
 91
1
 92
3
 72
0
 73
1
 93
4
 10
229.35
 20
130.8
 10
229.35
 20
133.2
 10
229.85
 20
133.2
 10
229.85
 20
130.8
 97
0
 75
0
 76
1
 98
0
  0
HATCH
  5
7B
330
17
100
AcDbEntity
  8
RASTER
 62
7
100
AcDbHatch
 10
0.0
 20
0.0
 30
0.0
210
0.0
220
0.0
230
1.0
  2
SOLID
 70
1
 71
0
 91
1
 92
3
 72
0
 73
1
 93
4
 10
240.436
 20
129.406
 10
241.057
 20
131.725
 10
241.54
 20
131.595
 10
240.919
 20
129.277
 97
0
 75
0
 76
1
 98
0
  0
HATCH
  5
7C
330
17
100
AcDbEntity
  8
RASTER
 62
7
100
AcDbHatch
 10
0.0
 20
0.0
 30
0.0
210
0.0
220
0.0
230
1.0
  2
SOLID
 70
1
 71
0
 91
1
 92
3
 72
0
 73
1
 93
4
 10
250.783
 20
125.191
 10
251.983
 20
127.269
 10
252.417
 20
127.019
 10
251.217
 20
124.941
 97
0
 75
0
 76
1
 98
0
  0
HATCH
  5
7D
330
17
100
AcDbEntity
  8
RASTER
 62
7
100
AcDbHatch
 10
0.0
 20
0.0
 30
0.0
210
0.0
220
0.0
230
1.0
  2
SOLID
 70
1
 71
0
 91
1
 92
3
 72
0
 73
1
 93
4
 10
259.687
 20
118.441
 10
261.384
 20
120.138
 10
261.738
 20
119.784
 10
260.041
 20
118.087
 97
0
 75
0
 76
1
 98
0
  0
HATCH
  5
7E
330
17
100
AcDbEntity
  8
RASTER
 62
7
100
AcDbHatch
 10
0.0
 20
0.0
 30
0.0
210
0.0
220
0.0
230
1.0
  2
SOLID
 70
1
 71
0
 91
1
 92
3
 72
0
 73
1
 93
4
 10
266.541
 20
109.617
 10
268.619
 20
110.817
 10
268.869
 20
110.383
 10
266.791
 20
109.183
 97
0
 75
0
 76
1
 98
0
  0
HATCH
  5
7F
330
17
100
AcDbEntity
  8
RASTER
 62
7
100
AcDbHatch
 10
0.0
 20
0.0
 30
0.0
210
0.0
220
0.0
230
1.0
  2
SOLID
 70
1
 71
0
 91
1
 92
3
 72
0
 73
1
 93
4
 10
270.877
 20
99.319
 10
273.195
 20
99.94
 10
273.325
 20
99.457
 10
271.006
 20
98.836
 97
0
 75
0
 76
1
 98
0
  0
LWPOLYLINE
  5
80
330
17
100
AcDbEntity
  8
CUT
100
AcDbPolyline
 90
6
 70
1
 10
57.007
 20
31.539
 10
57.007
 20
31.461
 10
30.5
 20
26.959
 10
3.993
 20
31.461
 10
3.993
 20
31.539
 10
30.5
 20
36.041
  0
CIRCLE
  5
81
330
17
100
AcDbEntity
  8
CUT
100
AcDbCircle
 10
30.5
 20
31.5
 30
0.0
 40
1.61
  0
HATCH
  5
82
330
17
100
AcDbEntity
  8
RASTER
 62
7
100
AcDbHatch
 10
0.0
 20
0.0
 30
0.0
210
0.0
220
0.0
230
1.0
  2
SOLID
 70
1
 71
0
 91
1
 92
3
 72
0
 73
1
 93
14
 10
57.0
 20
31.5
 10
30.5
 20
27.0
 10
30.5
 20
29.2
 10
30.5
 20
29.2
 10
31.38
 20
29.375
 10
32.126
 20
29.874
 10
32.625
 20
30.62
 10
32.8
 20
31.5
 10
32.625
 20
32.38
 10
32.126
 20
33.126
 10
31.38
 20
33.625
 10
30.5
 20
33.8
 10
30.5
 20
33.8
 10
30.5
 20
36.0
 97
0
 75
0
 76
1
 98
0
  0
CIRCLE
  5
83
330
17
100
AcDbEntity
  8
CUT
100
AcDbCircle
 10
65.0
 20
32.0
 30
0.0
 40
4.04
  0
CIRCLE
  5
84
330
17
100
AcDbEntity
  8
CUT
100
AcDbCircle
 10
65.0
 20
32.0
 30
0.0
 40
1.61
  0
LWPOLYLINE
  5
85
330
17
100
AcDbEntity
  8
CUT
100
AcDbPolyline
 90
14
 70
1
 10
103.0
 20
36.04
 10
105.64
 20
36.04
 10
105.64
 20
6.64
 10
107.64
 20
6.64
 10
107.64
 20
3.96
 10
100.96
 20
3.96
 10
100.96
 20
6.64
 10
102.96
 20
6.64
 10
102.96
 20
25.96
 10
73.0
 20
25.96
 10
72.972
 20
26.028
 10
77.943
 20
31.0
 10
72.972
 20
35.972
 10
73.0
 20
36.04
  0
HATCH
  5
86
330
17
100
AcDbEntity
  8
RASTER
 62
7
100
AcDbHatch
 10
0.0
 20
0.0
 30
0.0
210
0.0
220
0.0
230
1.0
  2
SOLID
 70
1
 71
0
 91
1
 92
3
 72
0
 73
1
 93
4
 10
103.9
 20
24.2
 10
104.7
 20
24.2
 10
104.7
 20
7.8
 10
103.9
 20
7.8
 97
0
 75
0
 76
1
 98
0
  0
HATCH
  5
87
330
17
100
AcDbEntity
  8
RASTER
 62
7
100
AcDbHatch
 10
0.0
 20
0.0
 30
0.0
210
0.0
220
0.0
230
1.0
  2
SOLID
 70
1
 71
0
 91
1
 92
3
 72
0
 73
1
 93
16
 10
77.528
 20
32.274
 10
78.108
 20
32.274
 10
78.683
 20
30.09
 10
78.691
 20
30.09
 10
79.346
 20
32.274
 10
79.893
 20
32.274
 10
80.535
 20
30.09
 10
80.544
 20
30.09
 10
81.132
 20
32.274
 10
81.694
 20
32.274
 10
80.825
 20
29.3
 10
80.313
 20
29.3
 10
79.615
 20
31.53
 10
79.607
 20
31.53
 10
78.91
 20
29.3
 10
78.397
 20
29.3
 97
0
 75
0
 76
1
 98
0
  0
HATCH
  5
88
330
17
100
AcDbEntity
  8
RASTER
 62
7
100
AcDbHatch
 10
0.0
 20
0.0
 30
0.0
210
0.0
220
0.0
230
1.0
  2
SOLID
 70
1
 71
0
 91
1
 92
3
 72
0
 73
1
 93
4
 10
82.047
 20
32.274
 10
82.576
 20
32.274
 10
82.576
 20
29.3
 10
82.047
 20
29.3
 97
0
 75
0
 76
1
 98
0
  0
HATCH
  5
89
330
17
100
AcDbEntity
  8
RASTER
 62
7
100
AcDbHatch
 10
0.0
 20
0.0
 30
0.0
210
0.0
220
0.0
230
1.0
  2
SOLID
 70
1
 71
0
 91
1
 92
3
 72
0
 73
1
 93
12
 10
83.232
 20
32.274
 10
83.933
 20
32.274
 10
85.315
 20
30.048
 10
85.323
 20
30.048
 10
85.323
 20
32.274
 10
85.852
 20
32.274
 10
85.852
 20
29.3
 10
85.18
 20
29.3
 10
83.769
 20
31.597
 10
83.761
 20
31.597
 10
83.761
 20
29.3
 10
83.232
 20
29.3
 97
0
 75
0
 76
1
 98
0
  0
HATCH
  5
8A
330
17
100
AcDbEntity
  8
RASTER
 62
7
100
AcDbHatch
 10
0.0
 20
0.0
 30
0.0
210
0.0
220
0.0
230
1.0
  2
SOLID
 70
1
 71
0
 91
2
 92
3
 72
0
 73
1
 93
67
 10
86.508
 20
32.274
 10
87.562
 20
32.274
 10
87.634
 20
32.272
 10
87.707
 20
32.269
 10
87.78
 20
32.263
 10
87.853
 20
32.255
 10
87.926
 20
32.244
 10
87.999
 20
32.231
 10
88.072
 20
32.216
 10
88.146
 20
32.198
 10
88.218
 20
32.178
 10
88.289
 20
32.154
 10
88.358
 20
32.127
 10
88.425
 20
32.098
 10
88.49
 20
32.065
 10
88.553
 20
32.029
 10
88.615
 20
31.99
 10
88.675
 20
31.948
 10
88.732
 20
31.903
 10
88.787
 20
31.854
 10
88.839
 20
31.802
 10
88.888
 20
31.746
 10
88.934
 20
31.688
 10
88.978
 20
31.625
 10
89.019
 20
31.559
 10
89.057
 20
31.49
 10
89.091
 20
31.417
 10
89.121
 20
31.34
 10
89.146
 20
31.258
 10
89.167
 20
31.173
 10
89.183
 20
31.083
 10
89.195
 20
30.988
 10
89.202
 20
30.89
 10
89.204
 20
30.787
 10
89.202
 20
30.691
 10
89.195
 20
30.598
 10
89.183
 20
30.509
 10
89.167
 20
30.423
 10
89.146
 20
30.341
 10
89.121
 20
30.262
 10
89.091
 20
30.187
 10
89.057
 20
30.115
 10
89.019
 20
30.046
 10
88.978
 20
29.98
 10
88.934
 20
29.918
 10
88.888
 20
29.859
 10
88.839
 20
29.802
 10
88.787
 20
29.749
 10
88.732
 20
29.7
 10
88.675
 20
29.653
 10
88.615
 20
29.609
 10
88.553
 20
29.568
 10
88.49
 20
29.531
 10
88.425
 20
29.496
 10
88.358
 20
29.464
 10
88.289
 20
29.435
 10
88.218
 20
29.409
 10
88.146
 20
29.386
 10
88.072
 20
29.366
 10
87.999
 20
29.348
 10
87.926
 20
29.334
 10
87.853
 20
29.322
 10
87.78
 20
29.312
 10
87.707
 20
29.305
 10
87.634
 20
29.301
 10
87.562
 20
29.3
 10
86.508
 20
29.3
 97
0
 92
3
 72
0
 73
1
 93
67
 10
87.478
 20
29.762
 10
87.529
 20
29.763
 10
87.581
 20
29.765
 10
87.632
 20
29.769
 10
87.684
 20
29.774
 10
87.735
 20
29.781
 10
87.786
 20
29.789
 10
87.838
 20
29.799
 10
87.889
 20
29.81
 10
87.94
 20
29.823
 10
87.99
 20
29.839
 10
88.038
 20
29.856
 10
88.085
 20
29.875
 10
88.131
 20
29.897
 10
88.176
 20
29.921
 10
88.219
 20
29.946
 10
88.261
 20
29.974
 10
88.302
 20
30.004
 10
88.34
 20
30.037
 10
88.377
 20
30.072
 10
88.412
 20
30.11
 10
88.445
 20
30.15
 10
88.476
 20
30.193
 10
88.505
 20
30.239
 10
88.532
 20
30.287
 10
88.557
 20
30.338
 10
88.578
 20
30.392
 10
88.596
 20
30.45
 10
88.611
 20
30.511
 10
88.622
 20
30.575
 10
88.63
 20
30.642
 10
88.635
 20
30.713
 10
88.637
 20
30.787
 10
88.635
 20
30.865
 10
88.63
 20
30.939
 10
88.622
 20
31.01
 10
88.611
 20
31.077
 10
88.596
 20
31.14
 10
88.578
 20
31.199
 10
88.557
 20
31.255
 10
88.532
 20
31.308
 10
88.505
 20
31.357
 10
88.476
 20
31.403
 10
88.445
 20
31.446
 10
88.412
 20
31.487
 10
88.377
 20
31.525
 10
88.34
 20
31.56
 10
88.302
 20
31.593
 10
88.261
 20
31.623
 10
88.219
 20
31.65
 10
88.176
 20
31.675
 10
88.131
 20
31.698
 10
88.085
 20
31.718
 10
88.038
 20
31.736
 10
87.99
 20
31.753
 10
87.94
 20
31.766
 10
87.889
 20
31.778
 10
87.838
 20
31.788
 10
87.786
 20
31.796
 10
87.735
 20
31.804
 10
87.684
 20
31.809
 10
87.632
 20
31.814
 10
87.581
 20
31.817
 10
87.529
 20
31.819
 10
87.478
 20
31.82
 10
87.037
 20
31.82
 10
87.037
 20
29.762
 97
0
 75
0
 76
1
 98
0
  0
HATCH
  5
8B
330
17
100
AcDbEntity
  8
RASTER
 62
7
100
AcDbHatch
 10
0.0
 20
0.0
 30
0.0
210
0.0
220
0.0
230
1.0
  2
SOLID
 70
1
 71
0
 91
1
 92
3
 72
0
 73
1
 93
12
 10
90.766
 20
32.274
 10
91.468
 20
32.274
 10
92.85
 20
30.048
 10
92.858
 20
30.048
 10
92.858
 20
32.274
 10
93.387
 20
32.274
 10
93.387
 20
29.3
 10
92.715
 20
29.3
 10
91.304
 20
31.597
 10
91.296
 20
31.597
 10
91.296
 20
29.3
 10
90.766
 20
29.3
 97
0
 75
0
 76
1
 98
0
  0
HATCH
  5
8C
330
17
100
AcDbEntity
  8
RASTER
 62
7
100
AcDbHatch
 10
0.0
 20
0.0
 30
0.0
210
0.0
220
0.0
230
1.0
  2
SOLID
 70
1
 71
0
 91
2
 92
3
 72
0
 73
1
 93
129
 10
93.9
 20
30.795
 10
93.901
 20
30.883
 10
93.907
 20
30.969
 10
93.916
 20
31.053
 10
93.929
 20
31.135
 10
93.946
 20
31.214
 10
93.967
 20
31.292
 10
93.991
 20
31.367
 10
94.019
 20
31.44
 10
94.051
 20
31.51
 10
94.085
 20
31.578
 10
94.122
 20
31.644
 10
94.162
 20
31.706
 10
94.205
 20
31.766
 10
94.251
 20
31.823
 10
94.299
 20
31.877
 10
94.351
 20
31.929
 10
94.405
 20
31.978
 10
94.462
 20
32.024
 10
94.521
 20
32.067
 10
94.583
 20
32.108
 10
94.647
 20
32.145
 10
94.714
 20
32.18
 10
94.783
 20
32.211
 10
94.855
 20
32.24
 10
94.929
 20
32.266
 10
95.004
 20
32.288
 10
95.081
 20
32.307
 10
95.16
 20
32.322
 10
95.24
 20
32.334
 10
95.322
 20
32.342
 10
95.406
 20
32.347
 10
95.491
 20
32.349
 10
95.578
 20
32.347
 10
95.662
 20
32.342
 10
95.745
 20
32.334
 10
95.826
 20
32.322
 10
95.906
 20
32.307
 10
95.983
 20
32.288
 10
96.06
 20
32.266
 10
96.134
 20
32.24
 10
96.206
 20
32.211
 10
96.276
 20
32.18
 10
96.343
 20
32.145
 10
96.408
 20
32.108
 10
96.47
 20
32.067
 10
96.53
 20
32.024
 10
96.587
 20
31.978
 10
96.642
 20
31.929
 10
96.694
 20
31.877
 10
96.743
 20
31.823
 10
96.789
 20
31.766
 10
96.833
 20
31.706
 10
96.873
 20
31.644
 10
96.91
 20
31.578
 10
96.945
 20
31.51
 10
96.976
 20
31.44
 10
97.004
 20
31.367
 10
97.028
 20
31.292
 10
97.049
 20
31.214
 10
97.066
 20
31.135
 10
97.079
 20
31.053
 10
97.088
 20
30.969
 10
97.094
 20
30.883
 10
97.096
 20
30.795
 10
97.094
 20
30.709
 10
97.088
 20
30.625
 10
97.079
 20
30.542
 10
97.066
 20
30.462
 10
97.049
 20
30.383
 10
97.028
 20
30.307
 10
97.004
 20
30.232
 10
96.976
 20
30.159
 10
96.945
 20
30.088
 10
96.91
 20
30.02
 10
96.873
 20
29.954
 10
96.833
 20
29.891
 10
96.789
 20
29.83
 10
96.743
 20
29.772
 10
96.694
 20
29.717
 10
96.642
 20
29.663
 10
96.587
 20
29.613
 10
96.53
 20
29.565
 10
96.47
 20
29.52
 10
96.408
 20
29.478
 10
96.343
 20
29.44
 10
96.276
 20
29.403
 10
96.206
 20
29.37
 10
96.134
 20
29.34
 10
96.06
 20
29.313
 10
95.983
 20
29.289
 10
95.906
 20
29.27
 10
95.826
 20
29.253
 10
95.745
 20
29.241
 10
95.662
 20
29.232
 10
95.578
 20
29.226
 10
95.491
 20
29.224
 10
95.406
 20
29.226
 10
95.322
 20
29.232
 10
95.24
 20
29.241
 10
95.16
 20
29.253
 10
95.081
 20
29.27
 10
95.004
 20
29.289
 10
94.929
 20
29.313
 10
94.855
 20
29.34
 10
94.783
 20
29.37
 10
94.714
 20
29.403
 10
94.647
 20
29.44
 10
94.583
 20
29.478
 10
94.521
 20
29.52
 10
94.462
 20
29.565
 10
94.405
 20
29.613
 10
94.351
 20
29.663
 10
94.299
 20
29.717
 10
94.251
 20
29.772
 10
94.205
 20
29.83
 10
94.162
 20
29.891
 10
94.122
 20
29.954
 10
94.085
 20
30.02
 10
94.051
 20
30.088
 10
94.019
 20
30.159
 10
93.991
 20
30.232
 10
93.967
 20
30.307
 10
93.946
 20
30.383
 10
93.929
 20
30.462
 10
93.916
 20
30.542
 10
93.907
 20
30.625
 10
93.901
 20
30.709
 10
93.9
 20
30.795
 97
0
 92
3
 72
0
 73
1
 93
129
 10
94.475
 20
30.795
 10
94.476
 20
30.736
 10
94.479
 20
30.678
 10
94.485
 20
30.621
 10
94.493
 20
30.566
 10
94.504
 20
30.512
 10
94.516
 20
30.459
 10
94.531
 20
30.407
 10
94.548
 20
30.356
 10
94.568
 20
30.307
 10
94.589
 20
30.26
 10
94.612
 20
30.214
 10
94.638
 20
30.17
 10
94.665
 20
30.127
 10
94.694
 20
30.087
 10
94.725
 20
30.047
 10
94.758
 20
30.01
 10
94.793
 20
29.974
 10
94.83
 20
29.94
 10
94.868
 20
29.909
 10
94.908
 20
29.879
 10
94.949
 20
29.851
 10
94.992
 20
29.826
 10
95.036
 20
29.802
 10
95.082
 20
29.781
 10
95.129
 20
29.762
 10
95.178
 20
29.745
 10
95.228
 20
29.731
 10
95.279
 20
29.719
 10
95.331
 20
29.711
 10
95.385
 20
29.704
 10
95.439
 20
29.7
 10
95.496
 20
29.699
 10
95.552
 20
29.7
 10
95.607
 20
29.704
 10
95.66
 20
29.711
 10
95.713
 20
29.719
 10
95.764
 20
29.731
 10
95.814
 20
29.745
 10
95.863
 20
29.762
 10
95.911
 20
29.781
 10
95.958
 20
29.802
 10
96.003
 20
29.826
 10
96.046
 20
29.851
 10
96.087
 20
29.879
 10
96.127
 20
29.909
 10
96.165
 20
29.94
 10
96.202
 20
29.974
 10
96.237
 20
30.01
 10
96.27
 20
30.047
 10
96.301
 20
30.087
 10
96.33
 20
30.127
 10
96.358
 20
30.17
 10
96.383
 20
30.214
 10
96.406
 20
30.26
 10
96.427
 20
30.307
 10
96.447
 20
30.356
 10
96.464
 20
30.407
 10
96.479
 20
30.459
 10
96.492
 20
30.512
 10
96.502
 20
30.566
 10
96.51
 20
30.621
 10
96.516
 20
30.678
 10
96.519
 20
30.736
 10
96.52
 20
30.795
 10
96.519
 20
30.852
 10
96.516
 20
30.909
 10
96.51
 20
30.964
 10
96.502
 20
31.018
 10
96.492
 20
31.071
 10
96.479
 20
31.123
 10
96.464
 20
31.174
 10
96.447
 20
31.224
 10
96.427
 20
31.272
 10
96.406
 20
31.319
 10
96.383
 20
31.365
 10
96.358
 20
31.408
 10
96.331
 20
31.451
 10
96.302
 20
31.491
 10
96.272
 20
31.53
 10
96.239
 20
31.568
 10
96.204
 20
31.604
 10
96.168
 20
31.638
 10
96.13
 20
31.669
 10
96.091
 20
31.699
 10
96.05
 20
31.727
 10
96.007
 20
31.753
 10
95.962
 20
31.777
 10
95.916
 20
31.799
 10
95.868
 20
31.819
 10
95.818
 20
31.836
 10
95.768
 20
31.85
 10
95.716
 20
31.862
 10
95.663
 20
31.871
 10
95.608
 20
31.878
 10
95.553
 20
31.882
 10
95.496
 20
31.883
 10
95.438
 20
31.882
 10
95.383
 20
31.878
 10
95.328
 20
31.871
 10
95.276
 20
31.862
 10
95.224
 20
31.85
 10
95.174
 20
31.836
 10
95.125
 20
31.819
 10
95.078
 20
31.799
 10
95.032
 20
31.777
 10
94.987
 20
31.753
 10
94.945
 20
31.727
 10
94.904
 20
31.699
 10
94.864
 20
31.669
 10
94.827
 20
31.638
 10
94.791
 20
31.604
 10
94.756
 20
31.568
 10
94.724
 20
31.53
 10
94.693
 20
31.491
 10
94.664
 20
31.451
 10
94.637
 20
31.408
 10
94.612
 20
31.365
 10
94.589
 20
31.319
 10
94.568
 20
31.272
 10
94.548
 20
31.224
 10
94.531
 20
31.174
 10
94.516
 20
31.123
 10
94.504
 20
31.071
 10
94.493
 20
31.018
 10
94.485
 20
30.964
 10
94.479
 20
30.909
 10
94.476
 20
30.852
 10
94.475
 20
30.795
 97
0
 75
0
 76
1
 98
0
  0
HATCH
  5
8D
330
17
100
AcDbEntity
  8
RASTER
 62
7
100
AcDbHatch
 10
0.0
 20
0.0
 30
0.0
210
0.0
220
0.0
230
1.0
  2
SOLID
 70
1
 71
0
 91
1
 92
3
 72
0
 73
1
 93
16
 10
97.306
 20
32.274
 10
97.885
 20
32.274
 10
98.461
 20
30.09
 10
98.469
 20
30.09
 10
99.124
 20
32.274
 10
99.67
 20
32.274
 10
100.313
 20
30.09
 10
100.321
 20
30.09
 10
100.909
 20
32.274
 10
101.472
 20
32.274
 10
100.603
 20
29.3
 10
100.09
 20
29.3
 10
99.393
 20
31.53
 10
99.385
 20
31.53
 10
98.688
 20
29.3
 10
98.175
 20
29.3
 97
0
 75
0
 76
1
 98
0
  0
ENDSEC
  0
SECTION
  2
OBJECTS
  0
DICTIONARY
  5
A
330
0
100
AcDbDictionary
281
1
  3
ACAD_COLOR
350
B
  3
ACAD_GROUP
350
C
  3
ACAD_LAYOUT
350
D
  3
ACAD_MATERIAL
350
E
  3
ACAD_MLEADERSTYLE
350
F
  3
ACAD_MLINESTYLE
350
10
  3
ACAD_PLOTSETTINGS
350
11
  3
ACAD_PLOTSTYLENAME
350
12
  3
ACAD_SCALELIST
350
14
  3
ACAD_TABLESTYLE
350
15
  3
ACAD_VISUALSTYLE
350
16
  3
EZDXF_META
350
2D
  0
DICTIONARY
  5
B
330
A
100
AcDbDictionary
281
1
  0
DICTIONARY
  5
C
330
A
100
AcDbDictionary
281
1
  0
DICTIONARY
  5
D
330
A
100
AcDbDictionary
281
1
  3
Model
350
1A
  3
Layout1
350
1E
  0
DICTIONARY
  5
E
330
A
100
AcDbDictionary
281
1
  3
ByBlock
350
1F
  3
ByLayer
350
20
  3
Global
350
21
  0
DICTIONARY
  5
F
330
A
100
AcDbDictionary
281
1
  3
Standard
350
2C
  0
DICTIONARY
  5
10
330
A
100
AcDbDictionary
281
1
  3
Standard
350
22
  0
DICTIONARY
  5
11
330
A
100
AcDbDictionary
281
1
  0
ACDBDICTIONARYWDFLT
  5
12
330
A
100
AcDbDictionary
281
1
  3
Normal
350
13
100
AcDbDictionaryWithDefault
340
13
  0
ACDBPLACEHOLDER
  5
13
330
12
  0
DICTIONARY
  5
14
330
A
100
AcDbDictionary
281
1
  0
DICTIONARY
  5
15
330
A
100
AcDbDictionary
281
1
  0
DICTIONARY
  5
16
330
A
100
AcDbDictionary
281
1
  0
LAYOUT
  5
1A
330
D
100
AcDbPlotSettings
  1

  4
A3
  6

 40
7.5
 41
20.0
 42
7.5
 43
20.0
 44
420.0
 45
297.0
 46
0.0
 47
0.0
 48
0.0
 49
0.0
140
0.0
141
0.0
142
1.0
143
1.0
 70
1024
 72
1
 73
0
 74
5
  7

 75
16
 76
0
 77
2
 78
300
147
1.0
148
0.0
149
0.0
100
AcDbLayout
  1
Model
 70
1
 71
0
 10
0.0
 20
0.0
 11
420.0
 21
297.0
 12
0.0
 22
0.0
 32
0.0
 14
1e+20
 24
1e+20
 34
1e+20
 15
-1e+20
 25
-1e+20
 35
-1e+20
146
0.0
 13
0.0
 23
0.0
 33
0.0
 16
1.0
 26
0.0
 36
0.0
 17
0.0
 27
1.0
 37
0.0
 76
1
330
17
  0
LAYOUT
  5
1E
330
D
100
AcDbPlotSettings
  1

  4
A3
  6

 40
7.5
 41
20.0
 42
7.5
 43
20.0
 44
420.0
 45
297.0
 46
0.0
 47
0.0
 48
0.0
 49
0.0
140
0.0
141
0.0
142
1.0
143
1.0
 70
0
 72
1
 73
0
 74
5
  7

 75
16
 76
0
 77
2
 78
300
147
1.0
148
0.0
149
0.0
100
AcDbLayout
  1
Layout1
 70
1
 71
1
 10
0.0
 20
0.0
 11
420.0
 21
297.0
 12
0.0
 22
0.0
 32
0.0
 14
1e+20
 24
1e+20
 34
1e+20
 15
-1e+20
 25
-1e+20
 35
-1e+20
146
0.0
 13
0.0
 23
0.0
 33
0.0
 16
1.0
 26
0.0
 36
0.0
 17
0.0
 27
1.0
 37
0.0
 76
1
330
1B
  0
MATERIAL
  5
1F
102
{ACAD_REACTORS
330
E
102
}
330
E
100
AcDbMaterial
  1
ByBlock
  2

 70
0
 40
1.0
 71
1
 41
1.0
 91
-1023410177
 42
1.0
 72
1
  3

 73
1
 74
1
 75
1
 44
0.5
 73
0
 45
1.0
 46
1.0
 77
1
  4

 78
1
 79
1
170
1
 48
1.0
171
1
  6

172
1
173
1
174
1
140
1.0
141
1.0
175
1
  7

176
1
177
1
178
1
143
1.0
179
1
  8

270
1
271
1
272
1
145
1.0
146
1.0
273
1
  9

274
1
275
1
276
1
 42
1.0
 72
1
  3

 73
1
 74
1
 75
1
 94
63
  0
MATERIAL
  5
20
102
{ACAD_REACTORS
330
E
102
}
330
E
100
AcDbMaterial
  1
ByLayer
  2

 70
0
 40
1.0
 71
1
 41
1.0
 91
-1023410177
 42
1.0
 72
1
  3

 73
1
 74
1
 75
1
 44
0.5
 73
0
 45
1.0
 46
1.0
 77
1
  4

 78
1
 79
1
170
1
 48
1.0
171
1
  6

172
1
173
1
174
1
140
1.0
141
1.0
175
1
  7

176
1
177
1
178
1
143
1.0
179
1
  8

270
1
271
1
272
1
145
1.0
146
1.0
273
1
  9

274
1
275
1
276
1
 42
1.0
 72
1
  3

 73
1
 74
1
 75
1
 94
63
  0
MATERIAL
  5
21
102
{ACAD_REACTORS
330
E
102
}
330
E
100
AcDbMaterial
  1
Global
  2

 70
0
 40
1.0
 71
1
 41
1.0
 91
-1023410177
 42
1.0
 72
1
  3

 73
1
 74
1
 75
1
 44
0.5
 73
0
 45
1.0
 46
1.0
 77
1
  4

 78
1
 79
1
170
1
 48
1.0
171
1
  6

172
1
173
1
174
1
140
1.0
141
1.0
175
1
  7

176
1
177
1
178
1
143
1.0
179
1
  8

270
1
271
1
272
1
145
1.0
146
1.0
273
1
  9

274
1
275
1
276
1
 42
1.0
 72
1
  3

 73
1
 74
1
 75
1
 94
63
  0
MLINESTYLE
  5
22
102
{ACAD_REACTORS
330
10
102
}
330
10
100
AcDbMlineStyle
  2
Standard
 70
0
  3

 62
256
 51
90.0
 52
90.0
 71
2
 49
0.5
 62
256
  6
BYLAYER
 49
-0.5
 62
256
  6
BYLAYER
  0
MLEADERSTYLE
  5
2C
102
{ACAD_REACTORS
330
F
102
}
330
F
100
AcDbMLeaderStyle
179
2
170
2
171
1
172
0
 90
2
 40
0.0
 41
0.0
173
1
 91
-1056964608
 92
-2
290
1
 42
2.0
291
1
 43
8.0
  3
Standard
 44
4.0
300

342
29
174
1
175
1
176
0
178
1
 93
-1056964608
 45
4.0
292
0
297
0
 46
4.0
 94
-1056964608
 47
1.0
 49
1.0
140
1.0
294
1
141
0.0
177
0
142
1.0
295
0
296
0
143
3.75
271
0
272
9
273
9
  0
DICTIONARY
  5
2D
330
A
100
AcDbDictionary
280
1
281
1
  3
CREATED_BY_EZDXF
350
2E
  3
WRITTEN_BY_EZDXF
350
90
  0
DICTIONARYVAR
  5
2E
330
2D
100
DictionaryVariables
280
0
  1
1.4.2 @ 2026-08-25T17:51:40.485806+00:00
  0
DICTIONARYVAR
  5
90
330
2D
100
DictionaryVariables
280
0
  1
1.4.2 @ 2026-08-25T17:51:40.492129+00:00
  0
ENDSEC
  0
EOF
