<svg xmlns="http://www.w3.org/2000/svg" xmlns:inkscape="http://www.inkscape.org/namespaces/inkscape" width="237mm" height="254.8mm" viewBox="0 0 237 254.8">
<title>Pastry Pirates — V3 · The Round Table — Wind spinner</title>
<desc>Nested, all 3 mm: a 96 mm backing disc; the game's compass as a 70 mm dial glued on it (storm wedge in the last fifth of each quadrant); a ring that turns around the dial — its slot takes the standing WIND NOW vane, a pennant on a 30 mm mast that streams toward the letter the ring is set to; a flat compass needle on the centre pivot for the forecast — the dark half is the pointer. Stack: backing, dial + ring (same level), needle, washer — an M3 × 16 bolt with a nyloc nut; the vane just drops into the ring.  Units: mm. 25 mm squares, 5.9 mm material. KERF-COMPENSATED: cut lines offset 0.1375 mm away from the kept wood (kerf 0.275 mm) — cut exactly on the line. RASTER = black fill (engrave), CUT = red hairline (cut). Generated by physical-board/generate.mjs.</desc>
<g id="RASTER" class="layer-raster" inkscape:label="RASTER" inkscape:groupmode="layer" fill="#000000" fill-rule="nonzero" stroke="none">
<g class="piece" data-piece="spinner-backing">
<path d="M99.9 64.7A35.2 35.2 0 1 1 29.5 64.7A35.2 35.2 0 1 1 99.9 64.7ZM99.4 64.7A34.7 34.7 0 1 0 30 64.7A34.7 34.7 0 1 0 99.4 64.7Z"/>
</g>
<g class="piece" data-piece="spinner-dial">
<path d="M170.4 40.8A4.2 4.2 0 1 1 162 40.8A4.2 4.2 0 1 1 170.4 40.8ZM169.6 40.8A3.4 3.4 0 1 0 162.8 40.8A3.4 3.4 0 1 0 169.6 40.8Z"/>
<path d="M172.464 7.382L174.127 7.737L175.77 8.175L177.389 8.694L178.98 9.293L180.539 9.971L182.062 10.727L183.545 11.557L184.985 12.461L186.378 13.435L187.721 14.478L189.01 15.587L190.242 16.758L191.413 17.99L192.522 19.279L193.565 20.622L194.539 22.015L195.443 23.455L196.273 24.938L197.029 26.461L197.707 28.02L198.306 29.611L198.825 31.23L199.263 32.873L199.618 34.536L198.93 34.664L198.582 33.036L198.154 31.427L197.645 29.842L197.058 28.283L196.394 26.757L195.654 25.265L194.841 23.812L193.956 22.402L193.001 21.037L191.98 19.722L190.894 18.46L189.747 17.253L188.54 16.106L187.278 15.02L185.963 13.999L184.598 13.044L183.188 12.159L181.735 11.346L180.243 10.606L178.717 9.942L177.158 9.355L175.573 8.846L173.964 8.418L172.336 8.07Z"/>
<path d="M172.464 12.075L173.822 12.405L175.164 12.8L176.485 13.258L177.782 13.778L179.054 14.359L180.296 15L181.507 15.699L182.683 16.455L183.822 17.266L184.921 18.131L185.977 19.046L186.989 20.011L187.954 21.023L188.869 22.079L189.734 23.178L190.545 24.317L191.301 25.493L192 26.704L192.641 27.946L193.222 29.218L193.742 30.515L194.2 31.836L194.595 33.178L194.925 34.536L194.339 34.664L194.015 33.333L193.629 32.019L193.18 30.725L192.671 29.454L192.102 28.208L191.474 26.991L190.789 25.805L190.048 24.653L189.253 23.538L188.407 22.461L187.51 21.426L186.565 20.435L185.574 19.49L184.539 18.593L183.462 17.747L182.347 16.952L181.195 16.211L180.009 15.526L178.792 14.898L177.546 14.329L176.275 13.82L174.981 13.371L173.667 12.985L172.336 12.661Z"/>
<path d="M199.618 47.064L199.263 48.727L198.825 50.37L198.306 51.989L197.707 53.58L197.029 55.139L196.273 56.662L195.443 58.145L194.539 59.585L193.565 60.978L192.522 62.321L191.413 63.61L190.242 64.842L189.01 66.013L187.721 67.122L186.378 68.165L184.985 69.139L183.545 70.043L182.062 70.873L180.539 71.629L178.98 72.307L177.389 72.906L175.77 73.425L174.127 73.863L172.464 74.218L172.336 73.53L173.964 73.182L175.573 72.754L177.158 72.245L178.717 71.658L180.243 70.994L181.735 70.254L183.188 69.441L184.598 68.556L185.963 67.601L187.278 66.58L188.54 65.494L189.747 64.347L190.894 63.14L191.98 61.878L193.001 60.563L193.956 59.198L194.841 57.788L195.654 56.335L196.394 54.843L197.058 53.317L197.645 51.758L198.154 50.173L198.582 48.564L198.93 46.936Z"/>
<path d="M194.925 47.064L194.595 48.422L194.2 49.764L193.742 51.085L193.222 52.382L192.641 53.654L192 54.896L191.301 56.107L190.545 57.283L189.734 58.422L188.869 59.521L187.954 60.577L186.989 61.589L185.977 62.554L184.921 63.469L183.822 64.334L182.683 65.145L181.507 65.901L180.296 66.6L179.054 67.241L177.782 67.822L176.485 68.342L175.164 68.8L173.822 69.195L172.464 69.525L172.336 68.939L173.667 68.615L174.981 68.229L176.275 67.78L177.546 67.271L178.792 66.702L180.009 66.074L181.195 65.389L182.347 64.648L183.462 63.853L184.539 63.007L185.574 62.11L186.565 61.165L187.51 60.174L188.407 59.139L189.253 58.062L190.048 56.947L190.789 55.795L191.474 54.609L192.102 53.392L192.671 52.146L193.18 50.875L193.629 49.581L194.015 48.267L194.339 46.936Z"/>
<path d="M159.936 74.218L158.273 73.863L156.63 73.425L155.011 72.906L153.42 72.307L151.861 71.629L150.338 70.873L148.855 70.043L147.415 69.139L146.022 68.165L144.679 67.122L143.39 66.013L142.158 64.842L140.987 63.61L139.878 62.321L138.835 60.978L137.861 59.585L136.957 58.145L136.127 56.662L135.371 55.139L134.693 53.58L134.094 51.989L133.575 50.37L133.137 48.727L132.782 47.064L133.47 46.936L133.818 48.564L134.246 50.173L134.755 51.758L135.342 53.317L136.006 54.843L136.746 56.335L137.559 57.788L138.444 59.198L139.399 60.563L140.42 61.878L141.506 63.14L142.653 64.347L143.86 65.494L145.122 66.58L146.437 67.601L147.802 68.556L149.212 69.441L150.665 70.254L152.157 70.994L153.683 71.658L155.242 72.245L156.827 72.754L158.436 73.182L160.064 73.53Z"/>
<path d="M159.936 69.525L158.578 69.195L157.236 68.8L155.915 68.342L154.618 67.822L153.346 67.241L152.104 66.6L150.893 65.901L149.717 65.145L148.578 64.334L147.479 63.469L146.423 62.554L145.411 61.589L144.446 60.577L143.531 59.521L142.666 58.422L141.855 57.283L141.099 56.107L140.4 54.896L139.759 53.654L139.178 52.382L138.658 51.085L138.2 49.764L137.805 48.422L137.475 47.064L138.061 46.936L138.385 48.267L138.771 49.581L139.22 50.875L139.729 52.146L140.298 53.392L140.926 54.609L141.611 55.795L142.352 56.947L143.147 58.062L143.993 59.139L144.89 60.174L145.835 61.165L146.826 62.11L147.861 63.007L148.938 63.853L150.053 64.648L151.205 65.389L152.391 66.074L153.608 66.702L154.854 67.271L156.125 67.78L157.419 68.229L158.733 68.615L160.064 68.939Z"/>
<path d="M132.782 34.536L133.137 32.873L133.575 31.23L134.094 29.611L134.693 28.02L135.371 26.461L136.127 24.938L136.957 23.455L137.861 22.015L138.835 20.622L139.878 19.279L140.987 17.99L142.158 16.758L143.39 15.587L144.679 14.478L146.022 13.435L147.415 12.461L148.855 11.557L150.338 10.727L151.861 9.971L153.42 9.293L155.011 8.694L156.63 8.175L158.273 7.737L159.936 7.382L160.064 8.07L158.436 8.418L156.827 8.846L155.242 9.355L153.683 9.942L152.157 10.606L150.665 11.346L149.212 12.159L147.802 13.044L146.437 13.999L145.122 15.02L143.86 16.106L142.653 17.253L141.506 18.46L140.42 19.722L139.399 21.037L138.444 22.402L137.559 23.812L136.746 25.265L136.006 26.757L135.342 28.283L134.755 29.842L134.246 31.427L133.818 33.036L133.47 34.664Z"/>
<path d="M137.475 34.536L137.805 33.178L138.2 31.836L138.658 30.515L139.178 29.218L139.759 27.946L140.4 26.704L141.099 25.493L141.855 24.317L142.666 23.178L143.531 22.079L144.446 21.023L145.411 20.011L146.423 19.046L147.479 18.131L148.578 17.266L149.717 16.455L150.893 15.699L152.104 15L153.346 14.359L154.618 13.778L155.915 13.258L157.236 12.8L158.578 12.405L159.936 12.075L160.064 12.661L158.733 12.985L157.419 13.371L156.125 13.82L154.854 14.329L153.608 14.898L152.391 15.526L151.205 16.211L150.053 16.952L148.938 17.747L147.861 18.593L146.826 19.49L145.835 20.435L144.89 21.426L143.993 22.461L143.147 23.538L142.352 24.653L141.611 25.805L140.926 26.991L140.298 28.208L139.729 29.454L139.22 30.725L138.771 32.019L138.385 33.333L138.061 34.664Z"/>
<circle cx="196.433" cy="48.901" r="0.5"/>
<circle cx="194.567" cy="54.028" r="0.5"/>
<circle cx="191.839" cy="58.753" r="0.5"/>
<circle cx="184.153" cy="66.439" r="0.5"/>
<circle cx="179.428" cy="69.167" r="0.5"/>
<circle cx="174.301" cy="71.033" r="0.5"/>
<circle cx="158.099" cy="71.033" r="0.5"/>
<circle cx="152.972" cy="69.167" r="0.5"/>
<circle cx="148.247" cy="66.439" r="0.5"/>
<circle cx="140.561" cy="58.753" r="0.5"/>
<circle cx="137.833" cy="54.028" r="0.5"/>
<circle cx="135.967" cy="48.901" r="0.5"/>
<circle cx="135.967" cy="32.699" r="0.5"/>
<circle cx="137.833" cy="27.572" r="0.5"/>
<circle cx="140.561" cy="22.847" r="0.5"/>
<circle cx="148.247" cy="15.161" r="0.5"/>
<circle cx="152.972" cy="12.433" r="0.5"/>
<circle cx="158.099" cy="10.567" r="0.5"/>
<circle cx="174.301" cy="10.567" r="0.5"/>
<circle cx="179.428" cy="12.433" r="0.5"/>
<circle cx="184.153" cy="15.161" r="0.5"/>
<circle cx="191.839" cy="22.847" r="0.5"/>
<circle cx="194.567" cy="27.572" r="0.5"/>
<circle cx="196.433" cy="32.699" r="0.5"/>
<path d="M171.6 9.4A5.4 5.4 0 1 1 160.8 9.4A5.4 5.4 0 1 1 171.6 9.4ZM164.266 7.18L164.266 11.57L165.047 11.57L165.047 8.179L165.059 8.179L167.142 11.57L168.134 11.57L168.134 7.18L167.353 7.18L167.353 10.466L167.341 10.466L165.301 7.18L164.266 7.18Z"/>
<path d="M203 40.8A5.4 5.4 0 1 1 192.2 40.8A5.4 5.4 0 1 1 203 40.8ZM196.193 38.58L196.193 42.97L199.212 42.97L199.212 42.276L196.974 42.276L196.974 41.036L198.989 41.036L198.989 40.378L196.974 40.378L196.974 39.262L199.1 39.262L199.1 38.58L196.193 38.58Z"/>
<path d="M171.6 72.2A5.4 5.4 0 1 1 160.8 72.2A5.4 5.4 0 1 1 171.6 72.2ZM167.142 70.898L167.651 70.34C167.481 70.183 167.282 70.065 167.052 69.987C166.823 69.908 166.597 69.869 166.374 69.869C166.175 69.869 165.98 69.895 165.788 69.946C165.596 69.998 165.424 70.077 165.273 70.182C165.122 70.287 165 70.421 164.907 70.582C164.814 70.743 164.768 70.935 164.768 71.158C164.768 71.365 164.801 71.538 164.867 71.676C164.933 71.815 165.019 71.931 165.124 72.026C165.23 72.121 165.349 72.198 165.481 72.256C165.613 72.314 165.745 72.363 165.878 72.405C166.014 72.45 166.144 72.493 166.268 72.535C166.392 72.576 166.5 72.625 166.591 72.681C166.682 72.736 166.754 72.802 166.808 72.879C166.861 72.955 166.888 73.051 166.888 73.167C166.888 73.287 166.864 73.387 166.817 73.468C166.769 73.548 166.707 73.616 166.631 73.669C166.554 73.723 166.469 73.761 166.374 73.784C166.279 73.807 166.186 73.818 166.095 73.818C165.921 73.818 165.744 73.775 165.564 73.688C165.385 73.601 165.241 73.483 165.134 73.335L164.576 73.855C164.749 74.062 164.972 74.218 165.245 74.324C165.518 74.429 165.797 74.482 166.082 74.482C166.297 74.482 166.502 74.453 166.696 74.395C166.89 74.337 167.06 74.25 167.204 74.134C167.349 74.019 167.465 73.873 167.552 73.697C167.638 73.522 167.682 73.316 167.682 73.08C167.682 72.865 167.641 72.686 167.561 72.541C167.48 72.396 167.377 72.276 167.251 72.181C167.125 72.086 166.986 72.01 166.836 71.952C166.685 71.894 166.539 71.842 166.398 71.797C166.274 71.76 166.161 71.723 166.057 71.685C165.954 71.648 165.866 71.605 165.794 71.555C165.722 71.506 165.665 71.446 165.623 71.375C165.582 71.305 165.561 71.22 165.561 71.121C165.561 71.014 165.585 70.922 165.633 70.845C165.68 70.769 165.741 70.707 165.816 70.659C165.89 70.612 165.973 70.577 166.064 70.554C166.155 70.531 166.245 70.52 166.336 70.52C166.489 70.52 166.641 70.556 166.792 70.628C166.943 70.701 167.06 70.791 167.142 70.898Z"/>
<path d="M140.2 40.8A5.4 5.4 0 1 1 129.4 40.8A5.4 5.4 0 1 1 140.2 40.8ZM131.725 38.58L133.008 42.97L133.765 42.97L134.794 39.678L134.806 39.678L135.835 42.97L136.592 42.97L137.875 38.58L137.044 38.58L136.176 41.804L136.164 41.804L135.215 38.58L134.409 38.58L133.442 41.804L133.43 41.804L132.58 38.58L131.725 38.58Z"/>
<path d="M192.736 60.079L192.481 60.425L192.222 60.767L191.958 61.106L191.69 61.442L191.418 61.774L191.141 62.102L190.86 62.427L190.575 62.747L190.286 63.065L189.992 63.378L189.695 63.688L189.393 63.993L189.088 64.295L188.778 64.592L188.465 64.886L188.147 65.175L187.827 65.46L187.502 65.741L187.174 66.018L186.842 66.29L186.506 66.558L186.167 66.822L185.825 67.081L185.479 67.336L169.256 45.007L169.311 44.967L169.366 44.925L169.419 44.884L169.472 44.841L169.525 44.798L169.577 44.754L169.629 44.71L169.679 44.664L169.73 44.618L169.779 44.572L169.829 44.525L169.877 44.477L169.925 44.429L169.972 44.379L170.018 44.33L170.064 44.279L170.11 44.229L170.154 44.177L170.198 44.125L170.241 44.072L170.284 44.019L170.325 43.966L170.367 43.911L170.407 43.856ZM184.666 59.344L184.855 58.919L184.927 58.367L185.116 58.207L185.263 58.016L185.356 57.782L185.377 57.644L185.354 57.336L185.167 56.911L185.303 56.518L185.312 56.104L185.241 55.859L185.074 55.572L184.787 55.286L184.553 55.145L184.234 55.05L183.735 55.075L183.427 55.198L183.214 55.349L182.247 56.293L182.148 56.21L181.727 55.479L181.674 55.464L181.635 55.498L181.495 55.881L181.387 55.972L181.319 55.902L181.136 55.424L181.06 55.388L181.038 55.434L181.149 57.049L181.196 57.107L181.257 57.092L181.425 56.752L181.536 56.609L181.608 56.635L181.667 56.816L181.631 56.89L180.909 57.591L180.69 57.878L180.513 58.292L180.482 58.696L180.513 58.951L180.639 59.27L180.856 59.557L181.164 59.782L181.642 59.922L182.077 59.895L182.513 59.729L182.736 59.869L183.034 59.984L183.342 60.022L183.65 60.014L183.969 59.922L184.245 59.776L184.666 59.344ZM184.88 63.245L184.869 63.002C184.795 63.005 184.722 63.023 184.652 63.058C184.582 63.092 184.521 63.135 184.47 63.186C184.425 63.231 184.386 63.281 184.354 63.337C184.322 63.393 184.301 63.45 184.291 63.508C184.28 63.566 184.283 63.625 184.298 63.683C184.314 63.741 184.347 63.795 184.398 63.846C184.445 63.893 184.492 63.925 184.539 63.941C184.585 63.958 184.632 63.965 184.677 63.963C184.723 63.96 184.768 63.951 184.811 63.934C184.854 63.917 184.896 63.898 184.936 63.877C184.977 63.856 185.017 63.837 185.054 63.818C185.092 63.799 185.128 63.785 185.161 63.777C185.195 63.769 185.226 63.768 185.256 63.773C185.286 63.778 185.314 63.794 185.34 63.821C185.367 63.848 185.385 63.876 185.392 63.905C185.4 63.935 185.401 63.964 185.396 63.994C185.391 64.024 185.38 64.052 185.363 64.079C185.347 64.106 185.328 64.129 185.307 64.15C185.268 64.19 185.218 64.22 185.157 64.241C185.096 64.263 185.036 64.268 184.978 64.259L184.969 64.505C185.056 64.513 185.143 64.497 185.229 64.459C185.315 64.421 185.391 64.369 185.456 64.304C185.505 64.255 185.545 64.202 185.576 64.144C185.607 64.087 185.626 64.028 185.633 63.969C185.639 63.91 185.632 63.85 185.612 63.79C185.592 63.73 185.555 63.673 185.501 63.62C185.452 63.571 185.402 63.539 185.351 63.524C185.299 63.51 185.248 63.506 185.198 63.513C185.147 63.52 185.098 63.534 185.051 63.555C185.003 63.577 184.958 63.598 184.916 63.62C184.879 63.64 184.845 63.657 184.812 63.672C184.78 63.687 184.75 63.697 184.723 63.702C184.695 63.708 184.668 63.707 184.643 63.7C184.617 63.694 184.593 63.679 184.571 63.657C184.546 63.632 184.531 63.606 184.524 63.577C184.517 63.549 184.517 63.521 184.523 63.493C184.529 63.465 184.54 63.438 184.556 63.413C184.571 63.387 184.589 63.363 184.61 63.343C184.645 63.308 184.688 63.281 184.739 63.263C184.79 63.245 184.837 63.239 184.88 63.245ZM185.33 62.688L186.176 63.533L186.354 63.355L185.508 62.51L185.815 62.203L185.66 62.047L184.868 62.839L185.023 62.995L185.33 62.688ZM186.225 62.477C186.304 62.555 186.388 62.613 186.48 62.651C186.571 62.689 186.664 62.707 186.758 62.706C186.853 62.705 186.946 62.685 187.037 62.645C187.128 62.606 187.213 62.547 187.29 62.47C187.368 62.392 187.428 62.307 187.468 62.215C187.508 62.123 187.528 62.029 187.53 61.935C187.531 61.84 187.513 61.747 187.475 61.655C187.438 61.564 187.38 61.479 187.301 61.401C187.221 61.321 187.136 61.262 187.044 61.224C186.953 61.186 186.86 61.169 186.767 61.172C186.674 61.175 186.582 61.197 186.491 61.238C186.401 61.28 186.316 61.34 186.238 61.418C186.161 61.495 186.102 61.579 186.061 61.669C186.019 61.759 185.998 61.85 185.995 61.943C185.993 62.036 186.011 62.128 186.048 62.22C186.086 62.311 186.145 62.397 186.225 62.477ZM186.419 62.283C186.367 62.231 186.327 62.175 186.3 62.114C186.272 62.054 186.256 61.992 186.254 61.928C186.251 61.865 186.261 61.803 186.284 61.742C186.307 61.682 186.345 61.625 186.396 61.573C186.448 61.522 186.505 61.484 186.566 61.46C186.627 61.437 186.69 61.426 186.753 61.429C186.816 61.432 186.878 61.447 186.939 61.475C187 61.503 187.056 61.543 187.108 61.595C187.161 61.648 187.202 61.706 187.231 61.767C187.259 61.828 187.274 61.891 187.277 61.955C187.279 62.018 187.268 62.08 187.244 62.141C187.22 62.202 187.183 62.258 187.132 62.309C187.081 62.36 187.025 62.397 186.965 62.42C186.905 62.444 186.843 62.455 186.779 62.452C186.715 62.45 186.653 62.435 186.592 62.406C186.53 62.378 186.473 62.337 186.419 62.283ZM186.976 60.731L187.977 61.732L188.156 61.554L187.731 61.129L187.862 60.999L188.518 61.192L188.733 60.977L188.021 60.8C188.076 60.713 188.101 60.626 188.096 60.54C188.092 60.453 188.053 60.373 187.98 60.301C187.928 60.248 187.872 60.213 187.815 60.197C187.757 60.181 187.7 60.179 187.643 60.191C187.586 60.203 187.53 60.226 187.476 60.26C187.422 60.295 187.371 60.335 187.324 60.383L186.976 60.731ZM187.731 60.838L187.586 60.984L187.304 60.702L187.466 60.541C187.488 60.518 187.513 60.497 187.541 60.477C187.569 60.456 187.598 60.442 187.627 60.434C187.656 60.425 187.685 60.423 187.715 60.429C187.745 60.434 187.773 60.45 187.801 60.477C187.831 60.508 187.849 60.539 187.855 60.571C187.861 60.604 187.859 60.636 187.849 60.666C187.84 60.697 187.824 60.727 187.802 60.756C187.78 60.785 187.757 60.813 187.731 60.838ZM187.866 59.841L188.867 60.842L189.037 60.673L188.232 59.868L188.235 59.865L189.339 60.37L189.464 60.245L188.963 59.137L188.966 59.134L189.771 59.939L189.947 59.762L188.946 58.761L188.666 59.041L189.12 60.009L189.116 60.014L188.144 59.562L187.866 59.841Z"/>
<path d="M146.921 67.336L146.575 67.081L146.233 66.822L145.894 66.558L145.558 66.29L145.226 66.018L144.898 65.741L144.573 65.46L144.253 65.175L143.935 64.886L143.622 64.592L143.312 64.295L143.007 63.993L142.705 63.688L142.408 63.378L142.114 63.065L141.825 62.747L141.54 62.427L141.259 62.102L140.982 61.774L140.71 61.442L140.442 61.106L140.178 60.767L139.919 60.425L139.664 60.079L161.993 43.856L162.033 43.911L162.075 43.966L162.116 44.019L162.159 44.072L162.202 44.125L162.246 44.177L162.29 44.229L162.336 44.279L162.382 44.33L162.428 44.379L162.475 44.429L162.523 44.477L162.571 44.525L162.621 44.572L162.67 44.618L162.721 44.664L162.771 44.71L162.823 44.754L162.875 44.798L162.928 44.841L162.981 44.884L163.034 44.925L163.089 44.967L163.144 45.007ZM147.656 59.266L148.081 59.455L148.633 59.527L148.793 59.716L148.984 59.863L149.218 59.956L149.356 59.977L149.664 59.954L150.089 59.767L150.482 59.903L150.896 59.912L151.141 59.841L151.428 59.674L151.714 59.387L151.855 59.153L151.95 58.834L151.925 58.335L151.802 58.027L151.651 57.814L150.707 56.847L150.79 56.748L151.521 56.327L151.536 56.274L151.502 56.235L151.119 56.095L151.028 55.987L151.098 55.919L151.576 55.736L151.612 55.66L151.566 55.638L149.951 55.749L149.893 55.796L149.908 55.857L150.248 56.025L150.391 56.136L150.365 56.208L150.184 56.267L150.11 56.231L149.409 55.509L149.122 55.29L148.708 55.113L148.304 55.082L148.049 55.113L147.73 55.239L147.443 55.456L147.218 55.764L147.078 56.242L147.105 56.677L147.271 57.113L147.131 57.336L147.016 57.634L146.978 57.942L146.986 58.25L147.078 58.569L147.224 58.845L147.656 59.266ZM143.755 59.48L143.998 59.469C143.995 59.395 143.977 59.322 143.942 59.252C143.908 59.182 143.865 59.121 143.814 59.07C143.769 59.025 143.719 58.986 143.663 58.954C143.607 58.922 143.55 58.901 143.492 58.891C143.434 58.88 143.375 58.883 143.317 58.898C143.259 58.914 143.205 58.947 143.154 58.998C143.107 59.045 143.075 59.092 143.059 59.139C143.042 59.185 143.035 59.232 143.037 59.277C143.04 59.323 143.049 59.368 143.066 59.411C143.083 59.454 143.102 59.496 143.123 59.536C143.144 59.577 143.163 59.617 143.182 59.654C143.201 59.692 143.215 59.728 143.223 59.761C143.231 59.795 143.232 59.826 143.227 59.856C143.222 59.886 143.206 59.914 143.179 59.94C143.152 59.967 143.124 59.985 143.095 59.992C143.065 60 143.036 60.001 143.006 59.996C142.976 59.991 142.948 59.98 142.921 59.963C142.894 59.947 142.871 59.928 142.85 59.907C142.81 59.868 142.78 59.818 142.759 59.757C142.737 59.696 142.732 59.636 142.741 59.578L142.495 59.569C142.487 59.656 142.503 59.743 142.541 59.829C142.579 59.915 142.631 59.991 142.696 60.056C142.745 60.105 142.798 60.145 142.856 60.176C142.913 60.207 142.972 60.226 143.031 60.233C143.09 60.239 143.15 60.232 143.21 60.212C143.27 60.192 143.327 60.155 143.38 60.101C143.429 60.052 143.461 60.002 143.476 59.951C143.49 59.899 143.494 59.848 143.487 59.798C143.48 59.747 143.466 59.698 143.445 59.651C143.423 59.603 143.402 59.558 143.38 59.516C143.36 59.479 143.343 59.445 143.328 59.412C143.313 59.38 143.303 59.35 143.298 59.323C143.292 59.295 143.293 59.268 143.3 59.243C143.306 59.217 143.321 59.193 143.343 59.171C143.368 59.146 143.394 59.131 143.423 59.124C143.451 59.117 143.479 59.117 143.507 59.123C143.535 59.129 143.562 59.14 143.587 59.156C143.613 59.171 143.637 59.189 143.657 59.21C143.692 59.245 143.719 59.288 143.737 59.339C143.755 59.39 143.761 59.437 143.755 59.48ZM144.312 59.93L143.467 60.776L143.645 60.954L144.49 60.108L144.797 60.415L144.953 60.26L144.161 59.468L144.005 59.623L144.312 59.93ZM144.523 60.825C144.445 60.904 144.387 60.988 144.349 61.08C144.311 61.171 144.293 61.264 144.294 61.358C144.295 61.453 144.315 61.546 144.355 61.637C144.394 61.728 144.453 61.813 144.53 61.89C144.608 61.968 144.693 62.028 144.785 62.068C144.877 62.108 144.971 62.128 145.065 62.13C145.16 62.131 145.253 62.113 145.345 62.075C145.436 62.038 145.521 61.98 145.599 61.901C145.679 61.821 145.738 61.736 145.776 61.644C145.814 61.553 145.831 61.46 145.828 61.367C145.825 61.274 145.803 61.182 145.762 61.091C145.72 61.001 145.66 60.916 145.582 60.838C145.505 60.761 145.421 60.702 145.331 60.661C145.241 60.619 145.15 60.598 145.057 60.595C144.964 60.593 144.872 60.611 144.78 60.648C144.689 60.686 144.603 60.745 144.523 60.825ZM144.717 61.019C144.769 60.967 144.825 60.927 144.886 60.9C144.946 60.872 145.008 60.856 145.072 60.854C145.135 60.851 145.197 60.861 145.258 60.884C145.318 60.907 145.375 60.945 145.427 60.996C145.478 61.048 145.516 61.105 145.54 61.166C145.563 61.227 145.574 61.29 145.571 61.353C145.568 61.416 145.553 61.478 145.525 61.539C145.497 61.6 145.457 61.656 145.405 61.708C145.352 61.761 145.294 61.802 145.233 61.831C145.172 61.859 145.109 61.874 145.045 61.877C144.982 61.879 144.92 61.868 144.859 61.844C144.798 61.82 144.742 61.783 144.691 61.732C144.64 61.681 144.603 61.625 144.58 61.565C144.556 61.505 144.545 61.443 144.548 61.379C144.55 61.315 144.565 61.253 144.594 61.192C144.622 61.13 144.663 61.073 144.717 61.019ZM146.269 61.576L145.268 62.577L145.446 62.756L145.871 62.331L146.001 62.462L145.808 63.118L146.023 63.333L146.2 62.621C146.287 62.676 146.374 62.701 146.46 62.696C146.547 62.692 146.627 62.653 146.699 62.58C146.752 62.528 146.787 62.472 146.803 62.415C146.819 62.357 146.821 62.3 146.809 62.243C146.797 62.186 146.774 62.13 146.74 62.076C146.705 62.022 146.665 61.971 146.617 61.924L146.269 61.576ZM146.162 62.331L146.016 62.186L146.298 61.904L146.459 62.066C146.482 62.088 146.503 62.113 146.523 62.141C146.544 62.169 146.558 62.198 146.566 62.227C146.575 62.256 146.577 62.285 146.571 62.315C146.566 62.345 146.55 62.373 146.523 62.401C146.492 62.431 146.461 62.449 146.429 62.455C146.396 62.461 146.364 62.459 146.334 62.449C146.303 62.44 146.273 62.424 146.244 62.402C146.215 62.38 146.187 62.357 146.162 62.331ZM147.159 62.466L146.158 63.467L146.327 63.637L147.132 62.832L147.135 62.835L146.63 63.939L146.755 64.064L147.863 63.563L147.866 63.566L147.061 64.371L147.238 64.547L148.239 63.546L147.959 63.266L146.991 63.72L146.986 63.716L147.438 62.744L147.159 62.466Z"/>
<path d="M139.664 21.521L139.919 21.175L140.178 20.833L140.442 20.494L140.71 20.158L140.982 19.826L141.259 19.498L141.54 19.173L141.825 18.853L142.114 18.535L142.408 18.222L142.705 17.912L143.007 17.607L143.312 17.305L143.622 17.008L143.935 16.714L144.253 16.425L144.573 16.14L144.898 15.859L145.226 15.582L145.558 15.31L145.894 15.042L146.233 14.778L146.575 14.519L146.921 14.264L163.144 36.593L163.089 36.633L163.034 36.675L162.981 36.716L162.928 36.759L162.875 36.802L162.823 36.846L162.771 36.89L162.721 36.936L162.67 36.982L162.621 37.028L162.571 37.075L162.523 37.123L162.475 37.171L162.428 37.221L162.382 37.27L162.336 37.321L162.29 37.371L162.246 37.423L162.202 37.475L162.159 37.528L162.116 37.581L162.075 37.634L162.033 37.689L161.993 37.744ZM147.734 22.256L147.545 22.681L147.473 23.233L147.284 23.393L147.137 23.584L147.044 23.818L147.023 23.956L147.046 24.264L147.233 24.689L147.097 25.082L147.088 25.496L147.159 25.741L147.326 26.028L147.613 26.314L147.847 26.455L148.166 26.55L148.665 26.525L148.973 26.402L149.186 26.251L150.153 25.307L150.252 25.39L150.673 26.121L150.726 26.136L150.765 26.102L150.905 25.719L151.013 25.628L151.081 25.698L151.264 26.176L151.34 26.212L151.362 26.166L151.251 24.551L151.204 24.493L151.143 24.508L150.975 24.848L150.864 24.991L150.792 24.965L150.733 24.784L150.769 24.71L151.491 24.009L151.71 23.722L151.887 23.308L151.918 22.904L151.887 22.649L151.761 22.33L151.544 22.043L151.236 21.818L150.758 21.678L150.323 21.705L149.887 21.871L149.664 21.731L149.366 21.616L149.058 21.578L148.75 21.586L148.431 21.678L148.155 21.824L147.734 22.256ZM147.52 18.355L147.531 18.598C147.605 18.595 147.678 18.577 147.748 18.542C147.818 18.508 147.879 18.465 147.93 18.414C147.975 18.369 148.014 18.319 148.046 18.263C148.078 18.207 148.099 18.15 148.109 18.092C148.12 18.034 148.117 17.975 148.102 17.917C148.086 17.859 148.053 17.805 148.002 17.754C147.955 17.707 147.908 17.675 147.861 17.659C147.815 17.642 147.768 17.635 147.723 17.637C147.677 17.64 147.632 17.649 147.589 17.666C147.546 17.683 147.504 17.702 147.464 17.723C147.423 17.744 147.383 17.763 147.346 17.782C147.308 17.801 147.272 17.815 147.239 17.823C147.205 17.831 147.174 17.832 147.144 17.827C147.114 17.822 147.086 17.806 147.06 17.779C147.033 17.752 147.015 17.724 147.008 17.695C147 17.665 146.999 17.636 147.004 17.606C147.009 17.576 147.02 17.548 147.037 17.521C147.053 17.494 147.072 17.471 147.093 17.45C147.132 17.41 147.182 17.38 147.243 17.359C147.304 17.337 147.364 17.332 147.422 17.341L147.431 17.095C147.344 17.087 147.257 17.103 147.171 17.141C147.085 17.179 147.009 17.231 146.944 17.296C146.895 17.345 146.855 17.398 146.824 17.456C146.793 17.513 146.774 17.572 146.767 17.631C146.761 17.69 146.768 17.75 146.788 17.81C146.808 17.87 146.845 17.927 146.899 17.98C146.948 18.029 146.998 18.061 147.049 18.076C147.101 18.09 147.152 18.094 147.202 18.087C147.253 18.08 147.302 18.066 147.349 18.045C147.397 18.023 147.442 18.002 147.484 17.98C147.521 17.96 147.555 17.943 147.588 17.928C147.62 17.913 147.65 17.903 147.677 17.898C147.705 17.892 147.732 17.893 147.757 17.9C147.783 17.906 147.807 17.921 147.829 17.943C147.854 17.968 147.869 17.994 147.876 18.023C147.883 18.051 147.883 18.079 147.877 18.107C147.871 18.135 147.86 18.162 147.844 18.187C147.829 18.213 147.811 18.237 147.79 18.257C147.755 18.292 147.712 18.319 147.661 18.337C147.61 18.355 147.563 18.361 147.52 18.355ZM147.07 18.912L146.224 18.067L146.046 18.245L146.892 19.09L146.585 19.397L146.74 19.553L147.532 18.761L147.377 18.605L147.07 18.912ZM146.175 19.123C146.096 19.045 146.012 18.987 145.92 18.949C145.829 18.911 145.736 18.893 145.642 18.894C145.547 18.895 145.454 18.915 145.363 18.955C145.272 18.994 145.187 19.053 145.11 19.13C145.032 19.208 144.972 19.293 144.932 19.385C144.892 19.477 144.872 19.571 144.87 19.665C144.869 19.76 144.887 19.853 144.925 19.945C144.962 20.036 145.02 20.121 145.099 20.199C145.179 20.279 145.264 20.338 145.356 20.376C145.447 20.414 145.54 20.431 145.633 20.428C145.726 20.425 145.818 20.403 145.909 20.362C145.999 20.32 146.084 20.26 146.162 20.182C146.239 20.105 146.298 20.021 146.339 19.931C146.381 19.841 146.402 19.75 146.405 19.657C146.407 19.564 146.389 19.472 146.352 19.38C146.314 19.289 146.255 19.203 146.175 19.123ZM145.981 19.317C146.033 19.369 146.073 19.425 146.1 19.486C146.128 19.546 146.144 19.608 146.146 19.672C146.149 19.735 146.139 19.797 146.116 19.858C146.093 19.918 146.055 19.975 146.004 20.027C145.952 20.078 145.895 20.116 145.834 20.14C145.773 20.163 145.71 20.174 145.647 20.171C145.584 20.168 145.522 20.153 145.461 20.125C145.4 20.097 145.344 20.057 145.292 20.005C145.239 19.952 145.198 19.894 145.169 19.833C145.141 19.772 145.126 19.709 145.123 19.645C145.121 19.582 145.132 19.52 145.156 19.459C145.18 19.398 145.217 19.342 145.268 19.291C145.319 19.24 145.375 19.203 145.435 19.18C145.495 19.156 145.557 19.145 145.621 19.148C145.685 19.15 145.747 19.165 145.808 19.194C145.87 19.222 145.927 19.263 145.981 19.317ZM145.424 20.869L144.423 19.868L144.244 20.046L144.669 20.471L144.538 20.601L143.882 20.408L143.667 20.623L144.379 20.8C144.324 20.887 144.299 20.974 144.304 21.06C144.308 21.147 144.347 21.227 144.42 21.299C144.472 21.352 144.528 21.387 144.585 21.403C144.643 21.419 144.7 21.421 144.757 21.409C144.814 21.397 144.87 21.374 144.924 21.34C144.978 21.305 145.029 21.265 145.076 21.217L145.424 20.869ZM144.669 20.762L144.814 20.616L145.096 20.898L144.934 21.059C144.912 21.082 144.887 21.103 144.859 21.123C144.831 21.144 144.802 21.158 144.773 21.166C144.744 21.175 144.715 21.177 144.685 21.171C144.655 21.166 144.627 21.15 144.599 21.123C144.569 21.092 144.551 21.061 144.545 21.029C144.539 20.996 144.541 20.964 144.551 20.934C144.56 20.903 144.576 20.873 144.598 20.844C144.62 20.815 144.643 20.787 144.669 20.762ZM144.534 21.759L143.533 20.758L143.363 20.927L144.168 21.732L144.165 21.735L143.061 21.23L142.936 21.355L143.437 22.463L143.434 22.466L142.629 21.661L142.453 21.838L143.454 22.839L143.734 22.559L143.28 21.591L143.284 21.586L144.256 22.038L144.534 21.759Z"/>
<path d="M185.479 14.264L185.825 14.519L186.167 14.778L186.506 15.042L186.842 15.31L187.174 15.582L187.502 15.859L187.827 16.14L188.147 16.425L188.465 16.714L188.778 17.008L189.088 17.305L189.393 17.607L189.695 17.912L189.992 18.222L190.286 18.535L190.575 18.853L190.86 19.173L191.141 19.498L191.418 19.826L191.69 20.158L191.958 20.494L192.222 20.833L192.481 21.175L192.736 21.521L170.407 37.744L170.367 37.689L170.325 37.634L170.284 37.581L170.241 37.528L170.198 37.475L170.154 37.423L170.11 37.371L170.064 37.321L170.018 37.27L169.972 37.221L169.925 37.171L169.877 37.123L169.829 37.075L169.779 37.028L169.73 36.982L169.679 36.936L169.629 36.89L169.577 36.846L169.525 36.802L169.472 36.759L169.419 36.716L169.366 36.675L169.311 36.633L169.256 36.593ZM184.744 22.334L184.319 22.145L183.767 22.073L183.607 21.884L183.416 21.737L183.182 21.644L183.044 21.623L182.736 21.646L182.311 21.833L181.918 21.697L181.504 21.688L181.259 21.759L180.972 21.926L180.686 22.213L180.545 22.447L180.45 22.766L180.475 23.265L180.598 23.573L180.749 23.786L181.693 24.753L181.61 24.852L180.879 25.273L180.864 25.326L180.898 25.365L181.281 25.505L181.372 25.613L181.302 25.681L180.824 25.864L180.788 25.94L180.834 25.962L182.449 25.851L182.507 25.804L182.492 25.743L182.152 25.575L182.009 25.464L182.035 25.392L182.216 25.333L182.29 25.369L182.991 26.091L183.278 26.31L183.692 26.487L184.096 26.518L184.351 26.487L184.67 26.361L184.957 26.144L185.182 25.836L185.322 25.358L185.295 24.923L185.129 24.487L185.269 24.264L185.384 23.966L185.422 23.658L185.414 23.35L185.322 23.031L185.176 22.755L184.744 22.334ZM188.645 22.12L188.402 22.131C188.405 22.205 188.423 22.278 188.458 22.348C188.492 22.418 188.535 22.479 188.586 22.53C188.631 22.575 188.681 22.614 188.737 22.646C188.793 22.678 188.85 22.699 188.908 22.709C188.966 22.72 189.025 22.717 189.083 22.702C189.141 22.686 189.195 22.653 189.246 22.602C189.293 22.555 189.325 22.508 189.341 22.461C189.358 22.415 189.365 22.368 189.363 22.323C189.36 22.277 189.351 22.232 189.334 22.189C189.317 22.146 189.298 22.104 189.277 22.064C189.256 22.023 189.237 21.983 189.218 21.946C189.199 21.908 189.185 21.872 189.177 21.839C189.169 21.805 189.168 21.774 189.173 21.744C189.178 21.714 189.194 21.686 189.221 21.66C189.248 21.633 189.276 21.615 189.305 21.608C189.335 21.6 189.364 21.599 189.394 21.604C189.424 21.609 189.452 21.62 189.479 21.637C189.506 21.653 189.529 21.672 189.55 21.693C189.59 21.732 189.62 21.782 189.641 21.843C189.663 21.904 189.668 21.964 189.659 22.022L189.905 22.031C189.913 21.944 189.897 21.857 189.859 21.771C189.821 21.685 189.769 21.609 189.704 21.544C189.655 21.495 189.602 21.455 189.544 21.424C189.487 21.393 189.428 21.374 189.369 21.367C189.31 21.361 189.25 21.368 189.19 21.388C189.13 21.408 189.073 21.445 189.02 21.499C188.971 21.548 188.939 21.598 188.924 21.649C188.91 21.701 188.906 21.752 188.913 21.802C188.92 21.853 188.934 21.902 188.955 21.949C188.977 21.997 188.998 22.042 189.02 22.084C189.04 22.121 189.057 22.155 189.072 22.188C189.087 22.22 189.097 22.25 189.102 22.277C189.108 22.305 189.107 22.332 189.1 22.357C189.094 22.383 189.079 22.407 189.057 22.429C189.032 22.454 189.006 22.469 188.977 22.476C188.949 22.483 188.921 22.483 188.893 22.477C188.865 22.471 188.838 22.46 188.813 22.444C188.787 22.429 188.763 22.411 188.743 22.39C188.708 22.355 188.681 22.312 188.663 22.261C188.645 22.21 188.639 22.163 188.645 22.12ZM188.088 21.67L188.933 20.824L188.755 20.646L187.91 21.492L187.603 21.185L187.447 21.34L188.239 22.132L188.395 21.977L188.088 21.67ZM187.877 20.775C187.955 20.696 188.013 20.612 188.051 20.52C188.089 20.429 188.107 20.336 188.106 20.242C188.105 20.147 188.085 20.054 188.045 19.963C188.006 19.872 187.947 19.787 187.87 19.71C187.792 19.632 187.707 19.572 187.615 19.532C187.523 19.492 187.429 19.472 187.335 19.47C187.24 19.469 187.147 19.487 187.055 19.525C186.964 19.562 186.879 19.62 186.801 19.699C186.721 19.779 186.662 19.864 186.624 19.956C186.586 20.047 186.569 20.14 186.572 20.233C186.575 20.326 186.597 20.418 186.638 20.509C186.68 20.599 186.74 20.684 186.818 20.762C186.895 20.839 186.979 20.898 187.069 20.939C187.159 20.981 187.25 21.002 187.343 21.005C187.436 21.007 187.528 20.989 187.62 20.952C187.711 20.914 187.797 20.855 187.877 20.775ZM187.683 20.581C187.631 20.633 187.575 20.673 187.514 20.7C187.454 20.728 187.392 20.744 187.328 20.746C187.265 20.749 187.203 20.739 187.142 20.716C187.082 20.693 187.025 20.655 186.973 20.604C186.922 20.552 186.884 20.495 186.86 20.434C186.837 20.373 186.826 20.31 186.829 20.247C186.832 20.184 186.847 20.122 186.875 20.061C186.903 20 186.943 19.944 186.995 19.892C187.048 19.839 187.106 19.798 187.167 19.769C187.228 19.741 187.291 19.726 187.355 19.723C187.418 19.721 187.48 19.732 187.541 19.756C187.602 19.78 187.658 19.817 187.709 19.868C187.76 19.919 187.797 19.975 187.82 20.035C187.844 20.095 187.855 20.157 187.852 20.221C187.85 20.285 187.835 20.347 187.806 20.408C187.778 20.47 187.737 20.527 187.683 20.581ZM186.131 20.024L187.132 19.023L186.954 18.844L186.529 19.269L186.399 19.138L186.592 18.482L186.377 18.267L186.2 18.979C186.113 18.924 186.026 18.899 185.94 18.904C185.853 18.908 185.773 18.947 185.701 19.02C185.648 19.072 185.613 19.128 185.597 19.185C185.581 19.243 185.579 19.3 185.591 19.357C185.603 19.414 185.626 19.47 185.66 19.524C185.695 19.578 185.735 19.629 185.783 19.676L186.131 20.024ZM186.238 19.269L186.384 19.414L186.102 19.696L185.941 19.534C185.918 19.512 185.897 19.487 185.877 19.459C185.856 19.431 185.842 19.402 185.834 19.373C185.825 19.344 185.823 19.315 185.829 19.285C185.834 19.255 185.85 19.227 185.877 19.199C185.908 19.169 185.939 19.151 185.971 19.145C186.004 19.139 186.036 19.141 186.066 19.151C186.097 19.16 186.127 19.176 186.156 19.198C186.185 19.22 186.213 19.243 186.238 19.269ZM185.241 19.134L186.242 18.133L186.073 17.963L185.268 18.768L185.265 18.765L185.77 17.661L185.645 17.536L184.537 18.037L184.534 18.034L185.339 17.229L185.162 17.053L184.161 18.054L184.441 18.334L185.409 17.88L185.414 17.884L184.962 18.856L185.241 19.134Z"/>
</g>
<g class="piece" data-piece="spinner-ring">
<path d="M124.4 190.1A59.7 59.7 0 1 1 5 190.1A59.7 59.7 0 1 1 124.4 190.1ZM123.8 190.1A59.1 59.1 0 1 0 5.6 190.1A59.1 59.1 0 1 0 123.8 190.1Z"/>
<path d="M64.7 154.4L64.2 153.3L64.7 152.6L65.2 153.3Z"/>
<path d="M64.7 152.6C64 153.3 63 153.1 63.2 152.3C63.3 151.8 63.9 151.9 64.2 152.2L64.4 151.8L65 151.8L65.2 152.2C65.5 151.9 66.1 151.8 66.2 152.3C66.4 153.1 65.4 153.3 64.7 152.6Z"/>
<path d="M65 151.7L64.4 151.7L64.4 151.4L65 151.4Z"/>
<path d="M56.149 243.676L56.563 243.676L56.974 245.236L56.98 245.236L57.448 243.676L57.838 243.676L58.297 245.236L58.303 245.236L58.723 243.676L59.125 243.676L58.504 245.8L58.138 245.8L57.64 244.207L57.634 244.207L57.136 245.8L56.77 245.8Z"/>
<path d="M59.377 243.676L59.755 243.676L59.755 245.8L59.377 245.8Z"/>
<path d="M60.223 243.676L60.724 243.676L61.711 245.266L61.717 245.266L61.717 243.676L62.095 243.676L62.095 245.8L61.615 245.8L60.607 244.159L60.601 244.159L60.601 245.8L60.223 245.8Z"/>
<path d="M62.563 243.676L63.316 243.676C63.454 243.676 63.593 243.694 63.733 243.73C63.873 243.766 63.999 243.826 64.111 243.909C64.223 243.992 64.314 244.101 64.384 244.236C64.454 244.371 64.489 244.538 64.489 244.738C64.489 244.924 64.454 245.084 64.384 245.218C64.314 245.352 64.223 245.462 64.111 245.548C63.999 245.634 63.873 245.698 63.733 245.739C63.593 245.78 63.454 245.8 63.316 245.8L62.563 245.8ZM63.256 245.47C63.354 245.47 63.452 245.459 63.55 245.436C63.648 245.413 63.736 245.374 63.815 245.319C63.894 245.264 63.959 245.189 64.009 245.095C64.059 245.001 64.084 244.882 64.084 244.738C64.084 244.586 64.059 244.462 64.009 244.366C63.959 244.27 63.894 244.195 63.815 244.141C63.736 244.087 63.648 244.05 63.55 244.03C63.452 244.01 63.354 244 63.256 244L62.941 244L62.941 245.47Z"/>
<path d="M65.605 243.676L66.106 243.676L67.093 245.266L67.099 245.266L67.099 243.676L67.477 243.676L67.477 245.8L66.997 245.8L65.989 244.159L65.983 244.159L65.983 245.8L65.605 245.8Z"/>
<path d="M67.843 244.732C67.843 244.562 67.871 244.409 67.928 244.272C67.985 244.135 68.064 244.018 68.165 243.922C68.266 243.826 68.386 243.752 68.525 243.7C68.664 243.648 68.816 243.622 68.98 243.622C69.146 243.622 69.299 243.648 69.439 243.7C69.579 243.752 69.7 243.826 69.802 243.922C69.904 244.018 69.983 244.135 70.04 244.272C70.097 244.409 70.126 244.562 70.126 244.732C70.126 244.898 70.097 245.05 70.04 245.187C69.983 245.324 69.904 245.442 69.802 245.541C69.7 245.64 69.579 245.717 69.439 245.772C69.299 245.827 69.146 245.854 68.98 245.854C68.816 245.854 68.664 245.827 68.525 245.772C68.386 245.717 68.266 245.64 68.165 245.541C68.064 245.442 67.985 245.324 67.928 245.187C67.871 245.05 67.843 244.898 67.843 244.732ZM68.254 244.732C68.254 244.846 68.271 244.951 68.306 245.046C68.341 245.141 68.391 245.223 68.456 245.293C68.521 245.363 68.598 245.418 68.687 245.457C68.776 245.496 68.875 245.515 68.983 245.515C69.091 245.515 69.19 245.496 69.28 245.457C69.37 245.418 69.447 245.363 69.512 245.293C69.577 245.223 69.627 245.141 69.662 245.046C69.697 244.951 69.715 244.846 69.715 244.732C69.715 244.622 69.697 244.52 69.662 244.426C69.627 244.332 69.578 244.25 69.514 244.18C69.45 244.11 69.373 244.055 69.283 244.015C69.193 243.975 69.093 243.955 68.983 243.955C68.873 243.955 68.773 243.975 68.684 244.015C68.595 244.055 68.519 244.11 68.455 244.18C68.391 244.25 68.341 244.332 68.306 244.426C68.271 244.52 68.254 244.622 68.254 244.732Z"/>
<path d="M70.276 243.676L70.69 243.676L71.101 245.236L71.107 245.236L71.575 243.676L71.965 243.676L72.424 245.236L72.43 245.236L72.85 243.676L73.252 243.676L72.631 245.8L72.265 245.8L71.767 244.207L71.761 244.207L71.263 245.8L70.897 245.8Z"/>
<path d="M120.2 189.85L122.6 189.85L122.6 190.35L120.2 190.35Z"/>
<path d="M118.374 204.223L120.692 204.844L120.562 205.327L118.244 204.706Z"/>
<path d="M112.889 217.633L114.968 218.833L114.718 219.267L112.639 218.067Z"/>
<path d="M104.121 229.168L105.818 230.865L105.465 231.218L103.768 229.521Z"/>
<path d="M25.632 229.521L23.935 231.218L23.582 230.865L25.279 229.168Z"/>
<path d="M16.761 218.067L14.682 219.267L14.432 218.833L16.511 217.633Z"/>
<path d="M11.156 204.706L8.838 205.327L8.708 204.844L11.026 204.223Z"/>
<path d="M9.2 190.35L6.8 190.35L6.8 189.85L9.2 189.85Z"/>
<path d="M11.026 175.977L8.708 175.356L8.838 174.873L11.156 175.494Z"/>
<path d="M16.511 162.567L14.432 161.367L14.682 160.933L16.761 162.133Z"/>
<path d="M25.279 151.032L23.582 149.335L23.935 148.982L25.632 150.679Z"/>
<path d="M36.733 142.161L35.533 140.082L35.967 139.832L37.167 141.911Z"/>
<path d="M50.094 136.556L49.473 134.238L49.956 134.108L50.577 136.426Z"/>
<path d="M64.45 134.6L64.45 132.2L64.95 132.2L64.95 134.6Z"/>
<path d="M78.823 136.426L79.444 134.108L79.927 134.238L79.306 136.556Z"/>
<path d="M92.233 141.911L93.433 139.832L93.867 140.082L92.667 142.161Z"/>
<path d="M103.768 150.679L105.465 148.982L105.818 149.335L104.121 151.032Z"/>
<path d="M112.639 162.133L114.718 160.933L114.968 161.367L112.889 162.567Z"/>
<path d="M118.244 175.494L120.562 174.873L120.692 175.356L118.374 175.977Z"/>
</g>
<g class="piece" data-piece="spinner-needle">
<path d="M182.4 133.9L155.9 138.4L155.9 136.2L155.9 136.2L156.78 136.025L157.526 135.526L158.025 134.78L158.2 133.9L158.025 133.02L157.526 132.274L156.78 131.775L155.9 131.6L155.9 131.6L155.9 129.4Z"/>
</g>
<g class="piece" data-piece="spinner-vane">
<path d="M229.3 141.2L230.1 141.2L230.1 157.6L229.3 157.6Z"/>
<path d="M202.928 133.126L203.508 133.126L204.083 135.31L204.091 135.31L204.747 133.126L205.293 133.126L205.935 135.31L205.944 135.31L206.532 133.126L207.094 133.126L206.225 136.1L205.713 136.1L205.015 133.87L205.007 133.87L204.31 136.1L203.797 136.1Z"/>
<path d="M207.447 133.126L207.976 133.126L207.976 136.1L207.447 136.1Z"/>
<path d="M208.632 133.126L209.333 133.126L210.715 135.352L210.723 135.352L210.723 133.126L211.252 133.126L211.252 136.1L210.58 136.1L209.169 133.803L209.161 133.803L209.161 136.1L208.632 136.1Z"/>
<path d="M211.908 133.126L212.962 133.126C213.155 133.126 213.35 133.152 213.546 133.202C213.742 133.252 213.918 133.336 214.075 133.452C214.232 133.568 214.359 133.721 214.457 133.91C214.555 134.099 214.604 134.333 214.604 134.613C214.604 134.874 214.555 135.098 214.457 135.285C214.359 135.473 214.232 135.627 214.075 135.747C213.918 135.868 213.742 135.957 213.546 136.014C213.35 136.071 213.155 136.1 212.962 136.1L211.908 136.1ZM212.878 135.638C213.015 135.638 213.152 135.622 213.289 135.59C213.427 135.558 213.55 135.503 213.661 135.426C213.772 135.349 213.862 135.245 213.932 135.113C214.002 134.981 214.037 134.815 214.037 134.613C214.037 134.4 214.002 134.227 213.932 134.092C213.862 133.958 213.772 133.853 213.661 133.777C213.55 133.702 213.427 133.65 213.289 133.622C213.152 133.594 213.015 133.58 212.878 133.58L212.437 133.58L212.437 135.638Z"/>
<path d="M216.166 133.126L216.868 133.126L218.25 135.352L218.258 135.352L218.258 133.126L218.787 133.126L218.787 136.1L218.115 136.1L216.704 133.803L216.696 133.803L216.696 136.1L216.166 136.1Z"/>
<path d="M219.3 134.605C219.3 134.367 219.339 134.152 219.419 133.96C219.499 133.768 219.61 133.605 219.751 133.471C219.892 133.336 220.06 133.233 220.255 133.16C220.45 133.087 220.662 133.051 220.891 133.051C221.124 133.051 221.338 133.087 221.534 133.16C221.73 133.233 221.899 133.336 222.042 133.471C222.185 133.605 222.296 133.768 222.376 133.96C222.456 134.152 222.496 134.367 222.496 134.605C222.496 134.837 222.456 135.049 222.376 135.241C222.296 135.433 222.185 135.598 222.042 135.737C221.899 135.875 221.73 135.983 221.534 136.06C221.338 136.137 221.124 136.176 220.891 136.176C220.662 136.176 220.45 136.137 220.255 136.06C220.06 135.983 219.892 135.875 219.751 135.737C219.61 135.598 219.499 135.433 219.419 135.241C219.339 135.049 219.3 134.837 219.3 134.605ZM219.875 134.605C219.875 134.764 219.899 134.911 219.948 135.044C219.997 135.177 220.067 135.292 220.158 135.39C220.249 135.488 220.357 135.565 220.482 135.619C220.606 135.674 220.744 135.701 220.896 135.701C221.047 135.701 221.185 135.674 221.311 135.619C221.437 135.565 221.546 135.488 221.637 135.39C221.728 135.292 221.798 135.177 221.847 135.044C221.896 134.911 221.92 134.764 221.92 134.605C221.92 134.451 221.896 134.308 221.847 134.176C221.798 134.045 221.729 133.93 221.639 133.832C221.549 133.734 221.442 133.657 221.316 133.601C221.19 133.545 221.05 133.517 220.896 133.517C220.742 133.517 220.602 133.545 220.478 133.601C220.353 133.657 220.246 133.734 220.156 133.832C220.067 133.93 219.997 134.045 219.948 134.176C219.899 134.308 219.875 134.451 219.875 134.605Z"/>
<path d="M222.706 133.126L223.285 133.126L223.861 135.31L223.869 135.31L224.524 133.126L225.07 133.126L225.713 135.31L225.721 135.31L226.309 133.126L226.872 133.126L226.003 136.1L225.49 136.1L224.793 133.87L224.785 133.87L224.088 136.1L223.575 136.1Z"/>
</g>
</g>
<g id="CUT" class="layer-cut" inkscape:label="CUT" inkscape:groupmode="layer" fill="none" stroke="#ff0000" stroke-width="0.1">
<g class="piece" data-piece="spinner-backing">
<circle cx="64.7" cy="64.7" r="60.74"/>
<circle cx="64.7" cy="64.7" r="1.61"/>
</g>
<g class="piece" data-piece="spinner-dial">
<circle cx="166.2" cy="40.8" r="35.04"/>
<circle cx="166.2" cy="40.8" r="1.61"/>
</g>
<g class="piece" data-piece="spinner-ring">
<circle cx="64.7" cy="190.1" r="60.74"/>
<circle cx="64.7" cy="190.1" r="35.36"/>
<path d="M63.165 130.94L66.235 130.94L66.235 137.86L63.165 137.86Z"/>
</g>
<g class="piece" data-piece="spinner-needle">
<path d="M182.407 133.861L182.407 133.939L155.9 138.441L129.393 133.939L129.393 133.861L155.9 129.359Z"/>
<circle cx="155.9" cy="133.9" r="1.61"/>
</g>
<g class="piece" data-piece="spinner-washer">
<circle cx="190.4" cy="133.4" r="4.04"/>
<circle cx="190.4" cy="133.4" r="1.61"/>
</g>
<g class="piece" data-piece="spinner-vane">
<path d="M228.4 129.36L231.04 129.36L231.04 158.76L233.04 158.76L233.04 161.94L226.36 161.94L226.36 158.76L228.36 158.76L228.36 139.44L198.4 139.44L198.372 139.372L203.343 134.4L198.372 129.428L198.4 129.36Z"/>
</g>
</g>
</svg>
