  0
SECTION
  2
HEADER
  9
$ACADVER
  1
AC1015
  9
$ACADMAINTVER
 70
6
  9
$DWGCODEPAGE
  3
ANSI_1252
  9
$INSBASE
 10
0.0
 20
0.0
 30
0.0
  9
$EXTMIN
 10
1e+20
 20
1e+20
 30
1e+20
  9
$EXTMAX
 10
-1e+20
 20
-1e+20
 30
-1e+20
  9
$LIMMIN
 10
0.0
 20
0.0
  9
$LIMMAX
 10
420.0
 20
297.0
  9
$ORTHOMODE
 70
0
  9
$REGENMODE
 70
1
  9
$FILLMODE
 70
1
  9
$QTEXTMODE
 70
0
  9
$MIRRTEXT
 70
1
  9
$LTSCALE
 40
1.0
  9
$ATTMODE
 70
1
  9
$TEXTSIZE
 40
2.5
  9
$TRACEWID
 40
1.0
  9
$TEXTSTYLE
  7
Standard
  9
$CLAYER
  8
0
  9
$CELTYPE
  6
ByLayer
  9
$CECOLOR
 62
256
  9
$CELTSCALE
 40
1.0
  9
$DISPSILH
 70
0
  9
$DIMSCALE
 40
1.0
  9
$DIMASZ
 40
2.5
  9
$DIMEXO
 40
0.625
  9
$DIMDLI
 40
3.75
  9
$DIMRND
 40
0.0
  9
$DIMDLE
 40
0.0
  9
$DIMEXE
 40
1.25
  9
$DIMTP
 40
0.0
  9
$DIMTM
 40
0.0
  9
$DIMTXT
 40
2.5
  9
$DIMCEN
 40
2.5
  9
$DIMTSZ
 40
0.0
  9
$DIMTOL
 70
0
  9
$DIMLIM
 70
0
  9
$DIMTIH
 70
0
  9
$DIMTOH
 70
0
  9
$DIMSE1
 70
0
  9
$DIMSE2
 70
0
  9
$DIMTAD
 70
1
  9
$DIMZIN
 70
8
  9
$DIMBLK
  1

  9
$DIMASO
 70
1
  9
$DIMSHO
 70
1
  9
$DIMPOST
  1

  9
$DIMAPOST
  1

  9
$DIMALT
 70
0
  9
$DIMALTD
 70
3
  9
$DIMALTF
 40
0.03937007874
  9
$DIMLFAC
 40
1.0
  9
$DIMTOFL
 70
1
  9
$DIMTVP
 40
0.0
  9
$DIMTIX
 70
0
  9
$DIMSOXD
 70
0
  9
$DIMSAH
 70
0
  9
$DIMBLK1
  1

  9
$DIMBLK2
  1

  9
$DIMSTYLE
  2
ISO-25
  9
$DIMCLRD
 70
0
  9
$DIMCLRE
 70
0
  9
$DIMCLRT
 70
0
  9
$DIMTFAC
 40
1.0
  9
$DIMGAP
 40
0.625
  9
$DIMJUST
 70
0
  9
$DIMSD1
 70
0
  9
$DIMSD2
 70
0
  9
$DIMTOLJ
 70
0
  9
$DIMTZIN
 70
8
  9
$DIMALTZ
 70
0
  9
$DIMALTTZ
 70
0
  9
$DIMUPT
 70
0
  9
$DIMDEC
 70
2
  9
$DIMTDEC
 70
2
  9
$DIMALTU
 70
2
  9
$DIMALTTD
 70
3
  9
$DIMTXSTY
  7
Standard
  9
$DIMAUNIT
 70
0
  9
$DIMADEC
 70
0
  9
$DIMALTRND
 40
0.0
  9
$DIMAZIN
 70
0
  9
$DIMDSEP
 70
44
  9
$DIMATFIT
 70
3
  9
$DIMFRAC
 70
0
  9
$DIMLDRBLK
  1

  9
$DIMLUNIT
 70
2
  9
$DIMLWD
 70
-2
  9
$DIMLWE
 70
-2
  9
$DIMTMOVE
 70
0
  9
$LUNITS
 70
2
  9
$LUPREC
 70
4
  9
$SKETCHINC
 40
1.0
  9
$FILLETRAD
 40
10.0
  9
$AUNITS
 70
0
  9
$AUPREC
 70
2
  9
$MENU
  1
.
  9
$ELEVATION
 40
0.0
  9
$PELEVATION
 40
0.0
  9
$THICKNESS
 40
0.0
  9
$LIMCHECK
 70
0
  9
$CHAMFERA
 40
0.0
  9
$CHAMFERB
 40
0.0
  9
$CHAMFERC
 40
0.0
  9
$CHAMFERD
 40
0.0
  9
$SKPOLY
 70
0
  9
$TDCREATE
 40
2461295.9753935183
  9
$TDUCREATE
 40
2458532.153996898
  9
$TDUPDATE
 40
2461295.9753935183
  9
$TDUUPDATE
 40
2458532.1544311
  9
$TDINDWG
 40
0.0
  9
$TDUSRTIMER
 40
0.0
  9
$USRTIMER
 70
1
  9
$ANGBASE
 50
0.0
  9
$ANGDIR
 70
0
  9
$PDMODE
 70
0
  9
$PDSIZE
 40
0.0
  9
$PLINEWID
 40
0.0
  9
$SPLFRAME
 70
0
  9
$SPLINETYPE
 70
6
  9
$SPLINESEGS
 70
8
  9
$HANDSEED
  5
91
  9
$SURFTAB1
 70
6
  9
$SURFTAB2
 70
6
  9
$SURFTYPE
 70
6
  9
$SURFU
 70
6
  9
$SURFV
 70
6
  9
$UCSBASE
  2

  9
$UCSNAME
  2

  9
$UCSORG
 10
0.0
 20
0.0
 30
0.0
  9
$UCSXDIR
 10
1.0
 20
0.0
 30
0.0
  9
$UCSYDIR
 10
0.0
 20
1.0
 30
0.0
  9
$UCSORTHOREF
  2

  9
$UCSORTHOVIEW
 70
0
  9
$UCSORGTOP
 10
0.0
 20
0.0
 30
0.0
  9
$UCSORGBOTTOM
 10
0.0
 20
0.0
 30
0.0
  9
$UCSORGLEFT
 10
0.0
 20
0.0
 30
0.0
  9
$UCSORGRIGHT
 10
0.0
 20
0.0
 30
0.0
  9
$UCSORGFRONT
 10
0.0
 20
0.0
 30
0.0
  9
$UCSORGBACK
 10
0.0
 20
0.0
 30
0.0
  9
$PUCSBASE
  2

  9
$PUCSNAME
  2

  9
$PUCSORG
 10
0.0
 20
0.0
 30
0.0
  9
$PUCSXDIR
 10
1.0
 20
0.0
 30
0.0
  9
$PUCSYDIR
 10
0.0
 20
1.0
 30
0.0
  9
$PUCSORTHOREF
  2

  9
$PUCSORTHOVIEW
 70
0
  9
$PUCSORGTOP
 10
0.0
 20
0.0
 30
0.0
  9
$PUCSORGBOTTOM
 10
0.0
 20
0.0
 30
0.0
  9
$PUCSORGLEFT
 10
0.0
 20
0.0
 30
0.0
  9
$PUCSORGRIGHT
 10
0.0
 20
0.0
 30
0.0
  9
$PUCSORGFRONT
 10
0.0
 20
0.0
 30
0.0
  9
$PUCSORGBACK
 10
0.0
 20
0.0
 30
0.0
  9
$USERI1
 70
0
  9
$USERI2
 70
0
  9
$USERI3
 70
0
  9
$USERI4
 70
0
  9
$USERI5
 70
0
  9
$USERR1
 40
0.0
  9
$USERR2
 40
0.0
  9
$USERR3
 40
0.0
  9
$USERR4
 40
0.0
  9
$USERR5
 40
0.0
  9
$WORLDVIEW
 70
1
  9
$SHADEDGE
 70
3
  9
$SHADEDIF
 70
70
  9
$TILEMODE
 70
1
  9
$MAXACTVP
 70
64
  9
$PINSBASE
 10
0.0
 20
0.0
 30
0.0
  9
$PLIMCHECK
 70
0
  9
$PEXTMIN
 10
1e+20
 20
1e+20
 30
1e+20
  9
$PEXTMAX
 10
-1e+20
 20
-1e+20
 30
-1e+20
  9
$PLIMMIN
 10
0.0
 20
0.0
  9
$PLIMMAX
 10
420.0
 20
297.0
  9
$UNITMODE
 70
0
  9
$VISRETAIN
 70
1
  9
$PLINEGEN
 70
0
  9
$PSLTSCALE
 70
1
  9
$TREEDEPTH
 70
3020
  9
$CMLSTYLE
  2
Standard
  9
$CMLJUST
 70
0
  9
$CMLSCALE
 40
20.0
  9
$PROXYGRAPHICS
 70
1
  9
$MEASUREMENT
 70
1
  9
$CELWEIGHT
370
-1
  9
$ENDCAPS
280
0
  9
$JOINSTYLE
280
0
  9
$LWDISPLAY
290
0
  9
$INSUNITS
 70
4
  9
$HYPERLINKBASE
  1

  9
$STYLESHEET
  1

  9
$XEDIT
290
1
  9
$CEPSNTYPE
380
0
  9
$PSTYLEMODE
290
1
  9
$FINGERPRINTGUID
  2
{6C1BB0E9-49D8-4C47-BF3F-1F740F8ED64C}
  9
$VERSIONGUID
  2
{E78B7376-AD0A-43A4-9DC7-A931B9103751}
  9
$EXTNAMES
290
1
  9
$PSVPSCALE
 40
0.0
  9
$OLESTARTUP
290
0
  0
ENDSEC
  0
SECTION
  2
CLASSES
  0
CLASS
  1
ACDBDICTIONARYWDFLT
  2
AcDbDictionaryWithDefault
  3
ObjectDBX Classes
 90
0
280
0
281
0
  0
CLASS
  1
SUN
  2
AcDbSun
  3
SCENEOE
 90
1153
280
0
281
0
  0
CLASS
  1
VISUALSTYLE
  2
AcDbVisualStyle
  3
ObjectDBX Classes
 90
4095
280
0
281
0
  0
CLASS
  1
MATERIAL
  2
AcDbMaterial
  3
ObjectDBX Classes
 90
1153
280
0
281
0
  0
CLASS
  1
SCALE
  2
AcDbScale
  3
ObjectDBX Classes
 90
1153
280
0
281
0
  0
CLASS
  1
TABLESTYLE
  2
AcDbTableStyle
  3
ObjectDBX Classes
 90
4095
280
0
281
0
  0
CLASS
  1
MLEADERSTYLE
  2
AcDbMLeaderStyle
  3
ACDB_MLEADERSTYLE_CLASS
 90
4095
280
0
281
0
  0
CLASS
  1
DICTIONARYVAR
  2
AcDbDictionaryVar
  3
ObjectDBX Classes
 90
0
280
0
281
0
  0
CLASS
  1
CELLSTYLEMAP
  2
AcDbCellStyleMap
  3
ObjectDBX Classes
 90
1152
280
0
281
0
  0
CLASS
  1
MENTALRAYRENDERSETTINGS
  2
AcDbMentalRayRenderSettings
  3
SCENEOE
 90
1024
280
0
281
0
  0
CLASS
  1
ACDBDETAILVIEWSTYLE
  2
AcDbDetailViewStyle
  3
ObjectDBX Classes
 90
1025
280
0
281
0
  0
CLASS
  1
ACDBSECTIONVIEWSTYLE
  2
AcDbSectionViewStyle
  3
ObjectDBX Classes
 90
1025
280
0
281
0
  0
CLASS
  1
RASTERVARIABLES
  2
AcDbRasterVariables
  3
ISM
 90
0
280
0
281
0
  0
CLASS
  1
ACDBPLACEHOLDER
  2
AcDbPlaceHolder
  3
ObjectDBX Classes
 90
0
280
0
281
0
  0
CLASS
  1
LAYOUT
  2
AcDbLayout
  3
ObjectDBX Classes
 90
0
280
0
281
0
  0
ENDSEC
  0
SECTION
  2
TABLES
  0
TABLE
  2
VPORT
  5
8
330
0
100
AcDbSymbolTable
 70
1
  0
VPORT
  5
23
330
8
100
AcDbSymbolTableRecord
100
AcDbViewportTableRecord
  2
*Active
 70
0
 10
0.0
 20
0.0
 11
1.0
 21
1.0
 12
0.0
 22
0.0
 13
0.0
 23
0.0
 14
0.5
 24
0.5
 15
0.5
 25
0.5
 16
0.0
 26
0.0
 36
1.0
 17
0.0
 27
0.0
 37
0.0
 40
1000.0
 41
1.34
 42
50.0
 43
0.0
 44
0.0
 50
0.0
 51
0.0
 71
0
 72
1000
 73
1
 74
3
 75
0
 76
0
 77
0
 78
0
281
0
 65
0
146
0.0
  0
ENDTAB
  0
TABLE
  2
LTYPE
  5
2
330
0
100
AcDbSymbolTable
 70
3
  0
LTYPE
  5
24
330
2
100
AcDbSymbolTableRecord
100
AcDbLinetypeTableRecord
  2
ByBlock
 70
0
  3

 72
65
 73
0
 40
0.0
  0
LTYPE
  5
25
330
2
100
AcDbSymbolTableRecord
100
AcDbLinetypeTableRecord
  2
ByLayer
 70
0
  3

 72
65
 73
0
 40
0.0
  0
LTYPE
  5
26
330
2
100
AcDbSymbolTableRecord
100
AcDbLinetypeTableRecord
  2
Continuous
 70
0
  3

 72
65
 73
0
 40
0.0
  0
ENDTAB
  0
TABLE
  2
LAYER
  5
1
330
0
100
AcDbSymbolTable
 70
4
  0
LAYER
  5
27
330
1
100
AcDbSymbolTableRecord
100
AcDbLayerTableRecord
  2
0
 70
0
 62
7
  6
Continuous
370
-3
390
13
  0
LAYER
  5
28
330
1
100
AcDbSymbolTableRecord
100
AcDbLayerTableRecord
  2
Defpoints
 70
0
 62
7
  6
Continuous
290
0
370
-3
390
13
  0
LAYER
  5
2F
330
1
100
AcDbSymbolTableRecord
100
AcDbLayerTableRecord
  2
CUT
 70
0
 62
1
  6
Continuous
370
-3
390
13
  0
LAYER
  5
30
330
1
100
AcDbSymbolTableRecord
100
AcDbLayerTableRecord
  2
RASTER
 70
0
 62
7
  6
Continuous
370
-3
390
13
  0
ENDTAB
  0
TABLE
  2
STYLE
  5
5
330
0
100
AcDbSymbolTable
 70
1
  0
STYLE
  5
29
330
5
100
AcDbSymbolTableRecord
100
AcDbTextStyleTableRecord
  2
Standard
 70
0
 40
0.0
 41
1.0
 50
0.0
 71
0
 42
2.5
  3
txt
  4

  0
ENDTAB
  0
TABLE
  2
VIEW
  5
7
330
0
100
AcDbSymbolTable
 70
0
  0
ENDTAB
  0
TABLE
  2
UCS
  5
6
330
0
100
AcDbSymbolTable
 70
0
  0
ENDTAB
  0
TABLE
  2
APPID
  5
3
330
0
100
AcDbSymbolTable
 70
3
  0
APPID
  5
2A
330
3
100
AcDbSymbolTableRecord
100
AcDbRegAppTableRecord
  2
ACAD
 70
0
  0
APPID
  5
8E
330
3
100
AcDbSymbolTableRecord
100
AcDbRegAppTableRecord
  2
HATCHBACKGROUNDCOLOR
 70
0
  0
APPID
  5
8F
330
3
100
AcDbSymbolTableRecord
100
AcDbRegAppTableRecord
  2
EZDXF
 70
0
  0
ENDTAB
  0
TABLE
  2
DIMSTYLE
  5
4
330
0
100
AcDbSymbolTable
 70
1
100
AcDbDimStyleTable
  0
DIMSTYLE
105
2B
330
4
100
AcDbSymbolTableRecord
100
AcDbDimStyleTableRecord
  2
Standard
 70
0
  3

  4

 40
1.0
 41
2.5
 42
0.625
 43
3.75
 44
1.25
 45
0.0
 46
0.0
 47
0.0
 48
0.0
140
2.5
141
2.5
142
0.0
143
0.03937007874
144
1.0
145
0.0
146
1.0
147
0.625
148
0.0
 71
0
 72
0
 73
0
 74
0
 75
0
 76
0
 77
1
 78
8
 79
3
170
0
171
3
172
1
173
0
174
0
175
0
176
0
177
0
178
0
179
2
271
2
272
2
273
2
274
3
275
0
276
0
277
2
278
44
279
0
280
0
281
0
282
0
283
0
284
8
285
0
286
0
288
0
289
3
371
-2
372
-2
  0
ENDTAB
  0
TABLE
  2
BLOCK_RECORD
  5
9
330
0
100
AcDbSymbolTable
 70
2
  0
BLOCK_RECORD
  5
17
330
9
100
AcDbSymbolTableRecord
100
AcDbBlockTableRecord
  2
*Model_Space
340
1A
  0
BLOCK_RECORD
  5
1B
330
9
100
AcDbSymbolTableRecord
100
AcDbBlockTableRecord
  2
*Paper_Space
340
1E
  0
ENDTAB
  0
ENDSEC
  0
SECTION
  2
BLOCKS
  0
BLOCK
  5
18
330
17
100
AcDbEntity
  8
0
100
AcDbBlockBegin
  2
*Model_Space
 70
0
 10
0.0
 20
0.0
 30
0.0
  3
*Model_Space
  1

  0
ENDBLK
  5
19
330
17
100
AcDbEntity
  8
0
100
AcDbBlockEnd
  0
BLOCK
  5
1C
330
1B
100
AcDbEntity
  8
0
100
AcDbBlockBegin
  2
*Paper_Space
 70
0
 10
0.0
 20
0.0
 30
0.0
  3
*Paper_Space
  1

  0
ENDBLK
  5
1D
330
1B
100
AcDbEntity
  8
0
100
AcDbBlockEnd
  0
ENDSEC
  0
SECTION
  2
ENTITIES
  0
CIRCLE
  5
31
330
17
100
AcDbEntity
  8
CUT
100
AcDbCircle
 10
64.7
 20
164.7
 30
0.0
 40
60.74
  0
CIRCLE
  5
32
330
17
100
AcDbEntity
  8
CUT
100
AcDbCircle
 10
64.7
 20
164.7
 30
0.0
 40
1.61
  0
HATCH
  5
33
330
17
100
AcDbEntity
  8
RASTER
 62
7
100
AcDbHatch
 10
0.0
 20
0.0
 30
0.0
210
0.0
220
0.0
230
1.0
  2
SOLID
 70
1
 71
0
 91
2
 92
3
 72
0
 73
1
 93
48
 10
99.9
 20
164.7
 10
99.599
 20
160.105
 10
98.701
 20
155.59
 10
97.221
 20
151.23
 10
95.184
 20
147.1
 10
92.626
 20
143.272
 10
89.59
 20
139.81
 10
86.128
 20
136.774
 10
82.3
 20
134.216
 10
78.17
 20
132.179
 10
73.81
 20
130.699
 10
69.295
 20
129.801
 10
64.7
 20
129.5
 10
60.105
 20
129.801
 10
55.59
 20
130.699
 10
51.23
 20
132.179
 10
47.1
 20
134.216
 10
43.272
 20
136.774
 10
39.81
 20
139.81
 10
36.774
 20
143.272
 10
34.216
 20
147.1
 10
32.179
 20
151.23
 10
30.699
 20
155.59
 10
29.801
 20
160.105
 10
29.5
 20
164.7
 10
29.801
 20
169.295
 10
30.699
 20
173.81
 10
32.179
 20
178.17
 10
34.216
 20
182.3
 10
36.774
 20
186.128
 10
39.81
 20
189.59
 10
43.272
 20
192.626
 10
47.1
 20
195.184
 10
51.23
 20
197.221
 10
55.59
 20
198.701
 10
60.105
 20
199.599
 10
64.7
 20
199.9
 10
69.295
 20
199.599
 10
73.81
 20
198.701
 10
78.17
 20
197.221
 10
82.3
 20
195.184
 10
86.128
 20
192.626
 10
89.59
 20
189.59
 10
92.626
 20
186.128
 10
95.184
 20
182.3
 10
97.221
 20
178.17
 10
98.701
 20
173.81
 10
99.599
 20
169.295
 97
0
 92
2
 72
0
 73
1
 93
48
 10
99.4
 20
164.7
 10
99.103
 20
160.171
 10
98.218
 20
155.719
 10
96.759
 20
151.421
 10
94.751
 20
147.35
 10
92.229
 20
143.576
 10
89.237
 20
140.163
 10
85.824
 20
137.171
 10
82.05
 20
134.649
 10
77.979
 20
132.641
 10
73.681
 20
131.182
 10
69.229
 20
130.297
 10
64.7
 20
130.0
 10
60.171
 20
130.297
 10
55.719
 20
131.182
 10
51.421
 20
132.641
 10
47.35
 20
134.649
 10
43.576
 20
137.171
 10
40.163
 20
140.163
 10
37.171
 20
143.576
 10
34.649
 20
147.35
 10
32.641
 20
151.421
 10
31.182
 20
155.719
 10
30.297
 20
160.171
 10
30.0
 20
164.7
 10
30.297
 20
169.229
 10
31.182
 20
173.681
 10
32.641
 20
177.979
 10
34.649
 20
182.05
 10
37.171
 20
185.824
 10
40.163
 20
189.237
 10
43.576
 20
192.229
 10
47.35
 20
194.751
 10
51.421
 20
196.759
 10
55.719
 20
198.218
 10
60.171
 20
199.103
 10
64.7
 20
199.4
 10
69.229
 20
199.103
 10
73.681
 20
198.218
 10
77.979
 20
196.759
 10
82.05
 20
194.751
 10
85.824
 20
192.229
 10
89.237
 20
189.237
 10
92.229
 20
185.824
 10
94.751
 20
182.05
 10
96.759
 20
177.979
 10
98.218
 20
173.681
 10
99.103
 20
169.229
 97
0
 75
0
 76
1
 98
0
  0
CIRCLE
  5
34
330
17
100
AcDbEntity
  8
CUT
100
AcDbCircle
 10
166.2
 20
188.6
 30
0.0
 40
35.04
  0
CIRCLE
  5
35
330
17
100
AcDbEntity
  8
CUT
100
AcDbCircle
 10
166.2
 20
188.6
 30
0.0
 40
1.61
  0
HATCH
  5
36
330
17
100
AcDbEntity
  8
RASTER
 62
7
100
AcDbHatch
 10
0.0
 20
0.0
 30
0.0
210
0.0
220
0.0
230
1.0
  2
SOLID
 70
1
 71
0
 91
2
 92
3
 72
0
 73
1
 93
48
 10
170.4
 20
188.6
 10
170.364
 20
188.052
 10
170.257
 20
187.513
 10
170.08
 20
186.993
 10
169.837
 20
186.5
 10
169.532
 20
186.043
 10
169.17
 20
185.63
 10
168.757
 20
185.268
 10
168.3
 20
184.963
 10
167.807
 20
184.72
 10
167.287
 20
184.543
 10
166.748
 20
184.436
 10
166.2
 20
184.4
 10
165.652
 20
184.436
 10
165.113
 20
184.543
 10
164.593
 20
184.72
 10
164.1
 20
184.963
 10
163.643
 20
185.268
 10
163.23
 20
185.63
 10
162.868
 20
186.043
 10
162.563
 20
186.5
 10
162.32
 20
186.993
 10
162.143
 20
187.513
 10
162.036
 20
188.052
 10
162.0
 20
188.6
 10
162.036
 20
189.148
 10
162.143
 20
189.687
 10
162.32
 20
190.207
 10
162.563
 20
190.7
 10
162.868
 20
191.157
 10
163.23
 20
191.57
 10
163.643
 20
191.932
 10
164.1
 20
192.237
 10
164.593
 20
192.48
 10
165.113
 20
192.657
 10
165.652
 20
192.764
 10
166.2
 20
192.8
 10
166.748
 20
192.764
 10
167.287
 20
192.657
 10
167.807
 20
192.48
 10
168.3
 20
192.237
 10
168.757
 20
191.932
 10
169.17
 20
191.57
 10
169.532
 20
191.157
 10
169.837
 20
190.7
 10
170.08
 20
190.207
 10
170.257
 20
189.687
 10
170.364
 20
189.148
 97
0
 92
2
 72
0
 73
1
 93
48
 10
169.6
 20
188.6
 10
169.571
 20
188.156
 10
169.484
 20
187.72
 10
169.341
 20
187.299
 10
169.144
 20
186.9
 10
168.897
 20
186.53
 10
168.604
 20
186.196
 10
168.27
 20
185.903
 10
167.9
 20
185.656
 10
167.501
 20
185.459
 10
167.08
 20
185.316
 10
166.644
 20
185.229
 10
166.2
 20
185.2
 10
165.756
 20
185.229
 10
165.32
 20
185.316
 10
164.899
 20
185.459
 10
164.5
 20
185.656
 10
164.13
 20
185.903
 10
163.796
 20
186.196
 10
163.503
 20
186.53
 10
163.256
 20
186.9
 10
163.059
 20
187.299
 10
162.916
 20
187.72
 10
162.829
 20
188.156
 10
162.8
 20
188.6
 10
162.829
 20
189.044
 10
162.916
 20
189.48
 10
163.059
 20
189.901
 10
163.256
 20
190.3
 10
163.503
 20
190.67
 10
163.796
 20
191.004
 10
164.13
 20
191.297
 10
164.5
 20
191.544
 10
164.899
 20
191.741
 10
165.32
 20
191.884
 10
165.756
 20
191.971
 10
166.2
 20
192.0
 10
166.644
 20
191.971
 10
167.08
 20
191.884
 10
167.501
 20
191.741
 10
167.9
 20
191.544
 10
168.27
 20
191.297
 10
168.604
 20
191.004
 10
168.897
 20
190.67
 10
169.144
 20
190.3
 10
169.341
 20
189.901
 10
169.484
 20
189.48
 10
169.571
 20
189.044
 97
0
 75
0
 76
1
 98
0
  0
HATCH
  5
37
330
17
100
AcDbEntity
  8
RASTER
 62
7
100
AcDbHatch
 10
0.0
 20
0.0
 30
0.0
210
0.0
220
0.0
230
1.0
  2
SOLID
 70
1
 71
0
 91
1
 92
3
 72
0
 73
1
 93
50
 10
172.464
 20
222.018
 10
174.127
 20
221.663
 10
175.77
 20
221.225
 10
177.389
 20
220.706
 10
178.98
 20
220.107
 10
180.539
 20
219.429
 10
182.062
 20
218.673
 10
183.545
 20
217.843
 10
184.985
 20
216.939
 10
186.378
 20
215.965
 10
187.721
 20
214.922
 10
189.01
 20
213.813
 10
190.242
 20
212.642
 10
191.413
 20
211.41
 10
192.522
 20
210.121
 10
193.565
 20
208.778
 10
194.539
 20
207.385
 10
195.443
 20
205.945
 10
196.273
 20
204.462
 10
197.029
 20
202.939
 10
197.707
 20
201.38
 10
198.306
 20
199.789
 10
198.825
 20
198.17
 10
199.263
 20
196.527
 10
199.618
 20
194.864
 10
198.93
 20
194.736
 10
198.582
 20
196.364
 10
198.154
 20
197.973
 10
197.645
 20
199.558
 10
197.058
 20
201.117
 10
196.394
 20
202.643
 10
195.654
 20
204.135
 10
194.841
 20
205.588
 10
193.956
 20
206.998
 10
193.001
 20
208.363
 10
191.98
 20
209.678
 10
190.894
 20
210.94
 10
189.747
 20
212.147
 10
188.54
 20
213.294
 10
187.278
 20
214.38
 10
185.963
 20
215.401
 10
184.598
 20
216.356
 10
183.188
 20
217.241
 10
181.735
 20
218.054
 10
180.243
 20
218.794
 10
178.717
 20
219.458
 10
177.158
 20
220.045
 10
175.573
 20
220.554
 10
173.964
 20
220.982
 10
172.336
 20
221.33
 97
0
 75
0
 76
1
 98
0
  0
HATCH
  5
38
330
17
100
AcDbEntity
  8
RASTER
 62
7
100
AcDbHatch
 10
0.0
 20
0.0
 30
0.0
210
0.0
220
0.0
230
1.0
  2
SOLID
 70
1
 71
0
 91
1
 92
3
 72
0
 73
1
 93
50
 10
172.464
 20
217.325
 10
173.822
 20
216.995
 10
175.164
 20
216.6
 10
176.485
 20
216.142
 10
177.782
 20
215.622
 10
179.054
 20
215.041
 10
180.296
 20
214.4
 10
181.507
 20
213.701
 10
182.683
 20
212.945
 10
183.822
 20
212.134
 10
184.921
 20
211.269
 10
185.977
 20
210.354
 10
186.989
 20
209.389
 10
187.954
 20
208.377
 10
188.869
 20
207.321
 10
189.734
 20
206.222
 10
190.545
 20
205.083
 10
191.301
 20
203.907
 10
192.0
 20
202.696
 10
192.641
 20
201.454
 10
193.222
 20
200.182
 10
193.742
 20
198.885
 10
194.2
 20
197.564
 10
194.595
 20
196.222
 10
194.925
 20
194.864
 10
194.339
 20
194.736
 10
194.015
 20
196.067
 10
193.629
 20
197.381
 10
193.18
 20
198.675
 10
192.671
 20
199.946
 10
192.102
 20
201.192
 10
191.474
 20
202.409
 10
190.789
 20
203.595
 10
190.048
 20
204.747
 10
189.253
 20
205.862
 10
188.407
 20
206.939
 10
187.51
 20
207.974
 10
186.565
 20
208.965
 10
185.574
 20
209.91
 10
184.539
 20
210.807
 10
183.462
 20
211.653
 10
182.347
 20
212.448
 10
181.195
 20
213.189
 10
180.009
 20
213.874
 10
178.792
 20
214.502
 10
177.546
 20
215.071
 10
176.275
 20
215.58
 10
174.981
 20
216.029
 10
173.667
 20
216.415
 10
172.336
 20
216.739
 97
0
 75
0
 76
1
 98
0
  0
HATCH
  5
39
330
17
100
AcDbEntity
  8
RASTER
 62
7
100
AcDbHatch
 10
0.0
 20
0.0
 30
0.0
210
0.0
220
0.0
230
1.0
  2
SOLID
 70
1
 71
0
 91
1
 92
3
 72
0
 73
1
 93
50
 10
199.618
 20
182.336
 10
199.263
 20
180.673
 10
198.825
 20
179.03
 10
198.306
 20
177.411
 10
197.707
 20
175.82
 10
197.029
 20
174.261
 10
196.273
 20
172.738
 10
195.443
 20
171.255
 10
194.539
 20
169.815
 10
193.565
 20
168.422
 10
192.522
 20
167.079
 10
191.413
 20
165.79
 10
190.242
 20
164.558
 10
189.01
 20
163.387
 10
187.721
 20
162.278
 10
186.378
 20
161.235
 10
184.985
 20
160.261
 10
183.545
 20
159.357
 10
182.062
 20
158.527
 10
180.539
 20
157.771
 10
178.98
 20
157.093
 10
177.389
 20
156.494
 10
175.77
 20
155.975
 10
174.127
 20
155.537
 10
172.464
 20
155.182
 10
172.336
 20
155.87
 10
173.964
 20
156.218
 10
175.573
 20
156.646
 10
177.158
 20
157.155
 10
178.717
 20
157.742
 10
180.243
 20
158.406
 10
181.735
 20
159.146
 10
183.188
 20
159.959
 10
184.598
 20
160.844
 10
185.963
 20
161.799
 10
187.278
 20
162.82
 10
188.54
 20
163.906
 10
189.747
 20
165.053
 10
190.894
 20
166.26
 10
191.98
 20
167.522
 10
193.001
 20
168.837
 10
193.956
 20
170.202
 10
194.841
 20
171.612
 10
195.654
 20
173.065
 10
196.394
 20
174.557
 10
197.058
 20
176.083
 10
197.645
 20
177.642
 10
198.154
 20
179.227
 10
198.582
 20
180.836
 10
198.93
 20
182.464
 97
0
 75
0
 76
1
 98
0
  0
HATCH
  5
3A
330
17
100
AcDbEntity
  8
RASTER
 62
7
100
AcDbHatch
 10
0.0
 20
0.0
 30
0.0
210
0.0
220
0.0
230
1.0
  2
SOLID
 70
1
 71
0
 91
1
 92
3
 72
0
 73
1
 93
50
 10
194.925
 20
182.336
 10
194.595
 20
180.978
 10
194.2
 20
179.636
 10
193.742
 20
178.315
 10
193.222
 20
177.018
 10
192.641
 20
175.746
 10
192.0
 20
174.504
 10
191.301
 20
173.293
 10
190.545
 20
172.117
 10
189.734
 20
170.978
 10
188.869
 20
169.879
 10
187.954
 20
168.823
 10
186.989
 20
167.811
 10
185.977
 20
166.846
 10
184.921
 20
165.931
 10
183.822
 20
165.066
 10
182.683
 20
164.255
 10
181.507
 20
163.499
 10
180.296
 20
162.8
 10
179.054
 20
162.159
 10
177.782
 20
161.578
 10
176.485
 20
161.058
 10
175.164
 20
160.6
 10
173.822
 20
160.205
 10
172.464
 20
159.875
 10
172.336
 20
160.461
 10
173.667
 20
160.785
 10
174.981
 20
161.171
 10
176.275
 20
161.62
 10
177.546
 20
162.129
 10
178.792
 20
162.698
 10
180.009
 20
163.326
 10
181.195
 20
164.011
 10
182.347
 20
164.752
 10
183.462
 20
165.547
 10
184.539
 20
166.393
 10
185.574
 20
167.29
 10
186.565
 20
168.235
 10
187.51
 20
169.226
 10
188.407
 20
170.261
 10
189.253
 20
171.338
 10
190.048
 20
172.453
 10
190.789
 20
173.605
 10
191.474
 20
174.791
 10
192.102
 20
176.008
 10
192.671
 20
177.254
 10
193.18
 20
178.525
 10
193.629
 20
179.819
 10
194.015
 20
181.133
 10
194.339
 20
182.464
 97
0
 75
0
 76
1
 98
0
  0
HATCH
  5
3B
330
17
100
AcDbEntity
  8
RASTER
 62
7
100
AcDbHatch
 10
0.0
 20
0.0
 30
0.0
210
0.0
220
0.0
230
1.0
  2
SOLID
 70
1
 71
0
 91
1
 92
3
 72
0
 73
1
 93
50
 10
159.936
 20
155.182
 10
158.273
 20
155.537
 10
156.63
 20
155.975
 10
155.011
 20
156.494
 10
153.42
 20
157.093
 10
151.861
 20
157.771
 10
150.338
 20
158.527
 10
148.855
 20
159.357
 10
147.415
 20
160.261
 10
146.022
 20
161.235
 10
144.679
 20
162.278
 10
143.39
 20
163.387
 10
142.158
 20
164.558
 10
140.987
 20
165.79
 10
139.878
 20
167.079
 10
138.835
 20
168.422
 10
137.861
 20
169.815
 10
136.957
 20
171.255
 10
136.127
 20
172.738
 10
135.371
 20
174.261
 10
134.693
 20
175.82
 10
134.094
 20
177.411
 10
133.575
 20
179.03
 10
133.137
 20
180.673
 10
132.782
 20
182.336
 10
133.47
 20
182.464
 10
133.818
 20
180.836
 10
134.246
 20
179.227
 10
134.755
 20
177.642
 10
135.342
 20
176.083
 10
136.006
 20
174.557
 10
136.746
 20
173.065
 10
137.559
 20
171.612
 10
138.444
 20
170.202
 10
139.399
 20
168.837
 10
140.42
 20
167.522
 10
141.506
 20
166.26
 10
142.653
 20
165.053
 10
143.86
 20
163.906
 10
145.122
 20
162.82
 10
146.437
 20
161.799
 10
147.802
 20
160.844
 10
149.212
 20
159.959
 10
150.665
 20
159.146
 10
152.157
 20
158.406
 10
153.683
 20
157.742
 10
155.242
 20
157.155
 10
156.827
 20
156.646
 10
158.436
 20
156.218
 10
160.064
 20
155.87
 97
0
 75
0
 76
1
 98
0
  0
HATCH
  5
3C
330
17
100
AcDbEntity
  8
RASTER
 62
7
100
AcDbHatch
 10
0.0
 20
0.0
 30
0.0
210
0.0
220
0.0
230
1.0
  2
SOLID
 70
1
 71
0
 91
1
 92
3
 72
0
 73
1
 93
50
 10
159.936
 20
159.875
 10
158.578
 20
160.205
 10
157.236
 20
160.6
 10
155.915
 20
161.058
 10
154.618
 20
161.578
 10
153.346
 20
162.159
 10
152.104
 20
162.8
 10
150.893
 20
163.499
 10
149.717
 20
164.255
 10
148.578
 20
165.066
 10
147.479
 20
165.931
 10
146.423
 20
166.846
 10
145.411
 20
167.811
 10
144.446
 20
168.823
 10
143.531
 20
169.879
 10
142.666
 20
170.978
 10
141.855
 20
172.117
 10
141.099
 20
173.293
 10
140.4
 20
174.504
 10
139.759
 20
175.746
 10
139.178
 20
177.018
 10
138.658
 20
178.315
 10
138.2
 20
179.636
 10
137.805
 20
180.978
 10
137.475
 20
182.336
 10
138.061
 20
182.464
 10
138.385
 20
181.133
 10
138.771
 20
179.819
 10
139.22
 20
178.525
 10
139.729
 20
177.254
 10
140.298
 20
176.008
 10
140.926
 20
174.791
 10
141.611
 20
173.605
 10
142.352
 20
172.453
 10
143.147
 20
171.338
 10
143.993
 20
170.261
 10
144.89
 20
169.226
 10
145.835
 20
168.235
 10
146.826
 20
167.29
 10
147.861
 20
166.393
 10
148.938
 20
165.547
 10
150.053
 20
164.752
 10
151.205
 20
164.011
 10
152.391
 20
163.326
 10
153.608
 20
162.698
 10
154.854
 20
162.129
 10
156.125
 20
161.62
 10
157.419
 20
161.171
 10
158.733
 20
160.785
 10
160.064
 20
160.461
 97
0
 75
0
 76
1
 98
0
  0
HATCH
  5
3D
330
17
100
AcDbEntity
  8
RASTER
 62
7
100
AcDbHatch
 10
0.0
 20
0.0
 30
0.0
210
0.0
220
0.0
230
1.0
  2
SOLID
 70
1
 71
0
 91
1
 92
3
 72
0
 73
1
 93
50
 10
132.782
 20
194.864
 10
133.137
 20
196.527
 10
133.575
 20
198.17
 10
134.094
 20
199.789
 10
134.693
 20
201.38
 10
135.371
 20
202.939
 10
136.127
 20
204.462
 10
136.957
 20
205.945
 10
137.861
 20
207.385
 10
138.835
 20
208.778
 10
139.878
 20
210.121
 10
140.987
 20
211.41
 10
142.158
 20
212.642
 10
143.39
 20
213.813
 10
144.679
 20
214.922
 10
146.022
 20
215.965
 10
147.415
 20
216.939
 10
148.855
 20
217.843
 10
150.338
 20
218.673
 10
151.861
 20
219.429
 10
153.42
 20
220.107
 10
155.011
 20
220.706
 10
156.63
 20
221.225
 10
158.273
 20
221.663
 10
159.936
 20
222.018
 10
160.064
 20
221.33
 10
158.436
 20
220.982
 10
156.827
 20
220.554
 10
155.242
 20
220.045
 10
153.683
 20
219.458
 10
152.157
 20
218.794
 10
150.665
 20
218.054
 10
149.212
 20
217.241
 10
147.802
 20
216.356
 10
146.437
 20
215.401
 10
145.122
 20
214.38
 10
143.86
 20
213.294
 10
142.653
 20
212.147
 10
141.506
 20
210.94
 10
140.42
 20
209.678
 10
139.399
 20
208.363
 10
138.444
 20
206.998
 10
137.559
 20
205.588
 10
136.746
 20
204.135
 10
136.006
 20
202.643
 10
135.342
 20
201.117
 10
134.755
 20
199.558
 10
134.246
 20
197.973
 10
133.818
 20
196.364
 10
133.47
 20
194.736
 97
0
 75
0
 76
1
 98
0
  0
HATCH
  5
3E
330
17
100
AcDbEntity
  8
RASTER
 62
7
100
AcDbHatch
 10
0.0
 20
0.0
 30
0.0
210
0.0
220
0.0
230
1.0
  2
SOLID
 70
1
 71
0
 91
1
 92
3
 72
0
 73
1
 93
50
 10
137.475
 20
194.864
 10
137.805
 20
196.222
 10
138.2
 20
197.564
 10
138.658
 20
198.885
 10
139.178
 20
200.182
 10
139.759
 20
201.454
 10
140.4
 20
202.696
 10
141.099
 20
203.907
 10
141.855
 20
205.083
 10
142.666
 20
206.222
 10
143.531
 20
207.321
 10
144.446
 20
208.377
 10
145.411
 20
209.389
 10
146.423
 20
210.354
 10
147.479
 20
211.269
 10
148.578
 20
212.134
 10
149.717
 20
212.945
 10
150.893
 20
213.701
 10
152.104
 20
214.4
 10
153.346
 20
215.041
 10
154.618
 20
215.622
 10
155.915
 20
216.142
 10
157.236
 20
216.6
 10
158.578
 20
216.995
 10
159.936
 20
217.325
 10
160.064
 20
216.739
 10
158.733
 20
216.415
 10
157.419
 20
216.029
 10
156.125
 20
215.58
 10
154.854
 20
215.071
 10
153.608
 20
214.502
 10
152.391
 20
213.874
 10
151.205
 20
213.189
 10
150.053
 20
212.448
 10
148.938
 20
211.653
 10
147.861
 20
210.807
 10
146.826
 20
209.91
 10
145.835
 20
208.965
 10
144.89
 20
207.974
 10
143.993
 20
206.939
 10
143.147
 20
205.862
 10
142.352
 20
204.747
 10
141.611
 20
203.595
 10
140.926
 20
202.409
 10
140.298
 20
201.192
 10
139.729
 20
199.946
 10
139.22
 20
198.675
 10
138.771
 20
197.381
 10
138.385
 20
196.067
 10
138.061
 20
194.736
 97
0
 75
0
 76
1
 98
0
  0
HATCH
  5
3F
330
17
100
AcDbEntity
  8
RASTER
 62
7
100
AcDbHatch
 10
0.0
 20
0.0
 30
0.0
210
0.0
220
0.0
230
1.0
  2
SOLID
 70
1
 71
0
 91
1
 92
3
 72
0
 73
1
 93
48
 10
196.933
 20
180.499
 10
196.929
 20
180.434
 10
196.916
 20
180.37
 10
196.895
 20
180.308
 10
196.866
 20
180.249
 10
196.83
 20
180.195
 10
196.787
 20
180.145
 10
196.738
 20
180.102
 10
196.683
 20
180.066
 10
196.625
 20
180.037
 10
196.563
 20
180.016
 10
196.499
 20
180.003
 10
196.433
 20
179.999
 10
196.368
 20
180.003
 10
196.304
 20
180.016
 10
196.242
 20
180.037
 10
196.183
 20
180.066
 10
196.129
 20
180.102
 10
196.08
 20
180.145
 10
196.037
 20
180.195
 10
196.0
 20
180.249
 10
195.972
 20
180.308
 10
195.951
 20
180.37
 10
195.938
 20
180.434
 10
195.933
 20
180.499
 10
195.938
 20
180.564
 10
195.951
 20
180.628
 10
195.972
 20
180.69
 10
196.0
 20
180.749
 10
196.037
 20
180.803
 10
196.08
 20
180.853
 10
196.129
 20
180.896
 10
196.183
 20
180.932
 10
196.242
 20
180.961
 10
196.304
 20
180.982
 10
196.368
 20
180.995
 10
196.433
 20
180.999
 10
196.499
 20
180.995
 10
196.563
 20
180.982
 10
196.625
 20
180.961
 10
196.683
 20
180.932
 10
196.738
 20
180.896
 10
196.787
 20
180.853
 10
196.83
 20
180.803
 10
196.866
 20
180.749
 10
196.895
 20
180.69
 10
196.916
 20
180.628
 10
196.929
 20
180.564
 97
0
 75
0
 76
1
 98
0
  0
HATCH
  5
40
330
17
100
AcDbEntity
  8
RASTER
 62
7
100
AcDbHatch
 10
0.0
 20
0.0
 30
0.0
210
0.0
220
0.0
230
1.0
  2
SOLID
 70
1
 71
0
 91
1
 92
3
 72
0
 73
1
 93
48
 10
195.067
 20
175.372
 10
195.063
 20
175.307
 10
195.05
 20
175.243
 10
195.029
 20
175.181
 10
195.0
 20
175.122
 10
194.964
 20
175.068
 10
194.921
 20
175.018
 10
194.872
 20
174.975
 10
194.817
 20
174.939
 10
194.759
 20
174.91
 10
194.697
 20
174.889
 10
194.633
 20
174.876
 10
194.567
 20
174.872
 10
194.502
 20
174.876
 10
194.438
 20
174.889
 10
194.376
 20
174.91
 10
194.317
 20
174.939
 10
194.263
 20
174.975
 10
194.214
 20
175.018
 10
194.171
 20
175.068
 10
194.134
 20
175.122
 10
194.105
 20
175.181
 10
194.084
 20
175.243
 10
194.072
 20
175.307
 10
194.067
 20
175.372
 10
194.072
 20
175.437
 10
194.084
 20
175.501
 10
194.105
 20
175.563
 10
194.134
 20
175.622
 10
194.171
 20
175.676
 10
194.214
 20
175.726
 10
194.263
 20
175.769
 10
194.317
 20
175.805
 10
194.376
 20
175.834
 10
194.438
 20
175.855
 10
194.502
 20
175.868
 10
194.567
 20
175.872
 10
194.633
 20
175.868
 10
194.697
 20
175.855
 10
194.759
 20
175.834
 10
194.817
 20
175.805
 10
194.872
 20
175.769
 10
194.921
 20
175.726
 10
194.964
 20
175.676
 10
195.0
 20
175.622
 10
195.029
 20
175.563
 10
195.05
 20
175.501
 10
195.063
 20
175.437
 97
0
 75
0
 76
1
 98
0
  0
HATCH
  5
41
330
17
100
AcDbEntity
  8
RASTER
 62
7
100
AcDbHatch
 10
0.0
 20
0.0
 30
0.0
210
0.0
220
0.0
230
1.0
  2
SOLID
 70
1
 71
0
 91
1
 92
3
 72
0
 73
1
 93
48
 10
192.339
 20
170.647
 10
192.335
 20
170.582
 10
192.322
 20
170.518
 10
192.301
 20
170.456
 10
192.272
 20
170.397
 10
192.236
 20
170.343
 10
192.193
 20
170.294
 10
192.144
 20
170.25
 10
192.089
 20
170.214
 10
192.031
 20
170.185
 10
191.969
 20
170.164
 10
191.905
 20
170.151
 10
191.839
 20
170.147
 10
191.774
 20
170.151
 10
191.71
 20
170.164
 10
191.648
 20
170.185
 10
191.589
 20
170.214
 10
191.535
 20
170.25
 10
191.486
 20
170.294
 10
191.443
 20
170.343
 10
191.406
 20
170.397
 10
191.378
 20
170.456
 10
191.356
 20
170.518
 10
191.344
 20
170.582
 10
191.339
 20
170.647
 10
191.344
 20
170.712
 10
191.356
 20
170.776
 10
191.378
 20
170.838
 10
191.406
 20
170.897
 10
191.443
 20
170.951
 10
191.486
 20
171.001
 10
191.535
 20
171.044
 10
191.589
 20
171.08
 10
191.648
 20
171.109
 10
191.71
 20
171.13
 10
191.774
 20
171.143
 10
191.839
 20
171.147
 10
191.905
 20
171.143
 10
191.969
 20
171.13
 10
192.031
 20
171.109
 10
192.089
 20
171.08
 10
192.144
 20
171.044
 10
192.193
 20
171.001
 10
192.236
 20
170.951
 10
192.272
 20
170.897
 10
192.301
 20
170.838
 10
192.322
 20
170.776
 10
192.335
 20
170.712
 97
0
 75
0
 76
1
 98
0
  0
HATCH
  5
42
330
17
100
AcDbEntity
  8
RASTER
 62
7
100
AcDbHatch
 10
0.0
 20
0.0
 30
0.0
210
0.0
220
0.0
230
1.0
  2
SOLID
 70
1
 71
0
 91
1
 92
3
 72
0
 73
1
 93
48
 10
184.653
 20
162.961
 10
184.649
 20
162.895
 10
184.636
 20
162.831
 10
184.615
 20
162.769
 10
184.586
 20
162.711
 10
184.55
 20
162.656
 10
184.506
 20
162.607
 10
184.457
 20
162.564
 10
184.403
 20
162.528
 10
184.344
 20
162.499
 10
184.282
 20
162.478
 10
184.218
 20
162.465
 10
184.153
 20
162.461
 10
184.088
 20
162.465
 10
184.024
 20
162.478
 10
183.962
 20
162.499
 10
183.903
 20
162.528
 10
183.849
 20
162.564
 10
183.799
 20
162.607
 10
183.756
 20
162.656
 10
183.72
 20
162.711
 10
183.691
 20
162.769
 10
183.67
 20
162.831
 10
183.657
 20
162.895
 10
183.653
 20
162.961
 10
183.657
 20
163.026
 10
183.67
 20
163.09
 10
183.691
 20
163.152
 10
183.72
 20
163.211
 10
183.756
 20
163.265
 10
183.799
 20
163.314
 10
183.849
 20
163.357
 10
183.903
 20
163.394
 10
183.962
 20
163.422
 10
184.024
 20
163.444
 10
184.088
 20
163.456
 10
184.153
 20
163.461
 10
184.218
 20
163.456
 10
184.282
 20
163.444
 10
184.344
 20
163.422
 10
184.403
 20
163.394
 10
184.457
 20
163.357
 10
184.506
 20
163.314
 10
184.55
 20
163.265
 10
184.586
 20
163.211
 10
184.615
 20
163.152
 10
184.636
 20
163.09
 10
184.649
 20
163.026
 97
0
 75
0
 76
1
 98
0
  0
HATCH
  5
43
330
17
100
AcDbEntity
  8
RASTER
 62
7
100
AcDbHatch
 10
0.0
 20
0.0
 30
0.0
210
0.0
220
0.0
230
1.0
  2
SOLID
 70
1
 71
0
 91
1
 92
3
 72
0
 73
1
 93
48
 10
179.928
 20
160.233
 10
179.924
 20
160.167
 10
179.911
 20
160.103
 10
179.89
 20
160.041
 10
179.861
 20
159.983
 10
179.825
 20
159.928
 10
179.782
 20
159.879
 10
179.732
 20
159.836
 10
179.678
 20
159.8
 10
179.619
 20
159.771
 10
179.557
 20
159.75
 10
179.493
 20
159.737
 10
179.428
 20
159.733
 10
179.363
 20
159.737
 10
179.299
 20
159.75
 10
179.237
 20
159.771
 10
179.178
 20
159.8
 10
179.124
 20
159.836
 10
179.074
 20
159.879
 10
179.031
 20
159.928
 10
178.995
 20
159.983
 10
178.966
 20
160.041
 10
178.945
 20
160.103
 10
178.932
 20
160.167
 10
178.928
 20
160.233
 10
178.932
 20
160.298
 10
178.945
 20
160.362
 10
178.966
 20
160.424
 10
178.995
 20
160.483
 10
179.031
 20
160.537
 10
179.074
 20
160.586
 10
179.124
 20
160.629
 10
179.178
 20
160.666
 10
179.237
 20
160.695
 10
179.299
 20
160.716
 10
179.363
 20
160.728
 10
179.428
 20
160.733
 10
179.493
 20
160.728
 10
179.557
 20
160.716
 10
179.619
 20
160.695
 10
179.678
 20
160.666
 10
179.732
 20
160.629
 10
179.782
 20
160.586
 10
179.825
 20
160.537
 10
179.861
 20
160.483
 10
179.89
 20
160.424
 10
179.911
 20
160.362
 10
179.924
 20
160.298
 97
0
 75
0
 76
1
 98
0
  0
HATCH
  5
44
330
17
100
AcDbEntity
  8
RASTER
 62
7
100
AcDbHatch
 10
0.0
 20
0.0
 30
0.0
210
0.0
220
0.0
230
1.0
  2
SOLID
 70
1
 71
0
 91
1
 92
3
 72
0
 73
1
 93
48
 10
174.801
 20
158.367
 10
174.797
 20
158.301
 10
174.784
 20
158.237
 10
174.763
 20
158.175
 10
174.734
 20
158.117
 10
174.698
 20
158.062
 10
174.655
 20
158.013
 10
174.605
 20
157.97
 10
174.551
 20
157.934
 10
174.492
 20
157.905
 10
174.43
 20
157.884
 10
174.366
 20
157.871
 10
174.301
 20
157.867
 10
174.236
 20
157.871
 10
174.172
 20
157.884
 10
174.11
 20
157.905
 10
174.051
 20
157.934
 10
173.997
 20
157.97
 10
173.947
 20
158.013
 10
173.904
 20
158.062
 10
173.868
 20
158.117
 10
173.839
 20
158.175
 10
173.818
 20
158.237
 10
173.805
 20
158.301
 10
173.801
 20
158.367
 10
173.805
 20
158.432
 10
173.818
 20
158.496
 10
173.839
 20
158.558
 10
173.868
 20
158.617
 10
173.904
 20
158.671
 10
173.947
 20
158.72
 10
173.997
 20
158.763
 10
174.051
 20
158.8
 10
174.11
 20
158.828
 10
174.172
 20
158.849
 10
174.236
 20
158.862
 10
174.301
 20
158.867
 10
174.366
 20
158.862
 10
174.43
 20
158.849
 10
174.492
 20
158.828
 10
174.551
 20
158.8
 10
174.605
 20
158.763
 10
174.655
 20
158.72
 10
174.698
 20
158.671
 10
174.734
 20
158.617
 10
174.763
 20
158.558
 10
174.784
 20
158.496
 10
174.797
 20
158.432
 97
0
 75
0
 76
1
 98
0
  0
HATCH
  5
45
330
17
100
AcDbEntity
  8
RASTER
 62
7
100
AcDbHatch
 10
0.0
 20
0.0
 30
0.0
210
0.0
220
0.0
230
1.0
  2
SOLID
 70
1
 71
0
 91
1
 92
3
 72
0
 73
1
 93
48
 10
158.599
 20
158.367
 10
158.595
 20
158.301
 10
158.582
 20
158.237
 10
158.561
 20
158.175
 10
158.532
 20
158.117
 10
158.496
 20
158.062
 10
158.453
 20
158.013
 10
158.403
 20
157.97
 10
158.349
 20
157.934
 10
158.29
 20
157.905
 10
158.228
 20
157.884
 10
158.164
 20
157.871
 10
158.099
 20
157.867
 10
158.034
 20
157.871
 10
157.97
 20
157.884
 10
157.908
 20
157.905
 10
157.849
 20
157.934
 10
157.795
 20
157.97
 10
157.745
 20
158.013
 10
157.702
 20
158.062
 10
157.666
 20
158.117
 10
157.637
 20
158.175
 10
157.616
 20
158.237
 10
157.603
 20
158.301
 10
157.599
 20
158.367
 10
157.603
 20
158.432
 10
157.616
 20
158.496
 10
157.637
 20
158.558
 10
157.666
 20
158.617
 10
157.702
 20
158.671
 10
157.745
 20
158.72
 10
157.795
 20
158.763
 10
157.849
 20
158.8
 10
157.908
 20
158.828
 10
157.97
 20
158.849
 10
158.034
 20
158.862
 10
158.099
 20
158.867
 10
158.164
 20
158.862
 10
158.228
 20
158.849
 10
158.29
 20
158.828
 10
158.349
 20
158.8
 10
158.403
 20
158.763
 10
158.453
 20
158.72
 10
158.496
 20
158.671
 10
158.532
 20
158.617
 10
158.561
 20
158.558
 10
158.582
 20
158.496
 10
158.595
 20
158.432
 97
0
 75
0
 76
1
 98
0
  0
HATCH
  5
46
330
17
100
AcDbEntity
  8
RASTER
 62
7
100
AcDbHatch
 10
0.0
 20
0.0
 30
0.0
210
0.0
220
0.0
230
1.0
  2
SOLID
 70
1
 71
0
 91
1
 92
3
 72
0
 73
1
 93
48
 10
153.472
 20
160.233
 10
153.468
 20
160.167
 10
153.455
 20
160.103
 10
153.434
 20
160.041
 10
153.405
 20
159.983
 10
153.369
 20
159.928
 10
153.326
 20
159.879
 10
153.276
 20
159.836
 10
153.222
 20
159.8
 10
153.163
 20
159.771
 10
153.101
 20
159.75
 10
153.037
 20
159.737
 10
152.972
 20
159.733
 10
152.907
 20
159.737
 10
152.843
 20
159.75
 10
152.781
 20
159.771
 10
152.722
 20
159.8
 10
152.668
 20
159.836
 10
152.618
 20
159.879
 10
152.575
 20
159.928
 10
152.539
 20
159.983
 10
152.51
 20
160.041
 10
152.489
 20
160.103
 10
152.476
 20
160.167
 10
152.472
 20
160.233
 10
152.476
 20
160.298
 10
152.489
 20
160.362
 10
152.51
 20
160.424
 10
152.539
 20
160.483
 10
152.575
 20
160.537
 10
152.618
 20
160.586
 10
152.668
 20
160.629
 10
152.722
 20
160.666
 10
152.781
 20
160.695
 10
152.843
 20
160.716
 10
152.907
 20
160.728
 10
152.972
 20
160.733
 10
153.037
 20
160.728
 10
153.101
 20
160.716
 10
153.163
 20
160.695
 10
153.222
 20
160.666
 10
153.276
 20
160.629
 10
153.326
 20
160.586
 10
153.369
 20
160.537
 10
153.405
 20
160.483
 10
153.434
 20
160.424
 10
153.455
 20
160.362
 10
153.468
 20
160.298
 97
0
 75
0
 76
1
 98
0
  0
HATCH
  5
47
330
17
100
AcDbEntity
  8
RASTER
 62
7
100
AcDbHatch
 10
0.0
 20
0.0
 30
0.0
210
0.0
220
0.0
230
1.0
  2
SOLID
 70
1
 71
0
 91
1
 92
3
 72
0
 73
1
 93
48
 10
148.747
 20
162.961
 10
148.743
 20
162.895
 10
148.73
 20
162.831
 10
148.709
 20
162.769
 10
148.68
 20
162.711
 10
148.644
 20
162.656
 10
148.601
 20
162.607
 10
148.551
 20
162.564
 10
148.497
 20
162.528
 10
148.438
 20
162.499
 10
148.376
 20
162.478
 10
148.312
 20
162.465
 10
148.247
 20
162.461
 10
148.182
 20
162.465
 10
148.118
 20
162.478
 10
148.056
 20
162.499
 10
147.997
 20
162.528
 10
147.943
 20
162.564
 10
147.894
 20
162.607
 10
147.85
 20
162.656
 10
147.814
 20
162.711
 10
147.785
 20
162.769
 10
147.764
 20
162.831
 10
147.751
 20
162.895
 10
147.747
 20
162.961
 10
147.751
 20
163.026
 10
147.764
 20
163.09
 10
147.785
 20
163.152
 10
147.814
 20
163.211
 10
147.85
 20
163.265
 10
147.894
 20
163.314
 10
147.943
 20
163.357
 10
147.997
 20
163.394
 10
148.056
 20
163.422
 10
148.118
 20
163.444
 10
148.182
 20
163.456
 10
148.247
 20
163.461
 10
148.312
 20
163.456
 10
148.376
 20
163.444
 10
148.438
 20
163.422
 10
148.497
 20
163.394
 10
148.551
 20
163.357
 10
148.601
 20
163.314
 10
148.644
 20
163.265
 10
148.68
 20
163.211
 10
148.709
 20
163.152
 10
148.73
 20
163.09
 10
148.743
 20
163.026
 97
0
 75
0
 76
1
 98
0
  0
HATCH
  5
48
330
17
100
AcDbEntity
  8
RASTER
 62
7
100
AcDbHatch
 10
0.0
 20
0.0
 30
0.0
210
0.0
220
0.0
230
1.0
  2
SOLID
 70
1
 71
0
 91
1
 92
3
 72
0
 73
1
 93
48
 10
141.061
 20
170.647
 10
141.056
 20
170.582
 10
141.044
 20
170.518
 10
141.022
 20
170.456
 10
140.994
 20
170.397
 10
140.957
 20
170.343
 10
140.914
 20
170.294
 10
140.865
 20
170.25
 10
140.811
 20
170.214
 10
140.752
 20
170.185
 10
140.69
 20
170.164
 10
140.626
 20
170.151
 10
140.561
 20
170.147
 10
140.495
 20
170.151
 10
140.431
 20
170.164
 10
140.369
 20
170.185
 10
140.311
 20
170.214
 10
140.256
 20
170.25
 10
140.207
 20
170.294
 10
140.164
 20
170.343
 10
140.128
 20
170.397
 10
140.099
 20
170.456
 10
140.078
 20
170.518
 10
140.065
 20
170.582
 10
140.061
 20
170.647
 10
140.065
 20
170.712
 10
140.078
 20
170.776
 10
140.099
 20
170.838
 10
140.128
 20
170.897
 10
140.164
 20
170.951
 10
140.207
 20
171.001
 10
140.256
 20
171.044
 10
140.311
 20
171.08
 10
140.369
 20
171.109
 10
140.431
 20
171.13
 10
140.495
 20
171.143
 10
140.561
 20
171.147
 10
140.626
 20
171.143
 10
140.69
 20
171.13
 10
140.752
 20
171.109
 10
140.811
 20
171.08
 10
140.865
 20
171.044
 10
140.914
 20
171.001
 10
140.957
 20
170.951
 10
140.994
 20
170.897
 10
141.022
 20
170.838
 10
141.044
 20
170.776
 10
141.056
 20
170.712
 97
0
 75
0
 76
1
 98
0
  0
HATCH
  5
49
330
17
100
AcDbEntity
  8
RASTER
 62
7
100
AcDbHatch
 10
0.0
 20
0.0
 30
0.0
210
0.0
220
0.0
230
1.0
  2
SOLID
 70
1
 71
0
 91
1
 92
3
 72
0
 73
1
 93
48
 10
138.333
 20
175.372
 10
138.328
 20
175.307
 10
138.316
 20
175.243
 10
138.295
 20
175.181
 10
138.266
 20
175.122
 10
138.229
 20
175.068
 10
138.186
 20
175.018
 10
138.137
 20
174.975
 10
138.083
 20
174.939
 10
138.024
 20
174.91
 10
137.962
 20
174.889
 10
137.898
 20
174.876
 10
137.833
 20
174.872
 10
137.767
 20
174.876
 10
137.703
 20
174.889
 10
137.641
 20
174.91
 10
137.583
 20
174.939
 10
137.528
 20
174.975
 10
137.479
 20
175.018
 10
137.436
 20
175.068
 10
137.4
 20
175.122
 10
137.371
 20
175.181
 10
137.35
 20
175.243
 10
137.337
 20
175.307
 10
137.333
 20
175.372
 10
137.337
 20
175.437
 10
137.35
 20
175.501
 10
137.371
 20
175.563
 10
137.4
 20
175.622
 10
137.436
 20
175.676
 10
137.479
 20
175.726
 10
137.528
 20
175.769
 10
137.583
 20
175.805
 10
137.641
 20
175.834
 10
137.703
 20
175.855
 10
137.767
 20
175.868
 10
137.833
 20
175.872
 10
137.898
 20
175.868
 10
137.962
 20
175.855
 10
138.024
 20
175.834
 10
138.083
 20
175.805
 10
138.137
 20
175.769
 10
138.186
 20
175.726
 10
138.229
 20
175.676
 10
138.266
 20
175.622
 10
138.295
 20
175.563
 10
138.316
 20
175.501
 10
138.328
 20
175.437
 97
0
 75
0
 76
1
 98
0
  0
HATCH
  5
4A
330
17
100
AcDbEntity
  8
RASTER
 62
7
100
AcDbHatch
 10
0.0
 20
0.0
 30
0.0
210
0.0
220
0.0
230
1.0
  2
SOLID
 70
1
 71
0
 91
1
 92
3
 72
0
 73
1
 93
48
 10
136.467
 20
180.499
 10
136.462
 20
180.434
 10
136.449
 20
180.37
 10
136.428
 20
180.308
 10
136.4
 20
180.249
 10
136.363
 20
180.195
 10
136.32
 20
180.145
 10
136.271
 20
180.102
 10
136.217
 20
180.066
 10
136.158
 20
180.037
 10
136.096
 20
180.016
 10
136.032
 20
180.003
 10
135.967
 20
179.999
 10
135.901
 20
180.003
 10
135.837
 20
180.016
 10
135.775
 20
180.037
 10
135.717
 20
180.066
 10
135.662
 20
180.102
 10
135.613
 20
180.145
 10
135.57
 20
180.195
 10
135.534
 20
180.249
 10
135.505
 20
180.308
 10
135.484
 20
180.37
 10
135.471
 20
180.434
 10
135.467
 20
180.499
 10
135.471
 20
180.564
 10
135.484
 20
180.628
 10
135.505
 20
180.69
 10
135.534
 20
180.749
 10
135.57
 20
180.803
 10
135.613
 20
180.853
 10
135.662
 20
180.896
 10
135.717
 20
180.932
 10
135.775
 20
180.961
 10
135.837
 20
180.982
 10
135.901
 20
180.995
 10
135.967
 20
180.999
 10
136.032
 20
180.995
 10
136.096
 20
180.982
 10
136.158
 20
180.961
 10
136.217
 20
180.932
 10
136.271
 20
180.896
 10
136.32
 20
180.853
 10
136.363
 20
180.803
 10
136.4
 20
180.749
 10
136.428
 20
180.69
 10
136.449
 20
180.628
 10
136.462
 20
180.564
 97
0
 75
0
 76
1
 98
0
  0
HATCH
  5
4B
330
17
100
AcDbEntity
  8
RASTER
 62
7
100
AcDbHatch
 10
0.0
 20
0.0
 30
0.0
210
0.0
220
0.0
230
1.0
  2
SOLID
 70
1
 71
0
 91
1
 92
3
 72
0
 73
1
 93
48
 10
136.467
 20
196.701
 10
136.462
 20
196.636
 10
136.449
 20
196.572
 10
136.428
 20
196.51
 10
136.4
 20
196.451
 10
136.363
 20
196.397
 10
136.32
 20
196.347
 10
136.271
 20
196.304
 10
136.217
 20
196.268
 10
136.158
 20
196.239
 10
136.096
 20
196.218
 10
136.032
 20
196.205
 10
135.967
 20
196.201
 10
135.901
 20
196.205
 10
135.837
 20
196.218
 10
135.775
 20
196.239
 10
135.717
 20
196.268
 10
135.662
 20
196.304
 10
135.613
 20
196.347
 10
135.57
 20
196.397
 10
135.534
 20
196.451
 10
135.505
 20
196.51
 10
135.484
 20
196.572
 10
135.471
 20
196.636
 10
135.467
 20
196.701
 10
135.471
 20
196.766
 10
135.484
 20
196.83
 10
135.505
 20
196.892
 10
135.534
 20
196.951
 10
135.57
 20
197.005
 10
135.613
 20
197.055
 10
135.662
 20
197.098
 10
135.717
 20
197.134
 10
135.775
 20
197.163
 10
135.837
 20
197.184
 10
135.901
 20
197.197
 10
135.967
 20
197.201
 10
136.032
 20
197.197
 10
136.096
 20
197.184
 10
136.158
 20
197.163
 10
136.217
 20
197.134
 10
136.271
 20
197.098
 10
136.32
 20
197.055
 10
136.363
 20
197.005
 10
136.4
 20
196.951
 10
136.428
 20
196.892
 10
136.449
 20
196.83
 10
136.462
 20
196.766
 97
0
 75
0
 76
1
 98
0
  0
HATCH
  5
4C
330
17
100
AcDbEntity
  8
RASTER
 62
7
100
AcDbHatch
 10
0.0
 20
0.0
 30
0.0
210
0.0
220
0.0
230
1.0
  2
SOLID
 70
1
 71
0
 91
1
 92
3
 72
0
 73
1
 93
48
 10
138.333
 20
201.828
 10
138.328
 20
201.763
 10
138.316
 20
201.699
 10
138.295
 20
201.637
 10
138.266
 20
201.578
 10
138.229
 20
201.524
 10
138.186
 20
201.474
 10
138.137
 20
201.431
 10
138.083
 20
201.395
 10
138.024
 20
201.366
 10
137.962
 20
201.345
 10
137.898
 20
201.332
 10
137.833
 20
201.328
 10
137.767
 20
201.332
 10
137.703
 20
201.345
 10
137.641
 20
201.366
 10
137.583
 20
201.395
 10
137.528
 20
201.431
 10
137.479
 20
201.474
 10
137.436
 20
201.524
 10
137.4
 20
201.578
 10
137.371
 20
201.637
 10
137.35
 20
201.699
 10
137.337
 20
201.763
 10
137.333
 20
201.828
 10
137.337
 20
201.893
 10
137.35
 20
201.957
 10
137.371
 20
202.019
 10
137.4
 20
202.078
 10
137.436
 20
202.132
 10
137.479
 20
202.182
 10
137.528
 20
202.225
 10
137.583
 20
202.261
 10
137.641
 20
202.29
 10
137.703
 20
202.311
 10
137.767
 20
202.324
 10
137.833
 20
202.328
 10
137.898
 20
202.324
 10
137.962
 20
202.311
 10
138.024
 20
202.29
 10
138.083
 20
202.261
 10
138.137
 20
202.225
 10
138.186
 20
202.182
 10
138.229
 20
202.132
 10
138.266
 20
202.078
 10
138.295
 20
202.019
 10
138.316
 20
201.957
 10
138.328
 20
201.893
 97
0
 75
0
 76
1
 98
0
  0
HATCH
  5
4D
330
17
100
AcDbEntity
  8
RASTER
 62
7
100
AcDbHatch
 10
0.0
 20
0.0
 30
0.0
210
0.0
220
0.0
230
1.0
  2
SOLID
 70
1
 71
0
 91
1
 92
3
 72
0
 73
1
 93
48
 10
141.061
 20
206.553
 10
141.056
 20
206.488
 10
141.044
 20
206.424
 10
141.022
 20
206.362
 10
140.994
 20
206.303
 10
140.957
 20
206.249
 10
140.914
 20
206.199
 10
140.865
 20
206.156
 10
140.811
 20
206.12
 10
140.752
 20
206.091
 10
140.69
 20
206.07
 10
140.626
 20
206.057
 10
140.561
 20
206.053
 10
140.495
 20
206.057
 10
140.431
 20
206.07
 10
140.369
 20
206.091
 10
140.311
 20
206.12
 10
140.256
 20
206.156
 10
140.207
 20
206.199
 10
140.164
 20
206.249
 10
140.128
 20
206.303
 10
140.099
 20
206.362
 10
140.078
 20
206.424
 10
140.065
 20
206.488
 10
140.061
 20
206.553
 10
140.065
 20
206.618
 10
140.078
 20
206.682
 10
140.099
 20
206.744
 10
140.128
 20
206.803
 10
140.164
 20
206.857
 10
140.207
 20
206.906
 10
140.256
 20
206.95
 10
140.311
 20
206.986
 10
140.369
 20
207.015
 10
140.431
 20
207.036
 10
140.495
 20
207.049
 10
140.561
 20
207.053
 10
140.626
 20
207.049
 10
140.69
 20
207.036
 10
140.752
 20
207.015
 10
140.811
 20
206.986
 10
140.865
 20
206.95
 10
140.914
 20
206.906
 10
140.957
 20
206.857
 10
140.994
 20
206.803
 10
141.022
 20
206.744
 10
141.044
 20
206.682
 10
141.056
 20
206.618
 97
0
 75
0
 76
1
 98
0
  0
HATCH
  5
4E
330
17
100
AcDbEntity
  8
RASTER
 62
7
100
AcDbHatch
 10
0.0
 20
0.0
 30
0.0
210
0.0
220
0.0
230
1.0
  2
SOLID
 70
1
 71
0
 91
1
 92
3
 72
0
 73
1
 93
48
 10
148.747
 20
214.239
 10
148.743
 20
214.174
 10
148.73
 20
214.11
 10
148.709
 20
214.048
 10
148.68
 20
213.989
 10
148.644
 20
213.935
 10
148.601
 20
213.886
 10
148.551
 20
213.843
 10
148.497
 20
213.806
 10
148.438
 20
213.778
 10
148.376
 20
213.756
 10
148.312
 20
213.744
 10
148.247
 20
213.739
 10
148.182
 20
213.744
 10
148.118
 20
213.756
 10
148.056
 20
213.778
 10
147.997
 20
213.806
 10
147.943
 20
213.843
 10
147.894
 20
213.886
 10
147.85
 20
213.935
 10
147.814
 20
213.989
 10
147.785
 20
214.048
 10
147.764
 20
214.11
 10
147.751
 20
214.174
 10
147.747
 20
214.239
 10
147.751
 20
214.305
 10
147.764
 20
214.369
 10
147.785
 20
214.431
 10
147.814
 20
214.489
 10
147.85
 20
214.544
 10
147.894
 20
214.593
 10
147.943
 20
214.636
 10
147.997
 20
214.672
 10
148.056
 20
214.701
 10
148.118
 20
214.722
 10
148.182
 20
214.735
 10
148.247
 20
214.739
 10
148.312
 20
214.735
 10
148.376
 20
214.722
 10
148.438
 20
214.701
 10
148.497
 20
214.672
 10
148.551
 20
214.636
 10
148.601
 20
214.593
 10
148.644
 20
214.544
 10
148.68
 20
214.489
 10
148.709
 20
214.431
 10
148.73
 20
214.369
 10
148.743
 20
214.305
 97
0
 75
0
 76
1
 98
0
  0
HATCH
  5
4F
330
17
100
AcDbEntity
  8
RASTER
 62
7
100
AcDbHatch
 10
0.0
 20
0.0
 30
0.0
210
0.0
220
0.0
230
1.0
  2
SOLID
 70
1
 71
0
 91
1
 92
3
 72
0
 73
1
 93
48
 10
153.472
 20
216.967
 10
153.468
 20
216.902
 10
153.455
 20
216.838
 10
153.434
 20
216.776
 10
153.405
 20
216.717
 10
153.369
 20
216.663
 10
153.326
 20
216.614
 10
153.276
 20
216.571
 10
153.222
 20
216.534
 10
153.163
 20
216.505
 10
153.101
 20
216.484
 10
153.037
 20
216.472
 10
152.972
 20
216.467
 10
152.907
 20
216.472
 10
152.843
 20
216.484
 10
152.781
 20
216.505
 10
152.722
 20
216.534
 10
152.668
 20
216.571
 10
152.618
 20
216.614
 10
152.575
 20
216.663
 10
152.539
 20
216.717
 10
152.51
 20
216.776
 10
152.489
 20
216.838
 10
152.476
 20
216.902
 10
152.472
 20
216.967
 10
152.476
 20
217.033
 10
152.489
 20
217.097
 10
152.51
 20
217.159
 10
152.539
 20
217.217
 10
152.575
 20
217.272
 10
152.618
 20
217.321
 10
152.668
 20
217.364
 10
152.722
 20
217.4
 10
152.781
 20
217.429
 10
152.843
 20
217.45
 10
152.907
 20
217.463
 10
152.972
 20
217.467
 10
153.037
 20
217.463
 10
153.101
 20
217.45
 10
153.163
 20
217.429
 10
153.222
 20
217.4
 10
153.276
 20
217.364
 10
153.326
 20
217.321
 10
153.369
 20
217.272
 10
153.405
 20
217.217
 10
153.434
 20
217.159
 10
153.455
 20
217.097
 10
153.468
 20
217.033
 97
0
 75
0
 76
1
 98
0
  0
HATCH
  5
50
330
17
100
AcDbEntity
  8
RASTER
 62
7
100
AcDbHatch
 10
0.0
 20
0.0
 30
0.0
210
0.0
220
0.0
230
1.0
  2
SOLID
 70
1
 71
0
 91
1
 92
3
 72
0
 73
1
 93
48
 10
158.599
 20
218.833
 10
158.595
 20
218.768
 10
158.582
 20
218.704
 10
158.561
 20
218.642
 10
158.532
 20
218.583
 10
158.496
 20
218.529
 10
158.453
 20
218.48
 10
158.403
 20
218.437
 10
158.349
 20
218.4
 10
158.29
 20
218.372
 10
158.228
 20
218.351
 10
158.164
 20
218.338
 10
158.099
 20
218.333
 10
158.034
 20
218.338
 10
157.97
 20
218.351
 10
157.908
 20
218.372
 10
157.849
 20
218.4
 10
157.795
 20
218.437
 10
157.745
 20
218.48
 10
157.702
 20
218.529
 10
157.666
 20
218.583
 10
157.637
 20
218.642
 10
157.616
 20
218.704
 10
157.603
 20
218.768
 10
157.599
 20
218.833
 10
157.603
 20
218.899
 10
157.616
 20
218.963
 10
157.637
 20
219.025
 10
157.666
 20
219.083
 10
157.702
 20
219.138
 10
157.745
 20
219.187
 10
157.795
 20
219.23
 10
157.849
 20
219.266
 10
157.908
 20
219.295
 10
157.97
 20
219.316
 10
158.034
 20
219.329
 10
158.099
 20
219.333
 10
158.164
 20
219.329
 10
158.228
 20
219.316
 10
158.29
 20
219.295
 10
158.349
 20
219.266
 10
158.403
 20
219.23
 10
158.453
 20
219.187
 10
158.496
 20
219.138
 10
158.532
 20
219.083
 10
158.561
 20
219.025
 10
158.582
 20
218.963
 10
158.595
 20
218.899
 97
0
 75
0
 76
1
 98
0
  0
HATCH
  5
51
330
17
100
AcDbEntity
  8
RASTER
 62
7
100
AcDbHatch
 10
0.0
 20
0.0
 30
0.0
210
0.0
220
0.0
230
1.0
  2
SOLID
 70
1
 71
0
 91
1
 92
3
 72
0
 73
1
 93
48
 10
174.801
 20
218.833
 10
174.797
 20
218.768
 10
174.784
 20
218.704
 10
174.763
 20
218.642
 10
174.734
 20
218.583
 10
174.698
 20
218.529
 10
174.655
 20
218.48
 10
174.605
 20
218.437
 10
174.551
 20
218.4
 10
174.492
 20
218.372
 10
174.43
 20
218.351
 10
174.366
 20
218.338
 10
174.301
 20
218.333
 10
174.236
 20
218.338
 10
174.172
 20
218.351
 10
174.11
 20
218.372
 10
174.051
 20
218.4
 10
173.997
 20
218.437
 10
173.947
 20
218.48
 10
173.904
 20
218.529
 10
173.868
 20
218.583
 10
173.839
 20
218.642
 10
173.818
 20
218.704
 10
173.805
 20
218.768
 10
173.801
 20
218.833
 10
173.805
 20
218.899
 10
173.818
 20
218.963
 10
173.839
 20
219.025
 10
173.868
 20
219.083
 10
173.904
 20
219.138
 10
173.947
 20
219.187
 10
173.997
 20
219.23
 10
174.051
 20
219.266
 10
174.11
 20
219.295
 10
174.172
 20
219.316
 10
174.236
 20
219.329
 10
174.301
 20
219.333
 10
174.366
 20
219.329
 10
174.43
 20
219.316
 10
174.492
 20
219.295
 10
174.551
 20
219.266
 10
174.605
 20
219.23
 10
174.655
 20
219.187
 10
174.698
 20
219.138
 10
174.734
 20
219.083
 10
174.763
 20
219.025
 10
174.784
 20
218.963
 10
174.797
 20
218.899
 97
0
 75
0
 76
1
 98
0
  0
HATCH
  5
52
330
17
100
AcDbEntity
  8
RASTER
 62
7
100
AcDbHatch
 10
0.0
 20
0.0
 30
0.0
210
0.0
220
0.0
230
1.0
  2
SOLID
 70
1
 71
0
 91
1
 92
3
 72
0
 73
1
 93
48
 10
179.928
 20
216.967
 10
179.924
 20
216.902
 10
179.911
 20
216.838
 10
179.89
 20
216.776
 10
179.861
 20
216.717
 10
179.825
 20
216.663
 10
179.782
 20
216.614
 10
179.732
 20
216.571
 10
179.678
 20
216.534
 10
179.619
 20
216.505
 10
179.557
 20
216.484
 10
179.493
 20
216.472
 10
179.428
 20
216.467
 10
179.363
 20
216.472
 10
179.299
 20
216.484
 10
179.237
 20
216.505
 10
179.178
 20
216.534
 10
179.124
 20
216.571
 10
179.074
 20
216.614
 10
179.031
 20
216.663
 10
178.995
 20
216.717
 10
178.966
 20
216.776
 10
178.945
 20
216.838
 10
178.932
 20
216.902
 10
178.928
 20
216.967
 10
178.932
 20
217.033
 10
178.945
 20
217.097
 10
178.966
 20
217.159
 10
178.995
 20
217.217
 10
179.031
 20
217.272
 10
179.074
 20
217.321
 10
179.124
 20
217.364
 10
179.178
 20
217.4
 10
179.237
 20
217.429
 10
179.299
 20
217.45
 10
179.363
 20
217.463
 10
179.428
 20
217.467
 10
179.493
 20
217.463
 10
179.557
 20
217.45
 10
179.619
 20
217.429
 10
179.678
 20
217.4
 10
179.732
 20
217.364
 10
179.782
 20
217.321
 10
179.825
 20
217.272
 10
179.861
 20
217.217
 10
179.89
 20
217.159
 10
179.911
 20
217.097
 10
179.924
 20
217.033
 97
0
 75
0
 76
1
 98
0
  0
HATCH
  5
53
330
17
100
AcDbEntity
  8
RASTER
 62
7
100
AcDbHatch
 10
0.0
 20
0.0
 30
0.0
210
0.0
220
0.0
230
1.0
  2
SOLID
 70
1
 71
0
 91
1
 92
3
 72
0
 73
1
 93
48
 10
184.653
 20
214.239
 10
184.649
 20
214.174
 10
184.636
 20
214.11
 10
184.615
 20
214.048
 10
184.586
 20
213.989
 10
184.55
 20
213.935
 10
184.506
 20
213.886
 10
184.457
 20
213.843
 10
184.403
 20
213.806
 10
184.344
 20
213.778
 10
184.282
 20
213.756
 10
184.218
 20
213.744
 10
184.153
 20
213.739
 10
184.088
 20
213.744
 10
184.024
 20
213.756
 10
183.962
 20
213.778
 10
183.903
 20
213.806
 10
183.849
 20
213.843
 10
183.799
 20
213.886
 10
183.756
 20
213.935
 10
183.72
 20
213.989
 10
183.691
 20
214.048
 10
183.67
 20
214.11
 10
183.657
 20
214.174
 10
183.653
 20
214.239
 10
183.657
 20
214.305
 10
183.67
 20
214.369
 10
183.691
 20
214.431
 10
183.72
 20
214.489
 10
183.756
 20
214.544
 10
183.799
 20
214.593
 10
183.849
 20
214.636
 10
183.903
 20
214.672
 10
183.962
 20
214.701
 10
184.024
 20
214.722
 10
184.088
 20
214.735
 10
184.153
 20
214.739
 10
184.218
 20
214.735
 10
184.282
 20
214.722
 10
184.344
 20
214.701
 10
184.403
 20
214.672
 10
184.457
 20
214.636
 10
184.506
 20
214.593
 10
184.55
 20
214.544
 10
184.586
 20
214.489
 10
184.615
 20
214.431
 10
184.636
 20
214.369
 10
184.649
 20
214.305
 97
0
 75
0
 76
1
 98
0
  0
HATCH
  5
54
330
17
100
AcDbEntity
  8
RASTER
 62
7
100
AcDbHatch
 10
0.0
 20
0.0
 30
0.0
210
0.0
220
0.0
230
1.0
  2
SOLID
 70
1
 71
0
 91
1
 92
3
 72
0
 73
1
 93
48
 10
192.339
 20
206.553
 10
192.335
 20
206.488
 10
192.322
 20
206.424
 10
192.301
 20
206.362
 10
192.272
 20
206.303
 10
192.236
 20
206.249
 10
192.193
 20
206.199
 10
192.144
 20
206.156
 10
192.089
 20
206.12
 10
192.031
 20
206.091
 10
191.969
 20
206.07
 10
191.905
 20
206.057
 10
191.839
 20
206.053
 10
191.774
 20
206.057
 10
191.71
 20
206.07
 10
191.648
 20
206.091
 10
191.589
 20
206.12
 10
191.535
 20
206.156
 10
191.486
 20
206.199
 10
191.443
 20
206.249
 10
191.406
 20
206.303
 10
191.378
 20
206.362
 10
191.356
 20
206.424
 10
191.344
 20
206.488
 10
191.339
 20
206.553
 10
191.344
 20
206.618
 10
191.356
 20
206.682
 10
191.378
 20
206.744
 10
191.406
 20
206.803
 10
191.443
 20
206.857
 10
191.486
 20
206.906
 10
191.535
 20
206.95
 10
191.589
 20
206.986
 10
191.648
 20
207.015
 10
191.71
 20
207.036
 10
191.774
 20
207.049
 10
191.839
 20
207.053
 10
191.905
 20
207.049
 10
191.969
 20
207.036
 10
192.031
 20
207.015
 10
192.089
 20
206.986
 10
192.144
 20
206.95
 10
192.193
 20
206.906
 10
192.236
 20
206.857
 10
192.272
 20
206.803
 10
192.301
 20
206.744
 10
192.322
 20
206.682
 10
192.335
 20
206.618
 97
0
 75
0
 76
1
 98
0
  0
HATCH
  5
55
330
17
100
AcDbEntity
  8
RASTER
 62
7
100
AcDbHatch
 10
0.0
 20
0.0
 30
0.0
210
0.0
220
0.0
230
1.0
  2
SOLID
 70
1
 71
0
 91
1
 92
3
 72
0
 73
1
 93
48
 10
195.067
 20
201.828
 10
195.063
 20
201.763
 10
195.05
 20
201.699
 10
195.029
 20
201.637
 10
195.0
 20
201.578
 10
194.964
 20
201.524
 10
194.921
 20
201.474
 10
194.872
 20
201.431
 10
194.817
 20
201.395
 10
194.759
 20
201.366
 10
194.697
 20
201.345
 10
194.633
 20
201.332
 10
194.567
 20
201.328
 10
194.502
 20
201.332
 10
194.438
 20
201.345
 10
194.376
 20
201.366
 10
194.317
 20
201.395
 10
194.263
 20
201.431
 10
194.214
 20
201.474
 10
194.171
 20
201.524
 10
194.134
 20
201.578
 10
194.105
 20
201.637
 10
194.084
 20
201.699
 10
194.072
 20
201.763
 10
194.067
 20
201.828
 10
194.072
 20
201.893
 10
194.084
 20
201.957
 10
194.105
 20
202.019
 10
194.134
 20
202.078
 10
194.171
 20
202.132
 10
194.214
 20
202.182
 10
194.263
 20
202.225
 10
194.317
 20
202.261
 10
194.376
 20
202.29
 10
194.438
 20
202.311
 10
194.502
 20
202.324
 10
194.567
 20
202.328
 10
194.633
 20
202.324
 10
194.697
 20
202.311
 10
194.759
 20
202.29
 10
194.817
 20
202.261
 10
194.872
 20
202.225
 10
194.921
 20
202.182
 10
194.964
 20
202.132
 10
195.0
 20
202.078
 10
195.029
 20
202.019
 10
195.05
 20
201.957
 10
195.063
 20
201.893
 97
0
 75
0
 76
1
 98
0
  0
HATCH
  5
56
330
17
100
AcDbEntity
  8
RASTER
 62
7
100
AcDbHatch
 10
0.0
 20
0.0
 30
0.0
210
0.0
220
0.0
230
1.0
  2
SOLID
 70
1
 71
0
 91
1
 92
3
 72
0
 73
1
 93
48
 10
196.933
 20
196.701
 10
196.929
 20
196.636
 10
196.916
 20
196.572
 10
196.895
 20
196.51
 10
196.866
 20
196.451
 10
196.83
 20
196.397
 10
196.787
 20
196.347
 10
196.738
 20
196.304
 10
196.683
 20
196.268
 10
196.625
 20
196.239
 10
196.563
 20
196.218
 10
196.499
 20
196.205
 10
196.433
 20
196.201
 10
196.368
 20
196.205
 10
196.304
 20
196.218
 10
196.242
 20
196.239
 10
196.183
 20
196.268
 10
196.129
 20
196.304
 10
196.08
 20
196.347
 10
196.037
 20
196.397
 10
196.0
 20
196.451
 10
195.972
 20
196.51
 10
195.951
 20
196.572
 10
195.938
 20
196.636
 10
195.933
 20
196.701
 10
195.938
 20
196.766
 10
195.951
 20
196.83
 10
195.972
 20
196.892
 10
196.0
 20
196.951
 10
196.037
 20
197.005
 10
196.08
 20
197.055
 10
196.129
 20
197.098
 10
196.183
 20
197.134
 10
196.242
 20
197.163
 10
196.304
 20
197.184
 10
196.368
 20
197.197
 10
196.433
 20
197.201
 10
196.499
 20
197.197
 10
196.563
 20
197.184
 10
196.625
 20
197.163
 10
196.683
 20
197.134
 10
196.738
 20
197.098
 10
196.787
 20
197.055
 10
196.83
 20
197.005
 10
196.866
 20
196.951
 10
196.895
 20
196.892
 10
196.916
 20
196.83
 10
196.929
 20
196.766
 97
0
 75
0
 76
1
 98
0
  0
HATCH
  5
57
330
17
100
AcDbEntity
  8
RASTER
 62
7
100
AcDbHatch
 10
0.0
 20
0.0
 30
0.0
210
0.0
220
0.0
230
1.0
  2
SOLID
 70
1
 71
0
 91
2
 92
3
 72
0
 73
1
 93
48
 10
171.6
 20
220.0
 10
171.554
 20
219.295
 10
171.416
 20
218.602
 10
171.189
 20
217.934
 10
170.877
 20
217.3
 10
170.484
 20
216.713
 10
170.018
 20
216.182
 10
169.487
 20
215.716
 10
168.9
 20
215.323
 10
168.266
 20
215.011
 10
167.598
 20
214.784
 10
166.905
 20
214.646
 10
166.2
 20
214.6
 10
165.495
 20
214.646
 10
164.802
 20
214.784
 10
164.134
 20
215.011
 10
163.5
 20
215.323
 10
162.913
 20
215.716
 10
162.382
 20
216.182
 10
161.916
 20
216.713
 10
161.523
 20
217.3
 10
161.211
 20
217.934
 10
160.984
 20
218.602
 10
160.846
 20
219.295
 10
160.8
 20
220.0
 10
160.846
 20
220.705
 10
160.984
 20
221.398
 10
161.211
 20
222.066
 10
161.523
 20
222.7
 10
161.916
 20
223.287
 10
162.382
 20
223.818
 10
162.913
 20
224.284
 10
163.5
 20
224.677
 10
164.134
 20
224.989
 10
164.802
 20
225.216
 10
165.495
 20
225.354
 10
166.2
 20
225.4
 10
166.905
 20
225.354
 10
167.598
 20
225.216
 10
168.266
 20
224.989
 10
168.9
 20
224.677
 10
169.487
 20
224.284
 10
170.018
 20
223.818
 10
170.484
 20
223.287
 10
170.877
 20
222.7
 10
171.189
 20
222.066
 10
171.416
 20
221.398
 10
171.554
 20
220.705
 97
0
 92
2
 72
0
 73
1
 93
13
 10
164.266
 20
222.22
 10
164.266
 20
217.83
 10
165.047
 20
217.83
 10
165.047
 20
221.221
 10
165.059
 20
221.221
 10
167.142
 20
217.83
 10
168.134
 20
217.83
 10
168.134
 20
222.22
 10
167.353
 20
222.22
 10
167.353
 20
218.934
 10
167.341
 20
218.934
 10
165.301
 20
222.22
 10
164.266
 20
222.22
 97
0
 75
0
 76
1
 98
0
  0
HATCH
  5
58
330
17
100
AcDbEntity
  8
RASTER
 62
7
100
AcDbHatch
 10
0.0
 20
0.0
 30
0.0
210
0.0
220
0.0
230
1.0
  2
SOLID
 70
1
 71
0
 91
2
 92
3
 72
0
 73
1
 93
48
 10
203.0
 20
188.6
 10
202.954
 20
187.895
 10
202.816
 20
187.202
 10
202.589
 20
186.534
 10
202.277
 20
185.9
 10
201.884
 20
185.313
 10
201.418
 20
184.782
 10
200.887
 20
184.316
 10
200.3
 20
183.923
 10
199.666
 20
183.611
 10
198.998
 20
183.384
 10
198.305
 20
183.246
 10
197.6
 20
183.2
 10
196.895
 20
183.246
 10
196.202
 20
183.384
 10
195.534
 20
183.611
 10
194.9
 20
183.923
 10
194.313
 20
184.316
 10
193.782
 20
184.782
 10
193.316
 20
185.313
 10
192.923
 20
185.9
 10
192.611
 20
186.534
 10
192.384
 20
187.202
 10
192.246
 20
187.895
 10
192.2
 20
188.6
 10
192.246
 20
189.305
 10
192.384
 20
189.998
 10
192.611
 20
190.666
 10
192.923
 20
191.3
 10
193.316
 20
191.887
 10
193.782
 20
192.418
 10
194.313
 20
192.884
 10
194.9
 20
193.277
 10
195.534
 20
193.589
 10
196.202
 20
193.816
 10
196.895
 20
193.954
 10
197.6
 20
194.0
 10
198.305
 20
193.954
 10
198.998
 20
193.816
 10
199.666
 20
193.589
 10
200.3
 20
193.277
 10
200.887
 20
192.884
 10
201.418
 20
192.418
 10
201.884
 20
191.887
 10
202.277
 20
191.3
 10
202.589
 20
190.666
 10
202.816
 20
189.998
 10
202.954
 20
189.305
 97
0
 92
2
 72
0
 73
1
 93
13
 10
196.193
 20
190.82
 10
196.193
 20
186.43
 10
199.212
 20
186.43
 10
199.212
 20
187.124
 10
196.974
 20
187.124
 10
196.974
 20
188.364
 10
198.989
 20
188.364
 10
198.989
 20
189.022
 10
196.974
 20
189.022
 10
196.974
 20
190.138
 10
199.1
 20
190.138
 10
199.1
 20
190.82
 10
196.193
 20
190.82
 97
0
 75
0
 76
1
 98
0
  0
HATCH
  5
59
330
17
100
AcDbEntity
  8
RASTER
 62
7
100
AcDbHatch
 10
0.0
 20
0.0
 30
0.0
210
0.0
220
0.0
230
1.0
  2
SOLID
 70
1
 71
0
 91
2
 92
3
 72
0
 73
1
 93
48
 10
171.6
 20
157.2
 10
171.554
 20
156.495
 10
171.416
 20
155.802
 10
171.189
 20
155.134
 10
170.877
 20
154.5
 10
170.484
 20
153.913
 10
170.018
 20
153.382
 10
169.487
 20
152.916
 10
168.9
 20
152.523
 10
168.266
 20
152.211
 10
167.598
 20
151.984
 10
166.905
 20
151.846
 10
166.2
 20
151.8
 10
165.495
 20
151.846
 10
164.802
 20
151.984
 10
164.134
 20
152.211
 10
163.5
 20
152.523
 10
162.913
 20
152.916
 10
162.382
 20
153.382
 10
161.916
 20
153.913
 10
161.523
 20
154.5
 10
161.211
 20
155.134
 10
160.984
 20
155.802
 10
160.846
 20
156.495
 10
160.8
 20
157.2
 10
160.846
 20
157.905
 10
160.984
 20
158.598
 10
161.211
 20
159.266
 10
161.523
 20
159.9
 10
161.916
 20
160.487
 10
162.382
 20
161.018
 10
162.913
 20
161.484
 10
163.5
 20
161.877
 10
164.134
 20
162.189
 10
164.802
 20
162.416
 10
165.495
 20
162.554
 10
166.2
 20
162.6
 10
166.905
 20
162.554
 10
167.598
 20
162.416
 10
168.266
 20
162.189
 10
168.9
 20
161.877
 10
169.487
 20
161.484
 10
170.018
 20
161.018
 10
170.484
 20
160.487
 10
170.877
 20
159.9
 10
171.189
 20
159.266
 10
171.416
 20
158.598
 10
171.554
 20
157.905
 97
0
 92
2
 72
0
 73
1
 93
323
 10
167.142
 20
158.502
 10
167.651
 20
159.06
 10
167.586
 20
159.117
 10
167.518
 20
159.17
 10
167.448
 20
159.22
 10
167.374
 20
159.266
 10
167.298
 20
159.308
 10
167.219
 20
159.347
 10
167.137
 20
159.382
 10
167.052
 20
159.413
 10
166.967
 20
159.441
 10
166.881
 20
159.465
 10
166.796
 20
159.485
 10
166.711
 20
159.502
 10
166.626
 20
159.515
 10
166.542
 20
159.524
 10
166.457
 20
159.529
 10
166.374
 20
159.531
 10
166.299
 20
159.53
 10
166.225
 20
159.526
 10
166.152
 20
159.52
 10
166.078
 20
159.512
 10
166.005
 20
159.501
 10
165.932
 20
159.488
 10
165.86
 20
159.472
 10
165.788
 20
159.454
 10
165.717
 20
159.433
 10
165.647
 20
159.41
 10
165.58
 20
159.384
 10
165.515
 20
159.356
 10
165.452
 20
159.325
 10
165.39
 20
159.292
 10
165.331
 20
159.256
 10
165.273
 20
159.218
 10
165.218
 20
159.177
 10
165.165
 20
159.134
 10
165.116
 20
159.088
 10
165.069
 20
159.039
 10
165.024
 20
158.988
 10
164.982
 20
158.934
 10
164.944
 20
158.877
 10
164.907
 20
158.818
 10
164.875
 20
158.756
 10
164.846
 20
158.691
 10
164.822
 20
158.624
 10
164.803
 20
158.553
 10
164.787
 20
158.48
 10
164.777
 20
158.403
 10
164.77
 20
158.324
 10
164.768
 20
158.242
 10
164.769
 20
158.166
 10
164.774
 20
158.093
 10
164.782
 20
158.023
 10
164.793
 20
157.957
 10
164.807
 20
157.894
 10
164.824
 20
157.834
 10
164.844
 20
157.777
 10
164.867
 20
157.724
 10
164.893
 20
157.673
 10
164.92
 20
157.624
 10
164.95
 20
157.577
 10
164.981
 20
157.532
 10
165.014
 20
157.49
 10
165.049
 20
157.449
 10
165.086
 20
157.41
 10
165.124
 20
157.374
 10
165.164
 20
157.339
 10
165.206
 20
157.306
 10
165.249
 20
157.274
 10
165.292
 20
157.245
 10
165.338
 20
157.217
 10
165.384
 20
157.191
 10
165.432
 20
157.167
 10
165.481
 20
157.144
 10
165.53
 20
157.123
 10
165.58
 20
157.102
 10
165.63
 20
157.083
 10
165.679
 20
157.064
 10
165.729
 20
157.045
 10
165.778
 20
157.028
 10
165.828
 20
157.011
 10
165.878
 20
156.995
 10
165.928
 20
156.978
 10
165.979
 20
156.962
 10
166.028
 20
156.945
 10
166.078
 20
156.929
 10
166.126
 20
156.913
 10
166.174
 20
156.897
 10
166.221
 20
156.881
 10
166.268
 20
156.865
 10
166.314
 20
156.849
 10
166.358
 20
156.833
 10
166.401
 20
156.816
 10
166.442
 20
156.798
 10
166.481
 20
156.779
 10
166.519
 20
156.76
 10
166.556
 20
156.74
 10
166.591
 20
156.72
 10
166.624
 20
156.698
 10
166.655
 20
156.676
 10
166.685
 20
156.652
 10
166.713
 20
156.628
 10
166.739
 20
156.603
 10
166.764
 20
156.577
 10
166.787
 20
156.549
 10
166.808
 20
156.521
 10
166.826
 20
156.492
 10
166.843
 20
156.46
 10
166.857
 20
156.427
 10
166.868
 20
156.392
 10
166.877
 20
156.355
 10
166.883
 20
156.316
 10
166.887
 20
156.275
 10
166.888
 20
156.233
 10
166.887
 20
156.189
 10
166.884
 20
156.147
 10
166.878
 20
156.106
 10
166.87
 20
156.068
 10
166.86
 20
156.031
 10
166.848
 20
155.996
 10
166.834
 20
155.963
 10
166.817
 20
155.932
 10
166.798
 20
155.903
 10
166.779
 20
155.874
 10
166.757
 20
155.847
 10
166.735
 20
155.821
 10
166.711
 20
155.797
 10
166.686
 20
155.773
 10
166.659
 20
155.751
 10
166.631
 20
155.731
 10
166.602
 20
155.711
 10
166.572
 20
155.693
 10
166.541
 20
155.677
 10
166.509
 20
155.662
 10
166.477
 20
155.648
 10
166.443
 20
155.636
 10
166.409
 20
155.625
 10
166.374
 20
155.616
 10
166.338
 20
155.608
 10
166.303
 20
155.601
 10
166.268
 20
155.595
 10
166.233
 20
155.59
 10
166.198
 20
155.587
 10
166.163
 20
155.584
 10
166.129
 20
155.582
 10
166.095
 20
155.582
 10
166.029
 20
155.584
 10
165.964
 20
155.59
 10
165.898
 20
155.6
 10
165.832
 20
155.614
 10
165.765
 20
155.633
 10
165.699
 20
155.655
 10
165.632
 20
155.681
 10
165.564
 20
155.712
 10
165.499
 20
155.746
 10
165.436
 20
155.783
 10
165.377
 20
155.823
 10
165.322
 20
155.865
 10
165.27
 20
155.911
 10
165.221
 20
155.96
 10
165.176
 20
156.011
 10
165.134
 20
156.065
 10
164.576
 20
155.545
 10
164.643
 20
155.469
 10
164.715
 20
155.399
 10
164.792
 20
155.333
 10
164.873
 20
155.273
 10
164.959
 20
155.216
 10
165.05
 20
155.165
 10
165.145
 20
155.118
 10
165.245
 20
155.077
 10
165.348
 20
155.039
 10
165.451
 20
155.007
 10
165.555
 20
154.98
 10
165.659
 20
154.958
 10
165.764
 20
154.941
 10
165.869
 20
154.928
 10
165.976
 20
154.921
 10
166.082
 20
154.918
 10
166.162
 20
154.92
 10
166.241
 20
154.924
 10
166.32
 20
154.931
 10
166.397
 20
154.94
 10
166.473
 20
154.952
 10
166.548
 20
154.967
 10
166.623
 20
154.985
 10
166.696
 20
155.005
 10
166.768
 20
155.028
 10
166.837
 20
155.054
 10
166.904
 20
155.083
 10
166.969
 20
155.114
 10
167.031
 20
155.148
 10
167.091
 20
155.184
 10
167.149
 20
155.224
 10
167.204
 20
155.266
 10
167.257
 20
155.31
 10
167.307
 20
155.358
 10
167.355
 20
155.408
 10
167.4
 20
155.462
 10
167.442
 20
155.518
 10
167.481
 20
155.577
 10
167.518
 20
155.638
 10
167.552
 20
155.703
 10
167.582
 20
155.77
 10
167.609
 20
155.84
 10
167.631
 20
155.913
 10
167.649
 20
155.989
 10
167.663
 20
156.067
 10
167.674
 20
156.149
 10
167.68
 20
156.233
 10
167.682
 20
156.32
 10
167.68
 20
156.399
 10
167.674
 20
156.474
 10
167.665
 20
156.547
 10
167.652
 20
156.616
 10
167.635
 20
156.681
 10
167.614
 20
156.744
 10
167.589
 20
156.803
 10
167.561
 20
156.859
 10
167.53
 20
156.912
 10
167.496
 20
156.963
 10
167.461
 20
157.011
 10
167.423
 20
157.057
 10
167.383
 20
157.101
 10
167.341
 20
157.143
 10
167.297
 20
157.182
 10
167.251
 20
157.219
 10
167.203
 20
157.253
 10
167.154
 20
157.286
 10
167.104
 20
157.318
 10
167.052
 20
157.347
 10
167.0
 20
157.375
 10
166.946
 20
157.401
 10
166.891
 20
157.425
 10
166.836
 20
157.448
 10
166.779
 20
157.469
 10
166.723
 20
157.49
 10
166.668
 20
157.51
 10
166.613
 20
157.53
 10
166.559
 20
157.549
 10
166.505
 20
157.568
 10
166.451
 20
157.586
 10
166.398
 20
157.603
 10
166.352
 20
157.617
 10
166.307
 20
157.631
 10
166.263
 20
157.645
 10
166.22
 20
157.659
 10
166.178
 20
157.673
 10
166.137
 20
157.687
 10
166.097
 20
157.701
 10
166.057
 20
157.715
 10
166.019
 20
157.729
 10
165.983
 20
157.744
 10
165.948
 20
157.759
 10
165.914
 20
157.775
 10
165.882
 20
157.792
 10
165.851
 20
157.809
 10
165.822
 20
157.826
 10
165.794
 20
157.845
 10
165.768
 20
157.864
 10
165.743
 20
157.884
 10
165.719
 20
157.905
 10
165.697
 20
157.927
 10
165.676
 20
157.95
 10
165.657
 20
157.974
 10
165.64
 20
157.999
 10
165.623
 20
158.025
 10
165.609
 20
158.052
 10
165.596
 20
158.08
 10
165.586
 20
158.11
 10
165.577
 20
158.141
 10
165.57
 20
158.173
 10
165.565
 20
158.207
 10
165.562
 20
158.242
 10
165.561
 20
158.279
 10
165.563
 20
158.318
 10
165.566
 20
158.356
 10
165.571
 20
158.393
 10
165.579
 20
158.428
 10
165.589
 20
158.462
 10
165.602
 20
158.494
 10
165.616
 20
158.525
 10
165.633
 20
158.555
 10
165.651
 20
158.583
 10
165.671
 20
158.609
 10
165.692
 20
158.635
 10
165.714
 20
158.659
 10
165.738
 20
158.681
 10
165.762
 20
158.702
 10
165.788
 20
158.722
 10
165.816
 20
158.741
 10
165.844
 20
158.758
 10
165.873
 20
158.774
 10
165.903
 20
158.789
 10
165.933
 20
158.803
 10
165.965
 20
158.815
 10
165.997
 20
158.827
 10
166.03
 20
158.837
 10
166.064
 20
158.846
 10
166.098
 20
158.854
 10
166.132
 20
158.861
 10
166.166
 20
158.867
 10
166.2
 20
158.872
 10
166.234
 20
158.875
 10
166.268
 20
158.878
 10
166.302
 20
158.88
 10
166.336
 20
158.88
 10
166.394
 20
158.879
 10
166.451
 20
158.873
 10
166.508
 20
158.865
 10
166.565
 20
158.853
 10
166.622
 20
158.838
 10
166.679
 20
158.819
 10
166.735
 20
158.797
 10
166.792
 20
158.772
 10
166.847
 20
158.744
 10
166.899
 20
158.714
 10
166.947
 20
158.683
 10
166.993
 20
158.65
 10
167.035
 20
158.615
 10
167.074
 20
158.579
 10
167.11
 20
158.541
 10
167.142
 20
158.502
 97
0
 75
0
 76
1
 98
0
  0
HATCH
  5
5A
330
17
100
AcDbEntity
  8
RASTER
 62
7
100
AcDbHatch
 10
0.0
 20
0.0
 30
0.0
210
0.0
220
0.0
230
1.0
  2
SOLID
 70
1
 71
0
 91
2
 92
3
 72
0
 73
1
 93
48
 10
140.2
 20
188.6
 10
140.154
 20
187.895
 10
140.016
 20
187.202
 10
139.789
 20
186.534
 10
139.477
 20
185.9
 10
139.084
 20
185.313
 10
138.618
 20
184.782
 10
138.087
 20
184.316
 10
137.5
 20
183.923
 10
136.866
 20
183.611
 10
136.198
 20
183.384
 10
135.505
 20
183.246
 10
134.8
 20
183.2
 10
134.095
 20
183.246
 10
133.402
 20
183.384
 10
132.734
 20
183.611
 10
132.1
 20
183.923
 10
131.513
 20
184.316
 10
130.982
 20
184.782
 10
130.516
 20
185.313
 10
130.123
 20
185.9
 10
129.811
 20
186.534
 10
129.584
 20
187.202
 10
129.446
 20
187.895
 10
129.4
 20
188.6
 10
129.446
 20
189.305
 10
129.584
 20
189.998
 10
129.811
 20
190.666
 10
130.123
 20
191.3
 10
130.516
 20
191.887
 10
130.982
 20
192.418
 10
131.513
 20
192.884
 10
132.1
 20
193.277
 10
132.734
 20
193.589
 10
133.402
 20
193.816
 10
134.095
 20
193.954
 10
134.8
 20
194.0
 10
135.505
 20
193.954
 10
136.198
 20
193.816
 10
136.866
 20
193.589
 10
137.5
 20
193.277
 10
138.087
 20
192.884
 10
138.618
 20
192.418
 10
139.084
 20
191.887
 10
139.477
 20
191.3
 10
139.789
 20
190.666
 10
140.016
 20
189.998
 10
140.154
 20
189.305
 97
0
 92
2
 72
0
 73
1
 93
17
 10
131.725
 20
190.82
 10
133.008
 20
186.43
 10
133.765
 20
186.43
 10
134.794
 20
189.722
 10
134.806
 20
189.722
 10
135.835
 20
186.43
 10
136.592
 20
186.43
 10
137.875
 20
190.82
 10
137.044
 20
190.82
 10
136.176
 20
187.596
 10
136.164
 20
187.596
 10
135.215
 20
190.82
 10
134.409
 20
190.82
 10
133.442
 20
187.596
 10
133.43
 20
187.596
 10
132.58
 20
190.82
 10
131.725
 20
190.82
 97
0
 75
0
 76
1
 98
0
  0
HATCH
  5
5B
330
17
100
AcDbEntity
  8
RASTER
 62
7
100
AcDbHatch
 10
0.0
 20
0.0
 30
0.0
210
0.0
220
0.0
230
1.0
  2
SOLID
 70
1
 71
0
 91
9
 92
3
 72
0
 73
1
 93
50
 10
192.736
 20
169.321
 10
192.481
 20
168.975
 10
192.222
 20
168.633
 10
191.958
 20
168.294
 10
191.69
 20
167.958
 10
191.418
 20
167.626
 10
191.141
 20
167.298
 10
190.86
 20
166.973
 10
190.575
 20
166.653
 10
190.286
 20
166.335
 10
189.992
 20
166.022
 10
189.695
 20
165.712
 10
189.393
 20
165.407
 10
189.088
 20
165.105
 10
188.778
 20
164.808
 10
188.465
 20
164.514
 10
188.147
 20
164.225
 10
187.827
 20
163.94
 10
187.502
 20
163.659
 10
187.174
 20
163.382
 10
186.842
 20
163.11
 10
186.506
 20
162.842
 10
186.167
 20
162.578
 10
185.825
 20
162.319
 10
185.479
 20
162.064
 10
169.256
 20
184.393
 10
169.311
 20
184.433
 10
169.366
 20
184.475
 10
169.419
 20
184.516
 10
169.472
 20
184.559
 10
169.525
 20
184.602
 10
169.577
 20
184.646
 10
169.629
 20
184.69
 10
169.679
 20
184.736
 10
169.73
 20
184.782
 10
169.779
 20
184.828
 10
169.829
 20
184.875
 10
169.877
 20
184.923
 10
169.925
 20
184.971
 10
169.972
 20
185.021
 10
170.018
 20
185.07
 10
170.064
 20
185.121
 10
170.11
 20
185.171
 10
170.154
 20
185.223
 10
170.198
 20
185.275
 10
170.241
 20
185.328
 10
170.284
 20
185.381
 10
170.325
 20
185.434
 10
170.367
 20
185.489
 10
170.407
 20
185.544
 97
0
 92
2
 72
0
 73
1
 93
56
 10
184.666
 20
170.056
 10
184.855
 20
170.481
 10
184.927
 20
171.033
 10
185.116
 20
171.193
 10
185.263
 20
171.384
 10
185.356
 20
171.618
 10
185.377
 20
171.756
 10
185.354
 20
172.064
 10
185.167
 20
172.489
 10
185.303
 20
172.882
 10
185.312
 20
173.296
 10
185.241
 20
173.541
 10
185.074
 20
173.828
 10
184.787
 20
174.114
 10
184.553
 20
174.255
 10
184.234
 20
174.35
 10
183.735
 20
174.325
 10
183.427
 20
174.202
 10
183.214
 20
174.051
 10
182.247
 20
173.107
 10
182.148
 20
173.19
 10
181.727
 20
173.921
 10
181.674
 20
173.936
 10
181.635
 20
173.902
 10
181.495
 20
173.519
 10
181.387
 20
173.428
 10
181.319
 20
173.498
 10
181.136
 20
173.976
 10
181.06
 20
174.012
 10
181.038
 20
173.966
 10
181.149
 20
172.351
 10
181.196
 20
172.293
 10
181.257
 20
172.308
 10
181.425
 20
172.648
 10
181.536
 20
172.791
 10
181.608
 20
172.765
 10
181.667
 20
172.584
 10
181.631
 20
172.51
 10
180.909
 20
171.809
 10
180.69
 20
171.522
 10
180.513
 20
171.108
 10
180.482
 20
170.704
 10
180.513
 20
170.449
 10
180.639
 20
170.13
 10
180.856
 20
169.843
 10
181.164
 20
169.618
 10
181.642
 20
169.478
 10
182.077
 20
169.505
 10
182.513
 20
169.671
 10
182.736
 20
169.531
 10
183.034
 20
169.416
 10
183.342
 20
169.378
 10
183.65
 20
169.386
 10
183.969
 20
169.478
 10
184.245
 20
169.624
 10
184.666
 20
170.056
 97
0
 92
2
 72
0
 73
1
 93
323
 10
184.88
 20
166.155
 10
184.869
 20
166.398
 10
184.841
 20
166.396
 10
184.814
 20
166.393
 10
184.786
 20
166.388
 10
184.759
 20
166.382
 10
184.732
 20
166.374
 10
184.705
 20
166.365
 10
184.678
 20
166.355
 10
184.652
 20
166.342
 10
184.626
 20
166.329
 10
184.601
 20
166.315
 10
184.577
 20
166.3
 10
184.554
 20
166.285
 10
184.532
 20
166.268
 10
184.51
 20
166.251
 10
184.49
 20
166.233
 10
184.47
 20
166.214
 10
184.454
 20
166.197
 10
184.438
 20
166.18
 10
184.422
 20
166.161
 10
184.407
 20
166.143
 10
184.393
 20
166.123
 10
184.38
 20
166.104
 10
184.367
 20
166.084
 10
184.354
 20
166.063
 10
184.343
 20
166.042
 10
184.332
 20
166.021
 10
184.323
 20
166.0
 10
184.314
 20
165.979
 10
184.307
 20
165.957
 10
184.3
 20
165.936
 10
184.295
 20
165.914
 10
184.291
 20
165.892
 10
184.287
 20
165.87
 10
184.285
 20
165.848
 10
184.284
 20
165.826
 10
184.285
 20
165.804
 10
184.286
 20
165.783
 10
184.289
 20
165.761
 10
184.293
 20
165.739
 10
184.298
 20
165.717
 10
184.305
 20
165.696
 10
184.313
 20
165.674
 10
184.323
 20
165.654
 10
184.335
 20
165.633
 10
184.348
 20
165.613
 10
184.363
 20
165.593
 10
184.38
 20
165.573
 10
184.398
 20
165.554
 10
184.416
 20
165.537
 10
184.433
 20
165.521
 10
184.451
 20
165.507
 10
184.469
 20
165.495
 10
184.486
 20
165.484
 10
184.504
 20
165.474
 10
184.521
 20
165.465
 10
184.539
 20
165.459
 10
184.556
 20
165.453
 10
184.574
 20
165.448
 10
184.591
 20
165.444
 10
184.608
 20
165.441
 10
184.626
 20
165.439
 10
184.643
 20
165.437
 10
184.66
 20
165.437
 10
184.677
 20
165.437
 10
184.694
 20
165.439
 10
184.711
 20
165.44
 10
184.728
 20
165.443
 10
184.745
 20
165.446
 10
184.762
 20
165.45
 10
184.778
 20
165.455
 10
184.795
 20
165.46
 10
184.811
 20
165.466
 10
184.827
 20
165.473
 10
184.843
 20
165.479
 10
184.859
 20
165.486
 10
184.875
 20
165.493
 10
184.89
 20
165.5
 10
184.905
 20
165.508
 10
184.921
 20
165.515
 10
184.936
 20
165.523
 10
184.951
 20
165.531
 10
184.966
 20
165.538
 10
184.981
 20
165.546
 10
184.996
 20
165.553
 10
185.011
 20
165.561
 10
185.026
 20
165.568
 10
185.04
 20
165.575
 10
185.054
 20
165.582
 10
185.068
 20
165.589
 10
185.082
 20
165.595
 10
185.096
 20
165.601
 10
185.109
 20
165.606
 10
185.123
 20
165.611
 10
185.136
 20
165.616
 10
185.148
 20
165.619
 10
185.161
 20
165.623
 10
185.174
 20
165.625
 10
185.186
 20
165.627
 10
185.198
 20
165.629
 10
185.21
 20
165.63
 10
185.222
 20
165.63
 10
185.233
 20
165.629
 10
185.245
 20
165.628
 10
185.256
 20
165.627
 10
185.267
 20
165.624
 10
185.278
 20
165.621
 10
185.289
 20
165.616
 10
185.299
 20
165.611
 10
185.31
 20
165.605
 10
185.32
 20
165.597
 10
185.33
 20
165.589
 10
185.34
 20
165.579
 10
185.35
 20
165.569
 10
185.359
 20
165.559
 10
185.367
 20
165.548
 10
185.374
 20
165.538
 10
185.38
 20
165.527
 10
185.385
 20
165.516
 10
185.389
 20
165.505
 10
185.392
 20
165.495
 10
185.395
 20
165.484
 10
185.397
 20
165.473
 10
185.398
 20
165.462
 10
185.399
 20
165.451
 10
185.399
 20
165.44
 10
185.399
 20
165.428
 10
185.397
 20
165.417
 10
185.396
 20
165.406
 10
185.394
 20
165.395
 10
185.391
 20
165.384
 10
185.388
 20
165.373
 10
185.384
 20
165.363
 10
185.379
 20
165.352
 10
185.375
 20
165.342
 10
185.369
 20
165.331
 10
185.363
 20
165.321
 10
185.357
 20
165.311
 10
185.351
 20
165.302
 10
185.344
 20
165.292
 10
185.337
 20
165.283
 10
185.33
 20
165.275
 10
185.323
 20
165.266
 10
185.315
 20
165.258
 10
185.307
 20
165.25
 10
185.292
 20
165.236
 10
185.276
 20
165.222
 10
185.258
 20
165.209
 10
185.24
 20
165.197
 10
185.221
 20
165.186
 10
185.2
 20
165.176
 10
185.179
 20
165.167
 10
185.157
 20
165.159
 10
185.134
 20
165.151
 10
185.111
 20
165.146
 10
185.089
 20
165.141
 10
185.066
 20
165.138
 10
185.044
 20
165.137
 10
185.022
 20
165.137
 10
185.0
 20
165.138
 10
184.978
 20
165.141
 10
184.969
 20
164.895
 10
185.002
 20
164.893
 10
185.034
 20
164.894
 10
185.067
 20
164.896
 10
185.099
 20
164.901
 10
185.132
 20
164.908
 10
185.164
 20
164.917
 10
185.197
 20
164.928
 10
185.229
 20
164.941
 10
185.261
 20
164.956
 10
185.292
 20
164.972
 10
185.322
 20
164.99
 10
185.35
 20
165.008
 10
185.378
 20
165.028
 10
185.405
 20
165.049
 10
185.431
 20
165.072
 10
185.456
 20
165.096
 10
185.474
 20
165.114
 10
185.491
 20
165.133
 10
185.507
 20
165.153
 10
185.523
 20
165.172
 10
185.537
 20
165.193
 10
185.551
 20
165.213
 10
185.564
 20
165.234
 10
185.576
 20
165.256
 10
185.587
 20
165.277
 10
185.597
 20
165.299
 10
185.606
 20
165.321
 10
185.614
 20
165.343
 10
185.62
 20
165.365
 10
185.625
 20
165.387
 10
185.63
 20
165.409
 10
185.633
 20
165.431
 10
185.635
 20
165.453
 10
185.635
 20
165.476
 10
185.634
 20
165.498
 10
185.633
 20
165.52
 10
185.629
 20
165.543
 10
185.625
 20
165.565
 10
185.619
 20
165.587
 10
185.612
 20
165.61
 10
185.604
 20
165.632
 10
185.594
 20
165.654
 10
185.582
 20
165.676
 10
185.569
 20
165.697
 10
185.555
 20
165.718
 10
185.538
 20
165.739
 10
185.521
 20
165.76
 10
185.501
 20
165.78
 10
185.483
 20
165.798
 10
185.464
 20
165.814
 10
185.446
 20
165.828
 10
185.427
 20
165.841
 10
185.408
 20
165.852
 10
185.389
 20
165.862
 10
185.37
 20
165.869
 10
185.351
 20
165.876
 10
185.331
 20
165.881
 10
185.312
 20
165.885
 10
185.293
 20
165.888
 10
185.274
 20
165.889
 10
185.255
 20
165.89
 10
185.236
 20
165.89
 10
185.217
 20
165.889
 10
185.198
 20
165.887
 10
185.179
 20
165.884
 10
185.16
 20
165.88
 10
185.142
 20
165.876
 10
185.123
 20
165.871
 10
185.105
 20
165.865
 10
185.087
 20
165.859
 10
185.069
 20
165.852
 10
185.051
 20
165.845
 10
185.033
 20
165.837
 10
185.016
 20
165.829
 10
184.998
 20
165.821
 10
184.981
 20
165.813
 10
184.965
 20
165.805
 10
184.948
 20
165.796
 10
184.932
 20
165.788
 10
184.916
 20
165.78
 10
184.902
 20
165.773
 10
184.889
 20
165.766
 10
184.875
 20
165.759
 10
184.862
 20
165.752
 10
184.85
 20
165.746
 10
184.837
 20
165.74
 10
184.825
 20
165.734
 10
184.812
 20
165.728
 10
184.801
 20
165.722
 10
184.789
 20
165.718
 10
184.777
 20
165.713
 10
184.766
 20
165.709
 10
184.755
 20
165.705
 10
184.744
 20
165.702
 10
184.733
 20
165.7
 10
184.723
 20
165.698
 10
184.712
 20
165.696
 10
184.702
 20
165.695
 10
184.692
 20
165.694
 10
184.682
 20
165.694
 10
184.672
 20
165.695
 10
184.662
 20
165.696
 10
184.652
 20
165.697
 10
184.643
 20
165.7
 10
184.633
 20
165.702
 10
184.624
 20
165.706
 10
184.615
 20
165.71
 10
184.606
 20
165.716
 10
184.597
 20
165.721
 10
184.588
 20
165.728
 10
184.579
 20
165.735
 10
184.571
 20
165.743
 10
184.562
 20
165.753
 10
184.554
 20
165.762
 10
184.547
 20
165.772
 10
184.541
 20
165.782
 10
184.535
 20
165.792
 10
184.531
 20
165.802
 10
184.527
 20
165.812
 10
184.524
 20
165.823
 10
184.522
 20
165.833
 10
184.52
 20
165.844
 10
184.519
 20
165.854
 10
184.519
 20
165.865
 10
184.519
 20
165.875
 10
184.52
 20
165.886
 10
184.521
 20
165.896
 10
184.523
 20
165.907
 10
184.526
 20
165.917
 10
184.529
 20
165.928
 10
184.532
 20
165.938
 10
184.536
 20
165.948
 10
184.54
 20
165.958
 10
184.545
 20
165.968
 10
184.55
 20
165.978
 10
184.556
 20
165.987
 10
184.562
 20
165.997
 10
184.568
 20
166.006
 10
184.574
 20
166.016
 10
184.581
 20
166.024
 10
184.588
 20
166.033
 10
184.595
 20
166.041
 10
184.603
 20
166.05
 10
184.61
 20
166.057
 10
184.624
 20
166.07
 10
184.638
 20
166.082
 10
184.653
 20
166.093
 10
184.669
 20
166.103
 10
184.685
 20
166.113
 10
184.702
 20
166.122
 10
184.72
 20
166.13
 10
184.739
 20
166.137
 10
184.758
 20
166.143
 10
184.776
 20
166.148
 10
184.795
 20
166.152
 10
184.812
 20
166.155
 10
184.83
 20
166.156
 10
184.847
 20
166.157
 10
184.864
 20
166.157
 10
184.88
 20
166.155
 97
0
 92
2
 72
0
 73
1
 93
9
 10
185.33
 20
166.712
 10
186.176
 20
165.867
 10
186.354
 20
166.045
 10
185.508
 20
166.89
 10
185.815
 20
167.197
 10
185.66
 20
167.353
 10
184.868
 20
166.561
 10
185.023
 20
166.405
 10
185.33
 20
166.712
 97
0
 92
2
 72
0
 73
1
 93
129
 10
186.225
 20
166.923
 10
186.255
 20
166.895
 10
186.285
 20
166.868
 10
186.316
 20
166.843
 10
186.348
 20
166.821
 10
186.38
 20
166.8
 10
186.412
 20
166.781
 10
186.446
 20
166.764
 10
186.48
 20
166.749
 10
186.514
 20
166.736
 10
186.549
 20
166.724
 10
186.583
 20
166.715
 10
186.618
 20
166.707
 10
186.653
 20
166.701
 10
186.688
 20
166.697
 10
186.723
 20
166.694
 10
186.758
 20
166.694
 10
186.794
 20
166.695
 10
186.829
 20
166.698
 10
186.864
 20
166.703
 10
186.899
 20
166.71
 10
186.934
 20
166.718
 10
186.968
 20
166.729
 10
187.003
 20
166.741
 10
187.037
 20
166.755
 10
187.071
 20
166.77
 10
187.104
 20
166.788
 10
187.137
 20
166.807
 10
187.169
 20
166.828
 10
187.2
 20
166.851
 10
187.231
 20
166.876
 10
187.261
 20
166.902
 10
187.29
 20
166.93
 10
187.319
 20
166.96
 10
187.345
 20
166.99
 10
187.37
 20
167.021
 10
187.393
 20
167.053
 10
187.415
 20
167.085
 10
187.434
 20
167.118
 10
187.452
 20
167.151
 10
187.468
 20
167.185
 10
187.482
 20
167.22
 10
187.494
 20
167.254
 10
187.505
 20
167.289
 10
187.513
 20
167.324
 10
187.52
 20
167.359
 10
187.525
 20
167.394
 10
187.528
 20
167.43
 10
187.53
 20
167.465
 10
187.529
 20
167.501
 10
187.527
 20
167.536
 10
187.523
 20
167.571
 10
187.517
 20
167.606
 10
187.51
 20
167.641
 10
187.5
 20
167.676
 10
187.489
 20
167.71
 10
187.475
 20
167.745
 10
187.46
 20
167.779
 10
187.443
 20
167.812
 10
187.424
 20
167.845
 10
187.404
 20
167.877
 10
187.381
 20
167.908
 10
187.356
 20
167.939
 10
187.33
 20
167.969
 10
187.301
 20
167.999
 10
187.271
 20
168.028
 10
187.24
 20
168.055
 10
187.209
 20
168.08
 10
187.177
 20
168.103
 10
187.145
 20
168.125
 10
187.112
 20
168.144
 10
187.078
 20
168.161
 10
187.044
 20
168.176
 10
187.01
 20
168.189
 10
186.975
 20
168.2
 10
186.941
 20
168.21
 10
186.906
 20
168.217
 10
186.872
 20
168.223
 10
186.837
 20
168.227
 10
186.802
 20
168.228
 10
186.767
 20
168.228
 10
186.732
 20
168.226
 10
186.697
 20
168.223
 10
186.662
 20
168.217
 10
186.628
 20
168.21
 10
186.594
 20
168.2
 10
186.559
 20
168.189
 10
186.525
 20
168.176
 10
186.491
 20
168.162
 10
186.457
 20
168.145
 10
186.424
 20
168.127
 10
186.392
 20
168.107
 10
186.36
 20
168.086
 10
186.329
 20
168.062
 10
186.298
 20
168.037
 10
186.268
 20
168.011
 10
186.238
 20
167.982
 10
186.21
 20
167.953
 10
186.183
 20
167.923
 10
186.159
 20
167.893
 10
186.136
 20
167.861
 10
186.114
 20
167.83
 10
186.095
 20
167.797
 10
186.077
 20
167.765
 10
186.061
 20
167.731
 10
186.046
 20
167.697
 10
186.033
 20
167.663
 10
186.023
 20
167.629
 10
186.013
 20
167.595
 10
186.006
 20
167.561
 10
186.001
 20
167.526
 10
185.997
 20
167.492
 10
185.995
 20
167.457
 10
185.996
 20
167.422
 10
185.997
 20
167.387
 10
186.001
 20
167.353
 10
186.007
 20
167.318
 10
186.015
 20
167.284
 10
186.024
 20
167.249
 10
186.035
 20
167.215
 10
186.048
 20
167.18
 10
186.064
 20
167.146
 10
186.081
 20
167.113
 10
186.1
 20
167.08
 10
186.121
 20
167.047
 10
186.144
 20
167.015
 10
186.169
 20
166.984
 10
186.196
 20
166.953
 10
186.225
 20
166.923
 97
0
 92
2
 72
0
 73
1
 93
129
 10
186.419
 20
167.117
 10
186.4
 20
167.136
 10
186.382
 20
167.156
 10
186.366
 20
167.177
 10
186.35
 20
167.198
 10
186.336
 20
167.219
 10
186.323
 20
167.241
 10
186.311
 20
167.263
 10
186.3
 20
167.286
 10
186.29
 20
167.309
 10
186.281
 20
167.332
 10
186.273
 20
167.355
 10
186.267
 20
167.378
 10
186.262
 20
167.401
 10
186.258
 20
167.424
 10
186.255
 20
167.448
 10
186.254
 20
167.472
 10
186.253
 20
167.495
 10
186.254
 20
167.519
 10
186.256
 20
167.542
 10
186.259
 20
167.566
 10
186.263
 20
167.589
 10
186.269
 20
167.612
 10
186.276
 20
167.635
 10
186.284
 20
167.658
 10
186.293
 20
167.68
 10
186.304
 20
167.702
 10
186.316
 20
167.724
 10
186.329
 20
167.745
 10
186.344
 20
167.766
 10
186.36
 20
167.787
 10
186.378
 20
167.807
 10
186.396
 20
167.827
 10
186.416
 20
167.845
 10
186.436
 20
167.863
 10
186.457
 20
167.879
 10
186.478
 20
167.894
 10
186.499
 20
167.907
 10
186.521
 20
167.919
 10
186.543
 20
167.93
 10
186.566
 20
167.94
 10
186.589
 20
167.948
 10
186.612
 20
167.955
 10
186.635
 20
167.961
 10
186.659
 20
167.965
 10
186.682
 20
167.968
 10
186.706
 20
167.971
 10
186.729
 20
167.971
 10
186.753
 20
167.971
 10
186.776
 20
167.969
 10
186.8
 20
167.966
 10
186.823
 20
167.962
 10
186.847
 20
167.957
 10
186.87
 20
167.951
 10
186.893
 20
167.943
 10
186.916
 20
167.935
 10
186.939
 20
167.925
 10
186.961
 20
167.914
 10
186.984
 20
167.902
 10
187.005
 20
167.889
 10
187.027
 20
167.874
 10
187.048
 20
167.859
 10
187.068
 20
167.842
 10
187.088
 20
167.824
 10
187.108
 20
167.805
 10
187.127
 20
167.785
 10
187.146
 20
167.764
 10
187.163
 20
167.743
 10
187.179
 20
167.722
 10
187.194
 20
167.7
 10
187.207
 20
167.678
 10
187.22
 20
167.656
 10
187.231
 20
167.633
 10
187.241
 20
167.61
 10
187.25
 20
167.587
 10
187.257
 20
167.563
 10
187.263
 20
167.54
 10
187.269
 20
167.517
 10
187.273
 20
167.493
 10
187.275
 20
167.469
 10
187.277
 20
167.445
 10
187.277
 20
167.422
 10
187.276
 20
167.398
 10
187.274
 20
167.374
 10
187.27
 20
167.351
 10
187.266
 20
167.328
 10
187.26
 20
167.305
 10
187.253
 20
167.282
 10
187.244
 20
167.259
 10
187.235
 20
167.236
 10
187.224
 20
167.214
 10
187.211
 20
167.192
 10
187.198
 20
167.171
 10
187.183
 20
167.151
 10
187.167
 20
167.13
 10
187.15
 20
167.111
 10
187.132
 20
167.091
 10
187.112
 20
167.073
 10
187.093
 20
167.056
 10
187.073
 20
167.04
 10
187.052
 20
167.025
 10
187.031
 20
167.012
 10
187.009
 20
167.0
 10
186.987
 20
166.989
 10
186.965
 20
166.98
 10
186.942
 20
166.971
 10
186.919
 20
166.964
 10
186.896
 20
166.958
 10
186.873
 20
166.954
 10
186.85
 20
166.951
 10
186.826
 20
166.948
 10
186.803
 20
166.947
 10
186.779
 20
166.948
 10
186.755
 20
166.949
 10
186.731
 20
166.952
 10
186.708
 20
166.956
 10
186.684
 20
166.961
 10
186.661
 20
166.967
 10
186.638
 20
166.975
 10
186.615
 20
166.984
 10
186.592
 20
166.994
 10
186.569
 20
167.005
 10
186.546
 20
167.017
 10
186.524
 20
167.031
 10
186.502
 20
167.046
 10
186.481
 20
167.062
 10
186.46
 20
167.079
 10
186.439
 20
167.097
 10
186.419
 20
167.117
 97
0
 92
2
 72
0
 73
1
 93
57
 10
186.976
 20
168.669
 10
187.977
 20
167.668
 10
188.156
 20
167.846
 10
187.731
 20
168.271
 10
187.862
 20
168.401
 10
188.518
 20
168.208
 10
188.733
 20
168.423
 10
188.021
 20
168.6
 10
188.04
 20
168.633
 10
188.057
 20
168.665
 10
188.07
 20
168.698
 10
188.081
 20
168.73
 10
188.089
 20
168.763
 10
188.094
 20
168.795
 10
188.097
 20
168.828
 10
188.096
 20
168.86
 10
188.093
 20
168.893
 10
188.086
 20
168.924
 10
188.077
 20
168.955
 10
188.064
 20
168.985
 10
188.048
 20
169.015
 10
188.028
 20
169.044
 10
188.006
 20
169.072
 10
187.98
 20
169.099
 10
187.96
 20
169.118
 10
187.94
 20
169.136
 10
187.92
 20
169.151
 10
187.899
 20
169.165
 10
187.879
 20
169.177
 10
187.858
 20
169.187
 10
187.836
 20
169.196
 10
187.815
 20
169.203
 10
187.793
 20
169.208
 10
187.772
 20
169.212
 10
187.75
 20
169.215
 10
187.729
 20
169.216
 10
187.707
 20
169.216
 10
187.686
 20
169.215
 10
187.664
 20
169.213
 10
187.643
 20
169.209
 10
187.622
 20
169.204
 10
187.6
 20
169.198
 10
187.579
 20
169.191
 10
187.559
 20
169.183
 10
187.538
 20
169.174
 10
187.517
 20
169.163
 10
187.497
 20
169.152
 10
187.476
 20
169.14
 10
187.456
 20
169.127
 10
187.436
 20
169.113
 10
187.417
 20
169.098
 10
187.397
 20
169.083
 10
187.379
 20
169.068
 10
187.36
 20
169.052
 10
187.342
 20
169.035
 10
187.324
 20
169.017
 10
186.976
 20
168.669
 97
0
 92
2
 72
0
 73
1
 93
68
 10
187.731
 20
168.562
 10
187.586
 20
168.416
 10
187.304
 20
168.698
 10
187.466
 20
168.859
 10
187.474
 20
168.867
 10
187.483
 20
168.876
 10
187.492
 20
168.884
 10
187.501
 20
168.892
 10
187.511
 20
168.9
 10
187.521
 20
168.908
 10
187.531
 20
168.916
 10
187.541
 20
168.923
 10
187.552
 20
168.931
 10
187.562
 20
168.937
 10
187.573
 20
168.944
 10
187.583
 20
168.949
 10
187.594
 20
168.954
 10
187.605
 20
168.959
 10
187.616
 20
168.963
 10
187.627
 20
168.966
 10
187.638
 20
168.969
 10
187.649
 20
168.972
 10
187.66
 20
168.973
 10
187.671
 20
168.974
 10
187.682
 20
168.974
 10
187.693
 20
168.974
 10
187.704
 20
168.973
 10
187.715
 20
168.971
 10
187.726
 20
168.969
 10
187.737
 20
168.965
 10
187.748
 20
168.961
 10
187.759
 20
168.955
 10
187.769
 20
168.949
 10
187.78
 20
168.941
 10
187.79
 20
168.932
 10
187.801
 20
168.923
 10
187.811
 20
168.911
 10
187.821
 20
168.9
 10
187.83
 20
168.888
 10
187.837
 20
168.876
 10
187.843
 20
168.865
 10
187.848
 20
168.853
 10
187.852
 20
168.841
 10
187.855
 20
168.829
 10
187.857
 20
168.816
 10
187.858
 20
168.804
 10
187.859
 20
168.792
 10
187.858
 20
168.781
 10
187.857
 20
168.769
 10
187.855
 20
168.757
 10
187.853
 20
168.745
 10
187.849
 20
168.734
 10
187.845
 20
168.722
 10
187.841
 20
168.711
 10
187.836
 20
168.7
 10
187.83
 20
168.688
 10
187.824
 20
168.677
 10
187.817
 20
168.666
 10
187.81
 20
168.655
 10
187.802
 20
168.644
 10
187.794
 20
168.633
 10
187.785
 20
168.622
 10
187.777
 20
168.612
 10
187.768
 20
168.602
 10
187.759
 20
168.591
 10
187.75
 20
168.581
 10
187.741
 20
168.572
 10
187.731
 20
168.562
 97
0
 92
2
 72
0
 73
1
 93
17
 10
187.866
 20
169.559
 10
188.867
 20
168.558
 10
189.037
 20
168.727
 10
188.232
 20
169.532
 10
188.235
 20
169.535
 10
189.339
 20
169.03
 10
189.464
 20
169.155
 10
188.963
 20
170.263
 10
188.966
 20
170.266
 10
189.771
 20
169.461
 10
189.947
 20
169.638
 10
188.946
 20
170.639
 10
188.666
 20
170.359
 10
189.12
 20
169.391
 10
189.116
 20
169.386
 10
188.144
 20
169.838
 10
187.866
 20
169.559
 97
0
 75
0
 76
1
 98
0
  0
HATCH
  5
5C
330
17
100
AcDbEntity
  8
RASTER
 62
7
100
AcDbHatch
 10
0.0
 20
0.0
 30
0.0
210
0.0
220
0.0
230
1.0
  2
SOLID
 70
1
 71
0
 91
9
 92
3
 72
0
 73
1
 93
50
 10
146.921
 20
162.064
 10
146.575
 20
162.319
 10
146.233
 20
162.578
 10
145.894
 20
162.842
 10
145.558
 20
163.11
 10
145.226
 20
163.382
 10
144.898
 20
163.659
 10
144.573
 20
163.94
 10
144.253
 20
164.225
 10
143.935
 20
164.514
 10
143.622
 20
164.808
 10
143.312
 20
165.105
 10
143.007
 20
165.407
 10
142.705
 20
165.712
 10
142.408
 20
166.022
 10
142.114
 20
166.335
 10
141.825
 20
166.653
 10
141.54
 20
166.973
 10
141.259
 20
167.298
 10
140.982
 20
167.626
 10
140.71
 20
167.958
 10
140.442
 20
168.294
 10
140.178
 20
168.633
 10
139.919
 20
168.975
 10
139.664
 20
169.321
 10
161.993
 20
185.544
 10
162.033
 20
185.489
 10
162.075
 20
185.434
 10
162.116
 20
185.381
 10
162.159
 20
185.328
 10
162.202
 20
185.275
 10
162.246
 20
185.223
 10
162.29
 20
185.171
 10
162.336
 20
185.121
 10
162.382
 20
185.07
 10
162.428
 20
185.021
 10
162.475
 20
184.971
 10
162.523
 20
184.923
 10
162.571
 20
184.875
 10
162.621
 20
184.828
 10
162.67
 20
184.782
 10
162.721
 20
184.736
 10
162.771
 20
184.69
 10
162.823
 20
184.646
 10
162.875
 20
184.602
 10
162.928
 20
184.559
 10
162.981
 20
184.516
 10
163.034
 20
184.475
 10
163.089
 20
184.433
 10
163.144
 20
184.393
 97
0
 92
2
 72
0
 73
1
 93
56
 10
147.656
 20
170.134
 10
148.081
 20
169.945
 10
148.633
 20
169.873
 10
148.793
 20
169.684
 10
148.984
 20
169.537
 10
149.218
 20
169.444
 10
149.356
 20
169.423
 10
149.664
 20
169.446
 10
150.089
 20
169.633
 10
150.482
 20
169.497
 10
150.896
 20
169.488
 10
151.141
 20
169.559
 10
151.428
 20
169.726
 10
151.714
 20
170.013
 10
151.855
 20
170.247
 10
151.95
 20
170.566
 10
151.925
 20
171.065
 10
151.802
 20
171.373
 10
151.651
 20
171.586
 10
150.707
 20
172.553
 10
150.79
 20
172.652
 10
151.521
 20
173.073
 10
151.536
 20
173.126
 10
151.502
 20
173.165
 10
151.119
 20
173.305
 10
151.028
 20
173.413
 10
151.098
 20
173.481
 10
151.576
 20
173.664
 10
151.612
 20
173.74
 10
151.566
 20
173.762
 10
149.951
 20
173.651
 10
149.893
 20
173.604
 10
149.908
 20
173.543
 10
150.248
 20
173.375
 10
150.391
 20
173.264
 10
150.365
 20
173.192
 10
150.184
 20
173.133
 10
150.11
 20
173.169
 10
149.409
 20
173.891
 10
149.122
 20
174.11
 10
148.708
 20
174.287
 10
148.304
 20
174.318
 10
148.049
 20
174.287
 10
147.73
 20
174.161
 10
147.443
 20
173.944
 10
147.218
 20
173.636
 10
147.078
 20
173.158
 10
147.105
 20
172.723
 10
147.271
 20
172.287
 10
147.131
 20
172.064
 10
147.016
 20
171.766
 10
146.978
 20
171.458
 10
146.986
 20
171.15
 10
147.078
 20
170.831
 10
147.224
 20
170.555
 10
147.656
 20
170.134
 97
0
 92
2
 72
0
 73
1
 93
323
 10
143.755
 20
169.92
 10
143.998
 20
169.931
 10
143.996
 20
169.959
 10
143.993
 20
169.986
 10
143.988
 20
170.014
 10
143.982
 20
170.041
 10
143.974
 20
170.068
 10
143.965
 20
170.095
 10
143.955
 20
170.122
 10
143.942
 20
170.148
 10
143.929
 20
170.174
 10
143.915
 20
170.199
 10
143.9
 20
170.223
 10
143.885
 20
170.246
 10
143.868
 20
170.268
 10
143.851
 20
170.29
 10
143.833
 20
170.31
 10
143.814
 20
170.33
 10
143.797
 20
170.346
 10
143.78
 20
170.362
 10
143.761
 20
170.378
 10
143.743
 20
170.393
 10
143.723
 20
170.407
 10
143.704
 20
170.42
 10
143.684
 20
170.433
 10
143.663
 20
170.446
 10
143.642
 20
170.457
 10
143.621
 20
170.468
 10
143.6
 20
170.477
 10
143.579
 20
170.486
 10
143.557
 20
170.493
 10
143.536
 20
170.5
 10
143.514
 20
170.505
 10
143.492
 20
170.509
 10
143.47
 20
170.513
 10
143.448
 20
170.515
 10
143.426
 20
170.516
 10
143.404
 20
170.515
 10
143.383
 20
170.514
 10
143.361
 20
170.511
 10
143.339
 20
170.507
 10
143.317
 20
170.502
 10
143.296
 20
170.495
 10
143.274
 20
170.487
 10
143.254
 20
170.477
 10
143.233
 20
170.465
 10
143.213
 20
170.452
 10
143.193
 20
170.437
 10
143.173
 20
170.42
 10
143.154
 20
170.402
 10
143.137
 20
170.384
 10
143.121
 20
170.367
 10
143.107
 20
170.349
 10
143.095
 20
170.331
 10
143.084
 20
170.314
 10
143.074
 20
170.296
 10
143.065
 20
170.279
 10
143.059
 20
170.261
 10
143.053
 20
170.244
 10
143.048
 20
170.226
 10
143.044
 20
170.209
 10
143.041
 20
170.192
 10
143.039
 20
170.174
 10
143.037
 20
170.157
 10
143.037
 20
170.14
 10
143.037
 20
170.123
 10
143.039
 20
170.106
 10
143.04
 20
170.089
 10
143.043
 20
170.072
 10
143.046
 20
170.055
 10
143.05
 20
170.038
 10
143.055
 20
170.022
 10
143.06
 20
170.005
 10
143.066
 20
169.989
 10
143.073
 20
169.973
 10
143.079
 20
169.957
 10
143.086
 20
169.941
 10
143.093
 20
169.925
 10
143.1
 20
169.91
 10
143.108
 20
169.895
 10
143.115
 20
169.879
 10
143.123
 20
169.864
 10
143.131
 20
169.849
 10
143.138
 20
169.834
 10
143.146
 20
169.819
 10
143.153
 20
169.804
 10
143.161
 20
169.789
 10
143.168
 20
169.774
 10
143.175
 20
169.76
 10
143.182
 20
169.746
 10
143.189
 20
169.732
 10
143.195
 20
169.718
 10
143.201
 20
169.704
 10
143.206
 20
169.691
 10
143.211
 20
169.677
 10
143.216
 20
169.664
 10
143.219
 20
169.652
 10
143.223
 20
169.639
 10
143.225
 20
169.626
 10
143.227
 20
169.614
 10
143.229
 20
169.602
 10
143.23
 20
169.59
 10
143.23
 20
169.578
 10
143.229
 20
169.567
 10
143.228
 20
169.555
 10
143.227
 20
169.544
 10
143.224
 20
169.533
 10
143.221
 20
169.522
 10
143.216
 20
169.511
 10
143.211
 20
169.501
 10
143.205
 20
169.49
 10
143.197
 20
169.48
 10
143.189
 20
169.47
 10
143.179
 20
169.46
 10
143.169
 20
169.45
 10
143.159
 20
169.441
 10
143.148
 20
169.433
 10
143.138
 20
169.426
 10
143.127
 20
169.42
 10
143.116
 20
169.415
 10
143.105
 20
169.411
 10
143.095
 20
169.408
 10
143.084
 20
169.405
 10
143.073
 20
169.403
 10
143.062
 20
169.402
 10
143.051
 20
169.401
 10
143.04
 20
169.401
 10
143.028
 20
169.401
 10
143.017
 20
169.403
 10
143.006
 20
169.404
 10
142.995
 20
169.406
 10
142.984
 20
169.409
 10
142.973
 20
169.412
 10
142.963
 20
169.416
 10
142.952
 20
169.421
 10
142.942
 20
169.425
 10
142.931
 20
169.431
 10
142.921
 20
169.437
 10
142.911
 20
169.443
 10
142.902
 20
169.449
 10
142.892
 20
169.456
 10
142.883
 20
169.463
 10
142.875
 20
169.47
 10
142.866
 20
169.477
 10
142.858
 20
169.485
 10
142.85
 20
169.493
 10
142.836
 20
169.508
 10
142.822
 20
169.524
 10
142.809
 20
169.542
 10
142.797
 20
169.56
 10
142.786
 20
169.579
 10
142.776
 20
169.6
 10
142.767
 20
169.621
 10
142.759
 20
169.643
 10
142.751
 20
169.666
 10
142.746
 20
169.689
 10
142.741
 20
169.711
 10
142.738
 20
169.734
 10
142.737
 20
169.756
 10
142.737
 20
169.778
 10
142.738
 20
169.8
 10
142.741
 20
169.822
 10
142.495
 20
169.831
 10
142.493
 20
169.798
 10
142.494
 20
169.766
 10
142.496
 20
169.733
 10
142.501
 20
169.701
 10
142.508
 20
169.668
 10
142.517
 20
169.636
 10
142.528
 20
169.603
 10
142.541
 20
169.571
 10
142.556
 20
169.539
 10
142.572
 20
169.508
 10
142.59
 20
169.478
 10
142.608
 20
169.45
 10
142.628
 20
169.422
 10
142.649
 20
169.395
 10
142.672
 20
169.369
 10
142.696
 20
169.344
 10
142.714
 20
169.326
 10
142.733
 20
169.309
 10
142.753
 20
169.293
 10
142.772
 20
169.277
 10
142.793
 20
169.263
 10
142.813
 20
169.249
 10
142.834
 20
169.236
 10
142.856
 20
169.224
 10
142.877
 20
169.213
 10
142.899
 20
169.203
 10
142.921
 20
169.194
 10
142.943
 20
169.186
 10
142.965
 20
169.18
 10
142.987
 20
169.175
 10
143.009
 20
169.17
 10
143.031
 20
169.167
 10
143.053
 20
169.165
 10
143.076
 20
169.165
 10
143.098
 20
169.166
 10
143.12
 20
169.167
 10
143.143
 20
169.171
 10
143.165
 20
169.175
 10
143.187
 20
169.181
 10
143.21
 20
169.188
 10
143.232
 20
169.196
 10
143.254
 20
169.206
 10
143.276
 20
169.218
 10
143.297
 20
169.231
 10
143.318
 20
169.245
 10
143.339
 20
169.262
 10
143.36
 20
169.279
 10
143.38
 20
169.299
 10
143.398
 20
169.317
 10
143.414
 20
169.336
 10
143.428
 20
169.354
 10
143.441
 20
169.373
 10
143.452
 20
169.392
 10
143.462
 20
169.411
 10
143.469
 20
169.43
 10
143.476
 20
169.449
 10
143.481
 20
169.469
 10
143.485
 20
169.488
 10
143.488
 20
169.507
 10
143.489
 20
169.526
 10
143.49
 20
169.545
 10
143.49
 20
169.564
 10
143.489
 20
169.583
 10
143.487
 20
169.602
 10
143.484
 20
169.621
 10
143.48
 20
169.64
 10
143.476
 20
169.658
 10
143.471
 20
169.677
 10
143.465
 20
169.695
 10
143.459
 20
169.713
 10
143.452
 20
169.731
 10
143.445
 20
169.749
 10
143.437
 20
169.767
 10
143.429
 20
169.784
 10
143.421
 20
169.802
 10
143.413
 20
169.819
 10
143.405
 20
169.835
 10
143.396
 20
169.852
 10
143.388
 20
169.868
 10
143.38
 20
169.884
 10
143.373
 20
169.898
 10
143.366
 20
169.911
 10
143.359
 20
169.925
 10
143.352
 20
169.938
 10
143.346
 20
169.95
 10
143.34
 20
169.963
 10
143.334
 20
169.975
 10
143.328
 20
169.988
 10
143.322
 20
169.999
 10
143.318
 20
170.011
 10
143.313
 20
170.023
 10
143.309
 20
170.034
 10
143.305
 20
170.045
 10
143.302
 20
170.056
 10
143.3
 20
170.067
 10
143.298
 20
170.077
 10
143.296
 20
170.088
 10
143.295
 20
170.098
 10
143.294
 20
170.108
 10
143.294
 20
170.118
 10
143.295
 20
170.128
 10
143.296
 20
170.138
 10
143.297
 20
170.148
 10
143.3
 20
170.157
 10
143.302
 20
170.167
 10
143.306
 20
170.176
 10
143.31
 20
170.185
 10
143.316
 20
170.194
 10
143.321
 20
170.203
 10
143.328
 20
170.212
 10
143.335
 20
170.221
 10
143.343
 20
170.229
 10
143.353
 20
170.238
 10
143.362
 20
170.246
 10
143.372
 20
170.253
 10
143.382
 20
170.259
 10
143.392
 20
170.265
 10
143.402
 20
170.269
 10
143.412
 20
170.273
 10
143.423
 20
170.276
 10
143.433
 20
170.278
 10
143.444
 20
170.28
 10
143.454
 20
170.281
 10
143.465
 20
170.281
 10
143.475
 20
170.281
 10
143.486
 20
170.28
 10
143.496
 20
170.279
 10
143.507
 20
170.277
 10
143.517
 20
170.274
 10
143.528
 20
170.271
 10
143.538
 20
170.268
 10
143.548
 20
170.264
 10
143.558
 20
170.26
 10
143.568
 20
170.255
 10
143.578
 20
170.25
 10
143.587
 20
170.244
 10
143.597
 20
170.238
 10
143.606
 20
170.232
 10
143.616
 20
170.226
 10
143.624
 20
170.219
 10
143.633
 20
170.212
 10
143.641
 20
170.205
 10
143.65
 20
170.197
 10
143.657
 20
170.19
 10
143.67
 20
170.176
 10
143.682
 20
170.162
 10
143.693
 20
170.147
 10
143.703
 20
170.131
 10
143.713
 20
170.115
 10
143.722
 20
170.098
 10
143.73
 20
170.08
 10
143.737
 20
170.061
 10
143.743
 20
170.042
 10
143.748
 20
170.024
 10
143.752
 20
170.005
 10
143.755
 20
169.988
 10
143.756
 20
169.97
 10
143.757
 20
169.953
 10
143.757
 20
169.936
 10
143.755
 20
169.92
 97
0
 92
2
 72
0
 73
1
 93
9
 10
144.312
 20
169.47
 10
143.467
 20
168.624
 10
143.645
 20
168.446
 10
144.49
 20
169.292
 10
144.797
 20
168.985
 10
144.953
 20
169.14
 10
144.161
 20
169.932
 10
144.005
 20
169.777
 10
144.312
 20
169.47
 97
0
 92
2
 72
0
 73
1
 93
129
 10
144.523
 20
168.575
 10
144.495
 20
168.545
 10
144.468
 20
168.515
 10
144.443
 20
168.484
 10
144.421
 20
168.452
 10
144.4
 20
168.42
 10
144.381
 20
168.388
 10
144.364
 20
168.354
 10
144.349
 20
168.32
 10
144.336
 20
168.286
 10
144.324
 20
168.251
 10
144.315
 20
168.217
 10
144.307
 20
168.182
 10
144.301
 20
168.147
 10
144.297
 20
168.112
 10
144.294
 20
168.077
 10
144.294
 20
168.042
 10
144.295
 20
168.006
 10
144.298
 20
167.971
 10
144.303
 20
167.936
 10
144.31
 20
167.901
 10
144.318
 20
167.866
 10
144.329
 20
167.832
 10
144.341
 20
167.797
 10
144.355
 20
167.763
 10
144.37
 20
167.729
 10
144.388
 20
167.696
 10
144.407
 20
167.663
 10
144.428
 20
167.631
 10
144.451
 20
167.6
 10
144.476
 20
167.569
 10
144.502
 20
167.539
 10
144.53
 20
167.51
 10
144.56
 20
167.481
 10
144.59
 20
167.455
 10
144.621
 20
167.43
 10
144.653
 20
167.407
 10
144.685
 20
167.385
 10
144.718
 20
167.366
 10
144.751
 20
167.348
 10
144.785
 20
167.332
 10
144.82
 20
167.318
 10
144.854
 20
167.306
 10
144.889
 20
167.295
 10
144.924
 20
167.287
 10
144.959
 20
167.28
 10
144.994
 20
167.275
 10
145.03
 20
167.272
 10
145.065
 20
167.27
 10
145.101
 20
167.271
 10
145.136
 20
167.273
 10
145.171
 20
167.277
 10
145.206
 20
167.283
 10
145.241
 20
167.29
 10
145.276
 20
167.3
 10
145.31
 20
167.311
 10
145.345
 20
167.325
 10
145.379
 20
167.34
 10
145.412
 20
167.357
 10
145.445
 20
167.376
 10
145.477
 20
167.396
 10
145.508
 20
167.419
 10
145.539
 20
167.444
 10
145.569
 20
167.47
 10
145.599
 20
167.499
 10
145.628
 20
167.529
 10
145.655
 20
167.56
 10
145.68
 20
167.591
 10
145.703
 20
167.623
 10
145.725
 20
167.655
 10
145.744
 20
167.688
 10
145.761
 20
167.722
 10
145.776
 20
167.756
 10
145.789
 20
167.79
 10
145.8
 20
167.825
 10
145.81
 20
167.859
 10
145.817
 20
167.894
 10
145.823
 20
167.928
 10
145.827
 20
167.963
 10
145.828
 20
167.998
 10
145.828
 20
168.033
 10
145.826
 20
168.068
 10
145.823
 20
168.103
 10
145.817
 20
168.138
 10
145.81
 20
168.172
 10
145.8
 20
168.206
 10
145.789
 20
168.241
 10
145.776
 20
168.275
 10
145.762
 20
168.309
 10
145.745
 20
168.343
 10
145.727
 20
168.376
 10
145.707
 20
168.408
 10
145.686
 20
168.44
 10
145.662
 20
168.471
 10
145.637
 20
168.502
 10
145.611
 20
168.532
 10
145.582
 20
168.562
 10
145.553
 20
168.59
 10
145.523
 20
168.617
 10
145.493
 20
168.641
 10
145.461
 20
168.664
 10
145.43
 20
168.686
 10
145.397
 20
168.705
 10
145.365
 20
168.723
 10
145.331
 20
168.739
 10
145.297
 20
168.754
 10
145.263
 20
168.767
 10
145.229
 20
168.777
 10
145.195
 20
168.787
 10
145.161
 20
168.794
 10
145.126
 20
168.799
 10
145.092
 20
168.803
 10
145.057
 20
168.805
 10
145.022
 20
168.804
 10
144.987
 20
168.803
 10
144.953
 20
168.799
 10
144.918
 20
168.793
 10
144.884
 20
168.785
 10
144.849
 20
168.776
 10
144.815
 20
168.765
 10
144.78
 20
168.752
 10
144.746
 20
168.736
 10
144.713
 20
168.719
 10
144.68
 20
168.7
 10
144.647
 20
168.679
 10
144.615
 20
168.656
 10
144.584
 20
168.631
 10
144.553
 20
168.604
 10
144.523
 20
168.575
 97
0
 92
2
 72
0
 73
1
 93
129
 10
144.717
 20
168.381
 10
144.736
 20
168.4
 10
144.756
 20
168.418
 10
144.777
 20
168.434
 10
144.798
 20
168.45
 10
144.819
 20
168.464
 10
144.841
 20
168.477
 10
144.863
 20
168.489
 10
144.886
 20
168.5
 10
144.909
 20
168.51
 10
144.932
 20
168.519
 10
144.955
 20
168.527
 10
144.978
 20
168.533
 10
145.001
 20
168.538
 10
145.024
 20
168.542
 10
145.048
 20
168.545
 10
145.072
 20
168.546
 10
145.095
 20
168.547
 10
145.119
 20
168.546
 10
145.142
 20
168.544
 10
145.166
 20
168.541
 10
145.189
 20
168.537
 10
145.212
 20
168.531
 10
145.235
 20
168.524
 10
145.258
 20
168.516
 10
145.28
 20
168.507
 10
145.302
 20
168.496
 10
145.324
 20
168.484
 10
145.345
 20
168.471
 10
145.366
 20
168.456
 10
145.387
 20
168.44
 10
145.407
 20
168.422
 10
145.427
 20
168.404
 10
145.445
 20
168.384
 10
145.463
 20
168.364
 10
145.479
 20
168.343
 10
145.494
 20
168.322
 10
145.507
 20
168.301
 10
145.519
 20
168.279
 10
145.53
 20
168.257
 10
145.54
 20
168.234
 10
145.548
 20
168.211
 10
145.555
 20
168.188
 10
145.561
 20
168.165
 10
145.565
 20
168.141
 10
145.568
 20
168.118
 10
145.571
 20
168.094
 10
145.571
 20
168.071
 10
145.571
 20
168.047
 10
145.569
 20
168.024
 10
145.566
 20
168.0
 10
145.562
 20
167.977
 10
145.557
 20
167.953
 10
145.551
 20
167.93
 10
145.543
 20
167.907
 10
145.535
 20
167.884
 10
145.525
 20
167.861
 10
145.514
 20
167.839
 10
145.502
 20
167.816
 10
145.489
 20
167.795
 10
145.474
 20
167.773
 10
145.459
 20
167.752
 10
145.442
 20
167.732
 10
145.424
 20
167.712
 10
145.405
 20
167.692
 10
145.385
 20
167.673
 10
145.364
 20
167.654
 10
145.343
 20
167.637
 10
145.322
 20
167.621
 10
145.3
 20
167.606
 10
145.278
 20
167.593
 10
145.256
 20
167.58
 10
145.233
 20
167.569
 10
145.21
 20
167.559
 10
145.187
 20
167.55
 10
145.163
 20
167.543
 10
145.14
 20
167.537
 10
145.117
 20
167.531
 10
145.093
 20
167.527
 10
145.069
 20
167.525
 10
145.045
 20
167.523
 10
145.022
 20
167.523
 10
144.998
 20
167.524
 10
144.974
 20
167.526
 10
144.951
 20
167.53
 10
144.928
 20
167.534
 10
144.905
 20
167.54
 10
144.882
 20
167.547
 10
144.859
 20
167.556
 10
144.836
 20
167.565
 10
144.814
 20
167.576
 10
144.792
 20
167.589
 10
144.771
 20
167.602
 10
144.751
 20
167.617
 10
144.73
 20
167.633
 10
144.711
 20
167.65
 10
144.691
 20
167.668
 10
144.673
 20
167.688
 10
144.656
 20
167.707
 10
144.64
 20
167.727
 10
144.625
 20
167.748
 10
144.612
 20
167.769
 10
144.6
 20
167.791
 10
144.589
 20
167.813
 10
144.58
 20
167.835
 10
144.571
 20
167.858
 10
144.564
 20
167.881
 10
144.558
 20
167.904
 10
144.554
 20
167.927
 10
144.551
 20
167.95
 10
144.548
 20
167.974
 10
144.547
 20
167.997
 10
144.548
 20
168.021
 10
144.549
 20
168.045
 10
144.552
 20
168.069
 10
144.556
 20
168.092
 10
144.561
 20
168.116
 10
144.567
 20
168.139
 10
144.575
 20
168.162
 10
144.584
 20
168.185
 10
144.594
 20
168.208
 10
144.605
 20
168.231
 10
144.617
 20
168.254
 10
144.631
 20
168.276
 10
144.646
 20
168.298
 10
144.662
 20
168.319
 10
144.679
 20
168.34
 10
144.697
 20
168.361
 10
144.717
 20
168.381
 97
0
 92
2
 72
0
 73
1
 93
57
 10
146.269
 20
167.824
 10
145.268
 20
166.823
 10
145.446
 20
166.644
 10
145.871
 20
167.069
 10
146.001
 20
166.938
 10
145.808
 20
166.282
 10
146.023
 20
166.067
 10
146.2
 20
166.779
 10
146.233
 20
166.76
 10
146.265
 20
166.743
 10
146.298
 20
166.73
 10
146.33
 20
166.719
 10
146.363
 20
166.711
 10
146.395
 20
166.706
 10
146.428
 20
166.703
 10
146.46
 20
166.704
 10
146.493
 20
166.707
 10
146.524
 20
166.714
 10
146.555
 20
166.723
 10
146.585
 20
166.736
 10
146.615
 20
166.752
 10
146.644
 20
166.772
 10
146.672
 20
166.794
 10
146.699
 20
166.82
 10
146.718
 20
166.84
 10
146.736
 20
166.86
 10
146.751
 20
166.88
 10
146.765
 20
166.901
 10
146.777
 20
166.921
 10
146.787
 20
166.942
 10
146.796
 20
166.964
 10
146.803
 20
166.985
 10
146.808
 20
167.007
 10
146.812
 20
167.028
 10
146.815
 20
167.05
 10
146.816
 20
167.071
 10
146.816
 20
167.093
 10
146.815
 20
167.114
 10
146.813
 20
167.136
 10
146.809
 20
167.157
 10
146.804
 20
167.178
 10
146.798
 20
167.2
 10
146.791
 20
167.221
 10
146.783
 20
167.241
 10
146.774
 20
167.262
 10
146.763
 20
167.283
 10
146.752
 20
167.303
 10
146.74
 20
167.324
 10
146.727
 20
167.344
 10
146.713
 20
167.364
 10
146.698
 20
167.383
 10
146.683
 20
167.403
 10
146.668
 20
167.421
 10
146.652
 20
167.44
 10
146.635
 20
167.458
 10
146.617
 20
167.476
 10
146.269
 20
167.824
 97
0
 92
2
 72
0
 73
1
 93
68
 10
146.162
 20
167.069
 10
146.016
 20
167.214
 10
146.298
 20
167.496
 10
146.459
 20
167.334
 10
146.467
 20
167.326
 10
146.476
 20
167.317
 10
146.484
 20
167.308
 10
146.492
 20
167.299
 10
146.5
 20
167.289
 10
146.508
 20
167.279
 10
146.516
 20
167.269
 10
146.523
 20
167.259
 10
146.531
 20
167.248
 10
146.537
 20
167.238
 10
146.544
 20
167.227
 10
146.549
 20
167.217
 10
146.554
 20
167.206
 10
146.559
 20
167.195
 10
146.563
 20
167.184
 10
146.566
 20
167.173
 10
146.569
 20
167.162
 10
146.572
 20
167.151
 10
146.573
 20
167.14
 10
146.574
 20
167.129
 10
146.574
 20
167.118
 10
146.574
 20
167.107
 10
146.573
 20
167.096
 10
146.571
 20
167.085
 10
146.569
 20
167.074
 10
146.565
 20
167.063
 10
146.561
 20
167.052
 10
146.555
 20
167.041
 10
146.549
 20
167.031
 10
146.541
 20
167.02
 10
146.532
 20
167.01
 10
146.523
 20
166.999
 10
146.511
 20
166.989
 10
146.5
 20
166.979
 10
146.488
 20
166.97
 10
146.476
 20
166.963
 10
146.465
 20
166.957
 10
146.453
 20
166.952
 10
146.441
 20
166.948
 10
146.429
 20
166.945
 10
146.416
 20
166.943
 10
146.404
 20
166.942
 10
146.392
 20
166.941
 10
146.381
 20
166.942
 10
146.369
 20
166.943
 10
146.357
 20
166.945
 10
146.345
 20
166.947
 10
146.334
 20
166.951
 10
146.322
 20
166.955
 10
146.311
 20
166.959
 10
146.3
 20
166.964
 10
146.288
 20
166.97
 10
146.277
 20
166.976
 10
146.266
 20
166.983
 10
146.255
 20
166.99
 10
146.244
 20
166.998
 10
146.233
 20
167.006
 10
146.222
 20
167.015
 10
146.212
 20
167.023
 10
146.202
 20
167.032
 10
146.191
 20
167.041
 10
146.181
 20
167.05
 10
146.172
 20
167.059
 10
146.162
 20
167.069
 97
0
 92
2
 72
0
 73
1
 93
17
 10
147.159
 20
166.934
 10
146.158
 20
165.933
 10
146.327
 20
165.763
 10
147.132
 20
166.568
 10
147.135
 20
166.565
 10
146.63
 20
165.461
 10
146.755
 20
165.336
 10
147.863
 20
165.837
 10
147.866
 20
165.834
 10
147.061
 20
165.029
 10
147.238
 20
164.853
 10
148.239
 20
165.854
 10
147.959
 20
166.134
 10
146.991
 20
165.68
 10
146.986
 20
165.684
 10
147.438
 20
166.656
 10
147.159
 20
166.934
 97
0
 75
0
 76
1
 98
0
  0
HATCH
  5
5D
330
17
100
AcDbEntity
  8
RASTER
 62
7
100
AcDbHatch
 10
0.0
 20
0.0
 30
0.0
210
0.0
220
0.0
230
1.0
  2
SOLID
 70
1
 71
0
 91
9
 92
3
 72
0
 73
1
 93
50
 10
139.664
 20
207.879
 10
139.919
 20
208.225
 10
140.178
 20
208.567
 10
140.442
 20
208.906
 10
140.71
 20
209.242
 10
140.982
 20
209.574
 10
141.259
 20
209.902
 10
141.54
 20
210.227
 10
141.825
 20
210.547
 10
142.114
 20
210.865
 10
142.408
 20
211.178
 10
142.705
 20
211.488
 10
143.007
 20
211.793
 10
143.312
 20
212.095
 10
143.622
 20
212.392
 10
143.935
 20
212.686
 10
144.253
 20
212.975
 10
144.573
 20
213.26
 10
144.898
 20
213.541
 10
145.226
 20
213.818
 10
145.558
 20
214.09
 10
145.894
 20
214.358
 10
146.233
 20
214.622
 10
146.575
 20
214.881
 10
146.921
 20
215.136
 10
163.144
 20
192.807
 10
163.089
 20
192.767
 10
163.034
 20
192.725
 10
162.981
 20
192.684
 10
162.928
 20
192.641
 10
162.875
 20
192.598
 10
162.823
 20
192.554
 10
162.771
 20
192.51
 10
162.721
 20
192.464
 10
162.67
 20
192.418
 10
162.621
 20
192.372
 10
162.571
 20
192.325
 10
162.523
 20
192.277
 10
162.475
 20
192.229
 10
162.428
 20
192.179
 10
162.382
 20
192.13
 10
162.336
 20
192.079
 10
162.29
 20
192.029
 10
162.246
 20
191.977
 10
162.202
 20
191.925
 10
162.159
 20
191.872
 10
162.116
 20
191.819
 10
162.075
 20
191.766
 10
162.033
 20
191.711
 10
161.993
 20
191.656
 97
0
 92
2
 72
0
 73
1
 93
56
 10
147.734
 20
207.144
 10
147.545
 20
206.719
 10
147.473
 20
206.167
 10
147.284
 20
206.007
 10
147.137
 20
205.816
 10
147.044
 20
205.582
 10
147.023
 20
205.444
 10
147.046
 20
205.136
 10
147.233
 20
204.711
 10
147.097
 20
204.318
 10
147.088
 20
203.904
 10
147.159
 20
203.659
 10
147.326
 20
203.372
 10
147.613
 20
203.086
 10
147.847
 20
202.945
 10
148.166
 20
202.85
 10
148.665
 20
202.875
 10
148.973
 20
202.998
 10
149.186
 20
203.149
 10
150.153
 20
204.093
 10
150.252
 20
204.01
 10
150.673
 20
203.279
 10
150.726
 20
203.264
 10
150.765
 20
203.298
 10
150.905
 20
203.681
 10
151.013
 20
203.772
 10
151.081
 20
203.702
 10
151.264
 20
203.224
 10
151.34
 20
203.188
 10
151.362
 20
203.234
 10
151.251
 20
204.849
 10
151.204
 20
204.907
 10
151.143
 20
204.892
 10
150.975
 20
204.552
 10
150.864
 20
204.409
 10
150.792
 20
204.435
 10
150.733
 20
204.616
 10
150.769
 20
204.69
 10
151.491
 20
205.391
 10
151.71
 20
205.678
 10
151.887
 20
206.092
 10
151.918
 20
206.496
 10
151.887
 20
206.751
 10
151.761
 20
207.07
 10
151.544
 20
207.357
 10
151.236
 20
207.582
 10
150.758
 20
207.722
 10
150.323
 20
207.695
 10
149.887
 20
207.529
 10
149.664
 20
207.669
 10
149.366
 20
207.784
 10
149.058
 20
207.822
 10
148.75
 20
207.814
 10
148.431
 20
207.722
 10
148.155
 20
207.576
 10
147.734
 20
207.144
 97
0
 92
2
 72
0
 73
1
 93
323
 10
147.52
 20
211.045
 10
147.531
 20
210.802
 10
147.559
 20
210.804
 10
147.586
 20
210.807
 10
147.614
 20
210.812
 10
147.641
 20
210.818
 10
147.668
 20
210.826
 10
147.695
 20
210.835
 10
147.722
 20
210.845
 10
147.748
 20
210.858
 10
147.774
 20
210.871
 10
147.799
 20
210.885
 10
147.823
 20
210.9
 10
147.846
 20
210.915
 10
147.868
 20
210.932
 10
147.89
 20
210.949
 10
147.91
 20
210.967
 10
147.93
 20
210.986
 10
147.946
 20
211.003
 10
147.962
 20
211.02
 10
147.978
 20
211.039
 10
147.993
 20
211.057
 10
148.007
 20
211.077
 10
148.02
 20
211.096
 10
148.033
 20
211.116
 10
148.046
 20
211.137
 10
148.057
 20
211.158
 10
148.068
 20
211.179
 10
148.077
 20
211.2
 10
148.086
 20
211.221
 10
148.093
 20
211.243
 10
148.1
 20
211.264
 10
148.105
 20
211.286
 10
148.109
 20
211.308
 10
148.113
 20
211.33
 10
148.115
 20
211.352
 10
148.116
 20
211.374
 10
148.115
 20
211.396
 10
148.114
 20
211.417
 10
148.111
 20
211.439
 10
148.107
 20
211.461
 10
148.102
 20
211.483
 10
148.095
 20
211.504
 10
148.087
 20
211.526
 10
148.077
 20
211.546
 10
148.065
 20
211.567
 10
148.052
 20
211.587
 10
148.037
 20
211.607
 10
148.02
 20
211.627
 10
148.002
 20
211.646
 10
147.984
 20
211.663
 10
147.967
 20
211.679
 10
147.949
 20
211.693
 10
147.931
 20
211.705
 10
147.914
 20
211.716
 10
147.896
 20
211.726
 10
147.879
 20
211.735
 10
147.861
 20
211.741
 10
147.844
 20
211.747
 10
147.826
 20
211.752
 10
147.809
 20
211.756
 10
147.792
 20
211.759
 10
147.774
 20
211.761
 10
147.757
 20
211.763
 10
147.74
 20
211.763
 10
147.723
 20
211.763
 10
147.706
 20
211.761
 10
147.689
 20
211.76
 10
147.672
 20
211.757
 10
147.655
 20
211.754
 10
147.638
 20
211.75
 10
147.622
 20
211.745
 10
147.605
 20
211.74
 10
147.589
 20
211.734
 10
147.573
 20
211.727
 10
147.557
 20
211.721
 10
147.541
 20
211.714
 10
147.525
 20
211.707
 10
147.51
 20
211.7
 10
147.495
 20
211.692
 10
147.479
 20
211.685
 10
147.464
 20
211.677
 10
147.449
 20
211.669
 10
147.434
 20
211.662
 10
147.419
 20
211.654
 10
147.404
 20
211.647
 10
147.389
 20
211.639
 10
147.374
 20
211.632
 10
147.36
 20
211.625
 10
147.346
 20
211.618
 10
147.332
 20
211.611
 10
147.318
 20
211.605
 10
147.304
 20
211.599
 10
147.291
 20
211.594
 10
147.277
 20
211.589
 10
147.264
 20
211.584
 10
147.252
 20
211.581
 10
147.239
 20
211.577
 10
147.226
 20
211.575
 10
147.214
 20
211.573
 10
147.202
 20
211.571
 10
147.19
 20
211.57
 10
147.178
 20
211.57
 10
147.167
 20
211.571
 10
147.155
 20
211.572
 10
147.144
 20
211.573
 10
147.133
 20
211.576
 10
147.122
 20
211.579
 10
147.111
 20
211.584
 10
147.101
 20
211.589
 10
147.09
 20
211.595
 10
147.08
 20
211.603
 10
147.07
 20
211.611
 10
147.06
 20
211.621
 10
147.05
 20
211.631
 10
147.041
 20
211.641
 10
147.033
 20
211.652
 10
147.026
 20
211.662
 10
147.02
 20
211.673
 10
147.015
 20
211.684
 10
147.011
 20
211.695
 10
147.008
 20
211.705
 10
147.005
 20
211.716
 10
147.003
 20
211.727
 10
147.002
 20
211.738
 10
147.001
 20
211.749
 10
147.001
 20
211.76
 10
147.001
 20
211.772
 10
147.003
 20
211.783
 10
147.004
 20
211.794
 10
147.006
 20
211.805
 10
147.009
 20
211.816
 10
147.012
 20
211.827
 10
147.016
 20
211.837
 10
147.021
 20
211.848
 10
147.025
 20
211.858
 10
147.031
 20
211.869
 10
147.037
 20
211.879
 10
147.043
 20
211.889
 10
147.049
 20
211.898
 10
147.056
 20
211.908
 10
147.063
 20
211.917
 10
147.07
 20
211.925
 10
147.077
 20
211.934
 10
147.085
 20
211.942
 10
147.093
 20
211.95
 10
147.108
 20
211.964
 10
147.124
 20
211.978
 10
147.142
 20
211.991
 10
147.16
 20
212.003
 10
147.179
 20
212.014
 10
147.2
 20
212.024
 10
147.221
 20
212.033
 10
147.243
 20
212.041
 10
147.266
 20
212.049
 10
147.289
 20
212.054
 10
147.311
 20
212.059
 10
147.334
 20
212.062
 10
147.356
 20
212.063
 10
147.378
 20
212.063
 10
147.4
 20
212.062
 10
147.422
 20
212.059
 10
147.431
 20
212.305
 10
147.398
 20
212.307
 10
147.366
 20
212.306
 10
147.333
 20
212.304
 10
147.301
 20
212.299
 10
147.268
 20
212.292
 10
147.236
 20
212.283
 10
147.203
 20
212.272
 10
147.171
 20
212.259
 10
147.139
 20
212.244
 10
147.108
 20
212.228
 10
147.078
 20
212.21
 10
147.05
 20
212.192
 10
147.022
 20
212.172
 10
146.995
 20
212.151
 10
146.969
 20
212.128
 10
146.944
 20
212.104
 10
146.926
 20
212.086
 10
146.909
 20
212.067
 10
146.893
 20
212.047
 10
146.877
 20
212.028
 10
146.863
 20
212.007
 10
146.849
 20
211.987
 10
146.836
 20
211.966
 10
146.824
 20
211.944
 10
146.813
 20
211.923
 10
146.803
 20
211.901
 10
146.794
 20
211.879
 10
146.786
 20
211.857
 10
146.78
 20
211.835
 10
146.775
 20
211.813
 10
146.77
 20
211.791
 10
146.767
 20
211.769
 10
146.765
 20
211.747
 10
146.765
 20
211.724
 10
146.766
 20
211.702
 10
146.767
 20
211.68
 10
146.771
 20
211.657
 10
146.775
 20
211.635
 10
146.781
 20
211.613
 10
146.788
 20
211.59
 10
146.796
 20
211.568
 10
146.806
 20
211.546
 10
146.818
 20
211.524
 10
146.831
 20
211.503
 10
146.845
 20
211.482
 10
146.862
 20
211.461
 10
146.879
 20
211.44
 10
146.899
 20
211.42
 10
146.917
 20
211.402
 10
146.936
 20
211.386
 10
146.954
 20
211.372
 10
146.973
 20
211.359
 10
146.992
 20
211.348
 10
147.011
 20
211.338
 10
147.03
 20
211.331
 10
147.049
 20
211.324
 10
147.069
 20
211.319
 10
147.088
 20
211.315
 10
147.107
 20
211.312
 10
147.126
 20
211.311
 10
147.145
 20
211.31
 10
147.164
 20
211.31
 10
147.183
 20
211.311
 10
147.202
 20
211.313
 10
147.221
 20
211.316
 10
147.24
 20
211.32
 10
147.258
 20
211.324
 10
147.277
 20
211.329
 10
147.295
 20
211.335
 10
147.313
 20
211.341
 10
147.331
 20
211.348
 10
147.349
 20
211.355
 10
147.367
 20
211.363
 10
147.384
 20
211.371
 10
147.402
 20
211.379
 10
147.419
 20
211.387
 10
147.435
 20
211.395
 10
147.452
 20
211.404
 10
147.468
 20
211.412
 10
147.484
 20
211.42
 10
147.498
 20
211.427
 10
147.511
 20
211.434
 10
147.525
 20
211.441
 10
147.538
 20
211.448
 10
147.55
 20
211.454
 10
147.563
 20
211.46
 10
147.575
 20
211.466
 10
147.588
 20
211.472
 10
147.599
 20
211.478
 10
147.611
 20
211.482
 10
147.623
 20
211.487
 10
147.634
 20
211.491
 10
147.645
 20
211.495
 10
147.656
 20
211.498
 10
147.667
 20
211.5
 10
147.677
 20
211.502
 10
147.688
 20
211.504
 10
147.698
 20
211.505
 10
147.708
 20
211.506
 10
147.718
 20
211.506
 10
147.728
 20
211.505
 10
147.738
 20
211.504
 10
147.748
 20
211.503
 10
147.757
 20
211.5
 10
147.767
 20
211.498
 10
147.776
 20
211.494
 10
147.785
 20
211.49
 10
147.794
 20
211.484
 10
147.803
 20
211.479
 10
147.812
 20
211.472
 10
147.821
 20
211.465
 10
147.829
 20
211.457
 10
147.838
 20
211.447
 10
147.846
 20
211.438
 10
147.853
 20
211.428
 10
147.859
 20
211.418
 10
147.865
 20
211.408
 10
147.869
 20
211.398
 10
147.873
 20
211.388
 10
147.876
 20
211.377
 10
147.878
 20
211.367
 10
147.88
 20
211.356
 10
147.881
 20
211.346
 10
147.881
 20
211.335
 10
147.881
 20
211.325
 10
147.88
 20
211.314
 10
147.879
 20
211.304
 10
147.877
 20
211.293
 10
147.874
 20
211.283
 10
147.871
 20
211.272
 10
147.868
 20
211.262
 10
147.864
 20
211.252
 10
147.86
 20
211.242
 10
147.855
 20
211.232
 10
147.85
 20
211.222
 10
147.844
 20
211.213
 10
147.838
 20
211.203
 10
147.832
 20
211.194
 10
147.826
 20
211.184
 10
147.819
 20
211.176
 10
147.812
 20
211.167
 10
147.805
 20
211.159
 10
147.797
 20
211.15
 10
147.79
 20
211.143
 10
147.776
 20
211.13
 10
147.762
 20
211.118
 10
147.747
 20
211.107
 10
147.731
 20
211.097
 10
147.715
 20
211.087
 10
147.698
 20
211.078
 10
147.68
 20
211.07
 10
147.661
 20
211.063
 10
147.642
 20
211.057
 10
147.624
 20
211.052
 10
147.605
 20
211.048
 10
147.588
 20
211.045
 10
147.57
 20
211.044
 10
147.553
 20
211.043
 10
147.536
 20
211.043
 10
147.52
 20
211.045
 97
0
 92
2
 72
0
 73
1
 93
9
 10
147.07
 20
210.488
 10
146.224
 20
211.333
 10
146.046
 20
211.155
 10
146.892
 20
210.31
 10
146.585
 20
210.003
 10
146.74
 20
209.847
 10
147.532
 20
210.639
 10
147.377
 20
210.795
 10
147.07
 20
210.488
 97
0
 92
2
 72
0
 73
1
 93
129
 10
146.175
 20
210.277
 10
146.145
 20
210.305
 10
146.115
 20
210.332
 10
146.084
 20
210.357
 10
146.052
 20
210.379
 10
146.02
 20
210.4
 10
145.988
 20
210.419
 10
145.954
 20
210.436
 10
145.92
 20
210.451
 10
145.886
 20
210.464
 10
145.851
 20
210.476
 10
145.817
 20
210.485
 10
145.782
 20
210.493
 10
145.747
 20
210.499
 10
145.712
 20
210.503
 10
145.677
 20
210.506
 10
145.642
 20
210.506
 10
145.606
 20
210.505
 10
145.571
 20
210.502
 10
145.536
 20
210.497
 10
145.501
 20
210.49
 10
145.466
 20
210.482
 10
145.432
 20
210.471
 10
145.397
 20
210.459
 10
145.363
 20
210.445
 10
145.329
 20
210.43
 10
145.296
 20
210.412
 10
145.263
 20
210.393
 10
145.231
 20
210.372
 10
145.2
 20
210.349
 10
145.169
 20
210.324
 10
145.139
 20
210.298
 10
145.11
 20
210.27
 10
145.081
 20
210.24
 10
145.055
 20
210.21
 10
145.03
 20
210.179
 10
145.007
 20
210.147
 10
144.985
 20
210.115
 10
144.966
 20
210.082
 10
144.948
 20
210.049
 10
144.932
 20
210.015
 10
144.918
 20
209.98
 10
144.906
 20
209.946
 10
144.895
 20
209.911
 10
144.887
 20
209.876
 10
144.88
 20
209.841
 10
144.875
 20
209.806
 10
144.872
 20
209.77
 10
144.87
 20
209.735
 10
144.871
 20
209.699
 10
144.873
 20
209.664
 10
144.877
 20
209.629
 10
144.883
 20
209.594
 10
144.89
 20
209.559
 10
144.9
 20
209.524
 10
144.911
 20
209.49
 10
144.925
 20
209.455
 10
144.94
 20
209.421
 10
144.957
 20
209.388
 10
144.976
 20
209.355
 10
144.996
 20
209.323
 10
145.019
 20
209.292
 10
145.044
 20
209.261
 10
145.07
 20
209.231
 10
145.099
 20
209.201
 10
145.129
 20
209.172
 10
145.16
 20
209.145
 10
145.191
 20
209.12
 10
145.223
 20
209.097
 10
145.255
 20
209.075
 10
145.288
 20
209.056
 10
145.322
 20
209.039
 10
145.356
 20
209.024
 10
145.39
 20
209.011
 10
145.425
 20
209.0
 10
145.459
 20
208.99
 10
145.494
 20
208.983
 10
145.528
 20
208.977
 10
145.563
 20
208.973
 10
145.598
 20
208.972
 10
145.633
 20
208.972
 10
145.668
 20
208.974
 10
145.703
 20
208.977
 10
145.738
 20
208.983
 10
145.772
 20
208.99
 10
145.806
 20
209.0
 10
145.841
 20
209.011
 10
145.875
 20
209.024
 10
145.909
 20
209.038
 10
145.943
 20
209.055
 10
145.976
 20
209.073
 10
146.008
 20
209.093
 10
146.04
 20
209.114
 10
146.071
 20
209.138
 10
146.102
 20
209.163
 10
146.132
 20
209.189
 10
146.162
 20
209.218
 10
146.19
 20
209.247
 10
146.217
 20
209.277
 10
146.241
 20
209.307
 10
146.264
 20
209.339
 10
146.286
 20
209.37
 10
146.305
 20
209.403
 10
146.323
 20
209.435
 10
146.339
 20
209.469
 10
146.354
 20
209.503
 10
146.367
 20
209.537
 10
146.377
 20
209.571
 10
146.387
 20
209.605
 10
146.394
 20
209.639
 10
146.399
 20
209.674
 10
146.403
 20
209.708
 10
146.405
 20
209.743
 10
146.404
 20
209.778
 10
146.403
 20
209.813
 10
146.399
 20
209.847
 10
146.393
 20
209.882
 10
146.385
 20
209.916
 10
146.376
 20
209.951
 10
146.365
 20
209.985
 10
146.352
 20
210.02
 10
146.336
 20
210.054
 10
146.319
 20
210.087
 10
146.3
 20
210.12
 10
146.279
 20
210.153
 10
146.256
 20
210.185
 10
146.231
 20
210.216
 10
146.204
 20
210.247
 10
146.175
 20
210.277
 97
0
 92
2
 72
0
 73
1
 93
129
 10
145.981
 20
210.083
 10
146.0
 20
210.064
 10
146.018
 20
210.044
 10
146.034
 20
210.023
 10
146.05
 20
210.002
 10
146.064
 20
209.981
 10
146.077
 20
209.959
 10
146.089
 20
209.937
 10
146.1
 20
209.914
 10
146.11
 20
209.891
 10
146.119
 20
209.868
 10
146.127
 20
209.845
 10
146.133
 20
209.822
 10
146.138
 20
209.799
 10
146.142
 20
209.776
 10
146.145
 20
209.752
 10
146.146
 20
209.728
 10
146.147
 20
209.705
 10
146.146
 20
209.681
 10
146.144
 20
209.658
 10
146.141
 20
209.634
 10
146.137
 20
209.611
 10
146.131
 20
209.588
 10
146.124
 20
209.565
 10
146.116
 20
209.542
 10
146.107
 20
209.52
 10
146.096
 20
209.498
 10
146.084
 20
209.476
 10
146.071
 20
209.455
 10
146.056
 20
209.434
 10
146.04
 20
209.413
 10
146.022
 20
209.393
 10
146.004
 20
209.373
 10
145.984
 20
209.355
 10
145.964
 20
209.337
 10
145.943
 20
209.321
 10
145.922
 20
209.306
 10
145.901
 20
209.293
 10
145.879
 20
209.281
 10
145.857
 20
209.27
 10
145.834
 20
209.26
 10
145.811
 20
209.252
 10
145.788
 20
209.245
 10
145.765
 20
209.239
 10
145.741
 20
209.235
 10
145.718
 20
209.232
 10
145.694
 20
209.229
 10
145.671
 20
209.229
 10
145.647
 20
209.229
 10
145.624
 20
209.231
 10
145.6
 20
209.234
 10
145.577
 20
209.238
 10
145.553
 20
209.243
 10
145.53
 20
209.249
 10
145.507
 20
209.257
 10
145.484
 20
209.265
 10
145.461
 20
209.275
 10
145.439
 20
209.286
 10
145.416
 20
209.298
 10
145.395
 20
209.311
 10
145.373
 20
209.326
 10
145.352
 20
209.341
 10
145.332
 20
209.358
 10
145.312
 20
209.376
 10
145.292
 20
209.395
 10
145.273
 20
209.415
 10
145.254
 20
209.436
 10
145.237
 20
209.457
 10
145.221
 20
209.478
 10
145.206
 20
209.5
 10
145.193
 20
209.522
 10
145.18
 20
209.544
 10
145.169
 20
209.567
 10
145.159
 20
209.59
 10
145.15
 20
209.613
 10
145.143
 20
209.637
 10
145.137
 20
209.66
 10
145.131
 20
209.683
 10
145.127
 20
209.707
 10
145.125
 20
209.731
 10
145.123
 20
209.755
 10
145.123
 20
209.778
 10
145.124
 20
209.802
 10
145.126
 20
209.826
 10
145.13
 20
209.849
 10
145.134
 20
209.872
 10
145.14
 20
209.895
 10
145.147
 20
209.918
 10
145.156
 20
209.941
 10
145.165
 20
209.964
 10
145.176
 20
209.986
 10
145.189
 20
210.008
 10
145.202
 20
210.029
 10
145.217
 20
210.049
 10
145.233
 20
210.07
 10
145.25
 20
210.089
 10
145.268
 20
210.109
 10
145.288
 20
210.127
 10
145.307
 20
210.144
 10
145.327
 20
210.16
 10
145.348
 20
210.175
 10
145.369
 20
210.188
 10
145.391
 20
210.2
 10
145.413
 20
210.211
 10
145.435
 20
210.22
 10
145.458
 20
210.229
 10
145.481
 20
210.236
 10
145.504
 20
210.242
 10
145.527
 20
210.246
 10
145.55
 20
210.249
 10
145.574
 20
210.252
 10
145.597
 20
210.253
 10
145.621
 20
210.252
 10
145.645
 20
210.251
 10
145.669
 20
210.248
 10
145.692
 20
210.244
 10
145.716
 20
210.239
 10
145.739
 20
210.233
 10
145.762
 20
210.225
 10
145.785
 20
210.216
 10
145.808
 20
210.206
 10
145.831
 20
210.195
 10
145.854
 20
210.183
 10
145.876
 20
210.169
 10
145.898
 20
210.154
 10
145.919
 20
210.138
 10
145.94
 20
210.121
 10
145.961
 20
210.103
 10
145.981
 20
210.083
 97
0
 92
2
 72
0
 73
1
 93
57
 10
145.424
 20
208.531
 10
144.423
 20
209.532
 10
144.244
 20
209.354
 10
144.669
 20
208.929
 10
144.538
 20
208.799
 10
143.882
 20
208.992
 10
143.667
 20
208.777
 10
144.379
 20
208.6
 10
144.36
 20
208.567
 10
144.343
 20
208.535
 10
144.33
 20
208.502
 10
144.319
 20
208.47
 10
144.311
 20
208.437
 10
144.306
 20
208.405
 10
144.303
 20
208.372
 10
144.304
 20
208.34
 10
144.307
 20
208.307
 10
144.314
 20
208.276
 10
144.323
 20
208.245
 10
144.336
 20
208.215
 10
144.352
 20
208.185
 10
144.372
 20
208.156
 10
144.394
 20
208.128
 10
144.42
 20
208.101
 10
144.44
 20
208.082
 10
144.46
 20
208.064
 10
144.48
 20
208.049
 10
144.501
 20
208.035
 10
144.521
 20
208.023
 10
144.542
 20
208.013
 10
144.564
 20
208.004
 10
144.585
 20
207.997
 10
144.607
 20
207.992
 10
144.628
 20
207.988
 10
144.65
 20
207.985
 10
144.671
 20
207.984
 10
144.693
 20
207.984
 10
144.714
 20
207.985
 10
144.736
 20
207.987
 10
144.757
 20
207.991
 10
144.778
 20
207.996
 10
144.8
 20
208.002
 10
144.821
 20
208.009
 10
144.841
 20
208.017
 10
144.862
 20
208.026
 10
144.883
 20
208.037
 10
144.903
 20
208.048
 10
144.924
 20
208.06
 10
144.944
 20
208.073
 10
144.964
 20
208.087
 10
144.983
 20
208.102
 10
145.003
 20
208.117
 10
145.021
 20
208.132
 10
145.04
 20
208.148
 10
145.058
 20
208.165
 10
145.076
 20
208.183
 10
145.424
 20
208.531
 97
0
 92
2
 72
0
 73
1
 93
68
 10
144.669
 20
208.638
 10
144.814
 20
208.784
 10
145.096
 20
208.502
 10
144.934
 20
208.341
 10
144.926
 20
208.333
 10
144.917
 20
208.324
 10
144.908
 20
208.316
 10
144.899
 20
208.308
 10
144.889
 20
208.3
 10
144.879
 20
208.292
 10
144.869
 20
208.284
 10
144.859
 20
208.277
 10
144.848
 20
208.269
 10
144.838
 20
208.263
 10
144.827
 20
208.256
 10
144.817
 20
208.251
 10
144.806
 20
208.246
 10
144.795
 20
208.241
 10
144.784
 20
208.237
 10
144.773
 20
208.234
 10
144.762
 20
208.231
 10
144.751
 20
208.228
 10
144.74
 20
208.227
 10
144.729
 20
208.226
 10
144.718
 20
208.226
 10
144.707
 20
208.226
 10
144.696
 20
208.227
 10
144.685
 20
208.229
 10
144.674
 20
208.231
 10
144.663
 20
208.235
 10
144.652
 20
208.239
 10
144.641
 20
208.245
 10
144.631
 20
208.251
 10
144.62
 20
208.259
 10
144.61
 20
208.268
 10
144.599
 20
208.277
 10
144.589
 20
208.289
 10
144.579
 20
208.3
 10
144.57
 20
208.312
 10
144.563
 20
208.324
 10
144.557
 20
208.335
 10
144.552
 20
208.347
 10
144.548
 20
208.359
 10
144.545
 20
208.371
 10
144.543
 20
208.384
 10
144.542
 20
208.396
 10
144.541
 20
208.408
 10
144.542
 20
208.419
 10
144.543
 20
208.431
 10
144.545
 20
208.443
 10
144.547
 20
208.455
 10
144.551
 20
208.466
 10
144.555
 20
208.478
 10
144.559
 20
208.489
 10
144.564
 20
208.5
 10
144.57
 20
208.512
 10
144.576
 20
208.523
 10
144.583
 20
208.534
 10
144.59
 20
208.545
 10
144.598
 20
208.556
 10
144.606
 20
208.567
 10
144.615
 20
208.578
 10
144.623
 20
208.588
 10
144.632
 20
208.598
 10
144.641
 20
208.609
 10
144.65
 20
208.619
 10
144.659
 20
208.628
 10
144.669
 20
208.638
 97
0
 92
2
 72
0
 73
1
 93
17
 10
144.534
 20
207.641
 10
143.533
 20
208.642
 10
143.363
 20
208.473
 10
144.168
 20
207.668
 10
144.165
 20
207.665
 10
143.061
 20
208.17
 10
142.936
 20
208.045
 10
143.437
 20
206.937
 10
143.434
 20
206.934
 10
142.629
 20
207.739
 10
142.453
 20
207.562
 10
143.454
 20
206.561
 10
143.734
 20
206.841
 10
143.28
 20
207.809
 10
143.284
 20
207.814
 10
144.256
 20
207.362
 10
144.534
 20
207.641
 97
0
 75
0
 76
1
 98
0
  0
HATCH
  5
5E
330
17
100
AcDbEntity
  8
RASTER
 62
7
100
AcDbHatch
 10
0.0
 20
0.0
 30
0.0
210
0.0
220
0.0
230
1.0
  2
SOLID
 70
1
 71
0
 91
9
 92
3
 72
0
 73
1
 93
50
 10
185.479
 20
215.136
 10
185.825
 20
214.881
 10
186.167
 20
214.622
 10
186.506
 20
214.358
 10
186.842
 20
214.09
 10
187.174
 20
213.818
 10
187.502
 20
213.541
 10
187.827
 20
213.26
 10
188.147
 20
212.975
 10
188.465
 20
212.686
 10
188.778
 20
212.392
 10
189.088
 20
212.095
 10
189.393
 20
211.793
 10
189.695
 20
211.488
 10
189.992
 20
211.178
 10
190.286
 20
210.865
 10
190.575
 20
210.547
 10
190.86
 20
210.227
 10
191.141
 20
209.902
 10
191.418
 20
209.574
 10
191.69
 20
209.242
 10
191.958
 20
208.906
 10
192.222
 20
208.567
 10
192.481
 20
208.225
 10
192.736
 20
207.879
 10
170.407
 20
191.656
 10
170.367
 20
191.711
 10
170.325
 20
191.766
 10
170.284
 20
191.819
 10
170.241
 20
191.872
 10
170.198
 20
191.925
 10
170.154
 20
191.977
 10
170.11
 20
192.029
 10
170.064
 20
192.079
 10
170.018
 20
192.13
 10
169.972
 20
192.179
 10
169.925
 20
192.229
 10
169.877
 20
192.277
 10
169.829
 20
192.325
 10
169.779
 20
192.372
 10
169.73
 20
192.418
 10
169.679
 20
192.464
 10
169.629
 20
192.51
 10
169.577
 20
192.554
 10
169.525
 20
192.598
 10
169.472
 20
192.641
 10
169.419
 20
192.684
 10
169.366
 20
192.725
 10
169.311
 20
192.767
 10
169.256
 20
192.807
 97
0
 92
2
 72
0
 73
1
 93
56
 10
184.744
 20
207.066
 10
184.319
 20
207.255
 10
183.767
 20
207.327
 10
183.607
 20
207.516
 10
183.416
 20
207.663
 10
183.182
 20
207.756
 10
183.044
 20
207.777
 10
182.736
 20
207.754
 10
182.311
 20
207.567
 10
181.918
 20
207.703
 10
181.504
 20
207.712
 10
181.259
 20
207.641
 10
180.972
 20
207.474
 10
180.686
 20
207.187
 10
180.545
 20
206.953
 10
180.45
 20
206.634
 10
180.475
 20
206.135
 10
180.598
 20
205.827
 10
180.749
 20
205.614
 10
181.693
 20
204.647
 10
181.61
 20
204.548
 10
180.879
 20
204.127
 10
180.864
 20
204.074
 10
180.898
 20
204.035
 10
181.281
 20
203.895
 10
181.372
 20
203.787
 10
181.302
 20
203.719
 10
180.824
 20
203.536
 10
180.788
 20
203.46
 10
180.834
 20
203.438
 10
182.449
 20
203.549
 10
182.507
 20
203.596
 10
182.492
 20
203.657
 10
182.152
 20
203.825
 10
182.009
 20
203.936
 10
182.035
 20
204.008
 10
182.216
 20
204.067
 10
182.29
 20
204.031
 10
182.991
 20
203.309
 10
183.278
 20
203.09
 10
183.692
 20
202.913
 10
184.096
 20
202.882
 10
184.351
 20
202.913
 10
184.67
 20
203.039
 10
184.957
 20
203.256
 10
185.182
 20
203.564
 10
185.322
 20
204.042
 10
185.295
 20
204.477
 10
185.129
 20
204.913
 10
185.269
 20
205.136
 10
185.384
 20
205.434
 10
185.422
 20
205.742
 10
185.414
 20
206.05
 10
185.322
 20
206.369
 10
185.176
 20
206.645
 10
184.744
 20
207.066
 97
0
 92
2
 72
0
 73
1
 93
323
 10
188.645
 20
207.28
 10
188.402
 20
207.269
 10
188.404
 20
207.241
 10
188.407
 20
207.214
 10
188.412
 20
207.186
 10
188.418
 20
207.159
 10
188.426
 20
207.132
 10
188.435
 20
207.105
 10
188.445
 20
207.078
 10
188.458
 20
207.052
 10
188.471
 20
207.026
 10
188.485
 20
207.001
 10
188.5
 20
206.977
 10
188.515
 20
206.954
 10
188.532
 20
206.932
 10
188.549
 20
206.91
 10
188.567
 20
206.89
 10
188.586
 20
206.87
 10
188.603
 20
206.854
 10
188.62
 20
206.838
 10
188.639
 20
206.822
 10
188.657
 20
206.807
 10
188.677
 20
206.793
 10
188.696
 20
206.78
 10
188.716
 20
206.767
 10
188.737
 20
206.754
 10
188.758
 20
206.743
 10
188.779
 20
206.732
 10
188.8
 20
206.723
 10
188.821
 20
206.714
 10
188.843
 20
206.707
 10
188.864
 20
206.7
 10
188.886
 20
206.695
 10
188.908
 20
206.691
 10
188.93
 20
206.687
 10
188.952
 20
206.685
 10
188.974
 20
206.684
 10
188.996
 20
206.685
 10
189.017
 20
206.686
 10
189.039
 20
206.689
 10
189.061
 20
206.693
 10
189.083
 20
206.698
 10
189.104
 20
206.705
 10
189.126
 20
206.713
 10
189.146
 20
206.723
 10
189.167
 20
206.735
 10
189.187
 20
206.748
 10
189.207
 20
206.763
 10
189.227
 20
206.78
 10
189.246
 20
206.798
 10
189.263
 20
206.816
 10
189.279
 20
206.833
 10
189.293
 20
206.851
 10
189.305
 20
206.869
 10
189.316
 20
206.886
 10
189.326
 20
206.904
 10
189.335
 20
206.921
 10
189.341
 20
206.939
 10
189.347
 20
206.956
 10
189.352
 20
206.974
 10
189.356
 20
206.991
 10
189.359
 20
207.008
 10
189.361
 20
207.026
 10
189.363
 20
207.043
 10
189.363
 20
207.06
 10
189.363
 20
207.077
 10
189.361
 20
207.094
 10
189.36
 20
207.111
 10
189.357
 20
207.128
 10
189.354
 20
207.145
 10
189.35
 20
207.162
 10
189.345
 20
207.178
 10
189.34
 20
207.195
 10
189.334
 20
207.211
 10
189.327
 20
207.227
 10
189.321
 20
207.243
 10
189.314
 20
207.259
 10
189.307
 20
207.275
 10
189.3
 20
207.29
 10
189.292
 20
207.305
 10
189.285
 20
207.321
 10
189.277
 20
207.336
 10
189.269
 20
207.351
 10
189.262
 20
207.366
 10
189.254
 20
207.381
 10
189.247
 20
207.396
 10
189.239
 20
207.411
 10
189.232
 20
207.426
 10
189.225
 20
207.44
 10
189.218
 20
207.454
 10
189.211
 20
207.468
 10
189.205
 20
207.482
 10
189.199
 20
207.496
 10
189.194
 20
207.509
 10
189.189
 20
207.523
 10
189.184
 20
207.536
 10
189.181
 20
207.548
 10
189.177
 20
207.561
 10
189.175
 20
207.574
 10
189.173
 20
207.586
 10
189.171
 20
207.598
 10
189.17
 20
207.61
 10
189.17
 20
207.622
 10
189.171
 20
207.633
 10
189.172
 20
207.645
 10
189.173
 20
207.656
 10
189.176
 20
207.667
 10
189.179
 20
207.678
 10
189.184
 20
207.689
 10
189.189
 20
207.699
 10
189.195
 20
207.71
 10
189.203
 20
207.72
 10
189.211
 20
207.73
 10
189.221
 20
207.74
 10
189.231
 20
207.75
 10
189.241
 20
207.759
 10
189.252
 20
207.767
 10
189.262
 20
207.774
 10
189.273
 20
207.78
 10
189.284
 20
207.785
 10
189.295
 20
207.789
 10
189.305
 20
207.792
 10
189.316
 20
207.795
 10
189.327
 20
207.797
 10
189.338
 20
207.798
 10
189.349
 20
207.799
 10
189.36
 20
207.799
 10
189.372
 20
207.799
 10
189.383
 20
207.797
 10
189.394
 20
207.796
 10
189.405
 20
207.794
 10
189.416
 20
207.791
 10
189.427
 20
207.788
 10
189.437
 20
207.784
 10
189.448
 20
207.779
 10
189.458
 20
207.775
 10
189.469
 20
207.769
 10
189.479
 20
207.763
 10
189.489
 20
207.757
 10
189.498
 20
207.751
 10
189.508
 20
207.744
 10
189.517
 20
207.737
 10
189.525
 20
207.73
 10
189.534
 20
207.723
 10
189.542
 20
207.715
 10
189.55
 20
207.707
 10
189.564
 20
207.692
 10
189.578
 20
207.676
 10
189.591
 20
207.658
 10
189.603
 20
207.64
 10
189.614
 20
207.621
 10
189.624
 20
207.6
 10
189.633
 20
207.579
 10
189.641
 20
207.557
 10
189.649
 20
207.534
 10
189.654
 20
207.511
 10
189.659
 20
207.489
 10
189.662
 20
207.466
 10
189.663
 20
207.444
 10
189.663
 20
207.422
 10
189.662
 20
207.4
 10
189.659
 20
207.378
 10
189.905
 20
207.369
 10
189.907
 20
207.402
 10
189.906
 20
207.434
 10
189.904
 20
207.467
 10
189.899
 20
207.499
 10
189.892
 20
207.532
 10
189.883
 20
207.564
 10
189.872
 20
207.597
 10
189.859
 20
207.629
 10
189.844
 20
207.661
 10
189.828
 20
207.692
 10
189.81
 20
207.722
 10
189.792
 20
207.75
 10
189.772
 20
207.778
 10
189.751
 20
207.805
 10
189.728
 20
207.831
 10
189.704
 20
207.856
 10
189.686
 20
207.874
 10
189.667
 20
207.891
 10
189.647
 20
207.907
 10
189.628
 20
207.923
 10
189.607
 20
207.937
 10
189.587
 20
207.951
 10
189.566
 20
207.964
 10
189.544
 20
207.976
 10
189.523
 20
207.987
 10
189.501
 20
207.997
 10
189.479
 20
208.006
 10
189.457
 20
208.014
 10
189.435
 20
208.02
 10
189.413
 20
208.025
 10
189.391
 20
208.03
 10
189.369
 20
208.033
 10
189.347
 20
208.035
 10
189.324
 20
208.035
 10
189.302
 20
208.034
 10
189.28
 20
208.033
 10
189.257
 20
208.029
 10
189.235
 20
208.025
 10
189.213
 20
208.019
 10
189.19
 20
208.012
 10
189.168
 20
208.004
 10
189.146
 20
207.994
 10
189.124
 20
207.982
 10
189.103
 20
207.969
 10
189.082
 20
207.955
 10
189.061
 20
207.938
 10
189.04
 20
207.921
 10
189.02
 20
207.901
 10
189.002
 20
207.883
 10
188.986
 20
207.864
 10
188.972
 20
207.846
 10
188.959
 20
207.827
 10
188.948
 20
207.808
 10
188.938
 20
207.789
 10
188.931
 20
207.77
 10
188.924
 20
207.751
 10
188.919
 20
207.731
 10
188.915
 20
207.712
 10
188.912
 20
207.693
 10
188.911
 20
207.674
 10
188.91
 20
207.655
 10
188.91
 20
207.636
 10
188.911
 20
207.617
 10
188.913
 20
207.598
 10
188.916
 20
207.579
 10
188.92
 20
207.56
 10
188.924
 20
207.542
 10
188.929
 20
207.523
 10
188.935
 20
207.505
 10
188.941
 20
207.487
 10
188.948
 20
207.469
 10
188.955
 20
207.451
 10
188.963
 20
207.433
 10
188.971
 20
207.416
 10
188.979
 20
207.398
 10
188.987
 20
207.381
 10
188.995
 20
207.365
 10
189.004
 20
207.348
 10
189.012
 20
207.332
 10
189.02
 20
207.316
 10
189.027
 20
207.302
 10
189.034
 20
207.289
 10
189.041
 20
207.275
 10
189.048
 20
207.262
 10
189.054
 20
207.25
 10
189.06
 20
207.237
 10
189.066
 20
207.225
 10
189.072
 20
207.212
 10
189.078
 20
207.201
 10
189.082
 20
207.189
 10
189.087
 20
207.177
 10
189.091
 20
207.166
 10
189.095
 20
207.155
 10
189.098
 20
207.144
 10
189.1
 20
207.133
 10
189.102
 20
207.123
 10
189.104
 20
207.112
 10
189.105
 20
207.102
 10
189.106
 20
207.092
 10
189.106
 20
207.082
 10
189.105
 20
207.072
 10
189.104
 20
207.062
 10
189.103
 20
207.052
 10
189.1
 20
207.043
 10
189.098
 20
207.033
 10
189.094
 20
207.024
 10
189.09
 20
207.015
 10
189.084
 20
207.006
 10
189.079
 20
206.997
 10
189.072
 20
206.988
 10
189.065
 20
206.979
 10
189.057
 20
206.971
 10
189.047
 20
206.962
 10
189.038
 20
206.954
 10
189.028
 20
206.947
 10
189.018
 20
206.941
 10
189.008
 20
206.935
 10
188.998
 20
206.931
 10
188.988
 20
206.927
 10
188.977
 20
206.924
 10
188.967
 20
206.922
 10
188.956
 20
206.92
 10
188.946
 20
206.919
 10
188.935
 20
206.919
 10
188.925
 20
206.919
 10
188.914
 20
206.92
 10
188.904
 20
206.921
 10
188.893
 20
206.923
 10
188.883
 20
206.926
 10
188.872
 20
206.929
 10
188.862
 20
206.932
 10
188.852
 20
206.936
 10
188.842
 20
206.94
 10
188.832
 20
206.945
 10
188.822
 20
206.95
 10
188.813
 20
206.956
 10
188.803
 20
206.962
 10
188.794
 20
206.968
 10
188.784
 20
206.974
 10
188.776
 20
206.981
 10
188.767
 20
206.988
 10
188.759
 20
206.995
 10
188.75
 20
207.003
 10
188.743
 20
207.01
 10
188.73
 20
207.024
 10
188.718
 20
207.038
 10
188.707
 20
207.053
 10
188.697
 20
207.069
 10
188.687
 20
207.085
 10
188.678
 20
207.102
 10
188.67
 20
207.12
 10
188.663
 20
207.139
 10
188.657
 20
207.158
 10
188.652
 20
207.176
 10
188.648
 20
207.195
 10
188.645
 20
207.212
 10
188.644
 20
207.23
 10
188.643
 20
207.247
 10
188.643
 20
207.264
 10
188.645
 20
207.28
 97
0
 92
2
 72
0
 73
1
 93
9
 10
188.088
 20
207.73
 10
188.933
 20
208.576
 10
188.755
 20
208.754
 10
187.91
 20
207.908
 10
187.603
 20
208.215
 10
187.447
 20
208.06
 10
188.239
 20
207.268
 10
188.395
 20
207.423
 10
188.088
 20
207.73
 97
0
 92
2
 72
0
 73
1
 93
129
 10
187.877
 20
208.625
 10
187.905
 20
208.655
 10
187.932
 20
208.685
 10
187.957
 20
208.716
 10
187.979
 20
208.748
 10
188.0
 20
208.78
 10
188.019
 20
208.812
 10
188.036
 20
208.846
 10
188.051
 20
208.88
 10
188.064
 20
208.914
 10
188.076
 20
208.949
 10
188.085
 20
208.983
 10
188.093
 20
209.018
 10
188.099
 20
209.053
 10
188.103
 20
209.088
 10
188.106
 20
209.123
 10
188.106
 20
209.158
 10
188.105
 20
209.194
 10
188.102
 20
209.229
 10
188.097
 20
209.264
 10
188.09
 20
209.299
 10
188.082
 20
209.334
 10
188.071
 20
209.368
 10
188.059
 20
209.403
 10
188.045
 20
209.437
 10
188.03
 20
209.471
 10
188.012
 20
209.504
 10
187.993
 20
209.537
 10
187.972
 20
209.569
 10
187.949
 20
209.6
 10
187.924
 20
209.631
 10
187.898
 20
209.661
 10
187.87
 20
209.69
 10
187.84
 20
209.719
 10
187.81
 20
209.745
 10
187.779
 20
209.77
 10
187.747
 20
209.793
 10
187.715
 20
209.815
 10
187.682
 20
209.834
 10
187.649
 20
209.852
 10
187.615
 20
209.868
 10
187.58
 20
209.882
 10
187.546
 20
209.894
 10
187.511
 20
209.905
 10
187.476
 20
209.913
 10
187.441
 20
209.92
 10
187.406
 20
209.925
 10
187.37
 20
209.928
 10
187.335
 20
209.93
 10
187.299
 20
209.929
 10
187.264
 20
209.927
 10
187.229
 20
209.923
 10
187.194
 20
209.917
 10
187.159
 20
209.91
 10
187.124
 20
209.9
 10
187.09
 20
209.889
 10
187.055
 20
209.875
 10
187.021
 20
209.86
 10
186.988
 20
209.843
 10
186.955
 20
209.824
 10
186.923
 20
209.804
 10
186.892
 20
209.781
 10
186.861
 20
209.756
 10
186.831
 20
209.73
 10
186.801
 20
209.701
 10
186.772
 20
209.671
 10
186.745
 20
209.64
 10
186.72
 20
209.609
 10
186.697
 20
209.577
 10
186.675
 20
209.545
 10
186.656
 20
209.512
 10
186.639
 20
209.478
 10
186.624
 20
209.444
 10
186.611
 20
209.41
 10
186.6
 20
209.375
 10
186.59
 20
209.341
 10
186.583
 20
209.306
 10
186.577
 20
209.272
 10
186.573
 20
209.237
 10
186.572
 20
209.202
 10
186.572
 20
209.167
 10
186.574
 20
209.132
 10
186.577
 20
209.097
 10
186.583
 20
209.062
 10
186.59
 20
209.028
 10
186.6
 20
208.994
 10
186.611
 20
208.959
 10
186.624
 20
208.925
 10
186.638
 20
208.891
 10
186.655
 20
208.857
 10
186.673
 20
208.824
 10
186.693
 20
208.792
 10
186.714
 20
208.76
 10
186.738
 20
208.729
 10
186.763
 20
208.698
 10
186.789
 20
208.668
 10
186.818
 20
208.638
 10
186.847
 20
208.61
 10
186.877
 20
208.583
 10
186.907
 20
208.559
 10
186.939
 20
208.536
 10
186.97
 20
208.514
 10
187.003
 20
208.495
 10
187.035
 20
208.477
 10
187.069
 20
208.461
 10
187.103
 20
208.446
 10
187.137
 20
208.433
 10
187.171
 20
208.423
 10
187.205
 20
208.413
 10
187.239
 20
208.406
 10
187.274
 20
208.401
 10
187.308
 20
208.397
 10
187.343
 20
208.395
 10
187.378
 20
208.396
 10
187.413
 20
208.397
 10
187.447
 20
208.401
 10
187.482
 20
208.407
 10
187.516
 20
208.415
 10
187.551
 20
208.424
 10
187.585
 20
208.435
 10
187.62
 20
208.448
 10
187.654
 20
208.464
 10
187.687
 20
208.481
 10
187.72
 20
208.5
 10
187.753
 20
208.521
 10
187.785
 20
208.544
 10
187.816
 20
208.569
 10
187.847
 20
208.596
 10
187.877
 20
208.625
 97
0
 92
2
 72
0
 73
1
 93
129
 10
187.683
 20
208.819
 10
187.664
 20
208.8
 10
187.644
 20
208.782
 10
187.623
 20
208.766
 10
187.602
 20
208.75
 10
187.581
 20
208.736
 10
187.559
 20
208.723
 10
187.537
 20
208.711
 10
187.514
 20
208.7
 10
187.491
 20
208.69
 10
187.468
 20
208.681
 10
187.445
 20
208.673
 10
187.422
 20
208.667
 10
187.399
 20
208.662
 10
187.376
 20
208.658
 10
187.352
 20
208.655
 10
187.328
 20
208.654
 10
187.305
 20
208.653
 10
187.281
 20
208.654
 10
187.258
 20
208.656
 10
187.234
 20
208.659
 10
187.211
 20
208.663
 10
187.188
 20
208.669
 10
187.165
 20
208.676
 10
187.142
 20
208.684
 10
187.12
 20
208.693
 10
187.098
 20
208.704
 10
187.076
 20
208.716
 10
187.055
 20
208.729
 10
187.034
 20
208.744
 10
187.013
 20
208.76
 10
186.993
 20
208.778
 10
186.973
 20
208.796
 10
186.955
 20
208.816
 10
186.937
 20
208.836
 10
186.921
 20
208.857
 10
186.906
 20
208.878
 10
186.893
 20
208.899
 10
186.881
 20
208.921
 10
186.87
 20
208.943
 10
186.86
 20
208.966
 10
186.852
 20
208.989
 10
186.845
 20
209.012
 10
186.839
 20
209.035
 10
186.835
 20
209.059
 10
186.832
 20
209.082
 10
186.829
 20
209.106
 10
186.829
 20
209.129
 10
186.829
 20
209.153
 10
186.831
 20
209.176
 10
186.834
 20
209.2
 10
186.838
 20
209.223
 10
186.843
 20
209.247
 10
186.849
 20
209.27
 10
186.857
 20
209.293
 10
186.865
 20
209.316
 10
186.875
 20
209.339
 10
186.886
 20
209.361
 10
186.898
 20
209.384
 10
186.911
 20
209.405
 10
186.926
 20
209.427
 10
186.941
 20
209.448
 10
186.958
 20
209.468
 10
186.976
 20
209.488
 10
186.995
 20
209.508
 10
187.015
 20
209.527
 10
187.036
 20
209.546
 10
187.057
 20
209.563
 10
187.078
 20
209.579
 10
187.1
 20
209.594
 10
187.122
 20
209.607
 10
187.144
 20
209.62
 10
187.167
 20
209.631
 10
187.19
 20
209.641
 10
187.213
 20
209.65
 10
187.237
 20
209.657
 10
187.26
 20
209.663
 10
187.283
 20
209.669
 10
187.307
 20
209.673
 10
187.331
 20
209.675
 10
187.355
 20
209.677
 10
187.378
 20
209.677
 10
187.402
 20
209.676
 10
187.426
 20
209.674
 10
187.449
 20
209.67
 10
187.472
 20
209.666
 10
187.495
 20
209.66
 10
187.518
 20
209.653
 10
187.541
 20
209.644
 10
187.564
 20
209.635
 10
187.586
 20
209.624
 10
187.608
 20
209.611
 10
187.629
 20
209.598
 10
187.649
 20
209.583
 10
187.67
 20
209.567
 10
187.689
 20
209.55
 10
187.709
 20
209.532
 10
187.727
 20
209.512
 10
187.744
 20
209.493
 10
187.76
 20
209.473
 10
187.775
 20
209.452
 10
187.788
 20
209.431
 10
187.8
 20
209.409
 10
187.811
 20
209.387
 10
187.82
 20
209.365
 10
187.829
 20
209.342
 10
187.836
 20
209.319
 10
187.842
 20
209.296
 10
187.846
 20
209.273
 10
187.849
 20
209.25
 10
187.852
 20
209.226
 10
187.853
 20
209.203
 10
187.852
 20
209.179
 10
187.851
 20
209.155
 10
187.848
 20
209.131
 10
187.844
 20
209.108
 10
187.839
 20
209.084
 10
187.833
 20
209.061
 10
187.825
 20
209.038
 10
187.816
 20
209.015
 10
187.806
 20
208.992
 10
187.795
 20
208.969
 10
187.783
 20
208.946
 10
187.769
 20
208.924
 10
187.754
 20
208.902
 10
187.738
 20
208.881
 10
187.721
 20
208.86
 10
187.703
 20
208.839
 10
187.683
 20
208.819
 97
0
 92
2
 72
0
 73
1
 93
57
 10
186.131
 20
209.376
 10
187.132
 20
210.377
 10
186.954
 20
210.556
 10
186.529
 20
210.131
 10
186.399
 20
210.262
 10
186.592
 20
210.918
 10
186.377
 20
211.133
 10
186.2
 20
210.421
 10
186.167
 20
210.44
 10
186.135
 20
210.457
 10
186.102
 20
210.47
 10
186.07
 20
210.481
 10
186.037
 20
210.489
 10
186.005
 20
210.494
 10
185.972
 20
210.497
 10
185.94
 20
210.496
 10
185.907
 20
210.493
 10
185.876
 20
210.486
 10
185.845
 20
210.477
 10
185.815
 20
210.464
 10
185.785
 20
210.448
 10
185.756
 20
210.428
 10
185.728
 20
210.406
 10
185.701
 20
210.38
 10
185.682
 20
210.36
 10
185.664
 20
210.34
 10
185.649
 20
210.32
 10
185.635
 20
210.299
 10
185.623
 20
210.279
 10
185.613
 20
210.258
 10
185.604
 20
210.236
 10
185.597
 20
210.215
 10
185.592
 20
210.193
 10
185.588
 20
210.172
 10
185.585
 20
210.15
 10
185.584
 20
210.129
 10
185.584
 20
210.107
 10
185.585
 20
210.086
 10
185.587
 20
210.064
 10
185.591
 20
210.043
 10
185.596
 20
210.022
 10
185.602
 20
210.0
 10
185.609
 20
209.979
 10
185.617
 20
209.959
 10
185.626
 20
209.938
 10
185.637
 20
209.917
 10
185.648
 20
209.897
 10
185.66
 20
209.876
 10
185.673
 20
209.856
 10
185.687
 20
209.836
 10
185.702
 20
209.817
 10
185.717
 20
209.797
 10
185.732
 20
209.779
 10
185.748
 20
209.76
 10
185.765
 20
209.742
 10
185.783
 20
209.724
 10
186.131
 20
209.376
 97
0
 92
2
 72
0
 73
1
 93
68
 10
186.238
 20
210.131
 10
186.384
 20
209.986
 10
186.102
 20
209.704
 10
185.941
 20
209.866
 10
185.933
 20
209.874
 10
185.924
 20
209.883
 10
185.916
 20
209.892
 10
185.908
 20
209.901
 10
185.9
 20
209.911
 10
185.892
 20
209.921
 10
185.884
 20
209.931
 10
185.877
 20
209.941
 10
185.869
 20
209.952
 10
185.863
 20
209.962
 10
185.856
 20
209.973
 10
185.851
 20
209.983
 10
185.846
 20
209.994
 10
185.841
 20
210.005
 10
185.837
 20
210.016
 10
185.834
 20
210.027
 10
185.831
 20
210.038
 10
185.828
 20
210.049
 10
185.827
 20
210.06
 10
185.826
 20
210.071
 10
185.826
 20
210.082
 10
185.826
 20
210.093
 10
185.827
 20
210.104
 10
185.829
 20
210.115
 10
185.831
 20
210.126
 10
185.835
 20
210.137
 10
185.839
 20
210.148
 10
185.845
 20
210.159
 10
185.851
 20
210.169
 10
185.859
 20
210.18
 10
185.868
 20
210.19
 10
185.877
 20
210.201
 10
185.889
 20
210.211
 10
185.9
 20
210.221
 10
185.912
 20
210.23
 10
185.924
 20
210.237
 10
185.935
 20
210.243
 10
185.947
 20
210.248
 10
185.959
 20
210.252
 10
185.971
 20
210.255
 10
185.984
 20
210.257
 10
185.996
 20
210.258
 10
186.008
 20
210.259
 10
186.019
 20
210.258
 10
186.031
 20
210.257
 10
186.043
 20
210.255
 10
186.055
 20
210.253
 10
186.066
 20
210.249
 10
186.078
 20
210.245
 10
186.089
 20
210.241
 10
186.1
 20
210.236
 10
186.112
 20
210.23
 10
186.123
 20
210.224
 10
186.134
 20
210.217
 10
186.145
 20
210.21
 10
186.156
 20
210.202
 10
186.167
 20
210.194
 10
186.178
 20
210.185
 10
186.188
 20
210.177
 10
186.198
 20
210.168
 10
186.209
 20
210.159
 10
186.219
 20
210.15
 10
186.228
 20
210.141
 10
186.238
 20
210.131
 97
0
 92
2
 72
0
 73
1
 93
17
 10
185.241
 20
210.266
 10
186.242
 20
211.267
 10
186.073
 20
211.437
 10
185.268
 20
210.632
 10
185.265
 20
210.635
 10
185.77
 20
211.739
 10
185.645
 20
211.864
 10
184.537
 20
211.363
 10
184.534
 20
211.366
 10
185.339
 20
212.171
 10
185.162
 20
212.347
 10
184.161
 20
211.346
 10
184.441
 20
211.066
 10
185.409
 20
211.52
 10
185.414
 20
211.516
 10
184.962
 20
210.544
 10
185.241
 20
210.266
 97
0
 75
0
 76
1
 98
0
  0
CIRCLE
  5
5F
330
17
100
AcDbEntity
  8
CUT
100
AcDbCircle
 10
52.0
 20
52.0
 30
0.0
 40
48.04
  0
CIRCLE
  5
60
330
17
100
AcDbEntity
  8
CUT
100
AcDbCircle
 10
52.0
 20
52.0
 30
0.0
 40
35.36
  0
LWPOLYLINE
  5
61
330
17
100
AcDbEntity
  8
CUT
100
AcDbPolyline
 90
4
 70
1
 10
50.465
 20
98.46
 10
53.535
 20
98.46
 10
53.535
 20
91.54
 10
50.465
 20
91.54
  0
HATCH
  5
62
330
17
100
AcDbEntity
  8
RASTER
 62
7
100
AcDbHatch
 10
0.0
 20
0.0
 30
0.0
210
0.0
220
0.0
230
1.0
  2
SOLID
 70
1
 71
0
 91
2
 92
3
 72
0
 73
1
 93
48
 10
99.0
 20
52.0
 10
98.598
 20
45.865
 10
97.399
 20
39.836
 10
95.422
 20
34.014
 10
92.703
 20
28.5
 10
89.288
 20
23.388
 10
85.234
 20
18.766
 10
80.612
 20
14.712
 10
75.5
 20
11.297
 10
69.986
 20
8.578
 10
64.164
 20
6.601
 10
58.135
 20
5.402
 10
52.0
 20
5.0
 10
45.865
 20
5.402
 10
39.836
 20
6.601
 10
34.014
 20
8.578
 10
28.5
 20
11.297
 10
23.388
 20
14.712
 10
18.766
 20
18.766
 10
14.712
 20
23.388
 10
11.297
 20
28.5
 10
8.578
 20
34.014
 10
6.601
 20
39.836
 10
5.402
 20
45.865
 10
5.0
 20
52.0
 10
5.402
 20
58.135
 10
6.601
 20
64.164
 10
8.578
 20
69.986
 10
11.297
 20
75.5
 10
14.712
 20
80.612
 10
18.766
 20
85.234
 10
23.388
 20
89.288
 10
28.5
 20
92.703
 10
34.014
 20
95.422
 10
39.836
 20
97.399
 10
45.865
 20
98.598
 10
52.0
 20
99.0
 10
58.135
 20
98.598
 10
64.164
 20
97.399
 10
69.986
 20
95.422
 10
75.5
 20
92.703
 10
80.612
 20
89.288
 10
85.234
 20
85.234
 10
89.288
 20
80.612
 10
92.703
 20
75.5
 10
95.422
 20
69.986
 10
97.399
 20
64.164
 10
98.598
 20
58.135
 97
0
 92
2
 72
0
 73
1
 93
48
 10
98.4
 20
52.0
 10
98.003
 20
45.944
 10
96.819
 20
39.991
 10
94.868
 20
34.243
 10
92.184
 20
28.8
 10
88.812
 20
23.753
 10
84.81
 20
19.19
 10
80.247
 20
15.188
 10
75.2
 20
11.816
 10
69.757
 20
9.132
 10
64.009
 20
7.181
 10
58.056
 20
5.997
 10
52.0
 20
5.6
 10
45.944
 20
5.997
 10
39.991
 20
7.181
 10
34.243
 20
9.132
 10
28.8
 20
11.816
 10
23.753
 20
15.188
 10
19.19
 20
19.19
 10
15.188
 20
23.753
 10
11.816
 20
28.8
 10
9.132
 20
34.243
 10
7.181
 20
39.991
 10
5.997
 20
45.944
 10
5.6
 20
52.0
 10
5.997
 20
58.056
 10
7.181
 20
64.009
 10
9.132
 20
69.757
 10
11.816
 20
75.2
 10
15.188
 20
80.247
 10
19.19
 20
84.81
 10
23.753
 20
88.812
 10
28.8
 20
92.184
 10
34.243
 20
94.868
 10
39.991
 20
96.819
 10
45.944
 20
98.003
 10
52.0
 20
98.4
 10
58.056
 20
98.003
 10
64.009
 20
96.819
 10
69.757
 20
94.868
 10
75.2
 20
92.184
 10
80.247
 20
88.812
 10
84.81
 20
84.81
 10
88.812
 20
80.247
 10
92.184
 20
75.2
 10
94.868
 20
69.757
 10
96.819
 20
64.009
 10
98.003
 20
58.056
 97
0
 75
0
 76
1
 98
0
  0
HATCH
  5
63
330
17
100
AcDbEntity
  8
RASTER
 62
7
100
AcDbHatch
 10
0.0
 20
0.0
 30
0.0
210
0.0
220
0.0
230
1.0
  2
SOLID
 70
1
 71
0
 91
1
 92
3
 72
0
 73
1
 93
4
 10
52.0
 20
87.7
 10
51.5
 20
88.8
 10
52.0
 20
89.5
 10
52.5
 20
88.8
 97
0
 75
0
 76
1
 98
0
  0
HATCH
  5
64
330
17
100
AcDbEntity
  8
RASTER
 62
7
100
AcDbHatch
 10
0.0
 20
0.0
 30
0.0
210
0.0
220
0.0
230
1.0
  2
SOLID
 70
1
 71
0
 91
1
 92
3
 72
0
 73
1
 93
36
 10
52.0
 20
89.5
 10
51.726
 20
89.279
 10
51.442
 20
89.139
 10
51.165
 20
89.076
 10
50.912
 20
89.088
 10
50.702
 20
89.169
 10
50.552
 20
89.317
 10
50.478
 20
89.529
 10
50.5
 20
89.8
 10
50.559
 20
89.96
 10
50.656
 20
90.069
 10
50.781
 20
90.13
 10
50.925
 20
90.15
 10
51.078
 20
90.132
 10
51.231
 20
90.081
 10
51.375
 20
90.002
 10
51.5
 20
89.9
 10
51.7
 20
90.3
 10
52.3
 20
90.3
 10
52.5
 20
89.9
 10
52.625
 20
90.002
 10
52.769
 20
90.081
 10
52.922
 20
90.132
 10
53.075
 20
90.15
 10
53.219
 20
90.13
 10
53.344
 20
90.069
 10
53.441
 20
89.96
 10
53.5
 20
89.8
 10
53.522
 20
89.529
 10
53.448
 20
89.317
 10
53.298
 20
89.169
 10
53.088
 20
89.087
 10
52.835
 20
89.076
 10
52.558
 20
89.139
 10
52.274
 20
89.279
 10
52.0
 20
89.5
 97
0
 75
0
 76
1
 98
0
  0
HATCH
  5
65
330
17
100
AcDbEntity
  8
RASTER
 62
7
100
AcDbHatch
 10
0.0
 20
0.0
 30
0.0
210
0.0
220
0.0
230
1.0
  2
SOLID
 70
1
 71
0
 91
1
 92
3
 72
0
 73
1
 93
4
 10
52.3
 20
90.4
 10
51.7
 20
90.4
 10
51.7
 20
90.7
 10
52.3
 20
90.7
 97
0
 75
0
 76
1
 98
0
  0
HATCH
  5
66
330
17
100
AcDbEntity
  8
RASTER
 62
7
100
AcDbHatch
 10
0.0
 20
0.0
 30
0.0
210
0.0
220
0.0
230
1.0
  2
SOLID
 70
1
 71
0
 91
1
 92
3
 72
0
 73
1
 93
16
 10
43.449
 20
11.124
 10
43.863
 20
11.124
 10
44.274
 20
9.564
 10
44.28
 20
9.564
 10
44.748
 20
11.124
 10
45.138
 20
11.124
 10
45.597
 20
9.564
 10
45.603
 20
9.564
 10
46.023
 20
11.124
 10
46.425
 20
11.124
 10
45.804
 20
9.0
 10
45.438
 20
9.0
 10
44.94
 20
10.593
 10
44.934
 20
10.593
 10
44.436
 20
9.0
 10
44.07
 20
9.0
 97
0
 75
0
 76
1
 98
0
  0
HATCH
  5
67
330
17
100
AcDbEntity
  8
RASTER
 62
7
100
AcDbHatch
 10
0.0
 20
0.0
 30
0.0
210
0.0
220
0.0
230
1.0
  2
SOLID
 70
1
 71
0
 91
1
 92
3
 72
0
 73
1
 93
4
 10
46.677
 20
11.124
 10
47.055
 20
11.124
 10
47.055
 20
9.0
 10
46.677
 20
9.0
 97
0
 75
0
 76
1
 98
0
  0
HATCH
  5
68
330
17
100
AcDbEntity
  8
RASTER
 62
7
100
AcDbHatch
 10
0.0
 20
0.0
 30
0.0
210
0.0
220
0.0
230
1.0
  2
SOLID
 70
1
 71
0
 91
1
 92
3
 72
0
 73
1
 93
12
 10
47.523
 20
11.124
 10
48.024
 20
11.124
 10
49.011
 20
9.534
 10
49.017
 20
9.534
 10
49.017
 20
11.124
 10
49.395
 20
11.124
 10
49.395
 20
9.0
 10
48.915
 20
9.0
 10
47.907
 20
10.641
 10
47.901
 20
10.641
 10
47.901
 20
9.0
 10
47.523
 20
9.0
 97
0
 75
0
 76
1
 98
0
  0
HATCH
  5
69
330
17
100
AcDbEntity
  8
RASTER
 62
7
100
AcDbHatch
 10
0.0
 20
0.0
 30
0.0
210
0.0
220
0.0
230
1.0
  2
SOLID
 70
1
 71
0
 91
2
 92
3
 72
0
 73
1
 93
67
 10
49.863
 20
11.124
 10
50.616
 20
11.124
 10
50.667
 20
11.123
 10
50.719
 20
11.121
 10
50.771
 20
11.116
 10
50.823
 20
11.111
 10
50.875
 20
11.103
 10
50.928
 20
11.094
 10
50.98
 20
11.083
 10
51.033
 20
11.07
 10
51.084
 20
11.055
 10
51.135
 20
11.039
 10
51.184
 20
11.02
 10
51.232
 20
10.998
 10
51.279
 20
10.975
 10
51.324
 20
10.949
 10
51.368
 20
10.922
 10
51.411
 20
10.892
 10
51.452
 20
10.859
 10
51.491
 20
10.824
 10
51.528
 20
10.787
 10
51.563
 20
10.748
 10
51.596
 20
10.705
 10
51.627
 20
10.661
 10
51.656
 20
10.614
 10
51.684
 20
10.565
 10
51.708
 20
10.512
 10
51.729
 20
10.457
 10
51.747
 20
10.399
 10
51.762
 20
10.338
 10
51.774
 20
10.273
 10
51.782
 20
10.206
 10
51.787
 20
10.135
 10
51.789
 20
10.062
 10
51.787
 20
9.993
 10
51.782
 20
9.927
 10
51.774
 20
9.864
 10
51.762
 20
9.803
 10
51.747
 20
9.744
 10
51.729
 20
9.687
 10
51.708
 20
9.633
 10
51.684
 20
9.582
 10
51.656
 20
9.533
 10
51.627
 20
9.486
 10
51.596
 20
9.441
 10
51.563
 20
9.399
 10
51.528
 20
9.359
 10
51.491
 20
9.321
 10
51.452
 20
9.285
 10
51.411
 20
9.252
 10
51.368
 20
9.221
 10
51.324
 20
9.192
 10
51.279
 20
9.165
 10
51.232
 20
9.14
 10
51.184
 20
9.117
 10
51.135
 20
9.096
 10
51.084
 20
9.078
 10
51.033
 20
9.061
 10
50.98
 20
9.047
 10
50.928
 20
9.035
 10
50.875
 20
9.024
 10
50.823
 20
9.015
 10
50.771
 20
9.009
 10
50.719
 20
9.004
 10
50.667
 20
9.001
 10
50.616
 20
9.0
 10
49.863
 20
9.0
 97
0
 92
2
 72
0
 73
1
 93
67
 10
50.556
 20
9.33
 10
50.592
 20
9.331
 10
50.629
 20
9.332
 10
50.666
 20
9.335
 10
50.702
 20
9.339
 10
50.739
 20
9.343
 10
50.776
 20
9.349
 10
50.813
 20
9.356
 10
50.85
 20
9.364
 10
50.886
 20
9.374
 10
50.921
 20
9.385
 10
50.956
 20
9.397
 10
50.989
 20
9.411
 10
51.022
 20
9.426
 10
51.054
 20
9.443
 10
51.085
 20
9.462
 10
51.115
 20
9.482
 10
51.144
 20
9.503
 10
51.172
 20
9.526
 10
51.198
 20
9.552
 10
51.223
 20
9.579
 10
51.246
 20
9.607
 10
51.268
 20
9.638
 10
51.289
 20
9.671
 10
51.309
 20
9.705
 10
51.326
 20
9.741
 10
51.341
 20
9.78
 10
51.354
 20
9.821
 10
51.365
 20
9.865
 10
51.373
 20
9.911
 10
51.379
 20
9.959
 10
51.382
 20
10.009
 10
51.384
 20
10.062
 10
51.382
 20
10.118
 10
51.379
 20
10.171
 10
51.373
 20
10.221
 10
51.365
 20
10.269
 10
51.354
 20
10.314
 10
51.341
 20
10.357
 10
51.326
 20
10.397
 10
51.309
 20
10.434
 10
51.289
 20
10.469
 10
51.268
 20
10.502
 10
51.246
 20
10.533
 10
51.223
 20
10.562
 10
51.198
 20
10.589
 10
51.172
 20
10.615
 10
51.144
 20
10.638
 10
51.115
 20
10.659
 10
51.085
 20
10.678
 10
51.054
 20
10.696
 10
51.022
 20
10.713
 10
50.989
 20
10.727
 10
50.956
 20
10.74
 10
50.921
 20
10.752
 10
50.886
 20
10.762
 10
50.85
 20
10.77
 10
50.813
 20
10.777
 10
50.776
 20
10.783
 10
50.739
 20
10.788
 10
50.703
 20
10.792
 10
50.666
 20
10.796
 10
50.629
 20
10.798
 10
50.592
 20
10.8
 10
50.556
 20
10.8
 10
50.241
 20
10.8
 10
50.241
 20
9.33
 97
0
 75
0
 76
1
 98
0
  0
HATCH
  5
6A
330
17
100
AcDbEntity
  8
RASTER
 62
7
100
AcDbHatch
 10
0.0
 20
0.0
 30
0.0
210
0.0
220
0.0
230
1.0
  2
SOLID
 70
1
 71
0
 91
1
 92
3
 72
0
 73
1
 93
12
 10
52.905
 20
11.124
 10
53.406
 20
11.124
 10
54.393
 20
9.534
 10
54.399
 20
9.534
 10
54.399
 20
11.124
 10
54.777
 20
11.124
 10
54.777
 20
9.0
 10
54.297
 20
9.0
 10
53.289
 20
10.641
 10
53.283
 20
10.641
 10
53.283
 20
9.0
 10
52.905
 20
9.0
 97
0
 75
0
 76
1
 98
0
  0
HATCH
  5
6B
330
17
100
AcDbEntity
  8
RASTER
 62
7
100
AcDbHatch
 10
0.0
 20
0.0
 30
0.0
210
0.0
220
0.0
230
1.0
  2
SOLID
 70
1
 71
0
 91
2
 92
3
 72
0
 73
1
 93
129
 10
55.143
 20
10.068
 10
55.144
 20
10.131
 10
55.148
 20
10.192
 10
55.155
 20
10.252
 10
55.164
 20
10.311
 10
55.176
 20
10.367
 10
55.191
 20
10.423
 10
55.208
 20
10.476
 10
55.228
 20
10.529
 10
55.25
 20
10.579
 10
55.275
 20
10.627
 10
55.301
 20
10.674
 10
55.33
 20
10.719
 10
55.361
 20
10.761
 10
55.393
 20
10.802
 10
55.428
 20
10.841
 10
55.465
 20
10.878
 10
55.504
 20
10.913
 10
55.544
 20
10.946
 10
55.587
 20
10.977
 10
55.631
 20
11.006
 10
55.677
 20
11.032
 10
55.724
 20
11.057
 10
55.774
 20
11.079
 10
55.825
 20
11.1
 10
55.878
 20
11.118
 10
55.932
 20
11.134
 10
55.987
 20
11.148
 10
56.043
 20
11.159
 10
56.1
 20
11.167
 10
56.159
 20
11.173
 10
56.219
 20
11.177
 10
56.28
 20
11.178
 10
56.341
 20
11.177
 10
56.402
 20
11.173
 10
56.461
 20
11.167
 10
56.519
 20
11.159
 10
56.576
 20
11.148
 10
56.631
 20
11.134
 10
56.685
 20
11.118
 10
56.739
 20
11.1
 10
56.79
 20
11.079
 10
56.84
 20
11.057
 10
56.888
 20
11.032
 10
56.934
 20
11.006
 10
56.979
 20
10.977
 10
57.021
 20
10.946
 10
57.062
 20
10.913
 10
57.102
 20
10.878
 10
57.139
 20
10.841
 10
57.174
 20
10.802
 10
57.207
 20
10.761
 10
57.238
 20
10.719
 10
57.266
 20
10.674
 10
57.293
 20
10.627
 10
57.318
 20
10.579
 10
57.34
 20
10.529
 10
57.36
 20
10.476
 10
57.377
 20
10.423
 10
57.392
 20
10.367
 10
57.404
 20
10.311
 10
57.413
 20
10.252
 10
57.42
 20
10.192
 10
57.424
 20
10.131
 10
57.426
 20
10.068
 10
57.424
 20
10.006
 10
57.42
 20
9.946
 10
57.413
 20
9.887
 10
57.404
 20
9.83
 10
57.392
 20
9.774
 10
57.377
 20
9.719
 10
57.36
 20
9.666
 10
57.34
 20
9.614
 10
57.318
 20
9.563
 10
57.293
 20
9.514
 10
57.266
 20
9.467
 10
57.238
 20
9.422
 10
57.207
 20
9.379
 10
57.174
 20
9.337
 10
57.139
 20
9.298
 10
57.102
 20
9.26
 10
57.062
 20
9.223
 10
57.021
 20
9.189
 10
56.979
 20
9.157
 10
56.934
 20
9.127
 10
56.888
 20
9.1
 10
56.84
 20
9.074
 10
56.79
 20
9.05
 10
56.739
 20
9.029
 10
56.685
 20
9.009
 10
56.631
 20
8.992
 10
56.576
 20
8.978
 10
56.519
 20
8.967
 10
56.461
 20
8.958
 10
56.402
 20
8.951
 10
56.341
 20
8.947
 10
56.28
 20
8.946
 10
56.219
 20
8.947
 10
56.159
 20
8.951
 10
56.1
 20
8.958
 10
56.043
 20
8.967
 10
55.987
 20
8.978
 10
55.932
 20
8.992
 10
55.878
 20
9.009
 10
55.825
 20
9.029
 10
55.774
 20
9.05
 10
55.724
 20
9.074
 10
55.677
 20
9.1
 10
55.631
 20
9.127
 10
55.587
 20
9.157
 10
55.544
 20
9.189
 10
55.504
 20
9.223
 10
55.465
 20
9.26
 10
55.428
 20
9.298
 10
55.393
 20
9.337
 10
55.361
 20
9.379
 10
55.33
 20
9.422
 10
55.301
 20
9.467
 10
55.275
 20
9.514
 10
55.25
 20
9.563
 10
55.228
 20
9.614
 10
55.208
 20
9.666
 10
55.191
 20
9.719
 10
55.176
 20
9.774
 10
55.164
 20
9.83
 10
55.155
 20
9.887
 10
55.148
 20
9.946
 10
55.144
 20
10.006
 10
55.143
 20
10.068
 97
0
 92
2
 72
0
 73
1
 93
129
 10
55.554
 20
10.068
 10
55.554
 20
10.026
 10
55.557
 20
9.984
 10
55.561
 20
9.944
 10
55.567
 20
9.904
 10
55.574
 20
9.865
 10
55.583
 20
9.828
 10
55.594
 20
9.791
 10
55.606
 20
9.755
 10
55.62
 20
9.719
 10
55.635
 20
9.686
 10
55.652
 20
9.653
 10
55.67
 20
9.621
 10
55.689
 20
9.591
 10
55.71
 20
9.562
 10
55.732
 20
9.534
 10
55.756
 20
9.507
 10
55.781
 20
9.481
 10
55.807
 20
9.457
 10
55.834
 20
9.435
 10
55.863
 20
9.414
 10
55.892
 20
9.394
 10
55.923
 20
9.376
 10
55.954
 20
9.359
 10
55.987
 20
9.344
 10
56.021
 20
9.33
 10
56.056
 20
9.318
 10
56.091
 20
9.308
 10
56.128
 20
9.3
 10
56.165
 20
9.293
 10
56.203
 20
9.289
 10
56.242
 20
9.286
 10
56.283
 20
9.285
 10
56.323
 20
9.286
 10
56.362
 20
9.289
 10
56.4
 20
9.293
 10
56.438
 20
9.3
 10
56.474
 20
9.308
 10
56.51
 20
9.318
 10
56.545
 20
9.33
 10
56.58
 20
9.344
 10
56.613
 20
9.359
 10
56.645
 20
9.376
 10
56.675
 20
9.394
 10
56.705
 20
9.414
 10
56.734
 20
9.435
 10
56.761
 20
9.457
 10
56.787
 20
9.481
 10
56.812
 20
9.507
 10
56.836
 20
9.534
 10
56.858
 20
9.562
 10
56.879
 20
9.591
 10
56.898
 20
9.621
 10
56.916
 20
9.653
 10
56.933
 20
9.686
 10
56.948
 20
9.719
 10
56.962
 20
9.755
 10
56.974
 20
9.791
 10
56.985
 20
9.828
 10
56.994
 20
9.865
 10
57.001
 20
9.904
 10
57.007
 20
9.944
 10
57.011
 20
9.984
 10
57.014
 20
10.026
 10
57.015
 20
10.068
 10
57.014
 20
10.109
 10
57.011
 20
10.149
 10
57.007
 20
10.188
 10
57.001
 20
10.227
 10
56.994
 20
10.265
 10
56.985
 20
10.302
 10
56.974
 20
10.338
 10
56.962
 20
10.374
 10
56.948
 20
10.409
 10
56.933
 20
10.442
 10
56.917
 20
10.475
 10
56.899
 20
10.506
 10
56.879
 20
10.536
 10
56.859
 20
10.565
 10
56.837
 20
10.593
 10
56.814
 20
10.62
 10
56.789
 20
10.646
 10
56.763
 20
10.67
 10
56.736
 20
10.692
 10
56.708
 20
10.714
 10
56.678
 20
10.734
 10
56.648
 20
10.752
 10
56.616
 20
10.769
 10
56.583
 20
10.785
 10
56.548
 20
10.799
 10
56.513
 20
10.811
 10
56.477
 20
10.822
 10
56.44
 20
10.83
 10
56.402
 20
10.837
 10
56.363
 20
10.841
 10
56.323
 20
10.844
 10
56.283
 20
10.845
 10
56.242
 20
10.844
 10
56.202
 20
10.841
 10
56.163
 20
10.837
 10
56.125
 20
10.83
 10
56.089
 20
10.822
 10
56.053
 20
10.811
 10
56.018
 20
10.799
 10
55.984
 20
10.785
 10
55.951
 20
10.769
 10
55.92
 20
10.752
 10
55.889
 20
10.734
 10
55.86
 20
10.714
 10
55.832
 20
10.692
 10
55.805
 20
10.67
 10
55.779
 20
10.646
 10
55.755
 20
10.62
 10
55.731
 20
10.593
 10
55.709
 20
10.565
 10
55.689
 20
10.536
 10
55.669
 20
10.506
 10
55.651
 20
10.475
 10
55.635
 20
10.442
 10
55.62
 20
10.409
 10
55.606
 20
10.374
 10
55.594
 20
10.338
 10
55.583
 20
10.302
 10
55.574
 20
10.265
 10
55.567
 20
10.227
 10
55.561
 20
10.188
 10
55.557
 20
10.149
 10
55.554
 20
10.109
 10
55.554
 20
10.068
 97
0
 75
0
 76
1
 98
0
  0
HATCH
  5
6C
330
17
100
AcDbEntity
  8
RASTER
 62
7
100
AcDbHatch
 10
0.0
 20
0.0
 30
0.0
210
0.0
220
0.0
230
1.0
  2
SOLID
 70
1
 71
0
 91
1
 92
3
 72
0
 73
1
 93
16
 10
57.576
 20
11.124
 10
57.99
 20
11.124
 10
58.401
 20
9.564
 10
58.407
 20
9.564
 10
58.875
 20
11.124
 10
59.265
 20
11.124
 10
59.724
 20
9.564
 10
59.73
 20
9.564
 10
60.15
 20
11.124
 10
60.552
 20
11.124
 10
59.931
 20
9.0
 10
59.565
 20
9.0
 10
59.067
 20
10.593
 10
59.061
 20
10.593
 10
58.563
 20
9.0
 10
58.197
 20
9.0
 97
0
 75
0
 76
1
 98
0
  0
HATCH
  5
6D
330
17
100
AcDbEntity
  8
RASTER
 62
7
100
AcDbHatch
 10
0.0
 20
0.0
 30
0.0
210
0.0
220
0.0
230
1.0
  2
SOLID
 70
1
 71
0
 91
1
 92
3
 72
0
 73
1
 93
4
 10
94.8
 20
52.25
 10
97.2
 20
52.25
 10
97.2
 20
51.75
 10
94.8
 20
51.75
 97
0
 75
0
 76
1
 98
0
  0
HATCH
  5
6E
330
17
100
AcDbEntity
  8
RASTER
 62
7
100
AcDbHatch
 10
0.0
 20
0.0
 30
0.0
210
0.0
220
0.0
230
1.0
  2
SOLID
 70
1
 71
0
 91
1
 92
3
 72
0
 73
1
 93
4
 10
93.406
 20
41.164
 10
95.725
 20
40.543
 10
95.595
 20
40.06
 10
93.277
 20
40.681
 97
0
 75
0
 76
1
 98
0
  0
HATCH
  5
6F
330
17
100
AcDbEntity
  8
RASTER
 62
7
100
AcDbHatch
 10
0.0
 20
0.0
 30
0.0
210
0.0
220
0.0
230
1.0
  2
SOLID
 70
1
 71
0
 91
1
 92
3
 72
0
 73
1
 93
4
 10
89.191
 20
30.817
 10
91.269
 20
29.617
 10
91.019
 20
29.183
 10
88.941
 20
30.383
 97
0
 75
0
 76
1
 98
0
  0
HATCH
  5
70
330
17
100
AcDbEntity
  8
RASTER
 62
7
100
AcDbHatch
 10
0.0
 20
0.0
 30
0.0
210
0.0
220
0.0
230
1.0
  2
SOLID
 70
1
 71
0
 91
1
 92
3
 72
0
 73
1
 93
4
 10
82.441
 20
21.913
 10
84.138
 20
20.216
 10
83.784
 20
19.862
 10
82.087
 20
21.559
 97
0
 75
0
 76
1
 98
0
  0
HATCH
  5
71
330
17
100
AcDbEntity
  8
RASTER
 62
7
100
AcDbHatch
 10
0.0
 20
0.0
 30
0.0
210
0.0
220
0.0
230
1.0
  2
SOLID
 70
1
 71
0
 91
1
 92
3
 72
0
 73
1
 93
4
 10
21.913
 20
21.559
 10
20.216
 20
19.862
 10
19.862
 20
20.216
 10
21.559
 20
21.913
 97
0
 75
0
 76
1
 98
0
  0
HATCH
  5
72
330
17
100
AcDbEntity
  8
RASTER
 62
7
100
AcDbHatch
 10
0.0
 20
0.0
 30
0.0
210
0.0
220
0.0
230
1.0
  2
SOLID
 70
1
 71
0
 91
1
 92
3
 72
0
 73
1
 93
4
 10
15.059
 20
30.383
 10
12.981
 20
29.183
 10
12.731
 20
29.617
 10
14.809
 20
30.817
 97
0
 75
0
 76
1
 98
0
  0
HATCH
  5
73
330
17
100
AcDbEntity
  8
RASTER
 62
7
100
AcDbHatch
 10
0.0
 20
0.0
 30
0.0
210
0.0
220
0.0
230
1.0
  2
SOLID
 70
1
 71
0
 91
1
 92
3
 72
0
 73
1
 93
4
 10
10.723
 20
40.681
 10
8.405
 20
40.06
 10
8.275
 20
40.543
 10
10.594
 20
41.164
 97
0
 75
0
 76
1
 98
0
  0
HATCH
  5
74
330
17
100
AcDbEntity
  8
RASTER
 62
7
100
AcDbHatch
 10
0.0
 20
0.0
 30
0.0
210
0.0
220
0.0
230
1.0
  2
SOLID
 70
1
 71
0
 91
1
 92
3
 72
0
 73
1
 93
4
 10
9.2
 20
51.75
 10
6.8
 20
51.75
 10
6.8
 20
52.25
 10
9.2
 20
52.25
 97
0
 75
0
 76
1
 98
0
  0
HATCH
  5
75
330
17
100
AcDbEntity
  8
RASTER
 62
7
100
AcDbHatch
 10
0.0
 20
0.0
 30
0.0
210
0.0
220
0.0
230
1.0
  2
SOLID
 70
1
 71
0
 91
1
 92
3
 72
0
 73
1
 93
4
 10
10.594
 20
62.836
 10
8.275
 20
63.457
 10
8.405
 20
63.94
 10
10.723
 20
63.319
 97
0
 75
0
 76
1
 98
0
  0
HATCH
  5
76
330
17
100
AcDbEntity
  8
RASTER
 62
7
100
AcDbHatch
 10
0.0
 20
0.0
 30
0.0
210
0.0
220
0.0
230
1.0
  2
SOLID
 70
1
 71
0
 91
1
 92
3
 72
0
 73
1
 93
4
 10
14.809
 20
73.183
 10
12.731
 20
74.383
 10
12.981
 20
74.817
 10
15.059
 20
73.617
 97
0
 75
0
 76
1
 98
0
  0
HATCH
  5
77
330
17
100
AcDbEntity
  8
RASTER
 62
7
100
AcDbHatch
 10
0.0
 20
0.0
 30
0.0
210
0.0
220
0.0
230
1.0
  2
SOLID
 70
1
 71
0
 91
1
 92
3
 72
0
 73
1
 93
4
 10
21.559
 20
82.087
 10
19.862
 20
83.784
 10
20.216
 20
84.138
 10
21.913
 20
82.441
 97
0
 75
0
 76
1
 98
0
  0
HATCH
  5
78
330
17
100
AcDbEntity
  8
RASTER
 62
7
100
AcDbHatch
 10
0.0
 20
0.0
 30
0.0
210
0.0
220
0.0
230
1.0
  2
SOLID
 70
1
 71
0
 91
1
 92
3
 72
0
 73
1
 93
4
 10
30.383
 20
88.941
 10
29.183
 20
91.019
 10
29.617
 20
91.269
 10
30.817
 20
89.191
 97
0
 75
0
 76
1
 98
0
  0
HATCH
  5
79
330
17
100
AcDbEntity
  8
RASTER
 62
7
100
AcDbHatch
 10
0.0
 20
0.0
 30
0.0
210
0.0
220
0.0
230
1.0
  2
SOLID
 70
1
 71
0
 91
1
 92
3
 72
0
 73
1
 93
4
 10
40.681
 20
93.277
 10
40.06
 20
95.595
 10
40.543
 20
95.725
 10
41.164
 20
93.406
 97
0
 75
0
 76
1
 98
0
  0
HATCH
  5
7A
330
17
100
AcDbEntity
  8
RASTER
 62
7
100
AcDbHatch
 10
0.0
 20
0.0
 30
0.0
210
0.0
220
0.0
230
1.0
  2
SOLID
 70
1
 71
0
 91
1
 92
3
 72
0
 73
1
 93
4
 10
51.75
 20
94.8
 10
51.75
 20
97.2
 10
52.25
 20
97.2
 10
52.25
 20
94.8
 97
0
 75
0
 76
1
 98
0
  0
HATCH
  5
7B
330
17
100
AcDbEntity
  8
RASTER
 62
7
100
AcDbHatch
 10
0.0
 20
0.0
 30
0.0
210
0.0
220
0.0
230
1.0
  2
SOLID
 70
1
 71
0
 91
1
 92
3
 72
0
 73
1
 93
4
 10
62.836
 20
93.406
 10
63.457
 20
95.725
 10
63.94
 20
95.595
 10
63.319
 20
93.277
 97
0
 75
0
 76
1
 98
0
  0
HATCH
  5
7C
330
17
100
AcDbEntity
  8
RASTER
 62
7
100
AcDbHatch
 10
0.0
 20
0.0
 30
0.0
210
0.0
220
0.0
230
1.0
  2
SOLID
 70
1
 71
0
 91
1
 92
3
 72
0
 73
1
 93
4
 10
73.183
 20
89.191
 10
74.383
 20
91.269
 10
74.817
 20
91.019
 10
73.617
 20
88.941
 97
0
 75
0
 76
1
 98
0
  0
HATCH
  5
7D
330
17
100
AcDbEntity
  8
RASTER
 62
7
100
AcDbHatch
 10
0.0
 20
0.0
 30
0.0
210
0.0
220
0.0
230
1.0
  2
SOLID
 70
1
 71
0
 91
1
 92
3
 72
0
 73
1
 93
4
 10
82.087
 20
82.441
 10
83.784
 20
84.138
 10
84.138
 20
83.784
 10
82.441
 20
82.087
 97
0
 75
0
 76
1
 98
0
  0
HATCH
  5
7E
330
17
100
AcDbEntity
  8
RASTER
 62
7
100
AcDbHatch
 10
0.0
 20
0.0
 30
0.0
210
0.0
220
0.0
230
1.0
  2
SOLID
 70
1
 71
0
 91
1
 92
3
 72
0
 73
1
 93
4
 10
88.941
 20
73.617
 10
91.019
 20
74.817
 10
91.269
 20
74.383
 10
89.191
 20
73.183
 97
0
 75
0
 76
1
 98
0
  0
HATCH
  5
7F
330
17
100
AcDbEntity
  8
RASTER
 62
7
100
AcDbHatch
 10
0.0
 20
0.0
 30
0.0
210
0.0
220
0.0
230
1.0
  2
SOLID
 70
1
 71
0
 91
1
 92
3
 72
0
 73
1
 93
4
 10
93.277
 20
63.319
 10
95.595
 20
63.94
 10
95.725
 20
63.457
 10
93.406
 20
62.836
 97
0
 75
0
 76
1
 98
0
  0
LWPOLYLINE
  5
80
330
17
100
AcDbEntity
  8
CUT
100
AcDbPolyline
 90
6
 70
1
 10
157.007
 20
95.539
 10
157.007
 20
95.461
 10
130.5
 20
90.959
 10
103.993
 20
95.461
 10
103.993
 20
95.539
 10
130.5
 20
100.041
  0
CIRCLE
  5
81
330
17
100
AcDbEntity
  8
CUT
100
AcDbCircle
 10
130.5
 20
95.5
 30
0.0
 40
1.61
  0
HATCH
  5
82
330
17
100
AcDbEntity
  8
RASTER
 62
7
100
AcDbHatch
 10
0.0
 20
0.0
 30
0.0
210
0.0
220
0.0
230
1.0
  2
SOLID
 70
1
 71
0
 91
1
 92
3
 72
0
 73
1
 93
14
 10
157.0
 20
95.5
 10
130.5
 20
91.0
 10
130.5
 20
93.2
 10
130.5
 20
93.2
 10
131.38
 20
93.375
 10
132.126
 20
93.874
 10
132.625
 20
94.62
 10
132.8
 20
95.5
 10
132.625
 20
96.38
 10
132.126
 20
97.126
 10
131.38
 20
97.625
 10
130.5
 20
97.8
 10
130.5
 20
97.8
 10
130.5
 20
100.0
 97
0
 75
0
 76
1
 98
0
  0
CIRCLE
  5
83
330
17
100
AcDbEntity
  8
CUT
100
AcDbCircle
 10
165.0
 20
96.0
 30
0.0
 40
4.04
  0
CIRCLE
  5
84
330
17
100
AcDbEntity
  8
CUT
100
AcDbCircle
 10
165.0
 20
96.0
 30
0.0
 40
1.61
  0
LWPOLYLINE
  5
85
330
17
100
AcDbEntity
  8
CUT
100
AcDbPolyline
 90
14
 70
1
 10
203.0
 20
100.04
 10
205.64
 20
100.04
 10
205.64
 20
70.64
 10
207.64
 20
70.64
 10
207.64
 20
67.46
 10
200.96
 20
67.46
 10
200.96
 20
70.64
 10
202.96
 20
70.64
 10
202.96
 20
89.96
 10
173.0
 20
89.96
 10
172.972
 20
90.028
 10
177.943
 20
95.0
 10
172.972
 20
99.972
 10
173.0
 20
100.04
  0
HATCH
  5
86
330
17
100
AcDbEntity
  8
RASTER
 62
7
100
AcDbHatch
 10
0.0
 20
0.0
 30
0.0
210
0.0
220
0.0
230
1.0
  2
SOLID
 70
1
 71
0
 91
1
 92
3
 72
0
 73
1
 93
4
 10
203.9
 20
88.2
 10
204.7
 20
88.2
 10
204.7
 20
71.8
 10
203.9
 20
71.8
 97
0
 75
0
 76
1
 98
0
  0
HATCH
  5
87
330
17
100
AcDbEntity
  8
RASTER
 62
7
100
AcDbHatch
 10
0.0
 20
0.0
 30
0.0
210
0.0
220
0.0
230
1.0
  2
SOLID
 70
1
 71
0
 91
1
 92
3
 72
0
 73
1
 93
16
 10
177.528
 20
96.274
 10
178.108
 20
96.274
 10
178.683
 20
94.09
 10
178.691
 20
94.09
 10
179.347
 20
96.274
 10
179.892
 20
96.274
 10
180.535
 20
94.09
 10
180.544
 20
94.09
 10
181.132
 20
96.274
 10
181.694
 20
96.274
 10
180.825
 20
93.3
 10
180.313
 20
93.3
 10
179.615
 20
95.53
 10
179.607
 20
95.53
 10
178.91
 20
93.3
 10
178.397
 20
93.3
 97
0
 75
0
 76
1
 98
0
  0
HATCH
  5
88
330
17
100
AcDbEntity
  8
RASTER
 62
7
100
AcDbHatch
 10
0.0
 20
0.0
 30
0.0
210
0.0
220
0.0
230
1.0
  2
SOLID
 70
1
 71
0
 91
1
 92
3
 72
0
 73
1
 93
4
 10
182.047
 20
96.274
 10
182.576
 20
96.274
 10
182.576
 20
93.3
 10
182.047
 20
93.3
 97
0
 75
0
 76
1
 98
0
  0
HATCH
  5
89
330
17
100
AcDbEntity
  8
RASTER
 62
7
100
AcDbHatch
 10
0.0
 20
0.0
 30
0.0
210
0.0
220
0.0
230
1.0
  2
SOLID
 70
1
 71
0
 91
1
 92
3
 72
0
 73
1
 93
12
 10
183.232
 20
96.274
 10
183.933
 20
96.274
 10
185.315
 20
94.048
 10
185.323
 20
94.048
 10
185.323
 20
96.274
 10
185.852
 20
96.274
 10
185.852
 20
93.3
 10
185.18
 20
93.3
 10
183.769
 20
95.597
 10
183.761
 20
95.597
 10
183.761
 20
93.3
 10
183.232
 20
93.3
 97
0
 75
0
 76
1
 98
0
  0
HATCH
  5
8A
330
17
100
AcDbEntity
  8
RASTER
 62
7
100
AcDbHatch
 10
0.0
 20
0.0
 30
0.0
210
0.0
220
0.0
230
1.0
  2
SOLID
 70
1
 71
0
 91
2
 92
3
 72
0
 73
1
 93
67
 10
186.508
 20
96.274
 10
187.562
 20
96.274
 10
187.634
 20
96.272
 10
187.707
 20
96.269
 10
187.78
 20
96.263
 10
187.853
 20
96.255
 10
187.926
 20
96.244
 10
187.999
 20
96.231
 10
188.072
 20
96.216
 10
188.146
 20
96.198
 10
188.218
 20
96.178
 10
188.289
 20
96.154
 10
188.358
 20
96.127
 10
188.425
 20
96.098
 10
188.49
 20
96.065
 10
188.553
 20
96.029
 10
188.615
 20
95.99
 10
188.675
 20
95.948
 10
188.732
 20
95.903
 10
188.787
 20
95.854
 10
188.839
 20
95.802
 10
188.888
 20
95.747
 10
188.934
 20
95.688
 10
188.978
 20
95.625
 10
189.019
 20
95.559
 10
189.057
 20
95.49
 10
189.091
 20
95.417
 10
189.121
 20
95.34
 10
189.146
 20
95.258
 10
189.167
 20
95.173
 10
189.183
 20
95.083
 10
189.195
 20
94.988
 10
189.202
 20
94.89
 10
189.204
 20
94.787
 10
189.202
 20
94.691
 10
189.195
 20
94.598
 10
189.183
 20
94.509
 10
189.167
 20
94.423
 10
189.146
 20
94.341
 10
189.121
 20
94.262
 10
189.091
 20
94.187
 10
189.057
 20
94.115
 10
189.019
 20
94.046
 10
188.978
 20
93.98
 10
188.934
 20
93.918
 10
188.888
 20
93.859
 10
188.839
 20
93.802
 10
188.787
 20
93.749
 10
188.732
 20
93.7
 10
188.675
 20
93.653
 10
188.615
 20
93.609
 10
188.553
 20
93.568
 10
188.49
 20
93.531
 10
188.425
 20
93.496
 10
188.358
 20
93.464
 10
188.289
 20
93.435
 10
188.218
 20
93.409
 10
188.146
 20
93.386
 10
188.072
 20
93.366
 10
187.999
 20
93.348
 10
187.926
 20
93.334
 10
187.853
 20
93.322
 10
187.78
 20
93.312
 10
187.707
 20
93.305
 10
187.634
 20
93.301
 10
187.562
 20
93.3
 10
186.508
 20
93.3
 97
0
 92
2
 72
0
 73
1
 93
67
 10
187.478
 20
93.762
 10
187.529
 20
93.763
 10
187.581
 20
93.765
 10
187.632
 20
93.769
 10
187.684
 20
93.774
 10
187.735
 20
93.781
 10
187.786
 20
93.789
 10
187.838
 20
93.799
 10
187.889
 20
93.81
 10
187.94
 20
93.823
 10
187.99
 20
93.839
 10
188.038
 20
93.856
 10
188.085
 20
93.875
 10
188.131
 20
93.897
 10
188.176
 20
93.921
 10
188.219
 20
93.946
 10
188.261
 20
93.974
 10
188.302
 20
94.004
 10
188.34
 20
94.037
 10
188.377
 20
94.072
 10
188.412
 20
94.11
 10
188.445
 20
94.15
 10
188.476
 20
94.193
 10
188.505
 20
94.239
 10
188.532
 20
94.287
 10
188.557
 20
94.338
 10
188.578
 20
94.392
 10
188.596
 20
94.45
 10
188.611
 20
94.511
 10
188.622
 20
94.575
 10
188.63
 20
94.642
 10
188.635
 20
94.713
 10
188.637
 20
94.787
 10
188.635
 20
94.865
 10
188.63
 20
94.939
 10
188.622
 20
95.01
 10
188.611
 20
95.077
 10
188.596
 20
95.14
 10
188.578
 20
95.199
 10
188.557
 20
95.255
 10
188.532
 20
95.308
 10
188.505
 20
95.357
 10
188.476
 20
95.403
 10
188.445
 20
95.446
 10
188.412
 20
95.487
 10
188.377
 20
95.525
 10
188.34
 20
95.56
 10
188.302
 20
95.593
 10
188.261
 20
95.623
 10
188.219
 20
95.65
 10
188.176
 20
95.675
 10
188.131
 20
95.698
 10
188.085
 20
95.718
 10
188.038
 20
95.736
 10
187.99
 20
95.753
 10
187.94
 20
95.766
 10
187.889
 20
95.778
 10
187.838
 20
95.788
 10
187.786
 20
95.796
 10
187.735
 20
95.804
 10
187.683
 20
95.81
 10
187.632
 20
95.814
 10
187.581
 20
95.817
 10
187.529
 20
95.819
 10
187.478
 20
95.82
 10
187.037
 20
95.82
 10
187.037
 20
93.762
 97
0
 75
0
 76
1
 98
0
  0
HATCH
  5
8B
330
17
100
AcDbEntity
  8
RASTER
 62
7
100
AcDbHatch
 10
0.0
 20
0.0
 30
0.0
210
0.0
220
0.0
230
1.0
  2
SOLID
 70
1
 71
0
 91
1
 92
3
 72
0
 73
1
 93
12
 10
190.766
 20
96.274
 10
191.468
 20
96.274
 10
192.85
 20
94.048
 10
192.858
 20
94.048
 10
192.858
 20
96.274
 10
193.387
 20
96.274
 10
193.387
 20
93.3
 10
192.715
 20
93.3
 10
191.304
 20
95.597
 10
191.296
 20
95.597
 10
191.296
 20
93.3
 10
190.766
 20
93.3
 97
0
 75
0
 76
1
 98
0
  0
HATCH
  5
8C
330
17
100
AcDbEntity
  8
RASTER
 62
7
100
AcDbHatch
 10
0.0
 20
0.0
 30
0.0
210
0.0
220
0.0
230
1.0
  2
SOLID
 70
1
 71
0
 91
2
 92
3
 72
0
 73
1
 93
129
 10
193.9
 20
94.795
 10
193.901
 20
94.883
 10
193.907
 20
94.969
 10
193.916
 20
95.053
 10
193.929
 20
95.135
 10
193.946
 20
95.214
 10
193.967
 20
95.292
 10
193.991
 20
95.367
 10
194.019
 20
95.44
 10
194.051
 20
95.51
 10
194.085
 20
95.578
 10
194.122
 20
95.644
 10
194.162
 20
95.706
 10
194.205
 20
95.766
 10
194.251
 20
95.823
 10
194.299
 20
95.877
 10
194.351
 20
95.929
 10
194.405
 20
95.978
 10
194.462
 20
96.024
 10
194.521
 20
96.067
 10
194.583
 20
96.108
 10
194.647
 20
96.145
 10
194.714
 20
96.18
 10
194.783
 20
96.211
 10
194.855
 20
96.24
 10
194.929
 20
96.266
 10
195.004
 20
96.288
 10
195.081
 20
96.307
 10
195.16
 20
96.322
 10
195.24
 20
96.334
 10
195.322
 20
96.342
 10
195.406
 20
96.347
 10
195.491
 20
96.349
 10
195.578
 20
96.347
 10
195.662
 20
96.342
 10
195.745
 20
96.334
 10
195.826
 20
96.322
 10
195.906
 20
96.307
 10
195.983
 20
96.288
 10
196.06
 20
96.266
 10
196.134
 20
96.24
 10
196.206
 20
96.211
 10
196.276
 20
96.18
 10
196.343
 20
96.145
 10
196.408
 20
96.108
 10
196.47
 20
96.067
 10
196.53
 20
96.024
 10
196.587
 20
95.978
 10
196.642
 20
95.929
 10
196.694
 20
95.877
 10
196.743
 20
95.823
 10
196.789
 20
95.766
 10
196.833
 20
95.706
 10
196.873
 20
95.644
 10
196.91
 20
95.578
 10
196.945
 20
95.51
 10
196.976
 20
95.44
 10
197.004
 20
95.367
 10
197.028
 20
95.292
 10
197.049
 20
95.214
 10
197.066
 20
95.135
 10
197.079
 20
95.053
 10
197.088
 20
94.969
 10
197.094
 20
94.883
 10
197.096
 20
94.795
 10
197.094
 20
94.709
 10
197.088
 20
94.625
 10
197.079
 20
94.542
 10
197.066
 20
94.462
 10
197.049
 20
94.383
 10
197.028
 20
94.307
 10
197.004
 20
94.232
 10
196.976
 20
94.159
 10
196.945
 20
94.088
 10
196.91
 20
94.02
 10
196.873
 20
93.954
 10
196.833
 20
93.891
 10
196.789
 20
93.83
 10
196.743
 20
93.772
 10
196.694
 20
93.717
 10
196.642
 20
93.663
 10
196.587
 20
93.613
 10
196.53
 20
93.565
 10
196.47
 20
93.52
 10
196.408
 20
93.479
 10
196.343
 20
93.44
 10
196.276
 20
93.403
 10
196.206
 20
93.37
 10
196.134
 20
93.34
 10
196.06
 20
93.313
 10
195.983
 20
93.289
 10
195.906
 20
93.27
 10
195.826
 20
93.253
 10
195.745
 20
93.241
 10
195.662
 20
93.232
 10
195.578
 20
93.226
 10
195.491
 20
93.224
 10
195.406
 20
93.226
 10
195.322
 20
93.232
 10
195.24
 20
93.241
 10
195.16
 20
93.253
 10
195.081
 20
93.27
 10
195.004
 20
93.289
 10
194.929
 20
93.313
 10
194.855
 20
93.34
 10
194.783
 20
93.37
 10
194.714
 20
93.403
 10
194.647
 20
93.44
 10
194.583
 20
93.479
 10
194.521
 20
93.52
 10
194.462
 20
93.565
 10
194.405
 20
93.613
 10
194.351
 20
93.663
 10
194.299
 20
93.717
 10
194.251
 20
93.772
 10
194.205
 20
93.83
 10
194.162
 20
93.891
 10
194.122
 20
93.954
 10
194.085
 20
94.02
 10
194.051
 20
94.088
 10
194.019
 20
94.159
 10
193.991
 20
94.232
 10
193.967
 20
94.307
 10
193.946
 20
94.383
 10
193.929
 20
94.462
 10
193.916
 20
94.542
 10
193.907
 20
94.625
 10
193.901
 20
94.709
 10
193.9
 20
94.795
 97
0
 92
2
 72
0
 73
1
 93
129
 10
194.475
 20
94.795
 10
194.476
 20
94.736
 10
194.479
 20
94.678
 10
194.485
 20
94.621
 10
194.493
 20
94.566
 10
194.504
 20
94.512
 10
194.516
 20
94.459
 10
194.531
 20
94.407
 10
194.548
 20
94.356
 10
194.568
 20
94.307
 10
194.589
 20
94.26
 10
194.612
 20
94.214
 10
194.638
 20
94.17
 10
194.665
 20
94.127
 10
194.694
 20
94.087
 10
194.725
 20
94.047
 10
194.758
 20
94.01
 10
194.793
 20
93.974
 10
194.83
 20
93.94
 10
194.868
 20
93.909
 10
194.907
 20
93.879
 10
194.949
 20
93.851
 10
194.992
 20
93.826
 10
195.036
 20
93.802
 10
195.082
 20
93.781
 10
195.129
 20
93.762
 10
195.178
 20
93.745
 10
195.228
 20
93.731
 10
195.279
 20
93.719
 10
195.331
 20
93.711
 10
195.385
 20
93.704
 10
195.439
 20
93.7
 10
195.496
 20
93.699
 10
195.552
 20
93.7
 10
195.607
 20
93.704
 10
195.66
 20
93.711
 10
195.713
 20
93.719
 10
195.764
 20
93.731
 10
195.814
 20
93.745
 10
195.863
 20
93.762
 10
195.911
 20
93.781
 10
195.958
 20
93.802
 10
196.003
 20
93.826
 10
196.046
 20
93.851
 10
196.087
 20
93.879
 10
196.127
 20
93.909
 10
196.165
 20
93.94
 10
196.202
 20
93.974
 10
196.237
 20
94.01
 10
196.27
 20
94.047
 10
196.301
 20
94.087
 10
196.33
 20
94.127
 10
196.358
 20
94.17
 10
196.383
 20
94.214
 10
196.406
 20
94.26
 10
196.427
 20
94.307
 10
196.447
 20
94.356
 10
196.464
 20
94.407
 10
196.479
 20
94.459
 10
196.492
 20
94.512
 10
196.502
 20
94.566
 10
196.51
 20
94.621
 10
196.516
 20
94.678
 10
196.519
 20
94.736
 10
196.52
 20
94.795
 10
196.519
 20
94.852
 10
196.516
 20
94.909
 10
196.51
 20
94.964
 10
196.502
 20
95.018
 10
196.492
 20
95.071
 10
196.479
 20
95.123
 10
196.464
 20
95.174
 10
196.447
 20
95.224
 10
196.427
 20
95.272
 10
196.406
 20
95.319
 10
196.383
 20
95.365
 10
196.358
 20
95.408
 10
196.331
 20
95.451
 10
196.302
 20
95.491
 10
196.272
 20
95.53
 10
196.239
 20
95.568
 10
196.204
 20
95.604
 10
196.168
 20
95.638
 10
196.13
 20
95.669
 10
196.091
 20
95.699
 10
196.05
 20
95.727
 10
196.007
 20
95.753
 10
195.962
 20
95.777
 10
195.916
 20
95.799
 10
195.868
 20
95.819
 10
195.818
 20
95.836
 10
195.768
 20
95.85
 10
195.716
 20
95.862
 10
195.663
 20
95.871
 10
195.608
 20
95.878
 10
195.553
 20
95.882
 10
195.496
 20
95.883
 10
195.438
 20
95.882
 10
195.383
 20
95.878
 10
195.328
 20
95.871
 10
195.276
 20
95.862
 10
195.224
 20
95.85
 10
195.174
 20
95.836
 10
195.125
 20
95.819
 10
195.078
 20
95.799
 10
195.032
 20
95.777
 10
194.987
 20
95.753
 10
194.945
 20
95.727
 10
194.904
 20
95.699
 10
194.864
 20
95.669
 10
194.827
 20
95.638
 10
194.791
 20
95.604
 10
194.756
 20
95.568
 10
194.724
 20
95.53
 10
194.693
 20
95.491
 10
194.664
 20
95.451
 10
194.637
 20
95.408
 10
194.612
 20
95.365
 10
194.589
 20
95.319
 10
194.568
 20
95.272
 10
194.548
 20
95.224
 10
194.531
 20
95.174
 10
194.516
 20
95.123
 10
194.504
 20
95.071
 10
194.493
 20
95.018
 10
194.485
 20
94.964
 10
194.479
 20
94.909
 10
194.476
 20
94.852
 10
194.475
 20
94.795
 97
0
 75
0
 76
1
 98
0
  0
HATCH
  5
8D
330
17
100
AcDbEntity
  8
RASTER
 62
7
100
AcDbHatch
 10
0.0
 20
0.0
 30
0.0
210
0.0
220
0.0
230
1.0
  2
SOLID
 70
1
 71
0
 91
1
 92
3
 72
0
 73
1
 93
16
 10
197.306
 20
96.274
 10
197.885
 20
96.274
 10
198.461
 20
94.09
 10
198.469
 20
94.09
 10
199.124
 20
96.274
 10
199.67
 20
96.274
 10
200.313
 20
94.09
 10
200.321
 20
94.09
 10
200.909
 20
96.274
 10
201.472
 20
96.274
 10
200.603
 20
93.3
 10
200.09
 20
93.3
 10
199.393
 20
95.53
 10
199.385
 20
95.53
 10
198.688
 20
93.3
 10
198.175
 20
93.3
 97
0
 75
0
 76
1
 98
0
  0
ENDSEC
  0
SECTION
  2
OBJECTS
  0
DICTIONARY
  5
A
330
0
100
AcDbDictionary
281
1
  3
ACAD_COLOR
350
B
  3
ACAD_GROUP
350
C
  3
ACAD_LAYOUT
350
D
  3
ACAD_MATERIAL
350
E
  3
ACAD_MLEADERSTYLE
350
F
  3
ACAD_MLINESTYLE
350
10
  3
ACAD_PLOTSETTINGS
350
11
  3
ACAD_PLOTSTYLENAME
350
12
  3
ACAD_SCALELIST
350
14
  3
ACAD_TABLESTYLE
350
15
  3
ACAD_VISUALSTYLE
350
16
  3
EZDXF_META
350
2D
  0
DICTIONARY
  5
B
330
A
100
AcDbDictionary
281
1
  0
DICTIONARY
  5
C
330
A
100
AcDbDictionary
281
1
  0
DICTIONARY
  5
D
330
A
100
AcDbDictionary
281
1
  3
Model
350
1A
  3
Layout1
350
1E
  0
DICTIONARY
  5
E
330
A
100
AcDbDictionary
281
1
  3
ByBlock
350
1F
  3
ByLayer
350
20
  3
Global
350
21
  0
DICTIONARY
  5
F
330
A
100
AcDbDictionary
281
1
  3
Standard
350
2C
  0
DICTIONARY
  5
10
330
A
100
AcDbDictionary
281
1
  3
Standard
350
22
  0
DICTIONARY
  5
11
330
A
100
AcDbDictionary
281
1
  0
ACDBDICTIONARYWDFLT
  5
12
330
A
100
AcDbDictionary
281
1
  3
Normal
350
13
100
AcDbDictionaryWithDefault
340
13
  0
ACDBPLACEHOLDER
  5
13
330
12
  0
DICTIONARY
  5
14
330
A
100
AcDbDictionary
281
1
  0
DICTIONARY
  5
15
330
A
100
AcDbDictionary
281
1
  0
DICTIONARY
  5
16
330
A
100
AcDbDictionary
281
1
  0
LAYOUT
  5
1A
330
D
100
AcDbPlotSettings
  1

  4
A3
  6

 40
7.5
 41
20.0
 42
7.5
 43
20.0
 44
420.0
 45
297.0
 46
0.0
 47
0.0
 48
0.0
 49
0.0
140
0.0
141
0.0
142
1.0
143
1.0
 70
1024
 72
1
 73
0
 74
5
  7

 75
16
 76
0
 77
2
 78
300
147
1.0
148
0.0
149
0.0
100
AcDbLayout
  1
Model
 70
1
 71
0
 10
0.0
 20
0.0
 11
420.0
 21
297.0
 12
0.0
 22
0.0
 32
0.0
 14
1e+20
 24
1e+20
 34
1e+20
 15
-1e+20
 25
-1e+20
 35
-1e+20
146
0.0
 13
0.0
 23
0.0
 33
0.0
 16
1.0
 26
0.0
 36
0.0
 17
0.0
 27
1.0
 37
0.0
 76
1
330
17
  0
LAYOUT
  5
1E
330
D
100
AcDbPlotSettings
  1

  4
A3
  6

 40
7.5
 41
20.0
 42
7.5
 43
20.0
 44
420.0
 45
297.0
 46
0.0
 47
0.0
 48
0.0
 49
0.0
140
0.0
141
0.0
142
1.0
143
1.0
 70
0
 72
1
 73
0
 74
5
  7

 75
16
 76
0
 77
2
 78
300
147
1.0
148
0.0
149
0.0
100
AcDbLayout
  1
Layout1
 70
1
 71
1
 10
0.0
 20
0.0
 11
420.0
 21
297.0
 12
0.0
 22
0.0
 32
0.0
 14
1e+20
 24
1e+20
 34
1e+20
 15
-1e+20
 25
-1e+20
 35
-1e+20
146
0.0
 13
0.0
 23
0.0
 33
0.0
 16
1.0
 26
0.0
 36
0.0
 17
0.0
 27
1.0
 37
0.0
 76
1
330
1B
  0
MATERIAL
  5
1F
102
{ACAD_REACTORS
330
E
102
}
330
E
100
AcDbMaterial
  1
ByBlock
  2

 70
0
 40
1.0
 71
1
 41
1.0
 91
-1023410177
 42
1.0
 72
1
  3

 73
1
 74
1
 75
1
 44
0.5
 73
0
 45
1.0
 46
1.0
 77
1
  4

 78
1
 79
1
170
1
 48
1.0
171
1
  6

172
1
173
1
174
1
140
1.0
141
1.0
175
1
  7

176
1
177
1
178
1
143
1.0
179
1
  8

270
1
271
1
272
1
145
1.0
146
1.0
273
1
  9

274
1
275
1
276
1
 42
1.0
 72
1
  3

 73
1
 74
1
 75
1
 94
63
  0
MATERIAL
  5
20
102
{ACAD_REACTORS
330
E
102
}
330
E
100
AcDbMaterial
  1
ByLayer
  2

 70
0
 40
1.0
 71
1
 41
1.0
 91
-1023410177
 42
1.0
 72
1
  3

 73
1
 74
1
 75
1
 44
0.5
 73
0
 45
1.0
 46
1.0
 77
1
  4

 78
1
 79
1
170
1
 48
1.0
171
1
  6

172
1
173
1
174
1
140
1.0
141
1.0
175
1
  7

176
1
177
1
178
1
143
1.0
179
1
  8

270
1
271
1
272
1
145
1.0
146
1.0
273
1
  9

274
1
275
1
276
1
 42
1.0
 72
1
  3

 73
1
 74
1
 75
1
 94
63
  0
MATERIAL
  5
21
102
{ACAD_REACTORS
330
E
102
}
330
E
100
AcDbMaterial
  1
Global
  2

 70
0
 40
1.0
 71
1
 41
1.0
 91
-1023410177
 42
1.0
 72
1
  3

 73
1
 74
1
 75
1
 44
0.5
 73
0
 45
1.0
 46
1.0
 77
1
  4

 78
1
 79
1
170
1
 48
1.0
171
1
  6

172
1
173
1
174
1
140
1.0
141
1.0
175
1
  7

176
1
177
1
178
1
143
1.0
179
1
  8

270
1
271
1
272
1
145
1.0
146
1.0
273
1
  9

274
1
275
1
276
1
 42
1.0
 72
1
  3

 73
1
 74
1
 75
1
 94
63
  0
MLINESTYLE
  5
22
102
{ACAD_REACTORS
330
10
102
}
330
10
100
AcDbMlineStyle
  2
Standard
 70
0
  3

 62
256
 51
90.0
 52
90.0
 71
2
 49
0.5
 62
256
  6
BYLAYER
 49
-0.5
 62
256
  6
BYLAYER
  0
MLEADERSTYLE
  5
2C
102
{ACAD_REACTORS
330
F
102
}
330
F
100
AcDbMLeaderStyle
179
2
170
2
171
1
172
0
 90
2
 40
0.0
 41
0.0
173
1
 91
-1056964608
 92
-2
290
1
 42
2.0
291
1
 43
8.0
  3
Standard
 44
4.0
300

342
29
174
1
175
1
176
0
178
1
 93
-1056964608
 45
4.0
292
0
297
0
 46
4.0
 94
-1056964608
 47
1.0
 49
1.0
140
1.0
294
1
141
0.0
177
0
142
1.0
295
0
296
0
143
3.75
271
0
272
9
273
9
  0
DICTIONARY
  5
2D
330
A
100
AcDbDictionary
280
1
281
1
  3
CREATED_BY_EZDXF
350
2E
  3
WRITTEN_BY_EZDXF
350
90
  0
DICTIONARYVAR
  5
2E
330
2D
100
DictionaryVariables
280
0
  1
1.4.2 @ 2026-09-12T03:24:34.059282+00:00
  0
DICTIONARYVAR
  5
90
330
2D
100
DictionaryVariables
280
0
  1
1.4.2 @ 2026-09-12T03:24:34.081966+00:00
  0
ENDSEC
  0
EOF
