0
SECTION
2
HEADER
9
$ACADVER
1
AC1009
9
$EXTMIN
10
0
20
0
9
$EXTMAX
10
116.8
20
32.2
0
ENDSEC
0
SECTION
2
TABLES
0
TABLE
2
LAYER
70
2
0
LAYER
2
CUT
70
0
62
1
6
CONTINUOUS
0
LAYER
2
RASTER
70
0
62
7
6
CONTINUOUS
0
ENDTAB
0
ENDSEC
0
SECTION
2
ENTITIES
0
POLYLINE
8
CUT
66
1
70
1
0
VERTEX
8
CUT
10
4
20
26.2
30
0
0
VERTEX
8
CUT
10
4.031
20
26.669
30
0
0
VERTEX
8
CUT
10
4.125
20
27.075
30
0
0
VERTEX
8
CUT
10
4.281
20
27.419
30
0
0
VERTEX
8
CUT
10
4.5
20
27.7
30
0
0
VERTEX
8
CUT
10
4.781
20
27.919
30
0
0
VERTEX
8
CUT
10
5.125
20
28.075
30
0
0
VERTEX
8
CUT
10
5.531
20
28.169
30
0
0
VERTEX
8
CUT
10
6
20
28.2
30
0
0
VERTEX
8
CUT
10
26.2
20
28.2
30
0
0
VERTEX
8
CUT
10
26.669
20
28.169
30
0
0
VERTEX
8
CUT
10
27.075
20
28.075
30
0
0
VERTEX
8
CUT
10
27.419
20
27.919
30
0
0
VERTEX
8
CUT
10
27.7
20
27.7
30
0
0
VERTEX
8
CUT
10
27.919
20
27.419
30
0
0
VERTEX
8
CUT
10
28.075
20
27.075
30
0
0
VERTEX
8
CUT
10
28.169
20
26.669
30
0
0
VERTEX
8
CUT
10
28.2
20
26.2
30
0
0
VERTEX
8
CUT
10
28.2
20
6
30
0
0
VERTEX
8
CUT
10
28.169
20
5.531
30
0
0
VERTEX
8
CUT
10
28.075
20
5.125
30
0
0
VERTEX
8
CUT
10
27.919
20
4.781
30
0
0
VERTEX
8
CUT
10
27.7
20
4.5
30
0
0
VERTEX
8
CUT
10
27.419
20
4.281
30
0
0
VERTEX
8
CUT
10
27.075
20
4.125
30
0
0
VERTEX
8
CUT
10
26.669
20
4.031
30
0
0
VERTEX
8
CUT
10
26.2
20
4
30
0
0
VERTEX
8
CUT
10
6
20
4
30
0
0
VERTEX
8
CUT
10
5.531
20
4.031
30
0
0
VERTEX
8
CUT
10
5.125
20
4.125
30
0
0
VERTEX
8
CUT
10
4.781
20
4.281
30
0
0
VERTEX
8
CUT
10
4.5
20
4.5
30
0
0
VERTEX
8
CUT
10
4.281
20
4.781
30
0
0
VERTEX
8
CUT
10
4.125
20
5.125
30
0
0
VERTEX
8
CUT
10
4.031
20
5.531
30
0
0
VERTEX
8
CUT
10
4
20
6
30
0
0
SEQEND
8
CUT
0
POLYLINE
8
RASTER
66
1
70
1
0
VERTEX
8
RASTER
10
19.15
20
16.1
30
0
0
VERTEX
8
RASTER
10
19.2
20
15.609
30
0
0
VERTEX
8
RASTER
10
19.17
20
15.103
30
0
0
VERTEX
8
RASTER
10
19.055
20
14.594
30
0
0
VERTEX
8
RASTER
10
18.855
20
14.098
30
0
0
VERTEX
8
RASTER
10
18.571
20
13.629
30
0
0
VERTEX
8
RASTER
10
18.206
20
13.201
30
0
0
VERTEX
8
RASTER
10
17.767
20
12.828
30
0
0
VERTEX
8
RASTER
10
17.262
20
12.523
30
0
0
VERTEX
8
RASTER
10
16.702
20
12.297
30
0
0
VERTEX
8
RASTER
10
16.1
20
12.161
30
0
0
VERTEX
8
RASTER
10
15.47
20
12.121
30
0
0
VERTEX
8
RASTER
10
14.828
20
12.184
30
0
0
VERTEX
8
RASTER
10
14.191
20
12.352
30
0
0
VERTEX
8
RASTER
10
13.575
20
12.625
30
0
0
VERTEX
8
RASTER
10
13
20
13
30
0
0
VERTEX
8
RASTER
10
12.481
20
13.471
30
0
0
VERTEX
8
RASTER
10
12.035
20
14.029
30
0
0
VERTEX
8
RASTER
10
11.677
20
14.663
30
0
0
VERTEX
8
RASTER
10
11.419
20
15.359
30
0
0
VERTEX
8
RASTER
10
11.272
20
16.1
30
0
0
VERTEX
8
RASTER
10
11.243
20
16.869
30
0
0
VERTEX
8
RASTER
10
11.339
20
17.647
30
0
0
VERTEX
8
RASTER
10
11.56
20
18.413
30
0
0
VERTEX
8
RASTER
10
11.906
20
19.147
30
0
0
VERTEX
8
RASTER
10
12.371
20
19.829
30
0
0
VERTEX
8
RASTER
10
12.948
20
20.438
30
0
0
VERTEX
8
RASTER
10
13.625
20
20.957
30
0
0
VERTEX
8
RASTER
10
14.388
20
21.369
30
0
0
VERTEX
8
RASTER
10
15.219
20
21.66
30
0
0
VERTEX
8
RASTER
10
16.1
20
21.818
30
0
0
VERTEX
8
RASTER
10
17.008
20
21.835
30
0
0
VERTEX
8
RASTER
10
17.922
20
21.707
30
0
0
VERTEX
8
RASTER
10
18.817
20
21.432
30
0
0
VERTEX
8
RASTER
10
19.67
20
21.014
30
0
0
VERTEX
8
RASTER
10
20.457
20
20.457
30
0
0
VERTEX
8
RASTER
10
21.157
20
19.774
30
0
0
VERTEX
8
RASTER
10
21.749
20
18.978
30
0
0
VERTEX
8
RASTER
10
22.214
20
18.087
30
0
0
VERTEX
8
RASTER
10
22.538
20
17.12
30
0
0
VERTEX
8
RASTER
10
22.707
20
16.1
30
0
0
VERTEX
8
RASTER
10
22.713
20
15.053
30
0
0
VERTEX
8
RASTER
10
22.553
20
14.003
30
0
0
VERTEX
8
RASTER
10
22.225
20
12.979
30
0
0
VERTEX
8
RASTER
10
21.733
20
12.007
30
0
0
VERTEX
8
RASTER
10
21.086
20
11.114
30
0
0
VERTEX
8
RASTER
10
20.297
20
10.323
30
0
0
VERTEX
8
RASTER
10
19.382
20
9.658
30
0
0
VERTEX
8
RASTER
10
18.362
20
9.14
30
0
0
VERTEX
8
RASTER
10
17.259
20
8.784
30
0
0
VERTEX
8
RASTER
10
16.1
20
8.604
30
0
0
VERTEX
8
RASTER
10
14.913
20
8.608
30
0
0
VERTEX
8
RASTER
10
13.729
20
8.801
30
0
0
VERTEX
8
RASTER
10
12.576
20
9.183
30
0
0
VERTEX
8
RASTER
10
11.485
20
9.748
30
0
0
VERTEX
8
RASTER
10
10.485
20
10.485
30
0
0
VERTEX
8
RASTER
10
9.604
20
11.38
30
0
0
VERTEX
8
RASTER
10
8.866
20
12.414
30
0
0
VERTEX
8
RASTER
10
8.294
20
13.564
30
0
0
VERTEX
8
RASTER
10
7.906
20
14.802
30
0
0
VERTEX
8
RASTER
10
7.715
20
16.1
30
0
0
VERTEX
8
RASTER
10
7.73
20
17.426
30
0
0
VERTEX
8
RASTER
10
7.956
20
18.746
30
0
0
VERTEX
8
RASTER
10
8.391
20
20.028
30
0
0
VERTEX
8
RASTER
10
9.028
20
21.238
30
0
0
VERTEX
8
RASTER
10
9.856
20
22.344
30
0
0
VERTEX
8
RASTER
10
10.858
20
23.316
30
0
0
VERTEX
8
RASTER
10
12.01
20
24.126
30
0
0
VERTEX
8
RASTER
10
13.289
20
24.752
30
0
0
VERTEX
8
RASTER
10
14.663
20
25.173
30
0
0
VERTEX
8
RASTER
10
16.1
20
25.375
30
0
0
VERTEX
8
RASTER
10
17.565
20
25.348
30
0
0
VERTEX
8
RASTER
10
19.021
20
25.09
30
0
0
VERTEX
8
RASTER
10
20.432
20
24.602
30
0
0
VERTEX
8
RASTER
10
21.761
20
23.891
30
0
0
VERTEX
8
RASTER
10
22.973
20
22.973
30
0
0
VERTEX
8
RASTER
10
24.035
20
21.865
30
0
0
VERTEX
8
RASTER
10
24.918
20
20.593
30
0
0
VERTEX
8
RASTER
10
25.597
20
19.186
30
0
0
VERTEX
8
RASTER
10
26.051
20
17.676
30
0
0
VERTEX
8
RASTER
10
26.264
20
16.1
30
0
0
VERTEX
8
RASTER
10
24.564
20
16.1
30
0
0
VERTEX
8
RASTER
10
24.372
20
17.41
30
0
0
VERTEX
8
RASTER
10
23.981
20
18.661
30
0
0
VERTEX
8
RASTER
10
23.404
20
19.821
30
0
0
VERTEX
8
RASTER
10
22.66
20
20.866
30
0
0
VERTEX
8
RASTER
10
21.771
20
21.771
30
0
0
VERTEX
8
RASTER
10
20.761
20
22.516
30
0
0
VERTEX
8
RASTER
10
19.66
20
23.087
30
0
0
VERTEX
8
RASTER
10
18.496
20
23.473
30
0
0
VERTEX
8
RASTER
10
17.299
20
23.669
30
0
0
VERTEX
8
RASTER
10
16.1
20
23.675
30
0
0
VERTEX
8
RASTER
10
14.929
20
23.494
30
0
0
VERTEX
8
RASTER
10
13.814
20
23.135
30
0
0
VERTEX
8
RASTER
10
12.782
20
22.611
30
0
0
VERTEX
8
RASTER
10
11.857
20
21.94
30
0
0
VERTEX
8
RASTER
10
11.058
20
21.142
30
0
0
VERTEX
8
RASTER
10
10.404
20
20.239
30
0
0
VERTEX
8
RASTER
10
9.905
20
19.256
30
0
0
VERTEX
8
RASTER
10
9.573
20
18.221
30
0
0
VERTEX
8
RASTER
10
9.409
20
17.16
30
0
0
VERTEX
8
RASTER
10
9.415
20
16.1
30
0
0
VERTEX
8
RASTER
10
9.585
20
15.068
30
0
0
VERTEX
8
RASTER
10
9.911
20
14.089
30
0
0
VERTEX
8
RASTER
10
10.381
20
13.186
30
0
0
VERTEX
8
RASTER
10
10.979
20
12.379
30
0
0
VERTEX
8
RASTER
10
11.687
20
11.687
30
0
0
VERTEX
8
RASTER
10
12.484
20
11.123
30
0
0
VERTEX
8
RASTER
10
13.347
20
10.698
30
0
0
VERTEX
8
RASTER
10
14.254
20
10.418
30
0
0
VERTEX
8
RASTER
10
15.179
20
10.287
30
0
0
VERTEX
8
RASTER
10
16.1
20
10.304
30
0
0
VERTEX
8
RASTER
10
16.993
20
10.463
30
0
0
VERTEX
8
RASTER
10
17.836
20
10.757
30
0
0
VERTEX
8
RASTER
10
18.61
20
11.173
30
0
0
VERTEX
8
RASTER
10
19.298
20
11.699
30
0
0
VERTEX
8
RASTER
10
19.884
20
12.316
30
0
0
VERTEX
8
RASTER
10
20.358
20
13.007
30
0
0
VERTEX
8
RASTER
10
20.71
20
13.751
30
0
0
VERTEX
8
RASTER
10
20.936
20
14.529
30
0
0
VERTEX
8
RASTER
10
21.034
20
15.318
30
0
0
VERTEX
8
RASTER
10
21.007
20
16.1
30
0
0
VERTEX
8
RASTER
10
20.859
20
16.854
30
0
0
VERTEX
8
RASTER
10
20.598
20
17.561
30
0
0
VERTEX
8
RASTER
10
20.234
20
18.207
30
0
0
VERTEX
8
RASTER
10
19.782
20
18.775
30
0
0
VERTEX
8
RASTER
10
19.255
20
19.255
30
0
0
VERTEX
8
RASTER
10
18.671
20
19.638
30
0
0
VERTEX
8
RASTER
10
18.045
20
19.918
30
0
0
VERTEX
8
RASTER
10
17.397
20
20.09
30
0
0
VERTEX
8
RASTER
10
16.742
20
20.156
30
0
0
VERTEX
8
RASTER
10
16.1
20
20.118
30
0
0
VERTEX
8
RASTER
10
15.485
20
19.98
30
0
0
VERTEX
8
RASTER
10
14.913
20
19.752
30
0
0
VERTEX
8
RASTER
10
14.397
20
19.442
30
0
0
VERTEX
8
RASTER
10
13.948
20
19.063
30
0
0
VERTEX
8
RASTER
10
13.573
20
18.627
30
0
0
VERTEX
8
RASTER
10
13.281
20
18.148
30
0
0
VERTEX
8
RASTER
10
13.075
20
17.641
30
0
0
VERTEX
8
RASTER
10
12.955
20
17.122
30
0
0
VERTEX
8
RASTER
10
12.922
20
16.603
30
0
0
VERTEX
8
RASTER
10
12.972
20
16.1
30
0
0
VERTEX
8
RASTER
10
13.098
20
15.625
30
0
0
VERTEX
8
RASTER
10
13.294
20
15.188
30
0
0
VERTEX
8
RASTER
10
13.55
20
14.801
30
0
0
VERTEX
8
RASTER
10
13.857
20
14.47
30
0
0
VERTEX
8
RASTER
10
14.202
20
14.202
30
0
0
VERTEX
8
RASTER
10
14.575
20
14.001
30
0
0
VERTEX
8
RASTER
10
14.962
20
13.867
30
0
0
VERTEX
8
RASTER
10
15.353
20
13.801
30
0
0
VERTEX
8
RASTER
10
15.736
20
13.8
30
0
0
VERTEX
8
RASTER
10
16.1
20
13.861
30
0
0
VERTEX
8
RASTER
10
16.436
20
13.976
30
0
0
VERTEX
8
RASTER
10
16.737
20
14.139
30
0
0
VERTEX
8
RASTER
10
16.995
20
14.343
30
0
0
VERTEX
8
RASTER
10
17.207
20
14.576
30
0
0
VERTEX
8
RASTER
10
17.369
20
14.831
30
0
0
VERTEX
8
RASTER
10
17.48
20
15.097
30
0
0
VERTEX
8
RASTER
10
17.541
20
15.366
30
0
0
VERTEX
8
RASTER
10
17.553
20
15.628
30
0
0
VERTEX
8
RASTER
10
17.521
20
15.875
30
0
0
VERTEX
8
RASTER
10
17.45
20
16.1
30
0
0
SEQEND
8
RASTER
0
CIRCLE
8
RASTER
10
16.1
20
16.1
30
0
40
1.6
0
POLYLINE
8
CUT
66
1
70
1
0
VERTEX
8
CUT
10
32.2
20
26.2
30
0
0
VERTEX
8
CUT
10
32.231
20
26.669
30
0
0
VERTEX
8
CUT
10
32.325
20
27.075
30
0
0
VERTEX
8
CUT
10
32.481
20
27.419
30
0
0
VERTEX
8
CUT
10
32.7
20
27.7
30
0
0
VERTEX
8
CUT
10
32.981
20
27.919
30
0
0
VERTEX
8
CUT
10
33.325
20
28.075
30
0
0
VERTEX
8
CUT
10
33.731
20
28.169
30
0
0
VERTEX
8
CUT
10
34.2
20
28.2
30
0
0
VERTEX
8
CUT
10
54.4
20
28.2
30
0
0
VERTEX
8
CUT
10
54.869
20
28.169
30
0
0
VERTEX
8
CUT
10
55.275
20
28.075
30
0
0
VERTEX
8
CUT
10
55.619
20
27.919
30
0
0
VERTEX
8
CUT
10
55.9
20
27.7
30
0
0
VERTEX
8
CUT
10
56.119
20
27.419
30
0
0
VERTEX
8
CUT
10
56.275
20
27.075
30
0
0
VERTEX
8
CUT
10
56.369
20
26.669
30
0
0
VERTEX
8
CUT
10
56.4
20
26.2
30
0
0
VERTEX
8
CUT
10
56.4
20
6
30
0
0
VERTEX
8
CUT
10
56.369
20
5.531
30
0
0
VERTEX
8
CUT
10
56.275
20
5.125
30
0
0
VERTEX
8
CUT
10
56.119
20
4.781
30
0
0
VERTEX
8
CUT
10
55.9
20
4.5
30
0
0
VERTEX
8
CUT
10
55.619
20
4.281
30
0
0
VERTEX
8
CUT
10
55.275
20
4.125
30
0
0
VERTEX
8
CUT
10
54.869
20
4.031
30
0
0
VERTEX
8
CUT
10
54.4
20
4
30
0
0
VERTEX
8
CUT
10
34.2
20
4
30
0
0
VERTEX
8
CUT
10
33.731
20
4.031
30
0
0
VERTEX
8
CUT
10
33.325
20
4.125
30
0
0
VERTEX
8
CUT
10
32.981
20
4.281
30
0
0
VERTEX
8
CUT
10
32.7
20
4.5
30
0
0
VERTEX
8
CUT
10
32.481
20
4.781
30
0
0
VERTEX
8
CUT
10
32.325
20
5.125
30
0
0
VERTEX
8
CUT
10
32.231
20
5.531
30
0
0
VERTEX
8
CUT
10
32.2
20
6
30
0
0
SEQEND
8
CUT
0
POLYLINE
8
RASTER
66
1
70
1
0
VERTEX
8
RASTER
10
47.35
20
16.1
30
0
0
VERTEX
8
RASTER
10
47.4
20
15.609
30
0
0
VERTEX
8
RASTER
10
47.37
20
15.103
30
0
0
VERTEX
8
RASTER
10
47.255
20
14.594
30
0
0
VERTEX
8
RASTER
10
47.055
20
14.098
30
0
0
VERTEX
8
RASTER
10
46.771
20
13.629
30
0
0
VERTEX
8
RASTER
10
46.406
20
13.201
30
0
0
VERTEX
8
RASTER
10
45.967
20
12.828
30
0
0
VERTEX
8
RASTER
10
45.462
20
12.523
30
0
0
VERTEX
8
RASTER
10
44.902
20
12.297
30
0
0
VERTEX
8
RASTER
10
44.3
20
12.161
30
0
0
VERTEX
8
RASTER
10
43.67
20
12.121
30
0
0
VERTEX
8
RASTER
10
43.028
20
12.184
30
0
0
VERTEX
8
RASTER
10
42.391
20
12.352
30
0
0
VERTEX
8
RASTER
10
41.775
20
12.625
30
0
0
VERTEX
8
RASTER
10
41.2
20
13
30
0
0
VERTEX
8
RASTER
10
40.681
20
13.471
30
0
0
VERTEX
8
RASTER
10
40.235
20
14.029
30
0
0
VERTEX
8
RASTER
10
39.877
20
14.663
30
0
0
VERTEX
8
RASTER
10
39.619
20
15.359
30
0
0
VERTEX
8
RASTER
10
39.472
20
16.1
30
0
0
VERTEX
8
RASTER
10
39.443
20
16.869
30
0
0
VERTEX
8
RASTER
10
39.539
20
17.647
30
0
0
VERTEX
8
RASTER
10
39.76
20
18.413
30
0
0
VERTEX
8
RASTER
10
40.106
20
19.147
30
0
0
VERTEX
8
RASTER
10
40.571
20
19.829
30
0
0
VERTEX
8
RASTER
10
41.148
20
20.438
30
0
0
VERTEX
8
RASTER
10
41.825
20
20.957
30
0
0
VERTEX
8
RASTER
10
42.588
20
21.369
30
0
0
VERTEX
8
RASTER
10
43.419
20
21.66
30
0
0
VERTEX
8
RASTER
10
44.3
20
21.818
30
0
0
VERTEX
8
RASTER
10
45.208
20
21.835
30
0
0
VERTEX
8
RASTER
10
46.122
20
21.707
30
0
0
VERTEX
8
RASTER
10
47.017
20
21.432
30
0
0
VERTEX
8
RASTER
10
47.87
20
21.014
30
0
0
VERTEX
8
RASTER
10
48.657
20
20.457
30
0
0
VERTEX
8
RASTER
10
49.357
20
19.774
30
0
0
VERTEX
8
RASTER
10
49.949
20
18.978
30
0
0
VERTEX
8
RASTER
10
50.414
20
18.087
30
0
0
VERTEX
8
RASTER
10
50.738
20
17.12
30
0
0
VERTEX
8
RASTER
10
50.907
20
16.1
30
0
0
VERTEX
8
RASTER
10
50.913
20
15.053
30
0
0
VERTEX
8
RASTER
10
50.753
20
14.003
30
0
0
VERTEX
8
RASTER
10
50.425
20
12.979
30
0
0
VERTEX
8
RASTER
10
49.933
20
12.007
30
0
0
VERTEX
8
RASTER
10
49.286
20
11.114
30
0
0
VERTEX
8
RASTER
10
48.497
20
10.323
30
0
0
VERTEX
8
RASTER
10
47.582
20
9.658
30
0
0
VERTEX
8
RASTER
10
46.562
20
9.14
30
0
0
VERTEX
8
RASTER
10
45.459
20
8.784
30
0
0
VERTEX
8
RASTER
10
44.3
20
8.604
30
0
0
VERTEX
8
RASTER
10
43.113
20
8.608
30
0
0
VERTEX
8
RASTER
10
41.929
20
8.801
30
0
0
VERTEX
8
RASTER
10
40.776
20
9.183
30
0
0
VERTEX
8
RASTER
10
39.685
20
9.748
30
0
0
VERTEX
8
RASTER
10
38.685
20
10.485
30
0
0
VERTEX
8
RASTER
10
37.804
20
11.38
30
0
0
VERTEX
8
RASTER
10
37.066
20
12.414
30
0
0
VERTEX
8
RASTER
10
36.494
20
13.564
30
0
0
VERTEX
8
RASTER
10
36.106
20
14.802
30
0
0
VERTEX
8
RASTER
10
35.915
20
16.1
30
0
0
VERTEX
8
RASTER
10
35.93
20
17.426
30
0
0
VERTEX
8
RASTER
10
36.156
20
18.746
30
0
0
VERTEX
8
RASTER
10
36.591
20
20.028
30
0
0
VERTEX
8
RASTER
10
37.228
20
21.238
30
0
0
VERTEX
8
RASTER
10
38.056
20
22.344
30
0
0
VERTEX
8
RASTER
10
39.058
20
23.316
30
0
0
VERTEX
8
RASTER
10
40.21
20
24.126
30
0
0
VERTEX
8
RASTER
10
41.489
20
24.752
30
0
0
VERTEX
8
RASTER
10
42.863
20
25.173
30
0
0
VERTEX
8
RASTER
10
44.3
20
25.375
30
0
0
VERTEX
8
RASTER
10
45.765
20
25.348
30
0
0
VERTEX
8
RASTER
10
47.221
20
25.09
30
0
0
VERTEX
8
RASTER
10
48.632
20
24.602
30
0
0
VERTEX
8
RASTER
10
49.961
20
23.891
30
0
0
VERTEX
8
RASTER
10
51.173
20
22.973
30
0
0
VERTEX
8
RASTER
10
52.235
20
21.865
30
0
0
VERTEX
8
RASTER
10
53.118
20
20.593
30
0
0
VERTEX
8
RASTER
10
53.797
20
19.186
30
0
0
VERTEX
8
RASTER
10
54.251
20
17.676
30
0
0
VERTEX
8
RASTER
10
54.464
20
16.1
30
0
0
VERTEX
8
RASTER
10
52.764
20
16.1
30
0
0
VERTEX
8
RASTER
10
52.572
20
17.41
30
0
0
VERTEX
8
RASTER
10
52.181
20
18.661
30
0
0
VERTEX
8
RASTER
10
51.604
20
19.821
30
0
0
VERTEX
8
RASTER
10
50.86
20
20.866
30
0
0
VERTEX
8
RASTER
10
49.971
20
21.771
30
0
0
VERTEX
8
RASTER
10
48.961
20
22.516
30
0
0
VERTEX
8
RASTER
10
47.86
20
23.087
30
0
0
VERTEX
8
RASTER
10
46.696
20
23.473
30
0
0
VERTEX
8
RASTER
10
45.499
20
23.669
30
0
0
VERTEX
8
RASTER
10
44.3
20
23.675
30
0
0
VERTEX
8
RASTER
10
43.129
20
23.494
30
0
0
VERTEX
8
RASTER
10
42.014
20
23.135
30
0
0
VERTEX
8
RASTER
10
40.982
20
22.611
30
0
0
VERTEX
8
RASTER
10
40.057
20
21.94
30
0
0
VERTEX
8
RASTER
10
39.258
20
21.142
30
0
0
VERTEX
8
RASTER
10
38.604
20
20.239
30
0
0
VERTEX
8
RASTER
10
38.105
20
19.256
30
0
0
VERTEX
8
RASTER
10
37.773
20
18.221
30
0
0
VERTEX
8
RASTER
10
37.609
20
17.16
30
0
0
VERTEX
8
RASTER
10
37.615
20
16.1
30
0
0
VERTEX
8
RASTER
10
37.785
20
15.068
30
0
0
VERTEX
8
RASTER
10
38.111
20
14.089
30
0
0
VERTEX
8
RASTER
10
38.581
20
13.186
30
0
0
VERTEX
8
RASTER
10
39.179
20
12.379
30
0
0
VERTEX
8
RASTER
10
39.887
20
11.687
30
0
0
VERTEX
8
RASTER
10
40.684
20
11.123
30
0
0
VERTEX
8
RASTER
10
41.547
20
10.698
30
0
0
VERTEX
8
RASTER
10
42.454
20
10.418
30
0
0
VERTEX
8
RASTER
10
43.379
20
10.287
30
0
0
VERTEX
8
RASTER
10
44.3
20
10.304
30
0
0
VERTEX
8
RASTER
10
45.193
20
10.463
30
0
0
VERTEX
8
RASTER
10
46.036
20
10.757
30
0
0
VERTEX
8
RASTER
10
46.81
20
11.173
30
0
0
VERTEX
8
RASTER
10
47.498
20
11.699
30
0
0
VERTEX
8
RASTER
10
48.084
20
12.316
30
0
0
VERTEX
8
RASTER
10
48.558
20
13.007
30
0
0
VERTEX
8
RASTER
10
48.91
20
13.751
30
0
0
VERTEX
8
RASTER
10
49.136
20
14.529
30
0
0
VERTEX
8
RASTER
10
49.234
20
15.318
30
0
0
VERTEX
8
RASTER
10
49.207
20
16.1
30
0
0
VERTEX
8
RASTER
10
49.059
20
16.854
30
0
0
VERTEX
8
RASTER
10
48.798
20
17.561
30
0
0
VERTEX
8
RASTER
10
48.434
20
18.207
30
0
0
VERTEX
8
RASTER
10
47.982
20
18.775
30
0
0
VERTEX
8
RASTER
10
47.455
20
19.255
30
0
0
VERTEX
8
RASTER
10
46.871
20
19.638
30
0
0
VERTEX
8
RASTER
10
46.245
20
19.918
30
0
0
VERTEX
8
RASTER
10
45.597
20
20.09
30
0
0
VERTEX
8
RASTER
10
44.942
20
20.156
30
0
0
VERTEX
8
RASTER
10
44.3
20
20.118
30
0
0
VERTEX
8
RASTER
10
43.685
20
19.98
30
0
0
VERTEX
8
RASTER
10
43.113
20
19.752
30
0
0
VERTEX
8
RASTER
10
42.597
20
19.442
30
0
0
VERTEX
8
RASTER
10
42.148
20
19.063
30
0
0
VERTEX
8
RASTER
10
41.773
20
18.627
30
0
0
VERTEX
8
RASTER
10
41.481
20
18.148
30
0
0
VERTEX
8
RASTER
10
41.275
20
17.641
30
0
0
VERTEX
8
RASTER
10
41.155
20
17.122
30
0
0
VERTEX
8
RASTER
10
41.122
20
16.603
30
0
0
VERTEX
8
RASTER
10
41.172
20
16.1
30
0
0
VERTEX
8
RASTER
10
41.298
20
15.625
30
0
0
VERTEX
8
RASTER
10
41.494
20
15.188
30
0
0
VERTEX
8
RASTER
10
41.75
20
14.801
30
0
0
VERTEX
8
RASTER
10
42.057
20
14.47
30
0
0
VERTEX
8
RASTER
10
42.402
20
14.202
30
0
0
VERTEX
8
RASTER
10
42.775
20
14.001
30
0
0
VERTEX
8
RASTER
10
43.162
20
13.867
30
0
0
VERTEX
8
RASTER
10
43.553
20
13.801
30
0
0
VERTEX
8
RASTER
10
43.936
20
13.8
30
0
0
VERTEX
8
RASTER
10
44.3
20
13.861
30
0
0
VERTEX
8
RASTER
10
44.636
20
13.976
30
0
0
VERTEX
8
RASTER
10
44.937
20
14.139
30
0
0
VERTEX
8
RASTER
10
45.195
20
14.343
30
0
0
VERTEX
8
RASTER
10
45.407
20
14.576
30
0
0
VERTEX
8
RASTER
10
45.569
20
14.831
30
0
0
VERTEX
8
RASTER
10
45.68
20
15.097
30
0
0
VERTEX
8
RASTER
10
45.741
20
15.366
30
0
0
VERTEX
8
RASTER
10
45.753
20
15.628
30
0
0
VERTEX
8
RASTER
10
45.721
20
15.875
30
0
0
VERTEX
8
RASTER
10
45.65
20
16.1
30
0
0
SEQEND
8
RASTER
0
CIRCLE
8
RASTER
10
44.3
20
16.1
30
0
40
1.6
0
POLYLINE
8
CUT
66
1
70
1
0
VERTEX
8
CUT
10
60.4
20
26.2
30
0
0
VERTEX
8
CUT
10
60.431
20
26.669
30
0
0
VERTEX
8
CUT
10
60.525
20
27.075
30
0
0
VERTEX
8
CUT
10
60.681
20
27.419
30
0
0
VERTEX
8
CUT
10
60.9
20
27.7
30
0
0
VERTEX
8
CUT
10
61.181
20
27.919
30
0
0
VERTEX
8
CUT
10
61.525
20
28.075
30
0
0
VERTEX
8
CUT
10
61.931
20
28.169
30
0
0
VERTEX
8
CUT
10
62.4
20
28.2
30
0
0
VERTEX
8
CUT
10
82.6
20
28.2
30
0
0
VERTEX
8
CUT
10
83.069
20
28.169
30
0
0
VERTEX
8
CUT
10
83.475
20
28.075
30
0
0
VERTEX
8
CUT
10
83.819
20
27.919
30
0
0
VERTEX
8
CUT
10
84.1
20
27.7
30
0
0
VERTEX
8
CUT
10
84.319
20
27.419
30
0
0
VERTEX
8
CUT
10
84.475
20
27.075
30
0
0
VERTEX
8
CUT
10
84.569
20
26.669
30
0
0
VERTEX
8
CUT
10
84.6
20
26.2
30
0
0
VERTEX
8
CUT
10
84.6
20
6
30
0
0
VERTEX
8
CUT
10
84.569
20
5.531
30
0
0
VERTEX
8
CUT
10
84.475
20
5.125
30
0
0
VERTEX
8
CUT
10
84.319
20
4.781
30
0
0
VERTEX
8
CUT
10
84.1
20
4.5
30
0
0
VERTEX
8
CUT
10
83.819
20
4.281
30
0
0
VERTEX
8
CUT
10
83.475
20
4.125
30
0
0
VERTEX
8
CUT
10
83.069
20
4.031
30
0
0
VERTEX
8
CUT
10
82.6
20
4
30
0
0
VERTEX
8
CUT
10
62.4
20
4
30
0
0
VERTEX
8
CUT
10
61.931
20
4.031
30
0
0
VERTEX
8
CUT
10
61.525
20
4.125
30
0
0
VERTEX
8
CUT
10
61.181
20
4.281
30
0
0
VERTEX
8
CUT
10
60.9
20
4.5
30
0
0
VERTEX
8
CUT
10
60.681
20
4.781
30
0
0
VERTEX
8
CUT
10
60.525
20
5.125
30
0
0
VERTEX
8
CUT
10
60.431
20
5.531
30
0
0
VERTEX
8
CUT
10
60.4
20
6
30
0
0
SEQEND
8
CUT
0
POLYLINE
8
RASTER
66
1
70
1
0
VERTEX
8
RASTER
10
75.55
20
16.1
30
0
0
VERTEX
8
RASTER
10
75.6
20
15.609
30
0
0
VERTEX
8
RASTER
10
75.57
20
15.103
30
0
0
VERTEX
8
RASTER
10
75.455
20
14.594
30
0
0
VERTEX
8
RASTER
10
75.255
20
14.098
30
0
0
VERTEX
8
RASTER
10
74.971
20
13.629
30
0
0
VERTEX
8
RASTER
10
74.606
20
13.201
30
0
0
VERTEX
8
RASTER
10
74.167
20
12.828
30
0
0
VERTEX
8
RASTER
10
73.662
20
12.523
30
0
0
VERTEX
8
RASTER
10
73.102
20
12.297
30
0
0
VERTEX
8
RASTER
10
72.5
20
12.161
30
0
0
VERTEX
8
RASTER
10
71.87
20
12.121
30
0
0
VERTEX
8
RASTER
10
71.228
20
12.184
30
0
0
VERTEX
8
RASTER
10
70.591
20
12.352
30
0
0
VERTEX
8
RASTER
10
69.975
20
12.625
30
0
0
VERTEX
8
RASTER
10
69.4
20
13
30
0
0
VERTEX
8
RASTER
10
68.881
20
13.471
30
0
0
VERTEX
8
RASTER
10
68.435
20
14.029
30
0
0
VERTEX
8
RASTER
10
68.077
20
14.663
30
0
0
VERTEX
8
RASTER
10
67.819
20
15.359
30
0
0
VERTEX
8
RASTER
10
67.672
20
16.1
30
0
0
VERTEX
8
RASTER
10
67.643
20
16.869
30
0
0
VERTEX
8
RASTER
10
67.739
20
17.647
30
0
0
VERTEX
8
RASTER
10
67.96
20
18.413
30
0
0
VERTEX
8
RASTER
10
68.306
20
19.147
30
0
0
VERTEX
8
RASTER
10
68.771
20
19.829
30
0
0
VERTEX
8
RASTER
10
69.348
20
20.438
30
0
0
VERTEX
8
RASTER
10
70.025
20
20.957
30
0
0
VERTEX
8
RASTER
10
70.788
20
21.369
30
0
0
VERTEX
8
RASTER
10
71.619
20
21.66
30
0
0
VERTEX
8
RASTER
10
72.5
20
21.818
30
0
0
VERTEX
8
RASTER
10
73.408
20
21.835
30
0
0
VERTEX
8
RASTER
10
74.322
20
21.707
30
0
0
VERTEX
8
RASTER
10
75.217
20
21.432
30
0
0
VERTEX
8
RASTER
10
76.07
20
21.014
30
0
0
VERTEX
8
RASTER
10
76.857
20
20.457
30
0
0
VERTEX
8
RASTER
10
77.557
20
19.774
30
0
0
VERTEX
8
RASTER
10
78.149
20
18.978
30
0
0
VERTEX
8
RASTER
10
78.614
20
18.087
30
0
0
VERTEX
8
RASTER
10
78.938
20
17.12
30
0
0
VERTEX
8
RASTER
10
79.107
20
16.1
30
0
0
VERTEX
8
RASTER
10
79.113
20
15.053
30
0
0
VERTEX
8
RASTER
10
78.953
20
14.003
30
0
0
VERTEX
8
RASTER
10
78.625
20
12.979
30
0
0
VERTEX
8
RASTER
10
78.133
20
12.007
30
0
0
VERTEX
8
RASTER
10
77.486
20
11.114
30
0
0
VERTEX
8
RASTER
10
76.697
20
10.323
30
0
0
VERTEX
8
RASTER
10
75.782
20
9.658
30
0
0
VERTEX
8
RASTER
10
74.762
20
9.14
30
0
0
VERTEX
8
RASTER
10
73.659
20
8.784
30
0
0
VERTEX
8
RASTER
10
72.5
20
8.604
30
0
0
VERTEX
8
RASTER
10
71.313
20
8.608
30
0
0
VERTEX
8
RASTER
10
70.129
20
8.801
30
0
0
VERTEX
8
RASTER
10
68.976
20
9.183
30
0
0
VERTEX
8
RASTER
10
67.885
20
9.748
30
0
0
VERTEX
8
RASTER
10
66.885
20
10.485
30
0
0
VERTEX
8
RASTER
10
66.004
20
11.38
30
0
0
VERTEX
8
RASTER
10
65.266
20
12.414
30
0
0
VERTEX
8
RASTER
10
64.694
20
13.564
30
0
0
VERTEX
8
RASTER
10
64.306
20
14.802
30
0
0
VERTEX
8
RASTER
10
64.114
20
16.1
30
0
0
VERTEX
8
RASTER
10
64.13
20
17.426
30
0
0
VERTEX
8
RASTER
10
64.356
20
18.746
30
0
0
VERTEX
8
RASTER
10
64.791
20
20.028
30
0
0
VERTEX
8
RASTER
10
65.428
20
21.238
30
0
0
VERTEX
8
RASTER
10
66.256
20
22.344
30
0
0
VERTEX
8
RASTER
10
67.258
20
23.316
30
0
0
VERTEX
8
RASTER
10
68.41
20
24.126
30
0
0
VERTEX
8
RASTER
10
69.689
20
24.752
30
0
0
VERTEX
8
RASTER
10
71.063
20
25.173
30
0
0
VERTEX
8
RASTER
10
72.5
20
25.375
30
0
0
VERTEX
8
RASTER
10
73.965
20
25.348
30
0
0
VERTEX
8
RASTER
10
75.421
20
25.09
30
0
0
VERTEX
8
RASTER
10
76.832
20
24.602
30
0
0
VERTEX
8
RASTER
10
78.161
20
23.891
30
0
0
VERTEX
8
RASTER
10
79.373
20
22.973
30
0
0
VERTEX
8
RASTER
10
80.435
20
21.865
30
0
0
VERTEX
8
RASTER
10
81.318
20
20.593
30
0
0
VERTEX
8
RASTER
10
81.997
20
19.186
30
0
0
VERTEX
8
RASTER
10
82.451
20
17.676
30
0
0
VERTEX
8
RASTER
10
82.664
20
16.1
30
0
0
VERTEX
8
RASTER
10
80.964
20
16.1
30
0
0
VERTEX
8
RASTER
10
80.772
20
17.41
30
0
0
VERTEX
8
RASTER
10
80.381
20
18.661
30
0
0
VERTEX
8
RASTER
10
79.804
20
19.821
30
0
0
VERTEX
8
RASTER
10
79.06
20
20.866
30
0
0
VERTEX
8
RASTER
10
78.171
20
21.771
30
0
0
VERTEX
8
RASTER
10
77.161
20
22.516
30
0
0
VERTEX
8
RASTER
10
76.06
20
23.087
30
0
0
VERTEX
8
RASTER
10
74.896
20
23.473
30
0
0
VERTEX
8
RASTER
10
73.699
20
23.669
30
0
0
VERTEX
8
RASTER
10
72.5
20
23.675
30
0
0
VERTEX
8
RASTER
10
71.329
20
23.494
30
0
0
VERTEX
8
RASTER
10
70.214
20
23.135
30
0
0
VERTEX
8
RASTER
10
69.182
20
22.611
30
0
0
VERTEX
8
RASTER
10
68.257
20
21.94
30
0
0
VERTEX
8
RASTER
10
67.458
20
21.142
30
0
0
VERTEX
8
RASTER
10
66.804
20
20.239
30
0
0
VERTEX
8
RASTER
10
66.305
20
19.256
30
0
0
VERTEX
8
RASTER
10
65.973
20
18.221
30
0
0
VERTEX
8
RASTER
10
65.809
20
17.16
30
0
0
VERTEX
8
RASTER
10
65.815
20
16.1
30
0
0
VERTEX
8
RASTER
10
65.985
20
15.068
30
0
0
VERTEX
8
RASTER
10
66.311
20
14.089
30
0
0
VERTEX
8
RASTER
10
66.781
20
13.186
30
0
0
VERTEX
8
RASTER
10
67.379
20
12.379
30
0
0
VERTEX
8
RASTER
10
68.087
20
11.687
30
0
0
VERTEX
8
RASTER
10
68.884
20
11.123
30
0
0
VERTEX
8
RASTER
10
69.747
20
10.698
30
0
0
VERTEX
8
RASTER
10
70.654
20
10.418
30
0
0
VERTEX
8
RASTER
10
71.579
20
10.287
30
0
0
VERTEX
8
RASTER
10
72.5
20
10.304
30
0
0
VERTEX
8
RASTER
10
73.393
20
10.463
30
0
0
VERTEX
8
RASTER
10
74.236
20
10.757
30
0
0
VERTEX
8
RASTER
10
75.01
20
11.173
30
0
0
VERTEX
8
RASTER
10
75.698
20
11.699
30
0
0
VERTEX
8
RASTER
10
76.284
20
12.316
30
0
0
VERTEX
8
RASTER
10
76.758
20
13.007
30
0
0
VERTEX
8
RASTER
10
77.11
20
13.751
30
0
0
VERTEX
8
RASTER
10
77.336
20
14.529
30
0
0
VERTEX
8
RASTER
10
77.434
20
15.318
30
0
0
VERTEX
8
RASTER
10
77.407
20
16.1
30
0
0
VERTEX
8
RASTER
10
77.259
20
16.854
30
0
0
VERTEX
8
RASTER
10
76.998
20
17.561
30
0
0
VERTEX
8
RASTER
10
76.634
20
18.207
30
0
0
VERTEX
8
RASTER
10
76.182
20
18.775
30
0
0
VERTEX
8
RASTER
10
75.655
20
19.255
30
0
0
VERTEX
8
RASTER
10
75.071
20
19.638
30
0
0
VERTEX
8
RASTER
10
74.445
20
19.918
30
0
0
VERTEX
8
RASTER
10
73.797
20
20.09
30
0
0
VERTEX
8
RASTER
10
73.142
20
20.156
30
0
0
VERTEX
8
RASTER
10
72.5
20
20.118
30
0
0
VERTEX
8
RASTER
10
71.885
20
19.98
30
0
0
VERTEX
8
RASTER
10
71.313
20
19.752
30
0
0
VERTEX
8
RASTER
10
70.797
20
19.442
30
0
0
VERTEX
8
RASTER
10
70.348
20
19.063
30
0
0
VERTEX
8
RASTER
10
69.973
20
18.627
30
0
0
VERTEX
8
RASTER
10
69.681
20
18.148
30
0
0
VERTEX
8
RASTER
10
69.475
20
17.641
30
0
0
VERTEX
8
RASTER
10
69.355
20
17.122
30
0
0
VERTEX
8
RASTER
10
69.322
20
16.603
30
0
0
VERTEX
8
RASTER
10
69.372
20
16.1
30
0
0
VERTEX
8
RASTER
10
69.498
20
15.625
30
0
0
VERTEX
8
RASTER
10
69.694
20
15.188
30
0
0
VERTEX
8
RASTER
10
69.95
20
14.801
30
0
0
VERTEX
8
RASTER
10
70.257
20
14.47
30
0
0
VERTEX
8
RASTER
10
70.602
20
14.202
30
0
0
VERTEX
8
RASTER
10
70.975
20
14.001
30
0
0
VERTEX
8
RASTER
10
71.362
20
13.867
30
0
0
VERTEX
8
RASTER
10
71.753
20
13.801
30
0
0
VERTEX
8
RASTER
10
72.136
20
13.8
30
0
0
VERTEX
8
RASTER
10
72.5
20
13.861
30
0
0
VERTEX
8
RASTER
10
72.836
20
13.976
30
0
0
VERTEX
8
RASTER
10
73.137
20
14.139
30
0
0
VERTEX
8
RASTER
10
73.395
20
14.343
30
0
0
VERTEX
8
RASTER
10
73.607
20
14.576
30
0
0
VERTEX
8
RASTER
10
73.769
20
14.831
30
0
0
VERTEX
8
RASTER
10
73.88
20
15.097
30
0
0
VERTEX
8
RASTER
10
73.941
20
15.366
30
0
0
VERTEX
8
RASTER
10
73.953
20
15.628
30
0
0
VERTEX
8
RASTER
10
73.921
20
15.875
30
0
0
VERTEX
8
RASTER
10
73.85
20
16.1
30
0
0
SEQEND
8
RASTER
0
CIRCLE
8
RASTER
10
72.5
20
16.1
30
0
40
1.6
0
POLYLINE
8
CUT
66
1
70
1
0
VERTEX
8
CUT
10
88.6
20
26.2
30
0
0
VERTEX
8
CUT
10
88.631
20
26.669
30
0
0
VERTEX
8
CUT
10
88.725
20
27.075
30
0
0
VERTEX
8
CUT
10
88.881
20
27.419
30
0
0
VERTEX
8
CUT
10
89.1
20
27.7
30
0
0
VERTEX
8
CUT
10
89.381
20
27.919
30
0
0
VERTEX
8
CUT
10
89.725
20
28.075
30
0
0
VERTEX
8
CUT
10
90.131
20
28.169
30
0
0
VERTEX
8
CUT
10
90.6
20
28.2
30
0
0
VERTEX
8
CUT
10
110.8
20
28.2
30
0
0
VERTEX
8
CUT
10
111.269
20
28.169
30
0
0
VERTEX
8
CUT
10
111.675
20
28.075
30
0
0
VERTEX
8
CUT
10
112.019
20
27.919
30
0
0
VERTEX
8
CUT
10
112.3
20
27.7
30
0
0
VERTEX
8
CUT
10
112.519
20
27.419
30
0
0
VERTEX
8
CUT
10
112.675
20
27.075
30
0
0
VERTEX
8
CUT
10
112.769
20
26.669
30
0
0
VERTEX
8
CUT
10
112.8
20
26.2
30
0
0
VERTEX
8
CUT
10
112.8
20
6
30
0
0
VERTEX
8
CUT
10
112.769
20
5.531
30
0
0
VERTEX
8
CUT
10
112.675
20
5.125
30
0
0
VERTEX
8
CUT
10
112.519
20
4.781
30
0
0
VERTEX
8
CUT
10
112.3
20
4.5
30
0
0
VERTEX
8
CUT
10
112.019
20
4.281
30
0
0
VERTEX
8
CUT
10
111.675
20
4.125
30
0
0
VERTEX
8
CUT
10
111.269
20
4.031
30
0
0
VERTEX
8
CUT
10
110.8
20
4
30
0
0
VERTEX
8
CUT
10
90.6
20
4
30
0
0
VERTEX
8
CUT
10
90.131
20
4.031
30
0
0
VERTEX
8
CUT
10
89.725
20
4.125
30
0
0
VERTEX
8
CUT
10
89.381
20
4.281
30
0
0
VERTEX
8
CUT
10
89.1
20
4.5
30
0
0
VERTEX
8
CUT
10
88.881
20
4.781
30
0
0
VERTEX
8
CUT
10
88.725
20
5.125
30
0
0
VERTEX
8
CUT
10
88.631
20
5.531
30
0
0
VERTEX
8
CUT
10
88.6
20
6
30
0
0
SEQEND
8
CUT
0
POLYLINE
8
RASTER
66
1
70
1
0
VERTEX
8
RASTER
10
103.75
20
16.1
30
0
0
VERTEX
8
RASTER
10
103.8
20
15.609
30
0
0
VERTEX
8
RASTER
10
103.77
20
15.103
30
0
0
VERTEX
8
RASTER
10
103.655
20
14.594
30
0
0
VERTEX
8
RASTER
10
103.455
20
14.098
30
0
0
VERTEX
8
RASTER
10
103.171
20
13.629
30
0
0
VERTEX
8
RASTER
10
102.806
20
13.201
30
0
0
VERTEX
8
RASTER
10
102.367
20
12.828
30
0
0
VERTEX
8
RASTER
10
101.862
20
12.523
30
0
0
VERTEX
8
RASTER
10
101.302
20
12.297
30
0
0
VERTEX
8
RASTER
10
100.7
20
12.161
30
0
0
VERTEX
8
RASTER
10
100.07
20
12.121
30
0
0
VERTEX
8
RASTER
10
99.428
20
12.184
30
0
0
VERTEX
8
RASTER
10
98.791
20
12.352
30
0
0
VERTEX
8
RASTER
10
98.175
20
12.625
30
0
0
VERTEX
8
RASTER
10
97.6
20
13
30
0
0
VERTEX
8
RASTER
10
97.081
20
13.471
30
0
0
VERTEX
8
RASTER
10
96.635
20
14.029
30
0
0
VERTEX
8
RASTER
10
96.277
20
14.663
30
0
0
VERTEX
8
RASTER
10
96.019
20
15.359
30
0
0
VERTEX
8
RASTER
10
95.872
20
16.1
30
0
0
VERTEX
8
RASTER
10
95.843
20
16.869
30
0
0
VERTEX
8
RASTER
10
95.939
20
17.647
30
0
0
VERTEX
8
RASTER
10
96.16
20
18.413
30
0
0
VERTEX
8
RASTER
10
96.506
20
19.147
30
0
0
VERTEX
8
RASTER
10
96.971
20
19.829
30
0
0
VERTEX
8
RASTER
10
97.548
20
20.438
30
0
0
VERTEX
8
RASTER
10
98.225
20
20.957
30
0
0
VERTEX
8
RASTER
10
98.988
20
21.369
30
0
0
VERTEX
8
RASTER
10
99.819
20
21.66
30
0
0
VERTEX
8
RASTER
10
100.7
20
21.818
30
0
0
VERTEX
8
RASTER
10
101.608
20
21.835
30
0
0
VERTEX
8
RASTER
10
102.522
20
21.707
30
0
0
VERTEX
8
RASTER
10
103.417
20
21.432
30
0
0
VERTEX
8
RASTER
10
104.27
20
21.014
30
0
0
VERTEX
8
RASTER
10
105.057
20
20.457
30
0
0
VERTEX
8
RASTER
10
105.757
20
19.774
30
0
0
VERTEX
8
RASTER
10
106.349
20
18.978
30
0
0
VERTEX
8
RASTER
10
106.814
20
18.087
30
0
0
VERTEX
8
RASTER
10
107.138
20
17.12
30
0
0
VERTEX
8
RASTER
10
107.307
20
16.1
30
0
0
VERTEX
8
RASTER
10
107.313
20
15.053
30
0
0
VERTEX
8
RASTER
10
107.153
20
14.003
30
0
0
VERTEX
8
RASTER
10
106.825
20
12.979
30
0
0
VERTEX
8
RASTER
10
106.333
20
12.007
30
0
0
VERTEX
8
RASTER
10
105.686
20
11.114
30
0
0
VERTEX
8
RASTER
10
104.897
20
10.323
30
0
0
VERTEX
8
RASTER
10
103.982
20
9.658
30
0
0
VERTEX
8
RASTER
10
102.962
20
9.14
30
0
0
VERTEX
8
RASTER
10
101.859
20
8.784
30
0
0
VERTEX
8
RASTER
10
100.7
20
8.604
30
0
0
VERTEX
8
RASTER
10
99.513
20
8.608
30
0
0
VERTEX
8
RASTER
10
98.329
20
8.801
30
0
0
VERTEX
8
RASTER
10
97.176
20
9.183
30
0
0
VERTEX
8
RASTER
10
96.085
20
9.748
30
0
0
VERTEX
8
RASTER
10
95.085
20
10.485
30
0
0
VERTEX
8
RASTER
10
94.204
20
11.38
30
0
0
VERTEX
8
RASTER
10
93.466
20
12.414
30
0
0
VERTEX
8
RASTER
10
92.894
20
13.564
30
0
0
VERTEX
8
RASTER
10
92.506
20
14.802
30
0
0
VERTEX
8
RASTER
10
92.315
20
16.1
30
0
0
VERTEX
8
RASTER
10
92.33
20
17.426
30
0
0
VERTEX
8
RASTER
10
92.556
20
18.746
30
0
0
VERTEX
8
RASTER
10
92.991
20
20.028
30
0
0
VERTEX
8
RASTER
10
93.628
20
21.238
30
0
0
VERTEX
8
RASTER
10
94.456
20
22.344
30
0
0
VERTEX
8
RASTER
10
95.458
20
23.316
30
0
0
VERTEX
8
RASTER
10
96.61
20
24.126
30
0
0
VERTEX
8
RASTER
10
97.889
20
24.752
30
0
0
VERTEX
8
RASTER
10
99.263
20
25.173
30
0
0
VERTEX
8
RASTER
10
100.7
20
25.375
30
0
0
VERTEX
8
RASTER
10
102.165
20
25.348
30
0
0
VERTEX
8
RASTER
10
103.621
20
25.09
30
0
0
VERTEX
8
RASTER
10
105.032
20
24.602
30
0
0
VERTEX
8
RASTER
10
106.361
20
23.891
30
0
0
VERTEX
8
RASTER
10
107.573
20
22.973
30
0
0
VERTEX
8
RASTER
10
108.635
20
21.865
30
0
0
VERTEX
8
RASTER
10
109.518
20
20.593
30
0
0
VERTEX
8
RASTER
10
110.197
20
19.186
30
0
0
VERTEX
8
RASTER
10
110.651
20
17.676
30
0
0
VERTEX
8
RASTER
10
110.864
20
16.1
30
0
0
VERTEX
8
RASTER
10
109.164
20
16.1
30
0
0
VERTEX
8
RASTER
10
108.972
20
17.41
30
0
0
VERTEX
8
RASTER
10
108.581
20
18.661
30
0
0
VERTEX
8
RASTER
10
108.004
20
19.821
30
0
0
VERTEX
8
RASTER
10
107.26
20
20.866
30
0
0
VERTEX
8
RASTER
10
106.371
20
21.771
30
0
0
VERTEX
8
RASTER
10
105.361
20
22.516
30
0
0
VERTEX
8
RASTER
10
104.26
20
23.087
30
0
0
VERTEX
8
RASTER
10
103.096
20
23.473
30
0
0
VERTEX
8
RASTER
10
101.899
20
23.669
30
0
0
VERTEX
8
RASTER
10
100.7
20
23.675
30
0
0
VERTEX
8
RASTER
10
99.529
20
23.494
30
0
0
VERTEX
8
RASTER
10
98.414
20
23.135
30
0
0
VERTEX
8
RASTER
10
97.382
20
22.611
30
0
0
VERTEX
8
RASTER
10
96.457
20
21.94
30
0
0
VERTEX
8
RASTER
10
95.658
20
21.142
30
0
0
VERTEX
8
RASTER
10
95.004
20
20.239
30
0
0
VERTEX
8
RASTER
10
94.505
20
19.256
30
0
0
VERTEX
8
RASTER
10
94.173
20
18.221
30
0
0
VERTEX
8
RASTER
10
94.009
20
17.16
30
0
0
VERTEX
8
RASTER
10
94.015
20
16.1
30
0
0
VERTEX
8
RASTER
10
94.185
20
15.068
30
0
0
VERTEX
8
RASTER
10
94.511
20
14.089
30
0
0
VERTEX
8
RASTER
10
94.981
20
13.186
30
0
0
VERTEX
8
RASTER
10
95.579
20
12.379
30
0
0
VERTEX
8
RASTER
10
96.287
20
11.687
30
0
0
VERTEX
8
RASTER
10
97.084
20
11.123
30
0
0
VERTEX
8
RASTER
10
97.947
20
10.698
30
0
0
VERTEX
8
RASTER
10
98.854
20
10.418
30
0
0
VERTEX
8
RASTER
10
99.779
20
10.287
30
0
0
VERTEX
8
RASTER
10
100.7
20
10.304
30
0
0
VERTEX
8
RASTER
10
101.593
20
10.463
30
0
0
VERTEX
8
RASTER
10
102.436
20
10.757
30
0
0
VERTEX
8
RASTER
10
103.21
20
11.173
30
0
0
VERTEX
8
RASTER
10
103.898
20
11.699
30
0
0
VERTEX
8
RASTER
10
104.484
20
12.316
30
0
0
VERTEX
8
RASTER
10
104.958
20
13.007
30
0
0
VERTEX
8
RASTER
10
105.31
20
13.751
30
0
0
VERTEX
8
RASTER
10
105.536
20
14.529
30
0
0
VERTEX
8
RASTER
10
105.634
20
15.318
30
0
0
VERTEX
8
RASTER
10
105.607
20
16.1
30
0
0
VERTEX
8
RASTER
10
105.459
20
16.854
30
0
0
VERTEX
8
RASTER
10
105.198
20
17.561
30
0
0
VERTEX
8
RASTER
10
104.834
20
18.207
30
0
0
VERTEX
8
RASTER
10
104.382
20
18.775
30
0
0
VERTEX
8
RASTER
10
103.855
20
19.255
30
0
0
VERTEX
8
RASTER
10
103.271
20
19.638
30
0
0
VERTEX
8
RASTER
10
102.645
20
19.918
30
0
0
VERTEX
8
RASTER
10
101.997
20
20.09
30
0
0
VERTEX
8
RASTER
10
101.342
20
20.156
30
0
0
VERTEX
8
RASTER
10
100.7
20
20.118
30
0
0
VERTEX
8
RASTER
10
100.085
20
19.98
30
0
0
VERTEX
8
RASTER
10
99.513
20
19.752
30
0
0
VERTEX
8
RASTER
10
98.997
20
19.442
30
0
0
VERTEX
8
RASTER
10
98.548
20
19.063
30
0
0
VERTEX
8
RASTER
10
98.173
20
18.627
30
0
0
VERTEX
8
RASTER
10
97.881
20
18.148
30
0
0
VERTEX
8
RASTER
10
97.675
20
17.641
30
0
0
VERTEX
8
RASTER
10
97.555
20
17.122
30
0
0
VERTEX
8
RASTER
10
97.522
20
16.603
30
0
0
VERTEX
8
RASTER
10
97.572
20
16.1
30
0
0
VERTEX
8
RASTER
10
97.698
20
15.625
30
0
0
VERTEX
8
RASTER
10
97.894
20
15.188
30
0
0
VERTEX
8
RASTER
10
98.15
20
14.801
30
0
0
VERTEX
8
RASTER
10
98.457
20
14.47
30
0
0
VERTEX
8
RASTER
10
98.802
20
14.202
30
0
0
VERTEX
8
RASTER
10
99.175
20
14.001
30
0
0
VERTEX
8
RASTER
10
99.562
20
13.867
30
0
0
VERTEX
8
RASTER
10
99.953
20
13.801
30
0
0
VERTEX
8
RASTER
10
100.336
20
13.8
30
0
0
VERTEX
8
RASTER
10
100.7
20
13.861
30
0
0
VERTEX
8
RASTER
10
101.036
20
13.976
30
0
0
VERTEX
8
RASTER
10
101.337
20
14.139
30
0
0
VERTEX
8
RASTER
10
101.595
20
14.343
30
0
0
VERTEX
8
RASTER
10
101.807
20
14.576
30
0
0
VERTEX
8
RASTER
10
101.969
20
14.831
30
0
0
VERTEX
8
RASTER
10
102.08
20
15.097
30
0
0
VERTEX
8
RASTER
10
102.141
20
15.366
30
0
0
VERTEX
8
RASTER
10
102.153
20
15.628
30
0
0
VERTEX
8
RASTER
10
102.121
20
15.875
30
0
0
VERTEX
8
RASTER
10
102.05
20
16.1
30
0
0
SEQEND
8
RASTER
0
CIRCLE
8
RASTER
10
100.7
20
16.1
30
0
40
1.6
0
ENDSEC
0
EOF
