0
SECTION
2
HEADER
9
$ACADVER
1
AC1009
9
$EXTMIN
10
0
20
0
9
$EXTMAX
10
116.8
20
32.2
0
ENDSEC
0
SECTION
2
TABLES
0
TABLE
2
LAYER
70
2
0
LAYER
2
CUT
70
0
62
1
6
CONTINUOUS
0
LAYER
2
RASTER
70
0
62
7
6
CONTINUOUS
0
ENDTAB
0
ENDSEC
0
SECTION
2
ENTITIES
0
POLYLINE
8
CUT
66
1
70
1
0
VERTEX
8
CUT
10
4
20
26.2
30
0
0
VERTEX
8
CUT
10
4.031
20
26.669
30
0
0
VERTEX
8
CUT
10
4.125
20
27.075
30
0
0
VERTEX
8
CUT
10
4.281
20
27.419
30
0
0
VERTEX
8
CUT
10
4.5
20
27.7
30
0
0
VERTEX
8
CUT
10
4.781
20
27.919
30
0
0
VERTEX
8
CUT
10
5.125
20
28.075
30
0
0
VERTEX
8
CUT
10
5.531
20
28.169
30
0
0
VERTEX
8
CUT
10
6
20
28.2
30
0
0
VERTEX
8
CUT
10
26.2
20
28.2
30
0
0
VERTEX
8
CUT
10
26.669
20
28.169
30
0
0
VERTEX
8
CUT
10
27.075
20
28.075
30
0
0
VERTEX
8
CUT
10
27.419
20
27.919
30
0
0
VERTEX
8
CUT
10
27.7
20
27.7
30
0
0
VERTEX
8
CUT
10
27.919
20
27.419
30
0
0
VERTEX
8
CUT
10
28.075
20
27.075
30
0
0
VERTEX
8
CUT
10
28.169
20
26.669
30
0
0
VERTEX
8
CUT
10
28.2
20
26.2
30
0
0
VERTEX
8
CUT
10
28.2
20
6
30
0
0
VERTEX
8
CUT
10
28.169
20
5.531
30
0
0
VERTEX
8
CUT
10
28.075
20
5.125
30
0
0
VERTEX
8
CUT
10
27.919
20
4.781
30
0
0
VERTEX
8
CUT
10
27.7
20
4.5
30
0
0
VERTEX
8
CUT
10
27.419
20
4.281
30
0
0
VERTEX
8
CUT
10
27.075
20
4.125
30
0
0
VERTEX
8
CUT
10
26.669
20
4.031
30
0
0
VERTEX
8
CUT
10
26.2
20
4
30
0
0
VERTEX
8
CUT
10
6
20
4
30
0
0
VERTEX
8
CUT
10
5.531
20
4.031
30
0
0
VERTEX
8
CUT
10
5.125
20
4.125
30
0
0
VERTEX
8
CUT
10
4.781
20
4.281
30
0
0
VERTEX
8
CUT
10
4.5
20
4.5
30
0
0
VERTEX
8
CUT
10
4.281
20
4.781
30
0
0
VERTEX
8
CUT
10
4.125
20
5.125
30
0
0
VERTEX
8
CUT
10
4.031
20
5.531
30
0
0
VERTEX
8
CUT
10
4
20
6
30
0
0
SEQEND
8
CUT
0
POLYLINE
8
RASTER
66
1
70
1
0
VERTEX
8
RASTER
10
14.274
20
25.529
30
0
0
VERTEX
8
RASTER
10
17
20
25.569
30
0
0
VERTEX
8
RASTER
10
18.712
20
25.042
30
0
0
VERTEX
8
RASTER
10
20.332
20
24.159
30
0
0
VERTEX
8
RASTER
10
21.781
20
22.842
30
0
0
VERTEX
8
RASTER
10
22.927
20
20.827
30
0
0
VERTEX
8
RASTER
10
23.322
20
19.247
30
0
0
VERTEX
8
RASTER
10
23.322
20
17.403
30
0
0
VERTEX
8
RASTER
10
23.059
20
16.481
30
0
0
VERTEX
8
RASTER
10
23.098
20
16.125
30
0
0
VERTEX
8
RASTER
10
23.586
20
17.007
30
0
0
VERTEX
8
RASTER
10
23.981
20
18.588
30
0
0
VERTEX
8
RASTER
10
23.981
20
19.773
30
0
0
VERTEX
8
RASTER
10
23.718
20
21.091
30
0
0
VERTEX
8
RASTER
10
23.191
20
22.539
30
0
0
VERTEX
8
RASTER
10
23.283
20
23.106
30
0
0
VERTEX
8
RASTER
10
23.718
20
23.33
30
0
0
VERTEX
8
RASTER
10
24.284
20
23.106
30
0
0
VERTEX
8
RASTER
10
24.679
20
22.579
30
0
0
VERTEX
8
RASTER
10
25.693
20
20.432
30
0
0
VERTEX
8
RASTER
10
25.957
20
19.247
30
0
0
VERTEX
8
RASTER
10
25.957
20
16.744
30
0
0
VERTEX
8
RASTER
10
25.562
20
15.163
30
0
0
VERTEX
8
RASTER
10
24.547
20
13.148
30
0
0
VERTEX
8
RASTER
10
24.152
20
12.621
30
0
0
VERTEX
8
RASTER
10
22.572
20
11.172
30
0
0
VERTEX
8
RASTER
10
20.688
20
10.158
30
0
0
VERTEX
8
RASTER
10
19.898
20
9.895
30
0
0
VERTEX
8
RASTER
10
17.79
20
9.631
30
0
0
VERTEX
8
RASTER
10
17.527
20
9.763
30
0
0
VERTEX
8
RASTER
10
16.605
20
9.763
30
0
0
VERTEX
8
RASTER
10
15.288
20
10.158
30
0
0
VERTEX
8
RASTER
10
14.063
20
10.777
30
0
0
VERTEX
8
RASTER
10
13.141
20
11.436
30
0
0
VERTEX
8
RASTER
10
12.956
20
11.778
30
0
0
VERTEX
8
RASTER
10
12.785
20
11.739
30
0
0
VERTEX
8
RASTER
10
13.273
20
10.909
30
0
0
VERTEX
8
RASTER
10
14.195
20
9.987
30
0
0
VERTEX
8
RASTER
10
15.38
20
9.197
30
0
0
VERTEX
8
RASTER
10
16.21
20
8.841
30
0
0
VERTEX
8
RASTER
10
17.659
20
8.446
30
0
0
VERTEX
8
RASTER
10
19.634
20
8.446
30
0
0
VERTEX
8
RASTER
10
19.898
20
8.578
30
0
0
VERTEX
8
RASTER
10
20.991
20
8.485
30
0
0
VERTEX
8
RASTER
10
21.215
20
8.051
30
0
0
VERTEX
8
RASTER
10
20.991
20
7.616
30
0
0
VERTEX
8
RASTER
10
19.766
20
6.997
30
0
0
VERTEX
8
RASTER
10
18.581
20
6.865
30
0
0
VERTEX
8
RASTER
10
18.317
20
6.734
30
0
0
VERTEX
8
RASTER
10
16.341
20
6.734
30
0
0
VERTEX
8
RASTER
10
14.366
20
7.26
30
0
0
VERTEX
8
RASTER
10
12.614
20
8.143
30
0
0
VERTEX
8
RASTER
10
11.824
20
8.67
30
0
0
VERTEX
8
RASTER
10
10.638
20
9.855
30
0
0
VERTEX
8
RASTER
10
9.848
20
11.041
30
0
0
VERTEX
8
RASTER
10
9.229
20
12.397
30
0
0
VERTEX
8
RASTER
10
8.834
20
13.846
30
0
0
VERTEX
8
RASTER
10
8.834
20
16.085
30
0
0
VERTEX
8
RASTER
10
8.965
20
16.744
30
0
0
VERTEX
8
RASTER
10
9.361
20
17.929
30
0
0
VERTEX
8
RASTER
10
10.243
20
19.549
30
0
0
VERTEX
8
RASTER
10
11.56
20
20.867
30
0
0
VERTEX
8
RASTER
10
13.18
20
21.749
30
0
0
VERTEX
8
RASTER
10
14.497
20
22.144
30
0
0
VERTEX
8
RASTER
10
16.341
20
22.144
30
0
0
VERTEX
8
RASTER
10
16.434
20
22.236
30
0
0
VERTEX
8
RASTER
10
15.156
20
22.539
30
0
0
VERTEX
8
RASTER
10
14.497
20
22.539
30
0
0
VERTEX
8
RASTER
10
13.18
20
22.276
30
0
0
VERTEX
8
RASTER
10
11.297
20
21.525
30
0
0
VERTEX
8
RASTER
10
10.243
20
20.867
30
0
0
VERTEX
8
RASTER
10
8.926
20
19.549
30
0
0
VERTEX
8
RASTER
10
8.043
20
18.061
30
0
0
VERTEX
8
RASTER
10
7.648
20
17.007
30
0
0
VERTEX
8
RASTER
10
7.517
20
16.217
30
0
0
VERTEX
8
RASTER
10
7.293
20
15.914
30
0
0
VERTEX
8
RASTER
10
7.121
20
15.822
30
0
0
VERTEX
8
RASTER
10
6.555
20
15.914
30
0
0
VERTEX
8
RASTER
10
6.199
20
16.612
30
0
0
VERTEX
8
RASTER
10
6.331
20
18.061
30
0
0
VERTEX
8
RASTER
10
6.858
20
19.773
30
0
0
VERTEX
8
RASTER
10
7.74
20
21.393
30
0
0
VERTEX
8
RASTER
10
8.662
20
22.579
30
0
0
VERTEX
8
RASTER
10
9.453
20
23.369
30
0
0
VERTEX
8
RASTER
10
10.77
20
24.291
30
0
0
VERTEX
8
RASTER
10
12.39
20
25.042
30
0
0
SEQEND
8
RASTER
0
POLYLINE
8
RASTER
66
1
70
1
0
VERTEX
8
RASTER
10
15.551
20
25.042
30
0
0
VERTEX
8
RASTER
10
15.288
20
24.91
30
0
0
VERTEX
8
RASTER
10
13.707
20
24.779
30
0
0
VERTEX
8
RASTER
10
12.127
20
24.252
30
0
0
VERTEX
8
RASTER
10
10.77
20
23.501
30
0
0
VERTEX
8
RASTER
10
9.716
20
22.711
30
0
0
VERTEX
8
RASTER
10
8.531
20
21.393
30
0
0
VERTEX
8
RASTER
10
7.517
20
19.642
30
0
0
VERTEX
8
RASTER
10
6.99
20
18.061
30
0
0
VERTEX
8
RASTER
10
6.858
20
16.744
30
0
0
VERTEX
8
RASTER
10
6.95
20
16.652
30
0
0
VERTEX
8
RASTER
10
7.121
20
17.007
30
0
0
VERTEX
8
RASTER
10
7.385
20
18.061
30
0
0
VERTEX
8
RASTER
10
8.004
20
19.286
30
0
0
VERTEX
8
RASTER
10
8.662
20
20.208
30
0
0
VERTEX
8
RASTER
10
9.716
20
21.262
30
0
0
VERTEX
8
RASTER
10
10.902
20
22.052
30
0
0
VERTEX
8
RASTER
10
12.258
20
22.671
30
0
0
VERTEX
8
RASTER
10
13.839
20
23.066
30
0
0
VERTEX
8
RASTER
10
15.683
20
23.066
30
0
0
VERTEX
8
RASTER
10
16.341
20
22.935
30
0
0
VERTEX
8
RASTER
10
17.132
20
22.671
30
0
0
VERTEX
8
RASTER
10
18.225
20
22.052
30
0
0
VERTEX
8
RASTER
10
19.147
20
21.13
30
0
0
VERTEX
8
RASTER
10
19.766
20
20.037
30
0
0
VERTEX
8
RASTER
10
20.029
20
19.247
30
0
0
VERTEX
8
RASTER
10
20.161
20
17.798
30
0
0
VERTEX
8
RASTER
10
19.898
20
16.876
30
0
0
VERTEX
8
RASTER
10
19.41
20
15.914
30
0
0
VERTEX
8
RASTER
10
18.752
20
15.256
30
0
0
VERTEX
8
RASTER
10
17.79
20
14.768
30
0
0
VERTEX
8
RASTER
10
16.868
20
14.768
30
0
0
VERTEX
8
RASTER
10
16.302
20
14.992
30
0
0
VERTEX
8
RASTER
10
15.775
20
15.387
30
0
0
VERTEX
8
RASTER
10
15.419
20
16.085
30
0
0
VERTEX
8
RASTER
10
15.419
20
16.481
30
0
0
VERTEX
8
RASTER
10
15.643
20
16.915
30
0
0
VERTEX
8
RASTER
10
15.946
20
17.139
30
0
0
VERTEX
8
RASTER
10
16.605
20
17.139
30
0
0
VERTEX
8
RASTER
10
17.092
20
16.915
30
0
0
VERTEX
8
RASTER
10
17.132
20
17.403
30
0
0
VERTEX
8
RASTER
10
16.776
20
17.837
30
0
0
VERTEX
8
RASTER
10
16.341
20
18.061
30
0
0
VERTEX
8
RASTER
10
15.815
20
18.061
30
0
0
VERTEX
8
RASTER
10
15.117
20
17.705
30
0
0
VERTEX
8
RASTER
10
14.629
20
17.007
30
0
0
VERTEX
8
RASTER
10
14.497
20
16.612
30
0
0
VERTEX
8
RASTER
10
14.497
20
15.69
30
0
0
VERTEX
8
RASTER
10
14.629
20
15.295
30
0
0
VERTEX
8
RASTER
10
15.117
20
14.465
30
0
0
VERTEX
8
RASTER
10
15.512
20
14.07
30
0
0
VERTEX
8
RASTER
10
16.868
20
13.319
30
0
0
VERTEX
8
RASTER
10
17.263
20
13.188
30
0
0
VERTEX
8
RASTER
10
19.239
20
13.188
30
0
0
VERTEX
8
RASTER
10
20.029
20
13.451
30
0
0
VERTEX
8
RASTER
10
21.123
20
14.07
30
0
0
VERTEX
8
RASTER
10
21.518
20
14.465
30
0
0
VERTEX
8
RASTER
10
22.045
20
15.256
30
0
0
VERTEX
8
RASTER
10
22.532
20
16.481
30
0
0
VERTEX
8
RASTER
10
22.532
20
17.007
30
0
0
VERTEX
8
RASTER
10
22.664
20
17.271
30
0
0
VERTEX
8
RASTER
10
22.664
20
19.247
30
0
0
VERTEX
8
RASTER
10
22.269
20
20.695
30
0
0
VERTEX
8
RASTER
10
21.781
20
21.657
30
0
0
VERTEX
8
RASTER
10
21.123
20
22.579
30
0
0
VERTEX
8
RASTER
10
19.674
20
23.764
30
0
0
VERTEX
8
RASTER
10
17.395
20
24.779
30
0
0
SEQEND
8
RASTER
0
POLYLINE
8
RASTER
66
1
70
1
0
VERTEX
8
RASTER
10
23.941
20
22.5
30
0
0
VERTEX
8
RASTER
10
23.849
20
22.408
30
0
0
VERTEX
8
RASTER
10
24.508
20
20.3
30
0
0
VERTEX
8
RASTER
10
24.508
20
18.061
30
0
0
VERTEX
8
RASTER
10
23.981
20
16.349
30
0
0
VERTEX
8
RASTER
10
23.362
20
15.256
30
0
0
VERTEX
8
RASTER
10
23.019
20
14.939
30
0
0
VERTEX
8
RASTER
10
22.835
20
14.597
30
0
0
VERTEX
8
RASTER
10
21.913
20
13.807
30
0
0
VERTEX
8
RASTER
10
20.425
20
12.924
30
0
0
VERTEX
8
RASTER
10
19.107
20
12.529
30
0
0
VERTEX
8
RASTER
10
17.395
20
12.529
30
0
0
VERTEX
8
RASTER
10
16.473
20
12.792
30
0
0
VERTEX
8
RASTER
10
15.512
20
13.28
30
0
0
VERTEX
8
RASTER
10
14.985
20
13.675
30
0
0
VERTEX
8
RASTER
10
14.326
20
14.465
30
0
0
VERTEX
8
RASTER
10
13.839
20
15.954
30
0
0
VERTEX
8
RASTER
10
14.102
20
17.271
30
0
0
VERTEX
8
RASTER
10
14.59
20
18.101
30
0
0
VERTEX
8
RASTER
10
15.551
20
18.588
30
0
0
VERTEX
8
RASTER
10
16.737
20
18.588
30
0
0
VERTEX
8
RASTER
10
17.487
20
18.153
30
0
0
VERTEX
8
RASTER
10
17.698
20
17.837
30
0
0
VERTEX
8
RASTER
10
17.79
20
16.876
30
0
0
VERTEX
8
RASTER
10
17.263
20
16.349
30
0
0
VERTEX
8
RASTER
10
16.605
20
16.349
30
0
0
VERTEX
8
RASTER
10
16.118
20
16.573
30
0
0
VERTEX
8
RASTER
10
16.078
20
16.217
30
0
0
VERTEX
8
RASTER
10
16.302
20
15.782
30
0
0
VERTEX
8
RASTER
10
17.263
20
15.295
30
0
0
VERTEX
8
RASTER
10
17.922
20
15.427
30
0
0
VERTEX
8
RASTER
10
18.62
20
15.782
30
0
0
VERTEX
8
RASTER
10
19.015
20
16.178
30
0
0
VERTEX
8
RASTER
10
19.503
20
17.139
30
0
0
VERTEX
8
RASTER
10
19.634
20
17.534
30
0
0
VERTEX
8
RASTER
10
19.634
20
18.72
30
0
0
VERTEX
8
RASTER
10
19.279
20
19.681
30
0
0
VERTEX
8
RASTER
10
18.488
20
20.603
30
0
0
VERTEX
8
RASTER
10
17.395
20
21.222
30
0
0
VERTEX
8
RASTER
10
16.473
20
21.486
30
0
0
VERTEX
8
RASTER
10
14.761
20
21.486
30
0
0
VERTEX
8
RASTER
10
13.312
20
21.091
30
0
0
VERTEX
8
RASTER
10
12.351
20
20.603
30
0
0
VERTEX
8
RASTER
10
11.297
20
19.813
30
0
0
VERTEX
8
RASTER
10
10.507
20
18.759
30
0
0
VERTEX
8
RASTER
10
9.624
20
16.744
30
0
0
VERTEX
8
RASTER
10
9.492
20
16.085
30
0
0
VERTEX
8
RASTER
10
9.492
20
13.714
30
0
0
VERTEX
8
RASTER
10
9.887
20
12.397
30
0
0
VERTEX
8
RASTER
10
10.507
20
11.172
30
0
0
VERTEX
8
RASTER
10
11.165
20
10.25
30
0
0
VERTEX
8
RASTER
10
12.351
20
9.065
30
0
0
VERTEX
8
RASTER
10
14.366
20
7.919
30
0
0
VERTEX
8
RASTER
10
16.21
20
7.392
30
0
0
VERTEX
8
RASTER
10
18.449
20
7.392
30
0
0
VERTEX
8
RASTER
10
20.122
20
7.827
30
0
0
VERTEX
8
RASTER
10
19.371
20
7.919
30
0
0
VERTEX
8
RASTER
10
19.107
20
7.787
30
0
0
VERTEX
8
RASTER
10
18.449
20
7.787
30
0
0
VERTEX
8
RASTER
10
18.185
20
7.919
30
0
0
VERTEX
8
RASTER
10
16.605
20
8.051
30
0
0
VERTEX
8
RASTER
10
14.853
20
8.802
30
0
0
VERTEX
8
RASTER
10
13.536
20
9.724
30
0
0
VERTEX
8
RASTER
10
12.614
20
10.777
30
0
0
VERTEX
8
RASTER
10
11.863
20
12.266
30
0
0
VERTEX
8
RASTER
10
11.6
20
13.188
30
0
0
VERTEX
8
RASTER
10
11.508
20
14.149
30
0
0
VERTEX
8
RASTER
10
11.6
20
15.032
30
0
0
VERTEX
8
RASTER
10
11.824
20
15.519
30
0
0
VERTEX
8
RASTER
10
12.127
20
14.11
30
0
0
VERTEX
8
RASTER
10
13.009
20
12.49
30
0
0
VERTEX
8
RASTER
10
13.799
20
11.699
30
0
0
VERTEX
8
RASTER
10
15.288
20
10.817
30
0
0
VERTEX
8
RASTER
10
16.605
20
10.422
30
0
0
VERTEX
8
RASTER
10
18.449
20
10.29
30
0
0
VERTEX
8
RASTER
10
18.712
20
10.422
30
0
0
VERTEX
8
RASTER
10
19.898
20
10.553
30
0
0
VERTEX
8
RASTER
10
21.386
20
11.172
30
0
0
VERTEX
8
RASTER
10
22.572
20
11.963
30
0
0
VERTEX
8
RASTER
10
23.625
20
13.016
30
0
0
VERTEX
8
RASTER
10
24.903
20
15.295
30
0
0
VERTEX
8
RASTER
10
25.298
20
16.612
30
0
0
VERTEX
8
RASTER
10
25.298
20
17.139
30
0
0
VERTEX
8
RASTER
10
25.43
20
17.403
30
0
0
VERTEX
8
RASTER
10
25.298
20
19.378
30
0
0
VERTEX
8
RASTER
10
24.771
20
21.091
30
0
0
SEQEND
8
RASTER
0
POLYLINE
8
CUT
66
1
70
1
0
VERTEX
8
CUT
10
32.2
20
26.2
30
0
0
VERTEX
8
CUT
10
32.231
20
26.669
30
0
0
VERTEX
8
CUT
10
32.325
20
27.075
30
0
0
VERTEX
8
CUT
10
32.481
20
27.419
30
0
0
VERTEX
8
CUT
10
32.7
20
27.7
30
0
0
VERTEX
8
CUT
10
32.981
20
27.919
30
0
0
VERTEX
8
CUT
10
33.325
20
28.075
30
0
0
VERTEX
8
CUT
10
33.731
20
28.169
30
0
0
VERTEX
8
CUT
10
34.2
20
28.2
30
0
0
VERTEX
8
CUT
10
54.4
20
28.2
30
0
0
VERTEX
8
CUT
10
54.869
20
28.169
30
0
0
VERTEX
8
CUT
10
55.275
20
28.075
30
0
0
VERTEX
8
CUT
10
55.619
20
27.919
30
0
0
VERTEX
8
CUT
10
55.9
20
27.7
30
0
0
VERTEX
8
CUT
10
56.119
20
27.419
30
0
0
VERTEX
8
CUT
10
56.275
20
27.075
30
0
0
VERTEX
8
CUT
10
56.369
20
26.669
30
0
0
VERTEX
8
CUT
10
56.4
20
26.2
30
0
0
VERTEX
8
CUT
10
56.4
20
6
30
0
0
VERTEX
8
CUT
10
56.369
20
5.531
30
0
0
VERTEX
8
CUT
10
56.275
20
5.125
30
0
0
VERTEX
8
CUT
10
56.119
20
4.781
30
0
0
VERTEX
8
CUT
10
55.9
20
4.5
30
0
0
VERTEX
8
CUT
10
55.619
20
4.281
30
0
0
VERTEX
8
CUT
10
55.275
20
4.125
30
0
0
VERTEX
8
CUT
10
54.869
20
4.031
30
0
0
VERTEX
8
CUT
10
54.4
20
4
30
0
0
VERTEX
8
CUT
10
34.2
20
4
30
0
0
VERTEX
8
CUT
10
33.731
20
4.031
30
0
0
VERTEX
8
CUT
10
33.325
20
4.125
30
0
0
VERTEX
8
CUT
10
32.981
20
4.281
30
0
0
VERTEX
8
CUT
10
32.7
20
4.5
30
0
0
VERTEX
8
CUT
10
32.481
20
4.781
30
0
0
VERTEX
8
CUT
10
32.325
20
5.125
30
0
0
VERTEX
8
CUT
10
32.231
20
5.531
30
0
0
VERTEX
8
CUT
10
32.2
20
6
30
0
0
SEQEND
8
CUT
0
POLYLINE
8
RASTER
66
1
70
1
0
VERTEX
8
RASTER
10
42.474
20
25.529
30
0
0
VERTEX
8
RASTER
10
45.2
20
25.569
30
0
0
VERTEX
8
RASTER
10
46.912
20
25.042
30
0
0
VERTEX
8
RASTER
10
48.532
20
24.159
30
0
0
VERTEX
8
RASTER
10
49.981
20
22.842
30
0
0
VERTEX
8
RASTER
10
51.127
20
20.827
30
0
0
VERTEX
8
RASTER
10
51.522
20
19.247
30
0
0
VERTEX
8
RASTER
10
51.522
20
17.403
30
0
0
VERTEX
8
RASTER
10
51.259
20
16.481
30
0
0
VERTEX
8
RASTER
10
51.298
20
16.125
30
0
0
VERTEX
8
RASTER
10
51.786
20
17.007
30
0
0
VERTEX
8
RASTER
10
52.181
20
18.588
30
0
0
VERTEX
8
RASTER
10
52.181
20
19.773
30
0
0
VERTEX
8
RASTER
10
51.918
20
21.091
30
0
0
VERTEX
8
RASTER
10
51.391
20
22.539
30
0
0
VERTEX
8
RASTER
10
51.483
20
23.106
30
0
0
VERTEX
8
RASTER
10
51.918
20
23.33
30
0
0
VERTEX
8
RASTER
10
52.484
20
23.106
30
0
0
VERTEX
8
RASTER
10
52.879
20
22.579
30
0
0
VERTEX
8
RASTER
10
53.893
20
20.432
30
0
0
VERTEX
8
RASTER
10
54.157
20
19.247
30
0
0
VERTEX
8
RASTER
10
54.157
20
16.744
30
0
0
VERTEX
8
RASTER
10
53.762
20
15.163
30
0
0
VERTEX
8
RASTER
10
52.747
20
13.148
30
0
0
VERTEX
8
RASTER
10
52.352
20
12.621
30
0
0
VERTEX
8
RASTER
10
50.772
20
11.172
30
0
0
VERTEX
8
RASTER
10
48.888
20
10.158
30
0
0
VERTEX
8
RASTER
10
48.098
20
9.895
30
0
0
VERTEX
8
RASTER
10
45.99
20
9.631
30
0
0
VERTEX
8
RASTER
10
45.727
20
9.763
30
0
0
VERTEX
8
RASTER
10
44.805
20
9.763
30
0
0
VERTEX
8
RASTER
10
43.488
20
10.158
30
0
0
VERTEX
8
RASTER
10
42.263
20
10.777
30
0
0
VERTEX
8
RASTER
10
41.341
20
11.436
30
0
0
VERTEX
8
RASTER
10
41.156
20
11.778
30
0
0
VERTEX
8
RASTER
10
40.985
20
11.739
30
0
0
VERTEX
8
RASTER
10
41.473
20
10.909
30
0
0
VERTEX
8
RASTER
10
42.395
20
9.987
30
0
0
VERTEX
8
RASTER
10
43.58
20
9.197
30
0
0
VERTEX
8
RASTER
10
44.41
20
8.841
30
0
0
VERTEX
8
RASTER
10
45.859
20
8.446
30
0
0
VERTEX
8
RASTER
10
47.834
20
8.446
30
0
0
VERTEX
8
RASTER
10
48.098
20
8.578
30
0
0
VERTEX
8
RASTER
10
49.191
20
8.485
30
0
0
VERTEX
8
RASTER
10
49.415
20
8.051
30
0
0
VERTEX
8
RASTER
10
49.191
20
7.616
30
0
0
VERTEX
8
RASTER
10
47.966
20
6.997
30
0
0
VERTEX
8
RASTER
10
46.781
20
6.865
30
0
0
VERTEX
8
RASTER
10
46.517
20
6.734
30
0
0
VERTEX
8
RASTER
10
44.541
20
6.734
30
0
0
VERTEX
8
RASTER
10
42.566
20
7.26
30
0
0
VERTEX
8
RASTER
10
40.814
20
8.143
30
0
0
VERTEX
8
RASTER
10
40.024
20
8.67
30
0
0
VERTEX
8
RASTER
10
38.838
20
9.855
30
0
0
VERTEX
8
RASTER
10
38.048
20
11.041
30
0
0
VERTEX
8
RASTER
10
37.429
20
12.397
30
0
0
VERTEX
8
RASTER
10
37.034
20
13.846
30
0
0
VERTEX
8
RASTER
10
37.034
20
16.085
30
0
0
VERTEX
8
RASTER
10
37.165
20
16.744
30
0
0
VERTEX
8
RASTER
10
37.561
20
17.929
30
0
0
VERTEX
8
RASTER
10
38.443
20
19.549
30
0
0
VERTEX
8
RASTER
10
39.76
20
20.867
30
0
0
VERTEX
8
RASTER
10
41.38
20
21.749
30
0
0
VERTEX
8
RASTER
10
42.697
20
22.144
30
0
0
VERTEX
8
RASTER
10
44.541
20
22.144
30
0
0
VERTEX
8
RASTER
10
44.634
20
22.236
30
0
0
VERTEX
8
RASTER
10
43.356
20
22.539
30
0
0
VERTEX
8
RASTER
10
42.697
20
22.539
30
0
0
VERTEX
8
RASTER
10
41.38
20
22.276
30
0
0
VERTEX
8
RASTER
10
39.497
20
21.525
30
0
0
VERTEX
8
RASTER
10
38.443
20
20.867
30
0
0
VERTEX
8
RASTER
10
37.126
20
19.549
30
0
0
VERTEX
8
RASTER
10
36.243
20
18.061
30
0
0
VERTEX
8
RASTER
10
35.848
20
17.007
30
0
0
VERTEX
8
RASTER
10
35.717
20
16.217
30
0
0
VERTEX
8
RASTER
10
35.493
20
15.914
30
0
0
VERTEX
8
RASTER
10
35.321
20
15.822
30
0
0
VERTEX
8
RASTER
10
34.755
20
15.914
30
0
0
VERTEX
8
RASTER
10
34.399
20
16.612
30
0
0
VERTEX
8
RASTER
10
34.531
20
18.061
30
0
0
VERTEX
8
RASTER
10
35.058
20
19.773
30
0
0
VERTEX
8
RASTER
10
35.94
20
21.393
30
0
0
VERTEX
8
RASTER
10
36.862
20
22.579
30
0
0
VERTEX
8
RASTER
10
37.653
20
23.369
30
0
0
VERTEX
8
RASTER
10
38.97
20
24.291
30
0
0
VERTEX
8
RASTER
10
40.59
20
25.042
30
0
0
SEQEND
8
RASTER
0
POLYLINE
8
RASTER
66
1
70
1
0
VERTEX
8
RASTER
10
43.751
20
25.042
30
0
0
VERTEX
8
RASTER
10
43.488
20
24.91
30
0
0
VERTEX
8
RASTER
10
41.907
20
24.779
30
0
0
VERTEX
8
RASTER
10
40.327
20
24.252
30
0
0
VERTEX
8
RASTER
10
38.97
20
23.501
30
0
0
VERTEX
8
RASTER
10
37.916
20
22.711
30
0
0
VERTEX
8
RASTER
10
36.731
20
21.393
30
0
0
VERTEX
8
RASTER
10
35.717
20
19.642
30
0
0
VERTEX
8
RASTER
10
35.19
20
18.061
30
0
0
VERTEX
8
RASTER
10
35.058
20
16.744
30
0
0
VERTEX
8
RASTER
10
35.15
20
16.652
30
0
0
VERTEX
8
RASTER
10
35.321
20
17.007
30
0
0
VERTEX
8
RASTER
10
35.585
20
18.061
30
0
0
VERTEX
8
RASTER
10
36.204
20
19.286
30
0
0
VERTEX
8
RASTER
10
36.862
20
20.208
30
0
0
VERTEX
8
RASTER
10
37.916
20
21.262
30
0
0
VERTEX
8
RASTER
10
39.102
20
22.052
30
0
0
VERTEX
8
RASTER
10
40.458
20
22.671
30
0
0
VERTEX
8
RASTER
10
42.039
20
23.066
30
0
0
VERTEX
8
RASTER
10
43.883
20
23.066
30
0
0
VERTEX
8
RASTER
10
44.541
20
22.935
30
0
0
VERTEX
8
RASTER
10
45.332
20
22.671
30
0
0
VERTEX
8
RASTER
10
46.425
20
22.052
30
0
0
VERTEX
8
RASTER
10
47.347
20
21.13
30
0
0
VERTEX
8
RASTER
10
47.966
20
20.037
30
0
0
VERTEX
8
RASTER
10
48.229
20
19.247
30
0
0
VERTEX
8
RASTER
10
48.361
20
17.798
30
0
0
VERTEX
8
RASTER
10
48.098
20
16.876
30
0
0
VERTEX
8
RASTER
10
47.61
20
15.914
30
0
0
VERTEX
8
RASTER
10
46.952
20
15.256
30
0
0
VERTEX
8
RASTER
10
45.99
20
14.768
30
0
0
VERTEX
8
RASTER
10
45.068
20
14.768
30
0
0
VERTEX
8
RASTER
10
44.502
20
14.992
30
0
0
VERTEX
8
RASTER
10
43.975
20
15.387
30
0
0
VERTEX
8
RASTER
10
43.619
20
16.085
30
0
0
VERTEX
8
RASTER
10
43.619
20
16.481
30
0
0
VERTEX
8
RASTER
10
43.843
20
16.915
30
0
0
VERTEX
8
RASTER
10
44.146
20
17.139
30
0
0
VERTEX
8
RASTER
10
44.805
20
17.139
30
0
0
VERTEX
8
RASTER
10
45.292
20
16.915
30
0
0
VERTEX
8
RASTER
10
45.332
20
17.403
30
0
0
VERTEX
8
RASTER
10
44.976
20
17.837
30
0
0
VERTEX
8
RASTER
10
44.541
20
18.061
30
0
0
VERTEX
8
RASTER
10
44.015
20
18.061
30
0
0
VERTEX
8
RASTER
10
43.317
20
17.705
30
0
0
VERTEX
8
RASTER
10
42.829
20
17.007
30
0
0
VERTEX
8
RASTER
10
42.697
20
16.612
30
0
0
VERTEX
8
RASTER
10
42.697
20
15.69
30
0
0
VERTEX
8
RASTER
10
42.829
20
15.295
30
0
0
VERTEX
8
RASTER
10
43.317
20
14.465
30
0
0
VERTEX
8
RASTER
10
43.712
20
14.07
30
0
0
VERTEX
8
RASTER
10
45.068
20
13.319
30
0
0
VERTEX
8
RASTER
10
45.463
20
13.188
30
0
0
VERTEX
8
RASTER
10
47.439
20
13.188
30
0
0
VERTEX
8
RASTER
10
48.229
20
13.451
30
0
0
VERTEX
8
RASTER
10
49.323
20
14.07
30
0
0
VERTEX
8
RASTER
10
49.718
20
14.465
30
0
0
VERTEX
8
RASTER
10
50.245
20
15.256
30
0
0
VERTEX
8
RASTER
10
50.732
20
16.481
30
0
0
VERTEX
8
RASTER
10
50.732
20
17.007
30
0
0
VERTEX
8
RASTER
10
50.864
20
17.271
30
0
0
VERTEX
8
RASTER
10
50.864
20
19.247
30
0
0
VERTEX
8
RASTER
10
50.469
20
20.695
30
0
0
VERTEX
8
RASTER
10
49.981
20
21.657
30
0
0
VERTEX
8
RASTER
10
49.323
20
22.579
30
0
0
VERTEX
8
RASTER
10
47.874
20
23.764
30
0
0
VERTEX
8
RASTER
10
45.595
20
24.779
30
0
0
SEQEND
8
RASTER
0
POLYLINE
8
RASTER
66
1
70
1
0
VERTEX
8
RASTER
10
52.141
20
22.5
30
0
0
VERTEX
8
RASTER
10
52.049
20
22.408
30
0
0
VERTEX
8
RASTER
10
52.708
20
20.3
30
0
0
VERTEX
8
RASTER
10
52.708
20
18.061
30
0
0
VERTEX
8
RASTER
10
52.181
20
16.349
30
0
0
VERTEX
8
RASTER
10
51.562
20
15.256
30
0
0
VERTEX
8
RASTER
10
51.219
20
14.939
30
0
0
VERTEX
8
RASTER
10
51.035
20
14.597
30
0
0
VERTEX
8
RASTER
10
50.113
20
13.807
30
0
0
VERTEX
8
RASTER
10
48.625
20
12.924
30
0
0
VERTEX
8
RASTER
10
47.307
20
12.529
30
0
0
VERTEX
8
RASTER
10
45.595
20
12.529
30
0
0
VERTEX
8
RASTER
10
44.673
20
12.792
30
0
0
VERTEX
8
RASTER
10
43.712
20
13.28
30
0
0
VERTEX
8
RASTER
10
43.185
20
13.675
30
0
0
VERTEX
8
RASTER
10
42.526
20
14.465
30
0
0
VERTEX
8
RASTER
10
42.039
20
15.954
30
0
0
VERTEX
8
RASTER
10
42.302
20
17.271
30
0
0
VERTEX
8
RASTER
10
42.79
20
18.101
30
0
0
VERTEX
8
RASTER
10
43.751
20
18.588
30
0
0
VERTEX
8
RASTER
10
44.937
20
18.588
30
0
0
VERTEX
8
RASTER
10
45.687
20
18.153
30
0
0
VERTEX
8
RASTER
10
45.898
20
17.837
30
0
0
VERTEX
8
RASTER
10
45.99
20
16.876
30
0
0
VERTEX
8
RASTER
10
45.463
20
16.349
30
0
0
VERTEX
8
RASTER
10
44.805
20
16.349
30
0
0
VERTEX
8
RASTER
10
44.318
20
16.573
30
0
0
VERTEX
8
RASTER
10
44.278
20
16.217
30
0
0
VERTEX
8
RASTER
10
44.502
20
15.782
30
0
0
VERTEX
8
RASTER
10
45.463
20
15.295
30
0
0
VERTEX
8
RASTER
10
46.122
20
15.427
30
0
0
VERTEX
8
RASTER
10
46.82
20
15.782
30
0
0
VERTEX
8
RASTER
10
47.215
20
16.178
30
0
0
VERTEX
8
RASTER
10
47.703
20
17.139
30
0
0
VERTEX
8
RASTER
10
47.834
20
17.534
30
0
0
VERTEX
8
RASTER
10
47.834
20
18.72
30
0
0
VERTEX
8
RASTER
10
47.479
20
19.681
30
0
0
VERTEX
8
RASTER
10
46.688
20
20.603
30
0
0
VERTEX
8
RASTER
10
45.595
20
21.222
30
0
0
VERTEX
8
RASTER
10
44.673
20
21.486
30
0
0
VERTEX
8
RASTER
10
42.961
20
21.486
30
0
0
VERTEX
8
RASTER
10
41.512
20
21.091
30
0
0
VERTEX
8
RASTER
10
40.551
20
20.603
30
0
0
VERTEX
8
RASTER
10
39.497
20
19.813
30
0
0
VERTEX
8
RASTER
10
38.707
20
18.759
30
0
0
VERTEX
8
RASTER
10
37.824
20
16.744
30
0
0
VERTEX
8
RASTER
10
37.692
20
16.085
30
0
0
VERTEX
8
RASTER
10
37.692
20
13.714
30
0
0
VERTEX
8
RASTER
10
38.087
20
12.397
30
0
0
VERTEX
8
RASTER
10
38.707
20
11.172
30
0
0
VERTEX
8
RASTER
10
39.365
20
10.25
30
0
0
VERTEX
8
RASTER
10
40.551
20
9.065
30
0
0
VERTEX
8
RASTER
10
42.566
20
7.919
30
0
0
VERTEX
8
RASTER
10
44.41
20
7.392
30
0
0
VERTEX
8
RASTER
10
46.649
20
7.392
30
0
0
VERTEX
8
RASTER
10
48.322
20
7.827
30
0
0
VERTEX
8
RASTER
10
47.571
20
7.919
30
0
0
VERTEX
8
RASTER
10
47.307
20
7.787
30
0
0
VERTEX
8
RASTER
10
46.649
20
7.787
30
0
0
VERTEX
8
RASTER
10
46.385
20
7.919
30
0
0
VERTEX
8
RASTER
10
44.805
20
8.051
30
0
0
VERTEX
8
RASTER
10
43.053
20
8.802
30
0
0
VERTEX
8
RASTER
10
41.736
20
9.724
30
0
0
VERTEX
8
RASTER
10
40.814
20
10.777
30
0
0
VERTEX
8
RASTER
10
40.063
20
12.266
30
0
0
VERTEX
8
RASTER
10
39.8
20
13.188
30
0
0
VERTEX
8
RASTER
10
39.708
20
14.149
30
0
0
VERTEX
8
RASTER
10
39.8
20
15.032
30
0
0
VERTEX
8
RASTER
10
40.024
20
15.519
30
0
0
VERTEX
8
RASTER
10
40.327
20
14.11
30
0
0
VERTEX
8
RASTER
10
41.209
20
12.49
30
0
0
VERTEX
8
RASTER
10
41.999
20
11.699
30
0
0
VERTEX
8
RASTER
10
43.488
20
10.817
30
0
0
VERTEX
8
RASTER
10
44.805
20
10.422
30
0
0
VERTEX
8
RASTER
10
46.649
20
10.29
30
0
0
VERTEX
8
RASTER
10
46.912
20
10.422
30
0
0
VERTEX
8
RASTER
10
48.098
20
10.553
30
0
0
VERTEX
8
RASTER
10
49.586
20
11.172
30
0
0
VERTEX
8
RASTER
10
50.772
20
11.963
30
0
0
VERTEX
8
RASTER
10
51.825
20
13.016
30
0
0
VERTEX
8
RASTER
10
53.103
20
15.295
30
0
0
VERTEX
8
RASTER
10
53.498
20
16.612
30
0
0
VERTEX
8
RASTER
10
53.498
20
17.139
30
0
0
VERTEX
8
RASTER
10
53.63
20
17.403
30
0
0
VERTEX
8
RASTER
10
53.498
20
19.378
30
0
0
VERTEX
8
RASTER
10
52.971
20
21.091
30
0
0
SEQEND
8
RASTER
0
POLYLINE
8
CUT
66
1
70
1
0
VERTEX
8
CUT
10
60.4
20
26.2
30
0
0
VERTEX
8
CUT
10
60.431
20
26.669
30
0
0
VERTEX
8
CUT
10
60.525
20
27.075
30
0
0
VERTEX
8
CUT
10
60.681
20
27.419
30
0
0
VERTEX
8
CUT
10
60.9
20
27.7
30
0
0
VERTEX
8
CUT
10
61.181
20
27.919
30
0
0
VERTEX
8
CUT
10
61.525
20
28.075
30
0
0
VERTEX
8
CUT
10
61.931
20
28.169
30
0
0
VERTEX
8
CUT
10
62.4
20
28.2
30
0
0
VERTEX
8
CUT
10
82.6
20
28.2
30
0
0
VERTEX
8
CUT
10
83.069
20
28.169
30
0
0
VERTEX
8
CUT
10
83.475
20
28.075
30
0
0
VERTEX
8
CUT
10
83.819
20
27.919
30
0
0
VERTEX
8
CUT
10
84.1
20
27.7
30
0
0
VERTEX
8
CUT
10
84.319
20
27.419
30
0
0
VERTEX
8
CUT
10
84.475
20
27.075
30
0
0
VERTEX
8
CUT
10
84.569
20
26.669
30
0
0
VERTEX
8
CUT
10
84.6
20
26.2
30
0
0
VERTEX
8
CUT
10
84.6
20
6
30
0
0
VERTEX
8
CUT
10
84.569
20
5.531
30
0
0
VERTEX
8
CUT
10
84.475
20
5.125
30
0
0
VERTEX
8
CUT
10
84.319
20
4.781
30
0
0
VERTEX
8
CUT
10
84.1
20
4.5
30
0
0
VERTEX
8
CUT
10
83.819
20
4.281
30
0
0
VERTEX
8
CUT
10
83.475
20
4.125
30
0
0
VERTEX
8
CUT
10
83.069
20
4.031
30
0
0
VERTEX
8
CUT
10
82.6
20
4
30
0
0
VERTEX
8
CUT
10
62.4
20
4
30
0
0
VERTEX
8
CUT
10
61.931
20
4.031
30
0
0
VERTEX
8
CUT
10
61.525
20
4.125
30
0
0
VERTEX
8
CUT
10
61.181
20
4.281
30
0
0
VERTEX
8
CUT
10
60.9
20
4.5
30
0
0
VERTEX
8
CUT
10
60.681
20
4.781
30
0
0
VERTEX
8
CUT
10
60.525
20
5.125
30
0
0
VERTEX
8
CUT
10
60.431
20
5.531
30
0
0
VERTEX
8
CUT
10
60.4
20
6
30
0
0
SEQEND
8
CUT
0
POLYLINE
8
RASTER
66
1
70
1
0
VERTEX
8
RASTER
10
70.674
20
25.529
30
0
0
VERTEX
8
RASTER
10
73.4
20
25.569
30
0
0
VERTEX
8
RASTER
10
75.112
20
25.042
30
0
0
VERTEX
8
RASTER
10
76.732
20
24.159
30
0
0
VERTEX
8
RASTER
10
78.181
20
22.842
30
0
0
VERTEX
8
RASTER
10
79.327
20
20.827
30
0
0
VERTEX
8
RASTER
10
79.722
20
19.247
30
0
0
VERTEX
8
RASTER
10
79.722
20
17.403
30
0
0
VERTEX
8
RASTER
10
79.459
20
16.481
30
0
0
VERTEX
8
RASTER
10
79.498
20
16.125
30
0
0
VERTEX
8
RASTER
10
79.986
20
17.007
30
0
0
VERTEX
8
RASTER
10
80.381
20
18.588
30
0
0
VERTEX
8
RASTER
10
80.381
20
19.773
30
0
0
VERTEX
8
RASTER
10
80.118
20
21.091
30
0
0
VERTEX
8
RASTER
10
79.591
20
22.539
30
0
0
VERTEX
8
RASTER
10
79.683
20
23.106
30
0
0
VERTEX
8
RASTER
10
80.118
20
23.33
30
0
0
VERTEX
8
RASTER
10
80.684
20
23.106
30
0
0
VERTEX
8
RASTER
10
81.079
20
22.579
30
0
0
VERTEX
8
RASTER
10
82.093
20
20.432
30
0
0
VERTEX
8
RASTER
10
82.357
20
19.247
30
0
0
VERTEX
8
RASTER
10
82.357
20
16.744
30
0
0
VERTEX
8
RASTER
10
81.962
20
15.163
30
0
0
VERTEX
8
RASTER
10
80.947
20
13.148
30
0
0
VERTEX
8
RASTER
10
80.552
20
12.621
30
0
0
VERTEX
8
RASTER
10
78.972
20
11.172
30
0
0
VERTEX
8
RASTER
10
77.088
20
10.158
30
0
0
VERTEX
8
RASTER
10
76.298
20
9.895
30
0
0
VERTEX
8
RASTER
10
74.19
20
9.631
30
0
0
VERTEX
8
RASTER
10
73.927
20
9.763
30
0
0
VERTEX
8
RASTER
10
73.005
20
9.763
30
0
0
VERTEX
8
RASTER
10
71.688
20
10.158
30
0
0
VERTEX
8
RASTER
10
70.463
20
10.777
30
0
0
VERTEX
8
RASTER
10
69.541
20
11.436
30
0
0
VERTEX
8
RASTER
10
69.356
20
11.778
30
0
0
VERTEX
8
RASTER
10
69.185
20
11.739
30
0
0
VERTEX
8
RASTER
10
69.673
20
10.909
30
0
0
VERTEX
8
RASTER
10
70.595
20
9.987
30
0
0
VERTEX
8
RASTER
10
71.78
20
9.197
30
0
0
VERTEX
8
RASTER
10
72.61
20
8.841
30
0
0
VERTEX
8
RASTER
10
74.059
20
8.446
30
0
0
VERTEX
8
RASTER
10
76.034
20
8.446
30
0
0
VERTEX
8
RASTER
10
76.298
20
8.578
30
0
0
VERTEX
8
RASTER
10
77.391
20
8.485
30
0
0
VERTEX
8
RASTER
10
77.615
20
8.051
30
0
0
VERTEX
8
RASTER
10
77.391
20
7.616
30
0
0
VERTEX
8
RASTER
10
76.166
20
6.997
30
0
0
VERTEX
8
RASTER
10
74.981
20
6.865
30
0
0
VERTEX
8
RASTER
10
74.717
20
6.734
30
0
0
VERTEX
8
RASTER
10
72.741
20
6.734
30
0
0
VERTEX
8
RASTER
10
70.766
20
7.26
30
0
0
VERTEX
8
RASTER
10
69.014
20
8.143
30
0
0
VERTEX
8
RASTER
10
68.224
20
8.67
30
0
0
VERTEX
8
RASTER
10
67.038
20
9.855
30
0
0
VERTEX
8
RASTER
10
66.248
20
11.041
30
0
0
VERTEX
8
RASTER
10
65.629
20
12.397
30
0
0
VERTEX
8
RASTER
10
65.234
20
13.846
30
0
0
VERTEX
8
RASTER
10
65.234
20
16.085
30
0
0
VERTEX
8
RASTER
10
65.365
20
16.744
30
0
0
VERTEX
8
RASTER
10
65.761
20
17.929
30
0
0
VERTEX
8
RASTER
10
66.643
20
19.549
30
0
0
VERTEX
8
RASTER
10
67.96
20
20.867
30
0
0
VERTEX
8
RASTER
10
69.58
20
21.749
30
0
0
VERTEX
8
RASTER
10
70.897
20
22.144
30
0
0
VERTEX
8
RASTER
10
72.741
20
22.144
30
0
0
VERTEX
8
RASTER
10
72.834
20
22.236
30
0
0
VERTEX
8
RASTER
10
71.556
20
22.539
30
0
0
VERTEX
8
RASTER
10
70.897
20
22.539
30
0
0
VERTEX
8
RASTER
10
69.58
20
22.276
30
0
0
VERTEX
8
RASTER
10
67.697
20
21.525
30
0
0
VERTEX
8
RASTER
10
66.643
20
20.867
30
0
0
VERTEX
8
RASTER
10
65.326
20
19.549
30
0
0
VERTEX
8
RASTER
10
64.443
20
18.061
30
0
0
VERTEX
8
RASTER
10
64.048
20
17.007
30
0
0
VERTEX
8
RASTER
10
63.917
20
16.217
30
0
0
VERTEX
8
RASTER
10
63.693
20
15.914
30
0
0
VERTEX
8
RASTER
10
63.521
20
15.822
30
0
0
VERTEX
8
RASTER
10
62.955
20
15.914
30
0
0
VERTEX
8
RASTER
10
62.599
20
16.612
30
0
0
VERTEX
8
RASTER
10
62.731
20
18.061
30
0
0
VERTEX
8
RASTER
10
63.258
20
19.773
30
0
0
VERTEX
8
RASTER
10
64.14
20
21.393
30
0
0
VERTEX
8
RASTER
10
65.062
20
22.579
30
0
0
VERTEX
8
RASTER
10
65.853
20
23.369
30
0
0
VERTEX
8
RASTER
10
67.17
20
24.291
30
0
0
VERTEX
8
RASTER
10
68.79
20
25.042
30
0
0
SEQEND
8
RASTER
0
POLYLINE
8
RASTER
66
1
70
1
0
VERTEX
8
RASTER
10
71.951
20
25.042
30
0
0
VERTEX
8
RASTER
10
71.688
20
24.91
30
0
0
VERTEX
8
RASTER
10
70.107
20
24.779
30
0
0
VERTEX
8
RASTER
10
68.527
20
24.252
30
0
0
VERTEX
8
RASTER
10
67.17
20
23.501
30
0
0
VERTEX
8
RASTER
10
66.116
20
22.711
30
0
0
VERTEX
8
RASTER
10
64.931
20
21.393
30
0
0
VERTEX
8
RASTER
10
63.917
20
19.642
30
0
0
VERTEX
8
RASTER
10
63.39
20
18.061
30
0
0
VERTEX
8
RASTER
10
63.258
20
16.744
30
0
0
VERTEX
8
RASTER
10
63.35
20
16.652
30
0
0
VERTEX
8
RASTER
10
63.521
20
17.007
30
0
0
VERTEX
8
RASTER
10
63.785
20
18.061
30
0
0
VERTEX
8
RASTER
10
64.404
20
19.286
30
0
0
VERTEX
8
RASTER
10
65.062
20
20.208
30
0
0
VERTEX
8
RASTER
10
66.116
20
21.262
30
0
0
VERTEX
8
RASTER
10
67.302
20
22.052
30
0
0
VERTEX
8
RASTER
10
68.658
20
22.671
30
0
0
VERTEX
8
RASTER
10
70.239
20
23.066
30
0
0
VERTEX
8
RASTER
10
72.083
20
23.066
30
0
0
VERTEX
8
RASTER
10
72.741
20
22.935
30
0
0
VERTEX
8
RASTER
10
73.532
20
22.671
30
0
0
VERTEX
8
RASTER
10
74.625
20
22.052
30
0
0
VERTEX
8
RASTER
10
75.547
20
21.13
30
0
0
VERTEX
8
RASTER
10
76.166
20
20.037
30
0
0
VERTEX
8
RASTER
10
76.429
20
19.247
30
0
0
VERTEX
8
RASTER
10
76.561
20
17.798
30
0
0
VERTEX
8
RASTER
10
76.298
20
16.876
30
0
0
VERTEX
8
RASTER
10
75.81
20
15.914
30
0
0
VERTEX
8
RASTER
10
75.152
20
15.256
30
0
0
VERTEX
8
RASTER
10
74.19
20
14.768
30
0
0
VERTEX
8
RASTER
10
73.268
20
14.768
30
0
0
VERTEX
8
RASTER
10
72.702
20
14.992
30
0
0
VERTEX
8
RASTER
10
72.175
20
15.387
30
0
0
VERTEX
8
RASTER
10
71.819
20
16.085
30
0
0
VERTEX
8
RASTER
10
71.819
20
16.481
30
0
0
VERTEX
8
RASTER
10
72.043
20
16.915
30
0
0
VERTEX
8
RASTER
10
72.346
20
17.139
30
0
0
VERTEX
8
RASTER
10
73.005
20
17.139
30
0
0
VERTEX
8
RASTER
10
73.492
20
16.915
30
0
0
VERTEX
8
RASTER
10
73.532
20
17.403
30
0
0
VERTEX
8
RASTER
10
73.176
20
17.837
30
0
0
VERTEX
8
RASTER
10
72.741
20
18.061
30
0
0
VERTEX
8
RASTER
10
72.215
20
18.061
30
0
0
VERTEX
8
RASTER
10
71.517
20
17.705
30
0
0
VERTEX
8
RASTER
10
71.029
20
17.007
30
0
0
VERTEX
8
RASTER
10
70.897
20
16.612
30
0
0
VERTEX
8
RASTER
10
70.897
20
15.69
30
0
0
VERTEX
8
RASTER
10
71.029
20
15.295
30
0
0
VERTEX
8
RASTER
10
71.517
20
14.465
30
0
0
VERTEX
8
RASTER
10
71.912
20
14.07
30
0
0
VERTEX
8
RASTER
10
73.268
20
13.319
30
0
0
VERTEX
8
RASTER
10
73.663
20
13.188
30
0
0
VERTEX
8
RASTER
10
75.639
20
13.188
30
0
0
VERTEX
8
RASTER
10
76.429
20
13.451
30
0
0
VERTEX
8
RASTER
10
77.523
20
14.07
30
0
0
VERTEX
8
RASTER
10
77.918
20
14.465
30
0
0
VERTEX
8
RASTER
10
78.445
20
15.256
30
0
0
VERTEX
8
RASTER
10
78.932
20
16.481
30
0
0
VERTEX
8
RASTER
10
78.932
20
17.007
30
0
0
VERTEX
8
RASTER
10
79.064
20
17.271
30
0
0
VERTEX
8
RASTER
10
79.064
20
19.247
30
0
0
VERTEX
8
RASTER
10
78.669
20
20.695
30
0
0
VERTEX
8
RASTER
10
78.181
20
21.657
30
0
0
VERTEX
8
RASTER
10
77.523
20
22.579
30
0
0
VERTEX
8
RASTER
10
76.074
20
23.764
30
0
0
VERTEX
8
RASTER
10
73.795
20
24.779
30
0
0
SEQEND
8
RASTER
0
POLYLINE
8
RASTER
66
1
70
1
0
VERTEX
8
RASTER
10
80.341
20
22.5
30
0
0
VERTEX
8
RASTER
10
80.249
20
22.408
30
0
0
VERTEX
8
RASTER
10
80.908
20
20.3
30
0
0
VERTEX
8
RASTER
10
80.908
20
18.061
30
0
0
VERTEX
8
RASTER
10
80.381
20
16.349
30
0
0
VERTEX
8
RASTER
10
79.762
20
15.256
30
0
0
VERTEX
8
RASTER
10
79.419
20
14.939
30
0
0
VERTEX
8
RASTER
10
79.235
20
14.597
30
0
0
VERTEX
8
RASTER
10
78.313
20
13.807
30
0
0
VERTEX
8
RASTER
10
76.825
20
12.924
30
0
0
VERTEX
8
RASTER
10
75.507
20
12.529
30
0
0
VERTEX
8
RASTER
10
73.795
20
12.529
30
0
0
VERTEX
8
RASTER
10
72.873
20
12.792
30
0
0
VERTEX
8
RASTER
10
71.912
20
13.28
30
0
0
VERTEX
8
RASTER
10
71.385
20
13.675
30
0
0
VERTEX
8
RASTER
10
70.726
20
14.465
30
0
0
VERTEX
8
RASTER
10
70.239
20
15.954
30
0
0
VERTEX
8
RASTER
10
70.502
20
17.271
30
0
0
VERTEX
8
RASTER
10
70.99
20
18.101
30
0
0
VERTEX
8
RASTER
10
71.951
20
18.588
30
0
0
VERTEX
8
RASTER
10
73.137
20
18.588
30
0
0
VERTEX
8
RASTER
10
73.887
20
18.153
30
0
0
VERTEX
8
RASTER
10
74.098
20
17.837
30
0
0
VERTEX
8
RASTER
10
74.19
20
16.876
30
0
0
VERTEX
8
RASTER
10
73.663
20
16.349
30
0
0
VERTEX
8
RASTER
10
73.005
20
16.349
30
0
0
VERTEX
8
RASTER
10
72.518
20
16.573
30
0
0
VERTEX
8
RASTER
10
72.478
20
16.217
30
0
0
VERTEX
8
RASTER
10
72.702
20
15.782
30
0
0
VERTEX
8
RASTER
10
73.663
20
15.295
30
0
0
VERTEX
8
RASTER
10
74.322
20
15.427
30
0
0
VERTEX
8
RASTER
10
75.02
20
15.782
30
0
0
VERTEX
8
RASTER
10
75.415
20
16.178
30
0
0
VERTEX
8
RASTER
10
75.903
20
17.139
30
0
0
VERTEX
8
RASTER
10
76.034
20
17.534
30
0
0
VERTEX
8
RASTER
10
76.034
20
18.72
30
0
0
VERTEX
8
RASTER
10
75.679
20
19.681
30
0
0
VERTEX
8
RASTER
10
74.888
20
20.603
30
0
0
VERTEX
8
RASTER
10
73.795
20
21.222
30
0
0
VERTEX
8
RASTER
10
72.873
20
21.486
30
0
0
VERTEX
8
RASTER
10
71.161
20
21.486
30
0
0
VERTEX
8
RASTER
10
69.712
20
21.091
30
0
0
VERTEX
8
RASTER
10
68.751
20
20.603
30
0
0
VERTEX
8
RASTER
10
67.697
20
19.813
30
0
0
VERTEX
8
RASTER
10
66.907
20
18.759
30
0
0
VERTEX
8
RASTER
10
66.024
20
16.744
30
0
0
VERTEX
8
RASTER
10
65.892
20
16.085
30
0
0
VERTEX
8
RASTER
10
65.892
20
13.714
30
0
0
VERTEX
8
RASTER
10
66.287
20
12.397
30
0
0
VERTEX
8
RASTER
10
66.907
20
11.172
30
0
0
VERTEX
8
RASTER
10
67.565
20
10.25
30
0
0
VERTEX
8
RASTER
10
68.751
20
9.065
30
0
0
VERTEX
8
RASTER
10
70.766
20
7.919
30
0
0
VERTEX
8
RASTER
10
72.61
20
7.392
30
0
0
VERTEX
8
RASTER
10
74.849
20
7.392
30
0
0
VERTEX
8
RASTER
10
76.522
20
7.827
30
0
0
VERTEX
8
RASTER
10
75.771
20
7.919
30
0
0
VERTEX
8
RASTER
10
75.507
20
7.787
30
0
0
VERTEX
8
RASTER
10
74.849
20
7.787
30
0
0
VERTEX
8
RASTER
10
74.585
20
7.919
30
0
0
VERTEX
8
RASTER
10
73.005
20
8.051
30
0
0
VERTEX
8
RASTER
10
71.253
20
8.802
30
0
0
VERTEX
8
RASTER
10
69.936
20
9.724
30
0
0
VERTEX
8
RASTER
10
69.014
20
10.777
30
0
0
VERTEX
8
RASTER
10
68.263
20
12.266
30
0
0
VERTEX
8
RASTER
10
68
20
13.188
30
0
0
VERTEX
8
RASTER
10
67.908
20
14.149
30
0
0
VERTEX
8
RASTER
10
68
20
15.032
30
0
0
VERTEX
8
RASTER
10
68.224
20
15.519
30
0
0
VERTEX
8
RASTER
10
68.527
20
14.11
30
0
0
VERTEX
8
RASTER
10
69.409
20
12.49
30
0
0
VERTEX
8
RASTER
10
70.199
20
11.699
30
0
0
VERTEX
8
RASTER
10
71.688
20
10.817
30
0
0
VERTEX
8
RASTER
10
73.005
20
10.422
30
0
0
VERTEX
8
RASTER
10
74.849
20
10.29
30
0
0
VERTEX
8
RASTER
10
75.112
20
10.422
30
0
0
VERTEX
8
RASTER
10
76.298
20
10.553
30
0
0
VERTEX
8
RASTER
10
77.786
20
11.172
30
0
0
VERTEX
8
RASTER
10
78.972
20
11.963
30
0
0
VERTEX
8
RASTER
10
80.025
20
13.016
30
0
0
VERTEX
8
RASTER
10
81.303
20
15.295
30
0
0
VERTEX
8
RASTER
10
81.698
20
16.612
30
0
0
VERTEX
8
RASTER
10
81.698
20
17.139
30
0
0
VERTEX
8
RASTER
10
81.83
20
17.403
30
0
0
VERTEX
8
RASTER
10
81.698
20
19.378
30
0
0
VERTEX
8
RASTER
10
81.171
20
21.091
30
0
0
SEQEND
8
RASTER
0
POLYLINE
8
CUT
66
1
70
1
0
VERTEX
8
CUT
10
88.6
20
26.2
30
0
0
VERTEX
8
CUT
10
88.631
20
26.669
30
0
0
VERTEX
8
CUT
10
88.725
20
27.075
30
0
0
VERTEX
8
CUT
10
88.881
20
27.419
30
0
0
VERTEX
8
CUT
10
89.1
20
27.7
30
0
0
VERTEX
8
CUT
10
89.381
20
27.919
30
0
0
VERTEX
8
CUT
10
89.725
20
28.075
30
0
0
VERTEX
8
CUT
10
90.131
20
28.169
30
0
0
VERTEX
8
CUT
10
90.6
20
28.2
30
0
0
VERTEX
8
CUT
10
110.8
20
28.2
30
0
0
VERTEX
8
CUT
10
111.269
20
28.169
30
0
0
VERTEX
8
CUT
10
111.675
20
28.075
30
0
0
VERTEX
8
CUT
10
112.019
20
27.919
30
0
0
VERTEX
8
CUT
10
112.3
20
27.7
30
0
0
VERTEX
8
CUT
10
112.519
20
27.419
30
0
0
VERTEX
8
CUT
10
112.675
20
27.075
30
0
0
VERTEX
8
CUT
10
112.769
20
26.669
30
0
0
VERTEX
8
CUT
10
112.8
20
26.2
30
0
0
VERTEX
8
CUT
10
112.8
20
6
30
0
0
VERTEX
8
CUT
10
112.769
20
5.531
30
0
0
VERTEX
8
CUT
10
112.675
20
5.125
30
0
0
VERTEX
8
CUT
10
112.519
20
4.781
30
0
0
VERTEX
8
CUT
10
112.3
20
4.5
30
0
0
VERTEX
8
CUT
10
112.019
20
4.281
30
0
0
VERTEX
8
CUT
10
111.675
20
4.125
30
0
0
VERTEX
8
CUT
10
111.269
20
4.031
30
0
0
VERTEX
8
CUT
10
110.8
20
4
30
0
0
VERTEX
8
CUT
10
90.6
20
4
30
0
0
VERTEX
8
CUT
10
90.131
20
4.031
30
0
0
VERTEX
8
CUT
10
89.725
20
4.125
30
0
0
VERTEX
8
CUT
10
89.381
20
4.281
30
0
0
VERTEX
8
CUT
10
89.1
20
4.5
30
0
0
VERTEX
8
CUT
10
88.881
20
4.781
30
0
0
VERTEX
8
CUT
10
88.725
20
5.125
30
0
0
VERTEX
8
CUT
10
88.631
20
5.531
30
0
0
VERTEX
8
CUT
10
88.6
20
6
30
0
0
SEQEND
8
CUT
0
POLYLINE
8
RASTER
66
1
70
1
0
VERTEX
8
RASTER
10
98.874
20
25.529
30
0
0
VERTEX
8
RASTER
10
101.6
20
25.569
30
0
0
VERTEX
8
RASTER
10
103.312
20
25.042
30
0
0
VERTEX
8
RASTER
10
104.932
20
24.159
30
0
0
VERTEX
8
RASTER
10
106.381
20
22.842
30
0
0
VERTEX
8
RASTER
10
107.527
20
20.827
30
0
0
VERTEX
8
RASTER
10
107.922
20
19.247
30
0
0
VERTEX
8
RASTER
10
107.922
20
17.403
30
0
0
VERTEX
8
RASTER
10
107.659
20
16.481
30
0
0
VERTEX
8
RASTER
10
107.698
20
16.125
30
0
0
VERTEX
8
RASTER
10
108.186
20
17.007
30
0
0
VERTEX
8
RASTER
10
108.581
20
18.588
30
0
0
VERTEX
8
RASTER
10
108.581
20
19.773
30
0
0
VERTEX
8
RASTER
10
108.318
20
21.091
30
0
0
VERTEX
8
RASTER
10
107.791
20
22.539
30
0
0
VERTEX
8
RASTER
10
107.883
20
23.106
30
0
0
VERTEX
8
RASTER
10
108.318
20
23.33
30
0
0
VERTEX
8
RASTER
10
108.884
20
23.106
30
0
0
VERTEX
8
RASTER
10
109.279
20
22.579
30
0
0
VERTEX
8
RASTER
10
110.293
20
20.432
30
0
0
VERTEX
8
RASTER
10
110.557
20
19.247
30
0
0
VERTEX
8
RASTER
10
110.557
20
16.744
30
0
0
VERTEX
8
RASTER
10
110.162
20
15.163
30
0
0
VERTEX
8
RASTER
10
109.147
20
13.148
30
0
0
VERTEX
8
RASTER
10
108.752
20
12.621
30
0
0
VERTEX
8
RASTER
10
107.172
20
11.172
30
0
0
VERTEX
8
RASTER
10
105.288
20
10.158
30
0
0
VERTEX
8
RASTER
10
104.498
20
9.895
30
0
0
VERTEX
8
RASTER
10
102.39
20
9.631
30
0
0
VERTEX
8
RASTER
10
102.127
20
9.763
30
0
0
VERTEX
8
RASTER
10
101.205
20
9.763
30
0
0
VERTEX
8
RASTER
10
99.888
20
10.158
30
0
0
VERTEX
8
RASTER
10
98.663
20
10.777
30
0
0
VERTEX
8
RASTER
10
97.741
20
11.436
30
0
0
VERTEX
8
RASTER
10
97.556
20
11.778
30
0
0
VERTEX
8
RASTER
10
97.385
20
11.739
30
0
0
VERTEX
8
RASTER
10
97.873
20
10.909
30
0
0
VERTEX
8
RASTER
10
98.795
20
9.987
30
0
0
VERTEX
8
RASTER
10
99.98
20
9.197
30
0
0
VERTEX
8
RASTER
10
100.81
20
8.841
30
0
0
VERTEX
8
RASTER
10
102.259
20
8.446
30
0
0
VERTEX
8
RASTER
10
104.234
20
8.446
30
0
0
VERTEX
8
RASTER
10
104.498
20
8.578
30
0
0
VERTEX
8
RASTER
10
105.591
20
8.485
30
0
0
VERTEX
8
RASTER
10
105.815
20
8.051
30
0
0
VERTEX
8
RASTER
10
105.591
20
7.616
30
0
0
VERTEX
8
RASTER
10
104.366
20
6.997
30
0
0
VERTEX
8
RASTER
10
103.181
20
6.865
30
0
0
VERTEX
8
RASTER
10
102.917
20
6.734
30
0
0
VERTEX
8
RASTER
10
100.941
20
6.734
30
0
0
VERTEX
8
RASTER
10
98.966
20
7.26
30
0
0
VERTEX
8
RASTER
10
97.214
20
8.143
30
0
0
VERTEX
8
RASTER
10
96.424
20
8.67
30
0
0
VERTEX
8
RASTER
10
95.238
20
9.855
30
0
0
VERTEX
8
RASTER
10
94.448
20
11.041
30
0
0
VERTEX
8
RASTER
10
93.829
20
12.397
30
0
0
VERTEX
8
RASTER
10
93.434
20
13.846
30
0
0
VERTEX
8
RASTER
10
93.434
20
16.085
30
0
0
VERTEX
8
RASTER
10
93.565
20
16.744
30
0
0
VERTEX
8
RASTER
10
93.961
20
17.929
30
0
0
VERTEX
8
RASTER
10
94.843
20
19.549
30
0
0
VERTEX
8
RASTER
10
96.16
20
20.867
30
0
0
VERTEX
8
RASTER
10
97.78
20
21.749
30
0
0
VERTEX
8
RASTER
10
99.097
20
22.144
30
0
0
VERTEX
8
RASTER
10
100.941
20
22.144
30
0
0
VERTEX
8
RASTER
10
101.034
20
22.236
30
0
0
VERTEX
8
RASTER
10
99.756
20
22.539
30
0
0
VERTEX
8
RASTER
10
99.097
20
22.539
30
0
0
VERTEX
8
RASTER
10
97.78
20
22.276
30
0
0
VERTEX
8
RASTER
10
95.897
20
21.525
30
0
0
VERTEX
8
RASTER
10
94.843
20
20.867
30
0
0
VERTEX
8
RASTER
10
93.526
20
19.549
30
0
0
VERTEX
8
RASTER
10
92.643
20
18.061
30
0
0
VERTEX
8
RASTER
10
92.248
20
17.007
30
0
0
VERTEX
8
RASTER
10
92.117
20
16.217
30
0
0
VERTEX
8
RASTER
10
91.893
20
15.914
30
0
0
VERTEX
8
RASTER
10
91.721
20
15.822
30
0
0
VERTEX
8
RASTER
10
91.155
20
15.914
30
0
0
VERTEX
8
RASTER
10
90.799
20
16.612
30
0
0
VERTEX
8
RASTER
10
90.931
20
18.061
30
0
0
VERTEX
8
RASTER
10
91.458
20
19.773
30
0
0
VERTEX
8
RASTER
10
92.34
20
21.393
30
0
0
VERTEX
8
RASTER
10
93.262
20
22.579
30
0
0
VERTEX
8
RASTER
10
94.053
20
23.369
30
0
0
VERTEX
8
RASTER
10
95.37
20
24.291
30
0
0
VERTEX
8
RASTER
10
96.99
20
25.042
30
0
0
SEQEND
8
RASTER
0
POLYLINE
8
RASTER
66
1
70
1
0
VERTEX
8
RASTER
10
100.151
20
25.042
30
0
0
VERTEX
8
RASTER
10
99.888
20
24.91
30
0
0
VERTEX
8
RASTER
10
98.307
20
24.779
30
0
0
VERTEX
8
RASTER
10
96.727
20
24.252
30
0
0
VERTEX
8
RASTER
10
95.37
20
23.501
30
0
0
VERTEX
8
RASTER
10
94.316
20
22.711
30
0
0
VERTEX
8
RASTER
10
93.131
20
21.393
30
0
0
VERTEX
8
RASTER
10
92.117
20
19.642
30
0
0
VERTEX
8
RASTER
10
91.59
20
18.061
30
0
0
VERTEX
8
RASTER
10
91.458
20
16.744
30
0
0
VERTEX
8
RASTER
10
91.55
20
16.652
30
0
0
VERTEX
8
RASTER
10
91.721
20
17.007
30
0
0
VERTEX
8
RASTER
10
91.985
20
18.061
30
0
0
VERTEX
8
RASTER
10
92.604
20
19.286
30
0
0
VERTEX
8
RASTER
10
93.262
20
20.208
30
0
0
VERTEX
8
RASTER
10
94.316
20
21.262
30
0
0
VERTEX
8
RASTER
10
95.502
20
22.052
30
0
0
VERTEX
8
RASTER
10
96.858
20
22.671
30
0
0
VERTEX
8
RASTER
10
98.439
20
23.066
30
0
0
VERTEX
8
RASTER
10
100.283
20
23.066
30
0
0
VERTEX
8
RASTER
10
100.941
20
22.935
30
0
0
VERTEX
8
RASTER
10
101.732
20
22.671
30
0
0
VERTEX
8
RASTER
10
102.825
20
22.052
30
0
0
VERTEX
8
RASTER
10
103.747
20
21.13
30
0
0
VERTEX
8
RASTER
10
104.366
20
20.037
30
0
0
VERTEX
8
RASTER
10
104.629
20
19.247
30
0
0
VERTEX
8
RASTER
10
104.761
20
17.798
30
0
0
VERTEX
8
RASTER
10
104.498
20
16.876
30
0
0
VERTEX
8
RASTER
10
104.01
20
15.914
30
0
0
VERTEX
8
RASTER
10
103.352
20
15.256
30
0
0
VERTEX
8
RASTER
10
102.39
20
14.768
30
0
0
VERTEX
8
RASTER
10
101.468
20
14.768
30
0
0
VERTEX
8
RASTER
10
100.902
20
14.992
30
0
0
VERTEX
8
RASTER
10
100.375
20
15.387
30
0
0
VERTEX
8
RASTER
10
100.019
20
16.085
30
0
0
VERTEX
8
RASTER
10
100.019
20
16.481
30
0
0
VERTEX
8
RASTER
10
100.243
20
16.915
30
0
0
VERTEX
8
RASTER
10
100.546
20
17.139
30
0
0
VERTEX
8
RASTER
10
101.205
20
17.139
30
0
0
VERTEX
8
RASTER
10
101.692
20
16.915
30
0
0
VERTEX
8
RASTER
10
101.732
20
17.403
30
0
0
VERTEX
8
RASTER
10
101.376
20
17.837
30
0
0
VERTEX
8
RASTER
10
100.941
20
18.061
30
0
0
VERTEX
8
RASTER
10
100.415
20
18.061
30
0
0
VERTEX
8
RASTER
10
99.717
20
17.705
30
0
0
VERTEX
8
RASTER
10
99.229
20
17.007
30
0
0
VERTEX
8
RASTER
10
99.097
20
16.612
30
0
0
VERTEX
8
RASTER
10
99.097
20
15.69
30
0
0
VERTEX
8
RASTER
10
99.229
20
15.295
30
0
0
VERTEX
8
RASTER
10
99.717
20
14.465
30
0
0
VERTEX
8
RASTER
10
100.112
20
14.07
30
0
0
VERTEX
8
RASTER
10
101.468
20
13.319
30
0
0
VERTEX
8
RASTER
10
101.863
20
13.188
30
0
0
VERTEX
8
RASTER
10
103.839
20
13.188
30
0
0
VERTEX
8
RASTER
10
104.629
20
13.451
30
0
0
VERTEX
8
RASTER
10
105.723
20
14.07
30
0
0
VERTEX
8
RASTER
10
106.118
20
14.465
30
0
0
VERTEX
8
RASTER
10
106.645
20
15.256
30
0
0
VERTEX
8
RASTER
10
107.132
20
16.481
30
0
0
VERTEX
8
RASTER
10
107.132
20
17.007
30
0
0
VERTEX
8
RASTER
10
107.264
20
17.271
30
0
0
VERTEX
8
RASTER
10
107.264
20
19.247
30
0
0
VERTEX
8
RASTER
10
106.869
20
20.695
30
0
0
VERTEX
8
RASTER
10
106.381
20
21.657
30
0
0
VERTEX
8
RASTER
10
105.723
20
22.579
30
0
0
VERTEX
8
RASTER
10
104.274
20
23.764
30
0
0
VERTEX
8
RASTER
10
101.995
20
24.779
30
0
0
SEQEND
8
RASTER
0
POLYLINE
8
RASTER
66
1
70
1
0
VERTEX
8
RASTER
10
108.541
20
22.5
30
0
0
VERTEX
8
RASTER
10
108.449
20
22.408
30
0
0
VERTEX
8
RASTER
10
109.108
20
20.3
30
0
0
VERTEX
8
RASTER
10
109.108
20
18.061
30
0
0
VERTEX
8
RASTER
10
108.581
20
16.349
30
0
0
VERTEX
8
RASTER
10
107.962
20
15.256
30
0
0
VERTEX
8
RASTER
10
107.619
20
14.939
30
0
0
VERTEX
8
RASTER
10
107.435
20
14.597
30
0
0
VERTEX
8
RASTER
10
106.513
20
13.807
30
0
0
VERTEX
8
RASTER
10
105.025
20
12.924
30
0
0
VERTEX
8
RASTER
10
103.707
20
12.529
30
0
0
VERTEX
8
RASTER
10
101.995
20
12.529
30
0
0
VERTEX
8
RASTER
10
101.073
20
12.792
30
0
0
VERTEX
8
RASTER
10
100.112
20
13.28
30
0
0
VERTEX
8
RASTER
10
99.585
20
13.675
30
0
0
VERTEX
8
RASTER
10
98.926
20
14.465
30
0
0
VERTEX
8
RASTER
10
98.439
20
15.954
30
0
0
VERTEX
8
RASTER
10
98.702
20
17.271
30
0
0
VERTEX
8
RASTER
10
99.19
20
18.101
30
0
0
VERTEX
8
RASTER
10
100.151
20
18.588
30
0
0
VERTEX
8
RASTER
10
101.337
20
18.588
30
0
0
VERTEX
8
RASTER
10
102.087
20
18.153
30
0
0
VERTEX
8
RASTER
10
102.298
20
17.837
30
0
0
VERTEX
8
RASTER
10
102.39
20
16.876
30
0
0
VERTEX
8
RASTER
10
101.863
20
16.349
30
0
0
VERTEX
8
RASTER
10
101.205
20
16.349
30
0
0
VERTEX
8
RASTER
10
100.718
20
16.573
30
0
0
VERTEX
8
RASTER
10
100.678
20
16.217
30
0
0
VERTEX
8
RASTER
10
100.902
20
15.782
30
0
0
VERTEX
8
RASTER
10
101.863
20
15.295
30
0
0
VERTEX
8
RASTER
10
102.522
20
15.427
30
0
0
VERTEX
8
RASTER
10
103.22
20
15.782
30
0
0
VERTEX
8
RASTER
10
103.615
20
16.178
30
0
0
VERTEX
8
RASTER
10
104.103
20
17.139
30
0
0
VERTEX
8
RASTER
10
104.234
20
17.534
30
0
0
VERTEX
8
RASTER
10
104.234
20
18.72
30
0
0
VERTEX
8
RASTER
10
103.879
20
19.681
30
0
0
VERTEX
8
RASTER
10
103.088
20
20.603
30
0
0
VERTEX
8
RASTER
10
101.995
20
21.222
30
0
0
VERTEX
8
RASTER
10
101.073
20
21.486
30
0
0
VERTEX
8
RASTER
10
99.361
20
21.486
30
0
0
VERTEX
8
RASTER
10
97.912
20
21.091
30
0
0
VERTEX
8
RASTER
10
96.951
20
20.603
30
0
0
VERTEX
8
RASTER
10
95.897
20
19.813
30
0
0
VERTEX
8
RASTER
10
95.107
20
18.759
30
0
0
VERTEX
8
RASTER
10
94.224
20
16.744
30
0
0
VERTEX
8
RASTER
10
94.092
20
16.085
30
0
0
VERTEX
8
RASTER
10
94.092
20
13.714
30
0
0
VERTEX
8
RASTER
10
94.487
20
12.397
30
0
0
VERTEX
8
RASTER
10
95.107
20
11.172
30
0
0
VERTEX
8
RASTER
10
95.765
20
10.25
30
0
0
VERTEX
8
RASTER
10
96.951
20
9.065
30
0
0
VERTEX
8
RASTER
10
98.966
20
7.919
30
0
0
VERTEX
8
RASTER
10
100.81
20
7.392
30
0
0
VERTEX
8
RASTER
10
103.049
20
7.392
30
0
0
VERTEX
8
RASTER
10
104.722
20
7.827
30
0
0
VERTEX
8
RASTER
10
103.971
20
7.919
30
0
0
VERTEX
8
RASTER
10
103.707
20
7.787
30
0
0
VERTEX
8
RASTER
10
103.049
20
7.787
30
0
0
VERTEX
8
RASTER
10
102.785
20
7.919
30
0
0
VERTEX
8
RASTER
10
101.205
20
8.051
30
0
0
VERTEX
8
RASTER
10
99.453
20
8.802
30
0
0
VERTEX
8
RASTER
10
98.136
20
9.724
30
0
0
VERTEX
8
RASTER
10
97.214
20
10.777
30
0
0
VERTEX
8
RASTER
10
96.463
20
12.266
30
0
0
VERTEX
8
RASTER
10
96.2
20
13.188
30
0
0
VERTEX
8
RASTER
10
96.108
20
14.149
30
0
0
VERTEX
8
RASTER
10
96.2
20
15.032
30
0
0
VERTEX
8
RASTER
10
96.424
20
15.519
30
0
0
VERTEX
8
RASTER
10
96.727
20
14.11
30
0
0
VERTEX
8
RASTER
10
97.609
20
12.49
30
0
0
VERTEX
8
RASTER
10
98.399
20
11.699
30
0
0
VERTEX
8
RASTER
10
99.888
20
10.817
30
0
0
VERTEX
8
RASTER
10
101.205
20
10.422
30
0
0
VERTEX
8
RASTER
10
103.049
20
10.29
30
0
0
VERTEX
8
RASTER
10
103.312
20
10.422
30
0
0
VERTEX
8
RASTER
10
104.498
20
10.553
30
0
0
VERTEX
8
RASTER
10
105.986
20
11.172
30
0
0
VERTEX
8
RASTER
10
107.172
20
11.963
30
0
0
VERTEX
8
RASTER
10
108.225
20
13.016
30
0
0
VERTEX
8
RASTER
10
109.503
20
15.295
30
0
0
VERTEX
8
RASTER
10
109.898
20
16.612
30
0
0
VERTEX
8
RASTER
10
109.898
20
17.139
30
0
0
VERTEX
8
RASTER
10
110.03
20
17.403
30
0
0
VERTEX
8
RASTER
10
109.898
20
19.378
30
0
0
VERTEX
8
RASTER
10
109.371
20
21.091
30
0
0
SEQEND
8
RASTER
0
ENDSEC
0
EOF
