0
SECTION
2
HEADER
9
$ACADVER
1
AC1009
9
$EXTMIN
10
0
20
0
9
$EXTMAX
10
116.8
20
32.2
0
ENDSEC
0
SECTION
2
TABLES
0
TABLE
2
LAYER
70
2
0
LAYER
2
CUT
70
0
62
1
6
CONTINUOUS
0
LAYER
2
RASTER
70
0
62
7
6
CONTINUOUS
0
ENDTAB
0
ENDSEC
0
SECTION
2
ENTITIES
0
POLYLINE
8
CUT
66
1
70
1
0
VERTEX
8
CUT
10
4
20
26.2
30
0
0
VERTEX
8
CUT
10
4.031
20
26.669
30
0
0
VERTEX
8
CUT
10
4.125
20
27.075
30
0
0
VERTEX
8
CUT
10
4.281
20
27.419
30
0
0
VERTEX
8
CUT
10
4.5
20
27.7
30
0
0
VERTEX
8
CUT
10
4.781
20
27.919
30
0
0
VERTEX
8
CUT
10
5.125
20
28.075
30
0
0
VERTEX
8
CUT
10
5.531
20
28.169
30
0
0
VERTEX
8
CUT
10
6
20
28.2
30
0
0
VERTEX
8
CUT
10
26.2
20
28.2
30
0
0
VERTEX
8
CUT
10
26.669
20
28.169
30
0
0
VERTEX
8
CUT
10
27.075
20
28.075
30
0
0
VERTEX
8
CUT
10
27.419
20
27.919
30
0
0
VERTEX
8
CUT
10
27.7
20
27.7
30
0
0
VERTEX
8
CUT
10
27.919
20
27.419
30
0
0
VERTEX
8
CUT
10
28.075
20
27.075
30
0
0
VERTEX
8
CUT
10
28.169
20
26.669
30
0
0
VERTEX
8
CUT
10
28.2
20
26.2
30
0
0
VERTEX
8
CUT
10
28.2
20
6
30
0
0
VERTEX
8
CUT
10
28.169
20
5.531
30
0
0
VERTEX
8
CUT
10
28.075
20
5.125
30
0
0
VERTEX
8
CUT
10
27.919
20
4.781
30
0
0
VERTEX
8
CUT
10
27.7
20
4.5
30
0
0
VERTEX
8
CUT
10
27.419
20
4.281
30
0
0
VERTEX
8
CUT
10
27.075
20
4.125
30
0
0
VERTEX
8
CUT
10
26.669
20
4.031
30
0
0
VERTEX
8
CUT
10
26.2
20
4
30
0
0
VERTEX
8
CUT
10
6
20
4
30
0
0
VERTEX
8
CUT
10
5.531
20
4.031
30
0
0
VERTEX
8
CUT
10
5.125
20
4.125
30
0
0
VERTEX
8
CUT
10
4.781
20
4.281
30
0
0
VERTEX
8
CUT
10
4.5
20
4.5
30
0
0
VERTEX
8
CUT
10
4.281
20
4.781
30
0
0
VERTEX
8
CUT
10
4.125
20
5.125
30
0
0
VERTEX
8
CUT
10
4.031
20
5.531
30
0
0
VERTEX
8
CUT
10
4
20
6
30
0
0
SEQEND
8
CUT
0
POLYLINE
8
RASTER
66
1
70
1
0
VERTEX
8
RASTER
10
14.179
20
25.586
30
0
0
VERTEX
8
RASTER
10
16.937
20
25.626
30
0
0
VERTEX
8
RASTER
10
18.67
20
25.093
30
0
0
VERTEX
8
RASTER
10
20.308
20
24.201
30
0
0
VERTEX
8
RASTER
10
21.774
20
22.868
30
0
0
VERTEX
8
RASTER
10
22.933
20
20.83
30
0
0
VERTEX
8
RASTER
10
23.333
20
19.231
30
0
0
VERTEX
8
RASTER
10
23.333
20
17.366
30
0
0
VERTEX
8
RASTER
10
23.066
20
16.433
30
0
0
VERTEX
8
RASTER
10
23.106
20
16.073
30
0
0
VERTEX
8
RASTER
10
23.599
20
16.966
30
0
0
VERTEX
8
RASTER
10
23.999
20
18.565
30
0
0
VERTEX
8
RASTER
10
23.999
20
19.764
30
0
0
VERTEX
8
RASTER
10
23.733
20
21.096
30
0
0
VERTEX
8
RASTER
10
23.2
20
22.562
30
0
0
VERTEX
8
RASTER
10
23.293
20
23.135
30
0
0
VERTEX
8
RASTER
10
23.733
20
23.361
30
0
0
VERTEX
8
RASTER
10
24.305
20
23.135
30
0
0
VERTEX
8
RASTER
10
24.705
20
22.602
30
0
0
VERTEX
8
RASTER
10
25.731
20
20.43
30
0
0
VERTEX
8
RASTER
10
25.998
20
19.231
30
0
0
VERTEX
8
RASTER
10
25.998
20
16.7
30
0
0
VERTEX
8
RASTER
10
25.598
20
15.101
30
0
0
VERTEX
8
RASTER
10
24.572
20
13.062
30
0
0
VERTEX
8
RASTER
10
24.172
20
12.529
30
0
0
VERTEX
8
RASTER
10
22.573
20
11.064
30
0
0
VERTEX
8
RASTER
10
20.668
20
10.038
30
0
0
VERTEX
8
RASTER
10
19.869
20
9.771
30
0
0
VERTEX
8
RASTER
10
17.737
20
9.505
30
0
0
VERTEX
8
RASTER
10
17.47
20
9.638
30
0
0
VERTEX
8
RASTER
10
16.538
20
9.638
30
0
0
VERTEX
8
RASTER
10
15.205
20
10.038
30
0
0
VERTEX
8
RASTER
10
13.966
20
10.664
30
0
0
VERTEX
8
RASTER
10
13.034
20
11.33
30
0
0
VERTEX
8
RASTER
10
12.847
20
11.677
30
0
0
VERTEX
8
RASTER
10
12.674
20
11.637
30
0
0
VERTEX
8
RASTER
10
13.167
20
10.797
30
0
0
VERTEX
8
RASTER
10
14.1
20
9.865
30
0
0
VERTEX
8
RASTER
10
15.299
20
9.065
30
0
0
VERTEX
8
RASTER
10
16.138
20
8.705
30
0
0
VERTEX
8
RASTER
10
17.604
20
8.306
30
0
0
VERTEX
8
RASTER
10
19.602
20
8.306
30
0
0
VERTEX
8
RASTER
10
19.869
20
8.439
30
0
0
VERTEX
8
RASTER
10
20.975
20
8.346
30
0
0
VERTEX
8
RASTER
10
21.201
20
7.906
30
0
0
VERTEX
8
RASTER
10
20.975
20
7.466
30
0
0
VERTEX
8
RASTER
10
19.735
20
6.84
30
0
0
VERTEX
8
RASTER
10
18.536
20
6.707
30
0
0
VERTEX
8
RASTER
10
18.27
20
6.574
30
0
0
VERTEX
8
RASTER
10
16.271
20
6.574
30
0
0
VERTEX
8
RASTER
10
14.273
20
7.107
30
0
0
VERTEX
8
RASTER
10
12.501
20
7.999
30
0
0
VERTEX
8
RASTER
10
11.701
20
8.532
30
0
0
VERTEX
8
RASTER
10
10.502
20
9.731
30
0
0
VERTEX
8
RASTER
10
9.703
20
10.93
30
0
0
VERTEX
8
RASTER
10
9.077
20
12.303
30
0
0
VERTEX
8
RASTER
10
8.677
20
13.768
30
0
0
VERTEX
8
RASTER
10
8.677
20
16.033
30
0
0
VERTEX
8
RASTER
10
8.81
20
16.7
30
0
0
VERTEX
8
RASTER
10
9.21
20
17.899
30
0
0
VERTEX
8
RASTER
10
10.102
20
19.537
30
0
0
VERTEX
8
RASTER
10
11.435
20
20.87
30
0
0
VERTEX
8
RASTER
10
13.074
20
21.763
30
0
0
VERTEX
8
RASTER
10
14.406
20
22.162
30
0
0
VERTEX
8
RASTER
10
16.271
20
22.162
30
0
0
VERTEX
8
RASTER
10
16.365
20
22.256
30
0
0
VERTEX
8
RASTER
10
15.072
20
22.562
30
0
0
VERTEX
8
RASTER
10
14.406
20
22.562
30
0
0
VERTEX
8
RASTER
10
13.074
20
22.295
30
0
0
VERTEX
8
RASTER
10
11.168
20
21.536
30
0
0
VERTEX
8
RASTER
10
10.102
20
20.87
30
0
0
VERTEX
8
RASTER
10
8.77
20
19.537
30
0
0
VERTEX
8
RASTER
10
7.877
20
18.032
30
0
0
VERTEX
8
RASTER
10
7.478
20
16.966
30
0
0
VERTEX
8
RASTER
10
7.344
20
16.167
30
0
0
VERTEX
8
RASTER
10
7.118
20
15.86
30
0
0
VERTEX
8
RASTER
10
6.945
20
15.767
30
0
0
VERTEX
8
RASTER
10
6.372
20
15.86
30
0
0
VERTEX
8
RASTER
10
6.012
20
16.566
30
0
0
VERTEX
8
RASTER
10
6.145
20
18.032
30
0
0
VERTEX
8
RASTER
10
6.678
20
19.764
30
0
0
VERTEX
8
RASTER
10
7.571
20
21.403
30
0
0
VERTEX
8
RASTER
10
8.504
20
22.602
30
0
0
VERTEX
8
RASTER
10
9.303
20
23.401
30
0
0
VERTEX
8
RASTER
10
10.635
20
24.334
30
0
0
VERTEX
8
RASTER
10
12.274
20
25.093
30
0
0
SEQEND
8
RASTER
0
POLYLINE
8
RASTER
66
1
70
1
0
VERTEX
8
RASTER
10
15.472
20
25.093
30
0
0
VERTEX
8
RASTER
10
15.205
20
24.96
30
0
0
VERTEX
8
RASTER
10
13.607
20
24.827
30
0
0
VERTEX
8
RASTER
10
12.008
20
24.294
30
0
0
VERTEX
8
RASTER
10
10.635
20
23.535
30
0
0
VERTEX
8
RASTER
10
9.57
20
22.735
30
0
0
VERTEX
8
RASTER
10
8.37
20
21.403
30
0
0
VERTEX
8
RASTER
10
7.344
20
19.631
30
0
0
VERTEX
8
RASTER
10
6.812
20
18.032
30
0
0
VERTEX
8
RASTER
10
6.678
20
16.7
30
0
0
VERTEX
8
RASTER
10
6.772
20
16.606
30
0
0
VERTEX
8
RASTER
10
6.945
20
16.966
30
0
0
VERTEX
8
RASTER
10
7.211
20
18.032
30
0
0
VERTEX
8
RASTER
10
7.837
20
19.271
30
0
0
VERTEX
8
RASTER
10
8.504
20
20.204
30
0
0
VERTEX
8
RASTER
10
9.57
20
21.27
30
0
0
VERTEX
8
RASTER
10
10.769
20
22.069
30
0
0
VERTEX
8
RASTER
10
12.141
20
22.695
30
0
0
VERTEX
8
RASTER
10
13.74
20
23.095
30
0
0
VERTEX
8
RASTER
10
15.605
20
23.095
30
0
0
VERTEX
8
RASTER
10
16.271
20
22.962
30
0
0
VERTEX
8
RASTER
10
17.071
20
22.695
30
0
0
VERTEX
8
RASTER
10
18.177
20
22.069
30
0
0
VERTEX
8
RASTER
10
19.109
20
21.136
30
0
0
VERTEX
8
RASTER
10
19.735
20
20.03
30
0
0
VERTEX
8
RASTER
10
20.002
20
19.231
30
0
0
VERTEX
8
RASTER
10
20.135
20
17.765
30
0
0
VERTEX
8
RASTER
10
19.869
20
16.833
30
0
0
VERTEX
8
RASTER
10
19.376
20
15.86
30
0
0
VERTEX
8
RASTER
10
18.71
20
15.194
30
0
0
VERTEX
8
RASTER
10
17.737
20
14.701
30
0
0
VERTEX
8
RASTER
10
16.804
20
14.701
30
0
0
VERTEX
8
RASTER
10
16.231
20
14.928
30
0
0
VERTEX
8
RASTER
10
15.698
20
15.327
30
0
0
VERTEX
8
RASTER
10
15.339
20
16.033
30
0
0
VERTEX
8
RASTER
10
15.339
20
16.433
30
0
0
VERTEX
8
RASTER
10
15.565
20
16.873
30
0
0
VERTEX
8
RASTER
10
15.872
20
17.099
30
0
0
VERTEX
8
RASTER
10
16.538
20
17.099
30
0
0
VERTEX
8
RASTER
10
17.031
20
16.873
30
0
0
VERTEX
8
RASTER
10
17.071
20
17.366
30
0
0
VERTEX
8
RASTER
10
16.711
20
17.805
30
0
0
VERTEX
8
RASTER
10
16.271
20
18.032
30
0
0
VERTEX
8
RASTER
10
15.738
20
18.032
30
0
0
VERTEX
8
RASTER
10
15.032
20
17.672
30
0
0
VERTEX
8
RASTER
10
14.539
20
16.966
30
0
0
VERTEX
8
RASTER
10
14.406
20
16.566
30
0
0
VERTEX
8
RASTER
10
14.406
20
15.634
30
0
0
VERTEX
8
RASTER
10
14.539
20
15.234
30
0
0
VERTEX
8
RASTER
10
15.032
20
14.395
30
0
0
VERTEX
8
RASTER
10
15.432
20
13.995
30
0
0
VERTEX
8
RASTER
10
16.804
20
13.235
30
0
0
VERTEX
8
RASTER
10
17.204
20
13.102
30
0
0
VERTEX
8
RASTER
10
19.202
20
13.102
30
0
0
VERTEX
8
RASTER
10
20.002
20
13.369
30
0
0
VERTEX
8
RASTER
10
21.108
20
13.995
30
0
0
VERTEX
8
RASTER
10
21.507
20
14.395
30
0
0
VERTEX
8
RASTER
10
22.04
20
15.194
30
0
0
VERTEX
8
RASTER
10
22.533
20
16.433
30
0
0
VERTEX
8
RASTER
10
22.533
20
16.966
30
0
0
VERTEX
8
RASTER
10
22.667
20
17.233
30
0
0
VERTEX
8
RASTER
10
22.667
20
19.231
30
0
0
VERTEX
8
RASTER
10
22.267
20
20.697
30
0
0
VERTEX
8
RASTER
10
21.774
20
21.669
30
0
0
VERTEX
8
RASTER
10
21.108
20
22.602
30
0
0
VERTEX
8
RASTER
10
19.642
20
23.801
30
0
0
VERTEX
8
RASTER
10
17.337
20
24.827
30
0
0
SEQEND
8
RASTER
0
POLYLINE
8
RASTER
66
1
70
1
0
VERTEX
8
RASTER
10
23.959
20
22.522
30
0
0
VERTEX
8
RASTER
10
23.866
20
22.429
30
0
0
VERTEX
8
RASTER
10
24.532
20
20.297
30
0
0
VERTEX
8
RASTER
10
24.532
20
18.032
30
0
0
VERTEX
8
RASTER
10
23.999
20
16.3
30
0
0
VERTEX
8
RASTER
10
23.373
20
15.194
30
0
0
VERTEX
8
RASTER
10
23.026
20
14.874
30
0
0
VERTEX
8
RASTER
10
22.84
20
14.528
30
0
0
VERTEX
8
RASTER
10
21.907
20
13.728
30
0
0
VERTEX
8
RASTER
10
20.402
20
12.836
30
0
0
VERTEX
8
RASTER
10
19.069
20
12.436
30
0
0
VERTEX
8
RASTER
10
17.337
20
12.436
30
0
0
VERTEX
8
RASTER
10
16.405
20
12.702
30
0
0
VERTEX
8
RASTER
10
15.432
20
13.195
30
0
0
VERTEX
8
RASTER
10
14.899
20
13.595
30
0
0
VERTEX
8
RASTER
10
14.233
20
14.395
30
0
0
VERTEX
8
RASTER
10
13.74
20
15.9
30
0
0
VERTEX
8
RASTER
10
14.006
20
17.233
30
0
0
VERTEX
8
RASTER
10
14.499
20
18.072
30
0
0
VERTEX
8
RASTER
10
15.472
20
18.565
30
0
0
VERTEX
8
RASTER
10
16.671
20
18.565
30
0
0
VERTEX
8
RASTER
10
17.43
20
18.125
30
0
0
VERTEX
8
RASTER
10
17.644
20
17.805
30
0
0
VERTEX
8
RASTER
10
17.737
20
16.833
30
0
0
VERTEX
8
RASTER
10
17.204
20
16.3
30
0
0
VERTEX
8
RASTER
10
16.538
20
16.3
30
0
0
VERTEX
8
RASTER
10
16.045
20
16.526
30
0
0
VERTEX
8
RASTER
10
16.005
20
16.167
30
0
0
VERTEX
8
RASTER
10
16.231
20
15.727
30
0
0
VERTEX
8
RASTER
10
17.204
20
15.234
30
0
0
VERTEX
8
RASTER
10
17.87
20
15.367
30
0
0
VERTEX
8
RASTER
10
18.576
20
15.727
30
0
0
VERTEX
8
RASTER
10
18.976
20
16.127
30
0
0
VERTEX
8
RASTER
10
19.469
20
17.099
30
0
0
VERTEX
8
RASTER
10
19.602
20
17.499
30
0
0
VERTEX
8
RASTER
10
19.602
20
18.698
30
0
0
VERTEX
8
RASTER
10
19.242
20
19.671
30
0
0
VERTEX
8
RASTER
10
18.443
20
20.603
30
0
0
VERTEX
8
RASTER
10
17.337
20
21.23
30
0
0
VERTEX
8
RASTER
10
16.405
20
21.496
30
0
0
VERTEX
8
RASTER
10
14.672
20
21.496
30
0
0
VERTEX
8
RASTER
10
13.207
20
21.096
30
0
0
VERTEX
8
RASTER
10
12.234
20
20.603
30
0
0
VERTEX
8
RASTER
10
11.168
20
19.804
30
0
0
VERTEX
8
RASTER
10
10.369
20
18.738
30
0
0
VERTEX
8
RASTER
10
9.476
20
16.7
30
0
0
VERTEX
8
RASTER
10
9.343
20
16.033
30
0
0
VERTEX
8
RASTER
10
9.343
20
13.635
30
0
0
VERTEX
8
RASTER
10
9.743
20
12.303
30
0
0
VERTEX
8
RASTER
10
10.369
20
11.064
30
0
0
VERTEX
8
RASTER
10
11.035
20
10.131
30
0
0
VERTEX
8
RASTER
10
12.234
20
8.932
30
0
0
VERTEX
8
RASTER
10
14.273
20
7.773
30
0
0
VERTEX
8
RASTER
10
16.138
20
7.24
30
0
0
VERTEX
8
RASTER
10
18.403
20
7.24
30
0
0
VERTEX
8
RASTER
10
20.095
20
7.679
30
0
0
VERTEX
8
RASTER
10
19.336
20
7.773
30
0
0
VERTEX
8
RASTER
10
19.069
20
7.64
30
0
0
VERTEX
8
RASTER
10
18.403
20
7.64
30
0
0
VERTEX
8
RASTER
10
18.137
20
7.773
30
0
0
VERTEX
8
RASTER
10
16.538
20
7.906
30
0
0
VERTEX
8
RASTER
10
14.766
20
8.665
30
0
0
VERTEX
8
RASTER
10
13.433
20
9.598
30
0
0
VERTEX
8
RASTER
10
12.501
20
10.664
30
0
0
VERTEX
8
RASTER
10
11.741
20
12.17
30
0
0
VERTEX
8
RASTER
10
11.475
20
13.102
30
0
0
VERTEX
8
RASTER
10
11.382
20
14.075
30
0
0
VERTEX
8
RASTER
10
11.475
20
14.967
30
0
0
VERTEX
8
RASTER
10
11.701
20
15.46
30
0
0
VERTEX
8
RASTER
10
12.008
20
14.035
30
0
0
VERTEX
8
RASTER
10
12.9
20
12.396
30
0
0
VERTEX
8
RASTER
10
13.7
20
11.597
30
0
0
VERTEX
8
RASTER
10
15.205
20
10.704
30
0
0
VERTEX
8
RASTER
10
16.538
20
10.304
30
0
0
VERTEX
8
RASTER
10
18.403
20
10.171
30
0
0
VERTEX
8
RASTER
10
18.67
20
10.304
30
0
0
VERTEX
8
RASTER
10
19.869
20
10.437
30
0
0
VERTEX
8
RASTER
10
21.374
20
11.064
30
0
0
VERTEX
8
RASTER
10
22.573
20
11.863
30
0
0
VERTEX
8
RASTER
10
23.639
20
12.929
30
0
0
VERTEX
8
RASTER
10
24.932
20
15.234
30
0
0
VERTEX
8
RASTER
10
25.331
20
16.566
30
0
0
VERTEX
8
RASTER
10
25.331
20
17.099
30
0
0
VERTEX
8
RASTER
10
25.465
20
17.366
30
0
0
VERTEX
8
RASTER
10
25.331
20
19.364
30
0
0
VERTEX
8
RASTER
10
24.798
20
21.096
30
0
0
SEQEND
8
RASTER
0
POLYLINE
8
CUT
66
1
70
1
0
VERTEX
8
CUT
10
32.2
20
26.2
30
0
0
VERTEX
8
CUT
10
32.231
20
26.669
30
0
0
VERTEX
8
CUT
10
32.325
20
27.075
30
0
0
VERTEX
8
CUT
10
32.481
20
27.419
30
0
0
VERTEX
8
CUT
10
32.7
20
27.7
30
0
0
VERTEX
8
CUT
10
32.981
20
27.919
30
0
0
VERTEX
8
CUT
10
33.325
20
28.075
30
0
0
VERTEX
8
CUT
10
33.731
20
28.169
30
0
0
VERTEX
8
CUT
10
34.2
20
28.2
30
0
0
VERTEX
8
CUT
10
54.4
20
28.2
30
0
0
VERTEX
8
CUT
10
54.869
20
28.169
30
0
0
VERTEX
8
CUT
10
55.275
20
28.075
30
0
0
VERTEX
8
CUT
10
55.619
20
27.919
30
0
0
VERTEX
8
CUT
10
55.9
20
27.7
30
0
0
VERTEX
8
CUT
10
56.119
20
27.419
30
0
0
VERTEX
8
CUT
10
56.275
20
27.075
30
0
0
VERTEX
8
CUT
10
56.369
20
26.669
30
0
0
VERTEX
8
CUT
10
56.4
20
26.2
30
0
0
VERTEX
8
CUT
10
56.4
20
6
30
0
0
VERTEX
8
CUT
10
56.369
20
5.531
30
0
0
VERTEX
8
CUT
10
56.275
20
5.125
30
0
0
VERTEX
8
CUT
10
56.119
20
4.781
30
0
0
VERTEX
8
CUT
10
55.9
20
4.5
30
0
0
VERTEX
8
CUT
10
55.619
20
4.281
30
0
0
VERTEX
8
CUT
10
55.275
20
4.125
30
0
0
VERTEX
8
CUT
10
54.869
20
4.031
30
0
0
VERTEX
8
CUT
10
54.4
20
4
30
0
0
VERTEX
8
CUT
10
34.2
20
4
30
0
0
VERTEX
8
CUT
10
33.731
20
4.031
30
0
0
VERTEX
8
CUT
10
33.325
20
4.125
30
0
0
VERTEX
8
CUT
10
32.981
20
4.281
30
0
0
VERTEX
8
CUT
10
32.7
20
4.5
30
0
0
VERTEX
8
CUT
10
32.481
20
4.781
30
0
0
VERTEX
8
CUT
10
32.325
20
5.125
30
0
0
VERTEX
8
CUT
10
32.231
20
5.531
30
0
0
VERTEX
8
CUT
10
32.2
20
6
30
0
0
SEQEND
8
CUT
0
POLYLINE
8
RASTER
66
1
70
1
0
VERTEX
8
RASTER
10
42.379
20
25.586
30
0
0
VERTEX
8
RASTER
10
45.137
20
25.626
30
0
0
VERTEX
8
RASTER
10
46.87
20
25.093
30
0
0
VERTEX
8
RASTER
10
48.508
20
24.201
30
0
0
VERTEX
8
RASTER
10
49.974
20
22.868
30
0
0
VERTEX
8
RASTER
10
51.133
20
20.83
30
0
0
VERTEX
8
RASTER
10
51.533
20
19.231
30
0
0
VERTEX
8
RASTER
10
51.533
20
17.366
30
0
0
VERTEX
8
RASTER
10
51.266
20
16.433
30
0
0
VERTEX
8
RASTER
10
51.306
20
16.073
30
0
0
VERTEX
8
RASTER
10
51.799
20
16.966
30
0
0
VERTEX
8
RASTER
10
52.199
20
18.565
30
0
0
VERTEX
8
RASTER
10
52.199
20
19.764
30
0
0
VERTEX
8
RASTER
10
51.933
20
21.096
30
0
0
VERTEX
8
RASTER
10
51.4
20
22.562
30
0
0
VERTEX
8
RASTER
10
51.493
20
23.135
30
0
0
VERTEX
8
RASTER
10
51.933
20
23.361
30
0
0
VERTEX
8
RASTER
10
52.505
20
23.135
30
0
0
VERTEX
8
RASTER
10
52.905
20
22.602
30
0
0
VERTEX
8
RASTER
10
53.931
20
20.43
30
0
0
VERTEX
8
RASTER
10
54.198
20
19.231
30
0
0
VERTEX
8
RASTER
10
54.198
20
16.7
30
0
0
VERTEX
8
RASTER
10
53.798
20
15.101
30
0
0
VERTEX
8
RASTER
10
52.772
20
13.062
30
0
0
VERTEX
8
RASTER
10
52.372
20
12.529
30
0
0
VERTEX
8
RASTER
10
50.773
20
11.064
30
0
0
VERTEX
8
RASTER
10
48.868
20
10.038
30
0
0
VERTEX
8
RASTER
10
48.069
20
9.771
30
0
0
VERTEX
8
RASTER
10
45.937
20
9.505
30
0
0
VERTEX
8
RASTER
10
45.67
20
9.638
30
0
0
VERTEX
8
RASTER
10
44.738
20
9.638
30
0
0
VERTEX
8
RASTER
10
43.405
20
10.038
30
0
0
VERTEX
8
RASTER
10
42.166
20
10.664
30
0
0
VERTEX
8
RASTER
10
41.234
20
11.33
30
0
0
VERTEX
8
RASTER
10
41.047
20
11.677
30
0
0
VERTEX
8
RASTER
10
40.874
20
11.637
30
0
0
VERTEX
8
RASTER
10
41.367
20
10.797
30
0
0
VERTEX
8
RASTER
10
42.3
20
9.865
30
0
0
VERTEX
8
RASTER
10
43.499
20
9.065
30
0
0
VERTEX
8
RASTER
10
44.338
20
8.705
30
0
0
VERTEX
8
RASTER
10
45.804
20
8.306
30
0
0
VERTEX
8
RASTER
10
47.802
20
8.306
30
0
0
VERTEX
8
RASTER
10
48.069
20
8.439
30
0
0
VERTEX
8
RASTER
10
49.175
20
8.346
30
0
0
VERTEX
8
RASTER
10
49.401
20
7.906
30
0
0
VERTEX
8
RASTER
10
49.175
20
7.466
30
0
0
VERTEX
8
RASTER
10
47.935
20
6.84
30
0
0
VERTEX
8
RASTER
10
46.736
20
6.707
30
0
0
VERTEX
8
RASTER
10
46.47
20
6.574
30
0
0
VERTEX
8
RASTER
10
44.471
20
6.574
30
0
0
VERTEX
8
RASTER
10
42.473
20
7.107
30
0
0
VERTEX
8
RASTER
10
40.701
20
7.999
30
0
0
VERTEX
8
RASTER
10
39.901
20
8.532
30
0
0
VERTEX
8
RASTER
10
38.702
20
9.731
30
0
0
VERTEX
8
RASTER
10
37.903
20
10.93
30
0
0
VERTEX
8
RASTER
10
37.277
20
12.303
30
0
0
VERTEX
8
RASTER
10
36.877
20
13.768
30
0
0
VERTEX
8
RASTER
10
36.877
20
16.033
30
0
0
VERTEX
8
RASTER
10
37.01
20
16.7
30
0
0
VERTEX
8
RASTER
10
37.41
20
17.899
30
0
0
VERTEX
8
RASTER
10
38.302
20
19.537
30
0
0
VERTEX
8
RASTER
10
39.635
20
20.87
30
0
0
VERTEX
8
RASTER
10
41.274
20
21.763
30
0
0
VERTEX
8
RASTER
10
42.606
20
22.162
30
0
0
VERTEX
8
RASTER
10
44.471
20
22.162
30
0
0
VERTEX
8
RASTER
10
44.565
20
22.256
30
0
0
VERTEX
8
RASTER
10
43.272
20
22.562
30
0
0
VERTEX
8
RASTER
10
42.606
20
22.562
30
0
0
VERTEX
8
RASTER
10
41.274
20
22.295
30
0
0
VERTEX
8
RASTER
10
39.368
20
21.536
30
0
0
VERTEX
8
RASTER
10
38.302
20
20.87
30
0
0
VERTEX
8
RASTER
10
36.97
20
19.537
30
0
0
VERTEX
8
RASTER
10
36.077
20
18.032
30
0
0
VERTEX
8
RASTER
10
35.678
20
16.966
30
0
0
VERTEX
8
RASTER
10
35.544
20
16.167
30
0
0
VERTEX
8
RASTER
10
35.318
20
15.86
30
0
0
VERTEX
8
RASTER
10
35.145
20
15.767
30
0
0
VERTEX
8
RASTER
10
34.572
20
15.86
30
0
0
VERTEX
8
RASTER
10
34.212
20
16.566
30
0
0
VERTEX
8
RASTER
10
34.345
20
18.032
30
0
0
VERTEX
8
RASTER
10
34.878
20
19.764
30
0
0
VERTEX
8
RASTER
10
35.771
20
21.403
30
0
0
VERTEX
8
RASTER
10
36.704
20
22.602
30
0
0
VERTEX
8
RASTER
10
37.503
20
23.401
30
0
0
VERTEX
8
RASTER
10
38.835
20
24.334
30
0
0
VERTEX
8
RASTER
10
40.474
20
25.093
30
0
0
SEQEND
8
RASTER
0
POLYLINE
8
RASTER
66
1
70
1
0
VERTEX
8
RASTER
10
43.672
20
25.093
30
0
0
VERTEX
8
RASTER
10
43.405
20
24.96
30
0
0
VERTEX
8
RASTER
10
41.807
20
24.827
30
0
0
VERTEX
8
RASTER
10
40.208
20
24.294
30
0
0
VERTEX
8
RASTER
10
38.835
20
23.535
30
0
0
VERTEX
8
RASTER
10
37.77
20
22.735
30
0
0
VERTEX
8
RASTER
10
36.57
20
21.403
30
0
0
VERTEX
8
RASTER
10
35.544
20
19.631
30
0
0
VERTEX
8
RASTER
10
35.012
20
18.032
30
0
0
VERTEX
8
RASTER
10
34.878
20
16.7
30
0
0
VERTEX
8
RASTER
10
34.972
20
16.606
30
0
0
VERTEX
8
RASTER
10
35.145
20
16.966
30
0
0
VERTEX
8
RASTER
10
35.411
20
18.032
30
0
0
VERTEX
8
RASTER
10
36.037
20
19.271
30
0
0
VERTEX
8
RASTER
10
36.704
20
20.204
30
0
0
VERTEX
8
RASTER
10
37.77
20
21.27
30
0
0
VERTEX
8
RASTER
10
38.969
20
22.069
30
0
0
VERTEX
8
RASTER
10
40.341
20
22.695
30
0
0
VERTEX
8
RASTER
10
41.94
20
23.095
30
0
0
VERTEX
8
RASTER
10
43.805
20
23.095
30
0
0
VERTEX
8
RASTER
10
44.471
20
22.962
30
0
0
VERTEX
8
RASTER
10
45.271
20
22.695
30
0
0
VERTEX
8
RASTER
10
46.377
20
22.069
30
0
0
VERTEX
8
RASTER
10
47.309
20
21.136
30
0
0
VERTEX
8
RASTER
10
47.935
20
20.03
30
0
0
VERTEX
8
RASTER
10
48.202
20
19.231
30
0
0
VERTEX
8
RASTER
10
48.335
20
17.765
30
0
0
VERTEX
8
RASTER
10
48.069
20
16.833
30
0
0
VERTEX
8
RASTER
10
47.576
20
15.86
30
0
0
VERTEX
8
RASTER
10
46.91
20
15.194
30
0
0
VERTEX
8
RASTER
10
45.937
20
14.701
30
0
0
VERTEX
8
RASTER
10
45.004
20
14.701
30
0
0
VERTEX
8
RASTER
10
44.431
20
14.928
30
0
0
VERTEX
8
RASTER
10
43.898
20
15.327
30
0
0
VERTEX
8
RASTER
10
43.539
20
16.033
30
0
0
VERTEX
8
RASTER
10
43.539
20
16.433
30
0
0
VERTEX
8
RASTER
10
43.765
20
16.873
30
0
0
VERTEX
8
RASTER
10
44.072
20
17.099
30
0
0
VERTEX
8
RASTER
10
44.738
20
17.099
30
0
0
VERTEX
8
RASTER
10
45.231
20
16.873
30
0
0
VERTEX
8
RASTER
10
45.271
20
17.366
30
0
0
VERTEX
8
RASTER
10
44.911
20
17.805
30
0
0
VERTEX
8
RASTER
10
44.471
20
18.032
30
0
0
VERTEX
8
RASTER
10
43.938
20
18.032
30
0
0
VERTEX
8
RASTER
10
43.232
20
17.672
30
0
0
VERTEX
8
RASTER
10
42.739
20
16.966
30
0
0
VERTEX
8
RASTER
10
42.606
20
16.566
30
0
0
VERTEX
8
RASTER
10
42.606
20
15.634
30
0
0
VERTEX
8
RASTER
10
42.739
20
15.234
30
0
0
VERTEX
8
RASTER
10
43.232
20
14.395
30
0
0
VERTEX
8
RASTER
10
43.632
20
13.995
30
0
0
VERTEX
8
RASTER
10
45.004
20
13.235
30
0
0
VERTEX
8
RASTER
10
45.404
20
13.102
30
0
0
VERTEX
8
RASTER
10
47.402
20
13.102
30
0
0
VERTEX
8
RASTER
10
48.202
20
13.369
30
0
0
VERTEX
8
RASTER
10
49.308
20
13.995
30
0
0
VERTEX
8
RASTER
10
49.707
20
14.395
30
0
0
VERTEX
8
RASTER
10
50.24
20
15.194
30
0
0
VERTEX
8
RASTER
10
50.733
20
16.433
30
0
0
VERTEX
8
RASTER
10
50.733
20
16.966
30
0
0
VERTEX
8
RASTER
10
50.867
20
17.233
30
0
0
VERTEX
8
RASTER
10
50.867
20
19.231
30
0
0
VERTEX
8
RASTER
10
50.467
20
20.697
30
0
0
VERTEX
8
RASTER
10
49.974
20
21.669
30
0
0
VERTEX
8
RASTER
10
49.308
20
22.602
30
0
0
VERTEX
8
RASTER
10
47.842
20
23.801
30
0
0
VERTEX
8
RASTER
10
45.537
20
24.827
30
0
0
SEQEND
8
RASTER
0
POLYLINE
8
RASTER
66
1
70
1
0
VERTEX
8
RASTER
10
52.159
20
22.522
30
0
0
VERTEX
8
RASTER
10
52.066
20
22.429
30
0
0
VERTEX
8
RASTER
10
52.732
20
20.297
30
0
0
VERTEX
8
RASTER
10
52.732
20
18.032
30
0
0
VERTEX
8
RASTER
10
52.199
20
16.3
30
0
0
VERTEX
8
RASTER
10
51.573
20
15.194
30
0
0
VERTEX
8
RASTER
10
51.226
20
14.874
30
0
0
VERTEX
8
RASTER
10
51.04
20
14.528
30
0
0
VERTEX
8
RASTER
10
50.107
20
13.728
30
0
0
VERTEX
8
RASTER
10
48.602
20
12.836
30
0
0
VERTEX
8
RASTER
10
47.269
20
12.436
30
0
0
VERTEX
8
RASTER
10
45.537
20
12.436
30
0
0
VERTEX
8
RASTER
10
44.605
20
12.702
30
0
0
VERTEX
8
RASTER
10
43.632
20
13.195
30
0
0
VERTEX
8
RASTER
10
43.099
20
13.595
30
0
0
VERTEX
8
RASTER
10
42.433
20
14.395
30
0
0
VERTEX
8
RASTER
10
41.94
20
15.9
30
0
0
VERTEX
8
RASTER
10
42.206
20
17.233
30
0
0
VERTEX
8
RASTER
10
42.699
20
18.072
30
0
0
VERTEX
8
RASTER
10
43.672
20
18.565
30
0
0
VERTEX
8
RASTER
10
44.871
20
18.565
30
0
0
VERTEX
8
RASTER
10
45.63
20
18.125
30
0
0
VERTEX
8
RASTER
10
45.844
20
17.805
30
0
0
VERTEX
8
RASTER
10
45.937
20
16.833
30
0
0
VERTEX
8
RASTER
10
45.404
20
16.3
30
0
0
VERTEX
8
RASTER
10
44.738
20
16.3
30
0
0
VERTEX
8
RASTER
10
44.245
20
16.526
30
0
0
VERTEX
8
RASTER
10
44.205
20
16.167
30
0
0
VERTEX
8
RASTER
10
44.431
20
15.727
30
0
0
VERTEX
8
RASTER
10
45.404
20
15.234
30
0
0
VERTEX
8
RASTER
10
46.07
20
15.367
30
0
0
VERTEX
8
RASTER
10
46.776
20
15.727
30
0
0
VERTEX
8
RASTER
10
47.176
20
16.127
30
0
0
VERTEX
8
RASTER
10
47.669
20
17.099
30
0
0
VERTEX
8
RASTER
10
47.802
20
17.499
30
0
0
VERTEX
8
RASTER
10
47.802
20
18.698
30
0
0
VERTEX
8
RASTER
10
47.442
20
19.671
30
0
0
VERTEX
8
RASTER
10
46.643
20
20.603
30
0
0
VERTEX
8
RASTER
10
45.537
20
21.23
30
0
0
VERTEX
8
RASTER
10
44.605
20
21.496
30
0
0
VERTEX
8
RASTER
10
42.872
20
21.496
30
0
0
VERTEX
8
RASTER
10
41.407
20
21.096
30
0
0
VERTEX
8
RASTER
10
40.434
20
20.603
30
0
0
VERTEX
8
RASTER
10
39.368
20
19.804
30
0
0
VERTEX
8
RASTER
10
38.569
20
18.738
30
0
0
VERTEX
8
RASTER
10
37.676
20
16.7
30
0
0
VERTEX
8
RASTER
10
37.543
20
16.033
30
0
0
VERTEX
8
RASTER
10
37.543
20
13.635
30
0
0
VERTEX
8
RASTER
10
37.943
20
12.303
30
0
0
VERTEX
8
RASTER
10
38.569
20
11.064
30
0
0
VERTEX
8
RASTER
10
39.235
20
10.131
30
0
0
VERTEX
8
RASTER
10
40.434
20
8.932
30
0
0
VERTEX
8
RASTER
10
42.473
20
7.773
30
0
0
VERTEX
8
RASTER
10
44.338
20
7.24
30
0
0
VERTEX
8
RASTER
10
46.603
20
7.24
30
0
0
VERTEX
8
RASTER
10
48.295
20
7.679
30
0
0
VERTEX
8
RASTER
10
47.536
20
7.773
30
0
0
VERTEX
8
RASTER
10
47.269
20
7.64
30
0
0
VERTEX
8
RASTER
10
46.603
20
7.64
30
0
0
VERTEX
8
RASTER
10
46.337
20
7.773
30
0
0
VERTEX
8
RASTER
10
44.738
20
7.906
30
0
0
VERTEX
8
RASTER
10
42.966
20
8.665
30
0
0
VERTEX
8
RASTER
10
41.633
20
9.598
30
0
0
VERTEX
8
RASTER
10
40.701
20
10.664
30
0
0
VERTEX
8
RASTER
10
39.941
20
12.17
30
0
0
VERTEX
8
RASTER
10
39.675
20
13.102
30
0
0
VERTEX
8
RASTER
10
39.582
20
14.075
30
0
0
VERTEX
8
RASTER
10
39.675
20
14.967
30
0
0
VERTEX
8
RASTER
10
39.901
20
15.46
30
0
0
VERTEX
8
RASTER
10
40.208
20
14.035
30
0
0
VERTEX
8
RASTER
10
41.1
20
12.396
30
0
0
VERTEX
8
RASTER
10
41.9
20
11.597
30
0
0
VERTEX
8
RASTER
10
43.405
20
10.704
30
0
0
VERTEX
8
RASTER
10
44.738
20
10.304
30
0
0
VERTEX
8
RASTER
10
46.603
20
10.171
30
0
0
VERTEX
8
RASTER
10
46.87
20
10.304
30
0
0
VERTEX
8
RASTER
10
48.069
20
10.437
30
0
0
VERTEX
8
RASTER
10
49.574
20
11.064
30
0
0
VERTEX
8
RASTER
10
50.773
20
11.863
30
0
0
VERTEX
8
RASTER
10
51.839
20
12.929
30
0
0
VERTEX
8
RASTER
10
53.132
20
15.234
30
0
0
VERTEX
8
RASTER
10
53.531
20
16.566
30
0
0
VERTEX
8
RASTER
10
53.531
20
17.099
30
0
0
VERTEX
8
RASTER
10
53.665
20
17.366
30
0
0
VERTEX
8
RASTER
10
53.531
20
19.364
30
0
0
VERTEX
8
RASTER
10
52.998
20
21.096
30
0
0
SEQEND
8
RASTER
0
POLYLINE
8
CUT
66
1
70
1
0
VERTEX
8
CUT
10
60.4
20
26.2
30
0
0
VERTEX
8
CUT
10
60.431
20
26.669
30
0
0
VERTEX
8
CUT
10
60.525
20
27.075
30
0
0
VERTEX
8
CUT
10
60.681
20
27.419
30
0
0
VERTEX
8
CUT
10
60.9
20
27.7
30
0
0
VERTEX
8
CUT
10
61.181
20
27.919
30
0
0
VERTEX
8
CUT
10
61.525
20
28.075
30
0
0
VERTEX
8
CUT
10
61.931
20
28.169
30
0
0
VERTEX
8
CUT
10
62.4
20
28.2
30
0
0
VERTEX
8
CUT
10
82.6
20
28.2
30
0
0
VERTEX
8
CUT
10
83.069
20
28.169
30
0
0
VERTEX
8
CUT
10
83.475
20
28.075
30
0
0
VERTEX
8
CUT
10
83.819
20
27.919
30
0
0
VERTEX
8
CUT
10
84.1
20
27.7
30
0
0
VERTEX
8
CUT
10
84.319
20
27.419
30
0
0
VERTEX
8
CUT
10
84.475
20
27.075
30
0
0
VERTEX
8
CUT
10
84.569
20
26.669
30
0
0
VERTEX
8
CUT
10
84.6
20
26.2
30
0
0
VERTEX
8
CUT
10
84.6
20
6
30
0
0
VERTEX
8
CUT
10
84.569
20
5.531
30
0
0
VERTEX
8
CUT
10
84.475
20
5.125
30
0
0
VERTEX
8
CUT
10
84.319
20
4.781
30
0
0
VERTEX
8
CUT
10
84.1
20
4.5
30
0
0
VERTEX
8
CUT
10
83.819
20
4.281
30
0
0
VERTEX
8
CUT
10
83.475
20
4.125
30
0
0
VERTEX
8
CUT
10
83.069
20
4.031
30
0
0
VERTEX
8
CUT
10
82.6
20
4
30
0
0
VERTEX
8
CUT
10
62.4
20
4
30
0
0
VERTEX
8
CUT
10
61.931
20
4.031
30
0
0
VERTEX
8
CUT
10
61.525
20
4.125
30
0
0
VERTEX
8
CUT
10
61.181
20
4.281
30
0
0
VERTEX
8
CUT
10
60.9
20
4.5
30
0
0
VERTEX
8
CUT
10
60.681
20
4.781
30
0
0
VERTEX
8
CUT
10
60.525
20
5.125
30
0
0
VERTEX
8
CUT
10
60.431
20
5.531
30
0
0
VERTEX
8
CUT
10
60.4
20
6
30
0
0
SEQEND
8
CUT
0
POLYLINE
8
RASTER
66
1
70
1
0
VERTEX
8
RASTER
10
70.579
20
25.586
30
0
0
VERTEX
8
RASTER
10
73.337
20
25.626
30
0
0
VERTEX
8
RASTER
10
75.07
20
25.093
30
0
0
VERTEX
8
RASTER
10
76.708
20
24.201
30
0
0
VERTEX
8
RASTER
10
78.174
20
22.868
30
0
0
VERTEX
8
RASTER
10
79.333
20
20.83
30
0
0
VERTEX
8
RASTER
10
79.733
20
19.231
30
0
0
VERTEX
8
RASTER
10
79.733
20
17.366
30
0
0
VERTEX
8
RASTER
10
79.466
20
16.433
30
0
0
VERTEX
8
RASTER
10
79.506
20
16.073
30
0
0
VERTEX
8
RASTER
10
79.999
20
16.966
30
0
0
VERTEX
8
RASTER
10
80.399
20
18.565
30
0
0
VERTEX
8
RASTER
10
80.399
20
19.764
30
0
0
VERTEX
8
RASTER
10
80.133
20
21.096
30
0
0
VERTEX
8
RASTER
10
79.6
20
22.562
30
0
0
VERTEX
8
RASTER
10
79.693
20
23.135
30
0
0
VERTEX
8
RASTER
10
80.133
20
23.361
30
0
0
VERTEX
8
RASTER
10
80.705
20
23.135
30
0
0
VERTEX
8
RASTER
10
81.105
20
22.602
30
0
0
VERTEX
8
RASTER
10
82.131
20
20.43
30
0
0
VERTEX
8
RASTER
10
82.398
20
19.231
30
0
0
VERTEX
8
RASTER
10
82.398
20
16.7
30
0
0
VERTEX
8
RASTER
10
81.998
20
15.101
30
0
0
VERTEX
8
RASTER
10
80.972
20
13.062
30
0
0
VERTEX
8
RASTER
10
80.572
20
12.529
30
0
0
VERTEX
8
RASTER
10
78.973
20
11.064
30
0
0
VERTEX
8
RASTER
10
77.068
20
10.038
30
0
0
VERTEX
8
RASTER
10
76.269
20
9.771
30
0
0
VERTEX
8
RASTER
10
74.137
20
9.505
30
0
0
VERTEX
8
RASTER
10
73.87
20
9.638
30
0
0
VERTEX
8
RASTER
10
72.938
20
9.638
30
0
0
VERTEX
8
RASTER
10
71.605
20
10.038
30
0
0
VERTEX
8
RASTER
10
70.366
20
10.664
30
0
0
VERTEX
8
RASTER
10
69.434
20
11.33
30
0
0
VERTEX
8
RASTER
10
69.247
20
11.677
30
0
0
VERTEX
8
RASTER
10
69.074
20
11.637
30
0
0
VERTEX
8
RASTER
10
69.567
20
10.797
30
0
0
VERTEX
8
RASTER
10
70.5
20
9.865
30
0
0
VERTEX
8
RASTER
10
71.699
20
9.065
30
0
0
VERTEX
8
RASTER
10
72.538
20
8.705
30
0
0
VERTEX
8
RASTER
10
74.004
20
8.306
30
0
0
VERTEX
8
RASTER
10
76.002
20
8.306
30
0
0
VERTEX
8
RASTER
10
76.269
20
8.439
30
0
0
VERTEX
8
RASTER
10
77.375
20
8.346
30
0
0
VERTEX
8
RASTER
10
77.601
20
7.906
30
0
0
VERTEX
8
RASTER
10
77.375
20
7.466
30
0
0
VERTEX
8
RASTER
10
76.135
20
6.84
30
0
0
VERTEX
8
RASTER
10
74.936
20
6.707
30
0
0
VERTEX
8
RASTER
10
74.67
20
6.574
30
0
0
VERTEX
8
RASTER
10
72.671
20
6.574
30
0
0
VERTEX
8
RASTER
10
70.673
20
7.107
30
0
0
VERTEX
8
RASTER
10
68.901
20
7.999
30
0
0
VERTEX
8
RASTER
10
68.101
20
8.532
30
0
0
VERTEX
8
RASTER
10
66.902
20
9.731
30
0
0
VERTEX
8
RASTER
10
66.103
20
10.93
30
0
0
VERTEX
8
RASTER
10
65.477
20
12.303
30
0
0
VERTEX
8
RASTER
10
65.077
20
13.768
30
0
0
VERTEX
8
RASTER
10
65.077
20
16.033
30
0
0
VERTEX
8
RASTER
10
65.21
20
16.7
30
0
0
VERTEX
8
RASTER
10
65.61
20
17.899
30
0
0
VERTEX
8
RASTER
10
66.502
20
19.537
30
0
0
VERTEX
8
RASTER
10
67.835
20
20.87
30
0
0
VERTEX
8
RASTER
10
69.474
20
21.763
30
0
0
VERTEX
8
RASTER
10
70.806
20
22.162
30
0
0
VERTEX
8
RASTER
10
72.671
20
22.162
30
0
0
VERTEX
8
RASTER
10
72.765
20
22.256
30
0
0
VERTEX
8
RASTER
10
71.472
20
22.562
30
0
0
VERTEX
8
RASTER
10
70.806
20
22.562
30
0
0
VERTEX
8
RASTER
10
69.474
20
22.295
30
0
0
VERTEX
8
RASTER
10
67.568
20
21.536
30
0
0
VERTEX
8
RASTER
10
66.502
20
20.87
30
0
0
VERTEX
8
RASTER
10
65.17
20
19.537
30
0
0
VERTEX
8
RASTER
10
64.277
20
18.032
30
0
0
VERTEX
8
RASTER
10
63.878
20
16.966
30
0
0
VERTEX
8
RASTER
10
63.744
20
16.167
30
0
0
VERTEX
8
RASTER
10
63.518
20
15.86
30
0
0
VERTEX
8
RASTER
10
63.345
20
15.767
30
0
0
VERTEX
8
RASTER
10
62.772
20
15.86
30
0
0
VERTEX
8
RASTER
10
62.412
20
16.566
30
0
0
VERTEX
8
RASTER
10
62.545
20
18.032
30
0
0
VERTEX
8
RASTER
10
63.078
20
19.764
30
0
0
VERTEX
8
RASTER
10
63.971
20
21.403
30
0
0
VERTEX
8
RASTER
10
64.904
20
22.602
30
0
0
VERTEX
8
RASTER
10
65.703
20
23.401
30
0
0
VERTEX
8
RASTER
10
67.035
20
24.334
30
0
0
VERTEX
8
RASTER
10
68.674
20
25.093
30
0
0
SEQEND
8
RASTER
0
POLYLINE
8
RASTER
66
1
70
1
0
VERTEX
8
RASTER
10
71.872
20
25.093
30
0
0
VERTEX
8
RASTER
10
71.605
20
24.96
30
0
0
VERTEX
8
RASTER
10
70.007
20
24.827
30
0
0
VERTEX
8
RASTER
10
68.408
20
24.294
30
0
0
VERTEX
8
RASTER
10
67.035
20
23.535
30
0
0
VERTEX
8
RASTER
10
65.97
20
22.735
30
0
0
VERTEX
8
RASTER
10
64.77
20
21.403
30
0
0
VERTEX
8
RASTER
10
63.744
20
19.631
30
0
0
VERTEX
8
RASTER
10
63.212
20
18.032
30
0
0
VERTEX
8
RASTER
10
63.078
20
16.7
30
0
0
VERTEX
8
RASTER
10
63.172
20
16.606
30
0
0
VERTEX
8
RASTER
10
63.345
20
16.966
30
0
0
VERTEX
8
RASTER
10
63.611
20
18.032
30
0
0
VERTEX
8
RASTER
10
64.237
20
19.271
30
0
0
VERTEX
8
RASTER
10
64.904
20
20.204
30
0
0
VERTEX
8
RASTER
10
65.97
20
21.27
30
0
0
VERTEX
8
RASTER
10
67.169
20
22.069
30
0
0
VERTEX
8
RASTER
10
68.541
20
22.695
30
0
0
VERTEX
8
RASTER
10
70.14
20
23.095
30
0
0
VERTEX
8
RASTER
10
72.005
20
23.095
30
0
0
VERTEX
8
RASTER
10
72.671
20
22.962
30
0
0
VERTEX
8
RASTER
10
73.471
20
22.695
30
0
0
VERTEX
8
RASTER
10
74.577
20
22.069
30
0
0
VERTEX
8
RASTER
10
75.509
20
21.136
30
0
0
VERTEX
8
RASTER
10
76.135
20
20.03
30
0
0
VERTEX
8
RASTER
10
76.402
20
19.231
30
0
0
VERTEX
8
RASTER
10
76.535
20
17.765
30
0
0
VERTEX
8
RASTER
10
76.269
20
16.833
30
0
0
VERTEX
8
RASTER
10
75.776
20
15.86
30
0
0
VERTEX
8
RASTER
10
75.11
20
15.194
30
0
0
VERTEX
8
RASTER
10
74.137
20
14.701
30
0
0
VERTEX
8
RASTER
10
73.204
20
14.701
30
0
0
VERTEX
8
RASTER
10
72.631
20
14.928
30
0
0
VERTEX
8
RASTER
10
72.098
20
15.327
30
0
0
VERTEX
8
RASTER
10
71.739
20
16.033
30
0
0
VERTEX
8
RASTER
10
71.739
20
16.433
30
0
0
VERTEX
8
RASTER
10
71.965
20
16.873
30
0
0
VERTEX
8
RASTER
10
72.272
20
17.099
30
0
0
VERTEX
8
RASTER
10
72.938
20
17.099
30
0
0
VERTEX
8
RASTER
10
73.431
20
16.873
30
0
0
VERTEX
8
RASTER
10
73.471
20
17.366
30
0
0
VERTEX
8
RASTER
10
73.111
20
17.805
30
0
0
VERTEX
8
RASTER
10
72.671
20
18.032
30
0
0
VERTEX
8
RASTER
10
72.138
20
18.032
30
0
0
VERTEX
8
RASTER
10
71.432
20
17.672
30
0
0
VERTEX
8
RASTER
10
70.939
20
16.966
30
0
0
VERTEX
8
RASTER
10
70.806
20
16.566
30
0
0
VERTEX
8
RASTER
10
70.806
20
15.634
30
0
0
VERTEX
8
RASTER
10
70.939
20
15.234
30
0
0
VERTEX
8
RASTER
10
71.432
20
14.395
30
0
0
VERTEX
8
RASTER
10
71.832
20
13.995
30
0
0
VERTEX
8
RASTER
10
73.204
20
13.235
30
0
0
VERTEX
8
RASTER
10
73.604
20
13.102
30
0
0
VERTEX
8
RASTER
10
75.602
20
13.102
30
0
0
VERTEX
8
RASTER
10
76.402
20
13.369
30
0
0
VERTEX
8
RASTER
10
77.508
20
13.995
30
0
0
VERTEX
8
RASTER
10
77.907
20
14.395
30
0
0
VERTEX
8
RASTER
10
78.44
20
15.194
30
0
0
VERTEX
8
RASTER
10
78.933
20
16.433
30
0
0
VERTEX
8
RASTER
10
78.933
20
16.966
30
0
0
VERTEX
8
RASTER
10
79.067
20
17.233
30
0
0
VERTEX
8
RASTER
10
79.067
20
19.231
30
0
0
VERTEX
8
RASTER
10
78.667
20
20.697
30
0
0
VERTEX
8
RASTER
10
78.174
20
21.669
30
0
0
VERTEX
8
RASTER
10
77.508
20
22.602
30
0
0
VERTEX
8
RASTER
10
76.042
20
23.801
30
0
0
VERTEX
8
RASTER
10
73.737
20
24.827
30
0
0
SEQEND
8
RASTER
0
POLYLINE
8
RASTER
66
1
70
1
0
VERTEX
8
RASTER
10
80.359
20
22.522
30
0
0
VERTEX
8
RASTER
10
80.266
20
22.429
30
0
0
VERTEX
8
RASTER
10
80.932
20
20.297
30
0
0
VERTEX
8
RASTER
10
80.932
20
18.032
30
0
0
VERTEX
8
RASTER
10
80.399
20
16.3
30
0
0
VERTEX
8
RASTER
10
79.773
20
15.194
30
0
0
VERTEX
8
RASTER
10
79.426
20
14.874
30
0
0
VERTEX
8
RASTER
10
79.24
20
14.528
30
0
0
VERTEX
8
RASTER
10
78.307
20
13.728
30
0
0
VERTEX
8
RASTER
10
76.802
20
12.836
30
0
0
VERTEX
8
RASTER
10
75.469
20
12.436
30
0
0
VERTEX
8
RASTER
10
73.737
20
12.436
30
0
0
VERTEX
8
RASTER
10
72.805
20
12.702
30
0
0
VERTEX
8
RASTER
10
71.832
20
13.195
30
0
0
VERTEX
8
RASTER
10
71.299
20
13.595
30
0
0
VERTEX
8
RASTER
10
70.633
20
14.395
30
0
0
VERTEX
8
RASTER
10
70.14
20
15.9
30
0
0
VERTEX
8
RASTER
10
70.406
20
17.233
30
0
0
VERTEX
8
RASTER
10
70.899
20
18.072
30
0
0
VERTEX
8
RASTER
10
71.872
20
18.565
30
0
0
VERTEX
8
RASTER
10
73.071
20
18.565
30
0
0
VERTEX
8
RASTER
10
73.83
20
18.125
30
0
0
VERTEX
8
RASTER
10
74.044
20
17.805
30
0
0
VERTEX
8
RASTER
10
74.137
20
16.833
30
0
0
VERTEX
8
RASTER
10
73.604
20
16.3
30
0
0
VERTEX
8
RASTER
10
72.938
20
16.3
30
0
0
VERTEX
8
RASTER
10
72.445
20
16.526
30
0
0
VERTEX
8
RASTER
10
72.405
20
16.167
30
0
0
VERTEX
8
RASTER
10
72.631
20
15.727
30
0
0
VERTEX
8
RASTER
10
73.604
20
15.234
30
0
0
VERTEX
8
RASTER
10
74.27
20
15.367
30
0
0
VERTEX
8
RASTER
10
74.976
20
15.727
30
0
0
VERTEX
8
RASTER
10
75.376
20
16.127
30
0
0
VERTEX
8
RASTER
10
75.869
20
17.099
30
0
0
VERTEX
8
RASTER
10
76.002
20
17.499
30
0
0
VERTEX
8
RASTER
10
76.002
20
18.698
30
0
0
VERTEX
8
RASTER
10
75.642
20
19.671
30
0
0
VERTEX
8
RASTER
10
74.843
20
20.603
30
0
0
VERTEX
8
RASTER
10
73.737
20
21.23
30
0
0
VERTEX
8
RASTER
10
72.805
20
21.496
30
0
0
VERTEX
8
RASTER
10
71.072
20
21.496
30
0
0
VERTEX
8
RASTER
10
69.607
20
21.096
30
0
0
VERTEX
8
RASTER
10
68.634
20
20.603
30
0
0
VERTEX
8
RASTER
10
67.568
20
19.804
30
0
0
VERTEX
8
RASTER
10
66.769
20
18.738
30
0
0
VERTEX
8
RASTER
10
65.876
20
16.7
30
0
0
VERTEX
8
RASTER
10
65.743
20
16.033
30
0
0
VERTEX
8
RASTER
10
65.743
20
13.635
30
0
0
VERTEX
8
RASTER
10
66.143
20
12.303
30
0
0
VERTEX
8
RASTER
10
66.769
20
11.064
30
0
0
VERTEX
8
RASTER
10
67.435
20
10.131
30
0
0
VERTEX
8
RASTER
10
68.634
20
8.932
30
0
0
VERTEX
8
RASTER
10
70.673
20
7.773
30
0
0
VERTEX
8
RASTER
10
72.538
20
7.24
30
0
0
VERTEX
8
RASTER
10
74.803
20
7.24
30
0
0
VERTEX
8
RASTER
10
76.495
20
7.679
30
0
0
VERTEX
8
RASTER
10
75.736
20
7.773
30
0
0
VERTEX
8
RASTER
10
75.469
20
7.64
30
0
0
VERTEX
8
RASTER
10
74.803
20
7.64
30
0
0
VERTEX
8
RASTER
10
74.537
20
7.773
30
0
0
VERTEX
8
RASTER
10
72.938
20
7.906
30
0
0
VERTEX
8
RASTER
10
71.166
20
8.665
30
0
0
VERTEX
8
RASTER
10
69.833
20
9.598
30
0
0
VERTEX
8
RASTER
10
68.901
20
10.664
30
0
0
VERTEX
8
RASTER
10
68.141
20
12.17
30
0
0
VERTEX
8
RASTER
10
67.875
20
13.102
30
0
0
VERTEX
8
RASTER
10
67.782
20
14.075
30
0
0
VERTEX
8
RASTER
10
67.875
20
14.967
30
0
0
VERTEX
8
RASTER
10
68.101
20
15.46
30
0
0
VERTEX
8
RASTER
10
68.408
20
14.035
30
0
0
VERTEX
8
RASTER
10
69.3
20
12.396
30
0
0
VERTEX
8
RASTER
10
70.1
20
11.597
30
0
0
VERTEX
8
RASTER
10
71.605
20
10.704
30
0
0
VERTEX
8
RASTER
10
72.938
20
10.304
30
0
0
VERTEX
8
RASTER
10
74.803
20
10.171
30
0
0
VERTEX
8
RASTER
10
75.07
20
10.304
30
0
0
VERTEX
8
RASTER
10
76.269
20
10.437
30
0
0
VERTEX
8
RASTER
10
77.774
20
11.064
30
0
0
VERTEX
8
RASTER
10
78.973
20
11.863
30
0
0
VERTEX
8
RASTER
10
80.039
20
12.929
30
0
0
VERTEX
8
RASTER
10
81.332
20
15.234
30
0
0
VERTEX
8
RASTER
10
81.731
20
16.566
30
0
0
VERTEX
8
RASTER
10
81.731
20
17.099
30
0
0
VERTEX
8
RASTER
10
81.865
20
17.366
30
0
0
VERTEX
8
RASTER
10
81.731
20
19.364
30
0
0
VERTEX
8
RASTER
10
81.198
20
21.096
30
0
0
SEQEND
8
RASTER
0
POLYLINE
8
CUT
66
1
70
1
0
VERTEX
8
CUT
10
88.6
20
26.2
30
0
0
VERTEX
8
CUT
10
88.631
20
26.669
30
0
0
VERTEX
8
CUT
10
88.725
20
27.075
30
0
0
VERTEX
8
CUT
10
88.881
20
27.419
30
0
0
VERTEX
8
CUT
10
89.1
20
27.7
30
0
0
VERTEX
8
CUT
10
89.381
20
27.919
30
0
0
VERTEX
8
CUT
10
89.725
20
28.075
30
0
0
VERTEX
8
CUT
10
90.131
20
28.169
30
0
0
VERTEX
8
CUT
10
90.6
20
28.2
30
0
0
VERTEX
8
CUT
10
110.8
20
28.2
30
0
0
VERTEX
8
CUT
10
111.269
20
28.169
30
0
0
VERTEX
8
CUT
10
111.675
20
28.075
30
0
0
VERTEX
8
CUT
10
112.019
20
27.919
30
0
0
VERTEX
8
CUT
10
112.3
20
27.7
30
0
0
VERTEX
8
CUT
10
112.519
20
27.419
30
0
0
VERTEX
8
CUT
10
112.675
20
27.075
30
0
0
VERTEX
8
CUT
10
112.769
20
26.669
30
0
0
VERTEX
8
CUT
10
112.8
20
26.2
30
0
0
VERTEX
8
CUT
10
112.8
20
6
30
0
0
VERTEX
8
CUT
10
112.769
20
5.531
30
0
0
VERTEX
8
CUT
10
112.675
20
5.125
30
0
0
VERTEX
8
CUT
10
112.519
20
4.781
30
0
0
VERTEX
8
CUT
10
112.3
20
4.5
30
0
0
VERTEX
8
CUT
10
112.019
20
4.281
30
0
0
VERTEX
8
CUT
10
111.675
20
4.125
30
0
0
VERTEX
8
CUT
10
111.269
20
4.031
30
0
0
VERTEX
8
CUT
10
110.8
20
4
30
0
0
VERTEX
8
CUT
10
90.6
20
4
30
0
0
VERTEX
8
CUT
10
90.131
20
4.031
30
0
0
VERTEX
8
CUT
10
89.725
20
4.125
30
0
0
VERTEX
8
CUT
10
89.381
20
4.281
30
0
0
VERTEX
8
CUT
10
89.1
20
4.5
30
0
0
VERTEX
8
CUT
10
88.881
20
4.781
30
0
0
VERTEX
8
CUT
10
88.725
20
5.125
30
0
0
VERTEX
8
CUT
10
88.631
20
5.531
30
0
0
VERTEX
8
CUT
10
88.6
20
6
30
0
0
SEQEND
8
CUT
0
POLYLINE
8
RASTER
66
1
70
1
0
VERTEX
8
RASTER
10
98.779
20
25.586
30
0
0
VERTEX
8
RASTER
10
101.537
20
25.626
30
0
0
VERTEX
8
RASTER
10
103.27
20
25.093
30
0
0
VERTEX
8
RASTER
10
104.908
20
24.201
30
0
0
VERTEX
8
RASTER
10
106.374
20
22.868
30
0
0
VERTEX
8
RASTER
10
107.533
20
20.83
30
0
0
VERTEX
8
RASTER
10
107.933
20
19.231
30
0
0
VERTEX
8
RASTER
10
107.933
20
17.366
30
0
0
VERTEX
8
RASTER
10
107.666
20
16.433
30
0
0
VERTEX
8
RASTER
10
107.706
20
16.073
30
0
0
VERTEX
8
RASTER
10
108.199
20
16.966
30
0
0
VERTEX
8
RASTER
10
108.599
20
18.565
30
0
0
VERTEX
8
RASTER
10
108.599
20
19.764
30
0
0
VERTEX
8
RASTER
10
108.333
20
21.096
30
0
0
VERTEX
8
RASTER
10
107.8
20
22.562
30
0
0
VERTEX
8
RASTER
10
107.893
20
23.135
30
0
0
VERTEX
8
RASTER
10
108.333
20
23.361
30
0
0
VERTEX
8
RASTER
10
108.905
20
23.135
30
0
0
VERTEX
8
RASTER
10
109.305
20
22.602
30
0
0
VERTEX
8
RASTER
10
110.331
20
20.43
30
0
0
VERTEX
8
RASTER
10
110.598
20
19.231
30
0
0
VERTEX
8
RASTER
10
110.598
20
16.7
30
0
0
VERTEX
8
RASTER
10
110.198
20
15.101
30
0
0
VERTEX
8
RASTER
10
109.172
20
13.062
30
0
0
VERTEX
8
RASTER
10
108.772
20
12.529
30
0
0
VERTEX
8
RASTER
10
107.173
20
11.064
30
0
0
VERTEX
8
RASTER
10
105.268
20
10.038
30
0
0
VERTEX
8
RASTER
10
104.469
20
9.771
30
0
0
VERTEX
8
RASTER
10
102.337
20
9.505
30
0
0
VERTEX
8
RASTER
10
102.07
20
9.638
30
0
0
VERTEX
8
RASTER
10
101.138
20
9.638
30
0
0
VERTEX
8
RASTER
10
99.805
20
10.038
30
0
0
VERTEX
8
RASTER
10
98.566
20
10.664
30
0
0
VERTEX
8
RASTER
10
97.634
20
11.33
30
0
0
VERTEX
8
RASTER
10
97.447
20
11.677
30
0
0
VERTEX
8
RASTER
10
97.274
20
11.637
30
0
0
VERTEX
8
RASTER
10
97.767
20
10.797
30
0
0
VERTEX
8
RASTER
10
98.7
20
9.865
30
0
0
VERTEX
8
RASTER
10
99.899
20
9.065
30
0
0
VERTEX
8
RASTER
10
100.738
20
8.705
30
0
0
VERTEX
8
RASTER
10
102.204
20
8.306
30
0
0
VERTEX
8
RASTER
10
104.202
20
8.306
30
0
0
VERTEX
8
RASTER
10
104.469
20
8.439
30
0
0
VERTEX
8
RASTER
10
105.575
20
8.346
30
0
0
VERTEX
8
RASTER
10
105.801
20
7.906
30
0
0
VERTEX
8
RASTER
10
105.575
20
7.466
30
0
0
VERTEX
8
RASTER
10
104.335
20
6.84
30
0
0
VERTEX
8
RASTER
10
103.136
20
6.707
30
0
0
VERTEX
8
RASTER
10
102.87
20
6.574
30
0
0
VERTEX
8
RASTER
10
100.871
20
6.574
30
0
0
VERTEX
8
RASTER
10
98.873
20
7.107
30
0
0
VERTEX
8
RASTER
10
97.101
20
7.999
30
0
0
VERTEX
8
RASTER
10
96.301
20
8.532
30
0
0
VERTEX
8
RASTER
10
95.102
20
9.731
30
0
0
VERTEX
8
RASTER
10
94.303
20
10.93
30
0
0
VERTEX
8
RASTER
10
93.677
20
12.303
30
0
0
VERTEX
8
RASTER
10
93.277
20
13.768
30
0
0
VERTEX
8
RASTER
10
93.277
20
16.033
30
0
0
VERTEX
8
RASTER
10
93.41
20
16.7
30
0
0
VERTEX
8
RASTER
10
93.81
20
17.899
30
0
0
VERTEX
8
RASTER
10
94.702
20
19.537
30
0
0
VERTEX
8
RASTER
10
96.035
20
20.87
30
0
0
VERTEX
8
RASTER
10
97.674
20
21.763
30
0
0
VERTEX
8
RASTER
10
99.006
20
22.162
30
0
0
VERTEX
8
RASTER
10
100.871
20
22.162
30
0
0
VERTEX
8
RASTER
10
100.965
20
22.256
30
0
0
VERTEX
8
RASTER
10
99.672
20
22.562
30
0
0
VERTEX
8
RASTER
10
99.006
20
22.562
30
0
0
VERTEX
8
RASTER
10
97.674
20
22.295
30
0
0
VERTEX
8
RASTER
10
95.768
20
21.536
30
0
0
VERTEX
8
RASTER
10
94.702
20
20.87
30
0
0
VERTEX
8
RASTER
10
93.37
20
19.537
30
0
0
VERTEX
8
RASTER
10
92.477
20
18.032
30
0
0
VERTEX
8
RASTER
10
92.078
20
16.966
30
0
0
VERTEX
8
RASTER
10
91.944
20
16.167
30
0
0
VERTEX
8
RASTER
10
91.718
20
15.86
30
0
0
VERTEX
8
RASTER
10
91.545
20
15.767
30
0
0
VERTEX
8
RASTER
10
90.972
20
15.86
30
0
0
VERTEX
8
RASTER
10
90.612
20
16.566
30
0
0
VERTEX
8
RASTER
10
90.745
20
18.032
30
0
0
VERTEX
8
RASTER
10
91.278
20
19.764
30
0
0
VERTEX
8
RASTER
10
92.171
20
21.403
30
0
0
VERTEX
8
RASTER
10
93.104
20
22.602
30
0
0
VERTEX
8
RASTER
10
93.903
20
23.401
30
0
0
VERTEX
8
RASTER
10
95.235
20
24.334
30
0
0
VERTEX
8
RASTER
10
96.874
20
25.093
30
0
0
SEQEND
8
RASTER
0
POLYLINE
8
RASTER
66
1
70
1
0
VERTEX
8
RASTER
10
100.072
20
25.093
30
0
0
VERTEX
8
RASTER
10
99.805
20
24.96
30
0
0
VERTEX
8
RASTER
10
98.207
20
24.827
30
0
0
VERTEX
8
RASTER
10
96.608
20
24.294
30
0
0
VERTEX
8
RASTER
10
95.235
20
23.535
30
0
0
VERTEX
8
RASTER
10
94.17
20
22.735
30
0
0
VERTEX
8
RASTER
10
92.97
20
21.403
30
0
0
VERTEX
8
RASTER
10
91.944
20
19.631
30
0
0
VERTEX
8
RASTER
10
91.412
20
18.032
30
0
0
VERTEX
8
RASTER
10
91.278
20
16.7
30
0
0
VERTEX
8
RASTER
10
91.372
20
16.606
30
0
0
VERTEX
8
RASTER
10
91.545
20
16.966
30
0
0
VERTEX
8
RASTER
10
91.811
20
18.032
30
0
0
VERTEX
8
RASTER
10
92.437
20
19.271
30
0
0
VERTEX
8
RASTER
10
93.104
20
20.204
30
0
0
VERTEX
8
RASTER
10
94.17
20
21.27
30
0
0
VERTEX
8
RASTER
10
95.369
20
22.069
30
0
0
VERTEX
8
RASTER
10
96.741
20
22.695
30
0
0
VERTEX
8
RASTER
10
98.34
20
23.095
30
0
0
VERTEX
8
RASTER
10
100.205
20
23.095
30
0
0
VERTEX
8
RASTER
10
100.871
20
22.962
30
0
0
VERTEX
8
RASTER
10
101.671
20
22.695
30
0
0
VERTEX
8
RASTER
10
102.777
20
22.069
30
0
0
VERTEX
8
RASTER
10
103.709
20
21.136
30
0
0
VERTEX
8
RASTER
10
104.335
20
20.03
30
0
0
VERTEX
8
RASTER
10
104.602
20
19.231
30
0
0
VERTEX
8
RASTER
10
104.735
20
17.765
30
0
0
VERTEX
8
RASTER
10
104.469
20
16.833
30
0
0
VERTEX
8
RASTER
10
103.976
20
15.86
30
0
0
VERTEX
8
RASTER
10
103.31
20
15.194
30
0
0
VERTEX
8
RASTER
10
102.337
20
14.701
30
0
0
VERTEX
8
RASTER
10
101.404
20
14.701
30
0
0
VERTEX
8
RASTER
10
100.831
20
14.928
30
0
0
VERTEX
8
RASTER
10
100.298
20
15.327
30
0
0
VERTEX
8
RASTER
10
99.939
20
16.033
30
0
0
VERTEX
8
RASTER
10
99.939
20
16.433
30
0
0
VERTEX
8
RASTER
10
100.165
20
16.873
30
0
0
VERTEX
8
RASTER
10
100.472
20
17.099
30
0
0
VERTEX
8
RASTER
10
101.138
20
17.099
30
0
0
VERTEX
8
RASTER
10
101.631
20
16.873
30
0
0
VERTEX
8
RASTER
10
101.671
20
17.366
30
0
0
VERTEX
8
RASTER
10
101.311
20
17.805
30
0
0
VERTEX
8
RASTER
10
100.871
20
18.032
30
0
0
VERTEX
8
RASTER
10
100.338
20
18.032
30
0
0
VERTEX
8
RASTER
10
99.632
20
17.672
30
0
0
VERTEX
8
RASTER
10
99.139
20
16.966
30
0
0
VERTEX
8
RASTER
10
99.006
20
16.566
30
0
0
VERTEX
8
RASTER
10
99.006
20
15.634
30
0
0
VERTEX
8
RASTER
10
99.139
20
15.234
30
0
0
VERTEX
8
RASTER
10
99.632
20
14.395
30
0
0
VERTEX
8
RASTER
10
100.032
20
13.995
30
0
0
VERTEX
8
RASTER
10
101.404
20
13.235
30
0
0
VERTEX
8
RASTER
10
101.804
20
13.102
30
0
0
VERTEX
8
RASTER
10
103.802
20
13.102
30
0
0
VERTEX
8
RASTER
10
104.602
20
13.369
30
0
0
VERTEX
8
RASTER
10
105.708
20
13.995
30
0
0
VERTEX
8
RASTER
10
106.107
20
14.395
30
0
0
VERTEX
8
RASTER
10
106.64
20
15.194
30
0
0
VERTEX
8
RASTER
10
107.133
20
16.433
30
0
0
VERTEX
8
RASTER
10
107.133
20
16.966
30
0
0
VERTEX
8
RASTER
10
107.267
20
17.233
30
0
0
VERTEX
8
RASTER
10
107.267
20
19.231
30
0
0
VERTEX
8
RASTER
10
106.867
20
20.697
30
0
0
VERTEX
8
RASTER
10
106.374
20
21.669
30
0
0
VERTEX
8
RASTER
10
105.708
20
22.602
30
0
0
VERTEX
8
RASTER
10
104.242
20
23.801
30
0
0
VERTEX
8
RASTER
10
101.937
20
24.827
30
0
0
SEQEND
8
RASTER
0
POLYLINE
8
RASTER
66
1
70
1
0
VERTEX
8
RASTER
10
108.559
20
22.522
30
0
0
VERTEX
8
RASTER
10
108.466
20
22.429
30
0
0
VERTEX
8
RASTER
10
109.132
20
20.297
30
0
0
VERTEX
8
RASTER
10
109.132
20
18.032
30
0
0
VERTEX
8
RASTER
10
108.599
20
16.3
30
0
0
VERTEX
8
RASTER
10
107.973
20
15.194
30
0
0
VERTEX
8
RASTER
10
107.626
20
14.874
30
0
0
VERTEX
8
RASTER
10
107.44
20
14.528
30
0
0
VERTEX
8
RASTER
10
106.507
20
13.728
30
0
0
VERTEX
8
RASTER
10
105.002
20
12.836
30
0
0
VERTEX
8
RASTER
10
103.669
20
12.436
30
0
0
VERTEX
8
RASTER
10
101.937
20
12.436
30
0
0
VERTEX
8
RASTER
10
101.005
20
12.702
30
0
0
VERTEX
8
RASTER
10
100.032
20
13.195
30
0
0
VERTEX
8
RASTER
10
99.499
20
13.595
30
0
0
VERTEX
8
RASTER
10
98.833
20
14.395
30
0
0
VERTEX
8
RASTER
10
98.34
20
15.9
30
0
0
VERTEX
8
RASTER
10
98.606
20
17.233
30
0
0
VERTEX
8
RASTER
10
99.099
20
18.072
30
0
0
VERTEX
8
RASTER
10
100.072
20
18.565
30
0
0
VERTEX
8
RASTER
10
101.271
20
18.565
30
0
0
VERTEX
8
RASTER
10
102.03
20
18.125
30
0
0
VERTEX
8
RASTER
10
102.244
20
17.805
30
0
0
VERTEX
8
RASTER
10
102.337
20
16.833
30
0
0
VERTEX
8
RASTER
10
101.804
20
16.3
30
0
0
VERTEX
8
RASTER
10
101.138
20
16.3
30
0
0
VERTEX
8
RASTER
10
100.645
20
16.526
30
0
0
VERTEX
8
RASTER
10
100.605
20
16.167
30
0
0
VERTEX
8
RASTER
10
100.831
20
15.727
30
0
0
VERTEX
8
RASTER
10
101.804
20
15.234
30
0
0
VERTEX
8
RASTER
10
102.47
20
15.367
30
0
0
VERTEX
8
RASTER
10
103.176
20
15.727
30
0
0
VERTEX
8
RASTER
10
103.576
20
16.127
30
0
0
VERTEX
8
RASTER
10
104.069
20
17.099
30
0
0
VERTEX
8
RASTER
10
104.202
20
17.499
30
0
0
VERTEX
8
RASTER
10
104.202
20
18.698
30
0
0
VERTEX
8
RASTER
10
103.842
20
19.671
30
0
0
VERTEX
8
RASTER
10
103.043
20
20.603
30
0
0
VERTEX
8
RASTER
10
101.937
20
21.23
30
0
0
VERTEX
8
RASTER
10
101.005
20
21.496
30
0
0
VERTEX
8
RASTER
10
99.272
20
21.496
30
0
0
VERTEX
8
RASTER
10
97.807
20
21.096
30
0
0
VERTEX
8
RASTER
10
96.834
20
20.603
30
0
0
VERTEX
8
RASTER
10
95.768
20
19.804
30
0
0
VERTEX
8
RASTER
10
94.969
20
18.738
30
0
0
VERTEX
8
RASTER
10
94.076
20
16.7
30
0
0
VERTEX
8
RASTER
10
93.943
20
16.033
30
0
0
VERTEX
8
RASTER
10
93.943
20
13.635
30
0
0
VERTEX
8
RASTER
10
94.343
20
12.303
30
0
0
VERTEX
8
RASTER
10
94.969
20
11.064
30
0
0
VERTEX
8
RASTER
10
95.635
20
10.131
30
0
0
VERTEX
8
RASTER
10
96.834
20
8.932
30
0
0
VERTEX
8
RASTER
10
98.873
20
7.773
30
0
0
VERTEX
8
RASTER
10
100.738
20
7.24
30
0
0
VERTEX
8
RASTER
10
103.003
20
7.24
30
0
0
VERTEX
8
RASTER
10
104.695
20
7.679
30
0
0
VERTEX
8
RASTER
10
103.936
20
7.773
30
0
0
VERTEX
8
RASTER
10
103.669
20
7.64
30
0
0
VERTEX
8
RASTER
10
103.003
20
7.64
30
0
0
VERTEX
8
RASTER
10
102.737
20
7.773
30
0
0
VERTEX
8
RASTER
10
101.138
20
7.906
30
0
0
VERTEX
8
RASTER
10
99.366
20
8.665
30
0
0
VERTEX
8
RASTER
10
98.033
20
9.598
30
0
0
VERTEX
8
RASTER
10
97.101
20
10.664
30
0
0
VERTEX
8
RASTER
10
96.341
20
12.17
30
0
0
VERTEX
8
RASTER
10
96.075
20
13.102
30
0
0
VERTEX
8
RASTER
10
95.982
20
14.075
30
0
0
VERTEX
8
RASTER
10
96.075
20
14.967
30
0
0
VERTEX
8
RASTER
10
96.301
20
15.46
30
0
0
VERTEX
8
RASTER
10
96.608
20
14.035
30
0
0
VERTEX
8
RASTER
10
97.5
20
12.396
30
0
0
VERTEX
8
RASTER
10
98.3
20
11.597
30
0
0
VERTEX
8
RASTER
10
99.805
20
10.704
30
0
0
VERTEX
8
RASTER
10
101.138
20
10.304
30
0
0
VERTEX
8
RASTER
10
103.003
20
10.171
30
0
0
VERTEX
8
RASTER
10
103.27
20
10.304
30
0
0
VERTEX
8
RASTER
10
104.469
20
10.437
30
0
0
VERTEX
8
RASTER
10
105.974
20
11.064
30
0
0
VERTEX
8
RASTER
10
107.173
20
11.863
30
0
0
VERTEX
8
RASTER
10
108.239
20
12.929
30
0
0
VERTEX
8
RASTER
10
109.532
20
15.234
30
0
0
VERTEX
8
RASTER
10
109.931
20
16.566
30
0
0
VERTEX
8
RASTER
10
109.931
20
17.099
30
0
0
VERTEX
8
RASTER
10
110.065
20
17.366
30
0
0
VERTEX
8
RASTER
10
109.931
20
19.364
30
0
0
VERTEX
8
RASTER
10
109.398
20
21.096
30
0
0
SEQEND
8
RASTER
0
ENDSEC
0
EOF
